<?xml version="1.0" encoding="UTF-8"?> <svg xmlns="http://www.w3.org/2000/svg" width="70" height="61" viewBox="0 0 70 61" fill="none"><path d="M29.9536 0.778076C26.2756 1.09446 20.6202 2.87413 16.9423 4.89109C7.88573 9.75551 3.13995 16.2019 1.0439 26.3262C0.0947422 30.8742 0.0947422 33.959 1.0439 37.7161C1.83486 40.6822 3.21905 43.8856 3.93092 44.3602C4.40549 44.637 5.82923 44.3602 5.82923 43.9647C5.82923 43.846 5.63149 43.0946 5.3942 42.3432C4.12866 38.1906 3.85182 36.411 3.85182 33.1285C3.89137 28.1454 4.99872 23.281 7.09477 19.2075C12.9479 7.65946 25.0892 2.20181 41.1457 3.94193C52.2983 5.16792 60.4848 9.39958 63.4509 15.5295C67.9199 24.7047 64.321 41.1963 56.0554 49.3432C50.2814 55.0382 38.8915 57.7274 27.6598 56.0269C19.0383 54.7218 12.7897 49.3828 10.1795 41.1172C8.63715 36.1341 9.42811 27.4335 11.7615 24.151C12.1965 23.5183 13.1852 22.7669 13.9366 22.5296C15.5976 21.8968 15.8745 20.5917 14.3716 20.5917C11.0496 20.5917 8.63715 23.1228 6.77838 28.5013C5.63149 31.7838 5.75013 40.4053 6.97612 43.7274C8.04393 46.6935 10.4959 50.8461 12.236 52.5862C14.4112 54.8404 18.4846 57.2133 22.4395 58.558C25.9988 59.784 26.592 59.863 32.9197 60.0212C41.9367 60.2585 46.2475 59.4676 52.3379 56.3828C55.1063 54.9986 56.8464 53.7331 59.6938 51.0438C63.0554 47.9195 63.6487 47.1285 65.3492 43.6483C67.5244 39.1794 67.6035 38.9816 68.4735 35.8178C71.9142 23.1228 68.9877 12.168 60.8012 6.90804C57.5187 4.81199 52.5752 2.71594 49.2136 2.00407C48.1853 1.80633 46.6034 1.4504 45.6938 1.25265C43.2023 0.69898 33.8293 0.461691 29.9536 0.778076Z" fill="white"></path></svg> 