<?xml version="1.0" encoding="UTF-8"?> <svg xmlns="http://www.w3.org/2000/svg" width="211" height="25" viewBox="0 0 211 25" fill="none"><path d="M11.6698 24.84C11.2538 24.808 10.9018 24.712 10.5498 24.616C10.2938 24.552 10.0058 24.52 9.74983 24.424L8.40583 23.88C7.86183 23.656 7.47783 23.368 6.93383 22.984C6.67783 22.792 6.42183 22.6 6.19783 22.408L6.00583 22.696L5.68583 23.144C5.65383 23.208 5.42983 23.464 5.30183 23.624L4.88583 24.04C4.50183 23.912 4.18183 23.656 3.92583 23.336L3.98983 23.08L4.14983 22.728L4.50183 22.28L5.17383 21.32L5.39783 20.968L6.26183 19.816L6.51783 19.464C6.35783 19.368 6.26183 19.368 6.13383 19.336L5.10983 19.016C4.91783 18.92 4.72583 18.856 4.56583 18.76L3.86183 18.408L3.22183 17.928C2.74183 17.512 2.22983 17.096 1.84583 16.552C1.36583 15.912 1.14183 15.272 0.94983 14.536C0.88583 14.248 0.88583 13.96 0.88583 13.672C0.82183 13.448 0.82183 13.224 0.88583 13.032C0.91783 12.488 1.07783 11.976 1.26983 11.432C1.36583 11.24 1.46183 10.984 1.58983 10.824C1.74983 10.664 1.71783 10.408 1.97383 10.28C1.94183 10.344 1.94183 10.376 1.94183 10.408C1.94183 10.408 1.94183 10.44 1.97383 10.44L2.06983 10.344C2.32583 9.95997 2.61383 9.60797 2.96583 9.31997C3.22183 9.12797 3.47783 8.87197 3.73383 8.67997C4.02183 8.42397 4.40583 8.26397 4.72583 8.03997C4.88583 7.94397 5.04583 7.81597 5.23783 7.75197C5.46183 7.59197 5.71783 7.52797 5.90983 7.43197L6.10183 7.30397L6.83783 6.98397L7.02983 6.88797V6.79197L5.71783 7.33597C5.68583 7.30397 5.68583 7.30397 5.68583 7.27197C5.74983 7.23997 5.81383 7.23997 5.84583 7.20797L7.12583 6.66397C7.41383 6.50397 7.70183 6.37597 7.98983 6.24797C8.14983 6.18397 8.27783 6.21597 8.40583 6.11997H8.66183C9.23783 5.95997 9.46183 5.86397 9.90983 5.79997C10.2938 5.73597 10.6458 5.67197 11.0298 5.63997C11.4458 5.60797 11.9578 5.57597 12.3738 5.57597C12.9818 5.57597 13.5578 5.60797 14.1018 5.63997C14.4538 5.67197 14.9978 5.79997 15.3178 5.86397L15.3818 5.79997C15.4778 5.60797 15.6058 5.44797 15.7338 5.28797C15.8618 5.15997 15.9578 5.15997 16.0538 5.28797L16.4378 5.51197C16.4698 5.54397 16.5658 5.57597 16.6298 5.57597C16.6298 5.51197 16.8538 5.63997 16.8538 5.67197C16.9498 5.79997 17.0138 5.86397 17.0458 5.92797C17.0458 6.02397 16.9178 6.34397 16.8218 6.47197C17.0778 6.63197 17.3018 6.72797 17.5258 6.88797C17.7818 7.01597 18.0058 7.17597 18.1978 7.33597C18.7098 7.78397 19.1898 8.26397 19.6698 8.74397C19.9578 9.03197 20.1498 9.38397 20.3418 9.70397C20.5658 10.088 20.8218 10.44 20.9818 10.824C21.2058 11.272 21.3018 11.784 21.3978 12.264L21.6218 13.288C21.6538 13.448 21.6218 13.512 21.4938 13.64C21.5578 13.64 21.5898 13.64 21.6218 13.672C21.6538 13.672 21.7178 13.704 21.7178 13.736C21.7178 13.736 21.6538 13.768 21.6538 13.832C21.6218 13.864 21.5898 13.928 21.5898 13.96C21.7178 14.088 21.6538 14.216 21.7178 14.312C21.7178 14.408 21.7178 14.472 21.6538 14.568C21.8458 14.92 21.8138 15.272 21.5578 15.624C21.7818 15.72 21.8138 15.752 21.7178 15.976C21.7178 16.04 21.7178 16.072 21.6538 16.136L21.5578 16.392C21.6218 16.424 21.6538 16.52 21.5258 16.552C21.6538 16.712 21.6218 16.776 21.4938 16.84C21.4618 16.84 21.4618 16.904 21.3978 16.904C21.6538 17.064 21.4618 17.16 21.4618 17.32L21.3338 17.192C21.3338 17.32 21.3338 17.384 21.3018 17.48C21.2698 17.512 21.2378 17.576 21.1418 17.576C21.1098 17.576 21.0778 17.512 21.0138 17.48L21.1098 17.384C21.2698 17.32 21.2698 17.16 21.1418 16.936C21.2058 16.936 21.2378 16.936 21.2698 16.904C21.2698 16.808 21.2378 16.648 21.2378 16.52L21.3338 16.584C21.3338 16.552 21.3658 16.52 21.3338 16.52C21.3018 16.36 21.3338 16.264 21.3658 16.136C21.4618 15.976 21.4618 15.784 21.4618 15.592V15.272C21.4618 15.24 21.4618 15.208 21.3978 15.112H21.3658C21.2698 15.72 21.2058 16.264 21.1098 16.84C21.1098 16.84 20.4698 18.312 20.4058 18.536C20.4058 18.568 19.8938 19.592 19.6058 19.976L19.3178 20.36L19.0938 20.328C19.2218 20.136 19.3818 19.976 19.4458 19.784C19.3178 19.816 19.4778 19.624 19.5418 19.656C19.7018 19.464 19.9898 18.92 20.2458 18.376L20.8538 16.872L20.7578 16.968C20.6618 17.096 20.4698 17.16 20.4378 17.32C20.4378 17.352 20.3418 17.352 20.3418 17.352C20.3098 17.352 20.3098 17.352 20.2778 17.32C20.4058 17.192 20.4698 17.064 20.5338 16.936C20.5338 16.904 20.5658 16.904 20.5658 16.904C20.5658 16.68 20.8218 16.552 20.7578 16.296C20.7258 16.104 20.8218 15.912 20.8538 15.72C20.9178 15.688 20.8538 15.592 20.8538 15.56C20.9818 15.24 21.0458 14.888 21.1098 14.536C21.1098 14.472 21.1098 14.408 21.1418 14.312H21.0778L20.9818 14.664C20.9178 14.888 20.8218 15.08 20.7898 15.304C20.7258 15.592 20.6938 15.912 20.5978 16.232C20.5658 16.424 20.5658 16.648 20.4058 16.84C20.3418 16.872 20.4058 16.936 20.3418 16.968C20.3098 17.064 20.3098 17.16 20.2778 17.16C20.1178 17.224 20.1178 17.416 20.0218 17.512C20.1178 17.608 20.2458 17.64 20.1498 17.736C20.0538 17.768 19.9898 17.864 19.8938 17.896C19.9898 17.864 20.1818 17.832 20.2458 17.768C20.2138 17.96 20.1818 18.152 20.1178 18.28C20.0218 18.472 19.9258 18.632 19.8618 18.792C19.7658 18.92 19.5418 18.984 19.4458 19.08C19.4458 19.08 19.4458 19.048 19.4138 19.048C19.4778 18.92 19.5418 18.76 19.6378 18.664C19.6378 18.632 19.6058 18.632 19.6058 18.632C19.5098 18.824 19.3498 18.952 19.3498 19.208C19.3498 19.24 19.3178 19.304 19.2538 19.336C19.0618 19.368 18.9658 19.592 18.8698 19.752L18.4218 20.296C18.3898 20.296 18.3898 20.264 18.3898 20.264C18.3898 20.232 18.4218 20.136 18.4538 20.104C18.6458 19.848 18.8698 19.592 18.9978 19.304C19.3178 18.792 19.6058 18.28 19.7978 17.736C19.9898 17.416 20.0538 17.064 20.1818 16.712C20.2778 16.392 20.3418 16.072 20.4378 15.752C20.4698 15.528 20.4698 15.272 20.5018 15.016C20.5018 14.888 20.5338 14.728 20.5658 14.568C20.5658 14.472 20.5018 14.408 20.5018 14.312C20.4698 14.088 20.5018 13.832 20.4698 13.576C20.4698 13.288 20.5018 12.936 20.4058 12.648C20.3098 12.392 20.4058 12.104 20.2138 11.848C20.1178 11.624 20.0538 11.336 19.9898 11.08L19.8938 10.824V10.728H19.9258L20.0538 10.92C20.0538 10.76 20.0218 10.696 19.8938 10.664C19.7978 10.632 19.7018 10.472 19.6378 10.376L18.9658 9.28797C18.8698 9.09597 18.7098 8.90397 18.6138 8.77597L18.4218 8.58397C18.0698 8.26397 17.7498 7.94397 17.3978 7.59197C17.3658 7.59197 17.3658 7.55997 17.3338 7.52797C17.5578 7.55997 17.6538 7.71997 17.7818 7.81597C17.9738 7.97597 18.1338 8.07197 18.2938 8.23197C18.2938 8.16797 18.3258 8.10397 18.2938 8.07197L17.7178 7.59197C17.5898 7.52797 17.4938 7.46397 17.3978 7.36797C17.2058 7.14397 16.8538 7.04797 16.5978 6.88797H16.5018C16.5978 6.95197 16.6938 7.01597 16.7578 7.07997V7.14397C16.6618 7.07997 16.5338 7.01597 16.4058 6.98397C16.2458 7.17597 16.1498 7.36797 15.9898 7.59197C15.7978 7.84797 15.6378 8.13597 15.4138 8.42397C15.2218 8.77597 14.9978 9.09597 14.8058 9.41597C14.7098 9.57597 14.6138 9.67197 14.5178 9.76797L14.4538 9.92797C14.3258 10.184 14.1978 10.504 14.0378 10.728C13.8138 10.92 13.7498 11.208 13.5898 11.432L12.9498 12.424C12.7258 12.84 12.4698 13.224 12.2458 13.608C12.1818 13.736 12.1498 13.864 11.9578 13.896V14.024C11.8618 14.184 11.7338 14.312 11.6698 14.504C11.6058 14.696 11.4458 14.824 11.3498 14.984C11.2218 15.08 11.1898 15.208 11.0938 15.304C11.0298 15.464 10.9018 15.56 10.8378 15.72C10.7098 15.816 10.6138 15.976 10.5498 16.104L10.1338 16.776C10.0378 16.936 9.87783 17.096 9.74983 17.224C9.65383 17.384 9.62183 17.48 9.55783 17.608L9.23783 17.928C9.20583 17.992 9.20583 18.056 9.17383 18.152C8.98183 18.408 8.78983 18.664 8.66183 18.952C8.62983 18.952 8.62983 18.984 8.56583 19.016C9.46183 18.984 10.2938 18.952 11.1258 18.856C11.1258 18.92 11.1258 18.92 11.1578 18.952C11.0618 18.952 10.9338 18.952 10.8378 18.984C10.7098 18.984 10.6138 19.016 10.5178 19.016L10.5498 19.048C10.8378 19.016 11.1258 19.016 11.4778 18.984C11.4138 18.952 11.3818 18.92 11.3498 18.92V18.856L12.2458 18.728C12.2458 18.76 12.2458 18.76 12.2778 18.792C12.0218 18.824 11.8298 18.856 11.6058 18.952V18.984L12.3098 18.856L13.0778 18.76C13.3018 18.728 13.5258 18.728 13.7818 18.696C13.9098 18.696 14.0378 18.568 14.1978 18.536C14.3258 18.504 14.4538 18.504 14.6138 18.472C14.6458 18.472 14.7098 18.536 14.7738 18.536V18.632L14.0698 18.728C14.0378 18.728 13.9738 18.728 13.9098 18.76C13.8138 18.952 13.6218 18.92 13.4938 18.952L12.5338 19.176C11.9258 19.24 11.3178 19.368 10.6458 19.368C10.2618 19.368 9.84583 19.56 9.46183 19.528C9.33383 19.496 9.26983 19.496 9.17383 19.496C9.20583 19.464 9.23783 19.432 9.26983 19.432L9.23783 19.368C8.94983 19.56 8.56583 19.432 8.24583 19.528L8.18183 19.656C8.08583 19.816 8.02183 19.848 7.89383 20.04C7.73383 20.168 7.63783 20.36 7.50983 20.52C7.38183 20.808 7.22183 21 7.02983 21.288L6.58183 21.896C6.77383 22.12 7.02983 22.408 7.34983 22.632C7.70183 22.888 8.21383 23.176 8.53383 23.336C8.88583 23.496 9.26983 23.624 9.58983 23.72C10.1658 23.88 10.5498 23.912 11.1258 23.88L12.2138 23.752C12.5018 23.72 12.7898 23.72 13.0778 23.624C13.4298 23.56 13.7178 23.464 14.0378 23.368C14.1338 23.336 14.2938 23.368 14.4218 23.368V23.24C14.5818 23.24 14.6778 23.208 14.8058 23.176V23.24L14.5498 23.336V23.368L14.9658 23.272C14.9338 23.24 14.9018 23.208 14.9018 23.176V23.08C15.0938 23.304 15.1898 23.112 15.3498 23.048C15.4458 22.984 15.6058 22.952 15.7338 22.856V22.792C15.5738 22.856 15.4138 22.952 15.2218 22.984C15.1898 23.016 15.1258 23.016 15.0938 23.016L15.1898 22.856C15.4458 22.696 15.7018 22.504 15.9898 22.312L16.5018 21.992H16.5658C16.7258 22.12 16.7898 21.992 16.9178 21.928C16.9818 21.864 17.0778 21.864 17.1738 21.832C17.2378 21.768 17.3018 21.736 17.3018 21.672C17.3018 21.576 17.3658 21.48 17.4618 21.448C17.5258 21.384 17.5578 21.256 17.6538 21.192C17.7178 21.16 17.7818 21.16 17.8458 21.16C17.8138 21.192 17.7818 21.224 17.7498 21.32C17.8778 21.32 17.9098 21.256 18.0058 21.064C17.9098 21.064 17.8458 21.064 17.7818 21.032L17.9738 20.84C18.0378 20.872 18.0698 20.904 18.1018 20.968C18.1018 20.936 18.1338 20.936 18.1338 20.936C18.1338 20.904 18.1018 20.904 18.0698 20.84C18.2938 20.904 18.3898 20.808 18.4538 20.648C18.5498 20.552 18.6458 20.456 18.7738 20.392C18.7738 20.424 18.8058 20.424 18.8058 20.424L18.4538 20.872V20.936C18.5818 20.904 18.6778 20.904 18.7738 20.872C18.7738 21.224 18.4538 21.512 18.1658 21.384L18.5818 21.096C18.3898 20.936 18.3578 20.936 18.2938 21.096C18.2938 21.128 18.2618 21.16 18.2618 21.16C18.1658 21.192 18.0698 21.224 18.1018 21.352C18.1338 21.384 18.0378 21.448 18.0058 21.48C18.0698 21.512 18.1338 21.512 18.2938 21.576C18.0698 21.704 17.9098 21.864 17.7818 21.96C17.7818 21.992 17.7818 21.992 17.8138 21.992C18.0698 21.928 18.2938 21.672 18.5178 21.48C18.7098 21.352 18.8698 21.096 19.0938 20.904C19.0618 20.936 19.0618 20.968 18.9978 21.064L19.3178 20.808C19.3498 20.776 19.3178 20.68 19.3178 20.616C19.3498 20.616 19.4138 20.584 19.4138 20.584C19.4138 20.52 19.4138 20.424 19.4458 20.36C19.4778 20.296 19.5418 20.168 19.6698 20.264C19.7338 20.136 19.7978 20.008 19.8938 19.912C20.1178 19.784 20.1178 19.528 20.2778 19.336C20.3098 19.304 20.4058 19.304 20.4378 19.272C20.4378 19.272 20.4378 19.304 20.4698 19.304L20.1818 19.848C20.1818 19.848 20.1818 19.88 20.2138 19.88C20.2778 19.752 20.4058 19.624 20.4698 19.528C20.4698 19.592 20.4378 19.72 20.4378 19.816H20.3418L20.4698 19.88L20.2778 19.976C20.4698 20.168 20.1818 20.264 20.1178 20.392L19.9898 20.264C20.0218 20.136 20.1178 20.104 20.2458 20.168C20.2138 20.104 20.1818 20.04 20.1178 19.976L18.9018 21.448C18.9338 21.48 18.9978 21.512 19.0938 21.608L19.2538 21.416C19.3178 21.416 19.3178 21.416 19.3498 21.448C19.2538 21.512 19.1898 21.608 19.1258 21.704L19.0618 21.64C18.9338 21.704 18.8378 21.768 18.7098 21.896C18.6458 21.96 18.5818 21.992 18.4538 22.056V22.024L18.9018 21.576C18.9018 21.512 18.8698 21.512 18.8698 21.48C18.7098 21.608 18.5818 21.704 18.4218 21.864H18.4538C18.3898 21.896 18.3258 21.896 18.2938 21.928C18.1338 22.024 18.0378 22.152 17.8778 22.216C17.6538 22.376 17.3978 22.472 17.2058 22.536C17.0138 22.664 16.7898 22.728 16.5978 22.792C16.5018 22.856 16.4378 22.952 16.3738 23.016C16.2778 23.048 16.2138 23.176 16.1178 23.08C16.1178 23.048 16.0218 23.112 15.9898 23.112V23.208C16.1498 23.176 16.2778 23.208 16.4058 23.112C16.6938 23.016 16.9498 22.856 17.2378 22.728C17.2698 22.728 17.2698 22.696 17.3018 22.696C17.5898 22.728 17.7498 22.536 17.9098 22.376C18.0378 22.248 18.1978 22.184 18.3898 22.12C18.3578 22.152 18.3578 22.184 18.3578 22.248C18.4538 22.152 18.6138 22.056 18.7098 21.992C18.7098 22.024 18.7098 22.024 18.7738 22.056C18.5818 22.12 18.5178 22.376 18.2618 22.28C18.1018 22.248 18.0378 22.44 18.0058 22.536C17.8458 22.76 17.7178 22.952 17.4618 23.048L16.5658 23.272L16.1178 23.496C15.8938 23.592 15.7018 23.624 15.4458 23.624C15.4138 23.592 15.3818 23.624 15.3498 23.656H15.5098L15.5738 23.72C15.1578 23.784 14.8058 23.976 14.3898 23.976C14.1978 23.976 14.0698 24.072 13.8778 24.168C14.4538 24.136 15.0618 24.168 15.6378 24.008V24.04C15.3818 24.136 15.1258 24.2 14.8378 24.328C14.7098 24.328 14.5498 24.296 14.3578 24.264C14.3898 24.392 14.1978 24.456 13.8778 24.424L14.1978 24.328C14.1658 24.328 14.1658 24.296 14.1658 24.296L13.7498 24.424C13.4618 24.424 13.1098 24.424 12.7898 24.392C12.9498 24.616 13.2058 24.52 13.3338 24.584C13.0778 24.616 12.7898 24.712 12.5018 24.648C12.3738 24.616 12.1818 24.648 11.9898 24.648H11.6058L11.5738 24.68L11.9258 24.808V24.84H11.6698ZM6.67783 18.824C6.83783 18.856 6.93383 18.856 7.02983 18.76C7.31783 18.312 7.60583 17.928 7.89383 17.512C8.11783 17.224 8.27783 16.904 8.50183 16.616C8.53383 16.552 8.66183 16.488 8.69383 16.488C8.98183 16.488 8.98183 16.488 9.10983 16.264C9.07783 16.296 9.01383 16.328 8.94983 16.392C8.94983 16.36 8.94983 16.36 8.91783 16.36C8.98183 16.264 9.01383 16.168 9.04583 16.072C8.94983 16.168 8.82183 16.296 8.75783 16.392C8.72583 16.392 8.72583 16.36 8.72583 16.36C9.90983 14.472 11.1578 12.552 12.4058 10.664C12.4058 10.664 12.4378 10.664 12.4378 10.696C12.4058 10.76 12.3738 10.888 12.2778 10.984C12.4058 10.952 12.4378 10.952 12.4698 10.952V10.728C12.5018 10.696 12.5338 10.632 12.5018 10.632C12.4058 10.472 12.5018 10.376 12.5338 10.28L13.8778 8.10397C13.9738 7.97597 14.0698 7.84797 14.1658 7.68797C14.1978 7.75197 14.1978 7.78397 14.1978 7.81597L14.6138 7.27197C14.5498 7.23997 14.5178 7.20797 14.4218 7.20797C14.6778 6.98397 14.6458 6.63197 14.9978 6.50397C13.9738 6.31197 13.3658 6.24797 12.0858 6.40797C11.4778 6.47197 11.0938 6.59997 10.6458 6.66397C10.1658 6.75997 9.78183 6.95197 9.39783 7.07997C9.23783 7.14397 9.10983 7.11197 8.94983 7.17597L8.69383 7.30397C8.56583 7.36797 8.50183 7.43197 8.37383 7.46397C8.18183 7.55997 7.98983 7.59197 7.82983 7.65597C7.50983 7.84797 7.15783 7.94397 6.93383 8.23197C6.93383 8.26397 6.83783 8.26397 6.77383 8.26397C6.67783 8.29597 6.61383 8.32797 6.58183 8.35997L6.35783 8.51997C5.90983 8.77597 5.46183 8.90397 5.01383 9.28797C4.69383 9.54397 4.27783 9.73597 3.98983 10.088C3.95783 10.12 3.89383 10.12 3.82983 10.152C3.89383 10.024 3.92583 9.95997 3.98983 9.89597L3.95783 9.86397C3.82983 9.95997 3.66983 10.12 3.57383 10.216H3.76583L3.41383 10.664C3.22183 10.888 3.02983 11.048 2.86983 11.272C2.67783 11.56 2.58183 11.88 2.42183 12.168L2.26183 12.392L2.13383 12.232C2.10183 12.296 2.06983 12.328 2.00583 12.392C2.29383 12.488 2.29383 12.584 2.13383 12.808C2.10183 12.872 2.06983 12.968 2.10183 13.096C2.10183 13.224 2.03783 13.352 1.87783 13.32H1.78183C1.78183 13.32 1.78183 13.352 1.74983 13.352C1.84583 13.384 1.97383 13.416 2.10183 13.48L1.84583 13.608C1.94183 13.672 2.00583 13.736 2.03783 13.832C2.03783 13.928 2.03783 14.024 2.00583 14.184C2.00583 14.28 1.97383 14.44 1.97383 14.568C1.84583 14.504 1.81383 14.44 1.74983 14.376C1.78183 14.536 1.78183 14.664 1.81383 14.792L1.84583 14.824C1.84583 14.632 1.97383 14.632 2.13383 14.664C2.03783 14.792 1.97383 14.952 1.94183 15.08H1.97383L2.22983 15.208L2.00583 15.304C2.29383 15.336 2.29383 15.336 2.32583 15.688V15.72C2.48583 15.88 2.32583 15.88 2.16583 15.912C2.32583 16.008 2.48583 16.072 2.38983 16.232L2.64583 16.296C2.64583 16.424 2.77383 16.52 2.80583 16.584C2.86983 16.68 2.90183 16.808 2.93383 16.904C3.06183 16.968 3.15783 17.064 3.22183 17.128C3.34983 17.224 3.44583 17.416 3.60583 17.512C3.76583 17.704 3.98983 17.832 4.18183 17.96L4.69383 18.216C5.10983 18.408 5.49383 18.504 5.87783 18.632C6.16583 18.696 6.42183 18.728 6.67783 18.824ZM6.67783 6.75997C6.67783 6.72797 6.64583 6.72797 6.64583 6.69597C6.86983 6.63197 7.06183 6.50397 7.22183 6.43997C7.28583 6.43997 7.28583 6.43997 7.28583 6.47197C7.09383 6.53597 6.86983 6.66397 6.67783 6.75997ZM17.2698 7.49597L16.8218 7.20797C16.8218 7.17597 16.8218 7.17597 16.8538 7.14397L17.3018 7.43197C17.3018 7.46397 17.2698 7.46397 17.2698 7.49597ZM4.98183 7.68797C4.94983 7.68797 4.94983 7.62397 4.94983 7.62397L5.42983 7.43197C5.42983 7.43197 5.46183 7.43197 5.46183 7.46397L4.98183 7.68797ZM3.28583 8.87197C3.22183 8.87197 3.22183 8.83997 3.18983 8.83997C3.38183 8.74397 3.50983 8.61597 3.66983 8.48797L3.73383 8.55197C3.57383 8.64797 3.41383 8.77597 3.28583 8.87197ZM2.48583 9.67197C2.48583 9.63997 2.42183 9.63997 2.42183 9.63997C2.54983 9.47997 2.67783 9.35197 2.80583 9.22397C2.83783 9.22397 2.83783 9.22397 2.83783 9.28797C2.74183 9.38397 2.58183 9.54397 2.48583 9.67197ZM20.4698 19.528L20.5978 19.176C20.5338 19.176 20.5018 19.208 20.4378 19.24C20.4378 19.208 20.4058 19.208 20.4058 19.208C20.4378 19.08 20.5018 19.016 20.5338 18.92C20.5658 18.824 20.5658 18.728 20.5658 18.632C20.5658 18.472 20.5978 18.376 20.7578 18.28C20.8538 18.248 20.9178 18.184 20.7898 18.056C20.8538 18.056 20.9178 18.024 20.9498 17.992V17.64C21.0778 17.672 21.2058 17.672 21.3018 17.672C21.3018 17.608 21.3658 17.512 21.3978 17.384C21.3978 17.704 21.2698 17.96 21.1098 17.928V17.96C21.3018 18.184 21.0778 18.408 21.0138 18.568C20.9498 18.856 20.7578 19.112 20.5978 19.368C20.5658 19.432 20.5018 19.464 20.4698 19.528ZM14.5178 18.152L14.8698 18.024C14.8058 18.216 14.6458 18.248 14.5178 18.152ZM15.0938 18.44V18.408C15.2218 18.376 15.3818 18.28 15.5738 18.248V18.312L15.0938 18.44ZM12.8538 18.696C12.8218 18.664 12.8218 18.664 12.8218 18.632L13.6538 18.504V18.536C13.3658 18.632 13.1098 18.664 12.8538 18.696ZM18.7738 20.36L18.7098 20.328C18.8698 20.136 19.0618 19.592 19.1898 19.656C19.3498 19.496 19.4458 19.272 19.5098 19.08L19.7018 19.016C19.5418 19.304 19.3498 19.592 18.7738 20.36ZM17.9738 20.68L18.2938 20.36C18.1338 20.712 18.1338 20.712 17.9738 20.68ZM18.9018 20.776C18.8698 20.776 18.8378 20.712 18.8378 20.68L19.0618 20.456C19.0938 20.616 19.0618 20.712 18.9018 20.776ZM19.7018 20.68C19.7338 20.584 19.7978 20.52 19.8618 20.456L19.9898 20.584C19.9898 20.616 19.9898 20.616 19.7018 20.68ZM15.9258 23.976C15.9258 23.976 15.9258 23.912 15.8938 23.912C16.0218 23.848 16.1498 23.784 16.2778 23.752C16.2778 23.784 16.3098 23.784 16.3098 23.816C16.1818 23.848 16.0538 23.912 15.9258 23.976ZM24.6193 20.04C24.5553 20.04 24.4593 20.04 24.3633 20.008C24.2993 19.944 24.0433 19.784 23.8513 19.688C23.5633 19.304 23.4673 18.888 23.5953 18.408C23.6913 18.184 23.7553 18.024 23.8193 17.832C23.8513 17.8 23.8513 17.8 23.8513 17.768C23.8833 17.576 23.9793 17.416 24.0433 17.192L24.2673 16.808C24.3953 16.648 24.4593 16.488 24.5233 16.424C24.8753 15.88 25.2913 15.496 25.6753 15.016C26.0593 14.6 26.6033 14.216 27.2113 14.152C27.8833 14.28 28.6513 14.408 28.7793 15.144C28.8753 15.592 28.6193 15.88 28.4593 16.2C28.7153 16.168 28.9393 15.912 29.3233 15.944C29.5153 16.008 29.6433 16.168 29.7073 16.392C29.7073 16.392 29.7393 16.744 29.6433 17C29.6113 17.032 29.6113 17.096 29.5793 17.16C29.4833 17.608 29.4833 18.088 29.6753 18.536C29.7073 18.664 29.8033 18.792 29.9633 18.888C30.0273 18.92 30.0913 18.92 30.1873 18.888C30.2833 18.856 30.4113 18.856 30.5393 18.792C31.0513 18.568 31.5633 18.184 32.0113 17.864C32.4273 17.608 32.9073 17.32 33.3553 17C34.1233 16.52 34.0593 16.584 34.7953 16.104C35.0193 15.912 35.2753 15.752 35.5953 15.56L35.6913 15.624L35.4033 16.008C35.4673 16.168 35.4673 16.168 35.6593 16.04C35.6593 15.976 35.6593 15.848 35.8193 15.912C35.4993 16.392 34.9873 16.648 34.5713 16.936C34.4113 17.064 34.1873 17.16 34.0913 17.224C33.9953 17.32 33.8673 17.48 33.7073 17.544C33.6753 17.576 33.5793 17.576 33.4833 17.608C33.4833 17.608 33.4833 17.576 33.4513 17.544C33.4833 17.544 33.5793 17.48 33.6433 17.416C33.7713 17.352 33.8353 17.256 33.8033 17.128C33.8033 17.096 33.7393 17.064 33.7073 17.064C33.4513 17.192 33.2913 17.352 33.0673 17.512C32.6833 17.672 32.3953 17.864 32.0753 18.12C31.9793 18.152 31.8833 18.248 31.7553 18.28V18.344C31.8513 18.312 31.9473 18.312 32.0113 18.248C32.1393 18.152 32.2353 18.152 32.3313 18.216C32.3313 18.184 32.2993 18.152 32.2993 18.12C32.5233 18.024 32.6833 18.056 32.8753 17.896C33.0673 17.768 33.2913 17.704 33.4193 17.576C33.4193 17.64 33.3873 17.736 33.2913 17.8C33.0353 17.928 32.7793 18.12 32.5233 18.248C32.4593 18.28 32.3953 18.344 32.3313 18.44C32.2673 18.504 32.2033 18.536 32.1073 18.568C32.2033 18.6 32.2673 18.6 32.3313 18.6L32.2993 18.632C32.2353 18.664 32.1713 18.696 32.0753 18.696V18.824C32.2353 18.728 32.4593 18.632 32.6193 18.536V18.6C32.4593 18.728 32.2353 18.856 32.1073 19.016C31.8513 19.304 31.5633 19.368 31.2433 19.592C31.0513 19.688 30.9553 19.656 30.7953 19.752C30.7313 19.784 30.5713 19.848 30.4753 19.848C30.4433 19.848 30.2833 19.912 30.1873 19.912C30.0593 19.912 29.7713 19.976 29.6433 19.944C29.5793 19.912 29.3873 19.912 29.3233 19.848C29.2273 19.816 29.1633 19.688 29.0673 19.656C28.8753 19.4 28.6513 19.272 28.5233 18.984C28.3313 18.792 28.3633 18.728 28.2673 18.568C28.2033 18.536 28.2033 18.472 28.1713 18.408C27.9473 18.536 27.9473 18.856 27.7233 18.856C27.6593 18.92 27.6273 19.016 27.5633 19.048C27.1793 19.336 26.6673 19.752 26.1553 19.976C25.6433 20.232 25.0993 20.232 24.6193 20.04ZM24.5553 19.112C24.9073 19.112 25.4833 19.08 25.8033 18.952C26.2193 18.792 26.5073 18.568 26.8273 18.216C27.3073 17.704 27.5313 17.32 28.0113 16.808C28.0433 16.808 28.1713 16.648 28.1713 16.648H28.1393C27.4353 16.584 27.6913 15.176 27.7233 15.144C26.7633 15.304 25.6433 16.808 25.2913 17.416C25.0033 17.928 24.7153 18.472 24.5553 19.112ZM34.0593 17.16C34.0913 17.16 34.1233 17.064 34.1233 17.032C34.1233 16.904 34.1873 16.872 34.2513 16.84C34.2833 16.776 34.4113 16.744 34.5073 16.712C34.5713 16.68 34.6993 16.68 34.7633 16.648V16.456C34.8273 16.424 34.8593 16.36 34.8913 16.328C34.8913 16.296 34.8913 16.264 34.8593 16.264C34.7953 16.328 34.6353 16.424 34.4753 16.52C34.2513 16.648 33.8353 16.936 33.8033 17C33.8673 17.032 33.9953 17.096 34.0593 17.16ZM50.3871 18.6L49.6191 18.984L49.6831 19.016C49.6191 19.016 49.5231 19.144 49.3631 19.208V19.272C49.2671 19.304 49.2031 19.304 49.2991 19.336C49.2671 19.368 49.1071 19.368 49.0751 19.368C48.8191 19.336 48.6911 19.496 48.0191 19.752V19.816L48.8831 19.464C48.9151 19.56 48.8831 19.56 48.7871 19.56C48.4991 19.688 47.7311 20.264 47.4111 20.264C47.4111 20.264 47.3791 20.264 47.3791 20.296V20.392L48.0831 20.104C48.2431 20.104 48.3391 19.88 48.4351 19.816C48.5631 19.72 48.6911 19.72 48.9151 19.592C49.0431 19.56 48.9151 19.496 49.0111 19.432H49.1711L48.8191 19.688L48.8511 19.752C48.6591 19.848 48.5631 19.912 48.4351 20.04L48.3391 20.104L48.0511 20.136C47.8271 20.424 47.5391 20.68 47.1551 20.904C46.5471 21.224 45.8751 21.48 45.2351 21.448C43.5391 21.416 42.9951 19.976 43.5711 17.864C43.2831 18.056 42.9311 18.376 42.0031 19.432C41.7791 20.072 41.6831 20.904 41.5551 21.576C41.5231 21.736 41.0111 21.864 40.7551 21.8C40.5311 21.768 40.3071 21.672 40.2111 21.576C40.0831 21.384 40.0831 21.256 40.1471 21.032C40.1471 20.68 40.2751 20.2 40.3391 19.816L40.9791 16.296C40.6271 16.488 39.6991 17.32 39.6351 17.64C39.4751 18.12 39.4111 18.568 39.2191 19.048C38.4831 21.032 37.4591 21.96 35.9551 21.8C34.8991 21.768 34.3871 21.16 34.8991 20.264C35.4751 19.336 35.8271 18.92 37.2991 17.96C37.6191 17.736 38.1631 17.512 38.2271 17.064C38.2911 16.488 38.2591 16.072 38.1311 15.592C38.0351 15.016 37.5231 14.92 36.9791 15.208C36.4031 15.496 35.8271 16.008 35.6351 16.648C35.4751 16.776 35.4111 16.904 35.3791 17C35.3151 17.192 35.2191 17.256 35.0271 17.256C34.9631 17.224 34.8031 17.064 34.8351 16.904C34.8351 16.84 34.8351 16.712 34.8991 16.648C34.9631 16.424 34.8991 16.264 35.0271 16.072C35.4431 15.56 35.6031 15.112 36.1471 14.696C36.5951 14.376 37.1071 14.152 37.6191 14.152C38.3551 14.12 39.0911 14.504 39.3151 15.048C39.5071 15.4 39.5711 16.008 39.6351 16.456C39.9551 16.2 41.2671 15.336 41.2031 15.24L41.3631 14.92C41.5231 14.152 41.5871 14.12 41.6511 13.704C41.7471 13.448 41.7471 13.032 41.9071 12.712C41.9391 12.328 42.0351 12.008 42.1311 11.656C42.2911 11.24 42.4511 10.536 42.5151 10.024C42.6751 9.63997 42.7711 8.77597 42.9951 8.13597C42.9951 8.00797 43.0911 7.87997 43.1231 7.75197C43.1551 7.46397 43.3151 7.14397 43.2831 6.85597L43.3471 6.75997C43.4111 6.79197 43.4751 6.79197 43.5071 6.82397C43.7951 7.14397 44.3071 7.14397 44.2751 7.46397C44.2751 7.55997 44.2111 7.68797 44.2751 7.81597C44.4351 7.97597 44.3711 8.19997 44.2751 8.45597C44.0831 9.28797 43.8591 10.472 43.5391 11.496C43.2191 12.552 42.9631 13.64 42.9631 13.8C42.7071 14.824 42.7711 14.536 42.5791 15.272C42.4831 15.784 42.3871 16.328 42.3231 16.776C42.1951 17.32 42.1311 17.8 42.0991 18.344L42.1951 18.28C42.6751 17.8 43.3151 17.224 43.8271 16.84L43.8911 16.712C44.4351 15.496 45.7791 14.504 46.8671 14.664C47.6031 14.824 48.1151 15.272 48.1151 16.04C48.1151 16.328 47.9871 16.456 47.9231 16.744C47.7311 17 47.5071 17.032 47.3151 16.968C47.1551 16.872 46.9631 16.712 46.8991 16.392C46.9311 16.296 47.1231 15.304 46.6111 15.336C45.6511 15.432 44.8191 17.704 44.6911 19.176C44.6271 19.944 44.8191 20.712 45.6831 20.616C46.1631 20.552 46.7711 20.296 47.5391 20.04C48.3071 19.592 48.6911 19.304 48.7871 19.24C49.2351 19.144 49.5231 19.016 50.0031 18.664L50.2591 18.472L50.2911 18.568C50.2911 18.568 50.3551 18.568 50.3871 18.6ZM43.3791 8.23197C43.3791 8.32797 43.3791 8.42397 43.3471 8.45597H43.4431C43.4751 8.23197 43.5711 7.94397 43.6351 7.78397C43.6031 7.71997 43.5711 7.71997 43.5391 7.71997C43.5071 7.84797 43.4431 8.10397 43.3791 8.23197ZM42.7711 11.016C42.7391 11.016 42.7071 11.048 42.6751 11.112C42.7071 11.144 42.7391 11.176 42.7711 11.176C42.8351 11.208 42.8671 11.176 42.8671 11.144C43.0271 10.568 43.0911 10.344 43.0911 10.184C43.1231 9.95997 43.1551 9.83197 43.2511 9.63997C43.2511 9.57597 43.3471 8.74397 43.4111 8.61597C43.3471 8.61597 43.3151 8.61597 43.3471 8.58397C43.2511 8.74397 43.0911 9.54397 43.0911 9.60797C43.0271 9.76797 43.0271 9.83197 43.0591 9.92797C42.9631 9.92797 42.9951 10.024 42.9951 10.12C42.9311 10.248 42.8671 10.344 42.8031 10.408C42.8991 10.536 42.8991 10.568 42.7711 11.016ZM41.9711 14.536C42.0351 14.408 42.0991 14.216 42.0991 14.056H42.0031C41.9391 14.056 42.0671 13.864 42.0991 13.832C42.1311 13.8 42.1311 13.736 42.1311 13.704C42.1311 13.672 42.1311 13.608 42.0991 13.608C42.1631 13.576 42.2591 13.544 42.3871 13.512V13.448C42.2591 13.448 42.1631 13.448 42.1311 13.448C42.1951 13.32 42.2271 13.224 42.2271 13.16C42.2911 13.16 42.3231 13.16 42.3871 13.192C42.3551 13.032 42.3231 12.872 42.3231 12.744C42.3871 12.712 42.4831 12.712 42.5471 12.68C42.4831 12.616 42.4191 12.552 42.3871 12.552C42.4831 12.52 42.5791 12.488 42.5791 12.424C42.6751 12.136 42.6751 11.848 42.7071 11.624C42.8351 11.4 42.8351 11.4 42.6431 11.304C42.6431 11.4 42.5791 11.432 42.5791 11.496C42.6431 11.496 42.6751 11.496 42.7071 11.528C42.6751 11.56 42.6431 11.56 42.5151 11.624L42.6431 11.752C42.5791 11.752 42.5151 11.816 42.4191 11.784V11.976C42.3871 12.104 42.3231 12.232 42.3231 12.392C42.2271 12.68 42.1951 13.032 42.1311 13.32C42.0031 13.704 41.8751 14.088 41.7791 14.472C41.7151 14.728 41.5871 15.08 41.6191 15.432L41.5871 15.464C41.5551 15.624 41.4271 15.848 41.3951 16.104C41.3951 16.136 41.4271 16.168 41.4911 16.232C41.5231 16.168 41.5551 16.2 41.6191 16.168C41.5551 16.136 41.5231 16.072 41.5231 16.072C41.5871 15.912 41.6511 15.816 41.7151 15.688C41.7471 15.496 41.8431 15.272 41.9391 15.048C41.9391 14.888 41.9391 14.696 41.9711 14.536ZM42.2591 14.632C42.2271 14.408 42.5151 14.216 42.3551 13.992C42.2271 14.184 42.1951 14.536 42.2591 14.632ZM46.1631 14.984C45.7791 14.92 44.9791 15.592 44.9151 15.752L45.0751 15.912C45.2991 15.624 45.8751 15.112 46.1631 14.984ZM41.2031 16.968C41.4911 16.84 41.3951 16.648 41.3951 16.552C41.4591 16.488 41.4911 16.424 41.5231 16.392C41.4911 16.36 41.4911 16.296 41.3631 16.232C41.2671 16.52 41.2671 16.744 41.2031 16.968ZM41.5871 17.384C41.6191 17.256 41.6191 17.128 41.6831 16.968C41.5231 17.032 41.4271 17.48 41.4911 17.608C41.5551 17.544 41.5551 17.48 41.5871 17.384ZM41.2991 17.16C41.2991 17.128 41.2671 17.096 41.2991 17C41.2351 17.032 41.2031 17.032 41.2031 17.032C41.1391 17.16 41.1391 17.288 41.1071 17.448H41.2671C41.2671 17.352 41.2991 17.256 41.2991 17.16ZM41.1711 17.768C41.1711 17.672 41.2671 17.576 41.2671 17.544C41.2031 17.512 41.1391 17.512 41.1071 17.512C40.9151 18.312 40.7231 19.016 40.5951 19.752C40.6271 19.752 40.6591 19.816 40.6591 19.816C40.6911 19.688 41.0111 19.656 40.7871 19.4C40.8831 19.336 40.9471 19.304 40.8831 19.208C40.8191 18.984 40.9151 18.824 41.0111 18.6C41.0751 18.568 41.1071 18.376 41.1391 18.088L41.1071 18.024C41.1391 17.992 41.1711 17.928 41.1711 17.896V17.768ZM37.9071 17.832C37.4911 18.152 37.1071 18.44 36.6271 18.728C37.0431 18.696 37.9071 18.024 37.9071 17.832ZM43.8271 18.088L44.1471 17.992C44.0831 17.96 44.0191 17.864 43.9871 17.864L43.7951 17.992C43.7951 18.056 43.8591 18.024 43.8271 18.088ZM36.6911 20.744C37.4591 20.008 37.7151 19.368 38.0031 18.408C37.2991 18.952 36.6271 19.272 35.8911 20.136C35.6991 20.36 35.6031 20.52 35.4751 20.776C35.4111 20.936 35.4111 21.096 35.4751 21.128C35.9231 21.352 36.5311 20.904 36.6911 20.744ZM43.9231 20.072C43.8591 19.848 43.9871 18.856 43.9231 18.472C43.7631 18.664 43.6991 19.624 43.7631 19.688C43.7951 19.752 43.7951 19.848 43.8271 19.88C43.7631 20.136 43.7631 20.136 43.9231 20.072ZM36.9471 21.384C37.0431 21.384 37.6831 20.936 37.6511 20.744C37.3631 20.936 37.0431 21.16 36.9471 21.384ZM56.0168 19.208C56.0168 19.24 56.0488 19.272 56.0488 19.272C56.4648 19.144 56.8168 18.792 57.2328 18.568C57.2008 18.632 57.2008 18.696 57.1688 18.728C57.0408 18.856 56.8808 18.984 56.7528 19.08L56.1448 19.56C55.8888 19.688 55.6968 19.816 55.4728 19.976C55.1848 20.136 54.9288 20.36 54.6088 20.488C54.4168 20.584 54.1928 20.584 53.9688 20.616C53.8408 20.616 53.7768 20.648 53.6808 20.712C53.5528 20.776 53.3608 20.808 53.2008 20.84C52.9448 20.904 52.7208 20.968 52.4648 20.936C52.1448 20.904 51.7928 20.84 51.5048 20.744C51.2168 20.648 51.0888 20.616 50.7688 20.36C50.7368 20.296 50.6408 20.264 50.6088 20.232C50.3848 20.072 50.2568 19.88 50.0648 19.592C50.0008 19.528 50.0008 19.528 49.9368 19.208C49.7768 18.824 49.8088 18.6 49.8088 18.376C49.8408 17.736 50.0008 17.128 50.3208 16.52C50.4488 16.328 50.5768 16.136 50.7368 15.944C51.0248 15.592 51.3128 15.272 51.6008 14.952C51.8888 14.664 52.2408 14.472 52.6568 14.44C52.7528 14.44 52.8488 14.408 52.9768 14.376C53.2968 14.248 53.5848 14.472 53.8088 14.6C54.0968 14.728 54.3528 14.92 54.5768 15.112C54.8328 15.272 54.9928 15.816 54.8968 16.072C54.8328 16.232 54.7368 16.392 54.6408 16.488C54.3528 16.808 54.0648 17.096 53.7768 17.384C53.6808 17.48 53.4888 17.512 53.4568 17.608C53.4248 17.832 53.2008 17.864 53.0728 17.928L52.8488 18.056C52.9128 18.056 52.9448 18.088 52.9448 18.088C52.8488 18.152 52.7528 18.184 52.6248 18.248C52.5928 18.28 52.5928 18.376 52.5608 18.408C52.3368 18.536 52.0808 18.632 51.8888 18.76C51.7928 18.792 51.7288 18.888 51.6648 18.952C51.4088 19.08 51.3128 19.112 51.0888 19.24C51.2168 19.624 51.2808 19.688 51.5368 19.784C51.9528 19.752 52.3688 19.784 52.7848 19.72C53.0728 19.688 53.3608 19.56 53.6488 19.464C53.8728 19.368 54.1288 19.24 54.3848 19.144C54.5448 19.08 54.7048 19.08 54.8648 18.984C55.2168 18.76 55.6008 18.568 55.9208 18.376L56.0168 18.312C56.0488 18.344 56.0488 18.344 56.0488 18.344C56.0168 18.408 55.9528 18.472 55.9208 18.504C55.9528 18.536 55.9848 18.568 55.9528 18.6C56.0488 18.6 56.1448 18.568 56.2088 18.536C56.2408 18.568 56.2408 18.568 56.2088 18.6C56.0808 18.696 55.9208 18.824 55.7928 18.952C55.8888 19.016 56.0488 19.048 56.2088 19.112C56.1128 19.144 56.0808 19.176 56.0168 19.208ZM51.2808 17.288C51.1848 17.48 51.1208 17.704 51.0568 17.96C51.3128 17.8 51.4728 17.704 51.6008 17.608C51.6648 17.608 51.7288 17.64 51.7608 17.608C51.8568 17.544 52.0168 17.448 52.1448 17.32C52.0488 17.32 52.0168 17.352 51.9208 17.352C52.1128 17.192 52.2088 17 52.4328 17C52.3688 17.096 52.2728 17.16 52.2088 17.256C52.2088 17.256 52.2088 17.288 52.2408 17.288C52.5288 17.096 52.7848 16.872 53.0728 16.68L53.0088 16.616C52.9448 16.68 52.8808 16.744 52.7528 16.808C52.6568 16.872 52.5608 16.936 52.4328 17C52.4648 16.968 52.4648 16.936 52.4648 16.904C52.7848 16.648 53.0408 16.424 53.3288 16.136C53.5208 15.976 53.6488 15.784 53.7768 15.56C53.8728 15.4 53.7128 15.112 53.5848 15.176C53.2968 15.304 53.0088 15.304 52.7528 15.496C52.4648 15.72 52.1768 15.88 51.9528 16.168C51.6968 16.52 51.4728 16.904 51.2808 17.288ZM54.1288 15.464C53.9048 15.72 53.7768 15.976 53.8728 16.328C53.9688 16.136 54.1288 15.912 54.2248 15.72L54.1288 15.464ZM58.5448 17.032C58.3528 17.16 58.1608 17.256 58.0008 17.384V17.416C58.0008 17.384 58.0328 17.384 58.0328 17.384C58.0328 17.416 58.0648 17.448 58.0648 17.448C58.0008 17.512 57.8728 17.608 57.7128 17.704L57.7448 17.832C57.6168 17.896 57.5528 17.96 57.6488 18.056C57.5208 18.152 57.3288 18.152 57.2968 18.376C57.2968 18.376 57.2968 18.408 57.2648 18.408C57.0408 18.408 56.9128 18.632 56.7528 18.76C56.6568 18.824 56.5288 18.92 56.3688 18.984C56.3048 19.016 56.2408 18.952 56.1768 18.92C56.1448 18.856 56.1448 18.792 56.1448 18.76C56.1448 18.728 56.1768 18.696 56.1768 18.696C56.4648 18.76 56.6568 18.536 56.8808 18.408L57.1048 18.28C57.2328 18.248 57.2968 18.152 57.1688 17.96C56.9448 18.152 56.6568 18.312 56.4008 18.536C56.3688 18.504 56.2728 18.472 56.1768 18.44C56.4008 18.312 56.9128 18.024 57.1048 17.672C57.1688 17.608 57.5208 17.448 57.6168 17.352L57.8408 17.448C57.9048 17.352 57.9688 17.288 58.0328 17.224C58.0008 17.192 57.9688 17.192 57.9048 17.16L57.9368 17.128C58.0328 17.128 58.1288 17.128 58.2888 17.096C58.2568 17.032 58.2248 17 58.2248 16.968L58.3848 16.84L58.3528 16.808L58.2248 16.904H58.1608L58.7048 16.552L58.7688 16.776C58.7688 16.776 58.8008 16.776 58.8008 16.808C58.7048 16.872 58.6408 16.968 58.5448 17.032ZM56.1128 18.28C56.0808 18.28 56.0808 18.248 56.0808 18.248C56.3688 18.056 56.6568 17.928 56.9768 17.736C56.9448 17.896 56.7528 17.96 56.1128 18.28ZM55.2808 18.952C55.5048 18.856 55.6648 18.76 55.8248 18.664C55.7928 18.568 55.5048 18.664 55.2808 18.952ZM68.3673 21.512L67.5993 21.416C67.5033 21.384 67.3113 21.384 67.1833 21.352C66.9913 21.256 66.7673 21.192 66.5433 21.064C66.3833 20.936 66.2233 20.744 66.0633 20.584C65.9673 20.456 65.9033 20.296 65.8393 20.136C65.8073 19.944 65.7433 19.752 65.7113 19.496C65.7113 19.336 65.7113 19.112 65.7753 18.92C65.8393 17.608 66.7033 16.264 67.2473 15.528C67.2793 15.464 67.3113 15.4 67.3753 15.4C67.4393 15.304 67.5033 15.24 67.5353 15.176C67.5673 15.144 67.8873 14.76 68.0153 14.664C68.2713 14.408 68.5593 14.344 68.8473 14.44C68.9753 14.472 69.1353 14.408 69.2633 14.472C69.4233 14.536 69.5833 14.664 69.7433 14.76C69.9353 14.856 70.1273 14.92 70.2553 15.048C70.4473 15.176 70.6073 15.336 70.7353 15.496C70.7673 15.56 70.7673 15.72 70.7033 15.848C70.7033 15.976 70.6073 16.072 70.5113 16.2C70.4473 16.296 70.2553 16.264 70.1593 16.2C69.9993 16.104 69.8393 16.04 69.7113 15.944C69.6153 15.848 69.5193 15.752 69.4873 15.656C69.4233 15.528 69.3913 15.528 69.2953 15.592C69.0073 15.72 68.7193 15.912 68.5593 16.2C68.4313 16.456 68.2073 16.616 68.0473 16.872C67.8873 17.128 67.6953 17.384 67.5033 17.672C67.1833 18.152 66.9593 18.696 66.7993 19.24C66.6713 19.528 66.7033 19.88 66.7673 20.168C66.7993 20.264 66.8953 20.296 66.9913 20.328C67.3753 20.328 67.7913 20.296 68.2073 20.136C68.4633 20.072 68.7193 20.04 68.9113 19.912C69.1353 19.848 69.3593 19.752 69.5513 19.624C69.6793 19.56 69.7753 19.464 69.9353 19.368C69.9993 19.304 70.0633 19.304 70.1273 19.272V19.336C70.0633 19.368 69.9993 19.4 69.9033 19.464V19.496C69.9993 19.496 70.0633 19.464 70.0953 19.432L70.8953 18.92C71.2793 18.632 71.6313 18.344 71.9833 18.056C72.2393 17.896 72.4313 17.736 72.6553 17.544C72.6553 17.544 72.6873 17.512 72.6873 17.448C72.6233 17.512 72.5593 17.544 72.4313 17.608C72.3993 17.576 72.4313 17.544 72.4313 17.544C72.6553 17.352 72.9753 17.16 73.2313 17C73.2953 16.904 73.3913 16.84 73.5513 16.744C73.5833 16.712 73.6153 16.584 73.7113 16.712C73.7433 16.648 73.7433 16.584 73.7433 16.584C73.9033 16.488 74.0953 16.328 74.2553 16.2C74.2873 16.2 74.3513 16.168 74.3833 16.136C74.3833 16.2 74.4473 16.232 74.4153 16.264C74.3833 16.456 74.3513 16.616 74.1593 16.712C74.1273 16.712 74.0953 16.776 74.0953 16.808C74.1593 16.968 73.9673 17 73.9353 17.128C73.9033 17.16 73.9033 17.192 73.8393 17.256C73.8073 17.288 73.7433 17.352 73.7433 17.384C73.6793 17.448 73.6793 17.512 73.6153 17.544C73.4553 17.64 73.3273 17.736 73.1993 17.768C73.1673 17.8 73.1353 17.8 73.1033 17.8C73.0713 17.8 73.0713 17.832 73.0713 17.864C73.1353 17.928 73.1353 17.96 73.2633 18.024C73.1993 18.28 72.9753 18.344 72.7513 18.376C72.7513 18.568 72.5593 18.664 72.4633 18.76C72.4313 18.76 72.4313 18.728 72.4313 18.728C72.4313 18.664 72.4953 18.568 72.5273 18.504C72.4633 18.504 72.3993 18.536 72.3353 18.568C72.2073 18.664 72.1113 18.696 72.0153 18.568C72.0473 18.504 72.0473 18.44 72.0793 18.344H72.0473C71.9513 18.44 71.7913 18.568 71.6313 18.664C71.3113 18.92 70.9913 19.176 70.6713 19.464C70.6713 19.496 70.6393 19.496 70.6073 19.56C70.3833 19.656 70.0633 19.496 69.9673 19.88C70.0633 19.88 70.1913 19.848 70.2873 19.912C70.4153 20.008 70.5433 19.976 70.7033 19.912C70.6073 19.912 70.5113 19.88 70.4473 19.88C70.5113 19.688 70.6713 19.656 71.0233 19.784L70.4793 20.2C70.4473 20.2 70.4473 20.232 70.4473 20.232C70.1593 20.2 70.0633 20.456 69.9353 20.616C69.9033 20.648 69.9353 20.744 69.9353 20.872C69.8393 20.936 69.6793 20.968 69.5513 21.032C69.2633 21.16 68.9433 21.224 68.6873 21.32C68.5913 21.416 68.4953 21.544 68.3673 21.512ZM71.0233 19.592C70.9913 19.336 71.0873 19.24 71.2793 19.24C71.3433 19.24 71.4393 19.208 71.5033 19.144C71.4713 19.112 71.3753 19.112 71.3113 19.112C71.3433 18.952 71.4393 18.92 71.5673 18.92C71.7273 18.888 71.9193 18.728 72.0153 18.92C72.0793 18.92 72.1433 18.888 72.2073 18.856C72.2073 18.92 72.2393 18.952 72.2073 18.952C71.9193 19.144 71.6953 19.432 71.3433 19.496C71.3433 19.464 71.3433 19.4 71.3753 19.336C71.2473 19.432 71.1193 19.496 71.0233 19.592ZM70.0633 20.84C69.9993 20.648 70.0313 20.616 70.3833 20.648C70.2873 20.68 70.1593 20.776 70.0633 20.84ZM93.0961 21L92.5841 20.968C91.9121 20.872 91.6241 20.552 91.3361 20.2C91.1761 20.008 91.0161 19.688 91.0801 19.432C91.1441 19.24 90.9841 19.336 90.8561 19.336C90.7921 19.112 90.7601 18.952 90.7281 18.792C90.8241 18.824 90.8561 18.888 90.8881 18.92C90.8241 18.312 90.6961 17.896 90.7601 18.536H90.6641C90.6321 18.248 90.6001 17.512 90.6961 16.968C90.5041 17.192 90.2801 17.512 90.1201 17.736C89.8961 18.056 89.6401 18.376 89.3521 18.728H89.4161C89.4801 18.696 89.0961 19.048 88.6481 19.208C88.3281 19.4 87.9761 19.336 87.5921 19.144L87.3361 19.048C86.9201 18.824 86.8881 18.504 86.8241 18.184C86.7921 17.928 86.9201 17.192 86.8561 16.904C86.8241 17.064 86.3761 17.896 86.2801 18.152C86.2161 18.344 86.0561 18.664 85.9281 18.792C85.8641 18.952 85.7681 19.08 85.6401 19.208C85.4161 19.56 85.4801 19.432 85.0001 19.848C84.9361 19.944 84.5841 20.04 84.4241 20.04H84.1361C83.6241 20.008 83.3361 19.688 83.1121 19.304L82.9201 18.888L82.8881 18.76L82.6001 17.864C82.4081 17.992 82.1841 18.152 81.9921 18.248C81.9281 18.28 81.8641 18.344 81.8001 18.44C81.7361 18.504 81.6721 18.536 81.5761 18.568C81.6721 18.6 81.7361 18.6 81.8001 18.6L81.7681 18.632C81.7041 18.664 81.6401 18.696 81.5441 18.696V18.824C81.7041 18.728 81.9281 18.632 82.0881 18.536V18.6C81.9281 18.728 81.7041 18.856 81.5761 19.016C81.3201 19.304 81.0321 19.368 80.7121 19.592C80.5201 19.688 80.4241 19.656 80.2641 19.752C80.2001 19.784 80.0401 19.848 79.9441 19.848C79.9121 19.848 79.7521 19.912 79.6561 19.912C79.5281 19.912 79.2401 19.976 79.1121 19.944C79.0481 19.912 78.8561 19.912 78.7921 19.848C78.6961 19.816 78.6321 19.688 78.5361 19.656C78.3441 19.4 78.1201 19.272 77.9921 18.984C77.8001 18.792 77.8321 18.728 77.7361 18.568C77.6721 18.536 77.6721 18.472 77.6401 18.408C77.4161 18.536 77.4161 18.856 77.1921 18.856C77.1281 18.92 77.0961 19.016 77.0321 19.048C76.6481 19.336 76.1361 19.752 75.6241 19.976C75.1121 20.232 74.5681 20.232 74.0881 20.04C74.0241 20.04 73.9281 20.04 73.8321 20.008C73.7681 19.944 73.5121 19.784 73.3201 19.688C73.0321 19.304 72.9361 18.888 73.0641 18.408C73.1601 18.184 73.2241 18.024 73.2881 17.832C73.3201 17.8 73.3201 17.8 73.3201 17.768C73.3521 17.576 73.4481 17.416 73.5121 17.192L73.7361 16.808C73.8641 16.648 73.9281 16.488 73.9921 16.424C74.3441 15.88 74.7601 15.496 75.1441 15.016C75.5281 14.6 76.0721 14.216 76.6801 14.152C77.3521 14.28 78.1201 14.408 78.2481 15.144C78.3441 15.592 78.0881 15.88 77.9281 16.2C78.1841 16.168 78.4081 15.912 78.7921 15.944C78.9841 16.008 79.1121 16.168 79.1761 16.392C79.1761 16.392 79.2081 16.744 79.1121 17C79.0801 17.032 79.0801 17.096 79.0481 17.16C78.9521 17.608 78.9521 18.088 79.1441 18.536C79.1761 18.664 79.2721 18.792 79.4321 18.888C79.4961 18.92 79.5921 18.92 79.6881 18.92C79.7841 18.92 79.9121 18.888 80.0401 18.824C80.5521 18.6 81.0321 18.184 81.4801 17.864C81.8961 17.608 82.3761 17.32 82.7921 17H82.8241C83.0481 16.808 83.4641 16.968 83.4321 17.128C83.4641 17.256 83.4961 17.352 83.4961 17.48C83.6561 18.024 83.7201 18.152 83.9121 18.6C83.9761 18.76 84.1041 18.92 84.4241 18.984C84.8081 18.888 85.3201 17.864 85.5441 17.448C85.8961 16.808 86.1841 16.04 86.5041 15.496C86.6641 15.112 86.7921 14.664 86.9521 14.344C87.0801 14.056 87.0801 14.056 87.5281 13.896L87.7841 14.056C87.8801 13.928 88.0081 13.96 88.1681 14.056L88.3601 14.248C88.3921 14.44 88.3281 14.6 88.3281 14.792C88.1361 15.592 88.0401 16.2 87.9761 16.968C87.9441 17.352 87.8481 17.768 87.8801 18.12C87.9121 18.376 87.9441 18.696 88.1361 18.696C88.3601 18.696 88.6801 18.344 90.1201 16.488L91.3681 14.888C91.4961 14.696 91.7201 14.696 92.0081 14.792C91.9121 14.824 91.9121 14.952 91.8481 15.016C91.9121 15.048 91.9121 15.08 91.9441 15.112L92.0401 15.016C92.1681 15.112 92.5201 15.112 92.4881 15.272C92.3601 15.592 92.3921 15.88 92.2321 16.136C92.0401 17.064 91.8481 18.024 92.0401 18.984C92.1041 19.336 92.2321 19.72 92.4241 19.976C92.5201 20.136 92.7121 20.232 92.9361 20.296C93.2561 20.296 93.3841 20.2 93.5441 20.072C93.7681 20.072 94.1201 19.624 94.1521 19.592C94.2801 19.464 94.4721 19.272 94.6321 19.176C94.5681 19.144 94.5361 19.144 94.5681 19.112C94.3761 19.24 94.1521 19.4 93.9601 19.56C93.9281 19.528 93.9281 19.528 93.8961 19.528C95.0801 18.6 96.0081 17.48 96.8721 16.36C96.8721 16.36 96.9041 16.36 96.8721 16.392C96.8401 16.456 96.7441 16.552 96.7121 16.616C96.6801 16.68 96.5521 16.808 96.6481 16.904C96.6481 16.904 96.6481 16.936 96.6161 16.968C96.4881 17 96.4881 17 96.3921 17.16H96.5521C96.4561 17.224 96.4881 17.384 96.3921 17.512L96.2321 17.736L96.1681 17.928C96.1041 18.088 96.0401 18.28 95.9441 18.408C95.9121 18.536 95.8481 18.696 95.5921 18.952L95.2721 19.368C95.2401 19.432 95.2401 19.528 95.0801 19.624C95.0801 19.624 95.0801 19.688 95.1121 19.72C95.0801 19.752 94.9841 19.752 94.9841 19.784C94.8561 20.04 94.6001 20.232 94.3761 20.456C94.1841 20.68 93.6721 20.968 93.0961 21ZM74.0241 19.112C74.3761 19.112 74.9521 19.08 75.2721 18.952C75.6881 18.792 75.9761 18.568 76.2961 18.216C76.7761 17.704 77.0001 17.32 77.4801 16.808C77.5121 16.808 77.6401 16.648 77.6401 16.648H77.6081C76.9041 16.584 77.1601 15.176 77.1921 15.144C76.2321 15.304 75.1121 16.808 74.7601 17.416C74.4721 17.928 74.1841 18.472 74.0241 19.112ZM85.5761 18.088L85.8001 17.704C85.8321 17.704 85.8321 17.64 85.8321 17.608C85.9921 17.544 86.0881 17.224 86.2161 17.032C86.2801 16.872 86.4081 16.68 86.5041 16.552C86.6001 16.392 86.6641 16.232 86.7921 16.008L86.6961 15.848C86.6961 15.88 86.6641 15.88 86.6641 15.912C86.5681 16.136 86.4401 16.36 86.3121 16.584C86.2481 16.552 86.2481 16.616 86.2481 16.616C86.2481 16.808 86.1521 16.872 86.0561 16.968V17.064C86.0561 17.128 85.9281 17.16 85.9281 17.384C85.8321 17.576 85.7041 17.736 85.6081 17.896C85.5441 17.896 85.5121 18.024 85.5121 18.056C85.5441 18.088 85.5441 18.088 85.5761 18.088ZM90.6321 16.584C90.8241 16.52 90.7921 16.392 90.6961 16.296C90.6641 16.36 90.6001 16.424 90.5681 16.52C90.6001 16.52 90.6321 16.552 90.6321 16.584ZM90.3441 16.936C90.3761 16.872 90.4081 16.84 90.4721 16.808L90.4401 16.776H90.3441C90.3441 16.808 90.3121 16.84 90.3121 16.872C90.3121 16.904 90.3121 16.904 90.3441 16.936ZM89.9601 17.384C90.1521 17.32 90.3121 17.224 90.3441 17.096C90.0561 17.064 90.0241 17.192 89.9601 17.384ZM81.2241 18.344C81.3201 18.312 81.4161 18.312 81.4801 18.248C81.6081 18.152 81.7041 18.152 81.8001 18.216C81.8001 18.184 81.7681 18.152 81.7681 18.12C81.9921 18.024 82.1841 17.992 82.3761 17.832L83.2401 17.192C83.2401 17.16 83.1441 17.192 83.1121 17.192L82.3121 17.704C82.2161 17.736 82.1841 17.704 82.1841 17.672C81.9601 17.8 81.7681 17.96 81.5441 18.12C81.4481 18.152 81.3521 18.248 81.2241 18.28V18.344ZM87.2721 17.544H87.3041C87.3361 17.416 87.3041 17.352 87.3041 17.192H87.2401C87.2401 17.352 87.2721 17.416 87.2721 17.544ZM87.0801 18.344C87.1121 17.96 87.1441 17.672 87.0161 17.384C87.1121 17.672 86.8241 17.96 87.0801 18.344ZM94.6961 19.24C94.7281 19.24 94.7601 19.208 94.7601 19.176C94.9201 19.048 95.0161 18.952 95.1441 18.792C95.2401 18.696 95.3361 18.632 95.4001 18.504C95.4001 18.504 95.3681 18.472 95.3361 18.472C95.0801 18.728 94.8561 18.952 94.6321 19.208C94.6641 19.24 94.6641 19.24 94.6961 19.24ZM103.06 20.712C102.836 20.712 102.612 20.616 102.388 20.52C102.1 20.392 102.036 20.104 102.004 19.784C102.036 19.624 102.036 19.368 102.068 19.176C102.228 18.184 102.42 17.32 102.868 16.392C103.092 16.008 103.316 15.496 103.476 14.984C103.348 14.92 102.964 15.016 102.9 15.048L102.164 15.336L100.852 16.04C100.948 16.264 101.012 16.744 100.916 17.128C100.82 17.672 100.596 18.088 100.34 18.504C100.212 18.664 100.148 18.792 100.052 18.888H100.02C99.8918 18.888 99.7638 19.016 99.7318 19.144C99.5398 19.464 99.2198 19.72 98.7718 19.88C98.5478 20.008 98.2918 20.104 97.9718 20.072C97.2678 20.072 96.4678 19.656 96.1478 19.016L96.0838 18.888C96.2118 18.792 96.4038 18.728 96.4038 18.568C96.4038 17.864 96.6278 17.192 96.8198 16.488C96.8838 16.392 96.9158 16.264 96.9158 16.072C96.5958 16.328 96.6598 16.552 96.5638 16.776C96.4678 17 96.4358 17.16 96.2758 17.384C96.1798 17.352 96.2438 17.288 96.2438 17.224C96.4998 16.36 97.4278 14.184 97.8758 13.352C98.0358 13.16 98.0998 12.936 98.2278 12.744C98.3878 12.616 98.5158 12.488 98.7398 12.392C98.8998 12.296 99.2518 12.296 99.3798 12.392C99.5718 12.616 99.5398 12.872 99.4438 13.16C98.9318 14.088 97.8758 16.36 97.5558 17.32C97.3638 17.896 97.2678 18.472 97.2998 19.048C97.2998 19.272 97.3318 19.4 97.5558 19.592C97.6198 19.56 97.7798 19.528 97.8758 19.464C98.0678 19.336 98.3558 19.272 98.5478 19.08C99.2198 18.472 99.7638 17.8 99.8598 17.032C99.9238 16.584 99.8278 16.2 99.1558 16.328C99.0598 16.296 99.0278 16.2 99.0278 15.976C99.0598 15.816 99.4438 15.752 99.5718 15.72C100.404 15.56 101.108 15.24 101.876 15.016C102.388 14.792 102.836 14.6 103.412 14.408C103.732 14.28 104.244 14.088 104.66 14.152C105.044 14.216 105.108 14.44 105.044 14.664C104.884 14.984 104.724 15.336 104.564 15.624C103.988 16.68 103.636 17.512 103.38 18.472C103.252 18.952 103.188 19.368 103.348 19.816C103.412 19.848 103.444 19.848 103.508 19.848C103.86 19.848 104.5 19.656 104.948 19.432C105.588 19.08 105.94 18.888 105.972 18.824C106.324 18.664 106.612 18.472 106.708 18.536H106.74L106.516 18.792C106.42 18.824 106.388 18.824 106.516 18.856C106.484 18.888 106.324 18.888 106.292 18.888C106.068 18.888 105.94 19.016 105.396 19.272V19.304L106.132 18.984C106.164 19.048 106.132 19.048 106.036 19.08C105.78 19.176 105.204 19.656 104.916 19.656C104.916 19.656 104.884 19.688 104.884 19.72H104.916L105.492 19.528C105.62 19.496 105.716 19.336 105.78 19.272C105.876 19.208 105.972 19.176 106.164 19.08C106.26 19.016 106.164 18.984 106.26 18.92H106.388L106.1 19.176L106.132 19.208C106.004 19.304 105.94 19.368 105.812 19.432L105.716 19.496L105.652 19.56C105.268 19.784 105.044 20.008 104.724 20.2C104.212 20.488 103.668 20.712 103.06 20.712ZM96.0838 18.632C96.0838 18.312 95.9238 17.928 96.2118 17.576L96.0838 18.632ZM112.798 19.208C112.798 19.24 112.83 19.272 112.83 19.272C113.246 19.144 113.598 18.792 114.014 18.568C113.982 18.632 113.982 18.696 113.95 18.728C113.822 18.856 113.662 18.984 113.534 19.08L112.926 19.56C112.67 19.688 112.478 19.816 112.254 19.976C111.966 20.136 111.71 20.36 111.39 20.488C111.198 20.584 110.974 20.584 110.75 20.616C110.622 20.616 110.558 20.648 110.462 20.712C110.334 20.776 110.142 20.808 109.982 20.84C109.726 20.904 109.502 20.968 109.246 20.936C108.926 20.904 108.574 20.84 108.286 20.744C107.998 20.648 107.87 20.616 107.55 20.36C107.518 20.296 107.422 20.264 107.39 20.232C107.166 20.072 107.038 19.88 106.846 19.592C106.782 19.528 106.782 19.528 106.718 19.208C106.558 18.824 106.59 18.6 106.59 18.376C106.622 17.736 106.782 17.128 107.102 16.52C107.23 16.328 107.358 16.136 107.518 15.944C107.806 15.592 108.094 15.272 108.382 14.952C108.67 14.664 109.022 14.472 109.438 14.44C109.534 14.44 109.63 14.408 109.758 14.376C110.078 14.248 110.366 14.472 110.59 14.6C110.878 14.728 111.134 14.92 111.358 15.112C111.614 15.272 111.774 15.816 111.678 16.072C111.614 16.232 111.518 16.392 111.422 16.488C111.134 16.808 110.846 17.096 110.558 17.384C110.462 17.48 110.27 17.512 110.238 17.608C110.206 17.832 109.982 17.864 109.854 17.928L109.63 18.056C109.694 18.056 109.726 18.088 109.726 18.088C109.63 18.152 109.534 18.184 109.406 18.248C109.374 18.28 109.374 18.376 109.342 18.408C109.118 18.536 108.862 18.632 108.67 18.76C108.574 18.792 108.51 18.888 108.446 18.952C108.19 19.08 108.094 19.112 107.87 19.24C107.998 19.624 108.062 19.688 108.318 19.784C108.734 19.752 109.15 19.784 109.566 19.72C109.854 19.688 110.142 19.56 110.43 19.464C110.654 19.368 110.91 19.24 111.166 19.144C111.326 19.08 111.486 19.08 111.646 18.984C111.998 18.76 112.382 18.568 112.702 18.376L112.798 18.312C112.83 18.344 112.83 18.344 112.83 18.344C112.798 18.408 112.734 18.472 112.702 18.504C112.734 18.536 112.766 18.568 112.734 18.6C112.83 18.6 112.926 18.568 112.99 18.536C113.022 18.568 113.022 18.568 112.99 18.6C112.862 18.696 112.702 18.824 112.574 18.952C112.67 19.016 112.83 19.048 112.99 19.112C112.894 19.144 112.862 19.176 112.798 19.208ZM108.062 17.288C107.966 17.48 107.902 17.704 107.838 17.96C108.094 17.8 108.254 17.704 108.382 17.608C108.446 17.608 108.51 17.64 108.542 17.608C108.638 17.544 108.798 17.448 108.926 17.32C108.83 17.32 108.798 17.352 108.702 17.352C108.894 17.192 108.99 17 109.214 17C109.15 17.096 109.054 17.16 108.99 17.256C108.99 17.256 108.99 17.288 109.022 17.288C109.31 17.096 109.566 16.872 109.854 16.68L109.79 16.616C109.726 16.68 109.662 16.744 109.534 16.808C109.438 16.872 109.342 16.936 109.214 17C109.246 16.968 109.246 16.936 109.246 16.904C109.566 16.648 109.822 16.424 110.11 16.136C110.302 15.976 110.43 15.784 110.558 15.56C110.654 15.4 110.494 15.112 110.366 15.176C110.078 15.304 109.79 15.304 109.534 15.496C109.246 15.72 108.958 15.88 108.734 16.168C108.478 16.52 108.254 16.904 108.062 17.288ZM110.91 15.464C110.686 15.72 110.558 15.976 110.654 16.328C110.75 16.136 110.91 15.912 111.006 15.72L110.91 15.464ZM115.326 17.032C115.134 17.16 114.942 17.256 114.782 17.384V17.416C114.782 17.384 114.814 17.384 114.814 17.384C114.814 17.416 114.846 17.448 114.846 17.448C114.782 17.512 114.654 17.608 114.494 17.704L114.526 17.832C114.398 17.896 114.334 17.96 114.43 18.056C114.302 18.152 114.11 18.152 114.078 18.376C114.078 18.376 114.078 18.408 114.046 18.408C113.822 18.408 113.694 18.632 113.534 18.76C113.438 18.824 113.31 18.92 113.15 18.984C113.086 19.016 113.022 18.952 112.958 18.92C112.926 18.856 112.926 18.792 112.926 18.76C112.926 18.728 112.958 18.696 112.958 18.696C113.246 18.76 113.438 18.536 113.662 18.408L113.886 18.28C114.014 18.248 114.078 18.152 113.95 17.96C113.726 18.152 113.438 18.312 113.182 18.536C113.15 18.504 113.054 18.472 112.958 18.44C113.182 18.312 113.694 18.024 113.886 17.672C113.95 17.608 114.302 17.448 114.398 17.352L114.622 17.448C114.686 17.352 114.75 17.288 114.814 17.224C114.782 17.192 114.75 17.192 114.686 17.16L114.718 17.128C114.814 17.128 114.91 17.128 115.07 17.096C115.038 17.032 115.006 17 115.006 16.968L115.166 16.84L115.134 16.808L115.006 16.904H114.942L115.486 16.552L115.55 16.776C115.55 16.776 115.582 16.776 115.582 16.808C115.486 16.872 115.422 16.968 115.326 17.032ZM112.894 18.28C112.862 18.28 112.862 18.248 112.862 18.248C113.15 18.056 113.438 17.928 113.758 17.736C113.726 17.896 113.534 17.96 112.894 18.28ZM112.062 18.952C112.286 18.856 112.446 18.76 112.606 18.664C112.574 18.568 112.286 18.664 112.062 18.952ZM133.693 21L133.181 20.968C132.509 20.872 132.221 20.552 131.933 20.2C131.773 20.008 131.613 19.688 131.677 19.432C131.741 19.24 131.581 19.336 131.453 19.336C131.389 19.112 131.357 18.952 131.325 18.792C131.421 18.824 131.453 18.888 131.485 18.92C131.421 18.312 131.293 17.896 131.357 18.536H131.261C131.229 18.248 131.197 17.512 131.293 16.968C131.101 17.192 130.877 17.512 130.717 17.736C130.493 18.056 130.237 18.376 129.949 18.728H130.013C130.077 18.696 129.693 19.048 129.245 19.208C128.925 19.4 128.573 19.336 128.189 19.144L127.933 19.048C127.517 18.824 127.485 18.504 127.421 18.184C127.389 17.928 127.517 17.192 127.453 16.904C127.421 17.064 126.973 17.896 126.877 18.152C126.813 18.344 126.653 18.664 126.525 18.792C126.461 18.952 126.365 19.08 126.237 19.208C126.013 19.56 126.077 19.432 125.597 19.848C125.533 19.944 125.181 20.04 125.021 20.04H124.733C124.221 20.008 123.933 19.688 123.709 19.304C123.581 19.016 123.421 18.632 123.325 18.184C123.165 17.864 123.517 17.672 123.741 17.512C123.901 17.416 124.093 17.352 124.221 17.64C124.381 17.768 124.317 18.152 124.509 18.6C124.573 18.76 124.701 18.92 125.021 18.984C125.405 18.888 125.917 17.864 126.141 17.448C126.493 16.808 126.781 16.04 127.101 15.496C127.261 15.112 127.389 14.664 127.549 14.344C127.677 14.056 127.677 14.056 128.125 13.896L128.381 14.056C128.477 13.928 128.605 13.96 128.765 14.056L128.957 14.248C128.989 14.44 128.925 14.6 128.925 14.792C128.733 15.592 128.637 16.2 128.573 16.968C128.541 17.352 128.445 17.768 128.477 18.12C128.509 18.376 128.541 18.696 128.733 18.696C128.957 18.696 129.277 18.344 130.717 16.488L131.965 14.888C132.093 14.696 132.317 14.696 132.605 14.792C132.509 14.824 132.509 14.952 132.445 15.016C132.509 15.048 132.509 15.08 132.541 15.112L132.637 15.016C132.765 15.112 133.117 15.112 133.085 15.272C132.957 15.592 132.989 15.88 132.829 16.136C132.637 17.064 132.445 18.024 132.637 18.984C132.701 19.336 132.829 19.72 133.021 19.976C133.117 20.136 133.309 20.232 133.533 20.296C133.853 20.296 133.981 20.2 134.141 20.072C134.365 20.072 134.717 19.624 134.749 19.592C134.877 19.464 135.069 19.272 135.229 19.176C135.165 19.144 135.133 19.144 135.165 19.112C134.973 19.24 134.749 19.4 134.557 19.56C134.525 19.528 134.525 19.528 134.493 19.528C136.029 18.312 136.317 17.992 136.829 17.768L136.925 17.896L136.733 18.184C136.669 18.344 136.637 18.28 136.541 18.408C136.509 18.536 136.445 18.696 136.189 18.952L135.869 19.368C135.837 19.432 135.837 19.528 135.677 19.624C135.677 19.624 135.677 19.688 135.709 19.72C135.677 19.752 135.581 19.752 135.581 19.784C135.453 20.04 135.197 20.232 134.973 20.456C134.781 20.68 134.269 20.968 133.693 21ZM126.173 18.088L126.397 17.704C126.429 17.704 126.429 17.64 126.429 17.608C126.589 17.544 126.685 17.224 126.813 17.032C126.877 16.872 127.005 16.68 127.101 16.552C127.197 16.392 127.261 16.232 127.389 16.008L127.293 15.848C127.293 15.88 127.261 15.88 127.261 15.912C127.165 16.136 127.037 16.36 126.909 16.584C126.845 16.552 126.845 16.616 126.845 16.616C126.845 16.808 126.749 16.872 126.653 16.968V17.064C126.653 17.128 126.525 17.16 126.525 17.384C126.429 17.576 126.301 17.736 126.205 17.896C126.141 17.896 126.109 18.024 126.109 18.056C126.141 18.088 126.141 18.088 126.173 18.088ZM131.229 16.584C131.421 16.52 131.389 16.392 131.293 16.296C131.261 16.36 131.197 16.424 131.165 16.52C131.197 16.52 131.229 16.552 131.229 16.584ZM130.941 16.936C130.973 16.872 131.005 16.84 131.069 16.808L131.037 16.776H130.941C130.941 16.808 130.909 16.84 130.909 16.872C130.909 16.904 130.909 16.904 130.941 16.936ZM130.557 17.384C130.749 17.32 130.909 17.224 130.941 17.096C130.653 17.064 130.621 17.192 130.557 17.384ZM127.869 17.544H127.901C127.933 17.416 127.901 17.352 127.901 17.192H127.837C127.837 17.352 127.869 17.416 127.869 17.544ZM127.677 18.344C127.709 17.96 127.741 17.672 127.613 17.384C127.709 17.672 127.421 17.96 127.677 18.344ZM135.293 19.24C135.325 19.24 135.357 19.208 135.357 19.176C135.517 19.048 135.613 18.952 135.741 18.792C135.837 18.696 135.933 18.632 135.997 18.504C135.997 18.504 135.965 18.472 135.933 18.472C135.677 18.728 135.453 18.952 135.229 19.208C135.261 19.24 135.261 19.24 135.293 19.24ZM153.656 21.256C153.56 21.288 153.432 21.224 153.336 21.192C153.208 21.128 153.016 21.096 152.856 21.064C152.504 20.872 152.216 20.648 152.152 20.232C152.056 19.592 151.864 18.952 151.896 18.28C151.896 17.672 151.928 17.096 152.056 16.456C152.12 16.104 152.184 15.88 152.216 15.496C152.056 15.592 151.864 15.688 151.736 15.784C151.672 15.848 151.544 15.912 151.608 16.04C151.672 16.2 151.448 16.136 151.352 16.2C151.384 16.296 151.384 16.36 151.416 16.392C151.32 16.392 151.256 16.456 151.16 16.52C151.192 16.808 151.096 17 150.872 17.192C150.68 17.288 150.648 17.512 150.552 17.672C150.424 17.896 150.36 18.056 150.232 18.216C150.008 18.536 149.848 18.856 149.592 19.176C149.464 19.4 149.24 19.624 149.08 19.816C148.728 20.168 148.248 20.456 147.704 20.392C147.032 20.328 146.552 19.688 146.232 18.76L145.944 17.864C145.752 17.992 145.528 18.152 145.336 18.248C145.272 18.28 145.208 18.344 145.144 18.44C145.08 18.504 145.016 18.536 144.92 18.568C145.016 18.6 145.08 18.6 145.144 18.6L145.112 18.632C145.048 18.664 144.984 18.696 144.888 18.696V18.824C145.048 18.728 145.272 18.632 145.432 18.536V18.6C145.272 18.728 145.048 18.856 144.92 19.016C144.664 19.304 144.376 19.368 144.056 19.592C143.864 19.688 143.768 19.656 143.608 19.752C143.544 19.784 143.384 19.848 143.288 19.848C143.256 19.848 143.096 19.912 143 19.912C142.872 19.912 142.584 19.976 142.456 19.944C142.392 19.912 142.2 19.912 142.136 19.848C142.04 19.816 141.976 19.688 141.88 19.656C141.688 19.4 141.464 19.272 141.336 18.984C141.144 18.792 141.176 18.728 141.08 18.568C141.016 18.536 141.016 18.472 140.984 18.408C140.76 18.536 140.76 18.856 140.536 18.856C140.472 18.92 140.44 19.016 140.376 19.048C139.992 19.336 139.48 19.752 138.968 19.976C138.456 20.232 137.912 20.232 137.432 20.04C137.368 20.04 137.272 20.04 137.176 20.008C137.112 19.944 136.856 19.784 136.664 19.688C136.376 19.304 136.28 18.888 136.408 18.408C136.504 18.184 136.568 18.024 136.632 17.832C136.664 17.8 136.664 17.8 136.664 17.768C136.696 17.576 136.792 17.416 136.856 17.192L137.08 16.808C137.208 16.648 137.272 16.488 137.336 16.424C137.688 15.88 138.104 15.496 138.488 15.016C138.872 14.6 139.416 14.216 140.024 14.152C140.696 14.28 141.464 14.408 141.592 15.144C141.688 15.592 141.432 15.88 141.272 16.2C141.528 16.168 141.752 15.912 142.136 15.944C142.328 16.008 142.456 16.168 142.52 16.392C142.52 16.392 142.552 16.744 142.456 17C142.424 17.032 142.424 17.096 142.392 17.16C142.296 17.608 142.296 18.088 142.488 18.536C142.52 18.664 142.616 18.792 142.776 18.888C142.84 18.92 142.936 18.92 143.032 18.92C143.128 18.92 143.256 18.888 143.384 18.824C143.896 18.6 144.376 18.184 144.824 17.864C145.24 17.608 145.72 17.32 146.136 17H146.168C146.392 16.808 146.808 16.968 146.776 17.128C146.872 17.576 146.968 17.96 147.128 18.376C147.224 18.632 147.384 19.016 147.64 19.208C147.672 19.304 147.704 19.368 147.896 19.336C148.44 18.984 148.568 18.728 149.944 16.872C150.616 15.976 151.064 15.304 151.832 14.536C152.056 14.312 152.248 14.12 152.536 14.056C152.728 14.152 152.856 14.184 153.016 14.248C153.208 14.248 153.4 14.408 153.4 14.76C153.432 15.048 153.464 15.336 153.4 15.56C153.272 16.328 153.112 17.096 153.08 17.928C153.048 18.312 153.08 18.792 153.112 19.208L153.144 19.56C153.144 19.592 153.272 20.296 153.56 20.456C153.784 20.584 153.976 20.392 154.136 20.264C154.328 20.264 154.488 20.04 154.52 20.008C154.648 19.88 154.84 19.688 155 19.592C154.936 19.56 154.904 19.56 154.936 19.528C154.744 19.656 154.52 19.816 154.328 19.976C154.296 19.944 154.296 19.944 154.264 19.944C155.32 19.112 156.152 18.152 156.92 17.16L156.984 17.192C156.984 17.224 156.984 17.288 157.016 17.32C157.016 17.32 157.016 17.352 156.984 17.384C156.856 17.416 156.856 17.416 156.76 17.576H156.92C156.824 17.64 156.888 17.8 156.792 17.928L156.632 18.152L156.568 18.344C156.504 18.504 156.408 18.696 156.344 18.824C156.28 18.952 156.216 19.112 155.96 19.368L155.64 19.784C155.608 19.848 155.608 19.944 155.448 20.04C155.448 20.04 155.448 20.104 155.48 20.136C155.448 20.168 155.352 20.168 155.352 20.2C155.224 20.456 154.968 20.648 154.744 20.872C154.552 21.096 154.232 21.192 153.688 21.256H153.656ZM137.368 19.112C137.72 19.112 138.296 19.08 138.616 18.952C139.032 18.792 139.32 18.568 139.64 18.216C140.12 17.704 140.344 17.32 140.824 16.808C140.856 16.808 140.984 16.648 140.984 16.648H140.952C140.248 16.584 140.504 15.176 140.536 15.144C139.576 15.304 138.456 16.808 138.104 17.416C137.816 17.928 137.528 18.472 137.368 19.112ZM144.568 18.344C144.664 18.312 144.76 18.312 144.824 18.248C144.952 18.152 145.048 18.152 145.144 18.216C145.144 18.184 145.112 18.152 145.112 18.12C145.336 18.024 145.528 17.992 145.72 17.832L146.584 17.192C146.584 17.16 146.488 17.192 146.456 17.192L145.656 17.704C145.56 17.736 145.528 17.704 145.528 17.672C145.304 17.8 145.112 17.96 144.888 18.12C144.792 18.152 144.696 18.248 144.568 18.28V18.344ZM148.472 19.432C148.664 19.208 148.824 19.016 148.952 18.76L149.464 18.152C149.624 17.896 149.848 17.736 149.944 17.48C149.336 18.056 148.824 18.664 148.408 19.368V19.4C148.44 19.432 148.44 19.432 148.472 19.432ZM152.12 17.736C152.152 17.736 152.152 17.704 152.184 17.704C152.152 17.672 152.152 17.608 152.152 17.544H152.088C152.12 17.64 152.12 17.672 152.12 17.736ZM152.184 18.28C152.216 18.28 152.248 18.28 152.248 18.248C152.248 18.248 152.216 18.216 152.216 18.152L152.152 18.216C152.152 18.248 152.184 18.28 152.184 18.28ZM152.216 18.952C152.216 18.888 152.248 18.824 152.248 18.76C152.216 18.76 152.216 18.728 152.184 18.728C152.184 18.792 152.152 18.856 152.152 18.92C152.184 18.92 152.184 18.92 152.216 18.952ZM155.064 19.656C155.096 19.656 155.128 19.624 155.128 19.592C155.288 19.464 155.384 19.368 155.512 19.208C155.608 19.112 155.704 19.048 155.768 18.92C155.768 18.92 155.736 18.888 155.704 18.888C155.448 19.144 155.224 19.368 155 19.624C155.032 19.656 155.032 19.656 155.064 19.656ZM152.28 19.592C152.28 19.56 152.312 19.56 152.344 19.528L152.248 19.464L152.216 19.496C152.216 19.528 152.248 19.56 152.28 19.592ZM152.536 20.072C152.504 19.944 152.44 19.912 152.44 19.848C152.376 19.912 152.344 19.976 152.536 20.072ZM162.579 19.208C162.579 19.24 162.611 19.272 162.611 19.272C163.027 19.144 163.379 18.792 163.795 18.568C163.763 18.632 163.763 18.696 163.731 18.728C163.603 18.856 163.443 18.984 163.315 19.08L162.707 19.56C162.451 19.688 162.259 19.816 162.035 19.976C161.747 20.136 161.491 20.36 161.171 20.488C160.979 20.584 160.755 20.584 160.531 20.616C160.403 20.616 160.339 20.648 160.243 20.712C160.115 20.776 159.923 20.808 159.763 20.84C159.507 20.904 159.283 20.968 159.027 20.936C158.707 20.904 158.355 20.84 158.067 20.744C157.779 20.648 157.651 20.616 157.331 20.36C157.299 20.296 157.203 20.264 157.171 20.232C156.947 20.072 156.819 19.88 156.627 19.592C156.563 19.528 156.563 19.528 156.499 19.208C156.339 18.824 156.371 18.6 156.371 18.376C156.403 17.736 156.563 17.128 156.883 16.52C157.011 16.328 157.139 16.136 157.299 15.944C157.587 15.592 157.875 15.272 158.163 14.952C158.451 14.664 158.803 14.472 159.219 14.44C159.315 14.44 159.411 14.408 159.539 14.376C159.859 14.248 160.147 14.472 160.371 14.6C160.659 14.728 160.915 14.92 161.139 15.112C161.395 15.272 161.555 15.816 161.459 16.072C161.395 16.232 161.299 16.392 161.203 16.488C160.915 16.808 160.627 17.096 160.339 17.384C160.243 17.48 160.051 17.512 160.019 17.608C159.987 17.832 159.763 17.864 159.635 17.928L159.411 18.056C159.475 18.056 159.507 18.088 159.507 18.088C159.411 18.152 159.315 18.184 159.187 18.248C159.155 18.28 159.155 18.376 159.123 18.408C158.899 18.536 158.643 18.632 158.451 18.76C158.355 18.792 158.291 18.888 158.227 18.952C157.971 19.08 157.875 19.112 157.651 19.24C157.779 19.624 157.843 19.688 158.099 19.784C158.515 19.752 158.931 19.784 159.347 19.72C159.635 19.688 159.923 19.56 160.211 19.464C160.435 19.368 160.691 19.24 160.947 19.144C161.107 19.08 161.267 19.08 161.427 18.984C161.779 18.76 162.163 18.568 162.483 18.376L162.579 18.312C162.611 18.344 162.611 18.344 162.611 18.344C162.579 18.408 162.515 18.472 162.483 18.504C162.515 18.536 162.547 18.568 162.515 18.6C162.611 18.6 162.707 18.568 162.771 18.536C162.803 18.568 162.803 18.568 162.771 18.6C162.643 18.696 162.483 18.824 162.355 18.952C162.451 19.016 162.611 19.048 162.771 19.112C162.675 19.144 162.643 19.176 162.579 19.208ZM157.843 17.288C157.747 17.48 157.683 17.704 157.619 17.96C157.875 17.8 158.035 17.704 158.163 17.608C158.227 17.608 158.291 17.64 158.323 17.608C158.419 17.544 158.579 17.448 158.707 17.32C158.611 17.32 158.579 17.352 158.483 17.352C158.675 17.192 158.771 17 158.995 17C158.931 17.096 158.835 17.16 158.771 17.256C158.771 17.256 158.771 17.288 158.803 17.288C159.091 17.096 159.347 16.872 159.635 16.68L159.571 16.616C159.507 16.68 159.443 16.744 159.315 16.808C159.219 16.872 159.123 16.936 158.995 17C159.027 16.968 159.027 16.936 159.027 16.904C159.347 16.648 159.603 16.424 159.891 16.136C160.083 15.976 160.211 15.784 160.339 15.56C160.435 15.4 160.275 15.112 160.147 15.176C159.859 15.304 159.571 15.304 159.315 15.496C159.027 15.72 158.739 15.88 158.515 16.168C158.259 16.52 158.035 16.904 157.843 17.288ZM160.691 15.464C160.467 15.72 160.339 15.976 160.435 16.328C160.531 16.136 160.691 15.912 160.787 15.72L160.691 15.464ZM165.107 17.032C164.915 17.16 164.723 17.256 164.563 17.384V17.416C164.563 17.384 164.595 17.384 164.595 17.384C164.595 17.416 164.627 17.448 164.627 17.448C164.563 17.512 164.435 17.608 164.275 17.704L164.307 17.832C164.179 17.896 164.115 17.96 164.211 18.056C164.083 18.152 163.891 18.152 163.859 18.376C163.859 18.376 163.859 18.408 163.827 18.408C163.603 18.408 163.475 18.632 163.315 18.76C163.219 18.824 163.091 18.92 162.931 18.984C162.867 19.016 162.803 18.952 162.739 18.92C162.707 18.856 162.707 18.792 162.707 18.76C162.707 18.728 162.739 18.696 162.739 18.696C163.027 18.76 163.219 18.536 163.443 18.408L163.667 18.28C163.795 18.248 163.859 18.152 163.731 17.96C163.507 18.152 163.219 18.312 162.963 18.536C162.931 18.504 162.835 18.472 162.739 18.44C162.963 18.312 163.475 18.024 163.667 17.672C163.731 17.608 164.083 17.448 164.179 17.352L164.403 17.448C164.467 17.352 164.531 17.288 164.595 17.224C164.563 17.192 164.531 17.192 164.467 17.16L164.499 17.128C164.595 17.128 164.691 17.128 164.851 17.096C164.819 17.032 164.787 17 164.787 16.968L164.947 16.84L164.915 16.808L164.787 16.904H164.723L165.267 16.552L165.331 16.776C165.331 16.776 165.363 16.776 165.363 16.808C165.267 16.872 165.203 16.968 165.107 17.032ZM162.675 18.28C162.643 18.28 162.643 18.248 162.643 18.248C162.931 18.056 163.219 17.928 163.539 17.736C163.507 17.896 163.315 17.96 162.675 18.28ZM161.843 18.952C162.067 18.856 162.227 18.76 162.387 18.664C162.355 18.568 162.067 18.664 161.843 18.952ZM169.601 22.248C169.537 22.248 169.505 22.248 169.473 22.216C168.993 21.96 168.513 21.736 168.257 21.288C168.193 21.192 168.161 21.128 168.129 21.032C167.937 20.584 167.841 20.104 167.937 19.592C168.033 19.24 168.225 18.472 168.225 18.408C168.065 18.44 167.905 18.44 167.777 18.44H166.625C166.465 18.44 166.337 18.408 166.209 18.44C166.145 18.44 166.081 18.536 166.049 18.6C166.017 18.76 165.953 18.92 165.889 19.112L165.793 19.208C165.761 19.24 165.697 19.272 165.697 19.304C165.601 19.528 165.537 19.752 165.473 19.976L165.281 20.712C165.249 20.872 165.217 21.032 165.217 21.16V21.256C165.281 21.32 165.313 21.416 165.217 21.512C165.153 21.608 165.025 21.608 164.865 21.544C164.353 21.256 164.257 20.744 164.289 20.232C164.289 19.816 164.513 19.368 164.609 18.92C164.673 18.76 164.641 18.632 164.737 18.44L164.545 18.376C164.449 18.344 164.321 18.28 164.513 17.768C164.513 17.64 164.545 17.576 164.705 17.576H164.993L165.473 16.008C165.537 15.784 165.697 15.56 165.633 15.304C165.633 15.272 165.697 15.208 165.729 15.176C165.793 15.048 165.889 14.92 166.081 14.856C166.273 14.792 166.369 14.952 166.497 15.048C166.625 15.144 166.625 15.368 166.657 15.56C166.689 15.752 166.753 15.976 166.721 16.168C166.689 16.424 166.625 16.712 166.561 17C166.497 17.16 166.433 17.352 166.369 17.576H167.585C167.841 17.576 168.097 17.544 168.353 17.544C168.513 17.544 168.609 17.512 168.641 17.416C168.865 16.968 169.089 16.52 169.345 16.104C169.441 15.88 169.633 15.656 169.825 15.528C170.017 15.336 170.433 15.304 170.593 15.688C170.593 15.72 170.593 15.784 170.625 15.816C170.849 15.976 170.753 16.168 170.689 16.296C170.561 16.552 170.401 16.84 170.305 17.096C170.241 17.16 170.209 17.416 170.145 17.544C170.401 17.512 170.625 17.672 170.753 17.992C170.753 18.184 170.593 18.216 170.465 18.28C170.305 18.344 169.985 18.28 169.793 18.312C169.761 18.312 169.729 18.344 169.697 18.408C169.665 18.568 169.633 18.536 169.601 18.696C169.537 18.952 169.537 19.048 169.441 19.304C169.281 19.784 169.185 20.264 169.217 20.744C169.249 20.968 169.249 21.128 169.249 21.288C169.281 21.448 169.409 21.512 169.569 21.416C169.985 21.192 170.433 21 170.817 20.712C171.201 20.456 171.489 20.232 171.777 19.912C172.065 19.656 172.289 19.368 172.577 19.08C172.673 18.92 172.833 18.76 172.929 18.632C173.057 18.504 173.153 18.344 173.281 18.152C173.441 17.96 173.601 17.768 173.793 17.576C173.793 17.608 173.825 17.608 173.825 17.64C173.697 17.832 173.569 18.024 173.473 18.216C173.377 18.376 173.313 18.536 173.249 18.696C173.217 18.696 172.961 19.144 172.993 19.144C172.833 19.304 172.673 19.496 172.513 19.688C172.577 19.656 172.673 19.656 172.705 19.592C172.961 19.336 173.185 18.984 173.441 18.728C173.441 18.76 173.409 18.792 173.409 18.856C173.249 19.144 173.089 19.464 172.865 19.72L172.513 20.072C172.481 20.104 172.513 20.136 172.481 20.232C172.257 20.328 171.809 20.648 171.745 20.776C171.873 20.744 172.065 20.712 172.225 20.712V20.776C172.161 20.776 172.097 20.808 172.001 20.808C172.065 20.904 172.097 20.84 172.257 20.872C172.225 20.936 171.873 21.064 171.841 21.096L171.553 21.32L171.265 21.384L170.977 21.608C171.041 21.64 171.073 21.672 171.137 21.736C170.913 21.96 170.625 22.12 170.337 22.184C170.081 22.216 169.825 22.344 169.601 22.248ZM168.225 19.688C168.417 19.688 168.417 19.688 168.353 19.56C168.417 19.528 168.449 19.528 168.513 19.528C168.513 19.496 168.545 19.496 168.545 19.464L168.353 19.368C168.417 19.336 168.481 19.304 168.513 19.272C168.545 19.112 168.641 18.92 168.577 18.76C168.513 18.632 168.673 18.728 168.673 18.632L168.609 18.472C168.289 18.856 168.353 19.304 168.225 19.688ZM174.351 19.912C173.839 19.56 173.487 18.952 173.519 18.28C173.519 17.736 173.647 17.16 173.775 16.616C174.191 15.144 175.279 13.192 175.567 12.904C175.631 12.808 175.727 12.744 175.759 12.68C175.983 12.52 176.463 12.552 176.463 12.776C176.463 13.064 176.591 13.032 176.591 13.288C176.591 13.544 176.111 13.832 175.887 14.408C175.439 15.368 174.831 16.904 174.671 17.928C174.607 18.344 174.575 18.952 174.991 19.24C175.695 19.4 176.655 18.312 177.103 17.224C177.199 17.096 177.199 16.904 177.199 16.712C177.199 16.456 177.135 16.296 176.815 16.2C176.239 16.04 175.887 16.2 175.727 16.136C175.535 16.04 175.503 15.848 175.663 15.688C175.759 15.56 175.919 15.464 176.111 15.464C176.143 15.464 176.751 15.368 176.815 15.4C177.647 15.496 178.031 15.752 178.287 16.136L178.383 16.488C178.511 16.808 178.447 17.096 178.351 17.352C178.223 17.736 178.095 18.024 177.807 18.312C177.519 18.696 177.455 18.824 177.071 19.176C176.879 19.432 176.655 19.624 176.367 19.784C175.951 20.072 174.831 20.232 174.351 19.912ZM176.943 18.184C177.135 18.152 177.551 17.992 177.647 17.736C177.807 17.512 177.775 17.48 177.775 17.352C177.775 17.32 177.711 17.32 177.711 17.288C177.711 17.288 177.615 17.512 177.199 17.672C177.135 17.768 177.071 17.896 176.943 18.184ZM189.562 2.18397C189.594 2.27997 189.562 2.43997 189.498 2.59997C189.434 2.75997 189.402 3.04797 189.37 3.23997L189.306 3.59197C189.306 3.62397 189.306 3.68797 189.274 3.71997C189.242 3.75197 189.274 3.78397 189.242 3.81597C189.05 4.00797 189.114 4.42397 188.922 4.61597C188.89 4.61597 188.89 4.58397 188.826 4.61597C188.89 4.42397 188.986 4.29597 188.986 4.10397C189.05 3.94397 189.146 3.78397 189.242 3.59197C189.21 3.59197 189.21 3.59197 189.178 3.55997C189.146 3.75197 189.05 3.94397 188.986 4.10397C188.954 4.19997 188.89 4.26397 188.858 4.35997H188.826C188.922 3.94397 189.082 3.65597 189.178 3.33597V3.30397C189.114 3.33597 189.114 3.36797 189.082 3.39997C188.922 3.71997 188.794 4.13597 188.666 4.51997C188.602 4.64797 188.506 4.74397 188.442 4.83997L187.93 5.92797C187.802 6.15197 187.642 6.37597 187.514 6.56797C187.45 6.63197 187.386 6.72797 187.322 6.53597C187.418 6.50397 187.514 6.37597 187.61 6.27997C187.61 6.24797 187.578 6.24797 187.578 6.21597C187.546 6.24797 187.482 6.27997 187.386 6.27997C187.29 6.43997 187.13 6.66397 187.034 6.88797C186.97 7.04797 186.906 7.20797 186.81 7.36797C186.746 7.49597 186.618 7.62397 186.554 7.62397C186.522 7.71997 186.49 7.81597 186.49 7.91197C186.49 7.94397 186.426 7.97597 186.394 7.97597V8.03997C186.458 8.07197 186.522 8.03997 186.618 8.10397C186.458 8.19997 186.426 8.32797 186.394 8.42397C186.298 8.55197 186.266 8.64797 186.202 8.74397C186.234 8.77597 186.266 8.77597 186.266 8.77597C186.33 8.64797 186.394 8.51997 186.49 8.42397C186.65 8.48797 186.746 8.48797 186.874 8.51997C186.842 8.55197 186.842 8.67997 186.746 8.58397C186.746 8.58397 186.682 8.61597 186.682 8.64797C186.65 8.74397 186.522 8.80797 186.682 8.83997C186.522 8.96797 186.362 8.96797 186.298 9.22397C186.362 9.15997 186.394 9.12797 186.458 9.09597V9.12797C186.362 9.38397 186.266 9.51197 186.138 9.70397C186.074 9.70397 186.042 9.83197 185.978 9.89597C185.85 10.056 185.786 10.248 185.658 10.376C185.594 10.44 185.53 10.536 185.53 10.632C185.498 10.6 185.466 10.632 185.434 10.632C185.37 10.664 185.338 10.664 185.37 10.76C185.402 10.76 185.37 10.824 185.306 10.856C185.05 11.176 184.986 11.112 184.73 11.464C184.474 11.816 184.218 12.04 183.93 12.328C183.578 12.68 183.418 13 183.098 13.384C183.066 13.48 182.938 13.448 182.906 13.544C182.842 13.736 182.618 13.864 182.458 14.056C182.426 14.12 182.138 15.752 182.074 16.008L182.042 16.232C182.074 16.232 182.106 16.232 182.202 16.2C182.362 16.04 182.554 15.912 182.81 15.688C183.258 15.368 183.514 15.08 183.994 14.824C184.41 14.6 184.762 14.536 185.21 14.536C185.434 14.536 185.594 14.664 185.818 14.696C185.882 14.728 185.978 14.76 186.074 14.824C186.01 14.856 185.978 14.856 185.882 14.92L186.682 15.208C186.714 15.368 186.746 15.432 186.746 15.56C186.746 15.784 186.778 16.072 186.65 16.296C186.618 16.68 186.49 16.968 186.298 17.288C186.106 17.608 185.946 17.736 185.786 17.864C185.306 18.312 185.05 18.376 184.698 18.6L183.994 18.824C183.93 19.368 184.218 20.072 184.442 20.456C184.506 20.552 184.57 20.584 184.602 20.584C185.178 20.648 185.402 20.584 185.946 20.392C186.522 20.136 187.45 19.432 187.866 19.016C188.378 18.6 188.634 18.28 188.986 18.024L189.178 18.216C189.146 18.408 189.05 18.568 188.986 18.696C188.858 18.952 188.602 19.4 188.41 19.656C188.122 19.944 187.642 20.68 187.226 20.904C187.002 21.032 186.746 21.16 186.586 21.288C186.362 21.384 186.17 21.48 185.882 21.544C185.53 21.672 185.338 21.64 185.05 21.64C184.954 21.64 184.89 21.576 184.826 21.608C184.538 21.672 184.186 21.544 184.058 21.352C183.77 21.192 183.61 21.096 183.45 20.872C183.29 20.648 183.162 20.424 183.098 20.136C182.842 19.464 182.842 18.888 182.906 18.344L183.834 17.864C184.41 17.544 185.018 17.224 185.338 16.648C185.53 16.296 185.594 15.976 185.338 15.56C185.018 15.464 184.698 15.688 184.41 15.848C183.994 16.2 183.738 16.296 183.226 16.712C183.002 16.936 182.778 17.064 182.554 17.224L182.266 17.448L181.882 17.704C181.85 17.8 181.722 18.536 181.69 18.568C181.562 18.984 181.69 19.048 181.53 19.24C181.53 19.4 181.402 19.528 181.402 19.688L181.37 19.944L181.338 20.104L181.242 20.52C181.338 20.744 181.242 20.904 181.146 21.064C181.018 21.32 180.698 21.32 180.698 21.096C180.602 21.064 180.538 21.032 180.474 20.936L180.378 20.744L180.154 20.52C180.122 20.456 180.122 20.36 180.122 20.264L180.218 19.752C180.314 19.528 180.314 19.272 180.314 19.016L180.442 18.504C180.538 18.184 180.602 17.8 180.666 17.448C180.73 17.256 180.762 16.84 180.826 16.584L181.146 14.92V14.888C180.89 15.016 180.218 15.592 180.026 15.528C179.898 15.496 179.802 15.432 179.77 15.368C179.706 15.24 179.706 14.44 179.834 14.344C180.442 13.992 181.114 13.448 181.594 13.032C181.754 12.392 181.914 11.752 182.042 11.112C182.234 10.472 182.394 9.83197 182.618 9.15997C182.874 8.39197 183.066 7.59197 183.418 6.82397C183.738 6.11997 183.962 5.47997 184.25 4.74397C184.346 4.48797 184.538 4.29597 184.602 4.03997C184.698 3.81597 184.794 3.55997 184.922 3.33597C185.146 2.91997 185.402 2.66397 185.626 2.15197C185.69 2.02397 185.818 1.89597 185.914 1.76797C186.042 1.47997 186.17 1.38397 186.362 1.15997C186.426 1.09597 186.458 1.06397 186.49 0.967968C186.554 0.935968 186.618 0.903967 186.65 0.839968C186.81 0.583967 186.97 0.391968 187.322 0.231968C187.514 0.167969 187.674 0.0399685 187.898 0.0399685C188.09 0.0399685 188.282 0.0719681 188.506 0.135967C188.826 0.295967 189.082 0.679968 189.37 0.935968C189.466 1.12797 189.498 1.44797 189.53 1.76797C189.562 1.86397 189.562 2.02397 189.562 2.18397ZM188.474 2.50397C188.474 1.60797 188.506 1.38397 188.122 1.28797C187.962 1.28797 187.802 1.38397 187.642 1.51197C187.386 1.70397 187.258 1.89597 187.002 2.21597C186.778 2.56797 186.458 2.91997 186.17 3.36797C185.914 3.81597 185.722 4.23197 185.466 4.71197C185.306 5.15997 185.018 5.41597 184.954 5.89597L184.986 5.92797C184.922 6.15197 184.762 6.24797 184.698 6.43997C184.506 6.82397 184.442 7.17597 184.218 7.81597C183.898 8.83997 183.706 9.19197 183.514 9.92797C183.226 10.76 183.13 11.112 182.906 11.912L183.034 11.688C183.386 11.24 183.674 11.016 184.026 10.504C184.378 10.12 184.634 9.79997 184.89 9.38397C185.05 9.22397 185.21 8.93597 185.37 8.71197C185.69 8.19997 185.914 7.75197 186.202 7.39997V7.36797C186.458 6.85597 186.778 6.43997 187.002 6.05597C187.258 5.60797 187.386 5.19197 187.642 4.77597C187.802 4.39197 188.058 3.81597 188.25 3.30397C188.314 3.07997 188.314 2.85597 188.474 2.50397ZM187.226 7.71997C187.194 7.71997 187.162 7.75197 187.162 7.81597C187.226 8.07197 187.194 8.07197 187.066 8.13597C187.034 8.19997 187.002 8.32797 187.002 8.35997C186.938 8.42397 186.874 8.39197 186.81 8.39197C186.778 8.39197 186.746 8.39197 186.714 8.35997C186.682 8.32797 186.65 8.29597 186.618 8.29597C186.586 8.23197 186.65 8.16797 186.682 8.13597C186.682 8.13597 186.746 8.16797 186.778 8.13597C186.81 8.13597 186.842 8.13597 186.906 8.10397C186.81 8.00797 186.81 7.94397 186.842 7.81597C186.874 7.75197 186.938 7.68797 186.97 7.71997C186.97 7.68797 187.002 7.68797 187.034 7.65597V7.75197C187.066 7.71997 187.098 7.71997 187.13 7.68797C187.13 7.65597 187.066 7.62397 187.002 7.55997C187.098 7.49597 187.098 7.43197 187.162 7.36797C187.162 7.43197 187.194 7.39997 187.226 7.49597C187.29 7.43197 187.354 7.36797 187.45 7.20797C187.386 7.17597 187.354 7.17597 187.29 7.07997L187.514 6.72797C187.546 6.82397 187.546 6.88797 187.546 6.98397C187.674 6.66397 187.802 6.47197 187.994 6.15197C187.962 6.15197 187.93 6.18397 187.866 6.18397C187.962 5.95997 188.026 5.70397 188.154 5.54397C188.314 5.31997 188.41 5.09597 188.506 4.83997C188.602 4.67997 188.698 4.67997 188.858 4.71197L188.73 4.90397C188.602 5.06397 188.57 5.22397 188.538 5.35197C188.474 5.51197 188.442 5.63997 188.314 5.76797C188.186 6.18397 187.898 6.47197 187.738 6.85597C187.674 6.88797 187.674 7.04797 187.642 7.20797C187.546 7.43197 187.386 7.68797 187.29 7.87997C187.226 7.81597 187.226 7.75197 187.226 7.71997ZM187.61 5.57597C187.674 5.44797 187.802 5.28797 187.866 5.15997C187.866 5.15997 187.802 5.09597 187.802 5.06397C187.77 5.22397 187.674 5.41597 187.61 5.57597ZM187.578 6.08797C187.802 6.05597 187.77 5.57597 187.962 5.51197C187.962 5.47997 187.93 5.44797 187.898 5.41597C187.802 5.60797 187.674 5.83197 187.578 6.08797ZM184.026 6.59997C183.962 6.75997 184.058 6.85597 184.026 7.01597C184.058 7.01597 184.058 7.04797 184.058 7.04797C184.122 6.88797 184.154 6.75997 184.186 6.63197L184.026 6.59997ZM186.714 7.81597C186.682 7.62397 186.842 7.59197 186.938 7.36797C186.938 7.62397 186.81 7.68797 186.714 7.81597ZM185.786 9.22397C185.914 9.19197 186.042 9.06397 186.138 8.96797C186.074 8.96797 185.978 8.99997 185.882 9.06397C186.01 8.96797 186.042 8.90397 186.074 8.87197C186.01 8.90397 185.914 8.99997 185.818 9.09597C185.85 9.03197 185.882 8.96797 185.914 8.93597H185.882C185.69 9.15997 185.466 9.41597 185.274 9.67197C185.21 9.70397 185.21 9.73597 185.146 9.76797C184.922 9.92797 184.794 10.152 184.602 10.408C184.314 10.728 184.09 11.048 183.77 11.496C183.674 11.304 183.45 11.56 183.194 11.976C182.906 12.264 182.746 12.488 182.81 12.648C182.778 12.712 182.778 12.808 182.682 13.128C182.746 13.064 182.842 12.968 182.906 12.872C182.938 12.776 183.034 12.712 183.13 12.648C183.098 12.648 183.066 12.616 183.034 12.648C183.002 12.712 182.938 12.776 182.874 12.808H182.842C182.906 12.744 182.97 12.648 183.066 12.52C183.13 12.552 183.13 12.552 183.226 12.52C183.29 12.392 183.322 12.296 183.386 12.232C183.258 12.36 183.194 12.424 183.002 12.52C183.098 12.456 183.162 12.392 183.226 12.296C183.354 12.232 183.514 12.104 183.514 11.976C183.578 11.912 183.674 11.848 183.802 11.72C183.866 11.656 183.962 11.592 184.058 11.464L183.866 11.592C184.122 11.24 184.186 11.432 184.41 11.144C184.314 11.208 184.282 11.24 184.25 11.272L184.346 11.144C184.442 11.016 184.57 10.92 184.762 10.76C184.73 10.76 184.762 10.728 184.762 10.664L184.826 10.536C184.922 10.472 184.986 10.44 185.082 10.376C185.082 10.376 185.05 10.376 185.082 10.344L185.146 10.28C185.178 10.184 185.338 10.024 185.37 9.92797L185.338 9.95997C185.306 9.95997 185.21 10.056 185.21 10.12C185.178 10.088 185.178 10.056 185.178 10.024C185.466 9.79997 185.594 9.70397 185.594 9.60797C185.402 9.83197 185.306 9.83197 185.178 9.92797C185.306 9.67197 185.53 9.63997 185.658 9.51197C185.658 9.47997 185.658 9.41597 185.722 9.35197C185.85 9.25597 185.754 9.28797 185.594 9.31997C185.69 9.25597 185.754 9.22397 185.786 9.22397ZM182.17 12.84C182.202 12.744 182.234 12.552 182.234 12.456L182.106 12.872C182.138 12.84 182.17 12.84 182.17 12.84ZM182.586 13.192V13.224C182.586 13.224 182.586 13.224 182.586 13.192ZM181.53 15.432C181.626 15.016 181.722 14.632 181.754 14.216V14.152L181.722 14.088H181.658C181.626 14.248 181.626 14.44 181.594 14.568C181.53 14.92 181.402 15.336 181.402 15.72C181.37 15.784 181.37 15.88 181.402 15.88C181.498 15.688 181.53 15.592 181.53 15.432ZM184.218 15.272C184.026 15.336 183.77 15.4 183.738 15.688C183.93 15.56 184.09 15.432 184.25 15.304C184.218 15.304 184.218 15.272 184.218 15.272ZM182.938 16.232C182.842 16.296 182.714 16.36 182.586 16.392C182.906 16.488 182.906 16.488 182.938 16.232ZM182.842 16.68C182.554 16.488 182.554 16.488 182.426 16.68C182.554 16.648 182.65 16.68 182.842 16.68ZM185.69 17.416C185.626 17.448 185.498 17.512 185.498 17.544C185.498 17.672 185.434 17.704 185.338 17.704L185.05 17.896C185.082 17.896 185.114 17.928 185.114 17.992C185.146 17.96 185.242 17.928 185.242 17.896C185.402 17.8 185.498 17.704 185.626 17.608C185.658 17.544 185.69 17.512 185.754 17.448L185.69 17.416ZM201.738 17.672C201.77 17.608 201.898 17.64 202.026 17.64C201.866 17.832 201.61 17.96 201.578 18.28L201.45 18.344C201.578 18.568 201.322 18.6 201.226 18.664C201.066 18.728 201.162 18.856 201.034 18.92C201.066 18.952 201.098 18.984 201.226 19.016C201.098 19.016 201.034 19.048 200.97 19.048C200.81 19.048 200.746 19.176 200.714 19.336C200.714 19.496 200.49 19.688 200.33 19.688C200.266 19.688 200.17 19.72 200.106 19.784C200.17 19.848 200.17 19.88 200.17 19.912L199.754 20.2C199.754 20.232 199.754 20.232 199.786 20.264C199.882 20.2 199.914 20.168 200.01 20.136C200.01 20.168 200.042 20.168 200.042 20.168C199.658 20.648 199.21 20.744 198.634 20.776C198.698 20.84 198.698 20.872 198.762 20.936C198.442 20.872 198.25 21.192 197.994 21.032C197.898 21 197.834 21.032 197.738 21C197.578 20.936 197.45 20.872 197.322 20.872C197.226 20.808 197.098 20.744 197.002 20.712C196.874 20.648 196.714 20.584 196.714 20.52C196.586 20.328 196.426 20.232 196.234 20.168C195.914 20.04 195.818 19.784 195.722 19.528C195.658 19.432 195.594 19.368 195.562 19.304C195.434 19.112 195.37 18.92 195.274 18.728C195.306 18.664 195.274 18.632 195.21 18.536L194.73 19.016H194.698C194.698 18.984 194.73 18.952 194.73 18.888C194.666 18.824 194.186 19.304 194.09 19.464C194.058 19.528 194.058 19.56 194.026 19.56C193.994 19.624 193.898 19.688 193.866 19.72C193.642 20.008 193.482 20.328 193.162 20.488C192.714 20.68 192.33 20.968 191.85 21C191.498 21.032 191.306 20.936 191.178 20.616C191.146 20.584 191.146 20.552 191.146 20.488C191.114 20.552 191.082 20.616 191.082 20.648C191.146 20.712 191.018 20.616 190.954 20.552C190.858 20.424 190.698 20.296 190.602 20.104C190.282 19.496 190.314 19.112 190.474 18.568C190.73 17.64 191.626 16.648 191.53 16.424C191.21 16.52 190.954 16.552 190.858 16.456C190.73 16.232 190.602 16.072 190.634 15.912C190.698 15.784 190.826 15.72 190.922 15.656C191.05 15.56 191.21 15.464 191.402 15.4C191.658 15.336 191.882 15.336 192.106 15.4C192.266 15.528 192.522 15.592 192.618 15.752C192.874 16.2 192.682 16.648 192.33 17.448C192.17 17.832 191.818 18.504 191.722 18.728C191.594 19.016 191.466 19.464 191.722 19.624C191.914 19.72 192.17 19.656 192.362 19.528C192.81 19.272 192.97 19.048 193.226 18.824C193.578 18.504 193.834 18.184 194.186 17.832C194.506 17.512 194.794 17.128 195.114 16.808C195.306 16.616 195.466 16.392 195.658 16.2C195.69 16.136 195.818 16.104 195.85 16.008C195.914 16.264 195.978 16.104 196.106 16.04C196.266 16.008 196.394 16.008 196.522 16.008C196.522 16.04 196.554 16.04 196.554 16.072L196.394 16.168C196.394 16.2 196.394 16.2 196.362 16.232C196.586 16.296 196.842 16.296 197.098 16.36C197.098 16.424 197.066 16.456 197.002 16.456C197.034 16.456 197.034 16.488 197.034 16.488C197.258 16.52 197.29 16.616 197.226 16.808C197.066 17 196.97 17.224 196.906 17.48C196.65 18.088 196.554 18.728 196.714 19.368C196.746 19.496 196.778 19.592 196.842 19.688C197.194 20.04 198.058 19.816 198.602 19.56C198.954 19.4 199.274 19.176 199.594 18.952C200.202 18.536 200.81 18.088 201.386 17.608L201.834 17.192C201.834 17.16 201.898 17.16 201.93 17.16C201.962 17.16 201.994 17.192 201.962 17.224L201.418 17.8C201.546 17.832 201.642 17.8 201.738 17.672ZM194.538 17.768C194.922 17.64 195.626 16.808 195.594 16.616C195.242 17.032 194.922 17.384 194.538 17.768ZM191.69 17.928C191.53 18.056 191.53 18.056 191.69 18.12C191.754 17.928 192.234 17.096 192.362 16.776C192.138 16.84 191.722 17.576 191.754 17.736C191.722 17.8 191.69 17.864 191.69 17.928ZM195.242 17.832C195.434 17.64 195.562 17.48 195.434 17.288C195.402 17.32 195.402 17.352 195.338 17.416C195.306 17.512 195.242 17.64 195.178 17.736C195.178 17.768 195.114 17.768 195.082 17.8V17.672C194.954 17.768 194.89 17.832 194.762 17.96C194.986 17.992 195.114 17.992 195.242 17.832ZM201.098 18.408C201.162 18.344 201.258 18.28 201.29 18.216L201.226 17.832L200.17 18.76C200.202 18.76 200.202 18.76 200.234 18.792C200.49 18.6 200.746 18.344 201.002 18.12C201.002 18.152 201.002 18.152 201.034 18.152C200.906 18.344 200.746 18.504 200.522 18.728L200.746 18.664L201.098 18.408ZM192.554 19.656C192.81 19.656 193.61 19.208 193.642 19.016C193.322 19.208 192.906 19.432 192.554 19.656ZM199.498 19.368L199.786 19.272C199.69 19.208 199.626 19.144 199.594 19.144C199.562 19.176 199.498 19.24 199.434 19.272C199.466 19.336 199.498 19.304 199.498 19.368ZM191.082 20.36V20.392C191.082 20.36 191.082 20.36 191.082 20.36ZM207.579 19.208C207.579 19.24 207.611 19.272 207.611 19.272C208.027 19.144 208.379 18.792 208.795 18.568C208.763 18.632 208.763 18.696 208.731 18.728C208.603 18.856 208.443 18.984 208.315 19.08L207.707 19.56C207.451 19.688 207.259 19.816 207.035 19.976C206.747 20.136 206.491 20.36 206.171 20.488C205.979 20.584 205.755 20.584 205.531 20.616C205.403 20.616 205.339 20.648 205.243 20.712C205.115 20.776 204.923 20.808 204.763 20.84C204.507 20.904 204.283 20.968 204.027 20.936C203.707 20.904 203.355 20.84 203.067 20.744C202.779 20.648 202.651 20.616 202.331 20.36C202.299 20.296 202.203 20.264 202.171 20.232C201.947 20.072 201.819 19.88 201.627 19.592C201.563 19.528 201.563 19.528 201.499 19.208C201.339 18.824 201.371 18.6 201.371 18.376C201.403 17.736 201.563 17.128 201.883 16.52C202.011 16.328 202.139 16.136 202.299 15.944C202.587 15.592 202.875 15.272 203.163 14.952C203.451 14.664 203.803 14.472 204.219 14.44C204.315 14.44 204.411 14.408 204.539 14.376C204.859 14.248 205.147 14.472 205.371 14.6C205.659 14.728 205.915 14.92 206.139 15.112C206.395 15.272 206.555 15.816 206.459 16.072C206.395 16.232 206.299 16.392 206.203 16.488C205.915 16.808 205.627 17.096 205.339 17.384C205.243 17.48 205.051 17.512 205.019 17.608C204.987 17.832 204.763 17.864 204.635 17.928L204.411 18.056C204.475 18.056 204.507 18.088 204.507 18.088C204.411 18.152 204.315 18.184 204.187 18.248C204.155 18.28 204.155 18.376 204.123 18.408C203.899 18.536 203.643 18.632 203.451 18.76C203.355 18.792 203.291 18.888 203.227 18.952C202.971 19.08 202.875 19.112 202.651 19.24C202.779 19.624 202.843 19.688 203.099 19.784C203.515 19.752 203.931 19.784 204.347 19.72C204.635 19.688 204.923 19.56 205.211 19.464C205.435 19.368 205.691 19.24 205.947 19.144C206.107 19.08 206.267 19.08 206.427 18.984C206.779 18.76 207.163 18.568 207.483 18.376L207.579 18.312C207.611 18.344 207.611 18.344 207.611 18.344C207.579 18.408 207.515 18.472 207.483 18.504C207.515 18.536 207.547 18.568 207.515 18.6C207.611 18.6 207.707 18.568 207.771 18.536C207.803 18.568 207.803 18.568 207.771 18.6C207.643 18.696 207.483 18.824 207.355 18.952C207.451 19.016 207.611 19.048 207.771 19.112C207.675 19.144 207.643 19.176 207.579 19.208ZM202.843 17.288C202.747 17.48 202.683 17.704 202.619 17.96C202.875 17.8 203.035 17.704 203.163 17.608C203.227 17.608 203.291 17.64 203.323 17.608C203.419 17.544 203.579 17.448 203.707 17.32C203.611 17.32 203.579 17.352 203.483 17.352C203.675 17.192 203.771 17 203.995 17C203.931 17.096 203.835 17.16 203.771 17.256C203.771 17.256 203.771 17.288 203.803 17.288C204.091 17.096 204.347 16.872 204.635 16.68L204.571 16.616C204.507 16.68 204.443 16.744 204.315 16.808C204.219 16.872 204.123 16.936 203.995 17C204.027 16.968 204.027 16.936 204.027 16.904C204.347 16.648 204.603 16.424 204.891 16.136C205.083 15.976 205.211 15.784 205.339 15.56C205.435 15.4 205.275 15.112 205.147 15.176C204.859 15.304 204.571 15.304 204.315 15.496C204.027 15.72 203.739 15.88 203.515 16.168C203.259 16.52 203.035 16.904 202.843 17.288ZM205.691 15.464C205.467 15.72 205.339 15.976 205.435 16.328C205.531 16.136 205.691 15.912 205.787 15.72L205.691 15.464ZM210.107 17.032C209.915 17.16 209.723 17.256 209.563 17.384V17.416C209.563 17.384 209.595 17.384 209.595 17.384C209.595 17.416 209.627 17.448 209.627 17.448C209.563 17.512 209.435 17.608 209.275 17.704L209.307 17.832C209.179 17.896 209.115 17.96 209.211 18.056C209.083 18.152 208.891 18.152 208.859 18.376C208.859 18.376 208.859 18.408 208.827 18.408C208.603 18.408 208.475 18.632 208.315 18.76C208.219 18.824 208.091 18.92 207.931 18.984C207.867 19.016 207.803 18.952 207.739 18.92C207.707 18.856 207.707 18.792 207.707 18.76C207.707 18.728 207.739 18.696 207.739 18.696C208.027 18.76 208.219 18.536 208.443 18.408L208.667 18.28C208.795 18.248 208.859 18.152 208.731 17.96C208.507 18.152 208.219 18.312 207.963 18.536C207.931 18.504 207.835 18.472 207.739 18.44C207.963 18.312 208.475 18.024 208.667 17.672C208.731 17.608 209.083 17.448 209.179 17.352L209.403 17.448C209.467 17.352 209.531 17.288 209.595 17.224C209.563 17.192 209.531 17.192 209.467 17.16L209.499 17.128C209.595 17.128 209.691 17.128 209.851 17.096C209.819 17.032 209.787 17 209.787 16.968L209.947 16.84L209.915 16.808L209.787 16.904H209.723L210.267 16.552L210.331 16.776C210.331 16.776 210.363 16.776 210.363 16.808C210.267 16.872 210.203 16.968 210.107 17.032ZM207.675 18.28C207.643 18.28 207.643 18.248 207.643 18.248C207.931 18.056 208.219 17.928 208.539 17.736C208.507 17.896 208.315 17.96 207.675 18.28ZM206.843 18.952C207.067 18.856 207.227 18.76 207.387 18.664C207.355 18.568 207.067 18.664 206.843 18.952Z" fill="#832321"></path></svg> 