<?xml version="1.0" encoding="UTF-8"?> <svg xmlns="http://www.w3.org/2000/svg" width="385" height="127" viewBox="0 0 385 127" fill="none"><path d="M129.644 86.7763C129 86.7763 128.45 86.6436 127.995 86.3782C127.578 86.0749 127.37 85.62 127.37 85.0134C127.37 84.5964 127.521 84.0657 127.825 83.4212C128.128 82.7767 128.507 82.0754 128.962 81.3172C128.621 81.2792 128.261 81.2603 127.882 81.2603C127.502 81.2224 127.067 81.2034 126.574 81.2034C126.27 81.2034 125.986 81.2034 125.721 81.2034C125.455 81.2034 125.171 81.2224 124.868 81.2603L121.968 85.5821C121.702 85.9612 121.437 86.2266 121.171 86.3782C120.906 86.492 120.622 86.5488 120.318 86.5488H118.84C118.575 86.5488 118.442 86.4351 118.442 86.2076C118.442 86.0939 118.499 85.9423 118.612 85.7527C119.105 85.1082 119.674 84.3311 120.318 83.4212C121.001 82.5113 121.626 81.6204 122.195 80.7485C122.802 79.8386 123.294 79.0236 123.673 78.3033C124.091 77.5451 124.299 77.0143 124.299 76.711C124.299 76.294 124.091 76.0855 123.673 76.0855C123.332 76.0855 122.934 76.2371 122.479 76.5404C122.024 76.8058 121.532 77.1849 121.001 77.6777C120.508 78.1706 119.977 78.7203 119.409 79.3269C118.878 79.9334 118.347 80.54 117.816 81.1466L117.361 80.9191C118.044 80.1609 118.707 79.4406 119.352 78.7582C119.996 78.0379 120.622 77.4124 121.228 76.8816C121.873 76.313 122.498 75.877 123.105 75.5737C123.711 75.2325 124.299 75.0619 124.868 75.0619C125.74 75.0619 126.327 75.2135 126.631 75.5168C126.972 75.8201 127.142 76.2182 127.142 76.711C127.142 77.4692 126.517 78.7771 125.266 80.6348C125.569 80.6727 125.872 80.6916 126.176 80.6916C126.479 80.6916 126.82 80.6916 127.199 80.6916H129.303C129.834 79.8576 130.365 79.0615 130.895 78.3033C131.464 77.5071 131.957 76.8437 132.374 76.313C132.601 76.0097 132.829 75.7822 133.056 75.6306C133.322 75.441 133.701 75.3462 134.194 75.3462H135.104C135.407 75.3462 135.558 75.46 135.558 75.6874C135.558 75.7253 135.54 75.7822 135.502 75.858C135.502 75.8959 135.464 75.9907 135.388 76.1424C135.047 76.6731 134.573 77.3745 133.966 78.2464C133.398 79.0804 132.81 79.9334 132.203 80.8054C131.635 81.6773 131.142 82.5113 130.725 83.3075C130.308 84.1036 130.099 84.7102 130.099 85.1272C130.099 85.5442 130.346 85.7527 130.839 85.7527C131.824 85.7527 132.772 85.3357 133.682 84.5017C134.592 83.6297 135.824 82.2839 137.378 80.4642L137.776 80.7485C137.17 81.4688 136.563 82.1891 135.957 82.9094C135.388 83.6297 134.781 84.2742 134.137 84.8428C133.492 85.4115 132.81 85.8854 132.09 86.2645C131.369 86.6057 130.554 86.7763 129.644 86.7763ZM146.518 75.8012C145.684 75.8012 144.831 76.1424 143.959 76.8247C143.087 77.5071 142.272 78.3222 141.514 79.27C140.794 80.1798 140.187 81.1466 139.694 82.1701C139.239 83.1937 139.012 84.0467 139.012 84.7291C139.012 84.9945 139.069 85.2978 139.182 85.639C139.296 85.9423 139.656 86.0939 140.263 86.0939C140.756 86.0939 141.267 85.9233 141.798 85.5821C142.367 85.2409 142.936 84.8049 143.504 84.2742C144.073 83.7434 144.604 83.1558 145.096 82.5113C145.627 81.8669 146.12 81.2224 146.575 80.5779C146.992 79.9713 147.352 79.3648 147.655 78.7582C147.997 78.1516 148.167 77.6398 148.167 77.2228C148.167 76.6921 147.997 76.3319 147.655 76.1424C147.314 75.9149 146.935 75.8012 146.518 75.8012ZM149.703 76.3698C149.93 76.0665 150.157 75.8201 150.385 75.6306C150.612 75.441 150.954 75.3462 151.409 75.3462H152.489C152.792 75.3462 152.944 75.46 152.944 75.6874C152.944 75.7253 152.925 75.7822 152.887 75.858C152.887 75.8959 152.849 75.9907 152.773 76.1424C152.432 76.6731 151.958 77.3555 151.352 78.1895C150.745 79.0236 150.157 79.8955 149.589 80.8054C149.02 81.6773 148.508 82.5113 148.053 83.3075C147.636 84.0657 147.428 84.6533 147.428 85.0703C147.428 85.5252 147.636 85.7527 148.053 85.7527C149.039 85.7527 149.987 85.3357 150.897 84.5017C151.807 83.6297 153.039 82.2839 154.593 80.4642L154.991 80.7485C154.385 81.4688 153.778 82.1891 153.171 82.9094C152.603 83.6297 151.996 84.2742 151.352 84.8428C150.707 85.4115 150.025 85.8854 149.305 86.2645C148.584 86.6057 147.769 86.7763 146.859 86.7763C146.215 86.7763 145.665 86.6626 145.21 86.4351C144.755 86.1697 144.528 85.7337 144.528 85.1272C144.528 84.9376 144.566 84.7102 144.641 84.4448C144.755 84.1415 144.926 83.8193 145.153 83.4781V83.4212C144.168 84.5206 143.201 85.3736 142.253 85.9802C141.343 86.5488 140.32 86.8332 139.182 86.8332C138.045 86.8332 137.268 86.5867 136.851 86.0939C136.472 85.6011 136.282 85.0514 136.282 84.4448C136.282 83.4212 136.567 82.3597 137.135 81.2603C137.742 80.1609 138.519 79.1563 139.467 78.2464C140.414 77.3365 141.476 76.5973 142.651 76.0286C143.826 75.46 145.002 75.1756 146.177 75.1756C147.125 75.1756 147.845 75.3462 148.338 75.6874C148.831 75.9907 149.191 76.3509 149.418 76.7679L149.703 76.3698ZM177.658 80.0661C177.014 80.8243 176.275 81.6204 175.441 82.4545C174.645 83.2506 173.792 83.9899 172.882 84.6723C171.972 85.3167 170.986 85.8475 169.925 86.2645C168.901 86.6815 167.84 86.89 166.74 86.89C165.413 86.89 164.484 86.6057 163.954 86.037C163.461 85.4684 163.214 84.8049 163.214 84.0467C163.214 83.1369 163.48 82.1701 164.011 81.1466C164.541 80.0851 165.243 79.1183 166.115 78.2464C167.024 77.3745 168.048 76.6541 169.185 76.0855C170.361 75.4789 171.555 75.1756 172.768 75.1756C173.829 75.1756 174.645 75.4031 175.213 75.858C175.82 76.275 176.123 76.8247 176.123 77.5071C176.123 77.9242 175.971 78.3222 175.668 78.7013C175.365 79.0804 174.967 79.27 174.474 79.27C174.057 79.27 173.735 79.1752 173.507 78.9857C173.318 78.7961 173.223 78.5876 173.223 78.3601C173.223 78.0948 173.299 77.8673 173.45 77.6777C173.64 77.4503 173.735 77.1849 173.735 76.8816C173.735 76.6162 173.64 76.3888 173.45 76.1992C173.299 75.9718 173.052 75.858 172.711 75.858C171.991 75.9338 171.233 76.294 170.436 76.9385C169.64 77.545 168.901 78.2843 168.219 79.1563C167.574 80.0282 167.024 80.957 166.57 81.9427C166.153 82.8905 165.944 83.7245 165.944 84.4448C165.944 84.786 166.058 85.1461 166.285 85.5252C166.513 85.8664 167.043 86.037 167.877 86.037C169.47 86.037 171.024 85.4494 172.54 84.2742C174.095 83.099 175.668 81.6015 177.26 79.7818L177.658 80.0661ZM183.337 74.0952C182.352 75.5358 181.556 76.8816 180.949 78.1327C180.343 79.3837 179.869 80.4831 179.527 81.4309C179.186 82.3407 178.94 83.099 178.788 83.7055C178.674 84.3121 178.618 84.6912 178.618 84.8428C178.618 85.8285 179.148 86.3214 180.21 86.3214C180.892 86.3214 181.613 86.0749 182.371 85.5821C183.167 85.0893 183.887 84.4827 184.532 83.7624C185.214 83.0042 185.764 82.2081 186.181 81.374C186.636 80.5021 186.901 79.7249 186.977 79.0425C186.939 78.6634 186.844 78.398 186.693 78.2464C186.541 78.0948 186.37 77.981 186.181 77.9052C186.029 77.7915 185.877 77.6777 185.726 77.564C185.574 77.4503 185.498 77.2228 185.498 76.8816C185.498 76.4267 185.707 76.0097 186.124 75.6306C186.541 75.2515 187.034 75.0619 187.602 75.0619C188.247 75.0619 188.759 75.2894 189.138 75.7443C189.517 76.1613 189.706 76.6921 189.706 77.3365C189.706 78.5118 189.384 79.687 188.74 80.8622C188.095 81.9996 187.261 83.0231 186.238 83.933C185.252 84.8428 184.153 85.5821 182.939 86.1508C181.726 86.6815 180.57 86.9469 179.471 86.9469C178.03 86.9469 177.101 86.6815 176.684 86.1508C176.267 85.5821 176.059 84.9187 176.059 84.1605C176.059 83.099 176.438 81.6963 177.196 79.9524C177.992 78.1706 179.016 76.275 180.267 74.2658C181.556 72.2565 182.996 70.2093 184.588 68.1243C186.219 66.0392 187.849 64.1626 189.479 62.4945C191.147 60.8265 192.758 59.4617 194.313 58.4002C195.867 57.3387 197.213 56.8079 198.35 56.8079C199.032 56.8079 199.62 56.9785 200.113 57.3197C200.606 57.6609 200.852 58.1917 200.852 58.912C200.852 59.746 200.435 60.8454 199.601 62.2102C198.767 63.5371 197.592 64.9398 196.075 66.4183C194.559 67.8589 192.72 69.2805 190.559 70.6832C188.399 72.048 185.991 73.1853 183.337 74.0952ZM196.53 58.1158C195.772 58.1158 194.862 58.6087 193.801 59.5944C192.777 60.58 191.678 61.8311 190.503 63.3475C189.365 64.8639 188.209 66.5131 187.034 68.2949C185.859 70.0767 184.759 71.7637 183.736 73.3559L183.792 73.4128C186.219 72.5408 188.323 71.4793 190.104 70.2283C191.886 68.9772 193.365 67.7072 194.54 66.4183C195.715 65.0914 196.587 63.8214 197.156 62.6083C197.762 61.3572 198.066 60.3336 198.066 59.5375C198.066 59.1584 197.933 58.8361 197.668 58.5708C197.44 58.2675 197.061 58.1158 196.53 58.1158ZM200.83 75.8012C199.995 75.8012 199.142 76.1424 198.271 76.8247C197.399 77.5071 196.584 78.3222 195.825 79.27C195.105 80.1798 194.498 81.1466 194.006 82.1701C193.551 83.1937 193.323 84.0467 193.323 84.7291C193.323 84.9945 193.38 85.2978 193.494 85.639C193.608 85.9423 193.968 86.0939 194.574 86.0939C195.067 86.0939 195.579 85.9233 196.11 85.5821C196.678 85.2409 197.247 84.8049 197.816 84.2742C198.384 83.7434 198.915 83.1558 199.408 82.5113C199.939 81.8669 200.431 81.2224 200.886 80.5779C201.303 79.9713 201.664 79.3648 201.967 78.7582C202.308 78.1516 202.479 77.6398 202.479 77.2228C202.479 76.6921 202.308 76.3319 201.967 76.1424C201.626 75.9149 201.247 75.8012 200.83 75.8012ZM204.014 76.3698C204.241 76.0665 204.469 75.8201 204.696 75.6306C204.924 75.441 205.265 75.3462 205.72 75.3462H206.8C207.104 75.3462 207.255 75.46 207.255 75.6874C207.255 75.7253 207.236 75.7822 207.198 75.858C207.198 75.8959 207.161 75.9907 207.085 76.1424C206.744 76.6731 206.27 77.3555 205.663 78.1895C205.057 79.0236 204.469 79.8955 203.9 80.8054C203.332 81.6773 202.82 82.5113 202.365 83.3075C201.948 84.0657 201.739 84.6533 201.739 85.0703C201.739 85.5252 201.948 85.7527 202.365 85.7527C203.351 85.7527 204.298 85.3357 205.208 84.5017C206.118 83.6297 207.35 82.2839 208.904 80.4642L209.303 80.7485C208.696 81.4688 208.089 82.1891 207.483 82.9094C206.914 83.6297 206.308 84.2742 205.663 84.8428C205.019 85.4115 204.336 85.8854 203.616 86.2645C202.896 86.6057 202.081 86.7763 201.171 86.7763C200.526 86.7763 199.977 86.6626 199.522 86.4351C199.067 86.1697 198.839 85.7337 198.839 85.1272C198.839 84.9376 198.877 84.7102 198.953 84.4448C199.067 84.1415 199.237 83.8193 199.465 83.4781V83.4212C198.479 84.5206 197.512 85.3736 196.565 85.9802C195.655 86.5488 194.631 86.8332 193.494 86.8332C192.356 86.8332 191.579 86.5867 191.162 86.0939C190.783 85.6011 190.594 85.0514 190.594 84.4448C190.594 83.4212 190.878 82.3597 191.447 81.2603C192.053 80.1609 192.83 79.1563 193.778 78.2464C194.726 77.3365 195.787 76.5973 196.963 76.0286C198.138 75.46 199.313 75.1756 200.488 75.1756C201.436 75.1756 202.156 75.3462 202.649 75.6874C203.142 75.9907 203.502 76.3509 203.73 76.7679L204.014 76.3698ZM215.035 90.9275C216.021 90.1314 216.93 89.3542 217.764 88.596C218.636 87.8378 219.47 87.0606 220.267 86.2645C221.063 85.4305 221.878 84.5396 222.712 83.5918C223.546 82.644 224.456 81.6015 225.441 80.4642L225.839 80.7485C224.513 82.3407 223.337 83.7055 222.314 84.8428C221.328 85.9423 220.399 86.909 219.527 87.743C218.655 88.615 217.802 89.3921 216.968 90.0745C216.134 90.7948 215.224 91.553 214.239 92.3492C211.395 97.7704 208.628 102.414 205.936 106.281C203.245 110.186 200.363 113.465 197.293 116.119C195.966 117.256 194.62 118.166 193.255 118.849C191.853 119.569 190.545 119.929 189.331 119.929C188.384 119.929 187.682 119.664 187.227 119.133C186.773 118.64 186.545 118.015 186.545 117.256C186.545 115.399 187.322 113.409 188.877 111.286C190.393 109.163 192.345 107.021 194.734 104.86C197.084 102.699 199.7 100.595 202.581 98.5475C205.462 96.5004 208.268 94.6238 210.997 92.9178C211.566 92.008 212.04 91.1929 212.419 90.4726C212.836 89.7902 213.234 89.1078 213.613 88.4254C213.992 87.743 214.409 87.0038 214.864 86.2076C215.319 85.4115 215.869 84.4448 216.513 83.3075H216.457C215.471 84.4069 214.466 85.2788 213.443 85.9233C212.419 86.5299 211.395 86.8332 210.372 86.8332C209.235 86.8332 208.457 86.5867 208.04 86.0939C207.661 85.6011 207.472 85.0514 207.472 84.4448C207.472 83.4212 207.756 82.3597 208.325 81.2603C208.931 80.1609 209.708 79.1563 210.656 78.2464C211.604 77.3365 212.665 76.5973 213.841 76.0286C215.016 75.46 216.191 75.1756 217.366 75.1756C218.352 75.1756 219.072 75.3652 219.527 75.7443C219.982 76.0855 220.304 76.4836 220.494 76.9385L220.835 76.4267C221.025 76.1234 221.252 75.877 221.518 75.6874C221.821 75.46 222.181 75.3462 222.598 75.3462H223.451C223.754 75.3462 223.906 75.46 223.906 75.6874C223.906 75.7253 223.887 75.7822 223.849 75.858C223.849 75.9338 223.811 76.0476 223.735 76.1992C222.295 78.7013 220.854 81.1655 219.414 83.5918C218.011 85.9802 216.551 88.4254 215.035 90.9275ZM210.429 94.112C206.145 96.7657 202.638 99.2489 199.909 101.561C197.179 103.874 195.056 105.997 193.54 107.93C191.985 109.902 190.924 111.684 190.355 113.276C189.786 114.868 189.502 116.252 189.502 117.427C189.502 117.882 189.597 118.242 189.786 118.508C189.938 118.811 190.222 118.962 190.639 118.962C191.511 118.962 192.535 118.489 193.71 117.541C194.847 116.593 196.061 115.361 197.35 113.844C198.601 112.366 199.871 110.698 201.16 108.84C202.449 106.983 203.681 105.125 204.856 103.267C206.031 101.448 207.093 99.7228 208.04 98.0926C209.026 96.4625 209.822 95.1356 210.429 94.112ZM217.708 75.8012C216.874 75.8012 216.002 76.1424 215.092 76.8247C214.22 77.5071 213.405 78.3222 212.647 79.27C211.926 80.1798 211.32 81.1466 210.827 82.1701C210.334 83.1937 210.088 84.0467 210.088 84.7291C210.088 84.9945 210.144 85.2978 210.258 85.639C210.372 85.9423 210.732 86.0939 211.339 86.0939C211.831 86.0939 212.362 85.9233 212.931 85.5821C213.537 85.2409 214.125 84.8049 214.694 84.2742C215.262 83.7434 215.812 83.1558 216.343 82.5113C216.911 81.8669 217.423 81.2224 217.878 80.5779C218.295 79.9713 218.655 79.4027 218.959 78.8719C219.262 78.3412 219.414 77.7915 219.414 77.2228C219.376 76.6921 219.186 76.3319 218.845 76.1424C218.504 75.9149 218.125 75.8012 217.708 75.8012ZM236.925 80.8054C236.925 81.4119 236.755 82.0754 236.413 82.7957C236.072 83.516 235.541 84.1794 234.821 84.786C234.101 85.3926 233.21 85.9043 232.148 86.3214C231.087 86.7384 229.817 86.9469 228.338 86.9469C226.86 86.9469 225.798 86.6626 225.154 86.0939C224.509 85.5252 224.187 84.8428 224.187 84.0467C224.187 83.5539 224.396 82.9094 224.813 82.1133C225.23 81.2792 225.723 80.4452 226.291 79.6112C226.86 78.7392 227.429 77.9242 227.997 77.1659C228.566 76.4077 229.002 75.8201 229.305 75.4031C229.533 75.0998 229.76 74.8723 229.988 74.7207C230.253 74.5312 230.632 74.4364 231.125 74.4364H232.035C232.338 74.4364 232.49 74.5501 232.49 74.7776C232.49 74.8155 232.471 74.8723 232.433 74.9482C232.433 74.9861 232.395 75.0809 232.319 75.2325C230.499 77.9621 229.078 80.0472 228.054 81.4878C227.068 82.9284 226.576 84.0657 226.576 84.8997C226.576 85.3167 226.689 85.6579 226.917 85.9233C227.144 86.1887 227.561 86.3214 228.168 86.3214C228.888 86.3214 229.608 86.1697 230.329 85.8664C231.049 85.5632 231.693 85.1651 232.262 84.6723C232.869 84.1415 233.343 83.5539 233.684 82.9094C234.063 82.2649 234.252 81.6015 234.252 80.9191C234.252 80.4642 234.063 80.0472 233.684 79.668C233.305 79.2889 232.565 79.0804 231.466 79.0425L231.523 78.4739C232.129 78.3601 232.717 78.3033 233.286 78.3033C234.309 78.3033 235.162 78.5118 235.845 78.9288C236.565 79.3079 236.925 79.9334 236.925 80.8054ZM241.426 86.89C240.212 86.89 239.322 86.6626 238.753 86.2076C238.222 85.7527 237.957 85.1082 237.957 84.2742C237.957 83.3643 238.241 82.3787 238.81 81.3172C239.378 80.2178 240.137 79.2131 241.084 78.3033C242.032 77.3934 243.132 76.6352 244.383 76.0286C245.672 75.4221 246.998 75.1188 248.363 75.1188L248.249 75.6874C247.453 75.7253 246.6 76.0665 245.691 76.711C244.819 77.3176 244.004 78.0948 243.245 79.0425C242.525 79.9524 241.918 80.9381 241.426 81.9996C240.933 83.0231 240.667 83.9899 240.629 84.8997C240.629 85.2409 240.724 85.5632 240.914 85.8664C241.103 86.1697 241.501 86.3214 242.108 86.3214C242.866 86.3214 243.7 85.9991 244.61 85.3546C245.52 84.6723 246.373 83.7434 247.169 82.5682C247.965 81.3551 248.629 79.9334 249.159 78.3033C249.69 76.6352 249.955 74.8344 249.955 72.901C249.955 72.1807 249.918 71.3277 249.842 70.342C249.804 69.3184 249.747 68.2949 249.671 67.2713C249.633 66.2477 249.576 65.262 249.501 64.3142C249.463 63.3665 249.444 62.5514 249.444 61.869C249.444 59.8597 249.709 58.1348 250.24 56.6942C250.808 55.2157 251.548 53.9836 252.458 52.9979C253.405 51.9743 254.505 51.1403 255.756 50.4958C257.007 49.8513 258.315 49.3395 259.68 48.9604C261.082 48.5434 262.523 48.2401 264.001 48.0506C265.48 47.8231 266.92 47.6336 268.323 47.4819C269.726 47.3303 271.166 47.1597 272.645 46.9701C274.124 46.7427 275.564 46.4583 276.967 46.1171C278.37 45.738 279.677 45.2831 280.891 44.7523C282.142 44.2216 283.222 43.5771 284.132 42.8189C285.08 42.0607 285.819 41.1698 286.35 40.1462C286.918 39.0847 287.203 37.8716 287.203 36.5068C287.203 35.8623 287.108 35.2747 286.918 34.7439L287.373 34.4596C287.752 34.9904 288.018 35.5401 288.169 36.1087C288.321 36.6395 288.397 37.1702 288.397 37.701C288.397 39.2553 287.847 40.6011 286.748 41.7384C285.686 42.8758 284.246 43.8614 282.426 44.6955C280.606 45.4916 278.483 46.155 276.057 46.6858C273.631 47.2165 271.053 47.6336 268.323 47.9368C267.262 48.0506 266.105 48.1833 264.854 48.3349C263.641 48.4865 262.428 48.714 261.215 49.0173C260.002 49.3206 258.827 49.7376 257.689 50.2683C256.552 50.7991 255.547 51.5194 254.675 52.4292C253.803 53.3012 253.102 54.3816 252.571 55.6706C252.078 56.9217 251.832 58.457 251.832 60.2768C251.832 62.9684 251.927 65.281 252.116 67.2144C252.306 69.1478 252.401 70.8349 252.401 72.2755C252.401 74.5501 252.06 76.5973 251.377 78.417C250.695 80.1988 249.823 81.7152 248.761 82.9663C247.7 84.2173 246.506 85.184 245.179 85.8664C243.89 86.5488 242.639 86.89 241.426 86.89ZM267.589 83.0231C264.556 88.0273 261.675 92.7851 258.946 97.2965C256.216 101.846 253.524 106.452 250.871 111.115C250.302 112.139 249.733 113.162 249.165 114.186C248.558 115.209 248.179 116.043 248.027 116.688C247.952 117.067 247.914 117.294 247.914 117.37C247.914 117.787 248.065 117.996 248.369 117.996C248.558 117.996 248.748 117.939 248.937 117.825C249.127 117.711 249.373 117.484 249.676 117.143C249.942 116.802 250.264 116.328 250.643 115.721C251.022 115.114 251.496 114.318 252.065 113.333C252.785 112.082 253.619 110.584 254.567 108.84C255.553 107.134 256.614 105.277 257.751 103.267C258.889 101.258 260.102 99.1731 261.391 97.0122C262.68 94.8892 263.988 92.7851 265.315 90.7C266.641 88.615 267.987 86.6246 269.352 84.7291C270.717 82.8336 272.063 81.1466 273.39 79.668L273.731 80.0092C272.48 81.4119 271.191 83.0421 269.864 84.8997C268.537 86.7194 267.21 88.6529 265.883 90.7C264.556 92.7851 263.248 94.9081 261.96 97.069C260.671 99.2299 259.438 101.334 258.263 103.381C257.126 105.466 256.045 107.438 255.022 109.295C253.998 111.153 253.107 112.783 252.349 114.186C251.439 115.854 250.567 117.256 249.733 118.394C248.861 119.531 247.838 120.1 246.663 120.1C246.018 120.1 245.582 119.91 245.355 119.531C245.127 119.152 245.013 118.716 245.013 118.223C245.013 117.351 245.355 116.233 246.037 114.868C246.682 113.541 247.383 112.176 248.141 110.774C249.43 108.385 250.738 106.016 252.065 103.665C253.43 101.315 254.851 98.9077 256.33 96.4435C257.808 93.9793 259.382 91.4014 261.05 88.7097C262.718 86.0181 264.518 83.1558 266.452 80.123L266.395 80.0661C265.637 80.9001 264.822 81.7152 263.95 82.5113C263.078 83.3075 262.206 84.0278 261.334 84.6723C260.5 85.2788 259.685 85.7717 258.889 86.1508C258.131 86.5299 257.486 86.7194 256.955 86.7194C255.704 86.7194 255.079 86.2266 255.079 85.2409C255.079 84.7102 255.23 84.1984 255.534 83.7055C255.837 83.2127 256.216 82.644 256.671 81.9996C257.012 81.5067 257.372 81.0139 257.751 80.521C258.131 80.0282 258.472 79.5543 258.775 79.0994C259.116 78.6065 259.382 78.1706 259.571 77.7915C259.761 77.3745 259.855 77.0143 259.855 76.711C259.855 76.294 259.647 76.0855 259.23 76.0855C258.548 76.0855 257.714 76.5783 256.728 77.564C255.742 78.5118 254.7 79.6112 253.6 80.8622L253.145 80.6348C254.472 79.0804 255.723 77.7725 256.898 76.711C258.074 75.6116 259.249 75.0619 260.424 75.0619C261.182 75.0619 261.732 75.2135 262.073 75.5168C262.452 75.8201 262.642 76.2371 262.642 76.7679C262.642 77.4882 262.377 78.2843 261.846 79.1563C261.353 80.0282 260.803 80.8622 260.197 81.6584C259.628 82.4545 259.078 83.1937 258.548 83.8761C258.055 84.5206 257.808 85.0134 257.808 85.3546C257.808 85.5821 257.922 85.6958 258.15 85.6958C258.794 85.6958 259.628 85.3167 260.652 84.5585C261.675 83.8003 262.718 82.9094 263.779 81.8858C264.841 80.8622 265.826 79.8386 266.736 78.8151C267.684 77.7536 268.385 76.9195 268.84 76.313C269.068 76.0097 269.295 75.7822 269.523 75.6306C269.75 75.441 270.11 75.3462 270.603 75.3462H271.513C271.816 75.3462 271.968 75.46 271.968 75.6874C271.968 75.7253 271.949 75.7822 271.911 75.858C271.911 75.8959 271.873 75.9907 271.797 76.1424L267.589 83.0231Z" fill="#FFFDF5"></path><path d="M182.736 23.0468H182.868C182.992 23.0468 183.108 22.9936 183.214 22.8873C183.32 22.781 183.409 22.657 183.48 22.5153C183.568 22.3735 183.63 22.2229 183.666 22.0635C183.701 21.8863 183.719 21.7269 183.719 21.5852V7.44754C183.719 7.32353 183.701 7.1818 183.666 7.02235C183.63 6.8629 183.568 6.71231 183.48 6.57058C183.409 6.41114 183.311 6.28712 183.187 6.19854C183.081 6.09224 182.957 6.03909 182.815 6.03909H182.682V5.77335H187.041C188.688 5.77335 189.973 6.13653 190.894 6.8629C191.833 7.58927 192.302 8.55481 192.302 9.75952C192.302 10.2733 192.214 10.7339 192.037 11.1414C191.859 11.5489 191.629 11.9121 191.346 12.2309C191.08 12.5498 190.788 12.8244 190.469 13.0548C190.15 13.2673 189.849 13.4445 189.565 13.5862C190.309 13.728 190.929 13.9671 191.425 14.3038C191.921 14.6404 192.32 15.0301 192.621 15.473C192.94 15.8982 193.162 16.3588 193.286 16.8549C193.41 17.351 193.472 17.8382 193.472 18.3165C193.472 19.2377 193.303 20.0173 192.967 20.6551C192.63 21.2751 192.178 21.7889 191.611 22.1964C191.062 22.5861 190.424 22.8696 189.698 23.0468C188.989 23.2239 188.254 23.3125 187.492 23.3125H182.736V23.0468ZM191.665 18.4759C191.523 17.1118 191.062 16.0577 190.283 15.3136C189.503 14.5695 188.405 14.1975 186.987 14.1975H185.499V22.4355H187.041C188.476 22.4355 189.601 22.1166 190.416 21.4789C191.248 20.8234 191.665 19.9198 191.665 18.7683V18.4759ZM190.575 9.99869C190.522 8.97114 190.159 8.15619 189.485 7.55384C188.83 6.95148 187.944 6.65031 186.828 6.65031H185.499V13.3471H186.881C187.625 13.3471 188.228 13.2496 188.688 13.0548C189.167 12.8599 189.547 12.6118 189.831 12.3107C190.114 11.9918 190.309 11.6463 190.416 11.2743C190.522 10.9022 190.575 10.539 190.575 10.1847V9.99869ZM195.79 23.0468H195.923C196.047 23.0468 196.163 23.0025 196.269 22.9139C196.375 22.8076 196.464 22.6836 196.535 22.5418C196.605 22.4001 196.659 22.2495 196.694 22.0901C196.747 21.9306 196.774 21.7889 196.774 21.6649V7.50069C196.774 7.37667 196.756 7.22609 196.721 7.04892C196.685 6.87176 196.623 6.71231 196.535 6.57058C196.464 6.42885 196.375 6.30484 196.269 6.19854C196.163 6.09224 196.047 6.03909 195.923 6.03909H195.79V5.77335H199.537V6.03909H199.351C199.103 6.07453 198.909 6.26941 198.767 6.62373C198.625 6.96034 198.554 7.25266 198.554 7.50069V13.2142H200.042C200.857 13.2142 201.655 13.3028 202.434 13.4799C203.231 13.6394 203.931 13.9229 204.533 14.3303C205.154 14.7201 205.65 15.2427 206.022 15.8982C206.394 16.536 206.58 17.3332 206.58 18.2899C206.58 19.0694 206.42 19.7692 206.101 20.3893C205.782 21.0094 205.348 21.5409 204.799 21.9838C204.25 22.409 203.594 22.7367 202.833 22.967C202.089 23.1973 201.283 23.3125 200.414 23.3125H195.79V23.0468ZM198.953 22.3824C201.008 22.3824 202.478 22.0281 203.364 21.3194C204.268 20.6108 204.719 19.6364 204.719 18.3962C204.719 17.1384 204.268 16.1108 203.364 15.3136C202.478 14.5163 201.167 14.1177 199.431 14.1177H198.554V22.3824H198.953ZM208.36 5.77335H212.107V6.03909H211.895C211.771 6.05681 211.655 6.11882 211.549 6.22512C211.461 6.33141 211.381 6.45543 211.31 6.59716C211.257 6.72117 211.213 6.8629 211.177 7.02235C211.142 7.16408 211.124 7.29695 211.124 7.42097V21.5852C211.124 21.7269 211.142 21.8775 211.177 22.0369C211.213 22.1964 211.266 22.3558 211.337 22.5153C211.407 22.657 211.487 22.781 211.576 22.8873C211.682 22.9759 211.797 23.029 211.921 23.0468H212.107V23.3125H208.36V23.0468H208.493C208.635 23.0468 208.759 23.0025 208.865 22.9139C208.971 22.8076 209.06 22.6836 209.131 22.5418C209.202 22.3824 209.255 22.2229 209.29 22.0635C209.326 21.8863 209.343 21.7269 209.343 21.5852V7.42097C209.343 7.29695 209.326 7.15522 209.29 6.99577C209.255 6.83633 209.202 6.68574 209.131 6.54401C209.06 6.40228 208.971 6.28712 208.865 6.19854C208.759 6.09224 208.635 6.03909 208.493 6.03909H208.36V5.77335ZM120.452 52.0468H120.584C120.726 52.0468 120.85 52.0025 120.957 51.9139C121.063 51.8076 121.151 51.6836 121.222 51.5418C121.293 51.3824 121.346 51.2229 121.382 51.0635C121.417 50.8863 121.435 50.7269 121.435 50.5852V36.421C121.435 36.297 121.408 36.1552 121.355 35.9958C121.32 35.8363 121.267 35.6857 121.196 35.544C121.125 35.4023 121.036 35.2871 120.93 35.1985C120.824 35.0922 120.709 35.0391 120.584 35.0391H120.452V34.7733H134.058V35.0391H133.845C133.721 35.0391 133.615 35.0922 133.526 35.1985C133.438 35.2871 133.358 35.4111 133.287 35.5706C133.234 35.7123 133.19 35.8629 133.154 36.0223C133.119 36.1818 133.101 36.3147 133.101 36.421V50.5852C133.101 50.7269 133.11 50.8775 133.128 51.0369C133.163 51.1964 133.207 51.3558 133.261 51.5153C133.331 51.657 133.411 51.781 133.5 51.8873C133.606 51.9936 133.721 52.0468 133.845 52.0468H134.058V52.3125H130.337V52.0468H130.576C130.701 52.0468 130.807 51.9936 130.895 51.8873C131.002 51.781 131.081 51.657 131.135 51.5153C131.205 51.3735 131.25 51.2229 131.267 51.0635C131.303 50.8863 131.321 50.7269 131.321 50.5852V35.7035H123.215V50.5852C123.215 50.7269 123.233 50.8863 123.269 51.0635C123.304 51.2229 123.348 51.3735 123.401 51.5153C123.472 51.657 123.561 51.781 123.667 51.8873C123.773 51.9936 123.897 52.0468 124.039 52.0468H124.172V52.3125H120.452V52.0468ZM136.567 34.7733H140.341C142.307 34.7733 143.795 35.1542 144.805 35.9161C145.833 36.6601 146.346 37.7231 146.346 39.105C146.346 39.8491 146.169 40.5134 145.815 41.0981C145.461 41.6827 144.991 42.1788 144.406 42.5862C143.84 42.976 143.193 43.2772 142.466 43.4898C141.758 43.7024 141.049 43.8087 140.341 43.8087H139.331V50.5852C139.331 50.7269 139.348 50.8863 139.384 51.0635C139.419 51.2229 139.472 51.3735 139.543 51.5153C139.632 51.657 139.72 51.781 139.809 51.8873C139.915 51.9936 140.039 52.0468 140.181 52.0468H140.314V52.3125H136.567V52.0468H136.7C136.824 52.0468 136.939 51.9936 137.045 51.8873C137.152 51.781 137.24 51.657 137.311 51.5153C137.382 51.3735 137.435 51.2229 137.47 51.0635C137.506 50.8863 137.524 50.7269 137.524 50.5852V36.421C137.524 36.1729 137.453 35.8895 137.311 35.5706C137.169 35.2517 136.966 35.0745 136.7 35.0391H136.567V34.7733ZM139.331 35.7035V42.8786H140.128C140.837 42.8786 141.466 42.7811 142.015 42.5862C142.582 42.3914 143.051 42.1345 143.423 41.8156C143.795 41.4967 144.079 41.1335 144.274 40.726C144.468 40.3186 144.566 39.9022 144.566 39.477C144.566 38.9633 144.477 38.4849 144.3 38.042C144.141 37.5814 143.866 37.1828 143.476 36.8462C143.104 36.4918 142.608 36.2172 141.988 36.0223C141.368 35.8098 140.606 35.7035 139.703 35.7035H139.331ZM159.186 52.0468H159.319C159.46 52.0468 159.584 52.0025 159.691 51.9139C159.797 51.8076 159.886 51.6836 159.956 51.5418C160.045 51.3824 160.107 51.2229 160.142 51.0635C160.178 50.8863 160.196 50.7269 160.196 50.5852V38.4141L151.373 50.346V50.5852C151.373 50.7269 151.391 50.8863 151.426 51.0635C151.479 51.2229 151.541 51.3735 151.612 51.5153C151.683 51.657 151.772 51.781 151.878 51.8873C151.984 51.9936 152.108 52.0468 152.25 52.0468H152.383V52.3125H148.609V52.0468H148.742C148.884 52.0468 149.008 52.0025 149.114 51.9139C149.22 51.8076 149.309 51.6836 149.38 51.5418C149.468 51.3824 149.53 51.2229 149.566 51.0635C149.601 50.8863 149.619 50.7269 149.619 50.5852V36.421C149.619 36.297 149.601 36.1552 149.566 35.9958C149.53 35.8363 149.468 35.6857 149.38 35.544C149.309 35.4023 149.22 35.2871 149.114 35.1985C149.008 35.0922 148.884 35.0391 148.742 35.0391H148.609V34.7733H152.383V35.0391H152.17C152.046 35.0568 151.931 35.1188 151.825 35.2251C151.736 35.3314 151.656 35.4554 151.585 35.5972C151.515 35.7212 151.461 35.8629 151.426 36.0223C151.391 36.1641 151.373 36.297 151.373 36.421V48.6984L160.196 36.7664V36.421C160.196 36.297 160.178 36.1552 160.142 35.9958C160.107 35.8363 160.045 35.6857 159.956 35.544C159.886 35.4023 159.797 35.2871 159.691 35.1985C159.584 35.0922 159.46 35.0391 159.319 35.0391H159.186V34.7733H162.959V35.0391H162.826C162.685 35.0391 162.561 35.0922 162.454 35.1985C162.348 35.2871 162.26 35.4023 162.189 35.544C162.118 35.6857 162.056 35.8363 162.003 35.9958C161.967 36.1552 161.95 36.297 161.95 36.421V50.5852C161.95 50.7269 161.967 50.8775 162.003 51.0369C162.056 51.1964 162.118 51.3558 162.189 51.5153C162.26 51.657 162.348 51.781 162.454 51.8873C162.561 51.9936 162.685 52.0468 162.826 52.0468H162.959V52.3125H159.186V52.0468ZM169.172 52.0468H169.304V52.3125H165.478V52.0468H165.611C165.752 52.0468 165.876 52.0025 165.983 51.9139C166.089 51.8076 166.177 51.6836 166.248 51.5418C166.337 51.4001 166.399 51.2495 166.434 51.0901C166.47 50.9306 166.488 50.78 166.488 50.6383V36.421C166.488 36.297 166.47 36.1552 166.434 35.9958C166.399 35.8363 166.337 35.6857 166.248 35.544C166.177 35.4023 166.089 35.2871 165.983 35.1985C165.876 35.0922 165.752 35.0391 165.611 35.0391H165.478V34.7733H175.709V37.5902H175.443C175.443 36.9525 175.301 36.483 175.018 36.1818C174.752 35.8629 174.327 35.7035 173.742 35.7035H168.295V50.6383C168.295 50.78 168.312 50.9306 168.348 51.0901C168.383 51.2495 168.436 51.4001 168.507 51.5418C168.596 51.6836 168.693 51.8076 168.8 51.9139C168.906 52.0025 169.03 52.0468 169.172 52.0468ZM175.444 50.4523C175.285 50.9129 175.037 51.3381 174.7 51.7279C174.363 52.1176 173.867 52.3125 173.212 52.3125H172.388V52.0468C172.494 52.0468 172.636 52.0202 172.813 51.967C172.99 51.8962 173.176 51.7899 173.371 51.6481C173.566 51.5064 173.761 51.3292 173.956 51.1166C174.151 50.8863 174.319 50.6029 174.461 50.2663L179.483 36.5007C179.572 36.2349 179.616 36.0312 179.616 35.8895C179.616 35.6237 179.537 35.42 179.377 35.2783C179.235 35.1188 179.085 35.0391 178.925 35.0391V34.7733H181.105L187.057 51.0369C187.146 51.285 187.314 51.5153 187.562 51.7279C187.81 51.9227 188.085 52.029 188.386 52.0468V52.3125H184.586V52.0468C184.728 52.0468 184.869 51.9936 185.011 51.8873C185.17 51.7633 185.25 51.6038 185.25 51.409C185.25 51.3558 185.232 51.2761 185.197 51.1698L180.201 37.4042L175.444 50.4523ZM200.517 52.0468H200.65C201.075 52.0468 201.287 51.8519 201.287 51.4621C201.287 51.3204 201.261 51.1698 201.208 51.0104L198.816 44.5528H194.165L191.853 50.9041C191.8 51.0458 191.774 51.1787 191.774 51.3027C191.774 51.533 191.836 51.719 191.96 51.8607C192.084 51.9847 192.217 52.0468 192.358 52.0468H192.491V52.3125H189.542V52.0468H189.674C189.905 52.0468 190.126 51.9139 190.339 51.6481C190.569 51.3647 190.755 51.0369 190.897 50.6649L196.982 34.4545L202.935 50.5054C203.059 50.8598 203.227 51.2052 203.44 51.5418C203.67 51.8785 203.963 52.0468 204.317 52.0468H204.45V52.3125H200.517V52.0468ZM194.431 43.6492H198.524L196.477 38.0952L194.431 43.6492ZM214.225 34.7733H217.866V35.0391H217.733C217.591 35.0391 217.467 35.0922 217.361 35.1985C217.255 35.2871 217.166 35.4023 217.095 35.544C217.042 35.6857 216.998 35.8363 216.962 35.9958C216.927 36.1375 216.909 36.2615 216.909 36.3678V51.3558H223.287V36.5007C223.287 36.3767 223.269 36.2349 223.234 36.0755C223.216 35.8983 223.181 35.7389 223.127 35.5972C223.074 35.4554 222.995 35.3314 222.888 35.2251C222.8 35.1188 222.685 35.0568 222.543 35.0391H222.357V34.7733H225.998V35.0391H225.865C225.705 35.0391 225.572 35.0922 225.466 35.1985C225.377 35.3048 225.298 35.4289 225.227 35.5706C225.156 35.7123 225.103 35.8718 225.067 36.0489C225.05 36.2261 225.041 36.3767 225.041 36.5007V50.6649C225.041 50.7889 225.059 50.9306 225.094 51.0901C225.147 51.2495 225.209 51.4001 225.28 51.5418C225.351 51.6836 225.431 51.8076 225.519 51.9139C225.625 52.0025 225.741 52.0468 225.865 52.0468H225.998V52.3125H206.067V52.0468H206.2C206.324 52.0468 206.439 52.0025 206.545 51.9139C206.651 51.8076 206.74 51.6836 206.811 51.5418C206.882 51.4001 206.935 51.2495 206.97 51.0901C207.006 50.9306 207.023 50.7889 207.023 50.6649V36.5007C207.023 36.3767 207.006 36.2261 206.97 36.0489C206.952 35.8718 206.908 35.7123 206.837 35.5706C206.766 35.4289 206.678 35.3048 206.572 35.1985C206.483 35.0922 206.359 35.0391 206.2 35.0391H206.067V34.7733H209.707V35.0391H209.521C209.38 35.0568 209.256 35.1188 209.149 35.2251C209.061 35.3314 208.99 35.4554 208.937 35.5972C208.884 35.7389 208.839 35.8983 208.804 36.0755C208.786 36.2349 208.777 36.3767 208.777 36.5007V51.3558H215.155V36.5007C215.155 36.3767 215.137 36.2261 215.102 36.0489C215.067 35.8718 215.013 35.7123 214.943 35.5706C214.889 35.4289 214.81 35.3048 214.703 35.1985C214.597 35.0922 214.482 35.0391 214.358 35.0391H214.225V34.7733ZM228.592 52.0468H228.725C228.867 52.0468 228.991 52.0025 229.097 51.9139C229.203 51.8076 229.292 51.6836 229.363 51.5418C229.451 51.4001 229.513 51.2495 229.549 51.0901C229.602 50.9306 229.628 50.78 229.628 50.6383V36.421C229.628 36.297 229.602 36.1552 229.549 35.9958C229.513 35.8363 229.451 35.6857 229.363 35.544C229.292 35.4023 229.203 35.2871 229.097 35.1985C228.991 35.0922 228.867 35.0391 228.725 35.0391H228.592V34.7733H238.823V37.2448H238.557C238.522 36.8373 238.363 36.483 238.079 36.1818C237.796 35.8629 237.353 35.7035 236.75 35.7035H231.409V42.4268H235.82C236.228 42.4268 236.564 42.3028 236.83 42.0548C237.114 41.8067 237.255 41.5144 237.255 41.1778H237.521V44.4996H237.255C237.255 44.1807 237.122 43.9061 236.857 43.6758C236.591 43.4455 236.246 43.3303 235.82 43.3303H231.409V51.3824H237.229C237.565 51.3824 237.858 51.3027 238.106 51.1432C238.354 50.9838 238.557 50.7978 238.717 50.5852C238.894 50.3548 239.018 50.1157 239.089 49.8676C239.178 49.6019 239.222 49.3804 239.222 49.2033H239.488V52.3125H228.592V52.0468ZM252.093 52.0468H252.226C252.35 52.0468 252.465 52.0025 252.572 51.9139C252.678 51.8076 252.766 51.6836 252.837 51.5418C252.926 51.3824 252.988 51.2229 253.023 51.0635C253.059 50.8863 253.076 50.7269 253.076 50.5852V43.3569H244.573V50.5852C244.573 50.7269 244.59 50.8863 244.626 51.0635C244.661 51.2229 244.714 51.3735 244.785 51.5153C244.856 51.657 244.936 51.781 245.024 51.8873C245.131 51.9936 245.255 52.0468 245.396 52.0468H245.529V52.3125H241.809V52.0468H241.942C242.066 52.0468 242.181 52.0025 242.287 51.9139C242.394 51.8076 242.482 51.6836 242.553 51.5418C242.642 51.3824 242.704 51.2229 242.739 51.0635C242.774 50.8863 242.792 50.7269 242.792 50.5852V36.421C242.792 36.297 242.774 36.1552 242.739 35.9958C242.704 35.8363 242.65 35.6857 242.58 35.544C242.509 35.4023 242.42 35.2871 242.314 35.1985C242.208 35.0922 242.084 35.0391 241.942 35.0391H241.809V34.7733H245.529V35.0391H245.396C245.255 35.0391 245.131 35.0922 245.024 35.1985C244.918 35.2871 244.83 35.4023 244.759 35.544C244.706 35.6857 244.661 35.8363 244.626 35.9958C244.59 36.1552 244.573 36.297 244.573 36.421V42.4268H253.076V36.421C253.076 36.297 253.059 36.1552 253.023 35.9958C252.988 35.8363 252.935 35.6857 252.864 35.544C252.793 35.4023 252.704 35.2871 252.598 35.1985C252.492 35.0922 252.368 35.0391 252.226 35.0391H252.093V34.7733H255.814V35.0391H255.681C255.539 35.0391 255.415 35.0922 255.309 35.1985C255.202 35.2871 255.114 35.4023 255.043 35.544C254.99 35.6857 254.946 35.8363 254.91 35.9958C254.875 36.1552 254.857 36.297 254.857 36.421V50.5852C254.857 50.7269 254.875 50.8863 254.91 51.0635C254.963 51.2229 255.025 51.3735 255.096 51.5153C255.167 51.657 255.247 51.781 255.335 51.8873C255.442 51.9936 255.557 52.0468 255.681 52.0468H255.814V52.3125H252.093V52.0468ZM258.074 52.0468H258.207C258.331 52.0468 258.446 52.0025 258.553 51.9139C258.659 51.8076 258.748 51.6836 258.818 51.5418C258.889 51.4001 258.942 51.2495 258.978 51.0901C259.031 50.9306 259.058 50.7889 259.058 50.6649V36.5007C259.058 36.3767 259.04 36.2261 259.004 36.0489C258.969 35.8718 258.907 35.7123 258.818 35.5706C258.748 35.4289 258.659 35.3048 258.553 35.1985C258.446 35.0922 258.331 35.0391 258.207 35.0391H258.074V34.7733H261.821V35.0391H261.635C261.387 35.0745 261.192 35.2694 261.051 35.6237C260.909 35.9603 260.838 36.2527 260.838 36.5007V42.2142H262.326C263.141 42.2142 263.938 42.3028 264.718 42.4799C265.515 42.6394 266.215 42.9229 266.817 43.3303C267.437 43.7201 267.933 44.2427 268.306 44.8982C268.678 45.536 268.864 46.3332 268.864 47.2899C268.864 48.0694 268.704 48.7692 268.385 49.3893C268.066 50.0094 267.632 50.5409 267.083 50.9838C266.534 51.409 265.878 51.7367 265.117 51.967C264.373 52.1973 263.566 52.3125 262.698 52.3125H258.074V52.0468ZM261.237 51.3824C263.292 51.3824 264.762 51.0281 265.648 50.3194C266.552 49.6108 267.003 48.6364 267.003 47.3962C267.003 46.1384 266.552 45.1108 265.648 44.3136C264.762 43.5163 263.451 43.1177 261.715 43.1177H260.838V51.3824H261.237ZM270.644 34.7733H274.391V35.0391H274.178C274.054 35.0568 273.939 35.1188 273.833 35.2251C273.744 35.3314 273.665 35.4554 273.594 35.5972C273.541 35.7212 273.496 35.8629 273.461 36.0223C273.426 36.1641 273.408 36.297 273.408 36.421V50.5852C273.408 50.7269 273.426 50.8775 273.461 51.0369C273.496 51.1964 273.55 51.3558 273.62 51.5153C273.691 51.657 273.771 51.781 273.86 51.8873C273.966 51.9759 274.081 52.029 274.205 52.0468H274.391V52.3125H270.644V52.0468H270.777C270.919 52.0468 271.043 52.0025 271.149 51.9139C271.255 51.8076 271.344 51.6836 271.415 51.5418C271.486 51.3824 271.539 51.2229 271.574 51.0635C271.61 50.8863 271.627 50.7269 271.627 50.5852V36.421C271.627 36.297 271.61 36.1552 271.574 35.9958C271.539 35.8363 271.486 35.6857 271.415 35.544C271.344 35.4023 271.255 35.2871 271.149 35.1985C271.043 35.0922 270.919 35.0391 270.777 35.0391H270.644V34.7733Z" fill="#FFFDF5"></path></svg> 