<?xml version="1.0" encoding="UTF-8"?> <svg xmlns="http://www.w3.org/2000/svg" width="391" height="422" viewBox="0 0 391 422" fill="none"><path fill-rule="evenodd" clip-rule="evenodd" d="M390.639 0.858398H0.638672V399.163C1.66506 398.841 3.7472 399.31 4.86157 401.744C5.74134 399.134 10.4041 392.829 11.0493 398.929C11.5771 398.049 16.7091 394.764 17.9408 396.905C18.3278 396.399 19.6596 396.452 20.9692 396.504C22.2393 396.555 23.4887 396.605 23.8352 396.143C24.1578 396.524 31.2838 392.712 31.2838 392.33C31.2838 391.726 32.5065 392.845 33.857 394.08C35.523 395.604 37.3836 397.306 37.3836 396.172C37.3836 392.878 40.5859 397.701 42.0963 399.975C42.5624 400.677 42.8674 401.137 42.8674 401.04C42.8674 400.805 49.5536 400.102 49.5536 400.805C49.5536 400.904 50.656 401.024 51.9301 401.163C53.6746 401.353 55.7413 401.578 55.7413 401.832C55.7413 400.805 62.0463 404.148 62.0463 405.087C62.0463 405.146 67.9994 400.102 67.9994 399.632C67.9994 405.204 74.7443 402.037 74.7443 401.714C74.7443 401.626 80.9906 398.283 80.9906 400.131C80.9906 399.927 82.2097 399.179 83.5163 398.378C85.025 397.453 86.6504 396.457 86.6504 396.143C86.6504 395.468 93.2193 390.776 93.2193 394.559C93.2193 395.957 95.0607 393.836 96.7486 391.891C98.1767 390.246 99.495 388.727 99.495 389.574C99.495 390.366 106.885 395.644 106.885 392.888C106.885 392.184 112.809 389.486 112.809 391.656C112.809 394.041 115.251 391.674 117.007 389.973C117.993 389.018 118.762 388.272 118.762 388.694C118.762 389.427 124.774 392.477 124.774 391.363C124.774 392.569 126.132 391.355 127.563 390.075C129.158 388.649 130.844 387.142 130.844 388.811C130.844 388.921 131.87 389.03 133.073 389.158C134.773 389.339 136.826 389.558 136.826 389.867C136.826 390.812 138.402 391.099 139.916 391.376C141.315 391.631 142.662 391.877 142.662 392.624C142.662 392.941 143.771 392.896 145.029 392.845C146.679 392.777 148.586 392.7 148.586 393.415C148.586 392.431 151.387 392.174 153.228 392.004C154.131 391.921 154.803 391.86 154.803 391.744C154.803 394.148 160.756 393.885 160.756 392.536C160.756 391.855 161.984 392.469 163.322 393.137C164.922 393.937 166.68 394.816 166.68 393.65C166.68 394.742 170.035 395.835 171.538 396.324C171.972 396.465 172.252 396.556 172.252 396.583C172.252 396.905 178.087 399.28 178.087 397.785C178.087 400.131 183.659 401.04 183.659 400.717C183.659 400.914 184.605 400.887 185.749 400.854C187.505 400.804 189.73 400.74 189.73 401.451C189.73 400.048 191.535 400.608 193.227 401.133C194.719 401.596 196.123 402.031 196.123 401.069C196.123 401.774 197.524 402.379 198.895 402.97C200.206 403.536 201.489 404.089 201.489 404.706C201.489 402.729 204.007 402.781 206.012 402.823C207.338 402.85 208.439 402.873 208.439 402.301C208.439 402.427 208.929 402.344 209.629 402.227C211.381 401.932 214.451 401.416 214.451 403.386C214.451 399.251 219.554 405.879 219.554 408.049C219.554 411.321 222.605 410.06 224.371 409.331C225.089 409.034 225.595 408.825 225.595 409.046C225.595 409.273 226.171 408.877 226.98 408.32C228.892 407.006 232.105 404.798 232.105 407.785C232.105 409.251 237.647 414.119 237.647 411.069C237.647 411.128 243.63 413.415 243.63 412.213C243.63 409.91 245.349 410.817 246.974 411.674C248.433 412.444 249.818 413.174 249.818 411.509C249.818 411.363 255.419 415.468 255.419 417.433C255.419 421.656 261.782 416.084 261.782 413.562C261.782 413.872 262.661 414.203 263.754 414.615C265.556 415.294 267.941 416.193 267.941 417.58C267.941 416.658 270.085 416.293 271.83 415.996C273.029 415.792 274.04 415.62 274.04 415.322C274.04 413.81 276.164 414.361 277.923 414.818C279.166 415.141 280.228 415.416 280.228 414.882C280.228 412.552 284.043 412.092 285.55 411.91C285.921 411.865 286.152 411.837 286.152 411.802C286.152 413.826 292.516 410.453 292.516 409.515C292.516 409.824 293.774 410.077 295.184 410.36C296.981 410.722 299.026 411.132 299.026 411.773C299.026 411.813 299.29 411.813 299.715 411.813C301.461 411.811 305.917 411.806 305.917 414.588C305.917 418.987 312.779 417.14 312.779 416.465C312.779 413.269 317.384 418.401 317.384 419.104C317.384 421.597 322.633 422.917 322.633 420.307C322.633 414.749 325.598 416.228 326.941 416.898C327.335 417.094 327.589 417.221 327.589 417.081C327.589 415.116 333.982 419.75 333.982 420.131C333.982 423.562 339.583 417.052 339.583 414.53C339.583 413.562 346.093 416.964 346.093 418.782C346.093 417.085 347.926 417.237 349.561 417.373C351.048 417.496 352.372 417.606 351.998 416.295C352.381 417.389 358.494 418.09 358.146 416.465C358.342 416.719 359.172 416.465 360.159 416.163C361.684 415.697 363.583 415.117 364.099 416.113C362.721 410.893 368.762 414.148 370.375 416.964C370.521 415.908 375.917 414.94 376.298 414.999C375.527 414.346 378.948 413.599 380.94 413.165C381.899 412.956 382.527 412.819 382.193 412.8C382.603 412.506 388.322 410.747 388.263 410.923C388.351 413.269 389.436 414.559 390.639 415.146V0.858398ZM351.988 416.26C351.991 416.272 351.995 416.283 351.998 416.295C351.994 416.283 351.99 416.272 351.988 416.26Z" fill="white"></path></svg> 