<?xml version="1.0" encoding="UTF-8"?> <svg xmlns="http://www.w3.org/2000/svg" width="535" height="529" viewBox="0 0 535 529" fill="none"><path d="M209.303 139.122C193.058 139.122 171.58 114.904 158.539 108.793C115.219 88.4956 102.027 121.372 99.8465 137.376C99.7652 137.972 99.7007 138.555 99.652 139.122C98.3133 154.728 117.08 162.171 115.219 179.807C113.177 199.163 99.652 220.35 99.652 234.547M319.486 121.199C352.652 104.185 405.277 95.6873 419.617 112.711C425.356 119.524 426.75 138.022 415.744 155.691C415.744 155.691 391.928 202.567 409.89 224.864C427.851 247.161 413.182 283.873 409.89 295.411L404.823 315.478C402.242 323.724 400.372 343.384 421.744 358.382C448.58 377.214 442.05 433.834 391.963 426.436C384.517 424.217 366.107 417.264 352.028 407.204C337.95 397.143 319.743 397.432 310.08 397.432C296.08 397.432 272.971 409.719 254.561 422.738C236.15 435.757 223.83 411.642 213.272 403.505C206.58 397.432 179.905 388.369 160.477 407.204C146.489 420.765 115.804 441.58 102.945 411.642C97.3591 398.638 93.9389 384.718 108.359 358.382C122.78 332.046 90.768 328.999 115.219 302.423C139.67 275.847 99.652 250.642 99.652 234.369" stroke="#181818" stroke-width="2" stroke-linecap="round" stroke-linejoin="round"></path><g clip-path="url(#clip0_3323_179)"><path fill-rule="evenodd" clip-rule="evenodd" d="M214.405 94.3921C211.466 97.275 209.792 103.308 210.874 107.115C211.297 108.601 210.959 111.325 210.121 113.188C207.653 118.674 207.561 127.745 209.874 137.429C211.835 145.637 212.139 146.261 215.645 149.296C228.069 160.052 234.882 161.336 241.774 154.22C251.089 144.603 254.661 141.047 256.153 139.904C257.689 138.73 257.659 138.676 255.569 138.858C253.52 139.036 247.3 144.446 241.2 151.355C236.504 156.674 227.121 157.204 222.833 152.393C221.43 150.82 221.836 150.293 227.777 145.964C232.585 142.461 236.192 140.677 241.804 139.025C248.772 136.973 249.021 136.82 245.003 137.066C239.663 137.392 233.162 140.193 228.076 144.358C225.973 146.082 223.242 147.778 222.007 148.129C219.93 148.72 219.658 148.402 218.374 143.887C217.529 140.915 217.153 135.383 217.411 129.739C217.725 122.894 217.354 118.803 215.991 114.095L214.147 107.721L217.737 104.496C223.855 99.0032 231.414 99.029 237.993 104.566C239.52 105.85 241.623 109.526 243.586 114.338C247.779 124.62 250.07 128.539 252.764 130.04C254.972 131.271 254.964 131.237 252.235 127.915C250.563 125.878 248.206 121.027 246.293 115.682C241.448 102.144 237.455 98.4652 227.661 98.521C223.271 98.5456 220.534 99.7527 215.296 103.971C213.494 105.423 213.215 102.254 214.871 99.1468C218.09 93.1057 226.209 91.8784 236.289 95.9087C245.466 99.579 247.931 102.323 250.656 111.908C251.906 116.306 253.214 119.524 253.575 119.091C253.934 118.659 253.097 114.546 251.715 109.95C249.508 102.614 248.743 101.164 245.453 98.0741C241.589 94.4465 232.914 90.8219 226.884 90.3159C222.152 89.9199 217.373 91.4799 214.405 94.3921ZM211.303 114.255C207.965 123.513 209.915 141.713 214.801 146.912C216.803 149.042 216.81 149.026 215.696 144.982C215.077 142.739 214.564 136.118 214.557 130.266C214.543 119.766 212.659 110.495 211.303 114.255ZM289.028 92.6888C285.82 95.9828 284.076 99.5217 281.48 108.008C280.241 112.057 278.239 116.962 277.03 118.908C275.821 120.854 275.35 121.932 275.984 121.302C276.618 120.672 277.797 118.98 278.604 117.54C279.412 116.1 280.431 115.145 280.869 115.418C282.172 116.231 279.634 121.007 276.275 124.059C273.578 126.511 273.462 126.824 275.441 126.322C278.32 125.59 280.854 122.382 284.517 114.829C288.693 106.215 294.342 102.985 302.509 104.537C309.163 105.802 309.201 105.925 308.533 123.528C308.306 129.512 308.849 134.443 310.51 141.469C311.82 147.012 312.449 151.6 311.982 152.191C311.533 152.759 309.643 153.663 307.784 154.201C303.22 155.521 298.215 152.716 291.036 144.815C285.291 138.493 279.962 134.916 277.379 135.651C276.564 135.883 277.562 136.669 279.699 137.477C281.761 138.257 285.458 141.002 287.912 143.578C298.947 155.153 302.711 157.293 308.928 155.525C312.664 154.463 312.705 154.484 312.002 157.145C310.568 162.57 306.53 164.608 300.872 162.757C297.026 161.502 294.447 158.861 288.566 150.156C283.701 142.956 278.585 138.573 275.925 139.33C274.13 139.84 274.282 140.063 277.635 141.837C280.012 143.094 282.865 146.041 285.692 150.159C292.194 159.628 294.516 162.142 298.97 164.536C302.564 166.469 303.472 166.516 307.309 164.971C312.028 163.071 314.771 159.268 314.539 154.947C314.463 153.545 315.067 151.698 315.881 150.842C317.782 148.841 320.028 140.68 320.434 134.294C320.61 131.55 320 125.77 319.079 121.451C317.655 114.764 316.929 113.018 314.195 109.706C312.429 107.566 310.431 103.868 309.754 101.487C306.61 90.4295 295.727 85.8097 289.028 92.6888ZM290.476 94.318C287.455 97.2309 286.68 98.6072 283.434 106.835C280.459 114.375 280.182 117.328 282.948 112.015C286.816 104.586 295.461 100.391 303.11 102.233L307.298 103.242L306.294 99.7126C304.249 92.5211 295.454 89.5208 290.476 94.318ZM262.477 124.894C259.647 128.733 259.514 134.424 262.181 137.61C267.136 143.531 272.856 138.018 270.469 129.622C269.683 126.859 268.358 124.509 266.993 123.459L264.786 121.761L262.477 124.894ZM311.348 120.224C311.242 126.12 311.42 132.585 311.742 134.588C312.677 140.394 314.706 148.984 315.115 148.868C315.789 148.676 317.707 143.31 318.363 139.781C319.803 132.042 317.111 116.853 313.44 112.009C311.6 109.581 311.534 109.838 311.348 120.224ZM263.102 126.273C260.584 131.373 262.945 138.666 266.762 137.581C268.95 136.959 269.661 133.709 268.501 129.629C266.812 123.69 264.949 122.531 263.102 126.273ZM265.128 128.82C264.582 129.926 267.024 134.26 267.721 133.421C268.546 132.431 267.232 127.651 266.215 127.94C265.797 128.059 265.308 128.455 265.128 128.82ZM254.222 143.505C251.244 146.734 249.685 150.677 248.13 158.927C247.261 163.541 245.909 168.949 245.126 170.943C243.732 174.497 243.528 174.621 235.184 176.939C228.283 178.856 226.072 179.906 223.531 182.473C219.274 186.772 219.764 187.093 224.636 183.197C228.669 179.971 236.53 177.179 240.204 177.667C241.919 177.894 241.808 178.35 239.291 181.387C236.804 184.388 235.22 185.215 227.359 187.615C216.905 190.809 216.631 190.94 219.992 191.153C227.454 191.625 237.587 186.548 241.92 180.167C243.092 178.44 245.366 175.785 246.972 174.267C250.137 171.275 251.148 169.045 254.84 156.91C256.174 152.529 258.339 147.671 259.652 146.116C261.992 143.342 261.993 143.298 259.718 143.942C256.974 144.717 253.542 151.476 251.965 159.214C251.38 162.079 249.818 166.442 248.494 168.908C246.702 172.247 246.298 172.637 246.913 170.436C247.368 168.81 248.232 164.545 248.833 160.957C250.199 152.809 253.001 145.963 256.092 143.221C257.399 142.061 257.851 141.284 257.098 141.494C256.344 141.702 255.05 142.608 254.222 143.505ZM271.627 143.817C272.139 145.767 272.951 151.086 273.434 155.637C273.916 160.188 274.919 165.046 275.662 166.432C277.538 169.932 281.59 173.375 284.001 173.52C285.179 173.591 286.583 174.787 287.368 176.389C289.863 181.473 304.478 189.989 308.667 188.798C310.905 188.161 309.399 186.85 306.029 186.502C304.176 186.31 300.596 185.077 298.072 183.762C293.533 181.395 287.63 175.817 288.278 174.504C289.236 172.564 298.608 174.995 305.851 179.063C312.029 182.533 313 182.862 310.211 180.54C304.809 176.044 295.954 172.555 289.778 172.492C287.615 172.47 287.375 171.993 283.98 160.972C281.133 151.727 279.808 148.696 277.214 145.494C273.31 140.674 273.437 142.488 277.382 147.873C279.426 150.664 280.903 154.29 282.761 161.08C284.169 166.228 285.139 170.812 284.914 171.266C284.691 171.721 283.181 171.321 281.56 170.377C278.166 168.402 276.319 163.261 274.951 151.983C274.399 147.43 273.608 144.565 272.422 142.816L270.697 140.272L271.627 143.817Z" fill="#181818"></path></g><defs><clipPath id="clip0_3323_179"><rect width="116.332" height="118.227" fill="white" transform="translate(191.986 99.0605) rotate(-15.8718)"></rect></clipPath></defs></svg> 