<?xml version="1.0" encoding="UTF-8"?> <svg xmlns="http://www.w3.org/2000/svg" width="348" height="55" viewBox="0 0 348 55" fill="none"><path d="M5.98484 46.9874C4.06484 46.9874 1.50484 45.8354 0.864836 42.9554C0.480836 42.0594 0.544836 41.0994 0.416836 40.1394L0.672836 39.3714C0.736836 39.1154 0.800836 38.8594 1.12084 38.7954C1.37684 38.6674 1.56884 38.9234 1.56884 39.3074C2.65684 44.2354 4.25684 45.5794 7.20084 45.0034C8.80084 44.6834 10.2728 43.3394 11.1688 42.1234C11.5528 41.6114 11.5528 41.5474 12.1928 40.9074C12.3208 40.3954 12.5768 40.3314 12.8328 39.8194C12.8968 39.5634 12.5768 39.2434 12.7688 38.9874C13.2168 38.2194 13.8568 37.5154 14.5608 36.8114C14.4968 35.4674 15.0728 34.3794 16.2248 33.4194C16.3528 32.2674 17.1208 31.1794 17.5048 30.0914C18.0168 29.1314 18.6568 28.2354 18.9768 27.1474C19.4248 25.6114 20.1288 24.0754 20.6408 22.5394C21.3448 20.3634 21.7928 18.8274 22.1768 16.7794C22.3688 15.8194 22.4328 14.8594 22.7528 13.8994C22.9448 13.1954 23.0728 11.7874 23.0728 11.0834C23.0728 10.3154 23.6488 9.80344 24.4808 9.80344C24.7368 9.73944 25.3768 9.86744 25.8888 10.5074C26.2728 11.2114 26.4648 12.3634 26.6568 13.0674C27.3608 15.6274 27.2968 17.6754 27.6808 20.2994C28.1928 23.8834 28.6408 26.8914 28.8968 30.5394C28.9608 31.0514 29.0248 31.9474 29.0248 32.2674C29.4088 31.6274 29.5368 30.9234 29.9208 30.6034C30.4328 30.1554 30.4328 29.7074 31.4568 29.4514C31.2648 29.9634 30.7528 29.9634 30.3048 30.7954C29.9848 31.3714 29.7288 32.0114 29.4088 32.5874C29.3448 32.8434 29.2808 33.0354 29.4728 33.4194L30.4328 32.2034C31.2008 30.9234 32.2248 29.8994 33.1208 28.7474C33.3128 28.5554 33.6328 28.4274 33.6968 28.2994L34.0168 27.6594C34.7208 26.2514 35.5528 25.0354 36.8328 24.0114C37.1528 23.7554 37.9208 23.3074 38.0488 23.6274L37.1528 24.4594C36.9608 24.6514 36.7688 24.8434 36.7688 25.0354C36.8328 25.6114 36.5128 25.9954 36.0648 26.4434C34.7848 27.9154 33.9528 29.6434 33.1848 31.3074C32.6728 32.4594 31.9048 33.4834 31.3928 34.6994C30.8808 35.9154 30.3048 37.1314 29.9848 38.4114C29.9848 38.6674 29.7928 38.9874 29.5368 39.2434C29.0248 39.5634 28.8968 39.4354 28.3208 39.1794L27.2328 38.6674C26.5928 38.4114 26.3368 38.0274 26.4008 37.4514C26.6568 34.8914 26.4648 32.5234 26.2728 29.5154C25.9528 24.0754 24.9288 16.3314 24.9288 16.3314C24.0968 19.7234 22.6248 25.1634 21.4088 28.1074C20.1928 30.9874 19.0408 33.8674 17.1848 36.5554C17.1208 36.8114 14.4968 40.5874 14.3688 40.8434C14.0488 41.2914 13.4728 41.6114 13.4088 41.3554C13.2168 41.0354 13.6008 40.8434 13.8568 40.5874C13.9848 40.4594 15.2648 38.9874 16.0328 37.7714C16.0328 36.9394 16.0968 36.8754 16.5448 36.1074C16.8648 35.7234 16.9288 35.2114 17.1208 34.8274L16.2248 35.6594C16.0968 35.9154 15.8408 36.1714 15.5208 36.4914C15.3288 36.9394 15.2648 37.4514 15.0088 37.8994C14.5608 38.6674 13.9208 39.3714 13.3448 40.1394C13.2808 40.3314 12.3208 41.7394 12.1288 41.9954C12.1928 42.2514 12.4488 42.2514 12.9608 42.4434C13.0248 42.6994 12.7688 43.5954 11.4888 44.7474C10.9768 45.1954 8.86484 46.9874 5.98484 46.9874ZM47.1368 50.5074C44.8328 50.1874 43.5528 48.5234 42.5928 46.7954C41.1848 44.2354 41.1208 37.5154 41.3768 35.4674L41.9528 31.0514C42.2088 29.9634 42.4648 28.9394 42.7848 27.8514C43.0408 26.5074 43.4888 25.1634 43.8088 23.8194C43.8088 23.5634 44.8968 20.5554 45.4728 18.8914C45.9208 17.9954 46.1768 17.1634 46.5608 16.2674L46.4968 16.2034C45.3448 16.8434 41.1848 20.1074 41.0568 20.4914C40.9928 21.6434 39.7768 21.9634 38.9448 22.8594C38.8168 22.9234 38.7528 23.0514 38.4968 23.1154C38.3688 23.1794 38.1128 23.1794 38.0488 23.1154C37.9208 22.9874 37.8568 22.7314 37.9848 22.6034C38.4968 21.8354 39.2008 21.0674 39.7768 20.2994C40.2248 19.7874 40.8008 19.4034 41.3768 18.9554L46.9448 13.9634C47.2648 13.7714 47.5208 13.5154 47.5208 13.2594C47.6488 12.6194 48.2248 12.2354 48.5448 11.7874C49.3768 10.6354 50.5288 10.5714 51.6808 10.6994C52.7048 10.7634 52.6408 11.5314 52.3848 12.3634C52.2568 12.9394 51.9368 13.4514 51.5528 13.9634C49.3768 17.7394 48.0328 21.7074 46.6248 25.6754C45.5368 28.8114 44.7688 31.9474 44.5128 35.1474C44.3848 36.6194 44.4488 40.1394 44.3848 40.4594C44.0648 42.0594 44.2568 43.4034 44.6408 44.9394C45.2808 47.5634 46.6888 48.4594 47.2648 48.7794C48.8648 49.6754 50.6568 49.1634 50.4648 49.6754C49.5688 50.3154 49.2488 50.8274 47.1368 50.5074ZM42.4008 41.4194C42.5928 40.7154 42.4008 40.2674 42.4008 39.8194C42.4008 38.6034 42.2728 37.3874 42.9128 36.2354C43.2328 36.6194 43.1048 37.1314 43.1048 37.6434C43.1048 37.8354 43.1688 38.0274 43.4888 37.9634C43.7448 36.2994 43.9368 34.5714 44.0648 32.7794C43.4888 33.1634 43.4248 33.6754 43.3608 34.1874C43.2968 34.8914 43.2328 35.5954 42.9128 36.2354C42.8488 35.8514 42.7208 35.4674 42.7208 35.0834C42.9768 33.7394 42.9768 32.3314 43.2968 30.9874C43.4248 30.5394 43.4888 30.0274 43.6168 29.5154C43.6168 29.1314 43.6168 28.7474 43.8088 28.2994C44.2568 27.3394 44.3848 26.3154 44.4488 25.2914C44.1928 25.3554 44.0008 25.4194 43.9368 25.7394C43.8088 26.4434 43.4888 27.0194 43.2328 27.6594C43.1048 27.8514 43.1688 28.0434 43.1048 28.2354C43.1688 28.4274 43.2328 28.6194 43.2328 28.8114L42.8488 31.1154C42.5928 31.9474 42.2728 32.7794 42.4008 33.8034C42.4648 34.3154 42.4008 34.8914 42.3368 35.4674C42.2088 36.4914 42.1448 37.5794 42.1448 38.6034C42.1448 39.4994 42.0808 40.3954 42.4008 41.4194ZM31.4568 29.4514C31.6488 28.5554 32.0968 27.7234 33.0568 27.0834C32.6088 27.9154 32.1608 28.7474 31.4568 29.4514ZM44.7048 29.4514C44.9608 28.7474 45.3448 28.1074 44.7048 27.2114C44.3848 28.5554 44.3848 28.5554 44.7048 29.4514ZM17.1848 34.5714C17.6968 33.9954 18.4648 33.4834 18.5288 32.8434C18.5928 32.1394 18.7848 31.5634 19.1688 30.9874C19.4888 30.4754 19.4888 30.4114 19.1688 29.5794C18.9768 30.1554 18.7848 30.7314 18.5288 31.1794C17.7608 32.2674 17.4408 33.4194 17.1848 34.5714ZM68.4313 41.6114C67.9833 41.6114 67.5353 41.4194 67.0873 41.2274C66.5113 40.9714 66.3833 40.3954 66.3193 39.7554C66.3833 39.4354 66.3833 38.9234 66.4473 38.5394C66.7673 36.5554 67.1513 34.8274 68.0473 32.9714C68.4953 32.2034 68.9433 31.1794 69.2633 30.1554C69.0073 30.0274 68.2393 30.2194 68.1113 30.2834L66.6393 30.8594L64.0153 32.2674C64.2073 32.7154 64.3353 33.6754 64.1433 34.4434C63.9513 35.5314 63.5033 36.3634 62.9913 37.1954C62.7353 37.5154 62.6073 37.7714 62.4153 37.9634H62.3513C62.0953 37.9634 61.8393 38.2194 61.7753 38.4754C61.3913 39.1154 60.7513 39.6274 59.8553 39.9474C59.4073 40.2034 58.8953 40.3954 58.2553 40.3314C56.8473 40.3314 55.2473 39.4994 54.6073 38.2194L54.4793 37.9634C54.7353 37.7714 55.1193 37.6434 55.1193 37.3234C55.1193 35.9154 55.5673 34.5714 55.9513 33.1634C56.0793 32.9714 56.1433 32.7154 56.1433 32.3314C55.5033 32.8434 55.6313 33.2914 55.4393 33.7394C55.2473 34.1874 55.1833 34.5074 54.8633 34.9554C54.6713 34.8914 54.7993 34.7634 54.7993 34.6354C55.3113 32.9074 57.1673 28.5554 58.0633 26.8914C58.3833 26.5074 58.5113 26.0594 58.7673 25.6754C59.0873 25.4194 59.3433 25.1634 59.7913 24.9714C60.1113 24.7794 60.8153 24.7794 61.0713 24.9714C61.4553 25.4194 61.3913 25.9314 61.1993 26.5074C60.1753 28.3634 58.0633 32.9074 57.4233 34.8274C57.0393 35.9794 56.8473 37.1314 56.9113 38.2834C56.9113 38.7314 56.9753 38.9874 57.4233 39.3714C57.5513 39.3074 57.8713 39.2434 58.0633 39.1154C58.4473 38.8594 59.0233 38.7314 59.4073 38.3474C60.7513 37.1314 61.8393 35.7874 62.0313 34.2514C62.1593 33.3554 61.9673 32.5874 60.6233 32.8434C60.4313 32.7794 60.3673 32.5874 60.3673 32.1394C60.4313 31.8194 61.1993 31.6914 61.4553 31.6274C63.1193 31.3074 64.5273 30.6674 66.0633 30.2194C67.0873 29.7714 67.9833 29.3874 69.1353 29.0034C69.7753 28.7474 70.7993 28.3634 71.6313 28.4914C72.3993 28.6194 72.5273 29.0674 72.3993 29.5154C72.0793 30.1554 71.7593 30.8594 71.4393 31.4354C70.2873 33.5474 69.5833 35.2114 69.0713 37.1314C68.8153 38.0914 68.6873 38.9234 69.0073 39.8194C69.1353 39.8834 69.1993 39.8834 69.3273 39.8834C70.0313 39.8834 71.3113 39.4994 72.2073 39.0514C73.4873 38.3474 74.1913 37.9634 74.2553 37.8354C74.9593 37.5154 75.5353 37.1314 75.7273 37.2594H75.7913L75.3433 37.7714C75.1513 37.8354 75.0873 37.8354 75.3433 37.8994C75.2793 37.9634 74.9593 37.9634 74.8953 37.9634C74.4473 37.9634 74.1913 38.2194 73.1033 38.7314V38.7954L74.5753 38.1554C74.6393 38.2834 74.5753 38.2834 74.3833 38.3474C73.8713 38.5394 72.7193 39.4994 72.1433 39.4994C72.1433 39.4994 72.0793 39.5634 72.0793 39.6274H72.1433L73.2953 39.2434C73.5513 39.1794 73.7433 38.8594 73.8713 38.7314C74.0633 38.6034 74.2553 38.5394 74.6393 38.3474C74.8313 38.2194 74.6393 38.1554 74.8313 38.0274H75.0873L74.5113 38.5394L74.5753 38.6034C74.3193 38.7954 74.1913 38.9234 73.9353 39.0514L73.7433 39.1794L73.6153 39.3074C72.8473 39.7554 72.3993 40.2034 71.7593 40.5874C70.7353 41.1634 69.6473 41.6114 68.4313 41.6114ZM54.4793 37.4514C54.4793 36.8114 54.1593 36.0434 54.7353 35.3394L54.4793 37.4514ZM95.2338 43.2114L93.6978 43.0194C93.5058 42.9554 93.1218 42.9554 92.8658 42.8914C92.4818 42.6994 92.0338 42.5714 91.5858 42.3154C91.2658 42.0594 90.9458 41.6754 90.6258 41.3554C90.4338 41.0994 90.3058 40.7794 90.1778 40.4594C90.1138 40.0754 89.9858 39.6914 89.9218 39.1794C89.9218 38.8594 89.9218 38.4114 90.0498 38.0274C90.1778 35.4034 91.9058 32.7154 92.9938 31.2434C93.0578 31.1154 93.1218 30.9874 93.2498 30.9874C93.3778 30.7954 93.5058 30.6674 93.5698 30.5394C93.6338 30.4754 94.2738 29.7074 94.5298 29.5154C95.0418 29.0034 95.6178 28.8754 96.1938 29.0674C96.4498 29.1314 96.7698 29.0034 97.0258 29.1314C97.3458 29.2594 97.6658 29.5154 97.9858 29.7074C98.3698 29.8994 98.7538 30.0274 99.0098 30.2834C99.3938 30.5394 99.7138 30.8594 99.9698 31.1794C100.034 31.3074 100.034 31.6274 99.9058 31.8834C99.9058 32.1394 99.7138 32.3314 99.5218 32.5874C99.3938 32.7794 99.0098 32.7154 98.8178 32.5874C98.4978 32.3954 98.1778 32.2674 97.9218 32.0754C97.7298 31.8834 97.5378 31.6914 97.4738 31.4994C97.3458 31.2434 97.2818 31.2434 97.0898 31.3714C96.5138 31.6274 95.9378 32.0114 95.6178 32.5874C95.3618 33.0994 94.9138 33.4194 94.5938 33.9314C94.2738 34.4434 93.8898 34.9554 93.5058 35.5314C92.8658 36.4914 92.4178 37.5794 92.0978 38.6674C91.8418 39.2434 91.9058 39.9474 92.0338 40.5234C92.0978 40.7154 92.2898 40.7794 92.4818 40.8434C93.2498 40.8434 94.0818 40.7794 94.9138 40.4594C95.4258 40.3314 95.9378 40.2674 96.3218 40.0114C96.7698 39.8834 97.2178 39.6914 97.6018 39.4354C97.8578 39.3074 98.0498 39.1154 98.3698 38.9234C98.4978 38.7954 98.6258 38.7954 98.7538 38.7314V38.8594C98.6258 38.9234 98.4978 38.9874 98.3058 39.1154V39.1794C98.4978 39.1794 98.6258 39.1154 98.6898 39.0514L100.29 38.0274C101.058 37.4514 101.762 36.8754 102.466 36.2994C102.978 35.9794 103.362 35.6594 103.81 35.2754C103.81 35.2754 103.874 35.2114 103.874 35.0834C103.746 35.2114 103.618 35.2754 103.362 35.4034C103.298 35.3394 103.362 35.2754 103.362 35.2754C103.81 34.8914 104.45 34.5074 104.962 34.1874C105.09 33.9954 105.282 33.8674 105.602 33.6754C105.666 33.6114 105.73 33.3554 105.922 33.6114C105.986 33.4834 105.986 33.3554 105.986 33.3554C106.306 33.1634 106.69 32.8434 107.01 32.5874C107.074 32.5874 107.202 32.5234 107.266 32.4594C107.266 32.5874 107.394 32.6514 107.33 32.7154C107.266 33.0994 107.202 33.4194 106.818 33.6114C106.754 33.6114 106.69 33.7394 106.69 33.8034C106.818 34.1234 106.434 34.1874 106.37 34.4434C106.306 34.5074 106.306 34.5714 106.178 34.6994C106.114 34.7634 105.986 34.8914 105.986 34.9554C105.858 35.0834 105.858 35.2114 105.73 35.2754C105.41 35.4674 105.154 35.6594 104.898 35.7234C104.834 35.7874 104.77 35.7874 104.706 35.7874C104.642 35.7874 104.642 35.8514 104.642 35.9154C104.77 36.0434 104.77 36.1074 105.026 36.2354C104.898 36.7474 104.45 36.8754 104.002 36.9394C104.002 37.3234 103.618 37.5154 103.426 37.7074C103.362 37.7074 103.362 37.6434 103.362 37.6434C103.362 37.5154 103.49 37.3234 103.554 37.1954C103.426 37.1954 103.298 37.2594 103.17 37.3234C102.914 37.5154 102.722 37.5794 102.53 37.3234C102.594 37.1954 102.594 37.0674 102.658 36.8754H102.594C102.402 37.0674 102.082 37.3234 101.762 37.5154C101.122 38.0274 100.482 38.5394 99.8418 39.1154C99.8418 39.1794 99.7778 39.1794 99.7138 39.3074C99.2658 39.4994 98.6258 39.1794 98.4338 39.9474C98.6258 39.9474 98.8818 39.8834 99.0738 40.0114C99.3298 40.2034 99.5858 40.1394 99.9058 40.0114C99.7138 40.0114 99.5218 39.9474 99.3938 39.9474C99.5218 39.5634 99.8418 39.4994 100.546 39.7554L99.4578 40.5874C99.3938 40.5874 99.3938 40.6514 99.3938 40.6514C98.8178 40.5874 98.6258 41.0994 98.3698 41.4194C98.3058 41.4834 98.3698 41.6754 98.3698 41.9314C98.1778 42.0594 97.8578 42.1234 97.6018 42.2514C97.0258 42.5074 96.3858 42.6354 95.8738 42.8274C95.6818 43.0194 95.4898 43.2754 95.2338 43.2114ZM100.546 39.3714C100.482 38.8594 100.674 38.6674 101.058 38.6674C101.186 38.6674 101.378 38.6034 101.506 38.4754C101.442 38.4114 101.25 38.4114 101.122 38.4114C101.186 38.0914 101.378 38.0274 101.634 38.0274C101.954 37.9634 102.338 37.6434 102.53 38.0274C102.658 38.0274 102.786 37.9634 102.914 37.8994C102.914 38.0274 102.978 38.0914 102.914 38.0914C102.338 38.4754 101.89 39.0514 101.186 39.1794C101.186 39.1154 101.186 38.9874 101.25 38.8594C100.994 39.0514 100.738 39.1794 100.546 39.3714ZM98.6258 41.8674C98.4978 41.4834 98.5618 41.4194 99.2658 41.4834C99.0738 41.5474 98.8178 41.7394 98.6258 41.8674ZM123.872 4.55544C123.936 4.74744 123.872 5.06744 123.744 5.38744C123.616 5.70744 123.552 6.28344 123.488 6.66743L123.36 7.37144C123.36 7.43544 123.36 7.56343 123.296 7.62744C123.232 7.69144 123.296 7.75544 123.232 7.81944C122.848 8.20344 122.976 9.03544 122.592 9.41944C122.528 9.41944 122.528 9.35544 122.4 9.41944C122.528 9.03544 122.72 8.77944 122.72 8.39544C122.848 8.07544 123.04 7.75544 123.232 7.37144C123.168 7.37144 123.168 7.37144 123.104 7.30743C123.04 7.69144 122.848 8.07544 122.72 8.39544C122.656 8.58744 122.528 8.71544 122.464 8.90744H122.4C122.592 8.07544 122.912 7.49944 123.104 6.85944V6.79544C122.976 6.85944 122.976 6.92344 122.912 6.98743C122.592 7.62744 122.336 8.45943 122.08 9.22744C121.952 9.48344 121.76 9.67544 121.632 9.86744L120.608 12.0434C120.352 12.4914 120.032 12.9394 119.776 13.3234C119.648 13.4514 119.52 13.6434 119.392 13.2594C119.584 13.1954 119.776 12.9394 119.968 12.7474C119.968 12.6834 119.904 12.6834 119.904 12.6194C119.84 12.6834 119.712 12.7474 119.52 12.7474C119.328 13.0674 119.008 13.5154 118.816 13.9634C118.688 14.2834 118.56 14.6034 118.368 14.9234C118.24 15.1794 117.984 15.4354 117.856 15.4354C117.792 15.6274 117.728 15.8194 117.728 16.0114C117.728 16.0754 117.6 16.1394 117.536 16.1394V16.2674C117.664 16.3314 117.792 16.2674 117.984 16.3954C117.664 16.5874 117.6 16.8434 117.536 17.0354C117.344 17.2914 117.28 17.4834 117.152 17.6754C117.216 17.7394 117.28 17.7394 117.28 17.7394C117.408 17.4834 117.536 17.2274 117.728 17.0354C118.048 17.1634 118.24 17.1634 118.496 17.2274C118.432 17.2914 118.432 17.5474 118.24 17.3554C118.24 17.3554 118.112 17.4194 118.112 17.4834C118.048 17.6754 117.792 17.8034 118.112 17.8674C117.792 18.1234 117.472 18.1234 117.344 18.6354C117.472 18.5074 117.536 18.4434 117.664 18.3794V18.4434C117.472 18.9554 117.28 19.2114 117.024 19.5954C116.896 19.5954 116.832 19.8514 116.704 19.9794C116.448 20.2994 116.32 20.6834 116.064 20.9394C115.936 21.0674 115.808 21.2594 115.808 21.4514C115.744 21.3874 115.68 21.4514 115.616 21.4514C115.488 21.5154 115.424 21.5154 115.488 21.7074C115.552 21.7074 115.488 21.8354 115.36 21.8994C114.848 22.5394 114.72 22.4114 114.208 23.1154C113.696 23.8194 113.184 24.2674 112.608 24.8434C111.904 25.5474 111.584 26.1874 110.944 26.9554C110.88 27.1474 110.624 27.0834 110.56 27.2754C110.432 27.6594 109.984 27.9154 109.664 28.2994C109.6 28.4274 109.024 31.6914 108.896 32.2034L108.832 32.6514C108.896 32.6514 108.96 32.6514 109.152 32.5874C109.472 32.2674 109.856 32.0114 110.368 31.5634C111.264 30.9234 111.776 30.3474 112.736 29.8354C113.568 29.3874 114.272 29.2594 115.168 29.2594C115.616 29.2594 115.936 29.5154 116.384 29.5794C116.512 29.6434 116.704 29.7074 116.896 29.8354C116.768 29.8994 116.704 29.8994 116.512 30.0274L118.112 30.6034C118.176 30.9234 118.24 31.0514 118.24 31.3074C118.24 31.7554 118.304 32.3314 118.048 32.7794C117.984 33.5474 117.728 34.1234 117.344 34.7634C116.96 35.4034 116.64 35.6594 116.32 35.9154C115.36 36.8114 114.848 36.9394 114.144 37.3874L112.736 37.8354C112.608 38.9234 113.184 40.3314 113.632 41.0994C113.76 41.2914 113.888 41.3554 113.952 41.3554C115.104 41.4834 115.552 41.3554 116.64 40.9714C117.792 40.4594 119.648 39.0514 120.48 38.2194C121.504 37.3874 122.016 36.7474 122.72 36.2354L123.104 36.6194C123.04 37.0034 122.848 37.3234 122.72 37.5794C122.464 38.0914 121.952 38.9874 121.568 39.4994C120.992 40.0754 120.032 41.5474 119.2 41.9954C118.752 42.2514 118.24 42.5074 117.92 42.7634C117.472 42.9554 117.088 43.1474 116.512 43.2754C115.808 43.5314 115.424 43.4674 114.848 43.4674C114.656 43.4674 114.528 43.3394 114.4 43.4034C113.824 43.5314 113.12 43.2754 112.864 42.8914C112.288 42.5714 111.968 42.3794 111.648 41.9314C111.328 41.4834 111.072 41.0354 110.944 40.4594C110.432 39.1154 110.432 37.9634 110.56 36.8754L112.416 35.9154C113.568 35.2754 114.784 34.6354 115.424 33.4834C115.808 32.7794 115.936 32.1394 115.424 31.3074C114.784 31.1154 114.144 31.5634 113.568 31.8834C112.736 32.5874 112.224 32.7794 111.2 33.6114C110.752 34.0594 110.304 34.3154 109.856 34.6354L109.28 35.0834L108.512 35.5954C108.448 35.7874 108.192 37.2594 108.128 37.3234C107.872 38.1554 108.128 38.2834 107.808 38.6674C107.808 38.9874 107.552 39.2434 107.552 39.5634L107.488 40.0754L107.424 40.3954L107.232 41.2274C107.424 41.6754 107.232 41.9954 107.04 42.3154C106.784 42.8274 106.144 42.8274 106.144 42.3794C105.952 42.3154 105.824 42.2514 105.696 42.0594L105.504 41.6754L105.056 41.2274C104.992 41.0994 104.992 40.9074 104.992 40.7154L105.184 39.6914C105.376 39.2434 105.376 38.7314 105.376 38.2194L105.632 37.1954C105.824 36.5554 105.952 35.7874 106.08 35.0834C106.208 34.6994 106.272 33.8674 106.4 33.3554L107.04 30.0274V29.9634C106.528 30.2194 105.184 31.3714 104.8 31.2434C104.544 31.1794 104.352 31.0514 104.288 30.9234C104.16 30.6674 104.16 29.0674 104.416 28.8754C105.632 28.1714 106.976 27.0834 107.936 26.2514C108.256 24.9714 108.576 23.6914 108.832 22.4114C109.216 21.1314 109.536 19.8514 109.984 18.5074C110.496 16.9714 110.88 15.3714 111.584 13.8354C112.224 12.4274 112.672 11.1474 113.248 9.67544C113.44 9.16344 113.824 8.77944 113.952 8.26744C114.144 7.81944 114.336 7.30743 114.592 6.85944C115.04 6.02744 115.552 5.51543 116 4.49144C116.128 4.23544 116.384 3.97943 116.576 3.72343C116.832 3.14743 117.088 2.95544 117.472 2.50743C117.6 2.37944 117.664 2.31544 117.728 2.12344C117.856 2.05944 117.984 1.99543 118.048 1.86744C118.368 1.35543 118.688 0.971436 119.392 0.651436C119.776 0.523438 120.096 0.267437 120.544 0.267437C120.928 0.267437 121.312 0.331436 121.76 0.459435C122.4 0.779434 122.912 1.54744 123.488 2.05944C123.68 2.44344 123.744 3.08344 123.808 3.72343C123.872 3.91544 123.872 4.23544 123.872 4.55544ZM121.696 5.19543C121.696 3.40343 121.76 2.95544 120.992 2.76344C120.672 2.76344 120.352 2.95544 120.032 3.21144C119.52 3.59544 119.264 3.97943 118.752 4.61943C118.304 5.32344 117.664 6.02744 117.088 6.92344C116.576 7.81944 116.192 8.65144 115.68 9.61144C115.36 10.5074 114.784 11.0194 114.656 11.9794L114.72 12.0434C114.592 12.4914 114.272 12.6834 114.144 13.0674C113.76 13.8354 113.632 14.5394 113.184 15.8194C112.544 17.8674 112.16 18.5714 111.776 20.0434C111.2 21.7074 111.008 22.4114 110.56 24.0114L110.816 23.5634C111.52 22.6674 112.096 22.2194 112.8 21.1954C113.504 20.4274 114.016 19.7874 114.528 18.9554C114.848 18.6354 115.168 18.0594 115.488 17.6114C116.128 16.5874 116.576 15.6914 117.152 14.9874V14.9234C117.664 13.8994 118.304 13.0674 118.752 12.2994C119.264 11.4034 119.52 10.5714 120.032 9.73944C120.352 8.97144 120.864 7.81944 121.248 6.79544C121.376 6.34743 121.376 5.89944 121.696 5.19543ZM119.2 15.6274C119.136 15.6274 119.072 15.6914 119.072 15.8194C119.2 16.3314 119.136 16.3314 118.88 16.4594C118.816 16.5874 118.752 16.8434 118.752 16.9074C118.624 17.0354 118.496 16.9714 118.368 16.9714C118.304 16.9714 118.24 16.9714 118.176 16.9074C118.112 16.8434 118.048 16.7794 117.984 16.7794C117.92 16.6514 118.048 16.5234 118.112 16.4594C118.112 16.4594 118.24 16.5234 118.304 16.4594C118.368 16.4594 118.432 16.4594 118.56 16.3954C118.368 16.2034 118.368 16.0754 118.432 15.8194C118.496 15.6914 118.624 15.5634 118.688 15.6274C118.688 15.5634 118.752 15.5634 118.816 15.4994V15.6914C118.88 15.6274 118.944 15.6274 119.008 15.5634C119.008 15.4994 118.88 15.4354 118.752 15.3074C118.944 15.1794 118.944 15.0514 119.072 14.9234C119.072 15.0514 119.136 14.9874 119.2 15.1794C119.328 15.0514 119.456 14.9234 119.648 14.6034C119.52 14.5394 119.456 14.5394 119.328 14.3474L119.776 13.6434C119.84 13.8354 119.84 13.9634 119.84 14.1554C120.096 13.5154 120.352 13.1314 120.736 12.4914C120.672 12.4914 120.608 12.5554 120.48 12.5554C120.672 12.1074 120.8 11.5954 121.056 11.2754C121.376 10.8274 121.568 10.3794 121.76 9.86744C121.952 9.54744 122.144 9.54744 122.464 9.61144L122.208 9.99544C121.952 10.3154 121.888 10.6354 121.824 10.8914C121.696 11.2114 121.632 11.4674 121.376 11.7234C121.12 12.5554 120.544 13.1314 120.224 13.8994C120.096 13.9634 120.096 14.2834 120.032 14.6034C119.84 15.0514 119.52 15.5634 119.328 15.9474C119.2 15.8194 119.2 15.6914 119.2 15.6274ZM119.968 11.3394C120.096 11.0834 120.352 10.7634 120.48 10.5074C120.48 10.5074 120.352 10.3794 120.352 10.3154C120.288 10.6354 120.096 11.0194 119.968 11.3394ZM119.904 12.3634C120.352 12.2994 120.288 11.3394 120.672 11.2114C120.672 11.1474 120.608 11.0834 120.544 11.0194C120.352 11.4034 120.096 11.8514 119.904 12.3634ZM112.8 13.3874C112.672 13.7074 112.864 13.8994 112.8 14.2194C112.864 14.2194 112.864 14.2834 112.864 14.2834C112.992 13.9634 113.056 13.7074 113.12 13.4514L112.8 13.3874ZM118.176 15.8194C118.112 15.4354 118.432 15.3714 118.624 14.9234C118.624 15.4354 118.368 15.5634 118.176 15.8194ZM116.32 18.6354C116.576 18.5714 116.832 18.3154 117.024 18.1234C116.896 18.1234 116.704 18.1874 116.512 18.3154C116.768 18.1234 116.832 17.9954 116.896 17.9314C116.768 17.9954 116.576 18.1874 116.384 18.3794C116.448 18.2514 116.512 18.1234 116.576 18.0594H116.512C116.128 18.5074 115.68 19.0194 115.296 19.5314C115.168 19.5954 115.168 19.6594 115.04 19.7234C114.592 20.0434 114.336 20.4914 113.952 21.0034C113.376 21.6434 112.928 22.2834 112.288 23.1794C112.096 22.7954 111.648 23.3074 111.136 24.1394C110.56 24.7154 110.24 25.1634 110.368 25.4834C110.304 25.6114 110.304 25.8034 110.112 26.4434C110.24 26.3154 110.432 26.1234 110.56 25.9314C110.624 25.7394 110.816 25.6114 111.008 25.4834C110.944 25.4834 110.88 25.4194 110.816 25.4834C110.752 25.6114 110.624 25.7394 110.496 25.8034H110.432C110.56 25.6754 110.688 25.4834 110.88 25.2274C111.008 25.2914 111.008 25.2914 111.2 25.2274C111.328 24.9714 111.392 24.7794 111.52 24.6514C111.264 24.9074 111.136 25.0354 110.752 25.2274C110.944 25.0994 111.072 24.9714 111.2 24.7794C111.456 24.6514 111.776 24.3954 111.776 24.1394C111.904 24.0114 112.096 23.8834 112.352 23.6274C112.48 23.4994 112.672 23.3714 112.864 23.1154L112.48 23.3714C112.992 22.6674 113.12 23.0514 113.568 22.4754C113.376 22.6034 113.312 22.6674 113.248 22.7314L113.44 22.4754C113.632 22.2194 113.888 22.0274 114.272 21.7074C114.208 21.7074 114.272 21.6434 114.272 21.5154L114.4 21.2594C114.592 21.1314 114.72 21.0674 114.912 20.9394C114.912 20.9394 114.848 20.9394 114.912 20.8754L115.04 20.7474C115.104 20.5554 115.424 20.2354 115.488 20.0434L115.424 20.1074C115.36 20.1074 115.168 20.2994 115.168 20.4274C115.104 20.3634 115.104 20.2994 115.104 20.2354C115.68 19.7874 115.936 19.5954 115.936 19.4034C115.552 19.8514 115.36 19.8514 115.104 20.0434C115.36 19.5314 115.808 19.4674 116.064 19.2114C116.064 19.1474 116.064 19.0194 116.192 18.8914C116.448 18.6994 116.256 18.7634 115.936 18.8274C116.128 18.6994 116.256 18.6354 116.32 18.6354ZM109.088 25.8674C109.152 25.6754 109.216 25.2914 109.216 25.0994L108.96 25.9314C109.024 25.8674 109.088 25.8674 109.088 25.8674ZM109.92 26.5714V26.6354C109.92 26.6354 109.92 26.6354 109.92 26.5714ZM107.808 31.0514C108 30.2194 108.192 29.4514 108.256 28.6194V28.4914L108.192 28.3634H108.064C108 28.6834 108 29.0674 107.936 29.3234C107.808 30.0274 107.552 30.8594 107.552 31.6274C107.488 31.7554 107.488 31.9474 107.552 31.9474C107.744 31.5634 107.808 31.3714 107.808 31.0514ZM113.184 30.7314C112.8 30.8594 112.288 30.9874 112.224 31.5634C112.608 31.3074 112.928 31.0514 113.248 30.7954C113.184 30.7954 113.184 30.7314 113.184 30.7314ZM110.624 32.6514C110.432 32.7794 110.176 32.9074 109.92 32.9714C110.56 33.1634 110.56 33.1634 110.624 32.6514ZM110.432 33.5474C109.856 33.1634 109.856 33.1634 109.6 33.5474C109.856 33.4834 110.048 33.5474 110.432 33.5474ZM116.128 35.0194C116 35.0834 115.744 35.2114 115.744 35.2754C115.744 35.5314 115.616 35.5954 115.424 35.5954L114.848 35.9794C114.912 35.9794 114.976 36.0434 114.976 36.1714C115.04 36.1074 115.232 36.0434 115.232 35.9794C115.552 35.7874 115.744 35.5954 116 35.4034C116.064 35.2754 116.128 35.2114 116.256 35.0834L116.128 35.0194ZM124.113 40.2674C123.985 40.2674 123.793 40.2674 123.601 40.2034C123.473 40.0754 122.961 39.7554 122.577 39.5634C122.001 38.7954 121.809 37.9634 122.065 37.0034C122.257 36.5554 122.385 36.2354 122.513 35.8514C122.577 35.7874 122.577 35.7874 122.577 35.7234C122.641 35.3394 122.833 35.0194 122.961 34.5714L123.409 33.8034C123.665 33.4834 123.793 33.1634 123.921 33.0354C124.625 31.9474 125.457 31.1794 126.225 30.2194C126.993 29.3874 128.081 28.6194 129.297 28.4914C130.641 28.7474 132.177 29.0034 132.433 30.4754C132.625 31.3714 132.113 31.9474 131.793 32.5874C132.305 32.5234 132.753 32.0114 133.521 32.0754C133.905 32.2034 134.161 32.5234 134.289 32.9714C134.289 32.9714 134.353 33.6754 134.161 34.1874C134.097 34.2514 134.097 34.3794 134.033 34.5074C133.841 35.4034 133.841 36.3634 134.225 37.2594C134.289 37.5154 134.481 37.7714 134.801 37.9634C134.929 38.0274 135.057 38.0274 135.249 37.9634C135.441 37.8994 135.697 37.8994 135.953 37.7714C136.977 37.3234 138.001 36.5554 138.897 35.9154C139.729 35.4034 140.689 34.8274 141.585 34.1874C143.121 33.2274 142.993 33.3554 144.465 32.3954C144.913 32.0114 145.425 31.6914 146.065 31.3074L146.257 31.4354L145.681 32.2034C145.809 32.5234 145.809 32.5234 146.193 32.2674C146.193 32.1394 146.193 31.8834 146.513 32.0114C145.873 32.9714 144.849 33.4834 144.017 34.0594C143.697 34.3154 143.249 34.5074 143.057 34.6354C142.865 34.8274 142.609 35.1474 142.289 35.2754C142.225 35.3394 142.033 35.3394 141.841 35.4034C141.841 35.4034 141.841 35.3394 141.777 35.2754C141.841 35.2754 142.033 35.1474 142.161 35.0194C142.417 34.8914 142.545 34.6994 142.481 34.4434C142.481 34.3794 142.353 34.3154 142.289 34.3154C141.777 34.5714 141.457 34.8914 141.009 35.2114C140.241 35.5314 139.665 35.9154 139.025 36.4274C138.833 36.4914 138.641 36.6834 138.385 36.7474V36.8754C138.577 36.8114 138.769 36.8114 138.897 36.6834C139.153 36.4914 139.345 36.4914 139.537 36.6194C139.537 36.5554 139.473 36.4914 139.473 36.4274C139.921 36.2354 140.241 36.2994 140.625 35.9794C141.009 35.7234 141.457 35.5954 141.713 35.3394C141.713 35.4674 141.649 35.6594 141.457 35.7874C140.945 36.0434 140.433 36.4274 139.921 36.6834C139.793 36.7474 139.665 36.8754 139.537 37.0674C139.409 37.1954 139.281 37.2594 139.089 37.3234C139.281 37.3874 139.409 37.3874 139.537 37.3874L139.473 37.4514C139.345 37.5154 139.217 37.5794 139.025 37.5794V37.8354C139.345 37.6434 139.793 37.4514 140.113 37.2594V37.3874C139.793 37.6434 139.345 37.8994 139.089 38.2194C138.577 38.7954 138.001 38.9234 137.361 39.3714C136.977 39.5634 136.785 39.4994 136.465 39.6914C136.337 39.7554 136.017 39.8834 135.825 39.8834C135.761 39.8834 135.441 40.0114 135.249 40.0114C134.993 40.0114 134.417 40.1394 134.161 40.0754C134.033 40.0114 133.649 40.0114 133.521 39.8834C133.329 39.8194 133.201 39.5634 133.009 39.4994C132.625 38.9874 132.177 38.7314 131.921 38.1554C131.537 37.7714 131.601 37.6434 131.409 37.3234C131.281 37.2594 131.281 37.1314 131.217 37.0034C130.769 37.2594 130.769 37.8994 130.321 37.8994C130.193 38.0274 130.129 38.2194 130.001 38.2834C129.233 38.8594 128.209 39.6914 127.185 40.1394C126.161 40.6514 125.073 40.6514 124.113 40.2674ZM123.985 38.4114C124.689 38.4114 125.841 38.3474 126.481 38.0914C127.313 37.7714 127.889 37.3234 128.529 36.6194C129.489 35.5954 129.937 34.8274 130.897 33.8034C130.961 33.8034 131.217 33.4834 131.217 33.4834H131.153C129.745 33.3554 130.257 30.5394 130.321 30.4754C128.401 30.7954 126.161 33.8034 125.457 35.0194C124.881 36.0434 124.305 37.1314 123.985 38.4114ZM142.993 34.5074C143.057 34.5074 143.121 34.3154 143.121 34.2514C143.121 33.9954 143.249 33.9314 143.377 33.8674C143.441 33.7394 143.697 33.6754 143.889 33.6114C144.017 33.5474 144.273 33.5474 144.401 33.4834V33.0994C144.529 33.0354 144.593 32.9074 144.657 32.8434C144.657 32.7794 144.657 32.7154 144.593 32.7154C144.465 32.8434 144.145 33.0354 143.825 33.2274C143.377 33.4834 142.545 34.0594 142.481 34.1874C142.609 34.2514 142.865 34.3794 142.993 34.5074ZM175.648 37.3874L174.112 38.1554L174.24 38.2194C174.112 38.2194 173.92 38.4754 173.6 38.6034V38.7314C173.408 38.7954 173.28 38.7954 173.472 38.8594C173.408 38.9234 173.088 38.9234 173.024 38.9234C172.512 38.8594 172.256 39.1794 170.912 39.6914V39.8194L172.64 39.1154C172.704 39.3074 172.64 39.3074 172.448 39.3074C171.872 39.5634 170.336 40.7154 169.696 40.7154C169.696 40.7154 169.632 40.7154 169.632 40.7794V40.9714L171.04 40.3954C171.36 40.3954 171.552 39.9474 171.744 39.8194C172 39.6274 172.256 39.6274 172.704 39.3714C172.96 39.3074 172.704 39.1794 172.896 39.0514H173.216L172.512 39.5634L172.576 39.6914C172.192 39.8834 172 40.0114 171.744 40.2674L171.552 40.3954L170.976 40.4594C170.528 41.0354 169.952 41.5474 169.184 41.9954C167.968 42.6354 166.624 43.1474 165.344 43.0834C161.952 43.0194 160.864 40.1394 162.016 35.9154C161.44 36.2994 160.736 36.9394 158.88 39.0514C158.432 40.3314 158.24 41.9954 157.984 43.3394C157.92 43.6594 156.896 43.9154 156.384 43.7874C155.936 43.7234 155.488 43.5314 155.296 43.3394C155.04 42.9554 155.04 42.6994 155.168 42.2514C155.168 41.5474 155.424 40.5874 155.552 39.8194L156.832 32.7794C156.128 33.1634 154.272 34.8274 154.144 35.4674C153.824 36.4274 153.696 37.3234 153.312 38.2834C151.84 42.2514 149.792 44.1074 146.784 43.7874C144.672 43.7234 143.648 42.5074 144.672 40.7154C145.824 38.8594 146.528 38.0274 149.472 36.1074C150.112 35.6594 151.2 35.2114 151.328 34.3154C151.456 33.1634 151.392 32.3314 151.136 31.3714C150.944 30.2194 149.92 30.0274 148.832 30.6034C147.68 31.1794 146.528 32.2034 146.144 33.4834C145.824 33.7394 145.696 33.9954 145.632 34.1874C145.504 34.5714 145.312 34.6994 144.928 34.6994C144.8 34.6354 144.48 34.3154 144.544 33.9954C144.544 33.8674 144.544 33.6114 144.672 33.4834C144.8 33.0354 144.672 32.7154 144.928 32.3314C145.76 31.3074 146.08 30.4114 147.168 29.5794C148.064 28.9394 149.088 28.4914 150.112 28.4914C151.584 28.4274 153.056 29.1954 153.504 30.2834C153.888 30.9874 154.016 32.2034 154.144 33.0994C154.784 32.5874 157.408 30.8594 157.28 30.6674L157.6 30.0274C157.92 28.4914 158.048 28.4274 158.176 27.5954C158.368 27.0834 158.368 26.2514 158.688 25.6114C158.752 24.8434 158.944 24.2034 159.136 23.4994C159.456 22.6674 159.776 21.2594 159.904 20.2354C160.224 19.4674 160.416 17.7394 160.864 16.4594C160.864 16.2034 161.056 15.9474 161.12 15.6914C161.184 15.1154 161.504 14.4754 161.44 13.8994L161.568 13.7074C161.696 13.7714 161.824 13.7714 161.888 13.8354C162.464 14.4754 163.488 14.4754 163.424 15.1154C163.424 15.3074 163.296 15.5634 163.424 15.8194C163.744 16.1394 163.616 16.5874 163.424 17.0994C163.04 18.7634 162.592 21.1314 161.952 23.1794C161.312 25.2914 160.8 27.4674 160.8 27.7874C160.288 29.8354 160.416 29.2594 160.032 30.7314C159.84 31.7554 159.648 32.8434 159.52 33.7394C159.264 34.8274 159.136 35.7874 159.072 36.8754L159.264 36.7474C160.224 35.7874 161.504 34.6354 162.528 33.8674L162.656 33.6114C163.744 31.1794 166.432 29.1954 168.608 29.5154C170.08 29.8354 171.104 30.7314 171.104 32.2674C171.104 32.8434 170.848 33.0994 170.72 33.6754C170.336 34.1874 169.888 34.2514 169.504 34.1234C169.184 33.9314 168.8 33.6114 168.672 32.9714C168.736 32.7794 169.12 30.7954 168.096 30.8594C166.176 31.0514 164.512 35.5954 164.256 38.5394C164.128 40.0754 164.512 41.6114 166.24 41.4194C167.2 41.2914 168.416 40.7794 169.952 40.2674C171.488 39.3714 172.256 38.7954 172.448 38.6674C173.344 38.4754 173.92 38.2194 174.88 37.5154L175.392 37.1314L175.456 37.3234C175.456 37.3234 175.584 37.3234 175.648 37.3874ZM161.632 16.6514C161.632 16.8434 161.632 17.0354 161.568 17.0994H161.76C161.824 16.6514 162.016 16.0754 162.144 15.7554C162.08 15.6274 162.016 15.6274 161.952 15.6274C161.888 15.8834 161.76 16.3954 161.632 16.6514ZM160.416 22.2194C160.352 22.2194 160.288 22.2834 160.224 22.4114C160.288 22.4754 160.352 22.5394 160.416 22.5394C160.544 22.6034 160.608 22.5394 160.608 22.4754C160.928 21.3234 161.056 20.8754 161.056 20.5554C161.12 20.1074 161.184 19.8514 161.376 19.4674C161.376 19.3394 161.568 17.6754 161.696 17.4194C161.568 17.4194 161.504 17.4194 161.568 17.3554C161.376 17.6754 161.056 19.2754 161.056 19.4034C160.928 19.7234 160.928 19.8514 160.992 20.0434C160.8 20.0434 160.864 20.2354 160.864 20.4274C160.736 20.6834 160.608 20.8754 160.48 21.0034C160.672 21.2594 160.672 21.3234 160.416 22.2194ZM158.816 29.2594C158.944 29.0034 159.072 28.6194 159.072 28.2994H158.88C158.752 28.2994 159.008 27.9154 159.072 27.8514C159.136 27.7874 159.136 27.6594 159.136 27.5954C159.136 27.5314 159.136 27.4034 159.072 27.4034C159.2 27.3394 159.392 27.2754 159.648 27.2114V27.0834C159.392 27.0834 159.2 27.0834 159.136 27.0834C159.264 26.8274 159.328 26.6354 159.328 26.5074C159.456 26.5074 159.52 26.5074 159.648 26.5714C159.584 26.2514 159.52 25.9314 159.52 25.6754C159.648 25.6114 159.84 25.6114 159.968 25.5474C159.84 25.4194 159.712 25.2914 159.648 25.2914C159.84 25.2274 160.032 25.1634 160.032 25.0354C160.224 24.4594 160.224 23.8834 160.288 23.4354C160.544 22.9874 160.544 22.9874 160.16 22.7954C160.16 22.9874 160.032 23.0514 160.032 23.1794C160.16 23.1794 160.224 23.1794 160.288 23.2434C160.224 23.3074 160.16 23.3074 159.904 23.4354L160.16 23.6914C160.032 23.6914 159.904 23.8194 159.712 23.7554V24.1394C159.648 24.3954 159.52 24.6514 159.52 24.9714C159.328 25.5474 159.264 26.2514 159.136 26.8274C158.88 27.5954 158.624 28.3634 158.432 29.1314C158.304 29.6434 158.048 30.3474 158.112 31.0514L158.048 31.1154C157.984 31.4354 157.728 31.8834 157.664 32.3954C157.664 32.4594 157.728 32.5234 157.856 32.6514C157.92 32.5234 157.984 32.5874 158.112 32.5234C157.984 32.4594 157.92 32.3314 157.92 32.3314C158.048 32.0114 158.176 31.8194 158.304 31.5634C158.368 31.1794 158.56 30.7314 158.752 30.2834C158.752 29.9634 158.752 29.5794 158.816 29.2594ZM159.392 29.4514C159.328 29.0034 159.904 28.6194 159.584 28.1714C159.328 28.5554 159.264 29.2594 159.392 29.4514ZM167.2 30.1554C166.432 30.0274 164.832 31.3714 164.704 31.6914L165.024 32.0114C165.472 31.4354 166.624 30.4114 167.2 30.1554ZM157.28 34.1234C157.856 33.8674 157.664 33.4834 157.664 33.2914C157.792 33.1634 157.856 33.0354 157.92 32.9714C157.856 32.9074 157.856 32.7794 157.6 32.6514C157.408 33.2274 157.408 33.6754 157.28 34.1234ZM158.048 34.9554C158.112 34.6994 158.112 34.4434 158.24 34.1234C157.92 34.2514 157.728 35.1474 157.856 35.4034C157.984 35.2754 157.984 35.1474 158.048 34.9554ZM157.472 34.5074C157.472 34.4434 157.408 34.3794 157.472 34.1874C157.344 34.2514 157.28 34.2514 157.28 34.2514C157.152 34.5074 157.152 34.7634 157.088 35.0834H157.408C157.408 34.8914 157.472 34.6994 157.472 34.5074ZM157.216 35.7234C157.216 35.5314 157.408 35.3394 157.408 35.2754C157.28 35.2114 157.152 35.2114 157.088 35.2114C156.704 36.8114 156.32 38.2194 156.064 39.6914C156.128 39.6914 156.192 39.8194 156.192 39.8194C156.256 39.5634 156.896 39.4994 156.448 38.9874C156.64 38.8594 156.768 38.7954 156.64 38.6034C156.512 38.1554 156.704 37.8354 156.896 37.3874C157.024 37.3234 157.088 36.9394 157.152 36.3634L157.088 36.2354C157.152 36.1714 157.216 36.0434 157.216 35.9794V35.7234ZM150.688 35.8514C149.856 36.4914 149.088 37.0674 148.128 37.6434C148.96 37.5794 150.688 36.2354 150.688 35.8514ZM162.528 36.3634L163.168 36.1714C163.04 36.1074 162.912 35.9154 162.848 35.9154L162.464 36.1714C162.464 36.2994 162.592 36.2354 162.528 36.3634ZM148.256 41.6754C149.792 40.2034 150.304 38.9234 150.88 37.0034C149.472 38.0914 148.128 38.7314 146.656 40.4594C146.272 40.9074 146.08 41.2274 145.824 41.7394C145.696 42.0594 145.696 42.3794 145.824 42.4434C146.72 42.8914 147.936 41.9954 148.256 41.6754ZM162.72 40.3314C162.592 39.8834 162.848 37.8994 162.72 37.1314C162.4 37.5154 162.272 39.4354 162.4 39.5634C162.464 39.6914 162.464 39.8834 162.528 39.9474C162.4 40.4594 162.4 40.4594 162.72 40.3314ZM148.768 42.9554C148.96 42.9554 150.24 42.0594 150.176 41.6754C149.6 42.0594 148.96 42.5074 148.768 42.9554ZM217.372 33.6754C217.372 33.6754 217.436 33.6754 217.372 33.7394C217.308 33.8674 217.116 34.0594 217.052 34.1874C216.988 34.3154 216.732 34.5714 216.924 34.7634C216.924 34.7634 216.924 34.8274 216.86 34.8914C216.604 34.9554 216.604 34.9554 216.412 35.2754H216.732C216.54 35.4034 216.604 35.7234 216.412 35.9794L216.092 36.4274L215.964 36.8114C215.836 37.1314 215.708 37.5154 215.516 37.7714C215.452 38.0274 215.324 38.3474 214.812 38.8594L214.172 39.6914C214.108 39.8194 214.108 40.0114 213.788 40.2034C213.788 40.2034 213.788 40.3314 213.852 40.3954C213.788 40.4594 213.596 40.4594 213.596 40.5234C213.34 41.0354 212.828 41.4194 212.38 41.8674C211.996 42.3154 210.972 42.8914 209.82 42.9554L208.796 42.8914C207.452 42.6994 206.876 42.0594 206.3 41.3554C205.98 40.9714 205.66 40.3314 205.788 39.8194C205.916 39.4354 205.596 39.6274 205.34 39.6274C205.212 39.1794 205.148 38.8594 205.084 38.5394C205.276 38.6034 205.34 38.7314 205.404 38.7954C205.276 37.5794 205.02 36.7474 205.148 38.0274H204.956C204.892 37.4514 204.828 35.9794 205.02 34.8914C204.636 35.3394 204.188 35.9794 203.868 36.4274C203.42 37.0674 202.908 37.7074 202.332 38.4114H202.46C202.588 38.3474 201.82 39.0514 200.924 39.3714C200.284 39.7554 199.58 39.6274 198.812 39.2434L198.3 39.0514C197.468 38.6034 197.404 37.9634 197.276 37.3234C197.212 36.8114 197.468 35.3394 197.34 34.7634C197.276 35.0834 196.38 36.7474 196.188 37.2594C196.06 37.6434 195.74 38.2834 195.484 38.5394C195.356 38.8594 195.164 39.1154 194.908 39.3714C194.46 40.0754 194.588 39.8194 193.628 40.6514C193.5 40.8434 192.796 41.0354 192.476 41.0354H191.9C191.516 41.0354 191.196 40.9074 190.94 40.7794L190.556 40.5874C189.98 40.0754 189.34 38.9234 189.084 37.7714C188.892 37.9634 188.572 38.1554 188.38 38.3474L187.164 39.3074C186.652 39.5634 186.268 39.8194 185.82 40.1394C185.244 40.4594 184.732 40.9074 184.092 41.1634C183.708 41.3554 183.26 41.3554 182.812 41.4194C182.556 41.4194 182.428 41.4834 182.236 41.6114C181.98 41.7394 181.596 41.8034 181.276 41.8674C180.764 41.9954 180.316 42.1234 179.804 42.0594C179.164 41.9954 178.46 41.8674 177.884 41.6754C177.308 41.4834 177.052 41.4194 176.412 40.9074C176.348 40.7794 176.156 40.7154 176.092 40.6514C175.644 40.3314 175.388 39.9474 175.004 39.3714C174.876 39.2434 174.876 39.2434 174.748 38.6034C174.428 37.8354 174.492 37.3874 174.492 36.9394C174.556 35.6594 174.876 34.4434 175.516 33.2274C175.772 32.8434 176.028 32.4594 176.348 32.0754C176.924 31.3714 177.5 30.7314 178.076 30.0914C178.652 29.5154 179.356 29.1314 180.188 29.0674C180.38 29.0674 180.572 29.0034 180.828 28.9394C181.468 28.6834 182.044 29.1314 182.492 29.3874C183.068 29.6434 183.58 30.0274 184.028 30.4114C184.54 30.7314 184.86 31.8194 184.668 32.3314C184.54 32.6514 184.348 32.9714 184.156 33.1634C183.58 33.8034 183.004 34.3794 182.428 34.9554C182.236 35.1474 181.852 35.2114 181.788 35.4034C181.724 35.8514 181.276 35.9154 181.02 36.0434L180.572 36.2994C180.7 36.2994 180.764 36.3634 180.764 36.3634C180.572 36.4914 180.38 36.5554 180.124 36.6834C180.06 36.7474 180.06 36.9394 179.996 37.0034C179.548 37.2594 179.036 37.4514 178.652 37.7074C178.46 37.7714 178.332 37.9634 178.204 38.0914C177.692 38.3474 177.5 38.4114 177.052 38.6674C177.308 39.4354 177.436 39.5634 177.948 39.7554C178.78 39.6914 179.612 39.7554 180.444 39.6274C181.02 39.5634 181.596 39.3074 182.172 39.1154C182.62 38.9234 183.132 38.6674 183.644 38.4754C183.964 38.3474 184.284 38.3474 184.604 38.1554C185.308 37.7074 186.076 37.3234 186.716 36.9394L186.908 36.8114L186.972 36.8754C186.908 37.0034 186.78 37.1314 186.716 37.1954C186.78 37.2594 186.844 37.3234 186.78 37.3874C186.972 37.3874 187.164 37.3234 187.292 37.2594C187.356 37.3234 187.356 37.3234 187.292 37.3874C187.036 37.5794 186.716 37.8354 186.46 38.0914C186.652 38.2194 186.972 38.2834 187.292 38.4114C187.1 38.4754 187.036 38.5394 186.908 38.6034C186.908 38.6674 186.972 38.7314 186.972 38.7314C187.676 38.4754 188.316 37.9634 189.02 37.5154V37.1314C188.764 37.2594 188.572 37.5154 188.38 37.7074C188.188 37.8354 187.932 38.0274 187.612 38.1554C187.484 38.2194 187.356 38.0914 187.228 38.0274C187.164 37.8994 187.164 37.7714 187.164 37.7074C187.164 37.6434 187.228 37.5794 187.228 37.5794C187.804 37.7074 188.188 37.2594 188.636 37.0034L189.084 36.7474C189.084 36.6194 189.212 36.4914 189.34 36.4274C189.34 36.3634 189.276 36.2354 189.212 36.1074C188.764 36.4914 188.188 36.8114 187.676 37.2594C187.612 37.1954 187.42 37.1314 187.228 37.0674C187.676 36.8114 188.188 36.4914 189.084 35.8514C189.532 35.5314 189.916 35.5954 190.236 35.6594C191.132 35.8514 190.94 36.6834 191.58 38.0914C191.708 38.4114 191.836 38.7954 192.476 38.9234C193.244 38.7314 194.268 36.6834 194.716 35.8514C195.42 34.5714 195.996 33.0354 196.636 31.9474C196.956 31.1794 197.212 30.2834 197.532 29.6434C197.788 29.0674 197.788 29.0674 198.684 28.7474L199.196 29.0674C199.388 28.8114 199.644 28.8754 199.964 29.0674L200.348 29.4514C200.412 29.8354 200.284 30.1554 200.284 30.5394C199.9 32.1394 199.708 33.3554 199.58 34.8914C199.516 35.6594 199.324 36.4914 199.388 37.1954C199.452 37.7074 199.516 38.3474 199.9 38.3474C200.348 38.3474 200.988 37.6434 203.868 33.9314L206.364 30.7314C206.62 30.3474 207.068 30.3474 207.644 30.5394C207.452 30.6034 207.452 30.8594 207.324 30.9874C207.452 31.0514 207.452 31.1154 207.516 31.1794L207.708 30.9874C207.964 31.1794 208.668 31.1794 208.604 31.4994C208.348 32.1394 208.412 32.7154 208.092 33.2274C207.708 35.0834 207.388 37.0034 207.708 38.9234C207.836 39.6274 208.092 40.3954 208.476 40.9074C208.668 41.2274 209.052 41.4194 209.5 41.5474C210.14 41.5474 210.396 41.3554 210.716 41.0994C211.164 41.0994 211.868 40.2034 211.932 40.1394C212.188 39.8834 212.508 39.5634 212.828 39.3714C212.892 39.4354 212.892 39.4354 212.956 39.4354C213.02 39.4354 213.084 39.3714 213.084 39.3074C213.404 39.0514 213.596 38.8594 213.852 38.5394C214.044 38.3474 214.236 38.2194 214.364 37.9634C214.364 37.9634 214.3 37.8994 214.236 37.8994C213.724 38.4114 213.34 38.7954 212.892 39.3074C212.764 39.2434 212.7 39.2434 212.764 39.1794C212.38 39.4354 211.932 39.7554 211.548 40.0754C211.484 40.0114 211.484 40.0114 211.42 40.0114C213.788 38.1554 215.644 35.9154 217.372 33.6754ZM177.436 34.7634C177.244 35.1474 177.116 35.5954 176.988 36.1074C177.5 35.7874 177.82 35.5954 178.076 35.4034C178.204 35.4034 178.332 35.4674 178.396 35.4034C178.588 35.2754 178.908 35.0834 179.164 34.8274C178.972 34.8274 178.908 34.8914 178.716 34.8914C179.1 34.5714 179.292 34.1874 179.74 34.1874C179.612 34.3794 179.42 34.5074 179.292 34.6994C179.292 34.6994 179.292 34.7634 179.356 34.7634C179.932 34.3794 180.444 33.9314 181.02 33.5474L180.892 33.4194C180.764 33.5474 180.636 33.6754 180.38 33.8034C180.188 33.9314 179.996 34.0594 179.74 34.1874C179.804 34.1234 179.804 34.0594 179.804 33.9954C180.444 33.4834 180.956 33.0354 181.532 32.4594C181.916 32.1394 182.172 31.7554 182.428 31.3074C182.62 30.9874 182.3 30.4114 182.044 30.5394C181.468 30.7954 180.892 30.7954 180.38 31.1794C179.804 31.6274 179.228 31.9474 178.78 32.5234C178.268 33.2274 177.82 33.9954 177.436 34.7634ZM183.132 31.1154C182.684 31.6274 182.428 32.1394 182.62 32.8434C182.812 32.4594 183.132 32.0114 183.324 31.6274L183.132 31.1154ZM196.572 34.0594C196.764 33.7394 196.892 33.4194 197.148 32.9714L196.956 32.6514C196.956 32.7154 196.892 32.7154 196.892 32.7794C196.7 33.2274 196.444 33.6754 196.188 34.1234C196.06 34.0594 196.06 34.1874 196.06 34.1874C196.06 34.5714 195.868 34.6994 195.676 34.8914V35.0834C195.676 35.2114 195.42 35.2754 195.42 35.7234C195.228 36.1074 194.972 36.4274 194.78 36.7474C194.652 36.7474 194.588 37.0034 194.588 37.0674C194.652 37.1314 194.652 37.1314 194.716 37.1314L195.164 36.3634C195.228 36.3634 195.228 36.2354 195.228 36.1714C195.548 36.0434 195.74 35.4034 195.996 35.0194C196.124 34.6994 196.38 34.3154 196.572 34.0594ZM204.828 34.1234C205.212 33.9954 205.148 33.7394 204.956 33.5474C204.892 33.6754 204.764 33.8034 204.7 33.9954C204.764 33.9954 204.828 34.0594 204.828 34.1234ZM204.252 34.8274C204.316 34.6994 204.38 34.6354 204.508 34.5714L204.444 34.5074H204.252C204.252 34.5714 204.188 34.6354 204.188 34.6994C204.188 34.7634 204.188 34.7634 204.252 34.8274ZM203.484 35.7234C203.868 35.5954 204.188 35.4034 204.252 35.1474C203.676 35.0834 203.612 35.3394 203.484 35.7234ZM198.172 36.0434C198.236 35.7874 198.172 35.6594 198.172 35.3394H198.044C198.044 35.6594 198.108 35.7874 198.108 36.0434H198.172ZM187.1 36.8114C187.036 36.8114 187.036 36.7474 187.036 36.7474C187.612 36.2994 188.188 36.0434 188.828 35.5954C188.764 35.9154 188.38 36.1074 187.1 36.8114ZM197.724 37.6434C197.788 36.8754 197.852 36.2994 197.596 35.7234C197.788 36.2994 197.212 36.8754 197.724 37.6434ZM185.436 38.0914C185.884 37.8994 186.204 37.7074 186.524 37.5154C186.46 37.3234 185.884 37.5154 185.436 38.0914ZM212.828 39.3714C212.828 39.3074 212.828 39.3074 212.892 39.3074C212.892 39.3074 212.828 39.3074 212.828 39.3714ZM236.082 10.1874C235.89 9.16344 235.89 8.45943 236.274 7.11544C236.594 6.21944 236.978 5.70744 237.362 5.00344C237.49 4.61943 237.682 4.17144 238.066 3.78744C238.322 3.21144 238.898 2.25143 239.41 1.93143L240.178 1.73944C240.114 2.12344 238.898 4.81144 238.642 6.02744C238.386 6.85944 238.322 8.26744 238.322 9.09944C238.322 9.67544 238.962 10.1874 238.258 10.1874C237.49 10.1874 236.978 10.5074 236.082 10.1874ZM241.586 10.1874C241.394 9.16344 241.33 8.45943 241.778 7.11544C242.098 6.21944 242.482 5.70744 242.866 5.00344C242.994 4.61943 243.186 4.17144 243.57 3.78744C243.826 3.21144 244.402 2.25143 244.914 1.93143L245.682 1.73944C245.618 2.12344 244.402 4.81144 244.146 6.02744C243.89 6.85944 243.826 8.26744 243.826 9.09944C243.826 9.67544 244.466 10.1874 243.762 10.1874C242.994 10.1874 242.482 10.5074 241.586 10.1874ZM269.214 49.8674C268.382 49.8034 267.678 49.6114 266.974 49.4194C266.462 49.2914 265.886 49.2274 265.374 49.0354L262.686 47.9474C261.598 47.4994 260.83 46.9234 259.742 46.1554C259.23 45.7714 258.718 45.3874 258.27 45.0034L257.886 45.5794L257.246 46.4754C257.182 46.6034 256.734 47.1154 256.478 47.4354L255.646 48.2674C254.878 48.0114 254.238 47.4994 253.726 46.8594L253.854 46.3474L254.174 45.6434L254.878 44.7474L256.222 42.8274L256.67 42.1234L258.398 39.8194L258.91 39.1154C258.59 38.9234 258.398 38.9234 258.142 38.8594L256.094 38.2194C255.71 38.0274 255.326 37.8994 255.006 37.7074L253.598 37.0034L252.318 36.0434C251.358 35.2114 250.334 34.3794 249.566 33.2914C248.606 32.0114 248.158 30.7314 247.774 29.2594C247.646 28.6834 247.646 28.1074 247.646 27.5314C247.518 27.0834 247.518 26.6354 247.646 26.2514C247.71 25.1634 248.03 24.1394 248.414 23.0514C248.606 22.6674 248.798 22.1554 249.054 21.8354C249.374 21.5154 249.31 21.0034 249.822 20.7474C249.758 20.8754 249.758 20.9394 249.758 21.0034C249.758 21.0034 249.758 21.0674 249.822 21.0674L250.014 20.8754C250.526 20.1074 251.102 19.4034 251.806 18.8274C252.318 18.4434 252.83 17.9314 253.342 17.5474C253.918 17.0354 254.686 16.7154 255.326 16.2674C255.646 16.0754 255.966 15.8194 256.35 15.6914C256.798 15.3714 257.31 15.2434 257.694 15.0514L258.078 14.7954L259.55 14.1554L259.934 13.9634V13.7714L257.31 14.8594C257.246 14.7954 257.246 14.7954 257.246 14.7314C257.374 14.6674 257.502 14.6674 257.566 14.6034L260.126 13.5154C260.702 13.1954 261.278 12.9394 261.854 12.6834C262.174 12.5554 262.43 12.6194 262.686 12.4274H263.198C264.35 12.1074 264.798 11.9154 265.694 11.7874C266.462 11.6594 267.166 11.5314 267.934 11.4674C268.766 11.4034 269.79 11.3394 270.622 11.3394C271.838 11.3394 272.99 11.4034 274.078 11.4674C274.782 11.5314 275.87 11.7874 276.51 11.9154L276.638 11.7874C276.83 11.4034 277.086 11.0834 277.342 10.7634C277.598 10.5074 277.79 10.5074 277.982 10.7634L278.75 11.2114C278.814 11.2754 279.006 11.3394 279.134 11.3394C279.134 11.2114 279.582 11.4674 279.582 11.5314C279.774 11.7874 279.902 11.9154 279.966 12.0434C279.966 12.2354 279.71 12.8754 279.518 13.1314C280.03 13.4514 280.478 13.6434 280.926 13.9634C281.438 14.2194 281.886 14.5394 282.27 14.8594C283.294 15.7554 284.254 16.7154 285.214 17.6754C285.79 18.2514 286.174 18.9554 286.558 19.5954C287.006 20.3634 287.518 21.0674 287.838 21.8354C288.286 22.7314 288.478 23.7554 288.67 24.7154L289.118 26.7634C289.182 27.0834 289.118 27.2114 288.862 27.4674C288.99 27.4674 289.054 27.4674 289.118 27.5314C289.182 27.5314 289.31 27.5954 289.31 27.6594C289.31 27.6594 289.182 27.7234 289.182 27.8514C289.118 27.9154 289.054 28.0434 289.054 28.1074C289.31 28.3634 289.182 28.6194 289.31 28.8114C289.31 29.0034 289.31 29.1314 289.182 29.3234C289.566 30.0274 289.502 30.7314 288.99 31.4354C289.438 31.6274 289.502 31.6914 289.31 32.1394C289.31 32.2674 289.31 32.3314 289.182 32.4594L288.99 32.9714C289.118 33.0354 289.182 33.2274 288.926 33.2914C289.182 33.6114 289.118 33.7394 288.862 33.8674C288.798 33.8674 288.798 33.9954 288.67 33.9954C289.182 34.3154 288.798 34.5074 288.798 34.8274L288.542 34.5714C288.542 34.8274 288.542 34.9554 288.478 35.1474C288.414 35.2114 288.35 35.3394 288.158 35.3394C288.094 35.3394 288.03 35.2114 287.902 35.1474L288.094 34.9554C288.414 34.8274 288.414 34.5074 288.158 34.0594C288.286 34.0594 288.35 34.0594 288.414 33.9954C288.414 33.8034 288.35 33.4834 288.35 33.2274L288.542 33.3554C288.542 33.2914 288.606 33.2274 288.542 33.2274C288.478 32.9074 288.542 32.7154 288.606 32.4594C288.798 32.1394 288.798 31.7554 288.798 31.3714V30.7314C288.798 30.6674 288.798 30.6034 288.67 30.4114H288.606C288.414 31.6274 288.286 32.7154 288.094 33.8674C288.094 33.8674 286.814 36.8114 286.686 37.2594C286.686 37.3234 285.662 39.3714 285.086 40.1394L284.51 40.9074L284.062 40.8434C284.318 40.4594 284.638 40.1394 284.766 39.7554C284.51 39.8194 284.83 39.4354 284.958 39.4994C285.278 39.1154 285.854 38.0274 286.366 36.9394L287.582 33.9314L287.39 34.1234C287.198 34.3794 286.814 34.5074 286.75 34.8274C286.75 34.8914 286.558 34.8914 286.558 34.8914C286.494 34.8914 286.494 34.8914 286.43 34.8274C286.686 34.5714 286.814 34.3154 286.942 34.0594C286.942 33.9954 287.006 33.9954 287.006 33.9954C287.006 33.5474 287.518 33.2914 287.39 32.7794C287.326 32.3954 287.518 32.0114 287.582 31.6274C287.71 31.5634 287.582 31.3714 287.582 31.3074C287.838 30.6674 287.966 29.9634 288.094 29.2594C288.094 29.1314 288.094 29.0034 288.158 28.8114H288.03L287.838 29.5154C287.71 29.9634 287.518 30.3474 287.454 30.7954C287.326 31.3714 287.262 32.0114 287.07 32.6514C287.006 33.0354 287.006 33.4834 286.686 33.8674C286.558 33.9314 286.686 34.0594 286.558 34.1234C286.494 34.3154 286.494 34.5074 286.43 34.5074C286.11 34.6354 286.11 35.0194 285.918 35.2114C286.11 35.4034 286.366 35.4674 286.174 35.6594C285.982 35.7234 285.854 35.9154 285.662 35.9794C285.854 35.9154 286.238 35.8514 286.366 35.7234C286.302 36.1074 286.238 36.4914 286.11 36.7474C285.918 37.1314 285.726 37.4514 285.598 37.7714C285.406 38.0274 284.958 38.1554 284.766 38.3474C284.766 38.3474 284.766 38.2834 284.702 38.2834C284.83 38.0274 284.958 37.7074 285.15 37.5154C285.15 37.4514 285.086 37.4514 285.086 37.4514C284.894 37.8354 284.574 38.0914 284.574 38.6034C284.574 38.6674 284.51 38.7954 284.382 38.8594C283.998 38.9234 283.806 39.3714 283.614 39.6914L282.718 40.7794C282.654 40.7794 282.654 40.7154 282.654 40.7154C282.654 40.6514 282.718 40.4594 282.782 40.3954C283.166 39.8834 283.614 39.3714 283.87 38.7954C284.51 37.7714 285.086 36.7474 285.47 35.6594C285.854 35.0194 285.982 34.3154 286.238 33.6114C286.43 32.9714 286.558 32.3314 286.75 31.6914C286.814 31.2434 286.814 30.7314 286.878 30.2194C286.878 29.9634 286.942 29.6434 287.006 29.3234C287.006 29.1314 286.878 29.0034 286.878 28.8114C286.814 28.3634 286.878 27.8514 286.814 27.3394C286.814 26.7634 286.878 26.0594 286.686 25.4834C286.494 24.9714 286.686 24.3954 286.302 23.8834C286.11 23.4354 285.982 22.8594 285.854 22.3474L285.662 21.8354V21.6434H285.726L285.982 22.0274C285.982 21.7074 285.918 21.5794 285.662 21.5154C285.47 21.4514 285.278 21.1314 285.15 20.9394L283.806 18.7634C283.614 18.3794 283.294 17.9954 283.102 17.7394L282.718 17.3554C282.014 16.7154 281.374 16.0754 280.67 15.3714C280.606 15.3714 280.606 15.3074 280.542 15.2434C280.99 15.3074 281.182 15.6274 281.438 15.8194C281.822 16.1394 282.142 16.3314 282.462 16.6514C282.462 16.5234 282.526 16.3954 282.462 16.3314L281.31 15.3714C281.054 15.2434 280.862 15.1154 280.67 14.9234C280.286 14.4754 279.582 14.2834 279.07 13.9634H278.878C279.07 14.0914 279.262 14.2194 279.39 14.3474V14.4754C279.198 14.3474 278.942 14.2194 278.686 14.1554C278.366 14.5394 278.174 14.9234 277.854 15.3714C277.47 15.8834 277.15 16.4594 276.702 17.0354C276.318 17.7394 275.87 18.3794 275.486 19.0194C275.294 19.3394 275.102 19.5314 274.91 19.7234L274.782 20.0434C274.526 20.5554 274.27 21.1954 273.95 21.6434C273.502 22.0274 273.374 22.6034 273.054 23.0514L271.774 25.0354C271.326 25.8674 270.814 26.6354 270.366 27.4034C270.238 27.6594 270.174 27.9154 269.79 27.9794V28.2354C269.598 28.5554 269.342 28.8114 269.214 29.1954C269.086 29.5794 268.766 29.8354 268.574 30.1554C268.318 30.3474 268.254 30.6034 268.062 30.7954C267.934 31.1154 267.678 31.3074 267.55 31.6274C267.294 31.8194 267.102 32.1394 266.974 32.3954L266.142 33.7394C265.95 34.0594 265.63 34.3794 265.374 34.6354C265.182 34.9554 265.118 35.1474 264.99 35.4034L264.35 36.0434C264.286 36.1714 264.286 36.2994 264.222 36.4914C263.838 37.0034 263.454 37.5154 263.198 38.0914C263.134 38.0914 263.134 38.1554 263.006 38.2194C264.798 38.1554 266.462 38.0914 268.126 37.8994C268.126 38.0274 268.126 38.0274 268.19 38.0914C267.998 38.0914 267.742 38.0914 267.55 38.1554C267.294 38.1554 267.102 38.2194 266.91 38.2194L266.974 38.2834C267.55 38.2194 268.126 38.2194 268.83 38.1554C268.702 38.0914 268.638 38.0274 268.574 38.0274V37.8994L270.366 37.6434C270.366 37.7074 270.366 37.7074 270.43 37.7714C269.918 37.8354 269.534 37.8994 269.086 38.0914V38.1554L270.494 37.8994L272.03 37.7074C272.478 37.6434 272.926 37.6434 273.438 37.5794C273.694 37.5794 273.95 37.3234 274.27 37.2594C274.526 37.1954 274.782 37.1954 275.102 37.1314C275.166 37.1314 275.294 37.2594 275.422 37.2594V37.4514L274.014 37.6434C273.95 37.6434 273.822 37.6434 273.694 37.7074C273.502 38.0914 273.118 38.0274 272.862 38.0914L270.942 38.5394C269.726 38.6674 268.51 38.9234 267.166 38.9234C266.398 38.9234 265.566 39.3074 264.798 39.2434C264.542 39.1794 264.414 39.1794 264.222 39.1794C264.286 39.1154 264.35 39.0514 264.414 39.0514L264.35 38.9234C263.774 39.3074 263.006 39.0514 262.366 39.2434L262.238 39.4994C262.046 39.8194 261.918 39.8834 261.662 40.2674C261.342 40.5234 261.15 40.9074 260.894 41.2274C260.638 41.8034 260.318 42.1874 259.934 42.7634L259.038 43.9794C259.422 44.4274 259.934 45.0034 260.574 45.4514C261.278 45.9634 262.302 46.5394 262.942 46.8594C263.646 47.1794 264.414 47.4354 265.054 47.6274C266.206 47.9474 266.974 48.0114 268.126 47.9474L270.302 47.6914C270.878 47.6274 271.454 47.6274 272.03 47.4354C272.734 47.3074 273.31 47.1154 273.95 46.9234C274.142 46.8594 274.462 46.9234 274.718 46.9234V46.6674C275.038 46.6674 275.23 46.6034 275.486 46.5394V46.6674L274.974 46.8594V46.9234L275.806 46.7314C275.742 46.6674 275.678 46.6034 275.678 46.5394V46.3474C276.062 46.7954 276.254 46.4114 276.574 46.2834C276.766 46.1554 277.086 46.0914 277.342 45.8994V45.7714C277.022 45.8994 276.702 46.0914 276.318 46.1554C276.254 46.2194 276.126 46.2194 276.062 46.2194L276.254 45.8994C276.766 45.5794 277.278 45.1954 277.854 44.8114L278.878 44.1714H279.006C279.326 44.4274 279.454 44.1714 279.71 44.0434C279.838 43.9154 280.03 43.9154 280.222 43.8514C280.35 43.7234 280.478 43.6594 280.478 43.5314C280.478 43.3394 280.606 43.1474 280.798 43.0834C280.926 42.9554 280.99 42.6994 281.182 42.5714C281.31 42.5074 281.438 42.5074 281.566 42.5074C281.502 42.5714 281.438 42.6354 281.374 42.8274C281.63 42.8274 281.694 42.6994 281.886 42.3154C281.694 42.3154 281.566 42.3154 281.438 42.2514L281.822 41.8674C281.95 41.9314 282.014 41.9954 282.078 42.1234C282.078 42.0594 282.142 42.0594 282.142 42.0594C282.142 41.9954 282.078 41.9954 282.014 41.8674C282.462 41.9954 282.654 41.8034 282.782 41.4834C282.974 41.2914 283.166 41.0994 283.422 40.9714C283.422 41.0354 283.486 41.0354 283.486 41.0354L282.782 41.9314V42.0594C283.038 41.9954 283.23 41.9954 283.422 41.9314C283.422 42.6354 282.782 43.2114 282.206 42.9554L283.038 42.3794C282.654 42.0594 282.59 42.0594 282.462 42.3794C282.462 42.4434 282.398 42.5074 282.398 42.5074C282.206 42.5714 282.014 42.6354 282.078 42.8914C282.142 42.9554 281.95 43.0834 281.886 43.1474C282.014 43.2114 282.142 43.2114 282.462 43.3394C282.014 43.5954 281.694 43.9154 281.438 44.1074C281.438 44.1714 281.438 44.1714 281.502 44.1714C282.014 44.0434 282.462 43.5314 282.91 43.1474C283.294 42.8914 283.614 42.3794 284.062 41.9954C283.998 42.0594 283.998 42.1234 283.87 42.3154L284.51 41.8034C284.574 41.7394 284.51 41.5474 284.51 41.4194C284.574 41.4194 284.702 41.3554 284.702 41.3554C284.702 41.2274 284.702 41.0354 284.766 40.9074C284.83 40.7794 284.958 40.5234 285.214 40.7154C285.342 40.4594 285.47 40.2034 285.662 40.0114C286.11 39.7554 286.11 39.2434 286.43 38.8594C286.494 38.7954 286.686 38.7954 286.75 38.7314C286.75 38.7314 286.75 38.7954 286.814 38.7954L286.238 39.8834C286.238 39.8834 286.238 39.9474 286.302 39.9474C286.43 39.6914 286.686 39.4354 286.814 39.2434C286.814 39.3714 286.75 39.6274 286.75 39.8194H286.558L286.814 39.9474L286.43 40.1394C286.814 40.5234 286.238 40.7154 286.11 40.9714L285.854 40.7154C285.918 40.4594 286.11 40.3954 286.366 40.5234C286.302 40.3954 286.238 40.2674 286.11 40.1394L283.678 43.0834C283.742 43.1474 283.87 43.2114 284.062 43.4034L284.382 43.0194C284.51 43.0194 284.51 43.0194 284.574 43.0834C284.382 43.2114 284.254 43.4034 284.126 43.5954L283.998 43.4674C283.742 43.5954 283.55 43.7234 283.294 43.9794C283.166 44.1074 283.038 44.1714 282.782 44.2994V44.2354L283.678 43.3394C283.678 43.2114 283.614 43.2114 283.614 43.1474C283.294 43.4034 283.038 43.5954 282.718 43.9154H282.782C282.654 43.9794 282.526 43.9794 282.462 44.0434C282.142 44.2354 281.95 44.4914 281.63 44.6194C281.182 44.9394 280.67 45.1314 280.286 45.2594C279.902 45.5154 279.454 45.6434 279.07 45.7714C278.878 45.8994 278.75 46.0914 278.622 46.2194C278.43 46.2834 278.302 46.5394 278.11 46.3474C278.11 46.2834 277.918 46.4114 277.854 46.4114V46.6034C278.174 46.5394 278.43 46.6034 278.686 46.4114C279.262 46.2194 279.774 45.8994 280.35 45.6434C280.414 45.6434 280.414 45.5794 280.478 45.5794C281.054 45.6434 281.374 45.2594 281.694 44.9394C281.95 44.6834 282.27 44.5554 282.654 44.4274C282.59 44.4914 282.59 44.5554 282.59 44.6834C282.782 44.4914 283.102 44.2994 283.294 44.1714C283.294 44.2354 283.294 44.2354 283.422 44.2994C283.038 44.4274 282.91 44.9394 282.398 44.7474C282.078 44.6834 281.95 45.0674 281.886 45.2594C281.566 45.7074 281.31 46.0914 280.798 46.2834L279.006 46.7314L278.11 47.1794C277.662 47.3714 277.278 47.4354 276.766 47.4354C276.702 47.3714 276.638 47.4354 276.574 47.4994H276.894L277.022 47.6274C276.19 47.7554 275.486 48.1394 274.654 48.1394C274.27 48.1394 274.014 48.3314 273.63 48.5234C274.782 48.4594 275.998 48.5234 277.15 48.2034V48.2674C276.638 48.4594 276.126 48.5874 275.55 48.8434C275.294 48.8434 274.974 48.7794 274.59 48.7154C274.654 48.9714 274.27 49.0994 273.63 49.0354L274.27 48.8434C274.206 48.8434 274.206 48.7794 274.206 48.7794L273.374 49.0354C272.798 49.0354 272.094 49.0354 271.454 48.9714C271.774 49.4194 272.286 49.2274 272.542 49.3554C272.03 49.4194 271.454 49.6114 270.878 49.4834C270.622 49.4194 270.238 49.4834 269.854 49.4834H269.086L269.022 49.5474L269.726 49.8034V49.8674H269.214ZM259.23 37.8354C259.55 37.8994 259.742 37.8994 259.934 37.7074C260.51 36.8114 261.086 36.0434 261.662 35.2114C262.11 34.6354 262.43 33.9954 262.878 33.4194C262.942 33.2914 263.198 33.1634 263.262 33.1634C263.838 33.1634 263.838 33.1634 264.094 32.7154C264.03 32.7794 263.902 32.8434 263.774 32.9714C263.774 32.9074 263.774 32.9074 263.71 32.9074C263.838 32.7154 263.902 32.5234 263.966 32.3314C263.774 32.5234 263.518 32.7794 263.39 32.9714C263.326 32.9714 263.326 32.9074 263.326 32.9074C265.694 29.1314 268.19 25.2914 270.686 21.5154C270.686 21.5154 270.75 21.5154 270.75 21.5794C270.686 21.7074 270.622 21.9634 270.43 22.1554C270.686 22.0914 270.75 22.0914 270.814 22.0914V21.6434C270.878 21.5794 270.942 21.4514 270.878 21.4514C270.686 21.1314 270.878 20.9394 270.942 20.7474L273.63 16.3954C273.822 16.1394 274.014 15.8834 274.206 15.5634C274.27 15.6914 274.27 15.7554 274.27 15.8194L275.102 14.7314C274.974 14.6674 274.91 14.6034 274.718 14.6034C275.23 14.1554 275.166 13.4514 275.87 13.1954C273.822 12.8114 272.606 12.6834 270.046 13.0034C268.83 13.1314 268.062 13.3874 267.166 13.5154C266.206 13.7074 265.438 14.0914 264.67 14.3474C264.35 14.4754 264.094 14.4114 263.774 14.5394L263.262 14.7954C263.006 14.9234 262.878 15.0514 262.622 15.1154C262.238 15.3074 261.854 15.3714 261.534 15.4994C260.894 15.8834 260.19 16.0754 259.742 16.6514C259.742 16.7154 259.55 16.7154 259.422 16.7154C259.23 16.7794 259.102 16.8434 259.038 16.9074L258.59 17.2274C257.694 17.7394 256.798 17.9954 255.902 18.7634C255.262 19.2754 254.43 19.6594 253.854 20.3634C253.79 20.4274 253.662 20.4274 253.534 20.4914C253.662 20.2354 253.726 20.1074 253.854 19.9794L253.79 19.9154C253.534 20.1074 253.214 20.4274 253.022 20.6194H253.406L252.702 21.5154C252.318 21.9634 251.934 22.2834 251.614 22.7314C251.23 23.3074 251.038 23.9474 250.718 24.5234L250.398 24.9714L250.142 24.6514C250.078 24.7794 250.014 24.8434 249.886 24.9714C250.462 25.1634 250.462 25.3554 250.142 25.8034C250.078 25.9314 250.014 26.1234 250.078 26.3794C250.078 26.6354 249.95 26.8914 249.63 26.8274H249.438C249.438 26.8274 249.438 26.8914 249.374 26.8914C249.566 26.9554 249.822 27.0194 250.078 27.1474L249.566 27.4034C249.758 27.5314 249.886 27.6594 249.95 27.8514C249.95 28.0434 249.95 28.2354 249.886 28.5554C249.886 28.7474 249.822 29.0674 249.822 29.3234C249.566 29.1954 249.502 29.0674 249.374 28.9394C249.438 29.2594 249.438 29.5154 249.502 29.7714L249.566 29.8354C249.566 29.4514 249.822 29.4514 250.142 29.5154C249.95 29.7714 249.822 30.0914 249.758 30.3474H249.822L250.334 30.6034L249.886 30.7954C250.462 30.8594 250.462 30.8594 250.526 31.5634V31.6274C250.846 31.9474 250.526 31.9474 250.206 32.0114C250.526 32.2034 250.846 32.3314 250.654 32.6514L251.166 32.7794C251.166 33.0354 251.422 33.2274 251.486 33.3554C251.614 33.5474 251.678 33.8034 251.742 33.9954C251.998 34.1234 252.19 34.3154 252.318 34.4434C252.574 34.6354 252.766 35.0194 253.086 35.2114C253.406 35.5954 253.854 35.8514 254.238 36.1074L255.262 36.6194C256.094 37.0034 256.862 37.1954 257.63 37.4514C258.206 37.5794 258.718 37.6434 259.23 37.8354ZM259.23 13.7074C259.23 13.6434 259.166 13.6434 259.166 13.5794C259.614 13.4514 259.998 13.1954 260.318 13.0674C260.446 13.0674 260.446 13.0674 260.446 13.1314C260.062 13.2594 259.614 13.5154 259.23 13.7074ZM280.414 15.1794L279.518 14.6034C279.518 14.5394 279.518 14.5394 279.582 14.4754L280.478 15.0514C280.478 15.1154 280.414 15.1154 280.414 15.1794ZM255.838 15.5634C255.774 15.5634 255.774 15.4354 255.774 15.4354L256.734 15.0514C256.734 15.0514 256.798 15.0514 256.798 15.1154L255.838 15.5634ZM252.446 17.9314C252.318 17.9314 252.318 17.8674 252.254 17.8674C252.638 17.6754 252.894 17.4194 253.214 17.1634L253.342 17.2914C253.022 17.4834 252.702 17.7394 252.446 17.9314ZM250.846 19.5314C250.846 19.4674 250.718 19.4674 250.718 19.4674C250.974 19.1474 251.23 18.8914 251.486 18.6354C251.55 18.6354 251.55 18.6354 251.55 18.7634C251.358 18.9554 251.038 19.2754 250.846 19.5314ZM286.814 39.2434L287.07 38.5394C286.942 38.5394 286.878 38.6034 286.75 38.6674C286.75 38.6034 286.686 38.6034 286.686 38.6034C286.75 38.3474 286.878 38.2194 286.942 38.0274C287.006 37.8354 287.006 37.6434 287.006 37.4514C287.006 37.1314 287.07 36.9394 287.39 36.7474C287.582 36.6834 287.71 36.5554 287.454 36.2994C287.582 36.2994 287.71 36.2354 287.774 36.1714V35.4674C288.03 35.5314 288.286 35.5314 288.478 35.5314C288.478 35.4034 288.606 35.2114 288.67 34.9554C288.67 35.5954 288.414 36.1074 288.094 36.0434V36.1074C288.478 36.5554 288.03 37.0034 287.902 37.3234C287.774 37.8994 287.39 38.4114 287.07 38.9234C287.006 39.0514 286.878 39.1154 286.814 39.2434ZM274.91 36.4914L275.614 36.2354C275.486 36.6194 275.166 36.6834 274.91 36.4914ZM276.062 37.0674V37.0034C276.318 36.9394 276.638 36.7474 277.022 36.6834V36.8114L276.062 37.0674ZM271.582 37.5794C271.518 37.5154 271.518 37.5154 271.518 37.4514L273.182 37.1954V37.2594C272.606 37.4514 272.094 37.5154 271.582 37.5794ZM283.422 40.9074L283.294 40.8434C283.614 40.4594 283.998 39.3714 284.254 39.4994C284.574 39.1794 284.766 38.7314 284.894 38.3474L285.278 38.2194C284.958 38.7954 284.574 39.3714 283.422 40.9074ZM281.822 41.5474L282.462 40.9074C282.142 41.6114 282.142 41.6114 281.822 41.5474ZM283.678 41.7394C283.614 41.7394 283.55 41.6114 283.55 41.5474L283.998 41.0994C284.062 41.4194 283.998 41.6114 283.678 41.7394ZM285.278 41.5474C285.342 41.3554 285.47 41.2274 285.598 41.0994L285.854 41.3554C285.854 41.4194 285.854 41.4194 285.278 41.5474ZM277.726 48.1394C277.726 48.1394 277.726 48.0114 277.662 48.0114C277.918 47.8834 278.174 47.7554 278.43 47.6914C278.43 47.7554 278.494 47.7554 278.494 47.8194C278.238 47.8834 277.982 48.0114 277.726 48.1394ZM326.884 33.6754C326.948 33.8034 326.692 33.9314 326.436 33.8034L325.284 33.4834C325.092 33.4194 325.028 33.4194 324.964 33.1634C325.028 33.0994 324.9 33.0354 324.836 33.0354L324.772 33.2274C324.58 33.0994 323.748 33.0994 323.556 33.0354C323.428 33.0354 323.044 32.9074 322.852 32.8434C322.916 32.6514 323.044 32.4594 323.108 32.4594C323.236 32.4594 323.428 32.7154 323.556 32.7794C323.492 32.8434 323.62 32.8434 323.62 32.8434C323.812 32.8434 324.004 32.9074 324.26 32.7154C323.94 32.6514 323.62 32.5234 323.428 32.3954C323.748 32.1394 324.068 32.4594 324.452 32.4594C324.452 32.3314 324.516 32.2674 324.58 32.0114C324.516 32.1394 324.132 31.9474 323.94 32.0114C323.556 32.1394 323.3 31.9474 322.916 31.8194L322.98 31.7554H323.236C322.788 31.6274 322.724 31.4994 322.724 31.3074L321.764 30.8594C321.572 30.8594 321.828 30.9874 321.572 30.9874C320.932 30.8594 320.484 30.7314 320.036 30.7314C319.972 30.7314 320.036 30.8594 319.908 30.9874L319.972 31.1154C320.356 31.0514 320.676 31.2434 320.932 31.1794C321.124 31.1154 321.252 31.2434 321.252 31.4354L322.404 31.4994V31.7554L322.084 32.2674L322.02 32.5874L321.636 32.5234L319.46 32.3314L319.012 33.7394C319.076 34.1874 318.756 35.0194 318.756 35.4674L318.372 36.4274L318.244 37.0034C318.116 37.1314 317.86 37.1954 317.86 37.2594L317.924 38.8594C317.796 39.3714 317.668 39.8194 317.604 40.2674L317.54 41.3554C317.476 42.4434 317.412 43.6594 317.86 44.8754C317.924 45.5154 318.372 46.2194 318.82 46.6034C319.908 47.6914 321.572 47.3074 321.892 46.7954L322.084 46.9874C321.508 47.8834 320.74 48.5234 319.716 48.5874C316.9 48.9074 315.684 47.5634 315.044 44.8754C314.66 43.8514 314.788 42.0594 314.852 41.0354L315.044 39.6914C315.236 38.4754 315.428 37.6434 315.62 36.4914C315.812 35.5314 316.516 33.3554 316.708 32.3954L316.324 32.2674C316.388 32.2034 316.452 32.1394 316.516 32.1394L316.26 31.9474H316.004L314.724 31.8194C314.788 31.8834 314.916 32.0114 314.98 31.9474L315.556 32.0114C315.748 32.0754 316.004 32.1394 316.324 32.1394C316.26 32.2034 316.068 32.2674 315.748 32.2674L314.98 32.1394L312.548 32.0754H308.452L306.852 32.0114C306.596 31.9474 306.276 32.0114 305.892 32.0114C305.636 32.0114 305.38 32.1394 305.06 32.0754C304.996 32.2674 304.804 32.3954 304.036 33.1634C303.972 33.2914 303.972 33.3554 303.908 33.4194C303.332 34.1874 303.14 34.8274 302.628 35.4674L302.244 35.5954C302.244 35.4674 302.308 35.3394 302.308 35.2114C302.308 35.0834 302.436 34.8914 302.5 34.8274C302.18 34.6994 302.18 34.6994 302.116 35.1474C302.116 35.2754 302.052 35.3394 301.988 35.4674L302.18 35.7874C302.18 36.3634 301.924 36.4274 301.54 36.7474C301.476 36.8114 301.284 36.8114 301.348 37.0674C301.284 37.1314 301.22 37.2594 301.156 37.2594C300.836 37.3234 300.708 37.5794 300.644 37.9634C300.644 38.2834 300.452 38.3474 300.324 38.5394C300.004 38.7954 299.812 39.1154 299.748 39.3714C299.556 39.6274 299.236 39.7554 299.108 39.4994C299.108 39.4994 299.044 39.4354 299.044 39.3074H298.852C298.916 39.6914 298.916 39.6914 298.788 40.3314C298.788 40.3954 298.66 40.3954 298.66 40.3954L298.468 40.7794C298.468 40.9714 298.468 41.1634 298.404 41.2274C298.148 41.4194 298.084 41.6114 297.956 41.8034C297.828 42.0594 297.7 42.1234 297.444 41.9954L297.572 42.3794C297.38 43.0194 296.996 43.0834 296.548 43.2754V43.4034C296.356 43.7874 296.292 44.1074 296.228 44.4274C296.1 44.5554 295.972 44.9394 295.844 45.1314C295.588 45.5154 295.46 45.7074 295.332 46.0274L295.076 46.2834L295.524 46.1554L295.268 47.0514C295.012 47.1794 294.948 47.1794 294.884 47.1794C294.884 47.2434 294.884 47.3714 294.948 47.4354C295.012 47.4994 294.82 47.4994 294.756 47.5634L294.5 47.8194H294.884V47.8834C294.884 47.8834 294.82 47.9474 294.756 47.9474C294.564 47.8834 294.372 48.1394 294.244 48.3314C294.18 48.8434 294.116 49.2914 293.86 49.6754C293.668 49.9314 293.796 50.2514 293.796 50.6354L293.54 52.0434L293.348 53.0034C293.284 53.2594 293.348 53.5154 293.284 53.6434C293.284 53.8354 293.22 53.9634 293.22 54.0914C293.092 54.0274 292.964 53.9634 292.9 53.8994C292.516 52.4914 292.58 51.2754 292.772 49.8034C293.092 48.0754 293.54 46.6034 294.052 45.0674C294.308 44.6194 294.564 44.1714 294.692 43.7874C294.692 43.7874 294.756 43.7874 294.884 43.8514C294.436 44.5554 294.116 45.4514 293.796 46.2194C293.796 46.7314 293.668 47.1794 293.604 47.5634L294.244 45.6434C294.436 45.1954 294.564 44.6194 294.756 44.2354C294.756 44.1074 294.948 44.0434 294.948 43.9154C295.332 43.2754 295.716 42.6354 295.908 41.9314L296.1 41.4194H296.356V41.5474C296.42 41.4834 296.42 41.3554 296.42 41.2914C296.42 41.2274 296.484 41.1634 296.42 41.1634C296.548 40.7794 296.612 40.5874 296.996 40.5234C296.932 40.5234 296.932 40.4594 296.868 40.3954L296.612 40.4594C297.252 39.4354 297.7 38.6034 298.276 37.7074C298.276 37.7074 298.276 37.7714 298.34 37.7714L297.252 39.6914V39.7554L298.02 38.6034C298.148 38.2834 298.404 37.8994 298.66 37.5154L300.324 34.8914C300.516 34.5714 300.772 34.3794 301.028 33.9954L301.348 33.4194C301.092 33.6114 301.028 33.8034 300.836 33.9954C300.9 33.6754 301.476 32.7154 301.668 32.3954C301.412 32.3954 300.9 32.3314 300.708 32.3954H299.236C298.404 32.3954 297.764 32.5234 296.996 32.5874C296.676 32.4594 296.356 32.5874 295.972 32.5234C295.652 32.3954 294.948 30.9234 295.46 30.3474C295.716 30.1554 296.1 29.9634 296.292 29.9634C297.956 29.7714 299.492 29.8994 301.028 29.7714C301.924 29.7074 302.5 29.7074 303.396 29.7074C303.716 29.7714 303.972 29.0034 304.292 28.7474C304.42 28.6834 304.484 28.5554 304.676 28.4914L304.804 28.5554L303.908 29.4514C304.42 29.5154 304.548 28.8754 304.868 28.6834C305.124 28.4274 305.444 28.1714 305.636 27.7874C305.7 27.4674 306.084 27.4034 306.212 27.0194C306.916 26.2514 307.62 25.5474 308.26 24.7794C307.812 24.9714 307.556 25.1634 307.492 25.3554C307.428 25.4194 307.428 25.3554 307.428 25.3554C307.62 25.0994 307.748 24.9074 307.94 24.7154L308.26 24.7794C309.732 23.2434 311.14 21.7714 312.548 20.2354C314.852 17.8674 317.156 15.6914 319.46 13.7074V13.5794L318.884 13.8354L317.988 14.7314C317.348 15.3714 316.644 15.6914 316.004 16.5234L315.748 16.7154V16.5874C315.94 16.2674 316.068 15.9474 316.26 15.7554L316.388 15.4994C316.388 15.1794 316.516 15.1794 316.644 15.1794C316.836 15.1154 316.964 14.9874 317.092 14.9234C317.284 14.7954 317.54 14.4754 317.732 14.5394C317.796 14.6034 317.924 14.5394 317.988 14.4114L318.372 14.0914C318.308 13.7074 318.628 13.4514 318.82 13.4514C318.884 13.3234 319.012 13.1954 319.14 13.0674C319.524 12.6834 320.036 12.4914 320.548 12.1074C320.932 11.5954 321.38 11.2114 321.892 11.2754C322.02 11.3394 322.148 11.2754 322.148 11.2114C322.532 10.9554 322.788 10.8274 323.236 10.8914C323.3 10.8914 323.364 10.9554 323.492 11.0194C323.812 11.4034 324.196 11.4674 324.708 11.6594C324.964 11.7874 325.22 12.1074 325.092 12.5554C325.156 12.6834 325.156 12.8114 325.156 12.9394L324.9 13.5794C324.772 13.8994 324.58 14.2194 324.708 14.6674C324.772 15.0514 325.156 15.3714 324.772 15.6914C324.708 15.7554 324.644 16.0114 324.644 16.1394C324.388 17.0354 324.196 17.5474 324.004 18.2514C323.812 18.8274 323.62 19.2754 323.556 19.7234C323.364 20.0434 323.236 20.4274 323.172 20.8114L322.276 24.0754L322.02 24.6514C321.828 25.2914 321.636 25.8674 321.316 26.3794C321.316 26.7634 321.188 27.0834 321.124 27.3394C320.868 27.8514 320.804 28.2994 320.612 28.8114C320.548 29.0034 320.484 29.1954 320.356 29.3234L320.036 30.2834L321.956 30.6674C322.98 30.9234 323.684 31.1794 324.58 31.4994C325.476 31.8194 324.964 31.6914 325.54 32.1394C325.988 32.3954 326.372 32.7154 326.756 33.2274C326.948 33.4194 326.692 33.2274 326.884 33.6754ZM318.116 29.9634C318.628 29.1314 321.508 19.0834 321.444 18.5714C321.252 19.2114 320.996 19.8514 320.868 20.4274C320.868 20.5554 320.676 20.8114 320.612 20.9394C320.74 21.3234 320.484 21.5794 320.42 21.8354C320.356 21.9634 320.484 22.0274 320.356 22.2194C320.228 22.4754 319.972 22.6674 319.972 23.2434V23.5634C319.524 24.2674 319.396 25.0354 319.012 25.7394C318.884 26.0594 318.884 26.4434 318.756 26.8274C318.628 27.3394 318.436 27.6594 318.372 27.9794C318.372 28.0434 318.18 28.1074 318.18 28.1074L318.052 27.9794C318.244 27.4034 318.436 26.6354 318.628 25.9954C318.756 25.7394 318.82 25.4834 318.948 25.2274L319.204 24.3314L319.716 22.6674C320.036 21.6434 320.356 20.4914 320.676 19.4034C320.932 18.6354 321.188 17.6754 321.572 16.9714C321.636 16.3314 322.148 14.6674 322.34 13.9634H322.02C321.764 14.3474 320.612 15.3714 320.228 15.6914C320.036 16.1394 319.652 16.5234 319.268 16.8434C318.82 17.2274 318.436 17.6754 318.116 18.0594C317.476 18.5714 317.028 18.8914 316.516 19.4034C316.068 19.7234 315.748 20.1714 315.364 20.7474C315.172 20.9394 314.852 21.1954 314.596 21.5154C314.468 21.7074 314.148 22.0274 313.956 22.1554C313.508 22.4754 313.188 22.7314 312.932 23.2434C312.612 23.6914 312.036 24.0114 311.716 24.4594C311.46 24.6514 311.268 24.7154 311.14 25.0994C310.82 25.2914 310.564 25.6114 310.308 25.9314L309.732 26.7634C308.9 27.7874 308.132 28.6834 307.3 29.6434C307.94 29.5794 308.516 29.6434 308.964 29.5794C309.604 29.7714 310.244 29.7074 310.884 29.7714C311.396 29.7074 311.844 29.7714 312.356 29.7074C312.804 29.8354 313.38 29.8994 313.956 29.8354C314.468 29.8994 314.916 29.8994 315.62 29.9634L317.476 30.0914L317.988 28.2354H318.18C318.18 28.2354 318.244 28.2994 318.244 28.3634L318.052 29.5154L317.86 29.8994C317.988 29.9634 318.052 29.9634 318.116 29.9634ZM315.3 17.1634L313.828 18.7634C313.828 18.7634 313.7 18.7634 313.508 18.6994C313.956 18.1874 314.468 17.8034 314.852 17.4194C314.98 17.2914 315.108 17.1634 315.3 17.0994V17.1634ZM313.188 19.2754C313.124 19.2754 313.124 19.2114 313.124 19.2114C313.188 18.9554 313.444 18.8914 313.508 18.6994C313.444 18.8914 313.316 19.0834 313.188 19.2754ZM310.692 21.7074C310.628 21.7074 310.628 21.7074 310.628 21.6434L312.932 19.3394V19.5314C312.228 20.2994 311.524 21.0674 310.692 21.7074ZM314.532 20.2354V20.2994C314.724 20.0434 314.98 19.9154 315.108 19.4674C314.852 19.7234 314.724 19.9154 314.532 20.2354ZM312.484 22.1554C311.972 22.5394 311.46 23.1794 310.948 23.8194C311.012 23.8194 311.076 23.7554 311.14 23.6914C311.588 23.3074 311.972 22.9234 312.292 22.4114L312.548 22.1554H312.484ZM308.836 23.5634C308.836 23.6274 308.9 23.6274 308.9 23.6914L308.388 24.2034V24.1394C308.516 23.9474 308.644 23.7554 308.836 23.5634ZM310.756 24.0114C310.308 24.3954 309.924 24.7794 309.476 25.4834C309.796 25.2274 310.116 24.7794 310.372 24.5234L310.756 24.0114ZM307.62 27.4674V27.5314C307.94 27.4674 308.068 27.4034 308.196 27.3394V27.5314C308.388 27.0834 308.516 26.6994 308.772 26.3154C308.324 26.6354 307.94 27.0834 307.62 27.4674ZM306.148 29.3234C306.212 29.4514 306.404 29.1314 306.468 29.0674C306.788 28.6194 307.172 28.3634 307.684 27.9154C307.684 27.8514 307.748 27.7874 307.812 27.7234L307.684 27.5954C307.492 27.6594 307.364 27.7234 307.172 27.9154C306.788 28.3634 306.468 28.6834 306.148 29.3234ZM314.916 30.2834C315.684 30.3474 316.516 30.3474 317.348 30.4114C314.148 29.9634 310.82 30.0914 307.492 29.8354C307.492 29.8994 307.428 29.9634 307.428 29.9634L311.012 30.1554C312.292 30.1554 313.572 30.2194 314.916 30.2834ZM303.204 30.3474C303.396 30.4114 303.46 30.2834 303.588 30.2194C303.524 30.2194 303.46 30.1554 303.46 30.1554C303.204 30.0914 302.948 30.2834 302.82 30.0914C302.564 30.2194 302.5 30.0914 302.308 30.2194L300.964 30.3474C300.132 30.3474 299.684 30.3474 299.492 30.2834C299.748 30.4754 300.324 30.6034 302.308 30.4754C302.628 30.3474 302.884 30.4114 303.204 30.3474ZM306.852 30.0914C307.3 30.2834 307.812 30.2834 308.324 30.4114C308.644 30.4754 309.028 30.4114 309.732 30.3474L311.78 30.4754L311.908 30.3474C310.18 30.2834 308.516 30.1554 306.852 30.0914ZM299.3 30.1554C299.3 30.1554 299.364 30.1554 299.3 30.1554V30.1554ZM313.444 30.6674C313.636 30.7314 313.7 30.6034 313.828 30.5394C313.764 30.5394 313.7 30.4754 313.7 30.4754C313.444 30.4114 313.188 30.6674 313.06 30.4754C312.804 30.6034 312.74 30.4754 312.548 30.6034H311.204H310.948C310.692 30.6034 310.308 30.5394 310.116 30.5394C308.836 30.5394 310.436 30.7954 312.548 30.7314C312.868 30.6034 313.124 30.6674 313.444 30.6674ZM317.028 30.6674C317.156 30.7314 317.22 30.6674 317.348 30.6034C317.348 30.5394 317.348 30.5394 317.284 30.4754H314.084L313.828 30.6674C314.02 30.6674 315.3 30.6034 315.492 30.5394C315.556 30.5394 315.812 30.4754 315.812 30.5394C316.26 30.5394 316.708 30.6674 317.028 30.6674ZM306.532 30.8594C306.724 30.9234 306.788 30.9874 306.98 30.9874C306.916 30.6034 306.724 30.6034 306.532 30.8594ZM308.388 30.9234C308.516 30.9874 308.644 30.9874 308.772 31.0514V30.9234C308.644 30.9234 308.58 30.8594 308.388 30.8594V30.9234ZM316.644 31.3714C316.772 31.3714 316.772 31.8834 316.836 31.8834C316.964 31.4354 316.836 30.7954 316.516 30.9234C316.324 31.0514 316.26 31.1794 316.068 31.2434L316.132 31.3074C316.196 31.3714 316.324 31.3714 316.388 31.4354C316.196 31.6914 316.196 31.8194 316.452 31.9474L316.644 31.3714ZM308.26 31.2434C308.26 31.2434 308.324 31.2434 308.324 31.1794L308.26 31.2434ZM323.236 31.4994C323.3 31.4354 323.236 31.4994 323.236 31.4354C323.044 31.3714 322.916 31.2434 322.916 31.2434L322.852 31.3714L323.236 31.4994ZM317.476 32.1394C317.732 31.8834 317.54 31.6914 317.54 31.4354C317.412 31.6914 317.22 31.8834 317.476 32.1394ZM324.644 31.8194C324.644 31.7554 324.772 31.8194 324.772 31.7554C324.388 31.6274 323.94 31.4354 323.556 31.4354V31.5634C323.876 31.5634 324.132 31.7554 324.644 31.8194ZM308.516 31.6914C309.028 32.0114 309.156 32.0114 309.54 31.6914H308.516ZM323.428 32.2034C323.364 32.2034 322.788 32.4594 322.724 32.7794L322.212 32.6514L322.404 31.8194C322.468 31.8834 323.3 32.1394 323.428 32.2034ZM303.204 33.0994C303.268 32.5234 303.332 32.5234 303.396 32.4594C303.14 32.3314 303.14 32.3314 302.82 32.5874C302.564 33.0354 302.18 33.9314 301.924 34.3794C301.86 34.5074 301.796 34.6354 301.796 34.7634C301.796 34.8274 301.86 34.8274 301.924 34.8914C302.052 34.5074 302.372 34.0594 302.692 33.6754C302.884 33.4194 303.012 33.2274 303.204 33.0994ZM302.372 32.4594C302.052 32.8434 301.86 33.7394 301.604 34.0594C301.924 33.9314 302.372 32.7794 302.372 32.4594ZM316.196 37.1314C316.324 36.6194 316.388 36.1074 316.58 35.5954C317.028 34.7634 316.964 33.9954 317.22 32.9714C317.092 33.0354 316.964 33.0354 316.772 33.2914C316.708 33.8034 316.516 34.3154 316.324 34.8274C316.324 34.9554 316.196 35.1474 316.324 35.2754C316.26 35.6594 316.26 35.7874 316.132 36.0434C316.004 36.1714 316.068 36.3634 316.004 36.5554C315.876 36.8114 315.812 37.0674 315.748 37.3874L315.492 38.8594C315.492 39.1154 315.428 39.3074 315.428 39.4994C315.62 39.6274 315.684 39.4994 315.748 39.2434C315.748 39.0514 315.684 38.7954 315.748 38.6034C315.876 38.2834 316.068 37.6434 316.196 37.1314ZM318.5 34.3794C318.564 34.0594 318.628 33.6114 318.756 33.2274H318.692C318.564 33.5474 318.436 33.9954 318.436 34.3794H318.5ZM299.748 35.5314C300.004 34.9554 300.324 34.3794 300.836 33.9954L300.452 34.5714C300.26 34.8914 299.94 35.2754 299.748 35.5314ZM301.412 34.4434C301.092 34.5074 300.26 35.7234 300.132 36.1714C300.644 35.5314 301.092 35.0834 301.412 34.4434ZM300.836 36.2994C301.156 35.9154 301.412 35.3394 301.796 34.9554C301.604 35.0194 301.476 35.0194 301.348 35.0194C301.348 35.0834 301.348 35.0834 301.412 35.1474C300.836 36.1074 300.388 36.8114 299.62 37.4514C299.684 37.4514 299.684 37.5154 299.748 37.5154V37.5794L299.3 37.9634C299.3 38.0274 299.236 38.0914 299.364 38.3474C299.62 38.0914 299.748 37.7714 299.94 37.5154C300.004 37.4514 300.068 37.3874 300.132 37.2594C300.388 36.9394 300.708 36.5554 300.836 36.2994ZM317.988 36.2994C318.052 36.0434 318.116 35.7234 318.18 35.5954C318.116 35.7234 317.988 35.9154 317.924 36.2994H317.988ZM298.532 38.6674C298.916 37.9634 299.172 37.3874 299.62 36.8754C299.684 36.6834 299.876 36.5554 299.94 36.4914V36.4274L299.748 36.5554C299.3 37.0674 298.916 37.6434 298.532 38.3474L298.468 38.5394C298.468 38.6034 298.404 38.7314 298.34 38.7954C298.02 39.1794 297.828 39.5634 297.572 40.1394L297.956 39.4994C298.084 39.1794 298.276 38.9874 298.468 38.7954V38.5394L298.532 38.6674ZM300.772 37.0674L301.412 36.6194C301.092 36.4914 301.028 36.5554 300.772 37.0674ZM300.388 38.1554C300.452 37.8994 300.516 37.7074 300.516 37.5154H300.452C300.324 37.6434 300.26 37.7714 300.132 38.0274C300.26 38.0274 300.388 38.1554 300.388 38.1554ZM298.724 39.4354C298.916 39.1154 299.044 38.7954 299.364 38.5394C298.916 38.5394 298.66 38.9874 298.724 39.4354ZM299.108 39.1154L299.62 39.3074C299.556 39.2434 299.556 39.1794 299.556 39.1154C299.492 39.1154 299.236 39.1154 299.108 39.0514V39.1154ZM317.028 40.0114C317.22 39.6914 317.284 39.3714 317.348 39.1154C317.284 39.1154 317.284 39.0514 317.284 39.0514L316.964 39.6274C316.964 39.6914 317.092 39.8194 317.028 40.0114ZM297.956 40.8434L298.468 39.7554H298.276C298.084 40.3314 297.828 40.7794 297.572 41.0994C297.7 41.1634 297.828 41.0354 297.956 40.8434ZM315.492 41.3554V40.0114C315.364 39.8834 315.428 39.8194 315.364 39.7554C315.3 40.0114 315.3 41.2274 315.3 41.3554H315.492ZM296.356 42.8274C296.548 41.9314 297.06 41.1634 297.508 40.2674C296.932 41.2274 296.484 41.9314 296.228 42.8914C295.844 43.4674 295.524 44.1714 295.076 44.8754C294.884 45.4514 294.436 46.1554 294.244 46.9874C293.924 47.8194 293.732 48.7794 293.412 49.6754C293.348 49.8034 293.284 50.1234 293.22 50.3794C293.604 49.5474 293.86 48.6514 294.052 47.7554C294.628 45.8994 295.588 44.4274 296.356 42.8274ZM297.508 41.8034C297.572 41.6114 297.7 41.4194 297.7 41.2274H297.636L297.252 41.5474C297.252 41.6114 297.316 41.6754 297.508 41.8034ZM297.636 42.8914C297.636 42.8914 297.572 42.8914 297.636 42.8274C297.764 42.5074 297.956 42.0594 298.212 41.8034C298.02 42.1234 297.892 42.5714 297.636 42.8914ZM293.156 48.9074C293.156 48.9714 293.22 48.9714 293.22 48.9714C293.22 48.8434 293.284 48.6514 293.412 48.4594V47.9474C293.348 48.2034 293.22 48.5234 293.156 48.9074ZM336.454 10.4434C336.582 10.0594 338.054 7.37144 338.502 6.15544C338.822 5.32344 339.078 3.91544 339.142 3.08344C339.206 2.50743 338.694 1.99543 339.398 1.99543C340.166 1.99543 340.678 1.67543 341.574 1.99543C341.638 3.01944 341.574 3.72343 340.934 5.06744C340.486 5.96344 340.102 6.47544 339.654 7.17944C339.462 7.56343 339.142 8.01144 338.822 8.39544C338.438 8.97144 337.798 9.93144 337.158 10.2514L336.454 10.4434ZM341.958 10.4434C342.086 10.0594 343.558 7.37144 344.006 6.15544C344.326 5.32344 344.582 3.91544 344.646 3.08344C344.71 2.50743 344.198 1.99543 344.902 1.99543C345.67 1.99543 346.182 1.67543 347.078 1.99543C347.142 3.01944 347.078 3.72343 346.438 5.06744C345.99 5.96344 345.606 6.47544 345.158 7.17944C344.966 7.56343 344.646 8.01144 344.326 8.39544C343.942 8.97144 343.302 9.93144 342.662 10.2514L341.958 10.4434Z" fill="#F9F4EE"></path></svg> 