<?xml version="1.0" encoding="UTF-8"?> <svg xmlns="http://www.w3.org/2000/svg" width="294" height="75" viewBox="0 0 294 75" fill="none"><path d="M26.8919 54.0291C30.5061 50.4902 34.365 46.0665 38.4686 40.7581C33.5367 44.8618 29.2449 48.683 25.593 52.222C21.5647 56.0997 19.7952 58.2268 20.2846 58.6033C21.0376 59.168 23.24 57.6433 26.8919 54.0291ZM44.1723 37.2569C39.7298 43.5441 35.1368 48.9654 30.3931 53.5208C24.9342 58.8292 21.3764 60.8998 19.7199 59.7328C18.101 58.6033 20.0023 55.4221 25.4236 50.189C27.5319 48.156 30.1484 45.8406 33.2732 43.2429C35.7956 41.1723 38.5628 38.9699 41.5746 36.6357C46.4689 29.8214 49.9701 23.873 52.0784 18.7905C54.5632 12.7668 54.7514 8.62553 52.6431 6.36665C49.8948 3.46774 45.4712 2.8842 39.3722 4.61601C33.9132 6.15958 28.1343 9.20907 22.0353 13.7645C16.0116 18.207 11.362 22.8377 8.08667 27.6566C4.5101 32.9273 3.51243 37.1627 5.09365 40.3628C5.9972 42.1323 7.8043 43.1864 10.515 43.5253C12.7362 43.8265 15.861 43.657 19.8893 43.017C20.2282 42.9794 20.4164 43.1111 20.454 43.4123C20.5293 43.7135 20.4352 43.9394 20.1717 44.09C16.4069 45.5959 12.9621 45.9912 9.8373 45.2759C6.75016 44.5982 4.67952 43.0547 3.62537 40.6452C1.78062 36.5416 2.57123 31.7414 5.9972 26.2448C9.08434 21.2753 13.6962 16.6257 19.8329 12.2962C25.9318 7.96669 32.012 5.06779 38.0733 3.59951C44.6994 2.01829 49.8948 2.54537 53.6596 5.18073C58.5539 8.64435 56.8785 17.0775 48.6336 30.4802C48.3701 30.8943 48.1442 31.252 47.9559 31.5532C48.1442 31.3649 48.3324 31.1579 48.5207 30.932C50.9678 28.4849 52.6431 26.9413 53.5467 26.3013C53.8479 25.9625 54.2996 26.0001 54.902 26.4142C55.542 26.9037 55.8809 27.3366 55.9185 27.7131C55.9185 28.2402 55.5232 29.219 54.7326 30.6496C54.4314 31.2144 54.0173 31.9108 53.4902 32.7391L52.8125 33.8685L52.1349 34.9415C49.8383 38.7816 48.9724 41.0028 49.5372 41.6052C49.9513 42.057 51.7772 41.0781 55.015 38.6687C56.0691 37.9157 57.1797 37.0686 58.3468 36.1274C58.4221 36.0898 58.4786 36.0333 58.5162 35.958C60.248 31.2144 63.0528 26.4519 66.9306 21.6706C71.5613 15.9857 76.7944 11.4115 82.6298 7.94786C89.0676 4.10776 95.3172 2.24418 101.379 2.35713C106.762 2.43242 110.885 3.50539 113.746 5.57604C116.231 7.38314 117.586 9.81144 117.812 12.8609C118.038 15.6092 117.322 18.4328 115.666 21.3317C114.085 24.1553 111.976 26.4142 109.341 28.1084C109.04 28.259 108.814 28.1837 108.663 27.8825C108.475 27.5813 108.55 27.2801 108.889 26.979C112.955 23.44 115.139 19.3176 115.44 14.6116C115.741 9.60438 113.52 6.2537 108.776 4.55954C103.543 2.67714 97.482 3.33598 90.5924 6.53606C84.4181 9.39731 78.545 13.7833 72.9731 19.6941C67.5141 25.4919 63.6175 31.3461 61.2834 37.2569C58.7986 43.6194 58.7421 48.6454 61.1139 52.3349C63.1846 55.6103 67.1753 57.2856 73.086 57.3609C78.0556 57.4362 84.0416 56.3821 91.0441 54.1985C97.0302 52.3161 102.809 49.9443 108.381 47.083C113.614 44.3723 116.984 42.1323 118.49 40.3628C118.904 39.8734 119.299 39.7605 119.675 40.024C120.014 40.3252 119.995 40.7581 119.619 41.3229C117.887 43.3935 114.442 45.9159 109.285 48.8901C103.524 52.2408 97.6702 54.895 91.7218 56.8527C84.4934 59.2622 78.2062 60.2598 72.8601 59.8457C66.46 59.3186 61.754 56.7774 58.7421 52.222C56.4832 48.796 56.1256 44.2594 57.6691 38.6122C57.255 39.0263 56.8409 39.4216 56.4268 39.7981C53.302 42.5088 50.6854 43.4688 48.5771 42.6782C46.5818 41.9252 46.6759 39.704 48.8595 36.0145C49.236 35.3745 49.6689 34.6968 50.1584 33.9815L50.7796 33.0215C50.9678 32.7956 51.1749 32.5132 51.4007 32.1744L53.4902 28.6731C52.1349 29.3884 49.8007 31.5344 46.4877 35.1109C46.1488 35.4121 45.8288 35.6945 45.5276 35.958C45.2641 36.2215 44.8123 36.6545 44.1723 37.2569ZM139.678 39.6287C139.791 39.4405 139.96 39.4216 140.186 39.5722C140.412 39.7228 140.469 39.9111 140.356 40.1369C139.377 41.8311 137.532 43.5253 134.821 45.2194C133.805 45.8594 132.468 46.6124 130.812 47.4783L128.61 48.6642L126.294 49.8501C122.379 57.7562 118.915 63.5729 115.903 67.3C111.875 72.3072 108.449 73.9449 105.625 72.2131C102.915 70.5566 102.952 67.6388 105.738 63.4599C108.073 59.9586 111.348 56.7397 115.564 53.8032C117.974 52.109 120.892 50.3772 124.318 48.6078C125.409 46.4242 126.464 44.2782 127.48 42.1699C127.894 41.3417 128.29 40.4946 128.666 39.6287C128.967 39.064 129.306 38.3675 129.682 37.5392L128.384 39.2334L127.028 41.0405C126.012 42.3582 125.108 43.45 124.318 44.3159C122.209 46.5748 120.553 47.6101 119.348 47.4218C118.332 47.3089 117.541 46.9701 116.976 46.4053C116.336 45.7653 116.129 45.0124 116.355 44.1465C117.033 41.6617 118.689 38.8757 121.325 35.7886C124.186 32.4003 126.577 30.8567 128.497 31.1579C129.588 31.3461 130.228 31.8544 130.417 32.6826C130.492 32.9838 130.492 33.3415 130.417 33.7556C130.341 34.0944 130.228 34.4521 130.078 34.8286L131.038 33.8121L131.998 32.852C132.036 32.8144 132.148 32.7767 132.337 32.7391C132.563 32.7015 132.788 32.7015 133.014 32.7391C133.654 32.7767 133.993 33.0403 134.031 33.5297C133.428 34.5086 132.619 36.1462 131.603 38.4428L131.207 39.2334L130.812 40.1369C130.473 40.8899 130.191 41.5487 129.965 42.1135C129.174 43.77 128.402 45.4077 127.65 47.0265C134.087 43.9017 138.097 41.4358 139.678 39.6287ZM119.066 45.7842C119.932 45.8971 121.231 45.0312 122.962 43.1864C123.602 42.5088 124.431 41.5676 125.447 40.3628L126.746 38.7816L128.101 37.2004C128.628 36.1086 128.948 35.0545 129.061 34.038C129.212 32.9085 129.005 32.3814 128.44 32.4567C127.499 32.645 126.238 33.6427 124.656 35.4498C123.264 36.9933 121.927 38.7816 120.647 40.8146C118.652 44.0523 118.125 45.7089 119.066 45.7842ZM105.795 71.1401C107.414 72.3448 109.936 70.8578 113.362 66.6788C116.299 63.0646 119.442 58.0762 122.793 51.7137C120.12 53.182 117.842 54.575 115.96 55.8927C112.76 58.1892 109.974 60.9187 107.602 64.0811C104.854 67.6577 104.251 70.0107 105.795 71.1401ZM160.08 39.5158C160.193 39.3275 160.363 39.3275 160.589 39.5158C160.814 39.6663 160.871 39.8358 160.758 40.024C160.193 41.0028 159.327 41.9817 158.16 42.9605C156.391 44.3535 153.548 45.9159 149.633 47.6477C148.654 50.1701 147.882 52.1467 147.318 53.5773C146.414 55.7985 145.586 57.7374 144.833 59.3939C142.913 63.5729 141.087 66.6788 139.355 68.7118C136.946 71.4978 134.536 72.966 132.127 73.1166C129.905 73.2672 128.268 72.3825 127.214 70.4624C126.122 68.5047 126.065 66.1706 127.044 63.4599C128.136 60.3351 130.433 57.4174 133.934 54.7067C137.849 51.6949 142.405 49.0595 147.6 46.8006L147.995 45.6712L148.391 44.5418C148.579 44.09 148.805 43.5253 149.068 42.8476L149.407 41.8876L149.802 40.9276C150.405 39.3087 150.913 37.991 151.327 36.9745C148.955 39.8734 146.621 42.3394 144.325 44.3723C141.652 46.7442 139.713 47.8171 138.508 47.5913C137.604 47.4407 137.096 46.9512 136.983 46.123C136.795 44.4665 137.661 42.057 139.581 38.8946L140.146 37.991L140.71 37.1439C141.162 36.4286 141.501 35.8639 141.727 35.4498C142.405 34.2827 142.8 33.3979 142.913 32.7956C142.913 32.532 143.063 32.3438 143.365 32.2309C143.628 32.1556 143.948 32.1744 144.325 32.2873C144.701 32.4003 144.983 32.5697 145.172 32.7956C145.398 33.0591 145.416 33.3415 145.228 33.6427C145.115 34.0568 144.645 34.9792 143.816 36.4098C143.553 36.8616 143.158 37.5204 142.63 38.3863L142.009 39.4593L141.388 40.4758C139.242 44.09 138.414 45.9912 138.903 46.1795C139.543 46.443 141.783 44.7488 145.624 41.097C149.577 37.3698 152.268 34.2638 153.699 31.7791L153.925 31.3838L154.094 31.0449V30.9885C154.132 30.9508 154.188 30.8567 154.264 30.7061C154.49 30.4426 154.923 30.4237 155.563 30.6496C156.127 30.8755 156.485 31.1391 156.636 31.4402C155.431 33.1721 153.473 37.5769 150.762 44.6547C150.612 45.0312 150.518 45.3135 150.48 45.5018C153.078 44.2594 155.261 43.1111 157.031 42.057C158.16 41.3793 159.177 40.5322 160.08 39.5158ZM137.04 67.8083C140.503 63.7423 143.76 57.4174 146.809 48.8336C141.802 51.0172 137.83 53.4079 134.894 56.0056C131.957 58.5657 129.905 61.201 128.738 63.9117C127.722 66.2459 127.496 68.2036 128.061 69.7848C128.625 71.3284 129.717 71.9872 131.336 71.7613C133.106 71.4978 135.007 70.1801 137.04 67.8083ZM199.293 54.9326C207.764 51.0172 214.615 46.7065 219.849 42.0005C212.582 42.4899 204.921 44.3723 196.864 47.6477C192.61 49.3419 189.316 51.1302 186.982 53.0126C184.648 54.895 183.782 56.4574 184.384 57.6998C185.476 59.9586 190.445 59.0363 199.293 54.9326ZM230.296 21.4447C225.477 24.9083 217.985 28.0519 207.82 30.8755C212.488 30.3108 216.291 30.3296 219.227 30.932C222.955 31.685 225.138 33.3415 225.778 35.9015C226.079 37.2569 225.496 38.8946 224.027 40.8146C224.743 40.8523 225.684 40.9464 226.851 41.097C227.077 41.1723 227.19 41.3229 227.19 41.5487C227.152 41.8123 227.002 41.9629 226.738 42.0005L224.988 41.8876H223.18C218.361 47.4218 210.907 52.4102 200.817 56.8527C196.224 58.8857 192.422 60.0716 189.41 60.4104C186.022 60.7492 184.064 59.9586 183.537 58.0386C182.897 55.7797 183.876 53.4832 186.474 51.149C188.845 49.0031 192.29 47.0642 196.808 45.3324C204.827 42.2452 212.94 40.7017 221.147 40.7017C223.519 38.3298 224.517 36.4663 224.14 35.1109C223.425 32.5885 219.171 31.4591 211.378 31.7226C204.488 31.9485 199.387 32.7768 196.074 34.2074C194.003 37.4451 192.836 39.5346 192.573 40.4758C192.121 41.0781 191.65 41.2287 191.161 40.9276C190.671 40.664 190.521 40.3252 190.709 39.9111C191.123 38.1416 193.043 34.8286 196.469 29.972C199.895 25.0777 202.436 22.1224 204.093 21.1059C204.771 20.9553 205.166 21.2941 205.279 22.1224C203.886 23.0636 201.269 26.3954 197.429 32.1179C201.533 31.1391 205.768 29.859 210.135 28.2778C215.255 26.4331 219.66 24.513 223.35 22.5177C232.837 17.2846 235.868 12.4468 232.442 8.00433C229.43 4.12659 224.216 2.92185 216.799 4.39012C210.286 5.67015 203.302 8.64435 195.848 13.3127C188.055 18.1317 182.521 23.12 179.245 28.2778C175.706 33.8497 176.309 37.5016 181.052 39.2334C181.278 39.384 181.24 39.5722 180.939 39.7981C180.638 40.024 180.393 40.0993 180.205 40.024C174.859 37.9157 173.598 34.038 176.422 28.3908C179.019 23.233 184.083 18.0375 191.613 12.8045C199.33 7.45844 206.898 4.05129 214.314 2.58301C222.785 0.888852 229.053 2.30065 233.119 6.81842C237.713 11.9386 236.771 16.814 230.296 21.4447ZM256.445 39.4593C256.859 39.4216 257.123 39.591 257.236 39.9675C252.906 45.6147 249.104 48.4383 245.828 48.4383C245.038 48.4383 244.341 48.2689 243.739 47.9301C243.024 47.5536 242.591 47.0265 242.44 46.3489C241.687 43.5629 242.553 39.4405 245.038 33.9815L244.304 35.0545L243.513 36.1839L241.932 38.4993C240.689 40.2311 239.598 41.6617 238.656 42.7911C236.209 45.803 234.402 47.2336 233.235 47.083C232.256 46.9324 231.484 46.5748 230.92 46.01C230.28 45.4077 230.073 44.6735 230.299 43.8076C230.976 41.2852 232.633 38.4804 235.268 35.3933C238.129 32.005 240.52 30.4802 242.44 30.8191C243.532 30.9696 244.285 31.3461 244.699 31.9485C246.205 29.9531 247.41 28.5413 248.313 27.7131C248.69 27.5625 249.104 27.5625 249.555 27.7131C250.045 27.8637 250.403 28.146 250.628 28.5602C250.101 29.3508 249.443 30.5555 248.652 32.1744C247.673 34.1697 246.845 36.0521 246.167 37.8216C244.247 42.9417 244.097 45.9347 245.715 46.8006C246.468 47.1771 248.219 46.3677 250.967 44.3723C253.527 42.5276 255.353 40.8899 256.445 39.4593ZM232.953 45.4453C233.819 45.5206 235.381 44.1653 237.64 41.3793C238.393 40.4381 239.428 39.064 240.746 37.2569L242.327 35.0545L243.965 32.9085C243.739 32.1932 243.212 31.9297 242.384 32.1179C241.442 32.2685 240.181 33.2474 238.6 35.0545C237.207 36.598 235.87 38.3863 234.59 40.4193C232.633 43.657 232.087 45.3324 232.953 45.4453ZM269.031 36.1274C269.408 34.5839 269.107 33.3415 268.128 32.4003C267.337 31.6097 265.888 32.0238 263.779 33.6427C262.989 34.2074 262.198 34.885 261.408 35.6756C260.73 36.391 260.222 36.9745 259.883 37.4263C257.285 41.0405 256.683 43.6194 258.076 45.163C259.205 46.33 260.937 46.7818 263.271 46.5183C265.831 46.2548 268.203 45.4453 270.387 44.09C271.667 43.2994 273.568 41.7935 276.09 39.5722C276.316 39.4216 276.523 39.4216 276.712 39.5722C276.862 39.7228 276.881 39.8922 276.768 40.0805C275.375 42.5652 273.173 44.5418 270.161 46.01C267.187 47.516 264.194 48.1183 261.182 47.8171C258.32 47.5536 256.4 46.0665 255.422 43.3559C254.556 41.0217 255.76 38.1604 259.036 34.7721C260.429 33.3791 261.878 32.2873 263.384 31.4967C264.965 30.6685 266.302 30.3861 267.394 30.6496C268.937 31.0261 269.935 31.8355 270.387 33.0779C270.801 34.1321 270.707 35.1674 270.104 36.1839C269.954 36.4098 269.728 36.5416 269.427 36.5792C269.125 36.5792 268.994 36.4286 269.031 36.1274ZM292.113 21.6706C293.129 21.5576 293.751 21.8023 293.976 22.4047C293.976 23.1577 292.264 26.2448 288.838 31.6661L287.821 33.2474L286.805 34.8286C286.089 35.9957 285.487 36.9745 284.997 37.7651C283.755 39.7981 282.983 41.1911 282.682 41.944C282.419 41.9817 282.155 41.7558 281.891 41.2664C281.666 40.777 281.609 40.3628 281.722 40.024C281.986 39.1581 282.682 37.7651 283.812 35.8451C284.263 35.0921 284.828 34.1886 285.506 33.1344L286.409 31.6661L287.369 30.2543C290.532 25.2848 292.113 22.4235 292.113 21.6706ZM281.101 43.4688C281.59 43.5817 281.854 43.8829 281.891 44.3723C281.929 44.8241 281.816 45.3324 281.553 45.8971C280.8 47.3277 279.915 47.9301 278.898 47.7042C278.409 47.6289 278.145 47.3277 278.108 46.8006C278.07 46.3489 278.202 45.8406 278.503 45.2759C279.218 43.8829 280.084 43.2806 281.101 43.4688Z" fill="#402A0C"></path></svg> 