<?xml version="1.0" encoding="UTF-8"?> <svg xmlns="http://www.w3.org/2000/svg" width="139" height="81" viewBox="0 0 139 81" fill="none"><mask id="path-1-outside-1_2159_534" maskUnits="userSpaceOnUse" x="0.965942" y="-0.169922" width="138" height="81" fill="black"><rect fill="white" x="0.965942" y="-0.169922" width="138" height="81"></rect><path d="M121.132 1.43338C119.299 1.82609 116.855 2.89513 115.176 4.00781C114.39 4.5096 113.605 5.03322 113.408 5.1423C112.034 5.97136 107.3 11.2293 107.3 11.9275C107.3 11.9929 107.06 12.3638 106.776 12.7347C106.274 13.4329 106.012 13.9128 104.703 16.5527C103.438 19.0835 101.998 23.2942 101.191 26.8504C100.471 29.9921 100.449 30.0358 99.9908 28.1595C99.7726 27.265 99.5108 26.3705 99.4235 26.1959C99.3144 26.0214 98.9872 25.0832 98.6599 24.1233C97.7436 21.3743 94.7546 15.3309 94.1656 15.1128C94.0783 15.0691 93.991 14.9382 93.991 14.8292C93.991 14.2619 91.3075 11.0548 88.7331 8.52397C85.526 5.36048 83.1479 3.87691 78.9372 2.39333C76.9518 1.69518 76.7336 1.67337 73.5919 1.67337C70.6248 1.67337 70.1666 1.717 68.5958 2.24061C64.7123 3.54965 61.5706 6.38589 59.8689 10.1384C58.5817 13.0183 57.9926 16.9236 58.4071 19.9344C58.8217 22.7706 59.3453 25.3232 59.5635 25.3232C59.6507 25.3232 59.738 25.5414 59.738 25.825C59.738 26.1087 59.8253 26.4141 59.9125 26.5232C59.9998 26.6541 60.218 27.1123 60.3707 27.5704C60.5234 28.0504 61.1125 29.2285 61.6579 30.1885C62.2252 31.1703 62.8142 32.2175 62.9669 32.5229C63.7742 34.0719 67.134 38.1736 69.9703 41.0098C72.7192 43.7806 79.7662 49.9767 80.1589 49.9767C80.2462 49.9767 80.6607 50.304 81.0971 50.6749C82.7552 52.1366 86.0496 54.6892 86.835 55.1474C87.075 55.2783 87.3368 55.4746 87.4241 55.5837C87.4895 55.6928 87.904 56.0201 88.3186 56.3037C88.7331 56.5873 89.1258 56.8928 89.1913 56.9582C89.344 57.1109 90.4348 57.8964 92.4638 59.249C93.3583 59.8599 94.5147 60.6453 94.9946 60.9944C96.2382 61.8889 96.5 62.0634 98.1363 63.1325C98.9436 63.6343 99.8817 64.2888 100.274 64.5942L100.951 65.1397L99.5981 65.816C95.9764 67.6268 92.9875 68.8704 89.8458 69.9176C82.8861 72.2085 78.6535 72.3612 72.9374 70.4631C71.4975 69.9831 70.0357 69.4595 69.6648 69.3068C69.3158 69.1322 68.7703 68.9359 68.4649 68.8486C68.1594 68.7613 67.2868 68.3904 66.5013 68.0414C65.7159 67.6705 64.5378 67.1469 63.8833 66.8632C63.2288 66.5578 62.487 66.2087 62.2688 66.0996C62.0506 65.9687 60.8725 65.3797 59.6507 64.7688C58.429 64.1797 57.2072 63.5688 56.9018 63.3943C52.2111 60.9071 47.2367 58.9218 43.1569 57.9182C41.0625 57.3946 35.4991 57.2855 32.9464 57.7C27.6449 58.5945 23.1941 60.929 19.3979 64.7906C18.2853 65.9469 17.238 67.0378 17.1071 67.2123C16.5835 67.8668 13.9873 71.5103 13.1582 72.7757C12.0455 74.4338 8.07481 78.4482 7.37666 78.6227C7.07122 78.6882 6.39488 78.8627 5.84945 78.9936C5.30402 79.1463 4.32224 79.2772 3.66773 79.3209C1.726 79.43 1.76963 79.4081 2.22779 79.6918C2.4896 79.8445 3.34047 79.8663 4.73677 79.779C7.59483 79.5609 9.38384 78.8409 11.0638 77.2482C12.1328 76.2446 14.5763 73.2339 15.3399 71.9903C15.9726 70.9649 18.1762 67.9977 18.7216 67.4305C18.8962 67.2341 19.3543 66.7542 19.7034 66.3396C21.2524 64.5506 24.2414 62.3253 26.4667 61.2562C26.9467 61.038 27.514 60.7544 27.7321 60.6453C28.6703 60.1435 31.6592 59.3145 33.4482 59.0309C37.7026 58.3982 43.7896 59.1181 47.4113 60.689C47.6513 60.798 48.3712 61.0817 49.0257 61.3217C50.8366 62.0198 51.7529 62.4562 58.1017 65.576C64.4287 68.6959 65.9995 69.4159 67.7013 70.0704C68.3122 70.3104 68.9885 70.594 69.2285 70.7031C69.8612 70.9867 72.0865 71.7939 73.3738 72.1648C76.8863 73.2121 80.9443 73.452 84.566 72.7975C86.3986 72.4703 91.0675 71.183 92.1366 70.7249C92.3766 70.6158 93.5983 70.114 94.8637 69.6122C96.1291 69.0886 98.3545 68.1068 99.8381 67.3869L102.522 66.0778L103.765 66.7978C104.441 67.1687 105.947 68.1068 107.081 68.8486C109.307 70.3104 111.925 71.9248 112.95 72.4484C113.299 72.623 113.801 72.9502 114.085 73.1466C114.608 73.5393 118.688 76.0701 119.801 76.7028C120.412 77.0519 120.412 77.0519 120.346 76.5501C120.303 76.1792 119.43 75.481 116.834 73.7575C114.957 72.4921 112.907 71.1612 112.274 70.8122C111.663 70.4413 110.921 70.0049 110.659 69.8304C109.874 69.3068 105.751 66.6669 104.725 66.0342L103.787 65.4451L104.616 64.8561C105.074 64.5288 105.881 64.027 106.427 63.7434C107.452 63.1979 112.623 59.5981 113.714 58.6818C118.099 54.9728 122.113 50.7839 125.473 46.3769C126.39 45.1769 127.219 44.0861 127.306 43.977C127.415 43.8461 128.07 42.8643 128.768 41.7952C129.466 40.7044 130.229 39.5699 130.469 39.2426C131.211 38.13 134.462 31.563 135.204 29.6867C137.124 24.6469 137.953 20.3925 137.735 16.4873C137.538 13.062 137.036 11.2075 135.487 8.08763C134.44 5.99318 131.735 3.17875 129.989 2.3497C127.502 1.19339 123.881 0.822494 121.132 1.43338ZM127.873 3.04785C131.364 4.18235 133.677 6.73496 135.4 11.2511C137.124 15.7673 136.666 21.5707 134.026 28.814C132.978 31.6939 129.706 37.8027 127.328 41.3153C126.084 43.1479 123.095 47.1623 122.833 47.3586C122.746 47.4241 121.83 48.4495 120.804 49.6494C118.863 51.8966 116.506 54.2747 114.608 55.8674C114.019 56.3692 113.212 57.0455 112.841 57.3727C112.448 57.6782 111.881 58.1363 111.532 58.3763C111.205 58.6163 110.616 59.0745 110.223 59.4017C109.852 59.7508 109.459 60.0126 109.372 60.0126C109.285 60.0126 108.543 60.4926 107.714 61.1035C106.885 61.6926 106.121 62.1944 106.034 62.1944C105.925 62.1944 105.445 62.478 104.965 62.8271C104.485 63.1761 103.678 63.6779 103.176 63.9397L102.26 64.3979L100.514 63.2852C99.5544 62.6743 98.6381 62.0853 98.5072 61.9544C98.3545 61.8453 97.6127 61.3217 96.8273 60.8199C96.0419 60.3181 94.8201 59.4454 94.0783 58.9218C93.3365 58.3763 91.9839 57.3946 91.0457 56.74C90.1076 56.0855 88.8204 55.1256 88.1658 54.602C87.5331 54.1002 86.9441 53.6856 86.8786 53.6856C86.8132 53.6856 86.5296 53.4893 86.2677 53.2493C86.0278 53.0093 84.6751 51.9403 83.3006 50.8494C79.3081 47.7077 79.0899 47.5332 77.7372 46.3769C74.9664 43.9988 74.181 43.3006 72.2829 41.468C68.9449 38.2609 66.1959 35.0101 64.3851 32.1957C63.2288 30.3848 61.7452 27.5268 61.2652 26.1959C61.1125 25.7814 60.8725 25.1269 60.7198 24.7778C60.5671 24.4069 60.2834 23.2942 60.0871 22.2688C58.3635 13.3238 61.7452 6.18953 68.9231 3.57146C70.363 3.04785 70.843 2.9824 73.4829 2.9824C76.3409 2.96058 76.4936 2.9824 78.8281 3.78964C80.1371 4.2478 81.3807 4.74959 81.577 4.92413C81.7516 5.09867 81.9916 5.25139 82.057 5.25139C82.2097 5.25139 84.8496 6.84405 85.4387 7.28039C86.0496 7.76037 89.7367 11.4475 90.5003 12.3856C92.6602 14.9601 93.8165 16.7709 95.431 20.0871C97.22 23.796 97.8527 25.4541 98.7908 28.9231C99.6853 32.3048 99.8599 32.6756 100.427 32.8065C101.3 32.9593 101.365 32.8284 102.173 28.5304C102.543 26.4577 103.329 23.8178 104.485 20.7416C107.801 11.8402 113.103 5.775 119.757 3.28784C122.266 2.37152 125.517 2.26243 127.873 3.04785Z"></path></mask><path d="M121.132 1.43338C119.299 1.82609 116.855 2.89513 115.176 4.00781C114.39 4.5096 113.605 5.03322 113.408 5.1423C112.034 5.97136 107.3 11.2293 107.3 11.9275C107.3 11.9929 107.06 12.3638 106.776 12.7347C106.274 13.4329 106.012 13.9128 104.703 16.5527C103.438 19.0835 101.998 23.2942 101.191 26.8504C100.471 29.9921 100.449 30.0358 99.9908 28.1595C99.7726 27.265 99.5108 26.3705 99.4235 26.1959C99.3144 26.0214 98.9872 25.0832 98.6599 24.1233C97.7436 21.3743 94.7546 15.3309 94.1656 15.1128C94.0783 15.0691 93.991 14.9382 93.991 14.8292C93.991 14.2619 91.3075 11.0548 88.7331 8.52397C85.526 5.36048 83.1479 3.87691 78.9372 2.39333C76.9518 1.69518 76.7336 1.67337 73.5919 1.67337C70.6248 1.67337 70.1666 1.717 68.5958 2.24061C64.7123 3.54965 61.5706 6.38589 59.8689 10.1384C58.5817 13.0183 57.9926 16.9236 58.4071 19.9344C58.8217 22.7706 59.3453 25.3232 59.5635 25.3232C59.6507 25.3232 59.738 25.5414 59.738 25.825C59.738 26.1087 59.8253 26.4141 59.9125 26.5232C59.9998 26.6541 60.218 27.1123 60.3707 27.5704C60.5234 28.0504 61.1125 29.2285 61.6579 30.1885C62.2252 31.1703 62.8142 32.2175 62.9669 32.5229C63.7742 34.0719 67.134 38.1736 69.9703 41.0098C72.7192 43.7806 79.7662 49.9767 80.1589 49.9767C80.2462 49.9767 80.6607 50.304 81.0971 50.6749C82.7552 52.1366 86.0496 54.6892 86.835 55.1474C87.075 55.2783 87.3368 55.4746 87.4241 55.5837C87.4895 55.6928 87.904 56.0201 88.3186 56.3037C88.7331 56.5873 89.1258 56.8928 89.1913 56.9582C89.344 57.1109 90.4348 57.8964 92.4638 59.249C93.3583 59.8599 94.5147 60.6453 94.9946 60.9944C96.2382 61.8889 96.5 62.0634 98.1363 63.1325C98.9436 63.6343 99.8817 64.2888 100.274 64.5942L100.951 65.1397L99.5981 65.816C95.9764 67.6268 92.9875 68.8704 89.8458 69.9176C82.8861 72.2085 78.6535 72.3612 72.9374 70.4631C71.4975 69.9831 70.0357 69.4595 69.6648 69.3068C69.3158 69.1322 68.7703 68.9359 68.4649 68.8486C68.1594 68.7613 67.2868 68.3904 66.5013 68.0414C65.7159 67.6705 64.5378 67.1469 63.8833 66.8632C63.2288 66.5578 62.487 66.2087 62.2688 66.0996C62.0506 65.9687 60.8725 65.3797 59.6507 64.7688C58.429 64.1797 57.2072 63.5688 56.9018 63.3943C52.2111 60.9071 47.2367 58.9218 43.1569 57.9182C41.0625 57.3946 35.4991 57.2855 32.9464 57.7C27.6449 58.5945 23.1941 60.929 19.3979 64.7906C18.2853 65.9469 17.238 67.0378 17.1071 67.2123C16.5835 67.8668 13.9873 71.5103 13.1582 72.7757C12.0455 74.4338 8.07481 78.4482 7.37666 78.6227C7.07122 78.6882 6.39488 78.8627 5.84945 78.9936C5.30402 79.1463 4.32224 79.2772 3.66773 79.3209C1.726 79.43 1.76963 79.4081 2.22779 79.6918C2.4896 79.8445 3.34047 79.8663 4.73677 79.779C7.59483 79.5609 9.38384 78.8409 11.0638 77.2482C12.1328 76.2446 14.5763 73.2339 15.3399 71.9903C15.9726 70.9649 18.1762 67.9977 18.7216 67.4305C18.8962 67.2341 19.3543 66.7542 19.7034 66.3396C21.2524 64.5506 24.2414 62.3253 26.4667 61.2562C26.9467 61.038 27.514 60.7544 27.7321 60.6453C28.6703 60.1435 31.6592 59.3145 33.4482 59.0309C37.7026 58.3982 43.7896 59.1181 47.4113 60.689C47.6513 60.798 48.3712 61.0817 49.0257 61.3217C50.8366 62.0198 51.7529 62.4562 58.1017 65.576C64.4287 68.6959 65.9995 69.4159 67.7013 70.0704C68.3122 70.3104 68.9885 70.594 69.2285 70.7031C69.8612 70.9867 72.0865 71.7939 73.3738 72.1648C76.8863 73.2121 80.9443 73.452 84.566 72.7975C86.3986 72.4703 91.0675 71.183 92.1366 70.7249C92.3766 70.6158 93.5983 70.114 94.8637 69.6122C96.1291 69.0886 98.3545 68.1068 99.8381 67.3869L102.522 66.0778L103.765 66.7978C104.441 67.1687 105.947 68.1068 107.081 68.8486C109.307 70.3104 111.925 71.9248 112.95 72.4484C113.299 72.623 113.801 72.9502 114.085 73.1466C114.608 73.5393 118.688 76.0701 119.801 76.7028C120.412 77.0519 120.412 77.0519 120.346 76.5501C120.303 76.1792 119.43 75.481 116.834 73.7575C114.957 72.4921 112.907 71.1612 112.274 70.8122C111.663 70.4413 110.921 70.0049 110.659 69.8304C109.874 69.3068 105.751 66.6669 104.725 66.0342L103.787 65.4451L104.616 64.8561C105.074 64.5288 105.881 64.027 106.427 63.7434C107.452 63.1979 112.623 59.5981 113.714 58.6818C118.099 54.9728 122.113 50.7839 125.473 46.3769C126.39 45.1769 127.219 44.0861 127.306 43.977C127.415 43.8461 128.07 42.8643 128.768 41.7952C129.466 40.7044 130.229 39.5699 130.469 39.2426C131.211 38.13 134.462 31.563 135.204 29.6867C137.124 24.6469 137.953 20.3925 137.735 16.4873C137.538 13.062 137.036 11.2075 135.487 8.08763C134.44 5.99318 131.735 3.17875 129.989 2.3497C127.502 1.19339 123.881 0.822494 121.132 1.43338ZM127.873 3.04785C131.364 4.18235 133.677 6.73496 135.4 11.2511C137.124 15.7673 136.666 21.5707 134.026 28.814C132.978 31.6939 129.706 37.8027 127.328 41.3153C126.084 43.1479 123.095 47.1623 122.833 47.3586C122.746 47.4241 121.83 48.4495 120.804 49.6494C118.863 51.8966 116.506 54.2747 114.608 55.8674C114.019 56.3692 113.212 57.0455 112.841 57.3727C112.448 57.6782 111.881 58.1363 111.532 58.3763C111.205 58.6163 110.616 59.0745 110.223 59.4017C109.852 59.7508 109.459 60.0126 109.372 60.0126C109.285 60.0126 108.543 60.4926 107.714 61.1035C106.885 61.6926 106.121 62.1944 106.034 62.1944C105.925 62.1944 105.445 62.478 104.965 62.8271C104.485 63.1761 103.678 63.6779 103.176 63.9397L102.26 64.3979L100.514 63.2852C99.5544 62.6743 98.6381 62.0853 98.5072 61.9544C98.3545 61.8453 97.6127 61.3217 96.8273 60.8199C96.0419 60.3181 94.8201 59.4454 94.0783 58.9218C93.3365 58.3763 91.9839 57.3946 91.0457 56.74C90.1076 56.0855 88.8204 55.1256 88.1658 54.602C87.5331 54.1002 86.9441 53.6856 86.8786 53.6856C86.8132 53.6856 86.5296 53.4893 86.2677 53.2493C86.0278 53.0093 84.6751 51.9403 83.3006 50.8494C79.3081 47.7077 79.0899 47.5332 77.7372 46.3769C74.9664 43.9988 74.181 43.3006 72.2829 41.468C68.9449 38.2609 66.1959 35.0101 64.3851 32.1957C63.2288 30.3848 61.7452 27.5268 61.2652 26.1959C61.1125 25.7814 60.8725 25.1269 60.7198 24.7778C60.5671 24.4069 60.2834 23.2942 60.0871 22.2688C58.3635 13.3238 61.7452 6.18953 68.9231 3.57146C70.363 3.04785 70.843 2.9824 73.4829 2.9824C76.3409 2.96058 76.4936 2.9824 78.8281 3.78964C80.1371 4.2478 81.3807 4.74959 81.577 4.92413C81.7516 5.09867 81.9916 5.25139 82.057 5.25139C82.2097 5.25139 84.8496 6.84405 85.4387 7.28039C86.0496 7.76037 89.7367 11.4475 90.5003 12.3856C92.6602 14.9601 93.8165 16.7709 95.431 20.0871C97.22 23.796 97.8527 25.4541 98.7908 28.9231C99.6853 32.3048 99.8599 32.6756 100.427 32.8065C101.3 32.9593 101.365 32.8284 102.173 28.5304C102.543 26.4577 103.329 23.8178 104.485 20.7416C107.801 11.8402 113.103 5.775 119.757 3.28784C122.266 2.37152 125.517 2.26243 127.873 3.04785Z" fill="#372821"></path><path d="M121.132 1.43338C119.299 1.82609 116.855 2.89513 115.176 4.00781C114.39 4.5096 113.605 5.03322 113.408 5.1423C112.034 5.97136 107.3 11.2293 107.3 11.9275C107.3 11.9929 107.06 12.3638 106.776 12.7347C106.274 13.4329 106.012 13.9128 104.703 16.5527C103.438 19.0835 101.998 23.2942 101.191 26.8504C100.471 29.9921 100.449 30.0358 99.9908 28.1595C99.7726 27.265 99.5108 26.3705 99.4235 26.1959C99.3144 26.0214 98.9872 25.0832 98.6599 24.1233C97.7436 21.3743 94.7546 15.3309 94.1656 15.1128C94.0783 15.0691 93.991 14.9382 93.991 14.8292C93.991 14.2619 91.3075 11.0548 88.7331 8.52397C85.526 5.36048 83.1479 3.87691 78.9372 2.39333C76.9518 1.69518 76.7336 1.67337 73.5919 1.67337C70.6248 1.67337 70.1666 1.717 68.5958 2.24061C64.7123 3.54965 61.5706 6.38589 59.8689 10.1384C58.5817 13.0183 57.9926 16.9236 58.4071 19.9344C58.8217 22.7706 59.3453 25.3232 59.5635 25.3232C59.6507 25.3232 59.738 25.5414 59.738 25.825C59.738 26.1087 59.8253 26.4141 59.9125 26.5232C59.9998 26.6541 60.218 27.1123 60.3707 27.5704C60.5234 28.0504 61.1125 29.2285 61.6579 30.1885C62.2252 31.1703 62.8142 32.2175 62.9669 32.5229C63.7742 34.0719 67.134 38.1736 69.9703 41.0098C72.7192 43.7806 79.7662 49.9767 80.1589 49.9767C80.2462 49.9767 80.6607 50.304 81.0971 50.6749C82.7552 52.1366 86.0496 54.6892 86.835 55.1474C87.075 55.2783 87.3368 55.4746 87.4241 55.5837C87.4895 55.6928 87.904 56.0201 88.3186 56.3037C88.7331 56.5873 89.1258 56.8928 89.1913 56.9582C89.344 57.1109 90.4348 57.8964 92.4638 59.249C93.3583 59.8599 94.5147 60.6453 94.9946 60.9944C96.2382 61.8889 96.5 62.0634 98.1363 63.1325C98.9436 63.6343 99.8817 64.2888 100.274 64.5942L100.951 65.1397L99.5981 65.816C95.9764 67.6268 92.9875 68.8704 89.8458 69.9176C82.8861 72.2085 78.6535 72.3612 72.9374 70.4631C71.4975 69.9831 70.0357 69.4595 69.6648 69.3068C69.3158 69.1322 68.7703 68.9359 68.4649 68.8486C68.1594 68.7613 67.2868 68.3904 66.5013 68.0414C65.7159 67.6705 64.5378 67.1469 63.8833 66.8632C63.2288 66.5578 62.487 66.2087 62.2688 66.0996C62.0506 65.9687 60.8725 65.3797 59.6507 64.7688C58.429 64.1797 57.2072 63.5688 56.9018 63.3943C52.2111 60.9071 47.2367 58.9218 43.1569 57.9182C41.0625 57.3946 35.4991 57.2855 32.9464 57.7C27.6449 58.5945 23.1941 60.929 19.3979 64.7906C18.2853 65.9469 17.238 67.0378 17.1071 67.2123C16.5835 67.8668 13.9873 71.5103 13.1582 72.7757C12.0455 74.4338 8.07481 78.4482 7.37666 78.6227C7.07122 78.6882 6.39488 78.8627 5.84945 78.9936C5.30402 79.1463 4.32224 79.2772 3.66773 79.3209C1.726 79.43 1.76963 79.4081 2.22779 79.6918C2.4896 79.8445 3.34047 79.8663 4.73677 79.779C7.59483 79.5609 9.38384 78.8409 11.0638 77.2482C12.1328 76.2446 14.5763 73.2339 15.3399 71.9903C15.9726 70.9649 18.1762 67.9977 18.7216 67.4305C18.8962 67.2341 19.3543 66.7542 19.7034 66.3396C21.2524 64.5506 24.2414 62.3253 26.4667 61.2562C26.9467 61.038 27.514 60.7544 27.7321 60.6453C28.6703 60.1435 31.6592 59.3145 33.4482 59.0309C37.7026 58.3982 43.7896 59.1181 47.4113 60.689C47.6513 60.798 48.3712 61.0817 49.0257 61.3217C50.8366 62.0198 51.7529 62.4562 58.1017 65.576C64.4287 68.6959 65.9995 69.4159 67.7013 70.0704C68.3122 70.3104 68.9885 70.594 69.2285 70.7031C69.8612 70.9867 72.0865 71.7939 73.3738 72.1648C76.8863 73.2121 80.9443 73.452 84.566 72.7975C86.3986 72.4703 91.0675 71.183 92.1366 70.7249C92.3766 70.6158 93.5983 70.114 94.8637 69.6122C96.1291 69.0886 98.3545 68.1068 99.8381 67.3869L102.522 66.0778L103.765 66.7978C104.441 67.1687 105.947 68.1068 107.081 68.8486C109.307 70.3104 111.925 71.9248 112.95 72.4484C113.299 72.623 113.801 72.9502 114.085 73.1466C114.608 73.5393 118.688 76.0701 119.801 76.7028C120.412 77.0519 120.412 77.0519 120.346 76.5501C120.303 76.1792 119.43 75.481 116.834 73.7575C114.957 72.4921 112.907 71.1612 112.274 70.8122C111.663 70.4413 110.921 70.0049 110.659 69.8304C109.874 69.3068 105.751 66.6669 104.725 66.0342L103.787 65.4451L104.616 64.8561C105.074 64.5288 105.881 64.027 106.427 63.7434C107.452 63.1979 112.623 59.5981 113.714 58.6818C118.099 54.9728 122.113 50.7839 125.473 46.3769C126.39 45.1769 127.219 44.0861 127.306 43.977C127.415 43.8461 128.07 42.8643 128.768 41.7952C129.466 40.7044 130.229 39.5699 130.469 39.2426C131.211 38.13 134.462 31.563 135.204 29.6867C137.124 24.6469 137.953 20.3925 137.735 16.4873C137.538 13.062 137.036 11.2075 135.487 8.08763C134.44 5.99318 131.735 3.17875 129.989 2.3497C127.502 1.19339 123.881 0.822494 121.132 1.43338ZM127.873 3.04785C131.364 4.18235 133.677 6.73496 135.4 11.2511C137.124 15.7673 136.666 21.5707 134.026 28.814C132.978 31.6939 129.706 37.8027 127.328 41.3153C126.084 43.1479 123.095 47.1623 122.833 47.3586C122.746 47.4241 121.83 48.4495 120.804 49.6494C118.863 51.8966 116.506 54.2747 114.608 55.8674C114.019 56.3692 113.212 57.0455 112.841 57.3727C112.448 57.6782 111.881 58.1363 111.532 58.3763C111.205 58.6163 110.616 59.0745 110.223 59.4017C109.852 59.7508 109.459 60.0126 109.372 60.0126C109.285 60.0126 108.543 60.4926 107.714 61.1035C106.885 61.6926 106.121 62.1944 106.034 62.1944C105.925 62.1944 105.445 62.478 104.965 62.8271C104.485 63.1761 103.678 63.6779 103.176 63.9397L102.26 64.3979L100.514 63.2852C99.5544 62.6743 98.6381 62.0853 98.5072 61.9544C98.3545 61.8453 97.6127 61.3217 96.8273 60.8199C96.0419 60.3181 94.8201 59.4454 94.0783 58.9218C93.3365 58.3763 91.9839 57.3946 91.0457 56.74C90.1076 56.0855 88.8204 55.1256 88.1658 54.602C87.5331 54.1002 86.9441 53.6856 86.8786 53.6856C86.8132 53.6856 86.5296 53.4893 86.2677 53.2493C86.0278 53.0093 84.6751 51.9403 83.3006 50.8494C79.3081 47.7077 79.0899 47.5332 77.7372 46.3769C74.9664 43.9988 74.181 43.3006 72.2829 41.468C68.9449 38.2609 66.1959 35.0101 64.3851 32.1957C63.2288 30.3848 61.7452 27.5268 61.2652 26.1959C61.1125 25.7814 60.8725 25.1269 60.7198 24.7778C60.5671 24.4069 60.2834 23.2942 60.0871 22.2688C58.3635 13.3238 61.7452 6.18953 68.9231 3.57146C70.363 3.04785 70.843 2.9824 73.4829 2.9824C76.3409 2.96058 76.4936 2.9824 78.8281 3.78964C80.1371 4.2478 81.3807 4.74959 81.577 4.92413C81.7516 5.09867 81.9916 5.25139 82.057 5.25139C82.2097 5.25139 84.8496 6.84405 85.4387 7.28039C86.0496 7.76037 89.7367 11.4475 90.5003 12.3856C92.6602 14.9601 93.8165 16.7709 95.431 20.0871C97.22 23.796 97.8527 25.4541 98.7908 28.9231C99.6853 32.3048 99.8599 32.6756 100.427 32.8065C101.3 32.9593 101.365 32.8284 102.173 28.5304C102.543 26.4577 103.329 23.8178 104.485 20.7416C107.801 11.8402 113.103 5.775 119.757 3.28784C122.266 2.37152 125.517 2.26243 127.873 3.04785Z" stroke="#FFFCF4" stroke-width="2" mask="url(#path-1-outside-1_2159_534)"></path></svg> 