<?xml version="1.0" encoding="UTF-8"?> <svg xmlns="http://www.w3.org/2000/svg" width="268" height="24" viewBox="0 0 268 24" fill="none"><path d="M13.6956 2.39387C13.9623 2.1272 14.2423 2.06053 14.5356 2.19387C14.829 2.30053 15.0423 2.5672 15.1756 2.99387C15.3356 3.6872 15.4156 5.0072 15.4156 6.95387C15.4156 8.15387 15.4556 8.98053 15.5356 9.43387C15.6156 9.8872 15.7756 10.1672 16.0156 10.2739C16.4156 10.4072 16.6023 10.6872 16.5756 11.1139C16.5756 11.5405 16.389 11.8339 16.0156 11.9939C15.749 12.0739 15.5756 12.3405 15.4956 12.7939C15.4423 13.2472 15.4423 14.1672 15.4956 15.5539C15.5223 16.4072 15.509 17.1139 15.4556 17.6739C15.429 18.2339 15.3623 18.6872 15.2556 19.0339C15.149 19.3539 15.0023 19.5539 14.8156 19.6339C14.629 19.7139 14.389 19.7005 14.0956 19.5939C13.6956 19.4339 13.4023 18.0872 13.2156 15.5539L12.9356 11.7139H10.4556C8.90896 11.7139 7.60229 11.7939 6.53563 11.9539L5.01563 12.2339V15.7539C5.01563 17.0872 4.96229 18.0472 4.85563 18.6339C4.77563 19.2205 4.61563 19.6472 4.37563 19.9139C3.57563 20.7139 3.04229 20.4472 2.77563 19.1139C2.66896 18.6072 2.61563 17.9672 2.61563 17.1939C2.61563 16.1805 2.54896 15.4739 2.41563 15.0739C2.30896 14.6739 2.04229 14.2739 1.61563 13.8739C0.948958 13.2872 0.628958 12.7672 0.655625 12.3139C0.682292 11.8605 1.06896 11.4205 1.81563 10.9939C2.40229 10.6472 2.74896 10.3005 2.85563 9.95387C2.96229 9.6072 3.01563 8.5672 3.01563 6.83387C3.01563 5.90053 3.05563 5.06053 3.13563 4.31387C3.21563 3.5672 3.30896 3.1672 3.41563 3.11387C3.68229 2.95387 3.93563 3.2072 4.17563 3.87387C4.46896 4.67387 4.61563 5.66053 4.61563 6.83387C4.61563 8.03387 4.72229 8.79387 4.93563 9.11387C5.01563 9.22053 5.45563 9.31387 6.25563 9.39387C7.08229 9.47387 8.02896 9.51387 9.09563 9.51387H12.9356L13.1756 8.11387C13.3356 7.10053 13.4156 5.95387 13.4156 4.67387C13.4156 3.2872 13.509 2.5272 13.6956 2.39387ZM25.1144 6.39387C27.2744 5.3272 29.1144 5.4472 30.6344 6.75387C31.4077 7.39387 31.821 8.14053 31.8744 8.99387C31.9544 9.8472 31.661 10.5805 30.9944 11.1939C30.5944 11.5672 29.6477 12.0205 28.1544 12.5539C26.661 13.0605 25.0744 13.5005 23.3944 13.8739C22.941 13.9805 22.6344 14.1272 22.4744 14.3139C22.341 14.5005 22.2744 14.8339 22.2744 15.3139C22.2744 15.8472 22.341 16.1805 22.4744 16.3139C22.6344 16.4472 23.0077 16.5139 23.5944 16.5139C24.5277 16.5139 25.9544 16.3272 27.8744 15.9539C29.3944 15.6605 30.4344 15.5672 30.9944 15.6739C31.581 15.7805 31.8744 16.1405 31.8744 16.7539C31.8744 17.5272 29.661 18.0605 25.2344 18.3539C22.9944 18.5139 21.541 18.4605 20.8744 18.1939C20.2077 17.9005 19.8744 17.2205 19.8744 16.1539C19.8744 14.3405 20.4077 12.4339 21.4744 10.4339C22.5677 8.4072 23.781 7.06053 25.1144 6.39387ZM29.3944 8.19387C28.8344 7.63387 27.8477 7.66053 26.4344 8.27387C25.8477 8.54053 25.1677 9.10053 24.3944 9.95387C23.6477 10.8072 23.381 11.3405 23.5944 11.5539C23.701 11.6872 24.421 11.5939 25.7544 11.2739C27.0877 10.9272 28.101 10.5805 28.7944 10.2339C29.9677 9.62053 30.1677 8.94053 29.3944 8.19387ZM40.0669 5.91387C40.9202 5.51387 41.6002 5.31387 42.1069 5.31387C42.7202 5.31387 43.3602 5.62053 44.0269 6.23387C44.7202 6.82053 45.0669 7.38053 45.0669 7.91387C45.0669 8.50053 44.8669 8.87387 44.4669 9.03387C44.0669 9.19387 43.7335 9.02053 43.4669 8.51387C42.9602 7.6072 42.1469 7.43387 41.0269 7.99387C39.9335 8.55387 39.0135 9.59387 38.2669 11.1139C37.7335 12.2072 37.5069 13.3672 37.5869 14.5939C37.6935 15.7939 38.0535 16.5672 38.6669 16.9139C39.2002 17.2072 40.2802 17.3405 41.9069 17.3139C43.5335 17.2872 44.5735 17.1272 45.0269 16.8339C45.5069 16.5405 45.9602 16.4872 46.3869 16.6739C46.8402 16.8339 47.0669 17.1672 47.0669 17.6739C47.0669 19.3005 44.6135 20.0072 39.7069 19.7939C38.6935 19.7405 37.7469 19.2872 36.8669 18.4339C36.0135 17.5805 35.4802 16.5805 35.2669 15.4339C35.0002 13.7272 35.3469 11.9139 36.3069 9.99387C37.2669 8.0472 38.5202 6.6872 40.0669 5.91387ZM53.7031 5.67387C53.7031 5.5672 53.7698 5.4872 53.9031 5.43387C54.0631 5.35387 54.2498 5.34053 54.4631 5.39387C54.7031 5.4472 54.8765 5.6472 54.9831 5.99387C55.1165 6.31387 55.2098 6.91387 55.2631 7.79387L55.3831 10.0739L58.6231 7.87387C60.7298 6.43387 61.9565 5.75387 62.3031 5.83387C63.4231 6.23387 62.6365 7.3272 59.9431 9.11387C59.1165 9.6472 58.4098 10.1405 57.8231 10.5939C57.2631 11.0472 56.9965 11.3139 57.0231 11.3939C57.1031 11.5805 58.1431 12.5672 60.1431 14.3539C61.7698 15.8205 62.7831 16.8205 63.1831 17.3539C63.6098 17.8605 63.7431 18.3272 63.5831 18.7539C63.2898 19.5005 62.5031 19.3805 61.2231 18.3939C60.6098 17.9139 59.7965 17.1805 58.7831 16.1939L55.5431 13.1139L55.4231 15.7939C55.3431 17.1805 55.1565 18.1272 54.8631 18.6339C54.5698 19.1405 54.1431 19.2872 53.5831 19.0739C53.3165 18.9672 53.1431 18.6605 53.0631 18.1539C52.9831 17.6472 52.9431 16.6339 52.9431 15.1139V11.3939L51.7831 10.9139C51.0631 10.6472 50.6098 10.3272 50.4231 9.95387C50.2365 9.58053 50.3165 9.30053 50.6631 9.11387C51.0365 8.90053 51.5965 8.8872 52.3431 9.07387C52.7698 9.18053 53.0365 9.18053 53.1431 9.07387C53.2765 8.9672 53.3565 8.6472 53.3831 8.11387C53.4098 7.34053 53.4631 6.8072 53.5431 6.51387C53.5431 6.43387 53.5565 6.30053 53.5831 6.11387C53.6365 5.90053 53.6765 5.75387 53.7031 5.67387ZM68.2647 5.47387C68.878 4.8872 69.3714 4.51387 69.7447 4.35387C70.1447 4.19387 70.7847 4.11387 71.6647 4.11387C73.8514 4.11387 75.5047 4.75387 76.6247 6.03387C76.998 6.43387 77.2914 6.62053 77.5047 6.59387C77.718 6.54053 78.238 6.2072 79.0647 5.59387C79.118 5.54053 79.158 5.50053 79.1847 5.47387C81.6114 3.63387 83.6647 3.5672 85.3447 5.27387C86.9714 6.9272 86.9447 9.19387 85.2647 12.0739C84.038 14.1805 82.4114 16.0072 80.3847 17.5539C78.358 19.0739 76.798 19.6339 75.7047 19.2339C74.798 18.8872 73.4114 17.8072 71.5447 15.9939C69.7047 14.1539 68.5047 12.7005 67.9447 11.6339C67.2247 10.1672 66.8914 8.98053 66.9447 8.07387C66.998 7.1672 67.438 6.30053 68.2647 5.47387ZM73.9047 6.59387C73.2914 6.30053 72.5314 6.15387 71.6247 6.15387C70.7447 6.1272 70.078 6.26053 69.6247 6.55387C69.1447 6.82053 68.918 7.46053 68.9447 8.47387C68.9714 9.46053 69.2247 10.3672 69.7047 11.1939C70.0247 11.7272 71.1847 12.8872 73.1847 14.6739C75.1847 16.4605 76.4247 17.4472 76.9047 17.6339C77.118 17.7139 78.2247 16.7805 80.2247 14.8339C82.6514 12.4872 84.0514 10.4605 84.4247 8.75387C84.6914 7.5272 84.2514 6.91387 83.1047 6.91387C82.4647 6.91387 81.7714 7.11387 81.0247 7.51387C80.278 7.8872 79.5847 8.4072 78.9447 9.07387C78.278 9.79387 77.6914 10.1272 77.1847 10.0739C76.7047 9.99387 76.2247 9.50053 75.7447 8.59387C75.5314 8.1672 75.2514 7.7672 74.9047 7.39387C74.558 6.99387 74.2247 6.7272 73.9047 6.59387ZM95.5153 4.99387C96.0753 4.38053 96.742 4.11387 97.5153 4.19387C98.3153 4.27387 98.982 4.66053 99.5153 5.35387C99.9686 5.99387 100.449 7.3672 100.955 9.47387C101.489 11.5539 101.849 13.5672 102.035 15.5139C102.142 16.6872 102.169 17.4872 102.115 17.9139C102.062 18.3405 101.902 18.6605 101.635 18.8739C100.969 19.4072 100.449 19.1539 100.075 18.1139C99.782 17.3139 99.4886 15.8472 99.1953 13.7139C98.502 8.6472 97.8886 6.11387 97.3553 6.11387C96.822 6.11387 95.8353 7.98053 94.3953 11.7139C92.5553 16.5139 91.222 18.9139 90.3953 18.9139C89.6486 18.9139 89.702 18.0739 90.5553 16.3939C90.6086 16.2872 90.6753 16.1805 90.7553 16.0739C91.3686 15.0072 92.182 13.0205 93.1953 10.1139C93.5953 8.9672 94.022 7.90053 94.4753 6.91387C94.9286 5.90053 95.2753 5.26053 95.5153 4.99387ZM106.701 7.03387C107.341 6.26053 107.675 6.58053 107.701 7.99387C107.728 8.50053 107.701 9.15387 107.621 9.95387L107.341 12.8739L108.861 12.0739C110.541 11.2472 112.181 11.0872 113.781 11.5939C115.381 12.1005 116.195 13.0472 116.221 14.4339C116.221 15.5539 115.541 16.6472 114.181 17.7139C112.848 18.7805 111.475 19.3139 110.061 19.3139C109.128 19.3139 108.128 18.7939 107.061 17.7539C106.261 17.0072 105.781 16.4472 105.621 16.0739C105.488 15.6739 105.421 14.8605 105.421 13.6339C105.448 12.2472 105.581 10.9005 105.821 9.59387C106.061 8.2872 106.355 7.43387 106.701 7.03387ZM113.781 13.6739C112.848 13.0872 111.421 13.2339 109.501 14.1139C108.621 14.5139 108.141 14.8472 108.061 15.1139C108.008 15.3805 108.301 15.8739 108.941 16.5939C109.741 17.5005 110.928 17.4872 112.501 16.5539C113.221 16.1005 113.715 15.5805 113.981 14.9939C114.248 14.3805 114.181 13.9405 113.781 13.6739ZM122.844 5.67387C122.844 5.5672 122.91 5.4872 123.044 5.43387C123.204 5.35387 123.39 5.34053 123.604 5.39387C123.844 5.4472 124.017 5.6472 124.124 5.99387C124.257 6.31387 124.35 6.91387 124.404 7.79387L124.524 10.0739L127.764 7.87387C129.87 6.43387 131.097 5.75387 131.444 5.83387C132.564 6.23387 131.777 7.3272 129.084 9.11387C128.257 9.6472 127.55 10.1405 126.964 10.5939C126.404 11.0472 126.137 11.3139 126.164 11.3939C126.244 11.5805 127.284 12.5672 129.284 14.3539C130.91 15.8205 131.924 16.8205 132.324 17.3539C132.75 17.8605 132.884 18.3272 132.724 18.7539C132.43 19.5005 131.644 19.3805 130.364 18.3939C129.75 17.9139 128.937 17.1805 127.924 16.1939L124.684 13.1139L124.564 15.7939C124.484 17.1805 124.297 18.1272 124.004 18.6339C123.71 19.1405 123.284 19.2872 122.724 19.0739C122.457 18.9672 122.284 18.6605 122.204 18.1539C122.124 17.6472 122.084 16.6339 122.084 15.1139V11.3939L120.924 10.9139C120.204 10.6472 119.75 10.3272 119.564 9.95387C119.377 9.58053 119.457 9.30053 119.804 9.11387C120.177 8.90053 120.737 8.8872 121.484 9.07387C121.91 9.18053 122.177 9.18053 122.284 9.07387C122.417 8.9672 122.497 8.6472 122.524 8.11387C122.55 7.34053 122.604 6.8072 122.684 6.51387C122.684 6.43387 122.697 6.30053 122.724 6.11387C122.777 5.90053 122.817 5.75387 122.844 5.67387ZM137.405 5.47387C138.019 4.8872 138.512 4.51387 138.885 4.35387C139.285 4.19387 139.925 4.11387 140.805 4.11387C142.992 4.11387 144.645 4.75387 145.765 6.03387C146.139 6.43387 146.432 6.62053 146.645 6.59387C146.859 6.54053 147.379 6.2072 148.205 5.59387C148.259 5.54053 148.299 5.50053 148.325 5.47387C150.752 3.63387 152.805 3.5672 154.485 5.27387C156.112 6.9272 156.085 9.19387 154.405 12.0739C153.179 14.1805 151.552 16.0072 149.525 17.5539C147.499 19.0739 145.939 19.6339 144.845 19.2339C143.939 18.8872 142.552 17.8072 140.685 15.9939C138.845 14.1539 137.645 12.7005 137.085 11.6339C136.365 10.1672 136.032 8.98053 136.085 8.07387C136.139 7.1672 136.579 6.30053 137.405 5.47387ZM143.045 6.59387C142.432 6.30053 141.672 6.15387 140.765 6.15387C139.885 6.1272 139.219 6.26053 138.765 6.55387C138.285 6.82053 138.059 7.46053 138.085 8.47387C138.112 9.46053 138.365 10.3672 138.845 11.1939C139.165 11.7272 140.325 12.8872 142.325 14.6739C144.325 16.4605 145.565 17.4472 146.045 17.6339C146.259 17.7139 147.365 16.7805 149.365 14.8339C151.792 12.4872 153.192 10.4605 153.565 8.75387C153.832 7.5272 153.392 6.91387 152.245 6.91387C151.605 6.91387 150.912 7.11387 150.165 7.51387C149.419 7.8872 148.725 8.4072 148.085 9.07387C147.419 9.79387 146.832 10.1272 146.325 10.0739C145.845 9.99387 145.365 9.50053 144.885 8.59387C144.672 8.1672 144.392 7.7672 144.045 7.39387C143.699 6.99387 143.365 6.7272 143.045 6.59387ZM177.545 4.87387C178.345 4.6872 179.279 4.6472 180.345 4.75387C181.439 4.86053 182.252 5.06053 182.785 5.35387C183.639 5.8072 184.199 6.5272 184.465 7.51387C184.759 8.50053 184.959 10.4205 185.065 13.2739C185.145 15.6205 185.145 17.1539 185.065 17.8739C185.012 18.5672 184.852 19.0339 184.585 19.2739C183.892 19.8605 183.425 19.8605 183.185 19.2739C182.919 18.6072 182.745 16.7805 182.665 13.7939C182.639 12.8339 182.612 12.1005 182.585 11.5939C182.585 11.0605 182.559 10.5139 182.505 9.95387C182.452 9.3672 182.399 8.95387 182.345 8.71387C182.292 8.4472 182.199 8.1672 182.065 7.87387C181.932 7.58053 181.799 7.39387 181.665 7.31387C181.559 7.23387 181.372 7.15387 181.105 7.07387C180.839 6.9672 180.585 6.91387 180.345 6.91387C180.105 6.91387 179.759 6.91387 179.305 6.91387C178.479 6.91387 177.852 6.98053 177.425 7.11387C176.999 7.22053 176.625 7.43387 176.305 7.75387C175.905 8.15387 175.665 8.66053 175.585 9.27387C175.532 9.86053 175.532 11.3805 175.585 13.8339C175.692 17.3005 175.585 19.0872 175.265 19.1939C174.385 19.4872 173.852 17.3672 173.665 12.8339C173.559 10.7539 173.585 9.22053 173.745 8.23387C173.932 7.2472 174.292 6.51387 174.825 6.03387C175.385 5.5272 176.292 5.14053 177.545 4.87387ZM192.549 5.51387C193.136 5.0872 194.296 4.91387 196.029 4.99387C197.149 5.07387 197.909 5.19387 198.309 5.35387C198.736 5.51387 199.202 5.87387 199.709 6.43387C200.216 7.02053 200.536 7.5272 200.669 7.95387C200.802 8.38053 200.869 9.1672 200.869 10.3139C200.869 12.8739 200.269 14.8205 199.069 16.1539C197.869 17.4605 196.136 18.1139 193.869 18.1139H192.069V20.2739C192.069 21.6072 191.976 22.5139 191.789 22.9939C191.629 23.4739 191.322 23.7139 190.869 23.7139C190.389 23.7139 190.069 23.4605 189.909 22.9539C189.749 22.4472 189.669 21.4339 189.669 19.9139C189.669 18.2872 189.469 17.2872 189.069 16.9139C188.589 16.5405 188.376 15.9139 188.429 15.0339C188.456 14.4739 188.616 14.1939 188.909 14.1939C188.936 14.2205 188.976 14.2339 189.029 14.2339C189.429 14.3939 189.722 13.5539 189.909 11.7139C190.016 10.8605 190.069 9.87387 190.069 8.75387C190.069 6.67387 190.376 5.6872 190.989 5.79387C191.069 5.79387 191.149 5.82053 191.229 5.87387C191.522 6.06053 191.962 5.94053 192.549 5.51387ZM197.589 7.55387C196.869 7.0472 196.002 6.83387 194.989 6.91387C194.002 6.99387 193.229 7.3272 192.669 7.91387C192.189 8.34053 191.896 8.79387 191.789 9.27387C191.709 9.7272 191.669 10.7405 191.669 12.3139V15.7139H193.229C195.096 15.7139 196.429 15.2872 197.229 14.4339C198.056 13.5805 198.469 12.1539 198.469 10.1539C198.469 9.35387 198.402 8.78053 198.269 8.43387C198.162 8.0872 197.936 7.79387 197.589 7.55387ZM205.452 5.47387C206.066 4.8872 206.559 4.51387 206.932 4.35387C207.332 4.19387 207.972 4.11387 208.852 4.11387C211.039 4.11387 212.692 4.75387 213.812 6.03387C214.186 6.43387 214.479 6.62053 214.692 6.59387C214.906 6.54053 215.426 6.2072 216.252 5.59387C216.306 5.54053 216.346 5.50053 216.372 5.47387C218.799 3.63387 220.852 3.5672 222.532 5.27387C224.159 6.9272 224.132 9.19387 222.452 12.0739C221.226 14.1805 219.599 16.0072 217.572 17.5539C215.546 19.0739 213.986 19.6339 212.892 19.2339C211.986 18.8872 210.599 17.8072 208.732 15.9939C206.892 14.1539 205.692 12.7005 205.132 11.6339C204.412 10.1672 204.079 8.98053 204.132 8.07387C204.186 7.1672 204.626 6.30053 205.452 5.47387ZM211.092 6.59387C210.479 6.30053 209.719 6.15387 208.812 6.15387C207.932 6.1272 207.266 6.26053 206.812 6.55387C206.332 6.82053 206.106 7.46053 206.132 8.47387C206.159 9.46053 206.412 10.3672 206.892 11.1939C207.212 11.7272 208.372 12.8872 210.372 14.6739C212.372 16.4605 213.612 17.4472 214.092 17.6339C214.306 17.7139 215.412 16.7805 217.412 14.8339C219.839 12.4872 221.239 10.4605 221.612 8.75387C221.879 7.5272 221.439 6.91387 220.292 6.91387C219.652 6.91387 218.959 7.11387 218.212 7.51387C217.466 7.8872 216.772 8.4072 216.132 9.07387C215.466 9.79387 214.879 10.1272 214.372 10.0739C213.892 9.99387 213.412 9.50053 212.932 8.59387C212.719 8.1672 212.439 7.7672 212.092 7.39387C211.746 6.99387 211.412 6.7272 211.092 6.59387ZM231.903 5.91387C232.756 5.51387 233.436 5.31387 233.943 5.31387C234.556 5.31387 235.196 5.62053 235.863 6.23387C236.556 6.82053 236.903 7.38053 236.903 7.91387C236.903 8.50053 236.703 8.87387 236.303 9.03387C235.903 9.19387 235.569 9.02053 235.303 8.51387C234.796 7.6072 233.983 7.43387 232.863 7.99387C231.769 8.55387 230.849 9.59387 230.103 11.1139C229.569 12.2072 229.343 13.3672 229.423 14.5939C229.529 15.7939 229.889 16.5672 230.503 16.9139C231.036 17.2072 232.116 17.3405 233.743 17.3139C235.369 17.2872 236.409 17.1272 236.863 16.8339C237.343 16.5405 237.796 16.4872 238.223 16.6739C238.676 16.8339 238.903 17.1672 238.903 17.6739C238.903 19.3005 236.449 20.0072 231.543 19.7939C230.529 19.7405 229.583 19.2872 228.703 18.4339C227.849 17.5805 227.316 16.5805 227.103 15.4339C226.836 13.7272 227.183 11.9139 228.143 9.99387C229.103 8.0472 230.356 6.6872 231.903 5.91387ZM243.459 7.03387C244.099 6.26053 244.432 6.58053 244.459 7.99387C244.486 8.50053 244.459 9.15387 244.379 9.95387L244.099 12.8739L245.619 12.0739C247.299 11.2472 248.939 11.0872 250.539 11.5939C252.139 12.1005 252.952 13.0472 252.979 14.4339C252.979 15.5539 252.299 16.6472 250.939 17.7139C249.606 18.7805 248.232 19.3139 246.819 19.3139C245.886 19.3139 244.886 18.7939 243.819 17.7539C243.019 17.0072 242.539 16.4472 242.379 16.0739C242.246 15.6739 242.179 14.8605 242.179 13.6339C242.206 12.2472 242.339 10.9005 242.579 9.59387C242.819 8.2872 243.112 7.43387 243.459 7.03387ZM250.539 13.6739C249.606 13.0872 248.179 13.2339 246.259 14.1139C245.379 14.5139 244.899 14.8472 244.819 15.1139C244.766 15.3805 245.059 15.8739 245.699 16.5939C246.499 17.5005 247.686 17.4872 249.259 16.5539C249.979 16.1005 250.472 15.5805 250.739 14.9939C251.006 14.3805 250.939 13.9405 250.539 13.6739ZM264.442 1.11387C265.855 0.7672 266.775 0.633866 267.202 0.713865C267.628 0.7672 267.842 1.0872 267.842 1.67387C267.842 2.10053 267.682 2.4072 267.362 2.59387C267.042 2.78053 266.215 3.0472 264.882 3.39387C262.588 3.95387 260.935 4.6472 259.922 5.47387C258.935 6.30053 258.442 7.39387 258.442 8.75387C258.442 9.18053 258.482 9.43387 258.562 9.51387C258.668 9.5672 258.882 9.50053 259.202 9.31387C260.108 8.86053 261.295 8.8072 262.762 9.15387C264.228 9.50053 265.175 10.0605 265.602 10.8339C266.108 11.7672 266.148 13.1139 265.722 14.8739C265.295 16.6072 264.642 17.8205 263.762 18.5139C262.935 19.1539 262.015 19.5939 261.002 19.8339C260.015 20.0739 259.188 20.0472 258.522 19.7539C257.562 19.3539 256.935 18.6872 256.642 17.7539C256.375 16.8205 256.242 14.9539 256.242 12.1539C256.242 8.87387 256.455 6.70053 256.882 5.63387C257.308 4.54053 258.335 3.59387 259.962 2.79387C261.455 2.02053 262.948 1.46053 264.442 1.11387ZM263.322 11.7539C262.282 11.2205 260.802 11.2605 258.882 11.8739L257.562 12.3139L257.802 14.3939C257.988 16.1539 258.282 17.2472 258.682 17.6739C259.108 18.0739 259.908 18.0872 261.082 17.7139C262.602 17.2072 263.535 15.9005 263.882 13.7939C263.988 13.1272 264.002 12.6739 263.922 12.4339C263.868 12.1672 263.668 11.9405 263.322 11.7539Z" fill="#253758"></path></svg> 