<?xml version="1.0" encoding="UTF-8"?> <svg xmlns="http://www.w3.org/2000/svg" width="70" height="11" viewBox="0 0 70 11" fill="none"><path d="M1.11825 10.1016V9.67256C1.42158 9.65523 1.65125 9.5859 1.80725 9.46456C1.97192 9.34323 2.08458 9.17423 2.14525 8.95756C2.21458 8.7409 2.24925 8.48523 2.24925 8.19056L2.21025 2.05456L0.65025 3.05556L0.39025 2.67856L2.92525 0.793562H3.36725L3.38025 8.68456C3.38025 8.84923 3.37592 9.00956 3.36725 9.16556C3.36725 9.32156 3.35858 9.46023 3.34125 9.58156C3.52325 9.5729 3.70525 9.56423 3.88725 9.55556C4.06925 9.5469 4.25125 9.53823 4.43325 9.52956V10.1016H1.11825ZM5.8536 10.1016V9.67256C6.15693 9.65523 6.3866 9.5859 6.5426 9.46456C6.70727 9.34323 6.81994 9.17423 6.8806 8.95756C6.94994 8.7409 6.9846 8.48523 6.9846 8.19056L6.9456 2.05456L5.3856 3.05556L5.1256 2.67856L7.6606 0.793562H8.1026L8.1156 8.68456C8.1156 8.84923 8.11127 9.00956 8.1026 9.16556C8.1026 9.32156 8.09393 9.46023 8.0766 9.58156C8.2586 9.5729 8.4406 9.56423 8.6226 9.55556C8.8046 9.5469 8.9866 9.53823 9.1686 9.52956V10.1016H5.8536ZM12.964 10.1016V9.67256C13.224 9.67256 13.4233 9.60323 13.562 9.46456C13.7007 9.3259 13.8133 9.13523 13.9 8.89256C13.9953 8.6499 14.1037 8.36823 14.225 8.04756L16.903 0.754562H17.215L20.114 8.15156C20.1833 8.33356 20.2613 8.56756 20.348 8.85356C20.4347 9.13956 20.4693 9.38223 20.452 9.58156C20.5993 9.5729 20.7467 9.56423 20.894 9.55556C21.0413 9.5469 21.1887 9.53823 21.336 9.52956V10.1016H18.359V9.67256C18.6883 9.6639 18.905 9.59023 19.009 9.45156C19.113 9.3129 19.152 9.14823 19.126 8.95756C19.1 8.7669 19.0567 8.59356 18.996 8.43756L18.541 7.21556L15.161 7.29356L14.706 8.68456C14.6453 8.89256 14.589 9.05723 14.537 9.17856C14.4937 9.2999 14.4417 9.43423 14.381 9.58156C14.5543 9.5729 14.7233 9.56423 14.888 9.55556C15.0613 9.5469 15.2303 9.53823 15.395 9.52956V10.1016H12.964ZM15.356 6.73456H18.359L17.436 4.25156C17.3407 3.9829 17.241 3.71856 17.137 3.45856C17.0417 3.1899 16.9463 2.92123 16.851 2.65256H16.825C16.7383 2.89523 16.6473 3.1379 16.552 3.38056C16.4653 3.62323 16.3743 3.87023 16.279 4.12156L15.356 6.73456ZM21.8947 10.1016V9.67256C22.224 9.6639 22.4494 9.59023 22.5707 9.45156C22.692 9.30423 22.757 9.10923 22.7657 8.86656C22.783 8.61523 22.7917 8.32923 22.7917 8.00856V2.54856C22.7917 2.31456 22.796 2.11523 22.8047 1.95056C22.8134 1.77723 22.822 1.63423 22.8307 1.52156C22.6747 1.53023 22.5187 1.5389 22.3627 1.54756C22.2067 1.55623 22.0507 1.5649 21.8947 1.57356V1.00156C22.3714 0.992895 22.848 0.988562 23.3247 0.988562C23.81 0.979895 24.3127 0.975562 24.8327 0.975562C25.838 0.975562 26.6224 1.15323 27.1857 1.50856C27.7577 1.8639 28.035 2.42723 28.0177 3.19856C28.0177 3.4759 27.9354 3.75323 27.7707 4.03056C27.6147 4.3079 27.3764 4.5549 27.0557 4.77156C26.7437 4.97956 26.3494 5.1269 25.8727 5.21356V5.23956C26.826 5.23956 27.5454 5.46056 28.0307 5.90256C28.516 6.3359 28.7587 6.88623 28.7587 7.55356C28.7587 8.08223 28.6244 8.53723 28.3557 8.91856C28.087 9.2999 27.723 9.59456 27.2637 9.80256C26.8044 10.0019 26.28 10.1016 25.6907 10.1016H21.8947ZM23.8837 9.58156C24.0224 9.59023 24.187 9.5989 24.3777 9.60756C24.577 9.60756 24.759 9.60756 24.9237 9.60756C25.097 9.60756 25.2097 9.60756 25.2617 9.60756C25.929 9.60756 26.4664 9.4429 26.8737 9.11356C27.2897 8.77556 27.4977 8.28156 27.4977 7.63156C27.4977 7.1029 27.3937 6.69123 27.1857 6.39656C26.9777 6.1019 26.7047 5.8939 26.3667 5.77256C26.0287 5.65123 25.6604 5.59056 25.2617 5.59056C25.0017 5.59056 24.7634 5.5949 24.5467 5.60356C24.3387 5.60356 24.1307 5.61223 23.9227 5.62956V8.56756C23.9227 8.80156 23.9184 9.0009 23.9097 9.16556C23.9097 9.33023 23.901 9.4689 23.8837 9.58156ZM23.9227 5.12256L24.8717 5.09656C25.3657 5.0879 25.7557 4.98823 26.0417 4.79756C26.3277 4.59823 26.5314 4.35123 26.6527 4.05656C26.7827 3.7619 26.8434 3.45423 26.8347 3.13356C26.826 2.66556 26.7177 2.31023 26.5097 2.06756C26.3104 1.8249 26.0634 1.66023 25.7687 1.57356C25.474 1.4869 25.1837 1.44356 24.8977 1.44356C24.6117 1.44356 24.3994 1.48256 24.2607 1.56056C24.122 1.63856 24.031 1.76856 23.9877 1.95056C23.9444 2.13256 23.9227 2.3839 23.9227 2.70456V5.12256ZM29.9816 10.1016V9.67256C30.3109 9.65523 30.5363 9.58156 30.6576 9.45156C30.7789 9.3129 30.8439 9.12656 30.8526 8.89256C30.8699 8.6499 30.8786 8.3769 30.8786 8.07356V2.45756C30.8786 2.28423 30.8829 2.11956 30.8916 1.96356C30.9003 1.7989 30.9089 1.65156 30.9176 1.52156C30.7616 1.53023 30.6056 1.5389 30.4496 1.54756C30.2936 1.55623 30.1376 1.5649 29.9816 1.57356V1.00156H36.0136L36.0786 3.27656H35.5976C35.5976 2.76523 35.5196 2.37956 35.3636 2.11956C35.2076 1.8509 34.9996 1.67323 34.7396 1.58656C34.4796 1.49123 34.1849 1.4479 33.8556 1.45656L32.9066 1.48256C32.5859 1.49123 32.3649 1.56923 32.2436 1.71656C32.1223 1.85523 32.0529 2.04156 32.0356 2.27556C32.0183 2.50956 32.0096 2.77823 32.0096 3.08156V8.55456C32.0096 8.78856 32.0053 8.99223 31.9966 9.16556C31.9966 9.33023 31.9879 9.4689 31.9706 9.58156C32.1179 9.5729 32.2653 9.56856 32.4126 9.56856C32.5599 9.5599 32.7073 9.55123 32.8546 9.54256C33.0019 9.5339 33.1493 9.52956 33.2966 9.52956V10.1016H29.9816ZM38.8327 10.3226C38.6507 10.3226 38.4773 10.2966 38.3127 10.2446C38.1567 10.2012 38.0267 10.1232 37.9227 10.0106C37.8187 9.88923 37.7667 9.7289 37.7667 9.52956C37.7667 9.32156 37.8273 9.15256 37.9487 9.02256C38.07 8.8839 38.2303 8.81023 38.4297 8.80156C38.629 8.7929 38.7763 8.84923 38.8717 8.97056C38.9757 9.0919 39.0277 9.2219 39.0277 9.36056C39.0277 9.43856 39.019 9.50356 39.0017 9.55556C38.9843 9.5989 38.954 9.64223 38.9107 9.68556C38.954 9.69423 38.993 9.70723 39.0277 9.72456C39.0623 9.73323 39.097 9.73756 39.1317 9.73756C39.3223 9.73756 39.526 9.54256 39.7427 9.15256C39.8033 9.05723 39.8943 8.8709 40.0157 8.59356C40.137 8.30756 40.28 7.96523 40.4447 7.56656C40.6093 7.1679 40.7827 6.74756 40.9647 6.30556C41.1467 5.8549 41.32 5.4129 41.4847 4.97956C41.658 4.53756 41.814 4.1389 41.9527 3.78356C42.0913 3.41956 42.1953 3.13356 42.2647 2.92556C42.3513 2.66556 42.4467 2.3969 42.5507 2.11956C42.6633 1.84223 42.763 1.64723 42.8497 1.53456L41.8227 1.57356V1.00156H44.4877V1.43056C44.167 1.4479 43.9157 1.52156 43.7337 1.65156C43.5517 1.7729 43.4 1.9549 43.2787 2.19756C43.166 2.43156 43.036 2.72623 42.8887 3.08156L40.7827 8.16456C40.5833 8.64123 40.3927 9.0399 40.2107 9.36056C40.0287 9.68123 39.8293 9.9239 39.6127 10.0886C39.396 10.2446 39.136 10.3226 38.8327 10.3226ZM40.2757 8.19056L37.6627 3.00356C37.4893 2.6569 37.3637 2.3709 37.2857 2.14556C37.2163 1.91156 37.1643 1.71223 37.1297 1.54756L36.3237 1.57356V1.00156H39.4567V1.43056C39.0927 1.43056 38.837 1.49123 38.6897 1.61256C38.551 1.7339 38.4947 1.9029 38.5207 2.11956C38.5553 2.32756 38.642 2.57023 38.7807 2.84756L40.1197 5.53856C40.241 5.78123 40.3623 6.01956 40.4837 6.25356C40.605 6.48756 40.722 6.7259 40.8347 6.96856L40.2757 8.19056ZM52.2272 3.90056C52.1406 3.0859 51.8546 2.45323 51.3692 2.00256C50.8926 1.5519 50.2772 1.32656 49.5232 1.32656C49.0639 1.32656 48.6306 1.42623 48.2232 1.62556C47.8246 1.81623 47.4736 2.09356 47.1702 2.45756C46.8669 2.82156 46.6286 3.25923 46.4552 3.77056C46.2819 4.2819 46.1952 4.85823 46.1952 5.49956C46.1952 6.31423 46.3512 7.03356 46.6632 7.65756C46.9752 8.28156 47.3956 8.7669 47.9242 9.11356C48.4529 9.46023 49.0379 9.63356 49.6792 9.63356C50.2426 9.63356 50.7972 9.5079 51.3432 9.25656C51.8892 8.99656 52.3356 8.6239 52.6822 8.13856L53.0202 8.41156C52.6476 8.9229 52.2446 9.31723 51.8112 9.59456C51.3779 9.8719 50.9446 10.0582 50.5112 10.1536C50.0866 10.2576 49.6966 10.3096 49.3412 10.3096C48.6912 10.3096 48.0932 10.1926 47.5472 9.95856C47.0099 9.72456 46.5419 9.39956 46.1432 8.98356C45.7532 8.5589 45.4499 8.06923 45.2332 7.51456C45.0252 6.95123 44.9212 6.34456 44.9212 5.69456C44.9212 5.07923 45.0122 4.48123 45.1942 3.90056C45.3849 3.3199 45.6666 2.79556 46.0392 2.32756C46.4119 1.85956 46.8799 1.4869 47.4432 1.20956C48.0152 0.932229 48.6782 0.793562 49.4322 0.793562C49.9176 0.793562 50.3769 0.858562 50.8102 0.988562C51.2436 1.11856 51.6596 1.3179 52.0582 1.58656L51.9932 0.884562H52.6952V3.90056H52.2272ZM60.9401 3.74456C60.9314 3.23323 60.8794 2.80856 60.7841 2.47056C60.6888 2.13256 60.5198 1.88123 60.2771 1.71656C60.0431 1.54323 59.7008 1.4609 59.2501 1.46956H58.1451L58.1321 8.55456C58.1321 8.78856 58.1278 8.99223 58.1191 9.16556C58.1191 9.33023 58.1104 9.4689 58.0931 9.58156C58.2751 9.5729 58.4528 9.56423 58.6261 9.55556C58.8081 9.5469 58.9901 9.53823 59.1721 9.52956V10.1016H56.1171V9.67256C56.4464 9.65523 56.6674 9.57723 56.7801 9.43856C56.9014 9.2999 56.9664 9.11356 56.9751 8.87956C56.9924 8.6369 57.0011 8.36823 57.0011 8.07356L57.0141 1.48256L55.6751 1.49556C55.1291 1.49556 54.7434 1.67756 54.5181 2.04156C54.2928 2.40556 54.1801 2.97323 54.1801 3.74456H53.6991L53.7771 1.00156H61.3561L61.4341 3.74456H60.9401ZM61.3331 10.1016V9.67256C61.5931 9.67256 61.7925 9.60323 61.9311 9.46456C62.0698 9.3259 62.1825 9.13523 62.2691 8.89256C62.3645 8.6499 62.4728 8.36823 62.5941 8.04756L65.2721 0.754562H65.5841L68.4831 8.15156C68.5525 8.33356 68.6305 8.56756 68.7171 8.85356C68.8038 9.13956 68.8385 9.38223 68.8211 9.58156C68.9685 9.5729 69.1158 9.56423 69.2631 9.55556C69.4105 9.5469 69.5578 9.53823 69.7051 9.52956V10.1016H66.7281V9.67256C67.0575 9.6639 67.2741 9.59023 67.3781 9.45156C67.4821 9.3129 67.5211 9.14823 67.4951 8.95756C67.4691 8.7669 67.4258 8.59356 67.3651 8.43756L66.9101 7.21556L63.5301 7.29356L63.0751 8.68456C63.0145 8.89256 62.9581 9.05723 62.9061 9.17856C62.8628 9.2999 62.8108 9.43423 62.7501 9.58156C62.9235 9.5729 63.0925 9.56423 63.2571 9.55556C63.4305 9.5469 63.5995 9.53823 63.7641 9.52956V10.1016H61.3331ZM63.7251 6.73456H66.7281L65.8051 4.25156C65.7098 3.9829 65.6101 3.71856 65.5061 3.45856C65.4108 3.1899 65.3155 2.92123 65.2201 2.65256H65.1941C65.1075 2.89523 65.0165 3.1379 64.9211 3.38056C64.8345 3.62323 64.7435 3.87023 64.6481 4.12156L63.7251 6.73456Z" fill="#353434"></path></svg> 