<?xml version="1.0" encoding="UTF-8"?> <svg xmlns="http://www.w3.org/2000/svg" width="182" height="119" viewBox="0 0 182 119" fill="none"><path d="M38.853 37.2921C36.933 37.2921 34.373 36.1401 33.733 33.2601C33.349 32.3641 33.413 31.4041 33.285 30.4441L33.541 29.6761C33.605 29.4201 33.669 29.1641 33.989 29.1001C34.245 28.9721 34.437 29.2281 34.437 29.6121C35.525 34.5401 37.125 35.8841 40.069 35.3081C41.669 34.9881 43.141 33.6441 44.037 32.4281C44.421 31.9161 44.421 31.8521 45.061 31.2121C45.189 30.7001 45.445 30.6361 45.701 30.1241C45.765 29.8681 45.445 29.5481 45.637 29.2921C46.085 28.5241 46.725 27.8201 47.429 27.1161C47.365 25.7721 47.941 24.6841 49.093 23.7241C49.221 22.5721 49.989 21.4841 50.373 20.3961C50.885 19.4361 51.525 18.5401 51.845 17.4521C52.293 15.9161 52.997 14.3801 53.509 12.8441C54.213 10.6681 54.661 9.13212 55.045 7.08412C55.237 6.12412 55.301 5.16412 55.621 4.20412C55.813 3.50012 55.941 2.09212 55.941 1.38812C55.941 0.620123 56.517 0.108124 57.349 0.108124C57.605 0.0441227 58.245 0.172123 58.757 0.812124C59.141 1.51612 59.333 2.66812 59.525 3.37212C60.229 5.93212 60.165 7.98012 60.549 10.6041C61.061 14.1881 61.509 17.1961 61.765 20.8441C61.829 21.3561 61.893 22.2521 61.893 22.5721C62.277 21.9321 62.405 21.2281 62.789 20.9081C63.301 20.4601 63.301 20.0121 64.325 19.7561C64.133 20.2681 63.621 20.2681 63.173 21.1001C62.853 21.6761 62.597 22.3161 62.277 22.8921C62.213 23.1481 62.149 23.3401 62.341 23.7241L63.301 22.5081C64.069 21.2281 65.093 20.2041 65.989 19.0521C66.181 18.8601 66.501 18.7321 66.565 18.6041L66.885 17.9641C67.589 16.5561 68.421 15.3401 69.701 14.3161C70.021 14.0601 70.789 13.6121 70.917 13.9321L70.021 14.7641C69.829 14.9561 69.637 15.1481 69.637 15.3401C69.701 15.9161 69.381 16.3001 68.933 16.7481C67.653 18.2201 66.821 19.9481 66.053 21.6121C65.541 22.7641 64.773 23.7881 64.261 25.0041C63.749 26.2201 63.173 27.4361 62.853 28.7161C62.853 28.9721 62.661 29.2921 62.405 29.5481C61.893 29.8681 61.765 29.7401 61.189 29.4841L60.101 28.9721C59.461 28.7161 59.205 28.3321 59.269 27.7561C59.525 25.1961 59.333 22.8281 59.141 19.8201C58.821 14.3801 57.797 6.63612 57.797 6.63612C56.965 10.0281 55.493 15.4681 54.277 18.4121C53.061 21.2921 51.909 24.1721 50.053 26.8601C49.989 27.1161 47.365 30.8921 47.237 31.1481C46.917 31.5961 46.341 31.9161 46.277 31.6601C46.085 31.3401 46.469 31.1481 46.725 30.8921C46.853 30.7641 48.133 29.2921 48.901 28.0761C48.901 27.2441 48.965 27.1801 49.413 26.4121C49.733 26.0281 49.797 25.5161 49.989 25.1321L49.093 25.9641C48.965 26.2201 48.709 26.4761 48.389 26.7961C48.197 27.2441 48.133 27.7561 47.877 28.2041C47.429 28.9721 46.789 29.6761 46.213 30.4441C46.149 30.6361 45.189 32.0441 44.997 32.3001C45.061 32.5561 45.317 32.5561 45.829 32.7481C45.893 33.0041 45.637 33.9001 44.357 35.0521C43.845 35.5001 41.733 37.2921 38.853 37.2921ZM80.005 40.8121C77.701 40.4921 76.421 38.8281 75.461 37.1001C74.053 34.5401 73.989 27.8201 74.245 25.7721L74.821 21.3561C75.077 20.2681 75.333 19.2441 75.653 18.1561C75.909 16.8121 76.357 15.4681 76.677 14.1241C76.677 13.8681 77.765 10.8601 78.341 9.19612C78.789 8.30012 79.045 7.46812 79.429 6.57212L79.365 6.50812C78.213 7.14812 74.053 10.4121 73.925 10.7961C73.861 11.9481 72.645 12.2681 71.813 13.1641C71.685 13.2281 71.621 13.3561 71.365 13.4201C71.237 13.4841 70.981 13.4841 70.917 13.4201C70.789 13.2921 70.725 13.0361 70.853 12.9081C71.365 12.1401 72.069 11.3721 72.645 10.6041C73.093 10.0921 73.669 9.70812 74.245 9.26012L79.813 4.26812C80.133 4.07612 80.389 3.82012 80.389 3.56412C80.517 2.92412 81.093 2.54012 81.413 2.09212C82.245 0.940125 83.397 0.876123 84.549 1.00412C85.573 1.06812 85.509 1.83612 85.253 2.66812C85.125 3.24412 84.805 3.75612 84.421 4.26812C82.245 8.04412 80.901 12.0121 79.493 15.9801C78.405 19.1161 77.637 22.2521 77.381 25.4521C77.253 26.9241 77.317 30.4441 77.253 30.7641C76.933 32.3641 77.125 33.7081 77.509 35.2441C78.149 37.8681 79.557 38.7641 80.133 39.0841C81.733 39.9801 83.525 39.4681 83.333 39.9801C82.437 40.6201 82.117 41.1321 80.005 40.8121ZM75.269 31.7241C75.461 31.0201 75.269 30.5721 75.269 30.1241C75.269 28.9081 75.141 27.6921 75.781 26.5401C76.101 26.9241 75.973 27.4361 75.973 27.9481C75.973 28.1401 76.037 28.3321 76.357 28.2681C76.613 26.6041 76.805 24.8761 76.933 23.0841C76.357 23.4681 76.293 23.9801 76.229 24.4921C76.165 25.1961 76.101 25.9001 75.781 26.5401C75.717 26.1561 75.589 25.7721 75.589 25.3881C75.845 24.0441 75.845 22.6361 76.165 21.2921C76.293 20.8441 76.357 20.3321 76.485 19.8201C76.485 19.4361 76.485 19.0521 76.677 18.6041C77.125 17.6441 77.253 16.6201 77.317 15.5961C77.061 15.6601 76.869 15.7241 76.805 16.0441C76.677 16.7481 76.357 17.3241 76.101 17.9641C75.973 18.1561 76.037 18.3481 75.973 18.5401C76.037 18.7321 76.101 18.9241 76.101 19.1161L75.717 21.4201C75.461 22.2521 75.141 23.0841 75.269 24.1081C75.333 24.6201 75.269 25.1961 75.205 25.7721C75.077 26.7961 75.013 27.8841 75.013 28.9081C75.013 29.8041 74.949 30.7001 75.269 31.7241ZM64.325 19.7561C64.517 18.8601 64.965 18.0281 65.925 17.3881C65.477 18.2201 65.029 19.0521 64.325 19.7561ZM77.573 19.7561C77.829 19.0521 78.213 18.4121 77.573 17.5161C77.253 18.8601 77.253 18.8601 77.573 19.7561ZM50.053 24.8761C50.565 24.3001 51.333 23.7881 51.397 23.1481C51.461 22.4441 51.653 21.8681 52.037 21.2921C52.357 20.7801 52.357 20.7161 52.037 19.8841C51.845 20.4601 51.653 21.0361 51.397 21.4841C50.629 22.5721 50.309 23.7241 50.053 24.8761ZM96.901 28.9081C96.901 28.9721 96.965 29.0361 96.965 29.0361C97.797 28.7801 98.501 28.0761 99.333 27.6281C99.269 27.7561 99.269 27.8841 99.205 27.9481C98.949 28.2041 98.629 28.4601 98.373 28.6521L97.157 29.6121C96.645 29.8681 96.261 30.1241 95.813 30.4441C95.237 30.7641 94.725 31.2121 94.085 31.4681C93.701 31.6601 93.253 31.6601 92.805 31.7241C92.549 31.7241 92.421 31.7881 92.229 31.9161C91.973 32.0441 91.589 32.1081 91.269 32.1721C90.757 32.3001 90.309 32.4281 89.797 32.3641C89.157 32.3001 88.453 32.1721 87.877 31.9801C87.301 31.7881 87.045 31.7241 86.405 31.2121C86.341 31.0841 86.149 31.0201 86.085 30.9561C85.637 30.6361 85.381 30.2521 84.997 29.6761C84.869 29.5481 84.869 29.5481 84.741 28.9081C84.421 28.1401 84.485 27.6921 84.485 27.2441C84.549 25.9641 84.869 24.7481 85.509 23.5321C85.765 23.1481 86.021 22.7641 86.341 22.3801C86.917 21.6761 87.493 21.0361 88.069 20.3961C88.645 19.8201 89.349 19.4361 90.181 19.3721C90.373 19.3721 90.565 19.3081 90.821 19.2441C91.461 18.9881 92.037 19.4361 92.485 19.6921C93.061 19.9481 93.573 20.3321 94.021 20.7161C94.533 21.0361 94.853 22.1241 94.661 22.6361C94.533 22.9561 94.341 23.2761 94.149 23.4681C93.573 24.1081 92.997 24.6841 92.421 25.2601C92.229 25.4521 91.845 25.5161 91.781 25.7081C91.717 26.1561 91.269 26.2201 91.013 26.3481L90.565 26.6041C90.693 26.6041 90.757 26.6681 90.757 26.6681C90.565 26.7961 90.373 26.8601 90.117 26.9881C90.053 27.0521 90.053 27.2441 89.989 27.3081C89.541 27.5641 89.029 27.7561 88.645 28.0121C88.453 28.0761 88.325 28.2681 88.197 28.3961C87.685 28.6521 87.493 28.7161 87.045 28.9721C87.301 29.7401 87.429 29.8681 87.941 30.0601C88.773 29.9961 89.605 30.0601 90.437 29.9321C91.013 29.8681 91.589 29.6121 92.165 29.4201C92.613 29.2281 93.125 28.9721 93.637 28.7801C93.957 28.6521 94.277 28.6521 94.597 28.4601C95.301 28.0121 96.069 27.6281 96.709 27.2441L96.901 27.1161C96.965 27.1801 96.965 27.1801 96.965 27.1801C96.901 27.3081 96.773 27.4361 96.709 27.5001C96.773 27.5641 96.837 27.6281 96.773 27.6921C96.965 27.6921 97.157 27.6281 97.285 27.5641C97.349 27.6281 97.349 27.6281 97.285 27.6921C97.029 27.8841 96.709 28.1401 96.453 28.3961C96.645 28.5241 96.965 28.5881 97.285 28.7161C97.093 28.7801 97.029 28.8441 96.901 28.9081ZM87.429 25.0681C87.237 25.4521 87.109 25.9001 86.981 26.4121C87.493 26.0921 87.813 25.9001 88.069 25.7081C88.197 25.7081 88.325 25.7721 88.389 25.7081C88.581 25.5801 88.901 25.3881 89.157 25.1321C88.965 25.1321 88.901 25.1961 88.709 25.1961C89.093 24.8761 89.285 24.4921 89.733 24.4921C89.605 24.6841 89.413 24.8121 89.285 25.0041C89.285 25.0041 89.285 25.0681 89.349 25.0681C89.925 24.6841 90.437 24.2361 91.013 23.8521L90.885 23.7241C90.757 23.8521 90.629 23.9801 90.373 24.1081C90.181 24.2361 89.989 24.3641 89.733 24.4921C89.797 24.4281 89.797 24.3641 89.797 24.3001C90.437 23.7881 90.949 23.3401 91.525 22.7641C91.909 22.4441 92.165 22.0601 92.421 21.6121C92.613 21.2921 92.293 20.7161 92.037 20.8441C91.461 21.1001 90.885 21.1001 90.373 21.4841C89.797 21.9321 89.221 22.2521 88.773 22.8281C88.261 23.5321 87.813 24.3001 87.429 25.0681ZM93.125 21.4201C92.677 21.9321 92.421 22.4441 92.613 23.1481C92.805 22.7641 93.125 22.3161 93.317 21.9321L93.125 21.4201ZM101.957 24.5561C101.573 24.8121 101.189 25.0041 100.869 25.2601V25.3241C100.869 25.2601 100.933 25.2601 100.933 25.2601C100.933 25.3241 100.997 25.3881 100.997 25.3881C100.869 25.5161 100.613 25.7081 100.293 25.9001L100.357 26.1561C100.101 26.2841 99.973 26.4121 100.165 26.6041C99.909 26.7961 99.525 26.7961 99.461 27.2441C99.461 27.2441 99.461 27.3081 99.397 27.3081C98.949 27.3081 98.693 27.7561 98.373 28.0121C98.181 28.1401 97.925 28.3321 97.605 28.4601C97.477 28.5241 97.349 28.3961 97.221 28.3321C97.157 28.2041 97.157 28.0761 97.157 28.0121C97.157 27.9481 97.221 27.8841 97.221 27.8841C97.797 28.0121 98.181 27.5641 98.629 27.3081L99.077 27.0521C99.333 26.9881 99.461 26.7961 99.205 26.4121C98.757 26.7961 98.181 27.1161 97.669 27.5641C97.605 27.5001 97.413 27.4361 97.221 27.3721C97.669 27.1161 98.693 26.5401 99.077 25.8361C99.205 25.7081 99.909 25.3881 100.101 25.1961L100.549 25.3881C100.677 25.1961 100.805 25.0681 100.933 24.9401C100.869 24.8761 100.805 24.8761 100.677 24.8121L100.741 24.7481C100.933 24.7481 101.125 24.7481 101.445 24.6841C101.381 24.5561 101.317 24.4921 101.317 24.4281L101.637 24.1721L101.573 24.1081L101.317 24.3001H101.189L102.277 23.5961L102.405 24.0441C102.405 24.0441 102.469 24.0441 102.469 24.1081C102.277 24.2361 102.149 24.4281 101.957 24.5561ZM97.093 27.0521C97.029 27.0521 97.029 26.9881 97.029 26.9881C97.605 26.6041 98.181 26.3481 98.821 25.9641C98.757 26.2841 98.373 26.4121 97.093 27.0521ZM95.429 28.3961C95.877 28.2041 96.197 28.0121 96.517 27.8201C96.453 27.6281 95.877 27.8201 95.429 28.3961ZM104.352 33.5161L102.816 33.3241C102.624 33.2601 102.24 33.2601 101.984 33.1961C101.6 33.0041 101.152 32.8761 100.704 32.6201C100.384 32.3641 100.064 31.9801 99.744 31.6601C99.552 31.4041 99.424 31.0841 99.296 30.7641C99.232 30.3801 99.104 29.9961 99.04 29.4841C99.04 29.1641 99.04 28.7161 99.168 28.3321C99.296 25.7081 101.024 23.0201 102.112 21.5481C102.176 21.4201 102.24 21.2921 102.368 21.2921C102.496 21.1001 102.624 20.9721 102.688 20.8441C102.752 20.7801 103.392 20.0121 103.648 19.8201C104.16 19.3081 104.736 19.1801 105.312 19.3721C105.568 19.4361 105.888 19.3081 106.144 19.4361C106.464 19.5641 106.784 19.8201 107.104 20.0121C107.488 20.2041 107.872 20.3321 108.128 20.5881C108.512 20.8441 108.832 21.1641 109.088 21.4841C109.152 21.6121 109.152 21.9321 109.024 22.1881C109.024 22.4441 108.832 22.6361 108.64 22.8921C108.512 23.0841 108.128 23.0201 107.936 22.8921C107.616 22.7001 107.296 22.5721 107.04 22.3801C106.848 22.1881 106.656 21.9961 106.592 21.8041C106.464 21.5481 106.4 21.5481 106.208 21.6761C105.632 21.9321 105.056 22.3161 104.736 22.8921C104.48 23.4041 104.032 23.7241 103.712 24.2361C103.392 24.7481 103.008 25.2601 102.624 25.8361C101.984 26.7961 101.536 27.8841 101.216 28.9721C100.96 29.5481 101.024 30.2521 101.152 30.8281C101.216 31.0201 101.408 31.0841 101.6 31.1481C102.368 31.1481 103.2 31.0841 104.032 30.7641C104.544 30.6361 105.056 30.5721 105.44 30.3161C105.888 30.1881 106.336 29.9961 106.72 29.7401C106.976 29.6121 107.168 29.4201 107.488 29.2281C107.616 29.1001 107.744 29.1001 107.872 29.0361V29.1641C107.744 29.2281 107.616 29.2921 107.424 29.4201V29.4841C107.616 29.4841 107.744 29.4201 107.808 29.3561L109.408 28.3321C110.176 27.7561 110.88 27.1801 111.584 26.6041C112.096 26.2841 112.48 25.9641 112.928 25.5801C112.928 25.5801 112.992 25.5161 112.992 25.3881C112.864 25.5161 112.736 25.5801 112.48 25.7081C112.416 25.6441 112.48 25.5801 112.48 25.5801C112.928 25.1961 113.568 24.8121 114.08 24.4921C114.208 24.3001 114.4 24.1721 114.72 23.9801C114.784 23.9161 114.848 23.6601 115.04 23.9161C115.104 23.7881 115.104 23.6601 115.104 23.6601C115.424 23.4681 115.808 23.1481 116.128 22.8921C116.192 22.8921 116.32 22.8281 116.384 22.7641C116.384 22.8921 116.512 22.9561 116.448 23.0201C116.384 23.4041 116.32 23.7241 115.936 23.9161C115.872 23.9161 115.808 24.0441 115.808 24.1081C115.936 24.4281 115.552 24.4921 115.488 24.7481C115.424 24.8121 115.424 24.8761 115.296 25.0041C115.232 25.0681 115.104 25.1961 115.104 25.2601C114.976 25.3881 114.976 25.5161 114.848 25.5801C114.528 25.7721 114.272 25.9641 114.016 26.0281C113.952 26.0921 113.888 26.0921 113.824 26.0921C113.76 26.0921 113.76 26.1561 113.76 26.2201C113.888 26.3481 113.888 26.4121 114.144 26.5401C114.016 27.0521 113.568 27.1801 113.12 27.2441C113.12 27.6281 112.736 27.8201 112.544 28.0121C112.48 28.0121 112.48 27.9481 112.48 27.9481C112.48 27.8201 112.608 27.6281 112.672 27.5001C112.544 27.5001 112.416 27.5641 112.288 27.6281C112.032 27.8201 111.84 27.8841 111.648 27.6281C111.712 27.5001 111.712 27.3721 111.776 27.1801H111.712C111.52 27.3721 111.2 27.6281 110.88 27.8201C110.24 28.3321 109.6 28.8441 108.96 29.4201C108.96 29.4841 108.896 29.4841 108.832 29.6121C108.384 29.8041 107.744 29.4841 107.552 30.2521C107.744 30.2521 108 30.1881 108.192 30.3161C108.448 30.5081 108.704 30.4441 109.024 30.3161C108.832 30.3161 108.64 30.2521 108.512 30.2521C108.64 29.8681 108.96 29.8041 109.664 30.0601L108.576 30.8921C108.512 30.8921 108.512 30.9561 108.512 30.9561C107.936 30.8921 107.744 31.4041 107.488 31.7241C107.424 31.7881 107.488 31.9801 107.488 32.2361C107.296 32.3641 106.976 32.4281 106.72 32.5561C106.144 32.8121 105.504 32.9401 104.992 33.1321C104.8 33.3241 104.608 33.5801 104.352 33.5161ZM109.664 29.6761C109.6 29.1641 109.792 28.9721 110.176 28.9721C110.304 28.9721 110.496 28.9081 110.624 28.7801C110.56 28.7161 110.368 28.7161 110.24 28.7161C110.304 28.3961 110.496 28.3321 110.752 28.3321C111.072 28.2681 111.456 27.9481 111.648 28.3321C111.776 28.3321 111.904 28.2681 112.032 28.2041C112.032 28.3321 112.096 28.3961 112.032 28.3961C111.456 28.7801 111.008 29.3561 110.304 29.4841C110.304 29.4201 110.304 29.2921 110.368 29.1641C110.112 29.3561 109.856 29.4841 109.664 29.6761ZM107.744 32.1721C107.616 31.7881 107.68 31.7241 108.384 31.7881C108.192 31.8521 107.936 32.0441 107.744 32.1721ZM133.985 37.2281C133.729 37.3561 132.257 37.3561 131.681 36.8441C131.105 36.5241 130.657 35.8201 130.337 35.0521C130.208 34.4761 129.825 33.6441 129.76 32.7481C129.76 31.9161 129.569 31.0201 129.633 30.3801L129.569 28.9721C129.377 28.9081 129.185 28.9721 128.801 29.2921C128.801 29.4201 128.673 29.4201 128.609 29.4841C127.777 30.3161 126.881 30.9561 126.177 31.7881C125.729 32.3641 125.089 32.5561 124.577 32.9401L124.129 33.3241C123.937 33.3241 123.745 33.2601 123.425 33.1961L122.913 32.3641C122.913 32.5561 122.785 32.6841 122.72 32.8761C122.465 32.9401 122.337 32.8121 122.273 32.5561C122.273 32.4281 122.081 32.4281 122.017 32.2361C121.953 32.1081 121.697 31.9801 121.697 31.8521C121.569 31.2121 120.545 31.0201 121.312 30.4441C121.441 29.5481 121.76 27.6921 121.889 26.7321C121.953 26.6681 121.889 26.5401 121.76 26.3481C120.993 27.3081 120.289 28.1401 119.969 28.5881C119.841 28.7161 119.649 28.7801 119.457 28.8441C119.649 29.2281 119.265 29.4841 119.009 29.8041L118.625 30.6361C117.985 31.5321 117.473 32.4281 116.897 33.3241C116.705 33.6441 116.321 33.7721 116.065 34.0281C115.937 34.0921 115.809 34.2201 115.745 34.4121L115.233 34.7961C114.849 34.5401 114.849 34.0281 114.721 33.7721L114.401 34.2841C114.017 33.7721 113.889 33.1321 113.953 32.4281C114.145 30.2521 114.593 28.1401 115.169 26.0281C115.489 24.8121 115.681 23.5321 116.001 22.3161C116.001 21.9961 116.129 21.6761 116.001 21.4201C115.937 21.2921 116.193 21.0361 116.193 20.9081C116.705 20.9721 116.897 20.9721 117.281 21.1001C117.729 21.2281 118.049 21.3561 118.177 21.9321C118.305 22.5721 118.241 23.2761 118.049 23.9161C117.921 24.7481 117.793 25.5801 117.536 26.4761C117.473 26.9881 116.705 28.9721 116.577 29.6761C116.769 29.6121 116.897 29.5481 116.961 29.4841C117.153 29.1001 117.473 28.6521 118.305 27.2441C118.881 26.5401 119.329 25.5801 120.033 24.8761C120.481 24.4281 120.865 23.9161 121.377 23.5321C121.633 23.3401 121.825 23.4041 122.081 23.5961C122.465 24.0441 123.041 24.3001 123.681 24.1081C123.937 23.9801 124.129 24.1081 124.385 24.1081C124.577 24.5561 124.449 25.0681 124.577 25.5801C124.641 25.7081 124.705 25.9641 124.641 26.1561C124.577 26.7321 124.705 27.3081 124.449 27.8201C124.257 28.3321 124.129 29.7401 124.001 30.4441C124.833 29.7401 125.857 28.7161 126.561 28.1401C126.945 27.8201 127.393 27.5001 127.841 27.2441C128.097 27.0521 128.353 26.9241 128.865 26.4761C129.057 26.4121 129.377 26.3481 129.505 26.4761C130.145 26.6681 130.401 26.9881 131.041 27.2441C131.169 27.3721 131.297 27.5001 131.041 27.5001C131.105 27.6281 131.233 27.8201 131.425 27.8201C132.001 27.8201 132.001 28.4601 131.937 28.9081C132.001 29.1001 132.001 29.4201 132.001 29.7401V30.0601C131.745 30.4441 132.001 30.8921 131.937 31.2761C132.001 31.8521 132.001 32.4281 132.128 32.9401C132.257 33.3241 132.257 33.5801 132.577 34.7961C132.961 35.5641 133.473 35.8841 134.369 35.5641C134.497 35.4361 134.753 35.8841 134.625 36.1401C134.625 36.2681 134.497 36.3321 134.369 36.4601C134.369 36.6521 134.369 36.7801 133.985 37.2281ZM153.676 22.0601L153.74 22.1241V22.7001C153.548 22.8281 153.484 22.8921 153.164 22.9561L153.612 23.1481C152.972 23.4681 152.46 23.8521 152.076 24.1081C151.82 24.3001 151.82 24.5561 151.564 24.5561H151.116C151.052 24.5561 150.988 24.5561 150.988 24.6201C150.924 25.0041 150.412 25.0041 150.092 25.1321L149.196 25.5161C148.492 25.8361 147.98 25.9001 147.34 25.9641C147.148 25.9641 147.02 26.0281 146.892 26.0281C146.572 26.0281 146.508 26.1561 146.508 26.4121C146.444 26.6041 146.316 26.7961 146.316 27.0521L146.444 27.1161V27.1801C146.124 27.5001 146.124 27.8841 145.74 28.1401C145.676 28.2041 145.74 28.4601 145.676 28.5241C145.164 29.1001 144.844 29.7401 144.268 30.3801L144.14 30.5081C143.82 30.8281 143.436 31.1481 143.18 31.4681C142.988 31.5961 142.732 31.7241 142.476 31.7241C141.964 32.0441 141.516 32.1721 140.94 32.3641C140.684 32.4281 140.428 32.4281 140.3 32.3641C139.66 32.3001 138.892 32.3001 138.38 32.0441C137.612 31.9161 137.1 31.4681 136.652 30.8921C135.948 30.1881 135.884 28.9721 135.82 27.9481C135.756 26.7321 136.332 25.5161 136.652 24.3641C136.78 23.9801 136.908 23.1481 136.972 23.1481C137.42 22.5081 137.676 21.7401 138.06 21.3561C138.636 20.7801 139.276 20.2681 140.044 19.8841C140.62 19.6281 141.26 19.6921 141.772 19.6921C142.092 19.6921 142.22 20.0121 142.476 20.2681C142.54 20.3321 142.668 20.3321 142.796 20.3961C143.436 20.6521 144.332 20.6521 145.1 21.2921C145.164 21.3561 145.42 21.3561 145.548 21.4201C145.932 21.7401 146.252 22.1241 146.7 22.3801C146.7 22.5081 146.508 22.3801 146.444 22.3801C146.316 22.3801 146.252 22.3801 146.06 22.4441C146.06 22.5081 146.188 22.7001 146.188 22.7001C146.7 22.7001 146.636 23.0841 146.764 23.3401C146.636 23.3401 146.572 23.4041 146.444 23.4681C146.572 23.5321 146.636 23.5961 146.764 23.8521H146.572C146.7 23.9161 146.764 24.1081 146.956 24.1721C146.956 24.2361 146.892 24.3001 146.956 24.3641C148.108 23.9161 149.26 23.5961 150.348 23.2121C151.308 22.8281 152.076 22.6361 153.676 22.0601ZM144.588 24.6201C144.524 24.3001 144.588 23.9161 144.588 23.5321C144.46 23.0201 144.396 22.3801 144.076 21.8681C143.948 21.6761 143.82 21.6761 143.628 21.7401C143.244 21.7401 142.924 21.8681 142.732 22.0601C142.348 22.3801 141.9 22.6361 141.836 23.2121C141.836 23.5321 141.9 23.9161 142.092 24.2361C142.22 24.5561 142.412 24.6201 142.796 24.6201H144.588ZM144.972 24.6201C145.164 24.5561 145.292 24.5561 145.42 24.5561C145.356 24.3001 145.484 23.9801 145.356 23.7241C145.292 23.2121 145.292 23.2121 144.908 23.1481C144.908 23.5961 144.972 24.1081 144.972 24.6201ZM144.012 26.5401C144.268 26.2201 144.14 26.1561 143.82 26.0281C143.5 26.0281 142.988 25.9641 142.668 25.8361C142.028 25.7081 141.324 25.3881 140.812 25.0041C140.364 24.7481 140.044 24.4281 139.916 24.0441C139.788 23.8521 139.66 23.5961 139.596 23.3401C139.276 24.1081 138.956 24.6201 138.636 25.2601C138.444 25.5161 138.316 25.9001 138.252 26.1561C138.124 26.5401 138.124 26.8601 138.06 27.1801C137.804 27.8201 137.804 28.5881 137.804 29.2281C137.804 29.6761 137.932 29.9961 137.996 30.3801C138.06 30.8921 138.828 31.1481 139.66 30.8281C140.62 30.5721 141.516 29.9321 142.22 29.2281C142.604 28.8441 142.988 28.3961 143.308 27.8841C143.564 27.5001 143.692 26.9881 144.012 26.5401ZM2.07625 82.7721C1.69225 82.6441 1.75625 82.3881 1.82025 82.1321C1.75625 82.0041 1.75625 81.8761 1.69225 81.8121C1.24425 81.8761 1.69225 82.2601 1.50025 82.3881C1.11625 82.3241 0.73225 81.6841 0.86025 81.1721C1.05225 80.0841 1.18025 79.0601 1.43625 77.9081C1.75625 76.8201 2.14025 75.6681 2.39625 74.5161C2.58825 73.7481 2.65225 73.0441 2.78025 72.2761C2.78025 72.2121 2.78025 72.0841 2.71625 72.0841C2.52425 71.8921 2.58825 71.5081 2.65225 71.1241C2.71625 70.6761 2.84425 70.5481 3.22825 70.6121C4.06025 70.6761 4.63625 71.2521 5.08425 71.8921C5.14825 71.9561 5.14825 71.9561 5.14825 72.0201C5.02025 72.5321 4.95625 72.9801 4.89225 73.4921C4.82825 73.9401 4.82825 74.2601 4.70025 74.7081C4.57225 75.1561 4.38025 75.5401 4.25225 75.9881C4.25225 76.0521 4.25225 76.1161 4.18825 76.2441C4.25225 76.1801 4.25225 76.2441 4.25225 76.1801C4.89225 75.2201 5.59625 74.3241 6.36425 73.5561C6.74825 73.1081 7.19625 72.6601 7.70825 72.2761C8.02825 72.0841 8.09225 72.0841 8.73225 72.0201C9.24425 72.0201 9.37225 72.0841 9.56425 72.1481C9.75625 72.1481 9.88425 72.2761 10.0763 72.4681C9.88425 72.4681 9.69225 72.5321 9.56425 72.5321V72.5961C10.0763 72.6601 10.3323 73.1721 10.9083 72.7881C10.9723 73.1081 10.9083 73.4281 11.1643 73.5561C11.2283 73.5561 11.1643 73.7481 11.1643 73.9401C11.3563 74.5161 11.4843 75.0921 11.5483 75.6681C11.5483 76.1801 11.4843 76.6921 11.4203 77.2041C11.4203 77.3321 11.4843 77.5241 11.4203 77.7161C11.4843 78.1641 11.4843 78.6761 11.4843 79.1241L11.6763 79.7641C11.6763 79.8921 11.8683 80.0841 11.9323 80.1481H12.1243C12.1883 80.0841 12.3803 80.0201 13.4683 79.4441C13.8523 79.3161 14.2363 79.1241 14.5563 78.8681C14.9403 78.7401 15.3243 78.3561 15.6443 78.1641C15.8363 78.1001 15.9643 77.9721 16.0283 77.9081C16.2843 77.6521 16.6683 77.3961 16.9883 77.2041C16.8603 77.1401 16.7963 77.1401 16.8603 77.0761C16.4763 77.3321 16.0283 77.6521 15.6443 77.9721C15.5803 77.9081 15.5803 77.9081 15.5163 77.9081C17.8843 76.0521 19.7403 73.8121 21.4683 71.5721C21.4683 71.5721 21.5323 71.5721 21.4683 71.6361C21.4043 71.7641 21.2123 71.9561 21.1483 72.0841C21.0843 72.2121 20.8283 72.4681 21.0203 72.6601C21.0203 72.6601 21.0203 72.7241 20.9563 72.7881C20.7003 72.8521 20.7003 72.8521 20.5083 73.1721H20.8283C20.6363 73.3001 20.4443 73.6201 20.2523 73.8761L20.1883 74.7081H20.2523C20.1243 75.0281 20.1243 75.2841 19.9963 75.5401C19.8683 75.7961 19.6123 76.1161 19.3563 76.3081L18.2683 77.5881C18.2043 77.7161 18.2043 77.9081 17.8843 78.1001C17.8843 78.1001 17.8843 78.2281 17.9483 78.2921C17.8843 78.3561 17.6923 78.3561 17.6923 78.4201C17.4363 78.9321 16.9243 79.3161 16.4763 79.7641C16.0923 80.2121 15.5163 80.6601 14.9403 81.0441C14.0443 81.6841 12.9563 81.6841 11.9963 81.8761H11.9323C11.4843 81.6841 11.2923 81.6841 10.9723 81.3001C10.3963 80.8521 9.88425 80.2761 9.62825 79.4441C9.30825 78.3561 9.05225 77.1401 9.18025 75.7961C9.18025 75.4761 9.24425 75.0281 9.24425 74.6441C9.11625 74.5161 8.98825 74.4521 8.92425 74.2601C8.73225 74.9641 8.47625 75.1561 8.02825 75.2201C7.90025 75.7321 7.58025 76.0521 7.13225 76.2441C7.19625 76.7561 6.74825 76.8201 6.55625 77.1401C6.49225 77.3321 6.10825 77.6521 6.23625 77.6521C6.42825 78.1001 5.85225 77.8441 5.91625 78.1001C5.85225 78.1001 5.78825 78.1001 5.72425 78.0361C5.78825 78.4201 5.46825 78.6121 5.21225 78.7401C5.27625 78.8041 5.34025 78.8681 5.34025 78.9321C5.27625 79.0601 5.21225 79.0601 5.21225 79.0601L5.40425 79.2521C5.02025 79.8921 4.63625 80.4681 4.31625 81.1721C4.06025 81.4921 3.80425 81.6841 3.48425 81.6841L3.29225 82.1321C3.16425 82.1961 3.16425 82.2601 3.10025 82.3241C2.84425 82.8361 2.58825 82.9001 2.07625 82.7721ZM5.21225 75.4761L5.78825 74.7721C5.85225 74.7721 5.78825 74.8361 5.78825 74.8361C5.72425 75.0281 5.66025 75.1561 5.53225 75.2841L5.59625 75.3481C5.85225 75.2201 5.98025 75.0921 6.23625 74.9641C6.17225 74.8361 6.10825 74.8361 6.04425 74.7721C6.17225 74.7081 6.23625 74.7081 6.23625 74.6441C6.36425 74.4521 6.55625 74.1321 6.87625 74.2601C6.94025 74.2601 7.00425 74.1321 7.00425 74.1321C6.87625 73.7481 7.13225 73.6201 7.32425 73.4281C7.38825 73.4921 7.51625 73.5561 7.51625 73.4921C7.58025 73.4281 7.70825 73.2361 7.90025 73.1081C7.45225 73.0441 7.13225 73.0441 6.87625 73.3001L6.10825 74.1321L5.14825 75.3481C5.14825 75.3481 5.21225 75.3481 5.21225 75.4761ZM6.68425 75.6681C6.87625 75.3481 7.32425 75.4761 7.32425 74.9641H7.51625C7.51625 74.7081 7.38825 74.6441 7.32425 74.5161C7.26025 74.7081 6.74825 74.7081 7.00425 75.1561C6.87625 75.2201 6.68425 75.2841 6.62025 75.2841C6.62025 75.4761 6.62025 75.5401 6.68425 75.6681ZM17.1163 77.3321C17.1803 77.3321 17.2443 77.2681 17.2443 77.2041C17.5643 76.9481 17.7563 76.7561 18.0123 76.4361C18.2043 76.2441 18.3963 76.1161 18.5243 75.8601C18.5243 75.8601 18.4603 75.7961 18.3963 75.7961C17.8843 76.3081 17.4363 76.7561 16.9883 77.2681C17.0522 77.3321 17.0522 77.3321 17.1163 77.3321ZM32.2083 73.6841C32.2083 74.3881 32.4003 75.2841 32.0803 75.9241C31.9523 76.6281 31.3763 77.3961 31.1203 78.0361C30.6723 78.6121 30.1603 79.1241 29.7763 79.7641L28.4323 80.9161C27.9203 81.2361 27.5363 81.3641 27.0243 81.6201C26.8963 81.6201 26.7043 81.6841 26.6403 81.6201C26.3203 81.5561 25.9363 81.3641 25.5523 81.2361C25.2963 81.1081 25.1042 81.0441 25.0403 80.6601L24.9123 80.5961C24.4003 80.3401 24.2083 79.7641 24.1443 79.1241C24.0163 78.9321 24.2723 78.7401 24.2723 78.4201C24.6562 78.4201 24.6562 78.7401 24.7203 78.9961C24.7203 79.5081 25.1042 79.6361 25.3603 79.5721C26.0003 79.4441 26.3843 78.9961 26.7043 78.6121C27.1523 78.1641 27.7283 77.7161 28.0483 77.1401C28.4323 76.6281 28.7523 76.1801 29.1363 75.5401V75.2841C29.2003 75.0281 29.3923 74.8361 29.3923 74.7081C29.5843 74.1321 29.8403 73.6841 29.7123 73.1081C29.7123 72.7241 29.5203 72.2761 29.3923 71.9561C29.1363 71.6361 28.3683 71.7001 28.0483 71.9561C27.4723 72.2121 27.0883 72.3401 26.7043 72.6601H26.5763C26.3843 72.8521 26.1923 73.1081 25.9363 73.2361C25.6163 73.6201 25.2963 73.8121 24.9123 74.0681C24.3363 74.5801 23.6963 74.9001 23.3123 75.6041C22.8003 76.4361 22.1603 77.2041 21.5203 77.8441C21.2003 78.1641 20.4963 79.6361 20.3043 80.1481H19.9203C20.0483 80.2121 20.0483 80.3401 20.0483 80.4041C19.8563 80.6601 19.6003 81.0441 19.4083 81.2361C19.2803 81.2361 19.2803 81.4921 19.2163 81.6201C19.4083 81.6201 19.4723 81.6201 19.6003 81.5561C19.2803 81.9401 19.3443 82.5801 18.7043 82.5801H18.7682C18.8323 82.6441 18.8963 82.6441 18.8963 82.6441C18.7682 83.0921 18.7043 83.4121 18.5763 83.7961C18.5763 83.8601 18.3843 83.8601 18.3203 83.9241C18.5763 84.0521 18.4483 84.3081 18.3203 84.6281C18.2563 84.8201 18.4483 85.1401 18.0003 85.2041C18.1923 86.1001 17.8083 87.1241 17.3603 87.3161C17.4883 87.3801 17.5523 87.3801 17.6163 87.4441C17.5523 87.4441 17.4883 87.5081 17.3603 87.5081C17.4883 87.5721 17.4883 87.5721 17.5523 87.5721C17.4883 87.9561 17.5523 88.2761 17.4883 88.5961C17.3603 89.2361 17.1683 89.8761 16.9763 90.2601C16.8483 90.7721 16.7843 91.1561 16.6562 91.5401C16.6562 91.6041 16.6562 91.7321 16.7203 91.7961C16.5282 91.9881 16.3362 92.1161 16.0162 92.2441C16.2722 92.3721 16.3362 92.5641 16.4002 92.7561C16.3362 92.9481 16.3362 93.0761 16.2722 93.4601C16.2722 93.4601 16.0802 93.5241 15.8882 93.5241L16.2722 93.7161C16.0162 93.9081 15.8882 93.9721 15.7602 94.1641L15.8882 94.2921C15.8882 94.2921 16.0162 94.3561 16.1442 94.3561C15.6962 95.1241 15.6322 95.9561 15.5682 96.8521C15.5682 96.9801 15.4402 97.1081 15.4402 97.1721C15.3122 97.6841 15.3122 97.9401 15.2482 98.3241C15.2482 98.5161 15.1842 98.5801 15.0562 98.8361C15.2482 99.0281 15.1842 99.8601 14.6722 100.244L14.9282 100.372C14.8002 100.82 14.6722 101.14 14.5443 101.588C14.5443 101.588 14.6082 101.716 14.6082 101.908C14.5443 102.42 14.2882 103.124 14.2242 103.764C14.2242 104.148 14.0322 104.724 14.1602 105.172C14.2242 105.364 14.0962 105.748 14.0322 105.94C13.9682 106.26 13.9042 106.772 13.7762 107.092C13.7762 107.156 13.7122 107.22 13.6482 107.284C13.6482 107.22 13.5202 107.22 13.5202 107.22C13.4562 107.476 13.3922 107.668 13.3922 107.988C13.2642 108.052 13.0082 108.116 12.7522 108.18C12.4962 108.052 12.2402 107.796 11.9202 107.476C11.9842 107.22 11.9202 106.9 11.9202 106.772H11.6642C11.6002 106.9 11.5362 107.156 11.4722 107.412C11.3442 107.092 11.0882 106.836 10.8962 106.708C11.8562 103.444 12.3682 100.244 13.0722 97.0441C13.1362 97.0441 13.2002 97.1081 13.3282 97.1081C13.0722 96.5321 13.2002 95.8921 13.5842 95.7001C13.3922 95.6361 13.3282 95.6361 13.2002 95.6361C13.2642 95.3801 13.3282 95.1881 13.4562 94.9961C13.6482 94.7401 13.7122 94.4201 13.5842 94.1641C13.4562 94.0361 13.6482 93.7801 13.7122 93.7161C13.7762 93.4601 13.9682 93.1401 14.1602 92.7561C13.9682 92.8841 13.8402 92.8841 13.7762 92.8841C14.2242 92.2441 14.5443 91.7321 14.4802 90.9001C14.3522 91.0921 14.3522 91.1561 14.2882 91.2841V90.8361C14.5443 90.8361 14.6082 90.5801 14.7362 90.3241L15.1202 88.2761C15.1842 87.9561 15.2482 87.7001 15.2482 87.4441C15.6962 86.1001 16.0162 84.6921 16.2722 83.3481C16.4642 82.3881 16.7203 81.4921 16.9763 80.4681C17.1043 79.8281 17.3603 79.1881 17.4243 78.6121C17.6803 77.5241 17.8083 76.4361 18.1283 75.2841C18.1923 74.6441 18.3843 74.0041 18.5123 73.3001C18.7682 72.4681 19.0243 71.6361 19.2163 70.8041C19.4083 70.2921 19.5363 69.7801 19.8563 69.2041C19.9203 68.7561 20.0483 68.6281 20.4323 68.6921H20.6243C21.2003 68.6281 21.4563 69.0121 21.6483 69.3961L21.8403 70.2281C21.9043 70.4201 21.9043 70.6121 21.7763 70.8681C21.7763 70.9961 21.7123 71.2521 21.6483 71.4441C21.3923 71.5721 21.3923 71.7001 21.5843 71.9561C21.5203 72.0201 21.5203 72.1481 21.4563 72.2121C21.3283 72.7881 21.1363 73.2361 21.0083 73.9401H20.8802C20.8163 74.5801 20.6243 74.8361 20.4963 76.3081V76.4361C20.3683 76.6921 20.2403 77.0761 20.1763 77.5241C20.3683 77.2041 20.7523 77.0121 20.8802 76.5001C20.8802 76.4361 20.8163 76.3721 21.0083 76.3721C21.0723 76.3721 21.1363 76.2441 21.3283 76.1161C21.2643 76.1161 21.1363 76.1161 21.0083 75.9241C21.1363 75.7321 21.3283 75.6681 21.5203 75.6041C21.6483 75.2841 21.6483 74.9001 22.1603 75.0281C22.1603 75.0281 22.1603 74.8361 22.2243 74.7081C22.6723 74.6441 22.9923 74.1321 22.9283 73.9401C23.0563 73.8121 23.2483 73.6841 23.3763 73.6201V73.2361C23.5683 73.2361 23.7603 73.2361 24.0163 73.2361C24.1443 73.1721 24.2083 73.1721 24.2083 73.1081C24.1443 72.7881 24.4643 72.7881 24.5923 72.7241C24.9763 72.2121 25.6163 71.9561 26.0642 71.7001C26.2563 71.4441 26.5123 71.3801 26.8323 71.2521V70.9961C26.4483 71.1881 26.1283 71.1881 25.8083 71.3161C25.4883 71.3801 25.0403 71.6361 24.7843 71.8921C24.1443 72.3401 23.5043 72.8521 22.9923 73.3001H22.8643C22.8003 73.3001 22.8003 73.2361 22.8003 73.2361C22.9283 73.1721 23.0563 73.1081 23.1843 72.8521C23.2483 72.7881 23.4403 72.6601 23.4403 72.5961C23.5043 72.3401 23.5043 72.2761 23.6323 72.2121C24.0163 71.9561 24.5283 71.8921 24.7843 71.5721C25.1042 71.2521 25.5523 70.9961 25.8083 70.8041C26.5763 70.4201 27.2163 70.3561 27.8563 70.3561C28.3043 70.3561 28.8803 70.5481 29.2643 70.6121C29.5843 70.6761 29.7763 70.8041 30.2243 70.9321C30.2883 70.9321 30.3523 70.9961 30.4163 71.1881V71.3161C30.2883 71.2521 30.1603 71.2521 29.9683 71.1881L29.7763 71.2521C30.1603 71.3801 30.3523 71.5721 30.4803 71.6361C30.7363 71.7001 30.9923 71.8281 31.2483 71.8281L31.3123 71.7001C31.4403 71.8281 31.8243 72.2121 32.0803 72.6601C32.2083 72.6601 32.2083 72.7241 32.1443 72.8521C32.1443 73.1721 32.2083 73.4281 32.2083 73.6841ZM17.8723 80.2121C17.9363 79.7641 18.1283 79.1881 18.1923 78.7401H18.0003C17.9363 78.9961 17.8723 79.5081 17.7443 79.7641C17.7443 79.9561 17.7443 80.1481 17.6803 80.2121H17.8723ZM17.6163 81.1081C17.6163 80.9801 17.6803 80.7881 17.8083 80.5321C17.6803 80.5321 17.6163 80.5321 17.6803 80.4681C17.4883 80.6601 17.2963 80.9161 17.2963 81.0441C17.2963 81.3641 17.2963 81.4921 17.3603 81.6841C17.1043 81.6841 17.1683 81.8761 17.2323 82.0681C17.0403 82.3241 16.9763 82.5161 16.8483 82.6441C16.9763 82.9001 16.9763 82.9641 16.9763 83.0281C16.9123 83.0281 16.8483 83.0921 16.7843 83.2201C16.8483 83.2841 16.9123 83.3481 16.9763 83.3481C17.1043 83.4121 17.1683 83.3481 17.1683 83.2841C17.2323 82.9641 17.4243 82.5161 17.4243 82.1961L17.6163 81.1081ZM16.9123 84.2441C17.1043 83.7961 17.1043 83.7961 16.7203 83.6041C16.7203 83.7961 16.5922 83.8601 16.5922 83.9881C16.7203 83.9881 16.7843 83.9881 16.8483 84.0521C16.7843 84.1161 16.7203 84.1161 16.5282 84.2441L16.7843 84.5001C16.6562 84.5001 16.5282 84.6281 16.3362 84.6281V85.0121C16.2722 85.2681 16.1442 85.5241 16.1442 85.8441C15.9522 86.4201 15.8882 87.1241 15.7602 87.7001C15.5682 88.4681 15.1842 89.2361 15.1202 90.0041C14.9922 90.5801 14.7362 91.2841 14.8642 91.9881L14.8002 92.0521C14.7362 92.3721 14.4802 92.8841 14.4162 93.3961C14.4162 93.4601 14.4802 93.5241 14.6082 93.6521C14.6722 93.5241 14.7362 93.5241 14.8642 93.4601L14.6722 93.3321C14.8002 92.9481 14.9282 92.7561 15.0562 92.4361C15.1202 92.0521 15.2482 91.6041 15.4402 91.1561C15.4402 90.8361 15.4402 90.4521 15.5042 90.1321C15.6322 89.8761 15.7602 89.4921 15.7602 89.1721H15.5682C15.6322 89.0441 15.6962 88.7881 15.7602 88.7241C15.8242 88.6601 15.8242 88.5321 15.8242 88.4681C15.8242 88.4041 15.8242 88.2761 15.7602 88.2761C15.8882 88.2121 16.0802 88.1481 16.3362 88.0841V87.9561C16.0802 87.9561 15.8882 87.9561 15.8242 87.9561C15.8882 87.7001 15.9522 87.5081 15.9522 87.3801C16.0802 87.3801 16.1442 87.3801 16.2722 87.4441C16.2082 87.1241 16.1442 86.8041 16.1442 86.5481L16.5922 86.3561C16.4642 86.2281 16.3362 86.1641 16.2722 86.1641C16.4642 86.0361 16.6562 85.9721 16.6562 85.8441C16.8483 85.2681 16.8483 84.6921 16.9123 84.2441ZM16.0802 90.3241C16.0162 89.8761 16.5922 89.4281 16.2722 89.0441C16.0162 89.4281 15.9522 90.1321 16.0802 90.3241ZM14.0322 95.1241C14.6082 94.8681 14.4162 94.4841 14.4162 94.2921C14.5443 94.1641 14.6082 94.0361 14.6722 93.9721C14.6082 93.9081 14.6082 93.7801 14.3522 93.6521C14.1602 94.2281 14.1602 94.6761 14.0322 95.1241ZM16.4002 93.7801C16.3362 93.7801 16.2722 93.7801 16.2722 93.7161C16.3362 93.7161 16.3362 93.7801 16.4002 93.7801ZM14.8642 95.8921C14.9282 95.6361 14.9282 95.3801 14.9922 95.0601C14.6722 95.2521 14.5443 96.1481 14.6722 96.4041C14.8002 96.2121 14.8002 96.0841 14.8642 95.8921ZM14.2242 96.0841C14.2242 95.8921 14.2882 95.7001 14.2882 95.5081C14.2882 95.4441 14.2242 95.3801 14.2242 95.1881C14.0962 95.2521 14.0322 95.2521 14.0322 95.2521C13.9682 95.5081 13.9682 95.7641 13.9042 96.0841H14.2242ZM14.0322 96.7241C14.0322 96.5321 14.2242 96.3401 14.2242 96.2761C14.0962 96.2121 13.9682 96.2121 13.9042 96.2121C13.5202 97.8121 13.2002 99.2201 12.9442 100.756C13.0082 100.756 13.0722 100.82 13.0722 100.82C13.1362 100.564 13.7762 100.5 13.3282 99.9881C13.5202 99.8601 13.6482 99.7961 13.5202 99.6041C13.3922 99.1561 13.5202 98.8361 13.7122 98.3881C13.8402 98.3241 13.9042 97.9401 13.9682 97.3641L13.9042 97.2361C13.9682 97.1721 14.0322 97.0441 14.0322 96.9801V96.7241ZM53.0198 71.0601L53.0838 71.1241V71.7001C52.8918 71.8281 52.8278 71.8921 52.5078 71.9561L52.9558 72.1481C52.3158 72.4681 51.8038 72.8521 51.4198 73.1081C51.1638 73.3001 51.1638 73.5561 50.9078 73.5561H50.4598C50.3958 73.5561 50.3318 73.5561 50.3318 73.6201C50.2678 74.0041 49.7558 74.0041 49.4358 74.1321L48.5398 74.5161C47.8358 74.8361 47.3238 74.9001 46.6838 74.9641C46.4918 74.9641 46.3638 75.0281 46.2358 75.0281C45.9158 75.0281 45.8518 75.1561 45.8518 75.4121C45.7878 75.6041 45.6598 75.7961 45.6598 76.0521L45.7878 76.1161V76.1801C45.4678 76.5001 45.4678 76.8841 45.0838 77.1401C45.0198 77.2041 45.0838 77.4601 45.0198 77.5241C44.5078 78.1001 44.1878 78.7401 43.6118 79.3801L43.4838 79.5081C43.1638 79.8281 42.7798 80.1481 42.5238 80.4681C42.3318 80.5961 42.0758 80.7241 41.8198 80.7241C41.3078 81.0441 40.8598 81.1721 40.2838 81.3641C40.0278 81.4281 39.7718 81.4281 39.6438 81.3641C39.0038 81.3001 38.2358 81.3001 37.7238 81.0441C36.9557 80.9161 36.4438 80.4681 35.9958 79.8921C35.2918 79.1881 35.2278 77.9721 35.1638 76.9481C35.0998 75.7321 35.6758 74.5161 35.9958 73.3641C36.1238 72.9801 36.2518 72.1481 36.3158 72.1481C36.7638 71.5081 37.0198 70.7401 37.4038 70.3561C37.9798 69.7801 38.6198 69.2681 39.3878 68.8841C39.9638 68.6281 40.6038 68.6921 41.1158 68.6921C41.4358 68.6921 41.5638 69.0121 41.8198 69.2681C41.8838 69.3321 42.0118 69.3321 42.1398 69.3961C42.7798 69.6521 43.6758 69.6521 44.4438 70.2921C44.5078 70.3561 44.7638 70.3561 44.8918 70.4201C45.2758 70.7401 45.5958 71.1241 46.0438 71.3801C46.0438 71.5081 45.8518 71.3801 45.7878 71.3801C45.6598 71.3801 45.5958 71.3801 45.4038 71.4441C45.4038 71.5081 45.5318 71.7001 45.5318 71.7001C46.0438 71.7001 45.9798 72.0841 46.1078 72.3401C45.9798 72.3401 45.9158 72.4041 45.7878 72.4681C45.9158 72.5321 45.9798 72.5961 46.1078 72.8521H45.9158C46.0438 72.9161 46.1078 73.1081 46.2998 73.1721C46.2998 73.2361 46.2358 73.3001 46.2998 73.3641C47.4518 72.9161 48.6038 72.5961 49.6918 72.2121C50.6518 71.8281 51.4198 71.6361 53.0198 71.0601ZM43.9318 73.6201C43.8678 73.3001 43.9318 72.9161 43.9318 72.5321C43.8038 72.0201 43.7398 71.3801 43.4198 70.8681C43.2917 70.6761 43.1638 70.6761 42.9718 70.7401C42.5878 70.7401 42.2678 70.8681 42.0758 71.0601C41.6918 71.3801 41.2438 71.6361 41.1798 72.2121C41.1798 72.5321 41.2438 72.9161 41.4358 73.2361C41.5638 73.5561 41.7558 73.6201 42.1398 73.6201H43.9318ZM44.3158 73.6201C44.5078 73.5561 44.6358 73.5561 44.7638 73.5561C44.6998 73.3001 44.8278 72.9801 44.6998 72.7241C44.6358 72.2121 44.6358 72.2121 44.2517 72.1481C44.2517 72.5961 44.3158 73.1081 44.3158 73.6201ZM43.3558 75.5401C43.6118 75.2201 43.4838 75.1561 43.1638 75.0281C42.8438 75.0281 42.3318 74.9641 42.0118 74.8361C41.3718 74.7081 40.6678 74.3881 40.1558 74.0041C39.7078 73.7481 39.3878 73.4281 39.2598 73.0441C39.1318 72.8521 39.0038 72.5961 38.9398 72.3401C38.6198 73.1081 38.2998 73.6201 37.9798 74.2601C37.7878 74.5161 37.6598 74.9001 37.5958 75.1561C37.4678 75.5401 37.4678 75.8601 37.4038 76.1801C37.1478 76.8201 37.1478 77.5881 37.1478 78.2281C37.1478 78.6761 37.2758 78.9961 37.3398 79.3801C37.4038 79.8921 38.1718 80.1481 39.0038 79.8281C39.9638 79.5721 40.8598 78.9321 41.5638 78.2281C41.9478 77.8441 42.3318 77.3961 42.6518 76.8841C42.9078 76.5001 43.0358 75.9881 43.3558 75.5401ZM74.3708 35.4761C74.8828 36.3081 75.2028 36.6921 75.0108 37.7161C74.8188 38.6761 74.7548 39.7001 74.4348 40.7241C74.1788 41.8761 73.6028 42.9001 73.1548 44.0521C72.8348 44.8841 72.2588 45.7801 71.8108 46.6121C71.2348 47.7641 70.6588 48.7881 69.9548 49.7481C69.5068 50.5801 68.9308 51.2841 68.3548 51.9881C67.7148 52.8201 66.8828 53.5881 66.3708 54.4201C65.7308 55.0601 65.2188 55.5721 64.7708 56.2761C63.8108 57.1721 62.9148 58.1321 62.0828 58.9641C61.1868 59.7321 60.2268 60.4361 59.3308 61.1401C58.6908 61.5881 58.1148 62.1641 57.6667 62.5481C56.9628 62.9321 56.5148 63.1241 55.9388 63.3801C55.6188 63.7001 55.0428 65.5561 55.1708 65.6201C54.9148 66.6441 54.5948 69.1401 54.4028 70.1001C54.4028 70.1001 54.5948 70.1001 54.6588 70.0361C55.1068 69.5881 55.5548 69.1401 56.1308 68.6921C56.3228 68.6281 56.6428 68.5001 56.8988 68.3721C57.6667 68.1161 58.4348 68.1801 59.2028 68.3081C60.3548 68.3721 61.1868 68.6921 62.2108 69.2041C63.4908 69.9721 63.7468 70.4841 63.3628 71.9561C63.0428 74.0041 61.9548 75.5401 60.9948 77.0121C60.3548 77.7161 59.8428 78.4201 59.0748 79.1241C58.0508 80.0201 57.2188 81.2361 55.8748 81.6201C55.4268 81.7481 55.1068 82.0041 54.6588 82.0041C53.3788 81.9401 52.5468 81.2361 52.3548 79.9561C52.2908 79.1881 52.0988 78.5481 51.9708 77.9081C51.9708 77.3961 51.9708 76.8201 51.8428 76.2441C51.8428 75.8601 51.7148 75.6041 51.7148 75.2841C51.7788 74.4521 51.8428 73.6841 51.7148 72.9161C51.7788 71.7641 52.0348 71.3801 52.0988 70.2281C52.1628 70.1001 52.1628 69.5241 52.2908 69.2681C52.3548 69.2041 52.4188 68.8841 52.4188 68.8201C52.5468 68.4361 52.6748 66.3881 52.7388 66.0041C52.4828 66.1321 51.8428 66.5161 51.7148 66.6441C51.2668 66.9641 50.5628 67.5401 50.2428 67.4121C49.7948 67.0921 49.7948 66.0681 49.8588 65.4921C49.9228 64.8521 50.2428 64.7241 50.5628 64.5961C51.2668 64.0201 51.5868 63.8921 51.9068 63.5081C52.2908 63.3801 52.4188 63.1241 52.8668 62.9321C52.9948 62.7401 53.0588 62.2921 53.1228 62.0361C53.1868 61.9081 53.1868 61.7801 53.3148 61.5241H53.4427L53.5708 60.6281C53.5708 59.9241 54.0828 58.9001 54.3388 58.8361C53.9548 58.3241 54.3388 57.8121 54.4028 57.3641C54.7868 56.4041 55.1068 55.5081 55.4268 54.5481C55.8748 53.4601 56.5148 52.3721 56.8988 51.2201C57.4748 50.0041 58.0508 48.5961 58.6908 47.3161C59.2028 46.2281 59.8428 45.1401 60.4828 44.0521C60.7388 43.4121 61.1868 42.7081 61.6988 42.0041C62.1468 41.1081 62.7868 40.2761 63.4268 39.3161C64.5148 37.8441 65.8588 36.5641 67.2028 35.2841C68.4188 34.5161 69.7628 33.6201 71.1068 33.8761C72.0028 34.1321 72.8348 34.3881 73.5388 34.8361C73.9868 34.9641 74.2428 35.1561 74.3708 35.4761ZM66.1147 40.2121C65.7308 40.8521 65.2828 41.6201 64.7068 42.3241C64.3868 43.0921 63.8108 43.9241 63.2988 44.5641C62.9788 45.2041 62.6588 45.5881 62.3388 46.3561C61.8908 47.2521 61.3788 48.2121 61.0588 48.9801C60.2268 50.3241 59.4588 51.6041 59.0108 53.4601C58.9468 53.7161 58.7548 53.8441 58.5628 54.2921C58.7548 54.7401 58.2428 54.6761 58.1148 54.7401C58.1788 54.9321 58.4988 55.1881 58.2428 55.4441C57.9868 56.2761 57.6028 57.1081 57.4748 57.8121C57.0908 58.5801 56.7068 59.4121 56.4508 60.0521H56.5148C56.7068 59.9881 56.7708 59.9241 56.9628 59.7961C58.3068 58.5801 59.5868 57.4281 60.9308 56.0841C61.8908 55.1881 62.6588 54.2921 63.3628 53.3321C64.7708 51.7961 66.0508 50.3241 67.2028 48.6601C68.6748 46.3561 70.2748 43.9241 71.2988 41.2361C71.7468 39.8921 72.0668 38.6761 72.0028 37.3321C72.0668 37.1401 71.9388 36.7561 71.8748 36.5001C71.6188 36.1801 71.3628 35.9241 70.5948 36.0521C70.1468 36.2441 69.9548 36.3081 69.4428 36.7561C68.1628 37.5241 67.9708 37.9721 67.0108 38.8681L66.1147 40.2121ZM55.3628 59.0921C55.4268 58.8361 55.4268 58.3241 55.3628 57.9401C55.8108 56.9161 56.1948 56.0201 56.5148 55.0601C56.6428 54.2921 57.1548 53.4601 57.6028 52.6281C57.9228 51.7321 58.2428 50.9641 58.6267 50.0041C59.0748 49.4281 59.3308 48.5961 59.7788 47.8921L60.0348 47.3161C60.0988 47.1881 60.1628 47.1881 60.2908 47.1881L60.1628 46.9961L60.2908 46.9321L60.7388 46.2921C60.8668 45.9081 61.2508 45.5241 61.4428 45.2041L61.7628 44.2441C61.9548 44.0521 62.1468 43.7321 62.2748 43.4121H62.0828C62.2108 43.2841 62.2748 43.0921 62.3388 43.0281C62.4668 42.9641 62.4668 42.8361 62.4668 42.7721C62.5308 42.7081 62.5308 42.5801 62.4668 42.5801C62.5948 42.5801 62.7868 42.5161 63.0428 42.5801V42.4521L62.5948 42.3241C62.6588 42.1321 62.8508 41.9401 62.9148 41.8121C63.0428 41.8761 63.1068 41.8761 63.1708 41.9401C63.2348 41.6201 63.3628 41.3641 63.3628 41.1721H63.8108C63.7468 41.0441 63.6828 40.9161 63.6188 40.9161C63.8108 40.8521 64.0028 40.7881 64.0668 40.7241C64.3868 40.2121 64.5148 39.7001 64.8348 39.2521C65.0268 38.9961 65.0268 38.9961 64.7708 38.6121C64.7068 38.8041 64.5788 38.8681 64.5148 38.9961C64.6428 38.9961 64.7068 38.9961 64.7708 39.1241C64.7068 39.1241 64.6428 39.1241 64.4508 39.2521L64.5788 39.4441C64.4508 39.4441 64.3228 39.5081 64.1308 39.5081C64.0028 39.7001 64.0028 39.7641 63.9388 39.8281L63.6188 40.5321C63.2348 40.9801 62.9148 41.5561 62.7228 42.0681C62.2748 42.7081 61.6988 43.4121 61.5068 44.0521C61.2508 44.5001 60.8028 45.1401 60.6748 45.7801L60.5468 45.8441C60.4188 46.1641 60.1628 46.5481 59.6508 47.5721C59.2668 48.2121 59.0748 48.7241 58.7548 49.4281C58.3068 50.1961 57.9228 50.9001 57.7948 51.6041C57.4108 52.3081 56.8348 53.1401 56.6428 53.9721C56.3228 54.4841 56.3228 55.0601 56.0668 55.7001C55.9388 56.0841 55.6828 56.7241 55.5548 57.2361C55.4268 57.4921 55.4268 57.7481 55.3628 57.9401C55.3628 58.3241 55.0428 58.7721 55.3628 59.0921ZM72.3228 41.4281C72.4508 41.0441 72.6428 40.5961 72.7068 40.1481H72.5788C72.5148 40.5961 72.3228 41.0441 72.2588 41.4281H72.3228ZM72.0668 44.2441C72.1308 43.9241 72.2588 43.4121 72.4508 43.2201H72.3228C72.2588 43.3481 72.1308 43.4121 72.1308 43.4121C71.8748 43.9241 71.8108 44.3081 71.6188 44.5001C70.9148 45.5881 70.2108 46.6121 69.5068 47.7641C69.1228 48.0841 67.9068 49.6841 67.5228 50.1321C67.2028 50.3881 66.6268 50.8361 66.3068 51.2201C65.7948 51.7321 65.1548 52.5001 64.7708 53.0121C63.8748 53.9081 63.0428 54.9321 62.1468 55.8921C62.0188 56.0201 61.7628 56.0841 61.5708 56.2121C61.5708 56.7881 61.0588 56.9161 60.8028 57.1081C60.0988 57.8121 59.6508 58.5801 58.7548 59.2841C58.3068 59.6681 58.0508 59.9881 57.2828 60.5001C56.8348 61.1401 56.5788 61.2041 56.0028 61.8441C56.4508 61.7161 56.6428 62.2921 56.9628 62.0361C57.4748 61.7801 58.1148 61.4601 58.3708 61.0761C58.9468 60.8201 59.1388 59.9241 59.4588 59.3481L59.5228 59.2841C59.9068 58.9641 60.3548 58.5801 61.1868 58.9001C61.4428 58.6441 61.6988 58.5801 61.9548 58.3881C62.2108 58.3241 62.5308 58.1961 62.7228 57.8761C62.9148 57.5561 62.5308 56.1481 63.3628 56.2121V56.1481C63.3628 56.1481 63.2988 56.0841 63.2988 56.1481C63.3628 55.7641 63.5548 55.5081 63.6828 55.3801C64.0028 54.9961 64.3228 54.6121 65.1548 54.7401C65.0908 54.2921 65.6667 54.7401 65.7948 54.4841C65.9228 54.2281 66.1147 54.1001 66.1788 53.9081C66.6268 52.5641 67.2028 51.8601 68.1628 51.7321C68.2268 51.5401 68.2268 51.0281 68.8668 51.2201C68.2268 50.8361 68.9948 50.6441 69.0588 50.3241C68.9308 50.2601 68.8668 50.2601 68.8028 50.1961C68.9308 49.8761 68.9308 49.4921 69.3148 49.2361C69.8268 48.1481 70.0828 46.5481 70.9788 46.2281C71.1708 45.7801 71.6828 45.3321 71.8108 44.8841C71.9388 44.8201 72.0028 44.6921 72.0028 44.6921C71.7468 44.4361 72.0028 44.3721 72.0668 44.2441ZM54.7868 72.8521C54.5308 73.1081 54.2108 73.3641 54.2748 74.0681L54.0828 76.3081V76.3721C54.1468 77.2681 54.1468 78.4201 54.2108 79.3161C54.4028 79.6361 54.8508 79.7641 54.9148 79.5721C55.6828 78.9321 56.4508 78.2921 57.1548 77.5881C57.9868 76.6281 58.6267 75.6681 59.5228 74.7721C59.9708 74.0041 60.6108 72.5961 60.8028 71.7001C60.9948 71.0601 60.4828 70.5481 59.9708 70.2281C59.7148 70.1001 59.3308 70.0361 58.8828 70.1641H58.7548C57.6028 70.3561 57.0268 70.8041 56.1948 71.6361C56.0668 71.7641 54.9148 72.5961 54.7868 72.8521ZM60.9948 75.1561C61.3148 74.0681 62.2748 73.3001 61.9548 72.0201C61.5708 72.6601 61.2508 73.4281 60.8028 74.0681C60.4188 74.8361 59.7788 75.5401 59.3308 76.3081C60.2268 76.3081 60.2908 75.1561 60.9948 75.1561ZM78.8073 77.9081C78.8073 77.9721 78.8713 78.0361 78.8713 78.0361C79.7033 77.7801 80.4073 77.0761 81.2393 76.6281C81.1753 76.7561 81.1753 76.8841 81.1113 76.9481C80.8553 77.2041 80.5353 77.4601 80.2793 77.6521L79.0633 78.6121C78.5513 78.8681 78.1673 79.1241 77.7193 79.4441C77.1433 79.7641 76.6313 80.2121 75.9913 80.4681C75.6073 80.6601 75.1593 80.6601 74.7113 80.7241C74.4553 80.7241 74.3273 80.7881 74.1353 80.9161C73.8793 81.0441 73.4953 81.1081 73.1753 81.1721C72.6633 81.3001 72.2153 81.4281 71.7033 81.3641C71.0633 81.3001 70.3593 81.1721 69.7833 80.9801C69.2073 80.7881 68.9513 80.7241 68.3113 80.2121C68.2473 80.0841 68.0553 80.0201 67.9913 79.9561C67.5433 79.6361 67.2873 79.2521 66.9032 78.6761C66.7752 78.5481 66.7752 78.5481 66.6472 77.9081C66.3272 77.1401 66.3912 76.6921 66.3912 76.2441C66.4552 74.9641 66.7752 73.7481 67.4153 72.5321C67.6713 72.1481 67.9273 71.7641 68.2473 71.3801C68.8233 70.6761 69.3993 70.0361 69.9753 69.3961C70.5513 68.8201 71.2552 68.4361 72.0873 68.3721C72.2793 68.3721 72.4713 68.3081 72.7273 68.2441C73.3673 67.9881 73.9433 68.4361 74.3913 68.6921C74.9673 68.9481 75.4792 69.3321 75.9273 69.7161C76.4392 70.0361 76.7593 71.1241 76.5673 71.6361C76.4392 71.9561 76.2473 72.2761 76.0553 72.4681C75.4792 73.1081 74.9033 73.6841 74.3273 74.2601C74.1353 74.4521 73.7513 74.5161 73.6873 74.7081C73.6233 75.1561 73.1753 75.2201 72.9193 75.3481L72.4713 75.6041C72.5993 75.6041 72.6633 75.6681 72.6633 75.6681C72.4713 75.7961 72.2793 75.8601 72.0233 75.9881C71.9593 76.0521 71.9593 76.2441 71.8953 76.3081C71.4473 76.5641 70.9353 76.7561 70.5513 77.0121C70.3593 77.0761 70.2313 77.2681 70.1033 77.3961C69.5913 77.6521 69.3993 77.7161 68.9513 77.9721C69.2073 78.7401 69.3353 78.8681 69.8473 79.0601C70.6793 78.9961 71.5113 79.0601 72.3433 78.9321C72.9193 78.8681 73.4953 78.6121 74.0713 78.4201C74.5193 78.2281 75.0312 77.9721 75.5433 77.7801C75.8633 77.6521 76.1833 77.6521 76.5033 77.4601C77.2073 77.0121 77.9753 76.6281 78.6153 76.2441L78.8073 76.1161C78.8713 76.1801 78.8713 76.1801 78.8713 76.1801C78.8073 76.3081 78.6793 76.4361 78.6153 76.5001C78.6793 76.5641 78.7433 76.6281 78.6793 76.6921C78.8713 76.6921 79.0633 76.6281 79.1913 76.5641C79.2553 76.6281 79.2553 76.6281 79.1913 76.6921C78.9353 76.8841 78.6153 77.1401 78.3593 77.3961C78.5513 77.5241 78.8713 77.5881 79.1913 77.7161C78.9993 77.7801 78.9353 77.8441 78.8073 77.9081ZM69.3353 74.0681C69.1432 74.4521 69.0153 74.9001 68.8873 75.4121C69.3993 75.0921 69.7193 74.9001 69.9753 74.7081C70.1033 74.7081 70.2313 74.7721 70.2953 74.7081C70.4873 74.5801 70.8073 74.3881 71.0633 74.1321C70.8713 74.1321 70.8073 74.1961 70.6153 74.1961C70.9993 73.8761 71.1913 73.4921 71.6393 73.4921C71.5113 73.6841 71.3193 73.8121 71.1913 74.0041C71.1913 74.0041 71.1913 74.0681 71.2552 74.0681C71.8313 73.6841 72.3433 73.2361 72.9193 72.8521L72.7913 72.7241C72.6633 72.8521 72.5353 72.9801 72.2793 73.1081C72.0873 73.2361 71.8953 73.3641 71.6393 73.4921C71.7033 73.4281 71.7033 73.3641 71.7033 73.3001C72.3433 72.7881 72.8553 72.3401 73.4313 71.7641C73.8153 71.4441 74.0713 71.0601 74.3273 70.6121C74.5193 70.2921 74.1993 69.7161 73.9433 69.8441C73.3673 70.1001 72.7913 70.1001 72.2793 70.4841C71.7033 70.9321 71.1273 71.2521 70.6793 71.8281C70.1673 72.5321 69.7193 73.3001 69.3353 74.0681ZM75.0312 70.4201C74.5833 70.9321 74.3273 71.4441 74.5193 72.1481C74.7113 71.7641 75.0312 71.3161 75.2233 70.9321L75.0312 70.4201ZM83.8633 73.5561C83.4792 73.8121 83.0953 74.0041 82.7753 74.2601V74.3241C82.7753 74.2601 82.8393 74.2601 82.8393 74.2601C82.8393 74.3241 82.9033 74.3881 82.9033 74.3881C82.7753 74.5161 82.5193 74.7081 82.1993 74.9001L82.2633 75.1561C82.0073 75.2841 81.8793 75.4121 82.0713 75.6041C81.8153 75.7961 81.4313 75.7961 81.3673 76.2441C81.3673 76.2441 81.3673 76.3081 81.3033 76.3081C80.8553 76.3081 80.5993 76.7561 80.2793 77.0121C80.0873 77.1401 79.8313 77.3321 79.5113 77.4601C79.3833 77.5241 79.2553 77.3961 79.1273 77.3321C79.0633 77.2041 79.0633 77.0761 79.0633 77.0121C79.0633 76.9481 79.1273 76.8841 79.1273 76.8841C79.7033 77.0121 80.0873 76.5641 80.5353 76.3081L80.9833 76.0521C81.2393 75.9881 81.3673 75.7961 81.1113 75.4121C80.6633 75.7961 80.0873 76.1161 79.5753 76.5641C79.5113 76.5001 79.3193 76.4361 79.1273 76.3721C79.5753 76.1161 80.5993 75.5401 80.9833 74.8361C81.1113 74.7081 81.8153 74.3881 82.0073 74.1961L82.4553 74.3881C82.5833 74.1961 82.7113 74.0681 82.8393 73.9401C82.7753 73.8761 82.7113 73.8761 82.5833 73.8121L82.6473 73.7481C82.8393 73.7481 83.0312 73.7481 83.3513 73.6841C83.2873 73.5561 83.2233 73.4921 83.2233 73.4281L83.5433 73.1721L83.4792 73.1081L83.2233 73.3001H83.0953L84.1833 72.5961L84.3113 73.0441C84.3113 73.0441 84.3753 73.0441 84.3753 73.1081C84.1833 73.2361 84.0553 73.4281 83.8633 73.5561ZM78.9993 76.0521C78.9353 76.0521 78.9353 75.9881 78.9353 75.9881C79.5113 75.6041 80.0873 75.3481 80.7273 74.9641C80.6633 75.2841 80.2793 75.4121 78.9993 76.0521ZM77.3353 77.3961C77.7833 77.2041 78.1033 77.0121 78.4233 76.8201C78.3593 76.6281 77.7833 76.8201 77.3353 77.3961ZM100.099 84.6281C100.611 84.5641 101.059 85.1401 101.059 85.5241L95.8108 86.9961C95.6828 87.0601 95.5548 87.1241 95.4908 87.1241C95.0428 87.0601 94.9148 87.2521 94.6588 87.6361C94.6588 87.7641 94.5948 87.8921 94.5308 87.9561C94.6588 88.2121 94.7228 88.4041 94.7868 88.7241C94.4028 88.6601 94.2108 88.6601 94.0188 88.5961C93.9548 88.6601 93.9548 88.6601 93.9548 88.7241C94.0188 88.7881 94.2108 88.7881 94.3388 88.8521C94.2748 89.1721 94.7228 89.4281 94.2748 89.8121C94.5308 90.2601 94.4028 90.5801 94.0828 90.7081C94.2108 91.2201 94.0828 91.3481 93.6348 91.6041C93.6988 91.6681 93.8908 91.7961 93.8908 91.8601C93.8268 92.0521 93.7628 92.2441 93.6348 92.3081H93.8908C93.9548 92.3081 93.9548 92.3081 93.9548 92.3721C93.8908 92.3721 93.6988 92.5001 93.6348 92.5641C93.5068 92.6921 93.4428 92.8201 93.3148 92.8841C93.4428 93.1401 93.6348 93.2681 93.7628 93.3961C93.5068 93.3961 93.3148 93.4601 93.0588 93.3961V93.5241L93.6348 93.5881C93.7628 94.0361 93.6988 94.1001 92.9308 94.0361C92.8668 94.2921 92.8028 94.4201 92.8028 94.8041C93.0588 94.4841 93.2508 94.3561 93.5708 94.1001C93.6348 94.4841 93.6988 94.6761 93.3148 94.8041C92.5468 94.8681 92.5468 95.3161 92.8028 95.8281L92.9948 95.4441C93.1228 95.5081 93.3148 95.5721 93.3788 95.7001C93.1868 96.2761 93.0588 96.7881 92.9308 97.3001C92.8668 97.6201 92.8028 98.0681 92.6748 98.4521C92.4828 98.8361 92.2268 98.4521 92.0988 98.3881C92.0348 98.5161 92.0348 98.5801 91.9708 98.6441C91.7788 99.2841 91.8428 99.2841 92.2268 99.1561C92.1628 99.0281 92.1628 98.9001 91.9708 98.6441C92.2268 98.7081 92.4188 98.7721 92.4188 98.8361C92.4828 99.0281 92.4828 99.2841 92.4188 99.5401C92.2908 99.6681 92.0988 99.7961 92.0988 100.052C91.9708 100.116 91.7148 100.18 91.4588 100.244C91.3948 100.308 91.3948 100.372 91.3948 100.436C91.5868 100.436 91.7788 100.372 91.9708 100.372C91.9708 100.564 91.9708 100.756 91.8428 100.948L91.4588 100.564C91.3948 100.756 91.2668 100.82 91.2028 100.884L91.5868 100.948C91.6508 101.076 91.6508 101.268 91.5868 101.46C91.5228 101.332 91.3948 101.204 91.2028 101.012C91.0748 101.46 91.0748 101.716 90.9468 102.036C91.0108 102.164 91.2668 102.228 91.3948 102.42C91.5228 102.676 91.0108 103.252 90.6908 103.444C90.7548 103.572 90.8188 103.636 90.8828 103.636L90.4348 103.956C90.4988 104.212 90.4988 104.404 90.4988 104.596L89.7948 104.532V104.66C90.0508 104.66 90.1788 104.66 90.4348 104.788C90.4348 104.852 90.4988 104.852 90.4988 104.852C90.3068 104.916 90.1148 104.98 89.9868 105.108C90.3068 105.556 89.8588 105.876 89.7308 106.388C89.5388 106.772 89.0908 106.9 88.9628 107.284C88.7708 107.348 89.0908 108.18 88.4508 107.732C88.5148 107.924 88.5788 108.052 88.7708 108.244C88.8348 108.628 88.3868 108.5 88.0668 108.564C88.1948 108.628 88.3228 108.692 88.4508 108.82C88.2588 108.884 88.0668 109.012 88.0028 109.076C88.2588 109.78 87.2988 109.652 87.1708 110.1L87.5548 110.356C87.2988 110.676 87.1068 110.996 86.9148 111.316C86.8508 111.316 86.8508 111.252 86.8508 111.252C86.5948 111.508 86.2108 111.764 86.0188 111.956C86.0188 112.02 86.0188 112.084 86.0828 112.084H86.2748C86.2748 112.148 86.3388 112.212 86.3388 112.212C85.7628 112.916 85.0588 113.492 84.4828 114.132C84.4828 114.644 84.2268 114.836 83.9068 115.092C83.4588 115.54 82.9468 115.86 82.5628 116.308C82.4988 116.372 82.4988 116.436 82.4348 116.436C81.7948 116.692 81.4108 117.332 80.5787 117.332C80.3867 117.396 80.2587 117.78 80.0667 117.908C79.7467 118.1 79.2987 118.356 78.9787 118.356C78.2107 118.548 77.5067 118.612 76.6747 118.612C76.4187 118.676 76.0987 118.676 75.9707 118.612C74.8827 118.292 73.9867 117.972 73.0907 117.46C72.3227 117.14 71.6187 116.5 71.3627 115.732C71.2347 115.476 70.9787 115.412 70.7867 115.092C70.5307 114.452 70.3387 113.812 69.8907 112.98C69.7627 112.852 69.7627 112.596 69.6987 112.404C69.7627 111.956 69.7627 111.636 69.8267 111.316C69.9547 110.164 70.0827 109.076 70.3387 108.052C70.5307 107.22 70.6587 106.324 70.9787 105.364C71.0427 105.236 71.1067 105.172 71.1707 105.108C71.2347 105.172 71.2987 105.236 71.4267 105.428C71.6187 104.788 71.8747 104.084 72.1307 103.636L71.9387 103.508C71.8747 103.636 71.7467 103.7 71.6827 103.764C71.6187 103.764 71.6187 103.764 71.5547 103.7C71.7467 103.508 71.8747 103.124 72.0027 102.804C72.5787 101.652 73.2188 100.564 73.8587 99.5401C74.4347 98.5801 75.3307 97.5561 75.9707 96.5961C76.0347 96.5321 76.1627 96.4041 76.2907 96.3401L76.9307 95.6361C77.1227 95.3801 77.3787 95.1241 77.6347 94.8681C77.6987 94.9321 77.8907 94.9321 77.9547 94.9321L77.1867 95.8281C76.8667 96.0841 76.6107 96.2121 76.2907 96.4041C76.2907 96.5321 76.2267 96.6601 76.1627 96.8521C76.4187 96.7241 76.4827 96.6601 76.6107 96.6601C76.7387 96.5321 76.8027 96.4041 76.8667 96.3401C77.0587 96.1481 77.0587 96.0201 77.1867 95.8281C77.3787 95.7641 77.6347 95.7641 77.7627 95.7001C78.4027 94.9961 78.9147 94.4841 79.6827 93.7801C80.0667 93.3321 80.3227 93.0121 80.8347 92.6921C80.8987 92.6921 81.1547 92.6921 81.2828 92.5641C81.3468 92.5001 81.4748 92.3081 81.4748 92.1161C80.0027 92.6921 79.1707 94.0361 77.9547 94.8041C77.9547 94.7401 77.8907 94.7401 77.8267 94.6761C77.9547 94.5481 78.2107 94.2281 78.5947 93.9721C78.9147 93.6521 79.2987 93.1401 79.8747 92.7561C80.8987 91.9881 81.9228 91.2841 83.0108 90.5161C83.8428 89.8121 84.8668 89.1721 85.9548 88.7241L88.3868 87.3801C89.3468 86.9961 90.3708 86.6761 91.2028 86.1641L91.4588 86.1001C92.2268 85.9081 92.4828 85.5241 92.4188 84.8201C92.3548 84.7561 92.3548 84.6281 92.3548 84.5001C92.4188 84.1801 92.4188 83.8601 92.6108 83.5401C92.6748 83.4761 92.7388 83.4121 92.7388 83.3481C93.3148 83.9881 92.8668 84.8201 92.9948 85.5881C93.1228 85.4601 93.1868 85.3321 93.1868 85.2041L93.5708 82.6441C93.5708 82.4521 93.6348 82.2601 93.6348 82.1321C93.6988 81.7481 93.8268 81.3001 93.9548 80.7881C94.0828 80.1481 94.0828 79.5721 94.2748 78.8041C94.2748 78.6761 94.3388 78.4841 94.4028 78.2281C94.4668 77.6521 94.5308 76.8841 94.6588 76.3081V76.1161C94.5948 76.2441 94.5308 76.3081 94.4668 76.3721C94.0828 78.4841 93.6988 80.5961 93.2508 82.6441C93.1868 82.8361 93.1868 83.0281 93.1228 83.2201C93.0588 83.2201 92.9308 83.2841 92.7388 83.2841V83.3481C92.7388 83.1561 92.7388 83.0281 92.6748 82.8361C92.6748 82.8361 92.8028 82.7721 92.8668 82.6441C92.4188 82.0041 92.9308 81.5561 92.9308 81.0441H93.3788V80.9161H92.9948C93.1228 79.5721 93.4428 78.2281 93.6988 77.0121C93.6348 77.0761 93.6348 77.1401 93.5708 77.1401C93.5068 77.1401 93.4428 77.2041 93.4428 77.2681C93.3148 77.1401 93.1228 77.0121 92.9948 77.0121C92.8668 77.0761 92.8028 77.3321 92.6748 77.3961C92.4828 77.6521 92.4188 77.7801 92.1628 77.9081C92.1628 77.9081 91.4588 78.8681 90.4348 79.6361V79.7001C89.4108 80.0201 88.9628 80.4041 88.1948 80.6601C87.8748 80.7241 87.5548 80.8521 87.0428 80.8521C86.5948 80.9801 86.0828 80.9161 85.6348 80.8521L84.0348 80.2761C83.8428 80.1481 83.7148 79.8921 83.5868 79.7001C83.5868 79.5081 83.3948 79.2521 83.2028 79.1881C82.6908 78.8041 82.6908 78.1641 82.6268 77.5241C82.2428 76.5001 82.6268 75.4761 82.9468 74.5161C83.1388 74.1321 83.3948 73.6841 83.5228 73.3641C83.6508 73.0441 83.8428 72.5961 84.1628 72.0841C84.2268 72.0841 84.2268 72.0841 84.2268 72.0201C84.9308 71.4441 85.1228 70.2921 85.8908 69.7161C86.2748 69.4601 87.2988 68.5001 87.6828 68.3721C88.3868 68.1161 89.1548 67.9241 89.8588 68.1801C90.1788 68.3081 90.6908 68.1801 90.9468 68.2441C91.3308 68.5641 92.1628 68.6921 92.5468 68.9481C93.1868 69.4601 93.5708 69.7801 94.0828 70.4201L94.5308 71.2521C94.9148 70.9321 95.3628 70.2281 95.6828 70.0361L96.4508 70.2281C97.0908 70.2921 97.3468 70.3561 97.9868 70.5481L97.7948 71.7641C97.5388 72.2121 97.4748 72.7881 97.2828 73.2361C97.1548 73.6201 97.0908 73.9401 97.0268 74.2601C96.5148 76.3081 96.3228 78.2281 95.8748 80.2121C95.6828 81.1721 95.8748 82.0681 95.4908 82.9641C95.3628 83.5401 95.4908 84.1161 95.2988 84.6281C95.2988 84.6281 95.3628 84.9481 95.4268 84.9481C96.2588 84.8841 97.0268 84.6921 97.8588 84.6281C98.6268 84.5641 99.3948 84.5641 100.099 84.6281ZM92.4828 74.1961C92.4828 74.1321 92.5468 74.0681 92.6108 74.0681C93.0588 74.1321 93.1228 73.7481 93.2508 73.5561C92.9948 73.4281 92.8668 73.1721 92.6748 72.9801C92.4188 72.7241 92.2908 72.4041 92.4188 71.9561C92.4828 71.5081 92.1628 70.4201 91.9708 70.2921C91.8428 70.1001 91.5868 69.9721 91.3948 69.9721C90.4348 70.1001 89.4748 70.2921 88.7708 71.0601C88.2588 71.5081 87.7468 71.8281 87.2988 72.2761C87.2348 72.4041 86.9788 72.5961 86.8508 72.7881L86.9148 73.1081C86.5948 73.5561 86.1468 73.9401 85.8268 74.4521C85.4427 75.2201 85.1868 75.9881 84.8668 76.6921C84.6748 77.3321 84.4828 77.7801 84.7388 78.3561C84.9308 78.3561 85.1868 78.2921 85.4427 78.2921C86.4028 78.2281 87.1708 77.8441 88.1308 77.5241C88.4508 77.4601 88.8348 76.8201 89.5388 77.2041C89.3468 76.6921 89.5388 76.5001 89.9228 76.5001H89.9868C90.2428 76.0521 90.6267 75.7321 91.0748 75.5401C91.2028 75.5401 91.3308 75.3481 91.4588 75.2201C91.7148 74.8361 92.4188 74.7721 92.4828 74.1961ZM94.0188 75.6041C94.0188 75.4121 94.0828 75.2841 94.0828 75.0921C93.6348 75.2201 93.5068 75.4761 93.4428 75.7961H92.8668V75.8601V75.9241L92.8028 75.8601V75.9241C92.7388 75.9241 92.7388 75.9241 92.7388 75.9881C92.6748 75.9881 92.6748 76.0521 92.6748 76.1161C92.6748 76.3081 92.6108 76.5001 92.6108 76.6281C92.9948 76.5001 93.1228 76.1801 93.3148 76.1801C93.6348 76.1801 93.7628 75.9881 93.8908 75.7321C93.8908 75.6681 93.9548 75.6681 94.0188 75.6041ZM73.2188 101.204C73.0907 101.268 73.0907 101.46 72.8987 101.588L73.0907 101.716C73.2188 101.524 73.4747 101.524 73.6027 101.652C73.3467 101.844 73.1547 102.1 72.9627 102.356C73.5387 102.42 73.7947 102.164 73.6027 101.652C73.7307 101.588 73.9227 101.588 73.9867 101.46C74.2427 101.14 74.3067 100.82 74.4987 100.628C74.7547 100.18 75.0747 99.9241 75.3947 99.5401C75.3947 99.5401 75.3947 99.4121 75.3307 99.3481C75.4587 99.2201 75.7147 99.1561 75.9067 99.1561L75.8427 99.0281C75.7787 99.0281 75.7147 99.0281 75.4587 98.9641C75.7787 98.7721 76.0347 98.5161 76.2907 98.1961C76.4827 98.0041 76.6107 97.8121 76.6107 97.6841C76.8027 97.3641 76.9948 97.1081 77.6347 97.1081C77.4427 97.3001 77.3147 97.4921 77.2507 97.6201C76.9307 97.7481 76.8027 98.0041 76.5467 98.1321L76.6747 98.3241C76.9948 98.0041 77.2507 97.7481 77.6347 97.5561C78.2107 96.9161 78.7867 96.4041 79.4907 95.7641L79.7467 95.2521C80.1307 95.1881 81.0907 94.2921 81.1547 93.8441H81.7308V93.7161C81.6028 93.6521 81.4108 93.6521 81.2188 93.5241L83.4588 91.9241C83.5228 91.9881 83.5228 92.0521 83.5228 92.0521C83.5868 91.9241 83.7148 91.7961 83.8428 91.7321C83.9708 91.6681 84.1628 91.4761 84.3548 91.4761C85.0588 91.2841 85.6348 90.8361 86.5308 90.3241C86.7868 90.1961 86.8508 90.0041 87.1068 89.8761C87.9388 89.5561 88.5148 89.1721 89.2828 88.9801C90.1788 88.5961 90.8188 87.8281 91.8428 87.7001C92.0348 87.6361 92.2268 87.2521 91.9708 87.0601V86.9961C92.0348 86.8041 92.2268 86.6121 92.3548 86.3561C92.1628 86.3561 91.9068 86.2921 91.8428 86.4201C91.5228 86.7401 91.2028 86.7401 90.7548 86.8041C90.6908 86.7401 90.5628 86.9961 90.4348 87.0601L90.3068 87.1881C90.1148 87.2521 89.9228 87.2521 89.7308 87.2521C89.2828 87.3161 88.9628 87.3161 89.0908 87.7641C88.8348 87.8281 88.6428 87.9561 88.4508 87.9561C88.0028 87.9561 87.6188 88.4681 87.1068 88.4681V88.6601C87.3628 88.6601 87.6188 88.7881 87.8108 88.7241C88.3868 88.4681 88.9628 88.1481 89.4748 87.8281C89.5388 87.8281 89.4108 87.7001 89.4108 87.5081L89.7308 87.8921C90.3708 87.2521 91.1388 86.9961 91.9708 87.0601C91.3948 87.2521 90.8188 87.5081 90.3068 87.8281C89.7948 88.1481 89.1548 88.4681 88.4508 88.7241C88.1948 88.8521 88.0028 88.9801 87.6828 88.9801C87.3628 89.1081 87.1068 89.1081 86.9148 89.2361C86.7868 89.4281 86.4668 89.6201 86.1468 89.8121C85.9548 89.8761 85.8268 90.0681 85.5708 90.2601C85.0588 90.5161 84.2908 90.8361 83.7148 91.1561C83.7788 91.2201 83.8428 91.2841 83.9708 91.3481C83.3307 91.6041 82.7548 91.7961 82.4988 92.4361C82.3068 92.4361 81.9868 92.5641 81.9228 92.6281V92.8201C81.2188 92.7561 80.8987 92.9481 81.0267 93.3961C80.7707 93.4601 80.2587 93.4601 80.2587 93.5881C80.1947 93.9721 79.6827 94.1641 79.3627 94.4201C79.1068 94.6761 78.9787 94.9321 78.7867 95.1881C79.1707 94.9321 79.2987 94.9321 79.4907 95.3161C79.1707 95.4441 78.9787 95.6361 78.7227 95.7641C78.5947 95.3801 78.4667 95.3801 78.2747 95.5721C78.1467 95.6361 78.1467 95.7641 78.0827 95.8921C78.0827 95.9561 78.1467 95.9561 78.1467 95.9561C78.4027 95.8921 78.5307 95.7641 78.5947 95.7001C78.5947 95.8281 78.6587 95.8921 78.5947 95.9561C78.4667 96.1481 78.2107 96.3401 77.9547 96.4681C77.9547 96.5961 78.0187 96.6601 78.0827 96.7881C77.7627 96.8521 77.5707 96.7881 77.2507 96.8521C77.5067 96.5321 77.6987 96.4041 77.8907 96.1481C77.6987 96.2121 77.5067 96.2121 77.2507 96.2121C77.3147 96.2761 77.3787 96.2761 77.3787 96.3401C76.9948 96.7241 76.7387 97.0441 76.4827 97.4921C76.0987 97.6841 75.8427 97.8121 75.6507 97.4921C75.1387 98.0681 74.7547 98.6441 74.3707 99.2201H74.6267C74.7547 99.2201 74.8187 99.1561 74.9467 99.1561C74.8827 99.2201 74.8827 99.3481 74.8187 99.4761C74.6907 99.6681 74.4987 99.9241 74.2427 100.116C74.3067 99.9241 74.3067 99.7321 74.1787 99.5401C74.0507 99.7321 73.9227 99.8601 73.6667 100.116H74.2427C74.3067 100.116 74.3707 100.18 74.4347 100.244C74.1787 100.628 73.9867 101.076 73.2188 101.204ZM92.6108 89.1081C92.6108 88.7881 92.8028 88.5321 92.8028 88.2761C92.7388 88.2761 92.6748 88.2761 92.6748 88.2121C92.6108 88.4041 92.5468 88.5321 92.4828 88.5961C92.3548 88.5321 92.2908 88.5321 92.2908 88.5321C92.1628 89.1721 92.0348 89.8761 91.9708 90.5161C91.9068 90.7081 91.9068 91.2201 91.3948 91.1561C91.6508 90.3241 91.7148 89.3641 91.9708 88.5321C91.4588 88.6601 91.0748 88.9801 90.6267 89.1081C89.0268 89.7481 87.5548 90.3241 86.1468 91.3481C85.3148 91.9241 84.2268 92.5001 83.2668 93.2041C82.5628 93.7161 81.7308 94.1001 80.9627 94.7401C80.7067 95.1241 80.1947 95.4441 79.9387 95.7641C79.5547 96.0841 79.2347 96.2121 78.9787 96.4681C78.5947 96.8521 78.3387 97.1721 77.9547 97.6841C77.5067 98.0041 77.0587 98.5161 76.6747 98.9001C76.5467 99.1561 76.3547 99.6041 75.8427 99.4121C75.8427 99.4121 75.6507 99.5401 75.5867 99.6681L75.2027 100.116C75.9067 100.628 75.1387 100.82 75.2027 101.204C74.6267 101.14 74.4347 101.204 74.4987 101.652C74.6267 101.588 74.6907 101.524 74.7547 101.46C74.4347 102.228 74.0507 103.06 73.7307 103.764H73.6027C73.7307 103.572 73.7947 103.38 73.8587 103.188C73.7947 103.188 73.7307 103.124 73.6667 103.124C73.6027 103.316 73.4747 103.508 73.2827 103.7C73.2188 103.956 73.1547 104.34 73.0267 104.724C72.8347 104.98 72.7067 105.236 72.6427 105.62C72.4507 106.132 72.3867 106.772 72.2587 107.22C72.0667 108.116 71.7467 108.948 71.6827 109.844C71.6187 111.06 71.7467 112.148 71.8108 113.3C71.9387 114.58 72.6427 115.412 73.6667 115.988C73.9867 116.116 74.4347 116.244 74.6907 116.308C75.0747 116.308 75.4587 116.18 75.7787 116.18V116.372C75.2027 116.308 74.6267 116.372 73.8587 116.436C73.9867 116.5 74.0507 116.564 74.1147 116.564C75.0107 116.884 75.9707 116.82 76.7387 116.5C77.1867 116.372 77.6987 116.052 78.0827 115.924C79.1707 115.604 79.9387 114.9 80.8347 114.196C81.6668 113.556 82.3708 112.66 83.0748 111.892C84.0988 110.612 84.7388 109.46 85.6348 108.18C86.5308 106.9 87.0428 105.556 87.7468 104.212C88.2588 103.188 88.5788 102.292 88.8988 101.268C89.4108 99.7321 89.9868 98.3241 90.3068 96.7881C90.6267 95.6361 90.8188 94.4201 91.0748 93.2681C91.2028 92.5641 91.4588 91.9241 91.3948 91.1561L91.9068 91.7961C91.8428 91.8601 91.7148 91.9241 91.7148 91.9881C91.5868 92.3081 91.5228 92.6921 91.3948 93.0121L91.0748 95.5721C91.0748 95.7001 90.9468 95.8921 90.7548 96.0841C90.7548 96.4041 90.6267 96.8521 90.5628 97.1081C90.3068 98.0041 90.1148 98.9641 89.7948 99.8601C89.5388 100.82 89.2828 101.652 88.9628 102.612C88.8988 102.932 88.7068 103.124 88.4508 103.444C88.5788 103.764 88.3868 104.34 88.0668 104.596C88.0028 104.66 87.8748 104.66 87.8748 104.724C88.0668 105.108 87.7468 105.364 87.4908 105.492C87.2988 105.62 87.1708 105.812 86.9148 106.004H87.4908C87.1708 106.58 87.0428 107.476 86.4668 107.732H86.5948C86.3388 108.116 86.4028 108.628 85.8268 108.628C85.7628 108.628 85.7628 108.756 85.6348 108.948C85.8908 108.884 85.9548 108.82 86.1468 108.692C85.6988 109.204 85.5068 109.588 85.3148 109.972C85.3148 110.036 85.1868 110.1 85.0588 110.164C84.9308 110.228 84.8028 110.164 84.7388 110.228V110.356L85.0588 110.42C84.8028 110.612 84.6108 110.932 84.5468 111.252L83.9068 112.084C83.8428 112.084 83.7788 112.02 83.7148 112.02L84.7388 110.612C84.2908 110.74 83.0108 112.596 82.8188 112.852C83.0748 112.66 83.3948 112.468 83.5868 112.148L83.7148 112.276C83.3948 112.596 83.3307 113.236 82.6268 113.044C82.5628 113.044 82.4348 113.108 82.3708 113.172C81.5388 113.876 80.8347 114.836 79.8107 115.54L78.6587 116.308C78.4667 116.436 78.4027 116.5 78.2747 116.5C78.4027 116.564 78.5307 116.564 78.6587 116.628C78.5307 116.884 78.3387 117.14 78.2107 117.268C78.2107 117.332 78.2747 117.46 78.3387 117.46C78.7227 117.268 79.0427 117.012 79.3627 116.82C80.0027 116.436 80.7067 115.86 81.6028 115.86C81.4108 115.796 81.2828 115.668 81.0907 115.604C81.3468 115.54 81.5388 115.54 81.7308 115.54C81.7308 115.54 81.7308 115.412 81.7948 115.412C82.1148 115.092 82.6268 114.836 82.9468 114.452C83.1388 114.132 83.6508 113.748 83.6508 113.62C83.3948 113.172 83.9068 113.428 83.9708 113.3C84.0348 112.98 84.4188 112.724 84.4188 112.596C84.4828 112.148 84.6748 112.084 84.8028 111.828C85.1228 111.444 85.2508 110.996 85.6988 110.676C86.2108 110.228 86.0828 109.46 86.7228 109.012C86.7868 109.012 86.7228 108.948 86.7868 108.884C86.9788 108.436 87.1068 107.86 87.4908 107.412C87.8108 107.22 87.9388 106.836 88.1308 106.516C88.2588 106.004 88.2588 105.62 88.5148 105.236L89.0908 104.148C89.2828 103.444 89.5388 102.804 89.6667 102.036C89.7948 101.652 89.9868 101.396 90.1148 101.012C90.3068 100.756 90.2428 100.5 90.4348 100.116C90.4988 99.9241 90.5628 99.6041 90.5628 99.3481C90.6267 98.9001 90.6267 98.5161 90.8188 98.1321C90.8828 98.0041 90.8188 97.8761 90.8188 97.8121C90.9468 97.5561 91.0108 97.3641 91.2028 97.0441C91.5868 96.9801 90.8828 96.1481 91.6508 95.9561L91.2668 95.8921C91.3308 95.6361 91.4588 95.3801 91.5228 95.2521C91.5228 95.1241 91.3948 94.8041 91.5868 94.6761C91.9708 93.7801 91.9068 93.0761 92.1628 92.1801C92.1628 91.9881 92.0988 91.8601 91.9068 91.7961C91.9708 91.7961 92.0988 91.7321 92.2268 91.7321V91.1561C92.1628 91.1561 92.1628 91.1561 92.1628 91.0921C92.0988 91.0921 92.0988 91.0281 92.0348 91.0281C92.0988 90.9641 92.1628 90.9001 92.2268 90.9001C92.4188 90.7081 92.7388 89.3001 92.5468 89.2361L92.2268 89.4281C92.2268 89.4281 92.1628 89.4281 92.1628 89.3641C92.2908 89.2361 92.3548 89.1081 92.4188 88.9801C92.4828 88.9801 92.5468 89.0441 92.6108 89.1081ZM86.9788 88.9801C86.6588 88.9161 86.1468 88.7881 85.6988 89.1721C85.9548 89.1721 86.2108 89.3641 86.4028 89.3001C86.6588 89.2361 86.8508 89.1081 86.9788 88.9801ZM84.0348 90.2601C83.1388 90.7721 82.4348 91.2841 81.6668 91.7321C82.0508 91.9241 82.1788 91.8601 82.4988 91.7961C82.5628 91.6681 82.8188 91.5401 82.8828 91.3481C83.3307 91.0921 83.6508 90.7721 84.2268 90.5161C84.3548 90.4521 84.4188 90.1961 84.5468 90.1961C85.1228 90.0681 85.5068 89.8761 85.9548 89.3641H85.3788C85.4427 89.4921 85.3788 89.6201 85.4427 89.7481C84.8668 89.3641 84.5468 89.7481 84.2908 90.1961C84.2268 90.1961 84.0988 90.1961 84.0348 90.2601ZM92.9308 95.9561C92.4188 96.0841 92.3548 96.2121 92.6748 96.6601C92.7388 96.4681 92.8028 96.2121 92.9308 95.9561ZM92.2908 98.2601C92.3548 98.0041 92.4828 97.7481 92.5468 97.5561C92.5468 97.4921 92.5468 97.3641 92.4828 97.3001C92.4188 97.3001 92.2908 97.2361 92.2908 97.2361C92.2908 97.3641 92.2268 97.4921 92.1628 97.6201C92.0988 97.8121 92.0988 97.9401 92.0348 98.1961C92.1628 98.2601 92.2268 98.2601 92.2908 98.2601ZM72.4507 103.7C72.3227 103.892 72.1947 104.148 72.0667 104.468C72.1947 104.468 72.3227 104.532 72.5147 104.532V103.636L72.4507 103.7ZM71.4267 103.828H71.6827C71.6827 104.276 71.4267 104.724 71.1707 105.044C71.3627 104.66 71.3627 104.212 71.4267 103.828ZM81.7308 114.26L82.6268 113.364L82.8828 113.556C82.5628 113.748 82.2428 114.132 81.7948 114.516C81.8588 114.388 81.7308 114.26 81.7308 114.26ZM80.1307 115.86C80.3227 115.284 81.0267 115.028 81.5388 114.58C81.6028 114.644 81.6028 114.644 81.6668 114.644C81.0907 115.092 80.7067 115.604 80.2587 115.988C80.1947 115.924 80.1307 115.924 80.1307 115.86ZM76.5467 117.268C76.8027 117.396 77.5067 117.204 77.6987 116.82C77.2507 116.884 76.8027 116.948 76.4827 117.076C76.4187 117.14 76.5467 117.204 76.5467 117.268ZM113.745 77.9081C113.745 77.9721 113.809 78.0361 113.809 78.0361C114.641 77.7801 115.345 77.0761 116.177 76.6281C116.113 76.7561 116.113 76.8841 116.049 76.9481C115.793 77.2041 115.473 77.4601 115.217 77.6521L114.001 78.6121C113.489 78.8681 113.105 79.1241 112.657 79.4441C112.081 79.7641 111.569 80.2121 110.929 80.4681C110.545 80.6601 110.097 80.6601 109.649 80.7241C109.393 80.7241 109.265 80.7881 109.073 80.9161C108.817 81.0441 108.433 81.1081 108.113 81.1721C107.601 81.3001 107.153 81.4281 106.641 81.3641C106.001 81.3001 105.297 81.1721 104.721 80.9801C104.145 80.7881 103.889 80.7241 103.249 80.2121C103.185 80.0841 102.993 80.0201 102.929 79.9561C102.481 79.6361 102.225 79.2521 101.841 78.6761C101.713 78.5481 101.713 78.5481 101.585 77.9081C101.265 77.1401 101.329 76.6921 101.329 76.2441C101.393 74.9641 101.713 73.7481 102.353 72.5321C102.609 72.1481 102.865 71.7641 103.185 71.3801C103.761 70.6761 104.337 70.0361 104.913 69.3961C105.489 68.8201 106.193 68.4361 107.025 68.3721C107.217 68.3721 107.409 68.3081 107.665 68.2441C108.305 67.9881 108.881 68.4361 109.329 68.6921C109.905 68.9481 110.417 69.3321 110.865 69.7161C111.377 70.0361 111.697 71.1241 111.505 71.6361C111.377 71.9561 111.185 72.2761 110.993 72.4681C110.417 73.1081 109.841 73.6841 109.265 74.2601C109.073 74.4521 108.689 74.5161 108.625 74.7081C108.561 75.1561 108.113 75.2201 107.857 75.3481L107.409 75.6041C107.537 75.6041 107.601 75.6681 107.601 75.6681C107.409 75.7961 107.217 75.8601 106.961 75.9881C106.897 76.0521 106.897 76.2441 106.833 76.3081C106.385 76.5641 105.873 76.7561 105.489 77.0121C105.297 77.0761 105.169 77.2681 105.041 77.3961C104.529 77.6521 104.337 77.7161 103.889 77.9721C104.145 78.7401 104.273 78.8681 104.785 79.0601C105.617 78.9961 106.449 79.0601 107.281 78.9321C107.857 78.8681 108.433 78.6121 109.009 78.4201C109.457 78.2281 109.969 77.9721 110.481 77.7801C110.801 77.6521 111.121 77.6521 111.441 77.4601C112.145 77.0121 112.913 76.6281 113.553 76.2441L113.745 76.1161C113.809 76.1801 113.809 76.1801 113.809 76.1801C113.745 76.3081 113.617 76.4361 113.553 76.5001C113.617 76.5641 113.681 76.6281 113.617 76.6921C113.809 76.6921 114.001 76.6281 114.129 76.5641C114.193 76.6281 114.193 76.6281 114.129 76.6921C113.873 76.8841 113.553 77.1401 113.297 77.3961C113.489 77.5241 113.809 77.5881 114.129 77.7161C113.937 77.7801 113.873 77.8441 113.745 77.9081ZM104.273 74.0681C104.081 74.4521 103.953 74.9001 103.825 75.4121C104.337 75.0921 104.657 74.9001 104.913 74.7081C105.041 74.7081 105.169 74.7721 105.233 74.7081C105.425 74.5801 105.745 74.3881 106.001 74.1321C105.809 74.1321 105.745 74.1961 105.553 74.1961C105.937 73.8761 106.129 73.4921 106.577 73.4921C106.449 73.6841 106.257 73.8121 106.129 74.0041C106.129 74.0041 106.129 74.0681 106.193 74.0681C106.769 73.6841 107.281 73.2361 107.857 72.8521L107.729 72.7241C107.601 72.8521 107.473 72.9801 107.217 73.1081C107.025 73.2361 106.833 73.3641 106.577 73.4921C106.641 73.4281 106.641 73.3641 106.641 73.3001C107.281 72.7881 107.793 72.3401 108.369 71.7641C108.753 71.4441 109.009 71.0601 109.265 70.6121C109.457 70.2921 109.137 69.7161 108.881 69.8441C108.305 70.1001 107.729 70.1001 107.217 70.4841C106.641 70.9321 106.065 71.2521 105.617 71.8281C105.105 72.5321 104.657 73.3001 104.273 74.0681ZM109.969 70.4201C109.521 70.9321 109.265 71.4441 109.457 72.1481C109.649 71.7641 109.969 71.3161 110.161 70.9321L109.969 70.4201ZM118.801 73.5561C118.417 73.8121 118.033 74.0041 117.713 74.2601V74.3241C117.713 74.2601 117.777 74.2601 117.777 74.2601C117.777 74.3241 117.841 74.3881 117.841 74.3881C117.713 74.5161 117.457 74.7081 117.137 74.9001L117.201 75.1561C116.945 75.2841 116.817 75.4121 117.009 75.6041C116.753 75.7961 116.369 75.7961 116.305 76.2441C116.305 76.2441 116.305 76.3081 116.241 76.3081C115.793 76.3081 115.537 76.7561 115.217 77.0121C115.025 77.1401 114.769 77.3321 114.449 77.4601C114.321 77.5241 114.193 77.3961 114.065 77.3321C114.001 77.2041 114.001 77.0761 114.001 77.0121C114.001 76.9481 114.065 76.8841 114.065 76.8841C114.641 77.0121 115.025 76.5641 115.473 76.3081L115.921 76.0521C116.177 75.9881 116.305 75.7961 116.049 75.4121C115.601 75.7961 115.025 76.1161 114.513 76.5641C114.449 76.5001 114.257 76.4361 114.065 76.3721C114.513 76.1161 115.537 75.5401 115.921 74.8361C116.049 74.7081 116.753 74.3881 116.945 74.1961L117.393 74.3881C117.521 74.1961 117.649 74.0681 117.777 73.9401C117.713 73.8761 117.649 73.8761 117.521 73.8121L117.585 73.7481C117.777 73.7481 117.969 73.7481 118.289 73.6841C118.225 73.5561 118.161 73.4921 118.161 73.4281L118.481 73.1721L118.417 73.1081L118.161 73.3001H118.033L119.121 72.5961L119.249 73.0441C119.249 73.0441 119.313 73.0441 119.313 73.1081C119.121 73.2361 118.993 73.4281 118.801 73.5561ZM113.937 76.0521C113.873 76.0521 113.873 75.9881 113.873 75.9881C114.449 75.6041 115.025 75.3481 115.665 74.9641C115.601 75.2841 115.217 75.4121 113.937 76.0521ZM112.273 77.3961C112.721 77.2041 113.041 77.0121 113.361 76.8201C113.297 76.6281 112.721 76.8201 112.273 77.3961ZM127.788 83.9881C127.66 83.9881 127.596 83.9881 127.532 83.9241C126.572 83.4121 125.612 82.9641 125.1 82.0681C124.972 81.8761 124.908 81.7481 124.844 81.5561C124.46 80.6601 124.268 79.7001 124.46 78.6761C124.652 77.9721 125.036 76.4361 125.036 76.3081C124.716 76.3721 124.396 76.3721 124.14 76.3721H121.836C121.516 76.3721 121.26 76.3081 121.004 76.3721C120.876 76.3721 120.748 76.5641 120.684 76.6921C120.62 77.0121 120.492 77.3321 120.364 77.7161L120.172 77.9081C120.108 77.9721 119.98 78.0361 119.98 78.1001C119.788 78.5481 119.66 78.9961 119.532 79.4441L119.148 80.9161C119.084 81.2361 119.02 81.5561 119.02 81.8121V82.0041C119.148 82.1321 119.212 82.3241 119.02 82.5161C118.892 82.7081 118.636 82.7081 118.316 82.5801C117.292 82.0041 117.1 80.9801 117.164 79.9561C117.164 79.1241 117.612 78.2281 117.804 77.3321C117.932 77.0121 117.868 76.7561 118.06 76.3721L117.676 76.2441C117.484 76.1801 117.228 76.0521 117.612 75.0281C117.612 74.7721 117.676 74.6441 117.996 74.6441H118.572L119.532 71.5081C119.66 71.0601 119.98 70.6121 119.852 70.1001C119.852 70.0361 119.98 69.9081 120.044 69.8441C120.172 69.5881 120.364 69.3321 120.748 69.2041C121.132 69.0761 121.324 69.3961 121.58 69.5881C121.836 69.7801 121.836 70.2281 121.9 70.6121C121.964 70.9961 122.092 71.4441 122.028 71.8281C121.964 72.3401 121.836 72.9161 121.708 73.4921C121.58 73.8121 121.452 74.1961 121.324 74.6441H123.756C124.268 74.6441 124.78 74.5801 125.292 74.5801C125.612 74.5801 125.804 74.5161 125.868 74.3241C126.316 73.4281 126.764 72.5321 127.276 71.7001C127.468 71.2521 127.852 70.8041 128.236 70.5481C128.62 70.1641 129.452 70.1001 129.772 70.8681C129.772 70.9321 129.772 71.0601 129.836 71.1241C130.284 71.4441 130.092 71.8281 129.964 72.0841C129.708 72.5961 129.388 73.1721 129.196 73.6841C129.068 73.8121 129.004 74.3241 128.876 74.5801C129.388 74.5161 129.836 74.8361 130.092 75.4761C130.092 75.8601 129.772 75.9241 129.516 76.0521C129.196 76.1801 128.556 76.0521 128.172 76.1161C128.108 76.1161 128.044 76.1801 127.98 76.3081C127.916 76.6281 127.852 76.5641 127.788 76.8841C127.66 77.3961 127.66 77.5881 127.468 78.1001C127.148 79.0601 126.956 80.0201 127.02 80.9801C127.084 81.4281 127.084 81.7481 127.084 82.0681C127.148 82.3881 127.404 82.5161 127.724 82.3241C128.556 81.8761 129.452 81.4921 130.22 80.9161C130.988 80.4041 131.564 79.9561 132.14 79.3161C132.716 78.8041 133.164 78.2281 133.74 77.6521C133.932 77.3321 134.252 77.0121 134.444 76.7561C134.7 76.5001 134.892 76.1801 135.148 75.7961C135.468 75.4121 135.788 75.0281 136.172 74.6441C136.172 74.7081 136.236 74.7081 136.236 74.7721C135.98 75.1561 135.724 75.5401 135.532 75.9241C135.34 76.2441 135.212 76.5641 135.084 76.8841C135.02 76.8841 134.508 77.7801 134.572 77.7801C134.252 78.1001 133.932 78.4841 133.612 78.8681C133.74 78.8041 133.932 78.8041 133.996 78.6761C134.508 78.1641 134.956 77.4601 135.468 76.9481C135.468 77.0121 135.404 77.0761 135.404 77.2041C135.084 77.7801 134.764 78.4201 134.316 78.9321L133.612 79.6361C133.548 79.7001 133.612 79.7641 133.548 79.9561C133.1 80.1481 132.204 80.7881 132.076 81.0441C132.332 80.9801 132.716 80.9161 133.036 80.9161V81.0441C132.908 81.0441 132.78 81.1081 132.588 81.1081C132.716 81.3001 132.78 81.1721 133.1 81.2361C133.036 81.3641 132.332 81.6201 132.268 81.6841L131.692 82.1321L131.116 82.2601L130.54 82.7081C130.668 82.7721 130.732 82.8361 130.86 82.9641C130.412 83.4121 129.836 83.7321 129.26 83.8601C128.748 83.9241 128.236 84.1801 127.788 83.9881ZM125.036 78.8681C125.42 78.8681 125.42 78.8681 125.292 78.6121C125.42 78.5481 125.484 78.5481 125.612 78.5481C125.612 78.4841 125.676 78.4841 125.676 78.4201L125.292 78.2281C125.42 78.1641 125.548 78.1001 125.612 78.0361C125.676 77.7161 125.868 77.3321 125.74 77.0121C125.612 76.7561 125.932 76.9481 125.932 76.7561L125.804 76.4361C125.164 77.2041 125.292 78.1001 125.036 78.8681ZM177.145 80.5321C177.145 80.5961 177.209 80.5961 177.209 80.5961C177.849 80.4681 178.361 80.1481 179.065 79.9561C179.001 80.0201 179.065 80.0201 179.001 80.0841C178.361 80.7241 178.233 80.8521 177.913 80.9801L177.465 81.2361L176.953 81.6841L176.185 82.0681C175.545 82.3881 175.353 82.4521 174.713 82.5161C174.649 82.5801 174.585 82.5801 174.521 82.5801H174.073C173.945 82.5801 173.881 82.5161 173.753 82.5161C173.625 82.5161 172.473 82.1961 172.089 81.8121C171.769 81.4281 171.385 81.1081 171.065 80.8521C170.745 80.5961 170.809 80.2761 170.553 80.0201C170.297 79.8281 170.361 79.4441 170.233 79.1241L170.617 78.8681C170.425 78.8681 170.297 78.8041 170.169 78.8041C170.297 78.6761 170.553 78.5481 170.489 78.4841C170.489 78.3561 170.425 78.2281 170.361 78.1641C170.425 77.2681 170.617 76.4361 171.001 75.4761C170.617 75.5401 170.425 75.9241 170.041 76.3721C168.825 77.7801 167.993 78.7401 165.561 80.4681C164.473 81.2361 162.617 82.1961 161.529 82.1961C160.185 82.0681 159.161 80.7881 158.585 78.9321L158.009 77.1401C157.625 77.3961 157.177 77.7161 156.793 77.9081C156.665 77.9721 156.537 78.1001 156.409 78.2921C156.281 78.4201 156.153 78.4841 155.961 78.5481C156.153 78.6121 156.281 78.6121 156.409 78.6121L156.345 78.6761C156.217 78.7401 156.089 78.8041 155.897 78.8041V79.0601C156.217 78.8681 156.665 78.6761 156.985 78.4841V78.6121C156.665 78.8681 156.217 79.1241 155.961 79.4441C155.449 80.0201 154.873 80.1481 154.233 80.5961C153.849 80.7881 153.657 80.7241 153.337 80.9161C153.209 80.9801 152.889 81.1081 152.697 81.1081C152.633 81.1081 152.313 81.2361 152.121 81.2361H152.057C151.865 81.1721 151.673 81.1081 151.481 81.1081C151.289 80.9801 150.841 80.8521 150.649 80.7881C150.393 80.6601 150.073 80.5961 150.073 80.4681C149.817 80.0841 149.561 79.7641 149.177 79.5721C148.601 79.0601 148.473 78.5481 148.281 78.0361C148.153 77.8441 148.025 77.7161 147.961 77.5881C147.641 77.1401 147.385 76.2441 147.257 76.0521L146.297 77.0121H146.233C146.233 76.9481 146.297 76.8841 146.297 76.7561C146.169 76.6281 145.209 77.5881 145.017 77.9081C144.953 78.0361 144.953 78.1001 144.889 78.1001C144.825 78.2281 144.633 78.3561 144.569 78.4201C144.121 78.9961 143.801 79.6361 143.161 79.9561C142.265 80.3401 141.497 80.9161 140.537 80.9801C139.833 81.0441 139.449 80.8521 139.193 80.2121C139.129 80.1481 139.129 80.0841 139.129 79.9561C139.065 80.0841 139.001 80.2121 139.001 80.2761C139.129 80.4041 138.873 80.2121 138.745 80.0841C138.553 79.8281 138.233 79.5721 138.041 79.1881C137.401 77.9721 137.465 77.2041 137.785 76.1161C138.297 74.2601 140.089 72.2761 139.897 71.8281C139.257 72.0201 138.745 72.0841 138.553 71.8921C138.297 71.4441 138.041 71.1241 138.105 70.8041C138.233 70.5481 138.489 70.4201 138.681 70.2921C138.937 70.1001 139.257 69.9081 139.641 69.7801C140.153 69.6521 140.601 69.6521 141.049 69.7801C141.369 70.0361 141.881 70.1641 142.073 70.4841C142.585 71.3801 142.201 72.2761 141.497 73.8761C141.177 74.6441 140.473 75.9881 140.281 76.4361C140.025 77.0121 139.769 77.9081 140.281 78.2281C140.665 78.4201 141.177 78.2921 141.561 78.0361C142.393 77.4601 142.777 77.0761 143.289 76.6281C143.993 75.9881 144.505 75.3481 145.209 74.6441C145.849 74.0041 146.425 73.2361 147.065 72.5961C147.449 72.2121 147.769 71.7641 148.153 71.3801C148.217 71.2521 148.473 71.1881 148.537 70.9961C148.665 71.5081 148.793 71.1881 149.049 71.0601C149.369 70.9961 149.625 70.9961 149.881 70.9961C149.881 71.0601 149.945 71.0601 149.945 71.1241L149.625 71.3161C149.625 71.3801 149.625 71.3801 149.561 71.4441C150.009 71.5721 150.521 71.5721 151.033 71.7001C151.033 71.8281 150.969 71.8921 150.841 71.8921C150.905 71.8921 150.905 71.9561 150.905 71.9561C151.353 72.0201 151.417 72.2121 151.289 72.5961C150.969 72.9801 150.777 73.4281 150.649 73.9401C150.137 75.1561 149.945 76.4361 150.265 77.7161C150.329 77.9721 150.393 78.1641 150.521 78.3561C150.905 78.8041 151.289 79.1241 151.673 79.1881C151.801 79.2521 151.993 79.2521 152.185 79.2521C152.377 79.2521 152.633 79.1881 152.889 79.0601C153.913 78.6121 154.873 77.7801 155.769 77.1401C156.601 76.6281 157.561 76.0521 158.393 75.4121H158.457C158.905 75.0281 159.737 75.3481 159.673 75.6681C159.865 76.5641 160.057 77.3321 160.377 78.1641C160.569 78.6761 160.889 79.4441 161.401 79.8281C162.297 80.8521 167.545 76.6281 168.953 74.9001C168.121 74.9001 167.353 74.9001 166.521 74.5161C165.305 73.9401 165.241 72.7881 165.689 71.8281C166.201 70.6761 167.097 69.6521 168.121 68.8201C168.441 68.5001 168.825 68.3081 169.273 68.1161C169.785 67.9881 170.297 67.7961 170.809 67.7321C172.025 67.4121 173.369 67.7321 174.073 68.3721C174.329 68.5641 174.393 68.9481 174.393 69.1401C174.457 69.5881 174.137 70.0361 174.009 70.4201L173.625 71.2521C173.881 71.3801 174.201 71.4441 174.521 71.5081C175.033 71.6361 175.225 71.9561 174.969 72.4681L174.329 73.4921C173.881 74.0041 173.625 74.5801 173.497 75.0921C173.241 75.6681 172.985 76.3081 172.793 76.8841C172.473 78.0361 172.409 79.1881 172.729 80.2761C172.921 80.9161 173.433 81.2361 174.073 81.3001C175.609 81.4281 177.273 80.0201 177.273 80.0201C177.401 79.8921 177.465 79.8921 177.529 79.9561C177.273 80.1481 177.337 80.2121 177.145 80.3401C177.209 80.4041 177.209 80.4041 177.529 80.4041C177.337 80.4681 177.273 80.5321 177.145 80.5321ZM168.057 73.5561C169.081 74.0681 170.361 73.5561 171.129 72.5321C171.705 71.8281 172.345 70.2921 172.537 69.6521C172.537 69.3961 172.537 69.0761 172.409 68.8841C172.153 68.5001 171.129 68.6281 170.617 68.9481C169.145 69.8441 168.697 70.4201 167.929 71.8921C167.673 72.3401 167.545 73.3001 168.057 73.5561ZM172.025 71.7641C172.985 71.2521 173.049 70.3561 173.497 69.5881C173.561 69.3961 173.689 69.0761 173.369 68.9481L172.025 71.7641ZM166.201 72.8521C166.265 72.4681 166.649 72.0841 166.777 71.7001C166.201 71.8921 166.201 71.8921 166.201 72.8521ZM145.913 74.5161C146.681 74.2601 148.089 72.5961 148.025 72.2121C147.321 73.0441 146.681 73.7481 145.913 74.5161ZM140.217 74.8361C139.897 75.0921 139.897 75.0921 140.217 75.2201C140.345 74.8361 141.305 73.1721 141.561 72.5321C141.113 72.6601 140.281 74.1321 140.345 74.4521C140.281 74.5801 140.217 74.7081 140.217 74.8361ZM147.321 74.6441C147.705 74.2601 147.961 73.9401 147.705 73.5561C147.641 73.6201 147.641 73.6841 147.513 73.8121C147.449 74.0041 147.321 74.2601 147.193 74.4521C147.193 74.5161 147.065 74.5161 147.001 74.5801V74.3241C146.745 74.5161 146.617 74.6441 146.361 74.9001C146.809 74.9641 147.065 74.9641 147.321 74.6441ZM170.553 75.2201C170.681 75.0281 170.809 74.9641 170.873 74.8361C170.553 74.9641 170.553 74.9641 170.553 75.2201ZM171.769 76.7561C171.961 76.2441 172.153 75.6041 172.217 75.0281L172.025 75.1561C171.705 75.4761 171.833 75.9241 171.449 76.1161C171.257 76.1801 171.385 76.3721 171.385 76.4361C171.321 76.5641 171.385 76.6281 171.385 76.6921C171.257 77.2041 171.129 77.7161 171.001 78.1001C171.257 78.2281 171.385 78.3561 171.577 78.4201C171.897 77.9081 171.577 77.3321 171.769 76.7561ZM167.417 77.2041C168.313 76.6921 169.273 75.8601 169.529 75.3481C168.825 75.9241 168.121 76.5641 167.417 77.2041ZM157.561 77.0761L159.289 75.7961C159.289 75.7321 159.097 75.7961 159.033 75.7961L157.433 76.8201C157.241 76.8841 157.177 76.8201 157.177 76.7561C156.729 77.0121 156.345 77.3321 155.897 77.6521C155.705 77.7161 155.513 77.9081 155.257 77.9721V78.1001C155.449 78.0361 155.641 78.0361 155.769 77.9081C156.025 77.7161 156.217 77.7161 156.409 77.8441C156.409 77.7801 156.345 77.7161 156.345 77.6521C156.793 77.4601 157.177 77.3961 157.561 77.0761ZM141.945 78.2921C142.457 78.2921 144.057 77.3961 144.121 77.0121C143.481 77.3961 142.649 77.8441 141.945 78.2921ZM180.025 79.0601C179.833 79.0601 179.705 79.1241 179.897 79.1881C179.705 79.5081 179.257 79.5081 179.193 79.7001C179.193 79.7001 179.193 79.7641 179.129 79.7641C178.745 79.7641 178.425 79.8281 178.233 79.9561C178.041 80.0841 178.041 80.2121 177.785 80.2761C177.657 80.3401 177.593 80.2761 177.465 80.3401L177.401 80.2121C177.401 80.1481 177.465 80.0841 177.465 80.0841C177.913 80.1481 178.041 79.7641 178.425 79.6361H178.873C179.065 79.6361 179.193 79.5721 178.873 79.1881L177.785 79.8921C177.721 79.8921 177.913 79.7641 177.721 79.7001L180.025 77.9721C180.729 77.7801 180.985 77.7161 181.305 77.9081C181.177 77.9081 180.217 78.8041 179.961 78.8681L180.025 79.0601ZM177.017 80.5961C177.081 80.5321 177.017 80.5321 177.017 80.4681L176.761 80.7241C176.825 80.7241 176.953 80.6601 177.017 80.5961Z" fill="#272727"></path></svg> 