<?xml version="1.0" encoding="UTF-8"?> <svg xmlns="http://www.w3.org/2000/svg" width="178" height="27" viewBox="0 0 178 27" fill="none"><path d="M13.0352 10.4023C13.0352 10.4128 13.0299 10.4388 13.0195 10.4805C9.90495 13.9492 6.44661 18.1784 2.64453 23.168L2.34766 23.3398C1.82682 23.3607 1.31641 23.3711 0.816406 23.3711C0.389323 23.3711 0.175781 23.3034 0.175781 23.168C0.175781 23.0742 0.21224 22.9805 0.285156 22.8867C0.597656 22.5221 1.06641 21.9805 1.69141 21.2617C3.94141 18.668 6.38932 16.0065 9.03516 13.2773C5.22266 15.694 3.30599 16.9023 3.28516 16.9023C3.16016 16.9023 3.09766 16.8398 3.09766 16.7148C3.09766 16.6628 3.12891 16.6159 3.19141 16.5742C3.71224 16.2201 5.42578 15.0794 8.33203 13.1523C11.3008 11.194 12.8008 10.2148 12.832 10.2148C12.9674 10.2148 13.0352 10.2773 13.0352 10.4023ZM20.832 12.2305C20.832 13.1159 20.5039 14.1263 19.8477 15.2617C19.5664 15.7305 18.9466 16.6211 17.9883 17.9336L11.9258 26.2305C11.707 26.5117 11.0977 26.6523 10.0977 26.6523C9.58724 26.6523 9.33203 26.5898 9.33203 26.4648C9.33203 26.3398 11.8216 23.4492 16.8008 17.793C15.8633 18.4805 15.3008 18.8763 15.1133 18.9805C14.4154 19.4076 13.7852 19.6211 13.2227 19.6211C12.4414 19.6211 11.9154 19.1628 11.6445 18.2461C11.5195 17.8607 11.457 17.5326 11.457 17.2617C11.457 16.7513 11.6185 16.2253 11.9414 15.6836C13.4102 13.2148 15.3424 11.5586 17.7383 10.7148C18.3737 10.4857 18.8841 10.3711 19.2695 10.3711C20.3112 10.3711 20.832 10.9909 20.832 12.2305ZM20.3164 11.8711C20.3164 11.2461 20.0352 10.9336 19.4727 10.9336C19.0352 10.9336 18.5612 11.1576 18.0508 11.6055C17.2383 12.3138 15.9154 13.8086 14.082 16.0898C13.7904 16.444 13.3841 16.9909 12.8633 17.7305C12.6549 18.0534 12.5508 18.3398 12.5508 18.5898C12.5508 18.9544 12.9102 19.1367 13.6289 19.1367C14.4518 19.1367 15.5143 18.4857 16.8164 17.1836C17.7747 16.2253 18.6133 15.1992 19.332 14.1055C19.9883 13.1159 20.3164 12.3711 20.3164 11.8711ZM57.8008 1.63672C57.8008 3.02214 56.7643 4.77734 54.6914 6.90234C53.431 8.18359 51.9102 9.56901 50.1289 11.0586C48.0352 12.8086 46.3945 13.9909 45.207 14.6055C41.7904 19.1055 40.082 21.7565 40.082 22.5586C40.082 22.8294 40.2852 22.9648 40.6914 22.9648C41.4727 22.9648 42.3737 22.6628 43.3945 22.0586C44.0508 21.6628 44.8268 21.0951 45.7227 20.3555C46.4518 19.7513 46.8477 19.4492 46.9102 19.4492C47.0143 19.4492 47.0664 19.5169 47.0664 19.6523C46.806 20.1003 46.0612 20.7409 44.832 21.5742C43.7279 22.3242 42.8581 22.8294 42.2227 23.0898C41.5872 23.3398 41.1602 23.4648 40.9414 23.4648C40.4206 23.4648 39.9518 23.3138 39.5352 23.0117C39.0872 22.6784 38.8633 22.2617 38.8633 21.7617C38.8633 20.8659 39.6341 19.3971 41.1758 17.3555C40.0299 18.4492 38.4049 19.8607 36.3008 21.5898C34.9258 22.7253 33.582 23.293 32.2695 23.293C30.8112 23.293 30.082 22.543 30.082 21.043C30.082 20.5117 30.181 20.0378 30.3789 19.6211C30.9935 18.2669 32.3268 16.543 34.3789 14.4492C34.4831 14.3451 36.1081 12.7982 39.2539 9.80859C40.7852 8.35026 42.0195 7.04297 42.957 5.88672C43.6758 5.0013 44.0352 4.01172 44.0352 2.91797C44.0352 2.26172 43.7591 1.76172 43.207 1.41797C42.7383 1.1263 42.1602 0.980469 41.4727 0.980469C39.7331 0.980469 37.7852 1.82943 35.6289 3.52734C33.3893 5.30859 32.2695 7.02734 32.2695 8.68359C32.2695 9.83984 32.7591 10.418 33.7383 10.418C34.5299 10.418 35.6549 9.78255 37.1133 8.51172C38.3633 7.40755 39.2747 6.40755 39.8477 5.51172C40.1914 4.99089 40.3633 4.48047 40.3633 3.98047C40.3633 3.65755 40.3216 3.39714 40.2383 3.19922C40.2279 3.17839 40.181 3.11589 40.0977 3.01172C40.0247 2.90755 39.9883 2.84505 39.9883 2.82422C39.9883 2.70964 40.056 2.65234 40.1914 2.65234C40.5247 2.65234 40.6914 3.14714 40.6914 4.13672C40.6914 5.55339 40.0924 6.89714 38.8945 8.16797C37.832 9.29297 36.5716 10.1211 35.1133 10.6523C34.7174 10.7878 34.3737 10.8555 34.082 10.8555C33.4362 10.8555 32.9154 10.6471 32.5195 10.2305C32.1341 9.8138 31.9414 9.28255 31.9414 8.63672C31.9414 6.86589 33.1029 5.07422 35.4258 3.26172C37.6341 1.53255 39.6497 0.667969 41.4727 0.667969C42.5352 0.667969 43.3633 0.980469 43.957 1.60547C44.5612 2.23047 44.8633 3.07422 44.8633 4.13672C44.8633 6.19922 43.4987 8.51172 40.7695 11.0742L37.5977 14.0586C35.5456 15.9857 34.2487 17.2409 33.707 17.8242C31.8945 19.7617 30.9883 21.168 30.9883 22.043C30.9883 22.668 31.4154 22.9805 32.2695 22.9805C33.4362 22.9805 34.7331 22.4023 36.1602 21.2461C37.8893 19.8503 39.3789 18.5638 40.6289 17.3867C40.9935 17.0846 41.4883 16.6471 42.1133 16.0742C42.4883 15.5534 43.0404 14.8138 43.7695 13.8555C47.4883 9.08464 51.0716 5.06901 54.5195 1.80859C55.4362 0.954427 56.2331 0.527344 56.9102 0.527344C57.5039 0.527344 57.8008 0.897135 57.8008 1.63672ZM57.4258 1.60547C57.4258 1.19922 57.2695 0.996094 56.957 0.996094C56.5508 0.996094 55.9258 1.40234 55.082 2.21484C54.332 2.93359 53.4987 3.8763 52.582 5.04297C51.8112 6.03255 51.0404 7.02214 50.2695 8.01172C49.4154 9.14714 48.1237 10.8346 46.3945 13.0742C46.2383 13.2617 46.0091 13.5482 45.707 13.9336C45.8216 13.8607 45.9466 13.7826 46.082 13.6992C49.7799 11.0951 52.9622 8.06901 55.6289 4.62109C56.8268 3.06901 57.4258 2.0638 57.4258 1.60547ZM59.457 19.7305C59.457 19.8451 59.2331 20.069 58.7852 20.4023C58.3372 20.7253 57.9779 20.8867 57.707 20.8867C57.6549 20.8867 57.6081 20.8815 57.5664 20.8711L57.3945 21.043C55.8008 22.6263 54.3997 23.418 53.1914 23.418C52.2227 23.418 51.7383 22.8659 51.7383 21.7617C51.7383 20.8242 52.0508 20.0742 52.6758 19.5117C52.5404 19.5221 52.3633 19.5273 52.1445 19.5273C52.0612 19.5273 51.9414 19.5273 51.7852 19.5273C51.6185 19.5169 51.4935 19.5117 51.4102 19.5117L48.4883 22.9023C48.3529 23.0586 48.1914 23.1419 48.0039 23.1523L46.5195 23.1992C46.3945 23.1992 46.332 23.1419 46.332 23.0273C46.332 22.8607 46.4362 22.6576 46.6445 22.418L51.1289 17.4961C51.306 17.3086 51.3945 17.1315 51.3945 16.9648C51.3945 16.819 51.306 16.7461 51.1289 16.7461C50.8997 16.7461 50.3997 17.0586 49.6289 17.6836L46.8789 19.8867C46.8685 19.8867 46.8372 19.9023 46.7852 19.9336C46.6706 19.9128 46.6133 19.8555 46.6133 19.7617C46.6133 19.7096 46.6393 19.6628 46.6914 19.6211L49.9727 16.9336C50.5768 16.4336 51.1393 16.1836 51.6602 16.1836C51.9727 16.1836 52.2279 16.3242 52.4258 16.6055C52.6341 16.8763 52.7383 17.1732 52.7383 17.4961C52.7383 17.8086 52.3945 18.3711 51.707 19.1836C51.7591 19.1836 51.8424 19.1888 51.957 19.1992C52.0716 19.1992 52.1549 19.1992 52.207 19.1992C52.6237 19.1992 52.931 19.1263 53.1289 18.9805C53.2227 18.8867 53.3633 18.7461 53.5508 18.5586C54.2383 17.9023 55.0091 17.319 55.8633 16.8086C56.9154 16.1836 57.7956 15.8711 58.5039 15.8711C59.1393 15.8711 59.457 16.1159 59.457 16.6055C59.457 16.5742 59.4102 16.8711 59.3164 17.4961C59.3581 17.5898 59.3789 17.6992 59.3789 17.8242C59.3789 18.5221 58.9102 19.3138 57.9727 20.1992C57.9102 20.2513 57.8685 20.2982 57.8477 20.3398L57.8945 20.4023C58.1133 20.4023 58.3737 20.2721 58.6758 20.0117C58.9883 19.7513 59.1914 19.6211 59.2852 19.6211C59.3997 19.6211 59.457 19.6576 59.457 19.7305ZM58.8164 16.9336C58.8164 16.8607 58.7956 16.7669 58.7539 16.6523C58.7227 16.5378 58.7018 16.4544 58.6914 16.4023C58.6497 16.3398 58.5508 16.3086 58.3945 16.3086H58.3008C58.1133 16.3086 57.8841 16.4284 57.6133 16.668C54.3008 19.6263 52.6445 21.5586 52.6445 22.4648C52.6445 22.7982 52.8685 22.9648 53.3164 22.9648C54.3372 22.9648 55.5039 22.2565 56.8164 20.8398C56.556 20.7669 56.4258 20.5742 56.4258 20.2617C56.4258 19.7409 56.6758 19.1211 57.1758 18.4023C57.707 17.6315 58.2227 17.2461 58.7227 17.2461C58.7852 17.1523 58.8164 17.0482 58.8164 16.9336ZM69.2383 16.293C69.2383 16.4805 69.1341 16.6888 68.9258 16.918L64.4258 21.8555C64.2383 22.0534 64.1445 22.2357 64.1445 22.4023C64.1445 22.5378 64.2227 22.6055 64.3789 22.6055C64.7227 22.6055 65.2487 22.3034 65.957 21.6992L68.3164 19.6523C68.3268 19.6315 68.3581 19.6055 68.4102 19.5742C68.5143 19.6055 68.5664 19.668 68.5664 19.7617C68.5664 19.8034 68.5456 19.8451 68.5039 19.8867L65.5977 22.4023C65.0143 22.9128 64.4727 23.168 63.9727 23.168C63.2122 23.168 62.832 22.7409 62.832 21.8867C62.832 21.5221 62.9674 21.1836 63.2383 20.8711L66.5977 16.9805C66.3268 17.1367 65.9206 17.3815 65.3789 17.7148C64.3685 18.3503 63.3789 19.1888 62.4102 20.2305C61.7122 20.9701 61.0143 21.7513 60.3164 22.5742C59.931 23.0117 59.5039 23.2305 59.0352 23.2305C58.6081 23.2305 58.3945 22.9857 58.3945 22.4961C58.3945 21.3711 58.7956 20.8086 59.5977 20.8086C60.1289 20.8086 60.3945 21.0742 60.3945 21.6055C60.3945 21.7201 60.3685 21.8607 60.3164 22.0273C60.4831 21.8398 60.7279 21.5586 61.0508 21.1836C61.457 20.7357 61.8268 20.3346 62.1602 19.9805C63.2331 18.8346 64.4674 17.8555 65.8633 17.043C66.3424 16.7826 66.8477 16.5065 67.3789 16.2148L67.4258 16.1992H67.707C67.8633 16.1992 68.0924 16.194 68.3945 16.1836C68.6966 16.1628 68.9206 16.1523 69.0664 16.1523C69.181 16.1523 69.2383 16.1992 69.2383 16.293ZM79.1133 16.3555C79.1133 16.543 79.0091 16.7513 78.8008 16.9805L74.3008 21.918C74.1133 22.1159 74.0195 22.2982 74.0195 22.4648C74.0195 22.6003 74.0977 22.668 74.2539 22.668C74.6497 22.668 75.431 22.1471 76.5977 21.1055C77.7643 20.0638 78.3945 19.5378 78.4883 19.5273C78.6029 19.5378 78.6602 19.6003 78.6602 19.7148C78.6602 19.7565 78.6341 19.7982 78.582 19.8398L75.4414 22.4648C74.8477 22.9753 74.3216 23.2305 73.8633 23.2305C73.5195 23.2305 73.2383 23.0898 73.0195 22.8086C72.8112 22.5586 72.707 22.2565 72.707 21.9023C72.707 21.569 73.0352 21.0221 73.6914 20.2617C73.5872 20.293 73.2852 20.3086 72.7852 20.3086C72.4518 20.3086 72.0977 20.4544 71.7227 20.7461C71.3477 21.0273 71.0768 21.3294 70.9102 21.6523C70.681 22.0586 70.3477 22.4336 69.9102 22.7773C69.4206 23.1523 68.9674 23.3398 68.5508 23.3398C67.7383 23.3398 67.332 22.9961 67.332 22.3086C67.332 21.569 67.6185 21.1992 68.1914 21.1992C68.6706 21.1992 68.9102 21.4232 68.9102 21.8711C68.9102 22.3294 68.6706 22.5586 68.1914 22.5586C68.0143 22.5586 67.8633 22.4909 67.7383 22.3555V22.418C67.7383 22.8451 68.0195 23.0586 68.582 23.0586C68.9154 23.0586 69.3841 22.6628 69.9883 21.8711C70.6445 20.9961 71.3581 20.4544 72.1289 20.2461C72.1289 20.194 71.9987 20.0378 71.7383 19.7773C71.4779 19.5065 71.3477 19.2201 71.3477 18.918C71.3477 18.1784 71.6237 17.5117 72.1758 16.918C72.7383 16.3242 73.3893 16.0273 74.1289 16.0273C75.3685 16.0273 76.0195 16.5221 76.082 17.5117C76.7383 16.7617 77.1237 16.3607 77.2383 16.3086C77.3633 16.2461 77.931 16.2148 78.9414 16.2148C79.056 16.2148 79.1133 16.2617 79.1133 16.3555ZM75.6602 17.4492C75.6602 16.918 75.457 16.6523 75.0508 16.6523C74.6862 16.6523 74.181 17.0221 73.5352 17.7617C72.8893 18.4909 72.5664 19.0638 72.5664 19.4805C72.5664 19.8346 72.7539 20.0117 73.1289 20.0117C73.3477 20.0117 73.7279 19.8815 74.2695 19.6211L75.582 18.0898C75.6341 17.8919 75.6602 17.6784 75.6602 17.4492ZM103.723 12.2305C103.723 14.0221 102.634 15.569 100.457 16.8711C99.4466 17.4857 97.582 18.2826 94.8633 19.2617C94.7799 19.293 93.8997 19.694 92.2227 20.4648C92.7539 20.4648 93.1654 20.5065 93.457 20.5898C93.6758 20.6523 94.1966 20.8763 95.0195 21.2617C95.6549 21.5638 96.1966 21.7148 96.6445 21.7148C97.3424 21.7148 97.8737 21.5534 98.2383 21.2305C98.7799 20.7617 99.2383 20.2826 99.6133 19.793C99.6445 19.7409 99.6862 19.7148 99.7383 19.7148C99.832 19.7148 99.8945 19.7721 99.9258 19.8867C99.8424 20.2617 99.3477 20.8867 98.4414 21.7617C97.4518 22.6992 96.5091 23.168 95.6133 23.168C95.0924 23.168 94.3841 22.944 93.4883 22.4961C92.5924 22.0378 91.8893 21.8086 91.3789 21.8086C90.8372 21.8086 90.332 22.0169 89.8633 22.4336C89.4049 22.8503 89.1497 23.0586 89.0977 23.0586C89.0039 23.0586 88.9258 23.0013 88.8633 22.8867C88.7799 22.8451 88.7383 22.7982 88.7383 22.7461C88.7383 22.6003 89.0195 22.2878 89.582 21.8086C90.6341 20.9128 91.7852 20.1315 93.0352 19.4648C94.0039 19.0378 95.4154 18.3294 97.2695 17.3398C98.3008 16.694 99.3164 15.8555 100.316 14.8242C101.587 13.5117 102.223 12.4336 102.223 11.5898C102.223 10.7773 101.91 10.3711 101.285 10.3711C100.327 10.3711 99.1966 10.8971 97.8945 11.9492C96.5508 13.043 95.8789 14.0482 95.8789 14.9648C95.8789 15.3815 96.056 15.5898 96.4102 15.5898C97.3581 15.5898 98.5143 14.6315 99.8789 12.7148C100.025 12.5065 100.139 12.2044 100.223 11.8086C100.296 11.4648 100.342 11.2826 100.363 11.2617H100.41C100.587 11.2617 100.676 11.543 100.676 12.1055C100.676 12.918 100.223 13.7565 99.3164 14.6211C98.4206 15.4753 97.5612 15.9023 96.7383 15.9023C95.9362 15.9023 95.5352 15.5482 95.5352 14.8398C95.5352 14.194 95.9258 13.4544 96.707 12.6211C97.3008 11.9753 97.9727 11.4128 98.7227 10.9336C99.6602 10.3294 100.582 10.0273 101.488 10.0273C102.978 10.0273 103.723 10.7617 103.723 12.2305ZM114.066 13.8086C114.066 13.9544 113.759 14.2773 113.145 14.7773C112.884 14.9857 112.592 15.0951 112.27 15.1055C111.697 16.2721 110.551 17.7669 108.832 19.5898C106.988 21.5482 105.587 22.6523 104.629 22.9023C104.358 22.9753 104.113 23.0117 103.895 23.0117C103.353 23.0117 102.931 22.7669 102.629 22.2773C102.358 21.8503 102.223 21.3555 102.223 20.793C102.223 20.1992 102.4 19.5117 102.754 18.7305C103.337 17.4284 103.884 16.4701 104.395 15.8555C105.363 14.6576 106.561 13.5534 107.988 12.543C110.134 11.0221 111.582 10.2617 112.332 10.2617C113.165 10.2617 113.582 10.7409 113.582 11.6992C113.582 12.6888 113.233 13.6367 112.535 14.543L112.566 14.6055C112.806 14.5846 113.077 14.4232 113.379 14.1211C113.681 13.8086 113.868 13.6523 113.941 13.6523C114.025 13.6523 114.066 13.7044 114.066 13.8086ZM113.098 11.4648C113.077 11.0169 112.91 10.793 112.598 10.793C111.941 10.793 110.978 11.4961 109.707 12.9023C108.884 13.9023 108.061 14.9023 107.238 15.9023C104.728 18.8607 103.473 20.8346 103.473 21.8242C103.473 22.3451 103.681 22.6055 104.098 22.6055C104.691 22.6055 105.41 22.2513 106.254 21.543C107.046 20.8971 108.077 19.8346 109.348 18.3555C110.702 16.7826 111.546 15.6263 111.879 14.8867C111.546 14.8971 111.379 14.668 111.379 14.1992C111.379 13.668 111.535 13.1211 111.848 12.5586C112.202 11.9128 112.618 11.5482 113.098 11.4648ZM126.691 12.2305C126.691 14.0221 125.603 15.569 123.426 16.8711C122.415 17.4857 120.551 18.2826 117.832 19.2617C117.749 19.293 116.868 19.694 115.191 20.4648C115.723 20.4648 116.134 20.5065 116.426 20.5898C116.645 20.6523 117.165 20.8763 117.988 21.2617C118.624 21.5638 119.165 21.7148 119.613 21.7148C120.311 21.7148 120.842 21.5534 121.207 21.2305C121.749 20.7617 122.207 20.2826 122.582 19.793C122.613 19.7409 122.655 19.7148 122.707 19.7148C122.801 19.7148 122.863 19.7721 122.895 19.8867C122.811 20.2617 122.316 20.8867 121.41 21.7617C120.421 22.6992 119.478 23.168 118.582 23.168C118.061 23.168 117.353 22.944 116.457 22.4961C115.561 22.0378 114.858 21.8086 114.348 21.8086C113.806 21.8086 113.301 22.0169 112.832 22.4336C112.374 22.8503 112.118 23.0586 112.066 23.0586C111.973 23.0586 111.895 23.0013 111.832 22.8867C111.749 22.8451 111.707 22.7982 111.707 22.7461C111.707 22.6003 111.988 22.2878 112.551 21.8086C113.603 20.9128 114.754 20.1315 116.004 19.4648C116.973 19.0378 118.384 18.3294 120.238 17.3398C121.27 16.694 122.285 15.8555 123.285 14.8242C124.556 13.5117 125.191 12.4336 125.191 11.5898C125.191 10.7773 124.879 10.3711 124.254 10.3711C123.296 10.3711 122.165 10.8971 120.863 11.9492C119.52 13.043 118.848 14.0482 118.848 14.9648C118.848 15.3815 119.025 15.5898 119.379 15.5898C120.327 15.5898 121.483 14.6315 122.848 12.7148C122.993 12.5065 123.108 12.2044 123.191 11.8086C123.264 11.4648 123.311 11.2826 123.332 11.2617H123.379C123.556 11.2617 123.645 11.543 123.645 12.1055C123.645 12.918 123.191 13.7565 122.285 14.6211C121.389 15.4753 120.53 15.9023 119.707 15.9023C118.905 15.9023 118.504 15.5482 118.504 14.8398C118.504 14.194 118.895 13.4544 119.676 12.6211C120.27 11.9753 120.941 11.4128 121.691 10.9336C122.629 10.3294 123.551 10.0273 124.457 10.0273C125.947 10.0273 126.691 10.7617 126.691 12.2305ZM138.16 10.2148C138.16 10.3294 137.952 10.6419 137.535 11.1523C136.598 12.319 135.613 12.9023 134.582 12.9023C133.853 12.9023 133.124 12.6784 132.395 12.2305C132.353 12.3346 132.092 12.7148 131.613 13.3711C131.134 14.0273 130.858 14.3815 130.785 14.4336H130.848C130.889 14.4336 130.957 14.4284 131.051 14.418C131.155 14.3971 131.233 14.3867 131.285 14.3867C132.191 14.3867 132.926 14.6159 133.488 15.0742C134.092 15.5742 134.395 16.2669 134.395 17.1523C134.395 17.7357 134.259 18.3034 133.988 18.8555C133.374 20.0742 132.504 21.0638 131.379 21.8242C130.202 22.6263 128.957 23.0273 127.645 23.0273C126.905 23.0273 126.264 22.8815 125.723 22.5898C125.066 22.2253 124.738 21.6992 124.738 21.0117C124.738 20.3659 124.91 19.8086 125.254 19.3398C125.639 18.8294 126.145 18.5742 126.77 18.5742C127.103 18.5742 127.405 18.6992 127.676 18.9492C127.957 19.1992 128.098 19.4857 128.098 19.8086C128.098 20.6003 127.686 20.9961 126.863 20.9961C126.02 20.9961 125.598 20.569 125.598 19.7148C125.233 20.0169 125.051 20.418 125.051 20.918C125.051 21.9492 125.655 22.4648 126.863 22.4648C128.165 22.4648 129.504 21.6367 130.879 19.9805C132.212 18.3867 132.879 16.918 132.879 15.5742C132.879 15.0117 132.327 14.7305 131.223 14.7305C130.9 14.7305 130.634 14.793 130.426 14.918C130.301 14.9909 130.072 15.3607 129.738 16.0273C129.447 16.6107 129.181 16.9023 128.941 16.9023C128.608 16.9023 128.441 16.7253 128.441 16.3711C128.441 15.8607 128.723 15.444 129.285 15.1211C130.004 14.7148 130.395 14.4701 130.457 14.3867C130.561 14.2305 131.546 12.8294 133.41 10.1836H133.426C133.467 10.1836 133.743 10.3451 134.254 10.668C134.775 10.9909 135.249 11.1523 135.676 11.1523C136.249 11.1523 136.79 10.9596 137.301 10.5742C137.822 10.1888 138.046 9.99609 137.973 9.99609C138.098 9.99609 138.16 10.069 138.16 10.2148ZM150.801 19.7461C150.801 19.8086 150.78 19.8555 150.738 19.8867L147.629 22.5117C147.066 22.9909 146.457 23.2305 145.801 23.2305C144.926 23.2305 144.488 22.819 144.488 21.9961C144.488 21.2565 145.275 20.3919 146.848 19.4023C148.431 18.4128 149.223 17.6628 149.223 17.1523C149.223 16.8815 149.134 16.7461 148.957 16.7461C148.842 16.7461 148.681 16.7773 148.473 16.8398C148.139 16.9336 147.056 17.7565 145.223 19.3086C145.035 19.4753 144.79 19.6628 144.488 19.8711C144.395 19.7982 144.348 19.7305 144.348 19.668C144.348 19.6263 144.368 19.5898 144.41 19.5586L147.707 16.9023C148.322 16.4128 148.842 16.168 149.27 16.168C150.228 16.168 150.707 16.6784 150.707 17.6992C150.707 18.2721 150.124 18.8555 148.957 19.4492C148.374 19.7409 147.796 20.1263 147.223 20.6055C146.452 21.2409 146.066 21.7669 146.066 22.1836C146.066 22.4753 146.207 22.6211 146.488 22.6211C146.603 22.6211 146.728 22.6055 146.863 22.5742C147.04 22.5326 147.712 22.0169 148.879 21.0273C150.014 20.0482 150.598 19.5586 150.629 19.5586C150.743 19.5586 150.801 19.6211 150.801 19.7461ZM158.52 19.6992C158.52 19.8659 158.145 20.194 157.395 20.6836C157.155 20.8398 156.858 20.918 156.504 20.918C154.806 22.5638 153.379 23.3867 152.223 23.3867C151.181 23.3867 150.66 22.9076 150.66 21.9492C150.66 20.668 151.592 19.2773 153.457 17.7773C152.957 18.0482 152.592 18.2617 152.363 18.418C151.915 18.8659 151.374 19.3555 150.738 19.8867C150.655 19.8451 150.613 19.7878 150.613 19.7148C150.613 19.569 150.936 19.2201 151.582 18.668C152.405 17.9492 153.665 17.2357 155.363 16.5273C156.384 16.1107 157.056 15.9023 157.379 15.9023C158.077 15.9023 158.426 16.1419 158.426 16.6211C158.426 16.5065 158.363 16.8034 158.238 17.5117C158.27 17.5951 158.285 17.6888 158.285 17.793C158.285 18.5221 157.822 19.3398 156.895 20.2461C156.842 20.2982 156.806 20.3451 156.785 20.3867L156.832 20.4336C157.082 20.4336 157.368 20.2878 157.691 19.9961C158.025 19.7044 158.238 19.5586 158.332 19.5586C158.457 19.5586 158.52 19.6055 158.52 19.6992ZM157.91 16.793C157.91 16.4701 157.759 16.3086 157.457 16.3086C157.051 16.3086 155.993 17.1992 154.285 18.9805C152.587 20.7513 151.738 21.8919 151.738 22.4023C151.738 22.8086 151.931 23.0117 152.316 23.0117C152.691 23.0117 153.087 22.9076 153.504 22.6992C153.889 22.5013 154.348 22.2148 154.879 21.8398C155.577 21.3607 155.931 21.0221 155.941 20.8242C155.691 20.8242 155.566 20.6367 155.566 20.2617C155.566 19.7305 155.811 19.1211 156.301 18.4336C156.811 17.7044 157.322 17.3138 157.832 17.2617C157.884 17.1471 157.91 16.9909 157.91 16.793ZM173.832 8.87109C173.832 11.1315 172.072 14.1367 168.551 17.8867C167.707 18.6888 166.452 19.9023 164.785 21.5273C165.306 21.2148 165.749 20.9336 166.113 20.6836C166.353 20.444 166.738 20.1315 167.27 19.7461C167.301 19.6836 167.348 19.6211 167.41 19.5586C167.525 19.5794 167.582 19.6419 167.582 19.7461C167.582 19.7773 167.556 19.8138 167.504 19.8555C164.514 22.1992 162.264 23.3711 160.754 23.3711C159.577 23.3711 158.988 22.8711 158.988 21.8711C158.988 20.6732 159.957 19.2982 161.895 17.7461C161.395 18.0273 160.816 18.4023 160.16 18.8711C159.587 19.2773 159.025 19.6315 158.473 19.9336C158.421 19.9336 158.363 19.8711 158.301 19.7461C158.301 19.7044 158.332 19.6628 158.395 19.6211C158.634 19.4544 159.52 18.8867 161.051 17.918C161.572 17.5846 162.478 17.1159 163.77 16.5117C164.624 16.1159 165.306 15.918 165.816 15.918C166.764 15.918 167.238 16.319 167.238 17.1211C167.238 17.7669 167.004 18.5013 166.535 19.3242C167.671 18.3034 168.514 17.4909 169.066 16.8867C171.191 14.5221 172.566 12.4128 173.191 10.5586C173.327 10.1419 173.395 9.57943 173.395 8.87109C173.395 7.53776 172.764 6.87109 171.504 6.87109C170.493 6.87109 169.426 7.57422 168.301 8.98047C167.217 10.3346 166.676 11.5326 166.676 12.5742C166.676 13.1888 167.02 13.4961 167.707 13.4961C168.207 13.4961 168.738 13.2044 169.301 12.6211C169.78 12.1211 170.139 11.5951 170.379 11.043C170.556 10.6159 170.743 10.1263 170.941 9.57422C171.046 9.30339 171.098 9.08464 171.098 8.91797C171.098 8.67839 171.009 8.49609 170.832 8.37109C170.655 8.23568 170.566 8.16276 170.566 8.15234C170.566 8.02734 170.613 7.95443 170.707 7.93359C171.207 8.00651 171.457 8.39714 171.457 9.10547C171.457 10.1367 171.087 11.1523 170.348 12.1523C169.556 13.2461 168.66 13.793 167.66 13.793C166.368 13.793 165.723 13.0898 165.723 11.6836C165.723 10.6523 166.108 9.63151 166.879 8.62109C167.598 7.67318 168.457 6.97526 169.457 6.52734C169.915 6.32943 170.525 6.23047 171.285 6.23047C171.639 6.23047 172.046 6.32422 172.504 6.51172C173.389 6.86589 173.832 7.65234 173.832 8.87109ZM166.77 17.3398C166.77 16.6628 166.551 16.3242 166.113 16.3242C165.436 16.3242 164.171 17.4232 162.316 19.6211C161.858 20.0898 161.223 20.819 160.41 21.8086C160.254 22.0378 160.176 22.2669 160.176 22.4961C160.176 22.9023 160.436 23.1055 160.957 23.1055C161.374 23.1055 162.025 22.8138 162.91 22.2305C163.796 21.6471 164.613 20.9388 165.363 20.1055C166.301 19.0534 166.77 18.1315 166.77 17.3398ZM177.957 16.4336C177.957 16.6003 177.848 16.8086 177.629 17.0586L173.113 21.9961C172.936 22.194 172.848 22.3711 172.848 22.5273C172.848 22.6732 172.936 22.7461 173.113 22.7461C173.467 22.7461 174.233 22.2201 175.41 21.168C176.598 20.1055 177.217 19.5742 177.27 19.5742C177.322 19.5742 177.368 19.6003 177.41 19.6523C177.421 19.6732 177.431 19.7096 177.441 19.7617C177.441 19.8138 177.426 19.8555 177.395 19.8867L174.27 22.5586C173.717 23.0378 173.191 23.2773 172.691 23.2773C171.931 23.2773 171.551 22.8607 171.551 22.0273C171.551 21.9336 171.561 21.8346 171.582 21.7305C171.249 22.0638 170.77 22.4076 170.145 22.7617C169.436 23.168 168.9 23.3711 168.535 23.3711C167.764 23.3711 167.379 22.9909 167.379 22.2305C167.379 20.9388 168.363 19.5482 170.332 18.0586C169.457 18.6419 168.499 19.2513 167.457 19.8867C167.353 19.8451 167.301 19.7826 167.301 19.6992C167.301 19.6576 167.327 19.6159 167.379 19.5742C168.16 18.9388 169.259 18.2461 170.676 17.4961C172.28 16.6523 173.431 16.2305 174.129 16.2305C174.702 16.2305 174.988 16.4753 174.988 16.9648C174.988 17.0273 174.967 17.1263 174.926 17.2617C174.884 17.3867 174.863 17.4857 174.863 17.5586L174.848 17.6992H174.863L174.957 17.6523C175.238 17.3294 175.52 17.0065 175.801 16.6836C176.03 16.4753 176.41 16.3555 176.941 16.3242C177.556 16.2826 177.827 16.2617 177.754 16.2617C177.889 16.2617 177.957 16.319 177.957 16.4336ZM174.582 16.8555C174.582 16.7201 174.509 16.6523 174.363 16.6523C173.884 16.6523 172.764 17.6107 171.004 19.5273C169.296 21.3919 168.441 22.4805 168.441 22.793C168.441 22.9492 168.546 23.0273 168.754 23.0273C168.962 23.0273 169.353 22.8555 169.926 22.5117C170.884 21.918 171.691 21.2513 172.348 20.5117C172.837 20.0117 173.488 19.2096 174.301 18.1055C174.488 17.7617 174.582 17.3451 174.582 16.8555Z" fill="#28682E"></path></svg> 