<?xml version="1.0" encoding="UTF-8"?> <svg xmlns="http://www.w3.org/2000/svg" width="83" height="31" viewBox="0 0 83 31" fill="none"><path d="M6.01214 28.6675C5.75614 28.7315 4.98814 28.5395 4.86014 28.1555C4.79614 27.8355 4.73214 27.5795 4.73214 27.3235C4.66814 26.1715 4.66814 25.0195 4.79614 23.9955C4.92414 22.7155 5.18014 21.4995 5.50014 20.3475C5.94814 18.4915 6.65214 16.6995 7.48414 14.9715V14.9075C7.48414 14.8435 7.48414 14.6515 7.74014 14.5875C7.74014 14.4595 7.74014 14.3315 7.80414 14.2035C8.31614 12.8595 8.82814 11.7715 9.40414 10.6195C9.46814 10.5555 9.53214 10.2355 9.59614 9.97945C9.27614 10.0435 9.08414 10.1715 8.95614 10.3635C7.67614 11.6435 6.39614 13.0515 4.86014 14.4595L3.38814 15.8675C3.06814 16.3795 2.55614 16.5715 1.98014 16.6995C1.46814 16.6995 1.21214 16.5075 0.956141 16.2515C0.764141 15.9955 0.444141 16.0595 0.444141 15.6115C1.27614 14.9075 1.98014 13.9475 2.94014 13.4355C3.13214 13.3075 3.26014 13.1795 3.38814 12.8595C3.64414 12.7315 3.83614 12.3475 4.15614 12.4755C4.47614 12.2195 4.79614 11.8355 4.98814 11.5795C5.50014 11.2595 6.01214 10.6835 6.46014 10.3635C6.84414 10.0435 7.29214 9.97945 7.16414 9.46745C7.16414 9.33945 7.29214 9.27545 7.42014 9.21145L9.78814 7.16345C10.3641 6.58745 10.6201 6.65145 11.7721 7.16345C11.9641 7.22745 11.7081 7.35545 11.9641 7.54745C12.4121 7.86745 13.1161 8.25145 12.9881 8.76345C12.9241 9.08345 12.6681 9.27545 12.6041 9.53145C11.7721 10.8755 11.2601 12.3475 10.5561 13.6915C9.85214 15.0995 9.53214 16.5075 8.82814 17.7875C8.57214 18.2355 8.57214 18.6835 8.44414 19.1315C8.25214 19.6435 8.06014 19.8995 7.48414 20.3475C7.54814 20.4755 7.99614 20.6035 7.74014 20.7955C7.54814 21.0515 7.29214 21.0515 7.16414 21.3715V22.3315C7.16414 22.5235 6.97214 22.7155 7.10014 22.8435C7.35614 23.0995 6.97214 23.2275 7.03614 23.4195C7.10014 23.5475 6.84414 23.7395 6.78014 23.8675C6.71614 23.9315 6.65214 23.9955 6.39614 23.9955C6.78014 24.6355 6.46014 25.1475 6.58814 25.7235C6.78014 26.1715 6.33214 26.6195 6.52414 27.0675C6.26814 27.3235 6.33214 27.5795 6.46014 27.8355C6.46014 28.1555 6.14014 28.5395 6.01214 28.6675ZM5.37214 22.4595C5.50014 22.3955 5.69214 22.3955 5.75614 22.1395C5.75614 22.0755 6.58814 19.9635 6.65214 19.6435C6.71614 19.1955 6.90814 18.8115 6.78014 18.2995C6.78014 18.4275 6.71614 18.5555 6.71614 18.8755C6.65214 19.2595 6.26814 19.7075 6.26814 19.3875V18.6195C6.26814 18.6835 6.20414 18.6835 6.20414 18.8755C6.26814 18.6835 5.56414 21.8835 5.37214 22.4595ZM5.30814 24.1875L5.37214 24.1235C5.69214 23.7395 5.69214 23.6115 5.37214 23.1635L5.30814 24.1875ZM14.8816 26.3635C13.9216 25.2755 13.3456 23.8035 13.4736 22.0115C13.6656 19.0035 16.7376 16.8915 18.2736 15.6755L20.0016 14.2675L20.0656 14.0115L21.4096 12.9875L20.7056 11.6435C19.7456 9.33945 19.2976 7.03545 20.1936 4.53945C20.4496 3.96345 20.7056 3.32345 21.0896 2.68345C21.6656 1.78745 22.4336 1.14745 23.3296 0.571451C24.0976 0.0594521 24.8656 0.123451 25.7616 0.635452C25.8256 0.891453 25.9536 1.08345 25.8256 1.33945C25.7616 1.65945 25.6336 1.78745 25.5056 1.97945C23.5216 3.06745 22.8816 4.02745 22.4336 5.30745C21.8576 7.03545 22.1136 9.33945 22.6256 10.8115C22.6896 11.0035 22.9456 11.5795 23.1376 11.8355C23.9056 11.5155 26.5936 9.53145 28.1936 6.65145C28.7056 5.75545 28.8336 4.73145 28.0016 4.09145C27.6176 3.77145 27.4256 3.64345 26.9776 3.32345C26.7216 3.13145 26.4016 2.93945 26.5936 2.55545C27.6176 2.49145 28.5776 2.61945 29.4736 3.00345C29.7936 3.19545 30.1776 3.70745 30.4976 4.02745C30.8176 4.47545 30.8816 4.98745 30.6896 5.56345C30.6896 6.90745 30.2416 8.05945 29.3456 8.82745C28.7056 9.40345 28.1296 9.78745 27.5536 10.4915C27.1696 10.9395 26.7216 11.3875 26.2096 11.6435C26.0176 11.7075 25.9536 11.7715 25.8896 11.8355C25.0576 12.5395 24.8656 12.9235 24.4176 13.3715C23.9056 13.7555 23.9056 13.8195 24.1616 14.4595C24.3536 14.7795 24.6096 15.0355 24.8016 15.2275C24.9936 15.8035 25.5696 16.3155 25.6976 16.9555C25.7616 17.1475 25.9536 17.2755 26.0816 17.4035C26.4656 17.6595 26.5296 17.9155 26.4656 18.2355C26.4016 18.6835 26.5936 19.1315 26.9136 19.2595C27.2336 19.8355 27.3616 20.3475 27.4896 20.8595C28.0016 22.6515 27.6176 24.7635 26.2096 26.2995C23.2656 29.4995 17.7616 29.6275 14.8816 26.3635ZM15.2016 20.0275C15.5216 19.7715 15.7136 19.7715 15.8416 19.5795C16.5456 18.5555 17.0576 18.5555 17.8256 17.5955C18.9136 16.5075 20.2576 15.4195 21.6656 14.3315C21.8576 14.0755 22.0496 13.9475 21.7936 13.6915L18.8496 16.0595C17.6976 17.2115 16.9936 17.6595 16.0336 19.1315C15.9056 19.2595 15.3296 19.7715 15.2016 20.0275ZM22.1776 26.3635C25.6976 25.0835 26.4656 22.1395 24.4816 18.7475C23.7776 17.5315 23.2016 16.5075 22.3696 14.8435L19.8736 16.8915C19.6176 17.2755 19.2976 17.4675 18.9776 17.5955L17.3136 19.1955C13.5376 23.1635 18.0816 27.8355 22.1776 26.3635ZM36.9166 21.3075C36.2126 21.3075 35.9566 20.4755 36.1486 20.2835C36.5326 19.5795 36.5966 18.8115 36.9806 18.2995C37.3646 17.9155 37.6846 17.5955 38.3246 17.7875C38.8366 17.7875 38.9646 17.8515 39.2846 17.9155C39.6046 17.9155 39.7966 18.0435 40.0526 18.3635C40.1166 18.8115 40.1166 19.1315 39.7326 19.6435C39.2846 20.4755 39.4126 20.3475 38.9006 20.7955C38.3246 21.4355 37.4286 21.5635 36.9166 21.3075ZM34.8686 29.7555C34.1646 29.7555 33.9086 28.9235 34.1006 28.7315C34.4846 28.0275 34.5486 27.2595 34.9326 26.7475C35.3166 26.3635 35.6366 26.0435 36.2766 26.2355C36.7886 26.2355 36.9166 26.2995 37.2366 26.3635C37.5566 26.3635 37.7486 26.4915 38.0046 26.8115C38.0686 27.2595 38.0686 27.5795 37.6846 28.0915C37.2366 28.9235 37.3646 28.7955 36.8526 29.2435C36.2766 29.8835 35.3806 30.0115 34.8686 29.7555ZM59.3586 7.99545C61.9186 7.99545 63.4546 9.46745 63.4546 12.2195C63.4546 12.7315 63.3906 13.3075 63.2626 13.8835L63.0706 14.8435C63.0706 15.0995 63.0706 15.2915 62.6866 15.6115C62.7506 15.5475 63.0066 15.5475 62.9426 15.7395C62.6866 16.8275 61.9826 17.8515 61.7906 19.0035C61.7906 19.1315 61.7266 19.3235 61.7266 19.5795C61.4706 19.8995 61.2786 20.2195 61.1506 20.4755C61.0866 21.1155 60.7026 21.6915 60.2546 22.2675L58.9746 23.6115H58.5906C58.5266 23.6115 58.1426 24.4435 58.0786 24.5715C58.2066 24.5715 58.1426 24.6355 58.2066 24.5715C58.1426 24.9555 57.8226 25.4035 57.5026 25.7235C57.3746 25.9795 57.1186 26.3635 56.8626 26.6195C56.9906 26.9395 57.1826 26.6195 57.3106 26.6195C57.4386 26.4915 57.5666 26.4275 57.8226 26.2995C57.8866 26.4275 57.8866 26.4915 57.6946 26.5555C57.4386 27.0675 56.2866 27.3875 55.7746 27.8355C55.0066 28.4115 53.6626 28.7315 52.6386 28.7315C51.8066 28.7315 50.9106 28.5395 50.1426 28.0915C48.9266 27.4515 47.7106 25.2755 47.5826 23.2915C47.5186 22.4595 47.4546 21.6275 47.4546 20.8595C47.4546 17.7235 48.0946 14.5235 50.0146 10.6195C50.9106 8.63545 52.5746 6.33145 54.3026 4.85945C54.6866 4.47545 55.2626 4.28345 55.7746 4.09145C56.1586 3.96345 56.8626 4.09145 57.5666 4.34745C57.8866 4.60345 57.8866 5.05145 57.5026 5.05145C56.8626 5.24345 56.3506 5.69145 55.7746 6.26745C53.5986 8.31545 51.1666 12.5395 50.3346 16.1235C49.9506 17.8515 49.6306 19.4515 49.6306 21.2435C49.6306 21.9475 49.6306 22.6515 49.7586 23.4195C50.2066 26.8115 52.5746 27.6435 54.8786 25.8515C58.9746 22.6515 63.7106 9.65945 59.3586 9.65945C58.2066 9.65945 56.4146 11.2595 55.2626 13.1155C55.1986 13.3715 55.0066 13.4355 54.1106 13.4355C53.9826 13.4355 53.6626 13.1795 53.6626 12.9875C53.6626 12.7955 53.6626 12.3475 53.7906 12.0915C54.2386 11.0675 54.6226 10.6195 55.1986 9.97945C56.5426 8.63545 57.7586 7.99545 59.3586 7.99545ZM61.9186 15.9955C61.9186 15.8675 61.9186 15.7395 61.7906 15.6115C62.1746 14.9715 62.3026 14.0755 62.4946 13.1795L62.1746 13.0515C61.7906 14.2035 61.8546 15.3555 61.3426 16.6355C60.7026 18.2355 59.9346 20.0275 59.1026 21.5635C59.0386 21.6915 58.9746 21.7555 59.3586 21.8835C59.4226 21.6915 59.6146 21.6275 59.8066 21.3715C60.5106 19.8995 61.1506 18.3635 61.7906 16.6355C61.8546 16.4435 61.9186 16.2515 61.9186 15.9955ZM78.3586 7.99545C80.9186 7.99545 82.4546 9.46745 82.4546 12.2195C82.4546 12.7315 82.3906 13.3075 82.2626 13.8835L82.0706 14.8435C82.0706 15.0995 82.0706 15.2915 81.6866 15.6115C81.7506 15.5475 82.0066 15.5475 81.9426 15.7395C81.6866 16.8275 80.9826 17.8515 80.7906 19.0035C80.7906 19.1315 80.7266 19.3235 80.7266 19.5795C80.4706 19.8995 80.2786 20.2195 80.1506 20.4755C80.0866 21.1155 79.7026 21.6915 79.2546 22.2675L77.9746 23.6115H77.5906C77.5266 23.6115 77.1426 24.4435 77.0786 24.5715C77.2066 24.5715 77.1426 24.6355 77.2066 24.5715C77.1426 24.9555 76.8226 25.4035 76.5026 25.7235C76.3746 25.9795 76.1186 26.3635 75.8626 26.6195C75.9906 26.9395 76.1826 26.6195 76.3106 26.6195C76.4386 26.4915 76.5666 26.4275 76.8226 26.2995C76.8866 26.4275 76.8866 26.4915 76.6946 26.5555C76.4386 27.0675 75.2866 27.3875 74.7746 27.8355C74.0066 28.4115 72.6626 28.7315 71.6386 28.7315C70.8066 28.7315 69.9106 28.5395 69.1426 28.0915C67.9266 27.4515 66.7106 25.2755 66.5826 23.2915C66.5186 22.4595 66.4546 21.6275 66.4546 20.8595C66.4546 17.7235 67.0946 14.5235 69.0146 10.6195C69.9106 8.63545 71.5746 6.33145 73.3026 4.85945C73.6866 4.47545 74.2626 4.28345 74.7746 4.09145C75.1586 3.96345 75.8626 4.09145 76.5666 4.34745C76.8866 4.60345 76.8866 5.05145 76.5026 5.05145C75.8626 5.24345 75.3506 5.69145 74.7746 6.26745C72.5986 8.31545 70.1666 12.5395 69.3346 16.1235C68.9506 17.8515 68.6306 19.4515 68.6306 21.2435C68.6306 21.9475 68.6306 22.6515 68.7586 23.4195C69.2066 26.8115 71.5746 27.6435 73.8786 25.8515C77.9746 22.6515 82.7106 9.65945 78.3586 9.65945C77.2066 9.65945 75.4146 11.2595 74.2626 13.1155C74.1986 13.3715 74.0066 13.4355 73.1106 13.4355C72.9826 13.4355 72.6626 13.1795 72.6626 12.9875C72.6626 12.7955 72.6626 12.3475 72.7906 12.0915C73.2386 11.0675 73.6226 10.6195 74.1986 9.97945C75.5426 8.63545 76.7586 7.99545 78.3586 7.99545ZM80.9186 15.9955C80.9186 15.8675 80.9186 15.7395 80.7906 15.6115C81.1746 14.9715 81.3026 14.0755 81.4946 13.1795L81.1746 13.0515C80.7906 14.2035 80.8546 15.3555 80.3426 16.6355C79.7026 18.2355 78.9346 20.0275 78.1026 21.5635C78.0386 21.6915 77.9746 21.7555 78.3586 21.8835C78.4226 21.6915 78.6146 21.6275 78.8066 21.3715C79.5106 19.8995 80.1506 18.3635 80.7906 16.6355C80.8546 16.4435 80.9186 16.2515 80.9186 15.9955Z" fill="#820F09"></path></svg> 