<?xml version="1.0" encoding="UTF-8"?> <svg xmlns="http://www.w3.org/2000/svg" width="215" height="101" viewBox="0 0 215 101" fill="none"><path d="M26.4506 62.7891V62.5731H27.2906C27.8506 62.5731 28.2026 62.4771 28.3466 62.2851C28.4906 62.0931 28.5626 61.6931 28.5626 61.0851V47.2371C28.5626 46.6291 28.4906 46.2291 28.3466 46.0371C28.2026 45.8451 27.8506 45.7491 27.2906 45.7491H26.4506V45.5331H41.0186V45.7491H40.1546C39.5946 45.7491 39.2426 45.8451 39.0986 46.0371C38.9546 46.2291 38.8826 46.6291 38.8826 47.2371V61.0851C38.8826 61.6931 38.9546 62.0931 39.0986 62.2851C39.2426 62.4771 39.5946 62.5731 40.1546 62.5731H41.0186V62.7891H35.0906V62.5731H35.7386C36.2986 62.5731 36.6506 62.4771 36.7946 62.2851C36.9386 62.0931 37.0106 61.6931 37.0106 61.0851V45.9651H30.4346V61.0851C30.4346 61.6931 30.5066 62.0931 30.6506 62.2851C30.8106 62.4771 31.1706 62.5731 31.7306 62.5731H32.3546V62.7891H26.4506ZM45.425 45.9891V46.1091C45.697 46.4771 45.833 46.9731 45.833 47.5971V55.6371H47.177C48.697 55.6371 49.849 55.2291 50.633 54.4131C51.433 53.5811 51.833 52.3811 51.833 50.8131C51.833 49.2451 51.433 48.0531 50.633 47.2371C49.849 46.4051 48.697 45.9891 47.177 45.9891H45.425ZM41.849 62.7891V62.5731H42.689C43.265 62.5731 43.617 62.5091 43.745 62.3811C43.889 62.2371 43.961 61.8771 43.961 61.3011V47.0211C43.961 46.4451 43.889 46.0931 43.745 45.9651C43.617 45.8211 43.265 45.7491 42.689 45.7491H41.849V45.5331H47.897C49.705 45.5331 51.161 46.0211 52.265 46.9971C53.369 47.9571 53.921 49.2291 53.921 50.8131C53.921 52.3971 53.369 53.6691 52.265 54.6291C51.161 55.5891 49.705 56.0691 47.897 56.0691H45.833V61.3011C45.833 61.8771 45.905 62.2371 46.049 62.3811C46.193 62.5091 46.553 62.5731 47.129 62.5731H47.729V62.7891H41.849ZM63.446 54.0531V48.9171C63.446 46.8211 62.502 45.7731 60.614 45.7731C59.462 45.7731 58.566 46.0771 57.926 46.6851C57.286 47.2771 56.942 48.0611 56.894 49.0371L56.822 50.5251H56.39L56.654 44.8611H56.894L56.822 46.1331C56.79 46.5171 56.758 46.7731 56.726 46.9011L56.894 46.9491C56.974 46.7091 57.102 46.5251 57.278 46.3971C58.222 45.6931 59.326 45.3411 60.59 45.3411C62.142 45.3411 63.318 45.6771 64.118 46.3491C64.918 47.0051 65.318 47.9651 65.318 49.2291V61.0851C65.318 61.5811 65.358 61.9091 65.438 62.0691C65.534 62.2291 65.758 62.3091 66.11 62.3091L66.59 62.2851L66.998 62.2611L67.022 62.4771C66.078 62.5731 65.206 62.7491 64.406 63.0051V62.8131C64.406 62.3331 64.318 61.6131 64.142 60.6531C64.03 59.9331 63.966 59.4131 63.95 59.0931H63.71C63.07 61.6851 61.726 62.9811 59.678 62.9811C58.366 62.9811 57.278 62.6211 56.414 61.9011C55.566 61.1651 55.142 60.2131 55.142 59.0451C55.142 57.5411 55.726 56.3331 56.894 55.4211C58.078 54.5091 59.638 54.0531 61.574 54.0531H63.446ZM63.446 54.4851H61.694C60.35 54.4851 59.27 54.9091 58.454 55.7571C57.638 56.5891 57.23 57.6851 57.23 59.0451C57.23 60.0371 57.478 60.8371 57.974 61.4451C58.486 62.0371 59.15 62.3331 59.966 62.3331C60.894 62.3331 61.702 61.9091 62.39 61.0611C63.094 60.1971 63.446 58.9651 63.446 57.3651V54.4851ZM71.2726 53.0931V52.6611H72.1366C73.0966 52.6611 73.9046 52.3011 74.5606 51.5811C75.2166 50.8611 75.5446 49.9731 75.5446 48.9171C75.5446 47.9091 75.2566 47.1331 74.6806 46.5891C74.1046 46.0451 73.3286 45.7731 72.3526 45.7731C71.3286 45.7731 70.5526 46.1011 70.0246 46.7571C69.5126 47.3971 69.2246 48.1731 69.1606 49.0851V49.8771H68.7526V45.5811H68.9686V46.5411L69.0406 46.5651C69.1686 46.3411 69.3446 46.1731 69.5686 46.0611C70.3206 45.6131 71.2406 45.3731 72.3286 45.3411C73.6886 45.3411 74.8086 45.6691 75.6886 46.3251C76.5846 46.9811 77.0326 47.8291 77.0326 48.8691C77.0326 49.7491 76.7046 50.5891 76.0486 51.3891C75.3926 52.1891 74.6726 52.6611 73.8886 52.8051V52.8291C75.0566 52.9891 76.0486 53.5891 76.8646 54.6291C77.6966 55.6691 78.1126 56.8291 78.1126 58.1091C78.1126 59.5491 77.5686 60.7251 76.4806 61.6371C75.3926 62.5331 74.0086 62.9811 72.3286 62.9811C71.6566 62.9811 70.9526 62.8291 70.2166 62.5251C69.4806 62.2211 68.8326 61.7891 68.2726 61.2291L68.5846 60.9171C69.0966 61.4451 69.6966 61.8531 70.3846 62.1411C71.0726 62.4131 71.7206 62.5491 72.3286 62.5491C73.5606 62.5491 74.5286 62.1651 75.2326 61.3971C75.9526 60.6291 76.3126 59.5331 76.3126 58.1091C76.3126 56.6531 75.9446 55.4531 75.2086 54.5091C74.4886 53.5651 73.5846 53.0931 72.4966 53.0931H71.2726ZM78.6419 62.3571H80.2979C80.7779 61.9411 81.2499 61.4211 81.7139 60.7971C82.1779 60.1731 82.6259 59.4451 83.0579 58.6131C83.4899 57.7811 83.8419 56.8211 84.1139 55.7331C84.3859 54.6451 84.5219 53.5331 84.5219 52.3971V47.5251C84.5219 46.6931 84.4179 46.1891 84.2099 46.0131C84.0179 45.8371 83.4979 45.7491 82.6499 45.7491H82.1219V45.5331H93.8099V45.7491H92.9459C92.3859 45.7491 92.0339 45.8451 91.8899 46.0371C91.7459 46.2291 91.6739 46.6291 91.6739 47.2371V62.3571H93.8099V66.8211H92.9459V64.2771C92.9459 63.6691 92.8659 63.2691 92.7059 63.0771C92.5619 62.8851 92.2099 62.7891 91.6499 62.7891H80.8019C80.2419 62.7891 79.8819 62.8851 79.7219 63.0771C79.5779 63.2691 79.5059 63.6691 79.5059 64.2771V66.8211H78.6419V62.3571ZM82.9619 62.3571H89.8019V45.9651H85.1459V51.8211C85.1459 54.0611 84.9379 56.0931 84.5219 57.9171C84.1219 59.7251 83.6019 61.2051 82.9619 62.3571ZM94.7474 62.7891V62.5731H95.5874C96.1474 62.5731 96.4994 62.4771 96.6434 62.2851C96.7874 62.0931 96.8594 61.6931 96.8594 61.0851V47.2371C96.8594 46.6291 96.7874 46.2291 96.6434 46.0371C96.4994 45.8451 96.1474 45.7491 95.5874 45.7491H94.7474V45.5331H100.651V45.7491H100.027C99.4674 45.7491 99.1074 45.8451 98.9474 46.0371C98.8034 46.2291 98.7314 46.6291 98.7314 47.2371V53.5011H105.307V47.2371C105.307 46.6291 105.227 46.2291 105.067 46.0371C104.923 45.8451 104.571 45.7491 104.011 45.7491H103.387V45.5331H109.315V45.7491H108.451C107.891 45.7491 107.539 45.8451 107.395 46.0371C107.251 46.2291 107.179 46.6291 107.179 47.2371V61.0851C107.179 61.6931 107.251 62.0931 107.395 62.2851C107.539 62.4771 107.891 62.5731 108.451 62.5731H109.315V62.7891H103.387V62.5731H104.035C104.595 62.5731 104.947 62.4771 105.091 62.2851C105.235 62.0931 105.307 61.6931 105.307 61.0851V53.9331H98.7314V61.0851C98.7314 61.6931 98.8034 62.0931 98.9474 62.2851C99.1074 62.4771 99.4674 62.5731 100.027 62.5731H100.651V62.7891H94.7474ZM110.146 62.7891V62.5731H110.986C111.546 62.5731 111.898 62.4771 112.042 62.2851C112.186 62.0931 112.258 61.6931 112.258 61.0851V47.2371C112.258 46.6291 112.186 46.2291 112.042 46.0371C111.898 45.8451 111.546 45.7491 110.986 45.7491H110.146V45.5331H116.05V45.7491H115.426C114.866 45.7491 114.506 45.8451 114.346 46.0371C114.202 46.2291 114.13 46.6291 114.13 47.2371V61.1571L120.946 45.5331H124.714V45.7491H123.85C123.29 45.7491 122.938 45.8451 122.794 46.0371C122.65 46.2291 122.578 46.6291 122.578 47.2371V61.0851C122.578 61.6931 122.65 62.0931 122.794 62.2851C122.938 62.4771 123.29 62.5731 123.85 62.5731H124.714V62.7891H118.786V62.5731H119.434C119.994 62.5731 120.346 62.4771 120.49 62.2851C120.634 62.0931 120.706 61.6931 120.706 61.0851V47.1651L113.89 62.7891H110.146ZM132.48 62.7891V62.5731H133.32C133.896 62.5731 134.248 62.5091 134.376 62.3811C134.52 62.2531 134.592 61.9011 134.592 61.3251V55.3491H131.04C129.872 55.3491 128.976 55.0371 128.352 54.4131C127.728 53.7891 127.416 52.8931 127.416 51.7251V47.0211C127.416 46.4451 127.344 46.0931 127.2 45.9651C127.072 45.8211 126.72 45.7491 126.144 45.7491H125.52V45.5331H130.512V45.7491H128.904V45.7971C129.048 45.9411 129.12 46.1491 129.12 46.4211V51.5331C129.12 53.8051 129.824 54.9411 131.232 54.9411H134.592V46.9971C134.592 46.4211 134.52 46.0691 134.376 45.9411C134.248 45.8131 133.896 45.7491 133.32 45.7491H132.48V45.5331H138.6V45.7971H137.76C137.184 45.7971 136.824 45.8611 136.68 45.9891C136.536 46.1171 136.464 46.4691 136.464 47.0451V61.3251C136.464 61.9011 136.536 62.2531 136.68 62.3811C136.824 62.5091 137.184 62.5731 137.76 62.5731H138.6V62.7891H132.48ZM139.443 62.7891V62.5731H140.283C140.843 62.5731 141.195 62.4771 141.339 62.2851C141.483 62.0931 141.555 61.6931 141.555 61.0851V47.2371C141.555 46.6291 141.483 46.2291 141.339 46.0371C141.195 45.8451 140.843 45.7491 140.283 45.7491H139.443V45.5331H145.347V45.7491H144.723C144.163 45.7491 143.803 45.8451 143.643 46.0371C143.499 46.2291 143.427 46.6291 143.427 47.2371V53.5011H150.003V47.2371C150.003 46.6291 149.923 46.2291 149.763 46.0371C149.619 45.8451 149.267 45.7491 148.707 45.7491H148.083V45.5331H154.011V45.7491H153.147C152.587 45.7491 152.235 45.8451 152.091 46.0371C151.947 46.2291 151.875 46.6291 151.875 47.2371V61.0851C151.875 61.6931 151.947 62.0931 152.091 62.2851C152.235 62.4771 152.587 62.5731 153.147 62.5731H154.011V62.7891H148.083V62.5731H148.731C149.291 62.5731 149.643 62.4771 149.787 62.2851C149.931 62.0931 150.003 61.6931 150.003 61.0851V53.9331H143.427V61.0851C143.427 61.6931 143.499 62.0931 143.643 62.2851C143.803 62.4771 144.163 62.5731 144.723 62.5731H145.347V62.7891H139.443ZM167.057 62.7891V62.5731H167.897C168.473 62.5731 168.825 62.5091 168.953 62.3811C169.097 62.2531 169.169 61.9011 169.169 61.3251V46.9971C169.169 46.4211 169.097 46.0691 168.953 45.9411C168.825 45.8131 168.473 45.7491 167.897 45.7491H167.057V45.5331H173.177V45.7971H172.337C171.761 45.7971 171.401 45.8611 171.257 45.9891C171.113 46.1171 171.041 46.4691 171.041 47.0451V61.3251C171.041 61.9011 171.113 62.2531 171.257 62.3811C171.401 62.5091 171.761 62.5731 172.337 62.5731H173.177V62.7891H167.057ZM154.841 62.7891V62.5491H155.681C156.257 62.5491 156.609 62.4851 156.737 62.3571C156.881 62.2131 156.953 61.8531 156.953 61.2771V46.9971C156.953 46.4211 156.881 46.0691 156.737 45.9411C156.609 45.8131 156.257 45.7491 155.681 45.7491H154.841V45.5331H160.961V45.7491H160.121C159.545 45.7491 159.185 45.8211 159.041 45.9651C158.897 46.1091 158.825 46.4691 158.825 47.0451V53.9091H160.649C162.489 53.9091 163.969 54.3171 165.089 55.1331C166.209 55.9491 166.769 57.0211 166.769 58.3491C166.769 59.6771 166.209 60.7491 165.089 61.5651C163.969 62.3811 162.489 62.7891 160.649 62.7891H154.841ZM158.825 54.3171V61.0851C158.825 61.6291 158.689 62.0371 158.417 62.3091V62.3571H160.193C161.649 62.3571 162.761 62.0131 163.529 61.3251C164.297 60.6371 164.681 59.6451 164.681 58.3491C164.681 57.0371 164.297 56.0371 163.529 55.3491C162.761 54.6611 161.649 54.3171 160.193 54.3171H158.825ZM174.013 62.7891V62.5731H174.853C175.413 62.5731 175.765 62.4771 175.909 62.2851C176.053 62.0931 176.125 61.6931 176.125 61.0851V47.2371C176.125 46.6291 176.053 46.2291 175.909 46.0371C175.765 45.8451 175.413 45.7491 174.853 45.7491H174.013V45.5331H179.917V45.7491H179.293C178.733 45.7491 178.373 45.8451 178.213 46.0371C178.069 46.2291 177.997 46.6291 177.997 47.2371V61.1571L184.813 45.5331H188.581V45.7491H187.717C187.157 45.7491 186.805 45.8451 186.661 46.0371C186.517 46.2291 186.445 46.6291 186.445 47.2371V61.0851C186.445 61.6931 186.517 62.0931 186.661 62.2851C186.805 62.4771 187.157 62.5731 187.717 62.5731H188.581V62.7891H182.653V62.5731H183.301C183.861 62.5731 184.213 62.4771 184.357 62.2851C184.501 62.0931 184.573 61.6931 184.573 61.0851V47.1651L177.757 62.7891H174.013ZM178.333 41.2131L179.197 41.1411C179.197 41.7971 179.437 42.3651 179.917 42.8451C180.397 43.3091 180.973 43.5411 181.645 43.5411C182.317 43.5411 182.893 43.3091 183.373 42.8451C183.853 42.3651 184.093 41.7971 184.093 41.1411L184.957 41.2131C184.957 41.9811 184.629 42.6371 183.973 43.1811C183.333 43.7091 182.557 43.9731 181.645 43.9731C180.733 43.9731 179.949 43.7091 179.293 43.1811C178.653 42.6371 178.333 41.9811 178.333 41.2131ZM65.8021 93.7891V93.5491H66.6421C67.2181 93.5491 67.5701 93.4851 67.6981 93.3571C67.8421 93.2131 67.9141 92.8531 67.9141 92.2771V78.0211C67.9141 77.4451 67.8421 77.0931 67.6981 76.9651C67.5701 76.8211 67.2181 76.7491 66.6421 76.7491H65.8021V76.5331H75.7861C76.0741 76.5331 76.2901 76.6051 76.4341 76.7491H76.4581L76.3621 75.1171L76.5781 75.0931L77.0341 82.1251H76.6021L76.5061 80.4451C76.4421 79.2291 76.0101 78.3491 75.2101 77.8051C74.4261 77.2451 73.4101 76.9651 72.1621 76.9651H69.2581V76.9891C69.6101 77.3411 69.7861 77.7571 69.7861 78.2371V84.4291H71.4661C73.6421 84.4291 75.3861 84.8611 76.6981 85.7251C78.0261 86.5731 78.6901 87.7011 78.6901 89.1091C78.6901 90.5171 78.0821 91.6531 76.8661 92.5171C75.6661 93.3651 74.0741 93.7891 72.0901 93.7891H65.8021ZM69.7861 84.8371V92.0851C69.7861 92.6291 69.6501 93.0371 69.3781 93.3091V93.3571H71.6341C73.2501 93.3571 74.4821 92.9971 75.3301 92.2771C76.1781 91.5411 76.6021 90.4851 76.6021 89.1091C76.6021 87.7171 76.1621 86.6611 75.2821 85.9411C74.4181 85.2051 73.1541 84.8371 71.4901 84.8371H69.7861ZM88.0085 85.0531V79.9171C88.0085 77.8211 87.0645 76.7731 85.1765 76.7731C84.0245 76.7731 83.1285 77.0771 82.4885 77.6851C81.8485 78.2771 81.5045 79.0611 81.4565 80.0371L81.3845 81.5251H80.9525L81.2165 75.8611H81.4565L81.3845 77.1331C81.3525 77.5171 81.3205 77.7731 81.2885 77.9011L81.4565 77.9491C81.5365 77.7091 81.6645 77.5251 81.8405 77.3971C82.7845 76.6931 83.8885 76.3411 85.1525 76.3411C86.7045 76.3411 87.8805 76.6771 88.6805 77.3491C89.4805 78.0051 89.8805 78.9651 89.8805 80.2291V92.0851C89.8805 92.5811 89.9205 92.9091 90.0005 93.0691C90.0965 93.2291 90.3205 93.3091 90.6725 93.3091L91.1525 93.2851L91.5605 93.2611L91.5845 93.4771C90.6405 93.5731 89.7685 93.7491 88.9685 94.0051V93.8131C88.9685 93.3331 88.8805 92.6131 88.7045 91.6531C88.5925 90.9331 88.5285 90.4131 88.5125 90.0931H88.2725C87.6325 92.6851 86.2885 93.9811 84.2405 93.9811C82.9285 93.9811 81.8405 93.6211 80.9765 92.9011C80.1285 92.1651 79.7045 91.2131 79.7045 90.0451C79.7045 88.5411 80.2885 87.3331 81.4565 86.4211C82.6405 85.5091 84.2005 85.0531 86.1365 85.0531H88.0085ZM88.0085 85.4851H86.2565C84.9125 85.4851 83.8325 85.9091 83.0165 86.7571C82.2005 87.5891 81.7925 88.6851 81.7925 90.0451C81.7925 91.0371 82.0405 91.8371 82.5365 92.4451C83.0485 93.0371 83.7125 93.3331 84.5285 93.3331C85.4565 93.3331 86.2645 92.9091 86.9525 92.0611C87.6565 91.1971 88.0085 89.9651 88.0085 88.3651V85.4851ZM92.4271 93.7891V93.5731H93.2671C93.8271 93.5731 94.1791 93.4771 94.3231 93.2851C94.4671 93.0931 94.5391 92.6931 94.5391 92.0851V78.2371C94.5391 77.6291 94.4671 77.2291 94.3231 77.0371C94.1791 76.8451 93.8271 76.7491 93.2671 76.7491H92.4271V76.5331H98.3311V76.7491H97.7071C97.1471 76.7491 96.7871 76.8451 96.6271 77.0371C96.4831 77.2291 96.4111 77.6291 96.4111 78.2371V84.5011H102.987V78.2371C102.987 77.6291 102.907 77.2291 102.747 77.0371C102.603 76.8451 102.251 76.7491 101.691 76.7491H101.067V76.5331H106.995V76.7491H106.131C105.571 76.7491 105.219 76.8451 105.075 77.0371C104.931 77.2291 104.859 77.6291 104.859 78.2371V92.0851C104.859 92.6931 104.931 93.0931 105.075 93.2851C105.219 93.4771 105.571 93.5731 106.131 93.5731H106.995V93.7891H101.067V93.5731H101.715C102.275 93.5731 102.627 93.4771 102.771 93.2851C102.915 93.0931 102.987 92.6931 102.987 92.0851V84.9331H96.4111V92.0851C96.4111 92.6931 96.4831 93.0931 96.6271 93.2851C96.7871 93.4771 97.1471 93.5731 97.7071 93.5731H98.3311V93.7891H92.4271ZM124.29 82.8691C124.29 82.9651 124.29 83.0611 124.29 83.1571C124.29 85.5251 124.73 87.3331 125.61 88.5811C126.49 89.8131 127.778 90.4291 129.474 90.4291C130.882 90.4291 132.114 90.1171 133.17 89.4931C134.226 88.8691 135.026 88.0051 135.57 86.9011L135.93 87.1411C135.354 88.3091 134.506 89.2211 133.386 89.8771C132.266 90.5331 130.962 90.8611 129.474 90.8611C127.314 90.8611 125.57 90.1891 124.242 88.8451C122.914 87.5011 122.25 85.7331 122.25 83.5411C122.25 81.3811 122.914 79.6451 124.242 78.3331C125.586 77.0051 127.354 76.3411 129.546 76.3411C131.45 76.3411 132.986 76.8691 134.154 77.9251C135.322 78.9651 135.906 80.3411 135.906 82.0531V82.1731C135.906 82.3651 135.834 82.5331 135.69 82.6771C135.546 82.8051 135.37 82.8691 135.162 82.8691H124.29ZM124.314 82.4371L133.722 82.2691C133.85 82.2691 133.914 82.1971 133.914 82.0531C133.914 80.4691 133.506 79.1971 132.69 78.2371C131.874 77.2611 130.794 76.7731 129.45 76.7731C127.85 76.7731 126.618 77.2531 125.754 78.2131C124.89 79.1731 124.41 80.5811 124.314 82.4371ZM136.098 91.6771C135.122 92.5251 133.866 93.2771 132.33 93.9331C130.794 94.6051 129.218 94.9411 127.602 94.9411C126.786 94.9411 126.002 94.8531 125.25 94.6771C124.514 94.5171 123.858 94.3171 123.282 94.0771C122.706 93.8371 122.122 93.5011 121.53 93.0691C120.938 92.6371 120.45 92.2451 120.066 91.8931C119.682 91.5411 119.242 91.0691 118.746 90.4771C118.266 89.8851 117.898 89.4131 117.642 89.0611C117.386 88.7091 117.042 88.2291 116.61 87.6211C116.21 87.0611 115.906 86.6371 115.698 86.3491C115.49 86.0611 115.21 85.7171 114.858 85.3171C114.522 84.9011 114.226 84.5971 113.97 84.4051C113.714 84.1971 113.418 84.0211 113.082 83.8771C112.762 83.7171 112.434 83.6371 112.098 83.6371H111.81V92.0851C111.81 92.7571 111.882 93.1731 112.026 93.3331C112.17 93.4931 112.53 93.5731 113.106 93.5731H113.946V93.7891H107.826V93.5731H108.666C109.242 93.5731 109.594 93.4931 109.722 93.3331C109.866 93.1731 109.938 92.7571 109.938 92.0851V78.0211C109.938 77.4451 109.866 77.0931 109.722 76.9651C109.594 76.8211 109.242 76.7491 108.666 76.7491H107.826V76.5331H113.322V76.7491H113.106C112.53 76.7491 112.17 76.8211 112.026 76.9651C111.882 77.0931 111.81 77.4451 111.81 78.0211V83.4211C112.674 83.4211 113.194 83.3091 113.37 83.0851L117.162 78.3091C117.45 77.9571 117.594 77.6531 117.594 77.3971C117.594 76.9651 117.178 76.7491 116.346 76.7491H116.13V76.5331H121.554V76.7491H121.146C120.538 76.7491 119.914 76.8851 119.274 77.1571C118.634 77.4131 118.082 77.8291 117.618 78.4051L113.802 83.2291L113.826 83.3251C114.37 83.4531 114.882 83.6611 115.362 83.9491C115.842 84.2211 116.306 84.6051 116.754 85.1011C117.218 85.5811 117.594 86.0131 117.882 86.3971C118.186 86.7811 118.578 87.3171 119.058 88.0051C119.442 88.5491 119.746 88.9811 119.97 89.3011C120.21 89.6051 120.538 90.0051 120.954 90.5011C121.37 90.9971 121.738 91.3971 122.058 91.7011C122.394 91.9891 122.81 92.3171 123.306 92.6851C123.802 93.0371 124.29 93.3091 124.77 93.5011C125.266 93.6931 125.834 93.8531 126.474 93.9811C127.114 94.1251 127.778 94.1971 128.466 94.1971C129.33 94.1971 130.194 94.0931 131.058 93.8851C131.922 93.6771 132.682 93.4131 133.338 93.0931C133.994 92.7731 134.53 92.4851 134.946 92.2291C135.378 91.9571 135.722 91.7171 135.978 91.5091L136.098 91.6771ZM139.162 93.7891V93.5731H140.986C141.562 93.5731 141.914 93.5091 142.042 93.3811C142.186 93.2371 142.258 92.8771 142.258 92.3011V76.9651H140.818C139.618 76.9651 138.794 77.1491 138.346 77.5171C137.898 77.8691 137.642 78.6051 137.578 79.7251L137.506 80.7091L137.074 80.6851L137.434 75.1171L137.698 75.1411L137.578 76.5331H148.762L148.642 75.1651L148.906 75.1411L149.266 80.6851L148.834 80.7091L148.762 79.7251C148.682 78.6051 148.418 77.8691 147.97 77.5171C147.522 77.1491 146.706 76.9651 145.522 76.9651H144.13V92.3011C144.13 92.8771 144.194 93.2371 144.322 93.3811C144.466 93.5091 144.826 93.5731 145.402 93.5731H147.178V93.7891H139.162Z" fill="black"></path><path d="M89.8241 24.3809H82.6961V24.1649H84.2321C84.8081 24.1649 85.1681 24.0849 85.3121 23.9249C85.4561 23.7649 85.5281 23.3489 85.5281 22.6769V11.4449C85.5281 10.8529 85.5521 10.3889 85.6001 10.0529L85.5041 10.0049C85.3121 10.2929 85.1121 10.5409 84.9041 10.7489L83.2961 12.5729L83.1281 12.4529L84.0641 11.2769C85.9681 8.84486 86.9201 7.39686 86.9201 6.93286H87.2321V22.6769C87.2321 23.3489 87.2961 23.7649 87.4241 23.9249C87.5681 24.0849 87.9281 24.1649 88.5041 24.1649H89.8241V24.3809ZM91.8732 22.8689V20.3969H92.0892V20.7329C92.2652 21.6609 92.6252 22.4609 93.1692 23.1329C93.7132 23.8049 94.4892 24.1409 95.4972 24.1409C96.6492 24.1409 97.5452 23.3089 98.1852 21.6449C98.8252 19.9649 99.1452 17.8289 99.1452 15.2369H99.0492C98.6972 16.1329 98.1932 16.8209 97.5372 17.3009C96.8812 17.7649 96.1692 17.9969 95.4012 17.9969C94.0572 17.9969 92.9692 17.4849 92.1372 16.4609C91.3212 15.4209 90.9132 14.0529 90.9132 12.3569C90.9132 10.6769 91.3692 9.35686 92.2812 8.39686C93.1932 7.42086 94.4092 6.93286 95.9292 6.93286C97.4332 6.93286 98.6412 7.67686 99.5532 9.16486C100.481 10.6369 100.945 12.5889 100.945 15.0209C100.945 17.8849 100.441 20.1969 99.4332 21.9569C98.4412 23.7009 97.1292 24.5729 95.4972 24.5729C95.2412 24.5729 94.9852 24.5489 94.7292 24.5009C94.4892 24.4529 94.2572 24.3889 94.0332 24.3089C93.8252 24.2129 93.6332 24.1249 93.4572 24.0449C93.2812 23.9649 93.0972 23.8609 92.9052 23.7329C92.7292 23.5889 92.5932 23.4849 92.4972 23.4209C92.4172 23.3409 92.2972 23.2369 92.1372 23.1089C91.9932 22.9649 91.9052 22.8849 91.8732 22.8689ZM92.7372 12.3569C92.7372 14.0529 92.9772 15.3489 93.4572 16.2449C93.9372 17.1249 94.6332 17.5649 95.5452 17.5649C96.4252 17.5649 97.2252 17.0849 97.9452 16.1249C98.6652 15.1489 99.0332 13.9409 99.0492 12.5009C98.9212 10.8529 98.5852 9.58886 98.0412 8.70886C97.5132 7.81286 96.8092 7.36486 95.9292 7.36486C94.8892 7.36486 94.0972 7.79686 93.5532 8.66086C93.0092 9.50886 92.7372 10.7409 92.7372 12.3569ZM104.144 22.4609C104.464 22.4609 104.72 22.5569 104.912 22.7489C105.104 22.9409 105.2 23.2049 105.2 23.5409C105.2 23.8609 105.104 24.1169 104.912 24.3089C104.736 24.5009 104.48 24.5969 104.144 24.5969C103.824 24.5969 103.56 24.5089 103.352 24.3329C103.16 24.1409 103.064 23.8769 103.064 23.5409C103.064 23.2209 103.16 22.9649 103.352 22.7729C103.544 22.5649 103.808 22.4609 104.144 22.4609ZM104.144 14.0369C104.464 14.0369 104.72 14.1329 104.912 14.3249C105.104 14.5169 105.2 14.7809 105.2 15.1169C105.2 15.4369 105.104 15.6929 104.912 15.8849C104.736 16.0769 104.48 16.1729 104.144 16.1729C103.824 16.1729 103.56 16.0849 103.352 15.9089C103.16 15.7169 103.064 15.4529 103.064 15.1169C103.064 14.7969 103.16 14.5409 103.352 14.3489C103.544 14.1409 103.808 14.0369 104.144 14.0369ZM112.911 7.36486C111.647 7.36486 110.679 8.01286 110.007 9.30886C109.351 10.5889 109.023 12.4529 109.023 14.9009C109.023 17.9089 109.367 20.2049 110.055 21.7889C110.759 23.3569 111.767 24.1409 113.079 24.1409C114.343 24.1409 115.311 23.5009 115.983 22.2209C116.655 20.9249 116.991 19.0529 116.991 16.6049C116.991 13.5969 116.639 11.3089 115.935 9.74086C115.247 8.15686 114.239 7.36486 112.911 7.36486ZM108.807 9.35686C109.879 7.74086 111.279 6.93286 113.007 6.93286C114.735 6.93286 116.127 7.74086 117.183 9.35686C118.255 10.9729 118.791 13.1009 118.791 15.7409C118.791 18.3969 118.255 20.5329 117.183 22.1489C116.127 23.7649 114.735 24.5729 113.007 24.5729C111.279 24.5729 109.879 23.7649 108.807 22.1489C107.751 20.5329 107.223 18.3969 107.223 15.7409C107.223 13.1009 107.751 10.9729 108.807 9.35686ZM125.943 7.36486C124.679 7.36486 123.711 8.01286 123.039 9.30886C122.383 10.5889 122.055 12.4529 122.055 14.9009C122.055 17.9089 122.399 20.2049 123.087 21.7889C123.791 23.3569 124.799 24.1409 126.111 24.1409C127.375 24.1409 128.343 23.5009 129.015 22.2209C129.687 20.9249 130.023 19.0529 130.023 16.6049C130.023 13.5969 129.671 11.3089 128.967 9.74086C128.279 8.15686 127.271 7.36486 125.943 7.36486ZM121.839 9.35686C122.911 7.74086 124.311 6.93286 126.039 6.93286C127.767 6.93286 129.159 7.74086 130.215 9.35686C131.287 10.9729 131.823 13.1009 131.823 15.7409C131.823 18.3969 131.287 20.5329 130.215 22.1489C129.159 23.7649 127.767 24.5729 126.039 24.5729C124.311 24.5729 122.911 23.7649 121.839 22.1489C120.783 20.5329 120.255 18.3969 120.255 15.7409C120.255 13.1009 120.783 10.9729 121.839 9.35686Z" fill="black"></path></svg> 