<?xml version="1.0" encoding="UTF-8"?> <svg xmlns="http://www.w3.org/2000/svg" width="230" height="21" viewBox="0 0 230 21" fill="none"><path d="M9.71636 19.2193C7.04436 19.2193 4.89236 18.4113 3.26036 16.7953C1.62836 15.1793 0.812359 13.0433 0.812359 10.3873C0.812359 7.74734 1.62836 5.61934 3.26036 4.00334C4.89236 2.38734 7.04436 1.57934 9.71636 1.57934C12.3724 1.57934 14.5084 2.38734 16.1244 4.00334C17.7564 5.61934 18.5724 7.74734 18.5724 10.3873C18.5724 13.0433 17.7564 15.1793 16.1244 16.7953C14.5084 18.4113 12.3724 19.2193 9.71636 19.2193ZM9.78836 18.7873C11.9644 18.7873 13.6204 18.1073 14.7564 16.7473C15.9084 15.3873 16.4844 13.4193 16.4844 10.8433C16.4844 7.97934 15.8924 5.79534 14.7084 4.29134C13.5404 2.77134 11.8444 2.01134 9.62036 2.01134C7.42836 2.01134 5.75636 2.69134 4.60436 4.05134C3.46836 5.41134 2.90036 7.37934 2.90036 9.95534C2.90036 12.8193 3.48436 15.0113 4.65236 16.5313C5.83636 18.0353 7.54836 18.7873 9.78836 18.7873ZM46.5985 14.1073C45.2865 15.4353 43.5505 16.0993 41.3905 16.0993C39.2305 16.0993 37.4865 15.4353 36.1585 14.1073C34.8305 12.7633 34.1665 11.0033 34.1665 8.82734C34.1665 6.65134 34.8305 4.89934 36.1585 3.57134C37.4865 2.24334 39.2305 1.57934 41.3905 1.57934C43.5505 1.57934 45.2865 2.24334 46.5985 3.57134C47.9105 4.89934 48.5665 6.65134 48.5665 8.82734C48.5665 11.0033 47.9105 12.7633 46.5985 14.1073ZM41.4625 15.6673C43.0945 15.6673 44.3345 15.1233 45.1825 14.0353C46.0465 12.9473 46.4785 11.3633 46.4785 9.28334C46.4785 6.91534 46.0305 5.11534 45.1345 3.88334C44.2545 2.63534 42.9745 2.01134 41.2945 2.01134C39.6625 2.01134 38.4145 2.55534 37.5505 3.64334C36.6865 4.73134 36.2545 6.31534 36.2545 8.39534C36.2545 10.7633 36.6945 12.5713 37.5745 13.8193C38.4705 15.0513 39.7665 15.6673 41.4625 15.6673ZM19.7425 19.0273V18.8113H20.5825C21.1585 18.8113 21.5105 18.7313 21.6385 18.5713C21.7825 18.4113 21.8545 17.9953 21.8545 17.3233V3.25934C21.8545 2.68334 21.7825 2.33134 21.6385 2.20334C21.5105 2.05934 21.1585 1.98734 20.5825 1.98734H19.7425V1.77134H25.2385V1.98734H25.0225C24.4465 1.98734 24.0865 2.05134 23.9425 2.17934C23.7985 2.30734 23.7265 2.65134 23.7265 3.21134V8.65934C24.5905 8.65934 25.1105 8.54734 25.2865 8.32334L29.0785 3.54734C29.3665 3.19534 29.5105 2.89134 29.5105 2.63534C29.5105 2.20334 29.0945 1.98734 28.2625 1.98734H28.0465V1.77134H33.4705V1.98734H33.0625C32.4545 1.98734 31.8305 2.12334 31.1905 2.39534C30.5505 2.65134 29.9985 3.06734 29.5345 3.64334L25.7185 8.46734L25.7425 8.56334C26.2865 8.69134 26.7985 8.89934 27.2785 9.18734C27.7585 9.45934 28.2225 9.84334 28.6705 10.3393C29.1345 10.8193 29.5105 11.2513 29.7985 11.6353C30.1025 12.0193 30.4945 12.5553 30.9745 13.2433C31.3585 13.7873 31.6625 14.2193 31.8865 14.5393C32.1265 14.8433 32.4545 15.2433 32.8705 15.7393C33.2865 16.2353 33.6545 16.6353 33.9745 16.9393C34.3105 17.2273 34.7265 17.5553 35.2225 17.9233C35.7185 18.2753 36.2065 18.5473 36.6865 18.7393C37.1825 18.9313 37.7505 19.0913 38.3905 19.2193C39.0305 19.3633 39.6945 19.4353 40.3825 19.4353C41.2465 19.4353 42.1105 19.3313 42.9745 19.1233C43.8385 18.9153 44.5985 18.6513 45.2545 18.3313C45.9105 18.0113 46.4465 17.7233 46.8625 17.4673C47.2945 17.1953 47.6385 16.9553 47.8945 16.7473L48.4225 16.2913L48.5425 16.4593L48.0145 16.9153C47.0385 17.7633 45.7825 18.5153 44.2465 19.1713C42.7105 19.8433 41.1345 20.1793 39.5185 20.1793C38.7025 20.1793 37.9185 20.0913 37.1665 19.9153C36.4305 19.7393 35.7745 19.5313 35.1985 19.2913C34.6225 19.0673 34.0385 18.7393 33.4465 18.3073C32.8545 17.8593 32.3665 17.4593 31.9825 17.1073C31.5985 16.7553 31.1585 16.2833 30.6625 15.6913C30.1825 15.0993 29.8145 14.6353 29.5585 14.2993C29.3025 13.9473 28.9585 13.4593 28.5265 12.8353C28.1425 12.2753 27.8385 11.8513 27.6145 11.5633C27.4065 11.2753 27.1265 10.9313 26.7745 10.5313C26.4385 10.1313 26.1425 9.83534 25.8865 9.64334C25.6465 9.43534 25.3585 9.25934 25.0225 9.11534C24.6865 8.95534 24.3505 8.87534 24.0145 8.87534H23.7265V17.3233C23.7265 17.3393 23.7265 17.3633 23.7265 17.3953C23.7265 17.4113 23.7265 17.4273 23.7265 17.4433C23.7265 18.0513 23.7985 18.4353 23.9425 18.5953C24.1025 18.7393 24.4625 18.8113 25.0225 18.8113H25.8625V19.0273H19.7425ZM49.7425 19.0273V18.8113H50.5825C51.1425 18.8113 51.4945 18.7153 51.6385 18.5233C51.7825 18.3313 51.8545 17.9313 51.8545 17.3233V3.47534C51.8545 2.86734 51.7825 2.46734 51.6385 2.27534C51.4945 2.08334 51.1425 1.98734 50.5825 1.98734H49.7425V1.77134H55.6465V1.98734H55.0225C54.4625 1.98734 54.1025 2.08334 53.9425 2.27534C53.7985 2.46734 53.7265 2.86734 53.7265 3.47534V9.73934H60.3025V3.47534C60.3025 2.86734 60.2225 2.46734 60.0625 2.27534C59.9185 2.08334 59.5665 1.98734 59.0065 1.98734H58.3825V1.77134H64.3105V1.98734H63.4465C62.8865 1.98734 62.5345 2.08334 62.3905 2.27534C62.2465 2.46734 62.1745 2.86734 62.1745 3.47534V17.3233C62.1745 17.9313 62.2465 18.3313 62.3905 18.5233C62.5345 18.7153 62.8865 18.8113 63.4465 18.8113H64.3105V19.0273H58.3825V18.8113H59.0305C59.5905 18.8113 59.9425 18.7153 60.0865 18.5233C60.2305 18.3313 60.3025 17.9313 60.3025 17.3233V10.1713H53.7265V17.3233C53.7265 17.9313 53.7985 18.3313 53.9425 18.5233C54.1025 18.7153 54.4625 18.8113 55.0225 18.8113H55.6465V19.0273H49.7425ZM72.077 19.0273V18.8113H72.917C73.493 18.8113 73.845 18.7473 73.973 18.6193C74.117 18.4913 74.189 18.1393 74.189 17.5633V11.5873H70.637C69.469 11.5873 68.573 11.2753 67.949 10.6513C67.325 10.0273 67.013 9.13134 67.013 7.96334V3.25934C67.013 2.68334 66.941 2.33134 66.797 2.20334C66.669 2.05934 66.317 1.98734 65.741 1.98734H65.117V1.77134H70.109V1.98734H68.501V2.03534C68.645 2.17934 68.717 2.38734 68.717 2.65934V7.77134C68.717 10.0433 69.421 11.1793 70.829 11.1793H74.189V3.23534C74.189 2.65934 74.117 2.30734 73.973 2.17934C73.845 2.05134 73.493 1.98734 72.917 1.98734H72.077V1.77134H78.197V2.03534H77.357C76.781 2.03534 76.421 2.09934 76.277 2.22734C76.133 2.35534 76.061 2.70734 76.061 3.28334V17.5633C76.061 18.1393 76.133 18.4913 76.277 18.6193C76.421 18.7473 76.781 18.8113 77.357 18.8113H78.197V19.0273H72.077ZM78.7994 19.0273V18.8113H79.1834C79.6314 18.8113 80.0714 18.3153 80.5034 17.3233L87.2474 1.77134H89.0954V2.05934C89.0954 2.63534 89.1674 3.09934 89.3114 3.45134L94.9754 17.3233C95.2314 17.9473 95.4394 18.3553 95.5994 18.5473C95.7594 18.7233 96.0234 18.8113 96.3914 18.8113H96.5834V19.0273H91.9994V18.8113H93.8474V18.7633C93.6234 18.6833 93.3754 18.3073 93.1034 17.6353L91.7594 14.3473H82.2554L80.9594 17.3233C80.8794 17.5153 80.8394 17.6993 80.8394 17.8753C80.8394 18.1473 80.9434 18.3713 81.1514 18.5473C81.3594 18.7233 81.6394 18.8113 81.9914 18.8113H83.1674V19.0273H78.7994ZM82.4474 13.9153H91.5914L87.5114 3.90734C87.3834 3.61934 87.3194 3.29934 87.3194 2.94734H87.1034C87.1034 3.13934 87.0074 3.45934 86.8154 3.90734L82.4474 13.9153ZM97.2269 19.0273V18.8113H98.0669C98.6269 18.8113 98.9789 18.7153 99.1229 18.5233C99.2669 18.3313 99.3389 17.9313 99.3389 17.3233V3.47534C99.3389 2.86734 99.2669 2.46734 99.1229 2.27534C98.9789 2.08334 98.6269 1.98734 98.0669 1.98734H97.2269V1.77134H103.131V1.98734H102.507C101.947 1.98734 101.587 2.08334 101.427 2.27534C101.283 2.46734 101.211 2.86734 101.211 3.47534V9.73934H107.787V3.47534C107.787 2.86734 107.707 2.46734 107.547 2.27534C107.403 2.08334 107.051 1.98734 106.491 1.98734H105.867V1.77134H111.795V1.98734H110.931C110.371 1.98734 110.019 2.08334 109.875 2.27534C109.731 2.46734 109.659 2.86734 109.659 3.47534V17.3233C109.659 17.9313 109.731 18.3313 109.875 18.5233C110.019 18.7153 110.371 18.8113 110.931 18.8113H111.795V19.0273H105.867V18.8113H106.515C107.075 18.8113 107.427 18.7153 107.571 18.5233C107.715 18.3313 107.787 17.9313 107.787 17.3233V10.1713H101.211V17.3233C101.211 17.9313 101.283 18.3313 101.427 18.5233C101.587 18.7153 101.947 18.8113 102.507 18.8113H103.131V19.0273H97.2269ZM112.625 19.0273V18.8113H113.465C114.025 18.8113 114.377 18.7153 114.521 18.5233C114.665 18.3313 114.737 17.9313 114.737 17.3233V3.47534C114.737 2.86734 114.665 2.46734 114.521 2.27534C114.377 2.08334 114.025 1.98734 113.465 1.98734H112.625V1.77134H118.529V1.98734H117.905C117.345 1.98734 116.985 2.08334 116.825 2.27534C116.681 2.46734 116.609 2.86734 116.609 3.47534V17.3953L123.425 1.77134H127.193V1.98734H126.329C125.769 1.98734 125.417 2.08334 125.273 2.27534C125.129 2.46734 125.057 2.86734 125.057 3.47534V17.3233C125.057 17.9313 125.129 18.3313 125.273 18.5233C125.417 18.7153 125.769 18.8113 126.329 18.8113H127.193V19.0273H121.265V18.8113H121.913C122.473 18.8113 122.825 18.7153 122.969 18.5233C123.113 18.3313 123.185 17.9313 123.185 17.3233V3.40334L116.369 19.0273H112.625ZM135.776 14.0833H135.56V12.7633C135.56 11.7233 135.328 11.0353 134.864 10.6993C134.416 10.3633 133.784 10.1953 132.968 10.1953H132.008V17.3233C132.008 17.8033 131.832 18.2193 131.48 18.5713V18.5953H136.256C137.424 18.5953 138.288 18.3393 138.848 17.8273C139.424 17.3153 139.752 16.4913 139.832 15.3553L139.976 13.4353H140.36L139.952 19.9393L139.736 19.9153L139.808 18.8113H139.784C139.64 18.9553 139.344 19.0273 138.896 19.0273H128.024V18.8113H128.864C129.44 18.8113 129.792 18.7473 129.92 18.6193C130.064 18.4753 130.136 18.1153 130.136 17.5393V3.25934C130.136 2.68334 130.064 2.33134 129.92 2.20334C129.792 2.05934 129.44 1.98734 128.864 1.98734H128.024V1.77134H137.6C138.048 1.77134 138.344 1.84334 138.488 1.98734H138.512L138.44 0.883343L138.656 0.859343L139.088 7.36334H138.656L138.56 5.68334C138.496 4.41934 138.16 3.52334 137.552 2.99534C136.96 2.46734 136.064 2.20334 134.864 2.20334H131.48V2.22734C131.832 2.57934 132.008 2.99534 132.008 3.47534V9.76334H132.968C133.8 9.76334 134.44 9.60334 134.888 9.28334C135.336 8.94734 135.56 8.25934 135.56 7.21934V6.37934H135.776V14.0833ZM151.217 18.5953H153.953C155.441 18.5953 156.641 18.1793 157.553 17.3473C158.465 16.5153 158.921 15.4113 158.921 14.0353C158.921 12.5953 158.441 11.4113 157.481 10.4833C156.521 9.55534 155.297 9.09134 153.809 9.09134H152.537V8.68334H153.497C154.553 8.68334 155.425 8.37934 156.113 7.77134C156.801 7.16334 157.145 6.38734 157.145 5.44334C157.145 4.46734 156.777 3.68334 156.041 3.09134C155.321 2.49934 154.361 2.20334 153.161 2.20334H151.217V2.22734C151.489 2.49934 151.625 2.91534 151.625 3.47534V17.3233C151.625 17.8673 151.489 18.2753 151.217 18.5473V18.5953ZM147.641 19.0273V18.8113H148.481C149.057 18.8113 149.409 18.7473 149.537 18.6193C149.681 18.4753 149.753 18.1153 149.753 17.5393V3.25934C149.753 2.68334 149.681 2.33134 149.537 2.20334C149.409 2.05934 149.057 1.98734 148.481 1.98734H147.641V1.77134H153.497C155.209 1.77134 156.585 2.10734 157.625 2.77934C158.665 3.43534 159.185 4.30734 159.185 5.39534C159.185 6.13134 158.865 6.84334 158.225 7.53134C157.601 8.20334 156.769 8.61134 155.729 8.75534V8.85134C157.233 8.96334 158.489 9.53934 159.497 10.5793C160.505 11.6193 161.009 12.7713 161.009 14.0353C161.009 15.5073 160.377 16.7073 159.113 17.6353C157.849 18.5633 156.273 19.0273 154.385 19.0273H147.641ZM169.596 14.0833H169.38V12.7633C169.38 11.7233 169.148 11.0353 168.684 10.6993C168.236 10.3633 167.604 10.1953 166.788 10.1953H165.828V17.3233C165.828 17.8033 165.652 18.2193 165.3 18.5713V18.5953H170.076C171.244 18.5953 172.108 18.3393 172.668 17.8273C173.244 17.3153 173.572 16.4913 173.652 15.3553L173.796 13.4353H174.18L173.772 19.9393L173.556 19.9153L173.628 18.8113H173.604C173.46 18.9553 173.164 19.0273 172.716 19.0273H161.844V18.8113H162.684C163.26 18.8113 163.612 18.7473 163.74 18.6193C163.884 18.4753 163.956 18.1153 163.956 17.5393V3.25934C163.956 2.68334 163.884 2.33134 163.74 2.20334C163.612 2.05934 163.26 1.98734 162.684 1.98734H161.844V1.77134H171.42C171.868 1.77134 172.164 1.84334 172.308 1.98734H172.332L172.26 0.883343L172.476 0.859343L172.908 7.36334H172.476L172.38 5.68334C172.316 4.41934 171.98 3.52334 171.372 2.99534C170.78 2.46734 169.884 2.20334 168.684 2.20334H165.3V2.22734C165.652 2.57934 165.828 2.99534 165.828 3.47534V9.76334H166.788C167.62 9.76334 168.26 9.60334 168.708 9.28334C169.156 8.94734 169.38 8.25934 169.38 7.21934V6.37934H169.596V14.0833ZM180.921 19.0273V18.8113H181.761C182.337 18.8113 182.689 18.7473 182.817 18.6193C182.961 18.4913 183.033 18.1393 183.033 17.5633V11.5873H179.481C178.313 11.5873 177.417 11.2753 176.793 10.6513C176.169 10.0273 175.857 9.13134 175.857 7.96334V3.25934C175.857 2.68334 175.785 2.33134 175.641 2.20334C175.513 2.05934 175.161 1.98734 174.585 1.98734H173.961V1.77134H178.953V1.98734H177.345V2.03534C177.489 2.17934 177.561 2.38734 177.561 2.65934V7.77134C177.561 10.0433 178.265 11.1793 179.673 11.1793H183.033V3.23534C183.033 2.65934 182.961 2.30734 182.817 2.17934C182.689 2.05134 182.337 1.98734 181.761 1.98734H180.921V1.77134H187.041V2.03534H186.201C185.625 2.03534 185.265 2.09934 185.121 2.22734C184.977 2.35534 184.905 2.70734 184.905 3.28334V17.5633C184.905 18.1393 184.977 18.4913 185.121 18.6193C185.265 18.7473 185.625 18.8113 186.201 18.8113H187.041V19.0273H180.921ZM195.635 14.0833H195.419V12.7633C195.419 11.7233 195.187 11.0353 194.723 10.6993C194.275 10.3633 193.643 10.1953 192.827 10.1953H191.867V17.3233C191.867 17.8033 191.691 18.2193 191.339 18.5713V18.5953H196.115C197.283 18.5953 198.147 18.3393 198.707 17.8273C199.283 17.3153 199.611 16.4913 199.691 15.3553L199.835 13.4353H200.219L199.811 19.9393L199.595 19.9153L199.667 18.8113H199.643C199.499 18.9553 199.203 19.0273 198.755 19.0273H187.883V18.8113H188.723C189.299 18.8113 189.651 18.7473 189.779 18.6193C189.923 18.4753 189.995 18.1153 189.995 17.5393V3.25934C189.995 2.68334 189.923 2.33134 189.779 2.20334C189.651 2.05934 189.299 1.98734 188.723 1.98734H187.883V1.77134H197.459C197.907 1.77134 198.203 1.84334 198.347 1.98734H198.371L198.299 0.883343L198.515 0.859343L198.947 7.36334H198.515L198.419 5.68334C198.355 4.41934 198.019 3.52334 197.411 2.99534C196.819 2.46734 195.923 2.20334 194.723 2.20334H191.339V2.22734C191.691 2.57934 191.867 2.99534 191.867 3.47534V9.76334H192.827C193.659 9.76334 194.299 9.60334 194.747 9.28334C195.195 8.94734 195.419 8.25934 195.419 7.21934V6.37934H195.635V14.0833ZM204.701 2.22734V2.34734C204.973 2.71534 205.109 3.21134 205.109 3.83534V11.8753H206.453C207.973 11.8753 209.125 11.4673 209.909 10.6513C210.709 9.81934 211.109 8.61934 211.109 7.05134C211.109 5.48334 210.709 4.29134 209.909 3.47534C209.125 2.64334 207.973 2.22734 206.453 2.22734H204.701ZM201.125 19.0273V18.8113H201.965C202.541 18.8113 202.893 18.7473 203.021 18.6193C203.165 18.4753 203.237 18.1153 203.237 17.5393V3.25934C203.237 2.68334 203.165 2.33134 203.021 2.20334C202.893 2.05934 202.541 1.98734 201.965 1.98734H201.125V1.77134H207.173C208.981 1.77134 210.437 2.25934 211.541 3.23534C212.645 4.19534 213.197 5.46734 213.197 7.05134C213.197 8.63534 212.645 9.90734 211.541 10.8673C210.437 11.8273 208.981 12.3073 207.173 12.3073H205.109V17.5393C205.109 18.1153 205.181 18.4753 205.325 18.6193C205.469 18.7473 205.829 18.8113 206.405 18.8113H207.005V19.0273H201.125ZM211.596 19.0273V18.8113H211.98C212.428 18.8113 212.868 18.3153 213.3 17.3233L220.044 1.77134H221.892V2.05934C221.892 2.63534 221.964 3.09934 222.108 3.45134L227.772 17.3233C228.028 17.9473 228.236 18.3553 228.396 18.5473C228.556 18.7233 228.82 18.8113 229.188 18.8113H229.38V19.0273H224.796V18.8113H226.644V18.7633C226.42 18.6833 226.172 18.3073 225.9 17.6353L224.556 14.3473H215.052L213.756 17.3233C213.676 17.5153 213.636 17.6993 213.636 17.8753C213.636 18.1473 213.74 18.3713 213.948 18.5473C214.156 18.7233 214.436 18.8113 214.788 18.8113H215.964V19.0273H211.596ZM215.244 13.9153H224.388L220.308 3.90734C220.18 3.61934 220.116 3.29934 220.116 2.94734H219.9C219.9 3.13934 219.804 3.45934 219.612 3.90734L215.244 13.9153Z" fill="#F2EFEA"></path></svg> 