<?xml version="1.0" encoding="UTF-8"?> <svg xmlns="http://www.w3.org/2000/svg" width="31" height="7" viewBox="0 0 31 7" fill="none"><path d="M1.02027 0.775336C1.09227 1.35134 1.21227 1.87934 1.38027 2.35934C1.38027 2.43134 1.45227 2.57534 1.54827 2.81534C1.64427 2.64734 1.74027 2.43134 1.88427 2.14334C1.88427 2.14334 1.90827 2.09534 1.93227 2.04734L2.00427 1.92734C1.90827 1.68734 1.88427 1.37534 1.88427 1.01534C1.90827 0.823336 1.93227 0.679336 1.98027 0.559336C2.05227 0.343336 2.19627 0.199336 2.38827 0.127336C2.72427 0.0553358 2.96427 0.127336 3.15627 0.343336C3.27627 0.535336 3.32427 0.727336 3.30027 0.943336C3.27627 1.15934 3.20427 1.42334 3.08427 1.71134C3.08427 1.73534 3.06027 1.75934 3.03627 1.78334C3.01227 1.83134 3.01227 1.87934 3.01227 1.87934L2.98827 1.90334V1.92734C3.03627 1.97534 3.06027 2.02334 3.08427 2.04734C3.22827 2.23934 3.42027 2.43134 3.70827 2.62334C4.42827 3.15134 5.22027 3.53534 6.08427 3.75134C7.26027 4.06334 8.53227 4.06334 9.87627 3.75134C11.5563 3.41534 13.3323 2.62334 15.1563 1.37534C15.3963 1.20734 15.6123 1.25534 15.8043 1.49534C15.8523 1.61534 15.8763 1.73534 15.8523 1.85534C15.8283 1.97534 15.7803 2.07134 15.6843 2.11934C13.7403 3.43934 11.8683 4.27934 10.0683 4.66334C8.58027 4.97534 7.16427 4.97534 5.84427 4.63934C4.78827 4.37534 3.90027 3.94334 3.15627 3.34334C2.94027 3.17534 2.74827 3.00734 2.58027 2.83934C2.38827 3.15134 2.26827 3.36734 2.19627 3.48734C2.17227 3.51134 2.14827 3.53534 2.12427 3.55934C2.10027 3.60734 2.07627 3.63134 2.07627 3.63134C1.88427 3.82334 1.69227 3.91934 1.50027 3.89534C1.28427 3.89534 1.09227 3.77534 0.948273 3.58334C0.780273 3.39134 0.636273 3.05534 0.492273 2.62334C0.300273 2.07134 0.180273 1.49534 0.132273 0.895336C0.0842734 0.775336 0.108273 0.655336 0.204273 0.559336C0.276273 0.463336 0.372273 0.415336 0.516273 0.391336C0.612273 0.391336 0.732273 0.415336 0.828273 0.487336C0.924273 0.559336 0.996273 0.655336 1.02027 0.775336ZM15.9762 1.68734C16.1442 1.87934 16.3362 1.99934 16.5522 2.07134C16.7442 2.14334 16.8882 2.14334 17.0322 2.09534C17.0802 2.09534 17.1282 2.04734 17.1762 1.97534C17.1762 1.92734 17.1522 1.80734 17.1042 1.66334C16.9362 1.37534 16.7202 1.27934 16.4802 1.35134C16.2882 1.39934 16.1202 1.51934 15.9762 1.68734ZM15.6402 2.59934C15.6402 2.83934 15.7122 3.07934 15.8562 3.31934C16.1922 3.89534 16.8642 4.35134 17.9202 4.68734C19.7442 5.31134 21.7122 5.31134 23.8002 4.68734C25.7922 4.06334 27.6162 3.00734 29.2482 1.49534C29.4882 1.30334 29.7042 1.30334 29.8962 1.51934C30.0882 1.75934 30.0882 1.97534 29.8722 2.16734C28.0962 3.79934 26.1522 4.92734 24.0642 5.55134C21.8322 6.24734 19.6962 6.24734 17.6322 5.55134C16.4082 5.16734 15.5442 4.59134 15.0642 3.79934C14.6562 3.12734 14.6082 2.43134 14.9202 1.71134C15.1602 1.06334 15.5922 0.655336 16.2162 0.487336C16.9362 0.295336 17.4882 0.535336 17.8962 1.20734C18.0882 1.59134 18.1362 1.95134 18.0162 2.28734C17.8962 2.62334 17.6562 2.86334 17.2962 2.95934C16.7682 3.15134 16.2162 3.03134 15.6402 2.59934Z" fill="#7F1023"></path></svg> 