<?xml version="1.0" encoding="UTF-8"?> <svg xmlns="http://www.w3.org/2000/svg" width="243" height="58" viewBox="0 0 243 58" fill="none"><path d="M22.6445 56.1545C21.8125 56.0905 21.1085 55.8985 20.4045 55.7065C19.8925 55.5785 19.3165 55.5145 18.8045 55.3225L16.1165 54.2345C15.0285 53.7865 14.2605 53.2105 13.1725 52.4425C12.6605 52.0585 12.1485 51.6745 11.7005 51.2905L11.3165 51.8665L10.6765 52.7625C10.6125 52.8905 10.1645 53.4025 9.9085 53.7225L9.0765 54.5545C8.3085 54.2985 7.6685 53.7865 7.1565 53.1465L7.2845 52.6345L7.6045 51.9305L8.3085 51.0345L9.6525 49.1145L10.1005 48.4105L11.8285 46.1065L12.3405 45.4025C12.0205 45.2105 11.8285 45.2105 11.5725 45.1465L9.5245 44.5065C9.1405 44.3145 8.7565 44.1865 8.4365 43.9945L7.0285 43.2905L5.7485 42.3305C4.7885 41.4985 3.7645 40.6665 2.9965 39.5785C2.0365 38.2985 1.5885 37.0185 1.2045 35.5465C1.0765 34.9705 1.0765 34.3945 1.0765 33.8185C0.9485 33.3705 0.9485 32.9225 1.0765 32.5385C1.1405 31.4505 1.4605 30.4265 1.8445 29.3385C2.0365 28.9545 2.2285 28.4425 2.4845 28.1225C2.8045 27.8025 2.7405 27.2905 3.2525 27.0345C3.1885 27.1625 3.1885 27.2265 3.1885 27.2905C3.1885 27.2905 3.1885 27.3545 3.2525 27.3545L3.4445 27.1625C3.9565 26.3945 4.5325 25.6905 5.2365 25.1145C5.7485 24.7305 6.2605 24.2185 6.7725 23.8345C7.3485 23.3225 8.1165 23.0025 8.7565 22.5545C9.0765 22.3625 9.3965 22.1065 9.7805 21.9785C10.2285 21.6585 10.7405 21.5305 11.1245 21.3385L11.5085 21.0825L12.9805 20.4425L13.3645 20.2505V20.0585L10.7405 21.1465C10.6765 21.0825 10.6765 21.0825 10.6765 21.0185C10.8045 20.9545 10.9325 20.9545 10.9965 20.8905L13.5565 19.8025C14.1325 19.4825 14.7085 19.2265 15.2845 18.9705C15.6045 18.8425 15.8605 18.9065 16.1165 18.7145H16.6285C17.7805 18.3945 18.2285 18.2025 19.1245 18.0745C19.8925 17.9465 20.5965 17.8185 21.3645 17.7545C22.1965 17.6905 23.2205 17.6265 24.0525 17.6265C25.2685 17.6265 26.4205 17.6905 27.5085 17.7545C28.2125 17.8185 29.3005 18.0745 29.9405 18.2025L30.0685 18.0745C30.2605 17.6905 30.5165 17.3705 30.7725 17.0505C31.0285 16.7945 31.2205 16.7945 31.4125 17.0505L32.1805 17.4985C32.2445 17.5625 32.4365 17.6265 32.5645 17.6265C32.5645 17.4985 33.0125 17.7545 33.0125 17.8185C33.2045 18.0745 33.3325 18.2025 33.3965 18.3305C33.3965 18.5225 33.1405 19.1625 32.9485 19.4185C33.4605 19.7385 33.9085 19.9305 34.3565 20.2505C34.8685 20.5065 35.3165 20.8265 35.7005 21.1465C36.7245 22.0425 37.6845 23.0025 38.6445 23.9625C39.2205 24.5385 39.6045 25.2425 39.9885 25.8825C40.4365 26.6505 40.9485 27.3545 41.2685 28.1225C41.7165 29.0185 41.9085 30.0425 42.1005 31.0025L42.5485 33.0505C42.6125 33.3705 42.5485 33.4985 42.2925 33.7545C42.4205 33.7545 42.4845 33.7545 42.5485 33.8185C42.6125 33.8185 42.7405 33.8825 42.7405 33.9465C42.7405 33.9465 42.6125 34.0105 42.6125 34.1385C42.5485 34.2025 42.4845 34.3305 42.4845 34.3945C42.7405 34.6505 42.6125 34.9065 42.7405 35.0985C42.7405 35.2905 42.7405 35.4185 42.6125 35.6105C42.9965 36.3145 42.9325 37.0185 42.4205 37.7225C42.8685 37.9145 42.9325 37.9785 42.7405 38.4265C42.7405 38.5545 42.7405 38.6185 42.6125 38.7465L42.4205 39.2585C42.5485 39.3225 42.6125 39.5145 42.3565 39.5785C42.6125 39.8985 42.5485 40.0265 42.2925 40.1545C42.2285 40.1545 42.2285 40.2825 42.1005 40.2825C42.6125 40.6025 42.2285 40.7945 42.2285 41.1145L41.9725 40.8585C41.9725 41.1145 41.9725 41.2425 41.9085 41.4345C41.8445 41.4985 41.7805 41.6265 41.5885 41.6265C41.5245 41.6265 41.4605 41.4985 41.3325 41.4345L41.5245 41.2425C41.8445 41.1145 41.8445 40.7945 41.5885 40.3465C41.7165 40.3465 41.7805 40.3465 41.8445 40.2825C41.8445 40.0905 41.7805 39.7705 41.7805 39.5145L41.9725 39.6425C41.9725 39.5785 42.0365 39.5145 41.9725 39.5145C41.9085 39.1945 41.9725 39.0025 42.0365 38.7465C42.2285 38.4265 42.2285 38.0425 42.2285 37.6585V37.0185C42.2285 36.9545 42.2285 36.8905 42.1005 36.6985H42.0365C41.8445 37.9145 41.7165 39.0025 41.5245 40.1545C41.5245 40.1545 40.2445 43.0985 40.1165 43.5465C40.1165 43.6105 39.0925 45.6585 38.5165 46.4265L37.9405 47.1945L37.4925 47.1305C37.7485 46.7465 38.0685 46.4265 38.1965 46.0425C37.9405 46.1065 38.2605 45.7225 38.3885 45.7865C38.7085 45.4025 39.2845 44.3145 39.7965 43.2265L41.0125 40.2185L40.8205 40.4105C40.6285 40.6665 40.2445 40.7945 40.1805 41.1145C40.1805 41.1785 39.9885 41.1785 39.9885 41.1785C39.9245 41.1785 39.9245 41.1785 39.8605 41.1145C40.1165 40.8585 40.2445 40.6025 40.3725 40.3465C40.3725 40.2825 40.4365 40.2825 40.4365 40.2825C40.4365 39.8345 40.9485 39.5785 40.8205 39.0665C40.7565 38.6825 40.9485 38.2985 41.0125 37.9145C41.1405 37.8505 41.0125 37.6585 41.0125 37.5945C41.2685 36.9545 41.3965 36.2505 41.5245 35.5465C41.5245 35.4185 41.5245 35.2905 41.5885 35.0985H41.4605L41.2685 35.8025C41.1405 36.2505 40.9485 36.6345 40.8845 37.0825C40.7565 37.6585 40.6925 38.2985 40.5005 38.9385C40.4365 39.3225 40.4365 39.7705 40.1165 40.1545C39.9885 40.2185 40.1165 40.3465 39.9885 40.4105C39.9245 40.6025 39.9245 40.7945 39.8605 40.7945C39.5405 40.9225 39.5405 41.3065 39.3485 41.4985C39.5405 41.6905 39.7965 41.7545 39.6045 41.9465C39.4125 42.0105 39.2845 42.2025 39.0925 42.2665C39.2845 42.2025 39.6685 42.1385 39.7965 42.0105C39.7325 42.3945 39.6685 42.7785 39.5405 43.0345C39.3485 43.4185 39.1565 43.7385 39.0285 44.0585C38.8365 44.3145 38.3885 44.4425 38.1965 44.6345C38.1965 44.6345 38.1965 44.5705 38.1325 44.5705C38.2605 44.3145 38.3885 43.9945 38.5805 43.8025C38.5805 43.7385 38.5165 43.7385 38.5165 43.7385C38.3245 44.1225 38.0045 44.3785 38.0045 44.8905C38.0045 44.9545 37.9405 45.0825 37.8125 45.1465C37.4285 45.2105 37.2365 45.6585 37.0445 45.9785L36.1485 47.0665C36.0845 47.0665 36.0845 47.0025 36.0845 47.0025C36.0845 46.9385 36.1485 46.7465 36.2125 46.6825C36.5965 46.1705 37.0445 45.6585 37.3005 45.0825C37.9405 44.0585 38.5165 43.0345 38.9005 41.9465C39.2845 41.3065 39.4125 40.6025 39.6685 39.8985C39.8605 39.2585 39.9885 38.6185 40.1805 37.9785C40.2445 37.5305 40.2445 37.0185 40.3085 36.5065C40.3085 36.2505 40.3725 35.9305 40.4365 35.6105C40.4365 35.4185 40.3085 35.2905 40.3085 35.0985C40.2445 34.6505 40.3085 34.1385 40.2445 33.6265C40.2445 33.0505 40.3085 32.3465 40.1165 31.7705C39.9245 31.2585 40.1165 30.6825 39.7325 30.1705C39.5405 29.7225 39.4125 29.1465 39.2845 28.6345L39.0925 28.1225V27.9305H39.1565L39.4125 28.3145C39.4125 27.9945 39.3485 27.8665 39.0925 27.8025C38.9005 27.7385 38.7085 27.4185 38.5805 27.2265L37.2365 25.0505C37.0445 24.6665 36.7245 24.2825 36.5325 24.0265L36.1485 23.6425C35.4445 23.0025 34.8045 22.3625 34.1005 21.6585C34.0365 21.6585 34.0365 21.5945 33.9725 21.5305C34.4205 21.5945 34.6125 21.9145 34.8685 22.1065C35.2525 22.4265 35.5725 22.6185 35.8925 22.9385C35.8925 22.8105 35.9565 22.6825 35.8925 22.6185L34.7405 21.6585C34.4845 21.5305 34.2925 21.4025 34.1005 21.2105C33.7165 20.7625 33.0125 20.5705 32.5005 20.2505H32.3085C32.5005 20.3785 32.6925 20.5065 32.8205 20.6345V20.7625C32.6285 20.6345 32.3725 20.5065 32.1165 20.4425C31.7965 20.8265 31.6045 21.2105 31.2845 21.6585C30.9005 22.1705 30.5805 22.7465 30.1325 23.3225C29.7485 24.0265 29.3005 24.6665 28.9165 25.3065C28.7245 25.6265 28.5325 25.8185 28.3405 26.0105L28.2125 26.3305C27.9565 26.8425 27.7005 27.4825 27.3805 27.9305C26.9325 28.3145 26.8045 28.8905 26.4845 29.3385L25.2045 31.3225C24.7565 32.1545 24.2445 32.9225 23.7965 33.6905C23.6685 33.9465 23.6045 34.2025 23.2205 34.2665V34.5225C23.0285 34.8425 22.7725 35.0985 22.6445 35.4825C22.5165 35.8665 22.1965 36.1225 22.0045 36.4425C21.7485 36.6345 21.6845 36.8905 21.4925 37.0825C21.3645 37.4025 21.1085 37.5945 20.9805 37.9145C20.7245 38.1065 20.5325 38.4265 20.4045 38.6825L19.5725 40.0265C19.3805 40.3465 19.0605 40.6665 18.8045 40.9225C18.6125 41.2425 18.5485 41.4345 18.4205 41.6905L17.7805 42.3305C17.7165 42.4585 17.7165 42.5865 17.6525 42.7785C17.2685 43.2905 16.8845 43.8025 16.6285 44.3785C16.5645 44.3785 16.5645 44.4425 16.4365 44.5065C18.2285 44.4425 19.8925 44.3785 21.5565 44.1865C21.5565 44.3145 21.5565 44.3145 21.6205 44.3785C21.4285 44.3785 21.1725 44.3785 20.9805 44.4425C20.7245 44.4425 20.5325 44.5065 20.3405 44.5065L20.4045 44.5705C20.9805 44.5065 21.5565 44.5065 22.2605 44.4425C22.1325 44.3785 22.0685 44.3145 22.0045 44.3145V44.1865L23.7965 43.9305C23.7965 43.9945 23.7965 43.9945 23.8605 44.0585C23.3485 44.1225 22.9645 44.1865 22.5165 44.3785V44.4425L23.9245 44.1865L25.4605 43.9945C25.9085 43.9305 26.3565 43.9305 26.8685 43.8665C27.1245 43.8665 27.3805 43.6105 27.7005 43.5465C27.9565 43.4825 28.2125 43.4825 28.5325 43.4185C28.5965 43.4185 28.7245 43.5465 28.8525 43.5465V43.7385L27.4445 43.9305C27.3805 43.9305 27.2525 43.9305 27.1245 43.9945C26.9325 44.3785 26.5485 44.3145 26.2925 44.3785L24.3725 44.8265C23.1565 44.9545 21.9405 45.2105 20.5965 45.2105C19.8285 45.2105 18.9965 45.5945 18.2285 45.5305C17.9725 45.4665 17.8445 45.4665 17.6525 45.4665C17.7165 45.4025 17.7805 45.3385 17.8445 45.3385L17.7805 45.2105C17.2045 45.5945 16.4365 45.3385 15.7965 45.5305L15.6685 45.7865C15.4765 46.1065 15.3485 46.1705 15.0925 46.5545C14.7725 46.8105 14.5805 47.1945 14.3245 47.5145C14.0685 48.0905 13.7485 48.4745 13.3645 49.0505L12.4685 50.2665C12.8525 50.7145 13.3645 51.2905 14.0045 51.7385C14.7085 52.2505 15.7325 52.8265 16.3725 53.1465C17.0765 53.4665 17.8445 53.7225 18.4845 53.9145C19.6365 54.2345 20.4045 54.2985 21.5565 54.2345L23.7325 53.9785C24.3085 53.9145 24.8845 53.9145 25.4605 53.7225C26.1645 53.5945 26.7405 53.4025 27.3805 53.2105C27.5725 53.1465 27.8925 53.2105 28.1485 53.2105V52.9545C28.4685 52.9545 28.6605 52.8905 28.9165 52.8265V52.9545L28.4045 53.1465V53.2105L29.2365 53.0185C29.1725 52.9545 29.1085 52.8905 29.1085 52.8265V52.6345C29.4925 53.0825 29.6845 52.6985 30.0045 52.5705C30.1965 52.4425 30.5165 52.3785 30.7725 52.1865V52.0585C30.4525 52.1865 30.1325 52.3785 29.7485 52.4425C29.6845 52.5065 29.5565 52.5065 29.4925 52.5065L29.6845 52.1865C30.1965 51.8665 30.7085 51.4825 31.2845 51.0985L32.3085 50.4585H32.4365C32.7565 50.7145 32.8845 50.4585 33.1405 50.3305C33.2685 50.2025 33.4605 50.2025 33.6525 50.1385C33.7805 50.0105 33.9085 49.9465 33.9085 49.8185C33.9085 49.6265 34.0365 49.4345 34.2285 49.3705C34.3565 49.2425 34.4205 48.9865 34.6125 48.8585C34.7405 48.7945 34.8685 48.7945 34.9965 48.7945C34.9325 48.8585 34.8685 48.9225 34.8045 49.1145C35.0605 49.1145 35.1245 48.9865 35.3165 48.6025C35.1245 48.6025 34.9965 48.6025 34.8685 48.5385L35.2525 48.1545C35.3805 48.2185 35.4445 48.2825 35.5085 48.4105C35.5085 48.3465 35.5725 48.3465 35.5725 48.3465C35.5725 48.2825 35.5085 48.2825 35.4445 48.1545C35.8925 48.2825 36.0845 48.0905 36.2125 47.7705C36.4045 47.5785 36.5965 47.3865 36.8525 47.2585C36.8525 47.3225 36.9165 47.3225 36.9165 47.3225L36.2125 48.2185V48.3465C36.4685 48.2825 36.6605 48.2825 36.8525 48.2185C36.8525 48.9225 36.2125 49.4985 35.6365 49.2425L36.4685 48.6665C36.0845 48.3465 36.0205 48.3465 35.8925 48.6665C35.8925 48.7305 35.8285 48.7945 35.8285 48.7945C35.6365 48.8585 35.4445 48.9225 35.5085 49.1785C35.5725 49.2425 35.3805 49.3705 35.3165 49.4345C35.4445 49.4985 35.5725 49.4985 35.8925 49.6265C35.4445 49.8825 35.1245 50.2025 34.8685 50.3945C34.8685 50.4585 34.8685 50.4585 34.9325 50.4585C35.4445 50.3305 35.8925 49.8185 36.3405 49.4345C36.7245 49.1785 37.0445 48.6665 37.4925 48.2825C37.4285 48.3465 37.4285 48.4105 37.3005 48.6025L37.9405 48.0905C38.0045 48.0265 37.9405 47.8345 37.9405 47.7065C38.0045 47.7065 38.1325 47.6425 38.1325 47.6425C38.1325 47.5145 38.1325 47.3225 38.1965 47.1945C38.2605 47.0665 38.3885 46.8105 38.6445 47.0025C38.7725 46.7465 38.9005 46.4905 39.0925 46.2985C39.5405 46.0425 39.5405 45.5305 39.8605 45.1465C39.9245 45.0825 40.1165 45.0825 40.1805 45.0185C40.1805 45.0185 40.1805 45.0825 40.2445 45.0825L39.6685 46.1705C39.6685 46.1705 39.6685 46.2345 39.7325 46.2345C39.8605 45.9785 40.1165 45.7225 40.2445 45.5305C40.2445 45.6585 40.1805 45.9145 40.1805 46.1065H39.9885L40.2445 46.2345L39.8605 46.4265C40.2445 46.8105 39.6685 47.0025 39.5405 47.2585L39.2845 47.0025C39.3485 46.7465 39.5405 46.6825 39.7965 46.8105C39.7325 46.6825 39.6685 46.5545 39.5405 46.4265L37.1085 49.3705C37.1725 49.4345 37.3005 49.4985 37.4925 49.6905L37.8125 49.3065C37.9405 49.3065 37.9405 49.3065 38.0045 49.3705C37.8125 49.4985 37.6845 49.6905 37.5565 49.8825L37.4285 49.7545C37.1725 49.8825 36.9805 50.0105 36.7245 50.2665C36.5965 50.3945 36.4685 50.4585 36.2125 50.5865V50.5225L37.1085 49.6265C37.1085 49.4985 37.0445 49.4985 37.0445 49.4345C36.7245 49.6905 36.4685 49.8825 36.1485 50.2025H36.2125C36.0845 50.2665 35.9565 50.2665 35.8925 50.3305C35.5725 50.5225 35.3805 50.7785 35.0605 50.9065C34.6125 51.2265 34.1005 51.4185 33.7165 51.5465C33.3325 51.8025 32.8845 51.9305 32.5005 52.0585C32.3085 52.1865 32.1805 52.3785 32.0525 52.5065C31.8605 52.5705 31.7325 52.8265 31.5405 52.6345C31.5405 52.5705 31.3485 52.6985 31.2845 52.6985V52.8905C31.6045 52.8265 31.8605 52.8905 32.1165 52.6985C32.6925 52.5065 33.2045 52.1865 33.7805 51.9305C33.8445 51.9305 33.8445 51.8665 33.9085 51.8665C34.4845 51.9305 34.8045 51.5465 35.1245 51.2265C35.3805 50.9705 35.7005 50.8425 36.0845 50.7145C36.0205 50.7785 36.0205 50.8425 36.0205 50.9705C36.2125 50.7785 36.5325 50.5865 36.7245 50.4585C36.7245 50.5225 36.7245 50.5225 36.8525 50.5865C36.4685 50.7145 36.3405 51.2265 35.8285 51.0345C35.5085 50.9705 35.3805 51.3545 35.3165 51.5465C34.9965 51.9945 34.7405 52.3785 34.2285 52.5705L32.4365 53.0185L31.5405 53.4665C31.0925 53.6585 30.7085 53.7225 30.1965 53.7225C30.1325 53.6585 30.0685 53.7225 30.0045 53.7865H30.3245L30.4525 53.9145C29.6205 54.0425 28.9165 54.4265 28.0845 54.4265C27.7005 54.4265 27.4445 54.6185 27.0605 54.8105C28.2125 54.7465 29.4285 54.8105 30.5805 54.4905V54.5545C30.0685 54.7465 29.5565 54.8745 28.9805 55.1305C28.7245 55.1305 28.4045 55.0665 28.0205 55.0025C28.0845 55.2585 27.7005 55.3865 27.0605 55.3225L27.7005 55.1305C27.6365 55.1305 27.6365 55.0665 27.6365 55.0665L26.8045 55.3225C26.2285 55.3225 25.5245 55.3225 24.8845 55.2585C25.2045 55.7065 25.7165 55.5145 25.9725 55.6425C25.4605 55.7065 24.8845 55.8985 24.3085 55.7705C24.0525 55.7065 23.6685 55.7705 23.2845 55.7705H22.5165L22.4525 55.8345L23.1565 56.0905V56.1545H22.6445ZM12.6605 44.1225C12.9805 44.1865 13.1725 44.1865 13.3645 43.9945C13.9405 43.0985 14.5165 42.3305 15.0925 41.4985C15.5405 40.9225 15.8605 40.2825 16.3085 39.7065C16.3725 39.5785 16.6285 39.4505 16.6925 39.4505C17.2685 39.4505 17.2685 39.4505 17.5245 39.0025C17.4605 39.0665 17.3325 39.1305 17.2045 39.2585C17.2045 39.1945 17.2045 39.1945 17.1405 39.1945C17.2685 39.0025 17.3325 38.8105 17.3965 38.6185C17.2045 38.8105 16.9485 39.0665 16.8205 39.2585C16.7565 39.2585 16.7565 39.1945 16.7565 39.1945C19.1245 35.4185 21.6205 31.5785 24.1165 27.8025C24.1165 27.8025 24.1805 27.8025 24.1805 27.8665C24.1165 27.9945 24.0525 28.2505 23.8605 28.4425C24.1165 28.3785 24.1805 28.3785 24.2445 28.3785V27.9305C24.3085 27.8665 24.3725 27.7385 24.3085 27.7385C24.1165 27.4185 24.3085 27.2265 24.3725 27.0345L27.0605 22.6825C27.2525 22.4265 27.4445 22.1705 27.6365 21.8505C27.7005 21.9785 27.7005 22.0425 27.7005 22.1065L28.5325 21.0185C28.4045 20.9545 28.3405 20.8905 28.1485 20.8905C28.6605 20.4425 28.5965 19.7385 29.3005 19.4825C27.2525 19.0985 26.0365 18.9705 23.4765 19.2905C22.2605 19.4185 21.4925 19.6745 20.5965 19.8025C19.6365 19.9945 18.8685 20.3785 18.1005 20.6345C17.7805 20.7625 17.5245 20.6985 17.2045 20.8265L16.6925 21.0825C16.4365 21.2105 16.3085 21.3385 16.0525 21.4025C15.6685 21.5945 15.2845 21.6585 14.9645 21.7865C14.3245 22.1705 13.6205 22.3625 13.1725 22.9385C13.1725 23.0025 12.9805 23.0025 12.8525 23.0025C12.6605 23.0665 12.5325 23.1305 12.4685 23.1945L12.0205 23.5145C11.1245 24.0265 10.2285 24.2825 9.3325 25.0505C8.6925 25.5625 7.8605 25.9465 7.2845 26.6505C7.2205 26.7145 7.0925 26.7145 6.9645 26.7785C7.0925 26.5225 7.1565 26.3945 7.2845 26.2665L7.2205 26.2025C6.9645 26.3945 6.6445 26.7145 6.4525 26.9065H6.8365L6.1325 27.8025C5.7485 28.2505 5.3645 28.5705 5.0445 29.0185C4.6605 29.5945 4.4685 30.2345 4.1485 30.8105L3.8285 31.2585L3.5725 30.9385C3.5085 31.0665 3.4445 31.1305 3.3165 31.2585C3.8925 31.4505 3.8925 31.6425 3.5725 32.0905C3.5085 32.2185 3.4445 32.4105 3.5085 32.6665C3.5085 32.9225 3.3805 33.1785 3.0605 33.1145H2.8685C2.8685 33.1145 2.8685 33.1785 2.8045 33.1785C2.9965 33.2425 3.2525 33.3065 3.5085 33.4345L2.9965 33.6905C3.1885 33.8185 3.3165 33.9465 3.3805 34.1385C3.3805 34.3305 3.3805 34.5225 3.3165 34.8425C3.3165 35.0345 3.2525 35.3545 3.2525 35.6105C2.9965 35.4825 2.9325 35.3545 2.8045 35.2265C2.8685 35.5465 2.8685 35.8025 2.9325 36.0585L2.9965 36.1225C2.9965 35.7385 3.2525 35.7385 3.5725 35.8025C3.3805 36.0585 3.2525 36.3785 3.1885 36.6345H3.2525L3.7645 36.8905L3.3165 37.0825C3.8925 37.1465 3.8925 37.1465 3.9565 37.8505V37.9145C4.2765 38.2345 3.9565 38.2345 3.6365 38.2985C3.9565 38.4905 4.2765 38.6185 4.0845 38.9385L4.5965 39.0665C4.5965 39.3225 4.8525 39.5145 4.9165 39.6425C5.0445 39.8345 5.1085 40.0905 5.1725 40.2825C5.4285 40.4105 5.6205 40.6025 5.7485 40.7305C6.0045 40.9225 6.1965 41.3065 6.5165 41.4985C6.8365 41.8825 7.2845 42.1385 7.6685 42.3945L8.6925 42.9065C9.5245 43.2905 10.2925 43.4825 11.0605 43.7385C11.6365 43.8665 12.1485 43.9305 12.6605 44.1225ZM12.6605 19.9945C12.6605 19.9305 12.5965 19.9305 12.5965 19.8665C13.0445 19.7385 13.4285 19.4825 13.7485 19.3545C13.8765 19.3545 13.8765 19.3545 13.8765 19.4185C13.4925 19.5465 13.0445 19.8025 12.6605 19.9945ZM33.8445 21.4665L32.9485 20.8905C32.9485 20.8265 32.9485 20.8265 33.0125 20.7625L33.9085 21.3385C33.9085 21.4025 33.8445 21.4025 33.8445 21.4665ZM9.2685 21.8505C9.2045 21.8505 9.2045 21.7225 9.2045 21.7225L10.1645 21.3385C10.1645 21.3385 10.2285 21.3385 10.2285 21.4025L9.2685 21.8505ZM5.8765 24.2185C5.7485 24.2185 5.7485 24.1545 5.6845 24.1545C6.0685 23.9625 6.3245 23.7065 6.6445 23.4505L6.7725 23.5785C6.4525 23.7705 6.1325 24.0265 5.8765 24.2185ZM4.2765 25.8185C4.2765 25.7545 4.1485 25.7545 4.1485 25.7545C4.4045 25.4345 4.6605 25.1785 4.9165 24.9225C4.9805 24.9225 4.9805 24.9225 4.9805 25.0505C4.7885 25.2425 4.4685 25.5625 4.2765 25.8185ZM40.2445 45.5305L40.5005 44.8265C40.3725 44.8265 40.3085 44.8905 40.1805 44.9545C40.1805 44.8905 40.1165 44.8905 40.1165 44.8905C40.1805 44.6345 40.3085 44.5065 40.3725 44.3145C40.4365 44.1225 40.4365 43.9305 40.4365 43.7385C40.4365 43.4185 40.5005 43.2265 40.8205 43.0345C41.0125 42.9705 41.1405 42.8425 40.8845 42.5865C41.0125 42.5865 41.1405 42.5225 41.2045 42.4585V41.7545C41.4605 41.8185 41.7165 41.8185 41.9085 41.8185C41.9085 41.6905 42.0365 41.4985 42.1005 41.2425C42.1005 41.8825 41.8445 42.3945 41.5245 42.3305V42.3945C41.9085 42.8425 41.4605 43.2905 41.3325 43.6105C41.2045 44.1865 40.8205 44.6985 40.5005 45.2105C40.4365 45.3385 40.3085 45.4025 40.2445 45.5305ZM28.3405 42.7785L29.0445 42.5225C28.9165 42.9065 28.5965 42.9705 28.3405 42.7785ZM29.4925 43.3545V43.2905C29.7485 43.2265 30.0685 43.0345 30.4525 42.9705V43.0985L29.4925 43.3545ZM25.0125 43.8665C24.9485 43.8025 24.9485 43.8025 24.9485 43.7385L26.6125 43.4825V43.5465C26.0365 43.7385 25.5245 43.8025 25.0125 43.8665ZM36.8525 47.1945L36.7245 47.1305C37.0445 46.7465 37.4285 45.6585 37.6845 45.7865C38.0045 45.4665 38.1965 45.0185 38.3245 44.6345L38.7085 44.5065C38.3885 45.0825 38.0045 45.6585 36.8525 47.1945ZM35.2525 47.8345L35.8925 47.1945C35.5725 47.8985 35.5725 47.8985 35.2525 47.8345ZM37.1085 48.0265C37.0445 48.0265 36.9805 47.8985 36.9805 47.8345L37.4285 47.3865C37.4925 47.7065 37.4285 47.8985 37.1085 48.0265ZM38.7085 47.8345C38.7725 47.6425 38.9005 47.5145 39.0285 47.3865L39.2845 47.6425C39.2845 47.7065 39.2845 47.7065 38.7085 47.8345ZM31.1565 54.4265C31.1565 54.4265 31.1565 54.2985 31.0925 54.2985C31.3485 54.1705 31.6045 54.0425 31.8605 53.9785C31.8605 54.0425 31.9245 54.0425 31.9245 54.1065C31.6685 54.1705 31.4125 54.2985 31.1565 54.4265ZM48.5435 46.5545C48.4155 46.5545 48.2235 46.5545 48.0315 46.4905C47.9035 46.3625 47.3915 46.0425 47.0075 45.8505C46.4315 45.0825 46.2395 44.2505 46.4955 43.2905C46.6875 42.8425 46.8155 42.5225 46.9435 42.1385C47.0075 42.0745 47.0075 42.0745 47.0075 42.0105C47.0715 41.6265 47.2635 41.3065 47.3915 40.8585L47.8395 40.0905C48.0955 39.7705 48.2235 39.4505 48.3515 39.3225C49.0555 38.2345 49.8875 37.4665 50.6555 36.5065C51.4235 35.6745 52.5115 34.9065 53.7275 34.7785C55.0715 35.0345 56.6075 35.2905 56.8635 36.7625C57.0555 37.6585 56.5435 38.2345 56.2235 38.8745C56.7355 38.8105 57.1835 38.2985 57.9515 38.3625C58.3355 38.4905 58.5915 38.8105 58.7195 39.2585C58.7195 39.2585 58.7835 39.9625 58.5915 40.4745C58.5275 40.5385 58.5275 40.6665 58.4635 40.7945C58.2715 41.6905 58.2715 42.6505 58.6555 43.5465C58.7195 43.8025 58.9115 44.0585 59.2315 44.2505C59.3595 44.3145 59.4875 44.3145 59.6795 44.2505C59.8715 44.1865 60.1275 44.1865 60.3835 44.0585C61.4075 43.6105 62.4315 42.8425 63.3275 42.2025C64.1595 41.6905 65.1195 41.1145 66.0155 40.4745C67.5515 39.5145 67.4235 39.6425 68.8955 38.6825C69.3435 38.2985 69.8555 37.9785 70.4955 37.5945L70.6875 37.7225L70.1115 38.4905C70.2395 38.8105 70.2395 38.8105 70.6235 38.5545C70.6235 38.4265 70.6235 38.1705 70.9435 38.2985C70.3035 39.2585 69.2795 39.7705 68.4475 40.3465C68.1275 40.6025 67.6795 40.7945 67.4875 40.9225C67.2955 41.1145 67.0395 41.4345 66.7195 41.5625C66.6555 41.6265 66.4635 41.6265 66.2715 41.6905C66.2715 41.6905 66.2715 41.6265 66.2075 41.5625C66.2715 41.5625 66.4635 41.4345 66.5915 41.3065C66.8475 41.1785 66.9755 40.9865 66.9115 40.7305C66.9115 40.6665 66.7835 40.6025 66.7195 40.6025C66.2075 40.8585 65.8875 41.1785 65.4395 41.4985C64.6715 41.8185 64.0955 42.2025 63.4555 42.7145C63.2635 42.7785 63.0715 42.9705 62.8155 43.0345V43.1625C63.0075 43.0985 63.1995 43.0985 63.3275 42.9705C63.5835 42.7785 63.7755 42.7785 63.9675 42.9065C63.9675 42.8425 63.9035 42.7785 63.9035 42.7145C64.3515 42.5225 64.6715 42.5865 65.0555 42.2665C65.4395 42.0105 65.8875 41.8825 66.1435 41.6265C66.1435 41.7545 66.0795 41.9465 65.8875 42.0745C65.3755 42.3305 64.8635 42.7145 64.3515 42.9705C64.2235 43.0345 64.0955 43.1625 63.9675 43.3545C63.8395 43.4825 63.7115 43.5465 63.5195 43.6105C63.7115 43.6745 63.8395 43.6745 63.9675 43.6745L63.9035 43.7385C63.7755 43.8025 63.6475 43.8665 63.4555 43.8665V44.1225C63.7755 43.9305 64.2235 43.7385 64.5435 43.5465V43.6745C64.2235 43.9305 63.7755 44.1865 63.5195 44.5065C63.0075 45.0825 62.4315 45.2105 61.7915 45.6585C61.4075 45.8505 61.2155 45.7865 60.8955 45.9785C60.7675 46.0425 60.4475 46.1705 60.2555 46.1705C60.1915 46.1705 59.8715 46.2985 59.6795 46.2985C59.4235 46.2985 58.8475 46.4265 58.5915 46.3625C58.4635 46.2985 58.0795 46.2985 57.9515 46.1705C57.7595 46.1065 57.6315 45.8505 57.4395 45.7865C57.0555 45.2745 56.6075 45.0185 56.3515 44.4425C55.9675 44.0585 56.0315 43.9305 55.8395 43.6105C55.7115 43.5465 55.7115 43.4185 55.6475 43.2905C55.1995 43.5465 55.1995 44.1865 54.7515 44.1865C54.6235 44.3145 54.5595 44.5065 54.4315 44.5705C53.6635 45.1465 52.6395 45.9785 51.6155 46.4265C50.5915 46.9385 49.5035 46.9385 48.5435 46.5545ZM48.4155 44.6985C49.1195 44.6985 50.2715 44.6345 50.9115 44.3785C51.7435 44.0585 52.3195 43.6105 52.9595 42.9065C53.9195 41.8825 54.3675 41.1145 55.3275 40.0905C55.3915 40.0905 55.6475 39.7705 55.6475 39.7705H55.5835C54.1755 39.6425 54.6875 36.8265 54.7515 36.7625C52.8315 37.0825 50.5915 40.0905 49.8875 41.3065C49.3115 42.3305 48.7355 43.4185 48.4155 44.6985ZM67.4235 40.7945C67.4875 40.7945 67.5515 40.6025 67.5515 40.5385C67.5515 40.2825 67.6795 40.2185 67.8075 40.1545C67.8715 40.0265 68.1275 39.9625 68.3195 39.8985C68.4475 39.8345 68.7035 39.8345 68.8315 39.7705V39.3865C68.9595 39.3225 69.0235 39.1945 69.0875 39.1305C69.0875 39.0665 69.0875 39.0025 69.0235 39.0025C68.8955 39.1305 68.5755 39.3225 68.2555 39.5145C67.8075 39.7705 66.9755 40.3465 66.9115 40.4745C67.0395 40.5385 67.2955 40.6665 67.4235 40.7945ZM88.047 53.2105C87.791 53.3385 86.319 53.3385 85.743 52.8265C85.167 52.5065 84.719 51.8025 84.399 51.0345C84.271 50.4585 83.887 49.6265 83.823 48.7305C83.823 47.8985 83.631 47.0025 83.695 46.3625L83.631 44.9545C83.439 44.8905 83.247 44.9545 82.863 45.2745C82.863 45.4025 82.735 45.4025 82.671 45.4665C81.839 46.2985 80.943 46.9385 80.239 47.7705C79.791 48.3465 79.151 48.5385 78.639 48.9225L78.191 49.3065C77.999 49.3065 77.807 49.2425 77.487 49.1785L76.975 48.3465C76.975 48.5385 76.847 48.6665 76.783 48.8585C76.527 48.9225 76.399 48.7945 76.335 48.5385C76.335 48.4105 76.143 48.4105 76.079 48.2185C76.015 48.0905 75.759 47.9625 75.759 47.8345C75.631 47.1945 74.607 47.0025 75.375 46.4265C75.503 45.5305 75.823 43.6745 75.951 42.7145C76.015 42.6505 75.951 42.5225 75.823 42.3305C75.055 43.2905 74.351 44.1225 74.031 44.5705C73.903 44.6985 73.711 44.7625 73.519 44.8265C73.711 45.2105 73.327 45.4665 73.071 45.7865L72.687 46.6185C72.047 47.5145 71.535 48.4105 70.959 49.3065C70.767 49.6265 70.383 49.7545 70.127 50.0105C69.999 50.0745 69.871 50.2025 69.807 50.3945L69.295 50.7785C68.911 50.5225 68.911 50.0105 68.783 49.7545L68.463 50.2665C68.079 49.7545 67.951 49.1145 68.015 48.4105C68.207 46.2345 68.655 44.1225 69.231 42.0105C69.551 40.7945 69.743 39.5145 70.063 38.2985C70.063 37.9785 70.191 37.6585 70.063 37.4025C69.999 37.2745 70.255 37.0185 70.255 36.8905C70.767 36.9545 70.959 36.9545 71.343 37.0825C71.791 37.2105 72.111 37.3385 72.239 37.9145C72.367 38.5545 72.303 39.2585 72.111 39.8985C71.983 40.7305 71.855 41.5625 71.599 42.4585C71.535 42.9705 70.767 44.9545 70.639 45.6585C70.831 45.5945 70.959 45.5305 71.023 45.4665C71.215 45.0825 71.535 44.6345 72.367 43.2265C72.943 42.5225 73.391 41.5625 74.095 40.8585C74.543 40.4105 74.927 39.8985 75.439 39.5145C75.695 39.3225 75.887 39.3865 76.143 39.5785C76.527 40.0265 77.103 40.2825 77.743 40.0905C77.999 39.9625 78.191 40.0905 78.447 40.0905C78.639 40.5385 78.511 41.0505 78.639 41.5625C78.703 41.6905 78.767 41.9465 78.703 42.1385C78.639 42.7145 78.767 43.2905 78.511 43.8025C78.319 44.3145 78.191 45.7225 78.063 46.4265C78.895 45.7225 79.919 44.6985 80.623 44.1225C81.007 43.8025 81.455 43.4825 81.903 43.2265C82.159 43.0345 82.415 42.9065 82.927 42.4585C83.119 42.3945 83.439 42.3305 83.567 42.4585C84.207 42.6505 84.463 42.9705 85.103 43.2265C85.231 43.3545 85.359 43.4825 85.103 43.4825C85.167 43.6105 85.295 43.8025 85.487 43.8025C86.063 43.8025 86.063 44.4425 85.999 44.8905C86.063 45.0825 86.063 45.4025 86.063 45.7225V46.0425C85.807 46.4265 86.063 46.8745 85.999 47.2585C86.063 47.8345 86.063 48.4105 86.191 48.9225C86.319 49.3065 86.319 49.5625 86.639 50.7785C87.023 51.5465 87.535 51.8665 88.431 51.5465C88.559 51.4185 88.815 51.8665 88.687 52.1225C88.687 52.2505 88.559 52.3145 88.431 52.4425C88.431 52.6345 88.431 52.7625 88.047 53.2105ZM91.4185 46.5545C91.2905 46.5545 91.0985 46.5545 90.9065 46.4905C90.7785 46.3625 90.2665 46.0425 89.8825 45.8505C89.3065 45.0825 89.1145 44.2505 89.3705 43.2905C89.5625 42.8425 89.6905 42.5225 89.8185 42.1385C89.8825 42.0745 89.8825 42.0745 89.8825 42.0105C89.9465 41.6265 90.1385 41.3065 90.2665 40.8585L90.7145 40.0905C90.9705 39.7705 91.0985 39.4505 91.2265 39.3225C91.9305 38.2345 92.7625 37.4665 93.5305 36.5065C94.2985 35.6745 95.3865 34.9065 96.6025 34.7785C97.9465 35.0345 99.4825 35.2905 99.7385 36.7625C99.9305 37.6585 99.4185 38.2345 99.0985 38.8745C99.6105 38.8105 100.059 38.2985 100.827 38.3625C101.211 38.4905 101.467 38.8105 101.595 39.2585C101.595 39.2585 101.659 39.9625 101.467 40.4745C101.403 40.5385 101.403 40.6665 101.339 40.7945C101.147 41.6905 101.147 42.6505 101.531 43.5465C101.595 43.8025 101.787 44.0585 102.107 44.2505C102.235 44.3145 102.363 44.3145 102.555 44.2505C102.747 44.1865 103.003 44.1865 103.259 44.0585C104.283 43.6105 105.307 42.8425 106.203 42.2025C107.035 41.6905 107.995 41.1145 108.891 40.4745C110.427 39.5145 110.299 39.6425 111.771 38.6825C112.219 38.2985 112.731 37.9785 113.371 37.5945L113.563 37.7225L112.987 38.4905C113.115 38.8105 113.115 38.8105 113.499 38.5545C113.499 38.4265 113.499 38.1705 113.819 38.2985C113.179 39.2585 112.155 39.7705 111.323 40.3465C111.003 40.6025 110.555 40.7945 110.363 40.9225C110.171 41.1145 109.915 41.4345 109.595 41.5625C109.531 41.6265 109.339 41.6265 109.147 41.6905C109.147 41.6905 109.147 41.6265 109.083 41.5625C109.147 41.5625 109.339 41.4345 109.467 41.3065C109.723 41.1785 109.851 40.9865 109.787 40.7305C109.787 40.6665 109.659 40.6025 109.595 40.6025C109.083 40.8585 108.763 41.1785 108.315 41.4985C107.547 41.8185 106.971 42.2025 106.331 42.7145C106.139 42.7785 105.947 42.9705 105.691 43.0345V43.1625C105.883 43.0985 106.075 43.0985 106.203 42.9705C106.458 42.7785 106.651 42.7785 106.843 42.9065C106.843 42.8425 106.779 42.7785 106.779 42.7145C107.227 42.5225 107.547 42.5865 107.931 42.2665C108.315 42.0105 108.763 41.8825 109.019 41.6265C109.019 41.7545 108.955 41.9465 108.763 42.0745C108.251 42.3305 107.739 42.7145 107.227 42.9705C107.099 43.0345 106.971 43.1625 106.843 43.3545C106.715 43.4825 106.587 43.5465 106.395 43.6105C106.587 43.6745 106.715 43.6745 106.843 43.6745L106.779 43.7385C106.651 43.8025 106.523 43.8665 106.331 43.8665V44.1225C106.651 43.9305 107.099 43.7385 107.419 43.5465V43.6745C107.099 43.9305 106.651 44.1865 106.395 44.5065C105.883 45.0825 105.307 45.2105 104.667 45.6585C104.283 45.8505 104.091 45.7865 103.771 45.9785C103.643 46.0425 103.323 46.1705 103.131 46.1705C103.067 46.1705 102.747 46.2985 102.555 46.2985C102.299 46.2985 101.723 46.4265 101.467 46.3625C101.339 46.2985 100.955 46.2985 100.827 46.1705C100.635 46.1065 100.507 45.8505 100.315 45.7865C99.9305 45.2745 99.4825 45.0185 99.2265 44.4425C98.8425 44.0585 98.9065 43.9305 98.7145 43.6105C98.5865 43.5465 98.5865 43.4185 98.5225 43.2905C98.0745 43.5465 98.0745 44.1865 97.6265 44.1865C97.4985 44.3145 97.4345 44.5065 97.3065 44.5705C96.5385 45.1465 95.5145 45.9785 94.4905 46.4265C93.4665 46.9385 92.3785 46.9385 91.4185 46.5545ZM91.2905 44.6985C91.9945 44.6985 93.1465 44.6345 93.7865 44.3785C94.6185 44.0585 95.1945 43.6105 95.8345 42.9065C96.7945 41.8825 97.2425 41.1145 98.2025 40.0905C98.2665 40.0905 98.5225 39.7705 98.5225 39.7705H98.4585C97.0505 39.6425 97.5625 36.8265 97.6265 36.7625C95.7065 37.0825 93.4665 40.0905 92.7625 41.3065C92.1865 42.3305 91.6105 43.4185 91.2905 44.6985ZM110.299 40.7945C110.363 40.7945 110.427 40.6025 110.427 40.5385C110.427 40.2825 110.555 40.2185 110.683 40.1545C110.747 40.0265 111.003 39.9625 111.195 39.8985C111.323 39.8345 111.579 39.8345 111.707 39.7705V39.3865C111.835 39.3225 111.899 39.1945 111.963 39.1305C111.963 39.0665 111.963 39.0025 111.899 39.0025C111.771 39.1305 111.451 39.3225 111.131 39.5145C110.683 39.7705 109.851 40.3465 109.787 40.4745C109.915 40.5385 110.171 40.6665 110.299 40.7945ZM134.442 57.4345C133.994 57.7545 133.866 57.4985 133.738 57.3705C132.906 56.5385 132.65 55.4505 132.65 54.1705C132.586 51.9945 133.226 49.8825 134.058 47.7065C134.698 46.2985 135.274 44.8265 135.978 43.4185C136.17 42.8425 136.618 42.2665 137.002 41.6265C137.322 41.6905 137.514 41.7545 137.642 41.8825C138.474 40.9865 139.05 40.0265 139.434 38.9385C140.138 38.4905 140.33 37.9785 140.586 37.3385L139.882 37.9785L139.114 38.2985C139.434 37.6585 139.754 37.0825 140.394 36.6985C140.394 36.8905 140.522 37.0825 140.522 37.3385L141.098 36.6985C141.226 36.5065 141.482 36.3145 141.738 36.0585C142.826 34.5865 143.978 33.1785 145.13 31.7065C145.258 31.5785 145.13 31.2585 145.194 31.0665C144.81 31.2585 144.554 31.5785 144.234 31.8345C144.042 32.0905 143.594 32.6665 143.21 32.8585C143.146 33.1785 143.082 33.4985 142.89 33.7545C142.634 34.2025 142.186 34.6505 141.674 34.7145C142.954 32.6665 143.338 32.4105 145.706 29.2745L146.282 28.6345C147.434 27.5465 148.202 26.0745 149.29 24.9865C151.146 23.0665 153.002 21.0825 154.986 19.3545C155.114 19.2265 155.37 19.1625 155.434 18.9705C156.522 17.8185 157.61 17.6905 158.762 18.0745C159.018 18.1385 159.146 18.2025 159.402 18.2025C159.85 19.2265 159.53 20.3145 159.338 21.4025L157.226 29.8505C157.098 30.4905 156.906 31.1305 156.906 31.7065C156.842 32.4105 156.714 33.1785 156.394 33.9465C156.33 34.1385 156.33 34.2665 156.33 34.4585C155.946 35.2905 156.906 36.0585 156.01 36.8905C156.01 37.6585 155.946 38.4905 155.946 39.2585C155.882 40.4745 155.946 41.6265 155.754 42.8425C155.69 43.4825 155.754 44.1865 155.754 44.8905C155.818 46.8105 156.138 48.6665 156.778 50.3305C158.122 52.5065 159.594 53.2745 161.706 52.9545C163.37 52.6985 163.818 52.5065 165.482 51.8665C165.546 51.7385 165.802 51.7385 166.058 51.7385C165.162 53.2105 163.626 53.7865 161.834 54.1705C160.362 54.4905 158.57 54.4905 156.65 53.0825C155.498 52.2505 154.794 51.0985 154.218 49.6905C153.386 47.6425 153.322 45.2745 153.45 42.9065C153.642 38.1705 153.962 33.3705 154.986 28.5065C155.306 26.5865 155.69 24.6025 156.074 22.6185C156.202 22.4905 156.074 22.3625 155.946 22.0425C155.498 22.5545 154.986 23.0025 154.474 23.3225C153.898 23.6425 153.642 24.2185 153.194 24.6025C152.106 25.8825 150.698 27.2265 149.546 28.5065C147.69 30.5545 146.026 32.6025 144.298 34.7785C143.594 35.7385 142.954 36.6985 142.314 37.6585C141.866 38.2985 141.674 38.9385 140.97 39.2585C140.778 39.3865 140.714 39.7065 140.65 39.8985C140.138 40.6665 139.754 41.4345 139.178 42.1385C138.922 42.5225 138.346 42.8425 137.898 43.1625C137.77 43.5465 138.282 43.8665 137.77 44.1865H137.834C137.77 44.5705 137.578 44.9545 137.194 45.1465L136.874 45.3385C137.194 46.1705 136.234 46.2985 135.914 46.7465C135.786 46.9385 135.722 47.0665 135.722 47.1945C135.914 47.3225 136.17 47.4505 136.298 47.7065C136.426 47.8345 136.298 48.0905 136.234 48.2825C136.106 48.7945 135.594 48.6665 135.338 48.7305C134.698 49.5625 134.442 50.4585 134.186 51.4185C134.186 51.6745 134.058 51.9945 134.186 52.1865C134.57 52.6345 134.314 53.1465 134.25 53.5305C133.802 55.0025 134.058 56.2825 134.442 57.4345ZM147.754 28.4425C148.138 28.1225 148.586 27.7385 148.842 27.0345C148.458 27.2265 148.202 27.2905 148.138 27.4185L147.754 28.4425ZM146.986 29.0825C147.37 29.0185 147.562 28.7625 147.69 28.5065C147.05 28.5065 147.05 28.5065 146.986 29.0825ZM146.602 29.7865C146.666 29.5945 146.858 29.3385 146.922 29.1465C146.602 29.2745 146.538 29.5305 146.602 29.7865ZM145.386 31.0665C145.962 30.8105 146.218 30.4265 146.538 29.9145C146.346 29.9145 146.09 29.9785 145.834 29.9145L145.578 30.3625C145.514 30.5545 145.45 30.6185 145.258 30.9385L145.386 31.0665ZM140.842 36.0585C140.97 35.4825 141.29 35.1625 141.674 34.7785C141.674 35.4825 141.482 35.6105 140.842 36.0585ZM140.394 36.6985C140.522 36.4425 140.714 36.2505 140.842 36.0585C140.906 36.1865 140.97 36.4425 141.098 36.6985H140.394ZM137.578 41.1145C137.514 41.0505 137.45 40.9225 137.45 40.8585C138.026 40.0265 138.282 39.0665 139.114 38.2985C139.178 38.4905 139.306 38.7465 139.306 39.0025C138.986 39.4505 138.538 40.0265 138.282 40.4745C138.026 40.7945 137.962 41.1145 137.578 41.1145ZM175.388 48.9225C174.172 48.7305 173.212 48.3465 172.508 47.2585C171.804 46.1705 171.612 44.8905 171.804 43.6105L171.868 43.1625C171.548 43.1625 170.908 43.2905 170.716 43.0985H170.076C169.5 43.0345 168.732 43.0345 168.348 43.0345L167.964 44.1865L167.26 47.3225C167.26 47.8985 167.132 48.4745 166.748 48.7305C166.364 48.6665 166.108 48.7305 165.852 48.5385C165.084 48.2825 164.892 48.0265 164.828 47.7065L164.956 46.2345C165.084 45.5945 165.212 44.9545 165.468 44.2505C165.98 42.0745 165.916 42.2025 167.196 37.4665C167.26 37.0185 167.452 36.3145 167.452 35.9945C167.516 35.1625 167.836 33.7545 168.348 33.5625C168.796 33.5625 169.436 33.7545 169.82 34.0105C170.396 34.5225 170.076 35.3545 169.756 36.7625L169.564 37.8505C169.308 38.6185 168.796 40.5385 168.796 41.0505C169.052 41.1145 169.756 41.0505 170.14 41.0505L170.78 41.1145C171.42 41.1785 172.06 41.1145 172.444 41.1785C172.892 39.9625 173.532 38.8105 174.492 37.7865C174.556 37.5305 175.324 36.6985 176.156 36.6985C177.436 36.5705 178.46 35.8025 179.868 36.1225C180.635 36.3145 181.276 36.7625 181.724 37.4665C182.492 38.4265 183.003 39.6425 182.94 41.1145C183.068 42.3305 182.94 43.0985 182.172 44.5705C181.532 45.7865 180.892 46.8105 179.612 47.7705C178.652 48.7305 176.86 49.1785 175.388 48.9225ZM167.452 39.3865L167.708 39.3225C167.964 38.5545 168.22 37.3385 168.604 36.1225C168.54 36.1865 168.54 36.1865 168.476 36.1865C168.028 37.3385 167.772 38.5545 167.452 39.3865ZM168.476 39.1305L168.732 39.0665L168.988 38.6185C169.116 38.2345 169.116 37.8505 169.244 37.4025V37.1465H168.924C168.732 38.1065 168.476 38.7465 168.476 39.1305ZM173.724 41.0505C173.916 40.5385 174.108 40.0905 174.492 39.5145C174.812 39.0665 175.196 38.7465 175.26 38.4905L175.58 38.2345L176.028 37.6585C176.028 37.5945 176.22 37.5305 176.22 37.3385C176.092 37.4665 176.028 37.4665 175.836 37.5305C175.324 38.2345 175.068 38.1705 174.556 38.8745C174.364 39.1945 173.788 40.0905 173.404 40.9865L173.724 41.0505ZM175.9 47.3225C176.796 47.1945 177.372 47.0025 178.012 46.6185C179.228 45.6585 180.06 44.3785 180.635 42.8425C181.02 41.6905 181.02 40.4105 180.7 39.1305C180.444 38.6185 180.316 37.9785 179.548 37.6585H178.588C177.628 37.8505 176.988 38.8105 176.796 39.8985C176.668 40.5385 176.86 41.1145 177.18 41.6905C176.476 41.4985 175.58 41.1785 175.388 40.0905C174.62 40.9865 174.172 41.7545 173.916 43.3545C173.788 44.1225 173.724 44.8905 173.852 45.4665C173.98 46.6185 174.748 47.3225 175.9 47.3225ZM167.9 41.0505H168.284L168.348 40.4745L168.476 39.8345L168.284 39.7705C168.22 39.8985 168.22 40.0265 168.22 40.1545C168.156 40.4105 168.156 40.3465 168.028 40.6025H168.156L167.9 41.0505ZM165.596 46.8105C166.044 46.8105 166.299 46.4265 166.172 46.0425C166.364 45.5945 166.748 45.1465 166.684 44.3785C166.876 43.8665 167.004 43.0345 167.324 42.5225C167.388 42.0745 167.26 41.7545 167.196 41.2425C167.388 40.9225 167.516 40.2825 167.58 39.8345H167.516C167.452 39.8985 167.452 40.0265 167.388 40.0905C166.94 41.2425 166.684 42.5865 166.299 43.7385L166.556 43.9945C166.492 44.1225 166.556 44.3785 166.364 44.5705C166.236 44.7625 166.299 44.8905 166.299 45.2745V45.4025C166.044 45.6585 165.98 46.2345 165.596 46.8105ZM180.06 45.9785C180.956 45.4665 182.3 42.9705 182.236 41.7545C181.468 43.6105 180.764 45.2745 180.06 45.9785ZM170.268 42.6505H171.548L171.612 42.4585C171.164 42.4585 170.524 42.5225 170.012 42.3945C169.884 42.3945 169.82 42.3945 169.82 42.4585C169.756 42.5225 168.86 42.4585 168.54 42.3945V42.5865H168.86C169.244 42.7145 169.948 42.5865 170.268 42.6505ZM178.396 47.7065C178.588 47.7065 179.292 47.3865 179.292 47.1945C179.42 47.1945 179.484 47.0665 179.612 46.9385L179.484 46.8745C179.42 46.8745 179.292 46.8745 179.228 46.9385C179.164 47.0665 178.396 47.4505 178.396 47.7065ZM190.391 49.4345C189.303 49.1785 188.215 49.1785 187.319 48.4745C185.399 47.0025 185.335 45.0825 185.975 43.0985C186.551 41.5625 187.319 40.0265 188.663 38.7465C190.391 37.1465 192.311 36.6345 194.551 37.0825C194.999 37.2105 195.319 37.5305 195.639 37.7865C195.959 38.0425 195.831 38.4265 195.319 38.4265C194.935 38.4265 194.487 38.3625 194.103 38.2345C193.399 38.0425 193.399 38.0425 192.823 38.5545C192.503 38.9385 192.119 39.2585 191.735 39.5785C190.391 40.2825 189.495 41.4345 188.791 42.7145C188.279 43.6105 187.767 44.6345 187.703 45.5945C187.703 46.1705 187.767 46.6825 187.959 47.2585C188.151 47.8985 189.111 48.2825 189.879 48.0265C190.519 47.8985 191.159 47.5785 191.799 47.1305C193.591 45.8505 194.487 44.1225 195.383 42.2025C196.151 40.3465 196.599 38.8105 196.599 36.8905C196.599 35.6105 196.215 33.6265 195.895 32.4745C195.703 31.5145 195.511 31.1305 195.063 29.7225C194.231 27.2265 193.335 25.1785 192.503 23.5145C192.055 22.5545 191.479 21.6585 191.415 21.4665C191.095 20.9545 190.775 20.3785 190.519 19.8665C190.391 19.4185 190.071 19.1625 189.495 18.9705C187.319 18.1385 185.335 16.8585 183.607 15.2585C183.351 15.0665 183.287 14.6825 183.095 14.4265C183.991 13.5945 184.887 13.6585 185.783 13.9785C187.575 14.6185 189.111 15.5145 190.455 16.8585C190.839 17.2425 191.415 17.3065 192.055 17.4985C193.335 17.5625 194.551 17.8185 195.831 17.8185C198.199 17.8825 198.775 17.8185 201.975 17.3065C203.063 17.1145 204.151 16.6665 205.175 16.3465L205.111 16.7305C204.791 16.9865 204.279 16.9225 203.895 17.0505C203.575 17.1785 203.703 17.4345 203.511 17.5625C203.191 17.7545 202.871 17.8825 202.423 18.1385C202.615 18.3945 202.743 18.2665 202.871 18.4585C202.679 18.5225 197.111 19.6105 193.399 19.5465C193.591 19.9305 193.847 20.5705 193.975 21.0185C194.231 21.5305 194.807 22.6825 195.447 24.3465C196.023 25.8825 197.239 28.3145 197.687 30.0425C198.455 32.6665 198.839 34.8425 199.031 35.7385C199.159 36.6345 198.967 38.0425 198.967 39.0665L199.159 39.7065C199.159 39.7705 198.839 39.8345 198.839 39.8985C198.647 40.4745 198.455 41.0505 198.327 41.6265C198.135 42.5865 197.623 43.3545 197.175 44.1225C196.663 44.9545 196.087 45.8505 195.255 46.4905C195.127 46.6185 195.127 46.9385 194.999 47.1945C194.807 47.4505 194.615 47.8345 194.423 47.9625C193.463 48.5385 191.735 49.1785 190.519 49.4345C190.455 49.4345 190.455 49.4985 190.391 49.4345ZM203.767 17.8185C203.767 17.6905 204.343 17.4985 204.343 17.2425C204.663 17.1785 204.983 17.1145 205.239 17.6265C204.919 17.6905 204.087 17.7545 203.767 17.8185ZM192.567 22.4905C192.631 22.1705 192.695 22.0425 192.695 21.9145L191.735 19.7385L191.415 19.4825C191.287 19.4825 191.223 19.5465 191.159 19.5465C191.223 20.3145 191.991 21.0185 192.247 21.7865C192.247 21.9785 192.375 22.1065 192.567 22.4905ZM196.599 42.0745C196.663 41.9465 196.727 41.8825 196.727 41.7545C197.303 40.0905 197.367 39.0665 197.495 37.7225C197.623 36.5705 197.367 31.8985 196.407 30.0425L196.151 30.1065C197.047 32.2825 197.367 35.2905 197.303 37.0185C197.239 38.8745 197.111 40.1545 196.279 42.0105C196.471 42.0745 196.535 42.0745 196.599 42.0745ZM226.465 2.45855C226.977 3.29055 227.297 3.67455 227.105 4.69854C226.913 5.65855 226.849 6.68254 226.529 7.70655C226.273 8.85854 225.697 9.88255 225.249 11.0345C224.929 11.8665 224.353 12.7625 223.905 13.5945C223.329 14.7465 222.753 15.7705 222.049 16.7305C221.601 17.5625 221.025 18.2665 220.449 18.9705C219.809 19.8025 218.977 20.5705 218.465 21.4025C217.825 22.0425 217.312 22.5545 216.865 23.2585C215.905 24.1545 215.009 25.1145 214.177 25.9465C213.281 26.7145 212.321 27.4185 211.425 28.1225C210.785 28.5705 210.209 29.1465 209.76 29.5305C209.057 29.9145 208.609 30.1065 208.033 30.3625C207.713 30.6825 207.137 32.5385 207.265 32.6025C207.009 33.6265 206.689 36.1225 206.497 37.0825C206.497 37.0825 206.689 37.0825 206.753 37.0185C207.201 36.5705 207.649 36.1225 208.225 35.6745C208.417 35.6105 208.737 35.4825 208.993 35.3545C209.76 35.0985 210.529 35.1625 211.297 35.2905C212.449 35.3545 213.281 35.6745 214.305 36.1865C215.585 36.9545 215.841 37.4665 215.457 38.9385C215.137 40.9865 214.049 42.5225 213.089 43.9945C212.449 44.6985 211.937 45.4025 211.169 46.1065C210.145 47.0025 209.312 48.2185 207.969 48.6025C207.521 48.7305 207.201 48.9865 206.753 48.9865C205.473 48.9225 204.641 48.2185 204.449 46.9385C204.385 46.1705 204.193 45.5305 204.065 44.8905C204.065 44.3785 204.065 43.8025 203.937 43.2265C203.937 42.8425 203.809 42.5865 203.809 42.2665C203.873 41.4345 203.937 40.6665 203.809 39.8985C203.873 38.7465 204.129 38.3625 204.193 37.2105C204.257 37.0825 204.257 36.5065 204.385 36.2505C204.449 36.1865 204.513 35.8665 204.513 35.8025C204.641 35.4185 204.769 33.3705 204.833 32.9865C204.577 33.1145 203.937 33.4985 203.809 33.6265C203.361 33.9465 202.657 34.5225 202.337 34.3945C201.889 34.0745 201.889 33.0505 201.953 32.4745C202.017 31.8345 202.337 31.7065 202.657 31.5785C203.361 31.0025 203.681 30.8745 204.001 30.4905C204.385 30.3625 204.513 30.1065 204.961 29.9145C205.089 29.7225 205.153 29.2745 205.217 29.0185C205.281 28.8905 205.281 28.7625 205.409 28.5065H205.536L205.665 27.6105C205.665 26.9065 206.177 25.8825 206.433 25.8185C206.049 25.3065 206.433 24.7945 206.497 24.3465C206.881 23.3865 207.201 22.4905 207.521 21.5305C207.969 20.4425 208.609 19.3545 208.993 18.2025C209.569 16.9865 210.145 15.5785 210.785 14.2985C211.297 13.2105 211.937 12.1225 212.577 11.0345C212.833 10.3945 213.281 9.69054 213.793 8.98655C214.241 8.09055 214.881 7.25854 215.521 6.29855C216.609 4.82655 217.953 3.54654 219.297 2.26654C220.513 1.49855 221.857 0.602543 223.201 0.858543C224.097 1.11454 224.929 1.37054 225.633 1.81855C226.081 1.94654 226.337 2.13855 226.465 2.45855ZM218.208 7.19455C217.825 7.83455 217.377 8.60255 216.801 9.30655C216.481 10.0745 215.905 10.9065 215.393 11.5465C215.073 12.1865 214.753 12.5705 214.433 13.3385C213.985 14.2345 213.473 15.1945 213.153 15.9625C212.321 17.3065 211.553 18.5865 211.105 20.4425C211.041 20.6985 210.849 20.8265 210.657 21.2745C210.849 21.7225 210.337 21.6585 210.209 21.7225C210.273 21.9145 210.593 22.1705 210.337 22.4265C210.081 23.2585 209.697 24.0905 209.569 24.7945C209.185 25.5625 208.801 26.3945 208.545 27.0345H208.609C208.801 26.9705 208.865 26.9065 209.057 26.7785C210.401 25.5625 211.681 24.4105 213.025 23.0665C213.985 22.1705 214.753 21.2745 215.457 20.3145C216.865 18.7785 218.145 17.3065 219.297 15.6425C220.769 13.3385 222.369 10.9065 223.393 8.21854C223.841 6.87455 224.161 5.65855 224.097 4.31454C224.161 4.12254 224.033 3.73854 223.969 3.48254C223.713 3.16254 223.457 2.90654 222.689 3.03455C222.241 3.22654 222.049 3.29055 221.537 3.73854C220.257 4.50655 220.065 4.95454 219.105 5.85054L218.208 7.19455ZM207.457 26.0745C207.521 25.8185 207.521 25.3065 207.457 24.9225C207.905 23.8985 208.289 23.0025 208.609 22.0425C208.737 21.2745 209.249 20.4425 209.697 19.6105C210.017 18.7145 210.337 17.9465 210.72 16.9865C211.169 16.4105 211.425 15.5785 211.873 14.8745L212.129 14.2985C212.193 14.1705 212.257 14.1705 212.385 14.1705L212.257 13.9785L212.385 13.9145L212.833 13.2745C212.961 12.8905 213.345 12.5065 213.537 12.1865L213.857 11.2265C214.049 11.0345 214.241 10.7145 214.369 10.3945H214.177C214.305 10.2665 214.369 10.0745 214.433 10.0105C214.561 9.94654 214.561 9.81855 214.561 9.75454C214.625 9.69054 214.625 9.56255 214.561 9.56255C214.689 9.56255 214.881 9.49855 215.137 9.56255V9.43454L214.689 9.30655C214.753 9.11454 214.945 8.92255 215.009 8.79454C215.137 8.85854 215.201 8.85854 215.265 8.92255C215.329 8.60255 215.457 8.34655 215.457 8.15454H215.905C215.841 8.02655 215.777 7.89854 215.713 7.89854C215.905 7.83455 216.097 7.77055 216.161 7.70655C216.481 7.19455 216.609 6.68254 216.929 6.23455C217.121 5.97855 217.121 5.97855 216.865 5.59454C216.801 5.78654 216.673 5.85054 216.609 5.97855C216.737 5.97855 216.801 5.97855 216.865 6.10654C216.801 6.10654 216.737 6.10654 216.545 6.23455L216.673 6.42654C216.545 6.42654 216.417 6.49054 216.225 6.49054C216.097 6.68254 216.097 6.74654 216.033 6.81055L215.713 7.51455C215.329 7.96254 215.009 8.53854 214.817 9.05054C214.369 9.69054 213.793 10.3945 213.601 11.0345C213.345 11.4825 212.897 12.1225 212.769 12.7625L212.641 12.8265C212.513 13.1465 212.257 13.5305 211.745 14.5545C211.361 15.1945 211.169 15.7065 210.849 16.4105C210.401 17.1785 210.017 17.8825 209.889 18.5865C209.505 19.2905 208.929 20.1225 208.737 20.9545C208.417 21.4665 208.417 22.0425 208.161 22.6825C208.033 23.0665 207.777 23.7065 207.649 24.2185C207.521 24.4745 207.521 24.7305 207.457 24.9225C207.457 25.3065 207.137 25.7545 207.457 26.0745ZM224.417 8.41055C224.545 8.02655 224.737 7.57854 224.801 7.13055H224.673C224.609 7.57854 224.417 8.02655 224.353 8.41055H224.417ZM224.161 11.2265C224.225 10.9065 224.353 10.3945 224.545 10.2025H224.417C224.353 10.3305 224.225 10.3945 224.225 10.3945C223.969 10.9065 223.905 11.2905 223.713 11.4825C223.009 12.5705 222.305 13.5945 221.601 14.7465C221.217 15.0665 220.001 16.6665 219.617 17.1145C219.297 17.3705 218.721 17.8185 218.401 18.2025C217.889 18.7145 217.249 19.4825 216.865 19.9945C215.969 20.8905 215.137 21.9145 214.241 22.8745C214.113 23.0025 213.857 23.0665 213.665 23.1945C213.665 23.7705 213.153 23.8985 212.897 24.0905C212.193 24.7945 211.745 25.5625 210.849 26.2665C210.401 26.6505 210.145 26.9705 209.377 27.4825C208.929 28.1225 208.673 28.1865 208.097 28.8265C208.545 28.6985 208.737 29.2745 209.057 29.0185C209.569 28.7625 210.209 28.4425 210.465 28.0585C211.041 27.8025 211.233 26.9065 211.553 26.3305L211.617 26.2665C212.001 25.9465 212.449 25.5625 213.281 25.8825C213.537 25.6265 213.793 25.5625 214.049 25.3705C214.305 25.3065 214.625 25.1785 214.817 24.8585C215.009 24.5385 214.625 23.1305 215.457 23.1945V23.1305C215.457 23.1305 215.393 23.0665 215.393 23.1305C215.457 22.7465 215.649 22.4905 215.777 22.3625C216.097 21.9785 216.417 21.5945 217.249 21.7225C217.185 21.2745 217.76 21.7225 217.889 21.4665C218.017 21.2105 218.208 21.0825 218.273 20.8905C218.721 19.5465 219.297 18.8425 220.257 18.7145C220.321 18.5225 220.321 18.0105 220.961 18.2025C220.321 17.8185 221.089 17.6265 221.153 17.3065C221.025 17.2425 220.961 17.2425 220.897 17.1785C221.025 16.8585 221.025 16.4745 221.409 16.2185C221.921 15.1305 222.177 13.5305 223.073 13.2105C223.265 12.7625 223.777 12.3145 223.905 11.8665C224.033 11.8025 224.097 11.6745 224.097 11.6745C223.841 11.4185 224.097 11.3545 224.161 11.2265ZM206.881 39.8345C206.625 40.0905 206.305 40.3465 206.369 41.0505L206.177 43.2905V43.3545C206.241 44.2505 206.241 45.4025 206.305 46.2985C206.497 46.6185 206.945 46.7465 207.009 46.5545C207.777 45.9145 208.545 45.2745 209.249 44.5705C210.081 43.6105 210.72 42.6505 211.617 41.7545C212.065 40.9865 212.705 39.5785 212.897 38.6825C213.089 38.0425 212.577 37.5305 212.065 37.2105C211.809 37.0825 211.425 37.0185 210.977 37.1465H210.849C209.697 37.3385 209.121 37.7865 208.289 38.6185C208.161 38.7465 207.009 39.5785 206.881 39.8345ZM213.089 42.1385C213.409 41.0505 214.369 40.2825 214.049 39.0025C213.665 39.6425 213.345 40.4105 212.897 41.0505C212.513 41.8185 211.873 42.5225 211.425 43.2905C212.321 43.2905 212.385 42.1385 213.089 42.1385ZM241.907 41.8185C241.971 41.6905 242.227 41.7545 242.483 41.7545C242.163 42.1385 241.651 42.3945 241.587 43.0345L241.331 43.1625C241.587 43.6105 241.075 43.6745 240.883 43.8025C240.563 43.9305 240.755 44.1865 240.499 44.3145C240.563 44.3785 240.627 44.4425 240.883 44.5065C240.627 44.5065 240.499 44.5705 240.371 44.5705C240.051 44.5705 239.923 44.8265 239.859 45.1465C239.859 45.4665 239.411 45.8505 239.091 45.8505C238.963 45.8505 238.771 45.9145 238.643 46.0425C238.771 46.1705 238.771 46.2345 238.771 46.2985L237.939 46.8745C237.939 46.9385 237.939 46.9385 238.003 47.0025C238.195 46.8745 238.259 46.8105 238.451 46.7465C238.451 46.8105 238.515 46.8105 238.515 46.8105C237.747 47.7705 236.851 47.9625 235.699 48.0265C235.827 48.1545 235.827 48.2185 235.955 48.3465C235.315 48.2185 234.931 48.8585 234.419 48.5385C234.227 48.4745 234.099 48.5385 233.907 48.4745C233.587 48.3465 233.331 48.2185 233.075 48.2185C232.883 48.0905 232.627 47.9625 232.435 47.8985C232.179 47.7705 231.859 47.6425 231.859 47.5145C231.603 47.1305 231.283 46.9385 230.899 46.8105C230.259 46.5545 230.067 46.0425 229.875 45.5305C229.747 45.3385 229.619 45.2105 229.555 45.0825C229.299 44.6985 229.171 44.3145 228.979 43.9305C229.043 43.8025 228.979 43.7385 228.851 43.5465L227.891 44.5065H227.827C227.827 44.4425 227.891 44.3785 227.891 44.2505C227.763 44.1225 226.803 45.0825 226.611 45.4025C226.547 45.5305 226.547 45.5945 226.483 45.5945C226.419 45.7225 226.227 45.8505 226.163 45.9145C225.715 46.4905 225.395 47.1305 224.755 47.4505C223.859 47.8345 223.091 48.4105 222.131 48.4745C221.427 48.5385 221.043 48.3465 220.786 47.7065C220.723 47.6425 220.723 47.5785 220.723 47.4505C220.659 47.5785 220.595 47.7065 220.595 47.7705C220.723 47.8985 220.467 47.7065 220.339 47.5785C220.147 47.3225 219.827 47.0665 219.635 46.6825C218.995 45.4665 219.059 44.6985 219.379 43.6105C219.891 41.7545 221.683 39.7705 221.491 39.3225C220.851 39.5145 220.339 39.5785 220.147 39.3865C219.891 38.9385 219.635 38.6185 219.699 38.2985C219.827 38.0425 220.083 37.9145 220.275 37.7865C220.531 37.5945 220.851 37.4025 221.235 37.2745C221.747 37.1465 222.195 37.1465 222.643 37.2745C222.963 37.5305 223.475 37.6585 223.667 37.9785C224.179 38.8745 223.795 39.7705 223.091 41.3705C222.771 42.1385 222.067 43.4825 221.875 43.9305C221.619 44.5065 221.363 45.4025 221.875 45.7225C222.259 45.9145 222.771 45.7865 223.155 45.5305C224.051 45.0185 224.371 44.5705 224.883 44.1225C225.587 43.4825 226.099 42.8425 226.803 42.1385C227.443 41.4985 228.019 40.7305 228.659 40.0905C229.043 39.7065 229.363 39.2585 229.747 38.8745C229.811 38.7465 230.067 38.6825 230.131 38.4905C230.259 39.0025 230.387 38.6825 230.643 38.5545C230.963 38.4905 231.219 38.4905 231.475 38.4905C231.475 38.5545 231.539 38.5545 231.539 38.6185L231.219 38.8105C231.219 38.8745 231.219 38.8745 231.155 38.9385C231.603 39.0665 232.115 39.0665 232.627 39.1945C232.627 39.3225 232.562 39.3865 232.435 39.3865C232.499 39.3865 232.499 39.4505 232.499 39.4505C232.947 39.5145 233.01 39.7065 232.883 40.0905C232.562 40.4745 232.371 40.9225 232.243 41.4345C231.731 42.6505 231.539 43.9305 231.859 45.2105C231.923 45.4665 231.987 45.6585 232.115 45.8505C232.819 46.5545 234.547 46.1065 235.635 45.5945C236.339 45.2745 236.979 44.8265 237.619 44.3785C238.835 43.5465 240.051 42.6505 241.203 41.6905L242.099 40.8585C242.099 40.7945 242.227 40.7945 242.291 40.7945C242.355 40.7945 242.419 40.8585 242.355 40.9225L241.267 42.0745C241.523 42.1385 241.715 42.0745 241.907 41.8185ZM227.507 42.0105C228.275 41.7545 229.683 40.0905 229.619 39.7065C228.915 40.5385 228.275 41.2425 227.507 42.0105ZM221.811 42.3305C221.491 42.5865 221.491 42.5865 221.811 42.7145C221.939 42.3305 222.899 40.6665 223.155 40.0265C222.707 40.1545 221.875 41.6265 221.939 41.9465C221.875 42.0745 221.811 42.2025 221.811 42.3305ZM228.915 42.1385C229.299 41.7545 229.555 41.4345 229.299 41.0505C229.235 41.1145 229.235 41.1785 229.107 41.3065C229.043 41.4985 228.915 41.7545 228.787 41.9465C228.787 42.0105 228.659 42.0105 228.595 42.0745V41.8185C228.339 42.0105 228.211 42.1385 227.955 42.3945C228.403 42.4585 228.659 42.4585 228.915 42.1385ZM240.627 43.2905C240.755 43.1625 240.947 43.0345 241.011 42.9065L240.883 42.1385L238.771 43.9945C238.835 43.9945 238.835 43.9945 238.899 44.0585C239.411 43.6745 239.923 43.1625 240.435 42.7145C240.435 42.7785 240.435 42.7785 240.499 42.7785C240.243 43.1625 239.923 43.4825 239.475 43.9305L239.923 43.8025L240.627 43.2905ZM223.539 45.7865C224.051 45.7865 225.651 44.8905 225.715 44.5065C225.075 44.8905 224.243 45.3385 223.539 45.7865ZM237.427 45.2105L238.003 45.0185C237.811 44.8905 237.683 44.7625 237.619 44.7625C237.555 44.8265 237.427 44.9545 237.299 45.0185C237.363 45.1465 237.427 45.0825 237.427 45.2105ZM220.595 47.1945V47.2585C220.595 47.1945 220.595 47.1945 220.595 47.1945Z" fill="#272727"></path></svg> 