<?xml version="1.0" encoding="UTF-8"?> <svg xmlns="http://www.w3.org/2000/svg" width="172" height="23" viewBox="0 0 172 23" fill="none"><path d="M3.67934 10.7014C2.26334 10.4614 1.27934 9.64541 0.727336 8.30141C0.271336 7.14941 0.223336 5.90141 0.583336 4.53341C0.919336 3.16541 1.59134 2.15741 2.55134 1.48541C3.67934 0.741414 4.90334 0.741414 6.19934 1.50941C6.96734 1.94141 7.42334 2.97341 7.61534 4.55741C7.71134 5.80541 7.66334 7.36541 7.42334 9.23741C7.25534 10.4854 6.96734 12.0694 6.58334 13.9894C6.27134 15.3814 5.98334 16.4134 5.74334 17.1334C5.50334 17.8054 5.21534 18.4774 4.83134 19.1014C6.51134 18.3814 8.28734 17.9734 10.1113 17.8774C11.1193 17.8774 12.1273 17.9494 13.1593 18.0934C13.8793 18.1894 14.7433 18.3814 15.7753 18.6694L17.0713 19.0294C17.6953 19.1974 18.0793 19.2934 18.1753 19.2934C18.8233 19.4374 19.3033 19.4614 19.6153 19.3654C19.8793 19.2694 20.0713 19.3414 20.1913 19.6294C20.2393 19.7494 20.2153 19.8694 20.1673 19.9894C20.1193 20.1094 20.0233 20.1814 19.9273 20.2054C19.4473 20.3974 18.7993 20.3734 17.9833 20.1814C17.7193 20.1334 17.3353 20.0374 16.8313 19.8934C16.1593 19.7254 15.7273 19.6054 15.5353 19.5574C14.6953 19.3174 13.8553 19.1254 13.0153 18.9814C11.9833 18.8374 11.0233 18.7894 10.1353 18.7894C7.78334 18.8854 5.55134 19.5814 3.43934 20.8774C3.19934 21.0214 2.98334 20.9974 2.81534 20.7814C2.64734 20.5654 2.67134 20.3494 2.86334 20.1574C2.86334 20.1574 2.88734 20.1574 2.88734 20.1334L2.95934 20.0614C2.95934 20.0614 3.00734 20.0134 3.07934 19.9414C3.12734 19.8694 3.17534 19.8214 3.22334 19.7734C3.60734 19.2934 3.87134 18.9094 4.03934 18.6694C4.39934 18.0934 4.68734 17.4694 4.87934 16.8454C5.14334 16.0294 5.40734 15.0214 5.67134 13.7734C6.03134 12.2134 6.31934 10.6534 6.51134 9.11741C6.75134 7.43741 6.79934 5.94941 6.70334 4.65341C6.55934 3.38141 6.24734 2.58941 5.74334 2.27741C4.75934 1.72541 3.87134 1.70141 3.05534 2.22941C2.28734 2.75741 1.75934 3.59741 1.47134 4.74941C1.15934 5.97341 1.20734 7.05341 1.59134 7.96541C1.97534 8.99741 2.74334 9.59741 3.84734 9.78941C3.96734 9.83741 4.06334 9.90941 4.13534 10.0054C4.18334 10.1014 4.20734 10.2214 4.20734 10.3174C4.15934 10.6054 3.96734 10.7494 3.67934 10.7014ZM14.1259 12.7174C13.9819 12.5014 13.8139 12.2134 13.6699 11.8534C13.5979 11.6854 13.5979 11.4454 13.6459 11.1094C13.5979 11.1574 13.5259 11.2054 13.4779 11.3014C13.3339 11.5174 13.2859 11.7814 13.3339 12.0934C13.3819 12.4054 13.5019 12.5974 13.7179 12.6694C13.8619 12.7174 13.9819 12.7414 14.1259 12.7174ZM14.9899 12.3574C15.1819 12.1654 15.2539 11.8294 15.1819 11.3734C15.1579 11.1814 15.0859 11.0374 14.9659 10.8934C14.9179 10.8454 14.8459 10.8454 14.7739 10.8454C14.7739 10.8694 14.7499 10.8694 14.7499 10.8694L14.7019 10.9174L14.5819 11.1574C14.5339 11.3014 14.5339 11.3734 14.5339 11.4214V11.5174C14.6299 11.8294 14.7979 12.1174 14.9899 12.3574ZM14.1499 10.1734C14.2699 10.0774 14.3659 10.0294 14.4619 10.0054C14.9179 9.86141 15.3019 9.93341 15.5899 10.2454C15.8059 10.4374 15.9739 10.7734 16.0939 11.2054C16.2139 11.9734 16.0459 12.5974 15.6139 13.0294C15.9499 13.3174 16.3579 13.5334 16.8139 13.7254C17.8699 14.2054 19.1179 14.3734 20.6059 14.2774C22.0459 14.2054 23.4859 13.8694 24.9019 13.2934C26.2939 12.7174 27.4699 11.9734 28.3819 11.0854C28.5979 10.8694 28.8139 10.8694 29.0299 11.0854C29.2219 11.2774 29.2219 11.4934 29.0299 11.7334C28.0219 12.6934 26.7739 13.4854 25.2619 14.1094C23.7499 14.7334 22.2139 15.0934 20.6779 15.1894C19.0459 15.2854 17.6539 15.0934 16.4539 14.5654C15.8059 14.3254 15.2539 13.9654 14.7739 13.4854C14.2219 13.7014 13.7419 13.7014 13.3579 13.5094C12.8299 13.2934 12.5419 12.8854 12.4459 12.2614C12.3499 11.7334 12.4219 11.2294 12.7099 10.7974C13.0459 10.2934 13.5259 10.0774 14.1499 10.1734ZM29.1531 10.6054C29.2251 11.1814 29.3451 11.7094 29.5131 12.1894C29.5131 12.2614 29.5851 12.4054 29.6811 12.6454C29.7771 12.4774 29.8731 12.2614 30.0171 11.9734C30.0171 11.9734 30.0411 11.9254 30.0651 11.8774L30.1371 11.7574C30.0411 11.5174 30.0171 11.2054 30.0171 10.8454C30.0411 10.6534 30.0651 10.5094 30.1131 10.3894C30.1851 10.1734 30.3291 10.0294 30.5211 9.95741C30.8571 9.88541 31.0971 9.95741 31.2891 10.1734C31.4091 10.3654 31.4571 10.5574 31.4331 10.7734C31.4091 10.9894 31.3371 11.2534 31.2171 11.5414C31.2171 11.5654 31.1931 11.5894 31.1691 11.6134C31.1451 11.6614 31.1451 11.7094 31.1451 11.7094L31.1211 11.7334V11.7574C31.1691 11.8054 31.1931 11.8534 31.2171 11.8774C31.3611 12.0694 31.5531 12.2614 31.8411 12.4534C32.5611 12.9814 33.3531 13.3654 34.2171 13.5814C35.3931 13.8934 36.6651 13.8934 38.0091 13.5814C39.6891 13.2454 41.4651 12.4534 43.2891 11.2054C43.5291 11.0374 43.7451 11.0854 43.9371 11.3254C43.9851 11.4454 44.0091 11.5654 43.9851 11.6854C43.9611 11.8054 43.9131 11.9014 43.8171 11.9494C41.8731 13.2694 40.0011 14.1094 38.2011 14.4934C36.7131 14.8054 35.2971 14.8054 33.9771 14.4694C32.9211 14.2054 32.0331 13.7734 31.2891 13.1734C31.0731 13.0054 30.8811 12.8374 30.7131 12.6694C30.5211 12.9814 30.4011 13.1974 30.3291 13.3174C30.3051 13.3414 30.2811 13.3654 30.2571 13.3894C30.2331 13.4374 30.2091 13.4614 30.2091 13.4614C30.0171 13.6534 29.8251 13.7494 29.6331 13.7254C29.4171 13.7254 29.2251 13.6054 29.0811 13.4134C28.9131 13.2214 28.7691 12.8854 28.6251 12.4534C28.4331 11.9014 28.3131 11.3254 28.2651 10.7254C28.2171 10.6054 28.2411 10.4854 28.3371 10.3894C28.4091 10.2934 28.5051 10.2454 28.6491 10.2214C28.7451 10.2214 28.8651 10.2454 28.9611 10.3174C29.0571 10.3894 29.1291 10.4854 29.1531 10.6054ZM44.109 11.5174C44.277 11.7094 44.469 11.8294 44.685 11.9014C44.877 11.9734 45.021 11.9734 45.165 11.9254C45.213 11.9254 45.261 11.8774 45.309 11.8054C45.309 11.7574 45.285 11.6374 45.237 11.4934C45.069 11.2054 44.853 11.1094 44.613 11.1814C44.421 11.2294 44.253 11.3494 44.109 11.5174ZM43.773 12.4294C43.773 12.6694 43.845 12.9094 43.989 13.1494C44.325 13.7254 44.997 14.1814 46.053 14.5174C47.877 15.1414 49.845 15.1414 51.933 14.5174C53.925 13.8934 55.749 12.8374 57.381 11.3254C57.621 11.1334 57.837 11.1334 58.029 11.3494C58.221 11.5894 58.221 11.8054 58.005 11.9974C56.229 13.6294 54.285 14.7574 52.197 15.3814C49.965 16.0774 47.829 16.0774 45.765 15.3814C44.541 14.9974 43.677 14.4214 43.197 13.6294C42.789 12.9574 42.741 12.2614 43.053 11.5414C43.293 10.8934 43.725 10.4854 44.349 10.3174C45.069 10.1254 45.621 10.3654 46.029 11.0374C46.221 11.4214 46.269 11.7814 46.149 12.1174C46.029 12.4534 45.789 12.6934 45.429 12.7894C44.901 12.9814 44.349 12.8614 43.773 12.4294ZM72.6516 15.5494C71.8596 15.4054 71.2116 15.2374 70.7076 14.9974C70.2276 14.7574 69.8916 14.5654 69.6516 14.3734C69.4116 16.5094 69.3396 18.1894 69.4356 19.3894C69.5556 20.9254 69.8436 21.7414 70.2996 21.8134C71.0676 21.9574 71.6676 21.5254 72.1476 20.5174C72.6276 19.4374 72.8436 18.1414 72.7716 16.6294C72.7236 16.1734 72.6996 15.8134 72.6516 15.5494ZM72.4596 14.5894C72.2676 13.8694 72.0036 13.2454 71.6676 12.7414C71.2356 12.0694 70.6836 11.6134 70.0356 11.4214C69.8916 12.3094 69.8196 12.9334 69.7956 13.2934C70.1796 13.6774 70.6116 13.9654 71.0916 14.1574C71.4756 14.3494 71.9316 14.4934 72.4596 14.5894ZM69.0276 12.1174C69.0516 11.7814 69.0756 11.5174 69.1236 11.3494C69.0996 11.3494 69.0756 11.3734 69.0516 11.3734C69.0036 11.3734 68.9796 11.3734 68.9796 11.3734C68.9316 11.4214 68.9316 11.4454 68.9316 11.4694C68.8836 11.5654 68.8596 11.6854 68.9076 11.7814C68.9076 11.8294 68.9556 11.9494 69.0276 12.1174ZM73.3236 4.94141C72.8436 4.53341 72.4836 4.36541 72.1956 4.43741C71.9076 4.48541 71.6436 4.77341 71.4036 5.27741C70.8996 6.21341 70.4916 7.84541 70.2036 10.1494C70.1556 10.2934 70.1556 10.4134 70.1556 10.5094C71.0436 10.7254 71.8116 11.3014 72.4356 12.2374C72.8676 12.9334 73.2036 13.7734 73.4436 14.7334C73.9236 14.7814 74.4276 14.7814 75.0036 14.7334C76.4916 14.6374 77.9556 14.3014 79.3956 13.6774C80.8356 13.0534 81.9636 12.2854 82.8036 11.3494C82.9956 11.1574 83.2116 11.1334 83.4516 11.3254C83.6676 11.5174 83.6676 11.7334 83.4756 11.9734C82.5636 12.9814 81.3396 13.8214 79.8036 14.4934C78.2676 15.1654 76.6836 15.5494 75.0516 15.6454C74.5476 15.6694 74.0676 15.6694 73.5876 15.6454C73.6116 15.8614 73.6356 16.1734 73.6836 16.5814C73.7556 18.3334 73.5156 19.7734 72.9636 20.9014C72.2916 22.3414 71.3316 22.9414 70.1316 22.7014C69.6036 22.6054 69.1956 22.2214 68.9316 21.5494C68.7396 21.1174 68.5956 20.4214 68.5236 19.4614C68.4276 17.8294 68.5236 15.8854 68.8356 13.5814C68.4996 13.1974 68.2116 12.6694 68.0196 12.0454C67.9476 11.7574 67.9716 11.4694 68.0676 11.1574C68.2116 10.7494 68.4756 10.5094 68.8596 10.4614C68.8836 10.4614 68.9316 10.4614 69.0276 10.4614C69.1236 10.4614 69.1956 10.4374 69.2436 10.4374C69.2436 10.3894 69.2436 10.3414 69.2436 10.2454C69.2436 10.1494 69.2676 10.0774 69.2916 10.0294C69.6276 7.58141 70.0596 5.85341 70.5876 4.86941C70.9716 4.10141 71.4756 3.64541 72.0516 3.52541C72.6276 3.42941 73.2516 3.66941 73.9476 4.29341C74.1636 4.50941 74.1636 4.72541 73.9716 4.91741C73.7556 5.15741 73.5396 5.18141 73.3236 4.94141ZM84.4384 12.7174C84.2944 12.5014 84.1264 12.2134 83.9824 11.8534C83.9104 11.6854 83.9104 11.4454 83.9584 11.1094C83.9104 11.1574 83.8384 11.2054 83.7904 11.3014C83.6464 11.5174 83.5984 11.7814 83.6464 12.0934C83.6944 12.4054 83.8144 12.5974 84.0304 12.6694C84.1744 12.7174 84.2944 12.7414 84.4384 12.7174ZM85.3024 12.3574C85.4944 12.1654 85.5664 11.8294 85.4944 11.3734C85.4704 11.1814 85.3984 11.0374 85.2784 10.8934C85.2304 10.8454 85.1584 10.8454 85.0864 10.8454C85.0864 10.8694 85.0624 10.8694 85.0624 10.8694L85.0144 10.9174L84.8944 11.1574C84.8464 11.3014 84.8464 11.3734 84.8464 11.4214V11.5174C84.9424 11.8294 85.1104 12.1174 85.3024 12.3574ZM84.4624 10.1734C84.5824 10.0774 84.6784 10.0294 84.7744 10.0054C85.2304 9.86141 85.6144 9.93341 85.9024 10.2454C86.1184 10.4374 86.2864 10.7734 86.4064 11.2054C86.5264 11.9734 86.3584 12.5974 85.9264 13.0294C86.2624 13.3174 86.6704 13.5334 87.1264 13.7254C88.1824 14.2054 89.4304 14.3734 90.9184 14.2774C92.3584 14.2054 93.7984 13.8694 95.2144 13.2934C96.6064 12.7174 97.7824 11.9734 98.6944 11.0854C98.9104 10.8694 99.1264 10.8694 99.3424 11.0854C99.5344 11.2774 99.5344 11.4934 99.3424 11.7334C98.3344 12.6934 97.0864 13.4854 95.5744 14.1094C94.0624 14.7334 92.5264 15.0934 90.9904 15.1894C89.3584 15.2854 87.9664 15.0934 86.7664 14.5654C86.1184 14.3254 85.5664 13.9654 85.0864 13.4854C84.5344 13.7014 84.0544 13.7014 83.6704 13.5094C83.1424 13.2934 82.8544 12.8854 82.7584 12.2614C82.6624 11.7334 82.7344 11.2294 83.0224 10.7974C83.3584 10.2934 83.8384 10.0774 84.4624 10.1734ZM101.794 10.5094C101.842 12.0454 102.274 13.1254 103.138 13.7494C103.858 14.2774 104.89 14.4694 106.234 14.2774C107.386 14.1334 108.682 13.7494 110.074 13.0774C111.25 12.5494 112.282 11.9014 113.17 11.1814C113.41 10.9894 113.626 11.0134 113.818 11.2534C113.986 11.4934 113.962 11.7094 113.746 11.8774C112.882 12.5974 111.802 13.2934 110.458 13.9174C108.97 14.6134 107.602 15.0454 106.354 15.1894C104.794 15.3814 103.546 15.1654 102.61 14.4934C101.65 13.8214 101.074 12.7174 100.93 11.2054C100.69 11.2294 100.45 11.2294 100.21 11.2054C100.162 11.2054 100.114 11.1814 100.066 11.1814C100.018 11.1814 99.9696 11.1814 99.9456 11.1574C99.8976 11.2054 99.8496 11.2774 99.8016 11.3734C99.7536 11.4694 99.7056 11.5174 99.6816 11.5414C99.4896 11.7814 99.2976 11.8294 99.0576 11.6374C98.7936 11.4694 98.7456 11.2534 98.9376 11.0134L99.1296 10.7254C99.1296 10.7254 99.1056 10.7014 99.0816 10.6534C99.0336 10.6294 99.0336 10.6054 99.0336 10.5814C98.8896 10.3654 98.8656 10.1494 98.9376 9.90941C99.0096 9.69341 99.1536 9.54941 99.3936 9.45341C99.6336 9.35741 99.8496 9.38141 100.042 9.57341C100.234 9.76541 100.306 9.98141 100.258 10.2454V10.2934H100.33C100.618 10.3414 100.834 10.3414 100.978 10.2454C101.05 10.1494 101.17 10.0774 101.314 10.0774C101.434 10.0774 101.53 10.1014 101.626 10.1974C101.722 10.2934 101.77 10.3894 101.794 10.5094ZM114 11.5174C114.168 11.7094 114.36 11.8294 114.576 11.9014C114.768 11.9734 114.912 11.9734 115.056 11.9254C115.104 11.9254 115.152 11.8774 115.2 11.8054C115.2 11.7574 115.176 11.6374 115.128 11.4934C114.96 11.2054 114.744 11.1094 114.504 11.1814C114.312 11.2294 114.144 11.3494 114 11.5174ZM113.664 12.4294C113.664 12.6694 113.736 12.9094 113.88 13.1494C114.216 13.7254 114.888 14.1814 115.944 14.5174C117.768 15.1414 119.736 15.1414 121.824 14.5174C123.816 13.8934 125.64 12.8374 127.272 11.3254C127.512 11.1334 127.728 11.1334 127.92 11.3494C128.112 11.5894 128.112 11.8054 127.896 11.9974C126.12 13.6294 124.176 14.7574 122.088 15.3814C119.856 16.0774 117.72 16.0774 115.656 15.3814C114.432 14.9974 113.568 14.4214 113.088 13.6294C112.68 12.9574 112.632 12.2614 112.944 11.5414C113.184 10.8934 113.616 10.4854 114.24 10.3174C114.96 10.1254 115.512 10.3654 115.92 11.0374C116.112 11.4214 116.16 11.7814 116.04 12.1174C115.92 12.4534 115.68 12.6934 115.32 12.7894C114.792 12.9814 114.24 12.8614 113.664 12.4294ZM128.012 10.6054C128.084 11.1814 128.204 11.7094 128.372 12.1894C128.372 12.2614 128.444 12.4054 128.54 12.6454C128.636 12.4774 128.732 12.2614 128.876 11.9734C128.876 11.9734 128.9 11.9254 128.924 11.8774L128.996 11.7574C128.9 11.5174 128.876 11.2054 128.876 10.8454C128.9 10.6534 128.924 10.5094 128.972 10.3894C129.044 10.1734 129.188 10.0294 129.38 9.95741C129.716 9.88541 129.956 9.95741 130.148 10.1734C130.268 10.3654 130.316 10.5574 130.292 10.7734C130.268 10.9894 130.196 11.2534 130.076 11.5414C130.076 11.5654 130.052 11.5894 130.028 11.6134C130.004 11.6614 130.004 11.7094 130.004 11.7094L129.98 11.7334V11.7574C130.028 11.8054 130.052 11.8534 130.076 11.8774C130.22 12.0694 130.412 12.2614 130.7 12.4534C131.42 12.9814 132.212 13.3654 133.076 13.5814C134.252 13.8934 135.524 13.8934 136.868 13.5814C138.548 13.2454 140.324 12.4534 142.148 11.2054C142.388 11.0374 142.604 11.0854 142.796 11.3254C142.844 11.4454 142.868 11.5654 142.844 11.6854C142.82 11.8054 142.772 11.9014 142.676 11.9494C140.732 13.2694 138.86 14.1094 137.06 14.4934C135.572 14.8054 134.156 14.8054 132.836 14.4694C131.78 14.2054 130.892 13.7734 130.148 13.1734C129.932 13.0054 129.74 12.8374 129.572 12.6694C129.38 12.9814 129.26 13.1974 129.188 13.3174C129.164 13.3414 129.14 13.3654 129.116 13.3894C129.092 13.4374 129.068 13.4614 129.068 13.4614C128.876 13.6534 128.684 13.7494 128.492 13.7254C128.276 13.7254 128.084 13.6054 127.94 13.4134C127.772 13.2214 127.628 12.8854 127.484 12.4534C127.292 11.9014 127.172 11.3254 127.124 10.7254C127.076 10.6054 127.1 10.4854 127.196 10.3894C127.268 10.2934 127.364 10.2454 127.508 10.2214C127.604 10.2214 127.724 10.2454 127.82 10.3174C127.916 10.3894 127.988 10.4854 128.012 10.6054ZM142.968 11.5174C143.136 11.7094 143.328 11.8294 143.544 11.9014C143.736 11.9734 143.88 11.9734 144.024 11.9254C144.072 11.9254 144.12 11.8774 144.168 11.8054C144.168 11.7574 144.144 11.6374 144.096 11.4934C143.928 11.2054 143.712 11.1094 143.472 11.1814C143.28 11.2294 143.112 11.3494 142.968 11.5174ZM142.632 12.4294C142.632 12.6694 142.704 12.9094 142.848 13.1494C143.184 13.7254 143.856 14.1814 144.912 14.5174C146.736 15.1414 148.704 15.1414 150.792 14.5174C152.784 13.8934 154.608 12.8374 156.24 11.3254C156.48 11.1334 156.696 11.1334 156.888 11.3494C157.08 11.5894 157.08 11.8054 156.864 11.9974C155.088 13.6294 153.144 14.7574 151.056 15.3814C148.824 16.0774 146.688 16.0774 144.624 15.3814C143.4 14.9974 142.536 14.4214 142.056 13.6294C141.648 12.9574 141.6 12.2614 141.912 11.5414C142.152 10.8934 142.584 10.4854 143.208 10.3174C143.928 10.1254 144.48 10.3654 144.888 11.0374C145.08 11.4214 145.128 11.7814 145.008 12.1174C144.888 12.4534 144.648 12.6934 144.288 12.7894C143.76 12.9814 143.208 12.8614 142.632 12.4294ZM159.309 10.5094C159.357 12.0454 159.789 13.1254 160.653 13.7494C161.373 14.2774 162.405 14.4694 163.749 14.2774C164.901 14.1334 166.197 13.7494 167.589 13.0774C168.765 12.5494 169.797 11.9014 170.685 11.1814C170.925 10.9894 171.141 11.0134 171.333 11.2534C171.501 11.4934 171.477 11.7094 171.261 11.8774C170.397 12.5974 169.317 13.2934 167.973 13.9174C166.485 14.6134 165.117 15.0454 163.869 15.1894C162.309 15.3814 161.061 15.1654 160.125 14.4934C159.165 13.8214 158.589 12.7174 158.445 11.2054C158.205 11.2294 157.965 11.2294 157.725 11.2054C157.677 11.2054 157.629 11.1814 157.581 11.1814C157.533 11.1814 157.485 11.1814 157.461 11.1574C157.413 11.2054 157.365 11.2774 157.317 11.3734C157.269 11.4694 157.221 11.5174 157.197 11.5414C157.005 11.7814 156.813 11.8294 156.573 11.6374C156.309 11.4694 156.261 11.2534 156.453 11.0134L156.645 10.7254C156.645 10.7254 156.621 10.7014 156.597 10.6534C156.549 10.6294 156.549 10.6054 156.549 10.5814C156.405 10.3654 156.381 10.1494 156.453 9.90941C156.525 9.69341 156.669 9.54941 156.909 9.45341C157.149 9.35741 157.365 9.38141 157.557 9.57341C157.749 9.76541 157.821 9.98141 157.773 10.2454V10.2934H157.845C158.133 10.3414 158.349 10.3414 158.493 10.2454C158.565 10.1494 158.685 10.0774 158.829 10.0774C158.949 10.0774 159.045 10.1014 159.141 10.1974C159.237 10.2934 159.285 10.3894 159.309 10.5094Z" fill="#7F1023"></path></svg> 