<?xml version="1.0" encoding="UTF-8"?> <svg xmlns="http://www.w3.org/2000/svg" width="266" height="46" viewBox="0 0 266 46" fill="none"><path d="M40.597 26.3527C40.6397 26.3953 40.661 26.502 40.661 26.6727C40.661 26.8433 40.5543 27.0353 40.341 27.2487C40.1703 27.4193 39.9143 27.5473 39.573 27.6327C39.2743 27.7607 38.869 27.8673 38.357 27.9527C37.5463 28.0807 36.693 28.1447 35.797 28.1447C35.1143 28.1447 34.517 28.102 34.005 28.0167L31.829 27.8247L29.909 27.6327V29.1047C29.909 30.086 29.9303 30.726 29.973 31.0247C29.973 32.518 29.9943 33.4567 30.037 33.8407C30.2503 36.8273 30.4637 38.8967 30.677 40.0487L30.933 41.0087L31.317 42.0327C31.3597 42.3313 31.2317 42.4807 30.933 42.4807L30.805 42.4167L29.141 42.1607C28.757 42.0753 28.4797 41.8833 28.309 41.5847C27.9677 41.0727 27.669 40.454 27.413 39.7287C27.029 38.7047 26.837 37.6593 26.837 36.5927L26.773 34.3527V32.8167L26.901 27.3767L24.149 27.1847L22.549 27.0567C19.221 26.9713 17.5143 26.9287 17.429 26.9287C15.8503 31.0247 14.7197 33.8407 14.037 35.3767C13.4823 36.6993 12.5863 38.4273 11.349 40.5607C10.6663 41.6273 9.83433 42.7367 8.85299 43.8887C8.12766 44.5287 7.61566 44.934 7.31699 45.1047C6.67699 45.4887 6.03699 45.6807 5.39699 45.6807C5.05566 45.6807 4.82099 45.6593 4.69299 45.6167L2.96499 45.2327C1.59966 44.8487 0.916992 43.9313 0.916992 42.4807V42.0967C0.916992 41.67 0.980992 41.3073 1.10899 41.0087C1.36499 40.4967 1.70633 40.326 2.13299 40.4967L2.51699 40.6247C2.73033 40.6247 2.81566 40.7527 2.77299 41.0087C2.68766 41.2647 2.64499 41.5633 2.64499 41.9047C2.64499 42.2887 2.70899 42.7153 2.83699 43.1847C2.96499 43.654 3.19966 44.0593 3.54099 44.4007C3.79699 44.742 4.13833 44.8487 4.56499 44.7207C5.41833 44.4647 6.12233 44.0593 6.67699 43.5047C7.35966 42.8647 7.97833 42.1607 8.53299 41.3927C9.51433 40.0273 10.453 38.342 11.349 36.3367L13.781 30.7047L14.485 28.8487L15.189 26.9927C12.0743 27.1207 9.53566 27.5473 7.57299 28.2727C6.37833 28.7847 5.41833 29.254 4.69299 29.6807C4.01033 30.2353 3.60499 30.598 3.47699 30.7687L3.15699 31.3447C2.98633 31.558 2.90099 31.7713 2.90099 31.9847C2.90099 32.198 2.98633 32.39 3.15699 32.5607C3.19966 32.6033 3.22099 32.646 3.22099 32.6887C3.22099 32.7313 3.19966 32.7527 3.15699 32.7527H2.90099L2.13299 31.8567C1.87699 31.4727 1.74899 31.0887 1.74899 30.7047C1.74899 30.4913 1.79166 30.2567 1.87699 30.0007C2.09033 29.4887 2.38899 29.0407 2.77299 28.6567C3.11433 28.3153 3.83966 27.7607 4.94899 26.9927C6.27166 26.2247 8.19166 25.542 10.709 24.9447C12.373 24.6033 14.2077 24.3687 16.213 24.2407L16.405 23.6647L18.389 18.2887L20.565 11.9527C21.077 10.2887 21.7383 8.53933 22.549 6.70466C23.4023 4.78466 24.0423 3.44066 24.469 2.67266L25.301 1.39266C25.5143 1.13666 25.749 0.901997 26.005 0.688663C26.4317 0.517996 26.773 0.517996 27.029 0.688663C28.2663 1.49933 28.9277 1.94733 29.013 2.03266C29.4397 2.41666 29.7597 3.03533 29.973 3.88866C30.229 5.126 30.357 6.36333 30.357 7.60066C30.357 9.606 30.2503 12.2087 30.037 15.4087C29.9517 17.7127 29.909 20.5073 29.909 23.7927V25.0727C32.6823 25.414 34.965 25.542 36.757 25.4567L38.485 25.3927C38.613 25.3927 38.8903 25.35 39.317 25.2647L39.637 25.2007C39.8503 25.1153 39.957 25.1153 39.957 25.2007C40.085 25.3287 40.213 25.4993 40.341 25.7127C40.3837 25.798 40.4263 25.926 40.469 26.0967C40.5543 26.2247 40.597 26.31 40.597 26.3527ZM26.965 24.7527V23.4727L27.285 14.5767C27.541 11.4193 27.669 8.75266 27.669 6.57666C27.669 4.998 27.605 3.782 27.477 2.92866C27.477 2.886 27.4343 2.822 27.349 2.73666C27.3063 2.694 27.2637 2.694 27.221 2.73666C27.1783 2.73666 27.1357 2.77933 27.093 2.86466L26.901 3.12066C26.645 3.37666 26.2823 3.90999 25.813 4.72066C25.045 6.214 24.3837 7.77133 23.829 9.39266L23.253 10.8007C22.6983 12.4647 22.037 14.278 21.269 16.2407L20.693 17.7767L18.709 23.4727L18.453 24.1767C19.6477 24.134 20.8637 24.1767 22.101 24.3047C22.613 24.39 24.2343 24.5393 26.965 24.7527ZM41.1915 38.5767L39.3355 37.8727C39.0795 37.7447 38.9515 37.5527 38.9515 37.2967V34.9927C38.9942 34.6513 39.0155 33.9047 39.0155 32.7527V29.4247L38.9515 26.0967C38.9515 24.3047 39.0155 22.5553 39.1435 20.8487C39.1435 20.806 39.1862 20.4433 39.2715 19.7607C39.3568 19.5047 39.4848 19.462 39.6555 19.6327C39.8262 19.6753 40.2102 19.846 40.8075 20.1447C40.9782 20.23 41.0848 20.3793 41.1275 20.5927V20.8487C41.0848 21.5313 41.0848 22.534 41.1275 23.8567C41.2128 25.1367 41.2555 25.8193 41.2555 25.9047C41.3835 28.1233 41.4902 29.6167 41.5755 30.3847C41.5755 30.598 41.6182 30.7047 41.7035 30.7047C41.7888 30.79 41.9168 30.726 42.0875 30.5127L43.1115 29.4887C45.0742 27.0567 46.5035 25.1153 47.3995 23.6647C47.6982 23.1527 47.8902 22.5767 47.9755 21.9367C48.1035 21.1687 48.2102 20.614 48.2955 20.2727L48.4875 19.6967C48.6582 19.3127 48.8502 19.1207 49.0635 19.1207C49.1915 19.1207 49.3835 19.1847 49.6395 19.3127L50.7275 19.7607C51.1968 20.0593 51.4102 20.4433 51.3675 20.9127C51.3675 21.894 51.3035 22.854 51.1755 23.7927C51.0475 25.1153 50.9622 26.0113 50.9195 26.4807L50.7915 27.8247C50.7062 29.702 50.8555 31.4087 51.2395 32.9447C51.3675 33.67 51.5808 34.2673 51.8795 34.7367C51.9222 34.9073 52.0928 34.9713 52.3915 34.9287C53.2022 34.7153 53.8635 34.3527 54.3755 33.8407L55.2715 32.9447C57.1062 30.982 58.5995 29.1687 59.7515 27.5047C59.9648 27.206 60.2422 26.886 60.5835 26.5447C60.7115 26.3313 60.9035 26.2887 61.1595 26.4167L61.5435 26.6087C61.7568 26.694 61.8635 26.758 61.8635 26.8007C61.8635 26.8433 61.7995 26.9713 61.6715 27.1847L57.1275 32.7527C56.0182 34.1607 55.1222 35.0993 54.4395 35.5687C54.1408 35.8673 53.9275 36.038 53.7995 36.0807C53.5008 36.2513 53.2235 36.3367 52.9675 36.3367C52.7542 36.3367 52.5622 36.294 52.3915 36.2087C51.1115 35.654 50.1942 35.206 49.6395 34.8647C48.9568 34.438 48.4875 33.798 48.2315 32.9447C47.8902 31.7073 47.6768 30.534 47.5915 29.4247C47.5062 28.4007 47.4635 27.8033 47.4635 27.6327L47.5275 26.4167V25.6487L47.4635 25.5847H47.3355L47.1435 25.7767L46.2475 26.9927L44.7755 29.1047C44.0075 30.1287 43.3888 30.8753 42.9195 31.3447L42.2795 31.9847C41.8528 32.4113 41.6822 32.9447 41.7675 33.5847C41.8528 34.3527 41.8955 34.7793 41.8955 34.8647C41.9808 36.5713 42.0235 37.4887 42.0235 37.6167V37.9367V38.1927C42.0235 38.534 41.9168 38.7047 41.7035 38.7047L41.1915 38.5767ZM60.651 42.4167L59.307 41.9687C58.9657 41.8407 58.7737 41.6487 58.731 41.3927C58.731 41.35 58.7097 41.2647 58.667 41.1367C58.6243 41.0087 58.603 40.902 58.603 40.8167L58.539 39.2167C58.539 38.79 58.5603 38.5127 58.603 38.3847V38.1927C58.5603 37.2967 58.6883 35.6967 58.987 33.3927C59.2003 31.2593 59.3497 29.9367 59.435 29.4247C59.4777 28.742 59.6483 27.078 59.947 24.4327L60.331 21.0407C60.4163 20.614 60.523 19.782 60.651 18.5447C60.7363 18.0753 60.843 17.8407 60.971 17.8407C61.099 17.8407 61.3123 17.926 61.611 18.0967C61.8243 18.182 61.931 18.3313 61.931 18.5447C62.1017 18.9287 62.2083 19.526 62.251 20.3367C62.251 24.6033 62.2297 27.014 62.187 27.5687C62.187 27.782 62.2937 27.846 62.507 27.7607C63.915 26.95 64.939 26.2247 65.579 25.5847C66.8163 24.4753 67.819 23.3873 68.587 22.3207L68.779 22.1287C68.9497 21.958 69.1203 21.9367 69.291 22.0647C69.5043 22.1927 69.611 22.342 69.611 22.5127L69.419 23.1527L69.227 23.7287C68.0323 26.0753 66.347 27.8033 64.171 28.9127C64.0857 28.998 63.7657 29.1473 63.211 29.3607C62.8697 29.574 62.699 29.8727 62.699 30.2567L62.891 30.8967C63.531 32.4753 64.491 33.8833 65.771 35.1207C65.9843 35.2913 66.1977 35.3767 66.411 35.3767H66.923C67.563 35.3767 68.075 35.2913 68.459 35.1207C69.483 34.6513 70.379 34.0113 71.147 33.2007C71.915 32.39 72.939 30.982 74.219 28.9767L75.947 26.5447C76.1177 26.246 76.3737 26.182 76.715 26.3527L77.035 26.5447C77.1203 26.63 77.1417 26.7367 77.099 26.8647L76.907 27.3127L76.203 28.4647L75.499 29.5527C73.6643 32.1553 72.6403 33.606 72.427 33.9047C71.659 34.8433 70.891 35.5473 70.123 36.0167C69.355 36.358 68.7363 36.5287 68.267 36.5287C67.6697 36.5287 67.0937 36.4007 66.539 36.1447C64.6617 35.2913 63.2963 34.182 62.443 32.8167C62.4003 32.6887 62.3363 32.6247 62.251 32.6247C62.1657 32.5393 62.1017 32.5393 62.059 32.6247L61.995 32.8807C61.9523 33.862 61.867 35.8247 61.739 38.7687C61.6963 39.9633 61.5897 40.902 61.419 41.5847L61.227 42.0967C61.099 42.3527 60.907 42.4593 60.651 42.4167ZM90.109 26.8007L88.637 28.7207L86.269 31.7927C85.245 32.9447 84.1997 33.8193 83.133 34.4167C83.005 34.5447 82.7703 34.6513 82.429 34.7367C82.1303 34.9073 81.725 34.9927 81.213 34.9927C80.8717 34.9927 80.573 34.95 80.317 34.8647C78.781 34.31 77.565 33.67 76.669 32.9447C75.261 31.7927 74.557 30.214 74.557 28.2087C74.557 26.4593 75.005 24.9873 75.901 23.7927C76.541 22.8113 77.3303 22.1713 78.269 21.8727C78.6103 21.7447 78.9303 21.6807 79.229 21.6807C79.6983 21.6807 80.1463 21.8087 80.573 22.0647L81.469 22.5127C82.0237 22.8113 82.301 23.2593 82.301 23.8567L82.173 24.4967C82.1303 24.71 82.045 24.8593 81.917 24.9447C81.4477 25.7127 80.7437 26.4593 79.805 27.1847C79.165 27.5687 78.5037 27.782 77.821 27.8247C77.4797 27.8673 77.309 28.0807 77.309 28.4647C77.2237 30.1713 77.565 31.5793 78.333 32.6887L78.589 33.1367C79.0157 33.6913 79.4637 33.9687 79.933 33.9687C80.189 33.9687 80.4663 33.9047 80.765 33.7767C81.4477 33.606 82.109 33.286 82.749 32.8167C83.901 31.9207 84.925 30.918 85.821 29.8087L87.165 28.0167L88.445 26.5447C88.701 26.2887 88.8717 26.1607 88.957 26.1607C89.0423 26.1607 89.1277 26.2033 89.213 26.2887C89.341 26.374 89.4477 26.4167 89.533 26.4167C89.8743 26.4593 90.0663 26.5873 90.109 26.8007ZM77.693 27.1207L78.013 27.0567C79.1223 26.502 80.0183 25.6487 80.701 24.4967C80.8717 24.0273 80.9357 23.6433 80.893 23.3447V23.1527C80.8077 22.8113 80.6157 22.7047 80.317 22.8327C79.8903 22.9607 79.5277 23.174 79.229 23.4727C78.2477 24.2833 77.6717 25.4353 77.501 26.9287C77.4157 27.0567 77.4797 27.1207 77.693 27.1207ZM88.837 40.8807C88.5383 40.838 88.325 40.6673 88.197 40.3687L87.557 38.7047C87.1303 37.254 86.917 35.6327 86.917 33.8407C86.917 32.39 87.0023 30.534 87.173 28.2727L87.301 26.8647C87.4717 25.158 87.557 24.134 87.557 23.7927C87.7703 21.062 87.941 19.3767 88.069 18.7367L88.773 14.2567C88.8157 13.702 88.965 13.4247 89.221 13.4247C89.3917 13.4247 89.6263 13.4887 89.925 13.6167C90.2237 13.7447 90.3943 13.958 90.437 14.2567L90.629 15.1527C90.8423 17.0727 90.949 18.63 90.949 19.8247C90.9917 20.3793 91.013 21.6593 91.013 23.6647C91.013 25.67 90.9917 26.95 90.949 27.5047C90.8637 30.5767 90.821 32.3047 90.821 32.6887C90.821 33.1153 90.8423 33.3927 90.885 33.5207C91.0557 33.3927 91.141 33.286 91.141 33.2007L92.293 28.9767C92.933 26.9713 93.573 25.35 94.213 24.1127C94.4263 23.558 94.6823 23.1313 94.981 22.8327C95.3223 22.3633 95.7703 22.214 96.325 22.3847C96.7943 22.5553 97.093 22.6407 97.221 22.6407C97.6477 22.7687 97.9463 23.0247 98.117 23.4087L98.501 24.3687L99.653 27.5047L99.717 27.6967C99.845 28.2513 100.037 28.5287 100.293 28.5287C100.378 28.5287 100.656 28.358 101.125 28.0167C102.149 27.078 102.768 26.4807 102.981 26.2247C103.109 26.054 103.536 25.6913 104.261 25.1367C104.645 24.8807 105.029 24.8167 105.413 24.9447L106.821 25.3287C107.248 25.4567 107.589 25.7127 107.845 26.0967L108.933 27.8887L109.637 29.2327L110.085 29.8087C110.298 30.022 110.576 30.1287 110.917 30.1287C111.258 30.1287 111.472 30.1073 111.557 30.0647C113.52 29.7233 115.056 29.2327 116.165 28.5927L118.853 26.8647L119.813 26.2887C120.069 26.246 120.282 26.246 120.453 26.2887L120.645 26.3527C121.2 26.5233 121.477 26.6513 121.477 26.7367V26.8007C121.477 27.0993 121.264 27.3127 120.837 27.4407L119.173 28.7207C117.808 29.7873 116.101 30.47 114.053 30.7687C113.157 30.8967 112.581 30.9607 112.325 30.9607C111.002 30.9607 109.658 30.598 108.293 29.8727C107.909 29.6167 107.568 29.2967 107.269 28.9127C107.056 28.6567 106.693 27.9527 106.181 26.8007C105.968 26.2887 105.797 26.0327 105.669 26.0327C105.456 26.0327 105.2 26.182 104.901 26.4807L103.941 27.4407L102.789 28.6567C102.576 28.87 102.32 29.0833 102.021 29.2967C101.594 29.5953 101.104 29.6807 100.549 29.5527L99.205 29.1047C98.3517 28.8487 97.7543 28.294 97.413 27.4407C97.1143 26.8433 96.9223 26.2247 96.837 25.5847L96.453 23.9207C96.4103 23.8353 96.3463 23.7927 96.261 23.7927C96.2183 23.75 96.1757 23.7713 96.133 23.8567L95.557 24.5607C94.7037 25.7553 93.893 27.5687 93.125 30.0007C92.8263 31.0247 92.5277 32.3047 92.229 33.8407L91.781 35.7607L91.013 39.2167C90.9703 39.6433 90.885 40.198 90.757 40.8807C90.757 41.1367 90.6077 41.2433 90.309 41.2007C90.2663 41.2007 90.0743 41.1793 89.733 41.1367C89.4343 41.0513 89.1357 40.966 88.837 40.8807ZM111.237 19.1207L110.917 19.0567C109.125 18.9287 107.077 18.4807 104.773 17.7127C102.981 17.0727 101.146 16.582 99.269 16.2407C99.0557 16.198 98.6077 16.1767 97.925 16.1767C97.285 16.1767 96.645 16.2407 96.005 16.3687C95.237 16.4967 94.6183 16.7953 94.149 17.2647C93.893 17.478 93.8717 17.6913 94.085 17.9047L94.405 18.2247C94.4903 18.31 94.533 18.3953 94.533 18.4807C94.533 18.6513 94.405 18.7367 94.149 18.7367C93.765 18.7367 93.4663 18.5447 93.253 18.1607L92.805 16.8167C92.7623 16.774 92.741 16.6247 92.741 16.3687C92.741 16.1553 92.8477 15.878 93.061 15.5367C93.3597 15.11 93.765 14.7687 94.277 14.5127C94.661 14.2993 95.2583 14.086 96.069 13.8727C96.709 13.7447 97.3277 13.6807 97.925 13.6807C98.565 13.6807 99.333 13.766 100.229 13.9367C101.338 14.0647 102.704 14.342 104.325 14.7687L106.501 15.2807C107.994 15.622 109.381 15.8353 110.661 15.9207H111.173C111.898 15.9207 112.496 15.8353 112.965 15.6647C113.264 15.622 113.413 15.4727 113.413 15.2167C113.413 15.0887 113.477 15.0247 113.605 15.0247C113.648 15.0247 113.712 15.0673 113.797 15.1527C114.053 16.0913 114.181 16.8167 114.181 17.3287L114.117 17.9047C114.032 18.2887 113.818 18.566 113.477 18.7367C113.05 18.9073 112.304 19.0353 111.237 19.1207ZM137.364 39.1527L135.508 38.2567C135.252 38.086 134.889 37.7447 134.42 37.2327C134.079 36.5927 133.823 36.0593 133.652 35.6327C133.055 33.5847 132.756 31.4087 132.756 29.1047C132.756 27.27 132.777 26.0967 132.82 25.5847C132.863 25.0727 132.927 24.454 133.012 23.7287C133.14 22.9607 133.204 22.5127 133.204 22.3847L133.268 21.3607L133.204 21.0407C132.905 21.3393 132.585 21.7873 132.244 22.3847C131.732 23.238 131.049 24.6033 130.196 26.4807L127.572 32.6247C126.847 34.246 125.972 35.7607 124.948 37.1687C124.82 37.382 124.479 37.766 123.924 38.3207C123.625 38.6193 123.263 38.7687 122.836 38.7687C122.537 38.7687 122.26 38.7047 122.004 38.5767C120.852 38.022 120.148 37.6807 119.892 37.5527C119.124 37.2113 118.569 36.6567 118.228 35.8887C117.844 34.9927 117.652 34.054 117.652 33.0727C117.652 32.39 117.737 31.558 117.908 30.5767C118.249 28.9553 118.676 27.654 119.188 26.6727C120.425 24.2407 122.025 22.6193 123.988 21.8087C124.799 21.4673 125.481 21.2967 126.036 21.2967C126.761 21.2967 127.551 21.5313 128.404 22.0007L129.62 22.7047C129.876 22.8327 130.025 22.8113 130.068 22.6407L130.516 21.8087C131.113 20.6567 131.604 19.8673 131.988 19.4407L132.372 18.9927C132.585 18.7793 132.777 18.6727 132.948 18.6727C133.119 18.6727 133.289 18.7153 133.46 18.8007C133.545 18.8433 133.716 18.95 133.972 19.1207C134.271 19.2487 134.527 19.3767 134.74 19.5047C135.039 19.6327 135.252 19.8673 135.38 20.2087C135.551 20.55 135.636 20.998 135.636 21.5527L135.7 22.7687C135.7 22.8967 135.657 23.4727 135.572 24.4967L135.444 27.7607C135.359 29.2113 135.316 30.0433 135.316 30.2567C135.316 32.4327 135.636 34.502 136.276 36.4647C136.319 36.55 136.361 36.6567 136.404 36.7847C136.447 36.9553 136.489 37.062 136.532 37.1047C136.66 37.446 136.809 37.6167 136.98 37.6167H137.044C137.087 37.574 137.151 37.5313 137.236 37.4887C137.321 37.4033 137.407 37.3393 137.492 37.2967C138.089 36.7847 138.58 36.2513 138.964 35.6967C139.647 34.7153 140.308 33.4993 140.948 32.0487C141.076 31.75 141.823 30.406 143.188 28.0167C143.7 27.0353 144.02 26.4807 144.148 26.3527C144.276 26.2247 144.447 26.2033 144.66 26.2887L145.556 26.7367C145.769 26.822 145.833 26.9713 145.748 27.1847L145.364 28.0807C144.383 30.1713 143.295 32.4113 142.1 34.8007C142.015 35.014 141.609 35.718 140.884 36.9127C140.756 37.2113 140.308 37.7447 139.54 38.5127C139.284 38.7687 139.007 38.9607 138.708 39.0887C138.452 39.2167 138.217 39.2807 138.004 39.2807C137.919 39.2807 137.705 39.238 137.364 39.1527ZM122.068 36.4007L122.452 36.0807C123.391 35.3127 124.265 34.246 125.076 32.8807C126.1 31.1313 126.911 29.5953 127.508 28.2727L129.364 24.1767C129.407 24.134 129.428 24.006 129.428 23.7927C129.428 23.366 129.193 23.0887 128.724 22.9607C128.34 22.9607 128.084 22.982 127.956 23.0247C127.017 23.1527 126.143 23.558 125.332 24.2407C123.625 25.6913 122.516 27.59 122.004 29.9367C121.833 30.6193 121.705 31.302 121.62 31.9847C121.492 32.6673 121.428 33.35 121.428 34.0327C121.428 34.886 121.513 35.6327 121.684 36.2727C121.727 36.4433 121.855 36.486 122.068 36.4007ZM169.281 37.8727C169.025 37.6593 168.833 37.318 168.705 36.8487C168.449 36.1233 168.3 35.206 168.257 34.0967C168.257 32.9447 168.364 31.9207 168.577 31.0247C168.62 30.854 168.727 30.3847 168.897 29.6167C169.111 28.8487 169.26 28.3153 169.345 28.0167C169.729 26.8647 170.007 25.7553 170.177 24.6887C170.22 24.646 170.241 24.4753 170.241 24.1767C170.241 23.9207 170.113 23.8567 169.857 23.9847C169.431 24.1553 168.919 24.4327 168.321 24.8167C167.255 25.4567 166.273 26.246 165.377 27.1847C164.865 27.8673 164.588 28.2513 164.545 28.3367C164.417 28.55 164.289 28.5927 164.161 28.4647L162.881 27.6327C162.753 27.4193 162.711 27.2487 162.753 27.1207L163.201 26.3527C163.969 25.2007 165.036 24.1553 166.401 23.2167L168.193 22.0007L168.449 21.8727C168.961 21.6593 169.345 21.5527 169.601 21.5527C170.028 21.5527 170.412 21.7233 170.753 22.0647L171.969 23.0247C172.268 23.1953 172.46 23.558 172.545 24.1127C172.545 24.2407 172.503 24.774 172.417 25.7127L171.777 29.1047C171.692 29.574 171.521 30.9607 171.265 33.2647C171.18 34.63 171.137 35.3767 171.137 35.5047L171.201 37.1687V37.4887C171.287 37.6593 171.372 37.702 171.457 37.6167L172.161 37.3607C172.503 37.19 172.929 36.8487 173.441 36.3367C174.252 35.654 175.169 34.63 176.193 33.2647L179.009 29.1047L180.225 27.3127C180.481 26.9287 180.759 26.5447 181.057 26.1607C181.143 25.9473 181.249 25.926 181.377 26.0967C181.42 26.1393 181.505 26.2033 181.633 26.2887C181.889 26.4593 182.017 26.5873 182.017 26.6727C182.017 26.7153 181.911 26.9073 181.697 27.2487C181.1 28.0167 180.119 29.446 178.753 31.5367L175.809 35.5687C175.041 36.5927 174.209 37.5527 173.313 38.4487L172.161 39.2807C171.82 39.494 171.521 39.494 171.265 39.2807C171.052 39.11 170.711 38.8753 170.241 38.5767C169.772 38.2353 169.452 38.0007 169.281 37.8727ZM184.04 37.6807L181.672 36.5287C181.117 36.23 180.627 35.6967 180.2 34.9287C179.688 33.99 179.432 32.71 179.432 31.0887C179.432 28.87 179.987 26.758 181.096 24.7527C181.437 24.2833 181.864 23.7927 182.376 23.2807L182.888 22.8967C183.059 22.726 183.336 22.6407 183.72 22.6407C183.933 22.6407 184.147 22.7047 184.36 22.8327C184.488 22.918 184.659 23.0673 184.872 23.2807C184.403 23.4513 184.019 23.8353 183.72 24.4327C182.824 26.0113 182.291 27.5687 182.12 29.1047C181.992 29.8727 181.928 30.662 181.928 31.4727C181.928 31.6007 181.971 32.1767 182.056 33.2007C182.227 34.2247 182.525 35.1207 182.952 35.8887C183.208 36.358 183.485 36.5927 183.784 36.5927L184.296 36.4647C185.107 36.294 185.853 35.7607 186.536 34.8647C187.304 33.8407 187.773 32.6887 187.944 31.4087C188.157 30.4273 188.221 29.7233 188.136 29.2967C188.136 28.9553 187.987 28.7633 187.688 28.7207H187.56C186.707 28.678 185.512 28.2513 183.976 27.4407L183.848 27.3127C183.336 27.014 183.08 26.694 183.08 26.3527C183.08 26.0113 183.229 25.6913 183.528 25.3927C183.997 24.7953 184.552 24.4967 185.192 24.4967C185.448 24.4967 185.747 24.5607 186.088 24.6887C186.472 24.8167 187.176 25.158 188.2 25.7127C188.712 26.0113 189.117 26.3953 189.416 26.8647C189.544 27.1207 189.757 27.2273 190.056 27.1847L191.848 26.8007C193.939 26.374 195.475 26.1393 196.456 26.0967C196.925 26.0967 197.309 26.182 197.608 26.3527L198.376 26.8007C198.461 26.886 198.504 26.95 198.504 26.9927L198.312 27.1847C196.008 27.6113 194.643 27.846 194.216 27.8887C193.277 28.0167 191.976 28.2513 190.312 28.5927C190.056 28.7633 189.928 28.9553 189.928 29.1687C189.885 30.3633 189.672 31.622 189.288 32.9447C188.648 34.6087 188.093 35.7393 187.624 36.3367C187.24 36.8487 186.792 37.2327 186.28 37.4887C185.896 37.7447 185.469 37.8727 185 37.8727C184.701 37.8727 184.381 37.8087 184.04 37.6807ZM186.92 27.6327H187.368C187.795 27.6327 187.923 27.4193 187.752 26.9927L187.496 26.5447C187.24 26.118 187.005 25.9047 186.792 25.9047C186.664 25.9047 186.451 25.99 186.152 26.1607C185.725 26.4167 185.469 26.7153 185.384 27.0567C185.384 27.27 185.469 27.398 185.64 27.4407C186.28 27.5687 186.707 27.6327 186.92 27.6327ZM199.516 36.2087L198.3 35.7607C197.233 35.3767 196.487 34.6727 196.06 33.6487C195.463 32.3687 195.207 31.0247 195.292 29.6167C195.292 27.6967 195.527 25.9047 195.996 24.2407C196.551 22.15 197.447 20.422 198.684 19.0567C199.367 18.246 200.007 17.6273 200.604 17.2007L201.308 16.7527C201.607 16.582 201.969 16.5607 202.396 16.6887L203.612 17.2007C203.953 17.4567 203.975 17.6273 203.676 17.7127C203.079 18.31 202.631 18.8007 202.332 19.1847C200.924 21.1473 199.943 23.1527 199.388 25.2007C199.132 26.3527 198.897 27.5687 198.684 28.8487C198.641 29.062 198.62 29.5953 198.62 30.4487C198.535 31.814 198.599 32.902 198.812 33.7127C198.855 34.182 198.983 34.63 199.196 35.0567C199.239 35.3553 199.409 35.5047 199.708 35.5047C200.177 35.5047 200.775 35.3127 201.5 34.9287C202.183 34.5447 202.78 34.0967 203.292 33.5847C203.804 33.1153 204.828 31.942 206.364 30.0647L208.86 26.8007C209.201 26.4167 209.415 26.2247 209.5 26.2247C209.628 26.2247 209.841 26.2887 210.14 26.4167L210.46 26.6087C210.545 26.6513 210.567 26.758 210.524 26.9287L210.396 27.1207L209.5 28.2727C207.623 30.7473 206.215 32.454 205.276 33.3927C204.807 33.9047 204.316 34.3953 203.804 34.8647C203.121 35.4193 202.332 35.8673 201.436 36.2087C200.839 36.294 200.519 36.3367 200.476 36.3367C200.433 36.3367 200.113 36.294 199.516 36.2087ZM209.337 40.8807C209.038 40.838 208.825 40.6673 208.697 40.3687L208.057 38.7047C207.63 37.254 207.417 35.6327 207.417 33.8407C207.417 32.39 207.502 30.534 207.673 28.2727L207.801 26.8647C207.972 25.158 208.057 24.134 208.057 23.7927C208.27 21.062 208.441 19.3767 208.569 18.7367L209.273 14.2567C209.316 13.702 209.465 13.4247 209.721 13.4247C209.892 13.4247 210.126 13.4887 210.425 13.6167C210.724 13.7447 210.894 13.958 210.937 14.2567L211.129 15.1527C211.342 17.0727 211.449 18.63 211.449 19.8247C211.492 20.3793 211.513 21.6593 211.513 23.6647C211.513 25.67 211.492 26.95 211.449 27.5047C211.364 30.5767 211.321 32.3047 211.321 32.6887C211.321 33.1153 211.342 33.3927 211.385 33.5207C211.556 33.3927 211.641 33.286 211.641 33.2007L212.793 28.9767C213.433 26.9713 214.073 25.35 214.713 24.1127C214.926 23.558 215.182 23.1313 215.481 22.8327C215.822 22.3633 216.27 22.214 216.825 22.3847C217.294 22.5553 217.593 22.6407 217.721 22.6407C218.148 22.7687 218.446 23.0247 218.617 23.4087L219.001 24.3687L220.153 27.5047L220.217 27.6967C220.345 28.2513 220.537 28.5287 220.793 28.5287C220.878 28.5287 221.156 28.358 221.625 28.0167C222.649 27.078 223.268 26.4807 223.481 26.2247C223.609 26.054 224.036 25.6913 224.761 25.1367C225.145 24.8807 225.529 24.8167 225.913 24.9447L227.321 25.3287C227.748 25.4567 228.089 25.7127 228.345 26.0967L229.433 27.8887L230.137 29.2327L230.585 29.8087C230.798 30.022 231.076 30.1287 231.417 30.1287C231.758 30.1287 231.972 30.1073 232.057 30.0647C234.02 29.7233 235.556 29.2327 236.665 28.5927L239.353 26.8647L240.313 26.2887C240.569 26.246 240.782 26.246 240.953 26.2887L241.145 26.3527C241.7 26.5233 241.977 26.6513 241.977 26.7367V26.8007C241.977 27.0993 241.764 27.3127 241.337 27.4407L239.673 28.7207C238.308 29.7873 236.601 30.47 234.553 30.7687C233.657 30.8967 233.081 30.9607 232.825 30.9607C231.502 30.9607 230.158 30.598 228.793 29.8727C228.409 29.6167 228.068 29.2967 227.769 28.9127C227.556 28.6567 227.193 27.9527 226.681 26.8007C226.468 26.2887 226.297 26.0327 226.169 26.0327C225.956 26.0327 225.7 26.182 225.401 26.4807L224.441 27.4407L223.289 28.6567C223.076 28.87 222.82 29.0833 222.521 29.2967C222.094 29.5953 221.604 29.6807 221.049 29.5527L219.705 29.1047C218.852 28.8487 218.254 28.294 217.913 27.4407C217.614 26.8433 217.422 26.2247 217.337 25.5847L216.953 23.9207C216.91 23.8353 216.846 23.7927 216.761 23.7927C216.718 23.75 216.676 23.7713 216.633 23.8567L216.057 24.5607C215.204 25.7553 214.393 27.5687 213.625 30.0007C213.326 31.0247 213.028 32.3047 212.729 33.8407L212.281 35.7607L211.513 39.2167C211.47 39.6433 211.385 40.198 211.257 40.8807C211.257 41.1367 211.108 41.2433 210.809 41.2007C210.766 41.2007 210.574 41.1793 210.233 41.1367C209.934 41.0513 209.636 40.966 209.337 40.8807ZM231.737 19.1207L231.417 19.0567C229.625 18.9287 227.577 18.4807 225.273 17.7127C223.481 17.0727 221.646 16.582 219.769 16.2407C219.556 16.198 219.108 16.1767 218.425 16.1767C217.785 16.1767 217.145 16.2407 216.505 16.3687C215.737 16.4967 215.118 16.7953 214.649 17.2647C214.393 17.478 214.372 17.6913 214.585 17.9047L214.905 18.2247C214.99 18.31 215.033 18.3953 215.033 18.4807C215.033 18.6513 214.905 18.7367 214.649 18.7367C214.265 18.7367 213.966 18.5447 213.753 18.1607L213.305 16.8167C213.262 16.774 213.241 16.6247 213.241 16.3687C213.241 16.1553 213.348 15.878 213.561 15.5367C213.86 15.11 214.265 14.7687 214.777 14.5127C215.161 14.2993 215.758 14.086 216.569 13.8727C217.209 13.7447 217.828 13.6807 218.425 13.6807C219.065 13.6807 219.833 13.766 220.729 13.9367C221.838 14.0647 223.204 14.342 224.825 14.7687L227.001 15.2807C228.494 15.622 229.881 15.8353 231.161 15.9207H231.673C232.398 15.9207 232.996 15.8353 233.465 15.6647C233.764 15.622 233.913 15.4727 233.913 15.2167C233.913 15.0887 233.977 15.0247 234.105 15.0247C234.148 15.0247 234.212 15.0673 234.297 15.1527C234.553 16.0913 234.681 16.8167 234.681 17.3287L234.617 17.9047C234.532 18.2887 234.318 18.566 233.977 18.7367C233.55 18.9073 232.804 19.0353 231.737 19.1207ZM242.184 38.6407C241.288 38.3847 240.627 37.7873 240.2 36.8487C239.773 35.8247 239.56 34.8433 239.56 33.9047C239.475 31.0033 239.645 28.8273 240.072 27.3767C240.157 26.95 240.307 26.502 240.52 26.0327L240.904 25.5207C241.075 25.35 241.224 25.3073 241.352 25.3927C242.163 25.6487 242.739 25.926 243.08 26.2247C242.653 26.566 242.333 27.2273 242.12 28.2087C241.949 28.8487 241.864 30.0007 241.864 31.6647C241.864 32.262 241.907 33.2433 241.992 34.6087C242.12 35.59 242.376 36.4433 242.76 37.1687C242.888 37.4673 242.995 37.6167 243.08 37.6167C243.123 37.6167 243.315 37.51 243.656 37.2967C244.211 36.87 244.68 36.3367 245.064 35.6967C245.704 34.8433 246.259 33.9047 246.728 32.8807C247.923 30.406 248.797 28.038 249.352 25.7767C249.437 25.4353 249.48 25.2433 249.48 25.2007C249.48 25.0727 249.437 25.0087 249.352 25.0087C249.096 25.0087 248.819 24.9447 248.52 24.8167C248.264 24.646 247.965 24.4753 247.624 24.3047C247.325 24.0913 247.133 23.9633 247.048 23.9207C246.109 23.4087 245.64 22.5553 245.64 21.3607C245.555 19.9953 246.003 18.7367 246.984 17.5847C247.368 17.2007 247.624 16.9873 247.752 16.9447C248.051 16.774 248.328 16.6887 248.584 16.6887C248.797 16.6887 249.032 16.7527 249.288 16.8807L250.44 17.5847C250.867 17.8407 251.144 18.2247 251.272 18.7367C251.443 19.206 251.528 19.7607 251.528 20.4007C251.528 20.614 251.485 21.1047 251.4 21.8727L251.336 22.4487C251.293 22.534 251.293 22.6193 251.336 22.7047C251.421 22.7473 251.528 22.7473 251.656 22.7047C252.296 22.4487 252.915 22.086 253.512 21.6167C253.939 21.318 254.195 21.1687 254.28 21.1687C254.408 21.1687 254.664 21.2967 255.048 21.5527C255.432 21.8513 255.688 22.022 255.816 22.0647C256.243 22.2353 256.456 22.6193 256.456 23.2167C256.456 23.43 256.456 23.7287 256.456 24.1127C256.456 24.4967 256.435 24.7953 256.392 25.0087L256.008 27.5687C255.837 28.5927 255.645 30.214 255.432 32.4327C255.432 33.2433 255.475 33.99 255.56 34.6727L255.624 34.9927C255.709 35.2913 255.859 35.3553 256.072 35.1847C257.053 34.7153 257.821 34.246 258.376 33.7767C259.101 33.0513 259.72 32.3687 260.232 31.7287L262.728 28.5287L263.496 27.4407L264.072 26.6087C264.328 26.2673 264.563 26.0967 264.776 26.0967C264.947 26.0967 265.181 26.2247 265.48 26.4807C265.565 26.5233 265.587 26.63 265.544 26.8007C265.331 27.1847 265.096 27.5047 264.84 27.7607C263.944 28.614 262.813 30.022 261.448 31.9847C260.552 33.1793 259.955 33.9473 259.656 34.2887C259.187 34.8433 258.525 35.462 257.672 36.1447C257.203 36.486 256.819 36.6567 256.52 36.6567C256.264 36.6567 255.987 36.5713 255.688 36.4007C255.517 36.2727 255.091 36.0593 254.408 35.7607C253.256 35.206 252.595 34.2247 252.424 32.8167C252.381 32.6033 252.36 32.07 252.36 31.2167C252.36 30.3633 252.381 29.83 252.424 29.6167C252.509 28.7633 252.701 27.4407 253 25.6487C253 25.606 253.043 25.3927 253.128 25.0087C253.256 24.582 253.341 24.262 253.384 24.0487C253.384 23.9633 253.341 23.8993 253.256 23.8567C253.213 23.814 253.171 23.814 253.128 23.8567L251.144 24.6247C250.973 24.6673 250.845 24.8167 250.76 25.0727L250.312 26.6727C249.629 29.2753 248.627 31.9847 247.304 34.8007C247.133 35.142 246.899 35.5687 246.6 36.0807C246.344 36.55 246.173 36.8913 246.088 37.1047C245.661 37.7873 245.299 38.278 245 38.5767C244.616 38.9607 244.232 39.1527 243.848 39.1527C243.805 39.1527 243.613 39.11 243.272 39.0247C242.931 38.8113 242.568 38.6833 242.184 38.6407ZM249.544 23.3447C249.843 23.2593 250.013 23.0673 250.056 22.7687C250.184 22.086 250.248 21.382 250.248 20.6567C250.248 20.102 250.205 19.6113 250.12 19.1847C250.12 18.758 249.971 18.4593 249.672 18.2887C249.544 18.3313 249.309 18.566 248.968 18.9927L248.84 19.2487C248.328 20.2727 248.072 21.19 248.072 22.0007C248.072 22.5127 248.115 22.9393 248.2 23.2807C248.2 23.4513 248.285 23.5367 248.456 23.5367C248.669 23.5367 249.032 23.4727 249.544 23.3447Z" fill="black"></path></svg> 