<?xml version="1.0" encoding="UTF-8"?> <svg xmlns="http://www.w3.org/2000/svg" width="431" height="146" viewBox="0 0 431 146" fill="none"><mask id="mask0_2238_172" style="mask-type:alpha" maskUnits="userSpaceOnUse" x="0" y="0" width="431" height="118"><path d="M0.144531 0.259766V87.2969C1.47013 87.9436 2.66641 89.3662 2.76341 91.9527C2.69874 92.1467 9.00344 90.2068 9.45609 89.8835C8.32447 89.8188 17.2157 88.5255 15.9548 87.4586C16.3751 87.5233 22.3241 86.4563 22.4858 85.2924C24.264 88.3962 30.9244 91.9851 29.4048 86.23C30.3424 88.0406 35.4185 85.1307 35.9682 85.842C35.5802 84.0314 42.4668 84.8397 42.7578 86.0683C41.8202 82.9645 49.2565 86.8766 49.2565 83.2878C49.2565 85.2924 56.4342 89.0429 56.4342 87.9759C56.4342 85.1954 62.6095 78.0177 62.6095 81.8005C62.6095 82.2208 69.6579 87.3293 69.6579 85.163C69.6579 84.4841 75.122 89.5278 75.122 81.6065C75.122 78.729 80.9093 80.1839 80.9093 82.9321C80.9093 83.7081 85.9854 89.3662 85.9854 85.842C85.9854 85.0984 93.5511 83.0615 93.5511 87.9112C93.5511 91.7264 101.149 90.7888 101.149 91.0151C101.149 92.276 108.327 92.7287 108.327 93.5046C108.327 92.47 115.343 88.7519 115.343 90.9828C115.343 90.7888 121.874 90.7888 121.874 87.5879C121.874 86.1653 128.696 89.9481 128.696 87.103C128.696 86.2947 135.421 86.327 135.421 84.6134C135.421 87.0706 142.21 88.1376 142.21 89.0429C142.21 86.2623 149.226 80.1193 149.226 84.7751C149.226 86.9413 155.402 91.4677 155.402 91.3061C155.402 87.4263 162.224 95.3476 162.224 90.5301C162.224 89.2045 168.819 91.7264 168.819 91.7911C168.819 88.4286 174.93 93.7956 174.93 95.4122C174.93 100.1 182.108 93.1813 182.108 94.022C182.108 94.8626 188.768 90.0451 188.768 95.1212C188.768 97.5138 194.394 104.821 194.394 100.262C194.394 103.301 201.022 100.973 201.022 101.458C201.022 99.874 208.685 102.428 208.685 98.8071C208.685 100.197 214.601 101.297 214.601 102.816C214.601 100.553 221.65 105.306 221.65 102.396C221.65 103.689 228.342 102.655 228.342 103.204C228.342 102.849 234.485 103.851 234.485 106.437C234.485 104.788 240.919 107.407 240.919 107.763C240.919 107.892 247.062 109.444 247.062 110.996C247.062 108.636 253.593 113.874 253.593 112.225C253.593 110.737 260.157 110.447 260.157 113.098C260.157 112.71 267.011 112.871 267.011 111.255C267.011 112.645 273.542 111.319 273.542 112.128C273.542 113.841 279.976 113.162 279.976 115.167C279.976 115.749 286.572 116.04 286.572 116.331C286.572 119.823 293.265 110.705 293.265 113.518C293.265 112.289 299.893 115.652 299.893 116.46C299.893 117.753 306.456 109.089 306.456 113.195C306.456 115.587 312.987 112.613 312.987 111.837C312.987 108.798 321.135 114.617 321.135 115.49C321.135 117.527 328.054 107.149 328.054 109.994C328.054 114.165 335.296 108.992 335.296 108.248C335.296 107.601 341.536 104.336 341.536 103.851C341.536 105.888 348.423 102.202 348.423 102.105C348.423 101.749 355.859 98.2574 355.859 104.4C355.859 103.883 362.422 98.3221 362.422 98.3867C362.422 99.4214 369.374 103.107 369.374 101.976C369.374 102.461 376.196 102.849 376.196 103.107C376.196 103.883 383.567 103.107 383.567 102.849C383.567 102.396 389.613 112.968 389.613 108.216C389.613 105.952 396.338 113.938 396.338 112.451C396.338 112.031 404.195 107.828 404.551 108.248C405.327 107.213 410.209 108.507 411.049 107.407C412.407 109.768 418.065 106.146 418.647 105.176C419.359 111.901 424.499 104.95 425.469 102.073C426.698 104.756 428.993 105.273 430.125 104.918V0.259766H0.144531Z" fill="#CB182B"></path></mask><g mask="url(#mask0_2238_172)"><rect x="0.144531" y="68.6973" width="429.98" height="55.9483" fill="#CB182B"></rect></g><mask id="mask1_2238_172" style="mask-type:alpha" maskUnits="userSpaceOnUse" x="0" y="28" width="431" height="118"><path d="M430.125 145.471V58.4335C428.799 57.7869 427.603 56.3643 427.506 53.7777C427.571 53.5838 421.266 55.5237 420.813 55.847C421.945 55.9117 413.054 57.2049 414.315 58.2719C413.894 58.2072 407.945 59.2742 407.784 60.4381C406.005 57.3343 399.345 53.7454 400.865 59.5005C399.927 57.6899 394.851 60.5998 394.301 59.8885C394.689 61.699 387.803 60.8907 387.512 59.6621C388.449 62.766 381.013 58.8538 381.013 62.4427C381.013 60.4381 373.835 56.6876 373.835 57.7546C373.835 60.5351 367.66 67.7128 367.66 63.9299C367.66 63.5096 360.612 58.4012 360.612 60.5674C360.612 61.2464 355.148 56.2026 355.148 64.1239C355.148 67.0015 349.36 65.5465 349.36 62.7983C349.36 62.0224 344.284 56.3643 344.284 59.8885C344.284 60.6321 336.718 62.669 336.718 57.8192C336.718 54.0041 329.12 54.9417 329.12 54.7154C329.12 53.4544 321.943 53.0018 321.943 52.2258C321.943 53.2604 314.927 56.9786 314.927 54.7477C314.927 54.9417 308.396 54.9417 308.396 58.1425C308.396 59.5651 301.574 55.7823 301.574 58.6275C301.574 59.4358 294.849 59.4035 294.849 61.1171C294.849 58.6599 288.059 57.5929 288.059 56.6876C288.059 59.4681 281.043 65.6112 281.043 60.9554C281.043 58.7892 274.868 54.2627 274.868 54.4244C274.868 58.3042 268.046 50.3829 268.046 55.2003C268.046 56.526 261.45 54.0041 261.45 53.9394C261.45 57.3019 255.339 51.9348 255.339 50.3182C255.339 45.6301 248.162 52.5491 248.162 51.7085C248.162 50.8679 241.501 55.6853 241.501 50.6092C241.501 48.2167 235.876 40.9097 235.876 45.4685C235.876 42.4293 229.248 44.7572 229.248 44.2722C229.248 45.8565 221.585 43.3023 221.585 46.9234C221.585 45.5331 215.668 44.4339 215.668 42.9143C215.668 45.1775 208.62 40.4247 208.62 43.3346C208.62 42.0413 201.927 43.0759 201.927 42.5263C201.927 42.8819 195.784 41.8797 195.784 39.2931C195.784 40.942 189.35 38.3232 189.35 37.9675C189.35 37.8382 183.207 36.2863 183.207 34.7343C183.207 37.0945 176.676 31.8568 176.676 33.5057C176.676 34.993 170.113 35.284 170.113 32.6328C170.113 33.0207 163.258 32.8591 163.258 34.4757C163.258 33.0854 156.727 34.411 156.727 33.6027C156.727 31.8891 150.293 32.5681 150.293 30.5635C150.293 29.9816 143.698 29.6906 143.698 29.3996C143.698 25.9077 137.005 35.0253 137.005 32.2125C137.005 33.4411 130.377 30.0786 130.377 29.2703C130.377 27.977 123.814 36.6419 123.814 32.5358C123.814 30.1432 117.283 33.1177 117.283 33.8937C117.283 36.9329 109.135 31.1132 109.135 30.2402C109.135 28.2033 102.216 38.5818 102.216 35.7366C102.216 31.5658 94.9737 36.7389 94.9737 37.4825C94.9737 38.1292 88.7337 41.3947 88.7337 41.8796C88.7337 39.8427 81.847 43.5286 81.847 43.6256C81.847 43.9812 74.4107 47.4731 74.4107 41.33C74.4107 41.8473 67.8473 47.4084 67.8473 47.3437C67.8473 46.3091 60.896 42.6233 60.896 43.7549C60.896 43.2699 54.074 42.8819 54.074 42.6233C54.074 41.8473 46.7023 42.6233 46.7023 42.8819C46.7023 43.3346 40.6563 32.7621 40.6563 37.5149C40.6563 39.7781 33.9313 31.7921 33.9313 33.2794C33.9313 33.6997 26.0746 37.9028 25.719 37.4825C24.943 38.5171 20.0609 37.2239 19.2203 38.3232C17.8624 35.9629 12.2043 39.5841 11.6223 40.554C10.911 33.829 5.77027 40.7804 4.80031 43.6579C3.5717 40.9744 1.27614 40.4571 0.144526 40.8127V145.471H430.125Z" fill="#CB182B"></path></mask><g mask="url(#mask1_2238_172)"><rect x="430.125" y="77.0332" width="429.98" height="55.9483" transform="rotate(180 430.125 77.0332)" fill="#CB182B"></rect></g></svg> 