<?xml version="1.0" encoding="UTF-8"?> <svg xmlns="http://www.w3.org/2000/svg" width="185" height="26" viewBox="0 0 185 26" fill="none"><path d="M9.64984 1.93773C11.0365 1.05773 12.6365 0.991067 14.4498 1.73773C14.9565 1.95107 15.3432 2.17773 15.6098 2.41773C15.9032 2.63107 16.1565 2.9644 16.3698 3.41773C16.6098 3.8444 16.7565 4.39107 16.8098 5.05773C16.8898 5.69773 16.9565 6.55107 17.0098 7.61773C17.0632 8.65773 17.0498 9.91107 16.9698 11.3777C16.9165 14.5511 16.9165 16.4444 16.9698 17.0577C17.0498 17.6711 17.2898 18.0311 17.6898 18.1377C18.3032 18.2977 18.7565 18.7644 19.0498 19.5377C19.3432 20.2844 19.3565 21.0044 19.0898 21.6977C18.7965 22.4711 18.3832 22.8444 17.8498 22.8177C17.3165 22.7911 16.9698 22.3911 16.8098 21.6177C16.7032 21.0844 16.5032 20.7511 16.2098 20.6177C15.9165 20.4844 15.1165 20.3644 13.8098 20.2577C11.9698 20.1244 9.64984 20.1244 6.84984 20.2577L2.68984 20.4977L2.56984 21.9377C2.48984 22.8711 2.24984 23.3511 1.84984 23.3777C1.47651 23.4044 1.15651 22.9644 0.889844 22.0577C0.649844 21.1244 0.689844 20.3644 1.00984 19.7777C1.32984 19.1644 1.91651 18.7777 2.76984 18.6177C3.40984 18.5111 3.86318 18.3111 4.12984 18.0177C4.39651 17.6977 4.76984 16.9111 5.24984 15.6577C5.67651 14.6177 5.95651 13.7244 6.08984 12.9777C6.24984 12.2311 6.31651 11.3244 6.28984 10.2577C6.26318 7.9644 6.48984 6.2044 6.96984 4.97773C7.47651 3.75107 8.36984 2.73773 9.64984 1.93773ZM14.0498 4.01773C13.7298 3.69773 13.1565 3.49773 12.3298 3.41773C11.5298 3.31107 10.8898 3.37773 10.4098 3.61773C9.74318 3.9644 9.26318 4.61773 8.96984 5.57773C8.67651 6.51107 8.44984 8.11107 8.28984 10.3777C8.07651 13.2311 7.67651 15.2044 7.08984 16.2977C6.50318 17.4711 6.24984 18.0844 6.32984 18.1377C6.40984 18.1911 7.74318 18.1644 10.3298 18.0577L14.1698 17.8977L14.4498 14.1777C14.6365 11.9111 14.6765 9.7244 14.5698 7.61773C14.4898 5.4844 14.3165 4.2844 14.0498 4.01773ZM26.6858 6.97773C27.2724 6.55107 28.4324 6.37773 30.1658 6.45773C31.2858 6.53773 32.0458 6.65773 32.4458 6.81773C32.8724 6.97773 33.3391 7.33773 33.8458 7.89773C34.3524 8.4844 34.6724 8.99107 34.8058 9.41773C34.9391 9.8444 35.0058 10.6311 35.0058 11.7777C35.0058 14.3377 34.4058 16.2844 33.2058 17.6177C32.0058 18.9244 30.2724 19.5777 28.0058 19.5777H26.2058V21.7377C26.2058 23.0711 26.1124 23.9777 25.9258 24.4577C25.7658 24.9377 25.4591 25.1777 25.0058 25.1777C24.5258 25.1777 24.2058 24.9244 24.0458 24.4177C23.8858 23.9111 23.8058 22.8977 23.8058 21.3777C23.8058 19.7511 23.6058 18.7511 23.2058 18.3777C22.7258 18.0044 22.5124 17.3777 22.5658 16.4977C22.5924 15.9377 22.7524 15.6577 23.0458 15.6577C23.0724 15.6844 23.1124 15.6977 23.1658 15.6977C23.5658 15.8577 23.8591 15.0177 24.0458 13.1777C24.1524 12.3244 24.2058 11.3377 24.2058 10.2177C24.2058 8.13773 24.5124 7.15107 25.1258 7.25773C25.2058 7.25773 25.2858 7.2844 25.3658 7.33773C25.6591 7.5244 26.0991 7.4044 26.6858 6.97773ZM31.7258 9.01773C31.0058 8.51107 30.1391 8.29773 29.1258 8.37773C28.1391 8.45773 27.3658 8.79107 26.8058 9.37773C26.3258 9.8044 26.0324 10.2577 25.9258 10.7377C25.8458 11.1911 25.8058 12.2044 25.8058 13.7777V17.1777H27.3658C29.2324 17.1777 30.5658 16.7511 31.3658 15.8977C32.1924 15.0444 32.6058 13.6177 32.6058 11.6177C32.6058 10.8177 32.5391 10.2444 32.4058 9.89773C32.2991 9.55107 32.0724 9.25773 31.7258 9.01773ZM43.5089 7.85773C45.6689 6.79107 47.5089 6.91107 49.0289 8.21773C49.8022 8.85773 50.2156 9.6044 50.2689 10.4577C50.3489 11.3111 50.0556 12.0444 49.3889 12.6577C48.9889 13.0311 48.0422 13.4844 46.5489 14.0177C45.0556 14.5244 43.4689 14.9644 41.7889 15.3377C41.3356 15.4444 41.0289 15.5911 40.8689 15.7777C40.7356 15.9644 40.6689 16.2977 40.6689 16.7777C40.6689 17.3111 40.7356 17.6444 40.8689 17.7777C41.0289 17.9111 41.4022 17.9777 41.9889 17.9777C42.9222 17.9777 44.3489 17.7911 46.2689 17.4177C47.7889 17.1244 48.8289 17.0311 49.3889 17.1377C49.9756 17.2444 50.2689 17.6044 50.2689 18.2177C50.2689 18.9911 48.0556 19.5244 43.6289 19.8177C41.3889 19.9777 39.9356 19.9244 39.2689 19.6577C38.6022 19.3644 38.2689 18.6844 38.2689 17.6177C38.2689 15.8044 38.8022 13.8977 39.8689 11.8977C40.9622 9.87107 42.1756 8.5244 43.5089 7.85773ZM47.7889 9.65773C47.2289 9.09773 46.2422 9.1244 44.8289 9.73773C44.2422 10.0044 43.5622 10.5644 42.7889 11.4177C42.0422 12.2711 41.7756 12.8044 41.9889 13.0177C42.0956 13.1511 42.8156 13.0577 44.1489 12.7377C45.4822 12.3911 46.4956 12.0444 47.1889 11.6977C48.3622 11.0844 48.5622 10.4044 47.7889 9.65773ZM58.4614 7.37773C59.3147 6.97773 59.9947 6.77773 60.5014 6.77773C61.1147 6.77773 61.7547 7.0844 62.4214 7.69773C63.1147 8.2844 63.4614 8.8444 63.4614 9.37773C63.4614 9.9644 63.2614 10.3377 62.8614 10.4977C62.4614 10.6577 62.1281 10.4844 61.8614 9.97773C61.3547 9.07107 60.5414 8.89773 59.4214 9.45773C58.3281 10.0177 57.4081 11.0577 56.6614 12.5777C56.1281 13.6711 55.9014 14.8311 55.9814 16.0577C56.0881 17.2577 56.4481 18.0311 57.0614 18.3777C57.5947 18.6711 58.6747 18.8044 60.3014 18.7777C61.9281 18.7511 62.9681 18.5911 63.4214 18.2977C63.9014 18.0044 64.3547 17.9511 64.7814 18.1377C65.2347 18.2977 65.4614 18.6311 65.4614 19.1377C65.4614 20.7644 63.0081 21.4711 58.1014 21.2577C57.0881 21.2044 56.1414 20.7511 55.2614 19.8977C54.4081 19.0444 53.8747 18.0444 53.6614 16.8977C53.3947 15.1911 53.7414 13.3777 54.7014 11.4577C55.6614 9.51107 56.9147 8.15107 58.4614 7.37773ZM73.6177 7.37773C74.471 6.97773 75.151 6.77773 75.6577 6.77773C76.271 6.77773 76.911 7.0844 77.5777 7.69773C78.271 8.2844 78.6177 8.8444 78.6177 9.37773C78.6177 9.9644 78.4177 10.3377 78.0177 10.4977C77.6177 10.6577 77.2843 10.4844 77.0177 9.97773C76.511 9.07107 75.6977 8.89773 74.5777 9.45773C73.4843 10.0177 72.5643 11.0577 71.8177 12.5777C71.2843 13.6711 71.0577 14.8311 71.1377 16.0577C71.2443 17.2577 71.6043 18.0311 72.2177 18.3777C72.751 18.6711 73.831 18.8044 75.4577 18.7777C77.0843 18.7511 78.1243 18.5911 78.5777 18.2977C79.0577 18.0044 79.511 17.9511 79.9377 18.1377C80.391 18.2977 80.6177 18.6311 80.6177 19.1377C80.6177 20.7644 78.1643 21.4711 73.2577 21.2577C72.2443 21.2044 71.2977 20.7511 70.4177 19.8977C69.5643 19.0444 69.031 18.0444 68.8177 16.8977C68.551 15.1911 68.8977 13.3777 69.8577 11.4577C70.8177 9.51107 72.071 8.15107 73.6177 7.37773ZM100.583 13.0577C101.543 12.9777 103.303 12.9377 105.863 12.9377C107.357 12.9644 108.357 13.0311 108.863 13.1377C109.37 13.2177 109.703 13.4044 109.863 13.6977C110.05 13.9911 110.117 14.2311 110.063 14.4177C110.037 14.5777 109.85 14.7777 109.503 15.0177C109.183 15.2577 108.663 15.4044 107.943 15.4577C107.223 15.5111 105.877 15.4844 103.903 15.3777C100.73 15.2444 99.0099 15.0444 98.7433 14.7777C98.5299 14.5377 98.4499 14.2977 98.5033 14.0577C98.5833 13.8177 98.8099 13.6044 99.1833 13.4177C99.5566 13.2311 100.023 13.1111 100.583 13.0577ZM131.355 7.13773C131.355 7.03107 131.422 6.95107 131.555 6.89773C131.715 6.81773 131.902 6.8044 132.115 6.85773C132.355 6.91107 132.529 7.11107 132.635 7.45773C132.769 7.77773 132.862 8.37773 132.915 9.25773L133.035 11.5377L136.275 9.33773C138.382 7.89773 139.609 7.21773 139.955 7.29773C141.075 7.69773 140.289 8.79107 137.595 10.5777C136.769 11.1111 136.062 11.6044 135.475 12.0577C134.915 12.5111 134.649 12.7777 134.675 12.8577C134.755 13.0444 135.795 14.0311 137.795 15.8177C139.422 17.2844 140.435 18.2844 140.835 18.8177C141.262 19.3244 141.395 19.7911 141.235 20.2177C140.942 20.9644 140.155 20.8444 138.875 19.8577C138.262 19.3777 137.449 18.6444 136.435 17.6577L133.195 14.5777L133.075 17.2577C132.995 18.6444 132.809 19.5911 132.515 20.0977C132.222 20.6044 131.795 20.7511 131.235 20.5377C130.969 20.4311 130.795 20.1244 130.715 19.6177C130.635 19.1111 130.595 18.0977 130.595 16.5777V12.8577L129.435 12.3777C128.715 12.1111 128.262 11.7911 128.075 11.4177C127.889 11.0444 127.969 10.7644 128.315 10.5777C128.689 10.3644 129.249 10.3511 129.995 10.5377C130.422 10.6444 130.689 10.6444 130.795 10.5377C130.929 10.4311 131.009 10.1111 131.035 9.57773C131.062 8.8044 131.115 8.27107 131.195 7.97773C131.195 7.89773 131.209 7.7644 131.235 7.57773C131.289 7.3644 131.329 7.21773 131.355 7.13773ZM145.917 6.93773C146.53 6.35107 147.024 5.97773 147.397 5.81773C147.797 5.65773 148.437 5.57773 149.317 5.57773C151.504 5.57773 153.157 6.21773 154.277 7.49773C154.65 7.89773 154.944 8.0844 155.157 8.05773C155.37 8.0044 155.89 7.67107 156.717 7.05773C156.77 7.0044 156.81 6.9644 156.837 6.93773C159.264 5.09773 161.317 5.03107 162.997 6.73773C164.624 8.39107 164.597 10.6577 162.917 13.5377C161.69 15.6444 160.064 17.4711 158.037 19.0177C156.01 20.5377 154.45 21.0977 153.357 20.6977C152.45 20.3511 151.064 19.2711 149.197 17.4577C147.357 15.6177 146.157 14.1644 145.597 13.0977C144.877 11.6311 144.544 10.4444 144.597 9.53773C144.65 8.63107 145.09 7.7644 145.917 6.93773ZM151.557 8.05773C150.944 7.7644 150.184 7.61773 149.277 7.61773C148.397 7.59107 147.73 7.7244 147.277 8.01773C146.797 8.2844 146.57 8.9244 146.597 9.93773C146.624 10.9244 146.877 11.8311 147.357 12.6577C147.677 13.1911 148.837 14.3511 150.837 16.1377C152.837 17.9244 154.077 18.9111 154.557 19.0977C154.77 19.1777 155.877 18.2444 157.877 16.2977C160.304 13.9511 161.704 11.9244 162.077 10.2177C162.344 8.99107 161.904 8.37773 160.757 8.37773C160.117 8.37773 159.424 8.57773 158.677 8.97773C157.93 9.35107 157.237 9.87107 156.597 10.5377C155.93 11.2577 155.344 11.5911 154.837 11.5377C154.357 11.4577 153.877 10.9644 153.397 10.0577C153.184 9.63107 152.904 9.23107 152.557 8.85773C152.21 8.45773 151.877 8.19107 151.557 8.05773ZM176.248 6.93773C176.941 6.61773 177.408 6.4444 177.648 6.41773C177.888 6.39107 178.221 6.45773 178.648 6.61773C179.314 6.8844 179.781 7.53773 180.048 8.57773C180.314 9.61773 180.448 11.2711 180.448 13.5377V17.9377L181.848 18.6177C182.781 19.0444 183.394 19.5244 183.688 20.0577C183.981 20.5911 183.968 21.2311 183.648 21.9777C183.381 22.6444 183.048 23.0977 182.648 23.3377C182.274 23.5777 181.941 23.5777 181.648 23.3377C181.381 23.0711 181.248 22.6177 181.248 21.9777C181.248 21.1511 180.914 20.6177 180.248 20.3777C179.608 20.1111 178.248 19.9777 176.168 19.9777C174.008 19.9777 172.421 20.1777 171.408 20.5777C170.394 20.9777 169.808 21.6444 169.648 22.5777C169.541 23.1377 169.341 23.5244 169.048 23.7377C168.781 23.9244 168.501 23.8977 168.208 23.6577C167.941 23.4177 167.741 23.0177 167.608 22.4577C167.448 21.6844 167.421 20.9777 167.528 20.3377C167.661 19.9377 168.074 19.5111 168.768 19.0577C169.461 18.6044 170.074 18.3777 170.608 18.3777C171.034 18.3777 171.314 18.1911 171.448 17.8177C171.608 17.4177 171.808 16.3911 172.048 14.7377C172.261 13.4311 172.461 12.1511 172.648 10.8977C172.808 10.2577 173.274 9.51107 174.048 8.65773C174.821 7.8044 175.554 7.23107 176.248 6.93773ZM178.248 12.9777C178.248 10.2577 178.061 8.7644 177.688 8.49773C177.421 8.2844 176.901 8.4444 176.128 8.97773C174.874 9.85773 174.048 11.6177 173.648 14.2577C173.434 15.5644 173.234 16.5511 173.048 17.2177C172.941 17.5644 172.994 17.7777 173.208 17.8577C173.448 17.9377 174.088 17.9777 175.128 17.9777C176.674 17.9777 177.581 17.8711 177.848 17.6577C178.114 17.4711 178.248 15.9111 178.248 12.9777Z" fill="#253758"></path></svg> 