<?xml version="1.0" encoding="UTF-8"?> <svg xmlns="http://www.w3.org/2000/svg" width="215" height="70" viewBox="0 0 215 70" fill="none"><path d="M28.1711 54.1011C28.1711 51.4771 28.9391 49.3651 30.4751 47.7651C32.0111 46.1491 34.0351 45.3411 36.5471 45.3411C38.2751 45.3411 39.7391 45.8531 40.9391 46.8771C41.0511 46.9891 41.1391 47.1491 41.2031 47.3571L41.3711 47.3091C41.3391 47.1491 41.3151 46.9171 41.2991 46.6131L41.2511 44.8611H41.4671L41.6831 51.7971L41.2511 51.8211L41.1791 49.5891C41.1151 48.5331 40.5951 47.6291 39.6191 46.8771C38.6591 46.1251 37.5711 45.7491 36.3551 45.7491C34.3871 45.7491 32.8831 46.4291 31.8431 47.7891C30.8191 49.1491 30.3071 51.1251 30.3071 53.7171C30.3071 56.5811 30.8431 58.7731 31.9151 60.2931C33.0031 61.7971 34.5711 62.5491 36.6191 62.5491C37.7871 62.5491 38.8671 62.2531 39.8591 61.6611C40.8511 61.0691 41.5471 60.2691 41.9471 59.2611L42.3551 59.4291C41.9071 60.5811 41.1551 61.4611 40.0991 62.0691C39.0591 62.6771 37.8831 62.9811 36.5711 62.9811C34.0591 62.9811 32.0271 62.1651 30.4751 60.5331C28.9391 58.9011 28.1711 56.7571 28.1711 54.1011ZM43.4193 62.7891V62.5491H44.2593C44.8353 62.5491 45.1873 62.4851 45.3153 62.3571C45.4593 62.2131 45.5313 61.8531 45.5313 61.2771V47.0211C45.5313 46.4451 45.4593 46.0931 45.3153 45.9651C45.1873 45.8211 44.8353 45.7491 44.2593 45.7491H43.4193V45.5331H53.4033C53.6913 45.5331 53.9073 45.6051 54.0513 45.7491H54.0753L53.9793 44.1171L54.1953 44.0931L54.6513 51.1251H54.2193L54.1233 49.4451C54.0593 48.2291 53.6273 47.3491 52.8273 46.8051C52.0433 46.2451 51.0273 45.9651 49.7793 45.9651H46.8753V45.9891C47.2273 46.3411 47.4033 46.7571 47.4033 47.2371V53.4291H49.0833C51.2593 53.4291 53.0033 53.8611 54.3153 54.7251C55.6433 55.5731 56.3073 56.7011 56.3073 58.1091C56.3073 59.5171 55.6993 60.6531 54.4833 61.5171C53.2833 62.3651 51.6913 62.7891 49.7073 62.7891H43.4193ZM47.4033 53.8371V61.0851C47.4033 61.6291 47.2673 62.0371 46.9953 62.3091V62.3571H49.2513C50.8673 62.3571 52.0993 61.9971 52.9473 61.2771C53.7953 60.5411 54.2193 59.4851 54.2193 58.1091C54.2193 56.7171 53.7793 55.6611 52.8993 54.9411C52.0353 54.2051 50.7713 53.8371 49.1073 53.8371H47.4033ZM66.3697 62.9811C63.6977 62.9811 61.5457 62.1731 59.9137 60.5571C58.2817 58.9411 57.4657 56.8051 57.4657 54.1491C57.4657 51.5091 58.2817 49.3811 59.9137 47.7651C61.5457 46.1491 63.6977 45.3411 66.3697 45.3411C69.0257 45.3411 71.1617 46.1491 72.7777 47.7651C74.4097 49.3811 75.2257 51.5091 75.2257 54.1491C75.2257 56.8051 74.4097 58.9411 72.7777 60.5571C71.1617 62.1731 69.0257 62.9811 66.3697 62.9811ZM66.4417 62.5491C68.6177 62.5491 70.2737 61.8691 71.4097 60.5091C72.5617 59.1491 73.1377 57.1811 73.1377 54.6051C73.1377 51.7411 72.5457 49.5571 71.3617 48.0531C70.1937 46.5331 68.4977 45.7731 66.2737 45.7731C64.0817 45.7731 62.4097 46.4531 61.2577 47.8131C60.1217 49.1731 59.5537 51.1411 59.5537 53.7171C59.5537 56.5811 60.1377 58.7731 61.3057 60.2931C62.4897 61.7971 64.2017 62.5491 66.4417 62.5491ZM79.9719 45.9891V46.1091C80.2439 46.4771 80.3799 46.9731 80.3799 47.5971V55.6371H81.7239C83.2439 55.6371 84.3959 55.2291 85.1799 54.4131C85.9799 53.5811 86.3799 52.3811 86.3799 50.8131C86.3799 49.2451 85.9799 48.0531 85.1799 47.2371C84.3959 46.4051 83.2439 45.9891 81.7239 45.9891H79.9719ZM76.3959 62.7891V62.5731H77.2359C77.8119 62.5731 78.1639 62.5091 78.2919 62.3811C78.4359 62.2371 78.5079 61.8771 78.5079 61.3011V47.0211C78.5079 46.4451 78.4359 46.0931 78.2919 45.9651C78.1639 45.8211 77.8119 45.7491 77.2359 45.7491H76.3959V45.5331H82.4439C84.2519 45.5331 85.7079 46.0211 86.8119 46.9971C87.9159 47.9571 88.4679 49.2291 88.4679 50.8131C88.4679 52.3971 87.9159 53.6691 86.8119 54.6291C85.7079 55.5891 84.2519 56.0691 82.4439 56.0691H80.3799V61.3011C80.3799 61.8771 80.4519 62.2371 80.5959 62.3811C80.7399 62.5091 81.0999 62.5731 81.6759 62.5731H82.2759V62.7891H76.3959ZM95.8959 62.7891V62.5731H96.7359C97.3119 62.5731 97.6639 62.5091 97.7919 62.3811C97.9359 62.2371 98.0079 61.8771 98.0079 61.3011V47.0211C98.0079 46.4451 97.9359 46.0931 97.7919 45.9651C97.6639 45.8211 97.3119 45.7491 96.7359 45.7491H95.8959V45.5331H104.92C105.208 45.5331 105.424 45.6051 105.568 45.7491H105.592L105.496 44.1171L105.712 44.0931L106.168 51.1251H105.736L105.64 49.4451C105.576 48.2291 105.152 47.3491 104.368 46.8051C103.584 46.2451 102.56 45.9651 101.296 45.9651H99.3519V45.9891C99.7039 46.3411 99.8799 46.7571 99.8799 47.2371V61.3011C99.8799 61.8771 99.9519 62.2371 100.096 62.3811C100.24 62.5091 100.6 62.5731 101.176 62.5731H102.736V62.7891H95.8959ZM116.104 62.9811C113.432 62.9811 111.28 62.1731 109.648 60.5571C108.016 58.9411 107.2 56.8051 107.2 54.1491C107.2 51.5091 108.016 49.3811 109.648 47.7651C111.28 46.1491 113.432 45.3411 116.104 45.3411C118.76 45.3411 120.896 46.1491 122.512 47.7651C124.144 49.3811 124.96 51.5091 124.96 54.1491C124.96 56.8051 124.144 58.9411 122.512 60.5571C120.896 62.1731 118.76 62.9811 116.104 62.9811ZM116.176 62.5491C118.352 62.5491 120.008 61.8691 121.144 60.5091C122.296 59.1491 122.872 57.1811 122.872 54.6051C122.872 51.7411 122.28 49.5571 121.096 48.0531C119.928 46.5331 118.232 45.7731 116.008 45.7731C113.816 45.7731 112.144 46.4531 110.992 47.8131C109.856 49.1731 109.288 51.1411 109.288 53.7171C109.288 56.5811 109.872 58.7731 111.04 60.2931C112.224 61.7971 113.936 62.5491 116.176 62.5491ZM126.913 54.1011C126.913 51.4771 127.681 49.3651 129.217 47.7651C130.753 46.1491 132.777 45.3411 135.289 45.3411C137.017 45.3411 138.481 45.8531 139.681 46.8771C139.793 46.9891 139.881 47.1491 139.945 47.3571L140.113 47.3091C140.081 47.1491 140.057 46.9171 140.041 46.6131L139.993 44.8611H140.209L140.425 51.7971L139.993 51.8211L139.921 49.5891C139.857 48.5331 139.337 47.6291 138.361 46.8771C137.401 46.1251 136.313 45.7491 135.097 45.7491C133.129 45.7491 131.625 46.4291 130.585 47.7891C129.561 49.1491 129.049 51.1251 129.049 53.7171C129.049 56.5811 129.585 58.7731 130.657 60.2931C131.745 61.7971 133.313 62.5491 135.361 62.5491C136.529 62.5491 137.609 62.2531 138.601 61.6611C139.593 61.0691 140.289 60.2691 140.689 59.2611L141.097 59.4291C140.649 60.5811 139.897 61.4611 138.841 62.0691C137.801 62.6771 136.625 62.9811 135.313 62.9811C132.801 62.9811 130.769 62.1651 129.217 60.5331C127.681 58.9011 126.913 56.7571 126.913 54.1011ZM143.92 62.7891V62.5731H145.744C146.32 62.5731 146.672 62.5091 146.8 62.3811C146.944 62.2371 147.016 61.8771 147.016 61.3011V45.9651H145.576C144.376 45.9651 143.552 46.1491 143.104 46.5171C142.656 46.8691 142.4 47.6051 142.336 48.7251L142.264 49.7091L141.832 49.6851L142.192 44.1171L142.456 44.1411L142.336 45.5331H153.52L153.4 44.1651L153.664 44.1411L154.024 49.6851L153.592 49.7091L153.52 48.7251C153.44 47.6051 153.176 46.8691 152.728 46.5171C152.28 46.1491 151.464 45.9651 150.28 45.9651H148.888V61.3011C148.888 61.8771 148.952 62.2371 149.08 62.3811C149.224 62.5091 149.584 62.5731 150.16 62.5731H151.936V62.7891H143.92ZM157.078 53.4291C157.078 53.5251 157.078 53.6211 157.078 53.7171C157.078 56.5491 157.678 58.7331 158.878 60.2691C160.094 61.7891 161.742 62.5491 163.822 62.5491C165.422 62.5491 166.838 62.2291 168.07 61.5891C169.302 60.9331 170.27 60.0131 170.974 58.8291L171.31 59.0931C170.558 60.3251 169.526 61.2851 168.214 61.9731C166.918 62.6451 165.43 62.9811 163.75 62.9811C161.206 62.9811 159.102 62.1651 157.438 60.5331C155.774 58.8851 154.942 56.7411 154.942 54.1011C154.942 51.4771 155.75 49.3651 157.366 47.7651C158.998 46.1491 161.142 45.3411 163.798 45.3411C165.942 45.3411 167.758 46.0211 169.246 47.3811C170.734 48.7411 171.478 50.4851 171.478 52.6131V52.7331C171.478 52.9251 171.406 53.0931 171.262 53.2371C171.118 53.3651 170.942 53.4291 170.734 53.4291H157.078ZM157.102 52.9971L169.15 52.8291C169.278 52.8291 169.342 52.7571 169.342 52.6131C169.342 50.5651 168.822 48.9171 167.782 47.6691C166.758 46.4051 165.398 45.7731 163.702 45.7731C161.654 45.7731 160.062 46.3891 158.926 47.6211C157.806 48.8531 157.198 50.6451 157.102 52.9971ZM172.701 62.7891V62.5731H173.541C174.101 62.5731 174.453 62.4771 174.597 62.2851C174.741 62.0931 174.813 61.6931 174.813 61.0851V47.2371C174.813 46.6291 174.741 46.2291 174.597 46.0371C174.453 45.8451 174.101 45.7491 173.541 45.7491H172.701V45.5331H178.605V45.7491H177.981C177.421 45.7491 177.061 45.8451 176.901 46.0371C176.757 46.2291 176.685 46.6291 176.685 47.2371V61.1571L183.501 45.5331H187.269V45.7491H186.405C185.845 45.7491 185.493 45.8451 185.349 46.0371C185.205 46.2291 185.133 46.6291 185.133 47.2371V61.0851C185.133 61.6931 185.205 62.0931 185.349 62.2851C185.493 62.4771 185.845 62.5731 186.405 62.5731H187.269V62.7891H181.341V62.5731H181.989C182.549 62.5731 182.901 62.4771 183.045 62.2851C183.189 62.0931 183.261 61.6931 183.261 61.0851V47.1651L176.445 62.7891H172.701ZM177.021 41.2131L177.885 41.1411C177.885 41.7971 178.125 42.3651 178.605 42.8451C179.085 43.3091 179.661 43.5411 180.333 43.5411C181.005 43.5411 181.581 43.3091 182.061 42.8451C182.541 42.3651 182.781 41.7971 182.781 41.1411L183.645 41.2131C183.645 41.9811 183.317 42.6371 182.661 43.1811C182.021 43.7091 181.245 43.9731 180.333 43.9731C179.421 43.9731 178.637 43.7091 177.981 43.1811C177.341 42.6371 177.021 41.9811 177.021 41.2131Z" fill="black"></path><path d="M89.8241 24.3809H82.6961V24.1649H84.2321C84.8081 24.1649 85.1681 24.0849 85.3121 23.9249C85.4561 23.7649 85.5281 23.3489 85.5281 22.6769V11.4449C85.5281 10.8529 85.5521 10.3889 85.6001 10.0529L85.5041 10.0049C85.3121 10.2929 85.1121 10.5409 84.9041 10.7489L83.2961 12.5729L83.1281 12.4529L84.0641 11.2769C85.9681 8.84486 86.9201 7.39686 86.9201 6.93286H87.2321V22.6769C87.2321 23.3489 87.2961 23.7649 87.4241 23.9249C87.5681 24.0849 87.9281 24.1649 88.5041 24.1649H89.8241V24.3809ZM99.9852 8.63686V11.1089H99.7692V10.7729C99.5932 9.84486 99.2332 9.04486 98.6892 8.37286C98.1452 7.70086 97.3692 7.36486 96.3612 7.36486C95.2092 7.36486 94.3132 8.20486 93.6732 9.88486C93.0332 11.5489 92.7132 13.6769 92.7132 16.2689H92.8092C93.1612 15.3729 93.6652 14.6929 94.3212 14.2289C94.9772 13.7489 95.6892 13.5089 96.4572 13.5089C97.8012 13.5089 98.8812 14.0289 99.6972 15.0689C100.529 16.0929 100.945 17.4529 100.945 19.1489C100.945 20.8289 100.489 22.1569 99.5772 23.1329C98.6652 24.0929 97.4492 24.5729 95.9292 24.5729C94.4252 24.5729 93.2092 23.8369 92.2812 22.3649C91.3692 20.8769 90.9132 18.9169 90.9132 16.4849C90.9132 13.6209 91.4092 11.3169 92.4012 9.57286C93.4092 7.81286 94.7292 6.93286 96.3612 6.93286C96.6172 6.93286 96.8652 6.95686 97.1052 7.00486C97.3612 7.05286 97.5932 7.12486 97.8012 7.22086C98.0252 7.30086 98.2252 7.38086 98.4012 7.46086C98.5772 7.54086 98.7532 7.65286 98.9292 7.79686C99.1212 7.92486 99.2572 8.02886 99.3372 8.10886C99.4332 8.17286 99.5532 8.27686 99.6972 8.42086C99.8572 8.54886 99.9532 8.62086 99.9852 8.63686ZM99.1212 19.1489C99.1212 17.4529 98.8812 16.1649 98.4012 15.2849C97.9212 14.3889 97.2252 13.9409 96.3132 13.9409C95.4332 13.9409 94.6332 14.4289 93.9132 15.4049C93.1932 16.3649 92.8252 17.5649 92.8092 19.0049C92.9372 20.6529 93.2652 21.9249 93.7932 22.8209C94.3372 23.7009 95.0492 24.1409 95.9292 24.1409C96.9692 24.1409 97.7612 23.7169 98.3052 22.8689C98.8492 22.0049 99.1212 20.7649 99.1212 19.1489ZM104.144 22.4609C104.464 22.4609 104.72 22.5569 104.912 22.7489C105.104 22.9409 105.2 23.2049 105.2 23.5409C105.2 23.8609 105.104 24.1169 104.912 24.3089C104.736 24.5009 104.48 24.5969 104.144 24.5969C103.824 24.5969 103.56 24.5089 103.352 24.3329C103.16 24.1409 103.064 23.8769 103.064 23.5409C103.064 23.2209 103.16 22.9649 103.352 22.7729C103.544 22.5649 103.808 22.4609 104.144 22.4609ZM104.144 14.0369C104.464 14.0369 104.72 14.1329 104.912 14.3249C105.104 14.5169 105.2 14.7809 105.2 15.1169C105.2 15.4369 105.104 15.6929 104.912 15.8849C104.736 16.0769 104.48 16.1729 104.144 16.1729C103.824 16.1729 103.56 16.0849 103.352 15.9089C103.16 15.7169 103.064 15.4529 103.064 15.1169C103.064 14.7969 103.16 14.5409 103.352 14.3489C103.544 14.1409 103.808 14.0369 104.144 14.0369ZM112.911 7.36486C111.647 7.36486 110.679 8.01286 110.007 9.30886C109.351 10.5889 109.023 12.4529 109.023 14.9009C109.023 17.9089 109.367 20.2049 110.055 21.7889C110.759 23.3569 111.767 24.1409 113.079 24.1409C114.343 24.1409 115.311 23.5009 115.983 22.2209C116.655 20.9249 116.991 19.0529 116.991 16.6049C116.991 13.5969 116.639 11.3089 115.935 9.74086C115.247 8.15686 114.239 7.36486 112.911 7.36486ZM108.807 9.35686C109.879 7.74086 111.279 6.93286 113.007 6.93286C114.735 6.93286 116.127 7.74086 117.183 9.35686C118.255 10.9729 118.791 13.1009 118.791 15.7409C118.791 18.3969 118.255 20.5329 117.183 22.1489C116.127 23.7649 114.735 24.5729 113.007 24.5729C111.279 24.5729 109.879 23.7649 108.807 22.1489C107.751 20.5329 107.223 18.3969 107.223 15.7409C107.223 13.1009 107.751 10.9729 108.807 9.35686ZM125.943 7.36486C124.679 7.36486 123.711 8.01286 123.039 9.30886C122.383 10.5889 122.055 12.4529 122.055 14.9009C122.055 17.9089 122.399 20.2049 123.087 21.7889C123.791 23.3569 124.799 24.1409 126.111 24.1409C127.375 24.1409 128.343 23.5009 129.015 22.2209C129.687 20.9249 130.023 19.0529 130.023 16.6049C130.023 13.5969 129.671 11.3089 128.967 9.74086C128.279 8.15686 127.271 7.36486 125.943 7.36486ZM121.839 9.35686C122.911 7.74086 124.311 6.93286 126.039 6.93286C127.767 6.93286 129.159 7.74086 130.215 9.35686C131.287 10.9729 131.823 13.1009 131.823 15.7409C131.823 18.3969 131.287 20.5329 130.215 22.1489C129.159 23.7649 127.767 24.5729 126.039 24.5729C124.311 24.5729 122.911 23.7649 121.839 22.1489C120.783 20.5329 120.255 18.3969 120.255 15.7409C120.255 13.1009 120.783 10.9729 121.839 9.35686Z" fill="black"></path></svg> 