<?xml version="1.0" encoding="UTF-8"?> <svg xmlns="http://www.w3.org/2000/svg" width="135" height="27" viewBox="0 0 135 27" fill="none"><path d="M0.0789219 26.1406V24.9526C0.798922 24.9526 1.35092 24.7606 1.73492 24.3766C2.11892 23.9926 2.43092 23.4646 2.67092 22.7926C2.93492 22.1206 3.23492 21.3406 3.57092 20.4526L10.9869 0.256624H11.8509L19.8789 20.7406C20.0709 21.2446 20.2869 21.8926 20.5269 22.6846C20.7669 23.4766 20.8629 24.1486 20.8149 24.7006C21.2229 24.6766 21.6309 24.6526 22.0389 24.6286C22.4469 24.6046 22.8549 24.5806 23.2629 24.5566V26.1406H15.0189V24.9526C15.9309 24.9286 16.5309 24.7246 16.8189 24.3406C17.1069 23.9566 17.2149 23.5006 17.1429 22.9726C17.0709 22.4446 16.9509 21.9646 16.7829 21.5326L15.5229 18.1486L6.16292 18.3646L4.90292 22.2166C4.73492 22.7926 4.57892 23.2486 4.43492 23.5846C4.31492 23.9206 4.17092 24.2926 4.00292 24.7006C4.48292 24.6766 4.95092 24.6526 5.40692 24.6286C5.88692 24.6046 6.35492 24.5806 6.81092 24.5566V26.1406H0.0789219ZM6.70292 16.8166H15.0189L12.4629 9.94062C12.1989 9.19662 11.9229 8.46462 11.6349 7.74462C11.3709 7.00062 11.1069 6.25662 10.8429 5.51262H10.7709C10.5309 6.18462 10.2789 6.85662 10.0149 7.52862C9.77492 8.20062 9.52292 8.88462 9.25892 9.58062L6.70292 16.8166ZM24.8101 26.1406V24.9526C25.7221 24.9286 26.3461 24.7246 26.6821 24.3406C27.0181 23.9326 27.1981 23.3926 27.2221 22.7206C27.2701 22.0246 27.2941 21.2326 27.2941 20.3446V5.22462C27.2941 4.57662 27.3061 4.02462 27.3301 3.56862C27.3541 3.08862 27.3781 2.69262 27.4021 2.38062C26.9701 2.40462 26.5381 2.42862 26.1061 2.45262C25.6741 2.47662 25.2421 2.50062 24.8101 2.52462V0.940623C26.1301 0.916624 27.4501 0.904624 28.7701 0.904624C30.1141 0.880624 31.5061 0.868624 32.9461 0.868624C35.7301 0.868624 37.9021 1.36062 39.4621 2.34462C41.0461 3.32862 41.8141 4.88862 41.7661 7.02462C41.7661 7.79262 41.5381 8.56062 41.0821 9.32862C40.6501 10.0966 39.9901 10.7806 39.1021 11.3806C38.2381 11.9566 37.1461 12.3646 35.8261 12.6046V12.6766C38.4661 12.6766 40.4581 13.2886 41.8021 14.5126C43.1461 15.7126 43.8181 17.2366 43.8181 19.0846C43.8181 20.5486 43.4461 21.8086 42.7021 22.8646C41.9581 23.9206 40.9501 24.7366 39.6781 25.3126C38.4061 25.8646 36.9541 26.1406 35.3221 26.1406H24.8101ZM30.3181 24.7006C30.7021 24.7246 31.1581 24.7486 31.6861 24.7726C32.2381 24.7726 32.7421 24.7726 33.1981 24.7726C33.6781 24.7726 33.9901 24.7726 34.1341 24.7726C35.9821 24.7726 37.4701 24.3166 38.5981 23.4046C39.7501 22.4686 40.3261 21.1006 40.3261 19.3006C40.3261 17.8366 40.0381 16.6966 39.4621 15.8806C38.8861 15.0646 38.1301 14.4886 37.1941 14.1526C36.2581 13.8166 35.2381 13.6486 34.1341 13.6486C33.4141 13.6486 32.7541 13.6606 32.1541 13.6846C31.5781 13.6846 31.0021 13.7086 30.4261 13.7566V21.8926C30.4261 22.5406 30.4141 23.0926 30.3901 23.5486C30.3901 24.0046 30.3661 24.3886 30.3181 24.7006ZM30.4261 12.3526L33.0541 12.2806C34.4221 12.2566 35.5021 11.9806 36.2941 11.4526C37.0861 10.9006 37.6501 10.2166 37.9861 9.40062C38.3461 8.58462 38.5141 7.73262 38.4901 6.84462C38.4661 5.54862 38.1661 4.56462 37.5901 3.89262C37.0381 3.22062 36.3541 2.76462 35.5381 2.52462C34.7221 2.28462 33.9181 2.16462 33.1261 2.16462C32.3341 2.16462 31.7461 2.27262 31.3621 2.48862C30.9781 2.70462 30.7261 3.06462 30.6061 3.56862C30.4861 4.07262 30.4261 4.76862 30.4261 5.65662V12.3526ZM47.2046 26.1406V24.9526C48.1166 24.9046 48.7406 24.7006 49.0766 24.3406C49.4126 23.9566 49.5926 23.4406 49.6166 22.7926C49.6646 22.1206 49.6886 21.3646 49.6886 20.5246V4.97263C49.6886 4.49262 49.7006 4.03662 49.7246 3.60462C49.7486 3.14862 49.7726 2.74062 49.7966 2.38062C49.3646 2.40462 48.9326 2.42862 48.5006 2.45262C48.0686 2.47662 47.6366 2.50062 47.2046 2.52462V0.940623H63.9086L64.0886 7.24062H62.7566C62.7566 5.82462 62.5406 4.75662 62.1086 4.03662C61.6766 3.29262 61.1006 2.80062 60.3806 2.56062C59.6606 2.29662 58.8446 2.17662 57.9326 2.20062L55.3046 2.27262C54.4166 2.29662 53.8046 2.51262 53.4686 2.92062C53.1326 3.30462 52.9406 3.82062 52.8926 4.46862C52.8446 5.11662 52.8206 5.86062 52.8206 6.70062V21.8566C52.8206 22.5046 52.8086 23.0686 52.7846 23.5486C52.7846 24.0046 52.7606 24.3886 52.7126 24.7006C53.1206 24.6766 53.5286 24.6646 53.9366 24.6646C54.3446 24.6406 54.7526 24.6166 55.1606 24.5926C55.5686 24.5686 55.9766 24.5566 56.3846 24.5566V26.1406H47.2046ZM71.7153 26.7526C71.2113 26.7526 70.7313 26.6806 70.2753 26.5366C69.8433 26.4166 69.4833 26.2006 69.1953 25.8886C68.9073 25.5526 68.7633 25.1086 68.7633 24.5566C68.7633 23.9806 68.9313 23.5126 69.2673 23.1526C69.6033 22.7686 70.0473 22.5646 70.5993 22.5406C71.1513 22.5166 71.5593 22.6726 71.8233 23.0086C72.1113 23.3446 72.2553 23.7046 72.2553 24.0886C72.2553 24.3046 72.2313 24.4846 72.1833 24.6286C72.1353 24.7486 72.0513 24.8686 71.9313 24.9886C72.0513 25.0126 72.1593 25.0486 72.2553 25.0966C72.3513 25.1206 72.4473 25.1326 72.5433 25.1326C73.0713 25.1326 73.6353 24.5926 74.2353 23.5126C74.4033 23.2486 74.6553 22.7326 74.9913 21.9646C75.3273 21.1726 75.7233 20.2246 76.1793 19.1206C76.6353 18.0166 77.1153 16.8526 77.6193 15.6286C78.1233 14.3806 78.6033 13.1566 79.0593 11.9566C79.5393 10.7326 79.9713 9.62862 80.3553 8.64462C80.7393 7.63662 81.0273 6.84462 81.2193 6.26862C81.4593 5.54862 81.7233 4.80462 82.0113 4.03662C82.3233 3.26862 82.5993 2.72862 82.8393 2.41662L79.9953 2.52462V0.940623H87.3753V2.12862C86.4873 2.17662 85.7913 2.38062 85.2873 2.74062C84.7833 3.07662 84.3633 3.58062 84.0273 4.25262C83.7153 4.90062 83.3553 5.71662 82.9473 6.70062L77.1153 20.7766C76.5633 22.0966 76.0353 23.2006 75.5313 24.0886C75.0273 24.9766 74.4753 25.6486 73.8753 26.1046C73.2753 26.5366 72.5553 26.7526 71.7153 26.7526ZM75.7113 20.8486L68.4753 6.48462C67.9953 5.52462 67.6473 4.73262 67.4313 4.10862C67.2393 3.46062 67.0953 2.90862 66.9993 2.45262L64.7673 2.52462V0.940623H73.4433V2.12862C72.4353 2.12862 71.7273 2.29662 71.3193 2.63262C70.9353 2.96862 70.7793 3.43662 70.8513 4.03662C70.9473 4.61262 71.1873 5.28462 71.5713 6.05262L75.2793 13.5046C75.6153 14.1766 75.9513 14.8366 76.2873 15.4846C76.6233 16.1326 76.9473 16.7926 77.2593 17.4646L75.7113 20.8486ZM108.808 8.96862C108.568 6.71262 107.776 4.96062 106.432 3.71262C105.112 2.46462 103.408 1.84062 101.32 1.84062C100.048 1.84062 98.8479 2.11662 97.7199 2.66862C96.6159 3.19662 95.6439 3.96462 94.8039 4.97263C93.9639 5.98062 93.3039 7.19262 92.8239 8.60862C92.3439 10.0246 92.1039 11.6206 92.1039 13.3966C92.1039 15.6526 92.5359 17.6446 93.3999 19.3726C94.2639 21.1006 95.4279 22.4446 96.8919 23.4046C98.3559 24.3646 99.9759 24.8446 101.752 24.8446C103.312 24.8446 104.848 24.4966 106.36 23.8006C107.872 23.0806 109.108 22.0486 110.068 20.7046L111.004 21.4606C109.972 22.8766 108.856 23.9686 107.656 24.7366C106.456 25.5046 105.256 26.0206 104.056 26.2846C102.88 26.5726 101.8 26.7166 100.816 26.7166C99.0159 26.7166 97.3599 26.3926 95.8479 25.7446C94.3599 25.0966 93.0639 24.1966 91.9599 23.0446C90.8799 21.8686 90.0399 20.5126 89.4399 18.9766C88.8639 17.4166 88.5759 15.7366 88.5759 13.9366C88.5759 12.2326 88.8279 10.5766 89.3319 8.96862C89.8599 7.36062 90.6399 5.90862 91.6719 4.61262C92.7039 3.31662 93.9999 2.28462 95.5599 1.51662C97.1439 0.748624 98.9799 0.364624 101.068 0.364624C102.412 0.364624 103.684 0.544624 104.884 0.904624C106.084 1.26462 107.236 1.81662 108.34 2.56062L108.16 0.616623H110.104V8.96862H108.808ZM132.936 8.53662C132.912 7.12062 132.768 5.94462 132.504 5.00862C132.24 4.07262 131.772 3.37662 131.1 2.92062C130.452 2.44062 129.504 2.21262 128.256 2.23662H125.196L125.16 21.8566C125.16 22.5046 125.148 23.0686 125.124 23.5486C125.124 24.0046 125.1 24.3886 125.052 24.7006C125.556 24.6766 126.048 24.6526 126.528 24.6286C127.032 24.6046 127.536 24.5806 128.04 24.5566V26.1406H119.58V24.9526C120.492 24.9046 121.104 24.6886 121.416 24.3046C121.752 23.9206 121.932 23.4046 121.956 22.7566C122.004 22.0846 122.028 21.3406 122.028 20.5246L122.064 2.27262L118.356 2.30862C116.844 2.30862 115.776 2.81262 115.152 3.82062C114.528 4.82862 114.216 6.40062 114.216 8.53662H112.884L113.1 0.940623H134.088L134.304 8.53662H132.936Z" fill="#353434"></path></svg> 