<?xml version="1.0" encoding="UTF-8"?> <svg xmlns="http://www.w3.org/2000/svg" width="229" height="68" viewBox="0 0 229 68" fill="none"><path d="M37.9137 30.0477C38.3617 28.5757 39.3537 25.8557 40.8897 21.8877L41.6577 19.6797L42.5217 17.5677C43.0977 16.0317 43.5137 14.8477 43.7697 14.0157C43.9617 13.4397 44.3457 12.3197 44.9217 10.6557L45.4977 8.8317L46.1697 6.9117C47.0017 4.0957 47.1297 2.6237 46.5537 2.4957C45.9137 2.1757 45.0817 2.6557 44.0577 3.9357C43.7377 4.3837 43.3217 4.9917 42.8097 5.7597L42.3297 6.7197L41.7537 7.4877C40.2817 9.8557 38.2017 13.7917 35.5137 19.2957L33.9777 22.6557L32.4417 25.8237C31.2257 28.2557 30.2657 30.1437 29.5617 31.4877C30.7137 31.1037 32.0577 30.8157 33.5937 30.6237L35.7057 30.3357L37.9137 30.0477ZM3.44966 52.3197C2.87366 54.3037 2.84166 55.8077 3.35366 56.8317C3.99366 58.1117 5.46566 58.4637 7.76966 57.8877C10.9057 57.1197 14.4257 53.8557 18.3297 48.0957C19.8017 45.9197 21.2417 43.4557 22.6497 40.7037C23.8017 38.5277 24.8257 36.4157 25.7217 34.3677C20.7297 35.5837 16.2177 37.6637 12.1857 40.6077C7.64166 43.9997 4.72966 47.9037 3.44966 52.3197ZM41.8497 29.5677L43.6737 29.3757C45.2737 29.1837 46.4897 29.0557 47.3217 28.9917C47.2577 29.4397 47.2257 30.0797 47.2257 30.9117C46.3937 30.9757 45.2097 31.0717 43.6737 31.1997L41.6577 31.3917L39.5457 31.5837L39.0657 33.0237L38.3937 34.6557C37.8817 36.1277 37.4657 37.3757 37.1457 38.3997C35.9937 41.5997 35.0337 44.4797 34.2657 47.0397C31.9617 54.3997 30.6817 60.1277 30.4257 64.2237V66.1437C30.4257 66.7837 30.2657 67.1037 29.9457 67.1037C29.6897 67.1037 29.4337 66.8797 29.1777 66.4317C28.0257 64.4477 28.8577 58.5917 31.6737 48.8637C32.5697 45.7277 33.6577 42.2077 34.9377 38.3037C35.1937 37.6637 35.4497 36.9597 35.7057 36.1917C35.8977 35.6797 36.1217 35.1037 36.3777 34.4637C36.8257 33.0557 37.0817 32.2557 37.1457 32.0637C35.9297 32.0637 34.4577 32.2237 32.7297 32.5437L30.5217 33.1197L28.5057 33.5997C27.9937 34.4957 27.3537 35.6797 26.5857 37.1517L25.5297 39.1677L24.4737 41.2797C22.6177 44.7997 21.0177 47.5837 19.6737 49.6317C15.5137 56.0957 11.1297 59.5197 6.52166 59.9037C4.47366 59.5837 2.96966 58.7517 2.00966 57.4077C1.04966 55.9997 0.921656 54.3037 1.62566 52.3197C3.28966 47.2637 6.45766 42.8797 11.1297 39.1677C15.6737 35.5837 20.8897 33.2797 26.7777 32.2557C27.8017 30.5917 28.9857 28.3837 30.3297 25.6317L32.1537 21.8877L34.0737 17.9517C37.3377 11.2957 39.8657 6.6557 41.6577 4.0317C43.0657 2.0477 44.6337 0.927702 46.3617 0.671701C48.2177 0.415701 49.1457 1.4397 49.1457 3.7437C49.1457 4.1917 47.7377 8.3517 44.9217 16.2237C42.2337 23.7117 40.5697 28.2237 39.9297 29.7597L41.8497 29.5677ZM58.7404 33.3117L58.1644 35.0397C57.5244 37.0237 57.2044 38.5597 57.2044 39.6477C57.5884 40.4157 58.5804 39.7437 60.1804 37.6317L61.1404 36.2877L62.1004 34.9437C62.8684 33.8557 63.3484 33.1837 63.5404 32.9277C63.8604 32.7357 64.1484 32.7357 64.4044 32.9277L64.6924 33.3117L64.8844 33.5997C64.5644 33.9837 64.0204 34.7517 63.2524 35.9037L62.2924 37.2477L61.2364 38.5917C59.5724 40.7037 58.2284 41.6317 57.2044 41.3757C55.6044 40.9917 55.2204 39.0077 56.0524 35.4237C56.1164 35.1677 56.1804 34.9437 56.2444 34.7517L55.8604 34.9437L54.5164 35.6157C52.2124 36.8317 50.7084 37.3117 50.0044 37.0557C49.8764 37.0557 49.7804 37.0237 49.7164 36.9597L47.9884 41.4717C46.6444 41.7277 46.1004 41.2477 46.3564 40.0317C46.4204 39.5837 46.6124 38.9757 46.9324 38.2077L47.4124 37.1517L47.7964 36.1917L48.4684 34.3677L49.1404 32.6397C49.5884 31.2957 49.9404 29.9517 50.1964 28.6077C51.0284 28.1597 51.5404 28.1597 51.7324 28.6077C51.7964 28.7997 51.8284 29.0877 51.8284 29.4717L51.7324 30.3357L51.5404 31.3917L51.2524 32.4477C50.9324 33.3437 50.7724 33.8877 50.7724 34.0797L50.3884 35.1357C50.3244 35.6477 51.1244 35.4877 52.7884 34.6557C53.3644 34.3357 54.2284 33.8557 55.3804 33.2157L56.8204 32.2557L57.0124 32.1597C57.0764 31.9037 57.1724 31.6157 57.3004 31.2957C57.7484 30.0797 58.1644 29.1837 58.5484 28.6077H58.9324C59.1884 28.6077 59.4124 28.6397 59.6044 28.7037C60.1804 28.8957 60.2764 29.4397 59.8924 30.3357C59.5724 31.1677 59.2844 31.9037 59.0284 32.5437L58.8364 33.2157V33.3117H58.7404ZM77.1274 39.4557C77.1914 38.6237 77.4154 37.5037 77.7994 36.0957L78.2794 34.4637C78.4714 33.8237 78.5994 33.3757 78.6634 33.1197C78.9834 31.2637 78.5354 30.9117 77.3194 32.0637C76.4874 32.8317 75.4954 34.1437 74.3434 35.9997L72.9994 38.2077C72.4874 39.0397 72.0394 39.7117 71.6554 40.2237C71.3994 40.3517 71.0794 40.3517 70.6954 40.2237C70.3114 40.0957 70.0554 39.9357 69.9274 39.7437C69.8634 38.9117 69.9914 37.7917 70.3114 36.3837L70.8874 34.3677L71.4634 32.4477C72.4234 29.2477 72.5514 27.4237 71.8474 26.9757C71.5274 26.7837 71.0154 27.0717 70.3114 27.8397C70.1194 28.0957 69.8634 28.4157 69.5434 28.7997L69.2554 29.1837L68.9674 29.5677C67.8154 31.2317 66.5994 33.3437 65.3194 35.9037C64.1034 38.2077 63.3354 39.8717 63.0154 40.8957C61.7354 41.0877 61.0954 40.7357 61.0954 39.8397C61.0314 39.5837 61.0634 39.1997 61.1914 38.6877L61.3834 38.1117L61.4794 37.6317C61.6714 36.9917 61.8634 36.4157 62.0554 35.9037L62.5354 33.9837C62.9834 32.3837 63.2394 30.9117 63.3034 29.5677C64.5194 29.3117 65.1274 29.7277 65.1274 30.8157C65.1274 31.1997 65.0634 31.7117 64.9354 32.3517L64.7434 33.1197L64.6474 33.7917C64.9674 33.2157 65.2554 32.7357 65.5114 32.3517L65.7994 31.7757L65.9914 31.3917C66.3754 30.6877 66.9514 29.7277 67.7194 28.5117C68.4234 27.5517 69.0954 26.8157 69.7354 26.3037C70.6314 25.7277 71.5274 25.5997 72.4234 25.9197C73.8954 26.4317 74.4714 27.7437 74.1514 29.8557C74.0874 30.4957 73.8954 31.3917 73.5754 32.5437L73.1914 33.7917C73.1274 34.2397 73.0634 34.6237 72.9994 34.9437C73.3194 34.3677 73.7034 33.7917 74.1514 33.2157C74.7274 32.5117 75.2714 31.9357 75.7834 31.4877C77.1914 30.2077 78.3754 29.9197 79.3354 30.6237C80.3594 31.7117 80.6794 33.2477 80.2954 35.2317L80.0074 36.5757L79.6234 37.8237C79.3034 38.9757 79.1114 39.8717 79.0474 40.5117C79.1114 40.9597 79.8154 40.3197 81.1594 38.5917C81.6074 37.9517 82.1514 37.1837 82.7914 36.2877C83.2394 35.6477 83.6874 34.9757 84.1354 34.2717C84.5194 33.5677 84.9994 33.2477 85.5754 33.3117C86.0874 33.3757 86.1514 33.8557 85.7674 34.7517C85.6394 34.9437 85.4474 35.1997 85.1914 35.5197L84.9034 36.0957L84.5194 36.5757C83.8794 37.5357 83.3354 38.3357 82.8874 38.9757C81.4154 40.8957 80.3274 41.8877 79.6234 41.9517C77.8954 42.2077 77.0634 41.3757 77.1274 39.4557ZM100.13 30.6237C99.5539 30.7517 97.4739 30.9117 93.8899 31.1037C94.7859 33.2157 94.2099 35.4237 92.1619 37.7277C90.1779 40.0317 88.2259 41.0237 86.3059 40.7037C84.0659 40.3197 83.1699 38.6557 83.6179 35.7117C84.0659 33.0237 85.2179 31.0077 87.0739 29.6637C89.2499 28.0637 91.2339 27.8077 93.0259 28.8957C93.7299 29.2157 94.6259 29.3757 95.7139 29.3757L97.1539 29.4717L98.5939 29.3757C99.6819 29.3117 100.386 29.3757 100.706 29.5677C101.154 29.7597 100.962 30.1117 100.13 30.6237ZM89.7619 30.6237C88.3539 31.5837 87.2979 32.5757 86.5939 33.5997C85.6339 35.0077 85.2179 36.5437 85.3459 38.2077C86.4979 39.1677 88.1619 38.6237 90.3379 36.5757C92.4499 34.5917 93.2499 32.8957 92.7379 31.4877C91.1379 31.8077 90.1459 31.5197 89.7619 30.6237ZM106.647 33.3117L106.071 35.0397C105.431 37.0237 105.111 38.5597 105.111 39.6477C105.495 40.4157 106.487 39.7437 108.087 37.6317L109.047 36.2877L110.007 34.9437C110.775 33.8557 111.255 33.1837 111.447 32.9277C111.767 32.7357 112.055 32.7357 112.311 32.9277L112.599 33.3117L112.791 33.5997C112.471 33.9837 111.927 34.7517 111.159 35.9037L110.199 37.2477L109.143 38.5917C107.479 40.7037 106.135 41.6317 105.111 41.3757C103.511 40.9917 103.127 39.0077 103.959 35.4237C104.023 35.1677 104.087 34.9437 104.151 34.7517L103.767 34.9437L102.423 35.6157C100.119 36.8317 98.6147 37.3117 97.9107 37.0557C97.7827 37.0557 97.6867 37.0237 97.6227 36.9597L95.8947 41.4717C94.5507 41.7277 94.0067 41.2477 94.2627 40.0317C94.3267 39.5837 94.5187 38.9757 94.8387 38.2077L95.3187 37.1517L95.7027 36.1917L96.3747 34.3677L97.0467 32.6397C97.4947 31.2957 97.8467 29.9517 98.1027 28.6077C98.9347 28.1597 99.4467 28.1597 99.6387 28.6077C99.7027 28.7997 99.7347 29.0877 99.7347 29.4717L99.6387 30.3357L99.4467 31.3917L99.1587 32.4477C98.8387 33.3437 98.6787 33.8877 98.6787 34.0797L98.2947 35.1357C98.2307 35.6477 99.0307 35.4877 100.695 34.6557C101.271 34.3357 102.135 33.8557 103.287 33.2157L104.727 32.2557L104.919 32.1597C104.983 31.9037 105.079 31.6157 105.207 31.2957C105.655 30.0797 106.071 29.1837 106.455 28.6077H106.839C107.095 28.6077 107.319 28.6397 107.511 28.7037C108.087 28.8957 108.183 29.4397 107.799 30.3357C107.479 31.1677 107.191 31.9037 106.935 32.5437L106.743 33.2157V33.3117H106.647ZM131.555 39.1677C131.491 38.7837 131.459 38.2077 131.459 37.4397C131.523 36.5437 131.587 35.5837 131.651 34.5597H126.659C125.955 34.4957 125.763 33.8877 126.083 32.7357C126.275 32.3517 128.195 32.1597 131.843 32.1597C131.971 30.1117 132.099 28.6397 132.227 27.7437C132.291 27.3597 132.515 27.1677 132.899 27.1677C133.155 27.1677 133.475 27.2637 133.859 27.4557C134.179 27.7757 134.211 29.3437 133.955 32.1597C136.323 32.1597 137.891 32.2557 138.659 32.4477V32.7357L138.755 33.1197C138.755 33.5037 138.691 33.7917 138.563 33.9837C137.667 34.1757 136.067 34.3357 133.763 34.4637C133.699 35.4877 133.571 36.4797 133.379 37.4397C133.251 38.3357 133.123 38.9757 132.995 39.3597H132.323C131.939 39.3597 131.683 39.2957 131.555 39.1677ZM173.851 30.0477C174.299 28.5757 175.291 25.8557 176.827 21.8877L177.595 19.6797L178.459 17.5677C179.035 16.0317 179.451 14.8477 179.707 14.0157C179.899 13.4397 180.283 12.3197 180.859 10.6557L181.435 8.8317L182.107 6.9117C182.939 4.0957 183.067 2.6237 182.491 2.4957C181.851 2.1757 181.019 2.6557 179.995 3.9357C179.675 4.3837 179.259 4.9917 178.747 5.7597L178.267 6.7197L177.691 7.4877C176.219 9.8557 174.139 13.7917 171.451 19.2957L169.915 22.6557L168.379 25.8237C167.163 28.2557 166.203 30.1437 165.499 31.4877C166.651 31.1037 167.995 30.8157 169.531 30.6237L171.643 30.3357L173.851 30.0477ZM139.387 52.3197C138.811 54.3037 138.779 55.8077 139.291 56.8317C139.931 58.1117 141.403 58.4637 143.707 57.8877C146.843 57.1197 150.363 53.8557 154.267 48.0957C155.739 45.9197 157.179 43.4557 158.587 40.7037C159.739 38.5277 160.763 36.4157 161.659 34.3677C156.667 35.5837 152.155 37.6637 148.123 40.6077C143.579 43.9997 140.667 47.9037 139.387 52.3197ZM177.787 29.5677L179.611 29.3757C181.211 29.1837 182.427 29.0557 183.259 28.9917C183.195 29.4397 183.163 30.0797 183.163 30.9117C182.331 30.9757 181.147 31.0717 179.611 31.1997L177.595 31.3917L175.483 31.5837L175.003 33.0237L174.331 34.6557C173.819 36.1277 173.403 37.3757 173.083 38.3997C171.931 41.5997 170.971 44.4797 170.203 47.0397C167.899 54.3997 166.619 60.1277 166.363 64.2237V66.1437C166.363 66.7837 166.203 67.1037 165.883 67.1037C165.627 67.1037 165.371 66.8797 165.115 66.4317C163.963 64.4477 164.795 58.5917 167.611 48.8637C168.507 45.7277 169.595 42.2077 170.875 38.3037C171.131 37.6637 171.387 36.9597 171.643 36.1917C171.835 35.6797 172.059 35.1037 172.315 34.4637C172.763 33.0557 173.019 32.2557 173.083 32.0637C171.867 32.0637 170.395 32.2237 168.667 32.5437L166.459 33.1197L164.443 33.5997C163.931 34.4957 163.291 35.6797 162.523 37.1517L161.467 39.1677L160.411 41.2797C158.555 44.7997 156.955 47.5837 155.611 49.6317C151.451 56.0957 147.067 59.5197 142.459 59.9037C140.411 59.5837 138.907 58.7517 137.947 57.4077C136.987 55.9997 136.859 54.3037 137.563 52.3197C139.227 47.2637 142.395 42.8797 147.067 39.1677C151.611 35.5837 156.827 33.2797 162.715 32.2557C163.739 30.5917 164.923 28.3837 166.267 25.6317L168.091 21.8877L170.011 17.9517C173.275 11.2957 175.803 6.6557 177.595 4.0317C179.003 2.0477 180.571 0.927702 182.299 0.671701C184.155 0.415701 185.083 1.4397 185.083 3.7437C185.083 4.1917 183.675 8.3517 180.859 16.2237C178.171 23.7117 176.507 28.2237 175.867 29.7597L177.787 29.5677ZM194.678 33.3117L194.102 35.0397C193.462 37.0237 193.142 38.5597 193.142 39.6477C193.526 40.4157 194.518 39.7437 196.118 37.6317L197.078 36.2877L198.038 34.9437C198.806 33.8557 199.286 33.1837 199.478 32.9277C199.798 32.7357 200.086 32.7357 200.342 32.9277L200.63 33.3117L200.822 33.5997C200.502 33.9837 199.958 34.7517 199.19 35.9037L198.23 37.2477L197.174 38.5917C195.51 40.7037 194.166 41.6317 193.142 41.3757C191.542 40.9917 191.158 39.0077 191.99 35.4237C192.054 35.1677 192.118 34.9437 192.182 34.7517L191.798 34.9437L190.454 35.6157C188.15 36.8317 186.646 37.3117 185.942 37.0557C185.814 37.0557 185.718 37.0237 185.654 36.9597L183.926 41.4717C182.582 41.7277 182.038 41.2477 182.294 40.0317C182.358 39.5837 182.55 38.9757 182.87 38.2077L183.35 37.1517L183.734 36.1917L184.406 34.3677L185.078 32.6397C185.526 31.2957 185.878 29.9517 186.134 28.6077C186.966 28.1597 187.478 28.1597 187.67 28.6077C187.734 28.7997 187.766 29.0877 187.766 29.4717L187.67 30.3357L187.478 31.3917L187.19 32.4477C186.87 33.3437 186.71 33.8877 186.71 34.0797L186.326 35.1357C186.262 35.6477 187.062 35.4877 188.726 34.6557C189.302 34.3357 190.166 33.8557 191.318 33.2157L192.758 32.2557L192.95 32.1597C193.014 31.9037 193.11 31.6157 193.238 31.2957C193.686 30.0797 194.102 29.1837 194.486 28.6077H194.87C195.126 28.6077 195.35 28.6397 195.542 28.7037C196.118 28.8957 196.214 29.4397 195.83 30.3357C195.51 31.1677 195.222 31.9037 194.966 32.5437L194.774 33.2157V33.3117H194.678ZM208.553 33.3117L207.977 35.0397C207.337 37.0237 207.017 38.5597 207.017 39.6477C207.401 40.4157 208.393 39.7437 209.993 37.6317L210.953 36.2877L211.913 34.9437C212.681 33.8557 213.161 33.1837 213.353 32.9277C213.673 32.7357 213.961 32.7357 214.217 32.9277L214.505 33.3117L214.697 33.5997C214.377 33.9837 213.833 34.7517 213.065 35.9037L212.105 37.2477L211.049 38.5917C209.385 40.7037 208.041 41.6317 207.017 41.3757C205.417 40.9917 205.033 39.0077 205.865 35.4237C205.929 35.1677 205.993 34.9437 206.057 34.7517L205.673 34.9437L204.329 35.6157C202.025 36.8317 200.521 37.3117 199.817 37.0557C199.689 37.0557 199.593 37.0237 199.529 36.9597L197.801 41.4717C196.457 41.7277 195.913 41.2477 196.169 40.0317C196.233 39.5837 196.425 38.9757 196.745 38.2077L197.225 37.1517L197.609 36.1917L198.281 34.3677L198.953 32.6397C199.401 31.2957 199.753 29.9517 200.009 28.6077C200.841 28.1597 201.353 28.1597 201.545 28.6077C201.609 28.7997 201.641 29.0877 201.641 29.4717L201.545 30.3357L201.353 31.3917L201.065 32.4477C200.745 33.3437 200.585 33.8877 200.585 34.0797L200.201 35.1357C200.137 35.6477 200.937 35.4877 202.601 34.6557C203.177 34.3357 204.041 33.8557 205.193 33.2157L206.633 32.2557L206.825 32.1597C206.889 31.9037 206.985 31.6157 207.113 31.2957C207.561 30.0797 207.977 29.1837 208.361 28.6077H208.745C209.001 28.6077 209.225 28.6397 209.417 28.7037C209.993 28.8957 210.089 29.4397 209.705 30.3357C209.385 31.1677 209.097 31.9037 208.841 32.5437L208.649 33.2157V33.3117H208.553ZM220.988 39.4557C221.244 39.8397 221.948 39.3917 223.1 38.1117C223.548 37.6637 224.06 37.0877 224.636 36.3837L225.212 35.5197C225.404 35.3277 225.596 35.1037 225.788 34.8477C226.236 34.2077 226.748 33.9197 227.324 33.9837C227.836 34.1117 227.74 34.6877 227.036 35.7117C226.46 36.5437 225.692 37.5037 224.732 38.5917C223.708 39.7437 222.972 40.4477 222.524 40.7037C220.924 41.3437 219.868 41.1197 219.356 40.0317C218.908 39.0717 218.94 37.8237 219.452 36.2877C219.388 36.3517 219.036 36.6717 218.396 37.2477C217.82 37.8237 217.276 38.3037 216.764 38.6877C215.292 39.8397 214.108 40.2237 213.212 39.8397C211.036 38.8157 210.908 36.7677 212.828 33.6957C213.468 32.6717 214.268 31.7117 215.228 30.8157C216.252 29.7277 217.244 28.9917 218.204 28.6077C220.252 27.7757 221.82 28.1917 222.908 29.8557C223.228 29.4717 223.58 29.4397 223.964 29.7597C224.348 30.1437 224.348 30.7197 223.964 31.4877L222.716 33.6957C222.076 34.8477 221.628 35.7757 221.372 36.4797C220.988 37.5677 220.86 38.5597 220.988 39.4557ZM213.5 38.0157C213.5 38.3997 213.948 38.2717 214.844 37.6317C215.612 37.1197 216.604 36.3517 217.82 35.3277C218.908 34.3677 219.868 33.4717 220.7 32.6397C221.532 31.6797 221.916 31.1037 221.852 30.9117C221.404 29.3757 219.932 29.6637 217.436 31.7757C216.476 32.5437 215.612 33.4717 214.844 34.5597C213.948 35.9037 213.5 37.0557 213.5 38.0157Z" fill="#353434"></path></svg> 