<?xml version="1.0" encoding="UTF-8"?> <svg xmlns="http://www.w3.org/2000/svg" width="69" height="56" viewBox="0 0 69 56" fill="none"><path d="M68.0502 6.9107C68.0502 11.764 65.8102 16.244 61.3302 20.3507C57.4102 23.9907 52.3236 27.1174 46.0702 29.7307C40.3769 32.064 34.6369 34.444 28.8502 36.8707C25.6769 38.364 20.5436 41.164 13.4502 45.2707C16.9969 43.8707 20.0769 43.264 22.6902 43.4507C24.2769 43.544 26.6102 44.1507 29.6902 45.2707C32.8636 46.2974 34.9636 46.8574 35.9902 46.9507C38.7902 47.1374 43.5036 44.2907 50.1302 38.4107C50.9702 37.664 51.5302 37.4307 51.8102 37.7107C52.1836 37.9907 52.0902 38.5507 51.5302 39.3907C41.9169 49.284 35.6169 54.1374 32.6302 53.9507C31.0436 53.8574 28.3836 53.1574 24.6502 51.8507C20.9169 50.544 17.3702 49.7974 14.0102 49.6107C10.2769 49.424 6.40357 51.0574 2.39023 54.5107C1.64357 54.9774 1.08357 55.1174 0.710233 54.9307C0.523566 54.8374 0.430232 54.6974 0.430232 54.5107C0.430232 54.044 0.943566 53.2974 1.97023 52.2707C7.57023 46.764 16.0169 41.024 27.3102 35.0507C34.2169 31.4107 38.9302 28.7974 41.4502 27.2107C46.0236 24.4107 50.5502 21.0507 55.0302 17.1307C60.8169 12.0907 63.7102 8.26403 63.7102 5.6507C63.7102 3.78403 62.4502 2.8507 59.9302 2.8507C55.8236 2.8507 51.0169 5.32404 45.5102 10.2707C43.2702 12.324 41.4036 14.6107 39.9102 17.1307C37.2036 21.8907 35.1969 24.1307 33.8902 23.8507C33.2369 23.664 32.9102 23.1974 32.9102 22.4507C32.9102 21.5174 33.3769 20.3507 34.3102 18.9507C36.3636 15.8707 39.5836 12.4174 43.9702 8.5907C50.1302 3.2707 55.9636 0.610701 61.4702 0.610701C65.8569 0.610701 68.0502 2.7107 68.0502 6.9107Z" fill="#E0C58E"></path></svg> 