<?xml version="1.0" encoding="UTF-8"?> <svg xmlns="http://www.w3.org/2000/svg" width="104" height="32" viewBox="0 0 104 32" fill="none"><path d="M2.1457 0.577656C4.3057 0.457656 5.8057 0.43099 6.6457 0.497656C7.4857 0.564323 8.0257 0.764323 8.2657 1.09766C8.4257 1.32432 8.47904 2.47766 8.4257 4.55766C8.37237 6.85099 8.3457 8.27099 8.3457 8.81766C8.3457 9.75099 8.15904 10.1977 7.7857 10.1577C7.6657 10.1443 7.53904 10.0777 7.4057 9.95766C7.2857 9.85099 7.21237 9.53766 7.1857 9.01766C7.15904 8.49766 7.15904 7.41766 7.1857 5.77766L7.2457 1.83766L6.5257 1.71766C5.9657 1.63766 5.2057 1.64432 4.2457 1.73766L2.7057 1.85766L2.8257 2.77766C2.89237 3.35099 2.93904 4.65099 2.9657 6.67766C2.99237 8.53099 2.91237 9.57099 2.7257 9.79766C2.61904 9.94432 2.41237 9.93766 2.1057 9.77766C1.9457 9.68432 1.8457 9.44432 1.8057 9.05766C1.7657 8.67099 1.7457 7.71766 1.7457 6.19766C1.7457 3.93099 1.6857 2.64432 1.5657 2.33766C1.4457 2.01766 1.17237 1.81766 0.745703 1.73766C0.479036 1.67099 0.31237 1.60432 0.245703 1.53766C0.179037 1.45766 0.159037 1.33099 0.185703 1.15766C0.21237 0.944322 0.319037 0.810989 0.505703 0.757655C0.69237 0.704322 1.23904 0.644323 2.1457 0.577656ZM12.1476 2.49766C12.4409 2.28432 13.0209 2.19766 13.8876 2.23766C14.4476 2.27766 14.8276 2.33766 15.0276 2.41766C15.2409 2.49766 15.4742 2.67766 15.7276 2.95766C15.9809 3.25099 16.1409 3.50432 16.2076 3.71766C16.2742 3.93099 16.3076 4.32432 16.3076 4.89766C16.3076 6.17766 16.0076 7.15099 15.4076 7.81766C14.8076 8.47099 13.9409 8.79766 12.8076 8.79766H11.9076V9.87766C11.9076 10.5443 11.8609 10.9977 11.7676 11.2377C11.6876 11.4777 11.5342 11.5977 11.3076 11.5977C11.0676 11.5977 10.9076 11.471 10.8276 11.2177C10.7476 10.9643 10.7076 10.4577 10.7076 9.69766C10.7076 8.88432 10.6076 8.38432 10.4076 8.19766C10.1676 8.01099 10.0609 7.69766 10.0876 7.25766C10.1009 6.97766 10.1809 6.83766 10.3276 6.83766C10.3409 6.85099 10.3609 6.85766 10.3876 6.85766C10.5876 6.93766 10.7342 6.51766 10.8276 5.59766C10.8809 5.17099 10.9076 4.67766 10.9076 4.11766C10.9076 3.07766 11.0609 2.58432 11.3676 2.63766C11.4076 2.63766 11.4476 2.65099 11.4876 2.67766C11.6342 2.77099 11.8542 2.71099 12.1476 2.49766ZM14.6676 3.51766C14.3076 3.26432 13.8742 3.15766 13.3676 3.19766C12.8742 3.23766 12.4876 3.40432 12.2076 3.69766C11.9676 3.91099 11.8209 4.13766 11.7676 4.37766C11.7276 4.60432 11.7076 5.11099 11.7076 5.89766V7.59766H12.4876C13.4209 7.59766 14.0876 7.38432 14.4876 6.95766C14.9009 6.53099 15.1076 5.81766 15.1076 4.81766C15.1076 4.41766 15.0742 4.13099 15.0076 3.95766C14.9542 3.78432 14.8409 3.63766 14.6676 3.51766ZM20.5591 2.93766C21.6391 2.40432 22.5591 2.46432 23.3191 3.11766C23.7058 3.43766 23.9125 3.81099 23.9391 4.23766C23.9791 4.66432 23.8325 5.03099 23.4991 5.33766C23.2991 5.52432 22.8258 5.75099 22.0791 6.01766C21.3325 6.27099 20.5391 6.49099 19.6991 6.67766C19.4725 6.73099 19.3191 6.80432 19.2391 6.89766C19.1725 6.99099 19.1391 7.15766 19.1391 7.39766C19.1391 7.66432 19.1725 7.83099 19.2391 7.89766C19.3191 7.96432 19.5058 7.99766 19.7991 7.99766C20.2658 7.99766 20.9791 7.90432 21.9391 7.71766C22.6991 7.57099 23.2191 7.52432 23.4991 7.57766C23.7925 7.63099 23.9391 7.81099 23.9391 8.11766C23.9391 8.50432 22.8325 8.77099 20.6191 8.91766C19.4991 8.99766 18.7725 8.97099 18.4391 8.83766C18.1058 8.69099 17.9391 8.35099 17.9391 7.81766C17.9391 6.91099 18.2058 5.95766 18.7391 4.95766C19.2858 3.94432 19.8925 3.27099 20.5591 2.93766ZM22.6991 3.83766C22.4191 3.55766 21.9258 3.57099 21.2191 3.87766C20.9258 4.01099 20.5858 4.29099 20.1991 4.71766C19.8258 5.14432 19.6925 5.41099 19.7991 5.51766C19.8525 5.58432 20.2125 5.53766 20.8791 5.37766C21.5458 5.20432 22.0525 5.03099 22.3991 4.85766C22.9858 4.55099 23.0858 4.21099 22.6991 3.83766ZM29.9754 2.47766C30.3221 2.31766 30.5554 2.23099 30.6754 2.21766C30.7954 2.20432 30.9621 2.23766 31.1754 2.31766C31.5087 2.45099 31.7421 2.77766 31.8754 3.29766C32.0087 3.81766 32.0754 4.64432 32.0754 5.77766V7.97766L32.7754 8.31766C33.2421 8.53099 33.5487 8.77099 33.6954 9.03766C33.8421 9.30432 33.8354 9.62432 33.6754 9.99766C33.5421 10.331 33.3754 10.5577 33.1754 10.6777C32.9887 10.7977 32.8221 10.7977 32.6754 10.6777C32.5421 10.5443 32.4754 10.3177 32.4754 9.99766C32.4754 9.58432 32.3087 9.31766 31.9754 9.19766C31.6554 9.06432 30.9754 8.99766 29.9354 8.99766C28.8554 8.99766 28.0621 9.09766 27.5554 9.29766C27.0487 9.49766 26.7554 9.83099 26.6754 10.2977C26.6221 10.5777 26.5221 10.771 26.3754 10.8777C26.2421 10.971 26.1021 10.9577 25.9554 10.8377C25.8221 10.7177 25.7221 10.5177 25.6554 10.2377C25.5754 9.85099 25.5621 9.49766 25.6154 9.17766C25.6821 8.97766 25.8887 8.76432 26.2354 8.53766C26.5821 8.31099 26.8887 8.19766 27.1554 8.19766C27.3687 8.19766 27.5087 8.10432 27.5754 7.91766C27.6554 7.71766 27.7554 7.20432 27.8754 6.37766C27.9821 5.72432 28.0821 5.08432 28.1754 4.45766C28.2554 4.13766 28.4887 3.76432 28.8754 3.33766C29.2621 2.91099 29.6287 2.62432 29.9754 2.47766ZM30.9754 5.49766C30.9754 4.13766 30.8821 3.39099 30.6954 3.25766C30.5621 3.15099 30.3021 3.23099 29.9154 3.49766C29.2887 3.93766 28.8754 4.81766 28.6754 6.13766C28.5687 6.79099 28.4687 7.28432 28.3754 7.61766C28.3221 7.79099 28.3487 7.89766 28.4554 7.93766C28.5754 7.97766 28.8954 7.99766 29.4154 7.99766C30.1887 7.99766 30.6421 7.94432 30.7754 7.83766C30.9087 7.74432 30.9754 6.96432 30.9754 5.49766ZM38.2791 2.23766C38.5591 1.93099 38.8925 1.79766 39.2791 1.83766C39.6791 1.87766 40.0125 2.07099 40.2791 2.41766C40.5058 2.73766 40.7458 3.42432 40.9991 4.47766C41.2658 5.51766 41.4458 6.52432 41.5391 7.49766C41.5925 8.08432 41.6058 8.48432 41.5791 8.69766C41.5525 8.91099 41.4725 9.07099 41.3391 9.17766C41.0058 9.44432 40.7458 9.31766 40.5591 8.79766C40.4125 8.39766 40.2658 7.66432 40.1191 6.59766C39.7725 4.06432 39.4658 2.79766 39.1991 2.79766C38.9325 2.79766 38.4391 3.73099 37.7191 5.59766C36.7991 7.99766 36.1325 9.19766 35.7191 9.19766C35.3458 9.19766 35.3725 8.77766 35.7991 7.93766C35.8258 7.88432 35.8591 7.83099 35.8991 7.77766C36.2058 7.24432 36.6125 6.25099 37.1191 4.79766C37.3191 4.22432 37.5325 3.69099 37.7591 3.19766C37.9858 2.69099 38.1591 2.37099 38.2791 2.23766ZM43.8921 2.47766C44.1988 2.18432 44.4454 1.99766 44.6321 1.91766C44.8321 1.83766 45.1521 1.79766 45.5921 1.79766C46.6854 1.79766 47.5121 2.11766 48.0721 2.75766C48.2588 2.95766 48.4054 3.05099 48.5121 3.03766C48.6188 3.01099 48.8788 2.84432 49.2921 2.53766C49.3188 2.51099 49.3388 2.49099 49.3521 2.47766C50.5654 1.55766 51.5921 1.52432 52.4321 2.37766C53.2454 3.20432 53.2321 4.33766 52.3921 5.77766C51.7788 6.83099 50.9654 7.74432 49.9521 8.51766C48.9388 9.27766 48.1588 9.55766 47.6121 9.35766C47.1588 9.18432 46.4654 8.64432 45.5321 7.73766C44.6121 6.81766 44.0121 6.09099 43.7321 5.55766C43.3721 4.82432 43.2054 4.23099 43.2321 3.77766C43.2588 3.32432 43.4788 2.89099 43.8921 2.47766ZM46.7121 3.03766C46.4054 2.89099 46.0254 2.81766 45.5721 2.81766C45.1321 2.80432 44.7988 2.87099 44.5721 3.01766C44.3321 3.15099 44.2188 3.47099 44.2321 3.97766C44.2454 4.47099 44.3721 4.92432 44.6121 5.33766C44.7721 5.60432 45.3521 6.18432 46.3521 7.07766C47.3521 7.97099 47.9721 8.46432 48.2121 8.55766C48.3188 8.59766 48.8721 8.13099 49.8721 7.15766C51.0854 5.98432 51.7854 4.97099 51.9721 4.11766C52.1054 3.50432 51.8854 3.19766 51.3121 3.19766C50.9921 3.19766 50.6454 3.29766 50.2721 3.49766C49.8988 3.68432 49.5521 3.94432 49.2321 4.27766C48.8988 4.63766 48.6054 4.80432 48.3521 4.77766C48.1121 4.73766 47.8721 4.49099 47.6321 4.03766C47.5254 3.82432 47.3854 3.62432 47.2121 3.43766C47.0388 3.23766 46.8721 3.10432 46.7121 3.03766ZM61.5574 3.51766C61.7708 3.31766 61.9841 3.15099 62.1974 3.01766C62.4241 2.87099 62.5708 2.79766 62.6374 2.79766C62.9174 2.79766 63.0574 2.89099 63.0574 3.07766C63.0708 3.26432 62.9441 3.46432 62.6774 3.67766C62.2108 4.05099 61.8774 4.61766 61.6774 5.37766C61.4908 6.13766 61.5374 6.69099 61.8174 7.03766C61.9641 7.25099 62.3308 7.53099 62.9174 7.87766C63.6241 8.31766 63.8441 8.61766 63.5774 8.77766C63.4574 8.84432 63.2574 8.87099 62.9774 8.85766C62.5108 8.83099 62.0241 8.63766 61.5174 8.27766C61.0108 7.91766 60.6841 7.52432 60.5374 7.09766C60.3641 6.63099 60.2241 6.40432 60.1174 6.41766C60.0108 6.43099 59.9574 6.67766 59.9574 7.15766C59.9574 7.79766 59.8174 8.23766 59.5374 8.47766C59.4041 8.59766 59.2774 8.59766 59.1574 8.47766C59.0108 8.31766 58.8974 7.96432 58.8174 7.41766C58.7508 6.87099 58.6641 6.59766 58.5574 6.59766C58.4774 6.59766 58.3041 6.87766 58.0374 7.43766C57.8908 7.78432 57.6641 8.11099 57.3574 8.41766C57.0508 8.71099 56.7374 8.93766 56.4174 9.09766C56.0974 9.25766 55.7841 9.35766 55.4774 9.39766C55.1708 9.42432 54.9441 9.33766 54.7974 9.13766C54.6508 8.95099 54.6374 8.79099 54.7574 8.65766C54.8774 8.51099 55.1174 8.39766 55.4774 8.31766C56.0108 8.19766 56.4908 7.82432 56.9174 7.19766C57.3441 6.55766 57.5574 5.90432 57.5574 5.23766C57.5574 4.90432 57.4174 4.59099 57.1374 4.29766C56.8574 3.99099 56.5374 3.81099 56.1774 3.75766C55.8174 3.71766 55.6308 3.61099 55.6174 3.43766C55.6041 3.30432 55.7241 3.20432 55.9774 3.13766C56.4974 3.00432 57.0574 3.19099 57.6574 3.69766C58.2574 4.19099 58.5574 4.71766 58.5574 5.27766C58.5574 5.41099 58.5774 5.53099 58.6174 5.63766C58.6574 5.74432 58.7041 5.79766 58.7574 5.79766C58.8908 5.79766 58.9574 5.45766 58.9574 4.77766C58.9574 4.31099 58.9774 4.03099 59.0174 3.93766C59.0708 3.84432 59.2041 3.81099 59.4174 3.83766C59.6041 3.86432 59.7241 3.93766 59.7774 4.05766C59.8441 4.17766 59.8908 4.43766 59.9174 4.83766C59.9708 5.57099 60.0708 5.86432 60.2174 5.71766C60.3108 5.62432 60.4108 5.39099 60.5174 5.01766C60.6774 4.51099 61.0241 4.01099 61.5574 3.51766ZM67.942 2.93766C69.022 2.40432 69.942 2.46432 70.702 3.11766C71.0886 3.43766 71.2953 3.81099 71.322 4.23766C71.362 4.66432 71.2153 5.03099 70.882 5.33766C70.682 5.52432 70.2086 5.75099 69.462 6.01766C68.7153 6.27099 67.922 6.49099 67.082 6.67766C66.8553 6.73099 66.702 6.80432 66.622 6.89766C66.5553 6.99099 66.522 7.15766 66.522 7.39766C66.522 7.66432 66.5553 7.83099 66.622 7.89766C66.702 7.96432 66.8886 7.99766 67.182 7.99766C67.6486 7.99766 68.362 7.90432 69.322 7.71766C70.082 7.57099 70.602 7.52432 70.882 7.57766C71.1753 7.63099 71.322 7.81099 71.322 8.11766C71.322 8.50432 70.2153 8.77099 68.002 8.91766C66.882 8.99766 66.1553 8.97099 65.822 8.83766C65.4886 8.69099 65.322 8.35099 65.322 7.81766C65.322 6.91099 65.5886 5.95766 66.122 4.95766C66.6686 3.94432 67.2753 3.27099 67.942 2.93766ZM70.082 3.83766C69.802 3.55766 69.3086 3.57099 68.602 3.87766C68.3086 4.01099 67.9686 4.29099 67.582 4.71766C67.2086 5.14432 67.0753 5.41099 67.182 5.51766C67.2353 5.58432 67.5953 5.53766 68.262 5.37766C68.9286 5.20432 69.4353 5.03099 69.782 4.85766C70.3686 4.55099 70.4686 4.21099 70.082 3.83766ZM73.9782 2.51766C74.0449 2.34432 74.1249 2.24432 74.2182 2.21766C74.3249 2.17766 74.4249 2.21766 74.5182 2.33766C74.6249 2.44432 74.6982 2.60432 74.7382 2.81766C74.8182 3.27099 74.8582 3.80432 74.8582 4.41766V5.37766L76.6182 5.25766C77.7382 5.19099 78.3382 5.13766 78.4182 5.09766C78.4582 5.05766 78.5249 4.65099 78.6182 3.87766C78.6715 3.37099 78.7315 3.04432 78.7982 2.89766C78.8649 2.75099 78.9915 2.66432 79.1782 2.63766C79.4849 2.59766 79.6782 2.77099 79.7582 3.15766C79.8515 3.53099 79.9315 4.52432 79.9982 6.13766C80.0915 8.03099 80.0449 9.08432 79.8582 9.29766C79.6982 9.48432 79.5582 9.57766 79.4382 9.57766C79.3182 9.57766 79.1649 9.47766 78.9782 9.27766C78.7649 9.06432 78.6582 8.53099 78.6582 7.67766V6.37766L76.9182 6.43766L75.1582 6.49766L75.0382 7.65766C74.9315 8.63099 74.7182 9.19099 74.3982 9.33766C74.1715 9.43099 73.9849 9.25099 73.8382 8.79766C73.7982 8.65099 73.7649 8.48432 73.7382 8.29766C73.6715 7.72432 73.5049 7.26432 73.2382 6.91766C73.0249 6.65099 72.9382 6.40432 72.9782 6.17766C73.0315 5.95099 73.1982 5.79099 73.4782 5.69766C73.6382 5.64432 73.7382 5.53099 73.7782 5.35766C73.8315 5.17099 73.8582 4.78432 73.8582 4.19766C73.8582 3.31766 73.8982 2.75766 73.9782 2.51766ZM86.6691 2.85766C87.0291 2.43099 87.2891 2.68432 87.4491 3.61766C87.5825 4.37766 87.6491 5.58432 87.6491 7.23766C87.6491 8.05099 87.6291 8.59099 87.5891 8.85766C87.5491 9.12432 87.4625 9.28432 87.3291 9.33766C87.0625 9.44432 86.8425 9.36432 86.6691 9.09766C86.5091 8.81766 86.4225 8.39766 86.4091 7.83766C86.3691 7.10432 86.2825 6.76432 86.1491 6.81766C86.0958 6.83099 86.0425 6.91766 85.9891 7.07766C85.9091 7.27766 85.3491 7.71766 84.3091 8.39766C83.2825 9.06432 82.6558 9.39766 82.4291 9.39766C82.0825 9.39766 81.8625 9.15099 81.7691 8.65766C81.6758 8.15099 81.6691 7.16432 81.7491 5.69766C81.8158 4.60432 81.8758 3.87099 81.9291 3.49766C81.9825 3.11099 82.0691 2.89766 82.1891 2.85766C82.3225 2.80432 82.4291 2.81099 82.5091 2.87766C82.6025 2.93099 82.6691 3.07099 82.7091 3.29766C82.7625 3.51099 82.7958 3.80432 82.8091 4.17766C82.8225 4.53766 82.8225 5.03099 82.8091 5.65766C82.7558 7.21766 82.7625 7.99766 82.8291 7.99766C82.9358 7.99766 83.3491 7.75766 84.0691 7.27766C84.7891 6.78432 85.2891 6.40432 85.5691 6.13766C85.8358 5.89766 86.0158 5.66432 86.1091 5.43766C86.2158 5.21099 86.2958 4.84432 86.3491 4.33766C86.4158 3.55099 86.5225 3.05766 86.6691 2.85766ZM91.9068 2.93766C92.9868 2.40432 93.9068 2.46432 94.6668 3.11766C95.0535 3.43766 95.2601 3.81099 95.2868 4.23766C95.3268 4.66432 95.1801 5.03099 94.8468 5.33766C94.6468 5.52432 94.1735 5.75099 93.4268 6.01766C92.6801 6.27099 91.8868 6.49099 91.0468 6.67766C90.8201 6.73099 90.6668 6.80432 90.5868 6.89766C90.5201 6.99099 90.4868 7.15766 90.4868 7.39766C90.4868 7.66432 90.5201 7.83099 90.5868 7.89766C90.6668 7.96432 90.8535 7.99766 91.1468 7.99766C91.6135 7.99766 92.3268 7.90432 93.2868 7.71766C94.0468 7.57099 94.5668 7.52432 94.8468 7.57766C95.1401 7.63099 95.2868 7.81099 95.2868 8.11766C95.2868 8.50432 94.1801 8.77099 91.9668 8.91766C90.8468 8.99766 90.1201 8.97099 89.7868 8.83766C89.4535 8.69099 89.2868 8.35099 89.2868 7.81766C89.2868 6.91099 89.5535 5.95766 90.0868 4.95766C90.6335 3.94432 91.2401 3.27099 91.9068 2.93766ZM94.0468 3.83766C93.7668 3.55766 93.2735 3.57099 92.5668 3.87766C92.2735 4.01099 91.9335 4.29099 91.5468 4.71766C91.1735 5.14432 91.0401 5.41099 91.1468 5.51766C91.2001 5.58432 91.5601 5.53766 92.2268 5.37766C92.8935 5.20432 93.4001 5.03099 93.7468 4.85766C94.3335 4.55099 94.4335 4.21099 94.0468 3.83766ZM2.2257 21.4977C2.51904 21.2843 3.09904 21.1977 3.9657 21.2377C4.5257 21.2777 4.9057 21.3377 5.1057 21.4177C5.31904 21.4977 5.55237 21.6777 5.8057 21.9577C6.05904 22.251 6.21904 22.5043 6.2857 22.7177C6.35237 22.931 6.3857 23.3243 6.3857 23.8977C6.3857 25.1777 6.0857 26.151 5.4857 26.8177C4.8857 27.471 4.01904 27.7977 2.8857 27.7977H1.9857V28.8777C1.9857 29.5443 1.93904 29.9977 1.8457 30.2377C1.7657 30.4777 1.61237 30.5977 1.3857 30.5977C1.1457 30.5977 0.985703 30.471 0.905703 30.2177C0.825703 29.9643 0.785703 29.4577 0.785703 28.6977C0.785703 27.8843 0.685703 27.3843 0.485703 27.1977C0.245703 27.011 0.139036 26.6977 0.165703 26.2577C0.179037 25.9777 0.259037 25.8377 0.405703 25.8377C0.419036 25.851 0.439036 25.8577 0.465703 25.8577C0.665703 25.9377 0.81237 25.5177 0.905703 24.5977C0.959036 24.171 0.985703 23.6777 0.985703 23.1177C0.985703 22.0777 1.13904 21.5843 1.4457 21.6377C1.4857 21.6377 1.5257 21.651 1.5657 21.6777C1.71237 21.771 1.93237 21.711 2.2257 21.4977ZM4.7457 22.5177C4.3857 22.2643 3.95237 22.1577 3.4457 22.1977C2.95237 22.2377 2.5657 22.4043 2.2857 22.6977C2.0457 22.911 1.89904 23.1377 1.8457 23.3777C1.8057 23.6043 1.7857 24.111 1.7857 24.8977V26.5977H2.5657C3.49904 26.5977 4.1657 26.3843 4.5657 25.9577C4.97904 25.531 5.1857 24.8177 5.1857 23.8177C5.1857 23.4177 5.15237 23.131 5.0857 22.9577C5.03237 22.7843 4.91904 22.6377 4.7457 22.5177ZM8.79727 22.4177C8.95727 22.1243 9.14393 22.1777 9.35727 22.5777C9.4506 22.751 9.56393 22.9977 9.69727 23.3177C9.89727 23.811 10.2506 24.4443 10.7573 25.2177C11.2639 25.991 11.5773 26.3843 11.6973 26.3977C11.7506 26.3977 11.9373 25.7843 12.2573 24.5577C12.6306 23.0377 12.9706 22.271 13.2773 22.2577C13.3706 22.2443 13.4839 22.3043 13.6173 22.4377C13.7506 22.571 13.8173 22.7043 13.8173 22.8377C13.8306 22.9577 13.7973 23.151 13.7173 23.4177C13.5706 23.8843 13.3639 24.7577 13.0973 26.0377C12.8706 27.1977 12.6506 28.0377 12.4373 28.5577C12.2373 29.0643 11.9506 29.5243 11.5773 29.9377C11.1373 30.391 10.6239 30.811 10.0373 31.1977C9.4506 31.5977 9.03727 31.7977 8.79727 31.7977C8.4506 31.7977 8.2106 31.6977 8.07727 31.4977C7.95727 31.311 7.99727 31.1177 8.19727 30.9177C8.4106 30.7043 8.6106 30.5977 8.79727 30.5977C8.99727 30.5977 9.46393 30.251 10.1973 29.5577C10.9306 28.851 11.2973 28.4043 11.2973 28.2177C11.2973 27.9643 11.0373 27.4843 10.5173 26.7777C9.8506 25.8443 9.3506 24.9577 9.01727 24.1177C8.68393 23.2777 8.6106 22.711 8.79727 22.4177ZM17.1582 21.5777C17.1582 21.5243 17.1915 21.4843 17.2582 21.4577C17.3382 21.4177 17.4315 21.411 17.5382 21.4377C17.6582 21.4643 17.7449 21.5643 17.7982 21.7377C17.8649 21.8977 17.9115 22.1977 17.9382 22.6377L17.9982 23.7777L19.6182 22.6777C20.6715 21.9577 21.2849 21.6177 21.4582 21.6577C22.0182 21.8577 21.6249 22.4043 20.2782 23.2977C19.8649 23.5643 19.5115 23.811 19.2182 24.0377C18.9382 24.2643 18.8049 24.3977 18.8182 24.4377C18.8582 24.531 19.3782 25.0243 20.3782 25.9177C21.1915 26.651 21.6982 27.151 21.8982 27.4177C22.1115 27.671 22.1782 27.9043 22.0982 28.1177C21.9515 28.491 21.5582 28.431 20.9182 27.9377C20.6115 27.6977 20.2049 27.331 19.6982 26.8377L18.0782 25.2977L18.0182 26.6377C17.9782 27.331 17.8849 27.8043 17.7382 28.0577C17.5915 28.311 17.3782 28.3843 17.0982 28.2777C16.9649 28.2243 16.8782 28.071 16.8382 27.8177C16.7982 27.5643 16.7782 27.0577 16.7782 26.2977V24.4377L16.1982 24.1977C15.8382 24.0643 15.6115 23.9043 15.5182 23.7177C15.4249 23.531 15.4649 23.391 15.6382 23.2977C15.8249 23.191 16.1049 23.1843 16.4782 23.2777C16.6915 23.331 16.8249 23.331 16.8782 23.2777C16.9449 23.2243 16.9849 23.0643 16.9982 22.7977C17.0115 22.411 17.0382 22.1443 17.0782 21.9977C17.0782 21.9577 17.0849 21.891 17.0982 21.7977C17.1249 21.691 17.1449 21.6177 17.1582 21.5777ZM28.759 21.8577C29.119 21.431 29.379 21.6843 29.539 22.6177C29.6723 23.3777 29.739 24.5843 29.739 26.2377C29.739 27.051 29.719 27.591 29.679 27.8577C29.639 28.1243 29.5523 28.2843 29.419 28.3377C29.1523 28.4443 28.9323 28.3643 28.759 28.0977C28.599 27.8177 28.5123 27.3977 28.499 26.8377C28.459 26.1043 28.3723 25.7643 28.239 25.8177C28.1857 25.831 28.1323 25.9177 28.079 26.0777C27.999 26.2777 27.439 26.7177 26.399 27.3977C25.3723 28.0643 24.7457 28.3977 24.519 28.3977C24.1723 28.3977 23.9523 28.151 23.859 27.6577C23.7657 27.151 23.759 26.1643 23.839 24.6977C23.9057 23.6043 23.9657 22.871 24.019 22.4977C24.0723 22.111 24.159 21.8977 24.279 21.8577C24.4123 21.8043 24.519 21.811 24.599 21.8777C24.6923 21.931 24.759 22.071 24.799 22.2977C24.8523 22.511 24.8857 22.8043 24.899 23.1777C24.9123 23.5377 24.9123 24.031 24.899 24.6577C24.8457 26.2177 24.8523 26.9977 24.919 26.9977C25.0257 26.9977 25.439 26.7577 26.159 26.2777C26.879 25.7843 27.379 25.4043 27.659 25.1377C27.9257 24.8977 28.1057 24.6643 28.199 24.4377C28.3057 24.211 28.3857 23.8443 28.439 23.3377C28.5057 22.551 28.6123 22.0577 28.759 21.8577ZM43.6613 21.8577C44.0213 21.431 44.2813 21.6843 44.4413 22.6177C44.5747 23.3777 44.6413 24.5843 44.6413 26.2377C44.6413 27.051 44.6213 27.591 44.5813 27.8577C44.5413 28.1243 44.4547 28.2843 44.3213 28.3377C44.0547 28.4443 43.8347 28.3643 43.6613 28.0977C43.5013 27.8177 43.4147 27.3977 43.4013 26.8377C43.3613 26.1043 43.2747 25.7643 43.1413 25.8177C43.088 25.831 43.0347 25.9177 42.9813 26.0777C42.9013 26.2777 42.3413 26.7177 41.3013 27.3977C40.2747 28.0643 39.648 28.3977 39.4213 28.3977C39.0747 28.3977 38.8547 28.151 38.7613 27.6577C38.668 27.151 38.6613 26.1643 38.7413 24.6977C38.808 23.6043 38.868 22.871 38.9213 22.4977C38.9747 22.111 39.0613 21.8977 39.1813 21.8577C39.3147 21.8043 39.4213 21.811 39.5013 21.8777C39.5947 21.931 39.6613 22.071 39.7013 22.2977C39.7547 22.511 39.788 22.8043 39.8013 23.1777C39.8147 23.5377 39.8147 24.031 39.8013 24.6577C39.748 26.2177 39.7547 26.9977 39.8213 26.9977C39.928 26.9977 40.3413 26.7577 41.0613 26.2777C41.7813 25.7843 42.2813 25.4043 42.5613 25.1377C42.828 24.8977 43.008 24.6643 43.1013 24.4377C43.208 24.211 43.288 23.8443 43.3413 23.3377C43.408 22.551 43.5147 22.0577 43.6613 21.8577ZM56.0237 21.6977C56.4503 21.4977 56.7903 21.3977 57.0437 21.3977C57.3503 21.3977 57.6703 21.551 58.0037 21.8577C58.3503 22.151 58.5237 22.431 58.5237 22.6977C58.5237 22.991 58.4237 23.1777 58.2237 23.2577C58.0237 23.3377 57.857 23.251 57.7237 22.9977C57.4703 22.5443 57.0637 22.4577 56.5037 22.7377C55.957 23.0177 55.497 23.5377 55.1237 24.2977C54.857 24.8443 54.7437 25.4243 54.7837 26.0377C54.837 26.6377 55.017 27.0243 55.3237 27.1977C55.5903 27.3443 56.1303 27.411 56.9437 27.3977C57.757 27.3843 58.277 27.3043 58.5037 27.1577C58.7437 27.011 58.9703 26.9843 59.1837 27.0777C59.4103 27.1577 59.5237 27.3243 59.5237 27.5777C59.5237 28.391 58.297 28.7443 55.8437 28.6377C55.337 28.611 54.8637 28.3843 54.4237 27.9577C53.997 27.531 53.7303 27.031 53.6237 26.4577C53.4903 25.6043 53.6637 24.6977 54.1437 23.7377C54.6237 22.7643 55.2503 22.0843 56.0237 21.6977ZM63.7818 21.9377C64.8618 21.4043 65.7818 21.4643 66.5418 22.1177C66.9285 22.4377 67.1351 22.811 67.1618 23.2377C67.2018 23.6643 67.0551 24.031 66.7218 24.3377C66.5218 24.5243 66.0485 24.751 65.3018 25.0177C64.5551 25.271 63.7618 25.491 62.9218 25.6777C62.6951 25.731 62.5418 25.8043 62.4618 25.8977C62.3951 25.991 62.3618 26.1577 62.3618 26.3977C62.3618 26.6643 62.3951 26.831 62.4618 26.8977C62.5418 26.9643 62.7285 26.9977 63.0218 26.9977C63.4885 26.9977 64.2018 26.9043 65.1618 26.7177C65.9218 26.571 66.4418 26.5243 66.7218 26.5777C67.0151 26.631 67.1618 26.811 67.1618 27.1177C67.1618 27.5043 66.0551 27.771 63.8418 27.9177C62.7218 27.9977 61.9951 27.971 61.6618 27.8377C61.3285 27.691 61.1618 27.351 61.1618 26.8177C61.1618 25.911 61.4285 24.9577 61.9618 23.9577C62.5085 22.9443 63.1151 22.271 63.7818 21.9377ZM65.9218 22.8377C65.6418 22.5577 65.1485 22.571 64.4418 22.8777C64.1485 23.011 63.8085 23.291 63.4218 23.7177C63.0485 24.1443 62.9151 24.411 63.0218 24.5177C63.0751 24.5843 63.4351 24.5377 64.1018 24.3777C64.7685 24.2043 65.2751 24.031 65.6218 23.8577C66.2085 23.551 66.3085 23.211 65.9218 22.8377ZM70.878 21.4977C71.1714 21.2843 71.7514 21.1977 72.618 21.2377C73.178 21.2777 73.558 21.3377 73.758 21.4177C73.9714 21.4977 74.2047 21.6777 74.458 21.9577C74.7114 22.251 74.8714 22.5043 74.938 22.7177C75.0047 22.931 75.038 23.3243 75.038 23.8977C75.038 25.1777 74.738 26.151 74.138 26.8177C73.538 27.471 72.6714 27.7977 71.538 27.7977H70.638V28.8777C70.638 29.5443 70.5914 29.9977 70.498 30.2377C70.418 30.4777 70.2647 30.5977 70.038 30.5977C69.798 30.5977 69.638 30.471 69.558 30.2177C69.478 29.9643 69.438 29.4577 69.438 28.6977C69.438 27.8843 69.338 27.3843 69.138 27.1977C68.898 27.011 68.7914 26.6977 68.818 26.2577C68.8314 25.9777 68.9114 25.8377 69.058 25.8377C69.0714 25.851 69.0914 25.8577 69.118 25.8577C69.318 25.9377 69.4647 25.5177 69.558 24.5977C69.6114 24.171 69.638 23.6777 69.638 23.1177C69.638 22.0777 69.7914 21.5843 70.098 21.6377C70.138 21.6377 70.178 21.651 70.218 21.6777C70.3647 21.771 70.5847 21.711 70.878 21.4977ZM73.398 22.5177C73.038 22.2643 72.6047 22.1577 72.098 22.1977C71.6047 22.2377 71.218 22.4043 70.938 22.6977C70.698 22.911 70.5514 23.1377 70.498 23.3777C70.458 23.6043 70.438 24.111 70.438 24.8977V26.5977H71.218C72.1514 26.5977 72.818 26.3843 73.218 25.9577C73.6314 25.531 73.838 24.8177 73.838 23.8177C73.838 23.4177 73.8047 23.131 73.738 22.9577C73.6847 22.7843 73.5714 22.6377 73.398 22.5177ZM81.0496 21.4777C81.3963 21.3177 81.6296 21.231 81.7496 21.2177C81.8696 21.2043 82.0363 21.2377 82.2496 21.3177C82.5829 21.451 82.8163 21.7777 82.9496 22.2977C83.0829 22.8177 83.1496 23.6443 83.1496 24.7777V26.9777L83.8496 27.3177C84.3163 27.531 84.6229 27.771 84.7696 28.0377C84.9163 28.3043 84.9096 28.6243 84.7496 28.9977C84.6163 29.331 84.4496 29.5577 84.2496 29.6777C84.0629 29.7977 83.8963 29.7977 83.7496 29.6777C83.6163 29.5443 83.5496 29.3177 83.5496 28.9977C83.5496 28.5843 83.3829 28.3177 83.0496 28.1977C82.7296 28.0643 82.0496 27.9977 81.0096 27.9977C79.9296 27.9977 79.1363 28.0977 78.6296 28.2977C78.1229 28.4977 77.8296 28.831 77.7496 29.2977C77.6963 29.5777 77.5963 29.771 77.4496 29.8777C77.3163 29.971 77.1763 29.9577 77.0296 29.8377C76.8963 29.7177 76.7963 29.5177 76.7296 29.2377C76.6496 28.851 76.6363 28.4977 76.6896 28.1777C76.7563 27.9777 76.9629 27.7643 77.3096 27.5377C77.6563 27.311 77.9629 27.1977 78.2296 27.1977C78.4429 27.1977 78.5829 27.1043 78.6496 26.9177C78.7296 26.7177 78.8296 26.2043 78.9496 25.3777C79.0563 24.7243 79.1563 24.0843 79.2496 23.4577C79.3296 23.1377 79.5629 22.7643 79.9496 22.3377C80.3363 21.911 80.7029 21.6243 81.0496 21.4777ZM82.0496 24.4977C82.0496 23.1377 81.9563 22.391 81.7696 22.2577C81.6363 22.151 81.3763 22.231 80.9896 22.4977C80.3629 22.9377 79.9496 23.8177 79.7496 25.1377C79.6429 25.791 79.5429 26.2843 79.4496 26.6177C79.3963 26.791 79.4229 26.8977 79.5296 26.9377C79.6496 26.9777 79.9696 26.9977 80.4896 26.9977C81.2629 26.9977 81.7163 26.9443 81.8496 26.8377C81.9829 26.7443 82.0496 25.9643 82.0496 24.4977ZM86.6734 22.1377C86.7134 22.031 86.7734 21.951 86.8534 21.8977C86.9334 21.8443 87.0067 21.8243 87.0734 21.8377C87.2334 21.891 87.38 22.811 87.5134 24.5977L87.7134 27.2777L89.0134 27.2177C89.84 27.191 90.32 27.1443 90.4534 27.0777C90.56 27.011 90.6134 26.2243 90.6134 24.7177C90.6134 23.2243 90.7067 22.391 90.8934 22.2177C91.28 21.8977 91.5667 22.1843 91.7534 23.0777C91.8067 23.371 91.8534 23.7377 91.8934 24.1777C91.9867 25.231 91.9934 25.8377 91.9134 25.9977C91.7534 26.251 91.7667 26.5443 91.9534 26.8777C92.14 27.211 92.4267 27.4643 92.8134 27.6377C93.3334 27.8377 93.64 28.131 93.7334 28.5177C93.8667 29.011 93.7867 29.3843 93.4934 29.6377C93.24 29.8377 93.0067 29.7977 92.7934 29.5177C92.74 29.4377 92.6934 29.3377 92.6534 29.2177C92.5734 28.991 92.48 28.831 92.3734 28.7377C92.2667 28.6443 92.1267 28.5977 91.9534 28.5977C91.6334 28.5977 91.4267 28.551 91.3334 28.4577C91.2267 28.351 90.4934 28.3243 89.1334 28.3777C89.0934 28.3777 89.0334 28.3777 88.9534 28.3777C88.6467 28.391 88.42 28.4043 88.2734 28.4177C88.14 28.4177 87.9667 28.411 87.7534 28.3977C87.5534 28.371 87.4134 28.3577 87.3334 28.3577C87.2667 28.3577 87.1667 28.3177 87.0334 28.2377C86.9134 28.1577 86.84 28.1043 86.8134 28.0777C86.7867 28.0377 86.74 27.9377 86.6734 27.7777C86.6067 27.6177 86.5734 27.491 86.5734 27.3977C86.5734 27.3043 86.56 27.1243 86.5334 26.8577C86.52 26.591 86.5134 26.371 86.5134 26.1977C86.5134 26.0243 86.5134 25.7377 86.5134 25.3377C86.5134 25.2443 86.5134 25.171 86.5134 25.1177C86.54 23.331 86.5934 22.3377 86.6734 22.1377ZM98.2796 21.7977C98.7063 21.6643 99.2996 21.6243 100.06 21.6777C100.526 21.7043 100.866 21.7577 101.08 21.8377C101.306 21.9043 101.533 22.0443 101.76 22.2577C102.013 22.511 102.166 22.7777 102.22 23.0577C102.286 23.3243 102.346 23.9843 102.4 25.0377C102.44 25.9043 102.493 26.5443 102.56 26.9577C102.64 27.371 102.753 27.6977 102.9 27.9377C103.073 28.2443 103.16 28.451 103.16 28.5577C103.173 28.651 103.106 28.771 102.96 28.9177C102.506 29.3843 102.046 29.1243 101.58 28.1377L101.14 27.2577L99.9396 27.6377C99.1529 27.8643 98.3663 28.031 97.5796 28.1377C97.0596 28.191 96.7129 28.1977 96.5396 28.1577C96.3663 28.1043 96.1596 27.9643 95.9196 27.7377C95.6129 27.431 95.4463 27.1243 95.4196 26.8177C95.4063 26.4977 95.5329 26.1177 95.7996 25.6777C96.3596 24.7843 97.6129 24.251 99.5596 24.0777C99.8529 24.0643 100.126 24.0377 100.38 23.9977C100.633 23.9577 100.833 23.9243 100.98 23.8977C101.126 23.8577 101.2 23.8243 101.2 23.7977C101.2 23.6777 101.073 23.471 100.82 23.1777C100.66 22.9777 100.486 22.851 100.3 22.7977C100.126 22.7443 99.8063 22.7243 99.3396 22.7377C98.5529 22.7643 98.0463 22.851 97.8196 22.9977C97.6463 23.091 97.5263 23.131 97.4596 23.1177C97.3929 23.1043 97.3329 23.031 97.2796 22.8977C97.1996 22.6843 97.2463 22.4777 97.4196 22.2777C97.6063 22.0777 97.8929 21.9177 98.2796 21.7977ZM101.12 25.1177C101.186 24.9443 101.146 24.851 101 24.8377C100.826 24.8243 100.273 24.8843 99.3396 25.0177C98.5263 25.151 97.9663 25.291 97.6596 25.4377C97.3263 25.5977 97.0196 25.8577 96.7396 26.2177C96.4729 26.5777 96.3863 26.831 96.4796 26.9777C96.5863 27.151 96.8863 27.2243 97.3796 27.1977C97.8863 27.1577 98.4596 27.0243 99.0996 26.7977C99.8729 26.531 100.386 26.3977 100.64 26.3977C100.88 26.3977 101 26.2377 101 25.9177C101 25.6243 101.04 25.3577 101.12 25.1177Z" fill="#253758"></path></svg> 