<?xml version="1.0" encoding="UTF-8"?> <svg xmlns="http://www.w3.org/2000/svg" width="98" height="38" viewBox="0 0 98 38" fill="none"><path d="M2.50472 15.9649C0.872719 15.6769 0.776719 13.7569 1.73672 12.7969C2.07272 12.4609 2.40872 12.1729 2.74472 11.9329C3.22472 11.5489 4.23272 11.0209 5.96072 10.1569C7.30472 9.48487 10.0407 8.81287 11.3367 8.47687C14.4567 7.66087 16.7607 7.66087 19.8327 7.90087C21.8487 8.04487 24.1047 8.95687 25.7367 9.67687C26.4087 9.96487 26.9367 10.3489 27.3207 10.8769L27.4647 11.1649L27.0807 11.4049C26.9847 11.3569 26.7927 11.2129 26.6487 11.1649C26.3127 11.0689 25.9287 10.8289 25.5447 10.6849C24.7287 10.3969 24.1047 10.1089 23.4807 10.0129C21.6087 9.72487 20.2167 9.58087 18.4407 9.58087C16.6167 9.58087 15.3207 9.77287 13.5927 10.1569C13.3047 10.2049 12.7767 10.4929 12.3927 10.4449C12.0087 10.3969 11.5287 10.5409 11.1927 10.7329L10.4247 10.9249C8.93672 11.0689 7.64072 11.5489 6.29672 12.2209C4.47272 13.1329 4.28072 13.2769 4.04072 13.4209L3.65672 13.7089C2.93672 14.2369 3.03272 14.8129 3.46472 15.2449C3.56072 15.3409 3.80072 15.5329 3.94472 15.6289C3.56072 15.9649 3.08072 16.0609 2.50472 15.9649ZM12.1527 11.4529C12.1527 10.9249 12.5847 10.8769 12.8727 10.8769C13.6407 10.6849 14.2647 10.5409 14.9367 10.4449C16.5207 10.3009 17.8167 10.1569 19.4487 10.3009C19.7847 10.3009 20.0727 10.2529 20.4567 10.3009C18.9687 10.6849 17.5767 10.5409 16.5207 10.6849C14.9367 11.0689 13.5447 11.1649 12.1527 11.4529ZM3.80072 37.7089C3.65672 37.7089 3.51272 37.7089 3.12872 37.6609C2.69672 37.6129 2.36072 37.4689 1.97672 37.1329L2.21672 35.9809C2.74472 33.3889 3.36872 31.4689 3.94472 28.8769C5.38472 22.4929 5.57672 21.6289 6.39272 18.3169C6.58472 17.5489 7.06472 14.6209 7.35272 13.3249C7.54472 13.0849 7.88072 12.8929 8.50472 12.8449C8.93672 12.6529 9.27272 12.6049 9.65672 12.7969L9.99272 12.9889C9.89672 13.5169 9.56072 15.1489 9.32072 15.9649C8.79272 17.7889 8.55272 19.5169 8.26472 20.6209C8.26472 20.6209 10.4247 19.7089 13.1607 19.4689C14.8887 19.3249 16.8567 19.4689 18.0567 19.9009C20.6967 20.8609 23.0487 22.4929 24.0087 25.5169C24.3927 26.7169 24.3447 28.0609 23.6727 29.3089C23.3847 29.9329 23.1447 30.3649 22.9047 30.8449C22.1367 31.7569 21.3207 32.5249 20.5527 33.2929C19.8807 33.8209 19.1607 34.0609 18.4887 34.4929C17.0007 35.4529 15.3687 36.0769 13.6407 36.4129L11.5767 36.7969C11.3367 36.8929 11.0967 36.7969 10.9047 36.7489C10.7127 36.5089 10.6167 36.5569 10.4727 36.7009C9.65672 37.1809 8.55272 37.2289 7.68872 36.8929C6.82472 36.5569 6.05672 35.9329 5.62472 34.9249C5.19272 34.0129 5.43272 33.3889 6.34472 33.2929C6.29672 33.5329 6.20072 33.7249 6.24872 34.0609C6.34472 34.8289 7.01672 35.1169 8.31272 35.0209C9.70472 34.9249 10.9527 34.6369 12.2487 34.3969C13.3527 34.0609 14.4567 33.7729 15.4647 33.3889C17.2407 32.7169 18.7287 31.9489 20.0247 30.7969C20.6487 30.1729 21.1767 29.3569 21.6567 28.6849C22.5207 27.4369 22.4727 26.0449 21.8487 24.5569C21.0807 23.2609 20.2167 22.2529 18.7287 21.7249C17.2887 21.1969 15.8007 20.9569 14.3127 21.0529C13.0647 21.1489 12.1047 21.4849 10.9527 21.8209C9.75272 22.1569 8.88872 22.4929 8.12072 23.2609C7.97672 23.4049 7.44872 24.0769 7.30472 24.1729L6.15272 27.2449C5.96072 27.9169 4.95272 31.9009 4.61672 33.6289C4.61672 33.7249 4.61672 33.7729 4.56872 33.8209C4.42472 34.2529 4.32872 34.7809 4.32872 35.3569C4.23272 36.1729 4.18472 36.7969 3.80072 37.7089ZM12.8727 20.1889C13.2087 20.0449 14.2647 20.0929 14.6007 20.0449L14.4567 19.9009C14.1207 19.9009 13.2567 19.7569 12.8727 19.9489C12.9687 19.9969 12.9687 19.9969 12.8727 20.1889ZM8.55272 21.5809C9.80072 21.0529 11.1447 20.6209 12.3447 20.1409C10.8567 20.2369 9.46472 20.4769 8.40872 21.3409L8.55272 21.5809ZM3.41672 34.0129L3.75272 33.8689C4.08872 32.5249 4.37672 31.0369 4.90472 29.4529C5.04872 29.2609 5.04872 28.8289 4.76072 28.5889C4.42472 29.7409 3.80072 32.3809 3.41672 34.0129ZM8.55272 36.1249C10.4247 35.9809 12.3447 35.5969 14.1687 35.0209C14.7927 34.8289 15.2247 34.8289 15.9447 34.9729C16.9527 34.4929 17.8167 33.9649 18.7287 33.3889C20.1207 32.4769 20.6007 32.0449 21.1287 30.9889C20.9367 31.1329 20.7927 31.0369 20.6007 31.1809C19.4967 31.9489 18.4407 32.9089 17.0487 33.5809C16.4247 33.7729 16.0887 34.1089 15.6567 34.3969C15.5607 34.3489 15.3687 34.4929 15.2727 34.4449C14.4087 34.2529 13.6407 34.6369 12.9687 34.8289C11.3847 35.3569 9.80072 35.5969 8.12072 35.7409C8.07272 35.8369 7.83272 35.7409 7.92872 36.0289C8.07272 36.0769 8.36072 36.1729 8.55272 36.1249ZM27.8881 30.6049C27.7921 30.6049 27.6481 30.6049 27.5041 30.5569C27.4081 30.4609 27.0241 30.2209 26.7361 30.0769C26.3041 29.5009 26.1601 28.8769 26.3521 28.1569C26.4961 27.8209 26.5921 27.5809 26.6881 27.2929C26.7361 27.2449 26.7361 27.2449 26.7361 27.1969C26.7841 26.9089 26.9281 26.6689 27.0241 26.3329L27.3601 25.7569C27.5521 25.5169 27.6481 25.2769 27.7441 25.1809C28.2721 24.3649 28.8961 23.7889 29.4721 23.0689C30.0481 22.4449 30.8641 21.8689 31.7761 21.7729C32.7841 21.9649 33.9361 22.1569 34.1281 23.2609C34.2721 23.9329 33.8881 24.3649 33.6481 24.8449C34.0321 24.7969 34.3681 24.4129 34.9441 24.4609C35.2321 24.5569 35.4241 24.7969 35.5201 25.1329C35.5201 25.1329 35.5681 25.6609 35.4241 26.0449C35.3761 26.0929 35.3761 26.1889 35.3281 26.2849C35.1841 26.9569 35.1841 27.6769 35.4721 28.3489C35.5201 28.5409 35.6641 28.7329 35.9041 28.8769C36.0001 28.9249 36.0961 28.9249 36.2401 28.8769C36.3841 28.8289 36.5761 28.8289 36.7681 28.7329C37.5361 28.3969 38.3041 27.8209 38.9761 27.3409C39.6001 26.9569 40.3201 26.5249 40.9921 26.0449C42.1441 25.3249 42.0481 25.4209 43.1521 24.7009C43.4881 24.4129 43.8721 24.1729 44.3521 23.8849L44.4961 23.9809L44.0641 24.5569C44.1601 24.7969 44.1601 24.7969 44.4481 24.6049C44.4481 24.5089 44.4481 24.3169 44.6881 24.4129C44.2081 25.1329 43.4401 25.5169 42.8161 25.9489C42.5761 26.1409 42.2401 26.2849 42.0961 26.3809C41.9521 26.5249 41.7601 26.7649 41.5201 26.8609C41.4721 26.9089 41.3281 26.9089 41.1841 26.9569C41.1841 26.9569 41.1841 26.9089 41.1361 26.8609C41.1841 26.8609 41.3281 26.7649 41.4241 26.6689C41.6161 26.5729 41.7121 26.4289 41.6641 26.2369C41.6641 26.1889 41.5681 26.1409 41.5201 26.1409C41.1361 26.3329 40.8961 26.5729 40.5601 26.8129C39.9841 27.0529 39.5521 27.3409 39.0721 27.7249C38.9281 27.7729 38.7841 27.9169 38.5921 27.9649V28.0609C38.7361 28.0129 38.8801 28.0129 38.9761 27.9169C39.1681 27.7729 39.3121 27.7729 39.4561 27.8689C39.4561 27.8209 39.4081 27.7729 39.4081 27.7249C39.7441 27.5809 39.9841 27.6289 40.2721 27.3889C40.5601 27.1969 40.8961 27.1009 41.0881 26.9089C41.0881 27.0049 41.0401 27.1489 40.8961 27.2449C40.5121 27.4369 40.1281 27.7249 39.7441 27.9169C39.6481 27.9649 39.5521 28.0609 39.4561 28.2049C39.3601 28.3009 39.2641 28.3489 39.1201 28.3969C39.2641 28.4449 39.3601 28.4449 39.4561 28.4449L39.4081 28.4929C39.3121 28.5409 39.2161 28.5889 39.0721 28.5889V28.7809C39.3121 28.6369 39.6481 28.4929 39.8881 28.3489V28.4449C39.6481 28.6369 39.3121 28.8289 39.1201 29.0689C38.7361 29.5009 38.3041 29.5969 37.8241 29.9329C37.5361 30.0769 37.3921 30.0289 37.1521 30.1729C37.0561 30.2209 36.8161 30.3169 36.6721 30.3169C36.6241 30.3169 36.3841 30.4129 36.2401 30.4129C36.0481 30.4129 35.6161 30.5089 35.4241 30.4609C35.3281 30.4129 35.0401 30.4129 34.9441 30.3169C34.8001 30.2689 34.7041 30.0769 34.5601 30.0289C34.2721 29.6449 33.9361 29.4529 33.7441 29.0209C33.4561 28.7329 33.5041 28.6369 33.3601 28.3969C33.2641 28.3489 33.2641 28.2529 33.2161 28.1569C32.8801 28.3489 32.8801 28.8289 32.5441 28.8289C32.4481 28.9249 32.4001 29.0689 32.3041 29.1169C31.7281 29.5489 30.9601 30.1729 30.1921 30.5089C29.4241 30.8929 28.6081 30.8929 27.8881 30.6049ZM27.7921 29.2129C28.3201 29.2129 29.1841 29.1649 29.6641 28.9729C30.2881 28.7329 30.7201 28.3969 31.2001 27.8689C31.9201 27.1009 32.2561 26.5249 32.9761 25.7569C33.0241 25.7569 33.2161 25.5169 33.2161 25.5169H33.1681C32.1121 25.4209 32.4961 23.3089 32.5441 23.2609C31.1041 23.5009 29.4241 25.7569 28.8961 26.6689C28.4641 27.4369 28.0321 28.2529 27.7921 29.2129ZM42.0481 26.2849C42.0961 26.2849 42.1441 26.1409 42.1441 26.0929C42.1441 25.9009 42.2401 25.8529 42.3361 25.8049C42.3841 25.7089 42.5761 25.6609 42.7201 25.6129C42.8161 25.5649 43.0081 25.5649 43.1041 25.5169V25.2289C43.2001 25.1809 43.2481 25.0849 43.2961 25.0369C43.2961 24.9889 43.2961 24.9409 43.2481 24.9409C43.1521 25.0369 42.9121 25.1809 42.6721 25.3249C42.3361 25.5169 41.7121 25.9489 41.6641 26.0449C41.7601 26.0929 41.9521 26.1889 42.0481 26.2849ZM50.2197 33.9169C50.1237 33.9169 50.0757 33.9169 50.0277 33.8689C49.3077 33.4849 48.5877 33.1489 48.2037 32.4769C48.1077 32.3329 48.0597 32.2369 48.0117 32.0929C47.7237 31.4209 47.5797 30.7009 47.7237 29.9329C47.8677 29.4049 48.1557 28.2529 48.1557 28.1569C47.9157 28.2049 47.6757 28.2049 47.4837 28.2049H45.7557C45.5157 28.2049 45.3237 28.1569 45.1317 28.2049C45.0357 28.2049 44.9397 28.3489 44.8917 28.4449C44.8437 28.6849 44.7477 28.9249 44.6517 29.2129L44.5077 29.3569C44.4597 29.4049 44.3637 29.4529 44.3637 29.5009C44.2197 29.8369 44.1237 30.1729 44.0277 30.5089L43.7397 31.6129C43.6917 31.8529 43.6437 32.0929 43.6437 32.2849V32.4289C43.7397 32.5249 43.7877 32.6689 43.6437 32.8129C43.5477 32.9569 43.3557 32.9569 43.1157 32.8609C42.3477 32.4289 42.2037 31.6609 42.2517 30.8929C42.2517 30.2689 42.5877 29.5969 42.7317 28.9249C42.8277 28.6849 42.7797 28.4929 42.9237 28.2049L42.6357 28.1089C42.4917 28.0609 42.2997 27.9649 42.5877 27.1969C42.5877 27.0049 42.6357 26.9089 42.8757 26.9089H43.3077L44.0277 24.5569C44.1237 24.2209 44.3637 23.8849 44.2677 23.5009C44.2677 23.4529 44.3637 23.3569 44.4117 23.3089C44.5077 23.1169 44.6517 22.9249 44.9397 22.8289C45.2277 22.7329 45.3717 22.9729 45.5637 23.1169C45.7557 23.2609 45.7557 23.5969 45.8037 23.8849C45.8517 24.1729 45.9477 24.5089 45.8997 24.7969C45.8517 25.1809 45.7557 25.6129 45.6597 26.0449C45.5637 26.2849 45.4677 26.5729 45.3717 26.9089H47.1957C47.5797 26.9089 47.9637 26.8609 48.3477 26.8609C48.5877 26.8609 48.7317 26.8129 48.7797 26.6689C49.1157 25.9969 49.4517 25.3249 49.8357 24.7009C49.9797 24.3649 50.2677 24.0289 50.5557 23.8369C50.8437 23.5489 51.4677 23.5009 51.7077 24.0769C51.7077 24.1249 51.7077 24.2209 51.7557 24.2689C52.0917 24.5089 51.9477 24.7969 51.8517 24.9889C51.6597 25.3729 51.4197 25.8049 51.2757 26.1889C51.1797 26.2849 51.1317 26.6689 51.0357 26.8609C51.4197 26.8129 51.7557 27.0529 51.9477 27.5329C51.9477 27.8209 51.7077 27.8689 51.5157 27.9649C51.2757 28.0609 50.7957 27.9649 50.5077 28.0129C50.4597 28.0129 50.4117 28.0609 50.3637 28.1569C50.3157 28.3969 50.2677 28.3489 50.2197 28.5889C50.1237 28.9729 50.1237 29.1169 49.9797 29.5009C49.7397 30.2209 49.5957 30.9409 49.6437 31.6609C49.6917 31.9969 49.6917 32.2369 49.6917 32.4769C49.7397 32.7169 49.9317 32.8129 50.1717 32.6689C50.7957 32.3329 51.4677 32.0449 52.0437 31.6129C52.6197 31.2289 53.0517 30.8929 53.4837 30.4129C53.9157 30.0289 54.2517 29.5969 54.6837 29.1649C54.8277 28.9249 55.0677 28.6849 55.2117 28.4929C55.4037 28.3009 55.5477 28.0609 55.7397 27.7729C55.9797 27.4849 56.2197 27.1969 56.5077 26.9089C56.5077 26.9569 56.5557 26.9569 56.5557 27.0049C56.3637 27.2929 56.1717 27.5809 56.0277 27.8689C55.8837 28.1089 55.7877 28.3489 55.6917 28.5889C55.6437 28.5889 55.2597 29.2609 55.3077 29.2609C55.0677 29.5009 54.8277 29.7889 54.5877 30.0769C54.6837 30.0289 54.8277 30.0289 54.8757 29.9329C55.2597 29.5489 55.5957 29.0209 55.9797 28.6369C55.9797 28.6849 55.9317 28.7329 55.9317 28.8289C55.6917 29.2609 55.4517 29.7409 55.1157 30.1249L54.5877 30.6529C54.5397 30.7009 54.5877 30.7489 54.5397 30.8929C54.2037 31.0369 53.5317 31.5169 53.4357 31.7089C53.6277 31.6609 53.9157 31.6129 54.1557 31.6129V31.7089C54.0597 31.7089 53.9637 31.7569 53.8197 31.7569C53.9157 31.9009 53.9637 31.8049 54.2037 31.8529C54.1557 31.9489 53.6277 32.1409 53.5797 32.1889L53.1477 32.5249L52.7157 32.6209L52.2837 32.9569C52.3797 33.0049 52.4277 33.0529 52.5237 33.1489C52.1877 33.4849 51.7557 33.7249 51.3237 33.8209C50.9397 33.8689 50.5557 34.0609 50.2197 33.9169ZM48.1557 30.0769C48.4437 30.0769 48.4437 30.0769 48.3477 29.8849C48.4437 29.8369 48.4917 29.8369 48.5877 29.8369C48.5877 29.7889 48.6357 29.7889 48.6357 29.7409L48.3477 29.5969C48.4437 29.5489 48.5397 29.5009 48.5877 29.4529C48.6357 29.2129 48.7797 28.9249 48.6837 28.6849C48.5877 28.4929 48.8277 28.6369 48.8277 28.4929L48.7317 28.2529C48.2517 28.8289 48.3477 29.5009 48.1557 30.0769ZM70.8327 3.82087C70.8807 3.96487 70.8327 4.20487 70.7367 4.44487C70.6407 4.68487 70.5927 5.11687 70.5447 5.40487L70.4487 5.93287C70.4487 5.98087 70.4487 6.07687 70.4007 6.12488C70.3527 6.17287 70.4007 6.22087 70.3527 6.26887C70.0647 6.55688 70.1607 7.18087 69.8727 7.46887C69.8247 7.46887 69.8247 7.42087 69.7287 7.46887C69.8247 7.18087 69.9687 6.98887 69.9687 6.70087C70.0647 6.46087 70.2087 6.22087 70.3527 5.93287C70.3047 5.93287 70.3047 5.93287 70.2567 5.88487C70.2087 6.17287 70.0647 6.46087 69.9687 6.70087C69.9207 6.84487 69.8247 6.94087 69.7767 7.08487H69.7287C69.8727 6.46087 70.1127 6.02887 70.2567 5.54887V5.50087C70.1607 5.54887 70.1607 5.59687 70.1127 5.64487C69.8727 6.12488 69.6807 6.74887 69.4887 7.32487C69.3927 7.51687 69.2487 7.66087 69.1527 7.80487L68.3847 9.43687C68.1927 9.77287 67.9527 10.1089 67.7607 10.3969C67.6647 10.4929 67.5687 10.6369 67.4727 10.3489C67.6167 10.3009 67.7607 10.1089 67.9047 9.96487C67.9047 9.91687 67.8567 9.91687 67.8567 9.86887C67.8087 9.91687 67.7127 9.96487 67.5687 9.96487C67.4247 10.2049 67.1847 10.5409 67.0407 10.8769C66.9447 11.1169 66.8487 11.3569 66.7047 11.5969C66.6087 11.7889 66.4167 11.9809 66.3207 11.9809C66.2727 12.1249 66.2247 12.2689 66.2247 12.4129C66.2247 12.4609 66.1287 12.5089 66.0807 12.5089V12.6049C66.1767 12.6529 66.2727 12.6049 66.4167 12.7009C66.1767 12.8449 66.1287 13.0369 66.0807 13.1809C65.9367 13.3729 65.8887 13.5169 65.7927 13.6609C65.8407 13.7089 65.8887 13.7089 65.8887 13.7089C65.9847 13.5169 66.0807 13.3249 66.2247 13.1809C66.4647 13.2769 66.6087 13.2769 66.8007 13.3249C66.7527 13.3729 66.7527 13.5649 66.6087 13.4209C66.6087 13.4209 66.5127 13.4689 66.5127 13.5169C66.4647 13.6609 66.2727 13.7569 66.5127 13.8049C66.2727 13.9969 66.0327 13.9969 65.9367 14.3809C66.0327 14.2849 66.0807 14.2369 66.1767 14.1889V14.2369C66.0327 14.6209 65.8887 14.8129 65.6967 15.1009C65.6007 15.1009 65.5527 15.2929 65.4567 15.3889C65.2647 15.6289 65.1687 15.9169 64.9767 16.1089C64.8807 16.2049 64.7847 16.3489 64.7847 16.4929C64.7367 16.4449 64.6887 16.4929 64.6407 16.4929C64.5447 16.5409 64.4967 16.5409 64.5447 16.6849C64.5927 16.6849 64.5447 16.7809 64.4487 16.8289C64.0647 17.3089 63.9687 17.2129 63.5847 17.7409C63.2007 18.2689 62.8167 18.6049 62.3847 19.0369C61.8567 19.5649 61.6167 20.0449 61.1367 20.6209C61.0887 20.7649 60.8967 20.7169 60.8487 20.8609C60.7527 21.1489 60.4167 21.3409 60.1767 21.6289C60.1287 21.7249 59.6967 24.1729 59.6007 24.5569L59.5527 24.8929C59.6007 24.8929 59.6487 24.8929 59.7927 24.8449C60.0327 24.6049 60.3207 24.4129 60.7047 24.0769C61.3767 23.5969 61.7607 23.1649 62.4807 22.7809C63.1047 22.4449 63.6327 22.3489 64.3047 22.3489C64.6407 22.3489 64.8807 22.5409 65.2167 22.5889C65.3127 22.6369 65.4567 22.6849 65.6007 22.7809C65.5047 22.8289 65.4567 22.8289 65.3127 22.9249L66.5127 23.3569C66.5607 23.5969 66.6087 23.6929 66.6087 23.8849C66.6087 24.2209 66.6567 24.6529 66.4647 24.9889C66.4167 25.5649 66.2247 25.9969 65.9367 26.4769C65.6487 26.9569 65.4087 27.1489 65.1687 27.3409C64.4487 28.0129 64.0647 28.1089 63.5367 28.4449L62.4807 28.7809C62.3847 29.5969 62.8167 30.6529 63.1527 31.2289C63.2487 31.3729 63.3447 31.4209 63.3927 31.4209C64.2567 31.5169 64.5927 31.4209 65.4087 31.1329C66.2727 30.7489 67.6647 29.6929 68.2887 29.0689C69.0567 28.4449 69.4407 27.9649 69.9687 27.5809L70.2567 27.8689C70.2087 28.1569 70.0647 28.3969 69.9687 28.5889C69.7767 28.9729 69.3927 29.6449 69.1047 30.0289C68.6727 30.4609 67.9527 31.5649 67.3287 31.9009C66.9927 32.0929 66.6087 32.2849 66.3687 32.4769C66.0327 32.6209 65.7447 32.7649 65.3127 32.8609C64.7847 33.0529 64.4967 33.0049 64.0647 33.0049C63.9207 33.0049 63.8247 32.9089 63.7287 32.9569C63.2967 33.0529 62.7687 32.8609 62.5767 32.5729C62.1447 32.3329 61.9047 32.1889 61.6647 31.8529C61.4247 31.5169 61.2327 31.1809 61.1367 30.7489C60.7527 29.7409 60.7527 28.8769 60.8487 28.0609L62.2407 27.3409C63.1047 26.8609 64.0167 26.3809 64.4967 25.5169C64.7847 24.9889 64.8807 24.5089 64.4967 23.8849C64.0167 23.7409 63.5367 24.0769 63.1047 24.3169C62.4807 24.8449 62.0967 24.9889 61.3287 25.6129C60.9927 25.9489 60.6567 26.1409 60.3207 26.3809L59.8887 26.7169L59.3127 27.1009C59.2647 27.2449 59.0727 28.3489 59.0247 28.3969C58.8327 29.0209 59.0247 29.1169 58.7847 29.4049C58.7847 29.6449 58.5927 29.8369 58.5927 30.0769L58.5447 30.4609L58.4967 30.7009L58.3527 31.3249C58.4967 31.6609 58.3527 31.9009 58.2087 32.1409C58.0167 32.5249 57.5367 32.5249 57.5367 32.1889C57.3927 32.1409 57.2967 32.0929 57.2007 31.9489L57.0567 31.6609L56.7207 31.3249C56.6727 31.2289 56.6727 31.0849 56.6727 30.9409L56.8167 30.1729C56.9607 29.8369 56.9607 29.4529 56.9607 29.0689L57.1527 28.3009C57.2967 27.8209 57.3927 27.2449 57.4887 26.7169C57.5847 26.4289 57.6327 25.8049 57.7287 25.4209L58.2087 22.9249V22.8769C57.8247 23.0689 56.8167 23.9329 56.5287 23.8369C56.3367 23.7889 56.1927 23.6929 56.1447 23.5969C56.0487 23.4049 56.0487 22.2049 56.2407 22.0609C57.1527 21.5329 58.1607 20.7169 58.8807 20.0929C59.1207 19.1329 59.3607 18.1729 59.5527 17.2129C59.8407 16.2529 60.0807 15.2929 60.4167 14.2849C60.8007 13.1329 61.0887 11.9329 61.6167 10.7809C62.0967 9.72487 62.4327 8.76487 62.8647 7.66087C63.0087 7.27687 63.2967 6.98887 63.3927 6.60487C63.5367 6.26887 63.6807 5.88487 63.8727 5.54887C64.2087 4.92487 64.5927 4.54087 64.9287 3.77287C65.0247 3.58087 65.2167 3.38887 65.3607 3.19687C65.5527 2.76487 65.7447 2.62087 66.0327 2.28487C66.1287 2.18887 66.1767 2.14087 66.2247 1.99687C66.3207 1.94887 66.4167 1.90087 66.4647 1.80487C66.7047 1.42087 66.9447 1.13287 67.4727 0.892874C67.7607 0.796875 68.0007 0.604875 68.3367 0.604875C68.6247 0.604875 68.9127 0.652874 69.2487 0.748873C69.7287 0.988873 70.1127 1.56487 70.5447 1.94887C70.6887 2.23687 70.7367 2.71687 70.7847 3.19687C70.8327 3.34087 70.8327 3.58087 70.8327 3.82087ZM69.2007 4.30087C69.2007 2.95687 69.2487 2.62087 68.6727 2.47687C68.4327 2.47687 68.1927 2.62087 67.9527 2.81287C67.5687 3.10087 67.3767 3.38887 66.9927 3.86887C66.6567 4.39687 66.1767 4.92487 65.7447 5.59687C65.3607 6.26887 65.0727 6.89287 64.6887 7.61287C64.4487 8.28487 64.0167 8.66887 63.9207 9.38887L63.9687 9.43687C63.8727 9.77287 63.6327 9.91687 63.5367 10.2049C63.2487 10.7809 63.1527 11.3089 62.8167 12.2689C62.3367 13.8049 62.0487 14.3329 61.7607 15.4369C61.3287 16.6849 61.1847 17.2129 60.8487 18.4129L61.0407 18.0769C61.5687 17.4049 62.0007 17.0689 62.5287 16.3009C63.0567 15.7249 63.4407 15.2449 63.8247 14.6209C64.0647 14.3809 64.3047 13.9489 64.5447 13.6129C65.0247 12.8449 65.3607 12.1729 65.7927 11.6449V11.5969C66.1767 10.8289 66.6567 10.2049 66.9927 9.62887C67.3767 8.95687 67.5687 8.33287 67.9527 7.70887C68.1927 7.13287 68.5767 6.26887 68.8647 5.50087C68.9607 5.16487 68.9607 4.82887 69.2007 4.30087ZM67.3287 12.1249C67.2807 12.1249 67.2327 12.1729 67.2327 12.2689C67.3287 12.6529 67.2807 12.6529 67.0887 12.7489C67.0407 12.8449 66.9927 13.0369 66.9927 13.0849C66.8967 13.1809 66.8007 13.1329 66.7047 13.1329C66.6567 13.1329 66.6087 13.1329 66.5607 13.0849C66.5127 13.0369 66.4647 12.9889 66.4167 12.9889C66.3687 12.8929 66.4647 12.7969 66.5127 12.7489C66.5127 12.7489 66.6087 12.7969 66.6567 12.7489C66.7047 12.7489 66.7527 12.7489 66.8487 12.7009C66.7047 12.5569 66.7047 12.4609 66.7527 12.2689C66.8007 12.1729 66.8967 12.0769 66.9447 12.1249C66.9447 12.0769 66.9927 12.0769 67.0407 12.0289V12.1729C67.0887 12.1249 67.1367 12.1249 67.1847 12.0769C67.1847 12.0289 67.0887 11.9809 66.9927 11.8849C67.1367 11.7889 67.1367 11.6929 67.2327 11.5969C67.2327 11.6929 67.2807 11.6449 67.3287 11.7889C67.4247 11.6929 67.5207 11.5969 67.6647 11.3569C67.5687 11.3089 67.5207 11.3089 67.4247 11.1649L67.7607 10.6369C67.8087 10.7809 67.8087 10.8769 67.8087 11.0209C68.0007 10.5409 68.1927 10.2529 68.4807 9.77287C68.4327 9.77287 68.3847 9.82087 68.2887 9.82087C68.4327 9.48487 68.5287 9.10087 68.7207 8.86087C68.9607 8.52487 69.1047 8.18887 69.2487 7.80487C69.3927 7.56487 69.5367 7.56487 69.7767 7.61287L69.5847 7.90087C69.3927 8.14087 69.3447 8.38087 69.2967 8.57287C69.2007 8.81287 69.1527 9.00487 68.9607 9.19687C68.7687 9.82087 68.3367 10.2529 68.0967 10.8289C68.0007 10.8769 68.0007 11.1169 67.9527 11.3569C67.8087 11.6929 67.5687 12.0769 67.4247 12.3649C67.3287 12.2689 67.3287 12.1729 67.3287 12.1249ZM67.9047 8.90887C68.0007 8.71687 68.1927 8.47687 68.2887 8.28487C68.2887 8.28487 68.1927 8.18887 68.1927 8.14087C68.1447 8.38087 68.0007 8.66887 67.9047 8.90887ZM67.8567 9.67687C68.1927 9.62887 68.1447 8.90887 68.4327 8.81287C68.4327 8.76487 68.3847 8.71687 68.3367 8.66887C68.1927 8.95687 68.0007 9.29287 67.8567 9.67687ZM62.5287 10.4449C62.4327 10.6849 62.5767 10.8289 62.5287 11.0689C62.5767 11.0689 62.5767 11.1169 62.5767 11.1169C62.6727 10.8769 62.7207 10.6849 62.7687 10.4929L62.5287 10.4449ZM66.5607 12.2689C66.5127 11.9809 66.7527 11.9329 66.8967 11.5969C66.8967 11.9809 66.7047 12.0769 66.5607 12.2689ZM65.1687 14.3809C65.3607 14.3329 65.5527 14.1409 65.6967 13.9969C65.6007 13.9969 65.4567 14.0449 65.3127 14.1409C65.5047 13.9969 65.5527 13.9009 65.6007 13.8529C65.5047 13.9009 65.3607 14.0449 65.2167 14.1889C65.2647 14.0929 65.3127 13.9969 65.3607 13.9489H65.3127C65.0247 14.2849 64.6887 14.6689 64.4007 15.0529C64.3047 15.1009 64.3047 15.1489 64.2087 15.1969C63.8727 15.4369 63.6807 15.7729 63.3927 16.1569C62.9607 16.6369 62.6247 17.1169 62.1447 17.7889C62.0007 17.5009 61.6647 17.8849 61.2807 18.5089C60.8487 18.9409 60.6087 19.2769 60.7047 19.5169C60.6567 19.6129 60.6567 19.7569 60.5127 20.2369C60.6087 20.1409 60.7527 19.9969 60.8487 19.8529C60.8967 19.7089 61.0407 19.6129 61.1847 19.5169C61.1367 19.5169 61.0887 19.4689 61.0407 19.5169C60.9927 19.6129 60.8967 19.7089 60.8007 19.7569H60.7527C60.8487 19.6609 60.9447 19.5169 61.0887 19.3249C61.1847 19.3729 61.1847 19.3729 61.3287 19.3249C61.4247 19.1329 61.4727 18.9889 61.5687 18.8929C61.3767 19.0849 61.2807 19.1809 60.9927 19.3249C61.1367 19.2289 61.2327 19.1329 61.3287 18.9889C61.5207 18.8929 61.7607 18.7009 61.7607 18.5089C61.8567 18.4129 62.0007 18.3169 62.1927 18.1249C62.2887 18.0289 62.4327 17.9329 62.5767 17.7409L62.2887 17.9329C62.6727 17.4049 62.7687 17.6929 63.1047 17.2609C62.9607 17.3569 62.9127 17.4049 62.8647 17.4529L63.0087 17.2609C63.1527 17.0689 63.3447 16.9249 63.6327 16.6849C63.5847 16.6849 63.6327 16.6369 63.6327 16.5409L63.7287 16.3489C63.8727 16.2529 63.9687 16.2049 64.1127 16.1089C64.1127 16.1089 64.0647 16.1089 64.1127 16.0609L64.2087 15.9649C64.2567 15.8209 64.4967 15.5809 64.5447 15.4369L64.4967 15.4849C64.4487 15.4849 64.3047 15.6289 64.3047 15.7249C64.2567 15.6769 64.2567 15.6289 64.2567 15.5809C64.6887 15.2449 64.8807 15.1009 64.8807 14.9569C64.5927 15.2929 64.4487 15.2929 64.2567 15.4369C64.4487 15.0529 64.7847 15.0049 64.9767 14.8129C64.9767 14.7649 64.9767 14.6689 65.0727 14.5729C65.2647 14.4289 65.1207 14.4769 64.8807 14.5249C65.0247 14.4289 65.1207 14.3809 65.1687 14.3809ZM59.7447 19.8049C59.7927 19.6609 59.8407 19.3729 59.8407 19.2289L59.6487 19.8529C59.6967 19.8049 59.7447 19.8049 59.7447 19.8049ZM60.3687 20.3329V20.3809C60.3687 20.3809 60.3687 20.3809 60.3687 20.3329ZM58.7847 23.6929C58.9287 23.0689 59.0727 22.4929 59.1207 21.8689V21.7729L59.0727 21.6769H58.9767C58.9287 21.9169 58.9287 22.2049 58.8807 22.3969C58.7847 22.9249 58.5927 23.5489 58.5927 24.1249C58.5447 24.2209 58.5447 24.3649 58.5927 24.3649C58.7367 24.0769 58.7847 23.9329 58.7847 23.6929ZM62.8167 23.4529C62.5287 23.5489 62.1447 23.6449 62.0967 24.0769C62.3847 23.8849 62.6247 23.6929 62.8647 23.5009C62.8167 23.5009 62.8167 23.4529 62.8167 23.4529ZM60.8967 24.8929C60.7527 24.9889 60.5607 25.0849 60.3687 25.1329C60.8487 25.2769 60.8487 25.2769 60.8967 24.8929ZM60.7527 25.5649C60.3207 25.2769 60.3207 25.2769 60.1287 25.5649C60.3207 25.5169 60.4647 25.5649 60.7527 25.5649ZM65.0247 26.6689C64.9287 26.7169 64.7367 26.8129 64.7367 26.8609C64.7367 27.0529 64.6407 27.1009 64.4967 27.1009L64.0647 27.3889C64.1127 27.3889 64.1607 27.4369 64.1607 27.5329C64.2087 27.4849 64.3527 27.4369 64.3527 27.3889C64.5927 27.2449 64.7367 27.1009 64.9287 26.9569C64.9767 26.8609 65.0247 26.8129 65.1207 26.7169L65.0247 26.6689ZM78.9218 29.3569C78.9218 29.4049 78.9698 29.4529 78.9698 29.4529C79.5938 29.2609 80.1218 28.7329 80.7458 28.3969C80.6978 28.4929 80.6978 28.5889 80.6498 28.6369C80.4578 28.8289 80.2178 29.0209 80.0258 29.1649L79.1138 29.8849C78.7298 30.0769 78.4418 30.2689 78.1058 30.5089C77.6738 30.7489 77.2898 31.0849 76.8098 31.2769C76.5218 31.4209 76.1858 31.4209 75.8498 31.4689C75.6578 31.4689 75.5618 31.5169 75.4178 31.6129C75.2258 31.7089 74.9378 31.7569 74.6978 31.8049C74.3138 31.9009 73.9778 31.9969 73.5938 31.9489C73.1138 31.9009 72.5858 31.8049 72.1538 31.6609C71.7218 31.5169 71.5298 31.4689 71.0498 31.0849C71.0018 30.9889 70.8578 30.9409 70.8098 30.8929C70.4738 30.6529 70.2818 30.3649 69.9938 29.9329C69.8978 29.8369 69.8978 29.8369 69.8018 29.3569C69.5618 28.7809 69.6098 28.4449 69.6098 28.1089C69.6578 27.1489 69.8978 26.2369 70.3778 25.3249C70.5698 25.0369 70.7618 24.7489 71.0018 24.4609C71.4338 23.9329 71.8658 23.4529 72.2978 22.9729C72.7298 22.5409 73.2578 22.2529 73.8818 22.2049C74.0258 22.2049 74.1698 22.1569 74.3618 22.1089C74.8418 21.9169 75.2738 22.2529 75.6098 22.4449C76.0418 22.6369 76.4258 22.9249 76.7618 23.2129C77.1458 23.4529 77.3858 24.2689 77.2418 24.6529C77.1458 24.8929 77.0018 25.1329 76.8578 25.2769C76.4258 25.7569 75.9938 26.1889 75.5618 26.6209C75.4178 26.7649 75.1298 26.8129 75.0818 26.9569C75.0338 27.2929 74.6978 27.3409 74.5058 27.4369L74.1698 27.6289C74.2658 27.6289 74.3138 27.6769 74.3138 27.6769C74.1698 27.7729 74.0258 27.8209 73.8338 27.9169C73.7858 27.9649 73.7858 28.1089 73.7378 28.1569C73.4018 28.3489 73.0178 28.4929 72.7298 28.6849C72.5858 28.7329 72.4898 28.8769 72.3938 28.9729C72.0098 29.1649 71.8658 29.2129 71.5298 29.4049C71.7218 29.9809 71.8178 30.0769 72.2018 30.2209C72.8258 30.1729 73.4498 30.2209 74.0738 30.1249C74.5058 30.0769 74.9378 29.8849 75.3698 29.7409C75.7058 29.5969 76.0898 29.4049 76.4738 29.2609C76.7138 29.1649 76.9538 29.1649 77.1938 29.0209C77.7218 28.6849 78.2978 28.3969 78.7778 28.1089L78.9218 28.0129C78.9698 28.0609 78.9698 28.0609 78.9698 28.0609C78.9218 28.1569 78.8258 28.2529 78.7778 28.3009C78.8258 28.3489 78.8738 28.3969 78.8258 28.4449C78.9698 28.4449 79.1138 28.3969 79.2098 28.3489C79.2578 28.3969 79.2578 28.3969 79.2098 28.4449C79.0178 28.5889 78.7778 28.7809 78.5858 28.9729C78.7298 29.0689 78.9698 29.1169 79.2098 29.2129C79.0658 29.2609 79.0178 29.3089 78.9218 29.3569ZM71.8178 26.4769C71.6738 26.7649 71.5778 27.1009 71.4818 27.4849C71.8658 27.2449 72.1058 27.1009 72.2978 26.9569C72.3938 26.9569 72.4898 27.0049 72.5378 26.9569C72.6818 26.8609 72.9218 26.7169 73.1138 26.5249C72.9698 26.5249 72.9218 26.5729 72.7778 26.5729C73.0658 26.3329 73.2098 26.0449 73.5458 26.0449C73.4498 26.1889 73.3058 26.2849 73.2098 26.4289C73.2098 26.4289 73.2098 26.4769 73.2578 26.4769C73.6898 26.1889 74.0738 25.8529 74.5058 25.5649L74.4098 25.4689C74.3138 25.5649 74.2178 25.6609 74.0258 25.7569C73.8818 25.8529 73.7378 25.9489 73.5458 26.0449C73.5938 25.9969 73.5938 25.9489 73.5938 25.9009C74.0738 25.5169 74.4578 25.1809 74.8898 24.7489C75.1778 24.5089 75.3698 24.2209 75.5618 23.8849C75.7058 23.6449 75.4658 23.2129 75.2738 23.3089C74.8418 23.5009 74.4098 23.5009 74.0258 23.7889C73.5938 24.1249 73.1618 24.3649 72.8258 24.7969C72.4418 25.3249 72.1058 25.9009 71.8178 26.4769ZM76.0898 23.7409C75.7538 24.1249 75.5618 24.5089 75.7058 25.0369C75.8498 24.7489 76.0898 24.4129 76.2338 24.1249L76.0898 23.7409ZM82.7138 26.0929C82.4258 26.2849 82.1378 26.4289 81.8978 26.6209V26.6689C81.8978 26.6209 81.9458 26.6209 81.9458 26.6209C81.9458 26.6689 81.9938 26.7169 81.9938 26.7169C81.8978 26.8129 81.7058 26.9569 81.4658 27.1009L81.5138 27.2929C81.3218 27.3889 81.2258 27.4849 81.3698 27.6289C81.1778 27.7729 80.8898 27.7729 80.8418 28.1089C80.8418 28.1089 80.8418 28.1569 80.7938 28.1569C80.4578 28.1569 80.2658 28.4929 80.0258 28.6849C79.8818 28.7809 79.6898 28.9249 79.4498 29.0209C79.3538 29.0689 79.2578 28.9729 79.1618 28.9249C79.1138 28.8289 79.1138 28.7329 79.1138 28.6849C79.1138 28.6369 79.1618 28.5889 79.1618 28.5889C79.5938 28.6849 79.8818 28.3489 80.2178 28.1569L80.5538 27.9649C80.7458 27.9169 80.8418 27.7729 80.6498 27.4849C80.3138 27.7729 79.8818 28.0129 79.4978 28.3489C79.4498 28.3009 79.3058 28.2529 79.1618 28.2049C79.4978 28.0129 80.2658 27.5809 80.5538 27.0529C80.6498 26.9569 81.1778 26.7169 81.3218 26.5729L81.6578 26.7169C81.7538 26.5729 81.8498 26.4769 81.9458 26.3809C81.8978 26.3329 81.8498 26.3329 81.7538 26.2849L81.8018 26.2369C81.9458 26.2369 82.0898 26.2369 82.3298 26.1889C82.2818 26.0929 82.2338 26.0449 82.2338 25.9969L82.4738 25.8049L82.4258 25.7569L82.2338 25.9009H82.1378L82.9538 25.3729L83.0498 25.7089C83.0498 25.7089 83.0978 25.7089 83.0978 25.7569C82.9538 25.8529 82.8578 25.9969 82.7138 26.0929ZM79.0658 27.9649C79.0178 27.9649 79.0178 27.9169 79.0178 27.9169C79.4498 27.6289 79.8818 27.4369 80.3618 27.1489C80.3138 27.3889 80.0258 27.4849 79.0658 27.9649ZM77.8178 28.9729C78.1538 28.8289 78.3938 28.6849 78.6338 28.5409C78.5858 28.3969 78.1538 28.5409 77.8178 28.9729ZM96.7501 35.5969C96.5581 35.6929 95.4541 35.6929 95.0221 35.3089C94.5901 35.0689 94.2541 34.5409 94.0141 33.9649C93.9181 33.5329 93.6301 32.9089 93.5821 32.2369C93.5821 31.6129 93.4381 30.9409 93.4861 30.4609L93.4381 29.4049C93.2941 29.3569 93.1501 29.4049 92.8621 29.6449C92.8621 29.7409 92.7661 29.7409 92.7181 29.7889C92.0941 30.4129 91.4221 30.8929 90.8941 31.5169C90.5581 31.9489 90.0781 32.0929 89.6941 32.3809L89.3581 32.6689C89.2141 32.6689 89.0701 32.6209 88.8301 32.5729L88.4461 31.9489C88.4461 32.0929 88.3501 32.1889 88.3021 32.3329C88.1101 32.3809 88.0141 32.2849 87.9661 32.0929C87.9661 31.9969 87.8221 31.9969 87.7741 31.8529C87.7261 31.7569 87.5341 31.6609 87.5341 31.5649C87.4381 31.0849 86.6701 30.9409 87.2461 30.5089C87.3421 29.8369 87.5821 28.4449 87.6781 27.7249C87.7261 27.6769 87.6781 27.5809 87.5821 27.4369C87.0061 28.1569 86.4781 28.7809 86.2381 29.1169C86.1421 29.2129 85.9981 29.2609 85.8541 29.3089C85.9981 29.5969 85.7101 29.7889 85.5181 30.0289L85.2301 30.6529C84.7501 31.3249 84.3661 31.9969 83.9341 32.6689C83.7901 32.9089 83.5021 33.0049 83.3101 33.1969C83.2141 33.2449 83.1181 33.3409 83.0701 33.4849L82.6861 33.7729C82.3981 33.5809 82.3981 33.1969 82.3021 33.0049L82.0621 33.3889C81.7741 33.0049 81.6781 32.5249 81.7261 31.9969C81.8701 30.3649 82.2061 28.7809 82.6381 27.1969C82.8781 26.2849 83.0221 25.3249 83.2621 24.4129C83.2621 24.1729 83.3581 23.9329 83.2621 23.7409C83.2141 23.6449 83.4061 23.4529 83.4061 23.3569C83.7901 23.4049 83.9341 23.4049 84.2221 23.5009C84.5581 23.5969 84.7981 23.6929 84.8941 24.1249C84.9901 24.6049 84.9421 25.1329 84.7981 25.6129C84.7021 26.2369 84.6061 26.8609 84.4141 27.5329C84.3661 27.9169 83.7901 29.4049 83.6941 29.9329C83.8381 29.8849 83.9341 29.8369 83.9821 29.7889C84.1261 29.5009 84.3661 29.1649 84.9901 28.1089C85.4221 27.5809 85.7581 26.8609 86.2861 26.3329C86.6221 25.9969 86.9101 25.6129 87.2941 25.3249C87.4861 25.1809 87.6301 25.2289 87.8221 25.3729C88.1101 25.7089 88.5421 25.9009 89.0221 25.7569C89.2141 25.6609 89.3581 25.7569 89.5501 25.7569C89.6941 26.0929 89.5981 26.4769 89.6941 26.8609C89.7421 26.9569 89.7901 27.1489 89.7421 27.2929C89.6941 27.7249 89.7901 28.1569 89.5981 28.5409C89.4541 28.9249 89.3581 29.9809 89.2621 30.5089C89.8861 29.9809 90.6541 29.2129 91.1821 28.7809C91.4701 28.5409 91.8061 28.3009 92.1421 28.1089C92.3341 27.9649 92.5261 27.8689 92.9101 27.5329C93.0541 27.4849 93.2941 27.4369 93.3901 27.5329C93.8701 27.6769 94.0621 27.9169 94.5421 28.1089C94.6381 28.2049 94.7341 28.3009 94.5421 28.3009C94.5901 28.3969 94.6861 28.5409 94.8301 28.5409C95.2621 28.5409 95.2621 29.0209 95.2141 29.3569C95.2621 29.5009 95.2621 29.7409 95.2621 29.9809V30.2209C95.0701 30.5089 95.2621 30.8449 95.2141 31.1329C95.2621 31.5649 95.2621 31.9969 95.3581 32.3809C95.4541 32.6689 95.4541 32.8609 95.6941 33.7729C95.9821 34.3489 96.3661 34.5889 97.0381 34.3489C97.1341 34.2529 97.3261 34.5889 97.2301 34.7809C97.2301 34.8769 97.1341 34.9249 97.0381 35.0209C97.0381 35.1649 97.0381 35.2609 96.7501 35.5969Z" fill="#272727"></path></svg> 