<?xml version="1.0" encoding="UTF-8"?> <svg xmlns="http://www.w3.org/2000/svg" width="318" height="163" viewBox="0 0 318 163" fill="none"><path d="M20.883 23.0708C22.8708 23.0708 24.1239 24.4968 24.6425 27.3488C24.2103 29.1637 23.3461 30.0712 22.0497 30.0712C21.3583 30.0712 20.6237 29.6823 19.8459 28.9044C16.9075 32.1886 14.8765 35.5591 13.753 39.0161C13.148 39.7075 12.4134 40.0532 11.5491 40.0532C10.1663 40.0532 9.34529 39.189 9.08602 37.4605C9.69099 34.1764 11.8948 30.3304 15.6975 25.9228C17.5989 24.0214 19.3273 23.0708 20.883 23.0708ZM8.17856 45.3684C9.7342 45.8005 10.512 46.5783 10.512 47.7018V48.2204C7.48716 57.3814 5.97473 63.604 5.97473 66.8881C5.8883 66.8881 5.84509 68.0548 5.84509 70.3883C5.84509 70.6476 5.80188 70.8204 5.71545 70.9069C5.71545 75.9195 6.83897 79.2036 9.08602 80.7593C9.86384 81.1914 10.7281 81.4075 11.6788 81.4075C17.2964 81.4075 26.0685 75.7034 37.9951 64.2954C38.5136 63.9497 39.1186 63.7768 39.81 63.7768C41.1928 63.7768 42.0138 64.6843 42.2731 66.4992C42.2731 67.3634 41.0632 68.7895 38.6433 70.7772C27.3216 81.321 18.2902 86.5929 11.5491 86.5929C5.75866 86.5929 2.21525 82.8335 0.91888 75.3145C0.659605 72.8082 0.529968 71.3822 0.529968 71.0365C0.529968 64.2954 2.25846 56.1714 5.71545 46.6647C6.32042 45.8005 7.14146 45.3684 8.17856 45.3684Z" fill="#F0D5E2"></path><path d="M42.5324 50.9427H43.0509C44.2609 50.9427 45.0387 51.7638 45.3844 53.4058C43.3102 62.3076 42.2731 68.7462 42.2731 72.7218V73.4996C42.2731 75.4874 42.7052 76.4813 43.5695 76.4813C44.7794 76.4813 47.6314 73.586 52.1255 67.7956C58.3481 59.5852 63.3175 55.48 67.0338 55.48C69.5401 55.48 72.3489 57.511 75.4602 61.573C79.8679 66.672 83.1088 69.7401 85.183 70.7772C86.9979 71.7279 88.6832 72.2032 90.2388 72.2032C94.8193 72.2032 99.9616 69.308 105.666 63.5175C106.184 63.0854 106.703 62.8694 107.221 62.8694H107.61C109.166 63.2151 109.944 63.9929 109.944 65.2028V65.5917C109.944 66.5424 108.647 68.0548 106.055 70.129C100.351 75.2281 95.1218 77.7776 90.3685 77.7776C84.7509 77.7776 78.7876 73.7589 72.4785 65.7214C70.0587 62.6965 68.4598 61.1409 67.682 61.0544H67.0338C64.6139 61.0544 60.5519 64.9003 54.8479 72.5921C49.9217 78.9011 46.0758 82.0556 43.3102 82.0556C40.7175 82.0556 38.8161 80.2407 37.6062 76.6109C37.2605 75.3145 37.0876 73.7589 37.0876 71.944C37.0876 67.7091 38.2111 61.1409 40.4582 52.2391C41.1496 51.3749 41.841 50.9427 42.5324 50.9427Z" fill="#F0D5E2"></path><path d="M126.797 46.1462H127.315C128.784 46.4919 129.519 47.2697 129.519 48.4796V48.6093C129.519 52.0663 127.834 58.6778 124.463 68.4438C121.006 76.9998 117.16 81.2778 112.925 81.2778C109.814 81.2778 107.697 78.7283 106.573 73.6292C106.314 71.7279 106.184 69.8265 106.184 67.9252V67.4067C106.184 61.7026 106.919 56.6468 108.388 52.2391C108.993 51.4613 109.728 51.0724 110.592 51.0724C112.32 51.3317 113.185 52.1095 113.185 53.4058V53.9244C111.888 58.5049 111.24 63.0422 111.24 67.5363C111.24 72.3761 111.845 75.2281 113.055 76.0923H113.185C115.777 76.0923 118.932 69.7833 122.648 57.1653C123.426 54.5726 124.074 51.4181 124.593 47.7018C125.284 46.6647 126.019 46.1462 126.797 46.1462Z" fill="#F0D5E2"></path><path d="M193.56 17.1075H193.689C198.443 16.8482 200.819 16.6321 200.819 16.4593C202.116 12.5702 202.764 9.80458 202.764 8.16251C202.677 6.77971 202.332 6.08832 201.727 6.08832C199.566 6.08832 196.844 9.76137 193.56 17.1075ZM191.485 22.5522C188.893 30.1576 186.559 38.3679 184.485 47.1833H184.744C190.189 39.0593 194.165 32.1886 196.671 26.571L198.745 22.0337C194.424 22.3794 192.004 22.5522 191.485 22.5522ZM154.668 25.7932C154.841 26.3117 154.971 26.8302 155.057 27.3488C154.625 29.1637 153.761 30.0712 152.465 30.0712C151.773 30.0712 151.039 29.6823 150.261 28.9044C147.322 32.1886 145.291 35.5591 144.168 39.0161C143.563 39.7075 142.828 40.0532 141.964 40.0532C140.581 40.0532 139.76 39.189 139.501 37.4605C140.106 34.4356 142.05 30.8922 145.335 26.8302C119.494 29.5958 99.9616 32.3182 86.7386 34.9974C85.0101 35.5159 83.8434 35.9048 83.2384 36.1641C83.2384 36.5962 82.5902 36.9852 81.2939 37.3309C79.4789 37.0716 78.5715 36.1209 78.5715 34.4788C78.5715 32.2318 83.757 30.2008 94.1279 28.3859C111.672 24.8425 142.915 21.2991 187.856 17.7557C190.794 10.7553 193.43 6.08832 195.763 3.75485C197.924 1.8535 200.041 0.902832 202.116 0.902832C204.795 0.902832 206.61 2.41526 207.56 5.44013C207.82 6.3908 207.949 7.25505 207.949 8.03287C207.949 9.76137 207.431 12.527 206.394 16.3296C206.48 16.2432 206.566 16.2 206.653 16.2C239.754 13.953 265.681 12.8294 284.435 12.8294C300.337 12.8294 311.054 13.6505 316.585 15.2925C317.363 16.0704 317.752 16.8482 317.752 17.626C317.752 18.9224 316.888 19.7434 315.159 20.0891C309.196 18.6199 298.868 17.8853 284.176 17.8853C264.99 17.8853 238.414 19.0952 204.449 21.5151C201.338 29.2069 197.189 37.2012 192.004 45.498C189.584 49.3007 186.991 52.8441 184.226 56.1282C182.584 57.7703 181.763 58.7642 181.763 59.1099C178.651 73.1971 175.108 94.3712 171.132 122.632C169.145 138.275 168.151 149.078 168.151 155.041V155.819C168.151 157.116 168.367 158.369 168.799 159.579C168.799 160.961 167.978 161.826 166.336 162.171H165.947C164.046 162.171 163.095 160.14 163.095 156.078C163.354 141.559 166.336 116.971 172.04 82.3149C173.163 76.0923 174.287 70.2587 175.41 64.8139C173.768 66.3696 171.651 68.3573 169.058 70.7772C157.737 81.321 148.705 86.5929 141.964 86.5929C136.174 86.5929 132.63 82.8335 131.334 75.3145C131.075 72.8082 130.945 71.3822 130.945 71.0365C130.945 64.2954 132.673 56.1714 136.13 46.6647C136.735 45.8005 137.556 45.3684 138.593 45.3684C140.149 45.8005 140.927 46.5783 140.927 47.7018V48.2204C137.902 57.3814 136.39 63.604 136.39 66.8881C136.303 66.8881 136.26 68.0548 136.26 70.3883C136.26 70.6476 136.217 70.8204 136.13 70.9069C136.13 75.9195 137.254 79.2036 139.501 80.7593C140.279 81.1914 141.143 81.4075 142.094 81.4075C148.835 81.4075 159.94 73.4564 175.41 57.5542L177.355 55.48C180.38 42.0842 183.275 31.2379 186.041 22.9411H185.911C174.762 23.8918 164.348 24.8425 154.668 25.7932Z" fill="#F0D5E2"></path><path d="M213.135 48.35H213.913C216.592 48.35 218.363 49.6464 219.228 52.2391C219.314 52.412 219.357 52.5848 219.357 52.7577V53.6651C219.357 56.9493 216.635 59.8877 211.19 62.4804C208.597 63.4311 206.783 63.9065 205.745 63.9065C203.326 63.9065 201.338 62.7829 199.782 60.5359C197.967 63.1286 197.06 65.5917 197.06 67.9252C197.06 70.8636 198.443 72.9378 201.208 74.1478C202.245 74.4935 203.239 74.6663 204.19 74.6663H204.968C211.622 74.6663 223.419 67.6227 240.359 53.5355C241.05 53.4491 241.439 53.4058 241.525 53.4058C243.167 53.7515 243.988 54.4429 243.988 55.48V56.1282C243.988 57.0789 242.778 58.4617 240.359 60.2766C226.963 70.8204 217.845 76.7405 213.005 78.0369C209.98 79.3333 207.128 79.9815 204.449 79.9815C199.782 79.9815 196.152 78.0369 193.56 74.1478C192.522 72.16 192.004 69.9994 192.004 67.6659C192.004 62.1347 195.029 57.0789 201.079 52.4984C205.313 49.9921 209.332 48.6093 213.135 48.35ZM204.319 57.9431V58.0728C204.579 58.5049 204.924 58.721 205.357 58.721H206.005C209.548 57.8567 212.141 56.5604 213.783 54.8319L214.042 54.054C214.042 53.6219 213.74 53.4058 213.135 53.4058C211.147 53.4058 208.641 54.2269 205.616 55.869C204.752 56.5604 204.319 57.2518 204.319 57.9431Z" fill="#F0D5E2"></path></svg> 