<?xml version="1.0" encoding="UTF-8"?> <svg xmlns="http://www.w3.org/2000/svg" width="90" height="66" viewBox="0 0 90 66" fill="none"><path d="M26.6474 30.0378C26.6954 30.1338 26.5034 30.2298 26.3114 30.1338L25.4474 29.8938C25.3034 29.8458 25.2554 29.8458 25.2074 29.6538C25.2554 29.6058 25.1594 29.5578 25.1114 29.5578L25.0634 29.7018C24.9194 29.6058 24.2954 29.6058 24.1514 29.5578C24.0554 29.5578 23.7674 29.4618 23.6234 29.4138C23.6714 29.2698 23.7674 29.1258 23.8154 29.1258C23.9114 29.1258 24.0554 29.3178 24.1514 29.3658C24.1034 29.4138 24.1994 29.4138 24.1994 29.4138C24.3434 29.4138 24.4874 29.4618 24.6794 29.3178C24.4394 29.2698 24.1994 29.1738 24.0554 29.0778C24.2954 28.8858 24.5354 29.1258 24.8234 29.1258C24.8234 29.0298 24.8714 28.9818 24.9194 28.7898C24.8714 28.8858 24.5834 28.7418 24.4394 28.7898C24.1514 28.8858 23.9594 28.7418 23.6714 28.6458L23.7194 28.5978H23.9114C23.5754 28.5018 23.5274 28.4058 23.5274 28.2618L22.8074 27.9258C22.6634 27.9258 22.8554 28.0218 22.6634 28.0218C22.1834 27.9258 21.8474 27.8298 21.5114 27.8298C21.4634 27.8298 21.5114 27.9258 21.4154 28.0218L21.4634 28.1178C21.7514 28.0698 21.9914 28.2138 22.1834 28.1658C22.3274 28.1178 22.4234 28.2138 22.4234 28.3578L23.2874 28.4058V28.5978L23.0474 28.9818L22.9994 29.2218L22.7114 29.1738L21.0794 29.0298L20.7434 30.0858C20.7914 30.4218 20.5514 31.0458 20.5514 31.3818L20.2634 32.1018L20.1674 32.5338C20.0714 32.6298 19.8794 32.6778 19.8794 32.7258L19.9274 33.9258C19.8314 34.3098 19.7354 34.6458 19.6874 34.9818L19.6394 35.7978C19.5914 36.6138 19.5434 37.5258 19.8794 38.4378C19.9274 38.9178 20.2634 39.4458 20.5994 39.7338C21.4154 40.5498 22.6634 40.2618 22.9034 39.8778L23.0474 40.0218C22.6154 40.6938 22.0394 41.1738 21.2714 41.2218C19.1594 41.4618 18.2474 40.4538 17.7674 38.4378C17.4794 37.6698 17.5754 36.3258 17.6234 35.5578L17.7674 34.5498C17.9114 33.6378 18.0554 33.0138 18.1994 32.1498C18.3434 31.4298 18.8714 29.7978 19.0154 29.0778L18.7274 28.9818C18.7754 28.9338 18.8234 28.8858 18.8714 28.8858L18.6794 28.7418H18.4874L17.5274 28.6458C17.5754 28.6938 17.6714 28.7898 17.7194 28.7418L18.1514 28.7898C18.2954 28.8378 18.4874 28.8858 18.7274 28.8858C18.6794 28.9338 18.5354 28.9818 18.2954 28.9818L17.7194 28.8858L15.8954 28.8378H12.8234L11.6234 28.7898C11.4314 28.7418 11.1914 28.7898 10.9034 28.7898C10.7114 28.7898 10.5194 28.8858 10.2794 28.8378C10.2314 28.9818 10.0874 29.0778 9.51138 29.6538C9.46338 29.7498 9.46338 29.7978 9.41538 29.8458C8.98338 30.4218 8.83938 30.9018 8.45538 31.3818L8.16738 31.4778C8.16738 31.3818 8.21538 31.2858 8.21538 31.1898C8.21538 31.0938 8.31138 30.9498 8.35938 30.9018C8.11938 30.8058 8.11938 30.8058 8.07138 31.1418C8.07138 31.2378 8.02338 31.2858 7.97538 31.3818L8.11938 31.6218C8.11938 32.0538 7.92738 32.1018 7.63938 32.3418C7.59138 32.3898 7.44738 32.3898 7.49538 32.5818C7.44738 32.6298 7.39938 32.7258 7.35138 32.7258C7.11138 32.7738 7.01538 32.9658 6.96738 33.2538C6.96738 33.4938 6.82338 33.5418 6.72738 33.6858C6.48738 33.8778 6.34338 34.1178 6.29538 34.3098C6.15138 34.5018 5.91138 34.5978 5.81538 34.4058C5.81538 34.4058 5.76738 34.3578 5.76738 34.2618H5.62338C5.67138 34.5498 5.67138 34.5498 5.57538 35.0298C5.57538 35.0778 5.47938 35.0778 5.47938 35.0778L5.33538 35.3658C5.33538 35.5098 5.33538 35.6538 5.28738 35.7018C5.09538 35.8458 5.04738 35.9898 4.95138 36.1338C4.85538 36.3258 4.75938 36.3738 4.56738 36.2778L4.66338 36.5658C4.51938 37.0458 4.23138 37.0938 3.89538 37.2378V37.3338C3.75138 37.6218 3.70338 37.8618 3.65538 38.1018C3.55938 38.1978 3.46338 38.4858 3.36738 38.6298C3.17538 38.9178 3.07938 39.0618 2.98338 39.3018L2.79138 39.4938L3.12738 39.3978L2.93538 40.0698C2.74338 40.1658 2.69538 40.1658 2.64738 40.1658C2.64738 40.2138 2.64738 40.3098 2.69538 40.3578C2.74338 40.4058 2.59938 40.4058 2.55138 40.4538L2.35938 40.6458H2.64738V40.6938C2.64738 40.6938 2.59938 40.7418 2.55138 40.7418C2.40738 40.6938 2.26338 40.8858 2.16738 41.0298C2.11938 41.4138 2.07138 41.7498 1.87938 42.0378C1.73538 42.2298 1.83138 42.4698 1.83138 42.7578L1.63938 43.8138L1.49538 44.5338C1.44738 44.7258 1.49538 44.9178 1.44738 45.0138C1.44738 45.1578 1.39938 45.2538 1.39938 45.3498C1.30338 45.3018 1.20738 45.2538 1.15938 45.2058C0.871383 44.1498 0.919383 43.2378 1.06338 42.1338C1.30338 40.8378 1.63938 39.7338 2.02338 38.5818C2.21538 38.2458 2.40738 37.9098 2.50338 37.6218C2.50338 37.6218 2.55138 37.6218 2.64738 37.6698C2.31138 38.1978 2.07138 38.8698 1.83138 39.4458C1.83138 39.8298 1.73538 40.1658 1.68738 40.4538L2.16738 39.0138C2.31138 38.6778 2.40738 38.2458 2.55138 37.9578C2.55138 37.8618 2.69538 37.8138 2.69538 37.7178C2.98338 37.2378 3.27138 36.7578 3.41538 36.2298L3.55938 35.8458H3.75138V35.9418C3.79938 35.8938 3.79938 35.7978 3.79938 35.7498C3.79938 35.7018 3.84738 35.6538 3.79938 35.6538C3.89538 35.3658 3.94338 35.2218 4.23138 35.1738C4.18338 35.1738 4.18338 35.1258 4.13538 35.0778L3.94338 35.1258C4.42338 34.3578 4.75938 33.7338 5.19138 33.0618C5.19138 33.0618 5.19138 33.1098 5.23938 33.1098L4.42338 34.5498V34.5978L4.99938 33.7338C5.09538 33.4938 5.28738 33.2058 5.47938 32.9178L6.72738 30.9498C6.87138 30.7098 7.06338 30.5658 7.25538 30.2778L7.49538 29.8458C7.30338 29.9898 7.25538 30.1338 7.11138 30.2778C7.15938 30.0378 7.59138 29.3178 7.73538 29.0778C7.54338 29.0778 7.15938 29.0298 7.01538 29.0778H5.91138C5.28738 29.0778 4.80738 29.1738 4.23138 29.2218C3.99138 29.1258 3.75138 29.2218 3.46338 29.1738C3.22338 29.0778 2.69538 27.9738 3.07938 27.5418C3.27138 27.3978 3.55938 27.2538 3.70338 27.2538C4.95138 27.1098 6.10338 27.2058 7.25538 27.1098C7.92738 27.0618 8.35938 27.0618 9.03138 27.0618C9.27138 27.1098 9.46338 26.5338 9.70338 26.3418C9.79938 26.2938 9.84738 26.1978 9.99138 26.1498L10.0874 26.1978L9.41538 26.8698C9.79938 26.9178 9.89538 26.4378 10.1354 26.2938C10.3274 26.1018 10.5674 25.9098 10.7114 25.6218C10.7594 25.3818 11.0474 25.3338 11.1434 25.0458C11.6714 24.4698 12.1994 23.9418 12.6794 23.3658C12.3434 23.5098 12.1514 23.6538 12.1034 23.7978C12.0554 23.8458 12.0554 23.7978 12.0554 23.7978C12.1994 23.6058 12.2954 23.4618 12.4394 23.3178L12.6794 23.3658C13.7834 22.2138 14.8394 21.1098 15.8954 19.9578C17.6234 18.1818 19.3514 16.5498 21.0794 15.0618V14.9658L20.6474 15.1578L19.9754 15.8298C19.4954 16.3098 18.9674 16.5498 18.4874 17.1738L18.2954 17.3178V17.2218C18.4394 16.9818 18.5354 16.7418 18.6794 16.5978L18.7754 16.4058C18.7754 16.1658 18.8714 16.1658 18.9674 16.1658C19.1114 16.1178 19.2074 16.0218 19.3034 15.9738C19.4474 15.8778 19.6394 15.6378 19.7834 15.6858C19.8314 15.7338 19.9274 15.6858 19.9754 15.5898L20.2634 15.3498C20.2154 15.0618 20.4554 14.8698 20.5994 14.8698C20.6474 14.7738 20.7434 14.6778 20.8394 14.5818C21.1274 14.2938 21.5114 14.1498 21.8954 13.8618C22.1834 13.4778 22.5194 13.1898 22.9034 13.2378C22.9994 13.2858 23.0954 13.2378 23.0954 13.1898C23.3834 12.9978 23.5754 12.9018 23.9114 12.9498C23.9594 12.9498 24.0074 12.9978 24.1034 13.0458C24.3434 13.3338 24.6314 13.3818 25.0154 13.5258C25.2074 13.6218 25.3994 13.8618 25.3034 14.1978C25.3514 14.2938 25.3514 14.3898 25.3514 14.4858L25.1594 14.9658C25.0634 15.2058 24.9194 15.4458 25.0154 15.7818C25.0634 16.0698 25.3514 16.3098 25.0634 16.5498C25.0154 16.5978 24.9674 16.7898 24.9674 16.8858C24.7754 17.5578 24.6314 17.9418 24.4874 18.4698C24.3434 18.9018 24.1994 19.2378 24.1514 19.5738C24.0074 19.8138 23.9114 20.1018 23.8634 20.3898L23.1914 22.8378L22.9994 23.2698C22.8554 23.7498 22.7114 24.1818 22.4714 24.5658C22.4714 24.8538 22.3754 25.0938 22.3274 25.2858C22.1354 25.6698 22.0874 26.0058 21.9434 26.3898C21.8954 26.5338 21.8474 26.6778 21.7514 26.7738L21.5114 27.4938L22.9514 27.7818C23.7194 27.9738 24.2474 28.1658 24.9194 28.4058C25.5914 28.6458 25.2074 28.5498 25.6394 28.8858C25.9754 29.0778 26.2634 29.3178 26.5514 29.7018C26.6954 29.8458 26.5034 29.7018 26.6474 30.0378ZM20.0714 27.2538C20.4554 26.6298 22.6154 19.0938 22.5674 18.7098C22.4234 19.1898 22.2314 19.6698 22.1354 20.1018C22.1354 20.1978 21.9914 20.3898 21.9434 20.4858C22.0394 20.7738 21.8474 20.9658 21.7994 21.1578C21.7514 21.2538 21.8474 21.3018 21.7514 21.4458C21.6554 21.6378 21.4634 21.7818 21.4634 22.2138V22.4538C21.1274 22.9818 21.0314 23.5578 20.7434 24.0858C20.6474 24.3258 20.6474 24.6138 20.5514 24.9018C20.4554 25.2858 20.3114 25.5258 20.2634 25.7658C20.2634 25.8138 20.1194 25.8618 20.1194 25.8618L20.0234 25.7658C20.1674 25.3338 20.3114 24.7578 20.4554 24.2778C20.5514 24.0858 20.5994 23.8938 20.6954 23.7018L20.8874 23.0298L21.2714 21.7818C21.5114 21.0138 21.7514 20.1498 21.9914 19.3338C22.1834 18.7578 22.3754 18.0378 22.6634 17.5098C22.7114 17.0298 23.0954 15.7818 23.2394 15.2538H22.9994C22.8074 15.5418 21.9434 16.3098 21.6554 16.5498C21.5114 16.8858 21.2234 17.1738 20.9354 17.4138C20.5994 17.7018 20.3114 18.0378 20.0714 18.3258C19.5914 18.7098 19.2554 18.9498 18.8714 19.3338C18.5354 19.5738 18.2954 19.9098 18.0074 20.3418C17.8634 20.4858 17.6234 20.6778 17.4314 20.9178C17.3354 21.0618 17.0954 21.3018 16.9514 21.3978C16.6154 21.6378 16.3754 21.8298 16.1834 22.2138C15.9434 22.5498 15.5114 22.7898 15.2714 23.1258C15.0794 23.2698 14.9354 23.3178 14.8394 23.6058C14.5994 23.7498 14.4074 23.9898 14.2154 24.2298L13.7834 24.8538C13.1594 25.6218 12.5834 26.2938 11.9594 27.0138C12.4394 26.9658 12.8714 27.0138 13.2074 26.9658C13.6874 27.1098 14.1674 27.0618 14.6474 27.1098C15.0314 27.0618 15.3674 27.1098 15.7514 27.0618C16.0874 27.1578 16.5194 27.2058 16.9514 27.1578C17.3354 27.2058 17.6714 27.2058 18.1994 27.2538L19.5914 27.3498L19.9754 25.9578H20.1194C20.1194 25.9578 20.1674 26.0058 20.1674 26.0538L20.0234 26.9178L19.8794 27.2058C19.9754 27.2538 20.0234 27.2538 20.0714 27.2538ZM17.9594 17.6538L16.8554 18.8538C16.8554 18.8538 16.7594 18.8538 16.6154 18.8058C16.9514 18.4218 17.3354 18.1338 17.6234 17.8458C17.7194 17.7498 17.8154 17.6538 17.9594 17.6058V17.6538ZM16.3754 19.2378C16.3274 19.2378 16.3274 19.1898 16.3274 19.1898C16.3754 18.9978 16.5674 18.9498 16.6154 18.8058C16.5674 18.9498 16.4714 19.0938 16.3754 19.2378ZM14.5034 21.0618C14.4554 21.0618 14.4554 21.0618 14.4554 21.0138L16.1834 19.2858V19.4298C15.6554 20.0058 15.1274 20.5818 14.5034 21.0618ZM17.3834 19.9578V20.0058C17.5274 19.8138 17.7194 19.7178 17.8154 19.3818C17.6234 19.5738 17.5274 19.7178 17.3834 19.9578ZM15.8474 21.3978C15.4634 21.6858 15.0794 22.1658 14.6954 22.6458C14.7434 22.6458 14.7914 22.5978 14.8394 22.5498C15.1754 22.2618 15.4634 21.9738 15.7034 21.5898L15.8954 21.3978H15.8474ZM13.1114 22.4538C13.1114 22.5018 13.1594 22.5018 13.1594 22.5498L12.7754 22.9338V22.8858C12.8714 22.7418 12.9674 22.5978 13.1114 22.4538ZM14.5514 22.7898C14.2154 23.0778 13.9274 23.3658 13.5914 23.8938C13.8314 23.7018 14.0714 23.3658 14.2634 23.1738L14.5514 22.7898ZM12.1994 25.3818V25.4298C12.4394 25.3818 12.5354 25.3338 12.6314 25.2858V25.4298C12.7754 25.0938 12.8714 24.8058 13.0634 24.5178C12.7274 24.7578 12.4394 25.0938 12.1994 25.3818ZM11.0954 26.7738C11.1434 26.8698 11.2874 26.6298 11.3354 26.5818C11.5754 26.2458 11.8634 26.0538 12.2474 25.7178C12.2474 25.6698 12.2954 25.6218 12.3434 25.5738L12.2474 25.4778C12.1034 25.5258 12.0074 25.5738 11.8634 25.7178C11.5754 26.0538 11.3354 26.2938 11.0954 26.7738ZM17.6714 27.4938C18.2474 27.5418 18.8714 27.5418 19.4954 27.5898C17.0954 27.2538 14.5994 27.3498 12.1034 27.1578C12.1034 27.2058 12.0554 27.2538 12.0554 27.2538L14.7434 27.3978C15.7034 27.3978 16.6634 27.4458 17.6714 27.4938ZM8.88738 27.5418C9.03138 27.5898 9.07938 27.4938 9.17538 27.4458C9.12738 27.4458 9.07938 27.3978 9.07938 27.3978C8.88738 27.3498 8.69538 27.4938 8.59938 27.3498C8.40738 27.4458 8.35938 27.3498 8.21538 27.4458L7.20738 27.5418C6.58338 27.5418 6.24738 27.5418 6.10338 27.4938C6.29538 27.6378 6.72738 27.7338 8.21538 27.6378C8.45538 27.5418 8.64738 27.5898 8.88738 27.5418ZM11.6234 27.3498C11.9594 27.4938 12.3434 27.4938 12.7274 27.5898C12.9674 27.6378 13.2554 27.5898 13.7834 27.5418L15.3194 27.6378L15.4154 27.5418C14.1194 27.4938 12.8714 27.3978 11.6234 27.3498ZM5.95938 27.3978C5.95938 27.3978 6.00738 27.3978 5.95938 27.3978V27.3978ZM16.5674 27.7818C16.7114 27.8298 16.7594 27.7338 16.8554 27.6858C16.8074 27.6858 16.7594 27.6378 16.7594 27.6378C16.5674 27.5898 16.3754 27.7818 16.2794 27.6378C16.0874 27.7338 16.0394 27.6378 15.8954 27.7338H14.8874H14.6954C14.5034 27.7338 14.2154 27.6858 14.0714 27.6858C13.1114 27.6858 14.3114 27.8778 15.8954 27.8298C16.1354 27.7338 16.3274 27.7818 16.5674 27.7818ZM19.2554 27.7818C19.3514 27.8298 19.3994 27.7818 19.4954 27.7338C19.4954 27.6858 19.4954 27.6858 19.4474 27.6378H17.0474L16.8554 27.7818C16.9994 27.7818 17.9594 27.7338 18.1034 27.6858C18.1514 27.6858 18.3434 27.6378 18.3434 27.6858C18.6794 27.6858 19.0154 27.7818 19.2554 27.7818ZM11.3834 27.9258C11.5274 27.9738 11.5754 28.0218 11.7194 28.0218C11.6714 27.7338 11.5274 27.7338 11.3834 27.9258ZM12.7754 27.9738C12.8714 28.0218 12.9674 28.0218 13.0634 28.0698V27.9738C12.9674 27.9738 12.9194 27.9258 12.7754 27.9258V27.9738ZM18.9674 28.3098C19.0634 28.3098 19.0634 28.6938 19.1114 28.6938C19.2074 28.3578 19.1114 27.8778 18.8714 27.9738C18.7274 28.0698 18.6794 28.1658 18.5354 28.2138L18.5834 28.2618C18.6314 28.3098 18.7274 28.3098 18.7754 28.3578C18.6314 28.5498 18.6314 28.6458 18.8234 28.7418L18.9674 28.3098ZM12.6794 28.2138C12.6794 28.2138 12.7274 28.2138 12.7274 28.1658L12.6794 28.2138ZM23.9114 28.4058C23.9594 28.3578 23.9114 28.4058 23.9114 28.3578C23.7674 28.3098 23.6714 28.2138 23.6714 28.2138L23.6234 28.3098L23.9114 28.4058ZM19.5914 28.8858C19.7834 28.6938 19.6394 28.5498 19.6394 28.3578C19.5434 28.5498 19.3994 28.6938 19.5914 28.8858ZM24.9674 28.6458C24.9674 28.5978 25.0634 28.6458 25.0634 28.5978C24.7754 28.5018 24.4394 28.3578 24.1514 28.3578V28.4538C24.3914 28.4538 24.5834 28.5978 24.9674 28.6458ZM12.8714 28.5498C13.2554 28.7898 13.3514 28.7898 13.6394 28.5498H12.8714ZM24.0554 28.9338C24.0074 28.9338 23.5754 29.1258 23.5274 29.3658L23.1434 29.2698L23.2874 28.6458C23.3354 28.6938 23.9594 28.8858 24.0554 28.9338ZM8.88738 29.6058C8.93538 29.1738 8.98338 29.1738 9.03138 29.1258C8.83938 29.0298 8.83938 29.0298 8.59938 29.2218C8.40738 29.5578 8.11938 30.2298 7.92738 30.5658C7.87938 30.6618 7.83138 30.7578 7.83138 30.8538C7.83138 30.9018 7.87938 30.9018 7.92738 30.9498C8.02338 30.6618 8.26338 30.3258 8.50338 30.0378C8.64738 29.8458 8.74338 29.7018 8.88738 29.6058ZM8.26338 29.1258C8.02338 29.4138 7.87938 30.0858 7.68738 30.3258C7.92738 30.2298 8.26338 29.3658 8.26338 29.1258ZM18.6314 32.6298C18.7274 32.2458 18.7754 31.8618 18.9194 31.4778C19.2554 30.8538 19.2074 30.2778 19.3994 29.5098C19.3034 29.5578 19.2074 29.5578 19.0634 29.7498C19.0154 30.1338 18.8714 30.5178 18.7274 30.9018C18.7274 30.9978 18.6314 31.1418 18.7274 31.2378C18.6794 31.5258 18.6794 31.6218 18.5834 31.8138C18.4874 31.9098 18.5354 32.0538 18.4874 32.1978C18.3914 32.3898 18.3434 32.5818 18.2954 32.8218L18.1034 33.9258C18.1034 34.1178 18.0554 34.2618 18.0554 34.4058C18.1994 34.5018 18.2474 34.4058 18.2954 34.2138C18.2954 34.0698 18.2474 33.8778 18.2954 33.7338C18.3914 33.4938 18.5354 33.0138 18.6314 32.6298ZM20.3594 30.5658C20.4074 30.3258 20.4554 29.9898 20.5514 29.7018H20.5034C20.4074 29.9418 20.3114 30.2778 20.3114 30.5658H20.3594ZM6.29538 31.4298C6.48738 30.9978 6.72738 30.5658 7.11138 30.2778L6.82338 30.7098C6.67938 30.9498 6.43938 31.2378 6.29538 31.4298ZM7.54338 30.6138C7.30338 30.6618 6.67938 31.5738 6.58338 31.9098C6.96738 31.4298 7.30338 31.0938 7.54338 30.6138ZM7.11138 32.0058C7.35138 31.7178 7.54338 31.2858 7.83138 30.9978C7.68738 31.0458 7.59138 31.0458 7.49538 31.0458C7.49538 31.0938 7.49538 31.0938 7.54338 31.1418C7.11138 31.8618 6.77538 32.3898 6.19938 32.8698C6.24738 32.8698 6.24738 32.9178 6.29538 32.9178V32.9658L5.95938 33.2538C5.95938 33.3018 5.91138 33.3498 6.00738 33.5418C6.19938 33.3498 6.29538 33.1098 6.43938 32.9178C6.48738 32.8698 6.53538 32.8218 6.58338 32.7258C6.77538 32.4858 7.01538 32.1978 7.11138 32.0058ZM19.9754 32.0058C20.0234 31.8138 20.0714 31.5738 20.1194 31.4778C20.0714 31.5738 19.9754 31.7178 19.9274 32.0058H19.9754ZM5.38338 33.7818C5.67138 33.2538 5.86338 32.8218 6.19938 32.4378C6.24738 32.2938 6.39138 32.1978 6.43938 32.1498V32.1018L6.29538 32.1978C5.95938 32.5818 5.67138 33.0138 5.38338 33.5418L5.33538 33.6858C5.33538 33.7338 5.28738 33.8298 5.23938 33.8778C4.99938 34.1658 4.85538 34.4538 4.66338 34.8858L4.95138 34.4058C5.04738 34.1658 5.19138 34.0218 5.33538 33.8778V33.6858L5.38338 33.7818ZM7.06338 32.5818L7.54338 32.2458C7.30338 32.1498 7.25538 32.1978 7.06338 32.5818ZM6.77538 33.3978C6.82338 33.2058 6.87138 33.0618 6.87138 32.9178H6.82338C6.72738 33.0138 6.67938 33.1098 6.58338 33.3018C6.67938 33.3018 6.77538 33.3978 6.77538 33.3978ZM5.52738 34.3578C5.67138 34.1178 5.76738 33.8778 6.00738 33.6858C5.67138 33.6858 5.47938 34.0218 5.52738 34.3578ZM5.81538 34.1178L6.19938 34.2618C6.15138 34.2138 6.15138 34.1658 6.15138 34.1178C6.10338 34.1178 5.91138 34.1178 5.81538 34.0698V34.1178ZM19.2554 34.7898C19.3994 34.5498 19.4474 34.3098 19.4954 34.1178C19.4474 34.1178 19.4474 34.0698 19.4474 34.0698L19.2074 34.5018C19.2074 34.5498 19.3034 34.6458 19.2554 34.7898ZM4.95138 35.4138L5.33538 34.5978H5.19138C5.04738 35.0298 4.85538 35.3658 4.66338 35.6058C4.75938 35.6538 4.85538 35.5578 4.95138 35.4138ZM18.1034 35.7978V34.7898C18.0074 34.6938 18.0554 34.6458 18.0074 34.5978C17.9594 34.7898 17.9594 35.7018 17.9594 35.7978H18.1034ZM3.75138 36.9018C3.89538 36.2298 4.27938 35.6538 4.61538 34.9818C4.18338 35.7018 3.84738 36.2298 3.65538 36.9498C3.36738 37.3818 3.12738 37.9098 2.79138 38.4378C2.64738 38.8698 2.31138 39.3978 2.16738 40.0218C1.92738 40.6458 1.78338 41.3658 1.54338 42.0378C1.49538 42.1338 1.44738 42.3738 1.39938 42.5658C1.68738 41.9418 1.87938 41.2698 2.02338 40.5978C2.45538 39.2058 3.17538 38.1018 3.75138 36.9018ZM4.61538 36.1338C4.66338 35.9898 4.75938 35.8458 4.75938 35.7018H4.71138L4.42338 35.9418C4.42338 35.9898 4.47138 36.0378 4.61538 36.1338ZM4.71138 36.9498C4.71138 36.9498 4.66338 36.9498 4.71138 36.9018C4.80738 36.6618 4.95138 36.3258 5.14338 36.1338C4.99938 36.3738 4.90338 36.7098 4.71138 36.9498ZM1.35138 41.4618C1.35138 41.5098 1.39938 41.5098 1.39938 41.5098C1.39938 41.4138 1.44738 41.2698 1.54338 41.1258V40.7418C1.49538 40.9338 1.39938 41.1738 1.35138 41.4618ZM45.9783 1.90983C46.3623 2.53383 46.6023 2.82183 46.4583 3.58983C46.3143 4.30983 46.2663 5.07783 46.0263 5.84583C45.8343 6.70983 45.4023 7.47783 45.0663 8.34183C44.8263 8.96583 44.3943 9.63783 44.0583 10.2618C43.6263 11.1258 43.1943 11.8938 42.6663 12.6138C42.3303 13.2378 41.8983 13.7658 41.4663 14.2938C40.9863 14.9178 40.3623 15.4938 39.9783 16.1178C39.4983 16.5978 39.1143 16.9818 38.7783 17.5098C38.0583 18.1818 37.3863 18.9018 36.7623 19.5258C36.0903 20.1018 35.3703 20.6298 34.6983 21.1578C34.2183 21.4938 33.7863 21.9258 33.4503 22.2138C32.9223 22.5018 32.5863 22.6458 32.1543 22.8378C31.9143 23.0778 31.4823 24.4698 31.5783 24.5178C31.3863 25.2858 31.1463 27.1578 31.0023 27.8778C31.0023 27.8778 31.1463 27.8778 31.1943 27.8298C31.5303 27.4938 31.8663 27.1578 32.2983 26.8218C32.4423 26.7738 32.6823 26.6778 32.8743 26.5818C33.4503 26.3898 34.0263 26.4378 34.6023 26.5338C35.4663 26.5818 36.0903 26.8218 36.8583 27.2058C37.8183 27.7818 38.0103 28.1658 37.7223 29.2698C37.4823 30.8058 36.6663 31.9578 35.9463 33.0618C35.4663 33.5898 35.0823 34.1178 34.5063 34.6458C33.7383 35.3178 33.1143 36.2298 32.1063 36.5178C31.7703 36.6138 31.5303 36.8058 31.1943 36.8058C30.2343 36.7578 29.6103 36.2298 29.4663 35.2698C29.4183 34.6938 29.2743 34.2138 29.1783 33.7338C29.1783 33.3498 29.1783 32.9178 29.0823 32.4858C29.0823 32.1978 28.9863 32.0058 28.9863 31.7658C29.0343 31.1418 29.0823 30.5658 28.9863 29.9898C29.0343 29.1258 29.2263 28.8378 29.2743 27.9738C29.3223 27.8778 29.3223 27.4458 29.4183 27.2538C29.4663 27.2058 29.5143 26.9658 29.5143 26.9178C29.6103 26.6298 29.7063 25.0938 29.7543 24.8058C29.5623 24.9018 29.0823 25.1898 28.9863 25.2858C28.6503 25.5258 28.1223 25.9578 27.8823 25.8618C27.5463 25.6218 27.5463 24.8538 27.5943 24.4218C27.6423 23.9418 27.8823 23.8458 28.1223 23.7498C28.6503 23.3178 28.8903 23.2218 29.1303 22.9338C29.4183 22.8378 29.5143 22.6458 29.8503 22.5018C29.9463 22.3578 29.9943 22.0218 30.0423 21.8298C30.0903 21.7338 30.0903 21.6378 30.1863 21.4458H30.2823L30.3783 20.7738C30.3783 20.2458 30.7623 19.4778 30.9543 19.4298C30.6663 19.0458 30.9543 18.6618 31.0023 18.3258C31.2903 17.6058 31.5303 16.9338 31.7703 16.2138C32.1063 15.3978 32.5863 14.5818 32.8743 13.7178C33.3063 12.8058 33.7383 11.7498 34.2183 10.7898C34.6023 9.97383 35.0823 9.15783 35.5623 8.34183C35.7543 7.86183 36.0903 7.33383 36.4743 6.80583C36.8103 6.13383 37.2903 5.50983 37.7703 4.78983C38.5863 3.68583 39.5943 2.72583 40.6023 1.76583C41.5143 1.18983 42.5223 0.517825 43.5303 0.709826C44.2023 0.901826 44.8263 1.09383 45.3543 1.42983C45.6903 1.52583 45.8823 1.66983 45.9783 1.90983ZM39.7863 5.46183C39.4983 5.94183 39.1623 6.51783 38.7303 7.04583C38.4903 7.62183 38.0583 8.24583 37.6743 8.72583C37.4343 9.20583 37.1943 9.49383 36.9543 10.0698C36.6183 10.7418 36.2343 11.4618 35.9943 12.0378C35.3703 13.0458 34.7943 14.0058 34.4583 15.3978C34.4103 15.5898 34.2663 15.6858 34.1223 16.0218C34.2663 16.3578 33.8823 16.3098 33.7863 16.3578C33.8343 16.5018 34.0743 16.6938 33.8823 16.8858C33.6903 17.5098 33.4023 18.1338 33.3063 18.6618C33.0183 19.2378 32.7303 19.8618 32.5383 20.3418H32.5863C32.7303 20.2938 32.7783 20.2458 32.9223 20.1498C33.9303 19.2378 34.8903 18.3738 35.8983 17.3658C36.6183 16.6938 37.1943 16.0218 37.7223 15.3018C38.7783 14.1498 39.7383 13.0458 40.6023 11.7978C41.7063 10.0698 42.9063 8.24583 43.6743 6.22983C44.0103 5.22183 44.2503 4.30983 44.2023 3.30183C44.2503 3.15783 44.1543 2.86983 44.1063 2.67783C43.9143 2.43783 43.7223 2.24583 43.1463 2.34183C42.8103 2.48583 42.6663 2.53383 42.2823 2.86983C41.3223 3.44583 41.1783 3.78183 40.4583 4.45383L39.7863 5.46183ZM31.7223 19.6218C31.7703 19.4298 31.7703 19.0458 31.7223 18.7578C32.0583 17.9898 32.3463 17.3178 32.5863 16.5978C32.6823 16.0218 33.0663 15.3978 33.4023 14.7738C33.6423 14.1018 33.8823 13.5258 34.1703 12.8058C34.5063 12.3738 34.6983 11.7498 35.0343 11.2218L35.2263 10.7898C35.2743 10.6938 35.3223 10.6938 35.4183 10.6938L35.3223 10.5498L35.4183 10.5018L35.7543 10.0218C35.8503 9.73383 36.1383 9.44583 36.2823 9.20583L36.5223 8.48583C36.6663 8.34183 36.8103 8.10183 36.9063 7.86183H36.7623C36.8583 7.76583 36.9063 7.62183 36.9543 7.57383C37.0503 7.52583 37.0503 7.42983 37.0503 7.38183C37.0983 7.33383 37.0983 7.23783 37.0503 7.23783C37.1463 7.23783 37.2903 7.18983 37.4823 7.23783V7.14183L37.1463 7.04583C37.1943 6.90183 37.3383 6.75783 37.3863 6.66183C37.4823 6.70983 37.5303 6.70983 37.5783 6.75783C37.6263 6.51783 37.7223 6.32583 37.7223 6.18183H38.0583C38.0103 6.08583 37.9623 5.98983 37.9143 5.98983C38.0583 5.94183 38.2023 5.89383 38.2503 5.84583C38.4903 5.46183 38.5863 5.07783 38.8263 4.74183C38.9703 4.54983 38.9703 4.54983 38.7783 4.26183C38.7303 4.40583 38.6343 4.45383 38.5863 4.54983C38.6823 4.54983 38.7303 4.54983 38.7783 4.64583C38.7303 4.64583 38.6823 4.64583 38.5383 4.74183L38.6343 4.88583C38.5383 4.88583 38.4423 4.93383 38.2983 4.93383C38.2023 5.07783 38.2023 5.12583 38.1543 5.17383L37.9143 5.70183C37.6263 6.03783 37.3863 6.46983 37.2423 6.85383C36.9063 7.33383 36.4743 7.86183 36.3303 8.34183C36.1383 8.67783 35.8023 9.15783 35.7063 9.63783L35.6103 9.68583C35.5143 9.92583 35.3223 10.2138 34.9383 10.9818C34.6503 11.4618 34.5063 11.8458 34.2663 12.3738C33.9303 12.9498 33.6423 13.4778 33.5463 14.0058C33.2583 14.5338 32.8263 15.1578 32.6823 15.7818C32.4423 16.1658 32.4423 16.5978 32.2503 17.0778C32.1543 17.3658 31.9623 17.8458 31.8663 18.2298C31.7703 18.4218 31.7703 18.6138 31.7223 18.7578C31.7223 19.0458 31.4823 19.3818 31.7223 19.6218ZM44.4423 6.37383C44.5383 6.08583 44.6823 5.74983 44.7303 5.41383H44.6343C44.5863 5.74983 44.4423 6.08583 44.3943 6.37383H44.4423ZM44.2503 8.48583C44.2983 8.24583 44.3943 7.86183 44.5383 7.71783H44.4423C44.3943 7.81383 44.2983 7.86183 44.2983 7.86183C44.1063 8.24583 44.0583 8.53383 43.9143 8.67783C43.3863 9.49383 42.8583 10.2618 42.3303 11.1258C42.0423 11.3658 41.1303 12.5658 40.8423 12.9018C40.6023 13.0938 40.1703 13.4298 39.9303 13.7178C39.5463 14.1018 39.0663 14.6778 38.7783 15.0618C38.1063 15.7338 37.4823 16.5018 36.8103 17.2218C36.7143 17.3178 36.5223 17.3658 36.3783 17.4618C36.3783 17.8938 35.9943 17.9898 35.8023 18.1338C35.2743 18.6618 34.9383 19.2378 34.2663 19.7658C33.9303 20.0538 33.7383 20.2938 33.1623 20.6778C32.8263 21.1578 32.6343 21.2058 32.2023 21.6858C32.5383 21.5898 32.6823 22.0218 32.9223 21.8298C33.3063 21.6378 33.7863 21.3978 33.9783 21.1098C34.4103 20.9178 34.5543 20.2458 34.7943 19.8138L34.8423 19.7658C35.1303 19.5258 35.4663 19.2378 36.0903 19.4778C36.2823 19.2858 36.4743 19.2378 36.6663 19.0938C36.8583 19.0458 37.0983 18.9498 37.2423 18.7098C37.3863 18.4698 37.0983 17.4138 37.7223 17.4618V17.4138C37.7223 17.4138 37.6743 17.3658 37.6743 17.4138C37.7223 17.1258 37.8663 16.9338 37.9623 16.8378C38.2023 16.5498 38.4423 16.2618 39.0663 16.3578C39.0183 16.0218 39.4503 16.3578 39.5463 16.1658C39.6423 15.9738 39.7863 15.8778 39.8343 15.7338C40.1703 14.7258 40.6023 14.1978 41.3223 14.1018C41.3703 13.9578 41.3703 13.5738 41.8503 13.7178C41.3703 13.4298 41.9463 13.2858 41.9943 13.0458C41.8983 12.9978 41.8503 12.9978 41.8023 12.9498C41.8983 12.7098 41.8983 12.4218 42.1863 12.2298C42.5703 11.4138 42.7623 10.2138 43.4343 9.97383C43.5783 9.63783 43.9623 9.30183 44.0583 8.96583C44.1543 8.91783 44.2023 8.82183 44.2023 8.82183C44.0103 8.62983 44.2023 8.58183 44.2503 8.48583ZM31.2903 29.9418C31.0983 30.1338 30.8583 30.3258 30.9063 30.8538L30.7623 32.5338V32.5818C30.8103 33.2538 30.8103 34.1178 30.8583 34.7898C31.0023 35.0298 31.3383 35.1258 31.3863 34.9818C31.9623 34.5018 32.5383 34.0218 33.0663 33.4938C33.6903 32.7738 34.1703 32.0538 34.8423 31.3818C35.1783 30.8058 35.6583 29.7498 35.8023 29.0778C35.9463 28.5978 35.5623 28.2138 35.1783 27.9738C34.9863 27.8778 34.6983 27.8298 34.3623 27.9258H34.2663C33.4023 28.0698 32.9703 28.4058 32.3463 29.0298C32.2503 29.1258 31.3863 29.7498 31.2903 29.9418ZM35.9463 31.6698C36.1863 30.8538 36.9063 30.2778 36.6663 29.3178C36.3783 29.7978 36.1383 30.3738 35.8023 30.8538C35.5143 31.4298 35.0343 31.9578 34.6983 32.5338C35.3703 32.5338 35.4183 31.6698 35.9463 31.6698ZM42.259 38.3418V38.0538L42.211 38.0058L42.019 38.2938C41.779 38.1978 41.587 38.1498 41.395 38.0538H41.107C41.059 38.0538 40.963 38.1018 40.915 38.0538C41.059 38.1978 39.907 37.6218 39.571 36.8058C39.427 36.4698 39.619 36.0378 39.619 35.7018C39.619 35.5578 39.523 35.2218 39.907 35.1738C39.715 34.9818 39.619 34.8378 39.907 34.5978C39.955 34.5498 40.003 34.4538 40.003 34.3578C39.955 34.1658 40.099 34.1178 40.195 33.9738L40.291 33.7338C40.339 33.6858 40.435 33.6858 40.531 33.6378C40.483 33.5898 40.387 33.5418 40.339 33.5418C40.483 33.3978 40.579 33.3018 40.723 33.2058C40.819 33.0138 40.867 32.8698 40.963 32.7738L41.107 32.5338C41.203 32.4858 41.347 32.4378 41.347 32.3418C41.347 32.0538 41.491 31.9578 41.683 31.7658C41.827 31.6218 41.923 31.4778 42.019 31.3338C42.163 31.0458 42.403 30.8058 42.595 30.5178C42.739 30.3258 42.835 30.0858 42.979 29.8458C43.219 29.6538 43.315 29.2218 43.459 28.8378C43.507 28.5978 43.411 28.4538 43.315 28.3098C43.171 28.2138 43.027 28.2618 42.835 28.3578C42.403 28.5498 42.163 28.8858 42.211 28.8378C41.923 29.1258 41.827 29.2218 41.635 29.3658C41.203 29.6538 41.059 30.1338 40.675 30.2298C40.003 30.3738 39.475 29.5578 39.715 29.0778C39.907 28.6458 40.291 28.3098 40.723 28.0218C41.059 27.6858 41.347 27.3018 41.779 27.1098C42.211 26.9178 42.643 26.8218 42.979 26.7738C43.699 26.6298 44.467 26.8218 44.851 27.3018C45.091 27.6378 45.331 28.1178 45.427 28.5018C45.475 28.9818 45.523 29.4138 45.283 29.9418C45.139 30.1818 45.091 30.4698 44.947 30.7098C44.659 31.0458 44.419 31.4298 44.227 31.7178C44.227 31.7658 42.979 33.2538 42.979 33.3018C42.595 33.8778 42.211 34.4538 41.875 35.0298C41.683 35.4138 41.587 35.6538 41.395 36.1338C41.251 36.7098 41.683 37.0458 42.403 36.8538C43.219 36.6138 43.843 36.2298 44.371 35.9418C44.515 35.8938 45.811 35.2218 46.051 34.9818C46.195 34.8858 46.243 34.8858 46.243 34.8858C46.339 34.8378 46.435 34.8378 46.531 34.7898C46.387 34.9338 46.243 35.0778 46.099 35.1738C46.195 35.2218 46.387 35.1738 46.627 35.1738C46.531 35.2218 46.483 35.2698 46.387 35.2698C46.387 35.3178 46.435 35.3178 46.435 35.3178C46.915 35.1258 47.347 34.7898 47.827 34.5498C47.779 34.5978 47.779 34.5978 47.779 34.6458C47.779 35.0778 47.635 35.4138 47.443 35.5098L46.867 36.0858C46.579 36.2298 46.339 36.3738 46.099 36.5178C45.763 36.7098 45.523 36.9978 45.043 37.0458C44.947 37.1898 44.755 37.1418 44.563 37.1898C44.275 37.2858 43.939 37.5738 43.651 37.7178C43.459 37.7658 43.219 37.7178 43.027 37.7658C42.883 37.8138 42.787 37.8138 42.691 37.8618V37.9578C42.883 37.9578 43.027 38.0058 43.267 38.0058C43.075 38.0538 43.027 38.2458 42.787 38.2938C42.739 38.2938 42.739 38.1978 42.691 38.1498C42.547 38.1978 42.403 38.2458 42.259 38.3418ZM46.531 35.0778L46.483 34.9818C46.483 34.9338 46.531 34.8858 46.531 34.8858C46.867 34.8858 47.107 34.6458 47.395 34.5018L47.635 34.3578C47.779 34.3098 47.875 34.2618 47.683 34.1178C47.395 34.3578 47.059 34.5018 46.771 34.7418C46.723 34.7418 46.627 34.7418 46.483 34.6938C46.771 34.5978 47.347 34.2618 47.539 33.9738C48.067 33.7338 48.499 33.4458 49.027 33.0618L49.411 32.7738L49.459 32.9178C49.459 32.9178 49.555 32.9178 49.555 32.9658L49.267 33.1578L48.595 33.5418V33.5898C48.595 33.5418 48.643 33.5418 48.643 33.5418H48.739C48.643 33.5898 48.499 33.7338 48.307 33.8298L48.355 33.9258C48.211 33.9738 48.115 34.0218 48.307 34.0698C48.115 34.1658 47.923 34.2138 47.875 34.3578C47.875 34.3578 47.875 34.4058 47.827 34.4058C47.539 34.4058 47.395 34.6458 47.251 34.7898C47.155 34.8858 47.011 34.9818 46.819 35.0298C46.723 35.0778 46.627 35.0298 46.531 35.0778ZM40.867 34.3098C40.867 34.1658 40.915 34.1178 40.963 33.9738L40.531 34.2138C40.627 34.2618 40.723 34.2618 40.867 34.3098ZM40.339 35.7018L40.675 34.5978C40.675 34.5498 40.579 34.4538 40.531 34.4058C40.483 34.4538 40.435 34.5498 40.435 34.5978C40.483 34.6938 40.435 34.7418 40.291 34.7418C40.243 34.7418 40.147 34.8858 40.195 34.8858C40.291 35.0778 40.291 35.4138 40.147 35.5098C40.195 35.5578 40.291 35.6058 40.339 35.7018ZM46.003 35.5578L46.195 35.4138C46.243 35.3658 46.195 35.3658 46.195 35.3178C46.147 35.3658 46.051 35.4618 46.003 35.5578ZM40.195 36.2778C40.387 36.0858 40.387 35.9898 40.243 35.8458C40.195 35.7978 40.099 35.7978 39.955 35.7498V35.8458C40.291 35.7978 40.099 36.0858 40.195 36.2778ZM44.9954 65.4138C44.7074 65.4618 44.2274 65.4618 43.8914 65.3178C42.4034 65.0298 41.5394 64.2618 40.6754 63.0618C40.4834 62.6298 40.1474 62.0538 39.9074 61.4778C39.4274 60.7578 39.2834 59.8938 39.5714 59.0298C39.5714 58.6458 39.5714 58.5018 39.5234 58.3578C39.6674 57.5898 39.7634 56.9658 39.7634 56.4378C40.1474 54.8058 40.8194 53.2218 41.6834 51.7338C42.4994 50.3418 43.4114 49.0458 44.3234 47.8458C45.1874 46.6938 46.2914 45.6378 47.2994 44.5818C48.4034 43.6698 49.5074 42.6618 50.6594 41.7978C51.2834 41.3178 51.9554 40.8378 52.4834 40.4538C53.0114 40.0698 53.4434 39.9258 53.7314 39.5898C54.1634 39.3498 54.6434 38.9658 54.9794 38.8218C55.5074 38.5338 55.4594 38.1978 55.4594 37.7658C55.5554 37.2858 55.7474 36.9018 55.6994 36.4218C55.8434 35.7018 55.9394 35.1258 55.9874 34.5018C56.2274 33.4458 56.3714 32.5338 56.4194 31.6698C56.3714 31.3338 56.5154 31.0458 56.5634 30.7578C56.5154 30.6138 56.3234 30.6138 56.3234 30.4698C56.3234 30.6138 56.2274 30.6618 56.2274 30.6618C55.5074 31.0938 54.9314 31.8138 54.1634 32.4858C53.5874 32.7258 53.2514 33.2538 52.6754 33.5418C52.2914 33.8298 52.0514 34.1178 51.6674 34.2138C51.4274 34.2138 51.1874 34.3578 51.0434 34.1178L51.3794 33.9258C50.8514 33.9258 51.0434 33.7818 50.8514 33.5418L50.8994 33.3978H50.7554C50.7074 33.5418 50.7074 33.6858 50.6114 33.6858C50.6114 33.6858 50.3234 33.6378 50.3714 33.5418C50.2274 33.2538 50.0354 32.8698 49.9394 32.5818C49.8914 32.0538 50.2754 31.8138 50.2754 31.4298C50.4674 30.8538 50.5154 30.0378 50.6114 29.4138C50.6594 29.0778 50.7074 28.5498 50.8994 28.1178C50.9954 27.8298 50.9954 27.5418 50.8514 27.2538C50.7074 27.1098 50.8034 26.8218 50.8034 26.6778C50.9954 26.4858 51.0914 26.3418 51.4274 26.3418C51.6674 26.4378 51.6674 26.3898 52.0034 26.5818C52.2434 26.7258 52.6274 27.1578 52.9154 27.3978C52.9154 27.3978 53.0114 27.5418 52.9154 27.7338C52.7714 27.9738 52.9154 28.4058 52.7714 28.9338C52.6754 29.2698 52.5314 29.9418 52.3394 30.5178C52.3394 30.9018 52.2914 31.0938 52.1474 31.4778C52.3874 31.3338 52.7714 31.0938 52.8674 30.9498C53.2994 30.7098 53.5874 30.1338 53.9714 29.8458C54.4514 29.5578 54.7394 29.1258 55.1714 28.8378C55.7474 28.3578 56.1794 27.8778 56.7554 27.5898C57.0434 27.2538 57.1394 27.1098 57.4754 27.3018C57.5714 27.4938 57.8594 27.4938 58.0514 27.4938C58.1474 27.4938 58.3394 27.5898 58.4354 27.5898V27.6858L58.5314 28.0218C58.8674 28.1658 58.6754 28.3578 59.0594 28.3578L58.9634 28.8858C58.9154 29.2218 58.7714 30.0378 58.7234 30.1818V30.2778C58.7714 30.8058 58.4354 31.5738 58.4834 31.8618C58.3394 32.1978 58.3874 32.5818 58.3394 32.9178C58.3394 33.0618 58.2434 33.2538 58.2434 33.2538C58.0514 33.3978 58.0034 33.6378 58.0994 33.8778C58.3394 34.2618 58.0514 34.7418 58.0994 35.1738C58.0514 35.2698 57.8114 35.6538 57.8114 35.7498C57.7154 36.1818 57.7154 36.5178 57.6194 36.9498L57.5234 37.0458C57.6194 37.1898 57.7634 37.1898 57.8594 37.0458C58.8674 36.4698 59.6834 36.0858 60.3554 35.5098C60.9314 35.2218 61.1714 35.0778 61.8914 34.6938L62.8514 34.2618C63.2354 34.2138 64.3394 33.4458 64.5314 33.4458L64.6274 34.0218C64.3874 34.4058 63.9554 34.8858 63.8594 35.0778C63.7154 35.1738 63.4754 35.4618 63.3794 35.4618C63.0434 35.7018 62.7074 35.7498 62.3234 36.1338L61.3154 36.7098L61.4594 36.8058C61.1234 36.9498 60.9314 37.5258 60.5474 37.2858C60.1154 37.5258 59.7794 37.7658 59.5394 37.9578L59.6834 38.1498C59.6354 38.1978 59.4434 38.2458 59.2034 38.2938C59.1074 38.3418 59.1074 38.2458 58.5314 38.6298C58.4354 38.6778 58.4354 38.8218 58.2914 38.9658C58.1954 38.9658 58.1954 38.8218 58.1954 38.8218L57.9074 38.8698C57.8114 39.2058 57.7154 39.4938 57.4274 39.7818C57.2834 39.8778 57.3314 40.3098 57.1874 40.3578C57.1394 40.5498 57.0434 40.6458 57.0434 40.8378H57.1394C57.0434 40.8378 56.8514 40.8858 56.7074 40.8858C57.1874 41.4618 56.8994 42.0858 56.7554 42.8538C56.6594 42.6138 56.6594 42.4218 56.5154 42.3258V42.8538H56.7554C56.7554 43.0458 56.7074 43.0458 56.3234 43.0938L56.5634 43.2378C56.7554 43.3818 56.7554 43.4778 56.7074 43.8138C56.7074 43.9578 56.5634 44.1018 56.5634 44.2458C56.6114 44.5338 56.6114 44.8218 55.9874 44.8698C56.4194 45.1578 56.3234 45.6378 56.2754 45.9258C56.1794 46.3098 56.0834 46.5018 55.7474 46.8378C56.2274 47.0778 56.0834 47.8938 55.7474 48.1338C55.8434 48.4698 55.7474 48.6618 55.5074 48.8538C55.3154 48.7578 55.2194 48.6618 55.0274 48.5178C55.3154 48.2298 54.9314 47.7018 55.2674 47.7018C55.2674 47.7018 55.1714 47.6058 55.1714 47.4618C55.3154 47.2698 55.2194 47.0298 55.4594 46.7418C55.6994 46.3578 55.6034 45.9258 55.6994 45.4458C55.6994 45.1578 55.8434 44.6778 55.9394 44.4858C55.9394 44.0058 55.9394 43.6698 56.0834 43.2378C56.0354 43.0938 56.1314 42.8538 56.1314 42.6618C56.1314 42.3258 56.0834 42.0858 56.2754 41.7498V41.5578C56.5154 41.2698 56.5154 41.1738 56.4674 40.8858C56.4674 40.6458 56.6114 40.6458 56.6114 40.5498C56.4194 40.5498 56.4194 40.5498 56.4674 40.4058C56.2274 40.6938 56.0834 40.8858 56.1314 41.2218C55.9874 41.6058 56.0354 42.1818 55.8914 42.6618C55.9394 42.9498 55.7954 43.2378 55.7954 43.5258C55.6514 44.0058 55.6994 44.5818 55.6034 45.1578C55.4114 45.7818 55.2674 46.3578 55.1234 47.0298C55.1234 47.1258 55.1714 47.2698 55.1714 47.4618C55.0274 47.9418 54.9794 48.1338 54.6914 48.5178C54.5954 48.5178 54.3074 48.2778 54.0674 48.2778C54.3554 48.7098 54.2114 49.0938 54.1154 49.0938V49.5738C54.1154 49.5738 53.9234 49.5738 53.7794 49.7178C53.7794 49.7178 53.5874 49.7178 53.5394 49.8618H53.6354C53.6354 49.8618 53.8274 49.8618 54.0194 49.8138C54.0194 49.9578 53.9714 50.1018 53.8274 50.2938C53.8274 50.5818 53.6354 50.9178 53.6354 51.2538C53.5394 51.3498 53.3954 51.4938 53.4434 51.6378L53.3954 51.7818C53.3954 51.8778 53.3954 52.3578 53.1554 52.3578L53.3474 52.4538C53.1554 52.6938 53.1554 53.0298 52.9634 53.0298V53.2218C52.8674 53.5578 52.8674 53.9418 52.7714 54.1338C52.7234 54.3738 52.4354 54.3738 52.3874 54.4698C52.3874 54.4698 53.0114 54.4698 52.4354 54.8058C52.4354 55.1418 52.3874 55.2378 52.1474 55.5738C52.1474 55.8138 51.9074 56.5818 51.5234 56.8218C51.8594 56.9178 51.6194 57.0138 51.5234 57.2058C51.2354 57.9738 50.9474 58.6938 50.5634 59.4618C50.5154 59.5578 50.3714 59.7978 50.3714 59.9418C50.2754 60.0378 50.3234 60.2298 50.3234 60.2298C50.4194 60.2298 50.6114 60.2298 50.7074 60.1818C50.7074 60.0378 50.7074 60.0378 50.5634 59.9418H50.8514V59.7498V59.5578H50.9474C50.9474 59.7498 51.1394 59.7498 51.1394 59.8938C50.9954 60.0378 50.8514 60.0378 50.8514 60.1818C50.7074 60.1818 50.7554 60.3738 50.7554 60.3738C50.6114 60.3738 50.5634 60.5178 50.4194 60.5178L50.3234 60.3738C50.1314 60.5178 49.9394 60.6618 49.8434 60.8538C49.6034 61.0938 49.3634 61.6218 49.1714 62.0058C49.1234 62.2458 49.0274 62.2458 49.0274 62.2458C48.6914 62.3418 48.7394 62.5338 49.0274 62.7738C48.7874 62.8698 48.5954 62.9178 48.2594 63.1098C48.5954 63.3018 48.5954 63.4458 48.7394 63.3978V63.1098C48.8354 63.1098 48.8834 62.8698 49.1234 62.8698L49.0754 63.1098C49.1714 63.1098 49.3154 63.3018 49.3154 63.3018C49.1714 63.3978 49.1714 63.4938 48.8834 63.6378C48.8354 63.8298 48.4994 63.6378 48.1634 63.6378L48.0674 63.6858C48.0674 63.6858 47.9714 63.6858 47.7314 63.8778C47.7314 63.8778 47.6834 64.0698 47.9234 64.0218L47.7314 64.2138H48.0194C48.0194 64.3098 48.2114 64.3098 48.3074 64.3098C47.9234 64.4538 47.6354 64.5978 47.2034 64.7418C47.3954 65.1258 47.0114 64.8858 46.9154 65.1258C46.4354 65.5098 45.5714 65.2698 44.9954 65.4138ZM55.3154 29.7018C55.3154 29.5578 55.3154 29.5578 55.4594 29.4618C55.4594 29.5578 55.6514 29.5578 55.7954 29.5098C55.8434 29.4138 55.8914 29.0778 56.2754 29.1738C56.2754 29.1738 56.4194 29.1738 56.4194 29.0778C56.6114 28.9338 56.6114 28.5018 56.7074 28.4058C56.7074 28.4058 56.7074 28.2138 56.6594 28.2138C56.4194 28.4058 56.4674 28.7898 56.1794 28.9338C56.0354 29.0778 56.0354 29.0778 55.8434 28.9338C55.7954 28.9338 55.6034 28.9338 55.5074 29.1258C55.3634 29.1258 55.3154 29.4618 55.3154 29.4618C55.2674 29.5098 55.3154 29.6538 55.3154 29.7018ZM54.8354 30.0858C55.3634 30.0378 54.8354 29.8458 54.8354 29.7498C54.8354 29.8458 54.7394 29.8458 54.7874 30.0378C54.5954 30.1338 54.5954 30.3258 54.8354 30.0858ZM55.9874 38.1978C56.5154 38.0058 56.6594 37.7178 56.4674 37.4778C56.4674 37.0938 56.8994 36.6618 56.5634 36.2298C56.7074 35.7978 56.7074 35.2218 56.8034 34.7898C56.8034 34.4538 56.8994 34.0218 57.0434 33.6378C57.0434 33.3018 56.9954 32.8698 56.9954 32.3898V32.0538C56.8514 32.3898 56.8514 32.8698 56.7554 33.1098C56.6114 34.0218 56.5154 34.8858 56.4194 35.7978L56.3234 35.9898C56.3234 36.0858 56.4194 36.2298 56.2754 36.4218C56.0834 36.5658 56.2754 36.6618 56.3714 36.9018L56.3234 36.9978C56.1314 37.2858 56.1794 37.7178 55.9874 38.1978ZM57.5714 38.2938C59.3954 37.3818 60.4514 36.4218 61.8434 35.6538C61.7474 35.4618 61.7474 35.4618 61.7474 35.3178C61.1234 35.7498 60.1154 36.1338 59.4434 36.5658C58.8194 36.8538 58.1474 37.7658 57.3314 37.9578C57.5234 38.1498 57.5714 38.2938 57.5714 38.2938ZM56.9474 36.8538C57.1394 36.6138 57.1394 36.5178 56.9954 36.3738C56.9954 36.3738 56.8994 36.5178 56.9474 36.8538ZM56.7554 37.7178H56.9954C57.0434 37.4298 56.8994 37.0938 57.0434 36.9498H56.9474C56.8994 37.0938 56.7074 37.4298 56.7554 37.7178ZM55.9874 38.9178C55.9874 38.7738 56.1794 38.7738 56.4194 38.6298C56.0354 38.6778 55.9394 38.6778 55.9874 38.9178ZM39.8114 58.9818C40.0034 58.7418 40.0514 58.6458 39.9554 58.4538C39.9554 58.0698 40.1474 57.7818 40.2434 57.3498C40.2434 56.9658 40.2434 56.5818 40.4354 56.1498C40.4354 55.7658 40.6274 55.5738 40.8194 55.1898C41.0114 54.8058 41.2994 54.1338 41.5394 53.6058C41.8274 53.3658 41.7314 53.2218 41.8274 52.8858C42.0194 52.7898 42.3074 52.5978 42.3074 52.3098C42.3074 52.1658 42.3074 52.1658 42.4034 52.1658C42.5474 52.0218 42.8834 51.8778 42.9314 51.5898C42.8354 51.3018 42.9794 51.3018 43.1234 51.3018C43.1234 51.1098 43.2194 51.0618 43.2194 51.0618C43.6034 51.0618 43.2194 50.9178 43.4594 50.8218C43.4594 50.8218 43.6034 50.6298 43.5554 50.4858C43.8434 50.1978 44.0354 49.8618 44.1314 49.6698C44.3714 49.2378 44.8034 48.9018 45.1394 48.5178C45.2834 48.2298 45.5234 47.9418 45.8114 47.6058V47.4138C46.0034 47.3178 46.1954 47.3178 46.2914 47.1738C46.2914 47.0778 46.3874 47.0778 46.3874 46.8378C46.7234 46.6458 46.9154 46.5498 47.1074 46.2618C47.4914 45.6858 48.1154 45.3498 48.5474 44.8218C48.8354 44.6778 49.1234 44.3418 49.3634 44.2458C49.6034 43.8618 49.7954 43.7658 49.9394 43.6218C49.9394 43.6218 50.1314 43.6218 50.3234 43.4778C50.4194 43.0458 51.0434 42.9978 51.3314 42.5178C51.5714 42.2298 51.9074 41.9898 52.1474 41.8938C52.5314 41.6058 53.1074 41.1738 53.4434 40.7898C54.1154 40.4058 54.4034 39.9738 54.9794 39.6858C55.2194 39.5418 55.2194 39.4458 55.3634 39.3018H55.1714C54.9314 39.4458 54.7874 39.5418 54.4034 39.7338C53.8754 40.0218 53.2994 40.5018 52.7234 41.0298C52.1474 41.3178 51.5714 41.7498 50.9474 42.2778C50.1314 42.8538 49.2674 43.6218 48.4034 44.3898C47.5394 45.1578 46.8194 45.9738 45.9554 46.6458C45.4274 47.3178 44.9474 48.0858 44.3714 48.6618C44.1794 49.0458 43.7954 49.2378 43.6514 49.7658C43.4114 50.0538 43.2194 50.3418 42.9794 50.8218C42.4514 51.5898 41.9714 52.3098 41.5394 53.1258C41.2034 53.6058 41.0594 54.1818 40.7234 54.6138C40.4354 55.1898 40.2914 55.7658 40.0514 56.4378C39.9554 56.8218 39.9074 57.2538 39.7634 57.5418C39.8114 57.8778 39.8114 58.3578 39.8114 58.7418V58.9818ZM43.0274 63.8298C43.6994 64.2138 44.5154 64.1658 45.2354 63.7818C46.0514 63.6378 46.8674 62.9658 47.4914 62.3898C48.2114 61.6698 49.0274 60.9018 49.3154 59.9898C49.7954 59.0298 50.2274 58.3098 50.6594 57.4938C50.8994 56.9178 50.9954 56.3418 51.2834 55.7658C51.8114 54.0858 52.5794 52.4058 53.1074 50.7258C53.2514 50.1498 53.2994 49.5738 53.5394 48.8538L53.7794 48.7098C53.7794 48.7098 53.7314 48.5658 53.9234 48.5658H53.7314H53.5394C53.5394 48.2778 53.7794 48.1818 53.7314 48.0858C53.8754 47.1738 54.0194 46.3578 54.2594 45.4938C54.3074 44.5338 54.4994 43.2858 54.8354 42.2298C54.8354 41.8938 54.8354 41.5098 54.9794 41.2218C54.6914 41.3178 54.4514 41.3178 54.4514 41.5578C54.2114 41.9418 53.9234 42.2778 53.5394 42.2778V42.4218C53.2994 42.5658 53.1074 42.7578 53.0114 42.7578C52.8674 42.9498 52.5794 43.0458 52.3874 43.2378C52.0514 43.6698 51.5234 44.1498 50.8514 44.2938C50.8514 44.2938 50.7074 44.2938 50.7074 44.4378C50.5154 44.7258 50.3714 45.0618 49.8434 45.0618C49.6034 45.0618 49.4114 45.1098 49.1234 45.1098C49.3154 44.9178 49.3154 44.7738 49.3154 44.7738C49.7474 44.4858 49.9394 44.0538 50.4674 43.8138C50.8514 43.5738 51.1394 43.4298 51.5234 42.9978C51.6194 42.9978 51.6674 42.8058 51.6674 42.8058C51.9074 42.6138 51.9074 42.6138 52.0514 42.6138C52.4354 42.3258 52.9634 41.9898 53.2994 41.7018C53.6354 41.3658 54.1154 41.1258 54.3074 40.7418C54.6914 40.7418 54.7874 40.6458 54.9314 40.4538L54.9794 40.3578C54.7874 40.4538 54.6914 40.4538 54.4034 40.6458C53.5394 41.2698 52.5314 41.9898 51.5714 42.6138C51.4754 42.8058 51.4754 42.8058 51.5234 42.9978H51.3794C50.7074 43.4298 50.0354 43.9098 49.3634 44.4858C48.8354 44.9658 48.2594 45.5418 47.6834 46.2138C47.2994 46.5018 46.9634 46.8378 46.7714 47.1738C46.4834 47.1738 46.5314 47.2698 46.3874 47.4138C46.2914 47.6058 46.1474 47.7498 46.0034 47.9418C46.2914 47.9418 46.2914 47.7498 46.3874 47.4138L46.8194 47.2698C47.1074 46.8378 47.7794 46.4058 48.1634 45.9258C48.4994 45.5418 48.5954 45.5418 48.5954 45.9258C48.8354 46.0218 48.8354 45.9258 49.0274 45.6378C49.1714 45.3978 49.3154 45.1098 49.6034 45.3018C49.7954 45.3018 49.7954 45.0618 49.8434 45.0618C50.2274 45.2538 49.7954 45.3978 49.8914 45.4938C49.8434 45.4938 49.6994 45.4938 49.4594 45.6378C49.3634 45.6378 49.3154 45.8778 49.1714 46.0218C49.0274 46.0218 48.8354 46.1658 48.8834 46.2618C48.4994 46.5498 48.1634 47.1258 47.6834 47.2218L47.4434 47.3658H47.6834C47.6354 47.5578 47.3954 47.5578 47.4434 47.7018C47.3474 47.9898 47.0594 48.1818 46.9154 48.2778C46.9154 48.4218 46.8194 48.5658 46.5314 48.5658C46.4354 48.9498 46.2434 48.9498 46.1954 49.3818C46.1954 49.5738 46.0514 49.5738 45.9074 49.5738C45.5714 50.1498 44.9954 50.5818 44.7074 51.2538C44.6114 51.4938 44.3234 51.9738 44.2274 52.2138C44.1314 52.4538 43.8914 52.8378 43.6514 52.7418L43.5074 52.8378C43.6514 52.8378 43.6514 53.0298 43.7954 53.0298C43.6514 53.1258 43.5554 53.3178 43.3154 53.6538C43.0274 53.7978 43.0754 54.2298 42.7394 54.4218C42.4994 54.7578 42.4514 55.1418 42.4034 55.4778C42.1634 55.7658 42.1154 56.1978 41.9714 56.5338C41.9714 56.7258 41.9234 57.2538 41.6834 57.4938C41.3954 58.1658 41.4434 58.6938 41.4434 59.2698C41.4434 59.7978 41.5394 60.2298 41.4914 60.7098L41.7314 60.8538C41.4914 60.8538 41.3954 60.9018 41.2514 60.9498C41.4434 61.1418 41.4434 61.1418 41.5394 61.1418C41.4434 61.2378 41.4434 61.2378 41.2994 61.2378C41.3954 61.3818 41.5394 61.3818 41.5394 61.5738C41.7314 61.5258 41.7314 61.5258 41.7314 61.7658C41.8754 61.8618 41.9234 61.9578 42.1154 62.1018C42.1154 62.4858 42.1634 62.7258 42.3554 62.8698C42.3554 63.1098 42.4514 63.3498 42.7394 63.4938C42.7394 63.4938 42.7394 63.5898 42.7874 63.7338H42.8834L43.0274 63.8298ZM54.3554 48.1818H54.4994C54.5954 48.0378 54.6914 47.9418 54.6914 47.7018C54.9314 47.6058 54.9314 47.4618 54.9794 47.2698C54.6434 47.1258 54.6434 47.1258 54.9794 46.8378C54.9314 46.7418 54.6914 46.3578 54.9794 46.2618C55.0754 45.9258 55.0754 45.6858 55.0754 45.3498C55.1714 45.2058 55.1714 45.1098 55.1714 44.8698C55.2194 44.7258 55.2194 44.6298 55.2194 44.6298C55.1714 44.4858 55.3634 44.2938 55.3634 44.2938C55.3634 44.2938 55.5554 44.1018 55.3634 44.0058C55.3154 43.7178 55.5554 43.5258 55.5074 43.2858C55.6514 42.9498 55.8434 42.9018 55.6034 42.4698C55.6034 42.3738 55.6034 42.1818 55.7954 42.0858L55.7474 41.8458C55.7474 41.5098 55.8914 41.2218 55.8434 40.8858C55.8434 40.6938 55.6994 40.6938 55.6994 40.6938C55.6994 40.8858 55.5554 41.0778 55.5554 41.0778C55.6034 41.2218 55.6034 41.2698 55.5554 41.5098C55.5554 41.7498 55.4594 41.8938 55.5554 42.0858C55.5074 42.1818 55.5074 42.3738 55.2674 42.4698C55.3634 42.9018 55.0754 43.1418 55.1234 43.5258C55.0274 43.7178 55.1234 44.0058 55.0274 44.2938C54.8834 44.6298 54.9794 44.8698 54.9794 45.2058C54.9794 45.4938 54.9314 45.4938 54.6434 45.4938C54.5954 45.6858 54.8834 45.7818 54.8834 45.7818C54.5954 46.0698 54.6434 46.5498 54.5474 46.8858C54.5954 47.3178 54.4514 47.3178 54.1634 47.3178C54.2114 47.3178 54.3554 47.5098 54.4034 47.6058C54.4034 47.7498 54.4034 47.9418 54.3074 48.0378L54.3554 48.1818ZM53.6834 41.8458C53.9234 41.6538 54.1154 41.5578 54.3554 41.3178H54.1634C54.1154 41.5578 53.8274 41.6538 53.6834 41.8458ZM49.8914 44.7738C50.0354 44.6298 50.3234 44.4858 50.4194 44.2938C50.1794 44.4858 50.0354 44.6298 49.8914 44.7738ZM47.0114 47.3658C47.3474 47.2698 47.6354 47.1258 47.6834 46.7898C47.2994 46.8378 47.2034 47.2698 47.0114 47.3658ZM46.4354 48.1818C46.5794 48.1818 46.5314 48.0378 46.7714 48.0378V47.7498C46.5314 47.8938 46.4354 48.0378 46.2914 48.0378C46.3874 48.1818 46.4354 48.1818 46.4354 48.1818ZM43.6994 51.3018C43.8434 51.0618 43.8434 51.0618 44.0354 50.9178C44.1794 50.6298 44.2754 50.2938 44.5634 50.1978C44.8994 49.8618 44.9954 49.6218 45.2354 49.0938C45.4274 48.8538 45.5234 48.6138 45.8594 48.3258C45.5234 48.3258 45.2834 48.6138 45.2354 49.0938C45.2354 49.0938 44.9954 49.0938 44.9474 49.1898C44.7074 49.6218 44.4194 50.0058 44.1314 50.2938C43.9874 50.6298 43.8434 50.9178 43.6994 51.3018ZM54.1634 49.5738C54.1634 49.3818 54.3554 49.2858 54.4994 49.0458C54.4994 49.0458 54.4514 48.9018 54.5954 48.8058C54.5954 48.8058 54.5954 48.7098 54.6914 48.6618C54.6914 48.6618 54.7394 48.8058 54.7394 48.9018C54.6914 49.0458 54.6434 49.2858 54.4994 49.5258C54.4994 49.5258 54.3554 49.5258 54.1634 49.5738ZM54.7394 52.3578C54.4994 52.3578 54.2594 52.3578 54.0674 52.2138C54.4514 51.8298 54.1634 51.3018 54.5474 50.8698C54.5954 50.6778 54.4994 50.5338 54.4994 50.4378C54.4994 50.4378 54.4034 50.4378 54.4034 50.5818H54.2114V50.4858C54.1154 50.2938 54.1154 50.2938 54.1154 50.1018C54.2114 49.9098 54.4514 49.8138 54.4994 49.7178C54.5474 49.8138 54.5474 49.9098 54.5474 49.9098C54.4994 50.1018 54.4994 50.2938 54.6914 50.4378C54.6434 50.0538 54.7874 49.8138 54.7394 49.3818C54.7394 49.2858 54.7874 49.0458 54.7394 48.9018C54.9794 48.9018 55.0274 48.7578 55.3154 48.7578C55.2194 48.8538 55.2674 49.0458 55.2194 49.2378C55.2194 49.2378 55.3634 49.0458 55.5554 49.0458C55.5554 49.5258 55.6034 49.8618 55.2674 50.2458C55.2674 50.4378 55.1234 50.5338 55.1234 50.5338C55.1234 50.8698 55.0274 51.1578 55.0274 51.4938H54.6914C54.6914 51.4938 54.7874 51.5898 54.8834 51.5418C54.7394 51.7338 54.5474 51.8298 54.4514 52.1178H54.5954L54.7394 51.8298V52.3578ZM45.5714 49.1898C45.7634 49.1898 45.9074 49.0458 46.0994 49.0458C46.0514 48.9498 46.0514 48.9498 45.8594 48.8538C45.8114 48.9498 45.8114 49.0938 45.5714 49.1898ZM53.9234 52.4538C53.7314 52.4538 53.6354 52.4538 53.6834 52.3578C53.6834 52.2618 53.5394 52.1178 53.6834 51.8778C53.6354 51.7818 53.6834 51.5898 53.6834 51.5898C53.8754 51.4938 53.8754 51.4938 54.0194 51.3018L53.8754 51.3498L53.8274 51.2058C54.0194 51.0138 54.1634 50.9178 54.2594 50.6778C54.2594 50.6778 54.4514 50.6778 54.4034 50.8698C54.2114 51.3018 54.0194 51.8778 53.9234 52.4538ZM41.6354 55.5258H41.8274C41.7794 55.1418 42.4034 55.0938 42.1634 54.7578C42.4034 54.4218 42.1634 53.8458 42.7394 53.8458C42.3554 53.5578 42.3554 54.0858 42.1154 54.2778C42.3554 53.0778 43.2194 52.4538 43.6034 51.3978H43.4594C43.1234 51.8778 42.6914 52.2618 42.4514 52.7898C42.1634 53.3658 41.8754 53.9418 41.8274 54.7578C41.5874 54.9018 41.6834 55.1418 41.6354 55.5258ZM53.9714 54.5658C53.7314 54.4218 53.6354 54.4218 53.4914 54.4218C53.5394 54.3258 53.6834 54.3258 53.6834 54.3258C53.5394 54.1338 53.3474 54.0378 53.6354 54.0378C53.7314 53.8938 53.7314 53.7498 53.7314 53.5098C53.9714 53.2698 53.9234 52.9818 54.0674 52.6458C54.1154 52.4538 54.2114 52.4538 54.2114 52.4538C54.3074 52.4538 54.5474 52.4538 54.6434 52.4058C54.7394 52.6458 54.7394 52.7418 54.4994 52.7418C54.3074 52.9818 54.0674 52.9818 54.0674 53.1738H54.3074C54.4994 53.1738 54.5954 53.1738 54.4994 53.2218C54.5474 53.3658 54.4994 53.5098 54.3074 53.7018C54.2114 54.0378 54.1634 54.3258 53.9714 54.5658ZM43.0274 53.0778C43.1714 52.8378 43.2674 52.7418 43.2674 52.5978C43.2194 52.4538 43.0274 52.5978 43.0274 52.8378V53.0778ZM42.4514 53.6538C42.7394 53.5578 43.0274 53.5578 42.9314 53.0778C42.6914 53.1738 42.7874 53.3658 42.4514 53.6538ZM53.3474 53.8938C53.3954 53.2698 53.3474 53.2218 53.7794 53.2698L53.3474 53.8938ZM52.9634 55.0938C52.9634 55.0938 52.9154 54.9498 52.9154 54.7578C52.9154 54.4698 53.0114 54.3738 53.4434 54.1338C53.2034 54.4698 53.2514 54.7578 53.0114 54.9498C53.0114 54.9498 53.0594 55.0938 52.9634 55.0938ZM52.8674 56.7738C52.7234 56.7738 52.4354 56.7738 52.1954 56.5818L52.4354 56.3898C52.1474 56.2938 52.1474 56.2938 52.0514 56.2938C52.4354 56.1498 52.5314 55.9578 52.7714 55.8138C52.8674 55.9578 52.8194 56.1018 52.8194 56.1018C52.9634 55.8138 52.9634 55.7178 53.0594 55.1898C52.9154 55.3818 52.7714 55.3818 52.6274 55.3818C52.8194 55.0938 52.9634 55.0938 53.2994 55.0938L53.2514 54.9498C53.3954 54.6138 53.6354 54.6138 53.9714 54.7578V54.9018C53.7794 55.3338 53.5394 55.7658 53.4434 56.3418C53.2994 56.5338 53.1554 56.8698 52.8674 56.7738ZM40.7234 58.3578C40.8674 58.0698 40.9154 57.7338 40.6754 57.3978C40.6754 57.2058 40.7234 56.7738 40.9154 56.5818L40.8194 56.3898C40.4834 57.2058 40.4834 58.0698 40.7234 58.3578ZM49.1714 62.7738L49.4114 62.4858C49.6034 62.3418 49.6034 62.1978 49.7954 62.0058C49.8914 61.8138 50.1794 61.6218 50.3234 61.4298L50.4674 61.2378C50.4194 61.0458 50.4194 60.9018 50.4194 60.9018H49.9394C50.1314 60.8538 50.1314 60.6618 50.2754 60.5178C50.3234 60.6618 50.4194 60.6618 50.5634 60.8538C51.2834 59.8938 51.9074 58.8378 52.1474 57.7338C52.1954 57.4938 52.4354 57.1578 52.5314 56.9658C52.5794 56.8698 52.7234 56.8698 52.8674 56.7738C53.0594 56.8698 53.0594 56.8698 53.1074 56.9658C53.0114 57.1098 53.0114 57.4458 52.6754 57.1578C52.6754 57.4458 52.7714 57.6378 52.5794 57.7338C52.8674 57.9258 52.7234 58.0218 52.4354 58.0698C52.2434 58.2138 52.1474 58.2138 52.1954 58.5498C52.2434 58.3098 52.4354 58.3098 52.5794 58.3098C52.2434 58.7898 52.1954 59.2218 51.9074 59.7498H51.7154L51.5714 59.8938C51.7634 60.3258 51.4754 60.6138 51.3314 60.9018C51.0434 61.1898 50.7554 61.5738 50.4674 61.8138L49.8914 62.6298C49.8434 62.8698 49.4594 62.8698 49.1714 62.7738ZM51.9554 57.1578C51.9554 56.9178 52.1474 56.7738 52.4354 56.9658C52.1954 57.0138 52.0994 57.1578 51.9554 57.1578ZM40.9634 57.5418C41.1074 57.3978 41.1074 57.2058 41.1554 56.9178C40.9634 57.2058 40.9634 57.3018 40.9634 57.5418ZM51.4274 58.5978C51.5234 58.2618 51.6674 57.9738 51.8594 57.4938H51.9554C52.0034 57.6378 52.0034 57.6378 52.0034 57.7338C51.9554 58.0698 51.8594 58.2138 51.7154 58.5498C51.6674 58.6938 51.5714 58.6938 51.4274 58.5978ZM50.2274 59.1738C50.3234 58.9818 50.3234 58.8858 50.5154 58.6938C50.5154 58.6938 50.5634 58.5978 50.3714 58.5978C50.3234 58.8858 50.2274 58.9818 50.2274 59.1738ZM40.1954 59.9418C40.3394 59.8458 40.5794 59.8458 40.5794 59.8458C40.5314 59.6538 40.5794 59.5098 40.5314 59.3178V59.1738C40.4354 59.0778 40.3874 58.7898 40.4354 58.6458C40.2914 59.0778 40.3394 59.3178 40.1954 59.9418ZM45.7634 64.5498C45.8594 64.5498 45.8114 64.3578 45.9554 64.3098C46.3874 64.5498 48.0194 63.3498 48.0194 62.8218C48.2114 62.8218 48.2114 62.8218 48.2114 62.9178C48.2114 62.8218 48.2114 62.8218 48.3074 62.8218C48.1634 62.6298 48.1634 62.6298 47.9714 62.5338L47.8754 62.6778C47.5394 62.8218 47.4914 63.1578 47.2994 63.1578C47.1074 63.5898 46.8674 63.6858 46.5314 63.9258C46.4354 64.1178 46.0514 64.1178 45.8114 64.2618V64.1178C45.8114 64.2618 45.7154 64.3578 45.7634 64.5498ZM47.9234 64.0218C48.2114 64.0218 48.5474 63.8778 48.8354 63.8298L48.7874 64.0218C48.4994 64.1658 48.2114 64.0218 47.9234 64.0218ZM44.5634 64.6938C44.7074 64.8378 44.8994 64.9338 45.0914 64.6938H44.5634ZM67.1751 37.1898L66.0231 37.0458C65.8791 36.9978 65.5911 36.9978 65.3991 36.9498C65.1111 36.8058 64.7751 36.7098 64.4391 36.5178C64.1991 36.3258 63.9591 36.0378 63.7191 35.7978C63.5751 35.6058 63.4791 35.3658 63.3831 35.1258C63.3351 34.8378 63.2391 34.5498 63.1911 34.1658C63.1911 33.9258 63.1911 33.5898 63.2871 33.3018C63.3831 31.3338 64.6791 29.3178 65.4951 28.2138C65.5431 28.1178 65.5911 28.0218 65.6871 28.0218C65.7831 27.8778 65.8791 27.7818 65.9271 27.6858C65.9751 27.6378 66.4551 27.0618 66.6471 26.9178C67.0311 26.5338 67.4631 26.4378 67.8951 26.5818C68.0871 26.6298 68.3271 26.5338 68.5191 26.6298C68.7591 26.7258 68.9991 26.9178 69.2391 27.0618C69.5271 27.2058 69.8151 27.3018 70.0071 27.4938C70.2951 27.6858 70.5351 27.9258 70.7271 28.1658C70.7751 28.2618 70.7751 28.5018 70.6791 28.6938C70.6791 28.8858 70.5351 29.0298 70.3911 29.2218C70.2951 29.3658 70.0071 29.3178 69.8631 29.2218C69.6231 29.0778 69.3831 28.9818 69.1911 28.8378C69.0471 28.6938 68.9031 28.5498 68.8551 28.4058C68.7591 28.2138 68.7111 28.2138 68.5671 28.3098C68.1351 28.5018 67.7031 28.7898 67.4631 29.2218C67.2711 29.6058 66.9351 29.8458 66.6951 30.2298C66.4551 30.6138 66.1671 30.9978 65.8791 31.4298C65.3991 32.1498 65.0631 32.9658 64.8231 33.7818C64.6311 34.2138 64.6791 34.7418 64.7751 35.1738C64.8231 35.3178 64.9671 35.3658 65.1111 35.4138C65.6871 35.4138 66.3111 35.3658 66.9351 35.1258C67.3191 35.0298 67.7031 34.9818 67.9911 34.7898C68.3271 34.6938 68.6631 34.5498 68.9511 34.3578C69.1431 34.2618 69.2871 34.1178 69.5271 33.9738C69.6231 33.8778 69.7191 33.8778 69.8151 33.8298V33.9258C69.7191 33.9738 69.6231 34.0218 69.4791 34.1178V34.1658C69.6231 34.1658 69.7191 34.1178 69.7671 34.0698L70.9671 33.3018C71.5431 32.8698 72.0711 32.4378 72.5991 32.0058C72.9831 31.7658 73.2711 31.5258 73.6071 31.2378C73.6071 31.2378 73.6551 31.1898 73.6551 31.0938C73.5591 31.1898 73.4631 31.2378 73.2711 31.3338C73.2231 31.2858 73.2711 31.2378 73.2711 31.2378C73.6071 30.9498 74.0871 30.6618 74.4711 30.4218C74.5671 30.2778 74.7111 30.1818 74.9511 30.0378C74.9991 29.9898 75.0471 29.7978 75.1911 29.9898C75.2391 29.8938 75.2391 29.7978 75.2391 29.7978C75.4791 29.6538 75.7671 29.4138 76.0071 29.2218C76.0551 29.2218 76.1511 29.1738 76.1991 29.1258C76.1991 29.2218 76.2951 29.2698 76.2471 29.3178C76.1991 29.6058 76.1511 29.8458 75.8631 29.9898C75.8151 29.9898 75.7671 30.0858 75.7671 30.1338C75.8631 30.3738 75.5751 30.4218 75.5271 30.6138C75.4791 30.6618 75.4791 30.7098 75.3831 30.8058C75.3351 30.8538 75.2391 30.9498 75.2391 30.9978C75.1431 31.0938 75.1431 31.1898 75.0471 31.2378C74.8071 31.3818 74.6151 31.5258 74.4231 31.5738C74.3751 31.6218 74.3271 31.6218 74.2791 31.6218C74.2311 31.6218 74.2311 31.6698 74.2311 31.7178C74.3271 31.8138 74.3271 31.8618 74.5191 31.9578C74.4231 32.3418 74.0871 32.4378 73.7511 32.4858C73.7511 32.7738 73.4631 32.9178 73.3191 33.0618C73.2711 33.0618 73.2711 33.0138 73.2711 33.0138C73.2711 32.9178 73.3671 32.7738 73.4151 32.6778C73.3191 32.6778 73.2231 32.7258 73.1271 32.7738C72.9351 32.9178 72.7911 32.9658 72.6471 32.7738C72.6951 32.6778 72.6951 32.5818 72.7431 32.4378H72.6951C72.5511 32.5818 72.3111 32.7738 72.0711 32.9178C71.5911 33.3018 71.1111 33.6858 70.6311 34.1178C70.6311 34.1658 70.5831 34.1658 70.5351 34.2618C70.1991 34.4058 69.7191 34.1658 69.5751 34.7418C69.7191 34.7418 69.9111 34.6938 70.0551 34.7898C70.2471 34.9338 70.4391 34.8858 70.6791 34.7898C70.5351 34.7898 70.3911 34.7418 70.2951 34.7418C70.3911 34.4538 70.6311 34.4058 71.1591 34.5978L70.3431 35.2218C70.2951 35.2218 70.2951 35.2698 70.2951 35.2698C69.8631 35.2218 69.7191 35.6058 69.5271 35.8458C69.4791 35.8938 69.5271 36.0378 69.5271 36.2298C69.3831 36.3258 69.1431 36.3738 68.9511 36.4698C68.5191 36.6618 68.0391 36.7578 67.6551 36.9018C67.5111 37.0458 67.3671 37.2378 67.1751 37.1898ZM71.1591 34.3098C71.1111 33.9258 71.2551 33.7818 71.5431 33.7818C71.6391 33.7818 71.7831 33.7338 71.8791 33.6378C71.8311 33.5898 71.6871 33.5898 71.5911 33.5898C71.6391 33.3498 71.7831 33.3018 71.9751 33.3018C72.2151 33.2538 72.5031 33.0138 72.6471 33.3018C72.7431 33.3018 72.8391 33.2538 72.9351 33.2058C72.9351 33.3018 72.9831 33.3498 72.9351 33.3498C72.5031 33.6378 72.1671 34.0698 71.6391 34.1658C71.6391 34.1178 71.6391 34.0218 71.6871 33.9258C71.4951 34.0698 71.3031 34.1658 71.1591 34.3098ZM69.7191 36.1818C69.6231 35.8938 69.6711 35.8458 70.1991 35.8938C70.0551 35.9418 69.8631 36.0858 69.7191 36.1818ZM89.3995 39.9738C89.2075 40.0698 88.1035 40.0698 87.6715 39.6858C87.2395 39.4458 86.9035 38.9178 86.6635 38.3418C86.5675 37.9098 86.2795 37.2858 86.2315 36.6138C86.2315 35.9898 86.0875 35.3178 86.1355 34.8378L86.0875 33.7818C85.9435 33.7338 85.7995 33.7818 85.5115 34.0218C85.5115 34.1178 85.4155 34.1178 85.3675 34.1658C84.7435 34.7898 84.0715 35.2698 83.5435 35.8938C83.2075 36.3258 82.7275 36.4698 82.3435 36.7578L82.0075 37.0458C81.8635 37.0458 81.7195 36.9978 81.4795 36.9498L81.0955 36.3258C81.0955 36.4698 80.9995 36.5658 80.9515 36.7098C80.7595 36.7578 80.6635 36.6618 80.6155 36.4698C80.6155 36.3738 80.4715 36.3738 80.4235 36.2298C80.3755 36.1338 80.1835 36.0378 80.1835 35.9418C80.0875 35.4618 79.3195 35.3178 79.8955 34.8858C79.9915 34.2138 80.2315 32.8218 80.3275 32.1018C80.3755 32.0538 80.3275 31.9578 80.2315 31.8138C79.6555 32.5338 79.1275 33.1578 78.8875 33.4938C78.7915 33.5898 78.6475 33.6378 78.5035 33.6858C78.6475 33.9738 78.3595 34.1658 78.1675 34.4058L77.8795 35.0298C77.3995 35.7018 77.0155 36.3738 76.5835 37.0458C76.4395 37.2858 76.1515 37.3818 75.9595 37.5738C75.8635 37.6218 75.7675 37.7178 75.7195 37.8618L75.3355 38.1498C75.0475 37.9578 75.0475 37.5738 74.9515 37.3818L74.7115 37.7658C74.4235 37.3818 74.3275 36.9018 74.3755 36.3738C74.5195 34.7418 74.8555 33.1578 75.2875 31.5738C75.5275 30.6618 75.6715 29.7018 75.9115 28.7898C75.9115 28.5498 76.0075 28.3098 75.9115 28.1178C75.8635 28.0218 76.0555 27.8298 76.0555 27.7338C76.4395 27.7818 76.5835 27.7818 76.8715 27.8778C77.2075 27.9738 77.4475 28.0698 77.5435 28.5018C77.6395 28.9818 77.5915 29.5098 77.4475 29.9898C77.3515 30.6138 77.2555 31.2378 77.0635 31.9098C77.0155 32.2938 76.4395 33.7818 76.3435 34.3098C76.4875 34.2618 76.5835 34.2138 76.6315 34.1658C76.7755 33.8778 77.0155 33.5418 77.6395 32.4858C78.0715 31.9578 78.4075 31.2378 78.9355 30.7098C79.2715 30.3738 79.5595 29.9898 79.9435 29.7018C80.1355 29.5578 80.2795 29.6058 80.4715 29.7498C80.7595 30.0858 81.1915 30.2778 81.6715 30.1338C81.8635 30.0378 82.0075 30.1338 82.1995 30.1338C82.3435 30.4698 82.2475 30.8538 82.3435 31.2378C82.3915 31.3338 82.4395 31.5258 82.3915 31.6698C82.3435 32.1018 82.4395 32.5338 82.2475 32.9178C82.1035 33.3018 82.0075 34.3578 81.9115 34.8858C82.5355 34.3578 83.3035 33.5898 83.8315 33.1578C84.1195 32.9178 84.4555 32.6778 84.7915 32.4858C84.9835 32.3418 85.1755 32.2458 85.5595 31.9098C85.7035 31.8618 85.9435 31.8138 86.0395 31.9098C86.5195 32.0538 86.7115 32.2938 87.1915 32.4858C87.2875 32.5818 87.3835 32.6778 87.1915 32.6778C87.2395 32.7738 87.3355 32.9178 87.4795 32.9178C87.9115 32.9178 87.9115 33.3978 87.8635 33.7338C87.9115 33.8778 87.9115 34.1178 87.9115 34.3578V34.5978C87.7195 34.8858 87.9115 35.2218 87.8635 35.5098C87.9115 35.9418 87.9115 36.3738 88.0075 36.7578C88.1035 37.0458 88.1035 37.2378 88.3435 38.1498C88.6315 38.7258 89.0155 38.9658 89.6875 38.7258C89.7835 38.6298 89.9755 38.9658 89.8795 39.1578C89.8795 39.2538 89.7835 39.3018 89.6875 39.3978C89.6875 39.5418 89.6875 39.6378 89.3995 39.9738Z" fill="#790F2E"></path></svg> 