<?xml version="1.0" encoding="UTF-8"?> <svg xmlns="http://www.w3.org/2000/svg" width="325" height="99" viewBox="0 0 325 99" fill="none"><path d="M302.129 16.8H302.229C302.322 16.8 302.409 16.76 302.489 16.68C302.569 16.6 302.635 16.5067 302.689 16.4C302.755 16.2933 302.802 16.18 302.829 16.06C302.855 15.9267 302.869 15.8067 302.869 15.7V5.06C302.869 4.96667 302.855 4.86 302.829 4.74C302.802 4.62 302.755 4.50667 302.689 4.4C302.635 4.28 302.562 4.18667 302.469 4.12C302.389 4.04 302.295 4 302.189 4H302.089V3.8H305.369C306.609 3.8 307.575 4.07333 308.269 4.62C308.975 5.16667 309.329 5.89333 309.329 6.8C309.329 7.18667 309.262 7.53333 309.129 7.84C308.995 8.14667 308.822 8.42 308.609 8.66C308.409 8.9 308.189 9.10667 307.949 9.28C307.709 9.44 307.482 9.57333 307.269 9.68C307.829 9.78667 308.295 9.96667 308.669 10.22C309.042 10.4733 309.342 10.7667 309.569 11.1C309.809 11.42 309.975 11.7667 310.069 12.14C310.162 12.5133 310.209 12.88 310.209 13.24C310.209 13.9333 310.082 14.52 309.829 15C309.575 15.4667 309.235 15.8533 308.809 16.16C308.395 16.4533 307.915 16.6667 307.369 16.8C306.835 16.9333 306.282 17 305.709 17H302.129V16.8ZM308.849 13.36C308.742 12.3333 308.395 11.54 307.809 10.98C307.222 10.42 306.395 10.14 305.329 10.14H304.209V16.34H305.369C306.449 16.34 307.295 16.1 307.909 15.62C308.535 15.1267 308.849 14.4467 308.849 13.58V13.36ZM308.029 6.98C307.989 6.20667 307.715 5.59333 307.209 5.14C306.715 4.68667 306.049 4.46 305.209 4.46H304.209V9.5H305.249C305.809 9.5 306.262 9.42667 306.609 9.28C306.969 9.13333 307.255 8.94667 307.469 8.72C307.682 8.48 307.829 8.22 307.909 7.94C307.989 7.66 308.029 7.38667 308.029 7.12V6.98ZM318.251 4.32C317.264 4.32 316.404 4.5 315.671 4.86C314.951 5.20667 314.351 5.66667 313.871 6.24C313.391 6.8 313.031 7.43333 312.791 8.14C312.564 8.84667 312.451 9.54667 312.451 10.24C312.451 11.0267 312.604 11.8 312.911 12.56C313.217 13.3067 313.637 13.9733 314.171 14.56C314.717 15.1333 315.351 15.6 316.071 15.96C316.791 16.3067 317.571 16.48 318.411 16.48C318.651 16.48 318.931 16.4533 319.251 16.4C319.584 16.3467 319.911 16.2467 320.231 16.1C320.551 15.94 320.844 15.72 321.111 15.44C321.391 15.16 321.604 14.7933 321.751 14.34H321.951V16.56C321.751 16.56 321.537 16.5867 321.311 16.64C321.097 16.6933 320.857 16.7533 320.591 16.82C320.244 16.9133 319.857 17 319.431 17.08C319.017 17.16 318.577 17.2 318.111 17.2C316.951 17.2 315.931 17 315.051 16.6C314.171 16.2 313.437 15.68 312.851 15.04C312.264 14.4 311.824 13.68 311.531 12.88C311.237 12.0667 311.091 11.2467 311.091 10.42C311.091 9.59333 311.237 8.77333 311.531 7.96C311.824 7.14667 312.271 6.42 312.871 5.78C313.471 5.12667 314.224 4.6 315.131 4.2C316.037 3.8 317.104 3.6 318.331 3.6C318.771 3.6 319.164 3.64 319.511 3.72C319.871 3.8 320.191 3.88 320.471 3.96C320.671 4.02667 320.851 4.08 321.011 4.12C321.184 4.14667 321.351 4.16 321.511 4.16V6.38H321.311C321.231 5.96667 321.084 5.62667 320.871 5.36C320.657 5.08 320.404 4.86667 320.111 4.72C319.831 4.57333 319.524 4.47333 319.191 4.42C318.871 4.35333 318.557 4.32 318.251 4.32Z" fill="#402A0C"></path><path d="M258.719 4.32C257.733 4.32 256.873 4.5 256.139 4.86C255.419 5.20667 254.819 5.66667 254.339 6.24C253.859 6.8 253.499 7.43333 253.259 8.14C253.033 8.84667 252.919 9.54667 252.919 10.24C252.919 11.0267 253.073 11.8 253.379 12.56C253.686 13.3067 254.106 13.9733 254.639 14.56C255.186 15.1333 255.819 15.6 256.539 15.96C257.259 16.3067 258.039 16.48 258.879 16.48C259.119 16.48 259.399 16.4533 259.719 16.4C260.053 16.3467 260.379 16.2467 260.699 16.1C261.019 15.94 261.313 15.72 261.579 15.44C261.859 15.16 262.073 14.7933 262.219 14.34H262.419V16.56C262.219 16.56 262.006 16.5867 261.779 16.64C261.566 16.6933 261.326 16.7533 261.059 16.82C260.713 16.9133 260.326 17 259.899 17.08C259.486 17.16 259.046 17.2 258.579 17.2C257.419 17.2 256.399 17 255.519 16.6C254.639 16.2 253.906 15.68 253.319 15.04C252.733 14.4 252.293 13.68 251.999 12.88C251.706 12.0667 251.559 11.2467 251.559 10.42C251.559 9.59333 251.706 8.77333 251.999 7.96C252.293 7.14667 252.739 6.42 253.339 5.78C253.939 5.12667 254.693 4.6 255.599 4.2C256.506 3.8 257.573 3.6 258.799 3.6C259.239 3.6 259.633 3.64 259.979 3.72C260.339 3.8 260.659 3.88 260.939 3.96C261.139 4.02667 261.319 4.08 261.479 4.12C261.653 4.14667 261.819 4.16 261.979 4.16V6.38H261.779C261.699 5.96667 261.553 5.62667 261.339 5.36C261.126 5.08 260.873 4.86667 260.579 4.72C260.299 4.57333 259.993 4.47333 259.659 4.42C259.339 4.35333 259.026 4.32 258.719 4.32ZM264.14 16.8H264.24C264.347 16.8 264.44 16.7667 264.52 16.7C264.6 16.62 264.667 16.5267 264.72 16.42C264.787 16.3133 264.834 16.2 264.86 16.08C264.9 15.96 264.92 15.8467 264.92 15.74V5.04C264.92 4.94667 264.9 4.84 264.86 4.72C264.834 4.6 264.787 4.48667 264.72 4.38C264.667 4.27333 264.6 4.18667 264.52 4.12C264.44 4.04 264.347 4 264.24 4H264.14V3.8H271.46V5.7H271.26C271.26 5.39333 271.154 5.12667 270.94 4.9C270.727 4.66 270.4 4.54 269.96 4.54H266.26V9.4H267.18C267.794 9.4 268.4 9.46 269 9.58C269.614 9.7 270.16 9.90667 270.64 10.2C271.134 10.48 271.527 10.8667 271.82 11.36C272.127 11.8533 272.28 12.4733 272.28 13.22C272.28 13.8067 272.167 14.3333 271.94 14.8C271.727 15.2667 271.42 15.6667 271.02 16C270.62 16.32 270.14 16.5667 269.58 16.74C269.034 16.9133 268.434 17 267.78 17H264.14V16.8ZM267.04 16.3C267.707 16.3 268.28 16.2267 268.76 16.08C269.254 15.9333 269.66 15.7333 269.98 15.48C270.3 15.2133 270.534 14.9067 270.68 14.56C270.84 14.2 270.92 13.8133 270.92 13.4C270.92 12.4267 270.574 11.6333 269.88 11.02C269.187 10.3933 268.2 10.08 266.92 10.08H266.26V16.3H267.04Z" fill="#402A0C"></path><path d="M202.148 16.8H202.248C202.355 16.8 202.448 16.7667 202.528 16.7C202.608 16.62 202.675 16.5267 202.728 16.42C202.781 16.3 202.821 16.18 202.848 16.06C202.875 15.9267 202.888 15.8067 202.888 15.7V5.04C202.888 4.94667 202.868 4.84 202.828 4.72C202.801 4.6 202.761 4.48667 202.708 4.38C202.655 4.27333 202.588 4.18667 202.508 4.12C202.428 4.04 202.341 4 202.248 4H202.148V3.8H212.388V4H212.228C212.135 4 212.055 4.04 211.988 4.12C211.921 4.18667 211.861 4.28 211.808 4.4C211.768 4.50667 211.735 4.62 211.708 4.74C211.681 4.86 211.668 4.96 211.668 5.04V15.7C211.668 15.8067 211.675 15.92 211.688 16.04C211.715 16.16 211.748 16.28 211.788 16.4C211.841 16.5067 211.901 16.6 211.968 16.68C212.048 16.76 212.135 16.8 212.228 16.8H212.388V17H209.588V16.8H209.768C209.861 16.8 209.941 16.76 210.008 16.68C210.088 16.6 210.148 16.5067 210.188 16.4C210.241 16.2933 210.275 16.18 210.288 16.06C210.315 15.9267 210.328 15.8067 210.328 15.7V4.5H204.228V15.7C204.228 15.8067 204.241 15.9267 204.268 16.06C204.295 16.18 204.328 16.2933 204.368 16.4C204.421 16.5067 204.488 16.6 204.568 16.68C204.648 16.76 204.741 16.8 204.848 16.8H204.948V17H202.148V16.8ZM219.356 16.8H219.456V17H216.616V16.8H216.716C216.823 16.8 216.916 16.76 216.996 16.68C217.076 16.6 217.143 16.5067 217.196 16.4C217.263 16.2933 217.31 16.18 217.336 16.06C217.363 15.9267 217.376 15.8067 217.376 15.7V4.54H215.056C214.843 4.54 214.656 4.58667 214.496 4.68C214.336 4.77333 214.203 4.89333 214.096 5.04C213.99 5.17333 213.91 5.32667 213.856 5.5C213.803 5.66 213.776 5.82 213.776 5.98H213.576V3.8H222.556V5.98H222.356C222.356 5.82 222.33 5.66 222.276 5.5C222.223 5.32667 222.143 5.17333 222.036 5.04C221.93 4.89333 221.796 4.77333 221.636 4.68C221.476 4.58667 221.29 4.54 221.076 4.54H218.716V15.7C218.716 15.8067 218.73 15.9267 218.756 16.06C218.783 16.18 218.823 16.2933 218.876 16.4C218.943 16.5067 219.01 16.6 219.076 16.68C219.156 16.76 219.25 16.8 219.356 16.8Z" fill="#402A0C"></path><path d="M158.984 16.8H159.084C159.178 16.8 159.264 16.7667 159.344 16.7C159.424 16.62 159.491 16.5267 159.544 16.42C159.611 16.3133 159.658 16.2 159.684 16.08C159.711 15.96 159.724 15.8467 159.724 15.74V10.42C159.458 10.62 159.098 10.8133 158.644 11C158.191 11.1867 157.711 11.28 157.204 11.28C156.604 11.28 156.058 11.18 155.564 10.98C155.084 10.7667 154.671 10.48 154.324 10.12C153.991 9.76 153.731 9.34667 153.544 8.88C153.371 8.4 153.284 7.89333 153.284 7.36V5.04C153.284 4.94667 153.271 4.84 153.244 4.72C153.218 4.6 153.178 4.48667 153.124 4.38C153.084 4.27333 153.024 4.18667 152.944 4.12C152.878 4.04 152.804 4 152.724 4H152.624V3.8H155.404V4H155.304C155.198 4 155.104 4.04 155.024 4.12C154.944 4.18667 154.871 4.27333 154.804 4.38C154.751 4.48667 154.704 4.6 154.664 4.72C154.638 4.84 154.624 4.94667 154.624 5.04V7.48C154.624 7.92 154.711 8.32 154.884 8.68C155.058 9.04 155.284 9.35333 155.564 9.62C155.844 9.87333 156.158 10.0733 156.504 10.22C156.864 10.3533 157.224 10.42 157.584 10.42C157.944 10.42 158.311 10.3333 158.684 10.16C159.058 9.98667 159.404 9.78667 159.724 9.56V5.04C159.724 4.94667 159.711 4.84667 159.684 4.74C159.658 4.62 159.618 4.51333 159.564 4.42C159.524 4.31333 159.471 4.22 159.404 4.14C159.338 4.06 159.258 4.01333 159.164 4H159.004V3.8H161.844V4H161.684C161.591 4.01333 161.504 4.06 161.424 4.14C161.344 4.22 161.278 4.31333 161.224 4.42C161.171 4.51333 161.131 4.62 161.104 4.74C161.078 4.84667 161.064 4.94667 161.064 5.04V15.74C161.064 15.8333 161.078 15.94 161.104 16.06C161.131 16.18 161.171 16.2933 161.224 16.4C161.278 16.4933 161.344 16.58 161.424 16.66C161.504 16.74 161.591 16.7867 161.684 16.8H161.844V17H158.984V16.8ZM168.78 16.8H168.88V17H166.04V16.8H166.14C166.247 16.8 166.34 16.76 166.42 16.68C166.5 16.6 166.567 16.5067 166.62 16.4C166.687 16.2933 166.734 16.18 166.76 16.06C166.787 15.9267 166.8 15.8067 166.8 15.7V4.54H164.48C164.267 4.54 164.08 4.58667 163.92 4.68C163.76 4.77333 163.627 4.89333 163.52 5.04C163.414 5.17333 163.334 5.32667 163.28 5.5C163.227 5.66 163.2 5.82 163.2 5.98H163V3.8H171.98V5.98H171.78C171.78 5.82 171.754 5.66 171.7 5.5C171.647 5.32667 171.567 5.17333 171.46 5.04C171.354 4.89333 171.22 4.77333 171.06 4.68C170.9 4.58667 170.714 4.54 170.5 4.54H168.14V15.7C168.14 15.8067 168.154 15.9267 168.18 16.06C168.207 16.18 168.247 16.2933 168.3 16.4C168.367 16.5067 168.434 16.6 168.5 16.68C168.58 16.76 168.674 16.8 168.78 16.8Z" fill="#402A0C"></path><path d="M109.188 4.32C108.201 4.32 107.341 4.5 106.608 4.86C105.888 5.20667 105.288 5.66667 104.808 6.24C104.328 6.8 103.968 7.43333 103.728 8.14C103.501 8.84667 103.388 9.54667 103.388 10.24C103.388 11.0267 103.541 11.8 103.848 12.56C104.155 13.3067 104.575 13.9733 105.108 14.56C105.655 15.1333 106.288 15.6 107.008 15.96C107.728 16.3067 108.508 16.48 109.348 16.48C109.588 16.48 109.868 16.4533 110.188 16.4C110.521 16.3467 110.848 16.2467 111.168 16.1C111.488 15.94 111.781 15.72 112.048 15.44C112.328 15.16 112.541 14.7933 112.688 14.34H112.888V16.56C112.688 16.56 112.475 16.5867 112.248 16.64C112.035 16.6933 111.795 16.7533 111.528 16.82C111.181 16.9133 110.795 17 110.368 17.08C109.955 17.16 109.515 17.2 109.048 17.2C107.888 17.2 106.868 17 105.988 16.6C105.108 16.2 104.375 15.68 103.788 15.04C103.201 14.4 102.761 13.68 102.468 12.88C102.175 12.0667 102.028 11.2467 102.028 10.42C102.028 9.59333 102.175 8.77333 102.468 7.96C102.761 7.14667 103.208 6.42 103.808 5.78C104.408 5.12667 105.161 4.6 106.068 4.2C106.975 3.8 108.041 3.6 109.268 3.6C109.708 3.6 110.101 3.64 110.448 3.72C110.808 3.8 111.128 3.88 111.408 3.96C111.608 4.02667 111.788 4.08 111.948 4.12C112.121 4.14667 112.288 4.16 112.448 4.16V6.38H112.248C112.168 5.96667 112.021 5.62667 111.808 5.36C111.595 5.08 111.341 4.86667 111.048 4.72C110.768 4.57333 110.461 4.47333 110.128 4.42C109.808 4.35333 109.495 4.32 109.188 4.32ZM114.589 3.8H117.429C118.909 3.8 120.029 4.08667 120.789 4.66C121.562 5.22 121.949 6.02 121.949 7.06C121.949 7.62 121.816 8.12 121.549 8.56C121.282 9 120.929 9.37333 120.489 9.68C120.062 9.97333 119.576 10.2 119.029 10.36C118.496 10.52 117.962 10.6 117.429 10.6H116.669V15.7C116.669 15.8067 116.682 15.9267 116.709 16.06C116.736 16.18 116.776 16.2933 116.829 16.4C116.896 16.5067 116.962 16.6 117.029 16.68C117.109 16.76 117.202 16.8 117.309 16.8H117.409V17H114.589V16.8H114.689C114.782 16.8 114.869 16.76 114.949 16.68C115.029 16.6 115.096 16.5067 115.149 16.4C115.202 16.2933 115.242 16.18 115.269 16.06C115.296 15.9267 115.309 15.8067 115.309 15.7V5.04C115.309 4.85333 115.256 4.64 115.149 4.4C115.042 4.16 114.889 4.02667 114.689 4H114.589V3.8ZM116.669 4.5V9.9H117.269C117.802 9.9 118.276 9.82667 118.689 9.68C119.116 9.53333 119.469 9.34 119.749 9.1C120.029 8.86 120.242 8.58667 120.389 8.28C120.536 7.97333 120.609 7.66 120.609 7.34C120.609 6.95333 120.542 6.59333 120.409 6.26C120.289 5.91333 120.082 5.61333 119.789 5.36C119.509 5.09333 119.136 4.88667 118.669 4.74C118.202 4.58 117.629 4.5 116.949 4.5H116.669Z" fill="#402A0C"></path><path d="M53.6617 16.8H53.7617C53.8551 16.8 53.9417 16.76 54.0217 16.68C54.1017 16.6 54.1684 16.5067 54.2217 16.4C54.2884 16.2933 54.3351 16.18 54.3617 16.06C54.3884 15.9267 54.4017 15.8067 54.4017 15.7V5.06C54.4017 4.96667 54.3884 4.86 54.3617 4.74C54.3351 4.62 54.2884 4.50667 54.2217 4.4C54.1684 4.28 54.0951 4.18667 54.0017 4.12C53.9217 4.04 53.8284 4 53.7217 4H53.6217V3.8H56.9017C58.1417 3.8 59.1084 4.07333 59.8017 4.62C60.5084 5.16667 60.8617 5.89333 60.8617 6.8C60.8617 7.18667 60.7951 7.53333 60.6617 7.84C60.5284 8.14667 60.3551 8.42 60.1417 8.66C59.9417 8.9 59.7217 9.10667 59.4817 9.28C59.2417 9.44 59.0151 9.57333 58.8017 9.68C59.3617 9.78667 59.8284 9.96667 60.2017 10.22C60.5751 10.4733 60.8751 10.7667 61.1017 11.1C61.3417 11.42 61.5084 11.7667 61.6017 12.14C61.6951 12.5133 61.7417 12.88 61.7417 13.24C61.7417 13.9333 61.6151 14.52 61.3617 15C61.1084 15.4667 60.7684 15.8533 60.3417 16.16C59.9284 16.4533 59.4484 16.6667 58.9017 16.8C58.3684 16.9333 57.8151 17 57.2417 17H53.6617V16.8ZM60.3817 13.36C60.2751 12.3333 59.9284 11.54 59.3417 10.98C58.7551 10.42 57.9284 10.14 56.8617 10.14H55.7417V16.34H56.9017C57.9817 16.34 58.8284 16.1 59.4417 15.62C60.0684 15.1267 60.3817 14.4467 60.3817 13.58V13.36ZM59.5617 6.98C59.5217 6.20667 59.2484 5.59333 58.7417 5.14C58.2484 4.68667 57.5817 4.46 56.7417 4.46H55.7417V9.5H56.7817C57.3417 9.5 57.7951 9.42667 58.1417 9.28C58.5017 9.13333 58.7884 8.94667 59.0017 8.72C59.2151 8.48 59.3617 8.22 59.4417 7.94C59.5217 7.66 59.5617 7.38667 59.5617 7.12V6.98ZM67.8428 16.8H67.9428V17H65.1028V16.8H65.2028C65.3095 16.8 65.4028 16.76 65.4828 16.68C65.5628 16.6 65.6295 16.5067 65.6828 16.4C65.7495 16.2933 65.7961 16.18 65.8228 16.06C65.8495 15.9267 65.8628 15.8067 65.8628 15.7V4.54H63.5428C63.3295 4.54 63.1428 4.58667 62.9828 4.68C62.8228 4.77333 62.6895 4.89333 62.5828 5.04C62.4761 5.17333 62.3961 5.32667 62.3428 5.5C62.2895 5.66 62.2628 5.82 62.2628 5.98H62.0628V3.8H71.0428V5.98H70.8428C70.8428 5.82 70.8161 5.66 70.7628 5.5C70.7095 5.32667 70.6295 5.17333 70.5228 5.04C70.4161 4.89333 70.2828 4.77333 70.1228 4.68C69.9628 4.58667 69.7761 4.54 69.5628 4.54H67.2028V15.7C67.2028 15.8067 67.2161 15.9267 67.2428 16.06C67.2695 16.18 67.3095 16.2933 67.3628 16.4C67.4295 16.5067 67.4961 16.6 67.5628 16.68C67.6428 16.76 67.7361 16.8 67.8428 16.8Z" fill="#402A0C"></path><path d="M6.26914 16.8H6.36914C6.47581 16.8 6.56914 16.7667 6.64914 16.7C6.72914 16.62 6.79581 16.5267 6.84914 16.42C6.90247 16.3 6.94247 16.18 6.96914 16.06C6.99581 15.9267 7.00914 15.8067 7.00914 15.7V5.04C7.00914 4.94667 6.98914 4.84 6.94914 4.72C6.92247 4.6 6.88247 4.48667 6.82914 4.38C6.77581 4.27333 6.70914 4.18667 6.62914 4.12C6.54914 4.04 6.46247 4 6.36914 4H6.26914V3.8H16.5091V4H16.3491C16.2558 4 16.1758 4.04 16.1091 4.12C16.0425 4.18667 15.9825 4.28 15.9291 4.4C15.8891 4.50667 15.8558 4.62 15.8291 4.74C15.8025 4.86 15.7891 4.96 15.7891 5.04V15.7C15.7891 15.8067 15.7958 15.92 15.8091 16.04C15.8358 16.16 15.8691 16.28 15.9091 16.4C15.9625 16.5067 16.0225 16.6 16.0891 16.68C16.1691 16.76 16.2558 16.8 16.3491 16.8H16.5091V17H13.7091V16.8H13.8891C13.9825 16.8 14.0625 16.76 14.1291 16.68C14.2091 16.6 14.2691 16.5067 14.3091 16.4C14.3625 16.2933 14.3958 16.18 14.4091 16.06C14.4358 15.9267 14.4491 15.8067 14.4491 15.7V4.5H8.34914V15.7C8.34914 15.8067 8.36247 15.9267 8.38914 16.06C8.41581 16.18 8.44914 16.2933 8.48914 16.4C8.54247 16.5067 8.60914 16.6 8.68914 16.68C8.76914 16.76 8.86247 16.8 8.96914 16.8H9.06914V17H6.26914V16.8ZM26.3976 16.8H26.4976C26.5909 16.8 26.6776 16.7667 26.7576 16.7C26.8376 16.62 26.9042 16.5267 26.9576 16.42C27.0242 16.3 27.0709 16.18 27.0976 16.06C27.1242 15.9267 27.1376 15.8067 27.1376 15.7V10.26H20.7376V15.7C20.7376 15.8067 20.7509 15.9267 20.7776 16.06C20.8042 16.18 20.8442 16.2933 20.8976 16.4C20.9509 16.5067 21.0109 16.6 21.0776 16.68C21.1576 16.76 21.2509 16.8 21.3576 16.8H21.4576V17H18.6576V16.8H18.7576C18.8509 16.8 18.9376 16.7667 19.0176 16.7C19.0976 16.62 19.1642 16.5267 19.2176 16.42C19.2842 16.3 19.3309 16.18 19.3576 16.06C19.3842 15.9267 19.3976 15.8067 19.3976 15.7V5.04C19.3976 4.94667 19.3842 4.84 19.3576 4.72C19.3309 4.6 19.2909 4.48667 19.2376 4.38C19.1842 4.27333 19.1176 4.18667 19.0376 4.12C18.9576 4.04 18.8642 4 18.7576 4H18.6576V3.8H21.4576V4H21.3576C21.2509 4 21.1576 4.04 21.0776 4.12C20.9976 4.18667 20.9309 4.27333 20.8776 4.38C20.8376 4.48667 20.8042 4.6 20.7776 4.72C20.7509 4.84 20.7376 4.94667 20.7376 5.04V9.56H27.1376V5.04C27.1376 4.94667 27.1242 4.84 27.0976 4.72C27.0709 4.6 27.0309 4.48667 26.9776 4.38C26.9242 4.27333 26.8576 4.18667 26.7776 4.12C26.6976 4.04 26.6042 4 26.4976 4H26.3976V3.8H29.1976V4H29.0976C28.9909 4 28.8976 4.04 28.8176 4.12C28.7376 4.18667 28.6709 4.27333 28.6176 4.38C28.5776 4.48667 28.5442 4.6 28.5176 4.72C28.4909 4.84 28.4776 4.94667 28.4776 5.04V15.7C28.4776 15.8067 28.4909 15.9267 28.5176 16.06C28.5576 16.18 28.6042 16.2933 28.6576 16.4C28.7109 16.5067 28.7709 16.6 28.8376 16.68C28.9176 16.76 29.0042 16.8 29.0976 16.8H29.1976V17H26.3976V16.8Z" fill="#402A0C"></path><path d="M6.79875 73.5V73.3C7.11875 73.3 7.31875 73.2067 7.39875 73.02C7.49208 72.82 7.53875 72.5867 7.53875 72.32V62.74C7.53875 62.6067 7.47208 62.54 7.33875 62.54C7.28542 62.54 7.21208 62.56 7.11875 62.6L4.83875 63.32V62.6L9.49875 60.98V61.52C9.28542 61.6133 9.11208 61.76 8.97875 61.96C8.85875 62.16 8.81208 62.3933 8.83875 62.66V72.24C8.83875 72.52 8.88542 72.7667 8.97875 72.98C9.07208 73.1933 9.28542 73.3 9.61875 73.3V73.5H6.79875ZM20.3427 70.24C20.3427 70.8267 20.2227 71.34 19.9827 71.78C19.756 72.2067 19.4427 72.5667 19.0427 72.86C18.656 73.14 18.2027 73.3533 17.6827 73.5C17.1627 73.6333 16.6093 73.7 16.0227 73.7C15.476 73.7 14.9427 73.6333 14.4227 73.5C13.9027 73.3533 13.436 73.14 13.0227 72.86C12.6093 72.5667 12.276 72.2067 12.0227 71.78C11.7827 71.3533 11.6627 70.8533 11.6627 70.28C11.6627 69.52 11.8893 68.84 12.3427 68.24C12.796 67.6267 13.516 67.1733 14.5027 66.88C13.7427 66.5333 13.1827 66.1333 12.8227 65.68C12.476 65.2133 12.3027 64.6467 12.3027 63.98C12.3027 63.4867 12.4027 63.06 12.6027 62.7C12.816 62.3267 13.0893 62.0133 13.4227 61.76C13.7693 61.5067 14.1627 61.32 14.6027 61.2C15.0427 61.0667 15.4893 61 15.9427 61C16.396 61 16.8427 61.0667 17.2827 61.2C17.736 61.32 18.136 61.5067 18.4827 61.76C18.8293 62.0133 19.1093 62.3333 19.3227 62.72C19.5493 63.0933 19.6627 63.5333 19.6627 64.04C19.6627 64.64 19.4627 65.2 19.0627 65.72C18.6627 66.24 18.1427 66.6333 17.5027 66.9C18.3293 67.14 19.0093 67.54 19.5427 68.1C20.076 68.6467 20.3427 69.36 20.3427 70.24ZM18.5027 64.34C18.5027 63.94 18.416 63.5733 18.2427 63.24C18.0827 62.9067 17.8693 62.6267 17.6027 62.4C17.336 62.16 17.0293 61.98 16.6827 61.86C16.3493 61.7267 16.0093 61.66 15.6627 61.66C15.396 61.66 15.136 61.7 14.8827 61.78C14.6293 61.86 14.4027 61.98 14.2027 62.14C14.0027 62.3 13.836 62.5 13.7027 62.74C13.5827 62.98 13.5227 63.26 13.5227 63.58C13.5227 63.94 13.6093 64.2733 13.7827 64.58C13.956 64.8867 14.1827 65.16 14.4627 65.4C14.756 65.64 15.0827 65.8533 15.4427 66.04C15.816 66.2133 16.1893 66.36 16.5627 66.48C17.1627 66.24 17.636 65.94 17.9827 65.58C18.3293 65.22 18.5027 64.8067 18.5027 64.34ZM19.3427 70.66C19.3427 70.2867 19.2427 69.9333 19.0427 69.6C18.8427 69.2667 18.5627 68.9667 18.2027 68.7C17.8427 68.42 17.4227 68.1733 16.9427 67.96C16.476 67.7333 15.9827 67.54 15.4627 67.38C15.116 67.5 14.7893 67.6467 14.4827 67.82C14.176 67.9933 13.9093 68.1933 13.6827 68.42C13.456 68.6467 13.276 68.8933 13.1427 69.16C13.0093 69.4267 12.9427 69.7133 12.9427 70.02C12.9427 70.42 13.036 70.8 13.2227 71.16C13.4093 71.52 13.656 71.84 13.9627 72.12C14.2693 72.3867 14.6227 72.5933 15.0227 72.74C15.4227 72.8867 15.836 72.96 16.2627 72.96C16.6227 72.96 16.9827 72.9067 17.3427 72.8C17.716 72.68 18.0427 72.5267 18.3227 72.34C18.616 72.14 18.856 71.9 19.0427 71.62C19.2427 71.34 19.3427 71.02 19.3427 70.66Z" fill="#402A0C"></path><path d="M56.9159 73.5V73.3C57.2359 73.3 57.4359 73.2067 57.5159 73.02C57.6093 72.82 57.6559 72.5867 57.6559 72.32V62.74C57.6559 62.6067 57.5893 62.54 57.4559 62.54C57.4026 62.54 57.3293 62.56 57.2359 62.6L54.9559 63.32V62.6L59.6159 60.98V61.52C59.4026 61.6133 59.2293 61.76 59.0959 61.96C58.9759 62.16 58.9293 62.3933 58.9559 62.66V72.24C58.9559 72.52 59.0026 72.7667 59.0959 72.98C59.1893 73.1933 59.4026 73.3 59.7359 73.3V73.5H56.9159ZM66.2998 68.78C66.7798 68.78 67.1998 68.7 67.5598 68.54C67.9198 68.3667 68.2132 68.14 68.4398 67.86C68.6798 67.58 68.8532 67.26 68.9598 66.9C69.0798 66.54 69.1398 66.1667 69.1398 65.78C69.1398 65.3133 69.0665 64.8467 68.9198 64.38C68.7865 63.9133 68.5798 63.5 68.2998 63.14C68.0332 62.7667 67.6998 62.4667 67.2998 62.24C66.9132 62 66.4665 61.88 65.9598 61.88C65.5065 61.88 65.1065 61.9733 64.7598 62.16C64.4265 62.3333 64.1398 62.5733 63.8998 62.88C63.6732 63.1733 63.4998 63.5133 63.3798 63.9C63.2732 64.2867 63.2198 64.68 63.2198 65.08C63.2198 65.5333 63.2865 65.98 63.4198 66.42C63.5665 66.86 63.7665 67.26 64.0198 67.62C64.2865 67.9667 64.6065 68.2467 64.9798 68.46C65.3665 68.6733 65.8065 68.78 66.2998 68.78ZM63.4798 72.08C63.6932 72.3467 63.9465 72.56 64.2398 72.72C64.5465 72.88 64.8332 72.9333 65.0998 72.88C65.6732 72.88 66.1798 72.7467 66.6198 72.48C67.0598 72.2133 67.4332 71.86 67.7398 71.42C68.0598 70.98 68.3065 70.5067 68.4798 70C68.6665 69.48 68.7932 69 68.8598 68.56C68.4732 68.9067 68.0398 69.1467 67.5598 69.28C67.0932 69.4133 66.5932 69.48 66.0598 69.48C65.3798 69.48 64.7798 69.3667 64.2598 69.14C63.7532 68.9 63.3265 68.5933 62.9798 68.22C62.6465 67.8333 62.3932 67.3933 62.2198 66.9C62.0598 66.4067 61.9798 65.9 61.9798 65.38C61.9798 64.86 62.0665 64.3467 62.2398 63.84C62.4132 63.3333 62.6732 62.8867 63.0198 62.5C63.3665 62.1 63.7932 61.78 64.2998 61.54C64.8198 61.3 65.4198 61.18 66.0998 61.18C66.8598 61.18 67.5065 61.32 68.0398 61.6C68.5865 61.88 69.0332 62.26 69.3798 62.74C69.7265 63.2067 69.9798 63.7533 70.1398 64.38C70.3132 65.0067 70.3998 65.66 70.3998 66.34C70.3998 67.22 70.3065 68.1067 70.1198 69C69.9332 69.88 69.6265 70.6733 69.1998 71.38C68.7865 72.0733 68.2332 72.64 67.5398 73.08C66.8598 73.52 66.0265 73.74 65.0398 73.74C64.8532 73.74 64.6198 73.72 64.3398 73.68C64.0598 73.64 63.8398 73.6067 63.6798 73.58C63.5865 73.5667 63.4865 73.5533 63.3798 73.54C63.2865 73.5267 63.2532 73.52 63.2798 73.52V72.08H63.4798Z" fill="#402A0C"></path><path d="M103.841 62.32H104.021C104.088 62.32 104.168 62.2867 104.261 62.22C104.368 62.1533 104.481 62.08 104.601 62C104.734 61.9067 104.888 61.8 105.061 61.68C105.248 61.56 105.454 61.4533 105.681 61.36C105.921 61.2533 106.188 61.1667 106.481 61.1C106.774 61.0333 107.101 61 107.461 61C107.914 61 108.354 61.0667 108.781 61.2C109.208 61.32 109.588 61.5133 109.921 61.78C110.254 62.0333 110.521 62.36 110.721 62.76C110.921 63.16 111.021 63.64 111.021 64.2C111.021 64.6667 110.941 65.0933 110.781 65.48C110.621 65.8667 110.401 66.2267 110.121 66.56C109.854 66.8933 109.548 67.2133 109.201 67.52C108.868 67.8133 108.521 68.1067 108.161 68.4C107.814 68.68 107.474 68.9667 107.141 69.26C106.821 69.5533 106.528 69.86 106.261 70.18C106.008 70.5 105.794 70.8467 105.621 71.22C105.448 71.58 105.348 71.9667 105.321 72.38H109.481C109.988 72.38 110.388 72.2933 110.681 72.12C110.974 71.9333 111.128 71.6333 111.141 71.22H111.321V73.5H103.921C103.921 72.9 104.021 72.3467 104.221 71.84C104.421 71.32 104.681 70.8467 105.001 70.42C105.321 69.98 105.674 69.5733 106.061 69.2C106.461 68.8267 106.854 68.4667 107.241 68.12C107.561 67.84 107.868 67.56 108.161 67.28C108.468 67 108.734 66.72 108.961 66.44C109.201 66.1467 109.388 65.8467 109.521 65.54C109.668 65.22 109.741 64.8867 109.741 64.54C109.741 64.1 109.661 63.7067 109.501 63.36C109.354 63.0133 109.154 62.72 108.901 62.48C108.661 62.24 108.381 62.06 108.061 61.94C107.741 61.8067 107.421 61.74 107.101 61.74C106.421 61.74 105.821 61.9467 105.301 62.36C104.781 62.76 104.361 63.28 104.041 63.92H103.841V62.32ZM112.695 67.3C112.695 66.2733 112.822 65.3667 113.075 64.58C113.342 63.7933 113.688 63.14 114.115 62.62C114.542 62.0867 115.022 61.6867 115.555 61.42C116.102 61.14 116.655 61 117.215 61C117.775 61 118.328 61.14 118.875 61.42C119.422 61.6867 119.902 62.0867 120.315 62.62C120.742 63.14 121.082 63.7933 121.335 64.58C121.602 65.3667 121.735 66.2733 121.735 67.3C121.735 68.34 121.602 69.26 121.335 70.06C121.082 70.8467 120.742 71.5133 120.315 72.06C119.902 72.5933 119.422 73 118.875 73.28C118.328 73.56 117.775 73.7 117.215 73.7C116.655 73.7 116.102 73.56 115.555 73.28C115.022 73 114.542 72.5933 114.115 72.06C113.688 71.5133 113.342 70.8467 113.075 70.06C112.822 69.26 112.695 68.34 112.695 67.3ZM120.475 67.82C120.475 66.86 120.368 66.0133 120.155 65.28C119.942 64.5333 119.662 63.9133 119.315 63.42C118.982 62.9133 118.595 62.5333 118.155 62.28C117.728 62.0133 117.288 61.88 116.835 61.88C116.382 61.88 115.968 62.0133 115.595 62.28C115.235 62.5333 114.928 62.8733 114.675 63.3C114.422 63.7267 114.222 64.22 114.075 64.78C113.942 65.34 113.875 65.9267 113.875 66.54C113.875 67.2733 113.962 68.02 114.135 68.78C114.308 69.5267 114.555 70.2067 114.875 70.82C115.195 71.42 115.575 71.9133 116.015 72.3C116.468 72.6867 116.962 72.88 117.495 72.88C117.882 72.88 118.255 72.7733 118.615 72.56C118.975 72.3333 119.288 72.0067 119.555 71.58C119.835 71.1533 120.055 70.6267 120.215 70C120.388 69.3733 120.475 68.6467 120.475 67.82Z" fill="#402A0C"></path><path d="M155.921 62.32H156.101C156.168 62.32 156.248 62.2867 156.341 62.22C156.448 62.1533 156.561 62.08 156.681 62C156.814 61.9067 156.968 61.8 157.141 61.68C157.328 61.56 157.534 61.4533 157.761 61.36C158.001 61.2533 158.268 61.1667 158.561 61.1C158.854 61.0333 159.181 61 159.541 61C159.994 61 160.434 61.0667 160.861 61.2C161.288 61.32 161.668 61.5133 162.001 61.78C162.334 62.0333 162.601 62.36 162.801 62.76C163.001 63.16 163.101 63.64 163.101 64.2C163.101 64.6667 163.021 65.0933 162.861 65.48C162.701 65.8667 162.481 66.2267 162.201 66.56C161.934 66.8933 161.628 67.2133 161.281 67.52C160.948 67.8133 160.601 68.1067 160.241 68.4C159.894 68.68 159.554 68.9667 159.221 69.26C158.901 69.5533 158.608 69.86 158.341 70.18C158.088 70.5 157.874 70.8467 157.701 71.22C157.528 71.58 157.428 71.9667 157.401 72.38H161.561C162.068 72.38 162.468 72.2933 162.761 72.12C163.054 71.9333 163.208 71.6333 163.221 71.22H163.401V73.5H156.001C156.001 72.9 156.101 72.3467 156.301 71.84C156.501 71.32 156.761 70.8467 157.081 70.42C157.401 69.98 157.754 69.5733 158.141 69.2C158.541 68.8267 158.934 68.4667 159.321 68.12C159.641 67.84 159.948 67.56 160.241 67.28C160.548 67 160.814 66.72 161.041 66.44C161.281 66.1467 161.468 65.8467 161.601 65.54C161.748 65.22 161.821 64.8867 161.821 64.54C161.821 64.1 161.741 63.7067 161.581 63.36C161.434 63.0133 161.234 62.72 160.981 62.48C160.741 62.24 160.461 62.06 160.141 61.94C159.821 61.8067 159.501 61.74 159.181 61.74C158.501 61.74 157.901 61.9467 157.381 62.36C156.861 62.76 156.441 63.28 156.121 63.92H155.921V62.32ZM166.115 73.5V73.3C166.435 73.3 166.635 73.2067 166.715 73.02C166.808 72.82 166.855 72.5867 166.855 72.32V62.74C166.855 62.6067 166.788 62.54 166.655 62.54C166.602 62.54 166.528 62.56 166.435 62.6L164.155 63.32V62.6L168.815 60.98V61.52C168.602 61.6133 168.428 61.76 168.295 61.96C168.175 62.16 168.128 62.3933 168.155 62.66V72.24C168.155 72.52 168.202 72.7667 168.295 72.98C168.388 73.1933 168.602 73.3 168.935 73.3V73.5H166.115Z" fill="#402A0C"></path><path d="M204.886 62.32H205.066C205.132 62.32 205.212 62.2867 205.306 62.22C205.412 62.1533 205.526 62.08 205.646 62C205.779 61.9067 205.932 61.8 206.106 61.68C206.292 61.56 206.499 61.4533 206.726 61.36C206.966 61.2533 207.232 61.1667 207.526 61.1C207.819 61.0333 208.146 61 208.506 61C208.959 61 209.399 61.0667 209.826 61.2C210.252 61.32 210.632 61.5133 210.966 61.78C211.299 62.0333 211.566 62.36 211.766 62.76C211.966 63.16 212.066 63.64 212.066 64.2C212.066 64.6667 211.986 65.0933 211.826 65.48C211.666 65.8667 211.446 66.2267 211.166 66.56C210.899 66.8933 210.592 67.2133 210.246 67.52C209.912 67.8133 209.566 68.1067 209.206 68.4C208.859 68.68 208.519 68.9667 208.186 69.26C207.866 69.5533 207.572 69.86 207.306 70.18C207.052 70.5 206.839 70.8467 206.666 71.22C206.492 71.58 206.392 71.9667 206.366 72.38H210.526C211.032 72.38 211.432 72.2933 211.726 72.12C212.019 71.9333 212.172 71.6333 212.186 71.22H212.366V73.5H204.966C204.966 72.9 205.066 72.3467 205.266 71.84C205.466 71.32 205.726 70.8467 206.046 70.42C206.366 69.98 206.719 69.5733 207.106 69.2C207.506 68.8267 207.899 68.4667 208.286 68.12C208.606 67.84 208.912 67.56 209.206 67.28C209.512 67 209.779 66.72 210.006 66.44C210.246 66.1467 210.432 65.8467 210.566 65.54C210.712 65.22 210.786 64.8867 210.786 64.54C210.786 64.1 210.706 63.7067 210.546 63.36C210.399 63.0133 210.199 62.72 209.946 62.48C209.706 62.24 209.426 62.06 209.106 61.94C208.786 61.8067 208.466 61.74 208.146 61.74C207.466 61.74 206.866 61.9467 206.346 62.36C205.826 62.76 205.406 63.28 205.086 63.92H204.886V62.32ZM213.46 62.32H213.64C213.707 62.32 213.787 62.2867 213.88 62.22C213.987 62.1533 214.1 62.08 214.22 62C214.353 61.9067 214.507 61.8 214.68 61.68C214.867 61.56 215.073 61.4533 215.3 61.36C215.54 61.2533 215.807 61.1667 216.1 61.1C216.393 61.0333 216.72 61 217.08 61C217.533 61 217.973 61.0667 218.4 61.2C218.827 61.32 219.207 61.5133 219.54 61.78C219.873 62.0333 220.14 62.36 220.34 62.76C220.54 63.16 220.64 63.64 220.64 64.2C220.64 64.6667 220.56 65.0933 220.4 65.48C220.24 65.8667 220.02 66.2267 219.74 66.56C219.473 66.8933 219.167 67.2133 218.82 67.52C218.487 67.8133 218.14 68.1067 217.78 68.4C217.433 68.68 217.093 68.9667 216.76 69.26C216.44 69.5533 216.147 69.86 215.88 70.18C215.627 70.5 215.413 70.8467 215.24 71.22C215.067 71.58 214.967 71.9667 214.94 72.38H219.1C219.607 72.38 220.007 72.2933 220.3 72.12C220.593 71.9333 220.747 71.6333 220.76 71.22H220.94V73.5H213.54C213.54 72.9 213.64 72.3467 213.84 71.84C214.04 71.32 214.3 70.8467 214.62 70.42C214.94 69.98 215.293 69.5733 215.68 69.2C216.08 68.8267 216.473 68.4667 216.86 68.12C217.18 67.84 217.487 67.56 217.78 67.28C218.087 67 218.353 66.72 218.58 66.44C218.82 66.1467 219.007 65.8467 219.14 65.54C219.287 65.22 219.36 64.8867 219.36 64.54C219.36 64.1 219.28 63.7067 219.12 63.36C218.973 63.0133 218.773 62.72 218.52 62.48C218.28 62.24 218 62.06 217.68 61.94C217.36 61.8067 217.04 61.74 216.72 61.74C216.04 61.74 215.44 61.9467 214.92 62.36C214.4 62.76 213.98 63.28 213.66 63.92H213.46V62.32Z" fill="#402A0C"></path><path d="M254.925 62.32H255.105C255.172 62.32 255.252 62.2867 255.345 62.22C255.452 62.1533 255.565 62.08 255.685 62C255.818 61.9067 255.972 61.8 256.145 61.68C256.332 61.56 256.538 61.4533 256.765 61.36C257.005 61.2533 257.272 61.1667 257.565 61.1C257.858 61.0333 258.185 61 258.545 61C258.998 61 259.438 61.0667 259.865 61.2C260.292 61.32 260.672 61.5133 261.005 61.78C261.338 62.0333 261.605 62.36 261.805 62.76C262.005 63.16 262.105 63.64 262.105 64.2C262.105 64.6667 262.025 65.0933 261.865 65.48C261.705 65.8667 261.485 66.2267 261.205 66.56C260.938 66.8933 260.632 67.2133 260.285 67.52C259.952 67.8133 259.605 68.1067 259.245 68.4C258.898 68.68 258.558 68.9667 258.225 69.26C257.905 69.5533 257.612 69.86 257.345 70.18C257.092 70.5 256.878 70.8467 256.705 71.22C256.532 71.58 256.432 71.9667 256.405 72.38H260.565C261.072 72.38 261.472 72.2933 261.765 72.12C262.058 71.9333 262.212 71.6333 262.225 71.22H262.405V73.5H255.005C255.005 72.9 255.105 72.3467 255.305 71.84C255.505 71.32 255.765 70.8467 256.085 70.42C256.405 69.98 256.758 69.5733 257.145 69.2C257.545 68.8267 257.938 68.4667 258.325 68.12C258.645 67.84 258.952 67.56 259.245 67.28C259.552 67 259.818 66.72 260.045 66.44C260.285 66.1467 260.472 65.8467 260.605 65.54C260.752 65.22 260.825 64.8867 260.825 64.54C260.825 64.1 260.745 63.7067 260.585 63.36C260.438 63.0133 260.238 62.72 259.985 62.48C259.745 62.24 259.465 62.06 259.145 61.94C258.825 61.8067 258.505 61.74 258.185 61.74C257.505 61.74 256.905 61.9467 256.385 62.36C255.865 62.76 255.445 63.28 255.125 63.92H254.925V62.32ZM263.599 61.58H263.779C263.886 61.58 263.999 61.56 264.119 61.52C264.239 61.48 264.372 61.4333 264.519 61.38C264.746 61.3 265.019 61.22 265.339 61.14C265.659 61.0467 266.052 61 266.519 61C267.052 61 267.526 61.08 267.939 61.24C268.366 61.3867 268.719 61.5933 268.999 61.86C269.292 62.1133 269.512 62.4133 269.659 62.76C269.819 63.1067 269.899 63.4667 269.899 63.84C269.899 64.36 269.739 64.86 269.419 65.34C269.112 65.82 268.632 66.2067 267.979 66.5C268.899 66.7667 269.586 67.1933 270.039 67.78C270.492 68.3667 270.719 69.0333 270.719 69.78C270.719 70.34 270.612 70.86 270.399 71.34C270.199 71.8067 269.899 72.22 269.499 72.58C269.112 72.9267 268.646 73.2 268.099 73.4C267.552 73.6 266.939 73.7 266.259 73.7C265.752 73.7 265.332 73.6533 264.999 73.56C264.666 73.4667 264.386 73.38 264.159 73.3C264.012 73.2467 263.879 73.2067 263.759 73.18C263.639 73.14 263.519 73.12 263.399 73.12H263.219V71.58H263.419C263.766 72.06 264.192 72.4267 264.699 72.68C265.219 72.92 265.752 73.04 266.299 73.04C266.779 73.04 267.212 72.96 267.599 72.8C267.986 72.6267 268.312 72.4 268.579 72.12C268.859 71.84 269.066 71.52 269.199 71.16C269.346 70.8 269.419 70.4267 269.419 70.04C269.419 69.64 269.339 69.2533 269.179 68.88C269.019 68.4933 268.792 68.1533 268.499 67.86C268.206 67.5667 267.846 67.3333 267.419 67.16C267.006 66.9867 266.532 66.9 265.999 66.9H265.079V66.24H266.099C266.512 66.24 266.872 66.1733 267.179 66.04C267.499 65.9067 267.766 65.7267 267.979 65.5C268.192 65.2733 268.352 65.02 268.459 64.74C268.566 64.46 268.619 64.1667 268.619 63.86C268.619 63.58 268.566 63.3067 268.459 63.04C268.366 62.7733 268.219 62.54 268.019 62.34C267.819 62.1267 267.572 61.9533 267.279 61.82C266.999 61.6867 266.672 61.62 266.299 61.62C265.846 61.62 265.392 61.7467 264.939 62C264.486 62.2533 264.106 62.6333 263.799 63.14H263.599V61.58Z" fill="#402A0C"></path><path d="M304.974 62.32H305.154C305.22 62.32 305.3 62.2867 305.394 62.22C305.5 62.1533 305.614 62.08 305.734 62C305.867 61.9067 306.02 61.8 306.194 61.68C306.38 61.56 306.587 61.4533 306.814 61.36C307.054 61.2533 307.32 61.1667 307.614 61.1C307.907 61.0333 308.234 61 308.594 61C309.047 61 309.487 61.0667 309.914 61.2C310.34 61.32 310.72 61.5133 311.054 61.78C311.387 62.0333 311.654 62.36 311.854 62.76C312.054 63.16 312.154 63.64 312.154 64.2C312.154 64.6667 312.074 65.0933 311.914 65.48C311.754 65.8667 311.534 66.2267 311.254 66.56C310.987 66.8933 310.68 67.2133 310.334 67.52C310 67.8133 309.654 68.1067 309.294 68.4C308.947 68.68 308.607 68.9667 308.274 69.26C307.954 69.5533 307.66 69.86 307.394 70.18C307.14 70.5 306.927 70.8467 306.754 71.22C306.58 71.58 306.48 71.9667 306.454 72.38H310.614C311.12 72.38 311.52 72.2933 311.814 72.12C312.107 71.9333 312.26 71.6333 312.274 71.22H312.454V73.5H305.054C305.054 72.9 305.154 72.3467 305.354 71.84C305.554 71.32 305.814 70.8467 306.134 70.42C306.454 69.98 306.807 69.5733 307.194 69.2C307.594 68.8267 307.987 68.4667 308.374 68.12C308.694 67.84 309 67.56 309.294 67.28C309.6 67 309.867 66.72 310.094 66.44C310.334 66.1467 310.52 65.8467 310.654 65.54C310.8 65.22 310.874 64.8867 310.874 64.54C310.874 64.1 310.794 63.7067 310.634 63.36C310.487 63.0133 310.287 62.72 310.034 62.48C309.794 62.24 309.514 62.06 309.194 61.94C308.874 61.8067 308.554 61.74 308.234 61.74C307.554 61.74 306.954 61.9467 306.434 62.36C305.914 62.76 305.494 63.28 305.174 63.92H304.974V62.32ZM317.868 73.5V73.3C318.055 73.3 318.195 73.2733 318.288 73.22C318.395 73.1533 318.468 73.0733 318.508 72.98C318.561 72.8733 318.588 72.76 318.588 72.64C318.601 72.5067 318.608 72.3733 318.608 72.24V70.28H313.148L319.908 60.7V69.28H321.128V70.28H319.908V72.24C319.908 72.5067 319.955 72.7533 320.048 72.98C320.155 73.1933 320.368 73.3 320.688 73.3V73.5H317.868ZM318.608 63.68C317.941 64.6267 317.275 65.56 316.608 66.48C315.955 67.4 315.295 68.3333 314.628 69.28H318.608V63.68Z" fill="#402A0C"></path></svg> 