<?xml version="1.0" encoding="UTF-8"?> <svg xmlns="http://www.w3.org/2000/svg" width="158" height="47" viewBox="0 0 158 47" fill="none"><path d="M13.9261 0.521795C14.1928 0.255128 14.4728 0.188462 14.7661 0.321795C15.0594 0.428462 15.2728 0.695129 15.4061 1.1218C15.5661 1.81513 15.6461 3.13513 15.6461 5.0818C15.6461 6.2818 15.6861 7.10846 15.7661 7.5618C15.8461 8.01513 16.0061 8.29513 16.2461 8.4018C16.6461 8.53513 16.8328 8.81513 16.8061 9.2418C16.8061 9.66846 16.6194 9.9618 16.2461 10.1218C15.9794 10.2018 15.8061 10.4685 15.7261 10.9218C15.6728 11.3751 15.6728 12.2951 15.7261 13.6818C15.7528 14.5351 15.7394 15.2418 15.6861 15.8018C15.6594 16.3618 15.5928 16.8151 15.4861 17.1618C15.3794 17.4818 15.2328 17.6818 15.0461 17.7618C14.8594 17.8418 14.6194 17.8285 14.3261 17.7218C13.9261 17.5618 13.6328 16.2151 13.4461 13.6818L13.1661 9.8418H10.6861C9.13943 9.8418 7.83276 9.9218 6.76609 10.0818L5.24609 10.3618V13.8818C5.24609 15.2151 5.19276 16.1751 5.08609 16.7618C5.00609 17.3485 4.84609 17.7751 4.60609 18.0418C3.80609 18.8418 3.27276 18.5751 3.00609 17.2418C2.89943 16.7351 2.84609 16.0951 2.84609 15.3218C2.84609 14.3085 2.77943 13.6018 2.64609 13.2018C2.53943 12.8018 2.27276 12.4018 1.84609 12.0018C1.17943 11.4151 0.859427 10.8951 0.886094 10.4418C0.912761 9.98846 1.29943 9.54846 2.04609 9.1218C2.63276 8.77513 2.97943 8.42846 3.08609 8.0818C3.19276 7.73513 3.24609 6.69513 3.24609 4.9618C3.24609 4.02846 3.28609 3.18846 3.36609 2.4418C3.44609 1.69513 3.53943 1.29513 3.64609 1.2418C3.91276 1.0818 4.16609 1.33513 4.40609 2.0018C4.69943 2.8018 4.84609 3.78846 4.84609 4.9618C4.84609 6.1618 4.95276 6.9218 5.16609 7.2418C5.24609 7.34846 5.68609 7.4418 6.48609 7.5218C7.31276 7.6018 8.25943 7.6418 9.32609 7.6418H13.1661L13.4061 6.2418C13.5661 5.22846 13.6461 4.0818 13.6461 2.8018C13.6461 1.41513 13.7394 0.65513 13.9261 0.521795ZM25.3448 4.5218C27.5048 3.45513 29.3448 3.57513 30.8648 4.8818C31.6382 5.5218 32.0515 6.26846 32.1048 7.1218C32.1848 7.97513 31.8915 8.70846 31.2248 9.3218C30.8248 9.69513 29.8782 10.1485 28.3848 10.6818C26.8915 11.1885 25.3048 11.6285 23.6248 12.0018C23.1715 12.1085 22.8648 12.2551 22.7048 12.4418C22.5715 12.6285 22.5048 12.9618 22.5048 13.4418C22.5048 13.9751 22.5715 14.3085 22.7048 14.4418C22.8648 14.5751 23.2382 14.6418 23.8248 14.6418C24.7582 14.6418 26.1848 14.4551 28.1048 14.0818C29.6248 13.7885 30.6648 13.6951 31.2248 13.8018C31.8115 13.9085 32.1048 14.2685 32.1048 14.8818C32.1048 15.6551 29.8915 16.1885 25.4648 16.4818C23.2248 16.6418 21.7715 16.5885 21.1048 16.3218C20.4382 16.0285 20.1048 15.3485 20.1048 14.2818C20.1048 12.4685 20.6382 10.5618 21.7048 8.5618C22.7982 6.53513 24.0115 5.18846 25.3448 4.5218ZM29.6248 6.3218C29.0648 5.7618 28.0782 5.78846 26.6648 6.4018C26.0782 6.66846 25.3982 7.22846 24.6248 8.0818C23.8782 8.93513 23.6115 9.46846 23.8248 9.6818C23.9315 9.81513 24.6515 9.7218 25.9848 9.4018C27.3182 9.05513 28.3315 8.70846 29.0248 8.3618C30.1982 7.74846 30.3982 7.06846 29.6248 6.3218ZM40.2973 4.0418C41.1507 3.6418 41.8307 3.4418 42.3373 3.4418C42.9507 3.4418 43.5907 3.74846 44.2573 4.3618C44.9507 4.94846 45.2973 5.50846 45.2973 6.0418C45.2973 6.62846 45.0973 7.0018 44.6973 7.1618C44.2973 7.3218 43.964 7.14846 43.6973 6.6418C43.1907 5.73513 42.3773 5.5618 41.2573 6.1218C40.164 6.6818 39.244 7.7218 38.4973 9.2418C37.964 10.3351 37.7373 11.4951 37.8173 12.7218C37.924 13.9218 38.284 14.6951 38.8973 15.0418C39.4307 15.3351 40.5107 15.4685 42.1373 15.4418C43.764 15.4151 44.804 15.2551 45.2573 14.9618C45.7373 14.6685 46.1907 14.6151 46.6173 14.8018C47.0707 14.9618 47.2973 15.2951 47.2973 15.8018C47.2973 17.4285 44.844 18.1351 39.9373 17.9218C38.924 17.8685 37.9773 17.4151 37.0973 16.5618C36.244 15.7085 35.7107 14.7085 35.4973 13.5618C35.2307 11.8551 35.5773 10.0418 36.5373 8.1218C37.4973 6.17513 38.7507 4.81513 40.2973 4.0418ZM53.9336 3.8018C53.9336 3.69513 54.0003 3.61513 54.1336 3.5618C54.2936 3.4818 54.4803 3.46846 54.6936 3.5218C54.9336 3.57513 55.1069 3.77513 55.2136 4.1218C55.3469 4.4418 55.4403 5.0418 55.4936 5.9218L55.6136 8.2018L58.8536 6.0018C60.9603 4.5618 62.1869 3.8818 62.5336 3.9618C63.6536 4.3618 62.8669 5.45513 60.1736 7.2418C59.3469 7.77513 58.6403 8.26846 58.0536 8.7218C57.4936 9.17513 57.2269 9.4418 57.2536 9.5218C57.3336 9.70846 58.3736 10.6951 60.3736 12.4818C62.0003 13.9485 63.0136 14.9485 63.4136 15.4818C63.8403 15.9885 63.9736 16.4551 63.8136 16.8818C63.5203 17.6285 62.7336 17.5085 61.4536 16.5218C60.8403 16.0418 60.0269 15.3085 59.0136 14.3218L55.7736 11.2418L55.6536 13.9218C55.5736 15.3085 55.3869 16.2551 55.0936 16.7618C54.8003 17.2685 54.3736 17.4151 53.8136 17.2018C53.5469 17.0951 53.3736 16.7885 53.2936 16.2818C53.2136 15.7751 53.1736 14.7618 53.1736 13.2418V9.5218L52.0136 9.0418C51.2936 8.77513 50.8403 8.45513 50.6536 8.0818C50.4669 7.70846 50.5469 7.42846 50.8936 7.2418C51.2669 7.02846 51.8269 7.01513 52.5736 7.2018C53.0003 7.30846 53.2669 7.30846 53.3736 7.2018C53.5069 7.09513 53.5869 6.77513 53.6136 6.2418C53.6403 5.46846 53.6936 4.93513 53.7736 4.6418C53.7736 4.5618 53.7869 4.42846 53.8136 4.2418C53.8669 4.02846 53.9069 3.8818 53.9336 3.8018ZM68.4952 3.6018C69.1085 3.01513 69.6018 2.6418 69.9752 2.4818C70.3752 2.3218 71.0152 2.2418 71.8952 2.2418C74.0818 2.2418 75.7352 2.8818 76.8552 4.1618C77.2285 4.5618 77.5218 4.74846 77.7352 4.7218C77.9485 4.66846 78.4685 4.33513 79.2952 3.7218C79.3485 3.66846 79.3885 3.62846 79.4152 3.6018C81.8418 1.7618 83.8952 1.69513 85.5752 3.4018C87.2018 5.05513 87.1752 7.3218 85.4952 10.2018C84.2685 12.3085 82.6418 14.1351 80.6152 15.6818C78.5885 17.2018 77.0285 17.7618 75.9352 17.3618C75.0285 17.0151 73.6418 15.9351 71.7752 14.1218C69.9352 12.2818 68.7352 10.8285 68.1752 9.7618C67.4552 8.29513 67.1218 7.10846 67.1752 6.2018C67.2285 5.29513 67.6685 4.42846 68.4952 3.6018ZM74.1352 4.7218C73.5218 4.42846 72.7618 4.2818 71.8552 4.2818C70.9752 4.25513 70.3085 4.38846 69.8552 4.6818C69.3752 4.94846 69.1485 5.58846 69.1752 6.6018C69.2018 7.58846 69.4552 8.49513 69.9352 9.3218C70.2552 9.85513 71.4152 11.0151 73.4152 12.8018C75.4152 14.5885 76.6552 15.5751 77.1352 15.7618C77.3485 15.8418 78.4552 14.9085 80.4552 12.9618C82.8818 10.6151 84.2818 8.58846 84.6552 6.8818C84.9218 5.65513 84.4818 5.0418 83.3352 5.0418C82.6952 5.0418 82.0018 5.2418 81.2552 5.6418C80.5085 6.01513 79.8152 6.53513 79.1752 7.2018C78.5085 7.9218 77.9218 8.25513 77.4152 8.2018C76.9352 8.1218 76.4552 7.62846 75.9752 6.7218C75.7618 6.29513 75.4818 5.89513 75.1352 5.5218C74.7885 5.1218 74.4552 4.85513 74.1352 4.7218ZM95.7458 3.1218C96.3058 2.50846 96.9724 2.2418 97.7458 2.3218C98.5458 2.4018 99.2124 2.78846 99.7458 3.4818C100.199 4.1218 100.679 5.49513 101.186 7.6018C101.719 9.6818 102.079 11.6951 102.266 13.6418C102.372 14.8151 102.399 15.6151 102.346 16.0418C102.292 16.4685 102.132 16.7885 101.866 17.0018C101.199 17.5351 100.679 17.2818 100.306 16.2418C100.012 15.4418 99.7191 13.9751 99.4258 11.8418C98.7324 6.77513 98.1191 4.2418 97.5858 4.2418C97.0524 4.2418 96.0658 6.10846 94.6258 9.8418C92.7858 14.6418 91.4524 17.0418 90.6258 17.0418C89.8791 17.0418 89.9324 16.2018 90.7858 14.5218C90.8391 14.4151 90.9058 14.3085 90.9858 14.2018C91.5991 13.1351 92.4124 11.1485 93.4258 8.2418C93.8258 7.09513 94.2524 6.02846 94.7058 5.0418C95.1591 4.02846 95.5058 3.38846 95.7458 3.1218ZM106.932 5.1618C107.572 4.38846 107.905 4.70846 107.932 6.1218C107.958 6.62846 107.932 7.2818 107.852 8.0818L107.572 11.0018L109.092 10.2018C110.772 9.37513 112.412 9.21513 114.012 9.7218C115.612 10.2285 116.425 11.1751 116.452 12.5618C116.452 13.6818 115.772 14.7751 114.412 15.8418C113.078 16.9085 111.705 17.4418 110.292 17.4418C109.358 17.4418 108.358 16.9218 107.292 15.8818C106.492 15.1351 106.012 14.5751 105.852 14.2018C105.718 13.8018 105.652 12.9885 105.652 11.7618C105.678 10.3751 105.812 9.02846 106.052 7.7218C106.292 6.41513 106.585 5.5618 106.932 5.1618ZM114.012 11.8018C113.078 11.2151 111.652 11.3618 109.732 12.2418C108.852 12.6418 108.372 12.9751 108.292 13.2418C108.238 13.5085 108.532 14.0018 109.172 14.7218C109.972 15.6285 111.158 15.6151 112.732 14.6818C113.452 14.2285 113.945 13.7085 114.212 13.1218C114.478 12.5085 114.412 12.0685 114.012 11.8018ZM123.074 3.8018C123.074 3.69513 123.141 3.61513 123.274 3.5618C123.434 3.4818 123.621 3.46846 123.834 3.5218C124.074 3.57513 124.248 3.77513 124.354 4.1218C124.488 4.4418 124.581 5.0418 124.634 5.9218L124.754 8.2018L127.994 6.0018C130.101 4.5618 131.328 3.8818 131.674 3.9618C132.794 4.3618 132.008 5.45513 129.314 7.2418C128.488 7.77513 127.781 8.26846 127.194 8.7218C126.634 9.17513 126.368 9.4418 126.394 9.5218C126.474 9.70846 127.514 10.6951 129.514 12.4818C131.141 13.9485 132.154 14.9485 132.554 15.4818C132.981 15.9885 133.114 16.4551 132.954 16.8818C132.661 17.6285 131.874 17.5085 130.594 16.5218C129.981 16.0418 129.168 15.3085 128.154 14.3218L124.914 11.2418L124.794 13.9218C124.714 15.3085 124.528 16.2551 124.234 16.7618C123.941 17.2685 123.514 17.4151 122.954 17.2018C122.688 17.0951 122.514 16.7885 122.434 16.2818C122.354 15.7751 122.314 14.7618 122.314 13.2418V9.5218L121.154 9.0418C120.434 8.77513 119.981 8.45513 119.794 8.0818C119.608 7.70846 119.688 7.42846 120.034 7.2418C120.408 7.02846 120.968 7.01513 121.714 7.2018C122.141 7.30846 122.408 7.30846 122.514 7.2018C122.648 7.09513 122.728 6.77513 122.754 6.2418C122.781 5.46846 122.834 4.93513 122.914 4.6418C122.914 4.5618 122.928 4.42846 122.954 4.2418C123.008 4.02846 123.048 3.8818 123.074 3.8018ZM137.636 3.6018C138.249 3.01513 138.742 2.6418 139.116 2.4818C139.516 2.3218 140.156 2.2418 141.036 2.2418C143.222 2.2418 144.876 2.8818 145.996 4.1618C146.369 4.5618 146.662 4.74846 146.876 4.7218C147.089 4.66846 147.609 4.33513 148.436 3.7218C148.489 3.66846 148.529 3.62846 148.556 3.6018C150.982 1.7618 153.036 1.69513 154.716 3.4018C156.342 5.05513 156.316 7.3218 154.636 10.2018C153.409 12.3085 151.782 14.1351 149.756 15.6818C147.729 17.2018 146.169 17.7618 145.076 17.3618C144.169 17.0151 142.782 15.9351 140.916 14.1218C139.076 12.2818 137.876 10.8285 137.316 9.7618C136.596 8.29513 136.262 7.10846 136.316 6.2018C136.369 5.29513 136.809 4.42846 137.636 3.6018ZM143.276 4.7218C142.662 4.42846 141.902 4.2818 140.996 4.2818C140.116 4.25513 139.449 4.38846 138.996 4.6818C138.516 4.94846 138.289 5.58846 138.316 6.6018C138.342 7.58846 138.596 8.49513 139.076 9.3218C139.396 9.85513 140.556 11.0151 142.556 12.8018C144.556 14.5885 145.796 15.5751 146.276 15.7618C146.489 15.8418 147.596 14.9085 149.596 12.9618C152.022 10.6151 153.422 8.58846 153.796 6.8818C154.062 5.65513 153.622 5.0418 152.476 5.0418C151.836 5.0418 151.142 5.2418 150.396 5.6418C149.649 6.01513 148.956 6.53513 148.316 7.2018C147.649 7.9218 147.062 8.25513 146.556 8.2018C146.076 8.1218 145.596 7.62846 145.116 6.7218C144.902 6.29513 144.622 5.89513 144.276 5.5218C143.929 5.1218 143.596 4.85513 143.276 4.7218ZM42.5414 28.0018C43.3414 27.8151 44.2747 27.7751 45.3414 27.8818C46.4347 27.9885 47.2481 28.1885 47.7814 28.4818C48.6347 28.9351 49.1947 29.6551 49.4614 30.6418C49.7547 31.6285 49.9547 33.5485 50.0614 36.4018C50.1414 38.7485 50.1414 40.2818 50.0614 41.0018C50.0081 41.6951 49.8481 42.1618 49.5814 42.4018C48.8881 42.9885 48.4214 42.9885 48.1814 42.4018C47.9147 41.7351 47.7414 39.9085 47.6614 36.9218C47.6347 35.9618 47.6081 35.2285 47.5814 34.7218C47.5814 34.1885 47.5547 33.6418 47.5014 33.0818C47.4481 32.4951 47.3947 32.0818 47.3414 31.8418C47.2881 31.5751 47.1947 31.2951 47.0614 31.0018C46.9281 30.7085 46.7947 30.5218 46.6614 30.4418C46.5547 30.3618 46.3681 30.2818 46.1014 30.2018C45.8347 30.0951 45.5814 30.0418 45.3414 30.0418C45.1014 30.0418 44.7547 30.0418 44.3014 30.0418C43.4747 30.0418 42.8481 30.1085 42.4214 30.2418C41.9947 30.3485 41.6214 30.5618 41.3014 30.8818C40.9014 31.2818 40.6614 31.7885 40.5814 32.4018C40.5281 32.9885 40.5281 34.5085 40.5814 36.9618C40.6881 40.4285 40.5814 42.2151 40.2614 42.3218C39.3814 42.6151 38.8481 40.4951 38.6614 35.9618C38.5547 33.8818 38.5814 32.3485 38.7414 31.3618C38.9281 30.3751 39.2881 29.6418 39.8214 29.1618C40.3814 28.6551 41.2881 28.2685 42.5414 28.0018ZM57.5452 28.6418C58.1318 28.2151 59.2918 28.0418 61.0252 28.1218C62.1452 28.2018 62.9052 28.3218 63.3052 28.4818C63.7318 28.6418 64.1985 29.0018 64.7052 29.5618C65.2118 30.1485 65.5318 30.6551 65.6652 31.0818C65.7985 31.5085 65.8652 32.2951 65.8652 33.4418C65.8652 36.0018 65.2652 37.9485 64.0652 39.2818C62.8652 40.5885 61.1318 41.2418 58.8652 41.2418H57.0652V43.4018C57.0652 44.7351 56.9718 45.6418 56.7852 46.1218C56.6252 46.6018 56.3185 46.8418 55.8652 46.8418C55.3852 46.8418 55.0652 46.5885 54.9052 46.0818C54.7452 45.5751 54.6652 44.5618 54.6652 43.0418C54.6652 41.4151 54.4652 40.4151 54.0652 40.0418C53.5852 39.6685 53.3718 39.0418 53.4252 38.1618C53.4518 37.6018 53.6118 37.3218 53.9052 37.3218C53.9318 37.3485 53.9718 37.3618 54.0252 37.3618C54.4252 37.5218 54.7185 36.6818 54.9052 34.8418C55.0118 33.9885 55.0652 33.0018 55.0652 31.8818C55.0652 29.8018 55.3718 28.8151 55.9852 28.9218C56.0652 28.9218 56.1452 28.9485 56.2252 29.0018C56.5185 29.1885 56.9585 29.0685 57.5452 28.6418ZM62.5852 30.6818C61.8652 30.1751 60.9985 29.9618 59.9852 30.0418C58.9985 30.1218 58.2252 30.4551 57.6652 31.0418C57.1852 31.4685 56.8918 31.9218 56.7852 32.4018C56.7052 32.8551 56.6652 33.8685 56.6652 35.4418V38.8418H58.2252C60.0918 38.8418 61.4252 38.4151 62.2252 37.5618C63.0518 36.7085 63.4652 35.2818 63.4652 33.2818C63.4652 32.4818 63.3985 31.9085 63.2652 31.5618C63.1585 31.2151 62.9318 30.9218 62.5852 30.6818ZM70.4483 28.6018C71.0616 28.0151 71.5549 27.6418 71.9283 27.4818C72.3283 27.3218 72.9683 27.2418 73.8483 27.2418C76.0349 27.2418 77.6883 27.8818 78.8083 29.1618C79.1816 29.5618 79.4749 29.7485 79.6883 29.7218C79.9016 29.6685 80.4216 29.3351 81.2483 28.7218C81.3016 28.6685 81.3416 28.6285 81.3683 28.6018C83.7949 26.7618 85.8483 26.6951 87.5283 28.4018C89.1549 30.0551 89.1283 32.3218 87.4483 35.2018C86.2216 37.3085 84.5949 39.1351 82.5683 40.6818C80.5416 42.2018 78.9816 42.7618 77.8883 42.3618C76.9816 42.0151 75.5949 40.9351 73.7283 39.1218C71.8883 37.2818 70.6883 35.8285 70.1283 34.7618C69.4083 33.2951 69.0749 32.1085 69.1283 31.2018C69.1816 30.2951 69.6216 29.4285 70.4483 28.6018ZM76.0883 29.7218C75.4749 29.4285 74.7149 29.2818 73.8083 29.2818C72.9283 29.2551 72.2616 29.3885 71.8083 29.6818C71.3283 29.9485 71.1016 30.5885 71.1283 31.6018C71.1549 32.5885 71.4083 33.4951 71.8883 34.3218C72.2083 34.8551 73.3683 36.0151 75.3683 37.8018C77.3683 39.5885 78.6083 40.5751 79.0883 40.7618C79.3016 40.8418 80.4083 39.9085 82.4083 37.9618C84.8349 35.6151 86.2349 33.5885 86.6083 31.8818C86.8749 30.6551 86.4349 30.0418 85.2883 30.0418C84.6483 30.0418 83.9549 30.2418 83.2083 30.6418C82.4616 31.0151 81.7683 31.5351 81.1283 32.2018C80.4616 32.9218 79.8749 33.2551 79.3683 33.2018C78.8883 33.1218 78.4083 32.6285 77.9283 31.7218C77.7149 31.2951 77.4349 30.8951 77.0883 30.5218C76.7416 30.1218 76.4083 29.8551 76.0883 29.7218ZM96.8989 29.0418C97.7522 28.6418 98.4322 28.4418 98.9389 28.4418C99.5522 28.4418 100.192 28.7485 100.859 29.3618C101.552 29.9485 101.899 30.5085 101.899 31.0418C101.899 31.6285 101.699 32.0018 101.299 32.1618C100.899 32.3218 100.566 32.1485 100.299 31.6418C99.7922 30.7351 98.9789 30.5618 97.8589 31.1218C96.7656 31.6818 95.8456 32.7218 95.0989 34.2418C94.5656 35.3351 94.3389 36.4951 94.4189 37.7218C94.5256 38.9218 94.8856 39.6951 95.4989 40.0418C96.0322 40.3351 97.1122 40.4685 98.7389 40.4418C100.366 40.4151 101.406 40.2551 101.859 39.9618C102.339 39.6685 102.792 39.6151 103.219 39.8018C103.672 39.9618 103.899 40.2951 103.899 40.8018C103.899 42.4285 101.446 43.1351 96.5389 42.9218C95.5256 42.8685 94.5789 42.4151 93.6989 41.5618C92.8456 40.7085 92.3122 39.7085 92.0989 38.5618C91.8322 36.8551 92.1789 35.0418 93.1389 33.1218C94.0989 31.1751 95.3522 29.8151 96.8989 29.0418ZM108.455 30.1618C109.095 29.3885 109.428 29.7085 109.455 31.1218C109.482 31.6285 109.455 32.2818 109.375 33.0818L109.095 36.0018L110.615 35.2018C112.295 34.3751 113.935 34.2151 115.535 34.7218C117.135 35.2285 117.948 36.1751 117.975 37.5618C117.975 38.6818 117.295 39.7751 115.935 40.8418C114.602 41.9085 113.228 42.4418 111.815 42.4418C110.882 42.4418 109.882 41.9218 108.815 40.8818C108.015 40.1351 107.535 39.5751 107.375 39.2018C107.242 38.8018 107.175 37.9885 107.175 36.7618C107.202 35.3751 107.335 34.0285 107.575 32.7218C107.815 31.4151 108.108 30.5618 108.455 30.1618ZM115.535 36.8018C114.602 36.2151 113.175 36.3618 111.255 37.2418C110.375 37.6418 109.895 37.9751 109.815 38.2418C109.762 38.5085 110.055 39.0018 110.695 39.7218C111.495 40.6285 112.682 40.6151 114.255 39.6818C114.975 39.2285 115.468 38.7085 115.735 38.1218C116.002 37.5085 115.935 37.0685 115.535 36.8018ZM129.438 24.2418C130.851 23.8951 131.771 23.7618 132.198 23.8418C132.624 23.8951 132.838 24.2151 132.838 24.8018C132.838 25.2285 132.678 25.5351 132.358 25.7218C132.038 25.9085 131.211 26.1751 129.878 26.5218C127.584 27.0818 125.931 27.7751 124.918 28.6018C123.931 29.4285 123.438 30.5218 123.438 31.8818C123.438 32.3085 123.478 32.5618 123.558 32.6418C123.664 32.6951 123.878 32.6285 124.198 32.4418C125.104 31.9885 126.291 31.9351 127.758 32.2818C129.224 32.6285 130.171 33.1885 130.598 33.9618C131.104 34.8951 131.144 36.2418 130.718 38.0018C130.291 39.7351 129.638 40.9485 128.758 41.6418C127.931 42.2818 127.011 42.7218 125.998 42.9618C125.011 43.2018 124.184 43.1751 123.518 42.8818C122.558 42.4818 121.931 41.8151 121.638 40.8818C121.371 39.9485 121.238 38.0818 121.238 35.2818C121.238 32.0018 121.451 29.8285 121.878 28.7618C122.304 27.6685 123.331 26.7218 124.958 25.9218C126.451 25.1485 127.944 24.5885 129.438 24.2418ZM128.318 34.8818C127.278 34.3485 125.798 34.3885 123.878 35.0018L122.558 35.4418L122.798 37.5218C122.984 39.2818 123.278 40.3751 123.678 40.8018C124.104 41.2018 124.904 41.2151 126.078 40.8418C127.598 40.3351 128.531 39.0285 128.878 36.9218C128.984 36.2551 128.998 35.8018 128.918 35.5618C128.864 35.2951 128.664 35.0685 128.318 34.8818Z" fill="#253758"></path></svg> 