<?xml version="1.0" encoding="UTF-8"?> <svg xmlns="http://www.w3.org/2000/svg" width="616" height="753" viewBox="0 0 616 753" fill="none"><path d="M96.9798 2.66681C94.5798 4.00014 91.1131 7.60014 89.2464 10.6668C87.3798 13.6001 84.9798 16.0001 84.0464 16.0001C81.2464 16.0001 76.8464 22.2668 75.7798 27.2001C75.3798 29.6001 75.9131 34.6668 77.1131 38.8001C78.5798 43.8668 78.8464 47.4668 78.0464 50.9335C76.4464 57.7335 78.7131 57.3335 80.7131 50.5335C82.1798 46.0001 82.0464 44.1335 80.1798 38.9335C76.0464 27.3335 76.7131 25.2001 88.4464 13.4668C100.713 1.06681 104.446 -0.399856 113.913 3.86681C119.913 6.66681 129.246 7.60014 130.446 5.60014C130.846 4.93348 128.18 4.40014 124.58 4.40014C120.98 4.40014 116.846 3.33348 115.113 2.13348C110.846 -0.799856 102.18 -0.53319 96.9798 2.66681Z" fill="#28682E"></path><path d="M137.38 9.19972C136.847 10.1331 137.514 10.6664 139.247 10.6664C140.714 10.6664 143.514 12.1331 145.38 13.9997C148.847 17.4664 153.78 20.5331 154.714 19.7331C154.98 19.3331 152.98 16.9331 150.18 14.3997C144.98 9.19972 138.847 6.79973 137.38 9.19972Z" fill="#28682E"></path><path d="M99.5143 20.0008C101.514 20.5342 105.381 22.4008 107.914 24.0008C110.448 25.6008 112.581 26.5342 112.581 26.1342C112.581 24.8008 100.981 18.6675 98.4477 18.8008C96.7143 18.8008 96.981 19.2008 99.5143 20.0008Z" fill="#28682E"></path><path d="M147.514 29.7333C144.58 32.9333 143.647 36 145.647 36C146.314 36 147.514 34.5333 148.314 32.6667C150.047 29.0667 151.38 28.6667 155.38 30.8C156.847 31.6 158.714 31.8667 159.647 31.6C161.247 31.0667 153.914 26.6667 151.514 26.6667C150.847 26.6667 149.114 28 147.514 29.7333Z" fill="#28682E"></path><path d="M115.246 42.3999C115.246 42.9332 115.913 44.1332 116.846 45.0665C117.913 46.1332 117.913 47.0665 116.579 48.6665C115.113 50.3999 115.246 50.5332 117.113 49.8665C119.513 48.9332 119.513 48.6665 118.446 44.2665C117.646 41.4665 115.246 39.9999 115.246 42.3999Z" fill="#28682E"></path><path d="M259.779 57.201C260.179 57.7344 263.246 59.0677 266.579 60.001C274.846 62.2677 281.913 67.601 286.979 75.4677C292.979 84.401 294.179 90.001 294.713 111.334C295.246 132.668 297.379 143.334 302.446 150.001C307.246 156.268 309.379 156.001 305.379 149.468C300.313 141.468 298.179 130.534 297.513 108.401C296.979 90.401 296.579 87.4677 293.513 80.801C288.713 70.401 278.979 61.201 269.646 58.2677C261.513 55.7344 258.713 55.4677 259.779 57.201Z" fill="#28682E"></path><path d="M234.714 62.5335C229.114 70.5335 226.314 81.6001 224.714 102.267C223.914 112.667 222.314 126.133 221.247 132.267C218.847 145.867 218.847 146.933 220.98 146.4C221.78 146.267 224.047 146.933 225.914 147.867C229.514 150 240.18 150.267 242.047 148.4C242.847 147.6 240.847 147.067 236.98 146.8C228.847 146.533 221.914 144 221.914 141.333C221.914 140.267 222.447 137.2 223.247 134.667C223.914 132.133 225.647 118.533 227.114 104.667C229.914 78.0001 231.78 70.2668 237.247 63.2001C240.847 58.5335 241.247 57.3335 239.38 57.3335C238.847 57.3335 236.714 59.7335 234.714 62.5335Z" fill="#28682E"></path><path d="M84.3125 63.467C82.3125 67.867 84.9791 73.2003 90.3125 75.7337C96.3125 78.667 97.2458 76.9337 91.6458 73.3337C85.3791 69.2003 84.1791 64.5337 89.1125 62.667C93.5125 61.067 93.5125 60.0003 89.2458 60.0003C86.8458 60.0003 85.3791 61.067 84.3125 63.467Z" fill="#28682E"></path><path d="M214.579 63.3333C212.446 65.3333 211.246 68 211.379 70.2667L211.513 74L212.713 70C214.179 65.0667 217.246 62.6667 222.179 62.6667C224.179 62.6667 225.913 62 225.913 61.3333C225.913 58.6667 217.779 60 214.579 63.3333Z" fill="#28682E"></path><path d="M220.846 66.9334C219.913 67.8668 219.246 69.4668 219.246 70.5334C219.246 72.0001 219.779 71.8668 221.913 70.0001C224.713 67.4668 225.379 65.3334 223.513 65.3334C222.979 65.3334 221.779 66.0001 220.846 66.9334Z" fill="#28682E"></path><path d="M149.914 75.7346C149.914 77.068 150.847 79.468 152.047 81.068C153.114 82.668 153.647 84.668 153.247 85.3346C152.847 86.1346 153.114 86.668 153.781 86.668C155.647 86.668 155.647 81.7346 153.914 80.668C153.247 80.268 152.581 78.4013 152.581 76.5346C152.581 74.8013 152.047 73.3346 151.247 73.3346C150.581 73.3346 149.914 74.4013 149.914 75.7346Z" fill="#28682E"></path><path d="M202.846 92C199.246 95.7333 198.046 100 200.579 100C201.246 100 201.513 99.0667 201.113 98C200.579 96.8 201.113 96 202.046 96C204.313 95.8667 208.979 89.7333 207.513 88.8C206.846 88.4 204.846 89.8667 202.846 92Z" fill="#28682E"></path><path d="M90.7141 93.868C89.5141 95.7346 88.5807 97.6013 88.5807 97.868C88.5807 99.068 104.714 117.735 111.514 124.401C116.447 129.201 117.781 131.468 117.247 133.468C116.714 134.935 117.114 136.935 117.914 138.001C119.247 139.601 118.847 140.135 116.181 141.201C109.914 143.601 108.047 143.468 106.314 140.001C103.781 134.935 104.181 130.935 107.247 130.401C108.847 130.135 110.181 129.335 110.314 128.668C110.714 126.668 102.447 126.268 97.5141 127.868C95.2474 128.668 92.9807 128.935 92.4474 128.401C91.7807 127.735 90.9807 123.735 90.5807 119.335C89.3807 105.601 85.5141 107.201 83.5141 122.535C82.7141 128.001 81.2474 132.001 78.5807 135.335C74.5807 140.668 75.1141 140.668 58.9807 137.868C54.0474 137.068 53.9141 137.068 53.9141 141.201C53.9141 143.601 55.2474 148.001 56.7141 151.068C60.5807 158.535 80.7141 186.668 82.3141 186.668C83.7807 186.668 79.5141 179.601 69.6474 165.735C65.3807 159.735 60.4474 151.735 58.5807 147.735C54.7141 139.601 55.2474 139.201 65.7807 141.068C71.2474 142.001 73.1141 141.868 76.0474 140.001C81.3807 136.401 84.1807 131.201 85.2474 122.935C86.3141 114.801 88.5807 115.601 88.5807 124.268C88.5807 130.401 91.6474 132.535 97.7807 130.668L101.914 129.468V134.801C101.914 138.668 102.847 141.068 105.114 143.335C108.581 146.801 108.314 146.801 121.781 142.001C123.247 141.335 123.247 140.801 121.381 138.935C118.581 135.735 118.714 133.335 121.647 133.335C123.381 133.335 124.447 134.801 125.381 138.268C126.581 143.201 126.847 143.335 132.181 143.201C135.247 143.201 138.714 142.401 139.781 141.335C142.447 139.201 142.581 130.668 140.047 127.335C138.314 124.935 137.647 124.801 132.047 126.401C120.981 129.335 120.447 129.068 106.314 114.535C91.1141 98.8013 90.7141 98.268 92.5807 94.5346C94.8474 90.5346 93.3807 90.0013 90.7141 93.868ZM138.981 133.735C139.381 138.001 138.981 138.801 135.914 140.001C130.314 142.135 128.847 141.601 127.914 137.335C127.381 135.201 126.447 132.935 125.647 132.535C123.647 131.335 131.114 128.135 135.247 128.401C138.047 128.668 138.581 129.468 138.981 133.735Z" fill="#28682E"></path><path d="M146.713 94.2671C146.18 94.8005 144.18 95.3338 142.18 95.4671C135.647 95.8671 135.113 96.0005 135.78 97.2005C136.18 97.8671 138.18 98.2671 140.313 98.0005C144.58 97.7338 149.647 95.2005 148.447 94.1338C148.047 93.7338 147.247 93.7338 146.713 94.2671Z" fill="#28682E"></path><path d="M140.58 102.667C140.58 104.4 143.247 104.4 145.913 102.667C147.513 101.6 147.113 101.333 144.313 101.333C142.18 101.333 140.58 101.867 140.58 102.667Z" fill="#28682E"></path><path d="M105.914 105.867C105.914 106.134 109.114 108.534 112.981 111.2C121.514 117.067 131.914 118.8 139.647 115.6C142.447 114.4 144.581 112.534 144.581 111.334C144.581 109.467 144.047 109.6 141.114 111.867C135.514 116.267 126.581 115.6 116.047 110C107.381 105.467 105.914 104.8 105.914 105.867Z" fill="#28682E"></path><path d="M197.914 106.535C197.914 107.601 205.914 110.668 208.714 110.668C210.981 110.668 205.114 107.468 200.847 106.401C199.247 105.868 197.914 106.001 197.914 106.535Z" fill="#28682E"></path><path d="M73.7801 114.535C71.6467 116.668 64.8467 120.268 57.1134 123.335C38.1801 130.668 29.3801 135.335 25.5134 139.868C17.9134 148.935 12.9801 172.801 11.2467 209.335C9.78006 239.068 8.04673 259.201 5.24673 277.335C-0.486605 316.535 -1.41994 341.868 2.58006 355.335C5.78006 366.535 7.1134 367.201 5.1134 356.401C1.78006 339.201 4.04673 296.535 9.78006 268.001C10.4467 264.668 12.0467 246.668 13.1134 228.001C15.6467 187.468 17.2467 173.068 20.4467 160.668C25.3801 141.335 28.1801 138.401 50.1801 129.468C57.2467 126.535 64.9801 123.201 67.5134 122.001C74.4467 118.401 82.0467 110.535 78.3134 110.668C77.6467 110.801 75.6467 112.401 73.7801 114.535Z" fill="#28682E"></path><path d="M198.979 114.267C199.779 114.533 201.379 114.533 202.313 114.267C203.113 113.867 202.446 113.6 200.579 113.6C198.713 113.6 198.046 113.867 198.979 114.267Z" fill="#28682E"></path><path d="M196.181 122.801C192.314 125.068 193.647 128.001 199.647 130.668C207.781 134.401 210.314 133.735 202.847 129.868C197.381 127.068 196.714 126.135 198.047 124.535C200.047 122.001 199.247 121.201 196.181 122.801Z" fill="#28682E"></path><path d="M149.914 129.335C149.914 130.935 162.714 137.335 165.914 137.335C170.181 137.468 178.181 141.068 181.914 144.668C186.714 149.201 187.381 146.535 182.847 141.068C180.714 138.268 176.847 136.535 167.914 134.001C161.381 132.001 155.381 130.001 154.714 129.201C152.981 127.601 149.914 127.601 149.914 129.335Z" fill="#28682E"></path><path d="M266.047 136.135C265.914 142.801 268.047 150.668 270.047 150.668C270.847 150.668 270.714 149.468 269.914 148.001C269.114 146.535 267.914 141.868 267.38 137.601L266.18 130.001L266.047 136.135Z" fill="#28682E"></path><path d="M93.9141 138.934C93.9141 140.801 94.5807 144.001 95.2474 146.267C96.0474 148.401 97.7807 157.601 99.1141 166.801L101.647 183.334L101.781 172.267C101.914 165.067 100.981 157.201 99.1141 149.601C96.0474 137.467 93.9141 132.934 93.9141 138.934Z" fill="#28682E"></path><path d="M138.179 156.535C138.046 162.401 137.246 165.068 130.846 181.601C128.979 186.668 127.646 190.668 128.046 190.668C128.446 190.668 131.112 185.468 134.179 179.201C139.646 167.468 142.446 153.335 139.646 151.601C138.712 151.068 138.179 153.068 138.179 156.535Z" fill="#28682E"></path><path d="M280.847 152.001C281.247 153.201 283.914 154.267 288.181 154.801C291.914 155.334 295.647 156.134 296.447 156.534C297.247 157.067 297.914 157.201 297.914 156.801C297.914 155.067 289.381 151.867 286.847 152.534C285.247 152.934 283.114 152.534 282.047 151.601C280.581 150.267 280.314 150.401 280.847 152.001Z" fill="#28682E"></path><path d="M209.914 164.535C207.247 165.602 202.581 166.802 199.514 167.335C196.447 167.868 193.514 168.802 193.114 169.602C191.914 171.335 199.114 170.135 211.647 166.535C216.714 165.068 221.247 164.135 221.647 164.668C222.047 165.068 221.381 167.202 220.181 169.202C218.981 171.335 217.914 173.735 217.914 174.535C217.914 177.202 225.781 179.868 236.047 180.668C247.381 181.468 258.847 179.468 280.447 172.802C286.714 170.935 293.381 169.335 295.247 169.335C301.647 169.335 310.714 173.335 315.647 178.402C321.381 184.268 327.781 198.802 330.581 212.268C331.781 217.602 334.447 225.068 336.581 228.935C340.581 235.868 340.581 235.868 337.914 238.402C334.181 241.868 321.647 244.402 314.314 243.335C307.914 242.402 300.447 236.802 297.114 230.402C295.381 227.068 295.381 226.268 297.247 223.735C299.781 220.002 299.781 215.468 297.247 213.335C294.581 211.068 291.247 213.735 291.247 218.135C291.247 219.868 290.847 221.335 290.314 221.335C287.781 221.335 280.714 215.468 274.314 208.402C267.914 201.202 267.381 200.802 264.981 202.802C263.647 204.002 259.647 206.002 256.181 207.335C250.847 209.335 248.714 209.468 243.514 208.268C235.247 206.402 234.981 207.202 242.581 210.002C248.981 212.535 253.914 211.868 263.781 206.935C267.514 205.202 267.647 205.202 274.181 212.668C277.914 216.668 283.247 221.335 286.181 222.802C288.981 224.268 291.914 226.935 292.581 228.802C297.114 240.535 309.114 247.468 322.714 246.268C332.447 245.335 339.647 242.135 342.047 237.735C343.647 234.802 343.381 233.735 340.181 228.135C338.181 224.535 335.114 216.268 333.381 209.602C326.847 184.935 318.847 173.468 304.981 168.802C296.314 165.868 295.247 166.002 270.981 172.268C252.314 177.202 247.514 178.002 236.714 177.735C221.781 177.602 218.581 175.868 222.447 170.002C223.781 168.002 224.447 165.602 224.047 164.535C223.114 162.268 216.314 162.268 209.914 164.535ZM296.581 218.668C296.581 220.135 296.047 221.335 295.247 221.335C294.581 221.335 293.914 220.135 293.914 218.668C293.914 217.202 294.581 216.002 295.247 216.002C296.047 216.002 296.581 217.202 296.581 218.668Z" fill="#28682E"></path><path d="M145.913 171.866C144.446 174.666 145.379 178.666 147.379 178.666C148.046 178.666 147.646 180.8 146.579 183.6C143.513 190.933 145.379 190.533 148.979 183.066C151.379 178 151.779 175.733 150.846 172.933C149.513 168.666 147.913 168.4 145.913 171.866ZM148.179 175.6C147.779 176.933 147.513 176.133 147.513 174C147.513 171.733 147.779 170.8 148.179 171.6C148.446 172.533 148.446 174.4 148.179 175.6Z" fill="#28682E"></path><path d="M114.847 171.599C114.314 171.999 113.914 173.599 113.914 174.933C113.914 176.266 112.981 177.333 111.647 177.333C109.381 177.466 109.381 177.466 111.647 178.799C112.847 179.466 113.914 181.466 113.914 183.199C113.914 186.799 117.247 191.733 118.714 190.266C119.247 189.733 118.981 188.533 118.181 187.733C116.181 185.733 116.047 179.999 117.914 179.999C119.914 179.999 119.514 173.866 117.514 172.133C116.447 171.333 115.247 171.066 114.847 171.599ZM117.914 176.533C117.914 176.933 117.381 177.599 116.581 177.999C115.914 178.399 115.247 178.133 115.247 177.466C115.247 176.666 115.914 175.999 116.581 175.999C117.381 175.999 117.914 176.266 117.914 176.533Z" fill="#28682E"></path><path d="M168.047 180.668C166.847 184.001 167.113 189.068 168.58 190.001C169.38 190.535 169.38 192.001 168.58 194.135C166.98 198.401 166.847 200.401 168.447 199.468C169.113 199.068 170.047 197.068 170.58 195.068C170.98 192.935 172.447 190.268 173.647 188.935C175.38 186.935 175.513 186.535 173.913 186.935C172.713 187.201 171.78 186.135 171.513 184.001C170.847 179.601 169.113 178.001 168.047 180.668Z" fill="#28682E"></path><path d="M182.847 180.933C182.313 181.867 181.647 186.4 181.513 190.933C181.38 195.6 180.18 201.333 178.98 203.6C177.78 206 177.247 208 177.913 208C179.113 208 183.247 199.733 183.247 197.067C183.247 196 183.647 194.667 184.313 193.867C184.847 193.2 184.98 189.6 184.58 186C184.18 182 183.513 180 182.847 180.933Z" fill="#28682E"></path><path d="M100.58 191.466C100.58 192.533 101.247 194.8 102.047 196.266C102.98 198.133 103.113 199.333 102.18 199.866C101.38 200.266 103.78 202.266 107.38 204.4C110.98 206.4 113.913 207.466 113.913 206.666C113.913 206 112.713 204.8 111.247 204C109.78 203.2 108.58 201.2 108.58 199.466C108.58 196.266 103.913 189.333 101.78 189.333C101.113 189.333 100.58 190.266 100.58 191.466Z" fill="#28682E"></path><path d="M143.646 192C140.446 193.333 140.046 194.4 141.379 197.866C142.446 200.8 144.446 200.533 143.779 197.6C143.379 196.266 144.313 194.666 146.046 193.6C148.713 191.866 148.846 192 148.179 194.933C147.379 197.866 147.513 197.866 149.246 195.466C152.446 191.2 149.779 189.6 143.646 192Z" fill="#28682E"></path><path d="M212.048 194.267C207.914 198.267 208.581 200.267 212.714 196.534L215.648 194.001L213.914 197.334C211.248 202.267 206.848 208.001 205.648 208.001C205.114 208.001 204.581 206.001 204.581 203.601C204.581 200.801 203.514 198.134 201.914 196.667C199.248 194.267 199.248 194.401 199.248 200.801C199.248 204.534 199.914 208.134 200.848 209.067C201.914 210.134 201.381 210.934 198.448 212.134C192.714 214.667 189.914 217.467 190.048 220.534C190.048 223.201 190.181 223.201 191.248 220.401C192.048 218.534 195.381 216.001 199.514 214.134C203.381 212.401 207.781 209.601 209.381 207.867C213.648 202.934 219.248 194.267 219.248 192.401C219.248 189.601 215.781 190.401 212.048 194.267ZM203.781 209.201C202.848 210.534 200.581 207.467 200.581 204.801C200.581 199.867 202.581 199.467 203.248 204.267C203.648 206.667 203.914 208.934 203.781 209.201Z" fill="#28682E"></path><path d="M117.513 194.267C116.046 195.734 116.446 202.401 118.18 203.467C119.246 204.134 119.38 203.201 118.846 200.001C118.046 196.534 118.18 196.001 119.646 197.201C120.713 198.001 121.913 198.267 122.313 197.734C122.846 197.334 123.246 198.001 123.246 199.467C123.38 201.867 123.38 201.867 124.713 199.601C125.513 198.134 125.646 196.667 125.113 196.001C123.246 194.401 118.446 193.201 117.513 194.267Z" fill="#28682E"></path><path d="M157.914 194.401C157.914 194.934 159.114 196.134 160.581 197.068C162.181 198.001 163.247 200.134 163.247 202.134C163.247 204.001 163.781 205.201 164.581 204.668C166.714 203.334 166.047 199.334 163.247 196.268C160.447 193.334 157.914 192.401 157.914 194.401Z" fill="#28682E"></path><path d="M139.779 203.335C143.246 207.068 144.846 213.868 142.713 216.001C141.779 216.935 142.579 217.068 145.646 216.535C148.979 215.868 149.913 216.135 149.913 217.868C149.913 219.068 150.846 220.001 151.913 220.001C153.113 220.001 154.846 222.001 155.913 224.268C157.779 228.401 157.779 228.535 157.913 225.201C157.913 221.335 150.446 213.335 146.846 213.335C145.113 213.335 144.713 212.535 145.246 210.268C146.179 206.801 141.646 200.001 138.579 200.001C137.379 200.001 137.779 201.068 139.779 203.335Z" fill="#28682E"></path><path d="M149.247 203.201C148.047 206.001 151.38 209.334 155.114 209.334C156.714 209.334 156.58 208.801 154.447 206.934C152.847 205.734 151.247 203.734 150.847 202.667C150.314 201.067 150.047 201.201 149.247 203.201Z" fill="#28682E"></path><path d="M157.914 202.8C157.914 203.467 158.581 203.734 159.247 203.334C160.047 202.934 160.581 202.267 160.581 201.867C160.581 201.6 160.047 201.334 159.247 201.334C158.581 201.334 157.914 202 157.914 202.8Z" fill="#28682E"></path><path d="M125.514 205.467C122.314 210.001 127.114 217.334 133.247 217.334C135.514 217.334 135.514 217.067 132.58 215.601C130.714 214.667 129.247 213.201 129.247 212.267C129.247 211.334 128.314 210.001 127.247 209.334C125.647 208.401 125.78 207.734 127.78 205.467C129.247 203.867 129.647 202.667 128.847 202.667C128.047 202.667 126.58 203.867 125.514 205.467Z" fill="#28682E"></path><path d="M92.9791 205.468C91.9124 206.534 92.0458 208.001 93.5124 210.801C95.5124 214.801 97.2458 215.468 100.579 213.334C102.179 212.268 102.046 212.001 99.6458 212.001C97.7791 212.001 96.5791 211.201 96.5791 210.001C96.5791 208.934 95.7791 208.001 94.9791 208.001C94.0458 207.868 94.7124 207.068 96.5791 206.001C99.6458 204.268 99.6458 204.134 97.2458 204.001C95.6458 204.001 93.7791 204.668 92.9791 205.468Z" fill="#28682E"></path><path d="M135.914 208.135C134.581 210.135 136.314 211.468 138.048 209.735C138.981 208.801 138.981 208.001 138.181 207.468C137.381 207.068 136.314 207.335 135.914 208.135Z" fill="#28682E"></path><path d="M167.246 209.201C167.246 209.868 168.313 210.268 169.646 210.134C170.846 210.134 171.913 210.934 171.913 212.001C171.913 213.068 172.58 214.401 173.246 214.934C175.246 216.401 172.18 220.401 168.446 221.468C164.98 222.268 161.913 220.668 161.913 217.868C161.913 216.801 161.38 216.001 160.58 216.001C159.246 216.001 160.18 219.601 162.313 222.268C165.78 226.934 178.046 221.334 175.78 216.268C175.38 215.068 174.58 212.668 174.313 210.934C173.78 208.934 172.58 208.001 170.446 208.001C168.713 208.001 167.246 208.534 167.246 209.201Z" fill="#28682E"></path><path d="M106.847 211.6C105.381 212.933 105.781 214.933 107.114 214C108.847 212.933 111.247 217.6 111.247 222C111.247 224 111.781 225.2 112.581 224.666C114.581 223.466 114.181 217.6 111.781 214C109.514 210.533 108.314 210 106.847 211.6Z" fill="#28682E"></path><path d="M207.247 211.868C207.247 212.534 208.18 212.934 209.38 212.801C210.58 212.801 211.913 213.468 212.18 214.268C212.98 216.534 208.313 216.534 206.18 214.401C205.247 213.468 204.58 213.334 204.58 214.134C204.58 218.001 211.113 220.001 215.247 217.334C216.847 216.401 216.847 215.734 214.713 213.468C212.18 210.668 207.247 209.601 207.247 211.868Z" fill="#28682E"></path><path d="M165.914 213.867C165.914 214.934 166.581 216.267 167.247 216.667C168.047 217.067 168.581 216.267 168.581 214.8C168.581 213.2 168.047 212 167.247 212C166.581 212 165.914 212.8 165.914 213.867Z" fill="#28682E"></path><path d="M59.2461 215.734C59.2461 216.267 60.8461 217.734 62.9794 218.934C67.5128 221.867 64.5794 222.001 59.2461 219.334C56.9794 218.134 55.2461 217.734 55.2461 218.401C55.2461 220.267 65.3794 225.334 69.1128 225.334C72.1794 225.334 72.4461 225.601 71.2461 228.801C70.4461 230.667 69.9128 232.667 69.9128 233.334C69.9128 235.201 74.9794 233.201 77.5128 230.267L79.9128 227.601L76.1794 230.001L72.3128 232.534L72.8461 229.201C73.1128 226.801 74.1794 225.867 76.8461 225.601C79.6461 225.201 81.6461 226.401 85.3794 230.267C89.9128 235.067 90.0461 235.201 88.1794 231.334C84.9794 224.934 81.2461 222.401 74.0461 221.601C69.3794 221.201 66.5794 220.134 64.4461 217.867C61.5128 214.667 59.2461 213.734 59.2461 215.734Z" fill="#28682E"></path><path d="M94.5798 217.333C93.1132 219.599 95.5132 227.999 98.0465 229.333C101.247 231.066 104.713 231.066 101.647 229.333C98.0465 227.199 94.9798 219.999 96.7132 217.866C97.7798 216.533 97.7798 215.999 96.8465 215.999C96.0465 215.999 94.9798 216.533 94.5798 217.333Z" fill="#28682E"></path><path d="M104.58 223.334C104.58 224.401 105.247 225.334 105.913 225.334C106.713 225.334 107.247 224.401 107.247 223.334C107.247 222.267 106.713 221.334 105.913 221.334C105.247 221.334 104.58 222.267 104.58 223.334Z" fill="#28682E"></path><path d="M124.447 223.601C122.98 225.601 122.98 225.734 124.58 224.267C125.647 223.467 126.847 222.667 127.514 222.667C129.38 222.667 132.847 231.867 131.914 234.801C131.247 236.667 131.38 237.334 132.447 236.801C134.047 235.734 134.447 228.001 132.847 228.001C132.314 228.001 131.247 226.667 130.58 225.067C128.847 221.201 126.714 220.667 124.447 223.601Z" fill="#28682E"></path><path d="M138.179 223.068C135.913 225.735 142.313 234.668 146.579 234.668C148.313 234.668 150.046 234.135 150.446 233.468C150.846 232.935 149.646 232.668 147.913 233.068C145.513 233.468 144.313 232.935 143.646 231.201C143.113 229.735 141.913 228.001 140.713 227.201C139.646 226.401 139.113 224.801 139.646 223.468C140.713 220.935 140.046 220.668 138.179 223.068Z" fill="#28682E"></path><path d="M181.113 227.734C181.247 234.001 181.247 234.001 176.98 233.734C173.647 233.467 172.847 233.734 173.38 235.334C174.313 237.734 180.713 238.001 182.98 235.734C185.113 233.601 184.98 224.667 182.847 222.934C181.38 221.734 181.113 222.667 181.113 227.734Z" fill="#28682E"></path><path d="M147.246 224.668C147.246 225.735 148.046 226.668 149.113 226.668C152.046 226.668 152.846 224.401 150.446 223.468C147.513 222.268 147.246 222.401 147.246 224.668Z" fill="#28682E"></path><path d="M221.646 228.668C218.846 231.734 216.579 235.068 216.579 236.134C216.713 237.201 217.379 236.668 218.313 234.934C219.246 233.334 221.513 230.934 223.246 229.734C226.179 227.601 226.313 227.601 225.513 229.868C224.979 231.201 224.179 233.734 223.779 235.468C223.113 238.134 222.179 238.668 218.046 238.668C215.379 238.668 210.579 237.468 207.379 236.001C200.046 232.668 198.846 232.668 195.779 236.268C194.446 238.001 194.179 238.534 195.246 237.601C197.379 235.734 204.579 235.334 204.579 237.201C204.579 237.868 203.646 239.068 202.579 240.001C201.379 240.934 200.846 242.668 201.246 243.868C201.646 245.068 201.379 248.001 200.713 250.401C200.046 252.668 199.913 254.934 200.579 255.334C202.446 256.534 207.113 251.468 207.913 247.334C208.579 243.734 208.313 243.868 206.046 248.668L203.379 254.001V246.934C203.246 238.801 204.713 237.601 211.913 240.001C217.913 242.001 226.446 240.668 225.379 238.001C224.979 236.934 225.513 234.001 226.579 231.468C228.713 226.401 229.113 222.534 227.646 222.801C226.979 222.801 224.313 225.468 221.646 228.668Z" fill="#28682E"></path><path d="M176.046 226.534C175.646 227.201 176.18 228.401 177.113 229.201C178.713 230.534 178.846 230.267 178.313 228.134C177.513 225.067 177.113 224.801 176.046 226.534Z" fill="#28682E"></path><path d="M115.513 228.267C113.513 230.267 113.38 234.667 115.246 234.667C116.046 234.667 116.58 235.867 116.58 237.334C116.58 240.267 120.313 242.667 124.846 242.534C127.38 242.4 127.113 242.134 123.646 241.067C120.846 240.134 119.246 238.8 119.246 237.2C119.246 235.867 118.313 234.267 117.113 233.6C115.246 232.534 115.513 232 118.58 229.6C121.78 227.067 121.913 226.667 119.646 226.667C118.313 226.667 116.446 227.334 115.513 228.267Z" fill="#28682E"></path><path d="M162.313 231.734C164.846 232.801 168.579 239.067 168.579 242.534C168.713 244.401 168.846 244.401 170.046 242.267C172.046 238.934 166.846 230.667 162.846 230.801C160.313 230.801 160.179 230.934 162.313 231.734Z" fill="#28682E"></path><path d="M105.914 232.8C105.914 233.467 106.847 235.334 107.914 236.8C108.981 238.134 109.914 240.8 109.914 242.667C109.914 245.334 110.181 245.6 111.247 244C111.914 242.934 112.581 241.334 112.581 240.667C112.581 238.8 106.047 230.934 105.914 232.8Z" fill="#28682E"></path><path d="M123.913 233.334C123.513 234.134 124.046 235.068 125.246 235.468C127.779 236.534 129.246 235.468 127.913 233.468C126.846 231.601 124.979 231.601 123.913 233.334Z" fill="#28682E"></path><path d="M91.3793 235.2C90.3127 236.4 90.046 238.933 90.7127 241.866C91.5127 246.133 91.246 246.666 88.5793 246.666C84.5793 246.666 80.5793 249.066 80.5793 251.466C80.5793 252.533 79.5127 254.933 78.3127 256.933C76.1793 260.266 76.1793 260.4 79.1127 262.8C80.846 264.266 83.5127 265.333 85.1127 265.2C87.5127 265.066 87.5127 264.933 84.3127 263.6C79.7793 261.866 78.5793 258.933 81.246 256C82.3127 254.8 83.246 253.066 83.246 252.133C83.246 250 88.846 248 90.5793 249.466C92.446 251.333 94.3127 250.933 93.5127 248.8C92.9793 247.466 93.646 247.066 95.646 247.466L98.5793 248.133L95.646 246.533C91.7793 244.4 91.246 240 94.446 236.266C96.5793 233.866 96.7127 233.333 94.9793 233.333C93.7793 233.333 92.1793 234.133 91.3793 235.2Z" fill="#28682E"></path><path d="M152.179 238.267C148.846 241.467 155.646 251.067 160.446 249.733C161.913 249.333 163.779 248.267 164.579 247.333C165.779 245.867 165.379 245.733 162.446 246.533C157.913 247.733 153.246 243.867 154.313 239.867C154.979 237.333 153.913 236.533 152.179 238.267Z" fill="#28682E"></path><path d="M137.246 241.334C136.846 242.134 137.78 242.667 139.513 242.667C142.846 242.667 145.913 247.601 145.913 253.067C145.913 254.801 146.446 255.734 147.246 255.334C149.113 254.134 148.846 248.134 146.98 246.001C146.046 244.934 144.446 243.201 143.513 242.001C141.513 239.734 138.446 239.334 137.246 241.334Z" fill="#28682E"></path><path d="M160.58 241.335C160.58 242.001 161.247 242.668 161.913 242.668C162.713 242.668 163.247 242.001 163.247 241.335C163.247 240.535 162.713 240.001 161.913 240.001C161.247 240.001 160.58 240.535 160.58 241.335Z" fill="#28682E"></path><path d="M100.58 242.667C100.58 243.333 101.113 244 101.78 244C102.58 244 103.513 243.333 103.913 242.667C104.313 241.867 103.78 241.333 102.713 241.333C101.513 241.333 100.58 241.867 100.58 242.667Z" fill="#28682E"></path><path d="M176.313 244.134L173.246 246.801L176.313 245.068C178.579 243.734 179.779 243.734 181.913 245.068C183.379 245.868 185.779 246.668 187.379 246.668C189.513 246.668 189.913 247.201 189.246 249.601C187.379 255.868 182.046 257.601 176.713 253.868C173.779 251.734 173.646 251.734 175.113 254.534C178.046 259.868 186.846 260.001 189.513 254.668C193.113 247.334 193.113 244.534 189.779 245.068C188.313 245.334 186.313 244.934 185.513 244.268C182.046 241.601 179.246 241.601 176.313 244.134Z" fill="#28682E"></path><path d="M70.9804 245.6C69.3804 246.8 68.9804 248.533 69.5137 250.933C70.3137 254.8 71.9137 255.467 75.2471 253.333C76.9804 252.267 76.8471 252 74.9804 252C73.5137 252 72.5804 250.933 72.5804 249.333C72.5804 247.333 73.5137 246.667 76.3137 246.667C79.1137 246.667 79.5137 246.4 77.9137 245.333C75.2471 243.6 73.5137 243.733 70.9804 245.6Z" fill="#28682E"></path><path d="M128.98 244.935C127.113 245.601 126.58 250.935 128.313 252.535C128.847 253.068 129.38 254.135 129.38 254.801C129.513 255.468 129.647 256.535 129.78 257.201C130.047 258.935 136.047 260.135 138.847 259.068C140.713 258.268 140.313 257.868 136.713 257.335C133.113 256.801 131.78 255.868 130.847 252.801C129.913 250.135 130.047 248.135 131.113 246.401C132.58 244.001 132.047 243.601 128.98 244.935Z" fill="#28682E"></path><path d="M110.047 248.666C108.314 250.533 106.847 253.466 106.714 255.333C106.714 257.199 106.047 258.533 105.247 258.399C101.78 257.733 98.1803 260.533 96.3136 265.333C94.4469 269.866 94.4469 270.799 96.1803 273.199C98.3136 276.399 102.98 276.799 106.314 274.266C108.314 272.933 107.914 272.666 103.647 272.666C97.3803 272.666 96.3136 269.199 100.98 263.466C103.514 260.266 105.114 259.599 109.38 259.733C113.514 259.866 114.047 259.599 112.314 258.533C107.38 255.733 111.38 247.999 117.647 247.999C119.247 247.999 120.58 247.333 120.58 246.666C120.58 243.999 113.247 245.466 110.047 248.666Z" fill="#28682E"></path><path d="M338.448 251.335C338.048 254.801 337.914 262.001 338.448 267.468C339.248 275.735 338.981 278.001 336.714 282.535C332.848 290.001 324.848 296.001 307.381 304.668C299.114 308.801 292.581 312.401 292.848 312.801C293.781 313.735 306.981 308.801 316.314 304.135C325.648 299.468 333.914 292.535 337.781 286.135C340.048 282.535 340.448 279.201 340.714 264.268C340.848 245.601 340.048 240.801 338.448 251.335Z" fill="#28682E"></path><path d="M138.18 252.133C138.447 252.933 139.247 253.467 139.914 253.467C140.58 253.467 141.38 252.933 141.647 252.133C141.914 251.333 141.114 250.667 139.914 250.667C138.714 250.667 137.914 251.333 138.18 252.133Z" fill="#28682E"></path><path d="M299.381 255.467C297.914 257.467 295.914 261.334 295.114 264.267C294.047 268.667 294.181 270.134 295.914 272.934C298.447 276.8 300.181 276.267 298.047 272.267C295.914 268.134 296.314 263.867 299.247 258.934C302.581 253.467 304.181 253.467 305.381 259.467C305.781 262 307.514 265.334 308.981 266.667C311.647 269.2 311.647 269.2 308.181 274.934C303.514 282.934 298.581 287.2 289.381 291.467C282.047 294.8 280.581 294.934 268.714 294.267C253.647 293.467 249.914 294.667 243.514 302C236.714 309.6 235.781 312.4 238.447 317.734C240.847 322.934 246.714 325.334 246.714 321.067C246.714 319.334 246.047 318.934 244.181 319.467C242.447 320 241.514 319.467 240.981 317.467C240.581 315.867 239.781 314.667 239.114 314.667C236.714 314.667 238.047 312.267 243.514 306C250.581 297.867 255.781 295.734 263.647 297.2C280.981 300.4 300.581 291.467 309.514 276.4C311.381 273.067 314.447 269.867 316.447 269.2C318.981 268.134 319.381 267.6 318.047 266.8C317.114 266.134 315.247 266 313.914 266.267C312.047 266.8 310.981 265.334 308.847 259.734C305.781 251.6 303.381 250.4 299.381 255.467Z" fill="#28682E"></path><path d="M114.58 254.667C114.18 255.333 114.713 256 115.78 256C116.98 256 117.913 255.333 117.913 254.667C117.913 253.867 117.38 253.333 116.713 253.333C115.913 253.333 114.98 253.867 114.58 254.667Z" fill="#28682E"></path><path d="M160.18 254.267C162.047 254.667 162.847 255.467 162.313 256.8C161.913 257.867 162.313 258.667 163.113 258.667C163.913 258.667 164.58 260.267 164.713 262.267C164.713 266 164.847 266 166.18 262.933C168.313 258.533 165.247 253.333 160.713 253.467C157.647 253.733 157.647 253.733 160.18 254.267Z" fill="#28682E"></path><path d="M85.9141 257.734C85.9141 260.267 87.2474 261.334 89.3807 260.401C90.8474 259.867 90.8474 259.467 89.2474 257.867C86.9807 255.467 85.9141 255.467 85.9141 257.734Z" fill="#28682E"></path><path d="M121.379 261.466C119.246 264.533 120.313 268.799 124.313 273.599C126.846 276.666 128.846 276.666 132.713 273.333L135.913 270.666L132.313 272.133C127.513 274.266 125.113 273.066 124.046 267.866C123.513 264.799 123.913 262.933 125.379 261.066C127.379 258.933 127.513 258.666 125.513 258.666C124.313 258.666 122.446 259.999 121.379 261.466Z" fill="#28682E"></path><path d="M150.58 260.401C149.913 262.001 150.58 263.601 152.58 265.334C155.913 268.268 156.047 268.268 159.913 266.668C162.447 265.601 162.447 265.468 159.513 265.468C156.18 265.334 153.513 263.201 152.313 260.001C151.647 258.401 151.38 258.401 150.58 260.401Z" fill="#28682E"></path><path d="M157.914 261.335C157.914 262.001 158.847 262.668 160.047 262.668C161.114 262.668 161.647 262.001 161.247 261.335C160.847 260.535 159.914 260.001 159.114 260.001C158.447 260.001 157.914 260.535 157.914 261.335Z" fill="#28682E"></path><path d="M192.314 264.134C190.981 264.801 189.914 266.134 189.914 266.934C189.914 267.868 190.581 267.734 191.914 266.668C194.581 264.401 206.314 266.268 210.047 269.468C214.314 273.068 218.181 272.268 219.381 267.468C220.714 262.534 220.314 262.001 216.581 264.001C213.914 265.468 208.981 265.334 197.914 263.334C196.047 262.934 193.514 263.334 192.314 264.134ZM217.914 267.868C217.914 269.468 214.181 270.801 213.381 269.468C212.981 268.801 212.981 268.001 213.514 267.468C214.714 266.268 217.914 266.534 217.914 267.868Z" fill="#28682E"></path><path d="M112.712 264.934C112.712 265.467 113.246 267.201 113.912 268.667C114.979 271.201 115.112 271.201 115.112 268.401C115.246 266.801 114.712 265.067 113.912 264.667C113.246 264.267 112.579 264.267 112.712 264.934Z" fill="#28682E"></path><path d="M103.246 267.334C103.246 268.401 104.179 269.334 105.246 269.334C106.446 269.334 106.846 268.534 106.446 267.334C105.913 266.267 105.113 265.334 104.446 265.334C103.779 265.334 103.246 266.267 103.246 267.334Z" fill="#28682E"></path><path d="M128.18 266.134C127.113 267.201 128.313 269.334 130.047 269.334C130.713 269.334 131.247 268.401 131.247 267.334C131.247 265.334 129.647 264.667 128.18 266.134Z" fill="#28682E"></path><path d="M166.046 267.201C165.113 268.267 164.579 271.734 164.846 274.934C165.246 280.667 165.246 280.667 170.579 280.934C173.513 281.067 174.713 280.801 173.246 280.401C169.513 279.467 167.113 277.334 168.046 275.734C168.446 275.067 168.179 273.734 167.379 272.801C166.313 271.467 166.446 270.534 167.913 269.334C170.179 267.467 170.579 265.334 168.713 265.334C168.046 265.334 166.846 266.134 166.046 267.201Z" fill="#28682E"></path><path d="M173.914 266.667C173.914 267.333 174.714 268 175.781 268C176.714 268 178.181 270 178.847 272.267C180.047 276 180.314 276.267 181.247 274.267C182.714 270.8 179.914 265.333 176.581 265.333C175.114 265.333 173.914 265.867 173.914 266.667Z" fill="#28682E"></path><path d="M79.2471 272.667C77.5138 274.534 75.1138 276.001 73.9138 276.001C70.5805 276.001 66.9805 280.667 67.5138 284.267C67.9138 287.067 68.7138 286.534 76.3138 278.801C80.8471 274.134 84.5805 270.001 84.5805 269.734C84.5805 268.401 81.9138 269.734 79.2471 272.667ZM71.2471 281.467C70.3138 282.934 69.3805 283.867 68.9805 283.467C68.5805 283.067 68.9805 281.867 69.9138 280.667C72.3138 277.867 72.9805 278.134 71.2471 281.467Z" fill="#28682E"></path><path d="M143.113 271.868C140.313 274.135 140.18 274.668 141.646 279.735C143.513 285.868 146.58 287.468 151.78 285.201C156.313 283.068 156.313 280.935 151.78 282.668C147.38 284.401 147.78 284.668 145.246 279.601C143.246 275.601 143.246 275.201 145.913 273.068C147.38 271.868 148.58 270.535 148.58 270.135C148.58 268.668 146.18 269.335 143.113 271.868Z" fill="#28682E"></path><path d="M152.58 271.335C152.58 271.735 153.78 273.335 155.247 274.935C157.247 277.068 157.913 277.335 157.913 275.868C157.913 274.801 157.247 273.201 156.313 272.268C154.713 270.668 152.58 270.135 152.58 271.335Z" fill="#28682E"></path><path d="M171.647 272.667C170.58 275.601 172.447 277.067 173.914 274.667C175.647 272.001 175.514 270.667 173.914 270.667C173.114 270.667 172.18 271.601 171.647 272.667Z" fill="#28682E"></path><path d="M102.446 282.001C100.579 284.534 98.3128 286.267 97.6461 285.867C96.0461 284.934 91.2461 289.201 91.2461 291.601C91.2461 292.534 91.7794 293.334 92.3128 293.334C94.4461 293.334 100.579 290.001 100.579 288.801C100.579 288.267 102.446 285.334 104.713 282.534C106.979 279.734 108.179 277.334 107.379 277.334C106.713 277.334 104.446 279.467 102.446 282.001Z" fill="#28682E"></path><path d="M120.046 281.201C116.446 283.068 112.58 286.001 111.513 287.601C109.78 290.401 109.78 290.668 112.313 290.668C113.78 290.668 115.646 289.735 116.58 288.668C117.913 286.935 118.58 286.935 119.38 288.268C120.18 289.468 120.846 288.935 121.78 286.535C122.446 284.535 124.713 281.735 126.846 280.268C132.046 276.268 128.046 276.935 120.046 281.201Z" fill="#28682E"></path><path d="M183.914 280.267C176.714 283.867 173.914 286.534 173.914 289.601C173.914 292.267 176.714 292.667 180.581 290.667C182.447 289.734 183.114 290.001 183.647 292.001C184.581 295.334 186.047 295.334 190.447 291.867C194.847 288.401 194.981 285.601 190.581 288.534C186.581 291.201 185.914 291.201 185.914 288.534C185.914 286.401 184.447 286.401 178.714 288.801C173.781 290.801 177.914 286.801 184.581 283.067C188.314 281.067 191.247 278.934 191.247 278.267C191.247 276.801 189.781 277.201 183.914 280.267Z" fill="#28682E"></path><path d="M296.047 279.467C295.514 280.667 295.514 282 295.914 282.4C296.181 282.8 296.847 282 297.381 280.8C297.914 279.6 297.914 278.267 297.514 277.867C297.247 277.467 296.581 278.267 296.047 279.467Z" fill="#28682E"></path><path d="M214.314 282.268C213.781 284.401 213.514 288.401 213.781 291.334C214.314 299.868 214.181 302.668 212.714 315.334C209.514 340.801 206.847 355.601 203.514 366.268C201.647 372.401 200.447 377.734 200.981 378.134C202.447 379.601 204.581 377.201 208.047 370.534C210.981 364.668 211.647 364.001 213.514 365.468C216.981 368.401 219.247 363.468 219.247 353.468C219.247 347.334 218.847 345.201 217.914 346.668C217.247 347.734 216.581 351.734 216.581 355.601C216.581 362.268 214.981 365.601 213.247 362.668C211.647 360.134 209.781 361.334 207.781 366.134C204.447 374.001 204.581 370.668 208.047 358.934C209.781 352.801 212.181 339.068 213.247 328.268C215.381 306.801 216.981 299.868 219.914 297.334C222.047 295.601 222.581 292.001 220.847 292.001C220.314 292.001 218.981 292.801 218.047 293.601C216.581 295.068 216.447 293.868 216.847 286.934C217.381 278.401 216.047 275.868 214.314 282.268Z" fill="#28682E"></path><path d="M130.847 282.934C129.114 288.268 134.447 291.601 137.914 287.334C139.781 285.068 137.914 284.534 135.647 286.801C134.581 287.868 133.914 287.734 133.247 286.534C132.581 285.601 133.114 284.268 134.581 283.068C136.981 281.468 136.981 281.334 134.314 281.334C132.714 281.334 131.247 282.134 130.847 282.934Z" fill="#28682E"></path><path d="M158.046 284.268C150.846 286.268 143.646 291.468 138.046 299.068C134.446 304.001 130.846 307.201 126.046 309.335C120.846 311.868 119.246 313.335 119.246 315.601C119.246 317.335 119.913 318.668 120.713 318.668C123.113 318.668 131.246 313.335 131.246 311.735C131.246 310.801 130.713 310.801 129.646 311.735C128.713 312.401 126.446 313.335 124.579 313.868C122.713 314.401 124.579 312.935 128.713 310.801C134.179 307.868 137.379 305.068 140.579 300.001C145.113 292.935 148.979 290.135 159.113 286.535C165.913 284.268 164.979 282.401 158.046 284.268Z" fill="#28682E"></path><path d="M198.847 287.868C189.247 298.534 181.913 313.468 184.713 316.801C185.513 317.868 187.247 318.668 188.58 318.668C190.713 318.668 190.58 319.601 188.313 334.268C182.713 370.001 170.58 404.934 157.38 423.201C152.313 430.401 152.313 434.001 157.38 429.201C160.18 426.534 160.98 426.401 163.913 428.001C169.647 431.068 173.38 426.268 180.713 406.401C186.447 390.801 184.847 390.668 178.18 406.134C175.113 413.468 171.247 420.934 169.513 422.801C166.98 425.868 166.18 426.134 163.513 424.668C160.58 423.068 160.58 423.068 163.113 419.868C173.647 406.401 187.913 362.001 191.247 332.001C192.847 318.401 192.58 318.934 198.713 311.334C204.047 304.801 206.447 299.068 204.447 297.868C202.313 296.668 197.913 301.334 195.113 307.734C191.78 315.601 185.913 317.601 187.647 310.401C188.447 307.201 196.447 294.668 202.18 287.734C206.847 281.868 204.047 282.001 198.847 287.868ZM202.047 302.268C199.78 306.534 196.713 310.001 196.58 308.534C196.58 307.068 201.647 300.001 202.713 300.001C203.113 300.001 202.713 301.068 202.047 302.268Z" fill="#28682E"></path><path d="M164.714 294.134C163.247 296 162.314 298.267 162.847 299.067C166.847 305.6 171.247 306.934 176.047 303.334C178.447 301.467 178.18 301.334 173.647 302.134C169.514 302.8 168.58 302.534 168.58 300.8C168.58 299.6 167.647 298.667 166.58 298.667C164.714 298.667 164.847 298.267 166.714 295.334C169.78 290.667 168.18 289.734 164.714 294.134Z" fill="#28682E"></path><path d="M121.914 294.001C121.914 295.201 122.714 296.401 123.781 296.801C124.847 297.201 126.314 299.334 127.114 301.467C127.781 303.601 128.981 305.334 129.647 305.334C131.114 305.334 130.047 298.934 128.447 297.867C127.781 297.467 127.247 296.534 127.247 295.867C127.247 295.201 129.114 295.467 131.247 296.667C133.514 297.867 135.247 298.134 135.247 297.467C135.247 296.001 126.981 292.001 124.047 292.001C122.847 292.001 121.914 292.934 121.914 294.001Z" fill="#28682E"></path><path d="M108.313 296.533C105.379 298.667 105.246 301.333 107.913 301.333C108.979 301.333 109.913 302.267 109.913 303.333C109.913 306.133 113.113 305.867 115.913 302.667C118.446 299.867 116.979 298.8 114.313 301.467C113.113 302.667 112.179 302.4 110.446 300.8C108.313 298.667 108.446 298.4 111.113 297.733C112.579 297.333 113.513 296.533 113.113 295.867C112.179 294.267 110.979 294.4 108.313 296.533Z" fill="#28682E"></path><path d="M145.647 295.334C144.18 297.6 143.913 311.067 145.38 311.6C147.913 312.4 151.247 308.667 151.913 304L152.713 299.334L150.447 304L148.047 308.667L147.247 301.334C146.847 297.334 146.18 294.667 145.647 295.334Z" fill="#28682E"></path><path d="M172.58 296.001C172.58 296.667 173.913 297.334 175.647 297.334C178.047 297.334 178.18 297.067 176.58 296.001C174.047 294.267 172.58 294.267 172.58 296.001Z" fill="#28682E"></path><path d="M340.713 322.801C337.38 323.468 333.913 324.801 332.847 325.868C331.113 327.601 331.513 327.601 336.047 326.001C345.247 322.668 351.913 323.468 361.513 328.935C367.913 332.401 372.58 334.001 378.447 334.535C385.647 335.201 386.58 335.735 386.98 338.401C387.513 342.135 384.58 345.868 379.113 348.001C371.513 351.201 375.247 355.735 386.58 356.935C395.647 357.868 396.447 359.335 393.38 367.868C390.98 374.801 390.58 378.668 392.58 378.668C393.38 378.668 393.913 377.735 393.913 376.535C393.913 375.468 395.113 371.868 396.713 368.535C400.18 360.801 399.647 356.801 395.247 356.268C386.98 355.335 377.913 353.068 377.913 351.868C377.913 351.201 380.18 349.601 383.113 348.135C388.447 345.335 389.913 343.201 389.913 338.135C389.913 334.401 385.113 332.001 377.913 332.001C374.58 332.001 369.513 330.268 363.913 327.335C353.647 322.001 348.847 321.068 340.713 322.801Z" fill="#28682E"></path><path d="M90.7139 367.467C86.4473 374.267 81.1139 381.601 78.9806 383.601C75.1139 387.201 74.7139 387.334 59.2473 387.334C48.3139 387.334 42.8473 387.867 41.7806 388.934C39.2473 391.467 37.9139 391.067 37.9139 387.601C37.9139 381.601 36.3139 378.667 33.3806 378.801C31.9139 378.801 31.3806 379.201 32.3139 379.601C33.3806 380.001 33.9139 383.201 33.9139 388.801C33.9139 397.467 34.8473 398.934 38.0473 395.201C42.1806 390.267 46.9806 389.067 60.3139 390.001C72.4473 390.801 73.5139 390.667 77.9139 387.734C80.4473 386.001 84.8473 381.334 87.5139 377.334C92.5806 369.734 99.7806 356.001 98.9806 355.334C98.7139 355.201 95.1139 360.534 90.7139 367.467Z" fill="#28682E"></path><path d="M29.5139 368.8C27.5139 372 24.5806 375.2 22.9806 375.866C12.1806 380 8.31393 382.133 7.11393 384.133C5.51393 387.2 5.64726 394.8 7.24726 397.333C8.1806 398.8 8.5806 397.333 8.5806 392.4C8.5806 386.266 8.9806 385.2 12.5806 382.666C14.7139 381.066 16.9806 380.133 17.6473 380.533C18.1806 380.8 21.1139 380 24.1806 378.666C28.5806 376.8 30.0473 375.066 31.9139 370.133C35.1139 362 34.0473 361.333 29.5139 368.8Z" fill="#28682E"></path><path d="M381.246 381.334C375.646 392.267 381.513 400.134 403.646 411.467C419.646 419.601 430.846 427.467 437.913 435.601C449.379 448.534 460.446 470.534 461.646 482.801C462.179 488.534 461.779 489.467 457.113 494.667C453.913 498.134 452.579 500.667 453.513 500.934C463.646 504.401 476.046 523.467 517.513 600.001C532.313 627.334 537.113 634.801 547.246 646.534C553.779 654.134 574.179 670.401 577.646 670.801C578.179 670.801 583.913 674.534 590.579 679.067C604.979 689.067 611.246 696.534 611.246 704.134C611.246 714.267 605.513 721.867 579.913 745.201C571.379 752.934 570.579 754.001 575.779 750.401C586.046 743.334 601.379 730.267 606.713 723.867C622.579 704.934 616.979 690.801 586.179 672.134C552.846 652.001 544.046 642.267 520.846 600.001C481.913 528.801 479.646 524.934 469.113 511.734C465.113 506.801 460.579 502.001 458.979 501.201C456.313 499.734 456.313 499.734 459.779 496.534C467.246 489.601 466.313 477.467 456.713 458.134C445.379 435.067 432.713 422.934 407.113 410.001C383.913 398.267 378.446 391.467 383.779 380.934C384.846 378.934 385.246 377.334 384.579 377.334C383.913 377.334 382.446 379.067 381.246 381.334Z" fill="#28682E"></path><path d="M100.18 414.266C98.8463 415.466 99.2463 441.466 100.58 444.666C101.246 446.4 101.78 441.066 101.78 430.266C101.913 420.933 101.78 413.333 101.513 413.333C101.246 413.333 100.58 413.733 100.18 414.266Z" fill="#28682E"></path><path d="M42.3135 458.935C38.9802 463.201 37.2469 472.001 37.3802 485.335C37.5135 497.601 38.0469 500.935 42.0469 512.668C46.0469 524.535 46.5802 527.468 46.5802 540.001C46.4469 552.935 46.5802 553.601 48.0469 548.668C50.9802 539.335 50.3135 528.268 46.0469 515.335C39.1135 493.735 37.9135 474.801 42.7135 462.801C44.7135 458.001 44.4469 456.135 42.3135 458.935Z" fill="#28682E"></path></svg> 