<?xml version="1.0" encoding="UTF-8"?> <svg xmlns="http://www.w3.org/2000/svg" width="261" height="105" viewBox="0 0 261 105" fill="none"><path d="M9.82349 55.7696C12.3568 55.7696 14.8395 56.0736 17.2715 56.6816C19.7035 57.239 22.1608 57.8216 24.6435 58.4296C27.4302 57.2136 29.8622 55.643 31.9395 53.7176C34.0675 51.7923 36.0435 49.5883 37.8675 47.1056C39.7422 44.5723 41.5915 41.811 43.4155 38.8216C45.2395 35.8323 47.2662 32.7163 49.4955 29.4736C46.5568 28.4603 44.2008 26.915 42.4275 24.8376C40.6542 22.7096 39.7675 19.9736 39.7675 16.6296C39.7675 14.2483 40.3755 11.943 41.5915 9.71362C42.8582 7.43362 44.6822 5.48296 47.0635 3.86162C43.6182 3.00029 40.3755 2.56962 37.3355 2.56962C33.0288 2.56962 28.8488 3.30429 24.7955 4.77362C20.7422 6.24296 17.1448 8.24429 14.0035 10.7776C10.9128 13.2603 8.43016 16.1483 6.55549 19.4416C4.68083 22.735 3.74349 26.2056 3.74349 29.8536C3.74349 31.6776 4.07283 33.3496 4.73149 34.8696C5.44083 36.339 6.37816 37.6056 7.54349 38.6696C8.75949 39.7336 10.1782 40.5696 11.7995 41.1776C13.4208 41.735 15.1688 42.0136 17.0435 42.0136C19.3235 42.0136 21.6288 41.6336 23.9595 40.8736C26.2902 40.1136 28.3928 39.075 30.2675 37.7576C32.1928 36.3896 33.7382 34.7936 34.9035 32.9696C36.1195 31.1456 36.7275 29.195 36.7275 27.1176C36.7275 24.9896 35.9675 23.2923 34.4475 22.0256C32.9275 20.7083 30.7488 20.0496 27.9115 20.0496C27.0502 20.0496 26.0875 20.2016 25.0235 20.5056C24.0102 20.8096 22.9715 21.291 21.9075 21.9496C20.8942 22.5576 19.9568 23.343 19.0955 24.3056C18.2848 25.2683 17.6515 26.4083 17.1955 27.7256L16.4355 27.6496C16.8408 26.3323 17.4488 25.167 18.2595 24.1536C19.1208 23.1403 20.0835 22.279 21.1475 21.5696C22.2115 20.8603 23.3262 20.3283 24.4915 19.9736C25.7075 19.5683 26.8982 19.3656 28.0635 19.3656C29.3302 19.3656 30.5462 19.5176 31.7115 19.8216C32.8768 20.1256 33.8902 20.607 34.7515 21.2656C35.6128 21.8736 36.2968 22.6843 36.8035 23.6976C37.3102 24.6603 37.5635 25.8003 37.5635 27.1176C37.5635 29.347 36.9302 31.4243 35.6635 33.3496C34.4475 35.2243 32.8515 36.871 30.8755 38.2896C28.8995 39.7083 26.6702 40.823 24.1875 41.6336C21.7555 42.3936 19.3235 42.7736 16.8915 42.7736C14.4088 42.7736 12.1542 42.4696 10.1275 41.8616C8.10083 41.203 6.37816 40.291 4.95949 39.1256C3.54083 37.9603 2.45149 36.5416 1.69149 34.8696C0.931494 33.147 0.551494 31.247 0.551494 29.1696C0.551494 25.167 1.61549 21.4936 3.74349 18.1496C5.92216 14.755 8.75949 11.867 12.2555 9.48562C15.7515 7.10429 19.6782 5.25496 24.0355 3.93762C28.4435 2.56962 32.8768 1.88562 37.3355 1.88562C39.1088 1.88562 40.8822 2.01229 42.6555 2.26562C44.4288 2.51895 46.1768 2.87362 47.8995 3.32962C49.5208 2.31629 51.3195 1.53096 53.2955 0.973624C55.2715 0.416288 57.4755 0.137621 59.9075 0.137621C61.9342 0.137621 64.0622 0.492287 66.2915 1.20162C68.5208 1.91095 70.3955 2.87362 71.9155 4.08962L71.4595 4.62162C69.6862 3.25362 67.7608 2.29095 65.6835 1.73362C63.6062 1.17629 61.7062 0.897624 59.9835 0.897624C56.1328 0.897624 52.6115 1.83496 49.4195 3.70962C52.6115 4.72296 55.5502 6.11629 58.2355 7.88962C60.9208 9.61229 63.2262 11.6896 65.1515 14.1216C67.2795 12.9563 69.4835 12.0443 71.7635 11.3856C74.0942 10.6763 76.5515 10.3216 79.1355 10.3216C80.1995 10.3216 81.2888 10.423 82.4035 10.6256C83.5182 10.7776 84.5315 11.0816 85.4435 11.5376C86.3555 11.9936 87.0902 12.6016 87.6475 13.3616C88.2555 14.071 88.5595 14.9576 88.5595 16.0216C88.5595 17.5416 88.0528 19.011 87.0395 20.4296C86.0768 21.7976 84.7595 23.0643 83.0875 24.2296C81.4155 25.395 79.4902 26.4336 77.3115 27.3456C75.1328 28.2576 72.8275 29.0176 70.3955 29.6256C70.3955 33.831 69.5595 37.8336 67.8875 41.6336C66.2155 45.4336 63.8595 48.7523 60.8195 51.5896C57.8302 54.427 54.2075 56.6816 49.9515 58.3536C45.7462 60.0256 41.0848 60.8616 35.9675 60.8616C34.2955 60.8616 32.6742 60.735 31.1035 60.4816C29.5328 60.279 27.9875 60.0003 26.4675 59.6456C24.3902 60.355 22.1355 60.887 19.7035 61.2416C17.3222 61.647 14.6622 61.8496 11.7235 61.8496C10.4568 61.8496 9.21549 61.799 7.99949 61.6976C6.83416 61.5963 5.77016 61.419 4.80749 61.1656C3.89549 60.963 3.13549 60.659 2.52749 60.2536C1.97016 59.8483 1.69149 59.3163 1.69149 58.6576C1.69149 57.7963 2.42616 57.1123 3.89549 56.6056C5.41549 56.0483 7.39149 55.7696 9.82349 55.7696ZM51.2435 34.5656C49.2168 37.707 47.2915 40.595 45.4675 43.2296C43.6942 45.8136 41.8702 48.1443 39.9955 50.2216C38.1715 52.2483 36.2462 54.0216 34.2195 55.5416C32.2435 57.011 30.0902 58.227 27.7595 59.1896C29.0768 59.443 30.4195 59.6456 31.7875 59.7976C33.1555 60.0003 34.5488 60.1016 35.9675 60.1016C41.1862 60.1016 45.8475 59.2656 49.9515 57.5936C54.1062 55.9216 57.6022 53.6923 60.4395 50.9056C63.3275 48.119 65.5315 44.927 67.0515 41.3296C68.5715 37.6816 69.3315 33.8816 69.3315 29.9296C65.9368 30.639 62.6688 30.9936 59.5275 30.9936C58.5142 30.9936 57.5262 30.9683 56.5635 30.9176C55.6515 30.8163 54.7395 30.715 53.8275 30.6136C53.3715 31.2723 52.9155 31.931 52.4595 32.5896C52.0542 33.2483 51.6488 33.907 51.2435 34.5656ZM41.7435 16.2496C41.7435 19.2896 42.4782 21.8483 43.9475 23.9256C45.4675 26.003 47.5195 27.5736 50.1035 28.6376C52.2315 25.6483 54.4608 22.963 56.7915 20.5816C59.1222 18.2003 61.6555 16.199 64.3915 14.5776C62.4155 11.9936 60.0342 9.86562 57.2475 8.19362C54.4608 6.47096 51.5475 5.15362 48.5075 4.24162C46.5315 5.55896 44.9102 7.23096 43.6435 9.25762C42.3768 11.2843 41.7435 13.615 41.7435 16.2496ZM80.0475 11.3096C77.6662 11.3096 75.3608 11.791 73.1315 12.7536C70.9528 13.6656 68.8248 14.907 66.7475 16.4776C67.8622 18.251 68.7235 20.2016 69.3315 22.3296C69.9395 24.407 70.2942 26.6363 70.3955 29.0176C72.6755 28.4603 74.8288 27.7256 76.8555 26.8136C78.9328 25.9016 80.7315 24.8883 82.2515 23.7736C83.8222 22.659 85.0382 21.443 85.8995 20.1256C86.8115 18.8083 87.2675 17.4403 87.2675 16.0216C87.2675 15.1603 87.0395 14.451 86.5835 13.8936C86.1275 13.2856 85.5195 12.8043 84.7595 12.4496C84.0502 12.0443 83.2648 11.7656 82.4035 11.6136C81.5928 11.411 80.8075 11.3096 80.0475 11.3096ZM65.9875 17.0856C63.8088 18.859 61.7315 20.8603 59.7555 23.0896C57.8302 25.2683 56.0315 27.523 54.3595 29.8536C56.0822 30.1576 57.9062 30.3096 59.8315 30.3096C62.9222 30.3096 66.0888 29.955 69.3315 29.2456C69.2302 26.8643 68.9008 24.6856 68.3435 22.7096C67.7862 20.683 67.0008 18.8083 65.9875 17.0856ZM10.9635 60.9376C15.7768 60.9376 19.9568 60.279 23.5035 58.9616C21.2742 58.4043 19.0448 57.8976 16.8155 57.4416C14.5862 56.935 12.2555 56.6816 9.82349 56.6816C9.16483 56.6816 8.45549 56.7323 7.69549 56.8336C6.98616 56.8843 6.32749 56.9856 5.71949 57.1376C5.11149 57.2896 4.60483 57.4923 4.19949 57.7456C3.79416 57.9483 3.59149 58.227 3.59149 58.5816C3.59149 59.0883 3.87016 59.4936 4.42749 59.7976C4.98483 60.1016 5.66883 60.3296 6.47949 60.4816C7.29016 60.6843 8.10083 60.811 8.91149 60.8616C9.72216 60.9123 10.4062 60.9376 10.9635 60.9376ZM86.1002 59.5696C85.2388 59.5696 84.5042 59.3923 83.8962 59.0376C83.2882 58.6323 82.9842 58.0243 82.9842 57.2136C82.9842 56.555 83.1615 55.8456 83.5162 55.0856C83.8708 54.275 84.3268 53.4643 84.8842 52.6536C85.4415 51.843 86.0242 51.0323 86.6322 50.2216C87.2402 49.411 87.8228 48.651 88.3802 47.9416C88.9375 47.131 89.2162 46.5736 89.2162 46.2696C89.2162 45.6616 88.8108 45.3576 88.0002 45.3576C86.9362 45.3576 85.7708 45.915 84.5042 47.0296C83.2882 48.1443 82.0975 49.4616 80.9322 50.9816C79.8175 52.451 78.7788 53.9456 77.8162 55.4656C76.9042 56.9856 76.1948 58.1763 75.6882 59.0376L53.5722 96.2016C53.1668 96.8096 52.6855 97.5443 52.1282 98.4056C51.5708 99.3176 50.9628 100.179 50.3042 100.99C49.5948 101.851 48.8855 102.56 48.1762 103.118C47.4668 103.726 46.7828 104.03 46.1242 104.03C45.2628 104.03 44.7055 103.776 44.4522 103.27C44.1988 102.814 44.0722 102.256 44.0722 101.598C44.0722 100.432 44.5282 98.9376 45.4402 97.1136C46.3015 95.3403 47.2388 93.5163 48.2522 91.6416C50.3802 87.791 52.6602 83.8136 55.0922 79.7096C57.4735 75.6563 59.9308 71.5776 62.4642 67.4736C64.9468 63.4203 67.4295 59.443 69.9122 55.5416C72.4455 51.5896 74.8775 47.8656 77.2082 44.3696L70.7482 51.8936L70.2162 51.5136C72.1415 49.2336 74.0922 46.9283 76.0682 44.5976C78.0948 42.2163 80.1468 39.6576 82.2242 36.9216L83.2122 35.4776C84.0735 34.2616 85.0615 33.6536 86.1762 33.6536H86.8602C87.2655 33.6536 87.4682 33.8056 87.4682 34.1096C87.4682 34.1603 87.4428 34.2363 87.3922 34.3376C87.3922 34.3883 87.3415 34.515 87.2402 34.7176L84.2002 39.4296C83.4402 40.595 82.3508 42.2923 80.9322 44.5216C79.5135 46.751 77.8922 49.3096 76.0682 52.1976C74.2442 55.035 72.2935 58.1003 70.2162 61.3936C68.1388 64.687 66.0868 67.9803 64.0602 71.2736C61.9828 74.6176 60.0068 77.835 58.1322 80.9256C56.2068 84.067 54.5095 86.9043 53.0402 89.4376C51.5708 92.0216 50.3548 94.2003 49.3922 95.9736C48.4295 97.747 47.8975 98.9376 47.7962 99.5456C47.6948 100.052 47.6442 100.356 47.6442 100.458C47.6442 101.015 47.8468 101.294 48.2522 101.294C48.8095 101.294 49.4428 100.812 50.1522 99.8496C50.8108 98.9376 51.8242 97.3416 53.1922 95.0616C56.9415 88.931 60.6148 82.8256 64.2122 76.7456C67.8095 70.7163 71.4068 64.6616 75.0042 58.5816C75.7642 57.2643 76.6762 55.7696 77.7402 54.0976C78.8042 52.375 79.9442 50.7536 81.1602 49.2336C82.4268 47.7136 83.7695 46.447 85.1882 45.4336C86.6068 44.3696 88.0508 43.8376 89.5202 43.8376C90.4322 43.8376 91.1922 44.0656 91.8002 44.5216C92.4082 44.9776 92.7122 45.6363 92.7122 46.4976C92.7122 47.2576 92.3828 48.1443 91.7242 49.1576C91.1162 50.1203 90.4322 51.1336 89.6722 52.1976C88.9628 53.211 88.2788 54.1736 87.6202 55.0856C87.0122 55.9976 86.7082 56.7576 86.7082 57.3656C86.7082 57.923 87.0375 58.2016 87.6962 58.2016C89.0135 58.2016 90.2802 57.6443 91.4962 56.5296C92.7122 55.3643 94.3588 53.5656 96.4362 51.1336L96.9682 51.5136C96.1575 52.4763 95.3468 53.439 94.5362 54.4016C93.7762 55.3643 92.9655 56.2256 92.1042 56.9856C91.2428 57.7456 90.3308 58.379 89.3682 58.8856C88.4055 59.3416 87.3162 59.5696 86.1002 59.5696ZM99.5296 53.2616C101.202 52.9576 102.57 52.527 103.634 51.9696C104.698 51.4123 105.534 50.8296 106.142 50.2216C106.75 49.563 107.155 48.9296 107.358 48.3216C107.611 47.663 107.738 47.0803 107.738 46.5736C107.738 46.0163 107.611 45.6616 107.358 45.5096C107.104 45.307 106.8 45.2056 106.446 45.2056C105.331 45.2056 104.166 45.991 102.95 47.5616C101.734 49.0816 100.594 50.9816 99.5296 53.2616ZM101.278 58.5816C101.784 58.5816 102.342 58.531 102.95 58.4296C103.608 58.3283 104.394 58.0243 105.306 57.5176C106.218 57.011 107.256 56.2256 108.422 55.1616C109.638 54.0976 111.082 52.603 112.754 50.6776L113.286 51.0576C111.614 53.0336 110.119 54.6043 108.802 55.7696C107.535 56.8843 106.37 57.7456 105.306 58.3536C104.242 58.911 103.254 59.2656 102.342 59.4176C101.48 59.6203 100.619 59.7216 99.7576 59.7216C97.883 59.7216 96.6416 59.3163 96.0336 58.5056C95.4256 57.6443 95.1216 56.783 95.1216 55.9216C95.1216 54.5536 95.451 53.1856 96.1096 51.8176C96.819 50.399 97.731 49.1323 98.8456 48.0176C100.011 46.8523 101.303 45.915 102.722 45.2056C104.14 44.4456 105.61 44.0656 107.13 44.0656C108.65 44.0656 109.638 44.3696 110.094 44.9776C110.55 45.535 110.778 46.0923 110.778 46.6496C110.778 47.7136 110.398 48.6763 109.638 49.5376C108.928 50.3483 108.016 51.0576 106.902 51.6656C105.787 52.223 104.546 52.7043 103.178 53.1096C101.81 53.4643 100.518 53.743 99.3016 53.9456C99.1496 54.2496 99.023 54.655 98.9216 55.1616C98.8203 55.6176 98.7696 56.0483 98.7696 56.4536C98.7696 57.163 98.9976 57.695 99.4536 58.0496C99.9603 58.4043 100.568 58.5816 101.278 58.5816ZM130.012 50.6016C129.15 51.615 128.162 52.679 127.048 53.7936C125.984 54.8576 124.844 55.8456 123.628 56.7576C122.412 57.619 121.094 58.3283 119.676 58.8856C118.308 59.443 116.889 59.7216 115.42 59.7216C113.646 59.7216 112.405 59.3416 111.696 58.5816C111.037 57.8216 110.708 56.935 110.708 55.9216C110.708 54.7056 111.062 53.4136 111.772 52.0456C112.481 50.627 113.418 49.335 114.584 48.1696C115.8 47.0043 117.168 46.0416 118.688 45.2816C120.258 44.471 121.854 44.0656 123.476 44.0656C124.894 44.0656 125.984 44.3696 126.744 44.9776C127.554 45.535 127.96 46.2696 127.96 47.1816C127.96 47.739 127.757 48.271 127.352 48.7776C126.946 49.2843 126.414 49.5376 125.756 49.5376C125.198 49.5376 124.768 49.411 124.464 49.1576C124.21 48.9043 124.084 48.6256 124.084 48.3216C124.084 47.967 124.185 47.663 124.388 47.4096C124.641 47.1056 124.768 46.751 124.768 46.3456C124.768 45.991 124.641 45.687 124.388 45.4336C124.185 45.1296 123.856 44.9776 123.4 44.9776C122.437 45.079 121.424 45.5603 120.36 46.4216C119.296 47.2323 118.308 48.2203 117.396 49.3856C116.534 50.551 115.8 51.7923 115.192 53.1096C114.634 54.3763 114.356 55.491 114.356 56.4536C114.356 56.9096 114.508 57.391 114.812 57.8976C115.116 58.3536 115.825 58.5816 116.94 58.5816C119.068 58.5816 121.145 57.7963 123.172 56.2256C125.249 54.655 127.352 52.6536 129.48 50.2216L130.012 50.6016ZM146.265 50.6016C145.404 51.615 144.416 52.679 143.301 53.7936C142.237 54.8576 141.097 55.8456 139.881 56.7576C138.665 57.619 137.348 58.3283 135.929 58.8856C134.561 59.443 133.143 59.7216 131.673 59.7216C129.9 59.7216 128.659 59.3416 127.949 58.5816C127.291 57.8216 126.961 56.935 126.961 55.9216C126.961 54.7056 127.316 53.4136 128.025 52.0456C128.735 50.627 129.672 49.335 130.837 48.1696C132.053 47.0043 133.421 46.0416 134.941 45.2816C136.512 44.471 138.108 44.0656 139.729 44.0656C141.148 44.0656 142.237 44.3696 142.997 44.9776C143.808 45.535 144.213 46.2696 144.213 47.1816C144.213 47.739 144.011 48.271 143.605 48.7776C143.2 49.2843 142.668 49.5376 142.009 49.5376C141.452 49.5376 141.021 49.411 140.717 49.1576C140.464 48.9043 140.337 48.6256 140.337 48.3216C140.337 47.967 140.439 47.663 140.641 47.4096C140.895 47.1056 141.021 46.751 141.021 46.3456C141.021 45.991 140.895 45.687 140.641 45.4336C140.439 45.1296 140.109 44.9776 139.653 44.9776C138.691 45.079 137.677 45.5603 136.613 46.4216C135.549 47.2323 134.561 48.2203 133.649 49.3856C132.788 50.551 132.053 51.7923 131.445 53.1096C130.888 54.3763 130.609 55.491 130.609 56.4536C130.609 56.9096 130.761 57.391 131.065 57.8976C131.369 58.3536 132.079 58.5816 133.193 58.5816C135.321 58.5816 137.399 57.7963 139.425 56.2256C141.503 54.655 143.605 52.6536 145.733 50.2216L146.265 50.6016ZM166.837 49.8416C167.141 49.8416 167.521 49.867 167.977 49.9176C168.433 49.9683 168.965 50.0696 169.573 50.2216C170.738 50.475 171.701 50.627 172.461 50.6776C173.221 50.6776 173.955 50.551 174.665 50.2976L174.817 50.7536C174.361 51.1083 173.575 51.463 172.461 51.8176C171.397 52.1216 170.282 52.2736 169.117 52.2736C168.357 52.2736 167.647 52.223 166.989 52.1216C166.381 51.9696 165.798 51.843 165.241 51.7416C164.683 51.6403 164.101 51.5896 163.493 51.5896C162.935 51.5896 162.277 51.691 161.517 51.8936L161.365 51.4376C162.023 50.9816 162.859 50.6016 163.873 50.2976C164.937 49.9936 165.925 49.8416 166.837 49.8416ZM207.66 59.5696C205.785 59.5696 204.848 58.7843 204.848 57.2136C204.848 56.6563 204.924 56.023 205.076 55.3136C205.278 54.6043 205.38 53.9963 205.38 53.4896C205.38 52.7296 205.177 52.147 204.772 51.7416C204.417 51.3363 203.733 51.1083 202.72 51.0576L198.464 57.6696C197.957 58.4296 197.552 58.8856 197.248 59.0376C196.944 59.1896 196.589 59.2656 196.184 59.2656H194.208C193.853 59.2656 193.676 59.1136 193.676 58.8096C193.676 58.6576 193.752 58.455 193.904 58.2016C194.461 57.4416 194.942 56.7576 195.348 56.1496C195.753 55.5416 196.108 54.9843 196.412 54.4776C196.766 53.971 197.096 53.4896 197.4 53.0336C197.704 52.527 198.058 51.995 198.464 51.4376C199.021 50.627 199.604 49.6896 200.212 48.6256C200.82 47.511 201.124 46.675 201.124 46.1176C201.124 45.5603 200.845 45.2816 200.288 45.2816C199.832 45.2816 199.3 45.4843 198.692 45.8896C198.134 46.2443 197.526 46.751 196.868 47.4096C196.209 48.0683 195.5 48.803 194.74 49.6136C194.03 50.4243 193.321 51.235 192.612 52.0456L192.004 51.7416C192.916 50.7283 193.777 49.7656 194.588 48.8536C195.449 47.891 196.285 47.055 197.096 46.3456C197.906 45.5856 198.717 45.003 199.528 44.5976C200.338 44.1416 201.124 43.9136 201.884 43.9136C202.948 43.9136 203.682 44.1163 204.088 44.5216C204.544 44.927 204.772 45.4336 204.772 46.0416C204.772 46.599 204.645 47.1816 204.392 47.7896C204.189 48.3976 203.961 48.9296 203.708 49.3856C205.633 47.6123 207.406 46.2443 209.028 45.2816C210.7 44.319 212.017 43.8376 212.98 43.8376C213.942 43.8376 214.424 44.319 214.424 45.2816C214.424 45.991 214.145 46.9536 213.588 48.1696L212.828 48.0176C212.828 46.8523 212.27 46.2696 211.156 46.2696C210.396 46.2696 209.408 46.5736 208.192 47.1816C206.976 47.739 205.481 48.727 203.708 50.1456V50.2216C204.012 50.171 204.29 50.1456 204.544 50.1456C204.848 50.095 205.126 50.0696 205.38 50.0696C207.812 50.0696 209.028 51.1843 209.028 53.4136C209.028 53.971 208.952 54.6043 208.8 55.3136C208.698 55.9723 208.648 56.5043 208.648 56.9096C208.648 57.771 209.002 58.2016 209.712 58.2016C210.37 58.2016 210.978 58.075 211.536 57.8216C212.093 57.5683 212.676 57.1883 213.284 56.6816C213.942 56.1243 214.626 55.415 215.336 54.5536C216.096 53.6923 217.008 52.6536 218.072 51.4376L218.604 51.8176C217.793 52.7803 216.982 53.7176 216.172 54.6296C215.412 55.5416 214.601 56.3776 213.74 57.1376C212.878 57.847 211.941 58.4296 210.928 58.8856C209.965 59.3416 208.876 59.5696 207.66 59.5696ZM229.764 44.8256C228.852 44.8256 227.839 45.2563 226.724 46.1176C225.609 46.9283 224.571 47.967 223.608 49.2336C222.696 50.4496 221.911 51.767 221.252 53.1856C220.593 54.6043 220.264 55.8963 220.264 57.0616C220.264 57.5176 220.416 57.9483 220.72 58.3536C221.024 58.759 221.556 58.9616 222.316 58.9616C223.431 58.9616 224.571 58.5056 225.736 57.5936C226.901 56.631 227.94 55.5163 228.852 54.2496C229.815 52.9323 230.575 51.5896 231.132 50.2216C231.74 48.8536 232.044 47.7136 232.044 46.8016C232.044 45.4843 231.284 44.8256 229.764 44.8256ZM230.144 43.9896C231.917 43.9896 233.184 44.3696 233.944 45.1296C234.755 45.8896 235.16 46.751 235.16 47.7136C235.16 48.9296 234.755 50.247 233.944 51.6656C233.133 53.0336 232.069 54.3256 230.752 55.5416C229.485 56.7576 228.016 57.771 226.344 58.5816C224.723 59.3416 223.076 59.7216 221.404 59.7216C219.732 59.7216 218.516 59.4176 217.756 58.8096C217.047 58.151 216.692 57.239 216.692 56.0736C216.692 54.8576 217.047 53.5403 217.756 52.1216C218.465 50.703 219.428 49.3856 220.644 48.1696C221.86 46.9536 223.279 45.9656 224.9 45.2056C226.572 44.395 228.32 43.9896 230.144 43.9896ZM245.871 65.1176C247.188 64.0536 248.404 63.015 249.519 62.0016C250.684 60.9883 251.799 59.9496 252.863 58.8856C253.927 57.771 255.016 56.5803 256.131 55.3136C257.245 54.047 258.461 52.6536 259.779 51.1336L260.311 51.5136C258.537 53.6416 256.967 55.4656 255.599 56.9856C254.281 58.455 253.04 59.747 251.875 60.8616C250.709 62.027 249.569 63.0656 248.455 63.9776C247.34 64.9403 246.124 65.9536 244.807 67.0176C241.007 74.263 237.308 80.4696 233.711 85.6376C230.113 90.8563 226.263 95.239 222.159 98.7856C220.385 100.306 218.587 101.522 216.763 102.434C214.888 103.396 213.14 103.878 211.519 103.878C210.252 103.878 209.315 103.523 208.707 102.814C208.099 102.155 207.795 101.319 207.795 100.306C207.795 97.823 208.833 95.163 210.911 92.3256C212.937 89.4883 215.547 86.6256 218.739 83.7376C221.88 80.8496 225.376 78.0376 229.227 75.3016C233.077 72.5656 236.827 70.0576 240.475 67.7776C241.235 66.5616 241.868 65.4723 242.375 64.5096C242.932 63.5976 243.464 62.6856 243.971 61.7736C244.477 60.8616 245.035 59.8736 245.643 58.8096C246.251 57.7456 246.985 56.4536 247.847 54.9336H247.771C246.453 56.403 245.111 57.5683 243.743 58.4296C242.375 59.2403 241.007 59.6456 239.639 59.6456C238.119 59.6456 237.08 59.3163 236.523 58.6576C236.016 57.999 235.763 57.2643 235.763 56.4536C235.763 55.0856 236.143 53.667 236.903 52.1976C237.713 50.7283 238.752 49.3856 240.019 48.1696C241.285 46.9536 242.704 45.9656 244.275 45.2056C245.845 44.4456 247.416 44.0656 248.987 44.0656C250.304 44.0656 251.267 44.319 251.875 44.8256C252.483 45.2816 252.913 45.8136 253.167 46.4216L253.623 45.7376C253.876 45.3323 254.18 45.003 254.535 44.7496C254.94 44.4456 255.421 44.2936 255.979 44.2936H257.119C257.524 44.2936 257.727 44.4456 257.727 44.7496C257.727 44.8003 257.701 44.8763 257.651 44.9776C257.651 45.079 257.6 45.231 257.499 45.4336C255.573 48.7776 253.648 52.071 251.723 55.3136C249.848 58.5056 247.897 61.7736 245.871 65.1176ZM239.715 69.3736C233.989 72.9203 229.303 76.239 225.655 79.3296C222.007 82.4203 219.169 85.2576 217.143 87.8416C215.065 90.4763 213.647 92.8576 212.887 94.9856C212.127 97.1136 211.747 98.963 211.747 100.534C211.747 101.142 211.873 101.623 212.127 101.978C212.329 102.383 212.709 102.586 213.267 102.586C214.432 102.586 215.8 101.952 217.371 100.686C218.891 99.419 220.512 97.7723 222.235 95.7456C223.907 93.7696 225.604 91.5403 227.327 89.0576C229.049 86.575 230.696 84.0923 232.267 81.6096C233.837 79.1776 235.256 76.8723 236.523 74.6936C237.84 72.515 238.904 70.7416 239.715 69.3736ZM249.443 44.9016C248.328 44.9016 247.163 45.3576 245.947 46.2696C244.781 47.1816 243.692 48.271 242.679 49.5376C241.716 50.7536 240.905 52.0456 240.247 53.4136C239.588 54.7816 239.259 55.9216 239.259 56.8336C239.259 57.1883 239.335 57.5936 239.487 58.0496C239.639 58.455 240.12 58.6576 240.931 58.6576C241.589 58.6576 242.299 58.4296 243.059 57.9736C243.869 57.5176 244.655 56.935 245.415 56.2256C246.175 55.5163 246.909 54.731 247.619 53.8696C248.379 53.0083 249.063 52.147 249.671 51.2856C250.228 50.475 250.709 49.715 251.115 49.0056C251.52 48.2963 251.723 47.5616 251.723 46.8016C251.672 46.0923 251.419 45.611 250.963 45.3576C250.507 45.0536 250 44.9016 249.443 44.9016Z" fill="#112250"></path></svg> 