<?xml version="1.0" encoding="UTF-8"?> <svg xmlns="http://www.w3.org/2000/svg" width="164" height="188" viewBox="0 0 164 188" fill="none"><path d="M49.2768 23.3496C49.2492 25.5213 51.8611 30.2214 55.4525 34.3078C57.3481 36.537 57.0693 35.4313 54.6688 31.4801C53.4759 29.4383 52.0717 26.6474 51.4814 25.211C50.4947 22.5213 49.3159 21.5551 49.2768 23.3496Z" fill="#28682E"></path><path d="M82.8701 13.6314C82.7019 14.9011 83.2672 19.2076 84.0503 23.2435C84.279 24.5582 84.5957 26.2858 84.7718 27.1112C84.9594 28.3139 85.0564 28.4055 85.2362 27.5131C85.416 26.6206 84.5171 13.2815 84.1882 12.3849C83.9415 11.7125 83.0089 12.6268 82.8701 13.6314Z" fill="#28682E"></path><path d="M18.6645 53.9699C20.8106 55.1535 24.4861 55.8396 31.0201 56.3671C38.348 56.9849 36.6868 56.2591 26.3983 54.3116C17.8917 52.7276 16.1567 52.6647 18.6645 53.9699Z" fill="#28682E"></path><path d="M72.2499 46.3922C70.5086 47.3489 65.1932 50.316 60.3956 52.9661C55.6185 55.6721 51.1504 58.0106 50.4798 58.2566C49.215 58.7842 48.7635 61.8743 49.1812 67.5065C49.3039 69.0509 49.2943 70.5802 49.1382 71.0189C48.7907 71.9729 49.5044 73.7455 50.175 73.4995C50.5103 73.3765 50.7781 72.8968 50.7814 72.387C50.8141 71.6121 51.0376 71.5301 52.4932 71.6955C53.4195 71.8007 56.4044 71.4686 59.1749 70.8973L64.1922 69.8832L71.3551 76.7919C75.2967 80.6228 78.468 83.9097 78.362 84.1394C78.256 84.369 76.0059 85.3216 73.3588 86.2291C70.3764 87.2596 69.0969 87.9197 70.0379 87.8923C74.9255 87.5616 84.0088 82.7672 90.3166 77.1473C91.6552 75.9568 93.1878 74.9496 93.7113 74.8211C94.2554 74.7487 92.1517 76.7919 89.0628 79.2602C83.6967 83.6446 83.179 83.9617 76.3612 86.4628C72.3934 87.9183 69.2697 89.255 69.3314 89.4231C69.393 89.5912 70.2075 89.7374 71.225 89.7456L72.96 89.8085L71.1923 90.5205C70.0393 91.0071 69.0777 90.9784 68.4957 90.429C67.802 89.9205 67.4814 89.911 67.3665 90.4618C67.2309 90.9565 66.3098 92.2481 65.2712 93.392C60.4781 98.647 57.4928 111.249 57.9626 124.11C58.4208 136.594 61.2949 146.157 66.5436 152.687C75.0074 163.314 91.8665 168.828 108.712 166.526C110.7 166.242 115.629 164.815 119.597 163.359C125.465 161.207 127.618 160.163 130.713 157.883C136.664 153.538 140.545 149.254 143.998 143.282C147.485 137.235 149.462 131.042 150.263 123.373C151.108 115.307 150.589 111.301 147.517 103.273C145.174 96.8853 144.616 95.8821 141.509 92.2535C133.186 82.528 122.62 77.0584 110.234 76.1345C107.95 75.9555 105.859 75.9596 105.565 76.1946C105.326 76.4092 107.067 76.6607 109.519 76.7782C122.382 77.273 136.152 85.2546 143.157 96.2265C149.134 105.605 150.965 119.238 147.847 130.617C143.655 145.633 133.354 156.787 118.489 162.24C105.859 166.873 92.4735 166.507 80.687 161.167C74.1543 158.223 71.5116 156.205 67.6529 151.39C62.2661 144.656 59.5423 134.466 59.5022 120.875C59.459 113.325 60.0171 108.798 61.452 103.376C62.4861 99.6269 64.9269 93.8362 64.5229 96.0188C64.284 97.4416 65.893 96.4698 67.1321 94.4895C68.0827 92.9328 68.2298 92.8152 68.2029 93.7788C68.1759 94.7423 68.3847 94.7929 69.3231 94.0671C69.9115 93.597 70.7793 93.0243 71.2058 92.8043C71.7088 92.6198 72.2971 92.1496 72.5502 91.8025C72.8033 91.4554 73.2356 91.4239 73.4913 91.7752C73.7264 92.0704 74.2145 92.0184 74.4676 91.6713C74.7766 91.3037 78.6268 89.7005 83.0416 88.0809C90.027 85.5184 91.3066 84.8582 93.0248 83.1471C94.1194 81.9827 95.6815 80.7103 96.5904 80.2497C98.723 79.1495 99.8393 75.6247 97.8275 76.3628C97.3246 76.5473 96.8042 76.166 96.4959 75.3254C96.0025 73.9806 94.0594 72.659 93.1653 72.987C92.8859 73.0895 92.6809 71.321 92.6526 69.1698C92.6377 63.7713 90.9584 52.6257 89.9711 51.1442C89.066 49.8868 76.6975 43.9977 75.9004 44.4173C75.6415 44.5758 73.9913 45.4355 72.2499 46.3922ZM79.2278 47.2655C81.1388 48.1539 83.8643 49.1885 85.2903 49.619C88.1571 50.3474 88.8566 51.0444 87.2919 51.6185C86.0624 52.0695 80.0477 59.8707 80.3149 60.5991C80.6849 61.6078 81.9323 60.5144 84.1483 57.222C88.2213 51.2139 89.8895 49.7119 89.4675 52.5369C89.3378 53.2203 89.8003 57.2466 90.498 61.5681C92.4709 73.6867 92.4799 73.3656 89.6408 75.9965C85.0629 80.2825 85.7303 80.5463 83.2783 73.6895C82.0449 70.3274 80.7679 66.1548 80.3953 64.4478C79.6032 60.7331 79.8473 60.7071 71.6549 65.6833C68.6398 67.4887 65.9895 68.906 65.8366 68.8349C65.6837 68.7639 64.6591 65.4523 63.6113 61.3864C61.6771 54.2125 61.7124 54.136 63.0979 53.2462C63.8186 52.7911 65.0571 52.0189 65.8131 51.4873C66.7368 50.8941 67.225 50.8422 67.41 51.3465C67.965 52.8595 78.9332 59.7709 79.3218 58.929C79.4483 58.7554 77.0144 56.7874 73.9337 54.6116C70.9088 52.4153 68.3426 50.4322 68.281 50.2641C68.1576 49.9279 72.5936 47.1562 74.9703 46.03C75.4732 45.8455 77.3727 46.3566 79.2278 47.2655ZM60.6616 56.1109C60.8228 57.0689 61.6534 60.1973 62.5547 63.1727C63.456 66.148 64.1928 68.675 64.1016 68.7721C64.031 68.9251 51.5881 70.4381 51.1147 70.3575C51.0941 70.3014 50.8159 67.9876 50.541 65.164L50.079 59.9295L52.7556 58.7568C54.894 57.8452 59.2651 55.4152 60.2389 54.6129C60.3301 54.5159 60.5209 55.2088 60.6616 56.1109ZM79.7408 67.676C80.4834 70.3916 81.9018 74.258 82.9064 76.3054C84.8599 80.4205 84.795 80.7622 81.5153 82.5376C79.5709 83.6323 79.3975 83.5052 73.7986 77.2306C71.8883 75.1341 69.5546 72.7478 68.5698 71.9647C67.641 71.1611 66.7886 70.393 66.768 70.3369C66.7269 70.2249 67.9859 69.5087 69.5243 68.6901C71.0274 67.9479 73.6513 66.286 75.2694 64.9931C76.908 63.7562 78.2524 62.7544 78.3288 62.79C78.3494 62.846 79.0187 65.0163 79.7408 67.676ZM95.0365 76.878C94.0994 80.7185 91.1633 83.2578 84.9955 85.4569L81.3631 86.7894L84.9962 84.2487C87.0259 82.8683 89.0294 81.2433 89.5208 80.6816C90.068 80.0993 91.221 79.6128 92.0651 79.4939C93.2855 79.3641 93.5238 79.1495 93.1506 78.6506C92.5629 77.9126 93.4313 76.1318 94.6402 75.6247C95.2549 75.3992 95.3371 75.6234 95.0365 76.878Z" fill="#28682E"></path><path d="M108.904 33.9626C105.818 35.9211 102.732 37.8796 102.067 38.3142C99.9965 39.5825 101.896 40.0937 104.287 38.8349C106.196 37.8167 114.501 31.5914 114.987 30.841C115.599 29.9171 113.837 30.8178 108.904 33.9626Z" fill="#28682E"></path><path d="M17.3508 86.6852C17.3065 87.0829 17.7298 87.3727 18.3708 87.3918C20.2882 87.2606 34.7094 81.4616 33.945 81.1063C32.8749 80.6088 17.5306 85.7928 17.3508 86.6852Z" fill="#28682E"></path><path d="M52.367 75.4909C53.1372 76.0349 56.6233 79.1428 60.1299 82.3067C67.2254 88.8587 68.5923 89.8195 66.8881 87.0751C64.8871 83.8675 52.9412 73.9452 51.503 74.3456C51.2589 74.3716 51.6527 74.9265 52.367 75.4909Z" fill="#28682E"></path><path d="M99.7257 76.8733C99.9813 77.2246 100.364 77.4022 100.587 77.3202C101.237 77.0182 100.782 76.2952 100.008 76.261C99.576 76.2925 99.4347 76.5986 99.7257 76.8733Z" fill="#28682E"></path><path d="M94.3888 83.4088C94.4916 83.689 94.8121 83.6985 95.0299 83.4279C95.3035 83.1368 95.4242 82.7746 95.3626 82.6065C95.3215 82.4945 95.0568 82.4644 94.7215 82.5874C94.4421 82.6899 94.2655 83.0726 94.3888 83.4088Z" fill="#28682E"></path><path d="M96.5215 89.746C97.9302 89.6107 99.7063 89.7856 100.45 90.0849C101.194 90.3842 104.849 91.0143 108.478 91.3997C112.183 91.8206 115.976 92.6543 116.878 93.2133C117.781 93.7723 118.733 94.1222 118.957 94.0402C119.739 93.7531 122.984 96.3772 126.044 99.7052C127.566 101.435 129.242 103.237 129.747 103.751C134.165 108.361 136.141 114.438 135.687 122.361C135.334 128.658 135.953 129.829 136.409 123.813C136.986 117.434 136.245 112.302 134.332 108.299C130.954 101.337 122.524 93.0493 115.706 90.0193C110.32 87.6084 103.278 87.0768 98.013 88.6266C94.0395 89.8936 93.9836 89.9141 96.5215 89.746Z" fill="#28682E"></path><path d="M83.4575 95.4289C83.9104 95.4535 84.3928 95.2129 84.4988 94.9833C84.6606 94.7332 84.2637 94.6881 83.6695 94.9697C83.0548 95.1952 82.9488 95.4248 83.4575 95.4289Z" fill="#28682E"></path><path d="M88.9006 93.6869C99.2706 91.5357 107.219 92.1166 114.787 95.6345C124.933 100.305 131.221 108.805 132.298 119.346C132.948 125.783 131.941 132.891 129.922 135.857C126.391 141.094 118.092 146.3 108.666 149.122C97.9898 152.339 89.3804 150.475 82.4204 143.428C73.0503 133.96 71.367 119.001 77.839 102.767C79.3054 98.987 79.4203 98.4363 78.3226 100.11C76.9718 102.132 74.5779 108.223 73.1462 113.135C72.5983 114.926 72.5071 115.023 72.3754 113.799C72.2964 113.066 72.4261 112.382 72.6497 112.3C73.2085 112.095 74.0666 107.521 73.7377 106.624C73.5938 106.232 73.9034 104.656 74.3658 103.151C76.0596 97.5711 73.7028 99.9615 70.9293 106.574C68.9831 111.293 68.4789 113.894 68.3525 119.598C68.2562 123.83 68.7181 123.533 69.2351 118.893C69.6545 115.37 69.7251 115.217 71.004 115.765C71.789 116.176 72.2798 116.823 72.2618 117.465C71.8868 126.122 73.4858 133.419 76.9501 138.887C82.1539 147.023 88.7271 151.287 97.3988 152.111L102.33 152.591L112.927 148.64C124.551 144.375 125.734 143.624 130.159 138.059C132.864 134.714 133.627 131.955 133.857 125.322C133.995 118.787 132.423 111.734 129.807 107.544C123.743 97.7529 113.527 92.0277 101.138 91.6136C96.9505 91.4332 89.9952 92.5225 86.9627 93.7621C86.145 94.1257 87.0096 94.0628 88.9006 93.6869Z" fill="#28682E"></path><path d="M69.9417 130.84C69.9147 131.804 70.3785 133.414 70.9573 134.473C72.0326 136.367 77.1966 141.975 77.4439 141.439C77.5145 141.286 76.3274 139.433 74.7729 137.269C72.9216 134.642 71.8405 132.559 71.5296 131.02C71.0163 128.411 69.9577 128.291 69.9417 130.84Z" fill="#28682E"></path></svg> 