<?xml version="1.0" encoding="UTF-8"?> <svg xmlns="http://www.w3.org/2000/svg" id="_Слой_2" data-name="Слой 2" viewBox="0 0 39.85 25.91"><defs><style> .cls-1 { fill: #29682e; stroke-width: 0px; } </style></defs><g id="_Слой_1-2" data-name="Слой 1"><g><g><path class="cls-1" d="M28.12,5.97l-1.03.28.49,2.29c-.13-.06-.14-.17-.17-.29-.07-.28-.43-1.96-.53-2-.24-.1-.77.24-1.04.25.07.62.33,1.19.46,1.79-.15-.06-.12-.18-.17-.29-.1-.26-.39-1.45-.48-1.54-.05-.05-.95.01-.97.05l.49,1.93c-.36-.28-.46-1.71-.66-1.9-.07-.07-.69,0-.85-.04-.04.06.42,1.12.48,1.32.02.08.12.31,0,.33-.09-.23-.48-1.62-.56-1.69-.05-.04-1.03-.04-1.2-.28.24.93.61,2.32,1.7,2.56.25.06,1.16.02,1.21.05.21.14-.27.2-.36.21-1.38.17-2.07-.57-2.49-1.79-.11-.33-.17-.84-.32-1.15-.11-.23-.42-.24-.18-.63.2-.34,1.06-.63,1.09-.69.04-.09-.09-.36-.08-.48l.17.47.49-.1c-.26-.48-.43-.74-.33-1.31-.17.06-.54,0-.46.23h-.07s-.01-.11-.08-.11c-.46-.06-1.11.25-1.61.03-.07.08.22,1.19.27,1.36.36,1.23.99,2.5,1.31,3.73.1.37-.08.33-.25.1-.28-.36-.91-2.33-1.09-2.89-.25-.8-.28-1.58-.46-2.29-.03-.11-.19-.21-.17-.3.12-.56,2.6-1.46,3.16-1.64,1.51-.48,3.21-.84,4.79-1.01.09-.01.44-.05.49.04-2.22.38-4.4.97-6.43,1.92l.5.47c.46-.12.94-.11,1.39-.19,2.15-.37,5.91-1.22,7.8-2.16.18-.09.67-.31.26-.38-.9-.16-2.21.24-3.13.33-.23,0-.29-.19-.05-.28.57-.22,2.91-.43,3.41-.13.28.17.43.86.53,1.2.36,1.24.51,2.5.74,3.76,0,.28-.27.32-.36,0-.22-.69-.15-1.38-.25-2.05-.14-.9-.39-1.79-.53-2.69-1.15.86-2.68,1.07-4,1.59-.06.02-.16.09-.15.14l.23,1.15,1.2-.16-.24-1.22s.07-.13.12-.13l.26,1.32.93-.04-.28-1.39c.11-.01.15.3.18.39.05.2.14.85.27.97.09.09.76.03.93.1l-.32-2,.12-.13.44,2.23s.45-.01.61.31c.13.26-.16.36-.2.48-.11.34.06.91-.22,1.49-.08.16-.34.45-.28.11.07-.44.45-.73.09-1.3l-.78.44.5,1.42c-.18.07-.13,0-.19-.12-.18-.35-.21-.72-.33-1.05-.12-.31-.85.12-1.03.28.18.41.24.85.34,1.28.01.05.14.25,0,.27-.18.03-.48-1.44-.49-1.57l-1.16.37.53,2.29c.88-.71,2.04-.94,2.94-1.63.24-.18.45-.46.67-.64.09-.08.18-.09.15.04-.03.13-.77.84-.92.96-.65.5-2.56,1.23-2.86,1.83-.06.12-.2.69-.2.83,0,.93.39,2.28.56,3.21.13.69.22,1.38.33,2.07,1.3-.14,2.1-2.07,3.11-2.42.43-.15,1.76-.29,2.24-.29,1.44.02,2.31,1.8,2.21,3.08-.14,1.86-2.09,2.78-3.76,2.71.25.25.66.17.96.23,1.5.31,3.78.87,4.28,2.55.2.68.16,1.17-.31,1.71-.33.38-1.06,1-1.26.18-.17-.7.46-.48.6-.62.28-.26-.02-.97-.21-1.23-.21-.3-1.73-1.37-2.09-1.48-.92-.28-1.55.09-2.51-.4-.37-.19-.9-.54-1.12-.89.5.28,1.01.62,1.58.75.73.17,1.46-.06,2.19.25.26.11,1.89,1.19,2.05,1.37.47.56.88,2.06-.25,1.96,0,.09.07.34.17.33.05,0,.74-.59.79-.66.45-.61.07-1.72-.45-2.19-1.4-1.26-3.11-.86-4.6-1.63-.54-.28-.83-.35-1.37-.58-.76-.32-1.47-.88-2.04-1.47l1,4.88c1.06-.25,2.26-.15,3.2.42,1.52.92,1.05,2.36-.17,3.27-1.49,1.11-5.78,2.38-7.16.63-1.17-1.49.51-3.2,1.92-3.71.22-.08.76-.3.93-.13-.89.27-1.73.63-2.34,1.37-.89,1.08-.84,2.23.5,2.87,1.63.77,5.9-.33,6.78-1.98,1.08-2.04-2.2-2.73-3.59-2.37-.04.06.29,1.07.39,1.18.2.23,1.38.25,1.18.53-.15.22-1.33-.1-1.5-.43-.07-.14,0-.27-.04-.38-.41-1.22-.7-2.23-.91-3.53-.12-.79-.11-1.81-.28-2.55-.04-.17-.59-.8-.2-.79.07,0,.95.56,1.2.65.61.22,1.27.27,1.9.42.69.17,1.31.62,2,.3.85-.39,2.1-1.7,1.47-2.68-.1-.15-.86-.85-.99-.85-.06,0-.14.08-.23.06-.18-.04-.38-.37-.69-.33-.3.04-1.12.49-1.37.71-.84.76-1.21,1.27-2.48,1.41-.25.03-1.45-.11-1.5-.05-.06.06.01.53.05.64.04.03.46-.41.41-.12-.05.26-.47.34-.47.45,0,.03.09.17.11.27.33,1.58.48,2.93.67,4.51.12.95.6,1.55-.16,2.37-.08.09-.98.87-.96.38,0-.11.79-.61.93-.77.56-.62-.03-1.97-.16-2.71-.09-.47-.04-.95-.27-1.39l-.26-2.71c-.11-.26-.43.2-.47.35-.08.28.07.51.07.71-.02.82-.96,2.38-1.53,2.97-1.42,1.44-3.25,1.3-4.14,3.52-.19.48.1.3.36.54.25.23.47,1.11.14,1.24-.51.21-.93-.33-1.06-.77-.16-.55-.04-.34-.34-.84-.28-.45-.29-.94.01-1.38.71-1.04,3.29-1.97,4.4-2.68,1.12-.71,1.82-1.71,1.97-3.04-.09-.1-.15.05-.19.11-.2.25-.31.59-.52.86-.93,1.26-2.08,1.73-3.57,2.08-1.94.45-3.38.19-3.21-2.15.12-1.63,2.56-3.4,4.11-3.45.3,0,.67.16.99.14.61-.04,1.07-.41,1.64.08.29.24.45.83.87.73-.18-.89-.53-1.76-.74-2.64-.09-.35-.39-2.28-.48-2.39-.03-.03-.6-.33-.7-.44-1.47.02-3.15.6-4.48-.22.25,0,.49.1.73.12,1.31.12,2.62-.37,3.93-.09.84.18.95,1.84,1.16,2.55.29,1.02.67,2.01.87,3.05.25-.23.5-.07.78-.08-.07-.09-.11-.18-.13-.29-.4-1.78-.84-3.93-.6-5.74.03-.2.16-.4.16-.56,0-.64-.51-1.55-.51-2.25l-1.05.21.38,1.92c.02.11.26.39.15.59l-.31-.63-.36-1.85ZM22.89,2.94c-.34-.76-.83-.12-1.37.05.05.1.36.08.46.08.13,0,.87-.09.9-.13ZM28.66,2.09l-2.34.61.21,1.05,1.08-.21c.13-.02-.02-.3-.03-.38-.01-.07-.1-.29.04-.27.09,0,.13.63.16.62l1.12-.22-.23-1.19ZM26.25,2.72l-1.8.43c.21.39.18.69.07,1.11,1,.05.38-.45.56-1.01.32-.01,0,.17,0,.19,0,.2.11.44.13.65.21-.02.37-.2.57-.24.13-.03.71.08.67-.11l-.2-1.01ZM27.69,3.81l-1.1.29c-.02.1.11.2.12.23l.32,1.64,1.05-.21-.39-1.95ZM28.95,3.56l-1.12.22.39,1.95,1.03-.28-.3-1.9ZM30.2,3.31l-1.12.22.36,1.81c.19-.04,1.08-.25,1.13-.37-.13-.56-.19-1.12-.37-1.67ZM30.43,3.34l.32,1.6.95-.33c-.06-.47-.24-.91-.35-1.37l-.91.1ZM32.43,3.24s-.8,0-.94-.04l.33,1.31c.11-.07.76-.34.79-.38.02-.04-.14-.86-.18-.89ZM24.25,4.7l.3,1.5c.02.12.68.04.8.02-.51-.45-1.08-.86-.68-1.6l-.42.08ZM22.73,5.08c-.28.06-.4.13-.28.42l-.11-.2c-.4.26-.22.38.09.63l.12-.31c-.02.59.49.51.92.62l-.29-1.1-.46.24v-.29ZM24.12,4.8c-.17.02-.8.19-.85.31-.04.1.27,1.1.36,1.15.06.03.81.03.85,0-.02-.07-.11-.17-.12-.23l-.24-1.22ZM32.79,3.96c.53-.24.41-.48-.09-.63l.09.63ZM26.89,5.99l-.04-.21-.17.22h.22ZM28.85,14.81c-.4-.45-.51-.86-1.2-.78-.26.03-.52.18-.75.2-.6.05-1.28-.36-1.94-.02l1.04.12c.66-.09,1.31.14,1.91.39.12.05.38.26.44.26.08,0,.25-.28.5-.17ZM34.68,12.43c-1.08.01-1.54.77-2.23,1.44l-.65.5c.55-.2,1.11-.56,1.6-.89.43-.29.95-.66,1.28-1.05ZM28.79,15.62c-.45,0-.92,0-1.32-.24-.16-.1-.27-.27-.43-.35-.41-.22-.75-.07-1.15-.1-.78-.05-1.33-.51-2.15.07-.88.61-1.15,3.34.16,3.53,1.56.23,2.71-1.12,3.75-2,.37-.31.85-.54,1.13-.91ZM29.35,15.51c-1.36.82-2.2,2.34-3.66,3.02-1.92.89-3.2.21-3-2.01l.15-.81c-.65.61-.82,1.33-.69,2.2.12.79.35,1.2,1.2,1.27,1.05.09,3.15-.41,3.98-1.07.89-.7,1.33-1.73,2.02-2.61ZM29.59,14.88l-.35.07c-.05.2.16.09.18.15.03.1-.06.21-.02.32.25-.1.17-.3.18-.54ZM37.73,15.01c-.11-.08-.57.75-.66.86-.43.49-1.57,1.33-2.26,1.11l-3.24-.89c.92.76,2.24,1.43,3.47,1.27.54-.07,1.51-.42,1.94-.76.43-.34.64-1.06.75-1.58ZM27.28,19.68l-1.7.91c.5-.12,1.08-.42,1.51-.71.08-.05.2-.08.19-.2ZM24.74,21.13c-.77.44-2.05.94-1.55,2.04.17.01.11-.06.14-.12.16-.28.25-.59.47-.83l.94-1.09ZM24.14,24.72c.04-.06-.22-.83-.5-.7.04.13.29.99.5.7Z"></path><path class="cls-1" d="M34.87,22.53c.23.6-.12.9-.55,1.23-1.17.91-3.82,1.74-5.27,1.35-.33-.09-.59-.2-.73-.54-.05-.12-.16-.43.06-.41.04.5.22.7.7.8,1.22.26,4.1-.69,5.12-1.41.19-.13.56-.4.59-.64.02-.17-.17-.41.08-.4Z"></path><path class="cls-1" d="M28.81,8.73c-.05.24.54,1.36.5,1.42-.02.02-.16.06-.22,0-.11-.13-.68-1.38-.28-1.42Z"></path><path class="cls-1" d="M29.26,22.41c-.03.18-.26.2-.37.33-.1.11-.05.25-.16.29-.09-.3.26-.58.53-.61Z"></path><path class="cls-1" d="M30.99,23.44c.24.17-.35.45-.38.26-.02-.1.31-.31.38-.26Z"></path><path class="cls-1" d="M32.81,21.27s.05.16,0,.22c-.2.24-.38-.05-.27-.13.06-.05.25-.11.27-.09Z"></path><path class="cls-1" d="M33.39,21.66c-.06-.04-.09-.28.13-.24.26.04-.02.32-.13.24Z"></path><path class="cls-1" d="M21.95,1.9c-.16-.04-.33-.2-.36-.36.14.05.32.21.36.36Z"></path><rect class="cls-1" x="22.99" y="6.98" width=".07" height=".35" transform="translate(-.95 4.6) rotate(-11.17)"></rect></g><g><path class="cls-1" d="M11.37,7.82l-.31.63c-.11-.19.13-.48.15-.59l.38-1.92-1.05-.21c0,.7-.51,1.61-.51,2.25,0,.16.13.36.16.56.24,1.81-.2,3.96-.6,5.74-.03.12-.06.2-.13.29.28.01.53-.15.78.08.2-1.04.58-2.04.87-3.05.2-.71.31-2.37,1.16-2.55,1.31-.28,2.62.22,3.93.09.25-.02.49-.13.73-.12-1.33.82-3.02.24-4.48.22-.1.11-.67.41-.7.44-.1.11-.4,2.04-.48,2.39-.21.88-.57,1.75-.74,2.64.42.09.58-.49.87-.73.57-.49,1.03-.12,1.64-.08.33.02.69-.15.99-.14,1.56.04,3.99,1.81,4.11,3.45.17,2.34-1.27,2.6-3.21,2.15-1.49-.35-2.64-.82-3.57-2.08-.2-.28-.32-.62-.52-.86-.05-.06-.1-.21-.19-.11.15,1.33.85,2.33,1.97,3.04,1.11.7,3.69,1.64,4.4,2.68.31.44.29.93.01,1.38-.31.5-.18.29-.34.84-.13.44-.55.98-1.06.77-.33-.14-.11-1.01.14-1.24.26-.24.55-.06.36-.54-.89-2.22-2.72-2.07-4.14-3.52-.58-.58-1.51-2.15-1.53-2.97,0-.2.14-.43.07-.71-.04-.14-.36-.6-.47-.35l-.26,2.71c-.24.44-.19.92-.27,1.39-.14.74-.72,2.1-.16,2.71.14.16.92.66.93.77.02.48-.88-.3-.96-.38-.76-.82-.28-1.42-.16-2.37.19-1.58.34-2.93.67-4.51.02-.09.11-.24.11-.27,0-.11-.42-.19-.47-.45-.05-.29.37.15.41.12.04-.11.11-.58.05-.64-.05-.05-1.25.08-1.5.05-1.26-.14-1.64-.65-2.48-1.41-.24-.22-1.07-.68-1.37-.71-.31-.04-.5.3-.69.33-.09.02-.17-.06-.23-.06-.13,0-.9.7-.99.85-.63.97.62,2.29,1.47,2.68.7.32,1.32-.13,2-.3.62-.15,1.29-.2,1.9-.42.25-.09,1.13-.64,1.2-.65.39,0-.16.62-.2.79-.16.74-.15,1.77-.28,2.55-.21,1.29-.5,2.3-.91,3.53-.04.11.04.24-.04.38-.17.33-1.35.65-1.5.43-.2-.28.98-.3,1.18-.53.09-.11.43-1.12.39-1.18-1.39-.36-4.67.33-3.59,2.37.87,1.65,5.15,2.76,6.78,1.98,1.34-.64,1.39-1.79.5-2.87-.61-.73-1.44-1.1-2.34-1.37.17-.17.71.05.93.13,1.4.51,3.09,2.23,1.92,3.71-1.38,1.76-5.66.48-7.16-.63-1.22-.91-1.7-2.35-.17-3.27.94-.57,2.14-.67,3.2-.42l1-4.88c-.57.59-1.28,1.14-2.04,1.47-.54.23-.83.3-1.37.58-1.48.77-3.2.37-4.6,1.63-.52.47-.9,1.59-.45,2.19.06.07.74.65.79.66.1.02.18-.23.17-.33-1.14.1-.72-1.4-.25-1.96.15-.18,1.79-1.26,2.05-1.37.73-.31,1.46-.08,2.19-.25.57-.13,1.08-.48,1.58-.75-.23.35-.75.71-1.12.89-.96.49-1.6.12-2.51.4-.36.11-1.88,1.18-2.09,1.48-.18.26-.49.97-.21,1.23.14.13.77-.08.6.62-.2.83-.93.21-1.26-.18-.47-.54-.52-1.03-.31-1.71.5-1.68,2.78-2.23,4.28-2.55.31-.06.72.02.96-.23-1.68.07-3.62-.85-3.76-2.71-.1-1.28.77-3.07,2.21-3.08.47,0,1.81.14,2.24.29,1.02.35,1.81,2.28,3.11,2.42.11-.69.21-1.38.33-2.07.17-.94.56-2.28.56-3.21,0-.14-.14-.71-.2-.83-.3-.6-2.21-1.34-2.86-1.83-.15-.12-.89-.83-.92-.96-.03-.13.06-.12.15-.04.22.18.43.46.67.64.9.68,2.06.92,2.94,1.63l.53-2.29-1.16-.37c-.01.13-.31,1.6-.49,1.57-.14-.03-.02-.22,0-.27.11-.43.17-.87.34-1.28-.17-.16-.91-.59-1.03-.28-.12.32-.15.69-.33,1.05-.06.11-.01.19-.19.12l.5-1.42-.78-.44c-.36.57.02.86.09,1.3.05.34-.21.05-.28-.11-.28-.57-.11-1.15-.22-1.49-.04-.12-.33-.21-.2-.48.16-.33.61-.28.61-.31l.44-2.23.12.13-.32,2c.17-.07.84-.02.93-.1.13-.12.22-.78.27-.97.02-.09.07-.4.18-.39l-.28,1.39.93.04.26-1.32s.12.12.12.13l-.24,1.22,1.2.16.23-1.15c0-.05-.1-.12-.15-.14-1.31-.52-2.84-.72-4-1.59-.15.9-.39,1.79-.53,2.69-.11.67-.03,1.36-.25,2.05-.1.31-.37.28-.36,0,.23-1.26.38-2.53.74-3.76.1-.34.25-1.03.53-1.2.5-.3,2.85-.09,3.41.13.24.09.18.29-.05.28-.91-.1-2.23-.5-3.13-.33-.42.08.08.29.26.38,1.9.93,5.66,1.79,7.8,2.16.46.08.94.07,1.39.19l.5-.47c-2.03-.95-4.21-1.54-6.43-1.92.05-.08.39-.05.49-.04,1.58.17,3.28.53,4.79,1.01.56.18,3.04,1.07,3.16,1.64.02.09-.14.19-.17.3-.19.7-.21,1.48-.46,2.29-.17.56-.81,2.53-1.09,2.89-.17.23-.35.26-.25-.1.32-1.23.95-2.49,1.31-3.73.05-.17.33-1.28.27-1.36-.5.22-1.15-.08-1.61-.03-.07,0-.07.08-.08.13h-.07c.08-.25-.29-.18-.46-.25.1.57-.07.83-.33,1.31l.49.1.17-.47c0,.13-.12.39-.08.48.02.06.88.36,1.09.69.24.39-.08.4-.18.63-.14.31-.2.82-.32,1.15-.42,1.22-1.11,1.96-2.49,1.79-.08-.01-.56-.07-.36-.21.05-.03.95,0,1.21-.05,1.09-.25,1.45-1.63,1.7-2.56-.18.24-1.16.24-1.2.28-.09.07-.47,1.46-.56,1.69-.13-.01-.03-.25,0-.33.06-.2.51-1.26.48-1.32-.16.04-.77-.02-.85.04-.2.19-.31,1.63-.66,1.9l.49-1.93s-.92-.1-.97-.05c-.09.09-.38,1.28-.48,1.54-.04.11-.02.24-.17.29.13-.6.39-1.17.46-1.79-.27,0-.81-.35-1.04-.25-.1.05-.46,1.73-.53,2-.03.12-.04.23-.17.29l.49-2.29-1.03-.28-.36,1.85ZM17.87,3.07c.1,0,.41.02.46-.08-.53-.17-1.03-.81-1.37-.05.03.04.77.12.9.13ZM10.96,3.28l1.12.22s.07-.61.16-.62c.14-.01.06.2.04.27-.01.08-.16.36-.03.38l1.08.21.21-1.05-2.34-.61-.23,1.19ZM13.41,3.73c-.04.19.54.08.67.11.19.04.36.22.57.24.02-.21.12-.45.13-.65,0-.02-.32-.2,0-.19.19.57-.44,1.07.56,1.01-.11-.41-.14-.72.07-1.11l-1.8-.43-.2,1.01ZM11.77,5.76l1.05.21.32-1.64s.14-.13.12-.23l-1.1-.29-.39,1.95ZM10.6,5.46l1.03.28.39-1.95-1.12-.22-.3,1.9ZM9.28,4.98c.05.11.94.32,1.13.37l.36-1.81-1.12-.22c-.18.54-.24,1.1-.37,1.67ZM8.51,3.24c-.11.46-.29.9-.35,1.37l.95.33.32-1.6-.91-.1ZM7.25,4.13s.68.31.79.38l.33-1.31c-.14.03-.9,0-.94.04-.04.03-.2.85-.18.89ZM15.19,4.62c.4.75-.17,1.16-.68,1.6.12.02.78.1.8-.02l.3-1.5-.42-.08ZM17.14,5.37l-.46-.24-.29,1.1c.43-.11.93-.03.92-.62l.12.31c.31-.25.49-.37.09-.63l-.11.2c.12-.29,0-.36-.28-.42v.29ZM15.49,6.02c-.01.06-.09.16-.12.23.04.03.79.04.85,0,.09-.05.4-1.05.36-1.15-.05-.12-.68-.28-.85-.31l-.24,1.22ZM7.15,3.32c-.5.15-.62.39-.09.63l.09-.63ZM13.17,6l-.17-.22-.04.21h.22ZM11.5,14.97c.06,0,.32-.21.44-.26.6-.25,1.26-.49,1.91-.39l1.04-.12c-.66-.34-1.34.07-1.94.02-.22-.02-.48-.16-.75-.2-.69-.08-.8.33-1.2.78.25-.12.42.16.5.17ZM6.45,13.47c.49.33,1.05.69,1.6.89l-.65-.5c-.69-.67-1.15-1.43-2.23-1.44.33.39.85.76,1.28,1.05ZM12.19,16.52c1.04.88,2.19,2.23,3.75,2,1.31-.19,1.04-2.92.16-3.53-.82-.57-1.37-.12-2.15-.07-.4.03-.74-.12-1.15.1-.16.09-.27.25-.43.35-.4.25-.87.24-1.32.24.28.37.76.6,1.13.91ZM12.52,18.12c.83.65,2.93,1.15,3.98,1.07.85-.07,1.08-.48,1.2-1.27.13-.87-.04-1.59-.69-2.2l.15.81c.21,2.22-1.08,2.9-3,2.01-1.46-.68-2.31-2.19-3.66-3.02.69.87,1.13,1.91,2.02,2.61ZM10.45,15.42c.04-.11-.04-.22-.02-.32.02-.06.23.04.18-.15l-.35-.07c0,.24-.07.44.18.54ZM2.87,16.6c.43.34,1.4.69,1.94.76,1.23.16,2.56-.51,3.47-1.27l-3.24.89c-.68.22-1.82-.62-2.26-1.11-.09-.1-.55-.93-.66-.86.11.52.32,1.24.75,1.58ZM12.77,19.89c.43.29,1.01.6,1.51.71l-1.7-.91c0,.12.11.15.19.2ZM16.06,22.22c.22.24.31.56.47.83.03.06-.03.13.14.12.49-1.11-.78-1.61-1.55-2.04l.94,1.09ZM16.21,24.02c-.28-.14-.54.64-.5.7.21.3.46-.57.5-.7Z"></path><path class="cls-1" d="M4.99,22.53c-.23.6.12.9.55,1.23,1.17.91,3.82,1.74,5.27,1.35.33-.09.59-.2.73-.54.05-.12.16-.43-.06-.41-.04.5-.22.7-.7.8-1.22.26-4.1-.69-5.12-1.41-.19-.13-.56-.4-.59-.64-.02-.17.17-.41-.08-.4Z"></path><path class="cls-1" d="M11.04,8.73c.05.24-.54,1.36-.5,1.42.02.02.16.06.22,0,.11-.13.68-1.38.28-1.42Z"></path><path class="cls-1" d="M10.59,22.41c.03.18.26.2.37.33.1.11.05.25.16.29.09-.3-.26-.58-.53-.61Z"></path><path class="cls-1" d="M8.86,23.44c-.24.17.35.45.38.26.02-.1-.31-.31-.38-.26Z"></path><path class="cls-1" d="M7.05,21.27s-.05.16,0,.22c.2.24.38-.05.27-.13-.06-.05-.25-.11-.27-.09Z"></path><path class="cls-1" d="M6.46,21.66c.06-.04.09-.28-.13-.24-.26.04.02.32.13.24Z"></path><path class="cls-1" d="M17.9,1.9c.16-.04.33-.2.36-.36-.14.05-.32.21-.36.36Z"></path><rect class="cls-1" x="16.65" y="7.12" width=".35" height=".07" transform="translate(6.54 22.27) rotate(-78.83)"></rect></g></g></g></svg> 