<?xml version="1.0" encoding="UTF-8"?> <svg xmlns="http://www.w3.org/2000/svg" width="440" height="142" viewBox="0 0 440 142" fill="none"><path d="M116.02 27.5918H112.06V2.3918L124.552 2.3918V27.5918H120.52V5.9918H116.02V27.5918ZM130.256 21.7958C130.256 22.7078 130.436 23.3558 130.796 23.7398C131.18 24.0998 131.684 24.2798 132.308 24.2798C132.932 24.2798 133.424 24.0998 133.784 23.7398C134.168 23.3558 134.36 22.7078 134.36 21.7958V8.1878C134.36 7.2758 134.168 6.6398 133.784 6.2798C133.424 5.8958 132.932 5.7038 132.308 5.7038C131.684 5.7038 131.18 5.8958 130.796 6.2798C130.436 6.6398 130.256 7.2758 130.256 8.1878V21.7958ZM126.296 8.4398C126.296 6.3998 126.812 4.8398 127.844 3.75979C128.876 2.6558 130.364 2.1038 132.308 2.1038C134.252 2.1038 135.74 2.6558 136.772 3.75979C137.804 4.8398 138.32 6.3998 138.32 8.4398V21.5438C138.32 23.5838 137.804 25.1558 136.772 26.2598C135.74 27.3398 134.252 27.8798 132.308 27.8798C130.364 27.8798 128.876 27.3398 127.844 26.2598C126.812 25.1558 126.296 23.5838 126.296 21.5438V8.4398ZM143.225 27.5918C143.033 27.5918 142.889 27.6278 142.793 27.6998C142.697 27.7958 142.625 27.9518 142.577 28.1678C142.553 28.3838 142.529 28.6718 142.505 29.0318C142.505 29.4158 142.505 29.8958 142.505 30.4718H139.193V23.9918H140.021C141.197 23.5838 142.049 22.7198 142.577 21.3998C143.105 20.0798 143.369 18.2198 143.369 15.8198V2.3918L154.385 2.3918V23.9918H156.041V30.4718H152.729C152.729 29.8958 152.717 29.4158 152.693 29.0318C152.693 28.6718 152.669 28.3838 152.621 28.1678C152.597 27.9518 152.525 27.7958 152.405 27.6998C152.309 27.6278 152.177 27.5918 152.009 27.5918H143.225ZM147.077 15.8918C147.077 16.8038 147.005 17.7038 146.861 18.5918C146.741 19.4798 146.561 20.2958 146.321 21.0398C146.081 21.7838 145.805 22.4198 145.493 22.9478C145.205 23.4758 144.905 23.8238 144.593 23.9918H150.425V5.9918H147.077V15.8918ZM155.748 2.3918H167.988V5.9918H163.848V27.5918H159.888V5.9918H155.748V2.3918ZM175.271 2.3918C177.335 2.3918 178.823 2.8718 179.735 3.8318C180.671 4.7918 181.139 6.2438 181.139 8.1878V9.0878C181.139 10.3838 180.935 11.4518 180.527 12.2918C180.119 13.1318 179.471 13.7558 178.583 14.1638C179.663 14.5718 180.419 15.2438 180.851 16.1798C181.307 17.0918 181.535 18.2198 181.535 19.5638V21.6158C181.535 23.5598 181.031 25.0478 180.023 26.0798C179.015 27.0878 177.515 27.5918 175.523 27.5918H169.295V2.3918L175.271 2.3918ZM173.255 16.2518V23.9918H175.523C176.195 23.9918 176.699 23.8118 177.035 23.4518C177.395 23.0918 177.575 22.4438 177.575 21.5078V19.3118C177.575 18.1358 177.371 17.3318 176.963 16.8998C176.579 16.4678 175.931 16.2518 175.019 16.2518H173.255ZM173.255 5.9918V12.6518H174.803C175.547 12.6518 176.123 12.4598 176.531 12.0758C176.963 11.6918 177.179 10.9958 177.179 9.9878V8.5838C177.179 7.6718 177.011 7.0118 176.675 6.6038C176.363 6.1958 175.859 5.9918 175.163 5.9918H173.255ZM187.282 13.0118H192.718V16.6118H187.282V23.9918H194.122V27.5918H183.322V2.3918H194.122V5.9918H187.282V13.0118ZM201.74 2.3918C203.732 2.3918 205.208 2.9198 206.168 3.9758C207.152 5.0318 207.644 6.5798 207.644 8.6198V11.8958C207.644 13.9358 207.152 15.4838 206.168 16.5398C205.208 17.5958 203.732 18.1238 201.74 18.1238H199.868V27.5918H195.908V2.3918H201.74ZM199.868 5.9918V14.5238H201.74C202.364 14.5238 202.844 14.3558 203.18 14.0198C203.516 13.6838 203.684 13.0598 203.684 12.1478V8.3678C203.684 7.4558 203.516 6.8318 203.18 6.4958C202.844 6.1598 202.364 5.9918 201.74 5.9918H199.868ZM208.967 27.5918C208.775 27.5918 208.631 27.6278 208.535 27.6998C208.439 27.7958 208.367 27.9518 208.319 28.1678C208.295 28.3838 208.271 28.6718 208.247 29.0318C208.247 29.4158 208.247 29.8958 208.247 30.4718H204.935V23.9918H205.763C206.939 23.5838 207.791 22.7198 208.319 21.3998C208.847 20.0798 209.111 18.2198 209.111 15.8198V2.3918L220.127 2.3918V23.9918H221.783V30.4718H218.471C218.471 29.8958 218.459 29.4158 218.435 29.0318C218.435 28.6718 218.411 28.3838 218.363 28.1678C218.339 27.9518 218.267 27.7958 218.147 27.6998C218.051 27.6278 217.919 27.5918 217.751 27.5918H208.967ZM212.819 15.8918C212.819 16.8038 212.747 17.7038 212.603 18.5918C212.483 19.4798 212.303 20.2958 212.063 21.0398C211.823 21.7838 211.547 22.4198 211.235 22.9478C210.947 23.4758 210.647 23.8238 210.335 23.9918H216.167V5.9918H212.819V15.8918ZM226.315 27.5918L223.435 27.5918V2.3918H226.963V17.4758L233.119 2.3918H235.999V27.5918H232.435V13.2998L226.315 27.5918ZM237.345 2.3918L249.585 2.3918V5.9918H245.445V27.5918H241.485V5.9918L237.345 5.9918V2.3918ZM254.852 13.0118L260.288 13.0118V16.6118H254.852V23.9918H261.692V27.5918H250.892V2.3918H261.692V5.9918H254.852V13.0118ZM275.044 2.3918C277.108 2.3918 278.596 2.8718 279.508 3.8318C280.444 4.7918 280.912 6.2438 280.912 8.1878V9.0878C280.912 10.3838 280.708 11.4518 280.3 12.2918C279.892 13.1318 279.244 13.7558 278.356 14.1638C279.436 14.5718 280.192 15.2438 280.624 16.1798C281.08 17.0918 281.308 18.2198 281.308 19.5638V21.6158C281.308 23.5598 280.804 25.0478 279.796 26.0798C278.788 27.0878 277.288 27.5918 275.296 27.5918H269.068V2.3918H275.044ZM273.028 16.2518V23.9918H275.296C275.968 23.9918 276.472 23.8118 276.808 23.4518C277.168 23.0918 277.348 22.4438 277.348 21.5078V19.3118C277.348 18.1358 277.144 17.3318 276.736 16.8998C276.352 16.4678 275.704 16.2518 274.792 16.2518H273.028ZM273.028 5.9918V12.6518H274.576C275.32 12.6518 275.896 12.4598 276.304 12.0758C276.736 11.6918 276.952 10.9958 276.952 9.9878V8.5838C276.952 7.6718 276.784 7.0118 276.448 6.6038C276.136 6.1958 275.632 5.9918 274.936 5.9918H273.028ZM295.645 27.5918H291.649L290.965 23.0198H286.105L285.421 27.5918H281.785L285.817 2.3918H291.613L295.645 27.5918ZM286.609 19.5998H290.425L288.517 6.8558L286.609 19.5998ZM308.176 23.9918H311.38V2.3918H315.376V27.5918H297.052V2.3918L300.976 2.3918V23.9918H304.216V2.3918H308.176V23.9918ZM321.122 13.0118H326.558V16.6118H321.122V23.9918H327.962V27.5918H317.162V2.3918H327.962V5.9918H321.122V13.0118ZM149.63 63.5918H145.67V38.3918H158.162V63.5918H154.13V41.9918H149.63V63.5918ZM165.845 38.3918C167.837 38.3918 169.313 38.9198 170.273 39.9758C171.257 41.0318 171.749 42.5798 171.749 44.6198V47.8958C171.749 49.9358 171.257 51.4838 170.273 52.5398C169.313 53.5958 167.837 54.1238 165.845 54.1238H163.973V63.5918L160.013 63.5918V38.3918L165.845 38.3918ZM163.973 41.9918V50.5238H165.845C166.469 50.5238 166.949 50.3558 167.285 50.0198C167.621 49.6838 167.789 49.0598 167.789 48.1478V44.3678C167.789 43.4558 167.621 42.8318 167.285 42.4958C166.949 42.1598 166.469 41.9918 165.845 41.9918H163.973ZM175.831 63.5918H172.951V38.3918H176.479V53.4758L182.635 38.3918H185.515V63.5918H181.951V49.2998L175.831 63.5918ZM199.065 54.1958V57.5438C199.065 59.5838 198.561 61.1558 197.553 62.2598C196.569 63.3398 195.105 63.8798 193.161 63.8798C191.217 63.8798 189.741 63.3398 188.733 62.2598C187.749 61.1558 187.257 59.5838 187.257 57.5438V44.4398C187.257 42.3998 187.749 40.8398 188.733 39.7598C189.741 38.6558 191.217 38.1038 193.161 38.1038C195.105 38.1038 196.569 38.6558 197.553 39.7598C198.561 40.8398 199.065 42.3998 199.065 44.4398V46.8878H195.321V44.1878C195.321 43.2758 195.129 42.6398 194.745 42.2798C194.385 41.8958 193.893 41.7038 193.269 41.7038C192.645 41.7038 192.141 41.8958 191.757 42.2798C191.397 42.6398 191.217 43.2758 191.217 44.1878V57.7958C191.217 58.7078 191.397 59.3438 191.757 59.7038C192.141 60.0638 192.645 60.2438 193.269 60.2438C193.893 60.2438 194.385 60.0638 194.745 59.7038C195.129 59.3438 195.321 58.7078 195.321 57.7958V54.1958H199.065ZM201.471 59.9918C201.687 60.0158 201.855 60.0278 201.975 60.0278C202.095 60.0278 202.263 60.0278 202.479 60.0278C202.791 60.0278 203.103 59.9918 203.415 59.9198C203.727 59.8478 203.991 59.7158 204.207 59.5238C204.447 59.3318 204.615 59.0678 204.711 58.7318C204.807 58.3718 204.807 57.9038 204.711 57.3278L199.311 38.3918H203.271L207.267 53.1518L210.507 38.3918H214.467L209.643 56.9678C209.211 58.3358 208.791 59.4518 208.383 60.3158C207.999 61.1798 207.555 61.8638 207.051 62.3678C206.547 62.8478 205.971 63.1838 205.323 63.3758C204.675 63.5438 203.907 63.6398 203.019 63.6638C202.659 63.6638 202.395 63.6638 202.227 63.6638C202.059 63.6638 201.807 63.6398 201.471 63.5918V59.9918ZM215.197 38.3918H227.437V41.9918H223.297V63.5918H219.337V41.9918H215.197V38.3918ZM240.444 54.1958V57.5438C240.444 59.5838 239.94 61.1558 238.932 62.2598C237.948 63.3398 236.484 63.8798 234.54 63.8798C232.596 63.8798 231.12 63.3398 230.112 62.2598C229.128 61.1558 228.636 59.5838 228.636 57.5438V44.4398C228.636 42.3998 229.128 40.8398 230.112 39.7598C231.12 38.6558 232.596 38.1038 234.54 38.1038C236.484 38.1038 237.948 38.6558 238.932 39.7598C239.94 40.8398 240.444 42.3998 240.444 44.4398V46.8878H236.7V44.1878C236.7 43.2758 236.508 42.6398 236.124 42.2798C235.764 41.8958 235.272 41.7038 234.648 41.7038C234.024 41.7038 233.52 41.8958 233.136 42.2798C232.776 42.6398 232.596 43.2758 232.596 44.1878V57.7958C232.596 58.7078 232.776 59.3438 233.136 59.7038C233.52 60.0638 234.024 60.2438 234.648 60.2438C235.272 60.2438 235.764 60.0638 236.124 59.7038C236.508 59.3438 236.7 58.7078 236.7 57.7958V54.1958H240.444ZM241.564 38.3918H253.804V41.9918H249.664V63.5918H245.704V41.9918H241.564V38.3918ZM261.087 38.3918C263.151 38.3918 264.639 38.8718 265.551 39.8318C266.487 40.7918 266.955 42.2438 266.955 44.1878V45.0878C266.955 46.3838 266.751 47.4518 266.343 48.2918C265.935 49.1318 265.287 49.7558 264.399 50.1638C265.479 50.5718 266.235 51.2438 266.667 52.1798C267.123 53.0918 267.351 54.2198 267.351 55.5638V57.6158C267.351 59.5598 266.847 61.0478 265.839 62.0798C264.831 63.0878 263.331 63.5918 261.339 63.5918H255.111V38.3918H261.087ZM259.071 52.2518V59.9918H261.339C262.011 59.9918 262.515 59.8118 262.851 59.4518C263.211 59.0918 263.391 58.4438 263.391 57.5078V55.3118C263.391 54.1358 263.187 53.3318 262.779 52.8998C262.395 52.4678 261.747 52.2518 260.835 52.2518H259.071ZM259.071 41.9918V48.6518H260.619C261.363 48.6518 261.939 48.4598 262.347 48.0758C262.779 47.6918 262.995 46.9958 262.995 45.9878V44.5838C262.995 43.6718 262.827 43.0118 262.491 42.6038C262.179 42.1958 261.675 41.9918 260.979 41.9918H259.071ZM272.018 63.5918H269.138V38.3918H272.666V53.4758L278.822 38.3918H281.702V63.5918H278.138V49.2998L272.018 63.5918ZM287.512 49.0118H292.948V52.6118H287.512V59.9918H294.352V63.5918H283.552V38.3918H294.352V41.9918H287.512V49.0118Z" fill="#5A2024"></path><path d="M130.986 81.2026C131.849 80.8752 132.37 80.9571 132.549 81.4481C132.727 81.9243 130.123 84.744 124.737 89.9074C124.528 90.5324 124.863 90.7258 125.741 90.4877C129.461 89.2378 131.738 88.531 132.571 88.3673C133.404 88.1888 133.821 88.3004 133.821 88.7021C133.613 89.4015 131.953 90.2794 128.844 91.3359C125.734 92.3775 123.792 92.7123 123.018 92.3403C122.244 91.9534 122.14 91.1425 122.706 89.9074L124.223 87.4969L118.465 86.8496C117.066 87.5787 115.943 88.4492 115.094 89.461C114.246 90.4729 113.591 91.016 113.13 91.0904C112.684 91.1648 112.513 90.7705 112.617 89.9074C113.956 88.1218 115.913 86.1874 118.487 84.1042C121.076 82.0061 122.899 80.8678 123.955 80.6892C125.027 80.5107 125.042 81.0538 124 82.3186C123.42 82.7799 122.743 83.2635 121.969 83.7694L120.384 85.0416L122.706 85.7336C125.057 86.0312 127.817 84.5208 130.986 81.2026ZM146.052 80.9794C147.466 80.8455 148.433 81.6415 148.954 83.3676C148.567 84.4688 147.89 85.4211 146.923 86.2246H147.302C148.999 84.93 149.988 84.744 150.271 85.6666C146.953 87.5266 145.197 88.9551 145.003 89.9521C144.81 90.9341 145.338 91.2243 146.588 90.8225L152.235 88.5459C152.786 88.7096 152.912 89.0221 152.614 89.4833C149.222 91.3434 146.692 92.2734 145.026 92.2734C143.478 92.0948 143.225 91.0086 144.267 89.0146C139.431 91.1871 136.269 92.2734 134.781 92.2734C133.754 91.9014 133.375 90.9713 133.642 89.4833C137.065 83.9033 141.201 81.0687 146.052 80.9794ZM138.106 86.3585C135.726 88.6054 134.736 90.0041 135.138 90.5547C135.54 91.1053 137.184 90.7556 140.071 89.5057C142.972 88.2409 144.996 86.604 146.142 84.5952C147.213 83.2709 146.856 82.5715 145.07 82.4971C142.808 82.8096 140.487 84.0968 138.106 86.3585ZM193.55 64.3286C195.112 63.5399 195.99 63.9863 196.183 65.6678V66.9847C194.368 71.032 187.851 75.4663 176.631 80.2875V80.7339C179.369 80.7339 180.738 81.768 180.738 83.8364C180.128 85.7112 175.247 88.5236 166.096 92.2734C164.266 92.5114 163.217 92.5189 162.949 92.2957C162.681 92.0725 162.599 91.6186 162.703 90.9341C164.652 87.9879 165.977 86.4255 166.676 86.2469L166.832 85.622L163.841 88.2781L163.44 87.8317V87.3853C163.633 85.8228 167.785 82.8691 175.894 78.5242C184.034 71.2627 189.919 66.5308 193.55 64.3286ZM180.001 76.7386H180.403C189.911 72.096 194.666 68.6959 194.666 66.5383C195.052 65.4223 194.42 65.3776 192.768 66.4043C191.132 67.4162 186.876 70.8609 180.001 76.7386ZM164.958 90.0637C164.288 90.7779 164.667 90.9267 166.096 90.5101C171.899 88.4269 176.162 86.3511 178.885 84.2828C179.6 82.884 178.848 82.1475 176.631 82.0731C173.476 82.0731 169.585 84.7366 164.958 90.0637ZM187.545 81.6043C188.81 81.0538 190.053 80.8827 191.273 81.091C192.493 81.2844 193.111 82.1028 193.126 83.5462C193.126 85.5848 189.153 87.0356 181.207 87.8986C179.54 88.3748 178.722 88.9551 178.751 89.6396C178.796 90.3241 179.101 90.7407 179.666 90.8895C180.247 91.0234 180.857 91.1202 181.497 91.1797C182.151 91.2243 184.599 90.83 188.84 89.9967C193.081 89.1485 195.172 88.8584 195.112 89.1262C195.067 89.3792 193.059 90.019 189.086 91.0458C185.127 92.0576 181.884 92.4668 179.354 92.2734C177.658 91.7972 176.981 90.8374 177.323 89.3941L177.501 88.3897H176.006C175.887 88.0325 176.14 87.7052 176.765 87.4076C177.405 87.0951 180.998 85.1607 187.545 81.6043ZM184.934 84.506C180.306 86.485 180.53 86.9909 185.604 86.0237C189.696 85.0119 191.742 84.1414 191.742 83.4123C191.742 82.6831 190.849 82.4153 189.063 82.6087L184.934 84.506ZM200.982 80.8008C201.577 80.5925 201.927 80.7041 202.031 81.1356C202.135 81.9243 202.292 82.393 202.5 82.5418C202.723 82.6757 204.561 82.1995 208.013 81.1133C208.504 81.1728 208.608 81.4555 208.325 81.9615C207.82 82.7501 206.049 84.0893 203.013 85.9791L200.201 88.8361L199.308 89.9744C198.936 90.5398 199.078 90.7853 199.732 90.7109C200.402 90.6365 201.094 90.5621 201.808 90.4877C202.537 90.3985 203.512 90.2125 204.732 89.9297L208.08 89.3494C210.089 88.8137 211.004 88.7393 210.825 89.1262C210.379 89.9744 207.462 90.8672 202.076 91.8046C201.287 92.0576 199.933 92.2138 198.014 92.2734C197.374 92.1841 197.054 91.9088 197.054 91.4475C197.069 90.9862 197.322 90.3389 197.813 89.5057C198.319 88.6724 199.874 86.9016 202.478 84.1935L201.339 84.5506C200.595 84.8333 200.231 84.6696 200.246 84.0596V83.2337L197.746 85.3764L195.826 86.8272C195.067 86.9463 194.755 86.6636 194.889 85.9791C198.356 82.7352 200.387 81.0091 200.982 80.8008ZM220.981 81.6043C222.246 81.0538 223.488 80.8827 224.708 81.091C225.929 81.2844 226.546 82.1028 226.561 83.5462C226.561 85.5848 222.588 87.0356 214.642 87.8986C212.976 88.3748 212.157 88.9551 212.187 89.6396C212.232 90.3241 212.537 90.7407 213.102 90.8895C213.682 91.0234 214.292 91.1202 214.932 91.1797C215.587 91.2243 218.035 90.83 222.276 89.9967C226.516 89.1485 228.607 88.8584 228.548 89.1262C228.503 89.3792 226.494 90.019 222.521 91.0458C218.563 92.0576 215.319 92.4668 212.79 92.2734C211.093 91.7972 210.416 90.8374 210.758 89.3941L210.937 88.3897H209.442C209.322 88.0325 209.575 87.7052 210.2 87.4076C210.84 87.0951 214.434 85.1607 220.981 81.6043ZM218.37 84.506C213.742 86.485 213.965 86.9909 219.039 86.0237C223.131 85.0119 225.177 84.1414 225.177 83.4123C225.177 82.6831 224.284 82.4153 222.499 82.6087L218.37 84.506ZM266.045 52.3427C266.923 51.7921 267.935 52.2906 269.081 53.8381C269.408 54.6268 269.237 54.9616 268.568 54.8425L266.559 53.8381L247.832 73.3905L238.726 82.9212C241.419 82.9212 242.788 83.323 242.832 84.1265C242.996 84.6324 242.825 85.1756 242.319 85.7559C241.813 86.3362 241.292 86.8644 240.757 87.3406C240.221 87.8168 239.879 88.1813 239.73 88.4343C245.355 86.4404 247.549 86.1056 246.314 87.4299C241.121 89.6917 238.153 90.9416 237.409 91.1797C236.679 91.4178 235.988 91.5517 235.333 91.5814C234.693 91.6112 234.47 91.2318 234.663 90.4431C239.752 86.4701 241.27 84.6324 239.217 84.93C235.779 84.93 232.476 86.6561 229.306 90.1083C226.137 93.5605 224.039 95.7404 223.012 96.6481C221.985 97.5409 218.518 100.13 212.611 104.416C209.992 106.156 207.321 107.458 204.598 108.322C201.86 109.199 199.874 109.735 198.639 109.929C197.389 110.137 196.258 110.167 195.246 110.018C194.219 109.884 193.49 109.356 193.059 108.433C192.627 107.511 192.761 106.387 193.46 105.063C194.145 103.738 195.231 102.541 196.719 101.469C203.757 96.2761 211.852 91.7674 221.003 87.9433L223.235 87.1397C232.193 85.0714 237.483 82.579 239.105 79.6625L239.596 79.0598C245.593 73.2269 252.475 66.1811 260.242 57.9227L266.045 52.3427ZM196.161 107.741C196.354 108.128 197.232 108.225 198.795 108.031L203.839 106.536C209.508 104.78 215.252 101.239 221.07 95.9115C226.874 90.5845 229.671 87.8242 229.463 87.6308C229.254 87.4225 228.964 87.3555 228.592 87.4299C222.655 88.1293 214.895 91.641 205.312 97.965C200.774 100.42 197.738 103.054 196.206 105.866C195.968 106.729 195.953 107.354 196.161 107.741ZM264.773 81.1133C265.844 80.7711 266.298 81.1877 266.135 82.3632C261.343 86.0386 259.029 88.0995 259.193 88.5459C258.762 89.3494 258.97 89.8405 259.818 90.019C261.395 89.8107 263.278 89.1709 265.465 88.0995C267.667 87.0132 268.672 86.7528 268.478 87.3183C267.957 88.4194 266.142 89.5949 263.032 90.8449C259.937 92.0799 258.144 92.3998 257.653 91.8046C257.162 91.2094 257.05 89.9223 257.318 87.9433L249.395 91.6484C248.412 91.9162 247.579 91.946 246.895 91.7377C246.225 91.5145 245.98 90.8672 246.158 89.7958C249.238 85.0937 251.418 82.5269 252.698 82.0954C253.978 81.649 254.283 81.9391 253.613 82.9659C249.655 87.0132 247.795 89.3271 248.033 89.9074C248.286 90.4877 250.317 89.7661 254.126 87.7424C257.936 85.7038 261.485 83.4941 264.773 81.1133ZM286.647 81.2026C287.51 80.8752 288.031 80.9571 288.209 81.4481C288.388 81.9243 285.784 84.744 280.397 89.9074C280.189 90.5324 280.524 90.7258 281.402 90.4877C285.122 89.2378 287.398 88.531 288.232 88.3673C289.065 88.1888 289.481 88.3004 289.481 88.7021C289.273 89.4015 287.614 90.2794 284.504 91.3359C281.394 92.3775 279.452 92.7123 278.679 92.3403C277.905 91.9534 277.801 91.1425 278.366 89.9074L279.884 87.4969L274.125 86.8496C272.726 87.5787 271.603 88.4492 270.755 89.461C269.907 90.4729 269.252 91.016 268.791 91.0904C268.344 91.1648 268.173 90.7705 268.277 89.9074C269.617 88.1218 271.573 86.1874 274.148 84.1042C276.737 82.0061 278.559 80.8678 279.616 80.6892C280.687 80.5107 280.702 81.0538 279.661 82.3186C279.08 82.7799 278.403 83.2635 277.629 83.7694L276.045 85.0416L278.366 85.7336C280.717 86.0312 283.477 84.5208 286.647 81.2026ZM299.012 81.1133C299.845 80.9496 300.136 81.2844 299.883 82.1177L296.356 85.6889H296.802C300.284 83.9926 303.082 83.1444 305.195 83.1444C305.745 83.2783 305.887 83.6131 305.619 84.1488C298.566 86.3213 295.039 88.1813 295.039 89.7289C295.143 90.1604 295.478 90.3836 296.044 90.3985C299.57 90.2943 303.498 89.5652 307.829 88.2111C308.617 88.1516 308.766 88.4938 308.275 89.2378C305.864 90.8151 301.601 91.827 295.486 92.2734C294.012 92.065 293.276 91.0532 293.276 89.2378L289.749 90.7556C289.407 90.5621 289.258 90.2199 289.303 89.7289L299.012 81.1133ZM319.145 81.6043C320.41 81.0538 321.652 80.8827 322.872 81.091C324.093 81.2844 324.71 82.1028 324.725 83.5462C324.725 85.5848 320.752 87.0356 312.806 87.8986C311.139 88.3748 310.321 88.9551 310.351 89.6396C310.395 90.3241 310.7 90.7407 311.266 90.8895C311.846 91.0234 312.456 91.1202 313.096 91.1797C313.751 91.2243 316.199 90.83 320.439 89.9967C324.68 89.1485 326.771 88.8584 326.711 89.1262C326.667 89.3792 324.658 90.019 320.685 91.0458C316.727 92.0576 313.483 92.4668 310.953 92.2734C309.257 91.7972 308.58 90.8374 308.922 89.3941L309.101 88.3897H307.605C307.486 88.0325 307.739 87.7052 308.364 87.4076C309.004 87.0951 312.598 85.1607 319.145 81.6043ZM316.533 84.506C311.906 86.485 312.129 86.9909 317.203 86.0237C321.295 85.0119 323.341 84.1414 323.341 83.4123C323.341 82.6831 322.448 82.4153 320.663 82.6087L316.533 84.506Z" fill="#841600"></path></svg> 