<?xml version="1.0" encoding="UTF-8"?> <svg xmlns="http://www.w3.org/2000/svg" width="914" height="694" viewBox="0 0 914 694" fill="none"><g clip-path="url(#clip0_2160_606)"><path d="M54.6413 359.873C37.1313 361.676 22.2912 365.905 7.63736 373.243C1.98696 376.041 0 377.347 0 378.218C0 378.839 0.124185 379.337 0.24837 379.337C0.434647 379.337 3.41508 377.782 6.95435 375.979C23.2846 367.335 39.1182 363.231 61.7819 361.863C74.3246 361.116 92.2072 361.738 106.675 363.479C122.384 365.407 140.329 371.066 161.999 381.016C209.065 402.595 245.203 413.539 269.171 413.539C277.739 413.539 284.694 412.607 301.148 409.124C348.09 399.299 360.136 397.744 389.319 397.744C412.666 397.744 429.741 399.423 440.546 402.781C443.278 403.652 452.219 407.259 460.415 410.865C499.223 427.842 510.586 431.636 529.524 433.812C537.037 434.745 539.086 434.745 542.253 434.123C546.537 433.253 550.946 431.138 555.23 428.029L558.211 425.852L561.502 428.713C566.034 432.568 568.642 433.626 571.995 432.879C573.485 432.568 577.335 431.947 580.564 431.573C587.642 430.703 601.241 427.904 610.927 425.293C620.862 422.619 628.872 419.758 639.241 415.094C651.97 409.373 662.029 406.45 678.297 403.776C686.121 402.47 716.732 401.973 725.301 402.968C735.857 404.149 742.563 406.201 752.87 411.301C770.008 419.758 788.449 424.36 808.753 425.168C826.76 425.852 840.358 422.494 856.254 413.415C877.8 401.04 914 373.429 914 369.263C914 368.268 912.944 368.952 909.219 372.496C903.444 377.907 881.464 394.51 869.604 402.47C854.764 412.358 843.96 417.706 833.528 420.38C823.966 422.805 807.946 423.303 794.783 421.561C780.874 419.696 770.132 416.524 755.602 409.933C735.609 400.791 732.504 400.169 705.059 400.169C688.418 400.169 683.265 400.356 677.428 401.289C662.588 403.59 653.274 406.388 637.378 413.228C618.751 421.188 609.002 423.987 584.91 428.091C567.773 431.076 567.524 431.076 563.24 427.034L560.756 424.733L564.544 418.017C572.927 403.279 576.9 395.63 577.832 392.458C579.136 388.105 578.701 382.26 576.838 378.404C574.23 373.056 570.877 373.118 566.655 378.528C565.103 380.456 562.557 384.623 560.881 387.794C559.266 391.028 557.776 393.64 557.59 393.578C557.403 393.578 556.286 392.023 555.106 390.095C551.691 384.685 549.393 382.446 547.096 382.446C542.812 382.446 538.465 386.426 536.727 391.961C534.864 397.993 535.795 399.858 546.661 411.674C549.704 414.908 553.243 418.887 554.547 420.442L556.969 423.365L554.299 425.479C549.021 429.832 545.544 431.138 538.589 431.449C520.458 432.195 498.602 425.604 457.869 407.134C450.729 403.901 443.029 400.667 440.732 399.921C432.598 397.433 414.839 395.63 393.045 395.07C365.973 394.386 345.234 396.936 305.432 405.766C287.798 409.684 280.72 410.679 269.171 410.679C253.896 410.741 244.085 408.938 222.291 401.973C203.725 396.003 185.408 388.914 162.682 378.839C134.244 366.216 120.025 362.049 98.4164 360.059C92.1451 359.499 59.7329 359.313 54.6413 359.873ZM575.1 378.839C576.155 380.332 576.59 381.949 576.714 384.996C576.9 388.478 576.652 389.846 574.976 394.013C571.436 403.03 560.508 421.624 558.832 421.624C558.583 421.624 557.652 420.815 556.845 419.82C556.037 418.887 552.001 414.348 547.779 409.746C543.557 405.206 539.707 400.667 539.148 399.672C537.968 397.309 537.968 393.018 539.21 390.655C541.011 387.172 545.233 384.498 548.027 385.058C549.331 385.307 553.305 390.344 555.106 394.013C555.851 395.505 556.348 397.806 556.348 399.734C556.348 402.097 556.596 402.968 557.217 402.968C558.273 402.968 559.452 399.796 559.452 396.873C559.452 394.324 562.495 388.416 567.276 381.638C571.188 376.041 572.74 375.544 575.1 378.839Z" fill="#523D34"></path></g><defs><clipPath id="clip0_2160_606"><rect width="914" height="694" fill="white"></rect></clipPath></defs></svg> 