<?xml version="1.0" encoding="UTF-8"?> <svg xmlns="http://www.w3.org/2000/svg" width="388" height="69" viewBox="0 0 388 69" fill="none"><path d="M84.1731 28.3977V28.5777C84.5811 29.1297 84.7851 29.8737 84.7851 30.8097V42.8697H86.8011C89.0811 42.8697 90.8091 42.2577 91.9851 41.0337C93.1851 39.7857 93.7851 37.9857 93.7851 35.6337C93.7851 33.2817 93.1851 31.4937 91.9851 30.2697C90.8091 29.0217 89.0811 28.3977 86.8011 28.3977H84.1731ZM78.8091 53.5977V53.2737H80.0691C80.9331 53.2737 81.4611 53.1777 81.6531 52.9857C81.8691 52.7697 81.9771 52.2297 81.9771 51.3657V29.9457C81.9771 29.0817 81.8691 28.5537 81.6531 28.3617C81.4611 28.1457 80.9331 28.0377 80.0691 28.0377H78.8091V27.7137H87.8811C90.5931 27.7137 92.7771 28.4457 94.4331 29.9097C96.0891 31.3497 96.9171 33.2577 96.9171 35.6337C96.9171 38.0097 96.0891 39.9177 94.4331 41.3577C92.7771 42.7977 90.5931 43.5177 87.8811 43.5177H84.7851V51.3657C84.7851 52.2297 84.8931 52.7697 85.1091 52.9857C85.3251 53.1777 85.8651 53.2737 86.7291 53.2737H87.6291V53.5977H78.8091ZM112.321 53.8857C108.313 53.8857 105.085 52.6737 102.637 50.2497C100.189 47.8257 98.9646 44.6217 98.9646 40.6377C98.9646 36.6777 100.189 33.4857 102.637 31.0617C105.085 28.6377 108.313 27.4257 112.321 27.4257C116.305 27.4257 119.509 28.6377 121.933 31.0617C124.381 33.4857 125.605 36.6777 125.605 40.6377C125.605 44.6217 124.381 47.8257 121.933 50.2497C119.509 52.6737 116.305 53.8857 112.321 53.8857ZM112.429 53.2377C115.693 53.2377 118.177 52.2177 119.881 50.1777C121.609 48.1377 122.473 45.1857 122.473 41.3217C122.473 37.0257 121.585 33.7497 119.809 31.4937C118.057 29.2137 115.513 28.0737 112.177 28.0737C108.889 28.0737 106.381 29.0937 104.653 31.1337C102.949 33.1737 102.097 36.1257 102.097 39.9897C102.097 44.2857 102.973 47.5737 104.725 49.8537C106.501 52.1097 109.069 53.2377 112.429 53.2377ZM127.36 53.5977V53.2737H128.62C129.484 53.2737 130.012 53.1777 130.204 52.9857C130.42 52.7697 130.528 52.2297 130.528 51.3657V29.9457C130.528 29.0817 130.42 28.5537 130.204 28.3617C130.012 28.1457 129.484 28.0377 128.62 28.0377H127.36V27.7137H140.896C141.328 27.7137 141.652 27.8217 141.868 28.0377H141.904L141.76 25.5897L142.084 25.5537L142.768 36.1017H142.12L141.976 33.5817C141.88 31.7577 141.244 30.4377 140.068 29.6217C138.892 28.7817 137.356 28.3617 135.46 28.3617H132.544V28.3977C133.072 28.9257 133.336 29.5497 133.336 30.2697V51.3657C133.336 52.2297 133.444 52.7697 133.66 52.9857C133.876 53.1777 134.416 53.2737 135.28 53.2737H137.62V53.5977H127.36ZM149.493 28.3977V28.5777C149.901 29.1297 150.105 29.8737 150.105 30.8097V42.8697H152.121C154.401 42.8697 156.129 42.2577 157.305 41.0337C158.505 39.7857 159.105 37.9857 159.105 35.6337C159.105 33.2817 158.505 31.4937 157.305 30.2697C156.129 29.0217 154.401 28.3977 152.121 28.3977H149.493ZM144.129 53.5977V53.2737H145.389C146.253 53.2737 146.781 53.1777 146.973 52.9857C147.189 52.7697 147.297 52.2297 147.297 51.3657V29.9457C147.297 29.0817 147.189 28.5537 146.973 28.3617C146.781 28.1457 146.253 28.0377 145.389 28.0377H144.129V27.7137H153.201C155.913 27.7137 158.097 28.4457 159.753 29.9097C161.409 31.3497 162.237 33.2577 162.237 35.6337C162.237 38.0097 161.409 39.9177 159.753 41.3577C158.097 42.7977 155.913 43.5177 153.201 43.5177H150.105V51.3657C150.105 52.2297 150.213 52.7697 150.429 52.9857C150.645 53.1777 151.185 53.2737 152.049 53.2737H152.949V53.5977H144.129ZM159.836 53.5977V53.2737H160.412C161.084 53.2737 161.744 52.5297 162.392 51.0417L172.508 27.7137H175.28V28.1457C175.28 29.0097 175.388 29.7057 175.604 30.2337L184.1 51.0417C184.484 51.9777 184.796 52.5897 185.036 52.8777C185.276 53.1417 185.672 53.2737 186.224 53.2737H186.512V53.5977H179.636V53.2737H182.408V53.2017C182.072 53.0817 181.7 52.5177 181.292 51.5097L179.276 46.5777H165.02L163.076 51.0417C162.956 51.3297 162.896 51.6057 162.896 51.8697C162.896 52.2777 163.052 52.6137 163.364 52.8777C163.676 53.1417 164.096 53.2737 164.624 53.2737H166.388V53.5977H159.836ZM165.308 45.9297H179.024L172.904 30.9177C172.712 30.4857 172.616 30.0057 172.616 29.4777H172.292C172.292 29.7657 172.148 30.2457 171.86 30.9177L165.308 45.9297ZM187.153 53.5977V53.2737H187.729C188.617 53.2737 189.193 53.1057 189.457 52.7697C189.745 52.4337 189.913 51.7497 189.961 50.7177L190.933 29.9457C190.957 29.5377 190.969 29.2857 190.969 29.1897C190.969 28.7577 190.849 28.4577 190.609 28.2897C190.393 28.1217 189.913 28.0377 189.169 28.0377H187.729V27.7137H193.021L202.345 48.3417C202.705 49.1337 202.885 49.6497 202.885 49.8897H203.065C203.065 49.5777 203.233 49.0617 203.569 48.3417L212.893 27.7137H218.293V28.0377H217.069C216.253 28.0377 215.713 28.1577 215.449 28.3977C215.185 28.6377 215.053 29.0457 215.053 29.6217C215.053 29.7177 215.065 30.0417 215.089 30.5937L215.917 50.7177C215.965 51.7737 216.121 52.4697 216.385 52.8057C216.649 53.1177 217.261 53.2737 218.221 53.2737H219.013V53.5977H209.617V53.2737H210.913C211.825 53.2737 212.425 53.1657 212.713 52.9497C213.001 52.7337 213.145 52.3857 213.145 51.9057C213.145 51.8337 213.133 51.7617 213.109 51.6897C213.109 51.6177 213.109 51.5457 213.109 51.4737C213.109 51.3777 213.109 51.3057 213.109 51.2577L212.389 32.2857C212.365 31.8537 212.353 31.3257 212.353 30.7017H212.137C212.137 30.7977 211.945 31.2897 211.561 32.1777L201.877 53.7417L201.769 53.9937H201.697L201.589 53.7417L192.049 32.5737C191.785 31.9977 191.653 31.4937 191.653 31.0617H191.509C191.509 31.4457 191.497 31.8537 191.473 32.2857L190.573 51.1857C190.549 51.6897 190.537 51.9657 190.537 52.0137C190.537 52.4697 190.681 52.7937 190.969 52.9857C191.257 53.1777 191.869 53.2737 192.805 53.2737H194.101V53.5977H187.153ZM219.637 53.5977V53.2737H220.213C221.101 53.2737 221.677 53.1057 221.941 52.7697C222.229 52.4337 222.397 51.7497 222.445 50.7177L223.417 29.9457C223.441 29.5377 223.453 29.2857 223.453 29.1897C223.453 28.7577 223.333 28.4577 223.093 28.2897C222.877 28.1217 222.397 28.0377 221.653 28.0377H220.213V27.7137H225.505L234.829 48.3417C235.189 49.1337 235.369 49.6497 235.369 49.8897H235.549C235.549 49.5777 235.717 49.0617 236.053 48.3417L245.377 27.7137H250.777V28.0377H249.553C248.737 28.0377 248.197 28.1577 247.933 28.3977C247.669 28.6377 247.537 29.0457 247.537 29.6217C247.537 29.7177 247.549 30.0417 247.573 30.5937L248.401 50.7177C248.449 51.7737 248.605 52.4697 248.869 52.8057C249.133 53.1177 249.745 53.2737 250.705 53.2737H251.497V53.5977H242.101V53.2737H243.397C244.309 53.2737 244.909 53.1657 245.197 52.9497C245.485 52.7337 245.629 52.3857 245.629 51.9057C245.629 51.8337 245.617 51.7617 245.593 51.6897C245.593 51.6177 245.593 51.5457 245.593 51.4737C245.593 51.3777 245.593 51.3057 245.593 51.2577L244.873 32.2857C244.849 31.8537 244.837 31.3257 244.837 30.7017H244.621C244.621 30.7977 244.429 31.2897 244.045 32.1777L234.361 53.7417L234.253 53.9937H234.181L234.073 53.7417L224.533 32.5737C224.269 31.9977 224.137 31.4937 224.137 31.0617H223.993C223.993 31.4457 223.981 31.8537 223.957 32.2857L223.057 51.1857C223.033 51.6897 223.021 51.9657 223.021 52.0137C223.021 52.4697 223.165 52.7937 223.453 52.9857C223.741 53.1777 224.353 53.2737 225.289 53.2737H226.585V53.5977H219.637ZM252.086 53.5977V53.2737H252.662C253.334 53.2737 253.994 52.5297 254.642 51.0417L264.758 27.7137H267.53V28.1457C267.53 29.0097 267.638 29.7057 267.854 30.2337L276.35 51.0417C276.734 51.9777 277.046 52.5897 277.286 52.8777C277.526 53.1417 277.922 53.2737 278.474 53.2737H278.762V53.5977H271.886V53.2737H274.658V53.2017C274.322 53.0817 273.95 52.5177 273.542 51.5097L271.526 46.5777H257.27L255.326 51.0417C255.206 51.3297 255.146 51.6057 255.146 51.8697C255.146 52.2777 255.302 52.6137 255.614 52.8777C255.926 53.1417 256.346 53.2737 256.874 53.2737H258.638V53.5977H252.086ZM257.558 45.9297H271.274L265.154 30.9177C264.962 30.4857 264.866 30.0057 264.866 29.4777H264.542C264.542 29.7657 264.398 30.2457 264.11 30.9177L257.558 45.9297ZM289.038 52.9497H291.522C292.242 52.3257 292.95 51.5457 293.646 50.6097C294.342 49.6737 295.014 48.5817 295.662 47.3337C296.31 46.0857 296.838 44.6457 297.246 43.0137C297.654 41.3817 297.858 39.7137 297.858 38.0097V30.7017C297.858 29.4537 297.702 28.6977 297.39 28.4337C297.102 28.1697 296.322 28.0377 295.05 28.0377H294.258V27.7137H311.79V28.0377H310.494C309.654 28.0377 309.126 28.1817 308.91 28.4697C308.694 28.7577 308.586 29.3577 308.586 30.2697V52.9497H311.79V59.6457H310.494V55.8297C310.494 54.9177 310.374 54.3177 310.134 54.0297C309.918 53.7417 309.39 53.5977 308.55 53.5977H292.278C291.438 53.5977 290.898 53.7417 290.658 54.0297C290.442 54.3177 290.334 54.9177 290.334 55.8297V59.6457H289.038V52.9497ZM295.518 52.9497H305.778V28.3617H298.794V37.1457C298.794 40.5057 298.482 43.5537 297.858 46.2897C297.258 49.0017 296.478 51.2217 295.518 52.9497ZM313.196 53.5977V53.2737H314.456C315.296 53.2737 315.824 53.1297 316.04 52.8417C316.256 52.5537 316.364 51.9537 316.364 51.0417V30.2697C316.364 29.3577 316.256 28.7577 316.04 28.4697C315.824 28.1817 315.296 28.0377 314.456 28.0377H313.196V27.7137H322.052V28.0377H321.116C320.276 28.0377 319.736 28.1817 319.496 28.4697C319.28 28.7577 319.172 29.3577 319.172 30.2697V39.6657H329.036V30.2697C329.036 29.3577 328.916 28.7577 328.676 28.4697C328.46 28.1817 327.932 28.0377 327.092 28.0377H326.156V27.7137H335.048V28.0377H333.752C332.912 28.0377 332.384 28.1817 332.168 28.4697C331.952 28.7577 331.844 29.3577 331.844 30.2697V51.0417C331.844 51.9537 331.952 52.5537 332.168 52.8417C332.384 53.1297 332.912 53.2737 333.752 53.2737H335.048V53.5977H326.156V53.2737H327.128C327.968 53.2737 328.496 53.1297 328.712 52.8417C328.928 52.5537 329.036 51.9537 329.036 51.0417V40.3137H319.172V51.0417C319.172 51.9537 319.28 52.5537 319.496 52.8417C319.736 53.1297 320.276 53.2737 321.116 53.2737H322.052V53.5977H313.196ZM348.246 53.5977V53.2737H348.894C349.758 53.2737 350.298 53.1777 350.514 52.9857C350.73 52.7697 350.838 52.2297 350.838 51.3657V42.2577H348.066C348.042 45.7617 347.334 48.5817 345.942 50.7177C344.574 52.8297 342.762 53.8857 340.506 53.8857C338.946 53.8857 337.626 53.4177 336.546 52.4817V49.6377C338.298 50.8857 339.894 51.5097 341.334 51.5097C343.278 51.5097 344.766 50.7057 345.798 49.0977C346.854 47.4897 347.394 45.2097 347.418 42.2577C344.442 42.2577 342.042 41.6337 340.218 40.3857C338.394 39.1137 337.482 37.3137 337.482 34.9857C337.482 32.6577 338.394 30.8697 340.218 29.6217C342.042 28.3497 344.442 27.7137 347.418 27.7137H356.814V28.0377H355.554C354.69 28.0377 354.15 28.1457 353.934 28.3617C353.742 28.5537 353.646 29.0817 353.646 29.9457V51.3657C353.646 52.2297 353.742 52.7697 353.934 52.9857C354.15 53.1777 354.69 53.2737 355.554 53.2737H356.814V53.5977H348.246ZM350.838 41.6097V30.2697C350.838 29.4297 351.042 28.8057 351.45 28.3977V28.3617H347.706C342.978 28.3617 340.614 30.5697 340.614 34.9857C340.614 39.4017 342.978 41.6097 347.706 41.6097H350.838Z" fill="white"></path><path d="M80.4964 1.16454C80.8189 1.16454 80.9801 1.27618 80.9801 1.49947C80.9801 1.5987 80.9057 1.69794 80.7568 1.79717C80.608 1.8716 80.4467 1.94603 80.2731 2.02045C80.0994 2.09488 79.9382 2.1569 79.7893 2.20652C79.6404 2.23133 79.5784 2.24373 79.6032 2.24373C78.9582 2.7151 78.338 3.18647 77.7426 3.65784C77.1471 4.10441 76.5393 4.6378 75.9191 5.25802C75.5222 5.65496 75.1252 6.08912 74.7283 6.56049C77.2588 7.03186 80.1242 7.29235 83.3246 7.34197C84.3169 7.34197 85.3465 7.24274 86.4133 7.04427C87.4801 6.82098 88.4848 6.52328 89.4276 6.15114C90.3703 5.7542 91.2014 5.30764 91.9209 4.81146C92.6651 4.29047 93.1985 3.73227 93.5211 3.13686C93.5211 3.08724 93.5086 3.00041 93.4838 2.87636C93.4838 2.72751 93.4838 2.56625 93.4838 2.39259C93.4838 2.11969 93.5335 1.8592 93.6327 1.61111C93.7319 1.33821 93.9676 1.20176 94.3397 1.20176C94.8111 1.20176 95.0468 1.53668 95.0468 2.20652C95.0468 2.57865 94.7615 3.13686 94.1909 3.88112C93.6203 4.60058 92.752 5.32004 91.586 6.0395C90.4199 6.75896 88.9562 7.39159 87.1948 7.93739C85.4333 8.45838 83.3618 8.71887 80.9801 8.71887C79.8141 8.71887 78.5613 8.64444 77.2216 8.49559C76.7254 8.44597 75.8447 8.29712 74.5794 8.04903C74.2817 7.99941 73.9716 7.94979 73.6491 7.90017C73.1281 8.61963 72.5699 9.45073 71.9745 10.3935C71.255 11.5843 70.4611 13.0108 69.5928 14.673C68.7245 16.3352 67.7694 18.2951 66.7274 20.5527C66.6282 20.7512 66.3925 21.2598 66.0203 22.0785C65.6482 22.8724 65.2389 23.7655 64.7923 24.7579C64.3457 25.7254 63.9116 26.6681 63.4898 27.5861C63.0681 28.4792 62.7704 29.1242 62.5967 29.5212C61.4803 31.8532 60.4259 33.962 59.4336 35.8475C58.4412 37.7081 57.4737 39.3827 56.5309 40.8713C54.0252 44.9151 51.2838 48.1899 48.3067 50.6956C44.0148 54.3177 40.0826 56.1288 36.5101 56.1288C34.699 56.1288 33.0368 55.7318 31.5235 54.9379C30.035 54.1689 28.7573 53.1021 27.6905 51.7376C26.6237 50.3731 25.7926 48.7729 25.1972 46.9371C24.6266 45.0764 24.3413 43.0669 24.3413 40.9085C24.3413 37.336 25.3337 33.503 27.3184 29.4095C27.9386 28.1443 28.5712 27.0155 29.2163 26.0231C29.8861 25.0308 30.5808 24.1252 31.3002 23.3065C32.0445 22.4878 32.826 21.7436 33.6447 21.0737C34.4882 20.4039 35.3813 19.7837 36.324 19.2131C36.6465 19.0394 37.0807 18.8533 37.6265 18.6549C37.8002 18.6052 37.9862 18.5432 38.1847 18.4688C38.532 17.1043 39.0158 15.777 39.636 14.4869C40.281 13.1969 41.0377 11.9688 41.906 10.8028C42.7992 9.6368 43.7791 8.57002 44.8459 7.60247C45.9375 6.61011 47.1035 5.7542 48.344 5.03474C49.9317 4.092 51.5319 3.38495 53.1445 2.91358C54.7571 2.44221 56.4069 2.21892 58.0939 2.24373C58.8878 2.24373 59.6816 2.33057 60.4755 2.50423C61.2942 2.67789 62.2866 2.81434 63.4526 2.91358C63.7751 2.91358 63.9364 2.57865 63.9364 1.90881C63.9364 1.78477 63.924 1.62351 63.8992 1.42504C63.8992 1.22657 63.8868 0.990882 63.862 0.717984C63.8868 0.668366 63.9488 0.643557 64.048 0.643557C64.2217 0.643557 64.3829 0.767601 64.5318 1.01569C64.6807 1.26378 64.8047 1.54908 64.9039 1.8716C65.0032 2.16931 65.0776 2.45461 65.1272 2.72751C65.2016 3.00041 65.2389 3.16166 65.2389 3.21128C65.2885 3.2609 65.3877 3.34773 65.5366 3.47178C65.6854 3.57101 65.8591 3.67025 66.0575 3.76948C68.0919 4.81146 70.5356 5.65496 73.3886 6.3L73.7607 6.37442C73.8352 6.3 73.8972 6.22557 73.9468 6.15114C74.9888 4.98512 76.0556 3.96796 77.1471 3.09964C78.2387 2.20652 79.3551 1.56149 80.4964 1.16454ZM69.6672 7.04427L64.9784 6.07672C64.2589 9.32669 62.9688 12.4154 61.1082 15.3429C59.2723 18.2455 56.8162 20.9993 53.7399 23.6042C53.0701 24.1748 52.3382 24.6958 51.5443 25.1672C51.321 25.2912 51.0978 25.4153 50.8745 25.5393C50.9737 26.234 51.0233 26.9659 51.0233 27.7349C51.0233 29.4716 50.7876 31.171 50.3163 32.8332C49.8697 34.4954 49.1875 36.2072 48.2695 37.9686C47.3268 39.7301 46.2848 41.2558 45.1436 42.5459C44.0024 43.8111 42.8488 44.8779 41.6828 45.7462C40.5415 46.5897 39.4375 47.2224 38.3708 47.6441C37.304 48.0411 36.3984 48.2395 35.6542 48.2395C34.3889 48.2395 33.7563 47.8922 33.7563 47.1975C33.7563 46.8254 33.9176 46.6269 34.2401 46.6021C34.8355 46.9743 35.4557 47.1603 36.1007 47.1603C36.8698 47.1603 37.7505 46.875 38.7429 46.3044C39.7601 45.7338 40.7772 44.9896 41.7944 44.0716C42.8116 43.1537 43.7915 42.1117 44.7343 40.9457C45.677 39.7549 46.4833 38.564 47.1531 37.3732C48.989 34.0488 49.9069 30.7864 49.9069 27.5861C49.9069 27.0403 49.8821 26.5317 49.8325 26.0603L49.1627 26.3208C48.3688 26.6185 47.5873 26.8542 46.8182 27.0279C46.0491 27.2015 45.3545 27.2884 44.7343 27.2884C43.9156 27.2884 43.1093 27.1395 42.3154 26.8418C41.5215 26.5193 40.802 26.0603 40.157 25.4649C39.5368 24.8447 39.0282 24.088 38.6313 23.1949C38.2591 22.277 38.0731 21.235 38.0731 20.069C37.949 20.1186 37.8374 20.1806 37.7381 20.255C37.2668 20.5279 36.845 20.8132 36.4729 21.1109C33.7439 22.8228 31.263 25.8743 29.0302 30.2654C26.8718 34.5574 25.7926 38.3532 25.7926 41.6527C25.7926 43.6623 26.0283 45.4733 26.4997 47.0859C26.9959 48.6985 27.7029 50.0754 28.6208 51.2166C29.5388 52.3578 30.6552 53.2385 31.9701 53.8588C33.2849 54.479 34.7735 54.7891 36.4357 54.7891C41.2238 54.7891 45.677 51.9485 49.7953 46.2672C51.5319 43.9104 54.2609 38.9858 57.9822 31.4935C58.9994 29.4592 59.9918 27.5737 60.9593 25.837C61.9269 24.1004 62.8696 22.5126 63.7875 21.0737C64.4078 20.1062 65.09 19.0022 65.8343 17.7617C66.6033 16.4965 67.4096 15.194 68.2531 13.8543C69.1215 12.5146 70.027 11.1874 70.9697 9.87249C71.5155 9.10341 72.0737 8.37154 72.6443 7.67689C71.7512 7.50323 70.7588 7.29235 69.6672 7.04427ZM53.2561 22.8228C55.737 20.7636 58.1311 17.9354 60.4383 14.3381C61.3811 12.8992 62.1501 11.4975 62.7456 10.133C63.3658 8.74368 63.6759 7.47842 63.6759 6.33721C63.6759 6.18836 63.5891 6.0271 63.4154 5.85344C63.2417 5.65496 62.9068 5.4813 62.4106 5.33245C61.9393 5.15879 61.2818 5.02234 60.4383 4.9231C59.6196 4.79906 58.5652 4.73703 57.2752 4.73703C55.2657 4.73703 53.2065 5.08436 51.0978 5.77901C49.0138 6.44885 47.1035 7.4288 45.3669 8.71887C43.6303 10.0089 42.1789 11.5967 41.0129 13.4822C40.1446 14.8963 39.5616 16.4469 39.2639 18.1339C39.3135 18.1091 39.3631 18.0967 39.4127 18.0967C40.033 17.8982 40.6284 17.7369 41.199 17.6129C41.7944 17.4888 42.303 17.4268 42.7247 17.4268C43.5682 17.4268 44.4738 17.6005 45.4413 17.9478C46.4089 18.2703 47.302 18.8285 48.1207 19.6224C48.9642 20.4163 49.6588 21.4831 50.2046 22.8228C50.4279 23.3437 50.6016 23.9268 50.7256 24.5718C51.5939 24.1004 52.4374 23.5174 53.2561 22.8228ZM65.7971 43.9972C64.6807 46.5773 64.1224 48.5993 64.1224 50.063C64.1224 52.1221 64.8543 53.1517 66.318 53.1517C66.4421 53.1021 66.715 53.0152 67.1367 52.8912C67.5585 52.7672 68.1291 52.5811 68.8486 52.333C68.9726 52.4074 69.0346 52.5191 69.0346 52.6679C69.0346 52.8664 68.9478 53.0525 68.7741 53.2261C68.6005 53.3998 68.3772 53.561 68.1043 53.7099C67.8562 53.8339 67.5833 53.9456 67.2856 54.0448C66.9879 54.1192 66.7026 54.1565 66.4297 54.1565C65.3133 54.1565 64.3705 53.7347 63.6015 52.8912C62.8572 52.0229 62.4851 50.7204 62.4851 48.9838C62.4851 46.7262 63.2913 43.4266 64.9039 39.085C65.4001 37.7701 65.9955 36.3064 66.6902 34.6938C67.3848 33.0813 68.1539 31.4439 68.9974 29.7817C69.8657 28.1195 70.7961 26.4821 71.7884 24.8695C72.8056 23.2569 73.8724 21.7808 74.9888 20.4411C76.13 19.1014 77.3084 17.9602 78.524 17.0175C79.7645 16.0747 81.0297 15.4421 82.3198 15.1196C82.8408 14.9955 83.2501 15.0079 83.5479 15.1568C83.8704 15.2808 84.0564 15.5041 84.1061 15.8266C84.1309 16.1243 83.9324 16.36 83.5106 16.5337L81.7244 16.3104C80.5584 16.6081 79.4916 17.278 78.524 18.3199C77.5565 19.3371 76.6634 20.5279 75.8447 21.8924C75.0508 23.2321 74.3189 24.6462 73.6491 26.1348C73.0041 27.5985 72.421 28.9382 71.9001 30.1538C71.4039 31.2454 70.8829 32.3742 70.3371 33.5402C69.7913 34.6814 69.2455 35.8475 68.6997 37.0383C68.1787 38.2291 67.6577 39.4199 67.1367 40.6108C66.6406 41.7768 66.194 42.9056 65.7971 43.9972ZM39.115 19.8085C39.2391 21.9172 39.8221 23.4678 40.8641 24.4601C41.9308 25.4277 43.4814 25.9115 45.5157 25.9115C46.9547 25.9115 48.3564 25.6262 49.7209 25.0556C49.051 20.838 46.6197 18.7293 42.427 18.7293C41.9557 18.7293 41.4471 18.8037 40.9013 18.9526C40.3555 19.0766 39.8097 19.2503 39.2639 19.4735L39.115 19.548C39.115 19.6472 39.115 19.734 39.115 19.8085Z" fill="white"></path></svg> 