<?xml version="1.0" encoding="UTF-8"?> <svg xmlns="http://www.w3.org/2000/svg" width="430" height="224" viewBox="0 0 430 224" fill="none"><path d="M106.067 21.245C115.552 21.245 121.516 25.2689 121.516 31.6641C121.516 36.2628 118.642 39.7838 113.971 41.2927C124.103 42.0832 130.426 47.4005 130.426 55.4483C130.426 65.3644 122.594 71.5439 110.163 71.5439H92.3428V71.2565C92.702 69.3883 92.702 68.526 92.702 63.9991V28.7899C92.702 24.263 92.702 23.4007 92.3428 21.5325V21.245H106.067ZM98.8098 69.3883H109.444C118.426 69.3883 124.103 64.2147 124.103 55.7357C124.103 47.4723 116.917 43.0173 105.564 42.658L103.121 42.5861V40.646L104.846 40.5023C111.169 39.9993 115.193 37.197 115.193 32.0234C115.193 26.7061 111.384 23.4007 105.349 23.4007H98.8098V69.3883ZM138.656 21.245H167.254V23.76H167.039C165.602 23.4726 164.237 23.4007 160.428 23.4007H145.123V36.5503H161.65V38.7059H145.123V69.3883H162.368C166.895 69.3883 167.757 69.3883 169.626 68.8853H169.913V71.5439H138.656V71.2565C139.015 69.3883 139.015 68.526 139.015 63.9991V28.7899C139.015 24.263 139.015 23.4007 138.656 21.5325V21.245ZM186.089 21.245C187.814 21.245 189.897 20.8858 191.622 19.7361L207.286 63.9991C209.442 70.035 209.945 70.8254 210.161 71.2565V71.5439H203.047V71.2565C203.047 70.8254 203.263 70.035 201.179 63.9991L199.167 58.3225H174.089L171.933 63.9273C169.634 69.9631 169.993 70.8254 169.993 71.2565V71.5439H166.329V71.2565C166.544 70.8254 167.047 69.9631 169.419 63.9991L186.089 21.245ZM174.951 56.1668H198.448L187.311 24.3348L174.951 56.1668ZM216.6 21.245H223.57V21.5325C223.067 23.4007 223.067 24.263 223.067 28.7899V52.5741C223.067 62.4183 228.528 68.5979 237.294 68.5979C245.989 68.5979 251.521 62.562 251.521 53.4363V28.7899C251.521 24.263 251.521 23.4007 251.018 21.5325V21.245H254.036V21.5325C253.677 23.4007 253.677 24.263 253.677 28.7899V52.4304C253.677 65.2925 246.06 72.6936 235.282 72.6936C224.504 72.6936 216.959 65.2925 216.959 52.4304V28.7899C216.959 24.263 216.959 23.4007 216.6 21.5325V21.245ZM261.189 21.245H294.171V23.9037H293.884C292.015 23.4007 291.153 23.4007 287.345 23.4007H280.734V63.9991C280.734 68.3104 280.806 69.3164 281.022 70.7535L281.093 71.2565V71.5439H274.267V71.2565L274.339 70.7535C274.555 69.3164 274.626 68.3104 274.626 63.9991V23.4007H268.016C264.207 23.4007 263.345 23.4007 261.477 23.9037H261.189V21.245ZM301.069 28.8617C297.908 24.263 296.327 22.5384 295.321 21.5325V21.245H303.8L303.872 21.5325C304.159 22.3947 304.375 22.8977 307.321 27.1372L320.47 45.9634L333.692 27.1372C336.781 22.754 336.997 22.3947 337.284 21.5325L337.356 21.245H340.877V21.5325C339.871 22.5384 338.219 24.5504 335.129 28.8617L322.338 46.9693V64.7177C322.338 68.526 322.338 69.3883 322.698 71.2565V71.5439H315.871V71.2565C316.231 69.3883 316.231 68.526 316.231 64.7177V50.4903L301.069 28.8617Z" fill="#BC9D89" fill-opacity="0.08"></path><path d="M130.738 162.385H130.888C131.028 162.385 131.158 162.325 131.278 162.205C131.398 162.085 131.498 161.945 131.578 161.785C131.678 161.625 131.748 161.455 131.788 161.275C131.828 161.075 131.848 160.895 131.848 160.735V144.955L124.108 163.015L116.758 145.885V160.735C116.758 160.895 116.778 161.075 116.818 161.275C116.858 161.455 116.918 161.625 116.998 161.785C117.098 161.945 117.208 162.085 117.328 162.205C117.448 162.325 117.588 162.385 117.748 162.385H117.898V162.685H114.628V162.385H114.778C114.918 162.385 115.048 162.325 115.168 162.205C115.288 162.085 115.388 161.945 115.468 161.785C115.548 161.625 115.608 161.455 115.648 161.275C115.688 161.075 115.708 160.895 115.708 160.735V144.745C115.708 144.605 115.688 144.445 115.648 144.265C115.608 144.085 115.548 143.915 115.468 143.755C115.388 143.595 115.288 143.465 115.168 143.365C115.048 143.245 114.918 143.185 114.778 143.185H114.628V142.885H117.688L124.648 159.295L131.608 142.885H134.998V143.185H134.848C134.688 143.185 134.548 143.245 134.428 143.365C134.308 143.465 134.198 143.595 134.098 143.755C134.018 143.915 133.958 144.085 133.918 144.265C133.878 144.445 133.858 144.605 133.858 144.745V160.735C133.858 160.895 133.878 161.075 133.918 161.275C133.958 161.455 134.018 161.625 134.098 161.785C134.198 161.945 134.308 162.085 134.428 162.205C134.548 162.325 134.688 162.385 134.848 162.385H134.998V162.685H130.738V162.385ZM149.378 162.385H149.528C150.008 162.385 150.248 162.165 150.248 161.725C150.248 161.565 150.218 161.395 150.158 161.215L147.458 153.925H142.208L139.598 161.095C139.538 161.255 139.508 161.405 139.508 161.545C139.508 161.805 139.578 162.015 139.718 162.175C139.858 162.315 140.008 162.385 140.168 162.385H140.318V162.685H136.988V162.385H137.138C137.398 162.385 137.648 162.235 137.888 161.935C138.148 161.615 138.358 161.245 138.518 160.825L145.388 142.525L152.108 160.645C152.248 161.045 152.438 161.435 152.678 161.815C152.938 162.195 153.268 162.385 153.668 162.385H153.818V162.685H149.378V162.385ZM142.508 152.905H147.128L144.818 146.635L142.508 152.905ZM166.173 143.665C164.693 143.665 163.403 143.935 162.303 144.475C161.223 144.995 160.323 145.685 159.603 146.545C158.883 147.385 158.343 148.335 157.983 149.395C157.643 150.455 157.473 151.505 157.473 152.545C157.473 153.725 157.703 154.885 158.163 156.025C158.623 157.145 159.253 158.145 160.053 159.025C160.873 159.885 161.823 160.585 162.903 161.125C163.983 161.645 165.153 161.905 166.413 161.905C166.773 161.905 167.193 161.865 167.673 161.785C168.173 161.705 168.663 161.555 169.143 161.335C169.623 161.095 170.063 160.765 170.463 160.345C170.883 159.925 171.203 159.375 171.423 158.695H171.723V162.025C171.423 162.025 171.103 162.065 170.763 162.145C170.443 162.225 170.083 162.315 169.683 162.415C169.163 162.555 168.583 162.685 167.943 162.805C167.323 162.925 166.663 162.985 165.963 162.985C164.223 162.985 162.693 162.685 161.373 162.085C160.053 161.485 158.953 160.705 158.073 159.745C157.193 158.785 156.533 157.705 156.093 156.505C155.653 155.285 155.433 154.055 155.433 152.815C155.433 151.575 155.653 150.345 156.093 149.125C156.533 147.905 157.203 146.815 158.103 145.855C159.003 144.875 160.133 144.085 161.493 143.485C162.853 142.885 164.453 142.585 166.293 142.585C166.953 142.585 167.543 142.645 168.063 142.765C168.603 142.885 169.083 143.005 169.503 143.125C169.803 143.225 170.073 143.305 170.313 143.365C170.573 143.405 170.823 143.425 171.063 143.425V146.755H170.763C170.643 146.135 170.423 145.625 170.103 145.225C169.783 144.805 169.403 144.485 168.963 144.265C168.543 144.045 168.083 143.895 167.583 143.815C167.103 143.715 166.633 143.665 166.173 143.665ZM181.573 162.385H181.723V162.685H177.463V162.385H177.613C177.773 162.385 177.913 162.325 178.033 162.205C178.153 162.085 178.253 161.945 178.333 161.785C178.433 161.625 178.503 161.455 178.543 161.275C178.583 161.075 178.603 160.895 178.603 160.735V143.995H175.123C174.803 143.995 174.523 144.065 174.283 144.205C174.043 144.345 173.843 144.525 173.683 144.745C173.523 144.945 173.403 145.175 173.323 145.435C173.243 145.675 173.203 145.915 173.203 146.155H172.903V142.885H186.373V146.155H186.073C186.073 145.915 186.033 145.675 185.953 145.435C185.873 145.175 185.753 144.945 185.593 144.745C185.433 144.525 185.233 144.345 184.993 144.205C184.753 144.065 184.473 143.995 184.153 143.995H180.613V160.735C180.613 160.895 180.633 161.075 180.673 161.275C180.713 161.455 180.773 161.625 180.853 161.785C180.953 161.945 181.053 162.085 181.153 162.205C181.273 162.325 181.413 162.385 181.573 162.385ZM188.016 162.385H188.166C188.326 162.385 188.466 162.335 188.586 162.235C188.706 162.115 188.806 161.975 188.886 161.815C188.986 161.655 189.056 161.485 189.096 161.305C189.156 161.125 189.186 160.955 189.186 160.795V144.745C189.186 144.605 189.156 144.445 189.096 144.265C189.056 144.085 188.986 143.915 188.886 143.755C188.806 143.595 188.706 143.465 188.586 143.365C188.466 143.245 188.326 143.185 188.166 143.185H188.016V142.885H199.566V145.675H199.266C199.226 145.215 199.046 144.815 198.726 144.475C198.406 144.115 197.906 143.935 197.226 143.935H191.196V151.525H196.176C196.636 151.525 197.016 151.385 197.316 151.105C197.636 150.825 197.796 150.495 197.796 150.115H198.096V153.865H197.796C197.796 153.505 197.646 153.195 197.346 152.935C197.046 152.675 196.656 152.545 196.176 152.545H191.196V161.635H197.766C198.146 161.635 198.476 161.545 198.756 161.365C199.036 161.185 199.266 160.975 199.446 160.735C199.646 160.475 199.786 160.205 199.866 159.925C199.966 159.625 200.016 159.375 200.016 159.175H200.316V162.685H188.016V162.385ZM202.546 142.885H206.806C209.026 142.885 210.706 143.315 211.846 144.175C213.006 145.015 213.586 146.215 213.586 147.775C213.586 148.615 213.386 149.365 212.986 150.025C212.586 150.685 212.056 151.245 211.396 151.705C210.756 152.145 210.026 152.485 209.206 152.725C208.406 152.965 207.606 153.085 206.806 153.085H205.666V160.735C205.666 160.895 205.686 161.075 205.726 161.275C205.766 161.455 205.826 161.625 205.906 161.785C206.006 161.945 206.106 162.085 206.206 162.205C206.326 162.325 206.466 162.385 206.626 162.385H206.776V162.685H202.546V162.385H202.696C202.836 162.385 202.966 162.325 203.086 162.205C203.206 162.085 203.306 161.945 203.386 161.785C203.466 161.625 203.526 161.455 203.566 161.275C203.606 161.075 203.626 160.895 203.626 160.735V144.745C203.626 144.465 203.546 144.145 203.386 143.785C203.226 143.425 202.996 143.225 202.696 143.185H202.546V142.885ZM205.666 143.935V152.035H206.566C207.366 152.035 208.076 151.925 208.696 151.705C209.336 151.485 209.866 151.195 210.286 150.835C210.706 150.475 211.026 150.065 211.246 149.605C211.466 149.145 211.576 148.675 211.576 148.195C211.576 147.615 211.476 147.075 211.276 146.575C211.096 146.055 210.786 145.605 210.346 145.225C209.926 144.825 209.366 144.515 208.666 144.295C207.966 144.055 207.106 143.935 206.086 143.935H205.666ZM223.934 162.385H224.084C224.244 162.385 224.384 162.325 224.504 162.205C224.624 162.085 224.724 161.945 224.804 161.785C224.904 161.625 224.974 161.455 225.014 161.275C225.054 161.075 225.074 160.895 225.074 160.735V144.745C225.074 144.605 225.054 144.445 225.014 144.265C224.974 144.085 224.904 143.915 224.804 143.755C224.724 143.595 224.624 143.465 224.504 143.365C224.384 143.245 224.254 143.185 224.114 143.185H223.964V142.885H228.224V143.185H228.074C227.914 143.185 227.774 143.245 227.654 143.365C227.534 143.465 227.424 143.595 227.324 143.755C227.244 143.915 227.174 144.085 227.114 144.265C227.074 144.445 227.054 144.605 227.054 144.745V150.955L234.014 144.025C234.174 143.865 234.254 143.675 234.254 143.455C234.254 143.275 234.174 143.185 234.014 143.185V142.885H237.254V143.185C236.854 143.205 236.494 143.325 236.174 143.545C235.874 143.765 235.544 144.055 235.184 144.415L228.074 151.525C229.374 151.565 230.424 151.845 231.224 152.365C232.024 152.885 232.654 153.605 233.114 154.525L235.484 159.325C235.624 159.625 235.804 159.955 236.024 160.315C236.264 160.655 236.524 160.985 236.804 161.305C237.104 161.605 237.434 161.865 237.794 162.085C238.154 162.285 238.534 162.385 238.934 162.385V162.685H237.434C236.854 162.685 236.354 162.605 235.934 162.445C235.514 162.265 235.144 162.035 234.824 161.755C234.524 161.455 234.254 161.125 234.014 160.765C233.794 160.405 233.594 160.045 233.414 159.685L230.984 154.855C230.604 154.115 230.074 153.555 229.394 153.175C228.734 152.775 227.954 152.555 227.054 152.515V160.735C227.054 160.895 227.074 161.065 227.114 161.245C227.154 161.425 227.214 161.605 227.294 161.785C227.374 161.945 227.474 162.085 227.594 162.205C227.714 162.305 227.844 162.365 227.984 162.385H228.194V162.685H223.934V162.385ZM243.271 160.585C243.091 161.105 242.811 161.585 242.431 162.025C242.051 162.465 241.491 162.685 240.751 162.685H239.821V162.385C239.941 162.385 240.101 162.355 240.301 162.295C240.501 162.215 240.711 162.095 240.931 161.935C241.151 161.775 241.371 161.575 241.591 161.335C241.811 161.075 242.001 160.755 242.161 160.375L247.831 144.835C247.931 144.535 247.981 144.305 247.981 144.145C247.981 143.845 247.891 143.615 247.711 143.455C247.551 143.275 247.381 143.185 247.201 143.185V142.885H249.661L256.381 161.245C256.481 161.525 256.671 161.785 256.951 162.025C257.231 162.245 257.541 162.365 257.881 162.385V162.685H253.591V162.385C253.751 162.385 253.911 162.325 254.071 162.205C254.251 162.065 254.341 161.885 254.341 161.665C254.341 161.605 254.321 161.515 254.281 161.395L248.641 145.855L243.271 160.585ZM271.575 162.385H271.725C272.205 162.385 272.445 162.165 272.445 161.725C272.445 161.565 272.415 161.395 272.355 161.215L269.655 153.925H264.405L261.795 161.095C261.735 161.255 261.705 161.405 261.705 161.545C261.705 161.805 261.775 162.015 261.915 162.175C262.055 162.315 262.205 162.385 262.365 162.385H262.515V162.685H259.185V162.385H259.335C259.595 162.385 259.845 162.235 260.085 161.935C260.345 161.615 260.555 161.245 260.715 160.825L267.585 142.525L274.305 160.645C274.445 161.045 274.635 161.435 274.875 161.815C275.135 162.195 275.465 162.385 275.865 162.385H276.015V162.685H271.575V162.385ZM264.705 152.905H269.325L267.015 146.635L264.705 152.905ZM288.371 143.665C286.891 143.665 285.601 143.935 284.501 144.475C283.421 144.995 282.521 145.685 281.801 146.545C281.081 147.385 280.541 148.335 280.181 149.395C279.841 150.455 279.671 151.505 279.671 152.545C279.671 153.725 279.901 154.885 280.361 156.025C280.821 157.145 281.451 158.145 282.251 159.025C283.071 159.885 284.021 160.585 285.101 161.125C286.181 161.645 287.351 161.905 288.611 161.905C288.971 161.905 289.391 161.865 289.871 161.785C290.371 161.705 290.861 161.555 291.341 161.335C291.821 161.095 292.261 160.765 292.661 160.345C293.081 159.925 293.401 159.375 293.621 158.695H293.921V162.025C293.621 162.025 293.301 162.065 292.961 162.145C292.641 162.225 292.281 162.315 291.881 162.415C291.361 162.555 290.781 162.685 290.141 162.805C289.521 162.925 288.861 162.985 288.161 162.985C286.421 162.985 284.891 162.685 283.571 162.085C282.251 161.485 281.151 160.705 280.271 159.745C279.391 158.785 278.731 157.705 278.291 156.505C277.851 155.285 277.631 154.055 277.631 152.815C277.631 151.575 277.851 150.345 278.291 149.125C278.731 147.905 279.401 146.815 280.301 145.855C281.201 144.875 282.331 144.085 283.691 143.485C285.051 142.885 286.651 142.585 288.491 142.585C289.151 142.585 289.741 142.645 290.261 142.765C290.801 142.885 291.281 143.005 291.701 143.125C292.001 143.225 292.271 143.305 292.511 143.365C292.771 143.405 293.021 143.425 293.261 143.425V146.755H292.961C292.841 146.135 292.621 145.625 292.301 145.225C291.981 144.805 291.601 144.485 291.161 144.265C290.741 144.045 290.281 143.895 289.781 143.815C289.301 143.715 288.831 143.665 288.371 143.665ZM305.656 143.665C304.176 143.665 302.886 143.935 301.786 144.475C300.706 144.995 299.806 145.685 299.086 146.545C298.366 147.385 297.826 148.335 297.466 149.395C297.126 150.455 296.956 151.505 296.956 152.545C296.956 153.725 297.186 154.885 297.646 156.025C298.106 157.145 298.736 158.145 299.536 159.025C300.356 159.885 301.306 160.585 302.386 161.125C303.466 161.645 304.636 161.905 305.896 161.905C306.256 161.905 306.676 161.865 307.156 161.785C307.656 161.705 308.146 161.555 308.626 161.335C309.106 161.095 309.546 160.765 309.946 160.345C310.366 159.925 310.686 159.375 310.906 158.695H311.206V162.025C310.906 162.025 310.586 162.065 310.246 162.145C309.926 162.225 309.566 162.315 309.166 162.415C308.646 162.555 308.066 162.685 307.426 162.805C306.806 162.925 306.146 162.985 305.446 162.985C303.706 162.985 302.176 162.685 300.856 162.085C299.536 161.485 298.436 160.705 297.556 159.745C296.676 158.785 296.016 157.705 295.576 156.505C295.136 155.285 294.916 154.055 294.916 152.815C294.916 151.575 295.136 150.345 295.576 149.125C296.016 147.905 296.686 146.815 297.586 145.855C298.486 144.875 299.616 144.085 300.976 143.485C302.336 142.885 303.936 142.585 305.776 142.585C306.436 142.585 307.026 142.645 307.546 142.765C308.086 142.885 308.566 143.005 308.986 143.125C309.286 143.225 309.556 143.305 309.796 143.365C310.056 143.405 310.306 143.425 310.546 143.425V146.755H310.246C310.126 146.135 309.906 145.625 309.586 145.225C309.266 144.805 308.886 144.485 308.446 144.265C308.026 144.045 307.566 143.895 307.066 143.815C306.586 143.715 306.116 143.665 305.656 143.665Z" fill="#FFFCF4"></path><path d="M146.489 183.8C147.822 182.466 149.462 181.8 151.409 181.8C153.356 181.8 154.996 182.466 156.329 183.8C157.662 185.133 158.329 186.76 158.329 188.68C158.329 190.6 157.662 192.226 156.329 193.56C154.996 194.88 153.356 195.54 151.409 195.54C149.462 195.54 147.822 194.88 146.489 193.56C145.156 192.226 144.489 190.6 144.489 188.68C144.489 186.76 145.156 185.133 146.489 183.8ZM147.129 193C148.276 194.16 149.702 194.74 151.409 194.74C153.116 194.74 154.542 194.16 155.689 193C156.836 191.826 157.409 190.386 157.409 188.68C157.409 186.96 156.836 185.52 155.689 184.36C154.542 183.186 153.116 182.6 151.409 182.6C149.702 182.6 148.276 183.186 147.129 184.36C145.982 185.52 145.409 186.96 145.409 188.68C145.409 190.386 145.982 191.826 147.129 193ZM167.485 182.78H164.025V195.32H163.145V182.78H159.685V181.98H167.485V182.78ZM174.232 195.32V181.98H177.152C178.299 181.98 179.199 182.286 179.852 182.9C180.506 183.5 180.832 184.306 180.832 185.32C180.832 186.626 180.312 187.6 179.272 188.24C180.126 188.373 180.799 188.746 181.292 189.36C181.786 189.973 182.032 190.713 182.032 191.58C182.032 192.726 181.646 193.64 180.872 194.32C180.112 194.986 179.119 195.32 177.892 195.32H174.232ZM175.112 182.78V188.02H177.232C177.992 188.02 178.599 187.833 179.052 187.46C179.639 186.98 179.932 186.3 179.932 185.42C179.932 184.526 179.632 183.833 179.032 183.34C178.552 182.966 177.812 182.78 176.812 182.78H175.112ZM175.112 188.82V194.52H177.352C177.766 194.52 178.092 194.513 178.332 194.5C178.572 194.473 178.879 194.4 179.252 194.28C179.639 194.16 179.972 193.973 180.252 193.72C180.826 193.213 181.112 192.533 181.112 191.68C181.112 190.466 180.639 189.64 179.692 189.2C179.119 188.946 178.286 188.82 177.192 188.82H175.112ZM194.436 195.32V184.2L184.916 195.66V181.98H185.796V193.3L195.316 181.84V195.32H194.436ZM199.84 184.24L199.2 183.7C199.973 182.433 201.18 181.8 202.82 181.8C203.833 181.8 204.64 182.086 205.24 182.66C205.88 183.246 206.2 184.046 206.2 185.06C206.2 186.38 205.613 187.353 204.44 187.98C205.293 188.193 205.953 188.62 206.42 189.26C206.887 189.9 207.12 190.646 207.12 191.5C207.12 192.9 206.613 193.966 205.6 194.7C204.827 195.26 203.86 195.54 202.7 195.54C201.593 195.54 200.66 195.273 199.9 194.74C199.14 194.193 198.573 193.52 198.2 192.72L199.04 192.32C199.373 193.12 199.893 193.726 200.6 194.14C201.32 194.54 202.04 194.74 202.76 194.74C203.667 194.74 204.433 194.506 205.06 194.04C205.82 193.48 206.2 192.633 206.2 191.5C206.2 190.566 205.88 189.84 205.24 189.32C204.613 188.8 203.747 188.54 202.64 188.54H201.44V187.74H202.64C203.347 187.74 203.96 187.5 204.48 187.02C205.013 186.526 205.28 185.873 205.28 185.06C205.28 184.366 205.073 183.793 204.66 183.34C204.207 182.846 203.56 182.6 202.72 182.6C201.507 182.6 200.547 183.146 199.84 184.24ZM218.674 195.32L216.894 190.94H211.214L209.434 195.32H208.474L214.094 181.58L219.634 195.32H218.674ZM211.534 190.14H216.574L214.074 183.82L211.534 190.14ZM227.433 181.98H228.313V188.26L233.953 181.98H235.113L229.193 188.44L235.553 195.32H234.393L228.573 189.04L228.313 189.3V195.32H227.433V189.3L227.173 189.04L221.353 195.32H220.193L226.553 188.44L220.633 181.98H221.793L227.433 188.26V181.98ZM247.151 195.32V184.2L237.631 195.66V181.98H238.511V193.3L248.031 181.84V195.32H247.151ZM262.315 183.54V184.7C261.741 184.033 261.061 183.52 260.275 183.16C259.501 182.786 258.681 182.6 257.815 182.6C256.121 182.6 254.701 183.193 253.555 184.38C252.408 185.566 251.835 187.013 251.835 188.72C251.835 189.666 252.015 190.533 252.375 191.32C252.748 192.106 253.228 192.746 253.815 193.24C254.415 193.72 255.061 194.093 255.755 194.36C256.448 194.613 257.141 194.74 257.835 194.74C258.581 194.74 259.355 194.58 260.155 194.26C260.955 193.926 261.675 193.413 262.315 192.72V193.88C261.061 194.986 259.581 195.54 257.875 195.54C255.901 195.54 254.248 194.866 252.915 193.52C251.581 192.173 250.915 190.56 250.915 188.68C250.915 186.76 251.588 185.133 252.935 183.8C254.281 182.466 255.915 181.8 257.835 181.8C259.595 181.8 261.088 182.38 262.315 183.54ZM271.469 182.78H268.009V195.32H267.129V182.78H263.669V181.98H271.469V182.78ZM281.037 195.32L279.257 190.94H273.577L271.797 195.32H270.837L276.457 181.58L281.997 195.32H281.037ZM273.897 190.14H278.937L276.437 183.82L273.897 190.14ZM139.38 209.06L139.68 207.5H140.32L139.46 211.94C139.367 212.366 139.32 212.693 139.32 212.92C139.32 213.2 139.4 213.446 139.56 213.66C139.72 213.873 139.954 213.98 140.26 213.98C140.954 213.98 141.554 213.56 142.06 212.72C142.58 211.88 142.84 210.893 142.84 209.76C142.84 208.173 142.294 206.893 141.2 205.92C140.107 204.933 138.754 204.44 137.14 204.44C135.38 204.44 133.9 205.04 132.7 206.24C131.514 207.44 130.92 208.913 130.92 210.66C130.92 211.94 131.254 213.12 131.92 214.2C132.6 215.28 133.52 216.046 134.68 216.5C135.494 216.82 136.42 216.98 137.46 216.98C138.914 216.98 140.147 216.726 141.16 216.22C141.547 216.033 141.794 215.913 141.9 215.86L142.14 216.44C141.367 216.84 140.574 217.133 139.76 217.32C138.974 217.493 138.2 217.58 137.44 217.58C135.347 217.58 133.62 216.933 132.26 215.64C130.914 214.346 130.24 212.7 130.24 210.7C130.24 208.766 130.907 207.14 132.24 205.82C133.574 204.5 135.207 203.84 137.14 203.84C138.887 203.84 140.374 204.393 141.6 205.5C142.827 206.593 143.44 208.013 143.44 209.76C143.44 211.106 143.107 212.24 142.44 213.16C141.787 214.08 141.054 214.54 140.24 214.54C139.814 214.54 139.46 214.406 139.18 214.14C138.914 213.86 138.794 213.506 138.82 213.08C138.554 213.56 138.194 213.933 137.74 214.2C137.287 214.453 136.807 214.58 136.3 214.58C135.46 214.58 134.787 214.273 134.28 213.66C133.774 213.033 133.52 212.266 133.52 211.36C133.52 210.226 133.847 209.26 134.5 208.46C135.167 207.646 136.007 207.24 137.02 207.24C137.167 207.24 137.314 207.253 137.46 207.28C137.607 207.306 137.82 207.366 138.1 207.46C138.394 207.553 138.654 207.74 138.88 208.02C139.107 208.286 139.274 208.633 139.38 209.06ZM136.4 213.94C137.12 213.94 137.734 213.6 138.24 212.92C138.76 212.226 139.02 211.32 139.02 210.2C139.02 210 139 209.806 138.96 209.62C138.934 209.42 138.86 209.173 138.74 208.88C138.634 208.573 138.434 208.333 138.14 208.16C137.86 207.973 137.507 207.88 137.08 207.88C136.214 207.88 135.52 208.226 135 208.92C134.48 209.6 134.22 210.406 134.22 211.34C134.22 212.153 134.434 212.793 134.86 213.26C135.3 213.713 135.814 213.94 136.4 213.94ZM147.329 205.8C148.662 204.466 150.302 203.8 152.249 203.8C154.195 203.8 155.835 204.466 157.169 205.8C158.502 207.133 159.169 208.76 159.169 210.68C159.169 212.6 158.502 214.226 157.169 215.56C155.835 216.88 154.195 217.54 152.249 217.54C150.302 217.54 148.662 216.88 147.329 215.56C145.995 214.226 145.329 212.6 145.329 210.68C145.329 208.76 145.995 207.133 147.329 205.8ZM147.969 215C149.115 216.16 150.542 216.74 152.249 216.74C153.955 216.74 155.382 216.16 156.529 215C157.675 213.826 158.249 212.386 158.249 210.68C158.249 208.96 157.675 207.52 156.529 206.36C155.382 205.186 153.955 204.6 152.249 204.6C150.542 204.6 149.115 205.186 147.969 206.36C146.822 207.52 146.249 208.96 146.249 210.68C146.249 212.386 146.822 213.826 147.969 215ZM162.925 203.98V210.26L169.225 203.98H170.385L163.925 210.36L170.765 217.32H169.565L163.285 210.96L162.925 211.3V217.32H162.045V203.98H162.925ZM179.566 205.7L178.926 206.24C178.366 205.146 177.492 204.6 176.306 204.6C175.546 204.6 174.939 204.84 174.486 205.32C174.046 205.8 173.826 206.386 173.826 207.08C173.826 207.426 173.872 207.726 173.966 207.98C174.072 208.233 174.252 208.466 174.506 208.68C174.772 208.893 175.006 209.06 175.206 209.18C175.406 209.286 175.726 209.446 176.166 209.66C177.606 210.353 178.492 210.82 178.826 211.06C179.772 211.713 180.246 212.573 180.246 213.64C180.246 214.746 179.839 215.673 179.026 216.42C178.212 217.166 177.232 217.54 176.086 217.54C174.819 217.54 173.786 217.073 172.986 216.14C172.599 215.686 172.312 215.2 172.126 214.68L172.886 214.32C173.046 214.8 173.286 215.226 173.606 215.6C174.206 216.36 175.039 216.74 176.106 216.74C177.012 216.74 177.772 216.446 178.386 215.86C179.012 215.273 179.326 214.54 179.326 213.66C179.326 212.793 178.892 212.093 178.026 211.56C177.772 211.413 176.946 210.993 175.546 210.3C174.919 209.993 174.446 209.726 174.126 209.5C173.806 209.273 173.539 208.986 173.326 208.64C173.046 208.173 172.906 207.666 172.906 207.12C172.906 206.253 173.199 205.486 173.786 204.82C174.372 204.14 175.219 203.8 176.326 203.8C177.006 203.8 177.632 203.966 178.206 204.3C178.779 204.62 179.232 205.086 179.566 205.7ZM181.319 219.64V218.88H191.319V219.64H181.319ZM193.119 203.98H193.999V216.52H197.719V217.32H193.119V203.98ZM206.199 203.98V204.78H200.679V209.62H206.079V210.42H200.679V216.52H206.199V217.32H199.799V203.98H206.199ZM207.556 203.98H208.516L212.436 215.34L216.236 203.98H217.196L212.436 217.86L207.556 203.98ZM229.951 205.54V206.7C229.378 206.033 228.698 205.52 227.911 205.16C227.138 204.786 226.318 204.6 225.451 204.6C223.758 204.6 222.338 205.193 221.191 206.38C220.045 207.566 219.471 209.013 219.471 210.72C219.471 211.666 219.651 212.533 220.011 213.32C220.385 214.106 220.865 214.746 221.451 215.24C222.051 215.72 222.698 216.093 223.391 216.36C224.085 216.613 224.778 216.74 225.471 216.74C226.218 216.74 226.991 216.58 227.791 216.26C228.591 215.926 229.311 215.413 229.951 214.72V215.88C228.698 216.986 227.218 217.54 225.511 217.54C223.538 217.54 221.885 216.866 220.551 215.52C219.218 214.173 218.551 212.56 218.551 210.68C218.551 208.76 219.225 207.133 220.571 205.8C221.918 204.466 223.551 203.8 225.471 203.8C227.231 203.8 228.725 204.38 229.951 205.54ZM233.706 203.98V209.64H241.786V203.98H242.666V217.32H241.786V210.44H233.706V217.32H232.826V203.98H233.706ZM252.664 203.98V204.78H247.144V209.62H252.544V210.42H247.144V216.52H252.664V217.32H246.264V203.98H252.664ZM256.421 217.32H255.541V203.84L266.741 215.56V203.98H267.621V217.66L256.421 205.94V217.32ZM272.105 203.98V210.26L278.405 203.98H279.565L273.105 210.36L279.945 217.32H278.745L272.465 210.96L272.105 211.3V217.32H271.225V203.98H272.105ZM283.169 205.8C284.502 204.466 286.142 203.8 288.089 203.8C290.035 203.8 291.675 204.466 293.009 205.8C294.342 207.133 295.009 208.76 295.009 210.68C295.009 212.6 294.342 214.226 293.009 215.56C291.675 216.88 290.035 217.54 288.089 217.54C286.142 217.54 284.502 216.88 283.169 215.56C281.835 214.226 281.169 212.6 281.169 210.68C281.169 208.76 281.835 207.133 283.169 205.8ZM283.809 215C284.955 216.16 286.382 216.74 288.089 216.74C289.795 216.74 291.222 216.16 292.369 215C293.515 213.826 294.089 212.386 294.089 210.68C294.089 208.96 293.515 207.52 292.369 206.36C291.222 205.186 289.795 204.6 288.089 204.6C286.382 204.6 284.955 205.186 283.809 206.36C282.662 207.52 282.089 208.96 282.089 210.68C282.089 212.386 282.662 213.826 283.809 215Z" fill="#B2907B"></path><path d="M211.816 112.454C208.81 111.731 205.341 112.239 202.266 112.309C198.704 112.384 195.165 112.687 191.615 112.833C191.424 112.833 191.389 113.125 191.615 113.125C195.142 113.171 198.663 113.375 202.208 113.352C205.306 113.352 208.793 113.719 211.798 112.938C212.018 112.88 212.094 112.518 211.827 112.454H211.816ZM214.462 89.4198C214.225 82.7736 214.167 76.0924 214.405 69.4403H214.526C214.723 69.4053 214.787 69.0555 214.526 69.0263H214.387C214.428 68.0411 214.468 67.05 214.52 66.0705C214.52 65.8898 214.254 65.9015 214.242 66.0705C214.155 67.0441 214.08 68.0178 214.005 68.9855C210.026 68.5425 205.897 68.9389 201.883 69.0205C197.87 69.1021 193.654 68.8165 189.774 69.6385C189.774 68.2976 189.797 66.9625 189.843 65.6333L192.588 65.6974H193.109C196.133 65.7615 199.15 65.814 202.173 65.8373C205.868 65.8723 210.061 66.4203 213.675 65.6391C213.889 65.5866 213.953 65.2427 213.71 65.1902C210.113 64.374 205.914 64.992 202.237 65.0444C199.19 65.0833 196.144 65.1455 193.098 65.231C192.965 59.6633 192.901 54.0665 192.438 48.5163C192.438 48.3939 192.218 48.4288 192.218 48.5454C192.154 51.5712 192.27 54.597 192.357 57.6228L192.496 62.1644C192.426 63.1912 192.426 64.2217 192.496 65.2485L189.75 65.3243C189.72 65.3091 189.686 65.3016 189.651 65.3024C189.617 65.3032 189.584 65.3123 189.553 65.3289C189.523 65.3454 189.498 65.369 189.479 65.3976C189.459 65.4262 189.447 65.4591 189.443 65.4934C189.382 66.912 189.322 68.3229 189.264 69.726H189.206C189.079 69.7609 189.026 69.9766 189.206 70.0058H189.276C189.021 76.5704 188.887 83.1117 189.096 89.7113C189.333 97.3253 189.548 105.307 191.007 112.792C191.025 112.838 191.057 112.876 191.098 112.902C191.14 112.927 191.188 112.938 191.236 112.933C191.285 112.927 191.33 112.906 191.365 112.872C191.4 112.839 191.423 112.794 191.43 112.746C191.331 104.893 190.416 97.0047 190.133 89.1341C189.907 82.8144 189.739 76.4305 189.797 70.0816C193.683 70.7171 197.905 70.204 201.826 70.0816C205.833 69.9592 210.026 70.1399 213.988 69.4986C213.46 76.3059 213.287 83.1365 213.472 89.962C213.715 97.541 213.779 105.651 215.314 113.055C215.36 113.305 215.754 113.241 215.76 113.002C216.119 105.219 214.764 97.2146 214.474 89.4198H214.462ZM192.692 47.8517C193.642 47.8167 194.592 47.7701 195.542 47.7176V46.8839C195.594 42.6863 195.345 38.3487 195.878 34.1861C194.575 32.7985 197.326 28.0354 197.829 27.0326C199.695 23.3321 202.34 20.0853 205.578 17.518C205.594 17.5037 205.615 17.4957 205.636 17.4957C205.658 17.4957 205.678 17.5037 205.694 17.518C205.706 17.5044 205.72 17.4933 205.736 17.4852C205.752 17.4772 205.769 17.4725 205.787 17.4714C205.818 17.4469 205.855 17.4305 205.893 17.4238C205.932 17.4171 205.972 17.4203 206.01 17.433C206.047 17.4458 206.081 17.4677 206.107 17.4967C206.134 17.5258 206.153 17.5612 206.163 17.5996C207.901 23.6395 208.289 30.2217 208.694 36.4656C208.926 39.9636 209.163 43.5899 209.157 47.1696C210.279 47.1739 211.398 47.299 212.493 47.5427C212.858 47.6301 212.76 48.1257 212.447 48.2015L212.024 48.2831C212.631 53.6347 212.507 59.0448 211.654 64.3623C211.619 64.5897 211.219 64.7063 211.184 64.4206C210.633 59.0617 210.81 53.6521 211.711 48.3414C210.862 48.4875 210.002 48.5712 209.14 48.5921H208.115C206.378 48.5921 204.64 48.458 203.03 48.4405C200.847 48.4405 198.669 48.3181 196.492 48.219L195.519 48.1782C194.569 48.1373 193.613 48.0965 192.658 48.0674C192.525 48.079 192.553 47.8575 192.704 47.8517H192.692ZM196.468 33.1542C196.55 33.2171 196.644 33.2604 196.744 33.2806C196.845 33.3008 196.949 33.2975 197.048 33.2708C197.259 33.2152 197.456 33.1159 197.627 32.9793C198.681 32.0681 199.579 30.9888 200.285 29.7844C201.175 28.4628 201.978 27.084 202.688 25.6567C203.859 23.0905 204.838 20.4402 205.619 17.7279C203.398 19.8444 201.436 22.2205 199.775 24.8055C199.196 25.6975 198.687 26.6245 198.206 27.569C197.997 27.9829 197.789 28.3969 197.598 28.8166C197.355 29.3705 197.065 29.8952 196.839 30.4607C196.649 30.9392 196.485 31.4277 196.347 31.924C196.231 32.3205 196.127 32.8393 196.48 33.1542H196.468ZM196.509 45.7237V47.6709C198.716 47.5485 200.916 47.4261 203.134 47.3794C204.721 47.3503 206.418 47.2045 208.092 47.1754C208.005 43.5025 207.97 39.8237 207.692 36.1566C207.252 30.3266 206.198 24.5723 205.752 18.7598C204.99 22.5171 203.513 26.0904 201.403 29.283C200.766 30.2858 198.287 34.8332 196.468 34.4717C196.81 38.1971 196.55 42.01 196.521 45.7237H196.509Z" fill="#FFFCF4"></path><path d="M250.259 67.6938C250.399 67.7604 250.318 67.9595 250.18 67.9517C248.821 67.8221 247.478 67.565 246.169 67.1839C244.788 66.8742 243.425 66.4898 242.087 66.0324C239.588 73.7132 237.241 81.4551 234.739 89.1377C233.509 92.9141 232.262 96.6986 230.996 100.491C230.365 102.437 229.673 104.391 229.032 106.347C228.755 107.192 228.305 108.154 228.252 109.077C228.119 111.954 230.378 112.739 232.432 111.549C235.393 109.832 236.385 105.199 237.417 102.194C238.768 98.2584 240.113 94.3187 241.451 90.3753C243.918 83.1934 245.962 75.6799 248.955 68.7085C249.139 68.2807 249.885 68.3991 249.753 68.8979C247.693 76.6903 244.487 84.3293 241.841 91.9472C240.572 95.5964 239.303 99.2469 238.034 102.899C237.097 105.624 236.297 108.669 234.387 110.922C231.6 114.198 226.569 113.098 227.604 108.317C228.318 105.033 229.772 101.742 230.839 98.534C232.049 94.885 233.251 91.2344 234.446 87.5821C236.819 80.3477 239.325 73.1776 241.865 65.9927C241.698 66.0667 241.486 65.993 241.497 65.7605C241.727 59.7264 243.876 53.7282 244.626 47.7199C244.628 47.6923 244.642 47.667 244.664 47.6495C244.686 47.632 244.713 47.6237 244.741 47.6265C244.769 47.6293 244.794 47.6429 244.812 47.6643C244.829 47.6857 244.837 47.7132 244.834 47.7408C244.215 53.7161 243.227 59.8257 242.131 65.7507C243.402 65.9262 244.661 66.1718 245.903 66.4862C247.322 66.8293 248.902 67.0859 250.259 67.6938ZM257.192 51.6842L257.136 51.8033C257.13 51.8057 257.125 51.8094 257.12 51.8141C257.116 51.8187 257.113 51.8243 257.112 51.8303C257.11 51.8363 257.11 51.8425 257.111 51.8486C257.112 51.8547 257.115 51.8605 257.118 51.8654C254.643 56.9851 252.212 62.139 250.172 67.441C250.166 67.4534 250.162 67.4669 250.162 67.4807C250.161 67.4945 250.164 67.5082 250.169 67.521C250.174 67.5338 250.181 67.5454 250.191 67.5551C250.201 67.5648 250.213 67.5723 250.226 67.5772C250.239 67.5821 250.252 67.5843 250.266 67.5836C250.28 67.5829 250.294 67.5793 250.306 67.5732C250.318 67.567 250.33 67.5584 250.338 67.5477C250.347 67.5371 250.354 67.5248 250.358 67.5116C252.585 62.2154 255.805 57.3336 257.61 51.8395C257.63 51.782 257.627 51.7192 257.6 51.6647C257.574 51.6102 257.526 51.5686 257.469 51.549C257.411 51.5294 257.348 51.5334 257.293 51.5601C257.238 51.5869 257.196 51.6342 257.176 51.6916L257.192 51.6842ZM244.944 47.3606C244.789 47.3703 244.76 47.6404 244.928 47.6495C249.571 47.8747 253.716 49.3145 258.106 50.5761C258.186 50.5998 258.285 50.4966 258.197 50.422C254.43 47.7808 249.419 47.1756 244.944 47.3606ZM244.317 46.8138C243.326 44.4267 242.395 42.0078 241.308 39.6634C241.297 39.6393 241.278 39.6205 241.253 39.6111C241.228 39.6017 241.201 39.6025 241.176 39.6133C241.152 39.6241 241.133 39.644 241.123 39.6687C241.114 39.6934 241.114 39.7208 241.125 39.7448C242.044 42.1592 243.129 44.5096 244.149 46.8837C244.158 46.9058 244.176 46.9233 244.198 46.9324C244.22 46.9415 244.246 46.9415 244.268 46.9322C244.29 46.9229 244.308 46.9052 244.317 46.883C244.327 46.8608 244.327 46.8359 244.317 46.8138ZM241.38 38.8158C245.435 35.7229 250.704 33.9935 255.505 32.4572C260.605 30.8765 265.796 29.6135 271.05 28.6758C271.295 28.6313 271.286 28.2644 271.02 28.2836C265.483 28.7198 260.02 29.8545 254.762 31.6604C250.087 33.2446 244.699 34.9872 241.241 38.66C241.22 38.6785 241.207 38.7044 241.206 38.7321C241.204 38.7597 241.213 38.7869 241.232 38.8075C241.25 38.8282 241.276 38.8406 241.304 38.8422C241.332 38.8437 241.359 38.8342 241.38 38.8158ZM271.506 28.6807C270.03 32.5472 268.229 36.2849 266.123 39.8538C263.82 43.646 260.86 46.8009 257.706 49.9133C257.644 49.9755 257.708 50.0855 257.786 50.026C264.383 44.8686 269.79 36.8541 271.683 28.7205C271.709 28.6102 271.546 28.5791 271.506 28.6807Z" fill="#FFFCF4"></path></svg> 