<?xml version="1.0" encoding="UTF-8"?> <svg xmlns="http://www.w3.org/2000/svg" width="484" height="183" viewBox="0 0 484 183" fill="none"><path d="M122.344 36.4922C130.344 45.2422 135.51 55.388 137.844 66.9297C140.219 78.4297 140.156 89.888 137.656 101.305C134.906 114.263 129.885 125.846 122.594 136.055C115.302 146.263 106.427 154.867 95.9688 161.867C85.5104 168.909 74.1146 174.138 61.7812 177.555C49.4896 180.971 36.9688 182.367 24.2188 181.742C15.0104 181.451 8.82292 179.367 5.65625 175.492C2.48958 171.617 1.73958 166.867 3.40625 161.242C5.11458 155.617 8.65625 150.013 14.0312 144.43C16.4479 141.888 19.0104 139.534 21.7188 137.367C24.1354 124.409 27.8021 110.659 32.7188 96.1172C37.6771 81.5339 43.8438 67.5547 51.2188 54.1797C58.6354 40.8047 67.1979 29.388 76.9062 19.9297C76.3229 19.8464 75.7188 19.7839 75.0938 19.7422C64.8021 18.9505 54.9062 20.5547 45.4062 24.5547C37.1979 28.0964 30.0938 33.3464 24.0938 40.3047C18.1354 47.263 14.4688 55.2005 13.0938 64.1172C12.5104 69.1589 13.3021 73.9505 15.4688 78.4922C15.9688 79.7422 15.8438 80.7422 15.0938 81.4922C14.3854 82.2422 13.5104 82.5547 12.4688 82.4297C11.4271 82.263 10.7188 81.513 10.3438 80.1797C8.96875 72.9297 9.30208 65.8464 11.3438 58.9297C13.3854 52.013 16.6771 45.6797 21.2188 39.9297C25.7604 34.1797 31.0521 29.3672 37.0938 25.4922C43.3854 21.5755 50.1562 18.8047 57.4062 17.1797C65.2396 15.4714 73.1771 15.1172 81.2188 16.1172C86.3854 11.7005 91.8646 8.15885 97.6562 5.49219C103.49 2.78385 109.594 1.13802 115.969 0.554688C120.552 0.263021 125.094 0.575521 129.594 1.49219C130.469 1.70052 131.135 2.15885 131.594 2.86719C132.052 3.53385 132.198 4.30469 132.031 5.17969C131.823 6.05469 131.365 6.72135 130.656 7.17969C129.948 7.63802 129.135 7.78385 128.219 7.61719C120.76 6.07552 113.656 6.22135 106.906 8.05469C100.198 9.84635 93.9062 12.9297 88.0312 17.3047C101.365 20.3047 112.802 26.7005 122.344 36.4922ZM131.781 100.117C133.49 91.4922 133.802 82.8047 132.719 74.0547C131.677 65.3047 128.969 57.0755 124.594 49.3672C120.094 41.8672 114.219 35.7005 106.969 30.8672C99.7604 26.0339 91.9062 22.7214 83.4062 20.9297C74.7812 28.513 67.1146 37.6589 60.4062 48.3672C53.7396 59.0755 48.0729 70.0339 43.4062 81.2422C38.7396 92.4505 35.1354 102.555 32.5938 111.555C30.5938 118.638 28.9062 125.826 27.5312 133.117C36.6146 127.076 46.5104 122.971 57.2188 120.805C65.1771 119.18 73.1979 118.888 81.2812 119.93C83.9896 120.305 86.6562 120.826 89.2812 121.492C90.0312 121.701 90.5729 122.117 90.9062 122.742C91.2812 123.367 91.3854 124.055 91.2188 124.805C91.0104 125.555 90.5729 126.096 89.9062 126.43C89.2812 126.805 88.5938 126.888 87.8438 126.68C85.4271 125.971 82.9896 125.409 80.5312 124.992C71.0729 123.534 61.6979 123.971 52.4062 126.305C43.1562 128.638 34.5938 132.513 26.7188 137.93C25.6354 144.721 25.0938 151.555 25.0938 158.43C25.0104 159.846 24.4479 160.784 23.4062 161.242C22.4062 161.701 21.4062 161.68 20.4062 161.18C19.4062 160.721 18.8854 159.763 18.8438 158.305C19.2188 153.43 19.8854 148.138 20.8438 142.43C19.2604 143.763 17.7396 145.159 16.2812 146.617C13.0729 149.659 10.3438 153.096 8.09375 156.93C5.13542 162.138 4.26042 166.784 5.46875 170.867C6.67708 174.992 10.4062 177.701 16.6562 178.992C23.0312 179.992 29.4479 180.242 35.9062 179.742C47.2396 178.992 58.1979 176.555 68.7812 172.43C84.7812 166.305 98.4271 156.951 109.719 144.367C121.01 131.826 128.365 117.076 131.781 100.117ZM196.906 84.4922C197.031 84.9922 196.74 85.388 196.031 85.6797C195.365 85.9714 194.635 86.2005 193.844 86.3672C193.219 86.5339 192.76 86.6797 192.469 86.8047C188.302 87.888 184.073 88.4505 179.781 88.4922C179.573 88.4922 179.365 88.4922 179.156 88.4922C177.531 88.4505 175.615 88.3464 173.406 88.1797C171.198 88.013 169.094 87.6172 167.094 86.9922C167.177 90.1589 166.615 93.2422 165.406 96.2422C164.24 99.2422 162.594 101.513 160.469 103.055C157.969 104.846 155.677 105.346 153.594 104.555C151.51 103.763 150.177 101.867 149.594 98.8672C148.969 93.3672 150.323 88.3464 153.656 83.8047C155.365 81.5964 157.469 79.8672 159.969 78.6172C161.135 78.1589 162.073 78.3255 162.781 79.1172C163.156 78.7422 163.635 78.7005 164.219 78.9922C165.635 80.6172 166.531 82.638 166.906 85.0547C168.99 85.888 171.323 86.4297 173.906 86.6797C176.49 86.888 178.448 86.9922 179.781 86.9922C185.406 87.0339 190.823 86.0755 196.031 84.1172C196.198 84.0339 196.365 84.0339 196.531 84.1172C196.698 84.2005 196.823 84.3255 196.906 84.4922ZM164.344 83.3672C164.219 82.7422 164.031 82.138 163.781 81.5547C163.781 82.2214 163.969 82.8255 164.344 83.3672ZM155.781 102.055C158.99 101.305 161.365 99.3255 162.906 96.1172C164.49 92.9089 165.135 89.5339 164.844 85.9922C163.552 85.2839 162.656 84.3255 162.156 83.1172C159.823 84.3255 157.948 86.0339 156.531 88.2422C155.156 90.4089 154.26 92.763 153.844 95.3047C153.844 95.4714 153.823 95.638 153.781 95.8047C153.656 97.013 153.656 98.263 153.781 99.5547C153.948 100.846 154.615 101.68 155.781 102.055ZM254.281 84.9297C254.49 84.7214 254.698 84.6589 254.906 84.7422C255.156 84.8255 255.323 84.9714 255.406 85.1797C255.49 85.388 255.448 85.6172 255.281 85.8672C251.865 89.1589 247.594 92.763 242.469 96.6797C237.344 100.596 231.969 103.93 226.344 106.68C220.76 109.43 215.573 110.701 210.781 110.492C207.49 109.826 205.719 108.096 205.469 105.305C205.177 102.471 205.823 99.263 207.406 95.6797C208.99 92.0964 210.906 88.8047 213.156 85.8047C215.406 82.763 217.385 80.6797 219.094 79.5547C220.219 78.7214 221.51 78.138 222.969 77.8047C224.469 77.4714 225.885 77.7214 227.219 78.5547C228.052 79.1797 228.406 79.9297 228.281 80.8047C228.156 81.638 227.719 82.3047 226.969 82.8047C226.26 83.263 225.448 83.263 224.531 82.8047C222.49 83.3047 220.49 84.638 218.531 86.8047C216.615 88.9714 214.906 91.388 213.406 94.0547C211.906 96.7214 210.802 99.013 210.094 100.93C209.969 101.346 209.844 101.784 209.719 102.242C209.219 103.617 208.948 104.971 208.906 106.305C208.865 107.596 209.594 108.367 211.094 108.617C215.552 108.909 219.844 108.138 223.969 106.305C228.094 104.43 232.01 102.305 235.719 99.9297C236.094 99.6797 236.448 99.4505 236.781 99.2422C241.573 96.1589 246.073 92.7214 250.281 88.9297C251.698 87.6797 253.031 86.3464 254.281 84.9297ZM289.156 84.1797C289.365 83.9714 289.573 83.9089 289.781 83.9922C289.99 84.0755 290.115 84.2214 290.156 84.4297C290.24 84.638 290.177 84.8255 289.969 84.9922C286.177 87.8672 282.177 90.3672 277.969 92.4922C273.76 94.6172 269.49 96.513 265.156 98.1797C264.198 98.513 263.198 98.888 262.156 99.3047C262.115 99.3047 262.094 99.3047 262.094 99.3047C262.927 100.555 263.469 101.888 263.719 103.305C263.677 106.471 262.844 109.513 261.219 112.43C259.635 115.346 257.74 117.992 255.531 120.367C255.49 120.409 255.427 120.471 255.344 120.555C254.635 121.263 253.677 122.138 252.469 123.18C251.219 124.221 249.99 125.034 248.781 125.617C247.531 126.201 246.552 126.117 245.844 125.367C244.427 122.451 244.448 117.596 245.906 110.805C247.365 104.013 249.594 96.5339 252.594 88.3672C255.552 80.2005 258.573 72.5964 261.656 65.5547C264.781 58.513 267.24 53.2839 269.031 49.8672C269.406 49.2422 269.76 48.6172 270.094 47.9922C270.969 46.3255 271.927 44.7214 272.969 43.1797C274.01 41.5964 275.302 40.2214 276.844 39.0547C277.635 38.4714 278.406 38.388 279.156 38.8047C279.906 39.2214 280.24 39.888 280.156 40.8047C279.24 45.388 278.052 49.8672 276.594 54.2422C273.594 62.5339 269.615 70.388 264.656 77.8047C264.615 77.888 264.51 78.0339 264.344 78.2422C263.885 78.9089 263.135 79.9922 262.094 81.4922C261.094 82.9505 260.031 84.388 258.906 85.8047C257.531 89.4297 256.198 93.0755 254.906 96.7422C255.031 96.7005 255.156 96.6589 255.281 96.6172C256.865 96.1589 258.281 96.2839 259.531 96.9922C264.24 96.7839 269.615 95.2839 275.656 92.4922C281.698 89.6589 286.198 86.888 289.156 84.1797ZM276.156 47.4297C274.156 50.763 272.385 54.2214 270.844 57.8047C270.177 59.2214 269.49 60.638 268.781 62.0547C265.906 68.4714 263.198 74.9297 260.656 81.4297C267.115 72.9714 271.823 63.763 274.781 53.8047C274.865 53.4714 274.948 53.1172 275.031 52.7422C275.573 50.9922 275.948 49.2214 276.156 47.4297ZM256.719 101.242L256.656 101.18C256.323 101.263 255.969 101.346 255.594 101.43C254.677 101.346 254.052 100.951 253.719 100.242C253.302 101.451 252.906 102.68 252.531 103.93C252.031 105.596 251.51 107.263 250.969 108.93C250.177 111.263 249.49 113.596 248.906 115.93C248.323 118.305 248.01 120.68 247.969 123.055C250.677 121.221 252.969 118.951 254.844 116.242C256.719 113.534 258.094 110.659 258.969 107.617C259.26 106.576 259.385 105.555 259.344 104.555C259.219 103.888 258.885 103.201 258.344 102.492C257.844 101.784 257.302 101.367 256.719 101.242ZM332.094 84.3672C332.26 84.0755 332.49 83.9505 332.781 83.9922C333.073 84.0339 333.302 84.1797 333.469 84.4297C333.635 84.638 333.635 84.888 333.469 85.1797C332.26 86.888 330.865 88.4089 329.281 89.7422C327.698 91.0339 326.052 92.263 324.344 93.4297C324.052 93.638 323.781 93.8255 323.531 93.9922C319.406 96.8255 315.427 99.013 311.594 100.555C307.76 102.055 304.427 102.346 301.594 101.43C298.802 100.471 296.844 97.6797 295.719 93.0547C292.969 97.138 290.01 101.076 286.844 104.867C285.177 106.534 283.469 107.013 281.719 106.305C279.927 105.555 279.219 103.971 279.594 101.555C281.302 93.9714 284.865 87.388 290.281 81.8047C292.031 80.013 294.177 78.5755 296.719 77.4922C297.719 77.1172 298.531 77.2422 299.156 77.8672C299.823 78.4922 300.135 79.263 300.094 80.1797C300.052 81.0547 299.531 81.7005 298.531 82.1172C295.406 83.7005 292.781 85.9505 290.656 88.8672C288.573 91.7422 286.948 94.8672 285.781 98.2422C289.198 93.8255 292.385 89.2422 295.344 84.4922C295.802 83.7839 296.406 83.4089 297.156 83.3672C297.948 83.3255 298.615 83.5547 299.156 84.0547C299.74 84.5547 300.01 85.2214 299.969 86.0547C299.135 88.5964 298.906 91.2214 299.281 93.9297C299.698 96.5964 301.281 98.4714 304.031 99.5547C308.156 99.513 312.323 98.3464 316.531 96.0547C320.74 93.763 324.49 91.3464 327.781 88.8047C329.49 87.5547 330.927 86.0755 332.094 84.3672ZM345.719 79.4297C346.219 78.638 346.865 78.2214 347.656 78.1797C348.49 78.0964 349.177 78.3255 349.719 78.8672C350.302 79.3672 350.49 80.0755 350.281 80.9922C347.365 93.6589 343.927 106.221 339.969 118.68C340.635 118.596 341.198 118.617 341.656 118.742C342.156 118.867 342.427 119.242 342.469 119.867C342.385 120.117 342.24 120.326 342.031 120.492C341.823 120.659 341.594 120.721 341.344 120.68C340.677 120.555 340.01 120.513 339.344 120.555C336.844 128.096 333.844 135.492 330.344 142.742C327.094 149.367 323.302 155.742 318.969 161.867C318.469 162.534 317.844 162.888 317.094 162.93C316.302 163.013 315.615 162.784 315.031 162.242C314.073 161.159 313.49 159.18 313.281 156.305C313.031 153.471 313.302 150.659 314.094 147.867C315.552 142.701 318.031 137.555 321.531 132.43C324.99 127.305 329.198 123.367 334.156 120.617C337.198 111.701 339.844 102.68 342.094 93.5547C340.552 96.013 338.802 98.3047 336.844 100.43C334.135 103.305 331.51 104.534 328.969 104.117C326.385 103.701 325.156 101.451 325.281 97.3672C325.781 94.1589 326.844 91.1172 328.469 88.2422C330.094 85.3672 332.115 82.763 334.531 80.4297C337.073 78.1797 339.219 76.888 340.969 76.5547C342.719 76.2214 343.99 76.4089 344.781 77.1172C345.573 77.8255 345.802 78.6589 345.469 79.6172C345.135 80.5339 344.177 81.138 342.594 81.4297C340.677 81.8464 338.635 83.2839 336.469 85.7422C334.344 88.1589 332.656 90.8255 331.406 93.7422C330.115 96.6172 329.823 98.9297 330.531 100.68L330.219 100.555C331.802 101.221 333.323 100.846 334.781 99.4297C336.281 98.013 337.635 96.2005 338.844 93.9922C340.094 91.7839 341.115 89.8047 341.906 88.0547C342.198 87.4297 342.469 86.888 342.719 86.4297C343.26 85.1797 343.802 83.9089 344.344 82.6172C344.802 81.5755 345.26 80.513 345.719 79.4297ZM316.531 156.992C323.656 146.242 329.281 134.867 333.406 122.867C329.031 125.617 325.365 129.346 322.406 134.055C319.406 138.805 317.365 143.513 316.281 148.18C316.24 148.221 316.219 148.284 316.219 148.367C316.01 149.659 315.865 151.117 315.781 152.742C315.698 154.367 315.948 155.784 316.531 156.992ZM306.719 80.3672V80.4922C306.719 80.4505 306.698 80.4297 306.656 80.4297L306.719 80.3672ZM369.344 90.6797C368.802 90.263 368.24 90.0339 367.656 89.9922H367.594C366.552 89.7839 365.552 89.6589 364.594 89.6172C364.26 90.4089 363.948 91.2005 363.656 91.9922L362.344 95.2422C361.635 96.7839 361.052 98.3047 360.594 99.8047C360.135 101.305 359.927 102.805 359.969 104.305C362.594 102.971 364.781 101.388 366.531 99.5547C368.24 97.7214 369.469 95.8047 370.219 93.8047C370.469 93.138 370.552 92.4922 370.469 91.8672C370.302 91.4505 369.927 91.0547 369.344 90.6797ZM372.719 96.6172C371.594 98.1589 370.26 99.5964 368.719 100.93C369.344 100.763 369.969 100.555 370.594 100.305C371.26 100.055 371.844 99.8672 372.344 99.7422C376.802 97.9089 381.115 95.7214 385.281 93.1797C389.406 90.638 393.177 87.6589 396.594 84.2422C397.635 84.1172 398.01 84.3255 397.719 84.8672C397.385 85.4505 396.635 86.2214 395.469 87.1797C394.302 88.138 393.031 89.138 391.656 90.1797C390.24 91.1797 388.969 92.0547 387.844 92.8047C386.719 93.513 386.031 93.9297 385.781 94.0547C382.656 96.013 379.448 97.8464 376.156 99.5547C373.323 100.971 370.365 102.138 367.281 103.055C367.24 103.096 367.177 103.117 367.094 103.117C366.844 103.201 365.823 103.596 364.031 104.305C362.99 104.93 361.948 105.451 360.906 105.867C359.74 106.326 358.76 106.346 357.969 105.93C356.427 104.18 356.219 101.138 357.344 96.8047C358.177 93.5964 359.406 90.1172 361.031 86.3672C362.115 83.5339 362.823 81.5339 363.156 80.3672C363.531 79.3672 364.156 78.8047 365.031 78.6797C365.948 78.5547 366.74 78.7839 367.406 79.3672C368.073 79.9089 368.26 80.7214 367.969 81.8047C367.719 82.513 367.469 83.1589 367.219 83.7422C366.469 85.4922 365.948 86.6797 365.656 87.3047L365.969 87.2422C367.552 86.8255 368.99 86.7839 370.281 87.1172L372.969 88.3672H372.906C373.823 89.1172 374.448 89.9089 374.781 90.7422C374.865 92.7005 374.177 94.6589 372.719 96.6172ZM434.781 92.6172L434.719 92.6797C434.76 92.6797 434.781 92.7005 434.781 92.7422V92.6172ZM429.156 96.7422L429.094 96.8047C429.135 96.8047 429.156 96.8255 429.156 96.8672V96.7422ZM411.219 51.6172L409.031 51.4297L404.156 51.3672C401.823 51.5339 399.781 52.0755 398.031 52.9922C396.156 53.9089 394.74 55.6589 393.781 58.2422C392.865 60.4505 392.885 62.263 393.844 63.6797C394.802 65.0547 396.052 66.2005 397.594 67.1172C399.177 67.9922 400.844 69.4714 402.594 71.5547C404.427 74.0547 405.615 75.9505 406.156 77.2422L407.219 79.1172L407.406 79.4922C407.573 79.8255 407.74 80.1172 407.906 80.3672C408.74 81.6589 409.281 83.2214 409.531 85.0547C409.615 85.5964 409.677 86.2422 409.719 86.9922C409.802 90.1589 409.26 93.2422 408.094 96.2422C407.552 97.5339 406.948 98.7005 406.281 99.7422C406.49 99.6172 406.719 99.513 406.969 99.4297C410.76 97.888 414.01 96.4505 416.719 95.1172C419.427 93.7422 422.115 92.3672 424.781 90.9922C428.906 89.0755 431.885 86.9922 433.719 84.7422C433.885 84.5339 434.073 84.4297 434.281 84.4297C434.531 84.388 434.74 84.4297 434.906 84.5547C435.323 85.0547 435.26 85.6172 434.719 86.2422C434.219 86.8672 433.615 87.4714 432.906 88.0547C432.406 88.4714 431.677 88.9505 430.719 89.4922C427.427 91.2839 424.052 93.0964 420.594 94.9297C417.177 96.7214 413.281 98.6172 408.906 100.617C407.031 101.451 405.24 102.159 403.531 102.742C403.365 102.867 403.219 102.971 403.094 103.055C400.594 104.846 398.302 105.346 396.219 104.555C394.135 103.763 392.802 101.867 392.219 98.8672C391.594 93.3672 392.948 88.3464 396.281 83.8047C397.615 82.013 398.677 80.888 399.469 80.4297C400.802 79.5964 401.885 79.5547 402.719 80.3047C403.969 81.8464 403.885 83.2005 402.469 84.3672C401.635 84.9505 400.531 86.2839 399.156 88.3672C397.781 90.4505 396.885 92.763 396.469 95.3047C396.469 95.4714 396.448 95.638 396.406 95.8047C396.281 97.013 396.281 98.263 396.406 99.5547C396.573 100.846 397.24 101.68 398.406 102.055C401.615 101.305 403.99 99.3255 405.531 96.1172C407.115 92.9089 407.76 89.5339 407.469 85.9922C407.427 85.9505 407.323 85.4922 407.156 84.6172C407.031 83.7422 406.969 83.3255 406.969 83.3672C406.927 83.2005 406.885 83.0339 406.844 82.8672C406.76 82.5755 406.531 82.0547 406.156 81.3047L405.594 80.2422L405.344 79.7422L404.281 77.6172C403.448 75.9505 402.115 74.0339 400.281 71.8672C399.031 70.5339 397.135 69.0755 394.594 67.4922C392.552 66.6589 390.927 65.1589 389.719 62.9922C388.677 60.7422 388.344 58.7005 388.719 56.8672C389.052 54.2839 390.76 52.3047 393.844 50.9297C394.635 50.5547 395.698 50.2422 397.031 49.9922C397.99 49.7422 400.031 49.5964 403.156 49.5547H407.531L410.656 49.7422C412.906 50.0755 414.469 50.2214 415.344 50.1797C416.427 50.263 417.615 50.0547 418.906 49.5547C420.24 49.013 421.344 48.3464 422.219 47.5547C423.635 46.263 424.635 45.5964 425.219 45.5547C425.677 45.9714 425.823 46.4922 425.656 47.1172L424.969 47.9922C422.76 49.6172 420.865 50.763 419.281 51.4297C417.698 52.0547 415.01 52.1172 411.219 51.6172ZM378.594 80.3672V80.4922C378.594 80.4505 378.573 80.4297 378.531 80.4297L378.594 80.3672ZM440.094 80.4922V80.3672L440.031 80.4297C440.073 80.4297 440.094 80.4505 440.094 80.4922ZM442.031 90.6797C441.49 90.263 440.927 90.0339 440.344 89.9922H440.281C439.24 89.7839 438.24 89.6589 437.281 89.6172L436.344 91.9922L435.031 95.2422C434.323 96.7839 433.74 98.3047 433.281 99.8047C432.823 101.305 432.615 102.805 432.656 104.305C435.281 102.971 437.469 101.388 439.219 99.5547C440.927 97.7214 442.156 95.8047 442.906 93.8047C443.156 93.138 443.24 92.4922 443.156 91.8672C442.99 91.4505 442.615 91.0547 442.031 90.6797ZM451.281 96.4922C451.198 96.2005 451.135 95.9089 451.094 95.6172C448.719 100.034 445.177 102.617 440.469 103.367C439.094 103.451 437.844 103.763 436.719 104.305C435.677 104.93 434.635 105.451 433.594 105.867C432.427 106.326 431.448 106.346 430.656 105.93C429.115 104.18 428.906 101.138 430.031 96.8047C430.865 93.5964 432.094 90.1172 433.719 86.3672C434.802 83.5339 435.51 81.5339 435.844 80.3672C436.219 79.3672 436.844 78.8047 437.719 78.6797C438.635 78.5547 439.427 78.763 440.094 79.3047C440.76 79.888 440.948 80.7214 440.656 81.8047C440.406 82.513 440.156 83.1589 439.906 83.7422C439.156 85.4922 438.635 86.6797 438.344 87.3047L438.656 87.2422C440.24 86.8255 441.677 86.7839 442.969 87.1172L445.656 88.3672H445.594C446.51 89.1172 447.135 89.9089 447.469 90.7422C447.552 92.7005 446.865 94.6589 445.406 96.6172C444.281 98.1589 442.74 99.763 440.781 101.43C441.156 101.346 441.677 101.201 442.344 100.992C443.01 100.784 443.677 100.555 444.344 100.305C447.052 98.8047 449.219 96.0547 450.844 92.0547C450.927 90.0964 451.344 87.9922 452.094 85.7422C453.26 82.6172 454.802 79.8672 456.719 77.4922C457.469 76.7839 458.198 76.5547 458.906 76.8047C459.615 77.0547 460.094 77.513 460.344 78.1797C460.552 78.888 460.385 79.638 459.844 80.4297C457.885 82.4714 456.24 84.763 454.906 87.3047C453.615 89.8464 453.094 92.4089 453.344 94.9922C453.469 95.9505 453.802 96.888 454.344 97.8047C455.26 98.9297 456.469 99.6172 457.969 99.8672C460.469 100.242 462.99 99.6589 465.531 98.1172C469.573 95.7839 473.26 92.9505 476.594 89.6172C478.26 87.9922 479.823 86.2839 481.281 84.4922C481.615 84.1589 481.948 84.0339 482.281 84.1172C482.615 84.2005 482.844 84.388 482.969 84.6797C483.094 85.013 482.99 85.3464 482.656 85.6797L479.906 88.3047C476.906 91.3047 473.719 94.0755 470.344 96.6172C466.719 99.6172 463.031 101.284 459.281 101.617C456.156 101.451 453.865 100.534 452.406 98.8672C451.906 98.2005 451.531 97.4089 451.281 96.4922Z" fill="white"></path></svg> 