<?xml version="1.0" encoding="UTF-8"?> <svg xmlns="http://www.w3.org/2000/svg" width="283" height="63" viewBox="0 0 283 63" fill="none"><path d="M36.3061 32.4991C36.3061 32.6698 36.1995 32.8191 35.9861 32.9471C34.4928 33.9285 33.0635 34.4191 31.6981 34.4191C29.6075 34.4191 28.2635 34.3765 27.6661 34.2911L26.2581 34.0991V34.7391C26.2581 36.6164 26.3008 38.3231 26.3861 39.8591C26.5995 42.8884 26.8555 45.1711 27.1541 46.7071C27.3675 47.6885 27.7515 48.8191 28.3061 50.0991C28.3915 50.1845 28.4341 50.2485 28.4341 50.2911C28.5195 50.5045 28.4768 50.6111 28.3061 50.6111L26.7701 50.9951C26.5995 50.9951 26.4501 50.9311 26.3221 50.8031C25.5115 50.2485 24.9781 49.4805 24.7221 48.4991C24.1675 46.8778 23.7621 44.9578 23.5061 42.7391L23.3141 41.1391C23.3141 41.0965 23.2501 40.6485 23.1221 39.7951C23.0368 38.8991 22.9728 38.1098 22.9301 37.4271C22.8021 36.1471 22.7381 34.8671 22.7381 33.5871C20.7328 33.3311 19.0261 33.0751 17.6181 32.8191C16.9781 32.6911 15.4208 32.4778 12.9461 32.1791C11.9221 32.0938 11.3675 32.0511 11.2821 32.0511L11.2181 34.2911C11.2181 37.0218 11.1968 38.7711 11.1541 39.5391C11.1541 41.0751 11.0688 42.4405 10.8981 43.6351C10.8981 43.8058 10.8768 43.9124 10.8341 43.9551C10.8341 44.1685 10.7275 44.2751 10.5141 44.2751C10.3008 44.3178 9.76747 44.3391 8.91413 44.3391C8.8288 44.3391 8.72213 44.2325 8.59413 44.0191C8.59413 43.6351 8.5728 43.3791 8.53013 43.2511C8.40213 41.5018 8.33813 39.7738 8.33813 38.0671L8.21013 31.9231C6.4608 31.9231 4.81813 32.1151 3.28213 32.4991C3.1968 32.5418 3.0048 32.6271 2.70613 32.7551C2.53547 32.7551 2.45013 32.8191 2.45013 32.9471C2.40747 32.9898 2.4288 33.0538 2.51413 33.1391L2.57813 33.2671C2.6208 33.4378 2.53547 33.5231 2.32213 33.5231C2.1088 33.5231 1.9808 33.5018 1.93813 33.4591L1.04213 32.8191C0.743466 32.5631 0.700799 32.2644 0.914133 31.9231C1.0848 31.6671 1.36213 31.4538 1.74613 31.2831L3.34613 30.7071C4.7968 30.2804 6.41813 30.0458 8.21013 30.0031V28.4671C8.1248 26.7604 8.08213 22.7284 8.08213 16.3711V14.1311C8.08213 12.0831 8.14613 10.0778 8.27413 8.11512L8.46613 4.59512C8.55147 4.08311 8.67947 3.82711 8.85013 3.82711C9.0208 3.82711 9.2768 3.89111 9.61813 4.01912C9.9168 4.14712 10.0661 4.36045 10.0661 4.65911C10.2368 5.51245 10.3221 6.19511 10.3221 6.70712L10.7701 12.3391L11.0901 17.6511L11.1541 20.5311L11.4101 27.1871L11.3461 30.0031H11.4101L14.4181 30.1951C17.0635 30.4084 18.6208 30.5578 19.0901 30.6431L22.7381 31.0911V27.2511L22.9301 21.5551L23.3141 15.9231C23.3568 15.1978 23.4208 14.3445 23.5061 13.3631C23.6341 12.3818 23.6981 11.8271 23.6981 11.6991L23.8901 9.71511C24.1888 6.72845 24.4021 4.82978 24.5301 4.01912C24.5301 3.89111 24.5515 3.65645 24.5941 3.31511C24.6368 2.93112 24.6795 2.52578 24.7221 2.09911C24.7648 1.67245 24.8075 1.24578 24.8501 0.819115L24.9141 0.563114C24.9995 0.520448 25.1701 0.541781 25.4261 0.627113C25.7248 0.669782 25.9168 0.925783 26.0021 1.39511L26.1941 2.99511C26.3221 4.91511 26.3861 7.77378 26.3861 11.5711V14.2591C26.3861 15.6671 26.3648 16.5631 26.3221 16.9471C26.2795 17.5018 26.2581 20.7658 26.2581 26.7391V31.5391L26.9621 31.6671C28.3701 31.7951 29.3515 31.8591 29.9061 31.8591C30.0768 31.8591 30.5461 31.8164 31.3141 31.7311C31.7835 31.6884 32.5941 31.4538 33.7461 31.0271L34.6421 30.6431C34.9408 30.6004 35.1541 30.6431 35.2821 30.7711L36.1781 32.0511C36.2635 32.2218 36.3061 32.3711 36.3061 32.4991ZM49.2906 32.1151L47.8186 34.0351L45.4506 37.1071C44.4266 38.2591 43.3813 39.1338 42.3146 39.7311C42.1866 39.8591 41.952 39.9658 41.6106 40.0511C41.312 40.2218 40.9066 40.3071 40.3946 40.3071C40.0533 40.3071 39.7546 40.2644 39.4986 40.1791C37.9626 39.6244 36.7466 38.9844 35.8506 38.2591C34.4426 37.1071 33.7386 35.5285 33.7386 33.5231C33.7386 31.7738 34.1866 30.3018 35.0826 29.1071C35.7226 28.1258 36.512 27.4858 37.4506 27.1871C37.792 27.0591 38.112 26.9951 38.4106 26.9951C38.88 26.9951 39.328 27.1231 39.7546 27.3791L40.6506 27.8271C41.2053 28.1258 41.4826 28.5738 41.4826 29.1711L41.3546 29.8111C41.312 30.0244 41.2266 30.1738 41.0986 30.2591C40.6293 31.0271 39.9253 31.7738 38.9866 32.4991C38.3466 32.8831 37.6853 33.0965 37.0026 33.1391C36.6613 33.1818 36.4906 33.3951 36.4906 33.7791C36.4053 35.4858 36.7466 36.8938 37.5146 38.0031L37.7706 38.4511C38.1973 39.0058 38.6453 39.2831 39.1146 39.2831C39.3706 39.2831 39.648 39.2191 39.9466 39.0911C40.6293 38.9204 41.2906 38.6004 41.9306 38.1311C43.0826 37.2351 44.1066 36.2324 45.0026 35.1231L46.3466 33.3311L47.6266 31.8591C47.8826 31.6031 48.0533 31.4751 48.1386 31.4751C48.224 31.4751 48.3093 31.5178 48.3946 31.6031C48.5226 31.6884 48.6293 31.7311 48.7146 31.7311C49.056 31.7738 49.248 31.9018 49.2906 32.1151ZM36.8746 32.4351L37.1946 32.3711C38.304 31.8164 39.2 30.9631 39.8826 29.8111C40.0533 29.3418 40.1173 28.9578 40.0746 28.6591V28.4671C39.9893 28.1258 39.7973 28.0191 39.4986 28.1471C39.072 28.2751 38.7093 28.4885 38.4106 28.7871C37.4293 29.5978 36.8533 30.7498 36.6826 32.2431C36.5973 32.3711 36.6613 32.4351 36.8746 32.4351ZM50.3226 41.5231L49.1066 41.0751C48.04 40.6911 47.2933 39.9871 46.8666 38.9631C46.2693 37.6831 46.0133 36.3391 46.0986 34.9311C46.0986 33.0111 46.3333 31.2191 46.8026 29.5551C47.3573 27.4645 48.2533 25.7365 49.4906 24.3711C50.1733 23.5604 50.8133 22.9418 51.4106 22.5151L52.1146 22.0671C52.4133 21.8964 52.776 21.8751 53.2026 22.0031L54.4186 22.5151C54.76 22.7711 54.7813 22.9418 54.4826 23.0271C53.8853 23.6245 53.4373 24.1151 53.1386 24.4991C51.7306 26.4618 50.7493 28.4671 50.1946 30.5151C49.9386 31.6671 49.704 32.8831 49.4906 34.1631C49.448 34.3764 49.4266 34.9098 49.4266 35.7631C49.3413 37.1284 49.4053 38.2164 49.6186 39.0271C49.6613 39.4964 49.7893 39.9444 50.0026 40.3711C50.0453 40.6698 50.216 40.8191 50.5146 40.8191C50.984 40.8191 51.5813 40.6271 52.3066 40.2431C52.9893 39.8591 53.5866 39.4111 54.0986 38.8991C54.6106 38.4298 55.6346 37.2565 57.1706 35.3791L59.6666 32.1151C60.008 31.7311 60.2213 31.5391 60.3066 31.5391C60.4346 31.5391 60.648 31.6031 60.9466 31.7311L61.2666 31.9231C61.352 31.9658 61.3733 32.0724 61.3306 32.2431L61.2026 32.4351L60.3066 33.5871C58.4293 36.0618 57.0213 37.7684 56.0826 38.7071C55.6133 39.2191 55.1226 39.7098 54.6106 40.1791C53.928 40.7338 53.1386 41.1818 52.2426 41.5231C51.6453 41.6084 51.3253 41.6511 51.2826 41.6511C51.24 41.6511 50.92 41.6084 50.3226 41.5231ZM60.2076 47.7311L58.8636 47.2831C58.5223 47.1551 58.3303 46.9631 58.2876 46.7071C58.2876 46.6645 58.2663 46.5791 58.2236 46.4511C58.181 46.3231 58.1596 46.2165 58.1596 46.1311L58.0956 44.5311C58.0956 44.1045 58.117 43.8271 58.1596 43.6991V43.5071C58.117 42.6111 58.245 41.0111 58.5436 38.7071C58.757 36.5738 58.9063 35.2511 58.9916 34.7391C59.0343 34.0564 59.205 32.3924 59.5036 29.7471L59.8876 26.3551C59.973 25.9284 60.0796 25.0964 60.2076 23.8591C60.293 23.3898 60.3996 23.1551 60.5276 23.1551C60.6556 23.1551 60.869 23.2404 61.1676 23.4111C61.381 23.4964 61.4876 23.6458 61.4876 23.8591C61.6583 24.2431 61.765 24.8404 61.8076 25.6511C61.8076 29.9178 61.7863 32.3284 61.7436 32.8831C61.7436 33.0964 61.8503 33.1604 62.0636 33.0751C63.4716 32.2644 64.4956 31.5391 65.1356 30.8991C66.373 29.7898 67.3756 28.7018 68.1436 27.6351L68.3356 27.4431C68.5063 27.2724 68.677 27.2511 68.8476 27.3791C69.061 27.5071 69.1676 27.6564 69.1676 27.8271L68.9756 28.4671L68.7836 29.0431C67.589 31.3898 65.9036 33.1178 63.7276 34.2271C63.6423 34.3124 63.3223 34.4618 62.7676 34.6751C62.4263 34.8884 62.2556 35.1871 62.2556 35.5711L62.4476 36.2111C63.0876 37.7898 64.0476 39.1978 65.3276 40.4351C65.541 40.6058 65.7543 40.6911 65.9676 40.6911H66.4796C67.1196 40.6911 67.6316 40.6058 68.0156 40.4351C69.0396 39.9658 69.9356 39.3258 70.7036 38.5151C71.4716 37.7044 72.4956 36.2964 73.7756 34.2911L75.5036 31.8591C75.6743 31.5604 75.9303 31.4964 76.2716 31.6671L76.5916 31.8591C76.677 31.9444 76.6983 32.0511 76.6556 32.1791L76.4636 32.6271L75.7596 33.7791L75.0556 34.8671C73.221 37.4698 72.197 38.9204 71.9836 39.2191C71.2156 40.1578 70.4476 40.8618 69.6796 41.3311C68.9116 41.6725 68.293 41.8431 67.8236 41.8431C67.2263 41.8431 66.6503 41.7151 66.0956 41.4591C64.2183 40.6058 62.853 39.4964 61.9996 38.1311C61.957 38.0031 61.893 37.9391 61.8076 37.9391C61.7223 37.8538 61.6583 37.8538 61.6156 37.9391L61.5516 38.1951C61.509 39.1765 61.4236 41.1391 61.2956 44.0831C61.253 45.2778 61.1463 46.2165 60.9756 46.8991L60.7836 47.4111C60.6556 47.6671 60.4636 47.7738 60.2076 47.7311ZM78.7216 42.9951L76.3536 41.8431C75.799 41.5445 75.3083 41.0111 74.8816 40.2431C74.3696 39.3044 74.1136 38.0244 74.1136 36.4031C74.1136 34.1845 74.6683 32.0725 75.7776 30.0671C76.119 29.5978 76.5456 29.1071 77.0576 28.5951L77.5696 28.2111C77.7403 28.0404 78.0176 27.9551 78.4016 27.9551C78.615 27.9551 78.8283 28.0191 79.0416 28.1471C79.1696 28.2324 79.3403 28.3818 79.5536 28.5951C79.0843 28.7658 78.7003 29.1498 78.4016 29.7471C77.5056 31.3258 76.9723 32.8831 76.8016 34.4191C76.6736 35.1871 76.6096 35.9764 76.6096 36.7871C76.6096 36.9151 76.6523 37.4911 76.7376 38.5151C76.9083 39.5391 77.207 40.4351 77.6336 41.2031C77.8896 41.6725 78.167 41.9071 78.4656 41.9071L78.9776 41.7791C79.7883 41.6085 80.535 41.0751 81.2176 40.1791C81.9856 39.1551 82.455 38.0031 82.6256 36.7231C82.839 35.7418 82.903 35.0378 82.8176 34.6111C82.8176 34.2698 82.6683 34.0778 82.3696 34.0351H82.2416C81.3883 33.9925 80.1936 33.5658 78.6576 32.7551L78.5296 32.6271C78.0176 32.3285 77.7616 32.0085 77.7616 31.6671C77.7616 31.3258 77.911 31.0058 78.2096 30.7071C78.679 30.1098 79.2336 29.8111 79.8736 29.8111C80.1296 29.8111 80.4283 29.8751 80.7696 30.0031C81.1536 30.1311 81.8576 30.4724 82.8816 31.0271C83.3936 31.3258 83.799 31.7098 84.0976 32.1791C84.2256 32.4351 84.439 32.5418 84.7376 32.4991L86.5296 32.1151C88.6203 31.6884 90.1563 31.4538 91.1376 31.4111C91.607 31.4111 91.991 31.4964 92.2896 31.6671L93.0576 32.1151C93.143 32.2004 93.1856 32.2644 93.1856 32.3071L92.9936 32.4991C90.6896 32.9258 89.3243 33.1604 88.8976 33.2031C87.959 33.3311 86.6576 33.5658 84.9936 33.9071C84.7376 34.0778 84.6096 34.2698 84.6096 34.4831C84.567 35.6778 84.3536 36.9365 83.9696 38.2591C83.3296 39.9231 82.775 41.0538 82.3056 41.6511C81.9216 42.1631 81.4736 42.5471 80.9616 42.8031C80.5776 43.0591 80.151 43.1871 79.6816 43.1871C79.383 43.1871 79.063 43.1231 78.7216 42.9951ZM81.6016 32.9471H82.0496C82.4763 32.9471 82.6043 32.7338 82.4336 32.3071L82.1776 31.8591C81.9216 31.4324 81.687 31.2191 81.4736 31.2191C81.3456 31.2191 81.1323 31.3044 80.8336 31.4751C80.407 31.7311 80.151 32.0298 80.0656 32.3711C80.0656 32.5844 80.151 32.7124 80.3216 32.7551C80.9616 32.8831 81.3883 32.9471 81.6016 32.9471ZM98.2296 41.7151C97.8883 39.8804 97.7176 38.5578 97.7176 37.7471V30.7071C97.7176 29.3844 97.6536 28.0404 97.5256 26.6751C97.5256 26.3764 97.4616 26.1204 97.3336 25.9071C97.1203 25.9924 96.971 26.1631 96.8856 26.4191C96.587 26.9311 96.0963 28.1044 95.4136 29.9391L94.1336 33.5871C93.9203 34.0991 93.707 34.7178 93.4936 35.4431C93.2803 36.1684 93.067 36.8511 92.8536 37.4911C92.683 38.1311 92.5763 38.5365 92.5336 38.7071L91.7656 41.3951L91.6376 41.7791C91.5096 42.0778 91.339 42.1844 91.1256 42.0991L90.9336 42.0351C90.2936 41.8645 89.9736 41.6725 89.9736 41.4591C89.9736 41.1178 89.995 40.8831 90.0376 40.7551C90.4643 37.3844 91.275 33.8218 92.4696 30.0671C92.8536 28.6164 93.323 27.3151 93.8776 26.1631C94.1336 25.5658 94.4536 24.9898 94.8376 24.4351C95.307 23.8804 95.6696 23.5604 95.9256 23.4751C96.395 23.2618 96.779 23.2404 97.0776 23.4111L98.7416 24.1151C99.1256 24.2858 99.3816 24.6058 99.5096 25.0751C99.6803 25.6298 99.7656 26.3338 99.7656 27.1871C99.8083 27.4431 99.8296 28.0191 99.8296 28.9151C99.8296 29.8111 99.8083 30.3871 99.7656 30.6431C99.6376 32.8191 99.5523 34.3124 99.5096 35.1231L99.3816 37.3631C99.2963 39.1978 99.403 40.7125 99.7016 41.9071C99.7443 42.4191 99.851 42.7818 100.022 42.9951C100.15 43.2085 100.278 43.2511 100.406 43.1231C100.918 42.9098 101.366 42.6325 101.75 42.2911C102.304 41.7365 102.838 41.1391 103.35 40.4991L105.334 37.4271L106.55 35.5071L107.702 33.5871L108.79 32.0511C109.003 31.7525 109.302 31.6671 109.686 31.7951C110.027 31.9231 110.091 32.0938 109.878 32.3071C108 35.0378 106.678 37.0644 105.91 38.3871L104.694 40.2431C104.096 41.2671 103.478 42.0351 102.838 42.5471C102.411 42.9738 101.984 43.3151 101.558 43.5711C101.259 43.7418 100.832 43.8058 100.278 43.7631C99.1683 43.5071 98.4856 42.8245 98.2296 41.7151ZM108.962 48.3071C108.749 47.8378 108.599 47.3471 108.514 46.8351C108.386 46.0671 108.322 45.2991 108.322 44.5311L108.194 42.9951C108.109 40.3498 108.066 38.8778 108.066 38.5791C108.066 37.5551 108.109 35.6351 108.194 32.8191L108.386 28.4031L108.514 26.0991C108.599 25.2884 108.962 24.8831 109.602 24.8831C110.541 24.8831 111.01 25.8644 111.01 27.8271L111.138 38.5791L111.074 41.0751C111.074 41.2458 111.117 41.3311 111.202 41.3311C111.287 41.3311 111.33 41.2671 111.33 41.1391C112.226 38.4084 113.314 36.2538 114.594 34.6751C115.917 33.0538 117.175 32.2431 118.37 32.2431C119.607 32.2431 120.461 33.1604 120.93 34.9951L121.89 34.2271L125.09 31.9231C125.517 31.6245 125.922 31.5604 126.306 31.7311L126.818 31.8591C126.989 31.8591 127.074 31.9231 127.074 32.0511L126.946 32.2431C126.861 32.2858 126.754 32.3498 126.626 32.4351C126.583 32.4778 126.541 32.5204 126.498 32.5631H126.434C124.002 34.3551 122.402 35.5925 121.634 36.2751C121.079 36.7871 120.738 37.1498 120.61 37.3631C120.482 37.5765 120.311 38.0458 120.098 38.7711C119.586 40.3924 118.903 41.7364 118.05 42.8031C117.666 43.3151 117.218 43.7631 116.706 44.1471C116.365 44.4031 116.002 44.5098 115.618 44.4671L114.466 44.2751C114.125 44.1471 113.954 43.9338 113.954 43.6351C113.954 43.3791 114.039 43.0591 114.21 42.6751C114.423 42.2058 114.743 41.5871 115.17 40.8191C115.981 39.7524 116.749 38.8351 117.474 38.0671L117.986 37.5551C118.242 37.2991 118.391 37.0431 118.434 36.7871C118.477 36.6591 118.498 36.3604 118.498 35.8911C118.498 34.7818 118.157 34.2271 117.474 34.2271C116.706 34.2271 115.874 34.9098 114.978 36.2751C114.082 37.6404 113.335 39.4324 112.738 41.6511L111.842 45.4271C111.757 45.8965 111.65 46.6431 111.522 47.6671C111.437 48.0938 111.394 48.3498 111.394 48.4351C111.351 48.6058 111.223 48.6911 111.01 48.6911H109.538C109.282 48.6911 109.09 48.5631 108.962 48.3071ZM125.833 47.7311L124.489 47.2831C124.147 47.1551 123.955 46.9631 123.913 46.7071C123.913 46.6645 123.891 46.5791 123.849 46.4511C123.806 46.3231 123.785 46.2165 123.785 46.1311L123.721 44.5311C123.721 44.1045 123.742 43.8271 123.785 43.6991V43.5071C123.742 42.6111 123.87 41.0111 124.169 38.7071C124.382 36.5738 124.531 35.2511 124.617 34.7391C124.659 34.0564 124.83 32.3924 125.129 29.7471L125.513 26.3551C125.598 25.9284 125.705 25.0964 125.833 23.8591C125.918 23.3898 126.025 23.1551 126.153 23.1551C126.281 23.1551 126.494 23.2404 126.793 23.4111C127.006 23.4964 127.113 23.6458 127.113 23.8591C127.283 24.2431 127.39 24.8404 127.433 25.6511C127.433 29.9178 127.411 32.3284 127.369 32.8831C127.369 33.0964 127.475 33.1604 127.689 33.0751C129.097 32.2644 130.121 31.5391 130.761 30.8991C131.998 29.7898 133.001 28.7018 133.769 27.6351L133.961 27.4431C134.131 27.2724 134.302 27.2511 134.473 27.3791C134.686 27.5071 134.793 27.6564 134.793 27.8271L134.601 28.4671L134.409 29.0431C133.214 31.3898 131.529 33.1178 129.353 34.2271C129.267 34.3124 128.947 34.4618 128.393 34.6751C128.051 34.8884 127.881 35.1871 127.881 35.5711L128.073 36.2111C128.713 37.7898 129.673 39.1978 130.953 40.4351C131.166 40.6058 131.379 40.6911 131.593 40.6911H132.105C132.745 40.6911 133.257 40.6058 133.641 40.4351C134.665 39.9658 135.561 39.3258 136.329 38.5151C137.097 37.7044 138.121 36.2964 139.401 34.2911L141.129 31.8591C141.299 31.5604 141.555 31.4964 141.897 31.6671L142.217 31.8591C142.302 31.9444 142.323 32.0511 142.281 32.1791L142.089 32.6271L141.385 33.7791L140.681 34.8671C138.846 37.4698 137.822 38.9204 137.609 39.2191C136.841 40.1578 136.073 40.8618 135.305 41.3311C134.537 41.6725 133.918 41.8431 133.449 41.8431C132.851 41.8431 132.275 41.7151 131.721 41.4591C129.843 40.6058 128.478 39.4964 127.625 38.1311C127.582 38.0031 127.518 37.9391 127.433 37.9391C127.347 37.8538 127.283 37.8538 127.241 37.9391L127.177 38.1951C127.134 39.1765 127.049 41.1391 126.921 44.0831C126.878 45.2778 126.771 46.2165 126.601 46.8991L126.409 47.4111C126.281 47.6671 126.089 47.7738 125.833 47.7311ZM144.347 42.9951L141.979 41.8431C141.424 41.5445 140.933 41.0111 140.507 40.2431C139.995 39.3044 139.739 38.0244 139.739 36.4031C139.739 34.1845 140.293 32.0725 141.403 30.0671C141.744 29.5978 142.171 29.1071 142.683 28.5951L143.195 28.2111C143.365 28.0404 143.643 27.9551 144.027 27.9551C144.24 27.9551 144.453 28.0191 144.667 28.1471C144.795 28.2324 144.965 28.3818 145.179 28.5951C144.709 28.7658 144.325 29.1498 144.027 29.7471C143.131 31.3258 142.597 32.8831 142.427 34.4191C142.299 35.1871 142.235 35.9764 142.235 36.7871C142.235 36.9151 142.277 37.4911 142.363 38.5151C142.533 39.5391 142.832 40.4351 143.259 41.2031C143.515 41.6725 143.792 41.9071 144.091 41.9071L144.603 41.7791C145.413 41.6085 146.16 41.0751 146.843 40.1791C147.611 39.1551 148.08 38.0031 148.251 36.7231C148.464 35.7418 148.528 35.0378 148.443 34.6111C148.443 34.2698 148.293 34.0778 147.995 34.0351H147.867C147.013 33.9925 145.819 33.5658 144.283 32.7551L144.155 32.6271C143.643 32.3285 143.387 32.0085 143.387 31.6671C143.387 31.3258 143.536 31.0058 143.835 30.7071C144.304 30.1098 144.859 29.8111 145.499 29.8111C145.755 29.8111 146.053 29.8751 146.395 30.0031C146.779 30.1311 147.483 30.4724 148.507 31.0271C149.019 31.3258 149.424 31.7098 149.723 32.1791C149.851 32.4351 150.064 32.5418 150.363 32.4991L152.155 32.1151C154.245 31.6884 155.781 31.4538 156.763 31.4111C157.232 31.4111 157.616 31.4964 157.915 31.6671L158.683 32.1151C158.768 32.2004 158.811 32.2644 158.811 32.3071L158.619 32.4991C156.315 32.9258 154.949 33.1604 154.523 33.2031C153.584 33.3311 152.283 33.5658 150.619 33.9071C150.363 34.0778 150.235 34.2698 150.235 34.4831C150.192 35.6778 149.979 36.9365 149.595 38.2591C148.955 39.9231 148.4 41.0538 147.931 41.6511C147.547 42.1631 147.099 42.5471 146.587 42.8031C146.203 43.0591 145.776 43.1871 145.307 43.1871C145.008 43.1871 144.688 43.1231 144.347 42.9951ZM147.227 32.9471H147.675C148.101 32.9471 148.229 32.7338 148.059 32.3071L147.803 31.8591C147.547 31.4324 147.312 31.2191 147.099 31.2191C146.971 31.2191 146.757 31.3044 146.459 31.4751C146.032 31.7311 145.776 32.0298 145.691 32.3711C145.691 32.5844 145.776 32.7124 145.947 32.7551C146.587 32.8831 147.013 32.9471 147.227 32.9471ZM179.202 45.1071L177.922 44.7231C177.41 44.6378 177.133 44.3605 177.09 43.8911C177.09 43.8058 177.026 43.5711 176.898 43.1871C176.813 42.8031 176.749 42.4618 176.706 42.1631C176.493 40.0298 176.386 38.8351 176.386 38.5791C176.343 37.6831 176.237 34.8884 176.066 30.1951C176.066 29.8964 176.109 28.6804 176.194 26.5471L176.386 24.9471C176.471 24.0084 176.514 23.4964 176.514 23.4111L176.706 22.5791C176.791 22.4084 176.877 22.3658 176.962 22.4511C177.559 22.6218 177.879 22.9631 177.922 23.4751L177.986 24.6271C177.986 27.0591 178.007 28.6378 178.05 29.3631C178.093 31.0698 178.221 32.7551 178.434 34.4191L178.818 38.8991C178.818 39.2831 178.903 39.6245 179.074 39.9231C179.245 39.8804 179.33 39.7098 179.33 39.4111C179.543 38.3444 179.991 36.9151 180.674 35.1231C180.973 34.3978 181.207 33.9071 181.378 33.6511L181.762 33.0111C182.231 32.3711 182.765 32.0511 183.362 32.0511C183.661 32.0511 183.981 32.0938 184.322 32.1791C185.645 32.6058 186.775 33.4164 187.714 34.6111C188.354 35.4644 188.93 36.1471 189.442 36.6591L190.146 37.4271C190.359 37.6404 190.658 37.7044 191.042 37.6191C191.81 37.4058 192.45 37.1071 192.962 36.7231C193.73 36.2111 194.37 35.6564 194.882 35.0591C195.778 34.0351 196.418 33.2031 196.802 32.5631C196.973 32.2644 197.229 31.9871 197.57 31.7311C197.741 31.5604 197.954 31.4964 198.21 31.5391L199.17 31.9231C199.341 31.9658 199.362 32.0938 199.234 32.3071C199.106 32.6058 198.935 32.8618 198.722 33.0751L196.29 35.8911C195.607 36.7444 194.903 37.4271 194.178 37.9391C193.965 38.1524 193.709 38.3231 193.41 38.4511C192.983 38.6644 192.535 38.7711 192.066 38.7711C191.725 38.7711 191.426 38.7284 191.17 38.6431L189.186 37.9391C188.631 37.6831 187.949 37.1498 187.138 36.3391L185.73 34.4191C185.133 33.6511 184.77 33.2031 184.642 33.0751C184.514 32.9471 184.301 32.9258 184.002 33.0111C183.746 33.0964 183.383 33.4164 182.914 33.9711C182.487 34.4831 182.082 35.3791 181.698 36.6591C181.271 37.9391 180.823 39.9871 180.354 42.8031L180.034 44.5311C179.991 45.0858 179.714 45.2778 179.202 45.1071ZM216.515 31.9231C216.515 32.0511 216.429 32.1364 216.259 32.1791L215.491 32.5631C215.107 32.6911 214.083 33.1178 212.419 33.8431C211.779 34.0991 210.712 34.6964 209.219 35.6351C208.835 35.8484 208.579 36.1898 208.451 36.6591C208.024 38.1524 207.235 39.7524 206.083 41.4591C205.443 42.1845 205.037 42.6111 204.867 42.7391C204.525 43.0805 204.141 43.1871 203.715 43.0591L202.755 42.8671C202.456 42.7818 202.285 42.6111 202.243 42.3551C202.2 42.2698 202.179 42.0564 202.179 41.7151C202.179 41.3311 202.243 40.9258 202.371 40.4991C202.456 40.2858 202.755 39.7738 203.267 38.9631C204.291 37.6404 205.251 36.6591 206.147 36.0191C206.403 35.8058 206.595 35.5285 206.723 35.1871C207.107 33.6511 207.299 32.1151 207.299 30.5791C207.299 29.7258 207.235 28.8511 207.107 27.9551C207.021 27.3578 206.893 26.9738 206.723 26.8031C206.552 26.8884 206.317 27.0804 206.019 27.3791C205.635 27.8484 205.251 28.4458 204.867 29.1711C204.653 29.6404 204.419 30.1951 204.163 30.8351C203.907 31.4751 203.757 31.8164 203.715 31.8591C203.032 33.7791 202.307 36.4885 201.539 39.9871C201.24 41.6938 200.984 43.4218 200.771 45.1711C200.771 45.2138 200.728 45.4271 200.643 45.8111C200.6 46.1951 200.557 46.5365 200.515 46.8351C200.387 47.9871 200.173 50.6538 199.875 54.8351C199.789 57.1391 199.747 58.4191 199.747 58.6751L199.683 60.5951V61.3631C199.683 61.6191 199.555 61.7898 199.299 61.8751L198.211 62.0671C197.997 62.0671 197.869 61.9818 197.827 61.8111C197.699 61.5978 197.592 61.2565 197.507 60.7871C197.507 60.6591 197.464 59.9551 197.379 58.6751C197.379 56.4565 197.443 54.2165 197.571 51.9551C197.741 48.5418 197.827 45.6618 197.827 43.3151C197.827 41.8218 197.805 40.8618 197.763 40.4351L197.699 37.5551C197.699 32.1364 197.72 28.6378 197.763 27.0591C197.933 23.1764 198.04 20.6804 198.083 19.5711C198.083 19.4431 198.125 18.9951 198.211 18.2271C198.296 18.0138 198.445 17.9284 198.659 17.9711L198.979 18.0991C199.448 18.2271 199.704 18.5044 199.747 18.9311C199.917 20.2538 200.024 21.9178 200.067 23.9231L200.259 37.2991C200.259 37.8111 200.323 38.2165 200.451 38.5151L200.899 36.4031C201.539 33.7151 202.285 31.3044 203.139 29.1711C203.352 28.6164 203.672 27.9551 204.099 27.1871C204.355 26.8031 204.653 26.4404 204.995 26.0991C205.421 25.6724 205.869 25.5231 206.339 25.6511L207.683 25.9071C208.152 26.0351 208.515 26.3338 208.771 26.8031C209.197 27.5711 209.432 28.3818 209.475 29.2351C209.56 30.8564 209.496 32.1791 209.283 33.2031L209.219 33.8431L209.283 33.9711C209.368 34.0138 209.453 33.9924 209.539 33.9071C209.667 33.8218 209.752 33.7791 209.795 33.7791C211.032 33.1391 212.632 32.4778 214.595 31.7951C214.936 31.6671 215.235 31.6031 215.491 31.6031C215.576 31.6031 215.789 31.6458 216.131 31.7311C216.344 31.7311 216.472 31.7951 216.515 31.9231ZM205.379 38.9631L205.507 38.5151L204.803 39.3471C204.376 39.9444 204.056 40.4564 203.843 40.8831C203.757 41.0964 203.757 41.2458 203.843 41.3311C204.099 41.2031 204.376 40.8618 204.675 40.3071C205.016 39.7524 205.251 39.3045 205.379 38.9631ZM218.534 42.9951L216.166 41.8431C215.611 41.5445 215.121 41.0111 214.694 40.2431C214.182 39.3044 213.926 38.0244 213.926 36.4031C213.926 34.1845 214.481 32.0725 215.59 30.0671C215.931 29.5978 216.358 29.1071 216.87 28.5951L217.382 28.2111C217.553 28.0404 217.83 27.9551 218.214 27.9551C218.427 27.9551 218.641 28.0191 218.854 28.1471C218.982 28.2324 219.153 28.3818 219.366 28.5951C218.897 28.7658 218.513 29.1498 218.214 29.7471C217.318 31.3258 216.785 32.8831 216.614 34.4191C216.486 35.1871 216.422 35.9764 216.422 36.7871C216.422 36.9151 216.465 37.4911 216.55 38.5151C216.721 39.5391 217.019 40.4351 217.446 41.2031C217.702 41.6725 217.979 41.9071 218.278 41.9071L218.79 41.7791C219.601 41.6085 220.347 41.0751 221.03 40.1791C221.798 39.1551 222.267 38.0031 222.438 36.7231C222.651 35.7418 222.715 35.0378 222.63 34.6111C222.63 34.2698 222.481 34.0778 222.182 34.0351H222.054C221.201 33.9925 220.006 33.5658 218.47 32.7551L218.342 32.6271C217.83 32.3285 217.574 32.0085 217.574 31.6671C217.574 31.3258 217.723 31.0058 218.022 30.7071C218.491 30.1098 219.046 29.8111 219.686 29.8111C219.942 29.8111 220.241 29.8751 220.582 30.0031C220.966 30.1311 221.67 30.4724 222.694 31.0271C223.206 31.3258 223.611 31.7098 223.91 32.1791C224.038 32.4351 224.251 32.5418 224.55 32.4991L226.342 32.1151C228.433 31.6884 229.969 31.4538 230.95 31.4111C231.419 31.4111 231.803 31.4964 232.102 31.6671L232.87 32.1151C232.955 32.2004 232.998 32.2644 232.998 32.3071L232.806 32.4991C230.502 32.9258 229.137 33.1604 228.71 33.2031C227.771 33.3311 226.47 33.5658 224.806 33.9071C224.55 34.0778 224.422 34.2698 224.422 34.4831C224.379 35.6778 224.166 36.9365 223.782 38.2591C223.142 39.9231 222.587 41.0538 222.118 41.6511C221.734 42.1631 221.286 42.5471 220.774 42.8031C220.39 43.0591 219.963 43.1871 219.494 43.1871C219.195 43.1871 218.875 43.1231 218.534 42.9951ZM221.414 32.9471H221.862C222.289 32.9471 222.417 32.7338 222.246 32.3071L221.99 31.8591C221.734 31.4324 221.499 31.2191 221.286 31.2191C221.158 31.2191 220.945 31.3044 220.646 31.4751C220.219 31.7311 219.963 32.0298 219.878 32.3711C219.878 32.5844 219.963 32.7124 220.134 32.7551C220.774 32.8831 221.201 32.9471 221.414 32.9471ZM234.01 41.5231L232.794 41.0751C231.727 40.6911 230.981 39.9871 230.554 38.9631C229.957 37.6831 229.701 36.3391 229.786 34.9311C229.786 33.0111 230.021 31.2191 230.49 29.5551C231.045 27.4645 231.941 25.7365 233.178 24.3711C233.861 23.5604 234.501 22.9418 235.098 22.5151L235.802 22.0671C236.101 21.8964 236.463 21.8751 236.89 22.0031L238.106 22.5151C238.447 22.7711 238.469 22.9418 238.17 23.0271C237.573 23.6245 237.125 24.1151 236.826 24.4991C235.418 26.4618 234.437 28.4671 233.882 30.5151C233.626 31.6671 233.391 32.8831 233.178 34.1631C233.135 34.3764 233.114 34.9098 233.114 35.7631C233.029 37.1284 233.093 38.2164 233.306 39.0271C233.349 39.4964 233.477 39.9444 233.69 40.3711C233.733 40.6698 233.903 40.8191 234.202 40.8191C234.671 40.8191 235.269 40.6271 235.994 40.2431C236.677 39.8591 237.274 39.4111 237.786 38.8991C238.298 38.4298 239.322 37.2565 240.858 35.3791L243.354 32.1151C243.695 31.7311 243.909 31.5391 243.994 31.5391C244.122 31.5391 244.335 31.6031 244.634 31.7311L244.954 31.9231C245.039 31.9658 245.061 32.0724 245.018 32.2431L244.89 32.4351L243.994 33.5871C242.117 36.0618 240.709 37.7684 239.77 38.7071C239.301 39.2191 238.81 39.7098 238.298 40.1791C237.615 40.7338 236.826 41.1818 235.93 41.5231C235.333 41.6084 235.013 41.6511 234.97 41.6511C234.927 41.6511 234.607 41.6084 234.01 41.5231ZM244.087 48.3071C243.874 47.8378 243.724 47.3471 243.639 46.8351C243.511 46.0671 243.447 45.2991 243.447 44.5311L243.319 42.9951C243.234 40.3498 243.191 38.8778 243.191 38.5791C243.191 37.5551 243.234 35.6351 243.319 32.8191L243.511 28.4031L243.639 26.0991C243.724 25.2884 244.087 24.8831 244.727 24.8831C245.666 24.8831 246.135 25.8644 246.135 27.8271L246.263 38.5791L246.199 41.0751C246.199 41.2458 246.242 41.3311 246.327 41.3311C246.412 41.3311 246.455 41.2671 246.455 41.1391C247.351 38.4084 248.439 36.2538 249.719 34.6751C251.042 33.0538 252.3 32.2431 253.495 32.2431C254.732 32.2431 255.586 33.1604 256.055 34.9951L257.015 34.2271L260.215 31.9231C260.642 31.6245 261.047 31.5604 261.431 31.7311L261.943 31.8591C262.114 31.8591 262.199 31.9231 262.199 32.0511L262.071 32.2431C261.986 32.2858 261.879 32.3498 261.751 32.4351C261.708 32.4778 261.666 32.5204 261.623 32.5631H261.559C259.127 34.3551 257.527 35.5925 256.759 36.2751C256.204 36.7871 255.863 37.1498 255.735 37.3631C255.607 37.5765 255.436 38.0458 255.223 38.7711C254.711 40.3924 254.028 41.7364 253.175 42.8031C252.791 43.3151 252.343 43.7631 251.831 44.1471C251.49 44.4031 251.127 44.5098 250.743 44.4671L249.591 44.2751C249.25 44.1471 249.079 43.9338 249.079 43.6351C249.079 43.3791 249.164 43.0591 249.335 42.6751C249.548 42.2058 249.868 41.5871 250.295 40.8191C251.106 39.7524 251.874 38.8351 252.599 38.0671L253.111 37.5551C253.367 37.2991 253.516 37.0431 253.559 36.7871C253.602 36.6591 253.623 36.3604 253.623 35.8911C253.623 34.7818 253.282 34.2271 252.599 34.2271C251.831 34.2271 250.999 34.9098 250.103 36.2751C249.207 37.6404 248.46 39.4324 247.863 41.6511L246.967 45.4271C246.882 45.8965 246.775 46.6431 246.647 47.6671C246.562 48.0938 246.519 48.3498 246.519 48.4351C246.476 48.6058 246.348 48.6911 246.135 48.6911H244.663C244.407 48.6911 244.215 48.5631 244.087 48.3071ZM264.094 41.7151L261.982 40.5631C260.915 39.9658 260.232 39.0698 259.934 37.8751C259.678 36.9791 259.55 36.0831 259.55 35.1871C259.55 34.3338 259.699 33.3311 259.998 32.1791C260.296 30.8564 260.872 29.6831 261.726 28.6591C262.067 28.1898 262.451 27.8271 262.878 27.5711C263.176 27.4004 263.475 27.3151 263.774 27.3151C263.816 27.3151 264.008 27.3578 264.35 27.4431C265.16 27.7844 265.843 28.1684 266.398 28.5951L266.718 28.8511C266.803 29.0644 266.803 29.2351 266.718 29.3631L266.59 29.5551C266.547 29.5551 266.462 29.6618 266.334 29.8751C266.206 30.0458 266.099 30.1098 266.014 30.0671C265.843 30.0244 265.758 29.7684 265.758 29.2991L265.63 28.9151C265.544 28.7871 265.438 28.7231 265.31 28.7231C264.84 28.7231 264.435 28.9791 264.094 29.4911C263.539 30.0458 263.134 30.7498 262.878 31.6031C262.28 33.1818 262.046 34.8458 262.174 36.5951C262.216 37.6618 262.494 38.6431 263.006 39.5391C263.219 39.8805 263.39 40.0511 263.518 40.0511C263.646 40.0511 263.838 40.0085 264.094 39.9231C264.648 39.7098 265.075 39.3685 265.374 38.8991C266.184 38.0031 266.739 36.9365 267.038 35.6991C267.336 34.8031 267.486 33.7578 267.486 32.5631C267.486 32.4351 267.443 31.8591 267.358 30.8351C266.888 27.8058 265.992 25.1818 264.67 22.9631C263.859 21.5551 262.835 20.1258 261.598 18.6751C260.915 17.9071 260.318 17.3311 259.806 16.9471L258.078 15.5391L257.95 15.4111C257.48 15.0698 257.246 14.6644 257.246 14.1951C257.246 13.6831 257.48 13.2564 257.95 12.9151C258.462 12.4884 259.187 12.0831 260.126 11.6991C262.003 11.0164 264.094 10.4831 266.398 10.0991C268.531 9.75778 270.963 9.45912 273.694 9.20311C275.4 9.11778 276.488 9.07512 276.958 9.07512C277.086 9.07512 278.216 9.11778 280.35 9.20311C280.648 9.20311 280.926 9.33111 281.182 9.58712L281.95 10.5471C282.12 10.7178 282.12 10.8031 281.95 10.8031C281.907 10.8031 281.864 10.8031 281.822 10.8031C281.096 10.7604 280.136 10.8031 278.942 10.9311L277.534 10.9951C274.632 11.0378 272.456 11.1658 271.006 11.3791C267.848 11.7205 265.288 12.1471 263.326 12.6591C261.96 13.0004 261.064 13.2991 260.638 13.5551C260.126 13.8111 259.763 14.0458 259.55 14.2591C259.208 14.6004 259.038 14.8778 259.038 15.0911C259.038 15.3471 259.187 15.6031 259.486 15.8591C260.083 16.4564 260.488 16.8191 260.702 16.9471C262.323 18.1418 263.923 19.8271 265.502 22.0031C266.568 23.4538 267.294 24.6484 267.678 25.5871C268.744 28.1471 269.342 30.5578 269.47 32.8191C269.47 34.1418 269.235 35.5498 268.766 37.0431C268.51 37.8111 268.126 38.7071 267.614 39.7311C267.144 40.4564 266.675 41.0325 266.206 41.4591C265.736 41.8005 265.331 41.9711 264.99 41.9711C264.776 41.9711 264.478 41.8858 264.094 41.7151Z" fill="black"></path></svg> 