<?xml version="1.0" encoding="UTF-8"?> <svg xmlns="http://www.w3.org/2000/svg" width="430" height="181" viewBox="0 0 430 181" fill="none"><path d="M118.952 21.245C134.832 21.245 145.969 31.5922 145.969 46.3945C145.969 60.4063 134.329 71.5439 118.952 71.5439H98.9038V71.2565C99.2631 69.3883 99.2631 68.526 99.2631 63.9991V28.7899C99.2631 24.263 99.2631 23.4007 98.9038 21.5325V21.245H118.952ZM105.371 69.3883H118.305C132.173 69.3883 139.718 57.4602 139.718 45.5322C139.718 33.1012 131.167 23.4007 118.305 23.4007H105.371V69.3883ZM166.827 21.245C168.552 21.245 170.635 20.8858 172.36 19.7361L188.024 63.9991C190.18 70.035 190.683 70.8254 190.899 71.2565V71.5439H183.785V71.2565C183.785 70.8254 184 70.035 181.917 63.9991L179.905 58.3225H154.827L152.671 63.9273C150.372 69.9631 150.731 70.8254 150.731 71.2565V71.5439H147.067V71.2565C147.282 70.8254 147.785 69.9631 150.156 63.9991L166.827 21.245ZM155.689 56.1668H179.186L168.049 24.3348L155.689 56.1668ZM198.056 20.8858H199.421L232.906 61.053V28.7899C232.906 24.263 232.906 23.4007 232.403 21.5325V21.245H235.421V21.5325C235.062 23.4007 235.062 24.263 235.062 28.7899V65.0769C235.062 68.8853 235.062 69.7476 235.421 71.9032H234.056L200.571 31.7359V63.9991C200.571 68.526 200.571 69.3883 201.074 71.2565V71.5439H198.056V71.2565C198.415 69.3883 198.415 68.526 198.415 63.9991V27.712C198.415 23.9037 198.415 23.0414 198.056 20.8858ZM290.891 27.7839V34.8976H289.597C287.585 26.2749 280.041 21.6762 272.208 21.6762C261.861 21.6762 250.867 29.5084 250.867 46.1071C250.867 63.2087 261.286 70.538 271.418 70.538C279.609 70.538 287.514 65.7236 289.597 57.3165H290.891V64.4302C286.076 69.2446 278.963 72.6936 270.843 72.6936C256.041 72.6936 244.4 60.9093 244.4 46.1071C244.4 31.3048 256.041 19.5205 270.843 19.5205C278.963 19.5205 286.076 22.9696 290.891 27.7839ZM301.278 21.245H329.877V23.76H329.661C328.224 23.4726 326.859 23.4007 323.051 23.4007H307.745V36.5503H324.272V38.7059H307.745V69.3883H324.991C329.518 69.3883 330.38 69.3883 332.248 68.8853H332.535V71.5439H301.278V71.2565C301.638 69.3883 301.638 68.526 301.638 63.9991V28.7899C301.638 24.263 301.638 23.4007 301.278 21.5325V21.245Z" fill="#BC9D89" fill-opacity="0.08"></path><path d="M172.965 141.059V144.809H172.665C172.645 144.549 172.575 144.259 172.455 143.939C172.335 143.619 172.165 143.319 171.945 143.039C171.745 142.779 171.505 142.559 171.225 142.379C170.945 142.199 170.635 142.109 170.295 142.109H156.465C156.125 142.109 155.815 142.199 155.535 142.379C155.255 142.579 155.005 142.809 154.785 143.069C154.585 143.349 154.415 143.649 154.275 143.969C154.155 144.289 154.085 144.569 154.065 144.809H153.765V141.059H155.085C155.725 141.059 156.175 140.689 156.435 139.949L163.335 121.859L170.295 139.859C170.435 140.159 170.625 140.439 170.865 140.699C171.105 140.939 171.385 141.059 171.705 141.059H172.965ZM157.095 141.059H168.645L162.855 126.149L157.095 141.059ZM187.343 141.809H187.493C187.653 141.809 187.793 141.759 187.913 141.659C188.033 141.539 188.133 141.399 188.213 141.239C188.313 141.059 188.383 140.879 188.423 140.699C188.463 140.499 188.483 140.319 188.483 140.159V126.419L178.523 139.889V140.159C178.523 140.319 178.543 140.499 178.583 140.699C178.643 140.879 178.713 141.049 178.793 141.209C178.873 141.369 178.973 141.509 179.093 141.629C179.213 141.749 179.353 141.809 179.513 141.809H179.663V142.109H175.403V141.809H175.553C175.713 141.809 175.853 141.759 175.973 141.659C176.093 141.539 176.193 141.399 176.273 141.239C176.373 141.059 176.443 140.879 176.483 140.699C176.523 140.499 176.543 140.319 176.543 140.159V124.169C176.543 124.029 176.523 123.869 176.483 123.689C176.443 123.509 176.373 123.339 176.273 123.179C176.193 123.019 176.093 122.889 175.973 122.789C175.853 122.669 175.713 122.609 175.553 122.609H175.403V122.309H179.663V122.609H179.423C179.283 122.629 179.153 122.699 179.033 122.819C178.933 122.939 178.843 123.079 178.763 123.239C178.683 123.379 178.623 123.539 178.583 123.719C178.543 123.879 178.523 124.029 178.523 124.169V138.029L188.483 124.559V124.169C188.483 124.029 188.463 123.869 188.423 123.689C188.383 123.509 188.313 123.339 188.213 123.179C188.133 123.019 188.033 122.889 187.913 122.789C187.793 122.669 187.653 122.609 187.493 122.609H187.343V122.309H191.603V122.609H191.453C191.293 122.609 191.153 122.669 191.033 122.789C190.913 122.889 190.813 123.019 190.733 123.179C190.653 123.339 190.583 123.509 190.523 123.689C190.483 123.869 190.463 124.029 190.463 124.169V140.159C190.463 140.319 190.483 140.489 190.523 140.669C190.583 140.849 190.653 141.029 190.733 141.209C190.813 141.369 190.913 141.509 191.033 141.629C191.153 141.749 191.293 141.809 191.453 141.809H191.603V142.109H187.343V141.809ZM212.896 141.059V144.809H212.596C212.576 144.549 212.506 144.259 212.386 143.939C212.266 143.619 212.096 143.319 211.876 143.039C211.676 142.779 211.436 142.559 211.156 142.379C210.876 142.199 210.566 142.109 210.226 142.109H196.396C196.056 142.109 195.746 142.199 195.466 142.379C195.186 142.579 194.936 142.809 194.716 143.069C194.516 143.349 194.346 143.649 194.206 143.969C194.086 144.289 194.016 144.569 193.996 144.809H193.696V141.059H195.016C195.656 141.059 196.106 140.689 196.366 139.949L203.266 121.859L210.226 139.859C210.366 140.159 210.556 140.439 210.796 140.699C211.036 140.939 211.316 141.059 211.636 141.059H212.896ZM197.026 141.059H208.576L202.786 126.149L197.026 141.059ZM224.245 141.809H224.395C224.555 141.809 224.695 141.759 224.815 141.659C224.935 141.539 225.035 141.399 225.115 141.239C225.195 141.059 225.255 140.879 225.295 140.699C225.335 140.499 225.355 140.319 225.355 140.159V131.729C224.495 131.729 223.785 131.979 223.225 132.479C222.665 132.959 222.205 133.559 221.845 134.279L219.445 139.109C219.265 139.489 219.065 139.859 218.845 140.219C218.645 140.579 218.405 140.899 218.125 141.179C217.845 141.459 217.515 141.689 217.135 141.869C216.755 142.029 216.285 142.109 215.725 142.109H214.345V141.809C214.725 141.809 215.075 141.699 215.395 141.479C215.715 141.239 215.995 140.959 216.235 140.639C216.495 140.299 216.715 139.959 216.895 139.619C217.095 139.279 217.255 138.989 217.375 138.749L219.745 133.949C220.205 132.989 220.795 132.249 221.515 131.729C222.255 131.209 223.225 130.949 224.425 130.949L217.675 123.839C217.335 123.479 216.995 123.189 216.655 122.969C216.335 122.749 215.995 122.629 215.635 122.609V122.309H218.905V122.609C218.685 122.669 218.575 122.779 218.575 122.939C218.575 122.999 218.615 123.089 218.695 123.209L225.355 130.349V124.169C225.355 124.029 225.335 123.869 225.295 123.689C225.255 123.509 225.195 123.339 225.115 123.179C225.035 123.019 224.935 122.889 224.815 122.789C224.695 122.669 224.555 122.609 224.395 122.609H224.245V122.309H228.475V122.609H228.235C227.955 122.649 227.735 122.849 227.575 123.209C227.415 123.569 227.335 123.889 227.335 124.169V130.349L234.025 123.209C234.105 123.129 234.145 123.039 234.145 122.939C234.145 122.719 234.025 122.609 233.785 122.609V122.309H237.055V122.609C236.715 122.649 236.365 122.789 236.005 123.029C235.645 123.249 235.325 123.519 235.045 123.839L228.295 130.949C229.555 130.949 230.535 131.209 231.235 131.729C231.935 132.249 232.525 132.989 233.005 133.949L235.345 138.749C235.465 138.989 235.615 139.279 235.795 139.619C235.975 139.959 236.195 140.299 236.455 140.639C236.715 140.959 237.005 141.239 237.325 141.479C237.645 141.699 237.995 141.809 238.375 141.809V142.109H236.965C236.425 142.109 235.965 142.029 235.585 141.869C235.205 141.689 234.875 141.469 234.595 141.209C234.315 140.929 234.075 140.609 233.875 140.249C233.675 139.889 233.475 139.509 233.275 139.109L230.875 134.279C230.515 133.579 230.055 132.979 229.495 132.479C228.955 131.979 228.235 131.729 227.335 131.729V140.159C227.335 140.319 227.355 140.489 227.395 140.669C227.435 140.849 227.495 141.029 227.575 141.209C227.655 141.369 227.745 141.509 227.845 141.629C227.965 141.749 228.105 141.809 228.265 141.809H228.475V142.109H224.245V141.809ZM240.267 141.809H240.417C240.577 141.809 240.717 141.759 240.837 141.659C240.957 141.539 241.057 141.399 241.137 141.239C241.237 141.079 241.307 140.909 241.347 140.729C241.407 140.549 241.437 140.379 241.437 140.219V124.169C241.437 124.029 241.407 123.869 241.347 123.689C241.307 123.509 241.237 123.339 241.137 123.179C241.057 123.019 240.957 122.889 240.837 122.789C240.717 122.669 240.577 122.609 240.417 122.609H240.267V122.309H251.817V125.099H251.517C251.477 124.639 251.297 124.239 250.977 123.899C250.657 123.539 250.157 123.359 249.477 123.359H243.447V130.949H248.427C248.887 130.949 249.267 130.809 249.567 130.529C249.887 130.249 250.047 129.919 250.047 129.539H250.347V133.289H250.047C250.047 132.929 249.897 132.619 249.597 132.359C249.297 132.099 248.907 131.969 248.427 131.969H243.447V141.059H250.017C250.397 141.059 250.727 140.969 251.007 140.789C251.287 140.609 251.517 140.399 251.697 140.159C251.897 139.899 252.037 139.629 252.117 139.349C252.217 139.049 252.267 138.799 252.267 138.599H252.567V142.109H240.267V141.809ZM266.257 118.379C266.257 118.719 266.177 119.069 266.017 119.429C265.857 119.789 265.627 120.129 265.327 120.449C265.047 120.769 264.697 121.029 264.277 121.229C263.877 121.429 263.427 121.529 262.927 121.529C262.447 121.529 261.997 121.439 261.577 121.259C261.177 121.059 260.827 120.809 260.527 120.509C260.227 120.209 259.987 119.869 259.807 119.489C259.627 119.109 259.537 118.739 259.537 118.379H259.717C259.737 118.499 259.797 118.669 259.897 118.889C260.017 119.109 260.197 119.329 260.437 119.549C260.677 119.769 260.997 119.959 261.397 120.119C261.797 120.279 262.297 120.359 262.897 120.359C263.517 120.359 264.017 120.279 264.397 120.119C264.797 119.959 265.117 119.769 265.357 119.549C265.597 119.329 265.767 119.109 265.867 118.889C265.967 118.669 266.037 118.499 266.077 118.379H266.257ZM266.767 141.809H266.917C267.077 141.809 267.217 141.759 267.337 141.659C267.457 141.539 267.557 141.399 267.637 141.239C267.737 141.059 267.807 140.879 267.847 140.699C267.887 140.499 267.907 140.319 267.907 140.159V126.419L257.947 139.889V140.159C257.947 140.319 257.967 140.499 258.007 140.699C258.067 140.879 258.137 141.049 258.217 141.209C258.297 141.369 258.397 141.509 258.517 141.629C258.637 141.749 258.777 141.809 258.937 141.809H259.087V142.109H254.827V141.809H254.977C255.137 141.809 255.277 141.759 255.397 141.659C255.517 141.539 255.617 141.399 255.697 141.239C255.797 141.059 255.867 140.879 255.907 140.699C255.947 140.499 255.967 140.319 255.967 140.159V124.169C255.967 124.029 255.947 123.869 255.907 123.689C255.867 123.509 255.797 123.339 255.697 123.179C255.617 123.019 255.517 122.889 255.397 122.789C255.277 122.669 255.137 122.609 254.977 122.609H254.827V122.309H259.087V122.609H258.847C258.707 122.629 258.577 122.699 258.457 122.819C258.357 122.939 258.267 123.079 258.187 123.239C258.107 123.379 258.047 123.539 258.007 123.719C257.967 123.879 257.947 124.029 257.947 124.169V138.029L267.907 124.559V124.169C267.907 124.029 267.887 123.869 267.847 123.689C267.807 123.509 267.737 123.339 267.637 123.179C267.557 123.019 267.457 122.889 267.337 122.789C267.217 122.669 267.077 122.609 266.917 122.609H266.767V122.309H271.027V122.609H270.877C270.717 122.609 270.577 122.669 270.457 122.789C270.337 122.889 270.237 123.019 270.157 123.179C270.077 123.339 270.007 123.509 269.947 123.689C269.907 123.869 269.887 124.029 269.887 124.169V140.159C269.887 140.319 269.907 140.489 269.947 140.669C270.007 140.849 270.077 141.029 270.157 141.209C270.237 141.369 270.337 141.509 270.457 141.629C270.577 141.749 270.717 141.809 270.877 141.809H271.027V142.109H266.767V141.809Z" fill="#FFFCF4"></path><path d="M147.046 166.485L147.346 164.925H147.986L147.126 169.365C147.033 169.791 146.986 170.118 146.986 170.345C146.986 170.625 147.066 170.871 147.226 171.085C147.386 171.298 147.62 171.405 147.926 171.405C148.62 171.405 149.22 170.985 149.726 170.145C150.246 169.305 150.506 168.318 150.506 167.185C150.506 165.598 149.96 164.318 148.866 163.345C147.773 162.358 146.42 161.865 144.806 161.865C143.046 161.865 141.566 162.465 140.366 163.665C139.18 164.865 138.586 166.338 138.586 168.085C138.586 169.365 138.92 170.545 139.586 171.625C140.266 172.705 141.186 173.471 142.346 173.925C143.16 174.245 144.086 174.405 145.126 174.405C146.58 174.405 147.813 174.151 148.826 173.645C149.213 173.458 149.46 173.338 149.566 173.285L149.806 173.865C149.033 174.265 148.24 174.558 147.426 174.745C146.64 174.918 145.866 175.005 145.106 175.005C143.013 175.005 141.286 174.358 139.926 173.065C138.58 171.771 137.906 170.125 137.906 168.125C137.906 166.191 138.573 164.565 139.906 163.245C141.24 161.925 142.873 161.265 144.806 161.265C146.553 161.265 148.04 161.818 149.266 162.925C150.493 164.018 151.106 165.438 151.106 167.185C151.106 168.531 150.773 169.665 150.106 170.585C149.453 171.505 148.72 171.965 147.906 171.965C147.48 171.965 147.126 171.831 146.846 171.565C146.58 171.285 146.46 170.931 146.486 170.505C146.22 170.985 145.86 171.358 145.406 171.625C144.953 171.878 144.473 172.005 143.966 172.005C143.126 172.005 142.453 171.698 141.946 171.085C141.44 170.458 141.186 169.691 141.186 168.785C141.186 167.651 141.513 166.685 142.166 165.885C142.833 165.071 143.673 164.665 144.686 164.665C144.833 164.665 144.98 164.678 145.126 164.705C145.273 164.731 145.486 164.791 145.766 164.885C146.06 164.978 146.32 165.165 146.546 165.445C146.773 165.711 146.94 166.058 147.046 166.485ZM144.066 171.365C144.786 171.365 145.4 171.025 145.906 170.345C146.426 169.651 146.686 168.745 146.686 167.625C146.686 167.425 146.666 167.231 146.626 167.045C146.6 166.845 146.526 166.598 146.406 166.305C146.3 165.998 146.1 165.758 145.806 165.585C145.526 165.398 145.173 165.305 144.746 165.305C143.88 165.305 143.186 165.651 142.666 166.345C142.146 167.025 141.886 167.831 141.886 168.765C141.886 169.578 142.1 170.218 142.526 170.685C142.966 171.138 143.48 171.365 144.066 171.365ZM154.455 174.745H153.575L155.095 160.945L160.875 173.285L166.655 160.945L168.175 174.745H167.295L166.115 164.025L160.875 175.225L155.635 164.025L154.455 174.745ZM180.324 174.745L178.544 170.365H172.864L171.084 174.745H170.124L175.744 161.005L181.284 174.745H180.324ZM173.184 169.565H178.224L175.724 163.245L173.184 169.565ZM184.243 174.745H183.363V161.265L194.563 172.985V161.405H195.443V175.085L184.243 163.365V174.745ZM199.047 161.405H199.927V174.745H199.047V161.405ZM208.919 161.405V162.205H204.399V167.045H208.799V167.845H204.399V174.745H203.519V161.405H208.919ZM218.044 161.405V162.205H212.524V167.045H217.924V167.845H212.524V173.945H218.044V174.745H211.644V161.405H218.044ZM227.642 163.125L227.002 163.665C226.442 162.571 225.568 162.025 224.382 162.025C223.622 162.025 223.015 162.265 222.562 162.745C222.122 163.225 221.902 163.811 221.902 164.505C221.902 164.851 221.948 165.151 222.042 165.405C222.148 165.658 222.328 165.891 222.582 166.105C222.848 166.318 223.082 166.485 223.282 166.605C223.482 166.711 223.802 166.871 224.242 167.085C225.682 167.778 226.568 168.245 226.902 168.485C227.848 169.138 228.322 169.998 228.322 171.065C228.322 172.171 227.915 173.098 227.102 173.845C226.288 174.591 225.308 174.965 224.162 174.965C222.895 174.965 221.862 174.498 221.062 173.565C220.675 173.111 220.388 172.625 220.202 172.105L220.962 171.745C221.122 172.225 221.362 172.651 221.682 173.025C222.282 173.785 223.115 174.165 224.182 174.165C225.088 174.165 225.848 173.871 226.462 173.285C227.088 172.698 227.402 171.965 227.402 171.085C227.402 170.218 226.968 169.518 226.102 168.985C225.848 168.838 225.022 168.418 223.622 167.725C222.995 167.418 222.522 167.151 222.202 166.925C221.882 166.698 221.615 166.411 221.402 166.065C221.122 165.598 220.982 165.091 220.982 164.545C220.982 163.678 221.275 162.911 221.862 162.245C222.448 161.565 223.295 161.225 224.402 161.225C225.082 161.225 225.708 161.391 226.282 161.725C226.855 162.045 227.308 162.511 227.642 163.125ZM237.475 162.205H234.015V174.745H233.135V162.205H229.675V161.405H237.475V162.205ZM240.835 163.225C242.168 161.891 243.808 161.225 245.755 161.225C247.701 161.225 249.341 161.891 250.675 163.225C252.008 164.558 252.675 166.185 252.675 168.105C252.675 170.025 252.008 171.651 250.675 172.985C249.341 174.305 247.701 174.965 245.755 174.965C243.808 174.965 242.168 174.305 240.835 172.985C239.501 171.651 238.835 170.025 238.835 168.105C238.835 166.185 239.501 164.558 240.835 163.225ZM241.475 172.425C242.621 173.585 244.048 174.165 245.755 174.165C247.461 174.165 248.888 173.585 250.035 172.425C251.181 171.251 251.755 169.811 251.755 168.105C251.755 166.385 251.181 164.945 250.035 163.785C248.888 162.611 247.461 162.025 245.755 162.025C244.048 162.025 242.621 162.611 241.475 163.785C240.328 164.945 239.755 166.385 239.755 168.105C239.755 169.811 240.328 171.251 241.475 172.425ZM262.151 174.745H261.151L256.831 168.445H256.431V174.745H255.551V161.405H257.471C258.684 161.405 259.624 161.631 260.291 162.085C261.211 162.725 261.671 163.678 261.671 164.945C261.671 165.678 261.491 166.338 261.131 166.925C260.771 167.498 260.204 167.918 259.431 168.185C258.924 168.358 258.377 168.445 257.791 168.445L262.151 174.745ZM256.431 162.205V167.645H257.711C258.657 167.645 259.397 167.405 259.931 166.925C260.477 166.445 260.751 165.778 260.751 164.925C260.751 163.805 260.357 163.031 259.571 162.605C259.104 162.338 258.424 162.205 257.531 162.205H256.431ZM264.906 161.405H265.786V174.745H264.906V161.405ZM272.239 174.745V169.045L267.859 161.405H268.859L272.699 168.145L276.619 161.405H277.619L273.119 169.045V174.745H272.239ZM287.18 174.745L285.4 170.365H279.72L277.94 174.745H276.98L282.6 161.005L288.14 174.745H287.18ZM280.04 169.565H285.08L282.58 163.245L280.04 169.565Z" fill="#B2907B"></path><path d="M219.267 29.2674C204.334 25.3416 190.259 31.0156 181.249 42.8534C167.976 58.898 170.816 80.8673 183.678 93.5871C192.397 102.21 205.503 106.036 217.43 103.448C224.985 101.808 231.845 97.5561 237.03 91.7813C251.374 77.1635 250.929 55.1077 239.207 41.5996C239.015 41.4 238.755 41.2823 238.481 41.271C238.206 41.2596 237.937 41.3554 237.731 41.5386C237.524 41.7217 237.395 41.9782 237.37 42.2548C237.345 42.5315 237.427 42.8072 237.598 43.0249C243.178 49.4597 245.764 57.6283 245.764 65.4885C245.764 66.199 245.734 66.8922 245.69 67.607C244.627 85.9719 228.933 100.911 210.703 100.911C192.541 100.911 176.744 86.0065 175.488 67.6877C174.065 46.7489 194.08 24.8949 218.73 31.3586C218.867 31.3996 219.012 31.4123 219.154 31.3959C219.297 31.3795 219.434 31.3342 219.559 31.2629C219.684 31.1915 219.794 31.0955 219.881 30.9806C219.969 30.8656 220.032 30.7341 220.068 30.5938C220.104 30.4535 220.112 30.3073 220.091 30.1639C220.07 30.0205 220.021 29.8828 219.946 29.7591C219.871 29.6353 219.773 29.528 219.656 29.4436C219.54 29.3591 219.407 29.2992 219.267 29.2674Z" fill="#FFFCF4"></path><path d="M210.699 53.0464C206.452 53.0464 202.339 55.482 199.963 59.4005C197.689 63.1519 197.435 67.572 199.281 71.2297C201.274 75.1785 205.97 77.9341 210.699 77.9341C217.062 77.9341 222.239 73.073 222.742 66.6295C222.772 66.2461 222.785 65.8657 222.784 65.4866C222.737 58.5113 217.429 53.0464 210.699 53.0464ZM220.644 65.501C220.647 65.8181 220.634 66.1352 220.61 66.458C220.189 71.8566 216.021 75.7723 210.699 75.7723C206.804 75.7723 202.803 73.4491 201.187 70.2468C199.682 67.2665 199.906 63.6347 201.786 60.529C203.776 57.2474 207.192 55.2096 210.699 55.2096C216.238 55.2096 220.605 59.732 220.644 65.501Z" fill="#FFFCF4"></path><path d="M212.369 60.4715C210.637 59.676 208.737 59.9628 207.288 61.2368C205.258 63.0281 205.068 66.0316 206.839 68.3792C207.287 68.9866 207.87 69.4799 208.541 69.8198C209.211 70.1598 209.951 70.3372 210.701 70.3378C211.235 70.3378 211.778 70.2484 212.313 70.0654C213.266 69.7511 214.095 69.1383 214.68 68.3158C215.265 67.4932 215.575 66.5038 215.566 65.4911C215.566 63.3683 214.282 61.3521 212.369 60.4715ZM211.63 68.0175C210.76 68.3144 209.426 68.2438 208.54 67.0706C207.655 65.8932 207.324 64.0744 208.694 62.8667C209.281 62.3508 209.868 62.1894 210.376 62.1894C210.828 62.1894 211.218 62.3162 211.483 62.4387C212.059 62.7105 212.547 63.1414 212.891 63.6815C213.235 64.2216 213.42 64.849 213.426 65.4911C213.426 66.6902 212.756 67.6341 211.63 68.0175ZM227.691 69.4068C227.929 69.4068 228.16 69.3268 228.347 69.1794C228.535 69.0319 228.669 68.8254 228.728 68.5925C230.046 63.3553 228.043 57.3485 223.855 53.9848C223.745 53.8964 223.619 53.8307 223.484 53.7916C223.349 53.7525 223.207 53.7406 223.068 53.7566C222.928 53.7727 222.793 53.8164 222.67 53.8852C222.547 53.954 222.439 54.0466 222.351 54.1577C222.264 54.2688 222.199 54.3962 222.16 54.5327C222.122 54.6691 222.11 54.812 222.126 54.953C222.142 55.0941 222.185 55.2306 222.253 55.3547C222.321 55.4789 222.413 55.5883 222.523 55.6767C226.072 58.5288 227.772 63.6205 226.652 68.0607C226.612 68.2203 226.609 68.3871 226.642 68.5482C226.676 68.7093 226.745 68.8605 226.846 68.9904C226.946 69.1202 227.074 69.2253 227.22 69.2974C227.367 69.3696 227.528 69.407 227.691 69.4068ZM237.154 73.4349C237.388 73.4348 237.616 73.3571 237.802 73.2137C237.989 73.0702 238.123 72.869 238.185 72.6408C241.215 61.476 236.274 49.5618 226.094 43.9758C225.845 43.8391 225.552 43.8083 225.279 43.8901C225.007 43.9718 224.778 44.1595 224.643 44.4117C224.508 44.664 224.477 44.9602 224.558 45.2352C224.639 45.5102 224.825 45.7415 225.075 45.8781C229.569 48.3462 233.106 52.2762 235.111 57.0304C237.117 61.7846 237.473 67.084 236.123 72.0686C236.079 72.229 236.073 72.3973 236.104 72.5605C236.136 72.7236 236.204 72.8773 236.304 73.0095C236.404 73.1416 236.532 73.2488 236.68 73.3226C236.827 73.3964 236.989 73.4348 237.154 73.4349ZM195.211 76.4123C195.322 76.3252 195.415 76.2169 195.485 76.0934C195.555 75.97 195.599 75.8339 195.617 75.693C195.634 75.5521 195.624 75.409 195.587 75.2721C195.55 75.1351 195.486 75.0069 195.4 74.8948C194.209 73.3317 193.372 71.5237 192.948 69.5984C192.524 67.6731 192.524 65.6773 192.946 63.7516C192.977 63.6132 192.981 63.4699 192.957 63.33C192.934 63.19 192.883 63.0562 192.808 62.9361C192.733 62.816 192.635 62.712 192.521 62.63C192.406 62.548 192.277 62.4896 192.139 62.4582C192.002 62.4267 191.861 62.4229 191.722 62.4469C191.584 62.4708 191.451 62.5221 191.332 62.5978C191.213 62.6734 191.11 62.772 191.029 62.8879C190.948 63.0038 190.89 63.1347 190.859 63.2731C190.368 65.5106 190.369 67.8295 190.861 70.0666C191.354 72.3037 192.326 74.4044 193.709 76.2207C193.795 76.3329 193.902 76.427 194.024 76.4974C194.146 76.5678 194.281 76.6132 194.42 76.631C194.56 76.6488 194.701 76.6386 194.837 76.6011C194.972 76.5636 195.1 76.4995 195.211 76.4123Z" fill="#FFFCF4"></path><path d="M188.635 50.7638C188.526 50.6743 188.401 50.6074 188.266 50.567C188.132 50.5266 187.99 50.5135 187.851 50.5284C187.711 50.5432 187.576 50.5858 187.452 50.6537C187.329 50.7215 187.22 50.8133 187.132 50.9238C177.637 62.7847 180.218 80.4506 192.715 89.0285C192.9 89.1553 193.109 89.2158 193.316 89.2158C194.368 89.2158 194.788 87.8366 193.918 87.2414C182.459 79.3726 180.081 63.1738 188.795 52.2842C188.884 52.1739 188.95 52.0471 188.989 51.9109C189.029 51.7748 189.042 51.6321 189.028 51.4909C189.013 51.3497 188.971 51.2128 188.904 51.0881C188.837 50.9633 188.745 50.8531 188.635 50.7638ZM248.163 20.6893C249.094 19.9827 249.848 19.0669 250.367 18.0145C250.436 17.8869 250.478 17.7467 250.492 17.6022C250.506 17.4577 250.49 17.3119 250.447 17.1735C250.404 17.0351 250.333 16.9069 250.24 16.7965C250.147 16.6862 250.032 16.596 249.904 16.5313C249.775 16.4666 249.635 16.4288 249.491 16.42C249.348 16.4113 249.204 16.4318 249.069 16.4804C248.934 16.529 248.809 16.6046 248.703 16.7028C248.598 16.8009 248.512 16.9196 248.453 17.0518C248.085 17.7983 247.54 18.4584 246.88 18.9599C246.767 19.0451 246.672 19.1518 246.601 19.2739C246.529 19.3961 246.482 19.5313 246.462 19.6718C246.442 19.8123 246.45 19.9554 246.485 20.0929C246.52 20.2304 246.581 20.3596 246.666 20.4732C246.75 20.5867 246.855 20.6824 246.976 20.7547C247.097 20.827 247.231 20.8746 247.37 20.8946C247.509 20.9147 247.651 20.9069 247.787 20.8717C247.923 20.8365 248.051 20.7745 248.163 20.6893ZM253.117 23.1365C253.093 22.8508 252.957 22.5868 252.74 22.4023C252.523 22.2177 252.242 22.1278 251.959 22.1521L249.691 22.3539C249.55 22.365 249.413 22.4043 249.287 22.4694C249.161 22.5345 249.049 22.6243 248.957 22.7334C248.866 22.8426 248.797 22.9689 248.754 23.1052C248.712 23.2415 248.696 23.385 248.709 23.5274C248.721 23.6697 248.761 23.8082 248.827 23.9347C248.893 24.0612 248.983 24.1733 249.092 24.2644C249.201 24.3555 249.327 24.4239 249.462 24.4655C249.598 24.5072 249.74 24.5213 249.881 24.507L252.145 24.3052C252.427 24.2803 252.688 24.1433 252.87 23.9241C253.053 23.705 253.142 23.4217 253.117 23.1365ZM251.878 27.8606C251.5 27.4642 251.039 27.1589 250.528 26.9676C250.017 26.7762 249.47 26.7036 248.928 26.7552C248.646 26.783 248.386 26.9227 248.206 27.1437C248.026 27.3647 247.939 27.649 247.966 27.9341C248.024 28.5293 248.543 28.9761 249.136 28.9055C249.568 28.8622 250.029 29.0337 250.332 29.3551C250.429 29.4577 250.545 29.54 250.673 29.5972C250.802 29.6544 250.941 29.6855 251.081 29.6886C251.222 29.6917 251.361 29.6669 251.492 29.6155C251.623 29.5641 251.743 29.4871 251.844 29.389C251.946 29.2909 252.027 29.1735 252.084 29.0436C252.141 28.9137 252.171 28.7737 252.174 28.6318C252.178 28.4899 252.153 28.3488 252.102 28.2164C252.051 28.0841 251.975 27.9632 251.878 27.8606ZM220.109 35.8044C220.073 35.5373 219.991 35.2787 219.866 35.0406C219.718 34.5781 219.462 34.1582 219.12 33.8157C218.779 33.4733 218.361 33.2183 217.902 33.0719C216.066 32.5142 214.245 33.8646 213.921 35.6848C213.658 37.1505 214.543 38.7372 215.981 39.38C218.163 40.3527 221.036 39.2603 222.336 36.1416C223.528 33.2766 223.363 27.9428 223.206 24.837C227.524 26.4272 232.015 27.4869 236.583 27.9932C236.76 28.0112 236.938 27.9835 237.102 27.9126C237.265 27.8418 237.407 27.7302 237.516 27.5882C237.443 28.7095 237.371 29.8322 237.278 30.9462C237.111 32.9869 237.288 35.9211 236.643 37.9863C236.094 36.8838 234.793 36.231 233.583 36.4529C232.325 36.6835 231.327 37.822 231.263 39.0989C231.187 40.6295 232.435 42.0432 234.044 42.2551C235.448 42.428 236.794 41.7593 237.656 40.6698C239.175 38.7458 239.259 35.5925 239.328 33.0604C239.401 30.3265 239.828 27.0247 240.004 20.1114C240.008 19.9693 239.984 19.8279 239.933 19.6952C239.883 19.5625 239.807 19.4411 239.71 19.3381C239.614 19.235 239.497 19.1522 239.369 19.0945C239.24 19.0368 239.102 19.0053 238.961 19.0017C238.727 18.9938 238.497 19.0645 238.307 19.2027C238.117 19.3409 237.978 19.5388 237.911 19.7655C236.782 20.1503 232.107 19.264 230.274 18.6486C227.424 17.6917 224.682 16.1842 222.337 14.8454C222.177 14.7535 221.995 14.7053 221.811 14.7056C221.626 14.7058 221.445 14.7545 221.284 14.8468C221.124 14.9384 220.99 15.0704 220.895 15.23C220.8 15.3897 220.747 15.5714 220.742 15.7576C220.678 18.1428 220.818 20.5467 220.953 22.8713C221.139 26.0347 221.627 33.0402 220.109 35.8044ZM229.598 20.7009C229.659 20.7196 234.852 22.2862 237.807 21.9446C237.755 23.4211 237.685 24.897 237.599 26.3719C237.518 26.2278 237.404 26.1049 237.267 26.0131C237.131 25.9213 236.974 25.863 236.811 25.843C232.111 25.3282 227.495 24.2049 223.077 22.5009C222.971 20.8751 222.902 19.2471 222.869 17.6182C224.923 18.7481 227.204 19.8952 229.598 20.6994V20.7009Z" fill="#FFFCF4"></path></svg> 