<?xml version="1.0" encoding="UTF-8"?> <svg xmlns="http://www.w3.org/2000/svg" width="284" height="66" viewBox="0 0 284 66" fill="none"><path d="M81.8479 23.2219V23.4019C82.2559 23.9539 82.4599 24.6979 82.4599 25.6339V37.6939H84.4759C86.7559 37.6939 88.4839 37.0819 89.6599 35.8579C90.8599 34.6099 91.4599 32.8099 91.4599 30.4579C91.4599 28.1059 90.8599 26.3179 89.6599 25.0939C88.4839 23.8459 86.7559 23.2219 84.4759 23.2219H81.8479ZM76.4839 48.4219V48.0979H77.7439C78.6079 48.0979 79.1359 48.0019 79.3279 47.8099C79.5439 47.5939 79.6519 47.0539 79.6519 46.1899V24.7699C79.6519 23.9059 79.5439 23.3779 79.3279 23.1859C79.1359 22.9699 78.6079 22.8619 77.7439 22.8619H76.4839V22.5379H85.5559C88.2679 22.5379 90.4519 23.2699 92.1079 24.7339C93.7639 26.1739 94.5919 28.0819 94.5919 30.4579C94.5919 32.8339 93.7639 34.7419 92.1079 36.1819C90.4519 37.6219 88.2679 38.3419 85.5559 38.3419H82.4599V46.1899C82.4599 47.0539 82.5679 47.5939 82.7839 47.8099C82.9999 48.0019 83.5399 48.0979 84.4039 48.0979H85.3039V48.4219H76.4839ZM107.799 41.0059H107.475V39.0259C107.475 37.4659 107.127 36.4339 106.431 35.9299C105.759 35.4259 104.811 35.1739 103.587 35.1739H102.147V45.8659C102.147 46.5859 101.883 47.2099 101.355 47.7379V47.7739H108.519C110.271 47.7739 111.567 47.3899 112.407 46.6219C113.271 45.8539 113.763 44.6179 113.883 42.9139L114.099 40.0339H114.675L114.063 49.7899L113.739 49.7539L113.847 48.0979H113.811C113.595 48.3139 113.151 48.4219 112.479 48.4219H96.1714V48.0979H97.4314C98.2954 48.0979 98.8234 48.0019 99.0154 47.8099C99.2314 47.5939 99.3394 47.0539 99.3394 46.1899V24.7699C99.3394 23.9059 99.2314 23.3779 99.0154 23.1859C98.8234 22.9699 98.2954 22.8619 97.4314 22.8619H96.1714V22.5379H110.535C111.207 22.5379 111.651 22.6459 111.867 22.8619H111.903L111.795 21.2059L112.119 21.1699L112.767 30.9259H112.119L111.975 28.4059C111.879 26.5099 111.375 25.1659 110.463 24.3739C109.575 23.5819 108.231 23.1859 106.431 23.1859H101.355V23.2219C101.883 23.7499 102.147 24.3739 102.147 25.0939V34.5259H103.587C104.835 34.5259 105.795 34.2859 106.467 33.8059C107.139 33.3019 107.475 32.2699 107.475 30.7099V29.4499H107.799V41.0059ZM116.647 35.3899C116.647 31.4539 117.799 28.2859 120.103 25.8859C122.407 23.4619 125.443 22.2499 129.211 22.2499C131.803 22.2499 133.999 23.0179 135.799 24.5539C135.967 24.7219 136.099 24.9619 136.195 25.2739L136.447 25.2019C136.399 24.9619 136.363 24.6139 136.339 24.1579L136.267 21.5299H136.591L136.915 31.9339L136.267 31.9699L136.159 28.6219C136.063 27.0379 135.283 25.6819 133.819 24.5539C132.379 23.4259 130.747 22.8619 128.923 22.8619C125.971 22.8619 123.715 23.8819 122.155 25.9219C120.619 27.9619 119.851 30.9259 119.851 34.8139C119.851 39.1099 120.655 42.3979 122.263 44.6779C123.895 46.9339 126.247 48.0619 129.319 48.0619C131.071 48.0619 132.691 47.6179 134.179 46.7299C135.667 45.8419 136.711 44.6419 137.311 43.1299L137.923 43.3819C137.251 45.1099 136.123 46.4299 134.539 47.3419C132.979 48.2539 131.215 48.7099 129.247 48.7099C125.479 48.7099 122.431 47.4859 120.103 45.0379C117.799 42.5899 116.647 39.3739 116.647 35.3899ZM140.131 35.3899C140.131 31.4539 141.283 28.2859 143.587 25.8859C145.891 23.4619 148.927 22.2499 152.695 22.2499C155.287 22.2499 157.483 23.0179 159.283 24.5539C159.451 24.7219 159.583 24.9619 159.679 25.2739L159.931 25.2019C159.883 24.9619 159.847 24.6139 159.823 24.1579L159.751 21.5299H160.075L160.399 31.9339L159.751 31.9699L159.643 28.6219C159.547 27.0379 158.767 25.6819 157.303 24.5539C155.863 23.4259 154.231 22.8619 152.407 22.8619C149.455 22.8619 147.199 23.8819 145.639 25.9219C144.103 27.9619 143.335 30.9259 143.335 34.8139C143.335 39.1099 144.139 42.3979 145.747 44.6779C147.379 46.9339 149.731 48.0619 152.803 48.0619C154.555 48.0619 156.175 47.6179 157.663 46.7299C159.151 45.8419 160.195 44.6419 160.795 43.1299L161.407 43.3819C160.735 45.1099 159.607 46.4299 158.023 47.3419C156.463 48.2539 154.699 48.7099 152.731 48.7099C148.963 48.7099 145.915 47.4859 143.587 45.0379C141.283 42.5899 140.131 39.3739 140.131 35.3899ZM181.35 38.5219H172.566L172.71 37.5499H181.53L181.35 38.5219ZM232.643 41.0419C230.675 43.0339 228.071 44.0299 224.831 44.0299C221.591 44.0299 218.975 43.0339 216.983 41.0419C214.991 39.0259 213.995 36.3859 213.995 33.1219C213.995 29.8579 214.991 27.2299 216.983 25.2379C218.975 23.2459 221.591 22.2499 224.831 22.2499C228.071 22.2499 230.675 23.2459 232.643 25.2379C234.611 27.2299 235.595 29.8579 235.595 33.1219C235.595 36.3859 234.611 39.0259 232.643 41.0419ZM224.939 43.3819C227.387 43.3819 229.247 42.5659 230.519 40.9339C231.815 39.3019 232.463 36.9259 232.463 33.8059C232.463 30.2539 231.791 27.5539 230.447 25.7059C229.127 23.8339 227.207 22.8979 224.687 22.8979C222.239 22.8979 220.367 23.7139 219.071 25.3459C217.775 26.9779 217.127 29.3539 217.127 32.4739C217.127 36.0259 217.787 38.7379 219.107 40.6099C220.451 42.4579 222.395 43.3819 224.939 43.3819ZM192.359 48.4219V48.0979H193.619C194.483 48.0979 195.011 47.9779 195.203 47.7379C195.419 47.4979 195.527 46.8739 195.527 45.8659V24.7699C195.527 23.9059 195.419 23.3779 195.203 23.1859C195.011 22.9699 194.483 22.8619 193.619 22.8619H192.359V22.5379H200.603V22.8619H200.279C199.415 22.8619 198.875 22.9579 198.659 23.1499C198.443 23.3419 198.335 23.8579 198.335 24.6979V32.8699C199.631 32.8699 200.411 32.7019 200.675 32.3659L206.363 25.2019C206.795 24.6739 207.011 24.2179 207.011 23.8339C207.011 23.1859 206.387 22.8619 205.139 22.8619H204.815V22.5379H212.951V22.8619H212.339C211.427 22.8619 210.491 23.0659 209.531 23.4739C208.571 23.8579 207.743 24.4819 207.047 25.3459L201.323 32.5819L201.359 32.7259C202.175 32.9179 202.943 33.2299 203.663 33.6619C204.383 34.0699 205.079 34.6459 205.751 35.3899C206.447 36.1099 207.011 36.7579 207.443 37.3339C207.899 37.9099 208.487 38.7139 209.207 39.7459C209.783 40.5619 210.239 41.2099 210.575 41.6899C210.935 42.1459 211.427 42.7459 212.051 43.4899C212.675 44.2339 213.227 44.8339 213.707 45.2899C214.211 45.7219 214.835 46.2139 215.579 46.7659C216.323 47.2939 217.055 47.7019 217.775 47.9899C218.519 48.2779 219.371 48.5179 220.331 48.7099C221.291 48.9259 222.287 49.0339 223.319 49.0339C224.615 49.0339 225.911 48.8779 227.207 48.5659C228.503 48.2539 229.643 47.8579 230.627 47.3779C231.611 46.8979 232.415 46.4659 233.039 46.0819C233.687 45.6739 234.203 45.3139 234.587 45.0019L235.379 44.3179L235.559 44.5699L234.767 45.2539C233.303 46.5259 231.419 47.6539 229.115 48.6379C226.811 49.6459 224.447 50.1499 222.023 50.1499C220.799 50.1499 219.623 50.0179 218.495 49.7539C217.391 49.4899 216.407 49.1779 215.543 48.8179C214.679 48.4819 213.803 47.9899 212.915 47.3419C212.027 46.6699 211.295 46.0699 210.719 45.5419C210.143 45.0139 209.483 44.3059 208.739 43.4179C208.019 42.5299 207.467 41.8339 207.083 41.3299C206.699 40.8019 206.183 40.0699 205.535 39.1339C204.959 38.2939 204.503 37.6579 204.167 37.2259C203.855 36.7939 203.435 36.2779 202.907 35.6779C202.403 35.0779 201.959 34.6339 201.575 34.3459C201.215 34.0339 200.783 33.7699 200.279 33.5539C199.775 33.3139 199.271 33.1939 198.767 33.1939H198.335V45.8659C198.335 45.8899 198.335 45.9259 198.335 45.9739C198.335 45.9979 198.335 46.0219 198.335 46.0459C198.335 46.9579 198.443 47.5339 198.659 47.7739C198.899 47.9899 199.439 48.0979 200.279 48.0979H201.539V48.4219H192.359ZM234.224 47.7739H236.708C237.428 47.1499 238.136 46.3699 238.832 45.4339C239.528 44.4979 240.2 43.4059 240.848 42.1579C241.496 40.9099 242.024 39.4699 242.432 37.8379C242.84 36.2059 243.044 34.5379 243.044 32.8339V25.5259C243.044 24.2779 242.888 23.5219 242.576 23.2579C242.288 22.9939 241.508 22.8619 240.236 22.8619H239.444V22.5379H256.976V22.8619H255.68C254.84 22.8619 254.312 23.0059 254.096 23.2939C253.88 23.5819 253.772 24.1819 253.772 25.0939V47.7739H256.976V54.4699H255.68V50.6539C255.68 49.7419 255.56 49.1419 255.32 48.8539C255.104 48.5659 254.576 48.4219 253.736 48.4219H237.464C236.624 48.4219 236.084 48.5659 235.844 48.8539C235.628 49.1419 235.52 49.7419 235.52 50.6539V54.4699H234.224V47.7739ZM240.704 47.7739H250.964V23.1859H243.98V31.9699C243.98 35.3299 243.668 38.3779 243.044 41.1139C242.444 43.8259 241.664 46.0459 240.704 47.7739Z" fill="black"></path><path d="M81.3126 3.61497C81.3126 4.21039 81.1141 4.50809 80.7171 4.50809C80.2954 4.50809 79.7372 4.06153 79.0425 3.16841C78.3479 2.25048 77.7897 1.79151 77.3679 1.79151C74.7382 1.79151 71.7115 3.47852 68.2879 6.85254C70.223 9.48229 71.5378 11.7399 72.2325 13.6254C73.3737 16.6769 73.9443 20.1129 73.9443 23.9335C73.9443 29.3915 72.4434 34.3905 69.4415 38.9305C66.514 43.3713 62.557 46.7949 57.5704 49.2014C54.7918 50.5411 52.2613 51.2109 49.9789 51.2109C47.3739 51.2109 44.4465 50.6527 41.1965 49.5363C37.7977 51.9428 34.8082 53.146 32.228 53.146C30.5907 53.146 29.0525 52.8111 27.6136 52.1413C25.7281 51.273 24.7854 49.9953 24.7854 48.3083C24.7854 46.0507 26.3855 44.9219 29.5859 44.9219C31.1985 44.9219 34.9322 46.0259 40.7871 48.2339C41.2833 47.7377 41.8167 47.1423 42.3873 46.4476C44.3224 44.1156 46.3816 40.8284 48.5647 36.5861C49.4579 34.8246 51.0828 31.6491 53.4397 27.0594C54.4072 25.1988 55.3996 23.3629 56.4168 21.5518C59.0465 16.9126 61.4158 13.2284 63.5245 10.4995C63.8967 10.0033 64.9138 8.78764 66.576 6.85254L64.5293 5.17793C61.3538 2.57299 57.1859 1.27052 52.0256 1.27052C45.6745 1.27052 39.8692 4.06153 34.6097 9.64354C29.3998 15.1263 26.7949 21.0557 26.7949 27.4316C26.7949 29.9125 27.4151 31.9468 28.6556 33.5346C30.0201 35.296 31.9055 36.1767 34.312 36.1767C38.8272 36.1767 43.0323 33.3609 46.9274 27.7293C50.3758 22.7427 52.1 18.3515 52.1 14.5557C52.1 12.9431 51.7155 11.6035 50.9464 10.5367C50.0781 9.32103 48.8749 8.71321 47.3367 8.71321C43.9379 8.71321 40.8119 10.5119 37.9589 14.1092C35.354 17.4087 34.0515 20.5719 34.0515 23.5986C34.0515 24.3428 34.188 25.2608 34.4609 26.3524V26.8734C34.3616 26.9726 34.25 27.0222 34.1259 27.0222C33.3569 27.0222 32.9723 26.1167 32.9723 24.3056C32.9723 20.6835 34.436 17.0242 37.3635 13.3277C40.4646 9.40786 43.7766 7.44795 47.2995 7.44795C51.2193 7.44795 53.1792 9.90404 53.1792 14.8162C53.1792 19.2322 51.2813 23.9955 47.4856 29.1062C43.3425 34.6882 38.9017 37.4792 34.1631 37.4792C31.1365 37.4792 28.8044 36.0651 27.167 33.2369C25.9018 31.0537 25.2691 28.5728 25.2691 25.7942C25.2691 22.9163 26.0878 19.7284 27.7252 16.2303C29.2634 12.8811 31.1241 10.1521 33.3072 8.04337C38.7652 2.73425 45.0791 0.0796952 52.2489 0.0796952C58.5255 0.0796952 63.6114 2.06441 67.5064 6.03384C71.451 2.28769 74.7878 0.414616 77.5168 0.414616C78.4595 0.414616 79.3278 0.724728 80.1217 1.34495C80.9156 1.94037 81.3126 2.69704 81.3126 3.61497ZM71.8603 20.1377C71.8603 16.2675 70.9796 12.9059 69.2182 10.0529C68.8709 9.5071 68.3127 8.75042 67.5436 7.78287C65.4348 9.64354 63.4129 12.5834 61.4778 16.6025C61.3538 16.8505 60.4358 18.8601 58.724 22.631C58.203 23.797 57.5332 25.2856 56.7145 27.0966C54.2088 32.7035 51.6038 37.3055 48.8997 40.9028C47.4607 42.7883 45.2776 45.356 42.3501 48.606C45.7489 49.4247 48.5523 49.834 50.7603 49.834C54.705 49.834 58.4015 48.0602 61.8499 44.5125C64.827 41.4362 67.2335 37.6653 69.0693 33.1996C70.93 28.734 71.8603 24.3801 71.8603 20.1377ZM39.9684 49.2386C34.7834 47.1547 31.1985 46.1127 29.2138 46.1127C27.1794 46.1127 26.1623 46.8942 26.1623 48.4571C26.1623 49.6232 26.9686 50.5039 28.5811 51.0993C29.7223 51.521 31.0372 51.7319 32.5258 51.7319C34.4857 51.7319 36.9666 50.9008 39.9684 49.2386Z" fill="black"></path></svg> 