<?xml version="1.0" encoding="UTF-8"?> <svg xmlns="http://www.w3.org/2000/svg" width="313" height="74" viewBox="0 0 313 74" fill="none"><path d="M69.4387 2.26185C79.8584 3.76263 85.9044 8.1149 87.5767 15.3187C89.0346 21.5791 87.1265 29.0186 81.8523 37.6374C76.8783 45.8274 70.3177 52.8168 62.1706 58.6055C53.509 64.7801 45.5334 67.7603 38.2439 67.5459C35.7997 67.503 33.0983 67.1171 30.1396 66.3881C28.9819 66.088 27.6955 65.7235 26.2805 65.2947L24.4152 64.7158L22.6143 64.1369C19.0982 66.6668 14.703 67.7817 9.42885 67.4815C6.25577 67.31 3.91884 66.7955 2.41806 65.9379C1.0888 65.1661 0.617121 64.2441 1.00304 63.1722C1.34607 62.1002 2.37518 61.1997 4.09036 60.4707C5.97706 59.6132 8.22823 59.1629 10.8439 59.12C13.7597 59.0772 17.5116 59.8061 22.0997 61.3069C23.3861 60.1492 24.8869 58.4125 26.6021 56.097C28.0171 54.2103 29.9467 51.4232 32.3908 47.7355L33.8058 45.613L35.2209 43.4905C36.2929 41.9039 37.2148 40.5747 37.9866 39.5027C42.1888 33.6282 45.5119 30.7553 47.9561 30.8839C48.2991 30.9268 48.5135 31.1197 48.5993 31.4628C48.6421 31.8058 48.5349 32.0417 48.2777 32.1703C47.3772 31.9559 44.9545 34.7002 41.0096 40.4032C40.4093 41.3036 39.5303 42.6114 38.3725 44.3266L36.9575 46.3848L35.5425 48.5074C33.227 51.852 31.276 54.5748 29.6894 56.6759C27.7598 59.12 26.1519 60.9639 24.8655 62.2074C31.1259 64.4371 35.6068 65.5305 38.3082 65.4876C45.4262 65.359 53.5518 61.6071 62.6852 54.2318C67.8736 50.0725 72.3974 45.3557 76.2565 40.0816C80.1586 34.6787 82.7742 29.5118 84.1035 24.5806C85.5185 19.2636 85.1969 14.8255 83.1387 11.2665C80.8232 7.36451 76.4924 4.85606 70.1462 3.74119C63.7143 2.62633 56.339 3.44104 48.0204 6.18532C40.6022 8.62945 33.6343 12.1241 27.1166 16.6694C21.5852 20.5714 17.4259 24.5806 14.6387 28.6971C11.7658 32.9421 10.8224 36.6941 11.8087 39.9529C12.409 41.7967 13.7597 42.9545 15.8608 43.4262C17.8332 43.8978 19.8057 43.6191 21.7781 42.59C22.2498 42.2898 22.5929 42.2898 22.8073 42.59C23.0645 42.933 22.9573 43.2761 22.4857 43.6191C19.9129 45.7202 17.19 46.1061 14.3171 44.7769C11.4013 43.4047 9.87909 40.9606 9.75045 37.4445C9.57893 32.6848 11.4228 27.9252 15.2819 23.1656C18.8409 18.7061 23.7506 14.6969 30.011 11.1379C36.1428 7.62179 42.639 5.07046 49.4997 3.48392C56.7035 1.81161 63.3498 1.40426 69.4387 2.26185ZM9.75045 65.7449C13.7382 65.7878 17.0828 64.9302 19.7843 63.1722C15.8393 61.9287 12.7735 61.3069 10.5866 61.3069C5.52682 61.3069 2.82541 62.0144 2.48238 63.4294C2.35374 64.0297 2.86829 64.5443 4.02604 64.9731C5.3553 65.4448 7.26344 65.702 9.75045 65.7449ZM111.807 44.0693C111.936 43.9407 112.129 43.9407 112.386 44.0693C112.601 44.198 112.644 44.3909 112.515 44.6482C111.615 46.149 109.964 47.4783 107.562 48.636C105.161 49.7938 102.717 50.4369 100.23 50.5656C97.4 53.0097 94.7629 53.8244 92.3187 53.0097C90.0461 52.2379 88.7598 50.6942 88.4596 48.3787C88.1594 46.0204 88.9956 43.6834 90.968 41.3679C91.3968 39.0096 92.4903 37.0586 94.2483 35.5149C96.1779 33.8855 98.3433 33.2852 100.745 33.714C104.261 34.3571 105.976 36.3725 105.89 39.76C105.847 42.8044 104.539 45.8274 101.967 48.829C103.81 48.4859 105.74 47.7784 107.755 46.7064C109.471 45.8488 110.821 44.9698 111.807 44.0693ZM93.991 39.8243C93.305 41.3679 93.0691 42.8687 93.2835 44.3266C93.4979 45.7845 94.1197 46.8994 95.1488 47.6712C96.0921 48.4431 97.2499 48.8933 98.622 49.0219C99.4796 48.0786 100.402 46.7922 101.388 45.1628C102.803 42.6329 103.532 40.3817 103.575 38.4093C103.575 36.2224 102.588 35.0647 100.616 34.936C99.2438 34.8503 97.936 35.3005 96.6925 36.2867C95.4918 37.2301 94.5914 38.4093 93.991 39.8243ZM92.8976 51.7877C94.0554 52.3451 95.4918 51.8734 97.207 50.3726C95.9206 50.1582 94.8058 49.708 93.8624 49.0219C92.4045 48.0357 91.4612 46.6636 91.0324 44.9055C90.3034 48.636 90.9252 50.9301 92.8976 51.7877ZM139.14 37.1872C135.796 40.0172 132.858 43.1046 130.328 46.4492C129.985 47.564 129.964 48.8075 130.264 50.1797C130.564 51.5518 131.014 52.1736 131.615 52.0449C133.845 51.8734 136.889 49.0005 140.748 43.4262C142.292 41.1535 143.471 38.9881 144.286 36.9299C145.186 34.7859 145.315 33.6711 144.672 33.5853C143.943 33.4567 142.099 34.6573 139.14 37.1872ZM147.244 14.2252C143.9 18.3417 140.319 24.0232 136.503 31.2698C139.59 29.5975 142.185 28.011 144.286 26.5102C147.973 23.8945 151.168 20.7858 153.869 17.1839C156.957 13.0675 157.621 10.3875 155.863 9.14401C154.019 7.77186 151.146 9.4656 147.244 14.2252ZM135.41 34.4858L135.538 34.6787C134.295 36.351 132.837 38.7523 131.165 41.8825L130.65 42.9116L130.071 43.9407C132.601 40.5532 135.174 37.6589 137.789 35.2576C140.405 32.8564 142.206 31.6986 143.192 31.7844C144.264 31.913 145.229 32.4276 146.087 33.328C146.987 34.2714 147.373 35.2791 147.244 36.351C146.858 38.2806 145.658 40.7676 143.642 43.8121C139.998 49.3435 136.675 52.731 133.673 53.9745C133.287 54.1031 132.708 54.0603 131.936 53.8459C131.079 53.6315 130.478 53.3313 130.135 52.9454C129.621 52.4308 129.256 51.7233 129.042 50.8229C128.87 50.1797 128.806 49.4293 128.849 48.5717C127.777 50.1154 126.898 51.659 126.212 53.2027C125.74 55.0894 125.655 56.5044 125.955 57.4477C125.655 57.705 125.247 57.7479 124.733 57.5764C124.261 57.4049 123.961 57.169 123.832 56.8689C122.632 54.2532 124.411 48.6789 129.171 40.1459C129.942 38.7737 131.057 36.5226 132.515 33.3924C136.975 24.3877 140.941 17.7628 144.414 13.5177C149.002 7.81474 152.883 5.94949 156.056 7.92194C159.186 9.80864 159.143 13.1318 155.927 17.8914C153.269 21.8792 149.538 25.5454 144.736 28.89C142.163 30.6909 139.054 32.5562 135.41 34.4858ZM164.892 40.2745C165.321 38.5165 164.978 37.1014 163.863 36.0294C162.963 35.129 161.312 35.6006 158.911 37.4445C158.01 38.0877 157.11 38.8595 156.209 39.76C155.438 40.5747 154.859 41.2393 154.473 41.7539C151.514 45.8703 150.828 48.8075 152.415 50.5656C153.701 51.8949 155.673 52.4094 158.332 52.1092C161.248 51.8091 163.949 50.8872 166.436 49.3435C167.894 48.4431 170.059 46.7279 172.932 44.198C173.19 44.0265 173.425 44.0265 173.64 44.198C173.811 44.3695 173.833 44.5625 173.704 44.7769C172.118 47.6069 169.609 49.8581 166.179 51.5304C162.791 53.2456 159.382 53.9316 155.952 53.5886C152.693 53.2884 150.506 51.5947 149.391 48.5074C148.405 45.8488 149.777 42.59 153.508 38.7309C155.094 37.1443 156.745 35.9008 158.461 35.0003C160.261 34.057 161.784 33.7354 163.027 34.0355C164.785 34.4643 165.922 35.3863 166.436 36.8013C166.908 38.0019 166.801 39.1811 166.114 40.3388C165.943 40.5961 165.686 40.7462 165.343 40.7891C165 40.7891 164.85 40.6175 164.892 40.2745ZM179.475 36.6726C179.218 37.6589 178.318 39.374 176.774 41.8182L175.809 43.2975L174.844 44.9055C174.115 46.1919 173.515 47.3925 173.043 48.5074C173.729 47.6927 174.716 46.4063 176.002 44.6482L177.546 42.397L179.154 40.2102C181.726 36.8656 183.485 35.2791 184.428 35.4506C184.985 35.5363 185.436 35.8365 185.779 36.351C186.122 36.7798 186.293 37.2086 186.293 37.6374C186.293 38.2377 186.057 39.3097 185.586 40.8534C185.371 41.4537 185.114 42.1612 184.814 42.9759L184.042 45.2271C182.627 49.0005 182.048 50.9515 182.305 51.0801C182.52 51.1659 184.128 48.6146 187.129 43.4262C188.544 41.0249 189.659 39.2454 190.474 38.0877C191.632 36.4582 192.446 35.6435 192.918 35.6435C193.347 35.6435 193.797 35.9222 194.269 36.4797C194.698 36.9942 194.869 37.4445 194.783 37.8304C194.655 38.4307 194.376 39.4384 193.947 40.8534C193.818 41.3251 193.626 41.9683 193.368 42.783L192.789 44.8412C191.76 48.2287 191.289 50.1368 191.374 50.5656C191.589 51.5089 193.261 51.2088 196.391 49.6651C197.463 49.1506 198.6 48.5503 199.8 47.8642C200.229 47.6069 200.636 47.3496 201.022 47.0923C201.365 46.878 201.601 46.7279 201.73 46.6421C202.03 46.4277 202.266 46.4492 202.437 46.7064C202.566 46.9637 202.523 47.1995 202.309 47.4139C202.137 47.5855 201.923 47.7999 201.665 48.0571C201.28 48.3573 200.894 48.6789 200.508 49.0219C199.436 49.8795 198.364 50.6085 197.292 51.2088C194.247 52.924 191.932 53.2027 190.345 52.0449C189.445 51.4017 189.037 50.2226 189.123 48.5074C189.123 47.1352 189.445 45.4629 190.088 43.4905C190.345 42.7186 190.624 41.9039 190.924 41.0463C191.181 40.4032 191.46 39.7171 191.76 38.9881L192.532 37.0586C192.403 37.1014 191.846 38.0233 190.86 39.8243L190.538 40.4675L190.152 41.1107L189.38 42.5257C188.737 43.7263 188.18 44.7554 187.708 45.613C184.492 51.1873 182.348 53.803 181.276 53.46C179.99 53.0312 179.39 51.8949 179.475 50.051C179.561 48.636 180.054 46.7493 180.955 44.3909C181.298 43.5762 181.705 42.6543 182.177 41.6252L182.756 40.3388C182.97 39.8243 183.12 39.4598 183.206 39.2454C183.849 37.7875 184.021 37.1229 183.72 37.2515C182.949 37.5517 180.783 40.296 177.224 45.4844C175.895 47.4139 174.566 49.4293 173.236 51.5304C172.036 53.3742 171.178 54.7249 170.664 55.5825C170.535 55.9684 170.213 56.0327 169.699 55.7754C169.141 55.5182 168.82 55.0465 168.734 54.3604C168.477 52.4737 169.742 49.0219 172.529 44.005L173.301 42.5257L174.072 41.175C174.759 40.0172 175.252 39.1596 175.552 38.6022C176.495 36.8013 177.031 35.5578 177.16 34.8717C177.203 34.5715 177.353 34.4215 177.61 34.4215C177.867 34.4215 178.167 34.5287 178.511 34.7431C178.854 35.0003 179.111 35.3005 179.282 35.6435C179.497 35.9866 179.561 36.3296 179.475 36.6726ZM215.255 33.714C218.128 33.2423 219.543 34.0999 219.5 36.2867C219.458 38.4736 218.193 41.4966 215.706 45.3557C213.39 48.9576 211.418 51.2945 209.788 52.3665C208.287 53.3099 206.722 53.267 205.093 52.2379C203.592 51.2517 202.799 50.0296 202.713 48.5717C199.754 52.1736 197.289 55.5396 195.316 58.6698C191.2 66.0022 189.592 70.9333 190.492 73.4632C189.035 73.6347 188.177 73.2274 187.92 72.2412C187.062 69.2396 190.042 62.1859 196.86 51.0801L198.79 47.9285L199.754 46.3848L200.655 44.9055C202.07 42.59 203.185 40.7247 204 39.3097C206.144 35.4934 207.13 32.9421 206.958 31.6557C207.601 31.3556 208.159 31.5485 208.631 32.2346C209.059 32.8778 209.188 33.6282 209.016 34.4858C208.802 36.1152 207.173 39.4169 204.128 44.3909C209.745 37.616 213.454 34.057 215.255 33.714ZM207.601 51.2731C208.845 50.8872 210.989 48.0786 214.033 42.8473C217.078 37.5731 217.978 34.8717 216.735 34.7431C216.22 34.7002 214.719 35.8579 212.232 38.2163C209.574 40.7462 206.851 43.662 204.064 46.9637C204.407 48.3787 204.921 49.515 205.608 50.3726C206.294 51.1873 206.958 51.4875 207.601 51.2731ZM243.685 44.005C243.942 43.8335 244.178 43.8335 244.393 44.005C244.564 44.1765 244.585 44.3695 244.457 44.5839C243.513 46.2562 242.141 47.8642 240.34 49.4078C238.797 50.6942 236.931 51.7233 234.745 52.4952C232.386 53.3099 230.221 53.61 228.248 53.3956C224.99 53.0955 222.781 51.4232 221.624 48.3787C220.637 45.6773 222.009 42.4185 225.74 38.6022C227.326 36.9728 228.977 35.7293 230.693 34.8717C232.536 33.9283 234.08 33.6068 235.323 33.9069C237.167 34.3786 238.218 35.2362 238.475 36.4797C238.69 37.6374 238.196 38.9238 236.996 40.3388C234.209 43.6834 230.006 45.7631 224.389 46.5778C224.046 48.2072 224.282 49.4936 225.097 50.4369C226.683 52.1521 229.085 52.538 232.3 51.5947C233.501 51.2088 234.766 50.6728 236.095 49.9867C237.21 49.3864 238.196 48.7432 239.054 48.0571C240.083 47.2853 241.627 45.9346 243.685 44.005ZM226.769 41.5609C225.911 42.7186 225.225 43.9836 224.711 45.3557C227.455 44.5839 230.242 42.8687 233.072 40.2102C235.859 37.5517 236.567 35.8794 235.195 35.1933C234.337 34.8074 232.836 35.5363 230.693 37.3801C229.878 38.1091 229.085 38.9024 228.313 39.76C227.627 40.4889 227.112 41.0892 226.769 41.5609ZM244.603 32.2346C244.817 33.6925 245.439 34.8288 246.468 35.6435C247.411 36.3296 248.526 36.737 249.812 36.8656C250.456 36.1795 251.056 35.472 251.613 34.7431C252.085 34.0999 252.449 33.5639 252.707 33.1351C254.165 30.4766 254.979 28.0539 255.151 25.867C255.322 23.38 254.422 22.0722 252.449 21.9435C251.12 21.8578 249.727 22.4581 248.269 23.7445C246.939 24.9451 245.953 26.2744 245.31 27.7323C244.624 29.3188 244.388 30.8196 244.603 32.2346ZM263.255 34.936C263.041 35.5792 262.333 36.8656 261.133 38.7952L260.361 40.0172L259.589 41.3036C258.946 42.3327 258.41 43.2332 257.981 44.005C255.494 48.4645 255.237 51.0801 257.209 51.852C258.067 52.3236 260.018 51.4875 263.062 49.3435C265.892 47.3711 267.908 45.5916 269.108 44.005C269.623 44.005 269.923 44.2194 270.009 44.6482C265.549 50.5656 261.454 53.5457 257.724 53.5886C255.837 53.5886 254.551 52.7953 253.865 51.2088C252.964 49.2363 253.672 46.1276 255.987 41.8825C256.373 41.1964 256.845 40.4032 257.402 39.5027L258.045 38.4093L258.688 37.3158C258.86 37.0157 259.031 36.737 259.203 36.4797C259.117 36.5226 259.01 36.5654 258.881 36.6083C256.48 37.7661 254.036 38.4093 251.549 38.5379C250.048 39.8243 248.076 41.7753 245.632 44.3909C245.246 44.734 244.881 45.077 244.538 45.42C244.195 45.7202 243.531 46.3205 242.544 47.221C242.244 47.5211 241.987 47.3925 241.773 46.8351C241.515 46.2776 241.601 45.8488 242.03 45.5487C243.188 44.4338 245.16 42.4614 247.947 39.6313C248.376 39.2025 248.719 38.7737 248.976 38.3449H248.397C247.154 38.0877 246.082 37.6374 245.181 36.9942C243.595 35.8794 242.673 34.3143 242.416 32.2989C242.116 30.4122 242.416 28.5041 243.316 26.5745C244.174 24.6021 245.396 23.0798 246.982 22.0079C248.74 20.8072 250.606 20.3784 252.578 20.7215C255.408 21.236 256.995 22.8654 257.338 25.6097C257.638 28.011 257.038 30.6266 255.537 33.4567C254.937 34.5715 254.165 35.665 253.221 36.737C257.209 36.0938 259.589 35.2362 260.361 34.1642V34.0999H260.425V34.0355H260.489C260.961 33.9069 261.433 33.9069 261.904 34.0355C262.505 34.1642 262.934 34.4429 263.191 34.8717L263.448 34.936H263.255ZM292.752 44.1337C293.009 44.2623 293.074 44.4553 292.945 44.7125L292.816 44.8412C292.773 44.9269 292.688 45.0556 292.559 45.2271C292.259 45.5701 291.937 45.956 291.594 46.3848C290.522 47.6283 289.429 48.7432 288.314 49.7294C284.755 52.8168 281.775 53.9102 279.374 53.0097C277.101 52.1521 277.208 49.6222 279.695 45.42C280.124 44.6911 280.617 43.9193 281.175 43.1046L281.882 42.0111C282.096 41.7539 282.332 41.4323 282.59 41.0463C283.576 39.6742 284.047 38.9452 284.005 38.8595C283.962 38.9452 283.747 39.224 283.361 39.6956C282.933 40.2531 282.44 40.8748 281.882 41.5609C280.381 43.4047 278.881 45.1199 277.38 46.7064C272.749 51.5089 269.49 53.7387 267.603 53.3956C266.617 53.2241 266.06 52.6452 265.931 51.659C265.674 49.7723 266.638 47.028 268.825 43.4262L269.468 42.397L270.112 41.4323C270.626 40.5747 271.012 39.9315 271.269 39.5027C272.041 38.1734 272.491 37.1657 272.62 36.4797C272.62 36.1795 272.792 35.9651 273.135 35.8365C273.435 35.7507 273.799 35.7722 274.228 35.9008C274.657 36.0294 274.978 36.2224 275.193 36.4797C275.45 36.7798 275.472 37.1014 275.257 37.4445C275.129 37.959 274.614 39.0096 273.714 40.5961C273.371 41.1535 272.92 41.9254 272.363 42.9116L271.655 44.0693L270.883 45.2914C268.482 49.4078 267.539 51.5733 268.053 51.7877C268.697 52.0021 271.548 49.708 276.608 44.9055C281.796 39.9315 284.669 36.4582 285.227 34.4858C285.398 33.9712 285.848 33.9712 286.577 34.4858C287.306 35.0432 287.692 35.5363 287.735 35.9651C287.735 36.5654 287.285 37.6803 286.384 39.3097C286.041 39.9529 285.57 40.7462 284.969 41.6895L284.198 42.9759L283.426 44.198C280.81 48.5717 279.824 51.1016 280.467 51.7877C280.939 52.3022 283.018 51.1873 286.706 48.4431C287.907 47.5855 289.172 46.6207 290.501 45.5487C290.93 45.2057 291.337 44.8626 291.723 44.5196C291.852 44.4338 291.959 44.3481 292.045 44.2623L292.173 44.1337C292.345 44.005 292.538 44.005 292.752 44.1337ZM310.398 23.8088C311.556 23.6802 312.263 23.9589 312.521 24.6449C312.521 25.5025 310.57 29.0186 306.668 35.1933L305.51 36.9942L304.352 38.7952C303.537 40.1244 302.851 41.2393 302.294 42.1398C300.879 44.4553 300 46.0418 299.657 46.8994C299.357 46.9423 299.056 46.685 298.756 46.1276C298.499 45.5701 298.435 45.0985 298.563 44.7125C298.864 43.7263 299.657 42.1398 300.943 39.9529C301.458 39.0953 302.101 38.0662 302.873 36.8656L303.902 35.1933L304.995 33.5853C308.597 27.9252 310.398 24.6664 310.398 23.8088ZM297.856 48.636C298.413 48.7646 298.713 49.1077 298.756 49.6651C298.799 50.1797 298.671 50.7585 298.37 51.4017C297.513 53.0312 296.505 53.7172 295.347 53.46C294.79 53.3742 294.49 53.0312 294.447 52.4308C294.404 51.9163 294.554 51.3374 294.897 50.6942C295.712 49.1077 296.698 48.4216 297.856 48.636Z" fill="#402A0C"></path></svg> 