<?xml version="1.0" encoding="UTF-8"?> <svg xmlns="http://www.w3.org/2000/svg" width="210" height="56" viewBox="0 0 210 56" fill="none"><path d="M9.24784 44.664C8.7785 44.4507 8.50117 43.96 8.41584 43.192V43.064C8.41584 42.8934 8.5865 42.7014 8.92784 42.488C9.0985 42.4027 9.4185 42.2747 9.88784 42.104C10.3998 42.0187 10.6772 41.9547 10.7198 41.912C10.7625 41.8694 10.8692 41.592 11.0398 41.08C11.2532 40.3547 11.4665 39.1814 11.6798 37.56C11.8932 34.872 11.9998 32.7174 11.9998 31.096C11.9145 26.744 11.8718 24.3334 11.8718 23.864V16.504C11.8718 13.816 11.8505 12.088 11.8078 11.32C11.8078 10.04 11.7865 9.20803 11.7438 8.82403V8.44003C11.7438 8.3547 11.7865 7.80003 11.8718 6.77603C11.8718 6.60536 11.8932 6.4987 11.9358 6.45603C11.9785 6.28536 12.0852 6.2427 12.2558 6.32803C12.9385 6.62669 13.3012 7.05336 13.3438 7.60803L13.7918 10.872C13.7918 10.9147 13.8132 11.2774 13.8558 11.96C13.9412 12.6 14.0052 13.1334 14.0478 13.56L14.1758 14.84L14.4958 18.296L14.6238 20.088C14.6665 20.6427 14.7518 21.88 14.8798 23.8C14.8798 24.1414 14.9652 25.1654 15.1358 26.872L15.2638 28.28V29.304C15.3065 29.7307 15.3278 30.7334 15.3278 32.312C15.3278 34.7014 15.2212 36.92 15.0078 38.968C14.8798 39.864 14.7732 40.44 14.6878 40.696L14.6238 41.464C14.5812 41.592 14.6452 41.656 14.8158 41.656C14.9438 41.656 15.1785 41.6134 15.5198 41.528C17.3545 41.0587 19.1465 40.184 20.8958 38.904C22.4745 37.7947 24.0532 36.4507 25.6318 34.872C26.9545 33.5494 28.1065 31.9707 29.0878 30.136C30.6665 27.2347 31.7545 23.9707 32.3518 20.344C32.4798 19.32 32.5438 18.296 32.5438 17.272C32.5438 14.328 31.9465 11.5974 30.7518 9.08003C30.0265 7.54403 29.1305 6.3067 28.0638 5.36803L27.3598 4.79203C25.8665 4.02403 24.1172 3.44803 22.1118 3.06403C21.3865 2.93603 20.5758 2.87203 19.6798 2.87203C18.3998 2.82936 16.7998 3.06403 14.8798 3.57603C14.1972 3.7467 13.2158 4.1947 11.9358 4.92003C10.9118 5.56003 10.2932 5.96536 10.0798 6.13603C9.3545 6.64803 8.3945 7.56536 7.19984 8.88803C5.8345 10.6374 4.8105 12.7067 4.12784 15.096C3.87184 15.9067 3.74384 16.7174 3.74384 17.528C3.74384 18.5947 3.93584 19.64 4.31984 20.664C4.7465 21.8587 5.34384 22.84 6.11184 23.608C6.32517 23.8214 6.58117 23.8427 6.87984 23.672C7.13584 23.4587 7.34917 23.4374 7.51984 23.608C7.6905 23.6507 7.83984 23.736 7.96784 23.864C8.2665 24.12 8.3945 24.3547 8.35184 24.568C8.1385 25.0374 7.86117 25.208 7.51984 25.08C7.34917 25.08 7.15717 25.016 6.94384 24.888C5.02384 23.9494 3.42384 22.6054 2.14384 20.856C1.63184 20.1307 1.2905 19.3414 1.11984 18.488C0.863836 17.6347 0.735836 16.8027 0.735836 15.992C0.735836 15.096 0.863836 14.2 1.11984 13.304C2.0585 9.80536 3.9145 6.84003 6.68784 4.40803C7.32784 3.81069 8.41584 3.10669 9.95184 2.29603C11.1892 1.65603 12.4052 1.1867 13.5998 0.888031C14.6665 0.632029 15.7758 0.504028 16.9278 0.504028C18.3358 0.504028 19.8292 0.674695 21.4078 1.01603C22.7305 1.31469 24.2665 1.95469 26.0158 2.93603C28.4905 4.55736 30.1758 5.81603 31.0718 6.71203C32.0958 7.6507 32.9918 8.8667 33.7598 10.36C35.0398 12.9627 35.6798 15.7574 35.6798 18.744C35.6798 20.664 35.3385 22.6267 34.6558 24.632C33.5038 28.0454 31.8825 30.9894 29.7918 33.464C28.5972 34.9147 27.3385 36.1307 26.0158 37.112C24.3945 38.392 22.7518 39.5014 21.0878 40.44C20.1492 40.9947 19.0185 41.4854 17.6958 41.912C16.5865 42.2534 15.6052 42.424 14.7518 42.424C14.4532 42.424 14.2612 42.552 14.1758 42.808C14.0905 43.0214 13.9412 43.32 13.7278 43.704C13.5572 44.088 13.4718 44.3227 13.4718 44.408C13.0878 45.048 12.4905 45.368 11.6798 45.368C10.7838 45.2827 9.97317 45.048 9.24784 44.664ZM10.3358 42.872V42.744L10.2078 42.68C10.1225 42.7227 9.9945 42.7867 9.82384 42.872C9.69584 42.9147 9.6105 42.936 9.56784 42.936C9.3545 43.1494 9.31184 43.384 9.43984 43.64L9.75984 44.024C10.0158 43.768 10.2078 43.384 10.3358 42.872ZM43.3798 35.832L41.0118 34.68C40.4572 34.3814 39.9665 33.848 39.5398 33.08C39.0278 32.1414 38.7718 30.8614 38.7718 29.24C38.7718 27.0214 39.3265 24.9094 40.4358 22.904C40.7772 22.4347 41.2038 21.944 41.7158 21.432L42.2278 21.048C42.3985 20.8774 42.6758 20.792 43.0598 20.792C43.2732 20.792 43.4865 20.856 43.6998 20.984C43.8278 21.0694 43.9985 21.2187 44.2118 21.432C43.7425 21.6027 43.3585 21.9867 43.0598 22.584C42.1638 24.1627 41.6305 25.72 41.4598 27.256C41.3318 28.024 41.2678 28.8134 41.2678 29.624C41.2678 29.752 41.3105 30.328 41.3958 31.352C41.5665 32.376 41.8652 33.272 42.2918 34.04C42.5478 34.5094 42.8252 34.744 43.1238 34.744L43.6358 34.616C44.4465 34.4454 45.1932 33.912 45.8758 33.016C46.6438 31.992 47.1132 30.84 47.2838 29.56C47.4972 28.5787 47.5612 27.8747 47.4758 27.448C47.4758 27.1067 47.3265 26.9147 47.0278 26.872H46.8998C46.0465 26.8294 44.8518 26.4027 43.3158 25.592L43.1878 25.464C42.6758 25.1654 42.4198 24.8454 42.4198 24.504C42.4198 24.1627 42.5692 23.8427 42.8678 23.544C43.3372 22.9467 43.8918 22.648 44.5318 22.648C44.7878 22.648 45.0865 22.712 45.4278 22.84C45.8118 22.968 46.5158 23.3094 47.5398 23.864C48.0518 24.1627 48.4572 24.5467 48.7558 25.016C48.8838 25.272 49.0972 25.3787 49.3958 25.336L51.1878 24.952C53.2785 24.5254 54.8145 24.2907 55.7958 24.248C56.2652 24.248 56.6492 24.3334 56.9478 24.504L57.7158 24.952C57.8012 25.0374 57.8438 25.1014 57.8438 25.144L57.6518 25.336C55.3478 25.7627 53.9825 25.9974 53.5558 26.04C52.6172 26.168 51.3158 26.4027 49.6518 26.744C49.3958 26.9147 49.2678 27.1067 49.2678 27.32C49.2252 28.5147 49.0118 29.7734 48.6278 31.096C47.9878 32.76 47.4332 33.8907 46.9638 34.488C46.5798 35 46.1318 35.384 45.6198 35.64C45.2358 35.896 44.8092 36.024 44.3398 36.024C44.0412 36.024 43.7212 35.96 43.3798 35.832ZM46.2598 25.784H46.7078C47.1345 25.784 47.2625 25.5707 47.0918 25.144L46.8358 24.696C46.5798 24.2694 46.3452 24.056 46.1318 24.056C46.0038 24.056 45.7905 24.1414 45.4918 24.312C45.0652 24.568 44.8092 24.8667 44.7238 25.208C44.7238 25.4214 44.8092 25.5494 44.9798 25.592C45.6198 25.72 46.0465 25.784 46.2598 25.784ZM78.0433 34.36L76.8273 33.912C75.7607 33.528 75.014 32.824 74.5873 31.8C73.99 30.52 73.734 29.176 73.8193 27.768C73.8193 25.848 74.054 24.056 74.5233 22.392C75.078 20.3014 75.974 18.5734 77.2113 17.208C77.894 16.3974 78.534 15.7787 79.1313 15.352L79.8353 14.904C80.134 14.7334 80.4967 14.712 80.9233 14.84L82.1393 15.352C82.4807 15.608 82.502 15.7787 82.2033 15.864C81.606 16.4614 81.158 16.952 80.8593 17.336C79.4513 19.2987 78.47 21.304 77.9153 23.352C77.6593 24.504 77.4247 25.72 77.2113 27C77.1687 27.2134 77.1473 27.7467 77.1473 28.6C77.062 29.9654 77.126 31.0534 77.3393 31.864C77.382 32.3334 77.51 32.7814 77.7233 33.208C77.766 33.5067 77.9367 33.656 78.2353 33.656C78.7047 33.656 79.302 33.464 80.0273 33.08C80.71 32.696 81.3073 32.248 81.8193 31.736C82.3313 31.2667 83.3553 30.0934 84.8913 28.216L87.3873 24.952C87.7287 24.568 87.942 24.376 88.0273 24.376C88.1553 24.376 88.3687 24.44 88.6673 24.568L88.9873 24.76C89.0727 24.8027 89.094 24.9094 89.0513 25.08L88.9233 25.272L88.0273 26.424C86.15 28.8987 84.742 30.6054 83.8033 31.544C83.334 32.056 82.8433 32.5467 82.3313 33.016C81.6487 33.5707 80.8593 34.0187 79.9633 34.36C79.366 34.4454 79.046 34.488 79.0033 34.488C78.9607 34.488 78.6407 34.4454 78.0433 34.36ZM107 24.824C107 24.9094 106.83 25.08 106.488 25.336L103.608 27.448C102.798 27.96 101.987 28.6 101.176 29.368C100.878 29.624 100.728 29.944 100.728 30.328C100.643 32.0347 100.152 33.7627 99.2563 35.512C98.7017 36.664 97.9763 37.56 97.0803 38.2L96.3763 38.584C95.9923 38.7547 95.6723 38.776 95.4163 38.648L94.0083 38.008C93.8377 37.9654 93.7523 37.7947 93.7523 37.496C93.7523 37.2827 93.8163 37.0694 93.9443 36.856C94.2857 35.96 94.8617 34.9574 95.6723 33.848L97.0803 31.992C97.2937 31.6934 97.443 31.3734 97.5283 31.032C97.827 29.3254 97.955 27.9174 97.9123 26.808C97.9123 26.0827 97.827 25.5707 97.6563 25.272C97.315 25.272 96.9737 25.4427 96.6323 25.784C96.1203 26.296 95.7577 26.744 95.5443 27.128C95.1177 27.9387 94.7337 28.7707 94.3923 29.624C93.8377 31.3307 93.219 33.4854 92.5363 36.088L91.5763 39.864L91.1923 41.08C91.0217 41.4214 90.723 41.5707 90.2963 41.528C90.1257 41.4854 89.6137 41.336 88.7603 41.08C88.2057 40.952 87.8217 40.5894 87.6083 39.992C87.4803 39.7787 87.3097 39.2027 87.0963 38.264C86.8403 36.856 86.7123 35.4054 86.7123 33.912C86.7123 31.992 86.7977 29.6454 86.9683 26.872C87.1817 24.1414 87.4163 21.752 87.6723 19.704C87.715 19.4907 87.8003 19.0214 87.9283 18.296C87.971 17.7414 88.1417 16.696 88.4403 15.16C88.9097 12.856 89.5497 10.808 90.3603 9.01603C90.8297 8.12003 91.299 7.41603 91.7683 6.90403C92.1097 6.39203 92.6003 6.05069 93.2403 5.88003C93.4963 5.7947 93.731 5.75203 93.9443 5.75203C94.2003 5.75203 94.4563 5.7947 94.7123 5.88003L95.4803 6.32803L96.4403 6.90403C97.123 7.24536 97.4857 7.88536 97.5283 8.82403C97.5283 9.46403 97.443 10.1467 97.2723 10.872C97.0163 12.152 96.291 14.3067 95.0963 17.336C93.859 20.28 92.451 23.16 90.8723 25.976C90.4457 26.6587 90.2323 27.448 90.2323 28.344C90.2323 29.24 90.211 29.7947 90.1683 30.008L90.1043 31.736C90.0617 32.2907 90.0403 33.528 90.0403 35.448C90.0403 35.96 90.1043 36.728 90.2323 37.752C90.2323 37.88 90.275 37.944 90.3603 37.944C90.4457 38.0294 90.531 37.9654 90.6163 37.752C90.6163 37.6667 90.6377 37.5387 90.6803 37.368C90.7657 37.1974 90.8297 37.048 90.8723 36.92L92.5363 31.416C93.0057 29.6667 93.4963 28.3014 94.0083 27.32C94.2217 26.7654 94.5203 26.2107 94.9043 25.656C95.331 25.144 95.6937 24.76 95.9923 24.504C96.3337 24.2907 96.6537 24.184 96.9523 24.184C96.995 24.184 97.187 24.2267 97.5283 24.312C97.699 24.44 98.147 24.6534 98.8723 24.952C99.6403 25.2934 100.152 25.848 100.408 26.616L100.728 28.024H100.856C100.984 28.024 101.155 27.9174 101.368 27.704L103.8 25.784L105.08 24.76L105.656 24.376C105.912 24.12 106.126 24.0987 106.296 24.312L106.36 24.376C106.787 24.5467 107 24.696 107 24.824ZM90.6803 22.968L90.7443 23.544C90.8723 23.416 90.9577 23.3094 91.0003 23.224C91.0003 23.1387 91.0217 23.0534 91.0643 22.968C91.1497 22.8827 91.2137 22.776 91.2563 22.648C91.3417 22.4774 91.4057 22.328 91.4483 22.2C92.899 19.3414 94.0083 16.5467 94.7763 13.816C95.4163 11.5547 95.7577 10.0187 95.8003 9.20803V8.31203C95.8003 8.14136 95.7577 8.01336 95.6723 7.92803C95.587 7.88536 95.4803 7.92803 95.3523 8.05603C94.755 8.56803 94.2643 9.16536 93.8803 9.84803C93.1123 11.2134 92.5577 12.5147 92.2163 13.752C91.5337 16.44 91.0217 19.512 90.6803 22.968ZM90.6803 23.608V23.544V23.608ZM122.891 37.304L121.035 36.408C120.779 36.2374 120.417 35.896 119.947 35.384C119.606 34.744 119.35 34.2107 119.179 33.784C118.582 31.736 118.283 29.56 118.283 27.256C118.283 25.4214 118.305 24.248 118.347 23.736C118.39 23.224 118.454 22.6054 118.539 21.88C118.667 21.112 118.731 20.664 118.731 20.536L118.795 19.512L118.731 19.192C118.433 19.4907 118.113 19.9387 117.771 20.536C117.259 21.3894 116.577 22.7547 115.723 24.632L113.099 30.776C112.374 32.3974 111.499 33.912 110.475 35.32C110.347 35.5334 110.006 35.9174 109.451 36.472C109.153 36.7707 108.79 36.92 108.363 36.92C108.065 36.92 107.787 36.856 107.531 36.728C106.379 36.1734 105.675 35.832 105.419 35.704C104.651 35.3627 104.097 34.808 103.755 34.04C103.371 33.144 103.179 32.2054 103.179 31.224C103.179 30.5414 103.265 29.7094 103.435 28.728C103.777 27.1067 104.203 25.8054 104.715 24.824C105.953 22.392 107.553 20.7707 109.515 19.96C110.326 19.6187 111.009 19.448 111.563 19.448C112.289 19.448 113.078 19.6827 113.931 20.152L115.147 20.856C115.403 20.984 115.553 20.9627 115.595 20.792L116.043 19.96C116.641 18.808 117.131 18.0187 117.515 17.592L117.899 17.144C118.113 16.9307 118.305 16.824 118.475 16.824C118.646 16.824 118.817 16.8667 118.987 16.952C119.073 16.9947 119.243 17.1014 119.499 17.272C119.798 17.4 120.054 17.528 120.267 17.656C120.566 17.784 120.779 18.0187 120.907 18.36C121.078 18.7014 121.163 19.1494 121.163 19.704L121.227 20.92C121.227 21.048 121.185 21.624 121.099 22.648L120.971 25.912C120.886 27.3627 120.843 28.1947 120.843 28.408C120.843 30.584 121.163 32.6534 121.803 34.616C121.846 34.7014 121.889 34.808 121.931 34.936C121.974 35.1067 122.017 35.2134 122.059 35.256C122.187 35.5974 122.337 35.768 122.507 35.768H122.571C122.614 35.7254 122.678 35.6827 122.763 35.64C122.849 35.5547 122.934 35.4907 123.019 35.448C123.617 34.936 124.107 34.4027 124.491 33.848C125.174 32.8667 125.835 31.6507 126.475 30.2C126.603 29.9014 127.35 28.5574 128.715 26.168C129.227 25.1867 129.547 24.632 129.675 24.504C129.803 24.376 129.974 24.3547 130.187 24.44L131.083 24.888C131.297 24.9734 131.361 25.1227 131.275 25.336L130.891 26.232C129.91 28.3227 128.822 30.5627 127.627 32.952C127.542 33.1654 127.137 33.8694 126.411 35.064C126.283 35.3627 125.835 35.896 125.067 36.664C124.811 36.92 124.534 37.112 124.235 37.24C123.979 37.368 123.745 37.432 123.531 37.432C123.446 37.432 123.233 37.3894 122.891 37.304ZM107.595 34.552L107.979 34.232C108.918 33.464 109.793 32.3974 110.603 31.032C111.627 29.2827 112.438 27.7467 113.035 26.424L114.891 22.328C114.934 22.2854 114.955 22.1574 114.955 21.944C114.955 21.5174 114.721 21.24 114.251 21.112C113.867 21.112 113.611 21.1334 113.483 21.176C112.545 21.304 111.67 21.7094 110.859 22.392C109.153 23.8427 108.043 25.7414 107.531 28.088C107.361 28.7707 107.233 29.4534 107.147 30.136C107.019 30.8187 106.955 31.5014 106.955 32.184C106.955 33.0374 107.041 33.784 107.211 34.424C107.254 34.5947 107.382 34.6374 107.595 34.552ZM148.549 25.272L147.141 27.32C145.947 28.8987 144.112 31.672 141.637 35.64C141.339 36.0667 141.189 36.536 141.189 37.048C141.189 37.432 141.168 37.688 141.125 37.816C140.997 38.3707 140.869 39.2667 140.741 40.504L140.549 41.848C140.464 42.7014 140.229 43.96 139.845 45.624C139.76 45.9227 139.461 46.9467 138.949 48.696C138.779 49.208 138.352 50.2747 137.669 51.896C137.285 52.792 136.709 53.6667 135.941 54.52C135.685 54.8187 135.387 55.0534 135.045 55.224C134.747 55.3947 134.491 55.48 134.277 55.48L133.765 55.352L132.677 54.904C132.293 54.776 132.123 54.4987 132.165 54.072C132.165 53.5174 132.187 53.176 132.229 53.048C132.613 51.256 133.189 49.528 133.957 47.864C135.323 44.792 136.133 43.0427 136.389 42.616C136.731 41.976 136.923 41.336 136.965 40.696C137.008 39.8 137.179 38.1787 137.477 35.832C137.563 35.3627 137.712 34.0614 137.925 31.928C138.309 29.0694 138.651 26.872 138.949 25.336V24.632C138.779 24.7174 138.608 24.8454 138.437 25.016C137.157 26.4667 136.027 27.832 135.045 29.112C134.192 30.0934 133.019 31.6934 131.525 33.912L130.565 35C130.395 35.1707 130.117 35.192 129.733 35.064L127.429 33.72C127.003 33.4214 126.789 32.9307 126.789 32.248C126.704 31.4374 126.832 30.4774 127.173 29.368C127.557 27.96 128.261 26.36 129.285 24.568C129.84 23.544 130.779 22.2 132.101 20.536L133.445 19.256C134.043 18.7867 134.704 18.552 135.429 18.552C135.984 18.552 136.432 18.6587 136.773 18.872L137.925 19.576C138.224 19.7467 138.331 20.0454 138.245 20.472C138.245 20.5147 138.203 20.5574 138.117 20.6C138.075 20.6427 138.032 20.6427 137.989 20.6C137.776 20.5574 137.627 20.4507 137.541 20.28L137.413 19.96C137.285 19.704 137.072 19.64 136.773 19.768C136.219 19.896 135.728 20.2374 135.301 20.792C134.619 21.6027 134.128 22.3494 133.829 23.032C133.232 24.056 132.72 25.08 132.293 26.104C132.165 26.4027 131.824 27.384 131.269 29.048C131.227 29.2187 131.077 29.7307 130.821 30.584C130.736 30.7974 130.736 30.9467 130.821 31.032C130.992 31.032 131.205 30.904 131.461 30.648C132.357 29.8374 133.232 28.9414 134.085 27.96L135.173 26.68L137.285 24.376L138.437 23.16C138.821 22.8187 139.205 22.776 139.589 23.032C139.675 23.16 139.824 23.2454 140.037 23.288C140.635 23.544 141.019 24.0774 141.189 24.888C141.36 25.6134 141.467 26.4454 141.509 27.384V32.44L141.445 33.08C141.573 33.08 141.68 33.0374 141.765 32.952C141.765 32.8667 141.808 32.7814 141.893 32.696C141.979 32.568 142.043 32.4827 142.085 32.44C143.195 30.6054 144.176 29.0907 145.029 27.896L145.925 26.552C146.48 25.784 146.971 25.144 147.397 24.632C147.611 24.376 147.867 24.312 148.165 24.44L148.421 24.632C148.72 24.8027 148.763 25.016 148.549 25.272ZM135.365 49.272L135.749 46.904L135.621 47.096C134.683 49.272 134.043 51.256 133.701 53.048C133.659 53.0907 133.637 53.1334 133.637 53.176C133.68 53.2187 133.723 53.24 133.765 53.24C133.936 53.1547 134.043 52.984 134.085 52.728C134.64 51.704 135.067 50.552 135.365 49.272ZM147.745 41.144C147.532 40.6747 147.383 40.184 147.297 39.672C147.169 38.904 147.105 38.136 147.105 37.368L146.977 35.832C146.892 33.1867 146.849 31.7147 146.849 31.416C146.849 30.392 146.892 28.472 146.977 25.656L147.169 21.24L147.297 18.936C147.383 18.1254 147.745 17.72 148.385 17.72C149.324 17.72 149.793 18.7014 149.793 20.664L149.921 31.416L149.857 33.912C149.857 34.0827 149.9 34.168 149.985 34.168C150.071 34.168 150.113 34.104 150.113 33.976C151.009 31.2454 152.097 29.0907 153.377 27.512C154.7 25.8907 155.959 25.08 157.153 25.08C158.391 25.08 159.244 25.9974 159.713 27.832L160.673 27.064L163.873 24.76C164.3 24.4614 164.705 24.3974 165.089 24.568L165.601 24.696C165.772 24.696 165.857 24.76 165.857 24.888L165.729 25.08C165.644 25.1227 165.537 25.1867 165.409 25.272C165.367 25.3147 165.324 25.3574 165.281 25.4H165.217C162.785 27.192 161.185 28.4294 160.417 29.112C159.863 29.624 159.521 29.9867 159.393 30.2C159.265 30.4134 159.095 30.8827 158.881 31.608C158.369 33.2294 157.687 34.5734 156.833 35.64C156.449 36.152 156.001 36.6 155.489 36.984C155.148 37.24 154.785 37.3467 154.401 37.304L153.249 37.112C152.908 36.984 152.737 36.7707 152.737 36.472C152.737 36.216 152.823 35.896 152.993 35.512C153.207 35.0427 153.527 34.424 153.953 33.656C154.764 32.5894 155.532 31.672 156.257 30.904L156.769 30.392C157.025 30.136 157.175 29.88 157.217 29.624C157.26 29.496 157.281 29.1974 157.281 28.728C157.281 27.6187 156.94 27.064 156.257 27.064C155.489 27.064 154.657 27.7467 153.761 29.112C152.865 30.4774 152.119 32.2694 151.521 34.488L150.625 38.264C150.54 38.7334 150.433 39.48 150.305 40.504C150.22 40.9307 150.177 41.1867 150.177 41.272C150.135 41.4427 150.007 41.528 149.793 41.528H148.321C148.065 41.528 147.873 41.4 147.745 41.144ZM167.752 34.552L165.64 33.4C164.573 32.8027 163.891 31.9067 163.592 30.712C163.336 29.816 163.208 28.92 163.208 28.024C163.208 27.1707 163.357 26.168 163.656 25.016C163.955 23.6934 164.531 22.52 165.384 21.496C165.725 21.0267 166.109 20.664 166.536 20.408C166.835 20.2374 167.133 20.152 167.432 20.152C167.475 20.152 167.667 20.1947 168.008 20.28C168.819 20.6214 169.501 21.0054 170.056 21.432L170.376 21.688C170.461 21.9014 170.461 22.072 170.376 22.2L170.248 22.392C170.205 22.392 170.12 22.4987 169.992 22.712C169.864 22.8827 169.757 22.9467 169.672 22.904C169.501 22.8614 169.416 22.6054 169.416 22.136L169.288 21.752C169.203 21.624 169.096 21.56 168.968 21.56C168.499 21.56 168.093 21.816 167.752 22.328C167.197 22.8827 166.792 23.5867 166.536 24.44C165.939 26.0187 165.704 27.6827 165.832 29.432C165.875 30.4987 166.152 31.48 166.664 32.376C166.877 32.7174 167.048 32.888 167.176 32.888C167.304 32.888 167.496 32.8454 167.752 32.76C168.307 32.5467 168.733 32.2054 169.032 31.736C169.843 30.84 170.397 29.7734 170.696 28.536C170.995 27.64 171.144 26.5947 171.144 25.4C171.144 25.272 171.101 24.696 171.016 23.672C170.547 20.6427 169.651 18.0187 168.328 15.8C167.517 14.392 166.493 12.9627 165.256 11.512C164.573 10.744 163.976 10.168 163.464 9.78403L161.736 8.37603L161.608 8.24803C161.139 7.9067 160.904 7.50136 160.904 7.03203C160.904 6.52003 161.139 6.09336 161.608 5.75203C162.12 5.32536 162.845 4.92003 163.784 4.53603C165.661 3.85336 167.752 3.32003 170.056 2.93603C172.189 2.5947 174.621 2.29603 177.352 2.04003C179.059 1.9547 180.147 1.91203 180.616 1.91203C180.744 1.91203 181.875 1.9547 184.008 2.04003C184.307 2.04003 184.584 2.16803 184.84 2.42403L185.608 3.38403C185.779 3.5547 185.779 3.64003 185.608 3.64003C185.565 3.64003 185.523 3.64003 185.48 3.64003C184.755 3.59736 183.795 3.64003 182.6 3.76803L181.192 3.83203C178.291 3.8747 176.115 4.0027 174.664 4.21603C171.507 4.55736 168.947 4.98403 166.984 5.49603C165.619 5.83736 164.723 6.13603 164.296 6.39203C163.784 6.64803 163.421 6.8827 163.208 7.09603C162.867 7.43736 162.696 7.71469 162.696 7.92803C162.696 8.18403 162.845 8.44003 163.144 8.69603C163.741 9.29336 164.147 9.65603 164.36 9.78403C165.981 10.9787 167.581 12.664 169.16 14.84C170.227 16.2907 170.952 17.4854 171.336 18.424C172.403 20.984 173 23.3947 173.128 25.656C173.128 26.9787 172.893 28.3867 172.424 29.88C172.168 30.648 171.784 31.544 171.272 32.568C170.803 33.2934 170.333 33.8694 169.864 34.296C169.395 34.6374 168.989 34.808 168.648 34.808C168.435 34.808 168.136 34.7227 167.752 34.552ZM209.206 25.336L204.662 30.904C203.553 32.312 202.657 33.2507 201.974 33.72C201.676 34.0187 201.462 34.1894 201.334 34.232C201.036 34.4027 200.758 34.488 200.502 34.488C200.289 34.488 200.097 34.4454 199.926 34.36C198.646 33.8054 197.729 33.3574 197.174 33.016C196.492 32.5894 196.022 31.9494 195.766 31.096C195.425 29.8587 195.212 28.6854 195.126 27.576V26.296C193.121 27.832 191.926 28.7707 191.542 29.112C190.988 29.624 190.646 29.9867 190.518 30.2C190.39 30.4134 190.22 30.8827 190.006 31.608C189.494 33.2294 188.812 34.5734 187.958 35.64C187.574 36.152 187.126 36.6 186.614 36.984C186.273 37.24 185.91 37.3467 185.526 37.304L184.374 37.112C184.033 36.984 183.862 36.7707 183.862 36.472C183.862 36.216 183.948 35.896 184.118 35.512C184.332 35.0427 184.652 34.424 185.078 33.656C185.889 32.5894 186.657 31.672 187.382 30.904L187.894 30.392C188.15 30.136 188.3 29.88 188.342 29.624C188.598 28.0027 188.726 26.808 188.726 26.04L188.662 25.016C188.62 24.504 188.513 24.0134 188.342 23.544C188.257 23.2027 188.108 23.1387 187.894 23.352C187.254 23.8214 186.7 24.376 186.23 25.016C185.633 25.912 185.164 26.8294 184.822 27.768C183.884 30.072 183.158 32.312 182.646 34.488L181.75 38.264C181.665 38.7334 181.558 39.48 181.43 40.504C181.345 40.9307 181.302 41.1867 181.302 41.272C181.26 41.4427 181.132 41.528 180.918 41.528H179.446C179.19 41.528 178.998 41.4 178.87 41.144C178.657 40.6747 178.508 40.184 178.422 39.672C178.294 38.904 178.23 38.136 178.23 37.368L178.102 35.832C178.017 33.1867 177.974 31.7147 177.974 31.416C177.974 30.392 178.017 28.472 178.102 25.656L178.294 21.24L178.422 18.936C178.508 18.1254 178.87 17.72 179.51 17.72C180.449 17.72 180.918 18.7014 180.918 20.664L181.046 31.416L180.982 33.912C180.982 34.0827 181.025 34.168 181.11 34.168C181.196 34.168 181.238 34.104 181.238 33.976L181.942 31.608C182.625 29.3467 183.286 27.4907 183.926 26.04C184.396 24.9307 184.908 24.0987 185.462 23.544C185.846 23.0747 186.294 22.6907 186.806 22.392C187.233 22.1787 187.617 22.136 187.958 22.264L189.11 22.584C189.75 22.7974 190.198 23.224 190.454 23.864C190.71 24.7174 190.838 25.5707 190.838 26.424V27.832L191.798 27.064L194.998 24.76C195.084 24.6747 195.148 24.632 195.19 24.632L195.51 20.088C195.638 19.32 195.745 18.7654 195.83 18.424L196.022 17.848C196.193 17.464 196.385 17.272 196.598 17.272C196.726 17.272 196.918 17.336 197.174 17.464L198.262 17.912C198.732 18.2107 198.945 18.5947 198.902 19.064C198.902 20.0454 198.838 21.0054 198.71 21.944C198.582 23.2667 198.497 24.1627 198.454 24.632L198.326 25.976C198.241 27.8534 198.39 29.56 198.774 31.096C198.902 31.8214 199.116 32.4187 199.414 32.888C199.457 33.0587 199.628 33.1227 199.926 33.08C200.737 32.8667 201.398 32.504 201.91 31.992L202.806 31.096C204.641 29.1334 206.134 27.32 207.286 25.656C207.5 25.3574 207.777 25.0374 208.118 24.696C208.246 24.4827 208.438 24.44 208.694 24.568L209.078 24.76C209.292 24.8454 209.398 24.9094 209.398 24.952C209.398 24.9947 209.334 25.1227 209.206 25.336Z" fill="black"></path></svg> 