<?xml version="1.0" encoding="UTF-8"?> <svg xmlns="http://www.w3.org/2000/svg" width="81" height="23" viewBox="0 0 81 23" fill="none"><path d="M0.0296563 19.1484V18.9324H0.893656C1.45366 18.9324 1.80566 18.8364 1.94966 18.6444C2.09366 18.4524 2.16566 18.0524 2.16566 17.4444V3.59644C2.16566 2.98844 2.09366 2.58844 1.94966 2.39644C1.80566 2.20444 1.45366 2.10844 0.893656 2.10844H0.0296563V1.89244H5.69366V2.10844H5.30966C4.74966 2.10844 4.39766 2.20444 4.25366 2.39644C4.10966 2.58844 4.03766 2.98844 4.03766 3.59644V18.7164H10.1097V3.59644C10.1097 2.98844 10.0297 2.58844 9.86966 2.39644C9.72566 2.20444 9.37366 2.10844 8.81366 2.10844H8.42966V1.89244H14.0937V2.10844H13.2537C12.6937 2.10844 12.3417 2.20444 12.1977 2.39644C12.0537 2.58844 11.9817 2.98844 11.9817 3.59644V17.2284C11.9817 17.8364 12.0537 18.2364 12.1977 18.4284C12.3417 18.6204 12.6937 18.7164 13.2537 18.7164H15.8937V22.7004H15.2457V20.6364C15.2457 20.0284 15.1657 19.6284 15.0057 19.4364C14.8617 19.2444 14.5097 19.1484 13.9497 19.1484H0.0296563ZM20.5041 18.7164H23.2401C24.7281 18.7164 25.9281 18.3004 26.8401 17.4684C27.7521 16.6364 28.2081 15.5324 28.2081 14.1564C28.2081 12.7164 27.7281 11.5324 26.7681 10.6044C25.8081 9.67644 24.5841 9.21244 23.0961 9.21244H21.8241V8.80444H22.7841C23.8401 8.80444 24.7121 8.50044 25.4001 7.89244C26.0881 7.28444 26.4321 6.50844 26.4321 5.56444C26.4321 4.58844 26.0641 3.80444 25.3281 3.21244C24.6081 2.62044 23.6481 2.32444 22.4481 2.32444H20.5041V2.34844C20.7761 2.62044 20.9121 3.03644 20.9121 3.59644V17.4444C20.9121 17.9884 20.7761 18.3964 20.5041 18.6684V18.7164ZM16.9281 19.1484V18.9324H17.7681C18.3441 18.9324 18.6961 18.8684 18.8241 18.7404C18.9681 18.5964 19.0401 18.2364 19.0401 17.6604V3.38044C19.0401 2.80444 18.9681 2.45244 18.8241 2.32444C18.6961 2.18044 18.3441 2.10844 17.7681 2.10844H16.9281V1.89244H22.7841C24.4961 1.89244 25.8721 2.22844 26.9121 2.90044C27.9521 3.55644 28.4721 4.42844 28.4721 5.51644C28.4721 6.25244 28.1521 6.96444 27.5121 7.65244C26.8881 8.32444 26.0561 8.73244 25.0161 8.87644V8.97244C26.5201 9.08444 27.7761 9.66044 28.7841 10.7004C29.7921 11.7404 30.2961 12.8924 30.2961 14.1564C30.2961 15.6284 29.6641 16.8284 28.4001 17.7564C27.1361 18.6844 25.5601 19.1484 23.6721 19.1484H16.9281ZM33.5792 9.78844C33.5792 9.88444 33.5792 9.98044 33.5792 10.0764C33.5792 12.9084 34.1792 15.0924 35.3792 16.6284C36.5952 18.1484 38.2432 18.9084 40.3232 18.9084C41.9232 18.9084 43.3392 18.5884 44.5712 17.9484C45.8032 17.2924 46.7712 16.3724 47.4752 15.1884L47.8112 15.4524C47.0592 16.6844 46.0272 17.6444 44.7152 18.3324C43.4192 19.0044 41.9312 19.3404 40.2512 19.3404C37.7072 19.3404 35.6032 18.5244 33.9392 16.8924C32.2752 15.2444 31.4432 13.1004 31.4432 10.4604C31.4432 7.83644 32.2512 5.72444 33.8672 4.12444C35.4992 2.50844 37.6432 1.70044 40.2992 1.70044C42.4432 1.70044 44.2592 2.38044 45.7472 3.74044C47.2352 5.10044 47.9792 6.84444 47.9792 8.97244V9.09244C47.9792 9.28444 47.9072 9.45244 47.7632 9.59644C47.6192 9.72444 47.4432 9.78844 47.2352 9.78844H33.5792ZM33.6032 9.35644L45.6512 9.18844C45.7792 9.18844 45.8432 9.11644 45.8432 8.97244C45.8432 6.92444 45.3232 5.27644 44.2832 4.02844C43.2592 2.76444 41.8992 2.13244 40.2032 2.13244C38.1552 2.13244 36.5632 2.74844 35.4272 3.98044C34.3072 5.21244 33.6992 7.00444 33.6032 9.35644ZM50.9597 19.1484V18.9324H52.7837C53.3597 18.9324 53.7117 18.8684 53.8397 18.7404C53.9837 18.5964 54.0557 18.2364 54.0557 17.6604V2.32444H52.6157C51.4157 2.32444 50.5917 2.50844 50.1437 2.87644C49.6957 3.22844 49.4397 3.96444 49.3757 5.08444L49.3037 6.06844L48.8717 6.04444L49.2317 0.476436L49.4957 0.500437L49.3757 1.89244H60.5597L60.4397 0.524437L60.7037 0.500437L61.0637 6.04444L60.6317 6.06844L60.5597 5.08444C60.4797 3.96444 60.2157 3.22844 59.7677 2.87644C59.3197 2.50844 58.5037 2.32444 57.3197 2.32444H55.9277V17.6604C55.9277 18.2364 55.9917 18.5964 56.1197 18.7404C56.2637 18.8684 56.6237 18.9324 57.1997 18.9324H58.9757V19.1484H50.9597ZM74.0738 19.1484V18.9324H74.9138C75.4898 18.9324 75.8418 18.8684 75.9698 18.7404C76.1138 18.6124 76.1858 18.2604 76.1858 17.6844V3.35644C76.1858 2.78044 76.1138 2.42844 75.9698 2.30044C75.8418 2.17244 75.4898 2.10844 74.9138 2.10844H74.0738V1.89244H80.1938V2.15644H79.3538C78.7778 2.15644 78.4178 2.22044 78.2738 2.34844C78.1298 2.47644 78.0578 2.82844 78.0578 3.40444V17.6844C78.0578 18.2604 78.1298 18.6124 78.2738 18.7404C78.4178 18.8684 78.7778 18.9324 79.3538 18.9324H80.1938V19.1484H74.0738ZM61.8578 19.1484V18.9084H62.6978C63.2738 18.9084 63.6258 18.8444 63.7538 18.7164C63.8978 18.5724 63.9698 18.2124 63.9698 17.6364V3.35644C63.9698 2.78044 63.8978 2.42844 63.7538 2.30044C63.6258 2.17244 63.2738 2.10844 62.6978 2.10844H61.8578V1.89244H67.9778V2.10844H67.1378C66.5618 2.10844 66.2018 2.18044 66.0578 2.32444C65.9138 2.46844 65.8418 2.82844 65.8418 3.40444V10.2684H67.6658C69.5058 10.2684 70.9858 10.6764 72.1058 11.4924C73.2258 12.3084 73.7858 13.3804 73.7858 14.7084C73.7858 16.0364 73.2258 17.1084 72.1058 17.9244C70.9858 18.7404 69.5058 19.1484 67.6658 19.1484H61.8578ZM65.8418 10.6764V17.4444C65.8418 17.9884 65.7058 18.3964 65.4338 18.6684V18.7164H67.2098C68.6658 18.7164 69.7778 18.3724 70.5458 17.6844C71.3138 16.9964 71.6978 16.0044 71.6978 14.7084C71.6978 13.3964 71.3138 12.3964 70.5458 11.7084C69.7778 11.0204 68.6658 10.6764 67.2098 10.6764H65.8418Z" fill="black"></path></svg> 