<?xml version="1.0" encoding="UTF-8"?> <svg xmlns="http://www.w3.org/2000/svg" width="151" height="36" viewBox="0 0 151 36" fill="none"><path d="M42.8161 8.54316C42.8161 11.1401 42.2405 13.9914 41.0893 17.097C39.8845 20.4436 38.2246 23.4689 36.1096 26.173C37.1269 26.4675 38.1978 26.6147 39.3223 26.6147C40.179 26.6147 40.9019 26.4942 41.4909 26.2533C41.5712 26.173 41.6917 26.1328 41.8523 26.1328C41.9326 26.1328 41.9728 26.173 41.9728 26.2533C41.9728 26.8155 41.0491 27.0966 39.2018 27.0966C37.997 27.0966 36.8458 26.936 35.7481 26.6147C31.1432 32.2905 25.695 35.1284 19.4034 35.1284C18.0112 35.1284 15.9497 34.6331 13.2189 33.6425C10.7291 34.8473 8.3329 35.4497 6.03045 35.4497C4.69182 35.4497 3.5406 35.2757 2.57678 34.9276C1.29169 34.4457 0.649148 33.7095 0.649148 32.7189C0.649148 31.2196 2.08149 30.47 4.94616 30.47C6.82025 30.47 9.73847 31.2464 13.7008 32.7992C18.0648 30.3361 22.4823 25.9052 26.9533 19.5066L27.877 18.1813C27.4486 16.8159 27.2344 15.3568 27.2344 13.804C27.2344 10.4574 28.2116 7.4321 30.166 4.72806C32.174 1.91693 34.5166 0.511362 37.1938 0.511362C38.2915 0.511362 39.349 0.966497 40.3664 1.87677C41.9995 3.29572 42.8161 5.51785 42.8161 8.54316ZM41.772 8.78412C41.772 5.81235 41.0223 3.68392 39.5231 2.39883C38.6128 1.62243 37.6891 1.23422 36.7521 1.23422C34.3961 1.261 32.4149 2.67995 30.8086 5.49108C29.3896 7.98094 28.6801 10.685 28.6801 13.6032C28.6801 14.5938 28.7738 15.5576 28.9612 16.4946C29.5502 15.3166 30.4873 13.6166 31.7724 11.3945C31.933 11.1803 32.1472 11.0732 32.4149 11.0732C32.9772 11.0732 33.2583 11.274 33.2583 11.6756L32.2944 13.2819C31.3574 14.8347 30.3534 16.4009 29.2825 17.9805C30.3802 22.0767 32.4417 24.7272 35.467 25.932C39.6703 20.4704 41.772 14.7544 41.772 8.78412ZM35.1056 26.3738C31.9464 25.1958 29.6841 22.8799 28.3187 19.4263C25.2934 23.2012 23.1917 25.7044 22.0137 26.936C19.5507 29.5329 16.9939 31.5677 14.3434 33.0402C16.8868 34.004 18.7073 34.4859 19.805 34.4859C25.6682 34.4859 30.7684 31.7818 35.1056 26.3738ZM12.5362 33.3614C11.0369 32.826 9.53767 32.2905 8.03841 31.7551C6.40527 31.2464 5.13357 30.992 4.2233 30.992C3.28626 30.992 2.49646 31.1928 1.85392 31.5944C1.34524 31.9157 1.0909 32.2236 1.0909 32.5181C1.0909 33.2945 1.66651 33.9103 2.81773 34.3654C3.70123 34.7135 4.62489 34.8875 5.58871 34.8875C8.05179 34.8875 10.3676 34.3788 12.5362 33.3614ZM38.5056 32.0362C38.7198 32.0362 39.2418 31.8488 40.0718 31.474C41.5443 30.7779 42.8428 29.9479 43.9672 28.9841C45.1184 27.9935 46.0957 26.9761 46.8988 25.932C47.3004 25.5304 47.5949 25.3296 47.7823 25.3296C48.1304 25.3296 48.3044 25.5037 48.3044 25.8517C48.3044 26.0659 48.2107 26.3068 48.0233 26.5746C46.4169 28.9841 45.6137 30.5503 45.6137 31.2732C45.6137 31.9425 45.9216 32.2771 46.5374 32.2771C47.4744 32.2771 49.1745 31.4338 51.6376 29.7471C51.6911 29.6936 51.8116 29.5999 51.999 29.466C52.2132 29.3321 52.3605 29.2652 52.4408 29.2652C52.5211 29.2652 52.5613 29.3188 52.5613 29.4258C52.5613 29.5865 52.3605 29.8007 51.9589 30.0684C48.6391 32.2905 46.4169 33.4016 45.2925 33.4016C44.5428 33.4016 44.168 32.9732 44.168 32.1165C44.168 31.8488 44.1948 31.5677 44.2483 31.2732C44.3287 30.9519 44.409 30.6708 44.4893 30.4298C44.5964 30.1889 44.6767 29.9881 44.7302 29.8274C44.8106 29.6668 44.8507 29.5999 44.8507 29.6266C44.8507 29.5196 44.8106 29.466 44.7302 29.466C44.5964 29.466 44.3153 29.6266 43.8869 29.9479C43.4853 30.2692 42.816 30.6976 41.879 31.233C41.4238 31.4472 41.0088 31.6614 40.634 31.8755C40.2592 32.0897 39.8978 32.2905 39.5497 32.4779C39.2017 32.6653 38.867 32.8126 38.5458 32.9197C38.2245 33.0268 37.8898 33.0669 37.5418 33.0402C37.167 33.0134 36.8323 32.9331 36.5378 32.7992C36.2165 32.6386 36.0559 32.3039 36.0559 31.7952C36.0559 31.5007 36.1362 31.2464 36.2969 31.0322C36.4307 30.818 36.578 30.7109 36.7386 30.7109C36.8725 30.7109 36.9796 30.7779 37.0599 30.9117C37.1402 31.0456 37.2339 31.2062 37.341 31.3936C37.4481 31.5543 37.5686 31.7015 37.7024 31.8354C37.8363 31.9693 38.0237 32.0362 38.2646 32.0362H38.5056ZM60.1356 28.703C60.5372 28.3014 60.8317 28.1006 61.0191 28.1006C61.3672 28.1006 61.5412 28.2746 61.5412 28.6227C61.5412 28.8368 61.4475 29.0778 61.2601 29.3455C60.9388 29.8274 60.6711 30.2558 60.4569 30.6306C60.2427 30.9787 60.1088 31.2732 60.0553 31.5141C60.0018 31.7551 60.0553 31.9425 60.2159 32.0763C60.3766 32.2102 60.6845 32.2771 61.1396 32.2771C62.0766 32.2771 63.7767 31.4338 66.2398 29.7471C66.2933 29.6936 66.4138 29.5999 66.6012 29.466C66.8154 29.3321 66.9626 29.2652 67.043 29.2652C67.1233 29.2652 67.1634 29.3188 67.1634 29.4258C67.1634 29.5865 66.9626 29.8007 66.5611 30.0684C63.2412 32.2905 61.0191 33.4016 59.8947 33.4016C59.145 33.4016 58.7702 32.9732 58.7702 32.1165C58.7702 31.7417 58.8238 31.3803 58.9308 31.0322C59.0379 30.6842 59.145 30.4031 59.2521 30.1889C59.0647 30.1889 58.8773 30.1755 58.6899 30.1487C58.5293 30.1219 58.3552 30.0952 58.1678 30.0684C57.6859 30.4164 57.1371 30.7779 56.5213 31.1527C55.9055 31.5007 55.2898 31.822 54.674 32.1165C54.0582 32.411 53.4692 32.652 52.907 32.8394C52.3715 33 51.9298 33.0669 51.5817 33.0402C51.2069 33.0134 50.8723 32.9331 50.5778 32.7992C50.2565 32.6386 50.0959 32.3039 50.0959 31.7952C50.0959 31.5007 50.1762 31.2464 50.3368 31.0322C50.4707 30.818 50.6179 30.7109 50.7786 30.7109C50.9124 30.7109 51.0195 30.7779 51.0998 30.9117C51.1802 31.0456 51.2739 31.2062 51.381 31.3936C51.488 31.5543 51.6085 31.7015 51.7424 31.8354C51.8762 31.9693 52.0637 32.0362 52.3046 32.0362H52.5456C52.6259 32.0362 52.7865 31.996 53.0275 31.9157C53.2952 31.8354 53.6566 31.6881 54.1118 31.474C54.7811 31.1527 55.3835 30.885 55.9189 30.6708C56.4544 30.4298 56.9497 30.1621 57.4048 29.8676C56.8961 29.7605 56.4142 29.5865 55.9591 29.3455C55.3165 29.0243 55.0354 28.4353 55.1157 27.5785C55.1693 26.9895 55.4102 26.5076 55.8386 26.1328C56.267 25.758 56.7489 25.4903 57.2843 25.3296C57.8466 25.169 58.3954 25.1288 58.9308 25.2092C59.4931 25.2627 59.9214 25.4501 60.2159 25.7714C60.5104 26.0659 60.6175 26.4809 60.5372 27.0163C60.4837 27.5518 60.1088 28.2211 59.4128 29.0243C59.3324 29.1046 59.2387 29.1983 59.1316 29.3054C59.0513 29.3857 58.9442 29.466 58.8104 29.5463L59.4931 29.7471C59.5198 29.6936 59.5734 29.6133 59.6537 29.5062C59.734 29.3723 59.8143 29.2518 59.8947 29.1447C59.975 29.0109 60.0419 28.9038 60.0955 28.8235C60.149 28.7431 60.1624 28.703 60.1356 28.703ZM59.3726 27.94C59.4529 27.8061 59.5198 27.6856 59.5734 27.5785C59.6537 27.4714 59.7206 27.351 59.7742 27.2171C59.8545 27.0029 59.8947 26.7754 59.8947 26.5344C59.9214 26.2934 59.8411 26.0659 59.6537 25.8517C59.4128 25.584 59.0112 25.5304 58.4489 25.6911C57.9135 25.8249 57.4316 26.0793 57.0032 26.4541C56.5748 26.8289 56.2937 27.2706 56.1599 27.7793C56.0528 28.2612 56.2937 28.6896 56.8827 29.0644L58.0875 29.3857C58.3017 29.1983 58.5159 28.9841 58.73 28.7431C58.9442 28.5022 59.1584 28.2345 59.3726 27.94ZM78.9372 33.0402C78.4553 33.2008 77.9868 33.3347 77.5317 33.4417C77.1033 33.5488 76.7017 33.6024 76.3269 33.6024C75.9789 33.6024 75.671 33.5355 75.4033 33.4016C75.1623 33.2677 75.0017 33.0268 74.9213 32.6787C74.841 32.411 74.9213 32.0763 75.1623 31.6748C75.43 31.2464 75.7647 30.8046 76.1663 30.3495C76.5679 29.8944 76.9828 29.4392 77.4112 28.9841C77.8663 28.5022 78.2545 28.0738 78.5758 27.699C78.9239 27.2974 79.1648 26.9761 79.2987 26.7352C79.4593 26.4675 79.4192 26.3068 79.1782 26.2533C79.0443 26.0927 78.7632 26.1462 78.3349 26.4139C77.9333 26.6816 77.4514 27.0431 76.8891 27.4982C76.3269 27.9534 75.7245 28.4353 75.082 28.9439C74.4662 29.4526 73.8906 29.8542 73.3551 30.1487H73.315C73.2614 30.1487 73.2079 30.0952 73.1543 29.9881C73.1276 29.881 73.1142 29.8007 73.1142 29.7471C73.7567 29.3188 74.4261 28.8235 75.1221 28.2612C75.8182 27.699 76.4742 27.1636 77.0899 26.6549C77.7325 26.1462 78.2947 25.7178 78.7766 25.3698C79.2585 25.0217 79.6199 24.8477 79.8609 24.8477C80.1822 24.7942 80.4365 24.8879 80.6239 25.1288C80.8381 25.343 80.972 25.5438 81.0255 25.7312C81.1058 26.1864 80.9452 26.6683 80.5436 27.1769C80.1688 27.6856 79.5396 28.3416 78.6561 29.1447C78.201 29.5463 77.786 29.9881 77.4112 30.47C77.0364 30.9251 76.7687 31.3401 76.608 31.7149C76.4474 32.063 76.434 32.3441 76.5679 32.5583C76.7017 32.7457 77.0498 32.7858 77.612 32.6787C78.1742 32.6787 78.6829 32.6252 79.138 32.5181C79.5932 32.3842 80.0483 32.2102 80.5034 31.996C80.9854 31.7551 81.494 31.474 82.0295 31.1527C82.5917 30.8046 83.2476 30.4164 83.9973 29.9881C84.0508 29.9613 84.091 29.9345 84.1178 29.9078C84.1445 29.881 84.1847 29.8676 84.2382 29.8676C84.265 29.8676 84.2784 29.9613 84.2784 30.1487C84.2784 30.3093 84.2115 30.4031 84.0776 30.4298C83.4886 30.8314 83.0067 31.1527 82.6319 31.3936C82.2571 31.6346 81.8956 31.8354 81.5476 31.996C81.2263 32.1567 80.8649 32.3173 80.4633 32.4779C80.0885 32.6118 79.5798 32.7992 78.9372 33.0402ZM95.1791 29.9479C95.1791 30.055 95.0452 30.2156 94.7775 30.4298C93.5995 31.4204 92.4081 31.9157 91.2033 31.9157C90.4537 31.9157 89.8111 31.7149 89.2757 31.3133C88.0441 32.9197 86.7055 33.7229 85.2598 33.7229C84.1889 33.7229 83.6534 33.0535 83.6534 31.7149C83.6534 29.9747 84.5101 28.2211 86.2236 26.4541C87.6693 24.9816 88.7268 24.2453 89.3962 24.2453C89.8245 24.2453 90.0387 24.3792 90.0387 24.6469C90.0387 24.7272 89.9584 24.8343 89.7977 24.9682C89.1552 25.1021 88.2851 25.7848 87.1874 27.0163C85.8488 28.5156 85.1795 29.9613 85.1795 31.3535C85.1795 32.2638 85.5007 32.7189 86.1433 32.7189C87.0803 32.7189 88.0308 32.17 88.9946 31.0724C88.4859 30.5101 88.2315 29.8141 88.2315 28.9841C88.2315 28.0203 88.4725 27.1903 88.9544 26.4942C89.3828 25.9052 89.8379 25.6107 90.3198 25.6107C90.8017 25.6107 91.0828 25.9454 91.1632 26.6147C91.1632 27.7927 90.7482 29.0644 89.9182 30.4298C90.3734 30.9385 90.9891 31.1928 91.7655 31.1928C92.8097 31.1928 93.827 30.7645 94.8176 29.9078C94.8979 29.8274 94.9783 29.7873 95.0586 29.7873C95.1389 29.7873 95.1791 29.8408 95.1791 29.9479ZM90.7616 26.8557C90.7616 26.5879 90.6679 26.4541 90.4805 26.4541C90.2395 26.4541 89.9852 26.6683 89.7174 27.0966C89.4497 27.525 89.3158 28.0738 89.3158 28.7431C89.3158 29.3054 89.4363 29.7739 89.6773 30.1487C90.4001 29.0243 90.7616 27.9266 90.7616 26.8557ZM103.872 29.9479C103.872 30.055 103.671 30.2692 103.27 30.5905C102.199 31.2865 101.141 31.9826 100.097 32.6787C98.5709 33.589 97.326 34.0441 96.3622 34.0441C95.8 34.0441 95.3047 33.8433 94.8763 33.4417C94.4479 33.0402 94.2338 32.585 94.2338 32.0763C94.2338 30.3093 95.0905 28.6896 96.8039 27.2171C98.33 25.9052 99.7489 25.2493 101.061 25.2493C101.891 25.2493 102.306 25.584 102.306 26.2533C102.306 26.6281 101.757 27.3644 100.659 28.462C100.552 28.5691 100.432 28.6227 100.298 28.6227C100.084 28.6227 99.9765 28.5022 99.9765 28.2612C99.9765 28.1541 100.017 28.0738 100.097 28.0203C100.177 27.94 100.338 27.6455 100.579 27.1368C100.82 26.6013 100.94 26.1997 100.94 25.932C100.94 25.8517 100.847 25.8115 100.659 25.8115C99.9899 25.8115 99.0127 26.3604 97.7276 27.4581C96.1748 28.7699 95.3984 30.1219 95.3984 31.5141C95.3984 32.5315 95.8401 33.0402 96.7236 33.0402C98.089 33.0402 100.164 32.1165 102.948 30.2692C103.082 30.1621 103.27 30.0416 103.51 29.9078C103.591 29.8274 103.671 29.7873 103.751 29.7873C103.832 29.7873 103.872 29.8408 103.872 29.9479ZM128.082 29.9479C128.082 30.1086 127.881 30.3227 127.479 30.5905C125.578 31.8755 124.521 32.585 124.307 32.7189C123.102 33.4417 122.098 33.8032 121.295 33.8032C120.84 33.8032 120.451 33.6425 120.13 33.3213C119.836 33 119.688 32.6118 119.688 32.1567C119.688 30.818 120.545 28.9038 122.258 26.4139C122.392 26.2265 122.459 26.106 122.459 26.0525C122.459 26.0257 122.446 26.0123 122.419 26.0123C122.312 26.0123 122.125 26.106 121.857 26.2934C120.358 27.4179 118.698 28.6628 116.877 30.0282C116.101 30.6976 114.963 31.6346 113.464 32.8394C113.249 33 112.955 33.1472 112.58 33.2811C112.393 33.2811 112.299 33.1472 112.299 32.8795C112.299 32.3441 112.741 31.4873 113.624 30.3093C114.535 29.1046 114.99 28.2612 114.99 27.7793C114.99 27.3242 114.776 27.0966 114.347 27.0966C113.705 27.0966 112.42 27.9667 110.492 29.707C109.18 30.885 108.029 32.0228 107.038 33.1205C106.663 33.5221 106.369 33.7229 106.155 33.7229C105.807 33.7229 105.633 33.5355 105.633 33.1606C105.633 33.0535 105.726 32.7858 105.914 32.3575C106.556 31.474 107.185 30.5905 107.801 29.707C108.738 28.3683 109.207 27.4179 109.207 26.8557C109.207 26.6147 109.126 26.4942 108.966 26.4942C108.886 26.4942 108.725 26.5478 108.484 26.6549C107.119 27.6722 105.177 29.118 102.661 30.992H102.38C102.192 30.992 102.099 30.9653 102.099 30.9117C102.099 30.8314 102.246 30.6976 102.54 30.5101C104.414 29.0376 106.489 27.4447 108.765 25.7312C109.086 25.4635 109.501 25.3296 110.01 25.3296C110.545 25.3296 110.813 25.5706 110.813 26.0525C110.813 26.1596 110.786 26.3202 110.733 26.5344C110.197 27.4714 109.515 28.6628 108.685 30.1086C108.578 30.296 108.524 30.4164 108.524 30.47C108.524 30.4968 108.551 30.5101 108.604 30.5101L108.725 30.47C109.715 29.6133 110.706 28.7565 111.697 27.8998C113.223 26.6147 114.32 25.9722 114.99 25.9722C115.873 25.9722 116.315 26.2533 116.315 26.8155C116.315 27.2974 116.047 28.0337 115.512 29.0243C115.003 29.9881 114.749 30.5101 114.749 30.5905C114.749 30.6708 114.776 30.7109 114.829 30.7109C114.936 30.7109 115.124 30.6172 115.391 30.4298L123.744 24.1249C124.012 23.9107 124.293 23.8036 124.588 23.8036C124.775 23.8036 124.909 23.8437 124.989 23.9241C125.07 23.9776 125.11 24.0847 125.11 24.2453C125.11 24.4327 125.056 24.5934 124.949 24.7272C124.199 25.7982 123.436 26.8824 122.66 27.9801C121.75 29.3723 121.295 30.5771 121.295 31.5944C121.295 32.237 121.643 32.5449 122.339 32.5181C123.169 32.4913 124.106 32.1567 125.15 31.5141C126.007 30.9787 126.863 30.4432 127.72 29.9078C127.8 29.8274 127.881 29.7873 127.961 29.7873C128.041 29.7873 128.082 29.8408 128.082 29.9479ZM137.499 29.9479C137.499 30.1353 136.951 30.5771 135.853 31.2732C133.149 32.9866 131.208 33.8433 130.03 33.8433C128.29 33.8433 127.42 32.826 127.42 30.7913C127.42 29.292 128.142 27.7927 129.588 26.2934C131.061 24.7674 132.453 24.0044 133.765 24.0044C134.166 24.0044 134.367 24.1918 134.367 24.5666C134.367 25.4769 133.577 26.762 131.998 28.4219C130.739 29.7337 129.709 30.6306 128.905 31.1125C128.986 32.2905 129.548 32.8795 130.592 32.8795C131.583 32.8795 133.243 32.2102 135.572 30.8716C135.759 30.7645 136.281 30.4432 137.138 29.9078C137.218 29.8274 137.299 29.7873 137.379 29.7873C137.459 29.7873 137.499 29.8408 137.499 29.9479ZM133.122 25.3296C133.122 25.0084 133.028 24.8477 132.841 24.8477C132.172 24.8477 131.355 25.517 130.391 26.8557C129.427 28.1943 128.932 29.3991 128.905 30.47C129.414 30.3093 130.217 29.6133 131.315 28.3817C132.52 27.0431 133.122 26.0257 133.122 25.3296ZM150.486 29.9479C150.486 30.1086 150.285 30.3227 149.883 30.5905C146.59 32.8126 144.368 33.9237 143.217 33.9237C142.467 33.9237 142.093 33.4953 142.093 32.6386C142.093 32.1567 142.186 31.6748 142.374 31.1928C142.641 30.5235 142.775 30.1755 142.775 30.1487C142.775 30.0416 142.735 29.9881 142.655 29.9881C142.628 29.9881 142.561 30.0148 142.454 30.0684C141.865 30.6574 141.008 31.3669 139.884 32.1968C138.438 33.2677 137.434 33.8032 136.872 33.8032C136.229 33.8032 135.908 33.4819 135.908 32.8394C135.908 32.4645 136.377 31.4338 137.314 29.7471C138.251 28.0337 138.719 27.0431 138.719 26.7754C138.719 26.4809 138.478 26.3336 137.996 26.3336C137.889 26.3336 137.836 26.173 137.836 25.8517C138.077 25.7714 138.331 25.7312 138.599 25.7312C139.536 25.7312 140.004 25.9989 140.004 26.5344C140.004 27.1234 139.589 28.114 138.759 29.5062C137.929 30.8983 137.515 31.7685 137.515 32.1165C137.515 32.3307 137.608 32.4378 137.796 32.4378C138.224 32.4378 139.268 31.7283 140.928 30.3093C142.615 28.8904 143.913 27.6053 144.823 26.4541C145.225 26.0525 145.52 25.8517 145.707 25.8517C146.055 25.8517 146.229 26.0257 146.229 26.3738C146.229 26.5612 146.135 26.8021 145.948 27.0966C144.342 29.5062 143.538 31.0724 143.538 31.7952C143.538 32.4645 143.846 32.7992 144.462 32.7992C145.399 32.7992 147.099 31.9559 149.562 30.2692C149.696 30.1621 149.883 30.0416 150.124 29.9078C150.205 29.8274 150.285 29.7873 150.365 29.7873C150.446 29.7873 150.486 29.8408 150.486 29.9479ZM148.679 19.5467C148.679 19.7877 148.183 20.1625 147.193 20.6712C145.694 21.4476 144.368 22.3712 143.217 23.4422C143.164 23.4422 143.137 23.3752 143.137 23.2414C143.137 23.0807 143.164 22.9736 143.217 22.9201C143.592 22.465 143.98 22.0232 144.382 21.5948C144.783 21.1397 145.171 20.6846 145.546 20.2294C146.617 19.0782 147.434 18.5026 147.996 18.5026H148.076C148.478 18.6365 148.679 18.9176 148.679 19.3459V19.5467Z" fill="#AA9A6E"></path></svg> 