<?xml version="1.0" encoding="UTF-8"?> <svg xmlns="http://www.w3.org/2000/svg" width="200" height="24" viewBox="0 0 200 24" fill="none"><path d="M34.5625 3.125C34.5625 2.84375 34.276 2.70312 33.7031 2.70312C33.3594 2.70312 32.6562 3.17188 31.5938 4.10938L29.3906 6.0625C28.2344 7.07292 27.0625 8.15625 25.875 9.3125C24.6979 10.4688 23.4844 11.7188 22.2344 13.0625C21.9323 13.375 21.5104 13.8438 20.9688 14.4688C21.0938 14.7708 21.1562 15.25 21.1562 15.9062C21.1562 17.1146 20.9635 18.2969 20.5781 19.4531C21.9427 17.651 23.4375 15.7812 25.0625 13.8438C26.6875 11.9062 28.4688 9.88021 30.4062 7.76562C31.2917 6.84896 32.5833 5.47917 34.2812 3.65625C34.4688 3.4375 34.5625 3.26042 34.5625 3.125ZM20.4062 14.2344C20.0938 13.6094 19.6719 13.2969 19.1406 13.2969C18.651 13.2969 18.2708 13.6979 18 14.5C17.8125 15.0833 17.7188 15.6823 17.7188 16.2969C17.7188 16.3906 17.7188 16.4844 17.7188 16.5781C17.7188 16.6719 17.724 16.7656 17.7344 16.8594C18.5885 16.0677 19.4792 15.1927 20.4062 14.2344ZM20.7344 16.1562C20.7344 15.7083 20.7031 15.3333 20.6406 15.0312C20.6198 14.9896 20.6042 14.9271 20.5938 14.8438C20.2083 15.2604 19.7865 15.6979 19.3281 16.1562C18.8802 16.6146 18.3854 17.1042 17.8438 17.625C17.9375 18.2396 18.1406 18.8125 18.4531 19.3438C18.849 20 19.2917 20.3906 19.7812 20.5156C20.0208 20.1719 20.25 19.474 20.4688 18.4219C20.5521 17.9427 20.6146 17.5156 20.6562 17.1406C20.7083 16.7656 20.7344 16.4375 20.7344 16.1562ZM7.32812 23.25C6.26562 23.25 5.29167 23.1406 4.40625 22.9219C3.53125 22.6927 2.77604 22.3646 2.14062 21.9375C1.51562 21.5 1.03125 20.9792 0.6875 20.375C0.34375 19.7604 0.171875 19.0729 0.171875 18.3125C0.171875 17.8333 0.260417 17.3385 0.4375 16.8281C0.614583 16.3177 0.864583 15.8177 1.1875 15.3281C1.52083 14.8385 1.92708 14.3802 2.40625 13.9531C2.88542 13.5156 3.43229 13.1354 4.04688 12.8125C4.67188 12.4896 5.35417 12.2396 6.09375 12.0625C6.84375 11.875 7.65104 11.7812 8.51562 11.7812C9.32812 11.7812 10.0208 11.8906 10.5938 12.1094C11.1667 12.3281 11.6354 12.6146 12 12.9688C12.375 13.3125 12.6458 13.7083 12.8125 14.1562C12.9792 14.6042 13.0625 15.0573 13.0625 15.5156C13.0625 16.0469 12.9427 16.5938 12.7031 17.1562C12.474 17.7188 12.125 18.2344 11.6562 18.7031C11.1979 19.1615 10.6198 19.5365 9.92188 19.8281C9.22396 20.1198 8.41146 20.2656 7.48438 20.2656C7.17188 20.2656 6.86458 20.2396 6.5625 20.1875C6.27083 20.125 6 20.0573 5.75 19.9844C5.5 19.9115 5.28125 19.8385 5.09375 19.7656C4.90625 19.6927 4.76042 19.6406 4.65625 19.6094C4.65625 19.5365 4.67708 19.4583 4.71875 19.375C4.77083 19.2917 4.85417 19.2552 4.96875 19.2656C5.03125 19.2656 5.10938 19.2708 5.20312 19.2812C5.30729 19.2917 5.49479 19.2969 5.76562 19.2969C6.65104 19.2969 7.50521 19.2292 8.32812 19.0938C9.15104 18.9479 9.88021 18.7188 10.5156 18.4062C11.151 18.0833 11.6615 17.6667 12.0469 17.1562C12.4323 16.6354 12.625 16.0052 12.625 15.2656C12.625 14.8281 12.526 14.4271 12.3281 14.0625C12.1302 13.6979 11.8542 13.3854 11.5 13.125C11.1458 12.8646 10.724 12.6667 10.2344 12.5312C9.74479 12.3854 9.21354 12.3125 8.64062 12.3125C8.19271 12.3125 7.68229 12.3646 7.10938 12.4688C6.54688 12.5729 5.97396 12.7344 5.39062 12.9531C4.80729 13.1615 4.23958 13.4323 3.6875 13.7656C3.13542 14.0885 2.64062 14.4688 2.20312 14.9062C1.76562 15.3438 1.41146 15.8438 1.14062 16.4062C0.880208 16.9688 0.75 17.5885 0.75 18.2656C0.739583 18.9531 0.875 19.5417 1.15625 20.0312C1.4375 20.5104 1.79167 20.9167 2.21875 21.25C2.65625 21.5729 3.13542 21.8333 3.65625 22.0312C4.1875 22.2188 4.70312 22.3646 5.20312 22.4688C5.70312 22.5625 6.15625 22.625 6.5625 22.6562C6.96875 22.6771 7.26562 22.6875 7.45312 22.6875C9.02604 22.6875 10.7292 22.1198 12.5625 20.9844C13.6875 20.2969 15.1458 19.1719 16.9375 17.6094C16.875 17.2656 16.8438 16.8958 16.8438 16.5C16.8438 14.8229 17.3177 13.7188 18.2656 13.1875C18.5677 13.0104 18.8594 12.9219 19.1406 12.9219C19.8177 12.9219 20.3438 13.25 20.7188 13.9062C22.4375 12.0833 23.7969 10.6458 24.7969 9.59375C25.7969 8.54167 26.4323 7.88021 26.7031 7.60938C29.0573 5.27604 31.2812 3.41667 33.375 2.03125C34.8646 1.04167 35.8958 0.546875 36.4688 0.546875C36.8333 0.546875 37.0156 0.71875 37.0156 1.0625C37.0156 1.39583 36.7292 1.92708 36.1562 2.65625L28.0469 12.9219C27.5781 13.526 26.8281 14.5 25.7969 15.8438C24.776 17.1771 23.4688 18.901 21.875 21.0156C22.8229 21.0156 23.7604 20.75 24.6875 20.2188C25.6042 19.6875 26.0052 19.4219 25.8906 19.4219C25.9323 19.4219 25.9792 19.4375 26.0312 19.4688C26.0417 19.4792 26.0469 19.4896 26.0469 19.5C26.0469 19.5104 26.0521 19.526 26.0625 19.5469C26.0625 19.6094 26.0208 19.6823 25.9375 19.7656C24.8229 20.8281 23.5625 21.3594 22.1562 21.3594C21.9688 21.3594 21.7917 21.3438 21.625 21.3125L20.3125 23.0938L18.0781 23.2031V22.8594L19.5625 20.7969C18.2708 20.2344 17.4479 19.401 17.0938 18.2969C16.4688 18.8594 15.8229 19.3906 15.1562 19.8906C14.5 20.3906 13.8125 20.8646 13.0938 21.3125C11.3333 22.4062 9.81771 23.026 8.54688 23.1719C8.33854 23.1927 8.13021 23.2083 7.92188 23.2188C7.72396 23.2396 7.52604 23.25 7.32812 23.25ZM41.1875 8.79688C41.1875 11.0573 39.4271 14.0625 35.9062 17.8125C35.0625 18.6146 33.8073 19.8281 32.1406 21.4531C32.6615 21.1406 33.1042 20.8594 33.4688 20.6094C33.7083 20.3698 34.0938 20.0573 34.625 19.6719C34.6562 19.6094 34.7031 19.5469 34.7656 19.4844C34.8802 19.5052 34.9375 19.5677 34.9375 19.6719C34.9375 19.7031 34.9115 19.7396 34.8594 19.7812C31.8698 22.125 29.6198 23.2969 28.1094 23.2969C26.9323 23.2969 26.3438 22.7969 26.3438 21.7969C26.3438 20.599 27.3125 19.224 29.25 17.6719C28.75 17.9531 28.1719 18.3281 27.5156 18.7969C26.9427 19.2031 26.3802 19.5573 25.8281 19.8594C25.776 19.8594 25.7188 19.7969 25.6562 19.6719C25.6562 19.6302 25.6875 19.5885 25.75 19.5469C25.9896 19.3802 26.875 18.8125 28.4062 17.8438C28.9271 17.5104 29.8333 17.0417 31.125 16.4375C31.9792 16.0417 32.6615 15.8438 33.1719 15.8438C34.1198 15.8438 34.5938 16.2448 34.5938 17.0469C34.5938 17.6927 34.3594 18.4271 33.8906 19.25C35.026 18.2292 35.8698 17.4167 36.4219 16.8125C38.5469 14.4479 39.9219 12.3385 40.5469 10.4844C40.6823 10.0677 40.75 9.50521 40.75 8.79688C40.75 7.46354 40.1198 6.79688 38.8594 6.79688C37.849 6.79688 36.7812 7.5 35.6562 8.90625C34.5729 10.2604 34.0312 11.4583 34.0312 12.5C34.0312 13.1146 34.375 13.4219 35.0625 13.4219C35.5625 13.4219 36.0938 13.1302 36.6562 12.5469C37.1354 12.0469 37.4948 11.5208 37.7344 10.9688C37.9115 10.5417 38.099 10.0521 38.2969 9.5C38.401 9.22917 38.4531 9.01042 38.4531 8.84375C38.4531 8.60417 38.3646 8.42188 38.1875 8.29688C38.0104 8.16146 37.9219 8.08854 37.9219 8.07812C37.9219 7.95312 37.9688 7.88021 38.0625 7.85938C38.5625 7.93229 38.8125 8.32292 38.8125 9.03125C38.8125 10.0625 38.4427 11.0781 37.7031 12.0781C36.9115 13.1719 36.0156 13.7188 35.0156 13.7188C33.724 13.7188 33.0781 13.0156 33.0781 11.6094C33.0781 10.5781 33.4635 9.55729 34.2344 8.54688C34.9531 7.59896 35.8125 6.90104 36.8125 6.45312C37.2708 6.25521 37.8802 6.15625 38.6406 6.15625C38.9948 6.15625 39.401 6.25 39.8594 6.4375C40.7448 6.79167 41.1875 7.57812 41.1875 8.79688ZM34.125 17.2656C34.125 16.5885 33.9062 16.25 33.4688 16.25C32.7917 16.25 31.526 17.349 29.6719 19.5469C29.2135 20.0156 28.5781 20.7448 27.7656 21.7344C27.6094 21.9635 27.5312 22.1927 27.5312 22.4219C27.5312 22.8281 27.7917 23.0312 28.3125 23.0312C28.7292 23.0312 29.3802 22.7396 30.2656 22.1562C31.151 21.5729 31.9688 20.8646 32.7188 20.0312C33.6562 18.9792 34.125 18.0573 34.125 17.2656ZM45.3125 16.3594C45.3125 16.526 45.2031 16.7344 44.9844 16.9844L40.4688 21.9219C40.2917 22.1198 40.2031 22.2969 40.2031 22.4531C40.2031 22.599 40.2917 22.6719 40.4688 22.6719C40.8229 22.6719 41.5885 22.1458 42.7656 21.0938C43.9531 20.0312 44.5729 19.5 44.625 19.5C44.6771 19.5 44.724 19.526 44.7656 19.5781C44.776 19.599 44.7865 19.6354 44.7969 19.6875C44.7969 19.7396 44.7812 19.7812 44.75 19.8125L41.625 22.4844C41.0729 22.9635 40.5469 23.2031 40.0469 23.2031C39.2865 23.2031 38.9062 22.7865 38.9062 21.9531C38.9062 21.8594 38.9167 21.7604 38.9375 21.6562C38.6042 21.9896 38.125 22.3333 37.5 22.6875C36.7917 23.0938 36.2552 23.2969 35.8906 23.2969C35.1198 23.2969 34.7344 22.9167 34.7344 22.1562C34.7344 20.8646 35.7188 19.474 37.6875 17.9844C36.8125 18.5677 35.8542 19.1771 34.8125 19.8125C34.7083 19.7708 34.6562 19.7083 34.6562 19.625C34.6562 19.5833 34.6823 19.5417 34.7344 19.5C35.5156 18.8646 36.6146 18.1719 38.0312 17.4219C39.6354 16.5781 40.7865 16.1562 41.4844 16.1562C42.0573 16.1562 42.3438 16.401 42.3438 16.8906C42.3438 16.9531 42.3229 17.0521 42.2812 17.1875C42.2396 17.3125 42.2188 17.4115 42.2188 17.4844L42.2031 17.625H42.2188L42.3125 17.5781C42.5938 17.2552 42.875 16.9323 43.1562 16.6094C43.3854 16.401 43.7656 16.2812 44.2969 16.25C44.9115 16.2083 45.1823 16.1875 45.1094 16.1875C45.2448 16.1875 45.3125 16.2448 45.3125 16.3594ZM41.9375 16.7812C41.9375 16.6458 41.8646 16.5781 41.7188 16.5781C41.2396 16.5781 40.1198 17.5365 38.3594 19.4531C36.651 21.3177 35.7969 22.4062 35.7969 22.7188C35.7969 22.875 35.901 22.9531 36.1094 22.9531C36.3177 22.9531 36.7083 22.7812 37.2812 22.4375C38.2396 21.8438 39.0469 21.1771 39.7031 20.4375C40.1927 19.9375 40.8438 19.1354 41.6562 18.0312C41.8438 17.6875 41.9375 17.2708 41.9375 16.7812ZM58.9688 16.2969C58.9688 16.4844 58.8646 16.6927 58.6562 16.9219L54.1406 21.8906C53.9635 22.0885 53.875 22.2656 53.875 22.4219C53.875 22.5573 53.9479 22.625 54.0938 22.625C54.4896 22.625 55.25 22.1094 56.375 21.0781C57.5 20.0365 58.0833 19.5156 58.125 19.5156C58.2188 19.5156 58.2812 19.5885 58.3125 19.7344C58.2604 19.8594 57.2552 20.7552 55.2969 22.4219C54.7031 22.9219 54.1719 23.1719 53.7031 23.1719C52.9427 23.1719 52.5625 22.7448 52.5625 21.8906C52.5625 21.5365 52.6979 21.2031 52.9688 20.8906L54.625 18.9688C54.4688 19.1042 53.7292 19.7969 52.4062 21.0469C51.5 21.8906 50.7135 22.5156 50.0469 22.9219C49.776 23.0885 49.4635 23.1719 49.1094 23.1719C48.3698 23.1719 48 22.7396 48 21.875C48 21.5208 48.1354 21.1927 48.4062 20.8906L51.6875 17.0781C50.1354 17.974 48.2448 19.75 46.0156 22.4062C45.6302 22.8646 45.1927 23.0938 44.7031 23.0938C44.276 23.0938 44.0625 22.8646 44.0625 22.4062C44.0625 21.25 44.4688 20.6719 45.2812 20.6719C45.8021 20.6719 46.0625 20.9323 46.0625 21.4531C46.0625 21.5156 46.0469 21.6615 46.0156 21.8906C46.1719 21.7031 46.4062 21.4219 46.7188 21.0469C46.9688 20.7448 47.3385 20.3073 47.8281 19.7344C48.9323 18.5677 50.1615 17.5885 51.5156 16.7969C51.8073 16.6094 52.2031 16.4115 52.7031 16.2031L54.2188 16.1406C54.3646 16.1302 54.4375 16.1823 54.4375 16.2969C54.4375 16.4635 54.3229 16.6719 54.0938 16.9219L49.625 21.8438C49.4688 22.0312 49.3906 22.2135 49.3906 22.3906C49.3906 22.5781 49.5156 22.6719 49.7656 22.6719C50.0365 22.6719 50.7969 22.0938 52.0469 20.9375C52.8281 20.1979 53.6146 19.4635 54.4062 18.7344C54.7917 18.4427 55.3281 17.9844 56.0156 17.3594C56.1927 17.151 56.4531 16.8438 56.7969 16.4375C56.9323 16.2917 57.0885 16.2135 57.2656 16.2031L58.7656 16.1562C58.901 16.1562 58.9688 16.2031 58.9688 16.2969ZM78.6875 16.2812C78.6875 16.4792 78.5833 16.6875 78.375 16.9062L73.875 21.875C73.6875 22.0729 73.5938 22.25 73.5938 22.4062C73.5938 22.5312 73.6667 22.5938 73.8125 22.5938C74.1354 22.5938 74.6667 22.2917 75.4062 21.6875L78.0625 19.4844C78.0729 19.474 78.1146 19.4583 78.1875 19.4375C78.3021 19.4583 78.3594 19.5208 78.3594 19.625C78.3594 19.6562 78.3333 19.6927 78.2812 19.7344L75.0469 22.4062C74.4635 22.8854 73.9115 23.125 73.3906 23.125C72.651 23.125 72.2812 22.6979 72.2812 21.8438C72.2812 21.5312 72.6562 20.9271 73.4062 20.0312C72.5729 20.7708 71.3698 21.7292 69.7969 22.9062C69.5677 23.0521 69.2396 23.125 68.8125 23.125C68.1458 23.125 67.8125 22.7083 67.8125 21.875C67.8125 21.4792 67.9323 21.1406 68.1719 20.8594L70.9375 17.6719C69.0521 19.1094 68.099 19.8281 68.0781 19.8281C67.9635 19.8281 67.9062 19.7656 67.9062 19.6406C67.9062 19.599 67.9323 19.5625 67.9844 19.5312L72.1562 16.2969C72.2917 16.1927 72.8646 16.1406 73.875 16.1406C74.0729 16.1406 74.1719 16.1875 74.1719 16.2812C74.1719 16.4792 74.0729 16.6875 73.875 16.9062L69.9062 21.25C69.7708 21.3958 69.7031 21.5417 69.7031 21.6875C69.7031 21.8646 69.8333 21.9531 70.0938 21.9531C70.3646 21.9531 70.6302 21.8646 70.8906 21.6875C71.0677 21.5729 71.75 21.0208 72.9375 20.0312C74.125 19.0417 74.7656 18.5 74.8594 18.4062L76.5312 16.4375C76.6667 16.2708 76.8177 16.1875 76.9844 16.1875L78.5156 16.1406C78.6302 16.1406 78.6875 16.1875 78.6875 16.2812ZM122.625 3.125C122.625 2.84375 122.339 2.70312 121.766 2.70312C121.422 2.70312 120.719 3.17188 119.656 4.10938L117.453 6.0625C116.297 7.07292 115.125 8.15625 113.938 9.3125C112.76 10.4688 111.547 11.7188 110.297 13.0625C109.995 13.375 109.573 13.8438 109.031 14.4688C109.156 14.7708 109.219 15.25 109.219 15.9062C109.219 17.1146 109.026 18.2969 108.641 19.4531C110.005 17.651 111.5 15.7812 113.125 13.8438C114.75 11.9062 116.531 9.88021 118.469 7.76562C119.354 6.84896 120.646 5.47917 122.344 3.65625C122.531 3.4375 122.625 3.26042 122.625 3.125ZM108.469 14.2344C108.156 13.6094 107.734 13.2969 107.203 13.2969C106.714 13.2969 106.333 13.6979 106.062 14.5C105.875 15.0833 105.781 15.6823 105.781 16.2969C105.781 16.3906 105.781 16.4844 105.781 16.5781C105.781 16.6719 105.786 16.7656 105.797 16.8594C106.651 16.0677 107.542 15.1927 108.469 14.2344ZM108.797 16.1562C108.797 15.7083 108.766 15.3333 108.703 15.0312C108.682 14.9896 108.667 14.9271 108.656 14.8438C108.271 15.2604 107.849 15.6979 107.391 16.1562C106.943 16.6146 106.448 17.1042 105.906 17.625C106 18.2396 106.203 18.8125 106.516 19.3438C106.911 20 107.354 20.3906 107.844 20.5156C108.083 20.1719 108.312 19.474 108.531 18.4219C108.615 17.9427 108.677 17.5156 108.719 17.1406C108.771 16.7656 108.797 16.4375 108.797 16.1562ZM95.3906 23.25C94.3281 23.25 93.3542 23.1406 92.4688 22.9219C91.5938 22.6927 90.8385 22.3646 90.2031 21.9375C89.5781 21.5 89.0938 20.9792 88.75 20.375C88.4062 19.7604 88.2344 19.0729 88.2344 18.3125C88.2344 17.8333 88.3229 17.3385 88.5 16.8281C88.6771 16.3177 88.9271 15.8177 89.25 15.3281C89.5833 14.8385 89.9896 14.3802 90.4688 13.9531C90.9479 13.5156 91.4948 13.1354 92.1094 12.8125C92.7344 12.4896 93.4167 12.2396 94.1562 12.0625C94.9062 11.875 95.7135 11.7812 96.5781 11.7812C97.3906 11.7812 98.0833 11.8906 98.6562 12.1094C99.2292 12.3281 99.6979 12.6146 100.062 12.9688C100.438 13.3125 100.708 13.7083 100.875 14.1562C101.042 14.6042 101.125 15.0573 101.125 15.5156C101.125 16.0469 101.005 16.5938 100.766 17.1562C100.536 17.7188 100.188 18.2344 99.7188 18.7031C99.2604 19.1615 98.6823 19.5365 97.9844 19.8281C97.2865 20.1198 96.474 20.2656 95.5469 20.2656C95.2344 20.2656 94.9271 20.2396 94.625 20.1875C94.3333 20.125 94.0625 20.0573 93.8125 19.9844C93.5625 19.9115 93.3438 19.8385 93.1562 19.7656C92.9688 19.6927 92.8229 19.6406 92.7188 19.6094C92.7188 19.5365 92.7396 19.4583 92.7812 19.375C92.8333 19.2917 92.9167 19.2552 93.0312 19.2656C93.0938 19.2656 93.1719 19.2708 93.2656 19.2812C93.3698 19.2917 93.5573 19.2969 93.8281 19.2969C94.7135 19.2969 95.5677 19.2292 96.3906 19.0938C97.2135 18.9479 97.9427 18.7188 98.5781 18.4062C99.2135 18.0833 99.724 17.6667 100.109 17.1562C100.495 16.6354 100.688 16.0052 100.688 15.2656C100.688 14.8281 100.589 14.4271 100.391 14.0625C100.193 13.6979 99.9167 13.3854 99.5625 13.125C99.2083 12.8646 98.7865 12.6667 98.2969 12.5312C97.8073 12.3854 97.276 12.3125 96.7031 12.3125C96.2552 12.3125 95.7448 12.3646 95.1719 12.4688C94.6094 12.5729 94.0365 12.7344 93.4531 12.9531C92.8698 13.1615 92.3021 13.4323 91.75 13.7656C91.1979 14.0885 90.7031 14.4688 90.2656 14.9062C89.8281 15.3438 89.474 15.8438 89.2031 16.4062C88.9427 16.9688 88.8125 17.5885 88.8125 18.2656C88.8021 18.9531 88.9375 19.5417 89.2188 20.0312C89.5 20.5104 89.8542 20.9167 90.2812 21.25C90.7188 21.5729 91.1979 21.8333 91.7188 22.0312C92.25 22.2188 92.7656 22.3646 93.2656 22.4688C93.7656 22.5625 94.2188 22.625 94.625 22.6562C95.0312 22.6771 95.3281 22.6875 95.5156 22.6875C97.0885 22.6875 98.7917 22.1198 100.625 20.9844C101.75 20.2969 103.208 19.1719 105 17.6094C104.938 17.2656 104.906 16.8958 104.906 16.5C104.906 14.8229 105.38 13.7188 106.328 13.1875C106.63 13.0104 106.922 12.9219 107.203 12.9219C107.88 12.9219 108.406 13.25 108.781 13.9062C110.5 12.0833 111.859 10.6458 112.859 9.59375C113.859 8.54167 114.495 7.88021 114.766 7.60938C117.12 5.27604 119.344 3.41667 121.438 2.03125C122.927 1.04167 123.958 0.546875 124.531 0.546875C124.896 0.546875 125.078 0.71875 125.078 1.0625C125.078 1.39583 124.792 1.92708 124.219 2.65625L116.109 12.9219C115.641 13.526 114.891 14.5 113.859 15.8438C112.839 17.1771 111.531 18.901 109.938 21.0156C110.885 21.0156 111.823 20.75 112.75 20.2188C113.667 19.6875 114.068 19.4219 113.953 19.4219C113.995 19.4219 114.042 19.4375 114.094 19.4688C114.104 19.4792 114.109 19.4896 114.109 19.5C114.109 19.5104 114.115 19.526 114.125 19.5469C114.125 19.6094 114.083 19.6823 114 19.7656C112.885 20.8281 111.625 21.3594 110.219 21.3594C110.031 21.3594 109.854 21.3438 109.688 21.3125L108.375 23.0938L106.141 23.2031V22.8594L107.625 20.7969C106.333 20.2344 105.51 19.401 105.156 18.2969C104.531 18.8594 103.885 19.3906 103.219 19.8906C102.562 20.3906 101.875 20.8646 101.156 21.3125C99.3958 22.4062 97.8802 23.026 96.6094 23.1719C96.401 23.1927 96.1927 23.2083 95.9844 23.2188C95.7865 23.2396 95.5885 23.25 95.3906 23.25ZM125.078 16.3906C125.078 16.5573 124.964 16.7604 124.734 17L120.219 21.9531C120.031 22.1719 119.938 22.3542 119.938 22.5C119.938 22.625 120.016 22.6875 120.172 22.6875C120.234 22.6875 120.38 22.6562 120.609 22.5938C120.745 22.5625 121.792 21.7083 123.75 20.0312C123.927 19.8646 124.135 19.6823 124.375 19.4844C124.5 19.5156 124.562 19.5781 124.562 19.6719C124.552 19.6927 124.536 19.7135 124.516 19.7344C124.339 19.9323 123.984 20.2656 123.453 20.7344C122.984 21.1302 122.292 21.7188 121.375 22.5C120.812 22.9792 120.245 23.2188 119.672 23.2188C119.359 23.2188 119.104 23.0885 118.906 22.8281C118.719 22.5677 118.625 22.276 118.625 21.9531C118.625 21.6302 118.974 21.0573 119.672 20.2344C119.453 20.1615 119.12 20.125 118.672 20.125C118.182 20.125 117.74 20.1875 117.344 20.3125L115.188 22.8125C115.052 22.9688 114.901 23.0469 114.734 23.0469L113.219 23.125C113.062 23.1354 112.984 23.0781 112.984 22.9531C112.984 22.8073 113.109 22.599 113.359 22.3281L117.844 17.3906C118.021 17.1927 118.109 17.0156 118.109 16.8594C118.109 16.7969 118.089 16.7396 118.047 16.6875C117.974 16.6562 117.906 16.6406 117.844 16.6406C117.479 16.6406 116.745 17.1562 115.641 18.1875C114.495 19.2292 113.88 19.7604 113.797 19.7812C113.682 19.7708 113.625 19.7083 113.625 19.5938C113.625 19.5312 114.651 18.6094 116.703 16.8281C117.266 16.3385 117.823 16.0938 118.375 16.0938C118.688 16.0938 118.948 16.2344 119.156 16.5156C119.333 16.776 119.422 17.0677 119.422 17.3906C119.422 17.7344 119.292 18.0573 119.031 18.3594L117.938 19.625H118.109C119.099 19.625 119.849 19.5625 120.359 19.4375L122.859 16.5312C122.995 16.375 123.156 16.2917 123.344 16.2812L124.859 16.2031C125.005 16.2031 125.078 16.2656 125.078 16.3906ZM139.141 19.6875C139.141 19.7396 139.115 19.7865 139.062 19.8281L136 22.4375C135.448 22.9167 134.917 23.1562 134.406 23.1562C133.635 23.1562 133.25 22.724 133.25 21.8594C133.25 21.5052 133.396 21.1771 133.688 20.875L136.969 17.3906C137.146 17.2031 137.234 17.026 137.234 16.8594C137.234 16.724 137.135 16.6562 136.938 16.6562C136.531 16.6562 135.297 17.6094 133.234 19.5156C132.818 19.8906 131.776 21.0052 130.109 22.8594C129.964 23.026 129.812 23.1094 129.656 23.1094L128.141 23.1562C127.995 23.1562 127.922 23.099 127.922 22.9844C127.922 22.8281 128.036 22.625 128.266 22.375L132.766 17.4531C132.943 17.2656 133.031 17.0885 133.031 16.9219C133.031 16.7865 132.974 16.7188 132.859 16.7188C132.745 16.7188 132.589 16.75 132.391 16.8125C132.307 16.8438 131.203 17.7188 129.078 19.4375C128.578 19.8438 128.021 20.3958 127.406 21.0938C126.896 21.6771 126.385 22.2656 125.875 22.8594C125.74 23.0156 125.583 23.099 125.406 23.1094L123.906 23.1562C123.781 23.1562 123.719 23.1094 123.719 23.0156C123.719 22.901 123.766 22.7812 123.859 22.6562C123.953 22.5312 124.01 22.4375 124.031 22.375L128.516 17.4531C128.693 17.2552 128.781 17.0781 128.781 16.9219C128.781 16.776 128.693 16.7031 128.516 16.7031C128.182 16.7031 127.422 17.2292 126.234 18.2812C125.057 19.3333 124.422 19.8594 124.328 19.8594C124.224 19.8177 124.172 19.7656 124.172 19.7031C124.172 19.651 124.198 19.6042 124.25 19.5625L127.375 16.8906C127.948 16.3906 128.479 16.1406 128.969 16.1406C129.729 16.1406 130.109 16.5781 130.109 17.4531C130.109 17.849 129.932 18.224 129.578 18.5781L131.625 16.8906C132.219 16.3906 132.745 16.1406 133.203 16.1406C133.974 16.1406 134.359 16.5781 134.359 17.4531C134.359 17.7448 134.25 18.0365 134.031 18.3281L135.812 16.8438C136.406 16.3438 136.938 16.0938 137.406 16.0938C138.135 16.0938 138.5 16.5781 138.5 17.5469C138.5 17.8698 138.385 18.151 138.156 18.3906L134.828 21.875C134.661 22.0625 134.578 22.2448 134.578 22.4219C134.578 22.526 134.646 22.5781 134.781 22.5781C135.146 22.5781 135.677 22.2812 136.375 21.6875L138.844 19.5625C138.875 19.5312 138.911 19.5156 138.953 19.5156C139.078 19.5156 139.141 19.5729 139.141 19.6875ZM146.812 19.625C146.812 19.7917 146.438 20.1198 145.688 20.6094C145.448 20.7656 145.151 20.8438 144.797 20.8438C143.099 22.4896 141.672 23.3125 140.516 23.3125C139.474 23.3125 138.953 22.8333 138.953 21.875C138.953 20.5938 139.885 19.2031 141.75 17.7031C141.25 17.974 140.885 18.1875 140.656 18.3438C140.208 18.7917 139.667 19.2812 139.031 19.8125C138.948 19.7708 138.906 19.7135 138.906 19.6406C138.906 19.4948 139.229 19.1458 139.875 18.5938C140.698 17.875 141.958 17.1615 143.656 16.4531C144.677 16.0365 145.349 15.8281 145.672 15.8281C146.37 15.8281 146.719 16.0677 146.719 16.5469C146.719 16.4323 146.656 16.7292 146.531 17.4375C146.562 17.5208 146.578 17.6146 146.578 17.7188C146.578 18.4479 146.115 19.2656 145.188 20.1719C145.135 20.224 145.099 20.2708 145.078 20.3125L145.125 20.3594C145.375 20.3594 145.661 20.2135 145.984 19.9219C146.318 19.6302 146.531 19.4844 146.625 19.4844C146.75 19.4844 146.812 19.5312 146.812 19.625ZM146.203 16.7188C146.203 16.3958 146.052 16.2344 145.75 16.2344C145.344 16.2344 144.286 17.125 142.578 18.9062C140.88 20.6771 140.031 21.8177 140.031 22.3281C140.031 22.7344 140.224 22.9375 140.609 22.9375C140.984 22.9375 141.38 22.8333 141.797 22.625C142.182 22.4271 142.641 22.1406 143.172 21.7656C143.87 21.2865 144.224 20.9479 144.234 20.75C143.984 20.75 143.859 20.5625 143.859 20.1875C143.859 19.6562 144.104 19.0469 144.594 18.3594C145.104 17.6302 145.615 17.2396 146.125 17.1875C146.177 17.0729 146.203 16.9167 146.203 16.7188ZM157.953 16.3906C157.953 16.5573 157.839 16.7604 157.609 17L153.094 21.9531C152.906 22.1719 152.812 22.3542 152.812 22.5C152.812 22.625 152.891 22.6875 153.047 22.6875C153.109 22.6875 153.255 22.6562 153.484 22.5938C153.62 22.5625 154.667 21.7083 156.625 20.0312C156.802 19.8646 157.01 19.6823 157.25 19.4844C157.375 19.5156 157.438 19.5781 157.438 19.6719C157.427 19.6927 157.411 19.7135 157.391 19.7344C157.214 19.9323 156.859 20.2656 156.328 20.7344C155.859 21.1302 155.167 21.7188 154.25 22.5C153.688 22.9792 153.12 23.2188 152.547 23.2188C152.234 23.2188 151.979 23.0885 151.781 22.8281C151.594 22.5677 151.5 22.276 151.5 21.9531C151.5 21.6302 151.849 21.0573 152.547 20.2344C152.328 20.1615 151.995 20.125 151.547 20.125C151.057 20.125 150.615 20.1875 150.219 20.3125L148.062 22.8125C147.927 22.9688 147.776 23.0469 147.609 23.0469L146.094 23.125C145.938 23.1354 145.859 23.0781 145.859 22.9531C145.859 22.8073 145.984 22.599 146.234 22.3281L150.719 17.3906C150.896 17.1927 150.984 17.0156 150.984 16.8594C150.984 16.7969 150.964 16.7396 150.922 16.6875C150.849 16.6562 150.781 16.6406 150.719 16.6406C150.354 16.6406 149.62 17.1562 148.516 18.1875C147.37 19.2292 146.755 19.7604 146.672 19.7812C146.557 19.7708 146.5 19.7083 146.5 19.5938C146.5 19.5312 147.526 18.6094 149.578 16.8281C150.141 16.3385 150.698 16.0938 151.25 16.0938C151.562 16.0938 151.823 16.2344 152.031 16.5156C152.208 16.776 152.297 17.0677 152.297 17.3906C152.297 17.7344 152.167 18.0573 151.906 18.3594L150.812 19.625H150.984C151.974 19.625 152.724 19.5625 153.234 19.4375L155.734 16.5312C155.87 16.375 156.031 16.2917 156.219 16.2812L157.734 16.2031C157.88 16.2031 157.953 16.2656 157.953 16.3906ZM167.781 16.2812C167.781 16.4792 167.677 16.6875 167.469 16.9062L162.969 21.875C162.781 22.0729 162.688 22.25 162.688 22.4062C162.688 22.5312 162.76 22.5938 162.906 22.5938C163.229 22.5938 163.76 22.2917 164.5 21.6875L167.156 19.4844C167.167 19.474 167.208 19.4583 167.281 19.4375C167.396 19.4583 167.453 19.5208 167.453 19.625C167.453 19.6562 167.427 19.6927 167.375 19.7344L164.141 22.4062C163.557 22.8854 163.005 23.125 162.484 23.125C161.745 23.125 161.375 22.6979 161.375 21.8438C161.375 21.5312 161.75 20.9271 162.5 20.0312C161.667 20.7708 160.464 21.7292 158.891 22.9062C158.661 23.0521 158.333 23.125 157.906 23.125C157.24 23.125 156.906 22.7083 156.906 21.875C156.906 21.4792 157.026 21.1406 157.266 20.8594L160.031 17.6719C158.146 19.1094 157.193 19.8281 157.172 19.8281C157.057 19.8281 157 19.7656 157 19.6406C157 19.599 157.026 19.5625 157.078 19.5312L161.25 16.2969C161.385 16.1927 161.958 16.1406 162.969 16.1406C163.167 16.1406 163.266 16.1875 163.266 16.2812C163.266 16.4792 163.167 16.6875 162.969 16.9062L159 21.25C158.865 21.3958 158.797 21.5417 158.797 21.6875C158.797 21.8646 158.927 21.9531 159.188 21.9531C159.458 21.9531 159.724 21.8646 159.984 21.6875C160.161 21.5729 160.844 21.0208 162.031 20.0312C163.219 19.0417 163.859 18.5 163.953 18.4062L165.625 16.4375C165.76 16.2708 165.911 16.1875 166.078 16.1875L167.609 16.1406C167.724 16.1406 167.781 16.1875 167.781 16.2812ZM178.547 16.3906C178.547 16.5573 178.432 16.7604 178.203 17L173.688 21.9531C173.5 22.1719 173.406 22.3542 173.406 22.5C173.406 22.625 173.484 22.6875 173.641 22.6875C173.703 22.6875 173.849 22.6562 174.078 22.5938C174.214 22.5625 175.26 21.7083 177.219 20.0312C177.396 19.8646 177.604 19.6823 177.844 19.4844C177.969 19.5156 178.031 19.5781 178.031 19.6719C178.021 19.6927 178.005 19.7135 177.984 19.7344C177.807 19.9323 177.453 20.2656 176.922 20.7344C176.453 21.1302 175.76 21.7188 174.844 22.5C174.281 22.9792 173.714 23.2188 173.141 23.2188C172.828 23.2188 172.573 23.0885 172.375 22.8281C172.188 22.5677 172.094 22.276 172.094 21.9531C172.094 21.6302 172.443 21.0573 173.141 20.2344C172.922 20.1615 172.589 20.125 172.141 20.125C171.651 20.125 171.208 20.1875 170.812 20.3125L168.656 22.8125C168.521 22.9688 168.37 23.0469 168.203 23.0469L166.688 23.125C166.531 23.1354 166.453 23.0781 166.453 22.9531C166.453 22.8073 166.578 22.599 166.828 22.3281L171.312 17.3906C171.49 17.1927 171.578 17.0156 171.578 16.8594C171.578 16.7969 171.557 16.7396 171.516 16.6875C171.443 16.6562 171.375 16.6406 171.312 16.6406C170.948 16.6406 170.214 17.1562 169.109 18.1875C167.964 19.2292 167.349 19.7604 167.266 19.7812C167.151 19.7708 167.094 19.7083 167.094 19.5938C167.094 19.5312 168.12 18.6094 170.172 16.8281C170.734 16.3385 171.292 16.0938 171.844 16.0938C172.156 16.0938 172.417 16.2344 172.625 16.5156C172.802 16.776 172.891 17.0677 172.891 17.3906C172.891 17.7344 172.76 18.0573 172.5 18.3594L171.406 19.625H171.578C172.568 19.625 173.318 19.5625 173.828 19.4375L176.328 16.5312C176.464 16.375 176.625 16.2917 176.812 16.2812L178.328 16.2031C178.474 16.2031 178.547 16.2656 178.547 16.3906ZM188.344 16.3594C188.344 16.526 188.234 16.7344 188.016 16.9844L183.5 21.9219C183.323 22.1198 183.234 22.2969 183.234 22.4531C183.234 22.599 183.323 22.6719 183.5 22.6719C183.854 22.6719 184.62 22.1458 185.797 21.0938C186.984 20.0312 187.604 19.5 187.656 19.5C187.708 19.5 187.755 19.526 187.797 19.5781C187.807 19.599 187.818 19.6354 187.828 19.6875C187.828 19.7396 187.812 19.7812 187.781 19.8125L184.656 22.4844C184.104 22.9635 183.578 23.2031 183.078 23.2031C182.318 23.2031 181.938 22.7865 181.938 21.9531C181.938 21.8594 181.948 21.7604 181.969 21.6562C181.635 21.9896 181.156 22.3333 180.531 22.6875C179.823 23.0938 179.286 23.2969 178.922 23.2969C178.151 23.2969 177.766 22.9167 177.766 22.1562C177.766 20.8646 178.75 19.474 180.719 17.9844C179.844 18.5677 178.885 19.1771 177.844 19.8125C177.74 19.7708 177.688 19.7083 177.688 19.625C177.688 19.5833 177.714 19.5417 177.766 19.5C178.547 18.8646 179.646 18.1719 181.062 17.4219C182.667 16.5781 183.818 16.1562 184.516 16.1562C185.089 16.1562 185.375 16.401 185.375 16.8906C185.375 16.9531 185.354 17.0521 185.312 17.1875C185.271 17.3125 185.25 17.4115 185.25 17.4844L185.234 17.625H185.25L185.344 17.5781C185.625 17.2552 185.906 16.9323 186.188 16.6094C186.417 16.401 186.797 16.2812 187.328 16.25C187.943 16.2083 188.214 16.1875 188.141 16.1875C188.276 16.1875 188.344 16.2448 188.344 16.3594ZM184.969 16.7812C184.969 16.6458 184.896 16.5781 184.75 16.5781C184.271 16.5781 183.151 17.5365 181.391 19.4531C179.682 21.3177 178.828 22.4062 178.828 22.7188C178.828 22.875 178.932 22.9531 179.141 22.9531C179.349 22.9531 179.74 22.7812 180.312 22.4375C181.271 21.8438 182.078 21.1771 182.734 20.4375C183.224 19.9375 183.875 19.1354 184.688 18.0312C184.875 17.6875 184.969 17.2708 184.969 16.7812ZM191.953 19.7969C192.193 19.474 192.495 19.0417 192.859 18.5C193.234 17.9479 193.651 17.3125 194.109 16.5938C194.568 15.875 195.062 15.0885 195.594 14.2344C196.135 13.3698 196.693 12.4531 197.266 11.4844C197.505 11.0781 197.724 10.75 197.922 10.5C198.12 10.25 198.297 10.0521 198.453 9.90625C198.62 9.76042 198.771 9.66146 198.906 9.60938C199.042 9.55729 199.167 9.53125 199.281 9.53125C199.542 9.53125 199.719 9.60417 199.812 9.75C199.906 9.89583 199.953 10.026 199.953 10.1406C199.953 10.3281 199.896 10.5469 199.781 10.7969C199.677 11.0365 199.5 11.3281 199.25 11.6719C199.01 12.0052 198.698 12.4062 198.312 12.875C197.927 13.3333 197.453 13.8802 196.891 14.5156C196.328 15.151 195.776 15.7917 195.234 16.4375C194.703 17.0833 194.219 17.6719 193.781 18.2031C193.281 18.8177 192.802 19.4115 192.344 19.9844C192.229 19.9844 192.135 19.9688 192.062 19.9375C191.99 19.9062 191.953 19.8594 191.953 19.7969ZM190.172 23.4375C189.901 23.4375 189.688 23.3594 189.531 23.2031C189.375 23.0469 189.297 22.8385 189.297 22.5781C189.297 22.224 189.427 21.9167 189.688 21.6562C189.948 21.3958 190.255 21.2656 190.609 21.2656C190.88 21.2656 191.094 21.349 191.25 21.5156C191.406 21.6719 191.484 21.8802 191.484 22.1406C191.484 22.4948 191.354 22.8021 191.094 23.0625C190.833 23.3125 190.526 23.4375 190.172 23.4375Z" fill="#28682E"></path></svg> 