<?xml version="1.0" encoding="UTF-8"?> <svg xmlns="http://www.w3.org/2000/svg" width="80" height="18" viewBox="0 0 80 18" fill="none"><path d="M6.52886 0.806265C6.89153 0.763599 7.32886 0.699599 7.84086 0.614265C8.09686 0.614265 8.35286 0.774265 8.60886 1.09426C8.77953 1.28627 8.85419 1.44626 8.83286 1.57426C8.83286 1.70226 8.71553 1.8836 8.48086 2.11827C8.13953 2.48093 7.06219 2.70493 5.24886 2.79026C3.71286 2.85426 2.85953 2.95026 2.68886 3.07827C2.58219 3.18493 2.52886 3.40893 2.52886 3.75027C2.52886 4.24093 2.46486 4.91293 2.33686 5.76626L2.14486 6.91827L3.52086 6.43826C5.35553 5.77693 6.95553 5.74493 8.32086 6.34227C9.68619 6.9396 10.4969 8.0276 10.7529 9.60627C10.8169 10.0756 10.7955 10.4596 10.6889 10.7583C10.5822 11.0356 10.3155 11.4196 9.88886 11.9103C8.99286 12.9343 7.56353 13.8943 5.60086 14.7903C3.65953 15.6863 2.26219 16.0276 1.40886 15.8143C0.832859 15.6649 0.470193 15.2809 0.320859 14.6623C0.171526 14.0436 0.171526 12.9449 0.320859 11.3663C0.470193 9.93693 0.662193 8.07027 0.896859 5.76626C1.08886 3.88893 1.06753 2.8116 0.83286 2.53427C0.406193 2.0436 0.779526 1.64893 1.95286 1.35027C2.40086 1.2436 2.94486 1.15827 3.58486 1.09426C3.92619 1.07293 4.45953 1.03027 5.18486 0.966265C5.91019 0.880931 6.35819 0.827598 6.52886 0.806265ZM8.89686 9.76626C8.85419 9.16893 8.58753 8.67826 8.09686 8.29426C7.60619 7.91027 7.01953 7.7076 6.33686 7.68626C5.67553 7.66493 4.82219 7.82493 3.77686 8.16627L2.30486 8.67827L2.08086 10.5983C1.88886 12.5396 1.86753 13.6169 2.01686 13.8303C2.10219 13.9583 2.35819 13.9796 2.78486 13.8943C3.42486 13.7236 4.42753 13.3183 5.79286 12.6783C7.17953 12.0169 8.03286 11.5369 8.35286 11.2383C8.77953 10.8543 8.96086 10.3636 8.89686 9.76626ZM17.9876 4.74226C18.6703 4.52893 19.6196 4.46493 20.8356 4.55027C21.5823 4.59293 22.1263 4.67826 22.4676 4.80626C22.8303 4.91293 23.1929 5.13693 23.5556 5.47826C23.9609 5.8836 24.2063 6.31026 24.2916 6.75827C24.3983 7.18493 24.4943 8.24093 24.5796 9.92626C24.6436 11.3129 24.7289 12.3369 24.8356 12.9983C24.9636 13.6596 25.1449 14.1823 25.3796 14.5663C25.6569 15.0569 25.7956 15.3876 25.7956 15.5583C25.8169 15.7076 25.7103 15.8996 25.4756 16.1343C24.7503 16.8809 24.0143 16.4649 23.2676 14.8863L22.5636 13.4783L20.6436 14.0863C19.3849 14.4489 18.1263 14.7156 16.8676 14.8863C16.0356 14.9716 15.4809 14.9823 15.2036 14.9183C14.9263 14.8329 14.5956 14.6089 14.2116 14.2463C13.7209 13.7556 13.4543 13.2649 13.4116 12.7743C13.3903 12.2623 13.5929 11.6543 14.0196 10.9503C14.9156 9.52093 16.9209 8.6676 20.0356 8.39027C20.5049 8.36893 20.9423 8.32627 21.3476 8.26227C21.7529 8.19827 22.0729 8.14493 22.3076 8.10227C22.5423 8.03826 22.6596 7.98493 22.6596 7.94227C22.6596 7.75027 22.4569 7.4196 22.0516 6.95026C21.7956 6.63027 21.5183 6.4276 21.2196 6.34227C20.9423 6.25693 20.4303 6.22493 19.6836 6.24627C18.4249 6.28893 17.6143 6.4276 17.2516 6.66226C16.9743 6.8116 16.7823 6.8756 16.6756 6.85427C16.5689 6.83293 16.4729 6.7156 16.3876 6.50226C16.2596 6.16093 16.3343 5.83027 16.6116 5.51027C16.9103 5.19027 17.3689 4.93426 17.9876 4.74226ZM22.5316 10.0543C22.6383 9.77693 22.5743 9.6276 22.3396 9.60627C22.0623 9.58493 21.1769 9.68093 19.6836 9.89427C18.3823 10.1076 17.4863 10.3316 16.9956 10.5663C16.4623 10.8223 15.9716 11.2383 15.5236 11.8143C15.0969 12.3903 14.9583 12.7956 15.1076 13.0303C15.2783 13.3076 15.7583 13.4249 16.5476 13.3823C17.3583 13.3183 18.2756 13.1049 19.2996 12.7423C20.5369 12.3156 21.3583 12.1023 21.7636 12.1023C22.1476 12.1023 22.3396 11.8463 22.3396 11.3343C22.3396 10.8649 22.4036 10.4383 22.5316 10.0543ZM30.0429 4.29426C30.1495 4.01693 30.2775 3.85693 30.4269 3.81427C30.5975 3.75026 30.7575 3.81426 30.9069 4.00626C31.0775 4.17693 31.1949 4.43293 31.2589 4.77427C31.3869 5.4996 31.4509 6.35293 31.4509 7.33426V8.87027L34.2669 8.67827C36.0589 8.5716 37.0189 8.48626 37.1469 8.42227C37.2109 8.35827 37.3175 7.7076 37.4669 6.47027C37.5522 5.6596 37.6482 5.13693 37.7549 4.90226C37.8615 4.6676 38.0642 4.52893 38.3629 4.48627C38.8535 4.42226 39.1629 4.6996 39.2909 5.31826C39.4402 5.9156 39.5682 7.50493 39.6749 10.0863C39.8242 13.1156 39.7495 14.8009 39.4509 15.1423C39.1949 15.4409 38.9709 15.5903 38.7789 15.5903C38.5869 15.5903 38.3415 15.4303 38.0429 15.1103C37.7015 14.7689 37.5309 13.9156 37.5309 12.5503V10.4703L34.7469 10.5663L31.9309 10.6623L31.7389 12.5183C31.5682 14.0756 31.2269 14.9716 30.7149 15.2063C30.3522 15.3556 30.0535 15.0676 29.8189 14.3423C29.7549 14.1076 29.7015 13.8409 29.6589 13.5423C29.5522 12.6249 29.2855 11.8889 28.8589 11.3343C28.5175 10.9076 28.3789 10.5129 28.4429 10.1503C28.5282 9.7876 28.7949 9.5316 29.2429 9.38227C29.4989 9.29693 29.6589 9.1156 29.7229 8.83827C29.8082 8.5396 29.8509 7.92093 29.8509 6.98227C29.8509 5.57427 29.9149 4.67826 30.0429 4.29426ZM45.0684 4.39026C45.0684 4.30493 45.1217 4.24093 45.2284 4.19827C45.3564 4.13427 45.5057 4.1236 45.6764 4.16626C45.8684 4.20893 46.007 4.36893 46.0924 4.64627C46.199 4.90226 46.2737 5.38226 46.3164 6.08626L46.4124 7.91026L49.0044 6.15026C50.6897 4.99826 51.671 4.45426 51.9484 4.51826C52.8444 4.83827 52.215 5.71293 50.0604 7.14227C49.399 7.56893 48.8337 7.9636 48.3644 8.32627C47.9164 8.68893 47.703 8.90226 47.7244 8.96626C47.7884 9.1156 48.6204 9.90493 50.2204 11.3343C51.5217 12.5076 52.3324 13.3076 52.6524 13.7343C52.9937 14.1396 53.1004 14.5129 52.9724 14.8543C52.7377 15.4516 52.1084 15.3556 51.0844 14.5663C50.5937 14.1823 49.943 13.5956 49.1324 12.8063L46.5404 10.3423L46.4444 12.4863C46.3804 13.5956 46.231 14.3529 45.9964 14.7583C45.7617 15.1636 45.4204 15.2809 44.9724 15.1103C44.759 15.0249 44.6204 14.7796 44.5564 14.3743C44.4924 13.9689 44.4604 13.1583 44.4604 11.9423V8.96626L43.5324 8.58226C42.9564 8.36893 42.5937 8.11293 42.4444 7.81427C42.295 7.5156 42.359 7.2916 42.6364 7.14227C42.935 6.9716 43.383 6.96093 43.9804 7.11026C44.3217 7.1956 44.535 7.1956 44.6204 7.11026C44.727 7.02493 44.791 6.76893 44.8124 6.34227C44.8337 5.7236 44.8764 5.29693 44.9404 5.06227C44.9404 4.99826 44.951 4.8916 44.9724 4.74226C45.015 4.5716 45.047 4.45426 45.0684 4.39026ZM59.8536 4.96626C61.5816 4.11293 63.0536 4.20893 64.2696 5.25426C64.8883 5.76627 65.2189 6.3636 65.2616 7.04626C65.3256 7.72893 65.0909 8.3156 64.5576 8.80626C64.2376 9.10493 63.4803 9.4676 62.2856 9.89427C61.0909 10.2996 59.8216 10.6516 58.4776 10.9503C58.1149 11.0356 57.8696 11.1529 57.7416 11.3023C57.6349 11.4516 57.5816 11.7183 57.5816 12.1023C57.5816 12.5289 57.6349 12.7956 57.7416 12.9023C57.8696 13.0089 58.1683 13.0623 58.6376 13.0623C59.3843 13.0623 60.5256 12.9129 62.0616 12.6143C63.2776 12.3796 64.1096 12.3049 64.5576 12.3903C65.0269 12.4756 65.2616 12.7636 65.2616 13.2543C65.2616 13.8729 63.4909 14.2996 59.9496 14.5343C58.1576 14.6623 56.9949 14.6196 56.4616 14.4063C55.9283 14.1716 55.6616 13.6276 55.6616 12.7743C55.6616 11.3236 56.0883 9.79827 56.9416 8.19827C57.8163 6.57693 58.7869 5.4996 59.8536 4.96626ZM63.2776 6.40627C62.8296 5.95827 62.0403 5.9796 60.9096 6.47027C60.4403 6.6836 59.8963 7.1316 59.2776 7.81427C58.6803 8.49693 58.4669 8.9236 58.6376 9.09426C58.7229 9.20093 59.2989 9.12626 60.3656 8.87027C61.4323 8.59293 62.2429 8.3156 62.7976 8.03827C63.7363 7.5476 63.8963 7.0036 63.2776 6.40627ZM73.7996 4.71027C73.9916 4.51827 74.1729 4.43293 74.3436 4.45426C74.5143 4.45426 74.5996 4.55026 74.5996 4.74226C74.5996 4.9556 75.2289 5.06227 76.4876 5.06227C77.4476 5.06227 78.1409 5.19027 78.5676 5.44627C79.0156 5.68093 79.1543 6.02227 78.9836 6.47027C78.9196 6.64093 78.7383 6.7476 78.4396 6.79027C78.1409 6.83293 77.6183 6.82227 76.8716 6.75827L74.9516 6.56627L74.8556 10.6943C74.7916 12.6783 74.7276 13.8729 74.6636 14.2783C74.5996 14.6623 74.3969 14.8756 74.0556 14.9183C73.7996 14.9609 73.5969 14.9289 73.4476 14.8223C73.3196 14.6943 73.2129 14.4596 73.1276 14.1183C73.0636 13.7556 73.0316 13.2436 73.0316 12.5823C73.0316 11.9209 73.0423 11.0676 73.0636 10.0223L73.1916 6.59826L71.6236 6.82226C70.7916 6.9076 69.9596 7.0356 69.1276 7.20627C68.5303 7.31293 68.1569 7.1956 68.0076 6.85427C67.8369 6.4276 67.9329 6.11826 68.2956 5.92626C68.6583 5.73426 69.5329 5.54226 70.9196 5.35026C72.6049 5.1156 73.5649 4.90227 73.7996 4.71027Z" fill="#253758"></path></svg> 