<?xml version="1.0" encoding="UTF-8"?> <svg xmlns="http://www.w3.org/2000/svg" width="78" height="19" viewBox="0 0 78 19" fill="none"><path d="M0.808773 18.457V18.241H1.19277C1.78477 18.241 2.16877 18.129 2.34477 17.905C2.53677 17.681 2.64877 17.225 2.68077 16.537L3.32877 2.68903C3.34477 2.41703 3.35277 2.24903 3.35277 2.18503C3.35277 1.89703 3.27277 1.69703 3.11277 1.58503C2.96877 1.47303 2.64877 1.41703 2.15277 1.41703H1.19277V1.20103H4.72077L10.9368 14.953C11.1768 15.481 11.2968 15.825 11.2968 15.985H11.4168C11.4168 15.777 11.5288 15.433 11.7528 14.953L17.9688 1.20103H21.5688V1.41703H20.7528C20.2088 1.41703 19.8488 1.49703 19.6728 1.65703C19.4968 1.81703 19.4088 2.08903 19.4088 2.47303C19.4088 2.53703 19.4168 2.75303 19.4328 3.12103L19.9848 16.537C20.0168 17.241 20.1208 17.705 20.2968 17.929C20.4728 18.137 20.8808 18.241 21.5208 18.241H22.0488V18.457H15.7848V18.241H16.6488C17.2568 18.241 17.6568 18.169 17.8488 18.025C18.0408 17.881 18.1368 17.649 18.1368 17.329C18.1368 17.281 18.1288 17.233 18.1128 17.185C18.1128 17.137 18.1128 17.089 18.1128 17.041C18.1128 16.977 18.1128 16.929 18.1128 16.897L17.6328 4.24903C17.6168 3.96103 17.6088 3.60903 17.6088 3.19303H17.4648C17.4648 3.25703 17.3368 3.58503 17.0808 4.17703L10.6248 18.553L10.5528 18.721H10.5048L10.4328 18.553L4.07277 4.44103C3.89677 4.05703 3.80877 3.72103 3.80877 3.43303H3.71277C3.71277 3.68903 3.70477 3.96103 3.68877 4.24903L3.08877 16.849C3.07277 17.185 3.06477 17.369 3.06477 17.401C3.06477 17.705 3.16077 17.921 3.35277 18.049C3.54477 18.177 3.95277 18.241 4.57677 18.241H5.44077V18.457H0.808773ZM31.153 9.72103V4.58503C31.153 2.48903 30.209 1.44103 28.321 1.44103C27.169 1.44103 26.273 1.74503 25.633 2.35303C24.993 2.94503 24.649 3.72903 24.601 4.70503L24.529 6.19303H24.097L24.361 0.52903H24.601L24.529 1.80103C24.497 2.18503 24.465 2.44103 24.433 2.56903L24.601 2.61703C24.681 2.37703 24.809 2.19303 24.985 2.06503C25.929 1.36103 27.033 1.00903 28.297 1.00903C29.849 1.00903 31.025 1.34503 31.825 2.01703C32.625 2.67303 33.025 3.63303 33.025 4.89703V16.753C33.025 17.249 33.065 17.577 33.145 17.737C33.241 17.897 33.465 17.977 33.817 17.977L34.297 17.953L34.705 17.929L34.729 18.145C33.785 18.241 32.913 18.417 32.113 18.673V18.481C32.113 18.001 32.025 17.281 31.849 16.321C31.737 15.601 31.673 15.081 31.657 14.761H31.417C30.777 17.353 29.433 18.649 27.385 18.649C26.073 18.649 24.985 18.289 24.121 17.569C23.273 16.833 22.849 15.881 22.849 14.713C22.849 13.209 23.433 12.001 24.601 11.089C25.785 10.177 27.345 9.72103 29.281 9.72103H31.153ZM31.153 10.153H29.401C28.057 10.153 26.977 10.577 26.161 11.425C25.345 12.257 24.937 13.353 24.937 14.713C24.937 15.705 25.185 16.505 25.681 17.113C26.193 17.705 26.857 18.001 27.673 18.001C28.601 18.001 29.409 17.577 30.097 16.729C30.801 15.865 31.153 14.633 31.153 13.033V10.153ZM39.1476 1.65703V1.77703C39.4196 2.14503 39.5556 2.64103 39.5556 3.26503V11.305H40.8996C42.4196 11.305 43.5716 10.897 44.3556 10.081C45.1556 9.24903 45.5556 8.04903 45.5556 6.48103C45.5556 4.91303 45.1556 3.72103 44.3556 2.90503C43.5716 2.07303 42.4196 1.65703 40.8996 1.65703H39.1476ZM35.5716 18.457V18.241H36.4116C36.9876 18.241 37.3396 18.177 37.4676 18.049C37.6116 17.905 37.6836 17.545 37.6836 16.969V2.68903C37.6836 2.11303 37.6116 1.76103 37.4676 1.63303C37.3396 1.48903 36.9876 1.41703 36.4116 1.41703H35.5716V1.20103H41.6196C43.4276 1.20103 44.8836 1.68903 45.9876 2.66503C47.0916 3.62503 47.6436 4.89703 47.6436 6.48103C47.6436 8.06503 47.0916 9.33703 45.9876 10.297C44.8836 11.257 43.4276 11.737 41.6196 11.737H39.5556V16.969C39.5556 17.545 39.6276 17.905 39.7716 18.049C39.9156 18.177 40.2756 18.241 40.8516 18.241H41.4516V18.457H35.5716ZM48.6966 18.457V18.241H49.5366C50.0966 18.241 50.4486 18.145 50.5926 17.953C50.7366 17.761 50.8086 17.361 50.8086 16.753V2.90503C50.8086 2.29703 50.7366 1.89703 50.5926 1.70503C50.4486 1.51303 50.0966 1.41703 49.5366 1.41703H48.6966V1.20103H54.6006V1.41703H53.9766C53.4166 1.41703 53.0566 1.51303 52.8966 1.70503C52.7526 1.89703 52.6806 2.29703 52.6806 2.90503V16.825L59.4966 1.20103H63.2646V1.41703H62.4006C61.8406 1.41703 61.4886 1.51303 61.3446 1.70503C61.2006 1.89703 61.1286 2.29703 61.1286 2.90503V16.753C61.1286 17.361 61.2006 17.761 61.3446 17.953C61.4886 18.145 61.8406 18.241 62.4006 18.241H63.2646V18.457H57.3366V18.241H57.9846C58.5446 18.241 58.8966 18.145 59.0406 17.953C59.1846 17.761 59.2566 17.361 59.2566 16.753V2.83303L52.4406 18.457H48.6966ZM72.0631 18.457V18.241H72.4951C73.0711 18.241 73.4311 18.177 73.5751 18.049C73.7191 17.905 73.7911 17.545 73.7911 16.969V10.897H71.9431C71.9271 13.233 71.4551 15.113 70.5271 16.537C69.6151 17.945 68.4071 18.649 66.9031 18.649C65.8631 18.649 64.9831 18.337 64.2631 17.713V15.817C65.4311 16.649 66.4951 17.065 67.4551 17.065C68.7511 17.065 69.7431 16.529 70.4311 15.457C71.1351 14.385 71.4951 12.865 71.5111 10.897C69.5271 10.897 67.9271 10.481 66.7111 9.64903C65.4951 8.80103 64.8871 7.60103 64.8871 6.04903C64.8871 4.49703 65.4951 3.30503 66.7111 2.47303C67.9271 1.62503 69.5271 1.20103 71.5111 1.20103H77.7751V1.41703H76.9351C76.3591 1.41703 75.9991 1.48903 75.8551 1.63303C75.7271 1.76103 75.6631 2.11303 75.6631 2.68903V16.969C75.6631 17.545 75.7271 17.905 75.8551 18.049C75.9991 18.177 76.3591 18.241 76.9351 18.241H77.7751V18.457H72.0631ZM73.7911 10.465V2.90503C73.7911 2.34503 73.9271 1.92903 74.1991 1.65703V1.63303H71.7031C68.5511 1.63303 66.9751 3.10503 66.9751 6.04903C66.9751 8.99303 68.5511 10.465 71.7031 10.465H73.7911Z" fill="black"></path></svg> 