<?xml version="1.0" encoding="UTF-8"?> <svg xmlns="http://www.w3.org/2000/svg" width="713" height="566" viewBox="0 0 713 566" fill="none"><path d="M685.601 4.26696C674.934 18.5336 669.201 37.867 666.534 68.5336C665.467 81.067 664.134 94.0003 663.334 97.3336C660.934 109.467 660.401 136.4 662.001 182C663.467 226.667 663.734 234.934 665.334 254.8C666.267 267.734 667.201 271.2 670.801 275.334C672.934 277.867 674.001 280.8 674.134 284.534C674.267 293.2 675.067 297.334 677.067 300.534C678.267 302.267 678.801 305.067 678.401 307.334C677.601 310.934 677.734 311.067 681.467 310C688.801 308.134 699.601 307.734 701.067 309.2C703.867 312 699.734 313.6 689.467 313.867C677.467 314.134 675.334 315.334 684.534 316.667C688.267 317.2 691.334 318.134 691.334 318.667C691.334 320.4 686.534 321.467 682.934 320.667C680.934 320.134 679.201 320.4 678.667 321.334C676.934 324.267 680.001 325.067 687.334 323.867C694.934 322.667 699.334 323.2 699.334 325.467C699.334 326.134 698.001 326.4 696.401 326C694.667 325.734 689.734 326.134 685.334 327.067C677.601 328.667 677.334 328.8 676.667 333.334C676.267 335.867 676.401 339.734 677.201 341.867C678.267 345.334 676.401 444.534 674.667 476C674.401 481.467 673.734 493.467 673.201 502.667L672.267 519.334L680.001 530.667C689.867 545.067 691.201 546.667 694.267 546.667C700.667 546.667 709.334 535.867 711.467 524.934C713.734 513.734 712.401 459.2 709.334 433.467C708.934 430.934 708.001 419.867 707.201 408.8C706.401 397.734 705.601 388.4 705.334 387.867C704.934 387.467 704.667 376.134 704.667 362.667C704.534 349.334 704.134 337.467 703.734 336.534C702.667 333.734 694.401 331.6 687.867 332.667C683.067 333.334 682.001 333.067 682.001 331.467C682.001 329.867 684.267 329.334 692.934 329.067L703.867 328.667L704.267 323.334C704.934 312.134 704.534 306.134 703.334 304.667C702.401 303.6 702.934 302.667 705.067 301.734C707.734 300.534 708.001 299.6 707.601 290.8C707.201 284.267 706.667 281.334 705.601 281.734C704.534 282 704.134 284.8 704.401 289.734L704.934 297.334L696.801 297.6C692.267 297.734 686.801 297.867 684.534 297.867L680.401 298L680.001 288.934C679.734 279.867 679.734 279.867 683.601 279.067C688.667 278 689.601 276.267 685.334 275.334C683.467 274.934 680.534 274.4 678.667 274C669.601 272.134 667.601 256.267 666.001 174.667C664.801 116 665.467 96.1336 668.667 84.0003C669.467 81.467 670.001 75.7336 670.001 71.3336C670.001 53.867 674.801 33.867 683.334 15.7336C689.334 2.93363 690.934 2.4003 692.667 12.267C693.867 18.5336 693.334 20.4003 691.201 17.3336C688.801 14.0003 691.067 58.4003 694.134 76.4003C696.667 91.6003 696.801 96.1336 696.001 146C694.134 257.867 694.534 273.334 698.401 273.334C699.734 273.334 699.867 263.867 699.601 232.534C699.201 208.267 699.467 192 700.267 192.4C700.934 192.8 701.601 203.2 701.734 215.6C702.134 241.2 704.134 269.334 706.001 273.734C706.801 275.6 707.201 250.534 707.201 205.334C707.201 166.134 707.734 129.734 708.401 124.667C709.201 119.467 709.601 103.6 709.467 89.3336C709.201 61.7336 708.001 52.5336 700.667 22.1336C695.067 -0.533036 692.001 -4.26637 685.601 4.26696ZM699.867 45.467C705.067 72.0003 706.801 90.4003 704.934 100.534C704.001 105.2 703.334 111.2 703.334 113.867C703.334 116.667 702.801 118.534 702.134 118.134C701.467 117.734 700.934 112.134 700.801 105.734C700.801 99.2003 700.134 90.9336 699.467 87.067C698.667 83.3336 697.467 71.067 696.667 59.7336C695.734 48.5336 694.667 36.667 694.001 33.3336C692.801 27.067 693.601 23.6003 695.467 26.9336C696.134 28.0003 698.001 36.4003 699.867 45.467ZM702.934 160.267C702.534 161.2 702.267 160.534 702.267 158.667C702.267 156.8 702.534 156.134 702.934 156.934C703.201 157.867 703.201 159.467 702.934 160.267ZM698.001 305.334C698.001 306 695.067 306.667 691.334 306.667C687.734 306.667 684.667 306 684.667 305.334C684.667 304.534 687.734 304 691.334 304C695.067 304 698.001 304.534 698.001 305.334ZM702.001 318.134C702.001 319.334 701.067 320 699.734 319.734C696.401 319.067 696.001 316 699.201 316C700.801 316 702.001 316.8 702.001 318.134ZM698.401 336.534C699.467 339.2 696.934 339.867 689.601 339.067C679.734 337.867 682.134 335.334 693.467 334.8C696.001 334.8 698.001 335.467 698.401 336.534ZM701.067 346C700.401 358.134 700.534 380.8 701.334 390.934C702.001 398.8 701.734 402.667 700.801 402.667C700.134 402.667 699.201 400.667 698.801 398.267C697.201 388.534 696.934 387.6 697.467 394C697.734 397.6 698.401 411.467 698.934 424.667C699.734 443.734 700.134 447.067 700.801 440.667C701.334 436.267 701.867 428.8 702.001 424L702.401 415.334L703.467 423.867C705.067 436.267 707.467 484 706.534 485.467C705.201 487.734 702.134 486.667 701.467 483.6C701.201 482 701.067 488.134 701.467 497.334C702.401 524.267 697.867 533.867 690.801 519.867L687.334 512.8V462.8C687.334 409.2 686.267 378.667 684.401 378.667C683.867 378.667 683.201 382.134 683.201 386.267L682.934 394L681.867 386C681.334 381.6 680.401 370.4 679.867 361.067L678.934 344.134L682.134 343.467C687.467 342.267 693.067 341.6 697.334 341.867C700.934 342 701.334 342.4 701.067 346ZM684.667 458.534C684.667 472.667 684.267 484.8 683.867 485.467C683.467 486.134 682.267 486.667 681.067 486.667C679.334 486.667 679.067 483.467 679.601 460.934C680.001 446.934 680.667 434.267 681.334 432.934C683.867 427.2 684.801 434.4 684.667 458.534ZM707.334 492.134C707.334 492.8 706.401 493.334 705.334 493.334C704.267 493.334 703.334 492.4 703.334 491.334C703.334 490.134 704.134 489.734 705.334 490.134C706.401 490.667 707.334 491.467 707.334 492.134ZM682.001 514.534C682.001 516.134 679.334 517.867 678.401 516.934C677.467 516 679.201 513.334 680.801 513.334C681.467 513.334 682.001 513.867 682.001 514.534ZM684.667 519.867C684.667 521.467 680.934 522.8 680.134 521.467C679.734 520.8 679.734 520 680.267 519.467C681.467 518.267 684.667 518.534 684.667 519.867ZM707.867 520.667C707.067 522.8 704.667 523.467 704.667 521.6C704.667 520.134 706.134 518.667 707.467 518.667C708.134 518.667 708.267 519.6 707.867 520.667ZM706.001 526C706.001 527.067 705.067 528 704.001 528C701.867 528 701.334 526.4 702.934 524.934C704.401 523.334 706.001 523.867 706.001 526ZM698.534 535.734C699.734 537.6 696.934 540.4 694.801 539.6C691.734 538.4 692.134 534.667 695.201 534.667C696.667 534.667 698.134 535.2 698.534 535.734Z" fill="#28682E"></path><path d="M315.067 25.3332C293.467 29.8666 276.667 36.7999 266.934 45.3332C259.867 51.5999 257.867 52.5332 247.467 55.1999C242.934 56.3999 233.734 60.1332 227.334 63.4666C212.401 71.1999 204.001 79.7332 198.801 92.6666C193.467 106.133 193.601 105.867 187.601 106.8C181.467 107.6 173.201 112.8 157.201 126.133C143.867 137.2 135.734 146.8 126.667 162C116.934 178.133 114.934 188.267 118.667 203.067C119.334 205.467 118.134 207.867 113.601 213.2C106.401 221.6 104.934 226.667 103.734 248C103.067 261.733 103.201 264.8 105.334 269.2C107.601 274.4 107.601 274.667 104.934 280.267C103.201 283.867 102.401 287.333 102.934 289.733C103.334 291.867 102.934 294.267 101.867 295.467C100.401 297.333 100.534 298 103.201 299.867C107.601 303.2 106.001 308 100.534 308C95.6006 308 94.4006 310.667 96.4006 317.067C97.3339 319.867 97.4673 322.533 96.6673 323.867C95.7339 325.6 95.0673 324.933 93.3339 320.8C89.8673 312.4 89.3339 299.333 92.1339 289.333C94.9339 279.333 95.0673 271.2 92.8006 262.667C91.7339 259.067 91.3339 251.467 91.6006 243.333C92.0006 232.667 92.8006 228.8 95.2006 224C98.6673 217.467 108.667 204 110.267 204C110.667 204 111.067 198.133 111.067 190.933C111.067 176 113.601 166.8 122.134 150.8C131.334 133.733 142.401 121.467 160.001 109.067C168.934 102.8 186.534 93.3332 189.201 93.3332C190.401 93.3332 191.334 92.6666 191.334 91.8666C191.334 89.3332 182.001 91.8666 172.801 96.7999C150.934 108.8 134.001 124.933 118.267 149.067C105.601 168.667 104.134 173.067 105.067 188.133C105.734 199.067 105.601 200.267 102.801 203.733C98.2673 209.2 91.7339 221.733 89.3339 229.6C86.4006 239.6 86.6673 257.733 90.0006 268.533L92.8006 277.333L89.3339 286.8C83.8673 302.267 85.0673 322.667 91.8673 328.133C94.2673 330.133 94.4006 330.933 93.0673 335.467C90.0006 346 89.7339 352.667 92.0006 362.133C94.5339 372.533 100.401 382.667 106.134 386.8C109.734 389.333 110.001 390.267 110.001 397.733C110.134 417.333 120.401 441.6 139.201 467.067C147.201 478 163.601 490.8 174.401 494.8C177.334 495.867 180.401 498.133 181.334 500C185.867 508.8 212.401 530.267 229.334 538.933C235.734 542.267 246.134 545.467 252.667 546.267C260.134 547.067 276.667 544.4 284.534 541.067C290.801 538.4 293.334 539.467 292.001 544.133C291.467 545.867 293.334 546.933 300.801 549.333C306.001 551.067 312.801 552.4 315.867 552.4C326.934 552.4 341.867 550.4 344.267 548.667C347.734 546.133 346.001 545.2 340.667 546.667C333.201 548.8 308.534 549.867 304.267 548.133C301.067 546.933 300.801 546.4 302.267 544.133C304.401 540.667 301.601 537.333 296.534 537.333H292.534L294.667 533.2C300.401 522.267 297.734 508 290.001 508C285.067 508 282.001 511.067 282.001 516.133C282.001 519.6 281.201 520.4 275.867 522.667C272.534 524.133 269.601 525.333 269.334 525.333C269.067 525.333 269.201 520.933 269.467 515.6C270.401 501.333 270.267 500.8 267.867 499.067C260.401 493.6 249.867 501.867 252.001 511.467C255.201 525.733 258.001 527.333 258.001 514.667C258.001 504.933 258.801 502.667 262.667 502.667C265.467 502.667 265.601 503.2 265.334 510.933C265.201 515.6 264.667 520.4 264.134 521.6C263.601 522.8 263.734 524.8 264.401 526.133C267.067 530.933 262.801 535.867 257.467 533.867C256.267 533.467 254.934 531.733 254.534 530C253.867 527.467 252.667 526.933 245.067 526.133C240.267 525.6 234.267 524.4 231.601 523.2C223.601 519.867 209.201 507.2 200.534 495.867C196.134 490 192.134 485.467 191.734 485.867C190.667 486.8 193.867 494.267 197.601 500.133C200.534 504.667 222.134 523.2 228.001 526.4C229.601 527.2 235.467 528 241.201 528.133C250.401 528.533 251.467 528.8 250.934 530.933C250.134 534 254.667 537.333 259.467 537.333C261.467 537.333 264.934 535.733 267.201 533.867L271.334 530.4L274.001 533.6C276.667 536.667 276.667 536.667 278.667 534C279.867 532.533 281.601 530.267 282.667 529.067C283.734 527.733 285.067 524.133 285.467 521.067C287.201 509.6 292.667 509.867 292.667 521.333C292.667 529.2 289.201 533.867 279.334 539.2C272.801 542.8 271.601 542.933 260.801 542.267C245.334 541.467 238.401 538.933 222.667 528.8C202.534 515.733 195.734 510.667 188.134 502.933C184.401 499.067 175.601 492 168.534 487.333C161.601 482.667 152.267 475.067 147.867 470.4C139.067 460.933 126.267 440.533 121.067 427.867C117.867 419.867 114.134 403.067 114.001 395.867C114.001 394 111.467 388.533 108.534 383.867C100.267 371.2 97.8673 364.8 97.4673 354.133C96.6673 331.467 102.934 318.8 118.534 312C126.667 308.267 132.534 309.2 137.334 314.933C141.067 319.467 141.334 323.6 137.734 325.867C135.867 326.933 134.534 326.4 130.934 322.933C125.734 317.867 123.201 317.467 123.734 321.6C124.001 324.267 123.334 324.667 118.401 325.067C113.734 325.467 112.001 326.4 108.667 330.4C102.001 338.4 99.0673 351.6 102.001 359.467L103.467 363.067L106.401 360.133C108.134 358.667 110.134 357.333 110.934 357.333C113.467 357.333 114.134 361.6 112.001 364C110.934 365.2 110.001 368.4 110.001 371.067C110.001 375.2 111.067 377.067 115.867 381.733C121.334 386.933 121.867 388.133 123.067 396.667C125.067 411.067 131.867 431.467 138.934 443.733C150.267 463.733 173.734 484 185.734 484H190.667L185.334 481.2C175.467 475.867 168.134 470.133 157.067 459.333C147.467 449.867 145.201 446.667 139.467 434.533C135.867 426.933 132.667 419.2 132.267 417.333C129.467 403.6 122.534 384.133 119.201 380.267C113.867 374.133 113.067 370.267 116.534 365.867C118.134 363.867 119.334 361.467 119.334 360.533C119.334 359.2 121.067 358.667 125.067 358.667C136.934 358.667 146.001 353.467 146.001 346.667C146.001 340.8 142.267 338.533 134.267 339.6C128.801 340.133 126.801 339.867 124.934 338.267C122.934 336.4 121.867 336.267 118.267 337.6C114.934 338.933 113.734 338.933 112.401 337.6C109.334 334.533 112.934 331.333 119.467 331.333C122.667 331.333 126.401 330.8 127.601 330.133C128.801 329.6 130.934 329.733 132.534 330.533C136.534 332.8 139.201 332.267 142.667 328.667C149.334 322.133 145.201 311.2 134.401 306.4C128.934 304 127.467 303.867 122.134 305.2C113.067 307.467 112.001 307.467 112.001 305.333C112.001 301.733 108.267 291.467 106.134 288.933C104.401 286.8 104.667 286.133 110.001 280.667L115.867 274.667L111.601 270.267C107.334 265.867 107.334 265.733 107.334 252.4C107.334 235.2 109.067 227.2 114.401 219.2C123.867 205.067 123.467 206.4 122.001 198.267C117.334 173.733 143.334 136.667 180.801 114.533C191.067 108.4 194.134 108.267 195.334 114C198.134 127.467 209.467 134.8 217.467 128.267C223.601 123.333 221.601 117.333 213.867 117.333C211.734 117.333 210.001 117.2 210.001 116.933C210.667 112.267 215.334 99.3332 216.534 98.9332C217.334 98.6666 218.667 100.267 219.467 102.667C220.667 106 221.601 106.667 223.867 106.133C225.601 105.733 228.401 106.533 230.667 108C239.467 113.733 245.067 109.6 241.201 100.133C238.667 93.7332 232.267 89.3332 225.601 89.3332C222.934 89.3332 220.534 88.7999 220.134 88.1332C218.801 86.1332 231.734 76.2666 240.934 72.1332C245.601 69.9999 252.401 67.8666 256.001 67.3332C260.267 66.6666 264.534 64.9332 267.734 62.2666C277.467 54.6666 282.134 51.9999 290.401 49.3332C301.334 45.9999 320.667 42.6666 330.401 42.6666C341.867 42.6666 372.534 46.6666 378.667 48.9332C381.601 49.9999 384.934 50.9332 386.001 50.9332C387.067 50.9332 396.134 50.3999 406.134 49.8666C423.467 48.9332 438.001 50.5332 438.001 53.1999C438.001 53.8666 435.467 55.3332 432.534 56.7999C424.934 60.1332 420.001 67.5999 421.201 74.1332C422.667 81.3332 424.667 84.9332 428.267 86.5332C430.001 87.3332 432.001 87.9999 432.667 87.9999C435.467 87.9999 438.001 83.4666 438.001 78.5332C438.001 73.5999 439.601 71.7332 441.334 74.6666C441.734 75.3332 443.334 75.9999 444.801 75.9999C446.667 75.9999 447.334 75.0666 447.334 72.6666C447.334 68.9332 451.601 63.9999 454.667 63.9999C455.734 63.9999 456.667 65.0666 456.667 66.5332C456.667 67.8666 455.734 69.7332 454.667 70.6666C451.867 72.9332 452.134 75.5999 455.334 76.6666C459.067 77.8666 458.667 79.7332 454.401 81.5999C445.201 85.4666 441.867 93.0666 447.067 97.7332C452.401 102.533 463.467 98.7999 468.667 90.3999C470.934 86.6666 471.334 84.1332 471.067 74.6666L470.801 63.3332L477.067 63.4666C484.934 63.4666 486.667 65.0666 484.534 69.7332C482.401 74.3999 484.801 77.3332 490.667 77.3332C495.601 77.3332 500.001 80.2666 502.401 85.3332C503.467 87.4666 508.267 90.7999 516.001 94.6666C528.001 100.667 543.334 110.267 543.334 111.867C543.334 112.267 545.334 114.8 547.734 117.333C565.734 136.8 585.067 172.8 589.334 194.667C589.734 196.4 592.934 200.933 596.534 204.533C602.801 210.933 607.334 218.8 607.334 223.333C607.334 224.4 606.001 226.667 604.401 228.267C600.801 231.867 602.667 235.333 608.267 235.467C610.401 235.467 612.801 236 613.734 236.533C615.601 237.733 615.867 248 614.001 248C613.334 248 609.867 246.133 606.401 244C601.334 240.8 598.667 240 592.667 240C584.801 240 582.534 241.067 578.801 246.667C576.401 250.267 575.867 259.333 578.001 260.667C580.401 262.133 584.667 259.867 584.667 257.333C584.667 255.867 585.867 254.133 587.201 253.333C590.667 251.467 590.934 251.6 591.734 254.8C592.401 257.333 593.067 257.6 598.401 256.8C602.934 256.133 604.667 256.4 606.001 258C608.401 260.933 604.801 264.533 598.934 264.933C596.667 265.067 591.734 265.733 588.001 266.267C582.401 267.2 581.201 267.867 580.134 271.067C579.067 274 579.334 275.333 581.601 278.4C585.467 283.6 594.934 284 606.534 279.333C608.534 278.4 608.801 278.667 608.134 280.933C606.667 285.333 608.534 287.6 614.801 289.2C618.001 290 620.667 291.2 620.667 291.733C620.667 294.933 613.867 308.8 610.801 312.133C607.201 316 607.067 316.4 607.201 331.067C607.334 344.133 606.801 351.067 604.134 370.667C603.067 377.333 595.867 396.8 591.067 405.2C584.134 417.733 563.334 442.133 555.734 446.8C551.734 449.333 551.334 450.133 552.001 453.6C553.067 458 549.867 464 546.667 464C545.601 464 543.467 465.2 542.001 466.667C539.734 468.933 538.801 469.067 536.534 468C530.534 464.667 527.467 473.867 532.801 479.467C535.867 482.8 535.201 485.333 531.201 485.333C529.334 485.333 528.667 484.4 528.667 481.6C528.667 471.867 522.267 460.933 513.867 456.533C511.867 455.6 507.467 454.667 504.134 454.667C499.334 454.667 497.734 455.333 495.467 458.133C493.867 460.133 492.667 462.8 492.667 464.133C492.667 467.733 497.467 470.4 502.801 469.733C507.601 469.067 508.667 470.533 505.334 473.333C502.267 475.867 502.801 477.067 508.667 480C513.334 482.4 514.001 483.333 514.001 487.467C514.001 491.867 513.734 492.133 510.401 491.733C507.467 491.467 506.534 490.533 506.001 487.467C505.601 485.333 504.267 482.933 502.934 482.133C500.934 480.933 500.001 481.333 497.201 484.667C494.534 488 493.734 488.4 492.667 486.667C492.001 485.6 491.334 482.8 491.334 480.533C491.334 474.933 488.801 472.8 484.001 474.667C475.734 477.867 474.934 485.333 482.001 492.667C486.001 496.8 495.334 500.933 495.334 498.667C495.334 498 492.401 495.867 488.801 494C480.934 489.6 478.267 485.467 480.401 480.667C481.467 478.4 483.067 477.333 485.334 477.333C488.134 477.333 488.667 478 488.667 480.933C488.667 486 493.334 493.333 496.534 493.333C498.534 493.333 499.067 492.4 498.801 488.933C498.667 483.467 502.401 482.933 503.067 488.4C503.467 491.067 504.667 492.533 508.134 494L512.801 495.867L509.867 501.6C508.267 504.8 506.134 508.4 504.934 509.6C503.067 511.867 502.667 511.733 498.401 507.333C495.867 504.8 493.067 502.667 492.134 502.667C488.934 502.667 487.201 506.267 488.001 511.067C488.801 515.333 488.534 515.867 483.867 518.533C480.001 520.933 477.601 521.333 473.467 520.8C467.334 519.867 466.267 520.4 453.201 530.267C432.801 545.867 412.667 552.133 382.667 552.4C366.267 552.533 363.067 552.267 356.801 549.6C352.801 548 349.201 547.067 348.801 547.333C346.134 550.133 366.134 557.333 376.401 557.333C402.534 557.333 449.601 541.333 461.734 528.267C467.201 522.533 467.734 522.267 471.467 523.6C476.401 525.467 483.201 523.733 488.801 519.067C492.267 516 492.801 514.933 492.001 511.067C491.467 507.733 491.601 506.667 493.201 506.667C495.601 506.667 498.001 510.667 498.001 514.667C498.001 517.467 498.001 517.467 502.134 515.067C509.867 510.533 518.001 496.8 518.001 488.4C518.001 482 516.801 480.133 512.001 478.933C507.467 477.733 505.867 474.667 509.734 474.667C514.134 474.667 515.734 471.467 512.801 468.667C510.001 466.267 506.401 465.867 500.401 467.333C496.934 468.267 496.667 468 496.667 464.267C496.667 459.867 500.667 456 505.067 456C509.334 456 517.201 461.2 520.667 466.267C523.601 470.667 524.001 472.4 523.867 483.867C523.867 490.933 523.067 498.8 522.134 501.6C518.134 513.467 494.934 527.733 477.734 529.067C469.467 529.6 468.267 530.133 461.867 535.467C458.134 538.8 447.734 545.067 438.801 549.467C423.601 556.933 421.601 557.6 404.667 560.133C385.201 563.067 369.601 562.8 357.467 559.2C352.534 557.867 348.267 557.6 339.467 558.533C323.201 560.267 308.934 558.533 295.334 553.333C289.067 550.933 283.201 548.4 282.267 547.6C281.334 546.933 280.267 546.667 279.867 546.933C278.134 548.667 296.267 558.933 306.134 561.867C315.067 564.533 331.201 564.533 341.334 561.867C348.401 560.133 350.134 560 356.667 561.867C373.201 566.267 382.134 566.933 394.134 564.8C400.267 563.6 407.201 562.4 409.334 562.133C417.467 561.2 424.134 559.6 429.334 557.333C446.001 550.133 461.067 542 466.401 537.333C470.667 533.467 473.601 532 476.667 532C482.401 532 499.467 526.133 506.267 521.867C513.867 517.067 520.401 510.8 524.134 505.067C526.134 501.867 528.401 500 530.001 500C542.667 500 561.867 477.067 562.001 461.867C562.001 456.8 562.401 456.267 567.334 454C573.601 451.2 585.067 439.733 592.934 428.8C597.867 421.733 600.667 415.867 612.001 388.667C617.867 374.533 623.601 346.8 623.867 330.667C624.134 319.733 624.667 316.933 627.867 310.4C634.534 296.933 634.001 280.933 626.401 264.133C623.601 258 623.467 256.267 624.534 250.133C625.867 242.8 624.934 235.6 621.334 224.667C618.534 216.267 611.201 203.067 606.801 198.4C604.267 195.733 603.334 193.333 603.334 189.2C603.334 180.667 598.801 167.2 591.734 154.933C573.734 123.867 551.734 99.4666 532.667 89.3332C526.401 85.9999 519.601 83.0666 517.334 82.6666C514.134 82.1332 512.801 80.6666 510.401 75.8666C504.801 64.1332 493.201 55.7332 476.001 51.3332C471.734 50.2666 466.401 49.3332 464.401 49.3332C461.867 49.3332 458.934 47.5999 454.934 43.4666C448.267 36.9332 438.134 32.9332 422.667 30.9332C411.467 29.4666 405.867 29.8666 397.734 32.5332C391.867 34.6666 391.467 34.5332 385.601 31.3332C370.934 23.0666 338.801 20.3999 315.067 25.3332ZM363.867 30.1332C369.734 31.3332 378.001 33.5999 382.134 35.3332C388.667 37.9999 390.667 38.2666 395.601 37.0666C409.067 33.9999 441.734 39.1999 452.267 45.9999C456.267 48.6666 455.334 50.2666 448.667 51.3332C444.534 51.9999 442.534 51.5999 439.601 49.4666C432.134 44.2666 406.267 42.5332 392.001 46.3999C389.067 47.1999 386.534 46.9332 382.667 45.1999C369.734 39.4666 337.601 35.5999 320.001 37.5999C303.734 39.4666 280.001 47.7332 273.867 53.5999C263.467 63.4666 262.267 63.9999 252.267 63.9999C243.067 63.9999 242.001 64.2666 232.667 70.1332C215.601 80.5332 212.134 85.3332 210.001 102.267C209.201 108 208.267 114 208.001 115.733C207.467 118 208.134 119.333 211.334 121.067C216.001 123.733 216.267 124.8 212.667 126C203.334 128.933 196.001 110.133 200.934 95.8666C203.601 87.8666 211.067 77.5999 217.601 72.7999C224.934 67.4666 242.001 59.8666 252.401 57.3332C256.667 56.3999 262.534 53.4666 267.334 49.8666C294.134 30.1332 327.734 23.3332 363.867 30.1332ZM477.201 54.9332C480.134 55.5999 483.734 56.9332 485.201 57.8666C503.601 69.1999 506.401 71.4666 509.201 77.1999C511.601 82.1332 512.934 83.4666 518.001 85.0666C521.334 86.1332 526.267 88.5332 528.934 90.2666C531.734 91.8666 534.534 93.3332 535.201 93.3332C535.867 93.3332 539.867 95.9999 544.267 99.1999C551.067 104.4 563.734 118.8 574.134 133.333C585.067 148.533 597.467 172 598.667 179.333C598.934 181.467 599.601 185.6 600.001 188.267C600.401 190.933 602.801 196.133 605.201 199.6C611.201 208.4 614.534 215.067 617.867 225.067C621.067 235.067 622.934 252.533 620.934 253.867C618.534 255.333 617.334 251.6 617.734 243.6C618.134 237.467 617.601 235.2 615.201 231.867C612.401 227.867 612.401 227.867 610.401 230.533C608.667 233.067 604.667 234.4 604.667 232.533C604.667 232.133 605.867 230 607.334 227.867C611.467 222.133 609.067 214.667 600.001 205.6C593.467 199.067 592.801 197.733 591.334 189.6C587.467 167.333 568.934 134.667 548.001 113.333C540.801 105.867 523.601 94.7999 513.601 90.9332C506.401 88.2666 504.667 86.9332 504.667 84.1332C504.667 79.4666 499.601 75.9999 492.801 75.9999C488.001 75.9999 486.001 75.4666 485.467 73.7332C484.534 71.4666 486.667 69.3332 489.867 69.3332C492.934 69.3332 488.667 65.1999 482.667 62.5332C474.801 58.9332 454.934 59.0666 448.934 62.6666C446.534 64.1332 443.201 65.3332 441.467 65.3332C436.401 65.3332 433.467 69.7332 434.534 75.9999C435.201 80.2666 434.934 81.5999 433.201 82.2666C430.134 83.4666 427.734 80.1332 426.801 73.0666C425.867 67.3332 426.134 66.5332 429.867 62.9332C433.867 59.1999 443.201 55.7332 455.334 53.4666C461.601 52.2666 468.534 52.7999 477.201 54.9332ZM468.134 67.3332C468.667 69.1999 468.667 74.1332 468.401 78.2666C467.867 84.7999 467.067 86.3999 462.934 90.1332C456.667 95.8666 451.601 97.3332 449.067 93.8666C446.267 89.9999 447.467 87.5999 453.734 84.7999C460.001 81.8666 462.001 77.8666 459.601 72.6666C457.334 67.7332 459.067 63.9999 463.467 63.9999C466.401 63.9999 467.467 64.7999 468.134 67.3332ZM229.867 95.1999C233.601 97.1999 238.001 102.667 238.001 105.333C238.001 107.867 232.667 106.667 229.734 103.333C228.134 101.467 225.867 100.267 224.801 100.533C223.601 100.933 221.334 99.4666 219.601 97.1999L216.401 93.3332H221.334C224.001 93.3332 227.867 94.2666 229.867 95.1999ZM607.334 247.733C614.534 251.2 618.801 256.267 625.334 269.333C630.134 278.533 630.267 279.467 629.734 289.2C629.334 296.267 628.001 301.867 625.334 308C622.534 314.667 621.334 320 620.534 330.667C620.001 338.4 618.934 347.067 618.267 350C617.467 352.933 616.267 358.533 615.467 362.533C612.401 377.733 604.134 402.133 597.201 416.8C593.734 424.267 579.867 441.2 571.867 447.733C565.734 452.8 558.401 456.4 556.667 455.333C553.734 453.6 555.734 450.933 564.134 445.467C574.534 438.667 578.267 434.667 584.934 423.867C592.267 411.733 605.601 379.333 607.867 368C613.067 341.067 613.734 332.4 611.334 322C610.267 317.067 610.401 316.533 615.334 311.2C618.934 307.2 620.801 303.6 622.134 298.267C624.134 289.2 622.801 287.067 615.601 286.4C611.734 286.133 610.667 285.467 610.667 283.333C610.667 281.067 611.467 280.667 615.867 280.8L620.934 280.933L620.134 275.2C618.534 262.8 608.267 252.533 599.067 254C593.867 254.667 592.801 253.733 595.601 250.933C596.801 249.733 596.534 249.2 594.801 248.533C593.334 248 590.401 249.067 586.534 251.867C583.201 254.133 580.001 256 579.334 256C575.201 256 581.734 244.4 586.267 243.733C591.734 242.933 601.201 244.667 607.334 247.733ZM613.201 264.4C615.334 267.733 611.334 273.467 604.401 276.933C595.201 281.733 584.667 280.4 584.667 274.667C584.667 272.533 585.334 272.133 588.667 272.8C591.067 273.333 592.667 273.067 592.667 272.267C592.667 271.467 595.334 270.4 598.667 269.867C605.067 268.933 608.667 266.533 608.667 263.067C608.667 260.667 611.334 261.333 613.201 264.4ZM618.001 274C618.001 276.667 617.334 277.333 614.667 277.333C610.934 277.333 610.801 276.933 612.667 273.2C614.667 269.467 618.001 270 618.001 274ZM103.334 316C103.334 316.667 102.401 317.333 101.334 317.333C100.267 317.333 99.3339 316.667 99.3339 316C99.3339 315.2 100.267 314.667 101.334 314.667C102.401 314.667 103.334 315.2 103.334 316ZM113.067 340.667C114.534 341.6 116.401 342.133 117.201 341.867C118.134 341.467 119.734 342.133 120.667 343.333C122.667 345.733 134.001 346.133 136.401 343.733C138.801 341.333 140.934 344.933 139.201 348.267C137.601 351.2 128.134 353.867 122.534 352.933C120.267 352.533 117.734 352.667 117.201 353.2C116.534 353.867 113.467 354 110.401 353.6C105.334 353.067 104.667 352.667 104.667 349.733C104.667 346.267 108.134 338.667 109.734 338.667C110.267 338.667 111.734 339.6 113.067 340.667ZM558.267 465.733C552.001 480 539.601 494 531.067 496.8C527.601 497.867 527.067 497.067 528.134 492.8C528.667 490.4 530.534 488.533 533.467 487.333C538.267 485.333 541.067 481.2 538.267 480.267C535.334 479.333 532.534 475.733 532.934 473.6C533.201 472.133 534.934 471.333 538.267 471.333C540.934 471.2 544.134 470.133 545.334 468.933C546.534 467.6 548.401 466.667 549.334 466.667C550.401 466.667 552.267 465.067 553.601 462.933C558.801 454.8 562.134 456.8 558.267 465.733Z" fill="#28682E"></path><path d="M35.4676 32.5331C34.2676 33.8665 33.7342 49.9998 33.6009 89.4665C33.3342 138.933 33.0676 144.666 31.2009 145.066C29.4676 145.333 28.9342 143.6 28.2676 134.4C27.7342 128.266 26.5342 111.066 25.4676 95.9998C24.2676 80.9331 23.3342 60.3998 23.3342 50.2665C23.3342 32.1331 22.1342 27.8665 19.3342 35.4665C18.5342 37.4665 18.0009 60.5331 18.0009 91.4665C18.0009 136.933 17.7342 144 16.0009 144C13.7342 144 12.5342 139.866 12.9342 134C13.0676 131.733 12.6676 122.533 12.1342 113.333C11.4676 104.133 11.0676 83.3331 11.0676 67.0665C11.0676 39.7331 10.4009 33.7331 7.73425 36.5331C5.73425 38.5331 3.06758 67.0665 2.66758 91.9998C2.40091 107.066 1.73424 129.866 1.20091 142.666L0.267578 166L3.86758 172.933C5.73425 176.8 7.33425 181.733 7.33425 183.866C7.33425 189.733 9.33425 194.133 15.4676 201.333C20.1342 206.8 21.0676 209.066 22.1342 216.933C25.7342 242.533 24.6676 269.2 19.6009 275.067C17.8676 276.933 17.8676 278.133 19.2009 282.4C20.6676 286.667 20.6676 288.267 19.0676 291.467C15.0676 299.467 13.4676 310.267 15.0676 317.467C17.2009 326.4 17.0676 330 14.6676 332C13.2009 333.2 13.0676 334.267 14.1342 336.267C16.8009 341.2 13.3342 392.533 8.80091 416.667C7.06758 425.867 7.86758 436.8 11.3342 453.467L14.4009 467.733L9.60091 479.467C-1.99909 508.133 -0.399089 521.6 16.1342 538.133C24.5342 546.4 30.9342 549.067 36.8009 546.533C43.6009 543.733 54.8009 529.2 58.0009 519.2L60.6676 510.267L55.8676 494.267C51.2009 478.667 51.0676 477.733 51.8676 462.8C52.2676 454.267 53.0676 443.6 53.4676 439.067C54.0009 433.733 53.4676 427.467 52.1342 421.733C49.4676 409.733 47.4676 390.267 46.1342 363.733C45.0676 343.2 45.2009 341.733 47.7342 337.067C50.0009 332.8 50.2676 331.467 48.9342 328.667C47.7342 326 47.6009 323.2 48.8009 316.8C50.1342 309.733 50.0009 307.867 48.2676 304.533C43.0676 294.8 42.1342 291.733 42.2676 283.067C42.2676 278 41.4676 268 40.4009 260.666C39.2009 252.666 38.4009 239.333 38.5342 227.2L38.6676 207.066L45.0676 197.6C48.5342 192.266 51.3342 186.533 51.3342 184.8C51.3342 183.066 53.3342 177.466 55.6009 172.533C59.8676 163.6 60.0009 162.8 60.0009 145.333C60.0009 135.466 58.9342 117.066 57.7342 104.666C56.4009 92.1331 55.3342 74.7998 55.2009 65.9998C55.0676 57.1998 54.5342 46.3998 54.0009 41.9998L53.0676 33.9998L52.6676 45.3331C52.5342 52.7998 52.0009 55.4665 51.4676 53.3331C49.8676 48.2665 48.4009 87.3331 48.9342 117.6C49.2009 137.066 48.9342 144.266 47.7342 145.466C46.8009 146.4 45.7342 146.8 45.2009 146.4C43.8676 144.933 40.8009 121.6 39.4676 102L38.2676 83.3331L38.6676 110.666C39.3342 146.666 40.4009 151.733 46.9342 150.4C50.2676 149.733 51.2009 143.333 51.4676 116.666C51.6009 93.9998 52.8009 93.8665 54.4009 116C54.8009 120.8 55.7342 130.933 56.5342 138.533C58.6676 158.133 55.6009 172.266 48.5342 176.133C46.2676 177.333 45.8676 178.4 46.5342 181.6C47.0676 184.533 46.1342 187.6 42.4009 194.533L37.4676 203.6H29.8676C21.4676 203.733 20.1342 202.666 14.0009 190.666L11.0676 184.8L13.7342 182.533L16.5342 180.4L13.2009 177.2C5.60091 170.133 5.46758 169.2 5.60091 112.666C5.60091 51.7331 7.73425 36.1331 9.20091 85.0665C9.73425 102.133 9.86758 116.533 9.46758 117.066C9.06758 117.733 9.46758 124.4 10.4009 132.133C12.0009 145.6 12.1342 146 15.3342 146C19.7342 146 20.2676 143.066 20.6676 119.333L21.0676 100.666L22.8009 121.333C24.8009 143.466 26.2676 149.333 30.0009 149.333C35.8676 149.333 36.0009 147.733 35.4676 94.7998C35.3342 67.1998 35.4676 45.0665 35.8676 45.4665C36.4009 45.8665 37.2009 51.8665 37.8676 58.7998L38.9342 71.3331L39.2009 51.7331C39.3342 32.6665 38.5342 28.7998 35.4676 32.5331ZM22.0009 68.1331C22.0009 87.3331 21.6009 97.1998 20.6676 96.6665C18.8009 95.5998 18.8009 38.6665 20.6676 38.6665C21.4676 38.6665 22.0009 49.3331 22.0009 68.1331ZM33.8676 215.333C32.1342 224 33.3342 243.066 36.6676 258.8C40.1342 275.066 40.1342 276.4 36.4009 275.2C34.6676 274.667 31.4676 274.4 29.0676 274.533C26.8009 274.667 24.5342 274.266 24.2676 273.733C24.0009 273.066 24.8009 264.266 26.1342 254C29.0676 231.333 29.2009 223.866 26.8009 216L25.0676 210L29.2009 208.533C31.4676 207.733 33.7342 207.333 34.2676 207.866C34.8009 208.266 34.5342 211.6 33.8676 215.333ZM34.4009 280.267C34.9342 281.6 35.3342 281.6 36.8009 280.267C39.3342 277.867 41.0676 278.267 40.0009 280.933C39.3342 282.267 38.5342 286 38.1342 289.333L37.3342 295.333L30.1342 295.733C26.1342 296 22.4009 295.6 21.8676 295.067C21.2009 294.4 21.6009 291.333 22.5342 288.133C23.6009 284.533 24.6676 282.8 25.2009 283.733C26.5342 286 28.6676 284.4 28.6676 281.2C28.6676 278.4 33.3342 277.6 34.4009 280.267ZM35.0676 298.667C36.8009 298.667 40.0009 300.533 42.2676 302.667C46.2676 306.667 46.2676 306.933 45.4676 316.4C44.9342 321.733 44.5342 327.6 44.5342 329.6C44.5342 333.733 42.0009 334.533 39.3342 331.333C38.1342 329.867 38.0009 327.2 39.0676 320.4C40.6676 309.067 39.6009 306.667 32.9342 306.667C24.1342 306.667 21.4676 310.933 22.8009 322.667C23.4676 328.267 23.2009 331.2 22.0009 332.667C19.2009 336 18.5342 334.933 18.4009 326.933C18.4009 322.8 17.8676 316.4 17.3342 312.8C16.2676 306.4 16.4009 306.133 21.3342 301.733C24.9342 298.533 27.3342 297.333 29.2009 297.867C30.8009 298.267 33.3342 298.667 35.0676 298.667ZM36.1342 319.333C36.4009 332.933 36.4009 332.933 39.6009 335.867C42.2676 338.4 42.4009 340 42.8009 361.6C42.9342 376.533 44.1342 391.467 45.8676 403.733C47.4676 414.267 48.4009 423.333 48.0009 424C47.3342 425.2 43.3342 426 43.3342 424.933C43.3342 424.8 42.6676 421.067 42.0009 416.667C40.0009 404.933 38.5342 388.533 37.2009 362.933C36.6676 352.8 36.9342 347.333 37.8676 346.133C39.6009 344.133 38.5342 340 36.2676 340C35.4676 340 33.7342 341.067 32.4009 342.267C30.0009 344.4 29.6009 344.4 26.0009 342.133C21.6009 339.6 21.3342 339.733 23.4676 344.533C24.4009 346.533 26.5342 348.267 28.8009 348.667C33.3342 349.733 33.6009 350.533 34.5342 367.333C36.4009 397.333 38.2676 415.867 40.1342 422.133C41.8676 428.533 41.7342 429.467 39.2009 435.2C37.2009 439.867 36.6676 443.467 36.9342 450.267L37.3342 459.333L38.9342 448.933C40.5342 439.733 42.8009 433.2 44.6676 433.333C45.0676 433.333 46.2676 434.133 47.6009 435.067C49.6009 436.667 49.4676 437.733 46.6676 449.333C44.4009 458.933 43.0676 462.133 41.3342 462.4C40.0009 462.667 38.5342 462.133 37.8676 461.067C36.9342 459.6 36.6676 459.733 36.6676 461.2C36.6676 462.267 35.3342 464.533 33.8676 466.133C31.2009 468.933 30.8009 469.067 27.8676 467.2C26.2676 466 23.4676 465.333 21.8676 465.6C19.2009 466 18.6676 464.933 15.7342 453.333C12.0009 438.4 12.1342 434.133 16.1342 433.6C18.5342 433.2 19.4676 434.267 21.2009 439.467C22.4009 442.933 23.3342 448.133 23.3342 450.933C23.3342 457.067 25.8676 457.733 26.2676 451.6C26.6676 444.267 26.0009 439.467 23.8676 434.133C22.4009 430.267 22.1342 426.933 22.8009 422.133C23.3342 418.4 24.0009 414.133 24.1342 412.667C24.9342 406.8 24.5342 369.467 23.6009 361.333C22.9342 355.6 22.6676 362.933 22.6676 383.333C22.6676 414.533 21.3342 425.333 17.4676 425.333C13.8676 425.333 12.4009 421.867 13.8676 416.4C15.2009 411.6 18.4009 349.333 17.6009 343.467C17.4676 341.867 18.8009 340.133 21.3342 338.667C26.9342 335.6 28.5342 328.8 25.4676 320.667C22.8009 314 23.7342 311.333 29.0676 310.267C35.6009 308.933 36.0009 309.6 36.1342 319.333ZM45.2009 468.8C45.6009 470 46.0009 472.267 46.0009 473.867C46.0009 475.467 46.6676 477.467 47.4676 478.267C49.8676 480.667 55.3342 503.067 55.3342 510.533C55.3342 515.067 54.4009 519.867 52.6676 523.2C50.1342 528.667 41.3342 538.667 39.2009 538.667C37.7342 538.667 35.3342 534.133 35.3342 531.2C35.3342 528.267 39.2009 524 41.8676 524C43.4676 524 43.4676 524.4 42.2676 525.6C41.3342 526.533 40.6676 528.4 40.6676 529.867C40.6676 532.133 41.2009 531.867 43.6009 528.267C46.0009 524.4 46.1342 523.333 44.6676 520.667C43.2009 518 43.3342 517.067 45.8676 513.6C48.9342 509.333 49.6009 501.467 47.3342 497.2C44.8009 492.667 43.3342 494.533 43.3342 502.267C43.3342 507.867 42.5342 511.2 40.0009 515.467C37.2009 520.267 36.0009 521.067 31.3342 521.6C26.5342 522 25.7342 521.6 21.3342 516.4C15.8676 509.867 14.4009 504.533 16.4009 498.667C18.4009 492.933 15.7342 493.467 13.2009 499.333C10.4009 506.133 10.9342 509.067 15.3342 513.6C19.0676 517.333 19.3342 517.867 17.3342 520C14.5342 523.067 14.8009 523.733 18.4009 523.067C20.5342 522.667 22.0009 523.467 23.7342 526.667C26.4009 531.2 25.8676 537.333 22.9342 537.333C20.5342 537.333 15.0676 531.2 10.5342 523.333C7.20091 517.6 6.66758 515.467 6.93425 507.333C7.46758 488.933 14.8009 476.133 22.6676 479.733C26.8009 481.6 26.6676 485.733 22.6676 486.4C17.7342 487.2 12.8009 489.6 12.0009 491.6C11.3342 493.467 11.6009 493.467 13.4676 491.867C16.0009 489.867 30.1342 490 34.1342 492.133C36.2676 493.2 37.2009 492.667 39.4676 488.667C41.0676 486.133 43.0676 484 44.1342 484C45.2009 484 46.0009 483.333 46.0009 482.667C46.0009 480.667 41.6009 481.067 38.2676 483.467C35.4676 485.333 35.3342 485.333 35.3342 482.8C35.3342 481.2 35.8676 480 36.5342 480C37.2009 480 39.4676 479.333 41.6009 478.4L45.3342 476.933L40.6676 476.133C37.4676 475.6 35.8676 474.533 35.6009 472.8C34.6676 468 43.4676 464.267 45.2009 468.8ZM25.4676 472.933C26.4009 474.933 27.3342 475.467 28.2676 474.533C29.2009 473.6 30.1342 473.867 31.3342 475.333C34.2676 478.8 30.9342 480.933 26.8009 478.133C24.9342 476.933 21.6009 476 19.3342 476C14.8009 476 14.2676 474.533 17.4676 471.333C20.2676 468.533 23.6009 469.2 25.4676 472.933ZM33.7342 530.667C34.0009 533.2 34.8009 536.133 35.6009 536.933C38.1342 540 35.7342 542.933 31.0676 542.4C26.2676 542 26.1342 541.6 28.1342 530.267C29.2009 523.6 33.0676 523.867 33.7342 530.667Z" fill="#28682E"></path><path d="M36.667 502.533C36.667 506.133 36.267 510.266 35.867 511.6C35.3336 513.466 35.7336 513.333 37.867 510.8C40.667 507.733 41.467 502.266 39.867 498.133C38.267 493.866 36.667 496.133 36.667 502.533Z" fill="#28682E"></path><path d="M20.8018 502.8C20.6685 505.334 21.6018 508.667 22.6685 510.134C25.0685 513.2 25.0685 513.067 22.6685 504.667C20.9351 498.267 20.8018 498.134 20.8018 502.8Z" fill="#28682E"></path><path d="M345.334 116.933C324.667 117.866 290.934 126.4 284.534 132.4C282.934 133.866 274.934 138.666 266.8 143.066C252 150.933 236.534 161.333 226.667 170C223.734 172.533 220.934 174.666 220.4 174.666C220 174.666 217.334 177.866 214.534 181.6C211.734 185.466 207.2 191.2 204.534 194.266C201.734 197.333 196.667 205.333 193.2 212.266C173.6 251.333 168 295.466 177.2 338.666C182.4 363.6 195.6 394.4 210.8 417.333C217.467 427.6 235.467 445.333 246.667 452.933C263.067 463.866 286.267 474.266 305.334 479.2C322.8 483.6 385.067 485.6 398.534 482.133C406.8 480 447.6 460.4 456.667 454.266C460 452 470.8 442.266 480.667 432.666C490.534 423.066 502.667 412.266 507.6 408.8C514.934 403.733 517.2 401.2 520.134 394.933C522 390.8 526.134 381.866 529.334 375.333C538.667 356 539.334 353.866 543.6 328.666C547.2 306.8 547.6 302.933 546.8 284.666C545.867 260.533 542.8 245.866 536.4 235.333C535.067 233.066 534 230.666 534 229.733C534 226.133 512.8 194.8 505.334 187.333C500.934 182.933 494 175.6 490.134 170.933C477.734 156.4 461.867 146.533 420.267 127.466C404.934 120.533 371.067 115.733 345.334 116.933ZM389.2 121.333C398 122.8 429.467 135.066 444.667 143.066C450.134 146 458.267 151.066 462.667 154.266C467.067 157.6 473.867 161.733 477.6 163.466C482.8 165.866 486.134 168.666 490.267 174.4C493.334 178.533 499.2 186 503.334 190.8C512.267 201.466 525.067 222.933 532.4 239.333C542.134 261.066 544.8 285.866 540.667 317.333C536 353.733 534.667 358.266 521.467 382C514 395.333 511.467 398.533 492.667 417.333C476.267 433.733 469.6 439.333 460.667 444.666C454.4 448.266 446.934 453.333 444 456C435.334 463.733 434.534 464.133 421.734 467.6C414.934 469.466 405.2 472.133 400 473.466C394.934 474.933 384.667 476.666 377.334 477.466C370 478.133 360.667 479.066 356.667 479.466C349.334 480.266 345.467 479.6 305.334 471.333C274.667 465.066 272.8 464.266 253.334 448.533C232.8 432.133 216.934 415.733 212 406C209.867 401.733 205.334 393.6 202 388C198.667 382.533 195.2 375.333 194.134 372C193.2 368.666 191.2 363.466 189.867 360.533C185.2 350.533 182 334.533 180 311.466C177.334 281.733 177.467 274.933 180.8 258.533C183.867 242.933 192.267 220.4 197.334 214.4C199.067 212.266 201.734 208 203.067 204.933C204.534 201.866 208 196.266 211.067 192.533C218.934 182.533 253.467 153.466 263.467 148.133C268.134 145.733 275.867 141.066 280.667 138C289.2 132.4 291.2 131.733 317.6 126.133C327.2 124 331.734 123.2 344 121.333C353.867 119.866 380.134 119.866 389.2 121.333Z" fill="#28682E"></path><path d="M331.601 130.134C325.468 131.734 316.668 135.467 316.668 136.4C316.668 137.2 339.068 134.667 349.468 132.667C361.468 130.4 381.201 130.134 389.335 132C394.001 133.067 394.401 132.934 392.268 131.334C388.935 128.934 380.935 128.134 358.001 128.267C346.001 128.267 336.001 128.934 331.601 130.134Z" fill="#28682E"></path><path d="M288.801 142.133C279.601 144.533 268.267 151.466 260.667 159.2C257.467 162.533 255.201 165.333 255.734 165.333C256.267 165.333 260.134 162.8 264.534 159.6C269.201 156.133 277.867 151.733 286.134 148.666C293.734 145.866 301.201 142.8 302.667 141.733C305.067 140.133 304.934 140 300.667 140.133C298.134 140.133 292.801 141.066 288.801 142.133Z" fill="#28682E"></path><path d="M456.801 163.6C457.068 164.4 463.334 169.733 470.668 175.6C486.001 187.733 489.334 191.333 496.934 204.4C500.001 209.733 503.201 214.933 504.134 216C510.001 223.333 523.468 253.333 528.534 270.666C529.601 274.266 528.401 296.533 526.001 317.333C520.668 364.266 520.268 366 514.401 376.533C510.801 383.066 515.468 380 519.868 372.933C524.134 366 525.068 362.533 528.668 338C530.134 328.4 531.868 316.933 532.668 312.533C533.334 308 534.001 297.466 534.001 289.2C534.001 276.266 533.601 273.466 531.334 270C529.868 267.733 526.001 257.6 522.668 247.333C517.068 229.6 508.668 211.333 498.401 194.4C493.601 186.4 480.534 175.466 465.868 167.333C456.668 162.266 456.268 162 456.801 163.6Z" fill="#28682E"></path><path d="M200.401 224.267C197.734 228.933 193.867 237.467 191.867 243.333C188.534 253.333 188.267 255.733 187.867 280.667C187.734 295.333 187.067 310.133 186.534 313.733C185.467 321.2 187.601 333.2 192.134 345.067C193.867 349.6 195.334 354.4 195.334 355.733C195.334 358.267 208.001 380.133 220.001 398.667C233.734 419.733 259.468 440.533 286.668 452.667C308.268 462.267 327.334 468.4 327.334 465.733C327.334 465.067 325.068 464 322.268 463.067C319.468 462.133 313.201 459.6 308.401 457.467C303.468 455.2 299.201 453.333 298.668 453.333C296.534 453.333 280.001 445.067 274.268 441.067C262.134 432.8 235.601 410.933 227.601 402.667C215.867 390.4 201.067 364.533 199.734 353.733C199.201 349.067 194.267 329.867 191.334 320.533C189.201 314 189.734 276.267 192.134 262.4C193.334 255.333 196.667 243.6 200.001 235.333C207.201 216.933 207.467 216 206.267 216C205.734 216 203.067 219.733 200.401 224.267Z" fill="#28682E"></path><path d="M367.868 255.866C360.268 264.666 359.335 265.333 354.668 265.333C349.735 265.333 349.201 264.666 351.335 261.333C352.535 259.599 352.801 259.599 354.001 261.333C355.601 263.999 358.668 261.066 357.468 257.999C356.268 254.799 352.268 256.133 350.268 260.533L348.401 264.266L344.668 260.666C339.868 256.133 336.668 256.933 336.668 262.799C336.668 270.133 333.868 275.999 330.401 275.999C324.001 275.999 320.135 283.466 323.468 289.466C324.535 291.599 324.268 292.533 321.735 294.666L318.668 297.066L321.468 300.266C323.068 301.866 324.535 304.266 324.935 305.333C325.335 306.399 328.401 308.133 331.601 308.933C343.601 312.133 347.735 319.999 336.135 317.333C330.135 315.999 326.668 317.333 325.335 321.333C324.001 325.333 325.868 327.066 330.401 326.133C333.468 325.466 335.201 325.999 337.201 327.999C340.001 330.533 340.135 330.533 347.068 327.199C350.801 325.333 354.001 323.333 354.001 322.666C354.001 320.266 357.868 321.199 359.335 323.866C360.135 325.466 360.268 328.666 359.468 332.933C358.001 340.266 358.535 341.599 361.335 337.866C363.335 335.199 363.735 332.533 363.335 326.133C363.068 321.333 365.735 319.466 368.935 322.266C370.268 323.466 371.335 325.066 371.335 325.999C371.335 328.933 377.468 333.333 381.735 333.333C386.001 333.333 391.335 329.066 391.335 325.733C391.335 324.666 389.335 323.066 386.801 321.999C378.668 318.533 378.935 312.799 387.201 314.133C392.401 314.933 398.001 313.066 398.001 310.399C398.001 307.866 383.068 310.666 379.068 313.999C375.735 316.799 375.601 317.066 378.001 317.733C379.735 318.133 380.668 319.599 380.668 321.866C380.668 323.733 381.735 325.733 383.068 326.533C384.801 327.466 384.935 328.266 383.868 329.333C381.068 332.133 376.135 330.266 373.735 325.599C370.801 319.599 370.535 319.466 364.935 319.066C362.268 318.933 358.268 318.533 356.001 318.399C352.668 317.999 351.868 318.533 351.601 321.066C351.201 323.599 350.535 324.133 348.268 323.466C346.801 323.066 344.668 323.466 343.735 324.266C341.735 325.866 335.335 324.666 335.335 322.666C335.335 321.866 337.201 321.333 339.468 321.333C342.268 321.333 343.735 320.533 344.135 318.933C344.535 317.733 347.468 315.466 350.801 314.133C356.135 311.999 357.601 311.866 362.001 313.333C365.601 314.533 367.735 314.666 368.935 313.733C369.868 312.933 372.935 311.599 375.735 310.666C378.535 309.866 381.735 307.599 382.935 305.866C385.335 302.133 389.601 301.733 392.135 304.933C393.735 307.199 394.001 307.199 396.135 305.066C399.201 302.133 397.468 299.999 391.868 299.999C386.535 299.999 386.001 297.866 390.801 295.733C393.468 294.399 394.935 294.533 398.401 296.266C405.601 299.866 406.935 299.999 410.001 296.666L412.935 293.599L410.001 291.999C408.401 291.066 405.468 290.666 403.468 291.066C401.601 291.466 397.335 292.399 394.001 293.199C390.668 293.866 387.868 294.266 387.601 293.999C386.401 292.799 390.401 287.999 392.668 287.999C396.001 287.999 400.268 281.733 398.401 279.866C396.668 278.133 388.001 282.799 388.001 285.333C388.001 286.266 387.201 287.333 386.135 287.733C384.801 288.133 384.668 287.333 385.335 283.866C385.868 281.466 386.935 278.399 387.735 277.199C389.335 274.533 399.068 270.399 400.935 271.466C402.935 272.666 407.335 267.866 407.335 264.533C407.335 260.533 406.268 259.999 400.668 261.199C396.801 261.866 395.868 262.799 395.601 265.733C395.335 267.866 393.735 270.266 391.868 271.599C387.735 274.266 386.535 273.199 389.201 268.933C391.201 265.999 391.201 265.466 389.335 263.999C388.268 263.066 387.335 262.533 387.201 262.799C387.201 263.066 386.935 264.666 386.801 266.399C386.268 270.533 383.335 273.466 382.268 270.666C381.868 269.599 380.001 267.199 378.001 265.333C374.668 262.266 374.535 261.733 376.268 259.066C377.335 257.466 377.868 255.466 377.335 254.666C376.001 252.399 370.135 253.199 367.868 255.866ZM368.135 262.266C366.801 263.599 365.601 261.599 366.801 259.866C367.601 258.399 367.868 258.399 368.401 259.866C368.668 260.799 368.535 261.866 368.135 262.266ZM342.668 265.333C341.868 266.533 341.468 266.533 340.535 265.199C339.201 262.933 340.535 260.666 342.268 262.399C343.068 263.199 343.201 264.533 342.668 265.333ZM402.535 265.999C402.001 267.066 401.201 267.999 400.535 267.999C399.868 267.999 399.335 267.066 399.335 265.999C399.335 264.933 400.268 263.999 401.335 263.999C402.535 263.999 402.935 264.799 402.535 265.999ZM366.001 267.199C366.001 267.466 366.401 268.799 366.935 270.133C367.601 271.999 367.201 272.266 364.268 271.466C358.001 269.999 347.735 273.066 344.135 277.599C340.801 281.866 340.935 284.266 344.401 288.399C346.268 290.399 346.135 290.933 343.735 293.733C342.268 295.333 341.335 297.466 341.601 298.266C342.401 300.533 341.201 300.399 337.335 297.866C333.335 295.199 332.935 291.999 336.668 292.933C339.868 293.733 340.268 291.199 337.201 287.866C335.868 286.399 335.468 284.799 336.268 283.733C336.801 282.799 337.335 279.999 337.335 277.466C337.335 273.733 338.135 272.533 341.868 270.399C344.668 268.799 347.868 267.999 350.001 268.399C351.868 268.799 354.268 268.666 355.335 267.866C357.335 266.666 366.001 266.133 366.001 267.199ZM378.001 269.733C378.001 271.333 379.201 273.733 380.668 275.066C385.201 278.799 384.001 282.933 376.268 290.266C369.601 296.666 369.201 296.799 366.268 294.933C362.535 292.533 360.535 293.999 364.135 296.533C366.535 298.399 366.535 298.533 362.801 302.533C360.135 305.333 357.601 306.666 354.801 306.666C350.268 306.666 344.668 302.133 344.668 298.533C344.668 295.599 349.601 291.999 353.335 291.999C356.135 291.999 359.335 289.733 359.335 287.733C359.335 287.199 358.135 286.666 356.668 286.666C355.201 286.666 354.001 285.999 354.001 285.333C354.001 283.199 360.268 283.733 362.668 286.133C364.268 287.866 365.201 287.999 366.668 286.666C367.735 285.733 368.668 283.866 368.668 282.533C368.668 281.066 369.335 279.999 370.135 279.999C371.068 279.999 371.335 281.333 371.068 283.333C370.668 285.199 370.935 286.666 371.468 286.666C372.135 286.666 372.668 285.999 372.668 285.333C372.668 284.533 373.201 283.999 374.001 283.999C374.668 283.999 374.801 284.933 374.401 286.266C373.868 287.733 374.001 288.133 375.068 287.466C377.201 286.133 376.935 278.666 374.668 274.666C371.868 269.866 372.135 266.666 375.335 266.666C377.201 266.666 378.001 267.599 378.001 269.733ZM364.668 276.666C365.601 277.733 365.868 278.666 365.201 278.799C364.535 278.799 360.801 279.066 356.801 279.333C348.668 279.866 348.935 279.733 348.268 284.133C347.601 288.133 345.468 288.399 344.935 284.399C344.135 278.933 346.801 276.133 353.735 275.599C357.201 275.333 360.668 275.066 361.468 274.933C362.268 274.799 363.735 275.599 364.668 276.666ZM333.601 283.466C333.201 286.133 332.401 288.666 332.001 289.066C331.068 289.999 326.001 285.333 326.001 283.333C326.001 281.066 328.935 278.666 331.735 278.666C334.001 278.666 334.268 279.333 333.601 283.466ZM394.001 283.999C394.001 284.666 393.335 285.333 392.535 285.333C391.868 285.333 391.601 284.666 392.001 283.999C392.401 283.199 393.068 282.666 393.468 282.666C393.735 282.666 394.001 283.199 394.001 283.999ZM382.001 293.999C382.001 295.733 382.668 297.599 383.468 297.999C384.268 298.666 384.001 299.599 382.401 300.666C381.068 301.599 379.601 302.133 379.068 301.866C378.401 301.466 378.001 302.399 378.001 303.866C378.001 307.199 374.135 309.466 371.201 307.866C369.468 307.066 368.801 307.333 368.268 309.333C367.868 310.933 366.401 311.999 364.801 311.999C361.601 311.999 361.468 311.066 363.335 305.999C364.535 302.933 365.201 302.533 368.668 303.333C374.001 304.533 376.668 302.266 376.668 296.799C376.668 292.399 378.935 288.933 380.935 290.133C381.468 290.533 382.001 292.266 382.001 293.999ZM407.068 294.266C407.335 295.333 406.401 295.999 404.801 295.999C403.201 295.999 402.001 295.199 402.001 293.866C402.001 291.466 406.135 291.866 407.068 294.266ZM328.401 297.733C328.935 300.133 326.535 300.666 323.468 298.799C322.535 298.133 322.135 296.933 322.668 296.133C324.001 293.866 327.868 294.933 328.401 297.733ZM372.668 298.666C372.668 299.333 372.001 299.999 371.201 299.999C370.535 299.999 370.268 299.333 370.668 298.666C371.068 297.866 371.735 297.333 372.135 297.333C372.401 297.333 372.668 297.866 372.668 298.666ZM335.068 302.933C334.401 304.933 328.668 306.133 328.668 304.266C328.668 302.399 330.268 301.333 333.068 301.333C334.401 301.333 335.335 301.999 335.068 302.933ZM348.668 307.999C349.735 309.999 349.468 310.799 347.468 311.999C343.868 313.866 342.935 313.733 343.868 311.333C344.401 309.866 343.735 309.333 341.335 309.333C339.201 309.333 338.001 308.533 338.001 307.333C338.001 304.133 346.935 304.666 348.668 307.999ZM332.668 319.199C332.668 319.466 333.068 320.666 333.468 321.733C333.868 323.066 333.335 323.599 331.335 323.466C329.868 323.466 328.668 322.933 328.668 322.266C328.668 321.733 328.668 320.666 328.668 319.999C328.668 319.199 329.601 318.666 330.668 318.666C331.735 318.666 332.668 318.933 332.668 319.199Z" fill="#28682E"></path><path d="M14.6672 166.666C13.4672 170.666 15.2006 172.666 17.4672 169.733C19.2006 167.466 19.6006 167.6 23.8672 172.533L28.4006 177.866L33.8672 172.933C39.6006 167.733 42.9339 166.8 45.8672 169.6C47.2006 171.066 47.4672 170.666 47.0672 168C46.4006 162.533 40.9339 162.933 35.0672 168.666C30.4006 173.333 30.1339 173.466 28.8006 170.933C26.2672 166.266 23.2006 164 19.3339 164C16.6672 164 15.2006 164.8 14.6672 166.666Z" fill="#28682E"></path><path d="M19.3352 183.334C18.2685 184.667 18.5352 185.334 20.5352 186C22.0019 186.4 23.6019 188 24.0019 189.467C25.0685 192.8 27.4685 192.667 30.4019 189.2C32.6685 186.534 32.9352 186.534 35.3352 188.667C38.4019 191.467 40.6685 190.267 40.6685 185.867C40.6685 181.867 37.4685 180.4 33.4685 182.667C31.4685 183.6 29.0685 183.867 27.2019 183.2C22.0019 181.467 20.8019 181.467 19.3352 183.334Z" fill="#28682E"></path></svg> 