<?xml version="1.0" encoding="UTF-8"?> <svg xmlns="http://www.w3.org/2000/svg" width="155" height="47" viewBox="0 0 155 47" fill="none"><path d="M24.129 24.7475C24.321 24.7475 24.225 25.3715 23.841 25.7555C23.265 26.3315 22.401 27.0995 21.585 27.8195C21.681 28.1075 20.385 28.8755 20.001 29.1155C19.761 29.2595 19.329 29.4035 19.473 29.4995C19.761 29.5475 20.337 29.3075 20.337 29.4995C18.177 30.4115 17.121 30.9875 15.633 31.3235C10.881 32.3795 3.82498 30.6995 1.42498 25.0835C0.128985 21.9155 0.416985 18.5555 1.71298 15.3395C2.38498 13.6115 3.24898 11.9795 4.35298 10.4435C5.40898 9.00345 6.56098 7.70745 7.80898 6.55545C8.81699 5.69145 9.92099 4.87545 11.217 4.49145C11.457 4.39545 11.601 4.29945 11.793 4.10745C11.409 3.86745 11.073 4.25145 10.785 4.39545C10.449 4.53945 10.065 4.68345 9.72898 4.87545C9.39298 5.01945 9.00898 5.21145 8.72098 5.35545C8.48099 5.11545 8.67298 5.01945 8.81699 4.97145C9.92099 4.15545 11.169 3.57945 12.513 3.14745C16.305 1.94745 19.377 2.47545 21.729 4.58745C22.785 5.54745 23.505 7.27545 23.553 8.52345C23.601 9.86745 23.409 12.2675 21.297 14.0435C20.289 14.8595 19.521 15.1475 18.801 13.9955C18.657 13.6115 19.281 13.3715 19.905 12.7475C20.817 11.8355 21.201 11.1635 21.489 9.77145C21.921 7.70745 20.577 5.49945 18.753 4.77945C17.745 4.39545 16.257 4.34745 15.249 4.53945C13.281 4.92345 11.793 5.73945 10.257 7.03545C9.82499 7.37145 9.39298 7.80345 9.10498 8.09145C8.48099 8.66745 7.80898 9.29145 7.32898 9.91545C6.03298 11.4035 5.07298 13.0835 4.35298 14.9075C3.53698 16.5875 3.29698 18.4115 3.20098 20.2835C3.05698 22.8755 3.63298 25.2275 5.50498 27.0035C8.48099 29.7875 11.745 30.0275 13.329 29.9315C15.825 29.7875 17.793 29.0675 20.337 27.4355C21.153 26.9075 23.505 24.9875 24.129 24.7475ZM6.80098 8.81145C6.84898 8.85945 6.89698 8.85945 6.94498 8.81145C6.84898 8.95545 6.56098 9.24345 6.51298 9.48345C6.56098 9.53145 6.56098 9.57945 6.65699 9.53145C6.99299 8.95545 7.13698 8.85945 7.42498 8.76345L8.04899 8.04345L8.24098 7.80345C9.05698 7.08345 9.63298 6.45945 10.689 5.78745C11.313 5.40345 11.841 5.35545 12.081 5.01945L12.561 4.82745C12.849 4.73145 13.041 4.63545 13.473 4.39545C13.569 4.29945 13.857 4.39545 13.905 4.20345C13.761 4.10745 13.713 4.10745 13.425 4.20345C12.321 4.63545 12.081 4.73145 11.361 5.06745C10.737 5.35545 9.29698 6.31545 8.09699 7.51545C7.90498 7.70745 7.90498 7.65945 7.56898 7.85145L7.71299 8.13945L7.56898 8.23545C7.23298 8.37945 7.08898 8.66745 6.80098 8.81145ZM21.009 27.7235C21.201 27.6275 21.297 27.4835 21.153 27.2435L20.577 27.6275C20.193 27.9155 20.145 28.0595 20.049 28.3475L20.625 27.9635L21.009 27.7235ZM15.057 30.5555C15.969 30.6515 18.321 29.7395 19.137 28.7315C17.313 29.6915 15.969 30.3635 15.057 30.5555ZM28.7835 26.9075C27.9675 26.7155 27.1515 26.7155 26.4795 26.1875C25.0395 25.0835 24.9915 23.6435 25.4715 22.1555C25.9035 21.0035 26.4795 19.8515 27.4875 18.8915C28.7835 17.6915 30.2235 17.3075 31.9035 17.6435C32.2395 17.7395 32.4795 17.9795 32.7195 18.1715C32.9595 18.3635 32.8635 18.6515 32.4795 18.6515C32.1915 18.6515 31.8555 18.6035 31.5675 18.5075C31.0395 18.3635 31.0395 18.3635 30.6075 18.7475C30.3675 19.0355 30.0795 19.2755 29.7915 19.5155C28.7835 20.0435 28.1115 20.9075 27.5835 21.8675C27.1995 22.5395 26.8155 23.3075 26.7675 24.0275C26.7675 24.4595 26.8155 24.8435 26.9595 25.2755C27.1035 25.7555 27.8235 26.0435 28.3995 25.8515C28.8795 25.7555 29.3595 25.5155 29.8395 25.1795C31.1835 24.2195 31.8555 22.9235 32.5275 21.4835C33.1035 20.0915 33.4395 18.9395 33.4395 17.4995C33.4395 16.5395 33.1515 15.0515 32.9115 14.1875C32.7675 13.4675 32.6235 13.1795 32.2875 12.1235C31.6635 10.2515 30.9915 8.71545 30.3675 7.46745C30.0315 6.74745 29.5995 6.07545 29.5515 5.93145C29.3115 5.54745 29.0715 5.11545 28.8795 4.73145C28.7835 4.39545 28.5435 4.20345 28.1115 4.05945C26.4795 3.43545 24.9915 2.47545 23.6955 1.27545C23.5035 1.13145 23.4555 0.843451 23.3115 0.651451C23.9835 0.0274506 24.6555 0.0754528 25.3275 0.315453C26.6715 0.795452 27.8235 1.46745 28.8315 2.47545C29.1195 2.76345 29.5515 2.81145 30.0315 2.95545C30.9915 3.00345 31.9035 3.19545 32.8635 3.19545C34.6395 3.24345 35.0715 3.19545 37.4715 2.81145C38.2875 2.66745 39.1035 2.33145 39.8715 2.09145L39.8235 2.37945C39.5835 2.57145 39.1995 2.52345 38.9115 2.61945C38.6715 2.71545 38.7675 2.90745 38.6235 3.00345C38.3835 3.14745 38.1435 3.24345 37.8075 3.43545C37.9515 3.62745 38.0475 3.53145 38.1435 3.67545C37.9995 3.72345 33.8235 4.53945 31.0395 4.49145C31.1835 4.77945 31.3755 5.25945 31.4715 5.59545C31.6635 5.97945 32.0955 6.84345 32.5755 8.09145C33.0075 9.24345 33.9195 11.0675 34.2555 12.3635C34.8315 14.3315 35.1195 15.9635 35.2635 16.6355C35.3595 17.3075 35.2155 18.3635 35.2155 19.1315L35.3595 19.6115C35.3595 19.6595 35.1195 19.7075 35.1195 19.7555C34.9755 20.1875 34.8315 20.6195 34.7355 21.0515C34.5915 21.7715 34.2075 22.3475 33.8715 22.9235C33.4875 23.5475 33.0555 24.2195 32.4315 24.6995C32.3355 24.7955 32.3355 25.0355 32.2395 25.2275C32.0955 25.4195 31.9515 25.7075 31.8075 25.8035C31.0875 26.2355 29.7915 26.7155 28.8795 26.9075C28.8315 26.9075 28.8315 26.9555 28.7835 26.9075ZM38.8155 3.19545C38.8155 3.09945 39.2475 2.95545 39.2475 2.76345C39.4875 2.71545 39.7275 2.66745 39.9195 3.05145C39.6795 3.09945 39.0555 3.14745 38.8155 3.19545ZM30.4155 6.69945C30.4635 6.45945 30.5115 6.36345 30.5115 6.26745L29.7915 4.63545L29.5515 4.44345C29.4555 4.44345 29.4075 4.49145 29.3595 4.49145C29.4075 5.06745 29.9835 5.59545 30.1755 6.17145C30.1755 6.31545 30.2715 6.41145 30.4155 6.69945ZM33.4395 21.3875C33.4875 21.2915 33.5355 21.2435 33.5355 21.1475C33.9675 19.8995 34.0155 19.1315 34.1115 18.1235C34.2075 17.2595 34.0155 13.7555 33.2955 12.3635L33.1035 12.4115C33.7755 14.0435 34.0155 16.2995 33.9675 17.5955C33.9195 18.9875 33.8235 19.9475 33.1995 21.3395C33.3435 21.3875 33.3915 21.3875 33.4395 21.3875ZM52.0597 18.3635L52.1077 18.4115V18.8435C51.9637 18.9395 51.9157 18.9875 51.6757 19.0355L52.0117 19.1795C51.5317 19.4195 51.1477 19.7075 50.8597 19.8995C50.6677 20.0435 50.6677 20.2355 50.4757 20.2355H50.1397C50.0917 20.2355 50.0437 20.2355 50.0437 20.2835C49.9957 20.5715 49.6117 20.5715 49.3717 20.6675L48.6997 20.9555C48.1717 21.1955 47.7877 21.2435 47.3077 21.2915C47.1637 21.2915 47.0677 21.3395 46.9717 21.3395C46.7317 21.3395 46.6837 21.4355 46.6837 21.6275C46.6357 21.7715 46.5397 21.9155 46.5397 22.1075L46.6357 22.1555V22.2035C46.3957 22.4435 46.3957 22.7315 46.1077 22.9235C46.0597 22.9715 46.1077 23.1635 46.0597 23.2115C45.6757 23.6435 45.4357 24.1235 45.0037 24.6035L44.9077 24.6995C44.6677 24.9395 44.3797 25.1795 44.1877 25.4195C44.0437 25.5155 43.8517 25.6115 43.6597 25.6115C43.2757 25.8515 42.9397 25.9475 42.5077 26.0915C42.3157 26.1395 42.1237 26.1395 42.0277 26.0915C41.5477 26.0435 40.9717 26.0435 40.5877 25.8515C40.0117 25.7555 39.6277 25.4195 39.2917 24.9875C38.7637 24.4595 38.7157 23.5475 38.6677 22.7795C38.6197 21.8675 39.0517 20.9555 39.2917 20.0915C39.3877 19.8035 39.4837 19.1795 39.5317 19.1795C39.8677 18.6995 40.0597 18.1235 40.3477 17.8355C40.7797 17.4035 41.2597 17.0195 41.8357 16.7315C42.2677 16.5395 42.7477 16.5875 43.1317 16.5875C43.3717 16.5875 43.4677 16.8275 43.6597 17.0195C43.7077 17.0675 43.8037 17.0675 43.8997 17.1155C44.3797 17.3075 45.0517 17.3075 45.6277 17.7875C45.6757 17.8355 45.8677 17.8355 45.9637 17.8835C46.2517 18.1235 46.4917 18.4115 46.8277 18.6035C46.8277 18.6995 46.6837 18.6035 46.6357 18.6035C46.5397 18.6035 46.4917 18.6035 46.3477 18.6515C46.3477 18.6995 46.4437 18.8435 46.4437 18.8435C46.8277 18.8435 46.7797 19.1315 46.8757 19.3235C46.7797 19.3235 46.7317 19.3715 46.6357 19.4195C46.7317 19.4675 46.7797 19.5155 46.8757 19.7075H46.7317C46.8277 19.7555 46.8757 19.8995 47.0197 19.9475C47.0197 19.9955 46.9717 20.0435 47.0197 20.0915C47.8837 19.7555 48.7477 19.5155 49.5637 19.2275C50.2837 18.9395 50.8597 18.7955 52.0597 18.3635ZM45.2437 20.2835C45.1957 20.0435 45.2437 19.7555 45.2437 19.4675C45.1477 19.0835 45.0997 18.6035 44.8597 18.2195C44.7637 18.0755 44.6677 18.0755 44.5237 18.1235C44.2357 18.1235 43.9957 18.2195 43.8517 18.3635C43.5637 18.6035 43.2277 18.7955 43.1797 19.2275C43.1797 19.4675 43.2277 19.7555 43.3717 19.9955C43.4677 20.2355 43.6117 20.2835 43.8997 20.2835H45.2437ZM45.5317 20.2835C45.6757 20.2355 45.7717 20.2355 45.8677 20.2355C45.8197 20.0435 45.9157 19.8035 45.8197 19.6115C45.7717 19.2275 45.7717 19.2275 45.4837 19.1795C45.4837 19.5155 45.5317 19.8995 45.5317 20.2835ZM44.8117 21.7235C45.0037 21.4835 44.9077 21.4355 44.6677 21.3395C44.4277 21.3395 44.0437 21.2915 43.8037 21.1955C43.3237 21.0995 42.7957 20.8595 42.4117 20.5715C42.0757 20.3795 41.8357 20.1395 41.7397 19.8515C41.6437 19.7075 41.5477 19.5155 41.4997 19.3235C41.2597 19.8995 41.0197 20.2835 40.7797 20.7635C40.6357 20.9555 40.5397 21.2435 40.4917 21.4355C40.3957 21.7235 40.3957 21.9635 40.3477 22.2035C40.1557 22.6835 40.1557 23.2595 40.1557 23.7395C40.1557 24.0755 40.2517 24.3155 40.2997 24.6035C40.3477 24.9875 40.9237 25.1795 41.5477 24.9395C42.2677 24.7475 42.9397 24.2675 43.4677 23.7395C43.7557 23.4515 44.0437 23.1155 44.2837 22.7315C44.4757 22.4435 44.5717 22.0595 44.8117 21.7235ZM60.873 20.3315C60.873 20.8595 61.017 21.5315 60.777 22.0115C60.681 22.5395 60.249 23.1155 60.057 23.5955C59.721 24.0275 59.337 24.4115 59.049 24.8915L58.041 25.7555C57.657 25.9955 57.369 26.0915 56.985 26.2835C56.889 26.2835 56.745 26.3315 56.697 26.2835C56.457 26.2355 56.169 26.0915 55.881 25.9955C55.689 25.8995 55.545 25.8515 55.497 25.5635L55.401 25.5155C55.017 25.3235 54.873 24.8915 54.825 24.4115C54.729 24.2675 54.921 24.1235 54.921 23.8835C55.209 23.8835 55.209 24.1235 55.257 24.3155C55.257 24.6995 55.545 24.7955 55.737 24.7475C56.217 24.6515 56.505 24.3155 56.745 24.0275C57.081 23.6915 57.513 23.3555 57.753 22.9235C58.041 22.5395 58.281 22.2035 58.569 21.7235V21.5315C58.617 21.3395 58.761 21.1955 58.761 21.0995C58.905 20.6675 59.097 20.3315 59.001 19.8995C59.001 19.6115 58.857 19.2755 58.761 19.0355C58.569 18.7955 57.993 18.8435 57.753 19.0355C57.321 19.2275 57.033 19.3235 56.745 19.5635H56.649C56.505 19.7075 56.361 19.8995 56.169 19.9955C55.929 20.2835 55.689 20.4275 55.401 20.6195C54.969 21.0035 54.489 21.2435 54.201 21.7715C53.817 22.3955 53.337 22.9715 52.857 23.4515C52.617 23.6915 52.089 24.7955 51.945 25.1795H51.657C51.753 25.2275 51.753 25.3235 51.753 25.3715C51.609 25.5635 51.417 25.8515 51.273 25.9955C51.177 25.9955 51.177 26.1875 51.129 26.2835C51.273 26.2835 51.321 26.2835 51.417 26.2355C51.177 26.5235 51.225 27.0035 50.745 27.0035H50.793C50.841 27.0515 50.889 27.0515 50.889 27.0515C50.793 27.3875 50.745 27.6275 50.649 27.9155C50.649 27.9635 50.505 27.9635 50.457 28.0115C50.649 28.1075 50.553 28.2995 50.457 28.5395C50.409 28.6835 50.553 28.9235 50.217 28.9715C50.361 29.6435 50.073 30.4115 49.737 30.5555C49.833 30.6035 49.881 30.6035 49.929 30.6515C49.881 30.6515 49.833 30.6995 49.737 30.6995C49.833 30.7475 49.833 30.7475 49.881 30.7475C49.833 31.0355 49.881 31.2755 49.833 31.5155C49.737 31.9955 49.593 32.4755 49.449 32.7635C49.353 33.1475 49.305 33.4355 49.209 33.7235C49.209 33.7715 49.209 33.8675 49.257 33.9155C49.113 34.0595 48.969 34.1555 48.729 34.2515C48.921 34.3475 48.969 34.4915 49.017 34.6355C48.969 34.7795 48.969 34.8755 48.921 35.1635C48.921 35.1635 48.777 35.2115 48.633 35.2115L48.921 35.3555C48.729 35.4995 48.633 35.5475 48.537 35.6915L48.633 35.7875C48.633 35.7875 48.729 35.8355 48.825 35.8355C48.489 36.4115 48.441 37.0355 48.393 37.7075C48.393 37.8035 48.297 37.8995 48.297 37.9475C48.201 38.3315 48.201 38.5235 48.153 38.8115C48.153 38.9555 48.105 39.0035 48.009 39.1955C48.153 39.3395 48.105 39.9635 47.721 40.2515L47.913 40.3475C47.817 40.6835 47.721 40.9235 47.625 41.2595C47.625 41.2595 47.673 41.3555 47.673 41.4995C47.625 41.8835 47.433 42.4115 47.385 42.8915C47.385 43.1795 47.241 43.6115 47.337 43.9475C47.385 44.0915 47.289 44.3795 47.241 44.5235C47.193 44.7635 47.145 45.1475 47.049 45.3875C47.049 45.4355 47.001 45.4835 46.953 45.5315C46.953 45.4835 46.857 45.4835 46.857 45.4835C46.809 45.6755 46.761 45.8195 46.761 46.0595C46.665 46.1075 46.473 46.1555 46.281 46.2035C46.089 46.1075 45.897 45.9155 45.657 45.6755C45.705 45.4835 45.657 45.2435 45.657 45.1475H45.465C45.417 45.2435 45.369 45.4355 45.321 45.6275C45.225 45.3875 45.033 45.1955 44.889 45.0995C45.609 42.6515 45.993 40.2515 46.521 37.8515C46.569 37.8515 46.617 37.8995 46.713 37.8995C46.521 37.4675 46.617 36.9875 46.905 36.8435C46.761 36.7955 46.713 36.7955 46.617 36.7955C46.665 36.6035 46.713 36.4595 46.809 36.3155C46.953 36.1235 47.001 35.8835 46.905 35.6915C46.809 35.5955 46.953 35.4035 47.001 35.3555C47.049 35.1635 47.193 34.9235 47.337 34.6355C47.193 34.7315 47.097 34.7315 47.049 34.7315C47.385 34.2515 47.625 33.8675 47.577 33.2435C47.481 33.3875 47.481 33.4355 47.433 33.5315V33.1955C47.625 33.1955 47.673 33.0035 47.769 32.8115L48.057 31.2755C48.105 31.0355 48.153 30.8435 48.153 30.6515C48.489 29.6435 48.729 28.5875 48.921 27.5795C49.065 26.8595 49.257 26.1875 49.449 25.4195C49.545 24.9395 49.737 24.4595 49.785 24.0275C49.977 23.2115 50.073 22.3955 50.313 21.5315C50.361 21.0515 50.505 20.5715 50.601 20.0435C50.793 19.4195 50.985 18.7955 51.129 18.1715C51.273 17.7875 51.369 17.4035 51.609 16.9715C51.657 16.6355 51.753 16.5395 52.041 16.5875H52.185C52.617 16.5395 52.809 16.8275 52.953 17.1155L53.097 17.7395C53.145 17.8835 53.145 18.0275 53.049 18.2195C53.049 18.3155 53.001 18.5075 52.953 18.6515C52.761 18.7475 52.761 18.8435 52.905 19.0355C52.857 19.0835 52.857 19.1795 52.809 19.2275C52.713 19.6595 52.569 19.9955 52.473 20.5235H52.377C52.329 21.0035 52.185 21.1955 52.089 22.2995V22.3955C51.993 22.5875 51.897 22.8755 51.849 23.2115C51.993 22.9715 52.281 22.8275 52.377 22.4435C52.377 22.3955 52.329 22.3475 52.473 22.3475C52.521 22.3475 52.569 22.2515 52.713 22.1555C52.665 22.1555 52.569 22.1555 52.473 22.0115C52.569 21.8675 52.713 21.8195 52.857 21.7715C52.953 21.5315 52.953 21.2435 53.337 21.3395C53.337 21.3395 53.337 21.1955 53.385 21.0995C53.721 21.0515 53.961 20.6675 53.913 20.5235C54.009 20.4275 54.153 20.3315 54.249 20.2835V19.9955C54.393 19.9955 54.537 19.9955 54.729 19.9955C54.825 19.9475 54.873 19.9475 54.873 19.8995C54.825 19.6595 55.065 19.6595 55.161 19.6115C55.449 19.2275 55.929 19.0355 56.265 18.8435C56.409 18.6515 56.601 18.6035 56.841 18.5075V18.3155C56.553 18.4595 56.313 18.4595 56.073 18.5555C55.833 18.6035 55.497 18.7955 55.305 18.9875C54.825 19.3235 54.345 19.7075 53.961 20.0435H53.865C53.817 20.0435 53.817 19.9955 53.817 19.9955C53.913 19.9475 54.009 19.8995 54.105 19.7075C54.153 19.6595 54.297 19.5635 54.297 19.5155C54.345 19.3235 54.345 19.2755 54.441 19.2275C54.729 19.0355 55.113 18.9875 55.305 18.7475C55.545 18.5075 55.881 18.3155 56.073 18.1715C56.649 17.8835 57.129 17.8355 57.609 17.8355C57.945 17.8355 58.377 17.9795 58.665 18.0275C58.905 18.0755 59.049 18.1715 59.385 18.2675C59.433 18.2675 59.481 18.3155 59.529 18.4595V18.5555C59.433 18.5075 59.337 18.5075 59.193 18.4595L59.049 18.5075C59.337 18.6035 59.481 18.7475 59.577 18.7955C59.769 18.8435 59.961 18.9395 60.153 18.9395L60.201 18.8435C60.297 18.9395 60.585 19.2275 60.777 19.5635C60.873 19.5635 60.873 19.6115 60.825 19.7075C60.825 19.9475 60.873 20.1395 60.873 20.3315ZM50.121 25.2275C50.169 24.8915 50.313 24.4595 50.361 24.1235H50.217C50.169 24.3155 50.121 24.6995 50.025 24.8915C50.025 25.0355 50.025 25.1795 49.977 25.2275H50.121ZM49.929 25.8995C49.929 25.8035 49.977 25.6595 50.073 25.4675C49.977 25.4675 49.929 25.4675 49.977 25.4195C49.833 25.5635 49.689 25.7555 49.689 25.8515C49.689 26.0915 49.689 26.1875 49.737 26.3315C49.545 26.3315 49.593 26.4755 49.641 26.6195C49.497 26.8115 49.449 26.9555 49.353 27.0515C49.449 27.2435 49.449 27.2915 49.449 27.3395C49.401 27.3395 49.353 27.3875 49.305 27.4835C49.353 27.5315 49.401 27.5795 49.449 27.5795C49.545 27.6275 49.593 27.5795 49.593 27.5315C49.641 27.2915 49.785 26.9555 49.785 26.7155L49.929 25.8995ZM49.401 28.2515C49.545 27.9155 49.545 27.9155 49.257 27.7715C49.257 27.9155 49.161 27.9635 49.161 28.0595C49.257 28.0595 49.305 28.0595 49.353 28.1075C49.305 28.1555 49.257 28.1555 49.113 28.2515L49.305 28.4435C49.209 28.4435 49.113 28.5395 48.969 28.5395V28.8275C48.921 29.0195 48.825 29.2115 48.825 29.4515C48.681 29.8835 48.633 30.4115 48.537 30.8435C48.393 31.4195 48.105 31.9955 48.057 32.5715C47.961 33.0035 47.769 33.5315 47.865 34.0595L47.817 34.1075C47.769 34.3475 47.577 34.7315 47.529 35.1155C47.529 35.1635 47.577 35.2115 47.673 35.3075C47.721 35.2115 47.769 35.2115 47.865 35.1635L47.721 35.0675C47.817 34.7795 47.913 34.6355 48.009 34.3955C48.057 34.1075 48.153 33.7715 48.297 33.4355C48.297 33.1955 48.297 32.9075 48.345 32.6675C48.441 32.4755 48.537 32.1875 48.537 31.9475H48.393C48.441 31.8515 48.489 31.6595 48.537 31.6115C48.585 31.5635 48.585 31.4675 48.585 31.4195C48.585 31.3715 48.585 31.2755 48.537 31.2755C48.633 31.2275 48.777 31.1795 48.969 31.1315V31.0355C48.777 31.0355 48.633 31.0355 48.585 31.0355C48.633 30.8435 48.681 30.6995 48.681 30.6035C48.777 30.6035 48.825 30.6035 48.921 30.6515C48.873 30.4115 48.825 30.1715 48.825 29.9795L49.161 29.8355C49.065 29.7395 48.969 29.6915 48.921 29.6915C49.065 29.5955 49.209 29.5475 49.209 29.4515C49.353 29.0195 49.353 28.5875 49.401 28.2515ZM48.777 32.8115C48.729 32.4755 49.161 32.1395 48.921 31.8515C48.729 32.1395 48.681 32.6675 48.777 32.8115ZM47.241 36.4115C47.673 36.2195 47.529 35.9315 47.529 35.7875C47.625 35.6915 47.673 35.5955 47.721 35.5475C47.673 35.4995 47.673 35.4035 47.481 35.3075C47.337 35.7395 47.337 36.0755 47.241 36.4115ZM49.017 35.4035C48.969 35.4035 48.921 35.4035 48.921 35.3555C48.969 35.3555 48.969 35.4035 49.017 35.4035ZM47.865 36.9875C47.913 36.7955 47.913 36.6035 47.961 36.3635C47.721 36.5075 47.625 37.1795 47.721 37.3715C47.817 37.2275 47.817 37.1315 47.865 36.9875ZM47.385 37.1315C47.385 36.9875 47.433 36.8435 47.433 36.6995C47.433 36.6515 47.385 36.6035 47.385 36.4595C47.289 36.5075 47.241 36.5075 47.241 36.5075C47.193 36.6995 47.193 36.8915 47.145 37.1315H47.385ZM47.241 37.6115C47.241 37.4675 47.385 37.3235 47.385 37.2755C47.289 37.2275 47.193 37.2275 47.145 37.2275C46.857 38.4275 46.617 39.4835 46.425 40.6355C46.473 40.6355 46.521 40.6835 46.521 40.6835C46.569 40.4915 47.049 40.4435 46.713 40.0595C46.857 39.9635 46.953 39.9155 46.857 39.7715C46.761 39.4355 46.857 39.1955 47.001 38.8595C47.097 38.8115 47.145 38.5235 47.193 38.0915L47.145 37.9955C47.193 37.9475 47.241 37.8515 47.241 37.8035V37.6115ZM78.0881 28.1075V27.8195L78.0401 27.7715L77.8481 28.0595C77.6081 27.9635 77.4161 27.9155 77.2241 27.8195H76.9361C76.8881 27.8195 76.7921 27.8675 76.7441 27.8195C76.8881 27.9635 75.7361 27.3875 75.4001 26.5715C75.2561 26.2355 75.4481 25.8035 75.4481 25.4675C75.4481 25.3235 75.3521 24.9875 75.7361 24.9395C75.5441 24.7475 75.4481 24.6035 75.7361 24.3635C75.7841 24.3155 75.8321 24.2195 75.8321 24.1235C75.7841 23.9315 75.9281 23.8835 76.0241 23.7395L76.1201 23.4995C76.1681 23.4515 76.2641 23.4515 76.3601 23.4035C76.3121 23.3555 76.2161 23.3075 76.1681 23.3075C76.3121 23.1635 76.4081 23.0675 76.5521 22.9715C76.6481 22.7795 76.6961 22.6355 76.7921 22.5395L76.9361 22.2995C77.0321 22.2515 77.1761 22.2035 77.1761 22.1075C77.1761 21.8195 77.3201 21.7235 77.5121 21.5315C77.6561 21.3875 77.7521 21.2435 77.8481 21.0995C77.9921 20.8115 78.2321 20.5715 78.4241 20.2835C78.5681 20.0915 78.6641 19.8515 78.8081 19.6115C79.0481 19.4195 79.1441 18.9875 79.2881 18.6035C79.3361 18.3635 79.2401 18.2195 79.1441 18.0755C79.0001 17.9795 78.8561 18.0275 78.6641 18.1235C78.2321 18.3155 77.9921 18.6515 78.0401 18.6035C77.7521 18.8915 77.6561 18.9875 77.4641 19.1315C77.0321 19.4195 76.8881 19.8995 76.5041 19.9955C75.8321 20.1395 75.3041 19.3235 75.5441 18.8435C75.7361 18.4115 76.1201 18.0755 76.5521 17.7875C76.8881 17.4515 77.1761 17.0675 77.6081 16.8755C78.0401 16.6835 78.4721 16.5875 78.8081 16.5395C79.5281 16.3955 80.2961 16.5875 80.6801 17.0675C80.9201 17.4035 81.1601 17.8835 81.2561 18.2675C81.3041 18.7475 81.3521 19.1795 81.1121 19.7075C80.9681 19.9475 80.9201 20.2355 80.7761 20.4755C80.4881 20.8115 80.2481 21.1955 80.0561 21.4835C80.0561 21.5315 78.8081 23.0195 78.8081 23.0675C78.4241 23.6435 78.0401 24.2195 77.7041 24.7955C77.5121 25.1795 77.4161 25.4195 77.2241 25.8995C77.0801 26.4755 77.5121 26.8115 78.2321 26.6195C79.0481 26.3795 79.6721 25.9955 80.2001 25.7075C80.3441 25.6595 81.6401 24.9875 81.8801 24.7475C82.0241 24.6515 82.0721 24.6515 82.0721 24.6515C82.1681 24.6035 82.2641 24.6035 82.3601 24.5555C82.2161 24.6995 82.0721 24.8435 81.9281 24.9395C82.0241 24.9875 82.2161 24.9395 82.4561 24.9395C82.3601 24.9875 82.3121 25.0355 82.2161 25.0355C82.2161 25.0835 82.2641 25.0835 82.2641 25.0835C82.7441 24.8915 83.1761 24.5555 83.6561 24.3155C83.6081 24.3635 83.6081 24.3635 83.6081 24.4115C83.6081 24.8435 83.4641 25.1795 83.2721 25.2755L82.6961 25.8515C82.4081 25.9955 82.1681 26.1395 81.9281 26.2835C81.5921 26.4755 81.3521 26.7635 80.8721 26.8115C80.7761 26.9555 80.5841 26.9075 80.3921 26.9555C80.1041 27.0515 79.7681 27.3395 79.4801 27.4835C79.2881 27.5315 79.0481 27.4835 78.8561 27.5315C78.7121 27.5795 78.6161 27.5795 78.5201 27.6275V27.7235C78.7121 27.7235 78.8561 27.7715 79.0961 27.7715C78.9041 27.8195 78.8561 28.0115 78.6161 28.0595C78.5681 28.0595 78.5681 27.9635 78.5201 27.9155C78.3761 27.9635 78.2321 28.0115 78.0881 28.1075ZM82.3601 24.8435L82.3121 24.7475C82.3121 24.6995 82.3601 24.6515 82.3601 24.6515C82.6961 24.6515 82.9361 24.4115 83.2241 24.2675L83.4641 24.1235C83.6081 24.0755 83.7041 24.0275 83.5121 23.8835C83.2241 24.1235 82.8881 24.2675 82.6001 24.5075C82.5521 24.5075 82.4561 24.5075 82.3121 24.4595C82.6001 24.3635 83.1761 24.0275 83.3681 23.7395C83.8961 23.4995 84.3281 23.2115 84.8561 22.8275L85.2401 22.5395L85.2881 22.6835C85.2881 22.6835 85.3841 22.6835 85.3841 22.7315L85.0961 22.9235L84.4241 23.3075V23.3555C84.4241 23.3075 84.4721 23.3075 84.4721 23.3075H84.5681C84.4721 23.3555 84.3281 23.4995 84.1361 23.5955L84.1841 23.6915C84.0401 23.7395 83.9441 23.7875 84.1361 23.8355C83.9441 23.9315 83.7521 23.9795 83.7041 24.1235C83.7041 24.1235 83.7041 24.1715 83.6561 24.1715C83.3681 24.1715 83.2241 24.4115 83.0801 24.5555C82.9841 24.6515 82.8401 24.7475 82.6481 24.7955C82.5521 24.8435 82.4561 24.7955 82.3601 24.8435ZM76.6961 24.0755C76.6961 23.9315 76.7441 23.8835 76.7921 23.7395L76.3601 23.9795C76.4561 24.0275 76.5521 24.0275 76.6961 24.0755ZM76.1681 25.4675L76.5041 24.3635C76.5041 24.3155 76.4081 24.2195 76.3601 24.1715C76.3121 24.2195 76.2641 24.3155 76.2641 24.3635C76.3121 24.4595 76.2641 24.5075 76.1201 24.5075C76.0721 24.5075 75.9761 24.6515 76.0241 24.6515C76.1201 24.8435 76.1201 25.1795 75.9761 25.2755C76.0241 25.3235 76.1201 25.3715 76.1681 25.4675ZM81.8321 25.3235L82.0241 25.1795C82.0721 25.1315 82.0241 25.1315 82.0241 25.0835C81.9761 25.1315 81.8801 25.2275 81.8321 25.3235ZM76.0241 26.0435C76.2161 25.8515 76.2161 25.7555 76.0721 25.6115C76.0241 25.5635 75.9281 25.5635 75.7841 25.5155V25.6115C76.1201 25.5635 75.9281 25.8515 76.0241 26.0435ZM98.466 18.3635L98.514 18.4115V18.8435C98.37 18.9395 98.322 18.9875 98.082 19.0355L98.418 19.1795C97.938 19.4195 97.554 19.7075 97.266 19.8995C97.074 20.0435 97.074 20.2355 96.882 20.2355H96.546C96.498 20.2355 96.45 20.2355 96.45 20.2835C96.402 20.5715 96.018 20.5715 95.778 20.6675L95.106 20.9555C94.578 21.1955 94.194 21.2435 93.714 21.2915C93.57 21.2915 93.474 21.3395 93.378 21.3395C93.138 21.3395 93.09 21.4355 93.09 21.6275C93.042 21.7715 92.946 21.9155 92.946 22.1075L93.042 22.1555V22.2035C92.802 22.4435 92.802 22.7315 92.514 22.9235C92.466 22.9715 92.514 23.1635 92.466 23.2115C92.082 23.6435 91.842 24.1235 91.41 24.6035L91.314 24.6995C91.074 24.9395 90.786 25.1795 90.594 25.4195C90.45 25.5155 90.258 25.6115 90.066 25.6115C89.682 25.8515 89.346 25.9475 88.914 26.0915C88.722 26.1395 88.53 26.1395 88.434 26.0915C87.954 26.0435 87.378 26.0435 86.994 25.8515C86.418 25.7555 86.034 25.4195 85.698 24.9875C85.17 24.4595 85.122 23.5475 85.074 22.7795C85.026 21.8675 85.458 20.9555 85.698 20.0915C85.794 19.8035 85.89 19.1795 85.938 19.1795C86.274 18.6995 86.466 18.1235 86.754 17.8355C87.186 17.4035 87.666 17.0195 88.242 16.7315C88.674 16.5395 89.154 16.5875 89.538 16.5875C89.778 16.5875 89.874 16.8275 90.066 17.0195C90.114 17.0675 90.21 17.0675 90.306 17.1155C90.786 17.3075 91.458 17.3075 92.034 17.7875C92.082 17.8355 92.274 17.8355 92.37 17.8835C92.658 18.1235 92.898 18.4115 93.234 18.6035C93.234 18.6995 93.09 18.6035 93.042 18.6035C92.946 18.6035 92.898 18.6035 92.754 18.6515C92.754 18.6995 92.85 18.8435 92.85 18.8435C93.234 18.8435 93.186 19.1315 93.282 19.3235C93.186 19.3235 93.138 19.3715 93.042 19.4195C93.138 19.4675 93.186 19.5155 93.282 19.7075H93.138C93.234 19.7555 93.282 19.8995 93.426 19.9475C93.426 19.9955 93.378 20.0435 93.426 20.0915C94.29 19.7555 95.154 19.5155 95.97 19.2275C96.69 18.9395 97.266 18.7955 98.466 18.3635ZM91.65 20.2835C91.602 20.0435 91.65 19.7555 91.65 19.4675C91.554 19.0835 91.506 18.6035 91.266 18.2195C91.17 18.0755 91.074 18.0755 90.93 18.1235C90.642 18.1235 90.402 18.2195 90.258 18.3635C89.97 18.6035 89.634 18.7955 89.586 19.2275C89.586 19.4675 89.634 19.7555 89.778 19.9955C89.874 20.2355 90.018 20.2835 90.306 20.2835H91.65ZM91.938 20.2835C92.082 20.2355 92.178 20.2355 92.274 20.2355C92.226 20.0435 92.322 19.8035 92.226 19.6115C92.178 19.2275 92.178 19.2275 91.89 19.1795C91.89 19.5155 91.938 19.8995 91.938 20.2835ZM91.218 21.7235C91.41 21.4835 91.314 21.4355 91.074 21.3395C90.834 21.3395 90.45 21.2915 90.21 21.1955C89.73 21.0995 89.202 20.8595 88.818 20.5715C88.482 20.3795 88.242 20.1395 88.146 19.8515C88.05 19.7075 87.954 19.5155 87.906 19.3235C87.666 19.8995 87.426 20.2835 87.186 20.7635C87.042 20.9555 86.946 21.2435 86.898 21.4355C86.802 21.7235 86.802 21.9635 86.754 22.2035C86.562 22.6835 86.562 23.2595 86.562 23.7395C86.562 24.0755 86.658 24.3155 86.706 24.6035C86.754 24.9875 87.33 25.1795 87.954 24.9395C88.674 24.7475 89.346 24.2675 89.874 23.7395C90.162 23.4515 90.45 23.1155 90.69 22.7315C90.882 22.4435 90.978 22.0595 91.218 21.7235ZM100.332 26.9555L99.1804 26.8115C99.0364 26.7635 98.7484 26.7635 98.5564 26.7155C98.2684 26.5715 97.9324 26.4755 97.5964 26.2835C97.3564 26.0915 97.1164 25.8035 96.8764 25.5635C96.7324 25.3715 96.6364 25.1315 96.5404 24.8915C96.4924 24.6035 96.3964 24.3155 96.3484 23.9315C96.3484 23.6915 96.3484 23.3555 96.4444 23.0675C96.5404 21.0995 97.8364 19.0835 98.6524 17.9795C98.7004 17.8835 98.7484 17.7875 98.8444 17.7875C98.9404 17.6435 99.0364 17.5475 99.0844 17.4515C99.1324 17.4035 99.6124 16.8275 99.8044 16.6835C100.188 16.2995 100.62 16.2035 101.052 16.3475C101.244 16.3955 101.484 16.2995 101.676 16.3955C101.916 16.4915 102.156 16.6835 102.396 16.8275C102.684 16.9715 102.972 17.0675 103.164 17.2595C103.452 17.4515 103.692 17.6915 103.884 17.9315C103.932 18.0275 103.932 18.2675 103.836 18.4595C103.836 18.6515 103.692 18.7955 103.548 18.9875C103.452 19.1315 103.164 19.0835 103.02 18.9875C102.78 18.8435 102.54 18.7475 102.348 18.6035C102.204 18.4595 102.06 18.3155 102.012 18.1715C101.916 17.9795 101.868 17.9795 101.724 18.0755C101.292 18.2675 100.86 18.5555 100.62 18.9875C100.428 19.3715 100.092 19.6115 99.8524 19.9955C99.6124 20.3795 99.3244 20.7635 99.0364 21.1955C98.5564 21.9155 98.2204 22.7315 97.9804 23.5475C97.7884 23.9795 97.8364 24.5075 97.9324 24.9395C97.9804 25.0835 98.1244 25.1315 98.2684 25.1795C98.8444 25.1795 99.4684 25.1315 100.092 24.8915C100.476 24.7955 100.86 24.7475 101.148 24.5555C101.484 24.4595 101.82 24.3155 102.108 24.1235C102.3 24.0275 102.444 23.8835 102.684 23.7395C102.78 23.6435 102.876 23.6435 102.972 23.5955V23.6915C102.876 23.7395 102.78 23.7875 102.636 23.8835V23.9315C102.78 23.9315 102.876 23.8835 102.924 23.8355L104.124 23.0675C104.7 22.6355 105.228 22.2035 105.756 21.7715C106.14 21.5315 106.428 21.2915 106.764 21.0035C106.764 21.0035 106.812 20.9555 106.812 20.8595C106.716 20.9555 106.62 21.0035 106.428 21.0995C106.38 21.0515 106.428 21.0035 106.428 21.0035C106.764 20.7155 107.244 20.4275 107.628 20.1875C107.724 20.0435 107.868 19.9475 108.108 19.8035C108.156 19.7555 108.204 19.5635 108.348 19.7555C108.396 19.6595 108.396 19.5635 108.396 19.5635C108.636 19.4195 108.924 19.1795 109.164 18.9875C109.212 18.9875 109.308 18.9395 109.356 18.8915C109.356 18.9875 109.452 19.0355 109.404 19.0835C109.356 19.3715 109.308 19.6115 109.02 19.7555C108.972 19.7555 108.924 19.8515 108.924 19.8995C109.02 20.1395 108.732 20.1875 108.684 20.3795C108.636 20.4275 108.636 20.4755 108.54 20.5715C108.492 20.6195 108.396 20.7155 108.396 20.7635C108.3 20.8595 108.3 20.9555 108.204 21.0035C107.964 21.1475 107.772 21.2915 107.58 21.3395C107.532 21.3875 107.484 21.3875 107.436 21.3875C107.388 21.3875 107.388 21.4355 107.388 21.4835C107.484 21.5795 107.484 21.6275 107.676 21.7235C107.58 22.1075 107.244 22.2035 106.908 22.2515C106.908 22.5395 106.62 22.6835 106.476 22.8275C106.428 22.8275 106.428 22.7795 106.428 22.7795C106.428 22.6835 106.524 22.5395 106.572 22.4435C106.476 22.4435 106.38 22.4915 106.284 22.5395C106.092 22.6835 105.948 22.7315 105.804 22.5395C105.852 22.4435 105.852 22.3475 105.9 22.2035H105.852C105.708 22.3475 105.468 22.5395 105.228 22.6835C104.748 23.0675 104.268 23.4515 103.788 23.8835C103.788 23.9315 103.74 23.9315 103.692 24.0275C103.356 24.1715 102.876 23.9315 102.732 24.5075C102.876 24.5075 103.068 24.4595 103.212 24.5555C103.404 24.6995 103.596 24.6515 103.836 24.5555C103.692 24.5555 103.548 24.5075 103.452 24.5075C103.548 24.2195 103.788 24.1715 104.316 24.3635L103.5 24.9875C103.452 24.9875 103.452 25.0355 103.452 25.0355C103.02 24.9875 102.876 25.3715 102.684 25.6115C102.636 25.6595 102.684 25.8035 102.684 25.9955C102.54 26.0915 102.3 26.1395 102.108 26.2355C101.676 26.4275 101.196 26.5235 100.812 26.6675C100.668 26.8115 100.524 27.0035 100.332 26.9555ZM104.316 24.0755C104.268 23.6915 104.412 23.5475 104.7 23.5475C104.796 23.5475 104.94 23.4995 105.036 23.4035C104.988 23.3555 104.844 23.3555 104.748 23.3555C104.796 23.1155 104.94 23.0675 105.132 23.0675C105.372 23.0195 105.66 22.7795 105.804 23.0675C105.9 23.0675 105.996 23.0195 106.092 22.9715C106.092 23.0675 106.14 23.1155 106.092 23.1155C105.66 23.4035 105.324 23.8355 104.796 23.9315C104.796 23.8835 104.796 23.7875 104.844 23.6915C104.652 23.8355 104.46 23.9315 104.316 24.0755ZM102.876 25.9475C102.78 25.6595 102.828 25.6115 103.356 25.6595C103.212 25.7075 103.02 25.8515 102.876 25.9475ZM122.557 29.7395C122.365 29.8355 121.261 29.8355 120.829 29.4515C120.397 29.2115 120.061 28.6835 119.821 28.1075C119.725 27.6755 119.437 27.0515 119.389 26.3795C119.389 25.7555 119.245 25.0835 119.293 24.6035L119.245 23.5475C119.101 23.4995 118.957 23.5475 118.669 23.7875C118.669 23.8835 118.573 23.8835 118.525 23.9315C117.901 24.5555 117.229 25.0355 116.701 25.6595C116.365 26.0915 115.885 26.2355 115.501 26.5235L115.165 26.8115C115.021 26.8115 114.877 26.7635 114.637 26.7155L114.253 26.0915C114.253 26.2355 114.157 26.3315 114.109 26.4755C113.917 26.5235 113.821 26.4275 113.773 26.2355C113.773 26.1395 113.629 26.1395 113.581 25.9955C113.533 25.8995 113.341 25.8035 113.341 25.7075C113.245 25.2275 112.477 25.0835 113.053 24.6515C113.149 23.9795 113.389 22.5875 113.485 21.8675C113.533 21.8195 113.485 21.7235 113.389 21.5795C112.813 22.2995 112.285 22.9235 112.045 23.2595C111.949 23.3555 111.805 23.4035 111.661 23.4515C111.805 23.7395 111.517 23.9315 111.325 24.1715L111.037 24.7955C110.557 25.4675 110.173 26.1395 109.741 26.8115C109.597 27.0515 109.309 27.1475 109.117 27.3395C109.021 27.3875 108.925 27.4835 108.877 27.6275L108.493 27.9155C108.205 27.7235 108.205 27.3395 108.109 27.1475L107.869 27.5315C107.581 27.1475 107.485 26.6675 107.533 26.1395C107.677 24.5075 108.013 22.9235 108.445 21.3395C108.685 20.4275 108.829 19.4675 109.069 18.5555C109.069 18.3155 109.165 18.0755 109.069 17.8835C109.021 17.7875 109.213 17.5955 109.213 17.4995C109.597 17.5475 109.741 17.5475 110.029 17.6435C110.365 17.7395 110.605 17.8355 110.701 18.2675C110.797 18.7475 110.749 19.2755 110.605 19.7555C110.509 20.3795 110.413 21.0035 110.221 21.6755C110.173 22.0595 109.597 23.5475 109.501 24.0755C109.645 24.0275 109.741 23.9795 109.789 23.9315C109.933 23.6435 110.173 23.3075 110.797 22.2515C111.229 21.7235 111.565 21.0035 112.093 20.4755C112.429 20.1395 112.717 19.7555 113.101 19.4675C113.293 19.3235 113.437 19.3715 113.629 19.5155C113.917 19.8515 114.349 20.0435 114.829 19.8995C115.021 19.8035 115.165 19.8995 115.357 19.8995C115.501 20.2355 115.405 20.6195 115.501 21.0035C115.549 21.0995 115.597 21.2915 115.549 21.4355C115.501 21.8675 115.597 22.2995 115.405 22.6835C115.261 23.0675 115.165 24.1235 115.069 24.6515C115.693 24.1235 116.461 23.3555 116.989 22.9235C117.277 22.6835 117.613 22.4435 117.949 22.2515C118.141 22.1075 118.333 22.0115 118.717 21.6755C118.861 21.6275 119.101 21.5795 119.197 21.6755C119.677 21.8195 119.869 22.0595 120.349 22.2515C120.445 22.3475 120.541 22.4435 120.349 22.4435C120.397 22.5395 120.493 22.6835 120.637 22.6835C121.069 22.6835 121.069 23.1635 121.021 23.4995C121.069 23.6435 121.069 23.8835 121.069 24.1235V24.3635C120.877 24.6515 121.069 24.9875 121.021 25.2755C121.069 25.7075 121.069 26.1395 121.165 26.5235C121.261 26.8115 121.261 27.0035 121.501 27.9155C121.789 28.4915 122.173 28.7315 122.845 28.4915C122.941 28.3955 123.133 28.7315 123.037 28.9235C123.037 29.0195 122.941 29.0675 122.845 29.1635C122.845 29.3075 122.845 29.4035 122.557 29.7395ZM132.525 23.4995C132.525 23.5475 132.573 23.5955 132.573 23.5955C133.197 23.4035 133.725 22.8755 134.349 22.5395C134.301 22.6355 134.301 22.7315 134.253 22.7795C134.061 22.9715 133.821 23.1635 133.629 23.3075L132.717 24.0275C132.333 24.2195 132.045 24.4115 131.709 24.6515C131.277 24.8915 130.893 25.2275 130.413 25.4195C130.125 25.5635 129.789 25.5635 129.453 25.6115C129.261 25.6115 129.165 25.6595 129.021 25.7555C128.829 25.8515 128.541 25.8995 128.301 25.9475C127.917 26.0435 127.581 26.1395 127.197 26.0915C126.717 26.0435 126.189 25.9475 125.757 25.8035C125.325 25.6595 125.133 25.6115 124.653 25.2275C124.605 25.1315 124.461 25.0835 124.413 25.0355C124.077 24.7955 123.885 24.5075 123.597 24.0755C123.501 23.9795 123.501 23.9795 123.405 23.4995C123.165 22.9235 123.213 22.5875 123.213 22.2515C123.261 21.2915 123.501 20.3795 123.981 19.4675C124.173 19.1795 124.365 18.8915 124.605 18.6035C125.037 18.0755 125.469 17.5955 125.901 17.1155C126.333 16.6835 126.861 16.3955 127.485 16.3475C127.629 16.3475 127.773 16.2995 127.965 16.2515C128.445 16.0595 128.877 16.3955 129.213 16.5875C129.645 16.7795 130.029 17.0675 130.365 17.3555C130.749 17.5955 130.989 18.4115 130.845 18.7955C130.749 19.0355 130.605 19.2755 130.461 19.4195C130.029 19.8995 129.597 20.3315 129.165 20.7635C129.021 20.9075 128.733 20.9555 128.685 21.0995C128.637 21.4355 128.301 21.4835 128.109 21.5795L127.773 21.7715C127.869 21.7715 127.917 21.8195 127.917 21.8195C127.773 21.9155 127.629 21.9635 127.437 22.0595C127.389 22.1075 127.389 22.2515 127.341 22.2995C127.005 22.4915 126.621 22.6355 126.333 22.8275C126.189 22.8755 126.093 23.0195 125.997 23.1155C125.613 23.3075 125.469 23.3555 125.133 23.5475C125.325 24.1235 125.421 24.2195 125.805 24.3635C126.429 24.3155 127.053 24.3635 127.677 24.2675C128.109 24.2195 128.541 24.0275 128.973 23.8835C129.309 23.7395 129.693 23.5475 130.077 23.4035C130.317 23.3075 130.557 23.3075 130.797 23.1635C131.325 22.8275 131.901 22.5395 132.381 22.2515L132.525 22.1555C132.573 22.2035 132.573 22.2035 132.573 22.2035C132.525 22.2995 132.429 22.3955 132.381 22.4435C132.429 22.4915 132.477 22.5395 132.429 22.5875C132.573 22.5875 132.717 22.5395 132.813 22.4915C132.861 22.5395 132.861 22.5395 132.813 22.5875C132.621 22.7315 132.381 22.9235 132.189 23.1155C132.333 23.2115 132.573 23.2595 132.813 23.3555C132.669 23.4035 132.621 23.4515 132.525 23.4995ZM125.421 20.6195C125.277 20.9075 125.181 21.2435 125.085 21.6275C125.469 21.3875 125.709 21.2435 125.901 21.0995C125.997 21.0995 126.093 21.1475 126.141 21.0995C126.285 21.0035 126.525 20.8595 126.717 20.6675C126.573 20.6675 126.525 20.7155 126.381 20.7155C126.669 20.4755 126.813 20.1875 127.149 20.1875C127.053 20.3315 126.909 20.4275 126.813 20.5715C126.813 20.5715 126.813 20.6195 126.861 20.6195C127.293 20.3315 127.677 19.9955 128.109 19.7075L128.013 19.6115C127.917 19.7075 127.821 19.8035 127.629 19.8995C127.485 19.9955 127.341 20.0915 127.149 20.1875C127.197 20.1395 127.197 20.0915 127.197 20.0435C127.677 19.6595 128.061 19.3235 128.493 18.8915C128.781 18.6515 128.973 18.3635 129.165 18.0275C129.309 17.7875 129.069 17.3555 128.877 17.4515C128.445 17.6435 128.013 17.6435 127.629 17.9315C127.197 18.2675 126.765 18.5075 126.429 18.9395C126.045 19.4675 125.709 20.0435 125.421 20.6195ZM129.693 17.8835C129.357 18.2675 129.165 18.6515 129.309 19.1795C129.453 18.8915 129.693 18.5555 129.837 18.2675L129.693 17.8835ZM136.317 20.2355C136.029 20.4275 135.741 20.5715 135.501 20.7635V20.8115C135.501 20.7635 135.549 20.7635 135.549 20.7635C135.549 20.8115 135.597 20.8595 135.597 20.8595C135.501 20.9555 135.309 21.0995 135.069 21.2435L135.117 21.4355C134.925 21.5315 134.829 21.6275 134.973 21.7715C134.781 21.9155 134.493 21.9155 134.445 22.2515C134.445 22.2515 134.445 22.2995 134.397 22.2995C134.061 22.2995 133.869 22.6355 133.629 22.8275C133.485 22.9235 133.293 23.0675 133.053 23.1635C132.957 23.2115 132.861 23.1155 132.765 23.0675C132.717 22.9715 132.717 22.8755 132.717 22.8275C132.717 22.7795 132.765 22.7315 132.765 22.7315C133.197 22.8275 133.485 22.4915 133.821 22.2995L134.157 22.1075C134.349 22.0595 134.445 21.9155 134.253 21.6275C133.917 21.9155 133.485 22.1555 133.101 22.4915C133.053 22.4435 132.909 22.3955 132.765 22.3475C133.101 22.1555 133.869 21.7235 134.157 21.1955C134.253 21.0995 134.781 20.8595 134.925 20.7155L135.261 20.8595C135.357 20.7155 135.453 20.6195 135.549 20.5235C135.501 20.4755 135.453 20.4755 135.357 20.4275L135.405 20.3795C135.549 20.3795 135.693 20.3795 135.933 20.3315C135.885 20.2355 135.837 20.1875 135.837 20.1395L136.077 19.9475L136.029 19.8995L135.837 20.0435H135.741L136.557 19.5155L136.653 19.8515C136.653 19.8515 136.701 19.8515 136.701 19.8995C136.557 19.9955 136.461 20.1395 136.317 20.2355ZM132.669 22.1075C132.621 22.1075 132.621 22.0595 132.621 22.0595C133.053 21.7715 133.485 21.5795 133.965 21.2915C133.917 21.5315 133.629 21.6275 132.669 22.1075ZM131.421 23.1155C131.757 22.9715 131.997 22.8275 132.237 22.6835C132.189 22.5395 131.757 22.6835 131.421 23.1155ZM144.534 15.1475C143.478 15.0515 142.566 14.8115 141.99 13.9475C141.558 13.3715 141.702 12.4115 142.23 11.9795C142.374 11.7875 142.614 11.7395 142.854 11.7395C143.094 11.7395 143.526 11.7875 143.574 12.0755C143.67 12.3155 143.718 12.5555 143.718 12.7955C143.718 13.2755 144.006 13.8515 144.87 13.9955C145.302 13.9955 145.686 13.9955 146.07 13.9475C146.214 13.9475 146.406 13.8995 146.598 13.8995C146.646 13.9475 146.646 14.2355 146.646 14.2355C146.166 14.9075 145.254 15.1475 144.534 15.1475ZM142.374 13.2275C142.182 13.1315 142.23 13.8035 142.95 14.1875C143.142 14.2835 143.334 14.3795 143.478 14.4275V14.3315C143.478 14.2355 143.094 14.1875 142.614 13.6115L142.374 13.2275ZM154.326 21.1955C154.374 21.0995 154.566 21.1475 154.758 21.1475C154.518 21.4355 154.134 21.6275 154.086 22.1075L153.894 22.2035C154.086 22.5395 153.702 22.5875 153.558 22.6835C153.318 22.7795 153.462 22.9715 153.27 23.0675C153.318 23.1155 153.366 23.1635 153.558 23.2115C153.366 23.2115 153.27 23.2595 153.174 23.2595C152.934 23.2595 152.838 23.4515 152.79 23.6915C152.79 23.9315 152.454 24.2195 152.214 24.2195C152.118 24.2195 151.974 24.2675 151.878 24.3635C151.974 24.4595 151.974 24.5075 151.974 24.5555L151.35 24.9875C151.35 25.0355 151.35 25.0355 151.398 25.0835C151.542 24.9875 151.59 24.9395 151.734 24.8915C151.734 24.9395 151.782 24.9395 151.782 24.9395C151.206 25.6595 150.534 25.8035 149.67 25.8515C149.766 25.9475 149.766 25.9955 149.862 26.0915C149.382 25.9955 149.094 26.4755 148.71 26.2355C148.566 26.1875 148.47 26.2355 148.326 26.1875C148.086 26.0915 147.894 25.9955 147.702 25.9955C147.558 25.8995 147.366 25.8035 147.222 25.7555C147.03 25.6595 146.79 25.5635 146.79 25.4675C146.598 25.1795 146.358 25.0355 146.07 24.9395C145.59 24.7475 145.446 24.3635 145.302 23.9795C145.206 23.8355 145.11 23.7395 145.062 23.6435C144.87 23.3555 144.774 23.0675 144.63 22.7795C144.678 22.6835 144.63 22.6355 144.534 22.4915L143.814 23.2115H143.766C143.766 23.1635 143.814 23.1155 143.814 23.0195C143.718 22.9235 142.998 23.6435 142.854 23.8835C142.806 23.9795 142.806 24.0275 142.758 24.0275C142.71 24.1235 142.566 24.2195 142.518 24.2675C142.182 24.6995 141.942 25.1795 141.462 25.4195C140.79 25.7075 140.214 26.1395 139.494 26.1875C138.966 26.2355 138.678 26.0915 138.486 25.6115C138.438 25.5635 138.438 25.5155 138.438 25.4195C138.39 25.5155 138.342 25.6115 138.342 25.6595C138.438 25.7555 138.246 25.6115 138.15 25.5155C138.006 25.3235 137.766 25.1315 137.622 24.8435C137.142 23.9315 137.19 23.3555 137.43 22.5395C137.814 21.1475 139.158 19.6595 139.014 19.3235C138.534 19.4675 138.15 19.5155 138.006 19.3715C137.814 19.0355 137.622 18.7955 137.67 18.5555C137.766 18.3635 137.958 18.2675 138.102 18.1715C138.294 18.0275 138.534 17.8835 138.822 17.7875C139.206 17.6915 139.542 17.6915 139.878 17.7875C140.118 17.9795 140.502 18.0755 140.646 18.3155C141.03 18.9875 140.742 19.6595 140.214 20.8595C139.974 21.4355 139.446 22.4435 139.302 22.7795C139.11 23.2115 138.918 23.8835 139.302 24.1235C139.59 24.2675 139.974 24.1715 140.262 23.9795C140.934 23.5955 141.174 23.2595 141.558 22.9235C142.086 22.4435 142.47 21.9635 142.998 21.4355C143.478 20.9555 143.91 20.3795 144.39 19.8995C144.678 19.6115 144.918 19.2755 145.206 18.9875C145.254 18.8915 145.446 18.8435 145.494 18.6995C145.59 19.0835 145.686 18.8435 145.878 18.7475C146.118 18.6995 146.31 18.6995 146.502 18.6995C146.502 18.7475 146.55 18.7475 146.55 18.7955L146.31 18.9395C146.31 18.9875 146.31 18.9875 146.262 19.0355C146.598 19.1315 146.982 19.1315 147.366 19.2275C147.366 19.3235 147.318 19.3715 147.222 19.3715C147.27 19.3715 147.27 19.4195 147.27 19.4195C147.606 19.4675 147.654 19.6115 147.558 19.8995C147.318 20.1875 147.174 20.5235 147.078 20.9075C146.694 21.8195 146.55 22.7795 146.79 23.7395C146.838 23.9315 146.886 24.0755 146.982 24.2195C147.51 24.7475 148.806 24.4115 149.622 24.0275C150.15 23.7875 150.63 23.4515 151.11 23.1155C152.022 22.4915 152.934 21.8195 153.798 21.0995L154.47 20.4755C154.47 20.4275 154.566 20.4275 154.614 20.4275C154.662 20.4275 154.71 20.4755 154.662 20.5235L153.846 21.3875C154.038 21.4355 154.182 21.3875 154.326 21.1955ZM143.526 21.3395C144.102 21.1475 145.158 19.8995 145.11 19.6115C144.582 20.2355 144.102 20.7635 143.526 21.3395ZM139.254 21.5795C139.014 21.7715 139.014 21.7715 139.254 21.8675C139.35 21.5795 140.07 20.3315 140.262 19.8515C139.926 19.9475 139.302 21.0515 139.35 21.2915C139.302 21.3875 139.254 21.4835 139.254 21.5795ZM144.582 21.4355C144.87 21.1475 145.062 20.9075 144.87 20.6195C144.822 20.6675 144.822 20.7155 144.726 20.8115C144.678 20.9555 144.582 21.1475 144.486 21.2915C144.486 21.3395 144.39 21.3395 144.342 21.3875V21.1955C144.15 21.3395 144.054 21.4355 143.862 21.6275C144.198 21.6755 144.39 21.6755 144.582 21.4355ZM153.366 22.2995C153.462 22.2035 153.606 22.1075 153.654 22.0115L153.558 21.4355L151.974 22.8275C152.022 22.8275 152.022 22.8275 152.07 22.8755C152.454 22.5875 152.838 22.2035 153.222 21.8675C153.222 21.9155 153.222 21.9155 153.27 21.9155C153.078 22.2035 152.838 22.4435 152.502 22.7795L152.838 22.6835L153.366 22.2995ZM140.55 24.1715C140.934 24.1715 142.134 23.4995 142.182 23.2115C141.702 23.4995 141.078 23.8355 140.55 24.1715ZM150.966 23.7395L151.398 23.5955C151.254 23.4995 151.158 23.4035 151.11 23.4035C151.062 23.4515 150.966 23.5475 150.87 23.5955C150.918 23.6915 150.966 23.6435 150.966 23.7395ZM138.342 25.2275V25.2755C138.342 25.2275 138.342 25.2275 138.342 25.2275Z" fill="#272727"></path></svg> 