<?xml version="1.0" encoding="UTF-8"?> <svg xmlns="http://www.w3.org/2000/svg" width="87" height="28" viewBox="0 0 87 28" fill="none"><path d="M6.01214 25.6675C5.75614 25.7315 4.98814 25.5395 4.86014 25.1555C4.79614 24.8355 4.73214 24.5795 4.73214 24.3235C4.66814 23.1715 4.66814 22.0195 4.79614 20.9955C4.92414 19.7155 5.18014 18.4995 5.50014 17.3475C5.94814 15.4915 6.65214 13.6995 7.48414 11.9715V11.9075C7.48414 11.8435 7.48414 11.6515 7.74014 11.5875C7.74014 11.4595 7.74014 11.3315 7.80414 11.2035C8.31614 9.85945 8.82814 8.77145 9.40414 7.61945C9.46814 7.55545 9.53214 7.23545 9.59614 6.97945C9.27614 7.04345 9.08414 7.17145 8.95614 7.36345C7.67614 8.64345 6.39614 10.0515 4.86014 11.4595L3.38814 12.8675C3.06814 13.3795 2.55614 13.5715 1.98014 13.6995C1.46814 13.6995 1.21214 13.5075 0.956141 13.2515C0.764141 12.9955 0.444141 13.0595 0.444141 12.6115C1.27614 11.9075 1.98014 10.9475 2.94014 10.4355C3.13214 10.3075 3.26014 10.1795 3.38814 9.85945C3.64414 9.73145 3.83614 9.34745 4.15614 9.47545C4.47614 9.21945 4.79614 8.83545 4.98814 8.57945C5.50014 8.25945 6.01214 7.68345 6.46014 7.36345C6.84414 7.04345 7.29214 6.97945 7.16414 6.46745C7.16414 6.33945 7.29214 6.27545 7.42014 6.21145L9.78814 4.16345C10.3641 3.58745 10.6201 3.65145 11.7721 4.16345C11.9641 4.22745 11.7081 4.35545 11.9641 4.54745C12.4121 4.86745 13.1161 5.25145 12.9881 5.76345C12.9241 6.08345 12.6681 6.27545 12.6041 6.53145C11.7721 7.87545 11.2601 9.34745 10.5561 10.6915C9.85214 12.0995 9.53214 13.5075 8.82814 14.7875C8.57214 15.2355 8.57214 15.6835 8.44414 16.1315C8.25214 16.6435 8.06014 16.8995 7.48414 17.3475C7.54814 17.4755 7.99614 17.6035 7.74014 17.7955C7.54814 18.0515 7.29214 18.0515 7.16414 18.3715V19.3315C7.16414 19.5235 6.97214 19.7155 7.10014 19.8435C7.35614 20.0995 6.97214 20.2275 7.03614 20.4195C7.10014 20.5475 6.84414 20.7395 6.78014 20.8675C6.71614 20.9315 6.65214 20.9955 6.39614 20.9955C6.78014 21.6355 6.46014 22.1475 6.58814 22.7235C6.78014 23.1715 6.33214 23.6195 6.52414 24.0675C6.26814 24.3235 6.33214 24.5795 6.46014 24.8355C6.46014 25.1555 6.14014 25.5395 6.01214 25.6675ZM5.37214 19.4595C5.50014 19.3955 5.69214 19.3955 5.75614 19.1395C5.75614 19.0755 6.58814 16.9635 6.65214 16.6435C6.71614 16.1955 6.90814 15.8115 6.78014 15.2995C6.78014 15.4275 6.71614 15.5555 6.71614 15.8755C6.65214 16.2595 6.26814 16.7075 6.26814 16.3875V15.6195C6.26814 15.6835 6.20414 15.6835 6.20414 15.8755C6.26814 15.6835 5.56414 18.8835 5.37214 19.4595ZM5.30814 21.1875L5.37214 21.1235C5.69214 20.7395 5.69214 20.6115 5.37214 20.1635L5.30814 21.1875ZM15.6496 25.5395C15.3936 25.6035 15.1376 25.5395 15.0736 25.3475C14.8816 24.8995 14.1136 24.7075 13.7936 24.3875C13.5376 24.1315 13.6016 23.9395 13.7296 23.5555C13.9856 23.0435 14.3056 22.7235 14.6896 22.1475C15.5856 20.9315 16.5456 20.0355 17.6976 19.0115C18.5936 17.9875 19.6176 17.2195 20.6416 16.1955C21.5376 15.3635 22.0496 14.8515 22.9456 13.8915C23.7136 13.1875 25.0576 11.9075 25.8896 10.5635C26.4656 9.60345 26.6576 8.64345 26.6576 8.06745C26.7216 6.78745 25.7616 5.31545 23.2656 5.57145C22.4336 5.63545 21.0896 6.08345 20.1936 6.85145C19.2976 7.61945 18.9776 8.19545 18.6576 8.89945C18.4656 9.34745 18.2736 9.21945 17.3776 9.02745C17.0576 8.96345 16.8016 8.77145 16.6096 8.45145C16.6736 8.25945 16.8016 7.74745 17.0576 7.23545C17.3776 6.59545 17.9536 5.89145 18.1456 5.69945C19.7456 4.09945 21.6016 3.26745 24.4816 3.39545C27.6176 3.52345 29.4736 5.69945 29.3456 8.19545C29.2816 9.02745 29.0896 10.1795 28.7696 10.8835L28.5776 11.2035L28.5136 11.2675C28.4496 11.4595 28.2576 11.7155 28.1296 11.9075C28.0016 12.3555 27.7456 12.6115 27.3616 12.9315C26.9776 12.9955 27.0416 13.6355 26.5296 13.6995C26.5296 14.0835 26.1456 14.2755 25.8256 14.4675C25.7616 14.6595 25.5696 14.7875 25.5696 14.8515C25.5696 15.4275 24.8016 15.6195 24.1616 15.7475C23.8416 15.9395 23.8416 15.8115 23.7136 16.0675C23.3936 16.7075 23.5216 16.4515 22.9456 16.5795C22.8816 16.8995 22.8816 17.1555 22.8816 17.4755C22.5616 17.4755 22.3696 17.4755 22.1136 17.5395C22.0496 17.7315 21.6656 17.8595 21.6656 18.1795C21.6656 18.4355 21.4736 18.6275 21.1536 18.9475C20.8976 19.0755 20.5136 19.0755 20.5136 19.2035C20.5136 19.4595 20.0016 19.6515 20.0016 19.7795C19.9376 20.2275 19.4256 20.5475 19.0416 20.8675L17.8256 22.0835C17.5056 22.2115 17.5056 22.4675 17.6336 22.7875C17.8896 22.7875 18.1456 22.7235 18.3376 22.6595C19.0416 22.5315 21.0256 22.1475 22.3696 22.0195C23.7136 21.8915 24.8656 21.8275 25.5056 21.8915C26.7216 22.0195 27.8096 22.1475 28.5136 22.7875C28.8336 23.1075 28.6416 23.7475 28.5136 24.0035C28.3856 24.3235 28.0656 24.3875 27.8736 24.3235C27.4256 24.1955 27.2336 24.0035 26.2096 23.8755C25.1216 23.7475 24.8656 23.7475 24.0336 23.7475C22.6896 23.7475 19.4896 24.3875 18.2096 24.7715C17.3136 25.0915 16.4816 25.2835 15.6496 25.5395ZM18.0816 6.40345H18.4016C18.6576 6.08345 18.7216 5.95545 19.0416 5.89145L18.9776 5.95545C18.9776 5.95545 20.2576 5.05945 20.4496 4.86745H20.3216C19.1696 5.50745 18.5936 5.95545 18.0816 6.40345ZM25.6336 12.4195L25.8256 12.3555C25.8896 12.2915 26.5296 11.5875 26.6576 11.5235V11.3955H26.4656C26.4016 11.5875 25.6976 12.3555 25.6336 12.4195ZM17.5056 20.2915C17.7616 20.1635 17.8896 20.1635 18.0816 20.0355C18.5936 19.3955 19.1696 18.8835 19.7456 18.3715C20.0656 17.9875 20.6416 17.4755 21.0896 16.9635C21.7296 16.3235 22.2416 15.9395 22.9456 15.2355C23.7136 14.6595 24.4176 14.1475 25.1216 13.2515C25.1216 13.1235 25.1216 13.0595 25.1856 12.9315C24.9936 12.9955 24.8656 13.2515 24.8656 13.2515C24.6096 13.6995 24.4176 13.7635 24.3536 13.9555C23.9696 14.4675 23.5856 14.6595 23.2016 14.7235V14.7875C22.7536 15.2355 22.1136 15.7475 21.7296 16.0035L19.5536 18.1795C19.0416 18.7555 18.3376 19.5235 17.6336 19.9715C17.6336 20.0355 17.6336 20.0995 17.5056 20.2915ZM40.5416 18.3075C39.8376 18.3075 39.5816 17.4755 39.7736 17.2835C40.1576 16.5795 40.2216 15.8115 40.6056 15.2995C40.9896 14.9155 41.3096 14.5955 41.9496 14.7875C42.4616 14.7875 42.5896 14.8515 42.9096 14.9155C43.2296 14.9155 43.4216 15.0435 43.6776 15.3635C43.7416 15.8115 43.7416 16.1315 43.3576 16.6435C42.9096 17.4755 43.0376 17.3475 42.5256 17.7955C41.9496 18.4355 41.0536 18.5635 40.5416 18.3075ZM38.4936 26.7555C37.7896 26.7555 37.5336 25.9235 37.7256 25.7315C38.1096 25.0275 38.1736 24.2595 38.5576 23.7475C38.9416 23.3635 39.2616 23.0435 39.9016 23.2355C40.4136 23.2355 40.5416 23.2995 40.8616 23.3635C41.1816 23.3635 41.3736 23.4915 41.6296 23.8115C41.6936 24.2595 41.6936 24.5795 41.3096 25.0915C40.8616 25.9235 40.9896 25.7955 40.4776 26.2435C39.9016 26.8835 39.0056 27.0115 38.4936 26.7555ZM62.9836 4.99545C65.5436 4.99545 67.0796 6.46745 67.0796 9.21945C67.0796 9.73145 67.0156 10.3075 66.8876 10.8835L66.6956 11.8435C66.6956 12.0995 66.6956 12.2915 66.3116 12.6115C66.3756 12.5475 66.6316 12.5475 66.5676 12.7395C66.3116 13.8275 65.6076 14.8515 65.4156 16.0035C65.4156 16.1315 65.3516 16.3235 65.3516 16.5795C65.0956 16.8995 64.9036 17.2195 64.7756 17.4755C64.7116 18.1155 64.3276 18.6915 63.8796 19.2675L62.5996 20.6115H62.2156C62.1516 20.6115 61.7676 21.4435 61.7036 21.5715C61.8316 21.5715 61.7676 21.6355 61.8316 21.5715C61.7676 21.9555 61.4476 22.4035 61.1276 22.7235C60.9996 22.9795 60.7436 23.3635 60.4876 23.6195C60.6156 23.9395 60.8076 23.6195 60.9356 23.6195C61.0636 23.4915 61.1916 23.4275 61.4476 23.2995C61.5116 23.4275 61.5116 23.4915 61.3196 23.5555C61.0636 24.0675 59.9116 24.3875 59.3996 24.8355C58.6316 25.4115 57.2876 25.7315 56.2636 25.7315C55.4316 25.7315 54.5356 25.5395 53.7676 25.0915C52.5516 24.4515 51.3356 22.2755 51.2076 20.2915C51.1436 19.4595 51.0796 18.6275 51.0796 17.8595C51.0796 14.7235 51.7196 11.5235 53.6396 7.61945C54.5356 5.63545 56.1996 3.33145 57.9276 1.85945C58.3116 1.47545 58.8876 1.28345 59.3996 1.09145C59.7836 0.963451 60.4876 1.09145 61.1916 1.34745C61.5116 1.60345 61.5116 2.05145 61.1276 2.05145C60.4876 2.24345 59.9756 2.69145 59.3996 3.26745C57.2236 5.31545 54.7916 9.53945 53.9596 13.1235C53.5756 14.8515 53.2556 16.4515 53.2556 18.2435C53.2556 18.9475 53.2556 19.6515 53.3836 20.4195C53.8316 23.8115 56.1996 24.6435 58.5036 22.8515C62.5996 19.6515 67.3356 6.65945 62.9836 6.65945C61.8316 6.65945 60.0396 8.25945 58.8876 10.1155C58.8236 10.3715 58.6316 10.4355 57.7356 10.4355C57.6076 10.4355 57.2876 10.1795 57.2876 9.98745C57.2876 9.79545 57.2876 9.34745 57.4156 9.09145C57.8636 8.06745 58.2476 7.61945 58.8236 6.97945C60.1676 5.63545 61.3836 4.99545 62.9836 4.99545ZM65.5436 12.9955C65.5436 12.8675 65.5436 12.7395 65.4156 12.6115C65.7996 11.9715 65.9276 11.0755 66.1196 10.1795L65.7996 10.0515C65.4156 11.2035 65.4796 12.3555 64.9676 13.6355C64.3276 15.2355 63.5596 17.0275 62.7276 18.5635C62.6636 18.6915 62.5996 18.7555 62.9836 18.8835C63.0476 18.6915 63.2396 18.6275 63.4316 18.3715C64.1356 16.8995 64.7756 15.3635 65.4156 13.6355C65.4796 13.4435 65.5436 13.2515 65.5436 12.9955ZM81.9836 4.99545C84.5436 4.99545 86.0796 6.46745 86.0796 9.21945C86.0796 9.73145 86.0156 10.3075 85.8876 10.8835L85.6956 11.8435C85.6956 12.0995 85.6956 12.2915 85.3116 12.6115C85.3756 12.5475 85.6316 12.5475 85.5676 12.7395C85.3116 13.8275 84.6076 14.8515 84.4156 16.0035C84.4156 16.1315 84.3516 16.3235 84.3516 16.5795C84.0956 16.8995 83.9036 17.2195 83.7756 17.4755C83.7116 18.1155 83.3276 18.6915 82.8796 19.2675L81.5996 20.6115H81.2156C81.1516 20.6115 80.7676 21.4435 80.7036 21.5715C80.8316 21.5715 80.7676 21.6355 80.8316 21.5715C80.7676 21.9555 80.4476 22.4035 80.1276 22.7235C79.9996 22.9795 79.7436 23.3635 79.4876 23.6195C79.6156 23.9395 79.8076 23.6195 79.9356 23.6195C80.0636 23.4915 80.1916 23.4275 80.4476 23.2995C80.5116 23.4275 80.5116 23.4915 80.3196 23.5555C80.0636 24.0675 78.9116 24.3875 78.3996 24.8355C77.6316 25.4115 76.2876 25.7315 75.2636 25.7315C74.4316 25.7315 73.5356 25.5395 72.7676 25.0915C71.5516 24.4515 70.3356 22.2755 70.2076 20.2915C70.1436 19.4595 70.0796 18.6275 70.0796 17.8595C70.0796 14.7235 70.7196 11.5235 72.6396 7.61945C73.5356 5.63545 75.1996 3.33145 76.9276 1.85945C77.3116 1.47545 77.8876 1.28345 78.3996 1.09145C78.7836 0.963451 79.4876 1.09145 80.1916 1.34745C80.5116 1.60345 80.5116 2.05145 80.1276 2.05145C79.4876 2.24345 78.9756 2.69145 78.3996 3.26745C76.2236 5.31545 73.7916 9.53945 72.9596 13.1235C72.5756 14.8515 72.2556 16.4515 72.2556 18.2435C72.2556 18.9475 72.2556 19.6515 72.3836 20.4195C72.8316 23.8115 75.1996 24.6435 77.5036 22.8515C81.5996 19.6515 86.3356 6.65945 81.9836 6.65945C80.8316 6.65945 79.0396 8.25945 77.8876 10.1155C77.8236 10.3715 77.6316 10.4355 76.7356 10.4355C76.6076 10.4355 76.2876 10.1795 76.2876 9.98745C76.2876 9.79545 76.2876 9.34745 76.4156 9.09145C76.8636 8.06745 77.2476 7.61945 77.8236 6.97945C79.1676 5.63545 80.3836 4.99545 81.9836 4.99545ZM84.5436 12.9955C84.5436 12.8675 84.5436 12.7395 84.4156 12.6115C84.7996 11.9715 84.9276 11.0755 85.1196 10.1795L84.7996 10.0515C84.4156 11.2035 84.4796 12.3555 83.9676 13.6355C83.3276 15.2355 82.5596 17.0275 81.7276 18.5635C81.6636 18.6915 81.5996 18.7555 81.9836 18.8835C82.0476 18.6915 82.2396 18.6275 82.4316 18.3715C83.1356 16.8995 83.7756 15.3635 84.4156 13.6355C84.4796 13.4435 84.5436 13.2515 84.5436 12.9955Z" fill="#820F09"></path></svg> 