<?xml version="1.0" encoding="UTF-8"?> <svg xmlns="http://www.w3.org/2000/svg" xmlns:xlink="http://www.w3.org/1999/xlink" width="88" height="76"><path fill="#28682E" transform="scale(0.074199 0.0742188)" d="M757.633 0L791.386 0C804.091 3.02841 816.541 5.53884 828.666 10.5829C852.707 20.5844 875.532 41.0441 891.166 61.7994C897.043 69.6028 901.893 78.1071 907.21 86.2882C910.502 91.3529 914.104 96.2633 917.247 101.416C918.481 103.44 921.661 108.074 921.18 110.433C918.221 111.341 914.659 109.296 911.936 108.132C915.463 113.432 931.534 138.057 930.965 142.997C929.803 143.499 928.798 143.627 927.556 143.792C927.122 145.203 927.595 145.865 928.289 147.176C930.637 151.621 938.507 159.227 937.362 164.549C936.568 168.24 933.016 168.158 933.652 173.105C942.617 183.729 952.535 193.444 961.224 204.341C973.85 220.176 985.018 237.393 996.271 254.21C1008.9 273.087 1021.31 292.407 1031.87 312.529C1063.23 372.26 1077.58 437.143 1082.71 504.043C1085.28 537.567 1087.05 572.265 1084.23 605.803C1082.76 623.197 1077.21 658.288 1084.73 673.965C1089.49 683.899 1098.02 692.966 1105.08 701.342C1121.87 721.284 1139.87 740.31 1157.03 759.966C1165.05 769.155 1174.71 778.781 1180.54 789.507C1183.59 795.123 1185.18 800.957 1184.62 807.37C1183.79 817.093 1178.4 826.063 1171.02 832.284C1170.56 832.677 1170.08 833.03 1169.59 833.386C1173.58 839.433 1172.08 849.906 1170.75 856.545C1170.03 860.114 1168.68 864.094 1165.5 866.193C1158.68 870.697 1150.66 866.773 1143.29 867.755C1136.31 868.684 1129.66 871.729 1122.62 872.056C1117.76 872.282 1113.06 869.729 1108.15 870.114C1103.29 870.496 1098.74 873.384 1093.88 873.496C1090.08 873.585 1086.47 872.041 1082.71 871.749C1078.14 874.609 1073.46 875.109 1068.26 873.902C1059.19 871.798 1051.13 865.678 1041.98 864.154C1031.06 868.788 1008.59 870.478 997.413 865.894C990.072 862.883 984.973 856.416 980.59 850.044C970.296 835.08 963.176 817.768 955.537 801.366L916.199 715.261C895.735 723.665 876.982 737.543 859.452 750.865C861.724 759.459 861.317 767.962 856.739 775.765C850.949 785.634 839.966 791.63 829.133 794.288Q825.96 795.038 822.734 795.506Q819.507 795.974 816.252 796.155Q812.997 796.336 809.738 796.23Q806.479 796.124 803.243 795.731C814.555 806.083 825.25 819.448 825.99 835.439C826.342 843.05 824.471 850.566 819.054 856.175C812.477 862.985 803.377 864.46 794.321 864.881C794.166 865.008 794.01 865.132 793.857 865.26C784.987 872.71 783.041 879.825 769.213 878.824C757.944 878.007 748.248 873.093 740.94 864.494C740.343 863.792 739.751 863.087 739.205 862.344C733.524 872.495 727.082 883.923 715.018 887.226C697.977 891.891 678.402 878.49 662.591 873.303C672.134 899.591 669.115 921.15 657.35 946.326C649.645 962.816 638.418 976.641 628.139 991.512C623.039 998.892 618.61 1006.8 612.902 1013.73C609.805 1017.5 606.38 1020.89 602.449 1023.77C595.601 1012.47 592.387 999.715 584.847 988.585C577.566 977.839 568.49 968.274 560.605 957.967C541.798 933.382 534.626 905.223 542.216 874.834C547.063 855.427 557.682 840.166 572.669 827.246C559.363 829.365 545.124 828.331 531.798 826.741C533.637 835.41 535.379 845.072 530.339 853.083C527.836 857.062 523.953 859.507 519.388 860.466C513.378 861.728 507.271 859.909 501.317 860.861C487.38 863.09 477.983 872.368 463.048 861.916C456.754 857.512 453.241 850.256 452.039 842.815C449.983 830.081 454.59 818.137 460.529 807.111C452.606 810.256 444.6 812.931 436.474 815.498C422.9 819.787 408.554 824.585 394.639 818.667Q394.02 818.41 393.416 818.122Q392.811 817.834 392.222 817.516Q391.632 817.198 391.06 816.85Q390.487 816.502 389.933 816.126Q389.379 815.75 388.845 815.346Q388.31 814.942 387.797 814.511Q387.284 814.081 386.793 813.625Q386.303 813.169 385.836 812.689Q385.369 812.209 384.927 811.706Q384.485 811.202 384.069 810.677Q383.653 810.152 383.264 809.607Q382.875 809.062 382.514 808.497Q382.154 807.933 381.822 807.351Q381.49 806.769 381.188 806.171Q380.887 805.573 380.616 804.96Q380.345 804.348 380.105 803.722C376.451 794.418 377.741 783.696 381.781 774.744C387.043 763.082 397.162 752.463 409.281 747.976C423.776 742.611 441.73 744.8 455.545 751.193C452.232 746.515 448.824 741.295 444.005 738.037C440.501 735.669 436.029 734.453 432.011 733.293C416.841 728.911 408.76 723.706 403.685 708.111C401.332 700.881 399.971 692.721 401.294 685.151C402.177 680.094 404.464 675.263 408.869 672.378C412.613 669.926 416.013 670.043 420.279 670.261C419.919 667.725 419.623 665.167 419.048 662.67C403.877 666.364 383.588 674.179 372.781 685.968C365.324 694.102 364.328 701.678 352.643 706.03C341.695 710.107 330.735 706.484 319.727 708.828C311.124 710.659 303.963 716.822 295.209 711.591C292.678 710.078 290.403 708.067 288.149 706.177C283.221 705.629 278.446 705.082 273.503 705.72C263.099 707.061 243.714 716.567 234.541 722.564C227.326 736.108 221.127 750.267 214.716 764.206C208.684 777.322 203.063 791.979 193.286 802.816C186.728 810.084 178.504 815.114 169.172 817.988C163.505 819.734 157.335 819.82 151.796 821.649C148.833 822.627 146.151 824.783 143.356 826.19C137.838 828.97 129.899 829.641 124.44 826.544C121.853 825.077 120.022 822.836 119.404 819.9C116.871 807.853 144.629 767.499 149.004 751.778C136.189 756.674 124.312 764.128 112.496 771.022Q80.225 790.188 47.5231 808.609C37.3289 814.219 27.0403 820.353 16.1854 824.572C12.8615 825.864 7.4618 827.956 4.02526 826.396C2.1086 825.526 1.05544 823.424 0 821.7L0 818.378C14.7753 780.047 57.664 741.194 86.0228 711.361C91.3296 705.778 93.2494 698.353 95.607 691.212C102.495 670.349 106.51 649.088 108.847 627.269C111.318 604.188 112.289 580.806 116.464 557.945C117.928 549.929 119.567 541.547 122.038 533.78C124.13 527.202 128.086 521.235 128.913 514.271C129.952 505.529 128.647 496.292 128.587 487.478Q128.497 480.808 128.824 474.145Q129.151 467.482 129.894 460.853Q130.637 454.223 131.793 447.653Q132.948 441.083 134.512 434.598C140.588 408.943 150.706 384.923 162.08 361.224C163.635 357.984 175.129 338.332 175.106 337.383C173.438 336.972 171.82 336.796 170.633 335.45C170.322 334.228 170.184 333.296 170.411 332.039C171.257 327.349 173.998 322.415 176.227 318.254C189.55 293.385 217.031 260.303 240.543 244.562L235.932 242.958C233.358 242.067 229.456 241.129 228.198 238.538C230.058 236.872 234.901 237.597 237.306 237.729C240.106 234.477 243.248 231.723 246.586 229.041C243.834 228.391 240.606 228.058 238.523 226.038C238.234 223.301 241.464 221.695 243.432 220.177C251.013 214.328 254.954 207.934 258.486 199.033C267.847 175.438 268.097 149.353 283.534 128.143C288.855 120.831 295.639 114.28 303.456 109.68C306.683 107.781 310.525 106.089 313.491 103.845C314.252 103.269 314.497 102.549 314.759 101.681C315.063 100.675 315.357 99.9532 315.929 99.0497C337.743 86.156 381.806 81.5317 406.483 86.8771C412.023 88.077 427.656 94.4041 431.125 94.3368C431.861 93.9553 432.611 93.5521 433.383 93.2504C435.259 92.5172 436.701 92.8383 438.465 93.6835C455.372 101.785 467.178 128.193 473.652 145.138C491.746 149.5 510.772 148.532 528.891 153.243C532.575 154.201 540.811 156.304 542.73 159.573C542.11 162.442 537.399 163.236 534.851 164.152C523.18 168.349 513.875 174.353 504.045 181.759C510.132 181.896 536.09 182.383 539.687 185.923L539.577 187.136C537.11 189.951 532.836 191.456 529.442 192.919C514.206 199.487 498.987 203.381 482.509 205.186C482.453 214.012 481.971 222.972 480.444 231.672C485.592 238.966 490.163 246.784 494.47 254.6C507.334 277.945 515.099 303.951 510.791 330.801C509.381 339.588 506.718 348.1 504.239 356.63C507.446 365.027 512.302 373.459 514.6 382.12C515.061 383.857 515.209 385.392 514.306 387L513.15 387.283C507.846 384.264 504.102 371.119 501.886 365.619C505.001 384.524 511.479 402.698 510.83 422.134L510.261 422.595C509.194 421.952 508.339 421.555 507.131 421.247L506.513 422.225C507.639 436.159 505.28 462.551 500.735 475.815C499.702 478.831 498.305 481.013 496.118 483.301C491.207 488.442 492.234 495.174 492.173 501.821C498.034 496.117 504.536 491.872 511.758 488.11C510.868 482.373 510.161 477.011 512.328 471.45C514.567 465.702 519.293 461.637 524.915 459.369C535.523 455.088 548.951 455.763 559.332 460.359C579.146 469.132 591.316 490.362 598.638 509.726C601.798 499.147 607.252 490.712 616.133 484.008C624.867 477.415 638.181 471.05 649.448 472.919C656.618 474.109 660.39 478.412 664.344 484.034C671.53 484.452 677.252 485.778 683.672 489.083C683.328 485.463 683.405 478.18 681.206 475.459L679.606 475.927C678.877 475.754 678.347 475.55 677.799 475.015C673.32 470.639 671.741 460.936 670.265 455.027Q667.814 445.352 665.919 435.553Q664.024 425.753 662.69 415.862Q661.356 405.971 660.588 396.019Q659.82 386.068 659.621 376.089C659.452 364.408 660.197 352.648 660.487 340.963C655.266 333.337 653.166 324.304 649.987 315.758C647.813 309.914 645.216 304.187 643.207 298.29C637.806 282.43 645.796 269.466 652.772 255.593C649.619 255.723 646.014 256.073 642.936 255.258C641.429 254.858 640.917 254.518 640.22 253.156C641.435 248.735 651.365 242.555 654.878 239.199C652.895 239.229 650.918 239.244 648.941 239.063C646.728 238.861 645.23 238.577 643.792 236.872C643.968 235.573 644.037 235.029 644.89 233.969C646.373 232.123 648.534 230.508 650.295 228.909C654.926 224.707 658.63 220.212 661.448 214.595C669.148 199.25 667.21 182.437 662.063 166.638C654.706 164.531 647.353 162.497 639.855 160.944C634.984 159.936 616.12 158.142 613.387 156.07C613.314 155.239 613.137 154.955 613.588 154.199C616.549 149.229 633.206 146.342 638.633 145.122C629.816 144.36 620.757 143.8 611.913 144.304C605.566 144.666 599.248 145.82 592.882 145.676L592.021 144.546C594.173 136.426 643.514 110.905 653.032 105.247C655.976 88.1193 654.312 70.6933 663.497 55.1008C681.694 24.2123 724.638 8.50227 757.633 0ZM658.365 104.932C665.751 113.373 674.054 122.832 682.909 129.733C686.602 132.611 693.571 132.901 695.644 137.231C695.202 138.342 695.499 138.177 694.287 138.738C679.91 145.386 677.371 154.246 667.189 164.846C672.103 183.98 673.449 203.083 663.121 220.733C660.536 225.15 657.424 229.177 654.292 233.21C657.347 232.225 660.136 230.947 663.33 232.014C664.048 233.025 664.339 233.204 664.119 234.502C663.168 240.093 654.455 247.37 650.344 250.851C653.217 250.461 656.054 249.833 658.908 250.552C659.673 251.152 659.949 251.087 660.091 252.118C661.03 258.894 642.817 277.995 646.795 283.484L648.002 282.845C649.007 284.188 649.708 296.516 650.122 298.866C650.85 302.995 651.932 306.944 653.234 310.925C652.934 305.564 652.411 299.914 654.231 294.76L655.036 294.111C657.933 297.388 658.116 304.41 658.436 308.637C659.085 301.724 660.165 282.568 664.438 277.718L665.359 277.661C667.14 279.917 666.467 284.028 666.141 286.749C665.426 292.734 664.015 298.711 663.567 304.717C662.573 318.027 663.535 332.216 663.891 345.588C664.627 373.222 665.179 400.935 669.667 428.279C671.681 440.553 674.948 452.367 677.773 464.452C678.276 459.372 678.508 450.449 682.23 446.703L683.373 446.652C685.971 451.039 685.423 460.259 685.999 465.419C688.383 486.772 694.436 512.182 706.573 530.199C710.125 535.471 714.457 539.983 719.05 544.347C717.686 539.203 714.291 527.891 717.146 523.063C717.853 521.869 718.306 521.876 719.559 521.484C720.524 521.899 720.938 521.914 721.302 522.994C722.119 525.414 721.557 529.52 721.809 532.195C722.273 537.111 723.845 542.059 725.601 546.647C733.327 566.84 752.928 584.133 769.99 596.864C776.065 601.397 782.976 605.219 788.102 610.867L806.773 613.13C798.959 606.833 768.446 580.966 766.78 571.419C766.658 570.718 766.7 570.696 766.789 570.095C768.764 569.864 770.395 571.021 771.917 572.254C776.352 575.847 780.272 581.362 784.064 585.675C789.485 591.841 795.193 597.511 801.472 602.801Q816.144 615.104 832.076 625.723C840.279 631.236 848.943 636.435 856.683 642.573C875.361 657.387 893.597 680.701 909.179 698.964C906.079 692.397 896.511 674.893 898.644 668.35L899.619 668.005C904.49 671.749 913.493 696.341 916.598 703.481C927.507 728.567 939.261 753.271 950.539 778.192C959.658 798.341 967.948 819.351 979.189 838.425C983.459 845.67 988.712 853.97 995.725 858.85C1004.32 864.832 1017.95 864.35 1027.81 863.093C1031.53 862.618 1035.21 862.012 1038.79 860.882C1039.2 858.47 1037.53 855.549 1036.56 853.375C1023.99 825.258 1008.8 798.258 994.798 770.837C978.842 739.589 963.776 707.729 946.94 676.952C937.637 672.533 925.04 667.678 917.6 660.442C915.344 658.249 915.368 654.496 913.288 652.554C910.092 649.569 903.577 645.881 902.026 641.764C901.939 641.532 901.931 641.277 901.883 641.034C902.363 640.337 902.283 640.092 903.223 639.963C904.828 639.745 905.946 640.366 907.285 641.175C914.913 645.785 921.785 651.461 929.031 656.62C944.623 667.722 960.69 679.022 977.254 688.624C988.967 695.414 1002.26 702.229 1015.63 704.939C1018.73 705.568 1023.62 706.778 1026.42 704.956C1029.03 699.067 1020.22 676.908 1017.69 670.341C1006.49 641.234 989.886 615.203 970.076 591.266C967.315 587.93 964.934 583.826 961.86 580.848C956.672 575.822 949.478 573.406 943.467 569.533C934.404 563.695 925.697 557.078 917.107 550.561C880.632 522.892 848.236 491.689 817.708 457.653C813.743 453.233 800.943 441.111 801.945 435.264C802.929 434.925 802.897 434.701 803.923 435.194C808.305 437.298 812.086 443.951 815.449 447.514Q838.514 475.098 864.2 500.259C888.848 524.057 951.853 576.922 985.085 583.433C971.267 566.165 959.599 547.313 947.629 528.753C940.38 517.512 932.706 506.493 925.691 495.111Q913.534 474.988 902.933 454.002C892.456 433.38 884.164 411.699 873.158 391.36C868.856 383.412 864.364 375.481 859.528 367.843C856.754 363.463 853.295 359.21 850.891 354.638C850.097 353.129 849.59 351.86 849.395 350.165L849.973 349.541C856.732 351.464 872.582 374.144 879.879 380.004C878.089 377.114 874.201 371.594 874.714 367.994C874.826 367.204 874.907 367.136 875.208 366.502L876.251 365.943C881.368 370.027 883.073 377.941 887.982 382.215C892.423 386.081 903.765 389.964 906.635 393.763C906.287 394.513 906.285 395.028 905.453 395.357C901.506 396.917 893.884 393.641 890.315 391.745Q887.399 390.203 884.63 388.411Q881.861 386.619 879.26 384.592Q876.658 382.564 874.245 380.316Q871.831 378.068 869.624 375.617C881.861 394.967 890.386 416.268 899.983 436.973Q912.341 463.231 927.237 488.136C941.994 512.61 958.513 536.246 974.357 560.044C978.823 566.753 984.432 573.005 988.419 579.986C989.282 581.497 990.105 582.924 989.653 584.717C989.322 586.032 988.365 586.932 987.214 587.591C985.957 588.312 984.607 588.931 983.296 589.55C990.427 610.597 1030.71 672.48 1050.72 682.266C1052.79 683.276 1055.24 684.225 1057.55 683.494C1059.2 682.973 1060.32 681.71 1061.01 680.167C1064.73 671.894 1065.62 618.606 1066.51 605.812C1066.91 600.001 1070.58 595.06 1070.8 589.474C1068.54 589.061 1066.28 588.745 1064 588.453C1064.2 582.218 1061.86 573.255 1061.26 566.606C1056.81 517.885 1049.18 474.137 1034.12 427.508C1031.58 419.652 1029.14 411.609 1026.18 403.912C1022.66 394.766 1017.44 384.804 1015.65 375.21C1015.27 373.166 1015.11 371.496 1016.08 369.623L1017.26 369.078C1023.4 372.713 1045.36 446.591 1048.54 458.975Q1057.17 492.828 1062.27 527.392Q1064.18 540.7 1065.53 554.078C1066.16 560.774 1065.49 575.066 1067.95 580.653C1068.28 581.409 1068.69 581.93 1069.35 582.436C1071.01 581.733 1071.62 580.685 1072.28 579.013C1075.94 569.684 1075.91 557.572 1076.68 547.593C1081.81 481.068 1066.12 396.136 1037.63 335.676C1023.61 305.932 1006.27 278.499 987.984 251.253C978.681 237.392 969.377 223.381 959.079 210.236C953.99 203.741 948.717 197.642 943.039 191.656C936.12 184.362 927.828 177.106 922.858 168.297C925.387 167.434 927.867 166.607 930.484 166.036C926.778 162.552 921.876 158.828 919.24 154.508L919.209 153.475C920.993 152.716 923.732 153.807 925.437 154.497Q926.077 154.757 926.709 155.037C925.774 152.705 924.847 150.338 923.476 148.224C920.27 143.276 913.056 137.404 912.254 131.544L912.862 130.707C915.786 130.401 918.2 132.011 920.684 133.379C918.535 129.411 916.401 125.415 913.95 121.624C909.125 114.163 902.568 106.996 900.427 98.2383C903.848 99.4965 907.276 100.88 910.789 101.848C906.858 94.4309 901.87 87.4781 897.282 80.4491C876.213 48.17 850.819 21.6828 813.083 9.92998C799.434 5.67884 782.849 2.3875 768.634 4.30407C738.609 6.51072 695.119 24.7885 675.23 47.8499C661.343 63.9507 658.427 84.405 658.365 104.932ZM326.448 100.048L335.735 103.927C323.033 108.678 310.152 110.488 299.227 119.196C301.363 120.103 303.49 121.057 305.646 121.916C291.296 127.67 285.953 130.68 279.606 145.35C272.125 162.64 269.453 181.354 263.171 198.987C260.573 206.277 256.976 213.108 253.236 219.863L253.768 220.144L254.314 219.937C255.969 219.327 257.181 219.05 258.941 219.02L259.886 219.643C259.499 221.945 255.529 225.079 254.268 227.555C251.469 233.048 248.948 235.827 243.881 239.384C246.614 239.774 252.319 239.898 254.13 242.139C253.511 243.049 239.892 250.969 237.204 253.148C215.202 270.982 185.824 303.905 176.48 330.946Q182.549 329.799 188.589 328.511C183.07 337.035 176.783 344.984 171.723 353.804C143.796 402.486 128.199 459.913 134.604 516.116C115.386 556.678 118.142 593.659 112.751 636.799C110.216 657.088 105.049 676.83 100.123 696.639C106.166 690.7 111.225 683.811 116.423 677.141Q128.065 662.331 139.246 647.171C145.751 638.435 153.242 629.717 158.582 620.224C158.805 607.631 157.087 606.593 150.117 596.746C160.357 579.588 172.676 563.752 183.193 546.783C192.574 531.646 200.002 514.971 206.625 498.478C215.413 476.592 221.578 453.844 229.127 431.532C232.997 420.091 237.58 408.97 242.292 397.856C244.227 393.291 245.336 388.013 247.612 383.672C249.203 380.638 251.902 378.012 255.236 377.021C256.85 376.542 257.64 376.807 259.063 377.621C259.909 379.784 259.736 381.143 258.753 383.245C255.867 389.416 250.421 394.251 247.187 400.272C237.642 418.045 227.391 447.608 223.103 467.364C225.821 468.158 228.572 468.881 231.198 469.948C241.719 452.713 252.45 435.614 262.479 418.084C261.15 416.685 259.831 415.324 258.687 413.766L258.942 412.993C261.683 404.83 280.646 365.001 287.284 362.048C288.019 361.721 288.074 361.76 288.762 361.692L289.633 362.395C290.286 372.21 261.912 401.843 268.324 408.648C268.824 409.179 269.671 409.623 270.292 410.016C271.405 413.976 267.958 418.701 266.051 422.109C250.629 449.669 233.398 476.352 216.485 503.014C205.259 520.71 194.415 538.7 182.922 556.218C174.942 568.381 166.373 580.108 158.564 592.395L158.956 593.141C161.448 597.832 171.279 605.339 169.964 610.242C167.623 618.962 157.695 630.288 152.216 637.71C141.444 652.3 130.811 667.056 119.683 681.376C112.59 690.505 104.541 699.213 98.0593 708.771C95.8786 711.987 91.8778 716.805 92.1883 720.809C92.633 721.359 92.8461 722.005 93.6221 722.019C102.044 722.181 188.049 657.746 197.391 659.455C197.436 660.845 197.139 661.429 196.147 662.442C189.899 668.824 174.866 676.557 166.766 681.568C149.693 692.132 126.766 706.279 111.429 718.718C117.489 716.022 123.194 712.388 128.931 709.065Q145.472 699.441 161.808 689.472Q212.714 659.268 261.173 625.275C275.505 615.185 290.004 605.288 303.188 593.698C329.002 571.007 351.064 544.799 375.463 520.723C405.819 489.169 459.984 431.831 459.289 385.756C459.201 379.867 455.991 364.476 458.002 359.772L459.076 359.62C462.313 362.106 463.208 370.223 463.71 374.042Q464.056 376.583 464.269 379.138C467.817 366.783 471.695 352.063 464.933 340.066C462.373 335.525 456.648 329.116 457.988 323.664L458.595 323.146C461.897 323.928 464.448 328.227 466.178 330.991C473.686 342.983 474.868 356.636 471.634 370.186C469.741 378.118 466.226 385.321 463.797 393.045C459.89 405.474 458.542 415.68 452.609 427.964C442.395 449.114 427.457 467.386 414.271 486.668C404.292 501.259 395.28 516.486 385.328 531.094C365.896 559.617 341.911 585.278 313.254 604.702C288.133 621.729 262.584 638.223 237.198 654.855C226.111 662.118 209.056 671.257 200.162 680.487C189.897 691.141 174.572 719.54 166.726 733.483L135.187 789.578C131.401 796.317 120.273 812.908 125.342 820.493C126.803 822.678 129.578 823.589 132.064 823.934C139.28 824.934 148.822 819.046 154.202 814.62C172.93 799.215 186.544 761.918 196.835 739.778Q207.59 716.886 218.678 694.153C220.948 689.496 225.925 677.313 229.401 674.224C230.501 673.247 230.896 673.373 232.261 673.448C232.984 674.203 233.108 674.002 233.043 675.164C232.925 677.275 231.799 679.609 230.905 681.506C223.759 696.672 215.27 711.244 208.024 726.382C197.749 747.848 188.604 769.906 177.543 790.98C175.635 794.614 173.671 798.263 171.336 801.643C169.186 804.754 165.36 808.229 164.087 811.705C166.563 812.99 170.027 811.797 172.59 810.986C187.603 806.236 196.622 791.6 203.344 778.369C215.829 753.798 226.809 727.868 237.584 702.49C241.962 692.182 245.236 681.263 250.506 671.372C253.264 666.195 257.696 662.81 261.326 658.356C263.847 655.261 265.611 651.575 268.204 648.542C269.146 647.44 270.754 645.531 272.153 645.045C272.816 644.815 272.874 644.851 273.487 644.83C274.319 646.151 274.224 646.785 273.925 648.338C273.073 652.762 264.566 662.194 261.525 666.337C271.487 665.295 281.462 662.491 291.253 660.342C307.014 656.882 324.996 654.462 339.711 647.771C344.996 645.368 355.433 637.043 361.003 640.013C362.128 642.568 361.464 644.329 360.462 646.887C360.019 648.021 359.5 649.107 358.933 650.183L359.618 649.731C366.153 645.475 373.648 642.887 380.489 639.176C401.261 627.909 422 613.396 436.687 594.641C444.396 584.796 450.92 572.942 454.997 561.073C455.844 558.605 456.27 554.023 458.645 552.546C458.8 552.45 458.978 552.4 459.144 552.327C460.544 553.098 460.785 553.788 461.263 555.302C462.47 559.126 462.501 563.612 462.747 567.581C480.417 543.943 487.287 509.416 488.119 480.456C488.221 476.898 487.505 469.573 490.975 467.789C493.765 468.875 494.638 471.356 495.878 473.889Q496.981 469.778 497.865 465.614Q498.749 461.45 499.412 457.245Q500.075 453.04 500.514 448.807Q500.954 444.573 501.169 440.321Q501.384 436.07 501.374 431.813Q501.364 427.557 501.129 423.307Q500.894 419.056 500.435 414.824Q499.975 410.593 499.293 406.391C498.281 400.208 494.422 392.656 495.165 386.494L496.023 386.026C499.799 388.706 501.826 397.965 503.055 402.338C502.76 391.815 499.912 382.198 498.291 371.884L497.707 371.339C496.655 372.604 495.355 374.728 493.822 375.202C492.555 372.82 493.524 369.941 494.304 367.466C496.999 358.914 501.037 350.854 503.574 342.199C511.897 313.8 505.669 287.303 492.68 261.675C487.927 252.297 482.931 241.173 475.186 233.891C477.086 224.041 479.963 211.768 474.139 202.711C467.652 192.622 453.697 189.998 442.926 187.133C454.331 178.877 465.963 171.331 468.48 156.367C470.736 142.959 463.805 128.967 456.1 118.447C454.256 115.928 451.991 112.942 449.46 111.088L448.91 111.276C446.693 112.008 445.377 112.426 443.233 111.288C438.85 108.96 435.17 105.266 430.871 102.717Q429.355 101.812 427.805 100.966Q426.255 100.12 424.674 99.3348Q423.092 98.5491 421.482 97.8249Q419.872 97.1006 418.235 96.4389Q416.598 95.7771 414.936 95.1787Q413.275 94.5804 411.592 94.0463Q409.909 93.5123 408.207 93.0434Q406.505 92.5745 404.786 92.1713Q403.067 91.7682 401.333 91.4315Q399.6 91.0948 397.855 90.825Q396.11 90.5552 394.356 90.3527Q392.602 90.1502 390.842 90.0153Q389.081 89.8803 387.317 89.8132Q385.552 89.7461 383.787 89.7469Q382.021 89.7477 380.257 89.8164Q378.492 89.885 376.732 90.0215C358.88 91.0852 342.852 92.1558 326.448 100.048ZM686.562 652.9C686.069 662.106 685.266 670.325 677.964 676.845C671.219 682.866 661.882 684.655 653.087 684.095C646.394 683.669 640.184 681.777 633.863 679.66C626.734 688.07 619.752 693.91 608.357 694.903C596.808 695.909 585.938 691.918 577.195 684.428C568.524 676.999 564.723 668.519 562.043 657.632C559.165 658.152 556.201 658.568 553.363 659.258C558.484 667.903 563.986 676.677 570.819 684.076C594.945 710.204 636.114 726.42 668.231 740.324C661.674 727.568 655.539 713.83 660.058 699.292Q660.265 698.625 660.505 697.969Q660.745 697.313 661.017 696.669Q661.289 696.026 661.593 695.397Q661.897 694.768 662.232 694.155Q662.567 693.542 662.932 692.946Q663.297 692.35 663.691 691.773Q664.085 691.197 664.507 690.64Q664.929 690.084 665.379 689.549Q665.828 689.014 666.303 688.502Q666.779 687.991 667.279 687.503Q667.779 687.016 668.303 686.554Q668.827 686.092 669.373 685.656Q669.92 685.221 670.487 684.813Q671.054 684.405 671.641 684.026Q672.228 683.647 672.833 683.298Q673.438 682.949 674.059 682.63C679.593 679.77 685.886 678.426 691.897 676.932C698.402 675.663 703.58 674.221 709.506 678.281C712.132 680.08 714.498 682.251 717.066 684.128C723.49 681.144 736.909 673.533 744.075 676.395C746.94 677.539 748.539 680.707 749.557 683.428C754.17 695.755 754.985 710.79 754.387 723.884C769.904 710.735 787.294 701.647 808.247 703.408C823.822 704.717 835.859 712.004 848.702 720.155C864.18 709.519 884.959 709.545 896.757 693.604C889.975 683.602 878.188 666.527 867.032 661.875C859.674 658.807 850.012 657.769 842.133 656.26C840.18 655.886 838.234 655.554 836.26 655.309C830.302 659.541 825.87 664.73 820.742 669.821C813.324 668.612 805.899 667.278 798.423 666.498C795.025 663.767 792.679 661.78 788.043 662.333C784.107 662.803 779.53 665.524 775.908 667.19C767.126 661.305 762.76 654.428 755.109 648.064C749.816 648.072 744.38 647.822 739.113 648.353L686.562 652.9ZM1018.94 710.884C1025.21 720.661 1032.08 730.035 1038.45 739.748Q1058.02 769.893 1076.34 800.815C1083.72 813.332 1090.52 826.212 1097.47 838.978C1100.78 845.074 1103.9 851.501 1107.69 857.311C1109.86 860.64 1113.28 865.442 1117.33 866.415C1125.65 868.412 1134.65 864.247 1142.85 863.227C1147.25 862.681 1151.39 863.167 1155.74 863.771C1158.99 863.749 1161.24 863.732 1163.67 861.242C1167.64 857.18 1168.26 850.733 1168.01 845.317C1167.79 840.636 1166.96 835.778 1164.65 831.662C1156.46 817.12 1145.61 803.82 1135.63 790.469L1094.39 734.784Q1085.5 722.749 1076.81 710.577C1072.88 705.004 1068.99 697.951 1064.01 693.348C1063.54 692.916 1063.05 692.532 1062.53 692.161C1062.06 694.023 1060.94 695.491 1059.88 697.065C1058.19 697.958 1057.09 698.297 1055.2 697.727C1043.19 694.114 1041.61 678.303 1023.88 673.944C1027 679.891 1033.29 700.991 1031.58 707.141C1031.26 708.303 1030.47 709.027 1029.44 709.577C1026.43 711.187 1022.26 710.854 1018.94 710.884ZM1043.21 858.633C1047.96 859.77 1070.57 868.059 1074.52 870.289C1076.88 869.517 1080.57 868.407 1082.31 866.593C1085.37 867.182 1088.63 867.735 1091.44 869.152C1094.16 868.561 1097.51 868.002 1099.82 866.363C1101.63 865.95 1103.63 865.717 1105.22 864.755C1103.63 856.09 1093.04 840.143 1088.35 831.871Q1062.48 785.484 1033.4 741.036C1026.12 729.89 1018.8 717.022 1009.51 707.415C996.421 703.499 984.378 697.944 972.318 691.56C966.758 688.618 961.084 684.967 955.315 682.534C964.789 701.727 1043.64 852.891 1043.21 858.633ZM515.357 857.993C521.808 847.293 524.358 838.392 521.198 825.989Q520.995 825.183 520.773 824.382C516.497 812.037 509.067 801.411 500.621 791.573C498.673 791.701 489.788 791.081 489.036 791.47C491.376 799.815 496.968 807.11 495.045 816.269L494.329 816.938C490.567 814.743 485.605 796.283 483.943 791.154C479.801 789.682 477.368 787.617 474.473 784.382C468.042 784.902 461.516 785.247 455.117 786.045C448.686 786.846 432.643 791.874 427.11 789.008L426.7 787.899C428.488 785.208 433.877 784.061 436.914 783.463C447.016 781.473 457.625 780.242 467.915 780.056C466.057 778.274 463.654 775.464 461.466 774.179C457.882 772.075 450.932 773.6 449.168 769.086L449.585 767.888C454.052 766.735 461.448 770.845 464.993 767.96C465.277 766.256 464.423 764.88 463.42 763.561C456.773 754.82 439.88 750.699 429.552 749.683C427.267 749.458 424.8 749.383 422.518 749.636C411.097 751.511 402.274 755.978 395.388 765.553C390.833 771.887 387.468 780.029 388.876 787.949C390.133 795.02 394.791 800.245 400.611 804.099C411.297 811.175 424.97 813.328 437.41 810.7Q444.173 809.239 450.599 806.673C456.296 804.387 465.024 798.413 471.024 798.674C472.034 799.337 472.194 799.453 472.421 800.726C474.668 813.322 453.75 847.266 468.878 859.339C472.645 862.345 478.219 862.937 482.836 862.269C485.816 861.837 488.78 860.688 491.623 859.727C500.154 856.843 506.462 856.388 515.357 857.993ZM82.9884 722.458C54.9577 747.917 23.12 780.389 6.49875 814.714C5.77847 816.392 5.02267 817.664 5.47329 819.501C6.6187 820.578 7.21941 820.915 8.83812 820.901C13.1364 820.865 18.3787 818.321 22.1964 816.52C40.4491 807.913 57.6485 797.129 75.0688 786.995L160.05 737.697C165.055 728.344 171.134 719.096 175.199 709.32C177.091 704.768 177.323 699.748 179.398 695.227C178.739 694.33 179.164 694.568 178.2 694.39C161.726 701.458 146.095 710.548 130.29 718.982C121.945 723.435 113.455 728.267 104.516 731.417C100.946 732.676 95.7868 734.254 92.1052 732.883C87.7276 731.253 85.1863 726.269 82.9884 722.458ZM507.983 621.762L507.49 622.225C503.428 625.962 493.704 630.749 493.668 636.834C493.654 639.094 494.946 640.979 496.582 642.43C503.46 648.529 514.205 650.579 523.106 649.759C542.643 647.957 559.923 635.18 573.673 621.981Q580.38 615.023 587.303 608.281C583.413 605.4 580.51 602.569 577.794 598.553C568.998 601.573 554.367 608.119 545.416 607.614L545.108 606.829C551.85 599.722 567.588 596.003 577.014 593.594L575.708 587.362C570.869 586.879 566.01 586.53 561.143 586.639C554.837 586.78 548.071 588.133 541.917 586.16L541.446 585.525C547.509 580.567 569.062 582.661 577.391 582.739L579.347 575.622C564.203 569.587 547.411 563.427 530.831 565.51C514.292 567.611 497.453 571.326 486.666 585.219C483.275 589.587 479.317 596.958 480.066 602.635C480.578 606.515 484.336 609.843 487.409 611.984C493.705 616.37 501.53 617.688 507.983 621.762ZM583.454 977.922L588.443 984.751L590.162 986.571C591.478 986.229 592.843 983.364 593.552 982.15C598.911 972.971 603.12 964.282 610.147 956.177C611.006 948.047 612.917 937.954 610.584 929.966C602.012 946.197 592.03 961.628 583.454 977.922ZM599.461 1004.04L601.057 1007.19L601.815 1006.87L601.64 1006.61L602.191 1006.14C604.463 999.521 611.144 972.894 609.328 967.3C609.234 967.01 609.052 966.756 608.914 966.483C603.269 975.113 598.746 984.06 594.188 993.304C595.902 996.9 597.562 1000.54 599.461 1004.04ZM651.462 945.762C645.253 940.539 639.58 934.833 633.955 928.993C628.278 923.098 621.642 914.253 614.596 910.243C615.115 913.955 615.474 917.795 616.26 921.455Q626.906 931.692 637.071 942.407C640.268 945.781 643.511 950.354 647.145 953.178C648.055 952.664 648.314 952.299 648.79 951.376L651.462 945.762ZM614.574 904.077C624.204 912.067 633.22 921.353 642.007 930.268C645.27 933.578 649.294 939.148 653.103 941.512C654.051 940.787 653.929 940.811 654.327 939.795L657.107 933.334C649.32 925.239 641.066 917.554 632.951 909.785C626.675 903.778 620.243 897.052 613.251 891.886L614.574 904.077ZM616.176 928.144L616.233 943.22C623.377 951.701 630.949 960.087 637.25 969.22L640.573 964.672L644.83 958.1C635.571 948.194 626.934 936.487 616.176 928.144ZM661.99 887.442C661.044 884.021 659.308 873.892 656.849 871.799C655.033 871.64 654.198 871.344 652.551 872.188C652.304 873.728 654.268 877.002 653.513 877.754C643.515 875.501 620.171 850.222 604.686 845.215C605.417 847.098 606.127 849.446 607.565 850.906C611.908 855.318 618.034 857.721 622.879 861.542C630.182 867.301 637.135 873.626 644.244 879.63C650.7 885.082 657.376 890.235 663.501 896.07C663.002 893.199 662.565 890.299 661.99 887.442ZM642.246 843.709C642.18 849.691 640.919 859.338 645.548 863.896C647.71 866.025 651.077 865.874 653.883 865.744L653.957 865.117C650.647 863.845 646.702 862.729 645.101 859.233C643.143 854.955 646.451 849.937 645.939 845.474C645.039 837.633 626.728 822.517 619.426 819.368C614.396 817.199 608.583 817.281 603.644 815C598.421 812.588 595.182 807.44 589.851 805.273C590.76 808.074 591.74 810.65 593.065 813.285C613.146 818.107 626.569 831.454 642.246 843.709ZM638.72 849.384C626.041 844.046 614.007 835.691 600.82 831.822C601.32 834.456 602.366 836.819 603.386 839.282C617.898 845.722 627.013 853.268 639.931 861.714C639.382 857.615 639.056 853.504 638.72 849.384ZM678.23 135.46L679.431 134.364C678.631 132.639 676.788 131.956 675.101 131.319C673.424 130.686 671.956 130.27 670.169 130.197C669.116 131.357 668.128 132.189 668.031 133.844C668.842 135.007 669.304 135.313 670.743 135.512C673.075 135.834 675.877 135.572 678.23 135.46ZM551.8 862.503L557.192 857.91C569.381 847.209 580.778 837.915 595.404 830.636C594.248 827.569 593.033 822.903 589.776 821.426C589.267 821.195 588.925 821.182 588.405 821.116C571.587 833.238 561.202 843.804 551.8 862.503ZM662.344 911.492C662.915 908.181 663.294 904.899 663.59 901.553C656.927 896.358 650.226 891.194 643.846 885.652C632.972 876.206 620.81 863.24 608.042 856.82C608.692 860.204 609.2 863.725 610.192 867.023C616.647 871.857 622.571 877.513 628.615 882.849L649.623 901.098C653.563 904.575 657.453 909.261 661.865 911.987L662.344 911.492ZM600.907 533.425C601.116 518.848 604.744 504.17 615.515 493.747C617.587 491.742 619.779 489.991 622.111 488.302C631.322 482.738 640.645 479.548 651.419 482.065C654.271 482.731 657.101 483.602 659.911 484.425C655.536 480.084 651.107 477.812 644.766 477.896C633.566 478.044 620.536 484.897 612.972 492.947C605.946 500.424 601.278 520.647 599.423 522.212C594.316 517.433 593.452 508.376 590.631 502.141C582.577 484.338 564.139 460.94 542.373 461.659C541.449 461.689 540.425 461.678 539.516 461.815C532.408 462.782 523.739 464.235 519.186 470.412C516.438 474.139 516.015 478.679 516.86 483.088L516.981 483.687C517.761 483.307 517.868 482.31 518.139 481.504C520.04 475.855 520.61 471.692 526.49 468.582C534.134 464.54 545.257 464.557 553.332 467.21C569.154 472.409 580.691 485.841 587.925 500.322C593.16 510.8 597.564 522.203 600.907 533.425ZM611.136 873.731C611.588 877.737 611.935 881.79 612.814 885.729C620.813 891.981 655.334 926.559 658.574 927.923L659.178 927.131L661.132 918.035L625.987 886.898C621.172 882.647 616.313 877.437 611.136 873.731ZM807.393 851.03C812.069 846.374 814.67 841.798 814.774 835.001C814.946 823.779 807.675 813.335 800.032 805.781C788.36 794.245 768.676 778.833 751.922 778.239C752.008 778.429 752.092 778.621 752.182 778.81C754.344 783.365 758.963 785.588 761.655 789.664C760.817 790.483 761.25 790.367 760.138 790.345C757.935 790.303 755.344 788.793 753.342 787.875C758.589 792.461 766.643 798.063 769.284 804.559L769.196 805.514C767.583 806.075 766.24 805.847 764.673 805.067C760.439 802.961 756.701 798.522 752.943 795.601L748.665 803.495C750.143 806.493 752.746 810.97 751.605 814.45C751.39 815.105 751.302 815.147 750.931 815.612C746.375 814.728 745.054 806.65 740.39 804.697C739.411 805.407 739.621 804.979 739.44 806.131C739.029 808.75 743.498 841.933 744.501 846.185C745.236 849.3 746 852.609 748.054 855.141C750.716 858.421 754.333 860.874 758.033 862.843C763.475 865.53 771.196 869.241 777.336 867.197C783.658 865.092 788.065 858.632 793.867 855.347C798.12 852.94 802.803 852.431 807.393 851.03ZM525.83 851.103C529.204 845.011 530.847 838.006 529.05 831.111C528.414 828.67 527.335 826.192 525.338 824.572C526.155 830.106 526.97 835.618 526.448 841.226C526.179 844.114 523.681 850.138 524.233 852.395C524.822 851.979 525.333 851.629 525.83 851.103ZM721.761 601.539C725.84 599.365 731.781 596.89 733.258 592.066C734.308 588.635 732.616 585.22 730.925 582.311C729.703 580.207 728.529 578.388 726.363 577.162C728.163 580.571 730.221 584.091 729.132 588.083C727.381 594.494 718.479 598.016 714.287 602.896C714.118 603.093 713.944 603.285 713.777 603.483C713.676 603.602 713.581 603.725 713.483 603.846C713.6 604.024 713.715 604.204 713.833 604.38C717.994 610.558 725.47 615.302 724.185 623.799C723.382 629.104 719.049 633.228 714.825 636.137C710.774 638.928 706.594 640.589 701.989 642.195C702.459 643.112 702.518 643.461 703.6 643.751C707.234 644.726 714.107 642.028 716.999 640.035C721.875 636.677 724.403 631.191 725.282 625.486C726.569 617.127 723.531 609.549 721.761 601.539ZM255.273 671.947C254.585 673.725 252.677 677.239 253.216 679.044L253.846 678.975C274.899 674.346 278.157 679.806 299.096 667.302C301.116 666.096 305.082 664.445 306.451 662.633C306.551 662.501 306.617 662.347 306.7 662.205L306.14 662.17C290.284 665.31 271.172 671.88 255.273 671.947ZM1066.98 664.027C1068.58 669.115 1067.41 678.037 1064.88 682.777C1064.58 683.352 1064.21 683.806 1063.74 684.258C1066.74 686.31 1098.44 731.816 1103.46 738.677C1122.03 764.043 1141.33 788.951 1159.53 814.575C1162.27 818.424 1166.38 823.296 1167.85 827.792C1169.54 826.733 1170.67 825.955 1171.8 824.291L1171.93 823.322C1176.55 819.528 1179.18 814.01 1179.79 808.114C1181.19 794.627 1170.63 783.559 1162.62 773.896C1139.76 746.332 1113.27 721.668 1091.51 693.223C1086.86 687.154 1072.95 664.92 1066.98 664.027ZM470.181 762.52C470.512 758.664 470.502 756.241 473.676 753.61C474.277 753.112 474.898 752.655 475.528 752.195C473.419 746.847 471.51 741.225 469.055 736.039C466.009 730.097 462.105 723.923 461.187 717.225L461.521 716.376C467.822 719.441 472.867 731.518 474.971 737.689C476.782 743.002 478.689 748.032 481.005 753.149C483.096 731.004 484.225 710.317 469.139 692.119C464.03 685.956 457.141 681.534 451.748 675.616C446.964 670.366 444.134 663.419 439.023 658.483C436.684 656.225 434.037 654.699 430.902 653.842C426.822 659.582 426.136 663.899 425.433 670.726C425.318 671.841 425.348 673.96 424.958 674.961C424.622 675.821 423.873 676.206 423.009 676.283C418.516 676.684 413.151 671.982 409.235 676.401C406.717 679.244 406.943 683.282 407.318 686.803C408.884 701.51 416.742 712.76 428.114 721.832C437.761 729.527 449.26 734.978 457.469 744.397C462.337 749.982 465.25 757.083 470.181 762.52ZM777.298 660.193C782.141 658.673 786.973 657.064 791.852 655.666C793.335 654.951 794.061 654.967 794.65 653.383C793.467 652.007 791.114 651.917 789.391 651.777C783.45 651.294 776.62 652.784 770.922 651.574L777.298 660.193ZM421.157 816.365L422.796 815.75C417.68 810.178 396.057 815.335 388.12 796.874C385.606 791.026 386.415 785.146 384.729 779.383C381.863 787.168 380.936 795.453 384.508 803.211C387.264 809.2 392.268 813.24 398.4 815.376C406.166 818.082 413.161 817.255 421.157 816.365ZM695.401 777.92C698.368 774.405 701.811 772.27 705.798 770.064C689.931 759.022 669.117 742.301 648.683 744.933C633.378 748.513 615.108 756.957 606.509 770.844C603.432 775.814 601.894 781.753 603.278 787.545C604.959 794.581 610.316 799.985 616.39 803.541C630.998 812.092 648.668 811.383 664.888 809.546C669.41 804.161 673.9 798.828 679.057 794.027C683.198 791.302 689.945 787.927 692.513 783.675L692.465 782.423C688.454 779.852 682.938 779.962 678.401 780.901C674.877 781.63 667.617 784.474 664.46 783.242C664.116 782.127 664.104 781.944 664.702 780.85C666.284 777.955 670.435 776.259 673.463 775.539C680.587 773.846 688.729 775.13 695.401 777.92ZM713.217 794.024C706.532 793.197 699.87 793.68 694.557 788.888C675.952 800.383 654.035 829.013 649.064 850.798C648.685 852.458 648.359 854.065 649.161 855.685C650.306 857.997 653.199 859.02 655.54 859.525C666.775 861.95 678.484 856.71 689.486 860.986C694.424 862.905 698.532 866.503 703.173 868.973C706.904 870.96 711.423 870.8 714.92 873.077L715.539 874.151C714.781 875.184 714.566 875.121 713.335 875.301C702.947 876.821 695.312 866.218 684.679 864.018C677.446 862.522 669.914 863.61 662.756 865.022C670.783 868.926 678.894 872.861 686.517 877.519C695.194 881.742 705.129 884.914 714.645 881.527C723.189 878.485 729.599 870.609 733.319 862.608C739.39 849.548 739.951 829.302 734.738 815.788C734.63 815.508 734.513 815.232 734.4 814.955C731.898 814.032 728.062 813.469 726.85 810.873C726.343 809.788 725.918 808.668 725.497 807.547C723.509 812.803 721.904 818.704 717.848 822.763L716.92 822.733C715.474 817.823 717.947 811.623 719.686 807.065L712.842 802.6C708.984 809.371 706.364 818.458 700.082 823.339L698.94 823.573C698.046 821.419 700.37 816.53 701.233 814.455C704.419 806.79 709.429 801.157 713.217 794.024ZM639.669 828.946C642.666 831.584 645.616 834.431 648.845 836.777C651.299 832.523 659.216 820.874 658.906 816.36C657.878 815.666 657.581 815.651 656.331 815.54C646.634 818.487 638.475 820.011 628.262 819.6Q634.025 824.201 639.669 828.946ZM728.661 776.615C726.058 773.796 724.619 772.354 720.652 771.779C718.572 774.429 716.36 777.246 716.65 780.859C716.699 781.467 716.956 781.962 717.215 782.501C718.586 783.43 719.336 783.738 721.04 783.512C721.794 783.412 722.575 783.088 723.284 782.818C725.283 780.829 727.057 778.949 728.661 776.615ZM616.296 951.325C615.835 954.488 615.45 957.561 615.384 960.761Q621.665 970.883 627.813 981.086L630.428 978.09L633.947 972.919C628.503 965.563 623.215 957.348 616.296 951.325ZM456.138 571.6C439.566 602.903 417.569 624.904 386.209 641.679C378.743 645.673 370.746 648.559 363.291 652.522C369.292 651.34 374.756 648.582 380.679 647.422C386.401 646.301 392.343 646.104 398.123 645.284C404.143 644.431 410.051 642.92 415.941 641.439Q434.983 636.368 454.107 631.62C461.015 629.914 478.178 627.705 483.39 624.145C482.032 621.536 477.938 619.555 475.597 617.749C468.533 612.298 466.138 602.313 468.73 594.006C472.509 581.892 484.028 572.768 494.896 567.201C509.405 559.768 526.711 558.046 542.781 557.029C525.495 550.614 498.044 541.382 489.781 523.544C489.293 522.491 488.8 521.459 488.268 520.429C484.7 531.373 470.595 574.266 460.898 578.472C459.936 578.889 459.505 578.667 458.505 578.523C456.505 576.649 456.515 574.191 456.138 571.6ZM493.589 158.659C498.182 157.073 502.56 155.876 507.396 155.33C496.273 154.427 485.236 153.596 474.347 151.001C472.954 155.855 470.486 162.076 472.063 167.086C472.919 167.939 473.096 168.304 474.385 168.317C478.545 168.361 488.986 160.731 493.589 158.659ZM607.365 1010.85C609.006 1009.03 610.756 1007.23 612.305 1005.33C616.673 999.152 620.63 992.72 624.628 986.299C621.81 981.343 618.959 974.458 614.69 970.643C613.007 984.311 610.304 997.421 607.365 1010.85ZM346.109 699.937C353.31 698.269 361.109 695.93 365.23 689.152C365.816 688.189 366.268 687.145 366.195 686.002C365.259 684.376 364.221 683.841 362.401 683.285C361.318 682.954 360.303 682.859 359.17 682.87C352.498 686.865 346.001 692.069 340.264 697.317L340.139 697.901C341.971 699.04 343.925 699.855 346.109 699.937ZM659.687 489.556C660.293 490.68 660.557 491.837 661.889 492.216C663.219 492.594 665.085 492.276 666.466 492.228C673.131 491.997 677.67 494.194 681.434 499.844C685.416 505.82 686.927 513.175 688.484 520.065C688.831 511.467 688.552 501.91 682.167 495.317C678.213 491.234 672.474 489.327 666.866 489.317C664.475 489.313 662.075 489.441 659.687 489.556ZM607.098 137.415L615.142 135.232C631.051 131.172 649.515 126.684 662.697 116.492C660.616 114.461 657.598 110.553 654.574 110.545C638.579 119.243 622.683 127.989 607.098 137.415ZM313.851 704.467L318.844 702.483C312.788 700.15 307.529 698.737 301.001 699.206C299.343 699.98 297.888 700.475 296.872 702.058C297.077 703.174 296.832 703.021 297.893 703.77C301.222 706.122 306.81 706.067 310.667 705.251Q312.274 704.92 313.851 704.467ZM712.635 688.366C713.853 691.355 714.993 694.417 716.352 697.342C721.929 695.69 737.482 686.587 740.594 681.933L740.492 680.863C734.417 678.941 720.489 685.721 714.554 688.131C710.085 684.147 707.007 680.771 700.762 680.175C689.824 680.966 676.856 683.098 669.328 691.939C664.071 698.111 662.41 706.19 663.087 714.119C664.168 726.782 671.383 739.752 681.105 747.842C687.914 753.509 695.997 758.13 703.675 762.526C705.852 759.372 707.84 757.415 711.188 755.443C707.173 746.185 701.95 734.222 704.548 723.885L705.155 723.221C706.173 723.682 706.508 723.795 706.987 724.901C708.209 727.718 708.534 731.885 709.207 734.939Q709.861 737.925 710.75 740.849Q711.639 743.773 712.758 746.618Q713.878 749.462 715.22 752.208Q716.562 754.954 718.118 757.585C721.747 755.198 724.812 753.546 729.131 752.63L736.962 755.618C742.837 745.609 746.385 735.265 748.973 724.01C750.644 711.548 749.695 696.568 744.195 685.139C744.037 685.211 743.877 685.279 743.72 685.354C735.461 689.275 724.045 702.744 715.399 703.148C713.518 702.194 712.899 700.812 712.276 698.876C711.593 696.756 711.166 694.522 710.775 692.334C700.324 691.071 685.959 689.368 677.086 696.508C675.031 698.161 673.341 700.722 670.737 701.475L669.674 700.923C669.206 699.379 668.824 698.229 669.738 696.758C672.499 692.317 682.583 689.469 687.521 688.666C695.451 687.377 704.695 687.114 712.635 688.366ZM607.154 717.894C607.769 721.653 607.859 728.767 609.575 731.859L609.289 730.57L609.608 730.388C609.706 728.336 609.534 725.441 611.103 723.907C612.029 723.001 612.348 722.984 613.566 722.866C614.663 724.256 614.258 726.147 615.229 727.149C618.42 730.439 630.09 733.491 634.982 735.263C637.755 735.851 640.466 736.397 643.289 736.689C632.455 728.855 619.032 724.026 607.154 717.894ZM558.771 778.21C545.971 781.559 534.165 782.271 520.965 782.142C518.16 782.114 513.932 782.63 511.43 781.209C510.47 780.663 510.585 780.554 510.164 779.623C511.699 777.802 513.502 777.416 515.862 777.225C520.217 776.873 524.846 777.548 529.219 777.728C541.217 778.224 556.078 777.331 564.605 767.627Q564.964 767.221 565.303 766.799Q565.643 766.376 565.961 765.938Q566.279 765.5 566.576 765.046Q566.872 764.593 567.147 764.126Q567.421 763.658 567.672 763.178Q567.923 762.698 568.151 762.207Q568.379 761.715 568.582 761.213Q568.786 760.711 568.965 760.2Q569.144 759.688 569.298 759.169Q569.451 758.649 569.58 758.123Q569.708 757.597 569.811 757.065Q569.914 756.533 569.991 755.996Q570.068 755.46 570.119 754.921Q570.169 754.381 570.194 753.84Q570.219 753.299 570.217 752.757Q570.215 752.215 570.187 751.674C569.733 743.421 565.284 736.088 559.103 730.837C555.311 727.616 545.903 724.282 544.359 719.833C544.991 719.165 544.97 718.907 545.952 718.822C551.711 718.327 561.626 727.12 565.657 730.826C561.271 723.428 556.766 715.805 547.775 713.541C545.184 712.888 542.419 712.91 539.77 713.14C527.175 715.646 515.354 720.322 507.937 731.403C502.504 739.52 500.16 749.823 498.703 759.344C500.95 761.679 502.109 763.385 502.888 766.553C510.66 762.048 535.916 745.61 543.513 744.447L544.373 745.017C544.418 746.846 543.93 747.669 542.659 748.989C535.063 756.877 522.051 763.081 512.477 768.286C509.236 770.047 504.959 771.726 502.223 774.18C502.484 778.739 507.164 777.154 504.293 784.292C505.199 786.351 508.129 785.914 509.454 788.089C512.014 792.294 513.949 797.031 516.314 801.37C520.343 808.763 525.213 815.531 530.423 822.123C545.349 824.99 560.54 826.25 575.625 823.644C578.557 821.346 581.301 819.017 583.94 816.386C584.25 815.184 584.478 814.893 583.796 813.764C582.186 811.099 577.81 809.273 575.172 807.81C575.773 811.285 576.622 814.902 576.548 818.436L575.528 819.436C574.028 819.069 573.582 818.508 572.733 817.222C571.006 814.603 567.026 805.806 567.83 802.865C567.876 802.7 567.969 802.551 568.039 802.394C569.672 801.851 569.942 801.922 570.939 800.437C570.044 793.625 562.544 784.082 558.771 778.21ZM793.489 633.167L794.633 633.429C795.043 631.923 794.42 631.093 793.674 629.727C791.87 626.427 788.004 620.764 784.365 619.512C783.032 620.714 781.516 621.75 781.175 623.607C781.573 625.444 782.564 626.637 784.108 627.677C787.085 629.684 790.399 631.327 793.489 633.167ZM594.409 609.184L593.962 610.075C585.984 625.826 569.357 643.699 574.672 662.53C578.654 671.639 585.083 677.927 594.415 681.558C601.018 684.128 608.223 684.676 614.786 681.554C621.069 678.564 624.246 669.848 630.822 668.032C643.463 664.542 655.369 678.46 669.441 669.029C672.367 667.067 674.562 664.366 675.632 660.985C678.016 653.447 674.766 644.779 671.074 638.221C663.845 625.381 651.905 615.748 640.35 606.946C637.446 604.735 634.278 601.821 630.858 600.512C630.884 600.819 630.899 601.127 630.937 601.433C631.428 605.419 638.958 607.687 637.048 610.852C635.633 611.361 634.952 611.617 633.565 610.828C631.026 609.384 629.097 605.555 626.343 604.854C624.856 606.672 625.24 609.526 625.478 611.787C625.973 616.501 629.33 624.782 626.676 629.092C625.981 630.221 625.474 630.176 624.3 630.271C622.254 628.199 622.218 625.403 622.222 622.6C622.229 618.043 624.113 609.487 620.537 606.044C619.661 605.202 619.366 605.277 618.227 605.266C616.539 606.435 616.109 608.168 615.757 610.103C614.903 614.808 614.988 626.14 610.98 629.076C610.157 629.678 609.568 629.668 608.593 629.851C607.445 628.162 607.74 626.458 608.108 624.477C609.218 618.501 611.333 612.751 612.529 606.793Q603.417 607.593 594.409 609.184ZM598.761 825.973C608.322 829.746 618.877 836.057 628.433 838.861C619.057 830.482 608.802 823.056 596.554 819.52C597.206 821.718 597.882 823.85 598.761 825.973ZM345.829 676.875C341.022 679.494 332.966 683.826 331.021 689.385C330.756 690.142 331.13 690.555 331.407 691.259C332.338 691.749 333.343 692.457 334.389 692.583C339.623 690.055 346.906 686.107 349.206 680.378C349.603 679.389 349.436 679.158 349.093 678.207C348.035 677.568 347.113 676.841 345.829 676.875ZM521.248 713.584C531.263 709.731 542.257 706.149 552.661 710.822C562.248 715.128 568.338 724.718 571.894 734.237C575.862 744.862 576.618 756.83 571.671 767.272C570.833 769.041 569.785 770.668 568.691 772.286C574.513 780.461 580.234 788.737 586.488 796.59C584.694 790.708 584.169 785.244 583.904 779.118C584.614 770.245 585.838 762.065 592.954 755.874C601.603 748.351 614.28 747.284 624.949 744.468C602.003 737.415 571.124 716.451 555.367 698.438C548.023 690.043 542.096 679.914 533.435 672.799C533.377 672.751 533.32 672.702 533.263 672.654C529.323 686.345 524.704 699.741 521.248 713.584ZM406.561 700.651C408.647 709.456 411.362 718.733 419.549 723.771C421.042 724.69 422.577 725.318 424.232 725.878C417.201 718.743 412.235 710.584 407.546 701.789C407.147 701.04 407.3 701.302 406.561 700.651ZM599.341 713.244C599.29 715.531 599.272 717.199 600.17 719.354C601.344 720.319 601.296 720.307 602.814 720.26L603.788 719.662C604.351 717.933 604.687 717.618 604.037 715.863C602.55 714.693 601.069 714.001 599.341 713.244ZM780.291 610.058C760.457 596.634 744.538 580.235 727.967 563.093C720.583 555.454 712.806 547.932 706.123 539.669C701.351 533.767 698.393 522.989 693.488 518.213C692.036 532.508 688.686 543.5 677.21 552.984C674.183 555.486 670.864 557.681 667.559 559.796C685.634 556.146 702.871 553.402 719.2 564.207C727.09 569.428 737.09 578.501 739.12 588.214C739.695 590.964 739.398 593.236 737.781 595.563C735.727 598.518 728.741 603.168 729.613 606.906C730.311 609.896 733.639 612.327 736.19 613.664C738.847 615.056 741.694 616.303 744.526 617.302C754.67 618.383 764.593 617.663 774.733 619.464C776.711 616.387 778.706 613.362 780.291 610.058ZM626.853 584.779C629.204 582.746 630.918 581.013 631.012 577.735C631.053 576.312 630.478 575.018 629.413 574.077C627.914 572.752 626.345 572.728 624.448 572.717C621.927 575.023 620.739 576.808 620.644 580.321C620.598 582.02 621.056 582.955 622.067 584.274C623.555 585.148 624.602 585.456 626.362 584.954C626.529 584.907 626.689 584.837 626.853 584.779ZM289.219 693.177C289.47 691.169 289.958 689.267 288.961 687.402C287.137 685.903 284.408 686.251 282.167 686.319C281.971 688.21 281.731 689.564 282.576 691.313C284.397 693.064 286.813 693.021 289.219 693.177ZM656.537 487.208C651.762 485.758 647.689 484.487 642.628 484.921C631.551 486.814 621.761 491.448 615.057 500.758C605.824 513.58 607.147 529.49 605.691 544.41C605.249 548.943 604.096 553.256 603.437 557.731L613.876 558.067C614.733 552.411 617.414 526.495 620.989 523.96C621.134 523.857 621.305 523.797 621.463 523.715C622.63 524.1 622.612 524.108 623.27 525.151C623.907 531.723 616.673 555.815 620.084 559.439C623.575 558.571 627.353 551.421 629.114 548.498C631.341 544.802 633.344 541.013 635.294 537.166C636.35 535.117 637.27 533.224 639.618 532.508C639.89 532.425 640.166 532.357 640.44 532.282L641.291 532.898C641.862 539.894 631.096 552.677 628.278 559.78C631.43 561.854 634.636 563.47 638.06 565.048C652.523 559.347 676.593 552.881 683.07 537.153C687.03 527.539 684.468 514.178 680.399 505.027C678.788 501.404 676.207 496.735 672.263 495.373C668.079 493.928 659.294 499.311 656.783 495.282C655.495 493.216 656.26 489.538 656.537 487.208ZM488.918 772.447C487.411 776.539 484.853 779.561 483.021 783.386L483.764 784.42C486.247 783.621 487.88 782.76 489.193 780.421C490.217 778.596 490.416 776.121 489.77 774.132C489.573 773.524 489.241 772.992 488.918 772.447ZM602.347 583.007C600.063 584.542 595.875 586.692 595.131 589.494C594.898 590.369 595.314 590.705 595.705 591.447C596.649 592.066 597.508 592.696 598.615 592.988C601.302 592.28 603.434 591.52 604.942 589.033C605.509 588.099 605.672 587.107 605.346 586.077C604.927 584.751 603.575 583.573 602.347 583.007ZM739.996 761.305C744.737 762.205 748.939 762.725 751.797 767.088C752.811 768.636 753.541 770.366 754.271 772.06C760.588 773.413 766.718 774.852 772.76 777.21C783.634 781.453 792.074 787.163 804.228 786.672C819.298 785.886 833.905 781.705 844.254 770.119C846.909 767.146 848.856 764.008 850.602 760.44C844.679 757.761 839.246 755.605 834.446 751.079C837.532 744.071 843.789 739.701 847.78 733.34C834.517 723.976 815.633 716.246 799.054 718.985C776.835 722.227 760.207 733.688 746.861 751.587Q743.297 756.353 739.996 761.305ZM737.719 627.144C736.08 629.187 734.181 632.232 731.749 633.326C730.425 633.921 726.8 634.345 726.769 635.592C727.439 635.817 727.995 636.083 728.709 636.059L734.945 638.374C735.546 635.828 738.818 629.034 737.817 627.243C737.794 627.203 737.751 627.177 737.719 627.144ZM460.244 851.471L460.924 851.455C460.614 848.636 459.813 845.905 459.672 843.066C459.116 831.868 463.859 822.001 466.851 811.549C467.232 810.217 468.079 808.317 466.906 807.206C460.032 816.676 454.79 829.068 456.69 840.975C457.268 844.594 458.468 848.262 460.244 851.471ZM582.949 807.516C583.532 806.256 583.318 806.062 582.842 804.74C580.795 799.056 568.952 777.516 564.025 775.377C563.787 775.273 563.538 775.195 563.295 775.104C565.24 782.06 576.896 796.528 575.458 801.8L573.749 802.476C574.294 803.961 574.975 804.355 576.417 805.079C578.405 806.078 580.811 806.882 582.949 807.516ZM512.263 715.609C516.716 711.486 526.428 678.714 526.665 672.08C526.72 670.526 526.333 670.232 525.249 669.175C523.527 674.747 510.325 711.974 511.488 715.008L512.263 715.609ZM871.783 711.916C870.576 713.628 869.41 715.396 868.132 717.054C864.473 718.32 857.834 719.476 855.615 722.714L856.297 723.209C857.852 722.753 859.186 722.129 860.628 721.393L862.905 721.266L863.398 722.022C862.931 723.126 862.489 724.184 862.155 725.339C863.957 725.802 864.957 724.848 866.499 723.933C877.203 717.588 883.978 712.978 895.519 707.629C897.33 706.79 898.825 706.088 900.254 704.645L899.894 703.742C889.694 708.768 881.806 708.622 871.783 711.916ZM491.845 729.369C490.988 722.327 490.546 714.84 488.152 708.117C483.376 694.704 466.743 675.612 455.43 666.715C453.291 665.032 451.62 664.261 448.923 663.844C449.001 663.984 449.076 664.126 449.158 664.264C452.877 670.542 460.15 675.826 465.484 680.82C486.113 700.13 487.974 720.917 486.177 747.562C490.275 750.682 492.175 753.464 493.88 758.221L497.327 744.84C499.568 737.517 502.237 730.363 504.895 723.184C500.65 725.541 496.56 728.066 491.845 729.369ZM494.18 622.36C490.087 627.406 487.66 631.373 486.248 637.806C488.064 644.133 491.522 648.105 497.26 651.233C506.481 656.258 517.082 657.088 527.207 654.814C526.926 654.73 526.648 654.641 526.366 654.561C522.955 653.6 518.444 654.014 514.861 653.753C507.257 653.197 495.34 650.337 490.902 643.453C489.438 641.183 489.278 638.622 489.932 636.041C491.193 631.062 497.585 625.788 497.889 623.397C496.664 623.022 495.442 622.585 494.18 622.36ZM503.755 716.854C510.224 700.669 515.212 684.463 519.294 667.525C503.241 664.944 485.462 662.377 469.241 664.655C466.611 664.778 463.978 664.93 461.345 664.964C478.033 682.297 493.837 697.986 495.197 723.502C498.356 722.365 501.519 721.661 503.102 718.413C503.35 717.905 503.569 717.388 503.755 716.854ZM615.95 751.812C607.103 753.574 598.454 756.735 593.277 764.6C588.658 771.618 587.028 781.536 588.84 789.714C590.511 797.257 595.218 803.212 601.713 807.264C609.832 812.329 620.683 814.905 630.205 815.003C631.795 814.991 634.075 815.297 635.478 814.561C631.907 813.427 628.169 813.058 624.639 811.91C615.4 808.906 605.487 802.214 601.01 793.36Q600.737 792.831 600.492 792.288Q600.246 791.746 600.029 791.192Q599.812 790.637 599.623 790.072Q599.435 789.508 599.276 788.934Q599.117 788.36 598.988 787.779Q598.859 787.198 598.759 786.61Q598.66 786.023 598.591 785.432Q598.523 784.841 598.484 784.246Q598.446 783.652 598.438 783.057Q598.431 782.462 598.454 781.867Q598.477 781.272 598.531 780.679Q598.584 780.086 598.668 779.496Q598.752 778.907 598.867 778.322Q598.981 777.738 599.125 777.16Q599.269 776.583 599.443 776.013Q599.617 775.444 599.82 774.884C603.443 764.566 615.871 755 616.844 751.979L615.95 751.812ZM551.921 933.624C553.856 937.527 555.986 941.255 558.668 944.701C566.452 932.408 591.808 892.012 604.858 888.402C605.615 888.192 605.635 888.225 606.304 888.214L607.034 888.978C605.858 893.452 591.326 906.687 587.486 911.431C577.91 923.262 570.885 937.123 561.061 948.569C566.827 957.367 573.549 965.889 580.221 974.018C588.574 956.896 596.988 939.982 610.591 926.323C609.89 908.928 608.562 891.186 606.04 873.948C602.658 881.158 589.724 890.939 583.771 897.095C578.875 902.157 574.31 907.591 569.659 912.879C567.236 915.634 559.432 925.858 556.513 927.047C555.733 927.365 554.774 926.607 554.057 926.254C554.028 925.342 554.004 924.45 554.182 923.548C555.624 916.254 594.529 879.102 601.984 874.418C603.639 873.378 604.172 873.496 606.04 873.948C605.247 867.45 603.354 848.858 598.657 844.865C592.287 845.737 556.228 892.407 549.367 893.888L548.602 893.097C548.654 890.673 549.626 888.568 550.957 886.562C556.181 878.686 572.724 862.476 580.042 855.452Q588.751 847.148 598.172 839.661C597.357 837.24 596.592 834.852 595.447 832.561C579.738 843.43 561.387 859.533 548.196 873.453C543.714 892.238 543.499 915.993 551.921 933.624ZM800.229 706.833C784.046 708.745 766.331 715.33 755.997 728.61C752.958 732.515 751.242 736.375 749.701 741.043C764.614 725.221 781.858 715.773 803.951 715.03C817.836 714.564 839.117 719.211 849.268 729.317C850.39 730.435 851.291 731.552 851.258 733.202C851.145 738.766 843.168 746.007 839.545 749.96C844.587 751.67 851.601 753.178 854.108 758.394C854.533 759.278 854.741 760.2 854.96 761.151C851.429 771.705 843.653 778.722 833.825 783.613C825.269 787.871 815.545 789.045 806.463 791.792C820.249 793.737 834.349 791.002 845.641 782.456C851.534 777.995 855.951 771.81 856.859 764.345C857.85 756.191 854.135 750.547 849.987 743.994C852.178 740.678 855.345 736.893 854.603 732.646C853.832 728.236 847.904 724.49 844.375 722.268C831.063 713.885 816.28 706.703 800.229 706.833ZM684.884 566.646C674.304 568.041 652.184 571.899 645.625 580.375C645.168 580.966 644.957 581.506 644.806 582.229C645.754 583.432 646.385 583.704 647.931 583.892C656.825 584.977 665.942 580.316 674.015 585.707L674.596 586.735C672.533 588.138 657.146 587.065 652.94 587.402C648.624 587.748 644.338 588.788 640.121 589.722C646.052 591.674 665.15 596.9 667.523 602.18C667.898 603.015 667.449 603.351 667.087 604.106C665.372 604.825 664.285 604.703 662.549 604.006C656.652 601.639 646.174 593.385 639.846 595.855C638.91 596.221 638.278 596.597 637.8 597.489C638.682 600.59 644.012 603.332 646.716 604.836Q649.305 606.269 651.923 607.649Q656.333 610.294 660.467 613.354Q664.6 616.414 668.418 619.86C677.912 628.448 686.718 641.403 701.413 638.171C707.421 636.85 713.765 632.728 716.855 627.352C718.522 624.451 719.459 620.643 718.365 617.366C716.523 611.85 706.118 609.055 709.409 602.091C712.894 594.716 727.629 593.178 724.209 582.35C722.527 577.025 716.428 573.286 711.627 571.031C703.755 567.334 693.56 564.962 684.884 566.646ZM538.955 469.274C533.865 470.146 527.196 471.501 523.957 475.923C522.132 478.417 522.104 481.516 522.64 484.445C523.446 488.855 526.99 494.271 524.945 498.504C519.074 503.146 501.225 496.859 499.527 509.021C498.878 513.663 501.032 519.039 503.918 522.608C507.044 526.473 511.087 529.654 515.004 532.681C521.737 537.884 528.812 542.582 536.444 546.375C552.327 554.27 568.747 558.769 581.214 572.289C585.71 568.428 590.388 564.667 594.563 560.459C593.54 557.541 592.587 554.579 591.349 551.745C588.795 546.164 586.223 540.613 583.249 535.241C581.256 531.641 578.762 528.188 577.074 524.44C576.224 522.551 575.608 520.704 575.391 518.633L575.908 518.17C585.099 522.743 595.187 550.995 600.166 561.235C595.382 531.564 589.603 497.124 563.488 478.184C556.734 473.285 547.542 468.758 538.955 469.274Z"></path><path fill="#28682E" transform="scale(0.074199 0.0742188)" d="M822.492 62.0701C834.709 61.4728 846.914 62.7289 858.512 66.7464C861.681 67.8438 867.546 70.1882 869.098 73.3453C865.721 74.794 847.562 66.9389 837.858 68.6222C828.13 70.3094 820.977 78.7755 812.439 83.2207C802.71 88.2862 791.905 89.9441 781.179 91.4232C780.615 101.551 782.721 96.9437 784.421 101.479C782.208 107.246 768.966 113.443 763.494 116.026Q762.99 116.182 762.483 116.326C750.457 119.711 741.893 116.212 731.52 110.292C729.977 112.084 727.832 115.072 725.331 115.334C724.47 115.424 724.257 114.953 723.647 114.441C723.635 114.272 723.602 114.104 723.61 113.936C723.687 112.217 737.517 87.752 739.53 84.6083Q741.872 80.9334 744.974 77.8732C749.012 73.9293 752.576 72.136 758.297 72.2198C767.236 72.3507 773.62 77.7014 779.54 83.784C794.934 78.6344 807.231 67.7892 822.492 62.0701ZM757.497 93.5176Q757.617 93.4678 757.735 93.4121Q757.853 93.3564 757.968 93.2951Q758.083 93.2337 758.195 93.1668Q758.306 93.0999 758.415 93.0276Q758.523 92.9553 758.628 92.8778Q758.732 92.8003 758.833 92.7177Q758.934 92.6352 759.031 92.5478Q759.127 92.4604 759.22 92.3685Q759.312 92.2765 759.399 92.1801Q759.487 92.0837 759.57 91.9831Q759.653 91.8826 759.731 91.7781Q759.808 91.6736 759.881 91.5654Q759.954 91.4572 760.021 91.3456Q760.088 91.234 760.15 91.1193Q760.212 91.0045 760.268 90.8869Q760.324 90.7693 760.374 90.649Q760.424 90.5288 760.468 90.4063Q760.512 90.2837 760.551 90.1592Q760.589 90.0346 760.621 89.9083Q760.653 89.782 760.679 89.6544Q760.705 89.5267 760.724 89.3979Q760.744 89.269 760.757 89.1394Q760.771 89.0098 760.777 88.8797Q760.784 88.7496 760.785 88.6193Q760.785 88.489 760.78 88.3589Q760.774 88.2287 760.762 88.099Q760.75 87.9693 760.731 87.8403Q760.712 87.7113 760.688 87.5834Q760.663 87.4555 760.632 87.329Q760.601 87.2024 760.564 87.0775Q760.527 86.9527 760.483 86.8298Q760.44 86.7068 760.391 86.5862Q760.342 86.4655 760.287 86.3474Q760.232 86.2293 760.171 86.114Q760.11 85.9988 760.044 85.8866Q759.978 85.7744 759.906 85.6656Q759.834 85.5569 759.757 85.4517Q759.68 85.3465 759.599 85.2453Q759.517 85.144 759.43 85.0469Q759.343 84.9497 759.251 84.857Q759.16 84.7642 759.064 84.676Q758.968 84.5878 758.868 84.5044Q758.768 84.421 758.664 84.3426Q758.56 84.2642 758.452 84.191Q758.344 84.1178 758.233 84.05Q758.122 83.9821 758.007 83.9198Q757.893 83.8575 757.776 83.8008Q757.658 83.7441 757.538 83.6933Q757.419 83.6424 757.296 83.5975Q757.174 83.5526 757.05 83.5136Q756.925 83.4747 756.799 83.442Q756.673 83.4092 756.545 83.3826Q756.418 83.3561 756.289 83.3358Q756.161 83.3155 756.031 83.3015Q755.901 83.2876 755.771 83.2799Q755.641 83.2723 755.511 83.2711Q755.381 83.2698 755.251 83.2749Q755.12 83.28 754.991 83.2915Q754.861 83.303 754.732 83.3208Q754.603 83.3386 754.475 83.3627Q754.347 83.3868 754.22 83.4172Q754.093 83.4475 753.968 83.484Q753.843 83.5205 753.72 83.5631Q753.597 83.6057 753.476 83.6542Q753.354 83.7031 753.235 83.7579Q753.116 83.8127 753 83.8733Q752.883 83.9339 752.77 84.0002Q752.657 84.0665 752.547 84.1383Q752.437 84.21 752.331 84.2871Q752.225 84.3642 752.123 84.4464Q752.021 84.5286 751.923 84.6158Q751.824 84.7029 751.731 84.7948Q751.637 84.8867 751.548 84.9831Q751.459 85.0794 751.375 85.1801Q751.291 85.2807 751.212 85.3854Q751.133 85.49 751.059 85.5985Q750.985 85.7069 750.917 85.8188Q750.848 85.9308 750.785 86.0459Q750.723 86.1611 750.666 86.2792Q750.608 86.3974 750.557 86.5181Q750.506 86.6389 750.461 86.7621Q750.416 86.8853 750.377 87.0105Q750.338 87.1357 750.305 87.2628Q750.272 87.3898 750.245 87.5182Q750.219 87.6467 750.198 87.7763Q750.178 87.906 750.164 88.0364Q750.151 88.1669 750.143 88.2979Q750.136 88.4289 750.135 88.5601Q750.134 88.6913 750.14 88.8223Q750.145 88.9534 750.157 89.084Q750.169 89.2147 750.188 89.3446Q750.206 89.4745 750.231 89.6033Q750.256 89.7321 750.287 89.8596Q750.318 89.987 750.355 90.1128Q750.392 90.2386 750.436 90.3623Q750.479 90.4861 750.529 90.6076Q750.578 90.7291 750.634 90.848Q750.689 90.9669 750.751 91.0829Q750.812 91.1989 750.879 91.3118Q750.946 91.4247 751.018 91.5341Q751.09 91.6435 751.168 91.7493Q751.246 91.855 751.328 91.9568Q751.411 92.0586 751.499 92.1562Q751.587 92.2538 751.679 92.3469Q751.771 92.4401 751.868 92.5286Q751.965 92.6171 752.066 92.7007Q752.167 92.7843 752.272 92.8629Q752.377 92.9414 752.486 93.0147Q752.595 93.0879 752.707 93.1558Q752.819 93.2236 752.935 93.2858Q753.05 93.348 753.169 93.4044Q753.287 93.4609 753.408 93.5114Q753.529 93.562 753.653 93.6065Q753.776 93.651 753.901 93.6894Q754.027 93.7278 754.154 93.76Q754.281 93.7922 754.41 93.8181Q754.539 93.844 754.668 93.8635Q754.798 93.883 754.928 93.8961Q755.059 93.9092 755.19 93.9158Q755.321 93.9225 755.452 93.9227Q755.583 93.9229 755.714 93.9166Q755.845 93.9104 755.976 93.8977Q756.106 93.8849 756.236 93.8658Q756.366 93.8467 756.495 93.8212Q756.623 93.7957 756.751 93.7639Q756.878 93.7321 757.003 93.6941Q757.129 93.6561 757.252 93.6119Q757.376 93.5678 757.497 93.5176Z"></path><path fill="#28682E" transform="scale(0.074199 0.0742188)" d="M720.148 449.545C721.309 449.994 722.354 450.441 723.218 451.366C726.149 454.506 728.42 459.269 730.673 462.976C734.435 469.162 738.34 475.38 742.817 481.081C753.41 494.57 766.051 507.181 779.404 517.941C793.232 529.084 809.658 538.195 825.486 546.137C833.643 550.23 842.398 553.964 850.156 558.745C851.788 559.751 852.638 560.45 853.475 562.184C852.646 562.309 851.817 562.433 850.979 562.478C845.182 562.79 838.345 557.842 833.235 555.338C808.374 543.158 785.225 529.897 764.807 510.924C752.43 499.422 725.827 471.002 720.882 455.783C720.239 453.804 720.225 451.609 720.148 449.545Z"></path><path fill="#28682E" transform="scale(0.074199 0.0742188)" d="M782.078 482.606C783.643 482.909 784.664 483.212 785.86 484.29C790.484 488.46 794.352 494.251 798.394 499.026C803.407 504.949 808.982 510.094 814.919 515.071C835.128 532.009 860.205 548.879 884.089 560.142C892.25 563.991 905.411 566.721 912.333 571.147C913.857 572.121 913.81 573.137 914.17 574.78C908.578 575.667 900.997 572.044 895.862 569.949C874.746 561.333 855.432 550.804 836.793 537.65C822.711 527.712 785.064 499.944 782.078 482.606Z"></path><path fill="#28682E" transform="scale(0.074199 0.0742188)" d="M802.327 44.1805C804.396 44.0969 806.362 44.8225 808.421 44.9748C813.119 45.322 818.348 44.3686 822.714 46.5298L822.767 47.3072C815.954 50.1925 799.633 48.4897 791.148 50.001L790.36 50.1474C795.776 50.6914 801.249 50.6591 806.648 51.4108C812.334 52.2026 817.941 53.716 823.666 54.2348C833.032 55.0834 841.185 52.5858 850.364 55.883C839.84 57.0103 818.541 62.5508 809.492 57.2968C808.519 56.7323 807.528 56.2056 806.543 55.6653C800.67 56.5086 795.896 56.3567 790.168 54.7889L784.456 57.8622C783.414 57.0966 782.355 56.3058 781.211 55.6986C773.431 51.5689 759.669 58.6813 752.943 62.4353C750.304 63.9078 747.011 66.3692 744.094 67.1201C742.833 67.4446 742.648 67.3304 741.6 66.7028L741.4 65.5196C742.696 62.0191 748.129 59.4075 751.275 57.7383C756.646 54.8884 781.756 43.5328 786.504 45.8038C787.908 46.475 787.996 47.2699 788.46 48.6221C793.067 46.0453 797.126 44.9957 802.327 44.1805Z"></path><path fill="#28682E" transform="scale(0.074199 0.0742188)" d="M739.051 177.889C740.439 177.778 741.846 177.63 743.237 177.756C744.555 177.874 744.838 177.721 745.701 178.775C743.179 181.656 735.5 183.539 731.822 185.246C724.14 188.812 716.7 193.4 709.795 198.296C684.986 215.889 676.357 240.324 671.382 268.968C670.972 270.128 670.702 271.211 669.757 272.06L669.106 271.671C666.189 262.477 672.355 244.689 675.854 235.983C687.06 208.099 712.096 189.436 739.051 177.889Z"></path><path fill="#28682E" transform="scale(0.074199 0.0742188)" d="M854.583 146.219Q863.06 146.268 871.375 147.917C879.745 149.54 902.915 156.484 908.373 162.012C909.675 163.33 910.936 164.968 910.905 166.825L910.485 167.044C907.084 166.635 899.709 161.763 896.003 160.287Q890.625 158.331 885.103 156.832Q879.581 155.332 873.953 154.299Q868.325 153.266 862.63 152.707Q856.936 152.148 851.214 152.066C845.469 151.964 838.903 153.268 833.331 152.152L832.983 151.544L833.59 150.323C838.927 146.533 848.172 146.621 854.583 146.219Z"></path><path fill="#28682E" transform="scale(0.074199 0.0742188)" d="M812.28 245.658C812.818 245.796 813.053 245.828 813.587 246.119C818.085 248.567 821.789 257.262 824.547 261.515C831.244 271.839 839.914 282.317 849.11 290.532C853.693 294.627 862.793 298.844 864.95 304.682C856.117 304.53 845.487 294.008 839.649 288.108C830.748 279.112 812.227 258.139 812.28 245.658Z"></path><path fill="#28682E" transform="scale(0.074199 0.0742188)" d="M830.741 257.372Q831.789 257.613 832.74 258.114C837.063 260.419 839.871 267.109 843.044 270.867C845.975 274.338 849.176 277.67 852.422 280.848C858.73 287.026 873.024 295.908 875.383 303.802C875.437 303.982 875.485 304.164 875.536 304.344C868.867 303.458 857.988 293.067 852.786 288.115C845.129 280.827 830.999 268.226 830.741 257.372Z"></path><path fill="#28682E" transform="scale(0.074199 0.0742188)" d="M850.774 263.838C859.441 268.463 866.359 278.571 873.716 285.155C880.421 291.155 886.436 292.479 892.061 296.885C893.957 298.37 894.539 299.546 894.896 301.906C881.882 301.547 866.493 286.452 857.781 277.184C854.145 273.316 850.568 269.412 850.774 263.838Z"></path><path fill="#28682E" transform="scale(0.074199 0.0742188)" d="M699.958 275.779L702.365 277.009C704.302 279.42 704.353 289.66 704.915 293.053C705.854 298.73 707.544 306.055 710.084 311.255C711.975 315.128 716.895 320.635 717.502 324.711C717.699 326.029 717.365 326.224 716.596 327.2C713.193 324.928 710.647 321.618 708.578 318.139C701.509 306.247 696.42 289.516 699.958 275.779Z"></path><path fill="#28682E" transform="scale(0.074199 0.0742188)" d="M719.14 90.6335L720.318 91.524C720.721 92.6553 721.009 93.3985 720.846 94.6227C719.898 101.759 709.897 110.207 704.233 113.78C707.491 114.401 710.916 114.966 714.052 116.054C716.44 116.882 720.244 117.989 721.376 120.37L720.344 121.237C718.013 121.955 715.877 121.113 713.592 120.523C706.377 119.179 698.94 118.022 692.543 114.25C705.318 110.185 711.69 101.115 719.14 90.6335Z"></path><path fill="#28682E" transform="scale(0.074199 0.0742188)" d="M712.459 364.474L714.047 365.213C716.776 368.402 718.88 380.027 720.606 384.436C722.085 388.213 723.642 392.057 725.587 395.618C729.154 402.149 736.448 410.318 737.42 417.563C731.059 413.644 725.937 405.074 722.31 398.764C717.136 389.762 709.545 375.151 712.459 364.474Z"></path><path fill="#28682E" transform="scale(0.074199 0.0742188)" d="M687.663 232.594C688.531 233.193 688.863 233.678 689.367 234.598C688.424 241.361 682.615 247.294 681.025 254.119C679.206 261.927 680.042 281.223 678.133 285.264C673.335 277.921 674.582 265.246 675.899 256.994C677.315 248.125 680.059 238.117 687.663 232.594Z"></path><path fill="#28682E" transform="scale(0.074199 0.0742188)" d="M693.229 267.157C694.128 267.739 694.74 267.889 695.176 268.912C697.02 273.246 695.263 281.087 695.249 285.828C695.227 293.143 702.212 311.587 699.674 317.224L698.473 317.154C697.469 315.457 696.569 313.765 695.853 311.926C690.887 299.171 687.427 280.162 693.229 267.157Z"></path><path fill="#28682E" transform="scale(0.074199 0.0742188)" d="M687.535 252.196L688.983 252.913C689.266 253.464 689.5 253.929 689.595 254.549C690.388 259.75 686.928 268.651 686.259 274.232C685.387 281.509 691.477 303.649 688.522 307.966C686.761 305.28 685.737 302.676 684.976 299.572C681.488 285.345 679.749 265.085 687.535 252.196Z"></path><path fill="#28682E" transform="scale(0.074199 0.0742188)" d="M863.937 128.528C866.757 128.866 869.631 129.164 872.393 129.844C881.672 132.13 897.049 138.377 901.969 147.126C903.01 148.978 903.098 150.038 902.503 152.051C895.993 148.568 891.15 142.54 884.402 139.347C877.925 136.282 870.59 136.083 864.217 132.453C863.319 130.83 863.654 130.318 863.937 128.528Z"></path><path fill="#28682E" transform="scale(0.074199 0.0742188)" d="M887.692 369.152C891.039 370.292 893.607 373.698 896.018 376.217C901.28 374.861 907.014 373.182 912.319 375.39C913.581 375.915 914.27 376.375 914.808 377.622C914.471 378.054 914.408 378.203 913.864 378.516C910.114 380.678 903.825 379.21 899.743 378.627L899.748 379.283C901.223 381.556 904.581 383.088 906.759 384.738C907.455 386.237 907.35 386.156 906.805 387.735C905.769 388.52 905.257 388.845 903.914 388.654C899.129 387.973 891.503 380.796 888.981 376.908C887.188 374.145 886.953 372.324 887.692 369.152Z"></path><path fill="#28682E" transform="scale(0.074199 0.0742188)" d="M925.133 195.398C927.794 196.333 929.956 197.868 931.993 199.787C939.433 206.795 950.752 221.689 951.116 232.167C949.499 231.423 948.162 230.628 946.969 229.273C942.863 224.606 940.057 218.419 936.473 213.296C933.412 208.922 929.602 205.16 926.401 200.907C924.912 198.929 924.777 197.826 925.133 195.398Z"></path><path fill="#28682E" transform="scale(0.074199 0.0742188)" d="M853.931 137.337C858.568 137.21 863.063 137.306 867.643 138.102C874.626 139.317 886.253 142.9 890.362 149.222C890.956 150.136 891.07 150.277 890.82 151.357L889.319 151.511C882.368 148.612 874.709 144.792 867.294 143.578C863.15 142.898 854.204 143.121 851.306 139.89C851.739 138.266 852.53 138.186 853.931 137.337Z"></path><path fill="#28682E" transform="scale(0.074199 0.0742188)" d="M874.237 268.793C874.997 269.016 875.697 269.268 876.396 269.647C881.637 272.495 886.173 277.932 890.984 281.567C895.676 285.113 901.213 287.921 905.66 291.71C906.942 292.803 907.428 293.56 907.893 295.175C907.636 295.21 907.379 295.25 907.121 295.281C900.626 296.04 893.118 290.206 888.275 286.458C882.852 282.26 875.178 276.043 874.237 268.793Z"></path><path fill="#28682E" transform="scale(0.074199 0.0742188)" d="M745.477 40.9792L745.971 41.0616L746.229 41.8314C740.009 52.4317 726.021 65.9721 717.316 75.472L716.129 74.6398C715.982 74.0324 715.836 73.6005 715.885 72.9433C716.458 65.1534 738.444 45.5045 745.477 40.9792Z"></path><path fill="#28682E" transform="scale(0.074199 0.0742188)" d="M700.698 354.565C701.443 354.903 702.301 355.25 702.964 355.73C705.231 357.371 705.694 362.514 706.182 365.177C706.734 368.189 707.165 371.314 708.213 374.201C710.627 380.848 715.092 387.411 716.42 394.361C714.204 394.034 712.873 393.721 711.358 392.002C704.255 383.948 700.329 365.176 700.698 354.565Z"></path><path fill="#28682E" transform="scale(0.074199 0.0742188)" d="M761.398 41.7395C761.01 43.4069 760.01 44.3531 758.806 45.538C753.981 50.2858 748.353 54.3048 743.375 58.924C738.895 63.0805 734.891 68.3625 729.978 71.9431C729.898 71.8212 729.801 71.709 729.738 71.5775C728.964 69.9608 728.84 68.7122 729.535 67.0427C733.303 57.9905 752.332 45.8036 761.398 41.7395Z"></path><path fill="#28682E" transform="scale(0.074199 0.0742188)" d="M752.795 165.722C754.753 165.648 756.091 166.035 757.695 167.142L757.855 168.306C754.565 172.194 748.604 171.449 744.091 172.811C737.15 174.907 730.489 179.143 724.226 182.747C722.94 183.311 721.998 183.534 720.601 183.69L720.054 183.182C720.235 182.546 720.219 182.465 720.629 181.814C724.695 175.372 745.357 167.793 752.795 165.722Z"></path><path fill="#28682E" transform="scale(0.074199 0.0742188)" d="M695.185 88.3549L696.018 88.7829C696.426 89.6448 696.713 89.9995 696.691 90.985C696.538 97.7073 686.396 106.001 681.76 110.313C683.342 111.111 685.317 111.801 686.151 113.439C685.623 114.976 684.844 115.403 683.632 116.456C682.468 116.178 680.836 115.874 679.805 115.244C678.605 114.51 677.929 113.222 677.831 111.84C677.428 106.18 691.335 93.3224 695.185 88.3549Z"></path><path fill="#28682E" transform="scale(0.074199 0.0742188)" d="M709.901 294.928C710.757 295.057 711.447 295.192 712.199 295.658C714.761 297.245 726.496 320.336 726.978 323.778C724.719 323.734 723.651 323.361 722.019 321.777C716.011 315.943 709.954 303.327 709.901 294.928Z"></path><path fill="#28682E" transform="scale(0.074199 0.0742188)" d="M707.515 89.6227L708.387 90.9138C708.84 94.6997 707.781 97.4567 705.668 100.564C701.988 105.974 695.69 112.592 689.06 113.8C688.414 113.027 687.984 112.305 687.535 111.404C689.641 107.908 695.022 104.635 698.049 101.595C701.687 97.9415 704.601 93.8503 707.515 89.6227Z"></path><path fill="#28682E" transform="scale(0.074199 0.0742188)" d="M915.553 201.176C922.256 202.959 927.36 207.743 931.489 213.171C933.972 216.435 936.691 220.625 936.106 224.868C934.742 224.47 933.728 224.069 932.698 223.057C929.315 219.732 926.592 215.478 923.347 211.959C921.171 209.598 917.747 207.31 916.124 204.614C915.467 203.522 915.616 202.427 915.553 201.176Z"></path><path fill="#28682E" transform="scale(0.074199 0.0742188)" d="M728.826 89.5115C729.099 89.7079 729.406 89.8646 729.645 90.1009C730.471 90.9163 730.656 92.2942 730.594 93.3965C730.147 101.323 721.694 110.293 716.284 115.417C715.692 115.091 715.298 114.583 714.832 114.1C714.659 110.459 726.422 94.296 728.826 89.5115Z"></path><path fill="#28682E" transform="scale(0.074199 0.0742188)" d="M898.884 202.495C899.171 202.518 899.459 202.534 899.746 202.564C905.904 203.223 914.374 208.854 917.969 213.823C919.682 216.192 919.857 217.443 919.324 220.294C915.905 219.12 904 209.558 900.619 206.556C899.073 205.183 899.098 204.425 898.884 202.495Z"></path><path fill="#28682E" transform="scale(0.074199 0.0742188)" d="M690.176 343.68C690.334 343.776 690.503 343.856 690.651 343.968C695.516 347.663 698.942 368.921 700.007 375.697C699.339 375.139 698.718 374.624 698.198 373.917C692.975 366.82 688.697 352.445 690.176 343.68Z"></path><path fill="#28682E" transform="scale(0.074199 0.0742188)" d="M893.624 274.166C898.349 274.745 909.243 279.665 914.357 281.468C915.949 282.03 916.241 282.123 916.974 283.676C916.213 283.976 915.494 284.262 914.682 284.398C909.003 285.349 901.031 283.739 896.514 280.086C894.325 278.317 893.966 276.903 893.624 274.166Z"></path><path fill="#28682E" transform="scale(0.074199 0.0742188)" d="M721.504 302.239C726.222 303.775 731.653 305.627 735.43 308.922C737.881 311.059 738.658 312.719 738.941 315.925C733.723 314.46 728.169 312.193 724.179 308.433C721.912 306.297 721.598 305.201 721.504 302.239Z"></path><path fill="#28682E" transform="scale(0.074199 0.0742188)" d="M876.033 122.184C880.625 122.471 886.033 124.258 889.821 126.897C892.925 129.059 894.325 130.744 895.044 134.468C891.587 133.25 888.179 131.539 884.912 129.872C881.519 128.142 877.257 125.979 876.033 122.184Z"></path><path fill="#28682E" transform="scale(0.074199 0.0742188)" d="M393.264 148.919C401.954 148.257 409.909 151.266 415.551 157.98C417.839 160.704 420.064 164.04 423.006 166.102C426.669 168.669 431.434 167.497 434.596 169.736C435.325 170.252 435.195 170.594 435.357 171.4C435.232 171.574 435.131 171.767 434.983 171.922C432.799 174.197 428.496 173.756 425.813 175.322C417.239 180.324 417.658 188.579 403.088 189.241C391.223 189.781 386.166 182.147 378.238 175.159C374.38 171.758 370.082 170.587 365.015 170.906C364.791 170.92 364.567 170.939 364.342 170.956C354.741 175.221 346.627 181.949 336.193 184.603C331.659 185.756 321.829 188.089 317.61 185.6L317.386 184.494C319.442 182.565 331.207 181.609 334.887 180.547Q340.644 178.909 345.919 176.08C361.898 167.55 375.3 153.371 393.264 148.919ZM395.978 166.586C397.897 165.109 399.303 163.735 399.593 161.214C399.766 159.709 399.372 158.335 398.391 157.177C396.943 155.468 395.376 155.164 393.221 155.108C393.036 155.103 392.851 155.103 392.666 155.101C390.754 157.951 389.202 160.198 389.491 163.796C390.239 165.096 390.737 166.007 392.288 166.427C393.406 166.731 394.829 166.636 395.978 166.586ZM409.599 181.806C414.133 179.334 417.179 176.41 420.551 172.523C417.357 171.065 415.89 170.494 414.606 167.008C414.341 166.289 414.167 165.599 413.782 164.935C413.167 170.219 411.97 176.909 407.496 180.353C406.473 181.14 405.324 181.821 404.196 182.442L404.619 182.84C406.272 182.538 407.997 182.311 409.599 181.806Z"></path><path fill="#28682E" transform="scale(0.074199 0.0742188)" d="M343.178 513.511C344.143 513.915 344.74 514.552 345.487 515.267L345.506 516.486C339.954 522.923 327.689 530.721 320.418 535.978C294.184 554.946 267.817 575.668 238.355 589.359C234.754 591.033 225.357 596.058 221.48 594.217C220.798 593.893 220.735 593.187 220.473 592.536C221.083 588.322 231.432 583.375 235.113 580.757C254.486 566.982 271.725 549.28 287.822 531.905C291.073 528.04 296.388 520.011 301.19 518.374L301.851 519.054C301.846 519.263 301.865 519.474 301.836 519.68C300.417 530.002 259.885 566.348 250.323 574.167C244.937 578.571 239.137 582.505 233.451 586.507C260.588 574.733 283.987 556.038 307.916 538.996C319.764 530.558 332.04 522.921 343.178 513.511Z"></path><path fill="#28682E" transform="scale(0.074199 0.0742188)" d="M259.941 535.493C260.41 535.761 260.69 536.192 261.036 536.601C261.036 537.338 261.034 538.009 260.873 538.732C260.276 541.399 257.894 544.283 256.303 546.437C241.161 566.939 213.514 586.014 191.821 598.992C190.976 598.729 190.897 598.437 190.337 597.783C190.828 593.035 201.315 587.638 205.363 584.938C219.266 575.667 233.466 564.877 245.003 552.753C250.058 547.441 254.19 541.308 259.354 536.081L259.941 535.493Z"></path><path fill="#28682E" transform="scale(0.074199 0.0742188)" d="M378.542 104.228C391.897 104.12 419.922 112.151 429.862 120.854C432.66 123.304 434.316 125.626 434.54 129.381C427.231 127.994 421.185 120.007 414.149 117.054C404.727 113.1 394.411 112.718 384.875 109.394C381.557 108.238 380.089 107.492 378.542 104.228Z"></path><path fill="#28682E" transform="scale(0.074199 0.0742188)" d="M380.097 125.944C385.747 126.031 392.91 126.025 398.134 128.261C399.646 128.908 401.553 129.694 402.19 131.239C399.657 132.568 395.944 131.657 393.235 131.252C379.741 129.233 370.103 129.074 356.595 132.621C351.538 134.179 340.357 139.715 335.368 137.763L335.55 136.986C344.267 129.196 368.412 126.402 380.097 125.944Z"></path><path fill="#28682E" transform="scale(0.074199 0.0742188)" d="M367.825 115.593Q375.331 114.928 382.855 115.354C390.095 115.734 410.843 118.548 415.487 124.559C416.399 125.739 416.244 126.496 416.08 127.903L415.254 128.301C412.459 127.715 409.88 126.512 407.255 125.416C398.603 122.058 390.013 119.735 380.733 118.974C375.693 118.561 361.934 120.387 358.576 118.89L358.234 117.917C360.085 115.912 365.236 115.876 367.825 115.593Z"></path><path fill="#28682E" transform="scale(0.074199 0.0742188)" d="M379.682 565.257C380.958 566.099 381.054 566.144 381.6 567.562C380.349 572.774 374.071 575.648 371.405 580.157C367.087 587.462 366.26 596.631 361.89 603.65C361.136 603.055 360.024 602.278 359.684 601.348C358.947 599.334 359.873 595.853 360.438 593.8C363.711 581.883 368.65 571.443 379.682 565.257Z"></path><path fill="#28682E" transform="scale(0.074199 0.0742188)" d="M418.52 101.454C427.711 104.317 437.44 111.862 443.574 119.172C446.647 122.835 449.439 127.124 448.984 132.077C442.127 128.533 438.088 120.644 432.537 115.465C428.23 111.447 422.25 109.712 418.144 105.39C417.592 103.632 417.964 103.167 418.52 101.454Z"></path><path fill="#28682E" transform="scale(0.074199 0.0742188)" d="M313.629 379.609C314.85 380.303 314.892 380.391 315.494 381.667C315.041 391.863 299.393 410.074 291.73 417.26C290.705 416.952 290.419 416.612 289.658 415.893C289.342 414.192 289.553 413.291 290.491 411.818C292.941 407.972 297.056 405.286 299.877 401.693C305.219 394.887 308.974 386.886 313.629 379.609Z"></path><path fill="#28682E" transform="scale(0.074199 0.0742188)" d="M326.867 605.303L326.834 606.531C323.067 612.882 293.598 633.7 286.481 636.557C286.154 635.641 285.969 635.19 286.184 634.203C287.181 629.626 321.671 608.367 326.867 605.303Z"></path><path fill="#28682E" transform="scale(0.074199 0.0742188)" d="M482.18 276.745C484.058 277.843 485.093 278.802 486.026 280.815C489.899 289.166 488.482 302.245 485.463 310.661C483.834 310.482 483.366 310.493 481.99 309.519C481.265 306.443 481.31 279.949 482.18 276.745Z"></path><path fill="#28682E" transform="scale(0.074199 0.0742188)" d="M358.137 225.224L359.282 225.656L359.7 226.691C359.426 227.213 359.377 227.376 358.911 227.859C349.968 237.148 328.39 237.502 316.385 237.294C315.61 236.97 314.832 236.41 314.101 235.984L313.958 235.136C317.433 232.495 324.854 233.812 329.244 233.355C339.446 232.293 348.719 229.078 358.137 225.224Z"></path><path fill="#28682E" transform="scale(0.074199 0.0742188)" d="M185.033 419.128L185.917 419.417C186.696 420.565 187.094 420.849 186.774 422.297C185.39 428.551 163.298 441.721 157.128 444.58C156.127 443.797 155.902 443.75 155.561 442.549C157.041 439.984 180.304 423.12 185.033 419.128Z"></path><path fill="#28682E" transform="scale(0.074199 0.0742188)" d="M376.449 226.304C377.953 226.723 378.273 226.757 379.322 227.881C379.26 228.362 379.275 228.538 378.997 229.014C374.201 237.216 351.016 242.567 342.389 243.526C340.95 243.045 340.368 242.999 339.372 241.816C342.454 237.958 353.652 237.746 358.488 235.868C364.788 233.421 370.678 229.786 376.449 226.304Z"></path><path fill="#28682E" transform="scale(0.074199 0.0742188)" d="M329.989 613.337L330.63 614.516C330.537 615.03 330.537 615.205 330.356 615.66C327.626 622.525 302.18 636.96 295 640.347C294.517 639.648 294.471 639.267 294.319 638.448C297.284 634.037 324.209 616.512 329.989 613.337Z"></path><path fill="#28682E" transform="scale(0.074199 0.0742188)" d="M490.944 283.328C492.438 283.657 493.365 283.659 494.292 285.027C499.07 292.084 495.854 312.001 494.154 319.851C493.398 320.208 492.991 320.117 492.174 320.076C491.36 318.974 491.216 318.031 491.094 316.706C490.567 311.01 491.309 304.966 491.28 299.225C491.252 293.914 490.612 288.642 490.944 283.328Z"></path><path fill="#28682E" transform="scale(0.074199 0.0742188)" d="M301.118 379.647C302.006 380.552 302.379 381.135 302.386 382.45C302.438 391.694 286.225 411.768 279.574 418.779L278.849 417.058C280.409 410.04 288.373 401.407 292.275 395.044C295.371 389.996 297.955 384.656 301.118 379.647Z"></path><path fill="#28682E" transform="scale(0.074199 0.0742188)" d="M192.212 365.198C193.57 366.027 193.788 365.947 194.24 367.443C192.806 373.616 177.368 389.483 172.358 394.063L170.845 393.326L170.537 391.858C172.673 383.738 186.046 371.42 192.212 365.198Z"></path><path fill="#28682E" transform="scale(0.074199 0.0742188)" d="M186.278 357.71C186.889 358.335 187.044 358.228 187.08 358.991C187.367 365.049 170.656 385.014 166.353 390.192C165.706 389.129 165.083 387.92 165.187 386.639C165.734 379.903 180.984 362.25 186.278 357.71Z"></path><path fill="#28682E" transform="scale(0.074199 0.0742188)" d="M384.328 572.569C384.621 572.751 385.021 572.971 385.235 573.244C385.848 574.029 385.887 574.593 385.778 575.55C385.021 582.2 376.197 596.638 370.947 600.829L369.318 600.403L368.915 598.99C370.257 590.753 378.935 579.021 384.328 572.569Z"></path><path fill="#28682E" transform="scale(0.074199 0.0742188)" d="M325.551 381.498C326.572 382.51 327.12 382.964 327.019 384.486C326.552 391.569 311.634 408.129 305.627 412.722C305 412.017 304.584 411.398 304.097 410.6C304.395 408.794 306.59 406.847 307.783 405.453C314.32 397.808 319.398 389.38 325.551 381.498Z"></path><path fill="#28682E" transform="scale(0.074199 0.0742188)" d="M344.738 482.268L345.902 482.871C346.426 483.651 346.802 483.892 346.773 484.873C346.597 490.952 331.385 504.782 326.481 509.176C325.224 508.753 325.536 508.868 325.006 507.802C326.458 501.67 339.978 487.781 344.738 482.268Z"></path><path fill="#28682E" transform="scale(0.074199 0.0742188)" d="M335.416 479.231C335.785 479.481 336.423 479.881 336.7 480.214C337.404 481.055 337.484 482.02 337.384 483.059C336.677 490.356 323.789 502.186 318.379 507.031C317.143 506.313 317.093 506.412 316.682 505.062C318.405 498.961 331.1 487.163 335.416 479.231Z"></path><path fill="#28682E" transform="scale(0.074199 0.0742188)" d="M340.658 379.652C341.192 380.063 341.705 380.66 342.185 381.139C342.408 381.956 342.561 382.601 342.403 383.451C340.991 391.039 328.986 401.668 322.884 405.749C321.831 404.948 321.549 404.507 321.132 403.254C323.453 398.535 328.989 394.136 332.49 390.026C335.336 386.684 337.973 383.126 340.658 379.652Z"></path><path fill="#28682E" transform="scale(0.074199 0.0742188)" d="M334.158 621.28L335.458 621.692L335.718 622.807C331.426 630.227 314.979 639.709 307.12 642.72L305.874 642.086L305.578 641.024C308.087 636.967 328.845 624.66 334.158 621.28Z"></path><path fill="#28682E" transform="scale(0.074199 0.0742188)" d="M202.069 369.333C203.085 369.634 203.343 369.938 204.094 370.65L204.056 372.148C200.691 378.296 192.725 383.657 187.451 388.157C187.357 388.153 187.262 388.162 187.17 388.145C186.002 387.932 185.45 387.664 184.677 386.778C184.693 386.569 184.684 386.356 184.725 386.15C185.894 380.226 197.251 372.819 202.069 369.333Z"></path><path fill="#28682E" transform="scale(0.074199 0.0742188)" d="M177.683 415.138C178.569 415.036 179.11 415.186 179.968 415.385L180.579 416.461C180.552 417.485 180.445 418.267 179.915 419.149C176.862 424.232 167.95 427.571 162.494 429.05L160.115 428.369L159.853 427.348C162.572 423.022 172.895 418.172 177.683 415.138Z"></path><path fill="#28682E" transform="scale(0.074199 0.0742188)" d="M332.985 633.495C333.595 633.843 333.755 634.163 334.141 634.734C334.039 635.447 334.075 635.523 333.704 636.271C331.266 641.187 316.142 648.695 310.653 650.358L309.372 648.679L309.673 647.459C317.102 642.55 325.04 637.506 332.985 633.495Z"></path><path fill="#28682E" transform="scale(0.074199 0.0742188)" d="M354.947 485.097L356.452 485.959C356.905 486.802 357.266 487.084 357.133 488.075C356.392 493.587 344.946 501.034 340.724 504.03C339.818 503.819 339.478 503.528 338.746 502.982L338.736 501.675C341.657 495.687 350.161 489.94 354.947 485.097Z"></path><path fill="#28682E" transform="scale(0.074199 0.0742188)" d="M394.525 575.481C394.579 575.511 394.636 575.536 394.688 575.569C395.398 576.023 396.421 576.421 396.539 577.307C397.118 581.66 388.098 594.432 385.233 598.221C384.394 597.572 383.858 596.908 383.231 596.056C382.488 589.345 390.642 580.423 394.525 575.481Z"></path><path fill="#28682E" transform="scale(0.074199 0.0742188)" d="M177.3 440.679C178.405 440.631 179.067 440.734 180.102 441.126L180.283 442.113C176.449 447.384 166.907 451.162 160.996 454.006C159.694 454.003 159.043 453.732 157.898 453.129L157.612 452.194C161.193 446.773 171.479 443.266 177.3 440.679Z"></path><path fill="#28682E" transform="scale(0.074199 0.0742188)" d="M330.38 469.563C331.09 470.894 331.337 471.29 331.169 472.847C330.369 480.256 322.648 488.685 317.157 493.197C316.212 492.336 316.434 492.398 316.304 491.216C318.789 484.125 325.395 475.206 330.38 469.563Z"></path><path fill="#28682E" transform="scale(0.074199 0.0742188)" d="M298.485 226.173C304.456 225.853 313.105 225.132 318.624 227.571L318.803 228.513C317.473 229.9 316.02 230.04 314.194 230.421C307.948 230.661 299.767 231.456 294.027 228.631L294.273 226.89C295.404 226.32 297.203 226.321 298.485 226.173Z"></path><path fill="#28682E" transform="scale(0.074199 0.0742188)" d="M357.209 376.848C357.331 376.927 357.468 376.987 357.576 377.085C358.706 378.11 359.021 378.58 358.859 380.138C358.405 384.521 348.261 390.945 344.748 393.447C343.6 392.278 343.416 392.292 343.291 390.686C345.709 385.184 352.606 380.537 357.209 376.848Z"></path><path fill="#28682E" transform="scale(0.074199 0.0742188)" d="M184.58 404.785C185.122 404.802 185.719 404.978 186.252 405.085C186.408 406.072 186.69 406.399 186.132 407.292C182.968 412.353 170.659 414.997 165.136 416.296C164.732 416.126 164.064 415.543 163.7 415.275L163.798 414.164C167.317 411.236 179.359 407.358 184.58 404.785Z"></path><path fill="#28682E" transform="scale(0.074199 0.0742188)" d="M415.028 583.2C416.251 583.606 416.19 583.842 416.922 584.838C416.766 585.525 416.781 585.641 416.381 586.351C413.949 590.676 406.612 595.08 402.067 596.727L400.473 595.543L400.397 594.109C403.012 589.169 410.249 585.714 415.028 583.2Z"></path><path fill="#28682E" transform="scale(0.074199 0.0742188)" d="M404.225 580.691C404.793 580.99 405.282 581.478 405.777 581.888L405.88 583.454C403.568 589.143 397.068 593.906 392.436 597.694C392.316 597.613 392.188 597.544 392.078 597.452C391.518 596.987 390.726 596.527 390.759 595.74C390.949 591.213 400.948 583.666 404.225 580.691Z"></path><path fill="#28682E" transform="scale(0.074199 0.0742188)" d="M389.657 231.148L390.183 231.799C390.273 232.861 390.43 233.152 389.952 234.161C387.634 239.054 379.316 242.806 374.414 244.429C373.838 243.309 373.849 242.791 374.015 241.552C377.194 236.581 384.509 233.752 389.657 231.148Z"></path><path fill="#28682E" transform="scale(0.074199 0.0742188)" d="M472.728 276.33C474.001 276.803 474.958 277.141 475.748 278.342C478.751 282.903 477.973 290.538 476.983 295.653C475.788 295.266 474.79 294.772 474.043 293.726C471.01 289.481 471.889 281.216 472.728 276.33Z"></path><path fill="#28682E" transform="scale(0.074199 0.0742188)" d="M188.405 426.076C189.164 426.166 189.581 426.458 190.24 426.824L190.312 427.735C187.657 432.558 182.193 435.718 177.4 438.036L175.991 437.737L175.441 436.812C176.546 432.847 185.074 428.167 188.405 426.076Z"></path><path fill="#28682E" transform="scale(0.074199 0.0742188)" d="M343.911 636.526C345.265 636.458 345.84 636.136 346.942 637.027C346.877 637.196 346.834 637.374 346.747 637.532C344.725 641.239 335.861 644.791 332.053 646.399C331.031 646.65 330.634 646.614 329.622 646.473L329.179 645.587C332.263 641.394 339.234 638.463 343.911 636.526Z"></path><path fill="#28682E" transform="scale(0.074199 0.0742188)" d="M364.518 487.428C365.688 488.723 365.813 488.807 366.017 490.524C364.506 494.857 360.526 497.631 357.171 500.542C356.466 499.613 356.17 498.915 355.855 497.795C356.791 493.388 361.298 490.305 364.518 487.428Z"></path><path fill="#28682E" transform="scale(0.074199 0.0742188)" d="M463.239 274.636C464.328 274.933 465.148 275.266 465.966 276.081C468.638 278.744 468.687 282.983 468.852 286.51C466.743 285.604 465.004 284.763 463.786 282.727C462.265 280.185 462.675 277.387 463.239 274.636Z"></path><path fill="#28682E" transform="scale(0.074199 0.0742188)" d="M207.728 373.59C208.423 373.692 209.31 373.752 209.958 374.014C211.314 374.561 211.388 374.814 211.84 376.091C211.146 377.894 210.127 378.56 208.592 379.671C207.973 379.508 207.276 379.362 206.687 379.097C205.425 378.529 205.077 378.128 204.631 376.852C205.165 375.209 206.391 374.545 207.728 373.59Z"></path><path fill="#28682E" transform="scale(0.074199 0.0742188)" d="M561.521 528.513C562.534 528.579 563.361 528.774 564.196 529.389C569.746 533.476 585.536 557.671 586.525 564.342C585.722 564.578 584.264 564.993 583.531 564.5C582.135 563.56 564.134 535.168 562.64 532.2C562.05 531.028 561.739 529.799 561.521 528.513Z"></path><path fill="#28682E" transform="scale(0.074199 0.0742188)" d="M762.248 754.899C769.668 753.787 777.952 755.519 784.802 758.36C787.894 759.643 793.73 762.467 794.843 765.76C795.149 766.663 794.926 766.635 794.511 767.406C792.747 767.986 791.321 767.369 789.621 766.864C782.546 764.023 775.928 761.43 768.257 760.765C764.564 760.445 756.11 760.782 753.365 758.39L753.462 757.317C755.743 755.203 759.309 755.147 762.248 754.899Z"></path><path fill="#28682E" transform="scale(0.074199 0.0742188)" d="M598.619 857.067C599.465 857.413 599.332 857.495 599.733 858.26C599.07 860.129 597.705 861.453 596.385 862.895C586.761 873.406 576.277 883.2 566.39 893.472C561.106 898.962 555.839 907.19 549.498 911.272C549.381 911.142 549.257 911.019 549.146 910.883C548.582 910.195 547.579 908.742 547.728 907.864C549.257 898.871 589.04 863.201 598.619 857.067Z"></path><path fill="#28682E" transform="scale(0.074199 0.0742188)" d="M605.785 907.926C606.832 908.548 606.771 908.483 607.086 909.661C602 920.129 592.964 929.188 586.217 938.682C581.337 945.548 577.687 953.971 571.774 959.965C571.68 959.905 571.573 959.86 571.491 959.785C570.447 958.822 569.963 958.104 570.006 956.656C570.291 947.116 598.541 915.753 605.785 907.926Z"></path><path fill="#28682E" transform="scale(0.074199 0.0742188)" d="M554.057 926.254C554.028 925.342 554.004 924.45 554.182 923.548C555.624 916.254 594.529 879.102 601.984 874.418C603.639 873.378 604.172 873.496 606.04 873.948C602.658 881.158 589.724 890.939 583.771 897.095C578.875 902.157 574.31 907.591 569.659 912.879C567.236 915.634 559.432 925.858 556.513 927.047C555.733 927.365 554.774 926.607 554.057 926.254Z"></path></svg> 