<?xml version="1.0" encoding="UTF-8"?> <svg xmlns="http://www.w3.org/2000/svg" width="101" height="33" viewBox="0 0 101 33" fill="none"><path d="M16.6276 13.2644C17.1476 13.2644 17.6143 13.3577 18.0276 13.5444C18.441 13.7244 18.791 13.971 19.0776 14.2844C19.371 14.591 19.5943 14.951 19.7476 15.3644C19.9076 15.771 19.9876 16.1977 19.9876 16.6444C19.9876 17.1444 19.8943 17.6044 19.7076 18.0244C19.5276 18.4444 19.2776 18.8044 18.9576 19.1044C18.6376 19.4044 18.2643 19.641 17.8376 19.8144C17.4176 19.981 16.9676 20.0644 16.4876 20.0644C15.9743 20.0644 15.511 19.971 15.0976 19.7844C14.691 19.5977 14.3443 19.351 14.0576 19.0444C13.7776 18.7377 13.561 18.3844 13.4076 17.9844C13.2543 17.5844 13.1776 17.1677 13.1776 16.7344C13.1776 16.3077 13.2543 15.8877 13.4076 15.4744C13.561 15.0544 13.7843 14.681 14.0776 14.3544C14.3776 14.0277 14.741 13.7644 15.1676 13.5644C15.5943 13.3644 16.081 13.2644 16.6276 13.2644ZM16.6176 19.7144C17.0643 19.6944 17.4543 19.5944 17.7876 19.4144C18.1276 19.2277 18.411 18.9944 18.6376 18.7144C18.8643 18.4277 19.031 18.1144 19.1376 17.7744C19.251 17.4344 19.3076 17.0977 19.3076 16.7644C19.3076 16.3977 19.241 16.0277 19.1076 15.6544C18.9743 15.281 18.7843 14.9444 18.5376 14.6444C18.291 14.3377 17.9943 14.091 17.6476 13.9044C17.3076 13.711 16.9243 13.6144 16.4976 13.6144C16.0843 13.6144 15.7143 13.7077 15.3876 13.8944C15.061 14.0744 14.781 14.3077 14.5476 14.5944C14.321 14.881 14.1476 15.201 14.0276 15.5544C13.9076 15.9077 13.8476 16.2544 13.8476 16.5944C13.8476 16.961 13.9176 17.331 14.0576 17.7044C14.1976 18.071 14.391 18.4044 14.6376 18.7044C14.8843 19.0044 15.1743 19.2477 15.5076 19.4344C15.8476 19.621 16.2176 19.7144 16.6176 19.7144ZM24.245 16.8144C24.245 16.741 24.2317 16.661 24.205 16.5744C24.1784 16.4877 24.1384 16.411 24.085 16.3444C24.0317 16.271 23.965 16.211 23.885 16.1644C23.805 16.1177 23.7117 16.0944 23.605 16.0944H22.725V19.3144C22.725 19.3677 22.7317 19.4244 22.745 19.4844C22.7584 19.5444 22.7784 19.6044 22.805 19.6644C22.8384 19.7177 22.8717 19.7644 22.905 19.8044C22.945 19.8444 22.9917 19.8644 23.045 19.8644V19.9644H21.745V19.8644C21.7984 19.8644 21.845 19.8444 21.885 19.8044C21.925 19.7644 21.9584 19.7177 21.985 19.6644C22.0184 19.611 22.0417 19.5544 22.055 19.4944C22.0684 19.4277 22.075 19.3677 22.075 19.3144V16.0944H21.215C21.1084 16.0944 21.015 16.1177 20.935 16.1644C20.855 16.211 20.7884 16.271 20.735 16.3444C20.6884 16.411 20.6517 16.4877 20.625 16.5744C20.5984 16.661 20.585 16.741 20.585 16.8144H20.485V15.7644H24.335V16.8144H24.245ZM27.938 19.1844C27.978 19.2577 28.0313 19.3344 28.098 19.4144C28.1647 19.4944 28.238 19.5677 28.318 19.6344C28.4047 19.701 28.4913 19.7577 28.578 19.8044C28.6647 19.8444 28.748 19.8644 28.828 19.8644V19.9644H28.448C28.1413 19.9644 27.9047 19.901 27.738 19.7744C27.5713 19.6477 27.4413 19.4977 27.348 19.3244L26.878 18.4344C26.8047 18.2944 26.6813 18.1744 26.508 18.0744C26.3347 17.9677 26.1513 17.9144 25.958 17.9144V19.3344C25.958 19.3877 25.9613 19.4444 25.968 19.5044C25.9813 19.5644 26.0013 19.621 26.028 19.6744C26.0547 19.7277 26.088 19.7744 26.128 19.8144C26.168 19.8477 26.2147 19.8644 26.268 19.8644V19.9644H24.978V19.8644C25.0247 19.8644 25.068 19.8477 25.108 19.8144C25.1547 19.7744 25.1913 19.7277 25.218 19.6744C25.2447 19.621 25.2647 19.5644 25.278 19.5044C25.2913 19.4444 25.298 19.3877 25.298 19.3344V16.3944C25.298 16.3477 25.2913 16.2944 25.278 16.2344C25.2647 16.1677 25.2447 16.1077 25.218 16.0544C25.198 16.001 25.168 15.9577 25.128 15.9244C25.088 15.8844 25.038 15.8644 24.978 15.8644V15.7644H26.258V15.8644C26.2113 15.8644 26.168 15.8844 26.128 15.9244C26.0947 15.9577 26.0647 16.001 26.038 16.0544C26.0113 16.1077 25.9913 16.1677 25.978 16.2344C25.9647 16.2944 25.958 16.3477 25.958 16.3944V17.4244C26.2447 17.171 26.528 16.9277 26.808 16.6944C27.088 16.4544 27.3713 16.2077 27.658 15.9544C27.658 15.9477 27.6613 15.941 27.668 15.9344C27.6747 15.9277 27.678 15.921 27.678 15.9144C27.678 15.881 27.6613 15.8644 27.628 15.8644V15.7644H28.498V15.8644C28.4647 15.8644 28.4247 15.8744 28.378 15.8944C28.3313 15.9144 28.2847 15.9377 28.238 15.9644C28.1847 15.991 28.1313 16.0244 28.078 16.0644C27.778 16.3177 27.478 16.5777 27.178 16.8444C26.878 17.1044 26.578 17.361 26.278 17.6144C26.5647 17.6144 26.798 17.6677 26.978 17.7744C27.1647 17.881 27.3213 18.051 27.448 18.2844L27.938 19.1844ZM31.5497 15.6944C31.9097 15.6944 32.2197 15.7577 32.4797 15.8844C32.7464 16.0044 32.9664 16.1644 33.1397 16.3644C33.3197 16.5644 33.4531 16.7944 33.5397 17.0544C33.6264 17.3144 33.6697 17.581 33.6697 17.8544C33.6697 18.121 33.6264 18.3844 33.5397 18.6444C33.4597 18.9044 33.3331 19.1377 33.1597 19.3444C32.9931 19.551 32.7831 19.7177 32.5297 19.8444C32.2764 19.971 31.9764 20.0344 31.6297 20.0344C31.4231 20.0344 31.2097 19.981 30.9897 19.8744C30.7764 19.761 30.5831 19.621 30.4097 19.4544V21.5144C30.4097 21.5677 30.4164 21.6244 30.4297 21.6844C30.4431 21.751 30.4631 21.811 30.4897 21.8644C30.5231 21.9177 30.5564 21.9644 30.5897 22.0044C30.6297 22.0444 30.6764 22.0644 30.7297 22.0644V22.1644H29.4297V22.0644C29.4764 22.0644 29.5197 22.0444 29.5597 22.0044C29.5997 21.9644 29.6331 21.9177 29.6597 21.8644C29.6931 21.811 29.7164 21.751 29.7297 21.6844C29.7431 21.6244 29.7497 21.5677 29.7497 21.5144V16.3544C29.7497 16.2944 29.7464 16.2377 29.7397 16.1844C29.7397 16.1244 29.7297 16.0744 29.7097 16.0344C29.6897 15.9877 29.6564 15.951 29.6097 15.9244C29.5697 15.891 29.5097 15.871 29.4297 15.8644V15.7644H30.4097V16.2044C30.5431 16.0444 30.7031 15.921 30.8897 15.8344C31.0831 15.741 31.3031 15.6944 31.5497 15.6944ZM31.6397 19.6944C31.8731 19.6877 32.0764 19.6344 32.2497 19.5344C32.4231 19.4344 32.5664 19.3044 32.6797 19.1444C32.7931 18.9844 32.8764 18.8077 32.9297 18.6144C32.9831 18.4144 33.0097 18.2077 33.0097 17.9944C33.0097 17.7544 32.9764 17.5177 32.9097 17.2844C32.8431 17.051 32.7464 16.8444 32.6197 16.6644C32.4931 16.4777 32.3364 16.3277 32.1497 16.2144C31.9697 16.0944 31.7631 16.0344 31.5297 16.0344C31.3897 16.0344 31.2497 16.061 31.1097 16.1144C30.9764 16.1677 30.8564 16.2444 30.7497 16.3444C30.6497 16.4444 30.5664 16.5644 30.4997 16.7044C30.4397 16.8377 30.4097 16.9877 30.4097 17.1544V18.4644C30.4097 18.6444 30.4464 18.811 30.5197 18.9644C30.5931 19.111 30.6864 19.241 30.7997 19.3544C30.9197 19.461 31.0531 19.5444 31.1997 19.6044C31.3464 19.6644 31.4931 19.6944 31.6397 19.6944ZM38.7062 19.9644V19.8644C38.7529 19.8644 38.7962 19.8477 38.8362 19.8144C38.8762 19.7744 38.9095 19.7277 38.9362 19.6744C38.9695 19.6144 38.9929 19.5544 39.0062 19.4944C39.0195 19.4277 39.0262 19.3677 39.0262 19.3144V16.3844C39.0262 16.3377 39.0195 16.2844 39.0062 16.2244C38.9929 16.1644 38.9695 16.1077 38.9362 16.0544C38.9095 16.001 38.8762 15.9577 38.8362 15.9244C38.7962 15.8844 38.7529 15.8644 38.7062 15.8644V15.7644H40.0062V15.8644C39.9062 15.8644 39.8262 15.9277 39.7662 16.0544C39.7062 16.1744 39.6762 16.2844 39.6762 16.3844V19.3144C39.6762 19.3677 39.6829 19.4277 39.6962 19.4944C39.7095 19.5544 39.7295 19.611 39.7562 19.6644C39.7895 19.7177 39.8262 19.7644 39.8662 19.8044C39.9062 19.8444 39.9529 19.8644 40.0062 19.8644V19.9644H38.7062ZM36.3462 17.5844C36.9595 17.5844 37.4129 17.6977 37.7062 17.9244C38.0062 18.151 38.1562 18.431 38.1562 18.7644C38.1562 18.931 38.1162 19.0877 38.0362 19.2344C37.9629 19.381 37.8495 19.5077 37.6962 19.6144C37.5429 19.721 37.3495 19.8077 37.1162 19.8744C36.8829 19.9344 36.6062 19.9644 36.2862 19.9644H34.5862V19.8644C34.6329 19.8644 34.6762 19.8477 34.7162 19.8144C34.7562 19.7744 34.7895 19.7277 34.8162 19.6744C34.8495 19.6144 34.8729 19.5544 34.8862 19.4944C34.8995 19.4277 34.9062 19.3677 34.9062 19.3144V16.3844C34.9062 16.3377 34.8995 16.2844 34.8862 16.2244C34.8729 16.1644 34.8495 16.1077 34.8162 16.0544C34.7895 16.001 34.7562 15.9577 34.7162 15.9244C34.6762 15.8844 34.6329 15.8644 34.5862 15.8644V15.7644H35.8862V15.8644C35.7862 15.8644 35.7062 15.9277 35.6462 16.0544C35.5862 16.1744 35.5562 16.2844 35.5562 16.3844V17.5844H36.3462ZM36.2662 19.6344C36.7062 19.6344 37.0229 19.5644 37.2162 19.4244C37.4162 19.2777 37.5162 19.0977 37.5162 18.8844C37.5162 18.7644 37.4895 18.6477 37.4362 18.5344C37.3829 18.4144 37.2995 18.311 37.1862 18.2244C37.0795 18.131 36.9462 18.0577 36.7862 18.0044C36.6262 17.9444 36.4429 17.9144 36.2362 17.9144H35.5562V19.6344H36.2662ZM44.372 16.8144C44.372 16.741 44.3587 16.661 44.332 16.5744C44.3053 16.4877 44.2653 16.411 44.212 16.3444C44.1587 16.271 44.092 16.211 44.012 16.1644C43.932 16.1177 43.8387 16.0944 43.732 16.0944H42.852V19.3144C42.852 19.3677 42.8587 19.4244 42.872 19.4844C42.8853 19.5444 42.9053 19.6044 42.932 19.6644C42.9653 19.7177 42.9987 19.7644 43.032 19.8044C43.072 19.8444 43.1187 19.8644 43.172 19.8644V19.9644H41.872V19.8644C41.9253 19.8644 41.972 19.8444 42.012 19.8044C42.052 19.7644 42.0853 19.7177 42.112 19.6644C42.1453 19.611 42.1687 19.5544 42.182 19.4944C42.1953 19.4277 42.202 19.3677 42.202 19.3144V16.0944H41.342C41.2353 16.0944 41.142 16.1177 41.062 16.1644C40.982 16.211 40.9153 16.271 40.862 16.3444C40.8153 16.411 40.7787 16.4877 40.752 16.5744C40.7253 16.661 40.712 16.741 40.712 16.8144H40.612V15.7644H44.462V16.8144H44.372ZM46.795 17.5844C47.1016 17.5844 47.3683 17.6144 47.595 17.6744C47.8283 17.7344 48.0183 17.8177 48.165 17.9244C48.3183 18.031 48.4316 18.1577 48.505 18.3044C48.5783 18.4444 48.615 18.5977 48.615 18.7644C48.615 18.931 48.5783 19.0877 48.505 19.2344C48.4316 19.381 48.315 19.5077 48.155 19.6144C48.0016 19.721 47.8083 19.8077 47.575 19.8744C47.3416 19.9344 47.065 19.9644 46.745 19.9644H45.035V19.8644C45.0883 19.8644 45.135 19.8477 45.175 19.8144C45.215 19.7744 45.2483 19.7277 45.275 19.6744C45.3083 19.6144 45.3316 19.5544 45.345 19.4944C45.3583 19.4277 45.365 19.3677 45.365 19.3144V16.3844C45.365 16.3377 45.3583 16.2844 45.345 16.2244C45.3316 16.1644 45.3083 16.1077 45.275 16.0544C45.2483 16.001 45.215 15.9577 45.175 15.9244C45.135 15.8844 45.0883 15.8644 45.035 15.8644V15.7644H46.345V15.8644C46.245 15.8644 46.165 15.9277 46.105 16.0544C46.045 16.1744 46.015 16.2844 46.015 16.3844V17.5844H46.795ZM46.725 19.6344C47.165 19.6344 47.4816 19.5644 47.675 19.4244C47.875 19.2777 47.975 19.0977 47.975 18.8844C47.975 18.7644 47.9483 18.6477 47.895 18.5344C47.8416 18.4144 47.7583 18.311 47.645 18.2244C47.5383 18.131 47.405 18.0577 47.245 18.0044C47.085 17.9444 46.9016 17.9144 46.695 17.9144H46.015V19.6344H46.725ZM55.1157 19.1844C55.1557 19.2577 55.2091 19.3344 55.2757 19.4144C55.3424 19.4944 55.4157 19.5677 55.4957 19.6344C55.5824 19.701 55.6691 19.7577 55.7557 19.8044C55.8424 19.8444 55.9257 19.8644 56.0057 19.8644V19.9644H55.6257C55.3191 19.9644 55.0824 19.901 54.9157 19.7744C54.7491 19.6477 54.6191 19.4977 54.5257 19.3244L54.0557 18.4344C53.9824 18.2944 53.8591 18.1744 53.6857 18.0744C53.5124 17.9677 53.3291 17.9144 53.1357 17.9144V19.3344C53.1357 19.3877 53.1391 19.4444 53.1457 19.5044C53.1591 19.5644 53.1791 19.621 53.2057 19.6744C53.2324 19.7277 53.2657 19.7744 53.3057 19.8144C53.3457 19.8477 53.3924 19.8644 53.4457 19.8644V19.9644H52.1557V19.8644C52.2024 19.8644 52.2457 19.8477 52.2857 19.8144C52.3324 19.7744 52.3691 19.7277 52.3957 19.6744C52.4224 19.621 52.4424 19.5644 52.4557 19.5044C52.4691 19.4444 52.4757 19.3877 52.4757 19.3344V16.3944C52.4757 16.3477 52.4691 16.2944 52.4557 16.2344C52.4424 16.1677 52.4224 16.1077 52.3957 16.0544C52.3757 16.001 52.3457 15.9577 52.3057 15.9244C52.2657 15.8844 52.2157 15.8644 52.1557 15.8644V15.7644H53.4357V15.8644C53.3891 15.8644 53.3457 15.8844 53.3057 15.9244C53.2724 15.9577 53.2424 16.001 53.2157 16.0544C53.1891 16.1077 53.1691 16.1677 53.1557 16.2344C53.1424 16.2944 53.1357 16.3477 53.1357 16.3944V17.4244C53.4224 17.171 53.7057 16.9277 53.9857 16.6944C54.2657 16.4544 54.5491 16.2077 54.8357 15.9544C54.8357 15.9477 54.8391 15.941 54.8457 15.9344C54.8524 15.9277 54.8557 15.921 54.8557 15.9144C54.8557 15.881 54.8391 15.8644 54.8057 15.8644V15.7644H55.6757V15.8644C55.6424 15.8644 55.6024 15.8744 55.5557 15.8944C55.5091 15.9144 55.4624 15.9377 55.4157 15.9644C55.3624 15.991 55.3091 16.0244 55.2557 16.0644C54.9557 16.3177 54.6557 16.5777 54.3557 16.8444C54.0557 17.1044 53.7557 17.361 53.4557 17.6144C53.7424 17.6144 53.9757 17.6677 54.1557 17.7744C54.3424 17.881 54.4991 18.051 54.6257 18.2844L55.1157 19.1844ZM59.2375 19.9644V19.4544L59.1875 19.5044C59.0208 19.671 58.8275 19.801 58.6075 19.8944C58.3941 19.9877 58.1341 20.0344 57.8275 20.0344C57.5941 20.0344 57.3941 20.0077 57.2275 19.9544C57.0608 19.901 56.9241 19.8277 56.8175 19.7344C56.7108 19.6344 56.6308 19.521 56.5775 19.3944C56.5308 19.2677 56.5075 19.1344 56.5075 18.9944C56.5075 18.7677 56.5675 18.5677 56.6875 18.3944C56.8141 18.221 56.9941 18.0677 57.2275 17.9344C57.4608 17.801 57.7441 17.681 58.0775 17.5744C58.4175 17.461 58.8041 17.351 59.2375 17.2444C59.2241 16.9844 59.1708 16.7744 59.0775 16.6144C58.9841 16.4544 58.8741 16.331 58.7475 16.2444C58.6208 16.151 58.4875 16.091 58.3475 16.0644C58.2075 16.031 58.0875 16.0144 57.9875 16.0144C57.8141 16.0144 57.6608 16.041 57.5275 16.0944C57.3941 16.141 57.2775 16.2077 57.1775 16.2944C57.0775 16.3744 56.9941 16.4677 56.9275 16.5744C56.8675 16.681 56.8208 16.7877 56.7875 16.8944H56.6975V16.1144C56.7575 16.1144 56.8275 16.0944 56.9075 16.0544C56.9875 16.0077 57.0808 15.9577 57.1875 15.9044C57.3008 15.851 57.4341 15.8044 57.5875 15.7644C57.7475 15.7177 57.9375 15.6944 58.1575 15.6944C58.5241 15.6944 58.8208 15.741 59.0475 15.8344C59.2741 15.9277 59.4475 16.051 59.5675 16.2044C59.6941 16.3577 59.7775 16.5344 59.8175 16.7344C59.8575 16.9277 59.8775 17.1277 59.8775 17.3344V19.3144C59.8775 19.4477 59.9108 19.5744 59.9775 19.6944C60.0441 19.8077 60.1341 19.8644 60.2475 19.8644V19.9644H59.2375ZM59.2375 19.0144V17.5844L59.1375 17.6044C58.9775 17.6444 58.7808 17.6977 58.5475 17.7644C58.3208 17.831 58.1041 17.9177 57.8975 18.0244C57.6908 18.131 57.5141 18.2577 57.3675 18.4044C57.2208 18.551 57.1475 18.721 57.1475 18.9144C57.1475 19.1277 57.2341 19.3044 57.4075 19.4444C57.5808 19.5844 57.8075 19.6544 58.0875 19.6544C58.3075 19.6544 58.5008 19.6077 58.6675 19.5144C58.8341 19.4144 58.9875 19.2877 59.1275 19.1344L59.2375 19.0144ZM63.2978 15.6944C63.6578 15.6944 63.9678 15.7577 64.2278 15.8844C64.4944 16.0044 64.7144 16.1644 64.8878 16.3644C65.0678 16.5644 65.2011 16.7944 65.2878 17.0544C65.3744 17.3144 65.4178 17.581 65.4178 17.8544C65.4178 18.121 65.3744 18.3844 65.2878 18.6444C65.2078 18.9044 65.0811 19.1377 64.9078 19.3444C64.7411 19.551 64.5311 19.7177 64.2778 19.8444C64.0244 19.971 63.7244 20.0344 63.3778 20.0344C63.1711 20.0344 62.9578 19.981 62.7378 19.8744C62.5244 19.761 62.3311 19.621 62.1578 19.4544V21.5144C62.1578 21.5677 62.1644 21.6244 62.1778 21.6844C62.1911 21.751 62.2111 21.811 62.2378 21.8644C62.2711 21.9177 62.3044 21.9644 62.3378 22.0044C62.3778 22.0444 62.4244 22.0644 62.4778 22.0644V22.1644H61.1778V22.0644C61.2244 22.0644 61.2678 22.0444 61.3078 22.0044C61.3478 21.9644 61.3811 21.9177 61.4078 21.8644C61.4411 21.811 61.4644 21.751 61.4778 21.6844C61.4911 21.6244 61.4978 21.5677 61.4978 21.5144V16.3544C61.4978 16.2944 61.4944 16.2377 61.4878 16.1844C61.4878 16.1244 61.4778 16.0744 61.4578 16.0344C61.4378 15.9877 61.4044 15.951 61.3578 15.9244C61.3178 15.891 61.2578 15.871 61.1778 15.8644V15.7644H62.1578V16.2044C62.2911 16.0444 62.4511 15.921 62.6378 15.8344C62.8311 15.741 63.0511 15.6944 63.2978 15.6944ZM63.3878 19.6944C63.6211 19.6877 63.8244 19.6344 63.9978 19.5344C64.1711 19.4344 64.3144 19.3044 64.4278 19.1444C64.5411 18.9844 64.6244 18.8077 64.6778 18.6144C64.7311 18.4144 64.7578 18.2077 64.7578 17.9944C64.7578 17.7544 64.7244 17.5177 64.6578 17.2844C64.5911 17.051 64.4944 16.8444 64.3678 16.6644C64.2411 16.4777 64.0844 16.3277 63.8978 16.2144C63.7178 16.0944 63.5111 16.0344 63.2778 16.0344C63.1378 16.0344 62.9978 16.061 62.8578 16.1144C62.7244 16.1677 62.6044 16.2444 62.4978 16.3444C62.3978 16.4444 62.3144 16.5644 62.2478 16.7044C62.1878 16.8377 62.1578 16.9877 62.1578 17.1544V18.4644C62.1578 18.6444 62.1944 18.811 62.2678 18.9644C62.3411 19.111 62.4344 19.241 62.5478 19.3544C62.6678 19.461 62.8011 19.5444 62.9478 19.6044C63.0944 19.6644 63.2411 19.6944 63.3878 19.6944ZM69.5478 16.8144C69.5478 16.741 69.5344 16.661 69.5078 16.5744C69.4811 16.4877 69.4411 16.411 69.3878 16.3444C69.3344 16.271 69.2678 16.211 69.1878 16.1644C69.1078 16.1177 69.0144 16.0944 68.9078 16.0944H68.0278V19.3144C68.0278 19.3677 68.0344 19.4244 68.0478 19.4844C68.0611 19.5444 68.0811 19.6044 68.1078 19.6644C68.1411 19.7177 68.1744 19.7644 68.2078 19.8044C68.2478 19.8444 68.2944 19.8644 68.3478 19.8644V19.9644H67.0478V19.8644C67.1011 19.8644 67.1478 19.8444 67.1878 19.8044C67.2278 19.7644 67.2611 19.7177 67.2878 19.6644C67.3211 19.611 67.3444 19.5544 67.3578 19.4944C67.3711 19.4277 67.3778 19.3677 67.3778 19.3144V16.0944H66.5178C66.4111 16.0944 66.3178 16.1177 66.2378 16.1644C66.1578 16.211 66.0911 16.271 66.0378 16.3444C65.9911 16.411 65.9544 16.4877 65.9278 16.5744C65.9011 16.661 65.8878 16.741 65.8878 16.8144H65.7878V15.7644H69.6378V16.8144H69.5478ZM71.8107 21.3944C71.7174 21.6744 71.5974 21.8644 71.4507 21.9644C71.3107 22.0644 71.1641 22.1144 71.0107 22.1144C70.9107 22.1144 70.8207 22.0977 70.7407 22.0644C70.6607 22.031 70.5907 21.9944 70.5307 21.9544C70.4707 21.9144 70.4241 21.8777 70.3907 21.8444C70.3641 21.811 70.3507 21.7944 70.3507 21.7944L70.6807 20.9844C70.7074 21.091 70.7407 21.181 70.7807 21.2544C70.8141 21.321 70.8607 21.381 70.9207 21.4344C70.9807 21.4877 71.0541 21.5144 71.1407 21.5144C71.3007 21.5144 71.4274 21.3977 71.5207 21.1644L72.0007 19.9344L70.4007 16.2944C70.3474 16.181 70.2907 16.081 70.2307 15.9944C70.1774 15.9077 70.0841 15.8644 69.9507 15.8644V15.7644H71.2407V15.8644C71.2141 15.8644 71.1807 15.8877 71.1407 15.9344C71.1007 15.981 71.0807 16.041 71.0807 16.1144C71.0807 16.1677 71.0941 16.221 71.1207 16.2744L72.3507 19.1044L73.5307 16.2144C73.5507 16.1677 73.5607 16.1244 73.5607 16.0844C73.5607 16.0177 73.5374 15.9644 73.4907 15.9244C73.4507 15.8844 73.4074 15.8644 73.3607 15.8644V15.7644H74.3307V15.8644C74.2241 15.8644 74.1307 15.911 74.0507 16.0044C73.9774 16.091 73.9174 16.191 73.8707 16.3044L71.8107 21.3944Z" fill="#AB6E4D"></path><path d="M86.7981 14.4124C86.6586 14.0181 86.5481 13.6617 86.4666 13.3432C86.3936 13.0163 86.3495 12.7274 86.3345 12.4762L78.9667 19.743L78.4432 19.2122L85.811 11.9454C85.5518 11.9185 85.2593 11.8663 84.9335 11.7887C84.6161 11.7029 84.2654 11.5917 83.8814 11.4551L84.3238 11.0189C85.4612 11.1104 86.4659 11.0169 87.3381 10.7385L87.5625 10.9659C87.2637 11.8258 87.1563 12.8292 87.2404 13.9761L86.7981 14.4124Z" fill="#AB6E4D"></path></svg> 