<?xml version="1.0" encoding="UTF-8"?> <svg xmlns="http://www.w3.org/2000/svg" width="72" height="74" viewBox="0 0 72 74" fill="none"><g clip-path="url(#clip0_2557_60)"><path d="M32.3103 1.86391C22.3703 3.15849 13.3888 8.76834 8.0993 17.0393C5.8628 20.4915 4.2298 24.1954 3.3068 27.7196C2.2773 31.8191 2.1708 39.9102 3.1293 43.8659C4.7623 50.6624 7.6023 55.8408 12.3948 60.6595C15.5898 63.8959 17.2938 65.1546 20.9503 67.0245C29.2573 71.2679 38.5228 71.9871 47.3978 69.0383C57.1958 65.7659 65.2543 57.459 68.6978 47.1023C71.4668 38.8314 70.3308 27.0363 66.0708 19.3048C60.7813 9.70332 50.9478 3.05061 40.1913 1.86391C36.3928 1.43238 35.8248 1.43238 32.3103 1.86391ZM44.7353 4.34519C50.4153 5.78361 55.9888 9.09199 60.2133 13.5511C67.1713 20.923 70.3308 30.2728 69.0883 39.7664C67.4908 51.8491 59.7873 62.0619 48.8888 66.557C40.6173 69.9733 30.3223 69.6137 22.5123 65.658C11.0813 59.8324 4.1943 48.6127 4.3008 35.9905C4.3718 31.2797 5.0108 27.7555 6.5728 24.0516C11.1523 12.9398 20.4888 5.53189 32.3103 3.59002C35.0083 3.15849 41.5403 3.55406 44.7353 4.34519Z" fill="#253758" stroke="#253758" stroke-width="2"></path><path d="M21.0574 14.594C19.4599 15.493 19.2114 17.0393 19.4599 24.3033C19.6019 27.8634 19.9214 33.0418 20.2054 35.8107C21.0219 43.8299 22.1934 52.928 22.5839 54.7979C23.3294 58.0703 25.7789 58.8255 28.7964 56.7398C30.4649 55.589 39.7659 49.1521 48.6409 43.0028C50.9839 41.3846 53.9304 39.4427 55.1729 38.6876C56.4154 37.9324 58.1549 36.6378 59.0069 35.8107C60.2849 34.5881 60.5334 34.0846 60.5334 32.9698C60.5334 31.927 60.2849 31.3876 59.3974 30.5245C58.0839 29.3019 51.8359 26.1733 39.9434 20.8152C25.1754 14.1624 23.0454 13.4432 21.0574 14.594ZM29.3289 18.0462C31.7429 19.0171 39.3754 22.2895 46.2624 25.2743C57.1609 29.9851 58.8649 30.8482 59.3264 31.7472C59.6814 32.4664 59.7524 32.9698 59.5039 33.4373C58.9004 34.5161 56.8414 36.2063 54.2499 37.6447C51.9424 38.9393 31.6719 52.3166 28.0864 54.8698C27.1634 55.5531 26.1694 56.1285 25.8854 56.1285C24.8914 56.1285 24.2879 54.3664 23.7909 49.7994C23.5069 47.2462 23.1164 43.794 22.9034 42.1038C21.9449 34.0487 21.4834 28.6905 21.2704 23.4403C21.0574 18.2979 21.0929 17.5787 21.6254 16.7156C22.1934 15.8886 22.4419 15.7807 23.5779 15.9964C24.3234 16.1043 26.9149 17.0393 29.3289 18.0462Z" fill="#253758" stroke="#253758" stroke-width="2"></path></g><defs><clipPath id="clip0_2557_60"><rect width="71" height="73" fill="white" transform="translate(0.892578 0.389648)"></rect></clipPath></defs></svg> 