<?xml version="1.0" encoding="UTF-8"?> <svg xmlns="http://www.w3.org/2000/svg" width="219" height="128" viewBox="0 0 219 128" fill="none"><path d="M31.9024 58.1818C30.6873 58.0883 29.6592 57.8079 28.631 57.5275C27.8832 57.3405 27.042 57.2471 26.2942 56.9667L22.3685 55.3777C20.7795 54.7234 19.6579 53.8822 18.0689 52.7605C17.3211 52.1997 16.5734 51.6389 15.9191 51.0781L15.3582 51.9193L14.4235 53.2279C14.3301 53.4148 13.6758 54.1626 13.3019 54.6299L12.0868 55.845C10.9652 55.4711 10.0305 54.7234 9.28269 53.7887L9.46963 53.0409L9.93698 52.0128L10.9652 50.7042L12.928 47.9001L13.5823 46.8719L16.106 43.507L16.8538 42.4788C16.3864 42.1984 16.106 42.1984 15.7321 42.1049L12.7411 41.1702C12.1803 40.8898 11.6194 40.7029 11.1521 40.4225L9.09575 39.3943L7.22635 37.9923C5.8243 36.7771 4.32878 35.562 3.20714 33.973C1.80509 32.1036 1.1508 30.2342 0.589981 28.0844C0.403041 27.2432 0.403041 26.402 0.403041 25.5607C0.216101 24.9065 0.216101 24.2522 0.403041 23.6913C0.49651 22.1024 0.963861 20.6068 1.52468 19.0178C1.80509 18.457 2.0855 17.7093 2.45938 17.2419C2.92673 16.7746 2.83326 16.0268 3.58102 15.6529C3.48755 15.8399 3.48755 15.9333 3.48755 16.0268C3.48755 16.0268 3.48755 16.1203 3.58102 16.1203L3.86143 15.8399C4.60919 14.7182 5.45042 13.6901 6.47859 12.8488C7.22635 12.288 7.97411 11.5402 8.72187 10.9794C9.5631 10.2317 10.6847 9.76431 11.6194 9.11003C12.0868 8.82961 12.5541 8.45574 13.115 8.26879C13.7693 7.80145 14.517 7.6145 15.0778 7.33409L15.6387 6.96021L17.7885 6.02551L18.3493 5.7451V5.46469L14.517 7.05368C14.4235 6.96021 14.4235 6.96021 14.4235 6.86674C14.6105 6.77327 14.7974 6.77327 14.8909 6.6798L18.6297 5.09081C19.4709 4.62346 20.3122 4.24958 21.1534 3.8757C21.6207 3.68877 21.9946 3.78223 22.3685 3.50182H23.1163C24.7987 3.03447 25.453 2.75406 26.7616 2.56712C27.8832 2.38018 28.9114 2.19324 30.033 2.09977C31.2481 2.0063 32.7437 1.91283 33.9588 1.91283C35.7347 1.91283 37.4172 2.0063 39.0062 2.09977C40.0343 2.19324 41.6233 2.56712 42.558 2.75406L42.745 2.56712C43.0254 2.0063 43.3992 1.53895 43.7731 1.0716C44.147 0.697725 44.4274 0.697725 44.7078 1.0716L45.8295 1.72589C45.9229 1.81936 46.2033 1.91283 46.3903 1.91283C46.3903 1.72589 47.0446 2.09977 47.0446 2.19324C47.325 2.56712 47.5119 2.75406 47.6054 2.941C47.6054 3.22141 47.2315 4.15611 46.9511 4.52999C47.6989 4.99734 48.3532 5.27775 49.0074 5.7451C49.7552 6.11898 50.4095 6.58633 50.9703 7.05368C52.4658 8.36226 53.8679 9.76431 55.2699 11.1664C56.1112 12.0076 56.672 13.0358 57.2328 13.9705C57.8871 15.0921 58.6349 16.1203 59.1022 17.2419C59.7565 18.5505 60.0369 20.046 60.3173 21.4481L60.9716 24.4391C61.0651 24.9065 60.9716 25.0934 60.5977 25.4673C60.7847 25.4673 60.8781 25.4673 60.9716 25.5607C61.0651 25.5607 61.252 25.6542 61.252 25.7477C61.252 25.7477 61.0651 25.8412 61.0651 26.0281C60.9716 26.1216 60.8781 26.3085 60.8781 26.402C61.252 26.7759 61.0651 27.1497 61.252 27.4301C61.252 27.7106 61.252 27.8975 61.0651 28.1779C61.6259 29.2061 61.5324 30.2342 60.7847 31.2624C61.439 31.5428 61.5324 31.6363 61.252 32.2906C61.252 32.4775 61.252 32.571 61.0651 32.7579L60.7847 33.5057C60.9716 33.5992 61.0651 33.8796 60.6912 33.973C61.0651 34.4404 60.9716 34.6273 60.5977 34.8143C60.5043 34.8143 60.5043 35.0012 60.3173 35.0012C61.0651 35.4686 60.5043 35.749 60.5043 36.2163L60.1304 35.8424C60.1304 36.2163 60.1304 36.4033 60.0369 36.6837C59.9434 36.7771 59.85 36.9641 59.5696 36.9641C59.4761 36.9641 59.3826 36.7771 59.1957 36.6837L59.4761 36.4033C59.9434 36.2163 59.9434 35.749 59.5696 35.0947C59.7565 35.0947 59.85 35.0947 59.9434 35.0012C59.9434 34.7208 59.85 34.2535 59.85 33.8796L60.1304 34.0665C60.1304 33.973 60.2238 33.8796 60.1304 33.8796C60.0369 33.4122 60.1304 33.1318 60.2238 32.7579C60.5043 32.2906 60.5043 31.7298 60.5043 31.1689V30.2342C60.5043 30.1408 60.5043 30.0473 60.3173 29.7669H60.2238C59.9434 31.5428 59.7565 33.1318 59.4761 34.8143C59.4761 34.8143 57.6067 39.1139 57.4197 39.7682C57.4197 39.8617 55.9242 42.8527 55.083 43.9743L54.2418 45.096L53.5875 45.0025C53.9614 44.4417 54.4287 43.9743 54.6156 43.4135C54.2418 43.507 54.7091 42.9462 54.8961 43.0396C55.3634 42.4788 56.2046 40.8898 56.9524 39.3008L58.7283 34.9077L58.4479 35.1882C58.1675 35.562 57.6067 35.749 57.5132 36.2163C57.5132 36.3098 57.2328 36.3098 57.2328 36.3098C57.1393 36.3098 57.1393 36.3098 57.0459 36.2163C57.4197 35.8424 57.6067 35.4686 57.7936 35.0947C57.7936 35.0012 57.8871 35.0012 57.8871 35.0012C57.8871 34.3469 58.6349 33.973 58.4479 33.2253C58.3544 32.6645 58.6349 32.1036 58.7283 31.5428C58.9153 31.4494 58.7283 31.1689 58.7283 31.0755C59.1022 30.1408 59.2891 29.1126 59.4761 28.0844C59.4761 27.8975 59.4761 27.7106 59.5696 27.4301H59.3826L59.1022 28.4583C58.9153 29.1126 58.6349 29.6734 58.5414 30.3277C58.3544 31.1689 58.261 32.1036 57.9806 33.0383C57.8871 33.5992 57.8871 34.2535 57.4197 34.8143C57.2328 34.9077 57.4197 35.0947 57.2328 35.1882C57.1393 35.4686 57.1393 35.749 57.0459 35.749C56.5785 35.9359 56.5785 36.4967 56.2981 36.7771C56.5785 37.0576 56.9524 37.151 56.672 37.4314C56.3916 37.5249 56.2046 37.8053 55.9242 37.8988C56.2046 37.8053 56.7655 37.7118 56.9524 37.5249C56.8589 38.0857 56.7655 38.6465 56.5785 39.0204C56.2981 39.5812 56.0177 40.0486 55.8308 40.5159C55.5503 40.8898 54.8961 41.0768 54.6156 41.3572C54.6156 41.3572 54.6156 41.2637 54.5222 41.2637C54.7091 40.8898 54.8961 40.4225 55.1765 40.1421C55.1765 40.0486 55.083 40.0486 55.083 40.0486C54.8026 40.6094 54.3352 40.9833 54.3352 41.7311C54.3352 41.8245 54.2418 42.0115 54.0548 42.1049C53.494 42.1984 53.2136 42.8527 52.9332 43.32L51.6246 44.909C51.5311 44.909 51.5311 44.8156 51.5311 44.8156C51.5311 44.7221 51.6246 44.4417 51.7181 44.3482C52.2789 43.6005 52.9332 42.8527 53.3071 42.0115C54.2418 40.5159 55.083 39.0204 55.6438 37.4314C56.2046 36.4967 56.3916 35.4686 56.7655 34.4404C57.0459 33.5057 57.2328 32.571 57.5132 31.6363C57.6067 30.982 57.6067 30.2342 57.7002 29.4865C57.7002 29.1126 57.7936 28.6453 57.8871 28.1779C57.8871 27.8975 57.7002 27.7106 57.7002 27.4301C57.6067 26.7759 57.7002 26.0281 57.6067 25.2803C57.6067 24.4391 57.7002 23.4109 57.4197 22.5697C57.1393 21.8219 57.4197 20.9807 56.8589 20.233C56.5785 19.5787 56.3916 18.7374 56.2046 17.9897L55.9242 17.2419V16.9615H56.0177L56.3916 17.5223C56.3916 17.055 56.2981 16.868 55.9242 16.7746C55.6438 16.6811 55.3634 16.2137 55.1765 15.9333L53.2136 12.7554C52.9332 12.1945 52.4658 11.6337 52.1854 11.2598L51.6246 10.699C50.5964 9.76431 49.6617 8.82961 48.6336 7.80145C48.5401 7.80145 48.5401 7.70797 48.4466 7.6145C49.1009 7.70797 49.3813 8.17532 49.7552 8.45574C50.316 8.92308 50.7834 9.20349 51.2507 9.67084C51.2507 9.4839 51.3442 9.29697 51.2507 9.20349L49.5683 7.80145C49.1944 7.6145 48.914 7.42756 48.6336 7.14716C48.0727 6.49287 47.0446 6.21245 46.2968 5.7451H46.0164C46.2968 5.93204 46.5772 6.11898 46.7642 6.30592V6.49287C46.4838 6.30592 46.1099 6.11898 45.736 6.02551C45.2686 6.58633 44.9882 7.14716 44.5209 7.80145C43.9601 8.5492 43.4927 9.39043 42.8384 10.2317C42.2776 11.2598 41.6233 12.1945 41.0625 13.1292C40.7821 13.5966 40.5017 13.877 40.2213 14.1574L40.0343 14.6248C39.6604 15.3725 39.2866 16.3072 38.8192 16.9615C38.1649 17.5223 37.978 18.3636 37.5106 19.0178L35.6412 21.9154C34.9869 23.1305 34.2392 24.2522 33.5849 25.3738C33.398 25.7477 33.3045 26.1216 32.7437 26.215V26.5889C32.4633 27.0563 32.0894 27.4301 31.9024 27.991C31.7155 28.5518 31.2481 28.9257 30.9677 29.393C30.5939 29.6734 30.5004 30.0473 30.22 30.3277C30.033 30.7951 29.6592 31.0755 29.4722 31.5428C29.0983 31.8232 28.8179 32.2906 28.631 32.6645L27.4159 34.6273C27.1355 35.0947 26.6681 35.562 26.2942 35.9359C26.0138 36.4033 25.9204 36.6837 25.7334 37.0576L24.7987 37.9923C24.7052 38.1792 24.7052 38.3661 24.6118 38.6465C24.051 39.3943 23.4901 40.1421 23.1163 40.9833C23.0228 40.9833 23.0228 41.0768 22.8358 41.1702C25.453 41.0768 27.8832 40.9833 30.3134 40.7029C30.3134 40.8898 30.3134 40.8898 30.4069 40.9833C30.1265 40.9833 29.7526 40.9833 29.4722 41.0768C29.0983 41.0768 28.8179 41.1702 28.5375 41.1702L28.631 41.2637C29.4722 41.1702 30.3134 41.1702 31.3416 41.0768C31.1547 40.9833 31.0612 40.8898 30.9677 40.8898V40.7029L33.5849 40.329C33.5849 40.4225 33.5849 40.4225 33.6784 40.5159C32.9306 40.6094 32.3698 40.7029 31.7155 40.9833V41.0768L33.7718 40.7029L36.0151 40.4225C36.6694 40.329 37.3237 40.329 38.0715 40.2355C38.4453 40.2355 38.8192 39.8617 39.2866 39.7682C39.6604 39.6747 40.0343 39.6747 40.5017 39.5812C40.5951 39.5812 40.7821 39.7682 40.969 39.7682V40.0486L38.9127 40.329C38.8192 40.329 38.6323 40.329 38.4453 40.4225C38.1649 40.9833 37.6041 40.8898 37.2302 40.9833L34.4261 41.6376C32.6502 41.8245 30.8743 42.1984 28.9114 42.1984C27.7898 42.1984 26.5746 42.7592 25.453 42.6658C25.0791 42.5723 24.8922 42.5723 24.6118 42.5723C24.7052 42.4788 24.7987 42.3853 24.8922 42.3853L24.7987 42.1984C23.9575 42.7592 22.8358 42.3853 21.9011 42.6658L21.7142 43.0396C21.4338 43.507 21.2469 43.6005 20.873 44.1613C20.4056 44.5352 20.1252 45.096 19.7513 45.5633C19.3775 46.4046 18.9101 46.9654 18.3493 47.8066L17.0407 49.5825C17.6015 50.2368 18.3493 51.0781 19.284 51.7323C20.3122 52.4801 21.8077 53.3213 22.7424 53.7887C23.7705 54.256 24.8922 54.6299 25.8269 54.9103C27.5093 55.3777 28.631 55.4711 30.3134 55.3777L33.4914 55.0038C34.3327 54.9103 35.1739 54.9103 36.0151 54.6299C37.0433 54.443 37.8845 54.1626 38.8192 53.8822C39.0996 53.7887 39.567 53.8822 39.9409 53.8822V53.5083C40.4082 53.5083 40.6886 53.4148 41.0625 53.3213V53.5083L40.3147 53.7887V53.8822L41.5298 53.6017C41.4364 53.5083 41.3429 53.4148 41.3429 53.3213V53.0409C41.9037 53.6952 42.1841 53.1344 42.6515 52.9475C42.9319 52.7605 43.3992 52.667 43.7731 52.3866V52.1997C43.3058 52.3866 42.8384 52.667 42.2776 52.7605C42.1841 52.854 41.9972 52.854 41.9037 52.854L42.1841 52.3866C42.9319 51.9193 43.6797 51.3585 44.5209 50.7976L46.0164 49.8629H46.2033C46.6707 50.2368 46.8576 49.8629 47.2315 49.676C47.4185 49.4891 47.6989 49.4891 47.9793 49.3956C48.1662 49.2087 48.3532 49.1152 48.3532 48.9282C48.3532 48.6478 48.5401 48.3674 48.8205 48.274C49.0074 48.087 49.1009 47.7131 49.3813 47.5262C49.5683 47.4327 49.7552 47.4327 49.9421 47.4327C49.8487 47.5262 49.7552 47.6197 49.6617 47.9001C50.0356 47.9001 50.1291 47.7131 50.4095 47.1523C50.1291 47.1523 49.9421 47.1523 49.7552 47.0588L50.316 46.498C50.503 46.5915 50.5964 46.685 50.6899 46.8719C50.6899 46.7784 50.7834 46.7784 50.7834 46.7784C50.7834 46.685 50.6899 46.685 50.5964 46.498C51.2507 46.685 51.5311 46.4046 51.7181 45.9372C51.9985 45.6568 52.2789 45.3764 52.6528 45.1894C52.6528 45.2829 52.7462 45.2829 52.7462 45.2829L51.7181 46.5915V46.7784C52.092 46.685 52.3724 46.685 52.6528 46.5915C52.6528 47.6197 51.7181 48.4609 50.8768 48.087L52.092 47.2458C51.5311 46.7784 51.4377 46.7784 51.2507 47.2458C51.2507 47.3393 51.1573 47.4327 51.1573 47.4327C50.8768 47.5262 50.5964 47.6197 50.6899 47.9935C50.7834 48.087 50.503 48.274 50.4095 48.3674C50.5964 48.4609 50.7834 48.4609 51.2507 48.6478C50.5964 49.0217 50.1291 49.4891 49.7552 49.7695C49.7552 49.8629 49.7552 49.8629 49.8487 49.8629C50.5964 49.676 51.2507 48.9282 51.905 48.3674C52.4658 47.9935 52.9332 47.2458 53.5875 46.685C53.494 46.7784 53.494 46.8719 53.3071 47.1523L54.2418 46.4046C54.3352 46.3111 54.2418 46.0307 54.2418 45.8437C54.3352 45.8437 54.5222 45.7503 54.5222 45.7503C54.5222 45.5633 54.5222 45.2829 54.6156 45.096C54.7091 44.909 54.8961 44.5352 55.2699 44.8156C55.4569 44.4417 55.6438 44.0678 55.9242 43.7874C56.5785 43.4135 56.5785 42.6658 57.0459 42.1049C57.1393 42.0115 57.4197 42.0115 57.5132 41.918C57.5132 41.918 57.5132 42.0115 57.6067 42.0115L56.7655 43.6005C56.7655 43.6005 56.7655 43.6939 56.8589 43.6939C57.0459 43.32 57.4197 42.9462 57.6067 42.6658C57.6067 42.8527 57.5132 43.2266 57.5132 43.507H57.2328L57.6067 43.6939L57.0459 43.9743C57.6067 44.5352 56.7655 44.8156 56.5785 45.1894L56.2046 44.8156C56.2981 44.4417 56.5785 44.3482 56.9524 44.5352C56.8589 44.3482 56.7655 44.1613 56.5785 43.9743L53.0267 48.274C53.1201 48.3674 53.3071 48.4609 53.5875 48.7413L54.0548 48.1805C54.2418 48.1805 54.2418 48.1805 54.3352 48.274C54.0548 48.4609 53.8679 48.7413 53.6809 49.0217L53.494 48.8348C53.1201 49.0217 52.8397 49.2087 52.4658 49.5825C52.2789 49.7695 52.092 49.8629 51.7181 50.0499V49.9564L53.0267 48.6478C53.0267 48.4609 52.9332 48.4609 52.9332 48.3674C52.4658 48.7413 52.092 49.0217 51.6246 49.4891H51.7181C51.5311 49.5825 51.3442 49.5825 51.2507 49.676C50.7834 49.9564 50.503 50.3303 50.0356 50.5172C49.3813 50.9846 48.6336 51.265 48.0727 51.4519C47.5119 51.8258 46.8576 52.0128 46.2968 52.1997C46.0164 52.3866 45.8295 52.667 45.6425 52.854C45.3621 52.9475 45.1752 53.3213 44.8948 53.0409C44.8948 52.9475 44.6144 53.1344 44.5209 53.1344V53.4148C44.9882 53.3213 45.3621 53.4148 45.736 53.1344C46.5772 52.854 47.325 52.3866 48.1662 52.0128C48.2597 52.0128 48.2597 51.9193 48.3532 51.9193C49.1944 52.0128 49.6617 51.4519 50.1291 50.9846C50.503 50.6107 50.9703 50.4238 51.5311 50.2368C51.4377 50.3303 51.4377 50.4238 51.4377 50.6107C51.7181 50.3303 52.1854 50.0499 52.4658 49.8629C52.4658 49.9564 52.4658 49.9564 52.6528 50.0499C52.092 50.2368 51.905 50.9846 51.1573 50.7042C50.6899 50.6107 50.503 51.1715 50.4095 51.4519C49.9421 52.1062 49.5683 52.667 48.8205 52.9475L46.2033 53.6017L44.8948 54.256C44.2405 54.5364 43.6797 54.6299 42.9319 54.6299C42.8384 54.5364 42.745 54.6299 42.6515 54.7234H43.1188L43.3058 54.9103C42.0907 55.0973 41.0625 55.6581 39.8474 55.6581C39.2866 55.6581 38.9127 55.9385 38.3519 56.2189C40.0343 56.1254 41.8103 56.2189 43.4927 55.7516V55.845C42.745 56.1254 41.9972 56.3124 41.156 56.6863C40.7821 56.6863 40.3147 56.5928 39.7539 56.4993C39.8474 56.8732 39.2866 57.0601 38.3519 56.9667L39.2866 56.6863C39.1931 56.6863 39.1931 56.5928 39.1931 56.5928L37.978 56.9667C37.1368 56.9667 36.1086 56.9667 35.1739 56.8732C35.6412 57.5275 36.389 57.2471 36.7629 57.434C36.0151 57.5275 35.1739 57.8079 34.3327 57.621C33.9588 57.5275 33.398 57.621 32.8371 57.621H31.7155L31.622 57.7144L32.6502 58.0883V58.1818H31.9024ZM17.3211 40.6094C17.7885 40.7029 18.0689 40.7029 18.3493 40.4225C19.1905 39.1139 20.0317 37.9923 20.873 36.7771C21.5273 35.9359 21.9946 35.0012 22.6489 34.16C22.7424 33.973 23.1163 33.7861 23.2097 33.7861C24.051 33.7861 24.051 33.7861 24.4248 33.1318C24.3314 33.2253 24.1444 33.3188 23.9575 33.5057C23.9575 33.4122 23.9575 33.4122 23.864 33.4122C24.051 33.1318 24.1444 32.8514 24.2379 32.571C23.9575 32.8514 23.5836 33.2253 23.3967 33.5057C23.3032 33.5057 23.3032 33.4122 23.3032 33.4122C26.7616 27.8975 30.4069 22.2893 34.0522 16.7746C34.0522 16.7746 34.1457 16.7746 34.1457 16.868C34.0522 17.055 33.9588 17.4289 33.6784 17.7093C34.0522 17.6158 34.1457 17.6158 34.2392 17.6158V16.9615C34.3327 16.868 34.4261 16.6811 34.3327 16.6811C34.0522 16.2137 34.3327 15.9333 34.4261 15.6529L38.3519 9.29697C38.6323 8.92308 38.9127 8.5492 39.1931 8.08185C39.2866 8.26879 39.2866 8.36226 39.2866 8.45574L40.5017 6.86674C40.3147 6.77327 40.2213 6.6798 39.9409 6.6798C40.6886 6.02551 40.5951 4.99734 41.6233 4.62346C38.6323 4.06264 36.8563 3.8757 33.1175 4.34306C31.3416 4.52999 30.22 4.90387 28.9114 5.09081C27.5093 5.37122 26.3877 5.93204 25.2661 6.30592C24.7987 6.49287 24.4248 6.39939 23.9575 6.58633L23.2097 6.96021C22.8358 7.14716 22.6489 7.33409 22.275 7.42756C21.7142 7.70797 21.1534 7.80145 20.686 7.98838C19.7513 8.5492 18.7232 8.82961 18.0689 9.67084C18.0689 9.76431 17.7885 9.76431 17.6015 9.76431C17.3211 9.85778 17.1342 9.95126 17.0407 10.0447L16.3864 10.5121C15.0778 11.2598 13.7693 11.6337 12.4607 12.7554C11.526 13.5031 10.3109 14.0639 9.46963 15.0921C9.37616 15.1856 9.18922 15.1856 9.00228 15.279C9.18922 14.9052 9.28269 14.7182 9.46963 14.5313L9.37616 14.4378C9.00228 14.7182 8.53493 15.1856 8.25452 15.466H8.81534L7.78717 16.7746C7.22635 17.4289 6.66553 17.8962 6.19818 18.5505C5.63736 19.3917 5.35695 20.3264 4.8896 21.1677L4.42225 21.8219L4.04837 21.3546C3.9549 21.5415 3.86143 21.635 3.67449 21.8219C4.51572 22.1024 4.51572 22.3828 4.04837 23.0371C3.9549 23.224 3.86143 23.5044 3.9549 23.8783C3.9549 24.2522 3.76796 24.626 3.30061 24.5326H3.0202C3.0202 24.5326 3.0202 24.626 2.92673 24.626C3.20714 24.7195 3.58102 24.813 3.9549 24.9999L3.20714 25.3738C3.48755 25.5607 3.67449 25.7477 3.76796 26.0281C3.76796 26.3085 3.76796 26.5889 3.67449 27.0563C3.67449 27.3367 3.58102 27.804 3.58102 28.1779C3.20714 27.991 3.11367 27.804 2.92673 27.6171C3.0202 28.0844 3.0202 28.4583 3.11367 28.8322L3.20714 28.9257C3.20714 28.3648 3.58102 28.3648 4.04837 28.4583C3.76796 28.8322 3.58102 29.2995 3.48755 29.6734H3.58102L4.32878 30.0473L3.67449 30.3277C4.51572 30.4212 4.51572 30.4212 4.60919 31.4494V31.5428C5.07654 32.0102 4.60919 32.0102 4.14184 32.1036C4.60919 32.3841 5.07654 32.571 4.79613 33.0383L5.54389 33.2253C5.54389 33.5992 5.91777 33.8796 6.01124 34.0665C6.19818 34.3469 6.29165 34.7208 6.38512 35.0012C6.759 35.1882 7.03941 35.4686 7.22635 35.6555C7.60023 35.9359 7.88064 36.4967 8.34799 36.7771C8.81534 37.338 9.46963 37.7118 10.0305 38.0857L11.526 38.8335C12.7411 39.3943 13.8627 39.6747 14.9844 40.0486C15.8256 40.2355 16.5734 40.329 17.3211 40.6094ZM17.3211 5.37122C17.3211 5.27775 17.2276 5.27775 17.2276 5.18428C17.8819 4.99734 18.4428 4.62346 18.9101 4.43652C19.097 4.43652 19.097 4.43652 19.097 4.52999C18.5362 4.71693 17.8819 5.09081 17.3211 5.37122ZM48.2597 7.52103L46.9511 6.6798C46.9511 6.58633 46.9511 6.58633 47.0446 6.49287L48.3532 7.33409C48.3532 7.42756 48.2597 7.42756 48.2597 7.52103ZM12.3672 8.08185C12.2737 8.08185 12.2737 7.89491 12.2737 7.89491L13.6758 7.33409C13.6758 7.33409 13.7693 7.33409 13.7693 7.42756L12.3672 8.08185ZM7.41329 11.5402C7.22635 11.5402 7.22635 11.4468 7.13288 11.4468C7.6937 11.1664 8.06758 10.7925 8.53493 10.4186L8.72187 10.6055C8.25452 10.886 7.78717 11.2598 7.41329 11.5402ZM5.07654 13.877C5.07654 13.7835 4.8896 13.7835 4.8896 13.7835C5.26348 13.3162 5.63736 12.9423 6.01124 12.5684C6.10471 12.5684 6.10471 12.5684 6.10471 12.7554C5.8243 13.0358 5.35695 13.5031 5.07654 13.877ZM57.6067 42.6658L57.9806 41.6376C57.7936 41.6376 57.7002 41.7311 57.5132 41.8245C57.5132 41.7311 57.4197 41.7311 57.4197 41.7311C57.5132 41.3572 57.7002 41.1702 57.7936 40.8898C57.8871 40.6094 57.8871 40.329 57.8871 40.0486C57.8871 39.5812 57.9806 39.3008 58.4479 39.0204C58.7283 38.927 58.9153 38.74 58.5414 38.3661C58.7283 38.3661 58.9153 38.2727 59.0087 38.1792V37.151C59.3826 37.2445 59.7565 37.2445 60.0369 37.2445C60.0369 37.0576 60.2238 36.7771 60.3173 36.4033C60.3173 37.338 59.9434 38.0857 59.4761 37.9923V38.0857C60.0369 38.74 59.3826 39.3943 59.1957 39.8617C59.0087 40.7029 58.4479 41.4506 57.9806 42.1984C57.8871 42.3853 57.7002 42.4788 57.6067 42.6658ZM40.2213 38.6465L41.2494 38.2727C41.0625 38.8335 40.5951 38.927 40.2213 38.6465ZM41.9037 39.4878V39.3943C42.2776 39.3008 42.745 39.0204 43.3058 38.927V39.1139L41.9037 39.4878ZM35.3608 40.2355C35.2674 40.1421 35.2674 40.1421 35.2674 40.0486L37.6976 39.6747V39.7682C36.8563 40.0486 36.1086 40.1421 35.3608 40.2355ZM52.6528 45.096L52.4658 45.0025C52.9332 44.4417 53.494 42.8527 53.8679 43.0396C54.3352 42.5723 54.6156 41.918 54.8026 41.3572L55.3634 41.1702C54.8961 42.0115 54.3352 42.8527 52.6528 45.096ZM50.316 46.0307L51.2507 45.096C50.7834 46.1241 50.7834 46.1241 50.316 46.0307ZM53.0267 46.3111C52.9332 46.3111 52.8397 46.1241 52.8397 46.0307L53.494 45.3764C53.5875 45.8437 53.494 46.1241 53.0267 46.3111ZM55.3634 46.0307C55.4569 45.7503 55.6438 45.5633 55.8308 45.3764L56.2046 45.7503C56.2046 45.8437 56.2046 45.8437 55.3634 46.0307ZM44.3339 55.6581C44.3339 55.6581 44.3339 55.4711 44.2405 55.4711C44.6144 55.2842 44.9882 55.0973 45.3621 55.0038C45.3621 55.0973 45.4556 55.0973 45.4556 55.1907C45.0817 55.2842 44.7078 55.4711 44.3339 55.6581ZM92.7405 31.7298L92.8339 31.8232V32.6645C92.5535 32.8514 92.46 32.9449 91.9927 33.0383L92.647 33.3188C91.7123 33.7861 90.9645 34.3469 90.4037 34.7208C90.0298 35.0012 90.0298 35.3751 89.6559 35.3751H89.0017C88.9082 35.3751 88.8147 35.3751 88.8147 35.4686C88.7212 36.0294 87.9735 36.0294 87.5061 36.2163L86.1976 36.7771C85.1694 37.2445 84.4216 37.338 83.4869 37.4314C83.2065 37.4314 83.0196 37.5249 82.8326 37.5249C82.3653 37.5249 82.2718 37.7118 82.2718 38.0857C82.1783 38.3661 81.9914 38.6465 81.9914 39.0204L82.1783 39.1139V39.2074C81.711 39.6747 81.711 40.2355 81.1502 40.6094C81.0567 40.7029 81.1502 41.0768 81.0567 41.1702C80.3089 42.0115 79.8416 42.9462 79.0004 43.8809L78.8134 44.0678C78.3461 44.5352 77.7853 45.0025 77.4114 45.4699C77.131 45.6568 76.7571 45.8437 76.3832 45.8437C75.6354 46.3111 74.9812 46.498 74.1399 46.7784C73.766 46.8719 73.3922 46.8719 73.2052 46.7784C72.2705 46.685 71.1489 46.685 70.4011 46.3111C69.2795 46.1241 68.5317 45.4699 67.8774 44.6286C66.8493 43.6005 66.7558 41.8245 66.6623 40.329C66.5689 38.5531 67.4101 36.7771 67.8774 35.0947C68.0644 34.5339 68.2513 33.3188 68.3448 33.3188C68.9991 32.3841 69.373 31.2624 69.9338 30.7016C70.775 29.8604 71.7097 29.1126 72.8313 28.5518C73.6726 28.1779 74.6073 28.2714 75.355 28.2714C75.8224 28.2714 76.0093 28.7387 76.3832 29.1126C76.4767 29.2061 76.6636 29.2061 76.8506 29.2995C77.7853 29.6734 79.0938 29.6734 80.2155 30.6081C80.3089 30.7016 80.6828 30.7016 80.8698 30.7951C81.4306 31.2624 81.8979 31.8232 82.5522 32.1971C82.5522 32.3841 82.2718 32.1971 82.1783 32.1971C81.9914 32.1971 81.8979 32.1971 81.6175 32.2906C81.6175 32.3841 81.8045 32.6645 81.8045 32.6645C82.5522 32.6645 82.4588 33.2253 82.6457 33.5992C82.4588 33.5992 82.3653 33.6926 82.1783 33.7861C82.3653 33.8796 82.4588 33.973 82.6457 34.3469H82.3653C82.5522 34.4404 82.6457 34.7208 82.9261 34.8143C82.9261 34.9077 82.8326 35.0012 82.9261 35.0947C84.6086 34.4404 86.291 33.973 87.88 33.4122C89.2821 32.8514 90.4037 32.571 92.7405 31.7298ZM79.4677 35.4686C79.3742 35.0012 79.4677 34.4404 79.4677 33.8796C79.2808 33.1318 79.1873 32.1971 78.72 31.4494C78.533 31.1689 78.3461 31.1689 78.0657 31.2624C77.5048 31.2624 77.0375 31.4494 76.7571 31.7298C76.1963 32.1971 75.542 32.571 75.4485 33.4122C75.4485 33.8796 75.542 34.4404 75.8224 34.9077C76.0093 35.3751 76.2897 35.4686 76.8506 35.4686H79.4677ZM80.0285 35.4686C80.3089 35.3751 80.4959 35.3751 80.6828 35.3751C80.5894 35.0012 80.7763 34.5339 80.5894 34.16C80.4959 33.4122 80.4959 33.4122 79.9351 33.3188C79.9351 33.973 80.0285 34.7208 80.0285 35.4686ZM78.6265 38.2727C79.0004 37.8053 78.8134 37.7118 78.3461 37.5249C77.8787 37.5249 77.131 37.4314 76.6636 37.2445C75.7289 37.0576 74.7007 36.5902 73.953 36.0294C73.2987 35.6555 72.8313 35.1882 72.6444 34.6273C72.4575 34.3469 72.2705 33.973 72.1771 33.5992C71.7097 34.7208 71.2424 35.4686 70.775 36.4033C70.4946 36.7771 70.3077 37.338 70.2142 37.7118C70.0272 38.2727 70.0272 38.74 69.9338 39.2074C69.5599 40.1421 69.5599 41.2637 69.5599 42.1984C69.5599 42.8527 69.7468 43.32 69.8403 43.8809C69.9338 44.6286 71.0554 45.0025 72.2705 44.5352C73.6726 44.1613 74.9812 43.2266 76.0093 42.1984C76.5701 41.6376 77.131 40.9833 77.5983 40.2355C77.9722 39.6747 78.1591 38.927 78.6265 38.2727ZM109.902 35.562C109.902 36.5902 110.183 37.8988 109.715 38.8335C109.529 39.8617 108.687 40.9833 108.313 41.918C107.659 42.7592 106.911 43.507 106.351 44.4417L104.388 46.1241C103.64 46.5915 103.079 46.7784 102.331 47.1523C102.144 47.1523 101.864 47.2458 101.771 47.1523C101.303 47.0588 100.742 46.7784 100.182 46.5915C99.8077 46.4046 99.5272 46.3111 99.4338 45.7503L99.2468 45.6568C98.4991 45.2829 98.2187 44.4417 98.1252 43.507C97.9383 43.2266 98.3121 42.9462 98.3121 42.4788C98.873 42.4788 98.873 42.9462 98.9664 43.32C98.9664 44.0678 99.5272 44.2547 99.9011 44.1613C100.836 43.9743 101.397 43.32 101.864 42.7592C102.518 42.1049 103.36 41.4506 103.827 40.6094C104.388 39.8617 104.855 39.2074 105.416 38.2727V37.8988C105.509 37.5249 105.79 37.2445 105.79 37.0576C106.07 36.2163 106.444 35.562 106.257 34.7208C106.257 34.16 105.977 33.5057 105.79 33.0383C105.416 32.571 104.294 32.6645 103.827 33.0383C102.986 33.4122 102.425 33.5992 101.864 34.0665H101.677C101.397 34.3469 101.116 34.7208 100.742 34.9077C100.275 35.4686 99.8077 35.749 99.2468 36.1229C98.4056 36.8706 97.4709 37.338 96.9101 38.3661C96.1623 39.5812 95.2276 40.7029 94.2929 41.6376C93.8256 42.1049 92.7974 44.2547 92.517 45.0025H91.9562C92.1431 45.096 92.1431 45.2829 92.1431 45.3764C91.8627 45.7503 91.4888 46.3111 91.2084 46.5915C91.0215 46.5915 91.0215 46.9654 90.928 47.1523C91.2084 47.1523 91.3019 47.1523 91.4888 47.0588C91.0215 47.6197 91.1149 48.5544 90.1802 48.5544H90.2737C90.3672 48.6478 90.4607 48.6478 90.4607 48.6478C90.2737 49.3021 90.1802 49.7695 89.9933 50.3303C89.9933 50.4238 89.7129 50.4238 89.6194 50.5172C89.9933 50.7042 89.8064 51.0781 89.6194 51.5454C89.526 51.8258 89.8064 52.2932 89.1521 52.3866C89.4325 53.6952 88.8717 55.1907 88.2174 55.4711C88.4043 55.5646 88.4978 55.5646 88.5913 55.6581C88.4978 55.6581 88.4043 55.7516 88.2174 55.7516C88.4043 55.845 88.4043 55.845 88.4978 55.845C88.4043 56.4058 88.4978 56.8732 88.4043 57.3405C88.2174 58.2752 87.937 59.2099 87.6566 59.7708C87.4696 60.5185 87.3761 61.0793 87.1892 61.6402C87.1892 61.7336 87.1892 61.9206 87.2827 62.014C87.0023 62.2945 86.7219 62.4814 86.2545 62.6683C86.6284 62.8553 86.7219 63.1357 86.8153 63.4161C86.7219 63.6965 86.7219 63.8834 86.6284 64.4443C86.6284 64.4443 86.348 64.5377 86.0676 64.5377L86.6284 64.8181C86.2545 65.0986 86.0676 65.192 85.8806 65.4724L86.0676 65.6594C86.0676 65.6594 86.2545 65.7528 86.4414 65.7528C85.7872 66.8745 85.6937 68.0896 85.6002 69.3982C85.6002 69.5851 85.4133 69.7721 85.4133 69.8655C85.2263 70.6133 85.2263 70.9872 85.1329 71.548C85.1329 71.8284 85.0394 71.9219 84.8525 72.2957C85.1329 72.5762 85.0394 73.7913 84.2916 74.3521L84.6655 74.539C84.4786 75.1933 84.2916 75.6607 84.1047 76.315C84.1047 76.315 84.1982 76.5019 84.1982 76.7823C84.1047 77.5301 83.7308 78.5582 83.6373 79.4929C83.6373 80.0538 83.3569 80.895 83.5439 81.5493C83.6373 81.8297 83.4504 82.3905 83.3569 82.6709C83.2635 83.1383 83.17 83.886 82.9831 84.3534C82.9831 84.4468 82.8896 84.5403 82.7961 84.6338C82.7961 84.5403 82.6092 84.5403 82.6092 84.5403C82.5157 84.9142 82.4222 85.1946 82.4222 85.662C82.2353 85.7554 81.8614 85.8489 81.4875 85.9424C81.1137 85.7554 80.7398 85.3815 80.2724 84.9142C80.3659 84.5403 80.2724 84.073 80.2724 83.886H79.8985C79.8051 84.073 79.7116 84.4468 79.6181 84.8207C79.4312 84.3534 79.0573 83.9795 78.7769 83.7926C80.179 79.0256 80.9267 74.3521 81.9549 69.6786C82.0484 69.6786 82.1418 69.7721 82.3288 69.7721C81.9549 68.9308 82.1418 67.9961 82.7026 67.7157C82.4222 67.6222 82.3288 67.6222 82.1418 67.6222C82.2353 67.2484 82.3288 66.968 82.5157 66.6875C82.7961 66.3137 82.8896 65.8463 82.7026 65.4724C82.5157 65.2855 82.7961 64.9116 82.8896 64.8181C82.9831 64.4443 83.2635 63.9769 83.5439 63.4161C83.2635 63.603 83.0765 63.603 82.9831 63.603C83.6373 62.6683 84.1047 61.9206 84.0112 60.7055C83.8243 60.9859 83.8243 61.0793 83.7308 61.2663V60.612C84.1047 60.612 84.1982 60.2381 84.3851 59.8642L84.9459 56.8732C85.0394 56.4058 85.1329 56.032 85.1329 55.6581C85.7872 53.6952 86.2545 51.6389 86.6284 49.676C86.9088 48.274 87.2827 46.9654 87.6566 45.4699C87.8435 44.5352 88.2174 43.6005 88.3108 42.7592C88.6847 41.1702 88.8717 39.5812 89.339 37.8988C89.4325 36.9641 89.7129 36.0294 89.8998 35.0012C90.2737 33.7861 90.6476 32.571 90.928 31.3559C91.2084 30.6081 91.3954 29.8604 91.8627 29.0191C91.9562 28.3648 92.1431 28.1779 92.7039 28.2714H92.9843C93.8256 28.1779 94.1995 28.7387 94.4799 29.2995L94.7603 30.5147C94.8537 30.7951 94.8537 31.0755 94.6668 31.4494C94.6668 31.6363 94.5733 32.0102 94.4799 32.2906C94.106 32.4775 94.106 32.6645 94.3864 33.0383C94.2929 33.1318 94.2929 33.3188 94.1995 33.4122C94.0125 34.2535 93.7321 34.9077 93.5452 35.9359H93.3582C93.2648 36.8706 92.9843 37.2445 92.7974 39.3943V39.5812C92.6105 39.9551 92.4235 40.5159 92.3301 41.1702C92.6105 40.7029 93.1713 40.4225 93.3582 39.6747C93.3582 39.5812 93.2648 39.4878 93.5452 39.4878C93.6386 39.4878 93.7321 39.3008 94.0125 39.1139C93.919 39.1139 93.7321 39.1139 93.5452 38.8335C93.7321 38.5531 94.0125 38.4596 94.2929 38.3661C94.4799 37.8988 94.4799 37.338 95.2276 37.5249C95.2276 37.5249 95.2276 37.2445 95.3211 37.0576C95.9754 36.9641 96.4427 36.2163 96.3493 35.9359C96.5362 35.749 96.8166 35.562 97.0036 35.4686V34.9077C97.284 34.9077 97.5644 34.9077 97.9383 34.9077C98.1252 34.8143 98.2187 34.8143 98.2187 34.7208C98.1252 34.2535 98.5925 34.2535 98.7795 34.16C99.3403 33.4122 100.275 33.0383 100.929 32.6645C101.21 32.2906 101.584 32.1971 102.051 32.0102V31.6363C101.49 31.9167 101.023 31.9167 100.555 32.1036C100.088 32.1971 99.4338 32.571 99.0599 32.9449C98.1252 33.5992 97.1905 34.3469 96.4427 35.0012H96.2558C96.1623 35.0012 96.1623 34.9077 96.1623 34.9077C96.3493 34.8143 96.5362 34.7208 96.7231 34.3469C96.8166 34.2535 97.097 34.0665 97.097 33.973C97.1905 33.5992 97.1905 33.5057 97.3774 33.4122C97.9383 33.0383 98.686 32.9449 99.0599 32.4775C99.5272 32.0102 100.182 31.6363 100.555 31.3559C101.677 30.7951 102.612 30.7016 103.546 30.7016C104.201 30.7016 105.042 30.982 105.603 31.0755C106.07 31.1689 106.351 31.3559 107.005 31.5428C107.098 31.5428 107.192 31.6363 107.285 31.9167V32.1036C107.098 32.0102 106.911 32.0102 106.631 31.9167L106.351 32.0102C106.911 32.1971 107.192 32.4775 107.379 32.571C107.753 32.6645 108.126 32.8514 108.5 32.8514L108.594 32.6645C108.781 32.8514 109.342 33.4122 109.715 34.0665C109.902 34.0665 109.902 34.16 109.809 34.3469C109.809 34.8143 109.902 35.1882 109.902 35.562ZM88.9651 45.096C89.0586 44.4417 89.339 43.6005 89.4325 42.9462H89.1521C89.0586 43.32 88.9651 44.0678 88.7782 44.4417C88.7782 44.7221 88.7782 45.0025 88.6847 45.096H88.9651ZM88.5913 46.4046C88.5913 46.2176 88.6847 45.9372 88.8717 45.5633C88.6847 45.5633 88.5913 45.5633 88.6847 45.4699C88.4043 45.7503 88.1239 46.1241 88.1239 46.3111C88.1239 46.7784 88.1239 46.9654 88.2174 47.2458C87.8435 47.2458 87.937 47.5262 88.0304 47.8066C87.75 48.1805 87.6566 48.4609 87.4696 48.6478C87.6566 49.0217 87.6566 49.1152 87.6566 49.2087C87.5631 49.2087 87.4696 49.3021 87.3761 49.4891C87.4696 49.5825 87.5631 49.676 87.6566 49.676C87.8435 49.7695 87.937 49.676 87.937 49.5825C88.0304 49.1152 88.3108 48.4609 88.3108 47.9935L88.5913 46.4046ZM87.5631 50.9846C87.8435 50.3303 87.8435 50.3303 87.2827 50.0499C87.2827 50.3303 87.0957 50.4238 87.0957 50.6107C87.2827 50.6107 87.3761 50.6107 87.4696 50.7042C87.3761 50.7976 87.2827 50.7976 87.0023 50.9846L87.3761 51.3585C87.1892 51.3585 87.0023 51.5454 86.7219 51.5454V52.1062C86.6284 52.4801 86.4414 52.854 86.4414 53.3213C86.161 54.1626 86.0676 55.1907 85.8806 56.032C85.6002 57.1536 85.0394 58.2752 84.9459 59.3969C84.759 60.2381 84.3851 61.2663 84.572 62.2945L84.4786 62.3879C84.3851 62.8553 84.0112 63.603 83.9178 64.3508C83.9178 64.4443 84.0112 64.5377 84.1982 64.7247C84.2916 64.5377 84.3851 64.5377 84.572 64.4443L84.2916 64.2573C84.4786 63.6965 84.6655 63.4161 84.8525 62.9487C84.9459 62.3879 85.1329 61.7336 85.4133 61.0793C85.4133 60.612 85.4133 60.0512 85.5067 59.5838C85.6937 59.2099 85.8806 58.6491 85.8806 58.1818H85.6002C85.6937 57.9948 85.7872 57.621 85.8806 57.5275C85.9741 57.434 85.9741 57.2471 85.9741 57.1536C85.9741 57.0601 85.9741 56.8732 85.8806 56.8732C86.0676 56.7797 86.348 56.6863 86.7219 56.5928V56.4058C86.348 56.4058 86.0676 56.4058 85.9741 56.4058C86.0676 56.032 86.161 55.7516 86.161 55.5646C86.348 55.5646 86.4414 55.5646 86.6284 55.6581C86.5349 55.1907 86.4414 54.7234 86.4414 54.3495L87.0957 54.0691C86.9088 53.8822 86.7219 53.7887 86.6284 53.7887C86.9088 53.6017 87.1892 53.5083 87.1892 53.3213C87.4696 52.4801 87.4696 51.6389 87.5631 50.9846ZM86.348 59.8642C86.2545 59.2099 87.0957 58.5557 86.6284 57.9948C86.2545 58.5557 86.161 59.5838 86.348 59.8642ZM83.3569 66.8745C84.1982 66.5006 83.9178 65.9398 83.9178 65.6594C84.1047 65.4724 84.1982 65.2855 84.2916 65.192C84.1982 65.0986 84.1982 64.9116 83.8243 64.7247C83.5439 65.5659 83.5439 66.2202 83.3569 66.8745ZM86.8153 64.9116C86.7219 64.9116 86.6284 64.9116 86.6284 64.8181C86.7219 64.8181 86.7219 64.9116 86.8153 64.9116ZM84.572 67.9961C84.6655 67.6222 84.6655 67.2484 84.759 66.781C84.2916 67.0614 84.1047 68.37 84.2916 68.7439C84.4786 68.4635 84.4786 68.2765 84.572 67.9961ZM83.6373 68.2765C83.6373 67.9961 83.7308 67.7157 83.7308 67.4353C83.7308 67.3418 83.6373 67.2484 83.6373 66.968C83.4504 67.0614 83.3569 67.0614 83.3569 67.0614C83.2635 67.4353 83.2635 67.8092 83.17 68.2765H83.6373ZM83.3569 69.2112C83.3569 68.9308 83.6373 68.6504 83.6373 68.5569C83.4504 68.4635 83.2635 68.4635 83.17 68.4635C82.6092 70.8002 82.1418 72.8566 81.7679 75.0998C81.8614 75.0998 81.9549 75.1933 81.9549 75.1933C82.0484 74.8194 82.9831 74.726 82.3288 73.9782C82.6092 73.7913 82.7961 73.6978 82.6092 73.4174C82.4222 72.7631 82.6092 72.2957 82.8896 71.6415C83.0765 71.548 83.17 70.9872 83.2635 70.1459L83.17 69.959C83.2635 69.8655 83.3569 69.6786 83.3569 69.5851V69.2112ZM140.297 31.7298L140.39 31.8232V32.6645C140.11 32.8514 140.017 32.9449 139.549 33.0383L140.203 33.3188C139.269 33.7861 138.521 34.3469 137.96 34.7208C137.586 35.0012 137.586 35.3751 137.212 35.3751H136.558C136.465 35.3751 136.371 35.3751 136.371 35.4686C136.278 36.0294 135.53 36.0294 135.063 36.2163L133.754 36.7771C132.726 37.2445 131.978 37.338 131.043 37.4314C130.763 37.4314 130.576 37.5249 130.389 37.5249C129.922 37.5249 129.828 37.7118 129.828 38.0857C129.735 38.3661 129.548 38.6465 129.548 39.0204L129.735 39.1139V39.2074C129.268 39.6747 129.268 40.2355 128.707 40.6094C128.613 40.7029 128.707 41.0768 128.613 41.1702C127.865 42.0115 127.398 42.9462 126.557 43.8809L126.37 44.0678C125.903 44.5352 125.342 45.0025 124.968 45.4699C124.687 45.6568 124.314 45.8437 123.94 45.8437C123.192 46.3111 122.538 46.498 121.696 46.7784C121.323 46.8719 120.949 46.8719 120.762 46.7784C119.827 46.685 118.705 46.685 117.958 46.3111C116.836 46.1241 116.088 45.4699 115.434 44.6286C114.406 43.6005 114.312 41.8245 114.219 40.329C114.125 38.5531 114.967 36.7771 115.434 35.0947C115.621 34.5339 115.808 33.3188 115.901 33.3188C116.556 32.3841 116.929 31.2624 117.49 30.7016C118.332 29.8604 119.266 29.1126 120.388 28.5518C121.229 28.1779 122.164 28.2714 122.912 28.2714C123.379 28.2714 123.566 28.7387 123.94 29.1126C124.033 29.2061 124.22 29.2061 124.407 29.2995C125.342 29.6734 126.65 29.6734 127.772 30.6081C127.865 30.7016 128.239 30.7016 128.426 30.7951C128.987 31.2624 129.454 31.8232 130.109 32.1971C130.109 32.3841 129.828 32.1971 129.735 32.1971C129.548 32.1971 129.454 32.1971 129.174 32.2906C129.174 32.3841 129.361 32.6645 129.361 32.6645C130.109 32.6645 130.015 33.2253 130.202 33.5992C130.015 33.5992 129.922 33.6926 129.735 33.7861C129.922 33.8796 130.015 33.973 130.202 34.3469H129.922C130.109 34.4404 130.202 34.7208 130.483 34.8143C130.483 34.9077 130.389 35.0012 130.483 35.0947C132.165 34.4404 133.848 33.973 135.437 33.4122C136.839 32.8514 137.96 32.571 140.297 31.7298ZM127.024 35.4686C126.931 35.0012 127.024 34.4404 127.024 33.8796C126.837 33.1318 126.744 32.1971 126.276 31.4494C126.09 31.1689 125.903 31.1689 125.622 31.2624C125.061 31.2624 124.594 31.4494 124.314 31.7298C123.753 32.1971 123.098 32.571 123.005 33.4122C123.005 33.8796 123.098 34.4404 123.379 34.9077C123.566 35.3751 123.846 35.4686 124.407 35.4686H127.024ZM127.585 35.4686C127.865 35.3751 128.052 35.3751 128.239 35.3751C128.146 35.0012 128.333 34.5339 128.146 34.16C128.052 33.4122 128.052 33.4122 127.492 33.3188C127.492 33.973 127.585 34.7208 127.585 35.4686ZM126.183 38.2727C126.557 37.8053 126.37 37.7118 125.903 37.5249C125.435 37.5249 124.687 37.4314 124.22 37.2445C123.285 37.0576 122.257 36.5902 121.509 36.0294C120.855 35.6555 120.388 35.1882 120.201 34.6273C120.014 34.3469 119.827 33.973 119.734 33.5992C119.266 34.7208 118.799 35.4686 118.332 36.4033C118.051 36.7771 117.864 37.338 117.771 37.7118C117.584 38.2727 117.584 38.74 117.49 39.2074C117.116 40.1421 117.116 41.2637 117.116 42.1984C117.116 42.8527 117.303 43.32 117.397 43.8809C117.49 44.6286 118.612 45.0025 119.827 44.5352C121.229 44.1613 122.538 43.2266 123.566 42.1984C124.127 41.6376 124.687 40.9833 125.155 40.2355C125.529 39.6747 125.716 38.927 126.183 38.2727ZM144.703 50.7042V50.1434L144.61 50.0499L144.236 50.6107C143.769 50.4238 143.395 50.3303 143.021 50.1434H142.46C142.366 50.1434 142.18 50.2368 142.086 50.1434C142.366 50.4238 140.123 49.3021 139.469 47.7131C139.188 47.0588 139.562 46.2176 139.562 45.5633C139.562 45.2829 139.375 44.6286 140.123 44.5352C139.749 44.1613 139.562 43.8809 140.123 43.4135C140.217 43.32 140.31 43.1331 140.31 42.9462C140.217 42.5723 140.497 42.4788 140.684 42.1984L140.871 41.7311C140.964 41.6376 141.151 41.6376 141.338 41.5441C141.245 41.4506 141.058 41.3572 140.964 41.3572C141.245 41.0768 141.432 40.8898 141.712 40.7029C141.899 40.329 141.993 40.0486 142.18 39.8617L142.46 39.3943C142.647 39.3008 142.927 39.2074 142.927 39.0204C142.927 38.4596 143.208 38.2727 143.582 37.8988C143.862 37.6184 144.049 37.338 144.236 37.0576C144.516 36.4967 144.984 36.0294 145.358 35.4686C145.638 35.0947 145.825 34.6273 146.105 34.16C146.573 33.7861 146.76 32.9449 147.04 32.1971C147.133 31.7298 146.946 31.4494 146.76 31.1689C146.479 30.982 146.199 31.0755 145.825 31.2624C144.984 31.6363 144.516 32.2906 144.61 32.1971C144.049 32.7579 143.862 32.9449 143.488 33.2253C142.647 33.7861 142.366 34.7208 141.619 34.9077C140.31 35.1882 139.282 33.5992 139.749 32.6645C140.123 31.8232 140.871 31.1689 141.712 30.6081C142.366 29.9538 142.927 29.2061 143.769 28.8322C144.61 28.4583 145.451 28.2714 146.105 28.1779C147.507 27.8975 149.003 28.2714 149.751 29.2061C150.218 29.8604 150.685 30.7951 150.872 31.5428C150.966 32.4775 151.059 33.3188 150.592 34.3469C150.311 34.8143 150.218 35.3751 149.938 35.8424C149.377 36.4967 148.909 37.2445 148.535 37.8053C148.535 37.8988 146.105 40.7964 146.105 40.8898C145.358 42.0115 144.61 43.1331 143.955 44.2547C143.582 45.0025 143.395 45.4699 143.021 46.4046C142.74 47.5262 143.582 48.1805 144.984 47.8066C146.573 47.3393 147.788 46.5915 148.816 46.0307C149.096 45.9372 151.62 44.6286 152.087 44.1613C152.368 43.9743 152.461 43.9743 152.461 43.9743C152.648 43.8809 152.835 43.8809 153.022 43.7874C152.742 44.0678 152.461 44.3482 152.181 44.5352C152.368 44.6286 152.742 44.5352 153.209 44.5352C153.022 44.6286 152.929 44.7221 152.742 44.7221C152.742 44.8156 152.835 44.8156 152.835 44.8156C153.77 44.4417 154.611 43.7874 155.546 43.32C155.452 43.4135 155.452 43.4135 155.452 43.507C155.452 44.3482 155.172 45.0025 154.798 45.1894L153.676 46.3111C153.116 46.5915 152.648 46.8719 152.181 47.1523C151.527 47.5262 151.059 48.087 150.124 48.1805C149.938 48.4609 149.564 48.3674 149.19 48.4609C148.629 48.6478 147.975 49.2087 147.414 49.4891C147.04 49.5825 146.573 49.4891 146.199 49.5825C145.918 49.676 145.731 49.676 145.544 49.7695V49.9564C145.918 49.9564 146.199 50.0499 146.666 50.0499C146.292 50.1434 146.199 50.5172 145.731 50.6107C145.638 50.6107 145.638 50.4238 145.544 50.3303C145.264 50.4238 144.984 50.5172 144.703 50.7042ZM153.022 44.3482L152.929 44.1613C152.929 44.0678 153.022 43.9743 153.022 43.9743C153.676 43.9743 154.144 43.507 154.705 43.2266L155.172 42.9462C155.452 42.8527 155.639 42.7592 155.265 42.4788C154.705 42.9462 154.05 43.2266 153.489 43.6939C153.396 43.6939 153.209 43.6939 152.929 43.6005C153.489 43.4135 154.611 42.7592 154.985 42.1984C156.013 41.7311 156.854 41.1702 157.882 40.4225L158.63 39.8617L158.724 40.1421C158.724 40.1421 158.911 40.1421 158.911 40.2355L158.35 40.6094L157.041 41.3572V41.4506C157.041 41.3572 157.135 41.3572 157.135 41.3572H157.322C157.135 41.4506 156.854 41.7311 156.48 41.918L156.574 42.1049C156.293 42.1984 156.107 42.2919 156.48 42.3853C156.107 42.5723 155.733 42.6658 155.639 42.9462C155.639 42.9462 155.639 43.0396 155.546 43.0396C154.985 43.0396 154.705 43.507 154.424 43.7874C154.237 43.9743 153.957 44.1613 153.583 44.2547C153.396 44.3482 153.209 44.2547 153.022 44.3482ZM141.993 42.8527C141.993 42.5723 142.086 42.4788 142.18 42.1984L141.338 42.6658C141.525 42.7592 141.712 42.7592 141.993 42.8527ZM140.964 45.5633L141.619 43.4135C141.619 43.32 141.432 43.1331 141.338 43.0396C141.245 43.1331 141.151 43.32 141.151 43.4135C141.245 43.6005 141.151 43.6939 140.871 43.6939C140.777 43.6939 140.591 43.9743 140.684 43.9743C140.871 44.3482 140.871 45.0025 140.591 45.1894C140.684 45.2829 140.871 45.3764 140.964 45.5633ZM151.994 45.2829L152.368 45.0025C152.461 44.909 152.368 44.909 152.368 44.8156C152.274 44.909 152.087 45.096 151.994 45.2829ZM140.684 46.685C141.058 46.3111 141.058 46.1241 140.777 45.8437C140.684 45.7503 140.497 45.7503 140.217 45.6568V45.8437C140.871 45.7503 140.497 46.3111 140.684 46.685ZM207.961 45.7503C207.774 45.7503 207.681 45.6568 207.494 45.6568C207.307 45.6568 205.624 45.1894 205.064 44.6286C204.596 44.0678 204.035 43.6005 203.568 43.2266C203.101 42.8527 203.194 42.3853 202.82 42.0115C202.446 41.7311 202.54 41.1702 202.353 40.7029L202.914 40.329C202.633 40.329 202.446 40.2355 202.26 40.2355C202.446 40.0486 202.82 39.8617 202.727 39.7682C202.727 39.5812 202.633 39.3943 202.54 39.3008C202.633 37.9923 202.914 36.7771 203.475 35.3751C202.914 35.4686 202.633 36.0294 202.073 36.6837C200.297 38.74 199.082 40.1421 195.53 42.6658C194.875 43.1331 194.221 43.507 193.567 43.7874C191.978 44.6286 191.23 45.1894 189.641 45.1894C187.678 45.0025 186.276 43.1331 185.341 40.4225L184.5 37.8053C183.939 38.1792 183.285 38.6465 182.724 38.927C182.537 39.0204 182.35 39.2074 182.164 39.4878C181.977 39.6747 181.79 39.7682 181.509 39.8617C181.79 39.9551 181.977 39.9551 182.164 39.9551L182.07 40.0486C181.883 40.1421 181.696 40.2355 181.416 40.2355V40.6094C181.883 40.329 182.537 40.0486 183.005 39.7682V39.9551C182.537 40.329 181.883 40.7029 181.509 41.1702C180.761 42.0115 179.92 42.1984 178.986 42.8527C178.425 43.1331 178.144 43.0396 177.677 43.32C177.49 43.4135 177.023 43.6005 176.742 43.6005C176.649 43.6005 176.181 43.7874 175.901 43.7874C175.527 43.7874 174.686 43.9743 174.312 43.8809C174.125 43.7874 173.564 43.7874 173.377 43.6005C173.097 43.507 172.91 43.1331 172.63 43.0396C172.069 42.2919 171.414 41.918 171.041 41.0768C170.48 40.5159 170.573 40.329 170.293 39.8617C170.106 39.7682 170.106 39.5812 170.012 39.3943C169.358 39.7682 169.358 40.7029 168.704 40.7029C168.517 40.8898 168.423 41.1702 168.236 41.2637C167.115 42.1049 165.619 43.32 164.124 43.9743C162.628 44.7221 161.039 44.7221 159.637 44.1613C159.45 44.1613 159.17 44.1613 158.889 44.0678C158.703 43.8809 157.955 43.4135 157.394 43.1331C156.553 42.0115 156.272 40.7964 156.646 39.3943C156.927 38.74 157.114 38.2727 157.3 37.7118C157.394 37.6184 157.394 37.6184 157.394 37.5249C157.487 36.9641 157.768 36.4967 157.955 35.8424L158.609 34.7208C158.983 34.2535 159.17 33.7861 159.357 33.5992C160.385 32.0102 161.6 30.8885 162.722 29.4865C163.843 28.2714 165.432 27.1497 167.208 26.9628C169.171 27.3367 171.414 27.7106 171.788 29.8604C172.069 31.1689 171.321 32.0102 170.854 32.9449C171.601 32.8514 172.256 32.1036 173.377 32.1971C173.938 32.3841 174.312 32.8514 174.499 33.5057C174.499 33.5057 174.592 34.5339 174.312 35.2816C174.219 35.3751 174.219 35.562 174.125 35.749C173.845 37.0576 173.845 38.4596 174.405 39.7682C174.499 40.1421 174.779 40.5159 175.247 40.7964C175.434 40.8898 175.714 40.8898 175.994 40.8898C176.275 40.8898 176.649 40.7964 177.023 40.6094C178.518 39.9551 179.92 38.74 181.229 37.8053C182.444 37.0576 183.846 36.2163 185.061 35.2816H185.155C185.809 34.7208 187.024 35.1882 186.93 35.6555C187.211 36.9641 187.491 38.0857 187.959 39.3008C188.239 40.0486 188.706 41.1702 189.454 41.7311C190.763 43.2266 198.427 37.0576 200.484 34.5339C199.269 34.5339 198.147 34.5339 196.932 33.973C195.156 33.1318 195.062 31.4494 195.717 30.0473C196.464 28.3648 197.773 26.8693 199.269 25.6542C199.736 25.1869 200.297 24.9065 200.951 24.626C201.699 24.4391 202.446 24.1587 203.194 24.0652C204.97 23.5979 206.933 24.0652 207.961 24.9999C208.335 25.2803 208.429 25.8412 208.429 26.1216C208.522 26.7759 208.055 27.4301 207.868 27.991L207.307 29.2061C207.681 29.393 208.148 29.4865 208.616 29.58C209.363 29.7669 209.644 30.2342 209.27 30.982L208.335 32.4775C207.681 33.2253 207.307 34.0665 207.12 34.8143C206.746 35.6555 206.372 36.5902 206.092 37.4314C205.624 39.1139 205.531 40.7964 205.998 42.3853C206.279 43.32 207.027 43.7874 207.961 43.8809C210.205 44.0678 212.635 42.0115 212.635 42.0115C212.822 41.8245 212.915 41.8245 213.009 41.918C212.635 42.1984 212.728 42.2919 212.448 42.4788C212.541 42.5723 212.541 42.5723 213.009 42.5723C212.728 42.6658 212.635 42.7592 212.448 42.7592C212.448 42.8527 212.541 42.8527 212.541 42.8527C213.476 42.6658 214.224 42.1984 215.252 41.918C215.158 42.0115 215.252 42.0115 215.158 42.1049C214.224 43.0396 214.037 43.2266 213.569 43.4135L212.915 43.7874L212.167 44.4417L211.046 45.0025C210.111 45.4699 209.831 45.5633 208.896 45.6568C208.802 45.7503 208.709 45.7503 208.616 45.7503H207.961ZM199.175 32.571C200.671 33.3188 202.54 32.571 203.662 31.0755C204.503 30.0473 205.438 27.804 205.718 26.8693C205.718 26.4954 205.718 26.0281 205.531 25.7477C205.157 25.1869 203.662 25.3738 202.914 25.8412C200.764 27.1497 200.11 27.991 198.988 30.1408C198.614 30.7951 198.427 32.1971 199.175 32.571ZM204.97 29.9538C206.372 29.2061 206.466 27.8975 207.12 26.7759C207.213 26.4954 207.4 26.0281 206.933 25.8412L204.97 29.9538ZM159.45 41.4506C160.478 41.4506 162.161 41.3572 163.096 40.9833C164.311 40.5159 165.152 39.8617 166.087 38.8335C167.489 37.338 168.143 36.2163 169.545 34.7208C169.639 34.7208 170.012 34.2535 170.012 34.2535H169.919C167.863 34.0665 168.61 29.9538 168.704 29.8604C165.9 30.3277 162.628 34.7208 161.6 36.4967C160.759 37.9923 159.918 39.5812 159.45 41.4506ZM196.464 31.5428C196.558 30.982 197.119 30.4212 197.306 29.8604C196.464 30.1408 196.464 30.1408 196.464 31.5428ZM202.82 35.0012C203.007 34.7208 203.194 34.6273 203.288 34.4404C202.82 34.6273 202.82 34.6273 202.82 35.0012ZM204.316 39.6747C204.783 38.927 204.316 38.0857 204.596 37.2445C204.877 36.4967 205.157 35.562 205.251 34.7208L204.97 34.9077C204.503 35.3751 204.69 36.0294 204.129 36.3098C203.849 36.4033 204.035 36.6837 204.035 36.7771C203.942 36.9641 204.035 37.0576 204.035 37.151C203.849 37.8988 203.662 38.6465 203.475 39.2074C203.849 39.3943 204.035 39.5812 204.316 39.6747ZM198.24 37.8988C199.549 37.151 200.951 35.9359 201.325 35.1882C200.297 36.0294 199.269 36.9641 198.24 37.8988ZM180.481 39.2074C180.761 39.1139 181.042 39.1139 181.229 38.927C181.603 38.6465 181.883 38.6465 182.164 38.8335C182.164 38.74 182.07 38.6465 182.07 38.5531C182.724 38.2727 183.285 38.1792 183.846 37.7118L186.37 35.8424C186.37 35.749 186.089 35.8424 185.996 35.8424L183.659 37.338C183.379 37.4314 183.285 37.338 183.285 37.2445C182.631 37.6184 182.07 38.0857 181.416 38.5531C181.135 38.6465 180.855 38.927 180.481 39.0204V39.2074ZM212.915 42.4788L212.822 42.2919C212.822 42.1984 212.915 42.1049 212.915 42.1049C213.569 42.1984 213.756 41.6376 214.317 41.4506H214.971C215.252 41.4506 215.439 41.3572 214.971 40.7964L213.382 41.8245C213.289 41.8245 213.569 41.6376 213.289 41.5441L216.654 39.0204C217.682 38.74 218.056 38.6465 218.523 38.927C218.336 38.927 216.934 40.2355 216.56 40.329L216.654 40.6094C216.374 40.6094 216.187 40.7029 216.467 40.7964C216.187 41.2637 215.532 41.2637 215.439 41.5441C215.439 41.5441 215.439 41.6376 215.345 41.6376C214.785 41.6376 214.317 41.7311 214.037 41.918C213.756 42.1049 213.756 42.2919 213.382 42.3853C213.196 42.4788 213.102 42.3853 212.915 42.4788ZM211.887 43.0396C211.98 43.0396 212.167 42.9462 212.261 42.8527C212.354 42.7592 212.261 42.7592 212.261 42.6658L211.887 43.0396ZM27.9274 127.303C24.0951 127.864 20.7302 127.864 16.4306 126.462C14.4677 125.808 12.5049 124.312 10.4485 122.723C9.13993 121.602 7.45747 119.826 6.52277 118.143C5.58807 116.18 5.12072 114.591 5.68154 112.535C6.4293 110.292 6.99012 109.731 8.85952 110.011C8.76605 110.385 8.57911 110.946 8.48564 111.694C8.39217 112.909 8.2987 114.031 8.57911 115.246C8.85952 116.18 9.32687 117.022 9.70075 117.863C10.1681 118.798 10.7289 119.545 11.0093 119.919C13.4396 123.004 16.8979 124.499 20.7302 124.873C21.9453 124.967 23.2539 124.967 24.469 124.967C26.8992 124.967 29.1425 124.032 32.5074 121.976C33.5356 121.321 34.2834 120.761 35.2181 120.013C36.5266 118.891 37.0875 118.143 37.7418 117.209C38.9569 115.433 39.985 113.47 40.9197 111.32C41.3871 110.292 41.9479 108.703 42.3218 107.862C44.0977 102.067 45.3128 96.2714 46.5279 90.4762C46.6214 89.9154 46.8083 89.4481 46.9018 88.8872C45.3128 90.4762 40.2654 96.3648 39.8916 96.8322C39.7981 97.2061 39.5177 97.4865 39.3307 97.58C37.1809 99.8232 35.0311 101.973 32.7878 104.216C31.8531 105.151 29.4229 105.525 28.3948 105.058C27.3666 104.403 26.1515 104.31 25.3102 103.656C24.0017 102.627 24.0951 101.506 24.0017 100.197C23.6278 97.7669 24.9364 91.3175 28.3948 81.1292L29.5164 77.8578C29.9837 76.7361 29.9837 75.8014 29.9837 74.6798C29.8903 74.2125 29.8903 73.8386 29.7033 73.6516C29.5164 72.9973 29.049 72.7169 28.3948 72.7169C27.2731 72.7169 26.2449 73.2778 25.4972 73.7451C22.0388 76.0819 19.0478 78.9794 17.1784 82.7182C16.2437 84.1203 15.4959 85.5223 14.7481 86.9244C14.5612 87.3917 14.2808 87.7656 14.0004 88.1395C13.533 88.7003 12.8787 89.3546 12.7853 90.2893C12.6918 90.2893 12.6918 90.3828 12.6918 90.3828C12.3179 90.9436 11.944 91.1305 11.4767 91.0371C10.9159 91.0371 10.4485 90.5697 10.4485 89.8219C10.4485 89.2611 10.542 88.6068 10.7289 88.1395C11.5702 85.4289 12.8787 82.9052 14.3743 80.5684C15.4024 78.9794 16.4306 77.6708 17.5522 76.3623C19.1412 74.5863 21.0106 72.9973 23.1604 71.8757C24.9364 70.941 26.8992 70.3802 29.049 70.3802C30.5446 70.5671 31.0119 71.2214 32.1336 72.1561C34.2834 74.3059 34.3768 76.5492 33.5356 79.4468C32.7878 81.877 31.8531 84.2137 31.1054 86.5505C30.825 87.1113 30.638 87.9525 30.5446 88.6068C30.4511 89.1677 30.2642 89.5415 30.0772 90.0089C27.7405 96.2714 27.647 100.01 27.8339 101.599C27.8339 101.693 27.9274 101.88 28.2078 102.067C28.4882 101.973 28.7686 101.973 29.049 101.88L31.5727 100.291C35.8724 96.7387 39.985 92.9065 43.7238 88.5134C44.3781 87.7656 46.6214 85.1484 46.9953 84.5876C48.1169 83.1856 48.6777 81.7835 49.2386 80.1011L49.8929 78.2317C50.3602 77.11 51.108 76.4557 52.1361 76.0819C52.697 75.8949 53.2578 75.9884 53.9121 76.0819C54.9402 76.3623 55.2206 77.0166 55.1272 77.8578C55.1272 78.5121 55.0337 79.0729 54.5664 79.8207C53.1643 82.5313 52.4165 85.8027 51.5753 88.7938C51.108 90.2893 50.8276 91.5979 50.4537 92.9065C50.3602 94.3085 49.7994 95.6171 49.4255 97.0191C49.1451 96.8322 49.0516 96.7387 48.6777 96.7387C48.5843 96.7387 48.4908 96.8322 48.4908 96.8322C48.1169 98.1408 47.8365 99.5428 48.0235 101.038C48.1169 101.506 48.2104 102.253 47.4626 102.721C47.2757 102.814 46.9953 103.469 46.9953 103.749C47.2757 105.151 46.341 106.366 46.2475 107.862C46.2475 108.422 46.1541 108.89 46.0606 109.451C45.8736 109.731 45.7802 110.198 45.5932 110.666C45.4063 110.946 45.1259 111.32 44.9389 111.694C43.9108 113.283 43.35 114.872 42.6022 116.648C42.3218 117.209 42.0414 117.863 41.4806 118.33C39.8916 120.293 38.396 122.256 36.3397 123.658C34.0964 125.341 30.4511 127.116 27.9274 127.303ZM46.6214 95.5236C47.3692 95.3367 47.4626 94.6824 47.5561 94.402C48.3973 91.224 48.9582 88.3264 49.6124 85.3354L49.519 84.7746C48.0235 88.5134 47.2757 91.8783 46.6214 95.5236ZM35.1246 99.0755C37.1809 97.9538 44.2847 91.224 47.3692 86.5505C47.4626 86.457 47.4626 86.3636 47.4626 86.2701C47.4626 85.8962 47.4626 85.7093 47.5561 85.1484C46.8083 85.4289 46.9953 85.6158 45.7802 87.1113C45.1259 87.7656 44.5651 88.6068 43.9108 89.3546C42.6022 90.9436 41.2001 92.626 39.8916 94.1216C38.9569 94.9628 38.3026 95.7106 37.4613 96.6453C36.5266 97.393 35.7789 97.9538 35.1246 99.0755ZM37.3679 120.667C37.8352 120.106 38.396 119.826 38.6765 119.172C39.0503 118.237 39.8916 117.396 40.4524 116.648C41.3871 115.339 41.9479 114.124 42.3218 112.722C42.5087 112.535 42.6022 112.161 42.6957 111.974C43.35 110.666 43.9108 109.17 44.2847 107.768C45.0324 104.871 45.7802 101.693 46.6214 98.7016C46.8083 98.0473 46.8083 97.393 46.9953 96.7387C46.9953 96.6453 46.8083 96.4583 46.7149 96.2714C46.0606 96.4583 46.1541 97.2061 46.0606 97.6734C45.4063 101.038 44.3781 104.31 43.4434 107.488L42.7891 109.077C42.7891 109.357 42.7891 109.731 42.6022 110.105C41.9479 111.32 41.4806 112.629 40.8263 113.844C40.3589 114.872 39.985 116.18 39.2373 117.115L36.8071 120.013C36.994 120.293 36.994 120.387 37.3679 120.667ZM73.0449 115.713C72.7645 115.807 72.3906 115.62 72.1102 115.526C71.7364 115.339 71.1755 115.246 70.7082 115.152C69.68 114.591 68.8388 113.937 68.6518 112.722C68.3714 110.853 67.8106 108.983 67.9041 107.02C67.9041 105.244 67.9976 103.562 68.3714 101.693C68.5584 100.664 68.7453 100.01 68.8388 98.8885C68.3714 99.1689 67.8106 99.4494 67.4367 99.7298C67.2498 99.9167 66.8759 100.104 67.0629 100.478C67.2498 100.945 66.5955 100.758 66.3151 100.945C66.4086 101.225 66.4086 101.412 66.502 101.506C66.2216 101.506 66.0347 101.693 65.7543 101.88C65.8477 102.721 65.5673 103.282 64.913 103.842C64.3522 104.123 64.2588 104.777 63.9783 105.244C63.6045 105.899 63.4175 106.366 63.0436 106.833C62.3894 107.768 61.922 108.703 61.1742 109.638C60.8004 110.292 60.4265 110.853 59.9591 111.414C59.5853 112.161 58.931 112.535 58.2767 112.816C57.155 113.283 56.5007 113.189 56.4073 113.189C56.3138 113.189 55.566 112.909 55.4726 112.816L54.9118 112.535C53.8836 111.6 52.3881 109.544 52.3881 107.488C52.3881 106.833 52.2946 105.618 53.6032 105.431C54.164 105.338 54.6313 105.431 55.0052 105.899C55.3791 106.46 55.3791 106.74 55.9399 109.077C56.0334 109.357 56.1269 109.544 56.4073 109.731C56.7812 109.825 57.0616 109.731 57.2485 109.638C57.8093 109.451 60.8004 104.777 62.2024 102.908C64.1653 100.291 65.4739 98.3277 67.7171 96.0844C68.3714 95.4301 68.9323 94.8693 69.7735 94.6824C70.3343 94.9628 70.7082 95.0563 71.1755 95.2432C71.7364 95.2432 72.2972 95.7106 72.2972 96.7387C72.3906 97.58 72.4841 98.4212 72.2972 99.0755C71.9233 101.319 71.4559 103.562 71.3625 105.992C71.269 107.114 71.3625 108.516 71.4559 109.731L71.5494 110.759C71.5494 110.853 71.9233 112.909 72.7645 113.376C73.4188 113.75 73.9796 113.189 74.447 112.816C75.0078 112.816 75.4752 112.161 75.5686 112.068C75.9425 111.694 76.5033 111.133 76.9707 110.853C76.7837 110.759 76.6903 110.759 76.7837 110.666C76.2229 111.04 75.5686 111.507 75.0078 111.974C74.9143 111.881 74.9143 111.881 74.8209 111.881C77.9054 109.451 80.3356 106.647 82.5789 103.749L82.7658 103.842C82.7658 103.936 82.7658 104.123 82.8593 104.216C82.8593 104.216 82.8593 104.31 82.7658 104.403C82.3919 104.497 82.3919 104.497 82.1115 104.964H82.5789C82.2985 105.151 82.4854 105.618 82.205 105.992L81.7376 106.647L81.5507 107.207C81.3638 107.675 81.0834 108.236 80.8964 108.609C80.7095 108.983 80.5225 109.451 79.7748 110.198L78.8401 111.414C78.7466 111.6 78.7466 111.881 78.2793 112.161C78.2793 112.161 78.2793 112.348 78.3727 112.442C78.2793 112.535 77.9988 112.535 77.9988 112.629C77.625 113.376 76.8772 113.937 76.2229 114.591C75.6621 115.246 74.7274 115.526 73.1384 115.713H73.0449ZM57.9028 110.385C58.4636 109.731 58.931 109.17 59.3048 108.422L60.8004 106.647C61.2677 105.899 61.922 105.431 62.2024 104.684C60.4265 106.366 58.931 108.142 57.7159 110.198V110.292C57.8093 110.385 57.8093 110.385 57.9028 110.385ZM68.5584 105.431C68.6518 105.431 68.6518 105.338 68.7453 105.338C68.6518 105.244 68.6518 105.058 68.6518 104.871H68.4649C68.5584 105.151 68.5584 105.244 68.5584 105.431ZM68.7453 107.02C68.8388 107.02 68.9323 107.02 68.9323 106.927C68.9323 106.927 68.8388 106.833 68.8388 106.647L68.6518 106.833C68.6518 106.927 68.7453 107.02 68.7453 107.02ZM68.8388 108.983C68.8388 108.796 68.9323 108.609 68.9323 108.422C68.8388 108.422 68.8388 108.329 68.7453 108.329C68.7453 108.516 68.6518 108.703 68.6518 108.89C68.7453 108.89 68.7453 108.89 68.8388 108.983ZM77.1576 111.04C77.2511 111.04 77.3446 110.946 77.3446 110.853C77.8119 110.479 78.0923 110.198 78.4662 109.731C78.7466 109.451 79.027 109.264 79.214 108.89C79.214 108.89 79.1205 108.796 79.027 108.796C78.2793 109.544 77.625 110.198 76.9707 110.946C77.0641 111.04 77.0641 111.04 77.1576 111.04ZM69.0257 110.853C69.0257 110.759 69.1192 110.759 69.2127 110.666L68.9323 110.479L68.8388 110.572C68.8388 110.666 68.9323 110.759 69.0257 110.853ZM69.7735 112.255C69.68 111.881 69.4931 111.787 69.4931 111.6C69.3061 111.787 69.2127 111.974 69.7735 112.255ZM84.4147 111.787C82.9192 110.759 81.891 108.983 81.9845 107.02C81.9845 105.431 82.3583 103.749 82.7322 102.16C83.9473 97.8604 87.1253 92.1587 87.9665 91.3175C88.1535 91.0371 88.4339 90.8501 88.5274 90.6632C89.1816 90.1958 90.5837 90.2893 90.5837 90.9436C90.5837 91.7848 90.9576 91.6913 90.9576 92.4391C90.9576 93.1869 89.5555 94.0281 88.9012 95.7106C87.5927 98.5147 85.8167 103.001 85.3494 105.992C85.1624 107.207 85.069 108.983 86.2841 109.825C88.3404 110.292 91.1445 107.114 92.4531 103.936C92.7335 103.562 92.7335 103.001 92.7335 102.44C92.7335 101.693 92.5466 101.225 91.6119 100.945C89.9294 100.478 88.9012 100.945 88.4339 100.758C87.8731 100.478 87.7796 99.9167 88.2469 99.4494C88.5274 99.0755 88.9947 98.7951 89.5555 98.7951C89.649 98.7951 91.4249 98.5147 91.6119 98.6081C94.0421 98.8885 95.1637 99.6363 95.9115 100.758L96.1919 101.786C96.5658 102.721 96.3788 103.562 96.0984 104.31C95.7245 105.431 95.3507 106.273 94.5094 107.114C93.6682 108.236 93.4813 108.609 92.3596 109.638C91.7988 110.385 91.1445 110.946 90.3033 111.414C89.0882 112.255 85.8167 112.722 84.4147 111.787ZM91.9857 106.74C92.5466 106.647 93.7617 106.179 94.0421 105.431C94.5094 104.777 94.416 104.684 94.416 104.31C94.416 104.216 94.229 104.216 94.229 104.123C94.229 104.123 93.9486 104.777 92.7335 105.244C92.5466 105.525 92.3596 105.899 91.9857 106.74ZM116.646 116.554C116.459 116.554 116.365 116.461 116.178 116.461C115.991 116.461 114.309 115.994 113.748 115.433C113.281 114.872 112.72 114.405 112.253 114.031C111.785 113.657 111.879 113.189 111.505 112.816C111.131 112.535 111.225 111.974 111.038 111.507L111.598 111.133C111.318 111.133 111.131 111.04 110.944 111.04C111.131 110.853 111.505 110.666 111.411 110.572C111.411 110.385 111.318 110.198 111.225 110.105C111.318 108.796 111.598 107.581 112.159 106.179C111.598 106.273 111.318 106.833 110.757 107.488C108.981 109.544 107.766 110.946 104.214 113.47C103.56 113.937 102.906 114.311 102.251 114.591C100.569 115.433 99.4473 115.713 98.793 115.526L97.7648 114.218C97.4844 113.376 98.6995 113.096 100.008 112.442C103.373 110.759 107.018 107.675 109.075 105.151C107.86 105.151 106.738 105.058 105.616 104.684C103.747 104.029 103.747 102.16 104.401 100.758C105.149 99.0755 106.364 97.4865 107.953 96.3648C110.29 94.6824 115.057 93.8412 117.02 95.6171C117.394 95.8975 117.487 96.4583 117.487 96.7387C117.58 97.393 117.113 98.0473 116.926 98.6081L115.991 100.01C116.739 100.01 117.207 100.104 117.674 100.197C118.422 100.384 118.702 100.851 118.328 101.599L117.394 103.095C116.739 103.842 116.365 104.684 116.178 105.431C115.805 106.273 115.431 107.207 115.15 108.049C114.683 109.731 114.589 111.414 115.057 113.003C115.337 113.937 116.085 114.405 117.02 114.498C119.263 114.685 121.319 112.816 121.319 112.816C121.506 112.629 121.6 112.629 121.693 112.722C121.319 113.003 121.413 113.096 121.132 113.283C121.226 113.376 121.226 113.376 121.693 113.376C121.413 113.47 121.319 113.563 121.132 113.563C121.132 113.657 121.226 113.657 121.226 113.657C122.161 113.47 122.908 113.003 123.936 112.722C123.843 112.816 123.936 112.816 123.843 112.909C122.908 113.844 122.721 114.031 122.254 114.218L121.6 114.591L120.852 115.246L119.73 115.807C118.796 116.274 118.515 116.367 117.58 116.461C117.487 116.554 117.394 116.554 117.3 116.554H116.646ZM107.86 103.375C109.355 104.123 111.225 103.375 112.346 101.88C113.187 100.851 114.963 97.6734 114.216 96.5518C113.842 95.991 112.346 96.1779 111.598 96.6453C109.449 97.9538 108.794 98.7951 107.673 100.945C107.299 101.599 107.112 103.001 107.86 103.375ZM113.655 100.758C115.057 100.01 115.15 98.7016 115.805 97.58C115.898 97.2995 116.459 96.6453 115.618 96.6453L113.655 100.758ZM105.149 102.253C105.242 101.693 105.803 101.132 105.99 100.571C105.149 100.851 105.149 100.851 105.149 102.253ZM111.505 105.805C111.692 105.525 111.879 105.431 111.972 105.244C111.505 105.431 111.505 105.431 111.505 105.805ZM113 110.479C113.468 109.731 113 108.89 113.281 108.049C113.561 107.301 113.842 106.366 113.935 105.525L113.655 105.712C113.187 106.179 113.374 106.833 112.813 107.114C112.533 107.207 112.72 107.488 112.72 107.581C112.627 107.768 112.72 107.862 112.72 107.955C112.533 108.703 112.346 109.451 112.159 110.011C112.533 110.198 112.72 110.385 113 110.479ZM106.925 108.703C108.233 107.955 109.636 106.74 110.009 105.992C108.981 106.833 107.953 107.768 106.925 108.703ZM121.6 113.283L121.506 113.096C121.506 113.003 121.6 112.909 121.6 112.909C122.254 113.003 122.441 112.442 123.002 112.255H123.656C123.936 112.255 124.123 112.161 123.656 111.6L122.067 112.629C121.974 112.629 122.254 112.442 121.974 112.348L125.338 109.825C126.367 109.544 126.741 109.451 127.208 109.731C127.021 109.731 125.619 111.04 125.245 111.133L125.338 111.414C125.058 111.414 124.871 111.507 125.152 111.6C124.871 112.068 124.217 112.068 124.123 112.348C124.123 112.348 124.123 112.442 124.03 112.442C123.469 112.442 123.002 112.535 122.721 112.722C122.441 112.909 122.441 113.096 122.067 113.189C121.88 113.283 121.787 113.189 121.6 113.283ZM120.572 113.844C120.665 113.844 120.852 113.75 120.945 113.657C121.039 113.563 120.945 113.563 120.945 113.47L120.572 113.844ZM141.19 118.611C141.003 118.611 140.91 118.611 140.817 118.517C139.414 117.769 138.012 117.115 137.265 115.807C137.078 115.526 136.984 115.339 136.891 115.059C136.33 113.75 136.05 112.348 136.33 110.853C136.61 109.825 137.171 107.581 137.171 107.394C136.704 107.488 136.236 107.488 135.863 107.488H132.498C132.03 107.488 131.656 107.394 131.283 107.488C131.096 107.488 130.909 107.768 130.815 107.955C130.722 108.422 130.535 108.89 130.348 109.451L130.067 109.731C129.974 109.825 129.787 109.918 129.787 110.011C129.507 110.666 129.32 111.32 129.133 111.974L128.572 114.124C128.478 114.591 128.385 115.059 128.385 115.433V115.713C128.572 115.9 128.665 116.18 128.385 116.461C128.198 116.741 127.824 116.741 127.357 116.554C125.861 115.713 125.581 114.218 125.674 112.722C125.674 111.507 126.329 110.198 126.609 108.89C126.796 108.422 126.703 108.049 126.983 107.488L126.422 107.301C126.142 107.207 125.768 107.02 126.329 105.525C126.329 105.151 126.422 104.964 126.889 104.964H127.731L129.133 100.384C129.32 99.7298 129.787 99.0755 129.6 98.3277C129.6 98.2342 129.787 98.0473 129.881 97.9538C130.067 97.58 130.348 97.2061 130.909 97.0191C131.47 96.8322 131.75 97.2995 132.124 97.58C132.498 97.8604 132.498 98.5147 132.591 99.0755C132.685 99.6363 132.872 100.291 132.778 100.851C132.685 101.599 132.498 102.44 132.311 103.282C132.124 103.749 131.937 104.31 131.75 104.964H135.302C136.05 104.964 136.797 104.871 137.545 104.871C138.012 104.871 138.293 104.777 138.386 104.497C139.041 103.188 139.695 101.88 140.443 100.664C140.723 100.01 141.284 99.3559 141.845 98.982C142.406 98.4212 143.621 98.3277 144.088 99.4494C144.088 99.5428 144.088 99.7298 144.181 99.8232C144.836 100.291 144.555 100.851 144.368 101.225C143.995 101.973 143.527 102.814 143.247 103.562C143.06 103.749 142.966 104.497 142.779 104.871C143.527 104.777 144.181 105.244 144.555 106.179C144.555 106.74 144.088 106.833 143.714 107.02C143.247 107.207 142.312 107.02 141.751 107.114C141.658 107.114 141.564 107.207 141.471 107.394C141.377 107.862 141.284 107.768 141.19 108.236C141.003 108.983 141.003 109.264 140.723 110.011C140.256 111.414 139.975 112.816 140.069 114.218C140.162 114.872 140.162 115.339 140.162 115.807C140.256 116.274 140.63 116.461 141.097 116.18C142.312 115.526 143.621 114.965 144.742 114.124C145.864 113.376 146.705 112.722 147.546 111.787C148.388 111.04 149.042 110.198 149.883 109.357C150.164 108.89 150.631 108.422 150.911 108.049C151.285 107.675 151.566 107.207 151.939 106.647C152.407 106.086 152.874 105.525 153.435 104.964C153.435 105.058 153.528 105.058 153.528 105.151C153.155 105.712 152.781 106.273 152.5 106.833C152.22 107.301 152.033 107.768 151.846 108.236C151.753 108.236 151.005 109.544 151.098 109.544C150.631 110.011 150.164 110.572 149.696 111.133C149.883 111.04 150.164 111.04 150.257 110.853C151.005 110.105 151.659 109.077 152.407 108.329C152.407 108.422 152.313 108.516 152.313 108.703C151.846 109.544 151.379 110.479 150.724 111.227L149.696 112.255C149.603 112.348 149.696 112.442 149.603 112.722C148.948 113.003 147.64 113.937 147.453 114.311C147.827 114.218 148.388 114.124 148.855 114.124V114.311C148.668 114.311 148.481 114.405 148.201 114.405C148.388 114.685 148.481 114.498 148.948 114.591C148.855 114.778 147.827 115.152 147.733 115.246L146.892 115.9L146.051 116.087L145.21 116.741C145.397 116.835 145.49 116.928 145.677 117.115C145.023 117.769 144.181 118.237 143.34 118.424C142.592 118.517 141.845 118.891 141.19 118.611ZM137.171 111.133C137.732 111.133 137.732 111.133 137.545 110.759C137.732 110.666 137.825 110.666 138.012 110.666C138.012 110.572 138.106 110.572 138.106 110.479L137.545 110.198C137.732 110.105 137.919 110.011 138.012 109.918C138.106 109.451 138.386 108.89 138.199 108.422C138.012 108.049 138.48 108.329 138.48 108.049L138.293 107.581C137.358 108.703 137.545 110.011 137.171 111.133ZM154.389 112.161C154.202 112.161 153.921 112.161 153.641 112.068C153.454 111.881 152.706 111.414 152.145 111.133C151.304 110.011 151.024 108.796 151.398 107.394C151.678 106.74 151.865 106.273 152.052 105.712C152.145 105.618 152.145 105.618 152.145 105.525C152.239 104.964 152.519 104.497 152.706 103.842L153.36 102.721C153.734 102.253 153.921 101.786 154.108 101.599C155.136 100.01 156.352 98.8885 157.473 97.4865C158.595 96.2714 160.184 95.1497 161.96 94.9628C163.923 95.3367 166.166 95.7106 166.54 97.8604C166.82 99.1689 166.072 100.01 165.605 100.945C166.353 100.851 167.007 100.104 168.129 100.197C168.69 100.384 169.063 100.851 169.25 101.506C169.25 101.506 169.344 102.534 169.063 103.282C168.97 103.375 168.97 103.562 168.877 103.749C168.596 105.058 168.596 106.46 169.157 107.768C169.25 108.142 169.531 108.516 169.998 108.796C170.185 108.89 170.372 108.89 170.652 108.796C170.933 108.703 171.307 108.703 171.681 108.516C173.176 107.862 174.672 106.74 175.98 105.805C177.195 105.058 178.597 104.216 179.906 103.282C182.149 101.88 181.962 102.067 184.112 100.664C184.766 100.104 185.514 99.6363 186.449 99.0755L186.729 99.2624L185.888 100.384C186.075 100.851 186.075 100.851 186.636 100.478C186.636 100.291 186.636 99.9167 187.103 100.104C186.168 101.506 184.673 102.253 183.458 103.095C182.99 103.469 182.336 103.749 182.056 103.936C181.775 104.216 181.402 104.684 180.934 104.871C180.841 104.964 180.56 104.964 180.28 105.058C180.28 105.058 180.28 104.964 180.186 104.871C180.28 104.871 180.56 104.684 180.747 104.497C181.121 104.31 181.308 104.029 181.215 103.656C181.215 103.562 181.028 103.469 180.934 103.469C180.186 103.842 179.719 104.31 179.065 104.777C177.943 105.244 177.102 105.805 176.167 106.553C175.887 106.647 175.606 106.927 175.232 107.02V107.207C175.513 107.114 175.793 107.114 175.98 106.927C176.354 106.647 176.635 106.647 176.915 106.833C176.915 106.74 176.821 106.647 176.821 106.553C177.476 106.273 177.943 106.366 178.504 105.899C179.065 105.525 179.719 105.338 180.093 104.964C180.093 105.151 179.999 105.431 179.719 105.618C178.971 105.992 178.224 106.553 177.476 106.927C177.289 107.02 177.102 107.207 176.915 107.488C176.728 107.675 176.541 107.768 176.261 107.862C176.541 107.955 176.728 107.955 176.915 107.955L176.821 108.049C176.635 108.142 176.448 108.236 176.167 108.236V108.609C176.635 108.329 177.289 108.049 177.756 107.768V107.955C177.289 108.329 176.635 108.703 176.261 109.17C175.513 110.011 174.672 110.198 173.737 110.853C173.176 111.133 172.896 111.04 172.428 111.32C172.241 111.414 171.774 111.6 171.494 111.6C171.4 111.6 170.933 111.787 170.652 111.787C170.279 111.787 169.437 111.974 169.063 111.881C168.877 111.787 168.316 111.787 168.129 111.6C167.848 111.507 167.661 111.133 167.381 111.04C166.82 110.292 166.166 109.918 165.792 109.077C165.231 108.516 165.325 108.329 165.044 107.862C164.857 107.768 164.857 107.581 164.764 107.394C164.11 107.768 164.11 108.703 163.455 108.703C163.268 108.89 163.175 109.17 162.988 109.264C161.866 110.105 160.371 111.32 158.875 111.974C157.38 112.722 155.791 112.722 154.389 112.161ZM154.202 109.451C155.23 109.451 156.912 109.357 157.847 108.983C159.062 108.516 159.903 107.862 160.838 106.833C162.24 105.338 162.894 104.216 164.296 102.721C164.39 102.721 164.764 102.253 164.764 102.253H164.67C162.614 102.067 163.362 97.9538 163.455 97.8604C160.651 98.3277 157.38 102.721 156.352 104.497C155.51 105.992 154.669 107.581 154.202 109.451ZM181.962 103.749C182.056 103.749 182.149 103.469 182.149 103.375C182.149 103.001 182.336 102.908 182.523 102.814C182.617 102.627 182.99 102.534 183.271 102.44C183.458 102.347 183.832 102.347 184.019 102.253V101.693C184.206 101.599 184.299 101.412 184.393 101.319C184.393 101.225 184.393 101.132 184.299 101.132C184.112 101.319 183.645 101.599 183.177 101.88C182.523 102.253 181.308 103.095 181.215 103.282C181.402 103.375 181.775 103.562 181.962 103.749ZM196.753 103.936L195.725 103.001C196.286 100.851 197.034 96.7387 198.062 92.0652C199.557 85.6158 200.679 81.7835 200.772 80.4749C200.679 80.288 200.772 79.9141 201.053 79.7272C201.053 79.4468 200.772 79.0729 201.333 78.9794C201.24 78.6055 201.24 78.2317 201.333 78.0447C202.174 75.0537 202.922 71.4084 203.67 68.1369C203.577 68.0434 203.67 67.95 203.95 67.763C205.352 68.0434 206.661 68.6043 207.315 69.8194C207.502 70.2867 207.502 70.7541 207.502 71.0345C206.474 73.932 205.913 76.9231 204.792 79.8207C204.605 80.5684 204.231 81.2227 204.044 81.9705C204.044 82.7182 203.67 83.279 203.39 83.9333C203.296 84.6811 203.016 85.3354 202.735 86.1766C202.548 86.5505 202.081 86.9244 202.268 87.2048C202.361 87.7656 202.174 88.046 201.988 88.5134C201.801 89.0742 201.894 89.5415 201.52 89.8219C201.333 89.9154 201.24 90.0089 201.24 90.1024C201.614 91.224 200.959 91.7848 200.679 92.626C200.585 93.0934 200.305 93.7477 200.305 94.402C200.399 95.4301 198.903 99.1689 198.529 100.197C198.716 100.945 198.062 101.786 197.968 102.534C197.594 103.188 197.594 103.842 196.753 103.936ZM191.425 116.274C190.958 114.778 191.238 113.003 193.295 111.414C194.697 110.946 195.258 111.6 196.005 112.068C196.473 112.535 196.66 112.909 196.566 113.563C196.192 114.405 195.725 115.152 194.977 115.807C194.323 116.461 193.014 117.489 191.425 116.274Z" fill="#832321"></path></svg> 