<?xml version="1.0" encoding="UTF-8"?> <svg xmlns="http://www.w3.org/2000/svg" width="308" height="318" viewBox="0 0 308 318" fill="none"><path d="M2.27997 45.8288C1.55464 45.8288 1.0213 45.6155 0.679969 45.1888C0.338635 44.7621 0.167969 44.3781 0.167969 44.0368C0.167969 43.3968 0.359969 42.9275 0.743969 42.6288C1.12797 42.2875 1.63997 42.1168 2.27997 42.1168C3.94397 42.1168 5.45864 41.7541 6.82397 41.0288C8.23197 40.3035 9.36264 39.1941 10.216 37.7008C10.8133 36.6341 11.3466 35.3328 11.816 33.7968C12.2853 32.2608 12.84 30.3195 13.48 27.9728C13.608 27.5888 13.7573 26.7781 13.928 25.5408C14.1413 24.2608 14.3546 22.6608 14.568 20.7408C14.7813 18.8208 14.952 16.6021 15.08 14.0848C15.2506 11.5248 15.3573 8.75145 15.4 5.76479C15.4 4.95412 15.1866 4.25012 14.76 3.65279C14.376 3.05545 13.928 2.56479 13.416 2.18079C12.9466 1.79679 12.4986 1.51945 12.072 1.34879C11.6453 1.13545 11.3893 1.02879 11.304 1.02879V0.708786H38.696V1.02879C38.6106 1.02879 38.376 1.13545 37.992 1.34879C37.6506 1.51945 37.2666 1.79679 36.84 2.18079C36.4133 2.56479 36.0293 3.05545 35.688 3.65279C35.3893 4.25012 35.24 4.95412 35.24 5.76479V40.4528C35.24 41.2635 35.3893 41.9675 35.688 42.5648C36.0293 43.1621 36.4133 43.6528 36.84 44.0368C37.2666 44.4208 37.6506 44.7195 37.992 44.9328C38.376 45.1035 38.6106 45.1888 38.696 45.1888V45.5088H29.224V45.1888C29.864 44.8901 30.44 44.5061 30.952 44.0368C31.4213 43.6101 31.8266 43.1195 32.168 42.5648C32.5093 41.9675 32.68 41.2635 32.68 40.4528V1.66879H16.488V5.76479C16.488 7.94079 16.4453 10.0955 16.36 12.2288C16.2746 14.3195 16.168 16.2608 16.04 18.0528C15.9546 19.8448 15.8266 21.4235 15.656 22.7888C15.528 24.1541 15.4 25.2208 15.272 25.9888C14.9306 28.0795 14.4826 30.2981 13.928 32.6448C13.3733 34.9915 12.6053 37.1461 11.624 39.1088C10.6426 41.0288 9.4053 42.6288 7.91197 43.9088C6.41864 45.1888 4.5413 45.8288 2.27997 45.8288ZM48.4965 40.4528C48.4965 41.2635 48.6671 41.9675 49.0085 42.5648C49.3925 43.1195 49.7978 43.6101 50.2245 44.0368C50.7365 44.5061 51.3125 44.8901 51.9525 45.1888V45.5088H42.4805V45.1888C43.1205 44.8901 43.6965 44.5061 44.2085 44.0368C44.6778 43.6101 45.0831 43.1195 45.4245 42.5648C45.7658 41.9675 45.9365 41.2635 45.9365 40.4528V5.76479C45.9365 4.95412 45.7658 4.25012 45.4245 3.65279C45.0831 3.05545 44.6778 2.56479 44.2085 2.18079C43.6965 1.71145 43.1205 1.32745 42.4805 1.02879V0.708786H51.9525V1.02879C51.3125 1.32745 50.7365 1.71145 50.2245 2.18079C49.7978 2.56479 49.3925 3.05545 49.0085 3.65279C48.6671 4.25012 48.4965 4.95412 48.4965 5.76479V21.5728H56.6245C56.7525 18.4155 57.2858 15.5355 58.2245 12.9328C59.1631 10.2875 60.4431 8.02612 62.0645 6.14879C63.7285 4.22879 65.7125 2.73545 68.0165 1.66879C70.3205 0.602119 72.9018 0.0687866 75.7605 0.0687866C78.7045 0.0687866 81.3498 0.644787 83.6965 1.79679C86.0858 2.90612 88.1125 4.48479 89.7765 6.53279C91.4405 8.58079 92.7205 11.0128 93.6165 13.8288C94.5125 16.6448 94.9605 19.7381 94.9605 23.1088C94.9605 26.4795 94.5125 29.5728 93.6165 32.3888C92.7205 35.2048 91.4405 37.6368 89.7765 39.6848C88.1125 41.7328 86.0858 43.3328 83.6965 44.4848C81.3498 45.5941 78.7045 46.1488 75.7605 46.1488C72.8165 46.1488 70.1498 45.5941 67.7605 44.4848C65.4138 43.3328 63.4085 41.7328 61.7445 39.6848C60.0805 37.6368 58.8005 35.2048 57.9045 32.3888C57.0085 29.5728 56.5605 26.4795 56.5605 23.1088V22.5328H48.4965V40.4528ZM75.7605 45.1888C78.4058 45.1888 80.7525 44.5915 82.8005 43.3968C84.8911 42.1595 86.6405 40.5168 88.0485 38.4688C89.4565 36.4208 90.5231 34.0741 91.2485 31.4288C92.0165 28.7408 92.4005 25.9675 92.4005 23.1088C92.4005 20.2075 92.0165 17.4341 91.2485 14.7888C90.5231 12.1435 89.4565 9.79679 88.0485 7.74879C86.6405 5.70079 84.8911 4.07946 82.8005 2.88479C80.7525 1.64745 78.4058 1.02879 75.7605 1.02879C73.1151 1.02879 70.7471 1.64745 68.6565 2.88479C66.6085 4.07946 64.8805 5.70079 63.4725 7.74879C62.0645 9.79679 60.9765 12.1435 60.2085 14.7888C59.4831 17.4341 59.1205 20.2075 59.1205 23.1088C59.1205 25.9675 59.4831 28.7408 60.2085 31.4288C60.9765 34.0741 62.0645 36.4208 63.4725 38.4688C64.8805 40.5168 66.6085 42.1595 68.6565 43.3968C70.7471 44.5915 73.1151 45.1888 75.7605 45.1888ZM109.094 20.5488C111.654 20.5488 114.15 20.6768 116.582 20.9328C119.014 21.1888 121.169 21.7648 123.046 22.6608C124.966 23.5568 126.502 24.8581 127.654 26.5648C128.806 28.2715 129.382 30.5755 129.382 33.4768C129.382 36.1648 128.785 38.2981 127.59 39.8768C126.396 41.4555 124.902 42.6715 123.11 43.5248C121.318 44.3355 119.398 44.8688 117.35 45.1248C115.302 45.3808 113.425 45.5088 111.718 45.5088H96.2305V45.1888C96.6145 45.1035 97.0198 44.9115 97.4465 44.6128C97.8731 44.3141 98.2358 43.9515 98.5345 43.5248C98.8758 43.0555 99.1531 42.5648 99.3665 42.0528C99.5798 41.4981 99.6865 40.9648 99.6865 40.4528V5.76479C99.6865 4.95412 99.5158 4.25012 99.1745 3.65279C98.8758 3.05545 98.5131 2.56479 98.0865 2.18079C97.6598 1.79679 97.2545 1.51945 96.8705 1.34879C96.5291 1.13545 96.3158 1.02879 96.2305 1.02879V0.708786H127.462V9.92479H127.142C127.142 9.66879 127.1 9.11412 127.014 8.26079C126.972 7.36479 126.78 6.42612 126.438 5.44479C126.14 4.46345 125.67 3.58879 125.03 2.82079C124.39 2.05279 123.516 1.66879 122.406 1.66879H102.246V20.6128C102.161 20.6128 102.46 20.6128 103.142 20.6128C103.825 20.6128 104.593 20.6128 105.446 20.6128C106.342 20.5701 107.174 20.5488 107.942 20.5488C108.71 20.5488 109.094 20.5488 109.094 20.5488ZM111.718 44.5488C113.126 44.5488 114.705 44.4208 116.454 44.1648C118.204 43.8661 119.846 43.3328 121.382 42.5648C122.918 41.7541 124.198 40.6235 125.222 39.1728C126.289 37.6795 126.822 35.7381 126.822 33.3488C126.822 30.5755 126.225 28.3995 125.03 26.8208C123.878 25.2421 122.406 24.0688 120.614 23.3008C118.822 22.5328 116.86 22.0635 114.726 21.8928C112.593 21.6795 110.566 21.5728 108.646 21.5728H102.246V44.5488H111.718ZM151.118 0.0687866C154.062 0.0687866 156.707 0.644787 159.054 1.79679C161.443 2.90612 163.47 4.48479 165.134 6.53279C166.798 8.58079 168.078 11.0128 168.974 13.8288C169.87 16.6448 170.318 19.7381 170.318 23.1088C170.318 26.4795 169.87 29.5728 168.974 32.3888C168.078 35.2048 166.798 37.6368 165.134 39.6848C163.47 41.7328 161.443 43.3328 159.054 44.4848C156.707 45.5941 154.062 46.1488 151.118 46.1488C148.174 46.1488 145.507 45.5941 143.118 44.4848C140.771 43.3328 138.766 41.7328 137.102 39.6848C135.438 37.6368 134.158 35.2048 133.262 32.3888C132.366 29.5728 131.918 26.4795 131.918 23.1088C131.918 19.7381 132.366 16.6448 133.262 13.8288C134.158 11.0128 135.438 8.58079 137.102 6.53279C138.766 4.48479 140.771 2.90612 143.118 1.79679C145.507 0.644787 148.174 0.0687866 151.118 0.0687866ZM151.118 45.1888C153.763 45.1888 156.11 44.5915 158.158 43.3968C160.249 42.1595 161.998 40.5168 163.406 38.4688C164.814 36.4208 165.881 34.0741 166.606 31.4288C167.374 28.7408 167.758 25.9675 167.758 23.1088C167.758 20.2075 167.374 17.4341 166.606 14.7888C165.881 12.1435 164.814 9.79679 163.406 7.74879C161.998 5.70079 160.249 4.07946 158.158 2.88479C156.11 1.64745 153.763 1.02879 151.118 1.02879C148.473 1.02879 146.105 1.64745 144.014 2.88479C141.966 4.07946 140.238 5.70079 138.83 7.74879C137.422 9.79679 136.334 12.1435 135.566 14.7888C134.841 17.4341 134.478 20.2075 134.478 23.1088C134.478 25.9675 134.841 28.7408 135.566 31.4288C136.334 34.0741 137.422 36.4208 138.83 38.4688C140.238 40.5168 141.966 42.1595 144.014 43.3968C146.105 44.5915 148.473 45.1888 151.118 45.1888ZM174.999 5.76479C174.999 5.25279 174.892 4.74079 174.679 4.22879C174.466 3.71679 174.188 3.24745 173.847 2.82079C173.548 2.35145 173.186 1.96745 172.759 1.66879C172.375 1.32745 171.97 1.11412 171.543 1.02879V0.708786H184.855C189.378 0.708786 192.983 1.56212 195.671 3.26879C198.359 4.93279 199.703 7.55679 199.703 11.1408C199.703 12.1648 199.554 13.2101 199.255 14.2768C198.999 15.3008 198.53 16.2608 197.847 17.1568C197.207 18.0101 196.332 18.7781 195.223 19.4608C194.114 20.1008 192.727 20.5701 191.063 20.8688C192.983 20.9541 194.775 21.2528 196.439 21.7648C198.103 22.2341 199.532 22.9595 200.727 23.9408C201.964 24.9221 202.924 26.2021 203.607 27.7808C204.332 29.3168 204.695 31.2155 204.695 33.4768C204.695 36.1648 204.098 38.2981 202.903 39.8768C201.708 41.4555 200.215 42.6715 198.423 43.5248C196.631 44.3355 194.711 44.8688 192.663 45.1248C190.615 45.3808 188.738 45.5088 187.031 45.5088H171.543V45.1888C171.927 45.1035 172.332 44.9115 172.759 44.6128C173.186 44.3141 173.548 43.9515 173.847 43.5248C174.188 43.0555 174.466 42.5648 174.679 42.0528C174.892 41.4981 174.999 40.9648 174.999 40.4528V5.76479ZM177.559 20.6128C177.474 20.6128 177.858 20.6128 178.711 20.6128C179.564 20.6128 180.524 20.6128 181.591 20.6128C182.658 20.6128 183.639 20.6128 184.535 20.6128C185.474 20.5701 185.943 20.5488 185.943 20.5488C189.527 20.3355 192.279 19.4608 194.199 17.9248C196.162 16.3888 197.143 14.1275 197.143 11.1408C197.143 8.15412 196.076 5.82879 193.943 4.16479C191.81 2.50079 188.567 1.66879 184.215 1.66879H177.559V20.6128ZM187.031 44.5488C188.439 44.5488 190.018 44.4208 191.767 44.1648C193.516 43.8661 195.159 43.3328 196.695 42.5648C198.231 41.7541 199.511 40.6235 200.535 39.1728C201.602 37.6795 202.135 35.7381 202.135 33.3488C202.135 31.4715 201.858 29.8928 201.303 28.6128C200.748 27.3328 200.002 26.2661 199.063 25.4128C198.167 24.5595 197.1 23.8981 195.863 23.4288C194.668 22.9595 193.388 22.5968 192.023 22.3408C190.7 22.0848 189.335 21.9141 187.927 21.8288C186.562 21.7435 185.239 21.6581 183.959 21.5728H177.559V44.5488H187.031ZM208.124 5.76479C208.124 4.95412 207.953 4.25012 207.612 3.65279C207.271 3.05545 206.865 2.56479 206.396 2.18079C205.884 1.71145 205.308 1.32745 204.668 1.02879V0.708786H214.14V1.02879C213.5 1.32745 212.924 1.71145 212.412 2.18079C211.985 2.56479 211.58 3.05545 211.196 3.65279C210.855 4.25012 210.684 4.95412 210.684 5.76479V20.6128C210.599 20.6128 210.833 20.6128 211.388 20.6128C211.943 20.6128 212.583 20.6128 213.308 20.6128C214.033 20.5701 214.695 20.5488 215.292 20.5488C215.932 20.5488 216.252 20.5488 216.252 20.5488C218.812 20.5488 221.308 20.6768 223.74 20.9328C226.172 21.1888 228.327 21.7648 230.204 22.6608C232.124 23.5568 233.66 24.8581 234.812 26.5648C235.964 28.2715 236.54 30.5755 236.54 33.4768C236.54 36.1648 235.943 38.2981 234.748 39.8768C233.553 41.4555 232.06 42.6715 230.268 43.5248C228.476 44.3355 226.556 44.8688 224.508 45.1248C222.46 45.3808 220.583 45.5088 218.876 45.5088H204.668V45.1888C205.052 45.1035 205.457 44.9115 205.884 44.6128C206.311 44.3141 206.673 43.9515 206.972 43.5248C207.313 43.0555 207.591 42.5648 207.804 42.0528C208.017 41.4981 208.124 40.9648 208.124 40.4528V5.76479ZM218.876 44.5488C220.284 44.5488 221.863 44.4208 223.612 44.1648C225.361 43.8661 227.004 43.3328 228.54 42.5648C230.076 41.7541 231.356 40.6235 232.38 39.1728C233.447 37.6795 233.98 35.7381 233.98 33.3488C233.98 30.5755 233.383 28.3995 232.188 26.8208C231.036 25.2421 229.564 24.0688 227.772 23.3008C225.98 22.5328 224.017 22.0635 221.884 21.8928C219.751 21.6795 217.724 21.5728 215.804 21.5728H210.684V44.5488H218.876ZM238.271 43.9088C238.271 43.2688 238.463 42.7781 238.847 42.4368C239.231 42.0528 239.743 41.8608 240.383 41.8608C241.023 41.8608 241.535 42.0528 241.919 42.4368C242.303 42.7781 242.495 43.2688 242.495 43.9088C242.495 44.5488 242.303 45.0395 241.919 45.3808C241.535 45.6795 241.023 45.8288 240.383 45.8288C239.743 45.8288 239.231 45.6795 238.847 45.3808C238.463 45.0395 238.271 44.5488 238.271 43.9088ZM9.25597 85.9088C10.3653 84.7568 11.5386 83.5621 12.776 82.3248C14.0133 81.0875 15.2293 79.8715 16.424 78.6768C17.6613 77.4395 18.856 76.2448 20.008 75.0928C21.2026 73.8981 22.2906 72.7888 23.272 71.7648C23.9973 70.9541 24.4453 70.2501 24.616 69.6528C24.8293 69.0555 24.8933 68.5648 24.808 68.1808C24.7653 67.7968 24.6373 67.5195 24.424 67.3488C24.2106 67.1355 24.0613 67.0288 23.976 67.0288V66.7088H33.448V67.0288C32.3386 67.3275 31.2506 67.7115 30.184 68.1808C29.2453 68.5648 28.264 69.0555 27.24 69.6528C26.2586 70.2501 25.4053 70.9541 24.68 71.7648L9.31997 87.2528C10.4293 87.5941 11.432 88.2128 12.328 89.1088C13.224 90.0048 13.992 90.8581 14.632 91.6688L21.544 100.181C22.9093 101.759 24.232 103.231 25.512 104.597C26.8346 105.919 28.1786 107.071 29.544 108.053C30.952 109.034 32.424 109.802 33.96 110.357C35.5386 110.911 37.2453 111.189 39.08 111.189V111.509H33.192C31.9973 111.509 30.952 111.381 30.056 111.125C29.16 110.869 28.2213 110.378 27.24 109.653C26.2586 108.885 25.1493 107.861 23.912 106.581C22.6746 105.301 21.16 103.637 19.368 101.589L11.368 91.6688C10.344 90.3888 9.42664 89.4715 8.61597 88.9168C7.84797 88.3195 7.0373 88.0208 6.18397 88.0208V106.453C6.18397 107.263 6.35464 107.967 6.69597 108.565C7.07997 109.119 7.4853 109.61 7.91197 110.037C8.42397 110.506 8.99997 110.89 9.63997 111.189V111.509H0.167969V111.189C0.253302 111.189 0.466635 111.103 0.807969 110.933C1.19197 110.719 1.5973 110.421 2.02397 110.037C2.45064 109.653 2.8133 109.162 3.11197 108.565C3.4533 107.967 3.62397 107.263 3.62397 106.453V71.7648C3.62397 70.9541 3.4533 70.2501 3.11197 69.6528C2.8133 69.0555 2.45064 68.5648 2.02397 68.1808C1.5973 67.7968 1.19197 67.5195 0.807969 67.3488C0.466635 67.1355 0.253302 67.0288 0.167969 67.0288V66.7088H9.63997V67.0288C8.99997 67.3275 8.42397 67.7115 7.91197 68.1808C7.4853 68.5648 7.07997 69.0555 6.69597 69.6528C6.35464 70.2501 6.18397 70.9541 6.18397 71.7648V87.0608C6.86664 87.0608 7.4213 86.9968 7.84797 86.8688C8.3173 86.6981 8.78664 86.3781 9.25597 85.9088ZM52.5555 66.0688C55.4995 66.0688 58.1448 66.6448 60.4915 67.7968C62.8808 68.9061 64.9075 70.4848 66.5715 72.5328C68.2355 74.5808 69.5155 77.0128 70.4115 79.8288C71.3075 82.6448 71.7555 85.7381 71.7555 89.1088C71.7555 92.4795 71.3075 95.5728 70.4115 98.3888C69.5155 101.205 68.2355 103.637 66.5715 105.685C64.9075 107.733 62.8808 109.333 60.4915 110.485C58.1448 111.594 55.4995 112.149 52.5555 112.149C49.6115 112.149 46.9448 111.594 44.5555 110.485C42.2088 109.333 40.2035 107.733 38.5395 105.685C36.8755 103.637 35.5955 101.205 34.6995 98.3888C33.8035 95.5728 33.3555 92.4795 33.3555 89.1088C33.3555 85.7381 33.8035 82.6448 34.6995 79.8288C35.5955 77.0128 36.8755 74.5808 38.5395 72.5328C40.2035 70.4848 42.2088 68.9061 44.5555 67.7968C46.9448 66.6448 49.6115 66.0688 52.5555 66.0688ZM52.5555 111.189C55.2008 111.189 57.5475 110.591 59.5955 109.397C61.6861 108.159 63.4355 106.517 64.8435 104.469C66.2515 102.421 67.3181 100.074 68.0435 97.4288C68.8115 94.7408 69.1955 91.9675 69.1955 89.1088C69.1955 86.2075 68.8115 83.4341 68.0435 80.7888C67.3181 78.1435 66.2515 75.7968 64.8435 73.7488C63.4355 71.7008 61.6861 70.0795 59.5955 68.8848C57.5475 67.6475 55.2008 67.0288 52.5555 67.0288C49.9101 67.0288 47.5421 67.6475 45.4515 68.8848C43.4035 70.0795 41.6755 71.7008 40.2675 73.7488C38.8595 75.7968 37.7715 78.1435 37.0035 80.7888C36.2781 83.4341 35.9155 86.2075 35.9155 89.1088C35.9155 91.9675 36.2781 94.7408 37.0035 97.4288C37.7715 100.074 38.8595 102.421 40.2675 104.469C41.6755 106.517 43.4035 108.159 45.4515 109.397C47.5421 110.591 49.9101 111.189 52.5555 111.189ZM82.0685 85.9088C83.1778 84.7568 84.3511 83.5621 85.5885 82.3248C86.8258 81.0875 88.0418 79.8715 89.2365 78.6768C90.4738 77.4395 91.6685 76.2448 92.8205 75.0928C94.0151 73.8981 95.1031 72.7888 96.0845 71.7648C96.8098 70.9541 97.2578 70.2501 97.4285 69.6528C97.6418 69.0555 97.7058 68.5648 97.6205 68.1808C97.5778 67.7968 97.4498 67.5195 97.2365 67.3488C97.0231 67.1355 96.8738 67.0288 96.7885 67.0288V66.7088H106.26V67.0288C105.151 67.3275 104.063 67.7115 102.996 68.1808C102.058 68.5648 101.076 69.0555 100.052 69.6528C99.0711 70.2501 98.2178 70.9541 97.4925 71.7648L82.1325 87.2528C83.2418 87.5941 84.2445 88.2128 85.1405 89.1088C86.0365 90.0048 86.8045 90.8581 87.4445 91.6688L94.3565 100.181C95.7218 101.759 97.0445 103.231 98.3245 104.597C99.6471 105.919 100.991 107.071 102.356 108.053C103.764 109.034 105.236 109.802 106.772 110.357C108.351 110.911 110.058 111.189 111.892 111.189V111.509H106.004C104.81 111.509 103.764 111.381 102.868 111.125C101.972 110.869 101.034 110.378 100.052 109.653C99.0711 108.885 97.9618 107.861 96.7245 106.581C95.4871 105.301 93.9725 103.637 92.1805 101.589L84.1805 91.6688C83.1565 90.3888 82.2391 89.4715 81.4285 88.9168C80.6605 88.3195 79.8498 88.0208 78.9965 88.0208V106.453C78.9965 107.263 79.1671 107.967 79.5085 108.565C79.8925 109.119 80.2978 109.61 80.7245 110.037C81.2365 110.506 81.8125 110.89 82.4525 111.189V111.509H72.9805V111.189C73.0658 111.189 73.2791 111.103 73.6205 110.933C74.0045 110.719 74.4098 110.421 74.8365 110.037C75.2631 109.653 75.6258 109.162 75.9245 108.565C76.2658 107.967 76.4365 107.263 76.4365 106.453V71.7648C76.4365 70.9541 76.2658 70.2501 75.9245 69.6528C75.6258 69.0555 75.2631 68.5648 74.8365 68.1808C74.4098 67.7968 74.0045 67.5195 73.6205 67.3488C73.2791 67.1355 73.0658 67.0288 72.9805 67.0288V66.7088H82.4525V67.0288C81.8125 67.3275 81.2365 67.7115 80.7245 68.1808C80.2978 68.5648 79.8925 69.0555 79.5085 69.6528C79.1671 70.2501 78.9965 70.9541 78.9965 71.7648V87.0608C79.6791 87.0608 80.2338 86.9968 80.6605 86.8688C81.1298 86.6981 81.5991 86.3781 82.0685 85.9088ZM127.787 106.453C127.787 107.263 127.958 107.967 128.299 108.565C128.683 109.119 129.089 109.61 129.515 110.037C130.027 110.506 130.603 110.89 131.243 111.189V111.509H121.771V111.189C121.857 111.189 122.07 111.103 122.411 110.933C122.795 110.719 123.201 110.421 123.627 110.037C124.054 109.653 124.417 109.162 124.715 108.565C125.057 107.967 125.227 107.263 125.227 106.453H127.787ZM127.787 66.7088V106.453H125.227V66.7088H127.787ZM114.411 66.7088H138.603V67.6688H114.411V66.7088ZM138.603 66.7088H143.659V75.9248H143.339C143.339 75.6688 143.297 75.1141 143.211 74.2608C143.169 73.3648 142.977 72.4261 142.635 71.4448C142.337 70.4635 141.867 69.5888 141.227 68.8208C140.587 68.0528 139.713 67.6688 138.603 67.6688V66.7088ZM114.411 67.6688C113.302 67.6688 112.427 68.0528 111.787 68.8208C111.147 69.5888 110.657 70.4635 110.315 71.4448C110.017 72.4261 109.825 73.3648 109.739 74.2608C109.697 75.1141 109.675 75.6688 109.675 75.9248H109.355V66.7088H114.411V67.6688ZM146.855 111.509V111.189C146.941 111.189 147.154 111.103 147.495 110.933C147.879 110.719 148.285 110.421 148.711 110.037C149.138 109.653 149.501 109.162 149.799 108.565C150.141 107.967 150.311 107.263 150.311 106.453V71.7648C150.311 70.9541 150.141 70.2501 149.799 69.6528C149.501 69.0555 149.138 68.5648 148.711 68.1808C148.285 67.7968 147.879 67.5195 147.495 67.3488C147.154 67.1355 146.941 67.0288 146.855 67.0288V66.7088H178.215V75.9248H177.895C177.895 75.6688 177.853 75.1141 177.767 74.2608C177.725 73.3648 177.533 72.4261 177.191 71.4448C176.893 70.4635 176.423 69.5888 175.783 68.8208C175.143 68.0528 174.269 67.6688 173.159 67.6688H152.871V87.9568H164.455C165.437 87.9568 166.226 87.7435 166.823 87.3168C167.463 86.8475 167.954 86.3355 168.295 85.7808C168.679 85.1835 168.978 84.4795 169.191 83.6688H169.511V93.2048H169.191C169.191 93.1195 169.127 92.8635 168.999 92.4368C168.871 91.9675 168.615 91.4768 168.231 90.9648C167.89 90.4528 167.421 89.9835 166.823 89.5568C166.226 89.1301 165.437 88.9168 164.455 88.9168H152.871V110.549H173.799C174.909 110.549 175.783 110.165 176.423 109.397C177.063 108.629 177.533 107.754 177.831 106.773C178.173 105.791 178.365 104.874 178.407 104.021C178.493 103.125 178.535 102.549 178.535 102.293H178.855V111.509H146.855ZM198.951 63.5088C197.97 63.5088 197.138 63.3808 196.455 63.1248C195.815 62.8261 195.303 62.5701 194.919 62.3568C193.895 61.8448 193.191 61.3115 192.807 60.7568C192.423 60.1595 192.253 59.6261 192.295 59.1568C192.338 58.6875 192.53 58.3035 192.871 58.0048C193.213 57.6635 193.575 57.4928 193.959 57.4928C194.343 57.4928 194.685 57.6635 194.983 58.0048C195.325 58.3035 195.559 58.8155 195.687 59.5408C195.858 60.5221 196.263 61.2688 196.903 61.7808C197.543 62.2928 198.226 62.5488 198.951 62.5488C199.677 62.5488 200.359 62.2928 200.999 61.7808C201.639 61.2688 202.045 60.5221 202.215 59.5408C202.343 58.8155 202.557 58.3035 202.855 58.0048C203.197 57.6635 203.559 57.4928 203.943 57.4928C204.327 57.4928 204.69 57.6635 205.031 58.0048C205.373 58.3035 205.565 58.6875 205.607 59.1568C205.65 59.6261 205.479 60.1595 205.095 60.7568C204.711 61.3115 204.007 61.8448 202.983 62.3568C202.599 62.5701 202.066 62.8261 201.383 63.1248C200.743 63.3808 199.933 63.5088 198.951 63.5088ZM215.591 106.453C215.591 107.263 215.762 107.967 216.103 108.565C216.487 109.119 216.893 109.61 217.319 110.037C217.831 110.506 218.407 110.89 219.047 111.189V111.509H209.575V111.189C209.661 111.189 209.874 111.103 210.215 110.933C210.599 110.719 211.005 110.421 211.431 110.037C211.858 109.653 212.221 109.162 212.519 108.565C212.861 107.967 213.031 107.263 213.031 106.453V73.6208L184.871 106.453C184.871 107.263 185.042 107.967 185.383 108.565C185.767 109.119 186.173 109.61 186.599 110.037C187.111 110.506 187.687 110.89 188.327 111.189V111.509H178.855V111.189C178.941 111.189 179.154 111.103 179.495 110.933C179.879 110.719 180.285 110.421 180.711 110.037C181.138 109.653 181.501 109.162 181.799 108.565C182.141 107.967 182.311 107.263 182.311 106.453V71.7648C182.311 70.9541 182.141 70.2501 181.799 69.6528C181.501 69.0555 181.138 68.5648 180.711 68.1808C180.285 67.7968 179.879 67.5195 179.495 67.3488C179.154 67.1355 178.941 67.0288 178.855 67.0288V66.7088H188.327V67.0288C187.687 67.3275 187.111 67.7115 186.599 68.1808C186.173 68.5648 185.767 69.0555 185.383 69.6528C185.042 70.2501 184.871 70.9541 184.871 71.7648V104.597L213.031 71.7648C213.031 70.9541 212.861 70.2501 212.519 69.6528C212.221 69.0555 211.858 68.5648 211.431 68.1808C211.005 67.7968 210.599 67.5195 210.215 67.3488C209.874 67.1355 209.661 67.0288 209.575 67.0288V66.7088H219.047V67.0288C218.407 67.3275 217.831 67.7115 217.319 68.1808C216.893 68.5648 216.487 69.0555 216.103 69.6528C215.762 70.2501 215.591 70.9541 215.591 71.7648V106.453ZM221.155 111.829C220.43 111.829 219.896 111.615 219.555 111.189C219.214 110.762 219.043 110.378 219.043 110.037C219.043 109.397 219.235 108.927 219.619 108.629C220.003 108.287 220.515 108.117 221.155 108.117C222.819 108.117 224.334 107.754 225.699 107.029C227.107 106.303 228.238 105.194 229.091 103.701C229.688 102.634 230.222 101.333 230.691 99.7968C231.16 98.2608 231.715 96.3195 232.355 93.9728C232.483 93.5888 232.632 92.7781 232.803 91.5408C233.016 90.2608 233.23 88.6608 233.443 86.7408C233.656 84.8208 233.827 82.6021 233.955 80.0848C234.126 77.5248 234.232 74.7515 234.275 71.7648C234.275 70.9541 234.062 70.2501 233.635 69.6528C233.251 69.0555 232.803 68.5648 232.291 68.1808C231.822 67.7968 231.374 67.5195 230.947 67.3488C230.52 67.1355 230.264 67.0288 230.179 67.0288V66.7088H257.571V67.0288C257.486 67.0288 257.251 67.1355 256.867 67.3488C256.526 67.5195 256.142 67.7968 255.715 68.1808C255.288 68.5648 254.904 69.0555 254.563 69.6528C254.264 70.2501 254.115 70.9541 254.115 71.7648V106.453C254.115 107.263 254.264 107.967 254.563 108.565C254.904 109.162 255.288 109.653 255.715 110.037C256.142 110.421 256.526 110.719 256.867 110.933C257.251 111.103 257.486 111.189 257.571 111.189V111.509H248.099V111.189C248.739 110.89 249.315 110.506 249.827 110.037C250.296 109.61 250.702 109.119 251.043 108.565C251.384 107.967 251.555 107.263 251.555 106.453V67.6688H235.363V71.7648C235.363 73.9408 235.32 76.0955 235.235 78.2288C235.15 80.3195 235.043 82.2608 234.915 84.0528C234.83 85.8448 234.702 87.4235 234.531 88.7888C234.403 90.1541 234.275 91.2208 234.147 91.9888C233.806 94.0795 233.358 96.2981 232.803 98.6448C232.248 100.991 231.48 103.146 230.499 105.109C229.518 107.029 228.28 108.629 226.787 109.909C225.294 111.189 223.416 111.829 221.155 111.829ZM298.091 106.453C298.091 107.263 298.262 107.967 298.603 108.565C298.987 109.119 299.393 109.61 299.819 110.037C300.331 110.506 300.907 110.89 301.547 111.189V111.509H292.075V111.189C292.161 111.189 292.374 111.103 292.715 110.933C293.099 110.719 293.505 110.421 293.931 110.037C294.358 109.653 294.721 109.162 295.019 108.565C295.361 107.967 295.531 107.263 295.531 106.453V73.6208L267.371 106.453C267.371 107.263 267.542 107.967 267.883 108.565C268.267 109.119 268.673 109.61 269.099 110.037C269.611 110.506 270.187 110.89 270.827 111.189V111.509H261.355V111.189C261.441 111.189 261.654 111.103 261.995 110.933C262.379 110.719 262.785 110.421 263.211 110.037C263.638 109.653 264.001 109.162 264.299 108.565C264.641 107.967 264.811 107.263 264.811 106.453V71.7648C264.811 70.9541 264.641 70.2501 264.299 69.6528C264.001 69.0555 263.638 68.5648 263.211 68.1808C262.785 67.7968 262.379 67.5195 261.995 67.3488C261.654 67.1355 261.441 67.0288 261.355 67.0288V66.7088H270.827V67.0288C270.187 67.3275 269.611 67.7115 269.099 68.1808C268.673 68.5648 268.267 69.0555 267.883 69.6528C267.542 70.2501 267.371 70.9541 267.371 71.7648V104.597L295.531 71.7648C295.531 70.9541 295.361 70.2501 295.019 69.6528C294.721 69.0555 294.358 68.5648 293.931 68.1808C293.505 67.7968 293.099 67.5195 292.715 67.3488C292.374 67.1355 292.161 67.0288 292.075 67.0288V66.7088H301.547V67.0288C300.907 67.3275 300.331 67.7115 299.819 68.1808C299.393 68.5648 298.987 69.0555 298.603 69.6528C298.262 70.2501 298.091 70.9541 298.091 71.7648V106.453ZM303.271 109.909C303.271 109.269 303.463 108.778 303.847 108.437C304.231 108.053 304.743 107.861 305.383 107.861C306.023 107.861 306.535 108.053 306.919 108.437C307.303 108.778 307.495 109.269 307.495 109.909C307.495 110.549 307.303 111.039 306.919 111.381C306.535 111.679 306.023 111.829 305.383 111.829C304.743 111.829 304.231 111.679 303.847 111.381C303.463 111.039 303.271 110.549 303.271 109.909ZM6.18397 304.453C6.18397 305.263 6.35464 305.967 6.69597 306.565C7.07997 307.119 7.4853 307.61 7.91197 308.037C8.42397 308.506 8.99997 308.89 9.63997 309.189V309.509H0.167969V309.189C0.253302 309.189 0.466635 309.103 0.807969 308.933C1.19197 308.719 1.5973 308.421 2.02397 308.037C2.45064 307.653 2.8133 307.162 3.11197 306.565C3.4533 305.967 3.62397 305.263 3.62397 304.453V269.765C3.62397 268.954 3.4533 268.25 3.11197 267.653C2.8133 267.055 2.45064 266.565 2.02397 266.181C1.5973 265.797 1.19197 265.519 0.807969 265.349C0.466635 265.135 0.253302 265.029 0.167969 265.029V264.709H37.928V265.029C37.8426 265.029 37.608 265.135 37.224 265.349C36.8826 265.519 36.4986 265.797 36.072 266.181C35.6453 266.565 35.2613 267.055 34.92 267.653C34.6213 268.25 34.472 268.954 34.472 269.765V304.453C34.472 305.263 34.6213 305.967 34.92 306.565C35.2613 307.162 35.6453 307.653 36.072 308.037C36.4986 308.421 36.8826 308.719 37.224 308.933C37.608 309.103 37.8426 309.189 37.928 309.189V309.509H28.456V309.189C29.096 308.89 29.672 308.506 30.184 308.037C30.6533 307.61 31.0586 307.119 31.4 306.565C31.7413 305.967 31.912 305.263 31.912 304.453V265.669H6.18397V304.453ZM58.368 264.069C61.312 264.069 63.9573 264.645 66.304 265.797C68.6933 266.906 70.72 268.485 72.384 270.533C74.048 272.581 75.328 275.013 76.224 277.829C77.12 280.645 77.568 283.738 77.568 287.109C77.568 290.479 77.12 293.573 76.224 296.389C75.328 299.205 74.048 301.637 72.384 303.685C70.72 305.733 68.6933 307.333 66.304 308.485C63.9573 309.594 61.312 310.149 58.368 310.149C55.424 310.149 52.7573 309.594 50.368 308.485C48.0213 307.333 46.016 305.733 44.352 303.685C42.688 301.637 41.408 299.205 40.512 296.389C39.616 293.573 39.168 290.479 39.168 287.109C39.168 283.738 39.616 280.645 40.512 277.829C41.408 275.013 42.688 272.581 44.352 270.533C46.016 268.485 48.0213 266.906 50.368 265.797C52.7573 264.645 55.424 264.069 58.368 264.069ZM58.368 309.189C61.0133 309.189 63.36 308.591 65.408 307.397C67.4986 306.159 69.248 304.517 70.656 302.469C72.064 300.421 73.1306 298.074 73.856 295.429C74.624 292.741 75.008 289.967 75.008 287.109C75.008 284.207 74.624 281.434 73.856 278.789C73.1306 276.143 72.064 273.797 70.656 271.749C69.248 269.701 67.4986 268.079 65.408 266.885C63.36 265.647 61.0133 265.029 58.368 265.029C55.7226 265.029 53.3546 265.647 51.264 266.885C49.216 268.079 47.488 269.701 46.08 271.749C44.672 273.797 43.584 276.143 42.816 278.789C42.0906 281.434 41.728 284.207 41.728 287.109C41.728 289.967 42.0906 292.741 42.816 295.429C43.584 298.074 44.672 300.421 46.08 302.469C47.488 304.517 49.216 306.159 51.264 307.397C53.3546 308.591 55.7226 309.189 58.368 309.189ZM80.999 269.765C80.999 268.954 80.8283 268.25 80.487 267.653C80.1883 267.055 79.8256 266.565 79.399 266.181C78.9723 265.797 78.567 265.519 78.183 265.349C77.8416 265.135 77.6283 265.029 77.543 265.029V264.709H87.015V265.029C86.375 265.327 85.799 265.711 85.287 266.181C84.8603 266.565 84.455 267.055 84.071 267.653C83.7296 268.25 83.559 268.954 83.559 269.765V308.549H109.991V269.765C109.991 268.954 109.82 268.25 109.479 267.653C109.138 267.055 108.732 266.565 108.263 266.181C107.751 265.711 107.175 265.327 106.535 265.029V264.709H116.007V265.029C115.922 265.029 115.687 265.135 115.303 265.349C114.962 265.519 114.578 265.797 114.151 266.181C113.724 266.565 113.34 267.055 112.999 267.653C112.7 268.25 112.551 268.954 112.551 269.765V308.549H120.423V317.765H120.103C120.103 317.509 120.06 316.933 119.975 316.037C119.932 315.183 119.74 314.266 119.399 313.285C119.1 312.303 118.631 311.429 117.991 310.661C117.351 309.893 116.476 309.509 115.367 309.509H77.543V309.189C78.0123 309.103 78.439 308.89 78.823 308.549C79.2496 308.207 79.6123 307.802 79.911 307.333C80.2523 306.863 80.5083 306.373 80.679 305.861C80.8923 305.349 80.999 304.879 80.999 304.453V269.765ZM122.98 309.509V309.189C123.066 309.189 123.279 309.103 123.62 308.933C124.004 308.719 124.41 308.421 124.836 308.037C125.263 307.653 125.626 307.162 125.924 306.565C126.266 305.967 126.436 305.263 126.436 304.453V269.765C126.436 268.954 126.266 268.25 125.924 267.653C125.626 267.055 125.263 266.565 124.836 266.181C124.41 265.797 124.004 265.519 123.62 265.349C123.279 265.135 123.066 265.029 122.98 265.029V264.709H154.34V273.925H154.02C154.02 273.669 153.978 273.114 153.892 272.261C153.85 271.365 153.658 270.426 153.316 269.445C153.018 268.463 152.548 267.589 151.908 266.821C151.268 266.053 150.394 265.669 149.284 265.669H128.996V285.957H140.58C141.562 285.957 142.351 285.743 142.948 285.317C143.588 284.847 144.079 284.335 144.42 283.781C144.804 283.183 145.103 282.479 145.316 281.669H145.636V291.205H145.316C145.316 291.119 145.252 290.863 145.124 290.437C144.996 289.967 144.74 289.477 144.356 288.965C144.015 288.453 143.546 287.983 142.948 287.557C142.351 287.13 141.562 286.917 140.58 286.917H128.996V308.549H149.924C151.034 308.549 151.908 308.165 152.548 307.397C153.188 306.629 153.658 305.754 153.956 304.773C154.298 303.791 154.49 302.874 154.532 302.021C154.618 301.125 154.66 300.549 154.66 300.293H154.98V309.509H122.98ZM159.655 309.829C158.93 309.829 158.396 309.615 158.055 309.189C157.714 308.762 157.543 308.378 157.543 308.037C157.543 307.397 157.735 306.927 158.119 306.629C158.503 306.287 159.015 306.117 159.655 306.117C161.319 306.117 162.834 305.754 164.199 305.029C165.607 304.303 166.738 303.194 167.591 301.701C168.188 300.634 168.722 299.333 169.191 297.797C169.66 296.261 170.215 294.319 170.855 291.973C170.983 291.589 171.132 290.778 171.303 289.541C171.516 288.261 171.73 286.661 171.943 284.741C172.156 282.821 172.327 280.602 172.455 278.085C172.626 275.525 172.732 272.751 172.775 269.765C172.775 268.954 172.562 268.25 172.135 267.653C171.751 267.055 171.303 266.565 170.791 266.181C170.322 265.797 169.874 265.519 169.447 265.349C169.02 265.135 168.764 265.029 168.679 265.029V264.709H196.071V265.029C195.986 265.029 195.751 265.135 195.367 265.349C195.026 265.519 194.642 265.797 194.215 266.181C193.788 266.565 193.404 267.055 193.063 267.653C192.764 268.25 192.615 268.954 192.615 269.765V304.453C192.615 305.263 192.764 305.967 193.063 306.565C193.404 307.162 193.788 307.653 194.215 308.037C194.642 308.421 195.026 308.719 195.367 308.933C195.751 309.103 195.986 309.189 196.071 309.189V309.509H186.599V309.189C187.239 308.89 187.815 308.506 188.327 308.037C188.796 307.61 189.202 307.119 189.543 306.565C189.884 305.967 190.055 305.263 190.055 304.453V265.669H173.863V269.765C173.863 271.941 173.82 274.095 173.735 276.229C173.65 278.319 173.543 280.261 173.415 282.053C173.33 283.845 173.202 285.423 173.031 286.789C172.903 288.154 172.775 289.221 172.647 289.989C172.306 292.079 171.858 294.298 171.303 296.645C170.748 298.991 169.98 301.146 168.999 303.109C168.018 305.029 166.78 306.629 165.287 307.909C163.794 309.189 161.916 309.829 159.655 309.829ZM217.613 299.141L204.173 269.765H206.733L218.765 296.069L229.581 269.765H230.925L217.421 302.405C216.909 303.429 216.397 304.389 215.885 305.285C215.416 306.138 214.861 306.885 214.221 307.525C213.624 308.122 212.941 308.613 212.173 308.997C211.405 309.338 210.509 309.509 209.485 309.509C208.845 309.509 208.184 309.423 207.501 309.253C206.861 309.039 206.264 308.741 205.709 308.357C205.197 307.973 204.771 307.503 204.429 306.949C204.131 306.394 203.981 305.754 203.981 305.029C203.981 304.431 204.131 303.983 204.429 303.685C204.771 303.343 205.155 303.151 205.581 303.109C206.051 303.066 206.52 303.173 206.989 303.429C207.501 303.642 207.949 304.047 208.333 304.645C209.059 305.797 209.763 306.565 210.445 306.949C211.128 307.29 211.747 307.354 212.301 307.141C212.899 306.927 213.453 306.522 213.965 305.925C214.52 305.285 215.011 304.581 215.437 303.813C215.907 303.002 216.312 302.17 216.653 301.317C216.995 300.463 217.315 299.738 217.613 299.141ZM230.925 269.765C231.267 268.954 231.779 268.25 232.461 267.653C233.187 267.055 233.912 266.565 234.637 266.181C235.491 265.711 236.408 265.327 237.389 265.029V264.709H227.917V265.029C228.003 265.029 228.195 265.135 228.493 265.349C228.792 265.519 229.069 265.797 229.325 266.181C229.624 266.565 229.816 267.055 229.901 267.653C230.029 268.25 229.923 268.954 229.581 269.765H230.925ZM204.173 269.765H206.733C206.435 268.954 206.328 268.25 206.413 267.653C206.499 267.055 206.648 266.565 206.861 266.181C207.075 265.797 207.309 265.519 207.565 265.349C207.821 265.135 207.992 265.029 208.077 265.029V264.709H198.605V265.029C199.459 265.327 200.248 265.711 200.973 266.181C201.571 266.565 202.168 267.055 202.765 267.653C203.405 268.25 203.875 268.954 204.173 269.765ZM274.154 304.453C274.154 305.263 274.325 305.967 274.666 306.565C275.05 307.119 275.455 307.61 275.882 308.037C276.394 308.506 276.97 308.89 277.61 309.189V309.509H268.138V309.189C268.223 309.189 268.437 309.103 268.778 308.933C269.162 308.719 269.567 308.421 269.994 308.037C270.421 307.653 270.783 307.162 271.082 306.565C271.423 305.967 271.594 305.263 271.594 304.453V271.621L243.434 304.453C243.434 305.263 243.605 305.967 243.946 306.565C244.33 307.119 244.735 307.61 245.162 308.037C245.674 308.506 246.25 308.89 246.89 309.189V309.509H237.418V309.189C237.503 309.189 237.717 309.103 238.058 308.933C238.442 308.719 238.847 308.421 239.274 308.037C239.701 307.653 240.063 307.162 240.362 306.565C240.703 305.967 240.874 305.263 240.874 304.453V269.765C240.874 268.954 240.703 268.25 240.362 267.653C240.063 267.055 239.701 266.565 239.274 266.181C238.847 265.797 238.442 265.519 238.058 265.349C237.717 265.135 237.503 265.029 237.418 265.029V264.709H246.89V265.029C246.25 265.327 245.674 265.711 245.162 266.181C244.735 266.565 244.33 267.055 243.946 267.653C243.605 268.25 243.434 268.954 243.434 269.765V302.597L271.594 269.765C271.594 268.954 271.423 268.25 271.082 267.653C270.783 267.055 270.421 266.565 269.994 266.181C269.567 265.797 269.162 265.519 268.778 265.349C268.437 265.135 268.223 265.029 268.138 265.029V264.709H277.61V265.029C276.97 265.327 276.394 265.711 275.882 266.181C275.455 266.565 275.05 267.055 274.666 267.653C274.325 268.25 274.154 268.954 274.154 269.765V304.453ZM279.333 307.909C279.333 307.269 279.525 306.778 279.909 306.437C280.293 306.053 280.805 305.861 281.445 305.861C282.085 305.861 282.597 306.053 282.981 306.437C283.365 306.778 283.557 307.269 283.557 307.909C283.557 308.549 283.365 309.039 282.981 309.381C282.597 309.679 282.085 309.829 281.445 309.829C280.805 309.829 280.293 309.679 279.909 309.381C279.525 309.039 279.333 308.549 279.333 307.909Z" fill="#272727"></path><path d="M33.064 137.765C33.064 136.954 32.8933 136.25 32.552 135.653C32.2106 135.055 31.8053 134.565 31.336 134.181C30.824 133.711 30.248 133.327 29.608 133.029V132.709H39.08V133.029C38.9946 133.029 38.76 133.135 38.376 133.349C38.0346 133.519 37.6506 133.797 37.224 134.181C36.7973 134.565 36.4133 135.055 36.072 135.653C35.7733 136.25 35.624 136.954 35.624 137.765V153.061C36.3066 153.061 36.8613 152.997 37.288 152.869C37.7573 152.698 38.2266 152.378 38.696 151.909C39.8053 150.757 40.9786 149.562 42.216 148.325C43.4533 147.087 44.6693 145.871 45.864 144.677C47.1013 143.439 48.296 142.245 49.448 141.093C50.6426 139.898 51.7306 138.789 52.712 137.765C53.4373 136.954 53.8853 136.25 54.056 135.653C54.2693 135.055 54.3333 134.565 54.248 134.181C54.2053 133.797 54.0773 133.519 53.864 133.349C53.6506 133.135 53.5013 133.029 53.416 133.029V132.709H62.888V133.029C61.7786 133.327 60.6906 133.711 59.624 134.181C58.6853 134.565 57.704 135.055 56.68 135.653C55.6986 136.25 54.8453 136.954 54.12 137.765L38.76 153.253C39.8693 153.594 40.872 154.213 41.768 155.109C42.664 156.005 43.432 156.858 44.072 157.669L50.984 166.181C52.3493 167.759 53.672 169.231 54.952 170.597C56.2746 171.919 57.6186 173.071 58.984 174.053C60.392 175.034 61.864 175.802 63.4 176.357C64.9786 176.911 66.6853 177.189 68.52 177.189V177.509H62.632C61.4373 177.509 60.392 177.381 59.496 177.125C58.6 176.869 57.6613 176.378 56.68 175.653C55.6986 174.885 54.5893 173.861 53.352 172.581C52.1146 171.301 50.6 169.637 48.808 167.589L40.808 157.669C39.784 156.389 38.8666 155.471 38.056 154.917C37.288 154.319 36.4773 154.021 35.624 154.021V172.453C35.624 173.263 35.7733 173.967 36.072 174.565C36.4133 175.162 36.7973 175.653 37.224 176.037C37.6506 176.421 38.0346 176.719 38.376 176.933C38.76 177.103 38.9946 177.189 39.08 177.189V177.509H29.608V177.189C30.248 176.89 30.824 176.506 31.336 176.037C31.8053 175.61 32.2106 175.119 32.552 174.565C32.8933 173.967 33.064 173.263 33.064 172.453V154.021C32.2106 154.021 31.3786 154.319 30.568 154.917C29.8 155.471 28.904 156.389 27.88 157.669L19.88 167.589C18.088 169.637 16.5733 171.301 15.336 172.581C14.0986 173.861 12.9893 174.885 12.008 175.653C11.0266 176.378 10.088 176.869 9.19197 177.125C8.29597 177.381 7.25064 177.509 6.05597 177.509H0.167969V177.189C2.0453 177.189 3.75197 176.911 5.28797 176.357C6.82397 175.802 8.27464 175.034 9.63997 174.053C11.048 173.071 12.392 171.919 13.672 170.597C14.9946 169.231 16.3386 167.759 17.704 166.181L24.616 157.669C25.256 156.858 26.024 156.005 26.92 155.109C27.816 154.213 28.8186 153.594 29.928 153.253L14.568 137.765C13.8426 136.954 12.968 136.25 11.944 135.653C10.9626 135.055 10.0026 134.565 9.06397 134.181C7.9973 133.711 6.9093 133.327 5.79997 133.029V132.709H15.272V133.029C15.1866 133.029 15.0373 133.135 14.824 133.349C14.6106 133.519 14.4613 133.797 14.376 134.181C14.3333 134.565 14.3973 135.055 14.568 135.653C14.7813 136.25 15.2506 136.954 15.976 137.765C16.9573 138.789 18.024 139.898 19.176 141.093C20.3706 142.245 21.5653 143.439 22.76 144.677C23.9973 145.871 25.2346 147.087 26.472 148.325C27.7093 149.562 28.8826 150.757 29.992 151.909C30.4613 152.378 30.9093 152.698 31.336 152.869C31.8053 152.997 32.3813 153.061 33.064 153.061V137.765ZM71.1055 177.509V177.189C71.1908 177.189 71.4041 177.103 71.7455 176.933C72.1295 176.719 72.5348 176.421 72.9615 176.037C73.3881 175.653 73.7508 175.162 74.0495 174.565C74.3908 173.967 74.5615 173.263 74.5615 172.453V137.765C74.5615 136.954 74.3908 136.25 74.0495 135.653C73.7508 135.055 73.3881 134.565 72.9615 134.181C72.5348 133.797 72.1295 133.519 71.7455 133.349C71.4041 133.135 71.1908 133.029 71.1055 133.029V132.709H102.465V141.925H102.145C102.145 141.669 102.103 141.114 102.017 140.261C101.975 139.365 101.783 138.426 101.441 137.445C101.143 136.463 100.673 135.589 100.033 134.821C99.3935 134.053 98.5188 133.669 97.4095 133.669H77.1215V153.957H88.7055C89.6868 153.957 90.4761 153.743 91.0735 153.317C91.7135 152.847 92.2041 152.335 92.5455 151.781C92.9295 151.183 93.2281 150.479 93.4415 149.669H93.7615V159.205H93.4415C93.4415 159.119 93.3775 158.863 93.2495 158.437C93.1215 157.967 92.8655 157.477 92.4815 156.965C92.1401 156.453 91.6708 155.983 91.0735 155.557C90.4761 155.13 89.6868 154.917 88.7055 154.917H77.1215V176.549H98.0495C99.1588 176.549 100.033 176.165 100.673 175.397C101.313 174.629 101.783 173.754 102.081 172.773C102.423 171.791 102.615 170.874 102.657 170.021C102.743 169.125 102.785 168.549 102.785 168.293H103.105V177.509H71.1055ZM109.749 137.765C109.749 136.954 109.578 136.25 109.237 135.653C108.938 135.055 108.576 134.565 108.149 134.181C107.722 133.797 107.317 133.519 106.933 133.349C106.592 133.135 106.378 133.029 106.293 133.029V132.709H115.765V133.029C115.125 133.327 114.549 133.711 114.037 134.181C113.61 134.565 113.205 135.055 112.821 135.653C112.48 136.25 112.309 136.954 112.309 137.765V152.677H139.317V137.765C139.317 136.954 139.146 136.25 138.805 135.653C138.506 135.055 138.144 134.565 137.717 134.181C137.29 133.797 136.885 133.519 136.501 133.349C136.16 133.135 135.946 133.029 135.861 133.029V132.709H145.333V133.029C144.693 133.327 144.117 133.711 143.605 134.181C143.178 134.565 142.773 135.055 142.389 135.653C142.048 136.25 141.877 136.954 141.877 137.765V172.453C141.877 173.263 142.048 173.967 142.389 174.565C142.773 175.119 143.178 175.61 143.605 176.037C144.117 176.506 144.693 176.89 145.333 177.189V177.509H135.861V177.189C135.946 177.189 136.16 177.103 136.501 176.933C136.885 176.719 137.29 176.421 137.717 176.037C138.144 175.653 138.506 175.162 138.805 174.565C139.146 173.967 139.317 173.263 139.317 172.453V153.637H112.309V172.453C112.309 173.263 112.48 173.967 112.821 174.565C113.205 175.119 113.61 175.61 114.037 176.037C114.549 176.506 115.125 176.89 115.765 177.189V177.509H106.293V177.189C106.378 177.189 106.592 177.103 106.933 176.933C107.317 176.719 107.722 176.421 108.149 176.037C108.576 175.653 108.938 175.162 109.237 174.565C109.578 173.967 109.749 173.263 109.749 172.453V137.765ZM185.904 172.453C185.904 173.263 186.075 173.967 186.416 174.565C186.8 175.119 187.205 175.61 187.632 176.037C188.144 176.506 188.72 176.89 189.36 177.189V177.509H179.888V177.189C179.973 177.189 180.187 177.103 180.528 176.933C180.912 176.719 181.317 176.421 181.744 176.037C182.171 175.653 182.533 175.162 182.832 174.565C183.173 173.967 183.344 173.263 183.344 172.453V139.621L155.184 172.453C155.184 173.263 155.355 173.967 155.696 174.565C156.08 175.119 156.485 175.61 156.912 176.037C157.424 176.506 158 176.89 158.64 177.189V177.509H149.168V177.189C149.253 177.189 149.467 177.103 149.808 176.933C150.192 176.719 150.597 176.421 151.024 176.037C151.451 175.653 151.813 175.162 152.112 174.565C152.453 173.967 152.624 173.263 152.624 172.453V137.765C152.624 136.954 152.453 136.25 152.112 135.653C151.813 135.055 151.451 134.565 151.024 134.181C150.597 133.797 150.192 133.519 149.808 133.349C149.467 133.135 149.253 133.029 149.168 133.029V132.709H158.64V133.029C158 133.327 157.424 133.711 156.912 134.181C156.485 134.565 156.08 135.055 155.696 135.653C155.355 136.25 155.184 136.954 155.184 137.765V170.597L183.344 137.765C183.344 136.954 183.173 136.25 182.832 135.653C182.533 135.055 182.171 134.565 181.744 134.181C181.317 133.797 180.912 133.519 180.528 133.349C180.187 133.135 179.973 133.029 179.888 133.029V132.709H189.36V133.029C188.72 133.327 188.144 133.711 187.632 134.181C187.205 134.565 186.8 135.055 186.416 135.653C186.075 136.25 185.904 136.954 185.904 137.765V172.453ZM198.574 137.765H201.646L225.262 172.453H222.19L198.574 137.765ZM198.958 172.453L222.446 137.765H223.598L200.11 172.453H198.958ZM198.574 137.765C198.105 136.954 197.529 136.25 196.846 135.653C196.163 135.055 195.502 134.565 194.862 134.181C194.137 133.711 193.369 133.327 192.558 133.029V132.709H202.03V133.029C201.945 133.029 201.795 133.135 201.582 133.349C201.369 133.519 201.177 133.797 201.006 134.181C200.878 134.565 200.835 135.055 200.878 135.653C200.921 136.25 201.177 136.954 201.646 137.765H198.574ZM225.262 172.453C225.731 173.263 226.307 173.967 226.99 174.565C227.673 175.119 228.334 175.61 228.974 176.037C229.699 176.506 230.467 176.89 231.278 177.189V177.509H221.806V177.189C221.891 177.189 222.041 177.103 222.254 176.933C222.467 176.719 222.638 176.421 222.766 176.037C222.937 175.653 223.001 175.162 222.958 174.565C222.915 173.967 222.659 173.263 222.19 172.453H225.262ZM222.446 137.765C222.915 136.954 223.129 136.25 223.086 135.653C223.043 135.055 222.894 134.565 222.638 134.181C222.382 133.797 222.083 133.519 221.742 133.349C221.443 133.135 221.251 133.029 221.166 133.029V132.709H230.638V133.029C229.657 133.327 228.718 133.711 227.822 134.181C227.054 134.565 226.265 135.055 225.454 135.653C224.686 136.25 224.067 136.954 223.598 137.765H222.446ZM200.11 172.453C199.641 173.263 199.427 173.967 199.47 174.565C199.513 175.162 199.662 175.653 199.918 176.037C200.174 176.421 200.451 176.719 200.75 176.933C201.091 177.103 201.305 177.189 201.39 177.189V177.509H191.918V177.189C192.857 176.89 193.774 176.506 194.67 176.037C195.438 175.61 196.206 175.119 196.974 174.565C197.785 173.967 198.446 173.263 198.958 172.453H200.11ZM233.021 175.909C233.021 175.269 233.213 174.778 233.597 174.437C233.981 174.053 234.493 173.861 235.133 173.861C235.773 173.861 236.285 174.053 236.669 174.437C237.053 174.778 237.245 175.269 237.245 175.909C237.245 176.549 237.053 177.039 236.669 177.381C236.285 177.679 235.773 177.829 235.133 177.829C234.493 177.829 233.981 177.679 233.597 177.381C233.213 177.039 233.021 176.549 233.021 175.909ZM3.62397 203.765C3.62397 202.954 3.4533 202.25 3.11197 201.653C2.8133 201.055 2.45064 200.565 2.02397 200.181C1.5973 199.797 1.19197 199.519 0.807969 199.349C0.466635 199.135 0.253302 199.029 0.167969 199.029V198.709H9.63997V199.029C8.99997 199.327 8.42397 199.711 7.91197 200.181C7.4853 200.565 7.07997 201.055 6.69597 201.653C6.35464 202.25 6.18397 202.954 6.18397 203.765V218.677H33.192V203.765C33.192 202.954 33.0213 202.25 32.68 201.653C32.3813 201.055 32.0186 200.565 31.592 200.181C31.1653 199.797 30.76 199.519 30.376 199.349C30.0346 199.135 29.8213 199.029 29.736 199.029V198.709H39.208V199.029C38.568 199.327 37.992 199.711 37.48 200.181C37.0533 200.565 36.648 201.055 36.264 201.653C35.9226 202.25 35.752 202.954 35.752 203.765V238.453C35.752 239.263 35.9226 239.967 36.264 240.565C36.648 241.119 37.0533 241.61 37.48 242.037C37.992 242.506 38.568 242.89 39.208 243.189V243.509H29.736V243.189C29.8213 243.189 30.0346 243.103 30.376 242.933C30.76 242.719 31.1653 242.421 31.592 242.037C32.0186 241.653 32.3813 241.162 32.68 240.565C33.0213 239.967 33.192 239.263 33.192 238.453V219.637H6.18397V238.453C6.18397 239.263 6.35464 239.967 6.69597 240.565C7.07997 241.119 7.4853 241.61 7.91197 242.037C8.42397 242.506 8.99997 242.89 9.63997 243.189V243.509H0.167969V243.189C0.253302 243.189 0.466635 243.103 0.807969 242.933C1.19197 242.719 1.5973 242.421 2.02397 242.037C2.45064 241.653 2.8133 241.162 3.11197 240.565C3.4533 239.967 3.62397 239.263 3.62397 238.453V203.765ZM43.043 243.509V243.189C43.1283 243.189 43.3416 243.103 43.683 242.933C44.067 242.719 44.4723 242.421 44.899 242.037C45.3256 241.653 45.6883 241.162 45.987 240.565C46.3283 239.967 46.499 239.263 46.499 238.453V203.765C46.499 202.954 46.3283 202.25 45.987 201.653C45.6883 201.055 45.3256 200.565 44.899 200.181C44.4723 199.797 44.067 199.519 43.683 199.349C43.3416 199.135 43.1283 199.029 43.043 199.029V198.709H74.403V207.925H74.083C74.083 207.669 74.0403 207.114 73.955 206.261C73.9123 205.365 73.7203 204.426 73.379 203.445C73.0803 202.463 72.611 201.589 71.971 200.821C71.331 200.053 70.4563 199.669 69.347 199.669H49.059V219.957H60.643C61.6243 219.957 62.4136 219.743 63.011 219.317C63.651 218.847 64.1416 218.335 64.483 217.781C64.867 217.183 65.1656 216.479 65.379 215.669H65.699V225.205H65.379C65.379 225.119 65.315 224.863 65.187 224.437C65.059 223.967 64.803 223.477 64.419 222.965C64.0776 222.453 63.6083 221.983 63.011 221.557C62.4136 221.13 61.6243 220.917 60.643 220.917H49.059V242.549H69.987C71.0963 242.549 71.971 242.165 72.611 241.397C73.251 240.629 73.7203 239.754 74.019 238.773C74.3603 237.791 74.5523 236.874 74.595 236.021C74.6803 235.125 74.723 234.549 74.723 234.293H75.043V243.509H43.043ZM81.6865 203.765C81.6865 203.253 81.5798 202.741 81.3665 202.229C81.1531 201.717 80.8758 201.247 80.5345 200.821C80.2358 200.351 79.8731 199.967 79.4465 199.669C79.0625 199.327 78.6571 199.114 78.2305 199.029V198.709H91.5425C96.0651 198.709 99.6705 199.562 102.358 201.269C105.046 202.933 106.39 205.557 106.39 209.141C106.39 210.165 106.241 211.21 105.942 212.277C105.686 213.301 105.217 214.261 104.534 215.157C103.894 216.01 103.02 216.778 101.91 217.461C100.801 218.101 99.4145 218.57 97.7505 218.869C99.6705 218.954 101.462 219.253 103.126 219.765C104.79 220.234 106.22 220.959 107.414 221.941C108.652 222.922 109.612 224.202 110.294 225.781C111.02 227.317 111.382 229.215 111.382 231.477C111.382 234.165 110.785 236.298 109.59 237.877C108.396 239.455 106.902 240.671 105.11 241.525C103.318 242.335 101.398 242.869 99.3505 243.125C97.3025 243.381 95.4251 243.509 93.7185 243.509H78.2305V243.189C78.6145 243.103 79.0198 242.911 79.4465 242.613C79.8731 242.314 80.2358 241.951 80.5345 241.525C80.8758 241.055 81.1531 240.565 81.3665 240.053C81.5798 239.498 81.6865 238.965 81.6865 238.453V203.765ZM84.2465 199.669V218.613C84.1611 218.613 84.5451 218.613 85.3985 218.613C86.2518 218.613 87.2118 218.613 88.2785 218.613C89.3451 218.613 90.3265 218.613 91.2225 218.613C92.1611 218.57 92.6305 218.549 92.6305 218.549C96.2145 218.335 98.9665 217.461 100.886 215.925C102.849 214.389 103.83 212.127 103.83 209.141C103.83 206.154 102.764 203.829 100.63 202.165C98.4971 200.501 95.2545 199.669 90.9025 199.669H84.2465ZM93.7185 242.549C95.1265 242.549 96.7051 242.421 98.4545 242.165C100.204 241.866 101.846 241.333 103.382 240.565C104.918 239.754 106.198 238.623 107.222 237.173C108.289 235.679 108.822 233.738 108.822 231.349C108.822 229.471 108.545 227.893 107.99 226.613C107.436 225.333 106.689 224.266 105.75 223.413C104.854 222.559 103.788 221.898 102.55 221.429C101.356 220.959 100.076 220.597 98.7105 220.341C97.3878 220.085 96.0225 219.914 94.6145 219.829C93.2491 219.743 91.9265 219.658 90.6465 219.573H84.2465V242.549H93.7185ZM112.605 243.509V243.189C112.691 243.189 112.904 243.103 113.245 242.933C113.629 242.719 114.035 242.421 114.461 242.037C114.888 241.653 115.251 241.162 115.549 240.565C115.891 239.967 116.061 239.263 116.061 238.453V203.765C116.061 202.954 115.891 202.25 115.549 201.653C115.251 201.055 114.888 200.565 114.461 200.181C114.035 199.797 113.629 199.519 113.245 199.349C112.904 199.135 112.691 199.029 112.605 199.029V198.709H143.965V207.925H143.645C143.645 207.669 143.603 207.114 143.517 206.261C143.475 205.365 143.283 204.426 142.941 203.445C142.643 202.463 142.173 201.589 141.533 200.821C140.893 200.053 140.019 199.669 138.909 199.669H118.621V219.957H130.205C131.187 219.957 131.976 219.743 132.573 219.317C133.213 218.847 133.704 218.335 134.045 217.781C134.429 217.183 134.728 216.479 134.941 215.669H135.261V225.205H134.941C134.941 225.119 134.877 224.863 134.749 224.437C134.621 223.967 134.365 223.477 133.981 222.965C133.64 222.453 133.171 221.983 132.573 221.557C131.976 221.13 131.187 220.917 130.205 220.917H118.621V242.549H139.549C140.659 242.549 141.533 242.165 142.173 241.397C142.813 240.629 143.283 239.754 143.581 238.773C143.923 237.791 144.115 236.874 144.157 236.021C144.243 235.125 144.285 234.549 144.285 234.293H144.605V243.509H112.605ZM148.415 221.109C148.415 224.01 148.863 226.783 149.759 229.429C150.655 232.031 151.871 234.335 153.407 236.341C154.943 238.346 156.735 239.946 158.783 241.141C160.874 242.293 163.071 242.869 165.375 242.869C168.831 242.869 171.754 242.165 174.143 240.757C176.575 239.349 178.645 237.173 180.351 234.229L181.183 234.677C180.415 235.999 179.519 237.258 178.495 238.453C177.514 239.605 176.383 240.607 175.103 241.461C173.823 242.271 172.373 242.933 170.751 243.445C169.173 243.914 167.381 244.149 165.375 244.149C162.218 244.149 159.423 243.573 156.991 242.421C154.559 241.226 152.511 239.605 150.847 237.557C149.226 235.509 147.989 233.077 147.135 230.261C146.282 227.445 145.855 224.373 145.855 221.045C145.855 217.717 146.367 214.645 147.391 211.829C148.415 209.013 149.823 206.581 151.615 204.533C153.45 202.485 155.626 200.906 158.143 199.797C160.661 198.645 163.391 198.069 166.335 198.069C167.957 198.069 169.386 198.261 170.623 198.645C171.861 199.029 172.927 199.498 173.823 200.053C174.762 200.565 175.573 201.119 176.255 201.717C176.938 202.271 177.557 202.741 178.111 203.125C178.538 203.423 178.901 203.573 179.199 203.573C179.498 203.573 179.711 203.466 179.839 203.253C180.01 203.039 180.095 202.847 180.095 202.677H180.415V211.189H180.095C179.711 209.525 179.071 207.989 178.175 206.581C177.322 205.173 176.255 203.957 174.975 202.933C173.695 201.909 172.266 201.119 170.687 200.565C169.109 199.967 167.445 199.669 165.695 199.669C163.05 199.669 160.661 200.245 158.527 201.397C156.394 202.549 154.581 204.106 153.087 206.069C151.594 208.031 150.442 210.314 149.631 212.917C148.821 215.477 148.415 218.207 148.415 221.109ZM199.475 238.453C199.475 239.263 199.646 239.967 199.987 240.565C200.371 241.119 200.776 241.61 201.203 242.037C201.715 242.506 202.291 242.89 202.931 243.189V243.509H193.459V243.189C193.544 243.189 193.758 243.103 194.099 242.933C194.483 242.719 194.888 242.421 195.315 242.037C195.742 241.653 196.104 241.162 196.403 240.565C196.744 239.967 196.915 239.263 196.915 238.453V199.669H186.099C184.99 199.669 184.115 200.053 183.475 200.821C182.835 201.589 182.344 202.463 182.003 203.445C181.704 204.426 181.512 205.365 181.427 206.261C181.384 207.114 181.363 207.669 181.363 207.925H181.043V198.709H215.347V207.925H215.027C215.027 207.669 214.984 207.114 214.899 206.261C214.856 205.365 214.664 204.426 214.323 203.445C214.024 202.463 213.555 201.589 212.915 200.821C212.275 200.053 211.4 199.669 210.291 199.669H199.475V238.453ZM221.819 238.453C221.563 239.263 221.563 239.967 221.819 240.565C222.075 241.119 222.438 241.61 222.907 242.037C223.419 242.506 224.059 242.89 224.827 243.189V243.509H215.355V243.189C215.441 243.189 215.697 243.103 216.123 242.933C216.593 242.719 217.105 242.421 217.659 242.037C218.214 241.653 218.769 241.162 219.323 240.565C219.878 239.967 220.283 239.263 220.539 238.453L232.571 203.509C232.827 202.613 232.763 201.887 232.379 201.333C231.995 200.735 231.505 200.266 230.907 199.925C230.353 199.583 229.798 199.349 229.243 199.221C228.689 199.093 228.369 199.029 228.283 199.029V198.709H236.795L250.491 238.453C250.747 239.263 251.153 239.967 251.707 240.565C252.262 241.162 252.817 241.653 253.371 242.037C253.926 242.421 254.417 242.719 254.843 242.933C255.313 243.103 255.59 243.189 255.675 243.189V243.509H246.203V243.189C246.715 242.89 247.142 242.506 247.483 242.037C247.782 241.61 247.995 241.119 248.123 240.565C248.294 239.967 248.23 239.263 247.931 238.453L243.451 225.397H226.299L221.819 238.453ZM234.939 200.565H234.811L226.619 224.437H243.131L234.939 200.565ZM257.396 241.909C257.396 241.269 257.588 240.778 257.972 240.437C258.356 240.053 258.868 239.861 259.508 239.861C260.148 239.861 260.66 240.053 261.044 240.437C261.428 240.778 261.62 241.269 261.62 241.909C261.62 242.549 261.428 243.039 261.044 243.381C260.66 243.679 260.148 243.829 259.508 243.829C258.868 243.829 258.356 243.679 257.972 243.381C257.588 243.039 257.396 242.549 257.396 241.909Z" fill="#7F1023"></path></svg> 