<?xml version="1.0" encoding="UTF-8"?> <svg xmlns="http://www.w3.org/2000/svg" width="864" height="218" viewBox="0 0 864 218" fill="none"><path d="M155.857 3.42969C150.441 14.2214 145.087 25.2214 139.795 36.4297C136.503 43.3047 133.212 50.1589 129.92 56.9922C124.587 75.4505 120.753 94.138 118.42 113.055C116.087 131.971 115.274 148.284 115.982 161.992C116.274 167.826 116.837 173.805 117.67 179.93C118.545 186.055 120.003 191.971 122.045 197.68C124.128 203.388 127.128 208.513 131.045 213.055C131.628 213.763 131.774 214.471 131.482 215.18C131.232 215.93 130.753 216.43 130.045 216.68C129.337 216.971 128.607 216.784 127.857 216.117C126.149 214.284 124.628 212.326 123.295 210.242C117.628 200.492 114.003 188.201 112.42 173.367C110.837 158.576 110.837 142.659 112.42 125.617C114.045 108.617 116.774 91.9297 120.607 75.5547C116.191 84.3464 111.649 93.0755 106.982 101.742C102.316 110.409 97.3574 118.888 92.1074 127.18C91.7324 127.721 91.3366 128.284 90.9199 128.867C89.0449 131.784 86.6908 135.096 83.8574 138.805C81.0241 142.513 77.9616 145.596 74.6699 148.055C71.3783 150.513 68.0866 151.367 64.7949 150.617C63.2116 149.992 62.1699 148.555 61.6699 146.305C61.1699 144.096 60.9408 141.617 60.9824 138.867C61.0658 136.159 61.2324 133.721 61.4824 131.555C61.5658 130.513 61.6283 129.638 61.6699 128.93C62.6699 119.638 63.9199 110.409 65.4199 101.242C66.2949 95.4089 67.2324 89.5547 68.2324 83.6797C69.5658 76.013 70.7741 68.3464 71.8574 60.6797C72.9824 52.9714 73.7533 45.2214 74.1699 37.4297C74.2116 36.9297 74.2533 36.388 74.2949 35.8047C74.3783 34.8464 74.4199 33.9297 74.4199 33.0547C74.4199 32.1797 74.2741 31.5547 73.9824 31.1797C70.6491 29.8047 67.1699 30.3464 63.5449 32.8047C59.9616 35.263 56.4199 38.9089 52.9199 43.7422C49.4616 48.5339 46.2116 53.7214 43.1699 59.3047C40.1699 64.888 37.5449 70.1172 35.2949 74.9922C33.0866 79.8255 31.4408 83.5339 30.3574 86.1172C20.3991 109.826 11.7741 134.034 4.48242 158.742C4.19076 159.534 3.66992 159.992 2.91992 160.117C2.21159 160.284 1.64909 160.138 1.23242 159.68C0.857422 159.263 0.711589 158.617 0.794922 157.742C0.794922 157.742 1.02409 156.888 1.48242 155.18C1.94076 153.471 2.58659 151.534 3.41992 149.367C4.29492 147.201 5.75326 142.93 7.79492 136.555C14.0449 119.18 20.8366 102.034 28.1699 85.1172C31.7116 76.9922 35.5241 68.9714 39.6074 61.0547C43.6908 53.0964 48.3783 45.513 53.6699 38.3047C55.3366 36.013 57.2949 33.7839 59.5449 31.6172C61.8366 29.4505 64.3366 27.8464 67.0449 26.8047C69.7533 25.763 72.6283 25.8047 75.6699 26.9297C75.6699 26.9297 75.8158 27.0339 76.1074 27.2422C76.3991 27.4089 76.7741 27.763 77.2324 28.3047C77.6908 28.8464 78.1491 29.6589 78.6074 30.7422C79.0658 31.8255 79.5033 33.2422 79.9199 34.9922C80.4616 38.4089 80.4616 41.8255 79.9199 45.2422C79.8366 45.8255 79.7741 46.4089 79.7324 46.9922C78.3991 58.2839 76.6699 69.4714 74.5449 80.5547C74.3366 81.6797 74.1283 82.7839 73.9199 83.8672C73.3366 87.0339 72.7324 90.3255 72.1074 93.7422C69.7324 105.992 67.7533 117.888 66.1699 129.43C65.5033 133.93 65.2116 138.43 65.2949 142.93C65.3366 143.638 65.4199 144.346 65.5449 145.055C65.6699 145.763 65.8783 146.367 66.1699 146.867C69.7116 147.034 73.7949 144.638 78.4199 139.68C83.0866 134.763 88.0241 128.096 93.2324 119.68C98.4824 111.263 103.753 101.93 109.045 91.6797C114.378 81.388 119.524 71.013 124.482 60.5547C130.107 40.6797 136.503 24.6589 143.67 12.4922C146.045 8.36719 148.92 4.51302 152.295 0.929688C152.753 0.471354 153.274 0.242188 153.857 0.242188C154.441 0.242188 154.962 0.450521 155.42 0.867188C156.128 1.65885 156.274 2.51302 155.857 3.42969ZM193.295 99.3672C193.462 99.0755 193.691 98.9505 193.982 98.9922C194.274 99.0339 194.503 99.1797 194.67 99.4297C194.837 99.638 194.837 99.888 194.67 100.18C193.462 101.888 192.066 103.409 190.482 104.742C188.899 106.034 187.253 107.263 185.545 108.43C185.253 108.638 184.982 108.826 184.732 108.992C180.607 111.826 176.628 114.013 172.795 115.555C168.962 117.055 165.628 117.346 162.795 116.43C160.003 115.471 158.045 112.68 156.92 108.055C154.17 112.138 151.212 116.076 148.045 119.867C146.378 121.534 144.67 122.013 142.92 121.305C141.128 120.555 140.42 118.971 140.795 116.555C142.503 108.971 146.066 102.388 151.482 96.8047C153.232 95.013 155.378 93.5755 157.92 92.4922C158.92 92.1172 159.732 92.2422 160.357 92.8672C161.024 93.4922 161.337 94.263 161.295 95.1797C161.253 96.0547 160.732 96.7005 159.732 97.1172C156.607 98.7005 153.982 100.951 151.857 103.867C149.774 106.742 148.149 109.867 146.982 113.242C150.399 108.826 153.587 104.242 156.545 99.4922C157.003 98.7839 157.607 98.4089 158.357 98.3672C159.149 98.3255 159.816 98.5547 160.357 99.0547C160.941 99.5547 161.212 100.221 161.17 101.055C160.337 103.596 160.107 106.221 160.482 108.93C160.899 111.596 162.482 113.471 165.232 114.555C169.357 114.513 173.524 113.346 177.732 111.055C181.941 108.763 185.691 106.346 188.982 103.805C190.691 102.555 192.128 101.076 193.295 99.3672ZM195.92 111.805V111.93C195.92 111.888 195.899 111.867 195.857 111.867C195.899 111.826 195.92 111.805 195.92 111.805ZM240.92 99.2422C241.17 98.9922 241.42 98.9089 241.67 98.9922C241.92 99.0755 242.087 99.2422 242.17 99.4922C242.295 99.7422 242.232 99.9922 241.982 100.242C238.857 103.242 235.42 105.805 231.67 107.93C227.92 110.055 224.003 111.846 219.92 113.305C211.462 116.305 202.732 117.305 193.732 116.305L193.795 116.242C193.795 116.242 193.774 116.242 193.732 116.242C193.732 116.242 193.732 116.221 193.732 116.18C192.399 122.555 190.795 128.805 188.92 134.93C187.003 141.096 184.295 146.93 180.795 152.43C180.628 152.721 180.378 152.909 180.045 152.992C179.67 153.076 179.337 153.034 179.045 152.867C178.67 152.659 178.462 152.034 178.42 150.992C178.378 149.951 178.441 148.784 178.607 147.492C178.732 146.201 178.857 145.076 178.982 144.117C179.066 143.617 179.128 143.242 179.17 142.992C180.962 132.784 184.482 123.201 189.732 114.242C190.607 109.451 191.566 104.68 192.607 99.9297C192.941 98.888 193.545 98.2839 194.42 98.1172C195.295 97.9505 196.066 98.138 196.732 98.6797C197.441 99.2214 197.691 100.055 197.482 101.18C197.191 102.18 196.899 103.18 196.607 104.18C198.982 101.18 201.607 98.7214 204.482 96.8047C207.399 94.8464 210.274 94.5339 213.107 95.8672C216.649 98.6172 218.066 101.242 217.357 103.742C216.691 106.242 214.92 108.43 212.045 110.305C209.17 112.138 206.253 113.492 203.295 114.367C209.128 114.617 214.941 113.721 220.732 111.68C226.524 109.638 231.732 106.909 236.357 103.492C238.024 102.201 239.545 100.784 240.92 99.2422ZM181.482 145.492C184.191 139.367 186.17 132.992 187.42 126.367C187.587 125.492 187.753 124.617 187.92 123.742C184.67 130.701 182.524 137.951 181.482 145.492ZM195.857 111.867C195.774 111.951 195.753 112.034 195.795 112.117L195.92 111.93C196.295 112.221 196.712 112.513 197.17 112.805C198.462 112.93 199.795 112.763 201.17 112.305C201.587 112.18 202.024 112.076 202.482 111.992C204.524 111.451 206.774 110.471 209.232 109.055C211.732 107.638 213.42 105.992 214.295 104.117C215.17 102.242 214.232 100.305 211.482 98.3047C210.066 97.763 208.566 97.9089 206.982 98.7422C205.441 99.5755 203.982 100.68 202.607 102.055C201.232 103.388 200.107 104.555 199.232 105.555C197.774 107.388 196.378 109.284 195.045 111.242C195.17 111.284 195.295 111.346 195.42 111.43C195.545 111.596 195.691 111.742 195.857 111.867ZM244.982 102.492C244.982 102.534 244.962 102.555 244.92 102.555C244.962 102.555 244.982 102.534 244.982 102.492ZM288.857 99.2422C290.149 98.8672 290.691 99.013 290.482 99.6797C290.274 100.305 289.607 101.242 288.482 102.492C287.357 103.701 286.066 104.971 284.607 106.305C283.149 107.596 281.837 108.742 280.67 109.742C279.545 110.701 278.857 111.263 278.607 111.43C277.649 112.138 276.67 112.888 275.67 113.68C273.17 115.68 270.566 117.513 267.857 119.18C265.149 120.805 262.212 121.805 259.045 122.18C256.67 121.888 255.066 120.909 254.232 119.242C253.399 117.576 253.045 115.638 253.17 113.43C253.295 111.221 253.607 109.138 254.107 107.18C252.066 109.68 249.774 111.93 247.232 113.93C244.732 115.43 242.753 115.721 241.295 114.805C239.837 113.888 238.92 112.367 238.545 110.242C238.17 108.117 238.357 105.992 239.107 103.867C239.774 101.326 240.607 99.6589 241.607 98.8672C242.649 98.0755 243.587 97.8464 244.42 98.1797C245.295 98.513 245.816 99.138 245.982 100.055C246.191 100.93 245.774 101.805 244.732 102.68C244.774 102.68 244.816 102.68 244.857 102.68C244.899 102.638 244.92 102.596 244.92 102.555C244.878 102.596 244.837 102.659 244.795 102.742C244.003 104.076 243.316 105.617 242.732 107.367C242.191 109.076 242.232 110.659 242.857 112.117C243.816 112.534 244.92 112.221 246.17 111.18C247.42 110.096 248.649 108.742 249.857 107.117C251.066 105.451 252.107 103.951 252.982 102.617C253.482 101.867 253.878 101.284 254.17 100.867C254.503 100.409 254.837 99.888 255.17 99.3047C255.878 97.9297 256.795 96.8464 257.92 96.0547C258.67 95.5964 259.378 95.5339 260.045 95.8672C260.753 96.1589 261.232 96.6797 261.482 97.4297C261.732 98.138 261.587 98.8255 261.045 99.4922C260.878 99.7005 260.732 99.888 260.607 100.055C260.566 100.055 260.545 100.055 260.545 100.055L260.607 100.117C260.566 100.159 260.503 100.221 260.42 100.305C260.378 100.346 260.357 100.388 260.357 100.43C259.774 101.18 259.274 101.951 258.857 102.742C257.024 106.201 255.92 109.867 255.545 113.742C255.462 118.242 256.878 120.367 259.795 120.117C262.753 119.867 266.295 118.326 270.42 115.492C274.587 112.659 278.441 109.617 281.982 106.367C285.524 103.117 287.816 100.742 288.857 99.2422ZM295.795 101.93C295.837 101.93 295.857 101.909 295.857 101.867C295.857 101.909 295.837 101.93 295.795 101.93ZM285.545 119.742L285.482 119.68C285.482 119.721 285.503 119.742 285.545 119.742ZM301.107 102.805C302.482 101.513 303.816 100.388 305.107 99.4297C306.274 96.263 307.42 94.013 308.545 92.6797C309.295 91.8047 310.024 91.4922 310.732 91.7422C311.482 91.9922 312.003 92.4505 312.295 93.1172C312.337 93.2005 312.357 93.2839 312.357 93.3672C312.941 95.0755 312.628 96.5547 311.42 97.8047C310.712 98.3464 309.878 98.9922 308.92 99.7422C308.462 100.534 308.045 101.367 307.67 102.242C306.587 104.784 306.274 107.346 306.732 109.93C307.566 112.805 309.212 114.43 311.67 114.805C314.17 115.18 316.691 114.596 319.232 113.055C323.274 110.721 326.962 107.888 330.295 104.555C331.962 102.93 333.524 101.221 334.982 99.4297C335.316 99.0964 335.649 98.9714 335.982 99.0547C336.316 99.138 336.545 99.3255 336.67 99.6172C336.795 99.9505 336.691 100.284 336.357 100.617L333.607 103.242C330.607 106.242 327.42 109.013 324.045 111.555C320.67 114.096 316.982 115.763 312.982 116.555C308.649 116.346 305.92 114.638 304.795 111.43C303.92 108.888 303.712 106.117 304.17 103.117C303.128 103.826 302.003 104.596 300.795 105.43C297.212 108.638 293.816 112.18 290.607 116.055C288.857 118.18 287.649 119.617 286.982 120.367C286.399 120.951 285.732 121.201 284.982 121.117C284.232 121.034 283.628 120.68 283.17 120.055C282.712 119.471 282.607 118.763 282.857 117.93C283.857 114.638 285.045 111.367 286.42 108.117L287.857 104.242V104.18C288.441 102.763 288.962 101.305 289.42 99.8047C289.795 98.8047 290.42 98.2422 291.295 98.1172C292.17 97.9922 292.941 98.2214 293.607 98.8047C294.274 99.388 294.462 100.201 294.17 101.242C293.253 104.201 292.212 107.138 291.045 110.055C290.628 111.388 289.962 113.18 289.045 115.43C290.295 113.93 291.587 112.471 292.92 111.055C293.795 110.138 294.628 109.221 295.42 108.305C295.628 108.096 296.274 107.471 297.357 106.43C298.399 105.346 299.649 104.138 301.107 102.805ZM378.545 99.3672C378.712 99.0755 378.941 98.9505 379.232 98.9922C379.524 99.0339 379.753 99.1797 379.92 99.4297C380.087 99.638 380.087 99.888 379.92 100.18C378.712 101.888 377.316 103.409 375.732 104.742C374.149 106.034 372.503 107.263 370.795 108.43C370.503 108.638 370.232 108.826 369.982 108.992C365.857 111.826 361.878 114.013 358.045 115.555C354.212 117.055 350.878 117.346 348.045 116.43C345.253 115.471 343.295 112.68 342.17 108.055C339.42 112.138 336.462 116.076 333.295 119.867C331.628 121.534 329.92 122.013 328.17 121.305C326.378 120.555 325.67 118.971 326.045 116.555C327.753 108.971 331.316 102.388 336.732 96.8047C338.482 95.013 340.628 93.5755 343.17 92.4922C344.17 92.1172 344.982 92.2422 345.607 92.8672C346.274 93.4922 346.587 94.263 346.545 95.1797C346.503 96.0547 345.982 96.7005 344.982 97.1172C341.857 98.7005 339.232 100.951 337.107 103.867C335.024 106.742 333.399 109.867 332.232 113.242C335.649 108.826 338.837 104.242 341.795 99.4922C342.253 98.7839 342.857 98.4089 343.607 98.3672C344.399 98.3255 345.066 98.5547 345.607 99.0547C346.191 99.5547 346.462 100.221 346.42 101.055C345.587 103.596 345.357 106.221 345.732 108.93C346.149 111.596 347.732 113.471 350.482 114.555C354.607 114.513 358.774 113.346 362.982 111.055C367.191 108.763 370.941 106.346 374.232 103.805C375.941 102.555 377.378 101.076 378.545 99.3672ZM518.67 131.492C518.962 129.784 519.712 128.784 520.92 128.492C522.17 128.201 523.274 128.471 524.232 129.305C525.191 130.18 525.378 131.43 524.795 133.055C520.337 140.513 514.357 147.971 506.857 155.43C499.399 162.888 491.045 169.68 481.795 175.805C472.587 181.93 463.128 186.701 453.42 190.117C443.712 193.576 434.378 194.992 425.42 194.367C421.087 193.992 416.899 192.992 412.857 191.367C407.816 189.326 404.232 186.076 402.107 181.617C399.982 177.159 398.816 172.367 398.607 167.242C398.107 158.159 399.003 149.221 401.295 140.43C403.587 131.68 406.795 123.305 410.92 115.305C419.087 99.4714 428.795 84.6172 440.045 70.7422C451.337 56.8672 464.232 44.7005 478.732 34.2422C482.899 31.3255 487.441 28.7214 492.357 26.4297C497.316 24.138 502.399 23.3255 507.607 23.9922C509.566 24.3672 511.337 25.2005 512.92 26.4922C514.545 27.7422 515.732 29.3047 516.482 31.1797C517.232 33.513 517.482 35.888 517.232 38.3047C517.024 40.7214 516.607 43.0755 515.982 45.3672C511.357 62.9505 503.17 78.763 491.42 92.8047C490.837 93.4714 490.128 93.8464 489.295 93.9297C488.462 93.9714 487.691 93.7214 486.982 93.1797C486.274 92.5547 485.899 91.8047 485.857 90.9297C485.816 90.0547 486.128 89.263 486.795 88.5547C493.462 81.6797 499.087 73.9505 503.67 65.3672C508.295 56.7839 511.462 47.7422 513.17 38.2422C513.378 36.3255 513.191 34.4505 512.607 32.6172C511.316 30.0755 509.462 28.5755 507.045 28.1172C504.67 27.6589 502.149 27.8255 499.482 28.6172C496.816 29.3672 494.441 30.3047 492.357 31.4297C484.191 36.013 476.295 41.8464 468.67 48.9297C461.045 56.013 453.899 63.638 447.232 71.8047C440.566 79.9297 434.587 87.8464 429.295 95.5547C424.17 103.18 419.462 111.18 415.17 119.555C410.878 127.93 407.649 136.596 405.482 145.555C403.357 154.555 402.941 163.742 404.232 173.117C404.691 175.742 405.545 178.201 406.795 180.492C408.087 182.826 409.878 184.701 412.17 186.117C414.587 187.367 417.087 188.326 419.67 188.992C427.253 190.742 434.92 190.784 442.67 189.117C450.462 187.451 457.982 184.784 465.232 181.117C472.524 177.451 479.232 173.451 485.357 169.117C488.982 166.492 493.274 163.076 498.232 158.867C503.232 154.659 507.712 150.138 511.67 145.305C515.67 140.471 518.003 135.867 518.67 131.492ZM536.857 98.5547C536.899 98.5547 536.92 98.5339 536.92 98.4922C536.92 98.5339 536.899 98.5547 536.857 98.5547ZM603.17 98.4922C603.17 98.5339 603.149 98.5547 603.107 98.5547C603.149 98.5547 603.17 98.5339 603.17 98.4922ZM562.67 103.992L561.92 105.18C561.378 105.888 560.837 106.638 560.295 107.43C559.212 109.055 558.045 110.659 556.795 112.242C555.712 113.742 554.607 114.471 553.482 114.43C552.357 114.346 551.482 113.367 550.857 111.492C550.607 110.367 550.337 109.201 550.045 107.992C549.92 106.992 549.857 106.263 549.857 105.805C549.691 103.763 549.962 101.471 550.67 98.9297C547.837 103.346 545.191 107.346 542.732 110.93C540.649 113.596 538.337 115.93 535.795 117.93C533.295 119.43 531.316 119.721 529.857 118.805C528.399 117.888 527.482 116.367 527.107 114.242C526.732 112.117 526.962 109.492 527.795 106.367C529.295 102.159 530.566 99.6589 531.607 98.8672C532.607 98.0755 533.524 97.8464 534.357 98.1797C535.232 98.513 535.774 99.138 535.982 100.055C536.149 100.93 535.712 101.805 534.67 102.68H534.795L534.732 102.742C533.232 105.742 532.066 108.388 531.232 110.68C530.732 112.846 530.795 114.659 531.42 116.117C532.378 116.534 533.482 116.201 534.732 115.117C535.982 114.076 537.212 112.742 538.42 111.117C539.628 109.451 540.67 107.951 541.545 106.617C542.045 105.867 542.441 105.284 542.732 104.867C543.066 104.409 543.399 103.888 543.732 103.305C546.566 99.0547 549.274 95.6589 551.857 93.1172C552.357 92.7005 552.816 92.638 553.232 92.9297C553.691 93.2214 554.066 93.7005 554.357 94.3672C554.607 95.2005 554.295 97.0964 553.42 100.055C552.753 104.888 552.795 107.888 553.545 109.055C555.17 107.138 556.378 105.721 557.17 104.805C557.795 104.096 558.566 103.138 559.482 101.93C562.274 98.1797 564.712 95.2422 566.795 93.1172C567.295 92.7005 567.753 92.638 568.17 92.9297C568.628 93.2214 569.003 93.7005 569.295 94.3672C569.545 95.2005 569.232 97.0964 568.357 100.055C567.899 101.971 567.587 103.763 567.42 105.43C567.253 107.138 567.524 108.638 568.232 109.93C570.066 111.638 572.212 112.409 574.67 112.242C577.17 112.076 579.67 111.451 582.17 110.367C584.712 109.284 586.92 108.201 588.795 107.117C589.045 106.951 589.357 106.763 589.732 106.555C593.316 104.596 596.482 102.18 599.232 99.3047C599.441 99.0547 599.67 98.9714 599.92 99.0547C600.17 99.0964 600.357 99.2214 600.482 99.4297C600.607 99.638 600.587 99.8672 600.42 100.117C600.003 100.617 599.566 101.055 599.107 101.43C596.566 103.388 593.295 105.596 589.295 108.055C585.337 110.513 581.295 112.263 577.17 113.305C573.087 114.305 569.587 113.617 566.67 111.242C565.587 110.117 564.962 108.305 564.795 105.805C564.628 103.763 564.899 101.471 565.607 98.9297C564.566 100.846 563.587 102.534 562.67 103.992ZM603.607 102.492C603.607 102.534 603.587 102.555 603.545 102.555C603.587 102.555 603.607 102.534 603.607 102.492ZM647.482 99.2422C648.774 98.8672 649.316 99.013 649.107 99.6797C648.899 100.305 648.232 101.242 647.107 102.492C645.982 103.701 644.691 104.971 643.232 106.305C641.774 107.596 640.462 108.742 639.295 109.742C638.17 110.701 637.482 111.263 637.232 111.43C636.274 112.138 635.295 112.888 634.295 113.68C631.795 115.68 629.191 117.513 626.482 119.18C623.774 120.805 620.837 121.805 617.67 122.18C615.295 121.888 613.691 120.909 612.857 119.242C612.024 117.576 611.67 115.638 611.795 113.43C611.92 111.221 612.232 109.138 612.732 107.18C610.691 109.68 608.399 111.93 605.857 113.93C603.357 115.43 601.378 115.721 599.92 114.805C598.462 113.888 597.545 112.367 597.17 110.242C596.795 108.117 596.982 105.992 597.732 103.867C598.399 101.326 599.232 99.6589 600.232 98.8672C601.274 98.0755 602.212 97.8464 603.045 98.1797C603.92 98.513 604.441 99.138 604.607 100.055C604.816 100.93 604.399 101.805 603.357 102.68C603.399 102.68 603.441 102.68 603.482 102.68C603.524 102.638 603.545 102.596 603.545 102.555C603.503 102.596 603.462 102.659 603.42 102.742C602.628 104.076 601.941 105.617 601.357 107.367C600.816 109.076 600.857 110.659 601.482 112.117C602.441 112.534 603.545 112.221 604.795 111.18C606.045 110.096 607.274 108.742 608.482 107.117C609.691 105.451 610.732 103.951 611.607 102.617C612.107 101.867 612.503 101.284 612.795 100.867C613.128 100.409 613.462 99.888 613.795 99.3047C614.503 97.9297 615.42 96.8464 616.545 96.0547C617.295 95.5964 618.003 95.5339 618.67 95.8672C619.378 96.1589 619.857 96.6797 620.107 97.4297C620.357 98.138 620.212 98.8255 619.67 99.4922C619.503 99.7005 619.357 99.888 619.232 100.055C619.191 100.055 619.17 100.055 619.17 100.055L619.232 100.117C619.191 100.159 619.128 100.221 619.045 100.305C619.003 100.346 618.982 100.388 618.982 100.43C618.399 101.18 617.899 101.951 617.482 102.742C615.649 106.201 614.545 109.867 614.17 113.742C614.087 118.242 615.503 120.367 618.42 120.117C621.378 119.867 624.92 118.326 629.045 115.492C633.212 112.659 637.066 109.617 640.607 106.367C644.149 103.117 646.441 100.742 647.482 99.2422ZM649.92 111.805V111.93C649.92 111.888 649.899 111.867 649.857 111.867C649.899 111.826 649.92 111.805 649.92 111.805ZM694.92 99.2422C695.17 98.9922 695.42 98.9089 695.67 98.9922C695.92 99.0755 696.087 99.2422 696.17 99.4922C696.295 99.7422 696.232 99.9922 695.982 100.242C692.857 103.242 689.42 105.805 685.67 107.93C681.92 110.055 678.003 111.846 673.92 113.305C665.462 116.305 656.732 117.305 647.732 116.305L647.795 116.242C647.795 116.242 647.774 116.242 647.732 116.242C647.732 116.242 647.732 116.221 647.732 116.18C646.399 122.555 644.795 128.805 642.92 134.93C641.003 141.096 638.295 146.93 634.795 152.43C634.628 152.721 634.378 152.909 634.045 152.992C633.67 153.076 633.337 153.034 633.045 152.867C632.67 152.659 632.462 152.034 632.42 150.992C632.378 149.951 632.441 148.784 632.607 147.492C632.732 146.201 632.857 145.076 632.982 144.117C633.066 143.617 633.128 143.242 633.17 142.992C634.962 132.784 638.482 123.201 643.732 114.242C644.607 109.451 645.566 104.68 646.607 99.9297C646.941 98.888 647.545 98.2839 648.42 98.1172C649.295 97.9505 650.066 98.138 650.732 98.6797C651.441 99.2214 651.691 100.055 651.482 101.18C651.191 102.18 650.899 103.18 650.607 104.18C652.982 101.18 655.607 98.7214 658.482 96.8047C661.399 94.8464 664.274 94.5339 667.107 95.8672C670.649 98.6172 672.066 101.242 671.357 103.742C670.691 106.242 668.92 108.43 666.045 110.305C663.17 112.138 660.253 113.492 657.295 114.367C663.128 114.617 668.941 113.721 674.732 111.68C680.524 109.638 685.732 106.909 690.357 103.492C692.024 102.201 693.545 100.784 694.92 99.2422ZM635.482 145.492C638.191 139.367 640.17 132.992 641.42 126.367C641.587 125.492 641.753 124.617 641.92 123.742C638.67 130.701 636.524 137.951 635.482 145.492ZM649.857 111.867C649.774 111.951 649.753 112.034 649.795 112.117L649.92 111.93C650.295 112.221 650.712 112.513 651.17 112.805C652.462 112.93 653.795 112.763 655.17 112.305C655.587 112.18 656.024 112.076 656.482 111.992C658.524 111.451 660.774 110.471 663.232 109.055C665.732 107.638 667.42 105.992 668.295 104.117C669.17 102.242 668.232 100.305 665.482 98.3047C664.066 97.763 662.566 97.9089 660.982 98.7422C659.441 99.5755 657.982 100.68 656.607 102.055C655.232 103.388 654.107 104.555 653.232 105.555C651.774 107.388 650.378 109.284 649.045 111.242C649.17 111.284 649.295 111.346 649.42 111.43C649.545 111.596 649.691 111.742 649.857 111.867ZM702.17 101.93C702.212 101.93 702.232 101.909 702.232 101.867C702.232 101.909 702.212 101.93 702.17 101.93ZM691.92 119.742L691.857 119.68C691.857 119.721 691.878 119.742 691.92 119.742ZM707.482 102.805C708.857 101.513 710.191 100.388 711.482 99.4297C712.649 96.263 713.795 94.013 714.92 92.6797C715.67 91.8047 716.399 91.4922 717.107 91.7422C717.857 91.9922 718.378 92.4505 718.67 93.1172C718.712 93.2005 718.732 93.2839 718.732 93.3672C719.316 95.0755 719.003 96.5547 717.795 97.8047C717.087 98.3464 716.253 98.9922 715.295 99.7422C714.837 100.534 714.42 101.367 714.045 102.242C712.962 104.784 712.649 107.346 713.107 109.93C713.941 112.805 715.587 114.43 718.045 114.805C720.545 115.18 723.066 114.596 725.607 113.055C729.649 110.721 733.337 107.888 736.67 104.555C738.337 102.93 739.899 101.221 741.357 99.4297C741.691 99.0964 742.024 98.9714 742.357 99.0547C742.691 99.138 742.92 99.3255 743.045 99.6172C743.17 99.9505 743.066 100.284 742.732 100.617L739.982 103.242C736.982 106.242 733.795 109.013 730.42 111.555C727.045 114.096 723.357 115.763 719.357 116.555C715.024 116.346 712.295 114.638 711.17 111.43C710.295 108.888 710.087 106.117 710.545 103.117C709.503 103.826 708.378 104.596 707.17 105.43C703.587 108.638 700.191 112.18 696.982 116.055C695.232 118.18 694.024 119.617 693.357 120.367C692.774 120.951 692.107 121.201 691.357 121.117C690.607 121.034 690.003 120.68 689.545 120.055C689.087 119.471 688.982 118.763 689.232 117.93C690.232 114.638 691.42 111.367 692.795 108.117L694.232 104.242V104.18C694.816 102.763 695.337 101.305 695.795 99.8047C696.17 98.8047 696.795 98.2422 697.67 98.1172C698.545 97.9922 699.316 98.2214 699.982 98.8047C700.649 99.388 700.837 100.201 700.545 101.242C699.628 104.201 698.587 107.138 697.42 110.055C697.003 111.388 696.337 113.18 695.42 115.43C696.67 113.93 697.962 112.471 699.295 111.055C700.17 110.138 701.003 109.221 701.795 108.305C702.003 108.096 702.649 107.471 703.732 106.43C704.774 105.346 706.024 104.138 707.482 102.805ZM784.482 99.4922C784.607 99.9922 784.316 100.388 783.607 100.68C782.941 100.971 782.212 101.201 781.42 101.367C780.795 101.534 780.337 101.68 780.045 101.805C775.878 102.888 771.649 103.451 767.357 103.492C767.149 103.492 766.941 103.492 766.732 103.492C765.107 103.451 763.191 103.346 760.982 103.18C758.774 103.013 756.67 102.617 754.67 101.992C754.753 105.159 754.191 108.242 752.982 111.242C751.816 114.242 750.17 116.513 748.045 118.055C745.545 119.846 743.253 120.346 741.17 119.555C739.087 118.763 737.753 116.867 737.17 113.867C736.545 108.367 737.899 103.346 741.232 98.8047C742.941 96.5964 745.045 94.8672 747.545 93.6172C748.712 93.1589 749.649 93.3255 750.357 94.1172C750.732 93.7422 751.212 93.7005 751.795 93.9922C753.212 95.6172 754.107 97.638 754.482 100.055C756.566 100.888 758.899 101.43 761.482 101.68C764.066 101.888 766.024 101.992 767.357 101.992C772.982 102.034 778.399 101.076 783.607 99.1172C783.774 99.0339 783.941 99.0339 784.107 99.1172C784.274 99.2005 784.399 99.3255 784.482 99.4922ZM751.92 98.3672C751.795 97.7422 751.607 97.138 751.357 96.5547C751.357 97.2214 751.545 97.8255 751.92 98.3672ZM743.357 117.055C746.566 116.305 748.941 114.326 750.482 111.117C752.066 107.909 752.712 104.534 752.42 100.992C751.128 100.284 750.232 99.3255 749.732 98.1172C747.399 99.3255 745.524 101.034 744.107 103.242C742.732 105.409 741.837 107.763 741.42 110.305C741.42 110.471 741.399 110.638 741.357 110.805C741.232 112.013 741.232 113.263 741.357 114.555C741.524 115.846 742.191 116.68 743.357 117.055ZM818.482 99.1797C818.691 98.9714 818.899 98.9089 819.107 98.9922C819.316 99.0755 819.441 99.2214 819.482 99.4297C819.566 99.638 819.503 99.8255 819.295 99.9922C815.503 102.867 811.503 105.367 807.295 107.492C803.087 109.617 798.816 111.513 794.482 113.18C793.524 113.513 792.524 113.888 791.482 114.305C791.441 114.305 791.42 114.305 791.42 114.305C792.253 115.555 792.795 116.888 793.045 118.305C793.003 121.471 792.17 124.513 790.545 127.43C788.962 130.346 787.066 132.992 784.857 135.367C784.816 135.409 784.753 135.471 784.67 135.555C783.962 136.263 783.003 137.138 781.795 138.18C780.545 139.221 779.316 140.034 778.107 140.617C776.857 141.201 775.878 141.117 775.17 140.367C773.753 137.451 773.774 132.596 775.232 125.805C776.691 119.013 778.92 111.534 781.92 103.367C784.878 95.2005 787.899 87.5964 790.982 80.5547C794.107 73.513 796.566 68.2839 798.357 64.8672C798.732 64.2422 799.087 63.6172 799.42 62.9922C800.295 61.3255 801.253 59.7214 802.295 58.1797C803.337 56.5964 804.628 55.2214 806.17 54.0547C806.962 53.4714 807.732 53.388 808.482 53.8047C809.232 54.2214 809.566 54.888 809.482 55.8047C808.566 60.388 807.378 64.8672 805.92 69.2422C802.92 77.5339 798.941 85.388 793.982 92.8047C793.941 92.888 793.837 93.0339 793.67 93.2422C793.212 93.9089 792.462 94.9922 791.42 96.4922C790.42 97.9505 789.357 99.388 788.232 100.805C786.857 104.43 785.524 108.076 784.232 111.742C784.357 111.701 784.482 111.659 784.607 111.617C786.191 111.159 787.607 111.284 788.857 111.992C793.566 111.784 798.941 110.284 804.982 107.492C811.024 104.659 815.524 101.888 818.482 99.1797ZM805.482 62.4297C803.482 65.763 801.712 69.2214 800.17 72.8047C799.503 74.2214 798.816 75.638 798.107 77.0547C795.232 83.4714 792.524 89.9297 789.982 96.4297C796.441 87.9714 801.149 78.763 804.107 68.8047C804.191 68.4714 804.274 68.1172 804.357 67.7422C804.899 65.9922 805.274 64.2214 805.482 62.4297ZM786.045 116.242L785.982 116.18C785.649 116.263 785.295 116.346 784.92 116.43C784.003 116.346 783.378 115.951 783.045 115.242C782.628 116.451 782.232 117.68 781.857 118.93C781.357 120.596 780.837 122.263 780.295 123.93C779.503 126.263 778.816 128.596 778.232 130.93C777.649 133.305 777.337 135.68 777.295 138.055C780.003 136.221 782.295 133.951 784.17 131.242C786.045 128.534 787.42 125.659 788.295 122.617C788.587 121.576 788.712 120.555 788.67 119.555C788.545 118.888 788.212 118.201 787.67 117.492C787.17 116.784 786.628 116.367 786.045 116.242ZM861.42 99.3672C861.587 99.0755 861.816 98.9505 862.107 98.9922C862.399 99.0339 862.628 99.1797 862.795 99.4297C862.962 99.638 862.962 99.888 862.795 100.18C861.587 101.888 860.191 103.409 858.607 104.742C857.024 106.034 855.378 107.263 853.67 108.43C853.378 108.638 853.107 108.826 852.857 108.992C848.732 111.826 844.753 114.013 840.92 115.555C837.087 117.055 833.753 117.346 830.92 116.43C828.128 115.471 826.17 112.68 825.045 108.055C822.295 112.138 819.337 116.076 816.17 119.867C814.503 121.534 812.795 122.013 811.045 121.305C809.253 120.555 808.545 118.971 808.92 116.555C810.628 108.971 814.191 102.388 819.607 96.8047C821.357 95.013 823.503 93.5755 826.045 92.4922C827.045 92.1172 827.857 92.2422 828.482 92.8672C829.149 93.4922 829.462 94.263 829.42 95.1797C829.378 96.0547 828.857 96.7005 827.857 97.1172C824.732 98.7005 822.107 100.951 819.982 103.867C817.899 106.742 816.274 109.867 815.107 113.242C818.524 108.826 821.712 104.242 824.67 99.4922C825.128 98.7839 825.732 98.4089 826.482 98.3672C827.274 98.3255 827.941 98.5547 828.482 99.0547C829.066 99.5547 829.337 100.221 829.295 101.055C828.462 103.596 828.232 106.221 828.607 108.93C829.024 111.596 830.607 113.471 833.357 114.555C837.482 114.513 841.649 113.346 845.857 111.055C850.066 108.763 853.816 106.346 857.107 103.805C858.816 102.555 860.253 101.076 861.42 99.3672Z" fill="white"></path></svg> 