<?xml version="1.0" encoding="UTF-8"?> <svg xmlns="http://www.w3.org/2000/svg" width="369" height="287" viewBox="0 0 369 287" fill="none"><path d="M171.593 29.2642C178.995 31.1681 182.379 35.4696 181.463 41.6045C180.405 48.515 178.713 48.5855 177.797 41.7455C177.162 37.2325 175.823 35.5401 171.17 33.4951C166.305 31.3091 163.415 30.8155 161.723 31.7322L160.243 32.5079L161.935 35.8221C163.204 38.3607 163.556 39.771 163.204 41.5339C162.71 43.7199 162.64 43.7905 161.582 42.5212C160.948 41.816 159.608 39.7005 158.551 37.8671C157.493 36.0337 155.66 33.4246 154.532 32.0848C152.77 30.1104 151.994 29.6873 149.95 29.8988C146.495 30.1809 145.791 31.0976 147.553 33.3541C149.456 35.7516 148.54 36.1747 144.804 34.4823C143.112 33.7772 140.574 33.1425 139.093 33.1425C136.273 33.1425 129.717 35.5401 127.602 37.2325C126.051 38.5723 126.122 39.4185 127.814 41.6045C130.492 45.0597 129.223 46.188 125.628 43.6494C122.456 41.3929 118.508 41.1108 115.688 42.9443C110.612 46.188 110.048 46.9637 110.541 49.9253C110.894 52.1818 111.528 53.028 114.137 54.6499C116.252 55.9897 117.944 57.8231 119.001 59.9386C120.764 63.4644 125.981 68.6826 127.32 68.189C127.814 68.0479 128.166 66.4966 128.166 64.4516C128.166 62.5477 128.448 60.8553 128.871 60.7143C129.223 60.5732 130.774 63.2529 132.255 66.7081C135.216 73.5482 136.767 75.5932 139.234 75.8752C141.631 76.1573 144.733 77.4266 144.733 78.2022C144.733 79.6126 142.477 80.5293 139.939 80.1767C135.568 79.6126 133.594 78.4843 131.55 75.5226C129.858 73.1251 129.153 72.702 127.109 72.6315C125.699 72.6315 123.372 71.9968 121.821 71.2212C118.649 69.5993 117.944 70.0929 117.944 74.1123C117.944 76.2983 118.296 76.7214 120.411 77.7791C121.751 78.4138 122.879 79.401 122.879 79.9651C122.879 81.3049 127.602 82.2922 128.73 81.1639C129.787 80.1062 130.633 80.1767 130.633 81.446C130.633 84.0551 124.218 83.9846 121.187 81.2344C118.931 79.3305 117.944 79.26 118.437 80.9524C118.578 81.728 118.437 83.914 118.085 85.8885C117.521 89.2027 117.591 89.5553 118.86 89.9784C120.2 90.4015 120.2 90.8246 119.777 98.4403L119.283 106.409L122.033 108.172C126.756 111.133 127.814 113.037 127.814 118.467C127.814 121.076 127.391 124.531 126.827 126.083C124.641 132.217 124.571 132.147 131.338 132.57C136.767 132.923 137.895 133.275 142.83 136.025C150.091 140.045 149.104 141.244 141.279 137.859C136.485 135.814 134.581 135.391 130.563 135.391C127.884 135.391 125.699 135.109 125.699 134.686C125.699 133.557 121.962 130.455 116.181 126.858C112.092 124.32 109.907 123.403 107.933 123.403C104.479 123.403 104.479 124.602 108.074 127.14C112.233 130.102 111.881 131.794 107.722 129.044C105.184 127.352 104.549 127.281 104.549 128.692C104.549 129.256 105.818 130.596 107.369 131.583C110.4 133.628 110.682 134.121 109.273 135.25C108.709 135.743 107.933 135.673 106.664 135.038C104.408 133.769 102.434 133.698 102.434 134.897C102.434 136.237 114.842 142.936 118.437 143.5C120.411 143.782 121.469 144.346 121.68 145.263C122.103 146.955 131.832 153.231 136.978 155.206C142.548 157.321 145.438 157.603 153.475 156.545C159.679 155.699 161.159 155.276 165.177 152.808C167.715 151.257 170.747 149.071 171.875 147.943C173.567 146.391 174.272 146.18 174.906 146.814C177.021 148.93 174.554 152.667 169.266 155.276C161.935 158.943 159.115 159.93 154.25 160.776C147.341 161.905 137.754 160.283 130.915 156.898C128.095 155.558 125.699 154.43 125.417 154.43C125.205 154.43 125.064 155.135 125.064 155.981C125.135 158.167 123.866 164.937 123.302 165.501C122.103 166.7 113.643 168.322 110.753 167.828C106.523 167.193 102.434 163.95 102.364 161.129C102.223 154.853 102.646 149.212 103.492 145.545L104.479 141.385L102.364 139.622C101.024 138.423 100.319 137.224 100.319 135.884C100.319 134.827 100.108 133.98 99.8258 133.98C99.6143 133.98 98.2043 135.179 96.7239 136.66C93.4809 140.045 85.7262 144.135 80.7208 145.192C76.7024 146.039 69.3706 146.25 67.6081 145.545C66.9737 145.333 66.4802 144.699 66.4802 144.135C66.4802 142.724 68.8066 141.737 72.0495 141.737C75.2924 141.737 82.5537 140.045 86.5721 138.352C91.366 136.378 98.4863 131.512 100.531 128.833C101.588 127.352 102.998 126.224 103.562 126.224C104.338 126.224 104.408 125.942 103.844 124.884C102.716 122.698 102.998 122.204 105.607 121.781C109.625 121.146 114.771 123.262 122.667 128.762L124.218 129.89L123.936 125.025C123.725 122.416 123.936 119.172 124.359 117.903C124.994 116.069 124.923 115.294 124.007 113.883C122.949 112.332 119.495 110.005 118.155 109.934C117.803 109.934 117.662 109.37 117.732 108.736C117.803 108.101 117.732 107.043 117.521 106.479C117.309 105.915 117.168 102.389 117.239 98.6519C117.309 93.5042 117.098 91.6708 116.252 91.0361C114.63 89.6963 114.278 91.0361 113.855 99.7096L113.502 107.537L110.823 110.075C108.85 111.909 108.074 113.178 108.074 114.73C108.074 117.198 106.523 119.595 105.395 118.89C104.902 118.608 104.549 116.633 104.549 114.236C104.549 110.64 104.761 109.934 106.382 108.665C107.44 107.819 108.85 107.184 109.555 107.184C110.612 107.184 110.894 106.62 111.035 104.152C111.317 95.4787 112.163 90.6836 113.573 89.6963C114.701 88.9912 114.842 88.0745 114.63 82.9973C114.419 78.9074 114.701 76.2983 115.476 74.0418L116.604 70.8686L108.638 63.1118C103.492 58.1052 99.2618 54.5794 96.7943 53.3806C92.7055 51.3357 89.7445 50.9126 89.7445 52.3934C89.7445 52.9575 93.8334 57.6821 98.9093 62.9708C107.792 72.2789 109.343 74.8175 107.017 75.7342C106.241 76.0163 103.915 74.2533 99.9668 70.4455C95.2434 65.9325 93.7629 64.8747 92.635 65.2273C89.7445 66.144 91.0135 68.5416 98.2043 76.0163C106.1 84.1961 107.017 85.3949 105.818 86.5936C104.549 87.8629 104.126 87.7219 99.6143 83.5615C97.2878 81.446 95.1729 79.6831 94.8204 79.6831C93.3399 79.6831 91.1545 82.0806 91.1545 83.632C91.1545 85.3949 95.8779 90.6836 100.954 94.6325C103.069 96.1838 103.28 96.6069 102.505 97.5941C100.954 99.4981 99.1913 98.8634 94.0449 94.6325C88.2641 89.9079 85.9376 85.8885 86.6426 82.0806C87.0656 79.6831 90.0265 76.5099 91.225 77.2855C92.353 77.9907 91.8595 76.5099 90.0265 73.8303C86.7131 68.9647 87.0656 63.958 90.802 63.0413L92.5645 62.6182L89.7445 58.6693C86.8541 54.6499 86.2196 52.5344 87.7706 51.9703C88.4051 51.7588 88.2641 51.3357 87.2771 50.56C86.0081 49.5728 86.0081 49.4317 87.0656 49.0086C88.6871 48.374 95.4549 48.9381 97.2173 49.9253C98.0633 50.3484 98.9093 50.4895 99.1913 50.2779C99.4028 50.0664 99.6143 50.2074 99.6143 50.6305C99.6143 51.1241 100.037 51.4767 100.531 51.4767C102.152 51.4767 116.534 67.2723 116.534 69.0352C116.534 69.4583 116.957 69.5993 117.521 69.3877C118.296 69.1057 118.296 68.5416 117.662 66.7787C117.239 65.5094 116.604 64.099 116.252 63.5349C115.899 62.9708 115.617 61.49 115.688 60.2207C115.758 58.1052 115.547 57.8231 113.009 57.0475C108.991 55.8487 106.735 53.0986 106.241 48.9381C105.677 44.4956 107.228 42.4506 113.361 39.4185C117.027 37.6556 118.508 37.2325 120.834 37.585C123.513 37.9376 123.866 37.7966 127.461 34.1298C133.03 28.418 137.19 27.0782 142.407 29.2642C144.663 30.2514 145.086 30.2514 146.143 29.2642C147.694 27.8538 155.167 27.8538 157.211 29.2642C158.41 30.1104 159.115 30.1809 160.736 29.5462C163.556 28.418 167.856 28.3475 171.593 29.2642ZM107.228 152.032C107.228 156.545 107.51 160.494 107.863 160.776C108.145 161.129 110.118 162.187 112.163 163.244C116.534 165.43 120.27 165.43 120.411 163.244C120.623 160.494 121.61 155.488 122.244 153.302C122.808 151.468 122.667 150.622 121.469 148.648C120.129 146.391 119.706 146.109 115.758 145.757C113.432 145.474 110.682 144.84 109.625 144.276C108.568 143.712 107.581 143.43 107.44 143.571C107.299 143.712 107.158 147.519 107.228 152.032Z" fill="#272727"></path><path d="M189.64 38.7839C196.337 40.3353 201.624 50.7011 198.734 56.4834C197.818 58.3874 197.818 58.5989 199.087 59.2336C202.47 61.067 203.669 68.1891 201.131 71.4328C200.356 72.42 199.721 73.6893 199.721 74.324C199.721 75.5933 199.51 75.6638 195.139 76.8626C192.671 77.4972 192.107 78.0613 190.627 81.164C188.794 85.1834 186.256 86.7348 181.462 86.7348C178.783 86.7348 178.572 86.8758 177.867 89.5554C176.95 93.0812 174.412 94.8441 170.605 94.7031C167.644 94.5621 165.388 93.0812 166.164 91.7414C166.446 91.3183 167.926 90.7542 169.407 90.5427C173.073 89.908 174.412 88.2861 174.553 84.1962C174.694 81.0935 174.483 80.6704 172.579 79.6832C170.041 78.4139 163.626 78.4844 158.198 79.8947C153.615 81.0935 150.302 80.5294 147.834 78.2024C146.424 76.9331 146.143 75.9458 146.213 73.0547C146.284 68.8237 146.918 66.2852 147.905 66.0736C148.257 66.0031 148.68 67.3429 148.751 68.9648C148.962 74.5355 152.981 78.4139 156.929 77.0036C158.198 76.5805 161.864 76.0869 165.177 75.8048C172.156 75.3112 175.117 76.3689 177.514 80.1768C178.713 82.1513 179.347 82.4333 181.956 82.5038C184.423 82.5038 185.41 82.0807 187.595 80.1063L190.204 77.6382L187.807 75.5933C186.115 74.1829 185.551 73.1957 185.833 72.42C186.185 71.4328 186.961 71.2213 190.133 71.5033C193.235 71.7854 194.293 71.5739 195.562 70.4456C198.875 67.625 199.369 64.0992 197.113 60.2913C196.478 59.163 196.126 59.022 195.421 59.7272C194.222 60.8554 190.556 60.9259 190.556 59.7977C190.556 59.3041 191.543 57.8938 192.742 56.695C196.055 53.3102 196.196 49.9255 193.235 45.5535C191.05 42.2392 186.961 39.5596 184 39.4891C183.365 39.4891 182.802 39.1365 182.802 38.7839C182.802 38.0083 186.326 37.9377 189.64 38.7839Z" fill="#272727"></path><path d="M139.586 48.5852C136.484 52.0404 135.991 53.5918 136.907 56.906C138.035 60.7844 137.894 62.0537 136.414 62.0537C135.074 62.0537 132.818 59.9382 131.549 57.5407C130.703 55.9893 131.408 52.1815 132.959 49.7839C134.228 47.9505 138.176 45.835 140.503 45.835C141.983 45.835 141.913 46.0466 139.586 48.5852Z" fill="#272727"></path><path d="M166.588 54.7905C169.056 55.7072 171.241 58.5983 171.382 60.9959C171.594 63.6755 169.69 67.9769 167.364 70.0924C165.602 71.7143 165.531 71.5027 166.941 68.1885C168.633 64.1691 168.351 60.9959 166.165 59.3035C165.108 58.4573 163.416 57.8226 162.359 57.8226C160.455 57.8226 158.199 56.0597 159.045 55.2841C159.68 54.6494 165.39 54.2968 166.588 54.7905Z" fill="#272727"></path><path d="M215.585 84.6189C219.039 84.9715 223.057 85.4651 224.397 85.7472C225.736 85.9587 227.64 86.3113 228.627 86.3818C229.614 86.5229 231.306 87.0165 232.504 87.4396C233.632 87.9332 235.254 88.4973 235.959 88.6383C238.849 89.1319 251.468 96.3951 254.852 99.4273C258.236 102.459 258.448 102.883 258.8 106.62C259.082 109.934 258.871 110.78 257.602 112.05C255.91 113.742 251.468 114.024 247.732 112.755C245.687 112.05 245.405 112.191 243.502 114.095C241.105 116.704 238.849 117.338 233.985 116.774C230.319 116.351 230.248 116.422 229.191 118.749C227.781 121.71 225.031 122.274 218.687 120.935C214.034 119.947 213.117 120.088 213.117 121.569C213.117 122.063 212.483 123.05 211.707 123.755C210.579 124.813 208.958 125.095 204.305 125.236C199.018 125.377 198.031 125.659 196.127 127.211C193.448 129.467 190.84 130.172 189.5 129.044C188.161 127.916 188.795 126.929 190.84 126.929C193.237 126.929 196.903 125.518 196.903 124.601C196.903 124.108 195.845 123.262 194.576 122.698C192.038 121.499 189.853 118.185 190.91 117.127C191.404 116.704 193.237 117.409 196.198 119.242C200.569 121.922 200.992 121.992 206.067 121.851C212.553 121.569 213.047 120.441 207.477 118.114C203.741 116.563 200.428 114.024 200.428 112.755C200.428 111.344 204.798 112.261 209.028 114.659C211.425 116.069 216.078 117.832 219.18 118.678C224.679 120.088 224.961 120.088 226.794 118.96C229.473 117.127 229.05 115.999 224.89 114.024C218.405 110.992 214.316 106.479 218.052 106.479C218.828 106.479 222.352 108.03 225.948 109.934C233.068 113.601 239.766 115.152 241.739 113.53C243.431 112.05 242.867 111.133 238.99 108.947C236.593 107.537 235.254 106.267 235.113 105.21C234.76 103.024 236.734 103.165 243.29 105.844C251.609 109.229 252.314 109.37 253.583 107.96C255.416 105.915 254.852 104.504 250.975 101.684C242.585 95.4784 233.914 90.8948 227.358 89.273C220.308 87.5101 209.169 87.7921 200.569 89.9781C193.66 91.6705 181.041 96.6772 177.727 99.0042C174.061 101.613 174.132 99.8504 177.939 96.113C179.913 94.1386 183.438 92.0231 189.007 89.4845C200.498 84.3369 204.446 83.5612 215.585 84.6189ZM205.362 124.108C205.362 124.46 205.644 124.813 206.067 124.813C206.42 124.813 206.772 124.46 206.772 124.108C206.772 123.685 206.42 123.403 206.067 123.403C205.644 123.403 205.362 123.685 205.362 124.108Z" fill="#272727"></path><path d="M153.193 85.8879C153.193 87.6508 150.796 89.5547 148.611 89.5547C145.721 89.5547 141.209 87.5097 141.209 86.2404C141.209 85.0417 141.491 85.0417 144.099 86.6635C145.932 87.7918 146.708 87.8623 148.54 87.2982C149.739 86.8751 151.008 86.2404 151.36 85.9584C152.206 85.1827 153.193 85.1122 153.193 85.8879Z" fill="#272727"></path><path d="M136.062 94.0685C139.094 96.8186 138.812 98.229 135.71 95.9725C134.511 95.1263 133.243 94.4916 132.82 94.4916C131.692 94.4916 131.903 96.325 133.102 97.3123C134.582 98.511 134.441 99.4277 132.82 99.4277C132.044 99.4277 131.198 99.7803 130.916 100.203C130.211 101.332 132.115 102.319 134.088 101.896C139.517 100.556 139.799 100.627 139.799 102.178C139.799 103.447 139.376 103.659 136.415 103.729C134.582 103.729 132.538 103.87 131.903 104.011C128.731 104.646 126.052 99.0752 129.154 98.229C130.282 97.9469 130.493 97.3123 130.423 94.9852C130.282 92.4467 130.493 92.0236 131.833 91.812C132.82 91.671 134.37 92.4467 136.062 94.0685Z" fill="#272727"></path><path d="M165.178 96.254C165.178 96.8181 166.376 97.8759 167.857 98.6515C179.348 104.504 185.481 116.069 185.834 132.57C185.975 137.506 185.693 138.987 184.494 141.032C183.085 143.5 180.053 144.839 179.912 143.006C179.842 142.512 179.842 137.153 179.912 131.159L180.053 120.229L177.515 115.011C175.682 111.203 173.426 108.171 169.337 104.011L163.698 98.2284L159.679 102.177C154.321 107.396 149.386 109.793 141.773 110.851C137.049 111.485 134.793 111.485 131.903 110.78C126.263 109.511 121.892 107.113 121.61 105.21C121.328 103.376 122.527 103.165 126.052 104.716C127.462 105.28 131.057 106.056 134.159 106.479C142.055 107.537 146.567 106.69 152.136 102.953C155.731 100.555 164.544 95.1963 164.896 95.1963C165.037 95.1963 165.178 95.6899 165.178 96.254Z" fill="#272727"></path><path d="M107.581 99.8501C107.793 100.062 106.171 101.542 103.915 103.023C101.518 104.575 97.2179 108.806 93.552 113.037C87.0661 120.582 83.7527 123.402 81.2853 123.402C79.5228 123.402 79.5228 122.627 81.3558 120.3C83.3297 117.832 82.4133 117.973 79.3113 120.652C76.2094 123.402 72.8255 124.883 70.8516 124.319C69.5121 124.037 69.3006 124.249 69.3006 125.8C69.3006 129.537 65.2117 134.685 62.2508 134.685C61.1228 134.685 61.0523 134.967 62.0393 139.41C62.6033 142.089 62.8853 145.826 62.7443 147.801C62.5328 149.775 62.6033 151.679 62.8148 152.032C63.2378 152.667 65.4937 153.442 70.5696 154.782C72.6845 155.417 74.5175 158.237 73.9535 160.282C73.2485 163.103 67.8201 164.513 58.5144 164.161C50.1251 163.879 46.8117 162.821 45.3313 160.071C44.1328 157.814 47.1642 153.372 49.2792 154.218C49.7021 154.359 51.9581 153.865 54.214 153.09C58.9374 151.538 59.0079 151.397 59.7834 140.89L60.1359 135.531L56.47 134.685C54.4255 134.262 52.0991 133.275 51.1826 132.499C48.8562 130.242 48.0807 131.371 48.2922 136.659L48.5037 141.384L51.8171 141.596C54.5665 141.807 55.201 141.596 55.201 140.749C55.201 140.115 54.4255 139.198 53.4385 138.775C50.1956 137.294 51.8876 135.461 55.2715 136.8C57.4569 137.717 57.9504 139.903 56.611 142.442C56.1175 143.358 56.1175 143.923 56.611 144.205C58.7964 145.544 55.2715 149 50.8301 149.846C48.5742 150.269 47.9397 150.057 46.3887 148.506C44.6263 146.743 44.4853 146.25 44.6968 141.525C44.9083 135.954 45.6838 132.852 47.2347 131.018C48.0807 130.031 48.1512 129.396 47.4462 127.351C46.3887 124.037 45.8952 116.492 46.6707 115.152C47.0232 114.376 47.0232 113.53 46.5297 112.754C45.6133 111.203 47.5872 107.889 49.4201 107.889C50.1251 107.889 50.9711 107.607 51.3941 107.254C52.8746 105.703 60.4883 104.998 64.2952 105.985C67.9611 106.972 69.0891 109.088 69.6531 116.21C70.0056 120.229 70.4286 121.992 70.9926 121.781C71.486 121.569 74.306 119.806 77.2669 117.902C80.2983 115.928 83.6822 114.165 84.8102 113.883C86.0087 113.601 86.9251 113.178 86.9251 112.825C86.9251 111.697 96.5834 102.248 97.7818 102.248C98.4163 102.248 98.9098 101.895 98.9098 101.401C98.9098 100.978 99.1213 100.767 99.3328 100.978C99.5443 101.26 100.813 100.978 102.082 100.414C104.62 99.3564 106.876 99.1449 107.581 99.8501ZM52.2401 109.934C49.1382 110.568 48.2922 111.062 48.6447 111.838C48.9267 112.684 49.7726 112.896 52.3106 112.543C54.073 112.331 57.5274 111.979 59.9949 111.697C64.2247 111.274 66.0577 110.357 64.5067 109.37C63.3788 108.665 56.611 108.947 52.2401 109.934ZM62.1098 113.601C60.4178 114.024 56.611 114.447 53.5795 114.517L48.0102 114.588L48.5037 117.761C48.7857 119.524 49.1382 121.639 49.3496 122.556L49.7726 124.178L51.6056 122.415C53.2975 120.793 54.073 120.582 58.5849 120.582H63.6608V123.402C63.6608 125.377 63.1673 126.576 62.0393 127.704C60.6998 128.973 59.9244 129.114 56.047 128.762C53.65 128.55 51.6761 128.691 51.6761 128.973C51.6761 130.031 56.3995 131.864 59.2194 131.864C64.5772 131.864 66.4102 128.55 66.8332 117.973C67.0447 113.107 66.9037 112.049 66.1282 112.402C65.5642 112.613 63.8018 113.107 62.1098 113.601ZM48.1512 144.628C48.1512 145.615 52.4516 148.012 53.509 147.589C55.1305 146.955 54.637 146.038 51.8171 144.628C49.2087 143.288 48.1512 143.288 48.1512 144.628ZM50.9711 156.545C48.7857 158.731 49.2792 159.789 52.7336 160.776C58.3029 162.327 69.3006 160.987 69.3006 158.731C69.3006 158.308 59.7129 156.051 55.5535 155.628C54.355 155.487 53.227 155.276 52.8746 155.205C52.5926 155.205 51.7466 155.769 50.9711 156.545Z" fill="#272727"></path><path d="M163.98 127.916C162.641 130.243 152.559 138.916 151.15 138.916C146.779 138.916 153.264 130.736 159.821 127.986C162.993 126.646 164.756 126.576 163.98 127.916Z" fill="#272727"></path><path d="M189.852 143.218C189.852 144.91 188.23 144.698 187.878 142.936C187.737 142.23 188.089 141.737 188.724 141.737C189.429 141.737 189.852 142.371 189.852 143.218Z" fill="#272727"></path><path d="M195.563 145.051C197.678 147.519 198.03 147.66 202.19 147.731C206.138 147.731 206.843 148.013 209.24 150.058C211.496 152.103 211.989 152.244 213.046 151.468C216.43 148.718 219.039 147.872 224.397 147.872C230.389 147.872 232.856 148.577 240.611 152.173C246.463 154.853 249.846 157.391 257.108 164.302C262.325 169.309 264.792 173.257 264.44 176.149C264.017 179.745 261.831 178.899 255.416 172.552C244.7 162.045 236.593 156.686 226.512 153.372C222.705 152.103 214.315 151.609 213.328 152.596C213.046 152.808 213.399 154.007 214.104 155.205C214.809 156.334 215.161 157.814 214.95 158.379C214.174 160.424 211.566 159.295 207.407 155.276C203.177 151.115 200.075 148.929 199.37 149.635C199.158 149.846 199.299 151.398 199.652 153.09C200.639 157.25 200.639 160.283 199.652 159.93C198.665 159.577 195.492 154.077 195.492 152.667C195.492 152.173 194.435 150.34 193.096 148.647C190.84 145.615 190.769 145.474 191.968 143.993L193.237 142.442L195.563 145.051Z" fill="#272727"></path><path d="M296.304 165.853C300.464 167.898 301.521 168.109 307.936 168.109C314.07 168.18 315.48 168.391 318.511 170.013C323.446 172.481 328.663 180.238 330.425 187.572C333.457 200.124 332.329 206.4 326.83 207.951C323.235 209.009 319.216 206.541 311.461 198.572L304.412 191.309L301.944 192.578C298.701 194.2 288.127 198.149 286.928 198.149C286.364 198.149 282.487 199.418 278.257 200.97C265.99 205.553 257.53 207.175 247.379 206.964C232.715 206.611 204.727 200.194 200.215 196.245C198.523 194.623 198.735 194.13 201.273 193.636C203.106 193.284 207.618 194.059 213.117 195.822C213.681 195.963 214.174 196.034 214.174 195.963C214.174 195.893 214.949 196.175 215.795 196.668C216.712 197.162 218.333 197.726 219.32 197.867C220.378 198.008 222.634 198.502 224.396 198.854C230.53 200.194 250.833 201.04 256.261 200.194C263.241 199.207 269.092 197.656 273.886 195.611C276.142 194.694 278.821 193.918 279.949 193.918C281.006 193.918 282.205 193.636 282.557 193.354C282.98 193.002 285.166 192.296 287.492 191.803C291.722 190.886 294.471 190.181 302.085 187.924C306.738 186.585 306.033 186.232 313.788 193.777C319.075 198.925 324.433 203.085 325.843 203.085C328.028 203.085 327.605 193.777 325.138 185.809C323.517 180.45 320.062 175.514 316.749 173.821C314.352 172.552 310.333 172.411 309.205 173.539C307.795 174.949 299.829 173.892 294.471 171.565C289.607 169.449 289.184 169.379 283.192 169.943C279.737 170.295 274.873 171.212 272.335 171.988C269.797 172.763 267.189 173.257 266.554 173.045C265.497 172.763 265.708 172.34 267.612 170.718C272.617 166.346 280.865 163.526 288.479 163.596C290.594 163.667 293.273 164.443 296.304 165.853ZM328.028 195.681C328.028 196.245 328.522 196.739 329.086 196.739C329.65 196.739 330.143 196.245 330.143 195.681C330.143 195.117 329.65 194.623 329.086 194.623C328.522 194.623 328.028 195.117 328.028 195.681Z" fill="#272727"></path><path d="M137.754 171.847C144.804 181.155 148.54 185.316 152.699 188.489C157.141 191.874 164.543 196.034 166.869 196.457C167.856 196.598 169.407 197.022 170.324 197.374C172.721 198.291 182.732 198.079 185.269 197.092C188.865 195.611 192.249 195.047 191.614 196.034C190.698 197.515 184.071 200.054 178.784 200.97C174.201 201.676 173.073 201.676 167.504 200.265C161.018 198.643 158.833 197.656 152.488 193.002C147.13 189.053 142.266 184.329 139.234 180.168C137.824 178.194 135.427 175.232 133.947 173.469C130.14 169.027 128.8 166.418 130.069 165.642C131.902 164.443 132.678 165.078 137.754 171.847Z" fill="#272727"></path><path d="M179.981 218.247C194.857 232.984 196.901 234.465 201.977 233.69C206.277 232.984 228.414 222.619 231.798 219.727C233.349 218.388 234.688 217.612 234.829 217.965C234.97 218.317 235.393 218.599 235.816 218.599C236.239 218.599 236.38 218.106 236.168 217.541C235.745 216.554 239.341 212.958 240.68 212.958C242.09 212.958 244.135 214.439 244.135 215.497C244.135 217.33 241.103 220.785 236.309 224.241C230.74 228.33 228.414 229.529 218.755 233.408C214.667 235.029 210.225 236.863 208.886 237.498C207.194 238.344 204.585 238.696 200.426 238.696C195.068 238.696 194.081 238.485 190.909 236.651C184.423 232.843 175.822 223.676 169.266 213.522C160.736 200.336 162.85 201.252 179.981 218.247Z" fill="#272727"></path><path d="M208.182 226.144C208.182 227.766 204.022 230.093 201.766 229.741C199.722 229.458 199.158 227.414 200.92 226.426C201.625 226.074 203.599 225.58 205.221 225.298C207.759 224.945 208.182 225.086 208.182 226.144Z" fill="#272727"></path></svg> 