<?xml version="1.0" encoding="UTF-8"?> <svg xmlns="http://www.w3.org/2000/svg" width="305" height="289" viewBox="0 0 305 289" fill="none"><path d="M213.332 0.466354C202.665 2.59969 197.599 5.26635 190.265 12.9997C182.932 20.8664 182.665 20.9997 175.599 20.9997C167.199 20.9997 166.265 21.7997 159.999 34.333C155.732 42.5997 153.865 49.133 155.732 48.9997C156.265 48.8664 158.799 45.533 161.332 41.533C171.732 25.133 176.665 21.7997 181.732 27.6664C185.199 31.7997 187.599 30.9997 195.732 22.5997C200.532 17.7997 205.332 14.333 208.665 13.2664C216.799 10.733 232.132 9.79969 237.599 11.533C245.199 14.0664 250.132 20.4664 249.465 27.2664C249.199 30.333 241.199 33.133 228.932 34.4664C216.532 35.7997 204.799 39.933 199.332 44.8664C194.399 49.3997 187.599 51.933 178.132 52.9997C168.665 53.933 168.665 53.933 175.999 54.0664C185.065 54.1997 190.932 52.1997 201.599 45.2664C210.532 39.533 215.865 37.7997 231.999 35.7997C237.465 35.133 243.199 34.1997 244.532 33.533C246.399 32.8664 246.799 32.9997 246.132 34.0664C244.265 36.9997 237.199 39.7997 226.665 41.6664C215.065 43.6664 213.332 44.4664 203.465 51.533C196.932 56.1997 196.399 56.333 181.332 57.133L165.999 57.7997L179.999 58.0664C195.199 58.333 195.865 58.1997 209.999 49.2664C214.799 46.333 219.999 44.5997 228.532 43.133C237.732 41.533 241.599 40.1997 245.065 37.3997C250.799 32.733 255.999 23.133 255.999 17.2664C255.999 11.533 249.332 4.59969 241.999 2.46635C235.865 0.733021 218.265 -0.466979 213.332 0.466354ZM237.332 3.79969C247.599 5.93302 255.999 14.4664 253.865 20.333C253.199 21.7997 252.399 21.2664 250.132 18.0664C245.199 10.5997 239.599 8.33302 226.665 8.33302C209.999 8.46635 198.265 13.2664 192.932 22.1997C190.265 26.8664 185.999 28.5997 183.332 26.333C180.932 24.333 180.799 22.333 183.065 22.333C183.999 22.333 188.132 18.8664 192.399 14.4664C198.265 8.46635 201.599 6.19969 207.065 4.59969C215.332 2.19969 227.999 1.79969 237.332 3.79969ZM168.132 27.2664C166.665 29.3997 163.332 34.5997 160.799 38.9997C158.132 43.3997 155.999 46.4664 155.999 45.933C155.999 43.3997 168.532 23.6664 170.132 23.6664C170.399 23.6664 169.599 25.2664 168.132 27.2664Z" fill="#28682E"></path><path d="M78.0003 3.93343C72.0003 6.06677 65.3336 12.8668 61.8669 20.7334C54.6669 36.6001 59.8669 44.4668 80.5336 48.8668C84.9336 49.8001 94.2669 53.0001 101.334 55.8001C108.534 58.6001 115.734 61.0001 117.467 60.8668C119.2 60.8668 117.6 59.9334 113.734 59.0001C109.867 57.9334 103.6 55.5334 99.8669 53.6668C96.2669 51.8001 88.267 49.0001 82.267 47.5334C65.3336 43.2668 61.3336 40.3334 61.3336 32.0668C61.3336 28.4668 61.3336 28.4668 63.3336 31.2668C65.0669 33.8001 75.067 38.2001 88.1336 42.2001C90.8003 43.0001 94.5336 45.5334 96.6669 47.6668C101.067 52.3334 105.467 53.8001 117.6 54.8668C122.534 55.4001 127.734 56.0668 128.934 56.4668C130.934 57.1334 130.934 57.0001 129.334 55.9334C128.267 55.2668 124 54.2001 120 53.8001C104 51.8001 102.934 51.5334 97.3336 46.3334C93.4669 42.7334 88.9336 40.3334 82.8003 38.4668C65.4669 33.2668 59.4669 25.8001 67.7336 19.8001C74.0003 15.4001 84.0003 13.8001 94.4003 15.6668C111.734 18.6001 123.6 26.6001 133.467 41.8001C136.534 46.4668 139.2 50.3334 139.6 50.3334C139.867 50.3334 138.267 46.7334 136 42.3334C130.8 32.0668 121.867 23.4001 110.934 18.0668C103.734 14.4668 100.4 13.6668 90.5336 13.2668C82.267 12.8668 77.0669 13.2668 72.8003 14.7334C69.4669 15.9334 66.6669 16.3334 66.6669 15.6668C66.6669 13.2668 76.267 6.46677 80.9336 5.53343C93.067 3.26677 113.6 10.3334 125.734 21.0001C131.334 25.9334 140.934 39.4001 143.067 45.5334C143.6 46.8668 144.4 47.8001 144.8 47.4001C146.4 45.6668 137.467 30.4668 130.4 22.8668C116.4 7.93343 91.867 -0.866568 78.0003 3.93343Z" fill="#28682E"></path><path d="M142.266 51.3997C140.933 52.733 139.999 55.533 139.999 57.3997C139.999 60.9997 139.866 60.9997 130.799 60.9997C125.599 60.9997 121.066 61.533 120.666 62.333C120.266 62.9997 117.866 63.6664 115.466 63.6664C108.799 63.6664 86.6661 69.6664 79.0661 73.3997C71.7327 77.133 64.1327 84.8664 60.1327 92.733C58.6661 95.6664 55.3327 105.133 52.6661 113.8C46.1327 135.533 43.0661 142.866 38.9327 146.466C36.9327 148.2 35.7327 149.133 36.2661 148.466C37.8661 146.6 34.7994 142.333 31.9994 142.333C30.5327 142.333 28.2661 143.533 26.9327 145C24.6661 147.4 23.8661 147.533 20.9327 146.2C16.1327 144.066 8.79939 146.066 8.26605 149.8C7.86605 152.866 13.8661 159 18.6661 160.2L21.9994 161.133L18.6661 159.133C16.6661 157.933 16.1327 157.133 17.3327 157.133C19.9994 157.133 24.6661 160.733 23.4661 161.933C22.9327 162.466 20.1327 162.733 17.1994 162.466C11.0661 162.066 7.99939 164.066 7.99939 168.2C7.99939 171.8 5.59939 174.333 2.13272 174.333C-0.400614 174.333 -0.400614 174.466 1.59939 176.466C4.26605 179.266 8.66605 177.133 9.86605 172.466C10.6661 169.266 15.8661 166.066 22.9327 164.333L26.6661 163.4L24.6661 168.2C22.3994 173.4 21.9994 178.333 23.8661 176.2C24.5327 175.533 25.7327 172.733 26.6661 169.933L28.2661 165L32.2661 167.8C34.5327 169.4 37.1994 172.6 38.2661 174.866C39.3327 177.133 39.8661 177.8 39.5994 176.2C39.0661 173.533 39.4661 173.4 44.7994 174.066C52.5327 174.866 52.3994 172.466 44.6661 170.333C39.1994 168.866 35.9994 165.933 35.9994 162.733C35.9994 162.066 38.1327 160.466 40.6661 159.133C47.1994 155.533 46.5327 153.666 39.8661 157C36.9327 158.6 33.7327 159.533 32.9327 159.266C31.9994 159 30.2661 159.533 29.0661 160.733C27.5994 161.933 26.6661 162.2 26.6661 161.266C26.6661 160.333 29.5994 158.2 33.0661 156.466C36.5327 154.733 46.2661 149.266 54.6661 144.333L69.9994 135.266L90.9327 132.866C125.599 129 163.333 127.266 197.866 128.066L229.599 128.866L243.199 136.6C250.533 140.866 258.666 146.066 261.066 148.2L265.466 152.066L262.666 154.6C261.199 155.933 259.066 159.266 257.999 161.8C256.666 165 254.533 167 251.199 168.466C245.599 170.866 246.533 173.133 253.333 173.4C258.666 173.666 262.533 169.266 262.933 162.066C263.199 159.4 263.599 157.533 263.866 157.8C264.133 158.066 265.199 157.666 266.266 156.866C268.533 154.866 268.533 156.333 265.999 164.466C263.599 172.2 263.466 174.066 265.466 172.066C266.133 171.4 267.866 167.133 269.199 162.866C272.266 152.333 275.466 152.066 279.466 162.066C283.066 171.266 284.533 172.466 281.999 164.333C280.933 160.733 280.399 157.533 280.666 157.266C280.933 157 283.066 158.866 285.333 161.533C290.266 167.133 296.399 167.933 301.466 163.666L304.666 161.133L298.666 161C293.866 161 291.999 160.2 288.399 156.733L283.999 152.466L287.999 150.866C293.999 148.333 297.066 138.2 292.533 136.466C290.266 135.533 280.399 140.6 277.466 144.2C275.999 145.933 275.333 145.666 272.133 141.933C270.133 139.533 267.733 136.466 266.799 135C265.333 132.466 265.199 132.466 265.999 135.266C266.666 137.8 266.266 138.333 263.733 138.333C261.999 138.333 259.866 139 259.066 139.8C257.866 141 255.733 140.066 250.799 136.333C247.066 133.666 243.999 131.266 243.999 131C243.999 130.733 246.533 130.866 249.733 131.133C253.866 131.4 253.333 131.133 247.066 129.8C240.133 128.333 236.533 126.333 223.733 116.866C202.799 101.4 188.666 90.0664 189.066 89.2664C189.866 87.533 228.933 90.0664 237.999 92.4664C240.399 92.9997 240.399 92.9997 238.399 91.6664C235.733 90.0664 221.999 88.1997 198.666 86.333C183.333 85.133 183.466 85.133 205.333 85.6664C222.799 86.0664 228.799 86.5997 234.666 88.733C238.666 90.0664 241.999 91.7997 241.999 92.4664C242.133 93.133 244.266 95.933 246.799 98.5997C250.666 102.866 251.466 103.133 251.466 100.866C251.466 96.733 242.399 89.3997 234.399 86.9997C227.866 84.9997 201.999 82.4664 185.866 82.333C179.466 82.333 178.533 81.7997 168.799 73.533C163.066 68.733 158.133 64.9997 157.866 65.3997C157.466 65.6664 161.333 69.6664 166.266 74.1997C171.199 78.5997 174.666 82.333 173.999 82.333C173.333 82.333 168.666 78.333 163.733 73.3997C158.666 68.4664 154.666 64.9997 154.666 65.7997C154.666 66.4664 157.999 70.333 161.999 74.333L169.466 81.6664L164.399 82.5997C161.599 83.133 154.666 83.533 149.066 83.533L138.799 83.6664L143.999 76.0664C149.199 68.733 150.666 65.3997 147.999 66.9997C147.333 67.3997 146.666 66.9997 146.666 66.0664C146.666 65.133 142.266 68.9997 137.066 74.5997L127.333 84.733L112.533 85.533C81.5994 87.2664 65.9994 95.133 57.1994 113.666C52.2661 123.933 52.2661 121.933 57.3327 106.866C65.9994 81.133 76.3994 73.2664 109.733 66.733C127.066 63.3997 203.866 63.3997 217.733 66.733C229.599 69.6664 235.733 72.9997 241.733 79.533C247.066 85.3997 253.866 97.7997 252.666 99.533C252.399 100.2 252.933 103 254.133 105.8C255.333 108.6 255.999 112.466 255.733 114.6C255.333 117.4 255.466 117.933 256.799 116.866C257.999 115.933 258.799 116.733 259.999 120.333C260.933 123 261.866 125 262.133 124.733C263.333 123.533 251.466 90.4664 247.733 84.733C236.933 67.6664 224.666 63.533 179.466 61.533C158.799 60.733 157.333 60.4664 157.999 58.1997C159.199 54.5997 153.066 48.9997 148.266 48.9997C146.133 48.9997 143.466 50.0664 142.266 51.3997ZM149.466 54.1997C151.066 55.6664 151.866 57.3997 151.333 58.1997C149.999 60.4664 147.999 59.933 147.999 57.2664C147.999 55.533 147.733 55.3997 146.799 56.733C145.866 58.1997 145.466 58.0664 144.799 56.333C143.999 54.1997 144.799 51.6664 146.133 51.6664C146.533 51.6664 147.999 52.8664 149.466 54.1997ZM144.666 59.6664C145.066 60.333 144.799 60.9997 144.133 60.9997C143.333 60.9997 142.666 60.333 142.666 59.6664C142.666 58.8664 142.933 58.333 143.199 58.333C143.599 58.333 144.266 58.8664 144.666 59.6664ZM155.999 59.6664C155.999 60.333 155.466 60.9997 154.666 60.9997C153.999 60.9997 153.333 60.333 153.333 59.6664C153.333 58.8664 153.999 58.333 154.666 58.333C155.466 58.333 155.999 58.8664 155.999 59.6664ZM141.333 76.333C138.266 80.333 134.933 83.6664 133.866 83.6664C132.799 83.6664 133.466 82.1997 135.599 79.933C137.466 77.933 140.533 74.333 142.399 71.933C144.133 69.533 145.999 67.933 146.399 68.1997C146.799 68.5997 144.533 72.1997 141.333 76.333ZM167.066 85.933C163.199 86.1997 156.666 86.1997 152.399 85.933C148.133 85.6664 151.333 85.533 159.333 85.533C167.466 85.533 170.933 85.6664 167.066 85.933ZM123.333 87.3997C122.533 88.0664 114.799 89.2664 105.866 90.0664C87.4661 91.7997 80.1327 94.1997 70.2661 101.4L63.3327 106.466L68.3994 101.8C79.0661 92.1997 87.9994 89.6664 122.666 86.4664C123.733 86.4664 123.999 86.733 123.333 87.3997ZM131.599 87.133C131.199 87.533 129.999 87.6664 129.066 87.2664C127.999 86.8664 128.399 86.4664 129.866 86.4664C131.333 86.333 132.133 86.733 131.599 87.133ZM141.733 87.2664C140.799 87.533 138.933 87.533 137.733 87.2664C136.399 86.8664 137.199 86.5997 139.333 86.5997C141.599 86.5997 142.533 86.8664 141.733 87.2664ZM203.333 104.333C212.933 111.8 223.866 119.8 227.866 122.333C231.866 124.866 234.399 127.133 233.599 127.4C230.933 128.2 181.333 91.533 181.333 88.733C181.333 87.2664 181.333 87.2664 203.333 104.333ZM185.733 96.1997C192.933 102.333 216.133 119.933 223.466 124.6C225.466 125.8 219.066 125.933 194.666 125.4C162.266 124.733 128.266 126.6 93.4661 131.133C84.5327 132.2 76.6661 133 75.9994 132.733C75.3327 132.466 78.7994 129.933 83.7327 127.133C95.8661 119.933 117.733 104.066 126.666 95.7997L133.999 89.133L155.733 88.9997H177.599L185.733 96.1997ZM118.533 92.4664C114.799 96.9997 82.2661 119.533 62.1327 131.666L56.9327 134.866L57.7327 128.6C59.7327 114.466 71.0661 100.6 84.3994 96.1997C88.2661 94.8664 97.3327 93.133 104.666 92.1997C111.999 91.3997 118.533 90.5997 119.199 90.4664C119.866 90.4664 119.466 91.2664 118.533 92.4664ZM120.666 97.933C112.399 105.533 86.9327 122.866 59.7327 139.4C51.1994 144.6 42.6661 149.8 40.5327 151.133C36.9327 153.533 36.9327 153.533 38.5327 150.6C39.3327 149 41.3327 147 42.7994 146.2C44.2661 145.4 45.1994 144.466 44.7994 144.066C44.3994 143.666 45.0661 141.533 46.2661 139.266C47.3327 137 49.4661 132.066 50.7994 128.466C52.2661 124.733 53.1994 123.266 52.9327 125.266C52.6661 127.266 52.9327 128.6 53.4661 128.2C54.1327 127.8 54.6661 126.466 54.6661 125.266C54.6661 122.333 60.6661 109.666 62.3994 108.466C63.1994 107.933 62.2661 110.333 60.3994 113.8C57.8661 118.2 56.9327 122.066 56.7994 127.4C56.6661 134.733 56.5327 135.133 50.9327 138.866C47.8661 141 45.4661 142.866 45.7327 143.266C47.3327 144.733 108.933 104.466 119.333 95.133C128.133 87.3997 129.333 89.7997 120.666 97.933ZM248.133 96.5997L251.333 100.333L247.333 96.9997C245.199 95.133 243.066 93.533 242.799 93.2664C242.533 93.133 242.799 92.9997 243.599 92.9997C244.266 92.9997 246.266 94.5997 248.133 96.5997ZM244.399 133.666C249.999 137.533 251.199 139.8 245.733 136.333C238.399 131.533 236.799 130.333 237.999 130.333C238.799 130.333 241.599 131.8 244.399 133.666ZM255.999 141.8C255.999 142.066 254.799 141.8 253.333 141C251.866 140.2 250.666 139.266 250.666 138.866C250.666 138.6 251.866 138.866 253.333 139.666C254.799 140.466 255.999 141.4 255.999 141.8ZM291.999 139.666C291.999 140.333 291.466 141 290.666 141C289.999 141 289.333 140.333 289.333 139.666C289.333 138.866 289.999 138.333 290.666 138.333C291.466 138.333 291.999 138.866 291.999 139.666ZM269.333 143C270.399 144.2 270.533 145 269.599 145C268.799 145 267.733 144.333 267.199 143.533C266.799 142.733 265.199 142.333 263.866 142.733C262.399 143.133 261.333 142.866 261.333 142.2C261.333 140.2 267.599 140.866 269.333 143ZM290.666 143.4C290.666 145.8 285.466 149.133 280.666 149.933C276.799 150.6 275.866 150.333 276.666 149.133C279.199 145 290.666 140.333 290.666 143.4ZM34.6661 146.866C34.6661 148.066 33.3327 148.6 31.3327 148.466C27.9994 148.333 27.1994 147.533 28.9327 145.933C30.5327 144.333 34.6661 145 34.6661 146.866ZM22.1327 149.533C23.4661 150.6 24.3994 151.8 23.9994 152.066C23.5994 152.466 21.8661 151.666 20.1327 150.2C16.5327 147.266 18.1327 146.733 22.1327 149.533ZM19.9994 153.666C23.5994 157.4 23.3327 157.533 17.4661 155.533C15.1994 154.733 13.3327 153.266 13.3327 152.2C13.3327 149.266 16.5327 149.933 19.9994 153.666ZM31.9994 151.266C31.9994 151.933 31.0661 153.533 29.9994 154.866C27.9994 157.533 27.9994 157.533 27.9994 154.866C27.9994 153.266 28.3994 151.666 28.9327 151.266C30.1327 150.066 31.9994 150.066 31.9994 151.266ZM269.999 151.666C270.399 152.466 269.866 152.6 268.799 152.2C266.399 151.266 265.999 150.333 267.866 150.333C268.666 150.333 269.599 150.866 269.999 151.666ZM285.466 157.666C287.999 160.2 290.666 162.333 291.599 162.333C292.399 162.333 293.599 162.866 293.999 163.666C295.733 166.6 291.733 164.733 287.066 160.6C284.266 158.066 280.799 155.4 279.333 154.6C277.199 153.4 277.066 153.133 278.933 153C280.133 153 283.066 155.133 285.466 157.666ZM33.3327 163.666C34.6661 166.2 34.6661 166.333 32.1327 164.733C30.6661 163.933 29.8661 162.6 30.1327 162.066C31.1994 160.466 31.7327 160.733 33.3327 163.666ZM259.733 167.266C258.799 169.4 256.666 171.133 255.066 171.4C252.266 171.8 252.399 171.4 256.399 167.4C258.666 165 260.933 163.133 261.066 163.266C261.333 163.4 260.799 165.133 259.733 167.266ZM13.8661 165.533C12.5327 166.6 11.0661 167.133 10.6661 166.866C9.99939 166.066 13.4661 163.666 15.1994 163.666C15.9994 163.666 15.3327 164.466 13.8661 165.533Z" fill="#28682E"></path><path d="M252.133 106.334C252.133 107.4 252.666 109.534 253.333 111C253.999 112.734 254.533 112.867 254.533 111.667C254.533 110.6 253.999 108.467 253.333 107C252.666 105.267 252.133 105.134 252.133 106.334Z" fill="#28682E"></path><path d="M256.134 123.133C256.134 124.6 256.534 125 256.934 123.933C257.334 123 257.2 121.8 256.8 121.4C256.4 120.867 256 121.667 256.134 123.133Z" fill="#28682E"></path><path d="M262.666 127C262.666 127.666 263.333 129.266 263.999 130.333C264.666 131.4 265.333 131.666 265.333 131C265.333 130.2 264.666 128.733 263.999 127.666C263.333 126.6 262.666 126.2 262.666 127Z" fill="#28682E"></path><path d="M128.133 153.267C127.467 155 126.533 157.4 126.133 158.6C125.733 159.934 124.667 161 123.867 161C122.4 161 122.667 158.867 124.667 153.934C126.533 149.534 121.333 151.534 119.333 155.934C117.867 159.134 117.467 159.667 117.333 157.667C117.2 155.267 116.933 155.4 114.533 158.6C111.6 162.6 108.267 163.4 105.6 160.734C104.4 159.534 104 159.534 104 160.734C104 163 110.533 165.4 112.533 163.934C113.333 163.267 115.6 162.334 117.6 162.067C121.6 161.267 123.867 164.467 121.2 166.867C120 167.934 119.867 167.667 120.533 165.667C121.333 163.534 121.2 163.267 119.867 164.6C118.533 165.934 118.533 166.734 119.6 167.8C121.333 169.534 124 168.334 124 165.667C124 162.734 127.6 162.334 130.133 165.134C131.333 166.467 133.333 167.667 134.533 167.667C135.867 167.667 135.467 167 133.333 165.934C129.6 164.067 129.067 160.467 131.733 156.067C133.6 153.134 132.933 150.334 130.533 150.334C129.867 150.334 128.8 151.667 128.133 153.267Z" fill="#28682E"></path><path d="M186 153C186.4 153.666 187.6 154.333 188.666 154.333C189.733 154.333 190.933 153.666 191.333 153C191.866 152.2 190.666 151.666 188.666 151.666C186.666 151.666 185.466 152.2 186 153Z" fill="#28682E"></path><path d="M158.133 154.2C157.733 154.733 155.866 155 153.999 154.6C150.933 154.067 150.666 154.333 150.666 159.533C150.666 162.467 151.333 165 151.999 165C152.799 165 153.333 163.533 153.333 161.8C153.333 159.933 153.999 158.067 154.666 157.667C155.466 157.267 155.999 157.533 155.999 158.2C155.999 159 156.666 159.667 157.333 159.667C158.133 159.667 158.533 159 158.399 158.067C158.133 157.267 159.066 156.2 160.399 155.933C161.866 155.667 162.666 156.333 162.799 157.933C162.799 159.4 163.199 159.667 163.599 158.6C164.799 155.533 159.866 151.4 158.133 154.2Z" fill="#28682E"></path><path d="M205.333 155.267C205.333 158.6 202.799 161 199.466 161C197.199 161 197.066 160.733 198.666 159.667C201.866 157.667 199.066 156.6 194.799 158.333C192.533 159.267 189.466 159.533 187.733 158.867C183.066 157.4 175.999 157.267 175.999 158.6C175.999 160.2 170.266 159.4 169.066 157.8C168.266 156.6 162.799 161.8 162.666 163.667C162.666 164.6 167.999 164.333 170.666 163.267C175.999 161.133 185.999 159.933 187.599 161.267C188.533 162.067 190.666 162.333 192.266 161.933C193.999 161.4 196.133 161.667 197.199 162.2C198.133 162.867 200.666 162.867 202.799 162.333C205.466 161.533 206.933 161.8 208.133 163.133C209.999 165.4 214.133 165.533 215.466 163.533C215.999 162.6 215.599 162.2 214.533 162.6C211.466 163.8 207.999 161.133 207.999 157.667C207.999 155.933 207.466 154.067 206.666 153.667C205.999 153.267 205.333 153.933 205.333 155.267Z" fill="#28682E"></path><path d="M97.1987 156.2L100.399 157.933L96.932 160.333C92.932 162.866 92.2654 166.066 95.332 167.266C98.132 168.333 102.665 163.933 102.665 160.2C102.665 158.6 103.065 157 103.732 156.6C104.265 156.333 103.999 156.333 103.065 156.466C102.132 156.733 101.065 156.333 100.665 155.666C100.132 154.866 98.532 154.333 96.932 154.333C93.9987 154.466 93.9987 154.466 97.1987 156.2ZM99.9987 162.2C99.9987 163.8 97.332 165.533 96.3987 164.6C95.4654 163.666 97.1987 161 98.7987 161C99.4654 161 99.9987 161.533 99.9987 162.2Z" fill="#28682E"></path><path d="M262.933 177C258.8 183.533 262.267 194.6 269.733 198.6C273.2 200.333 280.4 200.333 284 198.333C286.533 197 286.667 197.4 286.667 214.333V231.667L276.4 231.933C270.667 232.2 261.6 232.2 256.267 231.933C248.933 231.667 246.667 231.933 247.467 233.133C248.133 234.333 253.6 234.467 267.6 233.933C278.133 233.533 287.067 233 287.333 232.733C287.6 232.467 288 223.933 288.133 213.667C288.4 201.133 289.067 194.067 290.267 192.333C293.2 187.933 292.4 181.8 288.4 178.2L284.8 175L287.733 178.867C291.467 183.667 291.467 187.667 287.867 192.2C283.867 197.267 282.667 196.467 285.6 190.467C288.533 184.467 287.467 180.733 282.267 178.333L279.333 176.867L282.4 179.133C284.133 180.467 285.333 182.733 285.333 184.867C285.333 189 281.067 195.933 277.733 197.133C274.133 198.467 268.667 195 266.667 190.333C264.4 184.867 266.533 180.2 272.4 177.667L276.667 175.8L273.067 175.667C270.933 175.667 268.133 176.867 266.667 178.333L263.867 181.133L264.8 177.667C265.733 173.667 265.2 173.4 262.933 177Z" fill="#28682E"></path><path d="M113.333 181.267C113.466 183.667 114.266 189.667 115.199 194.6L116.933 203.667H81.5994C48.5328 203.667 46.3994 203.533 47.3328 201.267C49.3328 196.733 49.5994 190.333 47.8661 186.467C46.9328 184.333 45.5994 182.867 45.0661 183.133C44.5328 183.533 42.5328 182.867 40.7994 181.667C38.9328 180.467 36.3994 179.667 35.0661 180.067C33.0661 180.6 33.0661 180.733 35.4661 180.867C39.4661 181.133 43.0661 185.667 43.0661 190.6C43.0661 198.733 32.5328 203.8 25.5994 198.867C21.9994 196.467 21.4661 187.667 24.6661 185C25.8661 184.067 26.3994 183 25.9994 182.6C24.1328 180.733 19.9994 187.133 19.9994 191.8C19.9994 203.933 37.5994 208.067 43.3328 197.133C44.3994 194.867 45.3328 191.933 45.3328 190.333C45.3328 188.733 45.9994 187.933 46.6661 188.333C50.6661 190.867 46.1328 202.467 39.9994 205.667C28.5328 211.533 15.5994 202.333 17.8661 189.8C18.3994 187.267 19.5994 184.6 20.6661 183.667C21.7328 182.733 22.6661 181.4 22.6661 180.6C22.6661 177.933 17.4661 184.067 15.9994 188.467C11.5994 201.667 26.6661 214.2 39.4661 208.2C44.2661 205.933 51.0661 205.8 139.999 205.533C192.399 205.4 240.399 204.733 246.666 204.067C254.666 203.267 243.199 203 208.666 203.133C165.066 203.4 161.466 203.267 177.733 202.067L195.999 200.733V190.067C195.999 183.4 195.466 179.8 194.666 180.333C193.866 180.867 193.599 184.733 194.133 190.2L195.066 199.267L174.666 200.067C163.466 200.6 146.266 201 136.399 201H118.666V191.267V181.667L127.599 182.2C141.733 182.867 192.799 180.6 183.999 179.533C177.066 178.867 177.333 178.733 187.599 178.6L198.533 178.333L199.066 189.933L199.466 201.667V189.667L199.333 177.667L156.399 177.267L113.333 177V181.267ZM120.399 179.267C119.466 179.533 117.866 179.533 117.066 179.267C116.133 178.867 116.799 178.6 118.666 178.6C120.533 178.6 121.199 178.867 120.399 179.267Z" fill="#28682E"></path><path d="M265.065 201.934C265.865 202.2 267.465 202.2 268.399 201.934C269.199 201.534 268.532 201.267 266.665 201.267C264.799 201.267 264.132 201.534 265.065 201.934Z" fill="#28682E"></path><path d="M22.2663 211.267C21.733 211.667 21.333 216.867 21.333 222.6C21.333 231.4 20.933 233.267 19.0663 234.067C15.0663 235.533 27.0663 236.733 47.4663 236.867L66.2663 237L67.0663 243.933C67.9997 251.8 70.3997 255 74.3997 253.8C78.533 252.467 80.3997 244.867 79.733 232.067C79.1997 223.267 78.6663 220.467 76.533 218.6C75.1997 217.4 74.7997 217.267 75.733 218.2C77.733 220.6 77.9997 243.133 75.9997 248.2C74.6663 251.933 71.333 252.867 70.2663 249.8C69.8663 248.733 69.4663 242.067 69.4663 234.867C69.4663 227.8 69.1997 221.667 68.7997 221.4C68.533 221 67.8663 223.933 67.333 227.933L66.3997 235L46.2663 234.6C35.0663 234.333 25.333 233.933 24.3997 233.667C23.1997 233.267 23.0663 230.067 23.5997 221.667C24.3997 210.733 24.133 209.267 22.2663 211.267Z" fill="#28682E"></path><path d="M233.6 218.6C232.534 219.667 232.134 223.933 232.267 230.2L232.534 240.333L233.2 230.467C234.534 212.867 240 217.933 240 236.867C240 244.6 239.467 247.8 238 249C236.267 250.467 235.6 250.333 234 248.2C232.134 245.8 232 245.8 233.067 248.867C234.667 253.4 236.667 253.667 240 250.333C242.667 247.667 242.934 246.333 242.4 234.333C241.867 221.533 240.4 217 236.8 217C235.867 217 234.534 217.667 233.6 218.6Z" fill="#28682E"></path><path d="M289.333 229.8C289.333 230.6 290 231.8 290.8 232.6C291.6 233.4 292.266 237 292.266 240.6C292 250.467 291.2 250.734 264.666 249.934C240 249.267 243.866 250.734 270.666 252.334C286.533 253.134 287.6 253.134 291.066 250.334C294.133 247.8 294.666 246.467 294.666 240.467C294.666 235.134 294 232.867 292 231C290.533 229.667 289.333 229.134 289.333 229.8Z" fill="#28682E"></path><path d="M85.3333 234.333C83.4666 234.866 113.2 235.4 151.333 235.266C192.267 235.266 214.4 234.866 205.333 234.333C184 233 89.3333 233 85.3333 234.333Z" fill="#28682E"></path><path d="M12.133 243.933C11.9996 255.8 15.0663 257.533 33.9996 256.866C40.2663 256.6 45.333 256.866 45.333 257.533C45.333 258.066 48.133 258.2 51.733 257.533C55.1996 257 60.6663 256.2 63.9996 255.666C67.5996 255.133 59.333 254.6 43.9996 254.466C25.5996 254.333 17.333 253.8 16.2663 252.733C15.333 251.8 14.6663 249 14.533 246.333C14.533 243.8 13.9996 240.466 13.333 239C12.533 237.133 12.133 238.466 12.133 243.933Z" fill="#28682E"></path><path d="M264 243.667C264 244.333 264.667 245 265.333 245C266.133 245 266.667 244.333 266.667 243.667C266.667 242.867 266.133 242.333 265.333 242.333C264.667 242.333 264 242.867 264 243.667Z" fill="#28682E"></path><path d="M126.8 245.667C127.467 249 132 250.067 132 246.867C132 245.533 131.6 245 131.067 245.4C130.667 245.933 129.333 245.533 128.267 244.733C126.667 243.4 126.4 243.533 126.8 245.667Z" fill="#28682E"></path><path d="M177.999 244.867C177.066 245.8 178.799 247.667 180.666 247.667C181.599 247.667 182.666 246.867 183.066 245.934C183.599 244.334 179.332 243.4 177.999 244.867Z" fill="#28682E"></path><path d="M40 247C40 248.067 40.9333 249 42.1333 249C44 249 44 248.6 42.6667 247C41.7333 245.933 40.8 245 40.5333 245C40.2667 245 40 245.933 40 247Z" fill="#28682E"></path><path d="M85.9991 254.334C100.666 257 155.199 258.334 191.999 257C211.999 256.334 228.532 255.534 228.799 255.4C228.932 255.134 206.799 255 179.599 255C152.266 255 118.666 254.6 104.666 254.067C88.3991 253.534 81.7324 253.667 85.9991 254.334Z" fill="#28682E"></path><path d="M246.666 265.267V278.2L251.066 281.533C258.399 287.133 267.599 285.667 271.333 278.333C274.266 272.733 276.266 259.933 274.666 257.133C273.599 255.267 273.466 255.267 273.333 257.4C273.333 259.267 272.799 259.533 270.666 258.333C268.399 257.133 267.866 257.533 266.799 261.267C265.866 264.6 265.599 265 265.466 262.6C265.333 261 264.799 259.667 263.999 259.667C260.933 259.667 263.066 257.267 267.066 256.2C270.799 255.267 270.399 255 262.933 254.6C257.599 254.333 253.733 254.867 252.533 255.8C250.933 257.133 250.133 256.867 248.666 254.867C246.933 252.6 246.799 253.667 246.666 265.267ZM259.999 261.267C259.999 264.6 259.599 265.133 258.666 263.667C256.933 261 256.933 257 258.666 257C259.466 257 259.999 259 259.999 261.267ZM255.599 270.6C255.333 272.333 255.066 271 255.066 267.667C255.066 264.333 255.333 263 255.599 264.6C255.866 266.333 255.866 269 255.599 270.6ZM250.666 273.667C250.666 274.733 251.999 276.733 253.599 278.333C255.199 279.8 255.866 281 255.066 281C253.466 281 247.999 274.733 247.999 272.867C247.999 272.2 248.666 271.667 249.333 271.667C250.133 271.667 250.666 272.6 250.666 273.667ZM259.333 273C259.733 273.667 259.466 274.333 258.799 274.333C257.999 274.333 257.333 273.667 257.333 273C257.333 272.2 257.599 271.667 257.866 271.667C258.266 271.667 258.933 272.2 259.333 273ZM265.333 274.333C265.333 275 264.799 275.667 263.999 275.667C263.333 275.667 262.666 275 262.666 274.333C262.666 273.533 263.333 273 263.999 273C264.799 273 265.333 273.533 265.333 274.333ZM270.399 277C269.466 278.467 267.866 279.933 266.666 280.333C265.599 280.867 266.133 279.667 267.866 277.8C271.733 273.667 272.666 273.4 270.399 277ZM265.066 277.667C265.199 277.8 263.999 279 262.399 280.467C260.799 281.8 259.999 282.2 260.533 281.267C261.066 280.333 260.799 279.667 259.599 279.667C258.533 279.667 256.933 278.733 255.999 277.667C254.666 276.067 255.199 275.933 259.599 276.6C262.399 277 264.799 277.533 265.066 277.667Z" fill="#28682E"></path><path d="M39.1985 263.933C39.8651 281 39.8651 281.133 43.8651 285.133C47.1985 288.333 48.9318 289 54.2651 289C58.1318 289 61.9985 288.067 63.8651 286.867C69.8651 282.6 72.6651 269.533 69.0651 261.667C67.5985 258.333 65.3318 257.133 65.3318 259.667C65.3318 260.333 64.3985 260.6 63.0651 260.067C61.1985 259.267 61.0651 260.067 61.7318 266.2C62.3985 271.4 62.1318 273 60.9318 272.6C59.9985 272.333 59.0651 270.067 58.6651 267.667C58.1318 264.067 57.7318 263.533 56.5318 265.133C55.5985 266.2 54.6651 268.2 54.2651 269.667C53.8651 271.533 53.5985 271.267 53.4651 268.333C53.3318 262.867 50.9318 265.667 50.2651 272.333C49.9985 275.933 49.7318 274.6 49.5985 268.6C49.4651 263.4 48.7985 259.8 48.1318 260.333C47.4651 260.733 46.5318 260.467 45.9985 259.667C45.5985 259 44.5318 258.333 43.7318 258.333C42.7985 258.333 42.5318 261.667 43.0651 268.467C43.5985 276.467 44.3985 279.267 46.7985 281.8C50.2651 285.533 55.5985 285.933 61.3318 283C66.7985 280.2 66.3985 279.4 60.6651 281.8C58.1318 282.733 55.4651 283.667 54.6651 283.667C52.2651 283.667 53.1985 281.267 55.9985 280.6C57.5985 280.2 58.6651 278.733 58.6651 277.133C58.6651 274.067 61.1985 273.4 63.7318 275.933C64.9318 277.133 65.3318 276.867 65.4651 274.2C65.5985 271 65.5985 271 66.9318 274.733C69.8651 283 58.6651 289.933 49.0651 285.933C43.3318 283.533 41.3318 278.333 41.3318 265.933C41.3318 261.8 40.7985 258.333 40.1318 258.333C39.5985 258.333 39.0651 260.867 39.1985 263.933ZM47.9985 276.333C47.9985 277.4 47.7318 278.333 47.4651 278.333C47.1985 278.333 46.6651 277.4 46.1318 276.333C45.7318 275.267 45.9985 274.333 46.6651 274.333C47.4651 274.333 47.9985 275.267 47.9985 276.333ZM56.9318 277.267C56.5318 278.333 56.1318 277.933 56.1318 276.467C55.9985 275 56.3985 274.2 56.7985 274.733C57.1985 275.133 57.3318 276.333 56.9318 277.267ZM51.3318 281C51.7318 281.667 51.4651 282.333 50.7985 282.333C49.9985 282.333 49.3318 281.667 49.3318 281C49.3318 280.2 49.5985 279.667 49.8651 279.667C50.2651 279.667 50.9318 280.2 51.3318 281Z" fill="#28682E"></path></svg> 