<?xml version="1.0" encoding="UTF-8"?> <svg xmlns="http://www.w3.org/2000/svg" width="365" height="105" viewBox="0 0 365 105" fill="none"><path d="M9.80924 56.226C12.3544 56.226 14.8487 56.5314 17.292 57.1422C19.7354 57.7022 22.2042 58.2875 24.6984 58.8984C27.4981 57.6767 29.9414 56.0987 32.0285 54.1644C34.1664 52.2301 36.1516 50.0158 37.9841 47.5215C39.8675 44.9764 41.7255 42.2022 43.558 39.1989C45.3905 36.1956 47.4267 33.065 49.6664 29.8072C46.714 28.7892 44.347 27.2366 42.5654 25.1496C40.7838 23.0117 39.893 20.2629 39.893 16.9033C39.893 14.5108 40.5038 12.1948 41.7255 9.95502C42.9981 7.66438 44.8306 5.70461 47.223 4.07571C43.7616 3.21036 40.5038 2.77768 37.4496 2.77768C33.1229 2.77768 28.9234 3.51577 24.8511 4.99197C20.7789 6.46816 17.1647 8.47883 14.0088 11.024C10.9037 13.5182 8.40941 16.4197 6.52599 19.7284C4.64258 23.0371 3.70087 26.524 3.70087 30.189C3.70087 32.0215 4.03174 33.7013 4.69348 35.2284C5.40612 36.7046 6.34783 37.9772 7.5186 39.0462C8.74028 40.1151 10.1656 40.955 11.7945 41.5659C13.4234 42.1258 15.1795 42.4058 17.0629 42.4058C19.3536 42.4058 21.6697 42.024 24.0112 41.2604C26.3528 40.4969 28.4652 39.4534 30.3487 38.1299C32.283 36.7555 33.8355 35.1521 35.0063 33.3196C36.228 31.487 36.8388 29.5273 36.8388 27.4402C36.8388 25.3023 36.0753 23.5971 34.5482 22.3245C33.0211 21.001 30.8322 20.3393 27.9817 20.3393C27.1163 20.3393 26.1491 20.492 25.0802 20.7974C24.0621 21.1028 23.0186 21.5864 21.9496 22.2481C20.9316 22.859 19.9899 23.648 19.1245 24.6151C18.3101 25.5823 17.6738 26.7276 17.2156 28.0511L16.4521 27.9747C16.8593 26.6512 17.4702 25.4805 18.2846 24.4624C19.15 23.4444 20.1171 22.579 21.1861 21.8664C22.2551 21.1537 23.3749 20.6192 24.5457 20.2629C25.7674 19.8557 26.9636 19.6521 28.1344 19.6521C29.4069 19.6521 30.6286 19.8048 31.7994 20.1102C32.9702 20.4156 33.9882 20.8992 34.8536 21.5609C35.7189 22.1718 36.4061 22.9862 36.9152 24.0043C37.4242 24.9714 37.6787 26.1168 37.6787 27.4402C37.6787 29.68 37.0424 31.767 35.7698 33.7013C34.5482 35.5847 32.9447 37.2391 30.9595 38.6644C28.9743 40.0897 26.7345 41.2095 24.2403 42.024C21.7969 42.7875 19.3536 43.1693 16.9102 43.1693C14.416 43.1693 12.1508 42.8639 10.1147 42.2531C8.07854 41.5913 6.34783 40.6751 4.92254 39.5043C3.49726 38.3335 2.40284 36.9082 1.63929 35.2284C0.875745 33.4977 0.493971 31.5889 0.493971 29.5018C0.493971 25.4805 1.56294 21.79 3.70087 18.4304C5.8897 15.0199 8.74028 12.1184 12.2526 9.72596C15.7649 7.33351 19.7099 5.47555 24.0876 4.15206C28.5161 2.77768 32.9702 2.09049 37.4496 2.09049C39.2313 2.09049 41.0129 2.21774 42.7945 2.47226C44.5761 2.72677 46.3322 3.0831 48.0629 3.54122C49.6918 2.52316 51.4989 1.73417 53.4841 1.17423C55.4693 0.614296 57.6836 0.334328 60.127 0.334328C62.1631 0.334328 64.301 0.69065 66.5408 1.40329C68.7805 2.11594 70.6639 3.0831 72.191 4.30478L71.7329 4.83926C69.9513 3.46487 68.017 2.49771 65.9299 1.93778C63.8429 1.37785 61.934 1.09788 60.2033 1.09788C56.3347 1.09788 52.7969 2.03959 49.59 3.923C52.7969 4.94106 55.7493 6.3409 58.4472 8.12251C61.1451 9.85321 63.4611 11.9402 65.3955 14.3836C67.5334 13.2128 69.7477 12.2966 72.0383 11.6348C74.3799 10.9222 76.8487 10.5659 79.4447 10.5659C80.5137 10.5659 81.6081 10.6677 82.728 10.8713C83.8478 11.024 84.8659 11.3294 85.7822 11.7875C86.6984 12.2457 87.4365 12.8565 87.9965 13.62C88.6073 14.3327 88.9127 15.2235 88.9127 16.2925C88.9127 17.8196 88.4037 19.2957 87.3856 20.721C86.4185 22.0954 85.095 23.368 83.4152 24.5388C81.7354 25.7095 79.801 26.7531 77.6122 27.6693C75.4234 28.5856 73.1073 29.3491 70.6639 29.96C70.6639 34.1849 69.824 38.2063 68.1442 42.024C66.4644 45.8417 64.0974 49.1759 61.0432 52.0265C58.04 54.877 54.4004 57.1422 50.1245 58.822C45.8996 60.5018 41.2165 61.3417 36.0753 61.3417C34.3955 61.3417 32.7666 61.2145 31.1886 60.96C29.6106 60.7563 28.058 60.4764 26.5309 60.1201C24.4439 60.8327 22.1787 61.3672 19.7354 61.7235C17.3429 62.1307 14.6705 62.3343 11.7181 62.3343C10.4455 62.3343 9.19841 62.2834 7.97673 62.1816C6.80596 62.0798 5.73699 61.9017 4.76983 61.6471C3.85358 61.4435 3.09003 61.1381 2.47919 60.7309C1.91926 60.3237 1.63929 59.7892 1.63929 59.1274C1.63929 58.2621 2.37739 57.5749 3.85358 57.0659C5.38067 56.5059 7.36589 56.226 9.80924 56.226ZM51.4226 34.923C49.3864 38.079 47.4521 40.9805 45.6196 43.6274C43.838 46.2235 42.0055 48.565 40.1221 50.6521C38.2895 52.6882 36.3552 54.4698 34.3191 55.9969C32.3339 57.4731 30.1705 58.6948 27.829 59.6619C29.1524 59.9164 30.5014 60.1201 31.8757 60.2728C33.2501 60.4764 34.65 60.5782 36.0753 60.5782C41.3183 60.5782 46.0014 59.7383 50.1245 58.0585C54.2986 56.3787 57.8109 54.1389 60.6615 51.3393C63.5629 48.5396 65.7772 45.3327 67.3043 41.7186C68.8314 38.0535 69.595 34.2358 69.595 30.2654C66.1845 30.978 62.9012 31.3343 59.7452 31.3343C58.7272 31.3343 57.7345 31.3089 56.7674 31.258C55.8511 31.1562 54.9349 31.0544 54.0186 30.9526C53.5605 31.6143 53.1024 32.276 52.6442 32.9378C52.237 33.5995 51.8298 34.2613 51.4226 34.923ZM41.8782 16.5215C41.8782 19.5757 42.6163 22.1463 44.0925 24.2333C45.6196 26.3204 47.6812 27.8984 50.2772 28.9673C52.4152 25.9641 54.6549 23.2662 56.9964 20.8737C59.338 18.4813 61.8831 16.4706 64.6319 14.8417C62.6467 12.2457 60.2542 10.1077 57.4546 8.42793C54.6549 6.69722 51.728 5.37374 48.6738 4.45748C46.6886 5.78096 45.0597 7.46077 43.7871 9.49689C42.5145 11.533 41.8782 13.8746 41.8782 16.5215ZM80.361 11.5585C77.9685 11.5585 75.6524 12.042 73.4127 13.0092C71.2239 13.9255 69.0859 15.1726 66.9989 16.7506C68.1188 18.5322 68.9841 20.492 69.595 22.6299C70.2058 24.7169 70.5621 26.9567 70.6639 29.3491C72.9546 28.7892 75.118 28.0511 77.1541 27.1348C79.2411 26.2186 81.0482 25.2005 82.5753 24.0806C84.1533 22.9608 85.3749 21.7391 86.2403 20.4156C87.1565 19.0921 87.6147 17.7177 87.6147 16.2925C87.6147 15.4271 87.3856 14.7145 86.9275 14.1545C86.4694 13.5437 85.8585 13.0601 85.095 12.7038C84.3823 12.2966 83.5933 12.0166 82.728 11.8639C81.9135 11.6603 81.1245 11.5585 80.361 11.5585ZM66.2354 17.3614C64.0465 19.143 61.9595 21.1537 59.9743 23.3934C58.04 25.5823 56.2329 27.8475 54.5531 30.189C56.2838 30.4944 58.1163 30.6471 60.0506 30.6471C63.1557 30.6471 66.3372 30.2908 69.595 29.5782C69.4932 27.1857 69.1623 24.9969 68.6024 23.0117C68.0424 20.9755 67.2534 19.0921 66.2354 17.3614ZM10.9546 61.4181C15.7904 61.4181 19.9899 60.7563 23.5531 59.4329C21.3134 58.8729 19.0736 58.3639 16.8339 57.9058C14.5941 57.3967 12.2526 57.1422 9.80924 57.1422C9.1475 57.1422 8.43486 57.1931 7.67131 57.2949C6.95867 57.3458 6.29693 57.4476 5.68609 57.6003C5.07525 57.7531 4.56622 57.9567 4.159 58.2112C3.75177 58.4148 3.54816 58.6948 3.54816 59.0511C3.54816 59.5601 3.82813 59.9673 4.38806 60.2728C4.948 60.5782 5.63519 60.8072 6.44964 60.96C7.26409 61.1636 8.07854 61.2908 8.89299 61.3417C9.70744 61.3926 10.3946 61.4181 10.9546 61.4181ZM82.2424 45.2309C81.3261 45.2309 80.3081 45.6636 79.1882 46.5289C78.0683 47.3434 77.0248 48.3869 76.0577 49.6595C75.1414 50.8811 74.3524 52.2046 73.6907 53.6299C73.0289 55.0552 72.6981 56.3532 72.6981 57.524C72.6981 57.9821 72.8508 58.4148 73.1562 58.822C73.4616 59.2292 73.9961 59.4329 74.7596 59.4329C75.8795 59.4329 77.0248 58.9747 78.1956 58.0585C79.3664 57.0913 80.4099 55.9714 81.3261 54.6989C82.2933 53.3754 83.0569 52.0265 83.6168 50.6521C84.2276 49.2777 84.533 48.1324 84.533 47.2161C84.533 45.8926 83.7695 45.2309 82.2424 45.2309ZM82.6242 44.391C84.4058 44.391 85.6784 44.7728 86.4419 45.5363C87.2564 46.2999 87.6636 47.1652 87.6636 48.1324C87.6636 49.354 87.2564 50.6775 86.4419 52.1028C85.6275 53.4772 84.5585 54.7752 83.235 55.9969C81.9624 57.2186 80.4862 58.2366 78.8064 59.0511C77.1775 59.8146 75.5232 60.1964 73.8434 60.1964C72.1636 60.1964 70.9419 59.891 70.1784 59.2802C69.4657 58.6184 69.1094 57.7022 69.1094 56.5314C69.1094 55.3097 69.4657 53.9862 70.1784 52.5609C70.891 51.1357 71.8582 49.8122 73.0798 48.5905C74.3015 47.3688 75.7268 46.3762 77.3557 45.6127C79.0355 44.7982 80.7917 44.391 82.6242 44.391ZM105.754 60.0437C104.889 60.0437 104.151 59.8655 103.54 59.5092C102.929 59.102 102.624 58.4912 102.624 57.6767C102.624 57.015 102.802 56.3023 103.158 55.5388C103.515 54.7243 103.973 53.9099 104.533 53.0954C105.093 52.281 105.678 51.4665 106.289 50.6521C106.9 49.8376 107.485 49.0741 108.045 48.3614C108.605 47.547 108.885 46.987 108.885 46.6816C108.885 46.0708 108.478 45.7654 107.663 45.7654C106.594 45.7654 105.423 46.3253 104.151 47.4452C102.929 48.565 101.733 49.8885 100.562 51.4156C99.4423 52.8918 98.3988 54.3935 97.4316 55.9205C96.5154 57.4476 95.8027 58.6439 95.2937 59.5092L73.0745 96.8467C72.6673 97.4575 72.1837 98.1956 71.6237 99.061C71.0638 99.9772 70.453 100.843 69.7912 101.657C69.0786 102.522 68.3659 103.235 67.6533 103.795C66.9407 104.406 66.2535 104.711 65.5917 104.711C64.7264 104.711 64.1664 104.457 63.9119 103.948C63.6574 103.49 63.5301 102.93 63.5301 102.268C63.5301 101.097 63.9883 99.5954 64.9045 97.7629C65.7699 95.9813 66.7116 94.1488 67.7297 92.2654C69.8676 88.3967 72.1582 84.4008 74.6016 80.2777C76.994 76.2054 79.4628 72.1077 82.008 67.9846C84.5022 63.9123 86.9965 59.9164 89.4907 55.9969C92.0359 52.0265 94.4792 48.2851 96.8208 44.7728L90.3306 52.3319L89.7962 51.9501C91.7305 49.6595 93.6902 47.3434 95.6755 45.0018C97.7116 42.6094 99.7732 40.0388 101.86 37.29L102.853 35.8393C103.718 34.6176 104.711 34.0067 105.831 34.0067H106.518C106.925 34.0067 107.129 34.1595 107.129 34.4649C107.129 34.5158 107.103 34.5921 107.052 34.6939C107.052 34.7448 107.001 34.8721 106.9 35.0757L103.845 39.8097C103.082 40.9805 101.987 42.6857 100.562 44.9255C99.1369 47.1652 97.508 49.7358 95.6755 52.6373C93.843 55.4879 91.8832 58.5675 89.7962 61.8762C87.7091 65.1849 85.6476 68.4936 83.6114 71.8023C81.5244 75.1619 79.5392 78.3943 77.6558 81.4994C75.7214 84.6554 74.0162 87.5059 72.54 90.0511C71.0638 92.6472 69.8421 94.836 68.875 96.6176C67.9078 98.3992 67.3733 99.5954 67.2715 100.206C67.1697 100.715 67.1188 101.021 67.1188 101.123C67.1188 101.682 67.3224 101.962 67.7297 101.962C68.2896 101.962 68.9259 101.479 69.6385 100.512C70.3003 99.5954 71.3183 97.992 72.6927 95.7013C76.4595 89.5421 80.15 83.4082 83.7641 77.2999C87.3783 71.2424 90.9924 65.1595 94.6065 59.0511C95.3701 57.7276 96.2863 56.226 97.3553 54.5462C98.4242 52.8155 99.5696 51.1866 100.791 49.6595C102.064 48.1324 103.413 46.8598 104.838 45.8417C106.263 44.7728 107.714 44.2383 109.19 44.2383C110.107 44.2383 110.87 44.4673 111.481 44.9255C112.092 45.3836 112.397 46.0453 112.397 46.9107C112.397 47.6742 112.066 48.565 111.405 49.5831C110.794 50.5503 110.107 51.5683 109.343 52.6373C108.63 53.6554 107.943 54.6225 107.281 55.5388C106.671 56.455 106.365 57.2186 106.365 57.8294C106.365 58.3893 106.696 58.6693 107.358 58.6693C108.681 58.6693 109.954 58.1094 111.175 56.9895C112.397 55.8187 114.052 54.0117 116.139 51.5683L116.673 51.9501C115.859 52.9173 115.044 53.8844 114.23 54.8516C113.466 55.8187 112.652 56.6841 111.786 57.4476C110.921 58.2112 110.005 58.8475 109.038 59.3565C108.07 59.8146 106.976 60.0437 105.754 60.0437ZM127.951 45.2309C127.035 45.2309 126.017 45.6636 124.897 46.5289C123.777 47.3434 122.733 48.3869 121.766 49.6595C120.85 50.8811 120.061 52.2046 119.399 53.6299C118.737 55.0552 118.406 56.3532 118.406 57.524C118.406 57.9821 118.559 58.4148 118.865 58.822C119.17 59.2292 119.705 59.4329 120.468 59.4329C121.588 59.4329 122.733 58.9747 123.904 58.0585C125.075 57.0913 126.118 55.9714 127.035 54.6989C128.002 53.3754 128.765 52.0265 129.325 50.6521C129.936 49.2777 130.241 48.1324 130.241 47.2161C130.241 45.8926 129.478 45.2309 127.951 45.2309ZM128.333 44.391C130.114 44.391 131.387 44.7728 132.15 45.5363C132.965 46.2999 133.372 47.1652 133.372 48.1324C133.372 49.354 132.965 50.6775 132.15 52.1028C131.336 53.4772 130.267 54.7752 128.943 55.9969C127.671 57.2186 126.195 58.2366 124.515 59.0511C122.886 59.8146 121.232 60.1964 119.552 60.1964C117.872 60.1964 116.65 59.891 115.887 59.2802C115.174 58.6184 114.818 57.7022 114.818 56.5314C114.818 55.3097 115.174 53.9862 115.887 52.5609C116.599 51.1357 117.567 49.8122 118.788 48.5905C120.01 47.3688 121.435 46.3762 123.064 45.6127C124.744 44.7982 126.5 44.391 128.333 44.391ZM146.881 44.0092C148.256 44.0092 149.35 44.2637 150.165 44.7728C151.03 45.2309 151.463 46.0708 151.463 47.2925C151.463 48.0051 151.055 48.845 150.241 49.8122C149.427 50.7284 147.849 51.7719 145.507 52.9427C144.489 53.4517 143.675 53.9353 143.064 54.3935C142.504 54.8007 142.071 55.2079 141.766 55.6151C141.46 55.9714 141.257 56.3278 141.155 56.6841C141.104 56.9895 141.078 57.2949 141.078 57.6003C141.129 58.313 141.664 58.7202 142.682 58.822C143.649 58.8729 144.54 58.7966 145.354 58.593C146.169 58.3893 146.983 58.033 147.798 57.524C148.612 56.9641 149.477 56.226 150.394 55.3097C151.361 54.3935 152.455 53.2481 153.677 51.8737L154.211 52.2555C153.041 53.5281 151.972 54.6734 151.005 55.6915C150.088 56.6586 149.147 57.4731 148.179 58.1348C147.212 58.7966 146.22 59.3056 145.202 59.6619C144.184 59.9673 143.064 60.1201 141.842 60.1201C140.417 60.1201 139.322 59.891 138.559 59.4329C137.846 58.9238 137.49 58.0585 137.49 56.8368C137.49 55.6151 137.922 54.5462 138.788 53.6299C139.704 52.6627 141.18 51.721 143.216 50.8048C146.321 49.4304 147.874 48.1578 147.874 46.987C147.874 46.478 147.645 46.0962 147.187 45.8417C146.78 45.5872 146.245 45.46 145.583 45.46C144.871 45.46 144.082 45.689 143.216 46.1471C142.351 46.6053 141.435 47.1907 140.468 47.9033C139.551 48.6159 138.61 49.4304 137.643 50.3467C136.726 51.2629 135.861 52.2046 135.046 53.1718L134.436 52.79C135.352 51.721 136.319 50.6775 137.337 49.6595C138.406 48.5905 139.475 47.6488 140.544 46.8343C141.613 45.969 142.682 45.2818 143.751 44.7728C144.82 44.2637 145.863 44.0092 146.881 44.0092ZM171.413 60.0437C170.547 60.0437 169.809 59.8655 169.198 59.5092C168.588 59.102 168.282 58.4912 168.282 57.6767C168.282 56.6077 168.639 55.4624 169.351 54.2407C170.115 53.0191 170.827 51.9756 171.489 51.1102L171.413 51.0338C170.395 52.1537 169.3 53.2481 168.13 54.3171C166.959 55.3861 165.788 56.3532 164.617 57.2186C163.497 58.033 162.403 58.6948 161.334 59.2038C160.316 59.7128 159.451 59.9673 158.738 59.9673C157.058 59.9673 156.218 59.3056 156.218 57.9821C156.218 57.2695 156.422 56.5823 156.829 55.9205C157.236 55.2588 157.745 54.4953 158.356 53.6299C158.814 52.9682 159.298 52.3064 159.807 51.6447C160.316 50.9829 160.774 50.3467 161.181 49.7358C161.639 49.0741 161.996 48.4887 162.25 47.9797C162.505 47.4197 162.632 46.9361 162.632 46.5289C162.632 45.969 162.352 45.689 161.792 45.689C161.334 45.689 160.774 45.8926 160.112 46.2999C159.501 46.6562 158.814 47.1652 158.051 47.8269C157.338 48.4887 156.575 49.2268 155.76 50.0412C154.997 50.8557 154.258 51.6701 153.546 52.4846L153.088 52.1792C154.004 51.1611 154.895 50.1939 155.76 49.2777C156.676 48.3105 157.567 47.4706 158.432 46.758C159.298 45.9944 160.138 45.4091 160.952 45.0018C161.818 44.5437 162.632 44.3146 163.396 44.3146C164.414 44.3146 165.152 44.5182 165.61 44.9255C166.119 45.3327 166.373 45.8926 166.373 46.6053C166.373 47.5724 166.017 48.6414 165.304 49.8122C164.643 50.9829 163.905 52.1028 163.09 53.1718C162.327 54.2407 161.588 55.2334 160.876 56.1496C160.214 57.015 159.883 57.6767 159.883 58.1348C159.883 58.4403 160.036 58.593 160.341 58.593C161.207 58.593 162.352 58.0839 163.777 57.0659C165.203 56.0478 166.653 54.8516 168.13 53.4772C169.606 52.1028 170.98 50.7284 172.253 49.354C173.525 47.9288 174.467 46.8089 175.078 45.9944C175.383 45.5872 175.689 45.2818 175.994 45.0782C176.35 44.8237 176.859 44.6964 177.521 44.6964H178.743C179.15 44.6964 179.354 44.8491 179.354 45.1545C179.354 45.2054 179.328 45.2818 179.277 45.3836C179.277 45.4345 179.226 45.5618 179.125 45.7654C178.514 46.6816 177.801 47.7251 176.987 48.8959C176.172 50.0667 175.383 51.2375 174.62 52.4082C173.907 53.5281 173.296 54.5971 172.787 55.6151C172.278 56.5823 172.024 57.3204 172.024 57.8294C172.024 58.3893 172.354 58.6693 173.016 58.6693C174.34 58.6693 175.612 58.1094 176.834 56.9895C178.056 55.8187 179.71 54.0117 181.797 51.5683L182.331 51.9501C181.517 52.9173 180.703 53.8844 179.888 54.8516C179.125 55.8187 178.31 56.6841 177.445 57.4476C176.579 58.2112 175.663 58.8475 174.696 59.3565C173.729 59.8146 172.634 60.0437 171.413 60.0437ZM184.938 53.7063C186.618 53.4008 187.992 52.9682 189.061 52.4082C190.13 51.8483 190.97 51.2629 191.581 50.6521C192.192 49.9903 192.599 49.354 192.803 48.7432C193.057 48.0815 193.185 47.4961 193.185 46.987C193.185 46.4271 193.057 46.0708 192.803 45.9181C192.548 45.7145 192.243 45.6127 191.887 45.6127C190.767 45.6127 189.596 46.4017 188.374 47.9797C187.153 49.5068 186.007 51.4156 184.938 53.7063ZM186.694 59.0511C187.203 59.0511 187.763 59.0002 188.374 58.8984C189.036 58.7966 189.825 58.4912 190.741 57.9821C191.657 57.4731 192.701 56.6841 193.872 55.6151C195.093 54.5462 196.544 53.0445 198.224 51.1102L198.758 51.492C197.079 53.4772 195.577 55.0552 194.254 56.226C192.981 57.3458 191.81 58.2112 190.741 58.822C189.672 59.382 188.68 59.7383 187.763 59.891C186.898 60.0946 186.033 60.1964 185.167 60.1964C183.284 60.1964 182.037 59.7892 181.426 58.9747C180.815 58.1094 180.51 57.244 180.51 56.3787C180.51 55.0043 180.841 53.6299 181.502 52.2555C182.215 50.8302 183.131 49.5577 184.251 48.4378C185.422 47.267 186.72 46.3253 188.145 45.6127C189.57 44.8491 191.047 44.4673 192.574 44.4673C194.101 44.4673 195.093 44.7728 195.552 45.3836C196.01 45.9435 196.239 46.5035 196.239 47.0634C196.239 48.1324 195.857 49.0995 195.093 49.9649C194.381 50.7793 193.465 51.492 192.345 52.1028C191.225 52.6627 189.978 53.1463 188.603 53.5536C187.229 53.9099 185.931 54.1898 184.709 54.3935C184.556 54.6989 184.429 55.1061 184.327 55.6151C184.226 56.0733 184.175 56.5059 184.175 56.9132C184.175 57.6258 184.404 58.1603 184.862 58.5166C185.371 58.8729 185.982 59.0511 186.694 59.0511ZM222.267 44.0092C223.641 44.0092 224.736 44.2637 225.55 44.7728C226.415 45.2309 226.848 46.0708 226.848 47.2925C226.848 48.0051 226.441 48.845 225.626 49.8122C224.812 50.7284 223.234 51.7719 220.892 52.9427C219.874 53.4517 219.06 53.9353 218.449 54.3935C217.889 54.8007 217.456 55.2079 217.151 55.6151C216.846 55.9714 216.642 56.3278 216.54 56.6841C216.489 56.9895 216.464 57.2949 216.464 57.6003C216.515 58.313 217.049 58.7202 218.067 58.822C219.034 58.8729 219.925 58.7966 220.74 58.593C221.554 58.3893 222.369 58.033 223.183 57.524C223.997 56.9641 224.863 56.226 225.779 55.3097C226.746 54.3935 227.841 53.2481 229.062 51.8737L229.597 52.2555C228.426 53.5281 227.357 54.6734 226.39 55.6915C225.474 56.6586 224.532 57.4731 223.565 58.1348C222.598 58.7966 221.605 59.3056 220.587 59.6619C219.569 59.9673 218.449 60.1201 217.227 60.1201C215.802 60.1201 214.708 59.891 213.944 59.4329C213.231 58.9238 212.875 58.0585 212.875 56.8368C212.875 55.6151 213.308 54.5462 214.173 53.6299C215.089 52.6627 216.566 51.721 218.602 50.8048C221.707 49.4304 223.259 48.1578 223.259 46.987C223.259 46.478 223.03 46.0962 222.572 45.8417C222.165 45.5872 221.63 45.46 220.969 45.46C220.256 45.46 219.467 45.689 218.602 46.1471C217.736 46.6053 216.82 47.1907 215.853 47.9033C214.937 48.6159 213.995 49.4304 213.028 50.3467C212.112 51.2629 211.246 52.2046 210.432 53.1718L209.821 52.79C210.737 51.721 211.704 50.6775 212.722 49.6595C213.791 48.5905 214.86 47.6488 215.929 46.8343C216.998 45.969 218.067 45.2818 219.136 44.7728C220.205 44.2637 221.249 44.0092 222.267 44.0092ZM240.842 45.2309C239.926 45.2309 238.908 45.6636 237.788 46.5289C236.668 47.3434 235.625 48.3869 234.658 49.6595C233.741 50.8811 232.952 52.2046 232.291 53.6299C231.629 55.0552 231.298 56.3532 231.298 57.524C231.298 57.9821 231.451 58.4148 231.756 58.822C232.062 59.2292 232.596 59.4329 233.36 59.4329C234.48 59.4329 235.625 58.9747 236.796 58.0585C237.966 57.0913 239.01 55.9714 239.926 54.6989C240.893 53.3754 241.657 52.0265 242.217 50.6521C242.828 49.2777 243.133 48.1324 243.133 47.2161C243.133 45.8926 242.37 45.2309 240.842 45.2309ZM241.224 44.391C243.006 44.391 244.278 44.7728 245.042 45.5363C245.856 46.2999 246.264 47.1652 246.264 48.1324C246.264 49.354 245.856 50.6775 245.042 52.1028C244.227 53.4772 243.159 54.7752 241.835 55.9969C240.562 57.2186 239.086 58.2366 237.406 59.0511C235.778 59.8146 234.123 60.1964 232.443 60.1964C230.764 60.1964 229.542 59.891 228.778 59.2802C228.066 58.6184 227.709 57.7022 227.709 56.5314C227.709 55.3097 228.066 53.9862 228.778 52.5609C229.491 51.1357 230.458 49.8122 231.68 48.5905C232.902 47.3688 234.327 46.3762 235.956 45.6127C237.636 44.7982 239.392 44.391 241.224 44.391ZM266.416 51.0338C265.551 52.0519 264.558 53.1209 263.438 54.2407C262.369 55.3097 261.224 56.3023 260.002 57.2186C258.78 58.0839 257.457 58.7966 256.032 59.3565C254.657 59.9164 253.232 60.1964 251.756 60.1964C249.974 60.1964 248.727 59.8146 248.014 59.0511C247.353 58.2875 247.022 57.3967 247.022 56.3787C247.022 55.157 247.378 53.859 248.091 52.4846C248.803 51.0593 249.745 49.7613 250.916 48.5905C252.138 47.4197 253.512 46.4526 255.039 45.689C256.617 44.8746 258.22 44.4673 259.849 44.4673C261.275 44.4673 262.369 44.7728 263.133 45.3836C263.947 45.9435 264.354 46.6816 264.354 47.5979C264.354 48.1578 264.151 48.6923 263.743 49.2013C263.336 49.7104 262.802 49.9649 262.14 49.9649C261.58 49.9649 261.147 49.8376 260.842 49.5831C260.587 49.3286 260.46 49.0486 260.46 48.7432C260.46 48.3869 260.562 48.0815 260.766 47.8269C261.02 47.5215 261.147 47.1652 261.147 46.758C261.147 46.4017 261.02 46.0962 260.766 45.8417C260.562 45.5363 260.231 45.3836 259.773 45.3836C258.806 45.4854 257.788 45.969 256.719 46.8343C255.65 47.6488 254.657 48.6414 253.741 49.8122C252.876 50.9829 252.138 52.2301 251.527 53.5536C250.967 54.8261 250.687 55.946 250.687 56.9132C250.687 57.3713 250.84 57.8549 251.145 58.3639C251.45 58.822 252.163 59.0511 253.283 59.0511C255.421 59.0511 257.508 58.2621 259.544 56.6841C261.631 55.1061 263.743 53.0954 265.881 50.6521L266.416 51.0338ZM294.275 60.0437C293.41 60.0437 292.672 59.8655 292.061 59.5092C291.45 59.102 291.145 58.4912 291.145 57.6767C291.145 56.7095 291.476 55.666 292.137 54.5462C292.85 53.3754 293.588 52.2555 294.352 51.1866C295.166 50.1176 295.904 49.1504 296.566 48.2851C297.278 47.3688 297.635 46.6816 297.635 46.2235C297.635 45.9181 297.482 45.7654 297.177 45.7654C296.871 45.7654 296.464 45.8926 295.955 46.1471C295.446 46.4017 294.911 46.7071 294.352 47.0634C293.843 47.4197 293.308 47.8015 292.748 48.2087C292.239 48.6159 291.781 48.9977 291.374 49.354C290.559 50.0158 289.796 50.6775 289.083 51.3393C288.37 52.001 287.658 52.6882 286.945 53.4008C286.233 54.1135 285.494 54.9025 284.731 55.7678C284.018 56.5823 283.229 57.4731 282.364 58.4403C281.651 59.3056 280.913 59.7383 280.15 59.7383H278.164C277.808 59.7383 277.63 59.5856 277.63 59.2802C277.63 59.1274 277.706 58.9238 277.859 58.6693C278.419 57.9058 278.902 57.244 279.31 56.6841C279.768 56.0733 280.175 55.5388 280.531 55.0806C280.939 54.5716 281.295 54.088 281.6 53.6299C281.957 53.1209 282.338 52.5864 282.746 52.0265C282.847 51.8737 283.051 51.5683 283.356 51.1102C283.713 50.6521 284.044 50.143 284.349 49.5831C284.705 49.0232 285.011 48.4632 285.265 47.9033C285.52 47.3434 285.647 46.8598 285.647 46.4526C285.647 45.8926 285.342 45.6127 284.731 45.6127C284.018 45.6127 283.102 45.9944 281.982 46.758C280.913 47.5215 279.742 48.5141 278.47 49.7358C277.197 50.9575 275.874 52.3319 274.499 53.859C273.125 55.3861 271.801 56.9132 270.529 58.4403C269.816 59.3056 269.078 59.7383 268.315 59.7383H266.329C265.973 59.7383 265.795 59.5856 265.795 59.2802C265.795 59.1274 265.871 58.9238 266.024 58.6693C266.584 57.9058 267.093 57.2186 267.551 56.6077C268.009 55.9969 268.416 55.437 268.773 54.9279C269.18 54.4189 269.562 53.9353 269.918 53.4772C270.274 52.9682 270.656 52.4337 271.063 51.8737C271.216 51.6701 271.42 51.3393 271.674 50.8811C271.98 50.423 272.285 49.9394 272.59 49.4304C272.896 48.9214 273.15 48.4123 273.354 47.9033C273.558 47.3434 273.659 46.8852 273.659 46.5289C273.659 45.969 273.379 45.689 272.82 45.689C271.903 45.689 270.783 46.3508 269.46 47.6742C268.136 48.9468 266.737 50.423 265.26 52.1028L264.65 51.7974C266.431 49.7104 268.111 47.9542 269.689 46.5289C271.267 45.0527 272.845 44.3146 274.423 44.3146C275.492 44.3146 276.255 44.5182 276.714 44.9255C277.172 45.3327 277.401 45.8417 277.401 46.4526C277.401 47.1652 277.223 47.8779 276.866 48.5905C276.561 49.3031 276.23 49.9394 275.874 50.4994C275.467 51.1102 275.187 51.5683 275.034 51.8737C274.881 52.1283 274.525 52.6118 273.965 53.3245L274.041 53.4008C275.008 52.281 276.001 51.1866 277.019 50.1176C278.037 49.0486 279.055 48.0815 280.073 47.2161C281.142 46.3508 282.211 45.6636 283.28 45.1545C284.349 44.5946 285.418 44.3146 286.487 44.3146C287.454 44.3146 288.141 44.5182 288.549 44.9255C289.007 45.3327 289.236 45.8926 289.236 46.6053C289.236 47.1652 289.083 47.8015 288.778 48.5141C288.523 49.1759 288.192 49.8376 287.785 50.4994C287.327 51.212 286.869 51.8737 286.411 52.4846C285.953 53.0954 285.444 53.7572 284.884 54.4698L284.96 54.5462C285.927 53.4263 287.047 52.281 288.32 51.1102C289.592 49.8885 290.839 48.7941 292.061 47.8269C293.333 46.8089 294.555 45.9944 295.726 45.3836C296.897 44.7219 297.915 44.391 298.78 44.391C300.46 44.391 301.3 45.0527 301.3 46.3762C301.3 47.0889 301.096 47.776 300.689 48.4378C300.282 49.0995 299.773 49.8631 299.162 50.7284C298.704 51.3902 298.22 52.0519 297.711 52.7136C297.202 53.3754 296.719 54.0371 296.26 54.6989C295.853 55.3097 295.522 55.8951 295.268 56.455C295.013 57.015 294.886 57.4731 294.886 57.8294C294.886 58.3893 295.217 58.6693 295.879 58.6693C297.202 58.6693 298.475 58.1094 299.696 56.9895C300.918 55.8187 302.572 54.0117 304.659 51.5683L305.194 51.9501C304.379 52.9173 303.565 53.8844 302.751 54.8516C301.987 55.8187 301.173 56.6841 300.307 57.4476C299.442 58.2112 298.526 58.8475 297.558 59.3565C296.591 59.8146 295.497 60.0437 294.275 60.0437ZM322.482 60.0437C321.616 60.0437 320.878 59.8655 320.267 59.5092C319.657 59.102 319.351 58.4912 319.351 57.6767C319.351 56.6077 319.707 55.4624 320.42 54.2407C321.184 53.0191 321.896 51.9756 322.558 51.1102L322.482 51.0338C321.464 52.1537 320.369 53.2481 319.198 54.3171C318.028 55.3861 316.857 56.3532 315.686 57.2186C314.566 58.033 313.472 58.6948 312.403 59.2038C311.385 59.7128 310.519 59.9673 309.807 59.9673C308.127 59.9673 307.287 59.3056 307.287 57.9821C307.287 57.2695 307.491 56.5823 307.898 55.9205C308.305 55.2588 308.814 54.4953 309.425 53.6299C309.883 52.9682 310.367 52.3064 310.876 51.6447C311.385 50.9829 311.843 50.3467 312.25 49.7358C312.708 49.0741 313.065 48.4887 313.319 47.9797C313.574 47.4197 313.701 46.9361 313.701 46.5289C313.701 45.969 313.421 45.689 312.861 45.689C312.403 45.689 311.843 45.8926 311.181 46.2999C310.57 46.6562 309.883 47.1652 309.12 47.8269C308.407 48.4887 307.643 49.2268 306.829 50.0412C306.065 50.8557 305.327 51.6701 304.615 52.4846L304.157 52.1792C305.073 51.1611 305.964 50.1939 306.829 49.2777C307.745 48.3105 308.636 47.4706 309.501 46.758C310.367 45.9944 311.207 45.4091 312.021 45.0018C312.886 44.5437 313.701 44.3146 314.464 44.3146C315.483 44.3146 316.221 44.5182 316.679 44.9255C317.188 45.3327 317.442 45.8926 317.442 46.6053C317.442 47.5724 317.086 48.6414 316.373 49.8122C315.712 50.9829 314.973 52.1028 314.159 53.1718C313.395 54.2407 312.657 55.2334 311.945 56.1496C311.283 57.015 310.952 57.6767 310.952 58.1348C310.952 58.4403 311.105 58.593 311.41 58.593C312.276 58.593 313.421 58.0839 314.846 57.0659C316.272 56.0478 317.722 54.8516 319.198 53.4772C320.675 52.1028 322.049 50.7284 323.322 49.354C324.594 47.9288 325.536 46.8089 326.147 45.9944C326.452 45.5872 326.758 45.2818 327.063 45.0782C327.419 44.8237 327.928 44.6964 328.59 44.6964H329.812C330.219 44.6964 330.423 44.8491 330.423 45.1545C330.423 45.2054 330.397 45.2818 330.346 45.3836C330.346 45.4345 330.295 45.5618 330.194 45.7654C329.583 46.6816 328.87 47.7251 328.056 48.8959C327.241 50.0667 326.452 51.2375 325.689 52.4082C324.976 53.5281 324.365 54.5971 323.856 55.6151C323.347 56.5823 323.093 57.3204 323.093 57.8294C323.093 58.3893 323.423 58.6693 324.085 58.6693C325.409 58.6693 326.681 58.1094 327.903 56.9895C329.125 55.8187 330.779 54.0117 332.866 51.5683L333.4 51.9501C332.586 52.9173 331.772 53.8844 330.957 54.8516C330.194 55.8187 329.379 56.6841 328.514 57.4476C327.648 58.2112 326.732 58.8475 325.765 59.3565C324.798 59.8146 323.703 60.0437 322.482 60.0437ZM358.455 23.1644C358.71 22.7063 358.939 22.3499 359.143 22.0954C359.397 21.79 359.677 21.5609 359.983 21.4082C360.339 21.2555 360.746 21.1537 361.204 21.1028C361.713 21.0519 362.375 21.0265 363.189 21.0265C363.902 21.0265 364.258 21.2046 364.258 21.5609C364.258 21.8154 364.08 22.1972 363.724 22.7063L340.97 52.2555L340.283 51.8737L358.455 23.1644ZM336.542 59.9673C335.829 59.9673 335.345 59.7892 335.091 59.4329C334.836 59.0765 334.709 58.6948 334.709 58.2875C334.709 57.7276 334.989 57.2186 335.549 56.7604C336.109 56.2514 336.72 55.9969 337.382 55.9969C337.891 55.9969 338.298 56.1751 338.603 56.5314C338.909 56.8368 339.061 57.2186 339.061 57.6767C339.061 58.2875 338.807 58.822 338.298 59.2802C337.789 59.7383 337.203 59.9673 336.542 59.9673Z" fill="#112250"></path></svg> 