<?xml version="1.0" encoding="UTF-8"?> <svg xmlns="http://www.w3.org/2000/svg" width="147" height="24" viewBox="0 0 147 24" fill="none"><path d="M0.908359 13.8393C0.908359 11.2153 1.67636 9.10334 3.21236 7.50334C4.74836 5.88734 6.77236 5.07934 9.28436 5.07934C11.0124 5.07934 12.4764 5.59134 13.6764 6.61534C13.7884 6.72734 13.8764 6.88734 13.9404 7.09534L14.1084 7.04734C14.0764 6.88734 14.0524 6.65534 14.0364 6.35134L13.9884 4.59934H14.2044L14.4204 11.5353L13.9884 11.5593L13.9164 9.32734C13.8524 8.27134 13.3324 7.36734 12.3564 6.61534C11.3964 5.86334 10.3084 5.48734 9.09236 5.48734C7.12436 5.48734 5.62036 6.16734 4.58036 7.52734C3.55636 8.88734 3.04436 10.8633 3.04436 13.4553C3.04436 16.3193 3.58036 18.5113 4.65236 20.0313C5.74036 21.5353 7.30836 22.2873 9.35636 22.2873C10.5244 22.2873 11.6044 21.9913 12.5964 21.3993C13.5884 20.8073 14.2844 20.0073 14.6844 18.9993L15.0924 19.1673C14.6444 20.3193 13.8924 21.1993 12.8364 21.8073C11.7964 22.4153 10.6204 22.7193 9.30836 22.7193C6.79636 22.7193 4.76436 21.9033 3.21236 20.2713C1.67636 18.6393 0.908359 16.4953 0.908359 13.8393ZM16.1566 22.5273V22.2873H16.9966C17.5726 22.2873 17.9246 22.2233 18.0526 22.0953C18.1966 21.9513 18.2686 21.5913 18.2686 21.0153V6.75934C18.2686 6.18334 18.1966 5.83134 18.0526 5.70334C17.9246 5.55934 17.5726 5.48734 16.9966 5.48734H16.1566V5.27134H26.1406C26.4286 5.27134 26.6446 5.34334 26.7886 5.48734H26.8126L26.7166 3.85534L26.9326 3.83134L27.3886 10.8633H26.9566L26.8606 9.18334C26.7966 7.96734 26.3646 7.08734 25.5646 6.54334C24.7806 5.98334 23.7646 5.70334 22.5166 5.70334H19.6126V5.72734C19.9646 6.07934 20.1406 6.49534 20.1406 6.97534V13.1673H21.8206C23.9966 13.1673 25.7406 13.5993 27.0526 14.4633C28.3806 15.3113 29.0446 16.4393 29.0446 17.8473C29.0446 19.2553 28.4366 20.3913 27.2206 21.2553C26.0206 22.1033 24.4286 22.5273 22.4446 22.5273H16.1566ZM20.1406 13.5753V20.8233C20.1406 21.3673 20.0046 21.7753 19.7326 22.0473V22.0953H21.9886C23.6046 22.0953 24.8366 21.7353 25.6846 21.0153C26.5326 20.2793 26.9566 19.2233 26.9566 17.8473C26.9566 16.4553 26.5166 15.3993 25.6366 14.6793C24.7726 13.9433 23.5086 13.5753 21.8446 13.5753H20.1406ZM39.107 22.7193C36.435 22.7193 34.283 21.9113 32.651 20.2953C31.019 18.6793 30.203 16.5433 30.203 13.8873C30.203 11.2473 31.019 9.11934 32.651 7.50334C34.283 5.88734 36.435 5.07934 39.107 5.07934C41.763 5.07934 43.899 5.88734 45.515 7.50334C47.147 9.11934 47.963 11.2473 47.963 13.8873C47.963 16.5433 47.147 18.6793 45.515 20.2953C43.899 21.9113 41.763 22.7193 39.107 22.7193ZM39.179 22.2873C41.355 22.2873 43.011 21.6073 44.147 20.2473C45.299 18.8873 45.875 16.9193 45.875 14.3433C45.875 11.4793 45.283 9.29534 44.099 7.79134C42.931 6.27134 41.235 5.51134 39.011 5.51134C36.819 5.51134 35.147 6.19134 33.995 7.55134C32.859 8.91134 32.291 10.8793 32.291 13.4553C32.291 16.3193 32.875 18.5113 34.043 20.0313C35.227 21.5353 36.939 22.2873 39.179 22.2873ZM52.7092 5.72734V5.84734C52.9812 6.21534 53.1172 6.71134 53.1172 7.33534V15.3753H54.4612C55.9812 15.3753 57.1332 14.9673 57.9172 14.1513C58.7172 13.3193 59.1172 12.1193 59.1172 10.5513C59.1172 8.98334 58.7172 7.79134 57.9172 6.97534C57.1332 6.14334 55.9812 5.72734 54.4612 5.72734H52.7092ZM49.1332 22.5273V22.3113H49.9732C50.5492 22.3113 50.9012 22.2473 51.0292 22.1193C51.1732 21.9753 51.2452 21.6153 51.2452 21.0393V6.75934C51.2452 6.18334 51.1732 5.83134 51.0292 5.70334C50.9012 5.55934 50.5492 5.48734 49.9732 5.48734H49.1332V5.27134H55.1812C56.9892 5.27134 58.4452 5.75934 59.5492 6.73534C60.6532 7.69534 61.2052 8.96734 61.2052 10.5513C61.2052 12.1353 60.6532 13.4073 59.5492 14.3673C58.4452 15.3273 56.9892 15.8073 55.1812 15.8073H53.1172V21.0393C53.1172 21.6153 53.1892 21.9753 53.3332 22.1193C53.4772 22.2473 53.8372 22.3113 54.4132 22.3113H55.0132V22.5273H49.1332ZM68.6332 22.5273V22.3113H69.4732C70.0492 22.3113 70.4012 22.2473 70.5292 22.1193C70.6732 21.9753 70.7452 21.6153 70.7452 21.0393V6.75934C70.7452 6.18334 70.6732 5.83134 70.5292 5.70334C70.4012 5.55934 70.0492 5.48734 69.4732 5.48734H68.6332V5.27134H77.6572C77.9452 5.27134 78.1612 5.34334 78.3052 5.48734H78.3292L78.2332 3.85534L78.4492 3.83134L78.9052 10.8633H78.4732L78.3772 9.18334C78.3132 7.96734 77.8892 7.08734 77.1052 6.54334C76.3212 5.98334 75.2972 5.70334 74.0332 5.70334H72.0892V5.72734C72.4412 6.07934 72.6172 6.49534 72.6172 6.97534V21.0393C72.6172 21.6153 72.6892 21.9753 72.8332 22.1193C72.9772 22.2473 73.3372 22.3113 73.9132 22.3113H75.4732V22.5273H68.6332ZM94.6494 8.70334C94.8574 8.41534 95.0894 8.15134 95.3454 7.91134C96.9134 9.60734 97.6974 11.5993 97.6974 13.8873C97.6974 16.3193 96.8334 18.3993 95.1054 20.1273C93.3774 21.8553 91.2894 22.7193 88.8414 22.7193C86.1694 22.7193 84.0174 21.9113 82.3854 20.2953C80.7534 18.6793 79.9374 16.5433 79.9374 13.8873C79.9374 11.2473 80.7534 9.11934 82.3854 7.50334C84.0174 5.88734 86.1694 5.07934 88.8414 5.07934C90.3614 5.07934 91.7774 5.43934 93.0894 6.15934C92.9294 6.30334 92.7614 6.44734 92.5854 6.59134C91.4814 5.87134 90.2014 5.51134 88.7454 5.51134C86.5534 5.51134 84.8814 6.19134 83.7294 7.55134C82.5934 8.91134 82.0254 10.8793 82.0254 13.4553C82.0254 16.3193 82.6094 18.5113 83.7774 20.0313C84.9614 21.5353 86.6734 22.2873 88.9134 22.2873C91.0734 22.2873 92.8094 21.5513 94.1214 20.0793C95.4334 18.5913 96.0894 16.6393 96.0894 14.2233C96.0894 12.0473 95.6094 10.2073 94.6494 8.70334ZM95.0334 21.6393C95.2094 21.4953 95.3774 21.3513 95.5374 21.2073C96.6414 21.9273 97.8734 22.2873 99.2334 22.2873C100.401 22.2873 101.481 21.9913 102.473 21.3993C103.465 20.8073 104.161 20.0073 104.561 18.9993L104.969 19.1673C104.521 20.3193 103.769 21.1993 102.713 21.8073C101.673 22.4153 100.497 22.7193 99.1854 22.7193C97.7134 22.7193 96.3294 22.3593 95.0334 21.6393ZM93.5454 19.0713C93.3214 19.3593 93.0814 19.6153 92.8254 19.8393C91.3054 18.1753 90.5454 16.1753 90.5454 13.8393C90.5454 12.2553 90.9294 10.7913 91.6974 9.44734C92.4654 8.10334 93.5134 7.03934 94.8414 6.25534C96.1694 5.47134 97.6094 5.07934 99.1614 5.07934C100.889 5.07934 102.353 5.59134 103.553 6.61534C103.665 6.72734 103.753 6.88734 103.817 7.09534L103.985 7.04734C103.953 6.88734 103.929 6.65534 103.913 6.35134L103.865 4.59934H104.081L104.297 11.5353L103.865 11.5593L103.793 9.32734C103.729 8.27134 103.209 7.36734 102.233 6.61534C101.273 5.86334 100.185 5.48734 98.9694 5.48734C96.9374 5.48734 95.2974 6.23134 94.0494 7.71934C92.8014 9.19134 92.1774 11.1433 92.1774 13.5753C92.1774 15.7833 92.6334 17.6153 93.5454 19.0713ZM107.774 22.5273V22.3113H109.598C110.174 22.3113 110.526 22.2473 110.654 22.1193C110.798 21.9753 110.87 21.6153 110.87 21.0393V5.70334H109.43C108.23 5.70334 107.406 5.88734 106.958 6.25534C106.51 6.60734 106.254 7.34334 106.19 8.46334L106.118 9.44734L105.686 9.42334L106.046 3.85534L106.31 3.87934L106.19 5.27134H117.374L117.254 3.90334L117.518 3.87934L117.878 9.42334L117.446 9.44734L117.374 8.46334C117.294 7.34334 117.03 6.60734 116.582 6.25534C116.134 5.88734 115.318 5.70334 114.134 5.70334H112.742V21.0393C112.742 21.6153 112.806 21.9753 112.934 22.1193C113.078 22.2473 113.438 22.3113 114.014 22.3113H115.79V22.5273H107.774ZM126.424 17.5833H126.208V16.2633C126.208 15.2233 125.976 14.5353 125.512 14.1993C125.064 13.8633 124.432 13.6953 123.616 13.6953H122.656V20.8233C122.656 21.3033 122.48 21.7193 122.128 22.0713V22.0953H126.904C128.072 22.0953 128.936 21.8393 129.496 21.3273C130.072 20.8153 130.4 19.9913 130.48 18.8553L130.624 16.9353H131.008L130.6 23.4393L130.384 23.4153L130.456 22.3113H130.432C130.288 22.4553 129.992 22.5273 129.544 22.5273H118.672V22.3113H119.512C120.088 22.3113 120.44 22.2473 120.568 22.1193C120.712 21.9753 120.784 21.6153 120.784 21.0393V6.75934C120.784 6.18334 120.712 5.83134 120.568 5.70334C120.44 5.55934 120.088 5.48734 119.512 5.48734H118.672V5.27134H128.248C128.696 5.27134 128.992 5.34334 129.136 5.48734H129.16L129.088 4.38334L129.304 4.35934L129.736 10.8633H129.304L129.208 9.18334C129.144 7.91934 128.808 7.02334 128.2 6.49534C127.608 5.96734 126.712 5.70334 125.512 5.70334H122.128V5.72734C122.48 6.07934 122.656 6.49534 122.656 6.97534V13.2633H123.616C124.448 13.2633 125.088 13.1033 125.536 12.7833C125.984 12.4473 126.208 11.7593 126.208 10.7193V9.87934H126.424V17.5833ZM131.914 22.5273V22.3113H132.754C133.314 22.3113 133.666 22.2153 133.81 22.0233C133.954 21.8313 134.026 21.4313 134.026 20.8233V6.97534C134.026 6.36734 133.954 5.96734 133.81 5.77534C133.666 5.58334 133.314 5.48734 132.754 5.48734H131.914V5.27134H137.818V5.48734H137.194C136.634 5.48734 136.274 5.58334 136.114 5.77534C135.97 5.96734 135.898 6.36734 135.898 6.97534V20.8953L142.714 5.27134H146.482V5.48734H145.618C145.058 5.48734 144.706 5.58334 144.562 5.77534C144.418 5.96734 144.346 6.36734 144.346 6.97534V20.8233C144.346 21.4313 144.418 21.8313 144.562 22.0233C144.706 22.2153 145.058 22.3113 145.618 22.3113H146.482V22.5273H140.554V22.3113H141.202C141.762 22.3113 142.114 22.2153 142.258 22.0233C142.402 21.8313 142.474 21.4313 142.474 20.8233V6.90334L135.658 22.5273H131.914ZM136.234 0.951343L137.098 0.879342C137.098 1.53534 137.338 2.10334 137.818 2.58334C138.298 3.04734 138.874 3.27934 139.546 3.27934C140.218 3.27934 140.794 3.04734 141.274 2.58334C141.754 2.10334 141.994 1.53534 141.994 0.879342L142.858 0.951343C142.858 1.71934 142.53 2.37534 141.874 2.91934C141.234 3.44734 140.458 3.71134 139.546 3.71134C138.634 3.71134 137.85 3.44734 137.194 2.91934C136.554 2.37534 136.234 1.71934 136.234 0.951343Z" fill="#F2EFEA"></path></svg> 