<?xml version="1.0" encoding="UTF-8"?> <svg xmlns="http://www.w3.org/2000/svg" width="263" height="183" viewBox="0 0 263 183" fill="none"><path d="M89.2772 174.504V174.184C89.7892 174.184 90.1092 174.035 90.2372 173.736C90.3866 173.416 90.4612 173.043 90.4612 172.616V157.288C90.4612 157.075 90.3546 156.968 90.1412 156.968C90.0559 156.968 89.9386 157 89.7892 157.064L86.1412 158.216V157.064L93.5972 154.472V155.336C93.2559 155.485 92.9786 155.72 92.7652 156.04C92.5732 156.36 92.4986 156.733 92.5412 157.16V172.488C92.5412 172.936 92.6159 173.331 92.7652 173.672C92.9146 174.013 93.2559 174.184 93.7892 174.184V174.504H89.2772ZM110.947 169.288C110.947 170.227 110.755 171.048 110.371 171.752C110.009 172.435 109.507 173.011 108.867 173.48C108.249 173.928 107.523 174.269 106.691 174.504C105.859 174.717 104.974 174.824 104.035 174.824C103.161 174.824 102.307 174.717 101.475 174.504C100.643 174.269 99.8968 173.928 99.2355 173.48C98.5741 173.011 98.0408 172.435 97.6355 171.752C97.2515 171.069 97.0595 170.269 97.0595 169.352C97.0595 168.136 97.4221 167.048 98.1475 166.088C98.8728 165.107 100.025 164.381 101.603 163.912C100.387 163.357 99.4915 162.717 98.9155 161.992C98.3608 161.245 98.0835 160.339 98.0835 159.272C98.0835 158.483 98.2435 157.8 98.5635 157.224C98.9048 156.627 99.3421 156.125 99.8755 155.72C100.43 155.315 101.059 155.016 101.763 154.824C102.467 154.611 103.182 154.504 103.907 154.504C104.633 154.504 105.347 154.611 106.051 154.824C106.777 155.016 107.417 155.315 107.971 155.72C108.526 156.125 108.974 156.637 109.315 157.256C109.678 157.853 109.859 158.557 109.859 159.368C109.859 160.328 109.539 161.224 108.899 162.056C108.259 162.888 107.427 163.517 106.403 163.944C107.726 164.328 108.814 164.968 109.667 165.864C110.521 166.739 110.947 167.88 110.947 169.288ZM108.003 159.848C108.003 159.208 107.865 158.621 107.587 158.088C107.331 157.555 106.99 157.107 106.563 156.744C106.137 156.36 105.646 156.072 105.091 155.88C104.558 155.667 104.014 155.56 103.459 155.56C103.033 155.56 102.617 155.624 102.211 155.752C101.806 155.88 101.443 156.072 101.123 156.328C100.803 156.584 100.537 156.904 100.323 157.288C100.131 157.672 100.035 158.12 100.035 158.632C100.035 159.208 100.174 159.741 100.451 160.232C100.729 160.723 101.091 161.16 101.539 161.544C102.009 161.928 102.531 162.269 103.107 162.568C103.705 162.845 104.302 163.08 104.899 163.272C105.859 162.888 106.617 162.408 107.171 161.832C107.726 161.256 108.003 160.595 108.003 159.848ZM109.347 169.96C109.347 169.363 109.187 168.797 108.867 168.264C108.547 167.731 108.099 167.251 107.523 166.824C106.947 166.376 106.275 165.981 105.507 165.64C104.761 165.277 103.971 164.968 103.139 164.712C102.585 164.904 102.062 165.139 101.571 165.416C101.081 165.693 100.654 166.013 100.291 166.376C99.9288 166.739 99.6408 167.133 99.4275 167.56C99.2141 167.987 99.1075 168.445 99.1075 168.936C99.1075 169.576 99.2568 170.184 99.5555 170.76C99.8541 171.336 100.249 171.848 100.739 172.296C101.23 172.723 101.795 173.053 102.435 173.288C103.075 173.523 103.737 173.64 104.419 173.64C104.995 173.64 105.571 173.555 106.147 173.384C106.745 173.192 107.267 172.947 107.715 172.648C108.185 172.328 108.569 171.944 108.867 171.496C109.187 171.048 109.347 170.536 109.347 169.96ZM114.113 163.656C114.113 163.229 114.252 162.867 114.529 162.568C114.828 162.269 115.191 162.12 115.617 162.12C116.044 162.12 116.407 162.269 116.705 162.568C117.004 162.867 117.153 163.229 117.153 163.656C117.153 164.083 117.004 164.445 116.705 164.744C116.407 165.021 116.044 165.16 115.617 165.16C115.191 165.16 114.828 165.021 114.529 164.744C114.252 164.445 114.113 164.083 114.113 163.656ZM114.113 173.128C114.113 172.701 114.252 172.339 114.529 172.04C114.828 171.741 115.191 171.592 115.617 171.592C116.044 171.592 116.407 171.741 116.705 172.04C117.004 172.339 117.153 172.701 117.153 173.128C117.153 173.555 117.004 173.917 116.705 174.216C116.407 174.493 116.044 174.632 115.617 174.632C115.191 174.632 114.828 174.493 114.529 174.216C114.252 173.917 114.113 173.555 114.113 173.128ZM120.071 164.584C120.071 162.941 120.273 161.491 120.679 160.232C121.105 158.973 121.66 157.928 122.343 157.096C123.025 156.243 123.793 155.603 124.647 155.176C125.521 154.728 126.407 154.504 127.303 154.504C128.199 154.504 129.084 154.728 129.959 155.176C130.833 155.603 131.601 156.243 132.263 157.096C132.945 157.928 133.489 158.973 133.895 160.232C134.321 161.491 134.535 162.941 134.535 164.584C134.535 166.248 134.321 167.72 133.895 169C133.489 170.259 132.945 171.325 132.263 172.2C131.601 173.053 130.833 173.704 129.959 174.152C129.084 174.6 128.199 174.824 127.303 174.824C126.407 174.824 125.521 174.6 124.647 174.152C123.793 173.704 123.025 173.053 122.343 172.2C121.66 171.325 121.105 170.259 120.679 169C120.273 167.72 120.071 166.248 120.071 164.584ZM132.519 165.416C132.519 163.88 132.348 162.525 132.007 161.352C131.665 160.157 131.217 159.165 130.663 158.376C130.129 157.565 129.511 156.957 128.807 156.552C128.124 156.125 127.42 155.912 126.695 155.912C125.969 155.912 125.308 156.125 124.711 156.552C124.135 156.957 123.644 157.501 123.239 158.184C122.833 158.867 122.513 159.656 122.279 160.552C122.065 161.448 121.959 162.387 121.959 163.368C121.959 164.541 122.097 165.736 122.375 166.952C122.652 168.147 123.047 169.235 123.559 170.216C124.071 171.176 124.679 171.965 125.383 172.584C126.108 173.203 126.897 173.512 127.751 173.512C128.369 173.512 128.967 173.341 129.543 173C130.119 172.637 130.62 172.115 131.047 171.432C131.495 170.749 131.847 169.907 132.103 168.904C132.38 167.901 132.519 166.739 132.519 165.416ZM137.133 164.584C137.133 162.941 137.336 161.491 137.741 160.232C138.168 158.973 138.723 157.928 139.405 157.096C140.088 156.243 140.856 155.603 141.709 155.176C142.584 154.728 143.469 154.504 144.365 154.504C145.261 154.504 146.147 154.728 147.021 155.176C147.896 155.603 148.664 156.243 149.325 157.096C150.008 157.928 150.552 158.973 150.957 160.232C151.384 161.491 151.597 162.941 151.597 164.584C151.597 166.248 151.384 167.72 150.957 169C150.552 170.259 150.008 171.325 149.325 172.2C148.664 173.053 147.896 173.704 147.021 174.152C146.147 174.6 145.261 174.824 144.365 174.824C143.469 174.824 142.584 174.6 141.709 174.152C140.856 173.704 140.088 173.053 139.405 172.2C138.723 171.325 138.168 170.259 137.741 169C137.336 167.72 137.133 166.248 137.133 164.584ZM149.581 165.416C149.581 163.88 149.411 162.525 149.069 161.352C148.728 160.157 148.28 159.165 147.725 158.376C147.192 157.565 146.573 156.957 145.869 156.552C145.187 156.125 144.483 155.912 143.757 155.912C143.032 155.912 142.371 156.125 141.773 156.552C141.197 156.957 140.707 157.501 140.301 158.184C139.896 158.867 139.576 159.656 139.341 160.552C139.128 161.448 139.021 162.387 139.021 163.368C139.021 164.541 139.16 165.736 139.437 166.952C139.715 168.147 140.109 169.235 140.621 170.216C141.133 171.176 141.741 171.965 142.445 172.584C143.171 173.203 143.96 173.512 144.813 173.512C145.432 173.512 146.029 173.341 146.605 173C147.181 172.637 147.683 172.115 148.109 171.432C148.557 170.749 148.909 169.907 149.165 168.904C149.443 167.901 149.581 166.739 149.581 165.416Z" fill="#112250"></path><path d="M83.2883 100.016C84.5043 100.016 85.7843 100.064 87.1283 100.16C88.4723 100.224 89.8163 100.256 91.1603 100.256C92.3123 100.256 93.4643 100.208 94.6163 100.112C95.7683 99.9839 96.8563 99.7759 97.8803 99.4879C98.9363 99.1679 99.9283 98.7199 100.856 98.1439C101.784 97.5679 102.616 96.8159 103.352 95.8879L103.832 96.0319C103.256 96.9919 102.552 97.9039 101.72 98.7679C100.888 99.6319 99.9283 100.4 98.8403 101.072C97.7843 101.744 96.6003 102.272 95.2883 102.656C94.0083 103.04 92.6163 103.232 91.1123 103.232C88.4563 103.232 86.0083 103.152 83.7683 102.992C81.5283 102.8 79.3203 102.704 77.1443 102.704C75.0323 102.704 72.9203 102.864 70.8083 103.184C68.6963 103.504 66.4403 104.144 64.0403 105.104C61.4483 106.16 58.9843 107.504 56.6483 109.136C54.3123 110.768 52.2483 112.672 50.4563 114.848C48.6963 116.992 47.2883 119.376 46.2323 122C45.2082 124.624 44.6962 127.456 44.6962 130.496C44.6962 132.672 45.0802 134.672 45.8483 136.496C46.6483 138.32 47.7523 139.888 49.1603 141.2C50.5683 142.512 52.2483 143.52 54.2003 144.224C56.1523 144.96 58.2803 145.328 60.5843 145.328C63.4643 145.328 66.2323 144.912 68.8883 144.08C71.5443 143.248 73.9603 142.096 76.1363 140.624C78.3443 139.152 80.2483 137.408 81.8483 135.392C83.4483 133.408 84.6323 131.248 85.4003 128.912C84.0243 129.84 82.5843 130.592 81.0803 131.168C79.6083 131.712 78.1363 131.984 76.6643 131.984C74.6163 131.984 73.0643 131.456 72.0083 130.4C70.9523 129.312 70.4243 127.952 70.4243 126.32C70.4243 123.92 71.0003 121.536 72.1523 119.168C73.3043 116.768 74.8243 114.528 76.7123 112.448C76.2643 112.384 75.8163 112.336 75.3683 112.304C74.9203 112.24 74.4723 112.208 74.0243 112.208C71.3683 112.208 68.8723 112.592 66.5363 113.36C64.2323 114.096 62.2003 115.152 60.4403 116.528C58.6803 117.872 57.2723 119.504 56.2163 121.424C55.1923 123.344 54.6483 125.456 54.5843 127.76C54.5843 128.784 54.7283 129.744 55.0163 130.64C55.3043 131.536 55.7363 132.336 56.3123 133.04C56.9203 133.744 57.6563 134.288 58.5203 134.672C59.4163 135.088 60.4563 135.296 61.6403 135.296L61.5443 135.776C60.3283 135.776 59.2403 135.568 58.2803 135.152C57.3523 134.768 56.5683 134.224 55.9283 133.52C55.2883 132.848 54.7923 132.048 54.4403 131.12C54.1203 130.192 53.9603 129.216 53.9603 128.192C53.9603 125.728 54.5043 123.488 55.5923 121.472C56.6803 119.424 58.1363 117.68 59.9603 116.24C61.7843 114.768 63.8803 113.632 66.2483 112.832C68.6483 112.032 71.1603 111.632 73.7843 111.632C74.3603 111.632 74.9203 111.664 75.4643 111.728C76.0403 111.76 76.6003 111.84 77.1443 111.968C78.9683 110.048 81.0003 108.4 83.2403 107.024C85.4803 105.616 87.7523 104.624 90.0563 104.048L90.1043 104.48C88.1843 105.056 86.2323 106.048 84.2483 107.456C82.2643 108.832 80.4563 110.496 78.8243 112.448C79.5603 112.672 80.3123 112.992 81.0803 113.408C82.0403 112.704 83.0643 112.144 84.1523 111.728C85.2723 111.312 86.4243 111.104 87.6083 111.104C88.7603 111.104 89.7203 111.248 90.4883 111.536C91.2563 111.824 91.8803 112.192 92.3603 112.64C92.8403 113.088 93.1763 113.616 93.3683 114.224C93.5603 114.832 93.6562 115.44 93.6562 116.048C93.6562 117.072 93.4643 118.144 93.0803 119.264C92.6963 120.352 92.1683 121.44 91.4963 122.528C90.8243 123.584 90.0243 124.624 89.0963 125.648C88.2003 126.64 87.2083 127.536 86.1203 128.336C85.4163 130.864 84.2483 133.2 82.6163 135.344C81.0163 137.488 79.0803 139.344 76.8083 140.912C74.5363 142.48 71.9923 143.696 69.1763 144.56C66.3923 145.456 63.4803 145.904 60.4403 145.904C58.0403 145.904 55.8003 145.536 53.7203 144.8C51.6403 144.064 49.8323 143.024 48.2963 141.68C46.7603 140.368 45.5602 138.768 44.6962 136.88C43.8322 135.024 43.4002 132.96 43.4002 130.688C43.4002 127.648 43.9762 124.784 45.1282 122.096C46.2482 119.408 47.7843 116.928 49.7363 114.656C51.6883 112.384 53.9603 110.352 56.5523 108.56C59.1763 106.736 61.9603 105.2 64.9043 103.952C67.8803 102.672 70.9363 101.696 74.0723 101.024C77.2083 100.352 80.2803 100.016 83.2883 100.016ZM79.0163 126.704C80.4563 126.704 81.8163 126.224 83.0963 125.264C84.4083 124.304 85.4483 123.152 86.2163 121.808C86.0243 120.08 85.4643 118.56 84.5363 117.248C83.6083 115.936 82.4403 114.864 81.0323 114.032C80.2643 114.64 79.5603 115.328 78.9203 116.096C78.2803 116.864 77.7363 117.68 77.2883 118.544C76.8403 119.376 76.4883 120.224 76.2323 121.088C75.9763 121.952 75.8483 122.8 75.8483 123.632C75.8483 124.464 76.1043 125.184 76.6163 125.792C77.1283 126.4 77.9283 126.704 79.0163 126.704ZM75.2723 123.488C75.2723 122.656 75.4003 121.808 75.6562 120.944C75.9123 120.048 76.2643 119.184 76.7123 118.352C77.1923 117.488 77.7523 116.672 78.3923 115.904C79.0643 115.136 79.7843 114.432 80.5523 113.792C80.2003 113.6 79.8483 113.44 79.4963 113.312C79.1443 113.184 78.7923 113.056 78.4403 112.928C76.8083 114.912 75.4963 117.104 74.5043 119.504C73.5123 121.872 73.0163 124.352 73.0163 126.944C73.0163 127.52 73.0803 128.08 73.2083 128.624C73.3363 129.168 73.5443 129.648 73.8323 130.064C74.1203 130.48 74.5043 130.816 74.9843 131.072C75.4643 131.328 76.0403 131.456 76.7123 131.456C78.4403 131.456 80.0883 131.024 81.6563 130.16C83.2563 129.264 84.6963 128.128 85.9763 126.752C86.2003 125.632 86.3123 124.416 86.3123 123.104V122.72C85.4483 123.968 84.3763 125.024 83.0963 125.888C81.8483 126.752 80.5043 127.184 79.0643 127.184C77.7203 127.184 76.7443 126.832 76.1363 126.128C75.5603 125.392 75.2723 124.512 75.2723 123.488ZM88.0883 117.44C88.0883 118.176 87.9763 118.928 87.7523 119.696C87.5283 120.432 87.2243 121.152 86.8403 121.856C86.8403 122.048 86.8403 122.24 86.8403 122.432C86.8723 122.592 86.8883 122.768 86.8883 122.96C86.8883 123.472 86.8563 123.984 86.7923 124.496C86.7603 124.976 86.7123 125.456 86.6483 125.936C87.9283 124.4 88.9523 122.752 89.7203 120.992C90.4883 119.232 90.9043 117.6 90.9683 116.096C90.9683 115.616 90.9363 115.12 90.8723 114.608C90.8083 114.096 90.6483 113.632 90.3923 113.216C90.1363 112.768 89.7523 112.4 89.2403 112.112C88.7603 111.824 88.0883 111.68 87.2243 111.68C86.2003 111.68 85.2083 111.856 84.2483 112.208C83.2883 112.56 82.3763 113.056 81.5123 113.696C82.8563 114.496 83.9763 115.504 84.8723 116.72C85.7683 117.936 86.3763 119.328 86.6963 120.896C86.9523 120.32 87.1603 119.728 87.3203 119.12C87.4803 118.512 87.5603 117.936 87.5603 117.392C87.5603 116.432 87.3203 115.584 86.8403 114.848L87.2723 114.56C87.8163 115.456 88.0883 116.416 88.0883 117.44ZM100.919 122.432C100.215 122.432 99.4953 122.72 98.7593 123.296C98.0233 123.872 97.3353 124.56 96.6953 125.36C96.0873 126.128 95.5753 126.944 95.1593 127.808C94.7753 128.672 94.5833 129.392 94.5833 129.968C94.5833 130.192 94.6313 130.448 94.7273 130.736C94.8233 130.992 95.1273 131.12 95.6393 131.12C96.0553 131.12 96.4873 130.976 96.9353 130.688C97.4153 130.4 97.8953 130.032 98.3753 129.584C98.8553 129.136 99.3033 128.64 99.7193 128.096C100.167 127.552 100.583 127.008 100.967 126.464C101.319 125.952 101.623 125.44 101.879 124.928C102.167 124.416 102.311 123.984 102.311 123.632C102.311 123.184 102.167 122.88 101.879 122.72C101.591 122.528 101.271 122.432 100.919 122.432ZM103.607 122.912C103.799 122.656 103.991 122.448 104.183 122.288C104.375 122.128 104.663 122.048 105.047 122.048H105.959C106.215 122.048 106.343 122.144 106.343 122.336C106.343 122.368 106.327 122.416 106.295 122.48C106.295 122.512 106.263 122.592 106.199 122.72C105.911 123.168 105.511 123.744 104.999 124.448C104.487 125.152 103.991 125.888 103.511 126.656C103.031 127.392 102.599 128.096 102.215 128.768C101.863 129.408 101.687 129.904 101.687 130.256C101.687 130.64 101.863 130.832 102.215 130.832C103.047 130.832 103.847 130.48 104.615 129.776C105.383 129.04 106.423 127.904 107.735 126.368L108.071 126.608C107.559 127.216 107.047 127.824 106.535 128.432C106.055 129.04 105.543 129.584 104.999 130.064C104.455 130.544 103.879 130.944 103.271 131.264C102.663 131.552 101.975 131.696 101.207 131.696C100.663 131.696 100.199 131.6 99.8153 131.408C99.4313 131.184 99.2393 130.816 99.2393 130.304C99.2393 130.144 99.2713 129.952 99.3353 129.728C99.4313 129.472 99.5753 129.2 99.7673 128.912V128.864C98.9353 129.792 98.1193 130.512 97.3193 131.024C96.5513 131.504 95.6873 131.744 94.7273 131.744C93.7673 131.744 93.1113 131.536 92.7593 131.12C92.4393 130.704 92.2793 130.24 92.2793 129.728C92.2793 128.864 92.5193 127.968 92.9993 127.04C93.5113 126.112 94.1673 125.264 94.9673 124.496C95.7673 123.728 96.6633 123.104 97.6553 122.624C98.6473 122.144 99.6393 121.904 100.631 121.904C101.431 121.904 102.039 122.048 102.455 122.336C102.871 122.592 103.175 122.896 103.367 123.248L103.607 122.912ZM117.614 131.696C117.07 131.696 116.606 131.584 116.222 131.36C115.87 131.104 115.694 130.72 115.694 130.208C115.694 129.856 115.822 129.408 116.078 128.864C116.334 128.32 116.654 127.728 117.038 127.088C116.75 127.056 116.446 127.04 116.126 127.04C115.806 127.008 115.438 126.992 115.022 126.992C114.766 126.992 114.526 126.992 114.302 126.992C114.078 126.992 113.838 127.008 113.582 127.04L111.134 130.688C110.91 131.008 110.686 131.232 110.462 131.36C110.238 131.456 109.998 131.504 109.742 131.504H108.494C108.27 131.504 108.158 131.408 108.158 131.216C108.158 131.12 108.206 130.992 108.302 130.832C108.718 130.288 109.198 129.632 109.742 128.864C110.318 128.096 110.846 127.344 111.326 126.608C111.838 125.84 112.254 125.152 112.574 124.544C112.926 123.904 113.102 123.456 113.102 123.2C113.102 122.848 112.926 122.672 112.574 122.672C112.286 122.672 111.95 122.8 111.566 123.056C111.182 123.28 110.766 123.6 110.318 124.016C109.902 124.432 109.454 124.896 108.974 125.408C108.526 125.92 108.078 126.432 107.63 126.944L107.246 126.752C107.822 126.112 108.382 125.504 108.926 124.928C109.47 124.32 109.998 123.792 110.51 123.344C111.054 122.864 111.582 122.496 112.094 122.24C112.606 121.952 113.102 121.808 113.582 121.808C114.318 121.808 114.814 121.936 115.07 122.192C115.358 122.448 115.502 122.784 115.502 123.2C115.502 123.84 114.974 124.944 113.918 126.512C114.174 126.544 114.43 126.56 114.686 126.56C114.942 126.56 115.23 126.56 115.55 126.56H117.326C117.774 125.856 118.222 125.184 118.67 124.544C119.15 123.872 119.566 123.312 119.918 122.864C120.11 122.608 120.302 122.416 120.494 122.288C120.718 122.128 121.038 122.048 121.454 122.048H122.222C122.478 122.048 122.606 122.144 122.606 122.336C122.606 122.368 122.59 122.416 122.558 122.48C122.558 122.512 122.526 122.592 122.462 122.72C122.174 123.168 121.774 123.76 121.262 124.496C120.782 125.2 120.286 125.92 119.774 126.656C119.294 127.392 118.878 128.096 118.526 128.768C118.174 129.44 117.998 129.952 117.998 130.304C117.998 130.656 118.206 130.832 118.622 130.832C119.454 130.832 120.254 130.48 121.022 129.776C121.79 129.04 122.83 127.904 124.142 126.368L124.478 126.608C123.966 127.216 123.454 127.824 122.942 128.432C122.462 129.04 121.95 129.584 121.406 130.064C120.862 130.544 120.286 130.944 119.678 131.264C119.07 131.552 118.382 131.696 117.614 131.696ZM133.777 131.696C132.593 131.696 132.001 131.2 132.001 130.208C132.001 129.856 132.049 129.456 132.145 129.008C132.273 128.56 132.337 128.176 132.337 127.856C132.337 127.376 132.209 127.008 131.953 126.752C131.729 126.496 131.297 126.352 130.657 126.32L127.969 130.496C127.649 130.976 127.393 131.264 127.201 131.36C127.009 131.456 126.785 131.504 126.529 131.504H125.281C125.057 131.504 124.945 131.408 124.945 131.216C124.945 131.12 124.993 130.992 125.089 130.832C125.441 130.352 125.745 129.92 126.001 129.536C126.257 129.152 126.481 128.8 126.673 128.48C126.897 128.16 127.105 127.856 127.297 127.568C127.489 127.248 127.713 126.912 127.969 126.56C128.321 126.048 128.689 125.456 129.073 124.784C129.457 124.08 129.649 123.552 129.649 123.2C129.649 122.848 129.473 122.672 129.121 122.672C128.833 122.672 128.497 122.8 128.113 123.056C127.761 123.28 127.377 123.6 126.961 124.016C126.545 124.432 126.097 124.896 125.617 125.408C125.169 125.92 124.721 126.432 124.273 126.944L123.889 126.752C124.465 126.112 125.009 125.504 125.521 124.928C126.065 124.32 126.593 123.792 127.105 123.344C127.617 122.864 128.129 122.496 128.641 122.24C129.153 121.952 129.649 121.808 130.129 121.808C130.801 121.808 131.265 121.936 131.521 122.192C131.809 122.448 131.953 122.768 131.953 123.152C131.953 123.504 131.873 123.872 131.713 124.256C131.585 124.64 131.441 124.976 131.281 125.264C132.497 124.144 133.617 123.28 134.641 122.672C135.697 122.064 136.529 121.76 137.137 121.76C137.745 121.76 138.049 122.064 138.049 122.672C138.049 123.12 137.873 123.728 137.521 124.496L137.041 124.4C137.041 123.664 136.689 123.296 135.985 123.296C135.505 123.296 134.881 123.488 134.113 123.872C133.345 124.224 132.401 124.848 131.281 125.744V125.792C131.473 125.76 131.649 125.744 131.809 125.744C132.001 125.712 132.177 125.696 132.337 125.696C133.873 125.696 134.641 126.4 134.641 127.808C134.641 128.16 134.593 128.56 134.497 129.008C134.433 129.424 134.401 129.76 134.401 130.016C134.401 130.56 134.625 130.832 135.073 130.832C135.489 130.832 135.873 130.752 136.225 130.592C136.577 130.432 136.945 130.192 137.329 129.872C137.745 129.52 138.177 129.072 138.625 128.528C139.105 127.984 139.681 127.328 140.353 126.56L140.689 126.8C140.177 127.408 139.665 128 139.153 128.576C138.673 129.152 138.161 129.68 137.617 130.16C137.073 130.608 136.481 130.976 135.841 131.264C135.233 131.552 134.545 131.696 133.777 131.696ZM142.265 127.712C143.321 127.52 144.185 127.248 144.857 126.896C145.529 126.544 146.057 126.176 146.441 125.792C146.825 125.376 147.081 124.976 147.209 124.592C147.369 124.176 147.449 123.808 147.449 123.488C147.449 123.136 147.369 122.912 147.209 122.816C147.049 122.688 146.857 122.624 146.633 122.624C145.929 122.624 145.193 123.12 144.425 124.112C143.657 125.072 142.937 126.272 142.265 127.712ZM143.369 131.072C143.689 131.072 144.041 131.04 144.425 130.976C144.841 130.912 145.337 130.72 145.913 130.4C146.489 130.08 147.145 129.584 147.881 128.912C148.649 128.24 149.561 127.296 150.617 126.08L150.953 126.32C149.897 127.568 148.953 128.56 148.121 129.296C147.321 130 146.585 130.544 145.913 130.928C145.241 131.28 144.617 131.504 144.041 131.6C143.497 131.728 142.953 131.792 142.409 131.792C141.225 131.792 140.441 131.536 140.057 131.024C139.673 130.48 139.481 129.936 139.481 129.392C139.481 128.528 139.689 127.664 140.105 126.8C140.553 125.904 141.129 125.104 141.833 124.4C142.569 123.664 143.385 123.072 144.281 122.624C145.177 122.144 146.105 121.904 147.065 121.904C148.025 121.904 148.649 122.096 148.937 122.48C149.225 122.832 149.369 123.184 149.369 123.536C149.369 124.208 149.129 124.816 148.649 125.36C148.201 125.872 147.625 126.32 146.921 126.704C146.217 127.056 145.433 127.36 144.569 127.616C143.705 127.84 142.889 128.016 142.121 128.144C142.025 128.336 141.945 128.592 141.881 128.912C141.817 129.2 141.785 129.472 141.785 129.728C141.785 130.176 141.929 130.512 142.217 130.736C142.537 130.96 142.921 131.072 143.369 131.072ZM168.765 131.696C168.221 131.696 167.757 131.584 167.373 131.36C166.989 131.104 166.797 130.72 166.797 130.208C166.797 129.6 167.005 128.944 167.421 128.24C167.869 127.504 168.333 126.8 168.813 126.128C169.325 125.456 169.789 124.848 170.205 124.304C170.653 123.728 170.877 123.296 170.877 123.008C170.877 122.816 170.781 122.72 170.589 122.72C170.397 122.72 170.141 122.8 169.821 122.96C169.501 123.12 169.165 123.312 168.813 123.536C168.493 123.76 168.157 124 167.805 124.256C167.485 124.512 167.197 124.752 166.941 124.976C166.429 125.392 165.949 125.808 165.501 126.224C165.053 126.64 164.605 127.072 164.157 127.52C163.709 127.968 163.245 128.464 162.765 129.008C162.317 129.52 161.821 130.08 161.277 130.688C160.829 131.232 160.365 131.504 159.885 131.504H158.637C158.413 131.504 158.301 131.408 158.301 131.216C158.301 131.12 158.349 130.992 158.445 130.832C158.797 130.352 159.101 129.936 159.357 129.584C159.645 129.2 159.901 128.864 160.125 128.576C160.381 128.256 160.605 127.952 160.797 127.664C161.021 127.344 161.261 127.008 161.517 126.656C161.581 126.56 161.709 126.368 161.901 126.08C162.125 125.792 162.333 125.472 162.525 125.12C162.749 124.768 162.941 124.416 163.101 124.064C163.261 123.712 163.341 123.408 163.341 123.152C163.341 122.8 163.149 122.624 162.765 122.624C162.317 122.624 161.741 122.864 161.037 123.344C160.365 123.824 159.629 124.448 158.829 125.216C158.029 125.984 157.197 126.848 156.333 127.808C155.469 128.768 154.637 129.728 153.837 130.688C153.389 131.232 152.925 131.504 152.445 131.504H151.197C150.973 131.504 150.861 131.408 150.861 131.216C150.861 131.12 150.909 130.992 151.005 130.832C151.357 130.352 151.677 129.92 151.965 129.536C152.253 129.152 152.509 128.8 152.733 128.48C152.989 128.16 153.229 127.856 153.453 127.568C153.677 127.248 153.917 126.912 154.173 126.56C154.269 126.432 154.397 126.224 154.557 125.936C154.749 125.648 154.941 125.344 155.133 125.024C155.325 124.704 155.485 124.384 155.613 124.064C155.741 123.712 155.805 123.424 155.805 123.2C155.805 122.848 155.629 122.672 155.277 122.672C154.701 122.672 153.997 123.088 153.165 123.92C152.333 124.72 151.453 125.648 150.525 126.704L150.141 126.512C151.261 125.2 152.317 124.096 153.309 123.2C154.301 122.272 155.293 121.808 156.285 121.808C156.957 121.808 157.437 121.936 157.725 122.192C158.013 122.448 158.157 122.768 158.157 123.152C158.157 123.6 158.045 124.048 157.821 124.496C157.629 124.944 157.421 125.344 157.197 125.696C156.941 126.08 156.765 126.368 156.669 126.56C156.573 126.72 156.349 127.024 155.997 127.472L156.045 127.52C156.653 126.816 157.277 126.128 157.917 125.456C158.557 124.784 159.197 124.176 159.837 123.632C160.509 123.088 161.181 122.656 161.853 122.336C162.525 121.984 163.197 121.808 163.869 121.808C164.477 121.808 164.909 121.936 165.165 122.192C165.453 122.448 165.597 122.8 165.597 123.248C165.597 123.6 165.501 124 165.309 124.448C165.149 124.864 164.941 125.28 164.685 125.696C164.397 126.144 164.109 126.56 163.821 126.944C163.533 127.328 163.213 127.744 162.861 128.192L162.909 128.24C163.517 127.536 164.221 126.816 165.021 126.08C165.821 125.312 166.605 124.624 167.373 124.016C168.173 123.376 168.941 122.864 169.677 122.48C170.413 122.064 171.053 121.856 171.597 121.856C172.653 121.856 173.181 122.272 173.181 123.104C173.181 123.552 173.053 123.984 172.797 124.4C172.541 124.816 172.221 125.296 171.837 125.84C171.549 126.256 171.245 126.672 170.925 127.088C170.605 127.504 170.301 127.92 170.013 128.336C169.757 128.72 169.549 129.088 169.389 129.44C169.229 129.792 169.149 130.08 169.149 130.304C169.149 130.656 169.357 130.832 169.773 130.832C170.605 130.832 171.405 130.48 172.173 129.776C172.941 129.04 173.981 127.904 175.293 126.368L175.629 126.608C175.117 127.216 174.605 127.824 174.093 128.432C173.613 129.04 173.101 129.584 172.557 130.064C172.013 130.544 171.437 130.944 170.829 131.264C170.221 131.552 169.533 131.696 168.765 131.696Z" fill="#112250"></path><path d="M171.81 0.689436C170.115 2.95703 169.204 6.02994 168.78 10.9042C168.61 12.8963 168.399 14.952 168.271 15.4818C167.89 17.4103 167.805 21.6912 168.059 28.939C168.293 36.0385 168.335 37.3524 168.589 40.5101C168.738 42.5657 168.886 43.1168 169.458 43.7737C169.797 44.1764 169.967 44.6426 169.988 45.236C170.009 46.6135 170.136 47.2705 170.454 47.7791C170.645 48.0546 170.73 48.4996 170.666 48.8599C170.539 49.4321 170.56 49.4533 171.154 49.2838C172.319 48.9871 174.036 48.9235 174.269 49.1566C174.714 49.6016 174.057 49.856 172.425 49.8983C170.518 49.9407 170.179 50.1315 171.641 50.3434C172.234 50.4282 172.722 50.5765 172.722 50.6613C172.722 50.9368 171.959 51.1063 171.387 50.9792C171.069 50.8944 170.793 50.9368 170.708 51.0851C170.433 51.5514 170.92 51.6785 172.086 51.4878C173.294 51.297 173.993 51.3818 173.993 51.7421C173.993 51.8481 173.781 51.8904 173.527 51.8269C173.252 51.7845 172.467 51.8481 171.768 51.9964C170.539 52.2507 170.497 52.2719 170.391 52.9924C170.327 53.3951 170.348 54.0097 170.475 54.3488C170.645 54.8998 170.348 70.667 170.073 75.6684C170.03 76.5373 169.924 78.4446 169.84 79.9069L169.691 82.5559L170.92 84.3573C172.489 86.6461 172.701 86.9004 173.188 86.9004C174.205 86.9004 175.583 85.1838 175.922 83.446C176.282 81.6659 176.07 72.9981 175.583 68.908C175.519 68.5053 175.371 66.7464 175.244 64.9874C175.117 63.2284 174.989 61.7449 174.947 61.6602C174.883 61.5966 174.841 59.7952 174.841 57.6548C174.82 55.5355 174.756 53.6494 174.693 53.5011C174.523 53.056 173.209 52.7169 172.171 52.8865C171.408 52.9924 171.238 52.9501 171.238 52.6957C171.238 52.4414 171.599 52.3567 172.976 52.3143L174.714 52.2507L174.777 51.403C174.883 49.6228 174.82 48.6692 174.629 48.4361C174.481 48.2665 174.566 48.1182 174.905 47.9698C175.328 47.7791 175.371 47.6307 175.307 46.232C175.244 45.1936 175.159 44.7274 174.989 44.791C174.82 44.8333 174.756 45.2784 174.799 46.0625L174.883 47.2705L173.591 47.3129C172.87 47.3341 172.001 47.3552 171.641 47.3552L170.984 47.3764L170.92 45.9354C170.878 44.4943 170.878 44.4943 171.493 44.3671C172.298 44.1976 172.446 43.9221 171.768 43.7737C171.471 43.7101 171.005 43.6254 170.708 43.5618C169.267 43.2651 168.95 40.7432 168.695 27.7734C168.504 18.4487 168.61 15.291 169.119 13.3625C169.246 12.9599 169.331 12.0486 169.331 11.3492C169.331 8.57303 170.094 5.39416 171.45 2.51199C172.404 0.477511 172.658 0.392741 172.934 1.96098C173.124 2.95703 173.04 3.25372 172.701 2.7663C172.319 2.23649 172.679 9.29358 173.167 12.1546C173.569 14.5705 173.591 15.291 173.464 23.217C173.167 40.9975 173.23 43.4558 173.845 43.4558C174.057 43.4558 174.078 41.9512 174.036 36.9709C173.972 33.1139 174.015 30.5284 174.142 30.592C174.248 30.6556 174.354 32.3086 174.375 34.2795C174.438 38.3484 174.756 42.8201 175.053 43.5194C175.18 43.8161 175.244 39.8319 175.244 32.6477C175.244 26.4171 175.328 20.6315 175.434 19.8262C175.562 18.9997 175.625 16.4778 175.604 14.2102C175.562 9.82339 175.371 8.36111 174.205 3.52923C173.315 -0.0734933 172.828 -0.666882 171.81 0.689436ZM174.078 7.23791C174.905 11.4552 175.18 14.3798 174.883 15.9904C174.735 16.7321 174.629 17.6858 174.629 18.1096C174.629 18.5547 174.544 18.8514 174.438 18.7878C174.332 18.7242 174.248 17.8341 174.226 16.8169C174.226 15.7785 174.12 14.4645 174.015 13.85C173.887 13.2566 173.697 11.3069 173.569 9.5055C173.421 7.72533 173.252 5.8392 173.146 5.30939C172.955 4.31335 173.082 3.76234 173.379 4.29215C173.485 4.46169 173.781 5.79682 174.078 7.23791ZM174.566 25.4846C174.502 25.633 174.46 25.527 174.46 25.2303C174.46 24.9336 174.502 24.8277 174.566 24.9548C174.608 25.1032 174.608 25.3575 174.566 25.4846ZM173.781 48.542C173.781 48.648 173.315 48.754 172.722 48.754C172.15 48.754 171.662 48.648 171.662 48.542C171.662 48.4149 172.15 48.3301 172.722 48.3301C173.315 48.3301 173.781 48.4149 173.781 48.542ZM174.417 50.5765C174.417 50.7672 174.269 50.8732 174.057 50.8308C173.527 50.7248 173.464 50.2374 173.972 50.2374C174.226 50.2374 174.417 50.3646 174.417 50.5765ZM173.845 53.5011C174.015 53.9249 173.612 54.0309 172.446 53.9037C170.878 53.713 171.259 53.3103 173.061 53.2256C173.464 53.2256 173.781 53.3315 173.845 53.5011ZM174.269 55.0057C174.163 56.9342 174.184 60.537 174.311 62.1476C174.417 63.3979 174.375 64.0125 174.226 64.0125C174.12 64.0125 173.972 63.6946 173.909 63.3132C173.654 61.7661 173.612 61.6178 173.697 62.635C173.739 63.2072 173.845 65.4112 173.93 67.5093C174.057 70.5398 174.12 71.0696 174.226 70.0524C174.311 69.353 174.396 68.1662 174.417 67.4033L174.481 66.0258L174.65 67.3821C174.905 69.353 175.286 76.9399 175.138 77.173C174.926 77.5333 174.438 77.3638 174.332 76.8764C174.29 76.622 174.269 77.5969 174.332 79.0592C174.481 83.3401 173.76 84.8659 172.637 82.6407L172.086 81.5175V73.5703C172.086 65.051 171.916 60.1979 171.62 60.1979C171.535 60.1979 171.429 60.7489 171.429 61.4059L171.387 62.635L171.217 61.3635C171.132 60.6641 170.984 58.8839 170.899 57.4005L170.751 54.709L171.259 54.6031C172.107 54.4123 172.997 54.3064 173.675 54.3488C174.248 54.37 174.311 54.4335 174.269 55.0057ZM171.662 72.8922C171.662 75.1386 171.599 77.0671 171.535 77.173C171.471 77.279 171.281 77.3638 171.09 77.3638C170.814 77.3638 170.772 76.8552 170.857 73.2736C170.92 71.0484 171.026 69.0351 171.132 68.8232C171.535 67.9119 171.683 69.0563 171.662 72.8922ZM175.265 78.2327C175.265 78.3386 175.117 78.4234 174.947 78.4234C174.777 78.4234 174.629 78.2751 174.629 78.1055C174.629 77.9148 174.756 77.8512 174.947 77.9148C175.117 77.9996 175.265 78.1267 175.265 78.2327ZM171.238 81.793C171.238 82.0473 170.814 82.3228 170.666 82.1745C170.518 82.0261 170.793 81.6023 171.048 81.6023C171.154 81.6023 171.238 81.687 171.238 81.793ZM171.662 82.6407C171.662 82.895 171.069 83.1069 170.942 82.895C170.878 82.7891 170.878 82.6619 170.963 82.5771C171.154 82.3864 171.662 82.4288 171.662 82.6407ZM175.35 82.7679C175.222 83.1069 174.841 83.2129 174.841 82.9162C174.841 82.6831 175.074 82.45 175.286 82.45C175.392 82.45 175.413 82.5983 175.35 82.7679ZM175.053 83.6156C175.053 83.7851 174.905 83.9334 174.735 83.9334C174.396 83.9334 174.311 83.6791 174.566 83.446C174.799 83.1917 175.053 83.2765 175.053 83.6156ZM173.866 85.1626C174.057 85.4593 173.612 85.9043 173.273 85.7772C172.785 85.5865 172.849 84.9931 173.336 84.9931C173.569 84.9931 173.803 85.0778 173.866 85.1626Z" fill="#112250"></path><path d="M112.91 4.03779C109.477 4.75833 106.806 5.86034 105.259 7.21665C104.136 8.2127 103.818 8.36105 102.165 8.7849C101.445 8.97563 99.9825 9.56902 98.9652 10.0988C96.5917 11.328 95.2566 12.6843 94.4301 14.74C93.5824 16.8804 93.6036 16.838 92.6499 16.9864C91.675 17.1135 90.3611 17.94 87.818 20.0593C85.6988 21.8183 84.406 23.3441 82.9649 25.7601C81.4179 28.3244 81.1 29.935 81.6934 32.2873C81.7993 32.6688 81.6086 33.0503 80.8881 33.898C79.7437 35.2331 79.5106 36.0384 79.3198 39.4292C79.2139 41.612 79.2351 42.0995 79.5741 42.7988C79.9344 43.6253 79.9344 43.6677 79.5106 44.5578C79.2351 45.13 79.1079 45.681 79.1927 46.0624C79.2563 46.4015 79.1927 46.783 79.0231 46.9737C78.79 47.2704 78.8112 47.3764 79.2351 47.6731C79.9344 48.2029 79.6801 48.9658 78.8112 48.9658C78.0271 48.9658 77.8364 49.3897 78.1542 50.4069C78.3026 50.8519 78.3238 51.2758 78.1966 51.4877C78.0483 51.7632 77.9423 51.6573 77.6668 51.0003C77.1158 49.6652 77.031 47.5883 77.4761 45.9989C77.9211 44.4094 77.9423 43.1167 77.582 41.7604C77.4125 41.1882 77.3489 39.9802 77.3913 38.6875C77.4549 36.9921 77.582 36.3775 77.9635 35.6146C78.5145 34.5761 80.104 32.4357 80.3583 32.4357C80.4218 32.4357 80.4854 31.5032 80.4854 30.3588C80.4854 27.9853 80.8881 26.523 82.2444 23.9799C83.7067 21.2673 85.4656 19.3176 88.2631 17.3467C89.6829 16.3506 92.4804 14.8459 92.9042 14.8459C93.0949 14.8459 93.2433 14.74 93.2433 14.6128C93.2433 14.2102 91.7598 14.6128 90.2975 15.3969C86.822 17.3043 84.1305 19.8686 81.6298 23.7044C79.6165 26.8197 79.3834 27.519 79.5318 29.9138C79.6377 31.6516 79.6165 31.8423 79.1715 32.3933C78.4509 33.2622 77.4125 35.2543 77.031 36.5046C76.5648 38.0941 76.6072 40.9763 77.137 42.6928L77.582 44.0915L77.031 45.5962C76.1622 48.0545 76.3529 51.297 77.4337 52.1659C77.8152 52.4838 77.8364 52.6109 77.6244 53.3315C77.137 55.0057 77.0946 56.0653 77.4549 57.57C77.8575 59.223 78.79 60.8336 79.7013 61.4906C80.2735 61.8932 80.3159 62.0416 80.3159 63.2283C80.3371 66.3436 81.9689 70.2007 84.957 74.2484C86.2286 75.9862 88.8352 78.0207 90.5518 78.6565C91.0181 78.826 91.5055 79.1863 91.6538 79.483C92.3744 80.8817 96.5917 84.2936 99.2831 85.6712C100.3 86.201 101.953 86.7096 102.992 86.8367C104.179 86.9639 106.806 86.5401 108.057 86.0102C109.053 85.5864 109.456 85.7559 109.244 86.4977C109.159 86.7732 109.456 86.9427 110.642 87.3242C111.469 87.5997 112.55 87.8116 113.037 87.8116C114.796 87.8116 117.17 87.4937 117.551 87.2182C118.102 86.8156 117.827 86.6672 116.979 86.9003C115.792 87.2394 111.871 87.4089 111.193 87.1334C110.685 86.9427 110.642 86.8579 110.875 86.4977C111.214 85.9467 110.769 85.4168 109.964 85.4168H109.328L109.667 84.7599C110.579 83.0221 110.155 80.7545 108.926 80.7545C108.142 80.7545 107.654 81.2419 107.654 82.0472C107.654 82.5983 107.527 82.7254 106.679 83.0857C106.149 83.3188 105.683 83.5095 105.641 83.5095C105.598 83.5095 105.62 82.8102 105.662 81.9625C105.81 79.6949 105.789 79.6101 105.408 79.3346C104.221 78.4657 102.547 79.7797 102.886 81.3055C103.394 83.5731 103.84 83.8274 103.84 81.8141C103.84 80.2671 103.967 79.9068 104.581 79.9068C105.026 79.9068 105.047 79.9916 105.005 81.2207C104.984 81.9625 104.899 82.7254 104.814 82.9161C104.73 83.1069 104.751 83.4248 104.857 83.6367C105.281 84.3996 104.602 85.1837 103.755 84.8658C103.564 84.8023 103.352 84.5268 103.289 84.2513C103.183 83.8486 102.992 83.7638 101.784 83.6367C101.021 83.5519 100.067 83.3612 99.6434 83.1704C98.3719 82.6406 96.0831 80.6274 94.7056 78.826C94.0062 77.8935 93.3704 77.173 93.3069 77.2366C93.1373 77.3849 93.6459 78.5717 94.2393 79.5042C94.7056 80.2247 98.1387 83.1704 99.0712 83.6791C99.3255 83.8062 100.258 83.9334 101.169 83.9546C102.632 84.0181 102.801 84.0605 102.716 84.3996C102.589 84.887 103.31 85.4168 104.073 85.4168C104.391 85.4168 104.942 85.1625 105.302 84.8658L105.959 84.3148L106.383 84.8235C106.806 85.3109 106.806 85.3109 107.124 84.887C107.315 84.6539 107.591 84.2936 107.76 84.1029C107.93 83.891 108.142 83.3188 108.205 82.8314C108.481 81.0088 109.35 81.0512 109.35 82.8738C109.35 84.1241 108.799 84.8658 107.23 85.7135C106.192 86.2857 106.001 86.3069 104.285 86.201C101.826 86.0738 100.724 85.6712 98.2235 84.0605C95.0234 81.9837 93.9426 81.1784 92.7347 79.9492C92.1413 79.3346 90.7426 78.2114 89.6194 77.4697C88.5174 76.7279 87.0339 75.52 86.3345 74.7782C84.9358 73.2736 82.9014 70.0311 82.0749 68.0178C81.5662 66.7463 80.9728 64.076 80.9517 62.9316C80.9517 62.635 80.549 61.7661 80.0828 61.0243C78.7688 59.011 78.3874 57.9938 78.3238 56.2984C78.1966 52.6957 79.1927 50.6824 81.6722 49.6016C82.9649 49.0082 83.8974 49.1565 84.6603 50.0678C85.2537 50.7884 85.2961 51.4453 84.7239 51.8056C84.4272 51.9751 84.2153 51.8904 83.6431 51.3394C82.8166 50.5341 82.4139 50.4705 82.4987 51.1274C82.5411 51.5513 82.4351 51.6149 81.651 51.6784C80.9093 51.742 80.6338 51.8904 80.104 52.5261C79.0443 53.7977 78.5781 55.8957 79.0443 57.1461L79.2774 57.7183L79.7437 57.2521C80.0192 57.0189 80.3371 56.807 80.4642 56.807C80.8669 56.807 80.9728 57.4852 80.6338 57.8666C80.4642 58.0574 80.3159 58.566 80.3159 58.9898C80.3159 59.6468 80.4854 59.9435 81.2483 60.6852C82.1172 61.5118 82.202 61.7025 82.3927 63.0588C82.7106 65.3476 83.7914 68.59 84.9146 70.5397C86.716 73.7186 90.4459 76.9399 92.3532 76.9399H93.1373L92.2896 76.4948C90.7214 75.6471 89.5558 74.7358 87.7968 73.0193C86.271 71.5146 85.9107 71.006 84.9994 69.0775C84.4272 67.8695 83.9186 66.6403 83.855 66.3436C83.41 64.1608 82.308 61.0667 81.7782 60.4521C80.9305 59.4773 80.8033 58.8627 81.3543 58.1633C81.6086 57.8455 81.7993 57.464 81.7993 57.3156C81.7993 57.1037 82.0749 57.0189 82.7106 57.0189C84.5968 57.0189 86.0378 56.1924 86.0378 55.1116C86.0378 54.1792 85.4445 53.8189 84.1729 53.9884C83.304 54.0732 82.9861 54.0308 82.6894 53.7765C82.3715 53.4798 82.202 53.4586 81.6298 53.6705C81.1 53.8825 80.9093 53.8825 80.6973 53.6705C80.2099 53.1831 80.7821 52.6745 81.8205 52.6745C82.3292 52.6745 82.9225 52.5897 83.1133 52.4838C83.304 52.399 83.6431 52.4202 83.8974 52.5473C84.5332 52.9076 84.957 52.8228 85.508 52.2506C86.5677 51.2122 85.9107 49.4744 84.1941 48.7115C83.3252 48.33 83.0921 48.3088 82.2444 48.5208C80.8033 48.881 80.6338 48.881 80.6338 48.542C80.6338 47.9698 80.0404 46.3379 79.7013 45.9353C79.4258 45.5962 79.4682 45.4902 80.3159 44.6214L81.2483 43.6677L80.5702 42.9683C79.892 42.269 79.892 42.2478 79.892 40.1286C79.892 37.3947 80.1675 36.1232 81.0152 34.8516C82.5199 32.6052 82.4563 32.8172 82.2232 31.5244C81.4815 27.625 85.614 21.7335 91.5691 18.2155C93.2009 17.2407 93.6883 17.2195 93.8791 18.1308C94.3241 20.2712 96.1255 21.4368 97.397 20.3984C98.3719 19.6142 98.054 18.6606 96.8248 18.6606C96.4857 18.6606 96.2102 18.6394 96.2102 18.597C96.3162 17.8553 97.0579 15.7996 97.2487 15.736C97.3758 15.6936 97.5877 15.948 97.7149 16.3294C97.9056 16.8592 98.054 16.9652 98.4142 16.8804C98.6897 16.8168 99.1348 16.944 99.4951 17.1771C100.894 18.0884 101.784 17.4314 101.169 15.9268C100.767 14.9095 99.7494 14.2102 98.6897 14.2102C98.2659 14.2102 97.8844 14.1254 97.8209 14.0194C97.6089 13.7015 99.6646 12.1333 101.127 11.4763C101.869 11.1373 102.949 10.7982 103.522 10.7134C104.2 10.6074 104.878 10.3319 105.387 9.9081C106.934 8.70013 107.675 8.27628 108.989 7.85243C110.727 7.32262 113.8 6.79281 115.347 6.79281C117.17 6.79281 122.044 7.42858 123.019 7.78885C123.485 7.95839 124.015 8.10674 124.184 8.10674C124.354 8.10674 125.795 8.02197 127.384 7.9372C130.139 7.78885 132.449 8.04316 132.449 8.46701C132.449 8.57297 132.047 8.80609 131.58 9.03921C130.372 9.56902 129.588 10.7558 129.779 11.7942C130.012 12.9386 130.33 13.5108 130.902 13.7651C131.178 13.8923 131.496 13.9982 131.602 13.9982C132.047 13.9982 132.449 13.2777 132.449 12.4936C132.449 11.7095 132.704 11.4128 132.979 11.879C133.043 11.985 133.297 12.0909 133.53 12.0909C133.827 12.0909 133.933 11.9426 133.933 11.5611C133.933 10.9677 134.611 10.1836 135.098 10.1836C135.268 10.1836 135.416 10.3531 135.416 10.5863C135.416 10.7982 135.268 11.0949 135.098 11.2432C134.653 11.6035 134.696 12.0273 135.204 12.1969C135.798 12.3876 135.734 12.6843 135.056 12.981C133.594 13.5956 133.064 14.8036 133.89 15.5453C134.738 16.3082 136.497 15.7148 137.324 14.3797C137.684 13.7863 137.747 13.3837 137.705 11.879L137.663 10.0776L138.659 10.0988C139.909 10.0988 140.185 10.3531 139.846 11.0949C139.506 11.8366 139.888 12.3028 140.82 12.3028C141.604 12.3028 142.304 12.7691 142.685 13.5744C142.855 13.9135 143.618 14.4433 144.847 15.0579C146.754 16.0115 149.191 17.5374 149.191 17.7917C149.191 17.8553 149.509 18.2579 149.891 18.6606C152.752 21.7547 155.825 27.4767 156.503 30.9522C156.566 31.2277 157.075 31.9483 157.647 32.5205C158.643 33.5377 159.364 34.7881 159.364 35.5086C159.364 35.6781 159.152 36.0384 158.898 36.2927C158.325 36.8649 158.622 37.4159 159.512 37.4371C159.851 37.4371 160.233 37.5219 160.381 37.6066C160.678 37.7974 160.72 39.4292 160.423 39.4292C160.317 39.4292 159.766 39.1325 159.215 38.7934C158.41 38.2848 157.986 38.1577 157.033 38.1577C155.782 38.1577 155.422 38.3272 154.829 39.2173C154.447 39.7895 154.362 41.2306 154.701 41.4425C155.083 41.6756 155.761 41.3153 155.761 40.9127C155.761 40.6796 155.952 40.4041 156.164 40.2769C156.715 39.9802 156.757 40.0014 156.884 40.51C156.99 40.9127 157.096 40.9551 157.944 40.8279C158.664 40.7219 158.94 40.7643 159.152 41.0186C159.533 41.4849 158.961 42.0571 158.029 42.1206C157.668 42.1418 156.884 42.2478 156.291 42.3326C155.401 42.4809 155.21 42.5869 155.041 43.0955C154.871 43.5617 154.913 43.7737 155.274 44.2611C155.888 45.0876 157.393 45.1512 159.237 44.4094C159.555 44.2611 159.597 44.3035 159.491 44.6637C159.258 45.3631 159.555 45.7234 160.551 45.9777C161.059 46.1048 161.483 46.2956 161.483 46.3803C161.483 46.8889 160.402 49.093 159.915 49.6228C159.343 50.2374 159.321 50.3009 159.343 52.6321C159.364 54.709 159.279 55.811 158.855 58.9263C158.686 59.9859 157.541 63.08 156.778 64.4151C155.676 66.4072 152.37 70.2854 151.162 71.0272C150.527 71.4298 150.463 71.557 150.569 72.108C150.738 72.8073 150.23 73.761 149.721 73.761C149.552 73.761 149.213 73.9517 148.979 74.1848C148.619 74.5451 148.471 74.5663 148.111 74.3968C147.157 73.867 146.669 75.3292 147.517 76.2193C148.005 76.7491 147.899 77.1518 147.263 77.1518C146.966 77.1518 146.86 77.0034 146.86 76.5584C146.86 75.0113 145.843 73.2736 144.508 72.5742C144.19 72.4259 143.491 72.2775 142.961 72.2775C142.198 72.2775 141.944 72.3835 141.583 72.8285C141.329 73.1464 141.138 73.5703 141.138 73.7822C141.138 74.3544 141.901 74.7782 142.749 74.6723C143.512 74.5663 143.681 74.7994 143.152 75.2445C142.664 75.6471 142.749 75.8379 143.681 76.3041C144.423 76.6856 144.529 76.8339 144.529 77.4909C144.529 78.1902 144.487 78.2326 143.957 78.169C143.491 78.1266 143.342 77.9783 143.258 77.4909C143.194 77.1518 142.982 76.7703 142.77 76.6432C142.452 76.4524 142.304 76.516 141.859 77.0458C141.435 77.5756 141.308 77.6392 141.138 77.3637C141.032 77.1942 140.926 76.7491 140.926 76.3889C140.926 75.4988 140.524 75.1597 139.761 75.4564C138.447 75.965 138.32 77.1518 139.443 78.3174C140.079 78.9743 141.562 79.6313 141.562 79.271C141.562 79.1651 141.096 78.826 140.524 78.5293C139.273 77.8299 138.849 77.173 139.189 76.4101C139.358 76.0498 139.612 75.8802 139.973 75.8802C140.418 75.8802 140.502 75.9862 140.502 76.4524C140.502 77.2578 141.244 78.4233 141.753 78.4233C142.071 78.4233 142.155 78.275 142.113 77.724C142.092 76.8551 142.685 76.7703 142.791 77.6392C142.855 78.0631 143.046 78.2962 143.597 78.5293L144.338 78.826L143.872 79.7373C143.618 80.2459 143.279 80.8181 143.088 81.0088C142.791 81.3691 142.728 81.3479 142.05 80.6485C141.647 80.2459 141.202 79.9068 141.053 79.9068C140.545 79.9068 140.269 80.479 140.397 81.2419C140.524 81.9201 140.481 82.0049 139.74 82.4287C139.125 82.8102 138.744 82.8738 138.087 82.789C137.112 82.6406 136.942 82.7254 134.865 84.2936C131.623 86.7732 128.423 87.7692 123.654 87.8116C121.048 87.8328 120.539 87.7904 119.543 87.3666C118.907 87.1122 118.335 86.9639 118.272 87.0063C117.848 87.4513 121.027 88.5957 122.658 88.5957C126.812 88.5957 134.293 86.0526 136.222 83.9758C137.09 83.0645 137.175 83.0221 137.769 83.234C138.553 83.5307 139.634 83.2552 140.524 82.5135C141.075 82.0261 141.159 81.8565 141.032 81.2419C140.948 80.7121 140.969 80.5426 141.223 80.5426C141.604 80.5426 141.986 81.1784 141.986 81.8141C141.986 82.2592 141.986 82.2592 142.643 81.8777C143.872 81.1572 145.165 78.9743 145.165 77.6392C145.165 76.622 144.974 76.3253 144.211 76.1345C143.491 75.9438 143.236 75.4564 143.851 75.4564C144.55 75.4564 144.805 74.9478 144.338 74.5027C143.893 74.1213 143.321 74.0577 142.367 74.2908C141.816 74.4392 141.774 74.3968 141.774 73.8034C141.774 73.104 142.41 72.4894 143.109 72.4894C143.787 72.4894 145.038 73.316 145.589 74.1213C146.055 74.8206 146.118 75.0961 146.097 76.9187C146.097 78.0419 145.97 79.2922 145.822 79.7373C145.186 81.6234 141.499 83.891 138.765 84.1029C137.451 84.1877 137.26 84.2725 136.243 85.1202C135.649 85.65 133.996 86.646 132.576 87.3454C130.161 88.5321 129.843 88.6381 127.151 89.0408C124.057 89.507 121.578 89.4646 119.649 88.8924C118.865 88.6805 118.187 88.6381 116.788 88.7865C114.203 89.062 111.935 88.7865 109.773 87.9599C108.777 87.5785 107.845 87.1758 107.697 87.0487C107.548 86.9427 107.379 86.9003 107.315 86.9427C107.04 87.2182 109.922 88.85 111.49 89.3163C112.91 89.7401 115.474 89.7401 117.085 89.3163C118.208 89.0408 118.484 89.0196 119.522 89.3163C122.15 90.0156 123.57 90.1216 125.477 89.7825C126.452 89.5918 127.554 89.401 127.893 89.3586C129.186 89.2103 130.245 88.956 131.072 88.5957C133.721 87.4513 136.116 86.1586 136.963 85.4168C137.641 84.8023 138.108 84.5692 138.595 84.5692C139.506 84.5692 142.219 83.6367 143.3 82.9585C144.508 82.1956 145.546 81.1995 146.14 80.2883C146.458 79.7797 146.818 79.483 147.072 79.483C149.085 79.483 152.137 75.8379 152.158 73.4219C152.158 72.6166 152.222 72.5318 153.006 72.1716C154.002 71.7265 155.825 69.904 157.075 68.1662C157.859 67.043 158.304 66.1105 160.106 61.7873C161.038 59.5409 161.949 55.1328 161.992 52.5685C162.034 50.8307 162.119 50.3857 162.627 49.3473C163.687 47.2068 163.602 44.6637 162.394 41.9935C161.949 41.0186 161.928 40.7431 162.098 39.7683C162.31 38.6027 162.161 37.4583 161.589 35.7205C161.144 34.3854 159.978 32.2873 159.279 31.5456C158.876 31.1218 158.728 30.7403 158.728 30.0833C158.728 28.727 158.007 26.5866 156.884 24.6369C154.023 19.699 150.527 15.8208 147.496 14.2102C146.5 13.6804 145.419 13.2141 145.059 13.1505C144.55 13.0658 144.338 12.8327 143.957 12.0697C143.067 10.2048 141.223 8.86967 138.489 8.17032C137.811 8.00078 136.963 7.85243 136.645 7.85243C136.243 7.85243 135.777 7.57693 135.141 6.91996C134.081 5.88153 132.471 5.24576 130.012 4.92787C128.232 4.69475 127.342 4.75833 126.049 5.18218C125.117 5.52126 125.053 5.50007 124.121 4.99145C121.79 3.67751 116.682 3.25366 112.91 4.03779ZM120.666 4.80071C121.599 4.99145 122.913 5.35172 123.57 5.62722C124.608 6.05107 124.926 6.09345 125.71 5.90272C127.851 5.4153 133.043 6.2418 134.717 7.32262C135.353 7.74647 135.204 8.00078 134.145 8.17032C133.488 8.27628 133.17 8.2127 132.704 7.87362C131.517 7.04712 127.406 6.77161 125.138 7.38619C124.672 7.51335 124.269 7.47096 123.654 7.19546C121.599 6.28419 116.491 5.6696 113.694 5.98749C111.109 6.28419 107.336 7.59812 106.361 8.53059C104.708 10.0988 104.518 10.1836 102.928 10.1836C101.466 10.1836 101.296 10.226 99.8129 11.1585C97.1003 12.8115 96.5493 13.5744 96.2102 16.2658C96.0831 17.1771 95.9347 18.1308 95.8923 18.4063C95.8076 18.7665 95.9135 18.9785 96.4222 19.254C97.1639 19.6778 97.2063 19.8474 96.6341 20.0381C95.1506 20.5043 93.985 17.5162 94.7691 15.2486C95.193 13.9771 96.3798 12.3452 97.4182 11.5823C98.5838 10.7346 101.296 9.52663 102.949 9.12398C103.628 8.97563 104.56 8.5094 105.323 7.9372C109.583 4.80071 114.923 3.7199 120.666 4.80071ZM138.68 8.74251C139.146 8.84847 139.718 9.0604 139.951 9.20875C142.876 11.0101 143.321 11.3704 143.766 12.2817C144.148 13.0658 144.36 13.2777 145.165 13.532C145.695 13.7015 146.479 14.083 146.903 14.3585C147.348 14.6128 147.793 14.8459 147.899 14.8459C148.005 14.8459 148.64 15.2698 149.34 15.7784C150.421 16.6049 152.434 18.8937 154.087 21.2037C155.825 23.6196 157.796 27.3495 157.986 28.5151C158.029 28.8542 158.135 29.5111 158.198 29.935C158.262 30.3588 158.643 31.1853 159.025 31.7363C159.978 33.135 160.508 34.1947 161.038 35.7841C161.547 37.3735 161.843 40.1497 161.525 40.3617C161.144 40.5948 160.953 40.0014 161.017 38.7299C161.08 37.755 160.996 37.3947 160.614 36.8649C160.169 36.2291 160.169 36.2291 159.851 36.653C159.576 37.0556 158.94 37.2676 158.94 36.9709C158.94 36.9073 159.131 36.5682 159.364 36.2291C160.021 35.3179 159.639 34.1311 158.198 32.69C157.16 31.6516 157.054 31.4396 156.821 30.1469C156.206 26.6078 153.26 21.4156 149.933 18.0248C148.789 16.838 146.055 15.0791 144.465 14.4645C143.321 14.0406 143.046 13.8287 143.046 13.3837C143.046 12.6419 142.24 12.0909 141.159 12.0909C140.397 12.0909 140.079 12.0062 139.994 11.7306C139.846 11.3704 140.185 11.0313 140.693 11.0313C141.181 11.0313 140.502 10.3743 139.549 9.95048C138.298 9.37829 135.141 9.39948 134.187 9.97168C133.806 10.2048 133.276 10.3955 133 10.3955C132.195 10.3955 131.729 11.0949 131.898 12.0909C132.004 12.7691 131.962 12.981 131.686 13.087C131.199 13.2777 130.818 12.7479 130.669 11.6247C130.521 10.7134 130.563 10.5863 131.157 10.0141C131.792 9.42067 133.276 8.86967 135.204 8.5094C136.2 8.31866 137.302 8.40343 138.68 8.74251ZM137.239 10.7134C137.324 11.0101 137.324 11.7942 137.281 12.4512C137.196 13.4896 137.069 13.7439 136.412 14.3373C135.416 15.2486 134.611 15.4817 134.208 14.9307C133.763 14.3161 133.954 13.9347 134.95 13.4896C135.946 13.0234 136.264 12.3876 135.883 11.5611C135.522 10.777 135.798 10.1836 136.497 10.1836C136.963 10.1836 137.133 10.3108 137.239 10.7134ZM99.3679 15.1426C99.9613 15.4605 100.661 16.3294 100.661 16.7533C100.661 17.1559 99.8129 16.9652 99.3467 16.4354C99.0924 16.1387 98.7321 15.948 98.5626 15.9903C98.3719 16.0539 98.0116 15.8208 97.7361 15.4605L97.2275 14.8459H98.0116C98.4354 14.8459 99.05 14.9943 99.3679 15.1426ZM159.364 39.3868C160.508 39.9378 161.186 40.7431 162.225 42.82C162.988 44.2823 163.009 44.4306 162.924 45.9777C162.861 47.1009 162.649 47.991 162.225 48.9658C161.78 50.0254 161.589 50.8731 161.462 52.5685C161.377 53.7977 161.208 55.1752 161.102 55.6414C160.974 56.1077 160.784 56.9978 160.657 57.6335C160.169 60.0495 158.855 63.9277 157.753 66.2589C157.202 67.4456 154.998 70.1371 153.727 71.1755C152.752 71.9808 151.586 72.553 151.311 72.3835C150.844 72.108 151.162 71.6841 152.497 70.8152C154.15 69.7344 154.744 69.0987 155.803 67.3821C156.969 65.4535 159.088 60.3038 159.449 58.5024C160.275 54.2215 160.381 52.844 160 51.191C159.83 50.4069 159.851 50.3221 160.635 49.4744C161.208 48.8387 161.504 48.2665 161.716 47.4188C162.034 45.9777 161.822 45.6386 160.678 45.5326C160.063 45.4902 159.894 45.3843 159.894 45.0452C159.894 44.6849 160.021 44.6214 160.72 44.6425L161.525 44.6637L161.398 43.7525C161.144 41.7816 159.512 40.1497 158.05 40.3829C157.223 40.4888 157.054 40.3405 157.499 39.8954C157.69 39.7047 157.647 39.6199 157.372 39.514C157.139 39.4292 156.672 39.5987 156.058 40.0438C155.528 40.4041 155.019 40.7007 154.913 40.7007C154.256 40.7007 155.295 38.857 156.015 38.751C156.884 38.6239 158.389 38.8994 159.364 39.3868ZM160.296 42.0359C160.635 42.5657 160 43.477 158.898 44.028C157.435 44.7909 155.761 44.579 155.761 43.6677C155.761 43.3286 155.867 43.265 156.397 43.371C156.778 43.4558 157.033 43.4134 157.033 43.2862C157.033 43.1591 157.456 42.9895 157.986 42.9048C159.004 42.7564 159.576 42.375 159.576 41.824C159.576 41.4425 160 41.5484 160.296 42.0359ZM161.059 43.5617C161.059 43.9856 160.953 44.0915 160.529 44.0915C159.936 44.0915 159.915 44.028 160.211 43.4346C160.529 42.8412 161.059 42.926 161.059 43.5617ZM79.2563 50.2374C79.2563 50.3433 79.1079 50.4493 78.9384 50.4493C78.7688 50.4493 78.6205 50.3433 78.6205 50.2374C78.6205 50.1102 78.7688 50.0254 78.9384 50.0254C79.1079 50.0254 79.2563 50.1102 79.2563 50.2374ZM80.8033 54.158C81.0364 54.3063 81.3331 54.3911 81.4603 54.3487C81.6086 54.2851 81.8629 54.3911 82.0113 54.5818C82.3292 54.9633 84.1305 55.0269 84.512 54.6454C84.8934 54.2639 85.2325 54.8361 84.957 55.3659C84.7027 55.8322 83.1981 56.256 82.308 56.1077C81.9477 56.0441 81.545 56.0653 81.4603 56.1501C81.3543 56.256 80.8669 56.2772 80.3795 56.2136C79.5741 56.1289 79.4682 56.0653 79.4682 55.5991C79.4682 55.048 80.0192 53.8401 80.2735 53.8401C80.3583 53.8401 80.5914 53.9884 80.8033 54.158ZM151.565 74.0365C150.569 76.3041 148.598 78.5293 147.242 78.9743C146.691 79.1439 146.606 79.0167 146.775 78.3386C146.86 77.9571 147.157 77.6604 147.623 77.4697C148.386 77.1518 148.831 76.4948 148.386 76.3465C147.92 76.1981 147.475 75.6259 147.538 75.2869C147.581 75.0537 147.856 74.9266 148.386 74.9266C148.81 74.9054 149.319 74.7358 149.509 74.5451C149.7 74.3332 149.997 74.1848 150.145 74.1848C150.315 74.1848 150.611 73.9305 150.823 73.5915C151.65 72.2987 152.18 72.6166 151.565 74.0365Z" fill="#112250"></path><path d="M68.4698 5.18025C68.2791 5.39217 68.1943 7.95646 68.1731 14.2294C68.1307 22.0918 68.0883 23.0031 67.7917 23.0667C67.5162 23.1091 67.4314 22.8336 67.3254 21.3713C67.2406 20.3964 67.0499 17.6626 66.8804 15.2679C66.6896 12.8731 66.5413 9.60948 66.5413 7.99885C66.5413 5.11667 66.3506 4.43851 65.9055 5.64648C65.7784 5.96437 65.6936 9.63067 65.6936 14.5473C65.6936 21.774 65.6512 22.8972 65.3757 22.8972C65.0154 22.8972 64.8247 22.2402 64.8883 21.3077C64.9095 20.9474 64.8459 19.4852 64.7611 18.0229C64.6552 16.5606 64.5916 13.2546 64.5916 10.6691C64.5916 6.32464 64.4856 5.37098 64.0618 5.81602C63.7439 6.13391 63.32 10.6691 63.2565 14.6321C63.2141 17.0268 63.1081 20.6508 63.0233 22.6852L62.875 26.3939L63.4472 27.4959C63.7439 28.1105 63.9982 28.8946 63.9982 29.2337C63.9982 30.1662 64.3161 30.8655 65.2909 32.0099C66.0327 32.8788 66.181 33.2391 66.3506 34.4894C66.9228 38.5584 66.7532 42.7969 65.9479 43.7294C65.6724 44.026 65.6724 44.2168 65.8843 44.8949C66.1174 45.5731 66.1174 45.8274 65.8631 46.336C65.2274 47.6076 64.9731 49.3242 65.2274 50.4686C65.5664 51.8885 65.5453 52.4607 65.1638 52.7785C64.9307 52.9693 64.9095 53.1388 65.079 53.4567C65.5029 54.2408 64.9519 62.3999 64.2313 66.2358C63.9558 67.698 64.083 69.4358 64.634 72.0849L65.1214 74.3525L64.3585 76.2174C62.5147 80.7738 62.769 82.9142 65.3969 85.5421C66.732 86.856 67.7493 87.2799 68.6817 86.8772C69.7626 86.4322 71.5427 84.1222 72.0513 82.5328L72.4752 81.1129L71.7123 78.5698C70.9705 76.0903 70.9493 75.9419 71.0765 73.5683C71.1401 72.212 71.2672 70.5166 71.3308 69.7961C71.4156 68.9484 71.3308 67.9523 71.1189 67.0411C70.695 65.1337 70.3771 62.0396 70.1652 57.8223C69.9957 54.5587 70.0169 54.3256 70.4195 53.5839C70.7798 52.9057 70.8222 52.6938 70.6103 52.2487C70.4195 51.8249 70.3983 51.3798 70.5891 50.3626C70.801 49.2394 70.7798 48.9427 70.5043 48.4129C69.6778 46.8658 69.5294 46.3784 69.5506 45.0009C69.5506 44.1956 69.4235 42.6061 69.2539 41.4406C69.0632 40.169 68.936 38.0498 68.9572 36.1213L68.9784 32.9212L69.9957 31.4165C70.5467 30.5688 70.9917 29.6576 70.9917 29.382C70.9917 29.1065 71.3096 28.2165 71.6699 27.4323C72.348 26.0124 72.3692 25.8853 72.3692 23.1091C72.3692 21.5408 72.1997 18.6163 72.009 16.6454C71.797 14.6533 71.6275 11.8983 71.6063 10.4996C71.5851 9.10086 71.5003 7.38427 71.4156 6.68492L71.2672 5.41337L71.2036 7.21473C71.1824 8.40151 71.0977 8.82535 71.0129 8.48627C70.7586 7.68096 70.5255 13.8904 70.6103 18.701C70.6526 21.7951 70.6103 22.9395 70.4195 23.1303C70.2712 23.2786 70.1016 23.3422 70.0169 23.2786C69.8049 23.0455 69.3175 19.3368 69.1056 16.2215L68.9149 13.2546L68.9784 17.599C69.0844 23.321 69.2539 24.1263 70.2924 23.9144C70.8222 23.8084 70.9705 22.7912 71.0129 18.5527C71.0341 14.95 71.2248 14.9288 71.4791 18.4467C71.5427 19.2097 71.6911 20.8203 71.8182 22.0283C72.1573 25.1436 71.6699 27.39 70.5467 28.0045C70.1864 28.1953 70.1228 28.3648 70.2288 28.8734C70.3136 29.3397 70.1652 29.8271 69.5718 30.9291L68.7877 32.3702H67.5797C66.2446 32.3914 66.0327 32.2218 65.0578 30.3145L64.5916 29.382L65.0154 29.0218L65.4605 28.6827L64.9307 28.1741C63.7227 27.0509 63.7015 26.9025 63.7227 17.9169C63.7227 8.23197 64.0618 5.75245 64.2949 13.5301C64.3797 16.2427 64.4009 18.5315 64.3373 18.6163C64.2737 18.7222 64.3373 19.7819 64.4856 21.011C64.7399 23.1515 64.7611 23.215 65.2697 23.215C65.9691 23.215 66.0539 22.7488 66.1174 18.9765L66.181 16.0096L66.4565 19.2944C66.7744 22.8124 67.0075 23.7449 67.6009 23.7449C68.5334 23.7449 68.5546 23.4905 68.4698 15.0771C68.4486 10.6903 68.4698 7.17234 68.5334 7.23592C68.6182 7.2995 68.7453 8.25316 68.8513 9.35517L69.0208 11.3473L69.0632 8.23197C69.0844 5.20144 68.9572 4.58686 68.4698 5.18025ZM66.3294 10.8386C66.3294 13.8904 66.2658 15.4586 66.1174 15.3738C65.8208 15.2043 65.8208 6.1551 66.1174 6.1551C66.2446 6.1551 66.3294 7.8505 66.3294 10.8386ZM68.2155 34.2351C67.94 35.6126 68.1307 38.6432 68.6605 41.1439C69.2115 43.7294 69.2115 43.9413 68.6182 43.7505C68.3427 43.6658 67.834 43.6234 67.4526 43.6446C67.0923 43.6658 66.732 43.6022 66.6896 43.5174C66.6473 43.4115 66.7744 42.0128 66.9863 40.3809C67.4526 36.7782 67.4738 35.5914 67.0923 34.3411L66.8168 33.3874L67.4738 33.1543C67.834 33.0272 68.1943 32.9636 68.2791 33.0483C68.3638 33.1119 68.3215 33.6417 68.2155 34.2351ZM68.3003 44.5559C68.385 44.7678 68.4486 44.7678 68.6817 44.5559C69.0844 44.1744 69.3599 44.238 69.1904 44.6618C69.0844 44.8737 68.9572 45.4671 68.8937 45.9969L68.7665 46.9506L67.6221 47.0142C66.9863 47.0566 66.3929 46.993 66.3082 46.9082C66.2022 46.8023 66.2658 46.3148 66.4141 45.8062C66.5837 45.234 66.7532 44.9585 66.838 45.1069C67.0499 45.4671 67.389 45.2128 67.389 44.7042C67.389 44.2592 68.1307 44.132 68.3003 44.5559ZM68.4062 47.4804C68.6817 47.4804 69.1904 47.7771 69.5506 48.1162C70.1864 48.752 70.1864 48.7944 70.0592 50.299C69.9745 51.1467 69.9109 52.0792 69.9109 52.3971C69.9109 53.054 69.5082 53.1812 69.0844 52.6726C68.8937 52.4395 68.8725 52.0156 69.042 50.9348C69.2963 49.1334 69.1268 48.752 68.0672 48.752C66.6685 48.752 66.2446 49.4301 66.4565 51.2951C66.5625 52.1851 66.5201 52.6514 66.3294 52.8845C65.8843 53.4143 65.7784 53.2448 65.7572 51.9732C65.7572 51.3163 65.6724 50.299 65.5876 49.7268C65.4181 48.7096 65.4393 48.6672 66.2234 47.9678C66.7956 47.4592 67.1771 47.2685 67.4738 47.3533C67.7281 47.4168 68.1307 47.4804 68.4062 47.4804ZM68.5758 50.7653C68.6182 52.9269 68.6182 52.9269 69.1268 53.3931C69.5506 53.7958 69.5718 54.0501 69.6354 57.4833C69.6566 59.8568 69.8473 62.2304 70.1228 64.1801C70.3771 65.8543 70.5255 67.2954 70.4619 67.4013C70.3559 67.5921 69.7202 67.7192 69.7202 67.5497C69.7202 67.5285 69.6142 66.9351 69.5082 66.2358C69.1904 64.3708 68.9572 61.7641 68.7453 57.6952C68.6605 56.0846 68.7029 55.2157 68.8513 55.0249C69.1268 54.7071 68.9572 54.0501 68.597 54.0501C68.4698 54.0501 68.1943 54.2196 67.9824 54.4104C67.6009 54.7494 67.5373 54.7494 66.9651 54.3892C66.2658 53.9865 66.2234 54.0077 66.5625 54.7706C66.7108 55.0885 67.0499 55.364 67.4102 55.4276C68.1307 55.5971 68.1731 55.7243 68.3215 58.3945C68.6182 63.1628 68.9149 66.1086 69.2115 67.1046C69.487 68.1219 69.4659 68.2702 69.0632 69.1815C68.7453 69.9232 68.6605 70.4954 68.7029 71.5763L68.7665 73.0173L69.0208 71.3643C69.2751 69.9021 69.6354 68.8636 69.9321 68.8848C69.9957 68.8848 70.1864 69.012 70.3983 69.1603C70.7162 69.4146 70.695 69.5842 70.25 71.4279C69.8897 72.9538 69.6778 73.4624 69.4023 73.5048C69.1904 73.5472 68.9572 73.4624 68.8513 73.2928C68.7029 73.0597 68.6605 73.0809 68.6605 73.314C68.6605 73.4836 68.4486 73.8439 68.2155 74.0982C67.7917 74.5432 67.7281 74.5644 67.2618 74.2677C67.0075 74.077 66.5625 73.971 66.3082 74.0134C65.8843 74.077 65.7996 73.9074 65.3333 72.0637C64.7399 69.6901 64.7611 69.012 65.3969 68.9272C65.7784 68.8636 65.9267 69.0332 66.2022 69.8597C66.3929 70.4107 66.5413 71.2372 66.5413 71.6822C66.5413 72.6571 66.944 72.763 67.0075 71.7882C67.0711 70.6226 66.9651 69.8597 66.6261 69.012C66.3929 68.3974 66.3506 67.8676 66.4565 67.1046C66.5413 66.5113 66.6473 65.8331 66.6685 65.6C66.7956 64.6675 66.732 58.7336 66.5837 57.4409C66.4777 56.5296 66.4353 57.6952 66.4353 60.9376C66.4353 65.8967 66.2234 67.6133 65.6088 67.6133C65.0366 67.6133 64.8035 67.0623 65.0366 66.1934C65.2486 65.4304 65.7572 55.5336 65.63 54.6011C65.6088 54.3468 65.8208 54.0713 66.2234 53.8382C67.1135 53.3507 67.3678 52.2699 66.8804 50.9772C66.4565 49.9176 66.6049 49.4937 67.4526 49.3242C68.491 49.1122 68.5546 49.2182 68.5758 50.7653ZM70.0169 74.522C70.0804 74.7127 70.144 75.073 70.144 75.3273C70.144 75.5816 70.25 75.8995 70.3771 76.0267C70.7586 76.4081 71.6275 79.9685 71.6275 81.1553C71.6275 81.8758 71.4791 82.6387 71.2036 83.1685C70.801 84.0374 69.4023 85.6269 69.0632 85.6269C68.8301 85.6269 68.4486 84.9063 68.4486 84.4401C68.4486 83.9739 69.0632 83.2957 69.487 83.2957C69.7414 83.2957 69.7414 83.3593 69.5506 83.55C69.4023 83.6983 69.2963 83.995 69.2963 84.2282C69.2963 84.5884 69.3811 84.546 69.7626 83.9739C70.144 83.3593 70.1652 83.1897 69.9321 82.7659C69.699 82.342 69.7202 82.1937 70.1228 81.6427C70.6103 80.9645 70.7162 79.7142 70.3559 79.036C69.9533 78.3155 69.7202 78.6122 69.7202 79.8413C69.7202 80.7314 69.593 81.2612 69.1904 81.9394C68.7453 82.7023 68.5546 82.8295 67.8128 82.9142C67.0499 82.9778 66.9228 82.9142 66.2234 82.0877C65.3545 81.0493 65.1214 80.2016 65.4393 79.2691C65.7572 78.3578 65.3333 78.4426 64.9307 79.3751C64.4856 80.4559 64.5704 80.9221 65.2697 81.6427C65.8631 82.2361 65.9055 82.3208 65.5876 82.6599C65.1426 83.1473 65.185 83.2533 65.7572 83.1473C66.0963 83.0838 66.3294 83.2109 66.6049 83.7195C67.0287 84.4401 66.944 85.4149 66.4777 85.4149C66.0963 85.4149 65.2274 84.4401 64.5068 83.1897C63.977 82.2785 63.8922 81.9394 63.9346 80.6466C64.0194 77.7221 65.185 75.6876 66.4353 76.2598C67.0923 76.5565 67.0711 77.2135 66.4353 77.3194C65.6512 77.4466 64.8671 77.828 64.7399 78.1459C64.634 78.4426 64.6764 78.4426 64.9731 78.1883C65.3757 77.8704 67.6221 77.8916 68.2579 78.2307C68.597 78.4002 68.7453 78.3155 69.1056 77.6797C69.3599 77.277 69.6778 76.938 69.8473 76.938C70.0169 76.938 70.144 76.832 70.144 76.726C70.144 76.4081 69.4447 76.4717 68.9149 76.8532C68.4698 77.1499 68.4486 77.1499 68.4486 76.7472C68.4486 76.4929 68.5334 76.3022 68.6394 76.3022C68.7453 76.3022 69.1056 76.1962 69.4447 76.0479L70.0381 75.8148L69.2963 75.6876C68.7877 75.6028 68.5334 75.4333 68.491 75.1578C68.3427 74.3949 69.7414 73.8015 70.0169 74.522ZM66.8804 75.179C67.0287 75.4969 67.1771 75.5816 67.3254 75.4333C67.4738 75.2849 67.6221 75.3273 67.8128 75.5604C68.2791 76.1114 67.7493 76.4505 67.0923 76.0055C66.7956 75.8148 66.2658 75.6664 65.9055 75.6664C65.185 75.6664 65.1002 75.4333 65.6088 74.9247C66.0539 74.4796 66.5837 74.5856 66.8804 75.179ZM68.1943 84.3553C68.2367 84.758 68.3638 85.2242 68.491 85.3514C68.8937 85.8388 68.5122 86.305 67.7705 86.2203C67.0075 86.1567 66.9863 86.0931 67.3042 84.2917C67.4738 83.2321 68.0883 83.2745 68.1943 84.3553Z" fill="#112250"></path><path d="M68.6531 79.8846C68.6531 80.4568 68.5896 81.1138 68.526 81.3257C68.4412 81.6224 68.5048 81.6012 68.8439 81.1985C69.2889 80.7111 69.4161 79.8422 69.1618 79.1853C68.9075 78.5071 68.6531 78.8674 68.6531 79.8846Z" fill="#112250"></path><path d="M66.1348 79.9278C66.1136 80.3305 66.262 80.8603 66.4315 81.0934C66.813 81.5808 66.813 81.5596 66.4315 80.2245C66.156 79.2073 66.1348 79.1861 66.1348 79.9278Z" fill="#112250"></path><path d="M117.722 18.5975C114.437 18.7459 109.075 20.1022 108.058 21.0558C107.804 21.289 106.532 22.0519 105.239 22.7512C102.887 24.0016 100.429 25.6546 98.8605 27.0321C98.3943 27.4348 97.9492 27.7739 97.8645 27.7739C97.8009 27.7739 97.377 28.2825 96.932 28.8759C96.487 29.4905 95.7664 30.4017 95.3426 30.8892C94.8975 31.3766 94.0922 32.6481 93.5412 33.7501C90.4259 39.9595 89.5358 46.9742 90.9981 53.8406C91.8246 57.8036 93.9227 62.699 96.3386 66.3441C97.3982 67.976 100.259 70.7946 102.039 72.0025C104.646 73.7403 108.334 75.3933 111.364 76.1775C114.14 76.8768 124.037 77.1947 126.178 76.6437C127.492 76.3046 133.976 73.1893 135.418 72.2145C135.947 71.8542 137.664 70.3071 139.232 68.7813C140.8 67.2554 142.729 65.5388 143.513 64.9878C144.679 64.1825 145.039 63.7799 145.505 62.7838C145.802 62.1268 146.459 60.707 146.967 59.6685C148.451 56.5956 148.557 56.2565 149.235 52.2512C149.807 48.7756 149.871 48.161 149.744 45.2576C149.595 41.4218 149.108 39.0906 148.091 37.4164C147.879 37.0562 147.709 36.6747 147.709 36.5263C147.709 35.9542 144.34 30.9739 143.153 29.7871C142.453 29.0878 141.351 27.9222 140.737 27.1805C138.766 24.8705 136.244 23.3023 129.632 20.2717C127.195 19.1697 121.812 18.4068 117.722 18.5975ZM124.694 19.2969C126.093 19.53 131.094 21.4797 133.51 22.7512C134.379 23.2175 135.672 24.0228 136.371 24.5314C137.071 25.0612 138.151 25.7182 138.745 25.9937C139.571 26.3752 140.101 26.8202 140.758 27.7315C141.245 28.3884 142.178 29.5752 142.835 30.3381C144.255 32.0335 146.289 35.4455 147.455 38.0522C149.002 41.5066 149.426 45.4484 148.769 50.4498C148.027 56.2353 147.815 56.9559 145.717 60.7281C144.53 62.8474 144.128 63.356 141.139 66.3441C138.533 68.9508 137.473 69.8409 136.053 70.6886C135.057 71.2608 133.87 72.0661 133.404 72.49C132.027 73.7191 131.9 73.7827 129.865 74.3337C128.784 74.6304 127.237 75.0543 126.411 75.2662C125.605 75.4993 123.974 75.7748 122.808 75.9019C121.642 76.0079 120.159 76.1563 119.523 76.2198C118.358 76.347 117.743 76.241 111.364 74.9271C106.49 73.9311 106.193 73.8039 103.099 71.3032C99.8354 68.6965 97.3135 66.0898 96.5293 64.5428C96.1903 63.8646 95.4697 62.5719 94.9399 61.6818C94.4101 60.8129 93.8591 59.6685 93.6895 59.1387C93.5412 58.6089 93.2233 57.7824 93.0114 57.3162C92.2697 55.7267 91.761 53.1836 91.4431 49.5173C91.0193 44.7914 91.0405 43.7106 91.5703 41.1039C92.0577 38.6244 93.3929 35.0429 94.1982 34.0892C94.4737 33.7501 94.8975 33.072 95.1094 32.5846C95.3426 32.0971 95.8936 31.207 96.381 30.6137C97.6313 29.0242 103.12 24.4043 104.71 23.5566C105.451 23.1751 106.681 22.4334 107.443 21.9459C108.8 21.0558 109.118 20.9499 113.314 20.0598C114.84 19.7207 115.56 19.5936 117.51 19.2969C119.078 19.0638 123.253 19.0638 124.694 19.2969Z" fill="#112250"></path><path d="M115.538 20.6947C114.563 20.949 113.164 21.5424 113.164 21.6908C113.164 21.8179 116.724 21.4153 118.377 21.0974C120.285 20.7371 123.421 20.6947 124.714 20.9914C125.456 21.161 125.519 21.1398 125.18 20.8855C124.65 20.504 123.379 20.3768 119.734 20.398C117.826 20.398 116.237 20.504 115.538 20.6947Z" fill="#112250"></path><path d="M108.737 22.6016C107.275 22.983 105.473 24.085 104.265 25.3142C103.757 25.844 103.396 26.2891 103.481 26.2891C103.566 26.2891 104.18 25.8864 104.88 25.3778C105.622 24.8268 106.999 24.1274 108.313 23.64C109.521 23.195 110.708 22.7075 110.941 22.538C111.322 22.2837 111.301 22.2625 110.623 22.2837C110.22 22.2837 109.373 22.432 108.737 22.6016Z" fill="#112250"></path><path d="M135.438 26.0136C135.481 26.1408 136.477 26.9885 137.642 27.921C140.079 29.8495 140.609 30.4217 141.817 32.4985C142.305 33.3462 142.813 34.1727 142.962 34.3423C143.894 35.5079 146.035 40.2762 146.84 43.0312C147.009 43.6034 146.819 47.1425 146.437 50.4485C145.589 57.9083 145.526 58.1838 144.593 59.858C144.021 60.8964 144.763 60.409 145.462 59.2858C146.14 58.1838 146.289 57.6328 146.861 53.7334C147.094 52.2075 147.37 50.385 147.497 49.6856C147.603 48.9651 147.709 47.2909 147.709 45.9769C147.709 43.9213 147.645 43.4762 147.285 42.9252C147.052 42.565 146.437 40.9543 145.907 39.3225C145.017 36.5039 143.682 33.6005 142.05 30.9091C141.287 29.6375 139.211 27.8998 136.879 26.607C135.417 25.8017 135.354 25.7593 135.438 26.0136Z" fill="#112250"></path><path d="M94.6923 35.6557C94.2685 36.3974 93.6539 37.7538 93.336 38.6862C92.8062 40.2757 92.7638 40.6571 92.7002 44.6201C92.679 46.9513 92.5731 49.3037 92.4883 49.8759C92.3188 51.0626 92.6578 52.97 93.3784 54.8561C93.6539 55.5766 93.887 56.3396 93.887 56.5515C93.887 56.9541 95.9003 60.4297 97.8076 63.3755C99.9904 66.7239 104.081 70.0299 108.404 71.9584C111.837 73.4843 114.868 74.4591 114.868 74.0353C114.868 73.9293 114.507 73.7598 114.062 73.6114C113.617 73.4631 112.621 73.0604 111.858 72.7213C111.074 72.3611 110.396 72.0644 110.311 72.0644C109.972 72.0644 107.344 70.7504 106.433 70.1147C104.504 68.8007 100.287 65.3252 99.0156 64.0112C97.1506 62.0615 94.7983 57.9502 94.5864 56.2336C94.5016 55.4919 93.7175 52.4401 93.2512 50.9567C92.9122 49.9182 92.9969 43.9208 93.3784 41.7168C93.5691 40.5936 94.0989 38.7286 94.6287 37.4147C95.7731 34.4901 95.8155 34.3418 95.6248 34.3418C95.54 34.3418 95.1162 34.9352 94.6923 35.6557Z" fill="#112250"></path><path d="M121.304 40.679C120.096 42.0777 119.948 42.1836 119.206 42.1836C118.422 42.1836 118.337 42.0777 118.677 41.5479C118.867 41.2724 118.91 41.2724 119.1 41.5479C119.355 41.9717 119.842 41.5055 119.651 41.0181C119.461 40.5094 118.825 40.7214 118.507 41.4207L118.21 42.0141L117.617 41.4419C116.854 40.7214 116.345 40.8485 116.345 41.781C116.345 42.9466 115.9 43.879 115.349 43.879C114.332 43.879 113.717 45.0658 114.247 46.0195C114.417 46.3586 114.374 46.5069 113.972 46.846L113.484 47.2274L113.929 47.7361C114.184 47.9904 114.417 48.3718 114.48 48.5414C114.544 48.7109 115.031 48.9864 115.54 49.1136C117.447 49.6222 118.104 50.8726 116.261 50.4487C115.307 50.2368 114.756 50.4487 114.544 51.0845C114.332 51.7203 114.629 51.9958 115.349 51.8474C115.837 51.7414 116.112 51.8262 116.43 52.1441C116.875 52.5468 116.896 52.5468 117.998 52.0169C118.592 51.7203 119.1 51.4024 119.1 51.2964C119.1 50.9149 119.715 51.0633 119.948 51.4871C120.075 51.7414 120.096 52.2501 119.969 52.9282C119.736 54.0938 119.821 54.3057 120.266 53.7123C120.584 53.2885 120.647 52.8646 120.584 51.8474C120.541 51.0845 120.965 50.7878 121.474 51.2328C121.686 51.4236 121.855 51.6779 121.855 51.8262C121.855 52.2924 122.83 52.9918 123.508 52.9918C124.187 52.9918 125.034 52.3136 125.034 51.7838C125.034 51.6143 124.716 51.36 124.314 51.1904C123.021 50.6394 123.063 49.7282 124.377 49.9401C125.204 50.0672 126.094 49.7705 126.094 49.3467C126.094 48.944 123.72 49.3891 123.085 49.9189C122.555 50.3639 122.534 50.4063 122.915 50.5123C123.191 50.5759 123.339 50.809 123.339 51.1692C123.339 51.4659 123.508 51.7838 123.72 51.911C123.996 52.0593 124.017 52.1865 123.847 52.356C123.402 52.8011 122.618 52.5044 122.237 51.7626C121.771 50.809 121.728 50.7878 120.838 50.7242C120.414 50.703 119.779 50.6394 119.418 50.6182C118.888 50.5547 118.761 50.6394 118.719 51.0421C118.655 51.4447 118.549 51.5295 118.189 51.4236C117.956 51.36 117.617 51.4236 117.469 51.5507C117.151 51.805 116.133 51.6143 116.133 51.2964C116.133 51.1692 116.43 51.0845 116.79 51.0845C117.235 51.0845 117.469 50.9573 117.532 50.703C117.596 50.5123 118.062 50.152 118.592 49.9401C119.439 49.601 119.673 49.5798 120.372 49.8129C120.944 50.0037 121.283 50.0249 121.474 49.8765C121.622 49.7494 122.11 49.5374 122.555 49.3891C123 49.2619 123.508 48.9017 123.699 48.6262C124.081 48.0328 124.759 47.9692 125.161 48.4778C125.416 48.8381 125.458 48.8381 125.797 48.499C126.285 48.0328 126.009 47.6937 125.119 47.6937C124.271 47.6937 124.187 47.3546 124.949 47.0155C125.373 46.8036 125.606 46.8248 126.157 47.1003C127.302 47.6725 127.514 47.6937 128.001 47.1639L128.467 46.6764L128.001 46.4221C127.747 46.2738 127.281 46.2102 126.963 46.2738C126.666 46.3374 125.988 46.4857 125.458 46.6129C124.928 46.7188 124.483 46.7824 124.441 46.74C124.25 46.5493 124.886 45.7864 125.246 45.7864C125.776 45.7864 126.454 44.7903 126.157 44.4936C125.882 44.2181 124.504 44.9599 124.504 45.3625C124.504 45.5109 124.377 45.6804 124.208 45.744C123.996 45.8076 123.975 45.6804 124.081 45.1294C124.165 44.7479 124.335 44.2605 124.462 44.0698C124.716 43.6459 126.263 42.989 126.56 43.1585C126.878 43.3492 127.577 42.5863 127.577 42.0565C127.577 41.4207 127.408 41.3359 126.518 41.5267C125.903 41.6326 125.755 41.781 125.712 42.2472C125.67 42.5863 125.416 42.9678 125.119 43.1797C124.462 43.6035 124.271 43.434 124.695 42.7558C125.013 42.2896 125.013 42.2048 124.716 41.9717C124.547 41.8234 124.398 41.7386 124.377 41.781C124.377 41.8234 124.335 42.0777 124.314 42.3532C124.229 43.0101 123.763 43.4764 123.593 43.0313C123.53 42.8618 123.233 42.4803 122.915 42.1836C122.385 41.6962 122.364 41.6114 122.64 41.1876C122.809 40.9333 122.894 40.6154 122.809 40.4882C122.597 40.128 121.665 40.2551 121.304 40.679ZM121.347 41.6962C121.135 41.9081 120.944 41.5903 121.135 41.3148C121.262 41.0816 121.304 41.0816 121.389 41.3148C121.432 41.4631 121.41 41.6326 121.347 41.6962ZM117.299 42.1836C117.172 42.3744 117.108 42.3744 116.96 42.1625C116.748 41.8022 116.96 41.4419 117.235 41.7174C117.363 41.8446 117.384 42.0565 117.299 42.1836ZM126.814 42.2896C126.73 42.4591 126.603 42.6075 126.497 42.6075C126.391 42.6075 126.306 42.4591 126.306 42.2896C126.306 42.1201 126.454 41.9717 126.624 41.9717C126.814 41.9717 126.878 42.0989 126.814 42.2896ZM121.008 42.4803C121.008 42.5227 121.071 42.7346 121.156 42.9466C121.262 43.2433 121.198 43.2857 120.732 43.1585C119.736 42.9254 118.104 43.4128 117.532 44.1333C117.002 44.8115 117.024 45.193 117.575 45.8499C117.871 46.1678 117.85 46.2526 117.469 46.6976C117.235 46.9519 117.087 47.291 117.129 47.4182C117.257 47.7785 117.066 47.7573 116.451 47.3546C115.816 46.9308 115.752 46.4221 116.345 46.5705C116.854 46.6976 116.918 46.295 116.43 45.7652C116.218 45.5321 116.155 45.2777 116.282 45.1082C116.367 44.9599 116.451 44.5148 116.451 44.1122C116.451 43.5188 116.578 43.328 117.172 42.989C117.617 42.7346 118.126 42.6075 118.465 42.6711C118.761 42.7346 119.143 42.7135 119.312 42.5863C119.63 42.3956 121.008 42.3108 121.008 42.4803ZM122.915 42.883C122.915 43.1373 123.106 43.5188 123.339 43.7307C124.059 44.3241 123.869 44.981 122.64 46.1466C121.58 47.1639 121.516 47.1851 121.05 46.8884C120.457 46.5069 120.139 46.74 120.711 47.1427C121.092 47.4394 121.092 47.4606 120.499 48.0963C120.075 48.5414 119.673 48.7533 119.228 48.7533C118.507 48.7533 117.617 48.0328 117.617 47.4606C117.617 46.9943 118.401 46.4221 118.994 46.4221C119.439 46.4221 119.948 46.0619 119.948 45.744C119.948 45.6592 119.757 45.5744 119.524 45.5744C119.291 45.5744 119.1 45.4685 119.1 45.3625C119.1 45.0234 120.096 45.1082 120.478 45.4897C120.732 45.7652 120.881 45.7864 121.114 45.5744C121.283 45.4261 121.432 45.1294 121.432 44.9175C121.432 44.6844 121.538 44.5148 121.665 44.5148C121.813 44.5148 121.855 44.7267 121.813 45.0446C121.749 45.3413 121.792 45.5744 121.877 45.5744C121.983 45.5744 122.067 45.4685 122.067 45.3625C122.067 45.2354 122.152 45.1506 122.279 45.1506C122.385 45.1506 122.406 45.2989 122.343 45.5109C122.258 45.744 122.279 45.8076 122.449 45.7016C122.788 45.4897 122.745 44.3029 122.385 43.6671C121.94 42.9042 121.983 42.3956 122.491 42.3956C122.788 42.3956 122.915 42.5439 122.915 42.883ZM120.796 43.985C120.944 44.1545 120.987 44.3029 120.881 44.3241C120.775 44.3241 120.181 44.3665 119.545 44.4089C118.253 44.4936 118.295 44.4724 118.189 45.1718C118.083 45.8076 117.744 45.8499 117.659 45.2142C117.532 44.3453 117.956 43.9002 119.058 43.8155C119.609 43.7731 120.16 43.7307 120.287 43.7095C120.414 43.6883 120.647 43.8155 120.796 43.985ZM115.858 45.0658C115.794 45.4897 115.667 45.8923 115.604 45.9559C115.455 46.1042 114.65 45.3625 114.65 45.0446C114.65 44.6844 115.116 44.3029 115.561 44.3029C115.922 44.3029 115.964 44.4089 115.858 45.0658ZM125.458 45.1506C125.458 45.2565 125.352 45.3625 125.225 45.3625C125.119 45.3625 125.077 45.2565 125.14 45.1506C125.204 45.0234 125.31 44.9387 125.373 44.9387C125.416 44.9387 125.458 45.0234 125.458 45.1506ZM123.551 46.74C123.551 47.0155 123.657 47.3122 123.784 47.3758C123.911 47.4818 123.869 47.6301 123.614 47.7996C123.402 47.948 123.169 48.0328 123.085 47.9904C122.979 47.9268 122.915 48.0751 122.915 48.3083C122.915 48.8381 122.3 49.1983 121.834 48.944C121.559 48.8169 121.453 48.8593 121.368 49.1772C121.304 49.4315 121.071 49.601 120.817 49.601C120.308 49.601 120.287 49.4527 120.584 48.6473C120.775 48.1599 120.881 48.0963 121.432 48.2235C122.279 48.4142 122.703 48.054 122.703 47.1851C122.703 46.4857 123.063 45.9347 123.381 46.1254C123.466 46.189 123.551 46.4645 123.551 46.74ZM127.535 46.7824C127.577 46.9519 127.429 47.0579 127.175 47.0579C126.92 47.0579 126.73 46.9308 126.73 46.7188C126.73 46.3374 127.387 46.4009 127.535 46.7824ZM115.031 47.3334C115.116 47.7149 114.735 47.7996 114.247 47.503C114.099 47.397 114.035 47.2063 114.12 47.0791C114.332 46.7188 114.947 46.8884 115.031 47.3334ZM122.067 47.4818C122.067 47.5877 121.961 47.6937 121.834 47.6937C121.728 47.6937 121.686 47.5877 121.749 47.4818C121.813 47.3546 121.919 47.2698 121.983 47.2698C122.025 47.2698 122.067 47.3546 122.067 47.4818ZM116.091 48.1599C115.985 48.4778 115.074 48.6685 115.074 48.3718C115.074 48.0751 115.328 47.9056 115.773 47.9056C115.985 47.9056 116.133 48.0116 116.091 48.1599ZM118.253 48.9652C118.422 49.2831 118.38 49.4103 118.062 49.601C117.49 49.8977 117.341 49.8765 117.49 49.495C117.575 49.2619 117.469 49.1772 117.087 49.1772C116.748 49.1772 116.557 49.05 116.557 48.8593C116.557 48.3506 117.977 48.4354 118.253 48.9652ZM115.71 50.7454C115.71 50.7878 115.773 50.9785 115.837 51.1481C115.9 51.36 115.816 51.4447 115.498 51.4236C115.265 51.4236 115.074 51.3388 115.074 51.2328C115.074 51.1481 115.074 50.9785 115.074 50.8726C115.074 50.7454 115.222 50.6606 115.392 50.6606C115.561 50.6606 115.71 50.703 115.71 50.7454Z" fill="#112250"></path><path d="M65.1638 26.5011C64.9731 27.1369 65.2486 27.4547 65.6089 26.9885C65.8844 26.6282 65.948 26.6494 66.6261 27.4336L67.3467 28.2812L68.2156 27.4971C69.1268 26.6706 69.6566 26.5223 70.1229 26.9673C70.3348 27.2004 70.3772 27.1369 70.3136 26.713C70.2077 25.8441 69.3388 25.9077 68.4063 26.819C67.6646 27.5607 67.6222 27.5819 67.4102 27.1792C67.0076 26.4375 66.5202 26.0772 65.9056 26.0772C65.4817 26.0772 65.2486 26.2044 65.1638 26.5011Z" fill="#112250"></path><path d="M65.9027 29.1485C65.7331 29.3604 65.7755 29.4664 66.0934 29.5723C66.3265 29.6359 66.5808 29.8902 66.6444 30.1233C66.8139 30.6532 67.1954 30.632 67.6616 30.081C68.0219 29.6571 68.0643 29.6571 68.4458 29.9962C68.9332 30.4412 69.2935 30.2505 69.2935 29.5512C69.2935 28.9154 68.7848 28.6823 68.1491 29.0425C67.8312 29.1909 67.4497 29.2333 67.153 29.1273C66.3265 28.8518 66.1358 28.8518 65.9027 29.1485Z" fill="#112250"></path></svg> 