<?xml version="1.0" encoding="UTF-8"?> <svg xmlns="http://www.w3.org/2000/svg" width="144" height="44" viewBox="0 0 144 44" fill="none"><path d="M15.4124 36.4443C15.2204 36.3803 15.1244 36.2523 15.1244 36.0603C15.1244 35.8043 15.1404 35.6443 15.1724 35.5803C15.3004 35.2603 15.5244 35.1163 15.8444 35.1483H15.9884C16.1804 35.1483 16.3564 35.0523 16.5164 34.8603C17.6044 33.4843 18.3884 31.9803 18.8684 30.3483C19.0924 29.6123 19.2364 29.0843 19.3004 28.7643C19.3324 28.7323 19.3484 28.6203 19.3484 28.4283C19.2204 28.4603 18.9164 28.6523 18.4364 29.0043C17.8924 29.5163 17.2524 30.0123 16.5164 30.4923L15.9404 30.9243C15.5564 31.1483 15.1884 31.2123 14.8364 31.1163C14.5484 31.0203 14.0844 30.9403 13.4444 30.8763C12.9644 30.7803 12.6284 30.4763 12.4364 29.9643C12.1484 28.8123 11.9724 27.8683 11.9084 27.1323L11.6204 24.8283C11.6204 24.7323 11.5884 24.6843 11.5244 24.6843C11.4924 24.6843 11.4444 24.7163 11.3804 24.7803L10.6604 26.3643C9.79641 28.1243 9.02841 29.5483 8.35641 30.6363C8.06841 31.1483 7.76441 31.5483 7.44441 31.8363C7.15641 32.1883 6.80441 32.3643 6.38841 32.3643C6.16441 32.3643 6.02041 32.3483 5.95641 32.3163C5.28441 32.2203 4.77241 32.1243 4.42041 32.0283C3.68441 31.9003 3.04441 31.4203 2.50041 30.5883C2.21241 30.0443 1.94041 29.2923 1.68441 28.3323C1.33241 26.8283 1.09241 25.0843 0.964406 23.1003C0.932406 22.7483 0.916406 22.0123 0.916406 20.8923C0.916406 20.0603 0.932406 19.5323 0.964406 19.3083C1.09241 17.9643 1.17241 17.1483 1.20441 16.8603L2.21241 9.85229C2.56441 7.67629 2.88441 6.15629 3.17241 5.29229C3.26841 4.87629 3.41241 4.54029 3.60441 4.28429C3.76441 4.09229 3.92441 4.01229 4.08441 4.04429C4.43641 4.14029 4.61241 4.36429 4.61241 4.71629V5.48429L4.32441 7.74029C4.13241 9.37229 3.98841 10.8923 3.89241 12.3003L3.60441 17.1483C3.54041 18.4283 3.50841 19.1643 3.50841 19.3563C3.50841 21.2763 3.52441 22.5083 3.55641 23.0523C3.65241 25.1323 3.90841 27.0203 4.32441 28.7163C4.54841 29.4203 4.77241 30.0443 4.99641 30.5883L5.28441 31.2123C5.41241 31.4043 5.58841 31.4363 5.81241 31.3083C6.19641 31.0843 6.58041 30.7003 6.96441 30.1563C7.63641 29.1963 8.21241 28.3003 8.69241 27.4683C9.55641 25.9963 10.3884 24.2683 11.1884 22.2843C11.2844 22.0923 11.3324 21.8043 11.3324 21.4203C11.3004 21.3243 11.2844 21.0843 11.2844 20.7003C11.2844 18.0123 11.3484 15.7883 11.4764 14.0283L11.5724 13.0203C11.6044 12.6683 11.6684 11.9963 11.7644 11.0043C11.9244 9.82029 12.1164 8.70029 12.3404 7.64429C12.5004 6.90829 12.7084 6.06029 12.9644 5.10029C13.2524 4.14029 13.7004 3.18029 14.3084 2.22029C14.5004 1.93229 14.7244 1.66029 14.9804 1.40429C15.1724 1.21229 15.4284 1.03629 15.7484 0.876287C15.8124 0.844288 15.9404 0.828288 16.1324 0.828288C16.2924 0.828288 16.4684 0.860288 16.6604 0.924287C16.7884 0.988288 17.1244 1.16429 17.6684 1.45229C17.8924 1.54829 18.0364 1.72429 18.1004 1.98029C18.1964 2.33229 18.2444 2.65229 18.2444 2.94029C18.2444 3.67629 18.1324 4.47629 17.9084 5.34029C17.3644 7.86829 16.6284 10.5243 15.7004 13.3083L13.9724 18.1563C13.8444 18.5403 13.7804 18.9243 13.7804 19.3083C13.8124 21.6123 14.0044 23.9163 14.3564 26.2203C14.4524 27.4683 14.6124 28.5083 14.8364 29.3403L14.8844 29.5323C14.9484 29.6603 15.0444 29.7083 15.1724 29.6763L15.2684 29.6283C15.3644 29.5643 15.4444 29.5163 15.5084 29.4843C15.7644 29.3243 16.3724 28.9563 17.3324 28.3803L18.4844 27.6603L18.8684 27.4683C19.0604 27.3083 19.2844 27.2603 19.5404 27.3243L20.5484 27.5643C20.9004 27.6283 21.1244 27.8363 21.2204 28.1883C21.3484 28.4763 21.4124 28.8603 21.4124 29.3403C21.3484 31.0043 20.9644 32.4283 20.2604 33.6123C20.2604 33.6443 20.0524 33.9163 19.6364 34.4283C19.0604 35.1003 18.4364 35.7243 17.7644 36.3003C17.4124 36.5563 17.0764 36.6843 16.7564 36.6843C16.5644 36.6843 16.4364 36.6683 16.3724 36.6363C15.9564 36.5403 15.6364 36.4763 15.4124 36.4443ZM14.2604 14.3643L14.5484 13.5483C15.6684 10.3163 16.4684 7.18029 16.9484 4.14029C17.0124 3.62829 17.0444 3.30829 17.0444 3.18029L16.9964 2.50829C16.9964 2.41229 16.9644 2.36429 16.9004 2.36429L16.7564 2.46029L16.5644 2.84429C16.2124 3.51629 15.7964 4.62029 15.3164 6.15629C15.0604 7.18029 14.7724 8.54029 14.4524 10.2363C14.2604 11.6123 14.1164 12.9883 14.0204 14.3643C14.0204 14.4603 14.0364 14.5563 14.0684 14.6523C14.1644 14.5563 14.2284 14.4603 14.2604 14.3643ZM32.9917 21.0363L31.8877 22.4763L30.1117 24.7803C29.3437 25.6443 28.5597 26.3003 27.7597 26.7483C27.6637 26.8443 27.4877 26.9243 27.2317 26.9883C27.0077 27.1163 26.7037 27.1803 26.3197 27.1803C26.0637 27.1803 25.8397 27.1483 25.6477 27.0843C24.4957 26.6683 23.5837 26.1883 22.9117 25.6443C21.8557 24.7803 21.3277 23.5963 21.3277 22.0923C21.3277 20.7803 21.6637 19.6763 22.3357 18.7803C22.8157 18.0443 23.4077 17.5643 24.1117 17.3403C24.3677 17.2443 24.6077 17.1963 24.8317 17.1963C25.1837 17.1963 25.5197 17.2923 25.8397 17.4843L26.5117 17.8203C26.9277 18.0443 27.1357 18.3803 27.1357 18.8283L27.0397 19.3083C27.0077 19.4683 26.9437 19.5803 26.8477 19.6443C26.4957 20.2203 25.9677 20.7803 25.2637 21.3243C24.7837 21.6123 24.2877 21.7723 23.7757 21.8043C23.5197 21.8363 23.3917 21.9963 23.3917 22.2843C23.3277 23.5643 23.5837 24.6203 24.1597 25.4523L24.3517 25.7883C24.6717 26.2043 25.0077 26.4123 25.3597 26.4123C25.5517 26.4123 25.7597 26.3643 25.9837 26.2683C26.4957 26.1403 26.9917 25.9003 27.4717 25.5483C28.3357 24.8763 29.1037 24.1243 29.7757 23.2923L30.7837 21.9483L31.7437 20.8443C31.9357 20.6523 32.0637 20.5563 32.1277 20.5563C32.1917 20.5563 32.2557 20.5883 32.3197 20.6523C32.4157 20.7163 32.4957 20.7483 32.5597 20.7483C32.8157 20.7803 32.9597 20.8763 32.9917 21.0363ZM23.6797 21.2763L23.9197 21.2283C24.7517 20.8123 25.4237 20.1723 25.9357 19.3083C26.0637 18.9563 26.1117 18.6683 26.0797 18.4443V18.3003C26.0157 18.0443 25.8717 17.9643 25.6477 18.0603C25.3277 18.1563 25.0557 18.3163 24.8317 18.5403C24.0957 19.1483 23.6637 20.0123 23.5357 21.1323C23.4717 21.2283 23.5197 21.2763 23.6797 21.2763ZM45.9097 20.8923C45.9097 20.9883 45.8457 21.0523 45.7177 21.0843L45.1417 21.3723C44.8537 21.4683 44.0857 21.7883 42.8377 22.3323C42.3577 22.5243 41.5577 22.9723 40.4377 23.6763C40.1497 23.8363 39.9577 24.0923 39.8617 24.4443C39.5417 25.5643 38.9497 26.7643 38.0857 28.0443C37.6057 28.5883 37.3017 28.9083 37.1737 29.0043C36.9177 29.2603 36.6297 29.3403 36.3097 29.2443L35.5897 29.1003C35.3657 29.0363 35.2377 28.9083 35.2057 28.7163C35.1737 28.6523 35.1577 28.4923 35.1577 28.2363C35.1577 27.9483 35.2057 27.6443 35.3017 27.3243C35.3657 27.1643 35.5897 26.7803 35.9737 26.1723C36.7417 25.1803 37.4617 24.4443 38.1337 23.9643C38.3257 23.8043 38.4697 23.5963 38.5657 23.3403C38.8537 22.1883 38.9977 21.0363 38.9977 19.8843C38.9977 19.2443 38.9497 18.5883 38.8537 17.9163C38.7897 17.4683 38.6937 17.1803 38.5657 17.0523C38.4377 17.1163 38.2617 17.2603 38.0377 17.4843C37.7497 17.8363 37.4617 18.2843 37.1737 18.8283C37.0137 19.1803 36.8377 19.5963 36.6457 20.0763C36.4537 20.5563 36.3417 20.8123 36.3097 20.8443C35.7977 22.2843 35.2537 24.3163 34.6777 26.9403C34.4537 28.2203 34.2617 29.5163 34.1017 30.8283C34.1017 30.8603 34.0697 31.0203 34.0057 31.3083C33.9737 31.5963 33.9417 31.8523 33.9097 32.0763C33.8137 32.9403 33.6537 34.9403 33.4297 38.0763C33.3657 39.8043 33.3337 40.7643 33.3337 40.9563L33.2857 42.3963V42.9723C33.2857 43.1643 33.1897 43.2923 32.9977 43.3563L32.1817 43.5003C32.0217 43.5003 31.9257 43.4363 31.8937 43.3083C31.7977 43.1483 31.7177 42.8923 31.6537 42.5403C31.6537 42.4443 31.6217 41.9163 31.5577 40.9563C31.5577 39.2923 31.6057 37.6123 31.7017 35.9163C31.8297 33.3563 31.8937 31.1963 31.8937 29.4363C31.8937 28.3163 31.8777 27.5963 31.8457 27.2763L31.7977 25.1163C31.7977 21.0523 31.8137 18.4283 31.8457 17.2443C31.9737 14.3323 32.0537 12.4603 32.0857 11.6283C32.0857 11.5323 32.1177 11.1963 32.1817 10.6203C32.2457 10.4603 32.3577 10.3963 32.5177 10.4283L32.7577 10.5243C33.1097 10.6203 33.3017 10.8283 33.3337 11.1483C33.4617 12.1403 33.5417 13.3883 33.5737 14.8923L33.7177 24.9243C33.7177 25.3083 33.7657 25.6123 33.8617 25.8363L34.1977 24.2523C34.6777 22.2363 35.2377 20.4283 35.8777 18.8283C36.0377 18.4123 36.2777 17.9163 36.5977 17.3403C36.7897 17.0523 37.0137 16.7803 37.2697 16.5243C37.5897 16.2043 37.9257 16.0923 38.2777 16.1883L39.2857 16.3803C39.6377 16.4763 39.9097 16.7003 40.1017 17.0523C40.4217 17.6283 40.5977 18.2363 40.6297 18.8763C40.6937 20.0923 40.6457 21.0843 40.4857 21.8523L40.4377 22.3323L40.4857 22.4283C40.5497 22.4603 40.6137 22.4443 40.6777 22.3803C40.7737 22.3163 40.8377 22.2843 40.8697 22.2843C41.7977 21.8043 42.9977 21.3083 44.4697 20.7963C44.7257 20.7003 44.9497 20.6523 45.1417 20.6523C45.2057 20.6523 45.3657 20.6843 45.6217 20.7483C45.7817 20.7483 45.8777 20.7963 45.9097 20.8923ZM37.5577 26.1723L37.6537 25.8363L37.1257 26.4603C36.8057 26.9083 36.5657 27.2923 36.4057 27.6123C36.3417 27.7723 36.3417 27.8843 36.4057 27.9483C36.5977 27.8523 36.8057 27.5963 37.0297 27.1803C37.2857 26.7643 37.4617 26.4283 37.5577 26.1723ZM55.6323 21.0363L54.5283 22.4763L52.7523 24.7803C51.9843 25.6443 51.2003 26.3003 50.4003 26.7483C50.3043 26.8443 50.1283 26.9243 49.8723 26.9883C49.6483 27.1163 49.3443 27.1803 48.9603 27.1803C48.7043 27.1803 48.4803 27.1483 48.2883 27.0843C47.1363 26.6683 46.2243 26.1883 45.5523 25.6443C44.4963 24.7803 43.9683 23.5963 43.9683 22.0923C43.9683 20.7803 44.3043 19.6763 44.9763 18.7803C45.4563 18.0443 46.0483 17.5643 46.7523 17.3403C47.0083 17.2443 47.2483 17.1963 47.4723 17.1963C47.8243 17.1963 48.1603 17.2923 48.4803 17.4843L49.1523 17.8203C49.5683 18.0443 49.7763 18.3803 49.7763 18.8283L49.6803 19.3083C49.6483 19.4683 49.5843 19.5803 49.4883 19.6443C49.1363 20.2203 48.6083 20.7803 47.9043 21.3243C47.4243 21.6123 46.9283 21.7723 46.4163 21.8043C46.1603 21.8363 46.0323 21.9963 46.0323 22.2843C45.9683 23.5643 46.2243 24.6203 46.8003 25.4523L46.9923 25.7883C47.3123 26.2043 47.6483 26.4123 48.0003 26.4123C48.1923 26.4123 48.4003 26.3643 48.6243 26.2683C49.1363 26.1403 49.6323 25.9003 50.1123 25.5483C50.9763 24.8763 51.7443 24.1243 52.4163 23.2923L53.4243 21.9483L54.3843 20.8443C54.5763 20.6523 54.7043 20.5563 54.7683 20.5563C54.8323 20.5563 54.8963 20.5883 54.9603 20.6523C55.0563 20.7163 55.1363 20.7483 55.2003 20.7483C55.4563 20.7803 55.6003 20.8763 55.6323 21.0363ZM46.3203 21.2763L46.5603 21.2283C47.3923 20.8123 48.0643 20.1723 48.5763 19.3083C48.7043 18.9563 48.7523 18.6683 48.7203 18.4443V18.3003C48.6563 18.0443 48.5123 17.9643 48.2883 18.0603C47.9683 18.1563 47.6963 18.3163 47.4723 18.5403C46.7363 19.1483 46.3043 20.0123 46.1763 21.1323C46.1123 21.2283 46.1603 21.2763 46.3203 21.2763ZM55.8303 29.6283C55.3183 29.5643 54.9983 29.2763 54.8703 28.7643C54.6783 28.2843 54.5663 27.8043 54.5343 27.3243L54.4863 26.3643C54.4223 25.2763 54.3903 24.6523 54.3903 24.4923C54.3903 23.7243 54.4703 22.7483 54.6303 21.5643C54.7263 21.2443 54.8063 20.9883 54.8703 20.7963C54.9663 20.6683 55.0783 20.6203 55.2063 20.6523C55.5583 20.6843 55.8783 20.7963 56.1663 20.9883C56.2623 21.0523 56.3103 21.1163 56.3103 21.1803L56.2623 21.5163C56.1343 21.9963 56.0703 22.6203 56.0703 23.3883C56.0703 23.4843 56.1023 24.0123 56.1663 24.9723C56.1983 25.4203 56.2463 25.9483 56.3103 26.5563C56.4063 27.1643 56.4543 27.5003 56.4543 27.5643C56.4863 27.7243 56.5503 27.9003 56.6463 28.0923C56.6463 28.1243 56.6623 28.1403 56.6943 28.1403C56.7583 28.1403 56.8063 28.1243 56.8383 28.0923L57.1263 27.5643C57.4463 26.8923 57.6863 26.2363 57.8463 25.5963C58.1983 24.4763 58.7103 22.7803 59.3823 20.5083C59.6703 19.5163 60.0223 18.6363 60.4383 17.8683C60.4703 17.7403 60.6463 17.4683 60.9663 17.0523C61.1263 16.9243 61.2703 16.8763 61.3983 16.9083C61.8143 17.0043 62.2303 17.1483 62.6463 17.3403C63.0623 17.5323 63.3823 17.9323 63.6063 18.5403C63.7023 18.8283 63.7663 19.1323 63.7983 19.4523C63.8623 19.6123 63.9263 19.8683 63.9903 20.2203C64.0543 20.5403 64.1023 20.7643 64.1343 20.8923L64.2303 21.2763C64.2943 21.3403 64.3583 21.3563 64.4223 21.3243C64.5503 21.3243 64.6623 21.2763 64.7583 21.1803C65.0463 20.9883 65.4463 20.7003 65.9583 20.3163C66.9183 19.5163 67.6063 18.9883 68.0223 18.7323L68.3103 18.5883C68.5023 18.4603 68.6943 18.4443 68.8863 18.5403C69.3663 18.6683 69.7023 18.8283 69.8943 19.0203C70.0863 19.1803 70.2623 19.5163 70.4223 20.0283C70.5183 20.2523 70.6463 20.7643 70.8063 21.5643L71.1423 22.4283C71.3343 22.7163 71.6063 22.8603 71.9583 22.8603H72.2463C72.6943 22.8603 73.1103 22.8123 73.4943 22.7163C75.1263 22.3323 76.7903 21.5803 78.4863 20.4603L79.0623 20.0763C79.2543 20.0123 79.3663 19.9803 79.3983 19.9803C79.5583 19.9803 79.7023 20.0283 79.8303 20.1243L80.1183 20.3163C80.2463 20.4123 80.2623 20.5083 80.1663 20.6043C80.0063 20.7323 79.8303 20.8443 79.6383 20.9403C78.9663 21.2603 78.3743 21.5963 77.8623 21.9483C76.9663 22.5243 75.8623 23.0203 74.5503 23.4363C74.1983 23.5643 73.7503 23.6283 73.2063 23.6283C72.6943 23.6283 72.1983 23.5323 71.7183 23.3403L70.4223 22.9083C69.5903 22.5563 69.1103 21.9483 68.9823 21.0843C68.8863 20.7003 68.8383 20.2843 68.8383 19.8363L68.7903 19.4523C68.7263 19.3243 68.6623 19.2923 68.5983 19.3563L68.1183 19.6443C67.7663 19.9003 67.3023 20.3163 66.7263 20.8923C66.3103 21.3723 66.0543 21.6443 65.9583 21.7083L65.4783 22.0923C65.2543 22.2203 65.0143 22.2843 64.7583 22.2843C64.5663 22.2843 64.4383 22.2683 64.3743 22.2363L62.9343 21.6603C62.4223 21.4683 62.0383 21.0843 61.7823 20.5083C61.5583 19.9003 61.4143 19.3883 61.3503 18.9723C61.3503 18.6523 61.2863 18.4283 61.1583 18.3003C61.0623 18.3963 60.8863 18.7003 60.6303 19.2123C60.0223 20.4603 59.6063 21.6603 59.3823 22.8123L58.2303 27.3243C58.1023 27.9963 57.9263 28.5883 57.7023 29.1003C57.5423 29.6123 57.3343 29.8683 57.0783 29.8683L56.5023 29.7723C56.1183 29.6763 55.8943 29.6283 55.8303 29.6283ZM81.7368 29.1963L79.9608 28.3323C79.5448 28.1083 79.1768 27.7083 78.8568 27.1323C78.4728 26.4283 78.2808 25.4683 78.2808 24.2523C78.2808 22.5883 78.6968 21.0043 79.5288 19.5003C79.7848 19.1483 80.1048 18.7803 80.4888 18.3963L80.8728 18.1083C81.0008 17.9803 81.2088 17.9163 81.4968 17.9163C81.6568 17.9163 81.8168 17.9643 81.9768 18.0603C82.0728 18.1243 82.2008 18.2363 82.3608 18.3963C82.0088 18.5243 81.7208 18.8123 81.4968 19.2603C80.8248 20.4443 80.4248 21.6123 80.2968 22.7643C80.2008 23.3403 80.1528 23.9323 80.1528 24.5403C80.1528 24.6363 80.1848 25.0683 80.2488 25.8363C80.3768 26.6043 80.6008 27.2763 80.9208 27.8523C81.1128 28.2043 81.3208 28.3803 81.5448 28.3803L81.9288 28.2843C82.5368 28.1563 83.0968 27.7563 83.6088 27.0843C84.1848 26.3163 84.5368 25.4523 84.6648 24.4923C84.8248 23.7563 84.8728 23.2283 84.8088 22.9083C84.8088 22.6523 84.6968 22.5083 84.4728 22.4763H84.3768C83.7368 22.4443 82.8408 22.1243 81.6888 21.5163L81.5928 21.4203C81.2088 21.1963 81.0168 20.9563 81.0168 20.7003C81.0168 20.4443 81.1288 20.2043 81.3528 19.9803C81.7048 19.5323 82.1208 19.3083 82.6008 19.3083C82.7928 19.3083 83.0168 19.3563 83.2728 19.4523C83.5608 19.5483 84.0888 19.8043 84.8568 20.2203C85.2408 20.4443 85.5448 20.7323 85.7688 21.0843C85.8648 21.2763 86.0248 21.3563 86.2488 21.3243L87.5928 21.0363C89.1608 20.7163 90.3128 20.5403 91.0488 20.5083C91.4008 20.5083 91.6888 20.5723 91.9128 20.7003L92.4888 21.0363C92.5528 21.1003 92.5848 21.1483 92.5848 21.1803L92.4408 21.3243C90.7128 21.6443 89.6888 21.8203 89.3688 21.8523C88.6648 21.9483 87.6888 22.1243 86.4408 22.3803C86.2488 22.5083 86.1528 22.6523 86.1528 22.8123C86.1208 23.7083 85.9608 24.6523 85.6728 25.6443C85.1928 26.8923 84.7768 27.7403 84.4248 28.1883C84.1368 28.5723 83.8008 28.8603 83.4168 29.0523C83.1288 29.2443 82.8088 29.3403 82.4568 29.3403C82.2328 29.3403 81.9928 29.2923 81.7368 29.1963ZM83.8968 21.6603H84.2328C84.5528 21.6603 84.6488 21.5003 84.5208 21.1803L84.3288 20.8443C84.1368 20.5243 83.9608 20.3643 83.8008 20.3643C83.7048 20.3643 83.5448 20.4283 83.3208 20.5563C83.0008 20.7483 82.8088 20.9723 82.7448 21.2283C82.7448 21.3883 82.8088 21.4843 82.9368 21.5163C83.4168 21.6123 83.7368 21.6603 83.8968 21.6603ZM92.9598 29.8683L91.5678 29.3403C91.3758 29.2443 91.2798 29.1003 91.2798 28.9083V27.1803C91.3118 26.9243 91.3278 26.3643 91.3278 25.5003V23.0043L91.2798 20.5083C91.2798 19.1643 91.3278 17.8523 91.4238 16.5723C91.4238 16.5403 91.4558 16.2683 91.5198 15.7563C91.5838 15.5643 91.6798 15.5323 91.8078 15.6603C91.9358 15.6923 92.2238 15.8203 92.6718 16.0443C92.7998 16.1083 92.8798 16.2203 92.9118 16.3803V16.5723C92.8798 17.0843 92.8798 17.8363 92.9118 18.8283C92.9758 19.7883 93.0078 20.3003 93.0078 20.3643C93.1038 22.0283 93.1838 23.1483 93.2478 23.7243C93.2478 23.8843 93.2798 23.9643 93.3438 23.9643C93.4078 24.0283 93.5038 23.9803 93.6318 23.8203L94.3998 23.0523C95.8718 21.2283 96.9438 19.7723 97.6158 18.6843C97.8398 18.3003 97.9838 17.8683 98.0478 17.3883C98.1438 16.8123 98.2238 16.3963 98.2878 16.1403L98.4318 15.7083C98.5598 15.4203 98.7038 15.2763 98.8638 15.2763C98.9598 15.2763 99.1038 15.3243 99.2958 15.4203L100.112 15.7563C100.464 15.9803 100.624 16.2683 100.592 16.6203C100.592 17.3563 100.544 18.0763 100.448 18.7803C100.352 19.7723 100.288 20.4443 100.256 20.7963L100.16 21.8043C100.096 23.2123 100.208 24.4923 100.496 25.6443C100.592 26.1883 100.752 26.6363 100.976 26.9883C101.008 27.1163 101.136 27.1643 101.36 27.1323C101.968 26.9723 102.464 26.7003 102.848 26.3163L103.52 25.6443C104.896 24.1723 106.016 22.8123 106.88 21.5643C107.04 21.3403 107.248 21.1003 107.504 20.8443C107.6 20.6843 107.744 20.6523 107.936 20.7483L108.224 20.8923C108.384 20.9563 108.464 21.0043 108.464 21.0363C108.464 21.0683 108.416 21.1643 108.32 21.3243L104.912 25.5003C104.08 26.5563 103.408 27.2603 102.896 27.6123C102.672 27.8363 102.512 27.9643 102.416 27.9963C102.192 28.1243 101.984 28.1883 101.792 28.1883C101.632 28.1883 101.488 28.1563 101.36 28.0923C100.4 27.6763 99.7118 27.3403 99.2958 27.0843C98.7838 26.7643 98.4318 26.2843 98.2398 25.6443C97.9838 24.7163 97.8238 23.8363 97.7598 23.0043C97.6958 22.2363 97.6638 21.7883 97.6638 21.6603L97.7118 20.7483V20.1723L97.6638 20.1243H97.5678L97.4238 20.2683L96.7518 21.1803L95.6478 22.7643C95.0718 23.5323 94.6078 24.0923 94.2558 24.4443L93.7758 24.9243C93.4558 25.2443 93.3278 25.6443 93.3918 26.1243C93.4558 26.7003 93.4878 27.0203 93.4878 27.0843C93.5518 28.3643 93.5838 29.0523 93.5838 29.1483V29.3883V29.5803C93.5838 29.8363 93.5038 29.9643 93.3438 29.9643L92.9598 29.8683ZM118.69 29.5323L117.106 29.1003C116.754 29.0043 116.386 28.6683 116.002 28.0923C115.65 27.5163 115.41 26.8923 115.282 26.2203C115.186 25.8363 115.09 25.0843 114.994 23.9643C114.93 23.1323 114.898 22.1403 114.898 20.9883C114.898 20.8923 114.898 20.7803 114.898 20.6523C114.898 20.5243 114.898 20.3963 114.898 20.2683C114.898 20.1403 114.898 20.0603 114.898 20.0283C114.834 19.9643 114.77 19.9963 114.706 20.1243L114.418 20.7483C113.394 22.9883 112.274 24.9723 111.058 26.7003C110.61 27.2763 110.338 27.6123 110.242 27.7083C110.05 27.9003 109.81 27.9483 109.522 27.8523L108.514 27.5643C108.066 27.4683 107.746 27.1963 107.554 26.7483C107.298 26.0763 107.138 25.4203 107.074 24.7803L107.026 23.3883C107.026 23.2603 107.058 22.5883 107.122 21.3723C107.25 20.0923 107.394 19.1643 107.554 18.5883C107.682 18.2043 107.81 18.0123 107.938 18.0123C108.034 18.0123 108.21 18.0603 108.466 18.1563C108.722 18.2523 108.85 18.4603 108.85 18.7803C108.914 20.3163 108.946 21.1963 108.946 21.4203C109.01 22.4443 109.122 23.6763 109.282 25.1163C109.314 25.3083 109.378 25.7403 109.474 26.4123C109.474 26.4763 109.49 26.5243 109.522 26.5563C109.586 26.5563 109.634 26.5403 109.666 26.5083C109.986 26.3163 110.274 26.0123 110.53 25.5963C111.138 24.8283 111.714 23.9323 112.258 22.9083C113.058 21.4043 113.858 19.6603 114.658 17.6763L115.138 16.4283C115.298 16.0763 115.41 15.7403 115.474 15.4203C115.506 15.1643 115.618 14.8123 115.81 14.3643C115.842 14.2363 115.938 14.1883 116.098 14.2203L117.106 14.5563C117.33 14.6523 117.49 14.8123 117.586 15.0363C117.714 15.3883 117.746 15.9003 117.682 16.5723L117.49 19.4043C117.426 20.6203 117.394 21.9803 117.394 23.4843C117.394 24.1563 117.49 25.1643 117.682 26.5083C117.778 27.1483 117.954 27.7563 118.21 28.3323C118.306 28.5563 118.386 28.6683 118.45 28.6683C118.578 28.6683 118.706 28.6043 118.834 28.4763C119.314 28.1883 119.73 27.8043 120.082 27.3243C120.402 26.9083 120.994 26.0123 121.858 24.6363C122.658 23.3563 123.186 22.4283 123.442 21.8523C123.602 21.4363 123.794 21.1163 124.018 20.8923C124.178 20.7323 124.322 20.6683 124.45 20.7003C124.962 20.8283 125.266 20.9403 125.362 21.0363C125.106 21.5483 124.882 21.9323 124.69 22.1883C124.274 22.7643 123.858 23.4203 123.442 24.1563L122.05 26.5563C121.378 27.6443 120.834 28.3963 120.418 28.8123L119.842 29.2923C119.49 29.5483 119.106 29.6283 118.69 29.5323ZM125.485 29.9163C124.813 29.7243 124.317 29.2763 123.997 28.5723C123.677 27.8043 123.517 27.0683 123.517 26.3643C123.453 24.1883 123.581 22.5563 123.901 21.4683C123.965 21.1483 124.077 20.8123 124.237 20.4603L124.525 20.0763C124.653 19.9483 124.765 19.9163 124.861 19.9803C125.469 20.1723 125.901 20.3803 126.157 20.6043C125.837 20.8603 125.597 21.3563 125.437 22.0923C125.309 22.5723 125.245 23.4363 125.245 24.6843C125.245 25.1323 125.277 25.8683 125.341 26.8923C125.437 27.6283 125.629 28.2683 125.917 28.8123C126.013 29.0363 126.093 29.1483 126.157 29.1483C126.189 29.1483 126.333 29.0683 126.589 28.9083C127.005 28.5883 127.357 28.1883 127.645 27.7083C128.125 27.0683 128.541 26.3643 128.893 25.5963C129.789 23.7403 130.445 21.9643 130.861 20.2683C130.925 20.0123 130.957 19.8683 130.957 19.8363C130.957 19.7403 130.925 19.6923 130.861 19.6923C130.669 19.6923 130.461 19.6443 130.237 19.5483C130.045 19.4203 129.821 19.2923 129.565 19.1643C129.341 19.0043 129.197 18.9083 129.133 18.8763C128.429 18.4923 128.077 17.8523 128.077 16.9563C128.013 15.9323 128.349 14.9883 129.085 14.1243C129.373 13.8363 129.565 13.6763 129.661 13.6443C129.885 13.5163 130.093 13.4523 130.285 13.4523C130.445 13.4523 130.621 13.5003 130.813 13.5963L131.677 14.1243C131.997 14.3163 132.205 14.6043 132.301 14.9883C132.429 15.3403 132.493 15.7563 132.493 16.2363C132.493 16.3963 132.461 16.7643 132.397 17.3403L132.349 17.7723C132.317 17.8363 132.317 17.9003 132.349 17.9643C132.413 17.9963 132.493 17.9963 132.589 17.9643C133.069 17.7723 133.533 17.5003 133.981 17.1483C134.301 16.9243 134.493 16.8123 134.557 16.8123C134.653 16.8123 134.845 16.9083 135.133 17.1003C135.421 17.3243 135.613 17.4523 135.709 17.4843C136.029 17.6123 136.189 17.9003 136.189 18.3483C136.189 18.5083 136.189 18.7323 136.189 19.0203C136.189 19.3083 136.173 19.5323 136.141 19.6923L135.853 21.6123C135.725 22.3803 135.581 23.5963 135.421 25.2603C135.421 25.8683 135.453 26.4283 135.517 26.9403L135.565 27.1803C135.629 27.4043 135.741 27.4523 135.901 27.3243C136.637 26.9723 137.213 26.6203 137.629 26.2683C138.173 25.7243 138.637 25.2123 139.021 24.7323L140.893 22.3323L141.469 21.5163L141.901 20.8923C142.093 20.6363 142.269 20.5083 142.429 20.5083C142.557 20.5083 142.733 20.6043 142.957 20.7963C143.021 20.8283 143.037 20.9083 143.005 21.0363C142.845 21.3243 142.669 21.5643 142.477 21.7563C141.805 22.3963 140.957 23.4523 139.933 24.9243C139.261 25.8203 138.813 26.3963 138.589 26.6523C138.237 27.0683 137.741 27.5323 137.101 28.0443C136.749 28.3003 136.461 28.4283 136.237 28.4283C136.045 28.4283 135.837 28.3643 135.613 28.2363C135.485 28.1403 135.165 27.9803 134.653 27.7563C133.789 27.3403 133.293 26.6043 133.165 25.5483C133.133 25.3883 133.117 24.9883 133.117 24.3483C133.117 23.7083 133.133 23.3083 133.165 23.1483C133.229 22.5083 133.373 21.5163 133.597 20.1723C133.597 20.1403 133.629 19.9803 133.693 19.6923C133.789 19.3723 133.853 19.1323 133.885 18.9723C133.885 18.9083 133.853 18.8603 133.789 18.8283C133.757 18.7963 133.725 18.7963 133.693 18.8283L132.205 19.4043C132.077 19.4363 131.981 19.5483 131.917 19.7403L131.581 20.9403C131.069 22.8923 130.317 24.9243 129.325 27.0363C129.197 27.2923 129.021 27.6123 128.797 27.9963C128.605 28.3483 128.477 28.6043 128.413 28.7643C128.093 29.2763 127.821 29.6443 127.597 29.8683C127.309 30.1563 127.021 30.3003 126.733 30.3003C126.701 30.3003 126.557 30.2683 126.301 30.2043C126.045 30.0443 125.773 29.9483 125.485 29.9163ZM131.005 18.4443C131.229 18.3803 131.357 18.2363 131.389 18.0123C131.485 17.5003 131.533 16.9723 131.533 16.4283C131.533 16.0123 131.501 15.6443 131.437 15.3243C131.437 15.0043 131.325 14.7803 131.101 14.6523C131.005 14.6843 130.829 14.8603 130.573 15.1803L130.477 15.3723C130.093 16.1403 129.901 16.8283 129.901 17.4363C129.901 17.8203 129.933 18.1403 129.997 18.3963C129.997 18.5243 130.061 18.5883 130.189 18.5883C130.349 18.5883 130.621 18.5403 131.005 18.4443Z" fill="black"></path></svg> 