<?xml version="1.0" encoding="UTF-8"?> <svg xmlns="http://www.w3.org/2000/svg" width="319" height="319" viewBox="0 0 319 319" fill="none"><path d="M61.4297 66.8729C61.4297 67.2532 61.763 67.5859 62.1439 67.5859C62.5248 67.5859 62.858 67.2532 62.858 66.8729C62.858 66.4927 62.5248 66.1599 62.1439 66.1599C61.763 66.1599 61.4297 66.4927 61.4297 66.8729Z" fill="#112250"></path><path d="M34.7656 72.2898C34.7656 72.575 35.0037 72.9077 35.2417 73.0503C35.5274 73.1929 35.7179 73.0028 35.7179 72.6225C35.7179 72.1947 35.5274 71.862 35.2417 71.862C35.0037 71.862 34.7656 72.0521 34.7656 72.2898Z" fill="#112250"></path><path d="M92.8523 74.6659C90.9954 76.5197 90.6621 78.0407 91.7572 80.2748C92.5666 81.9385 92.6142 81.986 92.7571 80.8928C92.9951 78.7537 93.8521 77.2327 95.0424 76.6623C97.5183 75.569 99.1371 76.3771 100.185 79.2766L100.851 81.1304L101.375 79.847C103.279 74.9986 96.566 70.9107 92.8523 74.6659Z" fill="#112250"></path><path d="M196.648 74.2395C196.648 74.4772 196.886 74.7148 197.125 74.7148C197.41 74.7148 197.601 74.4772 197.601 74.2395C197.601 73.9543 197.41 73.7642 197.125 73.7642C196.886 73.7642 196.648 73.9543 196.648 74.2395Z" fill="#112250"></path><path d="M173.789 77.5676C173.789 77.8053 174.027 78.043 174.265 78.043C174.551 78.043 174.741 77.8053 174.741 77.5676C174.741 77.2824 174.551 77.0923 174.265 77.0923C174.027 77.0923 173.789 77.2824 173.789 77.5676Z" fill="#112250"></path><path d="M159.602 79.0391C159.697 79.3718 160.078 79.7521 160.412 79.8472C160.792 79.9898 160.983 79.7997 160.84 79.4194C160.745 79.0866 160.364 78.7064 160.031 78.6113C159.65 78.4687 159.459 78.6588 159.602 79.0391Z" fill="#112250"></path><path d="M95.3743 79.4673C93.8508 80.0852 93.9936 81.131 95.7076 81.844C96.8979 82.3193 97.3264 82.3193 98.3263 81.6538C98.9928 81.226 99.5166 80.4655 99.5166 79.9426C99.5166 79.1821 99.1833 78.9919 97.993 79.0395C97.136 79.0395 95.9457 79.2296 95.3743 79.4673Z" fill="#112250"></path><path d="M102.187 81.4647C104.805 85.8853 126.231 108.321 131.801 112.409C133.515 113.692 133.801 114.12 133.61 115.214C133.372 116.449 133.42 116.497 135.372 116.354C136.467 116.307 138.038 115.879 138.848 115.451C140.752 114.453 154.607 109.747 158.559 108.796C162.606 107.751 164.653 107.513 169.51 107.466C178.747 107.418 184.793 110.508 187.888 116.83C190.364 122.011 190.411 127.144 188.031 135.32C187.031 138.695 183.127 146.015 182.175 146.253C181.889 146.301 180.032 146.871 178.08 147.489C174.366 148.63 174.604 149.438 178.366 148.392C179.556 148.059 180.603 147.917 180.746 148.059C181.032 148.344 178.366 152.1 177.366 152.765C177.128 152.955 176.271 153.145 175.461 153.193C174.7 153.193 173.271 153.526 172.367 153.906L170.7 154.571L173.604 154.429L176.509 154.286L174.842 156.52C173.271 158.659 173.033 158.802 170.272 159.087C166.034 159.562 165.32 160.228 168.938 160.275H171.986L170.414 162.224C168.653 164.411 168.796 164.363 165.13 164.791C161.892 165.171 161.368 166.075 164.511 165.932C165.653 165.837 166.748 165.884 166.844 166.027C166.986 166.122 166.367 167.025 165.558 168.023C164.368 169.449 163.606 169.877 161.987 170.067C159.892 170.305 157.607 171.018 157.607 171.398C157.607 171.541 158.702 171.493 160.083 171.351L162.558 171.066L160.94 173.014C159.321 175.058 159.035 175.201 156.131 175.676C155.131 175.866 154.131 176.294 153.845 176.627C153.417 177.15 153.655 177.197 155.321 176.912C156.464 176.675 157.416 176.579 157.464 176.627C157.559 176.675 156.655 177.673 155.512 178.766L153.417 180.81L151.893 178.766C150.132 176.342 147.132 170.59 147.132 169.592C147.132 169.259 148.037 167.881 149.18 166.645C156.274 158.659 168.7 140.169 174.414 129.046C176.89 124.292 180.127 116.259 179.889 115.546C179.794 115.309 178.604 117.448 177.271 120.252L174.747 125.433L171.843 125.766C165.177 126.527 155.369 130.187 150.179 133.942C143.371 138.743 140.419 142.593 134.277 154.334C128.897 164.696 125.231 176.152 125.135 182.996C125.135 185.278 124.659 185.706 117.518 190.364C106.9 197.257 93.0926 203.721 82.8561 206.573C78.9519 207.666 72.0005 208.76 69.0962 208.76C67.6679 208.76 66.668 208.902 66.8108 209.045C67.1917 209.473 74.6192 209.425 77.5711 208.997C79.2852 208.76 80.4279 208.95 82.3323 209.71C83.7607 210.233 84.9986 210.566 85.1414 210.471C85.2367 210.328 84.7605 209.996 83.9988 209.71C83.237 209.425 82.2847 209.092 81.9038 208.902C81.4753 208.76 82.3323 208.332 83.9988 207.952C86.5698 207.334 86.9507 207.381 88.76 208.189C91.1406 209.283 93.5211 209.901 93.1403 209.33C92.9974 209.092 91.9023 208.522 90.6644 208.047C88.2362 207.144 88.3314 206.811 91.4262 205.813C93.3783 205.195 93.7116 205.195 94.9971 205.86C96.7588 206.858 100.425 208.047 100.711 207.762C100.949 207.524 98.7109 206.336 96.2826 205.432L94.7114 204.814L96.7111 203.911C99.425 202.723 100.425 202.675 102.901 203.864C104.948 204.814 108.09 205.623 108.09 205.195C108.09 204.862 105.186 203.483 103.139 202.818L101.187 202.248L103.996 200.964L106.805 199.681L109.233 200.631C112.09 201.772 115.899 202.485 114.756 201.677C114.375 201.392 112.661 200.727 110.995 200.156L107.9 199.11L110.614 197.732C113.328 196.401 113.375 196.401 115.613 197.114C118.279 198.065 121.612 198.54 121.231 197.922C120.993 197.542 118.565 196.686 116.042 196.163C114.423 195.831 114.661 195.403 117.327 193.834C119.089 192.836 119.66 192.693 120.993 193.074C121.898 193.359 123.279 193.549 124.136 193.549C124.945 193.549 125.802 193.739 125.945 194.024C126.326 194.642 128.564 200.822 128.564 201.249C128.564 201.82 119.66 207.809 115.804 209.853C103.139 216.508 83.5702 220.881 73.8098 219.217C69.6676 218.504 67.7631 217.791 65.7634 216.08C63.0495 213.798 62.621 212.467 62.6686 206.145C62.7162 199.966 63.7637 194.167 65.9538 187.845C66.668 185.896 67.3346 183.947 67.4774 183.519C67.6202 182.996 68.0488 182.854 68.8582 182.996C69.5247 183.092 70.0008 182.996 70.0008 182.664C70.0008 182.379 69.5723 182.141 69.0486 182.141C68.144 182.141 68.1916 181.903 69.8104 178.671C72.5243 173.3 75.381 169.307 79.7613 164.791C81.9991 162.509 83.8083 160.418 83.8083 160.18C83.8083 159.182 78.4282 162.652 72.1434 167.643C67.4298 171.398 60.0023 178.528 60.0023 179.289C60.0023 180.097 65.2397 176.77 72.1434 171.588L73.5717 170.495L72.8099 171.683C70.4294 175.391 68.0488 179.479 67.1917 181.285C66.4299 182.949 65.5729 183.805 62.9067 185.468C61.0498 186.657 59.5262 187.75 59.5262 187.988C59.5262 188.415 62.002 187.227 64.0017 185.801C65.3349 184.85 65.3825 184.85 65.0492 185.706C64.8588 186.181 64.3826 187.56 64.0017 188.796C63.3828 190.649 62.9543 191.125 60.7641 192.266C59.3358 193.026 57.717 194.167 57.098 194.832L55.9553 196.021L58.3359 194.785C59.6691 194.119 61.2402 193.169 61.8592 192.741C63.0019 191.885 63.0495 191.885 62.6686 193.074C62.4782 193.739 62.0497 195.165 61.764 196.211C61.3355 197.637 60.6213 198.635 59.0977 199.776C56.6695 201.677 53.908 204.957 55.4792 204.149C56.0029 203.864 57.4789 202.675 58.7644 201.582L61.0974 199.491L60.8117 201.392C60.6213 202.438 60.4785 203.864 60.4785 204.529C60.4785 205.195 60.0499 206.145 59.5738 206.716C58.4788 207.857 57.3837 209.996 56.9552 211.707C56.5267 213.656 56.9076 213.37 58.4788 210.566C59.8119 208.284 59.9547 208.189 60.1928 209.235C61.1926 213.608 61.4307 215.177 61.145 215.985C60.7641 217.221 61.3831 220.263 61.9544 219.93C62.1925 219.74 62.2877 219.407 62.0973 219.17C61.9544 218.884 61.9544 218.171 62.0973 217.506L62.4305 216.318L64.2398 217.886C65.3349 218.789 66.3347 220.168 66.6204 221.166C66.9061 222.117 67.7155 223.257 68.382 223.733L69.62 224.541L68.2868 222.259L66.9537 220.025L68.144 220.358C74.2859 222.069 75.0953 222.164 81.4277 221.927C87.0459 221.689 90.3312 221.214 97.1397 219.692C98.0443 219.502 99.5203 219.17 100.377 218.979C102.901 218.409 102.139 219.075 98.2347 220.928C84.332 227.393 69.2867 229.389 59.1929 226.062C51.575 223.59 45.6235 214.274 44.957 203.864C44.6713 199.015 45.2902 191.457 46.4329 186.514C47.5756 181.666 48.7183 177.673 49.0516 177.245C49.242 177.055 50.2895 177.292 51.4798 177.815C52.6225 178.386 54.2889 178.814 55.1935 178.814H56.8123L54.9555 177.388C52.0035 175.058 45.7188 168.689 45.7188 168.023C45.7188 167.358 44.0047 167.168 43.6238 167.786C43.2905 168.356 45.4331 172.634 47.0519 174.488L48.4326 176.104L46.8614 180.525C44.0999 188.463 42.3859 198.302 42.6716 204.244C43.1477 214.892 48.5755 224.446 56.1458 228.058C65.6205 232.527 83.0465 231.101 96.9016 224.731C103.091 221.879 117.946 212.99 126.135 207.191C129.659 204.672 130.944 204.244 130.944 205.48C130.944 206.05 135.562 213.085 137.61 215.652C140.705 219.502 146.704 225.444 150.703 228.534C153.322 230.578 164.701 238.231 165.891 238.753C166.463 238.991 167.653 239.657 168.558 240.179C179.556 246.834 197.03 252.681 211.599 254.63C219.074 255.628 232.596 255.438 237.928 254.202C257.163 249.876 267.162 241.273 275.351 222.069C278.065 215.652 279.255 211.517 280.16 204.957C281.065 198.207 281.112 195.023 280.255 189.414C278.636 178.766 275.494 172.206 267.4 162.842C258.925 152.955 250.26 145.92 238.404 139.361C224.883 131.85 214.027 127.857 201.457 125.861C198.982 125.433 196.934 125.053 196.839 124.958C196.744 124.863 196.982 123.77 197.41 122.534C197.887 121.155 198.315 120.49 198.553 120.823C198.791 121.203 198.982 121.155 199.22 120.585C199.648 119.492 199.601 119.396 198.791 119.396C198.267 119.396 198.172 119.064 198.458 117.828C199.029 115.309 198.839 108.369 198.125 105.849C195.839 97.6261 190.697 92.7301 182.127 90.6862C176.842 89.3552 166.844 89.5929 159.94 91.1615C158.892 91.3992 158.464 91.114 156.94 89.0225C154.702 85.9803 150.275 81.9875 148.751 81.7023C148.037 81.6072 147.323 81.8449 146.847 82.3678C146.085 83.2234 146.085 83.2709 146.989 83.2709C147.561 83.2709 148.846 84.3642 150.275 85.9803C151.56 87.5014 153.655 89.688 154.988 90.8763L157.416 93.0153L154.131 94.8216L150.846 96.6279L149.227 95.6772C148.37 95.1543 146.847 94.5839 145.847 94.4413C141.942 93.7759 141.99 93.9185 143.18 89.07C143.609 87.3113 142.085 88.3095 140.609 90.7812C137.991 95.1543 137.467 97.1983 138.943 97.0081C139.371 96.9606 140.181 97.0081 140.705 97.0081C141.562 97.1032 141.514 97.1983 140.467 97.6736C139.276 98.1965 139.276 98.1965 140.943 98.3866C141.895 98.4342 144.133 98.1965 145.942 97.8637C147.799 97.4835 149.37 97.2458 149.465 97.3409C149.56 97.436 149.037 98.0064 148.275 98.5768C143.752 102.047 136.134 110.46 136.896 111.221C137.181 111.506 140.086 109.509 143.371 106.753C144.799 105.517 147.132 103.568 148.561 102.379C149.989 101.144 152.798 98.6243 154.75 96.7705C158.607 93.1579 159.845 92.4924 163.606 92.3498C165.653 92.2548 166.367 92.4925 168.51 93.966C171.7 96.105 172.7 96.105 170.272 93.966L168.415 92.3023H171.271C174.128 92.3023 174.176 92.3499 175.937 94.4889C177.985 96.9606 178.651 96.9606 177.223 94.4413C176.08 92.54 176.175 92.4925 179.699 93.1104C181.365 93.3481 181.651 93.6333 182.889 96.2951C184.031 98.6718 184.27 98.957 184.27 97.8637C184.27 97.1032 184.031 96.105 183.746 95.5346C182.984 94.1086 183.508 94.0135 185.888 95.1543C188.126 96.2001 188.269 96.4853 188.793 99.8126C189.221 102.332 190.126 101.904 189.888 99.2898L189.697 97.3884L191.507 99.4324C193.125 101.239 193.316 101.762 193.363 104.138C193.411 105.612 193.506 106.42 193.649 105.944C194.411 102.997 195.887 108.274 195.887 113.93C195.887 118.208 195.268 121.013 193.221 126.384C192.697 127.762 192.221 128.903 192.173 128.903C192.173 128.903 192.125 126.479 192.125 123.532C192.078 118.683 191.983 117.97 190.745 115.594C188.317 110.745 187.84 109.89 187.555 109.89C187.364 109.89 185.984 109.129 184.46 108.226C178.747 104.804 171.414 103.568 163.415 104.661C158.273 105.374 154.56 106.515 149.18 108.987C146.894 110.032 145.228 110.698 145.466 110.46C145.751 110.222 147.132 108.987 148.561 107.751C154.607 102.475 158.511 98.8144 158.797 98.149C158.988 97.5785 158.892 97.531 158.464 97.8637C152.131 102.665 145.418 108.274 141.8 111.744C139.276 114.12 137.086 116.069 136.896 116.069C136.705 116.069 136.705 115.309 136.848 114.358C137.324 111.981 136.229 110.46 133.801 110.08C132.801 109.89 131.563 109.367 131.135 108.892C130.182 107.846 130.182 107.893 134.42 107.988C135.896 108.036 137.134 107.941 137.134 107.798C137.134 107.37 133.801 105.802 131.515 105.089C129.659 104.566 128.659 103.71 128.659 102.617C128.611 100.478 126.897 93.9185 126.183 93.1104C125.707 92.5875 125.183 97.7212 125.469 100.24C125.564 101.381 125.564 102.284 125.469 102.284C125.374 102.284 123.564 100.526 121.469 98.3391C117.851 94.6315 117.708 94.3938 118.375 93.3956C118.708 92.8252 119.041 91.9221 119.041 91.3516C119.041 90.6386 119.374 90.401 120.374 90.3534C125.564 90.1633 133.753 89.1176 138.086 87.9768C145.99 86.0279 145.99 86.0279 144.752 85.5525C143.799 85.2198 136.658 85.4099 133.325 85.8853C128.087 86.6458 124.517 87.2638 121.755 87.8817C119.374 88.4521 118.232 88.4996 117.47 88.1194C115.804 87.3113 114.47 87.1687 113.613 87.644C112.852 88.0718 112.947 88.3095 114.47 89.688C115.423 90.5436 116.184 91.5893 116.184 92.0171C116.184 93.1104 115.661 92.7301 111.899 89.1651C110.185 87.549 108.043 85.6001 107.138 84.8871C106.234 84.1265 104.853 82.9382 104.043 82.2252C102.567 80.8467 101.615 80.4664 102.187 81.4647ZM204.6 128.428C207.695 128.951 210.98 129.569 211.884 129.806C212.789 130.092 214.836 130.662 216.408 131.09C221.312 132.468 224.883 133.799 228.073 135.51C234.024 138.648 242.166 143.829 246.879 147.394C252.497 151.672 264.638 163.318 264.972 164.744C265.115 165.314 265.067 166.36 264.829 167.073L264.496 168.404L262.877 166.455C261.877 165.171 261.21 163.745 260.972 162.272C260.639 160.18 260.639 160.133 260.258 161.416L259.925 162.795L258.068 160.988C257.068 159.99 256.116 158.707 255.973 158.089C255.783 157.471 255.449 156.948 255.164 156.948C254.878 156.948 254.83 157.233 255.068 157.518C255.259 157.851 254.497 157.376 253.402 156.473C252.259 155.57 250.783 154.381 250.069 153.858C249.355 153.336 247.593 152.005 246.07 150.864C244.594 149.77 243.261 148.867 243.118 148.867C243.023 148.867 241.642 148.059 240.118 147.014C235.738 144.162 218.979 136.033 217.36 136.033C216.979 136.033 216.598 135.843 216.455 135.605C216.312 135.368 215.693 135.083 215.122 134.94C214.503 134.797 211.884 134.037 209.266 133.276C206.647 132.468 202.457 131.47 199.981 131.042C197.506 130.614 195.363 130.187 195.173 130.044C194.982 129.949 195.077 129.331 195.363 128.666C196.077 127.192 197.03 127.144 204.6 128.428ZM172.176 129.806C171.652 130.805 170.891 131.28 169.177 131.755C157.797 134.797 151.322 138.933 146.608 146.158C143.799 150.436 143.085 153.383 143.133 160.038C143.18 167.786 144.752 172.824 149.322 179.859C150.465 181.666 151.417 183.567 151.417 184.09C151.417 184.613 151.608 184.945 151.893 184.755C152.131 184.613 153.036 185.278 153.893 186.276C161.178 194.785 173.176 204.054 183.841 209.568C199.601 217.696 214.551 221.071 232.358 220.453C248.879 219.93 253.878 218.742 261.544 213.608C267.59 209.615 270.59 205.195 272.542 197.637C273.78 192.979 274.066 191.03 273.304 192.836C273.018 193.501 272.875 193.026 272.875 191.125C272.828 189.651 273.161 187.655 273.542 186.704C274.304 184.898 274.066 184.423 273.066 185.801C272.542 186.514 272.399 186.371 271.828 184.613C271.304 182.854 271.352 182.236 272.018 180.335C273.113 177.245 273.018 176.817 271.733 178.956L270.59 180.81L269.733 178.576C268.971 176.579 268.971 176.009 269.495 173.775C269.828 172.349 270.257 171.208 270.447 171.208C270.923 171.208 274.589 177.91 275.589 180.715C277.303 185.421 277.779 188.463 277.827 194.262C277.827 204.006 275.399 209.14 268.114 214.892C263.543 218.457 254.069 222.497 251.783 221.879C251.212 221.736 250.545 221.927 250.26 222.307C248.784 224.161 230.644 225.254 221.407 224.018C211.551 222.687 201.695 220.405 191.602 217.078C181.318 213.656 167.986 204.719 156.369 193.454C138.991 176.579 134.134 162.367 140.943 148.582C145.085 140.264 154.131 133.229 164.511 130.329C166.605 129.759 168.843 129.093 169.51 128.903C170.176 128.666 171.176 128.475 171.795 128.475C172.843 128.428 172.843 128.475 172.176 129.806ZM198.315 132.944C204.647 133.942 216.408 138.077 226.073 142.736C242.975 150.911 255.687 160.798 262.591 171.208C267.21 178.196 270.447 187.132 270.447 192.979C270.447 199.063 268.067 204.909 263.924 208.95C259.782 213.085 259.83 213.085 258.258 209.378C255.354 202.533 249.926 194.832 243.784 188.796C232.5 177.625 215.979 167.691 201.886 163.555C200.172 163.032 198.172 162.462 197.363 162.177C195.268 161.511 185.127 159.895 180.556 159.467L176.652 159.087L178.175 156.901C179.032 155.712 179.889 154.666 180.127 154.524C180.318 154.429 181.556 155.237 182.841 156.378C184.174 157.518 185.222 158.184 185.222 157.899C185.222 157.281 181.984 154.096 181.365 154.096C180.461 154.096 181.032 152.955 183.698 149.295C188.983 141.975 189.935 140.501 191.983 136.366C193.84 132.563 194.125 132.231 195.22 132.421C195.887 132.563 197.268 132.753 198.315 132.944ZM169.986 133.086C169.986 133.894 162.035 145.397 155.56 154.001C149.798 161.606 146.418 165.409 145.847 164.886C145.656 164.649 145.466 161.749 145.466 158.469C145.466 152.718 145.561 152.29 146.942 149.343C150.179 142.45 156.274 137.079 163.606 134.655C165.939 133.894 168.272 133.181 168.796 133.039C169.319 132.896 169.795 132.801 169.891 132.753C169.938 132.753 169.986 132.849 169.986 133.086ZM135.182 161.464C135.229 171.303 140.99 181.713 152.465 192.836C157.845 198.065 158.892 199.015 162.844 202.105C181.127 216.46 207.933 226.585 229.977 227.44C245.308 228.058 260.02 224.303 268.781 217.601C271.78 215.319 275.304 211.327 276.78 208.522C277.494 207.191 277.541 207.191 277.589 208.189C277.637 211.944 271.066 226.585 266.067 233.762C257.211 246.549 240.214 253.441 219.264 252.633C207.028 252.205 191.173 248.64 179.556 243.744C173.224 241.083 157.94 231.528 157.274 229.865C157.131 229.484 156.75 229.199 156.369 229.199C155.321 229.199 147.323 222.212 143.371 217.839C131.992 205.147 126.326 191.077 128.04 179.859C128.944 174.155 131.182 165.789 132.849 161.939C133.087 161.416 133.515 160.18 133.848 159.23C134.658 156.901 135.134 157.756 135.182 161.464ZM184.174 161.987C191.84 163.175 200.077 165.457 206.885 168.166C227.93 176.579 247.831 193.454 255.449 209.283C256.354 211.231 257.116 213.038 257.116 213.323C257.116 213.608 255.878 214.416 254.402 215.082C248.117 217.839 238.738 219.217 228.073 218.979C208.123 218.504 187.745 210.851 170.034 197.209C163.606 192.218 155.56 184.47 155.75 183.424C155.845 182.996 157.464 181.095 159.321 179.194C163.225 175.153 172.128 164.981 173.7 162.747C174.7 161.369 175.033 161.226 177.175 161.226C178.461 161.226 181.603 161.559 184.174 161.987ZM268.685 168.879C269.923 170.543 269.923 170.638 269.209 172.064C268.162 174.203 267.781 174.25 266.686 172.349C265.972 171.208 265.686 169.877 265.686 168.023C265.686 165.409 265.734 165.362 266.543 166.265C267.019 166.74 267.971 167.928 268.685 168.879ZM125.469 190.744C125.659 191.553 125.659 192.313 125.516 192.456C125.374 192.598 124.231 192.503 122.993 192.266L120.708 191.885L122.612 190.554C123.66 189.841 124.659 189.271 124.85 189.271C124.993 189.271 125.278 189.936 125.469 190.744Z" fill="#112250"></path><path d="M187.937 154.763C188.508 155.713 191.127 158.613 191.841 159.088C192.841 159.706 191.508 157.424 189.842 155.618C188.366 154.097 187.223 153.574 187.937 154.763Z" fill="#112250"></path><path d="M196.126 157.279C197.65 159.703 199.506 161.747 199.506 160.892C199.506 160.178 196.031 155.378 195.317 155.14C194.983 155.045 195.364 155.996 196.126 157.279Z" fill="#112250"></path><path d="M202.359 157.138C202.359 158.088 205.645 163.365 205.978 162.984C206.311 162.699 204.454 159.039 203.264 157.47C202.55 156.567 202.359 156.52 202.359 157.138Z" fill="#112250"></path><path d="M209.023 158.516C209.023 159.182 211.356 163.888 212.071 164.791C212.88 165.741 212.88 165.741 212.594 164.553C212.118 162.699 210.499 159.467 209.69 158.849C209.357 158.516 209.023 158.374 209.023 158.516Z" fill="#112250"></path><path d="M216.164 161.321C216.164 162.082 218.164 167.12 218.783 168.023C219.545 169.069 219.545 169.069 219.259 167.643C218.735 165.171 217.592 162.272 216.831 161.701C216.497 161.369 216.164 161.226 216.164 161.321Z" fill="#112250"></path><path d="M223.122 165.743C223.455 167.787 225.074 171.97 225.455 171.638C225.788 171.305 224.502 166.837 223.598 165.268L222.836 163.842L223.122 165.743Z" fill="#112250"></path><path d="M252.352 168.357C252.352 168.594 252.59 168.832 252.828 168.832C253.113 168.832 253.304 168.594 253.304 168.357C253.304 168.071 253.113 167.881 252.828 167.881C252.59 167.881 252.352 168.071 252.352 168.357Z" fill="#112250"></path><path d="M229.5 169.544C229.5 171.065 230.405 174.583 231.024 175.201C231.595 175.914 231.5 174.155 230.738 171.256C229.929 168.261 229.5 167.691 229.5 169.544Z" fill="#112250"></path><path d="M235.211 172.918C235.211 174.344 236.306 179.097 236.735 179.525C237.449 180.238 236.639 174.486 235.878 173.346C235.497 172.823 235.211 172.633 235.211 172.918Z" fill="#112250"></path><path d="M240.97 179.525C240.97 180.571 241.304 182.187 241.685 183.09L242.351 184.754L242.161 182.044C241.875 178.67 240.923 176.626 240.97 179.525Z" fill="#112250"></path><path d="M246.306 185.847C246.402 187.225 246.735 188.604 246.973 188.842C247.64 189.507 247.259 185.134 246.592 184.088C246.259 183.518 246.164 183.993 246.306 185.847Z" fill="#112250"></path><path d="M250.974 190.745C250.974 191.648 251.212 192.789 251.45 193.312C251.736 193.93 251.783 193.502 251.593 191.886C251.212 189.034 250.926 188.463 250.974 190.745Z" fill="#112250"></path><path d="M268.778 193.548C268.635 193.786 268.73 194.023 268.968 194.023C269.254 194.023 269.492 193.786 269.492 193.548C269.492 193.263 269.397 193.073 269.302 193.073C269.159 193.073 268.921 193.263 268.778 193.548Z" fill="#112250"></path><path d="M254.781 195.927C254.781 196.308 254.972 197.068 255.21 197.591C255.448 198.209 255.638 198.257 255.638 197.829C255.638 197.448 255.448 196.688 255.21 196.165C254.972 195.547 254.781 195.5 254.781 195.927Z" fill="#112250"></path><path d="M255.688 200.869C255.688 201.249 255.926 201.724 256.164 201.867C256.449 202.009 256.64 201.819 256.64 201.439C256.64 201.059 256.449 200.583 256.164 200.441C255.926 200.298 255.688 200.488 255.688 200.869Z" fill="#112250"></path><path d="M144.27 190.695C146.317 194.688 155.982 205.098 162.362 210.136C175.694 220.641 195.405 228.77 210.212 229.863C214.402 230.148 214.402 230.148 209.974 228.96C202.499 226.963 196.215 224.967 192.596 223.493C192.072 223.256 190.692 222.685 189.501 222.21C185.74 220.689 177.027 216.268 172.837 213.749C163.981 208.378 156.744 202.626 148.793 194.64C145.984 191.836 143.937 190.03 144.27 190.695Z" fill="#112250"></path><path d="M129.992 192.361C129.992 192.741 130.23 193.074 130.468 193.074C130.754 193.074 130.944 192.741 130.944 192.361C130.944 191.981 130.754 191.648 130.468 191.648C130.23 191.648 129.992 191.981 129.992 192.361Z" fill="#112250"></path><path d="M150.701 194.501C150.558 194.739 150.844 194.977 151.367 194.977C151.891 194.977 152.462 194.739 152.605 194.501C152.748 194.216 152.462 194.026 151.939 194.026C151.415 194.026 150.844 194.216 150.701 194.501Z" fill="#112250"></path><path d="M134.75 197.068C136.512 201.727 140.225 207.526 145.225 213.372C147.177 215.654 148.748 217.793 148.653 218.126C148.557 218.458 148.891 218.744 149.319 218.744C149.748 218.744 151.843 220.217 154.033 222.023C161.127 228.013 170.697 234.192 177.982 237.519C179.6 238.28 180.933 239.183 180.933 239.563C180.933 239.991 181.219 240.134 181.695 239.944C182.124 239.753 183.695 240.039 185.171 240.561C197.169 244.744 211.024 247.311 220.689 247.216L224.975 247.169L215.69 245.6C195.884 242.273 183.409 237.947 169.745 229.676C154.89 220.692 144.082 210.805 137.13 199.825C134.559 195.785 133.988 195.119 134.75 197.068Z" fill="#112250"></path><path d="M269.395 221.453C269.728 221.596 270.157 221.548 270.3 221.405C270.49 221.263 270.204 221.12 269.681 221.168C269.157 221.168 269.014 221.31 269.395 221.453Z" fill="#112250"></path><path d="M262.824 224.444C263.491 224.634 264.776 224.824 265.681 224.824C267.204 224.824 267.252 224.777 266.157 224.444C265.49 224.254 264.205 224.064 263.3 224.064C261.777 224.064 261.729 224.111 262.824 224.444Z" fill="#112250"></path><path d="M255.208 225.919C256.684 226.918 259.303 228.106 260.683 228.439C261.921 228.724 262.017 228.676 261.398 228.106C260.636 227.393 255.922 225.397 255.018 225.397C254.732 225.397 254.827 225.634 255.208 225.919Z" fill="#112250"></path><path d="M250.637 228.961C251.923 229.864 253.161 230.625 253.351 230.625C253.541 230.625 254.065 230.767 254.541 230.957C256.208 231.575 254.684 230.149 252.208 228.723C248.78 226.774 247.78 226.917 250.637 228.961Z" fill="#112250"></path><path d="M243.541 229.958C245.541 231.764 248.017 233.238 248.35 232.858C248.493 232.715 247.684 231.907 246.541 231.051C242.637 228.009 240.399 227.201 243.541 229.958Z" fill="#112250"></path><path d="M235.688 229.53C235.735 229.958 239.735 233.143 240.592 233.428C240.877 233.523 240.544 232.905 239.735 232.049C238.259 230.528 235.688 228.865 235.688 229.53Z" fill="#112250"></path><path d="M230.496 231.385C231.4 232.051 232.495 232.811 232.972 233.049C234.495 233.905 232.924 231.861 231.305 230.958C229.163 229.722 228.639 230.007 230.496 231.385Z" fill="#112250"></path><path d="M165.695 190.126C165.695 190.791 166.219 191.124 166.933 190.839C167.314 190.696 167.457 190.411 167.314 190.173C166.981 189.651 165.695 189.603 165.695 190.126Z" fill="#112250"></path><path d="M239.024 197.066C239.024 197.494 239.024 197.969 238.977 198.159C238.977 198.35 239.119 198.587 239.357 198.635C239.929 198.825 240.024 196.971 239.453 196.638C239.215 196.448 239.024 196.686 239.024 197.066Z" fill="#112250"></path><path d="M188.078 203.056C188.078 203.294 188.316 203.531 188.554 203.531C188.84 203.531 189.03 203.294 189.03 203.056C189.03 202.771 188.84 202.581 188.554 202.581C188.316 202.581 188.078 202.771 188.078 203.056Z" fill="#112250"></path><path d="M90.8527 82.3692C90.3766 82.6068 89.9957 82.7019 89.9957 82.5593C89.9957 82.179 87.139 83.7001 85.425 85.0311C84.5203 85.6965 83.6157 86.0293 83.1396 85.8391C82.6159 85.649 82.3778 85.7916 82.3778 86.5046C82.3778 87.0275 82.0921 87.5503 81.7588 87.6929C78.5688 88.8813 56.4293 107.419 57.1911 108.18C57.2863 108.323 58.5718 107.657 60.0002 106.754C62.6188 105.09 65.4756 104.615 66.4754 105.613C66.8563 105.993 67.1896 105.898 67.6181 105.375C67.9514 104.995 68.7132 104.662 69.3321 104.662C69.9035 104.662 70.57 104.425 70.7605 104.14C70.9985 103.712 70.2367 103.617 67.9038 103.807C66.1421 103.949 64.8566 103.949 65.0947 103.759C65.2851 103.569 66.6659 102.571 68.0942 101.478C70.5224 99.7189 70.9509 99.5763 73.9981 99.4813C77.807 99.4337 78.4736 99.1485 75.9026 98.7207C72.665 98.1979 72.665 98.1028 75.2836 96.1064C77.3309 94.5853 78.2356 94.205 79.8068 94.205C82.9015 94.205 84.0442 93.5396 81.4732 93.2544L79.4259 93.0167L81.7588 91.0203C83.0444 89.927 84.5203 88.9763 85.0441 88.8813C85.9011 88.7387 85.9487 89.0239 85.7582 93.2544C85.663 95.7261 85.5202 97.8651 85.425 97.9602C85.2821 98.1028 84.5679 97.8176 83.7585 97.3423C81.2827 95.8687 79.8068 95.2033 79.6163 95.3934C79.1402 95.8212 81.6636 98.5781 85.7582 102.048C88.3293 104.235 89.9957 105.423 89.8053 104.853C89.6624 104.377 89.3291 101.905 89.0435 99.4337C88.8054 96.962 88.2341 93.4445 87.8056 91.6382C87.139 88.8813 87.0914 88.3109 87.6627 87.9781C88.1388 87.6929 87.9484 87.5503 86.9962 87.5503H85.663L86.9962 85.8867C87.7103 84.9835 88.9006 83.9853 89.6148 83.7001C90.329 83.4149 91.186 82.892 91.4717 82.5118C92.0906 81.7512 91.9478 81.7037 90.8527 82.3692Z" fill="#112250"></path><path d="M169.031 85.1731C169.031 85.4108 169.365 85.6484 169.793 85.6484C170.174 85.6484 170.364 85.4108 170.222 85.1731C170.079 84.8879 169.745 84.6978 169.46 84.6978C169.222 84.6978 169.031 84.8879 169.031 85.1731Z" fill="#112250"></path><path d="M101.995 86.9304C102.899 87.9286 104.994 90.1151 106.613 91.8263C109.851 95.2487 109.803 94.8209 108.422 100.763C107.327 105.373 106.946 108.653 107.565 108.273C107.851 108.083 108.279 107.085 108.565 105.991C108.946 104.755 109.803 103.472 110.993 102.379C112.231 101.238 112.85 100.287 112.85 99.4792C112.85 98.3384 112.993 98.386 115.278 100.668L117.707 103.092L116.231 104.565C115.421 105.373 114.755 106.372 114.755 106.752C114.755 107.988 117.278 107.703 118.659 106.324L119.849 105.136L124.325 109.271C126.801 111.6 129.324 113.882 129.943 114.405L131.133 115.355L130.133 113.929C127.705 110.507 101.852 85.1716 100.804 85.1716C100.519 85.1716 101.042 85.9797 101.995 86.9304ZM112.517 98.9088C112.184 99.812 110.47 101.808 109.994 101.808C109.803 101.808 109.898 100.525 110.136 98.9564L110.612 96.0568L111.708 97.1026C112.327 97.7205 112.66 98.4335 112.517 98.9088Z" fill="#112250"></path><path d="M97.0429 87.6445C97.4238 88.0723 97.5666 88.6902 97.3762 88.9754C97.2333 89.2131 97.4238 89.4508 97.8047 89.4508C98.376 89.4508 98.5665 89.9261 98.5665 91.3521C98.5665 93.5387 99.7092 96.1055 100.661 96.1055C102.233 96.1055 101.709 90.2588 100.042 89.2131C99.6139 88.9754 99.6139 88.6902 100.09 88.1198C100.614 87.5019 100.614 87.4543 100.09 87.7395C99.7568 87.9297 99.1854 87.8346 98.8045 87.5494C98.2332 87.0741 98.0904 87.0741 98.0904 87.5494C98.0904 87.9772 97.8999 87.9772 97.281 87.5019C96.5192 86.8839 96.4716 86.9315 97.0429 87.6445Z" fill="#112250"></path><path d="M149.034 88.9744C148.51 89.3072 148.463 89.6874 148.844 90.7332C149.32 92.1592 150.32 92.5395 152.176 92.1117C153.795 91.6838 153.748 89.9251 152.129 89.9251C151.462 89.9251 150.796 89.5924 150.653 89.2121C150.32 88.404 150.034 88.3565 149.034 88.9744Z" fill="#112250"></path><path d="M195.934 88.9739C196.077 89.2116 196.315 89.4492 196.458 89.4492C196.553 89.4492 196.648 89.2116 196.648 88.9739C196.648 88.6887 196.41 88.4985 196.125 88.4985C195.887 88.4985 195.791 88.6887 195.934 88.9739Z" fill="#112250"></path><path d="M62.6212 90.3996C62.2403 91.0175 63.5735 91.5404 64.6209 91.1601C65.3351 90.8749 65.3351 90.7798 64.7638 90.3996C63.8115 89.7816 63.0021 89.8292 62.6212 90.3996Z" fill="#112250"></path><path d="M154.031 91.8254C153.888 92.0631 154.079 92.3008 154.507 92.3008C154.936 92.3008 155.126 92.0631 154.984 91.8254C154.841 91.5402 154.603 91.3501 154.507 91.3501C154.412 91.3501 154.174 91.5402 154.031 91.8254Z" fill="#112250"></path><path d="M134.182 93.8235C132.849 96.2952 131.373 100.003 131.611 100.24C131.707 100.336 133.278 100.526 135.087 100.621C139.182 100.811 140.8 100.098 137.277 99.6701C133.659 99.1472 133.563 99.0046 134.516 95.9625C135.516 92.8253 135.325 91.6369 134.182 93.8235Z" fill="#112250"></path><path d="M160.987 94.3939C161.082 94.489 161.939 94.6791 162.844 94.8693C164.034 95.0594 164.32 95.0119 163.796 94.6791C163.13 94.2513 160.511 93.9661 160.987 94.3939Z" fill="#112250"></path><path d="M94.7578 97.8634C94.7578 102.427 96.8527 109.414 98.2811 109.414C98.5192 109.414 98.6144 107.465 98.4715 104.993C98.2811 101.761 97.9002 99.8598 96.9956 97.7683C95.3292 93.8706 94.7578 93.8706 94.7578 97.8634Z" fill="#112250"></path><path d="M103.61 101.855C102.801 105.706 102.373 120.964 103.039 121.677C103.372 122.01 104.753 118.445 105.182 116.163C105.42 115.022 105.705 114.024 105.801 113.929C105.896 113.786 106.896 115.022 108.038 116.591C110.086 119.49 110.133 119.823 108.562 121.297C108.419 121.439 107.419 122.58 106.42 123.864C105.229 125.337 104.848 126.003 105.467 125.67C107.086 124.814 111.895 120.299 111.895 119.681C111.895 119.3 110.514 117.399 108.895 115.355C105.943 111.79 105.848 111.552 105.753 108.748C105.658 105.706 104.991 102.141 104.325 100.952C104.039 100.477 103.849 100.715 103.61 101.855Z" fill="#112250"></path><path d="M166.648 101.81C166.648 102.095 166.982 102.285 167.363 102.285C167.744 102.285 168.077 102.19 168.077 102.095C168.077 102 167.744 101.81 167.363 101.62C166.982 101.477 166.648 101.572 166.648 101.81Z" fill="#112250"></path><path d="M73.9472 103.757C75.4232 104.802 76.6611 105.753 76.6611 105.848C76.6611 105.943 75.5184 106.656 74.1853 107.464C72.8045 108.272 71.1381 109.366 70.4715 109.936L69.2812 110.887L70.4715 110.602C71.7095 110.269 76.2326 108.082 78.7084 106.561L80.1844 105.658L76.0421 103.709C73.7568 102.663 71.7571 101.808 71.5666 101.808C71.3286 101.808 72.4236 102.663 73.9472 103.757Z" fill="#112250"></path><path d="M203.363 102.711C202.887 103.044 202.887 103.187 203.316 103.472C203.601 103.662 204.077 103.614 204.363 103.329C204.982 102.711 204.173 102.236 203.363 102.711Z" fill="#112250"></path><path d="M42.8594 104.567C42.8594 105.233 43.3831 105.565 44.0973 105.28C44.4782 105.138 44.621 104.852 44.4782 104.615C44.1449 104.092 42.8594 104.044 42.8594 104.567Z" fill="#112250"></path><path d="M110.849 107.99C109.944 108.75 109.04 109.891 108.944 110.557C108.754 111.555 109.087 111.365 111.277 109.273C112.658 107.895 113.801 106.754 113.801 106.706C113.801 106.136 112.277 106.801 110.849 107.99Z" fill="#112250"></path><path d="M50.1927 108.512C49.1928 108.797 48.4786 109.415 48.0977 110.414C47.5264 111.697 47.574 111.982 48.5262 113.266C49.1928 114.169 49.3357 114.644 48.9548 114.644C48.0501 114.692 50.8116 116.973 52.0971 117.306C54.4301 117.876 59.0485 115.69 59.0485 114.026C59.0485 113.646 53.7159 113.931 51.9067 114.454C50.0498 114.929 49.3833 112.695 51.0497 111.649C51.5734 111.269 52.3828 111.317 53.7636 111.792C56.0013 112.505 56.4774 112.267 55.7157 110.841C55.2395 109.938 52.5257 107.942 51.9067 108.037C51.7639 108.037 51.0021 108.275 50.1927 108.512Z" fill="#112250"></path><path d="M117.564 110.272C116.421 111.222 114.993 112.553 114.422 113.171C113.803 113.789 113.327 114.074 113.327 113.742C113.327 113.456 112.993 113.219 112.612 113.219C111.755 113.219 111.66 114.027 112.517 114.312C112.898 114.455 112.755 114.882 111.994 115.69L110.898 116.879L114.565 117.212C120.183 117.639 125.325 117.592 124.992 117.021C124.563 116.356 122.04 115.358 119.754 114.93C118.707 114.74 117.707 114.455 117.564 114.36C117.374 114.264 117.85 112.981 118.659 111.507C119.469 110.081 119.992 108.798 119.897 108.655C119.754 108.56 118.754 109.273 117.564 110.272Z" fill="#112250"></path><path d="M60.6673 109.653C59.8103 110.319 59.8579 110.319 61.191 109.938C63.9049 109.13 64.0477 109.035 62.8098 108.988C62.1432 108.94 61.191 109.273 60.6673 109.653Z" fill="#112250"></path><path d="M226.164 110.365C226.164 110.602 226.402 110.84 226.688 110.84C226.926 110.84 227.021 110.602 226.878 110.365C226.735 110.079 226.497 109.889 226.355 109.889C226.259 109.889 226.164 110.079 226.164 110.365Z" fill="#112250"></path><path d="M78.0453 113.026C77.5691 113.548 77.1406 114.119 77.1406 114.214C77.1406 114.357 79.0927 116.448 81.4733 118.872C85.3299 122.818 85.7108 123.34 84.949 123.863C84.33 124.339 84.2824 124.576 84.7109 124.861C85.0442 125.052 85.5203 125.004 85.806 124.719C86.0917 124.434 86.6154 124.339 86.9963 124.481C88.4723 125.052 86.0441 121.534 82.3303 117.779C80.283 115.687 78.7594 113.786 78.9499 113.596C79.1879 113.358 80.2354 113.501 81.3781 113.929C83.2826 114.594 85.9488 115.07 89.5197 115.307C90.4244 115.402 91.567 115.497 92.0432 115.545C92.7097 115.592 92.2812 116.21 90.3767 118.017L87.8533 120.393L90.1387 120.156C91.9003 119.965 92.3764 120.013 92.3764 120.583C92.3764 120.964 92.8526 122.485 93.3763 123.958C94.2333 126.145 94.4714 126.525 94.8523 125.86C95.376 124.957 95.4712 118.064 94.9951 116.543C94.757 115.735 94.9475 115.45 96.1854 115.022L97.709 114.499L96.2806 113.929C93.662 112.788 89.4245 112.17 84.1872 112.075C79.4736 112.027 78.9023 112.122 78.0453 113.026Z" fill="#112250"></path><path d="M65.1896 114.121C68.1891 118.351 77.1878 124.626 78.0924 123.2C78.3305 122.867 78.0448 122.106 77.4259 121.393C74.95 118.399 72.5694 115.927 71.2839 115.024L69.9032 114.026L70.4745 115.167C70.8078 115.784 71.8553 117.258 72.8075 118.446L74.5215 120.585L72.379 118.922C71.2363 118.019 69.0938 116.26 67.6178 115.024C64.6182 112.41 63.7612 112.124 65.1896 114.121Z" fill="#112250"></path><path d="M136.889 118.635C135.842 118.921 135.033 119.396 135.08 119.634C135.128 119.919 136.937 120.537 139.127 121.107C144.317 122.391 144.745 122.628 144.745 123.959C144.745 125.195 145.221 125.385 146.078 124.53C146.888 123.722 146.793 121.963 145.888 120.584C144.65 118.683 139.984 117.685 136.889 118.635Z" fill="#112250"></path><path d="M61.187 122.247C62.9963 124.482 64.8055 126.573 65.0912 126.906C65.6625 127.476 65.9958 133.18 65.5197 133.18C65.4245 133.18 64.5675 132.467 63.6152 131.612C62.2345 130.423 61.806 129.615 61.5203 127.714C61.2822 126.383 60.8537 124.909 60.5681 124.386C60.0443 123.578 59.9967 123.721 60.2824 125.337C60.4252 126.383 60.6633 127.666 60.8061 128.189C61.1394 129.235 61.3299 129.377 56.9019 125.812C53.2358 122.818 52.8549 122.58 52.8549 123.056C52.8549 123.293 54.7594 125.67 57.14 128.332C61.0442 132.847 61.3299 133.323 60.8537 134.369C60.2348 135.747 59.5206 135.462 59.5206 133.846C59.5206 132.467 58.9969 132.372 57.9494 133.56C57.0448 134.511 56.8543 137.221 57.6161 137.696C58.4255 138.171 58.1875 139.074 55.7593 144.16C50.3315 155.664 49.3793 157.803 48.4746 160.037C47.9509 161.32 47.3319 162.936 47.1415 163.602C46.9511 164.267 46.6178 165.218 46.4273 165.741C46.2369 166.264 46.8082 165.836 47.6652 164.79C49.4269 162.746 53.1882 156.899 53.8548 155.141C54.2833 154 54.569 153.857 57.2828 153.382C59.2349 153.049 61.3299 151.433 60.6633 150.768C60.4252 150.53 59.3302 150.292 58.2827 150.197L56.283 150.055L57.14 148.153C57.6161 147.108 58.3779 145.206 58.854 143.97C59.4254 142.402 60.0443 141.499 60.8061 141.213C61.4251 140.976 61.8536 140.595 61.7108 140.405C61.5679 140.168 62.0917 139.645 62.9011 139.169C64.7579 138.076 64.6627 137.078 62.7582 136.888C61.187 136.745 60.9966 136.27 61.6631 134.273C61.8536 133.751 69.9952 141.641 70.3761 142.687C70.4714 142.925 68.8525 143.97 66.8052 145.016C64.7103 146.014 62.7106 147.25 62.3297 147.725C61.7108 148.486 61.806 148.534 63.9009 148.248C65.0912 148.058 66.3767 147.868 66.7576 147.821C67.2337 147.725 67.3766 148.438 67.4718 150.768C67.5194 152.479 67.6622 154.475 67.8527 155.283C67.9955 156.186 67.8051 157.232 67.2814 158.23C66.1387 160.322 66.71 160.607 69.1858 159.181C72.0902 157.47 75.1849 153.905 75.8991 151.386C76.3752 149.912 75.0421 150.387 72.1378 152.669C70.8522 153.667 69.7096 154.475 69.662 154.38C69.5667 154.333 69.7096 153.097 69.9952 151.671C70.2333 150.245 70.5666 147.868 70.7094 146.347C71.0427 143.352 71.614 142.972 73.1376 144.683C73.6614 145.301 75.423 146.965 76.9942 148.438C79.8985 151.1 79.8985 151.148 78.7558 151.623C77.3751 152.289 76.8037 154.238 77.5655 155.806C77.8512 156.472 78.0893 157.09 78.0893 157.185C78.0893 157.28 76.3276 158.706 74.1851 160.369C70.1857 163.364 59.3302 173.917 57.8066 176.198C54.569 181.142 63.8533 174.059 73.8042 164.077C78.3273 159.514 80.1366 157.993 81.3745 157.755C82.2315 157.565 83.3266 156.947 83.8027 156.377L84.6597 155.331L86.707 156.995C89.897 159.561 90.2779 159.704 89.3733 158.088C88.9448 157.327 88.2306 154.998 87.7545 152.907C87.0879 149.864 86.8975 149.389 86.7546 150.673C86.6594 151.576 86.8022 152.907 87.0879 153.715C87.3736 154.523 87.564 155.283 87.4688 155.378C87.3736 155.473 86.3737 154.428 85.2311 153.049C83.4218 150.958 83.0885 150.197 82.8028 147.725C82.6124 146.109 82.4696 144.778 82.5172 144.731C82.5648 144.683 84.5645 146.252 86.8975 148.248C91.2778 151.908 93.5631 153.477 92.5633 152.146C90.6112 149.579 86.1833 144.208 85.5643 143.733C85.0406 143.257 84.8502 141.974 84.8978 137.981C84.8978 135.177 84.6121 131.754 84.2788 130.423C83.7551 128.094 83.6599 127.951 82.4696 128.237C80.8031 128.617 78.1369 129.853 77.8036 130.376C77.5655 130.804 78.8987 131.041 80.6127 130.899C81.184 130.851 81.4221 131.184 81.4221 132.134C81.4221 132.847 81.8506 135.034 82.3267 136.983C82.8505 138.932 83.1837 140.595 83.1361 140.643C83.0885 140.691 80.4699 138.219 77.3751 135.177C74.2327 132.134 70.2809 128.379 68.6145 126.811L65.5197 124.054L67.5194 124.386C69.9 124.767 70.0428 124.339 68.2336 122.2C66.9005 120.631 64.5675 119.395 62.9011 119.395C62.044 119.395 61.9964 119.538 62.3773 120.631C62.9011 122.01 62.7106 121.915 59.7587 119.681C58.0922 118.397 58.2827 118.682 61.187 122.247ZM70.9475 135.414C70.9475 136.793 70.757 137.934 70.5666 137.934C70.3761 137.934 69.4239 137.125 68.4717 136.127C66.9957 134.606 66.7576 133.988 66.5196 131.326L66.2815 128.284L68.6145 130.613C70.8046 132.8 70.9475 133.038 70.9475 135.414ZM75.6611 137.791C75.7563 137.886 75.9467 139.169 76.0419 140.643L76.2324 143.4L74.1375 141.356C72.1854 139.407 71.9949 139.074 72.0425 136.935L72.0902 134.606L73.7566 136.127C74.7088 136.983 75.5658 137.743 75.6611 137.791ZM80.1366 142.164C81.0888 143.257 81.7554 144.398 81.6602 144.921C81.5649 145.396 81.4697 146.347 81.4697 147.06C81.4221 148.771 81.0412 148.676 79.1367 146.49C77.9464 145.111 77.5655 144.16 77.4703 142.497C77.3275 139.787 77.8988 139.692 80.1366 142.164ZM82.3743 153.334L83.4694 154.523L82.2315 154.808C80.6603 155.236 79.9937 154.808 79.9937 153.334C79.9937 151.861 80.946 151.861 82.3743 153.334Z" fill="#112250"></path><path d="M121.896 120.68C119.278 121.584 119.182 121.631 119.897 122.344C120.754 123.2 128.943 123.01 131.847 122.011C136.037 120.633 134.656 119.872 128.086 119.92C125.753 119.92 123.134 120.253 121.896 120.68Z" fill="#112250"></path><path d="M80.4725 120.68C80.4725 121.013 80.1392 121.298 79.7583 121.298C78.9489 121.298 78.8537 121.726 79.4726 122.676C79.8059 123.199 80.1868 123.247 80.8058 122.914C81.6152 122.534 81.6628 122.344 81.0914 121.298C80.7582 120.632 80.4725 120.395 80.4725 120.68Z" fill="#112250"></path><path d="M43.8125 123.2C43.8125 123.438 44.1458 123.676 44.5267 123.676C44.9076 123.676 45.2409 123.438 45.2409 123.2C45.2409 122.915 44.9076 122.725 44.5267 122.725C44.1458 122.725 43.8125 122.915 43.8125 123.2Z" fill="#112250"></path><path d="M133.89 124.15C134.556 126.099 137.27 128.238 139.556 128.618C141.603 128.951 143.936 128.048 144.698 126.622C145.079 125.909 144.841 125.814 142.698 125.814C140.889 125.814 139.318 125.386 136.937 124.245C135.175 123.437 133.604 122.724 133.509 122.724C133.461 122.724 133.604 123.39 133.89 124.15Z" fill="#112250"></path><path d="M186.65 127.288C185.841 128.239 185.27 129.142 185.413 129.237C185.698 129.523 187.269 127.859 188.126 126.385C188.888 125.102 188.317 125.435 186.65 127.288Z" fill="#112250"></path><path d="M109.518 126.574C109.518 128.048 112.803 133.039 115.374 135.368C117.707 137.507 118.088 138.077 117.612 138.648C117.278 139.028 116.326 139.361 115.517 139.361C114.422 139.361 114.231 139.503 114.755 139.836C115.326 140.216 115.136 140.596 113.612 142.165C112.565 143.258 110.994 144.352 110.089 144.637C109.042 144.97 108.661 145.302 109.042 145.54C109.423 145.778 108.899 146.538 107.328 147.964C104.995 150.103 104.614 150.531 102.709 152.718C102.138 153.431 100.995 154.714 100.233 155.57C97.7576 158.279 97.8528 158.564 100.519 156.758C101.947 155.807 103.185 155.047 103.376 155.047C103.519 155.047 104.661 154.096 105.852 152.908C107.137 151.672 108.565 150.769 109.184 150.769C109.756 150.769 110.565 150.531 110.946 150.293C111.565 149.913 111.517 149.818 110.756 149.818C109.994 149.818 109.946 149.723 110.518 149.01C111.755 147.536 114.898 145.54 116.041 145.54C117.183 145.54 117.564 144.827 116.564 144.447C115.755 144.161 119.707 140.692 121.611 140.026C122.611 139.693 122.849 139.408 122.421 139.17C121.992 138.885 122.992 137.649 125.801 134.892C127.944 132.801 130.705 129.901 131.848 128.523L133.943 126.004L130.324 127.762C128.324 128.761 126.896 129.711 127.182 129.854C127.991 130.377 122.706 134.132 121.183 134.132C119.945 134.132 119.897 134.179 120.659 134.75C121.468 135.368 121.468 135.415 120.278 136.176C118.85 137.126 118.564 137.174 118.564 136.366C118.564 136.033 117.802 134.607 116.898 133.229C115.945 131.803 115.279 130.614 115.326 130.519C115.422 130.472 116.66 130.709 118.088 131.09C121.087 131.85 122.849 131.945 122.849 131.327C122.849 129.854 116.517 127.002 113.279 127.002C112.232 127.002 110.946 126.764 110.422 126.526C109.756 126.146 109.518 126.194 109.518 126.574Z" fill="#112250"></path><path d="M55.0935 129.235C54.4745 129.805 54.7602 130.328 55.7124 130.328C56.2362 130.328 56.6647 129.995 56.6647 129.615C56.6647 128.902 55.6648 128.617 55.0935 129.235Z" fill="#112250"></path><path d="M99.42 129.567C98.563 130.185 98.2297 131.754 98.9439 131.754C99.42 131.754 101.42 129.71 101.42 129.235C101.42 128.712 100.277 128.902 99.42 129.567Z" fill="#112250"></path><path d="M39.2903 129.808C38.957 130.378 39.8617 130.949 40.4806 130.568C41.0044 130.236 40.6711 129.38 40.0045 129.38C39.7664 129.38 39.4808 129.57 39.2903 129.808Z" fill="#112250"></path><path d="M90.7555 132.23C89.3747 133.941 88.3749 137.078 88.8034 138.457C89.1367 139.407 89.1367 139.407 90.0889 138.552C90.6603 138.076 91.4697 137.031 91.9458 136.27L92.8504 134.844V136.746C92.8504 139.74 94.6121 151.291 95.1358 151.814C95.8976 152.574 95.231 143.685 93.9931 136.508C92.8504 129.996 92.7552 129.853 90.7555 132.23Z" fill="#112250"></path><path d="M101.469 132.042C100.517 134.181 100.374 140.55 101.279 144.305L101.993 147.633L102.755 146.207C103.326 145.209 103.516 143.45 103.564 139.409V134.038L104.992 135.844C105.802 136.843 107.563 138.839 108.944 140.313L111.515 142.927L110.134 140.36C109.42 138.982 107.278 136.225 105.468 134.228L102.088 130.663L101.469 132.042Z" fill="#112250"></path><path d="M131.892 133.703C128.607 136.223 119.751 144.446 109.991 154L104.039 159.895L107.134 158.183C108.848 157.28 111.514 155.569 113.085 154.476C115.99 152.384 128.988 139.788 130.845 137.221C131.416 136.413 132.654 134.797 133.558 133.513C134.511 132.277 135.225 131.279 135.13 131.279C135.034 131.279 133.606 132.373 131.892 133.703Z" fill="#112250"></path><path d="M105.234 132.517C105.234 132.897 105.472 133.087 105.71 132.945C105.996 132.755 106.091 132.422 105.949 132.184C105.52 131.519 105.234 131.661 105.234 132.517Z" fill="#112250"></path><path d="M184.6 134.179C181.933 136.032 181.505 136.508 182.267 136.508C182.981 136.508 187.028 133.656 187.314 132.943C187.694 131.945 187.599 131.992 184.6 134.179Z" fill="#112250"></path><path d="M184.266 139.789C182.219 140.455 178.743 142.356 179.362 142.546C180.076 142.784 184.552 140.882 185.266 140.027C185.551 139.646 185.742 139.361 185.647 139.409C185.551 139.409 184.932 139.599 184.266 139.789Z" fill="#112250"></path><path d="M51.8101 140.361C51.334 140.646 50.9531 141.026 50.9531 141.264C50.9531 141.929 52.7148 141.834 53.1433 141.216C53.6194 140.408 52.7148 139.838 51.8101 140.361Z" fill="#112250"></path><path d="M71.6641 150.294C71.5212 150.532 71.7117 150.77 72.1402 150.77C72.5687 150.77 72.7592 150.532 72.6163 150.294C72.4735 150.009 72.2354 149.819 72.1402 149.819C72.045 149.819 71.8069 150.009 71.6641 150.294Z" fill="#112250"></path><path d="M93.6136 153.715C93.7565 153.905 93.3756 154.571 92.8518 155.141C91.9472 156.092 91.852 156.615 92.0424 158.897C92.2805 161.653 94.423 166.93 95.3276 166.93C95.7085 166.93 95.7562 165.646 95.5181 162.747C94.9468 155.902 94.8991 156.235 95.8514 156.282C96.4703 156.33 96.6608 156.044 96.5656 155.046C96.4703 153.905 96.2323 153.668 94.9468 153.525C94.0897 153.43 93.5184 153.525 93.6136 153.715Z" fill="#112250"></path><path d="M56.0002 158.848C52.096 160.512 51.5247 160.987 53.9529 160.607C54.9051 160.464 55.7145 160.512 55.7145 160.797C55.7145 161.653 57.0477 161.177 57.2857 160.227C57.7618 158.468 58.8093 159.561 59.1902 162.223C59.4283 163.649 59.7139 165.313 59.8568 165.978C60.1424 167.072 60.19 167.024 60.4757 165.455C60.9042 163.031 60.4757 157.422 59.8092 157.422C59.5235 157.422 57.8094 158.088 56.0002 158.848Z" fill="#112250"></path><path d="M99.5152 162.223C99.5152 163.886 98.9438 165.122 97.5155 166.548L96.5156 167.546L97.5155 167.927C100.753 169.115 103.657 164.694 101.61 161.795C100.563 160.274 99.5152 160.464 99.5152 162.223Z" fill="#112250"></path><path d="M274.969 161.228C274.826 161.465 275.017 161.703 275.398 161.703C275.826 161.703 276.16 161.465 276.16 161.228C276.16 160.943 275.969 160.752 275.731 160.752C275.445 160.752 275.112 160.943 274.969 161.228Z" fill="#112250"></path><path d="M53.8598 167.407C53.0504 168.881 53.1932 172.921 54.0978 173.682C54.7168 174.157 54.9072 174.157 55.2881 173.587C56.4784 171.781 56.3356 168.073 55.0024 166.98C54.4787 166.552 54.2407 166.647 53.8598 167.407Z" fill="#112250"></path><path d="M99.9922 172.157C99.9922 172.395 100.183 172.633 100.421 172.633C100.706 172.633 101.04 172.395 101.182 172.157C101.325 171.872 101.135 171.682 100.754 171.682C100.325 171.682 99.9922 171.872 99.9922 172.157Z" fill="#112250"></path><path d="M278.062 173.583C278.062 173.821 278.301 174.059 278.539 174.059C278.824 174.059 279.015 173.821 279.015 173.583C279.015 173.298 278.824 173.108 278.539 173.108C278.301 173.108 278.062 173.298 278.062 173.583Z" fill="#112250"></path><path d="M79.327 174.771C79.1842 175.199 79.327 175.484 79.7555 175.484C80.1364 175.484 80.4697 175.152 80.4697 174.771C80.4697 174.391 80.2792 174.058 80.0412 174.058C79.8031 174.058 79.5174 174.391 79.327 174.771Z" fill="#112250"></path><path d="M43.0943 178.337C42.9515 178.575 43.1419 178.812 43.5228 178.812C43.9513 178.812 44.2846 178.575 44.2846 178.337C44.2846 178.052 44.0941 177.862 43.8561 177.862C43.5704 177.862 43.2371 178.052 43.0943 178.337Z" fill="#112250"></path><path d="M65.6661 179.576L64.5234 180.859L65.8566 180.004C66.5708 179.576 67.1421 179.006 67.1421 178.768C67.1421 178.102 66.904 178.245 65.6661 179.576Z" fill="#112250"></path><path d="M83.8047 185.467C83.8047 185.99 84.0427 186.418 84.2808 186.418C84.5665 186.418 84.7569 185.99 84.7569 185.467C84.7569 184.944 84.5665 184.517 84.2808 184.517C84.0427 184.517 83.8047 184.944 83.8047 185.467Z" fill="#112250"></path><path d="M127.941 207.617C127.56 207.997 127.988 208.758 128.607 208.758C128.845 208.758 129.036 208.425 129.036 208.045C129.036 207.332 128.464 207.094 127.941 207.617Z" fill="#112250"></path><path d="M73.2356 223.591C73.4737 223.829 73.9974 223.972 74.3307 223.876C74.7116 223.734 74.4735 223.544 73.8546 223.354C73.0451 223.163 72.8547 223.211 73.2356 223.591Z" fill="#112250"></path><path d="M133.086 227.298C132.944 227.536 133.134 227.773 133.515 227.773C133.944 227.773 134.277 227.536 134.277 227.298C134.277 227.013 134.086 226.823 133.848 226.823C133.563 226.823 133.229 227.013 133.086 227.298Z" fill="#112250"></path><path d="M142.367 238.658C142.367 238.895 142.605 239.276 142.843 239.418C143.129 239.561 143.319 239.513 143.319 239.228C143.319 238.99 143.129 238.61 142.843 238.468C142.605 238.325 142.367 238.372 142.367 238.658Z" fill="#112250"></path><path d="M128.041 241.13C127.518 241.463 127.518 241.558 128.041 241.558C128.375 241.558 128.565 241.843 128.422 242.176C128.279 242.604 128.517 242.794 129.184 242.699C129.755 242.651 130.565 242.556 130.946 242.509C131.422 242.461 131.469 242.366 131.088 242.176C130.755 242.081 130.469 241.7 130.469 241.368C130.469 240.702 128.993 240.512 128.041 241.13Z" fill="#112250"></path><path d="M164.273 249.4C164.273 249.781 164.511 250.113 164.75 250.113C165.035 250.113 165.226 249.781 165.226 249.4C165.226 249.02 165.035 248.687 164.75 248.687C164.511 248.687 164.273 249.02 164.273 249.4Z" fill="#112250"></path></svg> 