<?xml version="1.0" encoding="UTF-8"?> <svg xmlns="http://www.w3.org/2000/svg" width="268" height="74" viewBox="0 0 268 74" fill="none"><path d="M26.8626 53.0156C30.4856 49.4681 34.3538 45.0338 38.4673 39.7126C33.5235 43.8261 29.2213 47.6566 25.5606 51.2041C21.5226 55.0912 19.7489 57.2234 20.2395 57.6008C20.9942 58.1669 23.202 56.6385 26.8626 53.0156ZM44.1848 36.2029C39.7316 42.5053 35.1275 47.9397 30.3724 52.5061C24.9002 57.8273 21.3339 59.9029 19.6734 58.733C18.0506 57.6008 19.9564 54.4119 25.3908 49.1662C27.5042 47.1283 30.1271 44.8074 33.2594 42.2034C35.7879 40.1277 38.5617 37.92 41.5808 35.5802C46.4869 28.7495 49.9966 22.7867 52.1099 17.692C54.6007 11.6538 54.7894 7.50248 52.676 5.23814C49.9211 2.33225 45.4868 1.7473 39.3731 3.48329C33.9009 5.03058 28.108 8.08743 21.9943 12.6538C15.9561 17.107 11.2954 21.7489 8.01207 26.5795C4.42688 31.8629 3.4268 36.1085 5.01183 39.3163C5.91756 41.0901 7.72903 42.1468 10.4462 42.4864C12.6728 42.7883 15.8051 42.6185 19.8432 41.9769C20.1829 41.9392 20.3716 42.0713 20.4093 42.3732C20.4848 42.6751 20.3904 42.9015 20.1262 43.0525C16.3524 44.562 12.8993 44.9583 9.76693 44.2413C6.67234 43.562 4.5967 42.0147 3.54001 39.5994C1.69081 35.4859 2.48333 30.6741 5.91756 25.1643C9.01215 20.1827 13.6352 15.522 19.7866 11.182C25.9003 6.84205 31.9951 3.93615 38.0711 2.46434C44.7131 0.879303 49.9211 1.40765 53.695 4.04937C58.601 7.52134 56.9217 15.9749 48.6568 29.4099C48.3927 29.825 48.1662 30.1835 47.9775 30.4854C48.1662 30.2968 48.3549 30.0892 48.5436 29.8628C50.9966 27.4097 52.676 25.8624 53.5818 25.2209C53.8837 24.8812 54.3365 24.919 54.9404 25.3341C55.5819 25.8247 55.9216 26.2587 55.9593 26.6361C55.9593 27.1644 55.5631 28.1456 54.7705 29.5797C54.4686 30.1458 54.0535 30.844 53.5251 31.6742L52.8459 32.8064L52.1666 33.8819C49.8645 37.7313 48.9965 39.9579 49.5626 40.5617C49.9777 41.0146 51.808 40.0334 55.0536 37.6181C56.1103 36.8633 57.2236 36.0142 58.3935 35.0707C58.4689 35.033 58.5256 34.9764 58.5633 34.9009C60.2993 30.1458 63.1108 25.3718 66.9979 20.579C71.6398 14.8804 76.8855 10.2952 82.735 6.82318C89.1884 2.97381 95.453 1.10574 101.529 1.21895C106.926 1.29443 111.058 2.36999 113.926 4.44563C116.417 6.25709 117.776 8.69125 118.002 11.7481C118.228 14.503 117.511 17.3335 115.851 20.2393C114.266 23.0698 112.152 25.3341 109.511 27.0323C109.209 27.1833 108.982 27.1078 108.831 26.8059C108.643 26.504 108.718 26.2021 109.058 25.9002C113.134 22.3527 115.323 18.2203 115.624 13.503C115.926 8.48369 113.7 5.12493 108.945 3.42668C103.699 1.53973 97.623 2.20016 90.7168 5.40797C84.5276 8.27612 78.6404 12.6727 73.055 18.5977C67.5829 24.4095 63.6769 30.2779 61.3371 36.2029C58.8463 42.5808 58.7897 47.6189 61.1673 51.3173C63.2429 54.6006 67.2432 56.28 73.1682 56.3554C78.1498 56.4309 84.1502 55.3742 91.1697 53.1854C97.1702 51.2984 102.963 48.9209 108.548 46.0527C113.794 43.3355 117.172 41.0901 118.681 39.3163C119.096 38.8257 119.493 38.7125 119.87 38.9767C120.21 39.2786 120.191 39.7126 119.813 40.2787C118.077 42.3543 114.624 44.8828 109.454 47.8642C103.68 51.223 97.8117 53.8836 91.849 55.846C84.6031 58.2613 78.3007 59.2613 72.9418 58.8462C66.5262 58.3179 61.8088 55.7705 58.7897 51.2041C56.5254 47.7699 56.1669 43.2223 57.7142 37.5615C57.299 37.9766 56.8839 38.3729 56.4688 38.7503C53.3365 41.4675 50.7136 42.4298 48.6002 41.6373C46.6001 40.8825 46.6944 38.6559 48.8833 34.9575C49.2607 34.3159 49.6947 33.6366 50.1853 32.9196L50.808 31.9573C50.9966 31.7308 51.2042 31.4478 51.4306 31.1081L53.5251 27.5984C52.1666 28.3155 49.8267 30.4666 46.5057 34.0518C46.1661 34.3537 45.8453 34.6367 45.5434 34.9009C45.2792 35.1651 44.8263 35.5991 44.1848 36.2029ZM139.921 38.5804C140.034 38.3917 140.204 38.3729 140.43 38.5238C140.657 38.6748 140.713 38.8635 140.6 39.0899C139.619 40.7882 137.77 42.4864 135.053 44.1847C134.034 44.8262 132.694 45.581 131.033 46.449L128.826 47.6378L126.505 48.8265C122.58 56.7517 119.108 62.5824 116.089 66.3185C112.051 71.3378 108.617 72.9794 105.786 71.2434C103.069 69.5829 103.107 66.6582 105.899 62.4691C108.239 58.9594 111.522 55.7328 115.749 52.7891C118.164 51.0909 121.089 49.3549 124.523 47.5812C125.618 45.3923 126.675 43.2412 127.694 41.1278C128.109 40.2976 128.505 39.4484 128.882 38.5804C129.184 38.0144 129.524 37.3162 129.901 36.4859L128.599 38.1842L127.241 39.9956C126.222 41.3165 125.316 42.4109 124.523 43.2789C122.41 45.5433 120.75 46.5811 119.542 46.3924C118.523 46.2792 117.73 45.9395 117.164 45.3734C116.523 44.7319 116.315 43.9771 116.542 43.1091C117.221 40.6183 118.882 37.8257 121.523 34.7311C124.391 31.3346 126.788 29.7873 128.712 30.0892C129.807 30.2779 130.448 30.7874 130.637 31.6176C130.713 31.9195 130.713 32.278 130.637 32.6932C130.562 33.0328 130.448 33.3913 130.298 33.7687L131.26 32.7498L132.222 31.7874C132.26 31.7497 132.373 31.712 132.562 31.6742C132.788 31.6365 133.015 31.6365 133.241 31.6742C133.883 31.712 134.222 31.9761 134.26 32.4667C133.656 33.448 132.845 35.0896 131.826 37.3917L131.43 38.1842L131.033 39.0899C130.694 39.8447 130.411 40.5051 130.184 41.0712C129.392 42.7317 128.618 44.3734 127.863 45.9961C134.317 42.8638 138.336 40.3919 139.921 38.5804ZM119.259 44.7507C120.127 44.864 121.429 43.996 123.165 42.1468C123.806 41.4675 124.637 40.524 125.656 39.3163L126.958 37.7313L128.316 36.1463C128.845 35.0519 129.165 33.9952 129.279 32.9762C129.43 31.844 129.222 31.3157 128.656 31.3912C127.712 31.5799 126.448 32.58 124.863 34.3914C123.467 35.9387 122.127 37.7313 120.844 39.7692C118.844 43.0148 118.315 44.6753 119.259 44.7507ZM105.956 70.1679C107.579 71.3755 110.107 69.8848 113.541 65.6958C116.485 62.0729 119.636 57.0725 122.995 50.6946C120.316 52.1664 118.032 53.5628 116.145 54.8836C112.938 57.1857 110.145 59.9218 107.767 63.0918C105.012 66.677 104.409 69.0357 105.956 70.1679ZM158.051 38.354C158.278 38.203 158.485 38.203 158.674 38.354C158.825 38.505 158.844 38.6748 158.731 38.8635C157.901 40.3353 156.693 41.7505 155.108 43.1091C153.749 44.2413 152.108 45.147 150.183 45.8263C148.107 46.5433 146.201 46.8075 144.466 46.6188C141.597 46.3546 139.654 44.8828 138.635 42.2034C137.767 39.8258 138.974 36.9577 142.258 33.5989C143.654 32.1648 145.107 31.0704 146.617 30.3156C148.239 29.4854 149.598 29.2023 150.692 29.4665C152.315 29.8816 153.24 30.6364 153.466 31.7308C153.655 32.7498 153.221 33.8819 152.164 35.1273C149.711 38.071 146.013 39.9013 141.069 40.6183C140.767 42.0524 140.975 43.1846 141.692 44.0148C143.088 45.5244 145.201 45.864 148.032 45.0338C149.089 44.6941 150.202 44.2224 151.372 43.6186C152.353 43.0902 153.221 42.5241 153.976 41.9203C154.881 41.241 156.24 40.0523 158.051 38.354ZM143.164 36.2029C142.409 37.2218 141.805 38.3351 141.352 39.5428C143.767 38.8635 146.22 37.3539 148.711 35.0141C151.164 32.6743 151.787 31.2025 150.579 30.5987C149.824 30.259 148.504 30.9006 146.617 32.5233C145.9 33.1649 145.201 33.8631 144.522 34.6179C143.918 35.2594 143.465 35.7878 143.164 36.2029ZM166.501 41.8637C166.954 40.8448 167.313 40.09 167.577 39.5994C167.954 38.9578 168.388 38.2785 168.879 37.5615L169.501 36.5991C169.69 36.3727 169.898 36.0897 170.124 35.75C170.992 34.5424 171.407 33.9008 171.369 33.8253C171.332 33.9008 171.143 34.1461 170.803 34.5612C170.426 35.0519 169.992 35.5991 169.501 36.2029C168.181 37.8257 166.86 39.3352 165.539 40.7316C161.463 44.9583 158.595 46.9207 156.934 46.6188C156.066 46.4679 155.576 45.9584 155.463 45.0904C155.236 43.4299 155.991 41.1656 157.727 38.2974L158.18 37.1652C158.18 36.9011 158.331 36.7124 158.633 36.5991C158.897 36.5237 159.218 36.5425 159.595 36.6558C159.972 36.769 160.255 36.9388 160.444 37.1652C160.671 37.4294 160.689 37.7124 160.501 38.0144L160.218 38.8635L159.538 39.939C157.614 43.2601 156.878 45.0149 157.331 45.2036C157.897 45.3923 160.406 43.3733 164.86 39.1465C169.426 34.7688 171.954 31.712 172.445 29.976C172.596 29.5231 172.992 29.5231 173.634 29.976C174.275 30.4666 174.615 30.9006 174.653 31.278C174.653 31.8063 174.257 32.7875 173.464 34.2216C173.162 34.7877 172.747 35.4859 172.219 36.3161L171.539 37.4483L170.86 38.5238C170.634 38.9012 170.388 39.3352 170.124 39.8258C168.162 43.2223 167.407 45.0149 167.86 45.2036C168.426 45.3923 170.936 43.3733 175.389 39.1465C179.238 35.4481 181.634 32.6932 182.578 30.8817C182.767 30.5421 182.899 30.2401 182.974 29.976C183.012 29.9005 183.05 29.825 183.087 29.7495C183.125 29.7118 183.182 29.6741 183.257 29.6363C183.446 29.5608 183.748 29.6741 184.163 29.976C184.805 30.4666 185.144 30.9006 185.182 31.278C185.182 31.8063 184.786 32.7875 183.993 34.2216C183.691 34.7877 183.276 35.4859 182.748 36.3161L182.068 37.4483L181.389 38.5238C179.087 42.3732 178.219 44.5998 178.785 45.2036C179.2 45.6565 181.031 44.6753 184.276 42.26C185.333 41.5052 186.446 40.6561 187.616 39.7126C187.993 39.4107 188.352 39.1088 188.692 38.8069C188.805 38.7314 188.899 38.6559 188.975 38.5804L189.088 38.4672C189.239 38.354 189.409 38.354 189.597 38.4672C189.824 38.5804 189.88 38.7503 189.767 38.9767L189.654 39.0899C189.616 39.1654 189.541 39.2786 189.428 39.4296C189.163 39.7315 188.88 40.0711 188.578 40.4485C187.635 41.5429 186.673 42.5241 185.691 43.3921C182.559 46.1093 179.936 47.0717 177.823 46.2792C175.823 45.5244 175.917 43.2978 178.106 39.5994C178.483 38.9578 178.917 38.2785 179.408 37.5615L180.031 36.5991C180.219 36.3727 180.427 36.0897 180.653 35.75C181.521 34.5424 181.936 33.9008 181.899 33.8253C181.861 33.9008 181.672 34.1461 181.333 34.5612C180.955 35.0519 180.521 35.5991 180.031 36.2029C178.71 37.8257 177.389 39.3352 176.068 40.7316C171.992 44.9583 169.124 46.9207 167.464 46.6188C166.596 46.4679 166.105 45.9584 165.992 45.0904C165.878 44.2224 166.048 43.1468 166.501 41.8637ZM213.255 32.3535C210.311 34.8443 207.726 37.5615 205.499 40.5051C205.198 41.4863 205.179 42.5808 205.443 43.7884C205.707 44.996 206.103 45.5433 206.632 45.43C208.594 45.2791 211.273 42.7506 214.67 37.8445C216.029 35.8444 217.066 33.9386 217.783 32.1271C218.576 30.2401 218.689 29.2589 218.123 29.1835C217.482 29.0702 215.859 30.1269 213.255 32.3535ZM220.387 12.1444C217.444 15.7673 214.293 20.7677 210.934 27.1456C213.651 25.6737 215.934 24.2774 217.783 22.9565C221.029 20.6545 223.841 17.9184 226.218 14.7483C228.935 11.1254 229.52 8.76673 227.973 7.6723C226.35 6.46466 223.822 7.95534 220.387 12.1444ZM209.971 29.976L210.085 30.1458C208.99 31.6176 207.707 33.731 206.235 36.4859L205.782 37.3917L205.273 38.2974C207.5 35.316 209.764 32.7687 212.066 30.6553C214.368 28.5419 215.953 27.5229 216.821 27.5984C217.765 27.7116 218.614 28.1645 219.368 28.957C220.161 29.7873 220.501 30.6741 220.387 31.6176C220.048 33.3159 218.991 35.5047 217.217 38.1842C214.01 43.0525 211.085 46.0339 208.443 47.1283C208.103 47.2415 207.594 47.2038 206.915 47.0151C206.16 46.8264 205.632 46.5622 205.33 46.2226C204.877 45.7697 204.556 45.147 204.367 44.3545C204.216 43.7884 204.16 43.128 204.197 42.3732C203.254 43.7318 202.48 45.0904 201.877 46.449C201.461 48.1095 201.386 49.3549 201.65 50.1851C201.386 50.4116 201.027 50.4493 200.575 50.2984C200.159 50.1474 199.895 49.9398 199.782 49.6757C198.725 47.3736 200.291 42.4675 204.48 34.9575C205.16 33.7499 206.141 31.7686 207.424 29.0136C211.349 21.0885 214.84 15.2578 217.897 11.5217C221.935 6.5024 225.35 4.86075 228.143 6.59674C230.898 8.25725 230.86 11.182 228.03 15.371C225.69 18.8807 222.406 22.1074 218.18 25.0511C215.915 26.6361 213.179 28.2777 209.971 29.976ZM247.185 38.4106C247.6 38.3729 247.864 38.5427 247.977 38.9201C243.637 44.5809 239.826 47.4113 236.542 47.4113C235.75 47.4113 235.052 47.2415 234.448 46.9019C233.731 46.5245 233.297 45.9961 233.146 45.3168C232.391 42.5241 233.259 38.3917 235.75 32.9196L235.014 33.9952L234.222 35.1273L232.637 37.4483C231.391 39.1843 230.297 40.6183 229.353 41.7505C226.9 44.7696 225.089 46.2037 223.919 46.0527C222.938 45.9018 222.164 45.5433 221.598 44.9772C220.956 44.3734 220.749 43.6374 220.975 42.7695C221.654 40.2409 223.315 37.4294 225.957 34.3348C228.825 30.9383 231.221 29.4099 233.146 29.7495C234.24 29.9005 234.995 30.2779 235.41 30.8817C236.92 28.8815 238.128 27.4663 239.033 26.6361C239.411 26.4851 239.826 26.4851 240.279 26.6361C240.769 26.787 241.128 27.0701 241.354 27.4852C240.826 28.2777 240.165 29.4854 239.373 31.1081C238.392 33.1083 237.561 34.9952 236.882 36.769C234.957 41.9015 234.806 44.9017 236.429 45.7697C237.184 46.1471 238.939 45.3357 241.694 43.3355C244.26 41.4863 246.09 39.8447 247.185 38.4106ZM223.636 44.4111C224.504 44.4866 226.07 43.128 228.334 40.3353C229.089 39.3918 230.127 38.0144 231.448 36.2029L233.033 33.9952L234.674 31.844C234.448 31.127 233.92 30.8628 233.089 31.0515C232.146 31.2025 230.882 32.1837 229.297 33.9952C227.9 35.5425 226.561 37.3351 225.277 39.373C223.315 42.6185 222.768 44.2979 223.636 44.4111ZM259.801 35.0707C260.179 33.5234 259.877 32.278 258.896 31.3346C258.103 30.5421 256.65 30.9572 254.537 32.58C253.744 33.146 252.952 33.8253 252.159 34.6179C251.48 35.3349 250.97 35.9198 250.631 36.3727C248.027 39.9956 247.423 42.5808 248.819 44.1281C249.952 45.298 251.688 45.7508 254.027 45.4867C256.594 45.2225 258.971 44.4111 261.16 43.0525C262.443 42.26 264.349 40.7504 266.877 38.5238C267.104 38.3729 267.311 38.3729 267.5 38.5238C267.651 38.6748 267.67 38.8446 267.557 39.0333C266.16 41.5241 263.953 43.5054 260.934 44.9772C257.952 46.4867 254.952 47.0906 251.933 46.7886C249.065 46.5245 247.14 45.0338 246.159 42.3166C245.291 39.9768 246.498 37.1086 249.782 33.7121C251.178 32.3158 252.631 31.2214 254.141 30.4288C255.726 29.5986 257.065 29.3155 258.16 29.5797C259.707 29.9571 260.707 30.7685 261.16 32.0139C261.575 33.0706 261.481 34.1084 260.877 35.1273C260.726 35.3538 260.5 35.4859 260.198 35.5236C259.896 35.5236 259.764 35.3726 259.801 35.0707Z" fill="#D92F88"></path></svg> 