<?xml version="1.0" encoding="UTF-8"?> <svg xmlns="http://www.w3.org/2000/svg" width="108" height="66" viewBox="0 0 108 66" fill="none"><path d="M13.6725 54.443L12.8262 54.5048C12.2156 54.5835 11.7158 54.4197 11.3269 54.0132C10.802 53.6092 10.3024 53.0086 9.82818 52.2114C9.10426 50.8955 8.5319 49.2736 8.1111 47.3456L8.00021 46.8376C7.68746 45.4047 7.45571 43.9677 7.30496 42.5267C7.12908 40.8455 7.0551 39.7562 7.08301 39.2589C7.13355 37.3645 7.30278 35.8264 7.59071 34.6445C7.94211 33.5033 8.17038 32.7984 8.27552 32.5298C8.58764 31.8339 8.87608 31.2796 9.14085 30.867C9.50415 30.4056 9.93211 30.0529 10.4247 29.8089C10.5697 29.7227 10.7724 29.6511 11.033 29.5943C11.3717 29.5203 11.6566 29.5127 11.8878 29.5715L13.2748 29.9238C13.4799 29.9882 13.6114 30.0277 13.6692 30.0424C13.8425 30.0865 14.0313 30.2636 14.2355 30.5739C14.3331 30.7709 14.4104 30.9997 14.4672 31.2603C14.5298 31.5468 14.5577 31.8 14.5511 32.0198C14.5114 33.3386 14.2264 34.5336 13.6959 35.6047L13.6653 35.6523C13.5024 35.9062 13.3558 36.0474 13.2255 36.0758L12.8177 36.0829C12.676 36.0593 12.6329 35.9868 12.6883 35.8655L12.8695 35.0071C13.0807 34.2241 13.2068 33.3641 13.248 32.4271C13.175 31.8425 13.1357 31.5372 13.13 31.5112C13.0333 31.0683 12.9073 30.741 12.7519 30.5292C12.6339 30.3639 12.5053 30.3374 12.366 30.4497C12.0183 30.6074 11.6527 30.9329 11.269 31.4261C10.9171 31.9396 10.6388 32.478 10.4342 33.0412C9.93695 34.5145 9.60215 35.8568 9.42981 37.068C9.22957 38.7767 9.16336 40.2241 9.23119 41.4103L9.36427 44.0834C9.55482 45.7067 9.74393 46.9483 9.93158 47.8081C10.0794 48.4854 10.2692 49.1673 10.5009 49.8537C10.87 50.9195 11.3495 51.8657 11.9393 52.6923C12.2932 53.1882 12.6447 53.5482 12.9938 53.7722C13.1582 53.9001 13.3361 53.9022 13.5275 53.7786C14.0324 53.3409 14.4478 52.8681 14.7737 52.3602C15.4605 51.255 16.0174 50.0553 16.4446 48.7611C16.9068 47.3774 17.2493 46.3201 17.4718 45.5891L18.6645 41.1118C18.7086 40.9384 18.8246 40.8449 19.0127 40.8311C19.467 40.7865 19.7055 40.8164 19.7282 40.9206C19.7453 40.9987 19.7098 41.2112 19.6217 41.558C19.5327 42.1506 19.2656 43.1778 18.8204 44.6397C18.5945 45.4806 18.2239 46.7215 17.7087 48.3624C17.3165 49.5671 17.0051 50.4539 16.7745 51.0228C16.3866 51.8717 16.0065 52.5688 15.6342 53.1141L14.9415 53.8794C14.5554 54.2366 14.1324 54.4244 13.6725 54.443ZM27.6791 39.349L27.0361 40.7176L25.9996 42.909C25.5278 43.7489 25.0061 44.4223 24.4344 44.9292C24.3733 45.0245 24.2442 45.1209 24.0472 45.2185C23.8875 45.3625 23.6514 45.4686 23.3388 45.5368C23.1303 45.5823 22.9423 45.5961 22.7746 45.5781C21.7627 45.4441 20.9349 45.2154 20.2911 44.8919C19.2778 44.3761 18.6376 43.506 18.3703 42.2815C18.1372 41.2133 18.2145 40.2547 18.6024 39.4058C18.8624 38.7213 19.2591 38.2253 19.7925 37.9178C19.9839 37.7942 20.1707 37.7124 20.3531 37.6726C20.6397 37.6101 20.9303 37.6285 21.225 37.728L21.8318 37.8821C22.2103 37.9906 22.4393 38.2272 22.519 38.5919L22.5261 38.9998C22.5285 39.1357 22.4963 39.2383 22.4295 39.3075C22.2452 39.839 21.9149 40.3887 21.4384 40.9567C21.0988 41.2765 20.7234 41.4949 20.3122 41.612C20.1095 41.6835 20.0337 41.8365 20.0849 42.071C20.2602 43.1245 20.6563 43.9388 21.2731 44.5138L21.4891 44.7532C21.8236 45.0351 22.1341 45.1447 22.4207 45.0822C22.577 45.048 22.7378 44.972 22.9031 44.854C23.2972 44.6588 23.6584 44.3753 23.9867 44.0034C24.5707 43.3028 25.0623 42.554 25.4616 41.7572L26.0435 40.4839L26.6289 39.4144C26.7511 39.224 26.8382 39.1231 26.8903 39.1117C26.9424 39.1003 27.0002 39.115 27.0637 39.1558C27.1533 39.1908 27.2241 39.2026 27.2762 39.1913C27.4903 39.1718 27.6246 39.2244 27.6791 39.349ZM20.1402 41.1991L20.3271 41.1174C20.9305 40.6309 21.3639 39.9904 21.6273 39.196C21.6689 38.8866 21.6568 38.6436 21.591 38.4669L21.5654 38.3497C21.4678 38.1526 21.3363 38.1131 21.171 38.2311C20.9275 38.3661 20.7345 38.5447 20.5919 38.7669C20.1008 39.3927 19.9026 40.1729 19.9974 41.1075C19.9623 41.197 20.0099 41.2276 20.1402 41.1991ZM29.5661 46.4704L28.3389 46.2879C28.1655 46.2438 28.0618 46.1437 28.0277 45.9873L27.7206 44.5805C27.7012 44.3663 27.6147 43.9076 27.4611 43.2041L27.0176 41.172L26.535 39.1483C26.2961 38.0541 26.1021 36.9774 25.9528 35.9182C25.9471 35.8921 25.9248 35.665 25.8859 35.2368C25.9039 35.0691 25.9764 35.026 26.1034 35.1074C26.2133 35.1107 26.4705 35.1638 26.875 35.2665C26.9906 35.2959 27.0757 35.3729 27.1301 35.4974L27.1643 35.6538C27.2292 36.0763 27.3628 36.6886 27.5652 37.4905C27.7879 38.2608 27.9049 38.6719 27.9163 38.724C28.2901 40.0617 28.5543 40.9594 28.7087 41.417C28.7372 41.5472 28.7774 41.6067 28.8296 41.5953C28.893 41.6361 28.9627 41.5799 29.0384 41.4269L29.5272 40.6651C30.4016 38.9185 31.0156 37.5426 31.3694 36.5374C31.4835 36.1849 31.524 35.8076 31.4908 35.4055C31.4666 34.9194 31.4578 34.5665 31.4645 34.3467L31.5049 33.9694C31.558 33.7122 31.6496 33.5694 31.7799 33.5409C31.858 33.5239 31.9838 33.5374 32.1572 33.5814L32.8813 33.71C33.2076 33.8298 33.3891 34.0358 33.4256 34.3281C33.5564 34.9273 33.6452 35.5221 33.6922 36.1123C33.7903 36.937 33.8576 37.4955 33.8941 37.7878L33.9951 38.6255C34.1932 39.7832 34.5118 40.8055 34.951 41.6922C35.1258 42.118 35.3357 42.4544 35.5806 42.7011C35.6294 42.7997 35.7422 42.816 35.9189 42.7501C36.3854 42.5118 36.7409 42.2022 36.9853 41.8214L37.413 41.1548C38.2718 39.7119 38.942 38.4056 39.4236 37.2359C39.5141 37.0251 39.6408 36.7928 39.8037 36.5389C39.8534 36.3915 39.965 36.3399 40.1384 36.3839L40.3984 36.45C40.5401 36.4737 40.6137 36.4985 40.6194 36.5246C40.6251 36.5506 40.6031 36.6373 40.5534 36.7847L38.5208 40.7902C38.031 41.7978 37.609 42.4904 37.2547 42.868C37.1122 43.0902 37.0046 43.2228 36.9322 43.2659C36.7725 43.4099 36.6146 43.499 36.4582 43.5331C36.328 43.5616 36.205 43.5611 36.0895 43.5317C35.2339 43.3636 34.6141 43.2123 34.2299 43.0778C33.7562 42.9083 33.3843 42.58 33.1142 42.0931C32.7409 41.383 32.4543 40.695 32.2543 40.029C32.0657 39.4151 31.9601 39.056 31.9373 38.9518L31.8143 38.2008L31.712 37.7318L31.6644 37.7012L31.5862 37.7183L31.4946 37.8611L31.1095 38.7231L30.4921 40.2089C30.1597 40.9365 29.8814 41.4749 29.6574 41.8241L29.3519 42.3001C29.1482 42.6175 29.1151 42.966 29.2525 43.3454C29.4069 43.803 29.4898 44.0578 29.5012 44.1099C29.7808 45.1407 29.9291 45.6951 29.9462 45.7733L29.9888 45.9687L30.0229 46.125C30.0684 46.3335 30.026 46.4519 29.8958 46.4803L29.5661 46.4704ZM41.7165 45.2923C41.5284 45.3061 41.3754 45.2303 41.2575 45.065L40.6449 44.1342C40.191 43.3052 39.8447 42.3436 39.6058 41.2494C39.4125 40.3636 39.2172 39.2189 39.0201 37.8153L38.9106 36.9385C38.7873 35.8736 38.703 35.237 38.6575 35.0285C38.4238 33.3327 38.3034 32.2809 38.2963 31.873L38.1291 29.0436C38.0812 28.6992 38.1354 28.5099 38.2917 28.4758C38.396 28.4531 38.5478 28.4609 38.7472 28.4992C38.9466 28.5376 39.0793 28.6451 39.1452 28.8218L39.3818 29.3433C39.768 30.4873 40.0407 31.424 40.1999 32.1535C40.2999 32.4865 40.4835 33.2653 40.7507 34.4898C41.018 35.7143 41.1756 36.4987 41.2234 36.8431C41.5808 38.7303 41.785 39.7912 41.8362 40.0257C41.893 40.2862 41.943 40.4527 41.9861 40.5252C42.0733 40.4243 42.1112 40.3477 42.0998 40.2956L42.2403 37.5628C42.3638 36.253 42.5385 35.1777 42.7644 34.3369C42.8208 33.9697 42.9202 33.6751 43.0628 33.4529C43.2087 33.1208 43.4623 32.9699 43.8238 33.0002C44.1331 33.0419 44.3269 33.0542 44.405 33.0371C44.6826 33.0584 44.8991 33.1749 45.0545 33.3867L45.4169 33.9217L46.5383 35.6831L46.603 35.7918C46.7551 36.1134 46.9093 36.2572 47.0656 36.2231C47.1177 36.2117 47.2643 36.0705 47.5054 35.7995C48.0056 35.0899 48.3037 34.6427 48.3999 34.4579C48.4553 34.3367 48.6675 34.0583 49.0365 33.623C49.2368 33.4155 49.4628 33.3252 49.7143 33.3522L50.6253 33.399C50.9029 33.4203 51.1454 33.5312 51.3529 33.7315L52.2561 34.6808L52.8651 35.4076L53.2154 35.6996C53.3741 35.8015 53.5577 35.8296 53.7661 35.7841C53.9745 35.7386 54.102 35.6972 54.1484 35.6598C55.3013 35.1898 56.1739 34.6854 56.766 34.1468L58.177 32.7334L58.6864 32.2537C58.8371 32.1935 58.9673 32.1651 59.0772 32.1684L59.203 32.1819C59.5644 32.2122 59.7509 32.2534 59.7622 32.3055L59.7708 32.3446C59.8106 32.5269 59.7087 32.6856 59.4653 32.8207L58.6198 33.824C57.9282 34.6573 56.9771 35.3017 55.7663 35.757C55.2363 35.9546 54.8931 36.0704 54.7368 36.1045C53.9291 36.2808 53.0601 36.2385 52.1297 35.9775C51.8611 35.8724 51.61 35.7225 51.3765 35.5278C51.2121 35.3999 50.8968 35.0184 50.4306 34.3832C50.2321 34.099 50.0938 33.9654 50.0156 33.9824C49.8854 34.0109 49.749 34.1362 49.6064 34.3584L49.1481 35.0725L48.6068 35.9686C48.5049 36.1273 48.377 36.2916 48.2231 36.4617C48.0024 36.701 47.7141 36.8185 47.3584 36.8142L46.478 36.7198C45.9228 36.6772 45.4841 36.4181 45.162 35.9425C44.9 35.6176 44.7003 35.2654 44.5629 34.886L44.1067 33.9211C44.0692 33.8747 44.0245 33.8571 43.9724 33.8685C43.9406 33.8481 43.9174 33.8669 43.9027 33.9247L43.6448 34.4313C43.283 35.2745 43.0296 36.4898 42.8848 38.0772C42.8389 38.7423 42.8271 39.5637 42.8495 40.5414L42.8318 41.7735L42.8234 43.9862C42.8543 44.2524 42.8761 44.6025 42.8889 45.0364C42.923 45.1927 42.846 45.2778 42.658 45.2915C42.6319 45.2972 42.5119 45.3098 42.2977 45.3292C42.104 45.3169 41.9102 45.3046 41.7165 45.2923ZM52.4944 29.0197L52.2905 29.0233C51.1792 29.184 49.8689 29.1834 48.3597 29.0215C47.1801 28.8695 45.9944 28.8144 44.8026 28.8562C44.6667 28.8586 44.3903 28.9052 43.9734 28.9962C43.5826 29.0815 43.2003 29.2059 42.8266 29.3694C42.3747 29.5499 42.0367 29.8147 41.8127 30.1638C41.6848 30.3282 41.7002 30.4613 41.8589 30.5632L42.097 30.7159C42.1604 30.7566 42.1979 30.8031 42.2092 30.8552C42.232 30.9594 42.1652 31.0286 42.0089 31.0627C41.7744 31.1139 41.5664 31.0364 41.385 30.8304L40.9323 30.0694C40.9006 30.049 40.8676 29.9607 40.8335 29.8044C40.8051 29.6741 40.8332 29.4905 40.918 29.2537C41.0435 28.9533 41.2455 28.6909 41.5241 28.4663C41.7301 28.2849 42.0664 28.075 42.533 27.8367C42.9068 27.6732 43.276 27.5517 43.6407 27.4721C44.0315 27.3868 44.5119 27.3366 45.0817 27.3214C45.7762 27.2517 46.6469 27.239 47.6937 27.2835L49.0907 27.3061C50.0481 27.3155 50.9232 27.261 51.7162 27.1425L52.0288 27.0743C52.4717 26.9776 52.8251 26.8459 53.089 26.6791C53.2656 26.6132 53.3369 26.5022 53.3028 26.3458C53.2857 26.2677 53.3163 26.2201 53.3945 26.203C53.4205 26.1973 53.4653 26.2148 53.5288 26.2556C53.8102 26.7946 53.985 27.2205 54.0532 27.5331L54.0909 27.8934C54.09 28.1392 53.9967 28.337 53.811 28.4867C53.5732 28.6478 53.1344 28.8255 52.4944 29.0197ZM61.4751 39.5468C60.8939 39.5099 60.4105 39.2333 60.0248 38.717C59.6278 38.1485 59.3668 37.5778 59.2417 37.0046C58.8029 35.2443 58.6171 33.8929 58.6843 32.9502C58.6795 32.6783 58.711 32.3848 58.7787 32.0698L58.945 31.706C59.0264 31.579 59.1119 31.5331 59.2015 31.5681C59.7306 31.6164 60.1193 31.709 60.3675 31.8458C60.1525 32.1111 60.0452 32.5576 60.0457 33.1853C60.0268 33.5988 60.1282 34.3136 60.35 35.3297C60.4296 35.6945 60.5865 36.288 60.8205 37.1103C61.0295 37.6925 61.2995 38.1794 61.6307 38.5712C61.7487 38.7365 61.8337 38.8135 61.8858 38.8021C61.9118 38.7964 62.0149 38.7057 62.1949 38.5299C62.4767 38.1955 62.6922 37.8072 62.8414 37.3653C63.1185 36.7589 63.332 36.1118 63.4822 35.424C63.8818 33.7537 64.1003 32.1911 64.1376 30.7364C64.1443 30.5166 64.1447 30.3937 64.139 30.3676C64.122 30.2894 64.0874 30.256 64.0353 30.2674C63.879 30.3015 63.7011 30.2994 63.5017 30.2611C63.3226 30.191 63.1175 30.1266 62.8863 30.0678C62.6755 29.9774 62.5412 29.9248 62.4834 29.9101C61.842 29.7226 61.4417 29.2641 61.2825 28.5346C61.0484 27.7123 61.1542 26.884 61.5999 26.0497C61.7832 25.7641 61.9111 25.5997 61.9835 25.5566C62.1432 25.4126 62.3011 25.3235 62.4575 25.2894C62.5877 25.2609 62.7396 25.2688 62.9129 25.3128L63.7102 25.5891C64.0049 25.6886 64.2254 25.8861 64.3718 26.1817C64.5385 26.4455 64.6646 26.7729 64.7499 27.1637C64.7783 27.2939 64.8176 27.5992 64.8679 28.0796L64.9056 28.4398C64.8909 28.4976 64.9023 28.5497 64.9397 28.5961C64.9975 28.6108 65.0626 28.5966 65.1351 28.5535C65.4918 28.3119 65.8212 28.0079 66.1234 27.6418C66.3441 27.4025 66.4806 27.2772 66.5327 27.2658C66.6108 27.2488 66.7842 27.2928 67.0528 27.398C67.3271 27.5292 67.5061 27.5992 67.59 27.6082C67.8733 27.6556 68.0547 27.8616 68.1343 28.2264C68.1628 28.3567 68.2026 28.539 68.2537 28.7735C68.3049 29.008 68.3317 29.1932 68.3341 29.3292L68.4408 30.9435C68.473 31.5916 68.5719 32.6072 68.7373 33.9904C68.8454 34.4854 68.9709 34.9356 69.114 35.3411L69.1958 35.528C69.2877 35.699 69.3874 35.7182 69.4949 35.5855C70.0316 35.1681 70.438 34.7792 70.7141 34.4187C71.0604 33.8791 71.3472 33.3798 71.5745 32.9208L72.6721 30.6341L72.9961 29.8674L73.2369 29.2826C73.3477 29.04 73.4683 28.9046 73.5986 28.8761C73.7028 28.8534 73.8631 28.9003 74.0796 29.0168C74.1374 29.0315 74.1647 29.0937 74.1613 29.2036C74.0823 29.4666 73.9816 29.6932 73.8594 29.8837C73.426 30.5242 72.9233 31.5346 72.3511 32.915C71.9632 33.7639 71.7008 34.3125 71.564 34.5607C71.3513 34.962 71.0299 35.4279 70.5998 35.9585C70.3588 36.2295 70.147 36.3848 69.9646 36.4247C69.8083 36.4588 69.6276 36.4436 69.4225 36.3792C69.3012 36.3238 69.0122 36.2504 68.5556 36.159C67.7782 35.9739 67.2436 35.4628 66.9517 34.6258C66.8973 34.5012 66.8132 34.1783 66.6994 33.6573C66.5857 33.1362 66.5276 32.8077 66.5253 32.6718C66.4636 32.1393 66.4046 31.3061 66.3481 30.172C66.3425 30.146 66.3401 30.01 66.341 29.7642C66.3623 29.4866 66.3718 29.2798 66.3694 29.1439C66.358 29.0917 66.3234 29.0584 66.2656 29.0437C66.2339 29.0233 66.2078 29.029 66.1875 29.0607L65.0783 29.7941C64.9798 29.8429 64.9216 29.9512 64.9036 30.1188L64.8433 31.1556C64.7733 32.8358 64.5221 34.6238 64.0898 36.5196C64.031 36.7508 63.9446 37.0426 63.8305 37.395C63.7367 37.7157 63.678 37.9469 63.6543 38.0886C63.4848 38.5623 63.3287 38.9102 63.1861 39.1324C63.0028 39.4181 62.7939 39.5865 62.5595 39.6376C62.5334 39.6433 62.4105 39.6429 62.1907 39.6363C61.9538 39.5515 61.7153 39.5217 61.4751 39.5468ZM63.9308 29.2258C64.1018 29.1338 64.1804 28.9939 64.1666 28.8058C64.1538 28.3719 64.0991 27.9335 64.0024 27.4906C63.9285 27.1519 63.837 26.8579 63.728 26.6088C63.6712 26.3483 63.5402 26.1858 63.3351 26.1214C63.2626 26.1645 63.1506 26.3391 62.999 26.6451L62.955 26.8185C62.7788 27.512 62.7447 28.1062 62.8528 28.6013C62.921 28.9139 63.0039 29.1687 63.1015 29.3658C63.1243 29.47 63.1878 29.5107 63.292 29.488C63.4222 29.4596 63.6352 29.3722 63.9308 29.2258ZM76.6578 34.8L75.2146 34.3781C74.4837 34.1555 73.9474 33.6993 73.6058 33.0097C73.3301 32.4967 73.1325 31.9666 73.0131 31.4195C72.8993 30.8984 72.8569 30.2663 72.8857 29.523C72.8918 28.6756 73.0872 27.8823 73.4718 27.1433C73.6176 26.8112 73.8038 26.5386 74.0302 26.3254C74.1898 26.1814 74.3608 26.0895 74.5432 26.0497C74.5693 26.044 74.6922 26.0445 74.912 26.0511C75.4525 26.1515 75.9205 26.295 76.3161 26.4816L76.5456 26.5952C76.6261 26.7141 76.6489 26.8183 76.6138 26.9079L76.5613 27.0422C76.5352 27.0479 76.4973 27.1244 76.4476 27.2717C76.3922 27.393 76.3356 27.4463 76.2778 27.4316C76.1679 27.4283 76.0816 27.2833 76.0191 26.9967L75.8898 26.7793C75.8206 26.7125 75.7469 26.6877 75.6688 26.7047C75.3822 26.7673 75.1688 26.9776 75.0286 27.3357C74.7638 27.7484 74.6102 28.2323 74.5676 28.7875C74.4132 29.831 74.4917 30.8784 74.803 31.9295C74.9712 32.5752 75.2714 33.1374 75.7034 33.6163C75.8792 33.7963 76.0061 33.8778 76.0843 33.8607C76.1624 33.8437 76.274 33.792 76.4189 33.7058C76.7292 33.5016 76.9442 33.2363 77.0641 32.9099C77.4397 32.2548 77.6362 31.5295 77.6537 30.7341C77.7166 30.1472 77.6685 29.489 77.5093 28.7595C77.4922 28.6814 77.3894 28.3353 77.2008 27.7214C76.5105 25.9342 75.6136 24.4513 74.5103 23.2728C73.8276 22.5211 73.0119 21.7848 72.063 21.0639C71.5438 20.6859 71.1022 20.4138 70.7384 20.2476L69.4956 19.6181L69.4004 19.557C69.0683 19.4111 68.871 19.1949 68.8085 18.9083C68.7402 18.5957 68.8266 18.3039 69.0677 18.0329C69.3235 17.7041 69.7124 17.3599 70.2344 17.0004C71.2898 16.3333 72.4953 15.729 73.851 15.1874C75.1082 14.6947 76.5534 14.1882 78.1867 13.6679C79.2175 13.3884 79.8761 13.2173 80.1627 13.1548C80.2409 13.1377 80.937 13.0131 82.251 12.7809C82.4334 12.7411 82.6198 12.7822 82.8102 12.9045L83.4071 13.3883C83.5341 13.4698 83.5455 13.5219 83.4413 13.5446C83.4152 13.5503 83.3891 13.556 83.3631 13.5617C82.9145 13.6323 82.334 13.7863 81.6216 14.0237L80.7703 14.2504C79.0044 14.6631 77.6927 15.0313 76.8353 15.3549C74.9529 15.9841 73.4466 16.5859 72.3163 17.1601C71.5281 17.5505 71.0208 17.8523 70.7944 18.0654C70.5159 18.29 70.3257 18.4816 70.2239 18.6403C70.0609 18.8942 69.9937 19.0863 70.0221 19.2166C70.0562 19.3729 70.1815 19.5093 70.398 19.6259C70.8424 19.911 71.1382 20.0784 71.2856 20.1281C72.4348 20.6416 73.6364 21.4574 74.8904 22.5757C75.7351 23.3194 76.3372 23.9522 76.6968 24.4742C77.6893 25.8952 78.3753 27.2876 78.7549 28.6514C78.9312 29.4591 78.9755 30.3501 78.8879 31.3245C78.834 31.8276 78.7189 32.4259 78.5428 33.1194C78.3528 33.6249 78.143 34.0391 77.9133 34.3622C77.6722 34.6332 77.4474 34.7914 77.239 34.8369C77.1088 34.8654 76.915 34.8531 76.6578 34.8ZM93.2798 24.908C93.2968 24.9862 93.2561 25.0496 93.1576 25.0984L92.7398 25.4353C92.5224 25.5646 91.9539 25.9616 91.0345 26.6263C90.6779 26.8679 90.1061 27.3748 89.3194 28.147C89.1133 28.3285 89.0025 28.571 88.9869 28.8747C88.9254 29.8434 88.6566 30.9256 88.1806 32.1213C87.8865 32.6495 87.6959 32.964 87.6087 33.0649C87.4458 33.3188 87.2255 33.4351 86.9479 33.4138L86.3361 33.4246C86.1424 33.4123 86.0154 33.3308 85.9553 33.1802C85.9178 33.1337 85.8764 33.0063 85.8309 32.7979C85.7797 32.5634 85.7648 32.3074 85.7861 32.0298C85.8097 31.8881 85.9239 31.5357 86.1285 30.9724C86.5775 30.0283 87.0329 29.3011 87.4947 28.7909C87.6226 28.6265 87.7029 28.4316 87.7355 28.2061C87.7653 27.217 87.6778 26.2535 87.4731 25.3156C87.3594 24.7945 87.2037 24.269 87.0062 23.7389C86.8744 23.3855 86.7451 23.1681 86.6181 23.0866C86.5253 23.1615 86.4076 23.31 86.265 23.5322C86.0931 23.8699 85.9382 24.2859 85.8004 24.78C85.7327 25.095 85.6633 25.4649 85.5923 25.8899C85.5213 26.3148 85.4756 26.5431 85.4552 26.5749C85.2943 27.8382 85.2125 29.5893 85.2098 31.828C85.2549 32.91 85.3289 33.9992 85.4317 35.0959C85.4374 35.1219 85.4398 35.2579 85.4389 35.5037C85.464 35.7439 85.4834 35.958 85.4972 36.1461C85.5726 36.8665 85.7977 38.5233 86.1726 41.1163C86.4276 42.5346 86.5721 43.3219 86.6062 43.4782L86.823 44.6591L86.9254 45.1281C86.9595 45.2844 86.9041 45.4057 86.7591 45.4919L86.1204 45.7542C85.9901 45.7826 85.9006 45.7475 85.8518 45.649C85.7452 45.5358 85.6346 45.3416 85.5199 45.0664C85.5028 44.9882 85.383 44.564 85.1603 43.7938C84.8646 42.439 84.6051 41.0627 84.3819 39.6648C84.0312 37.5578 83.6994 35.7878 83.3867 34.3549C83.1877 33.443 83.0467 32.8597 82.9638 32.6048L82.5409 30.8548C81.8187 27.546 81.3654 25.4068 81.1811 24.4371C80.7678 22.0435 80.5003 20.5052 80.3785 19.8221C80.3614 19.7439 80.3278 19.4647 80.2775 18.9844C80.3012 18.8427 80.381 18.7707 80.517 18.7683L80.7294 18.8039C81.0331 18.8195 81.2264 18.9547 81.3093 19.2095C81.5898 19.9944 81.8767 20.9963 82.17 22.2151L84.0699 30.3573C84.1382 30.6699 84.2313 30.9089 84.3492 31.0742L84.3413 29.7248C84.3739 27.9982 84.5085 26.4267 84.7453 25.0103C84.8016 24.6431 84.9089 24.1967 85.067 23.6708C85.1722 23.4022 85.3062 23.141 85.4692 22.8871C85.6728 22.5697 85.9265 22.4188 86.2301 22.4344L87.0849 22.4116C87.3886 22.4272 87.6498 22.5612 87.8687 22.8137C88.2316 23.2258 88.4829 23.6895 88.6227 24.2049C88.8909 25.1836 89.0281 25.9997 89.0343 26.6534L89.0805 27.0528L89.1367 27.1224C89.1945 27.1371 89.2437 27.1127 89.2845 27.0492C89.3512 26.98 89.3977 26.9426 89.4237 26.9369C90.094 26.3812 90.9828 25.7642 92.0903 25.0857C92.2817 24.9621 92.4555 24.8832 92.6118 24.8491C92.6639 24.8377 92.7999 24.8353 93.0197 24.8419C93.15 24.8135 93.2366 24.8355 93.2798 24.908ZM87.4181 30.691L87.4366 30.4003L87.1176 31.0022C86.9366 31.4238 86.8095 31.7791 86.7361 32.0681C86.7124 32.2097 86.7323 32.3009 86.7958 32.3416C86.935 32.2294 87.0589 31.984 87.1674 31.6055C87.3019 31.2213 87.3854 30.9164 87.4181 30.691ZM94.8207 35.0527C94.6279 34.7946 94.4713 34.5149 94.3509 34.2136C94.1704 33.7617 94.029 33.3013 93.9266 32.8323L93.6438 31.9115C93.2391 30.3075 93.0168 29.4144 92.977 29.232C92.8406 28.6067 92.6107 27.4286 92.2875 25.6977L91.8162 22.9756L91.5873 21.5517C91.5314 21.0453 91.6988 20.7495 92.0896 20.6642C92.6628 20.5391 93.0802 21.0757 93.3417 22.2742L94.8529 28.8226L95.1465 30.3552C95.1692 30.4594 95.2066 30.5059 95.2587 30.4945C95.3108 30.4831 95.3284 30.4383 95.3113 30.3602C95.4945 28.5734 95.8717 27.1127 96.4429 25.9781C97.0345 24.8118 97.695 24.149 98.4245 23.9898C99.18 23.8249 99.8234 24.2713 100.354 25.3291L100.838 24.7321L102.485 22.8988C102.706 22.6595 102.945 22.5664 103.202 22.6195L103.532 22.6294C103.636 22.6067 103.697 22.6344 103.714 22.7125L103.661 22.8468C103.615 22.8843 103.558 22.9375 103.491 23.0067C103.471 23.0385 103.451 23.0702 103.43 23.1019L103.391 23.1105C102.145 24.5288 101.333 25.4976 100.955 26.0168C100.684 26.4034 100.524 26.6703 100.475 26.8177C100.425 26.965 100.383 27.2743 100.35 27.7457C100.253 28.8039 100.015 29.7156 99.6365 30.4806C99.4702 30.8445 99.2564 31.1777 98.9949 31.4805C98.8206 31.6823 98.6134 31.7957 98.3732 31.8209L97.6442 31.8572C97.4187 31.8245 97.2861 31.717 97.2462 31.5346C97.2121 31.3783 97.2216 31.1715 97.2746 30.9143C97.3423 30.5993 97.4553 30.1788 97.6135 29.653C97.9663 28.8936 98.313 28.2311 98.6536 27.6655L98.898 27.2846C99.0202 27.0942 99.0772 26.918 99.0692 26.756C99.0782 26.6721 99.0514 26.4869 98.9888 26.2003C98.841 25.5229 98.5586 25.2297 98.1418 25.3207C97.6728 25.4231 97.2558 25.9508 96.8906 26.9039C96.5255 27.857 96.3084 29.0508 96.2393 30.4852L96.1954 32.9103C96.2059 33.2083 96.2403 33.6784 96.2986 34.3208C96.3033 34.5927 96.3114 34.7547 96.3228 34.8068C96.3195 34.9167 96.2527 34.9858 96.1224 35.0143L95.2236 35.2105C95.0673 35.2446 94.933 35.192 94.8207 35.0527Z" fill="#7F1023"></path></svg> 