<?xml version="1.0" encoding="UTF-8"?> <svg xmlns="http://www.w3.org/2000/svg" width="431" height="236" viewBox="0 0 431 236" fill="none"><path d="M173.622 70.63C171.344 70.63 169.798 70.1147 168.985 69.0841C168.171 68.0535 167.764 66.7517 167.764 65.1787C167.764 63.226 168.415 60.8936 169.717 58.1815C171.019 55.4694 172.7 52.5946 174.761 49.557C174.056 49.4485 173.351 49.3401 172.646 49.2316C171.995 49.0688 171.317 48.9061 170.612 48.7434C168.822 51.347 167.032 53.815 165.242 56.1474C163.506 58.4256 161.662 60.5139 159.709 62.4124C157.811 64.2566 155.777 65.911 153.607 67.3755C151.437 68.8401 149.078 70.0063 146.528 70.8741C144.63 71.525 142.623 72.0132 140.508 72.3387C138.392 72.7184 136.277 72.9082 134.161 72.9082C131.449 72.9082 128.791 72.6099 126.188 72.0132C123.638 71.4165 121.36 70.4673 119.353 69.1655C117.346 67.8637 115.719 66.2093 114.471 64.2024C113.278 62.1954 112.681 59.7545 112.681 56.8797C112.681 54.1134 113.251 51.564 114.39 49.2316C115.583 46.8992 117.129 44.8922 119.028 43.2107C120.926 41.5292 123.096 40.2274 125.537 39.3053C127.978 38.3832 130.473 37.9221 133.022 37.9221C135.192 37.9221 137.226 38.2205 139.124 38.8171C141.023 39.3595 142.677 40.1732 144.088 41.258C145.552 42.2886 146.691 43.5633 147.505 45.0821C148.373 46.5466 148.807 48.1739 148.807 49.9638C148.807 51.7538 148.373 53.4624 147.505 55.0897C146.691 56.717 145.579 58.1544 144.169 59.4019C142.759 60.5953 141.131 61.5445 139.287 62.2497C137.497 62.9548 135.626 63.3074 133.673 63.3074C132.914 63.3074 132.1 63.2531 131.232 63.1446C130.364 62.9819 129.496 62.6836 128.629 62.2497C127.815 61.8157 127.056 61.2191 126.35 60.4597C125.645 59.646 125.13 58.5883 124.805 57.2865L125.455 57.0424C125.944 58.8866 126.893 60.2969 128.303 61.2733C129.713 62.1954 131.422 62.6565 133.429 62.6565C135.599 62.6565 137.524 62.3039 139.206 61.5987C140.941 60.8394 142.406 59.863 143.599 58.6697C144.847 57.4221 145.796 56.0389 146.447 54.5202C147.098 52.9472 147.423 51.3199 147.423 49.6384C147.423 47.6314 146.935 45.9499 145.959 44.5939C145.037 43.1836 143.871 42.0445 142.46 41.1766C141.104 40.3088 139.585 39.685 137.904 39.3053C136.277 38.9256 134.785 38.7357 133.429 38.7357C131.151 38.7357 128.873 39.1154 126.594 39.8748C124.371 40.6342 122.364 41.8004 120.574 43.3734C118.784 44.8922 117.346 46.7907 116.261 49.0688C115.177 51.347 114.634 54.032 114.634 57.1238C114.634 59.6732 115.122 61.8971 116.099 63.7955C117.129 65.694 118.485 67.267 120.167 68.5146C121.903 69.7622 123.855 70.6843 126.025 71.2809C128.195 71.8776 130.473 72.1759 132.859 72.1759C135.246 72.1759 137.578 71.8776 139.857 71.2809C142.189 70.7385 144.359 69.8706 146.366 68.6773C149.783 66.6704 153.065 63.904 156.211 60.3783C159.357 56.7983 162.72 52.4861 166.3 47.4416C162.937 46.3025 159.872 44.838 157.106 43.048C154.394 41.2038 152.061 39.1154 150.108 36.783C148.21 34.4506 146.718 31.9284 145.633 29.2163C144.603 26.5042 144.088 23.6294 144.088 20.5918C144.088 17.8255 144.603 15.249 145.633 12.8623C146.664 10.4214 148.101 8.33312 149.946 6.59738C151.79 4.80739 154.014 3.42422 156.617 2.44786C159.221 1.41727 162.096 0.901967 165.242 0.901967C168.279 0.901967 170.992 1.28166 173.378 2.04105C175.765 2.74619 177.772 3.72255 179.399 4.97012C181.081 6.21768 182.355 7.6551 183.223 9.28236C184.091 10.8554 184.525 12.5369 184.525 14.3269C184.525 16.5508 183.847 18.7747 182.491 20.9986C181.189 23.1683 178.802 25.1481 175.331 26.9381L174.924 26.2872C178.287 24.5515 180.592 22.6801 181.84 20.6732C183.088 18.612 183.711 16.5779 183.711 14.5709C183.711 12.8894 183.277 11.3164 182.409 9.85189C181.542 8.33312 180.321 7.00419 178.748 5.86511C177.229 4.72603 175.358 3.83103 173.134 3.18013C170.964 2.47499 168.578 2.12242 165.974 2.12242C163.208 2.12242 160.631 2.61059 158.245 3.58695C155.858 4.50906 153.77 5.81087 151.98 7.49237C150.244 9.17387 148.861 11.1808 147.83 13.5132C146.8 15.7914 146.284 18.2865 146.284 20.9986C146.284 24.0904 146.773 26.9652 147.749 29.6231C148.725 32.281 150.108 34.7218 151.898 36.9458C153.688 39.1154 155.831 41.041 158.326 42.7225C160.875 44.404 163.696 45.7601 166.788 46.7907L169.31 43.1294C171.805 39.4951 174.436 36.1321 177.202 33.0403C179.969 29.8943 182.898 27.1822 185.989 24.904C189.135 22.5716 192.499 20.7545 196.078 19.4527C199.658 18.0967 203.483 17.4187 207.551 17.4187C209.178 17.4187 210.914 17.5814 212.758 17.9068C214.602 18.2323 216.311 18.8018 217.884 19.6155C219.457 20.3748 220.759 21.4326 221.789 22.7886C222.874 24.0904 223.416 25.7448 223.416 27.7517C223.416 30.0842 222.82 32.281 221.626 34.3422C220.433 36.3491 218.806 38.1933 216.745 39.8748C214.738 41.5021 212.378 42.9666 209.666 44.2684C207.008 45.516 204.188 46.5737 201.204 47.4416C198.221 48.3095 195.156 48.9875 192.01 49.4757C188.919 49.9096 185.935 50.1266 183.06 50.1266C181.867 50.1266 180.701 50.0994 179.562 50.0452C178.477 49.9367 177.392 49.8282 176.307 49.7198C174.734 52.3776 173.487 54.9812 172.565 57.5306C171.642 60.0257 171.181 62.331 171.181 64.4465C171.181 65.6398 171.425 66.6704 171.914 67.5382C172.402 68.4061 173.351 68.8401 174.761 68.8401C176.985 68.8401 179.263 67.9993 181.596 66.3178C183.928 64.5821 186.423 62.114 189.081 58.9138L189.651 59.4019C186.722 62.8734 183.874 65.6127 181.108 67.6196C178.396 69.6266 175.9 70.63 173.622 70.63ZM182.898 49.3129C188.213 49.3129 193.231 48.7434 197.95 47.6043C202.723 46.4652 206.873 44.9193 210.398 42.9666C213.978 41.0139 216.799 38.7357 218.86 36.1321C220.921 33.4743 221.952 30.6537 221.952 27.6704C221.952 26.2059 221.599 24.904 220.894 23.765C220.189 22.5716 219.213 21.5682 217.965 20.7545C216.772 19.9409 215.334 19.3171 213.653 18.8832C212.026 18.4493 210.29 18.2323 208.446 18.2323C204.106 18.2323 200.391 18.8018 197.299 19.9409C194.207 21.0257 191.332 22.7344 188.674 25.0668C186.017 27.3449 183.386 30.3011 180.782 33.9353C178.179 37.5153 175.222 41.8004 171.914 46.7907C171.751 47.0077 171.588 47.2246 171.425 47.4416C171.317 47.6043 171.209 47.7942 171.1 48.0111C171.751 48.1739 172.429 48.3366 173.134 48.4993C173.839 48.6078 174.544 48.7163 175.25 48.8248C176.768 46.6008 178.423 44.3769 180.213 42.153C182.057 39.8748 183.874 37.7052 185.664 35.644C187.454 33.5828 189.19 31.6572 190.871 29.8672C192.607 28.0772 194.18 26.5313 195.59 25.2295L195.997 25.799C194.478 27.1551 192.878 28.7281 191.197 30.5181C189.515 32.2538 187.807 34.1252 186.071 36.1321C184.389 38.1391 182.735 40.2545 181.108 42.4784C179.535 44.6481 178.097 46.8178 176.795 48.9875C177.772 49.096 178.748 49.1773 179.725 49.2316C180.755 49.2858 181.813 49.3129 182.898 49.3129ZM204.032 70.1419C203.11 70.1419 202.324 69.952 201.673 69.5723C201.076 69.1384 200.778 68.4875 200.778 67.6196C200.778 67.0229 200.995 66.2636 201.429 65.3414C201.863 64.4193 202.405 63.4159 203.056 62.331C202.568 62.2768 202.053 62.2497 201.51 62.2497C200.968 62.1954 200.344 62.1683 199.639 62.1683C199.205 62.1683 198.798 62.1683 198.418 62.1683C198.039 62.1683 197.632 62.1954 197.198 62.2497L193.048 68.4332C192.669 68.9757 192.289 69.3553 191.909 69.5723C191.53 69.735 191.123 69.8164 190.689 69.8164H188.573C188.194 69.8164 188.004 69.6537 188.004 69.3282C188.004 69.1655 188.085 68.9485 188.248 68.6773C188.953 67.7552 189.767 66.6433 190.689 65.3414C191.665 64.0396 192.56 62.7649 193.374 61.5174C194.242 60.2156 194.947 59.0494 195.489 58.0188C196.086 56.9339 196.384 56.1745 196.384 55.7406C196.384 55.1439 196.086 54.8456 195.489 54.8456C195.001 54.8456 194.432 55.0626 193.781 55.4965C193.13 55.8762 192.425 56.4186 191.665 57.1238C190.96 57.8289 190.201 58.6154 189.387 59.4833C188.628 60.3512 187.868 61.2191 187.109 62.0869L186.458 61.7615C187.434 60.6766 188.384 59.646 189.306 58.6697C190.228 57.6391 191.123 56.7441 191.991 55.9847C192.913 55.1711 193.808 54.5473 194.676 54.1134C195.543 53.6252 196.384 53.3811 197.198 53.3811C198.445 53.3811 199.286 53.5981 199.72 54.032C200.208 54.4659 200.452 55.0355 200.452 55.7406C200.452 56.8255 199.557 58.6968 197.767 61.3547C198.201 61.4089 198.635 61.436 199.069 61.436C199.503 61.436 199.991 61.436 200.534 61.436H203.544C204.304 60.2427 205.063 59.1036 205.822 58.0188C206.636 56.8797 207.341 55.9305 207.938 55.1711C208.263 54.7371 208.589 54.4117 208.914 54.1947C209.294 53.9235 209.836 53.7879 210.541 53.7879H211.843C212.277 53.7879 212.494 53.9506 212.494 54.2761C212.494 54.3303 212.467 54.4117 212.413 54.5202C212.413 54.5744 212.358 54.71 212.25 54.927C211.762 55.6864 211.084 56.6898 210.216 57.9374C209.402 59.1307 208.562 60.3512 207.694 61.5987C206.88 62.8463 206.175 64.0396 205.578 65.1787C204.982 66.3178 204.683 67.1857 204.683 67.7823C204.683 68.379 205.036 68.6773 205.741 68.6773C207.151 68.6773 208.507 68.0807 209.809 66.8873C211.111 65.6398 212.874 63.7142 215.098 61.1106L215.667 61.5174C214.799 62.548 213.932 63.5786 213.064 64.6092C212.25 65.6398 211.382 66.5619 210.46 67.3755C209.538 68.1891 208.562 68.8672 207.531 69.4096C206.5 69.8978 205.334 70.1419 204.032 70.1419ZM246.4 70.1419C245.478 70.1419 244.692 69.952 244.041 69.5723C243.39 69.1384 243.064 68.4875 243.064 67.6196C243.064 66.589 243.417 65.477 244.122 64.2837C244.881 63.0362 245.668 61.8428 246.482 60.7038C247.349 59.5647 248.136 58.5341 248.841 57.612C249.6 56.6356 249.98 55.9033 249.98 55.4152C249.98 55.0897 249.817 54.927 249.492 54.927C249.167 54.927 248.733 55.0626 248.19 55.3338C247.648 55.605 247.078 55.9305 246.482 56.3102C245.939 56.6898 245.37 57.0967 244.773 57.5306C244.231 57.9645 243.742 58.3713 243.308 58.751C242.441 59.4562 241.627 60.1613 240.868 60.8665C240.108 61.5716 239.349 62.3039 238.589 63.0633C237.83 63.8227 237.043 64.6634 236.23 65.5855C235.47 66.4534 234.63 67.4026 233.708 68.4332C232.948 69.3553 232.162 69.8164 231.348 69.8164H229.233C228.853 69.8164 228.663 69.6537 228.663 69.3282C228.663 69.1655 228.744 68.9485 228.907 68.6773C229.504 67.8637 230.019 67.1585 230.453 66.5619C230.941 65.911 231.375 65.3414 231.755 64.8533C232.189 64.3108 232.568 63.7955 232.894 63.3074C233.274 62.7649 233.68 62.1954 234.114 61.5987C234.223 61.436 234.44 61.1106 234.765 60.6224C235.145 60.1342 235.498 59.5918 235.823 58.9951C236.203 58.3985 236.528 57.8018 236.799 57.2051C237.071 56.6085 237.206 56.0932 237.206 55.6592C237.206 55.0626 236.881 54.7643 236.23 54.7643C235.47 54.7643 234.494 55.1711 233.301 55.9847C232.162 56.7983 230.914 57.856 229.558 59.1579C228.202 60.4597 226.792 61.9242 225.327 63.5515C223.863 65.1787 222.452 66.806 221.096 68.4332C220.337 69.3553 219.55 69.8164 218.737 69.8164H216.621C216.242 69.8164 216.052 69.6537 216.052 69.3282C216.052 69.1655 216.133 68.9485 216.296 68.6773C216.893 67.8637 217.435 67.1314 217.923 66.4805C218.411 65.8296 218.845 65.233 219.225 64.6905C219.659 64.1481 220.066 63.6328 220.445 63.1446C220.825 62.6022 221.232 62.0327 221.666 61.436C221.829 61.2191 222.046 60.8665 222.317 60.3783C222.642 59.8901 222.968 59.3748 223.293 58.8324C223.619 58.29 223.89 57.7476 224.107 57.2051C224.324 56.6085 224.432 56.1203 224.432 55.7406C224.432 55.1439 224.134 54.8456 223.537 54.8456C222.561 54.8456 221.368 55.5508 219.957 56.9611C218.547 58.3171 217.055 59.8901 215.482 61.6801L214.831 61.3547C216.73 59.1307 218.52 57.2594 220.201 55.7406C221.883 54.1676 223.564 53.3811 225.246 53.3811C226.385 53.3811 227.199 53.5981 227.687 54.032C228.175 54.4659 228.419 55.0083 228.419 55.6592C228.419 56.4186 228.229 57.178 227.849 57.9374C227.524 58.6968 227.171 59.3748 226.792 59.9715C226.358 60.6224 226.059 61.1106 225.897 61.436C225.734 61.7072 225.354 62.2225 224.758 62.9819L224.839 63.0633C225.87 61.87 226.927 60.7038 228.012 59.5647C229.097 58.4256 230.182 57.395 231.267 56.4729C232.406 55.5508 233.545 54.8185 234.684 54.2761C235.823 53.6794 236.962 53.3811 238.101 53.3811C239.132 53.3811 239.864 53.5981 240.298 54.032C240.786 54.4659 241.03 55.0626 241.03 55.822C241.03 56.4186 240.868 57.0967 240.542 57.856C240.271 58.5612 239.918 59.2663 239.484 59.9715C238.996 60.7309 238.508 61.436 238.02 62.0869C237.532 62.7378 236.989 63.443 236.393 64.2024L236.474 64.2837C237.505 63.0904 238.698 61.87 240.054 60.6224C241.41 59.3206 242.739 58.1544 244.041 57.1238C245.397 56.0389 246.699 55.1711 247.946 54.5202C249.194 53.815 250.279 53.4624 251.201 53.4624C252.991 53.4624 253.886 54.1676 253.886 55.5779C253.886 56.3373 253.669 57.0695 253.235 57.7747C252.801 58.4798 252.258 59.2935 251.607 60.2156C251.119 60.9207 250.604 61.6259 250.062 62.331C249.519 63.0362 249.004 63.7413 248.516 64.4465C248.082 65.0974 247.729 65.7211 247.458 66.3178C247.187 66.9145 247.051 67.4026 247.051 67.7823C247.051 68.379 247.404 68.6773 248.109 68.6773C249.519 68.6773 250.875 68.0807 252.177 66.8873C253.479 65.6398 255.242 63.7142 257.466 61.1106L258.035 61.5174C257.167 62.548 256.299 63.5786 255.431 64.6092C254.618 65.6398 253.75 66.5619 252.828 67.3755C251.906 68.1891 250.929 68.8672 249.899 69.4096C248.868 69.8978 247.702 70.1419 246.4 70.1419ZM270.111 54.3574C269.134 54.3574 268.049 54.8185 266.856 55.7406C265.663 56.6085 264.551 57.7204 263.52 59.0765C262.544 60.3783 261.703 61.7886 260.998 63.3074C260.293 64.8261 259.94 66.2093 259.94 67.4569C259.94 67.9451 260.103 68.4061 260.428 68.8401C260.754 69.274 261.323 69.491 262.137 69.491C263.33 69.491 264.551 69.0028 265.798 68.0264C267.046 66.9958 268.158 65.8025 269.134 64.4465C270.165 63.0362 270.978 61.5987 271.575 60.1342C272.226 58.6697 272.551 57.4492 272.551 56.4729C272.551 55.0626 271.738 54.3574 270.111 54.3574ZM270.517 53.4624C272.416 53.4624 273.772 53.8693 274.585 54.6829C275.453 55.4965 275.887 56.4186 275.887 57.4492C275.887 58.751 275.453 60.1613 274.585 61.6801C273.718 63.1446 272.579 64.5278 271.168 65.8296C269.812 67.1314 268.239 68.2163 266.449 69.0841C264.713 69.8978 262.951 70.3046 261.161 70.3046C259.371 70.3046 258.069 69.9791 257.255 69.3282C256.496 68.6231 256.116 67.6467 256.116 66.3992C256.116 65.0974 256.496 63.6871 257.255 62.1683C258.015 60.6495 259.045 59.2392 260.347 57.9374C261.649 56.6356 263.168 55.5779 264.903 54.7643C266.693 53.8964 268.565 53.4624 270.517 53.4624ZM295.327 70.1419C294.405 70.1419 293.619 69.952 292.968 69.5723C292.371 69.1384 292.073 68.4875 292.073 67.6196C292.073 67.0229 292.29 66.2636 292.724 65.3414C293.158 64.4193 293.7 63.4159 294.351 62.331C293.863 62.2768 293.347 62.2497 292.805 62.2497C292.263 62.1954 291.639 62.1683 290.934 62.1683C290.5 62.1683 290.093 62.1683 289.713 62.1683C289.334 62.1683 288.927 62.1954 288.493 62.2497L284.343 68.4332C283.964 68.9757 283.584 69.3553 283.204 69.5723C282.825 69.735 282.418 69.8164 281.984 69.8164H279.868C279.489 69.8164 279.299 69.6537 279.299 69.3282C279.299 69.1655 279.38 68.9485 279.543 68.6773C280.248 67.7552 281.062 66.6433 281.984 65.3414C282.96 64.0396 283.855 62.7649 284.669 61.5174C285.537 60.2156 286.242 59.0494 286.784 58.0188C287.381 56.9339 287.679 56.1745 287.679 55.7406C287.679 55.1439 287.381 54.8456 286.784 54.8456C286.296 54.8456 285.726 55.0626 285.076 55.4965C284.425 55.8762 283.72 56.4186 282.96 57.1238C282.255 57.8289 281.496 58.6154 280.682 59.4833C279.923 60.3512 279.163 61.2191 278.404 62.0869L277.753 61.7615C278.729 60.6766 279.679 59.646 280.601 58.6697C281.523 57.6391 282.418 56.7441 283.286 55.9847C284.208 55.1711 285.103 54.5473 285.971 54.1134C286.838 53.6252 287.679 53.3811 288.493 53.3811C289.74 53.3811 290.581 53.5981 291.015 54.032C291.503 54.4659 291.747 55.0355 291.747 55.7406C291.747 56.8255 290.852 58.6968 289.062 61.3547C289.496 61.4089 289.93 61.436 290.364 61.436C290.798 61.436 291.286 61.436 291.829 61.436H294.839C295.599 60.2427 296.358 59.1036 297.117 58.0188C297.931 56.8797 298.636 55.9305 299.233 55.1711C299.558 54.7371 299.884 54.4117 300.209 54.1947C300.589 53.9235 301.131 53.7879 301.836 53.7879H303.138C303.572 53.7879 303.789 53.9506 303.789 54.2761C303.789 54.3303 303.762 54.4117 303.708 54.5202C303.708 54.5744 303.653 54.71 303.545 54.927C303.057 55.6864 302.379 56.6898 301.511 57.9374C300.697 59.1307 299.857 60.3512 298.989 61.5987C298.175 62.8463 297.47 64.0396 296.873 65.1787C296.277 66.3178 295.978 67.1857 295.978 67.7823C295.978 68.379 296.331 68.6773 297.036 68.6773C298.446 68.6773 299.802 68.0807 301.104 66.8873C302.406 65.6398 304.169 63.7142 306.393 61.1106L306.962 61.5174C306.094 62.548 305.226 63.5786 304.359 64.6092C303.545 65.6398 302.677 66.5619 301.755 67.3755C300.833 68.1891 299.857 68.8672 298.826 69.4096C297.795 69.8978 296.629 70.1419 295.327 70.1419ZM193.733 170.646C192.214 172.436 190.858 174.063 189.664 175.528C188.471 176.938 187.305 178.131 186.166 179.108C185.081 180.084 183.996 180.844 182.911 181.386C181.826 181.928 180.633 182.2 179.331 182.2C178.192 182.2 177.243 182.01 176.484 181.63C175.779 181.305 175.209 180.898 174.775 180.41C174.395 179.867 174.124 179.298 173.961 178.701C173.853 178.05 173.799 177.453 173.799 176.911C173.799 175.501 174.07 173.955 174.612 172.273C175.209 170.538 175.941 168.802 176.809 167.066C177.677 165.33 178.653 163.622 179.738 161.94C180.823 160.204 181.854 158.604 182.83 157.14C183.861 155.675 184.783 154.401 185.596 153.316C186.464 152.177 187.115 151.336 187.549 150.793C188.959 149.003 190.315 147.322 191.617 145.749C192.919 144.122 194.221 142.549 195.523 141.03C196.824 139.457 198.099 137.884 199.347 136.311C200.648 134.738 201.977 133.056 203.333 131.266C203.876 130.453 204.147 129.91 204.147 129.639C204.147 129.422 204.066 129.314 203.903 129.314C203.74 129.368 203.496 129.476 203.171 129.639C202.845 129.748 202.438 129.992 201.95 130.371C199.781 132.053 197.584 133.951 195.36 136.067C193.19 138.182 190.912 140.46 188.525 142.901C186.193 145.342 183.698 147.946 181.04 150.712C178.436 153.424 175.589 156.272 172.497 159.255C169.297 162.347 165.934 165.276 162.408 168.042C158.882 170.755 155.221 173.168 151.424 175.284C147.681 177.345 143.803 178.999 139.789 180.247C135.829 181.44 131.788 182.037 127.666 182.037C121.482 182.037 116.655 180.708 113.183 178.05C109.766 175.392 108.057 171.677 108.057 166.903C108.057 163.269 108.898 160.015 110.58 157.14C112.261 154.211 114.404 151.743 117.007 149.736C119.665 147.675 122.567 146.102 125.713 145.017C128.913 143.932 132.005 143.389 134.989 143.389C136.887 143.389 138.677 143.634 140.359 144.122C142.094 144.556 143.586 145.234 144.833 146.156C146.135 147.024 147.139 148.136 147.844 149.492C148.603 150.793 148.983 152.312 148.983 154.048C148.983 156.163 148.441 158.279 147.356 160.394C146.325 162.455 144.915 164.327 143.125 166.008C141.389 167.636 139.355 168.965 137.023 169.995C134.744 170.971 132.358 171.46 129.863 171.46C129.049 171.46 128.154 171.378 127.178 171.216C126.256 170.999 125.361 170.646 124.493 170.158C123.679 169.67 122.974 168.992 122.377 168.124C121.781 167.202 121.455 166.035 121.401 164.625L122.052 164.462C122.323 166.469 123.11 168.015 124.411 169.1C125.713 170.131 127.395 170.646 129.456 170.646C132.222 170.646 134.69 170.104 136.86 169.019C139.084 167.934 140.955 166.578 142.474 164.951C143.993 163.323 145.159 161.533 145.973 159.581C146.786 157.574 147.193 155.675 147.193 153.885C147.193 152.041 146.759 150.522 145.891 149.329C145.078 148.081 144.047 147.078 142.799 146.319C141.606 145.559 140.304 145.017 138.894 144.691C137.538 144.366 136.317 144.203 135.233 144.203C132.466 144.203 129.591 144.664 126.608 145.586C123.679 146.454 120.994 147.837 118.553 149.736C116.167 151.634 114.187 154.048 112.614 156.977C111.041 159.852 110.254 163.296 110.254 167.31C110.254 169.263 110.634 171.107 111.393 172.843C112.153 174.524 113.238 176.016 114.648 177.318C116.112 178.565 117.875 179.542 119.936 180.247C121.998 180.952 124.33 181.305 126.934 181.305C131.327 181.305 135.531 180.708 139.545 179.515C143.559 178.321 147.41 176.694 151.098 174.633C154.841 172.517 158.421 170.076 161.838 167.31C165.31 164.544 168.673 161.561 171.927 158.36C174.965 155.431 177.813 152.611 180.47 149.898C183.183 147.132 185.84 144.366 188.444 141.599C189.529 140.46 190.831 139.104 192.349 137.531C193.922 135.958 195.495 134.467 197.068 133.056C198.642 131.646 200.16 130.453 201.625 129.476C203.089 128.446 204.283 127.93 205.205 127.93C205.964 127.93 206.561 128.175 206.995 128.663C207.429 129.097 207.646 129.693 207.646 130.453C207.646 130.887 207.537 131.375 207.32 131.917C207.158 132.46 206.859 133.029 206.425 133.626C204.039 136.88 201.625 139.999 199.184 142.983C196.743 145.966 194.302 148.922 191.861 151.851C191.644 152.122 191.129 152.746 190.315 153.723C189.556 154.699 188.661 155.892 187.63 157.303C186.6 158.713 185.515 160.286 184.376 162.022C183.291 163.703 182.26 165.466 181.284 167.31C180.362 169.154 179.575 170.971 178.925 172.761C178.328 174.551 178.03 176.206 178.03 177.725C178.03 178.647 178.192 179.433 178.518 180.084C178.843 180.681 179.44 180.979 180.308 180.979C181.284 180.979 182.206 180.735 183.074 180.247C183.996 179.759 184.945 179.054 185.922 178.131C186.952 177.209 188.037 176.097 189.176 174.796C190.37 173.439 191.726 171.894 193.244 170.158L193.733 170.646ZM218.696 164.462C220.594 164.462 221.95 164.869 222.764 165.683C223.632 166.497 224.066 167.419 224.066 168.449C224.066 169.751 223.632 171.161 222.764 172.68C221.896 174.145 220.757 175.528 219.347 176.83C217.991 178.131 216.418 179.216 214.628 180.084C212.892 180.898 211.129 181.305 209.339 181.305C207.549 181.305 206.247 180.979 205.434 180.328C204.674 179.623 204.295 178.647 204.295 177.399C204.295 176.043 204.647 174.66 205.352 173.25C204.539 173.25 203.833 173.25 203.237 173.25C202.64 173.195 202.098 173.168 201.61 173.168L197.379 179.433C196.999 179.976 196.619 180.355 196.24 180.572C195.86 180.735 195.453 180.816 195.019 180.816H192.904C192.524 180.816 192.334 180.654 192.334 180.328C192.334 180.166 192.416 179.949 192.578 179.677C193.283 178.755 194.097 177.643 195.019 176.341C195.996 174.985 196.891 173.684 197.704 172.436C198.572 171.134 199.277 169.968 199.82 168.937C200.416 167.853 200.715 167.12 200.715 166.741C200.715 166.144 200.416 165.846 199.82 165.846C199.331 165.846 198.735 166.09 198.03 166.578C197.379 167.012 196.646 167.608 195.833 168.368C195.073 169.073 194.26 169.887 193.392 170.809C192.578 171.731 191.792 172.626 191.032 173.494L190.381 173.168C191.358 172.083 192.307 171.026 193.229 169.995C194.206 168.91 195.155 167.961 196.077 167.147C197.053 166.334 198.002 165.683 198.925 165.195C199.847 164.652 200.715 164.381 201.528 164.381C202.776 164.381 203.617 164.598 204.05 165.032C204.539 165.466 204.783 166.035 204.783 166.741C204.783 167.337 204.566 168.042 204.132 168.856C203.698 169.67 203.02 170.782 202.098 172.192C202.532 172.246 203.074 172.273 203.725 172.273C204.43 172.273 205.162 172.273 205.922 172.273C206.518 171.243 207.251 170.266 208.119 169.344C208.986 168.422 209.963 167.608 211.048 166.903C212.187 166.144 213.38 165.547 214.628 165.113C215.929 164.679 217.286 164.462 218.696 164.462ZM218.289 165.357C217.313 165.357 216.228 165.818 215.034 166.741C213.841 167.608 212.729 168.72 211.699 170.076C210.722 171.378 209.881 172.789 209.176 174.307C208.471 175.826 208.119 177.209 208.119 178.457C208.119 178.945 208.281 179.406 208.607 179.84C208.932 180.274 209.502 180.491 210.315 180.491C211.509 180.491 212.729 180.003 213.977 179.026C215.224 177.996 216.336 176.802 217.313 175.446C218.343 174.036 219.157 172.599 219.754 171.134C220.404 169.67 220.73 168.449 220.73 167.473C220.73 166.063 219.916 165.357 218.289 165.357ZM229.488 181.305C227.752 181.305 226.477 180.979 225.664 180.328C224.904 179.677 224.525 178.755 224.525 177.562C224.525 176.26 224.931 174.85 225.745 173.331C226.559 171.758 227.644 170.321 229 169.019C230.356 167.717 231.929 166.632 233.719 165.764C235.563 164.896 237.461 164.462 239.414 164.462L239.251 165.276C238.112 165.33 236.892 165.818 235.59 166.741C234.342 167.608 233.176 168.72 232.091 170.076C231.061 171.378 230.193 172.789 229.488 174.307C228.783 175.772 228.403 177.155 228.349 178.457C228.349 178.945 228.484 179.406 228.756 179.84C229.027 180.274 229.596 180.491 230.464 180.491C231.549 180.491 232.742 180.03 234.044 179.108C235.346 178.131 236.566 176.802 237.705 175.121C238.845 173.385 239.794 171.351 240.553 169.019C241.313 166.632 241.692 164.056 241.692 161.289C241.692 160.259 241.638 159.038 241.53 157.628C241.475 156.163 241.394 154.699 241.285 153.234C241.231 151.77 241.15 150.36 241.041 149.003C240.987 147.647 240.96 146.481 240.96 145.505C240.96 142.63 241.34 140.162 242.099 138.101C242.913 135.985 243.97 134.223 245.272 132.812C246.628 131.348 248.201 130.154 249.991 129.232C251.781 128.31 253.653 127.578 255.605 127.035C257.612 126.439 259.673 126.005 261.789 125.734C263.904 125.408 265.966 125.137 267.972 124.92C269.979 124.703 272.041 124.459 274.156 124.188C276.272 123.862 278.333 123.456 280.34 122.967C282.347 122.425 284.218 121.774 285.954 121.015C287.744 120.255 289.29 119.333 290.591 118.248C291.947 117.163 293.005 115.889 293.765 114.424C294.578 112.905 294.985 111.17 294.985 109.217C294.985 108.295 294.849 107.454 294.578 106.695L295.229 106.288C295.772 107.047 296.151 107.834 296.368 108.647C296.585 109.407 296.694 110.166 296.694 110.926C296.694 113.15 295.907 115.075 294.334 116.702C292.815 118.33 290.754 119.74 288.151 120.933C285.547 122.072 282.509 123.022 279.038 123.781C275.566 124.54 271.878 125.137 267.972 125.571C266.454 125.734 264.799 125.924 263.009 126.14C261.274 126.357 259.538 126.683 257.802 127.117C256.066 127.551 254.385 128.147 252.758 128.907C251.13 129.666 249.693 130.697 248.445 131.999C247.198 133.246 246.194 134.792 245.435 136.636C244.73 138.426 244.377 140.623 244.377 143.227C244.377 147.078 244.513 150.387 244.784 153.153C245.055 155.919 245.191 158.333 245.191 160.394C245.191 163.649 244.703 166.578 243.726 169.182C242.75 171.731 241.502 173.901 239.984 175.691C238.465 177.481 236.756 178.864 234.858 179.84C233.014 180.816 231.224 181.305 229.488 181.305ZM258.867 165.357C257.891 165.357 256.806 165.818 255.613 166.741C254.42 167.608 253.308 168.72 252.277 170.076C251.301 171.378 250.46 172.789 249.755 174.307C249.05 175.826 248.697 177.209 248.697 178.457C248.697 178.945 248.86 179.406 249.185 179.84C249.511 180.274 250.08 180.491 250.894 180.491C252.087 180.491 253.308 180.003 254.555 179.026C255.803 177.996 256.915 176.802 257.891 175.446C258.922 174.036 259.735 172.599 260.332 171.134C260.983 169.67 261.308 168.449 261.308 167.473C261.308 166.063 260.495 165.357 258.867 165.357ZM259.274 164.462C261.173 164.462 262.529 164.869 263.342 165.683C264.21 166.497 264.644 167.419 264.644 168.449C264.644 169.751 264.21 171.161 263.342 172.68C262.475 174.145 261.336 175.528 259.925 176.83C258.569 178.131 256.996 179.216 255.206 180.084C253.47 180.898 251.708 181.305 249.918 181.305C248.128 181.305 246.826 180.979 246.012 180.328C245.253 179.623 244.873 178.647 244.873 177.399C244.873 176.097 245.253 174.687 246.012 173.168C246.772 171.65 247.802 170.239 249.104 168.937C250.406 167.636 251.925 166.578 253.66 165.764C255.45 164.896 257.322 164.462 259.274 164.462ZM276.843 162.998C275.433 165.059 274.294 166.985 273.426 168.775C272.558 170.565 271.88 172.138 271.392 173.494C270.903 174.796 270.551 175.88 270.334 176.748C270.171 177.616 270.09 178.159 270.09 178.376C270.09 179.786 270.849 180.491 272.368 180.491C273.344 180.491 274.375 180.138 275.46 179.433C276.599 178.728 277.629 177.86 278.552 176.83C279.528 175.745 280.314 174.606 280.911 173.412C281.562 172.165 281.942 171.053 282.05 170.076C281.996 169.534 281.86 169.154 281.643 168.937C281.426 168.72 281.182 168.558 280.911 168.449C280.694 168.287 280.477 168.124 280.26 167.961C280.043 167.798 279.935 167.473 279.935 166.985C279.935 166.334 280.233 165.737 280.83 165.195C281.426 164.652 282.132 164.381 282.945 164.381C283.867 164.381 284.6 164.707 285.142 165.357C285.684 165.954 285.956 166.713 285.956 167.636C285.956 169.317 285.495 170.999 284.572 172.68C283.65 174.307 282.457 175.772 280.992 177.074C279.582 178.376 278.009 179.433 276.273 180.247C274.538 181.006 272.883 181.386 271.31 181.386C269.249 181.386 267.92 181.006 267.324 180.247C266.727 179.433 266.429 178.484 266.429 177.399C266.429 175.88 266.971 173.873 268.056 171.378C269.195 168.829 270.659 166.117 272.449 163.242C274.294 160.367 276.355 157.438 278.633 154.455C280.965 151.471 283.298 148.787 285.63 146.4C288.017 144.013 290.322 142.061 292.546 140.542C294.77 139.023 296.696 138.264 298.323 138.264C299.299 138.264 300.14 138.508 300.845 138.996C301.55 139.484 301.903 140.243 301.903 141.274C301.903 142.467 301.306 144.04 300.113 145.993C298.919 147.892 297.238 149.898 295.068 152.014C292.899 154.075 290.268 156.109 287.176 158.116C284.084 160.069 280.64 161.696 276.843 162.998ZM295.719 140.135C294.634 140.135 293.333 140.84 291.814 142.25C290.349 143.661 288.776 145.451 287.095 147.62C285.467 149.79 283.813 152.15 282.132 154.699C280.45 157.248 278.877 159.662 277.413 161.94L277.494 162.022C280.965 160.774 283.976 159.255 286.525 157.465C289.075 155.675 291.19 153.858 292.871 152.014C294.553 150.115 295.801 148.298 296.614 146.563C297.482 144.773 297.916 143.308 297.916 142.169C297.916 141.627 297.726 141.166 297.346 140.786C297.021 140.352 296.479 140.135 295.719 140.135ZM305.206 172.599C305.206 173.467 304.962 174.416 304.474 175.446C303.986 176.477 303.226 177.426 302.196 178.294C301.165 179.162 299.891 179.894 298.372 180.491C296.853 181.088 295.036 181.386 292.92 181.386C290.805 181.386 289.286 180.979 288.364 180.166C287.442 179.352 286.981 178.376 286.981 177.236C286.981 176.531 287.279 175.609 287.876 174.47C288.473 173.277 289.178 172.083 289.991 170.89C290.805 169.643 291.619 168.476 292.432 167.392C293.246 166.307 293.87 165.466 294.304 164.869C294.629 164.435 294.955 164.11 295.28 163.893C295.66 163.622 296.202 163.486 296.907 163.486H298.209C298.643 163.486 298.86 163.649 298.86 163.974C298.86 164.029 298.833 164.11 298.779 164.218C298.779 164.273 298.724 164.408 298.616 164.625C296.012 168.531 293.978 171.514 292.514 173.575C291.103 175.636 290.398 177.264 290.398 178.457C290.398 179.054 290.561 179.542 290.886 179.921C291.212 180.301 291.808 180.491 292.676 180.491C293.707 180.491 294.738 180.274 295.768 179.84C296.799 179.406 297.721 178.837 298.534 178.131C299.402 177.372 300.08 176.531 300.569 175.609C301.111 174.687 301.382 173.738 301.382 172.761C301.382 172.111 301.111 171.514 300.569 170.971C300.026 170.429 298.968 170.131 297.395 170.076L297.477 169.263C298.345 169.1 299.185 169.019 299.999 169.019C301.464 169.019 302.684 169.317 303.66 169.914C304.691 170.456 305.206 171.351 305.206 172.599Z" fill="#F5F0E0"></path><path d="M231.251 107.143C231.334 107.143 231.413 107.179 231.486 107.252C231.569 107.314 231.626 107.408 231.657 107.533C231.324 107.856 230.97 108.158 230.595 108.439C230.23 108.721 229.85 108.971 229.454 109.189C229.069 109.398 228.668 109.559 228.251 109.674C227.845 109.799 227.433 109.861 227.017 109.861C226.204 109.861 225.532 109.721 225.001 109.439C224.48 109.148 224.069 108.768 223.767 108.299C223.277 108.736 222.741 109.106 222.157 109.408C221.574 109.71 220.892 109.861 220.111 109.861C219.611 109.861 219.152 109.778 218.736 109.611C218.329 109.445 217.975 109.215 217.673 108.924C217.371 108.632 217.137 108.294 216.97 107.908C216.803 107.523 216.72 107.111 216.72 106.674C216.72 106.111 216.834 105.596 217.064 105.127C217.293 104.648 217.595 104.21 217.97 103.814C218.345 103.419 218.772 103.059 219.251 102.736C219.741 102.413 220.241 102.122 220.751 101.861C221.272 101.59 221.782 101.356 222.282 101.158C222.782 100.95 223.241 100.762 223.657 100.596C224.001 99.6895 224.423 98.8197 224.923 97.9863C225.433 97.153 225.991 96.4238 226.595 95.7988C227.199 95.1634 227.824 94.6582 228.47 94.2832C229.126 93.8978 229.777 93.7051 230.423 93.7051C231.017 93.7051 231.433 93.8145 231.673 94.0332C231.923 94.2415 232.048 94.5072 232.048 94.8301C232.048 95.2988 231.944 95.7363 231.736 96.1426C231.538 96.5384 231.267 96.9134 230.923 97.2676C230.579 97.6217 230.178 97.9499 229.72 98.252C229.272 98.554 228.798 98.8353 228.298 99.0957C227.808 99.3561 227.303 99.6009 226.782 99.8301C226.272 100.049 225.788 100.257 225.329 100.455C225.131 101.08 224.986 101.731 224.892 102.408C224.798 103.085 224.751 103.778 224.751 104.486C224.751 104.861 224.756 105.21 224.767 105.533C224.788 105.846 224.824 106.137 224.876 106.408C225.376 105.762 225.808 105.143 226.173 104.549C226.548 103.945 226.913 103.413 227.267 102.955C227.631 102.497 228.017 102.132 228.423 101.861C228.84 101.59 229.345 101.455 229.939 101.455C230.262 101.455 230.532 101.512 230.751 101.627C230.97 101.731 231.147 101.861 231.282 102.018C231.418 102.174 231.512 102.335 231.564 102.502C231.626 102.669 231.657 102.809 231.657 102.924C231.657 103.049 231.642 103.184 231.611 103.33C231.579 103.476 231.522 103.611 231.439 103.736C231.366 103.861 231.267 103.965 231.142 104.049C231.027 104.132 230.881 104.174 230.704 104.174C230.538 104.174 230.387 104.143 230.251 104.08C230.126 104.018 230.022 103.939 229.939 103.846C229.855 103.742 229.788 103.632 229.736 103.518C229.694 103.403 229.673 103.299 229.673 103.205C229.673 102.986 229.699 102.82 229.751 102.705C229.814 102.59 229.845 102.46 229.845 102.314C229.845 102.231 229.803 102.163 229.72 102.111C229.647 102.059 229.548 102.033 229.423 102.033C229.09 102.033 228.746 102.205 228.392 102.549C228.038 102.882 227.673 103.299 227.298 103.799C226.933 104.299 226.558 104.84 226.173 105.424C225.788 105.997 225.397 106.518 225.001 106.986C225.137 107.518 225.308 107.939 225.517 108.252C225.725 108.564 225.939 108.809 226.157 108.986C226.387 109.153 226.611 109.262 226.829 109.314C227.058 109.367 227.251 109.393 227.407 109.393C227.959 109.393 228.553 109.215 229.189 108.861C229.824 108.497 230.512 107.924 231.251 107.143ZM223.47 101.158C222.762 101.45 222.1 101.757 221.486 102.08C220.871 102.393 220.34 102.762 219.892 103.189C219.444 103.606 219.09 104.09 218.829 104.643C218.579 105.184 218.454 105.83 218.454 106.58C218.454 107.038 218.512 107.445 218.626 107.799C218.741 108.153 218.897 108.45 219.095 108.689C219.303 108.919 219.543 109.096 219.814 109.221C220.084 109.335 220.376 109.393 220.689 109.393C220.907 109.393 221.137 109.351 221.376 109.268C221.626 109.184 221.871 109.075 222.111 108.939C222.361 108.804 222.6 108.648 222.829 108.471C223.069 108.294 223.293 108.111 223.501 107.924C223.241 107.424 223.064 106.893 222.97 106.33C222.876 105.768 222.829 105.221 222.829 104.689C222.829 104.127 222.887 103.549 223.001 102.955C223.126 102.351 223.282 101.752 223.47 101.158ZM225.517 99.8926C226.09 99.653 226.694 99.3717 227.329 99.0488C227.975 98.7155 228.569 98.3457 229.111 97.9395C229.652 97.5228 230.1 97.0697 230.454 96.5801C230.808 96.0801 230.986 95.5384 230.986 94.9551C230.986 94.7155 230.923 94.5176 230.798 94.3613C230.683 94.2051 230.491 94.127 230.22 94.127C229.824 94.127 229.407 94.2728 228.97 94.5645C228.543 94.8457 228.116 95.2467 227.689 95.7676C227.272 96.278 226.871 96.8874 226.486 97.5957C226.111 98.2936 225.788 99.0592 225.517 99.8926Z" fill="#E0C58E"></path></svg> 