<?xml version="1.0" encoding="UTF-8"?> <svg xmlns="http://www.w3.org/2000/svg" width="364" height="165" viewBox="0 0 364 165" fill="none"><path d="M93.3352 71.0205V70.6H94.9705C96.0607 70.6 96.7459 70.4131 97.0263 70.0393C97.3066 69.6655 97.4468 68.8868 97.4468 67.7032V40.744C97.4468 39.5603 97.3066 38.7816 97.0263 38.4078C96.7459 38.034 96.0607 37.8471 94.9705 37.8471H93.3352V37.4266H104.829V37.8471H103.614C102.524 37.8471 101.823 38.034 101.512 38.4078C101.231 38.7816 101.091 39.5603 101.091 40.744V67.8433L114.361 37.4266H121.696V37.8471H120.014C118.924 37.8471 118.239 38.034 117.958 38.4078C117.678 38.7816 117.538 39.5603 117.538 40.744V67.7032C117.538 68.8868 117.678 69.6655 117.958 70.0393C118.239 70.4131 118.924 70.6 120.014 70.6H121.696V71.0205H110.155V70.6H111.417C112.507 70.6 113.192 70.4131 113.473 70.0393C113.753 69.6655 113.893 68.8868 113.893 67.7032V40.6038L100.624 71.0205H93.3352ZM123.313 71.0205V70.6H124.948C126.069 70.6 126.755 70.4443 127.004 70.1328C127.284 69.8213 127.424 69.0114 127.424 67.7032V40.3234C127.424 39.2021 127.284 38.5168 127.004 38.2676C126.755 37.9873 126.069 37.8471 124.948 37.8471H123.313V37.4266H134.012V37.8471H133.592C132.47 37.8471 131.77 37.9873 131.489 38.2676C131.209 38.5168 131.069 39.2021 131.069 40.3234V50.8361C132.751 50.8361 133.763 50.6181 134.106 50.182L141.488 40.8841C142.049 40.1988 142.329 39.607 142.329 39.1086C142.329 38.2676 141.519 37.8471 139.899 37.8471H139.479V37.4266H149.805V37.8471H149.244C148.06 37.8471 146.846 38.1119 145.6 38.6414C144.354 39.1398 143.279 39.9497 142.376 41.071L134.947 50.4624L134.994 50.6492C136.053 50.8984 136.987 51.2411 137.797 51.6772C138.638 52.0821 139.339 52.5337 139.899 53.0321C140.491 53.4994 141.005 54.1068 141.441 54.8543C141.909 55.5707 142.267 56.2404 142.516 56.8634C142.765 57.4552 142.999 58.2184 143.217 59.1528C143.435 60.0562 143.591 60.8193 143.684 61.4423C143.777 62.0341 143.886 62.8128 144.011 63.7784C144.105 64.5571 144.182 65.149 144.245 65.5539C144.307 65.9588 144.4 66.4728 144.525 67.0958C144.65 67.7187 144.79 68.186 144.946 68.4975C145.101 68.8089 145.288 69.136 145.506 69.4786C145.755 69.8213 146.051 70.0705 146.394 70.2262C146.737 70.3508 147.142 70.4131 147.609 70.4131C148.294 70.4131 149.026 70.1016 149.805 69.4786L150.412 69.0114L150.692 69.3385L150.085 69.8057C148.808 70.9582 147.546 71.5345 146.301 71.5345C145.678 71.5345 145.101 71.441 144.572 71.2541C144.073 71.0672 143.637 70.8492 143.264 70.6C142.89 70.3197 142.547 69.9303 142.236 69.4319C141.924 68.9024 141.675 68.4352 141.488 68.0302C141.301 67.5941 141.114 67.0023 140.927 66.2548C140.74 65.476 140.6 64.8531 140.507 64.3858C140.413 63.9186 140.289 63.2489 140.133 62.3767C140.008 61.5669 139.899 60.9595 139.806 60.5545C139.744 60.1185 139.619 59.5266 139.432 58.7791C139.276 58.0315 139.121 57.4552 138.965 57.0503C138.809 56.6142 138.607 56.1003 138.358 55.5084C138.108 54.8855 137.844 54.4027 137.563 54.06C137.283 53.7174 136.94 53.3436 136.535 52.9387C136.13 52.5337 135.694 52.2223 135.227 52.0042C134.76 51.7862 134.215 51.6149 133.592 51.4903C133 51.3345 132.346 51.2566 131.629 51.2566H131.069V67.7032C131.069 69.0114 131.209 69.8213 131.489 70.1328C131.77 70.4443 132.47 70.6 133.592 70.6H135.227V71.0205H123.313ZM150.69 71.0205V70.6H152.325C153.415 70.6 154.1 70.4131 154.381 70.0393C154.661 69.6655 154.801 68.8868 154.801 67.7032V40.744C154.801 39.5603 154.661 38.7816 154.381 38.4078C154.1 38.034 153.415 37.8471 152.325 37.8471H150.69V37.4266H162.183V37.8471H160.969C159.878 37.8471 159.178 38.034 158.866 38.4078C158.586 38.7816 158.446 39.5603 158.446 40.744V67.8433L171.715 37.4266H179.05V37.8471H177.368C176.278 37.8471 175.593 38.034 175.313 38.4078C175.032 38.7816 174.892 39.5603 174.892 40.744V67.7032C174.892 68.8868 175.032 69.6655 175.313 70.0393C175.593 70.4131 176.278 70.6 177.368 70.6H179.05V71.0205H167.51V70.6H168.771C169.862 70.6 170.547 70.4131 170.827 70.0393C171.108 69.6655 171.248 68.8868 171.248 67.7032V40.6038L157.978 71.0205H150.69ZM184.592 71.0205V70.6H188.143C189.264 70.6 189.949 70.4754 190.199 70.2262C190.479 69.9459 190.619 69.245 190.619 68.1237V38.2676H187.816C185.48 38.2676 183.875 38.6258 183.003 39.3423C182.131 40.0275 181.633 41.4604 181.508 43.6408L181.368 45.5564L180.527 45.5097L181.228 34.6699L181.742 34.7167L181.508 37.4266H203.281L203.048 34.7634L203.561 34.7167L204.262 45.5097L203.421 45.5564L203.281 43.6408C203.125 41.4604 202.611 40.0275 201.739 39.3423C200.867 38.6258 199.279 38.2676 196.974 38.2676H194.264V68.1237C194.264 69.245 194.388 69.9459 194.637 70.2262C194.918 70.4754 195.619 70.6 196.74 70.6H200.197V71.0205H184.592ZM201.691 71.0205V70.6H202.438C203.31 70.6 204.167 69.6344 205.008 67.7032L218.137 37.4266H221.735V37.9873C221.735 39.1086 221.875 40.012 222.155 40.6972L233.182 67.7032C233.68 68.918 234.085 69.7123 234.397 70.086C234.708 70.4287 235.222 70.6 235.939 70.6H236.313V71.0205H227.388V70.6H230.986V70.5066C230.55 70.3508 230.067 69.6188 229.538 68.3106L226.921 61.9095H208.419L205.896 67.7032C205.74 68.077 205.662 68.4352 205.662 68.7778C205.662 69.3073 205.865 69.7434 206.27 70.086C206.675 70.4287 207.22 70.6 207.905 70.6H210.194V71.0205H201.691ZM208.793 61.0685H226.594L218.651 41.585C218.402 41.0243 218.277 40.4013 218.277 39.716H217.857C217.857 40.0898 217.67 40.7128 217.296 41.585L208.793 61.0685Z" fill="#353434"></path><path d="M120.895 8.93983C120.895 9.32621 120.589 9.5838 119.977 9.71259L117.755 9.08472C117.272 9.18132 116.628 9.32621 115.823 9.5194C113.054 10.4532 110.237 12.7554 107.371 16.426C105.278 19.1307 103.298 21.8515 101.43 24.5884C94.7332 34.4733 88.8086 44.5998 83.6569 54.9678C81.1776 59.9264 79.9379 63.6775 79.9379 66.2212C79.9379 68.8937 80.8878 70.2299 82.7875 70.2299C83.0773 70.1333 84.172 69.7791 86.0718 69.1674C86.2327 69.264 86.3132 69.4088 86.3132 69.602C86.3132 70.2138 85.8142 70.7129 84.816 71.0993C84.0754 71.3891 83.4476 71.534 82.9324 71.534C80.0667 71.534 78.6339 69.2962 78.6339 64.8205C78.6339 61.8583 79.6803 57.5759 81.7732 51.9733C83.8983 46.3707 84.9609 44.0202 84.9609 44.9218C84.9609 44.5676 84.7677 44.3905 84.3813 44.3905H82.3045L77.1366 43.9075C75.7199 43.9075 74.7217 44.2939 74.1422 45.0667C73.788 45.8073 73.0957 47.1274 72.0654 49.0271C63.6293 64.2249 54.5815 71.8237 44.9219 71.8237C40.6073 71.8237 37.1459 70.3265 34.5379 67.332C32.0264 64.4986 30.7706 60.8923 30.7706 56.5133C30.7706 51.4259 32.1552 46.3224 34.9242 41.2029C37.6933 36.0833 41.2352 32.2033 45.5498 29.563C45.9684 29.4021 46.4191 29.0479 46.9021 28.5005C47.1919 27.0194 47.8198 24.8298 48.7857 21.932C50.9753 17.5852 54.0663 14.0594 58.0589 11.3547C62.2448 8.48905 66.6721 7.05621 71.3409 7.05621C73.0152 7.05621 75.3818 7.2977 78.4407 7.78068C77.7645 3.59486 75.897 1.50195 72.8381 1.50195C72.2585 1.50195 71.5985 1.80783 70.8579 2.41961C70.1495 3.03138 69.8114 3.33727 69.8436 3.33727C69.4573 3.33727 69.2641 3.09578 69.2641 2.6128C69.2641 1.87223 69.8114 1.24436 70.9062 0.729179C71.7756 0.310596 72.6449 0.101305 73.5143 0.101305C75.3818 0.101305 76.8146 1.05116 77.8128 2.95088C78.2958 3.94904 79.1651 5.71997 80.4209 8.26366C81.3225 8.48905 82.3528 8.79493 83.512 9.18132C85.7337 9.88969 88.3257 10.2439 91.2879 10.2439C93.6062 10.2439 96.005 9.82529 98.4843 8.98813C101.543 7.95777 103.556 6.55713 104.522 4.78621C104.522 4.36762 104.538 3.73975 104.57 2.90259C104.634 2.484 104.972 2.27471 105.584 2.27471C106.196 2.27471 106.502 2.70939 106.502 3.57876C106.502 4.41592 105.52 5.70387 103.556 7.44259C100.046 10.5659 94.5078 12.0148 86.9411 11.7894L80.0345 11.5962C79.3583 15.9108 77.1527 20.322 73.4177 24.8298C70.1334 28.7903 66.3823 32.0745 62.1643 34.6826C62.1321 34.8436 62.0677 35.3749 61.9711 36.2765C61.3593 42.1366 59.2986 47.2723 55.7889 51.6835C53.0521 55.0966 50.4762 56.8031 48.0613 56.8031C46.2904 56.8031 45.4049 56.1591 45.4049 54.8712C45.4049 54.6458 45.5498 54.2916 45.8396 53.8086H46.1777C47.0148 54.7102 47.8198 55.161 48.5926 55.161C50.3635 55.161 52.3759 53.7764 54.6298 51.0073C56.4651 48.7534 57.7531 46.6927 58.4936 44.8252C59.9748 41.058 60.7153 38.4338 60.7153 36.9526V35.3588C58.4936 36.2604 56.3524 36.7111 54.2917 36.7111C51.6514 36.7111 49.5263 35.3588 47.9164 32.6541C47.3368 31.6882 46.9665 31.2052 46.8055 31.2052C46.0328 31.2052 44.5516 32.4609 42.3621 34.9724C40.7522 36.8399 39.6735 38.1923 39.1262 39.0294C34.9081 45.6302 32.7991 51.4581 32.7991 56.5133C32.7991 65.6899 36.9367 70.2782 45.2117 70.2782C50.2025 70.2782 54.8069 67.8794 59.0249 63.0818C61.9228 59.7976 65.1104 54.6941 68.5879 47.7714C71.518 41.9434 74.0134 37.2746 76.0741 33.765C76.7825 32.477 78.2475 30.0621 80.4692 26.5203C86.6513 17.5047 91.2718 12.9969 94.3307 12.9969C94.8137 12.9969 95.0552 13.1739 95.0552 13.5281C95.0552 13.8179 94.7815 14.0433 94.2341 14.2043C93.4613 14.4297 93.0267 14.5746 92.9301 14.639C90.3542 16.1523 87.5368 19.6781 84.4779 25.2162C83.1578 27.6311 81.3869 31.0925 79.1651 35.6003C77.2654 39.4963 76.2512 41.6375 76.1224 42.0239C76.1224 42.2815 76.3478 42.4103 76.7985 42.4103C76.8307 42.4103 76.9756 42.3942 77.2332 42.362C77.523 42.3298 77.7967 42.3137 78.0543 42.3137L79.31 42.2654C79.8896 42.2332 80.7912 42.3298 82.0147 42.5552C83.2383 42.7806 84.1398 42.8933 84.7194 42.8933C85.6854 42.8933 86.3454 42.5874 86.6996 41.9756C89.1467 37.7898 91.626 33.9099 94.1375 30.3358C97.7438 25.1518 100.481 21.4651 102.348 19.2756C106.309 14.5746 110.108 11.1937 113.746 9.13302C115.453 8.16706 117.127 7.68408 118.769 7.68408C120.186 7.68408 120.895 8.10266 120.895 8.93983ZM78.3924 12.4656C78.3924 11.8216 78.2475 11.4674 77.9577 11.403C76.8307 11.1132 74.931 10.9683 72.2585 10.9683C62.116 10.9683 54.7747 14.6229 50.2347 21.932C49.0111 23.8961 48.4638 25.7153 48.5926 27.3896C48.6891 27.5506 48.8501 27.6311 49.0755 27.6311C49.6229 27.6311 50.4601 27.4862 51.587 27.1964C52.714 26.8745 53.5672 26.7135 54.1468 26.7135C56.4329 26.7135 58.2843 27.5345 59.7011 29.1767C60.2485 29.8206 60.9729 31.0925 61.8745 32.9922C65.4485 31.4145 69.087 28.3073 72.7898 23.6707C74.8827 21.0626 76.3961 18.5833 77.3298 16.2328C78.0382 14.4619 78.3924 13.2061 78.3924 12.4656ZM60.5221 33.6684C59.3952 29.8367 57.3506 27.9209 54.3883 27.9209C51.5226 27.9209 49.5263 28.6776 48.3994 30.1909C48.9145 33.6684 51.0396 35.4071 54.7747 35.4071C57.4472 35.4071 59.363 34.8275 60.5221 33.6684Z" fill="#353434"></path><path d="M171.507 145.825V145.404H172.254C173.126 145.404 173.983 144.439 174.824 142.507L187.953 112.231H191.551V112.791C191.551 113.913 191.691 114.816 191.971 115.501L202.998 142.507C203.496 143.722 203.901 144.516 204.213 144.89C204.524 145.233 205.038 145.404 205.755 145.404H206.128V145.825H197.204V145.404H200.802V145.311C200.366 145.155 199.883 144.423 199.354 143.115L196.737 136.714H178.235L175.712 142.507C175.556 142.881 175.478 143.239 175.478 143.582C175.478 144.112 175.681 144.548 176.085 144.89C176.49 145.233 177.035 145.404 177.721 145.404H180.01V145.825H171.507ZM178.609 135.873H196.41L188.467 116.389C188.218 115.828 188.093 115.206 188.093 114.52H187.673C187.673 114.894 187.486 115.517 187.112 116.389L178.609 135.873ZM207.428 145.825V145.404H210.978C212.1 145.404 212.785 145.28 213.034 145.03C213.315 144.75 213.455 144.049 213.455 142.928V113.072H210.651C208.315 113.072 206.711 113.43 205.839 114.146C204.967 114.832 204.468 116.265 204.344 118.445L204.204 120.361L203.363 120.314L204.063 109.474L204.577 109.521L204.344 112.231H226.117L225.883 109.568L226.397 109.521L227.098 120.314L226.257 120.361L226.117 118.445C225.961 116.265 225.447 114.832 224.575 114.146C223.703 113.43 222.114 113.072 219.809 113.072H217.099V142.928C217.099 144.049 217.224 144.75 217.473 145.03C217.753 145.28 218.454 145.404 219.576 145.404H223.033V145.825H207.428ZM224.526 145.825V145.404H225.274C226.146 145.404 227.003 144.439 227.844 142.507L240.973 112.231H244.571V112.791C244.571 113.913 244.711 114.816 244.991 115.501L256.018 142.507C256.516 143.722 256.921 144.516 257.232 144.89C257.544 145.233 258.058 145.404 258.774 145.404H259.148V145.825H250.224V145.404H253.822V145.311C253.386 145.155 252.903 144.423 252.373 143.115L249.757 136.714H231.254L228.731 142.507C228.576 142.881 228.498 143.239 228.498 143.582C228.498 144.112 228.7 144.548 229.105 144.89C229.51 145.233 230.055 145.404 230.741 145.404H233.03V145.825H224.526ZM231.628 135.873H249.43L241.487 116.389C241.238 115.828 241.113 115.206 241.113 114.52H240.693C240.693 114.894 240.506 115.517 240.132 116.389L231.628 135.873ZM263.317 112.231H267.336H280.138H287.941V112.651H286.258C285.168 112.651 284.483 112.838 284.203 113.212C283.922 113.586 283.782 114.364 283.782 115.548V142.507C283.782 143.691 283.922 144.47 284.203 144.844C284.483 145.217 285.168 145.404 286.258 145.404H287.941V145.825H276.4V145.404H277.661C278.752 145.404 279.437 145.217 279.717 144.844C279.998 144.47 280.138 143.691 280.138 142.507V113.072H269.205V124.472C269.205 130.235 268.535 135.156 267.195 139.237C265.856 143.286 264.299 146.043 262.523 147.507L259.766 144.376C260.732 143.566 261.651 142.601 262.523 141.479C263.395 140.327 264.252 138.972 265.093 137.415C265.965 135.857 266.666 134.05 267.195 131.995C267.725 129.939 267.99 127.805 267.99 125.594V116.109C267.99 114.489 267.787 113.508 267.382 113.165C267.009 112.823 265.996 112.651 264.345 112.651H263.317V112.231ZM289.557 145.825V145.357H291.193C292.314 145.357 292.999 145.233 293.248 144.984C293.529 144.703 293.669 144.003 293.669 142.881V115.081C293.669 113.96 293.529 113.274 293.248 113.025C292.999 112.776 292.314 112.651 291.193 112.651H289.557V112.231H301.472V112.651H299.836C298.715 112.651 298.014 112.791 297.734 113.072C297.453 113.352 297.313 114.053 297.313 115.174V128.537H300.864C304.446 128.537 307.328 129.331 309.508 130.92C311.688 132.509 312.779 134.596 312.779 137.181C312.779 139.766 311.688 141.853 309.508 143.442C307.328 145.03 304.446 145.825 300.864 145.825H289.557ZM297.313 129.331V142.507C297.313 143.566 297.048 144.361 296.519 144.89V144.984H299.976C302.811 144.984 304.976 144.314 306.471 142.975C307.966 141.635 308.714 139.704 308.714 137.181C308.714 134.627 307.966 132.68 306.471 131.341C304.976 130.001 302.811 129.331 299.976 129.331H297.313ZM329.937 145.825V145.404H330.778C331.899 145.404 332.6 145.28 332.88 145.03C333.16 144.75 333.301 144.049 333.301 142.928V131.107H329.703C329.672 135.655 328.753 139.315 326.946 142.087C325.171 144.828 322.819 146.198 319.891 146.198C317.866 146.198 316.153 145.591 314.752 144.376V140.685C317.025 142.305 319.097 143.115 320.966 143.115C323.489 143.115 325.42 142.071 326.759 139.984C328.13 137.897 328.831 134.938 328.862 131.107C324.999 131.107 321.885 130.297 319.517 128.677C317.15 127.026 315.966 124.69 315.966 121.669C315.966 118.647 317.15 116.327 319.517 114.707C321.885 113.056 324.999 112.231 328.862 112.231H341.057V112.651H339.421C338.3 112.651 337.599 112.791 337.319 113.072C337.07 113.321 336.945 114.006 336.945 115.128V142.928C336.945 144.049 337.07 144.75 337.319 145.03C337.599 145.28 338.3 145.404 339.421 145.404H341.057V145.825H329.937ZM333.301 130.266V115.548C333.301 114.458 333.565 113.648 334.095 113.119V113.072H329.236C323.099 113.072 320.031 115.938 320.031 121.669C320.031 127.4 323.099 130.266 329.236 130.266H333.301Z" fill="#353434"></path><path d="M83.9905 117.561V116.985C83.9905 115.406 84.2465 114.083 84.7585 113.017C85.2705 111.95 86.0172 111.161 86.9985 110.649C88.0225 110.094 89.0252 109.71 90.0065 109.497C90.9878 109.241 92.1825 109.07 93.5905 108.985C94.8278 108.899 95.7878 108.814 96.4705 108.729C97.1958 108.643 98.0492 108.494 99.0305 108.281C100.054 108.025 100.822 107.726 101.334 107.385C101.889 107.043 102.358 106.553 102.742 105.913C103.169 105.23 103.382 104.441 103.382 103.545C103.382 103.289 103.361 103.033 103.318 102.777H104.214L104.342 104.505C104.385 105.102 104.406 105.465 104.406 105.593C104.406 107.086 104.172 108.323 103.702 109.305C103.276 110.243 102.614 110.947 101.718 111.417C100.822 111.843 99.8838 112.142 98.9025 112.313C97.9638 112.441 96.8118 112.505 95.4465 112.505C95.0625 112.505 94.6358 112.505 94.1665 112.505C95.4892 113.315 96.5558 114.489 97.3665 116.025C98.1772 117.518 98.5825 119.139 98.5825 120.889C98.5825 124.302 97.2385 127.054 94.5505 129.145C91.8625 131.193 88.2998 132.217 83.8625 132.217C79.2972 132.217 75.6065 131.086 72.7905 128.825C70.0172 126.521 68.6305 123.491 68.6305 119.737C68.6305 116.366 69.6118 113.486 71.5745 111.097C73.5798 108.665 76.1612 107.235 79.3185 106.809V106.745C77.6545 106.446 76.2678 105.465 75.1585 103.801C74.0492 102.137 73.4945 100.302 73.4945 98.2966C73.4945 95.6939 74.4332 93.6033 76.3105 92.0246C78.1878 90.4033 80.6838 89.5926 83.7985 89.5926C85.7185 89.5926 87.3612 89.8699 88.7265 90.4246C89.6652 90.8086 90.3905 91.4273 90.9025 92.2806L91.0305 92.2166C90.9878 92.0459 90.9665 91.6833 90.9665 91.1286V89.7846H91.5425V98.3606H90.9665V97.3366C90.7958 95.0753 90.0278 93.4113 88.6625 92.3446C87.2972 91.2779 85.6758 90.7446 83.7985 90.7446C81.6652 90.7446 79.9372 91.4273 78.6145 92.7926C77.3345 94.1153 76.6945 95.8646 76.6945 98.0406C76.6945 100.217 77.3132 102.158 78.5505 103.865C79.7878 105.571 81.3665 106.425 83.2865 106.425H84.3105V107.577H82.9665C80.0652 107.577 77.7825 108.643 76.1185 110.777C74.4972 112.91 73.6865 115.897 73.6865 119.737C73.6865 123.022 74.7318 125.667 76.8225 127.673C78.9558 129.678 81.7505 130.681 85.2065 130.681C88.8332 130.681 91.7558 129.763 93.9745 127.929C96.2358 126.094 97.3665 123.683 97.3665 120.697C97.3665 118.563 96.6838 116.686 95.3185 115.065C93.9958 113.443 92.2678 112.633 90.1345 112.633C88.5558 112.761 87.3185 113.187 86.4225 113.913C85.5692 114.595 85.1425 115.705 85.1425 117.241V117.561H83.9905Z" fill="#353434"></path><path d="M204.807 83.2177C204.807 83.604 204.501 83.8616 203.889 83.9904L201.667 83.3626C201.184 83.4591 200.54 83.604 199.735 83.7972C196.966 84.731 194.149 87.0332 191.283 90.7038C189.19 93.4085 187.21 96.1293 185.343 98.8662C178.645 108.751 172.721 118.878 167.569 129.246C165.09 134.204 163.85 137.955 163.85 140.499C163.85 143.172 164.8 144.508 166.7 144.508C166.989 144.411 168.084 144.057 169.984 143.445C170.145 143.542 170.225 143.687 170.225 143.88C170.225 144.492 169.726 144.991 168.728 145.377C167.988 145.667 167.36 145.812 166.844 145.812C163.979 145.812 162.546 143.574 162.546 139.098C162.546 136.136 163.592 131.854 165.685 126.251C167.81 120.649 168.873 118.298 168.873 119.2C168.873 118.845 168.68 118.668 168.293 118.668H166.217L161.049 118.185C159.632 118.185 158.634 118.572 158.054 119.345C157.7 120.085 157.008 121.405 155.977 123.305C147.541 138.503 138.494 146.102 128.834 146.102C124.519 146.102 121.058 144.604 118.45 141.61C115.938 138.776 114.683 135.17 114.683 130.791C114.683 125.704 116.067 120.6 118.836 115.481C121.605 110.361 125.147 106.481 129.462 103.841C129.88 103.68 130.331 103.326 130.814 102.778C131.104 101.297 131.732 99.1077 132.698 96.2098C134.887 91.863 137.978 88.3372 141.971 85.6326C146.157 82.7669 150.584 81.334 155.253 81.334C156.927 81.334 159.294 81.5755 162.353 82.0585C161.677 77.8727 159.809 75.7798 156.75 75.7798C156.171 75.7798 155.511 76.0857 154.77 76.6974C154.062 77.3092 153.724 77.6151 153.756 77.6151C153.369 77.6151 153.176 77.3736 153.176 76.8906C153.176 76.1501 153.724 75.5222 154.818 75.007C155.688 74.5884 156.557 74.3791 157.426 74.3791C159.294 74.3791 160.727 75.329 161.725 77.2287C162.208 78.2269 163.077 79.9978 164.333 82.5415C165.235 82.7669 166.265 83.0728 167.424 83.4591C169.646 84.1675 172.238 84.5217 175.2 84.5217C177.518 84.5217 179.917 84.1031 182.396 83.266C185.455 82.2356 187.468 80.835 188.434 79.064C188.434 78.6455 188.45 78.0176 188.482 77.1804C188.546 76.7618 188.884 76.5525 189.496 76.5525C190.108 76.5525 190.414 76.9872 190.414 77.8566C190.414 78.6938 189.432 79.9817 187.468 81.7204C183.958 84.8437 178.42 86.2926 170.853 86.0672L163.947 85.874C163.27 90.1887 161.065 94.5999 157.33 99.1077C154.046 103.068 150.294 106.352 146.076 108.96C146.044 109.121 145.98 109.653 145.883 110.554C145.271 116.414 143.211 121.55 139.701 125.961C136.964 129.374 134.388 131.081 131.973 131.081C130.202 131.081 129.317 130.437 129.317 129.149C129.317 128.924 129.462 128.569 129.752 128.086H130.09C130.927 128.988 131.732 129.439 132.505 129.439C134.276 129.439 136.288 128.054 138.542 125.285C140.377 123.031 141.665 120.971 142.406 119.103C143.887 115.336 144.627 112.712 144.627 111.23V109.637C142.406 110.538 140.265 110.989 138.204 110.989C135.564 110.989 133.438 109.637 131.828 106.932C131.249 105.966 130.879 105.483 130.718 105.483C129.945 105.483 128.464 106.739 126.274 109.25C124.664 111.118 123.586 112.47 123.038 113.307C118.82 119.908 116.711 125.736 116.711 130.791C116.711 139.968 120.849 144.556 129.124 144.556C134.115 144.556 138.719 142.157 142.937 137.36C145.835 134.075 149.023 128.972 152.5 122.049C155.43 116.221 157.925 111.552 159.986 108.043C160.695 106.755 162.16 104.34 164.381 100.798C170.563 91.7825 175.184 87.2747 178.243 87.2747C178.726 87.2747 178.967 87.4518 178.967 87.806C178.967 88.0958 178.694 88.3211 178.146 88.4821C177.373 88.7075 176.939 88.8524 176.842 88.9168C174.266 90.4302 171.449 93.9559 168.39 99.4941C167.07 101.909 165.299 105.37 163.077 109.878C161.178 113.774 160.163 115.915 160.034 116.302C160.034 116.559 160.26 116.688 160.711 116.688C160.743 116.688 160.888 116.672 161.145 116.64C161.435 116.608 161.709 116.592 161.966 116.592L163.222 116.543C163.802 116.511 164.703 116.608 165.927 116.833C167.15 117.058 168.052 117.171 168.632 117.171C169.597 117.171 170.258 116.865 170.612 116.253C173.059 112.068 175.538 108.188 178.05 104.614C181.656 99.4297 184.393 95.7429 186.26 93.5534C190.221 88.8524 194.02 85.4716 197.659 83.4109C199.365 82.4449 201.039 81.9619 202.682 81.9619C204.098 81.9619 204.807 82.3805 204.807 83.2177ZM162.304 86.7434C162.304 86.0994 162.16 85.7453 161.87 85.6809C160.743 85.3911 158.843 85.2462 156.171 85.2462C146.028 85.2462 138.687 88.9007 134.147 96.2098C132.923 98.1739 132.376 99.9931 132.505 101.667C132.601 101.828 132.762 101.909 132.988 101.909C133.535 101.909 134.372 101.764 135.499 101.474C136.626 101.152 137.479 100.991 138.059 100.991C140.345 100.991 142.196 101.812 143.613 103.454C144.161 104.098 144.885 105.37 145.787 107.27C149.361 105.692 152.999 102.585 156.702 97.9485C158.795 95.3404 160.308 92.8611 161.242 90.5106C161.95 88.7397 162.304 87.484 162.304 86.7434ZM144.434 107.946C143.307 104.115 141.263 102.199 138.3 102.199C135.435 102.199 133.438 102.955 132.311 104.469C132.827 107.946 134.952 109.685 138.687 109.685C141.359 109.685 143.275 109.105 144.434 107.946Z" fill="#353434"></path></svg> 