<?xml version="1.0" encoding="UTF-8"?> <svg xmlns="http://www.w3.org/2000/svg" width="105" height="48" viewBox="0 0 105 48" fill="none"> <path d="M75.5867 3.1376C75.8277 2.8431 76.0954 2.69585 76.3899 2.69585C76.8718 2.66908 77.1262 2.82971 77.1529 3.17776C77.2065 3.41871 77.086 3.76676 76.7915 4.22189C76.2025 5.23925 75.6537 6.3637 75.145 7.59525C74.6363 8.82679 74.1812 10.1654 73.7796 11.6111C73.1638 13.8333 72.7354 15.9885 72.4945 18.0767C72.2803 20.165 72.2803 22.2399 72.4945 24.3014C72.7087 26.6842 73.3244 28.8929 74.3418 30.9276C75.3859 32.9891 76.7513 34.7427 78.438 36.1885C80.1247 37.661 82.0791 38.7854 84.3012 39.5618C86.5234 40.3382 88.9195 40.6595 91.4897 40.5256C94.3544 40.3382 96.5631 39.8162 98.1159 38.9594C99.6687 38.1295 100.378 36.9916 100.244 35.5459C100.164 34.7963 99.7357 34.1136 98.9593 33.4978C98.2096 32.882 97.2324 32.3734 96.0277 31.9718C94.8229 31.5702 93.4307 31.2757 91.8511 31.0883C90.2983 30.9009 88.6786 30.8473 86.9919 30.9276C85.7603 31.008 84.4753 31.182 83.1366 31.4497C81.798 31.7442 80.4192 32.1458 79.0002 32.6545C78.8396 32.708 78.7727 32.7348 78.7994 32.7348C78.6388 32.7348 78.5585 32.6679 78.5585 32.534C78.5317 32.4537 78.6254 32.3466 78.8396 32.2127C79.9908 31.6237 81.2893 31.1552 82.735 30.8072C84.2075 30.4591 85.8273 30.2315 87.5943 30.1245C89.3077 30.0174 90.9676 30.0575 92.574 30.2449C94.2071 30.4591 95.6528 30.7804 96.9112 31.2087C98.1962 31.6371 99.2404 32.1726 100.044 32.8151C100.847 33.4577 101.288 34.1805 101.369 34.9837C101.449 35.8404 101.275 36.6168 100.847 37.3129C100.445 38.0358 99.8294 38.6515 98.9994 39.1602C98.1695 39.6957 97.1521 40.124 95.9473 40.4453C94.7426 40.7934 93.3772 41.0075 91.8511 41.0879C89.2006 41.2485 86.6706 40.9406 84.2611 40.1642C81.8783 39.4146 79.7499 38.2633 77.8758 36.7105C76.0017 35.1577 74.4623 33.2301 73.2575 30.9276C72.0795 28.652 71.37 26.0684 71.1291 23.1769C70.6204 18.0098 71.8519 12.0395 74.8237 5.26603C73.5654 7.2472 72.3338 9.18822 71.1291 11.0891C69.9511 12.9899 68.7463 14.8908 67.5148 16.7917C66.31 18.6925 65.0785 20.6335 63.8201 22.6147C62.5618 24.5691 61.25 26.6038 59.8846 28.7189C59.7507 28.9063 59.5633 29.0268 59.3223 29.0803C59.0814 29.1606 58.8672 29.174 58.6798 29.1205C58.4656 29.1205 58.3184 29 58.238 28.759C58.238 28.7055 58.2916 28.5984 58.3987 28.4378C58.5058 28.2771 58.6262 28.0228 58.7601 27.6748C59.6971 25.64 60.6208 23.6455 61.5311 21.6911C62.4413 19.7099 63.2847 17.876 64.0611 16.1893C64.8375 14.5026 65.5202 13.0167 66.1092 11.7316C66.725 10.4465 67.1801 9.46934 67.4746 8.80002C67.662 8.31811 67.8762 7.82282 68.1171 7.31413C68.3581 6.77868 68.5857 6.25661 68.7999 5.74793C69.014 5.23925 69.2014 4.75734 69.3621 4.30221C69.5495 3.84707 69.6834 3.45887 69.7637 3.1376C68.9069 4.34237 68.0234 5.65423 67.1132 7.07318C66.2297 8.49213 65.3194 9.92447 64.3824 11.3702C63.4721 12.7891 62.5217 14.1947 61.5311 15.5869C60.5673 16.9523 59.5901 18.1972 58.5995 19.3217C55.4135 22.7486 52.1874 25.2652 48.9211 26.8716C45.6549 28.4779 42.2012 29.2811 38.5601 29.2811C37.4089 29.2811 36.3246 29.1874 35.3072 29C34.3166 28.8394 33.4465 28.6118 32.6969 28.3173C31.974 27.996 31.3984 27.6346 30.9701 27.233C30.5417 26.8314 30.3275 26.4031 30.3275 25.9479C30.3275 25.3054 30.7157 24.7967 31.4921 24.4219C32.2685 24.0203 33.2859 23.8195 34.5442 23.8195C35.0261 23.873 35.6017 23.9667 36.2711 24.1006C36.9404 24.2345 37.5695 24.4085 38.1585 24.6227C38.7743 24.8101 39.283 25.0243 39.6846 25.2652C40.1129 25.4794 40.3271 25.6936 40.3271 25.9078C40.3271 25.9881 40.287 26.0282 40.2066 26.0282C40.1531 26.0282 40.1129 26.0148 40.0862 25.9881C38.2656 24.8636 36.4317 24.3014 34.5844 24.3014C32.4426 24.3014 31.3717 24.8235 31.3717 25.8676C31.3717 26.3227 31.5591 26.7377 31.9339 27.1125C32.3087 27.4873 32.8174 27.8086 33.4599 28.0763C34.1292 28.3441 34.919 28.5449 35.8293 28.6787C36.7663 28.8126 37.7971 28.8795 38.9215 28.8795C42.7768 28.8795 46.6589 27.6212 50.5677 25.1046C54.5032 22.5612 58.2113 18.7996 61.6917 13.8199C61.9327 13.4718 62.2673 12.9899 62.6957 12.3742C63.124 11.7316 63.606 11.0222 64.1414 10.2457C64.6769 9.44256 65.2391 8.59922 65.8281 7.71572C66.4439 6.83223 67.0329 5.96211 67.5951 5.10539C68.1573 4.22189 68.6794 3.39194 69.1613 2.61553C69.67 1.83912 70.0983 1.16981 70.4464 0.607581C70.4999 0.50049 70.607 0.420171 70.7676 0.366625C70.9551 0.286308 71.1425 0.246149 71.3299 0.246149C71.5173 0.219377 71.6913 0.219377 71.8519 0.246149C72.0126 0.272922 72.0929 0.326467 72.0929 0.406786L69.4826 6.75191C69.429 6.88577 69.255 7.28736 68.9605 7.95668C68.6928 8.59922 68.3447 9.4024 67.9164 10.3662C67.488 11.33 67.0061 12.4009 66.4706 13.5789C65.9619 14.7569 65.4265 15.9483 64.8643 17.1531C64.3288 18.3311 63.7934 19.4957 63.2579 20.6469C62.7492 21.7714 62.2941 22.762 61.8925 23.6187C61.4909 24.4754 61.1563 25.1581 60.8885 25.6668C60.6476 26.1755 60.5271 26.4031 60.5271 26.3495C60.5271 26.3763 60.5405 26.3897 60.5673 26.3897C60.7547 26.1219 61.1696 25.4928 61.8122 24.5022C62.4547 23.4848 63.2044 22.2934 64.0611 20.928C64.9446 19.5359 65.8816 18.0634 66.8722 16.5105C67.8628 14.9577 68.7865 13.4986 69.6432 12.1332C70.5267 10.741 71.2897 9.53627 71.9323 8.5189C72.5748 7.50154 72.9764 6.859 73.137 6.59127C73.6725 5.73455 74.1008 5.07862 74.4221 4.62348C74.7434 4.16835 74.9843 3.83369 75.145 3.61951C75.3056 3.40532 75.4127 3.28485 75.4662 3.25807C75.5198 3.20453 75.56 3.16437 75.5867 3.1376Z" fill="black"></path> </svg> 