<?xml version="1.0" encoding="UTF-8"?> <svg xmlns="http://www.w3.org/2000/svg" width="294" height="114" viewBox="0 0 294 114" fill="none"><path d="M22.5557 43.306C23.0202 46.8434 22.4426 50.5963 20.8231 54.5649C19.2417 58.4234 17.0645 61.5459 14.2917 63.9324C13.1238 64.9394 11.8685 65.531 10.5259 65.7073C8.75723 65.9396 7.32122 65.2548 6.21789 63.653C5.34276 62.389 4.77722 60.7823 4.52125 58.8329C4.34326 57.4773 4.41063 55.84 4.72336 53.921C3.39678 52.5193 2.61228 50.8954 2.36988 49.0492C2.01051 46.3123 2.70514 43.6011 4.45375 40.9158C6.26796 38.1298 8.52416 36.5597 11.2224 36.2054C12.5263 36.0342 13.6367 36.44 14.5537 37.4227C15.6084 36.6539 16.4908 36.2228 17.2009 36.1296C18.7242 35.9296 19.5919 36.6364 19.8038 38.2502C19.8411 38.5342 19.8469 38.8289 19.8214 39.1343C21.3527 39.6949 22.2641 41.0855 22.5557 43.306ZM19.0573 39.7665L18.5732 39.8301C17.5275 39.9674 16.3681 40.7894 15.0951 42.2961C14.0273 43.5657 13.0959 45.0734 12.3008 46.8194C11.4452 48.7047 11.0116 50.4032 11 51.9149C10.9979 52.0991 11.0036 52.2428 11.0172 52.3461C11.99 51.6536 12.9728 50.7366 13.9654 49.5951C15.1762 48.2148 16.2617 46.6802 17.2219 44.9913C18.4057 42.9054 19.0175 41.1638 19.0573 39.7665ZM19.1847 38.036C19.0542 37.0419 18.4467 36.6161 17.3622 36.7585C16.4585 36.8771 15.6191 37.3354 14.844 38.1332C14.9397 38.462 15.0062 38.7685 15.0435 39.0525C15.0943 39.4398 15.0186 39.8634 14.8164 40.3234C14.5951 40.8383 14.3127 41.1381 13.9692 41.2226L13.7603 41.1318C14.211 40.3635 14.3943 39.709 14.3102 39.1685L14.2044 38.5126L14.0815 38.6273C11.9764 40.5978 9.91635 44.112 7.90142 49.17C7.21913 50.8749 6.74497 52.4145 6.47893 53.789C6.67662 53.8944 7.05949 53.9098 7.62753 53.8352C8.99599 53.6555 9.9334 53.2435 10.4398 52.5992C10.4382 52.0872 10.4664 51.5516 10.5243 50.9925C10.8411 47.9041 12.1496 44.9679 14.45 42.1838C15.5144 40.8883 16.6257 40.0004 17.7839 39.52C18.2076 39.3462 18.6717 39.1802 19.1763 39.022C19.2463 38.8553 19.2491 38.5266 19.1847 38.036ZM13.9411 37.8577C13.8094 37.4548 13.465 37.1323 12.9079 36.8903C12.4075 36.6802 11.925 36.6056 11.4602 36.6667C9.02022 36.987 6.93419 38.653 5.20213 41.6645C3.57714 44.4913 2.92992 47.1634 3.26047 49.6808C3.48083 51.3592 3.99657 52.4865 4.80768 53.0629C6.56168 46.8179 9.60614 41.7495 13.9411 37.8577ZM21.8439 42.9858C21.5795 40.9719 20.9049 39.8851 19.8202 39.7254C19.7569 39.9439 19.5988 40.4899 19.3458 41.3636C18.3243 44.886 16.2613 48.1774 13.1568 51.2378C12.7921 51.5614 12.0767 52.2135 11.0103 53.194C11.0076 53.2732 11.024 53.4483 11.0596 53.7194C11.1613 54.494 11.4156 55.1304 11.8225 55.6285C12.3091 56.2344 12.914 56.4899 13.6369 56.3949C14.631 56.2644 15.5702 55.6158 16.4544 54.4491C17.1032 53.5891 17.6452 52.5658 18.0804 51.3792C18.5553 50.0956 18.7671 48.958 18.7157 47.9667L18.8319 47.9515C18.9606 48.1315 19.0402 48.3378 19.0707 48.5702C19.1826 49.4222 18.9955 50.4974 18.5093 51.7957C18.0915 52.9143 17.5703 53.8955 16.9456 54.7392C15.9543 56.0907 14.9228 56.8368 13.8513 56.9775C11.9406 57.2283 10.8141 56.0499 10.4716 53.442C9.62219 53.9738 8.73915 54.2999 7.82254 54.4202C7.48688 54.4643 6.98222 54.4715 6.30855 54.4417C5.66929 56.5744 5.48527 58.6735 5.75649 60.7391C5.92939 62.0559 6.42544 63.1333 7.24463 63.9713C8.15653 64.9153 9.24508 65.3042 10.5103 65.1381C13.7765 64.7092 16.6465 61.7125 19.1201 56.1477C20.0026 54.167 20.712 52.0186 21.2484 49.7025C21.8776 46.9934 22.0761 44.7545 21.8439 42.9858ZM38.8443 54.0898C37.5854 56.3038 36.032 58.1756 34.1841 59.7052C33.4835 60.27 32.1287 61.354 30.1198 62.9573C29.8509 63.6098 29.6034 64.3252 29.3773 65.1035C28.7716 67.1923 27.8201 69.4972 26.5227 72.0183C24.6525 75.6784 23.059 77.5948 21.7422 77.7677C20.9547 77.8711 20.4932 77.4064 20.3575 76.3736C20.2101 75.2505 20.6632 73.7004 21.7169 71.7235C23.0962 69.126 25.2035 66.4723 28.0389 63.7624C28.3536 63.4584 28.6261 63.1337 28.8566 62.7883C29.0368 62.1605 29.3114 61.2511 29.6803 60.0602C28.6955 61.1613 28.11 61.8029 27.9237 61.9849C27.4694 62.4254 27.0357 62.6728 26.6226 62.727C25.3703 62.8915 24.6306 62.1087 24.4034 60.3788C24.0746 57.8742 25.0942 55.0876 27.4622 52.0188C28.9218 50.133 30.181 49.1206 31.2396 48.9816C32.182 48.8579 32.8576 49.4521 33.2662 50.7642C33.3407 50.5312 33.4988 50.2347 33.7404 49.8746C34.0925 49.3556 34.6399 49.0736 35.3825 49.0286C34.8104 50.2725 34.316 51.4078 33.8992 52.4343C31.682 57.9522 30.6039 60.9435 30.665 61.4083L30.5171 61.7823C30.6231 61.6896 30.7605 61.5862 30.9294 61.4721C31.3283 61.2096 32.0229 60.6981 33.013 59.9378C34.6012 58.7311 36.4397 56.73 38.5284 53.9343L38.8443 54.0898ZM32.5748 50.5989C32.4697 49.7985 32.0815 49.4424 31.4101 49.5305C30.2741 49.6797 28.9456 51.3644 27.4248 54.5845C25.955 57.693 25.3057 59.8991 25.4769 61.2031C25.5718 61.926 25.9162 62.2485 26.5101 62.1705C27.9302 61.9841 29.4981 59.7229 31.2139 55.3872C32.2093 52.8663 32.6629 51.2702 32.5748 50.5989ZM28.2032 64.8637C28.1706 64.8154 28.1363 64.7542 28.1003 64.6802C26.9553 65.4609 25.468 67.1861 23.6385 69.8559C21.6089 72.8014 20.6788 74.9197 20.8483 76.2107C20.9399 76.9078 21.2374 77.2233 21.7409 77.1572C22.8899 77.0064 24.1094 75.3426 25.3995 72.1658C25.749 71.2269 26.3887 69.5473 27.3185 67.127C27.4568 66.7805 27.7518 66.0261 28.2032 64.8637ZM40.1923 48.0031C40.3972 47.9631 40.581 47.9127 40.7437 47.8519C40.9194 47.7895 41.1716 47.7104 41.5005 47.6147C41.0969 48.9415 40.728 50.1325 40.3937 51.1876C40.0724 52.241 39.7732 53.2127 39.4961 54.1027L43.2259 53.5539C43.3826 53.0474 43.5618 52.5117 43.7634 51.9468C43.9763 51.3673 44.2107 50.7521 44.4667 50.1012L44.7028 49.499C44.7901 49.2642 44.8943 49.0076 45.0153 48.7291C45.1364 48.4505 45.2798 48.1428 45.4457 47.8058C45.6101 47.7579 45.822 47.671 46.0812 47.5451C46.3517 47.4045 46.6777 47.2369 47.0592 47.0424L47.1805 47.0658C46.911 47.6134 46.4566 48.704 45.8175 50.3375C45.6842 50.7227 45.4818 51.2812 45.2101 52.0129C44.9497 52.73 44.6145 53.6276 44.2045 54.7058C43.5072 56.5965 43.206 57.9034 43.301 58.6263C43.423 59.5558 43.8713 59.9697 44.6459 59.868C45.5367 59.7511 46.6097 58.6712 47.8649 56.6284C47.9175 56.5296 48.1373 56.1527 48.5241 55.4978C48.9108 54.843 49.4557 53.8915 50.1586 52.6436L50.556 52.6702L50.3047 53.1563C47.8645 57.8761 45.9796 60.3233 44.6498 60.4979C44.0302 60.5793 43.5087 60.3588 43.0856 59.8365C42.7242 59.3849 42.5012 58.8364 42.4164 58.1909C42.3012 57.313 42.5069 55.9793 43.0336 54.1898L39.3038 54.7386C39.0614 55.4927 38.8371 56.1854 38.6311 56.8165C38.4233 57.4348 38.2234 58.0126 38.0313 58.55C37.8392 59.0874 37.6558 59.5908 37.4811 60.0602C37.3175 60.5151 37.1523 60.957 36.9854 61.3861C36.7486 61.4828 36.5092 61.5602 36.2673 61.6182C36.0254 61.6763 35.7771 61.7351 35.5223 61.7949L40.1923 48.0031ZM62.9772 50.8029C62.8137 51.2577 62.4898 51.8912 62.0055 52.7034C59.7436 56.4805 58.0704 58.4402 56.9859 58.5826C56.0048 58.7115 55.3603 58.0541 55.0526 56.6105C54.9511 56.1379 54.8893 55.6667 54.867 55.1969C54.6019 55.6782 54.3014 56.1904 53.9656 56.7335C52.7822 58.6224 51.8354 59.6135 51.1254 59.7067C49.8602 59.8729 49.0971 58.9618 48.836 56.9737C48.5699 54.9468 49.0527 52.7231 50.2846 50.3026C51.893 47.1497 53.5428 45.4622 55.234 45.2401C56.2152 45.1113 56.85 45.6452 57.1384 46.8418C57.1469 46.9063 57.1798 47.0071 57.2372 47.144C57.5377 46.6318 57.839 46.126 58.1411 45.6267C58.3879 45.3054 58.7242 45.1167 59.1503 45.0608C59.3568 45.0337 59.5043 45.1062 59.5925 45.2785L57.9246 49.3782C57.6349 50.0729 57.1104 51.4287 56.3509 53.4458C55.8205 54.9075 55.6002 55.9805 55.6901 56.6647C55.8138 57.6071 56.1984 58.036 56.8439 57.9512C57.4378 57.8732 58.2066 57.2273 59.1504 56.0134C60.139 54.741 61.2633 52.9518 62.5232 50.6458C62.5766 50.6519 62.7279 50.7043 62.9772 50.8029ZM56.561 47.0949C56.4373 46.1525 56.0139 45.7287 55.291 45.8236C54.6067 45.9135 53.8134 46.7728 52.911 48.4015C52.2944 49.5068 51.4945 51.5161 50.5112 54.4293C50.0084 55.9005 49.8103 57.0428 49.9171 57.8561C50.0358 58.7598 50.3921 59.1727 50.9859 59.0947C51.2958 59.054 51.6848 58.7665 52.1531 58.2323C53.1009 57.1491 53.9585 55.5788 54.7258 53.5213C56.0442 49.96 56.6559 47.8178 56.561 47.0949ZM85.8931 48.1485L85.6418 48.6346C83.2016 53.3544 81.3166 55.8016 79.9869 55.9762C79.7029 56.0135 79.4362 55.9829 79.1869 55.8843C78.9359 55.7728 78.7112 55.6119 78.5128 55.4015C78.3145 55.1912 78.1498 54.937 78.0187 54.639C77.8877 54.3411 77.7993 54.0178 77.7535 53.6692C77.5772 52.3266 78.1811 49.8243 79.5651 46.1625C79.4199 46.4573 79.2636 46.7668 79.096 47.0908C78.6796 47.9203 78.2537 48.7773 77.8183 49.6618C77.3812 50.5335 76.9423 51.3922 76.5018 52.238C76.0742 53.0821 75.6485 53.8406 75.2247 54.5134C74.8009 55.1863 74.3876 55.7396 73.9849 56.1733C73.5822 56.6071 73.1937 56.8485 72.8193 56.8977C72.5611 56.9316 72.3017 56.9065 72.0412 56.8225C71.7789 56.7256 71.534 56.5608 71.3065 56.328C71.0789 56.0953 70.8816 55.7928 70.7146 55.4208C70.5459 55.0358 70.4259 54.5723 70.3547 54.03C70.2784 53.4491 70.2765 52.8846 70.349 52.3367C70.4069 51.7775 70.5258 51.2826 70.7056 50.8518C70.8967 50.4065 71.1375 50.04 71.428 49.7523C71.7315 49.463 72.0833 49.292 72.4835 49.2395C72.8579 49.1903 73.1606 49.295 73.3915 49.5536C73.6354 49.8105 73.781 50.1197 73.8285 50.4812C73.8872 50.8281 73.8473 51.1747 73.709 51.5212C73.5689 51.8548 73.3095 52.0793 72.9307 52.1947C72.7404 52.2459 72.536 52.2399 72.3176 52.1767C72.1104 52.0988 71.8971 52.0743 71.6776 52.1031C71.3678 52.1438 71.1538 52.4149 71.0358 52.9163C70.9178 53.4177 70.9045 54.0169 70.9961 54.7141C71.0588 55.1918 71.2301 55.5961 71.5099 55.927C71.7881 56.2451 72.212 56.3733 72.7818 56.3116C73.182 56.2591 73.5809 55.9966 73.9785 55.5241C74.3761 55.0517 74.7977 54.4119 75.2433 53.6048C75.7001 52.7832 76.1916 51.8256 76.7178 50.7322C77.2423 49.6258 77.8397 48.4246 78.51 47.1284C78.7812 46.5937 79.0999 46.02 79.4659 45.4072C79.7983 44.8383 80.1854 44.2359 80.6273 43.6C80.6799 43.5012 80.7318 43.3959 80.7828 43.2841C80.9472 43.2363 81.159 43.1494 81.4183 43.0234C81.6887 42.8828 82.0148 42.7153 82.3963 42.5207L82.5176 42.5442C82.4666 42.6559 82.3663 42.8923 82.2167 43.2534C82.0672 43.6145 81.8938 44.0444 81.6966 44.5431C81.4994 45.0417 81.288 45.5817 81.0623 46.1629C80.8477 46.7295 80.638 47.2823 80.433 47.8214C80.2263 48.3476 80.0395 48.8252 79.8725 49.2542C79.7185 49.6815 79.6082 49.9915 79.5416 50.1841C78.8443 52.0748 78.5431 53.3817 78.638 54.1046C78.7601 55.0342 79.2084 55.4481 79.983 55.3464C80.8738 55.2294 81.9468 54.1495 83.2019 52.1068C83.2546 52.0079 83.4743 51.6311 83.8611 50.9762C84.2479 50.3213 84.7928 49.3699 85.4956 48.1219L85.8931 48.1485ZM100.594 46.238C100.41 46.6429 100.017 47.2461 99.413 48.0477C98.6762 49.0375 97.8495 49.5925 96.9329 49.7129C96.4294 49.779 96.0157 49.7283 95.6916 49.5607L95.1103 49.184C94.9253 49.5759 94.6317 50.1398 94.2292 50.8755C93.6688 51.9078 93.2035 52.6649 92.8334 53.1469C92.1829 53.994 91.522 54.4616 90.8507 54.5498C90.1923 54.6362 89.6439 54.3602 89.2055 53.7218C88.8485 53.2039 88.6226 52.5835 88.5277 51.8606C88.3836 50.7632 88.4859 49.5416 88.8344 48.1957L86.2059 48.5802C86.0189 49.1563 85.8397 49.692 85.6683 50.1873C85.3212 51.2441 85.004 52.1788 84.7167 52.9913C84.4406 53.7893 84.1642 54.5347 83.8875 55.2277C83.6507 55.3244 83.4113 55.4018 83.1694 55.4599C82.9275 55.5179 82.6792 55.5768 82.4244 55.6365L87.0944 41.8447C87.2993 41.8047 87.4831 41.7543 87.6458 41.6935C87.8215 41.6311 88.0737 41.552 88.4026 41.4563C87.8266 43.3705 87.3169 45.0396 86.8735 46.4636C86.7055 46.9847 86.5471 47.4782 86.3982 47.9443L89.0074 47.5623C89.1373 47.1513 89.2857 46.7313 89.4526 46.3022C90.2379 44.2818 91.2366 42.6863 92.4487 41.516C93.2643 40.726 94.0013 40.2878 94.6597 40.2013C95.757 40.0572 96.4023 40.7211 96.5956 42.1928C96.6803 42.8383 96.5992 43.8208 96.3522 45.1402C96.1365 46.2979 95.8855 47.237 95.5993 47.9575C95.4912 48.2344 95.4473 48.4502 95.4676 48.6052C95.4931 48.7988 95.6855 48.964 96.0449 49.1006C96.3638 49.2295 96.6331 49.2795 96.8525 49.2507C97.5755 49.1557 98.2272 48.7681 98.8076 48.0878C98.9103 47.9693 99.3857 47.2896 100.234 46.0488C100.304 46.0791 100.424 46.1421 100.594 46.238ZM96.061 42.3221C95.9186 41.2377 95.5182 40.7387 94.8598 40.8251C93.8141 40.9624 92.6383 42.6599 91.3326 45.9175C90.0873 49.0358 89.5528 51.2663 89.7291 52.609C89.8613 53.6159 90.2502 54.0771 90.8957 53.9923C91.4895 53.9143 92.2414 53.1393 93.1512 51.6672C93.9126 50.4641 94.4343 49.4369 94.7165 48.5856C94.5444 48.1748 94.4337 47.7822 94.3846 47.4078C94.2608 46.4654 94.3543 45.7768 94.6649 45.342C94.8746 45.0387 95.0375 44.8794 95.1537 44.8642C95.257 44.8506 95.4719 44.9866 95.7982 45.272C96.0565 43.938 96.144 42.9547 96.061 42.3221ZM105.655 39.6244C105.397 39.6583 105.136 39.7714 104.872 39.9636C104.608 40.1558 104.337 40.4409 104.058 40.8189C103.793 41.1953 103.514 41.6718 103.222 42.2486C102.93 42.8254 102.621 43.5226 102.295 44.3402C101.049 47.4586 100.515 49.6891 100.691 51.0317C100.823 52.0387 101.212 52.4998 101.858 52.415C102.439 52.3388 103.191 51.5637 104.113 50.0899C104.884 48.8593 105.406 47.8321 105.679 47.0083C105.507 46.5976 105.396 46.205 105.347 45.8306C105.294 45.4304 105.287 45.0767 105.326 44.7696C105.364 44.4625 105.429 44.2045 105.519 43.9956C105.609 43.7738 105.704 43.6036 105.807 43.4851C105.923 43.3648 106.026 43.2988 106.116 43.2869C106.168 43.2801 106.231 43.3112 106.305 43.3802C106.38 43.4492 106.5 43.5583 106.664 43.7075C106.842 42.7648 106.938 41.9446 106.951 41.2468C106.976 40.5344 106.882 39.9228 106.671 39.4122C106.479 38.9515 106.261 38.4877 106.015 38.0208C105.783 37.5523 105.553 37.0966 105.324 36.6539C105.106 36.1966 104.911 35.7625 104.739 35.3518C104.578 34.9264 104.474 34.5329 104.427 34.1715C104.401 33.9778 104.385 33.7567 104.379 33.508C104.384 33.2447 104.438 32.9617 104.543 32.659C104.646 32.3435 104.818 32.0057 105.06 31.6456C105.313 31.271 105.68 30.8682 106.162 30.4372C106.668 29.9899 107.167 29.642 107.66 29.3934C108.166 29.1432 108.625 28.9909 109.038 28.9367C109.593 28.8638 110.159 28.8224 110.736 28.8123C111.323 28.7877 111.869 28.7423 112.373 28.6762L112.431 28.6686C113.308 28.5533 114.003 28.2389 114.513 27.7254C114.54 27.6299 114.631 27.572 114.786 27.5517C114.966 27.5279 115.087 27.545 115.147 27.6027C115.207 27.6605 115.239 27.7023 115.242 27.7281C115.246 27.7539 115.178 27.8351 115.038 27.9716C114.702 28.3177 114.428 28.6756 114.214 29.0451C113.998 29.4018 113.788 29.7051 113.584 29.9551C113.288 30.2961 112.688 30.5259 111.784 30.6446C111.642 30.6632 111.493 30.6827 111.339 30.7031C111.184 30.7234 111.021 30.7317 110.849 30.7279C110.418 30.7451 109.961 30.7657 109.479 30.7897C109.009 30.812 108.542 30.8601 108.079 30.934C107.627 30.9934 107.2 31.0889 106.797 31.2206C106.394 31.3523 106.051 31.5418 105.768 31.789C105.484 32.0233 105.275 32.3331 105.142 32.7183C105.007 33.0906 104.981 33.547 105.066 34.0876C105.141 34.5635 105.303 35.0479 105.552 35.5405C105.799 36.0203 106.057 36.5379 106.327 37.0935C106.608 37.6344 106.869 38.2239 107.111 38.8619C107.365 39.4983 107.53 40.2055 107.606 40.9835C107.642 41.2546 107.63 41.6172 107.572 42.0714C107.526 42.5239 107.452 43.013 107.351 43.5385C107.247 44.0511 107.124 44.5598 106.98 45.0646C106.836 45.5694 106.696 46.0079 106.561 46.3802C106.453 46.6571 106.409 46.873 106.43 47.0279C106.442 47.1183 106.5 47.2092 106.604 47.3006C106.706 47.3791 106.827 47.4486 106.966 47.5091C107.118 47.5679 107.268 47.6138 107.417 47.6468C107.579 47.6781 107.711 47.687 107.815 47.6734C108.551 47.5768 109.202 47.1892 109.77 46.5106C109.828 46.4504 109.973 46.2541 110.205 45.9216C110.448 45.5745 110.778 45.0911 111.196 44.4716C111.225 44.494 111.268 44.5212 111.325 44.5531C111.393 44.5705 111.47 44.6063 111.556 44.6607C111.373 45.0656 110.979 45.6689 110.375 46.4705C109.638 47.4602 108.812 48.0153 107.895 48.1356C107.65 48.1678 107.421 48.1781 107.21 48.1665C106.996 48.142 106.811 48.081 106.654 47.9834L106.072 47.6067C105.755 48.2918 105.421 48.9464 105.07 49.5704C104.718 50.1944 104.358 50.7538 103.99 51.2487C103.633 51.7289 103.264 52.1253 102.885 52.4377C102.519 52.7485 102.161 52.9267 101.813 52.9725C101.516 53.0115 101.235 52.9696 100.969 52.8469C100.716 52.7225 100.488 52.5358 100.285 52.2867C100.081 52.0376 99.9116 51.7447 99.7754 51.408C99.6376 51.0584 99.5424 50.6835 99.4899 50.2833C99.3933 49.5474 99.4094 48.7705 99.5384 47.9525C99.6657 47.1215 99.873 46.2998 100.16 45.4872C100.46 44.673 100.817 43.8907 101.231 43.1404C101.645 42.39 102.089 41.7211 102.563 41.1335C103.05 40.5442 103.546 40.0655 104.049 39.6973C104.563 39.3146 105.053 39.0927 105.518 39.0317C105.647 39.0148 105.761 39.0326 105.86 39.0853C105.971 39.1363 106.039 39.1997 106.062 39.2754C106.096 39.3366 106.079 39.4045 106.01 39.4793C105.954 39.5523 105.835 39.6007 105.655 39.6244ZM122.594 43.2114C122.411 43.6163 122.017 44.2195 121.413 45.0211C120.676 46.0109 119.85 46.5659 118.933 46.6863C118.43 46.7524 118.016 46.7017 117.692 46.5341L117.111 46.1574C116.926 46.5494 116.632 47.1132 116.229 47.849C115.669 48.8812 115.204 49.6383 114.834 50.1203C114.183 50.9674 113.522 51.435 112.851 51.5232C112.193 51.6096 111.644 51.3336 111.206 50.6952C110.849 50.1773 110.623 49.5569 110.528 48.834C110.318 47.2331 110.626 45.3803 111.453 43.2756C112.238 41.2552 113.237 39.6597 114.449 38.4894C115.265 37.6994 116.002 37.2612 116.66 37.1747C117.757 37.0306 118.403 37.6945 118.596 39.1662C118.681 39.8117 118.599 40.7942 118.352 42.1136C118.137 43.2713 117.886 44.2104 117.6 44.9309C117.491 45.2078 117.448 45.4236 117.468 45.5786C117.493 45.7722 117.686 45.9374 118.045 46.074C118.364 46.2029 118.633 46.2529 118.853 46.2241C119.576 46.1292 120.227 45.7415 120.808 45.0612C120.91 44.9427 121.386 44.263 122.234 43.0222C122.304 43.0525 122.424 43.1155 122.594 43.2114ZM118.061 39.2955C117.919 38.2111 117.518 37.7121 116.86 37.7985C115.814 37.9358 114.639 39.6333 113.333 42.8909C112.088 46.0092 111.553 48.2397 111.729 49.5824C111.862 50.5894 112.25 51.0505 112.896 50.9657C113.49 50.8877 114.242 50.1127 115.151 48.6406C115.913 47.4375 116.435 46.4103 116.717 45.559C116.545 45.1482 116.434 44.7556 116.385 44.3813C116.261 43.4388 116.355 42.7502 116.665 42.3155C116.875 42.0121 117.038 41.8529 117.154 41.8376C117.257 41.824 117.472 41.96 117.798 42.2454C118.057 40.9114 118.144 39.9281 118.061 39.2955ZM133.251 24.4574C133.398 25.5805 133.022 27.265 132.122 29.5106C131.638 30.7298 131.028 31.9853 130.292 33.277C129.993 33.8022 129.085 35.1362 127.567 37.2791C127.269 37.7122 126.693 38.5233 125.838 39.7124C125.49 40.1652 124.826 41.06 123.846 42.3969C123.763 42.5654 123.62 43.0241 123.416 43.7732C122.81 45.9541 122.571 47.5351 122.7 48.5162C122.798 49.265 123.15 49.5996 123.757 49.5199C124.713 49.3945 125.735 47.9337 126.826 45.1378C127.042 44.5841 127.236 43.9611 127.408 43.2688C127.332 42.6878 127.347 41.7534 127.454 40.4655C127.702 39.5531 128.058 39.0664 128.523 39.0053C128.871 38.9596 129.07 39.1239 129.119 39.4983C129.17 39.8856 129.039 40.5857 128.725 41.5987C128.412 42.6117 128.269 43.2279 128.298 43.4474C128.452 44.6222 129.052 45.1409 130.098 45.0036C131.041 44.8799 132.225 43.746 133.65 41.6021C133.694 41.5307 133.775 41.4018 133.895 41.2153L134.284 41.4794L133.882 42.1627C133.463 42.8743 132.974 43.5492 132.414 44.1874C131.66 45.048 130.864 45.5335 130.025 45.6436C129.16 45.7572 128.527 45.4397 128.127 44.6912C128.091 44.6171 128.015 44.5417 127.9 44.4649C127.395 45.5162 126.894 46.5077 126.399 47.4395C125.537 49.076 124.687 49.9494 123.848 50.0596C122.673 50.2138 121.961 49.3421 121.712 47.4443C121.459 45.5207 121.993 42.7322 123.312 39.0788C124.312 36.2947 125.19 34.0782 125.945 32.4294C126.187 31.8723 126.641 30.8738 127.305 29.4339C129.151 25.4882 130.713 23.4314 131.991 23.2636C132.714 23.1686 133.134 23.5666 133.251 24.4574ZM132.7 24.6086C132.625 24.0405 132.375 23.7845 131.949 23.8404C131.329 23.9218 130.621 24.829 129.824 26.5621C129.646 27.0057 129.272 27.9084 128.702 29.2702C128.538 29.6201 128.251 30.2816 127.84 31.2548C127.181 32.8384 126.393 34.9381 125.476 37.5537C125.008 38.889 124.753 39.7498 124.712 40.1361C127.87 36.3857 130.135 32.8839 131.507 29.6307C132.45 27.4058 132.847 25.7317 132.7 24.6086ZM145.183 40.1666L144.448 41.6223C144.292 41.9318 144.106 42.2713 143.892 42.6408C143.689 42.9958 143.459 43.3412 143.201 43.6771C142.954 43.9985 142.678 44.2973 142.373 44.5738C142.079 44.8356 141.762 45.0217 141.422 45.132C141.08 45.2295 140.719 45.2309 140.339 45.1363C139.958 45.0289 139.551 44.7867 139.121 44.4098C138.868 45.7826 138.452 46.8156 137.873 47.5088C137.306 48.1874 136.472 48.5398 135.372 48.566C134.731 48.5846 134.225 48.3753 133.852 47.9383C133.492 47.4996 133.272 46.8719 133.191 46.0552C133.157 45.692 133.134 45.2682 133.123 44.7838C133.123 44.2847 133.173 43.7135 133.272 43.0701C133.384 42.425 133.558 41.6995 133.794 40.8938C134.042 40.0863 134.396 39.1797 134.855 38.1739L135.132 37.5859C135.246 37.3478 135.376 37.0877 135.522 36.8058C135.669 36.5239 135.832 36.2136 136.011 35.8749C136.188 35.8254 136.452 35.7317 136.801 35.5938C137.162 35.4414 137.559 35.2645 137.992 35.0632L138.133 35.0841C137.899 35.4037 137.632 35.8197 137.332 36.3319C137.044 36.8424 136.746 37.4265 136.439 38.0841C136.142 38.7271 135.852 39.4153 135.567 40.1487C135.283 40.8821 135.032 41.6242 134.816 42.3749C134.612 43.1239 134.447 43.8679 134.321 44.6068C134.206 45.331 134.163 46.0064 134.193 46.6329C134.211 46.9719 134.321 47.2595 134.523 47.4957C134.724 47.7318 134.975 47.8894 135.274 47.9683C135.574 48.0472 135.9 48.0306 136.253 47.9186C136.606 47.8066 136.936 47.5728 137.244 47.2172C137.552 46.8616 137.815 46.3673 138.034 45.7345C138.253 45.1016 138.385 44.303 138.429 43.3385L138.378 43.4042C138.387 43.2717 138.357 43.0918 138.288 42.8645C138.232 42.6356 138.167 42.3945 138.094 42.1414C138.02 41.8754 137.958 41.6012 137.908 41.3189C137.87 41.0348 137.875 40.7716 137.922 40.529C137.969 40.2865 138.073 40.0759 138.233 39.8972C138.405 39.7039 138.663 39.5715 139.008 39.4999C139.213 39.4599 139.361 39.4864 139.452 39.5795C139.543 39.6727 139.663 39.7882 139.813 39.9262C139.964 40.077 140.025 40.2923 139.996 40.5719C139.98 40.8498 139.923 41.1659 139.825 41.5202C139.738 41.8599 139.642 42.2271 139.536 42.6218C139.442 43.0019 139.386 43.377 139.369 43.7469C139.838 44.3158 140.32 44.5873 140.815 44.5616C141.311 44.536 141.789 44.3222 142.248 43.9205C142.706 43.5058 143.132 42.9508 143.527 42.2555C143.919 41.5473 144.247 40.7886 144.508 39.9794L145.183 40.1666ZM146.226 45.1119C146.353 46.0802 146.114 47.0572 145.508 48.0429C145.204 48.5293 144.975 48.7827 144.82 48.803C144.613 48.8301 144.495 48.7275 144.464 48.4951C144.427 48.2111 144.475 48.0275 144.608 47.9443C145.217 47.5755 145.517 47.1093 145.508 46.5457C145.435 46.4897 145.392 46.4625 145.379 46.4642L145.165 46.6302C145.023 46.7538 144.888 46.8241 144.759 46.8411C144.294 46.9021 144.025 46.6486 143.95 46.0806C143.892 45.6416 143.968 45.218 144.177 44.8097C144.418 44.3447 144.745 44.0851 145.158 44.0308C145.765 43.9511 146.121 44.3115 146.226 45.1119ZM172.44 36.6665C172.256 37.0714 171.863 37.6747 171.259 38.4763C170.522 39.466 169.695 40.0211 168.779 40.1414C168.275 40.2075 167.861 40.1568 167.537 39.9892L166.956 39.6125C166.771 40.0045 166.478 40.5683 166.075 41.3041C165.515 42.3364 165.049 43.0935 164.679 43.5754C164.029 44.4225 163.368 44.8902 162.697 44.9783C162.038 45.0648 161.49 44.7888 161.051 44.1503C160.694 43.6325 160.468 43.0121 160.374 42.2891C160.163 40.6883 160.472 38.8355 161.298 36.7308C162.084 34.7103 163.082 33.1149 164.295 31.9445C165.11 31.1545 165.847 30.7163 166.506 30.6299C167.603 30.4858 168.248 31.1496 168.441 32.6213C168.526 33.2668 168.445 34.2493 168.198 35.5687C167.982 36.7265 167.731 37.6656 167.445 38.386C167.337 38.6629 167.293 38.8788 167.313 39.0337C167.339 39.2273 167.531 39.3925 167.891 39.5292C168.21 39.658 168.479 39.708 168.698 39.6792C169.421 39.5843 170.073 39.1967 170.653 38.5163C170.756 38.3978 171.232 37.7182 172.08 36.4774C172.149 36.5076 172.269 36.5707 172.44 36.6665ZM167.907 32.7506C167.764 31.6662 167.364 31.1672 166.706 31.2536C165.66 31.391 164.484 33.0884 163.178 36.346C161.933 39.4644 161.399 41.6949 161.575 43.0375C161.707 44.0445 162.096 44.5056 162.742 44.4208C163.335 44.3429 164.087 43.5678 164.997 42.0957C165.758 40.8926 166.28 39.8654 166.562 39.0141C166.39 38.6034 166.28 38.2108 166.23 37.8364C166.107 36.8939 166.2 36.2053 166.511 35.7706C166.72 35.4673 166.883 35.308 167 35.2927C167.103 35.2792 167.318 35.4151 167.644 35.7006C167.902 34.3665 167.99 33.3832 167.907 32.7506ZM186.135 34.7501C184.876 36.9641 183.322 38.8359 181.475 40.3655C180.774 40.9303 179.419 42.0143 177.41 43.6176C177.141 44.2702 176.894 44.9856 176.668 45.7638C176.062 47.8526 175.111 50.1576 173.813 52.6787C171.943 56.3387 170.349 58.2552 169.033 58.4281C168.245 58.5315 167.784 58.0668 167.648 57.034C167.501 55.9108 167.954 54.3607 169.007 52.3838C170.387 49.7863 172.494 47.1326 175.329 44.4227C175.644 44.1188 175.917 43.7941 176.147 43.4486C176.327 42.8208 176.602 41.9115 176.971 40.7205C175.986 41.8216 175.4 42.4632 175.214 42.6452C174.76 43.0857 174.326 43.3331 173.913 43.3874C172.661 43.5518 171.921 42.769 171.694 41.0391C171.365 38.5345 172.385 35.7479 174.753 32.6791C176.212 30.7934 177.471 29.781 178.53 29.642C179.472 29.5182 180.148 30.1124 180.557 31.4246C180.631 31.1915 180.789 30.895 181.031 30.5349C181.383 30.0159 181.93 29.7339 182.673 29.689C182.101 30.9329 181.606 32.0681 181.19 33.0946C178.972 38.6125 177.894 41.6039 177.955 42.0686L177.808 42.4426C177.914 42.3499 178.051 42.2465 178.22 42.1324C178.619 41.8699 179.313 41.3585 180.303 40.5981C181.892 39.3915 183.73 37.3903 185.819 34.5946L186.135 34.7501ZM179.865 31.2593C179.76 30.4588 179.372 30.1027 178.701 30.1908C177.564 30.34 176.236 32.0247 174.715 35.2449C173.245 38.3533 172.596 40.5595 172.767 41.8634C172.862 42.5863 173.207 42.9088 173.801 42.8309C175.221 42.6444 176.789 40.3833 178.504 36.0475C179.5 33.5267 179.953 31.9306 179.865 31.2593ZM175.494 45.524C175.461 45.4757 175.427 45.4146 175.391 45.3405C174.246 46.1212 172.758 47.8465 170.929 50.5162C168.899 53.4617 167.969 55.58 168.139 56.871C168.23 57.5682 168.528 57.8837 169.031 57.8176C170.18 57.6667 171.4 56.0029 172.69 52.8261C173.039 51.8872 173.679 50.2076 174.609 47.7873C174.747 47.4409 175.042 46.6864 175.494 45.524ZM187.483 28.6634C187.688 28.6234 187.871 28.573 188.034 28.5122C188.21 28.4498 188.462 28.3707 188.791 28.275C188.387 29.6018 188.018 30.7928 187.684 31.8479C187.363 32.9013 187.064 33.873 186.787 34.763L190.516 34.2142C190.673 33.7077 190.852 33.172 191.054 32.6071C191.267 32.0276 191.501 31.4124 191.757 30.7616L191.993 30.1593C192.081 29.9246 192.185 29.6679 192.306 29.3894C192.427 29.1108 192.57 28.8031 192.736 28.4661C192.901 28.4183 193.112 28.3314 193.372 28.2054C193.642 28.0648 193.968 27.8973 194.35 27.7027L194.471 27.7262C194.201 28.2737 193.747 29.3643 193.108 30.9979C192.975 31.3831 192.772 31.9415 192.501 32.6732C192.24 33.3903 191.905 34.2879 191.495 35.3661C190.798 37.2568 190.496 38.5637 190.591 39.2866C190.713 40.2162 191.162 40.6301 191.936 40.5284C192.827 40.4114 193.9 39.3315 195.155 37.2888C195.208 37.1899 195.428 36.8131 195.814 36.1582C196.201 35.5033 196.746 34.5519 197.449 33.3039L197.846 33.3305L197.595 33.8166C195.155 38.5364 193.27 40.9836 191.94 41.1582C191.321 41.2396 190.799 41.0191 190.376 40.4969C190.015 40.0453 189.792 39.4967 189.707 38.8512C189.592 37.9733 189.797 36.6396 190.324 34.8501L186.594 35.3989C186.352 36.1531 186.128 36.8457 185.922 37.4769C185.714 38.0951 185.514 38.6729 185.322 39.2103C185.13 39.7477 184.946 40.2511 184.772 40.7206C184.608 41.1754 184.443 41.6174 184.276 42.0464C184.039 42.1432 183.8 42.2205 183.558 42.2786C183.316 42.3366 183.067 42.3955 182.813 42.4552L187.483 28.6634ZM208.226 31.9676C208.043 32.3725 207.649 32.9758 207.045 33.7774C206.309 34.7671 205.482 35.3222 204.565 35.4425C204.062 35.5087 203.648 35.4579 203.324 35.2903L202.743 34.9136C202.558 35.3056 202.264 35.8695 201.862 36.6052C201.301 37.6375 200.836 38.3946 200.466 38.8766C199.815 39.7237 199.154 40.1913 198.483 40.2794C197.825 40.3659 197.276 40.0899 196.838 39.4514C196.481 38.9336 196.255 38.3132 196.16 37.5902C195.95 35.9894 196.258 34.1366 197.085 32.0319C197.87 30.0114 198.869 28.416 200.081 27.2456C200.897 26.4556 201.634 26.0174 202.292 25.931C203.389 25.7869 204.035 26.4507 204.228 27.9225C204.313 28.568 204.232 29.5504 203.985 30.8699C203.769 32.0276 203.518 32.9667 203.232 33.6872C203.124 33.964 203.08 34.1799 203.1 34.3348C203.125 34.5285 203.318 34.6936 203.677 34.8303C203.996 34.9591 204.265 35.0091 204.485 34.9803C205.208 34.8854 205.86 34.4978 206.44 33.8175C206.543 33.6989 207.018 33.0193 207.866 31.7785C207.936 31.8087 208.056 31.8718 208.226 31.9676ZM203.693 28.0518C203.551 26.9673 203.151 26.4683 202.492 26.5548C201.446 26.6921 200.271 28.3895 198.965 31.6471C197.72 34.7655 197.185 36.996 197.362 38.3386C197.494 39.3456 197.883 39.8067 198.528 39.722C199.122 39.644 199.874 38.8689 200.784 37.3968C201.545 36.1937 202.067 35.1665 202.349 34.3152C202.177 33.9045 202.066 33.5119 202.017 33.1375C201.893 32.1951 201.987 31.5065 202.297 31.0717C202.507 30.7684 202.67 30.6091 202.786 30.5938C202.889 30.5803 203.104 30.7162 203.431 31.0017C203.689 29.6677 203.776 28.6843 203.693 28.0518ZM227.461 29.4815C227.376 29.6371 227.18 29.9912 226.871 30.5438C226.029 32.0333 225.005 33.435 223.799 34.7491C222.235 36.4385 220.833 37.3645 219.594 37.5273C218.767 37.6358 218.09 37.3307 217.563 36.612C217.131 36.0252 216.857 35.2864 216.74 34.3956C216.553 32.9755 216.945 31.2102 217.916 29.0998C218.499 27.8412 219.27 26.6106 220.228 25.4079C221.482 23.8513 222.605 23.0077 223.599 22.8772C224.619 22.7433 225.202 23.2314 225.348 24.3417C225.426 24.9356 225.271 25.8095 224.884 26.9634C224.421 28.3375 223.841 29.0703 223.144 29.1618C222.628 29.2296 222.335 28.9989 222.265 28.4696C222.226 28.1726 222.278 27.8703 222.422 27.5625C222.578 27.2531 222.798 27.0797 223.082 27.0424C223.212 27.0255 223.44 27.2187 223.769 27.622C224.088 27.4488 224.356 26.9409 224.574 26.0981C224.776 25.3361 224.848 24.7357 224.79 24.2967C224.697 23.5867 224.354 23.2706 223.76 23.3486C223.23 23.4181 222.592 23.955 221.844 24.9594C221.386 25.5711 221.037 26.1159 220.798 26.5939C219.62 28.9285 218.769 30.997 218.244 32.7995C217.918 33.9191 217.794 34.7759 217.872 35.3697C218.025 36.5316 218.579 37.0498 219.534 36.9244C221.574 36.6566 223.997 34.2569 226.803 29.7254C226.858 29.6395 226.944 29.4968 227.062 29.2974C227.159 29.3372 227.292 29.3985 227.461 29.4815ZM236.608 28.182L236.126 29.0135C235.763 29.6521 235.39 30.2592 235.006 30.835C232.798 34.2241 230.823 36.0331 229.08 36.262C227.427 36.479 226.467 35.5676 226.199 33.5278C225.86 30.9458 226.92 27.8649 229.379 24.2852C230.626 22.4799 231.688 21.5196 232.566 21.4044C233.276 21.3111 233.685 21.6776 233.794 22.5039C233.921 23.4721 233.486 24.6587 232.488 26.0635C231.612 27.2948 230.651 28.2746 229.604 29.003C229.279 29.2296 228.857 29.5148 228.338 29.8588C228.256 30.0402 228.049 30.6649 227.717 31.7329C227.43 32.6504 227.335 33.4771 227.432 34.213C227.566 35.2329 228.11 35.6801 229.066 35.5547C230.628 35.3496 232.614 33.421 235.023 29.7689C235.308 29.3375 235.701 28.7278 236.202 27.9398C236.232 27.9751 236.368 28.0559 236.608 28.182ZM233.051 22.6999C232.994 22.2609 232.797 22.0635 232.461 22.1076C231.88 22.1838 230.824 23.9444 229.294 27.3891L228.67 28.7908L228.755 28.8387C229.636 28.3423 230.573 27.4312 231.568 26.1056C232.664 24.6484 233.158 23.5132 233.051 22.6999ZM249.637 26.7469C249.26 27.3743 248.837 28.1061 248.369 28.9424C246.655 31.991 244.849 33.6398 242.951 33.889C242.706 33.9212 242.152 33.8496 241.288 33.674C240.101 34.736 239.05 35.3272 238.133 35.4476C237.41 35.5425 236.683 35.3096 235.953 34.7488C235.696 35.2947 235.349 36.148 234.91 37.3087C232.12 44.6617 229.266 48.5297 226.348 48.9128C225.922 48.9687 225.691 48.8611 225.656 48.59C225.63 48.3964 225.714 48.2868 225.908 48.2614C226.011 48.2479 226.157 48.255 226.344 48.2829C226.533 48.3238 226.68 48.3374 226.783 48.3238C227.932 48.173 229.225 46.7227 230.664 43.973C231.358 42.6605 231.992 41.2377 232.566 39.7047C233.606 36.9284 234.627 34.1022 235.628 31.226C236.915 27.5243 238.18 24.4035 239.422 21.8633C241.73 17.1346 243.729 14.6593 245.421 14.4372C245.911 14.3728 246.176 14.489 246.215 14.786C246.242 14.9925 246.146 15.1102 245.926 15.139C245.875 15.1458 245.748 15.1296 245.546 15.0905C245.357 15.0497 245.217 15.0352 245.126 15.0471C243.965 15.1997 242.59 17.1333 241.003 20.8481C240.922 21.0295 240.677 21.6197 240.27 22.6188L240.413 22.6591C241.393 21.8212 242.161 21.3659 242.716 21.293C243.942 21.1319 244.673 21.9422 244.906 23.7238C245.296 26.6931 244.23 29.8208 241.706 33.107C242.142 33.3255 242.528 33.4128 242.863 33.3687C244.245 33.1873 245.509 32.2597 246.655 30.5859C247.134 29.84 248.001 28.4917 249.256 26.541C249.395 26.6015 249.522 26.6701 249.637 26.7469ZM243.945 23.003C243.833 22.1509 243.442 21.769 242.77 21.8571C241.415 22.0351 240.161 23.4867 239.008 26.212C238.803 26.7511 238.424 27.7661 237.872 29.257C237.716 29.6715 237.426 30.5107 237.001 31.7747L237.927 31.9288C238.236 31.9802 239.093 32.2551 240.498 32.7535C241.303 31.5841 242.115 29.8687 242.934 27.6073C243.725 25.4286 244.062 23.8938 243.945 23.003ZM240.118 33.3155C239.274 32.7829 238.206 32.4568 236.917 32.3372C236.673 32.5794 236.416 33.1713 236.145 34.1129C236.532 34.7582 237.164 35.0232 238.042 34.9079C238.404 34.8604 238.812 34.6689 239.267 34.3334C239.72 33.985 240.004 33.6457 240.118 33.3155ZM262.588 24.7116C261.329 26.9256 259.776 28.7974 257.928 30.327C257.227 30.8918 255.872 31.9758 253.863 33.5791C253.594 34.2316 253.347 34.947 253.121 35.7253C252.515 37.8141 251.564 40.119 250.266 42.6401C248.396 46.3002 246.803 48.2166 245.486 48.3895C244.698 48.4929 244.237 48.0282 244.101 46.9954C243.954 45.8723 244.407 44.3222 245.46 42.3453C246.84 39.7478 248.947 37.0941 251.782 34.3842C252.097 34.0802 252.37 33.7555 252.6 33.4101C252.78 32.7823 253.055 31.873 253.424 30.682C252.439 31.7831 251.854 32.4247 251.667 32.6067C251.213 33.0472 250.779 33.2946 250.366 33.3488C249.114 33.5133 248.374 32.7305 248.147 31.0006C247.818 28.496 248.838 25.7094 251.206 22.6406C252.665 20.7548 253.925 19.7425 254.983 19.6035C255.926 19.4797 256.601 20.0739 257.01 21.386C257.084 21.153 257.242 20.8565 257.484 20.4964C257.836 19.9774 258.383 19.6954 259.126 19.6504C258.554 20.8944 258.06 22.0296 257.643 23.0561C255.426 28.574 254.348 31.5653 254.409 32.0301L254.261 32.4041C254.367 32.3114 254.504 32.208 254.673 32.0939C255.072 31.8314 255.766 31.3199 256.757 30.5596C258.345 29.353 260.183 27.3518 262.272 24.5561L262.588 24.7116ZM256.318 21.2207C256.213 20.4203 255.825 20.0642 255.154 20.1523C254.018 20.3015 252.689 21.9862 251.168 25.2064C249.699 28.3148 249.049 30.521 249.22 31.8249C249.315 32.5478 249.66 32.8703 250.254 32.7923C251.674 32.6059 253.242 30.3448 254.957 26.009C255.953 23.4881 256.406 21.8921 256.318 21.2207ZM251.947 35.4855C251.914 35.4372 251.88 35.3761 251.844 35.302C250.699 36.0827 249.212 37.8079 247.382 40.4777C245.352 43.4232 244.422 45.5415 244.592 46.8325C244.683 47.5296 244.981 47.8452 245.484 47.779C246.633 47.6282 247.853 45.9644 249.143 42.7876C249.493 41.8487 250.132 40.1691 251.062 37.7488C251.2 37.4023 251.495 36.6479 251.947 35.4855ZM268.193 30.4959C268.535 30.5955 268.892 30.5683 269.266 30.4142C269.651 30.2454 270.025 29.9928 270.388 29.6562C270.331 29.3222 270.283 29.0068 270.244 28.7099C270.203 28.4 270.167 28.1224 270.135 27.8772C270.004 26.8831 270.059 26.055 270.301 25.393C270.542 24.7309 270.947 24.3626 271.515 24.288C271.928 24.2337 272.25 24.3359 272.481 24.5945C272.71 24.8402 272.844 25.1051 272.881 25.3891C272.918 25.6731 272.902 26.0035 272.834 26.3802C272.765 26.7569 272.646 27.1534 272.478 27.5695C272.32 27.971 272.11 28.3728 271.848 28.775C271.599 29.1755 271.312 29.5414 270.988 29.8729C271.034 30.1294 271.089 30.398 271.152 30.6786C271.189 30.8577 271.218 31.0311 271.24 31.1989C271.277 31.378 271.306 31.545 271.326 31.6999C271.407 32.2146 271.441 32.7748 271.428 33.3805C271.418 33.9992 271.347 34.6125 271.217 35.2206C271.087 35.8287 270.902 36.4242 270.664 37.0071C270.425 37.59 270.126 38.1151 269.767 38.5825C269.421 39.0481 269.006 39.4375 268.522 39.7506C268.038 40.0637 267.492 40.2601 266.886 40.3398C266.33 40.4127 265.825 40.3673 265.371 40.2038C264.929 40.0386 264.544 39.8068 264.216 39.5084C263.9 39.2084 263.646 38.8675 263.451 38.486C263.269 38.1027 263.154 37.7239 263.105 37.3495C263.049 36.9235 263.069 36.4808 263.167 36.0215C263.279 35.5735 263.466 35.1484 263.728 34.7462C263.992 34.3569 264.335 34.0165 264.756 33.7247C265.192 33.4443 265.714 33.2642 266.32 33.1845C266.656 33.1404 266.901 33.1543 267.055 33.226C267.221 33.296 267.312 33.3827 267.325 33.4859C267.339 33.5892 267.3 33.6468 267.21 33.6587C267.016 33.6841 266.832 33.682 266.658 33.6524C266.496 33.6211 266.325 33.6173 266.144 33.641C265.692 33.7004 265.291 33.845 264.94 34.0749C264.589 34.3048 264.298 34.586 264.066 34.9185C263.847 35.2494 263.683 35.6057 263.576 35.9875C263.483 36.3805 263.461 36.7643 263.51 37.1386C263.56 37.513 263.673 37.8265 263.851 38.0789C264.03 38.3443 264.255 38.5577 264.526 38.7192C264.809 38.8789 265.118 38.9828 265.453 39.0308C265.802 39.09 266.164 39.095 266.538 39.0458C267.171 38.9628 267.766 38.7467 268.325 38.3976C268.898 38.0597 269.387 37.5883 269.794 36.9834C270.202 36.3914 270.495 35.67 270.672 34.8194C270.864 33.98 270.888 33.0181 270.746 31.9336C270.717 31.7142 270.678 31.4633 270.627 31.1809C270.59 30.8969 270.546 30.6073 270.494 30.3121C270.114 30.6245 269.699 30.8629 269.248 31.0272C268.797 31.1915 268.317 31.2413 267.81 31.1766C267.464 30.9462 267.232 30.6222 267.111 30.2046C267.002 29.7725 266.916 29.3176 266.853 28.8399C266.819 28.5817 266.793 28.2831 266.775 27.944C266.755 27.5921 266.758 27.2634 266.783 26.958C266.069 28.4176 265.354 29.5752 264.639 30.4307C263.924 31.2863 263.289 31.7505 262.734 31.8234C261.662 31.9641 261.022 31.2405 260.814 29.6526C260.607 28.0776 261.09 26.0049 262.263 23.4345C262.527 22.8482 262.82 22.2254 263.14 21.566C263.472 20.8921 263.831 20.1752 264.217 19.4154C264.433 19.3607 264.681 19.3019 264.962 19.2387C265.241 19.1627 265.551 19.076 265.893 18.9786L263.457 24.5778C262.194 27.4621 261.632 29.3875 261.773 30.354C261.864 31.0512 262.155 31.3675 262.646 31.3031C262.904 31.2692 263.224 31.0565 263.606 30.6649C263.986 30.2604 264.396 29.7273 264.834 29.0656C265.284 28.3893 265.745 27.5999 266.217 26.6974C266.69 25.7949 267.146 24.8222 267.587 23.7794L269.07 20.2162C269.159 19.9944 269.261 19.7249 269.377 19.4076C269.506 19.0886 269.649 18.7284 269.806 18.3269C270.013 18.2998 270.181 18.2777 270.31 18.2608C270.439 18.2438 270.561 18.2213 270.675 18.1931C270.79 18.1649 270.903 18.1239 271.014 18.0699C271.138 18.0142 271.291 17.9349 271.475 17.832L271.657 17.8672L268.993 24.2843C268.794 24.77 268.599 25.2816 268.407 25.819C268.213 26.3435 268.027 26.926 267.848 27.5667C267.779 27.8385 267.73 28.1206 267.703 28.4131C267.676 28.7056 267.674 28.9882 267.696 29.261C267.719 29.5339 267.771 29.7831 267.854 30.0087C267.934 30.2213 268.047 30.3838 268.193 30.4959ZM270.517 27.039C270.539 27.2068 270.572 27.4586 270.616 27.7942C270.658 28.117 270.733 28.5865 270.84 29.2028C271.094 28.9331 271.325 28.6402 271.533 28.3239C271.741 28.0077 271.916 27.6957 272.06 27.388C272.216 27.0785 272.329 26.7879 272.398 26.5162C272.479 26.2298 272.505 25.9769 272.476 25.7574C272.452 25.5767 272.355 25.4384 272.185 25.3425C272.026 25.2321 271.779 25.1989 271.443 25.2429C271.314 25.2599 271.183 25.31 271.049 25.3932C270.927 25.4618 270.816 25.5682 270.717 25.7126C270.631 25.8552 270.562 26.0349 270.512 26.2517C270.475 26.4667 270.476 26.7291 270.517 27.039ZM284.749 21.8608L284.267 22.6924C283.905 23.331 283.531 23.9381 283.147 24.5138C280.939 27.903 278.964 29.712 277.221 29.9409C275.569 30.1578 274.609 29.2464 274.341 27.2067C274.002 24.6247 275.062 21.5438 277.52 17.9641C278.767 16.1588 279.829 15.1985 280.707 15.0833C281.417 14.99 281.827 15.3565 281.935 16.1828C282.062 17.151 281.627 18.3376 280.63 19.7424C279.754 20.9737 278.793 21.9535 277.746 22.6819C277.421 22.9084 276.999 23.1937 276.479 23.5377C276.398 23.7191 276.191 24.3438 275.858 25.4118C275.572 26.3293 275.477 27.156 275.573 27.8919C275.707 28.9118 276.252 29.359 277.207 29.2336C278.769 29.0284 280.755 27.0999 283.165 23.4478C283.45 23.0164 283.842 22.4067 284.343 21.6187C284.374 21.654 284.509 21.7347 284.749 21.8608ZM281.193 16.3788C281.135 15.9398 280.938 15.7424 280.603 15.7865C280.022 15.8627 278.966 17.6232 277.435 21.068L276.812 22.4697L276.897 22.5176C277.777 22.0212 278.715 21.1101 279.709 19.7844C280.805 18.3273 281.299 17.1921 281.193 16.3788ZM287.165 26.6063C287.292 27.5745 287.052 28.5515 286.446 29.5372C286.143 30.0236 285.913 30.277 285.758 30.2974C285.552 30.3245 285.433 30.2218 285.403 29.9895C285.365 29.7054 285.414 29.5218 285.547 29.4386C286.155 29.0699 286.455 28.6037 286.447 28.0401C286.374 27.984 286.331 27.9568 286.318 27.9585L286.103 28.1246C285.962 28.2482 285.827 28.3185 285.698 28.3354C285.233 28.3964 284.963 28.1429 284.889 27.5749C284.831 27.136 284.907 26.7123 285.116 26.304C285.357 25.839 285.684 25.5794 286.097 25.5252C286.704 25.4455 287.06 25.8059 287.165 26.6063ZM96.4235 80.9395C96.2403 81.3444 95.8467 81.9476 95.2428 82.7492C94.506 83.739 93.6793 84.294 92.7627 84.4144C92.2592 84.4805 91.8455 84.4298 91.5214 84.2622L90.9401 83.8855C90.7551 84.2774 90.4615 84.8413 90.059 85.577C89.4985 86.6093 89.0333 87.3664 88.6632 87.8484C88.0127 88.6955 87.3518 89.1631 86.6805 89.2513C86.0221 89.3377 85.4737 89.0617 85.0353 88.4233C84.6783 87.9054 84.4524 87.285 84.3575 86.5621C84.1473 84.9612 84.4556 83.1084 85.2824 81.0037C86.0677 78.9833 87.0664 77.3878 88.2785 76.2175C89.0941 75.4275 89.8311 74.9893 90.4895 74.9028C91.5868 74.7587 92.2321 75.4226 92.4254 76.8943C92.5101 77.5398 92.429 78.5223 92.182 79.8417C91.9663 80.9994 91.7153 81.9385 91.4291 82.659C91.321 82.9359 91.2771 83.1517 91.2974 83.3067C91.3229 83.5003 91.5153 83.6655 91.8747 83.8021C92.1936 83.931 92.4629 83.981 92.6823 83.9522C93.4053 83.8572 94.057 83.4696 94.6374 82.7893C94.7401 82.6708 95.2155 81.9911 96.0638 80.7503C96.1334 80.7806 96.2533 80.8436 96.4235 80.9395ZM91.8908 77.0236C91.7484 75.9392 91.348 75.4402 90.6896 75.5266C89.6439 75.6639 88.4681 77.3614 87.1624 80.619C85.9171 83.7373 85.3826 85.9678 85.5589 87.3105C85.6911 88.3174 86.08 88.7786 86.7255 88.6938C87.3193 88.6158 88.0712 87.8408 88.981 86.3687C89.7424 85.1656 90.2641 84.1384 90.5463 83.2871C90.3742 82.8763 90.2635 82.4837 90.2144 82.1093C90.0906 81.1669 90.1841 80.4783 90.4947 80.0435C90.7044 79.7402 90.8673 79.5809 90.9835 79.5657C91.0868 79.5521 91.3017 79.6881 91.628 79.9735C91.8863 78.6395 91.9738 77.6562 91.8908 77.0236ZM110.119 79.0231C108.86 81.2371 107.306 83.1089 105.459 84.6385C104.758 85.2033 103.403 86.2873 101.394 87.8906C101.125 88.5431 100.878 89.2585 100.652 90.0368C100.046 92.1256 99.0945 94.4305 97.7971 96.9516C95.9269 100.612 94.3334 102.528 93.0166 102.701C92.2291 102.804 91.7676 102.34 91.6319 101.307C91.4845 100.184 91.9376 98.6337 92.9913 96.6568C94.3706 94.0593 96.4779 91.4056 99.3133 88.6957C99.628 88.3917 99.9005 88.067 100.131 87.7216C100.311 87.0938 100.586 86.1844 100.955 84.9935C99.9699 86.0946 99.3844 86.7362 99.1981 86.9182C98.7438 87.3587 98.3101 87.6061 97.897 87.6603C96.6447 87.8248 95.905 87.042 95.6778 85.3121C95.349 82.8075 96.3686 80.0209 98.7366 76.9521C100.196 75.0663 101.455 74.0539 102.514 73.9149C103.456 73.7912 104.132 74.3854 104.541 75.6975C104.615 75.4645 104.773 75.1679 105.015 74.8079C105.367 74.2889 105.914 74.0069 106.657 73.9619C106.085 75.2058 105.59 76.3411 105.174 77.3676C102.956 82.8855 101.878 85.8768 101.939 86.3416L101.791 86.7156C101.898 86.6229 102.035 86.5195 102.204 86.4054C102.603 86.1429 103.297 85.6314 104.287 84.8711C105.876 83.6644 107.714 81.6633 109.803 78.8676L110.119 79.0231ZM103.849 75.5322C103.744 74.7318 103.356 74.3757 102.685 74.4638C101.548 74.613 100.22 76.2977 98.6992 79.5178C97.2294 82.6263 96.5801 84.8324 96.7513 86.1364C96.8462 86.8593 97.1906 87.1818 97.7845 87.1038C99.2046 86.9174 100.773 84.6562 102.488 80.3205C103.484 77.7996 103.937 76.2035 103.849 75.5322ZM99.4776 89.797C99.445 89.7487 99.4107 89.6875 99.3747 89.6135C98.2297 90.3942 96.7424 92.1194 94.9129 94.7892C92.8833 97.7347 91.9532 99.853 92.1227 101.144C92.2143 101.841 92.5118 102.157 93.0153 102.091C94.1643 101.94 95.3838 100.276 96.6739 97.0991C97.0234 96.1602 97.6631 94.4806 98.5929 92.0603C98.7312 91.7138 99.0262 90.9594 99.4776 89.797ZM111.467 72.9364C111.672 72.8964 111.855 72.846 112.018 72.7852C112.194 72.7228 112.446 72.6437 112.775 72.5479C112.371 73.8748 112.002 75.0658 111.668 76.1209C111.347 77.1743 111.048 78.146 110.77 79.036L114.5 78.4872C114.657 77.9807 114.836 77.445 115.038 76.8801C115.251 76.3005 115.485 75.6854 115.741 75.0345L115.977 74.4323C116.065 74.1975 116.169 73.9409 116.29 73.6624C116.411 73.3838 116.554 73.0761 116.72 72.7391C116.885 72.6912 117.096 72.6043 117.356 72.4784C117.626 72.3378 117.952 72.1702 118.334 71.9757L118.455 71.9991C118.185 72.5467 117.731 73.6373 117.092 75.2708C116.959 75.656 116.756 76.2145 116.485 76.9462C116.224 77.6633 115.889 78.5609 115.479 79.6391C114.782 81.5298 114.48 82.8367 114.575 83.5596C114.697 84.4891 115.146 84.903 115.92 84.8013C116.811 84.6844 117.884 83.6045 119.139 81.5617C119.192 81.4629 119.412 81.086 119.798 80.4311C120.185 79.7763 120.73 78.8248 121.433 77.5769L121.83 77.6035L121.579 78.0896C119.139 82.8094 117.254 85.2566 115.924 85.4312C115.305 85.5126 114.783 85.2921 114.36 84.7698C113.999 84.3182 113.776 83.7697 113.691 83.1242C113.576 82.2463 113.781 80.9126 114.308 79.1231L110.578 79.6719C110.336 80.426 110.112 81.1187 109.905 81.7498C109.698 82.3681 109.498 82.9459 109.306 83.4833C109.114 84.0207 108.93 84.5241 108.755 84.9935C108.592 85.4484 108.427 85.8903 108.26 86.3194C108.023 86.4161 107.784 86.4935 107.542 86.5515C107.3 86.6096 107.051 86.6684 106.797 86.7282L111.467 72.9364ZM134.252 75.7362C134.088 76.191 133.764 76.8245 133.28 77.6367C131.018 81.4138 129.345 83.3735 128.26 83.5159C127.279 83.6448 126.635 82.9874 126.327 81.5438C126.226 81.0712 126.164 80.6 126.141 80.1302C125.876 80.6115 125.576 81.1237 125.24 81.6668C124.057 83.5557 123.11 84.5468 122.4 84.64C121.135 84.8061 120.371 83.8951 120.11 81.907C119.844 79.8801 120.327 77.6564 121.559 75.2359C123.167 72.083 124.817 70.3955 126.508 70.1734C127.49 70.0446 128.124 70.5785 128.413 71.7751C128.421 71.8396 128.454 71.9404 128.512 72.0773C128.812 71.5651 129.113 71.0593 129.416 70.56C129.662 70.2387 129.999 70.05 130.425 69.9941C130.631 69.967 130.779 70.0395 130.867 70.2118L129.199 74.3115C128.909 75.0062 128.385 76.362 127.625 78.3791C127.095 79.8408 126.875 80.9138 126.964 81.598C127.088 82.5404 127.473 82.9693 128.118 82.8845C128.712 82.8065 129.481 82.1606 130.425 80.9467C131.413 79.6743 132.538 77.8851 133.798 75.5791C133.851 75.5852 134.002 75.6376 134.252 75.7362ZM127.835 72.0282C127.712 71.0857 127.288 70.662 126.565 70.7569C125.881 70.8468 125.088 71.7061 124.185 73.3348C123.569 74.4401 122.769 76.4493 121.786 79.3626C121.283 80.8338 121.085 81.9761 121.192 82.7894C121.31 83.6931 121.666 84.1059 122.26 84.028C122.57 83.9873 122.959 83.6998 123.428 83.1656C124.375 82.0824 125.233 80.5121 126 78.4546C127.319 74.8933 127.93 72.7511 127.835 72.0282ZM153.42 73.4951C153.335 73.6507 153.139 74.0048 152.831 74.5574C151.989 76.0469 150.964 77.4487 149.758 78.7627C148.194 80.4521 146.792 81.3781 145.553 81.5409C144.726 81.6494 144.05 81.3443 143.522 80.6256C143.09 80.0388 142.816 79.3 142.699 78.4092C142.512 76.9891 142.904 75.2238 143.875 73.1134C144.458 71.8548 145.229 70.6242 146.187 69.4215C147.441 67.8649 148.564 67.0213 149.559 66.8908C150.578 66.7569 151.161 67.2451 151.307 68.3553C151.385 68.9492 151.231 69.8231 150.844 70.977C150.381 72.3511 149.8 73.0839 149.103 73.1754C148.587 73.2432 148.294 73.0125 148.224 72.4832C148.185 72.1862 148.238 71.8839 148.381 71.5761C148.537 71.2667 148.758 71.0933 149.042 71.056C149.171 71.0391 149.4 71.2323 149.728 71.6356C150.047 71.4624 150.315 70.9545 150.533 70.1117C150.735 69.3497 150.807 68.7493 150.75 68.3103C150.656 67.6003 150.313 67.2842 149.719 67.3622C149.19 67.4317 148.551 67.9686 147.803 68.973C147.345 69.5847 146.996 70.1296 146.757 70.6075C145.579 72.9421 144.728 75.0106 144.203 76.8131C143.877 77.9327 143.753 78.7895 143.831 79.3833C143.984 80.5452 144.538 81.0635 145.493 80.938C147.533 80.6702 149.956 78.2705 152.762 73.739C152.817 73.6531 152.903 73.5104 153.021 73.311C153.119 73.3508 153.251 73.4122 153.42 73.4951ZM166.657 71.5403C164.565 74.8093 162.656 77.1743 160.93 78.6353C160.54 78.9624 159.329 79.8436 157.298 81.2791C156.667 83.1742 155.907 85.2374 155.018 87.4684C154.495 88.7847 153.798 90.1239 152.926 91.486C151.723 93.3249 150.682 94.302 149.804 94.4173C149.352 94.4766 148.959 94.3313 148.624 93.9813C148.32 93.6666 148.138 93.2769 148.077 92.8121C147.9 91.4695 148.398 89.861 149.571 87.9867C151.015 85.6828 153.093 83.5582 155.806 81.613L156.838 78.227C155.812 79.4124 155.028 80.0407 154.486 80.1119C153.956 80.1814 153.501 79.9654 153.12 79.4638C152.803 79.0459 152.607 78.5529 152.532 77.9848C152.444 77.3135 152.549 76.3608 152.846 75.1266C153.119 74.0009 153.431 73.0799 153.784 72.3639C154.189 71.549 154.879 70.2567 155.855 68.487C156 68.3892 156.265 68.2624 156.652 68.1066C156.879 68.0373 157.194 67.9829 157.596 67.9432C156.617 69.7921 155.611 71.8285 154.577 74.0524C153.595 76.1774 153.16 77.666 153.272 78.5181C153.37 79.2668 153.703 79.6039 154.271 79.5294C154.826 79.4565 155.446 79.0206 156.129 78.2217C156.698 77.556 157.117 76.8969 157.386 76.2444C158.026 74.7158 159.184 71.9371 160.861 67.9085C160.96 67.6591 161.056 67.3904 161.15 67.1024L162.638 66.8872C161.825 68.7932 161.031 70.6966 160.256 72.5975C159.335 74.8853 158.459 77.4692 157.629 80.3492C158.302 79.9719 159.222 79.3258 160.389 78.4109C161.747 77.3527 163.729 74.9978 166.336 71.3461L166.657 71.5403ZM155.533 82.5352C154.783 83.0276 153.633 83.9731 152.084 85.3717C151.259 86.2942 150.504 87.3914 149.817 88.6635C148.92 90.331 148.534 91.6424 148.659 92.5977C148.78 93.5144 149.182 93.9277 149.866 93.8379C150.408 93.7667 151.031 93.2056 151.733 92.1547C152.282 91.3341 152.698 90.5506 152.981 89.8043C153.351 88.8233 154.202 86.4003 155.533 82.5352ZM179.833 69.8694C178.574 72.0834 177.02 73.9552 175.173 75.4848C174.472 76.0496 173.117 77.1336 171.108 78.7369C170.839 79.3895 170.592 80.1049 170.366 80.8831C169.76 82.9719 168.809 85.2769 167.511 87.798C165.641 91.458 164.048 93.3745 162.731 93.5474C161.943 93.6508 161.482 93.1861 161.346 92.1533C161.199 91.0301 161.652 89.48 162.705 87.5031C164.085 84.9056 166.192 82.2519 169.027 79.542C169.342 79.238 169.615 78.9133 169.845 78.5679C170.025 77.9401 170.3 77.0308 170.669 75.8398C169.684 76.9409 169.098 77.5825 168.912 77.7645C168.458 78.205 168.024 78.4524 167.611 78.5067C166.359 78.6711 165.619 77.8883 165.392 76.1584C165.063 73.6538 166.083 70.8672 168.451 67.7984C169.91 65.9126 171.169 64.9003 172.228 64.7613C173.171 64.6375 173.846 65.2317 174.255 66.5438C174.329 66.3108 174.487 66.0143 174.729 65.6542C175.081 65.1352 175.628 64.8532 176.371 64.8083C175.799 66.0522 175.305 67.1874 174.888 68.2139C172.671 73.7318 171.592 76.7232 171.653 77.1879L171.506 77.5619C171.612 77.4692 171.749 77.3658 171.918 77.2517C172.317 76.9892 173.011 76.4778 174.002 75.7174C175.59 74.5108 177.428 72.5096 179.517 69.7139L179.833 69.8694ZM173.563 66.3786C173.458 65.5781 173.07 65.222 172.399 65.3101C171.263 65.4593 169.934 67.144 168.413 70.3642C166.944 73.4726 166.294 75.6788 166.465 76.9827C166.56 77.7056 166.905 78.0281 167.499 77.9502C168.919 77.7637 170.487 75.5026 172.202 71.1668C173.198 68.646 173.651 67.0499 173.563 66.3786ZM169.192 80.6433C169.159 80.595 169.125 80.5339 169.089 80.4598C167.944 81.2405 166.456 82.9658 164.627 85.6355C162.597 88.581 161.667 90.6993 161.837 91.9903C161.928 92.6875 162.226 93.003 162.729 92.9369C163.878 92.786 165.098 91.1222 166.388 87.9454C166.738 87.0065 167.377 85.3269 168.307 82.9066C168.445 82.5602 168.74 81.8057 169.192 80.6433ZM190.314 68.5325L189.58 69.9882C189.423 70.2977 189.238 70.6372 189.024 71.0067C188.821 71.3617 188.591 71.7071 188.333 72.0431C188.086 72.3644 187.81 72.6633 187.505 72.9397C187.211 73.2016 186.894 73.3876 186.554 73.498C186.212 73.5954 185.851 73.5968 185.471 73.5023C185.089 73.3948 184.683 73.1526 184.253 72.7758C184 74.1485 183.584 75.1815 183.005 75.8747C182.437 76.5534 181.604 76.9058 180.504 76.932C179.863 76.9505 179.356 76.7412 178.984 76.3043C178.624 75.8656 178.404 75.2379 178.323 74.4211C178.288 74.058 178.265 73.6342 178.254 73.1497C178.254 72.6506 178.304 72.0794 178.404 71.436C178.516 70.7909 178.69 70.0655 178.925 69.2597C179.174 68.4522 179.528 67.5456 179.987 66.5398L180.264 65.9518C180.377 65.7137 180.507 65.4537 180.654 65.1717C180.801 64.8898 180.964 64.5795 181.142 64.2409C181.32 64.1913 181.583 64.0976 181.933 63.9598C182.294 63.8073 182.691 63.6304 183.124 63.4291L183.265 63.45C183.031 63.7697 182.764 64.1856 182.463 64.6978C182.176 65.2083 181.878 65.7924 181.57 66.45C181.274 67.093 180.984 67.7813 180.699 68.5146C180.414 69.248 180.164 69.9901 179.947 70.7408C179.744 71.4899 179.579 72.2338 179.452 72.9727C179.337 73.697 179.295 74.3723 179.324 74.9988C179.343 75.3378 179.453 75.6254 179.654 75.8616C179.856 76.0978 180.107 76.2553 180.406 76.3342C180.705 76.4131 181.031 76.3965 181.384 76.2845C181.737 76.1725 182.068 75.9387 182.376 75.5831C182.684 75.2275 182.947 74.7332 183.166 74.1004C183.385 73.4675 183.516 72.6689 183.56 71.7044L183.51 71.7701C183.519 71.6377 183.489 71.4578 183.419 71.2305C183.363 71.0015 183.299 70.7604 183.226 70.5073C183.152 70.2413 183.089 69.9671 183.039 69.6848C183.002 69.4008 183.007 69.1375 183.054 68.8949C183.101 68.6524 183.204 68.4418 183.365 68.2631C183.536 68.0699 183.795 67.9374 184.14 67.8659C184.345 67.8258 184.493 67.8524 184.584 67.9455C184.675 68.0386 184.795 68.1541 184.944 68.2921C185.096 68.443 185.157 68.6582 185.128 68.9378C185.112 69.2157 185.055 69.5318 184.957 69.8861C184.87 70.2258 184.774 70.593 184.668 70.9877C184.573 71.3679 184.518 71.7429 184.501 72.1129C184.969 72.6817 185.451 72.9533 185.947 72.9276C186.443 72.9019 186.92 72.6882 187.38 72.2864C187.837 71.8717 188.264 71.3167 188.658 70.6214C189.051 69.9132 189.378 69.1545 189.64 68.3453L190.314 68.5325ZM194.241 62.2845C193.983 62.3184 193.722 62.4315 193.459 62.6237C193.195 62.8159 192.924 63.101 192.645 63.4791C192.379 63.8554 192.1 64.332 191.808 64.9088C191.516 65.4855 191.207 66.1827 190.881 67.0004C189.636 70.1187 189.102 72.3492 189.278 73.6918C189.41 74.6988 189.799 75.1599 190.445 75.0752C191.026 74.9989 191.777 74.2238 192.7 72.75C193.471 71.5194 193.993 70.4922 194.265 69.6685C194.093 69.2577 193.983 68.8651 193.933 68.4907C193.881 68.0905 193.874 67.7369 193.912 67.4297C193.951 67.1226 194.015 66.8646 194.106 66.6557C194.195 66.4339 194.291 66.2637 194.394 66.1452C194.509 66.025 194.612 65.9589 194.703 65.9471C194.754 65.9403 194.817 65.9714 194.892 66.0404C194.967 66.1094 195.086 66.2184 195.25 66.3676C195.429 65.4249 195.524 64.6047 195.538 63.9069C195.563 63.1945 195.469 62.583 195.258 62.0723C195.066 61.6116 194.847 61.1478 194.602 60.681C194.37 60.2124 194.139 59.7568 193.911 59.3141C193.693 58.8567 193.498 58.4227 193.326 58.0119C193.165 57.5865 193.061 57.1931 193.013 56.8316C192.988 56.638 192.972 56.4168 192.966 56.1681C192.97 55.9048 193.025 55.6218 193.13 55.3192C193.233 55.0036 193.405 54.6658 193.647 54.3057C193.9 53.9311 194.267 53.5283 194.749 53.0973C195.255 52.65 195.754 52.3021 196.247 52.0536C196.752 51.8033 197.212 51.6511 197.625 51.5968C198.18 51.5239 198.746 51.4825 199.322 51.4725C199.91 51.4478 200.456 51.4024 200.959 51.3363L201.017 51.3287C201.895 51.2134 202.589 50.899 203.1 50.3855C203.127 50.2901 203.218 50.2322 203.372 50.2118C203.553 50.1881 203.674 50.2051 203.734 50.2629C203.794 50.3206 203.826 50.3624 203.829 50.3883C203.832 50.4141 203.764 50.4952 203.625 50.6318C203.289 50.9779 203.014 51.3357 202.8 51.7053C202.584 52.0619 202.375 52.3652 202.171 52.6152C201.875 52.9562 201.274 53.186 200.371 53.3047C200.229 53.3234 200.08 53.3428 199.925 53.3632C199.77 53.3835 199.607 53.3918 199.436 53.388C199.005 53.4052 198.548 53.4258 198.065 53.4498C197.595 53.4721 197.129 53.5202 196.666 53.5942C196.214 53.6535 195.787 53.749 195.384 53.8807C194.981 54.0124 194.638 54.2019 194.355 54.4491C194.071 54.6835 193.862 54.9932 193.729 55.3785C193.594 55.7508 193.568 56.2072 193.652 56.7477C193.728 57.2237 193.89 57.708 194.139 58.2007C194.385 58.6804 194.644 59.1981 194.914 59.7536C195.195 60.2945 195.456 60.884 195.698 61.5221C195.952 62.1584 196.117 62.8656 196.193 63.6436C196.228 63.9147 196.217 64.2774 196.158 64.7316C196.113 65.1841 196.039 65.6731 195.937 66.1986C195.834 66.7112 195.71 67.2199 195.566 67.7247C195.423 68.2295 195.283 68.6681 195.148 69.0404C195.04 69.3172 194.996 69.5331 195.017 69.688C195.028 69.7784 195.086 69.8693 195.19 69.9607C195.292 70.0392 195.413 70.1087 195.553 70.1692C195.705 70.228 195.855 70.2739 196.004 70.3069C196.166 70.3382 196.298 70.3471 196.401 70.3335C197.137 70.2369 197.789 69.8493 198.357 69.1707C198.414 69.1106 198.559 68.9143 198.791 68.5817C199.035 68.2346 199.365 67.7513 199.783 67.1317C199.812 67.1541 199.855 67.1813 199.912 67.2133C199.98 67.2306 200.057 67.2665 200.143 67.3209C199.959 67.7258 199.566 68.329 198.962 69.1306C198.225 70.1204 197.398 70.6754 196.482 70.7958C196.237 70.828 196.008 70.8383 195.796 70.8267C195.583 70.8021 195.398 70.7411 195.241 70.6436L194.659 70.2668C194.342 70.952 194.008 71.6065 193.656 72.2305C193.305 72.8545 192.945 73.4139 192.577 73.9088C192.219 74.3891 191.851 74.7854 191.472 75.0979C191.106 75.4086 190.748 75.5869 190.4 75.6327C190.103 75.6716 189.821 75.6298 189.556 75.5071C189.303 75.3827 189.075 75.1959 188.872 74.9468C188.668 74.6978 188.498 74.4049 188.362 74.0682C188.224 73.7186 188.129 73.3436 188.077 72.9434C187.98 72.2076 187.996 71.4306 188.125 70.6126C188.252 69.7817 188.46 68.9599 188.747 68.1474C189.047 67.3331 189.404 66.5508 189.818 65.8005C190.231 65.0502 190.675 64.3812 191.15 63.7936C191.637 63.2043 192.132 62.7256 192.636 62.3575C193.15 61.9747 193.64 61.7529 194.105 61.6918C194.234 61.6749 194.348 61.6928 194.446 61.7454C194.558 61.7964 194.626 61.8598 194.649 61.9356C194.683 61.9967 194.666 62.0647 194.597 62.1394C194.541 62.2124 194.422 62.2608 194.241 62.2845ZM213.222 65.3671C213.059 65.8219 212.735 66.4554 212.25 67.2676C209.989 71.0447 208.315 73.0045 207.231 73.1469C206.25 73.2757 205.605 72.6183 205.298 71.1747C205.196 70.7022 205.134 70.2309 205.112 69.7611C204.847 70.2424 204.546 70.7546 204.211 71.2978C203.027 73.1867 202.08 74.1777 201.37 74.271C200.105 74.4371 199.342 73.5261 199.081 71.5379C198.815 69.511 199.298 67.2873 200.53 64.8668C202.138 61.7139 203.788 60.0264 205.479 59.8044C206.46 59.6755 207.095 60.2094 207.383 61.406C207.392 61.4705 207.425 61.5713 207.482 61.7082C207.783 61.196 208.084 60.6902 208.386 60.1909C208.633 59.8696 208.969 59.681 209.395 59.625C209.602 59.5979 209.749 59.6705 209.838 59.8427L208.17 63.9424C207.88 64.6371 207.355 65.993 206.596 68.01C206.065 69.4717 205.845 70.5447 205.935 71.2289C206.059 72.1714 206.443 72.6002 207.089 72.5154C207.683 72.4375 208.452 71.7915 209.395 70.5776C210.384 69.3053 211.508 67.5161 212.768 65.21C212.822 65.2161 212.973 65.2685 213.222 65.3671ZM206.806 61.6591C206.682 60.7167 206.259 60.2929 205.536 60.3878C204.852 60.4777 204.058 61.337 203.156 62.9657C202.539 64.071 201.74 66.0803 200.756 68.9935C200.253 70.4647 200.055 71.607 200.162 72.4203C200.281 73.324 200.637 73.7369 201.231 73.6589C201.541 73.6182 201.93 73.3307 202.398 72.7965C203.346 71.7134 204.203 70.143 204.971 68.0855C206.289 64.5242 206.901 62.3821 206.806 61.6591ZM215.994 70.1248C216.045 70.5121 215.98 70.9211 215.801 71.3519C215.602 71.8376 215.322 72.1042 214.96 72.1517C214.302 72.2381 213.917 71.8618 213.807 71.0226C213.756 70.6353 213.825 70.2586 214.013 69.8924C214.221 69.4712 214.505 69.2369 214.867 69.1894C215.112 69.1572 215.353 69.2438 215.59 69.449C215.827 69.6543 215.962 69.8795 215.994 70.1248Z" fill="#181818"></path></svg> 