<?xml version="1.0" encoding="UTF-8"?> <svg xmlns="http://www.w3.org/2000/svg" width="175" height="34" viewBox="0 0 175 34" fill="none"><path d="M26.3197 2.45092C26.3465 3.60214 25.9716 4.69982 25.1952 5.74396C24.7133 6.44005 24.2582 6.92196 23.8298 7.18968C23.5621 7.32355 23.3881 7.39048 23.3078 7.39048C23.1739 7.31016 23.107 7.24323 23.107 7.18968C24.5527 5.07464 25.2756 3.62892 25.2756 2.85251C25.2756 1.80837 24.6598 1.28631 23.4282 1.28631C20.9652 1.28631 17.9934 2.61155 14.5129 5.26205C11.1396 7.80545 8.24813 10.8308 5.83859 14.338C3.24164 18.1129 1.94317 21.4194 1.94317 24.2573C1.94317 26.7471 2.38491 28.5141 3.26841 29.5583C4.04482 30.4953 5.28975 30.9638 7.0032 30.9638C9.3592 30.9638 12.2908 29.0228 15.798 25.1408C16.4941 22.1154 17.7926 19.1035 19.6934 16.105C21.514 13.2135 22.9597 11.7678 24.0306 11.7678C24.3519 11.7678 24.5125 11.9552 24.5125 12.33C24.4858 12.9458 23.7763 14.4585 22.3841 16.868C20.8313 19.572 19.1044 22.0753 17.2036 24.3777C16.7485 26.0376 16.5209 27.5369 16.5209 28.8755C16.5209 31.4993 17.4044 33.0521 19.1714 33.534C19.1714 33.7214 18.9572 33.8151 18.5288 33.8151C16.4406 33.119 15.3964 31.352 15.3964 28.5141C15.3964 27.8448 15.4634 27.0684 15.5972 26.1849C12.1703 29.8528 9.14501 31.6867 6.52129 31.6867C4.32593 31.6867 2.70619 30.8567 1.66205 29.1968C0.912417 28.0188 0.5376 26.6668 0.5376 25.1408C0.5376 21.3926 1.96994 17.5105 4.83461 13.4946C7.35125 9.93388 10.4836 6.89518 14.2318 4.37855C17.8997 1.91547 21.0455 0.683923 23.6692 0.683923C25.4094 0.683923 26.2929 1.27292 26.3197 2.45092ZM23.9503 12.4104C23.9503 12.33 23.8834 12.2899 23.7495 12.2899C22.6518 13.2269 21.514 14.7128 20.336 16.7475C19.1848 18.7823 18.2611 20.9107 17.565 23.1328C19.2517 21.0178 20.7376 18.8893 22.0227 16.7475C23.2274 14.686 23.87 13.2403 23.9503 12.4104ZM25.5918 29.1567C25.5115 29.2638 25.4044 29.411 25.2705 29.5984C25.1367 29.759 25.0028 29.9197 24.8689 30.0803C24.7619 30.2677 24.6548 30.415 24.5477 30.5221C24.4406 30.6559 24.3603 30.7229 24.3067 30.7229C23.9587 30.7229 23.7846 30.5355 23.7846 30.1606C23.7846 30.0268 23.8784 29.759 24.0658 29.3575C24.387 28.9023 24.7083 28.4606 25.0296 28.0322C25.3508 27.6038 25.6587 27.1621 25.9532 26.707C26.8903 25.3683 27.3588 24.4179 27.3588 23.8557C27.3588 23.6147 27.2785 23.4942 27.1178 23.4942C27.0108 23.4942 26.8501 23.5478 26.6359 23.6549C25.9398 24.1636 25.1099 24.7793 24.1461 25.5022C23.209 26.2251 22.098 27.055 20.8129 27.992H20.5318C20.3444 27.992 20.2507 27.9653 20.2507 27.9117C20.2507 27.8582 20.3979 27.7243 20.6924 27.5101C21.6294 26.7605 22.6067 25.9975 23.624 25.2211C24.6681 24.4179 25.7658 23.5879 26.9171 22.7312C27.2116 22.4635 27.6265 22.3296 28.162 22.3296C28.6974 22.3296 28.9652 22.5706 28.9652 23.0525C28.9652 23.5879 28.577 24.4447 27.8005 25.6227C27.747 25.7298 27.6801 25.8368 27.5998 25.9439C27.5194 26.0243 27.4525 26.118 27.399 26.2251C27.6131 26.2251 27.8675 26.2251 28.162 26.2251C28.4565 26.2251 28.7911 26.2117 29.166 26.1849C29.8085 26.1313 30.3573 26.1313 30.8125 26.1849C30.9196 25.9975 31.0267 25.8101 31.1337 25.6227C31.2408 25.4353 31.3613 25.2345 31.4952 25.0203C31.7897 24.5651 32.0708 24.1502 32.3385 23.7754C32.633 23.4005 32.9275 23.0659 33.222 22.7714C33.4094 22.5304 33.7039 22.4099 34.1055 22.4099C34.3197 22.4635 34.4268 22.5304 34.4268 22.6107C34.4268 22.6107 33.9583 23.3871 33.0212 24.94C32.0842 26.4928 31.6157 27.6172 31.6157 28.3133C31.6157 29.1433 31.9771 29.5583 32.6999 29.5583C33.6102 29.5583 34.9355 28.7685 36.6757 27.1889C36.756 27.1086 36.8363 27.0684 36.9166 27.0684C36.997 27.0684 37.0371 27.1219 37.0371 27.229C37.0371 27.3897 36.7694 27.6574 36.2339 28.0322C35.3772 28.7818 34.6008 29.3575 33.9047 29.759C33.2086 30.1339 32.5527 30.3213 31.9369 30.3213C30.7322 30.3213 30.1298 29.8126 30.1298 28.7952C30.1298 28.1259 30.277 27.4432 30.5715 26.7471C30.2502 26.7203 29.862 26.707 29.4069 26.707C28.9785 26.707 28.4966 26.7337 27.9612 26.7873C27.5864 26.8141 27.3454 26.8274 27.2383 26.8274C27.1312 26.8274 27.0509 26.8274 26.9974 26.8274C26.6226 27.3629 26.2879 27.8716 25.9934 28.3535C25.7257 28.8354 25.5918 29.1031 25.5918 29.1567ZM55.1021 3.13362C55.1021 5.86443 53.817 9.06377 51.2468 12.7316C49.2924 15.5428 46.8427 18.3003 43.8977 21.0044C41.3543 23.3336 39.8149 24.4982 39.2794 24.4982C38.0211 27.0952 37.392 28.5944 37.392 28.996C38.918 27.5235 40.4574 26.051 42.0102 24.5785C45.0623 21.8745 47.3112 20.5225 48.757 20.5225C49.3192 20.6028 49.6003 20.8437 49.6003 21.2453C49.6003 22.3966 49.0648 23.3871 47.9939 24.2171C47.0034 24.8329 45.9994 25.4353 44.982 26.0243C43.9111 26.6936 43.3757 27.4031 43.3757 28.1527C43.3757 29.3307 43.8442 29.9197 44.7812 29.9197C45.8789 29.9197 47.8199 29.0362 50.6043 27.2692C50.7381 27.1621 50.9255 27.0416 51.1665 26.9078C51.2468 26.8274 51.3271 26.7873 51.4075 26.7873C51.4878 26.7873 51.5279 26.8408 51.5279 26.9479C51.5279 26.9747 51.3539 27.1621 51.0059 27.5101C50.3633 28.1527 49.2523 28.8755 47.6727 29.6787C46.0931 30.4551 44.9151 30.8433 44.1387 30.8433C42.693 30.8433 41.9701 30.1472 41.9701 28.7551C41.9701 27.6842 42.5055 26.7873 43.5765 26.0644C44.5403 25.5022 45.5309 24.9266 46.5482 24.3376C47.5924 23.7218 48.1144 22.9989 48.1144 22.169C48.1144 21.7942 47.9404 21.6068 47.5924 21.6068C46.7356 21.6068 44.6607 23.1462 41.3677 26.2251C38.1014 29.2771 36.3478 30.8032 36.1069 30.8032C35.7856 30.7764 35.625 30.6292 35.625 30.3614C35.625 30.174 35.7053 29.9465 35.8659 29.6787C37.151 27.055 38.4361 24.4313 39.7212 21.8076C42.4252 16.3192 44.8214 11.9552 46.9096 8.71572C49.8814 4.1376 52.1839 1.84853 53.817 1.84853C54.6737 1.84853 55.1021 2.2769 55.1021 3.13362ZM53.9375 3.73601C53.9375 3.12024 53.6965 2.81235 53.2146 2.81235C50.8051 3.42812 46.2939 10.4024 39.681 23.7352C40.4039 23.4942 41.9032 22.2225 44.1788 19.9201C46.749 17.2964 48.9042 14.6726 50.6444 12.0489C52.8398 8.72911 53.9375 5.95814 53.9375 3.73601ZM60.9066 26.9479C60.9066 27.1353 60.3578 27.5771 59.2601 28.2732C56.5561 29.9866 54.615 30.8433 53.4371 30.8433C51.6968 30.8433 50.8267 29.826 50.8267 27.7913C50.8267 26.292 51.5496 24.7927 52.9953 23.2934C54.4678 21.7674 55.86 21.0044 57.1718 21.0044C57.5734 21.0044 57.7742 21.1918 57.7742 21.5666C57.7742 22.4769 56.9844 23.762 55.4048 25.4219C54.1465 26.7337 53.1158 27.6306 52.3126 28.1125C52.3929 29.2905 52.9551 29.8795 53.9993 29.8795C54.9899 29.8795 56.6498 29.2102 58.979 27.8716C59.1664 27.7645 59.6885 27.4432 60.5452 26.9078C60.6255 26.8274 60.7058 26.7873 60.7862 26.7873C60.8665 26.7873 60.9066 26.8408 60.9066 26.9479ZM56.5293 22.3296C56.5293 22.0084 56.4356 21.8477 56.2482 21.8477C55.5789 21.8477 54.7623 22.517 53.7985 23.8557C52.8347 25.1943 52.3394 26.3991 52.3126 27.47C52.8213 27.3093 53.6245 26.6133 54.7221 25.3817C55.9269 24.0431 56.5293 23.0257 56.5293 22.3296ZM85.1376 26.9479C85.1376 27.1086 84.9368 27.3227 84.5352 27.5905C82.6343 28.8755 81.5768 29.585 81.3626 29.7189C80.1579 30.4417 79.1539 30.8032 78.3507 30.8032C77.8956 30.8032 77.5074 30.6425 77.1861 30.3213C76.8916 30 76.7443 29.6118 76.7443 29.1567C76.7443 27.818 77.6011 25.9038 79.3145 23.4139C79.4484 23.2265 79.5153 23.106 79.5153 23.0525C79.5153 23.0257 79.5019 23.0123 79.4752 23.0123C79.3681 23.0123 79.1807 23.106 78.9129 23.2934C77.4137 24.4179 75.7538 25.6628 73.9332 27.0282C73.1568 27.6976 72.019 28.6346 70.5197 29.8394C70.3055 30 70.011 30.1472 69.6362 30.2811C69.4488 30.2811 69.3551 30.1472 69.3551 29.8795C69.3551 29.3441 69.7968 28.4873 70.6803 27.3093C71.5906 26.1046 72.0457 25.2612 72.0457 24.7793C72.0457 24.3242 71.8316 24.0966 71.4032 24.0966C70.7606 24.0966 69.4756 24.9667 67.5479 26.707C66.2361 27.885 65.0848 29.0228 64.0943 30.1205C63.7194 30.5221 63.4249 30.7229 63.2108 30.7229C62.8627 30.7229 62.6887 30.5355 62.6887 30.1606C62.6887 30.0535 62.7824 29.7858 62.9698 29.3575C63.6123 28.474 64.2415 27.5905 64.8573 26.707C65.7943 25.3683 66.2628 24.4179 66.2628 23.8557C66.2628 23.6147 66.1825 23.4942 66.0219 23.4942C65.9416 23.4942 65.7809 23.5478 65.54 23.6549C64.1746 24.6722 62.2336 26.118 59.7169 27.992H59.4358C59.2484 27.992 59.1547 27.9653 59.1547 27.9117C59.1547 27.8314 59.3019 27.6976 59.5964 27.5101C61.4705 26.0376 63.5454 24.4447 65.8211 22.7312C66.1424 22.4635 66.5573 22.3296 67.066 22.3296C67.6015 22.3296 67.8692 22.5706 67.8692 23.0525C67.8692 23.1596 67.8424 23.3202 67.7889 23.5344C67.2534 24.4714 66.5707 25.6628 65.7408 27.1086C65.6337 27.296 65.5801 27.4164 65.5801 27.47C65.5801 27.4968 65.6069 27.5101 65.6605 27.5101L65.7809 27.47C66.7715 26.6133 67.7621 25.7565 68.7527 24.8998C70.2787 23.6147 71.3764 22.9722 72.0457 22.9722C72.9292 22.9722 73.371 23.2533 73.371 23.8155C73.371 24.2974 73.1033 25.0337 72.5678 26.0243C72.0591 26.9881 71.8048 27.5101 71.8048 27.5905C71.8048 27.6708 71.8316 27.7109 71.8851 27.7109C71.9922 27.7109 72.1796 27.6172 72.4473 27.4298L80.8004 21.1249C81.0681 20.9107 81.3492 20.8036 81.6437 20.8036C81.8311 20.8036 81.965 20.8437 82.0453 20.9241C82.1256 20.9776 82.1658 21.0847 82.1658 21.2453C82.1658 21.4327 82.1123 21.5934 82.0052 21.7272C81.2555 22.7982 80.4925 23.8824 79.7161 24.9801C78.8058 26.3723 78.3507 27.5771 78.3507 28.5944C78.3507 29.237 78.6987 29.5449 79.3948 29.5181C80.2248 29.4913 81.1618 29.1567 82.206 28.5141C83.0627 27.9787 83.9194 27.4432 84.7761 26.9078C84.8565 26.8274 84.9368 26.7873 85.0171 26.7873C85.0974 26.7873 85.1376 26.8408 85.1376 26.9479ZM97.6477 26.9479C97.6477 27.2692 96.8178 27.885 95.1579 28.7952C93.4176 29.759 92.1727 30.241 91.4231 30.241C90.0309 30.241 89.3348 29.5047 89.3348 28.0322C89.3348 27.6306 89.549 27.1755 89.9774 26.6668C89.9774 26.64 89.964 26.6266 89.9372 26.6266C89.964 26.6266 89.2411 27.1889 87.7686 28.3133C86.2961 29.411 85.2386 29.9598 84.5961 29.9598C83.9803 29.9598 83.6724 29.7055 83.6724 29.1968C83.6724 27.9653 84.7031 26.5329 86.7646 24.8998C88.719 23.3202 90.2451 22.5304 91.3428 22.5304C91.5034 22.5572 91.6774 22.6509 91.8648 22.8115C92.079 22.9454 92.1861 23.0525 92.1861 23.1328C92.1861 23.1596 92.1727 23.1864 92.1459 23.2131C90.6467 23.2131 88.7324 24.3777 86.4032 26.707C85.6536 27.4566 85.2788 28.0858 85.2788 28.5944C85.2788 28.7818 85.3725 28.8755 85.5599 28.8755C86.1489 28.8755 87.2733 28.1928 88.9332 26.8274C90.2719 25.703 91.2223 24.8061 91.7845 24.1368C92.0522 23.8155 92.2396 23.6549 92.3467 23.6549C92.6145 23.6549 92.7483 23.8423 92.7483 24.2171C92.7483 24.351 92.5743 24.6589 92.2263 25.1408C91.075 26.7203 90.4994 27.7243 90.4994 28.1527C90.4994 28.9023 90.9144 29.2771 91.7444 29.2771C93.1098 29.2771 94.9571 28.4873 97.2863 26.9078C97.3666 26.8274 97.4469 26.7873 97.5273 26.7873C97.6076 26.7873 97.6477 26.8408 97.6477 26.9479ZM110.311 30.0402C109.829 30.2008 109.361 30.3347 108.905 30.4417C108.477 30.5488 108.075 30.6024 107.701 30.6024C107.353 30.6024 107.045 30.5355 106.777 30.4016C106.536 30.2677 106.375 30.0268 106.295 29.6787C106.215 29.411 106.295 29.0763 106.536 28.6748C106.804 28.2464 107.138 27.8046 107.54 27.3495C107.942 26.8944 108.357 26.4392 108.785 25.9841C109.24 25.5022 109.628 25.0738 109.95 24.699C110.298 24.2974 110.539 23.9761 110.672 23.7352C110.833 23.4675 110.793 23.3068 110.552 23.2533C110.418 23.0927 110.137 23.1462 109.709 23.4139C109.307 23.6816 108.825 24.0431 108.263 24.4982C107.701 24.9534 107.098 25.4353 106.456 25.9439C105.84 26.4526 105.264 26.8542 104.729 27.1487H104.689C104.635 27.1487 104.582 27.0952 104.528 26.9881C104.501 26.881 104.488 26.8007 104.488 26.7471C105.13 26.3188 105.8 25.8235 106.496 25.2612C107.192 24.699 107.848 24.1636 108.464 23.6549C109.106 23.1462 109.668 22.7178 110.15 22.3698C110.632 22.0217 110.994 21.8477 111.235 21.8477C111.556 21.7942 111.81 21.8879 111.998 22.1288C112.212 22.343 112.346 22.5438 112.399 22.7312C112.48 23.1864 112.319 23.6683 111.917 24.1769C111.543 24.6856 110.913 25.3416 110.03 26.1447C109.575 26.5463 109.16 26.9881 108.785 27.47C108.41 27.9251 108.142 28.3401 107.982 28.7149C107.821 29.063 107.808 29.3441 107.942 29.5583C108.075 29.7457 108.424 29.7858 108.986 29.6787C109.548 29.6787 110.057 29.6252 110.512 29.5181C110.967 29.3842 111.422 29.2102 111.877 28.996C112.359 28.7551 112.868 28.474 113.403 28.1527C113.965 27.8046 114.621 27.4164 115.371 26.9881C115.425 26.9613 115.465 26.9345 115.491 26.9078C115.518 26.881 115.558 26.8676 115.612 26.8676C115.639 26.8676 115.652 26.9613 115.652 27.1487C115.652 27.3093 115.585 27.4031 115.451 27.4298C114.862 27.8314 114.38 28.1527 114.006 28.3936C113.631 28.6346 113.269 28.8354 112.921 28.996C112.6 29.1567 112.239 29.3173 111.837 29.4779C111.462 29.6118 110.954 29.7992 110.311 30.0402ZM126.553 26.9479C126.553 27.055 126.419 27.2156 126.151 27.4298C124.973 28.4204 123.782 28.9157 122.577 28.9157C121.827 28.9157 121.185 28.7149 120.649 28.3133C119.418 29.9197 118.079 30.7229 116.634 30.7229C115.563 30.7229 115.027 30.0535 115.027 28.7149C115.027 26.9747 115.884 25.2211 117.597 23.4541C119.043 21.9816 120.101 21.2453 120.77 21.2453C121.198 21.2453 121.412 21.3792 121.412 21.6469C121.412 21.7272 121.332 21.8343 121.171 21.9682C120.529 22.1021 119.659 22.7848 118.561 24.0163C117.223 25.5156 116.553 26.9613 116.553 28.3535C116.553 29.2638 116.874 29.7189 117.517 29.7189C118.454 29.7189 119.405 29.17 120.368 28.0724C119.86 27.5101 119.605 26.8141 119.605 25.9841C119.605 25.0203 119.846 24.1903 120.328 23.4942C120.757 22.9052 121.212 22.6107 121.694 22.6107C122.175 22.6107 122.457 22.9454 122.537 23.6147C122.537 24.7927 122.122 26.0644 121.292 27.4298C121.747 27.9385 122.363 28.1928 123.139 28.1928C124.183 28.1928 125.201 27.7645 126.191 26.9078C126.272 26.8274 126.352 26.7873 126.432 26.7873C126.513 26.7873 126.553 26.8408 126.553 26.9479ZM122.135 23.8557C122.135 23.5879 122.042 23.4541 121.854 23.4541C121.613 23.4541 121.359 23.6683 121.091 24.0966C120.823 24.525 120.69 25.0738 120.69 25.7431C120.69 26.3054 120.81 26.7739 121.051 27.1487C121.774 26.0243 122.135 24.9266 122.135 23.8557ZM135.246 26.9479C135.246 27.055 135.045 27.2692 134.643 27.5905C133.572 28.2865 132.515 28.9826 131.471 29.6787C129.945 30.589 128.7 31.0441 127.736 31.0441C127.174 31.0441 126.678 30.8433 126.25 30.4417C125.822 30.0402 125.607 29.585 125.607 29.0763C125.607 27.3093 126.464 25.6896 128.178 24.2171C129.704 22.9052 131.123 22.2493 132.435 22.2493C133.264 22.2493 133.679 22.584 133.679 23.2533C133.679 23.6281 133.131 24.3644 132.033 25.462C131.926 25.5691 131.805 25.6227 131.672 25.6227C131.457 25.6227 131.35 25.5022 131.35 25.2612C131.35 25.1541 131.39 25.0738 131.471 25.0203C131.551 24.94 131.712 24.6455 131.953 24.1368C132.194 23.6013 132.314 23.1997 132.314 22.932C132.314 22.8517 132.22 22.8115 132.033 22.8115C131.364 22.8115 130.386 23.3604 129.101 24.4581C127.549 25.7699 126.772 27.1219 126.772 28.5141C126.772 29.5315 127.214 30.0402 128.097 30.0402C129.463 30.0402 131.538 29.1165 134.322 27.2692C134.456 27.1621 134.643 27.0416 134.884 26.9078C134.965 26.8274 135.045 26.7873 135.125 26.7873C135.205 26.7873 135.246 26.8408 135.246 26.9479ZM159.455 26.9479C159.455 27.1086 159.254 27.3227 158.853 27.5905C156.952 28.8755 155.895 29.585 155.68 29.7189C154.476 30.4417 153.472 30.8032 152.668 30.8032C152.213 30.8032 151.825 30.6425 151.504 30.3213C151.209 30 151.062 29.6118 151.062 29.1567C151.062 27.818 151.919 25.9038 153.632 23.4139C153.766 23.2265 153.833 23.106 153.833 23.0525C153.833 23.0257 153.82 23.0123 153.793 23.0123C153.686 23.0123 153.498 23.106 153.231 23.2934C151.731 24.4179 150.071 25.6628 148.251 27.0282C147.474 27.6976 146.337 28.6346 144.837 29.8394C144.623 30 144.329 30.1472 143.954 30.2811C143.766 30.2811 143.673 30.1472 143.673 29.8795C143.673 29.3441 144.115 28.4873 144.998 27.3093C145.908 26.1046 146.363 25.2612 146.363 24.7793C146.363 24.3242 146.149 24.0966 145.721 24.0966C145.078 24.0966 143.793 24.9667 141.866 26.707C140.554 27.885 139.403 29.0228 138.412 30.1205C138.037 30.5221 137.743 30.7229 137.528 30.7229C137.18 30.7229 137.006 30.5355 137.006 30.1606C137.006 30.0535 137.1 29.7858 137.287 29.3575C137.93 28.474 138.559 27.5905 139.175 26.707C140.112 25.3683 140.581 24.4179 140.581 23.8557C140.581 23.6147 140.5 23.4942 140.34 23.4942C140.259 23.4942 140.099 23.5478 139.858 23.6549C138.492 24.6722 136.551 26.118 134.035 27.992H133.754C133.566 27.992 133.472 27.9653 133.472 27.9117C133.472 27.8314 133.62 27.6976 133.914 27.5101C135.788 26.0376 137.863 24.4447 140.139 22.7312C140.46 22.4635 140.875 22.3296 141.384 22.3296C141.919 22.3296 142.187 22.5706 142.187 23.0525C142.187 23.1596 142.16 23.3202 142.107 23.5344C141.571 24.4714 140.888 25.6628 140.058 27.1086C139.951 27.296 139.898 27.4164 139.898 27.47C139.898 27.4968 139.925 27.5101 139.978 27.5101L140.099 27.47C141.089 26.6133 142.08 25.7565 143.07 24.8998C144.596 23.6147 145.694 22.9722 146.363 22.9722C147.247 22.9722 147.689 23.2533 147.689 23.8155C147.689 24.2974 147.421 25.0337 146.885 26.0243C146.377 26.9881 146.122 27.5101 146.122 27.5905C146.122 27.6708 146.149 27.7109 146.203 27.7109C146.31 27.7109 146.497 27.6172 146.765 27.4298L155.118 21.1249C155.386 20.9107 155.667 20.8036 155.961 20.8036C156.149 20.8036 156.283 20.8437 156.363 20.9241C156.443 20.9776 156.484 21.0847 156.484 21.2453C156.484 21.4327 156.43 21.5934 156.323 21.7272C155.573 22.7982 154.81 23.8824 154.034 24.9801C153.124 26.3723 152.668 27.5771 152.668 28.5944C152.668 29.237 153.016 29.5449 153.713 29.5181C154.542 29.4913 155.48 29.1567 156.524 28.5141C157.38 27.9787 158.237 27.4432 159.094 26.9078C159.174 26.8274 159.254 26.7873 159.335 26.7873C159.415 26.7873 159.455 26.8408 159.455 26.9479ZM167.749 25.703C168.15 25.3014 168.445 25.1006 168.632 25.1006C168.98 25.1006 169.154 25.2746 169.154 25.6227C169.154 25.8368 169.061 26.0778 168.873 26.3455C168.552 26.8274 168.284 27.2558 168.07 27.6306C167.856 27.9787 167.722 28.2732 167.668 28.5141C167.615 28.7551 167.668 28.9425 167.829 29.0763C167.99 29.2102 168.298 29.2771 168.753 29.2771C169.69 29.2771 171.39 28.4338 173.853 26.7471C173.906 26.6936 174.027 26.5999 174.214 26.466C174.429 26.3321 174.576 26.2652 174.656 26.2652C174.736 26.2652 174.777 26.3188 174.777 26.4258C174.777 26.5865 174.576 26.8007 174.174 27.0684C170.854 29.2905 168.632 30.4016 167.508 30.4016C166.758 30.4016 166.383 29.9732 166.383 29.1165C166.383 28.7417 166.437 28.3803 166.544 28.0322C166.651 27.6842 166.758 27.4031 166.865 27.1889C166.678 27.1889 166.49 27.1755 166.303 27.1487C166.142 27.1219 165.968 27.0952 165.781 27.0684C165.299 27.4164 164.75 27.7779 164.134 28.1527C163.519 28.5007 162.903 28.822 162.287 29.1165C161.671 29.411 161.082 29.652 160.52 29.8394C159.985 30 159.543 30.0669 159.195 30.0402C158.82 30.0134 158.485 29.9331 158.191 29.7992C157.87 29.6386 157.709 29.3039 157.709 28.7952C157.709 28.5007 157.789 28.2464 157.95 28.0322C158.084 27.818 158.231 27.7109 158.392 27.7109C158.526 27.7109 158.633 27.7779 158.713 27.9117C158.793 28.0456 158.887 28.2062 158.994 28.3936C159.101 28.5543 159.222 28.7015 159.356 28.8354C159.489 28.9693 159.677 29.0362 159.918 29.0362H160.159C160.239 29.0362 160.4 28.996 160.641 28.9157C160.908 28.8354 161.27 28.6881 161.725 28.474C162.394 28.1527 162.997 27.885 163.532 27.6708C164.068 27.4298 164.563 27.1621 165.018 26.8676C164.509 26.7605 164.027 26.5865 163.572 26.3455C162.93 26.0243 162.649 25.4353 162.729 24.5785C162.782 23.9895 163.023 23.5076 163.452 23.1328C163.88 22.758 164.362 22.4903 164.897 22.3296C165.46 22.169 166.009 22.1288 166.544 22.2092C167.106 22.2627 167.535 22.4501 167.829 22.7714C168.124 23.0659 168.231 23.4809 168.15 24.0163C168.097 24.5518 167.722 25.2211 167.026 26.0243C166.946 26.1046 166.852 26.1983 166.745 26.3054C166.664 26.3857 166.557 26.466 166.423 26.5463L167.106 26.7471C167.133 26.6936 167.187 26.6133 167.267 26.5062C167.347 26.3723 167.427 26.2518 167.508 26.1447C167.588 26.0109 167.655 25.9038 167.709 25.8235C167.762 25.7431 167.776 25.703 167.749 25.703ZM166.986 24.94C167.066 24.8061 167.133 24.6856 167.187 24.5785C167.267 24.4714 167.334 24.351 167.387 24.2171C167.468 24.0029 167.508 23.7754 167.508 23.5344C167.535 23.2934 167.454 23.0659 167.267 22.8517C167.026 22.584 166.624 22.5304 166.062 22.6911C165.527 22.8249 165.045 23.0793 164.616 23.4541C164.188 23.8289 163.907 24.2706 163.773 24.7793C163.666 25.2612 163.907 25.6896 164.496 26.0644L165.701 26.3857C165.915 26.1983 166.129 25.9841 166.343 25.7431C166.557 25.5022 166.772 25.2345 166.986 24.94Z" fill="#AA9A6E"></path></svg> 