<?xml version="1.0" encoding="UTF-8"?> <svg xmlns="http://www.w3.org/2000/svg" width="290" height="135" viewBox="0 0 290 135" fill="none"><path d="M12.7291 11.2182H15.1051C17.0971 11.2182 18.5731 11.7462 19.5331 12.8022C20.5171 13.8582 21.0091 15.4062 21.0091 17.4462V19.9302C21.0091 21.9702 20.5171 23.5182 19.5331 24.5742C18.5731 25.6302 17.0971 26.1582 15.1051 26.1582H8.76914V0.958201L19.2451 0.958201V4.5582L12.7291 4.5582V11.2182ZM15.1051 22.5582C15.7291 22.5582 16.2091 22.3902 16.5451 22.0542C16.8811 21.6942 17.0491 21.0702 17.0491 20.1822V17.1942C17.0491 16.3062 16.8811 15.6942 16.5451 15.3582C16.2091 14.9982 15.7291 14.8182 15.1051 14.8182H12.7291V22.5582H15.1051ZM22.8755 22.5582C23.0915 22.5822 23.2595 22.5942 23.3795 22.5942C23.4995 22.5942 23.6675 22.5942 23.8835 22.5942C24.1955 22.5942 24.5075 22.5582 24.8195 22.4862C25.1315 22.4142 25.3955 22.2822 25.6115 22.0902C25.8515 21.8982 26.0195 21.6342 26.1155 21.2982C26.2115 20.9382 26.2115 20.4702 26.1155 19.8942L20.7155 0.958201L24.6755 0.958201L28.6715 15.7182L31.9115 0.958201H35.8715L31.0475 19.5342C30.6155 20.9022 30.1955 22.0182 29.7875 22.8822C29.4035 23.7462 28.9595 24.4302 28.4555 24.9342C27.9515 25.4142 27.3755 25.7502 26.7275 25.9422C26.0795 26.1102 25.3115 26.2062 24.4235 26.2302C24.0635 26.2302 23.7995 26.2302 23.6315 26.2302C23.4635 26.2302 23.2115 26.2062 22.8755 26.1582V22.5582ZM37.2271 26.1582C37.0351 26.1582 36.8911 26.1942 36.7951 26.2662C36.6991 26.3622 36.6271 26.5182 36.5791 26.7342C36.5551 26.9502 36.5311 27.2382 36.5071 27.5982C36.5071 27.9822 36.5071 28.4622 36.5071 29.0382H33.1951V22.5582H34.0231C35.1991 22.1502 36.0511 21.2862 36.5791 19.9662C37.1071 18.6462 37.3711 16.7862 37.3711 14.3862V0.958201L48.3871 0.958201V22.5582H50.0431V29.0382H46.7311C46.7311 28.4622 46.7191 27.9822 46.6951 27.5982C46.6951 27.2382 46.6711 26.9502 46.6231 26.7342C46.5991 26.5182 46.5271 26.3622 46.4071 26.2662C46.3111 26.1942 46.1791 26.1582 46.0111 26.1582H37.2271ZM41.0791 14.4582C41.0791 15.3702 41.0071 16.2702 40.8631 17.1582C40.7431 18.0462 40.5631 18.8622 40.3231 19.6062C40.0831 20.3502 39.8071 20.9862 39.4951 21.5142C39.2071 22.0422 38.9071 22.3902 38.5951 22.5582H44.4271V4.5582H41.0791V14.4582ZM55.6549 11.5782H61.0909V15.1782H55.6549V22.5582H62.4949V26.1582H51.6949V0.958201L62.4949 0.958201V4.5582H55.6549V11.5782ZM72.7049 18.8502L75.4049 0.958201L80.9129 0.958201V26.1582H77.1689V8.0862L74.4329 26.1582H70.6889L67.7369 8.3382V26.1582H64.2809V0.958201H69.7889L72.7049 18.8502ZM92.2526 26.1582H88.2926V0.958201L100.785 0.958201V26.1582H96.7526V4.5582H92.2526V26.1582ZM106.596 11.5782H112.032V15.1782H106.596V22.5582H113.436V26.1582H102.636V0.958201L113.436 0.958201V4.5582H106.596V11.5782ZM114.718 0.958201L126.958 0.958201V4.5582H122.818V26.1582H118.858V4.5582H114.718V0.958201ZM132.225 11.2182H134.601C136.593 11.2182 138.069 11.7462 139.029 12.8022C140.013 13.8582 140.505 15.4062 140.505 17.4462V19.9302C140.505 21.9702 140.013 23.5182 139.029 24.5742C138.069 25.6302 136.593 26.1582 134.601 26.1582L128.265 26.1582V0.958201H132.225V11.2182ZM134.601 22.5582C135.225 22.5582 135.705 22.3902 136.041 22.0542C136.377 21.6942 136.545 21.0702 136.545 20.1822V17.1942C136.545 16.3062 136.377 15.6942 136.041 15.3582C135.705 14.9982 135.225 14.8182 134.601 14.8182H132.225V22.5582H134.601ZM141.516 26.1582V22.3422H145.332V25.7622L143.604 29.7582H141.984L143.028 26.1582H141.516ZM151.914 0.958201L164.154 0.958201V4.5582H160.014V26.1582H156.054V4.5582H151.914V0.958201ZM176.393 26.1582H172.397L171.713 21.5862H166.853L166.169 26.1582H162.533L166.565 0.958201H172.361L176.393 26.1582ZM167.357 18.1662H171.173L169.265 5.4222L167.357 18.1662ZM181.76 26.1582H177.8V0.958201H181.76V11.7582H186.26V0.958201L190.292 0.958201V26.1582H186.26V15.3582H181.76V26.1582ZM206.148 22.5582V29.0382H202.836C202.836 28.4622 202.824 27.9822 202.8 27.5982C202.8 27.2382 202.776 26.9502 202.728 26.7342C202.704 26.5182 202.632 26.3622 202.512 26.2662C202.416 26.1942 202.284 26.1582 202.116 26.1582H192V0.958201H195.96V22.5582H200.46V0.958201H204.492V22.5582H206.148ZM211.749 11.5782H217.185V15.1782H211.749V22.5582H218.589V26.1582H207.789V0.958201L218.589 0.958201V4.5582H211.749V11.5782ZM226.351 0.958201C228.415 0.958201 229.903 1.4382 230.815 2.3982C231.751 3.3582 232.219 4.8102 232.219 6.7542V7.6542C232.219 8.9502 232.015 10.0182 231.607 10.8582C231.199 11.6982 230.551 12.3222 229.663 12.7302C230.743 13.1382 231.499 13.8102 231.931 14.7462C232.387 15.6582 232.615 16.7862 232.615 18.1302V20.1822C232.615 22.1262 232.111 23.6142 231.103 24.6462C230.095 25.6542 228.595 26.1582 226.603 26.1582H220.375V0.958201L226.351 0.958201ZM224.335 14.8182V22.5582H226.603C227.275 22.5582 227.779 22.3782 228.115 22.0182C228.475 21.6582 228.655 21.0102 228.655 20.0742V17.8782C228.655 16.7022 228.451 15.8982 228.043 15.4662C227.659 15.0342 227.011 14.8182 226.099 14.8182H224.335ZM224.335 4.5582V11.2182H225.883C226.627 11.2182 227.203 11.0262 227.611 10.6422C228.043 10.2582 228.259 9.5622 228.259 8.5542V7.1502C228.259 6.2382 228.091 5.5782 227.755 5.1702C227.443 4.7622 226.939 4.5582 226.243 4.5582H224.335ZM246.952 26.1582H242.956L242.272 21.5862H237.412L236.728 26.1582H233.092L237.124 0.958201L242.92 0.958201L246.952 26.1582ZM237.916 18.1662H241.732L239.824 5.4222L237.916 18.1662ZM245.324 0.958201L257.564 0.958201V4.5582H253.424V26.1582H249.464V4.5582H245.324V0.958201ZM262.831 11.2182H265.207C267.199 11.2182 268.675 11.7462 269.635 12.8022C270.619 13.8582 271.111 15.4062 271.111 17.4462V19.9302C271.111 21.9702 270.619 23.5182 269.635 24.5742C268.675 25.6302 267.199 26.1582 265.207 26.1582H258.871V0.958201L262.831 0.958201V11.2182ZM265.207 22.5582C265.831 22.5582 266.311 22.3902 266.647 22.0542C266.983 21.6942 267.151 21.0702 267.151 20.1822V17.1942C267.151 16.3062 266.983 15.6942 266.647 15.3582C266.311 14.9982 265.831 14.8182 265.207 14.8182H262.831V22.5582H265.207ZM272.121 26.1582V22.3422H275.937V25.7622L274.209 29.7582H272.589L273.633 26.1582H272.121ZM5.64516 62.1582H1.68516V36.9582H14.1772V62.1582H10.1452V40.5582H5.64516V62.1582ZM18.9089 62.1582H16.0289V36.9582H19.5569V52.0422L25.7129 36.9582H28.5929V62.1582H25.0289V47.8662L18.9089 62.1582ZM29.939 36.9582H42.179V40.5582H38.039V62.1582H34.079V40.5582H29.939V36.9582ZM47.4459 47.2182H49.8219C51.8139 47.2182 53.2899 47.7462 54.2499 48.8022C55.2339 49.8582 55.7259 51.4062 55.7259 53.4462V55.9302C55.7259 57.9702 55.2339 59.5182 54.2499 60.5742C53.2899 61.6302 51.8139 62.1582 49.8219 62.1582H43.4859V36.9582H47.4459V47.2182ZM49.8219 58.5582C50.4459 58.5582 50.9259 58.3902 51.2619 58.0542C51.5979 57.6942 51.7659 57.0702 51.7659 56.1822V53.1942C51.7659 52.3062 51.5979 51.6942 51.2619 51.3582C50.9259 50.9982 50.4459 50.8182 49.8219 50.8182H47.4459V58.5582H49.8219ZM68.4463 36.9582C70.5103 36.9582 71.9983 37.4382 72.9103 38.3982C73.8463 39.3582 74.3143 40.8102 74.3143 42.7542V43.6542C74.3143 44.9502 74.1103 46.0182 73.7023 46.8582C73.2943 47.6982 72.6463 48.3222 71.7583 48.7302C72.8383 49.1382 73.5943 49.8102 74.0263 50.7462C74.4823 51.6582 74.7103 52.7862 74.7103 54.1302V56.1822C74.7103 58.1262 74.2063 59.6142 73.1983 60.6462C72.1903 61.6542 70.6903 62.1582 68.6983 62.1582L62.4703 62.1582V36.9582L68.4463 36.9582ZM66.4303 50.8182V58.5582H68.6983C69.3703 58.5582 69.8743 58.3782 70.2103 58.0182C70.5703 57.6582 70.7503 57.0102 70.7503 56.0742V53.8782C70.7503 52.7022 70.5463 51.8982 70.1383 51.4662C69.7543 51.0342 69.1063 50.8182 68.1943 50.8182H66.4303ZM66.4303 40.5582V47.2182H67.9783C68.7223 47.2182 69.2983 47.0262 69.7063 46.6422C70.1383 46.2582 70.3543 45.5622 70.3543 44.5542V43.1502C70.3543 42.2382 70.1863 41.5782 69.8503 41.1702C69.5383 40.7622 69.0343 40.5582 68.3383 40.5582H66.4303ZM88.3777 44.0142C88.3777 46.6062 87.5017 48.3102 85.7497 49.1262C86.7577 49.5342 87.4417 50.2062 87.8017 51.1422C88.1857 52.0542 88.3777 53.1702 88.3777 54.4902V56.7222C88.3777 57.2262 88.4137 57.6102 88.4857 57.8742C88.5577 58.1142 88.6657 58.2942 88.8097 58.4142C88.9777 58.5102 89.1697 58.5582 89.3857 58.5582C89.6257 58.5582 89.9017 58.5582 90.2137 58.5582H90.4297V62.1582H88.7737C87.5497 62.1822 86.5777 61.8582 85.8577 61.1862C85.1377 60.4902 84.7777 59.6022 84.7777 58.5222V54.3822C84.7777 53.2062 84.5137 52.3782 83.9857 51.8982C83.4577 51.4182 82.7377 51.1782 81.8257 51.1782H80.4577V62.1582H76.4977V36.9582H80.4577V47.5782H82.0057C82.7497 47.5782 83.3977 47.3862 83.9497 47.0022C84.5017 46.6182 84.7777 45.9222 84.7777 44.9142V40.5942C84.7777 39.5142 85.1377 38.6382 85.8577 37.9662C86.5777 37.2702 87.5497 36.9342 88.7737 36.9582H90.3937V40.5582H90.2137C89.9017 40.5582 89.6257 40.5582 89.3857 40.5582C89.1697 40.5582 88.9777 40.6182 88.8097 40.7382C88.6657 40.8342 88.5577 41.0142 88.4857 41.2782C88.4137 41.5182 88.3777 41.8902 88.3777 42.3942V44.0142ZM93.3462 58.5582C93.5622 58.5822 93.7302 58.5942 93.8502 58.5942C93.9702 58.5942 94.1382 58.5942 94.3542 58.5942C94.6662 58.5942 94.9782 58.5582 95.2902 58.4862C95.6022 58.4142 95.8662 58.2822 96.0822 58.0902C96.3222 57.8982 96.4902 57.6342 96.5862 57.2982C96.6822 56.9382 96.6822 56.4702 96.5862 55.8942L91.1862 36.9582H95.1462L99.1422 51.7182L102.382 36.9582H106.342L101.518 55.5342C101.086 56.9022 100.666 58.0182 100.258 58.8822C99.8742 59.7462 99.4302 60.4302 98.9262 60.9342C98.4222 61.4142 97.8462 61.7502 97.1982 61.9422C96.5502 62.1102 95.7822 62.2062 94.8942 62.2302C94.5342 62.2302 94.2702 62.2302 94.1022 62.2302C93.9342 62.2302 93.6822 62.2062 93.3462 62.1582V58.5582ZM118.186 52.7622V56.1102C118.186 58.1502 117.682 59.7222 116.674 60.8262C115.69 61.9062 114.226 62.4462 112.282 62.4462C110.338 62.4462 108.862 61.9062 107.854 60.8262C106.87 59.7222 106.378 58.1502 106.378 56.1102V43.0062C106.378 40.9662 106.87 39.4062 107.854 38.3262C108.862 37.2222 110.338 36.6702 112.282 36.6702C114.226 36.6702 115.69 37.2222 116.674 38.3262C117.682 39.4062 118.186 40.9662 118.186 43.0062V45.4542H114.442V42.7542C114.442 41.8422 114.25 41.2062 113.866 40.8462C113.506 40.4622 113.014 40.2702 112.39 40.2702C111.766 40.2702 111.262 40.4622 110.878 40.8462C110.518 41.2062 110.338 41.8422 110.338 42.7542V56.3622C110.338 57.2742 110.518 57.9102 110.878 58.2702C111.262 58.6302 111.766 58.8102 112.39 58.8102C113.014 58.8102 113.506 58.6302 113.866 58.2702C114.25 57.9102 114.442 57.2742 114.442 56.3622V52.7622H118.186ZM123.77 62.1582H119.81V36.9582H123.77V47.7582H128.27V36.9582H132.302V62.1582H128.27V51.3582H123.77V62.1582ZM138.114 47.2182H140.49C142.482 47.2182 143.958 47.7462 144.918 48.8022C145.902 49.8582 146.394 51.4062 146.394 53.4462V55.9302C146.394 57.9702 145.902 59.5182 144.918 60.5742C143.958 61.6302 142.482 62.1582 140.49 62.1582H134.154V36.9582H138.114V47.2182ZM147.834 36.9582H151.794V62.1582H147.834V36.9582ZM140.49 58.5582C141.114 58.5582 141.594 58.3902 141.93 58.0542C142.266 57.6942 142.434 57.0702 142.434 56.1822V53.1942C142.434 52.3062 142.266 51.6942 141.93 51.3582C141.594 50.9982 141.114 50.8182 140.49 50.8182H138.114V58.5582H140.49ZM157.555 47.5782H162.991V51.1782H157.555V58.5582H164.395V62.1582H153.595V36.9582H164.395V40.5582H157.555V47.5782ZM175.731 62.1582H171.771V36.9582H175.731V47.7582H180.231V36.9582H184.263V62.1582H180.231V51.3582H175.731V62.1582ZM199.579 62.1582H195.583L194.899 57.5862H190.039L189.355 62.1582H185.719L189.751 36.9582H195.547L199.579 62.1582ZM190.543 54.1662H194.359L192.451 41.4222L190.543 54.1662ZM211.983 52.7622V56.1102C211.983 58.1502 211.479 59.7222 210.471 60.8262C209.487 61.9062 208.023 62.4462 206.079 62.4462C204.135 62.4462 202.659 61.9062 201.651 60.8262C200.667 59.7222 200.175 58.1502 200.175 56.1102V43.0062C200.175 40.9662 200.667 39.4062 201.651 38.3262C202.659 37.2222 204.135 36.6702 206.079 36.6702C208.023 36.6702 209.487 37.2222 210.471 38.3262C211.479 39.4062 211.983 40.9662 211.983 43.0062V45.4542H208.239V42.7542C208.239 41.8422 208.047 41.2062 207.663 40.8462C207.303 40.4622 206.811 40.2702 206.187 40.2702C205.563 40.2702 205.059 40.4622 204.675 40.8462C204.315 41.2062 204.135 41.8422 204.135 42.7542V56.3622C204.135 57.2742 204.315 57.9102 204.675 58.2702C205.059 58.6302 205.563 58.8102 206.187 58.8102C206.811 58.8102 207.303 58.6302 207.663 58.2702C208.047 57.9102 208.239 57.2742 208.239 56.3622V52.7622H211.983ZM213.103 36.9582H225.343V40.5582H221.203V62.1582H217.243V40.5582H213.103V36.9582ZM230.15 56.3622C230.15 57.2742 230.33 57.9222 230.69 58.3062C231.074 58.6662 231.578 58.8462 232.202 58.8462C232.826 58.8462 233.318 58.6662 233.678 58.3062C234.062 57.9222 234.254 57.2742 234.254 56.3622V42.7542C234.254 41.8422 234.062 41.2062 233.678 40.8462C233.318 40.4622 232.826 40.2702 232.202 40.2702C231.578 40.2702 231.074 40.4622 230.69 40.8462C230.33 41.2062 230.15 41.8422 230.15 42.7542V56.3622ZM226.19 43.0062C226.19 40.9662 226.706 39.4062 227.738 38.3262C228.77 37.2222 230.258 36.6702 232.202 36.6702C234.146 36.6702 235.634 37.2222 236.666 38.3262C237.698 39.4062 238.214 40.9662 238.214 43.0062V56.1102C238.214 58.1502 237.698 59.7222 236.666 60.8262C235.634 61.9062 234.146 62.4462 232.202 62.4462C230.258 62.4462 228.77 61.9062 227.738 60.8262C226.706 59.7222 226.19 58.1502 226.19 56.1102V43.0062ZM242.711 62.1582H239.831V36.9582H243.359V52.0422L249.515 36.9582H252.395V62.1582H248.831V47.8662L242.711 62.1582ZM246.167 33.2862C246.623 33.2862 247.007 33.1662 247.319 32.9262C247.631 32.6862 247.799 32.2542 247.823 31.6302H250.703C250.655 33.0702 250.235 34.1742 249.443 34.9422C248.675 35.7102 247.583 36.0942 246.167 36.0942C244.727 36.0942 243.623 35.7102 242.855 34.9422C242.087 34.1742 241.655 33.0702 241.559 31.6302H244.475C244.523 32.2542 244.691 32.6862 244.979 32.9262C245.291 33.1662 245.687 33.2862 246.167 33.2862ZM266.303 44.0142C266.303 46.6062 265.427 48.3102 263.675 49.1262C264.683 49.5342 265.367 50.2062 265.727 51.1422C266.111 52.0542 266.303 53.1702 266.303 54.4902V56.7222C266.303 57.2262 266.339 57.6102 266.411 57.8742C266.483 58.1142 266.591 58.2942 266.735 58.4142C266.903 58.5102 267.095 58.5582 267.311 58.5582C267.551 58.5582 267.827 58.5582 268.139 58.5582H268.355V62.1582H266.699C265.475 62.1822 264.503 61.8582 263.783 61.1862C263.063 60.4902 262.703 59.6022 262.703 58.5222V54.3822C262.703 53.2062 262.439 52.3782 261.911 51.8982C261.383 51.4182 260.663 51.1782 259.751 51.1782H258.383V62.1582H254.423V36.9582H258.383V47.5782H259.931C260.675 47.5782 261.323 47.3862 261.875 47.0022C262.427 46.6182 262.703 45.9222 262.703 44.9142V40.5942C262.703 39.5142 263.063 38.6382 263.783 37.9662C264.503 37.2702 265.475 36.9342 266.699 36.9582H268.319V40.5582H268.139C267.827 40.5582 267.551 40.5582 267.311 40.5582C267.095 40.5582 266.903 40.6182 266.735 40.7382C266.591 40.8342 266.483 41.0142 266.411 41.2782C266.339 41.5182 266.303 41.8902 266.303 42.3942V44.0142ZM272.983 62.1582H270.103V36.9582H273.631V52.0422L279.787 36.9582H282.667V62.1582H279.103V47.8662L272.983 62.1582ZM3.54563 98.1582H0.665625V72.9582H4.19363V88.0422L10.3496 72.9582H13.2296V98.1582H9.66563V83.8662L3.54563 98.1582ZM24.6295 98.1582H20.6695V72.9582H24.6295V83.7582H29.1295V72.9582H33.1615V98.1582H29.1295V87.3582H24.6295V98.1582ZM48.4773 98.1582H44.4813L43.7973 93.5862H38.9373L38.2533 98.1582H34.6173L38.6493 72.9582H44.4453L48.4773 98.1582ZM39.4413 90.1662H43.2573L41.3493 77.4222L39.4413 90.1662ZM60.8813 88.7622V92.1102C60.8813 94.1502 60.3773 95.7222 59.3693 96.8262C58.3853 97.9062 56.9213 98.4462 54.9773 98.4462C53.0333 98.4462 51.5573 97.9062 50.5493 96.8262C49.5653 95.7222 49.0733 94.1502 49.0733 92.1102V79.0062C49.0733 76.9662 49.5653 75.4062 50.5493 74.3262C51.5573 73.2222 53.0333 72.6702 54.9773 72.6702C56.9213 72.6702 58.3853 73.2222 59.3693 74.3262C60.3773 75.4062 60.8813 76.9662 60.8813 79.0062V81.4542H57.1373V78.7542C57.1373 77.8422 56.9453 77.2062 56.5613 76.8462C56.2013 76.4622 55.7093 76.2702 55.0853 76.2702C54.4613 76.2702 53.9573 76.4622 53.5732 76.8462C53.2132 77.2062 53.0332 77.8422 53.0332 78.7542V92.3622C53.0332 93.2742 53.2132 93.9102 53.5732 94.2702C53.9573 94.6302 54.4613 94.8102 55.0853 94.8102C55.7093 94.8102 56.2013 94.6302 56.5613 94.2702C56.9453 93.9102 57.1373 93.2742 57.1373 92.3622V88.7622H60.8813ZM69.6695 86.4582C69.6695 88.4742 69.5735 90.2262 69.3815 91.7142C69.1895 93.1782 68.8295 94.3902 68.3015 95.3502C67.7735 96.3102 67.0415 97.0182 66.1055 97.4742C65.1935 97.9302 64.0175 98.1582 62.5775 98.1582H62.1455V94.5582H62.6135C63.3335 94.5582 63.9095 94.3662 64.3415 93.9822C64.7975 93.5982 65.1455 93.0582 65.3855 92.3622C65.6255 91.6422 65.7815 90.7782 65.8535 89.7702C65.9255 88.7622 65.9615 87.6342 65.9615 86.3862V72.9582H76.9775V98.1582H73.0175V76.5582H69.6695V86.4582ZM92.2468 98.1582H88.2508L87.5668 93.5862H82.7068L82.0228 98.1582H78.3868L82.4188 72.9582H88.2148L92.2468 98.1582ZM83.2108 90.1662H87.0268L85.1188 77.4222L83.2108 90.1662ZM99.3059 80.3742C99.3059 81.5502 99.5579 82.3782 100.062 82.8582C100.59 83.3382 101.31 83.5782 102.222 83.5782V72.9582H106.182V83.5782C107.094 83.5782 107.802 83.3382 108.306 82.8582C108.834 82.3782 109.098 81.5502 109.098 80.3742V76.5942C109.074 75.5142 109.422 74.6382 110.142 73.9662C110.886 73.2702 111.87 72.9342 113.094 72.9582H114.786V76.5582H114.534C114.222 76.5582 113.946 76.5582 113.706 76.5582C113.49 76.5582 113.298 76.6182 113.13 76.7382C112.986 76.8342 112.878 77.0142 112.806 77.2782C112.734 77.5182 112.698 77.8902 112.698 78.3942V80.0142C112.698 82.6062 111.834 84.3102 110.106 85.1262C111.114 85.5342 111.798 86.2062 112.158 87.1422C112.542 88.0542 112.734 89.1702 112.734 90.4902V92.7222C112.734 93.2262 112.77 93.6102 112.842 93.8742C112.914 94.1142 113.022 94.2942 113.166 94.4142C113.334 94.5102 113.526 94.5582 113.742 94.5582C113.982 94.5582 114.258 94.5582 114.57 94.5582H114.786V98.1582H113.13C111.906 98.1822 110.934 97.8582 110.214 97.1862C109.494 96.4902 109.134 95.6022 109.134 94.5222V90.3822C109.134 89.2062 108.87 88.3782 108.342 87.8982C107.814 87.4182 107.094 87.1782 106.182 87.1782V98.1582H102.222V87.1782C101.31 87.1782 100.59 87.4182 100.062 87.8982C99.5339 88.3782 99.2699 89.2062 99.2699 90.3822V94.5222C99.2699 95.6022 98.9099 96.4902 98.1899 97.1862C97.4699 97.8582 96.4979 98.1822 95.2739 98.1582H93.6179V94.5582H93.8339C94.1459 94.5582 94.4099 94.5582 94.6259 94.5582C94.8659 94.5582 95.0579 94.5102 95.2019 94.4142C95.3699 94.2942 95.4899 94.1142 95.5619 93.8742C95.6339 93.6102 95.6699 93.2262 95.6699 92.7222V90.4902C95.6699 89.1702 95.8499 88.0542 96.2099 87.1422C96.5939 86.2062 97.2899 85.5342 98.2979 85.1262C96.5699 84.3102 95.7059 82.6062 95.7059 80.0142V78.3942C95.7059 77.8902 95.6699 77.5182 95.5979 77.2782C95.5259 77.0142 95.4059 76.8342 95.2379 76.7382C95.0939 76.6182 94.9019 76.5582 94.6619 76.5582C94.4459 76.5582 94.1819 76.5582 93.8699 76.5582H93.6179V72.9582H95.3099C96.5339 72.9342 97.5059 73.2702 98.2259 73.9662C98.9699 74.6382 99.3299 75.5142 99.3059 76.5942V80.3742ZM120.249 98.1582C120.057 98.1582 119.913 98.1942 119.817 98.2662C119.721 98.3622 119.649 98.5182 119.601 98.7342C119.577 98.9502 119.553 99.2382 119.529 99.5982C119.529 99.9822 119.529 100.462 119.529 101.038H116.217V94.5582H117.045C118.221 94.1502 119.073 93.2862 119.601 91.9662C120.129 90.6462 120.393 88.7862 120.393 86.3862V72.9582H131.409V94.5582H133.065V101.038H129.753C129.753 100.462 129.741 99.9822 129.717 99.5982C129.717 99.2382 129.693 98.9502 129.645 98.7342C129.621 98.5182 129.549 98.3622 129.429 98.2662C129.333 98.1942 129.201 98.1582 129.033 98.1582H120.249ZM124.101 86.4582C124.101 87.3702 124.029 88.2702 123.885 89.1582C123.765 90.0462 123.585 90.8622 123.345 91.6062C123.105 92.3502 122.829 92.9862 122.517 93.5142C122.229 94.0422 121.929 94.3902 121.617 94.5582H127.449V76.5582H124.101V86.4582ZM147.829 98.1582H143.833L143.149 93.5862H138.289L137.605 98.1582H133.969L138.001 72.9582H143.797L147.829 98.1582ZM138.793 90.1662H142.609L140.701 77.4222L138.793 90.1662ZM146.201 72.9582H158.441V76.5582H154.301V98.1582H150.341V76.5582H146.201V72.9582ZM163.708 83.2182H166.084C168.076 83.2182 169.552 83.7462 170.512 84.8022C171.496 85.8582 171.988 87.4062 171.988 89.4462V91.9302C171.988 93.9702 171.496 95.5182 170.512 96.5742C169.552 97.6302 168.076 98.1582 166.084 98.1582H159.748V72.9582H163.708V83.2182ZM166.084 94.5582C166.708 94.5582 167.188 94.3902 167.524 94.0542C167.86 93.6942 168.028 93.0702 168.028 92.1822V89.1942C168.028 88.3062 167.86 87.6942 167.524 87.3582C167.188 86.9982 166.708 86.8182 166.084 86.8182H163.708V94.5582H166.084ZM184.842 88.7622V92.1102C184.842 94.1502 184.338 95.7222 183.33 96.8262C182.346 97.9062 180.882 98.4462 178.938 98.4462C176.994 98.4462 175.518 97.9062 174.51 96.8262C173.526 95.7222 173.034 94.1502 173.034 92.1102V79.0062C173.034 76.9662 173.526 75.4062 174.51 74.3262C175.518 73.2222 176.994 72.6702 178.938 72.6702C180.882 72.6702 182.346 73.2222 183.33 74.3262C184.338 75.4062 184.842 76.9662 184.842 79.0062V81.4542H181.098V78.7542C181.098 77.8422 180.906 77.2062 180.522 76.8462C180.162 76.4622 179.67 76.2702 179.046 76.2702C178.422 76.2702 177.918 76.4622 177.534 76.8462C177.174 77.2062 176.994 77.8422 176.994 78.7542V92.3622C176.994 93.2742 177.174 93.9102 177.534 94.2702C177.918 94.6302 178.422 94.8102 179.046 94.8102C179.67 94.8102 180.162 94.6302 180.522 94.2702C180.906 93.9102 181.098 93.2742 181.098 92.3622V88.7622H184.842ZM187.834 91.2102C187.834 89.8902 188.014 88.7742 188.374 87.8622C188.758 86.9262 189.454 86.2542 190.462 85.8462C188.734 85.0302 187.87 83.3262 187.87 80.7342V78.7542C187.87 76.8102 188.326 75.3582 189.238 74.3982C190.174 73.4382 191.674 72.9582 193.738 72.9582L199.714 72.9582V98.1582H195.754V87.8982H194.386C193.474 87.8982 192.814 88.1382 192.406 88.6182C191.998 89.0982 191.794 89.9262 191.794 91.1022V94.5222C191.794 95.6022 191.47 96.4782 190.822 97.1502C190.174 97.8222 189.058 98.1582 187.474 98.1582H186.178V94.5582H186.394C186.85 94.5582 187.198 94.4622 187.438 94.2702C187.702 94.0542 187.834 93.5382 187.834 92.7222V91.2102ZM193.846 76.5582C193.15 76.5582 192.634 76.7622 192.298 77.1702C191.986 77.5782 191.83 78.2382 191.83 79.1502V81.6342C191.83 82.6422 192.034 83.3382 192.442 83.7222C192.874 84.1062 193.462 84.2982 194.206 84.2982H195.754V76.5582L193.846 76.5582ZM206.599 72.9582H218.839V76.5582H214.699V98.1582H210.739V76.5582H206.599V72.9582ZM224.106 83.5782H229.542V87.1782H224.106V94.5582H230.946V98.1582H220.146V72.9582H230.946V76.5582H224.106V83.5782ZM236.692 98.1582H232.732V72.9582H245.224V98.1582H241.192V76.5582H236.692V98.1582ZM254.24 86.4582C254.24 88.4742 254.144 90.2262 253.952 91.7142C253.76 93.1782 253.4 94.3902 252.872 95.3502C252.344 96.3102 251.612 97.0182 250.676 97.4742C249.764 97.9302 248.588 98.1582 247.148 98.1582H246.716V94.5582H247.184C247.904 94.5582 248.48 94.3662 248.912 93.9822C249.368 93.5982 249.716 93.0582 249.956 92.3622C250.196 91.6422 250.352 90.7782 250.424 89.7702C250.496 88.7622 250.532 87.6342 250.532 86.3862V72.9582H261.548V98.1582H257.588V76.5582H254.24V86.4582ZM267.205 92.3622C267.205 93.2742 267.385 93.9222 267.745 94.3062C268.129 94.6662 268.633 94.8462 269.257 94.8462C269.881 94.8462 270.373 94.6662 270.733 94.3062C271.117 93.9222 271.309 93.2742 271.309 92.3622V78.7542C271.309 77.8422 271.117 77.2062 270.733 76.8462C270.373 76.4622 269.881 76.2702 269.257 76.2702C268.633 76.2702 268.129 76.4622 267.745 76.8462C267.385 77.2062 267.205 77.8422 267.205 78.7542V92.3622ZM263.245 79.0062C263.245 76.9662 263.761 75.4062 264.793 74.3262C265.825 73.2222 267.313 72.6702 269.257 72.6702C271.201 72.6702 272.689 73.2222 273.721 74.3262C274.753 75.4062 275.269 76.9662 275.269 79.0062V92.1102C275.269 94.1502 274.753 95.7222 273.721 96.8262C272.689 97.9062 271.201 98.4462 269.257 98.4462C267.313 98.4462 265.825 97.9062 264.793 96.8262C263.761 95.7222 263.245 94.1502 263.245 92.1102V79.0062ZM279.766 98.1582H276.886V72.9582H280.414V88.0422L286.57 72.9582H289.45V98.1582H285.886V83.8662L279.766 98.1582ZM283.222 69.2862C283.678 69.2862 284.062 69.1662 284.374 68.9262C284.686 68.6862 284.854 68.2542 284.878 67.6302H287.758C287.71 69.0702 287.29 70.1742 286.498 70.9422C285.73 71.7102 284.638 72.0942 283.222 72.0942C281.782 72.0942 280.678 71.7102 279.91 70.9422C279.142 70.1742 278.71 69.0702 278.614 67.6302H281.53C281.578 68.2542 281.746 68.6862 282.034 68.9262C282.346 69.1662 282.742 69.2862 283.222 69.2862ZM86.9206 134.158H82.9246L82.2406 129.586H77.3806L76.6966 134.158H73.0606L77.0926 108.958H82.8886L86.9206 134.158ZM77.8846 126.166H81.7006L79.7926 113.422L77.8846 126.166ZM85.2925 108.958H97.5325V112.558H93.3925V134.158H89.4325V112.558H85.2925V108.958ZM107.263 126.85L109.963 108.958H115.471V134.158H111.727V116.086L108.991 134.158H105.247L102.295 116.338V134.158H98.8395V108.958H104.347L107.263 126.85ZM121.113 128.362C121.113 129.274 121.293 129.922 121.653 130.306C122.037 130.666 122.541 130.846 123.165 130.846C123.789 130.846 124.281 130.666 124.641 130.306C125.025 129.922 125.217 129.274 125.217 128.362V114.754C125.217 113.842 125.025 113.206 124.641 112.846C124.281 112.462 123.789 112.27 123.165 112.27C122.541 112.27 122.037 112.462 121.653 112.846C121.293 113.206 121.113 113.842 121.113 114.754V128.362ZM117.153 115.006C117.153 112.966 117.669 111.406 118.701 110.326C119.733 109.222 121.221 108.67 123.165 108.67C125.109 108.67 126.597 109.222 127.629 110.326C128.661 111.406 129.177 112.966 129.177 115.006V128.11C129.177 130.15 128.661 131.722 127.629 132.826C126.597 133.906 125.109 134.446 123.165 134.446C121.221 134.446 119.733 133.906 118.701 132.826C117.669 131.722 117.153 130.15 117.153 128.11V115.006ZM142.602 124.762V128.11C142.602 130.15 142.098 131.722 141.09 132.826C140.106 133.906 138.642 134.446 136.698 134.446C134.754 134.446 133.278 133.906 132.27 132.826C131.286 131.722 130.794 130.15 130.794 128.11V115.006C130.794 112.966 131.286 111.406 132.27 110.326C133.278 109.222 134.754 108.67 136.698 108.67C138.642 108.67 140.106 109.222 141.09 110.326C142.098 111.406 142.602 112.966 142.602 115.006V117.454H138.858V114.754C138.858 113.842 138.666 113.206 138.282 112.846C137.922 112.462 137.43 112.27 136.806 112.27C136.182 112.27 135.678 112.462 135.294 112.846C134.934 113.206 134.754 113.842 134.754 114.754V128.362C134.754 129.274 134.934 129.91 135.294 130.27C135.678 130.63 136.182 130.81 136.806 130.81C137.43 130.81 137.922 130.63 138.282 130.27C138.666 129.91 138.858 129.274 138.858 128.362V124.762H142.602ZM151.75 132.358H149.878C147.886 132.358 146.398 131.83 145.414 130.774C144.454 129.718 143.974 128.17 143.974 126.13V116.986C143.974 114.946 144.454 113.398 145.414 112.342C146.398 111.286 147.886 110.758 149.878 110.758H151.75V108.958H155.71V110.758H157.582C159.574 110.758 161.05 111.286 162.01 112.342C162.994 113.398 163.486 114.946 163.486 116.986V126.13C163.486 128.17 162.994 129.718 162.01 130.774C161.05 131.83 159.574 132.358 157.582 132.358H155.71V134.158H151.75V132.358ZM155.71 114.358V128.758H157.582C158.206 128.758 158.686 128.59 159.022 128.254C159.358 127.918 159.526 127.294 159.526 126.382V116.734C159.526 115.822 159.358 115.198 159.022 114.862C158.686 114.526 158.206 114.358 157.582 114.358H155.71ZM149.878 114.358C149.254 114.358 148.774 114.526 148.438 114.862C148.102 115.198 147.934 115.822 147.934 116.734V126.382C147.934 127.294 148.102 127.918 148.438 128.254C148.774 128.59 149.254 128.758 149.878 128.758H151.75V114.358H149.878ZM168.999 119.578H174.435V123.178H168.999V130.558H175.839V134.158H165.039V108.958H175.839V112.558H168.999V119.578ZM183.457 108.958C185.449 108.958 186.925 109.486 187.885 110.542C188.869 111.598 189.361 113.146 189.361 115.186V118.462C189.361 120.502 188.869 122.05 187.885 123.106C186.925 124.162 185.449 124.69 183.457 124.69H181.585V134.158H177.625V108.958H183.457ZM181.585 112.558V121.09H183.457C184.081 121.09 184.561 120.922 184.897 120.586C185.233 120.25 185.401 119.626 185.401 118.714V114.934C185.401 114.022 185.233 113.398 184.897 113.062C184.561 112.726 184.081 112.558 183.457 112.558H181.585ZM194.414 128.362C194.414 129.274 194.594 129.922 194.954 130.306C195.338 130.666 195.842 130.846 196.466 130.846C197.09 130.846 197.582 130.666 197.942 130.306C198.326 129.922 198.518 129.274 198.518 128.362V114.754C198.518 113.842 198.326 113.206 197.942 112.846C197.582 112.462 197.09 112.27 196.466 112.27C195.842 112.27 195.338 112.462 194.954 112.846C194.594 113.206 194.414 113.842 194.414 114.754V128.362ZM190.454 115.006C190.454 112.966 190.97 111.406 192.002 110.326C193.034 109.222 194.522 108.67 196.466 108.67C198.41 108.67 199.898 109.222 200.93 110.326C201.962 111.406 202.478 112.966 202.478 115.006V128.11C202.478 130.15 201.962 131.722 200.93 132.826C199.898 133.906 198.41 134.446 196.466 134.446C194.522 134.446 193.034 133.906 192.002 132.826C190.97 131.722 190.454 130.15 190.454 128.11V115.006ZM206.975 134.158H204.095V108.958H207.623V124.042L213.779 108.958H216.659V134.158H213.095V119.866L206.975 134.158ZM210.431 105.286C210.887 105.286 211.271 105.166 211.583 104.926C211.895 104.686 212.063 104.254 212.087 103.63H214.967C214.919 105.07 214.499 106.174 213.707 106.942C212.939 107.71 211.847 108.094 210.431 108.094C208.991 108.094 207.887 107.71 207.119 106.942C206.351 106.174 205.919 105.07 205.823 103.63H208.739C208.787 104.254 208.955 104.686 209.243 104.926C209.555 105.166 209.951 105.286 210.431 105.286Z" fill="#5A2024"></path></svg> 