<?xml version="1.0" encoding="UTF-8"?> <svg xmlns="http://www.w3.org/2000/svg" width="318" height="219" viewBox="0 0 318 219" fill="none"><path d="M305.561 30.4514C300.808 31.1362 295.839 35.0508 291.916 41.1666C290.889 42.7848 289.989 44.1421 289.906 44.1964C289.822 44.2507 288.883 43.0797 287.836 41.5621C283.995 36.2488 279.05 32.5735 274.365 31.5808C272.987 31.2888 271.263 31.1034 270.572 31.137C268.422 31.2575 265.673 32.5108 264.213 33.9652C261.131 37.1278 260.415 41.1875 261.862 46.9294C262.55 49.6308 263.185 50.8812 265.567 54.5894C269.836 61.1094 275.22 66.2815 283.918 72.1199L287.728 74.691L289.232 74.2178C295.054 72.3918 306.927 63.2449 311.522 57.0193C318.657 47.3004 319.243 37.0579 312.97 32.3453C311.177 30.9574 307.823 30.1388 305.561 30.4514Z" fill="#D92F88"></path><path d="M288.891 137.932H281.322L286.037 132.739C286.687 132.002 287.136 131.449 287.381 131.081C287.86 130.345 288.099 129.645 288.099 128.982C288.099 128.196 287.829 127.539 287.289 127.011C286.761 126.483 286.08 126.22 285.245 126.22C284.361 126.22 283.655 126.52 283.127 127.122C282.636 127.662 282.397 128.331 282.409 129.129H281.599C281.586 128.098 281.912 127.239 282.575 126.551C283.262 125.839 284.171 125.483 285.3 125.483C286.356 125.483 287.228 125.821 287.915 126.496C288.603 127.159 288.946 127.987 288.946 128.982C288.946 129.853 288.652 130.694 288.062 131.505C287.78 131.898 287.418 132.34 286.976 132.831L283.035 137.195H288.891V137.932ZM292.461 126.975C293.284 125.98 294.247 125.483 295.352 125.483C296.457 125.483 297.421 125.98 298.243 126.975C299.287 128.215 299.809 129.823 299.809 131.799C299.809 133.776 299.287 135.384 298.243 136.624C297.396 137.631 296.433 138.134 295.352 138.134C294.272 138.134 293.308 137.631 292.461 136.624C291.417 135.384 290.896 133.776 290.896 131.799C290.896 129.823 291.417 128.215 292.461 126.975ZM293.069 136.145C293.744 136.98 294.505 137.398 295.352 137.398C296.199 137.398 296.96 136.98 297.636 136.145C298.52 135.053 298.962 133.604 298.962 131.799C298.962 129.995 298.52 128.546 297.636 127.453C296.973 126.631 296.212 126.22 295.352 126.22C294.493 126.22 293.732 126.631 293.069 127.453C292.185 128.546 291.743 129.995 291.743 131.799C291.743 133.604 292.185 135.053 293.069 136.145Z" fill="#333333"></path><path d="M239.195 137.932V126.385H237.28L237.648 125.649H240.006V137.932H239.195ZM248.824 138.134L248.198 137.655L250.923 133.77C250.395 133.991 249.837 134.101 249.247 134.101C248.02 134.101 247.001 133.696 246.19 132.886C245.38 132.076 244.975 131.05 244.975 129.811C244.975 128.571 245.386 127.539 246.209 126.717C247.031 125.894 248.081 125.483 249.358 125.483C250.61 125.483 251.647 125.894 252.47 126.717C253.292 127.539 253.704 128.577 253.704 129.829C253.704 130.725 253.44 131.56 252.912 132.333L248.824 138.134ZM251.844 127.251C251.181 126.563 250.346 126.22 249.339 126.22C248.333 126.22 247.492 126.563 246.816 127.251C246.154 127.938 245.822 128.785 245.822 129.792C245.822 130.836 246.154 131.695 246.816 132.37C247.492 133.033 248.333 133.365 249.339 133.365C250.358 133.365 251.199 133.027 251.862 132.352C252.525 131.677 252.857 130.823 252.857 129.792C252.857 128.773 252.519 127.926 251.844 127.251Z" fill="#333333"></path><path d="M193.156 137.932V126.385H191.241L191.609 125.649H193.966V137.932H193.156ZM204.829 131.56C205.467 131.805 205.958 132.211 206.302 132.775C206.658 133.34 206.836 133.972 206.836 134.672C206.836 135.716 206.492 136.557 205.805 137.195C205.117 137.821 204.276 138.134 203.282 138.134C202.287 138.134 201.446 137.821 200.759 137.195C200.071 136.557 199.728 135.716 199.728 134.672C199.728 133.972 199.9 133.34 200.243 132.775C200.599 132.211 201.097 131.805 201.735 131.56C200.593 130.958 200.022 130.013 200.022 128.724C200.022 127.803 200.335 127.036 200.962 126.422C201.588 125.796 202.361 125.483 203.282 125.483C204.203 125.483 204.976 125.796 205.602 126.422C206.228 127.036 206.541 127.803 206.541 128.724C206.541 130.013 205.971 130.958 204.829 131.56ZM201.569 130.51C202.048 130.977 202.619 131.21 203.282 131.21C203.945 131.21 204.51 130.977 204.976 130.51C205.455 130.031 205.694 129.436 205.694 128.724C205.694 128 205.461 127.404 204.994 126.938C204.528 126.459 203.957 126.22 203.282 126.22C202.607 126.22 202.036 126.459 201.569 126.938C201.103 127.404 200.869 128 200.869 128.724C200.869 129.436 201.103 130.031 201.569 130.51ZM201.311 136.624C201.815 137.14 202.472 137.398 203.282 137.398C204.092 137.398 204.743 137.14 205.234 136.624C205.737 136.096 205.989 135.446 205.989 134.672C205.989 133.862 205.737 133.199 205.234 132.683C204.731 132.168 204.08 131.91 203.282 131.91C202.484 131.91 201.833 132.168 201.33 132.683C200.827 133.199 200.575 133.862 200.575 134.672C200.575 135.446 200.82 136.096 201.311 136.624Z" fill="#333333"></path><path d="M147.117 137.932V126.385H145.202L145.57 125.649H147.927V137.932H147.117ZM152.602 137.674L160.558 126.385H153.099V125.649H161.994L153.21 138.134L152.602 137.674Z" fill="#333333"></path><path d="M101.078 137.932V126.385H99.1629L99.5312 125.649H101.888V137.932H101.078ZM111.701 125.483L112.327 125.962L109.602 129.829C110.13 129.608 110.688 129.497 111.277 129.497C112.505 129.497 113.524 129.903 114.334 130.713C115.145 131.523 115.55 132.548 115.55 133.788C115.55 135.028 115.138 136.066 114.316 136.9C113.493 137.723 112.444 138.134 111.167 138.134C109.915 138.134 108.877 137.729 108.055 136.919C107.232 136.096 106.821 135.047 106.821 133.77C106.821 132.874 107.085 132.039 107.613 131.265L111.701 125.483ZM108.662 136.385C109.338 137.06 110.179 137.398 111.185 137.398C112.192 137.398 113.027 137.054 113.69 136.366C114.365 135.679 114.703 134.826 114.703 133.807C114.703 132.763 114.371 131.91 113.708 131.247C113.045 130.572 112.204 130.234 111.185 130.234C110.166 130.234 109.325 130.572 108.662 131.247C107.999 131.922 107.668 132.775 107.668 133.807C107.668 134.838 107.999 135.697 108.662 136.385Z" fill="#333333"></path><path d="M55.039 137.932V126.385H53.1238L53.4921 125.649H55.8493V137.932H55.039ZM68.7741 125.649V126.385H64.6491L63.6178 129.7C63.9124 129.626 64.1887 129.59 64.4465 129.59C65.7356 129.59 66.7668 129.989 67.5403 130.787C68.326 131.585 68.7188 132.603 68.7188 133.843C68.7188 135.133 68.2953 136.17 67.4482 136.956C66.6134 137.741 65.5821 138.134 64.3544 138.134C62.6848 138.134 61.4571 137.459 60.6714 136.109L61.3896 135.814C62.1016 136.87 63.096 137.398 64.3728 137.398C65.3918 137.398 66.2266 137.066 66.8773 136.403C67.5403 135.74 67.8717 134.893 67.8717 133.862C67.8717 132.818 67.5464 131.971 66.8957 131.321C66.2573 130.658 65.4286 130.326 64.4097 130.326C63.7099 130.326 63.0715 130.504 62.4945 130.86L64.0782 125.649H68.7741Z" fill="#333333"></path><path d="M8.99997 137.932V126.385H7.08478L7.45309 125.649H9.81024V137.932H8.99997ZM21.7222 125.244V134.856H23.4348V135.593H21.7222V137.932H20.9119V135.593H14.3008L21.7222 125.244ZM15.7372 134.856H20.9119V127.638L15.7372 134.856Z" fill="#333333"></path><path d="M282.805 15.4707V3.18773H285.494C286.549 3.18773 287.378 3.4701 287.98 4.03483C288.581 4.58729 288.882 5.33004 288.882 6.26308C288.882 7.46621 288.403 8.36242 287.446 8.9517C288.231 9.07447 288.851 9.41822 289.306 9.98296C289.76 10.5477 289.987 11.2291 289.987 12.0271C289.987 13.0829 289.631 13.9238 288.919 14.5499C288.219 15.1638 287.304 15.4707 286.175 15.4707H282.805ZM283.615 3.92434V8.74914H285.567C286.267 8.74914 286.826 8.57726 287.243 8.23351C287.783 7.79154 288.053 7.16542 288.053 6.35515C288.053 5.5326 287.777 4.89421 287.225 4.43997C286.783 4.09621 286.101 3.92434 285.18 3.92434H283.615ZM283.615 9.48575V14.7341H285.678C286.058 14.7341 286.359 14.728 286.58 14.7157C286.801 14.6911 287.083 14.6236 287.427 14.5131C287.783 14.4026 288.09 14.2307 288.348 13.9975C288.876 13.531 289.14 12.9048 289.14 12.1191C289.14 11.0019 288.704 10.2408 287.832 9.83564C287.304 9.60238 286.537 9.48575 285.53 9.48575H283.615ZM302.476 4.62412V5.6922C301.948 5.07836 301.322 4.6057 300.597 4.27423C299.885 3.93048 299.13 3.7586 298.332 3.7586C296.773 3.7586 295.466 4.30492 294.41 5.39756C293.354 6.4902 292.826 7.82223 292.826 9.39367C292.826 10.2653 292.992 11.0633 293.323 11.7877C293.667 12.512 294.109 13.1013 294.649 13.5555C295.202 13.9975 295.797 14.3412 296.436 14.5868C297.074 14.82 297.712 14.9367 298.351 14.9367C299.038 14.9367 299.75 14.7893 300.487 14.4947C301.223 14.1878 301.886 13.7151 302.476 13.0767V14.1448C301.322 15.1638 299.959 15.6733 298.388 15.6733C296.571 15.6733 295.048 15.0533 293.821 13.8133C292.593 12.5734 291.979 11.0879 291.979 9.35684C291.979 7.58897 292.599 6.0912 293.839 4.86352C295.079 3.63583 296.583 3.02199 298.351 3.02199C299.971 3.02199 301.346 3.55603 302.476 4.62412Z" fill="#333333"></path><path d="M246.607 4.62412V5.6922C246.08 5.07836 245.453 4.6057 244.729 4.27423C244.017 3.93048 243.262 3.7586 242.464 3.7586C240.905 3.7586 239.597 4.30492 238.542 5.39756C237.486 6.4902 236.958 7.82223 236.958 9.39367C236.958 10.2653 237.124 11.0633 237.455 11.7877C237.799 12.512 238.241 13.1013 238.781 13.5555C239.333 13.9975 239.929 14.3412 240.567 14.5868C241.206 14.82 241.844 14.9367 242.482 14.9367C243.17 14.9367 243.882 14.7893 244.619 14.4947C245.355 14.1878 246.018 13.7151 246.607 13.0767V14.1448C245.453 15.1638 244.091 15.6733 242.519 15.6733C240.702 15.6733 239.18 15.0533 237.952 13.8133C236.725 12.5734 236.111 11.0879 236.111 9.35684C236.111 7.58897 236.731 6.0912 237.971 4.86352C239.211 3.63583 240.715 3.02199 242.482 3.02199C244.103 3.02199 245.478 3.55603 246.607 4.62412ZM249.254 15.4707V3.18773H255.166V3.92434H250.065V8.47291H252.201C255.024 8.47291 256.436 9.59624 256.436 11.8429C256.436 12.8619 256.105 13.7213 255.442 14.421C254.791 15.1208 253.797 15.4707 252.459 15.4707H249.254ZM250.065 9.20952V14.7341H252.127C253.367 14.7341 254.263 14.464 254.816 13.9238C255.331 13.4327 255.589 12.7391 255.589 11.8429C255.589 10.7748 255.166 10.0198 254.319 9.57782C253.827 9.33229 253.048 9.20952 251.98 9.20952H250.065Z" fill="#333333"></path><path d="M191.851 3.18773H200.911V15.4707H200.101V3.92434H192.661V15.4707H191.851V3.18773ZM210.006 3.92434H206.82V15.4707H206.01V3.92434H202.824V3.18773H210.006V3.92434Z" fill="#333333"></path><path d="M153.221 15.4707V9.94613C151.846 10.0321 150.802 10.075 150.09 10.075C148.973 10.075 148.138 9.93999 147.586 9.6699C147.045 9.41208 146.695 9.07447 146.536 8.65706C146.376 8.22737 146.296 7.65036 146.296 6.92603V3.18773H147.107V6.92603C147.107 7.18384 147.113 7.37413 147.125 7.4969C147.137 7.61967 147.168 7.80382 147.217 8.04936C147.266 8.28262 147.365 8.48518 147.512 8.65706C147.659 8.81666 147.856 8.9517 148.101 9.06219C148.482 9.24635 149.231 9.33842 150.348 9.33842C151.195 9.33842 152.153 9.29545 153.221 9.20952V3.18773H154.031V15.4707H153.221ZM163.129 3.92434H159.944V15.4707H159.133V3.92434H155.947V3.18773H163.129V3.92434Z" fill="#333333"></path><path d="M109.292 4.62412V5.6922C108.764 5.07836 108.138 4.6057 107.413 4.27423C106.701 3.93048 105.946 3.7586 105.148 3.7586C103.589 3.7586 102.282 4.30492 101.226 5.39756C100.17 6.4902 99.6421 7.82223 99.6421 9.39367C99.6421 10.2653 99.8078 11.0633 100.139 11.7877C100.483 12.512 100.925 13.1013 101.465 13.5555C102.018 13.9975 102.613 14.3412 103.251 14.5868C103.89 14.82 104.528 14.9367 105.167 14.9367C105.854 14.9367 106.566 14.7893 107.303 14.4947C108.039 14.1878 108.702 13.7151 109.292 13.0767V14.1448C108.138 15.1638 106.775 15.6733 105.204 15.6733C103.387 15.6733 101.864 15.0533 100.637 13.8133C99.4088 12.5734 98.795 11.0879 98.795 9.35684C98.795 7.58897 99.415 6.0912 100.655 4.86352C101.895 3.63583 103.399 3.02199 105.167 3.02199C106.787 3.02199 108.162 3.55603 109.292 4.62412ZM114.333 9.63307H112.749V15.4707H111.939V3.18773H114.314C115.358 3.18773 116.217 3.4701 116.892 4.03483C117.568 4.58729 117.905 5.37301 117.905 6.39198C117.905 7.39868 117.58 8.19054 116.929 8.76755C116.278 9.34456 115.413 9.63307 114.333 9.63307ZM112.749 3.92434V8.89646H114.369C115.18 8.89646 115.83 8.67547 116.321 8.23351C116.812 7.77927 117.058 7.17156 117.058 6.4104C117.058 5.63696 116.806 5.02925 116.303 4.58729C115.812 4.14532 115.124 3.92434 114.24 3.92434H112.749Z" fill="#333333"></path><path d="M55.0093 15.4707V3.18773H57.6979C58.7537 3.18773 59.5824 3.4701 60.1839 4.03483C60.7855 4.58729 61.0863 5.33004 61.0863 6.26308C61.0863 7.46621 60.6075 8.36242 59.6499 8.9517C60.4356 9.07447 61.0556 9.41822 61.5098 9.98296C61.9641 10.5477 62.1912 11.2291 62.1912 12.0271C62.1912 13.0829 61.8352 13.9238 61.1231 14.5499C60.4233 15.1638 59.5087 15.4707 58.3792 15.4707H55.0093ZM55.8195 3.92434V8.74914H57.7715C58.4713 8.74914 59.0299 8.57726 59.4473 8.23351C59.9875 7.79154 60.2576 7.16542 60.2576 6.35515C60.2576 5.5326 59.9814 4.89421 59.4289 4.43997C58.9869 4.09621 58.3056 3.92434 57.3848 3.92434H55.8195ZM55.8195 9.48575V14.7341H57.882C58.2626 14.7341 58.5634 14.728 58.7844 14.7157C59.0054 14.6911 59.2877 14.6236 59.6315 14.5131C59.9875 14.4026 60.2944 14.2307 60.5522 13.9975C61.0801 13.531 61.3441 12.9048 61.3441 12.1191C61.3441 11.0019 60.9083 10.2408 60.0366 9.83564C59.5087 9.60238 58.7414 9.48575 57.7347 9.48575H55.8195ZM70.6287 3.92434H67.4429V15.4707H66.6326V3.92434H63.4467V3.18773H70.6287V3.92434Z" fill="#333333"></path><path d="M2.13423 3.18773H11.1945V15.4707H10.3843V3.92434H2.94451V15.4707H2.13423V3.18773ZM15.3173 3.18773V8.39925H22.757V3.18773H23.5673V15.4707H22.757V9.13586H15.3173V15.4707H14.507V3.18773H15.3173Z" fill="#333333"></path><path d="M285.227 99.2598V87.7134H283.311L283.68 86.9768H286.037V99.2598H285.227ZM291.706 96.2765H292.516C292.541 96.7553 292.676 97.1911 292.921 97.584C293.155 97.9155 293.474 98.1917 293.879 98.4127C294.284 98.6214 294.689 98.7257 295.094 98.7257C295.843 98.7257 296.488 98.4434 297.028 97.8786C297.58 97.3139 297.857 96.6448 297.857 95.8714C297.857 94.8647 297.47 94.1158 296.696 93.6247C296.255 93.3423 295.733 93.2196 295.131 93.2564V92.5198C295.794 92.5198 296.347 92.3295 296.789 91.9489C297.39 91.4456 297.691 90.7765 297.691 89.9416C297.691 89.2541 297.482 88.6833 297.065 88.229C296.647 87.7748 296.07 87.5477 295.334 87.5477C294.573 87.5477 293.983 87.7871 293.566 88.2659C293.173 88.6955 292.964 89.2419 292.94 89.9048H292.166C292.179 89.0332 292.479 88.2966 293.069 87.695C293.646 87.1057 294.401 86.8111 295.334 86.8111C296.316 86.8111 297.095 87.1057 297.673 87.695C298.25 88.2843 298.538 89.0147 298.538 89.8864C298.538 90.5002 298.385 91.0834 298.078 91.6359C297.771 92.176 297.28 92.5812 296.604 92.8513C297.255 93.06 297.765 93.4344 298.133 93.9746C298.513 94.5148 298.704 95.1409 298.704 95.8529C298.704 96.8719 298.354 97.7313 297.654 98.4311C296.954 99.1186 296.101 99.4623 295.094 99.4623C294.517 99.4623 293.959 99.3211 293.419 99.0388C292.878 98.7564 292.455 98.3636 292.148 97.8602C291.853 97.3814 291.706 96.8535 291.706 96.2765Z" fill="#333333"></path><path d="M239.195 99.2598V87.7134H237.28L237.648 86.9768H240.006V99.2598H239.195ZM252.949 99.2598H245.38L250.094 94.0667C250.745 93.3301 251.193 92.7776 251.439 92.4093C251.917 91.6727 252.157 90.9729 252.157 90.31C252.157 89.5242 251.887 88.8674 251.347 88.3395C250.819 87.8116 250.137 87.5477 249.303 87.5477C248.419 87.5477 247.713 87.8484 247.185 88.45C246.694 88.9902 246.454 89.6593 246.467 90.4573H245.656C245.644 89.426 245.969 88.5666 246.632 87.8791C247.32 87.1671 248.228 86.8111 249.358 86.8111C250.414 86.8111 251.285 87.1487 251.973 87.8239C252.66 88.4868 253.004 89.3155 253.004 90.31C253.004 91.1816 252.709 92.0226 252.12 92.8328C251.838 93.2257 251.476 93.6677 251.034 94.1587L247.093 98.5232H252.949V99.2598Z" fill="#333333"></path><path d="M193.156 99.2598V87.7134H191.241L191.609 86.9768H193.966V99.2598H193.156ZM203.245 99.2598V87.7134H201.33L201.698 86.9768H204.055V99.2598H203.245Z" fill="#333333"></path><path d="M147.117 99.2598V87.7134H145.202L145.57 86.9768H147.927V99.2598H147.117ZM154.352 88.3027C155.174 87.3083 156.138 86.8111 157.243 86.8111C158.348 86.8111 159.311 87.3083 160.134 88.3027C161.178 89.5427 161.699 91.1509 161.699 93.1275C161.699 95.1041 161.178 96.7123 160.134 97.9523C159.287 98.959 158.323 99.4623 157.243 99.4623C156.162 99.4623 155.199 98.959 154.352 97.9523C153.308 96.7123 152.786 95.1041 152.786 93.1275C152.786 91.1509 153.308 89.5427 154.352 88.3027ZM154.959 97.4735C155.635 98.3083 156.396 98.7257 157.243 98.7257C158.09 98.7257 158.851 98.3083 159.526 97.4735C160.41 96.3808 160.852 94.9322 160.852 93.1275C160.852 91.3228 160.41 89.8741 159.526 88.7815C158.863 87.9589 158.102 87.5477 157.243 87.5477C156.383 87.5477 155.622 87.9589 154.959 88.7815C154.075 89.8741 153.633 91.3228 153.633 93.1275C153.633 94.9322 154.075 96.3808 154.959 97.4735Z" fill="#333333"></path><path d="M105.662 99.4623L105.036 98.9835L107.761 95.0979C107.234 95.3189 106.675 95.4294 106.086 95.4294C104.858 95.4294 103.839 95.0243 103.029 94.214C102.218 93.4037 101.813 92.3786 101.813 91.1386C101.813 89.8987 102.225 88.8674 103.047 88.0449C103.87 87.2223 104.919 86.8111 106.196 86.8111C107.448 86.8111 108.486 87.2223 109.308 88.0449C110.131 88.8674 110.542 89.9048 110.542 91.1571C110.542 92.0533 110.278 92.8881 109.75 93.6615L105.662 99.4623ZM108.682 88.5789C108.019 87.8914 107.184 87.5477 106.178 87.5477C105.171 87.5477 104.33 87.8914 103.655 88.5789C102.992 89.2664 102.66 90.1135 102.66 91.1202C102.66 92.1638 102.992 93.0231 103.655 93.6984C104.33 94.3613 105.171 94.6928 106.178 94.6928C107.197 94.6928 108.038 94.3552 108.701 93.6799C109.364 93.0047 109.695 92.1515 109.695 91.1202C109.695 90.1012 109.357 89.2541 108.682 88.5789Z" fill="#333333"></path><path d="M61.6672 92.8881C62.3056 93.1336 62.7966 93.5388 63.1404 94.1035C63.4964 94.6682 63.6744 95.3005 63.6744 96.0003C63.6744 97.0438 63.3307 97.8848 62.6432 98.5232C61.9557 99.1493 61.1147 99.4623 60.1203 99.4623C59.1259 99.4623 58.2849 99.1493 57.5974 98.5232C56.9099 97.8848 56.5661 97.0438 56.5661 96.0003C56.5661 95.3005 56.738 94.6682 57.0818 94.1035C57.4378 93.5388 57.935 93.1336 58.5734 92.8881C57.4316 92.2865 56.8608 91.3412 56.8608 90.0521C56.8608 89.1314 57.1738 88.3641 57.8 87.7502C58.4261 87.1241 59.1995 86.8111 60.1203 86.8111C61.041 86.8111 61.8145 87.1241 62.4406 87.7502C63.0667 88.3641 63.3798 89.1314 63.3798 90.0521C63.3798 91.3412 62.8089 92.2865 61.6672 92.8881ZM58.4077 91.8384C58.8865 92.3049 59.4573 92.5382 60.1203 92.5382C60.7832 92.5382 61.348 92.3049 61.8145 91.8384C62.2933 91.3596 62.5327 90.7642 62.5327 90.0521C62.5327 89.3278 62.2994 88.7324 61.8329 88.2659C61.3664 87.7871 60.7955 87.5477 60.1203 87.5477C59.445 87.5477 58.8742 87.7871 58.4077 88.2659C57.9411 88.7324 57.7079 89.3278 57.7079 90.0521C57.7079 90.7642 57.9411 91.3596 58.4077 91.8384ZM58.1498 97.9523C58.6532 98.4679 59.31 98.7257 60.1203 98.7257C60.9305 98.7257 61.5812 98.4679 62.0723 97.9523C62.5756 97.4244 62.8273 96.7737 62.8273 96.0003C62.8273 95.19 62.5756 94.527 62.0723 94.0114C61.5689 93.4958 60.9183 93.238 60.1203 93.238C59.3223 93.238 58.6716 93.4958 58.1683 94.0114C57.6649 94.527 57.4132 95.19 57.4132 96.0003C57.4132 96.7737 57.6588 97.4244 58.1498 97.9523Z" fill="#333333"></path><path d="M9.44057 99.002L17.396 87.7134H9.93778V86.9768H18.8323L10.0483 99.4623L9.44057 99.002Z" fill="#333333"></path><path d="M290.805 48.6001L291.431 49.0789L288.706 52.9461C289.234 52.7251 289.792 52.6146 290.381 52.6146C291.609 52.6146 292.628 53.0198 293.438 53.83C294.249 54.6403 294.654 55.6654 294.654 56.9054C294.654 58.1454 294.242 59.1827 293.42 60.0176C292.597 60.8401 291.548 61.2514 290.271 61.2514C289.019 61.2514 287.981 60.8463 287.159 60.036C286.336 59.2134 285.925 58.1638 285.925 56.887C285.925 55.9908 286.189 55.1559 286.717 54.3825L290.805 48.6001ZM287.766 59.5019C288.442 60.1772 289.283 60.5148 290.289 60.5148C291.296 60.5148 292.131 60.171 292.794 59.4835C293.469 58.796 293.807 57.9428 293.807 56.9238C293.807 55.8803 293.475 55.027 292.812 54.3641C292.149 53.6889 291.308 53.3513 290.289 53.3513C289.27 53.3513 288.429 53.6889 287.766 54.3641C287.104 55.0393 286.772 55.8926 286.772 56.9238C286.772 57.9551 287.104 58.8144 287.766 59.5019Z" fill="#FFFDF3"></path><path d="M249.722 48.7659V49.5025H245.597L244.566 52.8172C244.86 52.7435 245.136 52.7067 245.394 52.7067C246.683 52.7067 247.715 53.1057 248.488 53.9037C249.274 54.7017 249.667 55.7207 249.667 56.9606C249.667 58.2497 249.243 59.2871 248.396 60.0728C247.561 60.8585 246.53 61.2514 245.302 61.2514C243.633 61.2514 242.405 60.5762 241.619 59.2257L242.337 58.9311C243.049 59.9869 244.044 60.5148 245.321 60.5148C246.34 60.5148 247.174 60.1833 247.825 59.5204C248.488 58.8574 248.82 58.0103 248.82 56.9791C248.82 55.9355 248.494 55.0884 247.843 54.4378C247.205 53.7748 246.376 53.4433 245.357 53.4433C244.658 53.4433 244.019 53.6213 243.442 53.9774L245.026 48.7659H249.722Z" fill="#333333"></path><path d="M200.826 48.3607V57.9735H202.539V58.7101H200.826V61.0488H200.016V58.7101H193.405L200.826 48.3607ZM194.841 57.9735H200.016V50.7547L194.841 57.9735Z" fill="#333333"></path><path d="M148.427 58.0656H149.237C149.262 58.5444 149.397 58.9802 149.643 59.373C149.876 59.7045 150.195 59.9807 150.6 60.2017C151.005 60.4104 151.41 60.5148 151.816 60.5148C152.564 60.5148 153.209 60.2324 153.749 59.6677C154.302 59.1029 154.578 58.4339 154.578 57.6604C154.578 56.6537 154.191 55.9048 153.418 55.4138C152.976 55.1314 152.454 55.0086 151.852 55.0455V54.3088C152.515 54.3088 153.068 54.1186 153.51 53.738C154.111 53.2346 154.412 52.5655 154.412 51.7307C154.412 51.0432 154.203 50.4723 153.786 50.0181C153.369 49.5638 152.792 49.3367 152.055 49.3367C151.294 49.3367 150.705 49.5761 150.287 50.0549C149.894 50.4846 149.686 51.0309 149.661 51.6939H148.888C148.9 50.8222 149.201 50.0856 149.79 49.484C150.367 48.8948 151.122 48.6001 152.055 48.6001C153.037 48.6001 153.817 48.8948 154.394 49.484C154.971 50.0733 155.259 50.8038 155.259 51.6755C155.259 52.2893 155.106 52.8725 154.799 53.4249C154.492 53.9651 154.001 54.3702 153.326 54.6403C153.976 54.849 154.486 55.2235 154.854 55.7637C155.235 56.3038 155.425 56.9299 155.425 57.642C155.425 58.661 155.075 59.5204 154.375 60.2201C153.676 60.9076 152.822 61.2514 151.816 61.2514C151.239 61.2514 150.68 61.1102 150.14 60.8278C149.6 60.5455 149.176 60.1526 148.869 59.6493C148.575 59.1705 148.427 58.6426 148.427 58.0656Z" fill="#333333"></path><path d="M109.787 61.0488H102.218L106.933 55.8557C107.583 55.1191 108.032 54.5667 108.277 54.1984C108.756 53.4617 108.995 52.762 108.995 52.099C108.995 51.3133 108.725 50.6565 108.185 50.1286C107.657 49.6007 106.976 49.3367 106.141 49.3367C105.257 49.3367 104.551 49.6375 104.023 50.2391C103.532 50.7793 103.293 51.4483 103.305 52.2463H102.495C102.482 51.2151 102.808 50.3557 103.471 49.6682C104.158 48.9561 105.067 48.6001 106.196 48.6001C107.252 48.6001 108.124 48.9377 108.811 49.613C109.499 50.2759 109.842 51.1046 109.842 52.099C109.842 52.9707 109.548 53.8116 108.958 54.6219C108.676 55.0148 108.314 55.4567 107.872 55.9478L103.931 60.3122H109.787V61.0488Z" fill="#333333"></path><path d="M60.0834 61.0488V49.5025H58.1683L58.5366 48.7659H60.8937V61.0488H60.0834Z" fill="#333333"></path><path d="M10.6568 176.145H3.08812L7.80243 170.951C8.4531 170.215 8.9012 169.662 9.14674 169.294C9.62554 168.557 9.86494 167.858 9.86494 167.195C9.86494 166.409 9.59484 165.752 9.05466 165.224C8.52676 164.696 7.8454 164.432 7.01057 164.432C6.12664 164.432 5.42072 164.733 4.89282 165.335C4.40174 165.875 4.16235 166.544 4.17462 167.342H3.36435C3.35207 166.311 3.67741 165.451 4.34036 164.764C5.02786 164.052 5.93635 163.696 7.06582 163.696C8.12162 163.696 8.99328 164.033 9.68078 164.709C10.3683 165.372 10.712 166.2 10.712 167.195C10.712 168.066 10.4174 168.907 9.8281 169.718C9.54574 170.11 9.18357 170.552 8.7416 171.044L4.80074 175.408H10.6568V176.145ZM17.081 176.145V164.598H15.1658L15.5341 163.862H17.8913V176.145H17.081Z" fill="#333333"></path><path d="M56.6959 176.145H49.1272L53.8415 170.951C54.4922 170.215 54.9403 169.662 55.1858 169.294C55.6646 168.557 55.904 167.858 55.904 167.195C55.904 166.409 55.6339 165.752 55.0937 165.224C54.5658 164.696 53.8845 164.432 53.0496 164.432C52.1657 164.432 51.4598 164.733 50.9319 165.335C50.4408 165.875 50.2014 166.544 50.2137 167.342H49.4034C49.3911 166.311 49.7165 165.451 50.3794 164.764C51.0669 164.052 51.9754 163.696 53.1049 163.696C54.1607 163.696 55.0323 164.033 55.7198 164.709C56.4073 165.372 56.7511 166.2 56.7511 167.195C56.7511 168.066 56.4565 168.907 55.8672 169.718C55.5848 170.11 55.2226 170.552 54.7807 171.044L50.8398 175.408H56.6959V176.145ZM66.7847 176.145H59.216L63.9303 170.951C64.581 170.215 65.0291 169.662 65.2746 169.294C65.7534 168.557 65.9928 167.858 65.9928 167.195C65.9928 166.409 65.7227 165.752 65.1826 165.224C64.6546 164.696 63.9733 164.432 63.1385 164.432C62.2545 164.432 61.5486 164.733 61.0207 165.335C60.5296 165.875 60.2902 166.544 60.3025 167.342H59.4922C59.48 166.311 59.8053 165.451 60.4682 164.764C61.1557 164.052 62.0642 163.696 63.1937 163.696C64.2495 163.696 65.1212 164.033 65.8087 164.709C66.4962 165.372 66.8399 166.2 66.8399 167.195C66.8399 168.066 66.5453 168.907 65.956 169.718C65.6736 170.11 65.3115 170.552 64.8695 171.044L60.9286 175.408H66.7847V176.145Z" fill="#333333"></path><path d="M102.735 176.145H95.1662L99.8806 170.951C100.531 170.215 100.979 169.662 101.225 169.294C101.704 168.557 101.943 167.858 101.943 167.195C101.943 166.409 101.673 165.752 101.133 165.224C100.605 164.696 99.9235 164.432 99.0887 164.432C98.2048 164.432 97.4988 164.733 96.9709 165.335C96.4799 165.875 96.2405 166.544 96.2527 167.342H95.4425C95.4302 166.311 95.7555 165.451 96.4185 164.764C97.106 164.052 98.0145 163.696 99.1439 163.696C100.2 163.696 101.071 164.033 101.759 164.709C102.446 165.372 102.79 166.2 102.79 167.195C102.79 168.066 102.496 168.907 101.906 169.718C101.624 170.11 101.262 170.552 100.82 171.044L96.8789 175.408H102.735V176.145ZM105.55 173.161H106.36C106.385 173.64 106.52 174.076 106.765 174.469C106.998 174.8 107.318 175.076 107.723 175.297C108.128 175.506 108.533 175.61 108.938 175.61C109.687 175.61 110.332 175.328 110.872 174.763C111.424 174.199 111.7 173.53 111.7 172.756C111.7 171.749 111.314 171.001 110.54 170.509C110.098 170.227 109.577 170.104 108.975 170.141V169.405C109.638 169.405 110.19 169.214 110.632 168.834C111.234 168.33 111.535 167.661 111.535 166.826C111.535 166.139 111.326 165.568 110.909 165.114C110.491 164.66 109.914 164.432 109.178 164.432C108.416 164.432 107.827 164.672 107.41 165.151C107.017 165.58 106.808 166.127 106.784 166.79H106.01C106.022 165.918 106.323 165.181 106.912 164.58C107.489 163.99 108.244 163.696 109.178 163.696C110.16 163.696 110.939 163.99 111.516 164.58C112.093 165.169 112.382 165.9 112.382 166.771C112.382 167.385 112.228 167.968 111.921 168.521C111.614 169.061 111.123 169.466 110.448 169.736C111.099 169.945 111.608 170.319 111.977 170.859C112.357 171.4 112.548 172.026 112.548 172.738C112.548 173.757 112.198 174.616 111.498 175.316C110.798 176.003 109.945 176.347 108.938 176.347C108.361 176.347 107.803 176.206 107.262 175.924C106.722 175.641 106.299 175.248 105.992 174.745C105.697 174.266 105.55 173.738 105.55 173.161Z" fill="#333333"></path><path d="M148.774 176.145H141.205L145.92 170.951C146.57 170.215 147.018 169.662 147.264 169.294C147.743 168.557 147.982 167.858 147.982 167.195C147.982 166.409 147.712 165.752 147.172 165.224C146.644 164.696 145.963 164.432 145.128 164.432C144.244 164.432 143.538 164.733 143.01 165.335C142.519 165.875 142.28 166.544 142.292 167.342H141.482C141.469 166.311 141.795 165.451 142.458 164.764C143.145 164.052 144.054 163.696 145.183 163.696C146.239 163.696 147.11 164.033 147.798 164.709C148.485 165.372 148.829 166.2 148.829 167.195C148.829 168.066 148.535 168.907 147.945 169.718C147.663 170.11 147.301 170.552 146.859 171.044L142.918 175.408H148.774V176.145ZM157.832 163.456V173.069H159.544V173.806H157.832V176.145H157.021V173.806H150.41L157.832 163.456ZM151.847 173.069H157.021V165.85L151.847 173.069Z" fill="#333333"></path><path d="M194.813 176.145H187.244L191.959 170.951C192.609 170.215 193.057 169.662 193.303 169.294C193.782 168.557 194.021 167.858 194.021 167.195C194.021 166.409 193.751 165.752 193.211 165.224C192.683 164.696 192.002 164.432 191.167 164.432C190.283 164.432 189.577 164.733 189.049 165.335C188.558 165.875 188.319 166.544 188.331 167.342H187.521C187.508 166.311 187.834 165.451 188.497 164.764C189.184 164.052 190.093 163.696 191.222 163.696C192.278 163.696 193.15 164.033 193.837 164.709C194.525 165.372 194.868 166.2 194.868 167.195C194.868 168.066 194.574 168.907 193.984 169.718C193.702 170.11 193.34 170.552 192.898 171.044L188.957 175.408H194.813V176.145ZM204.883 163.862V164.598H200.758L199.727 167.913C200.022 167.839 200.298 167.802 200.556 167.802C201.845 167.802 202.876 168.201 203.65 168.999C204.435 169.797 204.828 170.816 204.828 172.056C204.828 173.345 204.405 174.383 203.558 175.169C202.723 175.954 201.691 176.347 200.464 176.347C198.794 176.347 197.566 175.672 196.781 174.321L197.499 174.027C198.211 175.083 199.205 175.61 200.482 175.61C201.501 175.61 202.336 175.279 202.987 174.616C203.65 173.953 203.981 173.106 203.981 172.075C203.981 171.031 203.656 170.184 203.005 169.533C202.367 168.871 201.538 168.539 200.519 168.539C199.819 168.539 199.181 168.717 198.604 169.073L200.188 163.862H204.883Z" fill="#333333"></path><path d="M240.844 176.145H233.276L237.99 170.951C238.641 170.215 239.089 169.662 239.334 169.294C239.813 168.557 240.052 167.858 240.052 167.195C240.052 166.409 239.782 165.752 239.242 165.224C238.714 164.696 238.033 164.432 237.198 164.432C236.314 164.432 235.608 164.733 235.08 165.335C234.589 165.875 234.35 166.544 234.362 167.342H233.552C233.54 166.311 233.865 165.451 234.528 164.764C235.215 164.052 236.124 163.696 237.253 163.696C238.309 163.696 239.181 164.033 239.868 164.709C240.556 165.372 240.9 166.2 240.9 167.195C240.9 168.066 240.605 168.907 240.016 169.718C239.733 170.11 239.371 170.552 238.929 171.044L234.988 175.408H240.844V176.145ZM247.803 163.696L248.429 164.175L245.703 168.042C246.231 167.821 246.79 167.71 247.379 167.71C248.607 167.71 249.626 168.115 250.436 168.926C251.246 169.736 251.651 170.761 251.651 172.001C251.651 173.241 251.24 174.278 250.417 175.113C249.595 175.936 248.545 176.347 247.268 176.347C246.016 176.347 244.979 175.942 244.156 175.132C243.334 174.309 242.922 173.259 242.922 171.983C242.922 171.086 243.186 170.252 243.714 169.478L247.803 163.696ZM244.764 174.598C245.439 175.273 246.28 175.61 247.287 175.61C248.294 175.61 249.128 175.267 249.791 174.579C250.467 173.892 250.804 173.038 250.804 172.02C250.804 170.976 250.473 170.123 249.81 169.46C249.147 168.785 248.306 168.447 247.287 168.447C246.268 168.447 245.427 168.785 244.764 169.46C244.101 170.135 243.77 170.988 243.77 172.02C243.77 173.051 244.101 173.91 244.764 174.598Z" fill="#333333"></path><path d="M286.883 176.145H279.315L284.029 170.951C284.68 170.215 285.128 169.662 285.373 169.294C285.852 168.557 286.091 167.858 286.091 167.195C286.091 166.409 285.821 165.752 285.281 165.224C284.753 164.696 284.072 164.432 283.237 164.432C282.353 164.432 281.647 164.733 281.119 165.335C280.628 165.875 280.389 166.544 280.401 167.342H279.591C279.579 166.311 279.904 165.451 280.567 164.764C281.254 164.052 282.163 163.696 283.292 163.696C284.348 163.696 285.22 164.033 285.907 164.709C286.595 165.372 286.939 166.2 286.939 167.195C286.939 168.066 286.644 168.907 286.055 169.718C285.772 170.11 285.41 170.552 284.968 171.044L281.027 175.408H286.883V176.145ZM288.704 175.887L296.659 164.598H289.201V163.862H298.096L289.311 176.347L288.704 175.887Z" fill="#333333"></path><path d="M10.6646 214.816H3.09593L7.81024 209.623C8.46091 208.887 8.90902 208.334 9.15455 207.966C9.63335 207.229 9.87275 206.53 9.87275 205.867C9.87275 205.081 9.60266 204.424 9.06248 203.896C8.53457 203.368 7.85321 203.104 7.01838 203.104C6.13445 203.104 5.42853 203.405 4.90063 204.007C4.40956 204.547 4.17016 205.216 4.18243 206.014H3.37216C3.35989 204.983 3.68522 204.123 4.34817 203.436C5.03567 202.724 5.94416 202.368 7.07363 202.368C8.12944 202.368 9.00109 202.705 9.6886 203.381C10.3761 204.043 10.7198 204.872 10.7198 205.867C10.7198 206.738 10.4252 207.579 9.83592 208.389C9.55355 208.782 9.19138 209.224 8.74942 209.715L4.80855 214.08H10.6646V214.816ZM18.6725 208.445C19.3109 208.69 19.802 209.095 20.1457 209.66C20.5018 210.225 20.6798 210.857 20.6798 211.557C20.6798 212.6 20.336 213.441 19.6485 214.08C18.961 214.706 18.12 215.019 17.1256 215.019C16.1312 215.019 15.2902 214.706 14.6027 214.08C13.9152 213.441 13.5715 212.6 13.5715 211.557C13.5715 210.857 13.7434 210.225 14.0871 209.66C14.4431 209.095 14.9403 208.69 15.5787 208.445C14.437 207.843 13.8661 206.898 13.8661 205.609C13.8661 204.688 14.1792 203.921 14.8053 203.307C15.4314 202.681 16.2049 202.368 17.1256 202.368C18.0464 202.368 18.8198 202.681 19.4459 203.307C20.0721 203.921 20.3851 204.688 20.3851 205.609C20.3851 206.898 19.8143 207.843 18.6725 208.445ZM15.413 207.395C15.8918 207.862 16.4627 208.095 17.1256 208.095C17.7886 208.095 18.3533 207.862 18.8198 207.395C19.2986 206.916 19.538 206.321 19.538 205.609C19.538 204.884 19.3048 204.289 18.8382 203.823C18.3717 203.344 17.8009 203.104 17.1256 203.104C16.4504 203.104 15.8795 203.344 15.413 203.823C14.9465 204.289 14.7132 204.884 14.7132 205.609C14.7132 206.321 14.9465 206.916 15.413 207.395ZM15.1552 213.509C15.6585 214.025 16.3154 214.282 17.1256 214.282C17.9359 214.282 18.5866 214.025 19.0776 213.509C19.581 212.981 19.8327 212.33 19.8327 211.557C19.8327 210.747 19.581 210.084 19.0776 209.568C18.5743 209.052 17.9236 208.795 17.1256 208.795C16.3276 208.795 15.677 209.052 15.1736 209.568C14.6703 210.084 14.4186 210.747 14.4186 211.557C14.4186 212.33 14.6641 212.981 15.1552 213.509Z" fill="#333333"></path><path d="M56.7037 214.816H49.135L53.8493 209.623C54.5 208.887 54.9481 208.334 55.1936 207.966C55.6724 207.229 55.9118 206.53 55.9118 205.867C55.9118 205.081 55.6417 204.424 55.1015 203.896C54.5736 203.368 53.8923 203.104 53.0574 203.104C52.1735 203.104 51.4676 203.405 50.9397 204.007C50.4486 204.547 50.2092 205.216 50.2215 206.014H49.4112C49.3989 204.983 49.7243 204.123 50.3872 203.436C51.0747 202.724 51.9832 202.368 53.1127 202.368C54.1685 202.368 55.0402 202.705 55.7277 203.381C56.4152 204.043 56.7589 204.872 56.7589 205.867C56.7589 206.738 56.4643 207.579 55.875 208.389C55.5926 208.782 55.2304 209.224 54.7885 209.715L50.8476 214.08H56.7037V214.816ZM62.6675 215.019L62.0414 214.54L64.7668 210.655C64.2389 210.876 63.6803 210.986 63.091 210.986C61.8633 210.986 60.8444 210.581 60.0341 209.771C59.2238 208.96 58.8187 207.935 58.8187 206.695C58.8187 205.455 59.23 204.424 60.0525 203.602C60.8751 202.779 61.9247 202.368 63.2015 202.368C64.4538 202.368 65.4911 202.779 66.3137 203.602C67.1362 204.424 67.5475 205.461 67.5475 206.714C67.5475 207.61 67.2836 208.445 66.7557 209.218L62.6675 215.019ZM65.6876 204.136C65.0246 203.448 64.1898 203.104 63.1831 203.104C62.1764 203.104 61.3354 203.448 60.6602 204.136C59.9973 204.823 59.6658 205.67 59.6658 206.677C59.6658 207.72 59.9973 208.58 60.6602 209.255C61.3354 209.918 62.1764 210.249 63.1831 210.249C64.2021 210.249 65.043 209.912 65.706 209.237C66.3689 208.561 66.7004 207.708 66.7004 206.677C66.7004 205.658 66.3628 204.811 65.6876 204.136Z" fill="#333333"></path><path d="M95.4687 211.833H96.279C96.3035 212.312 96.4386 212.748 96.6841 213.141C96.9174 213.472 97.2366 213.748 97.6417 213.969C98.0468 214.178 98.452 214.282 98.8571 214.282C99.606 214.282 100.251 214 100.791 213.435C101.343 212.871 101.619 212.201 101.619 211.428C101.619 210.421 101.233 209.672 100.459 209.181C100.017 208.899 99.4955 208.776 98.8939 208.813V208.076C99.5569 208.076 100.109 207.886 100.551 207.506C101.153 207.002 101.454 206.333 101.454 205.498C101.454 204.811 101.245 204.24 100.828 203.786C100.41 203.331 99.8331 203.104 99.0965 203.104C98.3353 203.104 97.7461 203.344 97.3286 203.823C96.9358 204.252 96.7271 204.799 96.7025 205.461H95.9291C95.9414 204.59 96.2421 203.853 96.8314 203.252C97.4084 202.662 98.1635 202.368 99.0965 202.368C100.079 202.368 100.858 202.662 101.435 203.252C102.012 203.841 102.301 204.571 102.301 205.443C102.301 206.057 102.147 206.64 101.84 207.192C101.533 207.733 101.042 208.138 100.367 208.408C101.018 208.617 101.527 208.991 101.896 209.531C102.276 210.071 102.467 210.698 102.467 211.41C102.467 212.429 102.117 213.288 101.417 213.988C100.717 214.675 99.8638 215.019 98.8571 215.019C98.2801 215.019 97.7215 214.878 97.1813 214.595C96.6411 214.313 96.2176 213.92 95.9107 213.417C95.616 212.938 95.4687 212.41 95.4687 211.833ZM106.313 203.859C107.135 202.865 108.099 202.368 109.204 202.368C110.309 202.368 111.272 202.865 112.095 203.859C113.138 205.099 113.66 206.708 113.66 208.684C113.66 210.661 113.138 212.269 112.095 213.509C111.248 214.516 110.284 215.019 109.204 215.019C108.123 215.019 107.16 214.516 106.313 213.509C105.269 212.269 104.747 210.661 104.747 208.684C104.747 206.708 105.269 205.099 106.313 203.859ZM106.92 213.03C107.595 213.865 108.357 214.282 109.204 214.282C110.051 214.282 110.812 213.865 111.487 213.03C112.371 211.937 112.813 210.489 112.813 208.684C112.813 206.879 112.371 205.431 111.487 204.338C110.824 203.516 110.063 203.104 109.204 203.104C108.344 203.104 107.583 203.516 106.92 204.338C106.036 205.431 105.594 206.879 105.594 208.684C105.594 210.489 106.036 211.937 106.92 213.03Z" fill="#333333"></path><path d="M141.508 211.833H142.318C142.343 212.312 142.478 212.748 142.723 213.141C142.956 213.472 143.276 213.748 143.681 213.969C144.086 214.178 144.491 214.282 144.896 214.282C145.645 214.282 146.29 214 146.83 213.435C147.382 212.871 147.658 212.201 147.658 211.428C147.658 210.421 147.272 209.672 146.498 209.181C146.056 208.899 145.535 208.776 144.933 208.813V208.076C145.596 208.076 146.148 207.886 146.59 207.506C147.192 207.002 147.493 206.333 147.493 205.498C147.493 204.811 147.284 204.24 146.867 203.786C146.449 203.331 145.872 203.104 145.136 203.104C144.374 203.104 143.785 203.344 143.368 203.823C142.975 204.252 142.766 204.799 142.742 205.461H141.968C141.98 204.59 142.281 203.853 142.87 203.252C143.448 202.662 144.203 202.368 145.136 202.368C146.118 202.368 146.897 202.662 147.474 203.252C148.051 203.841 148.34 204.571 148.34 205.443C148.34 206.057 148.186 206.64 147.879 207.192C147.573 207.733 147.081 208.138 146.406 208.408C147.057 208.617 147.566 208.991 147.935 209.531C148.315 210.071 148.506 210.698 148.506 211.41C148.506 212.429 148.156 213.288 147.456 213.988C146.756 214.675 145.903 215.019 144.896 215.019C144.319 215.019 143.761 214.878 143.22 214.595C142.68 214.313 142.257 213.92 141.95 213.417C141.655 212.938 141.508 212.41 141.508 211.833ZM155.206 214.816V203.27H153.291L153.659 202.533H156.016V214.816H155.206Z" fill="#333333"></path></svg> 