<?xml version="1.0" encoding="UTF-8"?> <svg xmlns="http://www.w3.org/2000/svg" width="99" height="20" viewBox="0 0 99 20" fill="none"><path d="M7.18343 19.5117H0.0554297V19.2957H1.59143C2.16743 19.2957 2.52743 19.2157 2.67143 19.0557C2.81543 18.8957 2.88743 18.4797 2.88743 17.8077V6.57572C2.88743 5.98372 2.91143 5.51972 2.95943 5.18372L2.86343 5.13572C2.67143 5.42372 2.47143 5.67172 2.26343 5.87972L0.65543 7.70372L0.48743 7.58372L1.42343 6.40772C3.32743 3.97572 4.27943 2.52772 4.27943 2.06372H4.59143V17.8077C4.59143 18.4797 4.65543 18.8957 4.78343 19.0557C4.92743 19.2157 5.28743 19.2957 5.86343 19.2957H7.18343V19.5117ZM17.3446 3.76772V6.23972H17.1286V5.90372C16.9526 4.97572 16.5926 4.17572 16.0486 3.50372C15.5046 2.83172 14.7286 2.49572 13.7206 2.49572C12.5686 2.49572 11.6726 3.33572 11.0326 5.01572C10.3926 6.67972 10.0726 8.80772 10.0726 11.3997H10.1686C10.5206 10.5037 11.0246 9.82372 11.6806 9.35972C12.3366 8.87972 13.0486 8.63972 13.8166 8.63972C15.1606 8.63972 16.2406 9.15972 17.0566 10.1997C17.8886 11.2237 18.3046 12.5837 18.3046 14.2797C18.3046 15.9597 17.8486 17.2877 16.9366 18.2637C16.0246 19.2237 14.8086 19.7037 13.2886 19.7037C11.7846 19.7037 10.5686 18.9677 9.64062 17.4957C8.72862 16.0077 8.27262 14.0477 8.27262 11.6157C8.27262 8.75172 8.76862 6.44772 9.76062 4.70372C10.7686 2.94372 12.0886 2.06372 13.7206 2.06372C13.9766 2.06372 14.2246 2.08772 14.4646 2.13572C14.7206 2.18372 14.9526 2.25572 15.1606 2.35172C15.3846 2.43172 15.5846 2.51172 15.7606 2.59172C15.9366 2.67172 16.1126 2.78372 16.2886 2.92772C16.4806 3.05572 16.6166 3.15972 16.6966 3.23972C16.7926 3.30372 16.9126 3.40772 17.0566 3.55172C17.2166 3.67972 17.3126 3.75172 17.3446 3.76772ZM16.4806 14.2797C16.4806 12.5837 16.2406 11.2957 15.7606 10.4157C15.2806 9.51972 14.5846 9.07172 13.6726 9.07172C12.7926 9.07172 11.9926 9.55972 11.2726 10.5357C10.5526 11.4957 10.1846 12.6957 10.1686 14.1357C10.2966 15.7837 10.6246 17.0557 11.1526 17.9517C11.6966 18.8317 12.4086 19.2717 13.2886 19.2717C14.3286 19.2717 15.1206 18.8477 15.6646 17.9997C16.2086 17.1357 16.4806 15.8957 16.4806 14.2797ZM21.5034 17.5917C21.8234 17.5917 22.0794 17.6877 22.2714 17.8797C22.4634 18.0717 22.5594 18.3357 22.5594 18.6717C22.5594 18.9917 22.4634 19.2477 22.2714 19.4397C22.0954 19.6317 21.8394 19.7277 21.5034 19.7277C21.1834 19.7277 20.9194 19.6397 20.7114 19.4637C20.5194 19.2717 20.4234 19.0077 20.4234 18.6717C20.4234 18.3517 20.5194 18.0957 20.7114 17.9037C20.9034 17.6957 21.1674 17.5917 21.5034 17.5917ZM30.2709 2.49572C29.0069 2.49572 28.0389 3.14372 27.3669 4.43972C26.7109 5.71972 26.3829 7.58372 26.3829 10.0317C26.3829 13.0397 26.7269 15.3357 27.4149 16.9197C28.1189 18.4877 29.1269 19.2717 30.4389 19.2717C31.7029 19.2717 32.6709 18.6317 33.3429 17.3517C34.0149 16.0557 34.3509 14.1837 34.3509 11.7357C34.3509 8.72772 33.9989 6.43972 33.2949 4.87172C32.6069 3.28772 31.5989 2.49572 30.2709 2.49572ZM26.1669 4.48772C27.2389 2.87172 28.6389 2.06372 30.3669 2.06372C32.0949 2.06372 33.4869 2.87172 34.5429 4.48772C35.6149 6.10372 36.1509 8.23172 36.1509 10.8717C36.1509 13.5277 35.6149 15.6637 34.5429 17.2797C33.4869 18.8957 32.0949 19.7037 30.3669 19.7037C28.6389 19.7037 27.2389 18.8957 26.1669 17.2797C25.1109 15.6637 24.5829 13.5277 24.5829 10.8717C24.5829 8.23172 25.1109 6.10372 26.1669 4.48772ZM37.9741 15.2637H44.5501V9.50372H46.2541V15.2637H47.7661V16.1037H46.2541V17.8077C46.2541 18.4797 46.3341 18.8957 46.4941 19.0557C46.6541 19.2157 47.0701 19.2957 47.7421 19.2957H48.1501V19.5117H41.9341V19.2957H43.0381C43.7101 19.2957 44.1261 19.2157 44.2861 19.0557C44.4621 18.8957 44.5501 18.4797 44.5501 17.8077V16.1037H37.3021V15.5757C37.3021 15.5757 37.3501 15.4877 37.4461 15.3117C37.5421 15.1197 37.6621 14.8797 37.8061 14.5917C37.9661 14.3037 38.1501 13.9597 38.3581 13.5597C38.5661 13.1437 38.7901 12.6957 39.0301 12.2157C39.2701 11.7357 39.5181 11.2317 39.7741 10.7037C40.0301 10.1597 40.2861 9.59972 40.5421 9.02372C40.7981 8.43172 41.0461 7.85572 41.2861 7.29572C41.5261 6.71972 41.7501 6.13572 41.9581 5.54372C42.1821 4.95172 42.3741 4.39972 42.5341 3.88772C42.6621 3.50372 42.7261 3.20772 42.7261 2.99972C42.7261 2.66372 42.4141 2.49572 41.7901 2.49572V2.25572C42.9101 2.25572 43.6541 2.20772 44.0221 2.11172C44.3901 1.99972 44.6861 1.72772 44.9101 1.29572L45.0541 1.34372L37.9741 15.2637ZM50.9409 17.5917C51.2609 17.5917 51.5169 17.6877 51.7089 17.8797C51.9009 18.0717 51.9969 18.3357 51.9969 18.6717C51.9969 18.9917 51.9009 19.2477 51.7089 19.4397C51.5329 19.6317 51.2769 19.7277 50.9409 19.7277C50.6209 19.7277 50.3569 19.6397 50.1489 19.4637C49.9569 19.2717 49.8609 19.0077 49.8609 18.6717C49.8609 18.3517 49.9569 18.0957 50.1489 17.9037C50.3409 17.6957 50.6049 17.5917 50.9409 17.5917ZM63.5964 19.5117H54.1164V18.0717C54.2764 18.0557 54.5724 17.8957 55.0044 17.5917C55.4364 17.2717 55.8204 16.8877 56.1564 16.4397C57.8524 14.1997 59.1644 12.2477 60.0924 10.5837C61.0204 8.90372 61.4844 7.41572 61.4844 6.11972C61.4844 4.93572 61.2284 4.03972 60.7164 3.43172C60.2044 2.80772 59.4604 2.49572 58.4844 2.49572C57.5404 2.49572 56.7884 2.80772 56.2284 3.43172C55.6684 4.05572 55.3244 4.81572 55.1964 5.71172V6.52772H54.7884V2.30372H55.0044V3.33572C55.9484 2.48772 57.1084 2.06372 58.4844 2.06372C59.8924 2.06372 61.0284 2.46372 61.8924 3.26372C62.7564 4.06372 63.1884 5.11172 63.1884 6.40772C63.1884 7.44772 62.8204 8.62372 62.0844 9.93572C61.3484 11.2477 60.5004 12.4477 59.5404 13.5357C58.5804 14.6077 57.3964 15.8157 55.9884 17.1597C55.4604 17.6557 55.1244 17.9437 54.9804 18.0237L55.0524 18.1437C55.6124 18.0637 56.0764 18.0237 56.4444 18.0237H59.9724C61.2364 18.0237 62.1324 17.8797 62.6604 17.5917C63.1884 17.3037 63.4844 16.6477 63.5484 15.6237L63.5964 14.9277L63.8604 14.9517L63.5964 19.5117ZM70.8177 2.49572C69.5537 2.49572 68.5857 3.14372 67.9137 4.43972C67.2577 5.71972 66.9297 7.58372 66.9297 10.0317C66.9297 13.0397 67.2737 15.3357 67.9617 16.9197C68.6657 18.4877 69.6737 19.2717 70.9857 19.2717C72.2497 19.2717 73.2177 18.6317 73.8897 17.3517C74.5617 16.0557 74.8977 14.1837 74.8977 11.7357C74.8977 8.72772 74.5457 6.43972 73.8417 4.87172C73.1537 3.28772 72.1457 2.49572 70.8177 2.49572ZM66.7137 4.48772C67.7857 2.87172 69.1857 2.06372 70.9137 2.06372C72.6417 2.06372 74.0337 2.87172 75.0897 4.48772C76.1617 6.10372 76.6977 8.23172 76.6977 10.8717C76.6977 13.5277 76.1617 15.6637 75.0897 17.2797C74.0337 18.8957 72.6417 19.7037 70.9137 19.7037C69.1857 19.7037 67.7857 18.8957 66.7137 17.2797C65.6577 15.6637 65.1297 13.5277 65.1297 10.8717C65.1297 8.23172 65.6577 6.10372 66.7137 4.48772ZM87.737 19.5117H78.257V18.0717C78.417 18.0557 78.713 17.8957 79.145 17.5917C79.577 17.2717 79.961 16.8877 80.297 16.4397C81.993 14.1997 83.305 12.2477 84.233 10.5837C85.161 8.90372 85.625 7.41572 85.625 6.11972C85.625 4.93572 85.369 4.03972 84.857 3.43172C84.345 2.80772 83.601 2.49572 82.625 2.49572C81.681 2.49572 80.929 2.80772 80.369 3.43172C79.809 4.05572 79.465 4.81572 79.337 5.71172V6.52772H78.929V2.30372H79.145V3.33572C80.089 2.48772 81.249 2.06372 82.625 2.06372C84.033 2.06372 85.169 2.46372 86.033 3.26372C86.897 4.06372 87.329 5.11172 87.329 6.40772C87.329 7.44772 86.961 8.62372 86.225 9.93572C85.489 11.2477 84.641 12.4477 83.681 13.5357C82.721 14.6077 81.537 15.8157 80.129 17.1597C79.601 17.6557 79.265 17.9437 79.121 18.0237L79.193 18.1437C79.753 18.0637 80.217 18.0237 80.585 18.0237H84.113C85.377 18.0237 86.273 17.8797 86.801 17.5917C87.329 17.3037 87.625 16.6477 87.689 15.6237L87.737 14.9277L88.001 14.9517L87.737 19.5117ZM90.2544 2.25572H96.6624C97.2544 2.25572 97.6224 2.19972 97.7664 2.08772C97.9264 1.95972 98.0384 1.63172 98.1024 1.10372V0.959717L98.3424 0.983718L98.1744 3.74372H92.0064C91.2864 3.74372 90.8544 3.80772 90.7104 3.93572C90.5824 4.04772 90.4944 4.43972 90.4464 5.11172L90.1584 9.21572C91.1344 8.57572 92.2224 8.25572 93.4224 8.25572C95.1024 8.25572 96.4464 8.76772 97.4544 9.79172C98.4624 10.7997 98.9664 12.1917 98.9664 13.9677C98.9664 15.6317 98.4544 17.0077 97.4304 18.0957C96.4064 19.1677 95.0704 19.7037 93.4224 19.7037C92.7344 19.6877 92.0144 19.5277 91.2624 19.2237C90.5264 18.9197 89.8944 18.4877 89.3664 17.9277V14.9517H89.7984V15.6957C89.8304 16.5597 90.1744 17.3757 90.8304 18.1437C91.5024 18.8957 92.3664 19.2717 93.4224 19.2717C94.6384 19.2717 95.5664 18.8237 96.2064 17.9277C96.8464 17.0157 97.1664 15.6957 97.1664 13.9677C97.1664 12.2397 96.8464 10.9277 96.2064 10.0317C95.5664 9.13572 94.6384 8.68772 93.4224 8.68772C92.1424 8.68772 91.0384 9.05572 90.1104 9.79172H89.7024L90.1344 3.07172C90.1664 2.52772 90.2064 2.25572 90.2544 2.25572Z" fill="white"></path></svg> 