<?xml version="1.0" encoding="UTF-8"?> <svg xmlns="http://www.w3.org/2000/svg" width="263" height="56" viewBox="0 0 263 56" fill="none"><path d="M8.52713 45.1152C8.0578 44.9019 7.78047 44.4112 7.69513 43.6432V43.5152C7.69513 43.3445 7.8658 43.1525 8.20713 42.9392C8.3778 42.8539 8.6978 42.7259 9.16713 42.5552C9.67913 42.4699 9.95647 42.4059 9.99913 42.3632C10.0418 42.3205 10.1485 42.0432 10.3191 41.5312C10.5325 40.8059 10.7458 39.6325 10.9591 38.0112C11.1725 35.3232 11.2791 33.1685 11.2791 31.5472C11.1938 27.1952 11.1511 24.7845 11.1511 24.3152V16.9552C11.1511 14.2672 11.1298 12.5392 11.0871 11.7712C11.0871 10.4912 11.0658 9.6592 11.0231 9.2752V8.8912C11.0231 8.80587 11.0658 8.2512 11.1511 7.2272C11.1511 7.05654 11.1725 6.94987 11.2151 6.9072C11.2578 6.73654 11.3645 6.69387 11.5351 6.7792C12.2178 7.07787 12.5805 7.50453 12.6231 8.0592L13.0711 11.3232C13.0711 11.3659 13.0925 11.7285 13.1351 12.4112C13.2205 13.0512 13.2845 13.5845 13.3271 14.0112L13.4551 15.2912L13.7751 18.7472L13.9031 20.5392C13.9458 21.0939 14.0311 22.3312 14.1591 24.2512C14.1591 24.5925 14.2445 25.6165 14.4151 27.3232L14.5431 28.7312V29.7552C14.5858 30.1819 14.6071 31.1845 14.6071 32.7632C14.6071 35.1525 14.5005 37.3712 14.2871 39.4192C14.1591 40.3152 14.0525 40.8912 13.9671 41.1472L13.9031 41.9152C13.8605 42.0432 13.9245 42.1072 14.0951 42.1072C14.2231 42.1072 14.4578 42.0645 14.7991 41.9792C16.6338 41.5099 18.4258 40.6352 20.1751 39.3552C21.7538 38.2459 23.3325 36.9019 24.9111 35.3232C26.2338 34.0005 27.3858 32.4219 28.3671 30.5872C29.9458 27.6859 31.0338 24.4219 31.6311 20.7952C31.7591 19.7712 31.8231 18.7472 31.8231 17.7232C31.8231 14.7792 31.2258 12.0485 30.0311 9.5312C29.3058 7.9952 28.4098 6.75787 27.3431 5.8192L26.6391 5.2432C25.1458 4.4752 23.3965 3.8992 21.3911 3.5152C20.6658 3.3872 19.8551 3.3232 18.9591 3.3232C17.6791 3.28053 16.0791 3.5152 14.1591 4.0272C13.4765 4.19787 12.4951 4.64587 11.2151 5.3712C10.1911 6.0112 9.57247 6.41653 9.35913 6.5872C8.6338 7.0992 7.6738 8.01654 6.47913 9.3392C5.1138 11.0885 4.0898 13.1579 3.40713 15.5472C3.15113 16.3579 3.02313 17.1685 3.02313 17.9792C3.02313 19.0459 3.21513 20.0912 3.59913 21.1152C4.0258 22.3099 4.62313 23.2912 5.39113 24.0592C5.60447 24.2725 5.86047 24.2939 6.15913 24.1232C6.41513 23.9099 6.62847 23.8885 6.79913 24.0592C6.9698 24.1019 7.11913 24.1872 7.24713 24.3152C7.5458 24.5712 7.6738 24.8059 7.63113 25.0192C7.4178 25.4885 7.14047 25.6592 6.79913 25.5312C6.62847 25.5312 6.43647 25.4672 6.22313 25.3392C4.30313 24.4005 2.70313 23.0565 1.42313 21.3072C0.911133 20.5819 0.569799 19.7925 0.399133 18.9392C0.143133 18.0859 0.0151328 17.2539 0.0151328 16.4432C0.0151328 15.5472 0.143133 14.6512 0.399133 13.7552C1.3378 10.2565 3.1938 7.2912 5.96713 4.8592C6.60713 4.26187 7.69513 3.55787 9.23113 2.7472C10.4685 2.1072 11.6845 1.63787 12.8791 1.3392C13.9458 1.0832 15.0551 0.9552 16.2071 0.9552C17.6151 0.9552 19.1085 1.12587 20.6871 1.4672C22.0098 1.76587 23.5458 2.40587 25.2951 3.3872C27.7698 5.00853 29.4551 6.2672 30.3511 7.1632C31.3751 8.10187 32.2711 9.31787 33.0391 10.8112C34.3191 13.4139 34.9591 16.2085 34.9591 19.1952C34.9591 21.1152 34.6178 23.0779 33.9351 25.0832C32.7831 28.4965 31.1618 31.4405 29.0711 33.9152C27.8765 35.3659 26.6178 36.5819 25.2951 37.5632C23.6738 38.8432 22.0311 39.9525 20.3671 40.8912C19.4285 41.4459 18.2978 41.9365 16.9751 42.3632C15.8658 42.7045 14.8845 42.8752 14.0311 42.8752C13.7325 42.8752 13.5405 43.0032 13.4551 43.2592C13.3698 43.4725 13.2205 43.7712 13.0071 44.1552C12.8365 44.5392 12.7511 44.7739 12.7511 44.8592C12.3671 45.4992 11.7698 45.8192 10.9591 45.8192C10.0631 45.7339 9.25247 45.4992 8.52713 45.1152ZM9.61513 43.3232V43.1952L9.48713 43.1312C9.4018 43.1739 9.2738 43.2379 9.10313 43.3232C8.97513 43.3659 8.8898 43.3872 8.84713 43.3872C8.6338 43.6005 8.59113 43.8352 8.71913 44.0912L9.03913 44.4752C9.29513 44.2192 9.48713 43.8352 9.61513 43.3232ZM42.6591 36.2832L40.2911 35.1312C39.7365 34.8325 39.2458 34.2992 38.8191 33.5312C38.3071 32.5925 38.0511 31.3125 38.0511 29.6912C38.0511 27.4725 38.6058 25.3605 39.7151 23.3552C40.0565 22.8859 40.4831 22.3952 40.9951 21.8832L41.5071 21.4992C41.6778 21.3285 41.9551 21.2432 42.3391 21.2432C42.5525 21.2432 42.7658 21.3072 42.9791 21.4352C43.1071 21.5205 43.2778 21.6699 43.4911 21.8832C43.0218 22.0539 42.6378 22.4379 42.3391 23.0352C41.4431 24.6139 40.9098 26.1712 40.7391 27.7072C40.6111 28.4752 40.5471 29.2645 40.5471 30.0752C40.5471 30.2032 40.5898 30.7792 40.6751 31.8032C40.8458 32.8272 41.1445 33.7232 41.5711 34.4912C41.8271 34.9605 42.1045 35.1952 42.4031 35.1952L42.9151 35.0672C43.7258 34.8965 44.4725 34.3632 45.1551 33.4672C45.9231 32.4432 46.3925 31.2912 46.5631 30.0112C46.7765 29.0299 46.8405 28.3259 46.7551 27.8992C46.7551 27.5579 46.6058 27.3659 46.3071 27.3232H46.1791C45.3258 27.2805 44.1311 26.8539 42.5951 26.0432L42.4671 25.9152C41.9551 25.6165 41.6991 25.2965 41.6991 24.9552C41.6991 24.6139 41.8485 24.2939 42.1471 23.9952C42.6165 23.3979 43.1711 23.0992 43.8111 23.0992C44.0671 23.0992 44.3658 23.1632 44.7071 23.2912C45.0911 23.4192 45.7951 23.7605 46.8191 24.3152C47.3311 24.6139 47.7365 24.9979 48.0351 25.4672C48.1631 25.7232 48.3765 25.8299 48.6751 25.7872L50.4671 25.4032C52.5578 24.9765 54.0938 24.7419 55.0751 24.6992C55.5445 24.6992 55.9285 24.7845 56.2271 24.9552L56.9951 25.4032C57.0805 25.4885 57.1231 25.5525 57.1231 25.5952L56.9311 25.7872C54.6271 26.2139 53.2618 26.4485 52.8351 26.4912C51.8965 26.6192 50.5951 26.8539 48.9311 27.1952C48.6751 27.3659 48.5471 27.5579 48.5471 27.7712C48.5045 28.9659 48.2911 30.2245 47.9071 31.5472C47.2671 33.2112 46.7125 34.3419 46.2431 34.9392C45.8591 35.4512 45.4111 35.8352 44.8991 36.0912C44.5151 36.3472 44.0885 36.4752 43.6191 36.4752C43.3205 36.4752 43.0005 36.4112 42.6591 36.2832ZM45.5391 26.2352H45.9871C46.4138 26.2352 46.5418 26.0219 46.3711 25.5952L46.1151 25.1472C45.8591 24.7205 45.6245 24.5072 45.4111 24.5072C45.2831 24.5072 45.0698 24.5925 44.7711 24.7632C44.3445 25.0192 44.0885 25.3179 44.0031 25.6592C44.0031 25.8725 44.0885 26.0005 44.2591 26.0432C44.8991 26.1712 45.3258 26.2352 45.5391 26.2352ZM74.3271 25.2112C74.3271 25.3392 74.2418 25.4245 74.0711 25.4672L73.3031 25.8512C72.9191 25.9792 71.8951 26.4059 70.2311 27.1312C69.5911 27.3872 68.5245 27.9845 67.0311 28.9232C66.6471 29.1365 66.3911 29.4779 66.2631 29.9472C65.8365 31.4405 65.0471 33.0405 63.8951 34.7472C63.2551 35.4725 62.8498 35.8992 62.6791 36.0272C62.3378 36.3685 61.9538 36.4752 61.5271 36.3472L60.5671 36.1552C60.2685 36.0699 60.0978 35.8992 60.0551 35.6432C60.0125 35.5579 59.9911 35.3445 59.9911 35.0032C59.9911 34.6192 60.0551 34.2139 60.1831 33.7872C60.2685 33.5739 60.5671 33.0619 61.0791 32.2512C62.1031 30.9285 63.0631 29.9472 63.9591 29.3072C64.2151 29.0939 64.4071 28.8165 64.5351 28.4752C64.9191 26.9392 65.1111 25.4032 65.1111 23.8672C65.1111 23.0139 65.0471 22.1392 64.9191 21.2432C64.8338 20.6459 64.7058 20.2619 64.5351 20.0912C64.3645 20.1765 64.1298 20.3685 63.8311 20.6672C63.4471 21.1365 63.0631 21.7339 62.6791 22.4592C62.4658 22.9285 62.2311 23.4832 61.9751 24.1232C61.7191 24.7632 61.5698 25.1045 61.5271 25.1472C60.8445 27.0672 60.1191 29.7765 59.3511 33.2752C59.0525 34.9819 58.7965 36.7099 58.5831 38.4592C58.5831 38.5019 58.5405 38.7152 58.4551 39.0992C58.4125 39.4832 58.3698 39.8245 58.3271 40.1232C58.1991 41.2752 57.9858 43.9419 57.6871 48.1232C57.6018 50.4272 57.5591 51.7072 57.5591 51.9632L57.4951 53.8832V54.6512C57.4951 54.9072 57.3671 55.0779 57.1111 55.1632L56.0231 55.3552C55.8098 55.3552 55.6818 55.2699 55.6391 55.0992C55.5111 54.8859 55.4045 54.5445 55.3191 54.0752C55.3191 53.9472 55.2765 53.2432 55.1911 51.9632C55.1911 49.7445 55.2551 47.5045 55.3831 45.2432C55.5538 41.8299 55.6391 38.9499 55.6391 36.6032C55.6391 35.1099 55.6178 34.1499 55.5751 33.7232L55.5111 30.8432C55.5111 25.4245 55.5325 21.9259 55.5751 20.3472C55.7458 16.4645 55.8525 13.9685 55.8951 12.8592C55.8951 12.7312 55.9378 12.2832 56.0231 11.5152C56.1085 11.3019 56.2578 11.2165 56.4711 11.2592L56.7911 11.3872C57.2605 11.5152 57.5165 11.7925 57.5591 12.2192C57.7298 13.5419 57.8365 15.2059 57.8791 17.2112L58.0711 30.5872C58.0711 31.0992 58.1351 31.5045 58.2631 31.8032L58.7111 29.6912C59.3511 27.0032 60.0978 24.5925 60.9511 22.4592C61.1645 21.9045 61.4845 21.2432 61.9111 20.4752C62.1671 20.0912 62.4658 19.7285 62.8071 19.3872C63.2338 18.9605 63.6818 18.8112 64.1511 18.9392L65.4951 19.1952C65.9645 19.3232 66.3271 19.6219 66.5831 20.0912C67.0098 20.8592 67.2445 21.6699 67.2871 22.5232C67.3725 24.1445 67.3085 25.4672 67.0951 26.4912L67.0311 27.1312L67.0951 27.2592C67.1805 27.3019 67.2658 27.2805 67.3511 27.1952C67.4791 27.1099 67.5645 27.0672 67.6071 27.0672C68.8445 26.4272 70.4445 25.7659 72.4071 25.0832C72.7485 24.9552 73.0471 24.8912 73.3031 24.8912C73.3885 24.8912 73.6018 24.9339 73.9431 25.0192C74.1565 25.0192 74.2845 25.0832 74.3271 25.2112ZM63.1911 32.2512L63.3191 31.8032L62.6151 32.6352C62.1885 33.2325 61.8685 33.7445 61.6551 34.1712C61.5698 34.3845 61.5698 34.5339 61.6551 34.6192C61.9111 34.4912 62.1885 34.1499 62.4871 33.5952C62.8285 33.0405 63.0631 32.5925 63.1911 32.2512ZM76.3466 36.2832L73.9786 35.1312C73.424 34.8325 72.9333 34.2992 72.5066 33.5312C71.9946 32.5925 71.7386 31.3125 71.7386 29.6912C71.7386 27.4725 72.2933 25.3605 73.4026 23.3552C73.744 22.8859 74.1706 22.3952 74.6826 21.8832L75.1946 21.4992C75.3653 21.3285 75.6426 21.2432 76.0266 21.2432C76.24 21.2432 76.4533 21.3072 76.6666 21.4352C76.7946 21.5205 76.9653 21.6699 77.1786 21.8832C76.7093 22.0539 76.3253 22.4379 76.0266 23.0352C75.1306 24.6139 74.5973 26.1712 74.4266 27.7072C74.2986 28.4752 74.2346 29.2645 74.2346 30.0752C74.2346 30.2032 74.2773 30.7792 74.3626 31.8032C74.5333 32.8272 74.832 33.7232 75.2586 34.4912C75.5146 34.9605 75.792 35.1952 76.0906 35.1952L76.6026 35.0672C77.4133 34.8965 78.16 34.3632 78.8426 33.4672C79.6106 32.4432 80.08 31.2912 80.2506 30.0112C80.464 29.0299 80.528 28.3259 80.4426 27.8992C80.4426 27.5579 80.2933 27.3659 79.9946 27.3232H79.8666C79.0133 27.2805 77.8186 26.8539 76.2826 26.0432L76.1546 25.9152C75.6426 25.6165 75.3866 25.2965 75.3866 24.9552C75.3866 24.6139 75.536 24.2939 75.8346 23.9952C76.304 23.3979 76.8586 23.0992 77.4986 23.0992C77.7546 23.0992 78.0533 23.1632 78.3946 23.2912C78.7786 23.4192 79.4826 23.7605 80.5066 24.3152C81.0186 24.6139 81.424 24.9979 81.7226 25.4672C81.8506 25.7232 82.064 25.8299 82.3626 25.7872L84.1546 25.4032C86.2453 24.9765 87.7813 24.7419 88.7626 24.6992C89.232 24.6992 89.616 24.7845 89.9146 24.9552L90.6826 25.4032C90.768 25.4885 90.8106 25.5525 90.8106 25.5952L90.6186 25.7872C88.3146 26.2139 86.9493 26.4485 86.5226 26.4912C85.584 26.6192 84.2826 26.8539 82.6186 27.1952C82.3626 27.3659 82.2346 27.5579 82.2346 27.7712C82.192 28.9659 81.9786 30.2245 81.5946 31.5472C80.9546 33.2112 80.4 34.3419 79.9306 34.9392C79.5466 35.4512 79.0986 35.8352 78.5866 36.0912C78.2026 36.3472 77.776 36.4752 77.3066 36.4752C77.008 36.4752 76.688 36.4112 76.3466 36.2832ZM79.2266 26.2352H79.6746C80.1013 26.2352 80.2293 26.0219 80.0586 25.5952L79.8026 25.1472C79.5466 24.7205 79.312 24.5072 79.0986 24.5072C78.9706 24.5072 78.7573 24.5925 78.4586 24.7632C78.032 25.0192 77.776 25.3179 77.6906 25.6592C77.6906 25.8725 77.776 26.0005 77.9466 26.0432C78.5866 26.1712 79.0133 26.2352 79.2266 26.2352ZM95.1506 36.4752C94.8946 36.2619 94.7026 35.9205 94.5746 35.4512C94.3186 34.7259 94.1693 33.8085 94.1266 32.6992C94.1266 31.5472 94.2333 30.5232 94.4466 29.6272C94.4893 29.4565 94.596 28.9872 94.7666 28.2192C94.98 27.4512 95.1293 26.9179 95.2146 26.6192C95.5986 25.4672 95.876 24.3579 96.0466 23.2912C96.0893 23.2485 96.1106 23.0779 96.1106 22.7792C96.1106 22.5232 95.9826 22.4592 95.7266 22.5872C95.3 22.7579 94.788 23.0352 94.1906 23.4192C93.124 24.0592 92.1426 24.8485 91.2466 25.7872C90.7346 26.4699 90.4573 26.8539 90.4146 26.9392C90.2866 27.1525 90.1586 27.1952 90.0306 27.0672L88.7506 26.2352C88.6226 26.0219 88.58 25.8512 88.6226 25.7232L89.0706 24.9552C89.8386 23.8032 90.9053 22.7579 92.2706 21.8192L94.0626 20.6032L94.3186 20.4752C94.8306 20.2619 95.2146 20.1552 95.4706 20.1552C95.8973 20.1552 96.2813 20.3259 96.6226 20.6672L97.8386 21.6272C98.1373 21.7979 98.3293 22.1605 98.4146 22.7152C98.4146 22.8432 98.372 23.3765 98.2866 24.3152L97.6466 27.7072C97.5613 28.1765 97.3906 29.5632 97.1346 31.8672C97.0493 33.2325 97.0066 33.9792 97.0066 34.1072L97.0706 35.7712V36.0912C97.156 36.2619 97.2413 36.3045 97.3266 36.2192L98.0306 35.9632C98.372 35.7925 98.7986 35.4512 99.3106 34.9392C100.121 34.2565 101.039 33.2325 102.063 31.8672L104.879 27.7072L106.095 25.9152C106.351 25.5312 106.628 25.1472 106.927 24.7632C107.012 24.5499 107.119 24.5285 107.247 24.6992C107.289 24.7419 107.375 24.8059 107.503 24.8912C107.759 25.0619 107.887 25.1899 107.887 25.2752C107.887 25.3179 107.78 25.5099 107.567 25.8512C106.969 26.6192 105.988 28.0485 104.623 30.1392L101.679 34.1712C100.911 35.1952 100.079 36.1552 99.1826 37.0512L98.0306 37.8832C97.6893 38.0965 97.3906 38.0965 97.1346 37.8832C96.9213 37.7125 96.58 37.4779 96.1106 37.1792C95.6413 36.8379 95.3213 36.6032 95.1506 36.4752ZM121.493 36.7312L119.381 36.1552C118.912 36.0272 118.421 35.5792 117.909 34.8112C117.44 34.0432 117.12 33.2112 116.949 32.3152C116.821 31.8032 116.693 30.8005 116.565 29.3072C116.48 28.1979 116.437 26.8752 116.437 25.3392C116.437 25.2112 116.437 25.0619 116.437 24.8912C116.437 24.7205 116.437 24.5499 116.437 24.3792C116.437 24.2085 116.437 24.1019 116.437 24.0592C116.352 23.9739 116.266 24.0165 116.181 24.1872L115.797 25.0192C114.432 28.0059 112.938 30.6512 111.317 32.9552C110.72 33.7232 110.357 34.1712 110.229 34.2992C109.973 34.5552 109.653 34.6192 109.269 34.4912L107.925 34.1072C107.328 33.9792 106.901 33.6165 106.645 33.0192C106.304 32.1232 106.09 31.2485 106.005 30.3952L105.941 28.5392C105.941 28.3685 105.984 27.4725 106.069 25.8512C106.24 24.1445 106.432 22.9072 106.645 22.1392C106.816 21.6272 106.986 21.3712 107.157 21.3712C107.285 21.3712 107.52 21.4352 107.861 21.5632C108.202 21.6912 108.373 21.9685 108.373 22.3952C108.458 24.4432 108.501 25.6165 108.501 25.9152C108.586 27.2805 108.736 28.9232 108.949 30.8432C108.992 31.0992 109.077 31.6752 109.205 32.5712C109.205 32.6565 109.226 32.7205 109.269 32.7632C109.354 32.7632 109.418 32.7419 109.461 32.6992C109.888 32.4432 110.272 32.0379 110.613 31.4832C111.424 30.4592 112.192 29.2645 112.917 27.8992C113.984 25.8939 115.05 23.5685 116.117 20.9232L116.757 19.2592C116.97 18.7899 117.12 18.3419 117.205 17.9152C117.248 17.5739 117.397 17.1045 117.653 16.5072C117.696 16.3365 117.824 16.2725 118.037 16.3152L119.381 16.7632C119.68 16.8912 119.893 17.1045 120.021 17.4032C120.192 17.8725 120.234 18.5552 120.149 19.4512L119.893 23.2272C119.808 24.8485 119.765 26.6619 119.765 28.6672C119.765 29.5632 119.893 30.9072 120.149 32.6992C120.277 33.5525 120.512 34.3632 120.853 35.1312C120.981 35.4299 121.088 35.5792 121.173 35.5792C121.344 35.5792 121.514 35.4939 121.685 35.3232C122.325 34.9392 122.88 34.4272 123.349 33.7872C123.776 33.2325 124.565 32.0379 125.717 30.2032C126.784 28.4965 127.488 27.2592 127.829 26.4912C128.042 25.9365 128.298 25.5099 128.597 25.2112C128.81 24.9979 129.002 24.9125 129.173 24.9552C129.856 25.1259 130.261 25.2752 130.389 25.4032C130.048 26.0859 129.749 26.5979 129.493 26.9392C128.938 27.7072 128.384 28.5819 127.829 29.5632L125.973 32.7632C125.077 34.2139 124.352 35.2165 123.797 35.7712L123.029 36.4112C122.56 36.7525 122.048 36.8592 121.493 36.7312ZM143.353 25.4032L141.881 27.3232L139.513 30.3952C138.489 31.5472 137.444 32.4219 136.377 33.0192C136.249 33.1472 136.014 33.2539 135.673 33.3392C135.374 33.5099 134.969 33.5952 134.457 33.5952C134.116 33.5952 133.817 33.5525 133.561 33.4672C132.025 32.9125 130.809 32.2725 129.913 31.5472C128.505 30.3952 127.801 28.8165 127.801 26.8112C127.801 25.0619 128.249 23.5899 129.145 22.3952C129.785 21.4139 130.574 20.7739 131.513 20.4752C131.854 20.3472 132.174 20.2832 132.473 20.2832C132.942 20.2832 133.39 20.4112 133.817 20.6672L134.713 21.1152C135.268 21.4139 135.545 21.8619 135.545 22.4592L135.417 23.0992C135.374 23.3125 135.289 23.4619 135.161 23.5472C134.692 24.3152 133.988 25.0619 133.049 25.7872C132.409 26.1712 131.748 26.3845 131.065 26.4272C130.724 26.4699 130.553 26.6832 130.553 27.0672C130.468 28.7739 130.809 30.1819 131.577 31.2912L131.833 31.7392C132.26 32.2939 132.708 32.5712 133.177 32.5712C133.433 32.5712 133.71 32.5072 134.009 32.3792C134.692 32.2085 135.353 31.8885 135.993 31.4192C137.145 30.5232 138.169 29.5205 139.065 28.4112L140.409 26.6192L141.689 25.1472C141.945 24.8912 142.116 24.7632 142.201 24.7632C142.286 24.7632 142.372 24.8059 142.457 24.8912C142.585 24.9765 142.692 25.0192 142.777 25.0192C143.118 25.0619 143.31 25.1899 143.353 25.4032ZM130.937 25.7232L131.257 25.6592C132.366 25.1045 133.262 24.2512 133.945 23.0992C134.116 22.6299 134.18 22.2459 134.137 21.9472V21.7552C134.052 21.4139 133.86 21.3072 133.561 21.4352C133.134 21.5632 132.772 21.7765 132.473 22.0752C131.492 22.8859 130.916 24.0379 130.745 25.5312C130.66 25.6592 130.724 25.7232 130.937 25.7232ZM166.901 36.4752C166.645 36.2619 166.453 35.9205 166.325 35.4512C166.069 34.7259 165.919 33.8085 165.877 32.6992C165.877 31.5472 165.983 30.5232 166.197 29.6272C166.239 29.4565 166.346 28.9872 166.517 28.2192C166.73 27.4512 166.879 26.9179 166.965 26.6192C167.349 25.4672 167.626 24.3579 167.797 23.2912C167.839 23.2485 167.861 23.0779 167.861 22.7792C167.861 22.5232 167.733 22.4592 167.477 22.5872C167.05 22.7579 166.538 23.0352 165.941 23.4192C164.874 24.0592 163.893 24.8485 162.997 25.7872C162.485 26.4699 162.207 26.8539 162.165 26.9392C162.037 27.1525 161.909 27.1952 161.781 27.0672L160.501 26.2352C160.373 26.0219 160.33 25.8512 160.373 25.7232L160.821 24.9552C161.589 23.8032 162.655 22.7579 164.021 21.8192L165.813 20.6032L166.069 20.4752C166.581 20.2619 166.965 20.1552 167.221 20.1552C167.647 20.1552 168.031 20.3259 168.373 20.6672L169.589 21.6272C169.887 21.7979 170.079 22.1605 170.165 22.7152C170.165 22.8432 170.122 23.3765 170.037 24.3152L169.397 27.7072C169.311 28.1765 169.141 29.5632 168.885 31.8672C168.799 33.2325 168.757 33.9792 168.757 34.1072L168.821 35.7712V36.0912C168.906 36.2619 168.991 36.3045 169.077 36.2192L169.781 35.9632C170.122 35.7925 170.549 35.4512 171.061 34.9392C171.871 34.2565 172.789 33.2325 173.813 31.8672L176.629 27.7072L177.845 25.9152C178.101 25.5312 178.378 25.1472 178.677 24.7632C178.762 24.5499 178.869 24.5285 178.997 24.6992C179.039 24.7419 179.125 24.8059 179.253 24.8912C179.509 25.0619 179.637 25.1899 179.637 25.2752C179.637 25.3179 179.53 25.5099 179.317 25.8512C178.719 26.6192 177.738 28.0485 176.373 30.1392L173.429 34.1712C172.661 35.1952 171.829 36.1552 170.933 37.0512L169.781 37.8832C169.439 38.0965 169.141 38.0965 168.885 37.8832C168.671 37.7125 168.33 37.4779 167.861 37.1792C167.391 36.8379 167.071 36.6032 166.901 36.4752ZM181.659 36.2832L179.291 35.1312C178.736 34.8325 178.246 34.2992 177.819 33.5312C177.307 32.5925 177.051 31.3125 177.051 29.6912C177.051 27.4725 177.606 25.3605 178.715 23.3552C179.056 22.8859 179.483 22.3952 179.995 21.8832L180.507 21.4992C180.678 21.3285 180.955 21.2432 181.339 21.2432C181.552 21.2432 181.766 21.3072 181.979 21.4352C182.107 21.5205 182.278 21.6699 182.491 21.8832C182.022 22.0539 181.638 22.4379 181.339 23.0352C180.443 24.6139 179.91 26.1712 179.739 27.7072C179.611 28.4752 179.547 29.2645 179.547 30.0752C179.547 30.2032 179.59 30.7792 179.675 31.8032C179.846 32.8272 180.144 33.7232 180.571 34.4912C180.827 34.9605 181.104 35.1952 181.403 35.1952L181.915 35.0672C182.726 34.8965 183.472 34.3632 184.155 33.4672C184.923 32.4432 185.392 31.2912 185.563 30.0112C185.776 29.0299 185.84 28.3259 185.755 27.8992C185.755 27.5579 185.606 27.3659 185.307 27.3232H185.179C184.326 27.2805 183.131 26.8539 181.595 26.0432L181.467 25.9152C180.955 25.6165 180.699 25.2965 180.699 24.9552C180.699 24.6139 180.848 24.2939 181.147 23.9952C181.616 23.3979 182.171 23.0992 182.811 23.0992C183.067 23.0992 183.366 23.1632 183.707 23.2912C184.091 23.4192 184.795 23.7605 185.819 24.3152C186.331 24.6139 186.736 24.9979 187.035 25.4672C187.163 25.7232 187.376 25.8299 187.675 25.7872L189.467 25.4032C191.558 24.9765 193.094 24.7419 194.075 24.6992C194.544 24.6992 194.928 24.7845 195.227 24.9552L195.995 25.4032C196.08 25.4885 196.123 25.5525 196.123 25.5952L195.931 25.7872C193.627 26.2139 192.262 26.4485 191.835 26.4912C190.896 26.6192 189.595 26.8539 187.931 27.1952C187.675 27.3659 187.547 27.5579 187.547 27.7712C187.504 28.9659 187.291 30.2245 186.907 31.5472C186.267 33.2112 185.712 34.3419 185.243 34.9392C184.859 35.4512 184.411 35.8352 183.899 36.0912C183.515 36.3472 183.088 36.4752 182.619 36.4752C182.32 36.4752 182 36.4112 181.659 36.2832ZM184.539 26.2352H184.987C185.414 26.2352 185.542 26.0219 185.371 25.5952L185.115 25.1472C184.859 24.7205 184.624 24.5072 184.411 24.5072C184.283 24.5072 184.07 24.5925 183.771 24.7632C183.344 25.0192 183.088 25.3179 183.003 25.6592C183.003 25.8725 183.088 26.0005 183.259 26.0432C183.899 26.1712 184.326 26.2352 184.539 26.2352ZM197.135 34.8112L195.919 34.3632C194.852 33.9792 194.106 33.2752 193.679 32.2512C193.082 30.9712 192.826 29.6272 192.911 28.2192C192.911 26.2992 193.146 24.5072 193.615 22.8432C194.17 20.7525 195.066 19.0245 196.303 17.6592C196.986 16.8485 197.626 16.2299 198.223 15.8032L198.927 15.3552C199.226 15.1845 199.588 15.1632 200.015 15.2912L201.231 15.8032C201.572 16.0592 201.594 16.2299 201.295 16.3152C200.698 16.9125 200.25 17.4032 199.951 17.7872C198.543 19.7499 197.562 21.7552 197.007 23.8032C196.751 24.9552 196.516 26.1712 196.303 27.4512C196.26 27.6645 196.239 28.1979 196.239 29.0512C196.154 30.4165 196.218 31.5045 196.431 32.3152C196.474 32.7845 196.602 33.2325 196.815 33.6592C196.858 33.9579 197.028 34.1072 197.327 34.1072C197.796 34.1072 198.394 33.9152 199.119 33.5312C199.802 33.1472 200.399 32.6992 200.911 32.1872C201.423 31.7179 202.447 30.5445 203.983 28.6672L206.479 25.4032C206.82 25.0192 207.034 24.8272 207.119 24.8272C207.247 24.8272 207.46 24.8912 207.759 25.0192L208.079 25.2112C208.164 25.2539 208.186 25.3605 208.143 25.5312L208.015 25.7232L207.119 26.8752C205.242 29.3499 203.834 31.0565 202.895 31.9952C202.426 32.5072 201.935 32.9979 201.423 33.4672C200.74 34.0219 199.951 34.4699 199.055 34.8112C198.458 34.8965 198.138 34.9392 198.095 34.9392C198.052 34.9392 197.732 34.8965 197.135 34.8112ZM206.956 39.4832C206.657 39.4405 206.444 39.2699 206.316 38.9712L205.676 37.3072C205.249 35.8565 205.036 34.2352 205.036 32.4432C205.036 30.9925 205.121 29.1365 205.292 26.8752L205.42 25.4672C205.591 23.7605 205.676 22.7365 205.676 22.3952C205.889 19.6645 206.06 17.9792 206.188 17.3392L206.892 12.8592C206.935 12.3045 207.084 12.0272 207.34 12.0272C207.511 12.0272 207.745 12.0912 208.044 12.2192C208.343 12.3472 208.513 12.5605 208.556 12.8592L208.748 13.7552C208.961 15.6752 209.068 17.2325 209.068 18.4272C209.111 18.9819 209.132 20.2619 209.132 22.2672C209.132 24.2725 209.111 25.5525 209.068 26.1072C208.983 29.1792 208.94 30.9072 208.94 31.2912C208.94 31.7179 208.961 31.9952 209.004 32.1232C209.175 31.9952 209.26 31.8885 209.26 31.8032L210.412 27.5792C211.052 25.5739 211.692 23.9525 212.332 22.7152C212.545 22.1605 212.801 21.7339 213.1 21.4352C213.441 20.9659 213.889 20.8165 214.444 20.9872C214.913 21.1579 215.212 21.2432 215.34 21.2432C215.767 21.3712 216.065 21.6272 216.236 22.0112L216.62 22.9712L217.772 26.1072L217.836 26.2992C217.964 26.8539 218.156 27.1312 218.412 27.1312C218.497 27.1312 218.775 26.9605 219.244 26.6192C220.268 25.6805 220.887 25.0832 221.1 24.8272C221.228 24.6565 221.655 24.2939 222.38 23.7392C222.764 23.4832 223.148 23.4192 223.532 23.5472L224.94 23.9312C225.367 24.0592 225.708 24.3152 225.964 24.6992L227.052 26.4912L227.756 27.8352L228.204 28.4112C228.417 28.6245 228.695 28.7312 229.036 28.7312C229.377 28.7312 229.591 28.7099 229.676 28.6672C231.639 28.3259 233.175 27.8352 234.284 27.1952L236.972 25.4672L237.932 24.8912C238.188 24.8485 238.401 24.8485 238.572 24.8912L238.764 24.9552C239.319 25.1259 239.596 25.2539 239.596 25.3392V25.4032C239.596 25.7019 239.383 25.9152 238.956 26.0432L237.292 27.3232C235.927 28.3899 234.22 29.0725 232.172 29.3712C231.276 29.4992 230.7 29.5632 230.444 29.5632C229.121 29.5632 227.777 29.2005 226.412 28.4752C226.028 28.2192 225.687 27.8992 225.388 27.5152C225.175 27.2592 224.812 26.5552 224.3 25.4032C224.087 24.8912 223.916 24.6352 223.788 24.6352C223.575 24.6352 223.319 24.7845 223.02 25.0832L222.06 26.0432L220.908 27.2592C220.695 27.4725 220.439 27.6859 220.14 27.8992C219.713 28.1979 219.223 28.2832 218.668 28.1552L217.324 27.7072C216.471 27.4512 215.873 26.8965 215.532 26.0432C215.233 25.4459 215.041 24.8272 214.956 24.1872L214.572 22.5232C214.529 22.4379 214.465 22.3952 214.38 22.3952C214.337 22.3525 214.295 22.3739 214.252 22.4592L213.676 23.1632C212.823 24.3579 212.012 26.1712 211.244 28.6032C210.945 29.6272 210.647 30.9072 210.348 32.4432L209.9 34.3632L209.132 37.8192C209.089 38.2459 209.004 38.8005 208.876 39.4832C208.876 39.7392 208.727 39.8459 208.428 39.8032C208.385 39.8032 208.193 39.7819 207.852 39.7392C207.553 39.6539 207.255 39.5685 206.956 39.4832ZM229.356 17.7232L229.036 17.6592C227.244 17.5312 225.196 17.0832 222.892 16.3152C221.1 15.6752 219.265 15.1845 217.388 14.8432C217.175 14.8005 216.727 14.7792 216.044 14.7792C215.404 14.7792 214.764 14.8432 214.124 14.9712C213.356 15.0992 212.737 15.3979 212.268 15.8672C212.012 16.0805 211.991 16.2939 212.204 16.5072L212.524 16.8272C212.609 16.9125 212.652 16.9979 212.652 17.0832C212.652 17.2539 212.524 17.3392 212.268 17.3392C211.884 17.3392 211.585 17.1472 211.372 16.7632L210.924 15.4192C210.881 15.3765 210.86 15.2272 210.86 14.9712C210.86 14.7579 210.967 14.4805 211.18 14.1392C211.479 13.7125 211.884 13.3712 212.396 13.1152C212.78 12.9019 213.377 12.6885 214.188 12.4752C214.828 12.3472 215.447 12.2832 216.044 12.2832C216.684 12.2832 217.452 12.3685 218.348 12.5392C219.457 12.6672 220.823 12.9445 222.444 13.3712L224.62 13.8832C226.113 14.2245 227.5 14.4379 228.78 14.5232H229.292C230.017 14.5232 230.615 14.4379 231.084 14.2672C231.383 14.2245 231.532 14.0752 231.532 13.8192C231.532 13.6912 231.596 13.6272 231.724 13.6272C231.767 13.6272 231.831 13.6699 231.916 13.7552C232.172 14.6939 232.3 15.4192 232.3 15.9312L232.236 16.5072C232.151 16.8912 231.937 17.1685 231.596 17.3392C231.169 17.5099 230.423 17.6379 229.356 17.7232ZM253.243 36.7312L251.131 36.1552C250.662 36.0272 250.171 35.5792 249.659 34.8112C249.19 34.0432 248.87 33.2112 248.699 32.3152C248.571 31.8032 248.443 30.8005 248.315 29.3072C248.23 28.1979 248.187 26.8752 248.187 25.3392C248.187 25.2112 248.187 25.0619 248.187 24.8912C248.187 24.7205 248.187 24.5499 248.187 24.3792C248.187 24.2085 248.187 24.1019 248.187 24.0592C248.102 23.9739 248.016 24.0165 247.931 24.1872L247.547 25.0192C246.182 28.0059 244.688 30.6512 243.067 32.9552C242.47 33.7232 242.107 34.1712 241.979 34.2992C241.723 34.5552 241.403 34.6192 241.019 34.4912L239.675 34.1072C239.078 33.9792 238.651 33.6165 238.395 33.0192C238.054 32.1232 237.84 31.2485 237.755 30.3952L237.691 28.5392C237.691 28.3685 237.734 27.4725 237.819 25.8512C237.99 24.1445 238.182 22.9072 238.395 22.1392C238.566 21.6272 238.736 21.3712 238.907 21.3712C239.035 21.3712 239.27 21.4352 239.611 21.5632C239.952 21.6912 240.123 21.9685 240.123 22.3952C240.208 24.4432 240.251 25.6165 240.251 25.9152C240.336 27.2805 240.486 28.9232 240.699 30.8432C240.742 31.0992 240.827 31.6752 240.955 32.5712C240.955 32.6565 240.976 32.7205 241.019 32.7632C241.104 32.7632 241.168 32.7419 241.211 32.6992C241.638 32.4432 242.022 32.0379 242.363 31.4832C243.174 30.4592 243.942 29.2645 244.667 27.8992C245.734 25.8939 246.8 23.5685 247.867 20.9232L248.507 19.2592C248.72 18.7899 248.87 18.3419 248.955 17.9152C248.998 17.5739 249.147 17.1045 249.403 16.5072C249.446 16.3365 249.574 16.2725 249.787 16.3152L251.131 16.7632C251.43 16.8912 251.643 17.1045 251.771 17.4032C251.942 17.8725 251.984 18.5552 251.899 19.4512L251.643 23.2272C251.558 24.8485 251.515 26.6619 251.515 28.6672C251.515 29.5632 251.643 30.9072 251.899 32.6992C252.027 33.5525 252.262 34.3632 252.603 35.1312C252.731 35.4299 252.838 35.5792 252.923 35.5792C253.094 35.5792 253.264 35.4939 253.435 35.3232C254.075 34.9392 254.63 34.4272 255.099 33.7872C255.526 33.2325 256.315 32.0379 257.467 30.2032C258.534 28.4965 259.238 27.2592 259.579 26.4912C259.792 25.9365 260.048 25.5099 260.347 25.2112C260.56 24.9979 260.752 24.9125 260.923 24.9552C261.606 25.1259 262.011 25.2752 262.139 25.4032C261.798 26.0859 261.499 26.5979 261.243 26.9392C260.688 27.7072 260.134 28.5819 259.579 29.5632L257.723 32.7632C256.827 34.2139 256.102 35.2165 255.547 35.7712L254.779 36.4112C254.31 36.7525 253.798 36.8592 253.243 36.7312Z" fill="black"></path></svg> 