<?xml version="1.0" encoding="UTF-8"?> <svg xmlns="http://www.w3.org/2000/svg" width="62" height="24" viewBox="0 0 62 24" fill="none"><path d="M0.217125 19.1891H1.87313C2.35313 18.7731 2.82513 18.2531 3.28913 17.6291C3.75313 17.0051 4.20113 16.2771 4.63313 15.4451C5.06513 14.6131 5.41713 13.6531 5.68913 12.5651C5.96113 11.4771 6.09713 10.3651 6.09713 9.22909V4.35709C6.09713 3.52509 5.99313 3.02109 5.78513 2.84509C5.59313 2.66909 5.07313 2.58109 4.22513 2.58109H3.69713V2.36509H15.3851V2.58109H14.5211C13.9611 2.58109 13.6091 2.67709 13.4651 2.86909C13.3211 3.06109 13.2491 3.46109 13.2491 4.06909V19.1891H15.3851V23.6531H14.5211V21.1091C14.5211 20.5011 14.4411 20.1011 14.2811 19.9091C14.1371 19.7171 13.7851 19.6211 13.2251 19.6211H2.37713C1.81713 19.6211 1.45713 19.7171 1.29713 19.9091C1.15313 20.1011 1.08113 20.5011 1.08113 21.1091V23.6531H0.217125V19.1891ZM4.53713 19.1891H11.3771V2.79709H6.72113V8.65309C6.72113 10.8931 6.51313 12.9251 6.09713 14.7491C5.69713 16.5571 5.17713 18.0371 4.53713 19.1891ZM18.63 10.2611C18.63 10.3571 18.63 10.4531 18.63 10.5491C18.63 13.3811 19.23 15.5651 20.43 17.1011C21.646 18.6211 23.294 19.3811 25.374 19.3811C26.974 19.3811 28.39 19.0611 29.622 18.4211C30.854 17.7651 31.822 16.8451 32.526 15.6611L32.862 15.9251C32.11 17.1571 31.078 18.1171 29.766 18.8051C28.47 19.4771 26.982 19.8131 25.302 19.8131C22.758 19.8131 20.654 18.9971 18.99 17.3651C17.326 15.7171 16.494 13.5731 16.494 10.9331C16.494 8.30909 17.302 6.19709 18.918 4.59709C20.55 2.98109 22.694 2.17309 25.35 2.17309C27.494 2.17309 29.31 2.85309 30.798 4.21309C32.286 5.57309 33.03 7.31709 33.03 9.44509V9.56509C33.03 9.75709 32.958 9.92509 32.814 10.0691C32.67 10.1971 32.494 10.2611 32.286 10.2611H18.63ZM18.654 9.82909L30.702 9.66109C30.83 9.66109 30.894 9.58909 30.894 9.44509C30.894 7.39709 30.374 5.74909 29.334 4.50109C28.31 3.23709 26.95 2.60509 25.254 2.60509C23.206 2.60509 21.614 3.22109 20.478 4.45309C19.358 5.68509 18.75 7.47709 18.654 9.82909ZM36.0105 19.6211V19.4051H37.8345C38.4105 19.4051 38.7625 19.3411 38.8905 19.2131C39.0345 19.0691 39.1065 18.7091 39.1065 18.1331V2.79709H37.6665C36.4665 2.79709 35.6425 2.98109 35.1945 3.34909C34.7465 3.70109 34.4905 4.43709 34.4265 5.55709L34.3545 6.54109L33.9225 6.51709L34.2825 0.949092L34.5465 0.973094L34.4265 2.36509H45.6105L45.4905 0.997093L45.7545 0.973094L46.1145 6.51709L45.6825 6.54109L45.6105 5.55709C45.5305 4.43709 45.2665 3.70109 44.8185 3.34909C44.3705 2.98109 43.5545 2.79709 42.3705 2.79709H40.9785V18.1331C40.9785 18.7091 41.0425 19.0691 41.1705 19.2131C41.3145 19.3411 41.6745 19.4051 42.2505 19.4051H44.0265V19.6211H36.0105ZM46.9086 19.6211V19.4051H47.7486C48.3086 19.4051 48.6606 19.3091 48.8046 19.1171C48.9486 18.9251 49.0206 18.5251 49.0206 17.9171V4.06909C49.0206 3.46109 48.9486 3.06109 48.8046 2.86909C48.6606 2.67709 48.3086 2.58109 47.7486 2.58109H46.9086V2.36509H52.8126V2.58109H52.1886C51.6286 2.58109 51.2686 2.67709 51.1086 2.86909C50.9646 3.06109 50.8926 3.46109 50.8926 4.06909V17.9891L57.7086 2.36509H61.4766V2.58109H60.6126C60.0526 2.58109 59.7006 2.67709 59.5566 2.86909C59.4126 3.06109 59.3406 3.46109 59.3406 4.06909V17.9171C59.3406 18.5251 59.4126 18.9251 59.5566 19.1171C59.7006 19.3091 60.0526 19.4051 60.6126 19.4051H61.4766V19.6211H55.5486V19.4051H56.1966C56.7566 19.4051 57.1086 19.3091 57.2526 19.1171C57.3966 18.9251 57.4686 18.5251 57.4686 17.9171V3.99709L50.6526 19.6211H46.9086Z" fill="black"></path></svg> 