<?xml version="1.0" encoding="UTF-8"?> <svg xmlns="http://www.w3.org/2000/svg" width="301" height="99" viewBox="0 0 301 99" fill="none"><path d="M146.129 24.3283C141.395 25.398 137.718 28.9695 136.4 33.7659C135.967 35.2842 135.967 38.7522 136.4 40.305C137.111 42.9276 138.724 45.4466 140.753 47.0857C142.088 48.1726 144.481 49.3459 145.938 49.6392C146.562 49.7599 147.082 49.9152 147.082 50.0015C147.082 50.0705 147.949 50.1395 148.99 50.1395C150.048 50.1395 150.897 50.0878 150.897 50.0015C150.897 49.9325 151.348 49.7945 151.903 49.6909C153.915 49.2941 156.568 47.9828 158.233 46.5335L158.874 45.9642V44.2561C158.874 42.7033 158.84 42.548 158.545 42.548C158.319 42.548 158.129 42.7895 157.921 43.3589C156.048 48.3107 149.684 50.4328 144.637 47.793C142.244 46.5335 140.146 43.6177 139.522 40.6501C139.14 38.9075 139.14 35.2842 139.504 33.5761C140.389 29.5561 143.493 26.2779 147.291 25.3807C151.851 24.311 156.395 26.5195 157.851 30.4878C158.129 31.2297 158.319 31.5057 158.545 31.5057C158.84 31.5057 158.874 31.3504 158.874 29.7976V28.0895L158.059 27.3649C156.845 26.3124 155.146 25.3807 153.308 24.7596C151.869 24.2765 151.4 24.2075 149.423 24.1557C147.932 24.104 146.805 24.173 146.129 24.3283Z" fill="#F2EEE3"></path><path d="M49.4662 24.5207C49.154 24.6587 48.6858 24.7795 48.4257 24.7795C48.1656 24.7795 47.8361 24.883 47.6801 24.9865C47.524 25.1073 45.5818 29.8348 43.3795 35.4767C38.2639 48.5721 38.4199 48.1925 37.9517 48.3133C37.7436 48.3651 35.6454 48.4168 33.2696 48.4168H28.9864L29.0211 36.6844L29.0731 24.952H27.4257H25.7783V37.202V49.452H32.628H39.4951L39.7032 48.4513C39.8246 47.9165 40.2928 46.5017 40.7436 45.3112L41.5587 43.1545H47.7841H54.0095L54.7552 45.2249C55.154 46.3636 55.5876 47.7784 55.709 48.3651L55.9344 49.452H57.6338C58.5702 49.452 59.3332 49.4175 59.3332 49.383C59.3332 49.3485 59.1772 48.9517 58.9691 48.5031C58.6569 47.7957 50.3159 24.5034 50.3159 24.3309C50.3159 24.2101 50.0731 24.2619 49.4662 24.5207ZM50.8881 34.2689L53.5413 41.7742L47.9055 41.826C44.8188 41.8432 42.2523 41.826 42.2003 41.7915C42.1656 41.7397 43.3968 38.4615 44.9402 34.4932C48.3737 25.7112 48.0962 26.3841 48.1829 26.5911C48.2176 26.6774 49.4315 30.1453 50.8881 34.2689Z" fill="#F2EEE3"></path><path d="M65.9206 24.5353C62.6258 25.4152 61.2212 28.1413 62.279 31.523C62.7645 33.1103 63.7703 34.4561 67.3079 38.2346C70.7414 41.9268 71.4697 42.9965 71.6084 44.7046C71.7125 46.0332 71.5217 46.7751 70.8975 47.4997C69.6836 48.8627 67.4293 49.1906 65.4871 48.2589C64.3079 47.7068 62.9379 46.3437 62.6258 45.3948C62.4871 44.9634 62.3136 44.7909 62.0709 44.7909C61.7241 44.7909 61.7067 44.8599 61.8108 45.9469C61.8801 46.6025 61.9321 47.3617 61.9321 47.655C61.9321 48.1036 62.0535 48.2416 62.7645 48.6384C64.3079 49.4839 66.1113 49.8462 68.2616 49.7599C69.961 49.6909 70.3252 49.6219 71.3136 49.1561C73.3426 48.2244 74.2616 46.9131 74.383 44.8599C74.5391 42.2029 73.7241 40.7881 69.2501 35.9399C65.6431 32.0061 64.9495 30.9708 64.7587 29.2455C64.62 27.917 64.9321 27.0025 65.7298 26.2779C67.672 24.5353 70.9842 25.1737 72.3021 27.5546C73.0304 28.8832 73.3079 28.6416 73.2212 26.761C73.2038 25.8983 73.1171 25.1392 73.0478 25.0701C72.7703 24.7941 69.6142 24.2592 68.2616 24.2765C67.4986 24.2765 66.4408 24.3973 65.9206 24.5353Z" fill="#F2EEE3"></path><path d="M124.899 24.5207C124.586 24.6587 124.118 24.7795 123.858 24.7795C123.598 24.7795 123.268 24.883 123.112 24.9865C122.956 25.1073 120.945 30.0246 118.638 35.908C116.332 41.7915 114.182 47.2263 113.852 47.9682C113.523 48.7274 113.263 49.3658 113.263 49.4003C113.263 49.4348 113.644 49.452 114.095 49.452H114.927L115.136 48.4513C115.257 47.9165 115.725 46.5017 116.176 45.3112L116.991 43.1545H123.216H129.442L130.188 45.2249C130.586 46.3636 131.02 47.7784 131.141 48.3651L131.367 49.452H133.066C134.003 49.452 134.766 49.4175 134.766 49.383C134.766 49.3485 134.61 48.9517 134.401 48.5031C134.089 47.7957 125.748 24.5034 125.748 24.3309C125.748 24.2101 125.505 24.2619 124.899 24.5207ZM126.32 34.2689L128.974 41.7742L123.338 41.826C120.251 41.8432 117.685 41.826 117.633 41.7915C117.598 41.7397 118.829 38.4615 120.373 34.4932C123.806 25.7112 123.529 26.3841 123.615 26.5911C123.65 26.6774 124.864 30.1453 126.32 34.2689Z" fill="#F2EEE3"></path><path d="M171.719 24.5207C171.407 24.6587 170.939 24.7795 170.678 24.7795C170.418 24.7795 170.089 24.883 169.933 24.9865C169.777 25.1073 167.765 30.0246 165.459 35.908C163.152 41.7915 161.002 47.2263 160.673 47.9682C160.343 48.7274 160.083 49.3658 160.083 49.4003C160.083 49.4348 160.465 49.452 160.915 49.452H161.748L161.956 48.4513C162.077 47.9165 162.545 46.5017 162.996 45.3112L163.811 43.1545H170.037H176.262L177.008 45.2249C177.407 46.3636 177.84 47.7784 177.962 48.3651L178.187 49.452H179.886C180.823 49.452 181.586 49.4175 181.586 49.383C181.586 49.3485 181.43 48.9517 181.222 48.5031C180.91 47.7957 172.569 24.5034 172.569 24.3309C172.569 24.2101 172.326 24.2619 171.719 24.5207ZM173.141 34.2689L175.794 41.7742L170.158 41.826C167.071 41.8432 164.505 41.826 164.453 41.7915C164.418 41.7397 165.649 38.4615 167.193 34.4932C170.626 25.7112 170.349 26.3841 170.436 26.5911C170.47 26.6774 171.684 30.1453 173.141 34.2689Z" fill="#F2EEE3"></path><path d="M80.0596 37.202V49.452H81.707H83.3544L83.3023 41.4291L83.2503 33.4063H89.0769H94.8862V40.7735C94.8862 44.8453 94.8168 48.4513 94.7301 48.7964L94.574 49.452H96.2561H97.9208V37.202V24.952H96.2388H94.5567L94.7301 25.5041C94.8168 25.8147 94.8862 27.4883 94.8862 29.2136V32.371H89.0596H83.2503L83.3023 28.6615L83.3544 24.952H81.707H80.0596V37.202Z" fill="#F2EEE3"></path><path d="M185.146 37.1848V49.452H190.608C196.261 49.452 197.544 49.3485 199.452 48.7274C201.567 48.0545 202.903 47.2436 204.585 45.57C205.885 44.2932 206.302 43.7584 206.891 42.5506C207.88 40.532 208.174 39.2207 208.157 37.0295C208.14 33.5615 207.099 30.9908 204.741 28.6615C203.198 27.1087 201.498 26.1253 199.278 25.4524C198.047 25.0728 197.614 25.0555 191.562 24.9865L185.146 24.9348V37.1848ZM197.354 26.246C202.226 27.402 205.469 32.1122 205.122 37.5471C204.897 40.8598 203.804 43.4133 201.706 45.4837C199.261 47.9165 197.631 48.4168 192.047 48.4168H188.354V37.202V25.9872H192.307C195.203 25.9872 196.539 26.0563 197.354 26.246Z" fill="#F2EEE3"></path><path d="M212.544 37.202V49.452H220.226H227.891V48.7791V48.089L227.336 48.2615C227.024 48.3478 224.284 48.4168 221.266 48.4168H215.752V40.9115V33.4063H219.74H223.729V32.8886V32.371H219.74H215.752V29.1791V25.97L221.128 26.0217L226.503 26.0735V25.5041V24.952H219.532H212.544V37.202Z" fill="#F2EEE3"></path><path d="M231.876 36.926C231.876 43.5168 231.824 49.0207 231.772 49.176C231.685 49.4003 231.806 49.452 232.483 49.452C233.194 49.452 233.28 49.4175 233.159 49.1415C232.968 48.7619 232.847 31.6809 233.038 31.6809C233.107 31.6982 235.17 34.8901 237.616 38.8066C241.344 44.7763 242.107 45.9151 242.436 45.9151C242.766 45.9151 243.46 44.8453 247.049 38.7893C249.355 34.8728 251.298 31.6119 251.367 31.5601C251.436 31.4911 251.454 35.4939 251.436 40.4457L251.384 49.452H253.032H254.679L254.627 37.202C254.592 25.6249 254.575 24.952 254.28 24.952C254.055 24.952 252.529 27.402 248.783 33.7341C245.939 38.5823 243.546 42.4989 243.494 42.4644C243.425 42.4126 240.928 38.4615 237.928 33.6651C234.113 27.5573 232.396 24.952 232.188 24.952C231.893 24.952 231.876 25.6422 231.876 36.926Z" fill="#F2EEE3"></path><path d="M258.911 26.1943C259.466 26.8844 261.772 30.0763 264.026 33.3027L268.136 39.1517L268.084 44.2932L268.032 49.452H269.593H271.154L271.102 43.5341L271.032 37.5989L274.448 32.7851C276.339 30.1453 278.402 27.2985 279.061 26.4531L280.258 24.952H279.391C278.628 24.952 278.506 25.0038 278.281 25.4179C277.951 26.0735 270.391 36.7534 270.235 36.8052C270.096 36.857 262.691 26.2805 262.292 25.4696L262.032 24.952H259.951H257.888L258.911 26.1943Z" fill="#F2EEE3"></path><path d="M100.22 61.6833C99.5259 62.4942 98.4161 64.7717 97.7571 66.7558C97.4103 67.7738 97.1329 68.7227 97.1329 68.8435C97.1329 68.9815 96.9074 69.2576 96.6126 69.4646C95.971 69.9132 95.9363 70.241 96.5259 70.0858C96.9248 69.9822 96.9594 70.0167 96.9768 70.6206L96.9941 71.2762L97.2716 70.4308C97.549 69.6372 97.6184 69.5509 98.6762 69.085C100.168 68.4122 102.457 67.9118 104.191 67.9118C106.532 67.9118 106.705 68.1534 104.954 69.016C103.809 69.6027 101.936 70.1893 99.5606 70.7414L98.4334 70.9829L99.5606 70.9139C102.925 70.6551 105.838 69.6717 106.601 68.4984C106.896 68.0498 106.896 68.0326 106.532 67.722C106.306 67.5495 105.786 67.3597 105.37 67.2907C104.156 67.1181 101.295 67.5495 99.4219 68.1879C98.5028 68.4984 97.7225 68.74 97.7051 68.7055C97.6184 68.6365 98.9883 64.8924 99.3872 64.116C99.5953 63.6847 100.046 62.9773 100.358 62.5115C101.225 61.321 101.104 60.6308 100.22 61.6833Z" fill="#F2EEE3"></path><path d="M136.018 62.2193C133.555 62.8749 130.798 64.583 129.272 66.3946C128.856 66.9123 128.457 67.1711 128.023 67.2746C126.567 67.5851 126.099 67.7577 126.099 67.9992C126.099 68.3098 126.133 68.3098 127.278 68.0165L128.18 67.7749L128.076 68.5858C127.989 69.2932 128.023 69.4658 128.422 69.9316C128.682 70.2422 129.168 70.5873 129.532 70.708C130.313 70.9841 133.711 70.9841 135.203 70.6908C136.919 70.3802 139.469 69.7763 139.399 69.7073C139.365 69.6728 138.515 69.7591 137.526 69.8971C133.278 70.501 129.827 70.4147 129.012 69.6901C128.63 69.3623 128.613 68.4478 128.943 67.982C129.168 67.6714 129.497 67.6542 133.503 67.5679L137.804 67.4816L136.243 67.2228C135.324 67.0675 133.642 66.964 132.133 66.9813H129.584L129.914 66.5327C130.971 65.0489 135.602 62.5644 137.318 62.5644C137.804 62.5644 138.376 62.3056 138.237 62.1503C137.977 61.9087 137.128 61.926 136.018 62.2193Z" fill="#F2EEE3"></path><path d="M148.573 66.3087C146.597 68.4309 143.146 70.8636 142.487 70.6221C142.192 70.5013 141.706 68.9485 141.706 68.1031C141.706 67.758 141.637 67.3784 141.55 67.2404C141.342 66.9126 141.013 67.1541 141.013 67.6372C141.013 68.4136 141.724 70.7601 142.053 71.1052C142.4 71.433 142.4 71.433 143.562 70.8636C145.279 70.0355 146.701 68.9657 148.053 67.5165C149.007 66.4812 150.221 64.7904 149.995 64.8076C149.961 64.8249 149.319 65.4805 148.573 66.3087Z" fill="#F2EEE3"></path><path d="M191.058 66.3087C189.081 68.4309 185.63 70.8636 184.971 70.6221C184.676 70.5013 184.191 68.9485 184.191 68.1031C184.191 67.758 184.121 67.3784 184.035 67.2404C183.827 66.9126 183.497 67.1541 183.497 67.6372C183.497 68.4136 184.208 70.7601 184.538 71.1052C184.884 71.433 184.884 71.433 186.046 70.8636C187.763 70.0355 189.185 68.9657 190.538 67.5165C191.491 66.4812 192.705 64.7904 192.48 64.8076C192.445 64.8249 191.803 65.4805 191.058 66.3087Z" fill="#F2EEE3"></path><path d="M154.278 66.0831C153.046 66.3937 152.63 66.6525 152.63 67.1356C152.63 67.4634 152.821 67.6359 153.567 67.981C154.087 68.2225 154.572 68.4296 154.624 68.4296C154.676 68.4296 155.127 68.6021 155.596 68.7919C156.636 69.2405 156.705 69.6546 155.838 70.0514C154.989 70.4655 152.838 70.8451 151.278 70.8623L149.942 70.8968L151.156 71.0694C152.544 71.2764 154.937 71.0521 155.96 70.6208C156.307 70.4655 156.723 70.1549 156.896 69.8961C157.399 69.137 157.07 68.7747 155.145 67.9982C154.226 67.6187 153.463 67.2218 153.463 67.1356C153.48 66.8595 154.885 66.5662 156.307 66.5489C157.607 66.5317 158.145 66.3074 157.642 65.9968C157.295 65.7898 155.301 65.8416 154.278 66.0831Z" fill="#F2EEE3"></path><path d="M166.591 66.3402C164.51 66.668 162.221 67.5997 161.267 68.4969C160.92 68.8247 160.608 68.9454 160.105 68.9454C159.377 68.9454 159.013 69.2215 159.411 69.4803C159.55 69.5666 159.862 69.6356 160.14 69.6356C160.521 69.6356 160.608 69.7046 160.608 70.0669C160.608 70.9814 162.55 71.5335 164.77 71.2402L166.07 71.0676L164.839 71.0331C162.463 70.9986 161.128 70.55 161.128 69.8081C161.128 69.5666 161.388 69.4976 162.828 69.4113C164.648 69.2905 167.579 68.6521 168.949 68.0655C169.92 67.6514 170.232 67.0476 169.747 66.5645C169.417 66.2539 167.909 66.1331 166.591 66.3402ZM169.226 67.1683C169.365 67.5824 165.585 68.6004 162.828 68.8937C161.856 68.9972 161.752 68.98 161.961 68.7384C162.273 68.3588 164.146 67.5479 165.55 67.2028C166.903 66.8578 169.122 66.8405 169.226 67.1683Z" fill="#F2EEE3"></path><path d="M178.723 66.3402C176.642 66.668 174.353 67.5997 173.4 68.4969C173.053 68.8247 172.741 68.9454 172.238 68.9454C171.51 68.9454 171.145 69.2215 171.544 69.4803C171.683 69.5666 171.995 69.6356 172.273 69.6356C172.654 69.6356 172.741 69.7046 172.741 70.0669C172.741 70.9814 174.683 71.5335 176.903 71.2402L178.203 71.0676L176.972 71.0331C174.596 70.9986 173.261 70.55 173.261 69.8081C173.261 69.5666 173.521 69.4976 174.96 69.4113C176.781 69.2905 179.712 68.6521 181.082 68.0655C182.053 67.6514 182.365 67.0476 181.879 66.5645C181.55 66.2539 180.041 66.1331 178.723 66.3402ZM181.359 67.1683C181.498 67.5824 177.718 68.6004 174.96 68.8937C173.989 68.9972 173.885 68.98 174.093 68.7384C174.405 68.3588 176.278 67.5479 177.683 67.2028C179.036 66.8578 181.255 66.8405 181.359 67.1683Z" fill="#F2EEE3"></path><path d="M110.215 66.8076C109.573 67.4977 108.914 68.7917 108.81 69.6372C108.602 71.2072 110.284 71.466 112.833 70.2755C113.579 69.9132 114.568 69.3611 115.036 69.0333C116.042 68.3086 116.076 68.4812 115.261 70.0858C113.701 73.1914 110.215 76.0555 106.764 77.0907L105.724 77.4012L106.556 77.2977C109.331 76.9699 112.816 74.7787 114.672 72.1734C115.729 70.7069 116.354 69.3784 116.51 68.3259C116.648 67.3079 116.336 67.3252 114.932 68.3604C113.562 69.4129 111.654 70.31 110.562 70.4308C109.001 70.6206 108.932 69.896 110.267 67.7048C110.995 66.5315 110.961 66.0139 110.215 66.8076Z" fill="#F2EEE3"></path><path d="M195.302 67.8253C192.752 68.3947 191.608 70.2408 193.342 70.9655C194.157 71.3105 195.562 71.0862 198.284 70.2063C201.475 69.1884 203.434 69.2746 204.163 70.4479C204.406 70.8274 204.475 70.8619 204.475 70.6204C204.475 70.1028 203.4 69.1711 202.567 68.9468C201.492 68.6535 200.278 68.8433 197.487 69.7405C195.007 70.5341 193.741 70.6894 193.377 70.2408C193.013 69.7922 193.273 69.3954 194.313 68.8605C195.284 68.3774 195.475 68.3429 197.434 68.3257C198.683 68.3084 199.533 68.2394 199.567 68.1359C199.671 67.8598 199.238 67.7563 197.747 67.6528C196.897 67.601 196.013 67.67 195.302 67.8253Z" fill="#F2EEE3"></path><path d="M105.075 77.5223C105.197 77.5741 105.353 77.5568 105.405 77.5051C105.474 77.4533 105.37 77.4016 105.179 77.4188C104.989 77.4188 104.937 77.4706 105.075 77.5223Z" fill="#F2EEE3"></path></svg> 