<?xml version="1.0" encoding="UTF-8"?> <svg xmlns="http://www.w3.org/2000/svg" width="330" height="275" viewBox="0 0 330 275" fill="none"><g filter="url(#filter0_d_3314_43)"><rect x="5.78125" y="9.09473" width="310.83" height="255.034" rx="8.92413" fill="white"></rect></g><path d="M277.122 66.7433C277.122 66.1188 276.793 65.7573 276.3 65.7573C275.84 65.7573 275.479 66.1024 275.479 66.4147C275.479 66.8091 275.742 67.072 276.136 67.072C276.547 67.072 276.826 67.0227 277.106 66.9734C277.122 66.8912 277.122 66.8091 277.122 66.7433ZM274.657 63.9496C274.41 63.9496 274.164 63.7523 274.164 63.4565C274.164 63.2922 274.262 63.1279 274.427 63.0293C274.443 63.0128 274.821 62.7827 274.821 61.8131C274.821 61.1558 274.443 60.8271 274.164 60.8271C273.638 60.8271 272.685 62.1582 272.685 66.7433C272.685 68.9291 273.753 69.7015 274.328 69.7015C275.035 69.7015 276.087 68.9784 276.678 68.0416C276.514 68.0581 276.333 68.0581 276.136 68.0581C275.216 68.0581 274.493 67.335 274.493 66.4147C274.493 65.4122 275.446 64.7713 276.3 64.7713C277.451 64.7713 278.108 65.7244 278.108 66.7433V66.7762C278.305 66.7598 278.519 66.7433 278.765 66.7433C279.028 66.7433 279.258 66.9734 279.258 67.2364C279.258 67.4993 279.028 67.7294 278.765 67.7294H278.585C278.305 67.7294 277.911 67.7458 277.878 67.8444C277.319 69.2413 275.824 70.6875 274.328 70.6875C272.931 70.6875 271.699 69.1591 271.699 66.7433C271.699 62.4541 272.389 59.8411 274.164 59.8411C275.199 59.8411 275.807 60.8271 275.807 61.8131C275.807 63.3251 275.018 63.8345 274.871 63.9003C274.805 63.9331 274.723 63.9496 274.657 63.9496ZM283.703 65.9216C283.703 66.2174 283.456 66.4147 283.21 66.4147C283.144 66.4147 283.062 66.3982 282.996 66.3654C282.815 66.2668 282.684 66.2503 282.388 66.2503C281.402 66.2503 280.416 67.335 280.416 68.3867C280.416 69.192 280.925 69.7015 281.731 69.7015C282.47 69.7015 282.98 69.5864 283.916 68.9619C283.998 68.9126 284.097 68.8798 284.196 68.8798C284.442 68.8798 284.689 69.0934 284.689 69.3728C284.689 69.5371 284.623 69.685 284.475 69.7836C283.44 70.4739 282.634 70.6875 281.731 70.6875C280.399 70.6875 279.43 69.7179 279.43 68.3867C279.43 68.1731 279.463 67.9595 279.512 67.7458H279.265C279.035 67.7458 278.838 67.7294 278.772 67.7294C278.51 67.7294 278.279 67.4993 278.279 67.2364C278.279 66.9734 278.51 66.7433 278.772 66.7433C279.052 66.7433 279.824 66.694 280.021 66.5954C280.564 65.823 281.418 65.2643 282.388 65.2643C282.865 65.2643 283.703 65.3629 283.703 65.9216Z" fill="#253758"></path><path d="M234.563 65.9216C234.563 66.2174 234.317 66.4147 234.07 66.4147C233.857 66.4147 233.627 66.2503 233.413 66.2503C232.756 66.2503 232.098 66.9077 232.098 67.8937C232.098 68.814 233.052 69.7015 234.399 69.7015C234.662 69.7015 234.892 69.9315 234.892 70.1945C234.892 70.4574 234.662 70.6875 234.399 70.6875C232.657 70.6875 231.112 69.5043 231.112 67.8937C231.112 66.5133 232.065 65.2643 233.413 65.2643C233.89 65.2643 234.563 65.4286 234.563 65.9216ZM246.083 59.8411C246.346 59.8411 246.56 60.0876 246.56 60.3341C246.56 60.4491 246.51 60.5641 246.445 60.6463C246.395 60.6956 245.919 61.3201 245.081 61.3201C243.881 61.3201 243.552 60.8271 242.78 60.8271C241.909 60.8271 241.136 61.5995 241.136 62.4705C241.136 63.5223 242.451 65.33 242.451 66.9077C242.451 68.8633 240.972 70.6875 239 70.6875C237.998 70.6875 237.225 70.063 237.061 69.1263C236.124 70.063 235.253 70.6875 234.398 70.6875C234.136 70.6875 233.905 70.4574 233.905 70.1945C233.905 69.9315 234.136 69.7015 234.398 69.7015C234.891 69.7015 236.124 68.8798 237.422 67.2528C237.521 67.1378 237.652 67.072 237.8 67.072C238.096 67.072 238.293 67.3185 238.293 67.565C238.293 67.6308 238.277 67.7129 238.244 67.7787C238.129 68.0252 238.014 68.4853 238.014 68.7154C238.014 69.3728 238.343 69.7015 239 69.7015C240.315 69.7015 241.465 68.4032 241.465 66.9077C241.465 65.8559 240.15 64.0482 240.15 62.4705C240.15 61.0407 241.35 59.8411 242.78 59.8411C243.98 59.8411 244.308 60.3341 245.081 60.3341C245.623 60.3341 245.639 59.8411 246.083 59.8411Z" fill="#253758"></path><path d="M188.621 66.2503C188.901 66.2503 189.114 66.4968 189.114 66.7433C189.114 67.2692 188.95 67.9266 188.95 68.3867C188.95 69.4714 189.164 69.7015 189.772 69.7015C190.035 69.7015 190.265 69.9315 190.265 70.1945C190.265 70.4574 190.035 70.6875 189.772 70.6875C188.884 70.6875 188.293 70.178 188.079 69.4385C187.635 70.0959 186.961 70.6875 185.992 70.6875C184.546 70.6875 183.691 69.57 183.691 68.2224C183.691 67.1213 184.036 66.2668 184.053 66.2174C184.135 66.0202 184.332 65.9216 184.513 65.9216C184.809 65.9216 185.006 66.1681 185.006 66.4147C185.006 66.6776 184.677 67.1378 184.677 68.2224C184.677 69.1756 185.137 69.7015 185.992 69.7015C187.339 69.7015 188.03 67.2528 188.145 66.6447C188.178 66.4475 188.375 66.2503 188.621 66.2503ZM184.348 62.1558C184.348 61.9093 184.546 61.6792 184.809 61.6628C186.468 61.5313 187.947 61.4984 189.114 61.4984C189.377 61.4984 189.607 61.7285 189.607 61.9914C189.607 62.2544 189.377 62.4845 189.114 62.4845C187.98 62.4845 186.501 62.5173 184.874 62.6488H184.841C184.578 62.6488 184.348 62.4352 184.348 62.1558ZM204.232 69.0441C204.495 69.0441 204.725 69.2742 204.725 69.5371C204.725 69.6686 204.675 69.7836 204.577 69.8822C204.182 70.2766 203.706 70.5232 203.081 70.5232C201.816 70.5232 201.372 69.2577 201.175 68.2388C200.715 69.2084 199.926 70.1945 198.644 70.1945C197.592 70.1945 196.918 69.5207 196.656 68.6661C196.13 69.6357 195.308 70.6875 194.043 70.6875C193.073 70.6875 192.317 70.1287 192.12 69.1756C191.577 69.9808 190.821 70.6875 189.77 70.6875C189.507 70.6875 189.277 70.4574 189.277 70.1945C189.277 69.9315 189.507 69.7015 189.77 69.7015C190.953 69.7015 191.725 67.9759 192.596 65.8888C192.679 65.708 192.859 65.593 193.056 65.593C193.369 65.593 193.55 65.8723 193.55 66.1024C193.55 66.1517 193.533 66.201 193.517 66.2339C193.188 67.2035 193.056 67.8773 193.056 68.7154C193.056 69.3728 193.385 69.7015 194.043 69.7015C195.324 69.7015 196.343 67.2199 196.688 65.8066C196.738 65.593 196.951 65.4286 197.165 65.4286C197.477 65.4286 197.658 65.708 197.658 65.9381C197.658 65.9709 197.642 65.9874 197.642 66.0202C197.51 66.6612 197.494 66.9241 197.494 67.565C197.494 68.6168 197.888 69.2084 198.644 69.2084C199.942 69.2084 200.6 67.2364 200.961 65.6423C201.011 65.4122 201.208 65.2643 201.438 65.2643C201.734 65.2643 201.914 65.5108 201.931 65.7409C202.013 67.6308 202.26 69.5371 203.081 69.5371C203.443 69.5371 203.624 69.4549 203.887 69.192C203.985 69.0934 204.1 69.0441 204.232 69.0441ZM201.939 61.8271C201.939 62.0736 201.741 62.3037 201.478 62.3201C198.044 62.5502 197.666 62.6488 192.736 62.6488C192.473 62.6488 192.242 62.4187 192.242 62.1558C192.242 61.8928 192.473 61.6628 192.736 61.6628C197.666 61.6628 197.945 61.5641 201.413 61.3341H201.446C201.708 61.3341 201.939 61.5477 201.939 61.8271Z" fill="#253758"></path><path d="M146.162 64.7713C146.441 64.7713 146.638 65.0178 146.638 65.2643C146.638 65.6587 146.309 65.6587 146.309 66.2503C146.309 66.5626 146.49 66.7433 146.802 66.7433C148.117 66.7433 148.988 65.5272 149.037 65.4615C149.153 65.33 149.284 65.2643 149.432 65.2643C149.728 65.2643 149.925 65.5108 149.925 65.7573C149.925 65.8395 149.908 65.9381 149.859 66.0038C148.906 67.5979 148.775 68.4853 148.775 69.0441C148.775 69.4549 149.037 69.7015 149.596 69.7015C149.859 69.7015 150.089 69.9315 150.089 70.1945C150.089 70.4574 149.859 70.6875 149.596 70.6875C148.676 70.6875 147.788 70.1123 147.788 69.0441C147.788 68.6332 147.854 68.1238 148.068 67.4664C147.723 67.6143 147.279 67.7294 146.802 67.7294C145.964 67.7294 145.323 67.0885 145.323 66.2503C145.323 65.4944 145.718 65.0178 145.767 64.952C145.866 64.837 146.014 64.7713 146.162 64.7713ZM164.05 69.0441C164.313 69.0441 164.543 69.2742 164.543 69.5371C164.543 69.6686 164.494 69.7836 164.396 69.8822C164.001 70.2766 163.525 70.5232 162.9 70.5232C161.635 70.5232 161.191 69.2577 160.994 68.2388C160.534 69.2084 159.745 70.1945 158.463 70.1945C157.411 70.1945 156.737 69.5207 156.474 68.6661C155.948 69.6357 155.127 70.6875 153.861 70.6875C152.892 70.6875 152.136 70.1287 151.939 69.1756C151.396 69.9808 150.64 70.6875 149.589 70.6875C149.326 70.6875 149.095 70.4574 149.095 70.1945C149.095 69.9315 149.326 69.7015 149.589 69.7015C150.772 69.7015 151.544 67.9759 152.415 65.8888C152.497 65.708 152.678 65.593 152.875 65.593C153.188 65.593 153.368 65.8723 153.368 66.1024C153.368 66.1517 153.352 66.201 153.335 66.2339C153.007 67.2035 152.875 67.8773 152.875 68.7154C152.875 69.3728 153.204 69.7015 153.861 69.7015C155.143 69.7015 156.162 67.2199 156.507 65.8066C156.557 65.593 156.77 65.4286 156.984 65.4286C157.296 65.4286 157.477 65.708 157.477 65.9381C157.477 65.9709 157.46 65.9874 157.46 66.0202C157.329 66.6612 157.313 66.9241 157.313 67.565C157.313 68.6168 157.707 69.2084 158.463 69.2084C159.761 69.2084 160.419 67.2364 160.78 65.6423C160.829 65.4122 161.027 65.2643 161.257 65.2643C161.552 65.2643 161.733 65.5108 161.75 65.7409C161.832 67.6308 162.078 69.5371 162.9 69.5371C163.262 69.5371 163.442 69.4549 163.705 69.192C163.804 69.0934 163.919 69.0441 164.05 69.0441ZM161.757 61.8271C161.757 62.0736 161.56 62.3037 161.297 62.3201C157.863 62.5502 157.485 62.6488 152.554 62.6488C152.291 62.6488 152.061 62.4187 152.061 62.1558C152.061 61.8928 152.291 61.6628 152.554 61.6628C157.485 61.6628 157.764 61.5641 161.231 61.3341H161.264C161.527 61.3341 161.757 61.5477 161.757 61.8271Z" fill="#253758"></path><path d="M110.81 65.9216C110.81 66.2174 110.564 66.4147 110.317 66.4147C110.103 66.4147 109.873 66.2503 109.66 66.2503C109.002 66.2503 108.345 66.9077 108.345 67.8937C108.345 68.814 109.298 69.7015 110.646 69.7015C110.909 69.7015 111.139 69.9315 111.139 70.1945C111.139 70.4574 110.909 70.6875 110.646 70.6875C108.904 70.6875 107.359 69.5043 107.359 67.8937C107.359 66.5133 108.312 65.2643 109.66 65.2643C110.136 65.2643 110.81 65.4286 110.81 65.9216ZM117.219 69.5371C117.531 69.5371 117.531 69.7015 118.04 69.7015C118.796 69.7015 119.355 68.9126 119.355 67.8937C119.355 66.9077 118.846 66.2503 118.04 66.2503C116.956 66.2503 115.51 67.7622 114.836 73.2019C114.737 73.9907 114.655 74.8617 114.589 75.8149C114.573 76.0286 114.376 76.2751 114.096 76.2751C113.833 76.2751 113.603 76.045 113.603 75.782V75.1411C113.603 73.0047 113.587 70.9176 113.291 69.5043C112.699 70.1945 111.845 70.6875 110.645 70.6875C110.382 70.6875 110.152 70.4574 110.152 70.1945C110.152 69.9315 110.382 69.7015 110.645 69.7015C111.911 69.7015 112.551 69.0605 112.995 68.1731C113.077 68.0088 113.258 67.8937 113.439 67.8937C113.636 67.8937 113.833 68.0581 113.883 68.1731C114.113 68.6497 114.277 69.2249 114.392 70.063C115.164 66.8419 116.397 65.2643 118.04 65.2643C119.536 65.2643 120.341 66.579 120.341 67.8937C120.341 69.1756 119.585 70.6875 118.04 70.6875C117.399 70.6875 116.726 70.556 116.726 70.0301C116.726 69.7343 116.972 69.5371 117.219 69.5371Z" fill="#253758"></path><path d="M69.1447 66.7433C69.1447 66.1188 68.816 65.7573 68.323 65.7573C67.8628 65.7573 67.5013 66.1024 67.5013 66.4147C67.5013 66.8091 67.7642 67.072 68.1586 67.072C68.5695 67.072 68.8488 67.0227 69.1282 66.9734C69.1447 66.8912 69.1447 66.8091 69.1447 66.7433ZM66.6796 63.9496C66.433 63.9496 66.1865 63.7523 66.1865 63.4565C66.1865 63.2922 66.2851 63.1279 66.4495 63.0293C66.4659 63.0128 66.8439 62.7827 66.8439 61.8131C66.8439 61.1558 66.4659 60.8271 66.1865 60.8271C65.6606 60.8271 64.7075 62.1582 64.7075 66.7433C64.7075 68.9291 65.7757 69.7015 66.3509 69.7015C67.0575 69.7015 68.1093 68.9784 68.7009 68.0416C68.5366 68.0581 68.3558 68.0581 68.1586 68.0581C67.2383 68.0581 66.5152 67.335 66.5152 66.4147C66.5152 65.4122 67.4684 64.7713 68.323 64.7713C69.4733 64.7713 70.1307 65.7244 70.1307 66.7433V66.7762C70.3279 66.7598 70.5415 66.7433 70.7881 66.7433C71.051 66.7433 71.2811 66.9734 71.2811 67.2364C71.2811 67.4993 71.051 67.7294 70.7881 67.7294H70.6073C70.3279 67.7294 69.9335 67.7458 69.9006 67.8444C69.3419 69.2413 67.8464 70.6875 66.3509 70.6875C64.954 70.6875 63.7214 69.1591 63.7214 66.7433C63.7214 62.4541 64.4117 59.8411 66.1865 59.8411C67.2219 59.8411 67.8299 60.8271 67.8299 61.8131C67.8299 63.3251 67.0411 63.8345 66.8932 63.9003C66.8275 63.9331 66.7453 63.9496 66.6796 63.9496ZM83.6136 69.0441C83.8766 69.0441 84.1067 69.2742 84.1067 69.5371C84.1067 69.6686 84.0574 69.7836 83.9588 69.8822C83.5643 70.2766 83.0878 70.5232 82.4633 70.5232C81.1978 70.5232 80.7541 69.2577 80.5569 68.2388C80.0968 69.2084 79.3079 70.1945 78.0261 70.1945C76.9743 70.1945 76.3005 69.5207 76.0376 68.6661C75.5117 69.6357 74.69 70.6875 73.4246 70.6875C72.2742 70.6875 71.4525 69.8658 71.4525 68.7154C71.4525 68.3867 71.4853 68.0088 71.5511 67.6143C71.321 67.6801 71.0745 67.7294 70.7951 67.7294C70.5322 67.7294 70.3021 67.4993 70.3021 67.2364C70.3021 66.9734 70.5322 66.7433 70.7951 66.7433C71.6333 66.7433 71.9784 66.2174 72.0277 66.1353C72.1263 66.0038 72.2906 65.9216 72.4385 65.9216C72.7343 65.9216 72.9315 66.1681 72.9315 66.4147C72.9315 66.4804 72.9151 66.5626 72.8822 66.6283C72.6029 67.1706 72.4385 68.1238 72.4385 68.7154C72.4385 69.3728 72.7672 69.7015 73.4246 69.7015C74.7064 69.7015 75.7253 67.2199 76.0704 65.8066C76.1197 65.593 76.3334 65.4286 76.547 65.4286C76.8593 65.4286 77.04 65.708 77.04 65.9381C77.04 65.9709 77.0236 65.9874 77.0236 66.0202C76.8921 66.6612 76.8757 66.9241 76.8757 67.565C76.8757 68.6168 77.2701 69.2084 78.0261 69.2084C79.3244 69.2084 79.9817 67.2364 80.3433 65.6423C80.3926 65.4122 80.5898 65.2643 80.8199 65.2643C81.1157 65.2643 81.2965 65.5108 81.3129 65.7409C81.3951 67.6308 81.6416 69.5371 82.4633 69.5371C82.8248 69.5371 83.0056 69.4549 83.2685 69.192C83.3671 69.0934 83.4822 69.0441 83.6136 69.0441ZM81.311 61.8271C81.311 62.0736 81.1138 62.3037 80.8508 62.3201C77.4161 62.5502 77.0381 62.6488 72.1079 62.6488C71.845 62.6488 71.6149 62.4187 71.6149 62.1558C71.6149 61.8928 71.845 61.6628 72.1079 61.6628C77.0381 61.6628 77.3175 61.5641 80.7851 61.3341H80.8179C81.0809 61.3341 81.311 61.5477 81.311 61.8271Z" fill="#253758"></path><path d="M30.9124 66.2503C31.1918 66.2503 31.4054 66.4968 31.4054 66.7433C31.4054 67.2692 31.2411 67.9266 31.2411 68.3867C31.2411 69.4714 31.4547 69.7015 32.0628 69.7015C32.3257 69.7015 32.5558 69.9315 32.5558 70.1945C32.5558 70.4574 32.3257 70.6875 32.0628 70.6875C31.1753 70.6875 30.5837 70.178 30.3701 69.4385C29.9263 70.0959 29.2525 70.6875 28.2829 70.6875C26.8367 70.6875 25.9822 69.57 25.9822 68.2224C25.9822 67.1213 26.3273 66.2668 26.3437 66.2174C26.4259 66.0202 26.6231 65.9216 26.8039 65.9216C27.0997 65.9216 27.2969 66.1681 27.2969 66.4147C27.2969 66.6776 26.9682 67.1378 26.9682 68.2224C26.9682 69.1756 27.4284 69.7015 28.2829 69.7015C29.6305 69.7015 30.3208 67.2528 30.4358 66.6447C30.4687 66.4475 30.6659 66.2503 30.9124 66.2503ZM26.6395 62.1558C26.6395 61.9093 26.8367 61.6792 27.0997 61.6628C28.7595 61.5313 30.2386 61.4984 31.4054 61.4984C31.6683 61.4984 31.8984 61.7285 31.8984 61.9914C31.8984 62.2544 31.6683 62.4845 31.4054 62.4845C30.2715 62.4845 28.7924 62.5173 27.1654 62.6488H27.1326C26.8696 62.6488 26.6395 62.4352 26.6395 62.1558ZM36.1693 70.3588C36.1693 70.6053 35.9721 70.8518 35.6763 70.8518C35.4462 70.8518 35.2162 70.6875 35.1833 70.441C35.0683 69.7343 35.0354 69.3399 35.019 68.5018C34.3123 69.6193 33.3263 70.6875 32.0608 70.6875C31.7979 70.6875 31.5678 70.4574 31.5678 70.1945C31.5678 69.9315 31.7979 69.7015 32.0608 69.7015C33.2441 69.7015 34.6245 67.6143 35.2983 65.6094C35.3641 65.4122 35.5448 65.2643 35.7585 65.2643C36.0707 65.2643 36.2515 65.5437 36.2515 65.7737C36.2515 65.8066 36.2515 65.8559 36.2351 65.8888C36.1529 66.2174 36.0543 66.8912 36.0214 67.5486C37.3855 67.45 38.4208 66.957 38.6509 65.823C38.7002 65.593 38.8974 65.4286 39.1275 65.4286C39.4233 65.4286 39.6205 65.6916 39.6205 65.9216V68.0581C39.6205 69.1098 39.8013 69.5371 40.2778 69.5371C40.4257 69.5371 40.6394 69.4714 40.9188 69.192C41.0174 69.0934 41.1324 69.0441 41.2639 69.0441C41.5268 69.0441 41.7569 69.2742 41.7569 69.5371C41.7569 69.6686 41.7076 69.7836 41.609 69.8822C41.231 70.2602 40.7873 70.5232 40.2778 70.5232C38.7823 70.5232 38.6344 68.9784 38.6344 68.0581V67.6636C37.9278 68.2388 36.9582 68.4689 36.005 68.5346C36.0214 69.3235 36.1693 69.6357 36.1693 70.3588Z" fill="#253758"></path><path d="M271.622 169.315C271.359 169.315 271.129 169.102 271.129 168.822C271.129 168.691 271.178 168.559 271.293 168.461C274.005 166.061 275.763 162.692 275.895 161.378C275.911 161.131 276.141 160.934 276.388 160.934C276.667 160.934 276.881 161.18 276.881 161.427C276.881 162.347 276.552 164.73 276.552 167.015C276.552 167.869 276.585 168.691 276.717 169.397V169.48C276.717 169.726 276.519 169.973 276.224 169.973C275.994 169.973 275.78 169.792 275.731 169.562C275.599 168.757 275.566 167.902 275.566 167.015C275.566 166.193 275.616 165.42 275.665 164.632C274.827 166.111 273.528 167.787 271.951 169.184C271.852 169.266 271.737 169.315 271.622 169.315ZM280.163 163.399C280.163 163.662 279.933 163.892 279.67 163.892C279.539 163.892 279.424 163.843 279.325 163.761C279.259 163.695 278.849 163.284 278.849 162.577C278.849 161.624 279.752 160.934 281.478 160.934C283.171 160.934 283.779 162.314 283.779 163.728C283.779 164.303 283.697 165.026 283.549 165.782C284.025 165.733 284.502 165.7 284.929 165.7C285.192 165.7 285.422 165.93 285.422 166.193C285.422 166.456 285.192 166.686 284.929 166.686C284.453 166.686 283.894 166.735 283.335 166.801C283.006 168.264 282.628 169.578 282.612 169.611C282.546 169.825 282.349 169.973 282.135 169.973C281.84 169.973 281.642 169.726 281.642 169.48C281.642 169.266 281.938 168.395 282.267 166.965C281.248 167.146 280.443 167.327 280.443 167.327C280.41 167.343 280.36 167.343 280.328 167.343C280.081 167.343 279.835 167.146 279.835 166.85C279.835 166.62 279.982 166.423 280.213 166.374C280.229 166.374 281.264 166.127 282.497 165.93C282.661 165.092 282.793 164.286 282.793 163.728C282.793 162.512 282.415 161.92 281.478 161.92C279.917 161.92 279.835 162.413 279.835 162.577C279.835 163.038 280.163 163.005 280.163 163.399Z" fill="#253758"></path><path d="M230.538 169.315C230.275 169.315 230.045 169.102 230.045 168.822C230.045 168.691 230.094 168.559 230.209 168.461C232.921 166.061 234.679 162.692 234.811 161.378C234.827 161.131 235.057 160.934 235.304 160.934C235.583 160.934 235.797 161.18 235.797 161.427C235.797 162.347 235.468 164.73 235.468 167.015C235.468 167.869 235.501 168.691 235.633 169.397V169.48C235.633 169.726 235.435 169.973 235.14 169.973C234.91 169.973 234.696 169.792 234.647 169.562C234.515 168.757 234.482 167.902 234.482 167.015C234.482 166.193 234.532 165.42 234.581 164.632C233.743 166.111 232.444 167.787 230.867 169.184C230.768 169.266 230.653 169.315 230.538 169.315ZM240.394 166.522C240.131 166.522 239.901 166.291 239.901 166.028C239.901 165.897 239.95 165.782 240.032 165.683C240.098 165.618 240.69 165.042 241.709 165.042C242.843 165.042 243.681 165.881 243.681 167.015C243.681 168.724 241.742 169.973 240.23 169.973C238.833 169.973 237.929 169.069 237.929 167.672C237.929 163.81 243.286 161 243.286 161C243.352 160.967 243.434 160.934 243.516 160.934C243.763 160.934 244.009 161.131 244.009 161.427C244.009 161.591 243.927 161.756 243.763 161.854C243.599 161.936 238.915 164.664 238.915 167.672C238.915 168.576 239.326 168.987 240.23 168.987C241.347 168.987 242.695 167.935 242.695 167.015C242.695 166.406 242.317 166.028 241.709 166.028C240.805 166.028 240.903 166.522 240.394 166.522Z" fill="#253758"></path><path d="M189.452 169.315C189.189 169.315 188.959 169.102 188.959 168.822C188.959 168.691 189.008 168.559 189.123 168.461C191.835 166.061 193.594 162.692 193.725 161.378C193.741 161.131 193.972 160.934 194.218 160.934C194.497 160.934 194.711 161.18 194.711 161.427C194.711 162.347 194.382 164.73 194.382 167.015C194.382 167.869 194.415 168.691 194.547 169.397V169.48C194.547 169.726 194.349 169.973 194.054 169.973C193.824 169.973 193.61 169.792 193.561 169.562C193.429 168.757 193.396 167.902 193.396 167.015C193.396 166.193 193.446 165.42 193.495 164.632C192.657 166.111 191.358 167.787 189.781 169.184C189.682 169.266 189.567 169.315 189.452 169.315ZM196.679 168.806C196.679 168.526 196.925 168.329 197.172 168.329C197.632 168.329 197.895 168.987 198.979 168.987C200.064 168.987 200.787 168.543 200.787 167.836C200.787 167.31 200.179 166.571 199.357 165.716C198.601 164.927 197.665 164.024 197.665 162.906C197.665 162.232 197.845 161.789 197.862 161.723C197.944 161.526 198.141 161.427 198.322 161.427C198.618 161.427 198.815 161.673 198.815 161.92C198.815 162.183 198.651 162.265 198.651 162.906C198.651 163.432 199.259 164.171 200.08 165.026C200.836 165.815 201.773 166.719 201.773 167.836C201.773 169.43 200.195 169.973 198.979 169.973C197.796 169.973 196.925 169.25 196.859 169.2C196.744 169.102 196.679 168.954 196.679 168.806ZM199.834 162.742C199.587 162.742 199.341 162.561 199.341 162.265C199.341 162.084 199.456 161.904 199.604 161.821C199.67 161.789 200.656 161.279 202.513 160.934H202.595C202.841 160.934 203.088 161.131 203.088 161.427C203.088 161.657 202.907 161.871 202.677 161.92C200.721 162.282 200.212 162.742 199.834 162.742Z" fill="#253758"></path><path d="M148.368 169.315C148.105 169.315 147.875 169.102 147.875 168.822C147.875 168.691 147.924 168.559 148.039 168.461C150.751 166.061 152.51 162.692 152.641 161.378C152.657 161.131 152.888 160.934 153.134 160.934C153.413 160.934 153.627 161.18 153.627 161.427C153.627 162.347 153.298 164.73 153.298 167.015C153.298 167.869 153.331 168.691 153.463 169.397V169.48C153.463 169.726 153.265 169.973 152.97 169.973C152.74 169.973 152.526 169.792 152.477 169.562C152.345 168.757 152.312 167.902 152.312 167.015C152.312 166.193 152.362 165.42 152.411 164.632C151.573 166.111 150.275 167.787 148.697 169.184C148.598 169.266 148.483 169.315 148.368 169.315ZM161.347 169.48C161.347 169.743 161.116 169.973 160.854 169.973C160.722 169.973 160.607 169.923 160.508 169.841C160.41 169.743 160.032 169.282 160.032 168.329C160.032 167.869 160.098 167.36 160.147 167.015C159.72 167.195 159.259 167.343 158.717 167.343C157.254 167.343 156.252 166.094 156.252 164.714C156.252 162.577 157.304 161.164 157.337 161.131C157.435 161 157.583 160.934 157.731 160.934C158.01 160.934 158.224 161.164 158.224 161.427C158.224 161.92 157.238 162.577 157.238 164.714C157.238 165.634 157.879 166.357 158.717 166.357C159.621 166.357 160.508 165.683 160.541 165.651C160.64 165.568 160.755 165.535 160.854 165.535C161.116 165.535 161.347 165.749 161.347 166.028C161.347 166.226 161.018 167.13 161.018 168.329C161.018 169.266 161.347 168.97 161.347 169.48Z" fill="#253758"></path><path d="M107.282 169.315C107.019 169.315 106.789 169.102 106.789 168.822C106.789 168.691 106.839 168.559 106.954 168.461C109.665 166.061 111.424 162.692 111.555 161.378C111.572 161.131 111.802 160.934 112.048 160.934C112.327 160.934 112.541 161.18 112.541 161.427C112.541 162.347 112.212 164.73 112.212 167.015C112.212 167.869 112.245 168.691 112.377 169.397V169.48C112.377 169.726 112.18 169.973 111.884 169.973C111.654 169.973 111.44 169.792 111.391 169.562C111.259 168.757 111.226 167.902 111.226 167.015C111.226 166.193 111.276 165.42 111.325 164.632C110.487 166.111 109.189 167.787 107.611 169.184C107.512 169.266 107.397 169.315 107.282 169.315ZM115.33 161.756C115.33 160.934 117.483 160.934 117.795 160.934C118.667 160.934 119.932 161.312 119.932 162.577C119.932 163.366 119.324 163.876 118.814 164.221C118.338 164.533 118.124 164.845 118.124 165.042C118.124 165.24 118.305 165.404 118.946 165.766C119.488 166.061 120.261 166.456 120.261 167.343C120.261 169.266 116.924 169.973 115.659 169.973C115.396 169.973 115.166 169.743 115.166 169.48C115.166 169.217 115.396 168.987 115.659 168.987C117.023 168.987 119.275 168.05 119.275 167.343C119.275 167.146 119.094 166.982 118.453 166.62C117.911 166.324 117.138 165.93 117.138 165.042C117.138 164.254 117.746 163.744 118.256 163.399C118.732 163.087 118.946 162.775 118.946 162.577C118.946 162.199 118.568 161.92 117.795 161.92C117.352 161.92 116.645 161.953 116.004 162.216C115.938 162.232 115.889 162.249 115.823 162.249C115.577 162.249 115.33 162.051 115.33 161.756Z" fill="#253758"></path><path d="M66.1982 169.315C65.9353 169.315 65.7052 169.102 65.7052 168.822C65.7052 168.691 65.7545 168.559 65.8696 168.461C68.5812 166.061 70.3396 162.692 70.4711 161.378C70.4875 161.131 70.7176 160.934 70.9641 160.934C71.2435 160.934 71.4571 161.18 71.4571 161.427C71.4571 162.347 71.1284 164.73 71.1284 167.015C71.1284 167.869 71.1613 168.691 71.2928 169.397V169.48C71.2928 169.726 71.0956 169.973 70.7998 169.973C70.5697 169.973 70.356 169.792 70.3067 169.562C70.1753 168.757 70.1424 167.902 70.1424 167.015C70.1424 166.193 70.1917 165.42 70.241 164.632C69.4029 166.111 68.1046 167.787 66.5269 169.184C66.4283 169.266 66.3133 169.315 66.1982 169.315ZM75.2325 168.165C75.2325 168.937 77.336 168.987 78.3549 168.987C78.6179 168.987 78.8479 169.217 78.8479 169.48C78.8479 169.743 78.6179 169.973 78.3549 169.973C76.8101 169.973 74.2464 169.874 74.2464 168.165C74.2464 167.557 74.4765 167.047 74.8052 166.439C75.2489 165.634 76.1528 164.5 76.6293 163.777C77.0238 163.185 77.2045 162.824 77.2045 162.577C77.2045 162.183 76.9416 161.92 76.5472 161.92C76.087 161.92 75.7255 162.265 75.7255 162.577C75.7255 162.906 75.8076 162.84 75.8076 163.07C75.8076 163.317 75.6104 163.563 75.3146 163.563C74.8873 163.563 74.7394 163.218 74.7394 162.577C74.7394 161.575 75.6926 160.934 76.5472 160.934C77.4675 160.934 78.1906 161.657 78.1906 162.577C78.1906 163.218 77.8455 163.744 77.451 164.336C76.9416 165.092 76.0377 166.259 75.6597 166.932C75.3311 167.508 75.2325 167.787 75.2325 168.165Z" fill="#253758"></path><path d="M25.1123 169.315C24.8494 169.315 24.6193 169.102 24.6193 168.822C24.6193 168.691 24.6686 168.559 24.7836 168.461C27.4952 166.061 29.2537 162.692 29.3851 161.378C29.4016 161.131 29.6317 160.934 29.8782 160.934C30.1575 160.934 30.3712 161.18 30.3712 161.427C30.3712 162.347 30.0425 164.73 30.0425 167.015C30.0425 167.869 30.0754 168.691 30.2068 169.397V169.48C30.2068 169.726 30.0096 169.973 29.7138 169.973C29.4838 169.973 29.2701 169.792 29.2208 169.562C29.0893 168.757 29.0565 167.902 29.0565 167.015C29.0565 166.193 29.1058 165.42 29.1551 164.632C28.3169 166.111 27.0186 167.787 25.441 169.184C25.3424 169.266 25.2273 169.315 25.1123 169.315ZM32.8318 169.315C32.5689 169.315 32.3388 169.102 32.3388 168.822C32.3388 168.691 32.3881 168.559 32.5031 168.461C35.2147 166.061 36.9732 162.692 37.1046 161.378C37.1211 161.131 37.3511 160.934 37.5977 160.934C37.877 160.934 38.0907 161.18 38.0907 161.427C38.0907 162.347 37.762 164.73 37.762 167.015C37.762 167.869 37.7949 168.691 37.9263 169.397V169.48C37.9263 169.726 37.7291 169.973 37.4333 169.973C37.2032 169.973 36.9896 169.792 36.9403 169.562C36.8088 168.757 36.776 167.902 36.776 167.015C36.776 166.193 36.8253 165.42 36.8746 164.632C36.0364 166.111 34.7381 167.787 33.1605 169.184C33.0619 169.266 32.9468 169.315 32.8318 169.315Z" fill="#253758"></path><path d="M271.622 134.805C271.359 134.805 271.129 134.591 271.129 134.312C271.129 134.18 271.178 134.049 271.293 133.95C274.005 131.551 275.763 128.182 275.895 126.867C275.911 126.62 276.141 126.423 276.388 126.423C276.667 126.423 276.881 126.67 276.881 126.916C276.881 127.837 276.552 130.219 276.552 132.504C276.552 133.358 276.585 134.18 276.717 134.887V134.969C276.717 135.215 276.519 135.462 276.224 135.462C275.994 135.462 275.78 135.281 275.731 135.051C275.599 134.246 275.566 133.391 275.566 132.504C275.566 131.682 275.616 130.91 275.665 130.121C274.827 131.6 273.528 133.276 271.951 134.673C271.852 134.755 271.737 134.805 271.622 134.805ZM280.656 128.888C280.393 128.888 280.163 128.658 280.163 128.395C280.163 128.264 280.213 128.149 280.295 128.05C280.377 127.968 281.149 127.245 282.628 127.245C284.337 127.245 285.751 128.428 285.751 130.203C285.751 132.537 283.647 134.64 281.314 134.64C279.818 134.64 278.52 133.588 278.52 132.011C278.52 130.712 279.079 129.776 279.654 129.201C279.752 129.102 279.867 129.053 279.999 129.053C280.262 129.053 280.492 129.283 280.492 129.546C280.492 129.677 280.443 129.792 280.344 129.891C279.933 130.302 279.506 131.008 279.506 132.011C279.506 132.964 280.278 133.654 281.314 133.654C283.089 133.654 284.765 131.978 284.765 130.203C284.765 129.02 283.877 128.231 282.628 128.231C281.56 128.231 281.051 128.691 280.985 128.757C280.903 128.823 280.788 128.888 280.656 128.888Z" fill="#253758"></path><path d="M238.342 127.245C238.342 127.508 238.128 127.738 237.865 127.738C237.405 127.738 237.602 127.409 236.863 127.409C236.025 127.409 235.384 128.132 235.384 129.053C235.384 129.776 235.811 130.203 236.534 130.203C237.438 130.203 238.506 129.529 238.506 129.053C238.506 128.773 238.342 128.527 238.342 128.231C238.342 127.984 238.523 127.738 238.819 127.738C239.032 127.738 239.229 127.886 239.295 128.05C239.509 128.56 239.657 129.496 239.657 130.532C239.657 133.391 237.75 135.281 237.701 135.33C237.602 135.429 237.471 135.462 237.356 135.462C237.093 135.462 236.863 135.232 236.863 134.969C236.863 134.854 236.912 134.722 236.994 134.624C237.027 134.591 238.671 132.915 238.671 130.532V130.482C238.046 130.943 237.224 131.189 236.534 131.189C235.285 131.189 234.398 130.302 234.398 129.053C234.398 127.672 235.4 126.423 236.863 126.423C237.685 126.423 238.128 126.818 238.211 126.9C238.293 126.998 238.342 127.113 238.342 127.245Z" fill="#253758"></path><path d="M194.462 133.49C194.462 134.213 194.988 134.476 196.106 134.476C196.5 134.476 196.763 134.213 196.763 133.819C196.763 133.539 196.237 132.865 195.432 132.109C194.807 132.668 194.462 133.145 194.462 133.49ZM194.955 128.231C194.955 128.806 194.462 128.461 194.462 129.381C194.462 129.611 194.824 130.154 195.465 130.778C196.566 129.891 197.42 129.102 197.42 128.56C197.42 127.886 196.878 127.409 196.106 127.409C195.366 127.409 195.563 127.738 195.12 127.738C194.857 127.738 194.627 127.508 194.627 127.245C194.627 127.13 194.659 126.998 194.758 126.9C194.824 126.834 195.268 126.423 196.106 126.423C197.305 126.423 198.406 127.261 198.406 128.56C198.406 129.792 197.141 130.696 196.188 131.468C196.895 132.142 197.749 132.898 197.749 133.819C197.749 134.739 197.026 135.462 196.106 135.462C194.922 135.462 193.476 135.067 193.476 133.49C193.476 132.635 194.084 131.978 194.709 131.419C194.117 130.828 193.476 130.187 193.476 129.381C193.476 128.346 194.101 127.886 194.199 127.82C194.281 127.771 194.364 127.738 194.462 127.738C194.709 127.738 194.955 127.952 194.955 128.231Z" fill="#253758"></path><path d="M153.05 128.888C153.05 129.151 152.82 129.381 152.557 129.381C152.425 129.381 152.31 129.332 152.211 129.25C152.146 129.184 151.735 128.773 151.735 128.067C151.735 127.113 152.639 126.423 154.364 126.423C156.057 126.423 156.665 127.804 156.665 129.217C156.665 129.792 156.583 130.515 156.435 131.271C156.912 131.222 157.388 131.189 157.815 131.189C158.078 131.189 158.308 131.419 158.308 131.682C158.308 131.945 158.078 132.175 157.815 132.175C157.339 132.175 156.78 132.224 156.221 132.29C155.893 133.753 155.515 135.067 155.498 135.1C155.433 135.314 155.235 135.462 155.022 135.462C154.726 135.462 154.529 135.215 154.529 134.969C154.529 134.755 154.824 133.884 155.153 132.454C154.134 132.635 153.329 132.816 153.329 132.816C153.296 132.832 153.247 132.832 153.214 132.832C152.967 132.832 152.721 132.635 152.721 132.339C152.721 132.109 152.869 131.912 153.099 131.863C153.115 131.863 154.151 131.616 155.383 131.419C155.548 130.581 155.679 129.776 155.679 129.217C155.679 128.001 155.301 127.409 154.364 127.409C152.803 127.409 152.721 127.902 152.721 128.067C152.721 128.527 153.05 128.494 153.05 128.888Z" fill="#253758"></path><path d="M113.278 132.011C113.015 132.011 112.785 131.781 112.785 131.518C112.785 131.386 112.835 131.271 112.917 131.173C112.983 131.107 113.574 130.532 114.593 130.532C115.727 130.532 116.565 131.37 116.565 132.504C116.565 134.213 114.626 135.462 113.114 135.462C111.717 135.462 110.813 134.558 110.813 133.161C110.813 129.299 116.171 126.489 116.171 126.489C116.237 126.456 116.319 126.423 116.401 126.423C116.647 126.423 116.894 126.62 116.894 126.916C116.894 127.081 116.812 127.245 116.647 127.344C116.483 127.426 111.799 130.154 111.799 133.161C111.799 134.065 112.21 134.476 113.114 134.476C114.232 134.476 115.579 133.424 115.579 132.504C115.579 131.896 115.201 131.518 114.593 131.518C113.689 131.518 113.788 132.011 113.278 132.011Z" fill="#253758"></path><path d="M69.565 134.295C69.565 134.016 69.8115 133.819 70.058 133.819C70.5181 133.819 70.7811 134.476 71.8657 134.476C72.9504 134.476 73.6735 134.032 73.6735 133.325C73.6735 132.8 73.0654 132.06 72.2437 131.206C71.4877 130.417 70.551 129.513 70.551 128.395C70.551 127.721 70.7318 127.278 70.7482 127.212C70.8304 127.015 71.0276 126.916 71.2084 126.916C71.5042 126.916 71.7014 127.163 71.7014 127.409C71.7014 127.672 71.537 127.754 71.537 128.395C71.537 128.921 72.1451 129.661 72.9668 130.515C73.7228 131.304 74.6595 132.208 74.6595 133.325C74.6595 134.92 73.0818 135.462 71.8657 135.462C70.6825 135.462 69.8115 134.739 69.7457 134.69C69.6307 134.591 69.565 134.443 69.565 134.295ZM72.7203 128.231C72.4738 128.231 72.2273 128.05 72.2273 127.754C72.2273 127.574 72.3423 127.393 72.4902 127.311C72.556 127.278 73.542 126.768 75.399 126.423H75.4812C75.7277 126.423 75.9742 126.62 75.9742 126.916C75.9742 127.146 75.7935 127.36 75.5634 127.409C73.6077 127.771 73.0983 128.231 72.7203 128.231Z" fill="#253758"></path><path d="M34.2309 134.969C34.2309 135.232 34.0009 135.462 33.7379 135.462C33.6064 135.462 33.4914 135.413 33.3928 135.33C33.2942 135.232 32.9162 134.772 32.9162 133.819C32.9162 133.358 32.9819 132.849 33.0312 132.504C32.604 132.685 32.1438 132.832 31.6015 132.832C30.1389 132.832 29.1364 131.583 29.1364 130.203C29.1364 128.067 30.1882 126.653 30.221 126.62C30.3196 126.489 30.4675 126.423 30.6154 126.423C30.8948 126.423 31.1085 126.653 31.1085 126.916C31.1085 127.409 30.1224 128.067 30.1224 130.203C30.1224 131.123 30.7634 131.846 31.6015 131.846C32.5054 131.846 33.3928 131.173 33.4257 131.14C33.5243 131.058 33.6393 131.025 33.7379 131.025C34.0009 131.025 34.2309 131.238 34.2309 131.518C34.2309 131.715 33.9023 132.619 33.9023 133.819C33.9023 134.755 34.2309 134.459 34.2309 134.969Z" fill="#253758"></path><path d="M275.81 93.2449C275.81 92.4232 277.963 92.4232 278.276 92.4232C279.147 92.4232 280.412 92.8012 280.412 94.0666C280.412 94.8554 279.804 95.3649 279.295 95.71C278.818 96.0223 278.604 96.3345 278.604 96.5317C278.604 96.7289 278.785 96.8933 279.426 97.2548C279.968 97.5506 280.741 97.945 280.741 98.8325C280.741 100.755 277.405 101.462 276.139 101.462C275.876 101.462 275.646 101.232 275.646 100.969C275.646 100.706 275.876 100.476 276.139 100.476C277.503 100.476 279.755 99.5391 279.755 98.8325C279.755 98.6353 279.574 98.4709 278.933 98.1094C278.391 97.8136 277.618 97.4191 277.618 96.5317C277.618 95.7429 278.226 95.2334 278.736 94.8883C279.212 94.5761 279.426 94.2638 279.426 94.0666C279.426 93.6886 279.048 93.4092 278.276 93.4092C277.832 93.4092 277.125 93.4421 276.484 93.7051C276.419 93.7215 276.369 93.7379 276.304 93.7379C276.057 93.7379 275.81 93.5407 275.81 93.2449Z" fill="#253758"></path><path d="M235.713 99.6542C235.713 100.427 237.816 100.476 238.835 100.476C239.098 100.476 239.328 100.706 239.328 100.969C239.328 101.232 239.098 101.462 238.835 101.462C237.29 101.462 234.727 101.363 234.727 99.6542C234.727 99.0461 234.957 98.5367 235.285 97.9286C235.729 97.1233 236.633 95.9894 237.109 95.2663C237.504 94.6747 237.685 94.3131 237.685 94.0666C237.685 93.6722 237.422 93.4092 237.027 93.4092C236.567 93.4092 236.206 93.7544 236.206 94.0666C236.206 94.3953 236.288 94.3296 236.288 94.5596C236.288 94.8061 236.091 95.0526 235.795 95.0526C235.367 95.0526 235.22 94.7075 235.22 94.0666C235.22 93.0641 236.173 92.4232 237.027 92.4232C237.948 92.4232 238.671 93.1463 238.671 94.0666C238.671 94.7075 238.326 95.2334 237.931 95.825C237.422 96.581 236.518 97.7478 236.14 98.4216C235.811 98.9968 235.713 99.2762 235.713 99.6542Z" fill="#253758"></path><path d="M193.312 100.805C193.049 100.805 192.819 100.591 192.819 100.312C192.819 100.18 192.868 100.049 192.983 99.95C195.695 97.5506 197.453 94.1816 197.585 92.8669C197.601 92.6204 197.831 92.4232 198.078 92.4232C198.357 92.4232 198.571 92.6697 198.571 92.9162C198.571 93.8365 198.242 96.2195 198.242 98.5038C198.242 99.3584 198.275 100.18 198.406 100.887V100.969C198.406 101.215 198.209 101.462 197.913 101.462C197.683 101.462 197.47 101.281 197.42 101.051C197.289 100.246 197.256 99.3912 197.256 98.5038C197.256 97.6821 197.305 96.9097 197.355 96.1209C196.517 97.5999 195.218 99.2762 193.641 100.673C193.542 100.755 193.427 100.805 193.312 100.805Z" fill="#253758"></path><path d="M25.1123 203.416C24.8494 203.416 24.6193 203.202 24.6193 202.923C24.6193 202.791 24.6686 202.66 24.7836 202.561C27.4952 200.162 29.2537 196.793 29.3851 195.478C29.4016 195.232 29.6317 195.035 29.8782 195.035C30.1575 195.035 30.3712 195.281 30.3712 195.528C30.3712 196.448 30.0425 198.831 30.0425 201.115C30.0425 201.97 30.0754 202.791 30.2068 203.498V203.58C30.2068 203.827 30.0096 204.073 29.7138 204.073C29.4838 204.073 29.2701 203.892 29.2208 203.662C29.0893 202.857 29.0565 202.003 29.0565 201.115C29.0565 200.293 29.1058 199.521 29.1551 198.732C28.3169 200.211 27.0186 201.888 25.441 203.284C25.3424 203.367 25.2273 203.416 25.1123 203.416ZM33.9822 202.101C33.9822 202.824 34.5081 203.087 35.6256 203.087C36.02 203.087 36.2829 202.824 36.2829 202.43C36.2829 202.15 35.757 201.477 34.9518 200.721C34.3273 201.279 33.9822 201.756 33.9822 202.101ZM34.4752 196.842C34.4752 197.417 33.9822 197.072 33.9822 197.993C33.9822 198.223 34.3437 198.765 34.9847 199.39C36.0857 198.502 36.9403 197.713 36.9403 197.171C36.9403 196.497 36.398 196.021 35.6256 196.021C34.886 196.021 35.0833 196.349 34.6395 196.349C34.3766 196.349 34.1465 196.119 34.1465 195.856C34.1465 195.741 34.1794 195.61 34.278 195.511C34.3437 195.445 34.7874 195.035 35.6256 195.035C36.8253 195.035 37.9263 195.873 37.9263 197.171C37.9263 198.404 36.6609 199.307 35.7077 200.08C36.4144 200.754 37.269 201.51 37.269 202.43C37.269 203.35 36.5459 204.073 35.6256 204.073C34.4423 204.073 32.9961 203.679 32.9961 202.101C32.9961 201.247 33.6042 200.589 34.2287 200.03C33.6371 199.439 32.9961 198.798 32.9961 197.993C32.9961 196.957 33.6206 196.497 33.7192 196.431C33.8014 196.382 33.8836 196.349 33.9822 196.349C34.2287 196.349 34.4752 196.563 34.4752 196.842Z" fill="#253758"></path><path d="M66.1982 203.416C65.9353 203.416 65.7052 203.202 65.7052 202.923C65.7052 202.791 65.7545 202.66 65.8696 202.561C68.5812 200.162 70.3396 196.793 70.4711 195.478C70.4875 195.232 70.7176 195.035 70.9641 195.035C71.2435 195.035 71.4571 195.281 71.4571 195.528C71.4571 196.448 71.1284 198.831 71.1284 201.115C71.1284 201.97 71.1613 202.791 71.2928 203.498V203.58C71.2928 203.827 71.0956 204.073 70.7998 204.073C70.5697 204.073 70.356 203.892 70.3067 203.662C70.1753 202.857 70.1424 202.003 70.1424 201.115C70.1424 200.293 70.1917 199.521 70.241 198.732C69.4029 200.211 68.1046 201.888 66.5269 203.284C66.4283 203.367 66.3133 203.416 66.1982 203.416ZM77.8619 195.856C77.8619 196.119 77.6483 196.349 77.3853 196.349C76.9252 196.349 77.1224 196.021 76.3828 196.021C75.5447 196.021 74.9038 196.744 74.9038 197.664C74.9038 198.387 75.3311 198.814 76.0542 198.814C76.958 198.814 78.0262 198.141 78.0262 197.664C78.0262 197.385 77.8619 197.138 77.8619 196.842C77.8619 196.596 78.0427 196.349 78.3385 196.349C78.5521 196.349 78.7493 196.497 78.8151 196.662C79.0287 197.171 79.1766 198.108 79.1766 199.143C79.1766 202.003 77.2703 203.892 77.221 203.942C77.1224 204.04 76.9909 204.073 76.8759 204.073C76.6129 204.073 76.3828 203.843 76.3828 203.58C76.3828 203.465 76.4321 203.334 76.5143 203.235C76.5472 203.202 78.1906 201.526 78.1906 199.143V199.094C77.5661 199.554 76.7444 199.8 76.0542 199.8C74.8052 199.8 73.9177 198.913 73.9177 197.664C73.9177 196.284 74.9202 195.035 76.3828 195.035C77.2045 195.035 77.6483 195.429 77.7304 195.511C77.8126 195.61 77.8619 195.725 77.8619 195.856Z" fill="#253758"></path><path d="M108.597 202.266C108.597 203.038 110.7 203.087 111.719 203.087C111.982 203.087 112.212 203.317 112.212 203.58C112.212 203.843 111.982 204.073 111.719 204.073C110.175 204.073 107.611 203.975 107.611 202.266C107.611 201.657 107.841 201.148 108.17 200.54C108.613 199.735 109.517 198.601 109.994 197.878C110.388 197.286 110.569 196.924 110.569 196.678C110.569 196.284 110.306 196.021 109.912 196.021C109.452 196.021 109.09 196.366 109.09 196.678C109.09 197.007 109.172 196.941 109.172 197.171C109.172 197.417 108.975 197.664 108.679 197.664C108.252 197.664 108.104 197.319 108.104 196.678C108.104 195.675 109.057 195.035 109.912 195.035C110.832 195.035 111.555 195.758 111.555 196.678C111.555 197.319 111.21 197.845 110.816 198.436C110.306 199.192 109.402 200.359 109.024 201.033C108.696 201.608 108.597 201.888 108.597 202.266ZM116.316 197.5C116.053 197.5 115.823 197.27 115.823 197.007C115.823 196.875 115.873 196.76 115.955 196.662C116.037 196.579 116.809 195.856 118.289 195.856C119.998 195.856 121.411 197.039 121.411 198.814C121.411 201.148 119.307 203.252 116.974 203.252C115.478 203.252 114.18 202.2 114.18 200.622C114.18 199.324 114.739 198.387 115.314 197.812C115.413 197.713 115.528 197.664 115.659 197.664C115.922 197.664 116.152 197.894 116.152 198.157C116.152 198.288 116.103 198.404 116.004 198.502C115.593 198.913 115.166 199.62 115.166 200.622C115.166 201.575 115.938 202.266 116.974 202.266C118.749 202.266 120.425 200.589 120.425 198.814C120.425 197.631 119.538 196.842 118.289 196.842C117.22 196.842 116.711 197.302 116.645 197.368C116.563 197.434 116.448 197.5 116.316 197.5Z" fill="#253758"></path><path d="M149.683 202.266C149.683 203.038 151.786 203.087 152.805 203.087C153.068 203.087 153.298 203.317 153.298 203.58C153.298 203.843 153.068 204.073 152.805 204.073C151.261 204.073 148.697 203.975 148.697 202.266C148.697 201.657 148.927 201.148 149.256 200.54C149.699 199.735 150.603 198.601 151.08 197.878C151.474 197.286 151.655 196.924 151.655 196.678C151.655 196.284 151.392 196.021 150.998 196.021C150.537 196.021 150.176 196.366 150.176 196.678C150.176 197.007 150.258 196.941 150.258 197.171C150.258 197.417 150.061 197.664 149.765 197.664C149.338 197.664 149.19 197.319 149.19 196.678C149.19 195.675 150.143 195.035 150.998 195.035C151.918 195.035 152.641 195.758 152.641 196.678C152.641 197.319 152.296 197.845 151.901 198.436C151.392 199.192 150.488 200.359 150.11 201.033C149.781 201.608 149.683 201.888 149.683 202.266ZM156.088 203.416C155.825 203.416 155.595 203.202 155.595 202.923C155.595 202.791 155.644 202.66 155.759 202.561C158.471 200.162 160.229 196.793 160.36 195.478C160.377 195.232 160.607 195.035 160.854 195.035C161.133 195.035 161.347 195.281 161.347 195.528C161.347 196.448 161.018 198.831 161.018 201.115C161.018 201.97 161.051 202.791 161.182 203.498V203.58C161.182 203.827 160.985 204.073 160.689 204.073C160.459 204.073 160.245 203.892 160.196 203.662C160.065 202.857 160.032 202.003 160.032 201.115C160.032 200.293 160.081 199.521 160.13 198.732C159.292 200.211 157.994 201.888 156.416 203.284C156.318 203.367 156.203 203.416 156.088 203.416Z" fill="#253758"></path><path d="M190.767 202.266C190.767 203.038 192.87 203.087 193.889 203.087C194.152 203.087 194.382 203.317 194.382 203.58C194.382 203.843 194.152 204.073 193.889 204.073C192.345 204.073 189.781 203.975 189.781 202.266C189.781 201.657 190.011 201.148 190.34 200.54C190.783 199.735 191.687 198.601 192.164 197.878C192.558 197.286 192.739 196.924 192.739 196.678C192.739 196.284 192.476 196.021 192.082 196.021C191.621 196.021 191.26 196.366 191.26 196.678C191.26 197.007 191.342 196.941 191.342 197.171C191.342 197.417 191.145 197.664 190.849 197.664C190.422 197.664 190.274 197.319 190.274 196.678C190.274 195.675 191.227 195.035 192.082 195.035C193.002 195.035 193.725 195.758 193.725 196.678C193.725 197.319 193.38 197.845 192.985 198.436C192.476 199.192 191.572 200.359 191.194 201.033C190.865 201.608 190.767 201.888 190.767 202.266ZM198.486 202.266C198.486 203.038 200.59 203.087 201.609 203.087C201.872 203.087 202.102 203.317 202.102 203.58C202.102 203.843 201.872 204.073 201.609 204.073C200.064 204.073 197.5 203.975 197.5 202.266C197.5 201.657 197.73 201.148 198.059 200.54C198.503 199.735 199.407 198.601 199.883 197.878C200.278 197.286 200.458 196.924 200.458 196.678C200.458 196.284 200.195 196.021 199.801 196.021C199.341 196.021 198.979 196.366 198.979 196.678C198.979 197.007 199.062 196.941 199.062 197.171C199.062 197.417 198.864 197.664 198.569 197.664C198.141 197.664 197.993 197.319 197.993 196.678C197.993 195.675 198.947 195.035 199.801 195.035C200.721 195.035 201.444 195.758 201.444 196.678C201.444 197.319 201.099 197.845 200.705 198.436C200.195 199.192 199.292 200.359 198.914 201.033C198.585 201.608 198.486 201.888 198.486 202.266Z" fill="#253758"></path><path d="M231.853 202.266C231.853 203.038 233.956 203.087 234.975 203.087C235.238 203.087 235.468 203.317 235.468 203.58C235.468 203.843 235.238 204.073 234.975 204.073C233.43 204.073 230.867 203.975 230.867 202.266C230.867 201.657 231.097 201.148 231.426 200.54C231.869 199.735 232.773 198.601 233.25 197.878C233.644 197.286 233.825 196.924 233.825 196.678C233.825 196.284 233.562 196.021 233.168 196.021C232.707 196.021 232.346 196.366 232.346 196.678C232.346 197.007 232.428 196.941 232.428 197.171C232.428 197.417 232.231 197.664 231.935 197.664C231.508 197.664 231.36 197.319 231.36 196.678C231.36 195.675 232.313 195.035 233.168 195.035C234.088 195.035 234.811 195.758 234.811 196.678C234.811 197.319 234.466 197.845 234.071 198.436C233.562 199.192 232.658 200.359 232.28 201.033C231.951 201.608 231.853 201.888 231.853 202.266ZM238.586 195.856C238.586 195.035 240.739 195.035 241.051 195.035C241.922 195.035 243.188 195.413 243.188 196.678C243.188 197.467 242.58 197.976 242.07 198.321C241.594 198.634 241.38 198.946 241.38 199.143C241.38 199.34 241.561 199.505 242.202 199.866C242.744 200.162 243.516 200.556 243.516 201.444C243.516 203.367 240.18 204.073 238.915 204.073C238.652 204.073 238.422 203.843 238.422 203.58C238.422 203.317 238.652 203.087 238.915 203.087C240.279 203.087 242.53 202.15 242.53 201.444C242.53 201.247 242.35 201.082 241.709 200.721C241.166 200.425 240.394 200.03 240.394 199.143C240.394 198.354 241.002 197.845 241.512 197.5C241.988 197.187 242.202 196.875 242.202 196.678C242.202 196.3 241.824 196.021 241.051 196.021C240.608 196.021 239.901 196.053 239.26 196.316C239.194 196.333 239.145 196.349 239.079 196.349C238.833 196.349 238.586 196.152 238.586 195.856Z" fill="#253758"></path><path d="M272.937 202.266C272.937 203.038 275.04 203.087 276.059 203.087C276.322 203.087 276.552 203.317 276.552 203.58C276.552 203.843 276.322 204.073 276.059 204.073C274.514 204.073 271.951 203.975 271.951 202.266C271.951 201.657 272.181 201.148 272.51 200.54C272.953 199.735 273.857 198.601 274.334 197.878C274.728 197.286 274.909 196.924 274.909 196.678C274.909 196.284 274.646 196.021 274.252 196.021C273.791 196.021 273.43 196.366 273.43 196.678C273.43 197.007 273.512 196.941 273.512 197.171C273.512 197.417 273.315 197.664 273.019 197.664C272.592 197.664 272.444 197.319 272.444 196.678C272.444 195.675 273.397 195.035 274.252 195.035C275.172 195.035 275.895 195.758 275.895 196.678C275.895 197.319 275.55 197.845 275.155 198.436C274.646 199.192 273.742 200.359 273.364 201.033C273.035 201.608 272.937 201.888 272.937 202.266ZM284.6 203.58C284.6 203.843 284.37 204.073 284.107 204.073C283.976 204.073 283.861 204.024 283.762 203.942C283.664 203.843 283.286 203.383 283.286 202.43C283.286 201.97 283.351 201.46 283.401 201.115C282.973 201.296 282.513 201.444 281.971 201.444C280.508 201.444 279.506 200.195 279.506 198.814C279.506 196.678 280.558 195.265 280.591 195.232C280.689 195.1 280.837 195.035 280.985 195.035C281.264 195.035 281.478 195.265 281.478 195.528C281.478 196.021 280.492 196.678 280.492 198.814C280.492 199.735 281.133 200.458 281.971 200.458C282.875 200.458 283.762 199.784 283.795 199.751C283.894 199.669 284.009 199.636 284.107 199.636C284.37 199.636 284.6 199.85 284.6 200.129C284.6 200.326 284.272 201.23 284.272 202.43C284.272 203.367 284.6 203.071 284.6 203.58Z" fill="#253758"></path><path d="M26.427 236.778C26.427 237.551 28.5306 237.6 29.5495 237.6C29.8124 237.6 30.0425 237.83 30.0425 238.093C30.0425 238.356 29.8124 238.586 29.5495 238.586C28.0047 238.586 25.441 238.487 25.441 236.778C25.441 236.17 25.6711 235.661 25.9997 235.053C26.4435 234.247 27.3473 233.113 27.8239 232.39C28.2183 231.799 28.3991 231.437 28.3991 231.191C28.3991 230.796 28.1362 230.533 27.7417 230.533C27.2816 230.533 26.92 230.878 26.92 231.191C26.92 231.519 27.0022 231.454 27.0022 231.684C27.0022 231.93 26.805 232.177 26.5092 232.177C26.0819 232.177 25.934 231.832 25.934 231.191C25.934 230.188 26.8872 229.547 27.7417 229.547C28.662 229.547 29.3851 230.27 29.3851 231.191C29.3851 231.832 29.04 232.357 28.6456 232.949C28.1362 233.705 27.2323 234.872 26.8543 235.546C26.5256 236.121 26.427 236.4 26.427 236.778ZM32.3388 237.419C32.3388 237.14 32.5853 236.943 32.8318 236.943C33.2919 236.943 33.5549 237.6 34.6395 237.6C35.7242 237.6 36.4473 237.156 36.4473 236.45C36.4473 235.924 35.8392 235.184 35.0175 234.33C34.2616 233.541 33.3248 232.637 33.3248 231.519C33.3248 230.846 33.5056 230.402 33.522 230.336C33.6042 230.139 33.8014 230.04 33.9822 230.04C34.278 230.04 34.4752 230.287 34.4752 230.533C34.4752 230.796 34.3109 230.878 34.3109 231.519C34.3109 232.045 34.9189 232.785 35.7406 233.639C36.4966 234.428 37.4333 235.332 37.4333 236.45C37.4333 238.044 35.8557 238.586 34.6395 238.586C33.4563 238.586 32.5853 237.863 32.5195 237.814C32.4045 237.715 32.3388 237.567 32.3388 237.419ZM35.4941 231.355C35.2476 231.355 35.0011 231.174 35.0011 230.878C35.0011 230.698 35.1161 230.517 35.264 230.435C35.3298 230.402 36.3158 229.892 38.1728 229.547H38.255C38.5015 229.547 38.748 229.744 38.748 230.04C38.748 230.27 38.5673 230.484 38.3372 230.533C36.3815 230.895 35.8721 231.355 35.4941 231.355Z" fill="#253758"></path><path d="M67.513 236.778C67.513 237.551 69.6165 237.6 70.6354 237.6C70.8984 237.6 71.1284 237.83 71.1284 238.093C71.1284 238.356 70.8984 238.586 70.6354 238.586C69.0906 238.586 66.5269 238.487 66.5269 236.778C66.5269 236.17 66.757 235.661 67.0857 235.053C67.5294 234.247 68.4333 233.113 68.9099 232.39C69.3043 231.799 69.485 231.437 69.485 231.191C69.485 230.796 69.2221 230.533 68.8277 230.533C68.3675 230.533 68.006 230.878 68.006 231.191C68.006 231.519 68.0882 231.454 68.0882 231.684C68.0882 231.93 67.8909 232.177 67.5951 232.177C67.1678 232.177 67.0199 231.832 67.0199 231.191C67.0199 230.188 67.9731 229.547 68.8277 229.547C69.748 229.547 70.4711 230.27 70.4711 231.191C70.4711 231.832 70.126 232.357 69.7316 232.949C69.2221 233.705 68.3182 234.872 67.9402 235.546C67.6116 236.121 67.513 236.4 67.513 236.778ZM76.0542 235.135C75.7912 235.135 75.5611 234.905 75.5611 234.642C75.5611 234.51 75.6104 234.395 75.6926 234.297C75.7583 234.231 76.35 233.656 77.3689 233.656C78.5028 233.656 79.341 234.494 79.341 235.628C79.341 237.337 77.4017 238.586 75.8898 238.586C74.4929 238.586 73.5891 237.682 73.5891 236.285C73.5891 232.423 78.9465 229.613 78.9465 229.613C79.0123 229.58 79.0944 229.547 79.1766 229.547C79.4231 229.547 79.6696 229.744 79.6696 230.04C79.6696 230.205 79.5875 230.369 79.4231 230.468C79.2588 230.55 74.5751 233.278 74.5751 236.285C74.5751 237.189 74.9859 237.6 75.8898 237.6C77.0073 237.6 78.3549 236.548 78.3549 235.628C78.3549 235.02 77.9769 234.642 77.3689 234.642C76.465 234.642 76.5636 235.135 76.0542 235.135Z" fill="#253758"></path><path d="M108.597 236.778C108.597 237.551 110.7 237.6 111.719 237.6C111.982 237.6 112.212 237.83 112.212 238.093C112.212 238.356 111.982 238.586 111.719 238.586C110.175 238.586 107.611 238.487 107.611 236.778C107.611 236.17 107.841 235.661 108.17 235.053C108.613 234.247 109.517 233.113 109.994 232.39C110.388 231.799 110.569 231.437 110.569 231.191C110.569 230.796 110.306 230.533 109.912 230.533C109.452 230.533 109.09 230.878 109.09 231.191C109.09 231.519 109.172 231.454 109.172 231.684C109.172 231.93 108.975 232.177 108.679 232.177C108.252 232.177 108.104 231.832 108.104 231.191C108.104 230.188 109.057 229.547 109.912 229.547C110.832 229.547 111.555 230.27 111.555 231.191C111.555 231.832 111.21 232.357 110.816 232.949C110.306 233.705 109.402 234.872 109.024 235.546C108.696 236.121 108.597 236.4 108.597 236.778ZM115.823 232.012C115.823 232.275 115.593 232.505 115.33 232.505C115.199 232.505 115.084 232.456 114.985 232.374C114.92 232.308 114.509 231.897 114.509 231.191C114.509 230.237 115.413 229.547 117.138 229.547C118.831 229.547 119.439 230.928 119.439 232.341C119.439 232.916 119.357 233.639 119.209 234.395C119.685 234.346 120.162 234.313 120.589 234.313C120.852 234.313 121.082 234.543 121.082 234.806C121.082 235.069 120.852 235.299 120.589 235.299C120.113 235.299 119.554 235.348 118.995 235.414C118.667 236.877 118.289 238.192 118.272 238.224C118.206 238.438 118.009 238.586 117.795 238.586C117.5 238.586 117.302 238.339 117.302 238.093C117.302 237.879 117.598 237.008 117.927 235.579C116.908 235.759 116.103 235.94 116.103 235.94C116.07 235.956 116.021 235.956 115.988 235.956C115.741 235.956 115.495 235.759 115.495 235.463C115.495 235.233 115.643 235.036 115.873 234.987C115.889 234.987 116.924 234.74 118.157 234.543C118.321 233.705 118.453 232.9 118.453 232.341C118.453 231.125 118.075 230.533 117.138 230.533C115.577 230.533 115.495 231.026 115.495 231.191C115.495 231.651 115.823 231.618 115.823 232.012Z" fill="#253758"></path><path d="M149.683 236.778C149.683 237.551 151.786 237.6 152.805 237.6C153.068 237.6 153.298 237.83 153.298 238.093C153.298 238.356 153.068 238.586 152.805 238.586C151.261 238.586 148.697 238.487 148.697 236.778C148.697 236.17 148.927 235.661 149.256 235.053C149.699 234.247 150.603 233.113 151.08 232.39C151.474 231.799 151.655 231.437 151.655 231.191C151.655 230.796 151.392 230.533 150.998 230.533C150.537 230.533 150.176 230.878 150.176 231.191C150.176 231.519 150.258 231.454 150.258 231.684C150.258 231.93 150.061 232.177 149.765 232.177C149.338 232.177 149.19 231.832 149.19 231.191C149.19 230.188 150.143 229.547 150.998 229.547C151.918 229.547 152.641 230.27 152.641 231.191C152.641 231.832 152.296 232.357 151.901 232.949C151.392 233.705 150.488 234.872 150.11 235.546C149.781 236.121 149.683 236.4 149.683 236.778ZM157.238 236.614C157.238 237.337 157.764 237.6 158.881 237.6C159.276 237.6 159.539 237.337 159.539 236.943C159.539 236.663 159.013 235.989 158.208 235.233C157.583 235.792 157.238 236.269 157.238 236.614ZM157.731 231.355C157.731 231.93 157.238 231.585 157.238 232.505C157.238 232.735 157.6 233.278 158.241 233.902C159.342 233.015 160.196 232.226 160.196 231.684C160.196 231.01 159.654 230.533 158.881 230.533C158.142 230.533 158.339 230.862 157.895 230.862C157.632 230.862 157.402 230.632 157.402 230.369C157.402 230.254 157.435 230.122 157.534 230.024C157.6 229.958 158.043 229.547 158.881 229.547C160.081 229.547 161.182 230.385 161.182 231.684C161.182 232.916 159.917 233.82 158.964 234.592C159.67 235.266 160.525 236.022 160.525 236.943C160.525 237.863 159.802 238.586 158.881 238.586C157.698 238.586 156.252 238.192 156.252 236.614C156.252 235.759 156.86 235.102 157.485 234.543C156.893 233.952 156.252 233.311 156.252 232.505C156.252 231.47 156.876 231.01 156.975 230.944C157.057 230.895 157.139 230.862 157.238 230.862C157.485 230.862 157.731 231.076 157.731 231.355Z" fill="#253758"></path><path d="M190.767 236.778C190.767 237.551 192.87 237.6 193.889 237.6C194.152 237.6 194.382 237.83 194.382 238.093C194.382 238.356 194.152 238.586 193.889 238.586C192.345 238.586 189.781 238.487 189.781 236.778C189.781 236.17 190.011 235.661 190.34 235.053C190.783 234.247 191.687 233.113 192.164 232.39C192.558 231.799 192.739 231.437 192.739 231.191C192.739 230.796 192.476 230.533 192.082 230.533C191.621 230.533 191.26 230.878 191.26 231.191C191.26 231.519 191.342 231.454 191.342 231.684C191.342 231.93 191.145 232.177 190.849 232.177C190.422 232.177 190.274 231.832 190.274 231.191C190.274 230.188 191.227 229.547 192.082 229.547C193.002 229.547 193.725 230.27 193.725 231.191C193.725 231.832 193.38 232.357 192.985 232.949C192.476 233.705 191.572 234.872 191.194 235.546C190.865 236.121 190.767 236.4 190.767 236.778ZM201.116 230.369C201.116 230.632 200.902 230.862 200.639 230.862C200.179 230.862 200.376 230.533 199.637 230.533C198.799 230.533 198.158 231.256 198.158 232.177C198.158 232.9 198.585 233.327 199.308 233.327C200.212 233.327 201.28 232.653 201.28 232.177C201.28 231.897 201.116 231.651 201.116 231.355C201.116 231.108 201.297 230.862 201.592 230.862C201.806 230.862 202.003 231.01 202.069 231.174C202.283 231.684 202.431 232.62 202.431 233.656C202.431 236.515 200.524 238.405 200.475 238.454C200.376 238.553 200.245 238.586 200.13 238.586C199.867 238.586 199.637 238.356 199.637 238.093C199.637 237.978 199.686 237.846 199.768 237.748C199.801 237.715 201.444 236.039 201.444 233.656V233.606C200.82 234.067 199.998 234.313 199.308 234.313C198.059 234.313 197.172 233.426 197.172 232.177C197.172 230.796 198.174 229.547 199.637 229.547C200.458 229.547 200.902 229.942 200.984 230.024C201.066 230.122 201.116 230.237 201.116 230.369Z" fill="#253758"></path><path d="M230.867 230.369C230.867 229.547 233.02 229.547 233.332 229.547C234.203 229.547 235.468 229.925 235.468 231.191C235.468 231.979 234.86 232.489 234.351 232.834C233.874 233.146 233.661 233.459 233.661 233.656C233.661 233.853 233.841 234.017 234.482 234.379C235.025 234.675 235.797 235.069 235.797 235.956C235.797 237.879 232.461 238.586 231.195 238.586C230.933 238.586 230.702 238.356 230.702 238.093C230.702 237.83 230.933 237.6 231.195 237.6C232.559 237.6 234.811 236.663 234.811 235.956C234.811 235.759 234.63 235.595 233.989 235.233C233.447 234.938 232.675 234.543 232.675 233.656C232.675 232.867 233.283 232.357 233.792 232.012C234.269 231.7 234.482 231.388 234.482 231.191C234.482 230.813 234.104 230.533 233.332 230.533C232.888 230.533 232.181 230.566 231.541 230.829C231.475 230.846 231.426 230.862 231.36 230.862C231.113 230.862 230.867 230.665 230.867 230.369ZM239.572 232.012C239.309 232.012 239.079 231.782 239.079 231.519C239.079 231.388 239.129 231.273 239.211 231.174C239.293 231.092 240.065 230.369 241.544 230.369C243.254 230.369 244.667 231.552 244.667 233.327C244.667 235.661 242.563 237.764 240.23 237.764C238.734 237.764 237.436 236.712 237.436 235.135C237.436 233.837 237.995 232.9 238.57 232.325C238.668 232.226 238.783 232.177 238.915 232.177C239.178 232.177 239.408 232.407 239.408 232.67C239.408 232.801 239.359 232.916 239.26 233.015C238.849 233.426 238.422 234.132 238.422 235.135C238.422 236.088 239.194 236.778 240.23 236.778C242.005 236.778 243.681 235.102 243.681 233.327C243.681 232.144 242.793 231.355 241.544 231.355C240.476 231.355 239.967 231.815 239.901 231.881C239.819 231.947 239.704 232.012 239.572 232.012Z" fill="#253758"></path><path d="M271.951 230.369C271.951 229.547 274.104 229.547 274.416 229.547C275.287 229.547 276.552 229.925 276.552 231.191C276.552 231.979 275.944 232.489 275.435 232.834C274.958 233.146 274.745 233.459 274.745 233.656C274.745 233.853 274.925 234.017 275.566 234.379C276.109 234.675 276.881 235.069 276.881 235.956C276.881 237.879 273.545 238.586 272.279 238.586C272.016 238.586 271.786 238.356 271.786 238.093C271.786 237.83 272.016 237.6 272.279 237.6C273.643 237.6 275.895 236.663 275.895 235.956C275.895 235.759 275.714 235.595 275.073 235.233C274.531 234.938 273.758 234.543 273.758 233.656C273.758 232.867 274.367 232.357 274.876 232.012C275.353 231.7 275.566 231.388 275.566 231.191C275.566 230.813 275.188 230.533 274.416 230.533C273.972 230.533 273.265 230.566 272.625 230.829C272.559 230.846 272.51 230.862 272.444 230.862C272.197 230.862 271.951 230.665 271.951 230.369ZM279.342 237.929C279.079 237.929 278.849 237.715 278.849 237.436C278.849 237.304 278.898 237.173 279.013 237.074C281.724 234.675 283.483 231.306 283.614 229.991C283.631 229.744 283.861 229.547 284.107 229.547C284.387 229.547 284.6 229.794 284.6 230.04C284.6 230.961 284.272 233.343 284.272 235.628C284.272 236.482 284.305 237.304 284.436 238.011V238.093C284.436 238.339 284.239 238.586 283.943 238.586C283.713 238.586 283.499 238.405 283.45 238.175C283.319 237.37 283.286 236.515 283.286 235.628C283.286 234.806 283.335 234.034 283.384 233.245C282.546 234.724 281.248 236.4 279.67 237.797C279.572 237.879 279.457 237.929 279.342 237.929Z" fill="#253758"></path><path d="M118.213 29.0547C119.093 27.1347 119.706 25.9081 120.053 25.3747C120.426 24.8147 120.786 24.5481 121.133 24.5747C122.119 24.7347 123.199 26.5481 124.373 30.0147C124.719 31.0547 125.013 31.7747 125.253 32.1747C125.493 32.5747 125.773 32.7881 126.093 32.8147C126.839 32.9214 127.333 33.2814 127.573 33.8947C127.759 34.4014 127.599 34.7214 127.093 34.8547C126.986 34.8814 126.879 34.8947 126.773 34.8947C126.426 34.8947 126.599 35.7481 127.293 37.4547C127.373 37.6681 127.466 37.8947 127.573 38.1347C129.093 41.6281 129.359 43.5614 128.373 43.9347C127.839 44.1214 127.373 43.9081 126.973 43.2947C126.573 42.6814 125.959 41.2681 125.133 39.0547L123.573 34.8147L120.733 34.9747C118.866 35.1081 117.786 35.2547 117.493 35.4147C117.173 35.6281 116.533 37.0547 115.573 39.6947C114.986 41.1881 114.519 42.2281 114.173 42.8147C113.853 43.4014 113.573 43.6947 113.333 43.6947C112.986 43.6947 112.746 43.6547 112.613 43.5747C112.479 43.4681 112.413 43.2547 112.413 42.9347C112.439 42.6147 112.533 42.2014 112.693 41.6947C112.879 41.1881 113.173 40.4681 113.573 39.5347C114.506 37.1881 114.973 35.9747 114.973 35.8947C114.946 35.8681 114.879 35.8681 114.773 35.8947C114.693 35.8947 114.546 35.9214 114.333 35.9747C114.146 36.0281 113.946 36.0947 113.733 36.1747C112.906 36.4414 112.359 36.4414 112.093 36.1747C111.693 35.7747 111.666 35.3881 112.013 35.0147C112.386 34.6414 113.079 34.3347 114.093 34.0947L116.093 33.6147L118.213 29.0547ZM121.893 30.1747C121.733 29.8014 121.559 29.3614 121.373 28.8547C121.186 28.3481 121.053 27.9881 120.973 27.7747C120.893 27.5347 120.839 27.4147 120.813 27.4147C120.813 27.3881 120.746 27.4947 120.613 27.7347C120.479 27.9747 120.306 28.3214 120.093 28.7747C119.879 29.2014 119.666 29.6681 119.453 30.1747C118.626 32.0681 118.253 33.0814 118.333 33.2147C118.439 33.3214 119.226 33.2814 120.693 33.0947L122.853 32.8147L121.893 30.1747ZM134.803 26.4547C135.416 26.2147 136.323 26.1214 137.523 26.1747C138.749 26.2014 139.629 26.3481 140.163 26.6147C140.749 26.8547 141.336 27.4414 141.923 28.3747C142.243 28.9347 142.416 29.3881 142.443 29.7347C142.496 30.0547 142.416 30.5214 142.203 31.1347C142.069 31.5347 141.869 31.9214 141.603 32.2947C141.336 32.6414 141.069 32.8681 140.803 32.9747C140.376 33.1614 140.176 33.3081 140.203 33.4147C140.203 33.5747 140.616 34.0681 141.443 34.8947C142.083 35.4814 142.496 35.9747 142.683 36.3747C142.896 36.7481 143.003 37.2414 143.003 37.8547C143.003 39.1881 142.283 40.3081 140.842 41.2147C139.429 42.1214 137.603 42.6014 135.363 42.6547C134.723 42.6547 134.229 42.6014 133.883 42.4947C133.563 42.3614 133.256 42.1081 132.963 41.7347C132.616 41.2814 132.389 40.6681 132.283 39.8947C132.203 39.1214 132.176 37.3347 132.203 34.5347C132.256 30.4014 132.469 28.0147 132.843 27.3747C133.243 26.7881 133.536 26.5347 133.723 26.6147C133.909 26.7481 134.269 26.6947 134.803 26.4547ZM139.563 29.1347C139.216 28.7881 138.563 28.5881 137.603 28.5347C136.669 28.4814 135.843 28.6014 135.123 28.8947C134.723 29.0547 134.469 29.2947 134.363 29.6147C134.256 29.9081 134.203 30.5347 134.203 31.4947C134.203 32.7747 134.283 33.4281 134.443 33.4547C134.523 33.4547 134.749 33.3481 135.123 33.1347C135.603 32.7881 136.496 32.3747 137.803 31.8947C139.003 31.4681 139.736 31.0414 140.003 30.6147C140.296 30.1881 140.149 29.6947 139.563 29.1347ZM140.323 36.4547C139.923 36.1081 138.789 35.8547 136.923 35.6947L134.203 35.4947V37.4947C134.203 38.9881 134.349 39.8814 134.643 40.1747C134.963 40.4414 135.776 40.4281 137.083 40.1347C139.456 39.6281 140.763 38.8814 141.003 37.8947C141.136 37.4147 140.909 36.9347 140.323 36.4547ZM148.785 28.0947C149.318 27.8547 150.345 27.7347 151.865 27.7347C153.065 27.7081 153.985 27.8547 154.625 28.1747C155.292 28.4947 155.518 28.9081 155.305 29.4147C155.198 29.6547 154.958 29.8147 154.585 29.8947C154.212 29.9747 153.532 30.0014 152.545 29.9747C150.865 29.9214 149.718 30.0814 149.105 30.4547C148.625 30.7214 148.358 31.0947 148.305 31.5747C148.252 32.0281 148.292 33.5214 148.425 36.0547C148.638 39.4414 148.572 41.2547 148.225 41.4947C147.558 41.9214 147.078 41.4547 146.785 40.0947C146.598 39.1347 146.465 37.6547 146.385 35.6547C146.278 33.2814 146.252 31.8147 146.305 31.2547C146.358 30.6681 146.598 30.1081 147.025 29.5747C147.692 28.7481 148.278 28.2547 148.785 28.0947ZM160.208 29.7347C160.528 29.1481 160.901 29.2547 161.328 30.0547C161.514 30.4014 161.741 30.8947 162.008 31.5347C162.408 32.5214 163.114 33.7881 164.128 35.3347C165.141 36.8814 165.768 37.6681 166.008 37.6947C166.114 37.6947 166.488 36.4681 167.128 34.0147C167.874 30.9747 168.554 29.4414 169.168 29.4147C169.354 29.3881 169.581 29.5081 169.848 29.7747C170.114 30.0414 170.248 30.3081 170.248 30.5747C170.274 30.8147 170.208 31.2014 170.048 31.7347C169.754 32.6681 169.341 34.4147 168.808 36.9747C168.354 39.2947 167.914 40.9747 167.488 42.0147C167.088 43.0281 166.514 43.9481 165.768 44.7747C164.888 45.6814 163.861 46.5214 162.688 47.2947C161.514 48.0947 160.688 48.4947 160.208 48.4947C159.514 48.4947 159.034 48.2947 158.768 47.8947C158.528 47.5214 158.608 47.1347 159.008 46.7347C159.434 46.3081 159.834 46.0947 160.208 46.0947C160.608 46.0947 161.541 45.4014 163.008 44.0147C164.474 42.6014 165.208 41.7081 165.208 41.3347C165.208 40.8281 164.688 39.8681 163.648 38.4547C162.314 36.5881 161.314 34.8147 160.648 33.1347C159.981 31.4547 159.834 30.3214 160.208 29.7347ZM178.45 28.2947C179.303 27.8947 179.983 27.6947 180.49 27.6947C181.103 27.6947 181.743 28.0014 182.41 28.6147C183.103 29.2014 183.45 29.7614 183.45 30.2947C183.45 30.8814 183.25 31.2547 182.85 31.4147C182.45 31.5747 182.116 31.4014 181.85 30.8947C181.343 29.9881 180.53 29.8147 179.41 30.3747C178.316 30.9347 177.396 31.9747 176.65 33.4947C176.116 34.5881 175.89 35.7481 175.97 36.9747C176.076 38.1747 176.436 38.9481 177.05 39.2947C177.583 39.5881 178.663 39.7214 180.29 39.6947C181.916 39.6681 182.956 39.5081 183.41 39.2147C183.89 38.9214 184.343 38.8681 184.77 39.0547C185.223 39.2147 185.45 39.5481 185.45 40.0547C185.45 41.6814 182.996 42.3881 178.09 42.1747C177.076 42.1214 176.13 41.6681 175.25 40.8147C174.396 39.9614 173.863 38.9614 173.65 37.8147C173.383 36.1081 173.73 34.2947 174.69 32.3747C175.65 30.4281 176.903 29.0681 178.45 28.2947ZM196.086 28.4547C196.326 28.2147 196.553 28.1081 196.766 28.1347C196.979 28.1347 197.086 28.2547 197.086 28.4947C197.086 28.7614 197.873 28.8947 199.446 28.8947C200.646 28.8947 201.513 29.0547 202.046 29.3747C202.606 29.6681 202.779 30.0947 202.566 30.6547C202.486 30.8681 202.259 31.0014 201.886 31.0547C201.513 31.1081 200.859 31.0947 199.926 31.0147L197.526 30.7747L197.406 35.9347C197.326 38.4147 197.246 39.9081 197.166 40.4147C197.086 40.8947 196.833 41.1614 196.406 41.2147C196.086 41.2681 195.833 41.2281 195.646 41.0947C195.486 40.9347 195.353 40.6414 195.246 40.2147C195.166 39.7614 195.126 39.1214 195.126 38.2947C195.126 37.4681 195.139 36.4014 195.166 35.0947L195.326 30.8147L193.366 31.0947C192.326 31.2014 191.286 31.3614 190.246 31.5747C189.499 31.7081 189.033 31.5614 188.846 31.1347C188.633 30.6014 188.753 30.2147 189.206 29.9747C189.659 29.7347 190.753 29.4947 192.486 29.2547C194.593 28.9614 195.793 28.6947 196.086 28.4547Z" fill="#253758"></path><defs><filter id="filter0_d_3314_43" x="0.104521" y="0.579632" width="329.753" height="273.957" filterUnits="userSpaceOnUse" color-interpolation-filters="sRGB"><feFlood flood-opacity="0" result="BackgroundImageFix"></feFlood><feColorMatrix in="SourceAlpha" type="matrix" values="0 0 0 0 0 0 0 0 0 0 0 0 0 0 0 0 0 0 127 0" result="hardAlpha"></feColorMatrix><feOffset dx="3.78449" dy="0.946122"></feOffset><feGaussianBlur stdDeviation="4.73061"></feGaussianBlur><feComposite in2="hardAlpha" operator="out"></feComposite><feColorMatrix type="matrix" values="0 0 0 0 0 0 0 0 0 0 0 0 0 0 0 0 0 0 0.25 0"></feColorMatrix><feBlend mode="normal" in2="BackgroundImageFix" result="effect1_dropShadow_3314_43"></feBlend><feBlend mode="normal" in="SourceGraphic" in2="effect1_dropShadow_3314_43" result="shape"></feBlend></filter></defs></svg> 