<?xml version="1.0" encoding="UTF-8"?> <svg xmlns="http://www.w3.org/2000/svg" id="_Слой_2" data-name="Слой 2" viewBox="0 0 43.96 38.55"><defs><style> .cls-1 { fill: #29682e; stroke-width: 0px; } </style></defs><g id="_Слой_1-2" data-name="Слой 1"><g><path class="cls-1" d="M41.07,4.86c-.17-.19-.2-.71-.67-.67-.08,0-1.39.58-1.54.67-.74.43-1.17,1.2-1.81,1.74.04-.37.36-1.46-.08-1.57-.87-.23-.47,1.65-.56,2.15-.05.28-.39.54-.42.85.47.58.53-.8.74-.21l-1.32,3.55c-.67-.61-.61-1.56-1.39-2.1-.77-.53-1.4-.48-1.94.3.05-.32-.47-.43-.51-.59.12-.83.16-1.68.33-2.5.03-.12.34-1.53.5-1.35.04.79,1.28.42.42-.32.63.18.77-.18.41-.68-.18-.25-.44-.06-.2-.59.2-.02.07.28.2.38.69.54.48-.91.43-1.23.04-.06.52.61.72.03.16-.46-.26-.35-.35-.55-.04-.09.21-.81-.31-.64-.18.06-.19.49-.32.64-.16.17-.59-.1-.64.3-.05.33.57.2.33.64-.25.45-.47-.07-.69.04-.04.02-.5.73-.51.77-.08.34.43.87.16,1.07-.09.07-.3-.07-.34.22-.02.17.13.28.13.46,0,.58-.32,1.59-.39,2.25-.02.21.04.93-.01.99-.03.04-.74.16-.98.34-.23.17-.39.62-.67.7-.38.11-.68-.1-1.02-.08-.82.05-1.54.83-2.07,1.37-.09-.25-.26-.59-.42-.79-.35-.43-.74-.32-.53-1.01l.37.21.48-.74c-.03.24.26.44.3.61.03.14-.26,1.09.07,1.08.27,0,2.88-3.75,3.14-4.26.11-.22.59-1.36.04-1.24-.35.08-1.38,1.82-1.75,2.12l.95-3.13c.06-.25-.19-.47-.41-.34-.06.03-.63,1-.7,1.15-.27.56-.51,1.29-.58,1.9-.35.08-.17-.37-.26-.64-.12-.35-.44-.54-.8-.37-.41.2-.36,1.01-.45,1.35-.11.45-.37.85-.29,1.35-.2-.11-.48-.02-.64-.06-.16-.05-.4-.55-.73-.09-.39.55.18.49.36.68.14.14.18.56.37.74-.73-.18-1.27-.17-1.9.27-.43.3-.67.49-1.12.78-.22.14-.36.52-.47.59-.25.15-.96.03-1.22.48-.16-.08-.14-.61-.16-.63-.18-.18-.5.12-.38.53.21.69.12.44.15,1.11.07,1.2,1,1.45.86,2.59-.23-.06-.1-.39-.47-.32-.55.1-.07,2.52.61,2.79.38.15.38-.49.92-.14l-1.75,1.69c.1-1.18-.2-2.37-.37-3.55-.02-.14.02-.56,0-.58-.04-.04-.49.04-.53,0-.03-.03-.02-.65-.11-.8l.11-1.95c-.11.02-.37-.04-.42,0-.07.06-.25,1.65-.22,1.9-.06.07-1.23-.83-1.54-.21-.11.22.19.5.15.68-.03.12-.85.41-.94,1.08-.11.87.93,1.66,1.05,1.04.06-.3-.81-.39-.39-1.23.44-.88.73-.06,1.03.08.73.34.7-.37.32-.79.17-.13.57.65.85.7-.26,1.04-.95,2.2-1.07,3.26-.05.48.04,1.04,0,1.53-.68-.61-1.5-1.2-2.43-1.27.49-1.66.07-2.88-1.06-4.13.83.29,1.52-.03,1.89-.81.11-.24.22-.93.25-.97.17-.19,1.08,0,1.36-.31.52-.57.18-1.29.2-1.88.01-.53.38-1.13.22-1.75.45.26.97-.01,1.33,0,.2.01.26.25.47.2.23-2.13.59-3.54-.85-5.31-.25-.31-.59-.84-.95-.4-.09-.56.26-.64.74-.47.15.05.81.76.75.31-.09-.64-1.12-1.16-1.7-.64-.93.85.61,1.8.61,2.01,0,.06-.29.37-.19.58-.43-.46-.61-.03-.9,0-.16.02-.34-.1-.52-.1-.67,0-.61,1.11-.59,1.58-.83-.06-.84-.82-1.18-1.41-.39-.67-1.16-1.82-1.81-2.21-.34-.2-1-.53-.92.13.76-.09,1.2.64,1.59,1.16-.43-.24-1.82-.06-1.69.58.08.41.61-.19.82-.24,1.03-.24,1.53.51,1.83,1.35-.54-.01-1.18-.07-1.59.37-.21.23-.21.56-.49.78-.76.6-2.36.43-2.44,1.67-.02.33.3.38.29.4-.04.09-.22.16-.29.35-.14.36.03.69-.02.9-.02.1-.24.12-.31.24-.23.37-.11.92-.01,1.32-.67-.28-.65-.83-1.53-.74-.64.06-.91.57-1.21.69-.11.04-.71-.09-1.01-.04-.42.07-1.06.52-1.58.53-.62.52-.55,1.24-.75,1.9-.05.16-.35,1.1-.4,1.14-.05.05-.51.13-.69.21-1.24.62-2.14,2.15-2.25,3.51-1.34.24-.63-1.43-.11-1.96.26-.26.71-.29.64-.63-.02-.08-.29-.05-.33-.32-.12-.8,1.01-1.16,1.65-1.11.22.02.61.21.64.2.08,0,.21-.23.16-.31-.16-.21-1.34-.25-1.63-.21-.5.08-1.33.65-1.33,1.21,0,.24.19.51.18.64,0,.07-.55.7-.66.89-.53.95-.67,1.93.69,2.02-.32.8-.95,2.23-.43,3.02.49.73,1.44-.11,1.64-.69.24.63.71,1.08,1.27.42.46-.55.89-2.95.8-3.65-.05-.45-.36-.5-.43-.1-.17.98-.1,1.93-.48,2.91-.68,1.75-.78-.13-.9-.21-.47-.31-.8,1.7-1.59,1.22-.36-.22-.15-1.69.02-2,.12-.22.34-.14.39-.19.07-.08.31-1.67.44-2.05.37-1.09,1.16-2.3,2.33-2.59-.04.68.71,1.44,1.35,1.56.5.1,1.02-.09,1.46.34.16.16-.09.07-.13.13-.14.19.07.51.08.72-.09.08-2.16-.22-1.75.53.22.41,1.57.34,2.01.31.38-.03.49-.4.96.11.15.17-.23.11-.32.11-.39,0-1.16-.09-1.3.39-.43,1.4,2.2.49,2.79.51.29,0,.29.08.26.37-.52-.13-1.13.26-1.54.32-.06,0,0-.33-.26-.21l.42,1.48c-3.52-2.51-4.29,1.88-2.84,4.37.83,1.42,2.01,2.05,3.65,2.18.22.02.55-.15.66-.09.05.03.4.72.55.88.35.41,1.32,1.29,1.8,1.48.21.08.43.03.63.11.09.04,1.43,1.19,1.49,1.26.78.99.5,1.99,2.27,2.5.25.07.83.08.89.12.04.02.21.54.38.73.51.54.39-.02.69.9.03.09.12.24.18.34.7.22,1.42.36,2.16.46.37-.04.74-.08,1.11-.09.42-.01.98.25,1.43-.02.02.07.03.17.05.29.14,0,.27,0,.4,0,0-.08-.03-.16-.03-.24.8-.15.5-.85.66-1.11.14-.24,1.1-.08.82-.9-.07-.19-.32-.1-.3-.28.99-.23,1.63-.59,2.26-1.39.13-.17.37-.69.45-.74.24-.15.89-.28,1.27-.5.77-.44,1.96-1.27,2.41-2.04.13-.22.51-1.37.64-1.37.05,0,.38.35.92.29,1.96-.2,3.92-1.71,4.4-3.65.58-2.4-1.61-4.82-3.68-2.67.39-.94.09-1.35-.55-.39-1.52,2.28-.81,6.89-2.95,8.58-.95.75-2.37,1.47-3.59,1.12l.95-.16.21-.37c-.48,0-1.05.02-1.51-.13-.28-.1-.48-.38-.67-.4-.27-.03-.68.31-.98.4-.66.2-1.23.15-1.88-.07-.69-.23-.85-.77-1.64-.38-.96.47-1.12.92-2.46.67-.42-.08-.96-.59-1.3-.61-.31-.02-.54.26-.84.31-.81.13-2.16-.11-2.75-.73-.16.12-.1.39-.31.31l-1.96-1.53c-1.29-1.17-1.98-2.76-2.3-4.48-.25-1.34-.12-2.79-.77-4.04.46-.08.95-.07,1.42,0,.92.16,1.69.89,2.6.63,0,.08-.07.13-.04.22.83,2.8-.22,5.62,1.84,8.09.21.25.59.77.85.43.22-.29-.37-.82-.56-1.15-1.4-2.52-.71-5.19-1.99-7.69.63-.16,1.42-.71,2.07-.75.75-.04,1.61.52,2.38.54-.34,1.14.24,2.39.32,3.54.05.75.04,1.79,0,2.55-.03.68-.61,3.32.16,3.64.53.23.01-.67-.03-.92-.17-1.06.22-2.1.29-3.15.11-1.84-.29-3.75-.63-5.56h1.53c.27,0,1.45-.64,1.93-.72,2.17-.34,3.54,1.28,5.68,1.12.45-.03.9-.19,1.34-.3-.27,2.69-.49,5.65-1.85,8.05-.26.47-.78.83-.8,1.37.35.35,1.32-1.27,1.43-1.48,1.31-2.43,1.4-5.45,1.64-8.15,1.51-.29,2.88.57,4.44.32.1-.43-.13-.39-.32-.63l.85-.21-.21.74.53-.42v.42c.32-.04.42-.31.8-.32.36-.01,1.7.65,1.85.16.15-.49-1.4-.74-1.69-1.06.42-.38.86.08,1.1.06.17-.02.33-.25.37-.22,0,0-.03.15.07.21.3.18,1.88.57,2.14.41.66-.42-1.25-1.31-1.68-1.04,1.23-1.31.47-1.69-.74-.63-.03-.68-.11-1-.84-.73.06.51.32.94-.1,1.41-.03.03-.81.33-.85.34-.11.02-.3-.17-.58-.17-.7,0-1.29.48-1.97.53.13-.23.16-.69.31-.89.16-.2.61,0,.82,0,.31-.01,2.15-.15,2.04-.65-.12-.58-1.81-.04-2.22-.06-.11-.1.76-.97.84-1,.16-.06.43.13.62.03.08-.04.63-.89.87-.99.12-.05.2.17.32.12.18-.08.89-.76,1.17-.95.75-.48,1.78-.96,2.65-1.16.37-.08,2.05-.15,2.08-.54-.18-.63-.95-.3-1.46-.37l.11-.32h-.63s.11.42.11.42c-.21-.04-.4.08-.59.1-.32.04-.03-.15-.06-.25-.1-.34-.76.08-.84.23-.1.17.04.39,0,.44-.05.07-1.21.72-1.47.92-.33.27-.6.61-.91.89-.11-.06-.03-.29-.15-.38-.67-.5-1.67,1.19-2.07,1.54l-.15-.8c-1.47-.29-.88,1.69-1.38,2.49l-.23-1.14c-.75-.37-.77.67-.72,1.2.05.55.4.99.21,1.54-.28-.15-1.18-.12-1.35-.23-.18-.12-.62-1.88-1.13-2.31-.48-.4-1.14.26-.69.74-.78-.2-1.57-.09-.63.63-2.14.33-.12,1.17.85,1.17.04.02-.06.13-.1.16-.46.3-2.68.24-3.06-.17-.19-.21.44-.6.48-.65.14-.19.36-.78.56-1.08.18-.27.72-1.08,1.01-1.11.19-.02.4.11.71.09.49-.04,1.22-.32,1.04-.93h-.85c.01-.22,1.04-.43.74-.74-.17-.18-.96.51-1.06.42.46-1.07-.34-1.73-.84-.57-.27.63-.1.99-.16,1.48-.02.18-.59.61-.59.89l-.1-1.75c-.49-.71-.48.13-.58.37-.28.67-.76,1.28-.9,2.01-.35-.11-.54-.58-.95-.37-.58.29.17,1.25.11,1.33-.6-.28-1.26-.21-1.9-.21,1.09-1.12,2.25-2.28,2.43-3.91l-.58.21c-.23-.28.34-.29.43-.42.09-.12-.13-.57.31-.74.09,1.67,1.87,1.23,2.57.25.26-.37.34-.82.55-1.15.18-.28.61-.53.83-.86.2-.3.3-.95.34-.98.27-.25.63.3.63.58,0,.31-.77.98-.31,1.64-.47-.03-.93-.58-1.11,0-.31.95.46.72.59.85.04.05-.34.7.16.75.35.03.87-.77.74-.96-.07-.11-.39-.04-.27-.42.58.59,1.27.43,2.01.32-.39.48.28.8.2,1.09-.01.06-.55.7-.68.92-.42.74-.76,1.57-.69,2.44h.32c-.06-.86.29-1.66.76-2.36.16-.25.79-1.07.99-1.24.24-.21.68-.28.87-.45.15-.14.44-.7.56-.92.35.19.39.58.42.95.62.17.73-.94.87-1.04.09-.07.75-.15,1.07-.36.8-.5,1.34-1.75,1.23-2.67-.03-.22-.27-.64-.19-.78.03-.04.69-.47.83-.6.21-.19,1.34-1.18.94-1.42-.43-.26-1.26.59-1.58.84-.16-.22,1.35-3.26,1.53-3.27.04,0,.19.17.4.17.34,0,1.12-.12,1.51-.18.4-.06.51-.21.22-.54-.31-.36-1.1-.31-1.54-.31.15-.55,1.11-1.51,1.66-1.56.16-.02,1.05.24,1.08.3.01.02-.12.21-.09.34.07.29.54.49.82.38.36-.67-.22-.76-.52-1.09ZM27.87,6.79c.05-.24.19-.48.22-.74l.6-1.25-.74,2.33c-.19.03-.1-.24-.08-.34ZM26.84,6.18c.37,0,.24,2.22.16,2.54-.16,0-.19-.38-.2-.49-.05-.47-.09-1.11-.11-1.59,0-.13-.01-.46.15-.46ZM32.88,26.19c.32-.32.72-.84,1.18-.93.47-.09.82.11.99.55.48,1.25-.82,2.76-1.96,3.14-.24.08-1.13.33-1.08-.01l.86-2.74ZM32.96,29.44c1.38-.33,3.09-1.98,2.8-3.5-.12-.62-1.07-1.48-1.71-1.45-.26.01-.55.3-.8.15,1.21-1.4,2.96-1.27,3.21.78.28,2.27-2.24,4.64-4.48,4.14l.98-.13ZM22.9,37.91c-.53.08-1.85.13-2.41.11-.56-.02-1.76-.1-1.85-.77,1.66.03,3.34.37,4.97-.05.06.48-.3.65-.71.71ZM24.28,36.54c-.74,0-1.47.46-2.2.45-.76-.01-3.12-.28-3.73-.62-.13-.08-.3-.18-.35-.34.45.08.89-.12,1.32-.12.66,0,1.52.29,2.22.33,1.01.06,2.02-.08,3.02-.11l-.28.4ZM25.04,32.85l.37.06c-.34.32-.82.4-1.27.37l.89-.43ZM21.03,32.54c.18-.03.32.22.25.31-.03.04-.9.38-1.06.32.08-.13.74-.62.8-.63ZM16.13,33.04c.4-.01.98-.7,1.24-.19-.85.02-1.54.66-2.43.32l1.19-.13ZM15.59,33.78c.43-.06,1.11-.51,1.39-.48.36.04.66.66,1.01.77.69.21,1.5-.06,2.15-.3.23-.09,1.11-.57,1.19-.57.33,0,.91.72,1.38.8.65.11,1.43-.07,2.06-.26.25-.07.56-.36.8-.36.35,0,.86.58,1.32.42.1.08-.67,1.08-.79,1.17-1.68,1.32-5.26.08-7.31.64-.43.14-1.08-.29-1.37-.31-.17-.01-.29.13-.59.05-.59-.15-1.76-.95-1.91-1.6.25.03.39.06.66.03ZM9.22,28.72c-.93-.72-2.63-1.37-3.01-2.54-.28-.85-.19-2.21,1.01-1.86.15.05,1.07.74,1.15.86.15.24.21,1.19.31,1.59.17.65.38,1.29.54,1.94ZM8.37,24.38c-2.53-1.97-3.58,1-2.06,2.86l2.8,1.91c-2.43.24-4.01-2.82-3.81-4.92.2-2.09,2.82-1.48,3.07.16ZM15.36,17.35v1.85c-.31.05-.17-.07-.22-.25-.27-.89-.45-1.9-.52-2.82.24.08.74,1.06.74,1.22ZM19.59,5.34c.17.11.37.48.44.67.1.26.22.52.19.81-.39-.42-1.07-.93-.63-1.48ZM18.64,7.03l.44.67c.12.25.45,1.16.19,1.34-.2.14-1.2-.5-1.26-.79.73-.01.66-.68.64-1.22ZM18.2,9.64c.24.7-.32.99-.4,1.47-.05.34.09,1.45.05,1.53-.18.37-1.35.23-1.64.53.14-.42.35-1,.53-1.4.05-.11.23-.11.29-.26.2-.46.05-1.78.14-1.92.09-.14.89-.33,1.03.06ZM14.51,11.53c-.66.03-.95-.68-.48-1.22.66-.77,1.48-.24,1.43.64-.2-.06-.19-.37-.42-.47-.73-.34-1.01.64-.53,1.06ZM15.89,12.22c-.04.15-.45.29-.58.32-.48.12-1.87.07-2.28-.17-.06-.03-.7-1.01-.72-1.08-.1-.33,0-.67.08-.98.14,0,.22.31.26.43.11.33.14.67.28.99.61,1.32,1.88.25,2.95.49ZM14.96,11.88s-.13-.28-.12-.3c.11-.15,1.02.11,1.05-.81.02-.53-.47-.66-.74-.99,2.56-.15.43-.75.43-1.01.56-.52,1.06.25,1.14.77.04.27-.03,1.08-.1,1.33-.12.38-1.21,1.31-1.65,1.01ZM15.49,7.16c.34.17.38.52.67.7.52.33,2.07.26.89,1.39-.11-.56-.67-1.2-1.27-1.01-.59.18-.23.91-.79.06l-1.01-.58c.38-.47.9-.87,1.51-.56ZM12.93,8.78c.36-.23,1.4-.45,1.69-.16.2.2-.17.21-.23.24-.47.23-.91.34-1.24.78-.07.1-.1.33-.13.35-.17.13-.97-.63-1.15.7v1.21c-.02-.27-.35-.49-.41-.71-.17-.62.93-2.06,1.46-2.4ZM10.92,11.58c.26-.03.34.25.54.37.11.07.33.02.4.07.13.11,0,.99.66,1.41.77.48,1.39-.02,2.07-.15.12-.02,1.16-.15,1.21-.11.02.02-.03.21.02.29.08.12.39.06.41.2.03.15-.21.69-.32.81-.37.41-1.03-.06-1.51,0-.47.05-.87.51-1.21.59-1.23.28-.87-.61-1.28-1.32-.39-.69-1.25-1.05-.97-2.15ZM10.66,13.85c.01.17-.23,1.11-.3,1.35-.07.22-.64,1.71-.72,1.76-.24.15-.42-.13-.41-.36.02-.32.78-.86.61-1.77-.02-.09-.81-1.57-.88-1.66-.1-.12-.21-.21-.37-.22.36-.9,2.04.47,2.07.9ZM8.85,14.96c.04-.67.39-.46.47-.05.12.61-.1,1.12-.63,1.43.23-.5.13-.9.16-1.38ZM8.06,13.27c.15.01,1.03.56.84.74-.05.04-.92-.38-.95-.42-.03-.03.15-.19.11-.32ZM8.23,14.37s.28.32.36.39l-1.38-.11c.02-.1-.03-.39,0-.42.04-.04.91.07,1.02.14ZM8.14,15.46l-.93-.49c.5.06,1.29,0,1.16.74l-.23-.25ZM8.26,16.87s-.8.15-.84.11c0-.44.32-.54.69-.61.17.03.21.44.15.5ZM7.63,13.48c-.59.17-.95.35-1.59.21.33-.45,1.41-1.01,1.59-.21ZM6.15,17.61c-.18.17-.9-.16-1.09-.33-.89-.78-.32-1.19-.12-1.99.15-.61.12-1.23.47-1.8.59.34,0,.61-.08,1.03-.06.27,0,.55-.03.81-.05.32-.26.59-.21.96.07.41,1.31,1.09,1.06,1.33ZM5.62,16.08c0-.28.23-.58.3-.87.13-.6-.23-1.12.76-1.09.21.59-.44.84-.4,1.3.07.81.93,1.01.93,1.09,0,.77-1.6.51-1.59-.42ZM7,17.51s.42.1.57.1c.32-.01.72-.21.97-.41.13-.11.1-.33.26-.32.14.28.08.71-.13.92-.06.06-.38.2-.47.22-.29.05-1.54-.13-1.19-.51ZM7.58,21.01l-.69-.12c.4-.6,1.23-.2,1.8-.1l-1.11.22ZM8.91,20.36c.09-.36,1.05.6.95.05-.06-.36-.89-.85-1.06-1.21.56-.04,1,.94,1.27,1.1.11.07.63.02.74.48-.35-.09-.78.14-1.09.09-.33-.06-.48-.47-.82-.51ZM10.65,21.21c.25-.02.69-.08.79.21l-1.27.11c-.09-.28.28-.3.47-.32ZM11.23,21.85l.95-.32c-.12.59-.54.85-.95.32ZM11.97,21.06c-.11-.08-.09-.34-.16-.48-.25-.44-1.93-2.46-2-1.07-.32-.29-.66-.83-1.16-.75-.43.07-.12.43-.37.53-.08-.37-.34-.59-.64-.79.83-.12,1.09.14,1.57-.65.09-.16.1-.4.13-.45.01-.02.22.08.44-.03.78-.39,1.4-3.02,1.35-3.9.86.5.23,1.61,1.16,2.07.94.47,1.18-.33,2.02-.37-.34.46-.08,1.44.03,2.03.09.48.25.98.39,1.46-.21.16-.89-.75-1.11-.95-.78-.67-1.96-1.37-3.01-1.27-.14.79.51.91.95,1.32.51.48,1.12,1.29,1.77,1.51.66.22,1.19-.12,1.4.61l-1.5-.51c-1.82-.45-1.21.45-.2,1.15-.06.09-.25.47-.28.49-.04.03-.76.08-.79.05ZM13.88,18.67c-.86-.27-1.58-1.07-2.33-1.59.87.21,1.77.89,2.33,1.59ZM14.46,21.42c-.51.14-1.03.24-1.53.42.37-.24.08-.71.11-.74.03-.03.7-.12.78-.11.28.03.63.35,1.01.21-.04.22-.23.17-.37.21ZM14.7,20.54c-.82-.07-1.32-.14-1.88-.82.8,0,1.52.41,2.22.74.02.2-.22.08-.34.07ZM17.75,21.94l-2.82-.62c.58.13.58-.62.9-.6.37.03,1.15.88,2.01.92.37.02.78-.27,1,.2l-1.1.1ZM27.21,20.68c.19-.19.52.61.64.68.12.07.31.02.39.08.01,0,.14.28.13.29-.45.2-.3-.09-.5-.22-.17-.11-.54-.08-.56-.1-.03-.03.27-.5-.11-.74ZM24.57,19.41c-.06.57-.32,1.29-.74,1.69.02-.62.25-1.28.74-1.69ZM25.34,10.55c.35.19.46.51.71.77.3.32.79.35.64,1l-.69-.84c-.7-.4-1.02-1.04-1.91-.75-.39.13-.76.72-.89.17.66-.69,1.3-.8,2.14-.35ZM24.76,11.75c-.27-.07-.53.02-.69-.04-.45-.16.3-.54.74-.43.18.05.91.6,1.03.77.31.43.42,1.26,0,1.64.09-.77-.25-1.72-1.08-1.94ZM24.36,12c.97.07,1.12,1.88.53,2.43-.1-.34-.13-.7-.16-1.05-.01-.13.13-.21.11-.33-.02-.13-.57-.98-.48-1.05ZM23.12,12.88c-.06.13,0,.27-.06.36-.06.1-.36.16-.34.45-.42-.31.03-.65-.58-.9,0-.11,1.12-.42,1.16-.37.2.22-.16.43-.18.46ZM21.65,16.03c-.45-.4-.17-1.01-.28-1.51-.13-.58-.79-.99-.61-1.92.11-.6.86-.44,1.22-.69.21-.14.34-.58.54-.63.3-.08.57.38.46.52-.09.1-1.41.24-1.49.91-.02.18.1.35.08.51-.02.13-.19.24-.19.54-.01.7,1.2,1.53,1.6,2.12-.38.32-.91.53-1.32.16ZM23.35,15.48c-.48-.01-1.12-1.32-1.43-1.73.06-.27.76.02.82.08.06.06.1.34.2.47.25.35,1.03.54,1.41.34.01.45-.62.84-1.01.84ZM26.11,15.08c-.25.35-.36.95-.62,1.23-.3.32-1.32.71-1.56.2-.31-.67,0-.5.27-.7.15-.11.5-.49.54-.5.09-.02.24.07.37.03.37-.09.54-.34.79-.59l.95-1.91c1.05.85-.28,1.59-.73,2.23ZM31.7,16.02c-.12.12-.33.11-.42.22-.07.1,0,.3-.11.32-.46.07-.73-.58-1.1-.7-.47-.15-1.56.15-1.7-.53-.17-.86.52-1.08.53-1.18.07-.37-.73-.76,0-1.1.29.75-.22,1.31.36,1.97.68.79,1.83,1.02,2.34-.07.51.43.61.55.1,1.05ZM30.15,14.09c.19.57.53.61,1.08.56-.21.63-.66.53-1.17.27-.81-.42-.41-.65-.41-1.28,0-.57-.63-1.53.41-1.53.04.03-.16.19-.19.29-.07.26.17,1.39.27,1.69ZM31.76,12.53c.07-.08.27.18.16-.42,1.25.69.21.96-.07,1.88-1.02.21-1.62.42-1.25-.93.19.04.18.31.36.43.41.28,1.08-.09,1.02-.59-.02-.16-.24-.34-.21-.37ZM33.17,14.41c-.14.28-1.41.95-1.41.13.83.07.63-.19.89-.64.25-.43.65-.78.59-1.31-.12-.93-2.38-2.02-1.59-.17-.68-.38-.73.28-1,.32-.21.03-.38-.02-.27-.27.11-.24.6-.29.84-.27.13-.4-.59-.16-.52-.46.15-.6.74-1.06,1.37-.86.08.02.97.57,1.02.62.47.51.37,2.29.07,2.9ZM33.25,15.07c.12-.22.39-.17.58-.42.3-.39.42-1.25.36-1.74-.04-.35-.31-.66-.26-1.01.27.4.72,1.12.67,1.61-.07.59-.63,1.67-1.36,1.56ZM34.09,15.07c.33-.41.84-1.21.85-1.74,0-.44-.55-1.83-.95-2.02-.21-.1-.28.14-.37.14-.06,0-.31-.3-.44-.38-1.01-.62-1.95-1.09-2.79.03-.14.19-.22.58-.31.64-.17.11-.52,0-.79.16-.16.1-.2.33-.32.42-.33.24-.84.24-1.07.84-1-.62-.85-1.64,0-2.33.97-.78,1.25.05,2.24-.41.58-.27.82-1.17,1.45-.75.2.13.63,1.12,1.12.79.49-.33-.67-.24-.33-.75.28-.42.71-.39,1.1-.14.37.24.65,1.13.98,1.56.44.58,1.16.91,1.2,1.76.03.74-.79,2.03-1.58,2.16Z"></path><path class="cls-1" d="M41.18,17.61c1.3-.32,3.74.43,1.59,1.64.6.59,1.66,1.42.95,2.33-.65.83-1.46-.06-1.96-.58-.44,1.59-1.85.75-1.83-.58,0-.63.57-1.4.6-1.71.02-.27-1.65-.99-1.87-.86-.03.02-.07.2-.19.29-.5.37-.42-.29-.52-.31-.19-.03-1.07.29-1.35.34-.17.03-.21.19-.39-.07l1.19-.92c.27-.22.85.04,1.04-.03.1-.04.37-.4.62-.53.88-.46,2.69-.32,2.12,1.01ZM39.28,17.29c.34-.04.83.33,1.12.31.4-.02.7-.71-.32-.63-.2.02-.69.12-.79.32ZM43.09,18.25c-.17-.19-1.38-.08-1.69-.11-.07.06.28.59.38.62.12.03,1.61-.19,1.31-.51ZM40.92,18.99c-.35,0-.7,2.29.1,2.43.53-.64.71-1.94-.1-2.43ZM41.82,20.16c-.12.18,1.13,1.63,1.54,1.06.33-.45-.98-1.6-1.28-1.91-.11.21.14.41.04.68-.06.16-.29.16-.31.17Z"></path><path class="cls-1" d="M7.95,6.29l-.37-.11-.48-1.37c-.08.94.51,2.33-.74.95.03.6.16,1.4.63,1.8-.06-.15-.12-.66,0-.74.5-.33.57,1.32.95,1.48-.1-.48-.15-.89-.06-1.38.36-1.86,1.09.97.8,1.59l-.42.05.79,1.11c.14-.39-.07-.93-.05-1.32.08-1.22.71-1.34.84-.11.12,1.2-.32,2.27,0,3.44-.41.05-.29-.74-.53-.9-.52-.35-2.83.16-2.65-1.05.03-.17.21-.3.21-.32,0-.18-1.46-.37-1.25-1.14.15-.55,1.09-.18,1.47-.08-.74-.68-1.55-2.05-.95-3.02l.53.17c.12-2.96,1.4-.38,1.27.95ZM7.85,8.94s-.98-.5-1.11-.54c-.19-.06-.38-.13-.59-.1-.35.31,1.47.84,1.64.85.09,0,.07-.2.05-.21ZM8.59,10.31c-.03-.35-1.5-.91-1.48-.48.01.22,1.24.47,1.48.48Z"></path><path class="cls-1" d="M24.67.04s.2.68.21.79c.05.45-.11,1.17-.06,1.49.03.21.8.92.7,1.32l.34-1.4c.1-.25.28-.62.46-.81.25-.28,1.17-.9,1.16-.27-.47.96-.95,1.91-1.41,2.88-.08.16-.28.28-.32.42-.13.43-.09,1.25-.13,1.72-.13.17-.19-.01-.21-.16-.04-.33.04-.71,0-1.05-.22-1.6-1.9.15-2.5.24-.89.13.3-1.2.82-1.41.68-.28.95-.12,1.53.26.15-.29-.45-1.2-.69-1.31-.41-.2-2.35-.08-2.55-.22-.14-.1-.72-1.19-.43-1.39.28-.19,2.41.48,2.76.8-.1-.46-.26-.82-.2-1.31.03-.25.21-.8.52-.59ZM23.83,2.06c-.35-.21-.91-.13-1.2-.23-.2-.07-.24-.57-.7-.41-.07.06.28.59.39.62.13.03.29-.09.41-.07.27.03.53.1.79.14.11.01.34.15.32-.05ZM25.94,3.43l.95-2.01c-.53.34-.95,1.04-1.05,1.65-.02.11-.09.39.1.36ZM24.46,3.96c-.53-.03-1,.32-1.27.74l1.27-.74Z"></path><path class="cls-1" d="M21.81,8.72l-.9,1.59c-.04.12-.33.14-.37.11-.38-.38,1.57-2.44,1.11-3.18-.08-.12-.35-.16-.47-.27-.69-.62.79-2.43-.22-3.12.78,0,.67.86.63,1.43-.03.47-.39,1.05,0,1.37.43.35.39-.12.63-.31.17-.14.4-.12.57-.27.16-.14.26-.51.47-.69.98-.83,1.52,1.07,1.19,1.93-.05.13-.79,1.22-.93,1.4-.64.83-1.2,1.15-1.74,0ZM23.93,7.03c-.02-.42.1-.9-.16-1.27-.14.09-.56.74-.48.85.03.03.18-.12.31-.06.24.12.11.46.32.48ZM22.59,7.2c-.07-.13.03-.31-.14-.28-.09.72-.21,1.32.11,2.01.64-.36.25-.39.21-.69-.06-.53.08-.54-.18-1.04Z"></path><path class="cls-1" d="M21.69,31.24s-.23.11-.3.08c-.4-.18-.02-1.69,0-2.12.07-1.69.16-3.39-.14-5.05-.04-.25-.45-1.61-.39-1.67.42-.09.48.4.61.71.69,1.77.72,4.24.55,6.11-.02.24-.28,1.86-.34,1.94Z"></path><path class="cls-1" d="M6.22,10.35c.17.17.6.76.66.98.05.19-.13.2-.2.15-.03-.03-.25-.5-.42-.69-.18-.19-.61-.57-.84-.64-.37-.11-.55.06-.79.03-.21-.02-.87-.52-1.23-.5-.32.68.65.55,1.22.74.67.22,1.74,1.01,2.07,1.64.05.1.19.3.05.38-.93-1.27-2.74-2.22-4.34-1.9-.3.06-.25.22-.39.35-.53.53-.58-.24-.14-.57.34-.25.74-.17,1.11-.26-.66-.62-1.48-.58-2.12.05-.27-.89.79-.9,1.42-.84.55.06,1.11.05,1.59.11.64.08,1.89.53,2.35.98Z"></path><path class="cls-1" d="M30.7,23.22c.26.27.36,2.75.32,3.23-.1,1.24-1.2,4.03-2.27,4.72-.39.25-.56-.07-.43-.42.14-.37,1.05-1.43,1.34-1.95.86-1.54,1-2.49.98-4.25,0-.4-.13-.8-.15-1.17-.01-.18.11-.26.21-.16Z"></path><path class="cls-1" d="M2.24,11.58c-.08.11-1.31.21-1.15.88.23.96,2.12-.46,2.58-.46.54,0-.22.5-.16.64.26.36,1.93-.27,2.27-.2.15.03.23.32.17.41-.07.1-1.8.35-2.07.32-.49-.04-.8-.42-.93-.41-.2.02-.68.36-1.09.4-1.25.1-1.69-1.06-.57-1.58-.32-.41-.84-.26-.53-.95.12.35,1.72.64,1.48.95Z"></path><path class="cls-1" d="M41.91,6.82s-.26.03-.29-.01c-.02-.02-.03-.61-.01-.63.29-.28.9.62.93.92.02.22-.3,1.58-.45,1.62-.75.17,0-1.73-.17-1.9Z"></path><path class="cls-1" d="M17.51,17.86s.39-.31.44-.35c.14-.09.23-.12.26.05.06.3-.39.56-.42.85-.02.25.37.91.05,1-.54.14-.75-1.06-.34-1.55Z"></path><path class="cls-1" d="M35.02,1.13c.45.44-.38.81-.82.5-.01-.49.42-.89.82-.5Z"></path><path class="cls-1" d="M35.47,10.52c-.65.09-.45-.74-.16-1.06.4-.1.06.86.16,1.06Z"></path><path class="cls-1" d="M24.75,21.33c.45-.13.66.32.22.54-.6.29-.65-.41-.22-.54Z"></path></g></g></svg> 