<?xml version="1.0" encoding="UTF-8"?> <svg xmlns="http://www.w3.org/2000/svg" width="430" height="127" viewBox="0 0 430 127" fill="none"><path d="M97.1686 11.1238H100.265H110.129H116.141V11.4478H114.845C114.005 11.4478 113.477 11.5918 113.261 11.8798C113.045 12.1678 112.937 12.7678 112.937 13.6798V34.4518C112.937 35.3638 113.045 35.9638 113.261 36.2518C113.477 36.5398 114.005 36.6838 114.845 36.6838H116.141V37.0078H107.249V36.6838H108.221C109.061 36.6838 109.589 36.5398 109.805 36.2518C110.021 35.9638 110.129 35.3638 110.129 34.4518V11.7718H101.705V20.5558C101.705 24.9958 101.189 28.7878 100.157 31.9318C99.1246 35.0518 97.9246 37.1758 96.5566 38.3038L94.4326 35.8918C95.1766 35.2678 95.8846 34.5238 96.5566 33.6598C97.2286 32.7718 97.8886 31.7278 98.5366 30.5278C99.2086 29.3278 99.7486 27.9358 100.157 26.3518C100.565 24.7678 100.769 23.1238 100.769 21.4198V14.1118C100.769 12.8638 100.613 12.1078 100.301 11.8438C100.013 11.5798 99.2326 11.4478 97.9606 11.4478H97.1686V11.1238ZM117.386 37.0078V36.6838H118.646C119.51 36.6838 120.038 36.5878 120.23 36.3958C120.446 36.2038 120.554 35.6758 120.554 34.8118V13.3198C120.554 12.4558 120.446 11.9278 120.23 11.7358C120.038 11.5438 119.51 11.4478 118.646 11.4478H117.386V11.1238H126.566V11.5198H125.306C124.442 11.5198 123.902 11.6158 123.686 11.8078C123.47 11.9998 123.362 12.5278 123.362 13.3918V23.7238H127.574C127.646 19.8598 128.834 16.7518 131.138 14.3998C133.442 12.0238 136.466 10.8358 140.21 10.8358C143.978 10.8358 147.014 12.0478 149.318 14.4718C151.622 16.8958 152.774 20.0878 152.774 24.0478C152.774 28.0318 151.622 31.2358 149.318 33.6598C147.014 36.0838 143.978 37.2958 140.21 37.2958C136.466 37.2958 133.442 36.1198 131.138 33.7678C128.834 31.3918 127.646 28.2598 127.574 24.3718H123.362V34.8118C123.362 35.6758 123.47 36.2038 123.686 36.3958C123.902 36.5878 124.442 36.6838 125.306 36.6838H126.566V37.0078H117.386ZM140.318 36.6478C143.342 36.6478 145.646 35.6278 147.23 33.5878C148.838 31.5478 149.642 28.5958 149.642 24.7318C149.642 20.4358 148.826 17.1598 147.194 14.9038C145.562 12.6238 143.186 11.4838 140.066 11.4838C137.018 11.4838 134.69 12.5038 133.082 14.5438C131.498 16.5838 130.706 19.5358 130.706 23.3998C130.706 27.6958 131.522 30.9838 133.154 33.2638C134.81 35.5198 137.198 36.6478 140.318 36.6478ZM154.617 37.0078V36.6478H155.877C156.741 36.6478 157.269 36.5518 157.461 36.3598C157.677 36.1438 157.785 35.6038 157.785 34.7398V13.3558C157.785 12.4918 157.677 11.9638 157.461 11.7718C157.269 11.5558 156.741 11.4478 155.877 11.4478H154.617V11.1238H169.593C170.025 11.1238 170.349 11.2318 170.565 11.4478H170.601L170.457 8.99981L170.781 8.96381L171.465 19.5118H170.817L170.673 16.9918C170.577 15.1678 169.929 13.8478 168.729 13.0318C167.553 12.1918 166.029 11.7718 164.157 11.7718H159.801V11.8078C160.329 12.3358 160.593 12.9598 160.593 13.6798V22.9678H163.113C166.377 22.9678 168.993 23.6158 170.961 24.9118C172.953 26.1838 173.949 27.8758 173.949 29.9878C173.949 32.0998 173.037 33.8038 171.213 35.0998C169.413 36.3718 167.025 37.0078 164.049 37.0078H154.617ZM160.593 23.5798V34.4518C160.593 35.2678 160.389 35.8798 159.981 36.2878V36.3598H163.365C165.789 36.3598 167.637 35.8198 168.909 34.7398C170.181 33.6358 170.817 32.0518 170.817 29.9878C170.817 27.8998 170.157 26.3158 168.837 25.2358C167.541 24.1318 165.645 23.5798 163.149 23.5798H160.593ZM189.042 37.2958C185.034 37.2958 181.806 36.0838 179.358 33.6598C176.91 31.2358 175.686 28.0318 175.686 24.0478C175.686 20.0878 176.91 16.8958 179.358 14.4718C181.806 12.0478 185.034 10.8358 189.042 10.8358C193.026 10.8358 196.23 12.0478 198.654 14.4718C201.102 16.8958 202.326 20.0878 202.326 24.0478C202.326 28.0318 201.102 31.2358 198.654 33.6598C196.23 36.0838 193.026 37.2958 189.042 37.2958ZM189.15 36.6478C192.414 36.6478 194.898 35.6278 196.602 33.5878C198.33 31.5478 199.194 28.5958 199.194 24.7318C199.194 20.4358 198.306 17.1598 196.53 14.9038C194.778 12.6238 192.234 11.4838 188.898 11.4838C185.61 11.4838 183.102 12.5038 181.374 14.5438C179.67 16.5838 178.818 19.5358 178.818 23.3998C178.818 27.6958 179.694 30.9838 181.446 33.2638C183.222 35.5198 185.79 36.6478 189.15 36.6478ZM209.446 36.3598H213.55C215.782 36.3598 217.582 35.7358 218.95 34.4878C220.318 33.2398 221.002 31.5838 221.002 29.5198C221.002 27.3598 220.282 25.5838 218.842 24.1918C217.402 22.7998 215.566 22.1038 213.334 22.1038H211.426V21.4918H212.866C214.45 21.4918 215.758 21.0358 216.79 20.1238C217.822 19.2118 218.338 18.0478 218.338 16.6318C218.338 15.1678 217.786 13.9918 216.682 13.1038C215.602 12.2158 214.162 11.7718 212.362 11.7718H209.446V11.8078C209.854 12.2158 210.058 12.8398 210.058 13.6798V34.4518C210.058 35.2678 209.854 35.8798 209.446 36.2878V36.3598ZM204.082 37.0078V36.6838H205.342C206.206 36.6838 206.734 36.5878 206.926 36.3958C207.142 36.1798 207.25 35.6398 207.25 34.7758V13.3558C207.25 12.4918 207.142 11.9638 206.926 11.7718C206.734 11.5558 206.206 11.4478 205.342 11.4478H204.082V11.1238H212.866C215.434 11.1238 217.498 11.6278 219.058 12.6358C220.618 13.6198 221.398 14.9278 221.398 16.5598C221.398 17.6638 220.918 18.7318 219.958 19.7638C219.022 20.7718 217.774 21.3838 216.214 21.5998V21.7438C218.47 21.9118 220.354 22.7758 221.866 24.3358C223.378 25.8958 224.134 27.6238 224.134 29.5198C224.134 31.7278 223.186 33.5278 221.29 34.9198C219.394 36.3118 217.03 37.0078 214.198 37.0078H204.082ZM225.386 37.0078V36.6478H226.646C227.51 36.6478 228.038 36.5518 228.23 36.3598C228.446 36.1438 228.554 35.6038 228.554 34.7398V13.3198C228.554 12.4558 228.446 11.9278 228.23 11.7358C228.038 11.5438 227.51 11.4478 226.646 11.4478H225.386V11.1238H234.566V11.4478H233.306C232.442 11.4478 231.902 11.5558 231.686 11.7718C231.47 11.9878 231.362 12.5278 231.362 13.3918V23.6878H234.098C236.858 23.6878 239.078 24.2998 240.758 25.5238C242.438 26.7478 243.278 28.3558 243.278 30.3478C243.278 32.3398 242.438 33.9478 240.758 35.1718C239.078 36.3958 236.858 37.0078 234.098 37.0078H225.386ZM231.362 24.2998V34.4518C231.362 35.2678 231.158 35.8798 230.75 36.2878V36.3598H233.414C235.598 36.3598 237.266 35.8438 238.418 34.8118C239.57 33.7798 240.146 32.2918 240.146 30.3478C240.146 28.3798 239.57 26.8798 238.418 25.8478C237.266 24.8158 235.598 24.2998 233.414 24.2998H231.362ZM253.785 37.0078V36.6838H254.361C255.249 36.6838 255.825 36.5158 256.089 36.1798C256.377 35.8438 256.545 35.1598 256.593 34.1278L257.565 13.3558C257.589 12.9478 257.601 12.6958 257.601 12.5998C257.601 12.1678 257.481 11.8678 257.241 11.6998C257.025 11.5318 256.545 11.4478 255.801 11.4478H254.361V11.1238H259.653L268.977 31.7518C269.337 32.5438 269.517 33.0598 269.517 33.2998H269.697C269.697 32.9878 269.865 32.4718 270.201 31.7518L279.525 11.1238H284.925V11.4478H283.701C282.885 11.4478 282.345 11.5678 282.081 11.8078C281.817 12.0478 281.685 12.4558 281.685 13.0318C281.685 13.1278 281.697 13.4518 281.721 14.0038L282.549 34.1278C282.597 35.1838 282.753 35.8798 283.017 36.2158C283.281 36.5278 283.893 36.6838 284.853 36.6838H285.645V37.0078H276.249V36.6838H277.545C278.457 36.6838 279.057 36.5758 279.345 36.3598C279.633 36.1438 279.777 35.7958 279.777 35.3158C279.777 35.2438 279.765 35.1718 279.741 35.0998C279.741 35.0278 279.741 34.9558 279.741 34.8838C279.741 34.7878 279.741 34.7158 279.741 34.6678L279.021 15.6958C278.997 15.2638 278.985 14.7358 278.985 14.1118H278.769C278.769 14.2078 278.577 14.6998 278.193 15.5878L268.509 37.1518L268.401 37.4038H268.329L268.221 37.1518L258.681 15.9838C258.417 15.4078 258.285 14.9038 258.285 14.4718H258.141C258.141 14.8558 258.129 15.2638 258.105 15.6958L257.205 34.5958C257.181 35.0998 257.169 35.3758 257.169 35.4238C257.169 35.8798 257.313 36.2038 257.601 36.3958C257.889 36.5878 258.501 36.6838 259.437 36.6838H260.733V37.0078H253.785ZM300.136 37.2958C296.128 37.2958 292.9 36.0838 290.452 33.6598C288.004 31.2358 286.78 28.0318 286.78 24.0478C286.78 20.0878 288.004 16.8958 290.452 14.4718C292.9 12.0478 296.128 10.8358 300.136 10.8358C304.12 10.8358 307.324 12.0478 309.748 14.4718C312.196 16.8958 313.42 20.0878 313.42 24.0478C313.42 28.0318 312.196 31.2358 309.748 33.6598C307.324 36.0838 304.12 37.2958 300.136 37.2958ZM300.244 36.6478C303.508 36.6478 305.992 35.6278 307.696 33.5878C309.424 31.5478 310.288 28.5958 310.288 24.7318C310.288 20.4358 309.4 17.1598 307.624 14.9038C305.872 12.6238 303.328 11.4838 299.992 11.4838C296.704 11.4838 294.196 12.5038 292.468 14.5438C290.764 16.5838 289.912 19.5358 289.912 23.3998C289.912 27.6958 290.788 30.9838 292.54 33.2638C294.316 35.5198 296.884 36.6478 300.244 36.6478ZM327.127 37.0078V36.6838H327.775C328.639 36.6838 329.179 36.5878 329.395 36.3958C329.611 36.1798 329.719 35.6398 329.719 34.7758V25.6678H326.947C326.923 29.1718 326.215 31.9918 324.823 34.1278C323.455 36.2398 321.643 37.2958 319.387 37.2958C317.827 37.2958 316.507 36.8278 315.427 35.8918V33.0478C317.179 34.2958 318.775 34.9198 320.215 34.9198C322.159 34.9198 323.647 34.1158 324.679 32.5078C325.735 30.8998 326.275 28.6198 326.299 25.6678C323.323 25.6678 320.923 25.0438 319.099 23.7958C317.275 22.5238 316.363 20.7238 316.363 18.3958C316.363 16.0678 317.275 14.2798 319.099 13.0318C320.923 11.7598 323.323 11.1238 326.299 11.1238H335.695V11.4478H334.435C333.571 11.4478 333.031 11.5558 332.815 11.7718C332.623 11.9638 332.527 12.4918 332.527 13.3558V34.7758C332.527 35.6398 332.623 36.1798 332.815 36.3958C333.031 36.5878 333.571 36.6838 334.435 36.6838H335.695V37.0078H327.127ZM329.719 25.0198V13.6798C329.719 12.8398 329.923 12.2158 330.331 11.8078V11.7718H326.587C321.859 11.7718 319.495 13.9798 319.495 18.3958C319.495 22.8118 321.859 25.0198 326.587 25.0198H329.719Z" fill="#CB182B"></path><path d="M108.321 57.4846C110.71 57.4846 112.907 57.7833 114.913 58.3806C117.515 56.034 120.246 53.9006 123.105 51.9806C126.006 50.018 128.929 48.354 131.873 46.9886C134.859 45.5806 137.867 44.514 140.897 43.7886C143.926 43.0206 146.913 42.6366 149.857 42.6366C153.569 42.6366 156.897 43.042 159.841 43.8526C162.827 44.6633 165.601 45.5166 168.161 46.4126C169.995 44.962 171.915 43.7886 173.921 42.8926C175.969 41.9966 178.145 41.5486 180.449 41.5486C182.198 41.5486 183.713 41.89 184.993 42.5726C186.273 43.2553 186.913 44.3006 186.913 45.7086C186.913 46.562 186.699 47.2873 186.273 47.8846C185.889 48.4393 185.355 48.8873 184.673 49.2286C183.99 49.57 183.179 49.826 182.241 49.9966C181.345 50.1246 180.385 50.1886 179.361 50.1886C177.697 50.1886 176.054 49.9966 174.433 49.6126C172.811 49.2286 171.105 48.7806 169.313 48.2686C167.777 49.89 166.219 51.682 164.641 53.6446C163.062 55.6073 161.526 57.6553 160.033 59.7886C158.582 61.922 157.195 64.0766 155.873 66.2526C154.593 68.4286 153.462 70.5193 152.481 72.5246C151.499 74.53 150.731 76.4073 150.177 78.1566C149.622 79.8633 149.345 81.314 149.345 82.5086C149.345 84.4713 150.198 85.4526 151.905 85.4526C154.081 85.4526 156.193 84.6633 158.241 83.0846C160.289 81.506 162.571 79.1593 165.089 76.0446L165.473 76.4286C164.491 77.7086 163.446 78.9673 162.337 80.2046C161.27 81.442 160.118 82.53 158.881 83.4686C157.686 84.4073 156.427 85.154 155.105 85.7086C153.782 86.306 152.438 86.6046 151.073 86.6046C149.793 86.6046 148.641 86.1993 147.617 85.3886C146.635 84.578 146.145 83.234 146.145 81.3566C146.145 80.1193 146.422 78.626 146.977 76.8766C147.531 75.1273 148.299 73.25 149.281 71.2446C150.305 69.1966 151.478 67.0846 152.801 64.9086C154.166 62.7326 155.638 60.578 157.217 58.4446C158.582 56.5673 160.054 54.69 161.633 52.8126C163.254 50.9353 164.961 49.186 166.753 47.5646C164.747 47.0526 162.571 46.6046 160.225 46.2206C157.878 45.794 155.211 45.5806 152.225 45.5806C149.238 45.5806 146.209 45.9006 143.137 46.5406C140.107 47.1806 137.078 48.098 134.049 49.2926C131.062 50.4873 128.118 51.9166 125.217 53.5806C122.358 55.2446 119.627 57.122 117.025 59.2126C118.689 60.0233 119.99 61.09 120.929 62.4126C121.91 63.7353 122.401 65.2926 122.401 67.0846C122.401 68.706 122.038 70.178 121.313 71.5006C120.587 72.8233 119.606 73.9753 118.369 74.9566C117.174 75.8953 115.787 76.642 114.209 77.1966C112.673 77.7086 111.094 77.9646 109.473 77.9646C108.491 77.9646 107.595 77.8793 106.785 77.7086L106.977 77.1326C107.745 77.2606 108.534 77.3246 109.345 77.3246C110.838 77.3246 112.289 77.09 113.697 76.6206C115.105 76.1086 116.342 75.426 117.409 74.5726C118.518 73.7193 119.393 72.7166 120.033 71.5646C120.715 70.37 121.057 69.09 121.057 67.7246C121.057 65.89 120.609 64.3326 119.713 63.0526C118.859 61.73 117.686 60.6633 116.193 59.8526C111.798 63.4793 107.915 67.554 104.545 72.0766C101.174 76.5566 98.5714 81.3353 96.7367 86.4126C98.1874 87.01 99.7234 87.4366 101.345 87.6926C102.966 87.9486 104.587 88.0766 106.209 88.0766C108.811 88.0766 111.329 87.714 113.761 86.9886C116.235 86.306 118.561 85.346 120.737 84.1086C122.913 82.8713 124.897 81.3993 126.689 79.6926C128.481 77.9433 130.038 76.066 131.361 74.0606C133.238 71.1593 135.03 68.3006 136.737 65.4846C138.443 62.6686 140.321 60.066 142.369 57.6766C144.417 55.2873 146.721 53.2393 149.281 51.5326C151.883 49.7833 154.977 48.546 158.561 47.8206L158.689 48.5246C156.513 48.866 154.571 49.57 152.865 50.6366C151.158 51.7033 149.601 52.9833 148.193 54.4766C146.827 55.97 145.547 57.634 144.353 59.4686C143.158 61.3033 141.985 63.1806 140.833 65.1006C139.723 67.0206 138.571 68.9406 137.377 70.8606C136.225 72.7806 134.966 74.5513 133.601 76.1726C132.235 77.794 130.593 79.3726 128.673 80.9086C126.753 82.4446 124.619 83.7886 122.273 84.9406C119.926 86.1353 117.387 87.074 114.657 87.7566C111.969 88.482 109.153 88.8446 106.209 88.8446C104.587 88.8446 102.945 88.7166 101.281 88.4606C99.6167 88.2473 98.0167 87.842 96.4807 87.2446C95.7127 89.5486 95.1154 91.8953 94.6887 94.2846C94.2621 96.674 94.0487 99.0846 94.0487 101.517C94.0487 104.717 94.5607 107.767 95.5847 110.669C96.6514 113.613 98.2301 116.194 100.321 118.413C102.411 120.674 105.035 122.466 108.193 123.789C111.393 125.111 115.147 125.773 119.457 125.773C122.913 125.773 126.347 125.175 129.761 123.981C133.174 122.786 136.246 121.101 138.977 118.925C141.707 116.749 143.905 114.146 145.569 111.117C147.275 108.087 148.129 104.717 148.129 101.005C148.129 99.3833 147.83 97.8046 147.233 96.2686C146.678 94.7753 145.846 93.4526 144.737 92.3006C143.627 91.1486 142.219 90.2313 140.513 89.5486C138.806 88.866 136.843 88.5246 134.625 88.5246C131.339 88.5246 128.459 89.0153 125.985 89.9966C123.553 90.978 121.526 92.258 119.905 93.8366C118.283 95.458 117.067 97.2713 116.257 99.2766C115.446 101.282 115.041 103.309 115.041 105.357C115.041 106.509 115.233 107.554 115.617 108.493C116.001 109.431 116.513 110.221 117.153 110.861C117.835 111.543 118.603 112.055 119.457 112.397C120.31 112.738 121.206 112.909 122.145 112.909C123.979 112.909 125.579 112.631 126.945 112.077C128.353 111.522 129.547 110.818 130.529 109.965C131.553 109.154 132.385 108.237 133.025 107.213C133.665 106.189 134.155 105.207 134.497 104.269L135.009 104.461C134.71 105.655 134.177 106.807 133.409 107.917C132.641 109.026 131.702 110.007 130.593 110.861C129.483 111.714 128.225 112.397 126.817 112.909C125.409 113.421 123.915 113.677 122.337 113.677C121.227 113.677 120.118 113.506 119.009 113.165C117.899 112.866 116.897 112.375 116.001 111.693C115.105 111.01 114.358 110.135 113.761 109.069C113.206 108.002 112.929 106.722 112.929 105.229C112.929 102.583 113.526 100.173 114.721 97.9966C115.915 95.8633 117.494 94.0286 119.457 92.4926C121.462 90.9566 123.745 89.762 126.305 88.9086C128.907 88.098 131.617 87.6926 134.433 87.6926C136.694 87.6926 138.721 88.0126 140.513 88.6526C142.347 89.3353 143.883 90.2526 145.121 91.4046C146.401 92.5566 147.361 93.922 148.001 95.5006C148.683 97.0793 149.025 98.786 149.025 100.621C149.025 104.546 148.193 108.109 146.529 111.309C144.865 114.509 142.646 117.239 139.873 119.501C137.142 121.762 134.006 123.511 130.465 124.749C126.923 126.029 123.275 126.669 119.521 126.669C115.083 126.669 111.201 125.965 107.873 124.557C104.587 123.191 101.835 121.335 99.6167 118.989C97.4407 116.685 95.7981 114.018 94.6887 110.989C93.6221 107.959 93.0887 104.781 93.0887 101.453C93.0887 99.0206 93.3021 96.5886 93.7287 94.1566C94.1554 91.7246 94.7741 89.2926 95.5847 86.8606C93.3234 85.8793 91.4247 84.45 89.8887 82.5726C88.3527 80.6953 87.5847 78.1993 87.5847 75.0846C87.5847 72.5673 88.1607 70.242 89.3127 68.1086C90.5074 65.9326 92.0647 64.0766 93.9847 62.5406C95.9047 60.962 98.1021 59.7246 100.577 58.8286C103.094 57.9326 105.675 57.4846 108.321 57.4846ZM95.9047 86.0286C97.6967 81.0366 100.171 76.258 103.329 71.6926C106.486 67.0846 110.113 62.882 114.209 59.0846C112.417 58.4873 110.454 58.1886 108.321 58.1886C105.59 58.1886 103.073 58.7006 100.769 59.7246C98.4647 60.706 96.4807 62.0073 94.8167 63.6286C93.1527 65.25 91.8514 67.0846 90.9127 69.1326C89.9741 71.1806 89.5047 73.2713 89.5047 75.4046C89.5047 78.2206 90.1021 80.482 91.2967 82.1886C92.4914 83.8526 94.0274 85.1326 95.9047 86.0286ZM170.337 47.1806C172.086 47.778 173.729 48.29 175.265 48.7166C176.801 49.1433 178.315 49.3566 179.809 49.3566C181.601 49.3566 182.945 49.0366 183.841 48.3966C184.737 47.714 185.185 46.8393 185.185 45.7726C185.185 44.706 184.694 43.8526 183.713 43.2126C182.731 42.5726 181.622 42.2526 180.385 42.2526C179.233 42.2526 177.846 42.53 176.225 43.0846C174.603 43.6393 173.025 44.642 171.489 46.0926L170.337 47.1806ZM176.816 84.8126C176.09 84.8126 175.472 84.6633 174.96 84.3646C174.448 84.0233 174.192 83.5113 174.192 82.8286C174.192 82.274 174.341 81.6766 174.64 81.0366C174.938 80.354 175.322 79.6713 175.792 78.9886C176.261 78.306 176.752 77.6233 177.264 76.9406C177.776 76.258 178.266 75.618 178.736 75.0206C179.205 74.338 179.44 73.8686 179.44 73.6126C179.44 73.1006 179.098 72.8446 178.416 72.8446C177.52 72.8446 176.538 73.314 175.472 74.2526C174.448 75.1913 173.445 76.3006 172.464 77.5806C171.525 78.818 170.65 80.0766 169.84 81.3566C169.072 82.6366 168.474 83.6393 168.048 84.3646L149.424 115.661C149.082 116.173 148.677 116.791 148.208 117.517C147.738 118.285 147.226 119.01 146.672 119.693C146.074 120.418 145.477 121.015 144.88 121.485C144.282 121.997 143.706 122.253 143.152 122.253C142.426 122.253 141.957 122.039 141.744 121.613C141.53 121.229 141.424 120.759 141.424 120.205C141.424 119.223 141.808 117.965 142.576 116.429C143.301 114.935 144.09 113.399 144.944 111.821C146.736 108.578 148.656 105.229 150.704 101.773C152.709 98.3593 154.778 94.9246 156.912 91.4686C159.002 88.0553 161.093 84.706 163.184 81.4206C165.317 78.0926 167.365 74.9566 169.328 72.0126L163.888 78.3486L163.44 78.0286C165.061 76.1086 166.704 74.1673 168.368 72.2046C170.074 70.1993 171.802 68.0446 173.552 65.7406L174.384 64.5246C175.109 63.5006 175.941 62.9886 176.88 62.9886H177.456C177.797 62.9886 177.968 63.1166 177.968 63.3726C177.968 63.4153 177.946 63.4793 177.904 63.5646C177.904 63.6073 177.861 63.714 177.776 63.8846L175.216 67.8526C174.576 68.834 173.658 70.2633 172.464 72.1406C171.269 74.018 169.904 76.1726 168.368 78.6046C166.832 80.994 165.189 83.5753 163.44 86.3486C161.69 89.122 159.962 91.8953 158.256 94.6686C156.506 97.4846 154.842 100.194 153.264 102.797C151.642 105.442 150.213 107.831 148.976 109.965C147.738 112.141 146.714 113.975 145.904 115.469C145.093 116.962 144.645 117.965 144.56 118.477C144.474 118.903 144.432 119.159 144.432 119.245C144.432 119.714 144.602 119.949 144.944 119.949C145.413 119.949 145.946 119.543 146.544 118.733C147.098 117.965 147.952 116.621 149.104 114.701C152.261 109.538 155.354 104.397 158.384 99.2766C161.413 94.1993 164.442 89.1006 167.472 83.9806C168.112 82.8713 168.88 81.6126 169.776 80.2046C170.672 78.754 171.632 77.3886 172.656 76.1086C173.722 74.8286 174.853 73.762 176.048 72.9086C177.242 72.0126 178.458 71.5646 179.696 71.5646C180.464 71.5646 181.104 71.7566 181.616 72.1406C182.128 72.5246 182.384 73.0793 182.384 73.8046C182.384 74.4446 182.106 75.1913 181.552 76.0446C181.04 76.8553 180.464 77.7086 179.824 78.6046C179.226 79.458 178.65 80.2686 178.096 81.0366C177.584 81.8046 177.328 82.4446 177.328 82.9566C177.328 83.426 177.605 83.6606 178.16 83.6606C179.269 83.6606 180.336 83.1913 181.36 82.2526C182.384 81.2713 183.77 79.7566 185.52 77.7086L185.968 78.0286C185.285 78.8393 184.602 79.65 183.92 80.4606C183.28 81.2713 182.597 81.9966 181.872 82.6366C181.146 83.2766 180.378 83.81 179.568 84.2366C178.757 84.6206 177.84 84.8126 176.816 84.8126ZM200.413 84.8126C199.687 84.8126 199.069 84.6633 198.557 84.3646C198.045 84.0233 197.789 83.5113 197.789 82.8286C197.789 81.9326 198.087 80.9726 198.685 79.9486C199.325 78.9246 199.922 78.05 200.477 77.3246L200.413 77.2606C199.559 78.1993 198.642 79.1166 197.661 80.0126C196.679 80.9086 195.698 81.7193 194.717 82.4446C193.778 83.1273 192.861 83.682 191.965 84.1086C191.111 84.5353 190.386 84.7486 189.789 84.7486C188.381 84.7486 187.677 84.194 187.677 83.0846C187.677 82.4873 187.847 81.9113 188.189 81.3566C188.53 80.802 188.957 80.162 189.469 79.4366C189.853 78.882 190.258 78.3273 190.685 77.7726C191.111 77.218 191.495 76.6846 191.837 76.1726C192.221 75.618 192.519 75.1273 192.733 74.7006C192.946 74.2313 193.053 73.826 193.053 73.4846C193.053 73.0153 192.818 72.7806 192.349 72.7806C191.965 72.7806 191.495 72.9513 190.941 73.2926C190.429 73.5913 189.853 74.018 189.213 74.5726C188.615 75.1273 187.975 75.746 187.293 76.4286C186.653 77.1113 186.034 77.794 185.437 78.4766L185.053 78.2206C185.821 77.3673 186.567 76.5566 187.293 75.7886C188.061 74.978 188.807 74.274 189.533 73.6766C190.258 73.0366 190.962 72.546 191.645 72.2046C192.37 71.8206 193.053 71.6286 193.693 71.6286C194.546 71.6286 195.165 71.7993 195.549 72.1406C195.975 72.482 196.189 72.9513 196.189 73.5486C196.189 74.3593 195.89 75.2553 195.293 76.2366C194.738 77.218 194.119 78.1566 193.437 79.0526C192.797 79.9486 192.178 80.7806 191.581 81.5486C191.026 82.274 190.749 82.8286 190.749 83.2126C190.749 83.4686 190.877 83.5966 191.133 83.5966C191.858 83.5966 192.818 83.17 194.013 82.3166C195.207 81.4633 196.423 80.4606 197.661 79.3086C198.898 78.1566 200.05 77.0046 201.117 75.8526C202.183 74.658 202.973 73.7193 203.485 73.0366C203.741 72.6953 203.997 72.4393 204.253 72.2686C204.551 72.0553 204.978 71.9486 205.533 71.9486H206.557C206.898 71.9486 207.069 72.0766 207.069 72.3326C207.069 72.3753 207.047 72.4393 207.005 72.5246C207.005 72.5673 206.962 72.674 206.877 72.8446C206.365 73.6126 205.767 74.4873 205.085 75.4686C204.402 76.45 203.741 77.4313 203.101 78.4126C202.503 79.3513 201.991 80.2473 201.565 81.1006C201.138 81.9113 200.925 82.53 200.925 82.9566C200.925 83.426 201.202 83.6606 201.757 83.6606C202.866 83.6606 203.933 83.1913 204.957 82.2526C205.981 81.2713 207.367 79.7566 209.117 77.7086L209.565 78.0286C208.882 78.8393 208.199 79.65 207.517 80.4606C206.877 81.2713 206.194 81.9966 205.469 82.6366C204.743 83.2766 203.975 83.81 203.165 84.2366C202.354 84.6206 201.437 84.8126 200.413 84.8126ZM218.726 71.3726C219.878 71.3726 220.795 71.586 221.478 72.0126C222.203 72.3966 222.566 73.1006 222.566 74.1246C222.566 74.722 222.224 75.426 221.542 76.2366C220.859 77.0046 219.536 77.8793 217.574 78.8606C216.72 79.2873 216.038 79.6926 215.526 80.0766C215.056 80.418 214.694 80.7593 214.438 81.1006C214.182 81.3993 214.011 81.698 213.926 81.9966C213.883 82.2526 213.862 82.5086 213.862 82.7646C213.904 83.362 214.352 83.7033 215.206 83.7886C216.016 83.8313 216.763 83.7673 217.446 83.5966C218.128 83.426 218.811 83.1273 219.494 82.7006C220.176 82.2313 220.902 81.6126 221.67 80.8446C222.48 80.0766 223.398 79.1166 224.422 77.9646L224.87 78.2846C223.888 79.3513 222.992 80.3113 222.182 81.1646C221.414 81.9753 220.624 82.658 219.814 83.2126C219.003 83.7673 218.171 84.194 217.318 84.4926C216.464 84.7486 215.526 84.8766 214.502 84.8766C213.307 84.8766 212.39 84.6846 211.75 84.3006C211.152 83.874 210.854 83.1486 210.854 82.1246C210.854 81.1006 211.216 80.2046 211.942 79.4366C212.71 78.626 213.947 77.8366 215.654 77.0686C218.256 75.9166 219.558 74.85 219.558 73.8686C219.558 73.442 219.366 73.122 218.982 72.9086C218.64 72.6953 218.192 72.5886 217.638 72.5886C217.04 72.5886 216.379 72.7806 215.654 73.1646C214.928 73.5486 214.16 74.0393 213.35 74.6366C212.582 75.234 211.792 75.9166 210.982 76.6846C210.214 77.4526 209.488 78.242 208.806 79.0526L208.294 78.7326C209.062 77.8366 209.872 76.962 210.726 76.1086C211.622 75.2126 212.518 74.4233 213.414 73.7406C214.31 73.0153 215.206 72.4393 216.102 72.0126C216.998 71.586 217.872 71.3726 218.726 71.3726ZM235.384 84.8126C234.658 84.8126 234.04 84.6633 233.528 84.3646C233.058 84.0233 232.824 83.5113 232.824 82.8286C232.824 82.1886 233.058 81.3993 233.528 80.4606C234.04 79.522 234.616 78.5833 235.256 77.6446C235.938 76.706 236.6 75.8313 237.24 75.0206C237.922 74.21 238.413 73.6126 238.712 73.2286L238.648 73.1646C238.178 73.1646 237.602 73.4846 236.92 74.1246C236.28 74.722 235.554 75.4686 234.744 76.3646C233.976 77.2606 233.165 78.1993 232.312 79.1806C231.501 80.162 230.712 80.994 229.944 81.6766C228.578 82.914 227.405 83.7886 226.424 84.3006C225.442 84.77 224.461 85.0046 223.48 85.0046C222.626 85.0046 221.965 84.8126 221.496 84.4286C221.026 84.002 220.792 83.4046 220.792 82.6366C220.792 81.7406 221.048 80.8873 221.56 80.0766C222.029 79.2233 222.605 78.6046 223.288 78.2206C223.97 77.794 224.674 77.6446 225.4 77.7726C226.168 77.858 226.594 78.434 226.68 79.5006C226.722 79.8846 226.53 80.3113 226.104 80.7806C225.677 81.25 225.272 81.4846 224.888 81.4846C224.461 81.4846 224.162 81.3353 223.992 81.0366C223.864 80.6953 223.629 80.5033 223.288 80.4606C223.074 80.4606 222.733 80.6526 222.264 81.0366C221.837 81.4206 221.624 81.9753 221.624 82.7006C221.624 83.0846 221.773 83.49 222.072 83.9166C222.37 84.3006 222.818 84.4926 223.416 84.4926C223.842 84.4926 224.248 84.45 224.632 84.3646C225.058 84.2366 225.506 84.0446 225.976 83.7886C226.488 83.5326 227.042 83.1913 227.64 82.7646C228.237 82.2953 228.92 81.698 229.688 80.9726C230.754 80.034 231.714 79.0313 232.568 77.9646C233.464 76.8553 234.338 75.8313 235.192 74.8926C236.045 73.954 236.92 73.186 237.816 72.5886C238.712 71.9486 239.714 71.6286 240.824 71.6286C241.549 71.6286 241.912 71.8846 241.912 72.3966C241.912 72.866 241.592 73.57 240.952 74.5086C240.354 75.4473 239.672 76.45 238.904 77.5166C238.136 78.5406 237.432 79.5646 236.792 80.5886C236.194 81.57 235.896 82.3593 235.896 82.9566C235.896 83.426 236.173 83.6606 236.728 83.6606C237.837 83.6606 238.904 83.1913 239.928 82.2526C240.952 81.2713 242.338 79.7566 244.088 77.7086L244.536 78.0286C243.853 78.8393 243.17 79.65 242.488 80.4606C241.848 81.2713 241.165 81.9966 240.44 82.6366C239.714 83.2766 238.946 83.81 238.136 84.2366C237.325 84.6206 236.408 84.8126 235.384 84.8126ZM254.497 72.4606C253.558 72.4606 252.598 72.8446 251.617 73.6126C250.635 74.3806 249.718 75.298 248.865 76.3646C248.054 77.3886 247.371 78.4766 246.817 79.6286C246.305 80.7806 246.049 81.7406 246.049 82.5086C246.049 82.8073 246.113 83.1486 246.241 83.5326C246.369 83.874 246.774 84.0446 247.457 84.0446C248.011 84.0446 248.587 83.8526 249.185 83.4686C249.825 83.0846 250.465 82.594 251.105 81.9966C251.745 81.3993 252.342 80.738 252.897 80.0126C253.494 79.2873 254.049 78.562 254.561 77.8366C255.03 77.154 255.435 76.4713 255.777 75.7886C256.161 75.106 256.353 74.53 256.353 74.0606C256.353 73.4633 256.161 73.058 255.777 72.8446C255.393 72.5886 254.966 72.4606 254.497 72.4606ZM258.081 73.1006C258.337 72.7593 258.593 72.482 258.849 72.2686C259.105 72.0553 259.489 71.9486 260.001 71.9486H261.217C261.558 71.9486 261.729 72.0766 261.729 72.3326C261.729 72.3753 261.707 72.4393 261.665 72.5246C261.665 72.5673 261.622 72.674 261.537 72.8446C261.153 73.442 260.619 74.21 259.937 75.1486C259.254 76.0873 258.593 77.0686 257.953 78.0926C257.313 79.074 256.737 80.0126 256.225 80.9086C255.755 81.762 255.521 82.4233 255.521 82.8926C255.521 83.4046 255.755 83.6606 256.225 83.6606C257.334 83.6606 258.401 83.1913 259.425 82.2526C260.449 81.2713 261.835 79.7566 263.585 77.7086L264.033 78.0286C263.35 78.8393 262.667 79.65 261.985 80.4606C261.345 81.2713 260.662 81.9966 259.937 82.6366C259.211 83.2766 258.443 83.81 257.633 84.2366C256.822 84.6206 255.905 84.8126 254.881 84.8126C254.155 84.8126 253.537 84.6846 253.025 84.4286C252.513 84.13 252.257 83.6393 252.257 82.9566C252.257 82.7433 252.299 82.4873 252.385 82.1886C252.513 81.8473 252.705 81.4846 252.961 81.1006V81.0366C251.851 82.274 250.763 83.234 249.697 83.9166C248.673 84.5566 247.521 84.8766 246.241 84.8766C244.961 84.8766 244.086 84.5993 243.617 84.0446C243.19 83.49 242.977 82.8713 242.977 82.1886C242.977 81.0366 243.297 79.842 243.937 78.6046C244.619 77.3673 245.494 76.2366 246.561 75.2126C247.627 74.1886 248.822 73.3566 250.145 72.7166C251.467 72.0766 252.79 71.7566 254.113 71.7566C255.179 71.7566 255.99 71.9486 256.545 72.3326C257.099 72.674 257.505 73.0793 257.761 73.5486L258.081 73.1006ZM287.828 84.8126C287.103 84.8126 286.484 84.6633 285.972 84.3646C285.46 84.0233 285.204 83.5113 285.204 82.8286C285.204 82.3166 285.332 81.7406 285.588 81.1006C285.844 80.418 286.25 79.714 286.804 78.9886L286.74 78.9246C285.076 80.802 283.583 82.2526 282.26 83.2766C280.98 84.3006 279.594 84.8126 278.1 84.8126C277.375 84.8126 276.756 84.6633 276.244 84.3646C275.732 84.0233 275.476 83.5113 275.476 82.8286C275.476 81.9326 275.775 80.9726 276.372 79.9486C277.012 78.9246 277.61 78.05 278.164 77.3246L278.1 77.2606C277.247 78.1993 276.33 79.1166 275.348 80.0126C274.367 80.9086 273.386 81.7193 272.404 82.4446C271.466 83.1273 270.548 83.682 269.652 84.1086C268.799 84.5353 268.074 84.7486 267.476 84.7486C266.068 84.7486 265.364 84.194 265.364 83.0846C265.364 82.4873 265.535 81.9113 265.876 81.3566C266.218 80.802 266.644 80.162 267.156 79.4366C267.54 78.882 267.946 78.3273 268.372 77.7726C268.799 77.218 269.183 76.6846 269.524 76.1726C269.908 75.618 270.207 75.1273 270.42 74.7006C270.634 74.2313 270.74 73.826 270.74 73.4846C270.74 73.0153 270.506 72.7806 270.036 72.7806C269.268 72.7806 268.33 73.3353 267.22 74.4446C266.111 75.5113 264.938 76.7486 263.7 78.1566L263.188 77.9006C264.682 76.1513 266.09 74.6793 267.412 73.4846C268.735 72.2473 270.058 71.6286 271.38 71.6286C272.234 71.6286 272.852 71.7993 273.236 72.1406C273.663 72.482 273.876 72.9513 273.876 73.5486C273.876 74.3593 273.578 75.2553 272.98 76.2366C272.426 77.218 271.807 78.1566 271.124 79.0526C270.484 79.9486 269.866 80.7806 269.268 81.5486C268.714 82.274 268.436 82.8286 268.436 83.2126C268.436 83.4686 268.564 83.5966 268.82 83.5966C269.546 83.5966 270.506 83.17 271.7 82.3166C272.895 81.4633 274.111 80.4606 275.348 79.3086C276.586 78.1566 277.738 77.0046 278.804 75.8526C279.871 74.658 280.66 73.7193 281.172 73.0366C281.428 72.6953 281.684 72.4393 281.94 72.2686C282.239 72.0553 282.666 71.9486 283.22 71.9486H284.244C284.586 71.9486 284.756 72.0766 284.756 72.3326C284.756 72.3753 284.735 72.4393 284.692 72.5246C284.692 72.5673 284.65 72.674 284.564 72.8446C284.052 73.6126 283.455 74.4873 282.772 75.4686C282.09 76.45 281.428 77.4313 280.788 78.4126C280.191 79.3513 279.679 80.2473 279.252 81.1006C278.826 81.9113 278.612 82.53 278.612 82.9566C278.612 83.426 278.89 83.6606 279.444 83.6606C280.127 83.6606 281.002 83.234 282.068 82.3806C283.178 81.5273 284.308 80.5246 285.46 79.3726C286.612 78.2206 287.679 77.0473 288.66 75.8526C289.642 74.658 290.388 73.7193 290.9 73.0366C291.156 72.6953 291.412 72.4393 291.668 72.2686C291.967 72.0553 292.394 71.9486 292.948 71.9486H293.972C294.314 71.9486 294.484 72.0766 294.484 72.3326C294.484 72.3753 294.463 72.4393 294.42 72.5246C294.42 72.5673 294.378 72.674 294.292 72.8446C293.78 73.6126 293.183 74.4873 292.5 75.4686C291.818 76.45 291.156 77.4313 290.516 78.4126C289.919 79.3513 289.407 80.2473 288.98 81.1006C288.554 81.9113 288.34 82.53 288.34 82.9566C288.34 83.426 288.618 83.6606 289.172 83.6606C290.282 83.6606 291.348 83.1913 292.372 82.2526C293.396 81.2713 294.783 79.7566 296.532 77.7086L296.98 78.0286C296.298 78.8393 295.615 79.65 294.932 80.4606C294.292 81.2713 293.61 81.9966 292.884 82.6366C292.159 83.2766 291.391 83.81 290.58 84.2366C289.77 84.6206 288.852 84.8126 287.828 84.8126ZM307.059 72.4606C306.121 72.4606 305.161 72.8446 304.179 73.6126C303.198 74.3806 302.281 75.298 301.427 76.3646C300.617 77.3886 299.934 78.4766 299.379 79.6286C298.867 80.7806 298.611 81.7406 298.611 82.5086C298.611 82.8073 298.675 83.1486 298.803 83.5326C298.931 83.874 299.337 84.0446 300.019 84.0446C300.574 84.0446 301.15 83.8526 301.747 83.4686C302.387 83.0846 303.027 82.594 303.667 81.9966C304.307 81.3993 304.905 80.738 305.459 80.0126C306.057 79.2873 306.611 78.562 307.123 77.8366C307.593 77.154 307.998 76.4713 308.339 75.7886C308.723 75.106 308.915 74.53 308.915 74.0606C308.915 73.4633 308.723 73.058 308.339 72.8446C307.955 72.5886 307.529 72.4606 307.059 72.4606ZM310.643 73.1006C310.899 72.7593 311.155 72.482 311.411 72.2686C311.667 72.0553 312.051 71.9486 312.563 71.9486H313.779C314.121 71.9486 314.291 72.0766 314.291 72.3326C314.291 72.3753 314.27 72.4393 314.227 72.5246C314.227 72.5673 314.185 72.674 314.099 72.8446C313.715 73.442 313.182 74.21 312.499 75.1486C311.817 76.0873 311.155 77.0686 310.515 78.0926C309.875 79.074 309.299 80.0126 308.787 80.9086C308.318 81.762 308.083 82.4233 308.083 82.8926C308.083 83.4046 308.318 83.6606 308.787 83.6606C309.897 83.6606 310.963 83.1913 311.987 82.2526C313.011 81.2713 314.398 79.7566 316.147 77.7086L316.595 78.0286C315.913 78.8393 315.23 79.65 314.547 80.4606C313.907 81.2713 313.225 81.9966 312.499 82.6366C311.774 83.2766 311.006 83.81 310.195 84.2366C309.385 84.6206 308.467 84.8126 307.443 84.8126C306.718 84.8126 306.099 84.6846 305.587 84.4286C305.075 84.13 304.819 83.6393 304.819 82.9566C304.819 82.7433 304.862 82.4873 304.947 82.1886C305.075 81.8473 305.267 81.4846 305.523 81.1006V81.0366C304.414 82.274 303.326 83.234 302.259 83.9166C301.235 84.5566 300.083 84.8766 298.803 84.8766C297.523 84.8766 296.649 84.5993 296.179 84.0446C295.753 83.49 295.539 82.8713 295.539 82.1886C295.539 81.0366 295.859 79.842 296.499 78.6046C297.182 77.3673 298.057 76.2366 299.123 75.2126C300.19 74.1886 301.385 73.3566 302.707 72.7166C304.03 72.0766 305.353 71.7566 306.675 71.7566C307.742 71.7566 308.553 71.9486 309.107 72.3326C309.662 72.674 310.067 73.0793 310.323 73.5486L310.643 73.1006ZM337.447 71.6926C338.94 71.6926 340.007 72.0126 340.647 72.6526C341.329 73.2926 341.671 74.018 341.671 74.8286C341.671 75.8526 341.329 76.962 340.647 78.1566C339.964 79.3086 339.068 80.3966 337.959 81.4206C336.892 82.4446 335.655 83.298 334.247 83.9806C332.881 84.6206 331.495 84.9406 330.087 84.9406C328.679 84.9406 327.655 84.6846 327.015 84.1726C326.417 83.618 326.119 82.85 326.119 81.8686C326.119 80.802 326.396 79.714 326.951 78.6046C326.311 78.6046 325.756 78.6046 325.287 78.6046C324.817 78.562 324.391 78.5406 324.007 78.5406L320.679 83.4686C320.38 83.8953 320.081 84.194 319.783 84.3646C319.484 84.4926 319.164 84.5566 318.823 84.5566H317.159C316.86 84.5566 316.711 84.4286 316.711 84.1726C316.711 84.0446 316.775 83.874 316.903 83.6606C317.457 82.9353 318.097 82.0606 318.823 81.0366C319.591 79.97 320.295 78.946 320.935 77.9646C321.617 76.9406 322.172 76.0233 322.599 75.2126C323.068 74.3593 323.303 73.7833 323.303 73.4846C323.303 73.0153 323.068 72.7806 322.599 72.7806C322.215 72.7806 321.745 72.9726 321.191 73.3566C320.679 73.698 320.103 74.1673 319.463 74.7646C318.865 75.3193 318.225 75.9593 317.543 76.6846C316.903 77.41 316.284 78.114 315.687 78.7966L315.175 78.5406C315.943 77.6873 316.689 76.8553 317.415 76.0446C318.183 75.1913 318.929 74.4446 319.655 73.8046C320.423 73.1646 321.169 72.6526 321.895 72.2686C322.62 71.842 323.303 71.6286 323.943 71.6286C324.924 71.6286 325.585 71.7993 325.927 72.1406C326.311 72.482 326.503 72.93 326.503 73.4846C326.503 73.954 326.332 74.5086 325.991 75.1486C325.649 75.7886 325.116 76.6633 324.391 77.7726C324.732 77.8153 325.159 77.8366 325.671 77.8366C326.225 77.8366 326.801 77.8366 327.399 77.8366C327.868 77.026 328.444 76.258 329.127 75.5326C329.809 74.8073 330.577 74.1673 331.431 73.6126C332.327 73.0153 333.265 72.546 334.247 72.2046C335.271 71.8633 336.337 71.6926 337.447 71.6926ZM337.127 72.3966C336.359 72.3966 335.505 72.7593 334.567 73.4846C333.628 74.1673 332.753 75.042 331.943 76.1086C331.175 77.1326 330.513 78.242 329.959 79.4366C329.404 80.6313 329.127 81.7193 329.127 82.7006C329.127 83.0846 329.255 83.4473 329.511 83.7886C329.767 84.13 330.215 84.3006 330.855 84.3006C331.793 84.3006 332.753 83.9166 333.735 83.1486C334.716 82.338 335.591 81.3993 336.359 80.3326C337.169 79.2233 337.809 78.0926 338.279 76.9406C338.791 75.7886 339.047 74.8286 339.047 74.0606C339.047 72.9513 338.407 72.3966 337.127 72.3966Z" fill="#CB182B"></path></svg> 