<?xml version="1.0" encoding="UTF-8"?> <svg xmlns="http://www.w3.org/2000/svg" width="82" height="74" viewBox="0 0 82 74" fill="none"><path d="M7.83881 28.5752C9.10493 26.1724 10.2233 24.5388 11.194 23.6744C12.2456 22.783 14.1067 21.8908 16.7774 20.9979C23.4137 18.7791 29.0807 19.0439 33.7786 21.7921C35.3174 22.6272 36.3971 22.8961 37.0175 22.5987C37.6108 22.2204 38.8507 20.6811 40.7372 17.9809C40.8449 17.7649 40.9257 17.603 40.9796 17.495C46.4772 9.44854 52.6412 7.16276 59.4715 10.6376C66.0858 14.0047 68.3048 20.9108 66.1285 31.3559C64.5432 38.994 61.46 46.1883 56.8787 52.9386C52.2703 59.608 48.1041 62.8904 44.3801 62.7859C41.2768 62.6537 35.9726 60.7831 28.4675 57.1739C21.0164 53.4567 15.8999 50.2637 13.118 47.5947C9.44474 43.8741 7.22904 40.6109 6.47093 37.8052C5.71282 34.9995 6.16878 31.9228 7.83881 28.5752ZM26.0919 26.2515C23.9329 25.9836 21.4776 26.3096 18.726 27.2296C16.0282 28.0416 14.1403 29.1227 13.0621 30.4729C11.8759 31.7692 11.8374 33.9415 12.9465 36.9898C14.0286 39.9572 15.7174 42.4517 18.0129 44.4735C19.5253 45.7674 24.2227 48.1109 32.1054 51.5038C39.988 54.8968 44.7524 56.633 46.3985 56.7125C47.1271 56.7388 49.5387 52.7833 53.6332 44.8461C58.6167 35.262 60.8091 27.6908 60.2105 22.1325C59.7751 18.1391 57.8174 16.7242 54.3374 17.8877C52.3951 18.5371 50.4939 19.8475 48.6337 21.8191C46.7465 23.7098 45.1699 25.9914 43.9041 28.664C42.6114 31.5256 41.1691 33.1325 39.5774 33.4847C38.0394 33.729 36.0821 32.7188 33.7054 30.4542C32.6251 29.3758 31.3694 28.446 29.9385 27.6647C28.4806 26.8025 27.1984 26.3315 26.0919 26.2515Z" fill="#FFA4C2"></path></svg> 