<?xml version="1.0" encoding="UTF-8"?> <svg xmlns="http://www.w3.org/2000/svg" width="92" height="37" viewBox="0 0 92 37" fill="none"><path d="M15.2815 36.4414C15.0895 36.3774 14.9935 36.2494 14.9935 36.0574C14.9935 35.8014 15.0095 35.6414 15.0415 35.5774C15.1695 35.2574 15.3935 35.1134 15.7135 35.1454H15.8575C16.0495 35.1454 16.2255 35.0494 16.3855 34.8574C17.4735 33.4814 18.2575 31.9774 18.7375 30.3454C18.9615 29.6094 19.1055 29.0814 19.1695 28.7614C19.2015 28.7294 19.2175 28.6174 19.2175 28.4254C19.0895 28.4574 18.7855 28.6494 18.3055 29.0014C17.7615 29.5134 17.1215 30.0094 16.3855 30.4894L15.8095 30.9214C15.4255 31.1454 15.0575 31.2094 14.7055 31.1134C14.4175 31.0174 13.9535 30.9374 13.3135 30.8734C12.8335 30.7774 12.4975 30.4734 12.3055 29.9614C12.0175 28.8094 11.8415 27.8654 11.7775 27.1294L11.4895 24.8254C11.4895 24.7294 11.4575 24.6814 11.3935 24.6814C11.3615 24.6814 11.3135 24.7134 11.2495 24.7774L10.5295 26.3614C9.66555 28.1214 8.89755 29.5454 8.22555 30.6334C7.93755 31.1454 7.63355 31.5454 7.31355 31.8334C7.02555 32.1854 6.67355 32.3614 6.25755 32.3614C6.03355 32.3614 5.88955 32.3454 5.82555 32.3134C5.15355 32.2174 4.64155 32.1214 4.28955 32.0254C3.55355 31.8974 2.91355 31.4174 2.36955 30.5854C2.08155 30.0414 1.80955 29.2894 1.55355 28.3294C1.20155 26.8254 0.961547 25.0814 0.833547 23.0974C0.801547 22.7454 0.785547 22.0094 0.785547 20.8894C0.785547 20.0574 0.801547 19.5294 0.833547 19.3054C0.961547 17.9614 1.04155 17.1454 1.07355 16.8574L2.08155 9.84936C2.43355 7.67336 2.75355 6.15336 3.04155 5.28936C3.13755 4.87336 3.28155 4.53736 3.47355 4.28136C3.63355 4.08936 3.79355 4.00936 3.95355 4.04136C4.30555 4.13736 4.48155 4.36136 4.48155 4.71336V5.48136L4.19355 7.73736C4.00155 9.36936 3.85755 10.8894 3.76155 12.2974L3.47355 17.1454C3.40955 18.4254 3.37755 19.1614 3.37755 19.3534C3.37755 21.2734 3.39355 22.5054 3.42555 23.0494C3.52155 25.1294 3.77755 27.0174 4.19355 28.7134C4.41755 29.4174 4.64155 30.0414 4.86555 30.5854L5.15355 31.2094C5.28155 31.4014 5.45755 31.4334 5.68155 31.3054C6.06555 31.0814 6.44955 30.6974 6.83355 30.1534C7.50555 29.1934 8.08155 28.2974 8.56155 27.4654C9.42555 25.9934 10.2575 24.2654 11.0575 22.2814C11.1535 22.0894 11.2015 21.8014 11.2015 21.4174C11.1695 21.3214 11.1535 21.0814 11.1535 20.6974C11.1535 18.0094 11.2175 15.7854 11.3455 14.0254L11.4415 13.0174C11.4735 12.6654 11.5375 11.9934 11.6335 11.0014C11.7935 9.81736 11.9855 8.69736 12.2095 7.64136C12.3695 6.90536 12.5775 6.05736 12.8335 5.09736C13.1215 4.13736 13.5695 3.17736 14.1775 2.21736C14.3695 1.92936 14.5935 1.65736 14.8495 1.40136C15.0415 1.20936 15.2975 1.03336 15.6175 0.873358C15.6815 0.841358 15.8095 0.825358 16.0015 0.825358C16.1615 0.825358 16.3375 0.857358 16.5295 0.921357C16.6575 0.985358 16.9935 1.16136 17.5375 1.44936C17.7615 1.54536 17.9055 1.72136 17.9695 1.97736C18.0655 2.32936 18.1135 2.64936 18.1135 2.93736C18.1135 3.67336 18.0015 4.47336 17.7775 5.33736C17.2335 7.86536 16.4975 10.5214 15.5695 13.3054L13.8415 18.1534C13.7135 18.5374 13.6495 18.9214 13.6495 19.3054C13.6815 21.6094 13.8735 23.9134 14.2255 26.2174C14.3215 27.4654 14.4815 28.5054 14.7055 29.3374L14.7535 29.5294C14.8175 29.6574 14.9135 29.7054 15.0415 29.6734L15.1375 29.6254C15.2335 29.5614 15.3135 29.5134 15.3775 29.4814C15.6335 29.3214 16.2415 28.9534 17.2015 28.3774L18.3535 27.6574L18.7375 27.4654C18.9295 27.3054 19.1535 27.2574 19.4095 27.3214L20.4175 27.5614C20.7695 27.6254 20.9935 27.8334 21.0895 28.1854C21.2175 28.4734 21.2815 28.8574 21.2815 29.3374C21.2175 31.0014 20.8335 32.4254 20.1295 33.6094C20.1295 33.6414 19.9215 33.9134 19.5055 34.4254C18.9295 35.0974 18.3055 35.7214 17.6335 36.2974C17.2815 36.5534 16.9455 36.6814 16.6255 36.6814C16.4335 36.6814 16.3055 36.6654 16.2415 36.6334C15.8255 36.5374 15.5055 36.4734 15.2815 36.4414ZM14.1295 14.3614L14.4175 13.5454C15.5375 10.3134 16.3375 7.17736 16.8175 4.13736C16.8815 3.62536 16.9135 3.30536 16.9135 3.17736L16.8655 2.50536C16.8655 2.40936 16.8335 2.36136 16.7695 2.36136L16.6255 2.45736L16.4335 2.84136C16.0815 3.51336 15.6655 4.61736 15.1855 6.15336C14.9295 7.17736 14.6415 8.53736 14.3215 10.2334C14.1295 11.6094 13.9855 12.9854 13.8895 14.3614C13.8895 14.4574 13.9055 14.5534 13.9375 14.6494C14.0335 14.5534 14.0975 14.4574 14.1295 14.3614ZM36.5088 20.9374C36.5088 21.0014 36.3808 21.1294 36.1248 21.3214L33.9648 22.9054C33.3568 23.2894 32.7488 23.7694 32.1408 24.3454C31.9168 24.5374 31.8048 24.7774 31.8048 25.0654C31.7408 26.3454 31.3728 27.6414 30.7008 28.9534C30.2848 29.8174 29.7408 30.4894 29.0688 30.9694L28.5408 31.2574C28.2528 31.3854 28.0128 31.4014 27.8208 31.3054L26.7648 30.8254C26.6368 30.7934 26.5728 30.6654 26.5728 30.4414C26.5728 30.2814 26.6208 30.1214 26.7168 29.9614C26.9728 29.2894 27.4048 28.5374 28.0128 27.7054L29.0688 26.3134C29.2288 26.0894 29.3408 25.8494 29.4048 25.5934C29.6288 24.3134 29.7248 23.2574 29.6928 22.4254C29.6928 21.8814 29.6288 21.4974 29.5008 21.2734C29.2448 21.2734 28.9888 21.4014 28.7328 21.6574C28.3488 22.0414 28.0768 22.3774 27.9168 22.6654C27.5968 23.2734 27.3088 23.8974 27.0528 24.5374C26.6368 25.8174 26.1728 27.4334 25.6608 29.3854L24.9408 32.2174L24.6528 33.1294C24.5248 33.3854 24.3008 33.4974 23.9808 33.4654C23.8528 33.4334 23.4688 33.3214 22.8288 33.1294C22.4128 33.0334 22.1248 32.7614 21.9648 32.3134C21.8688 32.1534 21.7408 31.7214 21.5808 31.0174C21.3888 29.9614 21.2928 28.8734 21.2928 27.7534C21.2928 26.3134 21.3568 24.5534 21.4848 22.4734C21.6448 20.4254 21.8208 18.6334 22.0128 17.0974C22.0448 16.9374 22.1088 16.5854 22.2048 16.0414C22.2368 15.6254 22.3648 14.8414 22.5888 13.6894C22.9408 11.9614 23.4208 10.4254 24.0288 9.08136C24.3808 8.40936 24.7328 7.88136 25.0848 7.49736C25.3408 7.11336 25.7088 6.85736 26.1888 6.72936C26.3808 6.66536 26.5568 6.63336 26.7168 6.63336C26.9088 6.63336 27.1008 6.66536 27.2928 6.72936L27.8688 7.06536L28.5888 7.49736C29.1008 7.75336 29.3728 8.23336 29.4048 8.93736C29.4048 9.41736 29.3408 9.92936 29.2128 10.4734C29.0208 11.4334 28.4768 13.0494 27.5808 15.3214C26.6528 17.5294 25.5968 19.6894 24.4128 21.8014C24.0928 22.3134 23.9328 22.9054 23.9328 23.5774C23.9328 24.2494 23.9168 24.6654 23.8848 24.8254L23.8368 26.1214C23.8048 26.5374 23.7888 27.4654 23.7888 28.9054C23.7888 29.2894 23.8368 29.8654 23.9328 30.6334C23.9328 30.7294 23.9648 30.7774 24.0288 30.7774C24.0928 30.8414 24.1568 30.7934 24.2208 30.6334C24.2208 30.5694 24.2368 30.4734 24.2688 30.3454C24.3328 30.2174 24.3808 30.1054 24.4128 30.0094L25.6608 25.8814C26.0128 24.5694 26.3808 23.5454 26.7648 22.8094C26.9248 22.3934 27.1488 21.9774 27.4368 21.5614C27.7568 21.1774 28.0288 20.8894 28.2528 20.6974C28.5088 20.5374 28.7488 20.4574 28.9728 20.4574C29.0048 20.4574 29.1488 20.4894 29.4048 20.5534C29.5328 20.6494 29.8688 20.8094 30.4128 21.0334C30.9888 21.2894 31.3728 21.7054 31.5648 22.2814L31.8048 23.3374H31.9008C31.9968 23.3374 32.1248 23.2574 32.2848 23.0974L34.1088 21.6574L35.0688 20.8894L35.5008 20.6014C35.6928 20.4094 35.8528 20.3934 35.9808 20.5534L36.0288 20.6014C36.3488 20.7294 36.5088 20.8414 36.5088 20.9374ZM24.2688 19.5454L24.3168 19.9774C24.4128 19.8814 24.4768 19.8014 24.5088 19.7374C24.5088 19.6734 24.5248 19.6094 24.5568 19.5454C24.6208 19.4814 24.6688 19.4014 24.7008 19.3054C24.7648 19.1774 24.8128 19.0654 24.8448 18.9694C25.9328 16.8254 26.7648 14.7294 27.3408 12.6814C27.8208 10.9854 28.0768 9.83336 28.1088 9.22536V8.55336C28.1088 8.42536 28.0768 8.32936 28.0128 8.26536C27.9488 8.23336 27.8688 8.26536 27.7728 8.36136C27.3248 8.74536 26.9568 9.19336 26.6688 9.70536C26.0928 10.7294 25.6768 11.7054 25.4208 12.6334C24.9088 14.6494 24.5248 16.9534 24.2688 19.5454ZM24.2688 20.0254V19.9774V20.0254ZM46.267 21.0334L45.163 22.4734L43.387 24.7774C42.619 25.6414 41.835 26.2974 41.035 26.7454C40.939 26.8414 40.763 26.9214 40.507 26.9854C40.283 27.1134 39.979 27.1774 39.595 27.1774C39.339 27.1774 39.115 27.1454 38.923 27.0814C37.771 26.6654 36.859 26.1854 36.187 25.6414C35.131 24.7774 34.603 23.5934 34.603 22.0894C34.603 20.7774 34.939 19.6734 35.611 18.7774C36.091 18.0414 36.683 17.5614 37.387 17.3374C37.643 17.2414 37.883 17.1934 38.107 17.1934C38.459 17.1934 38.795 17.2894 39.115 17.4814L39.787 17.8174C40.203 18.0414 40.411 18.3774 40.411 18.8254L40.315 19.3054C40.283 19.4654 40.219 19.5774 40.123 19.6414C39.771 20.2174 39.243 20.7774 38.539 21.3214C38.059 21.6094 37.563 21.7694 37.051 21.8014C36.795 21.8334 36.667 21.9934 36.667 22.2814C36.603 23.5614 36.859 24.6174 37.435 25.4494L37.627 25.7854C37.947 26.2014 38.283 26.4094 38.635 26.4094C38.827 26.4094 39.035 26.3614 39.259 26.2654C39.771 26.1374 40.267 25.8974 40.747 25.5454C41.611 24.8734 42.379 24.1214 43.051 23.2894L44.059 21.9454L45.019 20.8414C45.211 20.6494 45.339 20.5534 45.403 20.5534C45.467 20.5534 45.531 20.5854 45.595 20.6494C45.691 20.7134 45.771 20.7454 45.835 20.7454C46.091 20.7774 46.235 20.8734 46.267 21.0334ZM36.955 21.2734L37.195 21.2254C38.027 20.8094 38.699 20.1694 39.211 19.3054C39.339 18.9534 39.387 18.6654 39.355 18.4414V18.2974C39.291 18.0414 39.147 17.9614 38.923 18.0574C38.603 18.1534 38.331 18.3134 38.107 18.5374C37.371 19.1454 36.939 20.0094 36.811 21.1294C36.747 21.2254 36.795 21.2734 36.955 21.2734ZM45.313 31.5934C45.089 31.5614 44.929 31.4334 44.833 31.2094L44.353 29.9614C44.033 28.8734 43.873 27.6574 43.873 26.3134C43.873 25.2254 43.937 23.8334 44.065 22.1374L44.161 21.0814C44.289 19.8014 44.353 19.0334 44.353 18.7774C44.513 16.7294 44.641 15.4654 44.737 14.9854L45.265 11.6254C45.297 11.2094 45.409 11.0014 45.601 11.0014C45.729 11.0014 45.905 11.0494 46.129 11.1454C46.353 11.2414 46.481 11.4014 46.513 11.6254L46.657 12.2974C46.817 13.7374 46.897 14.9054 46.897 15.8014C46.929 16.2174 46.945 17.1774 46.945 18.6814C46.945 20.1854 46.929 21.1454 46.897 21.5614C46.833 23.8654 46.801 25.1614 46.801 25.4494C46.801 25.7694 46.817 25.9774 46.849 26.0734C46.977 25.9774 47.041 25.8974 47.041 25.8334L47.905 22.6654C48.385 21.1614 48.865 19.9454 49.345 19.0174C49.505 18.6014 49.697 18.2814 49.921 18.0574C50.177 17.7054 50.513 17.5934 50.929 17.7214C51.281 17.8494 51.505 17.9134 51.601 17.9134C51.921 18.0094 52.145 18.2014 52.273 18.4894L52.561 19.2094L53.425 21.5614L53.473 21.7054C53.569 22.1214 53.713 22.3294 53.905 22.3294C53.969 22.3294 54.177 22.2014 54.529 21.9454C55.297 21.2414 55.761 20.7934 55.921 20.6014C56.017 20.4734 56.337 20.2014 56.881 19.7854C57.169 19.5934 57.457 19.5454 57.745 19.6414L58.801 19.9294C59.121 20.0254 59.377 20.2174 59.569 20.5054L60.385 21.8494L60.913 22.8574L61.249 23.2894C61.409 23.4494 61.617 23.5294 61.873 23.5294C62.129 23.5294 62.289 23.5134 62.353 23.4814C63.825 23.2254 64.977 22.8574 65.809 22.3774L67.825 21.0814L68.545 20.6494C68.737 20.6174 68.897 20.6174 69.025 20.6494L69.169 20.6974C69.585 20.8254 69.793 20.9214 69.793 20.9854V21.0334C69.793 21.2574 69.633 21.4174 69.313 21.5134L68.065 22.4734C67.041 23.2734 65.761 23.7854 64.225 24.0094C63.553 24.1054 63.121 24.1534 62.929 24.1534C61.937 24.1534 60.929 23.8814 59.905 23.3374C59.617 23.1454 59.361 22.9054 59.137 22.6174C58.977 22.4254 58.705 21.8974 58.321 21.0334C58.161 20.6494 58.033 20.4574 57.937 20.4574C57.777 20.4574 57.585 20.5694 57.361 20.7934L56.641 21.5134L55.777 22.4254C55.617 22.5854 55.425 22.7454 55.201 22.9054C54.881 23.1294 54.513 23.1934 54.097 23.0974L53.089 22.7614C52.449 22.5694 52.001 22.1534 51.745 21.5134C51.521 21.0654 51.377 20.6014 51.313 20.1214L51.025 18.8734C50.993 18.8094 50.945 18.7774 50.881 18.7774C50.849 18.7454 50.817 18.7614 50.785 18.8254L50.353 19.3534C49.713 20.2494 49.105 21.6094 48.529 23.4334C48.305 24.2014 48.081 25.1614 47.857 26.3134L47.521 27.7534L46.945 30.3454C46.913 30.6654 46.849 31.0814 46.753 31.5934C46.753 31.7854 46.641 31.8654 46.417 31.8334C46.385 31.8334 46.241 31.8174 45.985 31.7854C45.761 31.7214 45.537 31.6574 45.313 31.5934ZM62.113 15.2734L61.873 15.2254C60.529 15.1294 58.993 14.7934 57.265 14.2174C55.921 13.7374 54.545 13.3694 53.137 13.1134C52.977 13.0814 52.641 13.0654 52.129 13.0654C51.649 13.0654 51.169 13.1134 50.689 13.2094C50.113 13.3054 49.649 13.5294 49.297 13.8814C49.105 14.0414 49.089 14.2014 49.249 14.3614L49.489 14.6014C49.553 14.6654 49.585 14.7294 49.585 14.7934C49.585 14.9214 49.489 14.9854 49.297 14.9854C49.009 14.9854 48.785 14.8414 48.625 14.5534L48.289 13.5454C48.257 13.5134 48.241 13.4014 48.241 13.2094C48.241 13.0494 48.321 12.8414 48.481 12.5854C48.705 12.2654 49.009 12.0094 49.393 11.8174C49.681 11.6574 50.129 11.4974 50.737 11.3374C51.217 11.2414 51.681 11.1934 52.129 11.1934C52.609 11.1934 53.185 11.2574 53.857 11.3854C54.689 11.4814 55.713 11.6894 56.929 12.0094L58.561 12.3934C59.681 12.6494 60.721 12.8094 61.681 12.8734H62.065C62.609 12.8734 63.057 12.8094 63.409 12.6814C63.633 12.6494 63.745 12.5374 63.745 12.3454C63.745 12.2494 63.793 12.2014 63.889 12.2014C63.921 12.2014 63.969 12.2334 64.033 12.2974C64.225 13.0014 64.321 13.5454 64.321 13.9294L64.273 14.3614C64.209 14.6494 64.049 14.8574 63.793 14.9854C63.473 15.1134 62.913 15.2094 62.113 15.2734ZM91.7883 21.3214L88.3803 25.4974C87.5483 26.5534 86.8763 27.2574 86.3643 27.6094C86.1403 27.8334 85.9803 27.9614 85.8843 27.9934C85.6603 28.1214 85.4523 28.1854 85.2603 28.1854C85.1003 28.1854 84.9563 28.1534 84.8283 28.0894C83.8683 27.6734 83.1803 27.3374 82.7643 27.0814C82.2523 26.7614 81.9003 26.2814 81.7083 25.6414C81.4523 24.7134 81.2923 23.8334 81.2283 23.0014V22.0414C79.7243 23.1934 78.8283 23.8974 78.5403 24.1534C78.1243 24.5374 77.8683 24.8094 77.7723 24.9694C77.6763 25.1294 77.5483 25.4814 77.3883 26.0254C77.0043 27.2414 76.4923 28.2494 75.8523 29.0494C75.5643 29.4334 75.2283 29.7694 74.8443 30.0574C74.5883 30.2494 74.3163 30.3294 74.0283 30.2974L73.1643 30.1534C72.9083 30.0574 72.7803 29.8974 72.7803 29.6734C72.7803 29.4814 72.8443 29.2414 72.9723 28.9534C73.1323 28.6014 73.3723 28.1374 73.6923 27.5614C74.3003 26.7614 74.8763 26.0734 75.4203 25.4974L75.8043 25.1134C75.9963 24.9214 76.1083 24.7294 76.1403 24.5374C76.3323 23.3214 76.4283 22.4254 76.4283 21.8494L76.3803 21.0814C76.3483 20.6974 76.2683 20.3294 76.1403 19.9774C76.0763 19.7214 75.9643 19.6734 75.8043 19.8334C75.3243 20.1854 74.9083 20.6014 74.5563 21.0814C74.1083 21.7534 73.7563 22.4414 73.5003 23.1454C72.7963 24.8734 72.2523 26.5534 71.8683 28.1854L71.1963 31.0174C71.1323 31.3694 71.0523 31.9294 70.9563 32.6974C70.8923 33.0174 70.8603 33.2094 70.8603 33.2734C70.8283 33.4014 70.7323 33.4654 70.5723 33.4654H69.4683C69.2763 33.4654 69.1323 33.3694 69.0363 33.1774C68.8763 32.8254 68.7643 32.4574 68.7003 32.0734C68.6043 31.4974 68.5563 30.9214 68.5563 30.3454L68.4603 29.1934C68.3963 27.2094 68.3643 26.1054 68.3643 25.8814C68.3643 25.1134 68.3963 23.6734 68.4603 21.5614L68.6043 18.2494L68.7003 16.5214C68.7643 15.9134 69.0363 15.6094 69.5163 15.6094C70.2203 15.6094 70.5723 16.3454 70.5723 17.8174L70.6683 25.8814L70.6203 27.7534C70.6203 27.8814 70.6523 27.9454 70.7163 27.9454C70.7803 27.9454 70.8123 27.8974 70.8123 27.8014L71.3403 26.0254C71.8523 24.3294 72.3483 22.9374 72.8283 21.8494C73.1803 21.0174 73.5643 20.3934 73.9803 19.9774C74.2683 19.6254 74.6043 19.3374 74.9883 19.1134C75.3083 18.9534 75.5963 18.9214 75.8523 19.0174L76.7163 19.2574C77.1963 19.4174 77.5323 19.7374 77.7243 20.2174C77.9163 20.8574 78.0123 21.4974 78.0123 22.1374V23.1934L78.7323 22.6174L81.1323 20.8894C81.1963 20.8254 81.2443 20.7934 81.2763 20.7934L81.5163 17.3854C81.6123 16.8094 81.6923 16.3934 81.7563 16.1374L81.9003 15.7054C82.0283 15.4174 82.1723 15.2734 82.3323 15.2734C82.4283 15.2734 82.5723 15.3214 82.7643 15.4174L83.5803 15.7534C83.9323 15.9774 84.0923 16.2654 84.0603 16.6174C84.0603 17.3534 84.0123 18.0734 83.9163 18.7774C83.8203 19.7694 83.7563 20.4414 83.7243 20.7934L83.6283 21.8014C83.5643 23.2094 83.6763 24.4894 83.9643 25.6414C84.0603 26.1854 84.2203 26.6334 84.4443 26.9854C84.4763 27.1134 84.6043 27.1614 84.8283 27.1294C85.4363 26.9694 85.9323 26.6974 86.3163 26.3134L86.9883 25.6414C88.3643 24.1694 89.4843 22.8094 90.3483 21.5614C90.5083 21.3374 90.7163 21.0974 90.9723 20.8414C91.0683 20.6814 91.2123 20.6494 91.4043 20.7454L91.6923 20.8894C91.8523 20.9534 91.9323 21.0014 91.9323 21.0334C91.9323 21.0654 91.8843 21.1614 91.7883 21.3214Z" fill="white"></path></svg> 