<?xml version="1.0" encoding="UTF-8"?> <svg xmlns="http://www.w3.org/2000/svg" width="264" height="235" viewBox="0 0 264 235" fill="none"><path d="M72.655 147.822C74.383 147.822 76.079 147.998 77.743 148.35C79.439 148.702 80.911 149.278 82.159 150.078C83.919 148.478 85.615 146.91 87.247 145.374C88.879 143.806 90.447 142.27 91.951 140.766C91.311 139.838 90.991 138.734 90.991 137.454C90.991 136.174 91.231 134.942 91.711 133.758C92.223 132.542 92.879 131.47 93.679 130.542C94.511 129.582 95.439 128.814 96.463 128.238C97.519 127.662 98.591 127.374 99.679 127.374C100.127 127.374 100.575 127.518 101.023 127.806C101.471 128.062 101.695 128.51 101.695 129.15C101.695 129.822 101.471 130.526 101.023 131.262C100.575 131.966 100.031 132.702 99.391 133.47C98.559 134.494 97.615 135.566 96.559 136.686C95.535 137.806 94.415 138.974 93.199 140.19C93.711 141.534 94.591 142.478 95.839 143.022C97.119 143.566 98.591 143.854 100.255 143.886C101.087 143.118 101.951 142.366 102.847 141.63C103.743 140.862 104.623 140.19 105.487 139.614C106.383 139.006 107.231 138.526 108.031 138.174C108.831 137.822 109.551 137.646 110.191 137.646C110.607 137.646 110.911 137.742 111.103 137.934C111.327 138.126 111.439 138.35 111.439 138.606C111.439 139.15 111.087 139.758 110.383 140.43C109.711 141.07 108.847 141.678 107.791 142.254C106.735 142.83 105.567 143.326 104.287 143.742C103.007 144.126 101.775 144.334 100.591 144.366L100.543 144.414L99.631 145.278C98.831 146.014 98.063 146.75 97.327 147.486C96.623 148.222 95.903 148.942 95.167 149.646C96.127 149.678 97.087 149.822 98.047 150.078C99.007 150.302 99.871 150.654 100.639 151.134C101.407 151.614 102.031 152.238 102.511 153.006C102.991 153.742 103.231 154.638 103.231 155.694C103.231 158.062 102.479 160.238 100.975 162.222C99.503 164.174 97.471 165.854 94.879 167.262C92.319 168.67 89.311 169.758 85.855 170.526C82.431 171.326 78.767 171.726 74.863 171.726C73.711 171.726 72.511 171.662 71.263 171.534C70.047 171.438 68.831 171.262 67.615 171.006C66.431 170.75 65.263 170.414 64.111 169.998C62.991 169.614 61.951 169.134 60.991 168.558C58.783 170.254 56.783 171.71 54.991 172.926C53.199 174.174 51.695 175.134 50.479 175.806L50.287 175.422C51.503 174.718 52.991 173.758 54.751 172.542C56.511 171.326 58.447 169.918 60.559 168.318C59.151 167.39 58.015 166.27 57.151 164.958C56.319 163.614 55.903 161.982 55.903 160.062C55.903 158.43 56.335 156.878 57.199 155.406C58.095 153.902 59.295 152.59 60.799 151.47C62.335 150.35 64.111 149.47 66.127 148.83C68.175 148.158 70.351 147.822 72.655 147.822ZM94.735 150.078C93.327 151.486 92.015 152.67 90.799 153.63C89.615 154.59 88.559 155.07 87.631 155.07C87.023 155.07 86.719 154.814 86.719 154.302C86.719 153.918 86.943 153.47 87.391 152.958C87.839 152.446 88.415 151.966 89.119 151.518C89.855 151.038 90.671 150.638 91.567 150.318C92.463 149.966 93.375 149.758 94.303 149.694C95.071 148.958 95.855 148.174 96.655 147.342C97.487 146.51 98.367 145.662 99.295 144.798L99.727 144.366C98.095 144.302 96.623 143.998 95.311 143.454C93.999 142.91 92.975 142.158 92.239 141.198C90.767 142.638 89.215 144.142 87.583 145.71C85.983 147.246 84.319 148.798 82.591 150.366C83.423 151.006 84.079 151.758 84.559 152.622C85.071 153.454 85.327 154.446 85.327 155.598C85.327 156.622 85.023 157.614 84.415 158.574C83.839 159.502 83.039 160.334 82.015 161.07C81.023 161.806 79.871 162.398 78.559 162.846C77.279 163.294 75.951 163.518 74.575 163.518L74.527 163.134C75.839 163.102 77.055 162.894 78.175 162.51C79.327 162.094 80.319 161.55 81.151 160.878C81.983 160.174 82.639 159.374 83.119 158.478C83.599 157.55 83.839 156.574 83.839 155.55C83.839 154.558 83.663 153.694 83.311 152.958C82.991 152.19 82.527 151.534 81.919 150.99C78.527 154.062 75.087 157.07 71.599 160.014C68.143 162.926 64.863 165.582 61.759 167.982C62.687 168.622 63.695 169.15 64.783 169.566C65.903 169.982 67.039 170.318 68.191 170.574C69.343 170.83 70.479 171.006 71.599 171.102C72.751 171.198 73.823 171.246 74.815 171.246C78.911 171.246 82.559 170.798 85.759 169.902C88.991 169.038 91.711 167.87 93.919 166.398C96.127 164.894 97.807 163.166 98.959 161.214C100.143 159.23 100.735 157.166 100.735 155.022C100.735 153.39 100.159 152.158 99.007 151.326C97.887 150.494 96.511 150.078 94.879 150.078H94.735ZM57.583 160.062C57.583 161.822 57.935 163.326 58.639 164.574C59.343 165.822 60.255 166.862 61.375 167.694C64.479 165.294 67.759 162.638 71.215 159.726C74.703 156.782 78.143 153.758 81.535 150.654C80.479 149.79 79.167 149.182 77.599 148.83C76.031 148.446 74.383 148.254 72.655 148.254C70.767 148.254 68.927 148.542 67.135 149.118C65.343 149.694 63.727 150.51 62.287 151.566C60.879 152.622 59.743 153.87 58.879 155.31C58.015 156.75 57.583 158.334 57.583 160.062ZM92.815 137.79C92.815 138.558 92.879 139.198 93.007 139.71C94.159 138.526 95.231 137.406 96.223 136.35C97.215 135.262 98.127 134.222 98.959 133.23C99.599 132.494 100.127 131.79 100.543 131.118C100.959 130.446 101.167 129.774 101.167 129.102C101.167 128.558 100.975 128.206 100.591 128.046C100.207 127.854 99.887 127.758 99.631 127.758C98.927 127.758 98.175 128.046 97.375 128.622C96.575 129.166 95.839 129.902 95.167 130.83C94.495 131.758 93.935 132.83 93.487 134.046C93.039 135.262 92.815 136.51 92.815 137.79ZM109.135 138.654C108.527 138.654 107.903 138.798 107.263 139.086C106.655 139.342 106.015 139.71 105.343 140.19C104.703 140.67 104.031 141.23 103.327 141.87C102.623 142.51 101.887 143.182 101.119 143.886C102.303 143.822 103.423 143.614 104.479 143.262C105.535 142.878 106.463 142.446 107.263 141.966C108.063 141.486 108.687 140.99 109.135 140.478C109.615 139.966 109.855 139.534 109.855 139.182C109.855 138.83 109.615 138.654 109.135 138.654ZM88.687 154.11C89.135 154.11 89.791 153.742 90.655 153.006C91.551 152.27 92.607 151.326 93.823 150.174C92.991 150.27 92.223 150.462 91.519 150.75C90.847 151.006 90.255 151.31 89.743 151.662C89.263 152.014 88.879 152.382 88.591 152.766C88.335 153.118 88.207 153.438 88.207 153.726C88.207 153.982 88.367 154.11 88.687 154.11ZM112.56 158.43C111.856 158.43 111.136 158.718 110.4 159.294C109.664 159.87 108.976 160.558 108.336 161.358C107.728 162.126 107.216 162.942 106.8 163.806C106.416 164.67 106.224 165.39 106.224 165.966C106.224 166.19 106.272 166.446 106.368 166.734C106.464 166.99 106.768 167.118 107.28 167.118C107.696 167.118 108.128 166.974 108.576 166.686C109.056 166.398 109.536 166.03 110.016 165.582C110.496 165.134 110.944 164.638 111.36 164.094C111.808 163.55 112.224 163.006 112.608 162.462C112.96 161.95 113.264 161.438 113.52 160.926C113.808 160.414 113.952 159.982 113.952 159.63C113.952 159.182 113.808 158.878 113.52 158.718C113.232 158.526 112.912 158.43 112.56 158.43ZM115.248 158.91C115.44 158.654 115.632 158.446 115.824 158.286C116.016 158.126 116.304 158.046 116.688 158.046H117.6C117.856 158.046 117.984 158.142 117.984 158.334C117.984 158.366 117.968 158.414 117.936 158.478C117.936 158.51 117.904 158.59 117.84 158.718C117.552 159.166 117.152 159.742 116.64 160.446C116.128 161.15 115.632 161.886 115.152 162.654C114.672 163.39 114.24 164.094 113.856 164.766C113.504 165.406 113.328 165.902 113.328 166.254C113.328 166.638 113.504 166.83 113.856 166.83C114.688 166.83 115.488 166.478 116.256 165.774C117.024 165.038 118.064 163.902 119.376 162.366L119.712 162.606C119.2 163.214 118.688 163.822 118.176 164.43C117.696 165.038 117.184 165.582 116.64 166.062C116.096 166.542 115.52 166.942 114.912 167.262C114.304 167.55 113.616 167.694 112.848 167.694C112.304 167.694 111.84 167.598 111.456 167.406C111.072 167.182 110.88 166.814 110.88 166.302C110.88 166.142 110.912 165.95 110.976 165.726C111.072 165.47 111.216 165.198 111.408 164.91V164.862C110.576 165.79 109.76 166.51 108.96 167.022C108.192 167.502 107.328 167.742 106.368 167.742C105.408 167.742 104.752 167.534 104.4 167.118C104.08 166.702 103.92 166.238 103.92 165.726C103.92 164.862 104.16 163.966 104.64 163.038C105.152 162.11 105.808 161.262 106.608 160.494C107.408 159.726 108.304 159.102 109.296 158.622C110.288 158.142 111.28 157.902 112.272 157.902C113.072 157.902 113.68 158.046 114.096 158.334C114.512 158.59 114.816 158.894 115.008 159.246L115.248 158.91ZM124.983 156.99C124.151 158.206 123.479 159.342 122.967 160.398C122.455 161.454 122.055 162.382 121.767 163.182C121.479 163.95 121.271 164.59 121.143 165.102C121.047 165.614 120.999 165.934 120.999 166.062C120.999 166.894 121.447 167.31 122.343 167.31C122.919 167.31 123.527 167.102 124.167 166.686C124.839 166.27 125.447 165.758 125.991 165.15C126.567 164.51 127.031 163.838 127.383 163.134C127.767 162.398 127.991 161.742 128.055 161.166C128.023 160.846 127.943 160.622 127.815 160.494C127.687 160.366 127.543 160.27 127.383 160.206C127.255 160.11 127.127 160.014 126.999 159.918C126.871 159.822 126.807 159.63 126.807 159.342C126.807 158.958 126.983 158.606 127.335 158.286C127.687 157.966 128.103 157.806 128.583 157.806C129.127 157.806 129.559 157.998 129.879 158.382C130.199 158.734 130.359 159.182 130.359 159.726C130.359 160.718 130.087 161.71 129.543 162.702C128.999 163.662 128.295 164.526 127.431 165.294C126.599 166.062 125.671 166.686 124.647 167.166C123.623 167.614 122.647 167.838 121.719 167.838C120.503 167.838 119.719 167.614 119.367 167.166C119.015 166.686 118.839 166.126 118.839 165.486C118.839 164.59 119.159 163.406 119.799 161.934C120.471 160.43 121.335 158.83 122.391 157.134C123.479 155.438 124.695 153.71 126.039 151.95C127.415 150.19 128.791 148.606 130.167 147.198C131.575 145.79 132.935 144.638 134.247 143.742C135.559 142.846 136.695 142.398 137.655 142.398C138.231 142.398 138.727 142.542 139.143 142.83C139.559 143.118 139.767 143.566 139.767 144.174C139.767 144.878 139.415 145.806 138.711 146.958C138.007 148.078 137.015 149.262 135.735 150.51C134.455 151.726 132.903 152.926 131.079 154.11C129.255 155.262 127.223 156.222 124.983 156.99ZM136.119 143.502C135.479 143.502 134.711 143.918 133.815 144.75C132.951 145.582 132.023 146.638 131.031 147.918C130.071 149.198 129.095 150.59 128.103 152.094C127.111 153.598 126.183 155.022 125.319 156.366L125.367 156.414C127.415 155.678 129.191 154.782 130.695 153.726C132.199 152.67 133.447 151.598 134.439 150.51C135.431 149.39 136.167 148.318 136.647 147.294C137.159 146.238 137.415 145.374 137.415 144.702C137.415 144.382 137.303 144.11 137.079 143.886C136.887 143.63 136.567 143.502 136.119 143.502ZM133.843 163.71C134.899 163.518 135.763 163.246 136.435 162.894C137.107 162.542 137.635 162.174 138.019 161.79C138.403 161.374 138.659 160.974 138.787 160.59C138.947 160.174 139.027 159.806 139.027 159.486C139.027 159.134 138.947 158.91 138.787 158.814C138.627 158.686 138.435 158.622 138.211 158.622C137.507 158.622 136.771 159.118 136.003 160.11C135.235 161.07 134.515 162.27 133.843 163.71ZM134.947 167.07C135.267 167.07 135.619 167.038 136.003 166.974C136.419 166.91 136.915 166.718 137.491 166.398C138.067 166.078 138.723 165.582 139.459 164.91C140.227 164.238 141.139 163.294 142.195 162.078L142.531 162.318C141.475 163.566 140.531 164.558 139.699 165.294C138.899 165.998 138.163 166.542 137.491 166.926C136.819 167.278 136.195 167.502 135.619 167.598C135.075 167.726 134.531 167.79 133.987 167.79C132.803 167.79 132.019 167.534 131.635 167.022C131.251 166.478 131.059 165.934 131.059 165.39C131.059 164.526 131.267 163.662 131.683 162.798C132.131 161.902 132.707 161.102 133.411 160.398C134.147 159.662 134.963 159.07 135.859 158.622C136.755 158.142 137.683 157.902 138.643 157.902C139.603 157.902 140.227 158.094 140.515 158.478C140.803 158.83 140.947 159.182 140.947 159.534C140.947 160.206 140.707 160.814 140.227 161.358C139.779 161.87 139.203 162.318 138.499 162.702C137.795 163.054 137.011 163.358 136.147 163.614C135.283 163.838 134.467 164.014 133.699 164.142C133.603 164.334 133.523 164.59 133.459 164.91C133.395 165.198 133.363 165.47 133.363 165.726C133.363 166.174 133.507 166.51 133.795 166.734C134.115 166.958 134.499 167.07 134.947 167.07ZM151.799 167.694C151.255 167.694 150.791 167.582 150.407 167.358C150.023 167.102 149.831 166.718 149.831 166.206C149.831 165.79 149.943 165.342 150.167 164.862C150.391 164.35 150.679 163.838 151.031 163.326C151.383 162.814 151.751 162.302 152.135 161.79C152.519 161.278 152.887 160.798 153.239 160.35C153.591 159.838 153.767 159.486 153.767 159.294C153.767 158.91 153.511 158.718 152.999 158.718C152.327 158.718 151.591 159.07 150.791 159.774C150.023 160.478 149.271 161.31 148.535 162.27C147.831 163.198 147.175 164.142 146.567 165.102C145.991 166.062 145.543 166.814 145.223 167.358L131.255 190.83C130.999 191.214 130.695 191.678 130.343 192.222C129.991 192.798 129.607 193.342 129.191 193.854C128.743 194.398 128.295 194.846 127.847 195.198C127.399 195.582 126.967 195.774 126.551 195.774C126.007 195.774 125.655 195.614 125.495 195.294C125.335 195.006 125.255 194.654 125.255 194.238C125.255 193.502 125.543 192.558 126.119 191.406C126.663 190.286 127.255 189.134 127.895 187.95C129.239 185.518 130.679 183.006 132.215 180.414C133.719 177.854 135.271 175.278 136.871 172.686C138.439 170.126 140.007 167.614 141.575 165.15C143.175 162.654 144.711 160.302 146.183 158.094L142.103 162.846L141.767 162.606C142.983 161.166 144.215 159.71 145.463 158.238C146.743 156.734 148.039 155.118 149.351 153.39L149.975 152.478C150.519 151.71 151.143 151.326 151.847 151.326H152.279C152.535 151.326 152.663 151.422 152.663 151.614C152.663 151.646 152.647 151.694 152.615 151.758C152.615 151.79 152.583 151.87 152.519 151.998L150.599 154.974C150.119 155.71 149.431 156.782 148.535 158.19C147.639 159.598 146.615 161.214 145.463 163.038C144.311 164.83 143.079 166.766 141.767 168.846C140.455 170.926 139.159 173.006 137.879 175.086C136.567 177.198 135.319 179.23 134.135 181.182C132.919 183.166 131.847 184.958 130.919 186.558C129.991 188.19 129.223 189.566 128.615 190.686C128.007 191.806 127.671 192.558 127.607 192.942C127.543 193.262 127.511 193.454 127.511 193.518C127.511 193.87 127.639 194.046 127.895 194.046C128.247 194.046 128.647 193.742 129.095 193.134C129.511 192.558 130.151 191.55 131.015 190.11C133.383 186.238 135.703 182.382 137.975 178.542C140.247 174.734 142.519 170.91 144.791 167.07C145.271 166.238 145.847 165.294 146.519 164.238C147.191 163.15 147.911 162.126 148.679 161.166C149.479 160.206 150.327 159.406 151.223 158.766C152.119 158.094 153.031 157.758 153.959 157.758C154.535 157.758 155.015 157.902 155.399 158.19C155.783 158.478 155.975 158.894 155.975 159.438C155.975 159.918 155.767 160.478 155.351 161.118C154.967 161.726 154.535 162.366 154.055 163.038C153.607 163.678 153.175 164.286 152.759 164.862C152.375 165.438 152.183 165.918 152.183 166.302C152.183 166.654 152.391 166.83 152.807 166.83C153.639 166.83 154.439 166.478 155.207 165.774C155.975 165.038 157.015 163.902 158.327 162.366L158.663 162.606C158.151 163.214 157.639 163.822 157.127 164.43C156.647 165.038 156.135 165.582 155.591 166.062C155.047 166.542 154.471 166.942 153.863 167.262C153.255 167.55 152.567 167.694 151.799 167.694ZM176.793 167.694C176.249 167.694 175.785 167.582 175.401 167.358C175.017 167.102 174.825 166.718 174.825 166.206C174.825 165.822 174.921 165.39 175.113 164.91C175.305 164.398 175.609 163.87 176.025 163.326L175.977 163.278C174.729 164.686 173.609 165.774 172.617 166.542C171.657 167.31 170.617 167.694 169.497 167.694C168.953 167.694 168.489 167.582 168.105 167.358C167.721 167.102 167.529 166.718 167.529 166.206C167.529 165.534 167.753 164.814 168.201 164.046C168.681 163.278 169.129 162.622 169.545 162.078L169.497 162.03C168.857 162.734 168.169 163.422 167.433 164.094C166.697 164.766 165.961 165.374 165.225 165.918C164.521 166.43 163.833 166.846 163.161 167.166C162.521 167.486 161.977 167.646 161.529 167.646C160.473 167.646 159.945 167.23 159.945 166.398C159.945 165.95 160.073 165.518 160.329 165.102C160.585 164.686 160.905 164.206 161.289 163.662C161.577 163.246 161.881 162.83 162.201 162.414C162.521 161.998 162.809 161.598 163.065 161.214C163.353 160.798 163.577 160.43 163.737 160.11C163.897 159.758 163.977 159.454 163.977 159.198C163.977 158.846 163.801 158.67 163.449 158.67C162.873 158.67 162.169 159.086 161.337 159.918C160.505 160.718 159.625 161.646 158.697 162.702L158.313 162.51C159.433 161.198 160.489 160.094 161.481 159.198C162.473 158.27 163.465 157.806 164.457 157.806C165.097 157.806 165.561 157.934 165.849 158.19C166.169 158.446 166.329 158.798 166.329 159.246C166.329 159.854 166.105 160.526 165.657 161.262C165.241 161.998 164.777 162.702 164.265 163.374C163.785 164.046 163.321 164.67 162.873 165.246C162.457 165.79 162.249 166.206 162.249 166.494C162.249 166.686 162.345 166.782 162.537 166.782C163.081 166.782 163.801 166.462 164.697 165.822C165.593 165.182 166.505 164.43 167.433 163.566C168.361 162.702 169.225 161.838 170.025 160.974C170.825 160.078 171.417 159.374 171.801 158.862C171.993 158.606 172.185 158.414 172.377 158.286C172.601 158.126 172.921 158.046 173.337 158.046H174.105C174.361 158.046 174.489 158.142 174.489 158.334C174.489 158.366 174.473 158.414 174.441 158.478C174.441 158.51 174.409 158.59 174.345 158.718C173.961 159.294 173.513 159.95 173.001 160.686C172.489 161.422 171.993 162.158 171.513 162.894C171.065 163.598 170.681 164.27 170.361 164.91C170.041 165.518 169.881 165.982 169.881 166.302C169.881 166.654 170.089 166.83 170.505 166.83C171.017 166.83 171.673 166.51 172.473 165.87C173.305 165.23 174.153 164.478 175.017 163.614C175.881 162.75 176.681 161.87 177.417 160.974C178.153 160.078 178.713 159.374 179.097 158.862C179.289 158.606 179.481 158.414 179.673 158.286C179.897 158.126 180.217 158.046 180.633 158.046H181.401C181.657 158.046 181.785 158.142 181.785 158.334C181.785 158.366 181.769 158.414 181.737 158.478C181.737 158.51 181.705 158.59 181.641 158.718C181.257 159.294 180.809 159.95 180.297 160.686C179.785 161.422 179.289 162.158 178.809 162.894C178.361 163.598 177.977 164.27 177.657 164.91C177.337 165.518 177.177 165.982 177.177 166.302C177.177 166.654 177.385 166.83 177.801 166.83C178.633 166.83 179.433 166.478 180.201 165.774C180.969 165.038 182.009 163.902 183.321 162.366L183.657 162.606C183.145 163.214 182.633 163.822 182.121 164.43C181.641 165.038 181.129 165.582 180.585 166.062C180.041 166.542 179.465 166.942 178.857 167.262C178.249 167.55 177.561 167.694 176.793 167.694ZM185.312 163.71C186.368 163.518 187.232 163.246 187.904 162.894C188.576 162.542 189.104 162.174 189.488 161.79C189.872 161.374 190.128 160.974 190.256 160.59C190.416 160.174 190.496 159.806 190.496 159.486C190.496 159.134 190.416 158.91 190.256 158.814C190.096 158.686 189.904 158.622 189.68 158.622C188.976 158.622 188.24 159.118 187.472 160.11C186.704 161.07 185.984 162.27 185.312 163.71ZM186.416 167.07C186.736 167.07 187.088 167.038 187.472 166.974C187.888 166.91 188.384 166.718 188.96 166.398C189.536 166.078 190.192 165.582 190.928 164.91C191.696 164.238 192.608 163.294 193.664 162.078L194 162.318C192.944 163.566 192 164.558 191.168 165.294C190.368 165.998 189.632 166.542 188.96 166.926C188.288 167.278 187.664 167.502 187.088 167.598C186.544 167.726 186 167.79 185.456 167.79C184.272 167.79 183.488 167.534 183.104 167.022C182.72 166.478 182.528 165.934 182.528 165.39C182.528 164.526 182.736 163.662 183.152 162.798C183.6 161.902 184.176 161.102 184.88 160.398C185.616 159.662 186.432 159.07 187.328 158.622C188.224 158.142 189.152 157.902 190.112 157.902C191.072 157.902 191.696 158.094 191.984 158.478C192.272 158.83 192.416 159.182 192.416 159.534C192.416 160.206 192.176 160.814 191.696 161.358C191.248 161.87 190.672 162.318 189.968 162.702C189.264 163.054 188.48 163.358 187.616 163.614C186.752 163.838 185.936 164.014 185.168 164.142C185.072 164.334 184.992 164.59 184.928 164.91C184.864 165.198 184.832 165.47 184.832 165.726C184.832 166.174 184.976 166.51 185.264 166.734C185.584 166.958 185.968 167.07 186.416 167.07ZM203.364 167.694C202.82 167.694 202.356 167.582 201.972 167.358C201.62 167.102 201.444 166.718 201.444 166.206C201.444 165.854 201.572 165.406 201.828 164.862C202.084 164.318 202.404 163.726 202.788 163.086C202.5 163.054 202.196 163.038 201.876 163.038C201.556 163.006 201.188 162.99 200.772 162.99C200.516 162.99 200.276 162.99 200.052 162.99C199.828 162.99 199.588 163.006 199.332 163.038L196.884 166.686C196.66 167.006 196.436 167.23 196.212 167.358C195.988 167.454 195.748 167.502 195.492 167.502H194.244C194.02 167.502 193.908 167.406 193.908 167.214C193.908 167.118 193.956 166.99 194.052 166.83C194.468 166.286 194.948 165.63 195.492 164.862C196.068 164.094 196.596 163.342 197.076 162.606C197.588 161.838 198.004 161.15 198.324 160.542C198.676 159.902 198.852 159.454 198.852 159.198C198.852 158.846 198.676 158.67 198.324 158.67C198.036 158.67 197.7 158.798 197.316 159.054C196.932 159.278 196.516 159.598 196.068 160.014C195.652 160.43 195.204 160.894 194.724 161.406C194.276 161.918 193.828 162.43 193.38 162.942L192.996 162.75C193.572 162.11 194.132 161.502 194.676 160.926C195.22 160.318 195.748 159.79 196.26 159.342C196.804 158.862 197.332 158.494 197.844 158.238C198.356 157.95 198.852 157.806 199.332 157.806C200.068 157.806 200.564 157.934 200.82 158.19C201.108 158.446 201.252 158.782 201.252 159.198C201.252 159.838 200.724 160.942 199.668 162.51C199.924 162.542 200.18 162.558 200.436 162.558C200.692 162.558 200.98 162.558 201.3 162.558H203.076C203.524 161.854 203.972 161.182 204.42 160.542C204.9 159.87 205.316 159.31 205.668 158.862C205.86 158.606 206.052 158.414 206.244 158.286C206.468 158.126 206.788 158.046 207.204 158.046H207.972C208.228 158.046 208.356 158.142 208.356 158.334C208.356 158.366 208.34 158.414 208.308 158.478C208.308 158.51 208.276 158.59 208.212 158.718C207.924 159.166 207.524 159.758 207.012 160.494C206.532 161.198 206.036 161.918 205.524 162.654C205.044 163.39 204.628 164.094 204.276 164.766C203.924 165.438 203.748 165.95 203.748 166.302C203.748 166.654 203.956 166.83 204.372 166.83C205.204 166.83 206.004 166.478 206.772 165.774C207.54 165.038 208.58 163.902 209.892 162.366L210.228 162.606C209.716 163.214 209.204 163.822 208.692 164.43C208.212 165.038 207.7 165.582 207.156 166.062C206.612 166.542 206.036 166.942 205.428 167.262C204.82 167.55 204.132 167.694 203.364 167.694ZM220.919 167.694C220.375 167.694 219.911 167.582 219.527 167.358C219.143 167.102 218.951 166.718 218.951 166.206C218.951 165.534 219.175 164.814 219.623 164.046C220.103 163.278 220.551 162.622 220.967 162.078L220.919 162.03C220.279 162.734 219.591 163.422 218.855 164.094C218.119 164.766 217.383 165.374 216.647 165.918C215.943 166.43 215.255 166.846 214.583 167.166C213.943 167.486 213.399 167.646 212.951 167.646C211.895 167.646 211.367 167.23 211.367 166.398C211.367 165.95 211.495 165.518 211.751 165.102C212.007 164.686 212.327 164.206 212.711 163.662C212.999 163.246 213.303 162.83 213.623 162.414C213.943 161.998 214.231 161.598 214.487 161.214C214.775 160.798 214.999 160.43 215.159 160.11C215.319 159.758 215.399 159.454 215.399 159.198C215.399 158.846 215.223 158.67 214.871 158.67C214.583 158.67 214.231 158.798 213.815 159.054C213.431 159.278 212.999 159.598 212.519 160.014C212.071 160.43 211.591 160.894 211.079 161.406C210.599 161.918 210.135 162.43 209.687 162.942L209.399 162.75C209.975 162.11 210.535 161.502 211.079 160.926C211.655 160.318 212.215 159.79 212.759 159.342C213.303 158.862 213.831 158.494 214.343 158.238C214.887 157.95 215.399 157.806 215.879 157.806C216.519 157.806 216.983 157.934 217.271 158.19C217.591 158.446 217.751 158.798 217.751 159.246C217.751 159.854 217.527 160.526 217.079 161.262C216.663 161.998 216.199 162.702 215.687 163.374C215.207 164.046 214.743 164.67 214.295 165.246C213.879 165.79 213.671 166.206 213.671 166.494C213.671 166.686 213.767 166.782 213.959 166.782C214.503 166.782 215.223 166.462 216.119 165.822C217.015 165.182 217.927 164.43 218.855 163.566C219.783 162.702 220.647 161.838 221.447 160.974C222.247 160.078 222.839 159.374 223.223 158.862C223.415 158.606 223.607 158.414 223.799 158.286C224.023 158.126 224.343 158.046 224.759 158.046H225.527C225.783 158.046 225.911 158.142 225.911 158.334C225.911 158.366 225.895 158.414 225.863 158.478C225.863 158.51 225.831 158.59 225.767 158.718C225.383 159.294 224.935 159.95 224.423 160.686C223.911 161.422 223.415 162.158 222.935 162.894C222.487 163.598 222.103 164.27 221.783 164.91C221.463 165.518 221.303 165.982 221.303 166.302C221.303 166.654 221.511 166.83 221.927 166.83C222.759 166.83 223.559 166.478 224.327 165.774C225.095 165.038 226.135 163.902 227.447 162.366L227.783 162.606C227.271 163.214 226.759 163.822 226.247 164.43C225.767 165.038 225.255 165.582 224.711 166.062C224.167 166.542 223.591 166.942 222.983 167.262C222.375 167.55 221.687 167.694 220.919 167.694ZM229.422 163.71C230.478 163.518 231.342 163.246 232.014 162.894C232.686 162.542 233.214 162.174 233.598 161.79C233.982 161.374 234.238 160.974 234.366 160.59C234.526 160.174 234.606 159.806 234.606 159.486C234.606 159.134 234.526 158.91 234.366 158.814C234.206 158.686 234.014 158.622 233.79 158.622C233.086 158.622 232.35 159.118 231.582 160.11C230.814 161.07 230.094 162.27 229.422 163.71ZM230.526 167.07C230.846 167.07 231.198 167.038 231.582 166.974C231.998 166.91 232.494 166.718 233.07 166.398C233.646 166.078 234.302 165.582 235.038 164.91C235.806 164.238 236.718 163.294 237.773 162.078L238.109 162.318C237.054 163.566 236.11 164.558 235.278 165.294C234.478 165.998 233.742 166.542 233.07 166.926C232.398 167.278 231.774 167.502 231.198 167.598C230.654 167.726 230.11 167.79 229.566 167.79C228.382 167.79 227.598 167.534 227.214 167.022C226.83 166.478 226.638 165.934 226.638 165.39C226.638 164.526 226.846 163.662 227.262 162.798C227.71 161.902 228.286 161.102 228.99 160.398C229.726 159.662 230.542 159.07 231.438 158.622C232.334 158.142 233.262 157.902 234.222 157.902C235.182 157.902 235.806 158.094 236.094 158.478C236.382 158.83 236.526 159.182 236.526 159.534C236.526 160.206 236.286 160.814 235.806 161.358C235.358 161.87 234.782 162.318 234.078 162.702C233.374 163.054 232.59 163.358 231.726 163.614C230.862 163.838 230.046 164.014 229.278 164.142C229.182 164.334 229.102 164.59 229.038 164.91C228.974 165.198 228.942 165.47 228.942 165.726C228.942 166.174 229.086 166.51 229.374 166.734C229.694 166.958 230.078 167.07 230.526 167.07Z" fill="#112250"></path><path d="M110.131 208.614H110.419C110.525 208.614 110.653 208.561 110.803 208.454C110.973 208.347 111.155 208.23 111.347 208.102C111.56 207.953 111.805 207.782 112.083 207.59C112.381 207.398 112.712 207.227 113.075 207.078C113.459 206.907 113.885 206.769 114.355 206.662C114.824 206.555 115.347 206.502 115.923 206.502C116.648 206.502 117.352 206.609 118.035 206.822C118.717 207.014 119.325 207.323 119.859 207.75C120.392 208.155 120.819 208.678 121.139 209.318C121.459 209.958 121.619 210.726 121.619 211.622C121.619 212.369 121.491 213.051 121.235 213.67C120.979 214.289 120.627 214.865 120.179 215.398C119.752 215.931 119.261 216.443 118.707 216.934C118.173 217.403 117.619 217.873 117.043 218.342C116.488 218.79 115.944 219.249 115.411 219.718C114.899 220.187 114.429 220.678 114.003 221.19C113.597 221.702 113.256 222.257 112.979 222.854C112.701 223.43 112.541 224.049 112.499 224.71H119.155C119.965 224.71 120.605 224.571 121.075 224.294C121.544 223.995 121.789 223.515 121.811 222.854H122.099V226.502H110.259C110.259 225.542 110.419 224.657 110.739 223.846C111.059 223.014 111.475 222.257 111.987 221.574C112.499 220.87 113.064 220.219 113.683 219.622C114.323 219.025 114.952 218.449 115.571 217.894C116.083 217.446 116.573 216.998 117.043 216.55C117.533 216.102 117.96 215.654 118.323 215.206C118.707 214.737 119.005 214.257 119.219 213.766C119.453 213.254 119.571 212.721 119.571 212.166C119.571 211.462 119.443 210.833 119.187 210.278C118.952 209.723 118.632 209.254 118.227 208.87C117.843 208.486 117.395 208.198 116.883 208.006C116.371 207.793 115.859 207.686 115.347 207.686C114.259 207.686 113.299 208.017 112.467 208.678C111.635 209.318 110.963 210.15 110.451 211.174H110.131V208.614ZM124.009 207.43H124.297C124.468 207.43 124.649 207.398 124.841 207.334C125.033 207.27 125.247 207.195 125.481 207.11C125.844 206.982 126.281 206.854 126.793 206.726C127.305 206.577 127.935 206.502 128.681 206.502C129.535 206.502 130.292 206.63 130.953 206.886C131.636 207.121 132.201 207.451 132.649 207.878C133.119 208.283 133.471 208.763 133.705 209.318C133.961 209.873 134.089 210.449 134.089 211.046C134.089 211.878 133.833 212.678 133.321 213.446C132.831 214.214 132.063 214.833 131.017 215.302C132.489 215.729 133.588 216.411 134.313 217.35C135.039 218.289 135.401 219.355 135.401 220.55C135.401 221.446 135.231 222.278 134.889 223.046C134.569 223.793 134.089 224.454 133.449 225.03C132.831 225.585 132.084 226.022 131.209 226.342C130.335 226.662 129.353 226.822 128.265 226.822C127.455 226.822 126.783 226.747 126.249 226.598C125.716 226.449 125.268 226.31 124.905 226.182C124.671 226.097 124.457 226.033 124.265 225.99C124.073 225.926 123.881 225.894 123.689 225.894H123.401V223.43H123.721C124.276 224.198 124.959 224.785 125.769 225.19C126.601 225.574 127.455 225.766 128.329 225.766C129.097 225.766 129.791 225.638 130.409 225.382C131.028 225.105 131.551 224.742 131.977 224.294C132.425 223.846 132.756 223.334 132.969 222.758C133.204 222.182 133.321 221.585 133.321 220.966C133.321 220.326 133.193 219.707 132.937 219.11C132.681 218.491 132.319 217.947 131.849 217.478C131.38 217.009 130.804 216.635 130.121 216.358C129.46 216.081 128.703 215.942 127.849 215.942H126.377V214.886H128.009C128.671 214.886 129.247 214.779 129.737 214.566C130.249 214.353 130.676 214.065 131.017 213.702C131.359 213.339 131.615 212.934 131.785 212.486C131.956 212.038 132.041 211.569 132.041 211.078C132.041 210.63 131.956 210.193 131.785 209.766C131.636 209.339 131.401 208.966 131.081 208.646C130.761 208.305 130.367 208.027 129.897 207.814C129.449 207.601 128.927 207.494 128.329 207.494C127.604 207.494 126.879 207.697 126.153 208.102C125.428 208.507 124.82 209.115 124.329 209.926H124.009V207.43ZM138.371 215.654C138.371 215.227 138.51 214.865 138.787 214.566C139.086 214.267 139.448 214.118 139.875 214.118C140.302 214.118 140.664 214.267 140.963 214.566C141.262 214.865 141.411 215.227 141.411 215.654C141.411 216.081 141.262 216.443 140.963 216.742C140.664 217.019 140.302 217.158 139.875 217.158C139.448 217.158 139.086 217.019 138.787 216.742C138.51 216.443 138.371 216.081 138.371 215.654ZM138.371 225.126C138.371 224.699 138.51 224.337 138.787 224.038C139.086 223.739 139.448 223.59 139.875 223.59C140.302 223.59 140.664 223.739 140.963 224.038C141.262 224.337 141.411 224.699 141.411 225.126C141.411 225.553 141.262 225.915 140.963 226.214C140.664 226.491 140.302 226.63 139.875 226.63C139.448 226.63 139.086 226.491 138.787 226.214C138.51 225.915 138.371 225.553 138.371 225.126ZM144.329 216.582C144.329 214.939 144.531 213.489 144.937 212.23C145.363 210.971 145.918 209.926 146.601 209.094C147.283 208.241 148.051 207.601 148.905 207.174C149.779 206.726 150.665 206.502 151.561 206.502C152.457 206.502 153.342 206.726 154.217 207.174C155.091 207.601 155.859 208.241 156.521 209.094C157.203 209.926 157.747 210.971 158.153 212.23C158.579 213.489 158.793 214.939 158.793 216.582C158.793 218.246 158.579 219.718 158.153 220.998C157.747 222.257 157.203 223.323 156.521 224.198C155.859 225.051 155.091 225.702 154.217 226.15C153.342 226.598 152.457 226.822 151.561 226.822C150.665 226.822 149.779 226.598 148.905 226.15C148.051 225.702 147.283 225.051 146.601 224.198C145.918 223.323 145.363 222.257 144.937 220.998C144.531 219.718 144.329 218.246 144.329 216.582ZM156.777 217.414C156.777 215.878 156.606 214.523 156.265 213.35C155.923 212.155 155.475 211.163 154.921 210.374C154.387 209.563 153.769 208.955 153.065 208.55C152.382 208.123 151.678 207.91 150.953 207.91C150.227 207.91 149.566 208.123 148.969 208.55C148.393 208.955 147.902 209.499 147.497 210.182C147.091 210.865 146.771 211.654 146.537 212.55C146.323 213.446 146.217 214.385 146.217 215.366C146.217 216.539 146.355 217.734 146.633 218.95C146.91 220.145 147.305 221.233 147.817 222.214C148.329 223.174 148.937 223.963 149.641 224.582C150.366 225.201 151.155 225.51 152.009 225.51C152.627 225.51 153.225 225.339 153.801 224.998C154.377 224.635 154.878 224.113 155.305 223.43C155.753 222.747 156.105 221.905 156.361 220.902C156.638 219.899 156.777 218.737 156.777 217.414ZM161.391 216.582C161.391 214.939 161.594 213.489 161.999 212.23C162.426 210.971 162.98 209.926 163.663 209.094C164.346 208.241 165.114 207.601 165.967 207.174C166.842 206.726 167.727 206.502 168.623 206.502C169.519 206.502 170.404 206.726 171.279 207.174C172.154 207.601 172.922 208.241 173.583 209.094C174.266 209.926 174.81 210.971 175.215 212.23C175.642 213.489 175.855 214.939 175.855 216.582C175.855 218.246 175.642 219.718 175.215 220.998C174.81 222.257 174.266 223.323 173.583 224.198C172.922 225.051 172.154 225.702 171.279 226.15C170.404 226.598 169.519 226.822 168.623 226.822C167.727 226.822 166.842 226.598 165.967 226.15C165.114 225.702 164.346 225.051 163.663 224.198C162.98 223.323 162.426 222.257 161.999 220.998C161.594 219.718 161.391 218.246 161.391 216.582ZM173.839 217.414C173.839 215.878 173.668 214.523 173.327 213.35C172.986 212.155 172.538 211.163 171.983 210.374C171.45 209.563 170.831 208.955 170.127 208.55C169.444 208.123 168.74 207.91 168.015 207.91C167.29 207.91 166.628 208.123 166.031 208.55C165.455 208.955 164.964 209.499 164.559 210.182C164.154 210.865 163.834 211.654 163.599 212.55C163.386 213.446 163.279 214.385 163.279 215.366C163.279 216.539 163.418 217.734 163.695 218.95C163.972 220.145 164.367 221.233 164.879 222.214C165.391 223.174 165.999 223.963 166.703 224.582C167.428 225.201 168.218 225.51 169.071 225.51C169.69 225.51 170.287 225.339 170.863 224.998C171.439 224.635 171.94 224.113 172.367 223.43C172.815 222.747 173.167 221.905 173.423 220.902C173.7 219.899 173.839 218.737 173.839 217.414Z" fill="#112250"></path><mask id="path-3-inside-1_5466_48" fill="white"><path d="M157.293 71.0384C158.34 71.0384 161.42 71.5463 161.42 72.9433C161.515 74.1498 158.721 74.626 158.626 75.0705C158.467 75.769 158.975 76.912 159.007 77.7692C159.071 79.6107 159.388 83.8016 157.959 85.008C157.356 85.5161 156.308 85.4844 156.245 85.5478C156.086 85.7066 156.626 89.5483 156.753 90.0563C157.166 91.8978 158.69 93.1994 160.563 93.1677C164.373 93.0724 170.5 91.4216 172.723 88.0878C173.136 87.4846 174.66 83.7064 174.501 83.5158C174.437 83.4206 172.945 83.1984 172.405 82.3095C171.294 80.4997 172.278 76.5309 172.786 74.5307C172.056 74.5307 171.389 74.2451 170.723 73.991C169.23 73.4195 168.564 73.1338 170.215 71.7685C170.627 71.4193 171.167 71.0066 171.77 71.07C172.12 71.7685 170.246 72.4988 171.072 72.975C171.453 73.1973 173.707 73.2607 173.834 73.1338C173.929 73.0386 173.548 72.4035 173.675 72.0861C173.929 71.4193 174.914 71.705 175.072 71.4511C175.358 70.9113 175.549 67.0696 175.58 66.0854C175.866 58.4337 175.422 50.6552 175.58 42.9717C175.707 34.7168 177.2 23.4775 175.834 15.5401C175.517 13.6034 174.787 13.8574 174.31 15.5401C172.659 21.1281 173.866 29.6052 173.802 35.4471C173.675 46.7817 172.945 58.021 173.199 69.3556C172.596 69.4508 172.882 68.5618 172.85 68.1491C172.628 62.974 172.659 57.7987 172.532 52.6236C172.247 42.1462 171.516 31.1291 172.183 20.6201C172.31 18.8103 172.818 13.1272 174.85 12.5875C175.358 12.4604 175.834 12.8096 176.342 12.6826C177.771 12.3334 179.867 9.72998 181.835 10.1427C182.057 11.0951 181.549 10.7142 181.137 10.9999C180.438 11.4762 177.136 13.0955 177.041 13.4447C177.993 15.9528 178.279 18.6515 178.374 21.3185C178.755 30.1449 177.835 39.0347 177.676 47.8294C177.517 55.1635 178.057 62.5611 177.327 69.8636C177.39 70.181 181.549 70.4351 181.422 71.8955C181.264 73.5465 178.819 73.7053 178.724 73.864C178.501 74.1498 179.359 75.1658 179.359 75.7373C179.486 78.5312 177.835 80.4679 177.39 82.4046C177.231 83.1031 177.708 83.6746 177.612 84.3096C177.2 86.9766 175.993 91.104 174.12 93.0408C172.554 94.1096 170.987 95.1785 169.421 96.2475C174.12 95.549 177.454 97.835 177.612 102.724C177.612 103.709 176.787 104.756 177.327 105.042C177.866 105.36 179.422 105.201 180.533 105.645C183.486 106.82 183.867 109.9 188.121 108.916C188.915 108.725 191.614 106.185 191.455 108.788C191.328 110.947 187.01 112.694 185.105 112.789C178.978 113.075 177.39 108.122 170.024 110.789C167.961 111.551 166.087 112.852 164.595 114.472C166.246 114.694 171.739 116.567 170.278 118.948C169.484 120.282 156.245 122.599 154.086 122.727C151.07 122.917 139.449 123.489 139.576 118.758C139.608 117.361 143.037 116.948 142.18 116.186C142.053 116.059 139.354 117.17 138.687 117.329C136.592 117.805 133.861 118.155 131.702 117.869C127.829 117.361 124.876 114.44 121.574 119.171C118.622 123.393 118.844 126.981 111.859 124.981C107.859 123.838 113.637 123.87 114.399 123.679C117.352 123.012 115.383 120.441 115.002 119.075C114.113 115.964 117.987 113.106 120.59 112.281C124.305 111.138 127.448 112.217 131.195 112.027C129.163 109.138 127.226 100.343 132.084 99.6764C136.243 99.1049 140.973 99.8987 145.037 100.788C146.085 101.01 149.958 102.407 150.308 102.407C152.054 102.407 151.546 98.6604 151.133 98.3112C150.816 98.0571 145.101 98.6921 143.799 98.5651C138.973 98.0889 137.227 96.0569 136.433 91.4532C136.116 89.6118 136.37 86.2463 135.925 84.7223C135.735 84.1191 134.655 83.3254 134.369 82.1507C134.02 80.8806 134.465 77.0707 134.274 76.8803C134.084 76.6897 129.861 77.0707 129.448 74.626C128.909 71.4511 132.655 71.4511 132.909 70.181C133.131 62.7199 132.592 55.227 132.909 47.7659C133.353 36.5583 134.655 25.6364 134.624 14.3654C134.624 13.6986 135.004 12.9684 134.909 12.3969C134.751 11.4127 131.131 7.41222 131.861 6.65031C132.973 5.53906 134.941 11.0634 135.481 11.0951C135.735 11.0951 137.513 9.66646 138.687 10.873C139.83 12.0477 139.354 19.0326 139.449 20.9693C139.926 32.5896 140.084 44.4322 139.83 56.116C139.703 61.8627 139.132 67.6411 138.878 73.3877C138.37 74.9435 134.401 75.4197 133.608 74.372C133.036 73.61 133.734 72.2765 132.782 72.4353C132.02 72.5623 130.814 73.8957 131.226 74.499C131.893 75.4832 139.449 75.4514 140.878 74.499C141.227 74.0545 138.878 72.4035 140.37 72.0861C140.878 71.9908 142.243 73.4513 142.243 73.9592C142.243 74.6895 141.45 75.1658 141.386 75.6737C141.291 76.3405 141.672 77.7692 141.577 78.7852C141.164 83.4841 138.275 85.3256 140.18 90.5007C141.513 94.1201 150.244 96.3426 152.086 92.0247C152.403 91.231 152.752 86.4686 152.594 85.6431C152.403 84.6271 150.53 84.0873 150.213 82.1824C149.99 80.7854 151.101 75.4514 150.848 75.1658C150.466 74.7213 143.164 73.7369 148.689 71.3876C151.482 70.2128 152.943 70.4669 155.705 71.3558C155.896 56.4971 155.07 41.5747 156.753 26.7794C155.991 20.112 157.959 12.2064 157.102 5.72948C156.848 3.88808 154.816 3.85632 154.245 4.96756C153.832 5.79299 153.546 7.60276 153.387 8.58698C152.117 16.1116 152.689 26.1127 152.594 33.9549C152.467 45.8609 152.879 57.7987 151.927 69.6096C151.324 69.7048 151.609 68.8159 151.578 68.403C151.101 56.0208 151.356 43.6067 151.578 31.2244C151.705 24.0807 151.07 16.1434 151.927 9.15848C152.054 8.11075 152.975 3.25306 153.705 2.84035C154.149 2.61805 154.975 2.90386 155.705 2.58629C156.499 2.23709 157.832 -0.175937 158.975 0.0146057C160.499 0.236906 157.515 2.74508 157.483 2.99901C157.42 3.31658 158.277 4.36431 158.404 5.09446C158.626 6.23746 158.594 8.23778 158.626 9.50768C158.848 20.0168 157.769 30.3671 157.42 40.8445C157.07 50.9091 158.499 60.9737 157.42 70.9748C157.377 70.9959 157.335 71.0171 157.293 71.0384ZM137.29 72.7527C137.417 65.1329 138.243 57.4813 137.64 49.8931C136.719 38.114 138.973 24.176 137.671 12.6509C137.513 11.0951 136.655 10.9682 135.925 12.3017C134.496 14.9051 135.671 22.9377 135.608 26.462C135.449 39.257 134.084 52.2109 133.861 65.0059C133.83 67.6411 133.925 70.2763 133.861 72.9115C133.957 73.5148 136.687 72.5623 137.29 72.7527ZM153.832 73.4513C153.229 73.2925 152.086 72.721 151.736 72.2447C151.419 71.8003 151.451 71.07 151.419 71.0066C151.324 70.8796 148.784 72.3083 148.657 72.5623C148.339 73.1973 149.165 73.0703 149.419 73.1656C150.721 73.6418 151.546 73.8322 152.975 73.7687C153.356 73.7687 153.927 73.991 153.832 73.4513ZM179.327 71.7368C177.708 71.5781 176.787 70.1493 176.914 72.7527L179.327 71.7368ZM173.453 74.4672C173.453 76.1288 173.453 77.7904 173.453 79.4519C173.453 79.7059 174.183 81.0394 174.469 81.1982C176.565 82.3094 178.057 75.261 176.819 74.499C176.342 74.1815 174.183 74.626 173.453 74.4672ZM157.578 83.7381C157.864 83.2619 157.166 76.0547 156.785 75.515C156.277 74.7848 152.879 75.9277 151.768 75.515C151.641 79.4837 151.705 86.0559 157.578 83.7381ZM140.053 76.2135C138.444 76.4463 136.835 76.6792 135.227 76.912C135.036 78.3725 135.481 82.2459 137.195 82.7222C139.799 83.4523 139.545 77.7692 140.053 76.2135ZM155.546 101.01C156.753 94.9775 161.992 96.5332 166.246 95.676C167.833 95.3584 172.691 93.009 173.834 91.8978C175.58 90.1515 176.819 85.2621 176.914 82.7539C175.908 84.9022 174.903 87.0507 173.898 89.1991C171.548 93.4218 164.404 95.4537 159.928 95.1362C154.753 94.7869 154.816 89.7388 155.578 85.8336C155.123 85.8336 154.668 85.8336 154.213 85.8336C153.673 88.4688 154.594 92.5962 152.276 94.406C149.546 96.5332 145.418 95.9299 142.434 94.7234C139.64 93.5804 138.529 90.9135 138.084 88.0561C137.862 86.7543 138.719 84.5636 136.687 84.8176C137.036 89.0403 137.068 95.3584 142.116 96.4379C144.879 97.0412 146.784 96.5014 149.26 96.5332C153.324 96.5649 152.276 100.534 155.546 101.01ZM176.215 103.391C175.104 93.4535 163.865 99.1049 158.658 102.185C157.515 102.851 156.435 103.137 156.594 104.788C162.912 102.026 169.548 102.375 176.215 103.391ZM163.484 98.2477C160.785 98.5334 157.705 98.9778 156.943 102.026L163.484 98.2477ZM150.371 103.074C149.768 102.407 134.243 100.724 132.306 100.978C129.321 101.391 130.75 107.995 131.734 109.836C133.893 113.868 135.608 109.614 137.354 108.09C140.751 105.074 146.085 105.106 150.403 104.439C150.34 104.09 150.498 103.232 150.371 103.074ZM155.546 102.375C152.149 101.296 152.879 103.772 153.133 106.153C153.927 106.344 153.705 105.994 153.927 105.709C154.245 105.296 155.769 102.597 155.546 102.375ZM175.517 104.09C170.373 103.645 165.548 103.486 160.563 105.137C159.695 105.476 158.827 105.815 157.959 106.153C163.674 106.312 169.357 105.614 175.009 104.756C175.612 104.661 175.58 104.947 175.517 104.09ZM150.054 105.487C145.545 106.788 140.211 107.582 137.322 111.678C138.38 111.297 139.439 110.916 140.497 110.535C143.683 108.852 146.868 107.169 150.054 105.487ZM188.947 109.963C184.47 112.027 182.248 106.788 178.787 106.502C172.945 105.994 168.056 110.408 162.627 110.662C159.388 110.789 156.912 110.09 154.53 107.9C155.927 111.741 157.832 114.98 162.436 113.233C166.373 111.741 168.532 108.439 173.675 107.931C178.882 107.423 181.327 111.709 186.978 110.916C187.391 110.852 188.852 110.471 188.947 109.963ZM166.055 107.201C163.389 107.36 160.499 107.201 157.801 107.201C155.832 107.201 157.642 108.503 158.658 108.757C161.865 109.582 165.103 108.503 167.961 107.201C167.833 106.249 166.341 107.201 166.055 107.201ZM149.355 107.201C144.847 108.344 141.227 111.868 136.624 112.884C134.624 113.329 133.925 113.011 132.21 113.71C128.718 115.138 124.273 112.852 120.177 114.694C119.098 115.17 116.304 117.456 116.368 118.663C116.368 119.171 116.876 119.837 116.939 120.472C117.193 122.758 116.145 123.171 114.907 124.727C121.003 124.473 118.272 116.726 123.86 114.916C130.337 112.821 134.846 118.726 142.688 114.122C145.291 112.598 147.228 109.328 149.355 107.201ZM151.768 107.55C150.34 106.312 146.434 112.852 145.577 113.741C147.514 113.043 149.45 112.344 151.387 111.646C151.514 110.281 151.641 108.915 151.768 107.55ZM156.245 118.567C157.737 118.79 167.262 118.155 167.262 116.662C163.897 114.249 160.531 116.948 157.166 114.726C155.165 113.392 153.864 110.566 153.483 108.249C152.086 108.947 153.483 111.551 152.752 112.662C152.467 113.106 144.085 115.011 143.926 117.71C144.307 117.996 144.688 118.282 145.069 118.567C148.223 118.684 151.377 118.8 154.53 118.917C152.329 118.536 150.128 118.155 147.927 117.774C147.069 117.361 145.958 117.456 146.276 116.154C150.974 118.409 157.039 116.726 162.119 116.504C161.843 116.853 161.568 117.202 161.293 117.551C159.621 117.89 157.949 118.229 156.245 118.567ZM169.326 118.567C169.58 118.282 169.262 117.17 168.469 117.17C168.087 117.17 166.5 118.694 165.548 119.075C162.119 120.409 150.562 120.917 146.434 120.663C144.148 120.504 141.894 120.314 141.767 117.551C139.418 118.917 141.767 120.409 143.418 120.885C148.625 122.409 156.848 121.711 162.15 120.536C163.071 120.345 169.072 118.853 169.326 118.567Z"></path></mask><path d="M157.293 71.0384C158.34 71.0384 161.42 71.5463 161.42 72.9433C161.515 74.1498 158.721 74.626 158.626 75.0705C158.467 75.769 158.975 76.912 159.007 77.7692C159.071 79.6107 159.388 83.8016 157.959 85.008C157.356 85.5161 156.308 85.4844 156.245 85.5478C156.086 85.7066 156.626 89.5483 156.753 90.0563C157.166 91.8978 158.69 93.1994 160.563 93.1677C164.373 93.0724 170.5 91.4216 172.723 88.0878C173.136 87.4846 174.66 83.7064 174.501 83.5158C174.437 83.4206 172.945 83.1984 172.405 82.3095C171.294 80.4997 172.278 76.5309 172.786 74.5307C172.056 74.5307 171.389 74.2451 170.723 73.991C169.23 73.4195 168.564 73.1338 170.215 71.7685C170.627 71.4193 171.167 71.0066 171.77 71.07C172.12 71.7685 170.246 72.4988 171.072 72.975C171.453 73.1973 173.707 73.2607 173.834 73.1338C173.929 73.0386 173.548 72.4035 173.675 72.0861C173.929 71.4193 174.914 71.705 175.072 71.4511C175.358 70.9113 175.549 67.0696 175.58 66.0854C175.866 58.4337 175.422 50.6552 175.58 42.9717C175.707 34.7168 177.2 23.4775 175.834 15.5401C175.517 13.6034 174.787 13.8574 174.31 15.5401C172.659 21.1281 173.866 29.6052 173.802 35.4471C173.675 46.7817 172.945 58.021 173.199 69.3556C172.596 69.4508 172.882 68.5618 172.85 68.1491C172.628 62.974 172.659 57.7987 172.532 52.6236C172.247 42.1462 171.516 31.1291 172.183 20.6201C172.31 18.8103 172.818 13.1272 174.85 12.5875C175.358 12.4604 175.834 12.8096 176.342 12.6826C177.771 12.3334 179.867 9.72998 181.835 10.1427C182.057 11.0951 181.549 10.7142 181.137 10.9999C180.438 11.4762 177.136 13.0955 177.041 13.4447C177.993 15.9528 178.279 18.6515 178.374 21.3185C178.755 30.1449 177.835 39.0347 177.676 47.8294C177.517 55.1635 178.057 62.5611 177.327 69.8636C177.39 70.181 181.549 70.4351 181.422 71.8955C181.264 73.5465 178.819 73.7053 178.724 73.864C178.501 74.1498 179.359 75.1658 179.359 75.7373C179.486 78.5312 177.835 80.4679 177.39 82.4046C177.231 83.1031 177.708 83.6746 177.612 84.3096C177.2 86.9766 175.993 91.104 174.12 93.0408C172.554 94.1096 170.987 95.1785 169.421 96.2475C174.12 95.549 177.454 97.835 177.612 102.724C177.612 103.709 176.787 104.756 177.327 105.042C177.866 105.36 179.422 105.201 180.533 105.645C183.486 106.82 183.867 109.9 188.121 108.916C188.915 108.725 191.614 106.185 191.455 108.788C191.328 110.947 187.01 112.694 185.105 112.789C178.978 113.075 177.39 108.122 170.024 110.789C167.961 111.551 166.087 112.852 164.595 114.472C166.246 114.694 171.739 116.567 170.278 118.948C169.484 120.282 156.245 122.599 154.086 122.727C151.07 122.917 139.449 123.489 139.576 118.758C139.608 117.361 143.037 116.948 142.18 116.186C142.053 116.059 139.354 117.17 138.687 117.329C136.592 117.805 133.861 118.155 131.702 117.869C127.829 117.361 124.876 114.44 121.574 119.171C118.622 123.393 118.844 126.981 111.859 124.981C107.859 123.838 113.637 123.87 114.399 123.679C117.352 123.012 115.383 120.441 115.002 119.075C114.113 115.964 117.987 113.106 120.59 112.281C124.305 111.138 127.448 112.217 131.195 112.027C129.163 109.138 127.226 100.343 132.084 99.6764C136.243 99.1049 140.973 99.8987 145.037 100.788C146.085 101.01 149.958 102.407 150.308 102.407C152.054 102.407 151.546 98.6604 151.133 98.3112C150.816 98.0571 145.101 98.6921 143.799 98.5651C138.973 98.0889 137.227 96.0569 136.433 91.4532C136.116 89.6118 136.37 86.2463 135.925 84.7223C135.735 84.1191 134.655 83.3254 134.369 82.1507C134.02 80.8806 134.465 77.0707 134.274 76.8803C134.084 76.6897 129.861 77.0707 129.448 74.626C128.909 71.4511 132.655 71.4511 132.909 70.181C133.131 62.7199 132.592 55.227 132.909 47.7659C133.353 36.5583 134.655 25.6364 134.624 14.3654C134.624 13.6986 135.004 12.9684 134.909 12.3969C134.751 11.4127 131.131 7.41222 131.861 6.65031C132.973 5.53906 134.941 11.0634 135.481 11.0951C135.735 11.0951 137.513 9.66646 138.687 10.873C139.83 12.0477 139.354 19.0326 139.449 20.9693C139.926 32.5896 140.084 44.4322 139.83 56.116C139.703 61.8627 139.132 67.6411 138.878 73.3877C138.37 74.9435 134.401 75.4197 133.608 74.372C133.036 73.61 133.734 72.2765 132.782 72.4353C132.02 72.5623 130.814 73.8957 131.226 74.499C131.893 75.4832 139.449 75.4514 140.878 74.499C141.227 74.0545 138.878 72.4035 140.37 72.0861C140.878 71.9908 142.243 73.4513 142.243 73.9592C142.243 74.6895 141.45 75.1658 141.386 75.6737C141.291 76.3405 141.672 77.7692 141.577 78.7852C141.164 83.4841 138.275 85.3256 140.18 90.5007C141.513 94.1201 150.244 96.3426 152.086 92.0247C152.403 91.231 152.752 86.4686 152.594 85.6431C152.403 84.6271 150.53 84.0873 150.213 82.1824C149.99 80.7854 151.101 75.4514 150.848 75.1658C150.466 74.7213 143.164 73.7369 148.689 71.3876C151.482 70.2128 152.943 70.4669 155.705 71.3558C155.896 56.4971 155.07 41.5747 156.753 26.7794C155.991 20.112 157.959 12.2064 157.102 5.72948C156.848 3.88808 154.816 3.85632 154.245 4.96756C153.832 5.79299 153.546 7.60276 153.387 8.58698C152.117 16.1116 152.689 26.1127 152.594 33.9549C152.467 45.8609 152.879 57.7987 151.927 69.6096C151.324 69.7048 151.609 68.8159 151.578 68.403C151.101 56.0208 151.356 43.6067 151.578 31.2244C151.705 24.0807 151.07 16.1434 151.927 9.15848C152.054 8.11075 152.975 3.25306 153.705 2.84035C154.149 2.61805 154.975 2.90386 155.705 2.58629C156.499 2.23709 157.832 -0.175937 158.975 0.0146057C160.499 0.236906 157.515 2.74508 157.483 2.99901C157.42 3.31658 158.277 4.36431 158.404 5.09446C158.626 6.23746 158.594 8.23778 158.626 9.50768C158.848 20.0168 157.769 30.3671 157.42 40.8445C157.07 50.9091 158.499 60.9737 157.42 70.9748C157.377 70.9959 157.335 71.0171 157.293 71.0384ZM137.29 72.7527C137.417 65.1329 138.243 57.4813 137.64 49.8931C136.719 38.114 138.973 24.176 137.671 12.6509C137.513 11.0951 136.655 10.9682 135.925 12.3017C134.496 14.9051 135.671 22.9377 135.608 26.462C135.449 39.257 134.084 52.2109 133.861 65.0059C133.83 67.6411 133.925 70.2763 133.861 72.9115C133.957 73.5148 136.687 72.5623 137.29 72.7527ZM153.832 73.4513C153.229 73.2925 152.086 72.721 151.736 72.2447C151.419 71.8003 151.451 71.07 151.419 71.0066C151.324 70.8796 148.784 72.3083 148.657 72.5623C148.339 73.1973 149.165 73.0703 149.419 73.1656C150.721 73.6418 151.546 73.8322 152.975 73.7687C153.356 73.7687 153.927 73.991 153.832 73.4513ZM179.327 71.7368C177.708 71.5781 176.787 70.1493 176.914 72.7527L179.327 71.7368ZM173.453 74.4672C173.453 76.1288 173.453 77.7904 173.453 79.4519C173.453 79.7059 174.183 81.0394 174.469 81.1982C176.565 82.3094 178.057 75.261 176.819 74.499C176.342 74.1815 174.183 74.626 173.453 74.4672ZM157.578 83.7381C157.864 83.2619 157.166 76.0547 156.785 75.515C156.277 74.7848 152.879 75.9277 151.768 75.515C151.641 79.4837 151.705 86.0559 157.578 83.7381ZM140.053 76.2135C138.444 76.4463 136.835 76.6792 135.227 76.912C135.036 78.3725 135.481 82.2459 137.195 82.7222C139.799 83.4523 139.545 77.7692 140.053 76.2135ZM155.546 101.01C156.753 94.9775 161.992 96.5332 166.246 95.676C167.833 95.3584 172.691 93.009 173.834 91.8978C175.58 90.1515 176.819 85.2621 176.914 82.7539C175.908 84.9022 174.903 87.0507 173.898 89.1991C171.548 93.4218 164.404 95.4537 159.928 95.1362C154.753 94.7869 154.816 89.7388 155.578 85.8336C155.123 85.8336 154.668 85.8336 154.213 85.8336C153.673 88.4688 154.594 92.5962 152.276 94.406C149.546 96.5332 145.418 95.9299 142.434 94.7234C139.64 93.5804 138.529 90.9135 138.084 88.0561C137.862 86.7543 138.719 84.5636 136.687 84.8176C137.036 89.0403 137.068 95.3584 142.116 96.4379C144.879 97.0412 146.784 96.5014 149.26 96.5332C153.324 96.5649 152.276 100.534 155.546 101.01ZM176.215 103.391C175.104 93.4535 163.865 99.1049 158.658 102.185C157.515 102.851 156.435 103.137 156.594 104.788C162.912 102.026 169.548 102.375 176.215 103.391ZM163.484 98.2477C160.785 98.5334 157.705 98.9778 156.943 102.026L163.484 98.2477ZM150.371 103.074C149.768 102.407 134.243 100.724 132.306 100.978C129.321 101.391 130.75 107.995 131.734 109.836C133.893 113.868 135.608 109.614 137.354 108.09C140.751 105.074 146.085 105.106 150.403 104.439C150.34 104.09 150.498 103.232 150.371 103.074ZM155.546 102.375C152.149 101.296 152.879 103.772 153.133 106.153C153.927 106.344 153.705 105.994 153.927 105.709C154.245 105.296 155.769 102.597 155.546 102.375ZM175.517 104.09C170.373 103.645 165.548 103.486 160.563 105.137C159.695 105.476 158.827 105.815 157.959 106.153C163.674 106.312 169.357 105.614 175.009 104.756C175.612 104.661 175.58 104.947 175.517 104.09ZM150.054 105.487C145.545 106.788 140.211 107.582 137.322 111.678C138.38 111.297 139.439 110.916 140.497 110.535C143.683 108.852 146.868 107.169 150.054 105.487ZM188.947 109.963C184.47 112.027 182.248 106.788 178.787 106.502C172.945 105.994 168.056 110.408 162.627 110.662C159.388 110.789 156.912 110.09 154.53 107.9C155.927 111.741 157.832 114.98 162.436 113.233C166.373 111.741 168.532 108.439 173.675 107.931C178.882 107.423 181.327 111.709 186.978 110.916C187.391 110.852 188.852 110.471 188.947 109.963ZM166.055 107.201C163.389 107.36 160.499 107.201 157.801 107.201C155.832 107.201 157.642 108.503 158.658 108.757C161.865 109.582 165.103 108.503 167.961 107.201C167.833 106.249 166.341 107.201 166.055 107.201ZM149.355 107.201C144.847 108.344 141.227 111.868 136.624 112.884C134.624 113.329 133.925 113.011 132.21 113.71C128.718 115.138 124.273 112.852 120.177 114.694C119.098 115.17 116.304 117.456 116.368 118.663C116.368 119.171 116.876 119.837 116.939 120.472C117.193 122.758 116.145 123.171 114.907 124.727C121.003 124.473 118.272 116.726 123.86 114.916C130.337 112.821 134.846 118.726 142.688 114.122C145.291 112.598 147.228 109.328 149.355 107.201ZM151.768 107.55C150.34 106.312 146.434 112.852 145.577 113.741C147.514 113.043 149.45 112.344 151.387 111.646C151.514 110.281 151.641 108.915 151.768 107.55ZM156.245 118.567C157.737 118.79 167.262 118.155 167.262 116.662C163.897 114.249 160.531 116.948 157.166 114.726C155.165 113.392 153.864 110.566 153.483 108.249C152.086 108.947 153.483 111.551 152.752 112.662C152.467 113.106 144.085 115.011 143.926 117.71C144.307 117.996 144.688 118.282 145.069 118.567C148.223 118.684 151.377 118.8 154.53 118.917C152.329 118.536 150.128 118.155 147.927 117.774C147.069 117.361 145.958 117.456 146.276 116.154C150.974 118.409 157.039 116.726 162.119 116.504C161.843 116.853 161.568 117.202 161.293 117.551C159.621 117.89 157.949 118.229 156.245 118.567ZM169.326 118.567C169.58 118.282 169.262 117.17 168.469 117.17C168.087 117.17 166.5 118.694 165.548 119.075C162.119 120.409 150.562 120.917 146.434 120.663C144.148 120.504 141.894 120.314 141.767 117.551C139.418 118.917 141.767 120.409 143.418 120.885C148.625 122.409 156.848 121.711 162.15 120.536C163.071 120.345 169.072 118.853 169.326 118.567Z" fill="#112250" stroke="#F5F0E0" stroke-width="0.6" mask="url(#path-3-inside-1_5466_48)"></path></svg> 