<?xml version="1.0" encoding="UTF-8"?> <svg xmlns="http://www.w3.org/2000/svg" width="261" height="103" viewBox="0 0 261 103" fill="none"><path d="M25.5904 20.186C26.9078 20.186 28.1998 20.262 29.4664 20.414C30.7331 20.566 31.9238 20.8193 33.0384 21.174C36.1291 18.3366 39.3971 15.778 42.8425 13.498C46.2878 11.1673 49.8091 9.19131 53.4065 7.56998C57.0038 5.89798 60.6518 4.63131 64.3505 3.76998C68.0998 2.85798 71.7985 2.40198 75.4465 2.40198C78.4358 2.40198 81.0451 2.60465 83.2744 3.00998C85.5545 3.41531 87.6825 3.92198 89.6585 4.52998C91.6851 5.13798 93.7118 5.82198 95.7384 6.58198C97.7651 7.29132 100.045 7.94998 102.578 8.55798C105.112 6.27798 107.772 4.40331 110.558 2.93398C113.396 1.41398 116.436 0.653984 119.678 0.653984C120.692 0.653984 121.654 0.729983 122.566 0.881981C123.529 1.03398 124.365 1.28732 125.074 1.64198C125.784 1.99665 126.341 2.47798 126.746 3.08598C127.152 3.64332 127.354 4.32732 127.354 5.13798C127.354 6.45531 126.873 7.54465 125.91 8.40598C124.998 9.26731 123.808 9.97665 122.338 10.534C120.92 11.0406 119.324 11.3953 117.55 11.598C115.777 11.8007 114.054 11.902 112.382 11.902C111.014 11.902 109.672 11.8513 108.354 11.75C107.037 11.6486 105.72 11.4966 104.402 11.294C102.68 13.2193 100.957 15.322 99.2344 17.602C97.5624 19.8313 95.9411 22.1366 94.3704 24.518C92.7998 26.8486 91.3304 29.2046 89.9625 31.586C88.5945 33.9167 87.4038 36.1713 86.3904 38.35C85.4278 40.478 84.6425 42.4793 84.0345 44.354C83.4771 46.178 83.1985 47.7487 83.1985 49.066C83.1985 51.3967 84.2118 52.562 86.2384 52.562C87.5051 52.562 88.7211 52.334 89.8864 51.878C91.1024 51.422 92.3185 50.738 93.5345 49.826C94.7505 48.914 95.9918 47.774 97.2584 46.406C98.5758 45.038 99.9691 43.442 101.438 41.618L101.894 42.074C100.729 43.594 99.4878 45.0887 98.1705 46.558C96.9038 48.0273 95.5358 49.3193 94.0665 50.434C92.6478 51.5487 91.1531 52.4353 89.5825 53.094C88.0118 53.8033 86.4158 54.158 84.7945 54.158C83.2744 54.158 81.9064 53.6767 80.6905 52.714C79.5251 51.7513 78.9425 50.1553 78.9425 47.926C78.9425 46.4567 79.2718 44.6833 79.9305 42.606C80.5891 40.5287 81.5011 38.2993 82.6665 35.918C83.8825 33.486 85.2758 30.978 86.8465 28.394C88.4678 25.81 90.2158 23.2513 92.0905 20.718C93.3571 19.046 94.6745 17.3486 96.0425 15.626C97.4611 13.9033 98.9305 12.2313 100.45 10.61C98.1705 10.154 96.1185 9.69798 94.2945 9.24198C92.5211 8.73532 90.7224 8.27932 88.8984 7.87398C87.1251 7.46865 85.2251 7.13931 83.1985 6.88598C81.2225 6.58198 78.8665 6.42998 76.1305 6.42998C68.6318 6.42998 61.3864 7.82332 54.3945 10.61C47.4025 13.346 40.9425 17.0953 35.0144 21.858C37.2944 22.77 39.0678 24.0366 40.3344 25.658C41.6518 27.2793 42.3104 29.2553 42.3104 31.586C42.3104 33.5113 41.8798 35.2593 41.0184 36.83C40.1571 38.4007 38.9918 39.7687 37.5224 40.934C36.1038 42.0487 34.4571 42.9353 32.5824 43.594C30.7584 44.202 28.8838 44.506 26.9584 44.506C25.7931 44.506 24.7291 44.4047 23.7664 44.202L23.9944 43.518C24.9064 43.67 25.8438 43.746 26.8064 43.746C28.5798 43.746 30.3024 43.4673 31.9744 42.91C33.6464 42.302 35.1158 41.4913 36.3824 40.478C37.6998 39.4647 38.7384 38.274 39.4984 36.906C40.3091 35.4873 40.7145 33.9673 40.7145 32.346C40.7145 30.0153 40.1065 28.0393 38.8904 26.418C37.7251 24.7966 36.1291 23.53 34.1024 22.618C28.9344 26.9246 24.4251 31.7886 20.5744 37.21C16.7238 42.6313 13.7598 48.382 11.6824 54.462C13.4051 55.1713 15.2291 55.678 17.1544 55.982C19.1304 56.3367 21.1064 56.514 23.0824 56.514C26.1731 56.514 29.1624 56.0833 32.0504 55.222C34.9891 54.4113 37.7504 53.2713 40.3344 51.802C42.9184 50.3327 45.2744 48.5847 47.4025 46.558C49.5305 44.4807 51.3798 42.2513 52.9504 39.87C55.1798 36.4247 57.3078 33.03 59.3345 29.686C61.3611 26.342 63.5904 23.2513 66.0225 20.414C68.4545 17.5767 71.1904 15.1446 74.2304 13.118C77.3211 11.0406 80.9944 9.57132 85.2504 8.70998L85.4024 9.54598C82.8184 9.95132 80.5131 10.7873 78.4864 12.054C76.4598 13.3207 74.6105 14.8407 72.9384 16.614C71.3171 18.3873 69.7971 20.3633 68.3784 22.542C66.9598 24.7207 65.5664 26.95 64.1985 29.23C62.8811 31.51 61.5131 33.79 60.0945 36.07C58.7264 38.35 57.2318 40.4526 55.6104 42.378C53.9891 44.3033 52.0384 46.178 49.7584 48.002C47.4784 49.826 44.9451 51.422 42.1585 52.79C39.3718 54.2087 36.3571 55.3233 33.1144 56.134C29.9224 56.9953 26.5784 57.426 23.0824 57.426C21.1571 57.426 19.1811 57.274 17.1544 56.97C15.1278 56.666 13.2024 56.1593 11.3784 55.45C9.55445 61.0233 8.64245 66.698 8.64245 72.474C8.64245 76.274 9.25045 79.8967 10.4664 83.342C11.7331 86.838 13.6078 89.9033 16.0904 92.538C18.5731 95.2233 21.6891 97.3513 25.4384 98.922C29.2384 100.493 33.6971 101.278 38.8144 101.278C42.9184 101.278 46.9971 100.569 51.0504 99.15C55.1038 97.7313 58.7518 95.73 61.9944 93.146C65.2371 90.562 67.8465 87.4713 69.8225 83.874C71.8491 80.2767 72.8624 76.274 72.8624 71.866C72.8624 69.9407 72.5078 68.066 71.7984 66.242C71.1398 64.4687 70.1518 62.898 68.8345 61.53C67.5171 60.162 65.8451 59.0727 63.8184 58.262C61.7918 57.4513 59.4611 57.046 56.8264 57.046C52.9251 57.046 49.5051 57.6287 46.5664 58.794C43.6784 59.9593 41.2718 61.4793 39.3465 63.354C37.4211 65.2793 35.9771 67.4327 35.0144 69.814C34.0518 72.1953 33.5704 74.602 33.5704 77.034C33.5704 78.402 33.7984 79.6433 34.2544 80.758C34.7104 81.8727 35.3184 82.81 36.0784 83.57C36.8891 84.3807 37.8011 84.9887 38.8144 85.394C39.8278 85.7993 40.8918 86.002 42.0064 86.002C44.1851 86.002 46.0851 85.6727 47.7064 85.014C49.3784 84.3553 50.7971 83.5193 51.9625 82.506C53.1785 81.5433 54.1664 80.454 54.9264 79.238C55.6864 78.022 56.2691 76.8567 56.6744 75.742L57.2825 75.97C56.9278 77.3887 56.2944 78.7567 55.3824 80.074C54.4704 81.3913 53.3558 82.5567 52.0385 83.57C50.7211 84.5833 49.2264 85.394 47.5544 86.002C45.8824 86.61 44.1091 86.914 42.2344 86.914C40.9171 86.914 39.5998 86.7113 38.2824 86.306C37.0158 85.9513 35.8504 85.3687 34.7864 84.558C33.7731 83.7473 32.9371 82.7087 32.2784 81.442C31.6198 80.1753 31.2904 78.6553 31.2904 76.882C31.2904 73.7407 31.9744 70.878 33.3424 68.294C34.7611 65.7607 36.6358 63.582 38.9664 61.758C41.2971 59.934 43.9825 58.5153 47.0225 57.502C50.0625 56.5393 53.2545 56.058 56.5985 56.058C59.2838 56.058 61.6904 56.438 63.8184 57.198C65.9971 58.0087 67.8211 59.098 69.2904 60.466C70.8105 61.834 71.9505 63.4553 72.7105 65.33C73.5211 67.2047 73.9264 69.2313 73.9264 71.41C73.9264 76.0713 72.9384 80.302 70.9625 84.102C68.9864 87.902 66.3518 91.1447 63.0584 93.83C59.8158 96.5153 56.0918 98.5927 51.8864 100.062C47.6811 101.582 43.3491 102.342 38.8904 102.342C33.6211 102.342 29.0104 101.506 25.0584 99.834C21.1571 98.2127 17.8891 96.0087 15.2544 93.222C12.6704 90.486 10.7198 87.3193 9.40245 83.722C8.13578 80.1247 7.50245 76.35 7.50245 72.398C7.50245 66.622 8.46511 60.846 10.3904 55.07C7.65445 53.9047 5.39978 52.2073 3.62645 49.978C1.85311 47.698 0.966447 44.734 0.966447 41.086C0.966447 38.0967 1.65045 35.3353 3.01845 32.802C4.43711 30.218 6.28645 28.014 8.56645 26.19C10.8464 24.3153 13.4558 22.846 16.3944 21.782C19.3838 20.718 22.4491 20.186 25.5904 20.186ZM10.6944 54.082C12.7718 48.1033 15.6598 42.378 19.3584 36.906C23.0571 31.434 27.3384 26.4433 32.2024 21.934C30.2264 21.326 28.0224 21.022 25.5904 21.022C22.3478 21.022 19.3584 21.63 16.6224 22.846C13.8864 24.0113 11.5304 25.5567 9.55445 27.482C7.57845 29.4073 6.03311 31.586 4.91845 34.018C3.80378 36.45 3.24645 38.9327 3.24645 41.466C3.24645 44.7593 3.93045 47.4193 5.29845 49.446C6.71711 51.422 8.51578 52.9673 10.6944 54.082ZM109.494 6.04998C108.38 7.06331 107.29 8.15265 106.226 9.31798C107.746 9.62198 109.292 9.87532 110.862 10.078C112.433 10.23 114.029 10.306 115.65 10.306C116.866 10.306 118.032 10.2046 119.146 10.002C120.312 9.79931 121.35 9.49532 122.262 9.08998C123.174 8.63398 123.909 8.10198 124.466 7.49398C125.024 6.83531 125.302 6.07532 125.302 5.21398C125.302 3.94732 124.72 3.00998 123.554 2.40198C122.389 1.79398 121.072 1.48998 119.602 1.48998C118.234 1.48998 116.664 1.81932 114.89 2.47798C113.117 3.13665 111.318 4.32732 109.494 6.04998ZM73.9264 28.622C74.7371 26.95 75.6491 25.2526 76.6625 23.53C77.7264 21.7566 78.9171 20.0846 80.2344 18.514C81.5518 16.8926 82.9958 15.4233 84.5665 14.106C86.1878 12.738 87.9358 11.6486 89.8105 10.838L90.3425 11.066C88.4171 12.0286 86.7198 13.3966 85.2504 15.17C83.8318 16.9433 82.5145 18.9193 81.2985 21.098C80.0825 23.2766 78.9424 25.5566 77.8784 27.938C76.8651 30.2687 75.8265 32.498 74.7625 34.626C73.9518 36.298 73.0145 38.0207 71.9505 39.794C70.9371 41.5167 69.7718 43.1887 68.4545 44.81C67.1371 46.3807 65.6678 47.85 64.0464 49.218C62.4758 50.5353 60.7531 51.5993 58.8784 52.41L58.3465 52.182C60.3224 51.0673 62.0451 49.598 63.5145 47.774C65.0345 45.95 66.3771 43.974 67.5424 41.846C68.7584 39.718 69.8731 37.514 70.8865 35.234C71.8998 32.954 72.9131 30.75 73.9264 28.622ZM116.602 37.97C115.488 37.97 114.348 38.426 113.182 39.338C112.017 40.25 110.928 41.3393 109.914 42.606C108.952 43.822 108.141 45.114 107.482 46.482C106.874 47.85 106.57 48.99 106.57 49.902C106.57 50.2567 106.646 50.662 106.798 51.118C106.95 51.5233 107.432 51.726 108.242 51.726C108.901 51.726 109.585 51.498 110.294 51.042C111.054 50.586 111.814 50.0033 112.574 49.294C113.334 48.5847 114.044 47.7993 114.702 46.938C115.412 46.0767 116.07 45.2153 116.678 44.354C117.236 43.5433 117.717 42.7327 118.122 41.922C118.578 41.1113 118.806 40.4273 118.806 39.87C118.806 39.1607 118.578 38.6793 118.122 38.426C117.666 38.122 117.16 37.97 116.602 37.97ZM120.858 38.73C121.162 38.3247 121.466 37.9953 121.77 37.742C122.074 37.4887 122.53 37.362 123.138 37.362H124.582C124.988 37.362 125.19 37.514 125.19 37.818C125.19 37.8687 125.165 37.9447 125.114 38.046C125.114 38.0967 125.064 38.2233 124.962 38.426C124.506 39.1353 123.873 40.0473 123.062 41.162C122.252 42.2767 121.466 43.442 120.706 44.658C119.946 45.8233 119.262 46.938 118.654 48.002C118.097 49.0153 117.818 49.8007 117.818 50.358C117.818 50.966 118.097 51.27 118.654 51.27C119.972 51.27 121.238 50.7127 122.454 49.598C123.67 48.4327 125.317 46.634 127.394 44.202L127.926 44.582C127.116 45.5447 126.305 46.5073 125.494 47.47C124.734 48.4327 123.924 49.294 123.062 50.054C122.201 50.814 121.289 51.4473 120.326 51.954C119.364 52.41 118.274 52.638 117.058 52.638C116.197 52.638 115.462 52.486 114.854 52.182C114.246 51.8273 113.942 51.2447 113.942 50.434C113.942 50.1807 113.993 49.8767 114.094 49.522C114.246 49.1167 114.474 48.686 114.778 48.23V48.154C113.461 49.6233 112.169 50.7633 110.902 51.574C109.686 52.334 108.318 52.714 106.798 52.714C105.278 52.714 104.24 52.3847 103.682 51.726C103.176 51.0673 102.922 50.3327 102.922 49.522C102.922 48.154 103.302 46.7353 104.062 45.266C104.873 43.7967 105.912 42.454 107.178 41.238C108.445 40.022 109.864 39.034 111.434 38.274C113.005 37.514 114.576 37.134 116.146 37.134C117.413 37.134 118.376 37.362 119.034 37.818C119.693 38.2233 120.174 38.7047 120.478 39.262L120.858 38.73ZM143.035 24.366C142.985 24.6193 142.934 24.8727 142.883 25.126C142.883 25.3287 142.883 25.5567 142.883 25.81C142.883 26.6713 143.137 27.4566 143.643 28.166C144.15 28.8247 145.113 29.154 146.531 29.154C148.001 29.154 149.394 28.698 150.711 27.786C152.079 26.8233 153.169 25.8353 153.979 24.822L154.587 25.05C154.03 25.962 153.397 26.8233 152.687 27.634C152.029 28.4446 151.294 29.154 150.483 29.762C149.723 30.37 148.913 30.8766 148.051 31.282C147.241 31.6367 146.405 31.814 145.543 31.814C144.226 31.814 143.238 31.4087 142.579 30.598C141.921 29.7367 141.591 28.7233 141.591 27.558C141.591 26.4433 141.87 25.3286 142.427 24.214L143.035 24.366ZM144.631 52.638C143.77 52.638 143.035 52.4607 142.427 52.106C141.819 51.7007 141.515 51.0927 141.515 50.282C141.515 49.218 141.87 48.078 142.579 46.862C143.339 45.646 144.049 44.6073 144.707 43.746L144.631 43.67C143.618 44.7847 142.529 45.874 141.363 46.938C140.198 48.002 139.033 48.9647 137.867 49.826C136.753 50.6367 135.663 51.2953 134.599 51.802C133.586 52.3087 132.725 52.562 132.015 52.562C130.343 52.562 129.507 51.9033 129.507 50.586C129.507 49.8767 129.71 49.1927 130.115 48.534C130.521 47.8753 131.027 47.1153 131.635 46.254C132.091 45.5953 132.573 44.9367 133.079 44.278C133.586 43.6193 134.042 42.986 134.447 42.378C134.903 41.7193 135.258 41.1367 135.511 40.63C135.765 40.0727 135.891 39.5913 135.891 39.186C135.891 38.6287 135.613 38.35 135.055 38.35C134.599 38.35 134.042 38.5526 133.383 38.958C132.775 39.3126 132.091 39.8193 131.331 40.478C130.622 41.1367 129.862 41.8713 129.051 42.682C128.291 43.4927 127.557 44.3033 126.847 45.114L126.391 44.81C127.303 43.7967 128.19 42.834 129.051 41.922C129.963 40.9593 130.85 40.1233 131.711 39.414C132.573 38.654 133.409 38.0713 134.219 37.666C135.081 37.21 135.891 36.982 136.651 36.982C137.665 36.982 138.399 37.1847 138.855 37.59C139.362 37.9953 139.615 38.5527 139.615 39.262C139.615 40.2247 139.261 41.2887 138.551 42.454C137.893 43.6193 137.158 44.734 136.347 45.798C135.587 46.862 134.853 47.85 134.143 48.762C133.485 49.6233 133.155 50.282 133.155 50.738C133.155 51.042 133.307 51.194 133.611 51.194C134.473 51.194 135.613 50.6873 137.031 49.674C138.45 48.6607 139.894 47.47 141.363 46.102C142.833 44.734 144.201 43.366 145.467 41.998C146.734 40.5793 147.671 39.4647 148.279 38.654C148.583 38.2487 148.887 37.9447 149.191 37.742C149.546 37.4887 150.053 37.362 150.711 37.362H151.927C152.333 37.362 152.535 37.514 152.535 37.818C152.535 37.8687 152.51 37.9447 152.459 38.046C152.459 38.0967 152.409 38.2233 152.307 38.426C151.699 39.338 150.99 40.3767 150.179 41.542C149.369 42.7073 148.583 43.8727 147.823 45.038C147.114 46.1527 146.506 47.2167 145.999 48.23C145.493 49.1927 145.239 49.9273 145.239 50.434C145.239 50.9913 145.569 51.27 146.227 51.27C147.545 51.27 148.811 50.7127 150.027 49.598C151.243 48.4327 152.89 46.634 154.967 44.202L155.499 44.582C154.689 45.5447 153.878 46.5073 153.067 47.47C152.307 48.4327 151.497 49.294 150.635 50.054C149.774 50.814 148.862 51.4473 147.899 51.954C146.937 52.41 145.847 52.638 144.631 52.638ZM177.626 52.638C176.765 52.638 176.03 52.4607 175.422 52.106C174.865 51.7007 174.586 51.0927 174.586 50.282C174.586 49.522 174.814 48.6353 175.27 47.622C175.777 46.558 176.359 45.5193 177.018 44.506C177.677 43.442 178.335 42.4793 178.994 41.618C179.653 40.706 180.185 40.022 180.59 39.566L180.514 39.49C179.805 39.7433 179.045 40.402 178.234 41.466C177.474 42.53 176.638 43.6447 175.726 44.81C175.017 45.722 174.333 46.634 173.674 47.546C173.066 48.4073 172.407 49.1927 171.698 49.902C170.989 50.6113 170.229 51.194 169.418 51.65C168.658 52.106 167.822 52.334 166.91 52.334C165.238 52.334 164.402 51.6753 164.402 50.358C164.402 49.8007 164.681 49.0153 165.238 48.002C165.795 46.938 166.454 45.8487 167.214 44.734C168.025 43.5687 168.835 42.454 169.646 41.39C170.507 40.326 171.191 39.49 171.698 38.882L171.622 38.806C171.065 38.9073 170.381 39.3633 169.57 40.174C168.81 40.934 167.974 41.8207 167.062 42.834C166.15 43.8473 165.213 44.9113 164.25 46.026C163.338 47.1407 162.426 48.1033 161.514 48.914C159.893 50.3833 158.499 51.422 157.334 52.03C156.219 52.5873 155.079 52.866 153.914 52.866C152.901 52.866 152.115 52.638 151.558 52.182C151.001 51.6753 150.722 50.966 150.722 50.054C150.722 48.99 151.026 47.9767 151.634 47.014C152.191 46.0007 152.875 45.266 153.686 44.81C154.497 44.3033 155.333 44.126 156.194 44.278C157.106 44.3793 157.613 45.0633 157.714 46.33C157.765 46.786 157.537 47.2927 157.03 47.85C156.523 48.4073 156.042 48.686 155.586 48.686C155.079 48.686 154.725 48.5087 154.522 48.154C154.37 47.7487 154.091 47.5207 153.686 47.47C153.433 47.47 153.027 47.698 152.47 48.154C151.963 48.61 151.71 49.2687 151.71 50.13C151.71 50.586 151.887 51.0673 152.242 51.574C152.597 52.03 153.129 52.258 153.838 52.258C154.345 52.258 154.826 52.2073 155.282 52.106C155.789 51.954 156.321 51.726 156.878 51.422C157.435 51.118 158.069 50.7127 158.778 50.206C159.487 49.6487 160.298 48.9393 161.21 48.078C162.477 46.9633 163.617 45.7727 164.63 44.506C165.643 43.1887 166.631 41.9727 167.594 40.858C168.607 39.7433 169.621 38.8313 170.634 38.122C171.698 37.362 172.889 36.982 174.206 36.982C175.067 36.982 175.498 37.286 175.498 37.894C175.498 38.2487 175.295 38.7806 174.89 39.49C174.535 40.1993 174.079 40.9847 173.522 41.846C172.965 42.7073 172.331 43.594 171.622 44.506C170.963 45.418 170.355 46.2793 169.798 47.09C169.241 47.9007 168.759 48.61 168.354 49.218C167.999 49.826 167.822 50.2567 167.822 50.51C167.822 50.814 167.974 50.966 168.278 50.966C169.241 50.966 170.229 50.4087 171.242 49.294C172.255 48.1287 173.699 46.2793 175.574 43.746C176.182 42.9353 176.79 42.1247 177.398 41.314C178.006 40.5033 178.639 39.794 179.298 39.186C179.957 38.5273 180.666 37.9953 181.426 37.59C182.186 37.1847 183.047 36.982 184.01 36.982C184.871 36.982 185.302 37.286 185.302 37.894C185.302 38.4513 184.922 39.2873 184.162 40.402C183.453 41.5167 182.642 42.7073 181.73 43.974C180.818 45.19 179.982 46.406 179.222 47.622C178.513 48.7873 178.158 49.7247 178.158 50.434C178.158 50.9913 178.487 51.27 179.146 51.27C180.463 51.27 181.73 50.7127 182.946 49.598C184.162 48.4327 185.809 46.634 187.886 44.202L188.418 44.582C187.607 45.5447 186.797 46.5073 185.986 47.47C185.226 48.4327 184.415 49.294 183.554 50.054C182.693 50.814 181.781 51.4473 180.818 51.954C179.855 52.41 178.766 52.638 177.55 52.638H177.626ZM205.639 52.638C204.778 52.638 204.043 52.4607 203.435 52.106C202.827 51.7007 202.523 51.0927 202.523 50.282C202.523 49.218 202.878 48.078 203.587 46.862C204.347 45.646 205.057 44.6073 205.715 43.746L205.639 43.67C204.626 44.7847 203.537 45.874 202.371 46.938C201.206 48.002 200.041 48.9647 198.875 49.826C197.761 50.6367 196.671 51.2953 195.607 51.802C194.594 52.3087 193.733 52.562 193.023 52.562C191.351 52.562 190.515 51.9033 190.515 50.586C190.515 49.8767 190.718 49.1927 191.123 48.534C191.529 47.8753 192.035 47.1153 192.643 46.254C193.099 45.5953 193.581 44.9367 194.087 44.278C194.594 43.6193 195.05 42.986 195.455 42.378C195.911 41.7193 196.266 41.1367 196.519 40.63C196.773 40.0727 196.899 39.5913 196.899 39.186C196.899 38.6287 196.621 38.35 196.063 38.35C195.607 38.35 195.05 38.5526 194.391 38.958C193.783 39.3126 193.099 39.8193 192.339 40.478C191.63 41.1367 190.87 41.8713 190.059 42.682C189.299 43.4927 188.565 44.3033 187.855 45.114L187.399 44.81C188.311 43.7967 189.198 42.834 190.059 41.922C190.971 40.9593 191.858 40.1233 192.719 39.414C193.581 38.654 194.417 38.0713 195.227 37.666C196.089 37.21 196.899 36.982 197.659 36.982C198.673 36.982 199.407 37.1847 199.863 37.59C200.37 37.9953 200.623 38.5527 200.623 39.262C200.623 40.2247 200.269 41.2887 199.559 42.454C198.901 43.6193 198.166 44.734 197.355 45.798C196.595 46.862 195.861 47.85 195.151 48.762C194.493 49.6233 194.163 50.282 194.163 50.738C194.163 51.042 194.315 51.194 194.619 51.194C195.481 51.194 196.621 50.6873 198.039 49.674C199.458 48.6607 200.902 47.47 202.371 46.102C203.841 44.734 205.209 43.366 206.475 41.998C207.742 40.5793 208.679 39.4647 209.287 38.654C209.591 38.2487 209.895 37.9447 210.199 37.742C210.554 37.4887 211.061 37.362 211.719 37.362H212.935C213.341 37.362 213.543 37.514 213.543 37.818C213.543 37.8687 213.518 37.9447 213.467 38.046C213.467 38.0967 213.417 38.2233 213.315 38.426C212.707 39.338 211.998 40.3767 211.187 41.542C210.377 42.7073 209.591 43.8727 208.831 45.038C208.122 46.1527 207.514 47.2167 207.007 48.23C206.501 49.1927 206.247 49.9273 206.247 50.434C206.247 50.9913 206.577 51.27 207.235 51.27C208.553 51.27 209.819 50.7127 211.035 49.598C212.251 48.4327 213.898 46.634 215.975 44.202L216.507 44.582C215.697 45.5447 214.886 46.5073 214.075 47.47C213.315 48.4327 212.505 49.294 211.643 50.054C210.782 50.814 209.87 51.4473 208.907 51.954C207.945 52.41 206.855 52.638 205.639 52.638ZM232.098 52.638C231.237 52.638 230.502 52.4607 229.894 52.106C229.337 51.7007 229.058 51.0927 229.058 50.282C229.058 49.7247 229.261 49.0153 229.666 48.154C230.071 47.2927 230.578 46.3553 231.186 45.342C230.73 45.2913 230.249 45.266 229.742 45.266C229.235 45.2153 228.653 45.19 227.994 45.19C227.589 45.19 227.209 45.19 226.854 45.19C226.499 45.19 226.119 45.2153 225.714 45.266L221.838 51.042C221.483 51.5487 221.129 51.9033 220.774 52.106C220.419 52.258 220.039 52.334 219.634 52.334H217.658C217.303 52.334 217.126 52.182 217.126 51.878C217.126 51.726 217.202 51.5233 217.354 51.27C218.013 50.4087 218.773 49.37 219.634 48.154C220.546 46.938 221.382 45.7473 222.142 44.582C222.953 43.366 223.611 42.2767 224.118 41.314C224.675 40.3007 224.954 39.5913 224.954 39.186C224.954 38.6287 224.675 38.35 224.118 38.35C223.662 38.35 223.13 38.5526 222.522 38.958C221.914 39.3126 221.255 39.8193 220.546 40.478C219.887 41.1367 219.178 41.8713 218.418 42.682C217.709 43.4927 216.999 44.3033 216.29 45.114L215.682 44.81C216.594 43.7967 217.481 42.834 218.342 41.922C219.203 40.9593 220.039 40.1233 220.85 39.414C221.711 38.654 222.547 38.0713 223.358 37.666C224.169 37.21 224.954 36.982 225.714 36.982C226.879 36.982 227.665 37.1847 228.07 37.59C228.526 37.9953 228.754 38.5273 228.754 39.186C228.754 40.1993 227.918 41.9473 226.246 44.43C226.651 44.4807 227.057 44.506 227.462 44.506C227.867 44.506 228.323 44.506 228.83 44.506H231.642C232.351 43.3913 233.061 42.3273 233.77 41.314C234.53 40.25 235.189 39.3633 235.746 38.654C236.05 38.2487 236.354 37.9447 236.658 37.742C237.013 37.4887 237.519 37.362 238.178 37.362H239.394C239.799 37.362 240.002 37.514 240.002 37.818C240.002 37.8687 239.977 37.9447 239.926 38.046C239.926 38.0967 239.875 38.2233 239.774 38.426C239.318 39.1353 238.685 40.0726 237.874 41.238C237.114 42.3527 236.329 43.4927 235.518 44.658C234.758 45.8233 234.099 46.938 233.542 48.002C232.985 49.066 232.706 49.8767 232.706 50.434C232.706 50.9913 233.035 51.27 233.694 51.27C235.011 51.27 236.278 50.7127 237.494 49.598C238.71 48.4327 240.357 46.634 242.434 44.202L242.966 44.582C242.155 45.5447 241.345 46.5073 240.534 47.47C239.774 48.4327 238.963 49.294 238.102 50.054C237.241 50.814 236.329 51.4473 235.366 51.954C234.403 52.41 233.314 52.638 232.098 52.638ZM253.585 36.678C254.953 36.678 256.042 36.9313 256.853 37.438C257.714 37.894 258.145 38.73 258.145 39.946C258.145 40.6553 257.74 41.4913 256.929 42.454C256.118 43.366 254.548 44.4047 252.217 45.57C251.204 46.0767 250.393 46.558 249.785 47.014C249.228 47.4193 248.797 47.8247 248.493 48.23C248.189 48.5847 247.986 48.9393 247.885 49.294C247.834 49.598 247.809 49.902 247.809 50.206C247.86 50.9153 248.392 51.3207 249.405 51.422C250.368 51.4727 251.254 51.3967 252.065 51.194C252.876 50.9913 253.686 50.6367 254.497 50.13C255.308 49.5727 256.169 48.838 257.081 47.926C258.044 47.014 259.133 45.874 260.349 44.506L260.881 44.886C259.716 46.1527 258.652 47.2927 257.689 48.306C256.777 49.2687 255.84 50.0793 254.877 50.738C253.914 51.3967 252.926 51.9033 251.913 52.258C250.9 52.562 249.785 52.714 248.569 52.714C247.15 52.714 246.061 52.486 245.301 52.03C244.592 51.5233 244.237 50.662 244.237 49.446C244.237 48.23 244.668 47.166 245.529 46.254C246.441 45.2913 247.91 44.354 249.937 43.442C253.028 42.074 254.573 40.8073 254.573 39.642C254.573 39.1353 254.345 38.7553 253.889 38.502C253.484 38.2487 252.952 38.122 252.293 38.122C251.584 38.122 250.798 38.35 249.937 38.806C249.076 39.262 248.164 39.8447 247.201 40.554C246.289 41.2633 245.352 42.074 244.389 42.986C243.477 43.898 242.616 44.8353 241.805 45.798L241.197 45.418C242.109 44.354 243.072 43.3153 244.085 42.302C245.149 41.238 246.213 40.3007 247.277 39.49C248.341 38.6287 249.405 37.9447 250.469 37.438C251.533 36.9313 252.572 36.678 253.585 36.678Z" fill="#112250"></path></svg> 