<?xml version="1.0" encoding="UTF-8"?> <svg xmlns="http://www.w3.org/2000/svg" width="244" height="51" viewBox="0 0 244 51" fill="none"><path d="M42.7897 48.81C41.2217 48.81 40.1577 48.4553 39.5977 47.746C39.0377 47.0367 38.7577 46.1407 38.7577 45.058C38.7577 43.714 39.2057 42.1087 40.1017 40.242C40.9977 38.3753 42.155 36.3967 43.5737 34.306C43.0883 34.2313 42.603 34.1567 42.1177 34.082C41.6697 33.97 41.203 33.858 40.7177 33.746C39.4857 35.538 38.2537 37.2367 37.0217 38.842C35.827 40.41 34.5577 41.8473 33.2137 43.154C31.907 44.4233 30.507 45.562 29.0137 46.57C27.5203 47.578 25.8963 48.3807 24.1417 48.978C22.835 49.426 21.4537 49.762 19.9977 49.986C18.5417 50.2473 17.0857 50.378 15.6297 50.378C13.763 50.378 11.9337 50.1727 10.1417 49.762C8.38699 49.3513 6.81899 48.698 5.43766 47.802C4.05632 46.906 2.93632 45.7673 2.07766 44.386C1.25632 43.0047 0.845656 41.3247 0.845656 39.346C0.845656 37.442 1.23766 35.6873 2.02166 34.082C2.84299 32.4767 3.90699 31.0953 5.21366 29.938C6.52032 28.7807 8.01366 27.8847 9.69366 27.25C11.3737 26.6153 13.091 26.298 14.8457 26.298C16.339 26.298 17.739 26.5033 19.0457 26.914C20.3523 27.2873 21.491 27.8473 22.4617 28.594C23.4697 29.3033 24.2537 30.1807 24.8137 31.226C25.411 32.234 25.7097 33.354 25.7097 34.586C25.7097 35.818 25.411 36.994 24.8137 38.114C24.2537 39.234 23.4883 40.2233 22.5177 41.082C21.547 41.9033 20.427 42.5567 19.1577 43.042C17.9257 43.5273 16.6377 43.77 15.2937 43.77C14.771 43.77 14.211 43.7327 13.6137 43.658C13.0163 43.546 12.419 43.3407 11.8217 43.042C11.2617 42.7433 10.739 42.3327 10.2537 41.81C9.76832 41.25 9.41366 40.522 9.18966 39.626L9.63766 39.458C9.97366 40.7273 10.627 41.698 11.5977 42.37C12.5683 43.0047 13.7443 43.322 15.1257 43.322C16.619 43.322 17.9443 43.0793 19.1017 42.594C20.2963 42.0713 21.3043 41.3993 22.1257 40.578C22.9843 39.7193 23.6377 38.7673 24.0857 37.722C24.5337 36.6393 24.7577 35.5193 24.7577 34.362C24.7577 32.9807 24.4217 31.8233 23.7497 30.89C23.115 29.9193 22.3123 29.1353 21.3417 28.538C20.4083 27.9407 19.363 27.5113 18.2057 27.25C17.0857 26.9887 16.059 26.858 15.1257 26.858C13.5577 26.858 11.9897 27.1193 10.4217 27.642C8.89099 28.1647 7.50966 28.9673 6.27766 30.05C5.04566 31.0953 4.05632 32.402 3.30966 33.97C2.56299 35.538 2.18966 37.386 2.18966 39.514C2.18966 41.2687 2.52566 42.7993 3.19766 44.106C3.90699 45.4127 4.84032 46.4953 5.99766 47.354C7.19232 48.2127 8.53632 48.8473 10.0297 49.258C11.523 49.6687 13.091 49.874 14.7337 49.874C16.3763 49.874 17.9817 49.6687 19.5497 49.258C21.155 48.8847 22.6483 48.2873 24.0297 47.466C26.3817 46.0847 28.6403 44.1807 30.8057 41.754C32.971 39.29 35.2857 36.322 37.7497 32.85C35.435 32.066 33.3257 31.058 31.4217 29.826C29.555 28.5567 27.9497 27.1193 26.6057 25.514C25.299 23.9087 24.2723 22.1727 23.5257 20.306C22.8163 18.4393 22.4617 16.4607 22.4617 14.37C22.4617 12.466 22.8163 10.6927 23.5257 9.05C24.235 7.37 25.2243 5.93266 26.4937 4.738C27.763 3.506 29.2937 2.554 31.0857 1.882C32.8777 1.17266 34.8563 0.817997 37.0217 0.817997C39.1123 0.817997 40.979 1.07933 42.6217 1.602C44.2643 2.08733 45.6457 2.75933 46.7657 3.618C47.923 4.47666 48.8003 5.466 49.3977 6.586C49.995 7.66867 50.2937 8.826 50.2937 10.058C50.2937 11.5887 49.827 13.1193 48.8937 14.65C47.9977 16.1433 46.355 17.506 43.9657 18.738L43.6857 18.29C46.0003 17.0953 47.587 15.8073 48.4457 14.426C49.3043 13.0073 49.7337 11.6073 49.7337 10.226C49.7337 9.06866 49.435 7.986 48.8377 6.978C48.2403 5.93266 47.4003 5.018 46.3177 4.234C45.2723 3.45 43.9843 2.834 42.4537 2.386C40.9603 1.90066 39.3177 1.658 37.5257 1.658C35.6217 1.658 33.8483 1.994 32.2057 2.666C30.563 3.30066 29.1257 4.19666 27.8937 5.354C26.699 6.51133 25.747 7.89267 25.0377 9.498C24.3283 11.066 23.9737 12.7833 23.9737 14.65C23.9737 16.778 24.3097 18.7567 24.9817 20.586C25.6537 22.4153 26.6057 24.0953 27.8377 25.626C29.0697 27.1193 30.5443 28.4447 32.2617 29.602C34.0163 30.7593 35.9577 31.6927 38.0857 32.402L39.8217 29.882C41.539 27.3807 43.3497 25.066 45.2537 22.938C47.1577 20.7727 49.1737 18.906 51.3017 17.338C53.467 15.7327 55.7817 14.482 58.2457 13.586C60.7097 12.6527 63.3417 12.186 66.1417 12.186C67.2617 12.186 68.4563 12.298 69.7257 12.522C70.995 12.746 72.171 13.138 73.2537 13.698C74.3363 14.2207 75.2323 14.9487 75.9417 15.882C76.6883 16.778 77.0617 17.9167 77.0617 19.298C77.0617 20.9033 76.651 22.4153 75.8297 23.834C75.0083 25.2153 73.8883 26.4847 72.4697 27.642C71.0883 28.762 69.4643 29.77 67.5977 30.666C65.7683 31.5247 63.827 32.2527 61.7737 32.85C59.7203 33.4473 57.611 33.914 55.4457 34.25C53.3177 34.5487 51.2643 34.698 49.2857 34.698C48.4643 34.698 47.6617 34.6793 46.8777 34.642C46.131 34.5673 45.3843 34.4927 44.6377 34.418C43.555 36.2473 42.6963 38.0393 42.0617 39.794C41.427 41.5113 41.1097 43.098 41.1097 44.554C41.1097 45.3753 41.2777 46.0847 41.6137 46.682C41.9497 47.2793 42.603 47.578 43.5737 47.578C45.1043 47.578 46.6723 46.9993 48.2777 45.842C49.883 44.6473 51.6003 42.9487 53.4297 40.746L53.8217 41.082C51.8057 43.4713 49.8457 45.3567 47.9417 46.738C46.075 48.1193 44.3577 48.81 42.7897 48.81ZM49.1737 34.138C52.8323 34.138 56.2857 33.746 59.5337 32.962C62.819 32.178 65.675 31.114 68.1017 29.77C70.5657 28.426 72.507 26.858 73.9257 25.066C75.3443 23.2367 76.0537 21.2953 76.0537 19.242C76.0537 18.234 75.811 17.338 75.3257 16.554C74.8403 15.7327 74.1683 15.042 73.3097 14.482C72.4883 13.922 71.499 13.4927 70.3417 13.194C69.2217 12.8953 68.027 12.746 66.7577 12.746C63.771 12.746 61.2137 13.138 59.0857 13.922C56.9577 14.6687 54.979 15.8447 53.1497 17.45C51.3203 19.018 49.5097 21.0527 47.7177 23.554C45.9257 26.018 43.891 28.9673 41.6137 32.402C41.5017 32.5513 41.3897 32.7007 41.2777 32.85C41.203 32.962 41.1283 33.0927 41.0537 33.242C41.5017 33.354 41.9683 33.466 42.4537 33.578C42.939 33.6527 43.4243 33.7273 43.9097 33.802C44.955 32.2713 46.0937 30.7407 47.3257 29.21C48.595 27.642 49.8457 26.1487 51.0777 24.73C52.3097 23.3113 53.5043 21.986 54.6617 20.754C55.8563 19.522 56.939 18.458 57.9097 17.562L58.1897 17.954C57.1443 18.8873 56.043 19.97 54.8857 21.202C53.7283 22.3967 52.5523 23.6847 51.3577 25.066C50.2003 26.4473 49.0617 27.9033 47.9417 29.434C46.859 30.9273 45.8697 32.4207 44.9737 33.914C45.6457 33.9887 46.3177 34.0447 46.9897 34.082C47.699 34.1193 48.427 34.138 49.1737 34.138ZM63.7201 48.474C63.0854 48.474 62.5441 48.3433 62.0961 48.082C61.6854 47.7833 61.4801 47.3353 61.4801 46.738C61.4801 46.3273 61.6294 45.8047 61.9281 45.17C62.2268 44.5353 62.6001 43.8447 63.0481 43.098C62.7121 43.0607 62.3574 43.042 61.9841 43.042C61.6108 43.0047 61.1814 42.986 60.6961 42.986C60.3974 42.986 60.1174 42.986 59.8561 42.986C59.5948 42.986 59.3148 43.0047 59.0161 43.042L56.1601 47.298C55.8988 47.6713 55.6374 47.9327 55.3761 48.082C55.1148 48.194 54.8348 48.25 54.5361 48.25H53.0801C52.8188 48.25 52.6881 48.138 52.6881 47.914C52.6881 47.802 52.7441 47.6527 52.8561 47.466C53.3414 46.8313 53.9014 46.066 54.5361 45.17C55.2081 44.274 55.8241 43.3967 56.3841 42.538C56.9814 41.642 57.4668 40.8393 57.8401 40.13C58.2508 39.3833 58.4561 38.8607 58.4561 38.562C58.4561 38.1513 58.2508 37.946 57.8401 37.946C57.5041 37.946 57.1121 38.0953 56.6641 38.394C56.2161 38.6553 55.7308 39.0287 55.2081 39.514C54.7228 39.9993 54.2001 40.5407 53.6401 41.138C53.1174 41.7353 52.5948 42.3327 52.0721 42.93L51.6241 42.706C52.2961 41.9593 52.9494 41.25 53.5841 40.578C54.2188 39.8687 54.8348 39.2527 55.4321 38.73C56.0668 38.17 56.6828 37.7407 57.2801 37.442C57.8774 37.106 58.4561 36.938 59.0161 36.938C59.8748 36.938 60.4534 37.0873 60.7521 37.386C61.0881 37.6847 61.2561 38.0767 61.2561 38.562C61.2561 39.3087 60.6401 40.5967 59.4081 42.426C59.7068 42.4633 60.0054 42.482 60.3041 42.482C60.6028 42.482 60.9388 42.482 61.3121 42.482H63.3841C63.9068 41.6607 64.4294 40.8767 64.9521 40.13C65.5121 39.346 65.9974 38.6927 66.4081 38.17C66.6321 37.8713 66.8561 37.6473 67.0801 37.498C67.3414 37.3113 67.7148 37.218 68.2001 37.218H69.0961C69.3948 37.218 69.5441 37.33 69.5441 37.554C69.5441 37.5913 69.5254 37.6473 69.4881 37.722C69.4881 37.7593 69.4508 37.8527 69.3761 38.002C69.0401 38.5247 68.5734 39.2153 67.9761 40.074C67.4161 40.8953 66.8374 41.7353 66.2401 42.594C65.6801 43.4527 65.1948 44.274 64.7841 45.058C64.3734 45.842 64.1681 46.4393 64.1681 46.85C64.1681 47.2607 64.4108 47.466 64.8961 47.466C65.8668 47.466 66.8001 47.0553 67.6961 46.234C68.5921 45.3753 69.8054 44.05 71.3361 42.258L71.7281 42.538C71.1308 43.2473 70.5334 43.9567 69.9361 44.666C69.3761 45.3753 68.7788 46.01 68.1441 46.57C67.5094 47.13 66.8374 47.5967 66.1281 47.97C65.4188 48.306 64.6161 48.474 63.7201 48.474ZM82.5768 48.474C81.1954 48.474 80.5048 47.8953 80.5048 46.738C80.5048 46.3273 80.5608 45.8607 80.6728 45.338C80.8221 44.8153 80.8968 44.3673 80.8968 43.994C80.8968 43.434 80.7474 43.0047 80.4488 42.706C80.1874 42.4073 79.6834 42.2393 78.9368 42.202L75.8008 47.074C75.4274 47.634 75.1288 47.97 74.9048 48.082C74.6808 48.194 74.4194 48.25 74.1208 48.25H72.6648C72.4034 48.25 72.2728 48.138 72.2728 47.914C72.2728 47.802 72.3288 47.6527 72.4408 47.466C72.8514 46.906 73.2061 46.402 73.5048 45.954C73.8034 45.506 74.0648 45.0953 74.2888 44.722C74.5501 44.3487 74.7928 43.994 75.0168 43.658C75.2408 43.2847 75.5021 42.8927 75.8008 42.482C76.2114 41.8847 76.6408 41.194 77.0888 40.41C77.5368 39.5887 77.7608 38.9727 77.7608 38.562C77.7608 38.1513 77.5554 37.946 77.1448 37.946C76.8088 37.946 76.4168 38.0953 75.9688 38.394C75.5581 38.6553 75.1101 39.0287 74.6248 39.514C74.1394 39.9993 73.6168 40.5407 73.0568 41.138C72.5341 41.7353 72.0114 42.3327 71.4888 42.93L71.0408 42.706C71.7128 41.9593 72.3474 41.25 72.9448 40.578C73.5794 39.8687 74.1954 39.2527 74.7928 38.73C75.3901 38.17 75.9874 37.7407 76.5848 37.442C77.1821 37.106 77.7608 36.938 78.3208 36.938C79.1048 36.938 79.6461 37.0873 79.9448 37.386C80.2808 37.6847 80.4488 38.058 80.4488 38.506C80.4488 38.9167 80.3554 39.346 80.1688 39.794C80.0194 40.242 79.8514 40.634 79.6648 40.97C81.0834 39.6633 82.3901 38.6553 83.5848 37.946C84.8168 37.2367 85.7874 36.882 86.4968 36.882C87.2061 36.882 87.5608 37.2367 87.5608 37.946C87.5608 38.4687 87.3554 39.178 86.9448 40.074L86.3848 39.962C86.3848 39.1033 85.9741 38.674 85.1528 38.674C84.5928 38.674 83.8648 38.898 82.9688 39.346C82.0728 39.7567 80.9714 40.4847 79.6648 41.53V41.586C79.8888 41.5487 80.0941 41.53 80.2808 41.53C80.5048 41.4927 80.7101 41.474 80.8968 41.474C82.6888 41.474 83.5848 42.2953 83.5848 43.938C83.5848 44.3487 83.5288 44.8153 83.4168 45.338C83.3421 45.8233 83.3048 46.2153 83.3048 46.514C83.3048 47.1487 83.5661 47.466 84.0888 47.466C84.5741 47.466 85.0221 47.3727 85.4328 47.186C85.8434 46.9993 86.2728 46.7193 86.7208 46.346C87.2061 45.9353 87.7101 45.4127 88.2328 44.778C88.7928 44.1433 89.4648 43.378 90.2488 42.482L90.6408 42.762C90.0434 43.4713 89.4461 44.162 88.8488 44.834C88.2888 45.506 87.6914 46.122 87.0568 46.682C86.4221 47.2047 85.7314 47.634 84.9848 47.97C84.2754 48.306 83.4728 48.474 82.5768 48.474ZM92.48 43.826C93.712 43.602 94.72 43.2847 95.504 42.874C96.288 42.4633 96.904 42.034 97.352 41.586C97.8 41.1007 98.0987 40.634 98.248 40.186C98.4347 39.7007 98.528 39.2713 98.528 38.898C98.528 38.4873 98.4347 38.226 98.248 38.114C98.0614 37.9647 97.8374 37.89 97.576 37.89C96.7547 37.89 95.896 38.4687 95 39.626C94.104 40.746 93.264 42.146 92.48 43.826ZM93.768 47.746C94.1414 47.746 94.552 47.7087 95 47.634C95.4854 47.5593 96.064 47.3353 96.736 46.962C97.408 46.5887 98.1734 46.01 99.032 45.226C99.928 44.442 100.992 43.3407 102.224 41.922L102.616 42.202C101.384 43.658 100.283 44.8153 99.312 45.674C98.3787 46.4953 97.52 47.13 96.736 47.578C95.952 47.9887 95.224 48.25 94.552 48.362C93.9174 48.5113 93.2827 48.586 92.648 48.586C91.2667 48.586 90.352 48.2873 89.904 47.69C89.456 47.0553 89.232 46.4207 89.232 45.786C89.232 44.778 89.4747 43.77 89.96 42.762C90.4827 41.7167 91.1547 40.7833 91.976 39.962C92.8347 39.1033 93.7867 38.4127 94.832 37.89C95.8774 37.33 96.96 37.05 98.08 37.05C99.2 37.05 99.928 37.274 100.264 37.722C100.6 38.1327 100.768 38.5433 100.768 38.954C100.768 39.738 100.488 40.4473 99.928 41.082C99.4054 41.6793 98.7334 42.202 97.912 42.65C97.0907 43.0607 96.176 43.4153 95.168 43.714C94.16 43.9753 93.208 44.1807 92.312 44.33C92.2 44.554 92.1067 44.8527 92.032 45.226C91.9574 45.562 91.92 45.8793 91.92 46.178C91.92 46.7007 92.088 47.0927 92.424 47.354C92.7974 47.6153 93.2454 47.746 93.768 47.746ZM123.396 48.474C122.762 48.474 122.22 48.3433 121.772 48.082C121.324 47.7833 121.1 47.3353 121.1 46.738C121.1 46.0287 121.343 45.2633 121.828 44.442C122.351 43.5833 122.892 42.762 123.452 41.978C124.05 41.194 124.591 40.4847 125.076 39.85C125.599 39.178 125.86 38.674 125.86 38.338C125.86 38.114 125.748 38.002 125.524 38.002C125.3 38.002 125.002 38.0953 124.628 38.282C124.255 38.4687 123.863 38.6927 123.452 38.954C123.079 39.2153 122.687 39.4953 122.276 39.794C121.903 40.0927 121.567 40.3727 121.268 40.634C120.671 41.1193 120.111 41.6047 119.588 42.09C119.066 42.5753 118.543 43.0793 118.02 43.602C117.498 44.1247 116.956 44.7033 116.396 45.338C115.874 45.9353 115.295 46.5887 114.66 47.298C114.138 47.9327 113.596 48.25 113.036 48.25H111.58C111.319 48.25 111.188 48.138 111.188 47.914C111.188 47.802 111.244 47.6527 111.356 47.466C111.767 46.906 112.122 46.4207 112.42 46.01C112.756 45.562 113.055 45.17 113.316 44.834C113.615 44.4607 113.876 44.106 114.1 43.77C114.362 43.3967 114.642 43.0047 114.94 42.594C115.015 42.482 115.164 42.258 115.388 41.922C115.65 41.586 115.892 41.2127 116.116 40.802C116.378 40.3913 116.602 39.9807 116.788 39.57C116.975 39.1593 117.068 38.8047 117.068 38.506C117.068 38.0953 116.844 37.89 116.396 37.89C115.874 37.89 115.202 38.17 114.38 38.73C113.596 39.29 112.738 40.018 111.804 40.914C110.871 41.81 109.9 42.818 108.892 43.938C107.884 45.058 106.914 46.178 105.98 47.298C105.458 47.9327 104.916 48.25 104.356 48.25H102.9C102.639 48.25 102.508 48.138 102.508 47.914C102.508 47.802 102.564 47.6527 102.676 47.466C103.087 46.906 103.46 46.402 103.796 45.954C104.132 45.506 104.431 45.0953 104.692 44.722C104.991 44.3487 105.271 43.994 105.532 43.658C105.794 43.2847 106.074 42.8927 106.372 42.482C106.484 42.3327 106.634 42.09 106.82 41.754C107.044 41.418 107.268 41.0633 107.492 40.69C107.716 40.3167 107.903 39.9433 108.052 39.57C108.202 39.1593 108.276 38.8233 108.276 38.562C108.276 38.1513 108.071 37.946 107.66 37.946C106.988 37.946 106.167 38.4313 105.196 39.402C104.226 40.3353 103.199 41.418 102.116 42.65L101.668 42.426C102.975 40.8953 104.207 39.6073 105.364 38.562C106.522 37.4793 107.679 36.938 108.836 36.938C109.62 36.938 110.18 37.0873 110.516 37.386C110.852 37.6847 111.02 38.058 111.02 38.506C111.02 39.0287 110.89 39.5513 110.628 40.074C110.404 40.5967 110.162 41.0633 109.9 41.474C109.602 41.922 109.396 42.258 109.284 42.482C109.172 42.6687 108.911 43.0233 108.5 43.546L108.556 43.602C109.266 42.7807 109.994 41.978 110.74 41.194C111.487 40.41 112.234 39.7007 112.98 39.066C113.764 38.4313 114.548 37.9273 115.332 37.554C116.116 37.1433 116.9 36.938 117.684 36.938C118.394 36.938 118.898 37.0873 119.196 37.386C119.532 37.6847 119.7 38.0953 119.7 38.618C119.7 39.0287 119.588 39.4953 119.364 40.018C119.178 40.5033 118.935 40.9887 118.636 41.474C118.3 41.9967 117.964 42.482 117.628 42.93C117.292 43.378 116.919 43.8633 116.508 44.386L116.564 44.442C117.274 43.6207 118.095 42.7807 119.028 41.922C119.962 41.026 120.876 40.2233 121.772 39.514C122.706 38.7673 123.602 38.17 124.46 37.722C125.319 37.2367 126.066 36.994 126.7 36.994C127.932 36.994 128.548 37.4793 128.548 38.45C128.548 38.9727 128.399 39.4767 128.1 39.962C127.802 40.4473 127.428 41.0073 126.98 41.642C126.644 42.1273 126.29 42.6127 125.916 43.098C125.543 43.5833 125.188 44.0687 124.852 44.554C124.554 45.002 124.311 45.4313 124.124 45.842C123.938 46.2527 123.844 46.5887 123.844 46.85C123.844 47.2607 124.087 47.466 124.572 47.466C125.543 47.466 126.476 47.0553 127.372 46.234C128.268 45.3753 129.482 44.05 131.012 42.258L131.404 42.538C130.807 43.2473 130.21 43.9567 129.612 44.666C129.052 45.3753 128.455 46.01 127.82 46.57C127.186 47.13 126.514 47.5967 125.804 47.97C125.095 48.306 124.292 48.474 123.396 48.474ZM140.22 37.666C139.398 37.666 138.558 38.002 137.7 38.674C136.841 39.346 136.038 40.1487 135.292 41.082C134.582 41.978 133.985 42.93 133.5 43.938C133.052 44.946 132.828 45.786 132.828 46.458C132.828 46.7193 132.884 47.018 132.996 47.354C133.108 47.6527 133.462 47.802 134.06 47.802C134.545 47.802 135.049 47.634 135.572 47.298C136.132 46.962 136.692 46.5327 137.252 46.01C137.812 45.4873 138.334 44.9087 138.82 44.274C139.342 43.6393 139.828 43.0047 140.276 42.37C140.686 41.7727 141.041 41.1753 141.34 40.578C141.676 39.9807 141.844 39.4767 141.844 39.066C141.844 38.5433 141.676 38.1887 141.34 38.002C141.004 37.778 140.63 37.666 140.22 37.666ZM143.356 38.226C143.58 37.9273 143.804 37.6847 144.028 37.498C144.252 37.3113 144.588 37.218 145.036 37.218H146.1C146.398 37.218 146.548 37.33 146.548 37.554C146.548 37.5913 146.529 37.6473 146.492 37.722C146.492 37.7593 146.454 37.8527 146.38 38.002C146.044 38.5247 145.577 39.1967 144.98 40.018C144.382 40.8393 143.804 41.698 143.244 42.594C142.684 43.4527 142.18 44.274 141.732 45.058C141.321 45.8047 141.116 46.3833 141.116 46.794C141.116 47.242 141.321 47.466 141.732 47.466C142.702 47.466 143.636 47.0553 144.532 46.234C145.428 45.3753 146.641 44.05 148.172 42.258L148.564 42.538C147.966 43.2473 147.369 43.9567 146.772 44.666C146.212 45.3753 145.614 46.01 144.98 46.57C144.345 47.13 143.673 47.5967 142.964 47.97C142.254 48.306 141.452 48.474 140.556 48.474C139.921 48.474 139.38 48.362 138.932 48.138C138.484 47.8767 138.26 47.4473 138.26 46.85C138.26 46.6633 138.297 46.4393 138.372 46.178C138.484 45.8793 138.652 45.562 138.876 45.226V45.17C137.905 46.2527 136.953 47.0927 136.02 47.69C135.124 48.25 134.116 48.53 132.996 48.53C131.876 48.53 131.11 48.2873 130.7 47.802C130.326 47.3167 130.14 46.7753 130.14 46.178C130.14 45.17 130.42 44.1247 130.98 43.042C131.577 41.9593 132.342 40.97 133.276 40.074C134.209 39.178 135.254 38.45 136.412 37.89C137.569 37.33 138.726 37.05 139.884 37.05C140.817 37.05 141.526 37.218 142.012 37.554C142.497 37.8527 142.852 38.2073 143.076 38.618L143.356 38.226ZM166.014 36.714C167.022 36.714 167.824 36.9007 168.422 37.274C169.056 37.61 169.374 38.226 169.374 39.122C169.374 39.6447 169.075 40.2607 168.478 40.97C167.88 41.642 166.723 42.4073 165.006 43.266C164.259 43.6393 163.662 43.994 163.214 44.33C162.803 44.6287 162.486 44.9273 162.262 45.226C162.038 45.4873 161.888 45.7487 161.814 46.01C161.776 46.234 161.758 46.458 161.758 46.682C161.795 47.2047 162.187 47.5033 162.934 47.578C163.643 47.6153 164.296 47.5593 164.894 47.41C165.491 47.2607 166.088 46.9993 166.686 46.626C167.283 46.2153 167.918 45.674 168.59 45.002C169.299 44.33 170.102 43.49 170.998 42.482L171.39 42.762C170.531 43.6953 169.747 44.5353 169.038 45.282C168.366 45.9913 167.675 46.5887 166.966 47.074C166.256 47.5593 165.528 47.9327 164.782 48.194C164.035 48.418 163.214 48.53 162.318 48.53C161.272 48.53 160.47 48.362 159.91 48.026C159.387 47.6527 159.126 47.018 159.126 46.122C159.126 45.226 159.443 44.442 160.078 43.77C160.75 43.0607 161.832 42.37 163.326 41.698C165.603 40.69 166.742 39.7567 166.742 38.898C166.742 38.5247 166.574 38.2447 166.238 38.058C165.939 37.8713 165.547 37.778 165.062 37.778C164.539 37.778 163.96 37.946 163.326 38.282C162.691 38.618 162.019 39.0473 161.31 39.57C160.638 40.0927 159.947 40.69 159.238 41.362C158.566 42.034 157.931 42.7247 157.334 43.434L156.886 43.154C157.558 42.37 158.267 41.6047 159.014 40.858C159.798 40.074 160.582 39.3833 161.366 38.786C162.15 38.1513 162.934 37.6473 163.718 37.274C164.502 36.9007 165.267 36.714 166.014 36.714ZM179.637 37.61C178.965 37.61 178.219 37.9273 177.397 38.562C176.576 39.1593 175.811 39.9247 175.101 40.858C174.429 41.754 173.851 42.7247 173.365 43.77C172.88 44.8153 172.637 45.7673 172.637 46.626C172.637 46.962 172.749 47.2793 172.973 47.578C173.197 47.8767 173.589 48.026 174.149 48.026C174.971 48.026 175.811 47.69 176.669 47.018C177.528 46.3087 178.293 45.4873 178.965 44.554C179.675 43.5833 180.235 42.594 180.645 41.586C181.093 40.578 181.317 39.738 181.317 39.066C181.317 38.0953 180.757 37.61 179.637 37.61ZM179.917 36.994C181.224 36.994 182.157 37.274 182.717 37.834C183.315 38.394 183.613 39.0287 183.613 39.738C183.613 40.634 183.315 41.6047 182.717 42.65C182.12 43.658 181.336 44.61 180.365 45.506C179.432 46.402 178.349 47.1487 177.117 47.746C175.923 48.306 174.709 48.586 173.477 48.586C172.245 48.586 171.349 48.362 170.789 47.914C170.267 47.4287 170.005 46.7567 170.005 45.898C170.005 45.002 170.267 44.0313 170.789 42.986C171.312 41.9407 172.021 40.97 172.917 40.074C173.813 39.178 174.859 38.45 176.053 37.89C177.285 37.2927 178.573 36.994 179.917 36.994ZM198.394 41.866C197.759 42.6127 197.031 43.3967 196.21 44.218C195.426 45.002 194.586 45.73 193.69 46.402C192.794 47.0367 191.823 47.5593 190.778 47.97C189.77 48.3807 188.724 48.586 187.642 48.586C186.335 48.586 185.42 48.306 184.898 47.746C184.412 47.186 184.17 46.5327 184.17 45.786C184.17 44.89 184.431 43.938 184.954 42.93C185.476 41.8847 186.167 40.9327 187.026 40.074C187.922 39.2153 188.93 38.506 190.05 37.946C191.207 37.3487 192.383 37.05 193.578 37.05C194.623 37.05 195.426 37.274 195.986 37.722C196.583 38.1327 196.882 38.674 196.882 39.346C196.882 39.7567 196.732 40.1487 196.434 40.522C196.135 40.8953 195.743 41.082 195.258 41.082C194.847 41.082 194.53 40.9887 194.306 40.802C194.119 40.6153 194.026 40.41 194.026 40.186C194.026 39.9247 194.1 39.7007 194.25 39.514C194.436 39.29 194.53 39.0287 194.53 38.73C194.53 38.4687 194.436 38.2447 194.25 38.058C194.1 37.834 193.858 37.722 193.522 37.722C192.812 37.7967 192.066 38.1513 191.282 38.786C190.498 39.3833 189.77 40.1113 189.098 40.97C188.463 41.8287 187.922 42.7433 187.474 43.714C187.063 44.6473 186.858 45.4687 186.858 46.178C186.858 46.514 186.97 46.8687 187.194 47.242C187.418 47.578 187.94 47.746 188.762 47.746C190.33 47.746 191.86 47.1673 193.354 46.01C194.884 44.8527 196.434 43.378 198.002 41.586L198.394 41.866ZM218.826 48.474C218.191 48.474 217.65 48.3433 217.202 48.082C216.754 47.7833 216.53 47.3353 216.53 46.738C216.53 46.0287 216.773 45.2633 217.258 44.442C217.781 43.5833 218.322 42.762 218.882 41.978C219.479 41.194 220.021 40.4847 220.506 39.85C221.029 39.178 221.29 38.674 221.29 38.338C221.29 38.114 221.178 38.002 220.954 38.002C220.73 38.002 220.431 38.0953 220.058 38.282C219.685 38.4687 219.293 38.6927 218.882 38.954C218.509 39.2153 218.117 39.4953 217.706 39.794C217.333 40.0927 216.997 40.3727 216.698 40.634C216.101 41.1193 215.541 41.6047 215.018 42.09C214.495 42.5753 213.973 43.0793 213.45 43.602C212.927 44.1247 212.386 44.7033 211.826 45.338C211.303 45.9353 210.725 46.5887 210.09 47.298C209.567 47.9327 209.026 48.25 208.466 48.25H207.01C206.749 48.25 206.618 48.138 206.618 47.914C206.618 47.802 206.674 47.6527 206.786 47.466C207.197 46.906 207.551 46.4207 207.85 46.01C208.186 45.562 208.485 45.17 208.746 44.834C209.045 44.4607 209.306 44.106 209.53 43.77C209.791 43.3967 210.071 43.0047 210.37 42.594C210.445 42.482 210.594 42.258 210.818 41.922C211.079 41.586 211.322 41.2127 211.546 40.802C211.807 40.3913 212.031 39.9807 212.218 39.57C212.405 39.1593 212.498 38.8047 212.498 38.506C212.498 38.0953 212.274 37.89 211.826 37.89C211.303 37.89 210.631 38.17 209.81 38.73C209.026 39.29 208.167 40.018 207.234 40.914C206.301 41.81 205.33 42.818 204.322 43.938C203.314 45.058 202.343 46.178 201.41 47.298C200.887 47.9327 200.346 48.25 199.786 48.25H198.33C198.069 48.25 197.938 48.138 197.938 47.914C197.938 47.802 197.994 47.6527 198.106 47.466C198.517 46.906 198.89 46.402 199.226 45.954C199.562 45.506 199.861 45.0953 200.122 44.722C200.421 44.3487 200.701 43.994 200.962 43.658C201.223 43.2847 201.503 42.8927 201.802 42.482C201.914 42.3327 202.063 42.09 202.25 41.754C202.474 41.418 202.698 41.0633 202.922 40.69C203.146 40.3167 203.333 39.9433 203.482 39.57C203.631 39.1593 203.706 38.8233 203.706 38.562C203.706 38.1513 203.501 37.946 203.09 37.946C202.418 37.946 201.597 38.4313 200.626 39.402C199.655 40.3353 198.629 41.418 197.546 42.65L197.098 42.426C198.405 40.8953 199.637 39.6073 200.794 38.562C201.951 37.4793 203.109 36.938 204.266 36.938C205.05 36.938 205.61 37.0873 205.946 37.386C206.282 37.6847 206.45 38.058 206.45 38.506C206.45 39.0287 206.319 39.5513 206.058 40.074C205.834 40.5967 205.591 41.0633 205.33 41.474C205.031 41.922 204.826 42.258 204.714 42.482C204.602 42.6687 204.341 43.0233 203.93 43.546L203.986 43.602C204.695 42.7807 205.423 41.978 206.17 41.194C206.917 40.41 207.663 39.7007 208.41 39.066C209.194 38.4313 209.978 37.9273 210.762 37.554C211.546 37.1433 212.33 36.938 213.114 36.938C213.823 36.938 214.327 37.0873 214.626 37.386C214.962 37.6847 215.13 38.0953 215.13 38.618C215.13 39.0287 215.018 39.4953 214.794 40.018C214.607 40.5033 214.365 40.9887 214.066 41.474C213.73 41.9967 213.394 42.482 213.058 42.93C212.722 43.378 212.349 43.8633 211.938 44.386L211.994 44.442C212.703 43.6207 213.525 42.7807 214.458 41.922C215.391 41.026 216.306 40.2233 217.202 39.514C218.135 38.7673 219.031 38.17 219.89 37.722C220.749 37.2367 221.495 36.994 222.13 36.994C223.362 36.994 223.978 37.4793 223.978 38.45C223.978 38.9727 223.829 39.4767 223.53 39.962C223.231 40.4473 222.858 41.0073 222.41 41.642C222.074 42.1273 221.719 42.6127 221.346 43.098C220.973 43.5833 220.618 44.0687 220.282 44.554C219.983 45.002 219.741 45.4313 219.554 45.842C219.367 46.2527 219.274 46.5887 219.274 46.85C219.274 47.2607 219.517 47.466 220.002 47.466C220.973 47.466 221.906 47.0553 222.802 46.234C223.698 45.3753 224.911 44.05 226.442 42.258L226.834 42.538C226.237 43.2473 225.639 43.9567 225.042 44.666C224.482 45.3753 223.885 46.01 223.25 46.57C222.615 47.13 221.943 47.5967 221.234 47.97C220.525 48.306 219.722 48.474 218.826 48.474ZM235.817 37.218C235.332 37.218 234.847 37.3673 234.361 37.666C233.876 37.9647 233.447 38.338 233.073 38.786C232.7 39.234 232.383 39.7193 232.121 40.242C231.897 40.7647 231.785 41.25 231.785 41.698C231.785 42.2953 232.103 42.594 232.737 42.594C233.185 42.594 233.671 42.426 234.193 42.09C234.716 41.754 235.201 41.362 235.649 40.914C236.097 40.466 236.452 39.9993 236.713 39.514C237.012 39.0287 237.161 38.6367 237.161 38.338C237.161 37.9273 237.012 37.6473 236.713 37.498C236.452 37.3113 236.153 37.218 235.817 37.218ZM235.873 48.474C235.164 48.474 234.585 48.3433 234.137 48.082C233.727 47.7833 233.521 47.354 233.521 46.794C233.521 46.3833 233.615 45.898 233.801 45.338C234.025 44.778 234.473 43.9007 235.145 42.706H235.089C234.716 43.2287 234.231 43.8073 233.633 44.442C233.073 45.0767 232.588 45.5993 232.177 46.01C230.983 47.0927 229.844 47.802 228.761 48.138C227.716 48.474 226.764 48.642 225.905 48.642C225.159 48.642 224.58 48.474 224.169 48.138C223.759 47.7647 223.553 47.242 223.553 46.57C223.553 45.786 223.759 45.0393 224.169 44.33C224.617 43.5833 225.14 43.042 225.737 42.706C226.335 42.3327 226.951 42.202 227.585 42.314C228.257 42.3887 228.631 42.8927 228.705 43.826C228.743 44.162 228.575 44.5353 228.201 44.946C227.828 45.3567 227.473 45.562 227.137 45.562C226.764 45.562 226.503 45.4313 226.353 45.17C226.241 44.8713 226.036 44.7033 225.737 44.666C225.551 44.666 225.252 44.834 224.841 45.17C224.468 45.506 224.281 45.9913 224.281 46.626C224.281 46.962 224.412 47.298 224.673 47.634C224.935 47.9327 225.327 48.082 225.849 48.082C226.596 48.082 227.455 47.9513 228.425 47.69C229.396 47.3913 230.572 46.626 231.953 45.394C232.364 44.9833 232.849 44.4793 233.409 43.882C233.969 43.2847 234.436 42.7433 234.809 42.258C233.988 42.8553 233.092 43.154 232.121 43.154C231.3 43.154 230.609 43.0047 230.049 42.706C229.527 42.37 229.265 41.8847 229.265 41.25C229.265 40.7273 229.415 40.2047 229.713 39.682C230.012 39.122 230.423 38.6367 230.945 38.226C231.468 37.778 232.103 37.4233 232.849 37.162C233.596 36.9007 234.417 36.77 235.313 36.77C236.135 36.77 236.788 36.938 237.273 37.274C237.796 37.5727 238.113 37.8713 238.225 38.17H238.337C238.599 37.834 238.823 37.5913 239.009 37.442C239.233 37.2927 239.513 37.218 239.849 37.218H241.081C241.38 37.218 241.529 37.33 241.529 37.554C241.529 37.5913 241.511 37.6473 241.473 37.722C241.473 37.7593 241.436 37.8527 241.361 38.002C240.913 38.674 240.391 39.4393 239.793 40.298C239.196 41.1567 238.617 42.0153 238.057 42.874C237.535 43.6953 237.087 44.4607 236.713 45.17C236.34 45.8793 236.153 46.4207 236.153 46.794C236.153 47.242 236.415 47.466 236.937 47.466C237.908 47.466 238.879 47.074 239.849 46.29C240.82 45.4687 242.071 44.162 243.601 42.37L243.993 42.65C243.396 43.3593 242.799 44.0687 242.201 44.778C241.604 45.45 240.969 46.066 240.297 46.626C239.663 47.186 238.972 47.634 238.225 47.97C237.479 48.306 236.657 48.474 235.761 48.474H235.873Z" fill="#112250"></path></svg> 