<?xml version="1.0" encoding="UTF-8"?> <svg xmlns="http://www.w3.org/2000/svg" width="183" height="49" viewBox="0 0 183 49" fill="none"><path d="M25.7199 5.83325C25.5599 4.32925 25.0319 3.16125 24.1359 2.32925C23.2559 1.49725 22.1199 1.08125 20.7279 1.08125C19.8799 1.08125 19.0799 1.26525 18.3279 1.63325C17.5919 1.98525 16.9439 2.49725 16.3839 3.16925C15.8239 3.84125 15.3839 4.64925 15.0639 5.59325C14.7439 6.53725 14.5839 7.60125 14.5839 8.78525C14.5839 10.2892 14.8719 11.6172 15.4479 12.7692C16.0239 13.9212 16.7999 14.8172 17.7759 15.4572C18.7519 16.0972 19.8319 16.4172 21.0159 16.4172C22.0559 16.4172 23.0799 16.1852 24.0879 15.7212C25.0959 15.2412 25.9199 14.5532 26.5599 13.6572L27.1839 14.1612C26.4959 15.1052 25.7519 15.8332 24.9519 16.3452C24.1519 16.8572 23.3519 17.2012 22.5519 17.3773C21.7679 17.5693 21.0479 17.6653 20.3919 17.6653C19.1919 17.6653 18.0879 17.4493 17.0799 17.0172C16.0879 16.5852 15.2239 15.9852 14.4879 15.2172C13.7679 14.4332 13.2079 13.5292 12.8079 12.5052C12.4239 11.4652 12.2319 10.3452 12.2319 9.14525C12.2319 8.00925 12.3999 6.90525 12.7359 5.83325C13.0879 4.76125 13.6079 3.79325 14.2959 2.92925C14.9839 2.06525 15.8479 1.37725 16.8879 0.86525C17.9439 0.35325 19.1679 0.0972495 20.5599 0.0972495C21.4559 0.0972495 22.3039 0.217249 23.1039 0.457249C23.9039 0.697249 24.6719 1.06525 25.4079 1.56125L25.2879 0.265249H26.5839V5.83325H25.7199ZM36.5899 17.6653C36.0139 17.6653 35.5019 17.5213 35.0539 17.2332C34.6059 16.9292 34.3819 16.5292 34.3819 16.0332C34.3819 15.6812 34.4859 15.3932 34.6939 15.1692C34.9179 14.9292 35.2059 14.8012 35.5579 14.7852C35.9579 14.7532 36.2539 14.8652 36.4459 15.1212C36.6379 15.3612 36.7339 15.6012 36.7339 15.8412C36.7339 16.1132 36.6539 16.3292 36.4939 16.4893C36.6219 16.6172 36.7579 16.6812 36.9019 16.6812C37.1739 16.6812 37.4859 16.4492 37.8379 15.9852C38.2059 15.5212 38.5579 14.8092 38.8939 13.8492C39.2299 12.8892 39.5099 11.6812 39.7339 10.2253C39.9579 8.75325 40.0699 7.01725 40.0699 5.01725V1.44125H39.5659L37.8139 1.53725V0.481249H49.6939V1.27325C49.1019 1.28925 48.6859 1.42525 48.4459 1.68125C48.2219 1.93725 48.0939 2.28125 48.0619 2.71325C48.0459 3.14525 48.0379 3.64925 48.0379 4.22525V14.4252C48.0379 14.8572 48.0299 15.2332 48.0139 15.5532C48.0139 15.8572 47.9979 16.1132 47.9659 16.3212C48.2539 16.3052 48.5419 16.2892 48.8299 16.2732C49.1179 16.2572 49.4059 16.2412 49.6939 16.2252V17.2812H44.2699V16.4893C44.8779 16.4572 45.2939 16.3212 45.5179 16.0812C45.7579 15.8252 45.8859 15.4812 45.9019 15.0492C45.9339 14.6012 45.9499 14.0972 45.9499 13.5372V1.41725L42.5659 1.44125C41.9899 1.44125 41.6299 1.60125 41.4859 1.92125C41.3419 2.22525 41.2539 2.68925 41.2219 3.31325C41.2219 4.72125 41.1739 6.11325 41.0779 7.48925C40.9819 8.86525 40.8299 10.1692 40.6219 11.4012C40.4139 12.6172 40.1339 13.6972 39.7819 14.6412C39.4299 15.5852 38.9899 16.3292 38.4619 16.8732C37.9339 17.4013 37.3099 17.6653 36.5899 17.6653ZM67.4106 17.6653C66.0666 17.6653 64.9066 17.4253 63.9306 16.9452C62.9706 16.4492 62.1706 15.7932 61.5306 14.9772C60.8906 14.1452 60.4106 13.2332 60.0906 12.2412C59.7706 11.2332 59.5946 10.2172 59.5626 9.19325L56.0826 9.26525V14.4252C56.0826 14.8572 56.0746 15.2332 56.0586 15.5532C56.0586 15.8572 56.0426 16.1132 56.0106 16.3212C56.2986 16.3052 56.5866 16.2892 56.8746 16.2732C57.1626 16.2572 57.4506 16.2412 57.7386 16.2252V17.2812H52.3386V16.4893C52.9466 16.4572 53.3626 16.3212 53.5866 16.0812C53.8106 15.8252 53.9306 15.4812 53.9466 15.0492C53.9786 14.6012 53.9946 14.0972 53.9946 13.5372V3.16925C53.9946 2.84925 54.0026 2.54525 54.0186 2.25725C54.0346 1.95325 54.0506 1.68125 54.0666 1.44125C53.7786 1.45725 53.4906 1.47325 53.2026 1.48925C52.9146 1.50525 52.6266 1.52125 52.3386 1.53725V0.481249H57.7386V1.27325C57.1466 1.28925 56.7306 1.42525 56.4906 1.68125C56.2666 1.93725 56.1386 2.28125 56.1066 2.71325C56.0906 3.14525 56.0826 3.64925 56.0826 4.22525V8.20925H59.5866C59.6506 7.24925 59.8586 6.28925 60.2106 5.32925C60.5786 4.36925 61.0746 3.49725 61.6986 2.71325C62.3386 1.91325 63.1146 1.28125 64.0266 0.817249C64.9546 0.337249 66.0186 0.0972495 67.2186 0.0972495C68.6906 0.0972495 69.9626 0.361249 71.0346 0.889249C72.1066 1.41725 72.9866 2.12125 73.6746 3.00125C74.3786 3.86525 74.8986 4.80925 75.2346 5.83325C75.5866 6.85725 75.7626 7.87325 75.7626 8.88125C75.7626 9.87325 75.5946 10.8892 75.2586 11.9292C74.9226 12.9532 74.4026 13.9052 73.6986 14.7852C73.0106 15.6492 72.1466 16.3452 71.1066 16.8732C70.0666 17.4013 68.8346 17.6653 67.4106 17.6653ZM67.4586 16.6812C68.4506 16.6812 69.3146 16.4732 70.0506 16.0572C70.7866 15.6252 71.3946 15.0572 71.8746 14.3532C72.3706 13.6332 72.7386 12.8412 72.9786 11.9772C73.2346 11.0972 73.3626 10.2172 73.3626 9.33725C73.3626 8.34525 73.2266 7.36125 72.9546 6.38525C72.6826 5.40925 72.2826 4.52125 71.7546 3.72125C71.2266 2.92125 70.5706 2.28125 69.7866 1.80125C69.0186 1.30525 68.1386 1.05725 67.1466 1.05725C66.2986 1.05725 65.5466 1.27325 64.8906 1.70525C64.2506 2.13725 63.7066 2.71325 63.2586 3.43325C62.8266 4.13725 62.4986 4.92925 62.2746 5.80925C62.0506 6.67325 61.9386 7.55325 61.9386 8.44925C61.9386 9.32925 62.0506 10.2492 62.2746 11.2092C62.5146 12.1692 62.8586 13.0652 63.3066 13.8972C63.7706 14.7292 64.3466 15.4012 65.0346 15.9132C65.7226 16.4252 66.5306 16.6812 67.4586 16.6812ZM88.3003 4.68125C88.3003 3.73725 88.1563 3.02525 87.8683 2.54525C87.5803 2.04925 87.1963 1.72125 86.7163 1.56125C86.2363 1.38525 85.6923 1.30525 85.0843 1.32125L83.3323 1.36925C82.7403 1.38525 82.3323 1.52925 82.1083 1.80125C81.8843 2.05725 81.7563 2.40125 81.7243 2.83325C81.6923 3.26525 81.6763 3.76125 81.6763 4.32125V7.75325L83.6203 7.70525C84.9483 7.65725 86.0523 7.74525 86.9323 7.96925C87.8283 8.17725 88.5483 8.48925 89.0923 8.90525C89.6363 9.32125 90.0203 9.83325 90.2443 10.4412C90.4843 11.0332 90.6043 11.6892 90.6043 12.4092C90.6043 13.4332 90.3563 14.3132 89.8603 15.0492C89.3643 15.7692 88.6923 16.3212 87.8443 16.7052C86.9963 17.0892 86.0283 17.2812 84.9403 17.2812H77.9323V16.4893C78.5403 16.4732 78.9563 16.3372 79.1803 16.0812C79.4043 15.8092 79.5243 15.4492 79.5403 15.0012C79.5723 14.5372 79.5883 14.0092 79.5883 13.4172V3.16925C79.5883 2.84925 79.5963 2.54525 79.6123 2.25725C79.6283 1.95325 79.6443 1.68125 79.6603 1.44125C79.3723 1.45725 79.0843 1.47325 78.7963 1.48925C78.5083 1.50525 78.2203 1.52125 77.9323 1.53725V0.481249H89.0683L89.1883 4.68125H88.3003ZM81.6763 14.4492C81.6763 14.8812 81.6683 15.2492 81.6523 15.5532C81.6523 15.8572 81.6363 16.1132 81.6043 16.3212C81.8603 16.3372 82.1643 16.3532 82.5163 16.3692C82.8843 16.3692 83.2203 16.3692 83.5243 16.3692C83.8443 16.3692 84.0523 16.3692 84.1483 16.3692C85.3803 16.3692 86.3643 16.0492 87.1003 15.4092C87.8523 14.7692 88.2283 13.8172 88.2283 12.5532C88.2283 11.4972 88.0363 10.6892 87.6523 10.1292C87.2843 9.55325 86.7883 9.15325 86.1643 8.92925C85.5563 8.70525 84.8843 8.59325 84.1483 8.59325C83.6683 8.59325 83.2283 8.60125 82.8283 8.61725C82.4443 8.61725 82.0603 8.63325 81.6763 8.66525V14.4492ZM101.19 17.6653C99.67 17.6653 98.366 17.4093 97.278 16.8972C96.19 16.3852 95.302 15.7052 94.614 14.8572C93.942 13.9932 93.446 13.0412 93.126 12.0012C92.806 10.9612 92.646 9.92125 92.646 8.88125C92.646 7.87325 92.814 6.85725 93.15 5.83325C93.486 4.79325 93.998 3.84125 94.686 2.97725C95.39 2.11325 96.262 1.41725 97.302 0.889249C98.358 0.361249 99.59 0.0972495 100.998 0.0972495C102.47 0.0972495 103.742 0.361249 104.814 0.889249C105.886 1.41725 106.766 2.12125 107.454 3.00125C108.158 3.86525 108.678 4.80925 109.014 5.83325C109.366 6.85725 109.542 7.87325 109.542 8.88125C109.542 9.87325 109.374 10.8892 109.038 11.9292C108.702 12.9532 108.182 13.9052 107.478 14.7852C106.79 15.6492 105.926 16.3452 104.886 16.8732C103.846 17.4013 102.614 17.6653 101.19 17.6653ZM101.238 16.6812C102.23 16.6812 103.094 16.4732 103.83 16.0572C104.566 15.6252 105.174 15.0572 105.654 14.3532C106.15 13.6332 106.518 12.8412 106.758 11.9772C107.014 11.0972 107.142 10.2172 107.142 9.33725C107.142 8.34525 107.006 7.36125 106.734 6.38525C106.462 5.40925 106.062 4.52125 105.534 3.72125C105.006 2.92125 104.35 2.28125 103.566 1.80125C102.798 1.30525 101.918 1.05725 100.926 1.05725C99.934 1.05725 99.062 1.27325 98.31 1.70525C97.574 2.13725 96.958 2.71325 96.462 3.43325C95.982 4.13725 95.614 4.92925 95.358 5.80925C95.118 6.67325 94.998 7.55325 94.998 8.44925C94.998 9.32925 95.118 10.2492 95.358 11.2092C95.614 12.1692 95.998 13.0652 96.51 13.8972C97.022 14.7292 97.67 15.4012 98.454 15.9132C99.238 16.4252 100.166 16.6812 101.238 16.6812ZM111.706 17.2812V16.4893C112.314 16.4732 112.73 16.3372 112.954 16.0812C113.178 15.8092 113.298 15.4492 113.314 15.0012C113.346 14.5372 113.362 14.0092 113.362 13.4172V3.33725C113.362 2.90525 113.37 2.53725 113.386 2.23325C113.402 1.91325 113.418 1.64925 113.434 1.44125C113.146 1.45725 112.858 1.47325 112.57 1.48925C112.282 1.50525 111.994 1.52125 111.706 1.53725V0.481249C112.586 0.465249 113.466 0.457249 114.346 0.457249C115.242 0.441249 116.17 0.433249 117.13 0.433249C118.986 0.433249 120.434 0.76125 121.474 1.41725C122.53 2.07325 123.042 3.11325 123.01 4.53725C123.01 5.04925 122.858 5.56125 122.554 6.07325C122.266 6.58525 121.826 7.04125 121.234 7.44125C120.658 7.82525 119.93 8.09725 119.05 8.25725V8.30525C120.81 8.30525 122.138 8.71325 123.034 9.52925C123.93 10.3292 124.378 11.3452 124.378 12.5772C124.378 13.5532 124.13 14.3932 123.634 15.0972C123.138 15.8012 122.466 16.3452 121.618 16.7292C120.77 17.0972 119.802 17.2812 118.714 17.2812H111.706ZM115.378 16.3212C115.634 16.3372 115.938 16.3532 116.29 16.3692C116.658 16.3692 116.994 16.3692 117.298 16.3692C117.618 16.3692 117.826 16.3692 117.922 16.3692C119.154 16.3692 120.146 16.0652 120.898 15.4572C121.666 14.8332 122.05 13.9212 122.05 12.7212C122.05 11.7452 121.858 10.9852 121.474 10.4412C121.09 9.89725 120.586 9.51325 119.962 9.28925C119.338 9.06525 118.658 8.95325 117.922 8.95325C117.442 8.95325 117.002 8.96125 116.602 8.97725C116.218 8.97725 115.834 8.99325 115.45 9.02525V14.4492C115.45 14.8812 115.442 15.2492 115.426 15.5532C115.426 15.8572 115.41 16.1132 115.378 16.3212ZM115.45 8.08925L117.202 8.04125C118.114 8.02525 118.834 7.84125 119.362 7.48925C119.89 7.12125 120.266 6.66525 120.49 6.12125C120.73 5.57725 120.842 5.00925 120.826 4.41725C120.81 3.55325 120.61 2.89725 120.226 2.44925C119.858 2.00125 119.402 1.69725 118.858 1.53725C118.314 1.37725 117.778 1.29725 117.25 1.29725C116.722 1.29725 116.33 1.36925 116.074 1.51325C115.818 1.65725 115.65 1.89725 115.57 2.23325C115.49 2.56925 115.45 3.03325 115.45 3.62525V8.08925ZM132.035 1.27325C131.443 1.28925 131.027 1.42525 130.787 1.68125C130.563 1.93725 130.435 2.28125 130.403 2.71325C130.387 3.14525 130.379 3.64925 130.379 4.22525V7.51325L132.323 7.44125C133.651 7.40925 134.755 7.50525 135.635 7.72925C136.531 7.93725 137.251 8.25725 137.795 8.68925C138.339 9.12125 138.723 9.63325 138.947 10.2253C139.187 10.8173 139.307 11.4652 139.307 12.1692C139.307 13.2892 139.059 14.2332 138.563 15.0012C138.067 15.7532 137.395 16.3212 136.547 16.7052C135.699 17.0892 134.731 17.2812 133.643 17.2812H126.635V16.4893C127.227 16.4732 127.635 16.3452 127.859 16.1052C128.083 15.8492 128.211 15.5052 128.243 15.0732C128.275 14.6252 128.291 14.1132 128.291 13.5372V3.16925C128.291 2.84925 128.299 2.54525 128.315 2.25725C128.331 1.95325 128.347 1.68125 128.363 1.44125C128.075 1.45725 127.787 1.47325 127.499 1.48925C127.211 1.50525 126.923 1.52125 126.635 1.53725V0.481249H132.035V1.27325ZM130.379 14.4492C130.379 14.8812 130.371 15.2492 130.355 15.5532C130.355 15.8572 130.339 16.1132 130.307 16.3212C130.563 16.3372 130.867 16.3532 131.219 16.3692C131.587 16.3692 131.923 16.3692 132.227 16.3692C132.547 16.3692 132.755 16.3692 132.851 16.3692C134.083 16.3692 135.075 16.0412 135.827 15.3852C136.595 14.7292 136.979 13.6892 136.979 12.2652C136.979 11.2412 136.787 10.4492 136.403 9.88925C136.019 9.32925 135.515 8.93725 134.891 8.71325C134.267 8.47325 133.587 8.35325 132.851 8.35325C132.371 8.35325 131.931 8.36125 131.531 8.37725C131.147 8.37725 130.763 8.39325 130.379 8.42525V14.4492ZM156.473 17.6653C155.129 17.6653 153.969 17.4253 152.993 16.9452C152.033 16.4492 151.233 15.7932 150.593 14.9772C149.953 14.1452 149.473 13.2332 149.153 12.2412C148.833 11.2332 148.657 10.2172 148.625 9.19325L145.145 9.26525V14.4252C145.145 14.8572 145.137 15.2332 145.121 15.5532C145.121 15.8572 145.105 16.1132 145.073 16.3212C145.361 16.3052 145.649 16.2892 145.937 16.2732C146.225 16.2572 146.513 16.2412 146.801 16.2252V17.2812H141.401V16.4893C142.009 16.4572 142.425 16.3212 142.649 16.0812C142.873 15.8252 142.993 15.4812 143.009 15.0492C143.041 14.6012 143.057 14.0972 143.057 13.5372V3.16925C143.057 2.84925 143.065 2.54525 143.081 2.25725C143.097 1.95325 143.113 1.68125 143.129 1.44125C142.841 1.45725 142.553 1.47325 142.265 1.48925C141.977 1.50525 141.689 1.52125 141.401 1.53725V0.481249H146.801V1.27325C146.209 1.28925 145.793 1.42525 145.553 1.68125C145.329 1.93725 145.201 2.28125 145.169 2.71325C145.153 3.14525 145.145 3.64925 145.145 4.22525V8.20925H148.649C148.713 7.24925 148.921 6.28925 149.273 5.32925C149.641 4.36925 150.137 3.49725 150.761 2.71325C151.401 1.91325 152.177 1.28125 153.089 0.817249C154.017 0.337249 155.081 0.0972495 156.281 0.0972495C157.753 0.0972495 159.025 0.361249 160.097 0.889249C161.169 1.41725 162.049 2.12125 162.737 3.00125C163.441 3.86525 163.961 4.80925 164.297 5.83325C164.649 6.85725 164.825 7.87325 164.825 8.88125C164.825 9.87325 164.657 10.8892 164.321 11.9292C163.985 12.9532 163.465 13.9052 162.761 14.7852C162.073 15.6492 161.209 16.3452 160.169 16.8732C159.129 17.4013 157.897 17.6653 156.473 17.6653ZM156.521 16.6812C157.513 16.6812 158.377 16.4732 159.113 16.0572C159.849 15.6252 160.457 15.0572 160.937 14.3532C161.433 13.6332 161.801 12.8412 162.041 11.9772C162.297 11.0972 162.425 10.2172 162.425 9.33725C162.425 8.34525 162.289 7.36125 162.017 6.38525C161.745 5.40925 161.345 4.52125 160.817 3.72125C160.289 2.92125 159.633 2.28125 158.849 1.80125C158.081 1.30525 157.201 1.05725 156.209 1.05725C155.361 1.05725 154.609 1.27325 153.953 1.70525C153.313 2.13725 152.769 2.71325 152.321 3.43325C151.889 4.13725 151.561 4.92925 151.337 5.80925C151.113 6.67325 151.001 7.55325 151.001 8.44925C151.001 9.32925 151.113 10.2492 151.337 11.2092C151.577 12.1692 151.921 13.0652 152.369 13.8972C152.833 14.7292 153.409 15.4012 154.097 15.9132C154.785 16.4252 155.593 16.6812 156.521 16.6812ZM168.179 21.5773L167.531 21.0973C167.707 20.8733 167.891 20.5533 168.083 20.1373C168.275 19.7213 168.427 19.2573 168.539 18.7453C168.667 18.2493 168.699 17.7613 168.635 17.2812C168.523 17.3293 168.419 17.3613 168.323 17.3773C168.227 17.4093 168.131 17.4253 168.035 17.4253C167.731 17.4253 167.467 17.3132 167.243 17.0892C167.035 16.8652 166.931 16.5852 166.931 16.2492C166.931 15.8012 167.059 15.4572 167.315 15.2172C167.587 14.9772 167.899 14.8572 168.251 14.8572C168.811 14.8572 169.235 15.0732 169.523 15.5052C169.811 15.9212 169.955 16.4332 169.955 17.0412C169.955 17.4413 169.875 17.9293 169.715 18.5053C169.571 19.0813 169.363 19.6413 169.091 20.1853C168.835 20.7453 168.531 21.2093 168.179 21.5773ZM0.10893 48.2812V47.4893C0.58893 47.4893 0.95693 47.3612 1.21293 47.1052C1.46893 46.8492 1.67693 46.4972 1.83693 46.0492C2.01293 45.6012 2.21293 45.0812 2.43693 44.4892L7.38093 31.0252H7.95693L13.3089 44.6812C13.4369 45.0172 13.5809 45.4492 13.7409 45.9772C13.9009 46.5052 13.9649 46.9532 13.9329 47.3212C14.2049 47.3052 14.4769 47.2892 14.7489 47.2732C15.0209 47.2572 15.2929 47.2412 15.5649 47.2252V48.2812H10.0689V47.4893C10.6769 47.4732 11.0769 47.3372 11.2689 47.0812C11.4609 46.8252 11.5329 46.5212 11.4849 46.1692C11.4369 45.8172 11.3569 45.4972 11.2449 45.2092L10.4049 42.9532L4.16493 43.0972L3.32493 45.6652C3.21293 46.0492 3.10893 46.3532 3.01293 46.5772C2.93293 46.8012 2.83693 47.0492 2.72493 47.3212C3.04493 47.3052 3.35693 47.2892 3.66093 47.2732C3.98093 47.2572 4.29293 47.2412 4.59693 47.2252V48.2812H0.10893ZM4.52493 42.0652H10.0689L8.36493 37.4812C8.18893 36.9852 8.00493 36.4972 7.81293 36.0172C7.63693 35.5212 7.46093 35.0252 7.28493 34.5292H7.23693C7.07693 34.9772 6.90893 35.4252 6.73293 35.8732C6.57293 36.3212 6.40493 36.7772 6.22893 37.2412L4.52493 42.0652ZM16.5964 48.2812V47.4893C17.2044 47.4572 17.6204 47.3212 17.8444 47.0812C18.0684 46.8252 18.1884 46.4812 18.2044 46.0492C18.2364 45.6012 18.2524 45.0972 18.2524 44.5372V34.1693C18.2524 33.8492 18.2604 33.5452 18.2764 33.2572C18.2924 32.9532 18.3084 32.6812 18.3244 32.4412C18.0364 32.4572 17.7484 32.4732 17.4604 32.4892C17.1724 32.5052 16.8844 32.5212 16.5964 32.5372V31.4812H21.9964V32.2732C21.4044 32.2892 20.9884 32.4252 20.7484 32.6812C20.5244 32.9372 20.3964 33.2812 20.3644 33.7132C20.3484 34.1452 20.3404 34.6492 20.3404 35.2252V39.2092H28.9324V34.1693C28.9324 33.8492 28.9404 33.5452 28.9564 33.2572C28.9724 32.9532 28.9884 32.6812 29.0044 32.4412C28.7164 32.4572 28.4284 32.4732 28.1404 32.4892C27.8524 32.5052 27.5644 32.5212 27.2764 32.5372V31.4812H32.6764V32.2732C32.0844 32.2892 31.6684 32.4252 31.4284 32.6812C31.2044 32.9372 31.0764 33.2812 31.0444 33.7132C31.0284 34.1452 31.0204 34.6492 31.0204 35.2252V45.4252C31.0204 45.8572 31.0124 46.2332 30.9964 46.5532C30.9964 46.8572 30.9804 47.1132 30.9484 47.3212C31.2364 47.3052 31.5244 47.2892 31.8124 47.2732C32.1004 47.2572 32.3884 47.2412 32.6764 47.2252V48.2812H27.2764V47.4893C27.8844 47.4572 28.3004 47.3212 28.5244 47.0812C28.7484 46.8252 28.8684 46.4812 28.8844 46.0492C28.9164 45.6012 28.9324 45.0972 28.9324 44.5372V40.1692L20.3404 40.2652V45.4252C20.3404 45.8572 20.3324 46.2332 20.3164 46.5532C20.3164 46.8572 20.3004 47.1132 20.2684 47.3212C20.5564 47.3052 20.8444 47.2892 21.1324 47.2732C21.4204 47.2572 21.7084 47.2412 21.9964 47.2252V48.2812H16.5964ZM47.8989 36.5452C47.8829 35.6012 47.7869 34.8172 47.6109 34.1932C47.4349 33.5692 47.1229 33.1052 46.6749 32.8012C46.2429 32.4812 45.6109 32.3292 44.7789 32.3452H42.7389L42.7149 45.4252C42.7149 45.8572 42.7069 46.2332 42.6909 46.5532C42.6909 46.8572 42.6749 47.1132 42.6429 47.3212C42.9789 47.3052 43.3069 47.2892 43.6269 47.2732C43.9629 47.2572 44.2989 47.2412 44.6349 47.2252V48.2812H38.9949V47.4893C39.6029 47.4572 40.0109 47.3132 40.2189 47.0572C40.4429 46.8012 40.5629 46.4572 40.5789 46.0252C40.6109 45.5772 40.6269 45.0812 40.6269 44.5372L40.6509 32.3692L38.1789 32.3932C37.1709 32.3932 36.4589 32.7292 36.0429 33.4012C35.6269 34.0732 35.4189 35.1212 35.4189 36.5452H34.5309L34.6749 31.4812H48.6669L48.8109 36.5452H47.8989ZM59.0025 48.6653C57.4825 48.6653 56.1785 48.4093 55.0905 47.8972C54.0025 47.3852 53.1145 46.7052 52.4265 45.8572C51.7545 44.9932 51.2585 44.0412 50.9385 43.0012C50.6185 41.9612 50.4585 40.9212 50.4585 39.8812C50.4585 38.8732 50.6265 37.8572 50.9625 36.8332C51.2985 35.7932 51.8105 34.8412 52.4985 33.9772C53.2025 33.1132 54.0745 32.4172 55.1145 31.8892C56.1705 31.3612 57.4025 31.0972 58.8105 31.0972C60.2825 31.0972 61.5545 31.3612 62.6265 31.8892C63.6985 32.4172 64.5785 33.1212 65.2665 34.0012C65.9705 34.8652 66.4905 35.8092 66.8265 36.8332C67.1785 37.8572 67.3545 38.8732 67.3545 39.8812C67.3545 40.8732 67.1865 41.8892 66.8505 42.9292C66.5145 43.9532 65.9945 44.9052 65.2905 45.7852C64.6025 46.6492 63.7385 47.3452 62.6985 47.8732C61.6585 48.4013 60.4265 48.6653 59.0025 48.6653ZM59.0505 47.6812C60.0425 47.6812 60.9065 47.4732 61.6425 47.0572C62.3785 46.6252 62.9865 46.0572 63.4665 45.3532C63.9625 44.6332 64.3305 43.8412 64.5705 42.9772C64.8265 42.0972 64.9545 41.2172 64.9545 40.3372C64.9545 39.3452 64.8185 38.3612 64.5465 37.3852C64.2745 36.4092 63.8745 35.5212 63.3465 34.7213C62.8185 33.9212 62.1625 33.2812 61.3785 32.8012C60.6105 32.3052 59.7305 32.0572 58.7385 32.0572C57.7465 32.0572 56.8745 32.2732 56.1225 32.7052C55.3865 33.1372 54.7705 33.7132 54.2745 34.4332C53.7945 35.1372 53.4265 35.9292 53.1705 36.8092C52.9305 37.6732 52.8105 38.5532 52.8105 39.4492C52.8105 40.3292 52.9305 41.2492 53.1705 42.2092C53.4265 43.1692 53.8105 44.0652 54.3225 44.8972C54.8345 45.7292 55.4825 46.4012 56.2665 46.9132C57.0505 47.4252 57.9785 47.6812 59.0505 47.6812ZM81.7661 36.5452C81.7501 35.6012 81.6541 34.8172 81.4781 34.1932C81.3021 33.5692 80.9901 33.1052 80.5421 32.8012C80.1101 32.4812 79.4781 32.3292 78.6461 32.3452H76.6061L76.5821 45.4252C76.5821 45.8572 76.5741 46.2332 76.5581 46.5532C76.5581 46.8572 76.5421 47.1132 76.5101 47.3212C76.8461 47.3052 77.1741 47.2892 77.4941 47.2732C77.8301 47.2572 78.1661 47.2412 78.5021 47.2252V48.2812H72.8621V47.4893C73.4701 47.4572 73.8781 47.3132 74.0861 47.0572C74.3101 46.8012 74.4301 46.4572 74.4461 46.0252C74.4781 45.5772 74.4941 45.0812 74.4941 44.5372L74.5181 32.3692L72.0461 32.3932C71.0381 32.3932 70.3261 32.7292 69.9101 33.4012C69.4941 34.0732 69.2861 35.1212 69.2861 36.5452H68.3981L68.5421 31.4812H82.5341L82.6781 36.5452H81.7661ZM96.2464 32.2732C95.6544 32.2892 95.2384 32.4252 94.9984 32.6812C94.7744 32.9372 94.6464 33.2812 94.6144 33.7132C94.5984 34.1452 94.5904 34.6492 94.5904 35.2252V45.4252C94.5904 45.8572 94.5824 46.2332 94.5664 46.5532C94.5664 46.8572 94.5504 47.1132 94.5184 47.3212C94.8064 47.3052 95.0944 47.2892 95.3824 47.2732C95.6704 47.2572 95.9584 47.2412 96.2464 47.2252V48.2812H90.8464V47.4893C91.4544 47.4572 91.8704 47.3212 92.0944 47.0812C92.3184 46.8252 92.4384 46.4812 92.4544 46.0492C92.4864 45.6012 92.5024 45.0972 92.5024 44.5372V34.1693C92.5024 33.8492 92.5104 33.5452 92.5264 33.2572C92.5424 32.9532 92.5584 32.6812 92.5744 32.4412C92.2864 32.4572 91.9984 32.4732 91.7104 32.4892C91.4224 32.5052 91.1344 32.5212 90.8464 32.5372V31.4812H96.2464V32.2732ZM107.166 32.2732C106.574 32.2892 106.158 32.4252 105.918 32.6812C105.694 32.9372 105.566 33.2812 105.534 33.7132C105.518 34.1452 105.51 34.6492 105.51 35.2252V45.4252C105.51 45.8572 105.502 46.2332 105.486 46.5532C105.486 46.8572 105.47 47.1132 105.438 47.3212C105.726 47.3052 106.014 47.2892 106.302 47.2732C106.59 47.2572 106.878 47.2412 107.166 47.2252V48.2812H101.766V47.4893C102.374 47.4572 102.79 47.3212 103.014 47.0812C103.238 46.8252 103.358 46.4812 103.374 46.0492C103.406 45.6012 103.422 45.0972 103.422 44.5372V34.1693C103.422 33.8492 103.43 33.5452 103.446 33.2572C103.462 32.9532 103.478 32.6812 103.494 32.4412C103.206 32.4572 102.918 32.4732 102.63 32.4892C102.342 32.5052 102.054 32.5212 101.766 32.5372V31.4812H107.166V32.2732ZM104.022 32.6572L104.694 33.3052L93.7024 47.0332L92.9584 46.3372L104.022 32.6572ZM114.648 48.2812V47.4893C115.128 47.4893 115.496 47.3612 115.752 47.1052C116.008 46.8492 116.216 46.4972 116.376 46.0492C116.552 45.6012 116.752 45.0812 116.976 44.4892L121.92 31.0252H122.496L127.848 44.6812C127.976 45.0172 128.12 45.4492 128.28 45.9772C128.44 46.5052 128.504 46.9532 128.472 47.3212C128.744 47.3052 129.016 47.2892 129.288 47.2732C129.56 47.2572 129.832 47.2412 130.104 47.2252V48.2812H124.608V47.4893C125.216 47.4732 125.616 47.3372 125.808 47.0812C126 46.8252 126.072 46.5212 126.024 46.1692C125.976 45.8172 125.896 45.4972 125.784 45.2092L124.944 42.9532L118.704 43.0972L117.864 45.6652C117.752 46.0492 117.648 46.3532 117.552 46.5772C117.472 46.8012 117.376 47.0492 117.264 47.3212C117.584 47.3052 117.896 47.2892 118.2 47.2732C118.52 47.2572 118.832 47.2412 119.136 47.2252V48.2812H114.648ZM119.064 42.0652H124.608L122.904 37.4812C122.728 36.9852 122.544 36.4972 122.352 36.0172C122.176 35.5212 122 35.0252 121.824 34.5292H121.776C121.616 34.9772 121.448 35.4252 121.272 35.8732C121.112 36.3212 120.944 36.7772 120.768 37.2412L119.064 42.0652ZM131.135 48.2812V47.4893C131.743 47.4572 132.159 47.3212 132.383 47.0812C132.607 46.8252 132.727 46.4812 132.743 46.0492C132.775 45.6012 132.791 45.0972 132.791 44.5372V34.1693C132.791 33.8492 132.799 33.5452 132.815 33.2572C132.831 32.9532 132.847 32.6812 132.863 32.4412C132.575 32.4572 132.287 32.4732 131.999 32.4892C131.711 32.5052 131.423 32.5212 131.135 32.5372V31.4812H136.535V32.2732C135.943 32.2892 135.527 32.4252 135.287 32.6812C135.063 32.9372 134.935 33.2812 134.903 33.7132C134.887 34.1452 134.879 34.6492 134.879 35.2252V39.2092H143.471V34.1693C143.471 33.8492 143.479 33.5452 143.495 33.2572C143.511 32.9532 143.527 32.6812 143.543 32.4412C143.255 32.4572 142.967 32.4732 142.679 32.4892C142.391 32.5052 142.103 32.5212 141.815 32.5372V31.4812H147.215V32.2732C146.623 32.2892 146.207 32.4252 145.967 32.6812C145.743 32.9372 145.615 33.2812 145.583 33.7132C145.567 34.1452 145.559 34.6492 145.559 35.2252V45.4252C145.559 45.8572 145.551 46.2332 145.535 46.5532C145.535 46.8572 145.519 47.1132 145.487 47.3212C145.775 47.3052 146.063 47.2892 146.351 47.2732C146.639 47.2572 146.927 47.2412 147.215 47.2252V48.2812H141.815V47.4893C142.423 47.4572 142.839 47.3212 143.063 47.0812C143.287 46.8252 143.407 46.4812 143.423 46.0492C143.455 45.6012 143.471 45.0972 143.471 44.5372V40.1692L134.879 40.2652V45.4252C134.879 45.8572 134.871 46.2332 134.855 46.5532C134.855 46.8572 134.839 47.1132 134.807 47.3212C135.095 47.3052 135.383 47.2892 135.671 47.2732C135.959 47.2572 136.247 47.2412 136.535 47.2252V48.2812H131.135ZM149.862 48.2812V47.4893C150.47 47.4572 150.886 47.3212 151.11 47.0812C151.334 46.8252 151.454 46.4812 151.47 46.0492C151.502 45.6012 151.518 45.0972 151.518 44.5372V34.1693C151.518 33.8492 151.526 33.5452 151.542 33.2572C151.558 32.9532 151.574 32.6812 151.59 32.4412C151.302 32.4572 151.014 32.4732 150.726 32.4892C150.438 32.5052 150.15 32.5212 149.862 32.5372V31.4812H155.262V32.2732C154.67 32.2892 154.254 32.4252 154.014 32.6812C153.79 32.9372 153.662 33.2812 153.63 33.7132C153.614 34.1452 153.606 34.6492 153.606 35.2252V39.2092H162.198V34.1693C162.198 33.8492 162.206 33.5452 162.222 33.2572C162.238 32.9532 162.254 32.6812 162.27 32.4412C161.982 32.4572 161.694 32.4732 161.406 32.4892C161.118 32.5052 160.83 32.5212 160.542 32.5372V31.4812H165.942V32.2732C165.35 32.2892 164.934 32.4252 164.694 32.6812C164.47 32.9372 164.342 33.2812 164.31 33.7132C164.294 34.1452 164.286 34.6492 164.286 35.2252V45.4252C164.286 45.8572 164.278 46.2332 164.262 46.5532C164.262 46.8572 164.246 47.1132 164.214 47.3212C164.502 47.3052 164.79 47.2892 165.078 47.2732C165.366 47.2572 165.654 47.2412 165.942 47.2252V48.2812H160.542V47.4893C161.15 47.4572 161.566 47.3212 161.79 47.0812C162.014 46.8252 162.134 46.4812 162.15 46.0492C162.182 45.6012 162.198 45.0972 162.198 44.5372V40.1692L153.606 40.2652V45.4252C153.606 45.8572 153.598 46.2332 153.582 46.5532C153.582 46.8572 153.566 47.1132 153.534 47.3212C153.822 47.3052 154.11 47.2892 154.398 47.2732C154.686 47.2572 154.974 47.2412 155.262 47.2252V48.2812H149.862ZM167.125 48.2812V47.4893C167.605 47.4893 167.973 47.3612 168.229 47.1052C168.485 46.8492 168.693 46.4972 168.853 46.0492C169.029 45.6012 169.229 45.0812 169.453 44.4892L174.397 31.0252H174.973L180.325 44.6812C180.453 45.0172 180.597 45.4492 180.757 45.9772C180.917 46.5052 180.981 46.9532 180.949 47.3212C181.221 47.3052 181.493 47.2892 181.765 47.2732C182.037 47.2572 182.309 47.2412 182.581 47.2252V48.2812H177.085V47.4893C177.693 47.4732 178.093 47.3372 178.285 47.0812C178.477 46.8252 178.549 46.5212 178.501 46.1692C178.453 45.8172 178.373 45.4972 178.261 45.2092L177.421 42.9532L171.181 43.0972L170.341 45.6652C170.229 46.0492 170.125 46.3532 170.029 46.5772C169.949 46.8012 169.853 47.0492 169.741 47.3212C170.061 47.3052 170.373 47.2892 170.677 47.2732C170.997 47.2572 171.309 47.2412 171.613 47.2252V48.2812H167.125ZM171.541 42.0652H177.085L175.381 37.4812C175.205 36.9852 175.021 36.4972 174.829 36.0172C174.653 35.5212 174.477 35.0252 174.301 34.5292H174.253C174.093 34.9772 173.925 35.4252 173.749 35.8732C173.589 36.3212 173.421 36.7772 173.245 37.2412L171.541 42.0652Z" fill="white"></path></svg> 