<?xml version="1.0" encoding="UTF-8"?> <svg xmlns="http://www.w3.org/2000/svg" width="42" height="10" viewBox="0 0 42 10" fill="none"><path d="M0.609531 9.62695V9.19795C0.938865 9.18929 1.1642 9.11562 1.28553 8.97695C1.40686 8.82962 1.47186 8.63462 1.48053 8.39195C1.49786 8.14062 1.50653 7.85462 1.50653 7.53395V2.07395C1.50653 1.83995 1.51086 1.64062 1.51953 1.47595C1.5282 1.30262 1.53686 1.15962 1.54553 1.04695C1.38953 1.05562 1.23353 1.06429 1.07753 1.07295C0.921531 1.08162 0.765531 1.09029 0.609531 1.09895V0.526953C1.0862 0.518286 1.56286 0.513953 2.03953 0.513953C2.52486 0.505286 3.02753 0.500953 3.54753 0.500953C4.55286 0.500953 5.3372 0.67862 5.90053 1.03395C6.47253 1.38929 6.74986 1.95262 6.73253 2.72395C6.73253 3.00129 6.6502 3.27862 6.48553 3.55595C6.32953 3.83329 6.0912 4.08029 5.77053 4.29695C5.45853 4.50495 5.0642 4.65229 4.58753 4.73895V4.76495C5.54086 4.76495 6.2602 4.98595 6.74553 5.42795C7.23086 5.86129 7.47353 6.41162 7.47353 7.07895C7.47353 7.60762 7.3392 8.06262 7.07053 8.44395C6.80187 8.82529 6.43786 9.11995 5.97853 9.32795C5.5192 9.52729 4.99486 9.62695 4.40553 9.62695H0.609531ZM2.59853 9.10695C2.7372 9.11562 2.90186 9.12429 3.09253 9.13295C3.29186 9.13295 3.47386 9.13295 3.63853 9.13295C3.81186 9.13295 3.92453 9.13295 3.97653 9.13295C4.64386 9.13295 5.1812 8.96829 5.58853 8.63895C6.00453 8.30095 6.21253 7.80695 6.21253 7.15695C6.21253 6.62829 6.10853 6.21662 5.90053 5.92195C5.69253 5.62729 5.41953 5.41929 5.08153 5.29795C4.74353 5.17662 4.3752 5.11595 3.97653 5.11595C3.71653 5.11595 3.4782 5.12029 3.26153 5.12895C3.05353 5.12895 2.84553 5.13762 2.63753 5.15495V8.09295C2.63753 8.32695 2.6332 8.52629 2.62453 8.69095C2.62453 8.85562 2.61586 8.99429 2.59853 9.10695ZM2.63753 4.64795L3.58653 4.62195C4.08053 4.61329 4.47053 4.51362 4.75653 4.32295C5.04253 4.12362 5.2462 3.87662 5.36753 3.58195C5.49753 3.28729 5.5582 2.97962 5.54953 2.65895C5.54086 2.19095 5.43253 1.83562 5.22453 1.59295C5.0252 1.35029 4.7782 1.18562 4.48353 1.09895C4.18886 1.01229 3.89853 0.968953 3.61253 0.968953C3.32653 0.968953 3.1142 1.00795 2.97553 1.08595C2.83686 1.16395 2.74586 1.29395 2.70253 1.47595C2.6592 1.65795 2.63753 1.90929 2.63753 2.22995V4.64795ZM8.58219 9.62695V9.19795C8.91152 9.18062 9.13685 9.10695 9.25819 8.97695C9.37952 8.83829 9.44452 8.65195 9.45319 8.41795C9.47052 8.17529 9.47919 7.90229 9.47919 7.59895V1.98295C9.47919 1.80962 9.48352 1.64495 9.49219 1.48895C9.50085 1.32429 9.50952 1.17695 9.51819 1.04695C9.36219 1.05562 9.20619 1.06429 9.05019 1.07295C8.89419 1.08162 8.73819 1.09029 8.58219 1.09895V0.526953H11.5072V0.955952C11.1865 0.964619 10.9612 1.03829 10.8312 1.17695C10.7099 1.31562 10.6405 1.50195 10.6232 1.73595C10.6145 1.96995 10.6102 2.24295 10.6102 2.55495V8.13195C10.6102 8.36595 10.6059 8.56529 10.5972 8.72995C10.5972 8.89462 10.5885 9.03329 10.5712 9.14595L13.0022 9.10695C13.5482 9.09829 13.9599 8.92495 14.2372 8.58695C14.5232 8.24895 14.6662 7.69862 14.6662 6.93595H15.1082L15.0302 9.62695H8.58219ZM15.5206 9.62695V9.19795C15.7806 9.19795 15.98 9.12862 16.1186 8.98995C16.2573 8.85129 16.37 8.66062 16.4566 8.41795C16.552 8.17529 16.6603 7.89362 16.7816 7.57295L19.4596 0.279953H19.7716L22.6706 7.67695C22.74 7.85895 22.818 8.09295 22.9046 8.37895C22.9913 8.66495 23.026 8.90762 23.0086 9.10695C23.156 9.09829 23.3033 9.08962 23.4506 9.08095C23.598 9.07229 23.7453 9.06362 23.8926 9.05495V9.62695H20.9156V9.19795C21.245 9.18929 21.4616 9.11562 21.5656 8.97695C21.6696 8.83829 21.7086 8.67362 21.6826 8.48295C21.6566 8.29229 21.6133 8.11895 21.5526 7.96295L21.0976 6.74095L17.7176 6.81895L17.2626 8.20995C17.202 8.41795 17.1456 8.58262 17.0936 8.70395C17.0503 8.82529 16.9983 8.95962 16.9376 9.10695C17.111 9.09829 17.28 9.08962 17.4446 9.08095C17.618 9.07229 17.787 9.06362 17.9516 9.05495V9.62695H15.5206ZM17.9126 6.25995H20.9156L19.9926 3.77695C19.8973 3.50829 19.7976 3.24395 19.6936 2.98395C19.5983 2.71529 19.503 2.44662 19.4076 2.17795H19.3816C19.295 2.42062 19.204 2.66329 19.1086 2.90595C19.022 3.14862 18.931 3.39562 18.8356 3.64695L17.9126 6.25995ZM31.5769 3.42595C31.4902 2.61129 31.2042 1.97862 30.7189 1.52795C30.2422 1.07729 29.6269 0.851953 28.8729 0.851953C28.4135 0.851953 27.9802 0.95162 27.5729 1.15095C27.1742 1.34162 26.8232 1.61895 26.5199 1.98295C26.2165 2.34695 25.9782 2.78462 25.8049 3.29595C25.6315 3.80729 25.5449 4.38362 25.5449 5.02495C25.5449 5.83962 25.7009 6.55895 26.0129 7.18295C26.3249 7.80695 26.7452 8.29229 27.2739 8.63895C27.8025 8.98562 28.3875 9.15895 29.0289 9.15895C29.5922 9.15895 30.1469 9.03329 30.6929 8.78195C31.2389 8.52195 31.6852 8.14929 32.0319 7.66395L32.3699 7.93695C31.9972 8.44829 31.5942 8.84262 31.1609 9.11995C30.7275 9.39729 30.2942 9.58362 29.8609 9.67895C29.4362 9.78295 29.0462 9.83495 28.6909 9.83495C28.0409 9.83495 27.4429 9.71795 26.8969 9.48395C26.3595 9.24995 25.8915 8.92495 25.4929 8.50895C25.1029 8.08429 24.7995 7.59462 24.5829 7.03995C24.3749 6.47662 24.2709 5.86995 24.2709 5.21995C24.2709 4.60462 24.3619 4.00662 24.5439 3.42595C24.7345 2.84529 25.0162 2.32095 25.3889 1.85295C25.7615 1.38495 26.2295 1.01229 26.7929 0.734953C27.3649 0.45762 28.0279 0.318953 28.7819 0.318953C29.2672 0.318953 29.7265 0.383953 30.1599 0.513953C30.5932 0.643953 31.0092 0.843286 31.4079 1.11195L31.3429 0.409952H32.0449V3.42595H31.5769ZM33.4777 9.62695V9.19795C33.807 9.18062 34.0324 9.10695 34.1537 8.97695C34.275 8.83829 34.34 8.65195 34.3487 8.41795C34.366 8.17529 34.3747 7.90229 34.3747 7.59895V1.98295C34.3747 1.80962 34.379 1.64495 34.3877 1.48895C34.3964 1.32429 34.405 1.17695 34.4137 1.04695C34.2577 1.05562 34.1017 1.06429 33.9457 1.07295C33.7897 1.08162 33.6337 1.09029 33.4777 1.09895V0.526953H36.4027V0.955952C36.082 0.964619 35.8567 1.03829 35.7267 1.17695C35.6054 1.31562 35.536 1.50195 35.5187 1.73595C35.51 1.96995 35.5057 2.24295 35.5057 2.55495V4.68695H36.4807L38.1057 2.12595C38.2184 1.95262 38.357 1.76195 38.5217 1.55395C38.6864 1.34595 38.8554 1.17262 39.0287 1.03395C38.8987 1.04262 38.7644 1.04695 38.6257 1.04695C38.4957 1.04695 38.3657 1.05129 38.2357 1.05995V0.526953H41.0307V0.955952C40.6667 0.981953 40.3417 1.04262 40.0557 1.13795C39.7697 1.23329 39.4967 1.40229 39.2367 1.64495C38.9767 1.87895 38.6994 2.23429 38.4047 2.71095L37.1307 4.73895C37.382 4.88629 37.5857 5.05962 37.7417 5.25895C37.8977 5.44962 38.0537 5.64462 38.2097 5.84395L39.6657 7.78095C39.995 8.21429 40.2637 8.53495 40.4717 8.74295C40.6884 8.94229 40.879 9.06795 41.0437 9.11995C41.217 9.17195 41.3947 9.19795 41.5767 9.19795V9.62695H39.9907C39.904 9.62695 39.787 9.56629 39.6397 9.44495C39.501 9.32362 39.3494 9.16762 39.1847 8.97695C39.02 8.77762 38.851 8.56962 38.6777 8.35295L37.1177 6.24695C36.953 6.03029 36.7884 5.82662 36.6237 5.63595C36.459 5.43662 36.2987 5.28929 36.1427 5.19395L35.5057 5.20695V8.07995C35.5057 8.31395 35.5014 8.51762 35.4927 8.69095C35.4927 8.85562 35.484 8.99429 35.4667 9.10695C35.6227 9.09829 35.7787 9.08962 35.9347 9.08095C36.0907 9.07229 36.2467 9.06362 36.4027 9.05495V9.62695H33.4777Z" fill="white"></path></svg> 