<?xml version="1.0" encoding="UTF-8"?> <svg xmlns="http://www.w3.org/2000/svg" width="324" height="64" viewBox="0 0 324 64" fill="none"><path d="M10.9178 32.7013L13.3178 24.6373C14.2138 22.7173 15.0778 21.5973 15.9098 21.2773C16.9978 20.9573 17.2538 21.3093 16.6778 22.3333C16.1018 23.2933 15.3658 24.9573 14.4698 27.3253L13.6058 29.9173L12.3578 33.0853C12.8058 32.5733 13.3498 31.9013 13.9898 31.0693L15.6218 28.8613C16.9018 27.1333 17.9898 25.9173 18.8858 25.2133C20.2298 24.1253 21.1898 23.9973 21.7658 24.8293C22.3418 25.5973 22.3418 26.7813 21.7658 28.3813L20.1338 28.4773C21.4138 26.8133 21.6058 25.9173 20.7098 25.7893C19.1098 26.8133 17.4458 28.6693 15.7178 31.3573L16.0058 32.7973C15.8778 34.2053 16.1338 35.4853 16.7738 36.6373C17.0938 37.6613 18.2778 37.0533 20.3258 34.8133C21.0298 34.0453 21.8298 33.0853 22.7258 31.9333L23.3018 31.2613L23.7818 30.6853C24.1018 30.3013 24.3258 30.0133 24.4538 29.8213C24.5178 29.7573 24.5818 29.6613 24.6458 29.5333L24.9338 29.1493C25.1898 28.8293 25.3498 28.7333 25.4138 28.8613C26.1178 28.9893 26.4058 29.2453 26.2778 29.6293C26.0218 30.3973 24.9338 31.9013 23.0138 34.1413C21.0298 36.4453 19.6858 37.7253 18.9818 37.9813C17.3818 38.7493 16.1978 38.5253 15.4298 37.3093C14.7898 36.4773 14.4378 35.1333 14.3738 33.2773C13.8618 33.9813 13.2218 34.9413 12.4538 36.1573L11.5898 37.7893L10.5338 39.5173C9.57378 39.6453 9.02978 39.5813 8.90178 39.3253C8.77378 39.1333 8.80578 38.6533 8.99778 37.8853L9.95778 34.8133L10.0538 34.6213C9.86178 34.5573 9.76578 34.3973 9.76578 34.1413C8.42178 35.9973 7.14178 37.3413 5.92578 38.1733C4.32578 39.3893 2.98178 39.6133 1.89378 38.8453C1.38178 38.5893 1.02978 37.9173 0.837778 36.8293C0.581778 35.6773 0.581778 34.7173 0.837778 33.9493C0.965778 33.5653 1.41378 33.3093 2.18178 33.1813C2.37378 33.0533 2.46978 33.1493 2.46978 33.4693L2.56578 33.8533C2.50178 33.9813 2.46978 34.0773 2.46978 34.1413C2.46978 34.3333 2.50178 34.6213 2.56578 35.0053L2.66178 35.5813C3.36578 37.1173 4.16578 37.7573 5.06178 37.5013C6.46978 36.3493 7.58978 35.0693 8.42178 33.6613L9.66978 32.2213C9.79778 29.5333 9.41378 27.6773 8.51778 26.6533C7.55778 26.7813 7.14178 27.6773 7.26978 29.3413L5.73378 29.2453C6.24578 27.6453 7.04578 26.4613 8.13378 25.6933C9.28578 24.8613 10.1818 24.9893 10.8218 26.0773C11.2058 26.7813 11.3338 27.8693 11.2058 29.3413L10.9178 32.7013ZM33.5453 29.3413C31.1133 26.3333 28.9053 26.3653 26.9213 29.4373C25.8333 31.1013 25.2573 32.7653 25.1933 34.4293C25.1293 36.0933 25.6413 36.6053 26.7293 35.9653L27.4013 35.5813L28.0733 35.1013C28.7133 34.6533 29.3213 34.2053 29.8973 33.7573C31.3053 32.4773 32.5213 31.0053 33.5453 29.3413ZM31.7213 41.1493C34.0893 40.5093 36.8733 40.2533 40.0733 40.3813C43.6573 40.5093 46.5053 41.1493 48.6173 42.3013C49.0013 42.4933 49.1933 42.7173 49.1933 42.9733C49.1293 43.1653 48.9693 43.3253 48.7133 43.4533C42.6333 41.0853 36.7453 40.9253 31.0493 42.9733C30.4733 44.5733 29.8333 46.4613 29.1293 48.6373L28.3613 51.2293C28.0413 52.2533 27.7213 53.1813 27.4013 54.0133C27.0173 55.1013 26.6333 56.1253 26.2493 57.0853C25.6733 58.3653 25.0653 59.4533 24.4253 60.3493C22.7613 62.7813 21.0013 63.7093 19.1453 63.1333C17.0333 62.4293 16.0413 60.4133 16.1693 57.0853C17.0013 49.9173 21.4493 44.8293 29.5133 41.8213C29.6413 41.4373 29.8653 40.8293 30.1853 39.9973L30.5693 38.8453L31.0493 37.5973C31.7533 35.5493 32.2333 34.1093 32.4893 33.2773C31.7853 34.1733 31.0173 34.9413 30.1853 35.5813C29.1613 36.4773 28.0413 37.0853 26.8253 37.4053C24.5853 37.4693 23.3693 36.4133 23.1773 34.2373C22.9853 32.3173 23.5613 30.3013 24.9053 28.1893C25.9293 26.5253 27.3053 25.5973 29.0333 25.4053C30.8253 25.2133 32.5213 25.9173 34.1213 27.5173L34.4093 26.9413L34.6973 26.2693C34.8893 25.8213 35.1133 25.5013 35.3693 25.3093C36.0093 25.1813 36.5213 25.3093 36.9053 25.6933C36.4573 27.4213 35.6573 29.9493 34.5053 33.2773L33.7373 35.3893L33.0653 37.4053C32.4893 39.0053 32.0413 40.2533 31.7213 41.1493ZM19.7213 61.8853C20.7453 61.9493 21.8013 61.0853 22.8893 59.2933C23.2733 58.7173 23.6573 57.9813 24.0413 57.0853L24.4253 56.1253L24.6173 55.6453L24.8093 55.2613C25.5773 53.3413 26.4093 51.1013 27.3053 48.5413L27.7853 47.1013L28.1693 45.9493C28.4253 45.1173 28.6173 44.5413 28.7453 44.2213L27.2093 44.7973L25.6733 45.4693C24.5853 45.9813 23.6253 46.6213 22.7933 47.3893C21.1933 48.7973 19.9133 50.6213 18.9533 52.8613C17.9293 55.2293 17.5453 57.4373 17.8013 59.4853C17.9933 61.0213 18.6333 61.8213 19.7213 61.8853ZM40.2938 31.8373C44.0058 30.3013 46.3418 28.9573 47.3018 27.8053C47.8138 27.1653 47.8778 26.5573 47.4938 25.9813C47.1098 25.3413 46.2458 25.3733 44.9018 26.0773C44.0058 26.5893 43.0458 27.3893 42.0218 28.4773C40.9338 29.7573 40.3578 30.8773 40.2938 31.8373ZM44.9978 24.0613C46.2138 23.9333 47.2058 24.2213 47.9738 24.9253C48.7418 25.6293 49.0618 26.5253 48.9338 27.6133C48.4858 30.2373 45.5418 32.3493 40.1018 33.9493C40.2298 38.1093 42.0538 38.9413 45.5738 36.4453C46.7258 35.6773 47.9418 34.5893 49.2218 33.1813C49.7338 32.6693 50.1498 32.2213 50.4698 31.8373C50.7898 31.4533 50.9818 31.1973 51.0458 31.0693C51.3658 30.8133 51.6538 30.8133 51.9098 31.0693C52.1658 31.2613 52.2938 31.5493 52.2938 31.9333C51.5898 32.9573 50.7578 33.9493 49.7978 34.9093C48.6458 36.1253 47.4938 37.1173 46.3418 37.8853C43.3338 39.8693 40.9338 39.8053 39.1418 37.6933C37.4778 35.8373 37.4138 33.1813 38.9498 29.7253C40.4218 26.2693 42.4378 24.3813 44.9978 24.0613ZM64.4813 34.3333C64.0333 34.7813 63.5853 35.2613 63.1373 35.7733C62.3693 36.4773 61.7933 36.9893 61.4093 37.3093C59.1053 39.1653 57.8893 38.8773 57.7613 36.4453C57.6973 35.5493 57.8253 34.5253 58.1453 33.3733C58.4013 32.2853 58.7533 31.4213 59.2013 30.7813L58.9133 31.1653L58.5293 31.6453C58.1453 32.0933 57.8253 32.4773 57.5693 32.7973C56.7373 33.7573 55.9693 34.5573 55.2653 35.1973C53.2173 36.9893 51.7133 37.4053 50.7533 36.4453L50.5613 36.2533L50.3693 35.9653C50.1773 35.7093 50.0813 35.5173 50.0813 35.3893C49.6973 34.3653 50.0813 32.5733 51.2333 30.0133C51.6813 28.6053 52.3853 27.5493 53.3453 26.8453C53.4733 26.8453 53.6333 26.8773 53.8253 26.9413C54.0813 27.0053 54.3053 27.1013 54.4973 27.2293C54.9453 27.5493 55.1053 27.8693 54.9773 28.1893C54.2093 28.9573 53.5693 30.0133 53.0573 31.3573C51.9053 33.8533 51.5533 35.1653 52.0013 35.2933C52.7693 35.4213 54.2413 34.2053 56.4173 31.6453C58.3373 29.3413 60.0333 26.7493 61.5053 23.8693C62.2093 22.5893 63.0413 22.5573 64.0013 23.7733C63.8733 24.0933 63.3933 25.3733 62.5613 27.6133L61.8893 29.2453L61.2173 30.9733C60.0653 33.9813 59.5213 35.8693 59.5853 36.6373C60.2253 36.5733 61.4413 35.4533 63.2333 33.2773L64.2893 31.9333L65.2493 30.7813C65.6973 30.2053 66.0493 29.7573 66.3053 29.4373L68.5133 23.8693C68.8973 22.5893 69.5693 22.5573 70.5293 23.7733C70.4013 24.0933 69.9213 25.3733 69.0893 27.6133L68.4173 29.2453L67.7453 30.9733C66.5933 33.9813 66.0493 35.8693 66.1133 36.6373C66.7533 36.5733 67.9693 35.4533 69.7613 33.2773L70.8173 31.9333L71.7773 30.7813C72.4173 29.8853 72.8653 29.3093 73.1213 29.0533C74.2093 29.4373 73.8253 30.8133 71.9693 33.1813C71.2653 34.0133 70.4973 34.8773 69.6653 35.7733C68.8973 36.4773 68.3213 36.9893 67.9373 37.3093C65.6333 39.1653 64.4173 38.8773 64.2893 36.4453C64.2253 35.8053 64.2893 35.1013 64.4813 34.3333ZM88.446 37.2133C89.15 37.9173 90.398 36.9253 92.19 34.2373C92.83 33.2773 93.438 32.2533 94.014 31.1653C94.526 30.1413 94.846 29.4693 94.974 29.1493C90.814 31.1333 88.638 33.8213 88.446 37.2133ZM95.07 25.8853C93.79 26.2693 92.574 27.0373 91.422 28.1893C90.654 29.0213 89.822 30.1733 88.926 31.6453C90.526 29.4053 92.67 27.9013 95.358 27.1333V26.7493L95.262 26.3653C95.262 26.1093 95.198 25.9493 95.07 25.8853ZM98.046 3.51734C97.15 3.19734 95.998 4.09334 94.59 6.20534C93.31 8.06134 91.742 11.9013 89.886 17.7253C89.182 19.8373 88.542 21.8853 87.966 23.8693C87.454 25.6613 87.166 26.7813 87.102 27.2293C92.478 20.8293 96.222 14.9093 98.334 9.46934C98.91 7.99734 99.166 6.68534 99.102 5.53334C98.974 4.38134 98.622 3.70934 98.046 3.51734ZM85.662 33.4693C85.726 33.3413 85.918 33.0533 86.238 32.6053L86.526 32.0293L87.006 31.3573C87.774 30.2053 88.478 29.2133 89.118 28.3813C91.23 25.6933 93.054 24.3813 94.59 24.4453C95.614 24.5093 96.478 25.2133 97.182 26.5573L97.95 26.4613L99.006 26.3653C99.838 26.3653 100.574 26.3973 101.214 26.4613C102.878 26.6533 103.518 27.2933 103.134 28.3813C102.366 28.1893 101.342 28.0933 100.062 28.0933C98.718 28.0933 97.822 28.2213 97.374 28.4773C97.31 28.9253 97.086 29.5973 96.702 30.4933C96.254 31.5813 95.742 32.6373 95.166 33.6613C93.502 36.5413 91.806 38.1733 90.078 38.5573C88.862 38.8133 87.934 38.6213 87.294 37.9813C86.718 37.3413 86.558 36.4773 86.814 35.3893C85.214 37.6933 84.19 39.1973 83.742 39.9013C83.422 39.9013 83.102 39.8053 82.782 39.6133L82.494 39.4213L82.11 39.1333C82.622 36.7013 83.198 34.1733 83.838 31.5493C84.734 28.1573 85.598 24.9893 86.43 22.0453C88.67 14.3013 90.75 8.92534 92.67 5.91734C94.846 2.46134 96.958 1.30934 99.006 2.46134C100.99 3.67734 101.278 6.20534 99.87 10.0453C98.462 13.8213 96.478 17.5013 93.918 21.0853C92.958 22.4293 91.774 23.9973 90.366 25.7893L88.446 28.0933L86.526 30.4933C86.398 30.8773 86.11 31.8693 85.662 33.4693ZM107.485 36.6373C107.741 37.0213 108.445 36.5733 109.597 35.2933C110.045 34.8453 110.557 34.2693 111.133 33.5653L111.709 32.7013C111.901 32.5093 112.093 32.2853 112.285 32.0293C112.733 31.3893 113.245 31.1013 113.821 31.1653C114.333 31.2933 114.237 31.8693 113.533 32.8933C112.957 33.7253 112.189 34.6853 111.229 35.7733C110.205 36.9253 109.469 37.6293 109.021 37.8853C107.421 38.5253 106.365 38.3013 105.853 37.2133C105.405 36.2533 105.437 35.0053 105.949 33.4693C105.885 33.5333 105.533 33.8533 104.893 34.4293C104.317 35.0053 103.773 35.4853 103.261 35.8693C101.789 37.0213 100.605 37.4053 99.7088 37.0213C97.5328 35.9973 97.4048 33.9493 99.3248 30.8773C99.9648 29.8533 100.765 28.8933 101.725 27.9973C102.749 26.9093 103.741 26.1733 104.701 25.7893C106.749 24.9573 108.317 25.3733 109.405 27.0373C109.725 26.6533 110.077 26.6213 110.461 26.9413C110.845 27.3253 110.845 27.9013 110.461 28.6693L109.213 30.8773C108.573 32.0293 108.125 32.9573 107.869 33.6613C107.485 34.7493 107.357 35.7413 107.485 36.6373ZM99.9968 35.1973C99.9968 35.5813 100.445 35.4533 101.341 34.8133C102.109 34.3013 103.101 33.5333 104.317 32.5093C105.405 31.5493 106.365 30.6533 107.197 29.8213C108.029 28.8613 108.413 28.2853 108.349 28.0933C107.901 26.5573 106.429 26.8453 103.933 28.9573C102.973 29.7253 102.109 30.6533 101.341 31.7413C100.445 33.0853 99.9968 34.2373 99.9968 35.1973ZM112.829 36.5413C112.893 38.0133 113.437 38.8133 114.461 38.9413C115.293 39.0053 116.381 38.6213 117.725 37.7893C118.621 37.2133 119.805 36.1573 121.277 34.6213L122.141 33.7573L122.909 32.8933C123.485 32.3173 123.933 31.9013 124.253 31.6453C124.765 31.9013 125.021 32.2533 125.021 32.7013C125.021 33.1493 124.893 33.5013 124.637 33.7573C122.845 35.8693 120.925 37.6933 118.877 39.2293C117.533 40.1893 116.093 40.5413 114.557 40.2853C113.213 40.0933 112.157 39.4853 111.389 38.4613C110.045 36.5413 110.333 33.9173 112.253 30.5893C114.045 27.4533 116.125 25.4053 118.493 24.4453C120.093 24.0613 121.277 24.3493 122.045 25.3093C122.813 26.2693 122.717 27.4213 121.757 28.7653L121.469 29.1493L121.085 29.6293C120.829 29.9493 120.573 30.1733 120.317 30.3013C119.741 30.6853 119.293 30.3653 118.973 29.3413L119.357 28.7653L119.837 28.1893C120.285 27.6133 120.573 27.1333 120.701 26.7493C120.829 26.3013 120.765 25.9813 120.509 25.7893C120.253 25.5973 119.805 25.6613 119.165 25.9813C117.757 26.6213 116.317 28.1573 114.845 30.5893C113.309 33.0853 112.637 35.0693 112.829 36.5413ZM137.017 36.5413C137.081 38.0133 137.625 38.8133 138.649 38.9413C139.481 39.0053 140.569 38.6213 141.913 37.7893C142.809 37.2133 143.993 36.1573 145.465 34.6213L146.329 33.7573L147.097 32.8933C147.673 32.3173 148.121 31.9013 148.441 31.6453C148.953 31.9013 149.209 32.2533 149.209 32.7013C149.209 33.1493 149.081 33.5013 148.825 33.7573C147.033 35.8693 145.113 37.6933 143.065 39.2293C141.721 40.1893 140.281 40.5413 138.745 40.2853C137.401 40.0933 136.345 39.4853 135.577 38.4613C134.233 36.5413 134.521 33.9173 136.441 30.5893C138.233 27.4533 140.313 25.4053 142.681 24.4453C144.281 24.0613 145.465 24.3493 146.233 25.3093C147.001 26.2693 146.905 27.4213 145.945 28.7653L145.657 29.1493L145.273 29.6293C145.017 29.9493 144.761 30.1733 144.505 30.3013C143.929 30.6853 143.481 30.3653 143.161 29.3413L143.545 28.7653L144.025 28.1893C144.473 27.6133 144.761 27.1333 144.889 26.7493C145.017 26.3013 144.953 25.9813 144.697 25.7893C144.441 25.5973 143.993 25.6613 143.353 25.9813C141.945 26.6213 140.505 28.1573 139.033 30.5893C137.497 33.0853 136.825 35.0693 137.017 36.5413ZM170.612 30.4933L170.036 32.2213C169.396 34.2053 169.076 35.7413 169.076 36.8293C169.46 37.5973 170.452 36.9253 172.052 34.8133L173.012 33.4693L173.972 32.1253C174.74 31.0373 175.22 30.3653 175.412 30.1093C175.732 29.9173 176.02 29.9173 176.276 30.1093L176.564 30.4933L176.756 30.7813C176.436 31.1653 175.892 31.9333 175.124 33.0853L174.164 34.4293L173.108 35.7733C171.444 37.8853 170.1 38.8133 169.076 38.5573C167.476 38.1733 167.092 36.1893 167.924 32.6053C167.988 32.3493 168.052 32.1253 168.116 31.9333L167.732 32.1253L166.388 32.7973C164.084 34.0133 162.58 34.4933 161.876 34.2373C161.748 34.2373 161.652 34.2053 161.588 34.1413L159.86 38.6533C158.516 38.9093 157.972 38.4293 158.228 37.2133C158.292 36.7653 158.484 36.1573 158.804 35.3893L159.284 34.3333L159.668 33.3733L160.34 31.5493L161.012 29.8213C161.46 28.4773 161.812 27.1333 162.068 25.7893C162.9 25.3413 163.412 25.3413 163.604 25.7893C163.668 25.9813 163.7 26.2693 163.7 26.6533L163.604 27.5173L163.412 28.5733L163.124 29.6293C162.804 30.5253 162.644 31.0693 162.644 31.2613L162.26 32.3173C162.196 32.8293 162.996 32.6693 164.66 31.8373C165.236 31.5173 166.1 31.0373 167.252 30.3973L168.692 29.4373L168.884 29.3413C168.948 29.0853 169.044 28.7973 169.172 28.4773C169.62 27.2613 170.036 26.3653 170.42 25.7893H170.804C171.06 25.7893 171.284 25.8213 171.476 25.8853C172.052 26.0773 172.148 26.6213 171.764 27.5173C171.444 28.3493 171.156 29.0853 170.9 29.7253L170.708 30.3973V30.4933H170.612ZM176.231 31.8373C179.943 30.3013 182.279 28.9573 183.239 27.8053C183.751 27.1653 183.815 26.5573 183.431 25.9813C183.047 25.3413 182.183 25.3733 180.839 26.0773C179.943 26.5893 178.983 27.3893 177.959 28.4773C176.871 29.7573 176.295 30.8773 176.231 31.8373ZM180.935 24.0613C182.151 23.9333 183.143 24.2213 183.911 24.9253C184.679 25.6293 184.999 26.5253 184.871 27.6133C184.423 30.2373 181.479 32.3493 176.039 33.9493C176.167 38.1093 177.991 38.9413 181.511 36.4453C182.663 35.6773 183.879 34.5893 185.159 33.1813C185.671 32.6693 186.087 32.2213 186.407 31.8373C186.727 31.4533 186.919 31.1973 186.983 31.0693C187.303 30.8133 187.591 30.8133 187.847 31.0693C188.103 31.2613 188.231 31.5493 188.231 31.9333C187.527 32.9573 186.695 33.9493 185.735 34.9093C184.583 36.1253 183.431 37.1173 182.279 37.8853C179.271 39.8693 176.871 39.8053 175.079 37.6933C173.415 35.8373 173.351 33.1813 174.887 29.7253C176.359 26.2693 178.375 24.3813 180.935 24.0613ZM201.187 36.6373C201.251 35.8053 201.475 34.6853 201.859 33.2773L202.339 31.6453C202.531 31.0053 202.659 30.5573 202.723 30.3013C203.043 28.4453 202.595 28.0933 201.379 29.2453C200.547 30.0133 199.555 31.3253 198.403 33.1813L197.059 35.3893C196.547 36.2213 196.099 36.8933 195.715 37.4053C195.459 37.5333 195.139 37.5333 194.755 37.4053C194.371 37.2773 194.115 37.1173 193.987 36.9253C193.923 36.0933 194.051 34.9733 194.371 33.5653L194.947 31.5493L195.523 29.6293C196.483 26.4293 196.611 24.6053 195.907 24.1573C195.587 23.9653 195.075 24.2533 194.371 25.0213C194.179 25.2773 193.923 25.5973 193.603 25.9813L193.315 26.3653L193.027 26.7493C191.875 28.4133 190.659 30.5253 189.379 33.0853C188.163 35.3893 187.395 37.0533 187.075 38.0773C185.795 38.2693 185.155 37.9173 185.155 37.0213C185.091 36.7653 185.123 36.3813 185.251 35.8693L185.443 35.2933L185.539 34.8133C185.731 34.1733 185.923 33.5973 186.115 33.0853L186.595 31.1653C187.043 29.5653 187.299 28.0933 187.363 26.7493C188.579 26.4933 189.187 26.9093 189.187 27.9973C189.187 28.3813 189.123 28.8933 188.995 29.5333L188.803 30.3013L188.707 30.9733C189.027 30.3973 189.315 29.9173 189.571 29.5333L189.859 28.9573L190.051 28.5733C190.435 27.8693 191.011 26.9093 191.779 25.6933C192.483 24.7333 193.155 23.9973 193.795 23.4853C194.691 22.9093 195.587 22.7813 196.483 23.1013C197.955 23.6133 198.531 24.9253 198.211 27.0373C198.147 27.6773 197.955 28.5733 197.635 29.7253L197.251 30.9733C197.187 31.4213 197.123 31.8053 197.059 32.1253C197.379 31.5493 197.763 30.9733 198.211 30.3973C198.787 29.6933 199.331 29.1173 199.843 28.6693C201.251 27.3893 202.435 27.1013 203.395 27.8053C204.419 28.8933 204.739 30.4293 204.355 32.4133L204.067 33.7573L203.683 35.0053C203.363 36.1573 203.171 37.0533 203.107 37.6933C203.171 38.1413 203.875 37.5013 205.219 35.7733C205.667 35.1333 206.211 34.3653 206.851 33.4693C207.299 32.8293 207.747 32.1573 208.195 31.4533C208.579 30.7493 209.059 30.4293 209.635 30.4933C210.147 30.5573 210.211 31.0373 209.827 31.9333C209.699 32.1253 209.507 32.3813 209.251 32.7013L208.963 33.2773L208.579 33.7573C207.939 34.7173 207.395 35.5173 206.947 36.1573C205.475 38.0773 204.387 39.0693 203.683 39.1333C201.955 39.3893 201.123 38.5573 201.187 36.6373ZM209.981 31.8373C213.693 30.3013 216.029 28.9573 216.989 27.8053C217.501 27.1653 217.565 26.5573 217.181 25.9813C216.797 25.3413 215.933 25.3733 214.589 26.0773C213.693 26.5893 212.733 27.3893 211.709 28.4773C210.621 29.7573 210.045 30.8773 209.981 31.8373ZM214.685 24.0613C215.901 23.9333 216.893 24.2213 217.661 24.9253C218.429 25.6293 218.749 26.5253 218.621 27.6133C218.173 30.2373 215.229 32.3493 209.789 33.9493C209.917 38.1093 211.741 38.9413 215.261 36.4453C216.413 35.6773 217.629 34.5893 218.909 33.1813C219.421 32.6693 219.837 32.2213 220.157 31.8373C220.477 31.4533 220.669 31.1973 220.733 31.0693C221.053 30.8133 221.341 30.8133 221.597 31.0693C221.853 31.2613 221.981 31.5493 221.981 31.9333C221.277 32.9573 220.445 33.9493 219.485 34.9093C218.333 36.1253 217.181 37.1173 216.029 37.8853C213.021 39.8693 210.621 39.8053 208.829 37.6933C207.165 35.8373 207.101 33.1813 208.637 29.7253C210.109 26.2693 212.125 24.3813 214.685 24.0613ZM228.697 26.2693C228.441 26.2693 227.705 27.2613 226.489 29.2453C225.337 31.2293 224.473 32.9253 223.897 34.3333C224.409 33.5653 225.209 32.7653 226.297 31.9333L226.777 31.4533L227.353 31.0693C227.673 30.8133 227.897 30.6213 228.025 30.4933C228.281 29.9813 228.537 29.2133 228.793 28.1893C228.985 27.0373 228.953 26.3973 228.697 26.2693ZM227.161 33.2773C226.841 33.5973 226.521 33.9173 226.201 34.2373L225.241 35.4853C224.473 36.4453 224.153 37.1493 224.281 37.5973C224.409 38.1093 224.921 37.6933 225.817 36.3493C226.713 35.0053 227.161 33.9813 227.161 33.2773ZM220.825 37.6933C220.953 37.4373 221.145 36.9893 221.401 36.3493L221.977 34.8133C222.489 33.5333 222.969 32.4453 223.417 31.5493C224.633 28.8613 225.785 27.0053 226.873 25.9813C227.833 25.0213 228.729 24.9253 229.561 25.6933C230.393 26.5253 230.681 27.7093 230.425 29.2453C231.321 28.6053 232.633 28.2853 234.361 28.2853C236.217 28.2853 236.921 28.8613 236.473 30.0133C235.577 29.6933 234.457 29.6933 233.113 30.0133C231.705 30.3333 230.585 30.8773 229.753 31.6453C229.689 31.7733 229.497 32.2853 229.177 33.1813L228.889 34.3333L228.409 35.6773C227.513 37.9173 226.425 39.1013 225.145 39.2293C224.057 39.2933 223.385 38.7813 223.129 37.6933C222.873 36.7333 223.033 35.8373 223.609 35.0053C223.033 35.3253 221.785 38.7173 219.865 45.1813C219.225 47.2293 218.521 49.6293 217.753 52.3813L217.369 53.8213C217.241 54.2053 217.113 54.6533 216.985 55.1653C216.729 56.0613 216.569 56.6053 216.505 56.7973C216.121 57.0533 215.705 57.0213 215.257 56.7013C214.745 56.3813 214.553 55.9013 214.681 55.2613C215.193 52.7653 215.929 49.6933 216.889 46.0453L218.041 41.4373L219.193 36.7333C220.345 31.6133 221.209 27.0053 221.785 22.9093C222.617 22.8453 223.097 23.1013 223.225 23.6773C223.289 23.9333 223.289 24.2533 223.225 24.6373L223.033 25.7893C222.201 30.9093 221.465 34.8773 220.825 37.6933ZM235.006 25.7893C235.838 25.3413 236.35 25.3413 236.542 25.7893C236.606 25.9813 236.638 26.2693 236.638 26.6533L236.542 27.5173L236.35 28.5733L236.062 29.6293C235.742 30.5253 235.582 31.0693 235.582 31.2613C235.774 31.0693 236.19 30.5573 236.83 29.7253L237.598 28.5733L238.558 27.4213C240.222 25.4373 241.438 24.4133 242.206 24.3493C242.91 24.2213 243.486 24.5413 243.934 25.3093C244.382 26.0133 244.51 26.8773 244.318 27.9013C244.19 28.9893 243.806 30.4613 243.166 32.3173L242.302 34.6213L241.63 36.9253C241.054 39.2933 241.982 38.8453 244.414 35.5813L245.182 34.5253L245.854 33.5653C246.43 32.7973 246.91 32.1893 247.294 31.7413C248.19 30.5253 248.734 30.0453 248.926 30.3013C249.566 30.6213 249.086 31.9973 247.486 34.4293C245.95 36.7333 244.734 38.2373 243.838 38.9413C242.558 40.0293 241.502 40.4773 240.67 40.2853C239.774 40.0293 239.454 39.0053 239.71 37.2133C239.902 35.8693 240.382 34.0773 241.15 31.8373L242.014 29.2453C242.334 28.2213 242.558 27.2613 242.686 26.3653C242.494 25.7253 241.79 26.1413 240.574 27.6133C240.19 28.1253 239.582 28.9253 238.75 30.0133L237.79 31.4533L236.734 32.7973C235.326 34.5253 234.014 36.4773 232.798 38.6533C231.454 38.9093 230.91 38.4293 231.166 37.2133C231.23 36.7653 231.422 36.1573 231.742 35.3893L232.222 34.3333L232.606 33.3733L233.278 31.5493L233.95 29.8213C234.398 28.4773 234.75 27.1333 235.006 25.7893ZM249.169 31.8373C252.881 30.3013 255.217 28.9573 256.177 27.8053C256.689 27.1653 256.753 26.5573 256.369 25.9813C255.985 25.3413 255.121 25.3733 253.777 26.0773C252.881 26.5893 251.921 27.3893 250.897 28.4773C249.809 29.7573 249.233 30.8773 249.169 31.8373ZM253.873 24.0613C255.089 23.9333 256.081 24.2213 256.849 24.9253C257.617 25.6293 257.937 26.5253 257.809 27.6133C257.361 30.2373 254.417 32.3493 248.977 33.9493C249.105 38.1093 250.929 38.9413 254.449 36.4453C255.601 35.6773 256.817 34.5893 258.097 33.1813C258.609 32.6693 259.025 32.2213 259.345 31.8373C259.665 31.4533 259.857 31.1973 259.921 31.0693C260.241 30.8133 260.529 30.8133 260.785 31.0693C261.041 31.2613 261.169 31.5493 261.169 31.9333C260.465 32.9573 259.633 33.9493 258.673 34.9093C257.521 36.1253 256.369 37.1173 255.217 37.8853C252.209 39.8693 249.809 39.8053 248.017 37.6933C246.353 35.8373 246.289 33.1813 247.825 29.7253C249.297 26.2693 251.313 24.3813 253.873 24.0613ZM269.612 30.4933L269.036 32.2213C268.396 34.2053 268.076 35.7413 268.076 36.8293C268.46 37.5973 269.452 36.9253 271.052 34.8133L272.012 33.4693L272.972 32.1253C273.74 31.0373 274.22 30.3653 274.412 30.1093C274.732 29.9173 275.02 29.9173 275.276 30.1093L275.564 30.4933L275.756 30.7813C275.436 31.1653 274.892 31.9333 274.124 33.0853L273.164 34.4293L272.108 35.7733C270.444 37.8853 269.1 38.8133 268.076 38.5573C266.476 38.1733 266.092 36.1893 266.924 32.6053C266.988 32.3493 267.052 32.1253 267.116 31.9333L266.732 32.1253L265.388 32.7973C263.084 34.0133 261.58 34.4933 260.876 34.2373C260.748 34.2373 260.652 34.2053 260.588 34.1413L258.86 38.6533C257.516 38.9093 256.972 38.4293 257.228 37.2133C257.292 36.7653 257.484 36.1573 257.804 35.3893L258.284 34.3333L258.668 33.3733L259.34 31.5493L260.012 29.8213C260.46 28.4773 260.812 27.1333 261.068 25.7893C261.9 25.3413 262.412 25.3413 262.604 25.7893C262.668 25.9813 262.7 26.2693 262.7 26.6533L262.604 27.5173L262.412 28.5733L262.124 29.6293C261.804 30.5253 261.644 31.0693 261.644 31.2613L261.26 32.3173C261.196 32.8293 261.996 32.6693 263.66 31.8373C264.236 31.5173 265.1 31.0373 266.252 30.3973L267.692 29.4373L267.884 29.3413C267.948 29.0853 268.044 28.7973 268.172 28.4773C268.62 27.2613 269.036 26.3653 269.42 25.7893H269.804C270.06 25.7893 270.284 25.8213 270.476 25.8853C271.052 26.0773 271.148 26.6213 270.764 27.5173C270.444 28.3493 270.156 29.0853 269.9 29.7253L269.708 30.3973V30.4933H269.612ZM282.335 36.6373C282.975 36.5733 284.191 35.4533 285.983 33.2773L287.039 31.9333L287.999 30.7813C288.639 29.8853 289.087 29.3093 289.343 29.0533C290.431 29.4373 290.047 30.8133 288.191 33.1813C287.487 34.0133 286.719 34.8773 285.887 35.7733C285.119 36.4773 284.543 36.9893 284.159 37.3093C281.855 39.1653 280.639 38.8773 280.511 36.4453C280.447 35.5493 280.575 34.5253 280.895 33.3733C281.151 32.2853 281.503 31.4213 281.951 30.7813L281.663 31.1653L281.279 31.6453C280.895 32.0933 280.575 32.4773 280.319 32.7973C279.487 33.7573 278.719 34.5573 278.015 35.1973C275.967 36.9893 274.463 37.4053 273.503 36.4453L273.311 36.2533L273.119 35.9653C272.927 35.7093 272.831 35.5173 272.831 35.3893C272.447 34.3653 272.831 32.5733 273.983 30.0133C275.071 27.5813 276.095 26.0133 277.055 25.3093C277.183 25.3093 277.343 25.3413 277.535 25.4053C277.791 25.4693 278.015 25.5653 278.207 25.6933C278.655 26.0133 278.815 26.3333 278.687 26.6533C277.919 27.4213 276.959 28.9893 275.807 31.3573C274.655 33.8533 274.303 35.1653 274.751 35.2933C275.519 35.4213 276.991 34.2053 279.167 31.6453C281.087 29.3413 282.591 27.2613 283.679 25.4053C284.383 24.1253 285.215 24.0933 286.175 25.3093C286.047 25.6293 285.759 26.3973 285.311 27.6133L284.639 29.2453L283.967 30.9733C282.815 33.9813 282.271 35.8693 282.335 36.6373ZM289.013 31.8373C292.725 30.3013 295.061 28.9573 296.021 27.8053C296.533 27.1653 296.597 26.5573 296.213 25.9813C295.829 25.3413 294.965 25.3733 293.621 26.0773C292.725 26.5893 291.765 27.3893 290.741 28.4773C289.653 29.7573 289.077 30.8773 289.013 31.8373ZM293.717 24.0613C294.933 23.9333 295.925 24.2213 296.693 24.9253C297.461 25.6293 297.781 26.5253 297.653 27.6133C297.205 30.2373 294.261 32.3493 288.821 33.9493C288.949 38.1093 290.773 38.9413 294.293 36.4453C295.445 35.6773 296.661 34.5893 297.941 33.1813C298.453 32.6693 298.869 32.2213 299.189 31.8373C299.509 31.4533 299.701 31.1973 299.765 31.0693C300.085 30.8133 300.373 30.8133 300.629 31.0693C300.885 31.2613 301.013 31.5493 301.013 31.9333C300.309 32.9573 299.477 33.9493 298.517 34.9093C297.365 36.1253 296.213 37.1173 295.061 37.8853C292.053 39.8693 289.653 39.8053 287.861 37.6933C286.197 35.8373 286.133 33.1813 287.669 29.7253C289.141 26.2693 291.157 24.3813 293.717 24.0613ZM313.2 34.3333C312.752 34.7813 312.304 35.2613 311.856 35.7733C311.088 36.4773 310.512 36.9893 310.128 37.3093C307.824 39.1653 306.608 38.8773 306.48 36.4453C306.416 35.5493 306.544 34.5253 306.864 33.3733C307.12 32.2853 307.472 31.4213 307.92 30.7813L307.632 31.1653L307.248 31.6453C306.864 32.0933 306.544 32.4773 306.288 32.7973C305.456 33.7573 304.688 34.5573 303.984 35.1973C301.936 36.9893 300.432 37.4053 299.472 36.4453L299.28 36.2533L299.088 35.9653C298.896 35.7093 298.8 35.5173 298.8 35.3893C298.416 34.3653 298.8 32.5733 299.952 30.0133C300.4 28.6053 301.104 27.5493 302.064 26.8453C302.192 26.8453 302.352 26.8773 302.544 26.9413C302.8 27.0053 303.024 27.1013 303.216 27.2293C303.664 27.5493 303.824 27.8693 303.696 28.1893C302.928 28.9573 302.288 30.0133 301.776 31.3573C300.624 33.8533 300.272 35.1653 300.72 35.2933C301.488 35.4213 302.96 34.2053 305.136 31.6453C307.056 29.3413 308.752 26.7493 310.224 23.8693C310.928 22.5893 311.76 22.5573 312.72 23.7733C312.592 24.0933 312.112 25.3733 311.28 27.6133L310.608 29.2453L309.936 30.9733C308.784 33.9813 308.24 35.8693 308.304 36.6373C308.944 36.5733 310.16 35.4533 311.952 33.2773L313.008 31.9333L313.968 30.7813C314.416 30.2053 314.768 29.7573 315.024 29.4373L317.232 23.8693C317.616 22.5893 318.288 22.5573 319.248 23.7733C319.12 24.0933 318.64 25.3733 317.808 27.6133L317.136 29.2453L316.464 30.9733C315.312 33.9813 314.768 35.8693 314.832 36.6373C315.472 36.5733 316.688 35.4533 318.48 33.2773L319.536 31.9333L320.496 30.7813C321.136 29.8853 321.584 29.3093 321.84 29.0533C322.928 29.4373 322.544 30.8133 320.688 33.1813C319.984 34.0133 319.216 34.8773 318.384 35.7733C317.616 36.4773 317.04 36.9893 316.656 37.3093C314.352 39.1653 313.136 38.8773 313.008 36.4453C312.944 35.8053 313.008 35.1013 313.2 34.3333Z" fill="white"></path></svg> 