<?xml version="1.0" encoding="UTF-8"?> <svg xmlns="http://www.w3.org/2000/svg" width="208" height="50" viewBox="0 0 208 50" fill="none"><path d="M45.8281 18.0039V17.7879H46.6681C47.2441 17.7879 47.5961 17.7079 47.7241 17.5479C47.8681 17.3879 47.9401 16.9719 47.9401 16.2999V7.85191H47.7961C47.4281 7.85191 47.0841 7.89191 46.7641 7.97191C46.4601 8.03591 46.1881 8.12391 45.9481 8.23591C45.7081 8.34791 45.4841 8.51591 45.2761 8.73991C45.0681 8.94791 44.8921 9.13991 44.7481 9.31591C44.6041 9.49191 44.4681 9.73991 44.3401 10.0599C44.2121 10.3639 44.1081 10.6279 44.0281 10.8519C43.9481 11.0599 43.8601 11.3559 43.7641 11.7399C43.6841 12.1239 43.6201 12.4279 43.5721 12.6519C43.5401 12.8599 43.4921 13.1719 43.4281 13.5879C43.3481 14.0359 43.2841 14.3799 43.2361 14.6199C43.1881 14.8599 43.1081 15.1719 42.9961 15.5559C42.9001 15.9399 42.8041 16.2439 42.7081 16.4679C42.6121 16.6759 42.4841 16.9159 42.3241 17.1879C42.1801 17.4439 42.0121 17.6439 41.8201 17.7879C41.6281 17.9159 41.3961 18.0279 41.1241 18.1239C40.8681 18.2199 40.5801 18.2679 40.2601 18.2679C39.6201 18.2679 38.9721 17.9719 38.3161 17.3799L38.0041 17.1399L38.1481 16.9719L38.4601 17.2119C38.8601 17.5319 39.2361 17.6919 39.5881 17.6919C39.8601 17.6919 40.0921 17.6279 40.2841 17.4999C40.4921 17.3719 40.6521 17.2279 40.7641 17.0679C40.8921 16.8919 40.9961 16.6359 41.0761 16.2999C41.1721 15.9639 41.2361 15.6759 41.2681 15.4359C41.3161 15.1799 41.3721 14.8119 41.4361 14.3319C41.5001 13.8199 41.5561 13.3959 41.6041 13.0599C41.6521 12.7239 41.7321 12.3239 41.8441 11.8599C41.9561 11.3959 42.0761 11.0039 42.2041 10.6839C42.3481 10.3639 42.5321 10.0199 42.7561 9.65191C42.9961 9.28391 43.2601 8.97991 43.5481 8.73991C43.8521 8.48391 44.2121 8.25191 44.6281 8.04391C45.0601 7.81991 45.5401 7.65191 46.0681 7.53991L46.0921 7.44391L42.2761 2.61991C41.8121 2.04391 41.2601 1.62791 40.6201 1.37191C39.9801 1.09991 39.3561 0.963905 38.7481 0.963905H38.4601V0.747905H43.7641V0.963905H43.5481C42.7161 0.963905 42.3001 1.17991 42.3001 1.61191C42.3001 1.86791 42.4441 2.17191 42.7321 2.52391L46.5241 7.29991C46.7001 7.52391 47.1721 7.63591 47.9401 7.63591V2.23591C47.9401 1.65991 47.8681 1.30791 47.7241 1.17991C47.5961 1.03591 47.2441 0.963905 46.6681 0.963905H46.4281V0.747905H51.3241V0.963905H51.1081C50.5321 0.963905 50.1721 1.03591 50.0281 1.17991C49.8841 1.30791 49.8121 1.65991 49.8121 2.23591V7.63591C50.2601 7.63591 50.5801 7.61991 50.7721 7.58791C50.9801 7.53991 51.1401 7.44391 51.2521 7.29991L55.0441 2.52391C55.3321 2.17191 55.4761 1.86791 55.4761 1.61191C55.4761 1.17991 55.0601 0.963905 54.2281 0.963905H54.0121V0.747905H59.3161V0.963905H59.0281C58.4201 0.963905 57.7961 1.09991 57.1561 1.37191C56.5161 1.62791 55.9641 2.04391 55.5001 2.61991L51.6841 7.44391L51.7081 7.53991C52.2361 7.66791 52.7161 7.84391 53.1481 8.06791C53.5801 8.27591 53.9401 8.50791 54.2281 8.76391C54.5321 9.00391 54.7961 9.31591 55.0201 9.69991C55.2601 10.0679 55.4441 10.4119 55.5721 10.7319C55.7001 11.0359 55.8201 11.4279 55.9321 11.9079C56.0441 12.3719 56.1241 12.7639 56.1721 13.0839C56.2201 13.3879 56.2761 13.7959 56.3401 14.3079C56.4041 14.7879 56.4521 15.1559 56.4841 15.4119C56.5161 15.6519 56.5801 15.9479 56.6761 16.2999C56.7721 16.6359 56.8761 16.8919 56.9881 17.0679C57.1001 17.2279 57.2601 17.3719 57.4681 17.4999C57.6761 17.6279 57.9161 17.6919 58.1881 17.6919C58.5401 17.6919 58.9161 17.5319 59.3161 17.2119L59.6281 16.9719L59.7721 17.1399L59.4601 17.3799C58.8041 17.9719 58.1561 18.2679 57.5161 18.2679C57.1961 18.2679 56.9001 18.2199 56.6281 18.1239C56.3721 18.0279 56.1481 17.9159 55.9561 17.7879C55.7641 17.6439 55.5881 17.4439 55.4281 17.1879C55.2681 16.9159 55.1401 16.6759 55.0441 16.4679C54.9481 16.2439 54.8521 15.9399 54.7561 15.5559C54.6601 15.1559 54.5881 14.8359 54.5401 14.5959C54.4921 14.3559 54.4281 14.0119 54.3481 13.5639C54.2841 13.1479 54.2281 12.8359 54.1801 12.6279C54.1481 12.4039 54.0841 12.0999 53.9881 11.7159C53.9081 11.3319 53.8281 11.0359 53.7481 10.8279C53.6681 10.6039 53.5641 10.3399 53.4361 10.0359C53.3081 9.71591 53.1721 9.46791 53.0281 9.29191C52.8841 9.11591 52.7081 8.92391 52.5001 8.71591C52.2921 8.50791 52.0681 8.34791 51.8281 8.23591C51.5881 8.12391 51.3081 8.03591 50.9881 7.97191C50.6841 7.89191 50.3481 7.85191 49.9801 7.85191H49.8121V16.2999C49.8121 16.9719 49.8841 17.3879 50.0281 17.5479C50.1721 17.7079 50.5321 17.7879 51.1081 17.7879H51.9481V18.0039H45.8281ZM59.5824 17.5719H61.2384C61.7184 17.1559 62.1904 16.6359 62.6544 16.0119C63.1184 15.3879 63.5664 14.6599 63.9984 13.8279C64.4304 12.9959 64.7824 12.0359 65.0544 10.9479C65.3264 9.85991 65.4624 8.74791 65.4624 7.61191V2.73991C65.4624 1.90791 65.3584 1.40391 65.1504 1.2279C64.9584 1.05191 64.4384 0.963905 63.5904 0.963905H63.0624V0.747905H74.7504V0.963905H73.8864C73.3264 0.963905 72.9744 1.05991 72.8304 1.25191C72.6864 1.44391 72.6144 1.84391 72.6144 2.45191V17.5719H74.7504V22.0359H73.8864V19.4919C73.8864 18.8839 73.8064 18.4839 73.6464 18.2919C73.5024 18.0999 73.1504 18.0039 72.5904 18.0039H61.7424C61.1824 18.0039 60.8224 18.0999 60.6624 18.2919C60.5184 18.4839 60.4464 18.8839 60.4464 19.4919V22.0359H59.5824V17.5719ZM63.9024 17.5719H70.7424V1.17991H66.0864V7.03591C66.0864 9.27591 65.8784 11.3079 65.4624 13.1319C65.0624 14.9399 64.5424 16.4199 63.9024 17.5719ZM77.9952 8.64391C77.9952 8.73991 77.9952 8.83591 77.9952 8.93191C77.9952 11.7639 78.5952 13.9479 79.7952 15.4839C81.0112 17.0039 82.6592 17.7639 84.7392 17.7639C86.3392 17.7639 87.7552 17.4439 88.9872 16.8039C90.2192 16.1479 91.1872 15.2279 91.8912 14.0439L92.2272 14.3079C91.4752 15.5399 90.4432 16.4999 89.1312 17.1879C87.8352 17.8599 86.3472 18.1959 84.6672 18.1959C82.1232 18.1959 80.0192 17.3799 78.3552 15.7479C76.6912 14.0999 75.8592 11.9559 75.8592 9.31591C75.8592 6.69191 76.6672 4.57991 78.2832 2.97991C79.9152 1.3639 82.0592 0.555905 84.7152 0.555905C86.8592 0.555905 88.6752 1.23591 90.1632 2.59591C91.6512 3.95591 92.3952 5.69991 92.3952 7.82791V7.94791C92.3952 8.13991 92.3232 8.30791 92.1792 8.45191C92.0352 8.57991 91.8592 8.64391 91.6512 8.64391H77.9952ZM78.0192 8.21191L90.0672 8.04391C90.1952 8.04391 90.2592 7.97191 90.2592 7.82791C90.2592 5.77991 89.7392 4.13191 88.6992 2.8839C87.6752 1.6199 86.3152 0.987905 84.6192 0.987905C82.5712 0.987905 80.9792 1.60391 79.8432 2.83591C78.7232 4.06791 78.1152 5.85991 78.0192 8.21191ZM93.4015 18.0039V17.7879H93.7855C94.3775 17.7879 94.7615 17.6759 94.9375 17.4519C95.1295 17.2279 95.2415 16.7719 95.2735 16.0839L95.9215 2.23591C95.9375 1.96391 95.9455 1.79591 95.9455 1.73191C95.9455 1.44391 95.8655 1.24391 95.7055 1.13191C95.5615 1.01991 95.2415 0.963905 94.7455 0.963905H93.7855V0.747905H97.3135L103.53 14.4999C103.77 15.0279 103.89 15.3719 103.89 15.5319H104.01C104.01 15.3239 104.122 14.9799 104.346 14.4999L110.562 0.747905H114.162V0.963905H113.346C112.802 0.963905 112.442 1.04391 112.266 1.20391C112.09 1.3639 112.002 1.63591 112.002 2.01991C112.002 2.08391 112.01 2.2999 112.026 2.6679L112.578 16.0839C112.61 16.7879 112.714 17.2519 112.89 17.4759C113.066 17.6839 113.474 17.7879 114.114 17.7879H114.642V18.0039H108.378V17.7879H109.242C109.85 17.7879 110.25 17.7159 110.442 17.5719C110.634 17.4279 110.73 17.1959 110.73 16.8759C110.73 16.8279 110.722 16.7799 110.706 16.7319C110.706 16.6839 110.706 16.6359 110.706 16.5879C110.706 16.5239 110.706 16.4759 110.706 16.4439L110.226 3.79591C110.21 3.50791 110.202 3.15591 110.202 2.73991H110.058C110.058 2.80391 109.93 3.13191 109.674 3.72391L103.218 18.0999L103.146 18.2679H103.098L103.026 18.0999L96.6655 3.98791C96.4895 3.60391 96.4015 3.26791 96.4015 2.97991H96.3055C96.3055 3.23591 96.2975 3.50791 96.2815 3.79591L95.6815 16.3959C95.6655 16.7319 95.6575 16.9159 95.6575 16.9479C95.6575 17.2519 95.7535 17.4679 95.9455 17.5959C96.1375 17.7239 96.5455 17.7879 97.1695 17.7879H98.0335V18.0039H93.4015ZM125.225 17.5719H127.961C129.449 17.5719 130.649 17.1559 131.561 16.3239C132.473 15.4919 132.929 14.3879 132.929 13.0119C132.929 11.5719 132.449 10.3879 131.489 9.45991C130.529 8.53191 129.305 8.06791 127.817 8.06791H126.545V7.65991H127.505C128.561 7.65991 129.433 7.35591 130.121 6.74791C130.809 6.13991 131.153 5.36391 131.153 4.41991C131.153 3.44391 130.785 2.65991 130.049 2.06791C129.329 1.47591 128.369 1.17991 127.169 1.17991H125.225V1.20391C125.497 1.47591 125.633 1.89191 125.633 2.45191V16.2999C125.633 16.8439 125.497 17.2519 125.225 17.5239V17.5719ZM121.649 18.0039V17.7879H122.489C123.065 17.7879 123.417 17.7239 123.545 17.5959C123.689 17.4519 123.761 17.0919 123.761 16.5159V2.23591C123.761 1.65991 123.689 1.30791 123.545 1.17991C123.417 1.03591 123.065 0.963905 122.489 0.963905H121.649V0.747905H127.505C129.217 0.747905 130.593 1.08391 131.633 1.75591C132.673 2.41191 133.193 3.28391 133.193 4.37191C133.193 5.10791 132.873 5.81991 132.233 6.50791C131.609 7.17991 130.777 7.58791 129.737 7.73191V7.82791C131.241 7.93991 132.497 8.51591 133.505 9.55591C134.513 10.5959 135.017 11.7479 135.017 13.0119C135.017 14.4839 134.385 15.6839 133.121 16.6119C131.857 17.5399 130.281 18.0039 128.393 18.0039H121.649ZM144.324 9.26791V4.13191C144.324 2.03591 143.38 0.987905 141.492 0.987905C140.34 0.987905 139.444 1.29191 138.804 1.89991C138.164 2.49191 137.82 3.27591 137.772 4.25191L137.7 5.73991H137.268L137.532 0.0759053H137.772L137.7 1.34791C137.668 1.73191 137.636 1.98791 137.604 2.1159L137.772 2.16391C137.852 1.92391 137.98 1.73991 138.156 1.61191C139.1 0.907905 140.204 0.555905 141.468 0.555905C143.02 0.555905 144.196 0.891905 144.996 1.5639C145.796 2.2199 146.196 3.17991 146.196 4.44391V16.2999C146.196 16.7959 146.236 17.1239 146.316 17.2839C146.412 17.4439 146.636 17.5239 146.988 17.5239L147.468 17.4999L147.876 17.4759L147.9 17.6919C146.956 17.7879 146.084 17.9639 145.284 18.2199V18.0279C145.284 17.5479 145.196 16.8279 145.02 15.8679C144.908 15.1479 144.844 14.6279 144.828 14.3079H144.588C143.948 16.8999 142.604 18.1959 140.556 18.1959C139.244 18.1959 138.156 17.8359 137.292 17.1159C136.444 16.3799 136.02 15.4279 136.02 14.2599C136.02 12.7559 136.604 11.5479 137.772 10.6359C138.956 9.72391 140.516 9.26791 142.452 9.26791H144.324ZM144.324 9.69991H142.572C141.228 9.69991 140.148 10.1239 139.332 10.9719C138.516 11.8039 138.108 12.8999 138.108 14.2599C138.108 15.2519 138.356 16.0519 138.852 16.6599C139.364 17.2519 140.028 17.5479 140.844 17.5479C141.772 17.5479 142.58 17.1239 143.268 16.2759C143.972 15.4119 144.324 14.1799 144.324 12.5799V9.69991ZM149.151 9.31591C149.151 6.69191 149.919 4.57991 151.455 2.97991C152.991 1.3639 155.015 0.555905 157.527 0.555905C159.255 0.555905 160.719 1.0679 161.919 2.09191C162.031 2.20391 162.119 2.36391 162.183 2.57191L162.351 2.52391C162.319 2.36391 162.295 2.13191 162.279 1.82791L162.231 0.0759053H162.447L162.663 7.01191L162.231 7.03591L162.159 4.80391C162.095 3.74791 161.575 2.8439 160.599 2.09191C159.639 1.33991 158.551 0.963905 157.335 0.963905C155.367 0.963905 153.863 1.64391 152.823 3.00391C151.799 4.36391 151.287 6.33991 151.287 8.93191C151.287 11.7959 151.823 13.9879 152.895 15.5079C153.983 17.0119 155.551 17.7639 157.599 17.7639C158.767 17.7639 159.847 17.4679 160.839 16.8759C161.831 16.2839 162.527 15.4839 162.927 14.4759L163.335 14.6439C162.887 15.7959 162.135 16.6759 161.079 17.2839C160.039 17.8919 158.863 18.1959 157.551 18.1959C155.039 18.1959 153.007 17.3799 151.455 15.7479C149.919 14.1159 149.151 11.9719 149.151 9.31591ZM0.873203 40.3159C0.873203 37.6919 1.6412 35.5799 3.1772 33.9799C4.7132 32.3639 6.7372 31.5559 9.2492 31.5559C10.9772 31.5559 12.4412 32.0679 13.6412 33.0919C13.7532 33.2039 13.8412 33.3639 13.9052 33.5719L14.0732 33.5239C14.0412 33.3639 14.0172 33.1319 14.0012 32.8279L13.9532 31.0759H14.1692L14.3852 38.0119L13.9532 38.0359L13.8812 35.8039C13.8172 34.7479 13.2972 33.8439 12.3212 33.0919C11.3612 32.3399 10.2732 31.9639 9.0572 31.9639C7.0892 31.9639 5.5852 32.6439 4.5452 34.0039C3.5212 35.3639 3.0092 37.3399 3.0092 39.9319C3.0092 42.7959 3.5452 44.9879 4.6172 46.5079C5.7052 48.0119 7.2732 48.7639 9.3212 48.7639C10.4892 48.7639 11.5692 48.4679 12.5612 47.8759C13.5532 47.2839 14.2492 46.4839 14.6492 45.4759L15.0572 45.6439C14.6092 46.7959 13.8572 47.6759 12.8012 48.2839C11.7612 48.8919 10.5852 49.1959 9.2732 49.1959C6.7612 49.1959 4.7292 48.3799 3.1772 46.7479C1.6412 45.1159 0.873203 42.9719 0.873203 40.3159ZM22.4965 49.0039V48.7879H23.3365C23.8965 48.7879 24.2485 48.6919 24.3925 48.4999C24.5365 48.3079 24.6085 47.9079 24.6085 47.2999V33.4519C24.6085 32.8439 24.5365 32.4439 24.3925 32.2519C24.2485 32.0599 23.8965 31.9639 23.3365 31.9639H22.4965V31.7479H28.4005V31.9639H27.7765C27.2165 31.9639 26.8565 32.0599 26.6965 32.2519C26.5525 32.4439 26.4805 32.8439 26.4805 33.4519V39.7159H33.0565V33.4519C33.0565 32.8439 32.9765 32.4439 32.8165 32.2519C32.6725 32.0599 32.3205 31.9639 31.7605 31.9639H31.1365V31.7479H37.0645V31.9639H36.2005C35.6405 31.9639 35.2885 32.0599 35.1445 32.2519C35.0005 32.4439 34.9285 32.8439 34.9285 33.4519V47.2999C34.9285 47.9079 35.0005 48.3079 35.1445 48.4999C35.2885 48.6919 35.6405 48.7879 36.2005 48.7879H37.0645V49.0039H31.1365V48.7879H31.7845C32.3445 48.7879 32.6965 48.6919 32.8405 48.4999C32.9845 48.3079 33.0565 47.9079 33.0565 47.2999V40.1479H26.4805V47.2999C26.4805 47.9079 26.5525 48.3079 26.6965 48.4999C26.8565 48.6919 27.2165 48.7879 27.7765 48.7879H28.4005V49.0039H22.4965ZM40.3429 39.6439C40.3429 39.7399 40.3429 39.8359 40.3429 39.9319C40.3429 42.7639 40.9429 44.9479 42.1429 46.4839C43.3589 48.0039 45.0069 48.7639 47.0869 48.7639C48.6869 48.7639 50.1029 48.4439 51.3349 47.8039C52.5669 47.1479 53.5349 46.2279 54.2389 45.0439L54.5749 45.3079C53.8229 46.5399 52.7909 47.4999 51.4789 48.1879C50.1829 48.8599 48.6949 49.1959 47.0149 49.1959C44.4709 49.1959 42.3669 48.3799 40.7029 46.7479C39.0389 45.0999 38.2069 42.9559 38.2069 40.3159C38.2069 37.6919 39.0149 35.5799 40.6309 33.9799C42.2629 32.3639 44.4069 31.5559 47.0629 31.5559C49.2069 31.5559 51.0229 32.2359 52.5109 33.5959C53.9989 34.9559 54.7429 36.6999 54.7429 38.8279V38.9479C54.7429 39.1399 54.6709 39.3079 54.5269 39.4519C54.3829 39.5799 54.2069 39.6439 53.9989 39.6439H40.3429ZM40.3669 39.2119L52.4149 39.0439C52.5429 39.0439 52.6069 38.9719 52.6069 38.8279C52.6069 36.7799 52.0869 35.1319 51.0469 33.8839C50.0229 32.6199 48.6629 31.9879 46.9669 31.9879C44.9189 31.9879 43.3269 32.6039 42.1909 33.8359C41.0709 35.0679 40.4629 36.8599 40.3669 39.2119ZM57.7234 49.0039V48.7879H59.5474C60.1234 48.7879 60.4754 48.7239 60.6034 48.5959C60.7474 48.4519 60.8194 48.0919 60.8194 47.5159V32.1799H59.3794C58.1794 32.1799 57.3554 32.3639 56.9074 32.7319C56.4594 33.0839 56.2034 33.8199 56.1394 34.9399L56.0674 35.9239L55.6354 35.8999L55.9954 30.3319L56.2594 30.3559L56.1394 31.7479H67.3234L67.2034 30.3799L67.4674 30.3559L67.8274 35.8999L67.3954 35.9239L67.3234 34.9399C67.2434 33.8199 66.9794 33.0839 66.5314 32.7319C66.0834 32.3639 65.2674 32.1799 64.0834 32.1799H62.6914V47.5159C62.6914 48.0919 62.7554 48.4519 62.8834 48.5959C63.0274 48.7239 63.3874 48.7879 63.9634 48.7879H65.7394V49.0039H57.7234ZM70.882 39.6439C70.882 39.7399 70.882 39.8359 70.882 39.9319C70.882 42.7639 71.482 44.9479 72.682 46.4839C73.898 48.0039 75.546 48.7639 77.626 48.7639C79.226 48.7639 80.642 48.4439 81.874 47.8039C83.106 47.1479 84.074 46.2279 84.778 45.0439L85.114 45.3079C84.362 46.5399 83.33 47.4999 82.018 48.1879C80.722 48.8599 79.234 49.1959 77.554 49.1959C75.01 49.1959 72.906 48.3799 71.242 46.7479C69.578 45.0999 68.746 42.9559 68.746 40.3159C68.746 37.6919 69.554 35.5799 71.17 33.9799C72.802 32.3639 74.946 31.5559 77.602 31.5559C79.746 31.5559 81.562 32.2359 83.05 33.5959C84.538 34.9559 85.282 36.6999 85.282 38.8279V38.9479C85.282 39.1399 85.21 39.3079 85.066 39.4519C84.922 39.5799 84.746 39.6439 84.538 39.6439H70.882ZM70.906 39.2119L82.954 39.0439C83.082 39.0439 83.146 38.9719 83.146 38.8279C83.146 36.7799 82.626 35.1319 81.586 33.8839C80.562 32.6199 79.202 31.9879 77.506 31.9879C75.458 31.9879 73.866 32.6039 72.73 33.8359C71.61 35.0679 71.002 36.8599 70.906 39.2119ZM90.0803 32.2039V32.3239C90.3523 32.6919 90.4883 33.1879 90.4883 33.8119V41.8519H91.8323C93.3523 41.8519 94.5043 41.4439 95.2883 40.6279C96.0883 39.7959 96.4883 38.5959 96.4883 37.0279C96.4883 35.4599 96.0883 34.2679 95.2883 33.4519C94.5043 32.6199 93.3523 32.2039 91.8323 32.2039H90.0803ZM86.5043 49.0039V48.7879H87.3443C87.9203 48.7879 88.2723 48.7239 88.4003 48.5959C88.5443 48.4519 88.6163 48.0919 88.6163 47.5159V33.2359C88.6163 32.6599 88.5443 32.3079 88.4003 32.1799C88.2723 32.0359 87.9203 31.9639 87.3443 31.9639H86.5043V31.7479H92.5523C94.3603 31.7479 95.8163 32.2359 96.9203 33.2119C98.0243 34.1719 98.5763 35.4439 98.5763 37.0279C98.5763 38.6119 98.0243 39.8839 96.9203 40.8439C95.8163 41.8039 94.3603 42.2839 92.5523 42.2839H90.4883V47.5159C90.4883 48.0919 90.5603 48.4519 90.7043 48.5959C90.8483 48.7239 91.2083 48.7879 91.7843 48.7879H92.3843V49.0039H86.5043ZM99.6293 49.0039V48.7879H100.469C101.029 48.7879 101.381 48.6919 101.525 48.4999C101.669 48.3079 101.741 47.9079 101.741 47.2999V33.4519C101.741 32.8439 101.669 32.4439 101.525 32.2519C101.381 32.0599 101.029 31.9639 100.469 31.9639H99.6293V31.7479H114.197V31.9639H113.333C112.773 31.9639 112.421 32.0599 112.277 32.2519C112.133 32.4439 112.061 32.8439 112.061 33.4519V47.2999C112.061 47.9079 112.133 48.3079 112.277 48.4999C112.421 48.6919 112.773 48.7879 113.333 48.7879H114.197V49.0039H108.269V48.7879H108.917C109.477 48.7879 109.829 48.6919 109.973 48.4999C110.117 48.3079 110.189 47.9079 110.189 47.2999V32.1799H103.613V47.2999C103.613 47.9079 103.685 48.3079 103.829 48.4999C103.989 48.6919 104.349 48.7879 104.909 48.7879H105.533V49.0039H99.6293ZM117.476 39.6439C117.476 39.7399 117.476 39.8359 117.476 39.9319C117.476 42.7639 118.076 44.9479 119.276 46.4839C120.492 48.0039 122.14 48.7639 124.22 48.7639C125.82 48.7639 127.236 48.4439 128.468 47.8039C129.7 47.1479 130.668 46.2279 131.372 45.0439L131.708 45.3079C130.956 46.5399 129.924 47.4999 128.612 48.1879C127.316 48.8599 125.828 49.1959 124.148 49.1959C121.604 49.1959 119.5 48.3799 117.836 46.7479C116.172 45.0999 115.34 42.9559 115.34 40.3159C115.34 37.6919 116.148 35.5799 117.764 33.9799C119.396 32.3639 121.54 31.5559 124.196 31.5559C126.34 31.5559 128.156 32.2359 129.644 33.5959C131.132 34.9559 131.876 36.6999 131.876 38.8279V38.9479C131.876 39.1399 131.804 39.3079 131.66 39.4519C131.516 39.5799 131.34 39.6439 131.132 39.6439H117.476ZM117.5 39.2119L129.548 39.0439C129.676 39.0439 129.74 38.9719 129.74 38.8279C129.74 36.7799 129.22 35.1319 128.18 33.8839C127.156 32.6199 125.796 31.9879 124.1 31.9879C122.052 31.9879 120.46 32.6039 119.324 33.8359C118.204 35.0679 117.596 36.8599 117.5 39.2119ZM133.098 49.0039V48.7879H133.938C134.498 48.7879 134.85 48.6919 134.994 48.4999C135.138 48.3079 135.21 47.9079 135.21 47.2999V33.4519C135.21 32.8439 135.138 32.4439 134.994 32.2519C134.85 32.0599 134.498 31.9639 133.938 31.9639H133.098V31.7479H139.002V31.9639H138.378C137.818 31.9639 137.458 32.0599 137.298 32.2519C137.154 32.4439 137.082 32.8439 137.082 33.4519V39.7159H143.658V33.4519C143.658 32.8439 143.578 32.4439 143.418 32.2519C143.274 32.0599 142.922 31.9639 142.362 31.9639H141.738V31.7479H147.666V31.9639H146.802C146.242 31.9639 145.89 32.0599 145.746 32.2519C145.602 32.4439 145.53 32.8439 145.53 33.4519V47.2999C145.53 47.9079 145.602 48.3079 145.746 48.4999C145.89 48.6919 146.242 48.7879 146.802 48.7879H147.666V49.0039H141.738V48.7879H142.386C142.946 48.7879 143.298 48.6919 143.442 48.4999C143.586 48.3079 143.658 47.9079 143.658 47.2999V40.1479H137.082V47.2999C137.082 47.9079 137.154 48.3079 137.298 48.4999C137.458 48.6919 137.818 48.7879 138.378 48.7879H139.002V49.0039H133.098ZM148.496 49.0039V48.7879H149.336C149.896 48.7879 150.248 48.6919 150.392 48.4999C150.536 48.3079 150.608 47.9079 150.608 47.2999V33.4519C150.608 32.8439 150.536 32.4439 150.392 32.2519C150.248 32.0599 149.896 31.9639 149.336 31.9639H148.496V31.7479H154.4V31.9639H153.776C153.216 31.9639 152.856 32.0599 152.696 32.2519C152.552 32.4439 152.48 32.8439 152.48 33.4519V47.3719L159.296 31.7479H163.064V31.9639H162.2C161.64 31.9639 161.288 32.0599 161.144 32.2519C161 32.4439 160.928 32.8439 160.928 33.4519V47.2999C160.928 47.9079 161 48.3079 161.144 48.4999C161.288 48.6919 161.64 48.7879 162.2 48.7879H163.064V49.0039H157.136V48.7879H157.784C158.344 48.7879 158.696 48.6919 158.84 48.4999C158.984 48.3079 159.056 47.9079 159.056 47.2999V33.3799L152.24 49.0039H148.496ZM166.343 39.6439C166.343 39.7399 166.343 39.8359 166.343 39.9319C166.343 42.7639 166.943 44.9479 168.143 46.4839C169.359 48.0039 171.007 48.7639 173.087 48.7639C174.687 48.7639 176.103 48.4439 177.335 47.8039C178.567 47.1479 179.535 46.2279 180.239 45.0439L180.575 45.3079C179.823 46.5399 178.791 47.4999 177.479 48.1879C176.183 48.8599 174.695 49.1959 173.015 49.1959C170.471 49.1959 168.367 48.3799 166.703 46.7479C165.039 45.0999 164.207 42.9559 164.207 40.3159C164.207 37.6919 165.015 35.5799 166.631 33.9799C168.263 32.3639 170.407 31.5559 173.063 31.5559C175.207 31.5559 177.023 32.2359 178.511 33.5959C179.999 34.9559 180.743 36.6999 180.743 38.8279V38.9479C180.743 39.1399 180.671 39.3079 180.527 39.4519C180.383 39.5799 180.207 39.6439 179.999 39.6439H166.343ZM166.367 39.2119L178.415 39.0439C178.543 39.0439 178.607 38.9719 178.607 38.8279C178.607 36.7799 178.087 35.1319 177.047 33.8839C176.023 32.6199 174.663 31.9879 172.967 31.9879C170.919 31.9879 169.327 32.6039 168.191 33.8359C167.071 35.0679 166.463 36.8599 166.367 39.2119ZM181.749 49.0039V48.7879H182.133C182.725 48.7879 183.109 48.6759 183.285 48.4519C183.477 48.2279 183.589 47.7719 183.621 47.0839L184.269 33.2359C184.285 32.9639 184.293 32.7959 184.293 32.7319C184.293 32.4439 184.213 32.2439 184.053 32.1319C183.909 32.0199 183.589 31.9639 183.093 31.9639H182.133V31.7479H185.661L191.877 45.4999C192.117 46.0279 192.237 46.3719 192.237 46.5319H192.357C192.357 46.3239 192.469 45.9799 192.693 45.4999L198.909 31.7479H202.509V31.9639H201.693C201.149 31.9639 200.789 32.0439 200.613 32.2039C200.437 32.3639 200.349 32.6359 200.349 33.0199C200.349 33.0839 200.357 33.2999 200.373 33.6679L200.925 47.0839C200.957 47.7879 201.061 48.2519 201.237 48.4759C201.413 48.6839 201.821 48.7879 202.461 48.7879H202.989V49.0039H196.725V48.7879H197.589C198.197 48.7879 198.597 48.7159 198.789 48.5719C198.981 48.4279 199.077 48.1959 199.077 47.8759C199.077 47.8279 199.069 47.7799 199.053 47.7319C199.053 47.6839 199.053 47.6359 199.053 47.5879C199.053 47.5239 199.053 47.4759 199.053 47.4439L198.573 34.7959C198.557 34.5079 198.549 34.1559 198.549 33.7399H198.405C198.405 33.8039 198.277 34.1319 198.021 34.7239L191.565 49.0999L191.493 49.2679H191.445L191.373 49.0999L185.013 34.9879C184.837 34.6039 184.749 34.2679 184.749 33.9799H184.653C184.653 34.2359 184.645 34.5079 184.629 34.7959L184.029 47.3959C184.013 47.7319 184.005 47.9159 184.005 47.9479C184.005 48.2519 184.101 48.4679 184.293 48.5959C184.485 48.7239 184.893 48.7879 185.517 48.7879H186.381V49.0039H181.749ZM205.109 31.4359C205.109 31.2919 205.389 31.2199 205.949 31.2199C206.525 31.2199 206.813 31.2919 206.813 31.4359C206.813 33.0039 206.709 35.1239 206.501 37.7959C206.293 40.4519 206.189 42.5559 206.189 44.1079H205.757C205.757 42.5399 205.645 40.4279 205.421 37.7719C205.213 35.1159 205.109 33.0039 205.109 31.4359ZM205.949 47.0839C206.269 47.0839 206.525 47.1799 206.717 47.3719C206.925 47.5639 207.029 47.8279 207.029 48.1639C207.029 48.4839 206.933 48.7399 206.741 48.9319C206.549 49.1239 206.285 49.2199 205.949 49.2199C205.629 49.2199 205.373 49.1319 205.181 48.9559C204.989 48.7639 204.893 48.4999 204.893 48.1639C204.893 47.8439 204.981 47.5879 205.157 47.3959C205.349 47.1879 205.613 47.0839 205.949 47.0839Z" fill="black"></path></svg> 