<?xml version="1.0" encoding="UTF-8"?> <svg xmlns="http://www.w3.org/2000/svg" width="137" height="51" viewBox="0 0 137 51" fill="none"><path d="M23.8216 18.2838H25.4776C25.9576 17.8678 26.4296 17.3478 26.8936 16.7238C27.3576 16.0998 27.8056 15.3718 28.2376 14.5398C28.6696 13.7078 29.0216 12.7478 29.2936 11.6598C29.5656 10.5718 29.7016 9.45982 29.7016 8.32382V3.45182C29.7016 2.61982 29.5976 2.11582 29.3896 1.93982C29.1976 1.76382 28.6776 1.67582 27.8296 1.67582H27.3016V1.45982H38.9896V1.67582H38.1256C37.5656 1.67582 37.2136 1.77182 37.0696 1.96382C36.9256 2.15582 36.8536 2.55582 36.8536 3.16382V18.2838H38.9896V22.7478H38.1256V20.2038C38.1256 19.5958 38.0456 19.1958 37.8856 19.0038C37.7416 18.8118 37.3896 18.7158 36.8296 18.7158H25.9816C25.4216 18.7158 25.0616 18.8118 24.9016 19.0038C24.7576 19.1958 24.6856 19.5958 24.6856 20.2038V22.7478H23.8216V18.2838ZM28.1416 18.2838H34.9816V1.89182H30.3256V7.74782C30.3256 9.98782 30.1176 12.0198 29.7016 13.8438C29.3016 15.6518 28.7816 17.1318 28.1416 18.2838ZM42.2345 9.35582C42.2345 9.45182 42.2345 9.54782 42.2345 9.64382C42.2345 12.4758 42.8345 14.6598 44.0345 16.1958C45.2505 17.7158 46.8985 18.4758 48.9785 18.4758C50.5785 18.4758 51.9945 18.1558 53.2265 17.5158C54.4585 16.8598 55.4265 15.9398 56.1305 14.7558L56.4665 15.0198C55.7145 16.2518 54.6825 17.2118 53.3705 17.8998C52.0745 18.5718 50.5865 18.9078 48.9065 18.9078C46.3625 18.9078 44.2585 18.0918 42.5945 16.4598C40.9305 14.8118 40.0985 12.6678 40.0985 10.0278C40.0985 7.40382 40.9065 5.29182 42.5225 3.69182C44.1545 2.07582 46.2985 1.26782 48.9545 1.26782C51.0985 1.26782 52.9145 1.94782 54.4025 3.30782C55.8905 4.66782 56.6345 6.41182 56.6345 8.53982V8.65982C56.6345 8.85182 56.5625 9.01982 56.4185 9.16382C56.2745 9.29182 56.0985 9.35582 55.8905 9.35582H42.2345ZM42.2585 8.92382L54.3065 8.75582C54.4345 8.75582 54.4985 8.68382 54.4985 8.53982C54.4985 6.49182 53.9785 4.84382 52.9385 3.59582C51.9145 2.33182 50.5545 1.69982 48.8585 1.69982C46.8105 1.69982 45.2185 2.31582 44.0825 3.54782C42.9625 4.77982 42.3545 6.57182 42.2585 8.92382ZM59.615 18.7158V18.4998H61.439C62.015 18.4998 62.367 18.4358 62.495 18.3078C62.639 18.1638 62.711 17.8038 62.711 17.2278V1.89182H61.271C60.071 1.89182 59.247 2.07582 58.799 2.44382C58.351 2.79582 58.095 3.53182 58.031 4.65182L57.959 5.63582L57.527 5.61182L57.887 0.043819L58.151 0.0678201L58.031 1.45982H69.215L69.095 0.0918198L69.359 0.0678201L69.719 5.61182L69.287 5.63582L69.215 4.65182C69.135 3.53182 68.871 2.79582 68.423 2.44382C67.975 2.07582 67.159 1.89182 65.975 1.89182H64.583V17.2278C64.583 17.8038 64.647 18.1638 64.775 18.3078C64.919 18.4358 65.279 18.4998 65.855 18.4998H67.631V18.7158H59.615ZM78.4694 9.97982V4.84382C78.4694 2.74782 77.5254 1.69982 75.6374 1.69982C74.4854 1.69982 73.5894 2.00382 72.9494 2.61182C72.3094 3.20382 71.9654 3.98782 71.9174 4.96382L71.8454 6.45182H71.4134L71.6774 0.787819H71.9174L71.8454 2.05982C71.8134 2.44382 71.7814 2.69982 71.7494 2.82782L71.9174 2.87582C71.9974 2.63582 72.1254 2.45182 72.3014 2.32382C73.2454 1.61982 74.3494 1.26782 75.6134 1.26782C77.1654 1.26782 78.3414 1.60382 79.1414 2.27582C79.9414 2.93182 80.3414 3.89182 80.3414 5.15582V17.0118C80.3414 17.5078 80.3814 17.8358 80.4614 17.9958C80.5574 18.1558 80.7814 18.2358 81.1334 18.2358L81.6134 18.2118L82.0214 18.1878L82.0454 18.4038C81.1014 18.4998 80.2294 18.6758 79.4294 18.9318V18.7398C79.4294 18.2598 79.3414 17.5398 79.1654 16.5798C79.0534 15.8598 78.9894 15.3398 78.9734 15.0198H78.7334C78.0934 17.6118 76.7494 18.9078 74.7014 18.9078C73.3894 18.9078 72.3014 18.5478 71.4374 17.8278C70.5894 17.0918 70.1654 16.1398 70.1654 14.9718C70.1654 13.4678 70.7494 12.2598 71.9174 11.3478C73.1014 10.4358 74.6614 9.97982 76.5974 9.97982H78.4694ZM78.4694 10.4118H76.7174C75.3734 10.4118 74.2934 10.8358 73.4774 11.6838C72.6614 12.5158 72.2534 13.6118 72.2534 14.9718C72.2534 15.9638 72.5014 16.7638 72.9974 17.3718C73.5094 17.9638 74.1734 18.2598 74.9894 18.2598C75.9174 18.2598 76.7254 17.8358 77.4134 16.9878C78.1174 16.1238 78.4694 14.8918 78.4694 13.2918V10.4118ZM84.8081 1.45982H86.8721H93.4481H97.4561V1.67582H96.5921C96.0321 1.67582 95.6801 1.77182 95.5361 1.96382C95.3921 2.15582 95.3201 2.55582 95.3201 3.16382V17.0118C95.3201 17.6198 95.3921 18.0198 95.5361 18.2118C95.6801 18.4038 96.0321 18.4998 96.5921 18.4998H97.4561V18.7158H91.5281V18.4998H92.1761C92.7361 18.4998 93.0881 18.4038 93.2321 18.2118C93.3761 18.0198 93.4481 17.6198 93.4481 17.0118V1.89182H87.8321V7.74782C87.8321 10.7078 87.4881 13.2358 86.8001 15.3318C86.1121 17.4118 85.3121 18.8278 84.4001 19.5798L82.9841 17.9718C83.4801 17.5558 83.9521 17.0598 84.4001 16.4838C84.8481 15.8918 85.2881 15.1958 85.7201 14.3958C86.1681 13.5958 86.5281 12.6678 86.8001 11.6118C87.0721 10.5558 87.2081 9.45982 87.2081 8.32382V3.45182C87.2081 2.61982 87.1041 2.11582 86.8961 1.93982C86.7041 1.76382 86.1841 1.67582 85.3361 1.67582H84.8081V1.45982ZM98.2865 18.7158V18.4998H99.1265C99.6865 18.4998 100.038 18.4038 100.182 18.2118C100.326 18.0198 100.398 17.6198 100.398 17.0118V3.16382C100.398 2.55582 100.326 2.15582 100.182 1.96382C100.038 1.77182 99.6865 1.67582 99.1265 1.67582H98.2865V1.45982H104.19V1.67582H103.566C103.006 1.67582 102.646 1.77182 102.486 1.96382C102.342 2.15582 102.27 2.55582 102.27 3.16382V17.0838L109.086 1.45982H112.854V1.67582H111.99C111.43 1.67582 111.078 1.77182 110.934 1.96382C110.79 2.15582 110.718 2.55582 110.718 3.16382V17.0118C110.718 17.6198 110.79 18.0198 110.934 18.2118C111.078 18.4038 111.43 18.4998 111.99 18.4998H112.854V18.7158H106.926V18.4998H107.574C108.134 18.4998 108.486 18.4038 108.63 18.2118C108.774 18.0198 108.846 17.6198 108.846 17.0118V3.09182L102.03 18.7158H98.2865ZM2.59155 49.7158V49.4998H4.41555C4.99155 49.4998 5.34356 49.4358 5.47156 49.3078C5.61555 49.1638 5.68755 48.8038 5.68755 48.2278V32.8918H4.24755C3.04755 32.8918 2.22355 33.0758 1.77555 33.4438C1.32755 33.7958 1.07155 34.5318 1.00755 35.6518L0.935555 36.6358L0.503555 36.6118L0.863555 31.0438L1.12755 31.0678L1.00755 32.4598H12.1916L12.0716 31.0918L12.3356 31.0678L12.6956 36.6118L12.2636 36.6358L12.1916 35.6518C12.1116 34.5318 11.8476 33.7958 11.3996 33.4438C10.9516 33.0758 10.1356 32.8918 8.95156 32.8918H7.55956V48.2278C7.55956 48.8038 7.62355 49.1638 7.75155 49.3078C7.89555 49.4358 8.25555 49.4998 8.83156 49.4998H10.6076V49.7158H2.59155ZM22.5181 49.9078C19.8461 49.9078 17.6941 49.0998 16.0621 47.4838C14.4301 45.8678 13.6141 43.7318 13.6141 41.0758C13.6141 38.4358 14.4301 36.3078 16.0621 34.6918C17.6941 33.0758 19.8461 32.2678 22.5181 32.2678C25.1741 32.2678 27.3101 33.0758 28.9261 34.6918C30.5581 36.3078 31.3741 38.4358 31.3741 41.0758C31.3741 43.7318 30.5581 45.8678 28.9261 47.4838C27.3101 49.0998 25.1741 49.9078 22.5181 49.9078ZM22.5901 49.4758C24.7661 49.4758 26.4221 48.7958 27.5581 47.4358C28.7101 46.0758 29.2861 44.1078 29.2861 41.5318C29.2861 38.6678 28.6941 36.4838 27.5101 34.9798C26.3421 33.4598 24.6461 32.6998 22.4221 32.6998C20.2301 32.6998 18.5581 33.3798 17.4061 34.7398C16.2701 36.0998 15.7021 38.0678 15.7021 40.6438C15.7021 43.5078 16.2861 45.6998 17.4541 47.2198C18.6381 48.7238 20.3501 49.4758 22.5901 49.4758ZM36.1203 32.9158V33.0358C36.3923 33.4038 36.5283 33.8998 36.5283 34.5238V42.5638H37.8723C39.3923 42.5638 40.5443 42.1558 41.3283 41.3398C42.1283 40.5078 42.5283 39.3078 42.5283 37.7398C42.5283 36.1718 42.1283 34.9798 41.3283 34.1638C40.5443 33.3318 39.3923 32.9158 37.8723 32.9158H36.1203ZM32.5443 49.7158V49.4998H33.3843C33.9603 49.4998 34.3123 49.4358 34.4403 49.3078C34.5843 49.1638 34.6563 48.8038 34.6563 48.2278V33.9478C34.6563 33.3718 34.5843 33.0198 34.4403 32.8918C34.3123 32.7478 33.9603 32.6758 33.3843 32.6758H32.5443V32.4598H38.5923C40.4003 32.4598 41.8563 32.9478 42.9603 33.9238C44.0643 34.8838 44.6163 36.1558 44.6163 37.7398C44.6163 39.3238 44.0643 40.5958 42.9603 41.5558C41.8563 42.5158 40.4003 42.9958 38.5923 42.9958H36.5283V48.2278C36.5283 48.8038 36.6003 49.1638 36.7443 49.3078C36.8883 49.4358 37.2483 49.4998 37.8243 49.4998H38.4243V49.7158H32.5443ZM51.458 49.7158V49.4998H52.298C52.874 49.4998 53.226 49.4198 53.354 49.2598C53.498 49.0998 53.57 48.6838 53.57 48.0118V39.5638H53.426C52.962 39.5638 52.538 39.6278 52.154 39.7558C51.77 39.8678 51.442 40.0118 51.17 40.1878C50.914 40.3638 50.674 40.6198 50.45 40.9558C50.226 41.2918 50.05 41.5878 49.922 41.8438C49.794 42.0998 49.666 42.4678 49.538 42.9478C49.426 43.4118 49.338 43.7878 49.274 44.0758C49.226 44.3478 49.154 44.7398 49.058 45.2518C48.978 45.6998 48.914 46.0518 48.866 46.3078C48.818 46.5478 48.746 46.8598 48.65 47.2438C48.554 47.6278 48.458 47.9318 48.362 48.1558C48.266 48.3638 48.138 48.6038 47.978 48.8758C47.818 49.1478 47.642 49.3558 47.45 49.4998C47.258 49.6278 47.026 49.7398 46.754 49.8358C46.498 49.9318 46.21 49.9798 45.89 49.9798C45.25 49.9798 44.602 49.6838 43.946 49.0918L43.634 48.8518L43.778 48.6838L44.09 48.9238C44.49 49.2438 44.866 49.4038 45.218 49.4038C45.49 49.4038 45.73 49.3398 45.938 49.2118C46.146 49.0838 46.306 48.9398 46.418 48.7798C46.53 48.6038 46.634 48.3478 46.73 48.0118C46.826 47.6598 46.89 47.3638 46.922 47.1238C46.954 46.8678 47.002 46.4998 47.066 46.0198C47.13 45.5238 47.178 45.1398 47.21 44.8678C47.258 44.5798 47.33 44.1958 47.426 43.7158C47.538 43.2358 47.658 42.8438 47.786 42.5398C47.93 42.2358 48.114 41.8838 48.338 41.4838C48.578 41.0838 48.842 40.7638 49.13 40.5238C49.418 40.2678 49.778 40.0278 50.21 39.8038C50.658 39.5638 51.154 39.3798 51.698 39.2518L51.722 39.1558L47.906 34.3318C47.442 33.7558 46.89 33.3398 46.25 33.0838C45.61 32.8118 44.986 32.6758 44.378 32.6758H44.09V32.4598H49.394V32.6758H49.178C48.346 32.6758 47.93 32.8918 47.93 33.3238C47.93 33.5798 48.074 33.8838 48.362 34.2358L52.154 39.0118C52.33 39.2358 52.802 39.3478 53.57 39.3478V33.9478C53.57 33.3718 53.498 33.0198 53.354 32.8918C53.226 32.7478 52.874 32.6758 52.298 32.6758H52.058V32.4598H56.954V32.6758H56.738C56.162 32.6758 55.802 32.7478 55.658 32.8918C55.514 33.0198 55.442 33.3718 55.442 33.9478V39.3478C55.89 39.3478 56.21 39.3318 56.402 39.2998C56.61 39.2518 56.77 39.1558 56.882 39.0118L60.674 34.2358C60.962 33.8838 61.106 33.5798 61.106 33.3238C61.106 32.8918 60.69 32.6758 59.858 32.6758H59.642V32.4598H64.946V32.6758H64.658C64.05 32.6758 63.426 32.8118 62.786 33.0838C62.146 33.3398 61.594 33.7558 61.13 34.3318L57.314 39.1558L57.338 39.2518C57.882 39.3798 58.394 39.5878 58.874 39.8758C59.354 40.1478 59.826 40.5318 60.29 41.0278C60.754 41.5078 61.13 41.9398 61.418 42.3238C61.722 42.7078 62.114 43.2518 62.594 43.9558C62.978 44.4838 63.282 44.9158 63.506 45.2518C63.746 45.5718 64.066 45.9798 64.466 46.4758C64.882 46.9558 65.258 47.3478 65.594 47.6518C65.93 47.9398 66.346 48.2598 66.842 48.6118C67.338 48.9638 67.826 49.2358 68.306 49.4278C68.802 49.6198 69.362 49.7798 69.986 49.9078C70.626 50.0518 71.29 50.1238 71.978 50.1238C72.842 50.1238 73.706 50.0198 74.57 49.8118C75.434 49.6038 76.194 49.3398 76.85 49.0198C77.506 48.6998 78.042 48.4118 78.458 48.1558C78.89 47.8838 79.234 47.6438 79.49 47.4358L80.018 46.9798L80.138 47.1478L79.61 47.6038C78.634 48.4518 77.378 49.2038 75.842 49.8598C74.306 50.5318 72.73 50.8678 71.114 50.8678C70.314 50.8678 69.538 50.7798 68.786 50.6038C68.05 50.4438 67.394 50.2438 66.818 50.0038C66.242 49.7638 65.658 49.4278 65.066 48.9958C64.474 48.5638 63.978 48.1718 63.578 47.8198C63.194 47.4518 62.762 46.9798 62.282 46.4038C61.802 45.8278 61.426 45.3638 61.154 45.0118C60.882 44.6438 60.538 44.1558 60.122 43.5478C59.642 42.8598 59.258 42.3398 58.97 41.9878C58.698 41.6198 58.362 41.2198 57.962 40.7878C57.562 40.3398 57.17 40.0278 56.786 39.8518C56.418 39.6598 56.026 39.5638 55.61 39.5638H55.442V48.0118C55.442 48.6838 55.514 49.0998 55.658 49.2598C55.802 49.4198 56.162 49.4998 56.738 49.4998H57.578V49.7158H51.458ZM67.802 38.7958C67.802 38.8918 67.802 38.9878 67.802 39.0838C67.802 41.4518 68.242 43.2598 69.122 44.5078C70.002 45.7398 71.29 46.3558 72.986 46.3558C74.394 46.3558 75.626 46.0438 76.682 45.4198C77.738 44.7958 78.538 43.9318 79.082 42.8278L79.442 43.0678C78.866 44.2358 78.018 45.1478 76.898 45.8038C75.778 46.4598 74.474 46.7878 72.986 46.7878C70.826 46.7878 69.082 46.1158 67.754 44.7718C66.426 43.4278 65.762 41.6598 65.762 39.4678C65.762 37.3078 66.426 35.5718 67.754 34.2598C69.098 32.9318 70.866 32.2678 73.058 32.2678C74.962 32.2678 76.498 32.7958 77.666 33.8518C78.834 34.8918 79.418 36.2678 79.418 37.9798V38.0998C79.418 38.2918 79.346 38.4598 79.202 38.6038C79.058 38.7318 78.882 38.7958 78.674 38.7958H67.802ZM67.826 38.3638L77.234 38.1958C77.362 38.1958 77.426 38.1238 77.426 37.9798C77.426 36.3958 77.018 35.1238 76.202 34.1638C75.386 33.1878 74.306 32.6998 72.962 32.6998C71.378 32.6998 70.146 33.1798 69.266 34.1398C68.402 35.0998 67.922 36.5078 67.826 38.3638ZM82.1007 41.0278C82.1007 38.4038 82.8687 36.2918 84.4047 34.6918C85.9407 33.0758 87.9647 32.2678 90.4767 32.2678C92.2047 32.2678 93.6687 32.7798 94.8687 33.8038C94.9807 33.9158 95.0687 34.0758 95.1327 34.2838L95.3007 34.2358C95.2687 34.0758 95.2447 33.8438 95.2287 33.5398L95.1807 31.7878H95.3967L95.6127 38.7238L95.1807 38.7478L95.1087 36.5158C95.0447 35.4598 94.5247 34.5558 93.5487 33.8038C92.5887 33.0518 91.5007 32.6758 90.2847 32.6758C88.3167 32.6758 86.8127 33.3558 85.7727 34.7158C84.7487 36.0758 84.2367 38.0518 84.2367 40.6438C84.2367 43.5078 84.7727 45.6998 85.8447 47.2198C86.9327 48.7238 88.5007 49.4758 90.5487 49.4758C91.7167 49.4758 92.7967 49.1798 93.7887 48.5878C94.7807 47.9958 95.4767 47.1958 95.8767 46.1878L96.2847 46.3558C95.8367 47.5078 95.0847 48.3878 94.0287 48.9958C92.9887 49.6038 91.8127 49.9078 90.5007 49.9078C87.9887 49.9078 85.9567 49.0918 84.4047 47.4598C82.8687 45.8278 82.1007 43.6838 82.1007 41.0278ZM99.1072 49.7158V49.4998H100.931C101.507 49.4998 101.859 49.4358 101.987 49.3078C102.131 49.1638 102.203 48.8038 102.203 48.2278V32.8918H100.763C99.5632 32.8918 98.7392 33.0758 98.2912 33.4438C97.8432 33.7958 97.5872 34.5318 97.5232 35.6518L97.4512 36.6358L97.0192 36.6118L97.3792 31.0438L97.6432 31.0678L97.5232 32.4598H108.707L108.587 31.0918L108.851 31.0678L109.211 36.6118L108.779 36.6358L108.707 35.6518C108.627 34.5318 108.363 33.7958 107.915 33.4438C107.467 33.0758 106.651 32.8918 105.467 32.8918H104.075V48.2278C104.075 48.8038 104.139 49.1638 104.267 49.3078C104.411 49.4358 104.771 49.4998 105.347 49.4998H107.123V49.7158H99.1072ZM113.581 49.2838H116.317C117.805 49.2838 119.005 48.8678 119.917 48.0358C120.829 47.2038 121.285 46.0998 121.285 44.7238C121.285 43.2838 120.805 42.0998 119.845 41.1718C118.885 40.2438 117.661 39.7798 116.173 39.7798H114.901V39.3718H115.861C116.917 39.3718 117.789 39.0678 118.477 38.4598C119.165 37.8518 119.509 37.0758 119.509 36.1318C119.509 35.1558 119.141 34.3718 118.405 33.7798C117.685 33.1878 116.725 32.8918 115.525 32.8918H113.581V32.9158C113.853 33.1878 113.989 33.6038 113.989 34.1638V48.0118C113.989 48.5558 113.853 48.9638 113.581 49.2358V49.2838ZM110.005 49.7158V49.4998H110.845C111.421 49.4998 111.773 49.4358 111.901 49.3078C112.045 49.1638 112.117 48.8038 112.117 48.2278V33.9478C112.117 33.3718 112.045 33.0198 111.901 32.8918C111.773 32.7478 111.421 32.6758 110.845 32.6758H110.005V32.4598H115.861C117.573 32.4598 118.949 32.7958 119.989 33.4678C121.029 34.1238 121.549 34.9958 121.549 36.0838C121.549 36.8198 121.229 37.5318 120.589 38.2198C119.965 38.8918 119.133 39.2998 118.093 39.4438V39.5398C119.597 39.6518 120.853 40.2278 121.861 41.2678C122.869 42.3078 123.373 43.4598 123.373 44.7238C123.373 46.1958 122.741 47.3958 121.477 48.3238C120.213 49.2518 118.637 49.7158 116.749 49.7158H110.005ZM132.68 40.9798V35.8438C132.68 33.7478 131.736 32.6998 129.848 32.6998C128.696 32.6998 127.8 33.0038 127.16 33.6118C126.52 34.2038 126.176 34.9878 126.128 35.9638L126.056 37.4518H125.624L125.888 31.7878H126.128L126.056 33.0598C126.024 33.4438 125.992 33.6998 125.96 33.8278L126.128 33.8758C126.208 33.6358 126.336 33.4518 126.512 33.3238C127.456 32.6198 128.56 32.2678 129.824 32.2678C131.376 32.2678 132.552 32.6038 133.352 33.2758C134.152 33.9318 134.552 34.8918 134.552 36.1558V48.0118C134.552 48.5078 134.592 48.8358 134.672 48.9958C134.768 49.1558 134.992 49.2358 135.344 49.2358L135.824 49.2118L136.232 49.1878L136.256 49.4038C135.312 49.4998 134.44 49.6758 133.64 49.9318V49.7398C133.64 49.2598 133.552 48.5398 133.376 47.5798C133.264 46.8598 133.2 46.3398 133.184 46.0198H132.944C132.304 48.6118 130.96 49.9078 128.912 49.9078C127.6 49.9078 126.512 49.5478 125.648 48.8278C124.8 48.0918 124.376 47.1398 124.376 45.9718C124.376 44.4678 124.96 43.2598 126.128 42.3478C127.312 41.4358 128.872 40.9798 130.808 40.9798H132.68ZM132.68 41.4118H130.928C129.584 41.4118 128.504 41.8358 127.688 42.6838C126.872 43.5158 126.464 44.6118 126.464 45.9718C126.464 46.9638 126.712 47.7638 127.208 48.3718C127.72 48.9638 128.384 49.2598 129.2 49.2598C130.128 49.2598 130.936 48.8358 131.624 47.9878C132.328 47.1238 132.68 45.8918 132.68 44.2918V41.4118Z" fill="black"></path></svg> 