<?xml version="1.0" encoding="UTF-8"?> <svg xmlns="http://www.w3.org/2000/svg" width="430" height="104" viewBox="0 0 430 104" fill="none"><path d="M131.804 35.8494V41.2352H131.374C131.345 40.8618 131.244 40.4453 131.072 39.9857C130.9 39.5261 130.655 39.0953 130.34 38.6931C130.052 38.3197 129.708 38.0037 129.305 37.7452C128.903 37.4867 128.458 37.3574 127.97 37.3574H108.107C107.618 37.3574 107.173 37.4867 106.771 37.7452C106.369 38.0324 106.01 38.3628 105.694 38.7362C105.407 39.1383 105.163 39.5692 104.961 40.0288C104.789 40.4884 104.689 40.8905 104.66 41.2352H104.229V35.8494H106.125C107.044 35.8494 107.69 35.318 108.064 34.2552L117.974 8.2739L127.97 34.1259C128.171 34.5568 128.444 34.9589 128.788 35.3323C129.133 35.677 129.535 35.8494 129.995 35.8494H131.804ZM109.012 35.8494H125.6L117.284 14.4353L109.012 35.8494ZM135.264 8.9202H141.382C144.571 8.9202 146.983 9.53778 148.621 10.7729C150.287 11.9794 151.12 13.7028 151.12 15.9433C151.12 17.1498 150.833 18.2269 150.258 19.1748C149.684 20.1227 148.922 20.927 147.974 21.5877C147.055 22.2196 146.007 22.7079 144.829 23.0526C143.68 23.3973 142.531 23.5697 141.382 23.5697H139.745V34.5568C139.745 34.7866 139.774 35.0451 139.831 35.3323C139.888 35.5909 139.975 35.835 140.09 36.0648C140.233 36.2946 140.377 36.4957 140.52 36.668C140.693 36.8404 140.894 36.9266 141.124 36.9266H141.339V37.3574H135.264V36.9266H135.479C135.68 36.9266 135.867 36.8404 136.039 36.668C136.212 36.4957 136.355 36.2946 136.47 36.0648C136.585 35.835 136.671 35.5909 136.729 35.3323C136.786 35.0451 136.815 34.7866 136.815 34.5568V11.5916C136.815 11.1894 136.7 10.7298 136.47 10.2128C136.24 9.69576 135.91 9.40852 135.479 9.35107H135.264V8.9202ZM139.745 10.4282V22.0616H141.037C142.186 22.0616 143.206 21.9037 144.097 21.5877C145.016 21.2717 145.777 20.8552 146.38 20.3382C146.983 19.8211 147.443 19.2323 147.759 18.5716C148.075 17.911 148.233 17.2359 148.233 16.5465C148.233 15.7135 148.089 14.938 147.802 14.2199C147.544 13.473 147.098 12.8267 146.466 12.281C145.863 11.7065 145.059 11.2612 144.054 10.9453C143.048 10.6006 141.813 10.4282 140.348 10.4282H139.745ZM154.789 36.9266H155.004C155.234 36.9266 155.435 36.8547 155.607 36.7111C155.78 36.5388 155.923 36.3377 156.038 36.1079C156.182 35.8781 156.282 35.634 156.34 35.3754C156.426 35.1169 156.469 34.8728 156.469 34.643V11.5916C156.469 11.3905 156.426 11.1607 156.34 10.9022C156.282 10.6437 156.182 10.3995 156.038 10.1697C155.923 9.93992 155.78 9.75321 155.607 9.60959C155.435 9.43724 155.234 9.35107 155.004 9.35107H154.789V8.9202H171.377V12.9273H170.946C170.889 12.2666 170.63 11.6921 170.17 11.2038C169.711 10.6868 168.993 10.4282 168.016 10.4282H159.356V21.3292H166.508C167.169 21.3292 167.715 21.1281 168.145 20.726C168.605 20.3238 168.835 19.8499 168.835 19.3041H169.266V24.6899H168.835C168.835 24.1729 168.619 23.7277 168.188 23.3542C167.758 22.9808 167.197 22.7941 166.508 22.7941H159.356V35.8494H168.792C169.337 35.8494 169.811 35.7201 170.214 35.4616C170.616 35.2031 170.946 34.9015 171.205 34.5568C171.492 34.1834 171.693 33.7956 171.808 33.3934C171.951 32.9626 172.023 32.6035 172.023 32.3163H172.454V37.3574H154.789V36.9266ZM189.437 10.0405C187.311 10.0405 185.458 10.4282 183.878 11.2038C182.327 11.9506 181.035 12.9416 180.001 14.1768C178.967 15.3832 178.191 16.7476 177.674 18.27C177.186 19.7924 176.941 21.3004 176.941 22.7941C176.941 24.4889 177.272 26.1549 177.932 27.7922C178.593 29.4007 179.498 30.837 180.647 32.1008C181.825 33.336 183.189 34.3414 184.74 35.1169C186.291 35.8637 187.972 36.2372 189.781 36.2372C190.298 36.2372 190.902 36.1797 191.591 36.0648C192.309 35.9499 193.013 35.7345 193.702 35.4185C194.392 35.0738 195.024 34.5999 195.598 33.9967C196.201 33.3934 196.661 32.6035 196.977 31.6269H197.408V36.4095C196.977 36.4095 196.517 36.467 196.029 36.5819C195.569 36.6968 195.052 36.826 194.478 36.9696C193.731 37.1707 192.898 37.3574 191.979 37.5298C191.088 37.7021 190.14 37.7883 189.135 37.7883C186.636 37.7883 184.439 37.3574 182.543 36.4957C180.647 35.634 179.067 34.5137 177.803 33.1349C176.539 31.7562 175.591 30.205 174.959 28.4816C174.328 26.7294 174.012 24.9628 174.012 23.1819C174.012 21.401 174.328 19.6344 174.959 17.8822C175.591 16.13 176.554 14.5646 177.846 13.1858C179.139 11.7783 180.762 10.6437 182.715 9.78194C184.668 8.9202 186.966 8.48934 189.609 8.48934C190.557 8.48934 191.404 8.57551 192.151 8.74786C192.927 8.9202 193.616 9.09255 194.219 9.2649C194.65 9.40852 195.038 9.52342 195.383 9.60959C195.756 9.66704 196.115 9.69576 196.46 9.69576V14.4784H196.029C195.857 13.5879 195.541 12.8555 195.081 12.281C194.621 11.6778 194.076 11.2182 193.444 10.9022C192.84 10.5862 192.18 10.3708 191.462 10.2559C190.772 10.1123 190.097 10.0405 189.437 10.0405ZM214.262 10.0405C212.136 10.0405 210.284 10.4282 208.704 11.2038C207.153 11.9506 205.86 12.9416 204.826 14.1768C203.792 15.3832 203.016 16.7476 202.499 18.27C202.011 19.7924 201.767 21.3004 201.767 22.7941C201.767 24.4889 202.097 26.1549 202.758 27.7922C203.418 29.4007 204.323 30.837 205.472 32.1008C206.65 33.336 208.014 34.3414 209.566 35.1169C211.117 35.8637 212.797 36.2372 214.607 36.2372C215.124 36.2372 215.727 36.1797 216.416 36.0648C217.134 35.9499 217.838 35.7345 218.528 35.4185C219.217 35.0738 219.849 34.5999 220.423 33.9967C221.027 33.3934 221.486 32.6035 221.802 31.6269H222.233V36.4095C221.802 36.4095 221.343 36.467 220.854 36.5819C220.395 36.6968 219.878 36.826 219.303 36.9696C218.556 37.1707 217.723 37.3574 216.804 37.5298C215.914 37.7021 214.966 37.7883 213.96 37.7883C211.461 37.7883 209.264 37.3574 207.368 36.4957C205.472 35.634 203.892 34.5137 202.629 33.1349C201.365 31.7562 200.417 30.205 199.785 28.4816C199.153 26.7294 198.837 24.9628 198.837 23.1819C198.837 21.401 199.153 19.6344 199.785 17.8822C200.417 16.13 201.379 14.5646 202.672 13.1858C203.964 11.7783 205.587 10.6437 207.54 9.78194C209.494 8.9202 211.792 8.48934 214.434 8.48934C215.382 8.48934 216.23 8.57551 216.976 8.74786C217.752 8.9202 218.441 9.09255 219.045 9.2649C219.475 9.40852 219.863 9.52342 220.208 9.60959C220.581 9.66704 220.94 9.69576 221.285 9.69576V14.4784H220.854C220.682 13.5879 220.366 12.8555 219.906 12.281C219.447 11.6778 218.901 11.2182 218.269 10.9022C217.666 10.5862 217.005 10.3708 216.287 10.2559C215.598 10.1123 214.923 10.0405 214.262 10.0405ZM236.444 28.4816V26.3272H246.224V28.4816H236.444ZM261.159 36.9266H261.374C261.604 36.9266 261.805 36.8404 261.977 36.668C262.15 36.4957 262.293 36.2946 262.408 36.0648C262.552 35.835 262.652 35.5909 262.71 35.3323C262.767 35.0451 262.796 34.7866 262.796 34.5568V11.5916C262.796 11.3905 262.767 11.1607 262.71 10.9022C262.652 10.6437 262.552 10.3995 262.408 10.1697C262.293 9.93992 262.15 9.75321 261.977 9.60959C261.805 9.43724 261.618 9.35107 261.417 9.35107H261.202V8.9202H267.32V9.35107H267.105C266.875 9.35107 266.674 9.43724 266.502 9.60959C266.329 9.75321 266.171 9.93992 266.028 10.1697C265.913 10.3995 265.812 10.6437 265.726 10.9022C265.669 11.1607 265.64 11.3905 265.64 11.5916V20.5105L275.636 10.5575C275.866 10.3277 275.981 10.0548 275.981 9.73885C275.981 9.48033 275.866 9.35107 275.636 9.35107V8.9202H280.289V9.35107C279.715 9.37979 279.198 9.55214 278.738 9.86811C278.307 10.1841 277.833 10.6006 277.316 11.1176L267.105 21.3292C268.972 21.3866 270.48 21.7888 271.629 22.5356C272.778 23.2824 273.683 24.3165 274.343 25.6378L277.747 32.5317C277.948 32.9626 278.207 33.4365 278.523 33.9536C278.867 34.4419 279.241 34.9158 279.643 35.3754C280.074 35.8063 280.548 36.1797 281.065 36.4957C281.582 36.7829 282.128 36.9266 282.702 36.9266V37.3574H280.548C279.715 37.3574 278.997 37.2425 278.393 37.0127C277.79 36.7542 277.259 36.4239 276.799 36.0217C276.368 35.5909 275.981 35.1169 275.636 34.5999C275.32 34.0828 275.033 33.5658 274.774 33.0488L271.284 26.1118C270.738 25.049 269.977 24.2447 269.001 23.6989C268.053 23.1245 266.932 22.8085 265.64 22.751V34.5568C265.64 34.7866 265.669 35.0307 265.726 35.2893C265.783 35.5478 265.87 35.8063 265.985 36.0648C266.099 36.2946 266.243 36.4957 266.415 36.668C266.588 36.8117 266.774 36.8978 266.975 36.9266H267.277V37.3574H261.159V36.9266ZM296.717 8.48934C298.958 8.48934 300.969 8.89148 302.75 9.69576C304.53 10.4713 306.039 11.5341 307.274 12.8842C308.538 14.2055 309.5 15.7566 310.16 17.5375C310.85 19.2897 311.195 21.1281 311.195 23.0526C311.195 25.207 310.792 27.189 309.988 28.9986C309.213 30.8082 308.135 32.3594 306.757 33.652C305.378 34.9446 303.769 35.9643 301.931 36.7111C300.121 37.4292 298.182 37.7883 296.114 37.7883C293.902 37.7883 291.906 37.3861 290.125 36.5819C288.373 35.7776 286.879 34.7148 285.644 33.3934C284.438 32.0721 283.504 30.5497 282.844 28.8263C282.183 27.1028 281.853 25.3075 281.853 23.4404C281.853 21.6021 282.183 19.7924 282.844 18.0115C283.504 16.2019 284.466 14.5933 285.73 13.1858C287.023 11.7783 288.588 10.6437 290.427 9.78194C292.265 8.9202 294.362 8.48934 296.717 8.48934ZM296.674 36.2803C298.599 36.1941 300.279 35.7632 301.715 34.9877C303.18 34.1834 304.401 33.178 305.378 31.9716C306.354 30.7364 307.073 29.3864 307.532 27.9214C308.021 26.4565 308.265 25.0059 308.265 23.5697C308.265 21.9898 307.977 20.3956 307.403 18.7871C306.828 17.1785 306.01 15.7279 304.947 14.4353C303.884 13.114 302.606 12.0512 301.112 11.2469C299.647 10.4139 297.996 9.99737 296.157 9.99737C294.376 9.99737 292.782 10.3995 291.375 11.2038C289.967 11.9794 288.761 12.9847 287.755 14.2199C286.779 15.455 286.032 16.8338 285.515 18.3562C284.998 19.8786 284.739 21.3723 284.739 22.8372C284.739 24.4171 285.041 26.0113 285.644 27.6198C286.247 29.1997 287.08 30.6359 288.143 31.9285C289.206 33.2211 290.456 34.2695 291.892 35.0738C293.357 35.8781 294.951 36.2803 296.674 36.2803ZM336.592 35.8494V41.2352H336.162C336.133 40.8618 336.032 40.4453 335.86 39.9857C335.688 39.5261 335.444 39.0953 335.128 38.6931C334.84 38.3197 334.496 38.0037 334.093 37.7452C333.691 37.4867 333.246 37.3574 332.758 37.3574H312.895C312.406 37.3574 311.961 37.4867 311.559 37.7452C311.157 38.0324 310.798 38.3628 310.482 38.7362C310.195 39.1383 309.951 39.5692 309.749 40.0288C309.577 40.4884 309.477 40.8905 309.448 41.2352H309.017V35.8494H310.913C311.832 35.8494 312.478 35.318 312.852 34.2552L322.762 8.2739L332.758 34.1259C332.959 34.5568 333.232 34.9589 333.576 35.3323C333.921 35.677 334.323 35.8494 334.783 35.8494H336.592ZM313.8 35.8494H330.388L322.072 14.4353L313.8 35.8494Z" fill="#402A0C"></path><path d="M173.285 38.6522C177.352 43.1856 176.518 47.5022 170.785 51.6022C166.518 54.6689 159.885 57.4522 150.885 59.9522C155.018 59.4522 158.385 59.4689 160.985 60.0022C164.285 60.6689 166.218 62.1356 166.785 64.4022C167.052 65.6022 166.535 67.0522 165.235 68.7522C165.868 68.7856 166.702 68.8689 167.735 69.0022C167.935 69.0689 168.035 69.2022 168.035 69.4022C168.002 69.6356 167.868 69.7689 167.635 69.8022L166.085 69.7022H164.485C160.218 74.6022 153.618 79.0189 144.685 82.9522C140.618 84.7522 137.252 85.8022 134.585 86.1022C131.585 86.4022 129.852 85.7022 129.385 84.0022C128.818 82.0022 129.685 79.9689 131.985 77.9022C134.085 76.0022 137.135 74.2856 141.135 72.7522C148.235 70.0189 155.418 68.6522 162.685 68.6522C164.785 66.5522 165.668 64.9022 165.335 63.7022C164.702 61.4689 160.935 60.4689 154.035 60.7022C147.935 60.9022 143.418 61.6356 140.485 62.9022C138.652 65.7689 137.618 67.6189 137.385 68.4522C136.985 68.9856 136.568 69.1189 136.135 68.8522C135.702 68.6189 135.568 68.3189 135.735 67.9522C136.102 66.3856 137.802 63.4522 140.835 59.1522C143.868 54.8189 146.118 52.2022 147.585 51.3022C148.185 51.1689 148.535 51.4689 148.635 52.2022C147.402 53.0356 145.085 55.9856 141.685 61.0522C145.318 60.1856 149.068 59.0522 152.935 57.6522C157.468 56.0189 161.368 54.3189 164.635 52.5522C173.035 47.9189 175.718 43.6356 172.685 39.7022C170.018 36.2689 165.402 35.2022 158.835 36.5022C153.068 37.6356 146.885 40.2689 140.285 44.4022C133.385 48.6689 128.485 53.0856 125.585 57.6522C122.452 62.5856 122.985 65.8189 127.185 67.3522C127.385 67.4856 127.352 67.6522 127.085 67.8522C126.818 68.0522 126.602 68.1189 126.435 68.0522C121.702 66.1856 120.585 62.7522 123.085 57.7522C125.385 53.1856 129.868 48.5856 136.535 43.9522C143.368 39.2189 150.068 36.2022 156.635 34.9022C164.135 33.4022 169.685 34.6522 173.285 38.6522ZM130.135 83.7022C131.102 85.7022 135.502 84.8856 143.335 81.2522C150.835 77.7856 156.902 73.9689 161.535 69.8022C155.102 70.2356 148.318 71.9022 141.185 74.8022C137.418 76.3022 134.502 77.8856 132.435 79.5522C130.368 81.2189 129.602 82.6022 130.135 83.7022ZM190.838 39.4022C190.704 40.5022 188.021 45.1022 182.788 53.2022C180.254 57.1022 178.271 60.3522 176.838 62.9522C174.838 66.6189 173.488 69.7189 172.788 72.2522C172.421 73.7189 172.471 74.6189 172.938 74.9522C173.571 75.3856 175.221 74.7856 177.888 73.1522C180.554 71.5522 182.921 69.7189 184.988 67.6522C185.121 67.5189 185.271 67.5356 185.438 67.7022C185.604 67.8356 185.654 67.9689 185.588 68.1022C184.288 70.2356 182.054 72.3856 178.888 74.5522C175.388 76.9522 172.904 77.5856 171.437 76.4522C170.571 75.8189 170.271 74.5856 170.537 72.7522C170.637 72.0856 170.804 71.3856 171.037 70.6522C171.237 70.0856 171.437 69.5522 171.637 69.0522C172.804 66.3522 174.504 63.1356 176.738 59.4022C177.571 57.9689 178.554 56.3522 179.688 54.5522L181.188 52.1522L182.638 49.9022C187.204 42.7022 189.388 38.4689 189.188 37.2022C189.688 36.9689 190.121 37.1189 190.488 37.6522C190.821 38.1856 190.938 38.7689 190.838 39.4022ZM205.607 67.5522C205.974 67.5189 206.207 67.6689 206.307 68.0022C202.474 73.0022 199.107 75.5022 196.207 75.5022C195.507 75.5022 194.891 75.3522 194.357 75.0522C193.724 74.7189 193.341 74.2522 193.207 73.6522C192.541 71.1856 193.307 67.5356 195.507 62.7022L194.857 63.6522L194.157 64.6522L192.757 66.7022C191.657 68.2356 190.691 69.5022 189.857 70.5022C187.691 73.1689 186.091 74.4356 185.057 74.3022C184.191 74.1689 183.507 73.8522 183.007 73.3522C182.441 72.8189 182.257 72.1689 182.457 71.4022C183.057 69.1689 184.524 66.6856 186.857 63.9522C189.391 60.9522 191.507 59.6022 193.207 59.9022C194.174 60.0356 194.841 60.3689 195.207 60.9022C196.541 59.1356 197.607 57.8856 198.407 57.1522C198.741 57.0189 199.107 57.0189 199.507 57.1522C199.941 57.2856 200.257 57.5356 200.457 57.9022C199.991 58.6022 199.407 59.6689 198.707 61.1022C197.841 62.8689 197.107 64.5356 196.507 66.1022C194.807 70.6356 194.674 73.2856 196.107 74.0522C196.774 74.3856 198.324 73.6689 200.757 71.9022C203.024 70.2689 204.641 68.8189 205.607 67.5522ZM184.807 72.8522C185.574 72.9189 186.957 71.7189 188.957 69.2522C189.624 68.4189 190.541 67.2022 191.707 65.6022L193.107 63.6522L194.557 61.7522C194.357 61.1189 193.891 60.8856 193.157 61.0522C192.324 61.1856 191.207 62.0522 189.807 63.6522C188.574 65.0189 187.391 66.6022 186.257 68.4022C184.524 71.2689 184.041 72.7522 184.807 72.8522ZM216.751 64.6022C217.085 63.2356 216.818 62.1356 215.951 61.3022C215.251 60.6022 213.968 60.9689 212.101 62.4022C211.401 62.9022 210.701 63.5022 210.001 64.2022C209.401 64.8356 208.951 65.3522 208.651 65.7522C206.351 68.9522 205.818 71.2356 207.051 72.6022C208.051 73.6356 209.585 74.0356 211.651 73.8022C213.918 73.5689 216.018 72.8522 217.951 71.6522C219.085 70.9522 220.768 69.6189 223.001 67.6522C223.201 67.5189 223.385 67.5189 223.551 67.6522C223.685 67.7856 223.701 67.9356 223.601 68.1022C222.368 70.3022 220.418 72.0522 217.751 73.3522C215.118 74.6856 212.468 75.2189 209.801 74.9522C207.268 74.7189 205.568 73.4022 204.701 71.0022C203.935 68.9356 205.001 66.4022 207.901 63.4022C209.135 62.1689 210.418 61.2022 211.751 60.5022C213.151 59.7689 214.335 59.5189 215.301 59.7522C216.668 60.0856 217.551 60.8022 217.951 61.9022C218.318 62.8356 218.235 63.7522 217.701 64.6522C217.568 64.8522 217.368 64.9689 217.101 65.0022C216.835 65.0022 216.718 64.8689 216.751 64.6022ZM242.738 37.2022C242.604 38.4022 240.454 42.2022 236.288 48.6022L234.988 50.6522L233.588 52.8022C232.521 54.4356 231.588 55.8856 230.788 57.1522C228.688 60.5522 226.988 63.4689 225.688 65.9022C223.588 69.8022 222.271 72.8356 221.738 75.0022C223.471 72.0022 226.288 68.6856 230.188 65.0522C234.321 61.2189 237.088 59.5689 238.488 60.1022C238.854 60.2356 239.171 60.4356 239.438 60.7022C239.738 60.9689 239.871 61.2522 239.838 61.5522C239.804 61.6856 239.738 61.7522 239.638 61.7522C239.504 61.7856 239.421 61.7689 239.388 61.7022C239.354 61.4022 239.238 61.2689 239.038 61.3022C237.471 61.4356 234.438 63.6356 229.938 67.9022H229.988C229.654 68.7022 229.404 69.9689 229.238 71.7022C229.071 73.6356 229.221 74.7189 229.688 74.9522C230.421 75.3522 232.238 74.4522 235.138 72.2522C236.204 71.4189 237.271 70.5356 238.338 69.6022C239.304 68.7356 239.971 68.0689 240.338 67.6022C240.504 67.4689 240.671 67.4689 240.838 67.6022C240.971 67.7356 241.004 67.8856 240.938 68.0522L240.738 68.3022L240.488 68.6022L239.988 69.2022C239.554 69.7356 239.154 70.2189 238.788 70.6522C237.721 71.8856 236.721 72.9022 235.788 73.7022C233.121 76.0022 230.904 76.6856 229.138 75.7522C227.471 74.8522 226.854 73.0856 227.288 70.4522C223.688 74.1856 221.788 76.7022 221.587 78.0022C221.387 78.2022 221.087 78.2356 220.687 78.1022C220.321 77.9689 220.087 77.7689 219.987 77.5022C219.054 75.4689 220.421 71.1356 224.088 64.5022C225.454 62.0689 227.271 59.0522 229.538 55.4522C230.238 54.3522 231.204 52.8356 232.438 50.9022L233.838 48.7022C234.371 47.8689 234.821 47.1522 235.188 46.5522C239.321 40.0189 241.304 36.1689 241.138 35.0022C241.638 34.7689 242.071 34.9189 242.438 35.4522C242.771 35.9856 242.871 36.5689 242.738 37.2022ZM319.776 37.9522C319.909 38.0856 319.959 38.2356 319.926 38.4022C319.926 38.5689 319.876 38.7022 319.776 38.8022C319.676 38.9022 319.559 38.9522 319.426 38.9522C319.259 38.9522 319.109 38.8689 318.976 38.7022C318.276 36.2356 316.459 34.7856 313.526 34.3522C311.026 34.0189 307.509 34.4189 302.976 35.5522C302.376 35.6856 301.559 35.9022 300.526 36.2022C300.159 36.3022 299.659 36.4356 299.026 36.6022L298.226 36.8522L297.376 37.0522C294.342 37.8856 291.726 38.5856 289.526 39.1522C286.492 42.4189 282.026 49.1022 276.126 59.2022C276.759 58.6022 277.359 58.0356 277.926 57.5022C278.159 57.3022 278.359 57.1356 278.526 57.0022C278.659 56.8689 278.759 56.7856 278.826 56.7522C279.426 56.3856 279.892 56.3356 280.226 56.6022C280.559 56.8689 280.576 57.1856 280.276 57.5522C279.376 57.7189 277.326 59.3856 274.126 62.5522C269.026 71.3522 265.376 77.2689 263.176 80.3022C259.542 85.3356 256.926 87.2856 255.326 86.1522C253.992 85.2189 255.042 82.4856 258.476 77.9522C261.042 74.5856 264.792 70.4189 269.726 65.4522C271.459 62.4856 272.809 60.1856 273.776 58.5522C275.276 55.9856 276.642 53.7022 277.876 51.7022C280.942 46.7356 283.559 42.8689 285.726 40.1022C275.059 42.7022 266.909 43.8356 261.276 43.5022C253.476 43.0356 250.342 39.8356 251.876 33.9022C252.042 33.4689 252.359 33.3022 252.826 33.4022C253.326 33.5022 253.526 33.8189 253.426 34.3522C251.759 40.9189 258.276 42.9522 272.976 40.4522C277.609 39.6522 283.426 38.3189 290.426 36.4522C291.526 36.1856 292.826 35.8522 294.326 35.4522L296.076 34.9522C296.776 34.7522 297.326 34.6022 297.726 34.5022C300.159 33.8356 301.859 33.4022 302.826 33.2022C307.459 32.2022 311.092 32.0022 313.726 32.6022C316.859 33.2689 318.876 35.0522 319.776 37.9522ZM255.826 85.1022C256.492 85.6022 257.859 84.4022 259.926 81.5022C261.459 79.3356 263.776 75.6189 266.876 70.3522C263.609 74.0189 260.892 77.2689 258.726 80.1022C256.426 83.1356 255.459 84.8022 255.826 85.1022ZM293.408 67.5022C293.808 67.5022 294.041 67.6689 294.108 68.0022C290.641 72.6022 287.458 74.9189 284.558 74.9522C283.091 74.9522 282.091 74.3356 281.558 73.1022C280.858 71.5689 281.408 69.1522 283.208 65.8522C283.508 65.3189 283.874 64.7022 284.308 64.0022L284.808 63.1522L285.308 62.3022C286.074 61.0689 286.508 60.2356 286.608 59.8022C287.008 59.6689 287.408 59.6522 287.808 59.7522C288.308 59.8522 288.658 60.0856 288.858 60.4522C288.691 60.9522 288.141 61.9522 287.208 63.4522L286.608 64.4022L286.008 65.4022C285.508 66.2022 285.091 66.9022 284.758 67.5022C282.824 70.9689 282.624 73.0022 284.158 73.6022C284.824 73.9689 286.341 73.3189 288.708 71.6522C290.908 70.1189 292.474 68.7356 293.408 67.5022ZM288.908 57.8522C288.508 57.7856 288.274 57.5189 288.208 57.0522C288.174 56.6522 288.291 56.2022 288.558 55.7022C288.824 55.2022 289.174 54.8022 289.608 54.5022C290.041 54.1689 290.474 54.0522 290.908 54.1522C291.341 54.2189 291.574 54.4856 291.608 54.9522C291.641 55.3189 291.524 55.7689 291.258 56.3022C290.991 56.8022 290.658 57.2022 290.258 57.5022C289.791 57.8356 289.341 57.9522 288.908 57.8522ZM309.448 67.5022C309.648 67.3689 309.831 67.3689 309.998 67.5022C310.131 67.6356 310.148 67.7856 310.048 67.9522C309.314 69.2522 308.248 70.5022 306.848 71.7022C305.648 72.7022 304.198 73.5022 302.498 74.1022C300.664 74.7356 298.981 74.9689 297.448 74.8022C294.914 74.5689 293.198 73.2689 292.298 70.9022C291.531 68.8022 292.598 66.2689 295.498 63.3022C296.731 62.0356 298.014 61.0689 299.348 60.4022C300.781 59.6689 301.981 59.4189 302.948 59.6522C304.381 60.0189 305.198 60.6856 305.398 61.6522C305.564 62.5522 305.181 63.5522 304.248 64.6522C302.081 67.2522 298.814 68.8689 294.448 69.5022C294.181 70.7689 294.364 71.7689 294.998 72.5022C296.231 73.8356 298.098 74.1356 300.598 73.4022C301.531 73.1022 302.514 72.6856 303.548 72.1522C304.414 71.6856 305.181 71.1856 305.848 70.6522C306.648 70.0522 307.848 69.0022 309.448 67.5022ZM296.298 65.6022C295.631 66.5022 295.098 67.4856 294.698 68.5522C296.831 67.9522 298.998 66.6189 301.198 64.5522C303.364 62.4856 303.914 61.1856 302.848 60.6522C302.181 60.3522 301.014 60.9189 299.348 62.3522C298.714 62.9189 298.098 63.5356 297.498 64.2022C296.964 64.7689 296.564 65.2356 296.298 65.6022Z" fill="#402A0C"></path></svg> 