<?xml version="1.0" encoding="UTF-8"?> <svg xmlns="http://www.w3.org/2000/svg" width="86" height="20" viewBox="0 0 86 20" fill="none"><path d="M0.385125 18.8398V18.6238H1.22513C1.80113 18.6238 2.15313 18.5598 2.28113 18.4318C2.42513 18.2878 2.49713 17.9278 2.49713 17.3518V3.07184C2.49713 2.49584 2.42513 2.14384 2.28113 2.01584C2.15313 1.87184 1.80113 1.79984 1.22513 1.79984H0.385125V1.58384H9.40913C9.69713 1.58384 9.91313 1.65584 10.0571 1.79984H10.0811L9.98513 0.167842L10.2011 0.143843L10.6571 7.17584H10.2251L10.1291 5.49584C10.0651 4.27984 9.64113 3.39984 8.85713 2.85584C8.07313 2.29584 7.04913 2.01584 5.78513 2.01584H3.84113V2.03984C4.19313 2.39184 4.36913 2.80784 4.36913 3.28784V17.3518C4.36913 17.9278 4.44113 18.2878 4.58513 18.4318C4.72913 18.5598 5.08913 18.6238 5.66513 18.6238H7.22513V18.8398H0.385125ZM20.5933 19.0318C17.9213 19.0318 15.7693 18.2238 14.1373 16.6078C12.5053 14.9918 11.6893 12.8558 11.6893 10.1998C11.6893 7.55984 12.5053 5.43184 14.1373 3.81584C15.7693 2.19984 17.9213 1.39184 20.5933 1.39184C23.2493 1.39184 25.3853 2.19984 27.0013 3.81584C28.6333 5.43184 29.4493 7.55984 29.4493 10.1998C29.4493 12.8558 28.6333 14.9918 27.0013 16.6078C25.3853 18.2238 23.2493 19.0318 20.5933 19.0318ZM20.6653 18.5998C22.8413 18.5998 24.4973 17.9198 25.6333 16.5598C26.7853 15.1998 27.3613 13.2318 27.3613 10.6558C27.3613 7.79184 26.7693 5.60784 25.5853 4.10384C24.4173 2.58384 22.7213 1.82384 20.4973 1.82384C18.3053 1.82384 16.6333 2.50384 15.4813 3.86384C14.3453 5.22384 13.7773 7.19184 13.7773 9.76784C13.7773 12.6318 14.3613 14.8238 15.5293 16.3438C16.7133 17.8478 18.4253 18.5998 20.6653 18.5998ZM34.1955 2.03984V2.15984C34.4675 2.52784 34.6035 3.02384 34.6035 3.64784V11.6878H35.9475C37.4675 11.6878 38.6195 11.2798 39.4035 10.4638C40.2035 9.63184 40.6035 8.43184 40.6035 6.86384C40.6035 5.29584 40.2035 4.10384 39.4035 3.28784C38.6195 2.45584 37.4675 2.03984 35.9475 2.03984H34.1955ZM30.6195 18.8398V18.6238H31.4595C32.0355 18.6238 32.3875 18.5598 32.5155 18.4318C32.6595 18.2878 32.7315 17.9278 32.7315 17.3518V3.07184C32.7315 2.49584 32.6595 2.14384 32.5155 2.01584C32.3875 1.87184 32.0355 1.79984 31.4595 1.79984H30.6195V1.58384H36.6675C38.4755 1.58384 39.9315 2.07184 41.0355 3.04784C42.1395 4.00784 42.6915 5.27984 42.6915 6.86384C42.6915 8.44784 42.1395 9.71984 41.0355 10.6798C39.9315 11.6398 38.4755 12.1198 36.6675 12.1198H34.6035V17.3518C34.6035 17.9278 34.6755 18.2878 34.8195 18.4318C34.9635 18.5598 35.3235 18.6238 35.8995 18.6238H36.4995V18.8398H30.6195ZM43.7445 18.8398V18.5998H44.5845C45.1605 18.5998 45.5125 18.5358 45.6405 18.4078C45.7845 18.2638 45.8565 17.9038 45.8565 17.3278V3.04784C45.8565 2.47184 45.7845 2.11984 45.6405 1.99184C45.5125 1.86384 45.1605 1.79984 44.5845 1.79984H43.7445V1.58384H49.8645V1.79984H49.0245C48.4485 1.79984 48.0885 1.87184 47.9445 2.01584C47.8005 2.15984 47.7285 2.51984 47.7285 3.09584V9.95984H49.5525C51.3925 9.95984 52.8725 10.3678 53.9925 11.1838C55.1125 11.9998 55.6725 13.0718 55.6725 14.3998C55.6725 15.7278 55.1125 16.7998 53.9925 17.6158C52.8725 18.4318 51.3925 18.8398 49.5525 18.8398H43.7445ZM47.7285 10.3678V17.1358C47.7285 17.6798 47.5925 18.0878 47.3205 18.3598V18.4078H49.0965C50.5525 18.4078 51.6645 18.0638 52.4325 17.3758C53.2005 16.6878 53.5845 15.6958 53.5845 14.3998C53.5845 13.0878 53.2005 12.0878 52.4325 11.3998C51.6645 10.7118 50.5525 10.3678 49.0965 10.3678H47.7285ZM83.3739 13.9198C82.0619 15.2478 80.3259 15.9118 78.1659 15.9118C76.0059 15.9118 74.2619 15.2478 72.9339 13.9198C71.6059 12.5758 70.9419 10.8158 70.9419 8.63984C70.9419 6.46384 71.6059 4.71184 72.9339 3.38384C74.2619 2.05584 76.0059 1.39184 78.1659 1.39184C80.3259 1.39184 82.0619 2.05584 83.3739 3.38384C84.6859 4.71184 85.3419 6.46384 85.3419 8.63984C85.3419 10.8158 84.6859 12.5758 83.3739 13.9198ZM78.2379 15.4798C79.8699 15.4798 81.1099 14.9358 81.9579 13.8478C82.8219 12.7598 83.2539 11.1758 83.2539 9.09584C83.2539 6.72784 82.8059 4.92784 81.9099 3.69584C81.0299 2.44784 79.7499 1.82384 78.0699 1.82384C76.4379 1.82384 75.1899 2.36784 74.3259 3.45584C73.4619 4.54384 73.0299 6.12784 73.0299 8.20784C73.0299 10.5758 73.4699 12.3838 74.3499 13.6318C75.2459 14.8638 76.5419 15.4798 78.2379 15.4798ZM56.5179 18.8398V18.6238H57.3579C57.9339 18.6238 58.2859 18.5438 58.4139 18.3838C58.5579 18.2238 58.6299 17.8078 58.6299 17.1358V3.07184C58.6299 2.49584 58.5579 2.14384 58.4139 2.01584C58.2859 1.87184 57.9339 1.79984 57.3579 1.79984H56.5179V1.58384H62.0139V1.79984H61.7979C61.2219 1.79984 60.8619 1.86384 60.7179 1.99184C60.5739 2.11984 60.5019 2.46384 60.5019 3.02384V8.47184C61.3659 8.47184 61.8859 8.35984 62.0619 8.13584L65.8539 3.35984C66.1419 3.00784 66.2859 2.70384 66.2859 2.44784C66.2859 2.01584 65.8699 1.79984 65.0379 1.79984H64.8219V1.58384H70.2459V1.79984H69.8379C69.2299 1.79984 68.6059 1.93584 67.9659 2.20784C67.3259 2.46384 66.7739 2.87984 66.3099 3.45584L62.4939 8.27984L62.5179 8.37584C63.0619 8.50384 63.5739 8.71184 64.0539 8.99984C64.5339 9.27184 64.9979 9.65584 65.4459 10.1518C65.9099 10.6318 66.2859 11.0638 66.5739 11.4478C66.8779 11.8318 67.2699 12.3678 67.7499 13.0558C68.1339 13.5998 68.4379 14.0318 68.6619 14.3518C68.9019 14.6558 69.2299 15.0558 69.6459 15.5518C70.0619 16.0478 70.4299 16.4478 70.7499 16.7518C71.0859 17.0398 71.5019 17.3678 71.9979 17.7358C72.4939 18.0878 72.9819 18.3598 73.4619 18.5518C73.9579 18.7438 74.5259 18.9038 75.1659 19.0318C75.8059 19.1758 76.4699 19.2478 77.1579 19.2478C78.0219 19.2478 78.8859 19.1438 79.7499 18.9358C80.6139 18.7278 81.3739 18.4638 82.0299 18.1438C82.6859 17.8238 83.2219 17.5358 83.6379 17.2798C84.0699 17.0078 84.4139 16.7678 84.6699 16.5598L85.1979 16.1038L85.3179 16.2718L84.7899 16.7278C83.8139 17.5758 82.5579 18.3278 81.0219 18.9838C79.4859 19.6558 77.9099 19.9918 76.2939 19.9918C75.4779 19.9918 74.6939 19.9038 73.9419 19.7278C73.2059 19.5518 72.5499 19.3438 71.9739 19.1038C71.3979 18.8798 70.8139 18.5518 70.2219 18.1198C69.6299 17.6718 69.1419 17.2718 68.7579 16.9198C68.3739 16.5678 67.9339 16.0958 67.4379 15.5038C66.9579 14.9118 66.5899 14.4478 66.3339 14.1118C66.0779 13.7598 65.7339 13.2718 65.3019 12.6478C64.9179 12.0878 64.6139 11.6638 64.3899 11.3758C64.1819 11.0878 63.9019 10.7438 63.5499 10.3438C63.2139 9.94384 62.9179 9.64784 62.6619 9.45584C62.4219 9.24784 62.1339 9.07184 61.7979 8.92784C61.4619 8.76784 61.1259 8.68784 60.7899 8.68784H60.5019V17.1358C60.5019 17.1518 60.5019 17.1758 60.5019 17.2078C60.5019 17.2238 60.5019 17.2398 60.5019 17.2558C60.5019 17.8638 60.5739 18.2478 60.7179 18.4078C60.8779 18.5518 61.2379 18.6238 61.7979 18.6238H62.6379V18.8398H56.5179Z" fill="black"></path></svg> 