<?xml version="1.0" encoding="UTF-8"?> <svg xmlns="http://www.w3.org/2000/svg" width="145" height="81" viewBox="0 0 145 81" fill="none"><path d="M33.3658 17.841C33.3658 17.521 33.5578 17.009 34.0698 16.561C33.4298 16.561 32.9818 17.329 32.7898 18.161C32.6618 18.161 32.5978 18.225 32.5978 18.289C32.4698 19.249 31.6378 19.697 31.1258 20.401C30.7418 20.721 30.2298 21.041 29.7178 21.425C29.5898 21.489 29.3978 21.489 29.2058 21.489C29.0778 22.129 28.5018 22.513 27.9898 22.961C27.6058 23.345 27.0938 23.601 26.5818 23.921C24.6618 25.009 22.9338 26.097 20.5658 27.505V27.633C24.0218 27.249 27.2858 28.145 29.7178 30.577C32.1498 33.009 32.4058 36.849 29.7818 40.049C29.5258 40.305 29.2698 40.561 29.0138 40.689C28.9498 40.881 29.0138 41.009 28.9498 41.009C27.8618 41.969 26.8378 42.673 25.5578 43.377C23.2538 44.657 21.9098 44.977 19.5418 45.361C18.5178 45.553 16.9818 45.489 15.9578 45.617C15.8298 45.681 15.6378 45.553 15.4458 45.553C15.7018 45.105 16.0218 45.233 16.4058 45.169C16.7258 45.105 17.1738 45.105 17.5578 45.041C17.8778 44.977 18.1338 44.849 18.5178 44.785C18.9018 44.721 19.2218 44.657 19.5418 44.529C19.9258 44.401 20.3098 44.465 20.6298 44.401C20.9498 44.273 21.2058 44.081 21.5898 43.889C21.9098 43.825 22.2298 43.825 22.5498 43.633C22.9338 43.505 23.1898 43.441 23.5738 43.185C23.8298 43.057 24.0858 42.865 24.3418 42.545C23.5098 42.865 22.6778 43.057 21.9098 43.185C21.0138 43.505 20.2458 43.697 19.1578 44.081C18.3898 44.337 17.5578 44.785 16.5978 44.657C16.5978 44.529 16.5978 44.465 16.6618 44.401C15.5098 44.593 11.9258 44.593 11.9258 44.785C11.9898 45.105 12.2458 45.041 12.5018 45.105C13.2058 45.169 13.9098 45.233 14.4858 45.617C13.9098 45.553 13.3338 45.553 12.7578 45.425C12.1818 45.361 11.6058 45.233 11.1578 45.105C10.4538 44.913 9.94177 44.785 9.30177 44.529C8.85377 44.401 8.27777 44.273 7.50977 44.209C7.25377 45.041 7.70177 45.809 6.54977 46.449C6.16577 46.449 6.29377 46.193 6.16577 46.001C5.39777 44.913 5.26977 43.377 5.33377 42.033C5.33377 39.793 5.71777 37.489 6.03777 35.313C6.29377 34.225 6.42177 33.137 6.80577 32.049C7.12577 31.345 6.80577 30.641 7.31777 29.937C7.76577 29.361 7.82977 28.465 8.14977 27.761C9.04577 25.393 9.74977 23.025 10.8378 20.785C11.4778 19.569 11.9258 18.289 12.8858 17.265C13.8458 17.201 14.3578 17.457 14.8698 18.289C15.1258 19.057 13.3338 22.641 10.5818 28.849C12.2458 28.465 17.5578 26.609 19.6698 25.457C23.3818 23.473 26.7098 21.041 29.9098 18.161C31.2538 16.945 32.4698 15.537 33.3658 14.001C36.9498 8.11295 30.7418 5.29695 22.7418 7.92095C18.3258 9.32895 12.4378 12.657 9.04577 16.049C7.57377 17.457 6.35777 18.929 5.07777 20.529C4.69377 20.977 4.50177 21.489 4.43777 22.065C4.37377 22.449 4.62977 22.641 5.01377 22.705C5.33377 22.833 5.71777 22.833 6.35777 22.961C5.65377 23.409 5.14177 23.665 4.62977 23.729C1.42977 23.665 1.04577 20.337 2.13377 18.673C5.46177 13.425 13.8458 7.72895 21.0778 5.16895C33.0458 0.94495 41.6858 9.26495 33.3658 17.841ZM15.8298 9.52095C16.0218 10.033 18.7098 7.72895 19.5418 7.47295L19.4778 7.21695C16.0858 8.88095 12.6298 10.929 11.5418 11.825H12.3098C12.8858 11.249 14.9338 9.84095 15.8298 9.52095ZM31.0618 19.825C31.3818 19.505 31.6378 19.121 31.6378 18.609C31.1898 19.057 30.6778 19.505 30.2298 20.017C29.9098 20.337 29.5898 20.657 29.5898 21.041L31.0618 19.825ZM12.6298 19.057C12.6938 19.121 12.6938 19.185 12.6938 19.249C12.6938 19.377 12.6298 19.313 12.4378 19.377C12.5658 19.505 12.5658 19.633 12.6298 19.697C12.6938 19.633 12.6938 19.569 12.6938 19.505C12.9498 19.057 12.9498 19.057 12.7578 18.737C12.6938 18.993 12.6298 18.929 12.6298 19.057ZM9.49377 26.865C9.42977 27.377 9.10977 27.825 8.98177 28.401L9.10977 28.657L9.17377 28.401C9.42977 28.081 9.42977 27.825 9.62177 27.569C9.81377 27.057 9.87777 26.609 10.0698 26.161C10.1978 25.841 10.2618 25.457 10.3258 25.137C10.5178 24.945 10.7098 24.625 10.7738 24.241C10.7098 24.241 10.7098 24.241 10.6458 24.177L11.0298 23.793C11.0938 23.793 11.0938 23.537 11.1578 23.473C11.0938 23.409 11.2218 23.281 11.1578 23.281H11.6058V23.089C11.4138 23.089 11.2858 22.961 11.2858 22.961L11.7338 22.577C11.6698 22.257 11.6698 21.937 11.7338 21.489C11.7978 21.553 11.8618 21.553 12.0538 21.553C11.9258 21.297 11.9258 21.297 11.7978 21.169C11.9258 21.169 12.0538 21.169 12.1178 21.105C12.3738 20.593 12.5658 20.209 12.6298 19.761C12.5018 19.697 12.3738 19.761 12.3098 19.761L11.7338 20.913C11.6058 21.361 11.2858 22.065 11.0298 22.641C10.7098 23.409 10.3258 24.177 10.1338 25.009C9.94177 25.457 9.62177 26.161 9.55777 26.865H9.49377ZM28.0538 21.809C28.1818 21.681 28.3738 21.617 28.2458 21.297C26.5818 22.385 25.0458 23.409 23.3178 24.433L18.4538 27.377C19.2218 27.569 19.9898 27.249 20.5658 26.865C25.1098 23.857 25.8138 23.665 28.0538 21.809ZM23.5098 29.873C18.5178 29.169 15.0618 30.449 11.8618 31.217C11.0938 31.409 10.0698 31.729 9.74977 31.793C9.49377 32.369 9.36577 32.881 9.17377 33.649C8.91777 34.609 7.70177 39.281 7.70177 40.753C7.70177 42.033 9.42977 42.545 9.87777 42.673C11.0938 42.993 13.9098 43.761 16.6618 43.569C20.5658 43.313 23.6378 42.417 26.5178 39.473C28.2458 37.681 29.2058 34.801 27.9898 32.561C27.0938 30.961 25.8138 30.193 23.5098 29.873ZM28.6298 40.305C28.5018 40.305 28.5018 40.497 28.4378 40.689C28.5658 40.689 28.7578 40.689 28.8858 40.753H28.9498L29.0138 40.113V40.049C29.3338 39.857 29.5898 39.473 29.9738 39.089C30.0378 38.897 29.9738 38.577 29.9738 38.065C29.4618 38.961 28.9498 39.473 29.0138 40.113C28.9498 40.241 28.7578 40.241 28.6298 40.305ZM36.6363 35.121C36.5083 35.121 36.3163 35.121 36.1243 35.057C35.9963 34.929 35.4843 34.609 35.1003 34.417C34.5243 33.649 34.3323 32.817 34.5883 31.857C34.7803 31.409 34.9083 31.089 35.0363 30.705C35.1003 30.641 35.1003 30.641 35.1003 30.577C35.1643 30.193 35.3563 29.873 35.4843 29.425L35.9323 28.657C36.1883 28.337 36.3163 28.017 36.4443 27.889C37.1483 26.801 37.9803 26.033 38.7483 25.073C39.5163 24.241 40.6043 23.473 41.8203 23.345C43.1643 23.601 44.7003 23.857 44.9563 25.329C45.1483 26.225 44.6363 26.801 44.3163 27.441C44.8283 27.377 45.2763 26.865 46.0443 26.929C46.4283 27.057 46.6843 27.377 46.8123 27.825C46.8123 27.825 46.8763 28.529 46.6843 29.041C46.6203 29.105 46.6203 29.233 46.5563 29.361C46.3643 30.257 46.3643 31.217 46.7483 32.113C46.8123 32.369 47.0043 32.625 47.3243 32.817C47.4523 32.881 47.5803 32.881 47.7723 32.817C47.9643 32.753 48.2203 32.753 48.4763 32.625C49.5003 32.177 50.5243 31.409 51.4203 30.769C52.2523 30.257 53.2123 29.681 54.1083 29.041C55.6443 28.081 55.5163 28.209 56.9883 27.249C57.4363 26.865 57.9483 26.545 58.5883 26.161L58.7803 26.289L58.2043 27.057C58.3323 27.377 58.3323 27.377 58.7163 27.121C58.7163 26.993 58.7163 26.737 59.0363 26.865C58.3963 27.825 57.3723 28.337 56.5403 28.913C56.2203 29.169 55.7723 29.361 55.5803 29.489C55.3883 29.681 55.1323 30.001 54.8123 30.129C54.7483 30.193 54.5563 30.193 54.3643 30.257C54.3643 30.257 54.3643 30.193 54.3003 30.129C54.3643 30.129 54.5563 30.001 54.6843 29.873C54.9403 29.745 55.0683 29.553 55.0043 29.297C55.0043 29.233 54.8763 29.169 54.8123 29.169C54.3003 29.425 53.9803 29.745 53.5323 30.065C52.7643 30.385 52.1883 30.769 51.5483 31.281C51.3563 31.345 51.1643 31.537 50.9083 31.601V31.729C51.1003 31.665 51.2923 31.665 51.4203 31.537C51.6763 31.345 51.8683 31.345 52.0603 31.473C52.0603 31.409 51.9963 31.345 51.9963 31.281C52.4443 31.089 52.7643 31.153 53.1483 30.833C53.5323 30.577 53.9803 30.449 54.2363 30.193C54.2363 30.321 54.1723 30.513 53.9803 30.641C53.4683 30.897 52.9563 31.281 52.4443 31.537C52.3163 31.601 52.1883 31.729 52.0603 31.921C51.9323 32.049 51.8043 32.113 51.6123 32.177C51.8043 32.241 51.9323 32.241 52.0603 32.241L51.9963 32.305C51.8683 32.369 51.7403 32.433 51.5483 32.433V32.689C51.8683 32.497 52.3163 32.305 52.6363 32.113V32.241C52.3163 32.497 51.8683 32.753 51.6123 33.073C51.1003 33.649 50.5243 33.777 49.8843 34.225C49.5003 34.417 49.3083 34.353 48.9883 34.545C48.8603 34.609 48.5403 34.737 48.3483 34.737C48.2843 34.737 47.9643 34.865 47.7723 34.865C47.5163 34.865 46.9403 34.993 46.6843 34.929C46.5563 34.865 46.1723 34.865 46.0443 34.737C45.8523 34.673 45.7243 34.417 45.5323 34.353C45.1483 33.841 44.7003 33.585 44.4443 33.009C44.0603 32.625 44.1243 32.497 43.9323 32.177C43.8043 32.113 43.8043 31.985 43.7403 31.857C43.2923 32.113 43.2923 32.753 42.8443 32.753C42.7163 32.881 42.6523 33.073 42.5243 33.137C41.7563 33.713 40.7323 34.545 39.7083 34.993C38.6843 35.505 37.5963 35.505 36.6363 35.121ZM36.5083 33.265C37.2123 33.265 38.3643 33.201 39.0043 32.945C39.8363 32.625 40.4123 32.177 41.0523 31.473C42.0123 30.449 42.4603 29.681 43.4203 28.657C43.4843 28.657 43.7403 28.337 43.7403 28.337H43.6763C42.2683 28.209 42.7803 25.393 42.8443 25.329C40.9243 25.649 38.6843 28.657 37.9803 29.873C37.4043 30.897 36.8283 31.985 36.5083 33.265ZM55.5163 29.361C55.5803 29.361 55.6443 29.169 55.6443 29.105C55.6443 28.849 55.7723 28.785 55.9003 28.721C55.9643 28.593 56.2203 28.529 56.4123 28.465C56.5403 28.401 56.7963 28.401 56.9243 28.337V27.953C57.0523 27.889 57.1163 27.761 57.1803 27.697C57.1803 27.633 57.1803 27.569 57.1163 27.569C56.9883 27.697 56.6683 27.889 56.3483 28.081C55.9003 28.337 55.0683 28.913 55.0043 29.041C55.1323 29.105 55.3883 29.233 55.5163 29.361ZM88.1718 32.241L86.6358 33.009L86.7638 33.073C86.6358 33.073 86.4438 33.329 86.1238 33.457V33.585C85.9318 33.649 85.8038 33.649 85.9958 33.713C85.9318 33.777 85.6118 33.777 85.5478 33.777C85.0358 33.713 84.7798 34.033 83.4358 34.545V34.673L85.1638 33.969C85.2278 34.161 85.1638 34.161 84.9718 34.161C84.3958 34.417 82.8598 35.569 82.2198 35.569C82.2198 35.569 82.1558 35.569 82.1558 35.633V35.825L83.5638 35.249C83.8838 35.249 84.0758 34.801 84.2678 34.673C84.5238 34.481 84.7798 34.481 85.2278 34.225C85.4838 34.161 85.2278 34.033 85.4198 33.905H85.7398L85.0358 34.417L85.0998 34.545C84.7158 34.737 84.5238 34.865 84.2678 35.121L84.0758 35.249L83.4998 35.313C83.0518 35.889 82.4758 36.401 81.7078 36.849C80.4918 37.489 79.1478 38.001 77.8678 37.937C74.4758 37.873 73.3878 34.993 74.5398 30.769C73.9638 31.153 73.2598 31.793 71.4038 33.905C70.9558 35.185 70.7638 36.849 70.5078 38.193C70.4438 38.513 69.4198 38.769 68.9078 38.641C68.4598 38.577 68.0118 38.385 67.8198 38.193C67.5638 37.809 67.5638 37.553 67.6918 37.105C67.6918 36.401 67.9478 35.441 68.0758 34.673L69.3558 27.633C68.6518 28.017 66.7958 29.681 66.6678 30.321C66.3478 31.281 66.2198 32.177 65.8358 33.137C64.3638 37.105 62.3158 38.961 59.3078 38.641C57.1958 38.577 56.1718 37.361 57.1958 35.569C58.3478 33.713 59.0518 32.881 61.9958 30.961C62.6358 30.513 63.7238 30.065 63.8518 29.169C63.9798 28.017 63.9158 27.185 63.6598 26.225C63.4678 25.073 62.4438 24.881 61.3558 25.457C60.2038 26.033 59.0518 27.057 58.6678 28.337C58.3478 28.593 58.2198 28.849 58.1558 29.041C58.0278 29.425 57.8358 29.553 57.4518 29.553C57.3238 29.489 57.0038 29.169 57.0678 28.849C57.0678 28.721 57.0678 28.465 57.1958 28.337C57.3238 27.889 57.1958 27.569 57.4518 27.185C58.2838 26.161 58.6038 25.265 59.6918 24.433C60.5878 23.793 61.6118 23.345 62.6358 23.345C64.1078 23.281 65.5798 24.049 66.0278 25.137C66.4118 25.841 66.5398 27.057 66.6678 27.953C67.3078 27.441 69.9318 25.713 69.8038 25.521L70.1238 24.881C70.4438 23.345 70.5718 23.281 70.6998 22.449C70.8918 21.937 70.8918 21.105 71.2118 20.465C71.2758 19.697 71.4678 19.057 71.6598 18.353C71.9798 17.521 72.2998 16.113 72.4278 15.089C72.7478 14.321 72.9398 12.593 73.3878 11.313C73.3878 11.057 73.5798 10.801 73.6438 10.545C73.7078 9.96895 74.0278 9.32895 73.9638 8.75295L74.0918 8.56095C74.2198 8.62495 74.3478 8.62495 74.4118 8.68895C74.9878 9.32895 76.0118 9.32895 75.9478 9.96895C75.9478 10.161 75.8198 10.417 75.9478 10.673C76.2678 10.993 76.1398 11.441 75.9478 11.953C75.5638 13.617 75.1158 15.985 74.4758 18.033C73.8358 20.145 73.3238 22.321 73.3238 22.641C72.8118 24.689 72.9398 24.113 72.5558 25.585C72.3638 26.609 72.1718 27.697 72.0438 28.593C71.7878 29.681 71.6598 30.641 71.5958 31.729L71.7878 31.601C72.7478 30.641 74.0278 29.489 75.0518 28.721L75.1798 28.465C76.2678 26.033 78.9558 24.049 81.1318 24.369C82.6038 24.689 83.6278 25.585 83.6278 27.121C83.6278 27.697 83.3718 27.953 83.2438 28.529C82.8598 29.041 82.4118 29.105 82.0278 28.977C81.7078 28.785 81.3238 28.465 81.1958 27.825C81.2598 27.633 81.6438 25.649 80.6198 25.713C78.6998 25.905 77.0358 30.449 76.7798 33.393C76.6518 34.929 77.0358 36.465 78.7638 36.273C79.7238 36.145 80.9398 35.633 82.4758 35.121C84.0118 34.225 84.7798 33.649 84.9718 33.521C85.8678 33.329 86.4438 33.073 87.4038 32.369L87.9158 31.985L87.9798 32.177C87.9798 32.177 88.1078 32.177 88.1718 32.241ZM74.1558 11.505C74.1558 11.697 74.1558 11.889 74.0918 11.953H74.2838C74.3478 11.505 74.5398 10.929 74.6678 10.609C74.6038 10.481 74.5398 10.481 74.4758 10.481C74.4118 10.737 74.2838 11.249 74.1558 11.505ZM72.9398 17.073C72.8758 17.073 72.8118 17.137 72.7478 17.265C72.8118 17.329 72.8758 17.393 72.9398 17.393C73.0678 17.457 73.1318 17.393 73.1318 17.329C73.4518 16.177 73.5798 15.729 73.5798 15.409C73.6438 14.961 73.7078 14.705 73.8998 14.321C73.8998 14.193 74.0918 12.529 74.2198 12.273C74.0918 12.273 74.0278 12.273 74.0918 12.209C73.8998 12.529 73.5798 14.129 73.5798 14.257C73.4518 14.577 73.4518 14.705 73.5158 14.897C73.3238 14.897 73.3878 15.089 73.3878 15.281C73.2598 15.537 73.1318 15.729 73.0038 15.857C73.1958 16.113 73.1958 16.177 72.9398 17.073ZM71.3398 24.113C71.4678 23.857 71.5958 23.473 71.5958 23.153H71.4038C71.2758 23.153 71.5318 22.769 71.5958 22.705C71.6598 22.641 71.6598 22.513 71.6598 22.449C71.6598 22.385 71.6598 22.257 71.5958 22.257C71.7238 22.193 71.9158 22.129 72.1718 22.065V21.937C71.9158 21.937 71.7238 21.937 71.6598 21.937C71.7878 21.681 71.8518 21.489 71.8518 21.361C71.9798 21.361 72.0438 21.361 72.1718 21.425C72.1078 21.105 72.0438 20.785 72.0438 20.529C72.1718 20.465 72.3638 20.465 72.4918 20.401C72.3638 20.273 72.2358 20.145 72.1718 20.145C72.3638 20.081 72.5558 20.017 72.5558 19.889C72.7478 19.313 72.7478 18.737 72.8118 18.289C73.0678 17.841 73.0678 17.841 72.6838 17.649C72.6838 17.841 72.5558 17.905 72.5558 18.033C72.6838 18.033 72.7478 18.033 72.8118 18.097C72.7478 18.161 72.6838 18.161 72.4278 18.289L72.6838 18.545C72.5558 18.545 72.4278 18.673 72.2358 18.609V18.993C72.1718 19.249 72.0438 19.505 72.0438 19.825C71.8518 20.401 71.7878 21.105 71.6598 21.681C71.4038 22.449 71.1478 23.217 70.9558 23.985C70.8278 24.497 70.5718 25.201 70.6358 25.905L70.5718 25.969C70.5078 26.289 70.2518 26.737 70.1878 27.249C70.1878 27.313 70.2518 27.377 70.3798 27.505C70.4438 27.377 70.5078 27.441 70.6358 27.377C70.5078 27.313 70.4438 27.185 70.4438 27.185C70.5718 26.865 70.6998 26.673 70.8278 26.417C70.8918 26.033 71.0838 25.585 71.2758 25.137C71.2758 24.817 71.2758 24.433 71.3398 24.113ZM71.9158 24.305C71.8518 23.857 72.4278 23.473 72.1078 23.025C71.8518 23.409 71.7878 24.113 71.9158 24.305ZM79.7238 25.009C78.9558 24.881 77.3558 26.225 77.2278 26.545L77.5478 26.865C77.9958 26.289 79.1478 25.265 79.7238 25.009ZM69.8038 28.977C70.3798 28.721 70.1878 28.337 70.1878 28.145C70.3158 28.017 70.3798 27.889 70.4438 27.825C70.3798 27.761 70.3798 27.633 70.1238 27.505C69.9318 28.081 69.9318 28.529 69.8038 28.977ZM70.5718 29.809C70.6358 29.553 70.6358 29.297 70.7638 28.977C70.4438 29.105 70.2518 30.001 70.3798 30.257C70.5078 30.129 70.5078 30.001 70.5718 29.809ZM69.9958 29.361C69.9958 29.297 69.9318 29.233 69.9958 29.041C69.8678 29.105 69.8038 29.105 69.8038 29.105C69.6758 29.361 69.6758 29.617 69.6118 29.937H69.9318C69.9318 29.745 69.9958 29.553 69.9958 29.361ZM69.7398 30.577C69.7398 30.385 69.9318 30.193 69.9318 30.129C69.8038 30.065 69.6758 30.065 69.6118 30.065C69.2278 31.665 68.8438 33.073 68.5878 34.545C68.6518 34.545 68.7158 34.673 68.7158 34.673C68.7798 34.417 69.4198 34.353 68.9718 33.841C69.1638 33.713 69.2918 33.649 69.1638 33.457C69.0358 33.009 69.2278 32.689 69.4198 32.241C69.5478 32.177 69.6118 31.793 69.6758 31.217L69.6118 31.089C69.6758 31.025 69.7398 30.897 69.7398 30.833V30.577ZM63.2118 30.705C62.3798 31.345 61.6118 31.921 60.6518 32.497C61.4838 32.433 63.2118 31.089 63.2118 30.705ZM75.0518 31.217L75.6918 31.025C75.5638 30.961 75.4358 30.769 75.3718 30.769L74.9878 31.025C74.9878 31.153 75.1158 31.089 75.0518 31.217ZM60.7798 36.529C62.3158 35.057 62.8278 33.777 63.4038 31.857C61.9958 32.945 60.6518 33.585 59.1798 35.313C58.7958 35.761 58.6038 36.081 58.3478 36.593C58.2198 36.913 58.2198 37.233 58.3478 37.297C59.2438 37.745 60.4598 36.849 60.7798 36.529ZM75.2438 35.185C75.1158 34.737 75.3718 32.753 75.2438 31.985C74.9238 32.369 74.7958 34.289 74.9238 34.417C74.9878 34.545 74.9878 34.737 75.0518 34.801C74.9238 35.313 74.9238 35.313 75.2438 35.185ZM61.2918 37.809C61.4838 37.809 62.7638 36.913 62.6998 36.529C62.1238 36.913 61.4838 37.361 61.2918 37.809ZM97.3493 39.537C97.2213 39.537 97.1573 39.537 97.0933 39.473C96.1333 38.961 95.1733 38.513 94.6613 37.617C94.5333 37.425 94.4693 37.297 94.4053 37.105C94.0213 36.209 93.8293 35.249 94.0213 34.225C94.2133 33.521 94.5973 31.985 94.5973 31.857C94.2773 31.921 93.9573 31.921 93.7013 31.921H91.3973C91.0773 31.921 90.8213 31.857 90.5653 31.921C90.4373 31.921 90.3093 32.113 90.2453 32.241C90.1813 32.561 90.0533 32.881 89.9253 33.265L89.7333 33.457C89.6693 33.521 89.5413 33.585 89.5413 33.649C89.3493 34.097 89.2213 34.545 89.0933 34.993L88.7093 36.465C88.6453 36.785 88.5813 37.105 88.5813 37.361V37.553C88.7093 37.681 88.7733 37.873 88.5813 38.065C88.4533 38.257 88.1973 38.257 87.8773 38.129C86.8533 37.553 86.6613 36.529 86.7253 35.505C86.7253 34.673 87.1733 33.777 87.3653 32.881C87.4933 32.561 87.4293 32.305 87.6213 31.921L87.2373 31.793C87.0453 31.729 86.7893 31.601 87.1733 30.577C87.1733 30.321 87.2373 30.193 87.5573 30.193H88.1333L89.0933 27.057C89.2213 26.609 89.5413 26.161 89.4133 25.649C89.4133 25.585 89.5413 25.457 89.6053 25.393C89.7333 25.137 89.9253 24.881 90.3093 24.753C90.6933 24.625 90.8853 24.945 91.1413 25.137C91.3973 25.329 91.3973 25.777 91.4613 26.161C91.5253 26.545 91.6533 26.993 91.5893 27.377C91.5253 27.889 91.3973 28.465 91.2693 29.041C91.1413 29.361 91.0133 29.745 90.8853 30.193H93.3173C93.8293 30.193 94.3413 30.129 94.8533 30.129C95.1733 30.129 95.3653 30.065 95.4293 29.873C95.8773 28.977 96.3253 28.081 96.8373 27.249C97.0293 26.801 97.4133 26.353 97.7973 26.097C98.1813 25.713 99.0133 25.649 99.3333 26.417C99.3333 26.481 99.3333 26.609 99.3973 26.673C99.8453 26.993 99.6533 27.377 99.5253 27.633C99.2693 28.145 98.9493 28.721 98.7573 29.233C98.6293 29.361 98.5653 29.873 98.4373 30.129C98.9493 30.065 99.3973 30.385 99.6533 31.025C99.6533 31.409 99.3333 31.473 99.0773 31.601C98.7573 31.729 98.1173 31.601 97.7333 31.665C97.6693 31.665 97.6053 31.729 97.5413 31.857C97.4773 32.177 97.4133 32.113 97.3493 32.433C97.2213 32.945 97.2213 33.137 97.0293 33.649C96.7093 34.609 96.5173 35.569 96.5813 36.529C96.6453 36.977 96.6453 37.297 96.6453 37.617C96.7093 37.937 96.9653 38.065 97.2853 37.873C98.1173 37.425 99.0133 37.041 99.7813 36.465C100.549 35.953 101.125 35.505 101.701 34.865C102.277 34.353 102.725 33.777 103.301 33.201C103.493 32.881 103.813 32.561 104.005 32.305C104.261 32.049 104.453 31.729 104.709 31.345C105.029 30.961 105.349 30.577 105.733 30.193C105.733 30.257 105.797 30.257 105.797 30.321C105.541 30.705 105.285 31.089 105.093 31.473C104.901 31.793 104.773 32.113 104.645 32.433C104.581 32.433 104.069 33.329 104.133 33.329C103.813 33.649 103.493 34.033 103.173 34.417C103.301 34.353 103.493 34.353 103.557 34.225C104.069 33.713 104.517 33.009 105.029 32.497C105.029 32.561 104.965 32.625 104.965 32.753C104.645 33.329 104.325 33.969 103.877 34.481L103.173 35.185C103.109 35.249 103.173 35.313 103.109 35.505C102.661 35.697 101.765 36.337 101.637 36.593C101.893 36.529 102.277 36.465 102.597 36.465V36.593C102.469 36.593 102.341 36.657 102.149 36.657C102.277 36.849 102.341 36.721 102.661 36.785C102.597 36.913 101.893 37.169 101.829 37.233L101.253 37.681L100.677 37.809L100.101 38.257C100.229 38.321 100.293 38.385 100.421 38.513C99.9733 38.961 99.3973 39.281 98.8213 39.409C98.3093 39.473 97.7973 39.729 97.3493 39.537ZM94.5973 34.417C94.9813 34.417 94.9813 34.417 94.8533 34.161C94.9813 34.097 95.0453 34.097 95.1733 34.097C95.1733 34.033 95.2373 34.033 95.2373 33.969L94.8533 33.777C94.9813 33.713 95.1093 33.649 95.1733 33.585C95.2373 33.265 95.4293 32.881 95.3013 32.561C95.1733 32.305 95.4933 32.497 95.4933 32.305L95.3653 31.985C94.7253 32.753 94.8533 33.649 94.5973 34.417ZM119.455 36.465C119.007 36.465 118.559 36.273 118.111 36.081C117.535 35.825 117.407 35.249 117.343 34.609C117.407 34.289 117.407 33.777 117.471 33.393C117.791 31.409 118.175 29.681 119.071 27.825C119.519 27.057 119.967 26.033 120.287 25.009C120.031 24.881 119.263 25.073 119.135 25.137L117.663 25.713L115.039 27.121C115.231 27.569 115.359 28.529 115.167 29.297C114.975 30.385 114.527 31.217 114.015 32.049C113.759 32.369 113.631 32.625 113.439 32.817H113.375C113.119 32.817 112.863 33.073 112.799 33.329C112.415 33.969 111.775 34.481 110.879 34.801C110.431 35.057 109.919 35.249 109.279 35.185C107.871 35.185 106.271 34.353 105.631 33.073L105.503 32.817C105.759 32.625 106.143 32.497 106.143 32.177C106.143 30.769 106.591 29.425 106.975 28.017C107.103 27.825 107.167 27.569 107.167 27.185C106.527 27.697 106.655 28.145 106.463 28.593C106.271 29.041 106.207 29.361 105.887 29.809C105.695 29.745 105.823 29.617 105.823 29.489C106.335 27.761 108.191 23.409 109.087 21.745C109.407 21.361 109.535 20.913 109.791 20.529C110.111 20.273 110.367 20.017 110.815 19.825C111.135 19.633 111.839 19.633 112.095 19.825C112.479 20.273 112.415 20.785 112.223 21.361C111.199 23.217 109.087 27.761 108.447 29.681C108.063 30.833 107.871 31.985 107.935 33.137C107.935 33.585 107.999 33.841 108.447 34.225C108.575 34.161 108.895 34.097 109.087 33.969C109.471 33.713 110.047 33.585 110.431 33.201C111.775 31.985 112.863 30.641 113.055 29.105C113.183 28.209 112.991 27.441 111.647 27.697C111.455 27.633 111.391 27.441 111.391 26.993C111.455 26.673 112.223 26.545 112.479 26.481C114.143 26.161 115.551 25.521 117.087 25.073C118.111 24.625 119.007 24.241 120.159 23.857C120.799 23.601 121.823 23.217 122.655 23.345C123.423 23.473 123.551 23.921 123.423 24.369C123.103 25.009 122.783 25.713 122.463 26.289C121.311 28.401 120.607 30.065 120.095 31.985C119.839 32.945 119.711 33.777 120.031 34.673C120.159 34.737 120.223 34.737 120.351 34.737C121.055 34.737 122.335 34.353 123.231 33.905C124.511 33.201 125.215 32.817 125.279 32.689C125.983 32.369 126.559 31.985 126.751 32.113H126.815L126.367 32.625C126.175 32.689 126.111 32.689 126.367 32.753C126.303 32.817 125.983 32.817 125.919 32.817C125.471 32.817 125.215 33.073 124.127 33.585V33.649L125.599 33.009C125.663 33.137 125.599 33.137 125.407 33.201C124.895 33.393 123.743 34.353 123.167 34.353C123.167 34.353 123.103 34.417 123.103 34.481H123.167L124.319 34.097C124.575 34.033 124.767 33.713 124.895 33.585C125.087 33.457 125.279 33.393 125.663 33.201C125.855 33.073 125.663 33.009 125.855 32.881H126.111L125.535 33.393L125.599 33.457C125.343 33.649 125.215 33.777 124.959 33.905L124.767 34.033L124.639 34.161C123.871 34.609 123.423 35.057 122.783 35.441C121.759 36.017 120.671 36.465 119.455 36.465ZM105.503 32.305C105.503 31.665 105.183 30.897 105.759 30.193L105.503 32.305ZM138.931 33.457C138.931 33.521 138.995 33.585 138.995 33.585C139.827 33.329 140.531 32.625 141.363 32.177C141.299 32.305 141.299 32.433 141.235 32.497C140.979 32.753 140.659 33.009 140.403 33.201L139.187 34.161C138.675 34.417 138.291 34.673 137.843 34.993C137.267 35.313 136.755 35.761 136.115 36.017C135.731 36.209 135.283 36.209 134.835 36.273C134.579 36.273 134.451 36.337 134.259 36.465C134.003 36.593 133.619 36.657 133.299 36.721C132.787 36.849 132.339 36.977 131.827 36.913C131.187 36.849 130.483 36.721 129.907 36.529C129.331 36.337 129.075 36.273 128.435 35.761C128.371 35.633 128.179 35.569 128.115 35.505C127.667 35.185 127.411 34.801 127.027 34.225C126.899 34.097 126.899 34.097 126.771 33.457C126.451 32.689 126.515 32.241 126.515 31.793C126.579 30.513 126.899 29.297 127.539 28.081C127.795 27.697 128.051 27.313 128.371 26.929C128.947 26.225 129.523 25.585 130.099 24.945C130.675 24.369 131.379 23.985 132.211 23.921C132.403 23.921 132.595 23.857 132.851 23.793C133.491 23.537 134.067 23.985 134.515 24.241C135.091 24.497 135.603 24.881 136.051 25.265C136.563 25.585 136.883 26.673 136.691 27.185C136.563 27.505 136.371 27.825 136.179 28.017C135.603 28.657 135.027 29.233 134.451 29.809C134.259 30.001 133.875 30.065 133.811 30.257C133.747 30.705 133.299 30.769 133.043 30.897L132.595 31.153C132.723 31.153 132.787 31.217 132.787 31.217C132.595 31.345 132.403 31.409 132.147 31.537C132.083 31.601 132.083 31.793 132.019 31.857C131.571 32.113 131.059 32.305 130.675 32.561C130.483 32.625 130.355 32.817 130.227 32.945C129.715 33.201 129.523 33.265 129.075 33.521C129.331 34.289 129.459 34.417 129.971 34.609C130.803 34.545 131.635 34.609 132.467 34.481C133.043 34.417 133.619 34.161 134.195 33.969C134.643 33.777 135.155 33.521 135.667 33.329C135.987 33.201 136.307 33.201 136.627 33.009C137.331 32.561 138.099 32.177 138.739 31.793L138.931 31.665C138.995 31.729 138.995 31.729 138.995 31.729C138.931 31.857 138.803 31.985 138.739 32.049C138.803 32.113 138.867 32.177 138.803 32.241C138.995 32.241 139.187 32.177 139.315 32.113C139.379 32.177 139.379 32.177 139.315 32.241C139.059 32.433 138.739 32.689 138.483 32.945C138.675 33.073 138.995 33.137 139.315 33.265C139.123 33.329 139.059 33.393 138.931 33.457ZM129.459 29.617C129.267 30.001 129.139 30.449 129.011 30.961C129.523 30.641 129.843 30.449 130.099 30.257C130.227 30.257 130.355 30.321 130.419 30.257C130.611 30.129 130.931 29.937 131.187 29.681C130.995 29.681 130.931 29.745 130.739 29.745C131.123 29.425 131.315 29.041 131.763 29.041C131.635 29.233 131.443 29.361 131.315 29.553C131.315 29.553 131.315 29.617 131.379 29.617C131.955 29.233 132.467 28.785 133.043 28.401L132.915 28.273C132.787 28.401 132.659 28.529 132.403 28.657C132.211 28.785 132.019 28.913 131.763 29.041C131.827 28.977 131.827 28.913 131.827 28.849C132.467 28.337 132.979 27.889 133.555 27.313C133.939 26.993 134.195 26.609 134.451 26.161C134.643 25.841 134.323 25.265 134.067 25.393C133.491 25.649 132.915 25.649 132.403 26.033C131.827 26.481 131.251 26.801 130.803 27.377C130.291 28.081 129.843 28.849 129.459 29.617ZM135.155 25.969C134.707 26.481 134.451 26.993 134.643 27.697C134.835 27.313 135.155 26.865 135.347 26.481L135.155 25.969ZM143.987 29.105C143.603 29.361 143.219 29.553 142.899 29.809V29.873C142.899 29.809 142.963 29.809 142.963 29.809C142.963 29.873 143.027 29.937 143.027 29.937C142.899 30.065 142.643 30.257 142.323 30.449L142.387 30.705C142.131 30.833 142.003 30.961 142.195 31.153C141.939 31.345 141.555 31.345 141.491 31.793C141.491 31.793 141.491 31.857 141.427 31.857C140.979 31.857 140.723 32.305 140.403 32.561C140.211 32.689 139.955 32.881 139.635 33.009C139.507 33.073 139.379 32.945 139.251 32.881C139.187 32.753 139.187 32.625 139.187 32.561C139.187 32.497 139.251 32.433 139.251 32.433C139.827 32.561 140.211 32.113 140.659 31.857L141.107 31.601C141.363 31.537 141.491 31.345 141.235 30.961C140.787 31.345 140.211 31.665 139.699 32.113C139.635 32.049 139.443 31.985 139.251 31.921C139.699 31.665 140.723 31.089 141.107 30.385C141.235 30.257 141.939 29.937 142.131 29.745L142.579 29.937C142.707 29.745 142.835 29.617 142.963 29.489C142.899 29.425 142.835 29.425 142.707 29.361L142.771 29.297C142.963 29.297 143.155 29.297 143.475 29.233C143.411 29.105 143.347 29.041 143.347 28.977L143.667 28.721L143.603 28.657L143.347 28.849H143.219L144.307 28.145L144.435 28.593C144.435 28.593 144.499 28.593 144.499 28.657C144.307 28.785 144.179 28.977 143.987 29.105ZM139.123 31.601C139.059 31.601 139.059 31.537 139.059 31.537C139.635 31.153 140.211 30.897 140.851 30.513C140.787 30.833 140.403 30.961 139.123 31.601ZM137.459 32.945C137.907 32.753 138.227 32.561 138.547 32.369C138.483 32.177 137.907 32.369 137.459 32.945ZM21.189 76.041L20.165 75.977C18.821 75.785 18.245 75.145 17.669 74.441C17.349 74.057 17.029 73.417 17.157 72.905C17.285 72.521 16.965 72.713 16.709 72.713C16.581 72.265 16.517 71.945 16.453 71.625C16.645 71.689 16.709 71.817 16.773 71.881C16.645 70.665 16.389 69.833 16.517 71.113H16.325C16.261 70.537 16.197 69.065 16.389 67.977C16.005 68.425 15.557 69.065 15.237 69.513C14.789 70.153 14.277 70.793 13.701 71.497H13.829C13.957 71.433 13.189 72.137 12.293 72.457C11.653 72.841 10.949 72.713 10.181 72.329L9.66902 72.137C8.83702 71.689 8.77302 71.049 8.64502 70.409C8.58102 69.897 8.83702 68.425 8.70902 67.849C8.64502 68.169 7.74902 69.833 7.55702 70.345C7.42902 70.729 7.10902 71.369 6.85302 71.625C6.72502 71.945 6.53302 72.201 6.27702 72.457C5.82902 73.161 5.95702 72.905 4.99702 73.737C4.86902 73.929 4.16502 74.121 3.84502 74.121H3.26902C2.24502 74.057 1.66902 73.417 1.22102 72.649C0.965024 72.073 0.645023 71.305 0.453023 70.409C0.133023 69.769 0.837023 69.385 1.28502 69.065C1.60502 68.873 1.98902 68.745 2.24502 69.321C2.56502 69.577 2.43702 70.345 2.82102 71.241C2.94902 71.561 3.20502 71.881 3.84502 72.009C4.61302 71.817 5.63702 69.769 6.08502 68.937C6.78902 67.657 7.36502 66.121 8.00502 65.033C8.32502 64.265 8.58102 63.369 8.90102 62.729C9.15702 62.153 9.15702 62.153 10.053 61.833L10.565 62.153C10.757 61.897 11.013 61.961 11.333 62.153L11.717 62.537C11.781 62.921 11.653 63.241 11.653 63.625C11.269 65.225 11.077 66.441 10.949 67.977C10.885 68.745 10.693 69.577 10.757 70.281C10.821 70.793 10.885 71.433 11.269 71.433C11.717 71.433 12.357 70.729 15.237 67.017L17.733 63.817C17.989 63.433 18.437 63.433 19.013 63.625C18.821 63.689 18.821 63.945 18.693 64.073C18.821 64.137 18.821 64.201 18.885 64.265L19.077 64.073C19.333 64.265 20.037 64.265 19.973 64.585C19.717 65.225 19.781 65.801 19.461 66.313C19.077 68.169 18.693 70.089 19.077 72.009C19.205 72.713 19.461 73.481 19.845 73.993C20.037 74.313 20.421 74.505 20.869 74.633C21.509 74.633 21.765 74.441 22.085 74.185C22.533 74.185 23.237 73.289 23.301 73.225C23.557 72.969 23.941 72.585 24.261 72.393C24.133 72.329 24.069 72.329 24.133 72.265C23.749 72.521 23.301 72.841 22.917 73.161C22.853 73.097 22.853 73.097 22.789 73.097C25.861 70.665 26.437 70.025 27.461 69.577L27.653 69.833L27.269 70.409C27.141 70.729 27.077 70.601 26.885 70.857C26.821 71.113 26.693 71.433 26.181 71.945L25.541 72.777C25.477 72.905 25.477 73.097 25.157 73.289C25.157 73.289 25.157 73.417 25.221 73.481C25.157 73.545 24.965 73.545 24.965 73.609C24.709 74.121 24.197 74.505 23.749 74.953C23.365 75.401 22.341 75.977 21.189 76.041ZM6.14902 70.217L6.59702 69.449C6.66102 69.449 6.66102 69.321 6.66102 69.257C6.98102 69.129 7.17302 68.489 7.42902 68.105C7.55702 67.785 7.81302 67.401 8.00502 67.145C8.19702 66.825 8.32502 66.505 8.58102 66.057L8.38902 65.737C8.38902 65.801 8.32502 65.801 8.32502 65.865C8.13302 66.313 7.87702 66.761 7.62102 67.209C7.49302 67.145 7.49302 67.273 7.49302 67.273C7.49302 67.657 7.30102 67.785 7.10902 67.977V68.169C7.10902 68.297 6.85302 68.361 6.85302 68.809C6.66102 69.193 6.40502 69.513 6.21302 69.833C6.08502 69.833 6.02102 70.089 6.02102 70.153C6.08502 70.217 6.08502 70.217 6.14902 70.217ZM16.261 67.209C16.645 67.081 16.581 66.825 16.389 66.633C16.325 66.761 16.197 66.889 16.133 67.081C16.197 67.081 16.261 67.145 16.261 67.209ZM15.685 67.913C15.749 67.785 15.813 67.721 15.941 67.657L15.877 67.593H15.685C15.685 67.657 15.621 67.721 15.621 67.785C15.621 67.849 15.621 67.849 15.685 67.913ZM14.917 68.809C15.301 68.681 15.621 68.489 15.685 68.233C15.109 68.169 15.045 68.425 14.917 68.809ZM9.54102 69.129H9.60502C9.66902 68.873 9.60502 68.745 9.60502 68.425H9.47702C9.47702 68.745 9.54102 68.873 9.54102 69.129ZM9.15702 70.729C9.22102 69.961 9.28502 69.385 9.02902 68.809C9.22102 69.385 8.64502 69.961 9.15702 70.729ZM24.389 72.521C24.453 72.521 24.517 72.457 24.517 72.393C24.837 72.137 25.029 71.945 25.285 71.625C25.477 71.433 25.669 71.305 25.797 71.049C25.797 71.049 25.733 70.985 25.669 70.985C25.157 71.497 24.709 71.945 24.261 72.457C24.325 72.521 24.325 72.521 24.389 72.521ZM61.0025 76.553L59.9785 76.489C58.6345 76.297 58.0585 75.657 57.4825 74.953C57.1625 74.569 56.8425 73.929 56.9705 73.417C57.0985 73.033 56.7785 73.225 56.5225 73.225C56.3945 72.777 56.3305 72.457 56.2665 72.137C56.4585 72.201 56.5225 72.329 56.5865 72.393C56.4585 71.177 56.2025 70.345 56.3305 71.625H56.1385C56.0745 71.049 56.0105 69.577 56.2025 68.489C55.8185 68.937 55.3705 69.577 55.0505 70.025C54.6025 70.665 54.0905 71.305 53.5145 72.009H53.6425C53.7705 71.945 53.0025 72.649 52.1065 72.969C51.4665 73.353 50.7625 73.225 49.9945 72.841L49.4825 72.649C48.6505 72.201 48.5865 71.561 48.4585 70.921C48.3945 70.409 48.6505 68.937 48.5225 68.361C48.4585 68.681 47.5625 70.345 47.3705 70.857C47.2425 71.241 46.9225 71.881 46.6665 72.137C46.5385 72.457 46.3465 72.713 46.0905 72.969C45.6425 73.673 45.7705 73.417 44.8105 74.249C44.6825 74.441 44.2345 74.761 43.8505 74.761H43.5945C43.0185 74.825 43.0185 74.761 42.5705 74.569C41.8665 74.313 41.4185 73.801 41.0345 73.161C40.7785 72.585 40.4585 71.817 40.2665 70.921C40.1385 70.345 40.0105 70.025 39.8185 69.321L39.3705 69.449C38.5385 69.705 38.3465 69.705 37.5785 69.769C37.2585 69.769 37.1945 69.897 37.1945 69.961C37.1305 70.153 37.0025 70.345 37.0025 70.601L37.1305 70.665V70.729C36.8105 71.049 36.8105 71.433 36.4265 71.689C36.3625 71.753 36.4265 72.009 36.3625 72.073C35.8505 72.649 35.5305 73.289 34.9545 73.929L34.8265 74.057C34.5065 74.377 34.1225 74.697 33.8665 75.017C33.6745 75.145 33.4185 75.273 33.1625 75.273C32.6505 75.593 32.2025 75.721 31.6265 75.913C31.3705 75.977 31.1145 75.977 30.9865 75.913C30.3465 75.849 29.5785 75.849 29.0665 75.593C28.2985 75.465 27.7865 75.017 27.3385 74.441C26.6345 73.737 26.5705 72.521 26.5065 71.497C26.4425 70.281 27.0185 69.065 27.3385 67.913C27.4665 67.529 27.5945 66.697 27.6585 66.697C28.1065 66.057 28.3625 65.289 28.7465 64.905C29.3225 64.329 29.9625 63.817 30.7305 63.433C31.3065 63.177 31.9465 63.241 32.4585 63.241C32.7785 63.241 32.9065 63.561 33.1625 63.817C33.2265 63.881 33.3545 63.881 33.4825 63.945C34.1225 64.201 35.0185 64.201 35.7865 64.841C35.8505 64.905 36.1065 64.905 36.2345 64.969C36.6185 65.289 36.9385 65.673 37.3865 65.929C37.3865 66.057 37.1945 65.929 37.1305 65.929C37.0025 65.929 36.9385 65.929 36.7465 65.993C36.7465 66.057 36.8745 66.249 36.8745 66.249C37.3865 66.249 37.3225 66.633 37.4505 66.889C37.3225 66.889 37.2585 66.953 37.1305 67.017C37.2585 67.081 37.3225 67.145 37.4505 67.401H37.2585C37.3865 67.465 37.4505 67.657 37.6425 67.721C37.6425 67.785 37.5785 67.849 37.6425 67.913C38.9865 67.849 40.5865 67.593 42.1865 67.017L42.2505 67.081C42.3145 67.337 41.8665 67.977 41.6745 68.233C41.8025 68.681 41.8665 69.129 41.9305 69.577C41.9945 69.641 41.9945 69.769 42.0585 69.833C42.2505 70.089 42.3145 70.473 42.4425 71.049C42.5705 71.497 42.8905 72.073 43.2745 72.393C43.4025 72.457 43.5305 72.521 43.6585 72.521C44.4265 72.329 45.4505 70.281 45.8985 69.449C46.6025 68.169 47.1785 66.633 47.8185 65.545C48.1385 64.777 48.3945 63.881 48.7145 63.241C48.9705 62.665 48.9705 62.665 49.8665 62.345L50.3785 62.665C50.5705 62.409 50.8265 62.473 51.1465 62.665L51.5305 63.049C51.5945 63.433 51.4665 63.753 51.4665 64.137C51.0825 65.737 50.8905 66.953 50.7625 68.489C50.6985 69.257 50.5065 70.089 50.5705 70.793C50.6345 71.305 50.6985 71.945 51.0825 71.945C51.5305 71.945 52.1705 71.241 55.0505 67.529L57.5465 64.329C57.8025 63.945 58.2505 63.945 58.8265 64.137C58.6345 64.201 58.6345 64.457 58.5065 64.585C58.6345 64.649 58.6345 64.713 58.6985 64.777L58.8905 64.585C59.1465 64.777 59.8505 64.777 59.7865 65.097C59.5305 65.737 59.5945 66.313 59.2745 66.825C58.8905 68.681 58.5065 70.601 58.8905 72.521C59.0185 73.225 59.2745 73.993 59.6585 74.505C59.8505 74.825 60.2345 75.017 60.6825 75.145C61.3225 75.145 61.5785 74.953 61.8985 74.697C62.3465 74.697 63.0505 73.801 63.1145 73.737C63.3705 73.481 63.7545 73.097 64.0745 72.905C63.9465 72.841 63.8825 72.841 63.9465 72.777C63.5625 73.033 63.1145 73.353 62.7305 73.673C62.6665 73.609 62.6665 73.609 62.6025 73.609C64.9705 71.753 66.8265 69.513 68.5545 67.273C68.5545 67.273 68.6185 67.273 68.5545 67.337C68.4905 67.465 68.2985 67.657 68.2345 67.785C68.1705 67.913 67.9145 68.169 68.1065 68.361C68.1065 68.361 68.1065 68.425 68.0425 68.489C67.7865 68.553 67.7865 68.553 67.5945 68.873H67.9145C67.7225 69.001 67.7865 69.321 67.5945 69.577L67.2745 70.025L67.1465 70.409C67.0185 70.729 66.8905 71.113 66.6985 71.369C66.6345 71.625 66.5065 71.945 65.9945 72.457L65.3545 73.289C65.2905 73.417 65.2905 73.609 64.9705 73.801C64.9705 73.801 64.9705 73.929 65.0345 73.993C64.9705 74.057 64.7785 74.057 64.7785 74.121C64.5225 74.633 64.0105 75.017 63.5625 75.465C63.1785 75.913 62.1545 76.489 61.0025 76.553ZM33.4825 68.169H35.2745C35.2105 67.849 35.2745 67.465 35.2745 67.081C35.1465 66.569 35.0825 65.929 34.7625 65.417C34.6345 65.225 34.5065 65.225 34.3145 65.289C33.9305 65.289 33.6105 65.417 33.4185 65.609C33.0345 65.929 32.5865 66.185 32.5225 66.761C32.5225 67.081 32.5865 67.465 32.7785 67.785C32.9065 68.105 33.0985 68.169 33.4825 68.169ZM45.9625 70.729L46.4105 69.961C46.4745 69.961 46.4745 69.833 46.4745 69.769C46.7945 69.641 46.9865 69.001 47.2425 68.617C47.3705 68.297 47.6265 67.913 47.8185 67.657C48.0105 67.337 48.1385 67.017 48.3945 66.569L48.2025 66.249C48.2025 66.313 48.1385 66.313 48.1385 66.377C47.9465 66.825 47.6905 67.273 47.4345 67.721C47.3065 67.657 47.3065 67.785 47.3065 67.785C47.3065 68.169 47.1145 68.297 46.9225 68.489V68.681C46.9225 68.809 46.6665 68.873 46.6665 69.321C46.4745 69.705 46.2185 70.025 46.0265 70.345C45.8985 70.345 45.8345 70.601 45.8345 70.665C45.8985 70.729 45.8985 70.729 45.9625 70.729ZM35.6585 68.169C35.8505 68.105 35.9785 68.105 36.1065 68.105C36.0425 67.849 36.1705 67.529 36.0425 67.273C35.9785 66.761 35.9785 66.761 35.5945 66.697C35.5945 67.145 35.6585 67.657 35.6585 68.169ZM30.3465 74.377C31.3065 74.121 32.2025 73.481 32.9065 72.777C33.2905 72.393 33.6745 71.945 33.9945 71.433C34.2505 71.049 34.3785 70.537 34.6985 70.089C34.9545 69.769 34.8265 69.705 34.5065 69.577C34.1865 69.577 33.6745 69.513 33.3545 69.385C32.7145 69.257 32.0105 68.937 31.4985 68.553C31.0505 68.297 30.7305 67.977 30.6025 67.593C30.4745 67.401 30.3465 67.145 30.2825 66.889C29.9625 67.657 29.6425 68.169 29.3225 68.809C29.1305 69.065 29.0025 69.449 28.9385 69.705C28.8105 70.089 28.8105 70.409 28.7465 70.729C28.4905 71.369 28.4905 72.137 28.4905 72.777C28.4905 73.225 28.6185 73.545 28.6825 73.929C28.7465 74.441 29.5145 74.697 30.3465 74.377ZM56.0745 67.721C56.4585 67.593 56.3945 67.337 56.2025 67.145C56.1385 67.273 56.0105 67.401 55.9465 67.593C56.0105 67.593 56.0745 67.657 56.0745 67.721ZM55.4985 68.425C55.5625 68.297 55.6265 68.233 55.7545 68.169L55.6905 68.105H55.4985C55.4985 68.169 55.4345 68.233 55.4345 68.297C55.4345 68.361 55.4345 68.361 55.4985 68.425ZM54.7305 69.321C55.1145 69.193 55.4345 69.001 55.4985 68.745C54.9225 68.681 54.8585 68.937 54.7305 69.321ZM49.3545 69.641H49.4185C49.4825 69.385 49.4185 69.257 49.4185 68.937H49.2905C49.2905 69.257 49.3545 69.385 49.3545 69.641ZM48.9705 71.241C49.0345 70.473 49.0985 69.897 48.8425 69.321C49.0345 69.897 48.4585 70.473 48.9705 71.241ZM64.2025 73.033C64.2665 73.033 64.3305 72.969 64.3305 72.905C64.6505 72.649 64.8425 72.457 65.0985 72.137C65.2905 71.945 65.4825 71.817 65.6105 71.561C65.6105 71.561 65.5465 71.497 65.4825 71.497C64.9705 72.009 64.5225 72.457 64.0745 72.969C64.1385 73.033 64.1385 73.033 64.2025 73.033ZM78.4 72.457C78.4 72.521 78.464 72.585 78.464 72.585C79.296 72.329 80 71.625 80.832 71.177C80.768 71.305 80.768 71.433 80.704 71.497C80.448 71.753 80.128 72.009 79.872 72.201L78.656 73.161C78.144 73.417 77.76 73.673 77.312 73.993C76.736 74.313 76.224 74.761 75.584 75.017C75.2 75.209 74.752 75.209 74.304 75.273C74.048 75.273 73.92 75.337 73.728 75.465C73.472 75.593 73.088 75.657 72.768 75.721C72.256 75.849 71.808 75.977 71.296 75.913C70.656 75.849 69.952 75.721 69.376 75.529C68.8 75.337 68.544 75.273 67.904 74.761C67.84 74.633 67.648 74.569 67.584 74.505C67.136 74.185 66.88 73.801 66.496 73.225C66.368 73.097 66.368 73.097 66.24 72.457C65.92 71.689 65.984 71.241 65.984 70.793C66.048 69.513 66.368 68.297 67.008 67.081C67.264 66.697 67.52 66.313 67.84 65.929C68.416 65.225 68.992 64.585 69.568 63.945C70.144 63.369 70.848 62.985 71.68 62.921C71.872 62.921 72.064 62.857 72.32 62.793C72.96 62.537 73.536 62.985 73.984 63.241C74.56 63.497 75.072 63.881 75.52 64.265C76.032 64.585 76.352 65.673 76.16 66.185C76.032 66.505 75.84 66.825 75.648 67.017C75.072 67.657 74.496 68.233 73.92 68.809C73.728 69.001 73.344 69.065 73.28 69.257C73.216 69.705 72.768 69.769 72.512 69.897L72.064 70.153C72.192 70.153 72.256 70.217 72.256 70.217C72.064 70.345 71.872 70.409 71.616 70.537C71.552 70.601 71.552 70.793 71.488 70.857C71.04 71.113 70.528 71.305 70.144 71.561C69.952 71.625 69.824 71.817 69.696 71.945C69.184 72.201 68.992 72.265 68.544 72.521C68.8 73.289 68.928 73.417 69.44 73.609C70.272 73.545 71.104 73.609 71.936 73.481C72.512 73.417 73.088 73.161 73.664 72.969C74.112 72.777 74.624 72.521 75.136 72.329C75.456 72.201 75.776 72.201 76.096 72.009C76.8 71.561 77.568 71.177 78.208 70.793L78.4 70.665C78.464 70.729 78.464 70.729 78.464 70.729C78.4 70.857 78.272 70.985 78.208 71.049C78.272 71.113 78.336 71.177 78.272 71.241C78.464 71.241 78.656 71.177 78.784 71.113C78.848 71.177 78.848 71.177 78.784 71.241C78.528 71.433 78.208 71.689 77.952 71.945C78.144 72.073 78.464 72.137 78.784 72.265C78.592 72.329 78.528 72.393 78.4 72.457ZM68.928 68.617C68.736 69.001 68.608 69.449 68.48 69.961C68.992 69.641 69.312 69.449 69.568 69.257C69.696 69.257 69.824 69.321 69.888 69.257C70.08 69.129 70.4 68.937 70.656 68.681C70.464 68.681 70.4 68.745 70.208 68.745C70.592 68.425 70.784 68.041 71.232 68.041C71.104 68.233 70.912 68.361 70.784 68.553C70.784 68.553 70.784 68.617 70.848 68.617C71.424 68.233 71.936 67.785 72.512 67.401L72.384 67.273C72.256 67.401 72.128 67.529 71.872 67.657C71.68 67.785 71.488 67.913 71.232 68.041C71.296 67.977 71.296 67.913 71.296 67.849C71.936 67.337 72.448 66.889 73.024 66.313C73.408 65.993 73.664 65.609 73.92 65.161C74.112 64.841 73.792 64.265 73.536 64.393C72.96 64.649 72.384 64.649 71.872 65.033C71.296 65.481 70.72 65.801 70.272 66.377C69.76 67.081 69.312 67.849 68.928 68.617ZM74.624 64.969C74.176 65.481 73.92 65.993 74.112 66.697C74.304 66.313 74.624 65.865 74.816 65.481L74.624 64.969ZM83.456 68.105C83.072 68.361 82.688 68.553 82.368 68.809V68.873C82.368 68.809 82.432 68.809 82.432 68.809C82.432 68.873 82.496 68.937 82.496 68.937C82.368 69.065 82.112 69.257 81.792 69.449L81.856 69.705C81.6 69.833 81.472 69.961 81.664 70.153C81.408 70.345 81.024 70.345 80.96 70.793C80.96 70.793 80.96 70.857 80.896 70.857C80.448 70.857 80.192 71.305 79.872 71.561C79.68 71.689 79.424 71.881 79.104 72.009C78.976 72.073 78.848 71.945 78.72 71.881C78.656 71.753 78.656 71.625 78.656 71.561C78.656 71.497 78.72 71.433 78.72 71.433C79.296 71.561 79.68 71.113 80.128 70.857L80.576 70.601C80.832 70.537 80.96 70.345 80.704 69.961C80.256 70.345 79.68 70.665 79.168 71.113C79.104 71.049 78.912 70.985 78.72 70.921C79.168 70.665 80.192 70.089 80.576 69.385C80.704 69.257 81.408 68.937 81.6 68.745L82.048 68.937C82.176 68.745 82.304 68.617 82.432 68.489C82.368 68.425 82.304 68.425 82.176 68.361L82.24 68.297C82.432 68.297 82.624 68.297 82.944 68.233C82.88 68.105 82.816 68.041 82.816 67.977L83.136 67.721L83.072 67.657L82.816 67.849H82.688L83.776 67.145L83.904 67.593C83.904 67.593 83.968 67.593 83.968 67.657C83.776 67.785 83.648 67.977 83.456 68.105ZM78.592 70.601C78.528 70.601 78.528 70.537 78.528 70.537C79.104 70.153 79.68 69.897 80.32 69.513C80.256 69.833 79.872 69.961 78.592 70.601ZM76.928 71.945C77.376 71.753 77.696 71.561 78.016 71.369C77.952 71.177 77.376 71.369 76.928 71.945ZM92.443 78.537C92.315 78.537 92.251 78.537 92.187 78.473C91.227 77.961 90.267 77.513 89.755 76.617C89.627 76.425 89.563 76.297 89.499 76.105C89.115 75.209 88.923 74.249 89.115 73.225C89.307 72.521 89.691 70.985 89.691 70.857C89.371 70.921 89.051 70.921 88.795 70.921H86.491C86.171 70.921 85.915 70.857 85.659 70.921C85.531 70.921 85.403 71.113 85.339 71.241C85.275 71.561 85.147 71.881 85.019 72.265L84.827 72.457C84.763 72.521 84.635 72.585 84.635 72.649C84.443 73.097 84.315 73.545 84.187 73.993L83.803 75.465C83.739 75.785 83.675 76.105 83.675 76.361V76.553C83.803 76.681 83.867 76.873 83.675 77.065C83.547 77.257 83.291 77.257 82.971 77.129C81.947 76.553 81.755 75.529 81.819 74.505C81.819 73.673 82.267 72.777 82.459 71.881C82.587 71.561 82.523 71.305 82.715 70.921L82.331 70.793C82.139 70.729 81.883 70.601 82.267 69.577C82.267 69.321 82.331 69.193 82.651 69.193H83.227L84.187 66.057C84.315 65.609 84.635 65.161 84.507 64.649C84.507 64.585 84.635 64.457 84.699 64.393C84.827 64.137 85.019 63.881 85.403 63.753C85.787 63.625 85.979 63.945 86.235 64.137C86.491 64.329 86.491 64.777 86.555 65.161C86.619 65.545 86.747 65.993 86.683 66.377C86.619 66.889 86.491 67.465 86.363 68.041C86.235 68.361 86.107 68.745 85.979 69.193H88.411C88.923 69.193 89.435 69.129 89.947 69.129C90.267 69.129 90.459 69.065 90.523 68.873C90.971 67.977 91.419 67.081 91.931 66.249C92.123 65.801 92.507 65.353 92.891 65.097C93.275 64.713 94.107 64.649 94.427 65.417C94.427 65.481 94.427 65.609 94.491 65.673C94.939 65.993 94.747 66.377 94.619 66.633C94.363 67.145 94.043 67.721 93.851 68.233C93.723 68.361 93.659 68.873 93.531 69.129C94.043 69.065 94.491 69.385 94.747 70.025C94.747 70.409 94.427 70.473 94.171 70.601C93.851 70.729 93.211 70.601 92.827 70.665C92.763 70.665 92.699 70.729 92.635 70.857C92.571 71.177 92.507 71.113 92.443 71.433C92.315 71.945 92.315 72.137 92.123 72.649C91.803 73.609 91.611 74.569 91.675 75.529C91.739 75.977 91.739 76.297 91.739 76.617C91.803 76.937 92.059 77.065 92.379 76.873C93.211 76.425 94.107 76.041 94.875 75.465C95.643 74.953 96.219 74.505 96.795 73.865C97.371 73.353 97.819 72.777 98.395 72.201C98.587 71.881 98.907 71.561 99.099 71.305C99.355 71.049 99.547 70.729 99.803 70.345C100.123 69.961 100.443 69.577 100.827 69.193C100.827 69.257 100.891 69.257 100.891 69.321C100.635 69.705 100.379 70.089 100.187 70.473C99.995 70.793 99.867 71.113 99.739 71.433C99.675 71.433 99.163 72.329 99.227 72.329C98.907 72.649 98.587 73.033 98.267 73.417C98.395 73.353 98.587 73.353 98.651 73.225C99.163 72.713 99.611 72.009 100.123 71.497C100.123 71.561 100.059 71.625 100.059 71.753C99.739 72.329 99.419 72.969 98.971 73.481L98.267 74.185C98.203 74.249 98.267 74.313 98.203 74.505C97.755 74.697 96.859 75.337 96.731 75.593C96.987 75.529 97.371 75.465 97.691 75.465V75.593C97.563 75.593 97.435 75.657 97.243 75.657C97.371 75.849 97.435 75.721 97.755 75.785C97.691 75.913 96.987 76.169 96.923 76.233L96.347 76.681L95.771 76.809L95.195 77.257C95.323 77.321 95.387 77.385 95.515 77.513C95.067 77.961 94.491 78.281 93.915 78.409C93.403 78.473 92.891 78.729 92.443 78.537ZM89.691 73.417C90.075 73.417 90.075 73.417 89.947 73.161C90.075 73.097 90.139 73.097 90.267 73.097C90.267 73.033 90.331 73.033 90.331 72.969L89.947 72.777C90.075 72.713 90.203 72.649 90.267 72.585C90.331 72.265 90.523 71.881 90.395 71.561C90.267 71.305 90.587 71.497 90.587 71.305L90.459 70.985C89.819 71.753 89.947 72.649 89.691 73.417ZM119.671 80.777C119.415 80.905 117.943 80.905 117.367 80.393C116.791 80.073 116.343 79.369 116.023 78.601C115.895 78.025 115.511 77.193 115.447 76.297C115.447 75.465 115.255 74.569 115.319 73.929L115.255 72.521C115.063 72.457 114.871 72.521 114.487 72.841C114.487 72.969 114.359 72.969 114.295 73.033C113.463 73.865 112.567 74.505 111.863 75.337C111.415 75.913 110.775 76.105 110.263 76.489L109.815 76.873C109.623 76.873 109.431 76.809 109.111 76.745L108.599 75.913C108.599 76.105 108.471 76.233 108.407 76.425C108.151 76.489 108.023 76.361 107.959 76.105C107.959 75.977 107.767 75.977 107.703 75.785C107.639 75.657 107.383 75.529 107.383 75.401C107.255 74.761 106.231 74.569 106.999 73.993C107.127 73.097 107.447 71.241 107.575 70.281C107.639 70.217 107.575 70.089 107.447 69.897C106.679 70.857 105.975 71.689 105.655 72.137C105.527 72.265 105.335 72.329 105.143 72.393C105.335 72.777 104.951 73.033 104.695 73.353L104.311 74.185C103.671 75.081 103.159 75.977 102.583 76.873C102.391 77.193 102.007 77.321 101.751 77.577C101.623 77.641 101.495 77.769 101.431 77.961L100.919 78.345C100.535 78.089 100.535 77.577 100.407 77.321L100.087 77.833C99.703 77.321 99.575 76.681 99.639 75.977C99.831 73.801 100.279 71.689 100.855 69.577C101.175 68.361 101.367 67.081 101.687 65.865C101.687 65.545 101.815 65.225 101.687 64.969C101.623 64.841 101.879 64.585 101.879 64.457C102.391 64.521 102.583 64.521 102.967 64.649C103.415 64.777 103.735 64.905 103.863 65.481C103.991 66.121 103.927 66.825 103.735 67.465C103.607 68.297 103.479 69.129 103.223 70.025C103.159 70.537 102.391 72.521 102.263 73.225C102.455 73.161 102.583 73.097 102.647 73.033C102.839 72.649 103.159 72.201 103.991 70.793C104.567 70.089 105.015 69.129 105.719 68.425C106.167 67.977 106.551 67.465 107.063 67.081C107.319 66.889 107.511 66.953 107.767 67.145C108.151 67.593 108.727 67.849 109.367 67.657C109.623 67.529 109.815 67.657 110.071 67.657C110.263 68.105 110.135 68.617 110.263 69.129C110.327 69.257 110.391 69.513 110.327 69.705C110.263 70.281 110.391 70.857 110.135 71.369C109.943 71.881 109.815 73.289 109.687 73.993C110.519 73.289 111.543 72.265 112.247 71.689C112.631 71.369 113.079 71.049 113.527 70.793C113.783 70.601 114.039 70.473 114.551 70.025C114.743 69.961 115.063 69.897 115.191 70.025C115.831 70.217 116.087 70.537 116.727 70.793C116.855 70.921 116.983 71.049 116.727 71.049C116.791 71.177 116.919 71.369 117.111 71.369C117.687 71.369 117.687 72.009 117.623 72.457C117.687 72.649 117.687 72.969 117.687 73.289V73.609C117.431 73.993 117.687 74.441 117.623 74.825C117.687 75.401 117.687 75.977 117.815 76.489C117.943 76.873 117.943 77.129 118.263 78.345C118.647 79.113 119.159 79.433 120.055 79.113C120.183 78.985 120.439 79.433 120.311 79.689C120.311 79.817 120.183 79.881 120.055 80.009C120.055 80.201 120.055 80.329 119.671 80.777ZM134.799 75.465C134.351 75.465 133.903 75.273 133.455 75.081C132.879 74.825 132.751 74.249 132.687 73.609C132.751 73.289 132.751 72.777 132.815 72.393C133.135 70.409 133.519 68.681 134.415 66.825C134.863 66.057 135.311 65.033 135.631 64.009C135.375 63.881 134.607 64.073 134.479 64.137L133.007 64.713L130.383 66.121C130.575 66.569 130.703 67.529 130.511 68.297C130.319 69.385 129.871 70.217 129.359 71.049C129.103 71.369 128.975 71.625 128.783 71.817H128.719C128.463 71.817 128.207 72.073 128.143 72.329C127.759 72.969 127.119 73.481 126.223 73.801C125.775 74.057 125.263 74.249 124.623 74.185C123.215 74.185 121.615 73.353 120.975 72.073L120.847 71.817C121.103 71.625 121.487 71.497 121.487 71.177C121.487 69.769 121.935 68.425 122.319 67.017C122.447 66.825 122.511 66.569 122.511 66.185C121.871 66.697 121.999 67.145 121.807 67.593C121.615 68.041 121.551 68.361 121.231 68.809C121.039 68.745 121.167 68.617 121.167 68.489C121.679 66.761 123.535 62.409 124.431 60.745C124.751 60.361 124.879 59.913 125.135 59.529C125.455 59.273 125.711 59.017 126.159 58.825C126.479 58.633 127.183 58.633 127.439 58.825C127.823 59.273 127.759 59.785 127.567 60.361C126.543 62.217 124.431 66.761 123.791 68.681C123.407 69.833 123.215 70.985 123.279 72.137C123.279 72.585 123.343 72.841 123.791 73.225C123.919 73.161 124.239 73.097 124.431 72.969C124.815 72.713 125.391 72.585 125.775 72.201C127.119 70.985 128.207 69.641 128.399 68.105C128.527 67.209 128.335 66.441 126.991 66.697C126.799 66.633 126.735 66.441 126.735 65.993C126.799 65.673 127.567 65.545 127.823 65.481C129.487 65.161 130.895 64.521 132.431 64.073C133.455 63.625 134.351 63.241 135.503 62.857C136.143 62.601 137.167 62.217 137.999 62.345C138.767 62.473 138.895 62.921 138.767 63.369C138.447 64.009 138.127 64.713 137.807 65.289C136.655 67.401 135.951 69.065 135.439 70.985C135.183 71.945 135.055 72.777 135.375 73.673C135.503 73.737 135.567 73.737 135.695 73.737C136.399 73.737 137.679 73.353 138.575 72.905C139.855 72.201 140.559 71.817 140.623 71.689C141.327 71.369 141.903 70.985 142.095 71.113H142.159L141.711 71.625C141.519 71.689 141.455 71.689 141.711 71.753C141.647 71.817 141.327 71.817 141.263 71.817C140.815 71.817 140.559 72.073 139.471 72.585V72.649L140.943 72.009C141.007 72.137 140.943 72.137 140.751 72.201C140.239 72.393 139.087 73.353 138.511 73.353C138.511 73.353 138.447 73.417 138.447 73.481H138.511L139.663 73.097C139.919 73.033 140.111 72.713 140.239 72.585C140.431 72.457 140.623 72.393 141.007 72.201C141.199 72.073 141.007 72.009 141.199 71.881H141.455L140.879 72.393L140.943 72.457C140.687 72.649 140.559 72.777 140.303 72.905L140.111 73.033L139.983 73.161C139.215 73.609 138.767 74.057 138.127 74.441C137.103 75.017 136.015 75.465 134.799 75.465ZM120.847 71.305C120.847 70.665 120.527 69.897 121.103 69.193L120.847 71.305Z" fill="#272727"></path></svg> 