<?xml version="1.0" encoding="UTF-8"?> <svg xmlns="http://www.w3.org/2000/svg" width="612" height="206" viewBox="0 0 612 206" fill="none"><path d="M148.344 129.031C155.719 133.531 160.24 138.197 161.906 143.031C163.615 147.864 162.823 152.468 159.531 156.843C156.281 161.218 150.927 164.968 143.469 168.093C132.177 172.218 119.198 175.093 104.531 176.718C89.9062 178.385 75.0521 178.614 59.9688 177.406C59.3438 179.906 58.7188 182.427 58.0938 184.968C57.7188 186.468 57.3646 187.989 57.0312 189.531C55.9062 194.697 54.4062 199.781 52.5312 204.781C52.3646 205.197 52.0729 205.489 51.6562 205.656C51.2812 205.822 50.8854 205.822 50.4688 205.656C49.8021 205.364 49.4688 204.864 49.4688 204.156C49.4271 204.031 49.4062 203.885 49.4062 203.718C47.9062 194.385 46.5521 185.031 45.3438 175.656C28.5104 173.072 14.0729 168.239 2.03125 161.156C1.44792 160.781 1.09375 160.281 0.96875 159.656C0.84375 159.031 0.947917 158.427 1.28125 157.843C1.65625 157.26 2.17708 156.906 2.84375 156.781C3.51042 156.656 4.13542 156.781 4.71875 157.156C8.92708 160.114 13.4479 162.614 18.2812 164.656C26.4062 167.906 35.3021 170.427 44.9688 172.218C44.4271 167.552 43.9896 162.885 43.6562 158.218C42.3646 142.635 43.0104 127.135 45.5938 111.718C48.2188 96.2599 53.4688 81.6974 61.3438 68.0308C67.3438 57.5724 74.8646 48.1349 83.9062 39.7183C92.9896 31.2599 103.323 25.1974 114.906 21.5308C117.656 15.2391 120.385 8.96826 123.094 2.71826C123.76 1.50993 124.635 0.905762 125.719 0.905762C126.802 0.864095 127.698 1.25993 128.406 2.09326C129.115 2.9266 129.198 4.00993 128.656 5.34326C126.156 10.1766 123.698 15.0516 121.281 19.9683C122.406 19.7183 123.531 19.5099 124.656 19.3433C129.781 18.6766 134.927 18.9891 140.094 20.2808C145.26 21.5724 149.531 24.3224 152.906 28.5308C155.448 31.9474 157.01 35.7391 157.594 39.9058C158.177 44.0724 158.219 48.2183 157.719 52.3433C156.344 61.6766 152.448 70.2391 146.031 78.0308C139.656 85.8224 132.031 92.7599 123.156 98.8433C114.323 104.927 105.51 110.093 96.7188 114.343C98.5104 114.385 100.302 114.489 102.094 114.656C110.219 115.531 118.177 117.114 125.969 119.406C133.802 121.739 141.26 124.947 148.344 129.031ZM64.3438 69.7183C58.1354 80.1766 53.6562 91.0933 50.9062 102.468C48.1562 113.843 46.6771 125.447 46.4688 137.281C46.2604 149.114 46.8438 160.968 48.2188 172.843C50.8021 173.26 53.3854 173.614 55.9688 173.906C62.0938 153.031 69.1146 132.468 77.0312 112.218C84.9479 91.9266 93.1771 71.7808 101.719 51.7808C105.385 43.2808 109.094 34.7808 112.844 26.2808C102.385 30.0724 93.0729 35.8849 84.9062 43.7183C76.7396 51.5516 69.8854 60.2183 64.3438 69.7183ZM53.2812 183.781C53.8646 181.489 54.4896 179.218 55.1562 176.968C52.9479 176.718 50.7812 176.447 48.6562 176.156C49.3229 181.822 50.1146 187.427 51.0312 192.968C51.6146 190.26 52.2604 187.531 52.9688 184.781C53.0521 184.447 53.1562 184.114 53.2812 183.781ZM156.531 148.531C156.698 146.531 156.198 144.697 155.031 143.031C153.906 141.364 152.615 139.864 151.156 138.531C146.531 134.489 140.594 130.739 133.344 127.281C126.135 123.822 118.656 121.156 110.906 119.281C103.198 117.447 96.2812 116.906 90.1562 117.656C89.6979 117.781 89.2396 117.906 88.7812 118.031C88.1979 118.281 87.6354 118.531 87.0938 118.781L87.0312 118.718C86.9062 118.802 86.7604 118.885 86.5938 118.968C85.9271 119.093 85.3229 118.989 84.7812 118.656C84.2396 118.322 83.8854 117.843 83.7188 117.218C83.5521 116.593 83.5938 116.031 83.8438 115.531C84.1354 115.031 84.5521 114.656 85.0938 114.406C91.9688 111.114 98.6771 107.51 105.219 103.593C111.552 99.8433 118.135 95.4058 124.969 90.2808C131.844 85.1141 137.844 79.3224 142.969 72.9058C148.135 66.4474 151.365 59.3849 152.656 51.7183C154.073 41.6349 152.365 34.1558 147.531 29.2808C142.698 24.4058 135.219 22.4266 125.094 23.3433C123.01 23.6349 120.969 24.0099 118.969 24.4683C106.969 48.5516 95.9688 73.0724 85.9688 98.0308C75.9688 122.947 67.5521 148.427 60.7188 174.468C74.9688 175.802 89.1146 175.552 103.156 173.718C117.24 171.927 129.948 168.447 141.281 163.281C144.531 161.697 147.656 159.739 150.656 157.406C153.698 155.072 155.656 152.114 156.531 148.531ZM215.656 94.8433C215.781 95.3433 215.49 95.7391 214.781 96.0308C214.115 96.3224 213.385 96.5516 212.594 96.7183C211.969 96.8849 211.51 97.0308 211.219 97.1558C207.052 98.2391 202.823 98.8016 198.531 98.8433C198.323 98.8433 198.115 98.8433 197.906 98.8433C196.281 98.8016 194.365 98.6974 192.156 98.5308C189.948 98.3641 187.844 97.9683 185.844 97.3433C185.927 100.51 185.365 103.593 184.156 106.593C182.99 109.593 181.344 111.864 179.219 113.406C176.719 115.197 174.427 115.697 172.344 114.906C170.26 114.114 168.927 112.218 168.344 109.218C167.719 103.718 169.073 98.6974 172.406 94.1558C174.115 91.9474 176.219 90.2183 178.719 88.9683C179.885 88.5099 180.823 88.6766 181.531 89.4683C181.906 89.0933 182.385 89.0516 182.969 89.3433C184.385 90.9683 185.281 92.9891 185.656 95.4058C187.74 96.2391 190.073 96.7808 192.656 97.0308C195.24 97.2391 197.198 97.3433 198.531 97.3433C204.156 97.3849 209.573 96.4266 214.781 94.4683C214.948 94.3849 215.115 94.3849 215.281 94.4683C215.448 94.5516 215.573 94.6766 215.656 94.8433ZM183.094 93.7183C182.969 93.0933 182.781 92.4891 182.531 91.9058C182.531 92.5724 182.719 93.1766 183.094 93.7183ZM174.531 112.406C177.74 111.656 180.115 109.677 181.656 106.468C183.24 103.26 183.885 99.8849 183.594 96.3433C182.302 95.6349 181.406 94.6766 180.906 93.4683C178.573 94.6766 176.698 96.3849 175.281 98.5933C173.906 100.76 173.01 103.114 172.594 105.656C172.594 105.822 172.573 105.989 172.531 106.156C172.406 107.364 172.406 108.614 172.531 109.906C172.698 111.197 173.365 112.031 174.531 112.406ZM249.656 94.5308C249.865 94.3224 250.073 94.2599 250.281 94.3433C250.49 94.4266 250.615 94.5724 250.656 94.7808C250.74 94.9891 250.677 95.1766 250.469 95.3433C246.677 98.2183 242.677 100.718 238.469 102.843C234.26 104.968 229.99 106.864 225.656 108.531C224.698 108.864 223.698 109.239 222.656 109.656C222.615 109.656 222.594 109.656 222.594 109.656C223.427 110.906 223.969 112.239 224.219 113.656C224.177 116.822 223.344 119.864 221.719 122.781C220.135 125.697 218.24 128.343 216.031 130.718C215.99 130.76 215.927 130.822 215.844 130.906C215.135 131.614 214.177 132.489 212.969 133.531C211.719 134.572 210.49 135.385 209.281 135.968C208.031 136.552 207.052 136.468 206.344 135.718C204.927 132.802 204.948 127.947 206.406 121.156C207.865 114.364 210.094 106.885 213.094 98.7183C216.052 90.5516 219.073 82.9474 222.156 75.9058C225.281 68.8641 227.74 63.6349 229.531 60.2183C229.906 59.5933 230.26 58.9683 230.594 58.3433C231.469 56.6766 232.427 55.0724 233.469 53.5308C234.51 51.9474 235.802 50.5724 237.344 49.4058C238.135 48.8224 238.906 48.7391 239.656 49.1558C240.406 49.5724 240.74 50.2391 240.656 51.1558C239.74 55.7391 238.552 60.2183 237.094 64.5933C234.094 72.8849 230.115 80.7391 225.156 88.1558C225.115 88.2391 225.01 88.3849 224.844 88.5933C224.385 89.2599 223.635 90.3433 222.594 91.8433C221.594 93.3016 220.531 94.7391 219.406 96.1558C218.031 99.7808 216.698 103.427 215.406 107.093C215.531 107.052 215.656 107.01 215.781 106.968C217.365 106.51 218.781 106.635 220.031 107.343C224.74 107.135 230.115 105.635 236.156 102.843C242.198 100.01 246.698 97.2391 249.656 94.5308ZM236.656 57.7808C234.656 61.1141 232.885 64.5724 231.344 68.1558C230.677 69.5724 229.99 70.9891 229.281 72.4058C226.406 78.8224 223.698 85.2808 221.156 91.7808C227.615 83.3224 232.323 74.1141 235.281 64.1558C235.365 63.8224 235.448 63.4683 235.531 63.0933C236.073 61.3433 236.448 59.5724 236.656 57.7808ZM217.219 111.593L217.156 111.531C216.823 111.614 216.469 111.697 216.094 111.781C215.177 111.697 214.552 111.302 214.219 110.593C213.802 111.802 213.406 113.031 213.031 114.281C212.531 115.947 212.01 117.614 211.469 119.281C210.677 121.614 209.99 123.947 209.406 126.281C208.823 128.656 208.51 131.031 208.469 133.406C211.177 131.572 213.469 129.302 215.344 126.593C217.219 123.885 218.594 121.01 219.469 117.968C219.76 116.927 219.885 115.906 219.844 114.906C219.719 114.239 219.385 113.552 218.844 112.843C218.344 112.135 217.802 111.718 217.219 111.593ZM292.594 94.7183C292.76 94.4266 292.99 94.3016 293.281 94.3433C293.573 94.3849 293.802 94.5308 293.969 94.7808C294.135 94.9891 294.135 95.2391 293.969 95.5308C292.76 97.2391 291.365 98.7599 289.781 100.093C288.198 101.385 286.552 102.614 284.844 103.781C284.552 103.989 284.281 104.177 284.031 104.343C279.906 107.177 275.927 109.364 272.094 110.906C268.26 112.406 264.927 112.697 262.094 111.781C259.302 110.822 257.344 108.031 256.219 103.406C253.469 107.489 250.51 111.427 247.344 115.218C245.677 116.885 243.969 117.364 242.219 116.656C240.427 115.906 239.719 114.322 240.094 111.906C241.802 104.322 245.365 97.7391 250.781 92.1558C252.531 90.3641 254.677 88.9266 257.219 87.8433C258.219 87.4683 259.031 87.5933 259.656 88.2183C260.323 88.8433 260.635 89.6141 260.594 90.5308C260.552 91.4058 260.031 92.0516 259.031 92.4683C255.906 94.0516 253.281 96.3016 251.156 99.2183C249.073 102.093 247.448 105.218 246.281 108.593C249.698 104.177 252.885 99.5933 255.844 94.8433C256.302 94.1349 256.906 93.7599 257.656 93.7183C258.448 93.6766 259.115 93.9058 259.656 94.4058C260.24 94.9058 260.51 95.5724 260.469 96.4058C259.635 98.9474 259.406 101.572 259.781 104.281C260.198 106.947 261.781 108.822 264.531 109.906C268.656 109.864 272.823 108.697 277.031 106.406C281.24 104.114 284.99 101.697 288.281 99.1558C289.99 97.9058 291.427 96.4266 292.594 94.7183ZM315.281 97.8433C315.281 97.8849 315.26 97.9058 315.219 97.9058C315.26 97.9058 315.281 97.8849 315.281 97.8433ZM359.156 94.5933C360.448 94.2183 360.99 94.3641 360.781 95.0308C360.573 95.6558 359.906 96.5933 358.781 97.8433C357.656 99.0516 356.365 100.322 354.906 101.656C353.448 102.947 352.135 104.093 350.969 105.093C349.844 106.052 349.156 106.614 348.906 106.781C347.948 107.489 346.969 108.239 345.969 109.031C343.469 111.031 340.865 112.864 338.156 114.531C335.448 116.156 332.51 117.156 329.344 117.531C326.969 117.239 325.365 116.26 324.531 114.593C323.698 112.927 323.344 110.989 323.469 108.781C323.594 106.572 323.906 104.489 324.406 102.531C322.365 105.031 320.073 107.281 317.531 109.281C315.031 110.781 313.052 111.072 311.594 110.156C310.135 109.239 309.219 107.718 308.844 105.593C308.469 103.468 308.656 101.343 309.406 99.2183C310.073 96.6766 310.906 95.0099 311.906 94.2183C312.948 93.4266 313.885 93.1974 314.719 93.5308C315.594 93.8641 316.115 94.4891 316.281 95.4058C316.49 96.2808 316.073 97.1558 315.031 98.0308C315.073 98.0308 315.115 98.0308 315.156 98.0308C315.198 97.9891 315.219 97.9474 315.219 97.9058C315.177 97.9474 315.135 98.0099 315.094 98.0933C314.302 99.4266 313.615 100.968 313.031 102.718C312.49 104.427 312.531 106.01 313.156 107.468C314.115 107.885 315.219 107.572 316.469 106.531C317.719 105.447 318.948 104.093 320.156 102.468C321.365 100.802 322.406 99.3016 323.281 97.9683C323.781 97.2183 324.177 96.6349 324.469 96.2183C324.802 95.7599 325.135 95.2391 325.469 94.6558C326.177 93.2808 327.094 92.1974 328.219 91.4058C328.969 90.9474 329.677 90.8849 330.344 91.2183C331.052 91.5099 331.531 92.0308 331.781 92.7808C332.031 93.4891 331.885 94.1766 331.344 94.8433C331.177 95.0516 331.031 95.2391 330.906 95.4058C330.865 95.4058 330.844 95.4058 330.844 95.4058L330.906 95.4683C330.865 95.5099 330.802 95.5724 330.719 95.6558C330.677 95.6974 330.656 95.7391 330.656 95.7808C330.073 96.5308 329.573 97.3016 329.156 98.0933C327.323 101.552 326.219 105.218 325.844 109.093C325.76 113.593 327.177 115.718 330.094 115.468C333.052 115.218 336.594 113.677 340.719 110.843C344.885 108.01 348.74 104.968 352.281 101.718C355.823 98.4683 358.115 96.0933 359.156 94.5933ZM553.469 25.3433C554.344 25.4683 555.031 25.8641 555.531 26.5308C556.031 27.1974 556.24 27.9683 556.156 28.8433C556.031 29.7183 555.635 30.4266 554.969 30.9683C554.302 31.4683 553.531 31.6558 552.656 31.5308C537.406 29.1558 522.031 28.0933 506.531 28.3433C491.073 28.5516 475.677 29.5516 460.344 31.3433C458.302 31.5933 455.865 31.9266 453.031 32.3433C438.573 65.1349 427.427 99.0516 419.594 134.093C422.135 141.468 422.99 149.552 422.156 158.343C421.365 167.135 418.052 176.802 412.219 187.343C411.427 188.26 410.51 188.697 409.469 188.656C408.427 188.614 407.531 188.218 406.781 187.468C406.031 186.718 405.719 185.739 405.844 184.531C405.885 184.364 405.906 184.135 405.906 183.843C405.948 183.593 405.99 183.322 406.031 183.031C406.073 182.406 406.115 181.947 406.156 181.656C407.115 172.614 408.323 163.593 409.781 154.593C411.073 146.593 412.552 138.614 414.219 130.656C410.927 122.281 406.177 114.072 399.969 106.031C398.01 103.239 395.948 100.468 393.781 97.7183C390.365 93.3849 387.177 88.9058 384.219 84.2808C381.302 79.6558 379.135 74.6766 377.719 69.3433C377.094 65.8016 377.635 62.4891 379.344 59.4058C381.052 56.2808 383.281 53.6766 386.031 51.5933C392.99 46.5099 401.698 42.2599 412.156 38.8433C422.656 35.4266 433.823 32.6974 445.656 30.6558C447.615 26.0308 449.635 21.4474 451.719 16.9058C452.51 15.4474 453.573 14.7183 454.906 14.7183C456.24 14.6766 457.323 15.1558 458.156 16.1558C459.031 17.1558 459.177 18.4683 458.594 20.0933C457.177 23.0933 455.781 26.1349 454.406 29.2183C474.365 26.3849 491.719 24.6766 506.469 24.0933C514.302 23.7599 522.115 23.6558 529.906 23.7808C537.74 23.9058 545.594 24.4266 553.469 25.3433ZM412.406 176.156C417.573 164.656 419.302 153.739 417.594 143.406C415.302 154.656 413.406 165.968 411.906 177.343C412.073 176.927 412.24 176.531 412.406 176.156ZM424.469 89.9683C430.094 70.8433 436.74 52.0933 444.406 33.7183C438.073 34.7599 431.323 36.1766 424.156 37.9683C416.99 39.7183 410.156 41.8641 403.656 44.4058C397.156 46.9474 391.74 49.9683 387.406 53.4683C383.073 56.9266 380.573 60.8849 379.906 65.3433C380.24 70.5516 382.052 75.8016 385.344 81.0933C388.677 86.3433 392.677 91.8224 397.344 97.5308C400.594 101.614 403.802 105.885 406.969 110.343C410.177 114.76 413.052 119.447 415.594 124.406C418.177 112.822 421.135 101.343 424.469 89.9683ZM502.969 94.7183C503.135 94.4266 503.365 94.3016 503.656 94.3433C503.948 94.3849 504.177 94.5308 504.344 94.7808C504.51 94.9891 504.51 95.2391 504.344 95.5308C503.135 97.2391 501.74 98.7599 500.156 100.093C498.573 101.385 496.927 102.614 495.219 103.781C494.927 103.989 494.656 104.177 494.406 104.343C490.281 107.177 486.302 109.364 482.469 110.906C478.635 112.406 475.302 112.697 472.469 111.781C469.677 110.822 467.719 108.031 466.594 103.406C463.844 107.489 460.885 111.427 457.719 115.218C456.052 116.885 454.344 117.364 452.594 116.656C450.802 115.906 450.094 114.322 450.469 111.906C452.177 104.322 455.74 97.7391 461.156 92.1558C462.906 90.3641 465.052 88.9266 467.594 87.8433C468.594 87.4683 469.406 87.5933 470.031 88.2183C470.698 88.8433 471.01 89.6141 470.969 90.5308C470.927 91.4058 470.406 92.0516 469.406 92.4683C466.281 94.0516 463.656 96.3016 461.531 99.2183C459.448 102.093 457.823 105.218 456.656 108.593C460.073 104.177 463.26 99.5933 466.219 94.8433C466.677 94.1349 467.281 93.7599 468.031 93.7183C468.823 93.6766 469.49 93.9058 470.031 94.4058C470.615 94.9058 470.885 95.5724 470.844 96.4058C470.01 98.9474 469.781 101.572 470.156 104.281C470.573 106.947 472.156 108.822 474.906 109.906C479.031 109.864 483.198 108.697 487.406 106.406C491.615 104.114 495.365 101.697 498.656 99.1558C500.365 97.9058 501.802 96.4266 502.969 94.7183ZM566.781 94.5933C567.031 94.3849 567.26 94.3433 567.469 94.4683C567.719 94.5516 567.885 94.7183 567.969 94.9683C568.052 95.1766 567.99 95.3849 567.781 95.5933C562.073 100.677 555.427 103.76 547.844 104.843C546.885 104.968 545.906 105.01 544.906 104.968C543.906 104.927 542.99 104.614 542.156 104.031C540.615 102.781 539.385 101.302 538.469 99.5933C538.302 99.3433 538.115 99.0516 537.906 98.7183C537.49 98.0099 537.01 97.3224 536.469 96.6558C535.969 95.9891 535.406 95.5933 534.781 95.4683C533.365 96.3433 532.156 97.5516 531.156 99.0933C530.906 99.4683 530.656 99.8224 530.406 100.156C529.74 101.031 529.094 101.927 528.469 102.843C527.385 104.468 526.219 106.072 524.969 107.656C523.885 109.156 522.781 109.885 521.656 109.843C520.531 109.76 519.656 108.781 519.031 106.906C518.073 102.489 517.698 98.0308 517.906 93.5308C514.698 97.7391 511.573 102.01 508.531 106.343C507.156 108.218 505.802 110.093 504.469 111.968C504.26 112.302 504.031 112.614 503.781 112.906C502.698 114.447 501.573 115.968 500.406 117.468C500.323 117.593 500.24 117.697 500.156 117.781C499.906 118.156 499.552 118.468 499.094 118.718C498.677 118.885 498.302 118.843 497.969 118.593C497.635 118.343 497.49 117.989 497.531 117.531C497.698 116.364 497.865 115.177 498.031 113.968C498.198 112.718 498.385 111.468 498.594 110.218C498.969 108.218 499.406 106.218 499.906 104.218C500.073 103.718 500.219 103.197 500.344 102.656C500.427 102.239 500.531 101.802 500.656 101.343C501.24 99.1349 501.802 97.0933 502.344 95.2183C502.719 94.1349 503.344 93.5308 504.219 93.4058C505.094 93.2808 505.865 93.5099 506.531 94.0933C507.198 94.6766 507.385 95.5308 507.094 96.6558C506.052 99.7391 504.927 102.906 503.719 106.156C503.552 106.656 503.385 107.135 503.219 107.593C502.802 108.927 502.281 110.26 501.656 111.593C501.615 111.718 501.573 111.843 501.531 111.968C501.823 111.468 502.115 110.989 502.406 110.531C506.198 104.406 509.99 98.1558 513.781 91.7808C513.99 91.4058 514.198 91.0308 514.406 90.6558C514.656 90.2391 514.927 89.8016 515.219 89.3433C516.344 87.4266 517.469 85.6141 518.594 83.9058C519.26 83.0724 520.01 82.6766 520.844 82.7183C521.677 82.7183 522.385 83.0516 522.969 83.7183C523.552 84.3433 523.781 85.1558 523.656 86.1558C522.906 88.0724 522.448 90.6974 522.281 94.0308C522.115 97.3224 522.302 100.302 522.844 102.968C523.719 102.052 524.552 101.135 525.344 100.218C526.844 98.4266 528.49 96.7183 530.281 95.0933C531.698 93.7599 533.094 93.0308 534.469 92.9058C535.844 92.7391 537.01 93.6349 537.969 95.5933C538.26 96.1349 538.594 96.7183 538.969 97.3433C539.677 98.8016 540.531 100.197 541.531 101.531C542.531 102.822 543.719 103.531 545.094 103.656C547.927 103.697 550.698 103.281 553.406 102.406C556.156 101.531 558.74 100.385 561.156 98.9683C563.24 97.7183 565.115 96.2599 566.781 94.5933ZM609.844 94.7183C610.01 94.4266 610.24 94.3016 610.531 94.3433C610.823 94.3849 611.052 94.5308 611.219 94.7808C611.385 94.9891 611.385 95.2391 611.219 95.5308C610.01 97.2391 608.615 98.7599 607.031 100.093C605.448 101.385 603.802 102.614 602.094 103.781C601.802 103.989 601.531 104.177 601.281 104.343C597.156 107.177 593.177 109.364 589.344 110.906C585.51 112.406 582.177 112.697 579.344 111.781C576.552 110.822 574.594 108.031 573.469 103.406C570.719 107.489 567.76 111.427 564.594 115.218C562.927 116.885 561.219 117.364 559.469 116.656C557.677 115.906 556.969 114.322 557.344 111.906C559.052 104.322 562.615 97.7391 568.031 92.1558C569.781 90.3641 571.927 88.9266 574.469 87.8433C575.469 87.4683 576.281 87.5933 576.906 88.2183C577.573 88.8433 577.885 89.6141 577.844 90.5308C577.802 91.4058 577.281 92.0516 576.281 92.4683C573.156 94.0516 570.531 96.3016 568.406 99.2183C566.323 102.093 564.698 105.218 563.531 108.593C566.948 104.177 570.135 99.5933 573.094 94.8433C573.552 94.1349 574.156 93.7599 574.906 93.7183C575.698 93.6766 576.365 93.9058 576.906 94.4058C577.49 94.9058 577.76 95.5724 577.719 96.4058C576.885 98.9474 576.656 101.572 577.031 104.281C577.448 106.947 579.031 108.822 581.781 109.906C585.906 109.864 590.073 108.697 594.281 106.406C598.49 104.114 602.24 101.697 605.531 99.1558C607.24 97.9058 608.677 96.4266 609.844 94.7183Z" fill="#870505"></path></svg> 