<?xml version="1.0" encoding="UTF-8"?> <svg xmlns="http://www.w3.org/2000/svg" width="57" height="56" viewBox="0 0 57 56" fill="none"><path d="M56.7584 0.674609C45.0918 10.9413 35.5251 19.9013 28.0584 27.5546C21.1518 34.6479 13.9651 42.4879 6.49844 51.0746C3.97844 53.8746 2.6251 55.2746 2.43844 55.2746C1.7851 55.3679 1.3651 54.7146 1.17844 53.3146C0.898437 52.0079 1.03844 50.6546 1.59844 49.2546C3.27844 44.8679 7.89844 38.9879 15.4584 31.6146C22.6451 24.7079 30.2051 17.9879 38.1384 11.4546C34.4984 12.0146 27.1251 15.7479 16.0184 22.6546C15.0851 23.2146 14.5718 23.1679 14.4784 22.5146C14.3851 22.1413 14.7118 21.5813 15.4584 20.8346C23.2051 15.5146 34.6384 9.30794 49.7584 2.21461C50.6918 1.65461 52.3251 1.09461 54.6584 0.534606C55.4984 0.534606 56.1984 0.581274 56.7584 0.674609Z" fill="#E0C58E"></path></svg> 