<?xml version="1.0" encoding="UTF-8"?> <svg xmlns="http://www.w3.org/2000/svg" width="172" height="48" viewBox="0 0 172 48" fill="none"><path d="M45.99 3.1376C46.231 2.8431 46.4987 2.69585 46.7932 2.69585C47.2751 2.66908 47.5294 2.82971 47.5562 3.17776C47.6098 3.41871 47.4893 3.76676 47.1948 4.22189C46.6058 5.23925 46.0569 6.3637 45.5483 7.59525C45.0396 8.82679 44.5845 10.1654 44.1829 11.6111C43.5671 13.8333 43.1387 15.9885 42.8978 18.0767C42.6836 20.165 42.6836 22.2399 42.8978 24.3014C43.112 26.6842 43.7277 28.8929 44.7451 30.9276C45.7892 32.9891 47.1546 34.7427 48.8413 36.1885C50.528 37.661 52.4824 38.7854 54.7045 39.5618C56.9267 40.3382 59.3228 40.6595 61.893 40.5256C64.7577 40.3382 66.9664 39.8162 68.5192 38.9594C70.072 38.1295 70.7815 36.9916 70.6477 35.5459C70.5673 34.7963 70.139 34.1136 69.3626 33.4978C68.6129 32.882 67.6357 32.3734 66.431 31.9718C65.2262 31.5702 63.834 31.2757 62.2544 31.0883C60.7016 30.9009 59.0819 30.8473 57.3952 30.9276C56.1636 31.008 54.8785 31.182 53.5399 31.4497C52.2013 31.7442 50.8225 32.1458 49.4035 32.6545C49.2429 32.708 49.176 32.7348 49.2027 32.7348C49.0421 32.7348 48.9618 32.6679 48.9618 32.534C48.935 32.4537 49.0287 32.3466 49.2429 32.2127C50.3941 31.6237 51.6926 31.1552 53.1383 30.8072C54.6108 30.4591 56.2306 30.2315 57.9976 30.1245C59.711 30.0174 61.3709 30.0575 62.9773 30.2449C64.6104 30.4591 66.0561 30.7804 67.3145 31.2087C68.5995 31.6371 69.6437 32.1726 70.4469 32.8151C71.25 33.4577 71.6918 34.1805 71.7721 34.9837C71.8524 35.8404 71.6784 36.6168 71.25 37.3129C70.8484 38.0358 70.2327 38.6515 69.4027 39.1602C68.5728 39.6957 67.5554 40.124 66.3506 40.4453C65.1459 40.7934 63.7805 41.0075 62.2544 41.0879C59.6039 41.2485 57.0739 40.9406 54.6644 40.1642C52.2816 39.4146 50.1532 38.2633 48.2791 36.7105C46.405 35.1577 44.8656 33.2301 43.6608 30.9276C42.4828 28.652 41.7733 26.0684 41.5324 23.1769C41.0237 18.0098 42.2552 12.0395 45.227 5.26603C43.9687 7.2472 42.7371 9.18822 41.5324 11.0891C40.3544 12.9899 39.1496 14.8908 37.9181 16.7917C36.7133 18.6925 35.4817 20.6335 34.2234 22.6147C32.9651 24.5691 31.6532 26.6038 30.2878 28.7189C30.154 28.9063 29.9666 29.0268 29.7256 29.0803C29.4847 29.1606 29.2705 29.174 29.0831 29.1205C28.8689 29.1205 28.7216 29 28.6413 28.759C28.6413 28.7055 28.6949 28.5984 28.802 28.4378C28.9091 28.2771 29.0295 28.0228 29.1634 27.6748C30.1004 25.64 31.0241 23.6455 31.9344 21.6911C32.8446 19.7099 33.688 17.876 34.4644 16.1893C35.2408 14.5026 35.9235 13.0167 36.5125 11.7316C37.1283 10.4465 37.5834 9.46934 37.8779 8.80002C38.0653 8.31811 38.2795 7.82282 38.5204 7.31413C38.7614 6.77868 38.989 6.25661 39.2031 5.74793C39.4173 5.23925 39.6047 4.75734 39.7654 4.30221C39.9528 3.84707 40.0866 3.45887 40.167 3.1376C39.3102 4.34237 38.4267 5.65423 37.5165 7.07318C36.633 8.49213 35.7227 9.92447 34.7857 11.3702C33.8754 12.7891 32.925 14.1947 31.9344 15.5869C30.9705 16.9523 29.9933 18.1972 29.0028 19.3217C25.8168 22.7486 22.5907 25.2652 19.3244 26.8716C16.0582 28.4779 12.6045 29.2811 8.96341 29.2811C7.81218 29.2811 6.72789 29.1874 5.71053 29C4.71994 28.8394 3.84983 28.6118 3.10019 28.3173C2.37733 27.996 1.80172 27.6346 1.37336 27.233C0.944994 26.8314 0.730813 26.4031 0.730813 25.9479C0.730813 25.3054 1.11902 24.7967 1.89542 24.4219C2.67183 24.0203 3.68919 23.8195 4.94751 23.8195C5.42942 23.873 6.00503 23.9667 6.67435 24.1006C7.34366 24.2345 7.97282 24.4085 8.56182 24.6227C9.17759 24.8101 9.68627 25.0243 10.0879 25.2652C10.5162 25.4794 10.7304 25.6936 10.7304 25.9078C10.7304 25.9881 10.6902 26.0282 10.6099 26.0282C10.5564 26.0282 10.5162 26.0148 10.4895 25.9881C8.66891 24.8636 6.83498 24.3014 4.98767 24.3014C2.84585 24.3014 1.77495 24.8235 1.77495 25.8676C1.77495 26.3227 1.96236 26.7377 2.33717 27.1125C2.71199 27.4873 3.22067 27.8086 3.86322 28.0763C4.53253 28.3441 5.32233 28.5449 6.2326 28.6787C7.16964 28.8126 8.20039 28.8795 9.32484 28.8795C13.1801 28.8795 17.0621 27.6212 20.971 25.1046C24.9065 22.5612 28.6146 18.7996 32.095 13.8199C32.336 13.4718 32.6706 12.9899 33.099 12.3742C33.5273 11.7316 34.0092 11.0222 34.5447 10.2457C35.0802 9.44256 35.6424 8.59922 36.2314 7.71572C36.8471 6.83223 37.4361 5.96211 37.9984 5.10539C38.5606 4.22189 39.0827 3.39194 39.5646 2.61553C40.0733 1.83912 40.5016 1.16981 40.8497 0.607581C40.9032 0.50049 41.0103 0.420171 41.1709 0.366625C41.3583 0.286308 41.5458 0.246149 41.7332 0.246149C41.9206 0.219377 42.0946 0.219377 42.2552 0.246149C42.4159 0.272922 42.4962 0.326467 42.4962 0.406786L39.8858 6.75191C39.8323 6.88577 39.6583 7.28736 39.3638 7.95668C39.0961 8.59922 38.748 9.4024 38.3196 10.3662C37.8913 11.33 37.4094 12.4009 36.8739 13.5789C36.3652 14.7569 35.8298 15.9483 35.2676 17.1531C34.7321 18.3311 34.1967 19.4957 33.6612 20.6469C33.1525 21.7714 32.6974 22.762 32.2958 23.6187C31.8942 24.4754 31.5595 25.1581 31.2918 25.6668C31.0509 26.1755 30.9304 26.4031 30.9304 26.3495C30.9304 26.3763 30.9438 26.3897 30.9705 26.3897C31.158 26.1219 31.5729 25.4928 32.2155 24.5022C32.858 23.4848 33.6077 22.2934 34.4644 20.928C35.3479 19.5359 36.2849 18.0634 37.2755 16.5105C38.2661 14.9577 39.1898 13.4986 40.0465 12.1332C40.93 10.741 41.693 9.53627 42.3355 8.5189C42.9781 7.50154 43.3797 6.859 43.5403 6.59127C44.0758 5.73455 44.5041 5.07862 44.8254 4.62348C45.1467 4.16835 45.3876 3.83369 45.5483 3.61951C45.7089 3.40532 45.816 3.28485 45.8695 3.25807C45.9231 3.20453 45.9632 3.16437 45.99 3.1376ZM61.2599 25.9479C61.2599 26.1086 61.0591 26.3227 60.6575 26.5905C57.3644 28.8126 55.1423 29.9237 53.9911 29.9237C53.2414 29.9237 52.8666 29.4953 52.8666 28.6386C52.8666 28.1567 52.9603 27.6748 53.1477 27.1928C53.4155 26.5235 53.5493 26.1755 53.5493 26.1487C53.5493 26.0416 53.5092 25.9881 53.4288 25.9881C53.4021 25.9881 53.3351 26.0148 53.228 26.0684C52.6391 26.6574 51.7823 27.3669 50.6579 28.1968C49.2121 29.2677 48.2082 29.8032 47.6459 29.8032C47.0034 29.8032 46.6821 29.4819 46.6821 28.8394C46.6821 28.4645 47.1507 27.4338 48.0877 25.7471C49.0247 24.0337 49.4933 23.0431 49.4933 22.7754C49.4933 22.4809 49.2523 22.3336 48.7704 22.3336C48.6633 22.3336 48.6098 22.173 48.6098 21.8517C48.8507 21.7714 49.1051 21.7312 49.3728 21.7312C50.3098 21.7312 50.7784 21.9989 50.7784 22.5344C50.7784 23.1234 50.3634 24.114 49.5334 25.5062C48.7035 26.8983 48.2885 27.7685 48.2885 28.1165C48.2885 28.3307 48.3822 28.4378 48.5696 28.4378C48.998 28.4378 50.0421 27.7283 51.702 26.3093C53.3887 24.8904 54.6872 23.6053 55.5974 22.4541C55.999 22.0525 56.2935 21.8517 56.4809 21.8517C56.829 21.8517 57.003 22.0257 57.003 22.3738C57.003 22.5612 56.9093 22.8021 56.7219 23.0966C55.1155 25.5062 54.3123 27.0724 54.3123 27.7952C54.3123 28.4645 54.6202 28.7992 55.236 28.7992C56.173 28.7992 57.8731 27.9559 60.3362 26.2692C60.4701 26.1621 60.6575 26.0416 60.8984 25.9078C60.9787 25.8274 61.0591 25.7873 61.1394 25.7873C61.2197 25.7873 61.2599 25.8408 61.2599 25.9479ZM85.4855 25.9479C85.4855 26.1086 85.2847 26.3227 84.8831 26.5905C82.9822 27.8755 81.9247 28.585 81.7105 28.7189C80.5057 29.4417 79.5018 29.8032 78.6986 29.8032C78.2435 29.8032 77.8552 29.6425 77.534 29.3213C77.2395 29 77.0922 28.6118 77.0922 28.1567C77.0922 26.818 77.949 24.9038 79.6624 22.4139C79.7963 22.2265 79.8632 22.106 79.8632 22.0525C79.8632 22.0257 79.8498 22.0123 79.823 22.0123C79.716 22.0123 79.5285 22.106 79.2608 22.2934C77.7615 23.4179 76.1016 24.6628 74.2811 26.0282C73.5047 26.6976 72.3669 27.6346 70.8676 28.8394C70.6534 29 70.3589 29.1472 69.9841 29.2811C69.7967 29.2811 69.703 29.1472 69.703 28.8795C69.703 28.3441 70.1447 27.4873 71.0282 26.3093C71.9385 25.1046 72.3936 24.2612 72.3936 23.7793C72.3936 23.3242 72.1794 23.0966 71.7511 23.0966C71.1085 23.0966 69.8234 23.9667 67.8958 25.707C66.584 26.885 65.4327 28.0228 64.4421 29.1205C64.0673 29.5221 63.7728 29.7229 63.5586 29.7229C63.2106 29.7229 63.0366 29.5355 63.0366 29.1606C63.0366 29.0535 63.1303 28.7858 63.3177 28.3575C63.9602 27.474 64.5894 26.5905 65.2052 25.707C66.1422 24.3683 66.6107 23.4179 66.6107 22.8557C66.6107 22.6147 66.5304 22.4942 66.3698 22.4942C66.2895 22.4942 66.1288 22.5478 65.8879 22.6549C64.5225 23.6722 62.5814 25.118 60.0648 26.992H59.7837C59.5963 26.992 59.5026 26.9653 59.5026 26.9117C59.5026 26.8314 59.6498 26.6976 59.9443 26.5101C61.8184 25.0376 63.8933 23.4447 66.169 21.7312C66.4902 21.4635 66.9052 21.3296 67.4139 21.3296C67.9494 21.3296 68.2171 21.5706 68.2171 22.0525C68.2171 22.1596 68.1903 22.3202 68.1368 22.5344C67.6013 23.4714 66.9186 24.6628 66.0887 26.1086C65.9816 26.296 65.928 26.4164 65.928 26.47C65.928 26.4968 65.9548 26.5101 66.0083 26.5101L66.1288 26.47C67.1194 25.6133 68.11 24.7565 69.1006 23.8998C70.6266 22.6147 71.7243 21.9722 72.3936 21.9722C73.2771 21.9722 73.7189 22.2533 73.7189 22.8155C73.7189 23.2974 73.4511 24.0337 72.9157 25.0243C72.407 25.9881 72.1527 26.5101 72.1527 26.5905C72.1527 26.6708 72.1794 26.7109 72.233 26.7109C72.3401 26.7109 72.5275 26.6172 72.7952 26.4298L81.1483 20.1249C81.416 19.9107 81.6971 19.8036 81.9916 19.8036C82.179 19.8036 82.3129 19.8437 82.3932 19.9241C82.4735 19.9776 82.5137 20.0847 82.5137 20.2453C82.5137 20.4327 82.4601 20.5934 82.3531 20.7272C81.6034 21.7982 80.8404 22.8824 80.064 23.9801C79.1537 25.3723 78.6986 26.5771 78.6986 27.5944C78.6986 28.237 79.0466 28.5449 79.7427 28.5181C80.5727 28.4913 81.5097 28.1567 82.5539 27.5141C83.4106 26.9787 84.2673 26.4432 85.124 25.9078C85.2043 25.8274 85.2847 25.7873 85.365 25.7873C85.4453 25.7873 85.4855 25.8408 85.4855 25.9479ZM97.1924 25.9479C97.1924 26.3227 96.2286 27.0188 94.301 28.0362C92.3734 29.0535 90.0308 29.5622 87.2732 29.5622C85.6936 29.5622 84.8369 29.4016 84.703 29.0803C84.703 28.8929 84.8502 28.7992 85.1447 28.7992C85.5463 28.8795 85.8007 28.9197 85.9078 28.9197C87.2732 28.9197 88.7323 28.2236 90.2851 26.8314C91.7576 25.5196 92.4938 24.3951 92.4938 23.4581C92.4938 23.0565 92.2395 22.8557 91.7308 22.8557C89.2142 22.8557 86.47 25.2384 83.4982 30.004C83.2573 30.3788 81.7982 33.2167 79.1209 38.5177C76.4168 43.8454 74.9845 46.6967 74.8239 47.0716C74.6365 47.5267 74.3955 47.7543 74.101 47.7543C73.9939 47.7543 73.9136 47.7409 73.8601 47.7141C73.6994 47.6606 73.6191 47.4999 73.6191 47.2322C73.6191 46.2684 79.643 35.0239 91.6907 13.4986C91.9048 13.1238 92.1056 12.9364 92.293 12.9364C92.3198 12.9364 92.3734 12.9632 92.4537 13.0167C92.534 13.0703 92.5742 13.1773 92.5742 13.338C92.5742 13.6325 92.4938 13.8601 92.3332 14.0207C92.3064 14.101 91.2087 16.0822 89.0402 19.9642C86.9787 23.7124 85.9479 25.707 85.9479 25.9479C85.9479 25.9747 85.9613 26.0015 85.9881 26.0282C86.0149 25.9747 86.1086 25.8676 86.2692 25.707C86.9117 24.9306 87.7952 24.1408 88.9197 23.3376C90.419 22.3202 91.7308 21.8115 92.8553 21.8115C93.6852 21.8115 94.1002 22.1328 94.1002 22.7754C94.1002 24.7298 92.534 26.644 89.4016 28.5181C91.7844 28.5181 94.2608 27.648 96.831 25.9078C96.9113 25.8274 96.9916 25.7873 97.072 25.7873C97.1523 25.7873 97.1924 25.8408 97.1924 25.9479ZM108.194 25.9479C108.194 26.055 108.06 26.2156 107.792 26.4298C106.614 27.4204 105.423 27.9157 104.218 27.9157C103.468 27.9157 102.826 27.7149 102.29 27.3133C101.059 28.9197 99.7203 29.7229 98.2745 29.7229C97.2036 29.7229 96.6682 29.0535 96.6682 27.7149C96.6682 25.9747 97.5249 24.2211 99.2384 22.4541C100.684 20.9816 101.742 20.2453 102.411 20.2453C102.839 20.2453 103.053 20.3792 103.053 20.6469C103.053 20.7272 102.973 20.8343 102.813 20.9682C102.17 21.1021 101.3 21.7848 100.202 23.0163C98.8635 24.5156 98.1942 25.9613 98.1942 27.3535C98.1942 28.2638 98.5155 28.7189 99.158 28.7189C100.095 28.7189 101.046 28.17 102.009 27.0724C101.501 26.5101 101.246 25.8141 101.246 24.9841C101.246 24.0203 101.487 23.1903 101.969 22.4942C102.398 21.9052 102.853 21.6107 103.335 21.6107C103.816 21.6107 104.098 21.9454 104.178 22.6147C104.178 23.7927 103.763 25.0644 102.933 26.4298C103.388 26.9385 104.004 27.1928 104.78 27.1928C105.824 27.1928 106.842 26.7645 107.832 25.9078C107.913 25.8274 107.993 25.7873 108.073 25.7873C108.154 25.7873 108.194 25.8408 108.194 25.9479ZM103.776 22.8557C103.776 22.5879 103.683 22.4541 103.495 22.4541C103.254 22.4541 103 22.6683 102.732 23.0966C102.464 23.525 102.331 24.0738 102.331 24.7431C102.331 25.3054 102.451 25.7739 102.692 26.1487C103.415 25.0243 103.776 23.9266 103.776 22.8557ZM116.847 23.0966C116.793 23.2305 116.632 23.5518 116.365 24.0604C116.124 24.5691 115.856 25.1046 115.561 25.6668C115.267 26.229 114.999 26.7645 114.758 27.2732C114.517 27.7551 114.397 28.0362 114.397 28.1165C114.397 28.3307 114.491 28.4378 114.678 28.4378C115.106 28.4378 116.15 27.7283 117.81 26.3093C119.47 24.9439 120.769 23.6589 121.706 22.4541C122.107 22.0525 122.402 21.8517 122.589 21.8517C122.937 21.8517 123.111 22.0257 123.111 22.3738C123.111 22.5879 123.018 22.8289 122.83 23.0966C121.224 25.5062 120.421 27.0724 120.421 27.7952C120.421 28.4645 120.729 28.7992 121.344 28.7992C122.281 28.7992 123.981 27.9559 126.445 26.2692C126.552 26.1621 126.739 26.0416 127.007 25.9078C127.087 25.8274 127.167 25.7873 127.248 25.7873C127.328 25.7873 127.368 25.8408 127.368 25.9479C127.368 26.1086 127.167 26.3227 126.766 26.5905C123.446 28.8126 121.224 29.9237 120.099 29.9237C119.35 29.9237 118.975 29.4953 118.975 28.6386C118.975 28.1299 119.069 27.648 119.256 27.1928C119.524 26.5503 119.658 26.2023 119.658 26.1487C119.658 26.0416 119.617 25.9881 119.537 25.9881C119.564 25.9881 119.497 26.0148 119.336 26.0684C119.042 26.3629 118.68 26.6842 118.252 27.0322C117.824 27.3803 117.328 27.7685 116.766 28.1968C115.347 29.2677 114.343 29.8032 113.754 29.8032C113.112 29.8032 112.79 29.4819 112.79 28.8394C112.79 28.652 112.898 28.3441 113.112 27.9157C113.326 27.4873 113.661 26.8448 114.116 25.9881C114.142 25.9881 114.076 26.0148 113.915 26.0684C113.62 26.3629 113.259 26.6842 112.831 27.0322C112.402 27.3803 111.907 27.7685 111.345 28.1968C109.926 29.2677 108.922 29.8032 108.333 29.8032C107.69 29.8032 107.369 29.4819 107.369 28.8394C107.369 28.4913 107.838 27.4606 108.775 25.7471C109.712 24.0069 110.18 23.0163 110.18 22.7754C110.18 22.4809 109.939 22.3336 109.457 22.3336C109.35 22.3336 109.297 22.173 109.297 21.8517C109.538 21.7714 109.792 21.7312 110.06 21.7312C110.997 21.7312 111.465 21.9989 111.465 22.5344C111.465 23.1234 111.05 24.114 110.22 25.5062C109.39 26.8983 108.975 27.7685 108.975 28.1165C108.975 28.3307 109.069 28.4378 109.256 28.4378C109.685 28.4378 110.729 27.7283 112.389 26.3093C113.031 25.7739 113.647 25.1715 114.236 24.5022C114.852 23.8061 115.347 23.1234 115.722 22.4541C116.124 22.0525 116.418 21.8517 116.606 21.8517C116.954 21.8517 117.128 22.0257 117.128 22.3738C117.128 22.5879 117.034 22.8289 116.847 23.0966ZM140.284 25.9479C140.284 26.1086 140.083 26.3227 139.681 26.5905C136.388 28.8126 134.166 29.9237 133.015 29.9237C132.265 29.9237 131.89 29.4953 131.89 28.6386C131.89 28.1567 131.984 27.6748 132.172 27.1928C132.439 26.5235 132.573 26.1755 132.573 26.1487C132.573 26.0416 132.533 25.9881 132.453 25.9881C132.426 25.9881 132.359 26.0148 132.252 26.0684C131.663 26.6574 130.806 27.3669 129.682 28.1968C128.236 29.2677 127.232 29.8032 126.67 29.8032C126.027 29.8032 125.706 29.4819 125.706 28.8394C125.706 28.4645 126.174 27.4338 127.112 25.7471C128.049 24.0337 128.517 23.0431 128.517 22.7754C128.517 22.4809 128.276 22.3336 127.794 22.3336C127.687 22.3336 127.634 22.173 127.634 21.8517C127.875 21.7714 128.129 21.7312 128.397 21.7312C129.334 21.7312 129.802 21.9989 129.802 22.5344C129.802 23.1234 129.387 24.114 128.557 25.5062C127.727 26.8983 127.312 27.7685 127.312 28.1165C127.312 28.3307 127.406 28.4378 127.593 28.4378C128.022 28.4378 129.066 27.7283 130.726 26.3093C132.413 24.8904 133.711 23.6053 134.621 22.4541C135.023 22.0525 135.317 21.8517 135.505 21.8517C135.853 21.8517 136.027 22.0257 136.027 22.3738C136.027 22.5612 135.933 22.8021 135.746 23.0966C134.139 25.5062 133.336 27.0724 133.336 27.7952C133.336 28.4645 133.644 28.7992 134.26 28.7992C135.197 28.7992 136.897 27.9559 139.36 26.2692C139.494 26.1621 139.681 26.0416 139.922 25.9078C140.003 25.8274 140.083 25.7873 140.163 25.7873C140.244 25.7873 140.284 25.8408 140.284 25.9479ZM143.868 28.1567C143.787 28.2638 143.68 28.411 143.546 28.5984C143.412 28.759 143.279 28.9197 143.145 29.0803C143.038 29.2677 142.931 29.415 142.823 29.5221C142.716 29.6559 142.636 29.7229 142.582 29.7229C142.234 29.7229 142.06 29.5355 142.06 29.1606C142.06 29.0268 142.154 28.759 142.342 28.3575C142.663 27.9023 142.984 27.4606 143.305 27.0322C143.627 26.6038 143.934 26.1621 144.229 25.707C145.166 24.3683 145.635 23.4179 145.635 22.8557C145.635 22.6147 145.554 22.4942 145.394 22.4942C145.287 22.4942 145.126 22.5478 144.912 22.6549C144.216 23.1636 143.386 23.7793 142.422 24.5022C141.485 25.2251 140.374 26.055 139.089 26.992H138.808C138.62 26.992 138.526 26.9653 138.526 26.9117C138.526 26.8582 138.674 26.7243 138.968 26.5101C139.905 25.7605 140.882 24.9975 141.9 24.2211C142.944 23.4179 144.042 22.5879 145.193 21.7312C145.487 21.4635 145.902 21.3296 146.438 21.3296C146.973 21.3296 147.241 21.5706 147.241 22.0525C147.241 22.5879 146.853 23.4447 146.076 24.6227C146.023 24.7298 145.956 24.8368 145.876 24.9439C145.795 25.0243 145.728 25.118 145.675 25.2251C145.889 25.2251 146.143 25.2251 146.438 25.2251C146.732 25.2251 147.067 25.2117 147.442 25.1849C148.084 25.1313 148.633 25.1313 149.088 25.1849C149.195 24.9975 149.302 24.8101 149.409 24.6227C149.517 24.4353 149.637 24.2345 149.771 24.0203C150.065 23.5651 150.347 23.1502 150.614 22.7754C150.909 22.4005 151.203 22.0659 151.498 21.7714C151.685 21.5304 151.98 21.4099 152.381 21.4099C152.595 21.4635 152.703 21.5304 152.703 21.6107C152.703 21.6107 152.234 22.3871 151.297 23.94C150.36 25.4928 149.891 26.6172 149.891 27.3133C149.891 28.1433 150.253 28.5583 150.976 28.5583C151.886 28.5583 153.211 27.7685 154.951 26.1889C155.032 26.1086 155.112 26.0684 155.192 26.0684C155.273 26.0684 155.313 26.1219 155.313 26.229C155.313 26.3897 155.045 26.6574 154.51 27.0322C153.653 27.7818 152.877 28.3575 152.18 28.759C151.484 29.1339 150.828 29.3213 150.213 29.3213C149.008 29.3213 148.406 28.8126 148.406 27.7952C148.406 27.1259 148.553 26.4432 148.847 25.7471C148.526 25.7203 148.138 25.707 147.683 25.707C147.254 25.707 146.772 25.7337 146.237 25.7873C145.862 25.8141 145.621 25.8274 145.514 25.8274C145.407 25.8274 145.327 25.8274 145.273 25.8274C144.898 26.3629 144.564 26.8716 144.269 27.3535C144.001 27.8354 143.868 28.1031 143.868 28.1567ZM156.109 27.3936C156.109 28.1165 156.404 28.4779 156.993 28.4779C157.421 28.4779 157.85 28.3575 158.278 28.1165C158.706 27.8755 159.121 27.5677 159.523 27.1928C159.121 26.7913 158.921 26.296 158.921 25.707C158.921 25.0644 159.095 24.5156 159.443 24.0604C159.817 23.5785 160.232 23.3376 160.688 23.3376C161.143 23.3376 161.41 23.5518 161.491 23.9801C161.491 24.3817 161.424 24.8235 161.29 25.3054C161.156 25.7605 160.915 26.2558 160.567 26.7913C160.969 27.1928 161.531 27.3936 162.254 27.3936C162.682 27.3936 163.111 27.2865 163.539 27.0724C163.646 26.1353 164.088 25.0644 164.864 23.8596C165.159 23.4045 165.44 22.9895 165.707 22.6147C166.002 22.2399 166.296 21.9052 166.591 21.6107C166.778 21.3698 167.073 21.2493 167.474 21.2493C167.689 21.3029 167.796 21.3698 167.796 21.4501C167.796 21.4769 167.635 21.6777 167.314 22.0525C167.019 22.4273 166.645 23.0029 166.189 23.7793C165.627 24.6896 165.212 25.4928 164.944 26.1889C164.971 26.2156 164.985 26.2558 164.985 26.3093C164.985 26.4164 164.931 26.5503 164.824 26.7109C164.797 26.818 164.784 26.9653 164.784 27.1527C164.784 27.581 164.904 27.9023 165.145 28.1165C165.386 28.3039 165.694 28.3976 166.069 28.3976C167.033 28.3976 168.572 27.6212 170.687 26.0684C170.768 25.9881 170.848 25.9479 170.928 25.9479C171.008 25.9479 171.049 26.0015 171.049 26.1086C171.049 26.2692 170.781 26.5369 170.245 26.9117C169.201 27.6614 168.211 28.2905 167.274 28.7992C166.363 29.3079 165.6 29.5622 164.985 29.5622C164.369 29.5622 163.967 29.3748 163.78 29C163.592 28.5984 163.499 28.1433 163.499 27.6346V27.5543C163.151 27.6881 162.816 27.7952 162.495 27.8755C162.173 27.9559 161.919 27.996 161.732 27.996C161.357 27.996 161.062 27.9559 160.848 27.8755C160.634 27.7685 160.406 27.6212 160.166 27.4338C159.603 28.1031 158.961 28.6252 158.238 29C157.515 29.3748 156.819 29.5622 156.15 29.5622C155.641 29.5622 155.266 29.3614 155.025 28.9598C154.784 28.5315 154.664 28.0496 154.664 27.5141C154.664 27.1661 154.784 26.644 155.025 25.9479C155.266 25.2251 155.574 24.5022 155.949 23.7793C156.35 23.0565 156.792 22.4273 157.274 21.8919C157.756 21.3564 158.225 21.0887 158.68 21.0887C158.894 21.1422 159.001 21.2092 159.001 21.2895C159.001 21.2895 158.532 22.0659 157.595 23.6187C157.14 24.3951 156.779 25.1313 156.511 25.8274C156.243 26.4968 156.109 27.0188 156.109 27.3936ZM161.049 24.1408C161.156 24.0872 161.156 24.0471 161.049 24.0203C160.969 23.9667 160.875 23.94 160.768 23.94C160.554 23.94 160.34 24.0872 160.125 24.3817C159.938 24.6762 159.844 25.0644 159.844 25.5463C159.844 25.9479 159.938 26.2826 160.125 26.5503C160.447 26.1487 160.674 25.7337 160.808 25.3054C160.969 24.8502 161.049 24.4888 161.049 24.2211V24.1408Z" fill="#6D6A68"></path></svg> 