<?xml version="1.0" encoding="UTF-8"?> <svg xmlns="http://www.w3.org/2000/svg" width="126" height="19" viewBox="0 0 126 19" fill="none"><path d="M1.75938 9.89565C2.47938 9.65565 3.24738 9.24765 4.01538 8.62365C4.78338 8.02365 5.43138 7.32765 5.98338 6.55965C7.25538 4.73565 7.44738 3.24765 6.58338 2.07165C6.46338 1.92765 6.27138 1.83165 5.98338 1.75965C5.69538 1.71165 5.45538 1.71165 5.21538 1.75965C4.18338 2.02365 3.31938 2.95965 2.64738 4.56765C1.97538 6.19965 1.66338 7.97565 1.75938 9.89565ZM1.80738 10.8316L1.85538 11.1916C1.87938 11.4316 1.90338 11.5996 1.95138 11.6956C2.38338 14.0956 3.41538 15.7276 5.04738 16.6156C6.99138 17.7196 9.60738 17.5996 12.9194 16.2076C13.9274 15.7996 14.8874 15.2236 15.8474 14.4796C16.9034 13.6396 17.6474 12.7996 18.0794 11.9596C18.2234 11.7196 18.4154 11.6476 18.7034 11.7676C18.9674 11.9116 19.0394 12.1276 18.8954 12.3676C18.3914 13.3756 17.5514 14.3116 16.3994 15.1996C15.3914 15.9916 14.3354 16.6156 13.2794 17.0476C9.67938 18.5356 6.79938 18.6796 4.59138 17.4316C2.71938 16.3756 1.54338 14.5276 1.03938 11.8636C0.607383 9.53565 0.775383 7.25565 1.54338 4.99965C1.92738 3.89565 2.40738 2.95965 3.00738 2.23965C3.58338 1.51965 4.25538 1.06365 4.97538 0.871648C5.35938 0.775648 5.76738 0.775648 6.22338 0.871648C6.70338 0.991648 7.08738 1.20765 7.32738 1.51965C7.90338 2.33565 8.11938 3.24765 7.95138 4.30365C7.80738 5.21565 7.39938 6.15165 6.72738 7.08765C6.10338 7.99965 5.33538 8.76765 4.44738 9.43965C3.55938 10.1116 2.67138 10.5916 1.80738 10.8316ZM19.7802 13.2076C19.6362 12.9916 19.4682 12.7036 19.3242 12.3436C19.2522 12.1756 19.2522 11.9356 19.3002 11.5996C19.2522 11.6476 19.1802 11.6956 19.1322 11.7916C18.9882 12.0076 18.9402 12.2716 18.9882 12.5836C19.0362 12.8956 19.1562 13.0876 19.3722 13.1596C19.5162 13.2076 19.6362 13.2316 19.7802 13.2076ZM20.6442 12.8476C20.8362 12.6556 20.9082 12.3196 20.8362 11.8636C20.8122 11.6716 20.7402 11.5276 20.6202 11.3836C20.5722 11.3356 20.5002 11.3356 20.4282 11.3356C20.4282 11.3596 20.4042 11.3596 20.4042 11.3596L20.3562 11.4076L20.2362 11.6476C20.1882 11.7916 20.1882 11.8636 20.1882 11.9116V12.0076C20.2842 12.3196 20.4522 12.6076 20.6442 12.8476ZM19.8042 10.6636C19.9242 10.5676 20.0202 10.5196 20.1162 10.4956C20.5722 10.3516 20.9562 10.4236 21.2442 10.7356C21.4602 10.9276 21.6282 11.2636 21.7482 11.6956C21.8682 12.4636 21.7002 13.0876 21.2682 13.5196C21.6042 13.8076 22.0122 14.0236 22.4682 14.2156C23.5242 14.6956 24.7722 14.8636 26.2602 14.7676C27.7002 14.6956 29.1402 14.3596 30.5562 13.7836C31.9482 13.2076 33.1242 12.4636 34.0362 11.5756C34.2522 11.3596 34.4682 11.3596 34.6842 11.5756C34.8762 11.7676 34.8762 11.9836 34.6842 12.2236C33.6762 13.1836 32.4282 13.9756 30.9162 14.5996C29.4042 15.2236 27.8682 15.5836 26.3322 15.6796C24.7002 15.7756 23.3082 15.5836 22.1082 15.0556C21.4602 14.8156 20.9082 14.4556 20.4282 13.9756C19.8762 14.1916 19.3962 14.1916 19.0122 13.9996C18.4842 13.7836 18.1962 13.3756 18.1002 12.7516C18.0042 12.2236 18.0762 11.7196 18.3642 11.2876C18.7002 10.7836 19.1802 10.5676 19.8042 10.6636ZM36.2714 12.3436C36.2714 11.9596 36.1034 11.7196 35.8154 11.6716C35.4554 11.6236 35.1914 11.7196 34.9994 11.9596C34.7594 12.2236 34.6394 12.5356 34.6874 12.9196C34.7114 13.3756 34.9514 13.7836 35.3834 14.1436C35.9114 14.6236 36.7034 14.9596 37.7354 15.1276C38.7434 15.2956 39.8954 15.2716 41.1674 15.0556C42.6074 14.8156 43.9514 14.4316 45.2234 13.8556C46.4714 13.3036 47.4314 12.6796 48.0794 11.9836C48.3194 11.7916 48.5354 11.7916 48.7274 11.9836C48.9434 12.1996 48.9434 12.4156 48.7514 12.6076C48.0314 13.3756 46.9994 14.0716 45.6554 14.6716C44.3114 15.2716 42.8474 15.7036 41.3114 15.9676C39.9194 16.2076 38.6474 16.2316 37.4954 16.0156C36.3434 15.8236 35.4314 15.4156 34.7594 14.8396C34.1354 14.2876 33.8234 13.6636 33.7754 12.9676C33.7274 12.3436 33.9194 11.8156 34.3034 11.3596C34.7354 10.8556 35.2874 10.6636 35.9594 10.7596C36.3194 10.8316 36.6074 10.9996 36.8234 11.2636C37.0394 11.5516 37.1594 11.8876 37.1834 12.3196C37.1834 12.4636 37.1354 12.5596 37.0394 12.6556C36.9434 12.7516 36.8474 12.7756 36.7514 12.7756C36.6074 12.7996 36.5114 12.7756 36.4154 12.6796C36.3194 12.5836 36.2714 12.4876 36.2714 12.3436ZM51.0779 12.5356C51.0059 12.3436 50.9579 12.1036 50.9339 11.8396C50.2859 11.6476 49.7339 11.6476 49.3019 11.8876C48.8699 12.1036 48.6059 12.4156 48.5579 12.7996C48.5339 13.0876 48.6299 13.2796 48.8699 13.3276C49.3499 13.4476 50.0699 13.1836 51.0779 12.5356ZM51.8459 11.7196C51.9899 12.7996 52.4459 13.6156 53.2379 14.1676C54.1259 14.7916 55.2779 15.0796 56.7179 15.0316C58.0859 15.0076 59.4299 14.7196 60.7499 14.1436C62.0699 13.5676 63.0059 12.8956 63.5579 12.1036C63.7259 11.8636 63.9419 11.8156 64.1819 11.9836C64.4219 12.1756 64.4699 12.3676 64.3019 12.6076C63.6539 13.5196 62.6219 14.3116 61.1819 14.9356C59.7419 15.5836 58.2539 15.9196 56.7419 15.9436C55.0619 15.9916 53.7179 15.6556 52.7099 14.8876C52.1579 14.5036 51.7259 14.0236 51.4139 13.3996C50.2859 14.0956 49.3739 14.3596 48.6779 14.2156C48.2939 14.1436 48.0299 13.9516 47.8379 13.6636C47.6459 13.3756 47.5979 13.0636 47.6699 12.6796C47.7659 11.9836 48.1739 11.4556 48.8699 11.0716C49.4219 10.7836 50.0939 10.7116 50.8859 10.8796C50.9099 10.6396 51.0539 10.4956 51.3419 10.4956C51.4379 10.4956 51.5579 10.5436 51.6539 10.6396C51.7499 10.7356 51.7979 10.8316 51.7979 10.9516V11.2876C51.8699 11.4316 51.8939 11.5756 51.8459 11.7196ZM61.1935 5.98365C61.8655 5.45565 62.6335 5.21565 63.4975 5.28765C63.6415 5.28765 63.7855 5.31165 63.9775 5.35965C64.0015 5.23965 64.0495 5.04765 64.1215 4.78365C64.1935 4.54365 64.2415 4.35165 64.2895 4.20765C64.3855 3.94365 64.5775 3.84765 64.8655 3.91965C65.1535 4.01565 65.2495 4.20765 65.1775 4.49565C65.0815 4.73565 64.9855 5.09565 64.8655 5.57565C64.8655 5.57565 64.8895 5.59965 64.9375 5.59965C64.9615 5.62365 64.9855 5.64765 65.0335 5.64765C65.0815 5.64765 65.1055 5.67165 65.1535 5.67165C65.9215 5.91165 66.5455 6.03165 67.0015 6.03165C67.6495 6.03165 68.3215 5.81565 68.9935 5.33565C69.2335 5.16765 69.4255 5.21565 69.6175 5.45565C69.7855 5.69565 69.7615 5.91165 69.5215 6.07965C68.7055 6.65565 67.8655 6.94365 67.0015 6.94365C66.6655 6.94365 66.2815 6.89565 65.8735 6.79965C65.6575 6.77565 65.3215 6.67965 64.8895 6.53565L64.6735 6.46365C64.4335 7.59165 64.3135 8.69565 64.3615 9.75165C64.4575 12.1036 65.1295 13.7836 66.4255 14.7676C67.5055 15.6316 68.9695 15.9676 70.8175 15.7756C72.4495 15.6076 74.0575 15.1036 75.6895 14.2876C77.2015 13.5196 78.2335 12.7276 78.7615 11.9356C78.9295 11.6956 79.1455 11.6476 79.3855 11.8156C79.6255 11.9836 79.6735 12.1996 79.5295 12.4396C78.9055 13.3756 77.7535 14.2636 76.0975 15.1036C74.3455 15.9916 72.6175 16.5196 70.8895 16.6876C68.8255 16.8796 67.1455 16.4956 65.8735 15.4876C64.3375 14.3356 63.5455 12.4396 63.4495 9.77565C63.4015 8.57565 63.5215 7.39965 63.7855 6.24765C63.6175 6.22365 63.4975 6.19965 63.4015 6.19965C62.8015 6.15165 62.2495 6.31965 61.7455 6.70365C61.4815 6.89565 61.2655 6.87165 61.1215 6.60765C61.0255 6.51165 61.0015 6.41565 61.0255 6.29565C61.0255 6.17565 61.0975 6.07965 61.1935 5.98365ZM79.789 11.2876C79.597 12.2716 79.789 13.0636 80.365 13.6876C80.893 14.2876 81.733 14.6476 82.885 14.7676C84.133 14.8636 85.429 14.6956 86.797 14.2156C88.309 13.7116 89.749 12.8956 91.093 11.7916C91.333 11.5996 91.549 11.6236 91.741 11.8396C91.933 12.1036 91.909 12.3196 91.669 12.4876C90.277 13.6396 88.789 14.4796 87.229 15.0316C85.645 15.5836 84.181 15.7996 82.813 15.6556C81.397 15.5356 80.317 15.0556 79.597 14.2396C78.877 13.4236 78.637 12.3916 78.901 11.1196C78.925 10.9996 78.997 10.9036 79.093 10.8316C79.189 10.7836 79.309 10.7596 79.429 10.7596C79.549 10.8076 79.645 10.8796 79.717 10.9756C79.765 11.0716 79.789 11.1916 79.789 11.2876ZM79.741 9.19965V9.22365C79.837 9.31965 79.909 9.41565 79.933 9.53565C79.933 9.65565 79.909 9.75165 79.837 9.84765C79.741 9.96765 79.645 10.0396 79.525 10.0396C79.405 10.0636 79.309 10.0396 79.213 9.94365H79.189C78.949 9.77565 78.901 9.55965 79.093 9.31965C79.261 9.07965 79.477 9.03165 79.741 9.19965ZM92.6708 13.2076C92.5268 12.9916 92.3588 12.7036 92.2148 12.3436C92.1428 12.1756 92.1428 11.9356 92.1908 11.5996C92.1428 11.6476 92.0708 11.6956 92.0228 11.7916C91.8788 12.0076 91.8308 12.2716 91.8788 12.5836C91.9268 12.8956 92.0468 13.0876 92.2628 13.1596C92.4068 13.2076 92.5268 13.2316 92.6708 13.2076ZM93.5348 12.8476C93.7268 12.6556 93.7988 12.3196 93.7268 11.8636C93.7028 11.6716 93.6308 11.5276 93.5108 11.3836C93.4628 11.3356 93.3908 11.3356 93.3188 11.3356C93.3188 11.3596 93.2948 11.3596 93.2948 11.3596L93.2468 11.4076L93.1268 11.6476C93.0788 11.7916 93.0788 11.8636 93.0788 11.9116V12.0076C93.1748 12.3196 93.3428 12.6076 93.5348 12.8476ZM92.6948 10.6636C92.8148 10.5676 92.9108 10.5196 93.0068 10.4956C93.4628 10.3516 93.8468 10.4236 94.1348 10.7356C94.3508 10.9276 94.5188 11.2636 94.6388 11.6956C94.7588 12.4636 94.5908 13.0876 94.1588 13.5196C94.4948 13.8076 94.9028 14.0236 95.3588 14.2156C96.4148 14.6956 97.6628 14.8636 99.1508 14.7676C100.591 14.6956 102.031 14.3596 103.447 13.7836C104.839 13.2076 106.015 12.4636 106.927 11.5756C107.143 11.3596 107.359 11.3596 107.575 11.5756C107.767 11.7676 107.767 11.9836 107.575 12.2236C106.567 13.1836 105.319 13.9756 103.807 14.5996C102.295 15.2236 100.759 15.5836 99.2228 15.6796C97.5908 15.7756 96.1988 15.5836 94.9988 15.0556C94.3508 14.8156 93.7988 14.4556 93.3188 13.9756C92.7668 14.1916 92.2868 14.1916 91.9028 13.9996C91.3748 13.7836 91.0868 13.3756 90.9908 12.7516C90.8948 12.2236 90.9668 11.7196 91.2548 11.2876C91.5908 10.7836 92.0708 10.5676 92.6948 10.6636ZM107.098 13.4236L107.122 13.3756V13.3036L107.17 12.6316C107.194 11.9116 107.146 11.3836 107.026 10.9996C106.978 10.9036 107.002 10.7836 107.05 10.6636C107.098 10.5436 107.194 10.4716 107.338 10.4236C107.434 10.3996 107.554 10.4236 107.674 10.4716C107.794 10.5196 107.866 10.6156 107.914 10.7356C107.986 11.0236 108.034 11.3356 108.058 11.6476C108.298 11.4076 108.538 11.2156 108.826 11.0716C109.282 10.8796 109.738 10.8556 110.194 10.9996C110.53 11.1196 110.794 11.3836 110.938 11.7676C111.01 12.0556 111.058 12.3676 111.082 12.7036C111.082 12.7756 111.106 12.8956 111.106 13.0636C111.106 13.1596 111.13 13.2316 111.13 13.3276C111.13 13.7356 111.178 14.0956 111.274 14.3836C111.346 14.7676 111.466 15.0796 111.658 15.2956C112.234 16.0876 113.122 16.4956 114.346 16.5436C115.474 16.5916 116.77 16.3276 118.234 15.7756C119.626 15.2716 120.898 14.6236 122.098 13.8316C123.202 13.1596 124.066 12.4636 124.714 11.7676C124.906 11.5276 125.122 11.5276 125.338 11.7196C125.578 11.9356 125.578 12.1516 125.386 12.3676C124.762 13.0876 123.802 13.8556 122.506 14.6716C121.21 15.4876 119.89 16.1596 118.546 16.6396C116.914 17.2396 115.498 17.5036 114.298 17.4316C112.81 17.3836 111.682 16.8556 110.914 15.8476C110.65 15.5116 110.482 15.0796 110.386 14.5996C110.29 14.2636 110.218 13.8556 110.218 13.3756C110.218 13.2796 110.194 13.2076 110.194 13.1116V12.7756C110.146 12.2236 110.05 11.9116 109.906 11.8636C109.45 11.7196 109.018 11.8876 108.61 12.4156C108.322 12.7996 108.106 13.1836 108.01 13.5916C108.01 13.6636 107.986 13.7116 107.986 13.7356C107.986 13.9756 107.866 14.0956 107.626 14.1436C107.578 14.1916 107.506 14.1916 107.434 14.1436C107.146 14.1196 107.002 13.9516 107.05 13.6156C107.074 13.5676 107.098 13.4956 107.098 13.4236Z" fill="#790F2E"></path></svg> 