<?xml version="1.0" encoding="UTF-8"?> <svg xmlns="http://www.w3.org/2000/svg" width="285" height="103" viewBox="0 0 285 103" fill="none"><path d="M93.0573 44.3164H92.7333V42.3364C92.7333 40.7764 92.3853 39.7444 91.6893 39.2404C91.0173 38.7364 90.0693 38.4844 88.8453 38.4844H87.4053V49.1764C87.4053 49.8964 87.1413 50.5204 86.6133 51.0484V51.0844H93.7773C95.5293 51.0844 96.8253 50.7004 97.6653 49.9324C98.5293 49.1644 99.0213 47.9284 99.1413 46.2244L99.3573 43.3444H99.9333L99.3213 53.1004L98.9973 53.0644L99.1053 51.4084H99.0693C98.8533 51.6244 98.4093 51.7324 97.7373 51.7324H81.4293V51.4084H82.6893C83.5533 51.4084 84.0813 51.3124 84.2733 51.1204C84.4893 50.9044 84.5973 50.3644 84.5973 49.5004V28.0804C84.5973 27.2164 84.4893 26.6884 84.2733 26.4964C84.0813 26.2804 83.5533 26.1724 82.6893 26.1724H81.4293V25.8484H95.7933C96.4653 25.8484 96.9093 25.9564 97.1253 26.1724H97.1613L97.0533 24.5164L97.3773 24.4804L98.0253 34.2364H97.3773L97.2333 31.7164C97.1373 29.8204 96.6333 28.4764 95.7213 27.6844C94.8333 26.8924 93.4893 26.4964 91.6893 26.4964H86.6133V26.5324C87.1413 27.0604 87.4053 27.6844 87.4053 28.4044V37.8364H88.8453C90.0933 37.8364 91.0533 37.5964 91.7253 37.1164C92.3973 36.6124 92.7333 35.5804 92.7333 34.0204V32.7604H93.0573V44.3164ZM101.905 38.7004C101.905 34.7644 103.057 31.5964 105.361 29.1964C107.665 26.7724 110.701 25.5604 114.469 25.5604C117.061 25.5604 119.257 26.3284 121.057 27.8644C121.225 28.0324 121.357 28.2724 121.453 28.5844L121.705 28.5124C121.657 28.2724 121.621 27.9244 121.597 27.4684L121.525 24.8404H121.849L122.173 35.2444L121.525 35.2804L121.417 31.9324C121.321 30.3484 120.541 28.9924 119.077 27.8644C117.637 26.7364 116.005 26.1724 114.181 26.1724C111.229 26.1724 108.973 27.1924 107.413 29.2324C105.877 31.2724 105.109 34.2364 105.109 38.1244C105.109 42.4204 105.913 45.7084 107.521 47.9884C109.153 50.2444 111.505 51.3724 114.577 51.3724C116.329 51.3724 117.949 50.9284 119.437 50.0404C120.925 49.1524 121.969 47.9524 122.569 46.4404L123.181 46.6924C122.509 48.4204 121.381 49.7404 119.797 50.6524C118.237 51.5644 116.473 52.0204 114.505 52.0204C110.737 52.0204 107.689 50.7964 105.361 48.3484C103.057 45.9004 101.905 42.6844 101.905 38.7004ZM165.061 44.3524C163.093 46.3444 160.489 47.3404 157.249 47.3404C154.009 47.3404 151.393 46.3444 149.401 44.3524C147.409 42.3364 146.413 39.6964 146.413 36.4324C146.413 33.1684 147.409 30.5404 149.401 28.5484C151.393 26.5564 154.009 25.5604 157.249 25.5604C160.489 25.5604 163.093 26.5564 165.061 28.5484C167.029 30.5404 168.013 33.1684 168.013 36.4324C168.013 39.6964 167.029 42.3364 165.061 44.3524ZM157.357 46.6924C159.805 46.6924 161.665 45.8764 162.937 44.2444C164.233 42.6124 164.881 40.2364 164.881 37.1164C164.881 33.5644 164.209 30.8644 162.865 29.0164C161.545 27.1444 159.625 26.2084 157.105 26.2084C154.657 26.2084 152.785 27.0244 151.489 28.6564C150.193 30.2884 149.545 32.6644 149.545 35.7844C149.545 39.3364 150.205 42.0484 151.525 43.9204C152.869 45.7684 154.813 46.6924 157.357 46.6924ZM124.777 51.7324V51.4084H126.037C126.901 51.4084 127.429 51.2884 127.621 51.0484C127.837 50.8084 127.945 50.1844 127.945 49.1764V28.0804C127.945 27.2164 127.837 26.6884 127.621 26.4964C127.429 26.2804 126.901 26.1724 126.037 26.1724H124.777V25.8484H133.021V26.1724H132.697C131.833 26.1724 131.293 26.2684 131.077 26.4604C130.861 26.6524 130.753 27.1684 130.753 28.0084V36.1804C132.049 36.1804 132.829 36.0124 133.093 35.6764L138.781 28.5124C139.213 27.9844 139.429 27.5284 139.429 27.1444C139.429 26.4964 138.805 26.1724 137.557 26.1724H137.233V25.8484H145.369V26.1724H144.757C143.845 26.1724 142.909 26.3764 141.949 26.7844C140.989 27.1684 140.161 27.7924 139.465 28.6564L133.741 35.8924L133.777 36.0364C134.593 36.2284 135.361 36.5404 136.081 36.9724C136.801 37.3804 137.497 37.9564 138.169 38.7004C138.865 39.4204 139.429 40.0684 139.861 40.6444C140.317 41.2204 140.905 42.0244 141.625 43.0564C142.201 43.8724 142.657 44.5204 142.993 45.0004C143.353 45.4564 143.845 46.0564 144.469 46.8004C145.093 47.5444 145.645 48.1444 146.125 48.6004C146.629 49.0324 147.253 49.5244 147.997 50.0764C148.741 50.6044 149.473 51.0124 150.193 51.3004C150.937 51.5884 151.789 51.8284 152.749 52.0204C153.709 52.2364 154.705 52.3444 155.737 52.3444C157.033 52.3444 158.329 52.1884 159.625 51.8764C160.921 51.5644 162.061 51.1684 163.045 50.6884C164.029 50.2084 164.833 49.7764 165.457 49.3924C166.105 48.9844 166.621 48.6244 167.005 48.3124L167.797 47.6284L167.977 47.8804L167.185 48.5644C165.721 49.8364 163.837 50.9644 161.533 51.9484C159.229 52.9564 156.865 53.4604 154.441 53.4604C153.217 53.4604 152.041 53.3284 150.913 53.0644C149.809 52.8004 148.825 52.4884 147.961 52.1284C147.097 51.7924 146.221 51.3004 145.333 50.6524C144.445 49.9804 143.713 49.3804 143.137 48.8524C142.561 48.3244 141.901 47.6164 141.157 46.7284C140.437 45.8404 139.885 45.1444 139.501 44.6404C139.117 44.1124 138.601 43.3804 137.953 42.4444C137.377 41.6044 136.921 40.9684 136.585 40.5364C136.273 40.1044 135.853 39.5884 135.325 38.9884C134.821 38.3884 134.377 37.9444 133.993 37.6564C133.633 37.3444 133.201 37.0804 132.697 36.8644C132.193 36.6244 131.689 36.5044 131.185 36.5044H130.753V49.1764C130.753 49.2004 130.753 49.2364 130.753 49.2844C130.753 49.3084 130.753 49.3324 130.753 49.3564C130.753 50.2684 130.861 50.8444 131.077 51.0844C131.317 51.3004 131.857 51.4084 132.697 51.4084H133.957V51.7324H124.777ZM171.18 25.8484H174.276H184.14H190.152V26.1724H188.856C188.016 26.1724 187.488 26.3164 187.272 26.6044C187.056 26.8924 186.948 27.4924 186.948 28.4044V49.1764C186.948 50.0884 187.056 50.6884 187.272 50.9764C187.488 51.2644 188.016 51.4084 188.856 51.4084H190.152V51.7324H181.26V51.4084H182.232C183.072 51.4084 183.6 51.2644 183.816 50.9764C184.032 50.6884 184.14 50.0884 184.14 49.1764V26.4964H175.716V35.2804C175.716 39.7204 175.2 43.5124 174.168 46.6564C173.136 49.7764 171.936 51.9004 170.568 53.0284L168.444 50.6164C169.188 49.9924 169.896 49.2484 170.568 48.3844C171.24 47.4964 171.9 46.4524 172.548 45.2524C173.22 44.0524 173.76 42.6604 174.168 41.0764C174.576 39.4924 174.78 37.8484 174.78 36.1444V28.8364C174.78 27.5884 174.624 26.8324 174.312 26.5684C174.024 26.3044 173.244 26.1724 171.972 26.1724H171.18V25.8484ZM191.398 51.7324V51.3724H192.658C193.522 51.3724 194.05 51.2764 194.242 51.0844C194.458 50.8684 194.566 50.3284 194.566 49.4644V28.0444C194.566 27.1804 194.458 26.6524 194.242 26.4604C194.05 26.2684 193.522 26.1724 192.658 26.1724H191.398V25.8484H200.578V26.1724H199.318C198.454 26.1724 197.914 26.2804 197.698 26.4964C197.482 26.7124 197.374 27.2524 197.374 28.1164V38.4124H200.11C202.87 38.4124 205.09 39.0244 206.77 40.2484C208.45 41.4724 209.29 43.0804 209.29 45.0724C209.29 47.0644 208.45 48.6724 206.77 49.8964C205.09 51.1204 202.87 51.7324 200.11 51.7324H191.398ZM197.374 39.0244V49.1764C197.374 49.9924 197.17 50.6044 196.762 51.0124V51.0844H199.426C201.61 51.0844 203.278 50.5684 204.43 49.5364C205.582 48.5044 206.158 47.0164 206.158 45.0724C206.158 43.1044 205.582 41.6044 204.43 40.5724C203.278 39.5404 201.61 39.0244 199.426 39.0244H197.374ZM250.842 44.3524C248.874 46.3444 246.27 47.3404 243.03 47.3404C239.79 47.3404 237.174 46.3444 235.182 44.3524C233.19 42.3364 232.194 39.6964 232.194 36.4324C232.194 33.1684 233.19 30.5404 235.182 28.5484C237.174 26.5564 239.79 25.5604 243.03 25.5604C246.27 25.5604 248.874 26.5564 250.842 28.5484C252.81 30.5404 253.794 33.1684 253.794 36.4324C253.794 39.6964 252.81 42.3364 250.842 44.3524ZM243.138 46.6924C245.586 46.6924 247.446 45.8764 248.718 44.2444C250.014 42.6124 250.662 40.2364 250.662 37.1164C250.662 33.5644 249.99 30.8644 248.646 29.0164C247.326 27.1444 245.406 26.2084 242.886 26.2084C240.438 26.2084 238.566 27.0244 237.27 28.6564C235.974 30.2884 235.326 32.6644 235.326 35.7844C235.326 39.3364 235.986 42.0484 237.306 43.9204C238.65 45.7684 240.594 46.6924 243.138 46.6924ZM210.558 51.7324V51.4084H211.818C212.682 51.4084 213.21 51.2884 213.402 51.0484C213.618 50.8084 213.726 50.1844 213.726 49.1764V28.0804C213.726 27.2164 213.618 26.6884 213.402 26.4964C213.21 26.2804 212.682 26.1724 211.818 26.1724H210.558V25.8484H218.802V26.1724H218.478C217.614 26.1724 217.074 26.2684 216.858 26.4604C216.642 26.6524 216.534 27.1684 216.534 28.0084V36.1804C217.83 36.1804 218.61 36.0124 218.874 35.6764L224.562 28.5124C224.994 27.9844 225.21 27.5284 225.21 27.1444C225.21 26.4964 224.586 26.1724 223.338 26.1724H223.014V25.8484H231.15V26.1724H230.538C229.626 26.1724 228.69 26.3764 227.73 26.7844C226.77 27.1684 225.942 27.7924 225.246 28.6564L219.522 35.8924L219.558 36.0364C220.374 36.2284 221.142 36.5404 221.862 36.9724C222.582 37.3804 223.278 37.9564 223.95 38.7004C224.646 39.4204 225.21 40.0684 225.642 40.6444C226.098 41.2204 226.686 42.0244 227.406 43.0564C227.982 43.8724 228.438 44.5204 228.774 45.0004C229.134 45.4564 229.626 46.0564 230.25 46.8004C230.874 47.5444 231.426 48.1444 231.906 48.6004C232.41 49.0324 233.034 49.5244 233.778 50.0764C234.522 50.6044 235.254 51.0124 235.974 51.3004C236.718 51.5884 237.57 51.8284 238.53 52.0204C239.49 52.2364 240.486 52.3444 241.518 52.3444C242.814 52.3444 244.11 52.1884 245.406 51.8764C246.702 51.5644 247.842 51.1684 248.826 50.6884C249.81 50.2084 250.614 49.7764 251.238 49.3924C251.886 48.9844 252.402 48.6244 252.786 48.3124L253.578 47.6284L253.758 47.8804L252.966 48.5644C251.502 49.8364 249.618 50.9644 247.314 51.9484C245.01 52.9564 242.646 53.4604 240.222 53.4604C238.998 53.4604 237.822 53.3284 236.694 53.0644C235.59 52.8004 234.606 52.4884 233.742 52.1284C232.878 51.7924 232.002 51.3004 231.114 50.6524C230.226 49.9804 229.494 49.3804 228.918 48.8524C228.342 48.3244 227.682 47.6164 226.938 46.7284C226.218 45.8404 225.666 45.1444 225.282 44.6404C224.898 44.1124 224.382 43.3804 223.734 42.4444C223.158 41.6044 222.702 40.9684 222.366 40.5364C222.054 40.1044 221.634 39.5884 221.106 38.9884C220.602 38.3884 220.158 37.9444 219.774 37.6564C219.414 37.3444 218.982 37.0804 218.478 36.8644C217.974 36.6244 217.47 36.5044 216.966 36.5044H216.534V49.1764C216.534 49.2004 216.534 49.2364 216.534 49.2844C216.534 49.3084 216.534 49.3324 216.534 49.3564C216.534 50.2684 216.642 50.8444 216.858 51.0844C217.098 51.3004 217.638 51.4084 218.478 51.4084H219.738V51.7324H210.558Z" fill="black"></path><path d="M84.0328 92.4609V92.1369H85.2928C86.1328 92.1369 86.6608 91.9929 86.8768 91.7049C87.0928 91.4169 87.2008 90.8169 87.2008 89.9049V69.1329C87.2008 68.2209 87.0928 67.6209 86.8768 67.3329C86.6608 67.0449 86.1328 66.9009 85.2928 66.9009H84.0328V66.5769H105.885V66.9009H104.589C103.749 66.9009 103.221 67.0449 103.005 67.3329C102.789 67.6209 102.681 68.2209 102.681 69.1329V89.9049C102.681 90.8169 102.789 91.4169 103.005 91.7049C103.221 91.9929 103.749 92.1369 104.589 92.1369H105.885V92.4609H96.9928V92.1369H97.9648C98.8048 92.1369 99.3328 91.9929 99.5488 91.7049C99.7648 91.4169 99.8728 90.8169 99.8728 89.9049V67.2249H90.0088V89.9049C90.0088 90.8169 90.1168 91.4169 90.3328 91.7049C90.5728 91.9929 91.1128 92.1369 91.9528 92.1369H92.8888V92.4609H84.0328ZM112.494 67.2609V67.4409C112.902 67.9929 113.106 68.7369 113.106 69.6729V81.7329H115.122C117.402 81.7329 119.13 81.1209 120.306 79.8969C121.506 78.6489 122.106 76.8489 122.106 74.4969C122.106 72.1449 121.506 70.3569 120.306 69.1329C119.13 67.8849 117.402 67.2609 115.122 67.2609H112.494ZM107.13 92.4609V92.1369H108.39C109.254 92.1369 109.782 92.0409 109.974 91.8489C110.19 91.6329 110.298 91.0929 110.298 90.2289V68.8089C110.298 67.9449 110.19 67.4169 109.974 67.2249C109.782 67.0089 109.254 66.9009 108.39 66.9009H107.13V66.5769H116.202C118.914 66.5769 121.098 67.3089 122.754 68.7729C124.41 70.2129 125.238 72.1209 125.238 74.4969C125.238 76.8729 124.41 78.7809 122.754 80.2209C121.098 81.6609 118.914 82.3809 116.202 82.3809H113.106V90.2289C113.106 91.0929 113.214 91.6329 113.43 91.8489C113.646 92.0409 114.186 92.1369 115.05 92.1369H115.95V92.4609H107.13ZM149.354 71.7249C149.666 71.2929 150.014 70.8969 150.398 70.5369C152.75 73.0809 153.926 76.0689 153.926 79.5009C153.926 83.1489 152.63 86.2689 150.038 88.8609C147.446 91.4529 144.314 92.7489 140.642 92.7489C136.634 92.7489 133.406 91.5369 130.958 89.1129C128.51 86.6889 127.286 83.4849 127.286 79.5009C127.286 75.5409 128.51 72.3489 130.958 69.9249C133.406 67.5009 136.634 66.2889 140.642 66.2889C142.922 66.2889 145.046 66.8289 147.014 67.9089C146.774 68.1249 146.522 68.3409 146.258 68.5569C144.602 67.4769 142.682 66.9369 140.498 66.9369C137.21 66.9369 134.702 67.9569 132.974 69.9969C131.27 72.0369 130.418 74.9889 130.418 78.8529C130.418 83.1489 131.294 86.4369 133.046 88.7169C134.822 90.9729 137.39 92.1009 140.75 92.1009C143.99 92.1009 146.594 90.9969 148.562 88.7889C150.53 86.5569 151.514 83.6289 151.514 80.0049C151.514 76.7409 150.794 73.9809 149.354 71.7249ZM149.93 91.1289C150.194 90.9129 150.446 90.6969 150.686 90.4809C152.342 91.5609 154.19 92.1009 156.23 92.1009C157.982 92.1009 159.602 91.6569 161.09 90.7689C162.578 89.8809 163.622 88.6809 164.222 87.1689L164.834 87.4209C164.162 89.1489 163.034 90.4689 161.45 91.3809C159.89 92.2929 158.126 92.7489 156.158 92.7489C153.95 92.7489 151.874 92.2089 149.93 91.1289ZM147.698 87.2769C147.362 87.7089 147.002 88.0929 146.618 88.4289C144.338 85.9329 143.198 82.9329 143.198 79.4289C143.198 77.0529 143.774 74.8569 144.926 72.8409C146.078 70.8249 147.65 69.2289 149.642 68.0529C151.634 66.8769 153.794 66.2889 156.122 66.2889C158.714 66.2889 160.91 67.0569 162.71 68.5929C162.878 68.7609 163.01 69.0009 163.106 69.3129L163.358 69.2409C163.31 69.0009 163.274 68.6529 163.25 68.1969L163.178 65.5689H163.502L163.826 75.9729L163.178 76.0089L163.07 72.6609C162.974 71.0769 162.194 69.7209 160.73 68.5929C159.29 67.4649 157.658 66.9009 155.834 66.9009C152.786 66.9009 150.326 68.0169 148.454 70.2489C146.582 72.4569 145.646 75.3849 145.646 79.0329C145.646 82.3449 146.33 85.0929 147.698 87.2769ZM166.404 92.4609V92.1009H167.664C168.528 92.1009 169.056 92.0049 169.248 91.8129C169.464 91.5969 169.572 91.0569 169.572 90.1929V68.7729C169.572 67.9089 169.464 67.3809 169.248 67.1889C169.056 66.9969 168.528 66.9009 167.664 66.9009H166.404V66.5769H175.584V66.9009H174.324C173.46 66.9009 172.92 67.0089 172.704 67.2249C172.488 67.4409 172.38 67.9809 172.38 68.8449V79.1409H175.116C177.876 79.1409 180.096 79.7529 181.776 80.9769C183.456 82.2009 184.296 83.8089 184.296 85.8009C184.296 87.7929 183.456 89.4009 181.776 90.6249C180.096 91.8489 177.876 92.4609 175.116 92.4609H166.404ZM172.38 79.7529V89.9049C172.38 90.7209 172.176 91.3329 171.768 91.7409V91.8129H174.432C176.616 91.8129 178.284 91.2969 179.436 90.2649C180.588 89.2329 181.164 87.7449 181.164 85.8009C181.164 83.8329 180.588 82.3329 179.436 81.3009C178.284 80.2689 176.616 79.7529 174.432 79.7529H172.38ZM185.564 92.4609V92.1009H186.824C187.688 92.1009 188.216 92.0049 188.408 91.8129C188.624 91.5969 188.732 91.0569 188.732 90.1929V68.8089C188.732 67.9449 188.624 67.4169 188.408 67.2249C188.216 67.0089 187.688 66.9009 186.824 66.9009H185.564V66.5769H200.54C200.972 66.5769 201.296 66.6849 201.512 66.9009H201.548L201.404 64.4529L201.728 64.4169L202.412 74.9649H201.764L201.62 72.4449C201.524 70.6209 200.876 69.3009 199.676 68.4849C198.5 67.6449 196.976 67.2249 195.104 67.2249H190.748V67.2609C191.276 67.7889 191.54 68.4129 191.54 69.1329V78.4209H194.06C197.324 78.4209 199.94 79.0689 201.908 80.3649C203.9 81.6369 204.896 83.3289 204.896 85.4409C204.896 87.5529 203.984 89.2569 202.16 90.5529C200.36 91.8249 197.972 92.4609 194.996 92.4609H185.564ZM191.54 79.0329V89.9049C191.54 90.7209 191.336 91.3329 190.928 91.7409V91.8129H194.312C196.736 91.8129 198.584 91.2729 199.856 90.1929C201.128 89.0889 201.764 87.5049 201.764 85.4409C201.764 83.3529 201.104 81.7689 199.784 80.6889C198.488 79.5849 196.592 79.0329 194.096 79.0329H191.54Z" fill="black"></path><path d="M94.102 6.92552C94.102 7.22322 93.8664 7.4217 93.395 7.52093L91.6832 7.03716C91.311 7.11158 90.8149 7.22322 90.1946 7.37208C88.0611 8.09154 85.8903 9.86538 83.6823 12.6936C82.0697 14.7775 80.544 16.8739 79.105 18.9827C73.9448 26.599 69.3799 34.4014 65.4105 42.3899C63.5002 46.2105 62.5451 49.1007 62.5451 51.0606C62.5451 53.1198 63.2769 54.1494 64.7407 54.1494C64.9639 54.0749 65.8074 53.802 67.2712 53.3307C67.3952 53.4051 67.4572 53.5167 67.4572 53.6656C67.4572 54.1369 67.0727 54.5215 66.3036 54.8192C65.733 55.0425 65.2492 55.1541 64.8523 55.1541C62.6443 55.1541 61.5403 53.4299 61.5403 49.9814C61.5403 47.699 62.3466 44.3994 63.9592 40.0827C65.5966 35.7659 66.4153 33.9549 66.4153 34.6495C66.4153 34.3766 66.2664 34.2402 65.9687 34.2402H64.3685L60.3867 33.868C59.2951 33.868 58.526 34.1657 58.0795 34.7612C57.8066 35.3318 57.2732 36.3489 56.4793 37.8127C49.9793 49.5225 43.008 55.3774 35.5653 55.3774C32.2409 55.3774 29.574 54.2238 27.5644 51.9165C25.6293 49.7334 24.6618 46.9548 24.6618 43.5807C24.6618 39.6609 25.7286 35.7287 27.8622 31.7841C29.9957 27.8395 32.7247 24.85 36.0491 22.8156C36.3716 22.6916 36.7189 22.4187 37.0911 21.997C37.3144 20.8557 37.7981 19.1687 38.5424 16.9359C40.2294 13.5867 42.6111 10.8701 45.6874 8.78619C48.9125 6.57819 52.3238 5.47419 55.9211 5.47419C57.2111 5.47419 59.0346 5.66026 61.3914 6.0324C60.8705 2.80723 59.4315 1.19465 57.0747 1.19465C56.6281 1.19465 56.1195 1.43034 55.5489 1.90171C55.0031 2.37308 54.7426 2.60876 54.7675 2.60876C54.4697 2.60876 54.3209 2.42269 54.3209 2.05056C54.3209 1.47995 54.7426 0.996179 55.5862 0.599235C56.256 0.276719 56.9258 0.115461 57.5957 0.115461C59.0346 0.115461 60.1386 0.847325 60.9077 2.31105C61.2798 3.08013 61.9496 4.44462 62.9172 6.40453C63.6118 6.57819 64.4057 6.81388 65.2989 7.11158C67.0107 7.65738 69.0078 7.93028 71.2902 7.93028C73.0765 7.93028 74.9247 7.60776 76.835 6.96273C79.1919 6.16884 80.7424 5.08966 81.4867 3.72516C81.4867 3.40265 81.4991 2.91887 81.5239 2.27384C81.5735 1.95132 81.834 1.79006 82.3054 1.79006C82.7768 1.79006 83.0124 2.12499 83.0124 2.79483C83.0124 3.43986 82.2558 4.43222 80.7424 5.7719C78.0383 8.17837 73.7711 9.29477 67.941 9.12111L62.6195 8.97226C62.0985 12.2967 60.3991 15.6955 57.5213 19.1687C54.9907 22.2202 52.1005 24.7507 48.8505 26.7603C48.8257 26.8843 48.7761 27.2937 48.7017 27.9883C48.2303 32.5035 46.6425 36.4606 43.9384 39.8594C41.8296 42.4891 39.8449 43.804 37.9842 43.804C36.6197 43.804 35.9375 43.3078 35.9375 42.3155C35.9375 42.1418 36.0491 41.8689 36.2724 41.4968H36.5329C37.1779 42.1914 37.7981 42.5388 38.3936 42.5388C39.758 42.5388 41.3086 41.472 43.0452 39.3384C44.4593 37.6018 45.4517 36.014 46.0223 34.5751C47.1635 31.6724 47.7341 29.6505 47.7341 28.5093V27.2813C46.0223 27.9759 44.3725 28.3232 42.7847 28.3232C40.7504 28.3232 39.113 27.2813 37.8726 25.1973C37.426 24.453 37.1407 24.0809 37.0167 24.0809C36.4212 24.0809 35.28 25.0485 33.593 26.9836C32.3526 28.4225 31.5215 29.4644 31.0997 30.1095C27.8497 35.1953 26.2248 39.6857 26.2248 43.5807C26.2248 50.6513 29.4127 54.1866 35.7886 54.1866C39.634 54.1866 43.1817 52.3383 46.4317 48.6418C48.6645 46.1113 51.1205 42.179 53.7999 36.8451C56.0575 32.3547 57.9802 28.7574 59.568 26.0532C60.1138 25.0609 61.2426 23.2002 62.9544 20.4712C67.7177 13.5247 71.2778 10.0514 73.6347 10.0514C74.0068 10.0514 74.1929 10.1879 74.1929 10.4608C74.1929 10.6841 73.982 10.8577 73.5602 10.9818C72.9648 11.1554 72.6299 11.2671 72.5555 11.3167C70.5708 12.4827 68.4 15.1993 66.0431 19.4664C65.026 21.3271 63.6615 23.9941 61.9496 27.4673C60.4859 30.4692 59.7044 32.119 59.6052 32.4167C59.6052 32.6152 59.7789 32.7144 60.1262 32.7144C60.151 32.7144 60.2626 32.702 60.4611 32.6772C60.6844 32.6524 60.8953 32.64 61.0937 32.64L62.0613 32.6028C62.5078 32.578 63.2025 32.6524 64.1452 32.8261C65.088 32.9997 65.7826 33.0866 66.2292 33.0866C66.9735 33.0866 67.482 32.8509 67.7549 32.3795C69.6404 29.1543 71.5507 26.1649 73.4858 23.4111C76.2644 19.4168 78.3732 16.5762 79.8121 14.8892C82.8636 11.2671 85.791 8.66214 88.5945 7.07437C89.9093 6.3301 91.1994 5.95797 92.4647 5.95797C93.5562 5.95797 94.102 6.28048 94.102 6.92552ZM61.3542 9.6421C61.3542 9.14592 61.2426 8.87302 61.0193 8.8234C60.151 8.60012 58.6873 8.48848 56.6281 8.48848C48.8133 8.48848 43.1569 11.3043 39.6588 16.9359C38.7161 18.4493 38.2943 19.851 38.3936 21.141C38.468 21.2651 38.592 21.3271 38.7657 21.3271C39.1874 21.3271 39.8325 21.2155 40.7008 20.9922C41.5691 20.7441 42.2265 20.6201 42.6731 20.6201C44.4345 20.6201 45.861 21.2527 46.9526 22.5179C47.3744 23.0141 47.9326 23.9941 48.6272 25.4578C51.381 24.2422 54.1844 21.8481 57.0375 18.2756C58.6501 16.2661 59.8161 14.3558 60.5355 12.5447C61.0813 11.1803 61.3542 10.2127 61.3542 9.6421ZM47.5853 25.9788C46.717 23.0265 45.1416 21.5504 42.8592 21.5504C40.6512 21.5504 39.113 22.1334 38.2447 23.2994C38.6416 25.9788 40.279 27.3185 43.1569 27.3185C45.216 27.3185 46.6921 26.8719 47.5853 25.9788Z" fill="black"></path></svg> 