<?xml version="1.0" encoding="UTF-8"?> <svg xmlns="http://www.w3.org/2000/svg" width="430" height="188" viewBox="0 0 430 188" fill="none"><path d="M129.302 21.245C145.182 21.245 156.319 31.5922 156.319 46.3945C156.319 60.4063 144.679 71.5439 129.302 71.5439H109.254V71.2565C109.613 69.3883 109.613 68.526 109.613 63.9991V28.7899C109.613 24.263 109.613 23.4007 109.254 21.5325V21.245H129.302ZM115.721 69.3883H128.655C142.523 69.3883 150.068 57.4602 150.068 45.5322C150.068 33.1012 141.517 23.4007 128.655 23.4007H115.721V69.3883ZM182.063 21.245C194.063 21.245 200.89 25.9156 200.89 33.1012C200.89 39.5682 195.357 43.4484 185.656 44.0233L195.788 59.4003C200.961 67.3045 204.051 70.035 205.848 70.6098L205.776 71.6877C198.878 72.9811 194.566 68.023 191.045 62.7057L178.111 43.3047L178.614 42.3706H180.123C189.393 42.3706 194.638 38.7059 194.638 32.7419C194.638 26.4905 189.393 23.4007 179.98 23.4007H171.788V63.9991C171.788 68.526 171.788 69.3883 172.291 71.2565V71.5439H165.321V71.2565C165.68 69.3883 165.68 68.526 165.68 63.9991V28.7899C165.68 24.263 165.68 23.4007 165.321 21.5325V21.245H182.063ZM213.389 21.245H220.215V21.5325C219.856 23.4007 219.856 24.263 219.856 28.7899V63.9991C219.856 68.526 219.856 69.3883 220.215 71.2565V71.5439H213.389V71.2565C213.748 69.3883 213.748 68.526 213.748 63.9991V28.7899C213.748 24.263 213.748 23.4007 213.389 21.5325V21.245ZM233.879 20.8858H235.244L268.729 61.053V28.7899C268.729 24.263 268.729 23.4007 268.226 21.5325V21.245H271.244V21.5325C270.884 23.4007 270.884 24.263 270.884 28.7899V65.0769C270.884 68.8853 270.884 69.7476 271.244 71.9032H269.878L236.394 31.7359V63.9991C236.394 68.526 236.394 69.3883 236.897 71.2565V71.5439H233.879V71.2565C234.238 69.3883 234.238 68.526 234.238 63.9991V27.712C234.238 23.9037 234.238 23.0414 233.879 20.8858ZM284.893 21.245H291.863V21.5325C291.36 23.4007 291.36 24.263 291.36 28.7899V43.3047L306.881 28.7899C311.408 24.6222 313.133 22.754 313.707 21.5325L313.851 21.245H317.947V21.4606C316.007 22.8259 314.282 24.5504 309.827 28.7899L302.426 35.8317L316.007 58.8974C320.677 66.8733 323.695 69.8913 325.42 70.6098L325.348 71.6877C318.378 72.5499 314.282 67.3045 311.121 61.9153L297.971 39.8556L291.36 46.0352V63.9991C291.36 68.526 291.36 69.3883 291.863 71.2565V71.5439H284.893V71.2565C285.253 69.3883 285.253 68.526 285.253 63.9991V28.7899C285.253 24.263 285.253 23.4007 284.893 21.5325V21.245Z" fill="#BC9D89" fill-opacity="0.08"></path><path d="M129.082 159.385C128.682 159.385 128.342 159.555 128.062 159.895C127.782 160.235 127.592 160.605 127.492 161.005L122.032 179.005L117.352 164.245L112.672 179.035L107.182 161.035C107.082 160.655 106.902 160.285 106.642 159.925C106.402 159.565 106.122 159.385 105.802 159.385V159.085H110.062V159.385C109.802 159.385 109.582 159.495 109.402 159.715C109.242 159.915 109.162 160.175 109.162 160.495C109.162 160.595 109.182 160.725 109.222 160.885L113.122 173.605L117.892 158.905L122.482 173.575L126.442 160.885C126.442 160.845 126.452 160.765 126.472 160.645C126.512 160.505 126.532 160.395 126.532 160.315C126.532 160.035 126.452 159.815 126.292 159.655C126.132 159.475 125.972 159.385 125.812 159.385V159.085H129.082V159.385ZM130.872 178.585H131.022C131.182 178.585 131.322 178.535 131.442 178.435C131.562 178.315 131.662 178.175 131.742 178.015C131.842 177.855 131.912 177.685 131.952 177.505C132.012 177.325 132.042 177.155 132.042 176.995V160.945C132.042 160.805 132.012 160.645 131.952 160.465C131.912 160.285 131.842 160.115 131.742 159.955C131.662 159.795 131.562 159.665 131.442 159.565C131.322 159.445 131.182 159.385 131.022 159.385H130.872V159.085H142.422V161.875H142.122C142.082 161.415 141.902 161.015 141.582 160.675C141.262 160.315 140.762 160.135 140.082 160.135H134.052V167.725H139.032C139.492 167.725 139.872 167.585 140.172 167.305C140.492 167.025 140.652 166.695 140.652 166.315H140.952V170.065H140.652C140.652 169.705 140.502 169.395 140.202 169.135C139.902 168.875 139.512 168.745 139.032 168.745H134.052V177.835H140.622C141.002 177.835 141.332 177.745 141.612 177.565C141.892 177.385 142.122 177.175 142.302 176.935C142.502 176.675 142.642 176.405 142.722 176.125C142.822 175.825 142.872 175.575 142.872 175.375H143.172V178.885H130.872V178.585ZM145.433 178.585H145.583C145.743 178.585 145.883 178.535 146.003 178.435C146.123 178.315 146.223 178.175 146.303 178.015C146.403 177.855 146.473 177.685 146.513 177.505C146.573 177.325 146.603 177.155 146.603 176.995V160.945C146.603 160.805 146.573 160.645 146.513 160.465C146.473 160.285 146.403 160.115 146.303 159.955C146.223 159.795 146.123 159.665 146.003 159.565C145.883 159.445 145.743 159.385 145.583 159.385H145.433V159.085H149.753V159.385H149.603C149.443 159.385 149.303 159.445 149.183 159.565C149.063 159.665 148.963 159.795 148.883 159.955C148.803 160.115 148.733 160.285 148.673 160.465C148.633 160.645 148.613 160.805 148.613 160.945V177.775H155.183C155.563 177.775 155.893 177.685 156.173 177.505C156.453 177.325 156.683 177.105 156.863 176.845C157.063 176.565 157.203 176.275 157.283 175.975C157.383 175.655 157.433 175.365 157.433 175.105H157.733V178.885H145.433V178.585ZM168.59 159.865C167.11 159.865 165.82 160.135 164.72 160.675C163.64 161.195 162.74 161.885 162.02 162.745C161.3 163.585 160.76 164.535 160.4 165.595C160.06 166.655 159.89 167.705 159.89 168.745C159.89 169.925 160.12 171.085 160.58 172.225C161.04 173.345 161.67 174.345 162.47 175.225C163.29 176.085 164.24 176.785 165.32 177.325C166.4 177.845 167.57 178.105 168.83 178.105C169.19 178.105 169.61 178.065 170.09 177.985C170.59 177.905 171.08 177.755 171.56 177.535C172.04 177.295 172.48 176.965 172.88 176.545C173.3 176.125 173.62 175.575 173.84 174.895H174.14V178.225C173.84 178.225 173.52 178.265 173.18 178.345C172.86 178.425 172.5 178.515 172.1 178.615C171.58 178.755 171 178.885 170.36 179.005C169.74 179.125 169.08 179.185 168.38 179.185C166.64 179.185 165.11 178.885 163.79 178.285C162.47 177.685 161.37 176.905 160.49 175.945C159.61 174.985 158.95 173.905 158.51 172.705C158.07 171.485 157.85 170.255 157.85 169.015C157.85 167.775 158.07 166.545 158.51 165.325C158.95 164.105 159.62 163.015 160.52 162.055C161.42 161.075 162.55 160.285 163.91 159.685C165.27 159.085 166.87 158.785 168.71 158.785C169.37 158.785 169.96 158.845 170.48 158.965C171.02 159.085 171.5 159.205 171.92 159.325C172.22 159.425 172.49 159.505 172.73 159.565C172.99 159.605 173.24 159.625 173.48 159.625V162.955H173.18C173.06 162.335 172.84 161.825 172.52 161.425C172.2 161.005 171.82 160.685 171.38 160.465C170.96 160.245 170.5 160.095 170 160.015C169.52 159.915 169.05 159.865 168.59 159.865ZM185.484 158.785C187.044 158.785 188.444 159.065 189.684 159.625C190.924 160.165 191.974 160.905 192.834 161.845C193.714 162.765 194.384 163.845 194.844 165.085C195.324 166.305 195.564 167.585 195.564 168.925C195.564 170.425 195.284 171.805 194.724 173.065C194.184 174.325 193.434 175.405 192.474 176.305C191.514 177.205 190.394 177.915 189.114 178.435C187.854 178.935 186.504 179.185 185.064 179.185C183.524 179.185 182.134 178.905 180.894 178.345C179.674 177.785 178.634 177.045 177.774 176.125C176.934 175.205 176.284 174.145 175.824 172.945C175.364 171.745 175.134 170.495 175.134 169.195C175.134 167.915 175.364 166.655 175.824 165.415C176.284 164.155 176.954 163.035 177.834 162.055C178.734 161.075 179.824 160.285 181.104 159.685C182.384 159.085 183.844 158.785 185.484 158.785ZM185.454 178.135C186.794 178.075 187.964 177.775 188.964 177.235C189.984 176.675 190.834 175.975 191.514 175.135C192.194 174.275 192.694 173.335 193.014 172.315C193.354 171.295 193.524 170.285 193.524 169.285C193.524 168.185 193.324 167.075 192.924 165.955C192.524 164.835 191.954 163.825 191.214 162.925C190.474 162.005 189.584 161.265 188.544 160.705C187.524 160.125 186.374 159.835 185.094 159.835C183.854 159.835 182.744 160.115 181.764 160.675C180.784 161.215 179.944 161.915 179.244 162.775C178.564 163.635 178.044 164.595 177.684 165.655C177.324 166.715 177.144 167.755 177.144 168.775C177.144 169.875 177.354 170.985 177.774 172.105C178.194 173.205 178.774 174.205 179.514 175.105C180.254 176.005 181.124 176.735 182.124 177.295C183.144 177.855 184.254 178.135 185.454 178.135ZM214.336 178.585H214.486C214.626 178.585 214.756 178.525 214.876 178.405C214.996 178.285 215.096 178.145 215.176 177.985C215.276 177.825 215.346 177.655 215.386 177.475C215.426 177.275 215.446 177.095 215.446 176.935V161.155L207.706 179.215L200.356 162.085V176.935C200.356 177.095 200.376 177.275 200.416 177.475C200.456 177.655 200.516 177.825 200.596 177.985C200.696 178.145 200.806 178.285 200.926 178.405C201.046 178.525 201.186 178.585 201.346 178.585H201.496V178.885H198.226V178.585H198.376C198.516 178.585 198.646 178.525 198.766 178.405C198.886 178.285 198.986 178.145 199.066 177.985C199.146 177.825 199.206 177.655 199.246 177.475C199.286 177.275 199.306 177.095 199.306 176.935V160.945C199.306 160.805 199.286 160.645 199.246 160.465C199.206 160.285 199.146 160.115 199.066 159.955C198.986 159.795 198.886 159.665 198.766 159.565C198.646 159.445 198.516 159.385 198.376 159.385H198.226V159.085H201.286L208.246 175.495L215.206 159.085H218.596V159.385H218.446C218.286 159.385 218.146 159.445 218.026 159.565C217.906 159.665 217.796 159.795 217.696 159.955C217.616 160.115 217.556 160.285 217.516 160.465C217.476 160.645 217.456 160.805 217.456 160.945V176.935C217.456 177.095 217.476 177.275 217.516 177.475C217.556 177.655 217.616 177.825 217.696 177.985C217.796 178.145 217.906 178.285 218.026 178.405C218.146 178.525 218.286 178.585 218.446 178.585H218.596V178.885H214.336V178.585ZM221.517 178.585H221.667C221.827 178.585 221.967 178.535 222.087 178.435C222.207 178.315 222.307 178.175 222.387 178.015C222.487 177.855 222.557 177.685 222.597 177.505C222.657 177.325 222.687 177.155 222.687 176.995V160.945C222.687 160.805 222.657 160.645 222.597 160.465C222.557 160.285 222.487 160.115 222.387 159.955C222.307 159.795 222.207 159.665 222.087 159.565C221.967 159.445 221.827 159.385 221.667 159.385H221.517V159.085H233.067V161.875H232.767C232.727 161.415 232.547 161.015 232.227 160.675C231.907 160.315 231.407 160.135 230.727 160.135H224.697V167.725H229.677C230.137 167.725 230.517 167.585 230.817 167.305C231.137 167.025 231.297 166.695 231.297 166.315H231.597V170.065H231.297C231.297 169.705 231.147 169.395 230.847 169.135C230.547 168.875 230.157 168.745 229.677 168.745H224.697V177.835H231.267C231.647 177.835 231.977 177.745 232.257 177.565C232.537 177.385 232.767 177.175 232.947 176.935C233.147 176.675 233.287 176.405 233.367 176.125C233.467 175.825 233.517 175.575 233.517 175.375H233.817V178.885H221.517V178.585ZM243.84 178.585H243.99C244.13 178.585 244.26 178.525 244.38 178.405C244.5 178.285 244.6 178.145 244.68 177.985C244.78 177.825 244.85 177.655 244.89 177.475C244.93 177.275 244.95 177.095 244.95 176.935V160.945C244.95 160.805 244.93 160.645 244.89 160.465C244.85 160.285 244.79 160.115 244.71 159.955C244.63 159.795 244.53 159.665 244.41 159.565C244.29 159.445 244.15 159.385 243.99 159.385H243.84V159.085H249.63C251.21 159.085 252.63 159.365 253.89 159.925C255.15 160.465 256.21 161.205 257.07 162.145C257.95 163.065 258.62 164.125 259.08 165.325C259.54 166.525 259.77 167.775 259.77 169.075C259.77 170.295 259.55 171.495 259.11 172.675C258.67 173.835 258.01 174.875 257.13 175.795C256.25 176.715 255.15 177.465 253.83 178.045C252.51 178.605 250.98 178.885 249.24 178.885H243.84V178.585ZM257.73 169.525C257.73 168.245 257.5 167.035 257.04 165.895C256.58 164.755 255.93 163.765 255.09 162.925C254.27 162.065 253.29 161.385 252.15 160.885C251.03 160.385 249.81 160.135 248.49 160.135H246.96V177.835H248.55C249.63 177.835 250.71 177.675 251.79 177.355C252.89 177.015 253.88 176.505 254.76 175.825C255.64 175.125 256.35 174.255 256.89 173.215C257.45 172.175 257.73 170.945 257.73 169.525ZM266.437 178.585H266.587V178.885H262.357V178.585H262.507C262.647 178.585 262.777 178.525 262.897 178.405C263.017 178.285 263.117 178.145 263.197 177.985C263.297 177.825 263.367 177.655 263.407 177.475C263.447 177.275 263.467 177.095 263.467 176.935V160.945C263.467 160.805 263.447 160.645 263.407 160.465C263.367 160.285 263.297 160.115 263.197 159.955C263.117 159.795 263.017 159.665 262.897 159.565C262.777 159.445 262.647 159.385 262.507 159.385H262.357V159.085H267.577C269.577 159.085 271.117 159.475 272.197 160.255C273.297 161.035 273.847 162.185 273.847 163.705C273.847 164.465 273.717 165.135 273.457 165.715C273.217 166.275 272.887 166.765 272.467 167.185C272.047 167.585 271.547 167.915 270.967 168.175C270.407 168.415 269.807 168.595 269.167 168.715L271.327 172.015C271.847 172.815 272.377 173.605 272.917 174.385C273.457 175.145 273.987 175.935 274.507 176.755C274.647 176.955 274.797 177.165 274.957 177.385C275.137 177.605 275.317 177.805 275.497 177.985C275.697 178.165 275.897 178.315 276.097 178.435C276.317 178.535 276.537 178.585 276.757 178.585V178.885H275.467C274.667 178.885 274.007 178.695 273.487 178.315C272.987 177.915 272.567 177.455 272.227 176.935C271.327 175.615 270.427 174.275 269.527 172.915C268.647 171.555 267.767 170.215 266.887 168.895C266.667 168.875 266.427 168.855 266.167 168.835C265.927 168.795 265.697 168.755 265.477 168.715V176.935C265.477 177.095 265.497 177.275 265.537 177.475C265.577 177.655 265.637 177.825 265.717 177.985C265.817 178.145 265.917 178.285 266.017 178.405C266.137 178.525 266.277 178.585 266.437 178.585ZM265.477 160.105V167.725H265.627C265.787 167.745 266.037 167.765 266.377 167.785C266.737 167.785 267.177 167.785 267.697 167.785C268.117 167.785 268.557 167.725 269.017 167.605C269.497 167.465 269.937 167.245 270.337 166.945C270.757 166.625 271.097 166.215 271.357 165.715C271.637 165.215 271.777 164.585 271.777 163.825C271.777 163.065 271.627 162.445 271.327 161.965C271.047 161.485 270.647 161.105 270.127 160.825C269.627 160.545 269.017 160.355 268.297 160.255C267.577 160.155 266.787 160.105 265.927 160.105H265.477ZM278.678 159.085H282.968V159.385H282.818C282.678 159.385 282.548 159.445 282.428 159.565C282.308 159.665 282.208 159.795 282.128 159.955C282.048 160.095 281.978 160.265 281.918 160.465C281.878 160.645 281.858 160.805 281.858 160.945V176.935C281.858 177.095 281.878 177.275 281.918 177.475C281.958 177.655 282.018 177.825 282.098 177.985C282.198 178.145 282.298 178.285 282.398 178.405C282.518 178.525 282.658 178.585 282.818 178.585H282.968V178.885H278.678V178.585H278.828C278.988 178.585 279.128 178.535 279.248 178.435C279.368 178.315 279.468 178.175 279.548 178.015C279.648 177.835 279.718 177.655 279.758 177.475C279.798 177.275 279.818 177.095 279.818 176.935V160.945C279.818 160.805 279.798 160.645 279.758 160.465C279.718 160.285 279.648 160.115 279.548 159.955C279.468 159.795 279.368 159.665 279.248 159.565C279.128 159.445 278.988 159.385 278.828 159.385H278.678V159.085ZM289.003 178.585H289.153V178.885H285.823V178.585H285.973C286.113 178.585 286.243 178.525 286.363 178.405C286.503 178.285 286.613 178.145 286.693 177.985C286.773 177.825 286.833 177.655 286.873 177.475C286.933 177.275 286.963 177.095 286.963 176.935V160.945C286.963 160.805 286.943 160.645 286.903 160.465C286.883 160.285 286.833 160.115 286.753 159.955C286.673 159.795 286.563 159.665 286.423 159.565C286.283 159.445 286.113 159.385 285.913 159.385H285.763V159.085H288.793L299.683 176.245V160.945C299.683 160.805 299.653 160.645 299.593 160.465C299.553 160.285 299.483 160.115 299.383 159.955C299.303 159.795 299.203 159.665 299.083 159.565C298.963 159.445 298.823 159.385 298.663 159.385H298.513V159.085H301.873V159.385H301.723C301.563 159.385 301.423 159.445 301.303 159.565C301.183 159.665 301.073 159.795 300.973 159.955C300.893 160.115 300.833 160.285 300.793 160.465C300.753 160.645 300.733 160.805 300.733 160.945V178.885H298.873L288.013 161.665V176.935C288.013 177.095 288.033 177.275 288.073 177.475C288.113 177.655 288.173 177.825 288.253 177.985C288.353 178.145 288.463 178.285 288.583 178.405C288.703 178.525 288.843 178.585 289.003 178.585ZM308.831 178.585H308.981V178.885H304.691V178.585H304.841C305.001 178.585 305.141 178.525 305.261 178.405C305.381 178.285 305.481 178.145 305.561 177.985C305.661 177.825 305.731 177.655 305.771 177.475C305.811 177.275 305.831 177.095 305.831 176.935V160.945C305.831 160.805 305.811 160.645 305.771 160.465C305.731 160.285 305.661 160.115 305.561 159.955C305.481 159.795 305.381 159.665 305.261 159.565C305.141 159.445 305.011 159.385 304.871 159.385H304.721V159.085H309.011V159.385H308.861C308.701 159.385 308.561 159.445 308.441 159.565C308.321 159.665 308.211 159.795 308.111 159.955C308.031 160.115 307.961 160.285 307.901 160.465C307.861 160.645 307.841 160.805 307.841 160.945V167.905L315.461 160.345C315.581 160.205 315.641 160.045 315.641 159.865C315.641 159.545 315.521 159.385 315.281 159.385H315.131V159.085H318.791V159.385H318.641C318.361 159.385 318.071 159.485 317.771 159.685C317.471 159.885 317.171 160.135 316.871 160.435L310.571 166.705L317.201 176.755C317.221 176.795 317.311 176.915 317.471 177.115C317.631 177.315 317.821 177.525 318.041 177.745C318.281 177.965 318.541 178.165 318.821 178.345C319.121 178.505 319.421 178.585 319.721 178.585V178.885H319.001C318.401 178.885 317.891 178.855 317.471 178.795C317.071 178.715 316.721 178.595 316.421 178.435C316.121 178.275 315.851 178.075 315.611 177.835C315.391 177.595 315.161 177.295 314.921 176.935L309.101 168.145L307.841 169.435V176.935C307.841 177.095 307.861 177.265 307.901 177.445C307.961 177.625 308.031 177.805 308.111 177.985C308.191 178.145 308.291 178.285 308.411 178.405C308.531 178.525 308.671 178.585 308.831 178.585Z" fill="#FFFCF4"></path><path d="M194.898 47.016C195.337 47.4905 195.812 47.8948 196.251 48.2287C198.009 49.5821 199.643 50.8299 201.137 51.9724C204.125 54.2045 206.533 56.1554 208.554 57.0518C210.54 57.9833 211.788 57.9833 211.806 57.8251C211.841 57.6318 210.733 57.333 209.011 56.2081C207.289 55.136 205.109 53.0445 202.227 50.619C200.803 49.4063 199.221 48.0881 197.552 46.6645C197.13 46.313 196.761 45.9614 196.427 45.5924C196.269 45.4166 196.128 45.2233 196.023 45.0475C195.97 44.9596 195.987 44.9596 195.97 44.9069C195.97 44.8718 195.987 44.8366 196.023 44.819C196.04 44.819 196.058 44.8014 196.075 44.8014L196.251 44.7663C196.655 44.6608 197.253 44.6433 197.886 44.5905C202.772 44.2566 208.185 44.3972 213.95 44.3972C216.815 44.3796 219.592 44.3445 222.298 44.3269C223.634 44.3269 224.952 44.3621 226.218 44.4148C226.85 44.4499 227.483 44.4851 228.098 44.5378L228.995 44.6081H229.065C229.118 44.6081 229.17 44.6608 229.118 44.7136L229.03 44.8366L228.467 45.4693C227.694 46.313 226.903 47.1214 226.13 47.8772C224.583 49.4063 223.072 50.7772 221.683 52.0251C220.295 53.273 219.029 54.4154 217.922 55.4172C216.885 56.4366 215.883 57.0166 214.952 57.333C213.071 57.913 211.858 57.579 211.841 57.8075C211.788 57.8954 212.913 58.5984 215.18 58.2645C216.287 58.0887 217.623 57.456 218.818 56.4718C219.996 55.5578 221.332 54.5033 222.826 53.3608C224.302 52.1833 225.901 50.8651 227.553 49.3711C228.38 48.6154 229.223 47.8245 230.067 46.9633L230.717 46.2954L231.701 45.0651C232.317 44.3093 231.895 43.0966 230.998 42.7099C230.559 42.4639 229.961 42.3936 229.346 42.3233L228.309 42.2354C227.659 42.1651 227.009 42.1124 226.358 42.0772C225.04 41.9893 223.687 41.9366 222.333 41.919C219.609 41.8663 216.797 41.9366 213.95 41.9366C208.255 41.9366 202.737 41.8663 197.727 42.3233L196.796 42.4111C196.444 42.4639 196.11 42.499 195.724 42.6045C195.566 42.6396 195.32 42.7099 195.038 42.8505C194.775 42.956 194.564 43.1318 194.353 43.3075C193.966 43.6766 193.72 44.1863 193.755 44.7311C193.738 45.2584 194.001 45.8033 194.247 46.1899C194.458 46.5063 194.669 46.7699 194.898 47.016ZM177.023 70.7433C176.76 70.8487 176.549 71.0245 176.338 71.2002C175.951 71.5693 175.705 72.079 175.74 72.6239C175.723 73.1511 175.986 73.696 176.232 74.0827C176.443 74.399 176.672 74.6627 176.883 74.8911C177.322 75.3657 177.797 75.7699 178.236 76.1039C179.993 77.4572 181.628 78.7051 183.122 79.8475C186.11 82.0796 188.518 84.0305 190.539 84.9269C192.525 85.8584 193.773 85.8584 193.79 85.7002C193.826 85.5069 192.718 85.2081 190.996 84.0833C189.273 83.0112 187.094 80.9196 184.212 78.4942C182.788 77.2815 181.206 75.9633 179.537 74.5396C179.115 74.1881 178.746 73.8366 178.412 73.4675C178.253 73.2918 178.113 73.0984 178.007 72.9227C177.955 72.8348 177.972 72.8348 177.955 72.7821C177.955 72.7469 177.972 72.7118 178.007 72.6942C178.025 72.6942 178.043 72.6766 178.06 72.6766L178.236 72.6415C178.64 72.536 179.238 72.5184 179.87 72.4657C184.757 72.1318 190.17 72.2724 195.935 72.2724C198.8 72.2548 201.577 72.2196 204.283 72.2021C205.619 72.2021 206.937 72.2372 208.203 72.2899C208.835 72.3251 209.468 72.3602 210.083 72.413L210.98 72.4833H211.05C211.103 72.4833 211.155 72.536 211.103 72.5887L211.015 72.7118L210.452 73.3445C209.661 74.1881 208.888 74.9966 208.115 75.7524C206.568 77.2815 205.057 78.6524 203.668 79.9002C202.28 81.1657 201.014 82.2905 199.907 83.2924C198.87 84.3118 197.868 84.8918 196.937 85.2081C195.056 85.7881 193.843 85.4542 193.826 85.6827C193.808 85.7354 194.054 85.9112 194.546 86.0518C194.001 86.6845 193.597 89.0924 193.597 91.9748C193.597 95.3493 194.142 98.0736 194.827 98.0736C195.513 98.0736 196.058 95.3493 196.058 91.9748C196.058 89.2505 195.689 86.9657 195.197 86.1748C195.706 86.2451 196.374 86.2627 197.165 86.1396C198.272 85.9639 199.608 85.3311 200.803 84.3469C201.981 83.433 203.317 82.3784 204.81 81.236C206.287 80.0584 207.886 78.7402 209.538 77.2463C210.364 76.4905 211.208 75.6996 212.052 74.8384L212.509 74.3639C212.649 74.5396 212.79 74.733 212.93 74.8736C213.37 75.3481 213.844 75.7524 214.284 76.0863C216.041 77.4396 217.676 78.6875 219.17 79.8299C222.158 82.0621 224.566 84.013 226.587 84.9093C228.573 85.8408 229.821 85.8408 229.838 85.6827C229.873 85.4893 228.766 85.1905 227.044 84.0657C225.321 82.9936 223.142 80.9021 220.26 78.4766C218.836 77.2639 217.254 75.9457 215.584 74.5221C215.163 74.1705 214.793 73.819 214.46 73.4499C214.301 73.2742 214.161 73.0808 214.055 72.9051C214.003 72.8172 214.02 72.8172 214.003 72.7645C214.003 72.7293 214.02 72.6942 214.055 72.6766C214.073 72.6766 214.09 72.659 214.108 72.659L214.284 72.6239C214.688 72.5184 215.286 72.5008 215.918 72.4481C220.804 72.1142 226.218 72.2548 231.983 72.2548C234.847 72.2372 237.624 72.2021 240.331 72.1845C241.667 72.1845 242.985 72.2196 244.25 72.2724C244.883 72.3075 245.516 72.3427 246.131 72.3954L247.027 72.4657H247.098C247.15 72.4657 247.203 72.5184 247.15 72.5711L247.063 72.6942L246.5 73.3269C245.709 74.1705 244.936 74.979 244.163 75.7348C242.616 77.2639 241.104 78.6348 239.716 79.8827C238.327 81.1481 237.062 82.273 235.955 83.2748C234.918 84.2942 233.916 84.8742 232.984 85.1905C231.104 85.7705 229.891 85.4366 229.873 85.6651C229.856 85.7178 230.102 85.8936 230.594 86.0342C230.049 86.6669 229.645 89.0748 229.645 91.9572C229.645 95.3318 230.19 98.056 230.875 98.056C231.561 98.056 232.106 95.3318 232.106 91.9572C232.106 89.233 231.737 86.9481 231.244 86.1572C231.754 86.2275 232.404 86.2451 233.213 86.1221C234.32 85.9463 235.656 85.3136 236.851 84.3293C238.029 83.4154 239.364 82.3608 240.858 81.2184C242.335 80.0408 243.934 78.7227 245.586 77.2287C246.412 76.473 247.256 75.6821 248.1 74.8208L248.75 74.153L249.734 72.9227C250.349 72.1669 249.927 70.9542 249.031 70.5675C248.592 70.3214 247.994 70.2511 247.379 70.1808L246.377 70.0754C245.727 70.0051 245.077 69.9524 244.426 69.9172C243.108 69.8293 241.755 69.7766 240.401 69.759C237.677 69.7063 234.865 69.7766 232.018 69.7766C226.323 69.7766 220.804 69.7063 215.795 70.1633L214.864 70.2511C214.653 70.2863 214.442 70.3039 214.231 70.339C214.653 69.3548 214.934 67.2808 214.934 64.8378C214.934 61.4633 214.389 58.739 213.704 58.739C213.018 58.739 212.473 61.4633 212.473 64.8378C212.473 67.5269 212.825 69.7766 213.317 70.6027C213.264 70.6202 213.212 70.6378 213.159 70.673C213.106 70.6378 213.071 70.5851 213.001 70.5499C212.561 70.3039 211.964 70.2336 211.349 70.1633L210.347 70.0578C209.697 69.9875 209.046 69.9348 208.396 69.8996C207.078 69.8118 205.724 69.759 204.371 69.7414C201.647 69.6887 198.835 69.759 195.987 69.759C190.293 69.759 184.774 69.6887 179.765 70.1457L178.833 70.2336C178.482 70.2863 178.148 70.3214 177.761 70.4269C177.55 70.5324 177.304 70.6202 177.023 70.7433Z" fill="#FFFCF4"></path><path d="M266.976 98.882C266.537 98.636 265.939 98.5657 265.324 98.4954L264.322 98.3899C263.672 98.3196 263.021 98.2669 262.371 98.2317C261.053 98.1439 259.7 98.0911 258.346 98.0736C255.622 98.0208 252.81 98.0911 249.963 98.0911C244.268 98.0911 238.749 98.0208 233.74 98.4778L232.809 98.5657C232.457 98.6184 232.123 98.6536 231.737 98.759C231.596 98.7942 231.367 98.8645 231.121 98.9699C231.069 98.9348 231.034 98.882 230.963 98.8469C230.524 98.6008 229.926 98.5305 229.311 98.4602L228.309 98.3548C227.659 98.2845 227.009 98.2317 226.358 98.1966C225.04 98.1087 223.687 98.056 222.333 98.0384C219.609 97.9857 216.797 98.056 213.95 98.056C208.255 98.056 202.737 97.9857 197.727 98.4426L196.796 98.5305C196.444 98.5833 196.11 98.6184 195.724 98.7239C195.583 98.759 195.355 98.8293 195.109 98.9348C195.056 98.8996 195.021 98.8469 194.95 98.8117C194.511 98.5657 193.913 98.4954 193.298 98.4251L192.297 98.3196C191.646 98.2493 190.996 98.1966 190.346 98.1614C189.027 98.0736 187.674 98.0208 186.321 98.0033C183.597 97.9505 180.784 98.0208 177.937 98.0208C172.243 98.0208 166.724 97.9505 161.715 98.4075L160.783 98.5833C160.432 98.636 160.098 98.6711 159.711 98.7766C159.553 98.8117 159.307 98.882 159.026 99.0226C158.762 99.1281 158.551 99.3039 158.34 99.4796C157.953 99.8487 157.707 100.358 157.743 100.903C157.725 101.431 157.989 101.975 158.235 102.362C158.446 102.678 158.674 102.942 158.885 103.171C159.324 103.645 159.799 104.049 160.238 104.383C161.996 105.737 163.63 106.984 165.124 108.127C168.112 110.359 170.52 112.31 172.541 113.206C174.527 114.138 175.775 114.138 175.793 113.98C175.828 113.786 174.721 113.487 172.998 112.363C171.276 111.291 169.097 109.199 166.214 106.774C164.79 105.561 163.209 104.243 161.539 102.819C161.117 102.467 160.748 102.116 160.414 101.747C160.256 101.571 160.115 101.378 160.01 101.202C159.957 101.114 159.975 101.114 159.957 101.061C159.957 101.026 159.975 100.991 160.01 100.974C160.027 100.974 160.045 100.956 160.063 100.956L160.238 100.921C160.643 100.815 161.24 100.798 161.873 100.745C166.759 100.411 172.172 100.552 177.937 100.552C180.802 100.534 183.579 100.499 186.286 100.481C187.621 100.481 188.94 100.517 190.205 100.569C190.838 100.604 191.47 100.64 192.086 100.692L192.982 100.763H193.052C193.105 100.763 193.158 100.815 193.105 100.868L193.017 100.991L192.455 101.624C191.681 102.467 190.89 103.276 190.117 104.032C188.57 105.561 187.059 106.932 185.67 108.18C184.282 109.445 183.017 110.57 181.909 111.572C180.872 112.591 179.87 113.171 178.939 113.487C177.058 114.067 175.846 113.734 175.828 113.962C175.81 114.015 176.057 114.191 176.584 114.349C176.021 115.227 175.6 119.024 175.6 123.594C175.6 128.321 176.057 132.241 176.654 132.909H176.197C172.559 132.909 169.624 133.454 169.624 134.139C169.624 134.824 172.577 135.369 176.197 135.369C179.818 135.369 182.77 134.824 182.77 134.139C182.77 133.506 180.24 132.997 177.006 132.926C177.603 132.276 178.06 128.357 178.06 123.594C178.06 119.2 177.673 115.509 177.129 114.472C177.656 114.542 178.324 114.56 179.167 114.437C180.275 114.261 181.61 113.628 182.806 112.644C183.983 111.73 185.319 110.675 186.813 109.533C188.289 108.355 189.889 107.037 191.541 105.543C192.367 104.787 193.21 103.997 194.054 103.135L194.511 102.661C194.652 102.837 194.792 103.03 194.933 103.171C195.372 103.645 195.847 104.049 196.286 104.383C198.044 105.737 199.678 106.984 201.172 108.127C204.16 110.359 206.568 112.31 208.589 113.206C210.575 114.138 211.823 114.138 211.841 113.98C211.876 113.786 210.769 113.487 209.046 112.363C207.324 111.291 205.144 109.199 202.262 106.774C200.838 105.561 199.257 104.243 197.587 102.819C197.165 102.467 196.796 102.116 196.462 101.747C196.304 101.571 196.163 101.378 196.058 101.202C196.005 101.114 196.023 101.114 196.005 101.061C196.005 101.026 196.023 100.991 196.058 100.974C196.075 100.974 196.093 100.956 196.11 100.956L196.286 100.921C196.69 100.815 197.288 100.798 197.921 100.745C202.807 100.411 208.22 100.552 213.985 100.552C216.85 100.534 219.627 100.499 222.333 100.481C223.669 100.481 224.987 100.517 226.253 100.569C226.886 100.604 227.518 100.64 228.133 100.692L229.03 100.763H229.1C229.153 100.763 229.206 100.815 229.153 100.868L229.065 100.991L228.503 101.624C227.729 102.467 226.938 103.276 226.165 104.032C224.618 105.561 223.107 106.932 221.718 108.18C220.33 109.445 219.064 110.57 217.957 111.572C216.92 112.591 215.918 113.171 214.987 113.487C213.106 114.067 211.893 113.734 211.876 113.962C211.858 114.015 212.104 114.191 212.632 114.349C212.069 115.227 211.647 119.024 211.647 123.594C211.647 128.796 212.192 133.032 212.878 133.032C213.563 133.032 214.108 128.814 214.108 123.594C214.108 119.2 213.721 115.509 213.177 114.472C213.704 114.542 214.372 114.56 215.215 114.437C216.323 114.261 217.658 113.628 218.853 112.644C220.031 111.73 221.367 110.675 222.861 109.533C224.337 108.355 225.937 107.037 227.589 105.543C228.415 104.787 229.258 103.997 230.102 103.135L230.559 102.661C230.7 102.837 230.84 103.03 230.981 103.171C231.42 103.645 231.895 104.049 232.334 104.383C234.092 105.737 235.726 106.984 237.22 108.127C240.208 110.359 242.616 112.31 244.637 113.206C246.623 114.138 247.871 114.138 247.889 113.98C247.924 113.786 246.817 113.487 245.094 112.363C243.372 111.291 241.192 109.199 238.31 106.774C236.886 105.561 235.304 104.243 233.635 102.819C233.213 102.467 232.844 102.116 232.51 101.747C232.352 101.571 232.211 101.378 232.106 101.202C232.053 101.114 232.07 101.114 232.053 101.061C232.053 101.026 232.07 100.991 232.106 100.974C232.123 100.974 232.141 100.956 232.158 100.956L232.334 100.921C232.738 100.815 233.336 100.798 233.969 100.745C238.855 100.411 244.268 100.552 250.033 100.552C252.898 100.534 255.675 100.499 258.381 100.481C259.717 100.481 261.035 100.517 262.301 100.569C262.933 100.604 263.566 100.64 264.181 100.692L265.078 100.763H265.148C265.201 100.763 265.253 100.815 265.201 100.868L265.113 100.991L264.55 101.624C263.76 102.467 262.986 103.276 262.213 104.032C260.666 105.561 259.155 106.932 257.766 108.18C256.378 109.445 255.112 110.57 254.005 111.572C252.968 112.591 251.966 113.171 251.035 113.487C249.154 114.067 247.941 113.734 247.924 113.962C247.906 114.015 248.152 114.191 248.68 114.349C248.117 115.227 247.695 119.024 247.695 123.594C247.695 128.796 248.24 133.032 248.926 133.032C249.611 133.032 250.156 128.814 250.156 123.594C250.156 119.2 249.769 115.509 249.224 114.472C249.752 114.542 250.42 114.56 251.263 114.437C252.37 114.261 253.706 113.628 254.901 112.644C256.079 111.73 257.415 110.675 258.909 109.533C260.385 108.355 261.984 107.037 263.637 105.543C264.463 104.787 265.306 103.997 266.15 103.135L266.8 102.467L267.784 101.237C268.277 100.481 267.855 99.2687 266.976 98.882Z" fill="#FFFCF4"></path><path d="M213.335 133.278C209.96 133.278 207.218 133.823 207.218 134.508C207.218 135.194 209.96 135.738 213.335 135.738C216.709 135.738 219.451 135.194 219.451 134.508C219.451 133.823 216.709 133.278 213.335 133.278ZM248.926 133.471C244.83 133.471 241.509 134.016 241.509 134.701C241.509 135.387 244.83 135.932 248.926 135.932C253.021 135.932 256.343 135.387 256.343 134.701C256.343 134.016 253.021 133.471 248.926 133.471ZM172.067 59.4596C172.401 59.5651 173.385 57.0869 174.967 54.2748C176.531 51.4451 178.13 49.3184 177.867 49.09C177.638 48.8615 175.547 50.7069 173.895 53.6772C172.225 56.63 171.75 59.3718 172.067 59.4596ZM170.239 52.3942C172.383 48.2639 175.248 45.6627 175.002 45.399C174.844 45.1354 171.434 47.4378 169.149 51.8318C166.829 56.2081 166.847 60.3209 167.163 60.3033C167.532 60.3384 168.042 56.5069 170.239 52.3942ZM259.155 88.4772C259.489 88.4948 259.84 85.9815 259.348 82.9233C258.873 79.8651 257.784 77.5803 257.467 77.7033C257.133 77.8263 257.678 80.1815 258.135 83.1166C258.592 86.0518 258.803 88.4772 259.155 88.4772ZM263.303 88.0554C263.619 88.073 263.988 84.6457 263.162 80.533C262.353 76.4027 260.701 73.3972 260.403 73.5378C260.069 73.6784 261.176 76.8069 261.949 80.779C262.758 84.7512 262.933 88.0554 263.303 88.0554Z" fill="#FFFCF4"></path></svg> 