<?xml version="1.0" encoding="UTF-8"?> <svg xmlns="http://www.w3.org/2000/svg" width="524" height="143" viewBox="0 0 524 143" fill="none"><path d="M46.9668 40.7383C47.4251 40.8633 47.2376 41.2591 46.4043 41.9258C45.571 42.5924 44.4043 43.3633 42.9043 44.2383C41.446 45.1133 40.0293 45.9466 38.6543 46.7383C37.0293 47.6549 35.9668 48.2799 35.4668 48.6133C32.6751 50.1133 29.8835 51.6133 27.0918 53.1133C23.6335 54.9466 20.1751 56.8216 16.7168 58.7383C16.5918 59.9049 16.0918 61.1549 15.2168 62.4883C13.9668 64.2383 12.4043 65.6133 10.5293 66.6133C8.6543 67.6133 6.67513 68.3216 4.5918 68.7383C4.3418 68.7383 4.05013 68.7799 3.7168 68.8633C3.0918 68.9883 2.4668 69.0091 1.8418 68.9258C1.17513 68.8841 0.758464 68.5508 0.591797 67.9258C1.55013 66.3008 2.88346 65.0091 4.5918 64.0508C5.0918 63.7591 5.55013 63.4466 5.9668 63.1133C7.9668 61.8216 9.98763 60.5716 12.0293 59.3633C12.321 58.4883 12.321 57.5508 12.0293 56.5508C11.6126 55.8008 11.1751 55.0299 10.7168 54.2383C9.3418 52.1549 8.38346 49.8633 7.8418 47.3633C7.2168 43.5716 7.50846 40.6133 8.7168 38.4883C9.92513 36.3633 11.3835 34.9466 13.0918 34.2383C14.8418 33.4883 16.2168 33.3008 17.2168 33.6758C18.2585 34.0091 18.2585 34.7799 17.2168 35.9883C15.0501 37.1133 13.6751 38.7799 13.0918 40.9883C12.5085 43.1549 12.5501 45.3424 13.2168 47.5508C13.6335 48.8424 14.1543 50.1133 14.7793 51.3633C15.7376 53.1549 16.3835 54.9466 16.7168 56.7383C18.2168 55.9466 19.7168 55.1341 21.2168 54.3008C21.8418 53.9674 22.4668 53.6341 23.0918 53.3008C25.2585 52.1341 27.446 50.9883 29.6543 49.8633C34.4043 47.4883 38.9876 44.9258 43.4043 42.1758C43.6543 42.0508 43.8835 41.9049 44.0918 41.7383C44.5501 41.4049 45.0085 41.1341 45.4668 40.9258C45.9251 40.7174 46.4251 40.6549 46.9668 40.7383ZM10.0293 62.5508C8.1543 63.5924 6.36263 64.7591 4.6543 66.0508C6.69596 65.1758 8.48763 64.0091 10.0293 62.5508ZM89.1543 40.6758C89.321 40.3841 89.5501 40.2591 89.8418 40.3008C90.1335 40.3424 90.3626 40.4883 90.5293 40.7383C90.696 40.9466 90.696 41.1966 90.5293 41.4883C89.321 43.1966 87.9251 44.7174 86.3418 46.0508C84.7585 47.3424 83.1126 48.5716 81.4043 49.7383C81.1126 49.9466 80.8418 50.1341 80.5918 50.3008C76.4668 53.1341 72.4876 55.3216 68.6543 56.8633C64.821 58.3633 61.4876 58.6549 58.6543 57.7383C55.8626 56.7799 53.9043 53.9883 52.7793 49.3633C50.0293 53.4466 47.071 57.3841 43.9043 61.1758C42.2376 62.8424 40.5293 63.3216 38.7793 62.6133C36.9876 61.8633 36.2793 60.2799 36.6543 57.8633C38.3626 50.2799 41.9251 43.6966 47.3418 38.1133C49.0918 36.3216 51.2376 34.8841 53.7793 33.8008C54.7793 33.4258 55.5918 33.5508 56.2168 34.1758C56.8835 34.8008 57.196 35.5716 57.1543 36.4883C57.1126 37.3633 56.5918 38.0091 55.5918 38.4258C52.4668 40.0091 49.8418 42.2591 47.7168 45.1758C45.6335 48.0508 44.0085 51.1758 42.8418 54.5508C46.2585 50.1341 49.446 45.5508 52.4043 40.8008C52.8626 40.0924 53.4668 39.7174 54.2168 39.6758C55.0085 39.6341 55.6751 39.8633 56.2168 40.3633C56.8001 40.8633 57.071 41.5299 57.0293 42.3633C56.196 44.9049 55.9668 47.5299 56.3418 50.2383C56.7585 52.9049 58.3418 54.7799 61.0918 55.8633C65.2168 55.8216 69.3835 54.6549 73.5918 52.3633C77.8001 50.0716 81.5501 47.6549 84.8418 45.1133C86.5501 43.8633 87.9876 42.3841 89.1543 40.6758ZM139.967 40.5508C140.258 40.9674 140.133 41.4258 139.592 41.9258C139.05 42.4258 138.342 42.9258 137.467 43.4258C136.592 43.8841 135.779 44.3008 135.029 44.6758C134.404 44.9674 133.967 45.1758 133.717 45.3008C127.258 48.3841 120.467 50.4049 113.342 51.3633C109.092 51.6133 106.758 50.6966 106.342 48.6133C103.383 51.9049 100.675 55.3841 98.2168 59.0508C96.1335 62.0508 94.3001 65.1966 92.7168 68.4883C92.2585 69.1966 91.6543 69.5716 90.9043 69.6133C90.1543 69.6966 89.4668 69.5091 88.8418 69.0508C88.2585 68.5924 87.9876 67.9258 88.0293 67.0508C88.2793 62.6758 88.4043 58.3008 88.4043 53.9258C88.446 49.4674 88.571 45.0091 88.7793 40.5508C88.9043 39.4674 89.3835 38.7799 90.2168 38.4883C91.0501 38.1549 91.8626 38.1966 92.6543 38.6133C93.446 38.9883 93.821 39.7174 93.7793 40.8008C93.571 45.2174 93.446 49.6341 93.4043 54.0508C93.4043 55.7174 93.3835 57.4049 93.3418 59.1133C97.6751 53.7383 102.279 48.6133 107.154 43.7383C108.279 41.3216 109.883 39.0299 111.967 36.8633C114.092 34.6549 116.092 33.1549 117.967 32.3633C118.633 31.9883 119.383 31.8216 120.217 31.8633C121.092 31.8633 121.8 32.1133 122.342 32.6133C122.883 33.1133 123.05 33.8841 122.842 34.9258C122.592 35.5508 122.175 35.9883 121.592 36.2383C118.217 37.7799 115.196 39.8216 112.529 42.3633C110.904 43.8633 109.342 45.4049 107.842 46.9883C107.758 47.4883 107.779 47.9258 107.904 48.3008C108.613 49.5924 110.092 50.1966 112.342 50.1133C114.633 50.0299 117.071 49.6549 119.654 48.9883C122.238 48.3216 124.321 47.7174 125.904 47.1758C126.238 47.0508 126.529 46.9674 126.779 46.9258C130.071 45.7591 133.217 44.3008 136.217 42.5508C136.675 42.3424 137.154 41.9883 137.654 41.4883C138.071 41.1133 138.488 40.8008 138.904 40.5508C139.321 40.3008 139.675 40.3008 139.967 40.5508ZM179.279 40.3633C179.696 40.8633 179.633 41.4258 179.092 42.0508C178.592 42.6758 177.988 43.2799 177.279 43.8633C176.779 44.2799 176.425 44.6133 176.217 44.8633C174.633 46.2799 172.008 48.1549 168.342 50.4883C164.675 52.8216 160.654 54.9883 156.279 56.9883C151.904 58.9883 147.904 60.1966 144.279 60.6133C140.654 61.0299 138.113 60.0508 136.654 57.6758C135.279 54.1758 134.988 50.5299 135.779 46.7383C136.529 42.9049 138.029 39.5091 140.279 36.5508C141.613 34.9674 143.217 34.0924 145.092 33.9258C146.967 33.7591 148.133 34.8841 148.592 37.3008C148.883 38.5091 148.529 39.8424 147.529 41.3008C146.529 42.7174 145.279 44.0299 143.779 45.2383C142.321 46.4466 141.05 47.2799 139.967 47.7383C139.467 50.3633 139.321 52.5924 139.529 54.4258C139.863 57.0924 141.446 58.3841 144.279 58.3008C147.154 58.2174 150.488 57.4049 154.279 55.8633C158.113 54.2799 161.675 52.5508 164.967 50.6758C168.258 48.8008 170.529 47.3841 171.779 46.4258C174.154 44.7591 176.258 42.8008 178.092 40.5508C178.258 40.3424 178.446 40.2383 178.654 40.2383C178.904 40.1966 179.113 40.2383 179.279 40.3633ZM144.717 38.6133C142.842 39.9049 141.488 42.0299 140.654 44.9883C141.696 44.0299 142.654 42.9674 143.529 41.8008C144.404 40.5924 144.8 39.5299 144.717 38.6133ZM286.654 40.3008C286.863 40.4674 286.988 40.6758 287.029 40.9258C287.071 41.1758 287.008 41.4049 286.842 41.6133C286.008 42.7383 285.113 43.7591 284.154 44.6758C279.363 49.4258 274.217 53.7174 268.717 57.5508C268.258 57.8424 267.821 58.1341 267.404 58.4258C265.613 59.6341 263.738 60.7383 261.779 61.7383C259.821 62.7383 257.758 63.3216 255.592 63.4883C253.342 63.3216 251.758 62.3633 250.842 60.6133C249.925 58.8633 249.55 56.9883 249.717 54.9883C249.8 52.7799 250.113 50.6133 250.654 48.4883C249.571 49.7383 248.488 50.9049 247.404 51.9883C245.988 53.6133 244.3 54.9674 242.342 56.0508C239.842 56.9674 238.029 56.7174 236.904 55.3008C235.779 53.8424 235.425 51.9258 235.842 49.5508C235.967 48.7591 236.175 47.7591 236.467 46.5508C236.842 45.1758 237.133 43.8424 237.342 42.5508C237.592 41.2174 237.55 40.2383 237.217 39.6133C234.925 37.5716 231.529 36.5091 227.029 36.4258C222.571 36.3424 218.175 36.5508 213.842 37.0508C212.217 37.2174 210.738 37.3424 209.404 37.4258C210.738 39.4674 211.279 41.9883 211.029 44.9883C210.821 47.9466 210.279 50.4466 209.404 52.4883C208.571 54.6133 207.321 56.4674 205.654 58.0508C203.988 59.6341 202.008 60.6758 199.717 61.1758C197.383 61.1758 195.717 60.3633 194.717 58.7383C193.675 57.1133 193.133 55.2174 193.092 53.0508C193.05 50.8424 193.3 48.8841 193.842 47.1758C194.55 44.5508 195.738 42.1549 197.404 39.9883C199.071 37.7799 201.133 36.0716 203.592 34.8633C204.883 34.4049 205.863 34.5924 206.529 35.4258C207.613 35.3841 208.988 35.3216 210.654 35.2383C212.321 35.1549 213.863 35.0716 215.279 34.9883C216.071 34.9466 216.696 34.9049 217.154 34.8633C218.154 34.8216 219.3 34.7799 220.592 34.7383C222.925 34.5299 225.404 34.4466 228.029 34.4883C230.696 34.5299 233.133 34.9049 235.342 35.6133C237.592 36.2799 239.258 37.5299 240.342 39.3633C240.425 39.5299 240.508 39.7174 240.592 39.9258C240.717 40.1341 240.8 40.3424 240.842 40.5508C240.925 40.7174 240.967 40.8008 240.967 40.8008C241.342 42.8008 241.279 44.8008 240.779 46.8008C240.654 47.2591 240.571 47.7174 240.529 48.1758C240.404 48.8008 240.238 49.4049 240.029 49.9883C239.654 51.1549 239.467 52.2799 239.467 53.3633C239.467 53.4049 239.508 53.4674 239.592 53.5508C239.717 53.6341 239.842 53.6966 239.967 53.7383C240.092 53.7383 240.217 53.7383 240.342 53.7383C242.175 53.0299 244.008 51.4883 245.842 49.1133C247.717 46.6966 249.425 44.2383 250.967 41.7383C251.883 40.2799 252.696 39.0716 253.404 38.1133L254.154 37.3008C254.738 36.9258 255.363 36.8216 256.029 36.9883C256.738 37.1133 257.279 37.4466 257.654 37.9883C257.988 38.4466 258.133 38.9258 258.092 39.4258C258.05 39.9258 257.863 40.3841 257.529 40.8008C257.363 41.0091 257.217 41.1966 257.092 41.3633C257.092 41.3633 257.071 41.3841 257.029 41.4258C257.029 41.4674 257.008 41.5091 256.967 41.5508C256.967 41.5508 256.946 41.5716 256.904 41.6133C256.904 41.6549 256.883 41.6758 256.842 41.6758C256.3 42.4674 255.8 43.2591 255.342 44.0508C254.717 45.2174 254.196 46.4049 253.779 47.6133C252.863 50.0716 252.3 52.5924 252.092 55.1758C251.883 57.7174 252.404 59.5924 253.654 60.8008C254.946 61.9674 257.383 61.7383 260.967 60.1133C265.092 58.0299 268.967 55.5716 272.592 52.7383C276.258 49.8633 279.696 46.7799 282.904 43.4883C283.821 42.5299 284.633 41.5508 285.342 40.5508C285.508 40.3424 285.717 40.2174 285.967 40.1758C286.217 40.0924 286.446 40.1341 286.654 40.3008ZM206.342 35.4258C206.342 35.3841 206.342 35.3424 206.342 35.3008C206.342 35.2591 206.342 35.2591 206.342 35.3008C206.342 35.3008 206.342 35.3216 206.342 35.3633C206.342 35.3633 206.342 35.3841 206.342 35.4258ZM199.404 58.3008C202.529 57.5924 204.842 55.8216 206.342 52.9883C207.883 50.1133 208.696 47.1341 208.779 44.0508C208.779 43.0091 208.675 41.9258 208.467 40.8008C208.258 39.6758 207.779 38.7799 207.029 38.1133C206.821 38.6133 206.404 39.0299 205.779 39.3633C203.488 40.5299 201.633 42.2174 200.217 44.4258C198.8 46.5924 197.904 48.9674 197.529 51.5508C197.404 52.2174 197.342 53.0508 197.342 54.0508C197.342 55.0508 197.488 55.9674 197.779 56.8008C198.071 57.6341 198.613 58.1341 199.404 58.3008ZM305.654 43.3008C305.946 43.5091 306.3 43.6341 306.717 43.6758C307.175 43.7174 307.654 43.7383 308.154 43.7383C308.696 43.6966 309.154 43.7174 309.529 43.8008C309.946 43.8424 310.175 44.0299 310.217 44.3633C310.05 44.8633 309.571 45.2174 308.779 45.4258C308.029 45.5924 307.217 45.6549 306.342 45.6133C305.467 45.5716 304.779 45.4466 304.279 45.2383C302.946 44.5716 302.008 43.6549 301.467 42.4883C300.925 41.2799 300.675 39.9674 300.717 38.5508C296.508 42.1758 292.863 46.3424 289.779 51.0508C286.738 55.7591 284.133 60.6549 281.967 65.7383C281.842 66.0716 281.633 66.3216 281.342 66.4883C281.008 66.6549 280.654 66.6549 280.279 66.4883C279.946 66.3216 279.738 66.0508 279.654 65.6758C279.529 65.3424 279.467 64.9883 279.467 64.6133C279.467 64.2383 279.425 63.9049 279.342 63.6133C278.842 55.4049 280.654 47.7591 284.779 40.6758C285.363 39.8424 286.071 39.4674 286.904 39.5508C287.738 39.6341 288.425 40.0091 288.967 40.6758C289.508 41.3424 289.571 42.1341 289.154 43.0508C288.071 45.2174 287.196 47.4258 286.529 49.6758C290.654 42.0924 296.175 35.7383 303.092 30.6133C303.842 30.1133 304.571 30.0091 305.279 30.3008C306.029 30.5924 306.55 31.0924 306.842 31.8008C307.175 32.5091 307.071 33.2383 306.529 33.9883C305.654 35.3216 304.946 36.9258 304.404 38.8008C303.863 40.6758 304.279 42.1758 305.654 43.3008ZM367.717 1.92578C368.175 2.17578 368.467 2.52995 368.592 2.98828C368.758 3.40495 368.758 3.86328 368.592 4.36328C363.508 16.3216 359.113 28.4883 355.404 40.8633C351.696 53.2383 348.508 65.6966 345.842 78.2383C345.675 78.9466 345.3 79.4883 344.717 79.8633C344.175 80.2799 343.55 80.4674 342.842 80.4258C342.175 80.3008 341.654 79.9674 341.279 79.4258C340.904 78.8841 340.8 78.2591 340.967 77.5508C344.8 60.4674 349.633 43.5716 355.467 26.8633C352.508 32.1966 349.404 37.4258 346.154 42.5508C342.946 47.6341 339.363 52.5091 335.404 57.1758C334.071 58.6758 332.508 59.6966 330.717 60.2383C328.883 60.7383 327.508 59.9466 326.592 57.8633C326.133 55.9049 326.342 53.9674 327.217 52.0508C328.092 50.1341 329.133 48.3424 330.342 46.6758C332.05 44.3424 334.133 42.2383 336.592 40.3633C339.092 38.4466 341.821 37.5716 344.779 37.7383C345.321 37.8216 345.738 38.0091 346.029 38.3008C349.738 31.9674 353.258 25.5091 356.592 18.9258C358.467 15.3008 360.363 11.7174 362.279 8.17578C362.279 8.17578 362.425 7.90495 362.717 7.36328C363.008 6.82161 363.321 6.21745 363.654 5.55078C364.029 4.84245 364.342 4.23828 364.592 3.73828C364.883 3.19661 365.029 2.92578 365.029 2.92578C365.321 2.42578 365.717 2.09245 366.217 1.92578C366.758 1.71745 367.258 1.71745 367.717 1.92578ZM335.217 54.0508C338.133 50.4258 340.821 46.6549 343.279 42.7383C340.613 43.3633 338.238 44.7799 336.154 46.9883C334.029 49.1549 332.321 51.4258 331.029 53.8008C330.154 56.0091 329.904 57.3008 330.279 57.6758C330.654 58.0091 331.342 57.7799 332.342 56.9883C333.342 56.1966 334.3 55.2174 335.217 54.0508ZM446.467 40.1758C446.8 40.2174 447.008 40.3841 447.092 40.6758C447.217 40.9674 447.196 41.2383 447.029 41.4883C446.904 41.7383 446.654 41.8633 446.279 41.8633C444.363 41.5299 442.404 41.3216 440.404 41.2383C434.529 40.9049 428.633 40.8216 422.717 40.9883C421.55 41.0299 420.363 41.0716 419.154 41.1133C417.571 45.3216 416.029 49.5508 414.529 53.8008C414.571 54.2174 414.613 54.6341 414.654 55.0508C414.904 58.7174 414.321 62.4258 412.904 66.1758C411.529 69.9674 409.508 73.1549 406.842 75.7383C406.342 76.1549 405.8 76.2174 405.217 75.9258C404.675 75.6758 404.383 75.2174 404.342 74.5508C404.342 74.5508 404.342 74.5299 404.342 74.4883C404.342 74.4466 404.342 74.3841 404.342 74.3008C404.342 74.2174 404.342 74.1341 404.342 74.0508C404.342 73.9674 404.342 73.9049 404.342 73.8633C404.342 73.8216 404.342 73.8008 404.342 73.8008C405.092 70.7174 405.925 67.6966 406.842 64.7383C408.425 59.6133 410.092 54.5299 411.842 49.4883C410.925 47.7799 409.592 46.4049 407.842 45.3633C405.633 48.4883 403.154 51.2799 400.404 53.7383C397.654 56.1549 394.654 57.7174 391.404 58.4258C388.738 58.8841 386.3 58.4674 384.092 57.1758C381.883 55.8841 380.342 53.9674 379.467 51.4258C379.217 50.7591 379.008 50.0508 378.842 49.3008C377.592 51.1341 376.3 52.9466 374.967 54.7383C373.633 56.5716 372.238 58.4049 370.779 60.2383C369.779 61.6133 368.425 62.4674 366.717 62.8008C364.967 62.8841 363.779 62.2799 363.154 60.9883C362.529 59.6549 362.467 58.2383 362.967 56.7383C364.8 49.5716 368.3 43.3216 373.467 37.9883C375.217 36.1966 377.342 34.7591 379.842 33.6758C380.925 33.3424 381.779 33.4883 382.404 34.1133C383.029 34.6966 383.321 35.4258 383.279 36.3008C383.238 37.1758 382.717 37.8424 381.717 38.3008C378.675 39.7591 376.071 41.9883 373.904 44.9883C371.779 47.9466 370.113 51.1133 368.904 54.4883C372.321 50.0299 375.529 45.4466 378.529 40.7383C379.029 39.9883 379.633 39.5924 380.342 39.5508C381.092 39.5091 381.758 39.7383 382.342 40.2383C382.925 40.7383 383.175 41.4049 383.092 42.2383C382.675 43.9466 382.383 45.6341 382.217 47.3008C382.092 48.9258 382.383 50.5299 383.092 52.1133C384.425 54.4466 386.113 55.7383 388.154 55.9883C390.238 56.2383 392.342 55.8633 394.467 54.8633C396.592 53.8633 398.425 52.5924 399.967 51.0508C402.05 49.0508 404.029 46.8424 405.904 44.4258C405.404 44.2591 404.904 44.1133 404.404 43.9883C402.696 43.5299 400.967 43.3008 399.217 43.3008C398.925 43.3008 398.696 43.1966 398.529 42.9883C398.404 42.7383 398.383 42.4883 398.467 42.2383C398.55 41.9883 398.738 41.8216 399.029 41.7383C400.988 41.2799 402.967 40.9258 404.967 40.6758C406.3 40.5508 407.613 40.4258 408.904 40.3008C412.488 35.0091 415.654 29.4049 418.404 23.4883C421.154 17.5716 423.508 11.7799 425.467 6.11328C425.717 5.27995 425.925 4.42578 426.092 3.55078C426.092 3.55078 426.113 3.52995 426.154 3.48828C426.154 3.48828 426.154 3.46745 426.154 3.42578C426.321 2.34245 426.821 1.65495 427.654 1.36328C428.488 1.07161 429.279 1.15495 430.029 1.61328C430.779 2.02995 431.133 2.80078 431.092 3.92578C430.217 9.13411 428.842 14.2174 426.967 19.1758C426.633 20.2174 426.3 21.2591 425.967 22.3008C423.967 28.0924 421.883 33.8841 419.717 39.6758C428.633 39.3841 437.55 39.5508 446.467 40.1758ZM414.654 34.6133C413.654 36.3216 412.55 38.1549 411.342 40.1133C412.592 40.0299 413.863 39.9466 415.154 39.8633C417.446 33.3216 419.654 26.7591 421.779 20.1758C419.613 25.0924 417.238 29.9049 414.654 34.6133ZM403.904 42.4258C404.863 42.6758 405.779 43.0091 406.654 43.4258C407.029 42.9258 407.404 42.4049 407.779 41.8633C406.488 42.0299 405.196 42.2174 403.904 42.4258ZM413.154 60.3633C413.446 59.0716 413.592 57.7799 413.592 56.4883C412.008 60.9466 410.508 65.4258 409.092 69.9258C410.175 68.5508 411.05 66.9883 411.717 65.2383C412.383 63.5299 412.863 61.9049 413.154 60.3633ZM412.342 48.0508C413.092 45.8008 413.863 43.5508 414.654 41.3008C413.238 41.3841 411.8 41.4883 410.342 41.6133C409.758 42.5716 409.154 43.5091 408.529 44.4258C410.029 45.3841 411.3 46.5924 412.342 48.0508ZM485.279 40.3633C485.696 40.8633 485.633 41.4258 485.092 42.0508C484.592 42.6758 483.988 43.2799 483.279 43.8633C482.779 44.2799 482.425 44.6133 482.217 44.8633C480.633 46.2799 478.008 48.1549 474.342 50.4883C470.675 52.8216 466.654 54.9883 462.279 56.9883C457.904 58.9883 453.904 60.1966 450.279 60.6133C446.654 61.0299 444.113 60.0508 442.654 57.6758C441.279 54.1758 440.988 50.5299 441.779 46.7383C442.529 42.9049 444.029 39.5091 446.279 36.5508C447.613 34.9674 449.217 34.0924 451.092 33.9258C452.967 33.7591 454.133 34.8841 454.592 37.3008C454.883 38.5091 454.529 39.8424 453.529 41.3008C452.529 42.7174 451.279 44.0299 449.779 45.2383C448.321 46.4466 447.05 47.2799 445.967 47.7383C445.467 50.3633 445.321 52.5924 445.529 54.4258C445.863 57.0924 447.446 58.3841 450.279 58.3008C453.154 58.2174 456.488 57.4049 460.279 55.8633C464.113 54.2799 467.675 52.5508 470.967 50.6758C474.258 48.8008 476.529 47.3841 477.779 46.4258C480.154 44.7591 482.258 42.8008 484.092 40.5508C484.258 40.3424 484.446 40.2383 484.654 40.2383C484.904 40.1966 485.113 40.2383 485.279 40.3633ZM450.717 38.6133C448.842 39.9049 447.488 42.0299 446.654 44.9883C447.696 44.0299 448.654 42.9674 449.529 41.8008C450.404 40.5924 450.8 39.5299 450.717 38.6133ZM522.967 40.7383C523.425 40.8633 523.238 41.2591 522.404 41.9258C521.571 42.5924 520.404 43.3633 518.904 44.2383C517.446 45.1133 516.029 45.9466 514.654 46.7383C513.029 47.6549 511.967 48.2799 511.467 48.6133C508.675 50.1133 505.883 51.6133 503.092 53.1133C499.633 54.9466 496.175 56.8216 492.717 58.7383C492.592 59.9049 492.092 61.1549 491.217 62.4883C489.967 64.2383 488.404 65.6133 486.529 66.6133C484.654 67.6133 482.675 68.3216 480.592 68.7383C480.342 68.7383 480.05 68.7799 479.717 68.8633C479.092 68.9883 478.467 69.0091 477.842 68.9258C477.175 68.8841 476.758 68.5508 476.592 67.9258C477.55 66.3008 478.883 65.0091 480.592 64.0508C481.092 63.7591 481.55 63.4466 481.967 63.1133C483.967 61.8216 485.988 60.5716 488.029 59.3633C488.321 58.4883 488.321 57.5508 488.029 56.5508C487.613 55.8008 487.175 55.0299 486.717 54.2383C485.342 52.1549 484.383 49.8633 483.842 47.3633C483.217 43.5716 483.508 40.6133 484.717 38.4883C485.925 36.3633 487.383 34.9466 489.092 34.2383C490.842 33.4883 492.217 33.3008 493.217 33.6758C494.258 34.0091 494.258 34.7799 493.217 35.9883C491.05 37.1133 489.675 38.7799 489.092 40.9883C488.508 43.1549 488.55 45.3424 489.217 47.5508C489.633 48.8424 490.154 50.1133 490.779 51.3633C491.738 53.1549 492.383 54.9466 492.717 56.7383C494.217 55.9466 495.717 55.1341 497.217 54.3008C497.842 53.9674 498.467 53.6341 499.092 53.3008C501.258 52.1341 503.446 50.9883 505.654 49.8633C510.404 47.4883 514.988 44.9258 519.404 42.1758C519.654 42.0508 519.883 41.9049 520.092 41.7383C520.55 41.4049 521.008 41.1341 521.467 40.9258C521.925 40.7174 522.425 40.6549 522.967 40.7383ZM486.029 62.5508C484.154 63.5924 482.363 64.7591 480.654 66.0508C482.696 65.1758 484.488 64.0091 486.029 62.5508ZM149.967 108.863C150.383 112.863 150.008 117.009 148.842 121.301C147.675 125.551 146.196 129.467 144.404 133.051C143.571 134.759 142.529 136.384 141.279 137.926C140.071 139.426 138.571 140.592 136.779 141.426C134.029 142.467 132.092 142.03 130.967 140.113C129.842 138.197 129.488 136.009 129.904 133.551C131.154 125.926 134.008 118.947 138.467 112.613C139.3 111.697 140.175 111.384 141.092 111.676C141.092 111.676 141.113 111.655 141.154 111.613C141.154 111.572 141.175 111.53 141.217 111.488C141.342 111.238 141.488 110.947 141.654 110.613C141.946 110.03 142.217 109.509 142.467 109.051C143.467 107.217 144.779 106.176 146.404 105.926C148.071 105.634 149.258 106.613 149.967 108.863ZM147.904 117.051C147.988 116.509 148.092 115.655 148.217 114.488C148.383 113.322 148.446 112.155 148.404 110.988C148.363 109.78 148.133 108.884 147.717 108.301C147.342 107.676 146.654 107.655 145.654 108.238C144.738 109.072 144.029 110.155 143.529 111.488C143.363 111.822 143.196 112.134 143.029 112.426C142.988 112.551 142.925 112.676 142.842 112.801C142.8 112.884 142.779 112.967 142.779 113.051C143.279 113.967 143.092 114.926 142.217 115.926C141.675 116.509 141.154 117.092 140.654 117.676C140.321 118.384 140.008 119.092 139.717 119.801C139.425 120.384 139.008 120.634 138.467 120.551C135.633 124.676 133.675 129.134 132.592 133.926C132.05 137.551 132.571 139.467 134.154 139.676C135.779 139.884 137.654 138.801 139.779 136.426C141.988 133.676 143.717 130.634 144.967 127.301C146.258 123.926 147.238 120.509 147.904 117.051ZM178.592 105.488C178.967 106.113 179.05 106.78 178.842 107.488C178.675 108.155 178.258 108.676 177.592 109.051C174.633 110.592 171.946 112.53 169.529 114.863C168.779 115.405 167.675 116.53 166.217 118.238C164.758 119.905 163.217 121.863 161.592 124.113C164.008 123.447 166.279 123.447 168.404 124.113C170.529 124.78 171.863 126.28 172.404 128.613C172.446 130.238 172.092 131.738 171.342 133.113C170.592 134.488 169.717 135.78 168.717 136.988C166.383 139.863 163.404 141.697 159.779 142.488C158.404 142.78 157.029 142.759 155.654 142.426C154.321 142.134 153.342 141.28 152.717 139.863C152.175 138.488 152.154 136.801 152.654 134.801C153.154 132.801 153.988 130.655 155.154 128.363C155.196 128.197 155.258 128.051 155.342 127.926C155.383 127.884 155.425 127.842 155.467 127.801C155.467 127.801 155.467 127.78 155.467 127.738C157.217 124.488 159.154 121.426 161.279 118.551C163.404 115.634 165.175 113.426 166.592 111.926C169.05 109.217 171.883 106.801 175.092 104.676C175.717 104.301 176.342 104.197 176.967 104.363C177.633 104.488 178.175 104.863 178.592 105.488ZM169.092 133.176C170.675 130.717 171.029 128.863 170.154 127.613C169.279 126.322 167.821 125.613 165.779 125.488C163.738 125.322 161.758 125.697 159.842 126.613C158.05 129.238 156.654 131.717 155.654 134.051C154.696 136.342 154.55 138.072 155.217 139.238C155.883 140.447 157.779 140.676 160.904 139.926C164.404 138.676 167.133 136.426 169.092 133.176ZM182.404 139.926C182.613 138.926 183.133 138.217 183.967 137.801C184.842 137.384 185.654 137.342 186.404 137.676C187.154 137.967 187.508 138.717 187.467 139.926C187.258 140.926 186.717 141.634 185.842 142.051C185.008 142.467 184.196 142.509 183.404 142.176C182.654 141.884 182.321 141.134 182.404 139.926ZM225.967 108.863C226.383 112.863 226.008 117.009 224.842 121.301C223.675 125.551 222.196 129.467 220.404 133.051C219.571 134.759 218.529 136.384 217.279 137.926C216.071 139.426 214.571 140.592 212.779 141.426C210.029 142.467 208.092 142.03 206.967 140.113C205.842 138.197 205.488 136.009 205.904 133.551C207.154 125.926 210.008 118.947 214.467 112.613C215.3 111.697 216.175 111.384 217.092 111.676C217.092 111.676 217.113 111.655 217.154 111.613C217.154 111.572 217.175 111.53 217.217 111.488C217.342 111.238 217.488 110.947 217.654 110.613C217.946 110.03 218.217 109.509 218.467 109.051C219.467 107.217 220.779 106.176 222.404 105.926C224.071 105.634 225.258 106.613 225.967 108.863ZM223.904 117.051C223.988 116.509 224.092 115.655 224.217 114.488C224.383 113.322 224.446 112.155 224.404 110.988C224.363 109.78 224.133 108.884 223.717 108.301C223.342 107.676 222.654 107.655 221.654 108.238C220.738 109.072 220.029 110.155 219.529 111.488C219.363 111.822 219.196 112.134 219.029 112.426C218.988 112.551 218.925 112.676 218.842 112.801C218.8 112.884 218.779 112.967 218.779 113.051C219.279 113.967 219.092 114.926 218.217 115.926C217.675 116.509 217.154 117.092 216.654 117.676C216.321 118.384 216.008 119.092 215.717 119.801C215.425 120.384 215.008 120.634 214.467 120.551C211.633 124.676 209.675 129.134 208.592 133.926C208.05 137.551 208.571 139.467 210.154 139.676C211.779 139.884 213.654 138.801 215.779 136.426C217.988 133.676 219.717 130.634 220.967 127.301C222.258 123.926 223.238 120.509 223.904 117.051ZM254.592 105.488C254.967 106.113 255.05 106.78 254.842 107.488C254.675 108.155 254.258 108.676 253.592 109.051C250.633 110.592 247.946 112.53 245.529 114.863C244.779 115.405 243.675 116.53 242.217 118.238C240.758 119.905 239.217 121.863 237.592 124.113C240.008 123.447 242.279 123.447 244.404 124.113C246.529 124.78 247.863 126.28 248.404 128.613C248.446 130.238 248.092 131.738 247.342 133.113C246.592 134.488 245.717 135.78 244.717 136.988C242.383 139.863 239.404 141.697 235.779 142.488C234.404 142.78 233.029 142.759 231.654 142.426C230.321 142.134 229.342 141.28 228.717 139.863C228.175 138.488 228.154 136.801 228.654 134.801C229.154 132.801 229.988 130.655 231.154 128.363C231.196 128.197 231.258 128.051 231.342 127.926C231.383 127.884 231.425 127.842 231.467 127.801C231.467 127.801 231.467 127.78 231.467 127.738C233.217 124.488 235.154 121.426 237.279 118.551C239.404 115.634 241.175 113.426 242.592 111.926C245.05 109.217 247.883 106.801 251.092 104.676C251.717 104.301 252.342 104.197 252.967 104.363C253.633 104.488 254.175 104.863 254.592 105.488ZM245.092 133.176C246.675 130.717 247.029 128.863 246.154 127.613C245.279 126.322 243.821 125.613 241.779 125.488C239.738 125.322 237.758 125.697 235.842 126.613C234.05 129.238 232.654 131.717 231.654 134.051C230.696 136.342 230.55 138.072 231.217 139.238C231.883 140.447 233.779 140.676 236.904 139.926C240.404 138.676 243.133 136.426 245.092 133.176ZM258.404 139.926C258.613 138.926 259.133 138.217 259.967 137.801C260.842 137.384 261.654 137.342 262.404 137.676C263.154 137.967 263.508 138.717 263.467 139.926C263.258 140.926 262.717 141.634 261.842 142.051C261.008 142.467 260.196 142.509 259.404 142.176C258.654 141.884 258.321 141.134 258.404 139.926ZM310.779 105.676C312.029 105.717 313.029 106.217 313.779 107.176C314.529 108.092 314.758 109.176 314.467 110.426C313.883 112.384 312.946 114.113 311.654 115.613C311.571 115.697 311.488 115.801 311.404 115.926C308.613 119.592 305.571 123.03 302.279 126.238C299.029 129.447 295.675 132.572 292.217 135.613C291.633 136.113 291.071 136.613 290.529 137.113C293.154 136.78 295.8 136.572 298.467 136.488C301.133 136.363 303.779 136.572 306.404 137.113C306.946 137.28 307.279 137.592 307.404 138.051C307.529 138.467 307.446 138.863 307.154 139.238C306.904 139.655 306.508 139.822 305.967 139.738C304.217 139.53 302.425 139.488 300.592 139.613C296.842 139.947 293.133 140.53 289.467 141.363C287.717 141.738 285.946 142.092 284.154 142.426C284.154 142.426 284.113 142.426 284.029 142.426C283.988 142.426 283.925 142.405 283.842 142.363C283.8 142.363 283.738 142.363 283.654 142.363C283.571 142.363 283.508 142.363 283.467 142.363C283.425 142.363 283.404 142.363 283.404 142.363C282.696 142.363 282.154 142.092 281.779 141.551C281.446 141.051 281.321 140.488 281.404 139.863C281.488 139.238 281.821 138.759 282.404 138.426C292.279 131.384 301.154 123.259 309.029 114.051C311.071 111.592 311.946 109.988 311.654 109.238C311.363 108.447 310.425 108.217 308.842 108.551C307.258 108.842 305.529 109.447 303.654 110.363C301.071 111.738 298.758 113.488 296.717 115.613C294.675 117.738 293.092 120.134 291.967 122.801C291.758 123.259 291.467 123.509 291.092 123.551C290.717 123.551 290.383 123.426 290.092 123.176C289.842 122.884 289.779 122.509 289.904 122.051C291.571 117.842 294.321 114.134 298.154 110.926C301.988 107.717 306.196 105.967 310.779 105.676ZM336.842 108.863C337.258 112.863 336.883 117.009 335.717 121.301C334.55 125.551 333.071 129.467 331.279 133.051C330.446 134.759 329.404 136.384 328.154 137.926C326.946 139.426 325.446 140.592 323.654 141.426C320.904 142.467 318.967 142.03 317.842 140.113C316.717 138.197 316.363 136.009 316.779 133.551C318.029 125.926 320.883 118.947 325.342 112.613C326.175 111.697 327.05 111.384 327.967 111.676C327.967 111.676 327.988 111.655 328.029 111.613C328.029 111.572 328.05 111.53 328.092 111.488C328.217 111.238 328.363 110.947 328.529 110.613C328.821 110.03 329.092 109.509 329.342 109.051C330.342 107.217 331.654 106.176 333.279 105.926C334.946 105.634 336.133 106.613 336.842 108.863ZM334.779 117.051C334.863 116.509 334.967 115.655 335.092 114.488C335.258 113.322 335.321 112.155 335.279 110.988C335.238 109.78 335.008 108.884 334.592 108.301C334.217 107.676 333.529 107.655 332.529 108.238C331.613 109.072 330.904 110.155 330.404 111.488C330.238 111.822 330.071 112.134 329.904 112.426C329.863 112.551 329.8 112.676 329.717 112.801C329.675 112.884 329.654 112.967 329.654 113.051C330.154 113.967 329.967 114.926 329.092 115.926C328.55 116.509 328.029 117.092 327.529 117.676C327.196 118.384 326.883 119.092 326.592 119.801C326.3 120.384 325.883 120.634 325.342 120.551C322.508 124.676 320.55 129.134 319.467 133.926C318.925 137.551 319.446 139.467 321.029 139.676C322.654 139.884 324.529 138.801 326.654 136.426C328.863 133.676 330.592 130.634 331.842 127.301C333.133 123.926 334.113 120.509 334.779 117.051ZM368.279 105.676C369.529 105.717 370.529 106.217 371.279 107.176C372.029 108.092 372.258 109.176 371.967 110.426C371.383 112.384 370.446 114.113 369.154 115.613C369.071 115.697 368.988 115.801 368.904 115.926C366.113 119.592 363.071 123.03 359.779 126.238C356.529 129.447 353.175 132.572 349.717 135.613C349.133 136.113 348.571 136.613 348.029 137.113C350.654 136.78 353.3 136.572 355.967 136.488C358.633 136.363 361.279 136.572 363.904 137.113C364.446 137.28 364.779 137.592 364.904 138.051C365.029 138.467 364.946 138.863 364.654 139.238C364.404 139.655 364.008 139.822 363.467 139.738C361.717 139.53 359.925 139.488 358.092 139.613C354.342 139.947 350.633 140.53 346.967 141.363C345.217 141.738 343.446 142.092 341.654 142.426C341.654 142.426 341.613 142.426 341.529 142.426C341.488 142.426 341.425 142.405 341.342 142.363C341.3 142.363 341.238 142.363 341.154 142.363C341.071 142.363 341.008 142.363 340.967 142.363C340.925 142.363 340.904 142.363 340.904 142.363C340.196 142.363 339.654 142.092 339.279 141.551C338.946 141.051 338.821 140.488 338.904 139.863C338.988 139.238 339.321 138.759 339.904 138.426C349.779 131.384 358.654 123.259 366.529 114.051C368.571 111.592 369.446 109.988 369.154 109.238C368.863 108.447 367.925 108.217 366.342 108.551C364.758 108.842 363.029 109.447 361.154 110.363C358.571 111.738 356.258 113.488 354.217 115.613C352.175 117.738 350.592 120.134 349.467 122.801C349.258 123.259 348.967 123.509 348.592 123.551C348.217 123.551 347.883 123.426 347.592 123.176C347.342 122.884 347.279 122.509 347.404 122.051C349.071 117.842 351.821 114.134 355.654 110.926C359.488 107.717 363.696 105.967 368.279 105.676ZM398.717 108.238C398.925 108.78 398.904 109.301 398.654 109.801C398.404 110.301 397.988 110.634 397.404 110.801C395.196 111.426 392.925 111.697 390.592 111.613C389.717 111.572 388.863 111.447 388.029 111.238C387.988 111.28 387.967 111.301 387.967 111.301C387.758 111.634 387.571 111.947 387.404 112.238C386.529 113.488 385.654 114.738 384.779 115.988C384.113 116.863 383.467 117.759 382.842 118.676C385.425 118.092 387.842 118.467 390.092 119.801C392.8 121.884 393.988 124.572 393.654 127.863C393.363 131.113 392.154 133.905 390.029 136.238C388.404 138.03 386.446 139.363 384.154 140.238C381.904 141.155 379.55 141.426 377.092 141.051C377.008 141.009 376.904 140.967 376.779 140.926C376.321 140.842 375.821 140.697 375.279 140.488C374.779 140.322 374.383 140.072 374.092 139.738C373.8 139.447 373.758 139.03 373.967 138.488C374.133 138.238 374.342 138.072 374.592 137.988C374.842 137.905 375.092 137.926 375.342 138.051C378.3 138.842 381.113 138.426 383.779 136.801C386.488 135.134 388.342 132.863 389.342 129.988C390.342 126.488 389.779 124.051 387.654 122.676C385.529 121.301 382.925 121.363 379.842 122.863C379.508 122.988 379.196 123.009 378.904 122.926C378.613 122.801 378.383 122.592 378.217 122.301C378.008 121.801 378.071 121.363 378.404 120.988C379.321 119.988 380.175 118.926 380.967 117.801C382.508 115.592 383.904 113.28 385.154 110.863C385.238 110.738 385.321 110.613 385.404 110.488C384.904 110.322 384.425 110.113 383.967 109.863C383.425 109.572 383.154 109.176 383.154 108.676C383.196 108.176 383.404 107.78 383.779 107.488C384.154 107.155 384.613 107.092 385.154 107.301C385.738 107.551 386.363 107.759 387.029 107.926C387.154 107.759 387.3 107.613 387.467 107.488C387.8 107.28 388.154 107.259 388.529 107.426C388.904 107.551 389.133 107.822 389.217 108.238C391.633 108.363 393.967 107.988 396.217 107.113C396.758 106.947 397.258 106.967 397.717 107.176C398.175 107.384 398.508 107.738 398.717 108.238Z" fill="white"></path></svg> 