<?xml version="1.0" encoding="UTF-8"?> <svg xmlns="http://www.w3.org/2000/svg" width="430" height="191" viewBox="0 0 430 191" fill="none"><path d="M108.18 26.245C124.06 26.245 135.198 36.5922 135.198 51.3945C135.198 65.4063 123.557 76.5439 108.18 76.5439H88.1325V76.2565C88.4917 74.3883 88.4917 73.526 88.4917 68.9991V33.7899C88.4917 29.263 88.4917 28.4007 88.1325 26.5325V26.245H108.18ZM94.5995 74.3883H107.533C121.402 74.3883 128.946 62.4602 128.946 50.5322C128.946 38.1012 120.396 28.4007 107.533 28.4007H94.5995V74.3883ZM156.056 26.245C157.78 26.245 159.864 25.8858 161.589 24.7361L177.253 68.9991C179.409 75.035 179.912 75.8254 180.127 76.2565V76.5439H173.014V76.2565C173.014 75.8254 173.229 75.035 171.145 68.9991L169.133 63.3225H144.056L141.9 68.9273C139.601 74.9631 139.96 75.8254 139.96 76.2565V76.5439H136.295V76.2565C136.511 75.8254 137.014 74.9631 139.385 68.9991L156.056 26.245ZM144.918 61.1668H168.415L157.277 29.3348L144.918 61.1668ZM187.285 26.245H194.111V26.5325C193.752 28.4007 193.752 29.263 193.752 33.7899V68.9991C193.752 73.526 193.752 74.3883 194.111 76.2565V76.5439H187.285V76.2565C187.644 74.3883 187.644 73.526 187.644 68.9991V33.7899C187.644 29.263 187.644 28.4007 187.285 26.5325V26.245ZM228.829 26.6762L229.116 33.3587H227.823C226.385 29.0474 222.793 27.1073 218.984 27.1073C214.817 27.1073 211.583 29.4785 211.583 34.0054C211.583 37.0234 213.092 40.5443 215.751 43.4185L225.523 53.9813C229.475 58.2926 231.487 62.6758 231.487 66.4842C231.487 72.7356 226.385 77.4062 217.906 77.4062C213.883 77.4062 209.14 76.2565 205.835 73.7416L205.619 67.059H206.913C208.565 72.52 213.38 75.2505 217.906 75.2505C222.577 75.2505 225.739 72.4482 225.739 67.8494C225.739 64.9752 224.373 61.6698 221.212 58.2926L211.439 47.7299C207.703 43.7059 205.763 39.3946 205.763 35.5863C205.763 29.6222 210.433 24.9516 218.409 24.9516C221.715 24.9516 225.379 25.4546 228.829 26.6762ZM264.636 77.6936C249.834 77.6936 238.05 65.9093 238.05 51.1071C238.05 36.3048 249.834 24.5205 264.636 24.5205C279.438 24.5205 291.223 36.3048 291.223 51.1071C291.223 65.9093 279.438 77.6936 264.636 77.6936ZM244.517 51.1071C244.517 64.6878 252.493 75.538 263.702 75.538C275.918 75.538 284.756 64.6878 284.756 51.1071C284.756 37.4545 276.708 26.6762 265.427 26.6762C253.283 26.6762 244.517 37.4545 244.517 51.1071ZM300.191 25.8858H301.556L335.041 66.053V33.7899C335.041 29.263 335.041 28.4007 334.538 26.5325V26.245H337.556V26.5325C337.196 28.4007 337.196 29.263 337.196 33.7899V70.0769C337.196 73.8853 337.196 74.7476 337.556 76.9032H336.19L302.706 36.7359V68.9991C302.706 73.526 302.706 74.3883 303.209 76.2565V76.5439H300.191V76.2565C300.55 74.3883 300.55 73.526 300.55 68.9991V32.712C300.55 28.9037 300.55 28.0414 300.191 25.8858Z" fill="#BC9D89" fill-opacity="0.08"></path><path d="M151.38 177.57H151.53C151.69 177.57 151.83 177.52 151.95 177.42C152.07 177.3 152.17 177.16 152.25 177C152.33 176.82 152.39 176.64 152.43 176.46C152.47 176.26 152.49 176.08 152.49 175.92V159.93C152.49 159.79 152.46 159.63 152.4 159.45C152.36 159.27 152.3 159.1 152.22 158.94C152.14 158.78 152.04 158.65 151.92 158.55C151.8 158.43 151.67 158.37 151.53 158.37H151.38V158.07H166.74V158.37H166.5C166.36 158.37 166.24 158.43 166.14 158.55C166.04 158.65 165.95 158.79 165.87 158.97C165.81 159.13 165.76 159.3 165.72 159.48C165.68 159.66 165.66 159.81 165.66 159.93V175.92C165.66 176.08 165.67 176.25 165.69 176.43C165.73 176.61 165.78 176.79 165.84 176.97C165.92 177.13 166.01 177.27 166.11 177.39C166.23 177.51 166.36 177.57 166.5 177.57H166.74V177.87H162.54V177.57H162.81C162.95 177.57 163.07 177.51 163.17 177.39C163.29 177.27 163.38 177.13 163.44 176.97C163.52 176.81 163.57 176.64 163.59 176.46C163.63 176.26 163.65 176.08 163.65 175.92V159.12H154.5V175.92C154.5 176.08 154.52 176.26 154.56 176.46C154.6 176.64 154.65 176.81 154.71 176.97C154.79 177.13 154.89 177.27 155.01 177.39C155.13 177.51 155.27 177.57 155.43 177.57H155.58V177.87H151.38V177.57ZM179.713 157.77C181.273 157.77 182.673 158.05 183.913 158.61C185.153 159.15 186.203 159.89 187.063 160.83C187.943 161.75 188.613 162.83 189.073 164.07C189.553 165.29 189.793 166.57 189.793 167.91C189.793 169.41 189.513 170.79 188.953 172.05C188.413 173.31 187.663 174.39 186.703 175.29C185.743 176.19 184.623 176.9 183.343 177.42C182.083 177.92 180.733 178.17 179.293 178.17C177.753 178.17 176.363 177.89 175.123 177.33C173.903 176.77 172.863 176.03 172.003 175.11C171.163 174.19 170.513 173.13 170.053 171.93C169.593 170.73 169.363 169.48 169.363 168.18C169.363 166.9 169.593 165.64 170.053 164.4C170.513 163.14 171.183 162.02 172.063 161.04C172.963 160.06 174.053 159.27 175.333 158.67C176.613 158.07 178.073 157.77 179.713 157.77ZM179.683 177.12C181.023 177.06 182.193 176.76 183.193 176.22C184.213 175.66 185.063 174.96 185.743 174.12C186.423 173.26 186.923 172.32 187.243 171.3C187.583 170.28 187.753 169.27 187.753 168.27C187.753 167.17 187.553 166.06 187.153 164.94C186.753 163.82 186.183 162.81 185.443 161.91C184.703 160.99 183.813 160.25 182.773 159.69C181.753 159.11 180.603 158.82 179.323 158.82C178.083 158.82 176.973 159.1 175.993 159.66C175.013 160.2 174.173 160.9 173.473 161.76C172.793 162.62 172.273 163.58 171.913 164.64C171.553 165.7 171.373 166.74 171.373 167.76C171.373 168.86 171.583 169.97 172.003 171.09C172.423 172.19 173.003 173.19 173.743 174.09C174.483 174.99 175.353 175.72 176.353 176.28C177.373 176.84 178.483 177.12 179.683 177.12ZM207.477 176.82V180.57H207.177C207.157 180.31 207.087 180.02 206.967 179.7C206.847 179.38 206.677 179.08 206.457 178.8C206.257 178.54 206.017 178.32 205.737 178.14C205.457 177.96 205.147 177.87 204.807 177.87H190.977C190.637 177.87 190.327 177.96 190.047 178.14C189.767 178.34 189.517 178.57 189.297 178.83C189.097 179.11 188.927 179.41 188.787 179.73C188.667 180.05 188.597 180.33 188.577 180.57H188.277V176.82H189.597C190.237 176.82 190.687 176.45 190.947 175.71L197.847 157.62L204.807 175.62C204.947 175.92 205.137 176.2 205.377 176.46C205.617 176.7 205.897 176.82 206.217 176.82H207.477ZM191.607 176.82H203.157L197.367 161.91L191.607 176.82ZM221.375 177.57H221.525C222.005 177.57 222.245 177.35 222.245 176.91C222.245 176.75 222.215 176.58 222.155 176.4L219.455 169.11H214.205L211.595 176.28C211.535 176.44 211.505 176.59 211.505 176.73C211.505 176.99 211.575 177.2 211.715 177.36C211.855 177.5 212.005 177.57 212.165 177.57H212.315V177.87H208.985V177.57H209.135C209.395 177.57 209.645 177.42 209.885 177.12C210.145 176.8 210.355 176.43 210.515 176.01L217.385 157.71L224.105 175.83C224.245 176.23 224.435 176.62 224.675 177C224.935 177.38 225.265 177.57 225.665 177.57H225.815V177.87H221.375V177.57ZM214.505 168.09H219.125L216.815 161.82L214.505 168.09ZM227.58 158.07H231.84C234.06 158.07 235.74 158.5 236.88 159.36C238.04 160.2 238.62 161.4 238.62 162.96C238.62 163.8 238.42 164.55 238.02 165.21C237.62 165.87 237.09 166.43 236.43 166.89C235.79 167.33 235.06 167.67 234.24 167.91C233.44 168.15 232.64 168.27 231.84 168.27H230.7V175.92C230.7 176.08 230.72 176.26 230.76 176.46C230.8 176.64 230.86 176.81 230.94 176.97C231.04 177.13 231.14 177.27 231.24 177.39C231.36 177.51 231.5 177.57 231.66 177.57H231.81V177.87H227.58V177.57H227.73C227.87 177.57 228 177.51 228.12 177.39C228.24 177.27 228.34 177.13 228.42 176.97C228.5 176.81 228.56 176.64 228.6 176.46C228.64 176.26 228.66 176.08 228.66 175.92V159.93C228.66 159.65 228.58 159.33 228.42 158.97C228.26 158.61 228.03 158.41 227.73 158.37H227.58V158.07ZM230.7 159.12V167.22H231.6C232.4 167.22 233.11 167.11 233.73 166.89C234.37 166.67 234.9 166.38 235.32 166.02C235.74 165.66 236.06 165.25 236.28 164.79C236.5 164.33 236.61 163.86 236.61 163.38C236.61 162.8 236.51 162.26 236.31 161.76C236.13 161.24 235.82 160.79 235.38 160.41C234.96 160.01 234.4 159.7 233.7 159.48C233 159.24 232.14 159.12 231.12 159.12H230.7ZM241.175 177.57H241.325C241.485 177.57 241.625 177.51 241.745 177.39C241.865 177.27 241.965 177.13 242.045 176.97C242.145 176.81 242.215 176.64 242.255 176.46C242.295 176.26 242.315 176.08 242.315 175.92V159.93C242.315 159.79 242.295 159.63 242.255 159.45C242.215 159.27 242.145 159.1 242.045 158.94C241.965 158.78 241.865 158.65 241.745 158.55C241.625 158.43 241.495 158.37 241.355 158.37H241.205V158.07H245.465V158.37H245.315C245.155 158.37 245.015 158.43 244.895 158.55C244.775 158.65 244.665 158.78 244.565 158.94C244.485 159.1 244.415 159.27 244.355 159.45C244.315 159.63 244.295 159.79 244.295 159.93V166.14L251.255 159.21C251.415 159.05 251.495 158.86 251.495 158.64C251.495 158.46 251.415 158.37 251.255 158.37V158.07H254.495V158.37C254.095 158.39 253.735 158.51 253.415 158.73C253.115 158.95 252.785 159.24 252.425 159.6L245.315 166.71C246.615 166.75 247.665 167.03 248.465 167.55C249.265 168.07 249.895 168.79 250.355 169.71L252.725 174.51C252.865 174.81 253.045 175.14 253.265 175.5C253.505 175.84 253.765 176.17 254.045 176.49C254.345 176.79 254.675 177.05 255.035 177.27C255.395 177.47 255.775 177.57 256.175 177.57V177.87H254.675C254.095 177.87 253.595 177.79 253.175 177.63C252.755 177.45 252.385 177.22 252.065 176.94C251.765 176.64 251.495 176.31 251.255 175.95C251.035 175.59 250.835 175.23 250.655 174.87L248.225 170.04C247.845 169.3 247.315 168.74 246.635 168.36C245.975 167.96 245.195 167.74 244.295 167.7V175.92C244.295 176.08 244.315 176.25 244.355 176.43C244.395 176.61 244.455 176.79 244.535 176.97C244.615 177.13 244.715 177.27 244.835 177.39C244.955 177.49 245.085 177.55 245.225 177.57H245.435V177.87H241.175V177.57ZM269.902 177.57H270.052C270.212 177.57 270.352 177.52 270.472 177.42C270.592 177.3 270.692 177.16 270.772 177C270.872 176.82 270.942 176.64 270.982 176.46C271.022 176.26 271.042 176.08 271.042 175.92V162.18L261.082 175.65V175.92C261.082 176.08 261.102 176.26 261.142 176.46C261.202 176.64 261.272 176.81 261.352 176.97C261.432 177.13 261.532 177.27 261.652 177.39C261.772 177.51 261.912 177.57 262.072 177.57H262.222V177.87H257.962V177.57H258.112C258.272 177.57 258.412 177.52 258.532 177.42C258.652 177.3 258.752 177.16 258.832 177C258.932 176.82 259.002 176.64 259.042 176.46C259.082 176.26 259.102 176.08 259.102 175.92V159.93C259.102 159.79 259.082 159.63 259.042 159.45C259.002 159.27 258.932 159.1 258.832 158.94C258.752 158.78 258.652 158.65 258.532 158.55C258.412 158.43 258.272 158.37 258.112 158.37H257.962V158.07H262.222V158.37H261.982C261.842 158.39 261.712 158.46 261.592 158.58C261.492 158.7 261.402 158.84 261.322 159C261.242 159.14 261.182 159.3 261.142 159.48C261.102 159.64 261.082 159.79 261.082 159.93V173.79L271.042 160.32V159.93C271.042 159.79 271.022 159.63 270.982 159.45C270.942 159.27 270.872 159.1 270.772 158.94C270.692 158.78 270.592 158.65 270.472 158.55C270.352 158.43 270.212 158.37 270.052 158.37H269.902V158.07H274.162V158.37H274.012C273.852 158.37 273.712 158.43 273.592 158.55C273.472 158.65 273.372 158.78 273.292 158.94C273.212 159.1 273.142 159.27 273.082 159.45C273.042 159.63 273.022 159.79 273.022 159.93V175.92C273.022 176.08 273.042 176.25 273.082 176.43C273.142 176.61 273.212 176.79 273.292 176.97C273.372 177.13 273.472 177.27 273.592 177.39C273.712 177.51 273.852 177.57 274.012 177.57H274.162V177.87H269.902V177.57Z" fill="#FFFCF4"></path><path d="M249.191 53.5085C227.47 61.4794 205.225 69.0138 182.93 75.4365C167.403 79.7028 164.069 83.0029 163.75 79.8716C162.578 76.4289 161.113 72.3052 160 69.2059C159.751 68.1204 161.834 68.0738 164.06 67.1193C189.584 58.1764 211.129 51.1134 235.838 43.6838C238.914 42.7613 241.911 41.8766 245.011 40.9715C245.834 40.8784 245.889 42.0483 246.182 42.9126C247.073 45.9304 248.362 50.6129 249.191 53.5085ZM248.983 53.4037C247.712 49.9872 245.848 45.1447 244.589 41.7311L245.342 42.1094C217.51 52.1 189.133 61.2029 160.797 69.6133L161.207 68.8101C162.253 72.215 163.835 77.4533 164.907 80.7941L164.403 80.538C192.49 71.3012 220.366 61.1855 248.983 53.4037Z" fill="#FFFCF4"></path><path d="M226.679 39.4875C226.094 35.0641 217.105 34.3278 214.911 31.4525C212.585 29.6483 208.759 22.6813 206.494 26.4558C202.952 33.3762 199.674 40.7156 199.498 48.6807C197.755 46.0674 195.631 43.7254 193.196 41.7312C176.019 28.6355 182.342 36.3533 176.872 46.2391C175.266 49.0183 170.336 51.7916 172.671 55.1965C177.973 59.0059 198.695 57.2569 201.478 54.4952C207.179 55.2955 227.731 43.1921 226.679 39.4875ZM201.853 53.3224C201.739 53.3847 201.617 53.4326 201.49 53.465C205.972 47.6854 203.5 41.9495 207.968 46.4602C205.873 48.5614 204.402 51.3551 201.853 53.3224ZM190.668 52.8771L190.694 52.816C190.694 52.9179 190.694 52.848 190.647 53.0401C190.577 53.1187 190.577 53.1623 190.668 52.8771ZM200.095 53.66C200.292 53.8084 200.497 53.9772 199.636 54.0121C196.723 53.8637 193.923 52.784 190.893 52.3591C191.585 46.0237 193.521 52.3678 200.095 53.66ZM198.639 55.1791C191.072 57.1609 179.362 55.1994 174.528 53.5523C175.835 50.3686 179.588 48.0666 179.907 44.039C180.513 41.3936 179.072 33.3733 183.288 35.326C186.874 37.2729 189.264 40.3402 192.136 43.3027C194.772 46.2652 197.594 48.5963 199.753 52.0012C197.594 49.9641 194.251 49.8506 191.377 49.318C183.467 55.8309 194.567 55.7203 199.486 54.7716C199.217 54.933 198.934 55.0694 198.639 55.1791ZM224.172 39.8105C220.07 44.9411 206.643 54.1256 202.448 53.8055C206.588 51.7684 216.575 44.4115 205.477 44.4377C204.012 46.6057 201.376 48.3722 200.887 51.3027C207.367 11.0291 208.826 28.5628 215.57 34.5286C218.207 36.8683 222.39 36.944 224.172 39.8105ZM208.53 46.7541C208.674 46.8385 208.498 46.7047 208.767 46.8967C208.677 46.8705 208.595 46.8213 208.53 46.7541ZM264.56 63.4555C213.141 63.409 220.348 62.76 211.413 65.6905C224.011 65.7895 238.073 65.9001 250.653 65.8681C254.881 65.8681 259.471 65.8186 263.374 65.8099V66.4676C263.564 88.154 264.001 105.015 264.449 124.423C235.964 123.763 207.3 123.134 178.814 123.742C178.471 108.412 178.302 91.6433 178.548 76.3592C177.103 76.6822 177.739 76.8364 177.637 78.5651C177.815 93.9249 177.727 104.992 177.344 123.46C177.472 124.38 176.676 125.343 178.981 125.273C196.773 125.64 210.015 125.564 229.225 125.299C239.456 125.093 254.684 125.008 264.619 124.514C264.642 123.329 264.988 109.331 264.973 109.814V109.232C265.372 91.0089 265.521 83.8441 265.694 65.4403C265.82 64.5003 265.756 63.7 264.56 63.4555Z" fill="#FFFCF4"></path><path d="M228.109 75.3117C228.291 76.144 228.059 78.3062 228.461 78.8737C228.587 74.2494 229.597 69.4157 228.461 64.6139C227.254 67.4368 228.056 71.8427 228.109 75.3117ZM229.384 108.738C229.278 104.541 228.613 85.7795 228.013 96.0349C227.485 103.435 227.28 110.542 227.386 117.972C227.424 119.529 227.485 120.847 227.567 122.474C227.506 123.833 227.64 123.827 227.242 123.847C227.591 122.945 227.611 123.303 227.64 123.827C222.968 124.1 219.024 124.208 214.618 124.118C215.473 104.815 216.03 85.3488 214.457 65.9788C214.457 65.1261 214.187 63.3305 214.026 65.5248C212.465 85.503 212.807 105.001 213.953 124.776C217.176 125.125 220.513 124.685 223.972 124.988C225.645 124.802 227.699 125.75 229.058 124.84C229.682 119.514 229.416 114.162 229.384 108.738ZM228.446 83.9461C228.188 84.7318 227.547 86.7369 228.393 87.9388C229.249 86.9872 228.637 85.3924 228.446 83.9461Z" fill="#FFFCF4"></path></svg> 