<?xml version="1.0" encoding="UTF-8"?> <svg xmlns="http://www.w3.org/2000/svg" width="127" height="19" viewBox="0 0 127 19" fill="none"><path d="M8.12085 1.44999C9.23019 0.745991 10.5102 0.692658 11.9609 1.28999C12.3662 1.46066 12.6755 1.64199 12.8889 1.83399C13.1235 2.00466 13.3262 2.27132 13.4969 2.63399C13.6889 2.97533 13.8062 3.41266 13.8489 3.94599C13.9129 4.45799 13.9662 5.14066 14.0089 5.99399C14.0515 6.82599 14.0409 7.82866 13.9769 9.00199C13.9342 11.5407 13.9342 13.0553 13.9769 13.546C14.0409 14.0367 14.2329 14.3247 14.5529 14.41C15.0435 14.538 15.4062 14.9113 15.6409 15.53C15.8755 16.1273 15.8862 16.7033 15.6729 17.258C15.4382 17.8767 15.1075 18.1753 14.6809 18.154C14.2542 18.1327 13.9769 17.8127 13.8489 17.194C13.7635 16.7673 13.6035 16.5007 13.3689 16.394C13.1342 16.2873 12.4942 16.1913 11.4489 16.106C9.97685 15.9993 8.12085 15.9993 5.88085 16.106L2.55285 16.298L2.45685 17.45C2.39285 18.1967 2.20085 18.5807 1.88085 18.602C1.58219 18.6233 1.32618 18.2713 1.11285 17.546C0.920852 16.7993 0.952852 16.1913 1.20885 15.722C1.46485 15.2313 1.93419 14.922 2.61685 14.794C3.12885 14.7087 3.49152 14.5487 3.70485 14.314C3.91819 14.058 4.21685 13.4287 4.60085 12.426C4.94219 11.594 5.16619 10.8793 5.27285 10.282C5.40085 9.68466 5.45419 8.95933 5.43285 8.10599C5.41152 6.27132 5.59285 4.86333 5.97685 3.88199C6.38219 2.90066 7.09685 2.08999 8.12085 1.44999ZM11.6409 3.11399C11.3849 2.85799 10.9262 2.69799 10.2649 2.63399C9.62485 2.54866 9.11285 2.60199 8.72885 2.79399C8.19552 3.07132 7.81152 3.59399 7.57685 4.36199C7.34219 5.10866 7.16085 6.38866 7.03285 8.20199C6.86219 10.4847 6.54219 12.0633 6.07285 12.938C5.60352 13.8767 5.40085 14.3673 5.46485 14.41C5.52885 14.4527 6.59552 14.4313 8.66485 14.346L11.7369 14.218L11.9609 11.242C12.1102 9.42866 12.1422 7.67933 12.0569 5.99399C11.9929 4.28732 11.8542 3.32732 11.6409 3.11399ZM26.4216 6.05799C26.9976 5.37533 27.4136 5.78066 27.6696 7.27399C27.8829 8.48999 27.9896 10.4207 27.9896 13.066C27.9896 14.3673 27.9576 15.2313 27.8936 15.658C27.8296 16.0847 27.6909 16.3407 27.4776 16.426C27.0509 16.5967 26.6989 16.4687 26.4216 16.042C26.1656 15.594 26.0269 14.922 26.0056 14.026C25.9416 12.8527 25.8029 12.3087 25.5896 12.394C25.5043 12.4153 25.4189 12.554 25.3336 12.81C25.2056 13.13 24.3096 13.834 22.6456 14.922C21.0029 15.9887 20.0003 16.522 19.6376 16.522C19.0829 16.522 18.7309 16.1273 18.5816 15.338C18.4323 14.5273 18.4216 12.9487 18.5496 10.602C18.6563 8.85266 18.7523 7.67933 18.8376 7.08199C18.9229 6.46332 19.0616 6.12199 19.2536 6.05799C19.4669 5.97266 19.6376 5.98333 19.7656 6.08999C19.9149 6.17533 20.0216 6.39933 20.0856 6.76199C20.1709 7.10332 20.2243 7.57266 20.2456 8.16999C20.2669 8.74599 20.2669 9.53533 20.2456 10.538C20.1603 13.034 20.1709 14.282 20.2776 14.282C20.4483 14.282 21.1096 13.898 22.2616 13.13C23.4136 12.3407 24.2136 11.7327 24.6616 11.306C25.0883 10.922 25.3763 10.5487 25.5256 10.186C25.6963 9.82332 25.8243 9.23666 25.9096 8.42599C26.0163 7.16733 26.1869 6.37799 26.4216 6.05799ZM34.5139 5.80199C35.1965 5.48199 35.7405 5.32199 36.1459 5.32199C36.6365 5.32199 37.1485 5.56733 37.6819 6.05799C38.2365 6.52732 38.5139 6.97532 38.5139 7.40199C38.5139 7.87132 38.3539 8.16999 38.0339 8.29799C37.7139 8.42599 37.4472 8.28732 37.2339 7.88199C36.8285 7.15666 36.1779 7.01799 35.2819 7.46599C34.4072 7.91399 33.6712 8.74599 33.0739 9.96199C32.6472 10.8367 32.4659 11.7647 32.5299 12.746C32.6152 13.706 32.9032 14.3247 33.3939 14.602C33.8205 14.8367 34.6845 14.9433 35.9859 14.922C37.2872 14.9007 38.1192 14.7727 38.4819 14.538C38.8659 14.3033 39.2285 14.2607 39.5699 14.41C39.9325 14.538 40.1139 14.8047 40.1139 15.21C40.1139 16.5113 38.1512 17.0767 34.2259 16.906C33.4152 16.8633 32.6579 16.5007 31.9539 15.818C31.2712 15.1353 30.8445 14.3353 30.6739 13.418C30.4605 12.0527 30.7379 10.602 31.5059 9.06599C32.2739 7.50866 33.2765 6.42066 34.5139 5.80199ZM45.4229 5.60999C45.4229 5.52466 45.4762 5.46066 45.5829 5.41799C45.7109 5.35399 45.8602 5.34332 46.0309 5.38599C46.2229 5.42866 46.3615 5.58866 46.4469 5.86599C46.5535 6.12199 46.6282 6.60199 46.6709 7.30599L46.7669 9.12999L49.3589 7.36999C51.0442 6.21799 52.0255 5.67399 52.3029 5.73799C53.1989 6.05799 52.5695 6.93266 50.4149 8.36199C49.7535 8.78866 49.1882 9.18332 48.7189 9.54599C48.2709 9.90866 48.0575 10.122 48.0789 10.186C48.1429 10.3353 48.9749 11.1247 50.5749 12.554C51.8762 13.7273 52.6869 14.5273 53.0069 14.954C53.3482 15.3593 53.4549 15.7327 53.3269 16.074C53.0922 16.6713 52.4629 16.5753 51.4389 15.786C50.9482 15.402 50.2975 14.8153 49.4869 14.026L46.8949 11.562L46.7989 13.706C46.7349 14.8153 46.5855 15.5727 46.3509 15.978C46.1162 16.3833 45.7749 16.5007 45.3269 16.33C45.1135 16.2447 44.9749 15.9993 44.9109 15.594C44.8469 15.1887 44.8149 14.378 44.8149 13.162V10.186L43.8869 9.80199C43.3109 9.58866 42.9482 9.33266 42.7989 9.03399C42.6495 8.73533 42.7135 8.51133 42.9909 8.36199C43.2895 8.19132 43.7375 8.18066 44.3349 8.32999C44.6762 8.41532 44.8895 8.41532 44.9749 8.32999C45.0815 8.24466 45.1455 7.98866 45.1669 7.56199C45.1882 6.94332 45.2309 6.51666 45.2949 6.28199C45.2949 6.21799 45.3055 6.11132 45.3269 5.96199C45.3695 5.79132 45.4015 5.67399 45.4229 5.60999ZM57.0721 5.44999C57.5628 4.98066 57.9574 4.68199 58.2561 4.55399C58.5761 4.42599 59.0881 4.36199 59.7921 4.36199C61.5414 4.36199 62.8641 4.87399 63.7601 5.89799C64.0588 6.21799 64.2934 6.36732 64.4641 6.34599C64.6348 6.30333 65.0508 6.03666 65.7121 5.54599C65.7548 5.50333 65.7868 5.47132 65.8081 5.44999C67.7494 3.97799 69.3921 3.92466 70.7361 5.28999C72.0374 6.61266 72.0161 8.42599 70.6721 10.73C69.6908 12.4153 68.3894 13.8767 66.7681 15.114C65.1468 16.33 63.8988 16.778 63.0241 16.458C62.2988 16.1807 61.1894 15.3167 59.6961 13.866C58.2241 12.394 57.2641 11.2313 56.8161 10.378C56.2401 9.20466 55.9734 8.25532 56.0161 7.52999C56.0588 6.80466 56.4108 6.11132 57.0721 5.44999ZM61.5841 6.34599C61.0934 6.11132 60.4854 5.99399 59.7601 5.99399C59.0561 5.97266 58.5228 6.07932 58.1601 6.31399C57.7761 6.52732 57.5948 7.03932 57.6161 7.84999C57.6374 8.63933 57.8401 9.36466 58.2241 10.026C58.4801 10.4527 59.4081 11.3807 61.0081 12.81C62.6081 14.2393 63.6001 15.0287 63.9841 15.178C64.1548 15.242 65.0401 14.4953 66.6401 12.938C68.5814 11.0607 69.7014 9.43933 70.0001 8.07399C70.2134 7.09266 69.8614 6.60199 68.9441 6.60199C68.4321 6.60199 67.8774 6.76199 67.2801 7.08199C66.6828 7.38066 66.1281 7.79666 65.6161 8.32999C65.0828 8.90599 64.6134 9.17266 64.2081 9.12999C63.8241 9.06599 63.4401 8.67133 63.0561 7.94599C62.8854 7.60466 62.6614 7.28466 62.3841 6.98599C62.1068 6.66599 61.8401 6.45266 61.5841 6.34599ZM80.2166 5.92999C80.4086 5.73799 80.5899 5.65266 80.7606 5.67399C80.9313 5.67399 81.0166 5.76999 81.0166 5.96199C81.0166 6.17533 81.6459 6.28199 82.9046 6.28199C83.8646 6.28199 84.5579 6.40999 84.9846 6.66599C85.4326 6.90066 85.5713 7.24199 85.4006 7.68999C85.3366 7.86066 85.1553 7.96732 84.8566 8.00999C84.5579 8.05266 84.0353 8.04199 83.2886 7.97799L81.3686 7.78599L81.2726 11.914C81.2086 13.898 81.1446 15.0927 81.0806 15.498C81.0166 15.882 80.8139 16.0953 80.4726 16.138C80.2166 16.1807 80.0139 16.1487 79.8646 16.042C79.7366 15.914 79.6299 15.6793 79.5446 15.338C79.4806 14.9753 79.4486 14.4633 79.4486 13.802C79.4486 13.1407 79.4593 12.2873 79.4806 11.242L79.6086 7.81799L78.0406 8.04199C77.2086 8.12732 76.3766 8.25532 75.5446 8.42599C74.9473 8.53266 74.5739 8.41533 74.4246 8.07399C74.2539 7.64732 74.3499 7.33799 74.7126 7.14599C75.0753 6.95399 75.9499 6.76199 77.3366 6.56999C79.0219 6.33532 79.9819 6.12199 80.2166 5.92999ZM92.2706 6.18599C93.9986 5.33266 95.4706 5.42866 96.6866 6.47399C97.3053 6.98599 97.6359 7.58333 97.6786 8.26599C97.7426 8.94866 97.5079 9.53532 96.9746 10.026C96.6546 10.3247 95.8973 10.6873 94.7026 11.114C93.5079 11.5193 92.2386 11.8713 90.8946 12.17C90.5319 12.2553 90.2866 12.3727 90.1586 12.522C90.0519 12.6713 89.9986 12.938 89.9986 13.322C89.9986 13.7487 90.0519 14.0153 90.1586 14.122C90.2866 14.2287 90.5853 14.282 91.0546 14.282C91.8013 14.282 92.9426 14.1327 94.4786 13.834C95.6946 13.5993 96.5266 13.5247 96.9746 13.61C97.4439 13.6953 97.6786 13.9833 97.6786 14.474C97.6786 15.0927 95.9079 15.5193 92.3666 15.754C90.5746 15.882 89.4119 15.8393 88.8786 15.626C88.3453 15.3913 88.0786 14.8473 88.0786 13.994C88.0786 12.5433 88.5053 11.018 89.3586 9.41799C90.2333 7.79666 91.2039 6.71932 92.2706 6.18599ZM95.6946 7.62599C95.2466 7.17799 94.4573 7.19933 93.3266 7.68999C92.8573 7.90333 92.3133 8.35133 91.6946 9.03399C91.0973 9.71666 90.8839 10.1433 91.0546 10.314C91.1399 10.4207 91.7159 10.346 92.7826 10.09C93.8493 9.81266 94.6599 9.53533 95.2146 9.25799C96.1533 8.76733 96.3133 8.22333 95.6946 7.62599ZM103.017 5.60999C103.017 5.52466 103.07 5.46066 103.177 5.41799C103.305 5.35399 103.454 5.34332 103.625 5.38599C103.817 5.42866 103.955 5.58866 104.041 5.86599C104.147 6.12199 104.222 6.60199 104.265 7.30599L104.361 9.12999L106.953 7.36999C108.638 6.21799 109.619 5.67399 109.897 5.73799C110.793 6.05799 110.163 6.93266 108.009 8.36199C107.347 8.78866 106.782 9.18332 106.313 9.54599C105.865 9.90866 105.651 10.122 105.673 10.186C105.737 10.3353 106.569 11.1247 108.169 12.554C109.47 13.7273 110.281 14.5273 110.601 14.954C110.942 15.3593 111.049 15.7327 110.921 16.074C110.686 16.6713 110.057 16.5753 109.033 15.786C108.542 15.402 107.891 14.8153 107.081 14.026L104.489 11.562L104.393 13.706C104.329 14.8153 104.179 15.5727 103.945 15.978C103.71 16.3833 103.369 16.5007 102.921 16.33C102.707 16.2447 102.569 15.9993 102.505 15.594C102.441 15.1887 102.409 14.378 102.409 13.162V10.186L101.481 9.80199C100.905 9.58866 100.542 9.33266 100.393 9.03399C100.243 8.73533 100.307 8.51133 100.585 8.36199C100.883 8.19132 101.331 8.18066 101.929 8.32999C102.27 8.41532 102.483 8.41532 102.569 8.32999C102.675 8.24466 102.739 7.98866 102.761 7.56199C102.782 6.94332 102.825 6.51666 102.889 6.28199C102.889 6.21799 102.899 6.11132 102.921 5.96199C102.963 5.79132 102.995 5.67399 103.017 5.60999ZM118.186 5.96199C118.869 5.74866 119.818 5.68466 121.034 5.76999C121.781 5.81266 122.325 5.89799 122.666 6.02599C123.029 6.13266 123.391 6.35666 123.754 6.69799C124.159 7.10332 124.405 7.52999 124.49 7.97799C124.597 8.40466 124.693 9.46066 124.778 11.146C124.842 12.5327 124.927 13.5567 125.034 14.218C125.162 14.8793 125.343 15.402 125.578 15.786C125.855 16.2767 125.994 16.6073 125.994 16.778C126.015 16.9273 125.909 17.1193 125.674 17.354C124.949 18.1007 124.213 17.6847 123.466 16.106L122.762 14.698L120.842 15.306C119.583 15.6687 118.325 15.9353 117.066 16.106C116.234 16.1913 115.679 16.202 115.402 16.138C115.125 16.0527 114.794 15.8287 114.41 15.466C113.919 14.9753 113.653 14.4847 113.61 13.994C113.589 13.482 113.791 12.874 114.218 12.17C115.114 10.7407 117.119 9.88732 120.234 9.60999C120.703 9.58866 121.141 9.54599 121.546 9.48199C121.951 9.41799 122.271 9.36466 122.506 9.32199C122.741 9.25799 122.858 9.20466 122.858 9.16199C122.858 8.96999 122.655 8.63933 122.25 8.16999C121.994 7.84999 121.717 7.64733 121.418 7.56199C121.141 7.47666 120.629 7.44466 119.882 7.46599C118.623 7.50866 117.813 7.64732 117.45 7.88199C117.173 8.03132 116.981 8.09532 116.874 8.07399C116.767 8.05266 116.671 7.93532 116.586 7.72199C116.458 7.38066 116.533 7.04999 116.81 6.72999C117.109 6.40999 117.567 6.15399 118.186 5.96199ZM122.73 11.274C122.837 10.9967 122.773 10.8473 122.538 10.826C122.261 10.8047 121.375 10.9007 119.882 11.114C118.581 11.3273 117.685 11.5513 117.194 11.786C116.661 12.042 116.17 12.458 115.722 13.034C115.295 13.61 115.157 14.0153 115.306 14.25C115.477 14.5273 115.957 14.6447 116.746 14.602C117.557 14.538 118.474 14.3247 119.498 13.962C120.735 13.5353 121.557 13.322 121.962 13.322C122.346 13.322 122.538 13.066 122.538 12.554C122.538 12.0847 122.602 11.658 122.73 11.274Z" fill="#253758"></path></svg> 