<?xml version="1.0" encoding="UTF-8"?> <svg xmlns="http://www.w3.org/2000/svg" width="294" height="94" viewBox="0 0 294 94" fill="none"><path d="M69.8075 75.3153C71.5144 71.674 74.217 66.9231 77.9153 61.0628L79.0248 59.3559L81.3291 55.7714L83.7187 52.1015C85.5394 49.1998 87.0472 46.7248 88.242 44.6765C91.6558 38.9869 94.1308 34.1791 95.667 30.2533C91.6842 38.2188 83.6903 47.4645 71.6851 57.9903L69.3808 59.9533C56.4084 70.8774 43.8911 79.099 31.8291 84.6179C18.5153 90.649 9.92388 91.2179 6.05491 86.3248C2.41353 81.83 4.03508 76.4533 10.9196 70.1947C17.2351 64.5619 26.1394 60.6929 37.6325 58.5878L34.8161 61.7455C25.6558 64.5334 18.0885 68.374 12.1144 73.2671C7.0506 77.4205 5.54284 81.261 7.59112 84.7886C10.1515 89.2266 17.4627 88.6007 29.5247 82.911C40.5627 77.6766 52.3118 69.9386 64.7722 59.6972L67.4179 57.4783C83.4627 43.8231 92.6515 32.5576 94.9842 23.6817C96.748 16.7972 95.5532 11.6196 91.3998 8.14895C87.5877 4.96274 81.9549 3.65412 74.5015 4.22309C67.1049 4.84895 59.5092 7.12481 51.7144 11.0507C43.2937 15.3179 36.1816 20.8369 30.3782 27.6076C27.3058 31.1921 25.3997 34.549 24.6601 37.6783C24.0342 40.4662 24.4041 42.799 25.7696 44.6765C28.9558 49.2283 36.4092 48.5455 48.1299 42.6283C48.642 42.5714 48.9265 42.7705 48.9834 43.2257C49.0972 43.6809 48.9549 44.0222 48.5566 44.2498C44.2894 47.4929 39.9653 49.3421 35.5842 49.7972C31.5446 50.2524 28.1877 49.4559 25.5135 47.4076C22.8394 45.3593 21.4739 42.5145 21.417 38.8731C21.3601 34.8334 23.0101 30.4809 26.367 25.8153C34.5032 14.436 46.2523 6.84033 61.6144 3.02826C68.3851 1.32136 74.6437 0.837741 80.3903 1.5774C86.3644 2.31705 90.9446 4.27998 94.1308 7.46619V7.38085C99.9342 12.6722 101.101 20.7231 97.6299 31.5334C96.2644 35.7438 94.1023 40.6084 91.1437 46.1274C90.0058 48.3464 88.6403 50.7929 87.0472 53.4671C86.0799 55.174 83.548 59.4128 79.4515 66.1834C78.598 67.6059 77.8015 68.9429 77.0618 70.1947L73.3067 76.8516C72.8515 77.6481 72.6808 78.3593 72.7946 78.9852V79.0705C73.3635 78.6722 76.4644 75.2869 82.0972 68.9145L83.036 67.805L83.9748 66.6955L86.023 64.3912C87.673 62.5136 89.1239 60.8636 90.3756 59.4412C93.9032 55.4584 97.0894 51.9024 99.9342 48.7731C117.117 29.8834 127.387 20.8369 130.744 21.6334C133.702 22.43 134.527 24.7059 133.219 28.461C132.251 31.4196 130.545 35.2886 128.098 40.0679C127.131 42.0024 125.964 44.2214 124.599 46.7248L122.636 50.224L120.758 53.6378C120.36 54.3205 119.592 55.6291 118.454 57.5636L117.771 58.7584L117.003 60.0386C116.377 61.0059 115.837 61.9162 115.382 62.7697C112.651 67.4921 110.631 71.5033 109.322 74.8033C105.396 84.8171 107.388 89.7955 115.296 89.7386C115.751 89.7955 116.008 89.9662 116.064 90.2507C116.064 90.5921 115.865 90.8197 115.467 90.9334C113.931 91.6162 112.139 91.6731 110.09 91.1041C107.758 90.4214 105.994 89.0843 104.799 87.0929C102.694 83.4516 103.519 77.6197 107.274 69.5972C108.526 66.98 110.204 63.8507 112.309 60.2093L113.589 58.0757L114.187 57.1369L114.784 56.1981C115.638 54.7188 116.264 53.6093 116.662 52.8696C119.279 48.0903 121.185 44.5628 122.38 42.2869C124.371 38.5317 125.936 35.4593 127.074 33.0696C129.919 27.0955 130.63 24.1369 129.208 24.1938C126.533 24.5352 117.202 33.6102 101.214 51.4188L96.6058 56.4541L94.3868 59.0145L92.1679 61.4895C88.7541 65.3015 85.9946 68.3455 83.8894 70.6214C78.1429 76.8231 74.4161 80.436 72.7092 81.4602C71.6282 81.5171 70.6894 81.1757 69.8929 80.436C69.3808 79.9809 69.0394 79.4688 68.8687 78.8998C68.7549 78.3309 68.7834 77.7903 68.9541 77.2783C69.1248 76.7662 69.4092 76.1119 69.8075 75.3153ZM165.222 57.8197C165.564 57.9903 165.649 58.2464 165.478 58.5878L165.308 58.7584C165.251 58.8722 165.137 59.0429 164.966 59.2705C164.568 59.7257 164.141 60.2378 163.686 60.8067C162.264 62.4567 160.813 63.936 159.334 65.2447C154.611 69.3412 150.657 70.7921 147.471 69.5972C144.455 68.4593 144.597 65.1024 147.897 59.5265C148.466 58.5593 149.121 57.5352 149.86 56.4541L150.799 55.0033C151.084 54.6619 151.397 54.2352 151.738 53.7231C153.047 51.9024 153.672 50.9352 153.615 50.8214C153.559 50.9352 153.274 51.305 152.762 51.9309C152.193 52.6705 151.539 53.4955 150.799 54.4059C148.808 56.8524 146.816 59.1283 144.825 61.2334C138.68 67.6059 134.356 70.5645 131.853 70.1093C130.544 69.8817 129.804 69.1136 129.634 67.805C129.292 65.3015 130.572 61.6602 133.474 56.8809L134.328 55.5153L135.181 54.2352C135.864 53.0972 136.376 52.2438 136.717 51.6748C137.741 49.911 138.339 48.574 138.509 47.6636C138.509 47.2653 138.737 46.9809 139.192 46.8102C139.59 46.6964 140.074 46.7248 140.643 46.8955C141.212 47.0662 141.639 47.3222 141.923 47.6636C142.265 48.0619 142.293 48.4886 142.009 48.9438C141.838 49.6265 141.155 51.0205 139.96 53.1257C139.505 53.8653 138.908 54.8895 138.168 56.1981L137.229 57.7343L136.205 59.3559C133.019 64.8179 131.767 67.6912 132.45 67.9757C133.303 68.2602 137.087 65.2162 143.801 58.8438C150.685 52.2438 154.497 47.6352 155.237 45.0179C155.465 44.3352 156.062 44.3352 157.029 45.0179C157.997 45.7576 158.509 46.4119 158.565 46.9809C158.565 47.7774 157.968 49.2567 156.773 51.4188C156.318 52.2722 155.692 53.3248 154.896 54.5765L153.872 56.2834L152.847 57.905C149.377 63.7084 148.068 67.0653 148.922 67.9757C149.547 68.6584 152.307 67.1791 157.2 63.5378C158.793 62.3998 160.472 61.1197 162.235 59.6972C162.804 59.2421 163.345 58.7869 163.857 58.3317C164.028 58.2179 164.17 58.1041 164.284 57.9903L164.454 57.8197C164.682 57.649 164.938 57.649 165.222 57.8197ZM195.208 57.8197C195.436 57.649 195.692 57.649 195.977 57.8197C196.318 57.9903 196.403 58.2464 196.233 58.5878L196.062 58.7584C196.005 58.8722 195.891 59.0429 195.72 59.2705C195.322 59.7257 194.895 60.2378 194.44 60.8067C193.018 62.4567 191.567 63.936 190.088 65.2447C185.365 69.3412 181.411 70.7921 178.225 69.5972C175.209 68.4593 175.352 65.1024 178.652 59.5265C179.22 58.5593 179.875 57.5352 180.614 56.4541L181.553 55.0033C181.838 54.6619 182.151 54.2352 182.492 53.7231C183.801 51.9024 184.427 50.9352 184.37 50.8214C184.313 50.9352 184.028 51.305 183.516 51.9309C182.947 52.6705 182.293 53.4955 181.553 54.4059C179.562 56.8524 177.57 59.1283 175.579 61.2334C169.434 67.6059 165.11 70.5645 162.607 70.1093C161.298 69.8817 160.558 69.1136 160.388 67.805C160.046 65.3015 161.184 61.8878 163.802 57.5636L164.484 55.8567C164.484 55.4584 164.712 55.174 165.167 55.0033C165.565 54.8895 166.049 54.9179 166.618 55.0886C167.187 55.2593 167.614 55.5153 167.898 55.8567C168.239 56.255 168.268 56.6817 167.983 57.1369L167.557 58.4171L166.533 60.0386C163.631 65.0455 162.521 67.6912 163.204 67.9757C164.058 68.2602 167.841 65.2162 174.555 58.8438C181.439 52.2438 185.252 47.6352 185.991 45.0179C186.219 44.3352 186.816 44.3352 187.783 45.0179C188.751 45.7576 189.263 46.4119 189.32 46.9809C189.32 47.7774 188.722 49.2567 187.527 51.4188C187.072 52.2722 186.446 53.3248 185.65 54.5765L184.626 56.2834L183.602 57.905C180.131 63.7084 178.822 67.0653 179.676 67.9757C180.302 68.6584 183.061 67.1791 187.954 63.5378C189.547 62.3998 191.226 61.1197 192.989 59.6972C193.558 59.2421 194.099 58.7869 194.611 58.3317C194.782 58.2179 194.924 58.1041 195.038 57.9903L195.208 57.8197ZM222.549 57.649C222.89 57.4214 223.203 57.4214 223.488 57.649C223.715 57.8765 223.744 58.1326 223.573 58.4171C222.321 60.636 220.5 62.7697 218.111 64.8179C216.063 66.5248 213.588 67.8903 210.686 68.9145C207.557 69.9955 204.683 70.3938 202.066 70.1093C197.742 69.711 194.812 67.4921 193.275 63.4524C191.967 59.8679 193.788 55.5438 198.738 50.48C200.843 48.3179 203.033 46.6679 205.309 45.53C207.756 44.2783 209.804 43.8515 211.454 44.2498C213.9 44.8757 215.294 46.0136 215.636 47.6636C215.92 49.1998 215.266 50.9067 213.673 52.7843C209.975 57.2222 204.399 59.9817 196.945 61.0628C196.49 63.2248 196.803 64.9317 197.884 66.1834C199.989 68.4593 203.175 68.9714 207.443 67.7197C209.036 67.2076 210.714 66.4964 212.478 65.586C213.957 64.7895 215.266 63.936 216.404 63.0257C217.769 62.0015 219.818 60.2093 222.549 57.649ZM200.103 54.4059C198.965 55.9421 198.055 57.6205 197.372 59.4412C201.013 58.4171 204.712 56.1412 208.467 52.6136C212.165 49.086 213.104 46.8671 211.283 45.9567C210.145 45.4446 208.154 46.4119 205.309 48.8584C204.228 49.8257 203.175 50.8783 202.151 52.0162C201.241 52.9834 200.558 53.78 200.103 54.4059ZM241.347 51.4188L242.03 50.224L242.883 48.7731C244.192 46.6679 244.932 45.2455 245.102 44.5059C245.785 44.2783 246.468 44.2498 247.151 44.4205C248.004 44.5912 248.602 44.9895 248.943 45.6153C248.659 46.4688 247.72 48.1757 246.127 50.736L245.102 52.3576L244.078 54.0645C243.225 55.43 242.514 56.6248 241.945 57.649C238.645 63.5662 238.303 67.0369 240.921 68.061C242.058 68.6869 244.647 67.5774 248.687 64.7326C252.442 62.1153 255.116 59.7541 256.709 57.649C257.392 57.649 257.79 57.9334 257.904 58.5024C251.987 66.3541 246.553 70.3084 241.603 70.3653C239.1 70.3653 237.393 69.3128 236.483 67.2076C235.458 64.9317 235.999 61.5748 238.104 57.1369C237.706 57.5352 237.308 57.905 236.909 58.2464C232.187 62.3429 228.233 63.7938 225.046 62.599C224.762 62.4852 224.477 62.3429 224.193 62.1722C223.852 63.1395 223.539 64.1636 223.254 65.2447C222.344 68.2033 221.661 70.0809 221.206 70.8774C221.035 71.3326 220.608 71.3895 219.926 71.0481C219.186 70.7067 218.759 70.0809 218.646 69.1705C218.361 66.6671 219.983 62.2576 223.51 55.9421L224.534 54.1498L225.473 52.4429C226.327 50.9636 226.952 49.8826 227.351 49.1998C228.546 46.924 229.228 45.3309 229.399 44.4205C229.399 44.0222 229.627 43.7378 230.082 43.5671C230.48 43.4533 230.964 43.4817 231.533 43.6524C232.102 43.8231 232.528 44.0791 232.813 44.4205C233.097 44.8188 233.126 45.2455 232.898 45.7007C232.557 46.9524 231.22 49.4843 228.887 53.2964C228.375 54.0929 227.92 54.8326 227.521 55.5153C226.213 58.5309 225.871 60.3515 226.497 60.9774C227.123 61.6602 229.883 60.1809 234.776 56.5395C236.369 55.4015 238.047 54.1214 239.811 52.699C240.323 52.3007 240.835 51.874 241.347 51.4188ZM292.504 57.7343C293.13 57.6774 293.528 57.9334 293.699 58.5024C287.156 67.0369 281.409 71.3041 276.459 71.3041C275.265 71.3041 274.212 71.0481 273.302 70.536C272.221 69.9671 271.566 69.1705 271.339 68.1464C270.201 63.936 271.509 57.7059 275.265 49.4559L274.155 51.0774L272.96 52.7843L270.571 56.2834C268.693 58.9007 267.043 61.0628 265.621 62.7697C261.922 67.3214 259.191 69.4834 257.427 69.2559C255.948 69.0283 254.782 68.4878 253.928 67.6343C252.961 66.724 252.648 65.6145 252.99 64.3059C254.014 60.4938 256.517 56.255 260.5 51.5895C264.824 46.4688 268.437 44.1645 271.339 44.6765C272.989 44.9041 274.127 45.4731 274.752 46.3834C277.028 43.3679 278.849 41.2343 280.215 39.9826C280.784 39.755 281.409 39.755 282.092 39.9826C282.832 40.2102 283.372 40.6369 283.714 41.2628C282.917 42.4576 281.921 44.2783 280.727 46.7248C279.247 49.7403 277.996 52.5852 276.971 55.2593C274.07 62.9972 273.842 67.5205 276.289 68.8291C277.427 69.3981 280.072 68.1748 284.226 65.1593C288.095 62.3714 290.854 59.8964 292.504 57.7343ZM257.001 66.7809C258.309 66.8947 260.671 64.8464 264.084 60.636C265.222 59.2136 266.787 57.1369 268.778 54.4059L271.168 51.0774L273.643 47.8343C273.302 46.7533 272.505 46.355 271.253 46.6395C269.831 46.8671 267.925 48.3464 265.535 51.0774C263.43 53.4102 261.41 56.1128 259.476 59.1852C256.517 64.0783 255.692 66.6102 257.001 66.7809Z" fill="#F5B1CA"></path></svg> 