<?xml version="1.0" encoding="UTF-8"?> <svg xmlns="http://www.w3.org/2000/svg" width="122" height="19" viewBox="0 0 122 19" fill="none"><path d="M8.73686 0.808867C9.24886 0.5102 9.57953 0.552867 9.72886 0.936867C9.92086 1.44887 10.0169 3.44353 10.0169 6.92087V12.9689H10.7849C11.2542 12.9689 11.6169 13.0969 11.8729 13.3529C12.1715 13.7369 12.3529 14.2595 12.4169 14.9209C12.4809 15.5822 12.4275 16.1689 12.2569 16.6809C12.0862 17.1929 11.8302 17.4489 11.4889 17.4489C11.1902 17.4489 10.9235 17.2462 10.6889 16.8409C10.4542 16.4355 10.3369 15.9769 10.3369 15.4649V14.7289L5.53686 15.0169C2.33686 15.2302 0.608859 15.2089 0.352859 14.9529C0.160859 14.7609 0.118193 12.6062 0.224859 8.48887C0.352859 4.3502 0.523526 2.1102 0.736859 1.76887C0.886193 1.51287 1.08886 1.44887 1.34486 1.57687C1.57953 1.74753 1.69686 3.79553 1.69686 7.72087V13.6409L3.71286 13.4489C5.05686 13.3209 6.15553 13.2035 7.00886 13.0969L8.35286 12.9369V6.98487C8.35286 3.0382 8.48086 0.979534 8.73686 0.808867ZM19.2599 4.23287C20.9879 3.37953 22.4599 3.47553 23.6759 4.52087C24.2945 5.03287 24.6252 5.6302 24.6679 6.31287C24.7319 6.99553 24.4972 7.5822 23.9639 8.07287C23.6439 8.37153 22.8865 8.7342 21.6919 9.16087C20.4972 9.5662 19.2279 9.9182 17.8839 10.2169C17.5212 10.3022 17.2759 10.4195 17.1479 10.5689C17.0412 10.7182 16.9879 10.9849 16.9879 11.3689C16.9879 11.7955 17.0412 12.0622 17.1479 12.1689C17.2759 12.2755 17.5745 12.3289 18.0439 12.3289C18.7905 12.3289 19.9319 12.1795 21.4679 11.8809C22.6839 11.6462 23.5159 11.5715 23.9639 11.6569C24.4332 11.7422 24.6679 12.0302 24.6679 12.5209C24.6679 13.1395 22.8972 13.5662 19.3559 13.8009C17.5639 13.9289 16.4012 13.8862 15.8679 13.6729C15.3345 13.4382 15.0679 12.8942 15.0679 12.0409C15.0679 10.5902 15.4945 9.06487 16.3479 7.46487C17.2225 5.84353 18.1932 4.7662 19.2599 4.23287ZM22.6839 5.67287C22.2359 5.22487 21.4465 5.2462 20.3159 5.73687C19.8465 5.9502 19.3025 6.3982 18.6839 7.08087C18.0865 7.76353 17.8732 8.1902 18.0439 8.36087C18.1292 8.46753 18.7052 8.39287 19.7719 8.13687C20.8385 7.85953 21.6492 7.5822 22.2039 7.30487C23.1425 6.8142 23.3025 6.2702 22.6839 5.67287ZM30.6139 3.52887C31.0832 3.18753 32.0112 3.04887 33.3979 3.11287C34.2939 3.17687 34.9019 3.27287 35.2219 3.40087C35.5632 3.52887 35.9365 3.81687 36.3419 4.26487C36.7472 4.7342 37.0032 5.13953 37.1099 5.48087C37.2165 5.8222 37.2699 6.45153 37.2699 7.36887C37.2699 9.41687 36.7899 10.9742 35.8299 12.0409C34.8699 13.0862 33.4832 13.6089 31.6699 13.6089H30.2299V15.3369C30.2299 16.4035 30.1552 17.1289 30.0059 17.5129C29.8779 17.8969 29.6325 18.0889 29.2699 18.0889C28.8859 18.0889 28.6299 17.8862 28.5019 17.4809C28.3739 17.0755 28.3099 16.2649 28.3099 15.0489C28.3099 13.7475 28.1499 12.9475 27.8299 12.6489C27.4459 12.3502 27.2752 11.8489 27.3179 11.1449C27.3392 10.6969 27.4672 10.4729 27.7019 10.4729C27.7232 10.4942 27.7552 10.5049 27.7979 10.5049C28.1179 10.6329 28.3525 9.96087 28.5019 8.48887C28.5872 7.8062 28.6299 7.01687 28.6299 6.12087C28.6299 4.45687 28.8752 3.66753 29.3659 3.75287C29.4299 3.75287 29.4939 3.7742 29.5579 3.81687C29.7925 3.9662 30.1445 3.8702 30.6139 3.52887ZM34.6459 5.16087C34.0699 4.75553 33.3765 4.58487 32.5659 4.64887C31.7765 4.71287 31.1579 4.97953 30.7099 5.44887C30.3259 5.7902 30.0912 6.15287 30.0059 6.53687C29.9419 6.89953 29.9099 7.7102 29.9099 8.96887V11.6889H31.1579C32.6512 11.6889 33.7179 11.3475 34.3579 10.6649C35.0192 9.9822 35.3499 8.84087 35.3499 7.24087C35.3499 6.60087 35.2965 6.1422 35.1899 5.86487C35.1045 5.58753 34.9232 5.35287 34.6459 5.16087ZM44.0724 4.23287C45.8004 3.37953 47.2724 3.47553 48.4884 4.52087C49.107 5.03287 49.4377 5.6302 49.4804 6.31287C49.5444 6.99553 49.3097 7.5822 48.7764 8.07287C48.4564 8.37153 47.699 8.7342 46.5044 9.16087C45.3097 9.5662 44.0404 9.9182 42.6964 10.2169C42.3337 10.3022 42.0884 10.4195 41.9604 10.5689C41.8537 10.7182 41.8004 10.9849 41.8004 11.3689C41.8004 11.7955 41.8537 12.0622 41.9604 12.1689C42.0884 12.2755 42.387 12.3289 42.8564 12.3289C43.603 12.3289 44.7444 12.1795 46.2804 11.8809C47.4964 11.6462 48.3284 11.5715 48.7764 11.6569C49.2457 11.7422 49.4804 12.0302 49.4804 12.5209C49.4804 13.1395 47.7097 13.5662 44.1684 13.8009C42.3764 13.9289 41.2137 13.8862 40.6804 13.6729C40.147 13.4382 39.8804 12.8942 39.8804 12.0409C39.8804 10.5902 40.307 9.06487 41.1604 7.46487C42.035 5.84353 43.0057 4.7662 44.0724 4.23287ZM47.4964 5.67287C47.0484 5.22487 46.259 5.2462 45.1284 5.73687C44.659 5.9502 44.115 6.3982 43.4964 7.08087C42.899 7.76353 42.6857 8.1902 42.8564 8.36087C42.9417 8.46753 43.5177 8.39287 44.5844 8.13687C45.651 7.85953 46.4617 7.5822 47.0164 7.30487C47.955 6.8142 48.115 6.2702 47.4964 5.67287ZM53.6984 3.81687C53.9117 3.5182 54.2317 3.36887 54.6584 3.36887C54.9997 3.36887 55.2877 3.53953 55.5224 3.88087C55.7784 4.2222 56.0557 4.8302 56.3544 5.70487C56.653 6.57953 57.069 7.98753 57.6024 9.92887C57.8157 10.7182 57.965 11.1129 58.0504 11.1129C58.221 11.1129 58.6477 10.1635 59.3304 8.26487C59.373 8.1582 59.5224 7.75287 59.7784 7.04887C60.4824 5.0862 60.9517 3.98753 61.1864 3.75287C61.4424 3.4542 61.741 3.3902 62.0824 3.56087C62.4237 3.73153 62.701 4.07287 62.9144 4.58487C63.0637 5.01153 63.2877 6.03553 63.5864 7.65687C63.9064 9.2782 64.173 10.8569 64.3864 12.3929C64.493 13.2035 64.4504 13.8755 64.2584 14.4089C64.0877 14.9422 63.8104 15.2089 63.4264 15.2089C63.0637 15.2089 62.7864 14.9635 62.5944 14.4729C62.4237 13.9609 62.285 13.0862 62.1784 11.8489C61.965 9.84353 61.8264 8.61687 61.7624 8.16887L61.6024 6.72887L60.8344 9.28887C60.0664 11.9555 59.0744 13.2889 57.8584 13.2889C57.261 13.2889 56.8024 13.0329 56.4824 12.5209C56.1837 11.9875 55.8744 10.9102 55.5544 9.28887C55.1064 7.0702 54.8397 5.84353 54.7544 5.60887C54.541 5.09687 54.317 5.48087 54.0824 6.76087C53.9117 7.65687 53.741 8.94753 53.5704 10.6329C53.5064 11.3369 53.4317 11.9982 53.3464 12.6169C53.261 13.2142 53.1864 13.6942 53.1224 14.0569C53.0584 14.3982 53.005 14.5689 52.9624 14.5689C52.6637 14.5689 52.429 14.1742 52.2584 13.3849C52.109 12.5955 52.0877 11.7102 52.1944 10.7289C52.3224 9.32087 52.5464 7.89153 52.8664 6.44087C53.1864 4.96887 53.4637 4.0942 53.6984 3.81687ZM68.0926 3.49687C68.5833 3.02753 68.9779 2.72887 69.2766 2.60087C69.5966 2.47287 70.1086 2.40887 70.8126 2.40887C72.5619 2.40887 73.8846 2.92087 74.7806 3.94487C75.0793 4.26487 75.3139 4.4142 75.4846 4.39287C75.6553 4.3502 76.0713 4.08353 76.7326 3.59287C76.7753 3.5502 76.8073 3.5182 76.8286 3.49687C78.7699 2.02487 80.4126 1.97153 81.7566 3.33687C83.0579 4.65953 83.0366 6.47287 81.6926 8.77687C80.7113 10.4622 79.4099 11.9235 77.7886 13.1609C76.1673 14.3769 74.9193 14.8249 74.0446 14.5049C73.3193 14.2275 72.2099 13.3635 70.7166 11.9129C69.2446 10.4409 68.2846 9.2782 67.8366 8.42487C67.2606 7.25153 66.9939 6.3022 67.0366 5.57687C67.0793 4.85153 67.4313 4.1582 68.0926 3.49687ZM72.6046 4.39287C72.1139 4.1582 71.5059 4.04087 70.7806 4.04087C70.0766 4.01953 69.5433 4.1262 69.1806 4.36087C68.7966 4.5742 68.6153 5.0862 68.6366 5.89687C68.6579 6.6862 68.8606 7.41153 69.2446 8.07287C69.5006 8.49953 70.4286 9.42753 72.0286 10.8569C73.6286 12.2862 74.6206 13.0755 75.0046 13.2249C75.1753 13.2889 76.0606 12.5422 77.6606 10.9849C79.6019 9.10753 80.7219 7.4862 81.0206 6.12087C81.2339 5.13953 80.8819 4.64887 79.9646 4.64887C79.4526 4.64887 78.8979 4.80887 78.3006 5.12887C77.7033 5.42753 77.1486 5.84353 76.6366 6.37687C76.1033 6.95287 75.6339 7.21953 75.2286 7.17687C74.8446 7.11287 74.4606 6.7182 74.0766 5.99287C73.9059 5.65153 73.6819 5.33153 73.4046 5.03287C73.1273 4.71287 72.8606 4.49953 72.6046 4.39287ZM86.9491 3.56087C87.0558 3.28353 87.1838 3.12353 87.3331 3.08087C87.5038 3.01687 87.6638 3.08087 87.8131 3.27287C87.9838 3.44353 88.1011 3.69953 88.1651 4.04087C88.2931 4.7662 88.3571 5.61953 88.3571 6.60087V8.13687L91.1731 7.94487C92.9651 7.8382 93.9251 7.75287 94.0531 7.68887C94.1171 7.62487 94.2238 6.9742 94.3731 5.73687C94.4584 4.9262 94.5544 4.40353 94.6611 4.16887C94.7678 3.9342 94.9704 3.79553 95.2691 3.75287C95.7598 3.68887 96.0691 3.9662 96.1971 4.58487C96.3464 5.1822 96.4744 6.77153 96.5811 9.35287C96.7304 12.3822 96.6558 14.0675 96.3571 14.4089C96.1011 14.7075 95.8771 14.8569 95.6851 14.8569C95.4931 14.8569 95.2478 14.6969 94.9491 14.3769C94.6078 14.0355 94.4371 13.1822 94.4371 11.8169V9.73687L91.6531 9.83287L88.8371 9.92887L88.6451 11.7849C88.4744 13.3422 88.1331 14.2382 87.6211 14.4729C87.2584 14.6222 86.9598 14.3342 86.7251 13.6089C86.6611 13.3742 86.6078 13.1075 86.5651 12.8089C86.4584 11.8915 86.1918 11.1555 85.7651 10.6009C85.4238 10.1742 85.2851 9.77953 85.3491 9.41687C85.4344 9.0542 85.7011 8.7982 86.1491 8.64887C86.4051 8.56353 86.5651 8.3822 86.6291 8.10487C86.7144 7.8062 86.7571 7.18753 86.7571 6.24887C86.7571 4.84087 86.8211 3.94487 86.9491 3.56087ZM107.255 4.10487C107.831 3.4222 108.247 3.82753 108.503 5.32087C108.716 6.53687 108.823 8.46753 108.823 11.1129C108.823 12.4142 108.791 13.2782 108.727 13.7049C108.663 14.1315 108.524 14.3875 108.311 14.4729C107.884 14.6435 107.532 14.5155 107.255 14.0889C106.999 13.6409 106.86 12.9689 106.839 12.0729C106.775 10.8995 106.636 10.3555 106.423 10.4409C106.337 10.4622 106.252 10.6009 106.167 10.8569C106.039 11.1769 105.143 11.8809 103.479 12.9689C101.836 14.0355 100.833 14.5689 100.471 14.5689C99.9159 14.5689 99.5639 14.1742 99.4146 13.3849C99.2653 12.5742 99.2546 10.9955 99.3826 8.64887C99.4893 6.89953 99.5853 5.7262 99.6706 5.12887C99.7559 4.5102 99.8946 4.16887 100.087 4.10487C100.3 4.01953 100.471 4.0302 100.599 4.13687C100.748 4.2222 100.855 4.4462 100.919 4.80887C101.004 5.1502 101.057 5.61953 101.079 6.21687C101.1 6.79287 101.1 7.5822 101.079 8.58487C100.993 11.0809 101.004 12.3289 101.111 12.3289C101.281 12.3289 101.943 11.9449 103.095 11.1769C104.247 10.3875 105.047 9.77953 105.495 9.35287C105.921 8.96887 106.209 8.59553 106.359 8.23287C106.529 7.8702 106.657 7.28353 106.743 6.47287C106.849 5.2142 107.02 4.42487 107.255 4.10487ZM115.667 4.80887C116.52 4.53153 117.139 4.39287 117.523 4.39287C117.907 4.39287 118.462 4.52087 119.187 4.77687C119.976 5.0542 120.478 5.0862 120.691 4.87287C120.99 4.5742 121.203 4.77687 121.331 5.48087C121.459 6.24887 121.523 7.78487 121.523 10.0889C121.523 12.1369 121.491 13.3742 121.427 13.8009C121.363 14.2062 121.182 14.4089 120.883 14.4089C120.584 14.4089 120.392 14.2809 120.307 14.0249C120.222 13.7689 120.147 13.1182 120.083 12.0729L119.923 9.76887L117.523 11.5929C115.582 13.0435 114.216 14.0035 113.427 14.4729C112.638 14.9209 112.115 15.0489 111.859 14.8569C111.582 14.6222 111.443 14.3662 111.443 14.0889C111.443 13.8969 112.296 13.1395 114.003 11.8169C115.71 10.4729 116.926 9.60887 117.651 9.22487C117.992 9.0542 117.875 8.91553 117.299 8.80887C117.064 8.7662 116.723 8.72353 116.275 8.68087C114.995 8.53153 114.078 8.2222 113.523 7.75287C112.99 7.28353 112.915 6.77153 113.299 6.21687C113.683 5.64087 114.472 5.17153 115.667 4.80887ZM118.931 6.24887C118.44 6.05687 118.046 5.97153 117.747 5.99287C117.448 5.99287 116.894 6.12087 116.083 6.37687C115.038 6.67553 114.91 6.9102 115.699 7.08087C116.147 7.1662 116.872 7.20887 117.875 7.20887C119.176 7.20887 119.795 7.05953 119.731 6.76087C119.71 6.61153 119.443 6.44087 118.931 6.24887Z" fill="#253758"></path></svg> 