<?xml version="1.0" encoding="UTF-8"?> <svg xmlns="http://www.w3.org/2000/svg" id="_Слой_2" data-name="Слой 2" viewBox="0 0 67.44 22.66"><defs><style> .cls-1 { fill: #29682e; stroke-width: 0px; } </style></defs><g id="_Слой_1-2" data-name="Слой 1"><g><path class="cls-1" d="M34.47,9.31c.22-.08.29-.66.74-.62.46.03.74.84.8.81,1.25-.59,2.24-1.73,3.36-2.47,1.96-1.31,3.64-2.2,5.92-3.04,1.54-.57,3.45-1.82,5.07-.36.96.87,1.59,4.08,1.46,5.17-.31,2.59-2.38,2.3-4.17,2.83-1.79.53-2.19.93-4.39.82-.49-.02-6.12-1.46-6.51-.89-.39.56.75.96,1.23,1.15,3.29,1.29,6.56,1.2,9.97.35,4.3-1.08,5.21-3.52,4.13-7.67-.41-1.56-1.11-2.98-3-3.1-2.98-.19-5.69.86-8.06,2.67-1.71,1.31-3.05,2.85-4.76,4.17.05-.23-.36.04-.1-.38.27-.42,1.9-1.97,2.24-2.29,2.84-2.73,4.68-4.32,8.59-4.96,1.22-.2,3.11-.33,4.3.66,1.19.99,2.17,4.39,2.16,5.66-.03,4.72-2.61,5.64-6.61,6.52-.2.04-1.56-.12-1.39.3.17.41,1.49,1.45,1.75,1.68,3.73,3.13,8.7,4,13.39,2.19,1.22-.47,4.35-3.32,3.18-5.09-.13-.2-.67-.04-.39-.5.29-.46,1.51-.49,1.93-.13.42.36.24.57.63.86.39.29.82-.17,1.11.6.43,1.11.67,2.47-.5,3.58-4.69,4.45-8.59,4.51-15.15,3.59-2.63-.37-6.62-3.59-8.25-5.34-2.14-2.3-3.81-1.66-5.95-3.08-.72-.47-1.34-1.01-1.16-1.8s1.04-.35,1.44-.64c.39-.29-.08-.35.63-.56,1.2-.35,2.72-.23,3.95.28.63.26.73.49.8,1.13.91-.1,1.38.41,2.41.29,1.03-.12,3.65-.7,4.48-1.07,1.43-.64,1.53-1.46,1.53-2.73,0-1.28-.57-3.09-1.65-3.89-.46-.34-1.03-.29-1.69-.2-1.22.16-3.56.98-4.53,1.47-2.64,1.33-4.2,2.97-6.41,4.64-.25.19-.64.24-.88.52-.24.28-.17.66-.37,1.06s-1.02.93-1.32.46.06-1.14-.58-1c-.07-.37.21-.1.34-.24.13-.15.2-.74.14-.88-.06-.14-.48-.18-.56-.17-.08.01.08.15.02.22-.34.43-1.03.52-1.47.77-.44.25-.69.64-1.11.88-1.59.92-3.24,1.35-4.94,1.96,0,.22.23.12.35.09.5-.11,1.19-.41,1.62-.2.15.08.08.26-.24.33s-1.65.54-2.04.56c-.38.02-.09-.39-.12-.47-3.1.27-5.81-.14-8.11-2.51-1.93-1.99-2.73-3.82-1.75-6.59.15-.42.79-1.4.89-1.75.1-.35-.05-.31-.23-.14-2.07,1.87-2.51,4.89-1.51,7.41.58,1.47,1.75,2.38,3.1,3.03,1.73.82,4.57,1.9,6.38,1.87,1.82-.03,2.99-1.07,4.5-1.68,1.52-.61,2.88-1.67,4.32-2.37.16-.08.26-.1.16.22s-1.03.72-1.38.94c-1.66,1.07-3.13,1.85-4.97,2.72-.57.27-1.48.26-2.11.79-1.24,1.03-1.93,2.99-3.42,3.98-2.8,1.86-6.32,2.78-9.48,2.95-4.35.23-9.38-.5-11.88-3.75-.9-1.17.1-.65.13-1.1.02-.45-.08-.51-.03-.78.21-.98.53-1.74,1.45-2.09.45,2.09.31,3.06,2.42,4.27,4.99,2.87,11.8,2.06,16.09-1.2,1.62-1.24,1.25-1.48,2.36-2.67-1.77-.96-4.17-.93-5.72-2.16-2.53-2.02-3.81-4.54-2.93-7.82.66-2.46,3.31-4.05,5.58-5.09,1.33-.61,3.04.09,4.22.62,1.81.81,2.64,2.11,4.14,3.27,1.5,1.16,3.34,1.91,4.67,3.41.33.37.94,2.07,1.71,1.77ZM32.32,7.69c-1.37-1.35-3.48-1.94-5.01-3.14-1.11-.87-1.78-2.21-2.98-2.95-1.21-.74-2.47-1.13-3.88-1.2.4.36.8.69,1.19,1.06,2.17,1,3.54,3.26,5.4,4.56,1.85,1.3,3.75,1.9,5.66,2.94.32.17.56.47.96.45-.62-.5-.75-1.14-1.34-1.72ZM29.12,9.26c1.23-.06,2.16.33,3.35.33-.25.58-.73.25-1.3.25s-1.36-.06-2.02.04c-2.18.33-3.48,1.42-4.6,3.29.37-.01,1.05-.04,1.32-.22.27-.17.11-.33.28-.54.52-.63,1.77-1,2.46-1.06.28-.03.48.12.08.35-.41.23-2.38.2-2.48,1.21,1.37-.6,3.01-.79,4.34-1.56.59-.34.97-.87,1.47-1.18.5-.32.9-.32,1.28-.74-1.67-.72-3.46-1.48-5.06-2.28-2.4-1.2-4.4-2.66-6.53-4.24-1.24-.92-1.43-2.58-3.27-1.08-1.03.84-2.67,4.04-2.37,5.62.39,2.07,1.96,3.7,3.68,4.72.93.55,2.38,1.08,3.46.97.46-.05.39-.68.7-1.07,1.27-1.57,3.14-2.72,5.21-2.81ZM35.09,11.11c.28-.73.73-1.37-.14-1.82.08.61-.25,1.29.14,1.82ZM40.72,10.71c-.89-.25-1.66-.4-2.59-.3.06.18.12.16.34.18.22.02.59-.02.87.02.27.03.74.17.98.21s.35.08.4-.11ZM45.59,16.61c-.07.27-.3-.03-.39-.17-.26-.38-1.03-1.38-1.3-1.57-.27-.19-1.18-.23-.81.13,2.85,2.84,6.05,5.63,10.1,5.85,5,.27,7.69.23,11.52-2.69,1.33-1.02,1.97-2.12,1.56-3.64-.21,0,.02.21-.09.26-.82.36-.92-.89-1.34-1.42-.21,1.21.43,1.27-.38,2.62-2.7,4.49-8.09,4.54-12.72,3.66-3.37-.64-4.21-2.64-6.4-4.68-.5-.47-.39-.59-1.03-.17.19.48.35-.13.63.04.27.17.72,1.51.65,1.77ZM24.3,15.68c.04-.1-1.04-.48-1.34-.11-.3.36-.91,1.66-1.36,2.13-4.44,4.6-11.73,4.75-17.27,2.17-1.88-.88-2.9-2.14-2.72-4.24-.65.35-.82,1.5-.6,2.04.22.54.82.5.92.96s-.8-.06-.97,0c2.4,2.65,6.66,3.51,9.96,3.48,4.99-.04,9.02-1.08,12.24-4.68.62-.7.87-1.05,1.13-1.74Z"></path><path class="cls-1" d="M48.99,12.5c-.19.16-1.38.4-1.68.45-1.49.26-2.94.51-4.34,0,1.04-.06,1.7-.13,2.82-.36.68-.14,2.43-.8,3.15-.41.17.1.24.17.05.33Z"></path><path class="cls-1" d="M38.61,12.41c.87.26,1.68.59,2.59.77.28.06,1.73.12,1.76.24.12.53-1.38.15-1.59.09-1.02-.25-1.86-.6-2.76-1.1Z"></path><path class="cls-1" d="M16.83,11.43c.42.34.81.68,1.21,1.02-.72-.31-1.37-.89-1.83-1.5-.09-.12-.2-.39.02-.28.22.12.46.52.6.75Z"></path><path class="cls-1" d="M25.01,2.69c.07.09-.02.27.13.44.67.73,3.02,2.02,3.25,2.73.22.71-.66-.07-.81-.17-.96-.6-2.44-1.72-2.79-2.81-.1-.32.15-.28.22-.19Z"></path></g></g></svg> 