<?xml version="1.0" encoding="UTF-8"?> <svg xmlns="http://www.w3.org/2000/svg" width="292" height="63" viewBox="0 0 292 63" fill="none"><path d="M57.4466 41.239C57.673 41.4277 57.7296 41.6352 57.6164 41.8617C57.5032 42.0881 57.3145 42.1636 57.0503 42.0881C56.1069 41.673 55.1823 41.3522 54.2765 41.1258C50.4272 47.4659 48.2006 51.8059 47.5967 54.1457C46.691 57.5044 47.4081 59.4669 49.7479 60.0329C50.6536 60.2216 51.5971 60.1084 52.5783 59.6933C53.5595 59.2404 54.2954 58.5423 54.786 57.5988C54.937 57.4478 55.1068 57.4478 55.2955 57.5988C55.5219 57.712 55.5785 57.8818 55.4653 58.1083C54.7105 59.4291 53.6161 60.2971 52.182 60.7122C50.8612 61.0896 49.5592 61.0141 48.276 60.4858C46.9174 59.9575 45.9362 59.0706 45.3324 57.8252C44.6531 56.4289 44.5776 54.7872 45.106 52.9003C45.823 50.3718 47.993 46.2205 51.6159 40.4465C50.1064 40.1446 48.2194 39.8992 45.9551 39.7106C37.3506 46.9564 29.0481 52.4097 21.0474 56.0704C12.2166 60.0707 6.51798 60.4481 3.95174 57.2025C1.53645 54.2212 2.61201 50.6548 7.17841 46.5036C11.3674 42.7674 17.2736 40.2012 24.8968 38.8048C31.1992 37.6349 37.7846 37.3896 44.6531 38.0689C55.2955 29.0116 61.3903 21.5393 62.9376 15.652C64.1075 11.0856 63.315 7.65138 60.56 5.34931C58.0315 3.23593 54.2954 2.36794 49.3516 2.74533C44.4455 3.16045 39.4074 4.67001 34.2372 7.27399C28.6518 10.1044 23.9345 13.7651 20.0851 18.256C18.0472 20.6336 16.783 22.8601 16.2923 24.9358C15.8772 26.785 16.1225 28.3323 17.0283 29.5777C19.1416 32.5968 24.0854 32.1439 31.8596 28.2191C32.1993 28.1813 32.388 28.3134 32.4257 28.6153C32.5012 28.9172 32.4068 29.1437 32.1427 29.2946C29.3123 31.4457 26.4441 32.6723 23.5382 32.9742C20.8588 33.2761 18.6322 32.7477 16.8584 31.3891C15.0847 30.0305 14.179 28.1436 14.1412 25.7283C14.1035 23.0488 15.1979 20.1618 17.4245 17.0672C22.8212 9.51945 30.6143 4.48132 40.8037 1.95281C45.2947 0.820645 49.446 0.499864 53.2576 0.99047C57.2202 1.48108 60.2581 2.78307 62.3715 4.89644V4.83984C66.2209 8.34955 66.9945 13.6896 64.6925 20.86C63.7867 23.6527 62.3526 26.8793 60.3902 30.54C59.6354 32.0118 58.7297 33.6346 57.673 35.4083C57.0315 36.5405 56.1069 38.1067 54.8992 40.1068C55.8427 40.4087 56.6918 40.7861 57.4466 41.239ZM4.97069 56.1836C6.66894 59.1272 11.5184 58.7121 19.519 54.9382C26.8404 51.4662 34.6334 46.3337 42.8983 39.5407C36.4449 39.3143 30.218 39.8992 24.2175 41.2956C17.349 42.8806 11.9335 45.2959 7.97093 48.5414C4.61217 51.2964 3.61209 53.8438 4.97069 56.1836ZM47.4835 38.4086C48.9176 38.5973 50.5404 38.8992 52.3518 39.3143L53.8803 36.9367L55.4653 34.5026C56.6729 32.5779 57.673 30.9363 58.4655 29.5777C60.7299 25.8038 62.3715 22.6148 63.3905 20.0109C60.7487 25.2943 55.4464 31.4269 47.4835 38.4086ZM57.4466 41.239C57.673 41.4277 57.7296 41.6352 57.6164 41.8617C57.5032 42.0881 57.3145 42.1636 57.0503 42.0881C56.1069 41.673 55.1823 41.3522 54.2765 41.1258C50.4272 47.4659 48.2006 51.8059 47.5967 54.1457C46.691 57.5044 47.4081 59.4669 49.7479 60.0329C50.6536 60.2216 51.5971 60.1084 52.5783 59.6933C53.5595 59.2404 54.2954 58.5423 54.786 57.5988C54.937 57.4478 55.1068 57.4478 55.2955 57.5988C55.5219 57.712 55.5785 57.8818 55.4653 58.1083C54.7105 59.4291 53.6161 60.2971 52.182 60.7122C50.8612 61.0896 49.5592 61.0141 48.276 60.4858C46.9174 59.9575 45.9362 59.0706 45.3324 57.8252C44.6531 56.4289 44.5776 54.7872 45.106 52.9003C45.823 50.3718 47.993 46.2205 51.6159 40.4465C50.1064 40.1446 48.2194 39.8992 45.9551 39.7106C37.3506 46.9564 29.0481 52.4097 21.0474 56.0704C12.2166 60.0707 6.51798 60.4481 3.95174 57.2025C1.53645 54.2212 2.61201 50.6548 7.17841 46.5036C11.3674 42.7674 17.2736 40.2012 24.8968 38.8048C31.1992 37.6349 37.7846 37.3896 44.6531 38.0689C55.2955 29.0116 61.3903 21.5393 62.9376 15.652C64.1075 11.0856 63.315 7.65138 60.56 5.34931C58.0315 3.23593 54.2954 2.36794 49.3516 2.74533C44.4455 3.16045 39.4074 4.67001 34.2372 7.27399C28.6518 10.1044 23.9345 13.7651 20.0851 18.256C18.0472 20.6336 16.783 22.8601 16.2923 24.9358C15.8772 26.785 16.1225 28.3323 17.0283 29.5777C19.1416 32.5968 24.0854 32.1439 31.8596 28.2191C32.1993 28.1813 32.388 28.3134 32.4257 28.6153C32.5012 28.9172 32.4068 29.1437 32.1427 29.2946C29.3123 31.4457 26.4441 32.6723 23.5382 32.9742C20.8588 33.2761 18.6322 32.7477 16.8584 31.3891C15.0847 30.0305 14.179 28.1436 14.1412 25.7283C14.1035 23.0488 15.1979 20.1618 17.4245 17.0672C22.8212 9.51945 30.6143 4.48132 40.8037 1.95281C45.2947 0.820645 49.446 0.499864 53.2576 0.99047C57.2202 1.48108 60.2581 2.78307 62.3715 4.89644V4.83984C66.2209 8.34955 66.9945 13.6896 64.6925 20.86C63.7867 23.6527 62.3526 26.8793 60.3902 30.54C59.6354 32.0118 58.7297 33.6346 57.673 35.4083C57.0315 36.5405 56.1069 38.1067 54.8992 40.1068C55.8427 40.4087 56.6918 40.7861 57.4466 41.239ZM4.97069 56.1836C6.66894 59.1272 11.5184 58.7121 19.519 54.9382C26.8404 51.4662 34.6334 46.3337 42.8983 39.5407C36.4449 39.3143 30.218 39.8992 24.2175 41.2956C17.349 42.8806 11.9335 45.2959 7.97093 48.5414C4.61217 51.2964 3.61209 53.8438 4.97069 56.1836ZM47.4835 38.4086C48.9176 38.5973 50.5404 38.8992 52.3518 39.3143L53.8803 36.9367L55.4653 34.5026C56.6729 32.5779 57.673 30.9363 58.4655 29.5777C60.7299 25.8038 62.3715 22.6148 63.3905 20.0109C60.7487 25.2943 55.4464 31.4269 47.4835 38.4086ZM77.9255 34.0497L78.3784 33.2572L78.9445 32.2949C79.8125 30.8985 80.3031 29.9551 80.4163 29.4644C80.8692 29.3135 81.322 29.2946 81.7749 29.4078C82.341 29.5211 82.7372 29.7852 82.9637 30.2004C82.775 30.7664 82.1523 31.8986 81.0956 33.5969L80.4163 34.6724L79.737 35.8046C79.1709 36.7103 78.6992 37.5028 78.3218 38.1821C76.1329 42.107 75.9065 44.409 77.6425 45.0883C78.3973 45.5035 80.1144 44.7676 82.7938 42.8806C85.2846 41.1446 87.0583 39.5785 88.115 38.1821C88.5679 38.1821 88.8321 38.3708 88.9075 38.7482C84.9827 43.9562 81.3786 46.579 78.0953 46.6168C76.4348 46.6168 75.3027 45.9186 74.6989 44.5223C74.0196 43.0127 74.3781 40.7861 75.7744 37.8425C75.5102 38.1067 75.2461 38.352 74.9819 38.5784C71.8496 41.2956 69.2267 42.2579 67.1133 41.4654C66.9246 41.3899 66.7359 41.2956 66.5473 41.1824C66.3208 41.8239 66.1133 42.5032 65.9246 43.2203C65.3207 45.1827 64.8679 46.4281 64.566 46.9564C64.4527 47.2583 64.1697 47.2961 63.7168 47.0696C63.2262 46.8432 62.9432 46.4281 62.8677 45.8243C62.679 44.1637 63.7546 41.239 66.0944 37.05L66.7737 35.8612L67.3964 34.729C67.9625 33.7478 68.3776 33.0308 68.6418 32.5779C69.4343 31.0684 69.8871 30.0117 70.0004 29.4078C70.0004 29.1437 70.1513 28.955 70.4532 28.8418C70.7174 28.7663 71.0382 28.7852 71.4156 28.8984C71.793 29.0116 72.076 29.1814 72.2647 29.4078C72.4534 29.672 72.4723 29.9551 72.3213 30.257C72.0949 31.0872 71.208 32.7666 69.6607 35.2951C69.3211 35.8234 69.0191 36.3141 68.755 36.7669C67.887 38.7671 67.6606 39.9747 68.0757 40.3899C68.4908 40.8427 70.3211 39.8615 73.5667 37.4462C74.6234 36.6914 75.7367 35.8423 76.9066 34.8988C77.2462 34.6347 77.5859 34.3516 77.9255 34.0497ZM96.1202 26.351C95.9693 27.7096 95.4787 29.0305 94.6484 30.3136C93.8182 31.5967 92.6671 33.6157 91.1953 36.3707C88.8178 40.7861 87.3271 44.2203 86.7232 46.6734C88.6857 43.2769 91.8746 39.5219 96.2901 35.4083C100.97 31.0684 104.102 29.2003 105.687 29.8041C106.102 29.9551 106.461 30.1815 106.763 30.4834C107.102 30.7853 107.253 31.1061 107.215 31.4457C107.178 31.5967 107.102 31.6722 106.989 31.6722C106.838 31.7099 106.744 31.691 106.706 31.6156C106.668 31.2759 106.536 31.125 106.31 31.1627C104.536 31.3137 101.102 33.8044 96.007 38.635H96.0636C95.6862 39.5407 95.4032 40.9748 95.2145 42.9372C95.0258 45.1261 95.1956 46.3526 95.724 46.6168C96.5542 47.0696 98.611 46.0507 101.894 43.5599C103.102 42.6164 104.31 41.6164 105.517 40.5597C106.612 39.5785 107.366 38.8237 107.782 38.2953C107.97 38.1444 108.159 38.1444 108.348 38.2953C108.499 38.4463 108.536 38.6161 108.461 38.8048L108.234 39.0879L107.951 39.4275L107.385 40.1068C106.895 40.7106 106.442 41.2578 106.027 41.7485C104.819 43.1448 103.687 44.2958 102.63 45.2016C99.6111 47.8055 97.1014 48.5792 95.1013 47.5225C93.2143 46.5036 92.5162 44.5034 93.0068 41.522C88.931 45.7488 86.7799 48.5981 86.5534 50.0699C86.327 50.2963 85.9873 50.334 85.5345 50.1831C85.1193 50.0321 84.8552 49.8057 84.742 49.5038C83.6853 47.2017 85.2326 42.2957 89.3838 34.7856C90.9311 32.0307 92.1765 29.8607 93.12 28.2757C94.1012 26.6529 94.4975 25.1811 94.3088 23.8602C94.8748 23.5961 95.3655 23.7659 95.7806 24.3697C96.158 24.9735 96.2712 25.634 96.1202 26.351ZM125.824 38.1821C126.051 38.0312 126.258 38.0312 126.447 38.1821C126.598 38.3331 126.617 38.5029 126.503 38.6916C125.673 40.1634 124.466 41.5786 122.88 42.9372C121.522 44.0694 119.88 44.9751 117.956 45.6544C115.88 46.3715 113.974 46.6356 112.238 46.4469C109.37 46.1828 107.426 44.711 106.407 42.0315C105.539 39.6539 106.747 36.7858 110.03 33.427C111.427 31.993 112.88 30.8985 114.389 30.1437C116.012 29.3135 117.371 29.0305 118.465 29.2946C120.088 29.7098 121.012 30.4645 121.239 31.559C121.428 32.5779 120.994 33.7101 119.937 34.9555C117.484 37.8991 113.785 39.7294 108.842 40.4465C108.54 41.8805 108.747 43.0127 109.464 43.843C110.861 45.3525 112.974 45.6922 115.804 44.8619C116.861 44.5223 117.974 44.0505 119.144 43.4467C120.126 42.9184 120.994 42.3523 121.748 41.7485C122.654 41.0692 124.013 39.8804 125.824 38.1821ZM110.936 36.031C110.181 37.05 109.578 38.1633 109.125 39.3709C111.54 38.6916 113.993 37.182 116.484 34.8422C118.937 32.5024 119.559 31.0306 118.352 30.4268C117.597 30.0871 116.276 30.7287 114.389 32.3515C113.672 32.993 112.974 33.6912 112.295 34.446C111.691 35.0875 111.238 35.6159 110.936 36.031ZM131.67 31.7288C131.443 32.5968 130.651 34.1063 129.292 36.2574L128.443 37.5594L127.594 38.9746C126.952 40.1068 126.424 41.1635 126.009 42.1447C126.613 41.4277 127.481 40.2955 128.613 38.7482L129.972 36.7669L131.387 34.8422C133.651 31.8986 135.198 30.5023 136.029 30.6532C136.519 30.7287 136.916 30.9929 137.217 31.4457C137.519 31.8231 137.67 32.2005 137.67 32.5779C137.67 33.1063 137.463 34.0497 137.048 35.4083C136.859 35.9367 136.632 36.5594 136.368 37.2764L135.689 39.2577C134.444 42.5787 133.934 44.2958 134.161 44.409C134.349 44.4845 135.764 42.2391 138.406 37.6727C139.652 35.5593 140.633 33.9931 141.35 32.9742C142.369 31.5401 143.086 30.823 143.501 30.823C143.878 30.823 144.275 31.0684 144.69 31.559C145.067 32.0118 145.218 32.4081 145.143 32.7477C145.029 33.2761 144.784 34.1629 144.407 35.4083C144.293 35.8234 144.124 36.3895 143.897 37.1066L143.388 38.918C142.482 41.8994 142.067 43.5788 142.142 43.9562C142.331 44.7864 143.803 44.5223 146.558 43.1637C147.501 42.7108 148.501 42.1824 149.558 41.5786C149.935 41.3522 150.294 41.1258 150.634 40.8993C150.936 40.7106 151.143 40.5785 151.256 40.5031C151.52 40.3144 151.728 40.3332 151.879 40.5597C151.992 40.7861 151.954 40.9937 151.766 41.1824C151.615 41.3333 151.426 41.522 151.2 41.7485C150.86 42.0126 150.52 42.2957 150.181 42.5976C149.237 43.3524 148.294 43.9939 147.35 44.5223C144.671 46.0318 142.633 46.2771 141.237 45.2582C140.444 44.6921 140.086 43.6543 140.161 42.1447C140.161 40.9371 140.444 39.4653 141.01 37.7293C141.237 37.05 141.482 36.3329 141.746 35.5781C141.973 35.0121 142.218 34.4082 142.482 33.7667L143.161 32.0684C143.048 32.1062 142.557 32.9176 141.689 34.5026L141.406 35.0687L141.067 35.6348L140.387 36.8801C139.821 37.9368 139.331 38.8426 138.916 39.5973C136.085 44.5034 134.198 46.8055 133.255 46.5036C132.123 46.1262 131.594 45.1261 131.67 43.5033C131.745 42.2579 132.179 40.5974 132.972 38.5218C133.274 37.8047 133.632 36.9934 134.047 36.0876L134.557 34.9555C134.746 34.5026 134.878 34.1818 134.953 33.9931C135.519 32.71 135.67 32.125 135.406 32.2383C134.727 32.5024 132.821 34.9177 129.689 39.4841C128.519 41.1824 127.349 42.9561 126.179 44.8053C125.122 46.4281 124.367 47.6168 123.914 48.3716C123.801 48.7113 123.518 48.7679 123.065 48.5414C122.575 48.315 122.292 47.8999 122.216 47.2961C121.99 45.6356 123.103 42.5976 125.556 38.1821L126.235 36.8801L126.915 35.6914C127.519 34.6724 127.953 33.9176 128.217 33.427C129.047 31.842 129.519 30.7476 129.632 30.1437C129.67 29.8796 129.802 29.7475 130.028 29.7475C130.255 29.7475 130.519 29.8418 130.821 30.0305C131.123 30.257 131.349 30.5211 131.5 30.823C131.689 31.125 131.745 31.4269 131.67 31.7288ZM174.878 38.2387C175.293 38.201 175.558 38.3708 175.671 38.7482C171.331 44.409 167.519 47.2395 164.236 47.2395C163.443 47.2395 162.745 47.0696 162.141 46.73C161.424 46.3526 160.99 45.8243 160.839 45.145C160.085 42.3523 160.953 38.2199 163.443 32.7477L162.708 33.8233L161.915 34.9555L160.33 37.2764C159.085 39.0124 157.99 40.4465 157.047 41.5786C154.594 44.5977 152.782 46.0318 151.612 45.8809C150.631 45.7299 149.857 45.3714 149.291 44.8053C148.65 44.2015 148.442 43.4656 148.669 42.5976C149.348 40.0691 151.008 37.2575 153.65 34.1629C156.518 30.7664 158.915 29.238 160.839 29.5777C161.934 29.7286 162.689 30.106 163.104 30.7098C164.613 28.7097 165.821 27.2945 166.727 26.4642C167.104 26.3133 167.519 26.3133 167.972 26.4642C168.463 26.6152 168.821 26.8982 169.048 27.3133C168.519 28.1059 167.859 29.3135 167.066 30.9363C166.085 32.9364 165.255 34.8234 164.576 36.5971C162.651 41.7296 162.5 44.7298 164.123 45.5978C164.878 45.9752 166.632 45.1638 169.387 43.1637C171.954 41.3145 173.784 39.6728 174.878 38.2387ZM151.329 44.2392C152.197 44.3147 153.763 42.9561 156.028 40.1634C156.783 39.2199 157.82 37.8425 159.141 36.031L160.726 33.8233L162.368 31.6722C162.141 30.9551 161.613 30.691 160.783 30.8797C159.839 31.0306 158.575 32.0118 156.99 33.8233C155.594 35.3706 154.254 37.1632 152.971 39.2011C151.008 42.4466 150.461 44.126 151.329 44.2392ZM200.177 29.6909C200.479 29.3512 200.932 29.389 201.536 29.8041C202.178 30.2947 202.517 30.7287 202.555 31.1061C202.555 31.6344 202.159 32.6156 201.366 34.0497C201.064 34.6158 200.649 35.314 200.121 36.1442L199.441 37.2764L198.762 38.352C196.46 42.2013 195.592 44.4279 196.158 45.0317C196.573 45.4846 198.404 44.5034 201.649 42.0881C202.706 41.3333 203.819 40.4842 204.989 39.5407C205.366 39.2388 205.725 38.9369 206.065 38.635C206.178 38.5595 206.272 38.484 206.348 38.4086L206.461 38.2953C206.612 38.1821 206.782 38.1821 206.97 38.2953C207.197 38.4086 207.253 38.5784 207.14 38.8048L207.027 38.918C206.989 38.9935 206.914 39.1067 206.801 39.2577C206.536 39.5596 206.253 39.8992 205.951 40.2766C205.008 41.3711 204.046 42.3523 203.064 43.2203C199.932 45.9375 197.309 46.8998 195.196 46.1073C193.196 45.3525 193.29 43.1259 195.479 39.4275C195.856 38.786 196.29 38.1067 196.781 37.3896L197.404 36.4273C197.592 36.2008 197.8 35.9178 198.026 35.5781L200.121 32.0684C198.762 32.7855 196.422 34.9366 193.101 38.5218C192.762 38.8237 192.441 39.1256 192.139 39.4275C191.837 39.6917 191.252 40.22 190.384 41.0125C190.12 41.2767 189.894 41.1635 189.705 40.6729C189.478 40.1823 189.554 39.8049 189.931 39.5407C190.95 38.5595 192.686 36.8424 195.139 34.3894C197.592 31.8986 199.272 30.3324 200.177 29.6909ZM225.686 38.2387C225.8 38.1255 225.97 38.1255 226.196 38.2387C226.385 38.352 226.422 38.5218 226.309 38.7482C225.517 40.0691 224.064 41.239 221.95 42.2579C219.837 43.2769 217.686 43.843 215.497 43.9562C213.006 46.1073 210.685 46.8243 208.534 46.1073C206.534 45.428 205.402 44.0694 205.138 42.0315C204.873 39.9559 205.609 37.8991 207.345 35.8612C207.723 33.7856 208.685 32.0684 210.232 30.7098C211.931 29.2758 213.836 28.7474 215.95 29.1248C219.044 29.6909 220.554 31.4646 220.479 34.446C220.441 37.1254 219.29 39.786 217.025 42.4278C218.648 42.1258 220.346 41.5032 222.12 40.5597C223.63 39.8049 224.818 39.0313 225.686 38.2387ZM210.006 34.5026C209.402 35.8612 209.195 37.182 209.383 38.4652C209.572 39.7483 210.119 40.7295 211.025 41.4088C211.855 42.0881 212.874 42.4844 214.082 42.5976C214.837 41.7673 215.648 40.6352 216.516 39.2011C217.761 36.9745 218.403 34.9932 218.441 33.2572C218.441 31.3325 217.573 30.3136 215.837 30.2004C214.629 30.1249 213.478 30.5211 212.384 31.3891C211.327 32.2194 210.534 33.2572 210.006 34.5026ZM209.044 45.0317C210.063 45.5223 211.327 45.1072 212.836 43.7864C211.704 43.5977 210.723 43.2014 209.893 42.5976C208.61 41.7296 207.779 40.5219 207.402 38.9746C206.76 42.2579 207.308 44.277 209.044 45.0317ZM238.022 34.8988C238.4 33.3516 238.098 32.1062 237.116 31.1627C236.324 30.3702 234.871 30.7853 232.758 32.4081C231.965 32.9742 231.173 33.6535 230.38 34.446C229.701 35.163 229.191 35.748 228.852 36.2008C226.248 39.8238 225.644 42.4089 227.04 43.9562C228.172 45.1261 229.908 45.5789 232.248 45.3148C234.814 45.0506 237.192 44.2392 239.381 42.8806C240.664 42.0881 242.57 40.5785 245.098 38.352C245.325 38.201 245.532 38.201 245.721 38.352C245.872 38.5029 245.891 38.6727 245.778 38.8614C244.381 41.3522 242.173 43.3335 239.154 44.8053C236.173 46.3149 233.173 46.9187 230.154 46.6168C227.285 46.3526 225.361 44.8619 224.38 42.1447C223.512 39.8049 224.719 36.9367 228.003 33.5402C229.399 32.1439 230.852 31.0495 232.361 30.257C233.946 29.4267 235.286 29.1437 236.381 29.4078C237.928 29.7852 238.928 30.5966 239.381 31.842C239.796 32.8987 239.702 33.9365 239.098 34.9555C238.947 35.1819 238.72 35.314 238.418 35.3517C238.117 35.3517 237.984 35.2008 238.022 34.8988ZM250.857 31.7288C250.63 32.5968 249.838 34.1063 248.479 36.2574L247.63 37.5594L246.781 38.9746C246.139 40.1068 245.611 41.1635 245.196 42.1447C245.8 41.4277 246.668 40.2955 247.8 38.7482L249.159 36.7669L250.574 34.8422C252.838 31.8986 254.385 30.5023 255.216 30.6532C255.706 30.7287 256.103 30.9929 256.404 31.4457C256.706 31.8231 256.857 32.2005 256.857 32.5779C256.857 33.1063 256.65 34.0497 256.235 35.4083C256.046 35.9367 255.819 36.5594 255.555 37.2764L254.876 39.2577C253.631 42.5787 253.121 44.2958 253.348 44.409C253.536 44.4845 254.951 42.2391 257.593 37.6727C258.839 35.5593 259.82 33.9931 260.537 32.9742C261.556 31.5401 262.273 30.823 262.688 30.823C263.065 30.823 263.462 31.0684 263.877 31.559C264.254 32.0118 264.405 32.4081 264.33 32.7477C264.216 33.2761 263.971 34.1629 263.594 35.4083C263.48 35.8234 263.311 36.3895 263.084 37.1066L262.575 38.918C261.669 41.8994 261.254 43.5788 261.329 43.9562C261.518 44.7864 262.99 44.5223 265.745 43.1637C266.688 42.7108 267.688 42.1824 268.745 41.5786C269.122 41.3522 269.481 41.1258 269.821 40.8993C270.123 40.7106 270.33 40.5785 270.443 40.5031C270.707 40.3144 270.915 40.3332 271.066 40.5597C271.179 40.7861 271.141 40.9937 270.953 41.1824C270.802 41.3333 270.613 41.522 270.387 41.7485C270.047 42.0126 269.707 42.2957 269.368 42.5976C268.424 43.3524 267.481 43.9939 266.537 44.5223C263.858 46.0318 261.82 46.2771 260.424 45.2582C259.631 44.6921 259.273 43.6543 259.348 42.1447C259.348 40.9371 259.631 39.4653 260.197 37.7293C260.424 37.05 260.669 36.3329 260.933 35.5781C261.16 35.0121 261.405 34.4082 261.669 33.7667L262.348 32.0684C262.235 32.1062 261.744 32.9176 260.876 34.5026L260.593 35.0687L260.254 35.6348L259.575 36.8801C259.008 37.9368 258.518 38.8426 258.103 39.5973C255.272 44.5034 253.385 46.8055 252.442 46.5036C251.31 46.1262 250.781 45.1261 250.857 43.5033C250.932 42.2579 251.366 40.5974 252.159 38.5218C252.461 37.8047 252.819 36.9934 253.234 36.0876L253.744 34.9555C253.933 34.5026 254.065 34.1818 254.14 33.9931C254.706 32.71 254.857 32.125 254.593 32.2383C253.914 32.5024 252.008 34.9177 248.876 39.4841C247.706 41.1824 246.536 42.9561 245.366 44.8053C244.309 46.4281 243.554 47.6168 243.101 48.3716C242.988 48.7113 242.705 48.7679 242.252 48.5414C241.762 48.315 241.479 47.8999 241.403 47.2961C241.177 45.6356 242.29 42.5976 244.743 38.1821L245.422 36.8801L246.102 35.6914C246.706 34.6724 247.14 33.9176 247.404 33.427C248.234 31.842 248.706 30.7476 248.819 30.1437C248.857 29.8796 248.989 29.7475 249.215 29.7475C249.442 29.7475 249.706 29.8418 250.008 30.0305C250.31 30.257 250.536 30.5211 250.687 30.823C250.876 31.125 250.932 31.4269 250.857 31.7288ZM283.649 31.7288C283.838 31.4646 284.008 31.2193 284.159 30.9929C283.97 30.7287 283.687 30.6532 283.31 30.7664C282.781 30.8419 282.083 31.3137 281.215 32.1816C280.46 32.8987 279.725 33.7856 279.008 34.8422C278.29 35.8612 277.781 36.7103 277.479 37.3896C277.177 38.1444 277.234 38.4652 277.649 38.352C277.687 38.3142 277.762 38.2765 277.875 38.2387C278.441 37.6727 278.97 37.1254 279.46 36.5971C279.687 36.3707 279.932 36.1065 280.196 35.8046C280.46 35.5027 280.762 35.1253 281.102 34.6724L282.121 33.5402C282.725 32.8232 283.234 32.2194 283.649 31.7288ZM280.819 37.1066C279.8 38.3142 278.781 39.4653 277.762 40.5597C273.686 44.7864 270.818 46.7489 269.158 46.4469C268.29 46.296 267.799 45.7865 267.686 44.9185C267.459 43.258 268.214 40.9937 269.95 38.1255L270.403 36.9934C270.403 36.7292 270.554 36.5405 270.856 36.4273C271.12 36.3518 271.441 36.3707 271.818 36.4839C272.196 36.5971 272.479 36.7669 272.667 36.9934C272.894 37.2575 272.913 37.5406 272.724 37.8425L272.441 38.6916L271.762 39.7672C269.837 43.0882 269.101 44.843 269.554 45.0317C270.12 45.2204 272.516 43.3146 276.743 39.3143C276.441 39.1633 276.158 38.9746 275.894 38.7482C275.328 38.2199 275.12 37.7104 275.271 37.2198C275.649 35.7857 276.724 34.1441 278.498 32.2949C280.385 30.3324 281.97 29.4456 283.253 29.6343C283.744 29.7098 284.178 29.8607 284.555 30.0871C284.593 30.0117 284.631 29.9173 284.668 29.8041C284.819 29.3512 285.216 29.3512 285.857 29.8041C286.499 30.2947 286.838 30.7287 286.876 31.1061C286.876 31.6344 286.48 32.6156 285.687 34.0497C285.385 34.6158 284.97 35.314 284.442 36.1442L283.763 37.2764L283.083 38.352C280.781 42.2013 279.913 44.4279 280.479 45.0317C280.894 45.4846 282.725 44.5034 285.97 42.0881C287.027 41.3333 288.14 40.4842 289.31 39.5407C289.688 39.2388 290.046 38.9369 290.386 38.635C290.499 38.5595 290.593 38.484 290.669 38.4086L290.782 38.2953C290.933 38.1821 291.103 38.1821 291.292 38.2953C291.518 38.4086 291.575 38.5784 291.461 38.8048L291.348 38.918C291.31 38.9935 291.235 39.1067 291.122 39.2577C290.858 39.5596 290.574 39.8992 290.273 40.2766C289.329 41.3711 288.367 42.3523 287.386 43.2203C284.253 45.9375 281.63 46.8998 279.517 46.1073C277.517 45.3525 277.611 43.1259 279.8 39.4275C280.177 38.786 280.611 38.1067 281.102 37.3896L281.725 36.4273C281.913 36.2008 282.121 35.9178 282.347 35.5781C283.215 34.3705 283.631 33.7289 283.593 33.6535C283.555 33.7289 283.366 33.9742 283.027 34.3894C282.649 34.88 282.215 35.4272 281.725 36.031C281.536 36.2952 281.328 36.5405 281.102 36.7669C281.064 36.8424 281.008 36.9179 280.932 36.9934C280.894 37.0311 280.857 37.0688 280.819 37.1066Z" fill="#D92F88"></path></svg> 