<?xml version="1.0" encoding="UTF-8"?> <svg xmlns="http://www.w3.org/2000/svg" width="220" height="76" viewBox="0 0 220 76" fill="none"><path d="M3.93144 53.7805C5.29677 54.7192 6.4061 54.1645 7.25944 52.1165C8.02744 50.1539 8.15544 48.3192 7.64344 46.6125C6.44877 47.2952 5.33944 48.6179 4.31544 50.5805C3.29144 52.5432 3.16344 53.6099 3.93144 53.7805ZM5.46744 42.2605L4.69944 40.2125C4.18744 38.5059 4.05944 37.0125 4.31544 35.7325C4.91277 33.0872 6.96077 31.4232 10.4594 30.7405C11.2274 31.5085 11.4408 32.1059 11.0994 32.5325C10.9288 32.7032 10.6728 32.8739 10.3314 33.0445L9.17944 33.5565C6.61944 35.5192 6.4061 38.5912 8.53944 42.7725C8.9661 42.4312 9.52077 42.0472 10.2034 41.6205C11.0568 41.0232 11.8674 40.5112 12.6354 40.0845C14.5981 38.8045 15.8354 38.1645 16.3474 38.1645C16.7741 38.9325 17.0301 39.4872 17.1154 39.8285C16.4328 40.0845 15.2381 40.8099 13.5314 42.0045L11.4834 43.6685L10.4594 44.4365L9.56344 45.0765C10.3314 46.3565 10.6728 47.9779 10.5874 49.9405C10.5874 52.3299 9.8621 54.0792 8.41144 55.1885C7.38744 55.9565 6.19277 56.2125 4.82744 55.9565C3.29144 55.7859 2.3101 55.1459 1.88344 54.0365C1.2861 52.3299 1.62744 50.4525 2.90744 48.4045C3.41944 47.6365 4.01677 46.8259 4.69944 45.9725L5.59544 45.0765C5.85144 44.8205 6.10744 44.5645 6.36344 44.3085L5.46744 42.2605ZM25.7104 47.1245C26.0518 47.6365 26.9904 47.0392 28.5264 45.3325C29.1238 44.7352 29.8064 43.9672 30.5744 43.0285L31.3424 41.8765C31.5984 41.6205 31.8544 41.3219 32.1104 40.9805C32.7078 40.1272 33.3904 39.7432 34.1584 39.8285C34.8411 39.9992 34.7131 40.7672 33.7744 42.1325C33.0064 43.2419 31.9824 44.5219 30.7024 45.9725C29.3371 47.5085 28.3558 48.4472 27.7584 48.7885C25.6251 49.6419 24.2171 49.3432 23.5344 47.8925C22.9371 46.6125 22.9798 44.9485 23.6624 42.9005C23.5771 42.9859 23.1078 43.4125 22.2544 44.1805C21.4864 44.9485 20.7611 45.5885 20.0784 46.1005C18.1158 47.6365 16.5371 48.1485 15.3424 47.6365C12.4411 46.2712 12.2704 43.5405 14.8304 39.4445C15.6838 38.0792 16.7504 36.7992 18.0304 35.6045C19.3958 34.1539 20.7184 33.1725 21.9984 32.6605C24.7291 31.5512 26.8198 32.1059 28.2704 34.3245C28.6971 33.8125 29.1664 33.7699 29.6784 34.1965C30.1904 34.7085 30.1904 35.4765 29.6784 36.5005L28.0144 39.4445C27.1611 40.9805 26.5638 42.2179 26.2224 43.1565C25.7104 44.6072 25.5398 45.9299 25.7104 47.1245ZM15.7264 45.2045C15.7264 45.7165 16.3238 45.5459 17.5184 44.6925C18.5424 44.0099 19.8651 42.9859 21.4864 41.6205C22.9371 40.3405 24.2171 39.1459 25.3264 38.0365C26.4358 36.7565 26.9478 35.9885 26.8624 35.7325C26.2651 33.6845 24.3024 34.0685 20.9744 36.8845C19.6944 37.9085 18.5424 39.1459 17.5184 40.5965C16.3238 42.3885 15.7264 43.9245 15.7264 45.2045ZM35.0124 31.7645C36.2071 32.2765 36.7618 32.8312 36.6764 33.4285C36.5911 33.8552 36.3778 34.7512 36.0364 36.1165L35.6524 37.7805L35.1404 39.7005C34.3724 42.8579 34.0311 45.0765 34.1164 46.3565C35.1404 46.4419 36.4204 45.0765 37.9564 42.2605C38.5538 41.2365 39.2364 39.8712 40.0044 38.1645L41.0284 36.1165L42.0524 33.9405C42.9058 33.8552 43.6311 34.1112 44.2284 34.7085L44.9964 35.6045C45.1671 35.9459 45.3378 36.1592 45.5084 36.2445C45.9351 36.5859 46.5324 36.7139 47.3004 36.6285H48.3244L49.3484 36.3725C50.8844 36.2019 51.4818 36.7992 51.1404 38.1645C48.0684 39.4445 45.4231 39.2739 43.2044 37.6525C42.7778 38.1645 42.2231 39.1459 41.5404 40.5965L40.5164 42.5165L39.4924 44.4365C37.6151 47.6792 35.8658 49.3005 34.2444 49.3005C32.8791 49.2152 32.1111 47.7645 31.9404 44.9485C31.8551 42.9005 32.1964 40.2979 32.9644 37.1405C33.7324 34.2392 34.4151 32.4472 35.0124 31.7645ZM50.3724 40.7245C55.3218 38.6765 58.4364 36.8845 59.7164 35.3485C60.3991 34.4952 60.4844 33.6845 59.9724 32.9165C59.4604 32.0632 58.3084 32.1059 56.5164 33.0445C55.3218 33.7272 54.0418 34.7939 52.6764 36.2445C51.2258 37.9512 50.4578 39.4445 50.3724 40.7245ZM56.6444 30.3565C58.2658 30.1859 59.5884 30.5699 60.6124 31.5085C61.6364 32.4472 62.0631 33.6419 61.8924 35.0925C61.2951 38.5912 57.3698 41.4072 50.1164 43.5405C50.2871 49.0872 52.7191 50.1965 57.4124 46.8685C58.9484 45.8445 60.5698 44.3939 62.2764 42.5165C62.9591 41.8339 63.5138 41.2365 63.9404 40.7245C64.3671 40.2125 64.6231 39.8712 64.7084 39.7005C65.1351 39.3592 65.5191 39.3592 65.8604 39.7005C66.2018 39.9565 66.3724 40.3405 66.3724 40.8525C65.4338 42.2179 64.3244 43.5405 63.0444 44.8205C61.5084 46.4419 59.9724 47.7645 58.4364 48.7885C54.4258 51.4339 51.2258 51.3485 48.8364 48.5325C46.6178 46.0579 46.5324 42.5165 48.5804 37.9085C50.5431 33.3005 53.2311 30.7832 56.6444 30.3565ZM101.941 35.3485C101.173 35.5192 98.4001 35.7325 93.6214 35.9885C94.8161 38.8045 94.0481 41.7485 91.3174 44.8205C88.6721 47.8925 86.0694 49.2152 83.5094 48.7885C80.5228 48.2765 79.3281 46.0579 79.9254 42.1325C80.5228 38.5485 82.0588 35.8605 84.5334 34.0685C87.4348 31.9352 90.0801 31.5939 92.4694 33.0445C93.4081 33.4712 94.6028 33.6845 96.0534 33.6845L97.9734 33.8125L99.8934 33.6845C101.344 33.5992 102.283 33.6845 102.709 33.9405C103.307 34.1965 103.051 34.6659 101.941 35.3485ZM88.1174 35.3485C86.2401 36.6285 84.8321 37.9512 83.8934 39.3165C82.6134 41.1939 82.0588 43.2419 82.2294 45.4605C83.7654 46.7405 85.9841 46.0152 88.8854 43.2845C91.7014 40.6392 92.7681 38.3779 92.0854 36.5005C89.9521 36.9272 88.6294 36.5432 88.1174 35.3485ZM109.094 47.1245C109.948 47.0392 111.569 45.5459 113.958 42.6445L115.366 40.8525L116.646 39.3165C117.5 38.1219 118.097 37.3539 118.438 37.0125C119.889 37.5245 119.377 39.3592 116.902 42.5165C115.964 43.6259 114.94 44.7779 113.83 45.9725C112.806 46.9112 112.038 47.5939 111.526 48.0205C108.454 50.4952 106.833 50.1112 106.662 46.8685C106.577 45.6739 106.748 44.3085 107.174 42.7725C107.516 41.3219 107.985 40.1699 108.582 39.3165L108.198 39.8285L107.686 40.4685C107.174 41.0659 106.748 41.5779 106.406 42.0045C105.297 43.2845 104.273 44.3512 103.334 45.2045C100.604 47.5939 98.5984 48.1485 97.3184 46.8685L97.0624 46.6125L96.8064 46.2285C96.5504 45.8872 96.4224 45.6312 96.4224 45.4605C95.9104 44.0952 96.4224 41.7059 97.9584 38.2925C99.4091 35.0499 100.774 32.9592 102.054 32.0205C102.225 32.0205 102.438 32.0632 102.694 32.1485C103.036 32.2339 103.334 32.3619 103.59 32.5325C104.188 32.9592 104.401 33.3859 104.23 33.8125C103.206 34.8365 101.926 36.9272 100.39 40.0845C98.8544 43.4125 98.3851 45.1619 98.9824 45.3325C100.006 45.5032 101.969 43.8819 104.87 40.4685C107.43 37.3965 109.436 34.6232 110.886 32.1485C111.825 30.4419 112.934 30.3992 114.214 32.0205C114.044 32.4472 113.66 33.4712 113.062 35.0925L112.166 37.2685L111.27 39.5725C109.734 43.5832 109.009 46.1005 109.094 47.1245ZM118.381 32.4045C119.661 31.6365 120.387 31.9779 120.557 33.4285C120.643 34.6232 120.387 35.8179 119.789 37.0125C120.045 36.7565 120.557 36.1592 121.325 35.2205L122.349 33.9405L123.501 32.4045C125.635 30.0152 127.683 28.7352 129.645 28.5645C130.413 28.7352 130.627 29.5885 130.285 31.1245L130.157 32.0205L130.029 32.7885C130.029 33.4712 130.2 33.9405 130.541 34.1965C130.541 34.2819 130.797 34.2819 131.309 34.1965L131.821 34.0685C131.992 34.0685 132.12 34.1112 132.205 34.1965V35.0925C132.12 35.3485 131.693 35.5619 130.925 35.7325C130.072 35.9032 129.304 35.7325 128.621 35.2205C127.939 34.5379 127.683 33.6419 127.853 32.5325C127.597 31.6792 126.232 32.8739 123.757 36.1165C121.197 39.3592 119.149 42.5592 117.613 45.7165C117.443 46.1432 117.187 46.8259 116.845 47.7645L116.461 48.7885L116.077 49.5565C114.883 50.0685 114.115 49.8552 113.773 48.9165C113.688 48.5752 113.645 48.1059 113.645 47.5085C113.731 47.0819 113.816 46.6552 113.901 46.2285C114.157 45.2045 114.712 43.6259 115.565 41.4925L116.461 38.9325C116.803 37.9939 117.101 37.2259 117.357 36.6285C117.699 35.6899 118.04 34.2819 118.381 32.4045ZM159.505 34.7085C158.14 33.3432 156.519 33.0445 154.641 33.8125C153.105 34.4952 151.612 35.8179 150.161 37.7805C148.881 39.6579 148.028 41.4499 147.601 43.1565C147.26 44.8632 147.644 45.8445 148.753 46.1005C150.289 46.4419 152.295 44.9912 154.769 41.7485C155.537 40.7245 156.433 39.4019 157.457 37.7805L158.097 36.8845L158.609 36.1165C159.036 35.4339 159.335 34.9645 159.505 34.7085ZM158.609 58.6445C159.121 58.9859 161.084 55.8712 164.497 49.3005L166.545 45.4605L167.441 43.5405L168.337 41.7485C169.703 39.1032 170.641 37.3965 171.153 36.6285C171.58 36.5432 171.964 36.6712 172.305 37.0125L172.561 37.3965L172.945 37.6525C172.007 38.9325 170.257 42.0899 167.697 47.1245L166.289 49.9405L164.881 52.7565C163.857 54.6339 163.004 56.0845 162.321 57.1085L161.809 57.8765L161.169 58.6445C160.657 59.4125 160.145 59.9672 159.633 60.3085C158.353 61.2472 157.415 60.8205 156.817 59.0285C156.732 58.8579 156.647 58.5592 156.561 58.1325V56.8525C157.073 52.3299 158.609 46.6979 161.169 39.9565L162.833 35.7325L164.497 31.5085C165.863 28.0952 166.887 25.4072 167.569 23.4445C167.228 23.7005 166.247 25.4499 164.625 28.6925C163.089 31.7645 162.193 33.7272 161.937 34.5805C162.364 35.1779 162.492 35.6045 162.321 35.8605C162.151 36.1165 161.724 36.0739 161.041 35.7325C160.785 36.1592 160.444 36.6712 160.017 37.2685L158.993 39.0605C157.969 40.6819 157.159 41.9619 156.561 42.9005C154.428 45.8872 152.465 47.5085 150.673 47.7645C147.857 47.8499 146.151 46.7405 145.553 44.4365C144.956 42.3885 145.383 40.0845 146.833 37.5245C148.199 34.8792 150.033 33.0445 152.337 32.0205C154.983 30.9112 157.585 31.2952 160.145 33.1725C160.231 33.0019 161.297 30.9965 163.345 27.1565C164.284 25.2792 165.137 23.6152 165.905 22.1645C166.929 20.2019 167.868 18.4099 168.721 16.7885C173.756 7.40186 176.572 2.75119 177.169 2.83652C178.279 2.92186 178.535 3.81786 177.937 5.52453C177.767 6.12186 177.468 6.80452 177.041 7.57253L176.657 8.34053C176.487 8.59653 176.401 8.76719 176.401 8.85253C173.671 14.6552 171.025 20.9699 168.465 27.7965C168.38 28.1379 168.081 28.9485 167.569 30.2285L167.185 31.1245L166.801 32.1485C166.545 32.9165 166.289 33.6419 166.033 34.3245C164.497 38.3352 163.217 41.8339 162.193 44.8205C158.865 54.2072 157.671 58.8152 158.609 58.6445ZM179.71 47.1245C180.052 47.6365 180.99 47.0392 182.526 45.3325C183.124 44.7352 183.806 43.9672 184.574 43.0285L185.342 41.8765C185.598 41.6205 185.854 41.3219 186.11 40.9805C186.708 40.1272 187.39 39.7432 188.158 39.8285C188.841 39.9992 188.713 40.7672 187.774 42.1325C187.006 43.2419 185.982 44.5219 184.702 45.9725C183.337 47.5085 182.356 48.4472 181.758 48.7885C179.625 49.6419 178.217 49.3432 177.534 47.8925C176.937 46.6125 176.98 44.9485 177.662 42.9005C177.577 42.9859 177.108 43.4125 176.254 44.1805C175.486 44.9485 174.761 45.5885 174.078 46.1005C172.116 47.6365 170.537 48.1485 169.342 47.6365C166.441 46.2712 166.27 43.5405 168.83 39.4445C169.684 38.0792 170.75 36.7992 172.03 35.6045C173.396 34.1539 174.718 33.1725 175.998 32.6605C178.729 31.5512 180.82 32.1059 182.27 34.3245C182.697 33.8125 183.166 33.7699 183.678 34.1965C184.19 34.7085 184.19 35.4765 183.678 36.5005L182.014 39.4445C181.161 40.9805 180.564 42.2179 180.222 43.1565C179.71 44.6072 179.54 45.9299 179.71 47.1245ZM169.726 45.2045C169.726 45.7165 170.324 45.5459 171.518 44.6925C172.542 44.0099 173.865 42.9859 175.486 41.6205C176.937 40.3405 178.217 39.1459 179.326 38.0365C180.436 36.7565 180.948 35.9885 180.862 35.7325C180.265 33.6845 178.302 34.0685 174.974 36.8845C173.694 37.9085 172.542 39.1459 171.518 40.5965C170.324 42.3885 169.726 43.9245 169.726 45.2045ZM159.7 25.4925C162.09 24.7245 164.863 23.9565 168.02 23.1885L176.596 21.0125C184.191 19.1352 189.908 17.5565 193.748 16.2765C194.26 14.9965 194.986 13.1192 195.924 10.6445L196.948 7.57253L198.1 4.50053L198.356 3.60453L198.612 2.58053C198.783 1.89786 198.996 1.51386 199.252 1.42853C200.788 0.74586 200.959 2.62319 199.764 7.06053C199.423 8.42586 198.911 10.0899 198.228 12.0525L197.844 13.2045L197.46 14.1005C197.29 14.7832 197.162 15.2099 197.076 15.3805C199.466 14.6979 202.964 13.6739 207.572 12.3085C209.194 11.7965 211.071 11.1992 213.204 10.5165L215.892 9.74853C216.916 9.40719 217.684 9.15119 218.196 8.98053C218.282 8.8952 218.452 8.93786 218.708 9.10853C219.05 9.27919 219.22 9.53519 219.22 9.87653C219.22 10.2179 218.964 10.6019 218.452 11.0285C217.855 11.4552 216.874 11.8819 215.508 12.3085C213.034 12.9912 209.876 13.9299 206.036 15.1245L201.172 16.5325L196.052 18.0685C195.967 18.2392 195.839 18.6232 195.668 19.2205L195.284 20.2445L194.9 21.5245C194.559 22.5485 194.218 23.5299 193.876 24.4685C193.45 25.7485 193.066 27.0285 192.724 28.3085C190.42 35.3059 188.5 41.5779 186.964 47.1245C181.93 64.5325 180.735 72.9379 183.38 72.3405C184.234 72.1699 184.746 72.2125 184.916 72.4685C185.428 73.0659 185.087 73.5352 183.892 73.8765C178.943 75.2419 178.772 67.1352 183.38 49.5565C184.831 44.0099 186.794 37.5672 189.268 30.2285C189.695 28.9485 190.122 27.6259 190.548 26.2605C190.89 25.3219 191.274 24.2552 191.7 23.0605C192.468 20.7565 192.895 19.4339 192.98 19.0925C190.591 19.6899 187.732 20.3725 184.404 21.1405L180.436 22.1645L176.468 23.1885C170.41 24.6392 165.076 25.9192 160.468 27.0285C160.042 27.0285 159.743 26.8579 159.572 26.5165C159.487 26.1752 159.53 25.8339 159.7 25.4925ZM195.747 40.7245C200.697 38.6765 203.811 36.8845 205.091 35.3485C205.774 34.4952 205.859 33.6845 205.347 32.9165C204.835 32.0632 203.683 32.1059 201.891 33.0445C200.697 33.7272 199.417 34.7939 198.051 36.2445C196.601 37.9512 195.833 39.4445 195.747 40.7245ZM202.019 30.3565C203.641 30.1859 204.963 30.5699 205.987 31.5085C207.011 32.4472 207.438 33.6419 207.267 35.0925C206.67 38.5912 202.745 41.4072 195.491 43.5405C195.662 49.0872 198.094 50.1965 202.787 46.8685C204.323 45.8445 205.945 44.3939 207.651 42.5165C208.334 41.8339 208.889 41.2365 209.315 40.7245C209.742 40.2125 209.998 39.8712 210.083 39.7005C210.51 39.3592 210.894 39.3592 211.235 39.7005C211.577 39.9565 211.747 40.3405 211.747 40.8525C210.809 42.2179 209.699 43.5405 208.419 44.8205C206.883 46.4419 205.347 47.7645 203.811 48.7885C199.801 51.4339 196.601 51.3485 194.211 48.5325C191.993 46.0579 191.907 42.5165 193.955 37.9085C195.918 33.3005 198.606 30.7832 202.019 30.3565Z" fill="#353434"></path></svg> 