<?xml version="1.0" encoding="UTF-8"?> <svg xmlns="http://www.w3.org/2000/svg" width="179" height="155" viewBox="0 0 179 155" fill="none"><path d="M84.786 0.188689C76.7734 0.859902 71.152 1.61502 66.7471 2.70574C61.9647 3.83841 60.3286 4.29987 57.7696 5.13889C36.165 12.2705 18.5456 26.408 9.94568 43.5239C7.09302 49.2712 3.82085 57.913 3.23354 61.395C3.10769 62.0662 2.77208 63.8701 2.43648 65.3803C0.716492 73.1831 0.422836 81.6153 1.51356 92.4386C2.14282 98.6892 7.00912 111.484 8.89691 111.862C10.3652 112.155 10.1974 110.435 8.22569 103.975C7.89009 102.926 7.51253 101.332 7.34472 100.409C7.21887 99.4863 6.84131 97.7663 6.50571 96.6337C5.49889 93.1517 5.16328 86.2718 5.66669 79.8114C6.3379 71.3373 6.58961 69.3237 7.17692 67.2681C7.38668 66.5549 7.68033 65.3383 7.80618 64.5413C8.22569 62.0242 10.6169 54.4731 11.8754 51.5365C12.1691 50.9492 12.3788 50.3619 12.3788 50.1941C12.4208 50.0263 12.6725 49.6487 12.9661 49.397C13.2178 49.1034 13.4695 48.7258 13.4695 48.558C13.4695 48.3902 13.6793 47.719 13.973 47.0478C14.2247 46.4185 14.4764 45.7892 14.4764 45.6634C14.5183 45.5375 14.9378 44.8663 15.4832 44.1112C15.9866 43.398 16.4061 42.559 16.4061 42.3073C16.4061 42.0137 16.9095 41.2166 17.4968 40.4615C18.0841 39.7483 19.7622 37.441 21.2305 35.3854C23.6217 31.9455 30.4596 24.6041 32.8508 22.8841C34.403 21.7095 39.4791 18.2275 40.6537 17.4724C42.5415 16.2559 50.0087 12.6481 52.6936 11.6413C54.078 11.1379 55.4204 10.5925 55.6301 10.4247C55.8818 10.2149 56.637 9.96323 57.3082 9.83738C58.0213 9.71153 59.993 9.20812 61.713 8.70471C66.034 7.48813 68.0056 7.02667 69.4739 6.81692C70.1871 6.73302 71.6973 6.48131 72.8719 6.22961C76.0602 5.5584 77.7382 5.43254 87.9323 5.22279C96.2805 5.05499 103.58 5.43254 110.544 6.43936C114.697 7.02667 124.136 8.99836 127.744 10.0471C146.076 15.3329 159.752 24.7719 165.667 36.2245C167.639 40.0839 169.527 44.9922 169.82 46.9219C169.862 47.2575 169.988 48.0126 170.156 48.6C170.533 50.236 170.827 52.4594 170.785 53.9277C170.785 54.6828 170.911 55.3121 171.121 55.3121C171.289 55.3121 171.456 58.2486 171.456 61.8145C171.414 65.3803 171.582 68.3168 171.75 68.3168C171.96 68.3168 171.96 68.5685 171.75 68.8203C171.582 69.1139 171.414 69.4495 171.414 69.5754C171.373 69.7012 171.205 71.0856 171.037 72.7217C170.659 76.0777 169.904 80.8182 168.897 85.7264C168.142 89.3762 168.058 89.7118 166.129 95.3751C165.457 97.4307 164.786 99.5283 164.702 99.9478C164.576 100.409 164.325 100.955 164.073 101.206C163.863 101.416 163.654 101.919 163.654 102.297C163.654 103.262 158.074 113.833 156.019 116.728C148.09 127.971 142.091 133.299 131.058 138.752C124.723 141.857 113.564 145.381 107.439 146.136C107.104 146.178 104.377 146.555 101.399 146.933C93.8893 147.94 80.465 147.94 72.83 147.017C64.1462 145.926 55.2945 143.325 50.0087 140.388C44.4712 137.284 43.3385 136.529 39.4791 133.341C37.1298 131.411 33.4381 127.635 32.3894 126.041C32.0538 125.58 31.5504 125.034 31.2567 124.825C30.7533 124.531 27.9845 119.874 26.1387 116.267C25.6772 115.302 25.0899 114.169 24.8382 113.75C24.3348 112.827 23.8314 111.484 23.7475 110.897C23.7056 110.645 23.4538 109.932 23.2021 109.303C22.9085 108.632 22.6987 107.793 22.6987 107.373C22.6987 106.996 22.5309 106.492 22.2792 106.24C22.0695 106.031 21.8178 105.276 21.7758 104.604C21.7339 103.891 21.5661 103.136 21.3983 102.926C21.2305 102.675 20.9787 101.374 20.8529 100.032C20.6851 98.6892 20.5173 97.4307 20.4334 97.3049C20.2656 97.0532 19.6363 89.6698 19.6783 88.663C19.888 83.7967 20.3914 78.427 21.0207 75.2387C21.2724 73.8544 21.5661 72.3441 21.608 71.8827C21.6919 71.4212 21.9436 70.4983 22.1953 69.869C22.489 69.2398 22.8246 68.191 22.9504 67.5617C23.1182 66.9325 23.3699 66.2193 23.5377 66.0095C23.7056 65.7578 23.9573 64.8769 24.1251 63.9959C24.2929 63.1569 24.5446 62.4437 24.7543 62.4437C24.9221 62.4437 25.4255 61.7306 25.887 60.8915C26.9358 58.836 28.404 57.1579 30.4177 55.6896C32.3474 54.2633 31.4665 54.0536 28.6977 55.2701C26.2646 56.4028 22.9924 59.8428 21.5241 62.8632C21.2305 63.4505 20.6431 64.5413 20.1817 65.2964C19.7202 66.0515 18.9651 67.8554 18.5036 69.2817C18.0002 70.708 17.4968 72.1763 17.371 72.5119C17.0354 73.3509 17.0773 73.1831 16.4061 76.0777C15.609 79.5597 15.6929 79.0143 14.8539 85.7264C14.4344 89.1664 14.5603 99.9478 15.0637 100.787C15.1895 101.038 15.3573 101.584 15.3993 102.045C15.7349 105.108 16.8676 109.806 17.2871 110.1C17.4968 110.226 17.5807 110.477 17.4549 110.687C17.329 110.897 17.4129 111.4 17.6227 111.82C17.8324 112.239 18.5036 113.917 19.1329 115.553C20.5592 119.497 24.9221 127.006 27.9426 130.866C37.2137 142.444 49.5053 149.24 67.7539 152.848C77.109 154.694 92.6727 154.945 103.454 153.519C106.936 153.016 110.124 152.554 110.586 152.47C111.047 152.344 112.18 152.177 113.103 152.009C114.026 151.883 115.83 151.421 117.088 151.002C118.347 150.54 120.234 149.953 121.283 149.701C124.304 148.862 127.324 147.73 129.967 146.429C133.239 144.835 139.742 141.353 140.329 140.892C142.846 138.836 143.475 138.375 143.895 138.375C144.146 138.375 144.356 138.207 144.356 138.039C144.356 137.871 146.202 136.235 148.467 134.473C150.691 132.711 152.914 130.698 153.334 130.027C153.795 129.355 154.676 128.516 155.347 128.139C155.977 127.719 156.732 127.006 156.983 126.503C157.277 125.999 158.116 124.992 158.871 124.279C159.668 123.524 160.297 122.853 160.297 122.727C160.297 122.601 161.346 121.133 162.563 119.455C163.821 117.777 164.786 116.267 164.702 116.141C164.576 115.973 164.87 115.512 165.332 115.092C166.296 114.211 167.429 112.114 167.429 111.233C167.429 110.897 167.807 110.268 168.226 109.806C168.688 109.303 169.149 108.296 169.275 107.541C169.443 106.786 169.82 105.947 170.156 105.653C170.492 105.359 170.701 104.982 170.575 104.814C170.45 104.646 170.659 104.269 170.995 103.975C171.331 103.681 171.624 102.8 171.624 102.045C171.624 101.248 171.792 100.619 172.044 100.619C172.253 100.619 172.589 100.116 172.715 99.4444C172.883 98.8151 173.344 97.5566 173.722 96.6337C174.812 94.0327 177.162 84.8874 176.994 83.8806C176.952 83.503 177.036 82.9996 177.162 82.7479C177.581 82.1187 178.42 77.3363 178.672 74.19C178.966 70.3305 178.966 56.3189 178.63 53.8438C178.336 51.4526 177.162 46.2927 176.616 45.0341C176.449 44.5727 176.155 43.5659 175.987 42.7688C175.861 41.9717 175.358 40.6712 174.938 39.9161C174.519 39.161 174.225 38.5318 174.309 38.5318C174.477 38.5318 172.757 35.1337 171.289 32.5328C168.604 27.9182 161.85 20.6187 157.78 17.9758C156.732 17.3046 155.683 16.5495 155.389 16.2978C155.096 16.0881 154.76 15.8783 154.592 15.8783C154.424 15.8783 153.669 15.4168 152.956 14.8295C150.942 13.3193 143.182 9.75348 137.644 7.82374C130.89 5.43254 126.905 4.34182 120.864 3.12525C112.557 1.48916 112.599 1.48916 107.02 0.985755C105.3 0.859902 103.118 0.650148 102.196 0.566246C99.3429 0.314541 86.7996 0.0208854 84.786 0.188689Z" fill="#BC9D89"></path></svg> 