<?xml version="1.0" encoding="UTF-8"?> <svg xmlns="http://www.w3.org/2000/svg" width="52" height="16" viewBox="0 0 52 16" fill="none"><path d="M15.0312 3.05078C15.0312 4.84245 13.9427 6.38932 11.7656 7.69141C10.7552 8.30599 8.89062 9.10286 6.17188 10.082C6.08854 10.1133 5.20833 10.5143 3.53125 11.2852C4.0625 11.2852 4.47396 11.3268 4.76562 11.4102C4.98438 11.4727 5.50521 11.6966 6.32812 12.082C6.96354 12.3841 7.50521 12.5352 7.95312 12.5352C8.65104 12.5352 9.18229 12.3737 9.54688 12.0508C10.0885 11.582 10.5469 11.1029 10.9219 10.6133C10.9531 10.5612 10.9948 10.5352 11.0469 10.5352C11.1406 10.5352 11.2031 10.5924 11.2344 10.707C11.151 11.082 10.6562 11.707 9.75 12.582C8.76042 13.5195 7.81771 13.9883 6.92188 13.9883C6.40104 13.9883 5.69271 13.7643 4.79688 13.3164C3.90104 12.8581 3.19792 12.6289 2.6875 12.6289C2.14583 12.6289 1.64062 12.8372 1.17188 13.2539C0.713542 13.6706 0.458333 13.8789 0.40625 13.8789C0.3125 13.8789 0.234375 13.8216 0.171875 13.707C0.0885417 13.6654 0.046875 13.6185 0.046875 13.5664C0.046875 13.4206 0.328125 13.1081 0.890625 12.6289C1.94271 11.7331 3.09375 10.9518 4.34375 10.2852C5.3125 9.85807 6.72396 9.14974 8.57812 8.16016C9.60938 7.51432 10.625 6.67578 11.625 5.64453C12.8958 4.33203 13.5312 3.25391 13.5312 2.41016C13.5312 1.59766 13.2188 1.19141 12.5938 1.19141C11.6354 1.19141 10.5052 1.71745 9.20312 2.76953C7.85938 3.86328 7.1875 4.86849 7.1875 5.78516C7.1875 6.20182 7.36458 6.41016 7.71875 6.41016C8.66667 6.41016 9.82292 5.45182 11.1875 3.53516C11.3333 3.32682 11.4479 3.02474 11.5312 2.62891C11.6042 2.28516 11.651 2.10286 11.6719 2.08203H11.7188C11.8958 2.08203 11.9844 2.36328 11.9844 2.92578C11.9844 3.73828 11.5312 4.57682 10.625 5.44141C9.72917 6.29557 8.86979 6.72266 8.04688 6.72266C7.24479 6.72266 6.84375 6.36849 6.84375 5.66016C6.84375 5.01432 7.23438 4.27474 8.01562 3.44141C8.60938 2.79557 9.28125 2.23307 10.0312 1.75391C10.9688 1.14974 11.8906 0.847656 12.7969 0.847656C14.2865 0.847656 15.0312 1.58203 15.0312 3.05078ZM26.5625 3.41016C26.5625 3.67057 26.5156 3.92578 26.4219 4.17578C25.8802 5.64453 24.7344 6.44661 22.9844 6.58203C22.7031 6.59245 22.276 6.61328 21.7031 6.64453C21.526 6.6862 21.2656 6.72786 20.9219 6.76953C22.2865 7.21745 22.9688 8.02474 22.9688 9.19141C22.9688 10.4831 22.2656 11.6445 20.8594 12.6758C19.5573 13.6341 18.2344 14.1133 16.8906 14.1133C15.4844 14.1133 14.4688 13.7383 13.8438 12.9883C13.4792 12.5404 13.2969 12.0612 13.2969 11.5508C13.2969 10.3841 13.8073 9.80078 14.8281 9.80078C15.6719 9.80078 16.0938 10.1966 16.0938 10.9883C16.0938 11.8008 15.6719 12.207 14.8281 12.207C14.5677 12.207 14.3177 12.1289 14.0781 11.9727V12.1133C14.0781 12.6029 14.3229 12.9831 14.8125 13.2539C15.2188 13.4935 15.6823 13.6133 16.2031 13.6133C16.5885 13.6133 16.9583 13.5247 17.3125 13.3477C19.3854 12.3268 20.7188 10.7122 21.3125 8.50391C21.375 8.26432 21.4062 8.07161 21.4062 7.92578C21.4062 7.26953 21.0885 6.94141 20.4531 6.94141C19.7552 6.94141 19.3385 7.14974 19.2031 7.56641C19.0677 7.97266 18.8177 8.17578 18.4531 8.17578C17.9948 8.17578 17.7656 7.97266 17.7656 7.56641C17.7656 7.02474 18.1719 6.6862 18.9844 6.55078C19.6302 6.50911 20.2708 6.46224 20.9062 6.41016C22.5417 6.23307 23.8073 5.44661 24.7031 4.05078C24.9635 3.64453 25.0938 3.26432 25.0938 2.91016C25.0938 2.07682 24.5781 1.66016 23.5469 1.66016C23.4219 1.66016 23.1927 1.71224 22.8594 1.81641C22.5365 1.91016 22.349 1.99349 22.2969 2.06641C22.2969 2.12891 22.2396 2.25911 22.125 2.45703C22.3958 2.67578 22.5312 2.96224 22.5312 3.31641C22.5312 4.08724 22.1667 4.47266 21.4375 4.47266C20.7292 4.47266 20.375 4.08724 20.375 3.31641C20.375 2.60807 20.8229 2.09766 21.7188 1.78516C22.5521 1.49349 23.2656 1.34766 23.8594 1.34766C24.5573 1.34766 25.1615 1.51432 25.6719 1.84766C26.2656 2.23307 26.5625 2.75391 26.5625 3.41016ZM26.2656 13.1445C26.2656 13.4049 26.0417 13.7643 25.5938 14.2227C25.1458 14.6914 24.7865 14.9622 24.5156 15.0352C24.4948 15.0247 24.4844 15.0039 24.4844 14.9727C24.4844 14.931 24.5729 14.7695 24.75 14.4883C24.9167 14.207 25 14.0247 25 13.9414C25 13.931 24.9948 13.9206 24.9844 13.9102C24.6094 13.8685 24.4219 13.6602 24.4219 13.2852C24.4219 12.6081 24.7396 12.2695 25.375 12.2695C25.9688 12.2695 26.2656 12.5612 26.2656 13.1445ZM28.9062 8.08203C28.9062 8.4987 28.5781 8.79557 27.9219 8.97266C27.349 8.91016 27.0625 8.66536 27.0625 8.23828C27.0625 7.5612 27.3802 7.22266 28.0156 7.22266C28.6094 7.22266 28.9062 7.50911 28.9062 8.08203ZM41.5 4.62891C41.5 4.77474 41.1927 5.09766 40.5781 5.59766C40.3177 5.80599 40.026 5.91536 39.7031 5.92578C39.1302 7.09245 37.9844 8.58724 36.2656 10.4102C34.4219 12.3685 33.0208 13.4727 32.0625 13.7227C31.7917 13.7956 31.5469 13.832 31.3281 13.832C30.7865 13.832 30.3646 13.5872 30.0625 13.0977C29.7917 12.6706 29.6562 12.1758 29.6562 11.6133C29.6562 11.0195 29.8333 10.332 30.1875 9.55078C30.7708 8.2487 31.3177 7.29036 31.8281 6.67578C32.7969 5.47786 33.9948 4.3737 35.4219 3.36328C37.5677 1.84245 39.0156 1.08203 39.7656 1.08203C40.599 1.08203 41.0156 1.5612 41.0156 2.51953C41.0156 3.50911 40.6667 4.45703 39.9688 5.36328L40 5.42578C40.2396 5.40495 40.5104 5.24349 40.8125 4.94141C41.1146 4.62891 41.3021 4.47266 41.375 4.47266C41.4583 4.47266 41.5 4.52474 41.5 4.62891ZM40.5312 2.28516C40.5104 1.83724 40.3438 1.61328 40.0312 1.61328C39.375 1.61328 38.4115 2.31641 37.1406 3.72266C36.3177 4.72266 35.4948 5.72266 34.6719 6.72266C32.1615 9.68099 30.9062 11.6549 30.9062 12.6445C30.9062 13.1654 31.1146 13.4258 31.5312 13.4258C32.125 13.4258 32.8438 13.0716 33.6875 12.3633C34.4792 11.7174 35.5104 10.6549 36.7812 9.17578C38.1354 7.60286 38.9792 6.44661 39.3125 5.70703C38.9792 5.71745 38.8125 5.48828 38.8125 5.01953C38.8125 4.48828 38.9688 3.94141 39.2812 3.37891C39.6354 2.73307 40.0521 2.36849 40.5312 2.28516ZM51.875 4.62891C51.875 4.77474 51.5677 5.09766 50.9531 5.59766C50.6927 5.80599 50.401 5.91536 50.0781 5.92578C49.5052 7.09245 48.3594 8.58724 46.6406 10.4102C44.7969 12.3685 43.3958 13.4727 42.4375 13.7227C42.1667 13.7956 41.9219 13.832 41.7031 13.832C41.1615 13.832 40.7396 13.5872 40.4375 13.0977C40.1667 12.6706 40.0312 12.1758 40.0312 11.6133C40.0312 11.0195 40.2083 10.332 40.5625 9.55078C41.1458 8.2487 41.6927 7.29036 42.2031 6.67578C43.1719 5.47786 44.3698 4.3737 45.7969 3.36328C47.9427 1.84245 49.3906 1.08203 50.1406 1.08203C50.974 1.08203 51.3906 1.5612 51.3906 2.51953C51.3906 3.50911 51.0417 4.45703 50.3438 5.36328L50.375 5.42578C50.6146 5.40495 50.8854 5.24349 51.1875 4.94141C51.4896 4.62891 51.6771 4.47266 51.75 4.47266C51.8333 4.47266 51.875 4.52474 51.875 4.62891ZM50.9062 2.28516C50.8854 1.83724 50.7188 1.61328 50.4062 1.61328C49.75 1.61328 48.7865 2.31641 47.5156 3.72266C46.6927 4.72266 45.8698 5.72266 45.0469 6.72266C42.5365 9.68099 41.2812 11.6549 41.2812 12.6445C41.2812 13.1654 41.4896 13.4258 41.9062 13.4258C42.5 13.4258 43.2188 13.0716 44.0625 12.3633C44.8542 11.7174 45.8854 10.6549 47.1562 9.17578C48.5104 7.60286 49.3542 6.44661 49.6875 5.70703C49.3542 5.71745 49.1875 5.48828 49.1875 5.01953C49.1875 4.48828 49.3438 3.94141 49.6562 3.37891C50.0104 2.73307 50.4271 2.36849 50.9062 2.28516Z" fill="#28682E"></path></svg> 