<?xml version="1.0" encoding="UTF-8"?> <svg xmlns="http://www.w3.org/2000/svg" width="430" height="219" viewBox="0 0 430 219" fill="none"><path d="M130.238 21.6762L130.525 28.3587H129.232C127.795 24.0474 124.202 22.1073 120.393 22.1073C116.226 22.1073 112.992 24.4785 112.992 29.0054C112.992 32.0234 114.501 35.5443 117.16 38.4185L126.932 48.9813C130.884 53.2926 132.896 57.6758 132.896 61.4842C132.896 67.7356 127.795 72.4062 119.316 72.4062C115.292 72.4062 110.549 71.2565 107.244 68.7416L107.028 62.059H108.322C109.974 67.52 114.789 70.2505 119.316 70.2505C123.986 70.2505 127.148 67.4482 127.148 62.8494C127.148 59.9752 125.783 56.6698 122.621 53.2926L112.849 42.7299C109.112 38.7059 107.172 34.3946 107.172 30.5863C107.172 24.6222 111.843 19.9516 119.819 19.9516C123.124 19.9516 126.789 20.4546 130.238 21.6762ZM139.459 21.245H146.716V21.748C146.716 23.0414 147.004 24.8378 148.441 28.7899L162.381 68.023L175.889 20.0953H176.177L191.195 67.8793L203.123 28.7899C204.416 24.6941 204.632 23.0414 204.632 21.748V21.245H208.009V21.5325C207.29 22.8977 206.716 24.6222 205.422 28.7899L192.344 71.5439C190.692 71.5439 188.321 72.1188 186.812 73.0529L174.381 33.2449L163.602 71.5439C161.95 71.5439 159.578 72.1188 158.069 73.0529L142.333 28.7899C140.824 24.6222 140.177 22.8977 139.459 21.5325V21.245ZM215.915 21.245H244.513V23.76H244.298C242.861 23.4726 241.495 23.4007 237.687 23.4007H222.382V36.5503H238.909V38.7059H222.382V69.3883H239.627C244.154 69.3883 245.016 69.3883 246.884 68.8853H247.172V71.5439H215.915V71.2565C216.274 69.3883 216.274 68.526 216.274 63.9991V28.7899C216.274 24.263 216.274 23.4007 215.915 21.5325V21.245ZM255.07 21.245H283.669V23.76H283.453C282.016 23.4726 280.651 23.4007 276.843 23.4007H261.537V36.5503H278.064V38.7059H261.537V69.3883H278.783C283.31 69.3883 284.172 69.3883 286.04 68.8853H286.328V71.5439H255.07V71.2565C255.43 69.3883 255.43 68.526 255.43 63.9991V28.7899C255.43 24.263 255.43 23.4007 255.07 21.5325V21.245ZM288.837 21.245H321.819V23.9037H321.531C319.663 23.4007 318.801 23.4007 314.992 23.4007H308.382V63.9991C308.382 68.3104 308.453 69.3164 308.669 70.7535L308.741 71.2565V71.5439H301.915V71.2565L301.986 70.7535C302.202 69.3164 302.274 68.3104 302.274 63.9991V23.4007H295.663C291.855 23.4007 290.993 23.4007 289.124 23.9037H288.837V21.245Z" fill="#BC9D89" fill-opacity="0.08"></path><path d="M117.703 170.12H117.853C118.013 170.12 118.153 170.07 118.273 169.97C118.393 169.85 118.493 169.71 118.573 169.55C118.653 169.37 118.713 169.19 118.753 169.01C118.793 168.81 118.813 168.63 118.813 168.47V152.48C118.813 152.34 118.783 152.18 118.723 152C118.683 151.82 118.623 151.65 118.543 151.49C118.463 151.33 118.363 151.2 118.243 151.1C118.123 150.98 117.993 150.92 117.853 150.92H117.703V150.62H133.063V150.92H132.823C132.683 150.92 132.563 150.98 132.463 151.1C132.363 151.2 132.273 151.34 132.193 151.52C132.133 151.68 132.083 151.85 132.043 152.03C132.003 152.21 131.983 152.36 131.983 152.48V168.47C131.983 168.63 131.993 168.8 132.013 168.98C132.053 169.16 132.103 169.34 132.163 169.52C132.243 169.68 132.333 169.82 132.433 169.94C132.553 170.06 132.683 170.12 132.823 170.12H133.063V170.42H128.863V170.12H129.133C129.273 170.12 129.393 170.06 129.493 169.94C129.613 169.82 129.703 169.68 129.763 169.52C129.843 169.36 129.893 169.19 129.913 169.01C129.953 168.81 129.973 168.63 129.973 168.47V151.67H120.823V168.47C120.823 168.63 120.843 168.81 120.883 169.01C120.923 169.19 120.973 169.36 121.033 169.52C121.113 169.68 121.213 169.82 121.333 169.94C121.453 170.06 121.593 170.12 121.753 170.12H121.903V170.42H117.703V170.12ZM135.896 150.62H140.156C142.376 150.62 144.056 151.05 145.196 151.91C146.356 152.75 146.936 153.95 146.936 155.51C146.936 156.35 146.736 157.1 146.336 157.76C145.936 158.42 145.406 158.98 144.746 159.44C144.106 159.88 143.376 160.22 142.556 160.46C141.756 160.7 140.956 160.82 140.156 160.82H139.016V168.47C139.016 168.63 139.036 168.81 139.076 169.01C139.116 169.19 139.176 169.36 139.256 169.52C139.356 169.68 139.456 169.82 139.556 169.94C139.676 170.06 139.816 170.12 139.976 170.12H140.126V170.42H135.896V170.12H136.046C136.186 170.12 136.316 170.06 136.436 169.94C136.556 169.82 136.656 169.68 136.736 169.52C136.816 169.36 136.876 169.19 136.916 169.01C136.956 168.81 136.976 168.63 136.976 168.47V152.48C136.976 152.2 136.896 151.88 136.736 151.52C136.576 151.16 136.346 150.96 136.046 150.92H135.896V150.62ZM139.016 151.67V159.77H139.916C140.716 159.77 141.426 159.66 142.046 159.44C142.686 159.22 143.216 158.93 143.636 158.57C144.056 158.21 144.376 157.8 144.596 157.34C144.816 156.88 144.926 156.41 144.926 155.93C144.926 155.35 144.826 154.81 144.626 154.31C144.446 153.79 144.136 153.34 143.696 152.96C143.276 152.56 142.716 152.25 142.016 152.03C141.316 151.79 140.456 151.67 139.436 151.67H139.016ZM156.409 170.12H156.559C157.039 170.12 157.279 169.9 157.279 169.46C157.279 169.3 157.249 169.13 157.189 168.95L154.489 161.66H149.239L146.629 168.83C146.569 168.99 146.539 169.14 146.539 169.28C146.539 169.54 146.609 169.75 146.749 169.91C146.889 170.05 147.039 170.12 147.199 170.12H147.349V170.42H144.019V170.12H144.169C144.429 170.12 144.679 169.97 144.919 169.67C145.179 169.35 145.389 168.98 145.549 168.56L152.419 150.26L159.139 168.38C159.279 168.78 159.469 169.17 159.709 169.55C159.969 169.93 160.299 170.12 160.699 170.12H160.849V170.42H156.409V170.12ZM149.539 160.64H154.159L151.849 154.37L149.539 160.64ZM162.405 151.16H162.675C162.835 151.16 163.015 151.14 163.215 151.1C163.415 151.04 163.625 150.97 163.845 150.89C164.225 150.77 164.675 150.65 165.195 150.53C165.715 150.39 166.345 150.32 167.085 150.32C168.025 150.32 168.855 150.45 169.575 150.71C170.315 150.97 170.935 151.32 171.435 151.76C171.955 152.2 172.345 152.71 172.605 153.29C172.865 153.87 172.995 154.49 172.995 155.15C172.995 156.09 172.725 156.93 172.185 157.67C171.665 158.39 170.925 159 169.965 159.5C171.325 160.1 172.315 160.87 172.935 161.81C173.575 162.73 173.895 163.73 173.895 164.81C173.895 165.59 173.725 166.34 173.385 167.06C173.065 167.78 172.595 168.41 171.975 168.95C171.355 169.49 170.595 169.92 169.695 170.24C168.795 170.56 167.765 170.72 166.605 170.72C165.765 170.72 165.085 170.65 164.565 170.51C164.045 170.37 163.595 170.22 163.215 170.06C162.975 169.96 162.745 169.88 162.525 169.82C162.325 169.76 162.115 169.73 161.895 169.73H161.625V166.4H161.925C162.105 166.96 162.345 167.45 162.645 167.87C162.965 168.27 163.325 168.6 163.725 168.86C164.125 169.12 164.555 169.32 165.015 169.46C165.475 169.58 165.945 169.64 166.425 169.64C167.045 169.64 167.655 169.54 168.255 169.34C168.875 169.12 169.415 168.82 169.875 168.44C170.355 168.06 170.735 167.6 171.015 167.06C171.315 166.5 171.465 165.88 171.465 165.2C171.465 164.52 171.335 163.87 171.075 163.25C170.815 162.61 170.445 162.06 169.965 161.6C169.505 161.14 168.955 160.77 168.315 160.49C167.675 160.21 166.975 160.07 166.215 160.07H165.135V159.05H166.365C166.965 159.05 167.535 158.97 168.075 158.81C168.615 158.63 169.085 158.38 169.485 158.06C169.905 157.72 170.235 157.32 170.475 156.86C170.715 156.4 170.835 155.87 170.835 155.27C170.835 154.67 170.715 154.13 170.475 153.65C170.235 153.17 169.915 152.77 169.515 152.45C169.135 152.11 168.695 151.85 168.195 151.67C167.715 151.49 167.215 151.4 166.695 151.4C166.275 151.4 165.865 151.46 165.465 151.58C165.065 151.7 164.685 151.89 164.325 152.15C163.965 152.41 163.645 152.73 163.365 153.11C163.085 153.49 162.865 153.95 162.705 154.49H162.405V151.16ZM194.981 169.37V173.12H194.681C194.661 172.86 194.591 172.57 194.471 172.25C194.351 171.93 194.181 171.63 193.961 171.35C193.761 171.09 193.521 170.87 193.241 170.69C192.961 170.51 192.651 170.42 192.311 170.42H178.481C178.141 170.42 177.831 170.51 177.551 170.69C177.271 170.89 177.021 171.12 176.801 171.38C176.601 171.66 176.431 171.96 176.291 172.28C176.171 172.6 176.101 172.88 176.081 173.12H175.781V169.37H177.101C177.741 169.37 178.191 169 178.451 168.26L185.351 150.17L192.311 168.17C192.451 168.47 192.641 168.75 192.881 169.01C193.121 169.25 193.401 169.37 193.721 169.37H194.981ZM179.111 169.37H190.661L184.871 154.46L179.111 169.37ZM209.39 170.12H209.54C209.68 170.12 209.81 170.07 209.93 169.97C210.05 169.85 210.15 169.71 210.23 169.55C210.33 169.37 210.4 169.19 210.44 169.01C210.48 168.81 210.5 168.63 210.5 168.47V160.31H200.9V168.47C200.9 168.63 200.92 168.81 200.96 169.01C201 169.19 201.06 169.36 201.14 169.52C201.22 169.68 201.31 169.82 201.41 169.94C201.53 170.06 201.67 170.12 201.83 170.12H201.98V170.42H197.78V170.12H197.93C198.07 170.12 198.2 170.07 198.32 169.97C198.44 169.85 198.54 169.71 198.62 169.55C198.72 169.37 198.79 169.19 198.83 169.01C198.87 168.81 198.89 168.63 198.89 168.47V152.48C198.89 152.34 198.87 152.18 198.83 152C198.79 151.82 198.73 151.65 198.65 151.49C198.57 151.33 198.47 151.2 198.35 151.1C198.23 150.98 198.09 150.92 197.93 150.92H197.78V150.62H201.98V150.92H201.83C201.67 150.92 201.53 150.98 201.41 151.1C201.29 151.2 201.19 151.33 201.11 151.49C201.05 151.65 201 151.82 200.96 152C200.92 152.18 200.9 152.34 200.9 152.48V159.26H210.5V152.48C210.5 152.34 210.48 152.18 210.44 152C210.4 151.82 210.34 151.65 210.26 151.49C210.18 151.33 210.08 151.2 209.96 151.1C209.84 150.98 209.7 150.92 209.54 150.92H209.39V150.62H213.59V150.92H213.44C213.28 150.92 213.14 150.98 213.02 151.1C212.9 151.2 212.8 151.33 212.72 151.49C212.66 151.65 212.61 151.82 212.57 152C212.53 152.18 212.51 152.34 212.51 152.48V168.47C212.51 168.63 212.53 168.81 212.57 169.01C212.63 169.19 212.7 169.36 212.78 169.52C212.86 169.68 212.95 169.82 213.05 169.94C213.17 170.06 213.3 170.12 213.44 170.12H213.59V170.42H209.39V170.12ZM228.022 170.12H228.172C228.332 170.12 228.472 170.07 228.592 169.97C228.712 169.85 228.812 169.71 228.892 169.55C228.992 169.37 229.062 169.19 229.102 169.01C229.142 168.81 229.162 168.63 229.162 168.47V154.73L219.202 168.2V168.47C219.202 168.63 219.222 168.81 219.262 169.01C219.322 169.19 219.392 169.36 219.472 169.52C219.552 169.68 219.652 169.82 219.772 169.94C219.892 170.06 220.032 170.12 220.192 170.12H220.342V170.42H216.082V170.12H216.232C216.392 170.12 216.532 170.07 216.652 169.97C216.772 169.85 216.872 169.71 216.952 169.55C217.052 169.37 217.122 169.19 217.162 169.01C217.202 168.81 217.222 168.63 217.222 168.47V152.48C217.222 152.34 217.202 152.18 217.162 152C217.122 151.82 217.052 151.65 216.952 151.49C216.872 151.33 216.772 151.2 216.652 151.1C216.532 150.98 216.392 150.92 216.232 150.92H216.082V150.62H220.342V150.92H220.102C219.962 150.94 219.832 151.01 219.712 151.13C219.612 151.25 219.522 151.39 219.442 151.55C219.362 151.69 219.302 151.85 219.262 152.03C219.222 152.19 219.202 152.34 219.202 152.48V166.34L229.162 152.87V152.48C229.162 152.34 229.142 152.18 229.102 152C229.062 151.82 228.992 151.65 228.892 151.49C228.812 151.33 228.712 151.2 228.592 151.1C228.472 150.98 228.332 150.92 228.172 150.92H228.022V150.62H232.282V150.92H232.132C231.972 150.92 231.832 150.98 231.712 151.1C231.592 151.2 231.492 151.33 231.412 151.49C231.332 151.65 231.262 151.82 231.202 152C231.162 152.18 231.142 152.34 231.142 152.48V168.47C231.142 168.63 231.162 168.8 231.202 168.98C231.262 169.16 231.332 169.34 231.412 169.52C231.492 169.68 231.592 169.82 231.712 169.94C231.832 170.06 231.972 170.12 232.132 170.12H232.282V170.42H228.022V170.12ZM244.515 170.12H244.665C244.805 170.12 244.935 170.07 245.055 169.97C245.175 169.85 245.275 169.71 245.355 169.55C245.455 169.39 245.525 169.22 245.565 169.04C245.605 168.86 245.625 168.69 245.625 168.53V160.55C245.225 160.85 244.685 161.14 244.005 161.42C243.325 161.7 242.605 161.84 241.845 161.84C240.945 161.84 240.125 161.69 239.385 161.39C238.665 161.07 238.045 160.64 237.525 160.1C237.025 159.56 236.635 158.94 236.355 158.24C236.095 157.52 235.965 156.76 235.965 155.96V152.48C235.965 152.34 235.945 152.18 235.905 152C235.865 151.82 235.805 151.65 235.725 151.49C235.665 151.33 235.575 151.2 235.455 151.1C235.355 150.98 235.245 150.92 235.125 150.92H234.975V150.62H239.145V150.92H238.995C238.835 150.92 238.695 150.98 238.575 151.1C238.455 151.2 238.345 151.33 238.245 151.49C238.165 151.65 238.095 151.82 238.035 152C237.995 152.18 237.975 152.34 237.975 152.48V156.14C237.975 156.8 238.105 157.4 238.365 157.94C238.625 158.48 238.965 158.95 239.385 159.35C239.805 159.73 240.275 160.03 240.795 160.25C241.335 160.45 241.875 160.55 242.415 160.55C242.955 160.55 243.505 160.42 244.065 160.16C244.625 159.9 245.145 159.6 245.625 159.26V152.48C245.625 152.34 245.605 152.19 245.565 152.03C245.525 151.85 245.465 151.69 245.385 151.55C245.325 151.39 245.245 151.25 245.145 151.13C245.045 151.01 244.925 150.94 244.785 150.92H244.545V150.62H248.805V150.92H248.565C248.425 150.94 248.295 151.01 248.175 151.13C248.055 151.25 247.955 151.39 247.875 151.55C247.795 151.69 247.735 151.85 247.695 152.03C247.655 152.19 247.635 152.34 247.635 152.48V168.53C247.635 168.67 247.655 168.83 247.695 169.01C247.735 169.19 247.795 169.36 247.875 169.52C247.955 169.66 248.055 169.79 248.175 169.91C248.295 170.03 248.425 170.1 248.565 170.12H248.805V170.42H244.515V170.12ZM263.589 170.12H263.739C263.879 170.12 264.009 170.07 264.129 169.97C264.249 169.85 264.349 169.71 264.429 169.55C264.529 169.37 264.599 169.19 264.639 169.01C264.679 168.81 264.699 168.63 264.699 168.47V160.31H255.099V168.47C255.099 168.63 255.119 168.81 255.159 169.01C255.199 169.19 255.259 169.36 255.339 169.52C255.419 169.68 255.509 169.82 255.609 169.94C255.729 170.06 255.869 170.12 256.029 170.12H256.179V170.42H251.979V170.12H252.129C252.269 170.12 252.399 170.07 252.519 169.97C252.639 169.85 252.739 169.71 252.819 169.55C252.919 169.37 252.989 169.19 253.029 169.01C253.069 168.81 253.089 168.63 253.089 168.47V152.48C253.089 152.34 253.069 152.18 253.029 152C252.989 151.82 252.929 151.65 252.849 151.49C252.769 151.33 252.669 151.2 252.549 151.1C252.429 150.98 252.289 150.92 252.129 150.92H251.979V150.62H256.179V150.92H256.029C255.869 150.92 255.729 150.98 255.609 151.1C255.489 151.2 255.389 151.33 255.309 151.49C255.249 151.65 255.199 151.82 255.159 152C255.119 152.18 255.099 152.34 255.099 152.48V159.26H264.699V152.48C264.699 152.34 264.679 152.18 264.639 152C264.599 151.82 264.539 151.65 264.459 151.49C264.379 151.33 264.279 151.2 264.159 151.1C264.039 150.98 263.899 150.92 263.739 150.92H263.589V150.62H267.789V150.92H267.639C267.479 150.92 267.339 150.98 267.219 151.1C267.099 151.2 266.999 151.33 266.919 151.49C266.859 151.65 266.809 151.82 266.769 152C266.729 152.18 266.709 152.34 266.709 152.48V168.47C266.709 168.63 266.729 168.81 266.769 169.01C266.829 169.19 266.899 169.36 266.979 169.52C267.059 169.68 267.149 169.82 267.249 169.94C267.369 170.06 267.499 170.12 267.639 170.12H267.789V170.42H263.589V170.12ZM270.341 170.12H270.491C270.631 170.12 270.761 170.07 270.881 169.97C271.001 169.85 271.101 169.71 271.181 169.55C271.261 169.39 271.321 169.22 271.361 169.04C271.421 168.86 271.451 168.7 271.451 168.56V152.57C271.451 152.43 271.431 152.26 271.391 152.06C271.351 151.86 271.281 151.68 271.181 151.52C271.101 151.36 271.001 151.22 270.881 151.1C270.761 150.98 270.631 150.92 270.491 150.92H270.341V150.62H274.571V150.92H274.361C274.081 150.96 273.861 151.18 273.701 151.58C273.541 151.96 273.461 152.29 273.461 152.57V159.02H275.141C276.061 159.02 276.961 159.12 277.841 159.32C278.741 159.5 279.531 159.82 280.211 160.28C280.911 160.72 281.471 161.31 281.891 162.05C282.311 162.77 282.521 163.67 282.521 164.75C282.521 165.63 282.341 166.42 281.981 167.12C281.621 167.82 281.131 168.42 280.511 168.92C279.891 169.4 279.151 169.77 278.291 170.03C277.451 170.29 276.541 170.42 275.561 170.42H270.341V170.12ZM273.911 169.37C276.231 169.37 277.891 168.97 278.891 168.17C279.911 167.37 280.421 166.27 280.421 164.87C280.421 163.45 279.911 162.29 278.891 161.39C277.891 160.49 276.411 160.04 274.451 160.04H273.461V169.37H273.911ZM284.531 150.62H288.761V150.92H288.521C288.381 150.94 288.251 151.01 288.131 151.13C288.031 151.25 287.941 151.39 287.861 151.55C287.801 151.69 287.751 151.85 287.711 152.03C287.671 152.19 287.651 152.34 287.651 152.48V168.47C287.651 168.63 287.671 168.8 287.711 168.98C287.751 169.16 287.811 169.34 287.891 169.52C287.971 169.68 288.061 169.82 288.161 169.94C288.281 170.04 288.411 170.1 288.551 170.12H288.761V170.42H284.531V170.12H284.681C284.841 170.12 284.981 170.07 285.101 169.97C285.221 169.85 285.321 169.71 285.401 169.55C285.481 169.37 285.541 169.19 285.581 169.01C285.621 168.81 285.641 168.63 285.641 168.47V152.48C285.641 152.34 285.621 152.18 285.581 152C285.541 151.82 285.481 151.65 285.401 151.49C285.321 151.33 285.221 151.2 285.101 151.1C284.981 150.98 284.841 150.92 284.681 150.92H284.531V150.62ZM303.069 146.69C303.069 147.03 302.989 147.38 302.829 147.74C302.669 148.1 302.439 148.44 302.139 148.76C301.859 149.08 301.509 149.34 301.089 149.54C300.689 149.74 300.239 149.84 299.739 149.84C299.259 149.84 298.809 149.75 298.389 149.57C297.989 149.37 297.639 149.12 297.339 148.82C297.039 148.52 296.799 148.18 296.619 147.8C296.439 147.42 296.349 147.05 296.349 146.69H296.529C296.549 146.81 296.609 146.98 296.709 147.2C296.829 147.42 297.009 147.64 297.249 147.86C297.489 148.08 297.809 148.27 298.209 148.43C298.609 148.59 299.109 148.67 299.709 148.67C300.329 148.67 300.829 148.59 301.209 148.43C301.609 148.27 301.929 148.08 302.169 147.86C302.409 147.64 302.579 147.42 302.679 147.2C302.779 146.98 302.849 146.81 302.889 146.69H303.069ZM303.579 170.12H303.729C303.889 170.12 304.029 170.07 304.149 169.97C304.269 169.85 304.369 169.71 304.449 169.55C304.549 169.37 304.619 169.19 304.659 169.01C304.699 168.81 304.719 168.63 304.719 168.47V154.73L294.759 168.2V168.47C294.759 168.63 294.779 168.81 294.819 169.01C294.879 169.19 294.949 169.36 295.029 169.52C295.109 169.68 295.209 169.82 295.329 169.94C295.449 170.06 295.589 170.12 295.749 170.12H295.899V170.42H291.639V170.12H291.789C291.949 170.12 292.089 170.07 292.209 169.97C292.329 169.85 292.429 169.71 292.509 169.55C292.609 169.37 292.679 169.19 292.719 169.01C292.759 168.81 292.779 168.63 292.779 168.47V152.48C292.779 152.34 292.759 152.18 292.719 152C292.679 151.82 292.609 151.65 292.509 151.49C292.429 151.33 292.329 151.2 292.209 151.1C292.089 150.98 291.949 150.92 291.789 150.92H291.639V150.62H295.899V150.92H295.659C295.519 150.94 295.389 151.01 295.269 151.13C295.169 151.25 295.079 151.39 294.999 151.55C294.919 151.69 294.859 151.85 294.819 152.03C294.779 152.19 294.759 152.34 294.759 152.48V166.34L304.719 152.87V152.48C304.719 152.34 304.699 152.18 304.659 152C304.619 151.82 304.549 151.65 304.449 151.49C304.369 151.33 304.269 151.2 304.149 151.1C304.029 150.98 303.889 150.92 303.729 150.92H303.579V150.62H307.839V150.92H307.689C307.529 150.92 307.389 150.98 307.269 151.1C307.149 151.2 307.049 151.33 306.969 151.49C306.889 151.65 306.819 151.82 306.759 152C306.719 152.18 306.699 152.34 306.699 152.48V168.47C306.699 168.63 306.719 168.8 306.759 168.98C306.819 169.16 306.889 169.34 306.969 169.52C307.049 169.68 307.149 169.82 307.269 169.94C307.389 170.06 307.529 170.12 307.689 170.12H307.839V170.42H303.579V170.12ZM190.347 204.12H190.497V204.42H186.237V204.12H186.387C186.547 204.12 186.687 204.06 186.807 203.94C186.927 203.82 187.027 203.68 187.107 203.52C187.207 203.36 187.277 203.19 187.317 203.01C187.357 202.81 187.377 202.63 187.377 202.47V185.73H183.897C183.577 185.73 183.297 185.8 183.057 185.94C182.817 186.08 182.617 186.26 182.457 186.48C182.297 186.68 182.177 186.91 182.097 187.17C182.017 187.41 181.977 187.65 181.977 187.89H181.677V184.62H195.147V187.89H194.847C194.847 187.65 194.807 187.41 194.727 187.17C194.647 186.91 194.527 186.68 194.367 186.48C194.207 186.26 194.007 186.08 193.767 185.94C193.527 185.8 193.247 185.73 192.927 185.73H189.387V202.47C189.387 202.63 189.407 202.81 189.447 203.01C189.487 203.19 189.547 203.36 189.627 203.52C189.727 203.68 189.827 203.82 189.927 203.94C190.047 204.06 190.187 204.12 190.347 204.12ZM205.318 184.32C206.878 184.32 208.278 184.6 209.518 185.16C210.758 185.7 211.808 186.44 212.668 187.38C213.548 188.3 214.218 189.38 214.678 190.62C215.158 191.84 215.398 193.12 215.398 194.46C215.398 195.96 215.118 197.34 214.558 198.6C214.018 199.86 213.268 200.94 212.308 201.84C211.348 202.74 210.228 203.45 208.948 203.97C207.688 204.47 206.338 204.72 204.898 204.72C203.358 204.72 201.968 204.44 200.728 203.88C199.508 203.32 198.468 202.58 197.608 201.66C196.768 200.74 196.118 199.68 195.658 198.48C195.198 197.28 194.968 196.03 194.968 194.73C194.968 193.45 195.198 192.19 195.658 190.95C196.118 189.69 196.788 188.57 197.668 187.59C198.568 186.61 199.658 185.82 200.938 185.22C202.218 184.62 203.678 184.32 205.318 184.32ZM205.288 203.67C206.628 203.61 207.798 203.31 208.798 202.77C209.818 202.21 210.668 201.51 211.348 200.67C212.028 199.81 212.528 198.87 212.848 197.85C213.188 196.83 213.358 195.82 213.358 194.82C213.358 193.72 213.158 192.61 212.758 191.49C212.358 190.37 211.788 189.36 211.048 188.46C210.308 187.54 209.418 186.8 208.378 186.24C207.358 185.66 206.208 185.37 204.928 185.37C203.688 185.37 202.578 185.65 201.598 186.21C200.618 186.75 199.778 187.45 199.078 188.31C198.398 189.17 197.878 190.13 197.518 191.19C197.158 192.25 196.978 193.29 196.978 194.31C196.978 195.41 197.188 196.52 197.608 197.64C198.028 198.74 198.608 199.74 199.348 200.64C200.088 201.54 200.958 202.27 201.958 202.83C202.978 203.39 204.088 203.67 205.288 203.67ZM218 184.62H222.26C224.48 184.62 226.16 185.05 227.3 185.91C228.46 186.75 229.04 187.95 229.04 189.51C229.04 190.35 228.84 191.1 228.44 191.76C228.04 192.42 227.51 192.98 226.85 193.44C226.21 193.88 225.48 194.22 224.66 194.46C223.86 194.7 223.06 194.82 222.26 194.82H221.12V202.47C221.12 202.63 221.14 202.81 221.18 203.01C221.22 203.19 221.28 203.36 221.36 203.52C221.46 203.68 221.56 203.82 221.66 203.94C221.78 204.06 221.92 204.12 222.08 204.12H222.23V204.42H218V204.12H218.15C218.29 204.12 218.42 204.06 218.54 203.94C218.66 203.82 218.76 203.68 218.84 203.52C218.92 203.36 218.98 203.19 219.02 203.01C219.06 202.81 219.08 202.63 219.08 202.47V186.48C219.08 186.2 219 185.88 218.84 185.52C218.68 185.16 218.45 184.96 218.15 184.92H218V184.62ZM221.12 185.67V193.77H222.02C222.82 193.77 223.53 193.66 224.15 193.44C224.79 193.22 225.32 192.93 225.74 192.57C226.16 192.21 226.48 191.8 226.7 191.34C226.92 190.88 227.03 190.41 227.03 189.93C227.03 189.35 226.93 188.81 226.73 188.31C226.55 187.79 226.24 187.34 225.8 186.96C225.38 186.56 224.82 186.25 224.12 186.03C223.42 185.79 222.56 185.67 221.54 185.67H221.12ZM239.185 204.12H239.335V204.42H235.075V204.12H235.225C235.385 204.12 235.525 204.06 235.645 203.94C235.765 203.82 235.865 203.68 235.945 203.52C236.045 203.36 236.115 203.19 236.155 203.01C236.195 202.81 236.215 202.63 236.215 202.47V185.73H232.735C232.415 185.73 232.135 185.8 231.895 185.94C231.655 186.08 231.455 186.26 231.295 186.48C231.135 186.68 231.015 186.91 230.935 187.17C230.855 187.41 230.815 187.65 230.815 187.89H230.515V184.62H243.985V187.89H243.685C243.685 187.65 243.645 187.41 243.565 187.17C243.485 186.91 243.365 186.68 243.205 186.48C243.045 186.26 242.845 186.08 242.605 185.94C242.365 185.8 242.085 185.73 241.765 185.73H238.225V202.47C238.225 202.63 238.245 202.81 238.285 203.01C238.325 203.19 238.385 203.36 238.465 203.52C238.565 203.68 238.665 203.82 238.765 203.94C238.885 204.06 239.025 204.12 239.185 204.12Z" fill="#FFFCF4"></path><path d="M172.659 110.933C172.627 108.848 172.386 107.21 172.097 107.21C171.792 107.21 171.551 108.912 171.535 111.06C170.234 111.235 169.302 111.505 169.318 111.76C169.334 111.998 170.266 112.142 171.551 112.126C171.599 114.051 171.84 115.498 172.113 115.498C172.402 115.498 172.627 114.019 172.675 112.078C174.506 111.951 175.967 111.585 175.951 111.267C175.903 110.964 174.442 110.821 172.659 110.933ZM246.473 46.7553C246.49 46.9939 247.421 47.1371 248.706 47.1212C248.754 49.0462 248.995 50.4939 249.268 50.4939C249.557 50.4939 249.782 49.0144 249.83 47.0735C251.661 46.9462 253.123 46.5803 253.106 46.2621C253.09 45.9598 251.629 45.8166 249.83 45.928C249.798 43.8439 249.557 42.2053 249.268 42.2053C248.963 42.2053 248.722 43.9075 248.706 46.0553C247.389 46.2303 246.457 46.5007 246.473 46.7553ZM246.971 31.6575C247.276 31.6894 247.517 29.828 246.377 27.9189C245.269 26.0098 243.518 25.278 243.39 25.5485C243.213 25.8189 244.45 26.8371 245.381 28.4757C246.361 30.0985 246.65 31.6575 246.971 31.6575ZM250.938 29.7803C251.131 27.6962 250.713 26.0416 250.408 26.0735C250.087 26.1053 249.975 27.728 249.798 29.6848C249.637 31.6416 249.445 33.2644 249.766 33.3439C250.055 33.4235 250.762 31.8485 250.938 29.7803ZM169.848 40.5507C170.17 40.4871 169.945 38.3871 170.635 35.9848C171.294 33.5666 172.579 31.8803 172.338 31.6575C172.145 31.4189 170.282 32.9462 169.543 35.6666C168.756 38.403 169.559 40.6462 169.848 40.5507ZM168.001 99.5894C168.74 99.6848 169.495 99.6689 170.314 99.6848C173.59 99.7166 176.224 99.4939 176.224 99.1757C176.208 98.8575 173.59 98.5871 170.346 98.5553C168.724 98.5235 167.198 98.6985 166.572 98.1894C165.849 97.6644 165.994 96.9962 165.865 96.9485C165.801 96.9166 165.624 97.028 165.544 97.3939C165.464 97.7439 165.576 98.3007 166.026 98.7939C166.508 99.2712 167.263 99.5098 168.001 99.5894ZM224.856 111.139C226.012 112.253 227.329 112.953 228.325 113.255C229.321 113.573 229.979 113.558 230.011 113.414C230.092 113.096 227.731 112.38 225.659 110.328C223.539 108.323 222.768 105.985 222.447 106.08C222.302 106.112 222.302 106.764 222.64 107.751C222.977 108.737 223.7 110.026 224.856 111.139Z" fill="#FFFCF4"></path><path d="M264.622 91.5074C264.542 91.0142 264.349 90.5847 264.204 90.1074C264.012 89.6301 263.755 89.1847 263.434 88.7711C262.133 87.1006 260.221 86.4165 258.551 86.0665C256.865 85.7165 255.243 85.7006 253.701 85.7324C253.701 85.7165 253.717 85.7165 253.717 85.7006C254.038 84.8097 254.568 83.0597 255.034 79.6074C255.259 77.8733 255.451 75.7097 255.403 73.0052C255.323 70.3165 255.066 67.0392 253.797 63.3006C253.155 61.4392 252.271 59.4665 250.826 57.5733C249.413 55.6802 247.309 53.9938 244.771 52.9279C243.872 52.5461 242.908 52.2756 241.912 52.037C242.201 51.7983 242.635 50.7961 243.518 46.9302C243.791 45.6415 244.097 44.0347 244.273 41.9824C244.434 39.9461 244.514 37.4483 243.888 34.5052C243.55 32.9461 242.731 31.3074 241.43 29.987C240.13 28.6506 238.459 27.5688 236.564 26.8052C234.669 26.0097 232.565 25.4688 230.284 25.1347C228.004 24.8324 225.659 24.6733 223.105 24.5461C217.532 24.2756 210.369 24.4347 202.821 25.1983C199.047 25.5802 195.176 26.0892 191.353 26.6938C187.515 27.2347 183.564 28.2529 180.352 30.3211C178.73 31.3233 177.333 32.5961 176.208 33.9802C175.068 35.3483 174.281 37.0347 173.912 38.6256C173.157 41.8392 173.478 44.7506 173.863 47.1211C174.265 49.4915 174.875 51.337 175.325 52.5938C175.791 53.8506 176.144 54.5029 176.208 54.4711C176.401 54.4074 175.309 51.6392 174.731 46.9938C174.618 45.8802 174.522 44.6552 174.538 43.3506C174.731 43.462 174.956 43.5733 175.261 43.7006C176.16 44.0506 177.541 44.4165 179.324 44.1779C181.123 43.9552 183.002 42.8256 184.704 41.3938C186.407 39.9779 188.157 38.3074 190.39 37.7665C191.482 37.4961 192.574 37.6074 193.618 38.1165C194.662 38.6097 195.61 39.4847 196.814 40.2802C199.303 41.8392 202.194 42.587 205.117 42.3483C206.579 42.2211 207.992 41.7438 209.181 41.1392C210.385 40.5347 211.429 39.8347 212.425 39.2779C212.923 39.0074 213.453 38.6892 213.854 38.4983C214.336 38.3233 214.224 38.3233 214.561 38.4347C214.898 38.5779 215.364 38.8483 215.782 39.1029C216.215 39.3733 216.633 39.6279 217.034 39.8824C218.512 40.837 220.214 41.6961 221.869 42.0461C223.523 42.4279 225.161 42.4597 226.655 42.1733C228.132 41.9188 229.562 41.2029 230.525 40.3756C231.505 39.5802 232.26 38.7847 232.967 38.1642C233.368 37.8142 233.625 37.5915 233.802 37.5438C234.027 37.4642 234.187 37.4642 234.46 37.5279C235.006 37.687 235.6 38.1006 236.163 38.5142C237.367 39.3574 238.459 39.9142 239.375 40.2483C240.82 40.7733 241.784 40.8529 242.394 40.8052C242.394 41.1552 242.378 41.5211 242.362 41.8392C242.282 43.7802 242.073 45.3552 241.912 46.6438C241.366 50.4461 241.302 51.5756 241.463 51.9256C239.808 51.5756 238.058 51.3847 236.259 51.3688C233.256 51.3847 230.172 51.4802 226.815 51.5438C219.508 51.7188 210.08 52.0211 200.09 52.6574C195.096 52.9756 189.956 53.3733 184.865 53.8983C182.311 54.1688 179.806 54.4233 177.268 54.7574C174.699 55.1552 172.097 56.062 170.137 57.8597C168.307 59.7211 167.118 61.9324 166.427 64.1915C165.721 66.4506 165.576 68.6938 165.512 70.8097C165.512 75.0415 166.187 78.7801 166.909 81.8665C167.648 84.937 168.435 87.3711 169.013 89.0415C169.318 89.9165 169.559 90.5529 169.752 90.9824C169.527 91.0142 169.302 91.0461 169.093 91.062C167.584 91.1892 166.492 91.5551 165.865 91.8415C164.548 92.462 164.564 92.7006 164.629 92.8279C164.709 92.987 164.853 93.0029 166.154 92.6847C166.829 92.5415 167.728 92.3347 169.19 92.3347C170.683 92.2552 172.643 92.1438 175.213 92.0165C185.475 91.3483 205.615 90.5688 245.044 88.4688C247.742 88.3256 250.633 88.1665 253.685 88.0074C255.162 87.9597 256.672 87.9915 258.101 88.2779C259.531 88.5642 260.88 89.1211 261.651 90.1392C262.052 90.6165 262.261 91.2847 262.438 91.9688C262.614 92.6529 262.55 93.2892 262.357 93.862C261.94 95.0074 260.623 95.8983 259.097 96.3756C257.571 96.8847 255.901 96.9324 254.038 97.0597C252.223 97.187 250.392 97.2983 248.545 97.4256C233.786 98.4438 218.159 99.5415 203.865 100.528C196.718 101.037 189.908 101.53 183.725 101.976C177.557 102.437 171.984 102.596 167.327 102.23C166.138 102.151 165.094 102.055 164.163 101.689C163.247 101.307 162.525 100.703 162.075 99.9711C161.143 98.4915 161.4 96.8051 161.947 95.7074C163.119 93.4483 164.741 92.9552 164.613 92.8279C164.597 92.7961 164.259 92.9392 163.649 93.2733C163.071 93.6552 162.203 94.2915 161.545 95.5006C160.903 96.6461 160.485 98.5233 161.497 100.305C161.979 101.18 162.83 101.928 163.858 102.389C164.902 102.851 166.09 102.978 167.247 103.089C171.952 103.598 177.59 103.567 183.789 103.232C189.988 102.898 196.798 102.517 203.945 102.119C204.057 102.119 204.186 102.103 204.298 102.103C203.993 102.93 203.431 104.394 202.259 106.144C201.359 107.496 200.058 108.944 198.5 110.471C197.713 111.235 196.878 112.03 196.011 112.857C195.593 113.303 195.112 113.605 194.646 114.401C194.421 114.798 194.341 115.355 194.437 115.817C194.533 116.278 194.758 116.676 195.031 117.01C195.61 117.678 196.348 118.012 197.023 118.251C197.713 118.489 198.34 118.632 198.998 118.807C200.299 119.157 201.648 119.428 202.997 119.651C205.712 120.112 208.474 120.351 211.156 120.398C216.537 120.51 221.58 119.905 225.418 119.142C227.185 118.807 228.807 118.426 230.349 118.028C231.89 117.614 233.593 116.978 234.669 115.61C235.199 114.989 235.713 114.035 235.536 112.969C235.344 111.935 234.749 111.282 234.251 110.837C233.207 109.914 232.228 109.421 231.377 108.896C229.754 107.989 228.63 106.844 227.683 105.889C226.767 104.903 226.109 104.044 225.627 103.328C224.84 102.182 224.438 101.419 224.149 100.957C232.34 100.48 240.627 99.987 248.674 99.5256L254.167 99.1915C255.098 99.1279 255.933 99.0961 256.913 99.0165C257.877 98.9211 258.824 98.7461 259.756 98.4438C260.687 98.1574 261.603 97.7438 262.438 97.1392C263.273 96.5347 264.028 95.6915 264.413 94.6574C264.831 93.6074 264.863 92.462 264.622 91.5074ZM240.049 38.7847C239.294 38.4029 238.379 37.8461 237.335 37.0188C236.789 36.6052 236.163 36.0165 235.087 35.6347C234.573 35.4438 233.786 35.3802 233.143 35.6188C232.42 35.8574 231.971 36.3188 231.617 36.5892C230.798 37.2733 230.044 38.0211 229.192 38.6892C228.357 39.3574 227.474 39.787 226.269 39.9938C225.113 40.2006 223.78 40.1688 222.415 39.8506C221.033 39.5483 219.749 38.8961 218.287 37.9574C217.87 37.7029 217.452 37.4324 217.002 37.162C216.537 36.8915 216.103 36.6052 215.428 36.3347C215.091 36.1915 214.609 36.0642 214.111 36.112C213.614 36.1597 213.228 36.3188 212.923 36.462C212.297 36.7642 211.847 37.0506 211.301 37.3688C209.197 38.6415 207.27 40.0574 204.909 40.2802C202.58 40.5347 199.93 39.9302 197.858 38.7052C196.798 38.0688 195.738 37.1302 194.373 36.5256C193.024 35.8892 191.37 35.7938 190.004 36.2074C187.242 37.0188 185.443 38.9915 183.885 40.4233C182.311 41.887 180.721 42.9688 179.18 43.287C177.654 43.6211 176.289 43.4302 175.421 43.2392C175.068 43.1597 174.795 43.0802 174.57 43.0165C174.602 41.6961 174.763 40.3279 175.164 38.9279C175.887 36.0324 178.232 33.4552 181.219 31.6733C184.223 29.8597 187.868 28.9847 191.643 28.5392C195.449 28.0142 199.287 27.5847 203.03 27.2665C210.498 26.6302 217.564 26.5347 223.025 26.8052C225.498 26.9324 227.875 27.0915 229.995 27.362C232.115 27.6642 234.043 28.1574 235.729 28.8415C239.134 30.1779 241.35 32.4847 241.864 34.9506C242.266 36.6847 242.394 38.2597 242.426 39.7074C241.896 39.5642 241.141 39.3256 240.049 38.7847ZM167.841 64.6211C168.515 62.5688 169.672 60.5961 171.246 59.0529C174.602 56.0142 180.063 56.3802 185.058 55.7756C190.133 55.3461 195.256 55.012 200.235 54.7574C210.193 54.2483 219.588 54.0097 226.896 53.8347C230.22 53.7711 233.336 53.7074 236.259 53.6438C239.102 53.6597 241.704 54.0733 243.904 54.9802C248.385 56.7938 250.617 60.6279 251.806 64.0006C252.512 65.9892 252.898 67.8665 253.155 69.6006C252.528 69.7597 251.42 70.1256 249.493 69.9506C248.433 69.8233 247.1 69.4733 245.622 68.6461C244.884 68.2324 244.097 67.7074 243.277 67.0552C242.458 66.4506 241.687 65.4802 240.146 64.7802C239.407 64.4302 238.138 64.3665 237.239 64.9392C236.403 65.4802 235.97 65.9892 235.392 66.5461C234.316 67.6279 233.24 68.8529 231.971 69.6483C229.449 71.1597 225.225 70.9688 221.74 68.6461C220.744 68.0097 219.684 67.1983 218.48 66.387C217.853 66.0211 217.307 65.4802 216.039 65.2574C215.38 65.1779 214.754 65.3847 214.352 65.5915C213.919 65.7983 213.565 66.0211 213.228 66.2279C210.514 67.8983 208.089 70.1892 205.053 70.6029C202.034 71.0324 198.549 70.0302 196.011 68.1052C194.694 67.1188 193.329 65.7824 191.466 65.1142C189.603 64.3665 187.451 64.7642 185.893 65.5756C184.287 66.387 183.002 67.5165 181.894 68.662C180.802 69.7915 179.79 70.8733 178.762 71.7802C177.718 72.687 176.642 73.4188 175.534 73.8324C174.426 74.2461 173.301 74.3097 172.257 74.2461C170.186 74.1029 168.628 73.2597 167.664 72.5915C167.311 72.3529 167.038 72.1461 166.813 71.9552C166.813 71.5892 166.797 71.2233 166.813 70.8415C166.925 68.8211 167.134 66.6733 167.841 64.6211ZM244.948 86.1779C205.471 88.2779 185.331 89.312 175.084 90.3938C172.996 90.5688 171.342 90.7756 170.009 90.9506C169.704 89.662 168.756 86.4006 167.809 81.6756C167.295 79.0188 166.861 75.8529 166.829 72.4006C166.99 72.5597 167.166 72.7506 167.391 72.9415C168.307 73.7529 169.897 74.8029 172.177 75.1211C173.285 75.2802 174.586 75.2802 175.903 74.8665C177.204 74.4529 178.457 73.6892 179.613 72.7665C181.942 70.937 183.837 68.3279 186.632 67.0392C188.013 66.4029 189.507 66.1802 190.872 66.7688C192.269 67.2938 193.457 68.4552 194.871 69.6006C196.316 70.7938 198.067 71.6052 199.817 72.162C201.6 72.7029 203.495 72.9415 205.374 72.687C207.286 72.4642 209.004 71.637 210.45 70.7461C211.911 69.8392 213.18 68.9006 214.449 68.1211C215.075 67.7074 215.701 67.437 215.798 67.5006C216.023 67.5165 216.665 67.8983 217.211 68.2802C218.335 69.0279 219.395 69.8552 220.504 70.5711C224.615 73.2438 229.61 73.6574 233.175 71.5415C234.878 70.4438 235.938 69.1233 236.966 68.0574C237.447 67.5483 238.01 66.9756 238.363 66.7529C238.684 66.5779 238.909 66.5461 239.359 66.7052C240.242 67.0392 241.093 67.9142 242.025 68.5983C242.94 69.2824 243.856 69.8552 244.723 70.2847C246.473 71.1597 248.08 71.4938 249.38 71.5256C251.42 71.5256 252.609 71.0165 253.283 70.6188C253.38 71.4779 253.444 72.2892 253.492 73.0529C253.62 75.6461 253.524 77.7461 253.412 79.4324C253.171 82.8211 252.882 84.5711 252.834 85.5097V85.7642C250.071 85.9233 247.421 86.0506 244.948 86.1779ZM224.262 104.123C224.711 104.967 225.338 105.969 226.285 107.098C227.233 108.196 228.453 109.532 230.3 110.646C231.152 111.187 232.083 111.728 232.79 112.38C233.159 112.698 233.368 113.064 233.384 113.271C233.432 113.462 233.304 113.78 232.983 114.162C232.372 114.957 231.216 115.451 229.787 115.817C228.325 116.182 226.719 116.564 225.017 116.882C221.29 117.614 216.408 118.267 211.22 118.267C208.619 118.267 205.953 118.107 203.335 117.742C202.018 117.567 200.717 117.344 199.448 117.057C198.179 116.787 196.846 116.532 196.3 115.912C196.011 115.578 195.931 115.307 196.059 115.053C196.188 114.735 196.686 114.273 197.087 113.844C197.906 112.969 198.709 112.126 199.464 111.314C200.958 109.676 202.227 108.069 203.062 106.573C203.913 105.094 204.347 103.757 204.539 102.835C204.603 102.517 204.652 102.262 204.684 102.039C210.674 101.689 216.874 101.323 223.153 100.957C223.202 101.53 223.394 102.485 224.262 104.123Z" fill="#FFFCF4"></path></svg> 