<?xml version="1.0" encoding="UTF-8"?> <svg xmlns="http://www.w3.org/2000/svg" width="214" height="101" viewBox="0 0 214 101" fill="none"><path d="M9.66968 62.7891V62.5731H11.4937C12.0697 62.5731 12.4217 62.5091 12.5497 62.3811C12.6937 62.2371 12.7657 61.8771 12.7657 61.3011V45.9651H11.3257C10.1257 45.9651 9.30168 46.1491 8.85368 46.5171C8.40568 46.8691 8.14968 47.6051 8.08568 48.7251L8.01368 49.7091L7.58168 49.6851L7.94168 44.1171L8.20568 44.1411L8.08568 45.5331H19.2697L19.1497 44.1651L19.4137 44.1411L19.7737 49.6851L19.3417 49.7091L19.2697 48.7251C19.1897 47.6051 18.9257 46.8691 18.4777 46.5171C18.0297 46.1491 17.2137 45.9651 16.0297 45.9651H14.6377V61.3011C14.6377 61.8771 14.7017 62.2371 14.8297 62.3811C14.9737 62.5091 15.3337 62.5731 15.9097 62.5731H17.6857V62.7891H9.66968ZM29.5962 62.9811C26.9242 62.9811 24.7722 62.1731 23.1402 60.5571C21.5082 58.9411 20.6922 56.8051 20.6922 54.1491C20.6922 51.5091 21.5082 49.3811 23.1402 47.7651C24.7722 46.1491 26.9242 45.3411 29.5962 45.3411C32.2522 45.3411 34.3882 46.1491 36.0042 47.7651C37.6362 49.3811 38.4522 51.5091 38.4522 54.1491C38.4522 56.8051 37.6362 58.9411 36.0042 60.5571C34.3882 62.1731 32.2522 62.9811 29.5962 62.9811ZM29.6682 62.5491C31.8442 62.5491 33.5002 61.8691 34.6362 60.5091C35.7882 59.1491 36.3642 57.1811 36.3642 54.6051C36.3642 51.7411 35.7722 49.5571 34.5882 48.0531C33.4202 46.5331 31.7242 45.7731 29.5002 45.7731C27.3082 45.7731 25.6362 46.4531 24.4842 47.8131C23.3482 49.1731 22.7802 51.1411 22.7802 53.7171C22.7802 56.5811 23.3642 58.7731 24.5322 60.2931C25.7162 61.7971 27.4282 62.5491 29.6682 62.5491ZM43.1984 45.9891V46.1091C43.4704 46.4771 43.6064 46.9731 43.6064 47.5971V55.6371H44.9504C46.4704 55.6371 47.6224 55.2291 48.4064 54.4131C49.2064 53.5811 49.6064 52.3811 49.6064 50.8131C49.6064 49.2451 49.2064 48.0531 48.4064 47.2371C47.6224 46.4051 46.4704 45.9891 44.9504 45.9891H43.1984ZM39.6224 62.7891V62.5731H40.4624C41.0384 62.5731 41.3904 62.5091 41.5184 62.3811C41.6624 62.2371 41.7344 61.8771 41.7344 61.3011V47.0211C41.7344 46.4451 41.6624 46.0931 41.5184 45.9651C41.3904 45.8211 41.0384 45.7491 40.4624 45.7491H39.6224V45.5331H45.6704C47.4784 45.5331 48.9344 46.0211 50.0384 46.9971C51.1424 47.9571 51.6944 49.2291 51.6944 50.8131C51.6944 52.3971 51.1424 53.6691 50.0384 54.6291C48.9344 55.5891 47.4784 56.0691 45.6704 56.0691H43.6064V61.3011C43.6064 61.8771 43.6784 62.2371 43.8224 62.3811C43.9664 62.5091 44.3264 62.5731 44.9024 62.5731H45.5024V62.7891H39.6224ZM58.5361 62.7891V62.5731H59.3761C59.9521 62.5731 60.3041 62.4931 60.4321 62.3331C60.5761 62.1731 60.6481 61.7571 60.6481 61.0851V52.6371H60.5041C60.0401 52.6371 59.6161 52.7011 59.2321 52.8291C58.8481 52.9411 58.5201 53.0851 58.2481 53.2611C57.9921 53.4371 57.7521 53.6931 57.5281 54.0291C57.3041 54.3651 57.1281 54.6611 57.0001 54.9171C56.8721 55.1731 56.7441 55.5411 56.6161 56.0211C56.5041 56.4851 56.4161 56.8611 56.3521 57.1491C56.3041 57.4211 56.2321 57.8131 56.1361 58.3251C56.0561 58.7731 55.9921 59.1251 55.9441 59.3811C55.8961 59.6211 55.8241 59.9331 55.7281 60.3171C55.6321 60.7011 55.5361 61.0051 55.4401 61.2291C55.3441 61.4371 55.2161 61.6771 55.0561 61.9491C54.8961 62.2211 54.7201 62.4291 54.5281 62.5731C54.3361 62.7011 54.1041 62.8131 53.8321 62.9091C53.5761 63.0051 53.2881 63.0531 52.9681 63.0531C52.3281 63.0531 51.6801 62.7571 51.0241 62.1651L50.7121 61.9251L50.8561 61.7571L51.1681 61.9971C51.5681 62.3171 51.9441 62.4771 52.2961 62.4771C52.5681 62.4771 52.8081 62.4131 53.0161 62.2851C53.2241 62.1571 53.3841 62.0131 53.4961 61.8531C53.6081 61.6771 53.7121 61.4211 53.8081 61.0851C53.9041 60.7331 53.9681 60.4371 54.0001 60.1971C54.0321 59.9411 54.0801 59.5731 54.1441 59.0931C54.2081 58.5971 54.2561 58.2131 54.2881 57.9411C54.3361 57.6531 54.4081 57.2691 54.5041 56.7891C54.6161 56.3091 54.7361 55.9171 54.8641 55.6131C55.0081 55.3091 55.1921 54.9571 55.4161 54.5571C55.6561 54.1571 55.9201 53.8371 56.2081 53.5971C56.4961 53.3411 56.8561 53.1011 57.2881 52.8771C57.7361 52.6371 58.2321 52.4531 58.7761 52.3251L58.8001 52.2291L54.9841 47.4051C54.5201 46.8291 53.9681 46.4131 53.3281 46.1571C52.6881 45.8851 52.0641 45.7491 51.4561 45.7491H51.1681V45.5331H56.4721V45.7491H56.2561C55.4241 45.7491 55.0081 45.9651 55.0081 46.3971C55.0081 46.6531 55.1521 46.9571 55.4401 47.3091L59.2321 52.0851C59.4081 52.3091 59.8801 52.4211 60.6481 52.4211V47.0211C60.6481 46.4451 60.5761 46.0931 60.4321 45.9651C60.3041 45.8211 59.9521 45.7491 59.3761 45.7491H59.1361V45.5331H64.0321V45.7491H63.8161C63.2401 45.7491 62.8801 45.8211 62.7361 45.9651C62.5921 46.0931 62.5201 46.4451 62.5201 47.0211V52.4211C62.9681 52.4211 63.2881 52.4051 63.4801 52.3731C63.6881 52.3251 63.8481 52.2291 63.9601 52.0851L67.7521 47.3091C68.0401 46.9571 68.1841 46.6531 68.1841 46.3971C68.1841 45.9651 67.7681 45.7491 66.9361 45.7491H66.7201V45.5331H72.0241V45.7491H71.7361C71.1281 45.7491 70.5041 45.8851 69.8641 46.1571C69.2241 46.4131 68.6721 46.8291 68.2081 47.4051L64.3921 52.2291L64.4161 52.3251C64.9601 52.4531 65.4721 52.6611 65.9521 52.9491C66.4321 53.2211 66.9041 53.6051 67.3681 54.1011C67.8321 54.5811 68.2081 55.0131 68.4961 55.3971C68.8001 55.7811 69.1921 56.3251 69.6721 57.0291C70.0561 57.5571 70.3601 57.9891 70.5841 58.3251C70.8241 58.6451 71.1441 59.0531 71.5441 59.5491C71.9601 60.0291 72.3361 60.4211 72.6721 60.7251C73.0081 61.0131 73.4241 61.3331 73.9201 61.6851C74.4161 62.0371 74.9041 62.3091 75.3841 62.5011C75.8801 62.6931 76.4401 62.8531 77.0641 62.9811C77.7041 63.1251 78.3681 63.1971 79.0561 63.1971C79.9201 63.1971 80.7841 63.0931 81.6481 62.8851C82.5121 62.6771 83.2721 62.4131 83.9281 62.0931C84.5841 61.7731 85.1201 61.4851 85.5361 61.2291C85.9681 60.9571 86.3121 60.7171 86.5681 60.5091L87.0961 60.0531L87.2161 60.2211L86.6881 60.6771C85.7121 61.5251 84.4561 62.2771 82.9201 62.9331C81.3841 63.6051 79.8081 63.9411 78.1921 63.9411C77.3921 63.9411 76.6161 63.8531 75.8641 63.6771C75.1281 63.5171 74.4721 63.3171 73.8961 63.0771C73.3201 62.8371 72.7361 62.5011 72.1441 62.0691C71.5521 61.6371 71.0561 61.2451 70.6561 60.8931C70.2721 60.5251 69.8401 60.0531 69.3601 59.4771C68.8801 58.9011 68.5041 58.4371 68.2321 58.0851C67.9601 57.7171 67.6161 57.2291 67.2001 56.6211C66.7201 55.9331 66.3361 55.4131 66.0481 55.0611C65.7761 54.6931 65.4401 54.2931 65.0401 53.8611C64.6401 53.4131 64.2481 53.1011 63.8641 52.9251C63.4961 52.7331 63.1041 52.6371 62.6881 52.6371H62.5201V61.0851C62.5201 61.7571 62.5921 62.1731 62.7361 62.3331C62.8801 62.4931 63.2401 62.5731 63.8161 62.5731H64.6561V62.7891H58.5361ZM74.8801 51.8691C74.8801 51.9651 74.8801 52.0611 74.8801 52.1571C74.8801 54.5251 75.3201 56.3331 76.2001 57.5811C77.0801 58.8131 78.3681 59.4291 80.0641 59.4291C81.4721 59.4291 82.7041 59.1171 83.7601 58.4931C84.8161 57.8691 85.6161 57.0051 86.1601 55.9011L86.5201 56.1411C85.9441 57.3091 85.0961 58.2211 83.9761 58.8771C82.8561 59.5331 81.5521 59.8611 80.0641 59.8611C77.9041 59.8611 76.1601 59.1891 74.8321 57.8451C73.5041 56.5011 72.8401 54.7331 72.8401 52.5411C72.8401 50.3811 73.5041 48.6451 74.8321 47.3331C76.1761 46.0051 77.9441 45.3411 80.1361 45.3411C82.0401 45.3411 83.5761 45.8691 84.7441 46.9251C85.9121 47.9651 86.4961 49.3411 86.4961 51.0531V51.1731C86.4961 51.3651 86.4241 51.5331 86.2801 51.6771C86.1361 51.8051 85.9601 51.8691 85.7521 51.8691H74.8801ZM74.9041 51.4371L84.3121 51.2691C84.4401 51.2691 84.5041 51.1971 84.5041 51.0531C84.5041 49.4691 84.0961 48.1971 83.2801 47.2371C82.4641 46.2611 81.3841 45.7731 80.0401 45.7731C78.4561 45.7731 77.2241 46.2531 76.3441 47.2131C75.4801 48.1731 75.0001 49.5811 74.9041 51.4371ZM89.1789 54.1011C89.1789 51.4771 89.9469 49.3651 91.4829 47.7651C93.0189 46.1491 95.0429 45.3411 97.5549 45.3411C99.2829 45.3411 100.747 45.8531 101.947 46.8771C102.059 46.9891 102.147 47.1491 102.211 47.3571L102.379 47.3091C102.347 47.1491 102.323 46.9171 102.307 46.6131L102.259 44.8611H102.475L102.691 51.7971L102.259 51.8211L102.187 49.5891C102.123 48.5331 101.603 47.6291 100.627 46.8771C99.6669 46.1251 98.5789 45.7491 97.3629 45.7491C95.3949 45.7491 93.8909 46.4291 92.8509 47.7891C91.8269 49.1491 91.3149 51.1251 91.3149 53.7171C91.3149 56.5811 91.8509 58.7731 92.9229 60.2931C94.0109 61.7971 95.5789 62.5491 97.6269 62.5491C98.7949 62.5491 99.8749 62.2531 100.867 61.6611C101.859 61.0691 102.555 60.2691 102.955 59.2611L103.363 59.4291C102.915 60.5811 102.163 61.4611 101.107 62.0691C100.067 62.6771 98.8909 62.9811 97.5789 62.9811C95.0669 62.9811 93.0349 62.1651 91.4829 60.5331C89.9469 58.9011 89.1789 56.7571 89.1789 54.1011ZM106.185 62.7891V62.5731H108.009C108.585 62.5731 108.937 62.5091 109.065 62.3811C109.209 62.2371 109.281 61.8771 109.281 61.3011V45.9651H107.841C106.641 45.9651 105.817 46.1491 105.369 46.5171C104.921 46.8691 104.665 47.6051 104.601 48.7251L104.529 49.7091L104.097 49.6851L104.457 44.1171L104.721 44.1411L104.601 45.5331H115.785L115.665 44.1651L115.929 44.1411L116.289 49.6851L115.857 49.7091L115.785 48.7251C115.705 47.6051 115.441 46.8691 114.993 46.5171C114.545 46.1491 113.729 45.9651 112.545 45.9651H111.153V61.3011C111.153 61.8771 111.217 62.2371 111.345 62.3811C111.489 62.5091 111.849 62.5731 112.425 62.5731H114.201V62.7891H106.185ZM120.659 62.3571H123.395C124.883 62.3571 126.083 61.9411 126.995 61.1091C127.907 60.2771 128.363 59.1731 128.363 57.7971C128.363 56.3571 127.883 55.1731 126.923 54.2451C125.963 53.3171 124.739 52.8531 123.251 52.8531H121.979V52.4451H122.939C123.995 52.4451 124.867 52.1411 125.555 51.5331C126.243 50.9251 126.587 50.1491 126.587 49.2051C126.587 48.2291 126.219 47.4451 125.483 46.8531C124.763 46.2611 123.803 45.9651 122.603 45.9651H120.659V45.9891C120.931 46.2611 121.067 46.6771 121.067 47.2371V61.0851C121.067 61.6291 120.931 62.0371 120.659 62.3091V62.3571ZM117.083 62.7891V62.5731H117.923C118.499 62.5731 118.851 62.5091 118.979 62.3811C119.123 62.2371 119.195 61.8771 119.195 61.3011V47.0211C119.195 46.4451 119.123 46.0931 118.979 45.9651C118.851 45.8211 118.499 45.7491 117.923 45.7491H117.083V45.5331H122.939C124.651 45.5331 126.027 45.8691 127.067 46.5411C128.107 47.1971 128.627 48.0691 128.627 49.1571C128.627 49.8931 128.307 50.6051 127.667 51.2931C127.043 51.9651 126.211 52.3731 125.171 52.5171V52.6131C126.675 52.7251 127.931 53.3011 128.939 54.3411C129.947 55.3811 130.451 56.5331 130.451 57.7971C130.451 59.2691 129.819 60.4691 128.555 61.3971C127.291 62.3251 125.715 62.7891 123.827 62.7891H117.083ZM133.734 53.4291C133.734 53.5251 133.734 53.6211 133.734 53.7171C133.734 56.5491 134.334 58.7331 135.534 60.2691C136.75 61.7891 138.398 62.5491 140.478 62.5491C142.078 62.5491 143.494 62.2291 144.726 61.5891C145.958 60.9331 146.926 60.0131 147.63 58.8291L147.966 59.0931C147.214 60.3251 146.182 61.2851 144.87 61.9731C143.574 62.6451 142.086 62.9811 140.406 62.9811C137.862 62.9811 135.758 62.1651 134.094 60.5331C132.43 58.8851 131.598 56.7411 131.598 54.1011C131.598 51.4771 132.406 49.3651 134.022 47.7651C135.654 46.1491 137.798 45.3411 140.454 45.3411C142.598 45.3411 144.414 46.0211 145.902 47.3811C147.39 48.7411 148.134 50.4851 148.134 52.6131V52.7331C148.134 52.9251 148.062 53.0931 147.918 53.2371C147.774 53.3651 147.598 53.4291 147.39 53.4291H133.734ZM133.758 52.9971L145.806 52.8291C145.934 52.8291 145.998 52.7571 145.998 52.6131C145.998 50.5651 145.478 48.9171 144.438 47.6691C143.414 46.4051 142.054 45.7731 140.358 45.7731C138.31 45.7731 136.718 46.3891 135.582 47.6211C134.462 48.8531 133.854 50.6451 133.758 52.9971ZM149.357 62.7891V62.5731H150.197C150.757 62.5731 151.109 62.4771 151.253 62.2851C151.397 62.0931 151.469 61.6931 151.469 61.0851V47.2371C151.469 46.6291 151.397 46.2291 151.253 46.0371C151.109 45.8451 150.757 45.7491 150.197 45.7491H149.357V45.5331H155.261V45.7491H154.637C154.077 45.7491 153.717 45.8451 153.557 46.0371C153.413 46.2291 153.341 46.6291 153.341 47.2371V53.5011H159.917V47.2371C159.917 46.6291 159.837 46.2291 159.677 46.0371C159.533 45.8451 159.181 45.7491 158.621 45.7491H157.997V45.5331H163.925V45.7491H163.061C162.501 45.7491 162.149 45.8451 162.005 46.0371C161.861 46.2291 161.789 46.6291 161.789 47.2371V61.0851C161.789 61.6931 161.861 62.0931 162.005 62.2851C162.149 62.4771 162.501 62.5731 163.061 62.5731H163.925V62.7891H157.997V62.5731H158.645C159.205 62.5731 159.557 62.4771 159.701 62.2851C159.845 62.0931 159.917 61.6931 159.917 61.0851V53.9331H153.341V61.0851C153.341 61.6931 153.413 62.0931 153.557 62.2851C153.717 62.4771 154.077 62.5731 154.637 62.5731H155.261V62.7891H149.357ZM164.755 62.7891V62.5731H165.595C166.155 62.5731 166.507 62.4771 166.651 62.2851C166.795 62.0931 166.867 61.6931 166.867 61.0851V47.2371C166.867 46.6291 166.795 46.2291 166.651 46.0371C166.507 45.8451 166.155 45.7491 165.595 45.7491H164.755V45.5331H170.659V45.7491H170.035C169.475 45.7491 169.115 45.8451 168.955 46.0371C168.811 46.2291 168.739 46.6291 168.739 47.2371V53.5011H175.315V47.2371C175.315 46.6291 175.235 46.2291 175.075 46.0371C174.931 45.8451 174.579 45.7491 174.019 45.7491H173.395V45.5331H179.323V45.7491H178.459C177.899 45.7491 177.547 45.8451 177.403 46.0371C177.259 46.2291 177.187 46.6291 177.187 47.2371V61.0851C177.187 61.6931 177.259 62.0931 177.403 62.2851C177.547 62.4771 177.899 62.5731 178.459 62.5731H179.323V62.7891H173.395V62.5731H174.043C174.603 62.5731 174.955 62.4771 175.099 62.2851C175.243 62.0931 175.315 61.6931 175.315 61.0851V53.9331H168.739V61.0851C168.739 61.6931 168.811 62.0931 168.955 62.2851C169.115 62.4771 169.475 62.5731 170.035 62.5731H170.659V62.7891H164.755ZM188.626 54.0531V48.9171C188.626 46.8211 187.682 45.7731 185.794 45.7731C184.642 45.7731 183.746 46.0771 183.106 46.6851C182.466 47.2771 182.122 48.0611 182.074 49.0371L182.002 50.5251H181.57L181.834 44.8611H182.074L182.002 46.1331C181.97 46.5171 181.938 46.7731 181.906 46.9011L182.074 46.9491C182.154 46.7091 182.282 46.5251 182.458 46.3971C183.402 45.6931 184.506 45.3411 185.77 45.3411C187.322 45.3411 188.498 45.6771 189.298 46.3491C190.098 47.0051 190.498 47.9651 190.498 49.2291V61.0851C190.498 61.5811 190.538 61.9091 190.618 62.0691C190.714 62.2291 190.938 62.3091 191.29 62.3091L191.77 62.2851L192.178 62.2611L192.202 62.4771C191.258 62.5731 190.386 62.7491 189.586 63.0051V62.8131C189.586 62.3331 189.498 61.6131 189.322 60.6531C189.21 59.9331 189.146 59.4131 189.13 59.0931H188.89C188.25 61.6851 186.906 62.9811 184.858 62.9811C183.546 62.9811 182.458 62.6211 181.594 61.9011C180.746 61.1651 180.322 60.2131 180.322 59.0451C180.322 57.5411 180.906 56.3331 182.074 55.4211C183.258 54.5091 184.818 54.0531 186.754 54.0531H188.626ZM188.626 54.4851H186.874C185.53 54.4851 184.45 54.9091 183.634 55.7571C182.818 56.5891 182.41 57.6851 182.41 59.0451C182.41 60.0371 182.658 60.8371 183.154 61.4451C183.666 62.0371 184.33 62.3331 185.146 62.3331C186.074 62.3331 186.882 61.9091 187.57 61.0611C188.274 60.1971 188.626 58.9651 188.626 57.3651V54.4851ZM201.012 62.7891V62.5731H201.444C202.02 62.5731 202.38 62.5091 202.524 62.3811C202.668 62.2371 202.74 61.8771 202.74 61.3011V55.2291H200.892C200.876 57.5651 200.404 59.4451 199.476 60.8691C198.564 62.2771 197.356 62.9811 195.852 62.9811C194.812 62.9811 193.932 62.6691 193.212 62.0451V60.1491C194.38 60.9811 195.444 61.3971 196.404 61.3971C197.7 61.3971 198.692 60.8611 199.38 59.7891C200.084 58.7171 200.444 57.1971 200.46 55.2291C198.476 55.2291 196.876 54.8131 195.66 53.9811C194.444 53.1331 193.836 51.9331 193.836 50.3811C193.836 48.8291 194.444 47.6371 195.66 46.8051C196.876 45.9571 198.476 45.5331 200.46 45.5331H206.724V45.7491H205.884C205.308 45.7491 204.948 45.8211 204.804 45.9651C204.676 46.0931 204.612 46.4451 204.612 47.0211V61.3011C204.612 61.8771 204.676 62.2371 204.804 62.3811C204.948 62.5091 205.308 62.5731 205.884 62.5731H206.724V62.7891H201.012ZM202.74 54.7971V47.2371C202.74 46.6771 202.876 46.2611 203.148 45.9891V45.9651H200.652C197.5 45.9651 195.924 47.4371 195.924 50.3811C195.924 53.3251 197.5 54.7971 200.652 54.7971H202.74ZM32.474 93.7891V93.5731H33.338C33.898 93.5731 34.25 93.4771 34.394 93.2851C34.538 93.0931 34.61 92.6931 34.61 92.0851V78.2371C34.61 77.6291 34.538 77.2291 34.394 77.0371C34.25 76.8451 33.898 76.7491 33.338 76.7491H32.474V76.5331H38.138V76.7491H37.754C37.194 76.7491 36.842 76.8451 36.698 77.0371C36.554 77.2291 36.482 77.6291 36.482 78.2371V93.3571H42.554V78.2371C42.554 77.6291 42.474 77.2291 42.314 77.0371C42.17 76.8451 41.818 76.7491 41.258 76.7491H40.874V76.5331H46.538V76.7491H45.698C45.138 76.7491 44.786 76.8451 44.642 77.0371C44.498 77.2291 44.426 77.6291 44.426 78.2371V91.8691C44.426 92.4771 44.498 92.8771 44.642 93.0691C44.786 93.2611 45.138 93.3571 45.698 93.3571H48.338V97.3411H47.69V95.2771C47.69 94.6691 47.61 94.2691 47.45 94.0771C47.306 93.8851 46.954 93.7891 46.394 93.7891H32.474ZM49.8986 84.4291C49.8986 84.5251 49.8986 84.6211 49.8986 84.7171C49.8986 87.5491 50.4986 89.7331 51.6986 91.2691C52.9146 92.7891 54.5626 93.5491 56.6426 93.5491C58.2426 93.5491 59.6586 93.2291 60.8906 92.5891C62.1226 91.9331 63.0906 91.0131 63.7946 89.8291L64.1306 90.0931C63.3786 91.3251 62.3466 92.2851 61.0346 92.9731C59.7386 93.6451 58.2506 93.9811 56.5706 93.9811C54.0266 93.9811 51.9226 93.1651 50.2586 91.5331C48.5946 89.8851 47.7626 87.7411 47.7626 85.1011C47.7626 82.4771 48.5706 80.3651 50.1866 78.7651C51.8186 77.1491 53.9626 76.3411 56.6186 76.3411C58.7626 76.3411 60.5786 77.0211 62.0666 78.3811C63.5546 79.7411 64.2986 81.4851 64.2986 83.6131V83.7331C64.2986 83.9251 64.2266 84.0931 64.0826 84.2371C63.9386 84.3651 63.7626 84.4291 63.5546 84.4291H49.8986ZM49.9226 83.9971L61.9706 83.8291C62.0986 83.8291 62.1626 83.7571 62.1626 83.6131C62.1626 81.5651 61.6426 79.9171 60.6026 78.6691C59.5786 77.4051 58.2186 76.7731 56.5226 76.7731C54.4746 76.7731 52.8826 77.3891 51.7466 78.6211C50.6266 79.8531 50.0186 81.6451 49.9226 83.9971ZM69.0969 76.9891V77.1091C69.3689 77.4771 69.5049 77.9731 69.5049 78.5971V86.6371H70.8489C72.3689 86.6371 73.5209 86.2291 74.3049 85.4131C75.1049 84.5811 75.5049 83.3811 75.5049 81.8131C75.5049 80.2451 75.1049 79.0531 74.3049 78.2371C73.5209 77.4051 72.3689 76.9891 70.8489 76.9891H69.0969ZM65.5209 93.7891V93.5731H66.3609C66.9369 93.5731 67.2889 93.5091 67.4169 93.3811C67.5609 93.2371 67.6329 92.8771 67.6329 92.3011V78.0211C67.6329 77.4451 67.5609 77.0931 67.4169 76.9651C67.2889 76.8211 66.9369 76.7491 66.3609 76.7491H65.5209V76.5331H71.5689C73.3769 76.5331 74.8329 77.0211 75.9369 77.9971C77.0409 78.9571 77.5929 80.2291 77.5929 81.8131C77.5929 83.3971 77.0409 84.6691 75.9369 85.6291C74.8329 86.5891 73.3769 87.0691 71.5689 87.0691H69.5049V92.3011C69.5049 92.8771 69.5769 93.2371 69.7209 93.3811C69.8649 93.5091 70.2249 93.5731 70.8009 93.5731H71.4009V93.7891H65.5209ZM81.0939 84.4291C81.0939 84.5251 81.0939 84.6211 81.0939 84.7171C81.0939 87.5491 81.6939 89.7331 82.8939 91.2691C84.1099 92.7891 85.7579 93.5491 87.8379 93.5491C89.4379 93.5491 90.8539 93.2291 92.0859 92.5891C93.3179 91.9331 94.2859 91.0131 94.9899 89.8291L95.3259 90.0931C94.5739 91.3251 93.5419 92.2851 92.2299 92.9731C90.9339 93.6451 89.4459 93.9811 87.7659 93.9811C85.2219 93.9811 83.1179 93.1651 81.4539 91.5331C79.7899 89.8851 78.9579 87.7411 78.9579 85.1011C78.9579 82.4771 79.7659 80.3651 81.3819 78.7651C83.0139 77.1491 85.1579 76.3411 87.8139 76.3411C89.9579 76.3411 91.7739 77.0211 93.2619 78.3811C94.7499 79.7411 95.4939 81.4851 95.4939 83.6131V83.7331C95.4939 83.9251 95.4219 84.0931 95.2779 84.2371C95.1339 84.3651 94.9579 84.4291 94.7499 84.4291H81.0939ZM81.1179 83.9971L93.1659 83.8291C93.2939 83.8291 93.3579 83.7571 93.3579 83.6131C93.3579 81.5651 92.8379 79.9171 91.7979 78.6691C90.7739 77.4051 89.4139 76.7731 87.7179 76.7731C85.6699 76.7731 84.0779 77.3891 82.9419 78.6211C81.8219 79.8531 81.2139 81.6451 81.1179 83.9971ZM96.5002 93.7891V93.5731H96.8842C97.4762 93.5731 97.8602 93.4611 98.0362 93.2371C98.2282 93.0131 98.3402 92.5571 98.3722 91.8691L99.0202 78.0211C99.0362 77.7491 99.0442 77.5811 99.0442 77.5171C99.0442 77.2291 98.9642 77.0291 98.8042 76.9171C98.6602 76.8051 98.3402 76.7491 97.8442 76.7491H96.8842V76.5331H100.412L106.628 90.2851C106.868 90.8131 106.988 91.1571 106.988 91.3171H107.108C107.108 91.1091 107.22 90.7651 107.444 90.2851L113.66 76.5331H117.26V76.7491H116.444C115.9 76.7491 115.54 76.8291 115.364 76.9891C115.188 77.1491 115.1 77.4211 115.1 77.8051C115.1 77.8691 115.108 78.0851 115.124 78.4531L115.676 91.8691C115.708 92.5731 115.812 93.0371 115.988 93.2611C116.164 93.4691 116.572 93.5731 117.212 93.5731H117.74V93.7891H111.476V93.5731H112.34C112.948 93.5731 113.348 93.5011 113.54 93.3571C113.732 93.2131 113.828 92.9811 113.828 92.6611C113.828 92.6131 113.82 92.5651 113.804 92.5171C113.804 92.4691 113.804 92.4211 113.804 92.3731C113.804 92.3091 113.804 92.2611 113.804 92.2291L113.324 79.5811C113.308 79.2931 113.3 78.9411 113.3 78.5251H113.156C113.156 78.5891 113.028 78.9171 112.772 79.5091L106.316 93.8851L106.244 94.0531H106.196L106.124 93.8851L99.7642 79.7731C99.5882 79.3891 99.5002 79.0531 99.5002 78.7651H99.4042C99.4042 79.0211 99.3962 79.2931 99.3802 79.5811L98.7802 92.1811C98.7642 92.5171 98.7562 92.7011 98.7562 92.7331C98.7562 93.0371 98.8522 93.2531 99.0442 93.3811C99.2362 93.5091 99.6442 93.5731 100.268 93.5731H101.132V93.7891H96.5002ZM127.401 93.9811C124.729 93.9811 122.577 93.1731 120.945 91.5571C119.313 89.9411 118.497 87.8051 118.497 85.1491C118.497 82.5091 119.313 80.3811 120.945 78.7651C122.577 77.1491 124.729 76.3411 127.401 76.3411C130.057 76.3411 132.193 77.1491 133.809 78.7651C135.441 80.3811 136.257 82.5091 136.257 85.1491C136.257 87.8051 135.441 89.9411 133.809 91.5571C132.193 93.1731 130.057 93.9811 127.401 93.9811ZM127.473 93.5491C129.649 93.5491 131.305 92.8691 132.441 91.5091C133.593 90.1491 134.169 88.1811 134.169 85.6051C134.169 82.7411 133.577 80.5571 132.393 79.0531C131.225 77.5331 129.529 76.7731 127.305 76.7731C125.113 76.7731 123.441 77.4531 122.289 78.8131C121.153 80.1731 120.585 82.1411 120.585 84.7171C120.585 87.5811 121.169 89.7731 122.337 91.2931C123.521 92.7971 125.233 93.5491 127.473 93.5491ZM137.427 93.7891V93.5731H138.267C138.827 93.5731 139.179 93.4771 139.323 93.2851C139.467 93.0931 139.539 92.6931 139.539 92.0851V78.2371C139.539 77.6291 139.467 77.2291 139.323 77.0371C139.179 76.8451 138.827 76.7491 138.267 76.7491H137.427V76.5331H143.331V76.7491H142.707C142.147 76.7491 141.787 76.8451 141.627 77.0371C141.483 77.2291 141.411 77.6291 141.411 78.2371V84.5011H147.987V78.2371C147.987 77.6291 147.907 77.2291 147.747 77.0371C147.603 76.8451 147.251 76.7491 146.691 76.7491H146.067V76.5331H151.995V76.7491H151.131C150.571 76.7491 150.219 76.8451 150.075 77.0371C149.931 77.2291 149.859 77.6291 149.859 78.2371V92.0851C149.859 92.6931 149.931 93.0931 150.075 93.2851C150.219 93.4771 150.571 93.5731 151.131 93.5731H151.995V93.7891H146.067V93.5731H146.715C147.275 93.5731 147.627 93.4771 147.771 93.2851C147.915 93.0931 147.987 92.6931 147.987 92.0851V84.9331H141.411V92.0851C141.411 92.6931 141.483 93.0931 141.627 93.2851C141.787 93.4771 142.147 93.5731 142.707 93.5731H143.331V93.7891H137.427ZM152.826 93.7891V93.5731H153.666C154.226 93.5731 154.578 93.4771 154.722 93.2851C154.866 93.0931 154.938 92.6931 154.938 92.0851V78.2371C154.938 77.6291 154.866 77.2291 154.722 77.0371C154.578 76.8451 154.226 76.7491 153.666 76.7491H152.826V76.5331H158.73V76.7491H158.106C157.546 76.7491 157.186 76.8451 157.026 77.0371C156.882 77.2291 156.81 77.6291 156.81 78.2371V92.1571L163.626 76.5331H167.394V76.7491H166.53C165.97 76.7491 165.618 76.8451 165.474 77.0371C165.33 77.2291 165.258 77.6291 165.258 78.2371V92.0851C165.258 92.6931 165.33 93.0931 165.474 93.2851C165.618 93.4771 165.97 93.5731 166.53 93.5731H167.394V93.7891H161.466V93.5731H162.114C162.674 93.5731 163.026 93.4771 163.17 93.2851C163.314 93.0931 163.386 92.6931 163.386 92.0851V78.1651L156.57 93.7891H152.826ZM176.192 93.7891V93.5731H176.624C177.2 93.5731 177.56 93.5091 177.704 93.3811C177.848 93.2371 177.92 92.8771 177.92 92.3011V86.2291H176.072C176.056 88.5651 175.584 90.4451 174.656 91.8691C173.744 93.2771 172.536 93.9811 171.032 93.9811C169.992 93.9811 169.112 93.6691 168.392 93.0451V91.1491C169.56 91.9811 170.624 92.3971 171.584 92.3971C172.88 92.3971 173.872 91.8611 174.56 90.7891C175.264 89.7171 175.624 88.1971 175.64 86.2291C173.656 86.2291 172.056 85.8131 170.84 84.9811C169.624 84.1331 169.016 82.9331 169.016 81.3811C169.016 79.8291 169.624 78.6371 170.84 77.8051C172.056 76.9571 173.656 76.5331 175.64 76.5331H181.904V76.7491H181.064C180.488 76.7491 180.128 76.8211 179.984 76.9651C179.856 77.0931 179.792 77.4451 179.792 78.0211V92.3011C179.792 92.8771 179.856 93.2371 179.984 93.3811C180.128 93.5091 180.488 93.5731 181.064 93.5731H181.904V93.7891H176.192ZM177.92 85.7971V78.2371C177.92 77.6771 178.056 77.2611 178.328 76.9891V76.9651H175.832C172.68 76.9651 171.104 78.4371 171.104 81.3811C171.104 84.3251 172.68 85.7971 175.832 85.7971H177.92Z" fill="black"></path><path d="M90.8319 24.3809H83.7039V24.1649H85.2399C85.8159 24.1649 86.1759 24.0849 86.3199 23.9249C86.4639 23.7649 86.5359 23.3489 86.5359 22.6769V11.4449C86.5359 10.8529 86.5599 10.3889 86.6079 10.0529L86.5119 10.0049C86.3199 10.2929 86.1199 10.5409 85.9119 10.7489L84.3039 12.5729L84.1359 12.4529L85.0719 11.2769C86.9759 8.84486 87.9279 7.39686 87.9279 6.93286H88.2399V22.6769C88.2399 23.3489 88.3039 23.7649 88.4319 23.9249C88.5759 24.0849 88.9359 24.1649 89.5119 24.1649H90.8319V24.3809ZM96.4091 24.3809H94.7051V23.2289C94.7051 20.8769 95.3211 18.2449 96.5531 15.3329C97.7851 12.4049 98.8571 10.3889 99.7691 9.28486C100.057 8.93286 100.281 8.72486 100.441 8.66086L100.417 8.51686C100.241 8.58086 99.6491 8.61286 98.6411 8.61286H93.3371C92.7291 8.61286 92.3451 8.67686 92.1851 8.80486C92.0411 8.91686 91.9531 9.23686 91.9211 9.76486L91.8251 11.1089H91.5851L91.8491 7.12486H101.521V8.32486C101.313 8.38886 101.017 8.65286 100.633 9.11686C100.249 9.56486 99.8091 10.2129 99.3131 11.0609C98.8331 11.9089 98.3771 12.8609 97.9451 13.9169C97.5131 14.9569 97.1451 16.1809 96.8411 17.5889C96.5531 18.9969 96.4091 20.3969 96.4091 21.7889V24.3809ZM104.285 22.4609C104.605 22.4609 104.861 22.5569 105.053 22.7489C105.245 22.9409 105.341 23.2049 105.341 23.5409C105.341 23.8609 105.245 24.1169 105.053 24.3089C104.877 24.5009 104.621 24.5969 104.285 24.5969C103.965 24.5969 103.701 24.5089 103.493 24.3329C103.301 24.1409 103.205 23.8769 103.205 23.5409C103.205 23.2209 103.301 22.9649 103.493 22.7729C103.685 22.5649 103.949 22.4609 104.285 22.4609ZM104.285 14.0369C104.605 14.0369 104.861 14.1329 105.053 14.3249C105.245 14.5169 105.341 14.7809 105.341 15.1169C105.341 15.4369 105.245 15.6929 105.053 15.8849C104.877 16.0769 104.621 16.1729 104.285 16.1729C103.965 16.1729 103.701 16.0849 103.493 15.9089C103.301 15.7169 103.205 15.4529 103.205 15.1169C103.205 14.7969 103.301 14.5409 103.493 14.3489C103.685 14.1409 103.949 14.0369 104.285 14.0369ZM107.46 22.8209V19.8209H107.892V20.5649C107.972 21.4929 108.332 22.3249 108.972 23.0609C109.612 23.7809 110.46 24.1409 111.516 24.1409C112.732 24.1409 113.66 23.7649 114.3 23.0129C114.94 22.2449 115.26 21.1409 115.26 19.7009C115.26 18.2289 114.932 17.0289 114.276 16.1009C113.62 15.1569 112.756 14.6849 111.684 14.6849H109.5V14.2529H111.324C112.268 14.2529 113.028 13.9009 113.604 13.1969C114.196 12.4769 114.492 11.5809 114.492 10.5089C114.492 9.48486 114.236 8.70886 113.724 8.18086C113.228 7.63686 112.5 7.36486 111.54 7.36486C110.516 7.36486 109.74 7.69286 109.212 8.34886C108.7 8.98886 108.412 9.76486 108.348 10.6769V11.4689H107.94V7.17286H108.156V8.13286L108.228 8.15686C108.356 7.93286 108.532 7.76486 108.756 7.65286C109.508 7.20486 110.428 6.96486 111.516 6.93286C112.86 6.93286 113.94 7.26086 114.756 7.91686C115.572 8.55686 115.98 9.40486 115.98 10.4609C115.98 11.3569 115.684 12.2049 115.092 13.0049C114.516 13.7889 113.844 14.2529 113.076 14.3969V14.4209C114.228 14.5809 115.18 15.1809 115.932 16.2209C116.684 17.2449 117.06 18.4049 117.06 19.7009C117.06 21.1569 116.548 22.3329 115.524 23.2289C114.516 24.1249 113.18 24.5729 111.516 24.5729C110.844 24.5729 110.14 24.4209 109.404 24.1169C108.668 23.8129 108.02 23.3809 107.46 22.8209ZM124.326 7.36486C123.062 7.36486 122.094 8.01286 121.422 9.30886C120.766 10.5889 120.438 12.4529 120.438 14.9009C120.438 17.9089 120.782 20.2049 121.47 21.7889C122.174 23.3569 123.182 24.1409 124.494 24.1409C125.758 24.1409 126.726 23.5009 127.398 22.2209C128.07 20.9249 128.406 19.0529 128.406 16.6049C128.406 13.5969 128.054 11.3089 127.35 9.74086C126.662 8.15686 125.654 7.36486 124.326 7.36486ZM120.222 9.35686C121.294 7.74086 122.694 6.93286 124.422 6.93286C126.15 6.93286 127.542 7.74086 128.598 9.35686C129.67 10.9729 130.206 13.1009 130.206 15.7409C130.206 18.3969 129.67 20.5329 128.598 22.1489C127.542 23.7649 126.15 24.5729 124.422 24.5729C122.694 24.5729 121.294 23.7649 120.222 22.1489C119.166 20.5329 118.638 18.3969 118.638 15.7409C118.638 13.1009 119.166 10.9729 120.222 9.35686Z" fill="black"></path></svg> 