<?xml version="1.0" encoding="UTF-8"?> <svg xmlns="http://www.w3.org/2000/svg" width="215" height="101" viewBox="0 0 215 101" fill="none"><path d="M31.9679 53.0931V52.6611H32.8319C33.7919 52.6611 34.5999 52.3011 35.2559 51.5811C35.9119 50.8611 36.2399 49.9731 36.2399 48.9171C36.2399 47.9091 35.9519 47.1331 35.3759 46.5891C34.7999 46.0451 34.0239 45.7731 33.0479 45.7731C32.0239 45.7731 31.2479 46.1011 30.7199 46.7571C30.2079 47.3971 29.9199 48.1731 29.8559 49.0851V49.8771H29.4479V45.5811H29.6639V46.5411L29.7359 46.5651C29.8639 46.3411 30.0399 46.1731 30.2639 46.0611C31.0159 45.6131 31.9359 45.3731 33.0239 45.3411C34.3839 45.3411 35.5039 45.6691 36.3839 46.3251C37.2799 46.9811 37.7279 47.8291 37.7279 48.8691C37.7279 49.7491 37.3999 50.5891 36.7439 51.3891C36.0879 52.1891 35.3679 52.6611 34.5839 52.8051V52.8291C35.7519 52.9891 36.7439 53.5891 37.5599 54.6291C38.3919 55.6691 38.8079 56.8291 38.8079 58.1091C38.8079 59.5491 38.2639 60.7251 37.1759 61.6371C36.0879 62.5331 34.7039 62.9811 33.0239 62.9811C32.3519 62.9811 31.6479 62.8291 30.9119 62.5251C30.1759 62.2211 29.5279 61.7891 28.9679 61.2291L29.2799 60.9171C29.7919 61.4451 30.3919 61.8531 31.0799 62.1411C31.7679 62.4131 32.4159 62.5491 33.0239 62.5491C34.2559 62.5491 35.2239 62.1651 35.9279 61.3971C36.6479 60.6291 37.0079 59.5331 37.0079 58.1091C37.0079 56.6531 36.6399 55.4531 35.9039 54.5091C35.1839 53.5651 34.2799 53.0931 33.1919 53.0931H31.9679ZM48.5632 54.0531V48.9171C48.5632 46.8211 47.6192 45.7731 45.7312 45.7731C44.5792 45.7731 43.6832 46.0771 43.0432 46.6851C42.4032 47.2771 42.0592 48.0611 42.0112 49.0371L41.9392 50.5251H41.5072L41.7712 44.8611H42.0112L41.9392 46.1331C41.9072 46.5171 41.8752 46.7731 41.8432 46.9011L42.0112 46.9491C42.0912 46.7091 42.2192 46.5251 42.3952 46.3971C43.3392 45.6931 44.4432 45.3411 45.7072 45.3411C47.2592 45.3411 48.4352 45.6771 49.2352 46.3491C50.0352 47.0051 50.4352 47.9651 50.4352 49.2291V61.0851C50.4352 61.5811 50.4752 61.9091 50.5552 62.0691C50.6512 62.2291 50.8752 62.3091 51.2272 62.3091L51.7072 62.2851L52.1152 62.2611L52.1392 62.4771C51.1952 62.5731 50.3232 62.7491 49.5232 63.0051V62.8131C49.5232 62.3331 49.4352 61.6131 49.2592 60.6531C49.1472 59.9331 49.0832 59.4131 49.0672 59.0931H48.8272C48.1872 61.6851 46.8432 62.9811 44.7952 62.9811C43.4832 62.9811 42.3952 62.6211 41.5312 61.9011C40.6832 61.1651 40.2592 60.2131 40.2592 59.0451C40.2592 57.5411 40.8432 56.3331 42.0112 55.4211C43.1952 54.5091 44.7552 54.0531 46.6912 54.0531H48.5632ZM48.5632 54.4851H46.8112C45.4672 54.4851 44.3872 54.9091 43.5712 55.7571C42.7552 56.5891 42.3472 57.6851 42.3472 59.0451C42.3472 60.0371 42.5952 60.8371 43.0912 61.4451C43.6032 62.0371 44.2672 62.3331 45.0832 62.3331C46.0112 62.3331 46.8192 61.9091 47.5072 61.0611C48.2112 60.1971 48.5632 58.9651 48.5632 57.3651V54.4851ZM56.5578 62.3571H59.2938C60.7818 62.3571 61.9818 61.9411 62.8938 61.1091C63.8058 60.2771 64.2618 59.1731 64.2618 57.7971C64.2618 56.3571 63.7818 55.1731 62.8218 54.2451C61.8618 53.3171 60.6378 52.8531 59.1498 52.8531H57.8778V52.4451H58.8378C59.8938 52.4451 60.7658 52.1411 61.4538 51.5331C62.1418 50.9251 62.4858 50.1491 62.4858 49.2051C62.4858 48.2291 62.1178 47.4451 61.3818 46.8531C60.6618 46.2611 59.7018 45.9651 58.5018 45.9651H56.5578V45.9891C56.8298 46.2611 56.9658 46.6771 56.9658 47.2371V61.0851C56.9658 61.6291 56.8298 62.0371 56.5578 62.3091V62.3571ZM52.9818 62.7891V62.5731H53.8218C54.3978 62.5731 54.7498 62.5091 54.8778 62.3811C55.0218 62.2371 55.0938 61.8771 55.0938 61.3011V47.0211C55.0938 46.4451 55.0218 46.0931 54.8778 45.9651C54.7498 45.8211 54.3978 45.7491 53.8218 45.7491H52.9818V45.5331H58.8378C60.5498 45.5331 61.9258 45.8691 62.9658 46.5411C64.0058 47.1971 64.5258 48.0691 64.5258 49.1571C64.5258 49.8931 64.2058 50.6051 63.5658 51.2931C62.9418 51.9651 62.1098 52.3731 61.0698 52.5171V52.6131C62.5738 52.7251 63.8298 53.3011 64.8378 54.3411C65.8458 55.3811 66.3498 56.5331 66.3498 57.7971C66.3498 59.2691 65.7178 60.4691 64.4538 61.3971C63.1898 62.3251 61.6138 62.7891 59.7258 62.7891H52.9818ZM69.6329 53.4291C69.6329 53.5251 69.6329 53.6211 69.6329 53.7171C69.6329 56.5491 70.2329 58.7331 71.4329 60.2691C72.6489 61.7891 74.2969 62.5491 76.3769 62.5491C77.9769 62.5491 79.3929 62.2291 80.6249 61.5891C81.8569 60.9331 82.8249 60.0131 83.5289 58.8291L83.8649 59.0931C83.1129 60.3251 82.0809 61.2851 80.7689 61.9731C79.4729 62.6451 77.9849 62.9811 76.3049 62.9811C73.7609 62.9811 71.6569 62.1651 69.9929 60.5331C68.3289 58.8851 67.4969 56.7411 67.4969 54.1011C67.4969 51.4771 68.3049 49.3651 69.9209 47.7651C71.5529 46.1491 73.6969 45.3411 76.3529 45.3411C78.4969 45.3411 80.3129 46.0211 81.8009 47.3811C83.2889 48.7411 84.0329 50.4851 84.0329 52.6131V52.7331C84.0329 52.9251 83.9609 53.0931 83.8169 53.2371C83.6729 53.3651 83.4969 53.4291 83.2889 53.4291H69.6329ZM69.6569 52.9971L81.7049 52.8291C81.8329 52.8291 81.8969 52.7571 81.8969 52.6131C81.8969 50.5651 81.3769 48.9171 80.3369 47.6691C79.3129 46.4051 77.9529 45.7731 76.2569 45.7731C74.2089 45.7731 72.6169 46.3891 71.4809 47.6211C70.3609 48.8531 69.7529 50.6451 69.6569 52.9971ZM88.8312 45.9891V46.1091C89.1032 46.4771 89.2392 46.9731 89.2392 47.5971V55.6371H90.5832C92.1032 55.6371 93.2552 55.2291 94.0392 54.4131C94.8392 53.5811 95.2392 52.3811 95.2392 50.8131C95.2392 49.2451 94.8392 48.0531 94.0392 47.2371C93.2552 46.4051 92.1032 45.9891 90.5832 45.9891H88.8312ZM85.2552 62.7891V62.5731H86.0952C86.6712 62.5731 87.0232 62.5091 87.1512 62.3811C87.2952 62.2371 87.3672 61.8771 87.3672 61.3011V47.0211C87.3672 46.4451 87.2952 46.0931 87.1512 45.9651C87.0232 45.8211 86.6712 45.7491 86.0952 45.7491H85.2552V45.5331H91.3032C93.1112 45.5331 94.5672 46.0211 95.6712 46.9971C96.7752 47.9571 97.3272 49.2291 97.3272 50.8131C97.3272 52.3971 96.7752 53.6691 95.6712 54.6291C94.5672 55.5891 93.1112 56.0691 91.3032 56.0691H89.2392V61.3011C89.2392 61.8771 89.3112 62.2371 89.4552 62.3811C89.5992 62.5091 89.9592 62.5731 90.5352 62.5731H91.1352V62.7891H85.2552ZM98.3802 62.7891V62.5731H99.2442C99.8042 62.5731 100.156 62.4771 100.3 62.2851C100.444 62.0931 100.516 61.6931 100.516 61.0851V47.2371C100.516 46.6291 100.444 46.2291 100.3 46.0371C100.156 45.8451 99.8042 45.7491 99.2442 45.7491H98.3802V45.5331H104.308V45.7491H103.66C103.1 45.7491 102.748 45.8451 102.604 46.0371C102.46 46.2291 102.388 46.6291 102.388 47.2371V62.3571H108.028V61.0851V47.2371C108.028 46.6451 107.948 46.2531 107.788 46.0611C107.644 45.8531 107.3 45.7491 106.756 45.7491H106.108V45.5331H111.82V45.7491H111.172C110.612 45.7491 110.26 45.8451 110.116 46.0371C109.972 46.2291 109.9 46.6291 109.9 47.2371V61.0851V62.3571H115.54V47.2371C115.54 46.6291 115.46 46.2291 115.3 46.0371C115.156 45.8451 114.804 45.7491 114.244 45.7491H113.62V45.5331H119.524V45.7491H118.684C118.124 45.7491 117.772 45.8451 117.628 46.0371C117.484 46.2291 117.412 46.6291 117.412 47.2371V61.0851C117.412 61.6931 117.484 62.0931 117.628 62.2851C117.772 62.4771 118.124 62.5731 118.684 62.5731H119.524V62.7891H98.3802ZM122.813 53.4291C122.813 53.5251 122.813 53.6211 122.813 53.7171C122.813 56.5491 123.413 58.7331 124.613 60.2691C125.829 61.7891 127.477 62.5491 129.557 62.5491C131.157 62.5491 132.573 62.2291 133.805 61.5891C135.037 60.9331 136.005 60.0131 136.709 58.8291L137.045 59.0931C136.293 60.3251 135.261 61.2851 133.949 61.9731C132.653 62.6451 131.165 62.9811 129.485 62.9811C126.941 62.9811 124.837 62.1651 123.173 60.5331C121.509 58.8851 120.677 56.7411 120.677 54.1011C120.677 51.4771 121.485 49.3651 123.101 47.7651C124.733 46.1491 126.877 45.3411 129.533 45.3411C131.677 45.3411 133.493 46.0211 134.981 47.3811C136.469 48.7411 137.213 50.4851 137.213 52.6131V52.7331C137.213 52.9251 137.141 53.0931 136.997 53.2371C136.853 53.3651 136.677 53.4291 136.469 53.4291H122.813ZM122.837 52.9971L134.885 52.8291C135.013 52.8291 135.077 52.7571 135.077 52.6131C135.077 50.5651 134.557 48.9171 133.517 47.6691C132.493 46.4051 131.133 45.7731 129.437 45.7731C127.389 45.7731 125.797 46.3891 124.661 47.6211C123.541 48.8531 122.933 50.6451 122.837 52.9971ZM138.435 62.7891V62.5731H139.275C139.835 62.5731 140.187 62.4771 140.331 62.2851C140.475 62.0931 140.547 61.6931 140.547 61.0851V47.2371C140.547 46.6291 140.475 46.2291 140.331 46.0371C140.187 45.8451 139.835 45.7491 139.275 45.7491H138.435V45.5331H144.339V45.7491H143.715C143.155 45.7491 142.795 45.8451 142.635 46.0371C142.491 46.2291 142.419 46.6291 142.419 47.2371V53.5011H148.995V47.2371C148.995 46.6291 148.915 46.2291 148.755 46.0371C148.611 45.8451 148.259 45.7491 147.699 45.7491H147.075V45.5331H153.003V45.7491H152.139C151.579 45.7491 151.227 45.8451 151.083 46.0371C150.939 46.2291 150.867 46.6291 150.867 47.2371V61.0851C150.867 61.6931 150.939 62.0931 151.083 62.2851C151.227 62.4771 151.579 62.5731 152.139 62.5731H153.003V62.7891H147.075V62.5731H147.723C148.283 62.5731 148.635 62.4771 148.779 62.2851C148.923 62.0931 148.995 61.6931 148.995 61.0851V53.9331H142.419V61.0851C142.419 61.6931 142.491 62.0931 142.635 62.2851C142.795 62.4771 143.155 62.5731 143.715 62.5731H144.339V62.7891H138.435ZM153.833 62.7891V62.5731H154.673C155.233 62.5731 155.585 62.4771 155.729 62.2851C155.873 62.0931 155.945 61.6931 155.945 61.0851V47.2371C155.945 46.6291 155.873 46.2291 155.729 46.0371C155.585 45.8451 155.233 45.7491 154.673 45.7491H153.833V45.5331H159.737V45.7491H159.113C158.553 45.7491 158.193 45.8451 158.033 46.0371C157.889 46.2291 157.817 46.6291 157.817 47.2371V61.1571L164.633 45.5331H168.401V45.7491H167.537C166.977 45.7491 166.625 45.8451 166.481 46.0371C166.337 46.2291 166.265 46.6291 166.265 47.2371V61.0851C166.265 61.6931 166.337 62.0931 166.481 62.2851C166.625 62.4771 166.977 62.5731 167.537 62.5731H168.401V62.7891H162.473V62.5731H163.121C163.681 62.5731 164.033 62.4771 164.177 62.2851C164.321 62.0931 164.393 61.6931 164.393 61.0851V47.1651L157.577 62.7891H153.833ZM171.68 53.4291C171.68 53.5251 171.68 53.6211 171.68 53.7171C171.68 56.5491 172.28 58.7331 173.48 60.2691C174.696 61.7891 176.344 62.5491 178.424 62.5491C180.024 62.5491 181.44 62.2291 182.672 61.5891C183.904 60.9331 184.872 60.0131 185.576 58.8291L185.912 59.0931C185.16 60.3251 184.128 61.2851 182.816 61.9731C181.52 62.6451 180.032 62.9811 178.352 62.9811C175.808 62.9811 173.704 62.1651 172.04 60.5331C170.376 58.8851 169.544 56.7411 169.544 54.1011C169.544 51.4771 170.352 49.3651 171.968 47.7651C173.6 46.1491 175.744 45.3411 178.4 45.3411C180.544 45.3411 182.36 46.0211 183.848 47.3811C185.336 48.7411 186.08 50.4851 186.08 52.6131V52.7331C186.08 52.9251 186.008 53.0931 185.864 53.2371C185.72 53.3651 185.544 53.4291 185.336 53.4291H171.68ZM171.704 52.9971L183.752 52.8291C183.88 52.8291 183.944 52.7571 183.944 52.6131C183.944 50.5651 183.424 48.9171 182.384 47.6691C181.36 46.4051 180 45.7731 178.304 45.7731C176.256 45.7731 174.664 46.3891 173.528 47.6211C172.408 48.8531 171.8 50.6451 171.704 52.9971ZM41.6853 93.7891V93.5731H43.5093C44.0853 93.5731 44.4373 93.5091 44.5653 93.3811C44.7093 93.2371 44.7813 92.8771 44.7813 92.3011V76.9651H43.3413C42.1413 76.9651 41.3173 77.1491 40.8693 77.5171C40.4213 77.8691 40.1653 78.6051 40.1013 79.7251L40.0293 80.7091L39.5973 80.6851L39.9573 75.1171L40.2213 75.1411L40.1013 76.5331H51.2853L51.1653 75.1651L51.4293 75.1411L51.7893 80.6851L51.3573 80.7091L51.2853 79.7251C51.2053 78.6051 50.9413 77.8691 50.4933 77.5171C50.0453 77.1491 49.2293 76.9651 48.0453 76.9651H46.6533V92.3011C46.6533 92.8771 46.7173 93.2371 46.8453 93.3811C46.9893 93.5091 47.3493 93.5731 47.9253 93.5731H49.7013V93.7891H41.6853ZM61.6119 93.9811C58.9399 93.9811 56.7879 93.1731 55.1559 91.5571C53.5239 89.9411 52.7079 87.8051 52.7079 85.1491C52.7079 82.5091 53.5239 80.3811 55.1559 78.7651C56.7879 77.1491 58.9399 76.3411 61.6119 76.3411C64.2679 76.3411 66.4039 77.1491 68.0199 78.7651C69.6519 80.3811 70.4679 82.5091 70.4679 85.1491C70.4679 87.8051 69.6519 89.9411 68.0199 91.5571C66.4039 93.1731 64.2679 93.9811 61.6119 93.9811ZM61.6839 93.5491C63.8599 93.5491 65.5159 92.8691 66.6519 91.5091C67.8039 90.1491 68.3799 88.1811 68.3799 85.6051C68.3799 82.7411 67.7879 80.5571 66.6039 79.0531C65.4359 77.5331 63.7399 76.7731 61.5159 76.7731C59.3239 76.7731 57.6519 77.4531 56.4999 78.8131C55.3639 80.1731 54.7959 82.1411 54.7959 84.7171C54.7959 87.5811 55.3799 89.7731 56.5479 91.2931C57.7319 92.7971 59.4439 93.5491 61.6839 93.5491ZM75.2141 76.9891V77.1091C75.4861 77.4771 75.6221 77.9731 75.6221 78.5971V86.6371H76.9661C78.4861 86.6371 79.6381 86.2291 80.4221 85.4131C81.2221 84.5811 81.6221 83.3811 81.6221 81.8131C81.6221 80.2451 81.2221 79.0531 80.4221 78.2371C79.6381 77.4051 78.4861 76.9891 76.9661 76.9891H75.2141ZM71.6381 93.7891V93.5731H72.4781C73.0541 93.5731 73.4061 93.5091 73.5341 93.3811C73.6781 93.2371 73.7501 92.8771 73.7501 92.3011V78.0211C73.7501 77.4451 73.6781 77.0931 73.5341 76.9651C73.4061 76.8211 73.0541 76.7491 72.4781 76.7491H71.6381V76.5331H77.6861C79.4941 76.5331 80.9501 77.0211 82.0541 77.9971C83.1581 78.9571 83.7101 80.2291 83.7101 81.8131C83.7101 83.3971 83.1581 84.6691 82.0541 85.6291C80.9501 86.5891 79.4941 87.0691 77.6861 87.0691H75.6221V92.3011C75.6221 92.8771 75.6941 93.2371 75.8381 93.3811C75.9821 93.5091 76.3421 93.5731 76.9181 93.5731H77.5181V93.7891H71.6381ZM90.5517 93.7891V93.5731H91.3917C91.9677 93.5731 92.3197 93.4931 92.4477 93.3331C92.5917 93.1731 92.6637 92.7571 92.6637 92.0851V83.6371H92.5197C92.0557 83.6371 91.6317 83.7011 91.2477 83.8291C90.8637 83.9411 90.5357 84.0851 90.2637 84.2611C90.0077 84.4371 89.7677 84.6931 89.5437 85.0291C89.3197 85.3651 89.1437 85.6611 89.0157 85.9171C88.8877 86.1731 88.7597 86.5411 88.6317 87.0211C88.5197 87.4851 88.4317 87.8611 88.3677 88.1491C88.3197 88.4211 88.2477 88.8131 88.1517 89.3251C88.0717 89.7731 88.0077 90.1251 87.9597 90.3811C87.9117 90.6211 87.8397 90.9331 87.7437 91.3171C87.6477 91.7011 87.5517 92.0051 87.4557 92.2291C87.3597 92.4371 87.2317 92.6771 87.0717 92.9491C86.9117 93.2211 86.7357 93.4291 86.5437 93.5731C86.3517 93.7011 86.1197 93.8131 85.8477 93.9091C85.5917 94.0051 85.3037 94.0531 84.9837 94.0531C84.3437 94.0531 83.6957 93.7571 83.0397 93.1651L82.7277 92.9251L82.8717 92.7571L83.1837 92.9971C83.5837 93.3171 83.9597 93.4771 84.3117 93.4771C84.5837 93.4771 84.8237 93.4131 85.0317 93.2851C85.2397 93.1571 85.3997 93.0131 85.5117 92.8531C85.6237 92.6771 85.7277 92.4211 85.8237 92.0851C85.9197 91.7331 85.9837 91.4371 86.0157 91.1971C86.0477 90.9411 86.0957 90.5731 86.1597 90.0931C86.2237 89.5971 86.2717 89.2131 86.3037 88.9411C86.3517 88.6531 86.4237 88.2691 86.5197 87.7891C86.6317 87.3091 86.7517 86.9171 86.8797 86.6131C87.0237 86.3091 87.2077 85.9571 87.4317 85.5571C87.6717 85.1571 87.9357 84.8371 88.2237 84.5971C88.5117 84.3411 88.8717 84.1011 89.3037 83.8771C89.7517 83.6371 90.2477 83.4531 90.7917 83.3251L90.8157 83.2291L86.9997 78.4051C86.5357 77.8291 85.9837 77.4131 85.3437 77.1571C84.7037 76.8851 84.0797 76.7491 83.4717 76.7491H83.1837V76.5331H88.4877V76.7491H88.2717C87.4397 76.7491 87.0237 76.9651 87.0237 77.3971C87.0237 77.6531 87.1677 77.9571 87.4557 78.3091L91.2477 83.0851C91.4237 83.3091 91.8957 83.4211 92.6637 83.4211V78.0211C92.6637 77.4451 92.5917 77.0931 92.4477 76.9651C92.3197 76.8211 91.9677 76.7491 91.3917 76.7491H91.1517V76.5331H96.0477V76.7491H95.8317C95.2557 76.7491 94.8957 76.8211 94.7517 76.9651C94.6077 77.0931 94.5357 77.4451 94.5357 78.0211V83.4211C94.9837 83.4211 95.3037 83.4051 95.4957 83.3731C95.7037 83.3251 95.8637 83.2291 95.9757 83.0851L99.7677 78.3091C100.056 77.9571 100.2 77.6531 100.2 77.3971C100.2 76.9651 99.7837 76.7491 98.9517 76.7491H98.7357V76.5331H104.04V76.7491H103.752C103.144 76.7491 102.52 76.8851 101.88 77.1571C101.24 77.4131 100.688 77.8291 100.224 78.4051L96.4077 83.2291L96.4317 83.3251C96.9757 83.4531 97.4877 83.6611 97.9677 83.9491C98.4477 84.2211 98.9197 84.6051 99.3837 85.1011C99.8477 85.5811 100.224 86.0131 100.512 86.3971C100.816 86.7811 101.208 87.3251 101.688 88.0291C102.072 88.5571 102.376 88.9891 102.6 89.3251C102.84 89.6451 103.16 90.0531 103.56 90.5491C103.976 91.0291 104.352 91.4211 104.688 91.7251C105.024 92.0131 105.44 92.3331 105.936 92.6851C106.432 93.0371 106.92 93.3091 107.4 93.5011C107.896 93.6931 108.456 93.8531 109.08 93.9811C109.72 94.1251 110.384 94.1971 111.072 94.1971C111.936 94.1971 112.8 94.0931 113.664 93.8851C114.528 93.6771 115.288 93.4131 115.944 93.0931C116.6 92.7731 117.136 92.4851 117.552 92.2291C117.984 91.9571 118.328 91.7171 118.584 91.5091L119.112 91.0531L119.232 91.2211L118.704 91.6771C117.728 92.5251 116.472 93.2771 114.936 93.9331C113.4 94.6051 111.824 94.9411 110.208 94.9411C109.408 94.9411 108.632 94.8531 107.88 94.6771C107.144 94.5171 106.488 94.3171 105.912 94.0771C105.336 93.8371 104.752 93.5011 104.16 93.0691C103.568 92.6371 103.072 92.2451 102.672 91.8931C102.288 91.5251 101.856 91.0531 101.376 90.4771C100.896 89.9011 100.52 89.4371 100.248 89.0851C99.9757 88.7171 99.6317 88.2291 99.2157 87.6211C98.7357 86.9331 98.3517 86.4131 98.0637 86.0611C97.7917 85.6931 97.4557 85.2931 97.0557 84.8611C96.6557 84.4131 96.2637 84.1011 95.8797 83.9251C95.5117 83.7331 95.1197 83.6371 94.7037 83.6371H94.5357V92.0851C94.5357 92.7571 94.6077 93.1731 94.7517 93.3331C94.8957 93.4931 95.2557 93.5731 95.8317 93.5731H96.6717V93.7891H90.5517ZM106.896 82.8691C106.896 82.9651 106.896 83.0611 106.896 83.1571C106.896 85.5251 107.336 87.3331 108.216 88.5811C109.096 89.8131 110.384 90.4291 112.08 90.4291C113.488 90.4291 114.72 90.1171 115.776 89.4931C116.832 88.8691 117.632 88.0051 118.176 86.9011L118.536 87.1411C117.96 88.3091 117.112 89.2211 115.992 89.8771C114.872 90.5331 113.568 90.8611 112.08 90.8611C109.92 90.8611 108.176 90.1891 106.848 88.8451C105.52 87.5011 104.856 85.7331 104.856 83.5411C104.856 81.3811 105.52 79.6451 106.848 78.3331C108.192 77.0051 109.96 76.3411 112.152 76.3411C114.056 76.3411 115.592 76.8691 116.76 77.9251C117.928 78.9651 118.512 80.3411 118.512 82.0531V82.1731C118.512 82.3651 118.44 82.5331 118.296 82.6771C118.152 82.8051 117.976 82.8691 117.768 82.8691H106.896ZM106.92 82.4371L116.328 82.2691C116.456 82.2691 116.52 82.1971 116.52 82.0531C116.52 80.4691 116.112 79.1971 115.296 78.2371C114.48 77.2611 113.4 76.7731 112.056 76.7731C110.472 76.7731 109.24 77.2531 108.36 78.2131C107.496 79.1731 107.016 80.5811 106.92 82.4371ZM121.194 85.1011C121.194 82.4771 121.962 80.3651 123.498 78.7651C125.034 77.1491 127.058 76.3411 129.57 76.3411C131.298 76.3411 132.762 76.8531 133.962 77.8771C134.074 77.9891 134.162 78.1491 134.226 78.3571L134.394 78.3091C134.362 78.1491 134.338 77.9171 134.322 77.6131L134.274 75.8611H134.49L134.706 82.7971L134.274 82.8211L134.202 80.5891C134.138 79.5331 133.618 78.6291 132.642 77.8771C131.682 77.1251 130.594 76.7491 129.378 76.7491C127.41 76.7491 125.906 77.4291 124.866 78.7891C123.842 80.1491 123.33 82.1251 123.33 84.7171C123.33 87.5811 123.866 89.7731 124.938 91.2931C126.026 92.7971 127.594 93.5491 129.642 93.5491C130.81 93.5491 131.89 93.2531 132.882 92.6611C133.874 92.0691 134.57 91.2691 134.97 90.2611L135.378 90.4291C134.93 91.5811 134.178 92.4611 133.122 93.0691C132.082 93.6771 130.906 93.9811 129.594 93.9811C127.082 93.9811 125.05 93.1651 123.498 91.5331C121.962 89.9011 121.194 87.7571 121.194 85.1011ZM138.201 93.7891V93.5731H140.025C140.601 93.5731 140.953 93.5091 141.081 93.3811C141.225 93.2371 141.297 92.8771 141.297 92.3011V76.9651H139.857C138.657 76.9651 137.833 77.1491 137.385 77.5171C136.937 77.8691 136.681 78.6051 136.617 79.7251L136.545 80.7091L136.113 80.6851L136.473 75.1171L136.737 75.1411L136.617 76.5331H147.801L147.681 75.1651L147.945 75.1411L148.305 80.6851L147.873 80.7091L147.801 79.7251C147.721 78.6051 147.457 77.8691 147.009 77.5171C146.561 77.1491 145.745 76.9651 144.561 76.9651H143.169V92.3011C143.169 92.8771 143.233 93.2371 143.361 93.3811C143.505 93.5091 143.865 93.5731 144.441 93.5731H146.217V93.7891H138.201ZM152.675 93.3571H155.411C156.899 93.3571 158.099 92.9411 159.011 92.1091C159.923 91.2771 160.379 90.1731 160.379 88.7971C160.379 87.3571 159.899 86.1731 158.939 85.2451C157.979 84.3171 156.755 83.8531 155.267 83.8531H153.995V83.4451H154.955C156.011 83.4451 156.883 83.1411 157.571 82.5331C158.259 81.9251 158.603 81.1491 158.603 80.2051C158.603 79.2291 158.235 78.4451 157.499 77.8531C156.779 77.2611 155.819 76.9651 154.619 76.9651H152.675V76.9891C152.947 77.2611 153.083 77.6771 153.083 78.2371V92.0851C153.083 92.6291 152.947 93.0371 152.675 93.3091V93.3571ZM149.099 93.7891V93.5731H149.939C150.515 93.5731 150.867 93.5091 150.995 93.3811C151.139 93.2371 151.211 92.8771 151.211 92.3011V78.0211C151.211 77.4451 151.139 77.0931 150.995 76.9651C150.867 76.8211 150.515 76.7491 149.939 76.7491H149.099V76.5331H154.955C156.667 76.5331 158.043 76.8691 159.083 77.5411C160.123 78.1971 160.643 79.0691 160.643 80.1571C160.643 80.8931 160.323 81.6051 159.683 82.2931C159.059 82.9651 158.227 83.3731 157.187 83.5171V83.6131C158.691 83.7251 159.947 84.3011 160.955 85.3411C161.963 86.3811 162.467 87.5331 162.467 88.7971C162.467 90.2691 161.835 91.4691 160.571 92.3971C159.307 93.3251 157.731 93.7891 155.843 93.7891H149.099ZM171.774 85.0531V79.9171C171.774 77.8211 170.83 76.7731 168.942 76.7731C167.79 76.7731 166.894 77.0771 166.254 77.6851C165.614 78.2771 165.27 79.0611 165.222 80.0371L165.15 81.5251H164.718L164.982 75.8611H165.222L165.15 77.1331C165.118 77.5171 165.086 77.7731 165.054 77.9011L165.222 77.9491C165.302 77.7091 165.43 77.5251 165.606 77.3971C166.55 76.6931 167.654 76.3411 168.918 76.3411C170.47 76.3411 171.646 76.6771 172.446 77.3491C173.246 78.0051 173.646 78.9651 173.646 80.2291V92.0851C173.646 92.5811 173.686 92.9091 173.766 93.0691C173.862 93.2291 174.086 93.3091 174.438 93.3091L174.918 93.2851L175.326 93.2611L175.35 93.4771C174.406 93.5731 173.534 93.7491 172.734 94.0051V93.8131C172.734 93.3331 172.646 92.6131 172.47 91.6531C172.358 90.9331 172.294 90.4131 172.278 90.0931H172.038C171.398 92.6851 170.054 93.9811 168.006 93.9811C166.694 93.9811 165.606 93.6211 164.742 92.9011C163.894 92.1651 163.47 91.2131 163.47 90.0451C163.47 88.5411 164.054 87.3331 165.222 86.4211C166.406 85.5091 167.966 85.0531 169.902 85.0531H171.774ZM171.774 85.4851H170.022C168.678 85.4851 167.598 85.9091 166.782 86.7571C165.966 87.5891 165.558 88.6851 165.558 90.0451C165.558 91.0371 165.806 91.8371 166.302 92.4451C166.814 93.0371 167.478 93.3331 168.294 93.3331C169.222 93.3331 170.03 92.9091 170.718 92.0611C171.422 91.1971 171.774 89.9651 171.774 88.3651V85.4851Z" fill="black"></path><path d="M91.2526 24.3809H81.7726V22.9409C81.9326 22.9249 82.2286 22.7649 82.6606 22.4609C83.0926 22.1409 83.4766 21.7569 83.8126 21.3089C85.5086 19.0689 86.8206 17.1169 87.7486 15.4529C88.6766 13.7729 89.1406 12.2849 89.1406 10.9889C89.1406 9.80486 88.8846 8.90886 88.3726 8.30086C87.8606 7.67686 87.1166 7.36486 86.1406 7.36486C85.1966 7.36486 84.4446 7.67686 83.8846 8.30086C83.3246 8.92486 82.9806 9.68486 82.8526 10.5809V11.3969H82.4446V7.17286H82.6606V8.20486C83.6046 7.35686 84.7646 6.93286 86.1406 6.93286C87.5486 6.93286 88.6846 7.33286 89.5486 8.13286C90.4126 8.93286 90.8446 9.98086 90.8446 11.2769C90.8446 12.3169 90.4766 13.4929 89.7406 14.8049C89.0046 16.1169 88.1566 17.3169 87.1966 18.4049C86.2366 19.4769 85.0526 20.6849 83.6446 22.0289C83.1166 22.5249 82.7806 22.8129 82.6366 22.8929L82.7086 23.0129C83.2686 22.9329 83.7326 22.8929 84.1006 22.8929H87.6286C88.8926 22.8929 89.7886 22.7489 90.3166 22.4609C90.8446 22.1729 91.1406 21.5169 91.2046 20.4929L91.2526 19.7969L91.5166 19.8209L91.2526 24.3809ZM92.882 22.8209V19.8209H93.314V20.5649C93.394 21.4929 93.754 22.3249 94.394 23.0609C95.034 23.7809 95.882 24.1409 96.938 24.1409C98.154 24.1409 99.082 23.7649 99.722 23.0129C100.362 22.2449 100.682 21.1409 100.682 19.7009C100.682 18.2289 100.354 17.0289 99.698 16.1009C99.042 15.1569 98.178 14.6849 97.106 14.6849H94.922V14.2529H96.746C97.69 14.2529 98.45 13.9009 99.026 13.1969C99.618 12.4769 99.914 11.5809 99.914 10.5089C99.914 9.48486 99.658 8.70886 99.146 8.18086C98.65 7.63686 97.922 7.36486 96.962 7.36486C95.938 7.36486 95.162 7.69286 94.634 8.34886C94.122 8.98886 93.834 9.76486 93.77 10.6769V11.4689H93.362V7.17286H93.578V8.13286L93.65 8.15686C93.778 7.93286 93.954 7.76486 94.178 7.65286C94.93 7.20486 95.85 6.96486 96.938 6.93286C98.282 6.93286 99.362 7.26086 100.178 7.91686C100.994 8.55686 101.402 9.40486 101.402 10.4609C101.402 11.3569 101.106 12.2049 100.514 13.0049C99.938 13.7889 99.266 14.2529 98.498 14.3969V14.4209C99.65 14.5809 100.602 15.1809 101.354 16.2209C102.106 17.2449 102.482 18.4049 102.482 19.7009C102.482 21.1569 101.97 22.3329 100.946 23.2289C99.938 24.1249 98.602 24.5729 96.938 24.5729C96.266 24.5729 95.562 24.4209 94.826 24.1169C94.09 23.8129 93.442 23.3809 92.882 22.8209ZM105.667 22.4609C105.987 22.4609 106.243 22.5569 106.435 22.7489C106.627 22.9409 106.723 23.2049 106.723 23.5409C106.723 23.8609 106.627 24.1169 106.435 24.3089C106.259 24.5009 106.003 24.5969 105.667 24.5969C105.347 24.5969 105.083 24.5089 104.875 24.3329C104.683 24.1409 104.587 23.8769 104.587 23.5409C104.587 23.2209 104.683 22.9649 104.875 22.7729C105.067 22.5649 105.331 22.4609 105.667 22.4609ZM105.667 14.0369C105.987 14.0369 106.243 14.1329 106.435 14.3249C106.627 14.5169 106.723 14.7809 106.723 15.1169C106.723 15.4369 106.627 15.6929 106.435 15.8849C106.259 16.0769 106.003 16.1729 105.667 16.1729C105.347 16.1729 105.083 16.0849 104.875 15.9089C104.683 15.7169 104.587 15.4529 104.587 15.1169C104.587 14.7969 104.683 14.5409 104.875 14.3489C105.067 14.1409 105.331 14.0369 105.667 14.0369ZM114.435 7.36486C113.171 7.36486 112.203 8.01286 111.531 9.30886C110.875 10.5889 110.547 12.4529 110.547 14.9009C110.547 17.9089 110.891 20.2049 111.579 21.7889C112.283 23.3569 113.291 24.1409 114.603 24.1409C115.867 24.1409 116.835 23.5009 117.507 22.2209C118.179 20.9249 118.515 19.0529 118.515 16.6049C118.515 13.5969 118.163 11.3089 117.459 9.74086C116.771 8.15686 115.763 7.36486 114.435 7.36486ZM110.331 9.35686C111.403 7.74086 112.803 6.93286 114.531 6.93286C116.259 6.93286 117.651 7.74086 118.707 9.35686C119.779 10.9729 120.315 13.1009 120.315 15.7409C120.315 18.3969 119.779 20.5329 118.707 22.1489C117.651 23.7649 116.259 24.5729 114.531 24.5729C112.803 24.5729 111.403 23.7649 110.331 22.1489C109.275 20.5329 108.747 18.3969 108.747 15.7409C108.747 13.1009 109.275 10.9729 110.331 9.35686ZM127.466 7.36486C126.202 7.36486 125.234 8.01286 124.562 9.30886C123.906 10.5889 123.578 12.4529 123.578 14.9009C123.578 17.9089 123.922 20.2049 124.61 21.7889C125.314 23.3569 126.322 24.1409 127.634 24.1409C128.898 24.1409 129.866 23.5009 130.538 22.2209C131.21 20.9249 131.546 19.0529 131.546 16.6049C131.546 13.5969 131.194 11.3089 130.49 9.74086C129.802 8.15686 128.794 7.36486 127.466 7.36486ZM123.362 9.35686C124.434 7.74086 125.834 6.93286 127.562 6.93286C129.29 6.93286 130.682 7.74086 131.738 9.35686C132.81 10.9729 133.346 13.1009 133.346 15.7409C133.346 18.3969 132.81 20.5329 131.738 22.1489C130.682 23.7649 129.29 24.5729 127.562 24.5729C125.834 24.5729 124.434 23.7649 123.362 22.1489C122.306 20.5329 121.778 18.3969 121.778 15.7409C121.778 13.1009 122.306 10.9729 123.362 9.35686Z" fill="black"></path></svg> 