<?xml version="1.0" encoding="UTF-8"?> <svg xmlns="http://www.w3.org/2000/svg" width="230" height="28" viewBox="0 0 230 28" fill="none"><path d="M9.34711 4.7307C10.7338 3.8507 12.3338 3.78404 14.1471 4.5307C14.6538 4.74404 15.0404 4.9707 15.3071 5.2107C15.6004 5.42404 15.8538 5.75737 16.0671 6.2107C16.3071 6.63737 16.4538 7.18404 16.5071 7.8507C16.5871 8.4907 16.6538 9.34404 16.7071 10.4107C16.7604 11.4507 16.7471 12.704 16.6671 14.1707C16.6138 17.344 16.6138 19.2374 16.6671 19.8507C16.7471 20.464 16.9871 20.824 17.3871 20.9307C18.0004 21.0907 18.4538 21.5574 18.7471 22.3307C19.0404 23.0774 19.0538 23.7974 18.7871 24.4907C18.4938 25.264 18.0804 25.6374 17.5471 25.6107C17.0138 25.584 16.6671 25.184 16.5071 24.4107C16.4004 23.8774 16.2004 23.544 15.9071 23.4107C15.6138 23.2774 14.8138 23.1574 13.5071 23.0507C11.6671 22.9174 9.34711 22.9174 6.54711 23.0507L2.38711 23.2907L2.26711 24.7307C2.18711 25.664 1.94711 26.144 1.54711 26.1707C1.17378 26.1974 0.853776 25.7574 0.587109 24.8507C0.347109 23.9174 0.387109 23.1574 0.707109 22.5707C1.02711 21.9574 1.61378 21.5707 2.46711 21.4107C3.10711 21.304 3.56044 21.104 3.82711 20.8107C4.09378 20.4907 4.46711 19.704 4.94711 18.4507C5.37378 17.4107 5.65378 16.5174 5.78711 15.7707C5.94711 15.024 6.01378 14.1174 5.98711 13.0507C5.96044 10.7574 6.18711 8.99737 6.66711 7.7707C7.17378 6.54404 8.06711 5.5307 9.34711 4.7307ZM13.7471 6.8107C13.4271 6.4907 12.8538 6.2907 12.0271 6.2107C11.2271 6.10404 10.5871 6.1707 10.1071 6.4107C9.44044 6.75737 8.96044 7.4107 8.66711 8.3707C8.37378 9.30404 8.14711 10.904 7.98711 13.1707C7.77378 16.024 7.37378 17.9974 6.78711 19.0907C6.20044 20.264 5.94711 20.8774 6.02711 20.9307C6.10711 20.984 7.44044 20.9574 10.0271 20.8507L13.8671 20.6907L14.1471 16.9707C14.3338 14.704 14.3738 12.5174 14.2671 10.4107C14.1871 8.27737 14.0138 7.07737 13.7471 6.8107ZM23.583 9.7307C24.1964 9.14404 24.6897 8.7707 25.063 8.6107C25.463 8.4507 26.103 8.3707 26.983 8.3707C29.1697 8.3707 30.823 9.0107 31.943 10.2907C32.3164 10.6907 32.6097 10.8774 32.823 10.8507C33.0364 10.7974 33.5564 10.464 34.383 9.8507C34.4364 9.79737 34.4764 9.75737 34.503 9.7307C36.9297 7.8907 38.983 7.82404 40.663 9.5307C42.2897 11.184 42.263 13.4507 40.583 16.3307C39.3564 18.4374 37.7297 20.264 35.703 21.8107C33.6764 23.3307 32.1164 23.8907 31.023 23.4907C30.1164 23.144 28.7297 22.064 26.863 20.2507C25.023 18.4107 23.823 16.9574 23.263 15.8907C22.543 14.424 22.2097 13.2374 22.263 12.3307C22.3164 11.424 22.7564 10.5574 23.583 9.7307ZM29.223 10.8507C28.6097 10.5574 27.8497 10.4107 26.943 10.4107C26.063 10.384 25.3964 10.5174 24.943 10.8107C24.463 11.0774 24.2364 11.7174 24.263 12.7307C24.2897 13.7174 24.543 14.624 25.023 15.4507C25.343 15.984 26.503 17.144 28.503 18.9307C30.503 20.7174 31.743 21.704 32.223 21.8907C32.4364 21.9707 33.543 21.0374 35.543 19.0907C37.9697 16.744 39.3697 14.7174 39.743 13.0107C40.0097 11.784 39.5697 11.1707 38.423 11.1707C37.783 11.1707 37.0897 11.3707 36.343 11.7707C35.5964 12.144 34.903 12.664 34.263 13.3307C33.5964 14.0507 33.0097 14.384 32.503 14.3307C32.023 14.2507 31.543 13.7574 31.063 12.8507C30.8497 12.424 30.5697 12.024 30.223 11.6507C29.8764 11.2507 29.543 10.984 29.223 10.8507ZM49.2737 9.7707C49.8603 9.34404 51.0203 9.1707 52.7537 9.2507C53.8737 9.3307 54.6337 9.4507 55.0337 9.6107C55.4603 9.7707 55.927 10.1307 56.4337 10.6907C56.9403 11.2774 57.2603 11.784 57.3937 12.2107C57.527 12.6374 57.5937 13.424 57.5937 14.5707C57.5937 17.1307 56.9937 19.0774 55.7937 20.4107C54.5937 21.7174 52.8603 22.3707 50.5937 22.3707H48.7937V24.5307C48.7937 25.864 48.7003 26.7707 48.5137 27.2507C48.3537 27.7307 48.047 27.9707 47.5937 27.9707C47.1137 27.9707 46.7937 27.7174 46.6337 27.2107C46.4737 26.704 46.3937 25.6907 46.3937 24.1707C46.3937 22.544 46.1937 21.544 45.7937 21.1707C45.3137 20.7974 45.1003 20.1707 45.1537 19.2907C45.1803 18.7307 45.3403 18.4507 45.6337 18.4507C45.6603 18.4774 45.7003 18.4907 45.7537 18.4907C46.1537 18.6507 46.447 17.8107 46.6337 15.9707C46.7403 15.1174 46.7937 14.1307 46.7937 13.0107C46.7937 10.9307 47.1003 9.94404 47.7137 10.0507C47.7937 10.0507 47.8737 10.0774 47.9537 10.1307C48.247 10.3174 48.687 10.1974 49.2737 9.7707ZM54.3137 11.8107C53.5937 11.304 52.727 11.0907 51.7137 11.1707C50.727 11.2507 49.9537 11.584 49.3937 12.1707C48.9137 12.5974 48.6203 13.0507 48.5137 13.5307C48.4337 13.984 48.3937 14.9974 48.3937 16.5707V19.9707H49.9537C51.8203 19.9707 53.1537 19.544 53.9537 18.6907C54.7803 17.8374 55.1937 16.4107 55.1937 14.4107C55.1937 13.6107 55.127 13.0374 54.9937 12.6907C54.887 12.344 54.6603 12.0507 54.3137 11.8107ZM62.1768 9.7307C62.7901 9.14404 63.2835 8.7707 63.6568 8.6107C64.0568 8.4507 64.6968 8.3707 65.5768 8.3707C67.7635 8.3707 69.4168 9.0107 70.5368 10.2907C70.9101 10.6907 71.2035 10.8774 71.4168 10.8507C71.6301 10.7974 72.1501 10.464 72.9768 9.8507C73.0301 9.79737 73.0701 9.75737 73.0968 9.7307C75.5235 7.8907 77.5768 7.82404 79.2568 9.5307C80.8835 11.184 80.8568 13.4507 79.1768 16.3307C77.9501 18.4374 76.3235 20.264 74.2968 21.8107C72.2701 23.3307 70.7101 23.8907 69.6168 23.4907C68.7101 23.144 67.3235 22.064 65.4568 20.2507C63.6168 18.4107 62.4168 16.9574 61.8568 15.8907C61.1368 14.424 60.8035 13.2374 60.8568 12.3307C60.9101 11.424 61.3501 10.5574 62.1768 9.7307ZM67.8168 10.8507C67.2035 10.5574 66.4435 10.4107 65.5368 10.4107C64.6568 10.384 63.9901 10.5174 63.5368 10.8107C63.0568 11.0774 62.8301 11.7174 62.8568 12.7307C62.8835 13.7174 63.1368 14.624 63.6168 15.4507C63.9368 15.984 65.0968 17.144 67.0968 18.9307C69.0968 20.7174 70.3368 21.704 70.8168 21.8907C71.0301 21.9707 72.1368 21.0374 74.1368 19.0907C76.5635 16.744 77.9635 14.7174 78.3368 13.0107C78.6035 11.784 78.1635 11.1707 77.0168 11.1707C76.3768 11.1707 75.6835 11.3707 74.9368 11.7707C74.1901 12.144 73.4968 12.664 72.8568 13.3307C72.1901 14.0507 71.6035 14.384 71.0968 14.3307C70.6168 14.2507 70.1368 13.7574 69.6568 12.8507C69.4435 12.424 69.1635 12.024 68.8168 11.6507C68.4701 11.2507 68.1368 10.984 67.8168 10.8507ZM86.2674 9.9707C86.8008 9.7307 87.8274 9.6107 89.3474 9.6107C90.5474 9.58404 91.4674 9.7307 92.1074 10.0507C92.7741 10.3707 93.0008 10.784 92.7874 11.2907C92.6808 11.5307 92.4408 11.6907 92.0674 11.7707C91.6941 11.8507 91.0141 11.8774 90.0274 11.8507C88.3474 11.7974 87.2008 11.9574 86.5874 12.3307C86.1074 12.5974 85.8408 12.9707 85.7874 13.4507C85.7341 13.904 85.7741 15.3974 85.9074 17.9307C86.1208 21.3174 86.0541 23.1307 85.7074 23.3707C85.0408 23.7974 84.5608 23.3307 84.2674 21.9707C84.0808 21.0107 83.9474 19.5307 83.8674 17.5307C83.7608 15.1574 83.7341 13.6907 83.7874 13.1307C83.8408 12.544 84.0808 11.984 84.5074 11.4507C85.1741 10.624 85.7608 10.1307 86.2674 9.9707ZM106.09 10.4907C106.81 9.63737 107.33 10.144 107.65 12.0107C107.917 13.5307 108.05 15.944 108.05 19.2507C108.05 20.8774 108.01 21.9574 107.93 22.4907C107.85 23.024 107.677 23.344 107.41 23.4507C106.877 23.664 106.437 23.504 106.09 22.9707C105.77 22.4107 105.597 21.5707 105.57 20.4507C105.49 18.984 105.317 18.304 105.05 18.4107C104.944 18.4374 104.837 18.6107 104.73 18.9307C104.57 19.3307 103.45 20.2107 101.37 21.5707C99.3169 22.904 98.0636 23.5707 97.6102 23.5707C96.9169 23.5707 96.4769 23.0774 96.2902 22.0907C96.1036 21.0774 96.0902 19.104 96.2502 16.1707C96.3836 13.984 96.5036 12.5174 96.6102 11.7707C96.7169 10.9974 96.8902 10.5707 97.1302 10.4907C97.3969 10.384 97.6102 10.3974 97.7702 10.5307C97.9569 10.6374 98.0902 10.9174 98.1702 11.3707C98.2769 11.7974 98.3436 12.384 98.3702 13.1307C98.3969 13.8507 98.3969 14.8374 98.3702 16.0907C98.2636 19.2107 98.2769 20.7707 98.4102 20.7707C98.6236 20.7707 99.4502 20.2907 100.89 19.3307C102.33 18.344 103.33 17.584 103.89 17.0507C104.424 16.5707 104.784 16.104 104.97 15.6507C105.184 15.1974 105.344 14.464 105.45 13.4507C105.584 11.8774 105.797 10.8907 106.09 10.4907ZM116.566 10.6507C118.726 9.58404 120.566 9.70404 122.086 11.0107C122.859 11.6507 123.272 12.3974 123.326 13.2507C123.406 14.104 123.112 14.8374 122.446 15.4507C122.046 15.824 121.099 16.2774 119.606 16.8107C118.112 17.3174 116.526 17.7574 114.846 18.1307C114.392 18.2374 114.086 18.384 113.926 18.5707C113.792 18.7574 113.726 19.0907 113.726 19.5707C113.726 20.104 113.792 20.4374 113.926 20.5707C114.086 20.704 114.459 20.7707 115.046 20.7707C115.979 20.7707 117.406 20.584 119.326 20.2107C120.846 19.9174 121.886 19.824 122.446 19.9307C123.032 20.0374 123.326 20.3974 123.326 21.0107C123.326 21.784 121.112 22.3174 116.686 22.6107C114.446 22.7707 112.992 22.7174 112.326 22.4507C111.659 22.1574 111.326 21.4774 111.326 20.4107C111.326 18.5974 111.859 16.6907 112.926 14.6907C114.019 12.664 115.232 11.3174 116.566 10.6507ZM120.846 12.4507C120.286 11.8907 119.299 11.9174 117.886 12.5307C117.299 12.7974 116.619 13.3574 115.846 14.2107C115.099 15.064 114.832 15.5974 115.046 15.8107C115.152 15.944 115.872 15.8507 117.206 15.5307C118.539 15.184 119.552 14.8374 120.246 14.4907C121.419 13.8774 121.619 13.1974 120.846 12.4507ZM143.767 9.9707C144.301 9.7307 145.327 9.6107 146.847 9.6107C148.047 9.58404 148.967 9.7307 149.607 10.0507C150.274 10.3707 150.501 10.784 150.287 11.2907C150.181 11.5307 149.941 11.6907 149.567 11.7707C149.194 11.8507 148.514 11.8774 147.527 11.8507C145.847 11.7974 144.701 11.9574 144.087 12.3307C143.607 12.5974 143.341 12.9707 143.287 13.4507C143.234 13.904 143.274 15.3974 143.407 17.9307C143.621 21.3174 143.554 23.1307 143.207 23.3707C142.541 23.7974 142.061 23.3307 141.767 21.9707C141.581 21.0107 141.447 19.5307 141.367 17.5307C141.261 15.1574 141.234 13.6907 141.287 13.1307C141.341 12.544 141.581 11.984 142.007 11.4507C142.674 10.624 143.261 10.1307 143.767 9.9707ZM154.95 9.7307C155.564 9.14404 156.057 8.7707 156.43 8.6107C156.83 8.4507 157.47 8.3707 158.35 8.3707C160.537 8.3707 162.19 9.0107 163.31 10.2907C163.684 10.6907 163.977 10.8774 164.19 10.8507C164.404 10.7974 164.924 10.464 165.75 9.8507C165.804 9.79737 165.844 9.75737 165.87 9.7307C168.297 7.8907 170.35 7.82404 172.03 9.5307C173.657 11.184 173.63 13.4507 171.95 16.3307C170.724 18.4374 169.097 20.264 167.07 21.8107C165.044 23.3307 163.484 23.8907 162.39 23.4907C161.484 23.144 160.097 22.064 158.23 20.2507C156.39 18.4107 155.19 16.9574 154.63 15.8907C153.91 14.424 153.577 13.2374 153.63 12.3307C153.684 11.424 154.124 10.5574 154.95 9.7307ZM160.59 10.8507C159.977 10.5574 159.217 10.4107 158.31 10.4107C157.43 10.384 156.764 10.5174 156.31 10.8107C155.83 11.0774 155.604 11.7174 155.63 12.7307C155.657 13.7174 155.91 14.624 156.39 15.4507C156.71 15.984 157.87 17.144 159.87 18.9307C161.87 20.7174 163.11 21.704 163.59 21.8907C163.804 21.9707 164.91 21.0374 166.91 19.0907C169.337 16.744 170.737 14.7174 171.11 13.0107C171.377 11.784 170.937 11.1707 169.79 11.1707C169.15 11.1707 168.457 11.3707 167.71 11.7707C166.964 12.144 166.27 12.664 165.63 13.3307C164.964 14.0507 164.377 14.384 163.87 14.3307C163.39 14.2507 162.91 13.7574 162.43 12.8507C162.217 12.424 161.937 12.024 161.59 11.6507C161.244 11.2507 160.91 10.984 160.59 10.8507ZM181.401 10.1707C182.254 9.7707 182.934 9.5707 183.441 9.5707C184.054 9.5707 184.694 9.87737 185.361 10.4907C186.054 11.0774 186.401 11.6374 186.401 12.1707C186.401 12.7574 186.201 13.1307 185.801 13.2907C185.401 13.4507 185.068 13.2774 184.801 12.7707C184.294 11.864 183.481 11.6907 182.361 12.2507C181.268 12.8107 180.348 13.8507 179.601 15.3707C179.068 16.464 178.841 17.624 178.921 18.8507C179.028 20.0507 179.388 20.824 180.001 21.1707C180.534 21.464 181.614 21.5974 183.241 21.5707C184.868 21.544 185.908 21.384 186.361 21.0907C186.841 20.7974 187.294 20.744 187.721 20.9307C188.174 21.0907 188.401 21.424 188.401 21.9307C188.401 23.5574 185.948 24.264 181.041 24.0507C180.028 23.9974 179.081 23.544 178.201 22.6907C177.348 21.8374 176.814 20.8374 176.601 19.6907C176.334 17.984 176.681 16.1707 177.641 14.2507C178.601 12.304 179.854 10.944 181.401 10.1707ZM199.037 10.3307C199.277 10.0907 199.504 9.98404 199.717 10.0107C199.93 10.0107 200.037 10.1307 200.037 10.3707C200.037 10.6374 200.824 10.7707 202.397 10.7707C203.597 10.7707 204.464 10.9307 204.997 11.2507C205.557 11.544 205.73 11.9707 205.517 12.5307C205.437 12.744 205.21 12.8774 204.837 12.9307C204.464 12.984 203.81 12.9707 202.877 12.8907L200.477 12.6507L200.357 17.8107C200.277 20.2907 200.197 21.784 200.117 22.2907C200.037 22.7707 199.784 23.0374 199.357 23.0907C199.037 23.144 198.784 23.104 198.597 22.9707C198.437 22.8107 198.304 22.5174 198.197 22.0907C198.117 21.6374 198.077 20.9974 198.077 20.1707C198.077 19.344 198.09 18.2774 198.117 16.9707L198.277 12.6907L196.317 12.9707C195.277 13.0774 194.237 13.2374 193.197 13.4507C192.45 13.584 191.984 13.4374 191.797 13.0107C191.584 12.4774 191.704 12.0907 192.157 11.8507C192.61 11.6107 193.704 11.3707 195.437 11.1307C197.544 10.8374 198.744 10.5707 199.037 10.3307ZM218.825 10.4907C219.545 9.63737 220.065 10.144 220.385 12.0107C220.651 13.5307 220.785 15.944 220.785 19.2507C220.785 20.8774 220.745 21.9574 220.665 22.4907C220.585 23.024 220.411 23.344 220.145 23.4507C219.611 23.664 219.171 23.504 218.825 22.9707C218.505 22.4107 218.331 21.5707 218.305 20.4507C218.225 18.984 218.051 18.304 217.785 18.4107C217.678 18.4374 217.571 18.6107 217.465 18.9307C217.305 19.3307 216.185 20.2107 214.105 21.5707C212.051 22.904 210.798 23.5707 210.345 23.5707C209.651 23.5707 209.211 23.0774 209.025 22.0907C208.838 21.0774 208.825 19.104 208.985 16.1707C209.118 13.984 209.238 12.5174 209.345 11.7707C209.451 10.9974 209.625 10.5707 209.865 10.4907C210.131 10.384 210.345 10.3974 210.505 10.5307C210.691 10.6374 210.825 10.9174 210.905 11.3707C211.011 11.7974 211.078 12.384 211.105 13.1307C211.131 13.8507 211.131 14.8374 211.105 16.0907C210.998 19.2107 211.011 20.7707 211.145 20.7707C211.358 20.7707 212.185 20.2907 213.625 19.3307C215.065 18.344 216.065 17.584 216.625 17.0507C217.158 16.5707 217.518 16.104 217.705 15.6507C217.918 15.1974 218.078 14.464 218.185 13.4507C218.318 11.8774 218.531 10.8907 218.825 10.4907ZM227.58 0.450702C228.06 0.157368 228.473 0.170701 228.82 0.490702C229.113 0.730702 229.233 1.11737 229.18 1.6507C229.153 2.15737 228.873 3.86403 228.34 6.7707C228.313 6.9307 228.3 7.0507 228.3 7.1307C227.873 9.6107 227.593 11.744 227.46 13.5307C227.327 15.2374 227.14 16.4107 226.9 17.0507C226.66 17.664 226.26 17.9707 225.7 17.9707C225.087 17.9707 224.66 17.6374 224.42 16.9707C224.18 16.2774 224.14 15.2907 224.3 14.0107C224.433 12.544 224.58 11.304 224.74 10.2907C224.873 9.0907 225.127 7.54404 225.5 5.6507C225.9 3.7307 226.22 2.47737 226.46 1.8907C226.567 1.59737 226.727 1.31737 226.94 1.0507C227.153 0.757369 227.367 0.557369 227.58 0.450702ZM224.58 21.2507C225.06 20.744 225.753 20.664 226.66 21.0107C227.14 21.1974 227.353 21.6774 227.3 22.4507C227.273 23.1974 227.007 23.704 226.5 23.9707C225.967 24.2374 225.447 24.2374 224.94 23.9707C224.433 23.6774 224.14 23.2774 224.06 22.7707C224.007 22.2374 224.18 21.7307 224.58 21.2507Z" fill="#253758"></path></svg> 