<?xml version="1.0" encoding="UTF-8"?> <svg xmlns="http://www.w3.org/2000/svg" width="90" height="77" viewBox="0 0 90 77" fill="none"><path d="M89.853 7.52484C89.9463 12.5648 87.7996 17.1382 83.413 21.2448C76.133 28.1515 67.4996 32.3515 57.513 33.8448C58.913 35.2448 59.613 37.2515 59.613 39.8648C59.613 49.0115 54.8996 57.3182 45.473 64.7848C35.2063 72.9048 23.8663 76.5915 11.453 75.8448C4.2663 75.4715 0.579633 72.9515 0.392968 68.2848C0.299634 65.2982 1.3263 62.8248 3.47297 60.8648C4.4063 60.2115 5.05963 60.0248 5.43297 60.3048C5.8063 60.4915 5.71297 60.9582 5.15297 61.7048C3.5663 63.7582 2.81963 65.8582 2.91297 68.0048C3.09963 71.9248 6.17963 73.8848 12.153 73.8848C19.433 73.8848 28.2996 69.6848 38.753 61.2848C49.113 52.9782 54.7596 44.9982 55.693 37.3448V34.2648C53.9196 34.9182 51.773 35.3848 49.253 35.6648C47.3863 35.8515 46.453 35.5248 46.453 34.6848C46.453 34.5915 46.4996 34.2182 46.593 33.5648C46.7796 32.8182 47.993 32.4448 50.233 32.4448C52.0996 32.1648 54.1063 32.2115 56.253 32.5848C62.3196 30.8115 69.8796 25.6315 78.933 17.0448C83.133 13.0315 85.4196 9.34484 85.793 5.98484C86.073 3.55818 84.6263 2.34484 81.453 2.34484C79.3063 2.34484 76.4596 3.51151 72.913 5.84484C71.1396 6.96484 69.0863 8.97151 66.753 11.8648C63.2063 16.1582 60.8263 18.3048 59.613 18.3048C59.4263 18.3048 59.2396 18.2582 59.053 18.1648C58.0263 17.5115 58.353 16.0648 60.033 13.8248C61.8063 11.4915 64.373 9.06484 67.733 6.54484C73.5196 2.25151 78.4663 0.151508 82.573 0.24484C87.333 0.338175 89.7596 2.76484 89.853 7.52484Z" fill="#E0C58E"></path></svg> 