<?xml version="1.0" encoding="UTF-8"?> <svg xmlns="http://www.w3.org/2000/svg" width="322" height="169" viewBox="0 0 322 169" fill="none"><path d="M80.3804 11.8178L79.2097 12.716C78.5638 11.875 77.7867 11.2392 76.8784 10.8086C75.9768 10.3713 74.9844 10.1526 73.9012 10.1526C72.7171 10.1526 71.6204 10.4385 70.6112 11.0104C69.602 11.5756 68.8181 12.3392 68.2597 13.3013C67.708 14.2567 67.4321 15.3332 67.4321 16.5308C67.4321 18.3407 68.0511 19.8512 69.2891 21.0622C70.5338 22.2733 72.1014 22.8788 73.992 22.8788C76.071 22.8788 77.8102 22.0647 79.2097 20.4365L80.3804 21.3246C79.6403 22.2665 78.7152 22.9965 77.605 23.5146C76.5016 24.0259 75.267 24.2816 73.9012 24.2816C71.3042 24.2816 69.2555 23.4171 67.7551 21.6879C66.4969 20.2279 65.8679 18.4652 65.8679 16.3996C65.8679 14.2265 66.6281 12.3998 68.1487 10.9196C69.676 9.43269 71.5867 8.68923 73.881 8.68923C75.267 8.68923 76.5184 8.96509 77.6353 9.51679C78.7522 10.0618 79.6672 10.8288 80.3804 11.8178ZM88.8679 12.9279H90.2909V17.5501L95.3672 12.9279H97.3352L91.7744 17.9538L97.7793 23.9082H95.781L90.7349 18.8318L90.2909 19.2254V23.9082H88.8679V12.9279ZM110.183 12.9279V23.9082H108.79V22.021C108.198 22.7409 107.532 23.2825 106.792 23.6458C106.058 24.0091 105.254 24.1908 104.38 24.1908C102.825 24.1908 101.497 23.629 100.393 22.5054C99.2964 21.3751 98.7481 20.0025 98.7481 18.3878C98.7481 16.8067 99.3032 15.4543 100.413 14.3307C101.523 13.2072 102.859 12.6454 104.42 12.6454C105.321 12.6454 106.136 12.8371 106.862 13.2206C107.596 13.6041 108.238 14.1794 108.79 14.9464V12.9279H110.183ZM104.531 14.0078C103.744 14.0078 103.017 14.2029 102.351 14.5931C101.685 14.9766 101.153 15.5183 100.756 16.218C100.366 16.9177 100.171 17.6578 100.171 18.4383C100.171 19.212 100.37 19.9521 100.767 20.6585C101.163 21.365 101.695 21.9167 102.361 22.3136C103.034 22.7039 103.754 22.899 104.521 22.899C105.295 22.899 106.028 22.7039 106.721 22.3136C107.414 21.9234 107.945 21.3953 108.315 20.7292C108.692 20.0631 108.881 19.3129 108.881 18.4786C108.881 17.207 108.46 16.144 107.619 15.2895C106.785 14.435 105.755 14.0078 104.531 14.0078ZM119.003 12.9279H120.436V17.7823L125.684 12.9279H127.41L122.222 17.8226L127.803 23.9082H125.997L121.244 18.5997L120.436 19.2759V23.9082H119.003V19.2759L118.216 18.5997L113.483 23.9082H111.676L117.197 17.8226L112.09 12.9279H113.816L119.003 17.7823V12.9279ZM129.368 22.7072L133.606 12.9279H134.343L138.552 22.7072H139.874V25.311H138.511V23.9082H129.428V25.3716H128.036V22.7072H129.368ZM133.95 15.1078L130.74 22.7072H137.028L133.95 15.1078ZM143.194 17.2777H144.536C145.606 17.2777 146.444 17.3618 147.049 17.53C147.655 17.6982 148.176 18.0716 148.613 18.6502C149.051 19.2221 149.269 19.8814 149.269 20.6283C149.269 21.5298 148.953 22.3036 148.321 22.9494C147.688 23.5886 146.73 23.9082 145.445 23.9082H141.791V12.9279H143.194V17.2777ZM143.244 18.5695V22.7173H144.869C146.78 22.7173 147.735 22.0445 147.735 20.6989C147.735 20.3154 147.631 19.9386 147.423 19.5686C147.221 19.1985 146.921 18.9395 146.524 18.7915C146.134 18.6435 145.441 18.5695 144.445 18.5695H143.244ZM151.217 12.9279H152.64V23.9082H151.217V12.9279ZM167.577 12.9279H167.98L171.704 23.9082H170.231L167.516 15.8244L163.298 23.9082H163.035L158.807 15.8244L156.102 23.9082H154.628L158.373 12.9279H158.756L163.176 21.5164L167.577 12.9279ZM179.647 22.7072L183.886 12.9279H184.622L188.831 22.7072H190.153V25.311H188.79V23.9082H179.707V25.3716H178.315V22.7072H179.647ZM184.229 15.1078L181.019 22.7072H187.307L184.229 15.1078ZM199.871 18.6199H193.493V23.9082H192.07V12.9279H193.493V17.2877H199.871V12.9279H201.284V23.9082H199.871V18.6199ZM213.688 20.2649L214.879 20.8906C214.488 21.6577 214.038 22.2766 213.526 22.7476C213.015 23.2186 212.44 23.5785 211.8 23.8275C211.161 24.0697 210.438 24.1908 209.631 24.1908C207.841 24.1908 206.441 23.6054 205.432 22.4347C204.423 21.2573 203.918 19.9285 203.918 18.4483C203.918 17.0556 204.346 15.8143 205.2 14.7243C206.283 13.3384 207.733 12.6454 209.55 12.6454C211.42 12.6454 212.914 13.3552 214.031 14.7748C214.825 15.7773 215.228 17.0287 215.242 18.5291H205.372C205.399 19.8074 205.806 20.857 206.593 21.6778C207.38 22.4919 208.352 22.899 209.51 22.899C210.068 22.899 210.61 22.8014 211.134 22.6063C211.666 22.4112 212.117 22.1522 212.487 21.8292C212.857 21.5063 213.257 20.9848 213.688 20.2649ZM213.688 17.3079C213.499 16.5544 213.223 15.9522 212.86 15.5014C212.504 15.0507 212.029 14.6873 211.437 14.4115C210.845 14.1356 210.223 13.9977 209.57 13.9977C208.494 13.9977 207.568 14.3442 206.795 15.0372C206.23 15.5418 205.802 16.2987 205.513 17.3079H213.688ZM229.805 12.9279H230.209L233.933 23.9082H232.459L229.744 15.8244L225.526 23.9082H225.263L221.035 15.8244L218.33 23.9082H216.857L220.601 12.9279H220.984L225.405 21.5164L229.805 12.9279ZM237.455 21.1833L238.817 21.8292L236.768 25.6441L235.769 25.2202L237.455 21.1833ZM27.8507 41.9279H37.0648V52.9082H35.6519V43.2601H29.2636V52.9082H27.8507V41.9279ZM40.2439 41.9279H41.6467V43.9464C42.2051 43.1794 42.8476 42.6041 43.5743 42.2206C44.3009 41.8371 45.1117 41.6454 46.0065 41.6454C47.5674 41.6454 48.9029 42.2072 50.0131 43.3307C51.1232 44.4543 51.6783 45.8067 51.6783 47.3878C51.6783 49.0025 51.1266 50.3751 50.0232 51.5054C48.9265 52.629 47.6011 53.1908 46.0469 53.1908C45.1722 53.1908 44.3682 53.0091 43.6348 52.6458C42.9015 52.2825 42.2388 51.7409 41.6467 51.021V56.9249H40.2439V41.9279ZM45.8955 43.0078C44.671 43.0078 43.6382 43.435 42.7972 44.2895C41.9629 45.144 41.5458 46.207 41.5458 47.4786C41.5458 48.3129 41.7308 49.0631 42.1008 49.7292C42.4776 50.3953 43.0125 50.9234 43.7055 51.3136C44.4052 51.7039 45.1419 51.899 45.9157 51.899C46.6759 51.899 47.3891 51.7039 48.0552 51.3136C48.728 50.9167 49.2629 50.365 49.6599 49.6585C50.0568 48.9521 50.2553 48.212 50.2553 47.4383C50.2553 46.6578 50.0568 45.9177 49.6599 45.218C49.2696 44.5183 48.7415 43.9766 48.0754 43.5931C47.4093 43.2029 46.6827 43.0078 45.8955 43.0078ZM59.53 41.6454C61.2187 41.6454 62.6182 42.2576 63.7283 43.4821C64.7375 44.599 65.2421 45.9211 65.2421 47.4483C65.2421 48.9824 64.7073 50.3246 63.6375 51.4751C62.5744 52.6189 61.2053 53.1908 59.53 53.1908C57.848 53.1908 56.4721 52.6189 55.4023 51.4751C54.3392 50.3246 53.8077 48.9824 53.8077 47.4483C53.8077 45.9278 54.3123 44.6091 55.3216 43.4922C56.4317 42.261 57.8345 41.6454 59.53 41.6454ZM59.53 43.028C58.3593 43.028 57.3534 43.4619 56.5124 44.3299C55.6714 45.1978 55.2509 46.2474 55.2509 47.4786C55.2509 48.2725 55.4427 49.0126 55.8262 49.6989C56.2097 50.3852 56.7277 50.9167 57.3804 51.2935C58.033 51.6635 58.7495 51.8485 59.53 51.8485C60.3104 51.8485 61.027 51.6635 61.6796 51.2935C62.3322 50.9167 62.8503 50.3852 63.2338 49.6989C63.6173 49.0126 63.8091 48.2725 63.8091 47.4786C63.8091 46.2474 63.3852 45.1978 62.5374 44.3299C61.6964 43.4619 60.6939 43.028 59.53 43.028ZM71.0653 52.9082H67.8762V41.9279H71.0149C72.2125 41.9279 73.0737 42.2038 73.5984 42.7555C74.13 43.3072 74.3957 43.9531 74.3957 44.6932C74.3957 45.8101 73.9046 46.567 72.9223 46.9639C74.3486 47.4685 75.0618 48.4407 75.0618 49.8806C75.0618 51.899 73.7296 52.9082 71.0653 52.9082ZM69.2992 43.1491V46.5804H70.2176C71.0519 46.5804 71.5968 46.5468 71.8525 46.4795C72.1082 46.4122 72.347 46.2474 72.569 45.985C72.7978 45.7159 72.9122 45.3626 72.9122 44.9253C72.9122 44.4678 72.7944 44.0843 72.559 43.7748C72.3235 43.4653 72.0745 43.2837 71.8121 43.2298C71.5565 43.176 71.0249 43.1491 70.2176 43.1491H69.2992ZM69.2992 47.8722V51.7173H70.813C71.5262 51.7173 72.0342 51.6736 72.3369 51.5861C72.6464 51.4919 72.9088 51.2935 73.1241 50.9907C73.3461 50.6879 73.4572 50.3044 73.4572 49.8402C73.4572 49.2414 73.2688 48.7637 72.892 48.4071C72.5152 48.0505 72.0173 47.8722 71.3984 47.8722H69.2992ZM86.7889 49.2649L87.9798 49.8906C87.5895 50.6577 87.1388 51.2766 86.6274 51.7476C86.1161 52.2186 85.5408 52.5785 84.9017 52.8275C84.2625 53.0697 83.5392 53.1908 82.7318 53.1908C80.9422 53.1908 79.5427 52.6054 78.5335 51.4347C77.5243 50.2573 77.0197 48.9285 77.0197 47.4483C77.0197 46.0556 77.4469 44.8143 78.3014 43.7243C79.3846 42.3384 80.8345 41.6454 82.6511 41.6454C84.5215 41.6454 86.0152 42.3552 87.132 43.7748C87.9259 44.7773 88.3296 46.0287 88.3431 47.5291H78.473C78.4999 48.8074 78.9069 49.857 79.6941 50.6778C80.4813 51.4919 81.4535 51.899 82.6107 51.899C83.1692 51.899 83.7108 51.8014 84.2356 51.6063C84.7671 51.4112 85.2179 51.1522 85.5879 50.8292C85.958 50.5063 86.3583 49.9848 86.7889 49.2649ZM86.7889 46.3079C86.6005 45.5544 86.3247 44.9522 85.9613 44.5014C85.6047 44.0507 85.1304 43.6873 84.5383 43.4115C83.9463 43.1356 83.3239 42.9977 82.6713 42.9977C81.5948 42.9977 80.6697 43.3442 79.8959 44.0372C79.3308 44.5418 78.9036 45.2987 78.6142 46.3079H86.7889ZM91.0781 51.7072L95.3168 41.9279H96.0535L100.262 51.7072H101.584V54.311H100.222V52.9082H91.1386V54.3716H89.7459V51.7072H91.0781ZM95.6599 44.1078L92.4506 51.7072H98.738L95.6599 44.1078ZM112.746 49.2649L113.937 49.8906C113.547 50.6577 113.096 51.2766 112.584 51.7476C112.073 52.2186 111.498 52.5785 110.859 52.8275C110.22 53.0697 109.496 53.1908 108.689 53.1908C106.899 53.1908 105.5 52.6054 104.491 51.4347C103.481 50.2573 102.977 48.9285 102.977 47.4483C102.977 46.0556 103.404 44.8143 104.258 43.7243C105.342 42.3384 106.792 41.6454 108.608 41.6454C110.479 41.6454 111.972 42.3552 113.089 43.7748C113.883 44.7773 114.287 46.0287 114.3 47.5291H104.43C104.457 48.8074 104.864 49.857 105.651 50.6778C106.438 51.4919 107.411 51.899 108.568 51.899C109.126 51.899 109.668 51.8014 110.193 51.6063C110.724 51.4112 111.175 51.1522 111.545 50.8292C111.915 50.5063 112.315 49.9848 112.746 49.2649ZM112.746 46.3079C112.558 45.5544 112.282 44.9522 111.918 44.5014C111.562 44.0507 111.087 43.6873 110.495 43.4115C109.903 43.1356 109.281 42.9977 108.628 42.9977C107.552 42.9977 106.627 43.3442 105.853 44.0372C105.288 44.5418 104.861 45.2987 104.571 46.3079H112.746ZM124.745 47.6199H118.367V52.9082H116.944V41.9279H118.367V46.2877H124.745V41.9279H126.158V52.9082H124.745V47.6199ZM137.118 47.6199H130.74V52.9082H129.317V41.9279H130.74V46.2877H137.118V41.9279H138.531V52.9082H137.118V47.6199ZM143.093 46.2777H144.435C145.505 46.2777 146.343 46.3618 146.948 46.53C147.554 46.6982 148.075 47.0716 148.513 47.6502C148.95 48.2221 149.169 48.8814 149.169 49.6283C149.169 50.5298 148.852 51.3036 148.22 51.9494C147.587 52.5886 146.629 52.9082 145.344 52.9082H141.69V41.9279H143.093V46.2777ZM143.143 47.5695V51.7173H144.768C146.679 51.7173 147.635 51.0445 147.635 49.6989C147.635 49.3154 147.53 48.9386 147.322 48.5686C147.12 48.1985 146.82 47.9395 146.423 47.7915C146.033 47.6435 145.34 47.5695 144.344 47.5695H143.143ZM151.116 41.9279H152.539V52.9082H151.116V41.9279ZM167.476 41.9279H167.879L171.603 52.9082H170.13L167.415 44.8244L163.197 52.9082H162.934L158.706 44.8244L156.001 52.9082H154.527L158.272 41.9279H158.655L163.075 50.5164L167.476 41.9279ZM41.1017 70.9279H50.3158V81.9082H48.9029V72.2601H42.5146V81.9082H41.1017V70.9279ZM58.6722 70.6454C60.3609 70.6454 61.7604 71.2576 62.8705 72.4821C63.8797 73.599 64.3843 74.9211 64.3843 76.4483C64.3843 77.9824 63.8494 79.3246 62.7797 80.4751C61.7166 81.6189 60.3475 82.1908 58.6722 82.1908C56.9901 82.1908 55.6142 81.6189 54.5445 80.4751C53.4814 79.3246 52.9499 77.9824 52.9499 76.4483C52.9499 74.9278 53.4545 73.6091 54.4637 72.4922C55.5739 71.261 56.9767 70.6454 58.6722 70.6454ZM58.6722 72.028C57.5015 72.028 56.4956 72.4619 55.6546 73.3299C54.8136 74.1978 54.3931 75.2474 54.3931 76.4786C54.3931 77.2725 54.5848 78.0126 54.9683 78.6989C55.3518 79.3852 55.8699 79.9167 56.5225 80.2935C57.1752 80.6635 57.8917 80.8485 58.6722 80.8485C59.4526 80.8485 60.1692 80.6635 60.8218 80.2935C61.4744 79.9167 61.9925 79.3852 62.376 78.6989C62.7595 78.0126 62.9512 77.2725 62.9512 76.4786C62.9512 75.2474 62.5274 74.1978 61.6796 73.3299C60.8386 72.4619 59.8361 72.028 58.6722 72.028ZM74.8196 76.6199H68.4414V81.9082H67.0184V70.9279H68.4414V75.2877H74.8196V70.9279H76.2325V81.9082H74.8196V76.6199ZM80.8042 70.9279V79.0521L88.8679 70.9279H88.9789V81.9082H87.566V73.8547L79.5629 81.9082H79.3913V70.9279H80.8042ZM104.046 70.9279H104.45L108.174 81.9082H106.701L103.986 73.8244L99.7674 81.9082H99.505L95.2764 73.8244L92.5717 81.9082H91.0983L94.8424 70.9279H95.2259L99.6463 79.5164L104.046 70.9279ZM121.233 70.9279V81.9082H119.841V80.021C119.249 80.7409 118.583 81.2825 117.842 81.6458C117.109 82.0091 116.305 82.1908 115.43 82.1908C113.876 82.1908 112.547 81.629 111.444 80.5054C110.347 79.3751 109.799 78.0025 109.799 76.3878C109.799 74.8067 110.354 73.4543 111.464 72.3307C112.574 71.2072 113.91 70.6454 115.471 70.6454C116.372 70.6454 117.186 70.8371 117.913 71.2206C118.646 71.6041 119.289 72.1794 119.841 72.9464V70.9279H121.233ZM115.582 72.0078C114.795 72.0078 114.068 72.2029 113.402 72.5931C112.736 72.9766 112.204 73.5183 111.807 74.218C111.417 74.9177 111.222 75.6578 111.222 76.4383C111.222 77.212 111.42 77.9521 111.817 78.6585C112.214 79.365 112.746 79.9167 113.412 80.3136C114.085 80.7039 114.805 80.899 115.572 80.899C116.345 80.899 117.079 80.7039 117.772 80.3136C118.465 79.9234 118.996 79.3953 119.366 78.7292C119.743 78.0631 119.932 77.3129 119.932 76.4786C119.932 75.207 119.511 74.144 118.67 73.2895C117.836 72.435 116.806 72.0078 115.582 72.0078ZM125.856 81.9082H124.433V70.9279H125.856V75.5401H127.692C127.941 74.0733 128.594 72.8925 129.65 71.9977C130.713 71.0961 131.948 70.6454 133.354 70.6454C134.982 70.6454 136.341 71.2172 137.431 72.361C138.528 73.5048 139.076 74.8672 139.076 76.4483C139.076 78.016 138.531 79.365 137.441 80.4953C136.351 81.6256 134.992 82.1908 133.364 82.1908C131.911 82.1908 130.639 81.7165 129.549 80.7678C128.466 79.8124 127.847 78.5341 127.692 76.9328H125.856V81.9082ZM137.643 76.4786C137.643 75.2608 137.219 74.2146 136.372 73.34C135.524 72.4653 134.521 72.028 133.364 72.028C132.2 72.028 131.194 72.4653 130.347 73.34C129.499 74.2146 129.075 75.2608 129.075 76.4786C129.075 77.6897 129.479 78.7224 130.286 79.5769C131.1 80.4247 132.126 80.8485 133.364 80.8485C134.582 80.8485 135.598 80.4247 136.412 79.5769C137.233 78.7224 137.643 77.6897 137.643 76.4786ZM143.103 79.1833L144.466 79.8292L142.417 83.6441L141.418 83.2202L143.103 79.1833ZM158.08 76.953H155.597C154.474 76.953 153.639 76.6636 153.094 76.085C152.556 75.5064 152.287 74.7024 152.287 73.673V70.9279H153.67V72.9161C153.67 74.1944 153.851 74.9883 154.215 75.2978C154.578 75.6006 155.177 75.752 156.011 75.752H158.08V70.9279H159.483V81.9082H158.08V76.953ZM161.4 70.9279H168.626V72.1491H165.72V81.9082H164.297V72.1491H161.4V70.9279ZM175.741 70.6454C177.43 70.6454 178.829 71.2576 179.939 72.4821C180.949 73.599 181.453 74.9211 181.453 76.4483C181.453 77.9824 180.918 79.3246 179.849 80.4751C178.786 81.6189 177.416 82.1908 175.741 82.1908C174.059 82.1908 172.683 81.6189 171.613 80.4751C170.55 79.3246 170.019 77.9824 170.019 76.4483C170.019 74.9278 170.524 73.6091 171.533 72.4922C172.643 71.261 174.046 70.6454 175.741 70.6454ZM175.741 72.028C174.57 72.028 173.565 72.4619 172.724 73.3299C171.883 74.1978 171.462 75.2474 171.462 76.4786C171.462 77.2725 171.654 78.0126 172.037 78.6989C172.421 79.3852 172.939 79.9167 173.592 80.2935C174.244 80.6635 174.961 80.8485 175.741 80.8485C176.522 80.8485 177.238 80.6635 177.891 80.2935C178.543 79.9167 179.061 79.3852 179.445 78.6989C179.828 78.0126 180.02 77.2725 180.02 76.4786C180.02 75.2474 179.596 74.1978 178.749 73.3299C177.908 72.4619 176.905 72.028 175.741 72.028ZM199.115 81.9082H197.611L193.937 73.9152L190.294 81.9082H188.78L193.806 70.9279H194.058L199.115 81.9082ZM202.717 81.9082H201.294V70.9279H202.717V75.5401H204.554C204.803 74.0733 205.456 72.8925 206.512 71.9977C207.575 71.0961 208.81 70.6454 210.216 70.6454C211.844 70.6454 213.203 71.2172 214.293 72.361C215.39 73.5048 215.938 74.8672 215.938 76.4483C215.938 78.016 215.393 79.365 214.303 80.4953C213.213 81.6256 211.854 82.1908 210.226 82.1908C208.773 82.1908 207.501 81.7165 206.411 80.7678C205.328 79.8124 204.709 78.5341 204.554 76.9328H202.717V81.9082ZM214.505 76.4786C214.505 75.2608 214.081 74.2146 213.234 73.34C212.386 72.4653 211.383 72.028 210.226 72.028C209.062 72.028 208.056 72.4653 207.208 73.34C206.361 74.2146 205.937 75.2608 205.937 76.4786C205.937 77.6897 206.341 78.7224 207.148 79.5769C207.962 80.4247 208.988 80.8485 210.226 80.8485C211.444 80.8485 212.46 80.4247 213.274 79.5769C214.095 78.7224 214.505 77.6897 214.505 76.4786ZM229.068 66.4571V67.8095C228.395 67.9238 227.241 68.0046 225.606 68.0517C224.422 68.092 223.507 68.1728 222.861 68.2939C222.222 68.4083 221.664 68.6337 221.186 68.9701C220.708 69.2997 220.305 69.8043 219.975 70.4839C219.652 71.1567 219.45 71.9102 219.37 72.7445L219.228 74.2886C219.612 73.0305 220.241 72.1087 221.115 71.5234C221.997 70.938 222.972 70.6454 224.042 70.6454C225.67 70.6454 227.029 71.2172 228.119 72.361C229.216 73.5048 229.764 74.8672 229.764 76.4483C229.764 78.016 229.219 79.365 228.13 80.4953C227.04 81.6256 225.677 82.1908 224.042 82.1908C222.367 82.1908 220.947 81.5651 219.783 80.3136C218.619 79.0622 218.037 77.0909 218.037 74.3996C218.037 72.5225 218.249 71.1029 218.673 70.1408C219.104 69.1719 219.595 68.4755 220.147 68.0517C220.698 67.6278 221.412 67.2948 222.286 67.0526C223.161 66.8103 224.799 66.659 227.201 66.5984C227.941 66.5782 228.563 66.5311 229.068 66.4571ZM228.331 76.4786C228.331 75.2608 227.908 74.2146 227.06 73.34C226.212 72.4653 225.206 72.028 224.042 72.028C222.885 72.028 221.882 72.4653 221.035 73.34C220.187 74.2146 219.763 75.2608 219.763 76.4786C219.763 77.6897 220.17 78.7224 220.984 79.5769C221.805 80.4247 222.824 80.8485 224.042 80.8485C225.267 80.8485 226.286 80.4247 227.1 79.5769C227.921 78.7224 228.331 77.6897 228.331 76.4786ZM237.586 70.6454C239.275 70.6454 240.674 71.2576 241.784 72.4821C242.793 73.599 243.298 74.9211 243.298 76.4483C243.298 77.9824 242.763 79.3246 241.693 80.4751C240.63 81.6189 239.261 82.1908 237.586 82.1908C235.904 82.1908 234.528 81.6189 233.458 80.4751C232.395 79.3246 231.864 77.9824 231.864 76.4483C231.864 74.9278 232.368 73.6091 233.377 72.4922C234.488 71.261 235.89 70.6454 237.586 70.6454ZM237.586 72.028C236.415 72.028 235.409 72.4619 234.568 73.3299C233.727 74.1978 233.307 75.2474 233.307 76.4786C233.307 77.2725 233.499 78.0126 233.882 78.6989C234.266 79.3852 234.784 79.9167 235.436 80.2935C236.089 80.6635 236.805 80.8485 237.586 80.8485C238.366 80.8485 239.083 80.6635 239.736 80.2935C240.388 79.9167 240.906 79.3852 241.29 78.6989C241.673 78.0126 241.865 77.2725 241.865 76.4786C241.865 75.2474 241.441 74.1978 240.593 73.3299C239.752 72.4619 238.75 72.028 237.586 72.028ZM249.121 81.9082H245.932V70.9279H249.071C250.268 70.9279 251.13 71.2038 251.654 71.7555C252.186 72.3072 252.452 72.9531 252.452 73.6932C252.452 74.8101 251.96 75.567 250.978 75.9639C252.405 76.4685 253.118 77.4407 253.118 78.8806C253.118 80.899 251.786 81.9082 249.121 81.9082ZM247.355 72.1491V75.5804H248.273C249.108 75.5804 249.653 75.5468 249.908 75.4795C250.164 75.4122 250.403 75.2474 250.625 74.985C250.854 74.7159 250.968 74.3626 250.968 73.9253C250.968 73.4678 250.85 73.0843 250.615 72.7748C250.379 72.4653 250.13 72.2837 249.868 72.2298C249.612 72.176 249.081 72.1491 248.273 72.1491H247.355ZM247.355 76.8722V80.7173H248.869C249.582 80.7173 250.09 80.6736 250.393 80.5861C250.702 80.4919 250.965 80.2935 251.18 79.9907C251.402 79.6879 251.513 79.3044 251.513 78.8402C251.513 78.2414 251.325 77.7637 250.948 77.4071C250.571 77.0505 250.073 76.8722 249.454 76.8722H247.355ZM257.003 75.2777H258.345C259.415 75.2777 260.253 75.3618 260.858 75.53C261.464 75.6982 261.985 76.0716 262.423 76.6502C262.86 77.2221 263.079 77.8814 263.079 78.6283C263.079 79.5298 262.762 80.3036 262.13 80.9494C261.498 81.5886 260.539 81.9082 259.254 81.9082H255.6V70.9279H257.003V75.2777ZM257.054 76.5695V80.7173H258.678C260.589 80.7173 261.545 80.0445 261.545 78.6989C261.545 78.3154 261.44 77.9386 261.232 77.5686C261.03 77.1985 260.731 76.9395 260.334 76.7915C259.943 76.6435 259.25 76.5695 258.255 76.5695H257.054ZM269.386 75.4795H290.297V76.7814H269.386V75.4795ZM47.702 105.832H42.8174V104.621H47.702C47.4665 103.551 46.9249 102.676 46.0771 101.997C45.2361 101.317 44.2303 100.978 43.0596 100.978C41.3843 100.978 40.0622 101.62 39.0934 102.905L37.9731 102.209C38.4306 101.395 39.1236 100.766 40.0521 100.322C40.9873 99.8707 41.9696 99.6454 42.999 99.6454C44.7753 99.6454 46.242 100.214 47.3992 101.351C48.5632 102.488 49.1452 103.874 49.1452 105.509C49.1452 107.056 48.58 108.392 47.4497 109.515C46.3261 110.632 44.8795 111.191 43.11 111.191C42.0806 111.191 41.0983 110.986 40.1631 110.575C39.2279 110.165 38.4979 109.542 37.9731 108.708L39.0934 107.971C40.116 109.256 41.4347 109.899 43.0495 109.899C44.2673 109.899 45.3135 109.529 46.1882 108.789C47.0628 108.049 47.5674 107.063 47.702 105.832ZM50.548 99.9279H57.7739V101.149H54.8674V110.908H53.4444V101.149H50.548V99.9279ZM64.8889 99.6454C66.5777 99.6454 67.9771 100.258 69.0873 101.482C70.0965 102.599 70.6011 103.921 70.6011 105.448C70.6011 106.982 70.0662 108.325 68.9964 109.475C67.9334 110.619 66.5642 111.191 64.8889 111.191C63.2069 111.191 61.831 110.619 60.7612 109.475C59.6982 108.325 59.1667 106.982 59.1667 105.448C59.1667 103.928 59.6713 102.609 60.6805 101.492C61.7906 100.261 63.1934 99.6454 64.8889 99.6454ZM64.8889 101.028C63.7182 101.028 62.7124 101.462 61.8714 102.33C61.0303 103.198 60.6098 104.247 60.6098 105.479C60.6098 106.273 60.8016 107.013 61.1851 107.699C61.5686 108.385 62.0867 108.917 62.7393 109.293C63.3919 109.664 64.1085 109.849 64.8889 109.849C65.6694 109.849 66.3859 109.664 67.0385 109.293C67.6912 108.917 68.2092 108.385 68.5927 107.699C68.9762 107.013 69.168 106.273 69.168 105.479C69.168 104.247 68.7441 103.198 67.8964 102.33C67.0554 101.462 66.0529 101.028 64.8889 101.028ZM86.7687 105.62H80.3905V110.908H78.9675V99.9279H80.3905V104.288H86.7687V99.9279H88.1816V110.908H86.7687V105.62ZM100.585 107.265L101.776 107.891C101.386 108.658 100.935 109.277 100.423 109.748C99.9121 110.219 99.3368 110.579 98.6976 110.827C98.0585 111.07 97.3352 111.191 96.5278 111.191C94.7382 111.191 93.3387 110.605 92.3295 109.435C91.3203 108.257 90.8157 106.929 90.8157 105.448C90.8157 104.056 91.2429 102.814 92.0974 101.724C93.1806 100.338 94.6305 99.6454 96.4471 99.6454C98.3175 99.6454 99.8111 100.355 100.928 101.775C101.722 102.777 102.126 104.029 102.139 105.529H92.2689C92.2958 106.807 92.7029 107.857 93.4901 108.678C94.2773 109.492 95.2495 109.899 96.4067 109.899C96.9652 109.899 97.5068 109.801 98.0316 109.606C98.5631 109.411 99.0139 109.152 99.3839 108.829C99.754 108.506 100.154 107.985 100.585 107.265ZM100.585 104.308C100.396 103.554 100.121 102.952 99.7573 102.501C99.4007 102.051 98.9264 101.687 98.3343 101.411C97.7422 101.136 97.1199 100.998 96.4673 100.998C95.3908 100.998 94.4657 101.344 93.6919 102.037C93.1268 102.542 92.6995 103.299 92.4102 104.308H100.585ZM109.284 99.9279H116.51V101.149H113.604V110.908H112.181V101.149H109.284V99.9279ZM123.625 99.6454C125.314 99.6454 126.713 100.258 127.824 101.482C128.833 102.599 129.337 103.921 129.337 105.448C129.337 106.982 128.803 108.325 127.733 109.475C126.67 110.619 125.301 111.191 123.625 111.191C121.943 111.191 120.567 110.619 119.498 109.475C118.435 108.325 117.903 106.982 117.903 105.448C117.903 103.928 118.408 102.609 119.417 101.492C120.527 100.261 121.93 99.6454 123.625 99.6454ZM123.625 101.028C122.455 101.028 121.449 101.462 120.608 102.33C119.767 103.198 119.346 104.247 119.346 105.479C119.346 106.273 119.538 107.013 119.921 107.699C120.305 108.385 120.823 108.917 121.476 109.293C122.128 109.664 122.845 109.849 123.625 109.849C124.406 109.849 125.122 109.664 125.775 109.293C126.428 108.917 126.946 108.385 127.329 107.699C127.713 107.013 127.904 106.273 127.904 105.479C127.904 104.247 127.48 103.198 126.633 102.33C125.792 101.462 124.789 101.028 123.625 101.028ZM141.266 110.908H139.763L136.089 102.915L132.446 110.908H130.932L135.958 99.9279H136.21L141.266 110.908ZM144.839 104.278H146.181C147.251 104.278 148.089 104.362 148.694 104.53C149.3 104.698 149.821 105.072 150.258 105.65C150.696 106.222 150.914 106.881 150.914 107.628C150.914 108.53 150.598 109.304 149.966 109.949C149.333 110.589 148.375 110.908 147.09 110.908H143.436V99.9279H144.839V104.278ZM144.889 105.569V109.717H146.514C148.425 109.717 149.38 109.045 149.38 107.699C149.38 107.315 149.276 106.939 149.068 106.569C148.866 106.199 148.566 105.939 148.169 105.791C147.779 105.643 147.086 105.569 146.09 105.569H144.889ZM153.185 99.9279H154.608V104.55L159.685 99.9279H161.653L156.092 104.954L162.097 110.908H160.098L155.052 105.832L154.608 106.225V110.908H153.185V99.9279ZM168.757 99.6454C170.446 99.6454 171.846 100.258 172.956 101.482C173.965 102.599 174.47 103.921 174.47 105.448C174.47 106.982 173.935 108.325 172.865 109.475C171.802 110.619 170.433 111.191 168.757 111.191C167.075 111.191 165.699 110.619 164.63 109.475C163.567 108.325 163.035 106.982 163.035 105.448C163.035 103.928 163.54 102.609 164.549 101.492C165.659 100.261 167.062 99.6454 168.757 99.6454ZM168.757 101.028C167.587 101.028 166.581 101.462 165.74 102.33C164.899 103.198 164.478 104.247 164.478 105.479C164.478 106.273 164.67 107.013 165.054 107.699C165.437 108.385 165.955 108.917 166.608 109.293C167.26 109.664 167.977 109.849 168.757 109.849C169.538 109.849 170.254 109.664 170.907 109.293C171.56 108.917 172.078 108.385 172.461 107.699C172.845 107.013 173.036 106.273 173.036 105.479C173.036 104.247 172.613 103.198 171.765 102.33C170.924 101.462 169.921 101.028 168.757 101.028ZM187.751 105.953H185.268C184.145 105.953 183.31 105.664 182.765 105.085C182.227 104.506 181.958 103.702 181.958 102.673V99.9279H183.341V101.916C183.341 103.194 183.522 103.988 183.886 104.298C184.249 104.601 184.848 104.752 185.682 104.752H187.751V99.9279H189.154V110.908H187.751V105.953ZM191.122 99.9279H192.615L196.39 108.385L200.053 99.9279H201.557L195.007 114.925H193.513L195.633 110.081L191.122 99.9279ZM206.573 110.908H203.384V99.9279H206.522C207.72 99.9279 208.581 100.204 209.106 100.755C209.637 101.307 209.903 101.953 209.903 102.693C209.903 103.81 209.412 104.567 208.43 104.964C209.856 105.469 210.569 106.441 210.569 107.881C210.569 109.899 209.237 110.908 206.573 110.908ZM204.807 101.149V104.58H205.725C206.559 104.58 207.104 104.547 207.36 104.48C207.616 104.412 207.854 104.247 208.076 103.985C208.305 103.716 208.42 103.363 208.42 102.925C208.42 102.468 208.302 102.084 208.066 101.775C207.831 101.465 207.582 101.284 207.32 101.23C207.064 101.176 206.532 101.149 205.725 101.149H204.807ZM204.807 105.872V109.717H206.32C207.034 109.717 207.542 109.674 207.844 109.586C208.154 109.492 208.416 109.293 208.631 108.991C208.854 108.688 208.965 108.304 208.965 107.84C208.965 107.241 208.776 106.764 208.399 106.407C208.023 106.051 207.525 105.872 206.906 105.872H204.807ZM223.709 102.209L222.589 102.905C221.62 101.62 220.298 100.978 218.623 100.978C217.284 100.978 216.17 101.408 215.282 102.269C214.401 103.131 213.96 104.177 213.96 105.408C213.96 106.209 214.162 106.962 214.566 107.669C214.976 108.375 215.535 108.923 216.241 109.314C216.954 109.704 217.751 109.899 218.633 109.899C220.248 109.899 221.566 109.256 222.589 107.971L223.709 108.708C223.184 109.495 222.478 110.108 221.59 110.545C220.708 110.975 219.703 111.191 218.572 111.191C216.836 111.191 215.397 110.639 214.253 109.536C213.109 108.432 212.537 107.09 212.537 105.509C212.537 104.446 212.803 103.46 213.334 102.552C213.873 101.637 214.609 100.924 215.545 100.412C216.48 99.901 217.526 99.6454 218.683 99.6454C219.41 99.6454 220.11 99.7564 220.782 99.9784C221.462 100.2 222.037 100.49 222.508 100.846C222.979 101.203 223.379 101.657 223.709 102.209ZM225.203 99.9279H232.429V101.149H229.522V110.908H228.099V101.149H225.203V99.9279ZM237.535 110.908H234.346V99.9279H237.485C238.683 99.9279 239.544 100.204 240.069 100.755C240.6 101.307 240.866 101.953 240.866 102.693C240.866 103.81 240.375 104.567 239.392 104.964C240.819 105.469 241.532 106.441 241.532 107.881C241.532 109.899 240.2 110.908 237.535 110.908ZM235.769 101.149V104.58H236.688C237.522 104.58 238.067 104.547 238.323 104.48C238.578 104.412 238.817 104.247 239.039 103.985C239.268 103.716 239.382 103.363 239.382 102.925C239.382 102.468 239.265 102.084 239.029 101.775C238.794 101.465 238.545 101.284 238.282 101.23C238.027 101.176 237.495 101.149 236.688 101.149H235.769ZM235.769 105.872V109.717H237.283C237.996 109.717 238.504 109.674 238.807 109.586C239.117 109.492 239.379 109.293 239.594 108.991C239.816 108.688 239.927 108.304 239.927 107.84C239.927 107.241 239.739 106.764 239.362 106.407C238.985 106.051 238.487 105.872 237.868 105.872H235.769ZM254.954 99.9279V110.908H253.562V109.021C252.97 109.741 252.304 110.282 251.564 110.646C250.83 111.009 250.026 111.191 249.151 111.191C247.597 111.191 246.268 110.629 245.165 109.505C244.068 108.375 243.52 107.003 243.52 105.388C243.52 103.807 244.075 102.454 245.185 101.331C246.295 100.207 247.631 99.6454 249.192 99.6454C250.093 99.6454 250.908 99.8371 251.634 100.221C252.368 100.604 253.01 101.179 253.562 101.946V99.9279H254.954ZM249.303 101.008C248.516 101.008 247.789 101.203 247.123 101.593C246.457 101.977 245.925 102.518 245.528 103.218C245.138 103.918 244.943 104.658 244.943 105.438C244.943 106.212 245.142 106.952 245.538 107.659C245.935 108.365 246.467 108.917 247.133 109.314C247.806 109.704 248.526 109.899 249.293 109.899C250.067 109.899 250.8 109.704 251.493 109.314C252.186 108.923 252.717 108.395 253.087 107.729C253.464 107.063 253.653 106.313 253.653 105.479C253.653 104.207 253.232 103.144 252.391 102.29C251.557 101.435 250.527 101.008 249.303 101.008ZM259.546 108.183L260.909 108.829L258.86 112.644L257.861 112.22L259.546 108.183ZM24.2175 134.62H17.8393V139.908H16.4163V128.928H17.8393V133.288H24.2175V128.928H25.6304V139.908H24.2175V134.62ZM33.9867 128.645C35.6755 128.645 37.0749 129.258 38.1851 130.482C39.1943 131.599 39.6989 132.921 39.6989 134.448C39.6989 135.982 39.164 137.325 38.0942 138.475C37.0312 139.619 35.662 140.191 33.9867 140.191C32.3047 140.191 30.9288 139.619 29.859 138.475C28.796 137.325 28.2645 135.982 28.2645 134.448C28.2645 132.928 28.7691 131.609 29.7783 130.492C30.8884 129.261 32.2913 128.645 33.9867 128.645ZM33.9867 130.028C32.816 130.028 31.8102 130.462 30.9692 131.33C30.1282 132.198 29.7077 133.247 29.7077 134.479C29.7077 135.273 29.8994 136.013 30.2829 136.699C30.6664 137.385 31.1845 137.917 31.8371 138.293C32.4897 138.664 33.2063 138.849 33.9867 138.849C34.7672 138.849 35.4837 138.664 36.1364 138.293C36.789 137.917 37.3071 137.385 37.6906 136.699C38.0741 136.013 38.2658 135.273 38.2658 134.479C38.2658 133.247 37.8419 132.198 36.9942 131.33C36.1532 130.462 35.1507 130.028 33.9867 130.028ZM49.4782 128.928V137.052L57.5418 128.928H57.6528V139.908H56.2399V131.855L48.2369 139.908H48.0653V128.928H49.4782ZM177.84 124.457V125.809C177.168 125.924 176.014 126.005 174.379 126.052C173.195 126.092 172.28 126.173 171.634 126.294C170.994 126.408 170.436 126.634 169.958 126.97C169.481 127.3 169.077 127.804 168.747 128.484C168.424 129.157 168.222 129.91 168.142 130.745L168 132.289C168.384 131.03 169.013 130.109 169.888 129.523C170.769 128.938 171.745 128.645 172.814 128.645C174.443 128.645 175.802 129.217 176.892 130.361C177.988 131.505 178.537 132.867 178.537 134.448C178.537 136.016 177.992 137.365 176.902 138.495C175.812 139.626 174.449 140.191 172.814 140.191C171.139 140.191 169.719 139.565 168.556 138.314C167.392 137.062 166.81 135.091 166.81 132.4C166.81 130.522 167.022 129.103 167.445 128.141C167.876 127.172 168.367 126.476 168.919 126.052C169.471 125.628 170.184 125.295 171.058 125.053C171.933 124.81 173.571 124.659 175.973 124.598C176.713 124.578 177.336 124.531 177.84 124.457ZM177.104 134.479C177.104 133.261 176.68 132.215 175.832 131.34C174.984 130.465 173.978 130.028 172.814 130.028C171.657 130.028 170.655 130.465 169.807 131.34C168.959 132.215 168.535 133.261 168.535 134.479C168.535 135.69 168.942 136.722 169.757 137.577C170.577 138.425 171.597 138.849 172.814 138.849C174.039 138.849 175.058 138.425 175.872 137.577C176.693 136.722 177.104 135.69 177.104 134.479ZM182.563 133.278H183.906C184.975 133.278 185.813 133.362 186.419 133.53C187.024 133.698 187.546 134.072 187.983 134.65C188.42 135.222 188.639 135.881 188.639 136.628C188.639 137.53 188.323 138.304 187.69 138.949C187.058 139.589 186.099 139.908 184.814 139.908H181.161V128.928H182.563V133.278ZM182.614 134.569V138.717H184.239C186.15 138.717 187.105 138.045 187.105 136.699C187.105 136.315 187.001 135.939 186.792 135.569C186.59 135.199 186.291 134.939 185.894 134.791C185.504 134.643 184.811 134.569 183.815 134.569H182.614ZM190.587 128.928H192.01V139.908H190.587V128.928ZM193.796 128.928H201.022V130.149H198.115V139.908H196.692V130.149H193.796V128.928ZM204.342 133.278H205.685C206.754 133.278 207.592 133.362 208.198 133.53C208.803 133.698 209.324 134.072 209.762 134.65C210.199 135.222 210.418 135.881 210.418 136.628C210.418 137.53 210.102 138.304 209.469 138.949C208.837 139.589 207.878 139.908 206.593 139.908H202.94V128.928H204.342V133.278ZM204.393 134.569V138.717H206.018C207.928 138.717 208.884 138.045 208.884 136.699C208.884 136.315 208.779 135.939 208.571 135.569C208.369 135.199 208.07 134.939 207.673 134.791C207.282 134.643 206.589 134.569 205.594 134.569H204.393ZM218.441 128.928H219.844V130.946C220.402 130.179 221.045 129.604 221.771 129.221C222.498 128.837 223.309 128.645 224.204 128.645C225.765 128.645 227.1 129.207 228.21 130.331C229.32 131.454 229.875 132.807 229.875 134.388C229.875 136.003 229.324 137.375 228.22 138.505C227.124 139.629 225.798 140.191 224.244 140.191C223.369 140.191 222.565 140.009 221.832 139.646C221.099 139.282 220.436 138.741 219.844 138.021V143.925H218.441V128.928ZM224.093 130.008C222.868 130.008 221.835 130.435 220.994 131.29C220.16 132.144 219.743 133.207 219.743 134.479C219.743 135.313 219.928 136.063 220.298 136.729C220.675 137.395 221.21 137.923 221.903 138.314C222.602 138.704 223.339 138.899 224.113 138.899C224.873 138.899 225.586 138.704 226.252 138.314C226.925 137.917 227.46 137.365 227.857 136.659C228.254 135.952 228.452 135.212 228.452 134.438C228.452 133.658 228.254 132.918 227.857 132.218C227.467 131.518 226.939 130.977 226.273 130.593C225.606 130.203 224.88 130.008 224.093 130.008ZM237.162 134.993H236.153L233.024 139.908H231.5L234.8 134.852C233.98 134.751 233.314 134.442 232.802 133.924C232.291 133.399 232.035 132.75 232.035 131.976C232.035 131.007 232.328 130.257 232.913 129.725C233.505 129.194 234.279 128.928 235.234 128.928H238.575V139.908H237.162V134.993ZM237.162 130.149H236.234C235.332 130.149 234.726 130.206 234.417 130.321C234.107 130.435 233.862 130.634 233.68 130.916C233.499 131.192 233.408 131.565 233.408 132.036C233.408 132.487 233.525 132.861 233.761 133.157C233.996 133.446 234.259 133.624 234.548 133.691C234.837 133.759 235.399 133.792 236.234 133.792H237.162V130.149ZM241.825 138.707L246.063 128.928H246.8L251.008 138.707H252.331V141.311H250.968V139.908H241.885V141.372H240.492V138.707H241.825ZM246.406 131.108L243.197 138.707H249.485L246.406 131.108ZM259.445 128.645C261.134 128.645 262.534 129.258 263.644 130.482C264.653 131.599 265.158 132.921 265.158 134.448C265.158 135.982 264.623 137.325 263.553 138.475C262.49 139.619 261.121 140.191 259.445 140.191C257.763 140.191 256.388 139.619 255.318 138.475C254.255 137.325 253.723 135.982 253.723 134.448C253.723 132.928 254.228 131.609 255.237 130.492C256.347 129.261 257.75 128.645 259.445 128.645ZM259.445 130.028C258.275 130.028 257.269 130.462 256.428 131.33C255.587 132.198 255.166 133.247 255.166 134.479C255.166 135.273 255.358 136.013 255.742 136.699C256.125 137.385 256.643 137.917 257.296 138.293C257.948 138.664 258.665 138.849 259.445 138.849C260.226 138.849 260.942 138.664 261.595 138.293C262.248 137.917 262.766 137.385 263.149 136.699C263.533 136.013 263.725 135.273 263.725 134.479C263.725 133.247 263.301 132.198 262.453 131.33C261.612 130.462 260.609 130.028 259.445 130.028ZM279.711 128.928H280.114L283.838 139.908H282.365L279.65 131.824L275.431 139.908H275.169L270.94 131.824L268.236 139.908H266.762L270.506 128.928H270.89L275.31 137.516L279.711 128.928ZM287.512 137.688C287.855 137.688 288.148 137.809 288.39 138.051C288.632 138.293 288.753 138.589 288.753 138.939C288.753 139.282 288.632 139.579 288.39 139.827C288.148 140.07 287.855 140.191 287.512 140.191C287.169 140.191 286.876 140.07 286.634 139.827C286.392 139.579 286.27 139.282 286.27 138.939C286.27 138.589 286.392 138.293 286.634 138.051C286.876 137.809 287.169 137.688 287.512 137.688Z" fill="white"></path><path d="M189.43 56.0966L188.383 55.7108C187.464 55.3801 186.821 54.7738 186.454 53.892C185.939 52.7896 185.719 51.6322 185.792 50.4196C185.792 48.7661 185.994 47.2229 186.399 45.7898C186.876 43.9894 187.648 42.5012 188.713 41.3254C189.301 40.6272 189.853 40.0945 190.367 39.727L190.973 39.3412C191.23 39.1942 191.543 39.1758 191.91 39.2861L192.957 39.727C193.251 39.9475 193.27 40.0945 193.013 40.1679C192.498 40.6824 192.112 41.1049 191.855 41.4356C190.643 43.1259 189.797 44.8529 189.32 46.6166C189.099 47.6087 188.897 48.6559 188.713 49.7582C188.677 49.942 188.658 50.4013 188.658 51.1361C188.585 52.312 188.64 53.249 188.824 53.9471C188.86 54.3513 188.971 54.7371 189.154 55.1045C189.191 55.3618 189.338 55.4904 189.595 55.4904C189.999 55.4904 190.514 55.325 191.139 54.9943C191.726 54.6636 192.241 54.2778 192.682 53.8369C193.123 53.4327 194.005 52.4222 195.327 50.8054L197.477 47.9945C197.771 47.6638 197.955 47.4985 198.028 47.4985C198.138 47.4985 198.322 47.5536 198.579 47.6638L198.855 47.8292C198.928 47.8659 198.947 47.9578 198.91 48.1047L198.8 48.2701L198.028 49.2622C196.411 51.3934 195.199 52.8631 194.39 53.6715C193.986 54.1124 193.564 54.535 193.123 54.9392C192.535 55.4169 191.855 55.8027 191.083 56.0966C190.569 56.1701 190.293 56.2069 190.257 56.2069C190.22 56.2069 189.944 56.1701 189.43 56.0966ZM214.412 60.1202C214.155 60.0834 213.971 59.9364 213.861 59.6792L213.31 58.2462C212.942 56.9969 212.758 55.6006 212.758 54.0573C212.758 52.808 212.832 51.2096 212.979 49.2622L213.089 48.0496C213.236 46.5798 213.31 45.698 213.31 45.404C213.493 43.0524 213.64 41.601 213.751 41.0498L214.357 37.1916C214.394 36.714 214.522 36.4751 214.743 36.4751C214.89 36.4751 215.092 36.5302 215.349 36.6405C215.606 36.7507 215.753 36.9344 215.79 37.1916L215.955 37.9633C216.139 39.6168 216.231 40.9579 216.231 41.9868C216.268 42.4645 216.286 43.5668 216.286 45.2938C216.286 47.0208 216.268 48.1231 216.231 48.6008C216.157 51.2464 216.121 52.7345 216.121 53.0652C216.121 53.4327 216.139 53.6715 216.176 53.7817C216.323 53.6715 216.396 53.5797 216.396 53.5062L217.388 49.8685C217.939 48.1415 218.491 46.7452 219.042 45.6796C219.226 45.2019 219.446 44.8345 219.703 44.5773C219.997 44.1731 220.383 44.0445 220.861 44.1915C221.265 44.3384 221.522 44.4119 221.632 44.4119C222 44.5222 222.257 44.7426 222.404 45.0733L222.735 45.9001L223.727 48.6008L223.782 48.7661C223.892 49.2438 224.057 49.4826 224.278 49.4826C224.351 49.4826 224.59 49.3357 224.994 49.0417C225.876 48.2333 226.409 47.7189 226.593 47.4985C226.703 47.3515 227.07 47.0391 227.695 46.5615C228.026 46.341 228.356 46.2859 228.687 46.3961L229.9 46.7268C230.267 46.8371 230.561 47.0575 230.782 47.3882L231.719 48.9315L232.325 50.0889L232.711 50.585C232.894 50.7687 233.133 50.8606 233.427 50.8606C233.721 50.8606 233.905 50.8422 233.978 50.8054C235.669 50.5115 236.991 50.0889 237.947 49.5378L240.262 48.0496L241.088 47.5536C241.309 47.5168 241.493 47.5168 241.64 47.5536L241.805 47.6087C242.283 47.7557 242.521 47.8659 242.521 47.9394V47.9945C242.521 48.2517 242.338 48.4354 241.97 48.5457L240.537 49.648C239.361 50.5666 237.892 51.1545 236.128 51.4117C235.356 51.522 234.86 51.5771 234.64 51.5771C233.501 51.5771 232.343 51.2648 231.167 50.6401C230.837 50.4196 230.543 50.144 230.286 49.8133C230.102 49.5929 229.79 48.9866 229.349 47.9945C229.165 47.5536 229.018 47.3331 228.908 47.3331C228.724 47.3331 228.503 47.4617 228.246 47.7189L227.42 48.5457L226.427 49.5929C226.244 49.7766 226.023 49.9603 225.766 50.144C225.399 50.4013 224.976 50.4747 224.498 50.3645L223.341 49.9787C222.606 49.7582 222.092 49.2806 221.798 48.5457C221.54 48.0312 221.375 47.4985 221.302 46.9473L220.971 45.5143C220.934 45.4408 220.879 45.404 220.806 45.404C220.769 45.3673 220.732 45.3856 220.695 45.4591L220.199 46.0654C219.464 47.0943 218.766 48.6559 218.105 50.7503C217.848 51.6322 217.59 52.7345 217.333 54.0573L216.947 55.7108L216.286 58.6871C216.249 59.0546 216.176 59.5322 216.065 60.1202C216.065 60.3406 215.937 60.4325 215.68 60.3957C215.643 60.3957 215.478 60.3774 215.184 60.3406C214.926 60.2671 214.669 60.1936 214.412 60.1202ZM233.703 41.3805L233.427 41.3254C231.884 41.2152 230.12 40.8293 228.136 40.1679C226.593 39.6168 225.013 39.1942 223.396 38.9003C223.212 38.8635 222.826 38.8451 222.239 38.8451C221.687 38.8451 221.136 38.9003 220.585 39.0105C219.924 39.1207 219.391 39.3779 218.987 39.7821C218.766 39.9658 218.748 40.1496 218.932 40.3333L219.207 40.6089C219.281 40.6824 219.317 40.7559 219.317 40.8293C219.317 40.9763 219.207 41.0498 218.987 41.0498C218.656 41.0498 218.399 40.8845 218.215 40.5538L217.829 39.3963C217.792 39.3596 217.774 39.231 217.774 39.0105C217.774 38.8268 217.866 38.5879 218.05 38.294C218.307 37.9265 218.656 37.6326 219.097 37.4121C219.428 37.2284 219.942 37.0447 220.64 36.8609C221.191 36.7507 221.724 36.6956 222.239 36.6956C222.79 36.6956 223.451 36.7691 224.223 36.9161C225.178 37.0263 226.354 37.2651 227.75 37.6326L229.624 38.0735C230.91 38.3675 232.104 38.5512 233.207 38.6247H233.648C234.272 38.6247 234.787 38.5512 235.191 38.4042C235.448 38.3675 235.577 38.2389 235.577 38.0184C235.577 37.9082 235.632 37.853 235.742 37.853C235.779 37.853 235.834 37.8898 235.907 37.9633C236.128 38.7717 236.238 39.3963 236.238 39.8372L236.183 40.3333C236.11 40.664 235.926 40.9028 235.632 41.0498C235.264 41.1968 234.621 41.307 233.703 41.3805ZM244.298 57.3643L242.259 56.3722C241.781 56.115 241.359 55.6557 240.991 54.9943C240.55 54.1859 240.33 53.0836 240.33 51.6873C240.33 49.7766 240.807 47.9578 241.763 46.2308C242.057 45.8266 242.424 45.404 242.865 44.9631L243.306 44.6324C243.453 44.4854 243.692 44.4119 244.023 44.4119C244.206 44.4119 244.39 44.467 244.574 44.5773C244.684 44.6508 244.831 44.7794 245.015 44.9631C244.61 45.1101 244.28 45.4408 244.023 45.9552C243.251 47.3147 242.792 48.6559 242.645 49.9787C242.534 50.6401 242.479 51.3199 242.479 52.018C242.479 52.1282 242.516 52.6243 242.59 53.5062C242.736 54.388 242.994 55.1597 243.361 55.8211C243.582 56.2252 243.82 56.4273 244.078 56.4273L244.519 56.3171C245.217 56.1701 245.86 55.7108 246.448 54.9392C247.109 54.0573 247.513 53.0652 247.66 51.9629C247.844 51.1178 247.899 50.5115 247.826 50.144C247.826 49.8501 247.697 49.6847 247.44 49.648H247.33C246.595 49.6113 245.566 49.2438 244.243 48.5457L244.133 48.4354C243.692 48.1782 243.471 47.9026 243.471 47.6087C243.471 47.3147 243.6 47.0391 243.857 46.7819C244.261 46.2675 244.739 46.0103 245.29 46.0103C245.511 46.0103 245.768 46.0654 246.062 46.1757C246.393 46.2859 246.999 46.5798 247.881 47.0575C248.322 47.3147 248.671 47.6454 248.928 48.0496C249.038 48.2701 249.222 48.3619 249.479 48.3252L251.022 47.9945C252.823 47.6271 254.146 47.425 254.991 47.3882C255.395 47.3882 255.726 47.4617 255.983 47.6087L256.644 47.9945C256.718 48.068 256.754 48.1231 256.754 48.1598L256.589 48.3252C254.605 48.6926 253.429 48.8947 253.062 48.9315C252.253 49.0417 251.133 49.2438 249.7 49.5378C249.479 49.6847 249.369 49.8501 249.369 50.0338C249.332 51.0627 249.148 52.1466 248.818 53.2857C248.267 54.7187 247.789 55.6925 247.385 56.2069C247.054 56.6478 246.668 56.9785 246.227 57.199C245.896 57.4194 245.529 57.5297 245.125 57.5297C244.868 57.5297 244.592 57.4746 244.298 57.3643ZM246.778 48.711H247.164C247.532 48.711 247.642 48.5273 247.495 48.1598L247.274 47.774C247.054 47.4066 246.852 47.2229 246.668 47.2229C246.558 47.2229 246.374 47.2964 246.117 47.4433C245.75 47.6638 245.529 47.921 245.456 48.215C245.456 48.3987 245.529 48.5089 245.676 48.5457C246.227 48.6559 246.595 48.711 246.778 48.711ZM258.398 56.262L256.579 55.2699C255.66 54.7555 255.072 53.9838 254.815 52.955C254.595 52.1834 254.484 51.4117 254.484 50.6401C254.484 49.9052 254.613 49.0417 254.87 48.0496C255.127 46.9105 255.623 45.9001 256.358 45.0182C256.652 44.614 256.983 44.3017 257.35 44.0812C257.608 43.9342 257.865 43.8608 258.122 43.8608C258.159 43.8608 258.324 43.8975 258.618 43.971C259.316 44.2649 259.904 44.5956 260.382 44.9631L260.657 45.1836C260.731 45.3673 260.731 45.5143 260.657 45.6245L260.547 45.7898C260.51 45.7898 260.437 45.8817 260.327 46.0654C260.216 46.2124 260.125 46.2675 260.051 46.2308C259.904 46.194 259.831 45.9736 259.831 45.5694L259.72 45.2387C259.647 45.1284 259.555 45.0733 259.445 45.0733C259.041 45.0733 258.692 45.2938 258.398 45.7347C257.92 46.2124 257.571 46.8187 257.35 47.5536C256.836 48.9131 256.634 50.3461 256.744 51.8527C256.781 52.7713 257.02 53.6164 257.461 54.388C257.644 54.682 257.791 54.829 257.902 54.829C258.012 54.829 258.177 54.7922 258.398 54.7187C258.875 54.535 259.243 54.2411 259.5 53.8369C260.198 53.0652 260.676 52.1466 260.933 51.081C261.19 50.3094 261.319 49.4092 261.319 48.3803C261.319 48.2701 261.282 47.774 261.209 46.8922C260.804 44.2833 260.033 42.0235 258.894 40.1128C258.196 38.9003 257.314 37.6693 256.248 36.42C255.66 35.7586 255.146 35.2626 254.705 34.9319L253.217 33.7193L253.106 33.6091C252.702 33.3151 252.5 32.966 252.5 32.5618C252.5 32.1209 252.702 31.7535 253.106 31.4595C253.547 31.0921 254.172 30.743 254.98 30.4123C256.597 29.8244 258.398 29.3651 260.382 29.0344C262.219 28.7404 264.313 28.4832 266.665 28.2627C268.135 28.1893 269.072 28.1525 269.476 28.1525C269.586 28.1525 270.56 28.1893 272.397 28.2627C272.654 28.2627 272.893 28.373 273.114 28.5935L273.775 29.4202C273.922 29.5672 273.922 29.6407 273.775 29.6407C273.738 29.6407 273.702 29.6407 273.665 29.6407C273.04 29.6039 272.214 29.6407 271.185 29.7509L269.972 29.806C267.474 29.8428 265.6 29.953 264.35 30.1367C261.631 30.4307 259.426 30.7981 257.736 31.239C256.56 31.533 255.789 31.7902 255.421 32.0107C254.98 32.2311 254.668 32.4332 254.484 32.617C254.19 32.9109 254.043 33.1498 254.043 33.3335C254.043 33.5539 254.172 33.7744 254.429 33.9949C254.944 34.5093 255.293 34.8216 255.476 34.9319C256.873 35.9607 258.251 37.4121 259.61 39.2861C260.529 40.5354 261.153 41.5642 261.484 42.3726C262.403 44.5773 262.917 46.6533 263.027 48.6008C263.027 49.7399 262.825 50.9524 262.421 52.2385C262.201 52.8999 261.87 53.6715 261.429 54.5534C261.025 55.178 260.621 55.6741 260.216 56.0415C259.812 56.3355 259.463 56.4825 259.169 56.4825C258.986 56.4825 258.728 56.409 258.398 56.262ZM270.618 57.3643L268.579 56.3722C268.101 56.115 267.679 55.6557 267.311 54.9943C266.871 54.1859 266.65 53.0836 266.65 51.6873C266.65 49.7766 267.128 47.9578 268.083 46.2308C268.377 45.8266 268.744 45.404 269.185 44.9631L269.626 44.6324C269.773 44.4854 270.012 44.4119 270.343 44.4119C270.527 44.4119 270.71 44.467 270.894 44.5773C271.004 44.6508 271.151 44.7794 271.335 44.9631C270.931 45.1101 270.6 45.4408 270.343 45.9552C269.571 47.3147 269.112 48.6559 268.965 49.9787C268.855 50.6401 268.8 51.3199 268.8 52.018C268.8 52.1282 268.836 52.6243 268.91 53.5062C269.057 54.388 269.314 55.1597 269.681 55.8211C269.902 56.2252 270.141 56.4273 270.398 56.4273L270.839 56.3171C271.537 56.1701 272.18 55.7108 272.768 54.9392C273.429 54.0573 273.834 53.0652 273.981 51.9629C274.164 51.1178 274.219 50.5115 274.146 50.144C274.146 49.8501 274.017 49.6847 273.76 49.648H273.65C272.915 49.6113 271.886 49.2438 270.563 48.5457L270.453 48.4354C270.012 48.1782 269.792 47.9026 269.792 47.6087C269.792 47.3147 269.92 47.0391 270.178 46.7819C270.582 46.2675 271.059 46.0103 271.611 46.0103C271.831 46.0103 272.088 46.0654 272.382 46.1757C272.713 46.2859 273.319 46.5798 274.201 47.0575C274.642 47.3147 274.991 47.6454 275.248 48.0496C275.358 48.2701 275.542 48.3619 275.799 48.3252L277.343 47.9945C279.143 47.6271 280.466 47.425 281.311 47.3882C281.715 47.3882 282.046 47.4617 282.303 47.6087L282.965 47.9945C283.038 48.068 283.075 48.1231 283.075 48.1598L282.909 48.3252C280.925 48.6926 279.749 48.8947 279.382 48.9315C278.574 49.0417 277.453 49.2438 276.02 49.5378C275.799 49.6847 275.689 49.8501 275.689 50.0338C275.652 51.0627 275.469 52.1466 275.138 53.2857C274.587 54.7187 274.109 55.6925 273.705 56.2069C273.374 56.6478 272.988 56.9785 272.548 57.199C272.217 57.4194 271.849 57.5297 271.445 57.5297C271.188 57.5297 270.912 57.4746 270.618 57.3643ZM273.099 48.711H273.485C273.852 48.711 273.962 48.5273 273.815 48.1598L273.595 47.774C273.374 47.4066 273.172 47.2229 272.988 47.2229C272.878 47.2229 272.695 47.2964 272.437 47.4433C272.07 47.6638 271.849 47.921 271.776 48.215C271.776 48.3987 271.849 48.5089 271.996 48.5457C272.548 48.6559 272.915 48.711 273.099 48.711ZM285.214 38.5144C285.177 38.441 285.159 38.2756 285.159 38.0184C285.159 37.7612 285.214 37.5223 285.324 37.3019C285.361 37.0814 285.508 37.0079 285.765 37.0814C285.949 37.1916 286.078 37.357 286.151 37.5775C286.371 38.5328 286.5 39.0656 286.537 39.1758C286.647 39.58 286.812 39.7821 287.033 39.7821C287.143 39.7821 287.345 39.6903 287.639 39.5065C287.896 39.3228 288.062 39.1207 288.135 38.9003C288.466 38.3123 288.65 37.8898 288.686 37.6326C288.833 37.4121 288.999 37.357 289.182 37.4672C289.476 37.6142 289.605 37.8898 289.568 38.294C289.421 38.8084 289.182 39.3044 288.852 39.7821C288.521 40.2231 288.172 40.4435 287.805 40.4435H287.529C286.28 39.9658 285.508 39.3228 285.214 38.5144ZM294.804 57.7501L292.985 57.2541C292.581 57.1439 292.159 56.758 291.718 56.0966C291.314 55.4352 291.038 54.7187 290.891 53.9471C290.781 53.5062 290.671 52.6427 290.56 51.3566C290.487 50.4013 290.45 49.2622 290.45 47.9394C290.45 47.8292 290.45 47.7005 290.45 47.5536C290.45 47.4066 290.45 47.2596 290.45 47.1126C290.45 46.9657 290.45 46.8738 290.45 46.8371C290.377 46.7636 290.303 46.8003 290.23 46.9473L289.899 47.6638C288.723 50.2359 287.437 52.5141 286.041 54.4983C285.526 55.1597 285.214 55.5455 285.104 55.6557C284.883 55.8762 284.608 55.9313 284.277 55.8211L283.12 55.4904C282.605 55.3801 282.238 55.0678 282.017 54.5534C281.723 53.7817 281.54 53.0285 281.466 52.2936L281.411 50.6952C281.411 50.5482 281.448 49.7766 281.521 48.3803C281.668 46.9105 281.834 45.845 282.017 45.1836C282.164 44.7426 282.311 44.5222 282.458 44.5222C282.568 44.5222 282.771 44.5773 283.064 44.6875C283.358 44.7977 283.505 45.0366 283.505 45.404C283.579 47.1678 283.616 48.1782 283.616 48.4354C283.689 49.6113 283.818 51.0259 284.001 52.6794C284.038 52.8999 284.112 53.3959 284.222 54.1676C284.222 54.2411 284.24 54.2962 284.277 54.3329C284.351 54.3329 284.406 54.3145 284.442 54.2778C284.81 54.0573 285.141 53.7083 285.434 53.2306C286.133 52.3487 286.794 51.3199 287.419 50.144C288.337 48.4171 289.256 46.4145 290.175 44.1363L290.726 42.7033C290.909 42.2991 291.038 41.9133 291.112 41.5459C291.148 41.2519 291.277 40.8477 291.497 40.3333C291.534 40.1863 291.644 40.1312 291.828 40.1679L292.985 40.5538C293.243 40.664 293.426 40.8477 293.537 41.1049C293.684 41.5091 293.72 42.097 293.647 42.8687L293.426 46.1205C293.353 47.5168 293.316 49.0785 293.316 50.8054C293.316 51.5771 293.426 52.7345 293.647 54.2778C293.757 55.0127 293.959 55.7108 294.253 56.3722C294.363 56.6294 294.455 56.758 294.529 56.758C294.676 56.758 294.823 56.6846 294.97 56.5376C295.521 56.2069 295.999 55.7659 296.403 55.2148C296.77 54.7371 297.45 53.7083 298.442 52.1282C299.361 50.6585 299.967 49.5929 300.261 48.9315C300.445 48.4538 300.665 48.0864 300.922 47.8292C301.106 47.6454 301.271 47.5719 301.418 47.6087C302.006 47.7557 302.355 47.8843 302.466 47.9945C302.172 48.5824 301.914 49.0233 301.694 49.3173C301.216 49.9787 300.739 50.732 300.261 51.5771L298.662 54.3329C297.891 55.5822 297.266 56.4457 296.789 56.9234L296.127 57.4746C295.723 57.7685 295.282 57.8604 294.804 57.7501Z" fill="#FE96CB"></path><path d="M90.6616 132.929C90.6616 133.003 90.5146 133.15 90.2207 133.37L87.7404 135.189C87.0423 135.63 86.3441 136.181 85.646 136.842C85.3888 137.063 85.2602 137.339 85.2602 137.669C85.1867 139.139 84.7641 140.627 83.9925 142.134C83.5148 143.126 82.8902 143.897 82.1185 144.449L81.5122 144.779C81.1815 144.926 80.906 144.945 80.6855 144.834L79.4729 144.283C79.3259 144.246 79.2525 144.099 79.2525 143.842C79.2525 143.659 79.3076 143.475 79.4178 143.291C79.7118 142.519 80.2078 141.656 80.906 140.701L82.1185 139.102C82.3022 138.845 82.4308 138.569 82.5043 138.276C82.7615 136.806 82.8718 135.593 82.835 134.638C82.835 134.013 82.7615 133.572 82.6146 133.315C82.3206 133.315 82.0267 133.462 81.7327 133.756C81.2918 134.197 80.9794 134.583 80.7957 134.913C80.4283 135.612 80.0976 136.328 79.8036 137.063C79.3259 138.533 78.7931 140.388 78.2052 142.63L77.3785 145.882L77.0478 146.929C76.9008 147.223 76.6436 147.351 76.2762 147.315C76.1292 147.278 75.6882 147.149 74.9534 146.929C74.4757 146.819 74.145 146.506 73.9613 145.992C73.851 145.808 73.704 145.312 73.5203 144.504C73.2999 143.291 73.1896 142.042 73.1896 140.756C73.1896 139.102 73.2631 137.081 73.4101 134.693C73.5938 132.341 73.7959 130.284 74.0164 128.52C74.0531 128.336 74.1266 127.932 74.2368 127.307C74.2736 126.83 74.4206 125.929 74.6778 124.607C75.082 122.622 75.6331 120.859 76.3313 119.315C76.7355 118.544 77.1397 117.937 77.5438 117.497C77.8378 117.056 78.2604 116.762 78.8115 116.615C79.032 116.541 79.2341 116.504 79.4178 116.504C79.6383 116.504 79.8587 116.541 80.0792 116.615L80.7406 117L81.5674 117.497C82.1553 117.79 82.4676 118.342 82.5043 119.15C82.5043 119.701 82.4308 120.289 82.2839 120.914C82.0634 122.016 81.4387 123.872 80.4099 126.481C79.3443 129.016 78.1317 131.496 76.7722 133.921C76.4048 134.509 76.221 135.189 76.221 135.961C76.221 136.732 76.2027 137.21 76.1659 137.394L76.1108 138.882C76.0741 139.359 76.0557 140.425 76.0557 142.079C76.0557 142.519 76.1108 143.181 76.221 144.063C76.221 144.173 76.2578 144.228 76.3313 144.228C76.4048 144.302 76.4783 144.246 76.5517 144.063C76.5517 143.989 76.5701 143.879 76.6069 143.732C76.6803 143.585 76.7355 143.456 76.7722 143.346L78.2052 138.606C78.6094 137.1 79.032 135.924 79.4729 135.079C79.6566 134.601 79.9139 134.123 80.2446 133.646C80.612 133.205 80.9243 132.874 81.1815 132.654C81.4755 132.47 81.7511 132.378 82.0083 132.378C82.045 132.378 82.2104 132.415 82.5043 132.488C82.6513 132.598 83.0371 132.782 83.6618 133.039C84.3232 133.333 84.7641 133.811 84.9846 134.472L85.2602 135.685H85.3704C85.4806 135.685 85.6276 135.593 85.8113 135.409L87.9058 133.756L89.0081 132.874L89.5041 132.543C89.7246 132.323 89.9083 132.305 90.0553 132.488L90.1104 132.543C90.4779 132.69 90.6616 132.819 90.6616 132.929ZM76.6069 131.331L76.662 131.827C76.7722 131.717 76.8457 131.625 76.8824 131.551C76.8824 131.478 76.9008 131.404 76.9376 131.331C77.011 131.257 77.0662 131.165 77.1029 131.055C77.1764 130.908 77.2315 130.78 77.2683 130.669C78.5176 128.208 79.4729 125.801 80.1343 123.449C80.6855 121.502 80.9794 120.179 81.0162 119.481V118.709C81.0162 118.562 80.9794 118.452 80.906 118.378C80.8325 118.342 80.7406 118.378 80.6304 118.489C80.1159 118.93 79.6934 119.444 79.3627 120.032C78.7013 121.208 78.2236 122.328 77.9297 123.394C77.3417 125.709 76.9008 128.355 76.6069 131.331ZM76.6069 131.882V131.827V131.882ZM115.921 133.37L112.008 138.165C111.053 139.378 110.281 140.186 109.693 140.59C109.436 140.848 109.252 140.995 109.142 141.031C108.885 141.178 108.646 141.252 108.426 141.252C108.242 141.252 108.076 141.215 107.929 141.142C106.827 140.664 106.037 140.278 105.559 139.984C104.972 139.617 104.567 139.066 104.347 138.331C104.053 137.265 103.869 136.255 103.796 135.299V134.197C102.069 135.52 101.04 136.328 100.709 136.622C100.232 137.063 99.9376 137.375 99.8273 137.559C99.7171 137.743 99.5701 138.147 99.3864 138.772C98.9455 140.168 98.3575 141.325 97.6227 142.244C97.292 142.685 96.9061 143.071 96.4652 143.401C96.1712 143.622 95.8589 143.714 95.5282 143.677L94.5361 143.512C94.2422 143.401 94.0952 143.218 94.0952 142.96C94.0952 142.74 94.1687 142.464 94.3157 142.134C94.4994 141.729 94.775 141.197 95.1424 140.535C95.8405 139.617 96.5019 138.827 97.1266 138.165L97.5675 137.724C97.788 137.504 97.9166 137.283 97.9534 137.063C98.1738 135.667 98.2841 134.638 98.2841 133.976L98.2289 133.095C98.1922 132.654 98.1003 132.231 97.9534 131.827C97.8799 131.533 97.7513 131.478 97.5675 131.662C97.0164 132.066 96.5387 132.543 96.1345 133.095C95.6201 133.866 95.2159 134.656 94.9219 135.465C94.1136 137.449 93.4889 139.378 93.048 141.252L92.2763 144.504C92.2029 144.908 92.111 145.551 92.0008 146.433C91.9273 146.8 91.8905 147.021 91.8905 147.094C91.8538 147.241 91.7435 147.315 91.5598 147.315H90.2921C90.0717 147.315 89.9063 147.204 89.7961 146.984C89.6124 146.58 89.4838 146.157 89.4103 145.716C89.3 145.055 89.2449 144.393 89.2449 143.732L89.1347 142.409C89.0612 140.131 89.0245 138.863 89.0245 138.606C89.0245 137.724 89.0612 136.071 89.1347 133.646L89.3 129.843L89.4103 127.858C89.4838 127.16 89.7961 126.811 90.3473 126.811C91.1556 126.811 91.5598 127.656 91.5598 129.347L91.6701 138.606L91.6149 140.756C91.6149 140.903 91.6517 140.976 91.7252 140.976C91.7987 140.976 91.8354 140.921 91.8354 140.811L92.4417 138.772C93.0296 136.824 93.5991 135.226 94.1503 133.976C94.5545 133.021 94.9954 132.305 95.4731 131.827C95.8038 131.423 96.1896 131.092 96.6306 130.835C96.998 130.651 97.3287 130.614 97.6227 130.725L98.6148 131C99.1659 131.184 99.5517 131.551 99.7722 132.102C99.9927 132.837 100.103 133.572 100.103 134.307V135.52L100.93 134.858L103.685 132.874C103.759 132.801 103.814 132.764 103.851 132.764L104.126 128.851C104.237 128.189 104.329 127.711 104.402 127.418L104.567 126.921C104.714 126.591 104.88 126.425 105.063 126.425C105.174 126.425 105.339 126.481 105.559 126.591L106.496 126.977C106.901 127.234 107.084 127.565 107.048 127.969C107.048 128.814 106.992 129.641 106.882 130.449C106.772 131.588 106.699 132.36 106.662 132.764L106.552 133.921C106.478 135.538 106.607 137.008 106.937 138.331C107.048 138.955 107.231 139.47 107.489 139.874C107.525 140.021 107.672 140.076 107.929 140.039C108.628 139.856 109.197 139.543 109.638 139.102L110.41 138.331C111.99 136.64 113.276 135.079 114.268 133.646C114.452 133.388 114.69 133.113 114.984 132.819C115.095 132.635 115.26 132.598 115.48 132.709L115.811 132.874C115.995 132.948 116.087 133.003 116.087 133.039C116.087 133.076 116.032 133.186 115.921 133.37ZM117.737 141.307L115.918 140.315C114.999 139.8 114.411 139.029 114.154 138C113.934 137.228 113.823 136.457 113.823 135.685C113.823 134.95 113.952 134.087 114.209 133.095C114.467 131.955 114.963 130.945 115.697 130.063C115.991 129.659 116.322 129.347 116.69 129.126C116.947 128.979 117.204 128.906 117.461 128.906C117.498 128.906 117.663 128.942 117.957 129.016C118.655 129.31 119.243 129.641 119.721 130.008L119.997 130.228C120.07 130.412 120.07 130.559 119.997 130.669L119.886 130.835C119.85 130.835 119.776 130.927 119.666 131.11C119.556 131.257 119.464 131.312 119.39 131.276C119.243 131.239 119.17 131.018 119.17 130.614L119.06 130.284C118.986 130.173 118.894 130.118 118.784 130.118C118.38 130.118 118.031 130.339 117.737 130.78C117.259 131.257 116.91 131.864 116.69 132.598C116.175 133.958 115.973 135.391 116.083 136.898C116.12 137.816 116.359 138.661 116.8 139.433C116.984 139.727 117.13 139.874 117.241 139.874C117.351 139.874 117.516 139.837 117.737 139.764C118.214 139.58 118.582 139.286 118.839 138.882C119.537 138.11 120.015 137.192 120.272 136.126C120.529 135.354 120.658 134.454 120.658 133.425C120.658 133.315 120.621 132.819 120.548 131.937C120.144 129.328 119.372 127.068 118.233 125.158C117.535 123.945 116.653 122.714 115.587 121.465C114.999 120.804 114.485 120.307 114.044 119.977L112.556 118.764L112.446 118.654C112.041 118.36 111.839 118.011 111.839 117.607C111.839 117.166 112.041 116.798 112.446 116.504C112.887 116.137 113.511 115.788 114.32 115.457C115.936 114.869 117.737 114.41 119.721 114.079C121.558 113.785 123.653 113.528 126.004 113.308C127.474 113.234 128.411 113.197 128.815 113.197C128.925 113.197 129.899 113.234 131.736 113.308C131.994 113.308 132.232 113.418 132.453 113.638L133.114 114.465C133.261 114.612 133.261 114.686 133.114 114.686C133.078 114.686 133.041 114.686 133.004 114.686C132.379 114.649 131.553 114.686 130.524 114.796L129.311 114.851C126.813 114.888 124.939 114.998 123.689 115.182C120.97 115.476 118.766 115.843 117.075 116.284C115.9 116.578 115.128 116.835 114.76 117.056C114.32 117.276 114.007 117.478 113.823 117.662C113.53 117.956 113.383 118.195 113.383 118.378C113.383 118.599 113.511 118.819 113.768 119.04C114.283 119.554 114.632 119.867 114.816 119.977C116.212 121.006 117.59 122.457 118.949 124.331C119.868 125.58 120.493 126.609 120.823 127.418C121.742 129.622 122.256 131.698 122.367 133.646C122.367 134.785 122.164 135.997 121.76 137.283C121.54 137.945 121.209 138.716 120.768 139.598C120.364 140.223 119.96 140.719 119.556 141.086C119.151 141.38 118.802 141.527 118.508 141.527C118.325 141.527 118.067 141.454 117.737 141.307ZM129.958 142.409L127.918 141.417C127.441 141.16 127.018 140.701 126.651 140.039C126.21 139.231 125.989 138.129 125.989 136.732C125.989 134.822 126.467 133.003 127.422 131.276C127.716 130.872 128.084 130.449 128.525 130.008L128.965 129.677C129.112 129.53 129.351 129.457 129.682 129.457C129.866 129.457 130.049 129.512 130.233 129.622C130.343 129.696 130.49 129.824 130.674 130.008C130.27 130.155 129.939 130.486 129.682 131C128.91 132.36 128.451 133.701 128.304 135.024C128.194 135.685 128.139 136.365 128.139 137.063C128.139 137.173 128.175 137.669 128.249 138.551C128.396 139.433 128.653 140.205 129.021 140.866C129.241 141.27 129.48 141.472 129.737 141.472L130.178 141.362C130.876 141.215 131.519 140.756 132.107 139.984C132.769 139.102 133.173 138.11 133.32 137.008C133.503 136.163 133.559 135.556 133.485 135.189C133.485 134.895 133.356 134.73 133.099 134.693H132.989C132.254 134.656 131.225 134.289 129.902 133.591L129.792 133.48C129.351 133.223 129.131 132.948 129.131 132.654C129.131 132.36 129.259 132.084 129.517 131.827C129.921 131.312 130.399 131.055 130.95 131.055C131.17 131.055 131.427 131.11 131.721 131.221C132.052 131.331 132.658 131.625 133.54 132.102C133.981 132.36 134.33 132.69 134.587 133.095C134.698 133.315 134.881 133.407 135.139 133.37L136.682 133.039C138.482 132.672 139.805 132.47 140.65 132.433C141.054 132.433 141.385 132.507 141.642 132.654L142.304 133.039C142.377 133.113 142.414 133.168 142.414 133.205L142.249 133.37C140.264 133.738 139.089 133.94 138.721 133.976C137.913 134.087 136.792 134.289 135.359 134.583C135.139 134.73 135.028 134.895 135.028 135.079C134.992 136.108 134.808 137.192 134.477 138.331C133.926 139.764 133.448 140.737 133.044 141.252C132.713 141.693 132.328 142.023 131.887 142.244C131.556 142.464 131.189 142.575 130.784 142.575C130.527 142.575 130.252 142.519 129.958 142.409ZM132.438 133.756H132.824C133.191 133.756 133.301 133.572 133.154 133.205L132.934 132.819C132.713 132.452 132.511 132.268 132.328 132.268C132.217 132.268 132.034 132.341 131.776 132.488C131.409 132.709 131.189 132.966 131.115 133.26C131.115 133.444 131.189 133.554 131.336 133.591C131.887 133.701 132.254 133.756 132.438 133.756ZM157.23 132.874C157.23 132.984 157.156 133.058 157.01 133.095L156.348 133.425C156.017 133.535 155.136 133.903 153.703 134.528C153.151 134.748 152.233 135.262 150.947 136.071C150.616 136.255 150.396 136.549 150.285 136.953C149.918 138.239 149.238 139.617 148.246 141.086C147.695 141.711 147.346 142.079 147.199 142.189C146.905 142.483 146.574 142.575 146.207 142.464L145.38 142.299C145.123 142.226 144.976 142.079 144.939 141.858C144.902 141.785 144.884 141.601 144.884 141.307C144.884 140.976 144.939 140.627 145.049 140.26C145.123 140.076 145.38 139.635 145.821 138.937C146.703 137.798 147.529 136.953 148.301 136.402C148.522 136.218 148.687 135.979 148.797 135.685C149.128 134.362 149.293 133.039 149.293 131.717C149.293 130.982 149.238 130.228 149.128 129.457C149.054 128.942 148.944 128.612 148.797 128.465C148.65 128.538 148.448 128.704 148.191 128.961C147.86 129.365 147.529 129.879 147.199 130.504C147.015 130.908 146.813 131.386 146.592 131.937C146.372 132.488 146.243 132.782 146.207 132.819C145.619 134.472 144.994 136.806 144.333 139.819C144.075 141.289 143.855 142.777 143.671 144.283C143.671 144.32 143.635 144.504 143.561 144.834C143.524 145.165 143.488 145.459 143.451 145.716C143.341 146.708 143.157 149.005 142.9 152.606C142.826 154.59 142.789 155.692 142.789 155.913L142.734 157.566V158.228C142.734 158.448 142.624 158.595 142.404 158.669L141.467 158.834C141.283 158.834 141.173 158.761 141.136 158.614C141.026 158.43 140.934 158.136 140.86 157.732C140.86 157.621 140.824 157.015 140.75 155.913C140.75 154.002 140.805 152.073 140.915 150.126C141.062 147.186 141.136 144.706 141.136 142.685C141.136 141.399 141.118 140.572 141.081 140.205L141.026 137.724C141.026 133.058 141.044 130.045 141.081 128.685C141.228 125.341 141.32 123.192 141.356 122.237C141.356 122.126 141.393 121.741 141.467 121.079C141.54 120.895 141.669 120.822 141.852 120.859L142.128 120.969C142.532 121.079 142.753 121.318 142.789 121.685C142.936 122.824 143.028 124.258 143.065 125.984L143.23 137.504C143.23 137.945 143.285 138.294 143.396 138.551L143.782 136.732C144.333 134.417 144.976 132.341 145.711 130.504C145.894 130.026 146.17 129.457 146.537 128.795C146.758 128.465 147.015 128.152 147.309 127.858C147.676 127.491 148.062 127.362 148.466 127.473L149.624 127.693C150.028 127.803 150.34 128.061 150.561 128.465C150.928 129.126 151.13 129.824 151.167 130.559C151.241 131.955 151.186 133.095 151.002 133.976L150.947 134.528L151.002 134.638C151.075 134.675 151.149 134.656 151.222 134.583C151.333 134.509 151.406 134.472 151.443 134.472C152.508 133.921 153.886 133.352 155.576 132.764C155.87 132.654 156.128 132.598 156.348 132.598C156.422 132.598 156.605 132.635 156.899 132.709C157.083 132.709 157.193 132.764 157.23 132.874ZM147.64 138.937L147.75 138.551L147.144 139.268C146.776 139.782 146.501 140.223 146.317 140.59C146.243 140.774 146.243 140.903 146.317 140.976C146.537 140.866 146.776 140.572 147.033 140.094C147.327 139.617 147.529 139.231 147.64 138.937Z" fill="#FE96CB"></path><path d="M12.7732 85.1481C12.0016 84.9276 11.432 84.4132 11.0646 83.6048C10.6972 82.723 10.5134 81.8779 10.5134 81.0695C10.4399 78.5709 10.5869 76.6969 10.9544 75.4476C11.0279 75.0801 11.1565 74.6943 11.3402 74.2901L11.6709 73.8492C11.8179 73.7022 11.9465 73.6655 12.0567 73.739C12.7548 73.9594 13.2509 74.1983 13.5448 74.4555C13.1774 74.7494 12.9018 75.319 12.7181 76.1641C12.5711 76.7153 12.4976 77.7074 12.4976 79.1404C12.4976 79.6548 12.5344 80.4999 12.6079 81.6758C12.7181 82.5209 12.9386 83.2558 13.2693 83.8804C13.3795 84.1376 13.4714 84.2662 13.5448 84.2662C13.5816 84.2662 13.7469 84.1744 14.0409 83.9907C14.5186 83.6232 14.9228 83.1639 15.2535 82.6127C15.8046 81.8779 16.2823 81.0695 16.6865 80.1876C17.7153 78.0564 18.4686 76.0171 18.9463 74.0697C19.0198 73.7757 19.0565 73.6104 19.0565 73.5736C19.0565 73.4634 19.0198 73.4083 18.9463 73.4083C18.7258 73.4083 18.487 73.3532 18.2298 73.2429C18.0093 73.0959 17.7521 72.949 17.4581 72.802C17.2009 72.6183 17.0356 72.508 16.9621 72.4713C16.1537 72.0304 15.7495 71.2955 15.7495 70.2666C15.676 69.0908 16.0618 68.0068 16.907 67.0147C17.2377 66.684 17.4581 66.5003 17.5684 66.4636C17.8256 66.3166 18.0644 66.2431 18.2849 66.2431C18.4686 66.2431 18.6707 66.2982 18.8912 66.4085L19.8833 67.0147C20.2507 67.2352 20.4895 67.5659 20.5998 68.0068C20.7468 68.411 20.8202 68.8887 20.8202 69.4399C20.8202 69.6236 20.7835 70.0462 20.71 70.7076L20.6549 71.2036C20.6181 71.2771 20.6181 71.3506 20.6549 71.4241C20.7284 71.4608 20.8202 71.4608 20.9305 71.4241C21.4816 71.2036 22.0144 70.8913 22.5289 70.4871C22.8963 70.2299 23.1168 70.1013 23.1903 70.1013C23.3005 70.1013 23.521 70.2115 23.8517 70.432C24.1824 70.6892 24.4028 70.8362 24.5131 70.8729C24.8805 71.0199 25.0642 71.3506 25.0642 71.865C25.0642 72.0487 25.0642 72.3059 25.0642 72.6366C25.0642 72.9673 25.0458 73.2245 25.0091 73.4083L24.6784 75.6129C24.5314 76.4948 24.3661 77.8911 24.1824 79.8018C24.1824 80.4999 24.2191 81.143 24.2926 81.7309L24.3477 82.0065C24.4212 82.2637 24.5498 82.3188 24.7335 82.1718C25.5786 81.7676 26.24 81.3634 26.7177 80.9592C27.3424 80.3346 27.8752 79.7467 28.3161 79.1955L30.4657 76.4397L31.127 75.5027L31.6231 74.7862C31.8436 74.4922 32.0457 74.3452 32.2294 74.3452C32.3764 74.3452 32.5785 74.4555 32.8357 74.6759C32.9092 74.7127 32.9275 74.8046 32.8908 74.9515C32.7071 75.2822 32.505 75.5578 32.2845 75.7783C31.5129 76.5132 30.5391 77.7257 29.3633 79.416C28.5917 80.4448 28.0773 81.1062 27.8201 81.4002C27.4159 81.8779 26.8463 82.4106 26.1114 82.9986C25.7072 83.2925 25.3765 83.4395 25.1193 83.4395C24.8989 83.4395 24.66 83.366 24.4028 83.219C24.2558 83.1088 23.8884 82.9251 23.3005 82.6679C22.3084 82.1902 21.7389 81.3451 21.5919 80.1325C21.5551 79.9488 21.5368 79.4895 21.5368 78.7546C21.5368 78.0197 21.5551 77.5604 21.5919 77.3767C21.6654 76.6418 21.8307 75.5027 22.0879 73.9594C22.0879 73.9227 22.1247 73.739 22.1982 73.4083C22.3084 73.0408 22.3819 72.7652 22.4186 72.5815C22.4186 72.508 22.3819 72.4529 22.3084 72.4162C22.2716 72.3794 22.2349 72.3794 22.1982 72.4162L20.4895 73.0776C20.3426 73.1143 20.2323 73.2429 20.1588 73.4634L19.773 74.8413C19.1851 77.0827 18.3216 79.416 17.1825 81.8411C17.0356 82.1351 16.8335 82.5025 16.5763 82.9434C16.3558 83.3476 16.2088 83.6416 16.1353 83.8253C15.7679 84.4132 15.4556 84.8358 15.1983 85.093C14.8676 85.4237 14.5369 85.589 14.2062 85.589C14.1695 85.589 14.0042 85.5523 13.7102 85.4788C13.4162 85.2951 13.1039 85.1849 12.7732 85.1481ZM19.1116 71.9752C19.3688 71.9017 19.5158 71.7364 19.5526 71.4792C19.6628 70.8913 19.7179 70.285 19.7179 69.6603C19.7179 69.1827 19.6812 68.7601 19.6077 68.3927C19.6077 68.0252 19.4791 67.768 19.2219 67.621C19.1116 67.6578 18.9095 67.8599 18.6156 68.2273L18.5053 68.4478C18.0644 69.3296 17.8439 70.1196 17.8439 70.8178C17.8439 71.2587 17.8807 71.6262 17.9542 71.9201C17.9542 72.0671 18.0277 72.1406 18.1746 72.1406C18.3584 72.1406 18.6707 72.0855 19.1116 71.9752Z" fill="#FE96CB"></path></svg> 