<?xml version="1.0" encoding="UTF-8"?> <svg xmlns="http://www.w3.org/2000/svg" width="47" height="16" viewBox="0 0 47 16" fill="none"><path d="M13.5938 1.22266C13.5938 1.23307 13.5885 1.25911 13.5781 1.30078C10.4635 4.76953 7.00521 8.9987 3.20312 13.9883L2.90625 14.1602C2.38542 14.181 1.875 14.1914 1.375 14.1914C0.947917 14.1914 0.734375 14.1237 0.734375 13.9883C0.734375 13.8945 0.770833 13.8008 0.84375 13.707C1.15625 13.3424 1.625 12.8008 2.25 12.082C4.5 9.48828 6.94792 6.82682 9.59375 4.09766C5.78125 6.51432 3.86458 7.72266 3.84375 7.72266C3.71875 7.72266 3.65625 7.66016 3.65625 7.53516C3.65625 7.48307 3.6875 7.4362 3.75 7.39453C4.27083 7.04036 5.98438 5.89974 8.89062 3.97266C11.8594 2.01432 13.3594 1.03516 13.3906 1.03516C13.526 1.03516 13.5938 1.09766 13.5938 1.22266ZM23.4062 1.03516C23.4062 1.14974 23.1979 1.46224 22.7812 1.97266C21.8438 3.13932 20.8594 3.72266 19.8281 3.72266C19.099 3.72266 18.3698 3.4987 17.6406 3.05078C17.599 3.15495 17.3385 3.53516 16.8594 4.19141C16.3802 4.84766 16.1042 5.20182 16.0312 5.25391H16.0938C16.1354 5.25391 16.2031 5.2487 16.2969 5.23828C16.401 5.21745 16.4792 5.20703 16.5312 5.20703C17.4375 5.20703 18.1719 5.4362 18.7344 5.89453C19.3385 6.39453 19.6406 7.08724 19.6406 7.97266C19.6406 8.55599 19.5052 9.1237 19.2344 9.67578C18.6198 10.8945 17.75 11.8841 16.625 12.6445C15.4479 13.4466 14.2031 13.8477 12.8906 13.8477C12.151 13.8477 11.5104 13.7018 10.9688 13.4102C10.3125 13.0456 9.98438 12.5195 9.98438 11.832C9.98438 11.1862 10.1562 10.6289 10.5 10.1602C10.8854 9.64974 11.3906 9.39453 12.0156 9.39453C12.349 9.39453 12.651 9.51953 12.9219 9.76953C13.2031 10.0195 13.3438 10.306 13.3438 10.6289C13.3438 11.4206 12.9323 11.8164 12.1094 11.8164C11.2656 11.8164 10.8438 11.3893 10.8438 10.5352C10.4792 10.8372 10.2969 11.2383 10.2969 11.7383C10.2969 12.7695 10.901 13.2852 12.1094 13.2852C13.4115 13.2852 14.75 12.457 16.125 10.8008C17.4583 9.20703 18.125 7.73828 18.125 6.39453C18.125 5.83203 17.5729 5.55078 16.4688 5.55078C16.1458 5.55078 15.8802 5.61328 15.6719 5.73828C15.5469 5.8112 15.3177 6.18099 14.9844 6.84766C14.6927 7.43099 14.4271 7.72266 14.1875 7.72266C13.8542 7.72266 13.6875 7.54557 13.6875 7.19141C13.6875 6.68099 13.9688 6.26432 14.5312 5.94141C15.25 5.53516 15.6406 5.29036 15.7031 5.20703C15.8073 5.05078 16.7917 3.64974 18.6562 1.00391H18.6719C18.7135 1.00391 18.9896 1.16536 19.5 1.48828C20.0208 1.8112 20.4948 1.97266 20.9219 1.97266C21.4948 1.97266 22.0365 1.77995 22.5469 1.39453C23.0677 1.00911 23.2917 0.816406 23.2188 0.816406C23.3438 0.816406 23.4062 0.889323 23.4062 1.03516ZM20.9531 13.1445C20.9531 13.4049 20.7292 13.7643 20.2812 14.2227C19.8333 14.6914 19.474 14.9622 19.2031 15.0352C19.1823 15.0247 19.1719 15.0039 19.1719 14.9727C19.1719 14.931 19.2604 14.7695 19.4375 14.4883C19.6042 14.207 19.6875 14.0247 19.6875 13.9414C19.6875 13.931 19.6823 13.9206 19.6719 13.9102C19.2969 13.8685 19.1094 13.6602 19.1094 13.2852C19.1094 12.6081 19.4271 12.2695 20.0625 12.2695C20.6562 12.2695 20.9531 12.5612 20.9531 13.1445ZM23.5938 8.08203C23.5938 8.4987 23.2656 8.79557 22.6094 8.97266C22.0365 8.91016 21.75 8.66536 21.75 8.23828C21.75 7.5612 22.0677 7.22266 22.7031 7.22266C23.2969 7.22266 23.5938 7.50911 23.5938 8.08203ZM36.1875 4.62891C36.1875 4.77474 35.8802 5.09766 35.2656 5.59766C35.0052 5.80599 34.7135 5.91536 34.3906 5.92578C33.8177 7.09245 32.6719 8.58724 30.9531 10.4102C29.1094 12.3685 27.7083 13.4727 26.75 13.7227C26.4792 13.7956 26.2344 13.832 26.0156 13.832C25.474 13.832 25.0521 13.5872 24.75 13.0977C24.4792 12.6706 24.3438 12.1758 24.3438 11.6133C24.3438 11.0195 24.5208 10.332 24.875 9.55078C25.4583 8.2487 26.0052 7.29036 26.5156 6.67578C27.4844 5.47786 28.6823 4.3737 30.1094 3.36328C32.2552 1.84245 33.7031 1.08203 34.4531 1.08203C35.2865 1.08203 35.7031 1.5612 35.7031 2.51953C35.7031 3.50911 35.3542 4.45703 34.6562 5.36328L34.6875 5.42578C34.9271 5.40495 35.1979 5.24349 35.5 4.94141C35.8021 4.62891 35.9896 4.47266 36.0625 4.47266C36.1458 4.47266 36.1875 4.52474 36.1875 4.62891ZM35.2188 2.28516C35.1979 1.83724 35.0312 1.61328 34.7188 1.61328C34.0625 1.61328 33.099 2.31641 31.8281 3.72266C31.0052 4.72266 30.1823 5.72266 29.3594 6.72266C26.849 9.68099 25.5938 11.6549 25.5938 12.6445C25.5938 13.1654 25.8021 13.4258 26.2188 13.4258C26.8125 13.4258 27.5312 13.0716 28.375 12.3633C29.1667 11.7174 30.1979 10.6549 31.4688 9.17578C32.8229 7.60286 33.6667 6.44661 34 5.70703C33.6667 5.71745 33.5 5.48828 33.5 5.01953C33.5 4.48828 33.6562 3.94141 33.9688 3.37891C34.3229 2.73307 34.7396 2.36849 35.2188 2.28516ZM46.5625 4.62891C46.5625 4.77474 46.2552 5.09766 45.6406 5.59766C45.3802 5.80599 45.0885 5.91536 44.7656 5.92578C44.1927 7.09245 43.0469 8.58724 41.3281 10.4102C39.4844 12.3685 38.0833 13.4727 37.125 13.7227C36.8542 13.7956 36.6094 13.832 36.3906 13.832C35.849 13.832 35.4271 13.5872 35.125 13.0977C34.8542 12.6706 34.7188 12.1758 34.7188 11.6133C34.7188 11.0195 34.8958 10.332 35.25 9.55078C35.8333 8.2487 36.3802 7.29036 36.8906 6.67578C37.8594 5.47786 39.0573 4.3737 40.4844 3.36328C42.6302 1.84245 44.0781 1.08203 44.8281 1.08203C45.6615 1.08203 46.0781 1.5612 46.0781 2.51953C46.0781 3.50911 45.7292 4.45703 45.0312 5.36328L45.0625 5.42578C45.3021 5.40495 45.5729 5.24349 45.875 4.94141C46.1771 4.62891 46.3646 4.47266 46.4375 4.47266C46.5208 4.47266 46.5625 4.52474 46.5625 4.62891ZM45.5938 2.28516C45.5729 1.83724 45.4062 1.61328 45.0938 1.61328C44.4375 1.61328 43.474 2.31641 42.2031 3.72266C41.3802 4.72266 40.5573 5.72266 39.7344 6.72266C37.224 9.68099 35.9688 11.6549 35.9688 12.6445C35.9688 13.1654 36.1771 13.4258 36.5938 13.4258C37.1875 13.4258 37.9062 13.0716 38.75 12.3633C39.5417 11.7174 40.5729 10.6549 41.8438 9.17578C43.1979 7.60286 44.0417 6.44661 44.375 5.70703C44.0417 5.71745 43.875 5.48828 43.875 5.01953C43.875 4.48828 44.0312 3.94141 44.3438 3.37891C44.6979 2.73307 45.1146 2.36849 45.5938 2.28516Z" fill="#28682E"></path></svg> 