<?xml version="1.0" encoding="UTF-8"?> <svg xmlns="http://www.w3.org/2000/svg" width="345" height="74" viewBox="0 0 345 74" fill="none"><path d="M61.7086 1.3281C70.8791 2.64896 76.2003 6.47946 77.6721 12.8196C78.9553 18.3295 77.2759 24.8772 72.634 32.4627C68.2563 39.6708 62.4822 45.8222 55.3119 50.917C47.6886 56.3514 40.6692 58.9742 34.2536 58.7855C32.1025 58.7478 29.7249 58.4081 27.1209 57.7666C26.102 57.5024 24.9698 57.1816 23.7244 56.8042L22.0828 56.2948L20.4978 55.7853C17.4032 58.0119 13.5349 58.9931 8.89305 58.7289C6.10037 58.578 4.0436 58.1251 2.72274 57.3703C1.55284 56.691 1.13771 55.8796 1.47736 54.9362C1.77927 53.9927 2.685 53.2002 4.19456 52.5586C5.85507 51.8038 7.83636 51.4076 10.1384 51.3698C12.7047 51.3321 16.0068 51.9737 20.0449 53.2945C21.1771 52.2756 22.4979 50.7472 24.0075 48.7093C25.2529 47.0487 26.9511 44.5957 29.1022 41.3502L30.3476 39.4821L31.593 37.614C32.5365 36.2177 33.3478 35.0478 34.0271 34.1043C37.7255 28.9341 40.6503 26.4056 42.8014 26.5188C43.1033 26.5565 43.292 26.7264 43.3675 27.0283C43.4052 27.3302 43.3109 27.5377 43.0845 27.651C42.292 27.4623 40.1597 29.8776 36.6877 34.8968C36.1594 35.6893 35.3857 36.8404 34.3668 38.3499L33.1214 40.1614L31.876 42.0295C29.8381 44.9731 28.121 47.3695 26.7247 49.2187C25.0264 51.3698 23.6112 52.9926 22.479 54.087C27.9889 56.0495 31.9326 57.0118 34.3102 56.9741C40.5748 56.8609 47.7263 53.5587 55.7647 47.0676C60.3311 43.4069 64.3126 39.2557 67.7091 34.6138C71.1433 29.8587 73.4454 25.3112 74.6153 20.9712C75.8607 16.2916 75.5776 12.3856 73.7662 9.25326C71.7283 5.81903 67.9166 3.6113 62.3313 2.63009C56.6705 1.64888 50.1794 2.36592 42.858 4.78121C36.3292 6.93232 30.1966 10.008 24.4603 14.0084C19.592 17.4426 15.9313 20.9712 13.4783 24.5941C10.9498 28.3303 10.1196 31.6324 10.9876 34.5006C11.5159 36.1233 12.7047 37.1423 14.5539 37.5574C16.2899 37.9725 18.0259 37.7272 19.7618 36.8215C20.177 36.5573 20.4789 36.5573 20.6676 36.8215C20.894 37.1234 20.7997 37.4253 20.3845 37.7272C18.1202 39.5764 15.7238 39.9161 13.1953 38.7462C10.629 37.5386 9.28931 35.3874 9.17609 32.2928C9.02513 28.1038 10.6479 23.9148 14.0444 19.7258C17.1767 15.801 21.4978 12.2724 27.0077 9.14005C32.4044 6.04546 38.1218 3.8 44.16 2.40366C50.5002 0.931843 56.3497 0.573324 61.7086 1.3281ZM9.17609 57.2005C12.6858 57.2382 15.6294 56.4835 18.007 54.9362C14.535 53.8417 11.8367 53.2945 9.912 53.2945C5.45881 53.2945 3.08126 53.9172 2.77935 55.1626C2.66613 55.6909 3.119 56.1438 4.13795 56.5212C5.30786 56.9363 6.98724 57.1628 9.17609 57.2005ZM98.998 38.1235C99.1112 38.0103 99.281 38.0103 99.5075 38.1235C99.6962 38.2367 99.7339 38.4065 99.6207 38.633C98.8282 39.9538 97.3752 41.1237 95.2619 42.1427C93.1485 43.1616 90.9974 43.7277 88.8085 43.8409C86.3177 45.9921 83.9968 46.7091 81.8457 45.9921C79.8455 45.3128 78.7134 43.9542 78.4492 41.9163C78.185 39.8406 78.9209 37.7839 80.6569 35.746C81.0343 33.6703 81.9966 31.9532 83.5439 30.5946C85.2422 29.1605 87.148 28.6322 89.2614 29.0096C92.356 29.5756 93.8655 31.3494 93.79 34.3307C93.7523 37.0102 92.6013 39.6708 90.3369 42.3125C91.9597 42.0106 93.658 41.3879 95.4317 40.4444C96.9412 39.6897 98.13 38.916 98.998 38.1235ZM83.3175 34.3874C82.7137 35.746 82.5061 37.0668 82.6948 38.3499C82.8835 39.6331 83.4307 40.6143 84.3364 41.2936C85.1667 41.9729 86.1857 42.3691 87.3933 42.4823C88.1481 41.6521 88.9595 40.5199 89.8275 39.0858C91.0728 36.8593 91.7144 34.878 91.7521 33.142C91.7521 31.2173 90.8841 30.1983 89.1482 30.0851C87.9405 30.0096 86.7895 30.4059 85.695 31.2739C84.6384 32.1042 83.8458 33.142 83.3175 34.3874ZM82.3552 44.9165C83.3741 45.4071 84.6384 44.992 86.1479 43.6711C85.0157 43.4824 84.0345 43.0862 83.2043 42.4823C81.9212 41.6143 81.0909 40.4067 80.7135 38.8594C80.072 42.1427 80.6192 44.1617 82.3552 44.9165ZM110.881 29.0096C113.409 28.5944 114.655 29.3492 114.617 31.2739C114.579 33.1986 113.466 35.8592 111.277 39.2557C109.239 42.4257 107.503 44.4825 106.069 45.426C104.748 46.2562 103.371 46.2185 101.937 45.3128C100.616 44.4448 99.9177 43.3692 99.8423 42.0861C97.2383 45.2562 95.0683 48.2187 93.3323 50.9736C89.7094 57.4269 88.2942 61.7669 89.0867 63.9935C87.8036 64.1445 87.0488 63.7859 86.8223 62.9179C86.0676 60.2762 88.6904 54.0682 94.6909 44.2938L96.3891 41.52L97.2383 40.1614L98.0308 38.8594C99.2762 36.8215 100.257 35.1799 100.974 33.9345C102.861 30.5757 103.729 28.3303 103.578 27.1981C104.144 26.9339 104.635 27.1038 105.05 27.7076C105.428 28.2737 105.541 28.9341 105.39 29.6889C105.201 31.1229 103.767 34.0288 101.088 38.4065C106.031 32.4438 109.296 29.3115 110.881 29.0096ZM104.144 44.4636C105.239 44.124 107.126 41.6521 109.805 37.0479C112.485 32.4061 113.277 30.0285 112.183 29.9153C111.73 29.8776 110.409 30.8965 108.22 32.9721C105.88 35.1987 103.484 37.765 101.031 40.6709C101.333 41.9163 101.786 42.9163 102.39 43.6711C102.993 44.3882 103.578 44.6523 104.144 44.4636ZM136.921 38.1235C137.034 38.0103 137.204 38.0103 137.431 38.1235C137.619 38.2367 137.657 38.4065 137.544 38.633C136.751 39.9538 135.298 41.1237 133.185 42.1427C131.072 43.1616 128.92 43.7277 126.732 43.8409C124.241 45.9921 121.92 46.7091 119.769 45.9921C117.769 45.3128 116.636 43.9542 116.372 41.9163C116.108 39.8406 116.844 37.7839 118.58 35.746C118.957 33.6703 119.92 31.9532 121.467 30.5946C123.165 29.1605 125.071 28.6322 127.184 29.0096C130.279 29.5756 131.789 31.3494 131.713 34.3307C131.675 37.0102 130.524 39.6708 128.26 42.3125C129.883 42.0106 131.581 41.3879 133.355 40.4444C134.864 39.6897 136.053 38.916 136.921 38.1235ZM121.241 34.3874C120.637 35.746 120.429 37.0668 120.618 38.3499C120.807 39.6331 121.354 40.6143 122.26 41.2936C123.09 41.9729 124.109 42.3691 125.316 42.4823C126.071 41.6521 126.883 40.5199 127.751 39.0858C128.996 36.8593 129.638 34.878 129.675 33.142C129.675 31.2173 128.807 30.1983 127.071 30.0851C125.864 30.0096 124.713 30.4059 123.618 31.2739C122.561 32.1042 121.769 33.142 121.241 34.3874ZM120.278 44.9165C121.297 45.4071 122.561 44.992 124.071 43.6711C122.939 43.4824 121.958 43.0862 121.127 42.4823C119.844 41.6143 119.014 40.4067 118.637 38.8594C117.995 42.1427 118.542 44.1617 120.278 44.9165ZM145.521 29.5756C145.823 29.236 146.276 29.2737 146.879 29.6889C147.521 30.1795 147.861 30.6135 147.898 30.9909C147.898 31.5192 147.502 32.5004 146.71 33.9345C146.408 34.5006 145.992 35.1987 145.464 36.029L144.785 37.1612L144.106 38.2367C141.803 42.0861 140.935 44.3127 141.502 44.9165C141.917 45.3694 143.747 44.3882 146.993 41.9729C148.049 41.2181 149.163 40.369 150.332 39.4255C150.71 39.1236 151.068 38.8217 151.408 38.5198C151.521 38.4443 151.616 38.3688 151.691 38.2933L151.804 38.1801C151.955 38.0669 152.125 38.0669 152.314 38.1801C152.54 38.2933 152.597 38.4632 152.484 38.6896L152.37 38.8028C152.333 38.8783 152.257 38.9915 152.144 39.1425C151.88 39.4444 151.597 39.784 151.295 40.1614C150.351 41.2558 149.389 42.237 148.408 43.105C145.275 45.8222 142.653 46.7846 140.539 45.9921C138.539 45.2373 138.633 43.0107 140.822 39.3123C141.2 38.6707 141.634 37.9914 142.124 37.2744L142.747 36.312C142.936 36.0856 143.143 35.8026 143.37 35.4629L145.464 31.9532C144.106 32.6702 141.766 34.8214 138.445 38.4065C138.105 38.7085 137.784 39.0104 137.482 39.3123C137.18 39.5764 136.595 40.1048 135.727 40.8973C135.463 41.1615 135.237 41.0483 135.048 40.5577C134.822 40.0671 134.897 39.6897 135.275 39.4255C136.294 38.4443 138.03 36.7272 140.483 34.2741C142.936 31.7834 144.615 30.2172 145.521 29.5756ZM172.785 38.1801C173.011 38.2933 173.068 38.4632 172.955 38.6896L172.841 38.8028C172.804 38.8783 172.728 38.9915 172.615 39.1425C172.351 39.4444 172.068 39.784 171.766 40.1614C170.822 41.2558 169.86 42.237 168.879 43.105C165.746 45.8222 163.124 46.7846 161.01 45.9921C159.01 45.2373 159.104 43.0107 161.293 39.3123C161.671 38.6707 162.105 37.9914 162.595 37.2744L163.218 36.312C163.407 36.0856 163.614 35.8026 163.841 35.4629C164.709 34.2553 165.124 33.6137 165.086 33.5382C165.048 33.6137 164.86 33.859 164.52 34.2741C164.143 34.7647 163.709 35.312 163.218 35.9158C161.897 37.5386 160.576 39.0481 159.255 40.4444C155.18 44.6712 152.311 46.6336 150.651 46.3317C149.783 46.1808 149.292 45.6713 149.179 44.8033C148.953 43.1428 149.802 40.7275 151.726 37.5574L152.292 36.6517L152.859 35.8026C153.311 35.0478 153.651 34.4817 153.878 34.1043C154.557 32.9344 154.953 32.0475 155.066 31.4437C155.066 31.1796 155.217 30.9909 155.519 30.8776C155.783 30.8022 156.104 30.821 156.482 30.9342C156.859 31.0475 157.142 31.2173 157.331 31.4437C157.557 31.7079 157.576 31.9909 157.387 32.2928C157.274 32.7457 156.821 33.6703 156.029 35.0667C155.727 35.5573 155.33 36.2366 154.84 37.1046L154.217 38.1235L153.538 39.1991C151.425 42.822 150.594 44.7278 151.047 44.9165C151.613 45.1052 154.123 43.0862 158.576 38.8594C163.142 34.4817 165.671 31.4249 166.162 29.6889C166.312 29.236 166.709 29.236 167.35 29.6889C167.992 30.1795 168.332 30.6135 168.369 30.9909C168.369 31.5192 167.973 32.5004 167.18 33.9345C166.879 34.5006 166.463 35.1987 165.935 36.029L165.256 37.1612L164.576 38.2367C162.274 42.0861 161.406 44.3127 161.973 44.9165C162.388 45.3694 164.218 44.3882 167.464 41.9729C168.52 41.2181 169.634 40.369 170.803 39.4255C171.181 39.1236 171.539 38.8217 171.879 38.5198C171.992 38.4443 172.087 38.3688 172.162 38.2933L172.275 38.1801C172.426 38.0669 172.596 38.0669 172.785 38.1801ZM190.41 38.0669C190.636 37.9159 190.844 37.9159 191.032 38.0669C191.183 38.2179 191.202 38.3877 191.089 38.5764C190.259 40.0482 189.051 41.4634 187.466 42.822C186.108 43.9542 184.466 44.8599 182.541 45.5392C180.466 46.2562 178.56 46.5204 176.824 46.3317C173.956 46.0675 172.012 44.5957 170.993 41.9163C170.125 39.5387 171.333 36.6706 174.616 33.3118C176.012 31.8777 177.465 30.7833 178.975 30.0285C180.598 29.1983 181.956 28.9152 183.051 29.1794C184.673 29.5945 185.598 30.3493 185.825 31.4437C186.013 32.4627 185.579 33.5948 184.523 34.8402C182.07 37.7839 178.371 39.6142 173.427 40.3312C173.125 41.7653 173.333 42.8975 174.05 43.7277C175.446 45.2373 177.56 45.5769 180.39 44.7467C181.447 44.407 182.56 43.9353 183.73 43.3315C184.711 42.8031 185.579 42.237 186.334 41.6332C187.24 40.9539 188.598 39.7651 190.41 38.0669ZM175.522 35.9158C174.767 36.9347 174.163 38.048 173.71 39.2557C176.126 38.5764 178.579 37.0668 181.069 34.727C183.522 32.3872 184.145 30.9154 182.937 30.3116C182.183 29.9719 180.862 30.6135 178.975 32.2362C178.258 32.8778 177.56 33.576 176.88 34.3307C176.277 34.9723 175.824 35.5007 175.522 35.9158ZM227.505 38.2933C227.619 38.1046 227.789 38.0858 228.015 38.2367C228.241 38.3877 228.298 38.5764 228.185 38.8028C227.204 40.5011 225.354 42.1993 222.637 43.8976C221.618 44.5391 220.278 45.2939 218.618 46.1619L216.41 47.3507L214.089 48.5394C210.164 56.4646 206.692 62.2953 203.673 66.0314C199.635 71.0507 196.201 72.6923 193.371 70.9563C190.653 69.2958 190.691 66.371 193.484 62.182C195.824 58.6723 199.107 55.4456 203.334 52.502C205.749 50.8038 208.674 49.0678 212.108 47.294C213.202 45.1052 214.259 42.9541 215.278 40.8407C215.693 40.0104 216.089 39.1613 216.467 38.2933C216.769 37.7272 217.108 37.0291 217.486 36.1988L216.184 37.8971L214.825 39.7085C213.806 41.0294 212.901 42.1238 212.108 42.9918C209.995 45.2562 208.334 46.294 207.126 46.1053C206.108 45.9921 205.315 45.6524 204.749 45.0863C204.107 44.4448 203.9 43.69 204.126 42.822C204.806 40.3312 206.466 37.5386 209.108 34.444C211.976 31.0475 214.372 29.5002 216.297 29.8021C217.391 29.9908 218.033 30.5003 218.222 31.3305C218.297 31.6324 218.297 31.9909 218.222 32.4061C218.146 32.7457 218.033 33.1042 217.882 33.4816L218.844 32.4627L219.807 31.5003C219.844 31.4626 219.958 31.4249 220.146 31.3871C220.373 31.3494 220.599 31.3494 220.826 31.3871C221.467 31.4249 221.807 31.689 221.845 32.1796C221.241 33.1608 220.429 34.8025 219.41 37.1046L219.014 37.8971L218.618 38.8028C218.278 39.5576 217.995 40.218 217.769 40.7841C216.976 42.4446 216.203 44.0862 215.448 45.709C221.901 42.5767 225.92 40.1048 227.505 38.2933ZM206.843 44.4636C207.711 44.5769 209.013 43.7089 210.749 41.8597C211.391 41.1804 212.221 40.2369 213.24 39.0292L214.542 37.4442L215.901 35.8592C216.429 34.7647 216.75 33.7081 216.863 32.6891C217.014 31.5569 216.806 31.0286 216.24 31.1041C215.297 31.2928 214.033 32.2928 212.448 34.1043C211.051 35.6516 209.712 37.4442 208.428 39.4821C206.428 42.7276 205.9 44.3882 206.843 44.4636ZM193.54 69.8808C195.163 71.0884 197.692 69.5977 201.126 65.4087C204.07 61.7858 207.221 56.7854 210.58 50.4075C207.9 51.8793 205.617 53.2757 203.73 54.5965C200.522 56.8986 197.729 59.6347 195.352 62.8047C192.597 66.3899 191.993 68.7486 193.54 69.8808ZM239.466 29.0096C241.994 28.5944 243.24 29.3492 243.202 31.2739C243.164 33.1986 242.051 35.8592 239.862 39.2557C237.824 42.4257 236.088 44.4825 234.654 45.426C233.333 46.2562 231.956 46.2185 230.522 45.3128C229.201 44.4448 228.503 43.3692 228.427 42.0861C225.823 45.2562 223.653 48.2187 221.917 50.9736C218.294 57.4269 216.879 61.7669 217.672 63.9935C216.388 64.1445 215.634 63.7859 215.407 62.9179C214.652 60.2762 217.275 54.0682 223.276 44.2938L224.974 41.52L225.823 40.1614L226.616 38.8594C227.861 36.8215 228.842 35.1799 229.559 33.9345C231.446 30.5757 232.314 28.3303 232.163 27.1981C232.729 26.9339 233.22 27.1038 233.635 27.7076C234.012 28.2737 234.126 28.9341 233.975 29.6889C233.786 31.1229 232.352 34.0288 229.673 38.4065C234.616 32.4438 237.881 29.3115 239.466 29.0096ZM232.729 44.4636C233.824 44.124 235.711 41.6521 238.39 37.0479C241.07 32.4061 241.862 30.0285 240.768 29.9153C240.315 29.8776 238.994 30.8965 236.805 32.9721C234.465 35.1987 232.069 37.765 229.616 40.6709C229.918 41.9163 230.371 42.9163 230.975 43.6711C231.578 44.3882 232.163 44.6523 232.729 44.4636ZM266.808 38.1801C266.921 37.9914 267.091 37.9914 267.317 38.1801C267.544 38.3311 267.601 38.5009 267.487 38.6896C266.921 39.6708 266.053 40.652 264.883 41.6332C263.11 43.0296 260.26 44.5957 256.335 46.3317C255.354 48.8602 254.581 50.8415 254.015 52.2756C253.109 54.5022 252.279 56.4457 251.524 58.1062C249.599 62.2953 247.769 65.4087 246.033 67.4466C243.617 70.2393 241.202 71.7111 238.787 71.8621C236.56 72.013 234.919 71.1261 233.862 69.2015C232.768 67.239 232.711 64.8992 233.692 62.182C234.787 59.0497 237.089 56.1249 240.598 53.4077C244.523 50.3886 249.09 47.7469 254.298 45.4826L254.694 44.3504L255.09 43.2183C255.279 42.7654 255.505 42.1993 255.769 41.52L256.109 40.5577L256.505 39.5953C257.109 37.9725 257.619 36.6517 258.034 35.6327C255.656 38.5386 253.316 41.0105 251.014 43.0484C248.335 45.426 246.391 46.5015 245.184 46.2751C244.278 46.1241 243.768 45.6335 243.655 44.8033C243.467 43.1428 244.335 40.7275 246.259 37.5574L246.825 36.6517L247.391 35.8026C247.844 35.0855 248.184 34.5194 248.41 34.1043C249.09 32.9344 249.486 32.0475 249.599 31.4437C249.599 31.1796 249.75 30.9909 250.052 30.8776C250.316 30.8022 250.637 30.821 251.014 30.9342C251.392 31.0475 251.675 31.2173 251.863 31.4437C252.09 31.7079 252.109 31.9909 251.92 32.2928C251.807 32.708 251.335 33.6326 250.505 35.0667C250.241 35.5195 249.844 36.18 249.316 37.0479L248.693 38.1235L248.071 39.1425C245.92 42.7654 245.089 44.6712 245.58 44.8599C246.221 45.1241 248.467 43.4258 252.316 39.7651C256.279 36.029 258.977 32.9155 260.411 30.4248L260.638 30.0285L260.808 29.6889V29.6323C260.845 29.5945 260.902 29.5002 260.977 29.3492C261.204 29.085 261.638 29.0662 262.279 29.2926C262.845 29.519 263.204 29.7832 263.355 30.0851C262.147 31.8211 260.185 36.2366 257.468 43.3315C257.317 43.7089 257.222 43.9919 257.185 44.1806C259.789 42.9352 261.977 41.7842 263.751 40.7275C264.883 40.0482 265.902 39.1991 266.808 38.1801ZM243.712 66.5409C247.184 62.4651 250.448 56.1249 253.505 47.5205C248.486 49.7093 244.504 52.1058 241.561 54.7097C238.617 57.276 236.56 59.9177 235.39 62.6349C234.371 64.9747 234.145 66.9371 234.711 68.5222C235.277 70.0695 236.372 70.7299 237.994 70.5035C239.768 70.2393 241.674 68.9184 243.712 66.5409ZM279.28 47.5205C274.261 49.7093 270.28 52.1058 267.336 54.7097C264.392 57.276 262.336 59.9177 261.166 62.6349C260.147 64.9747 259.92 66.9371 260.486 68.5222C261.053 70.0695 262.147 70.7299 263.77 70.5035C265.543 70.2393 267.449 68.9184 269.487 66.5409C272.959 62.4651 276.224 56.1249 279.28 47.5205ZM267.449 27.7076C267.638 28.9907 268.185 29.9908 269.091 30.7078C269.921 31.3116 270.902 31.6702 272.035 31.7834C272.601 31.1796 273.129 30.5569 273.62 29.9153C274.035 29.3492 274.355 28.8775 274.582 28.5001C275.865 26.1603 276.582 24.028 276.733 22.1034C276.884 19.9145 276.091 18.7635 274.355 18.6502C273.186 18.5748 271.959 19.1031 270.676 20.2353C269.506 21.292 268.638 22.4619 268.072 23.745C267.468 25.1413 267.261 26.4622 267.449 27.7076ZM286.3 29.1794C279.016 31.6324 274.771 32.991 273.563 33.2552C272.242 34.3874 270.506 36.1045 268.355 38.4065C268.015 38.7085 267.695 39.0104 267.393 39.3123C267.091 39.5764 266.506 40.1048 265.638 40.8973C265.374 41.1615 265.147 41.0483 264.959 40.5577C264.732 40.0671 264.808 39.6897 265.185 39.4255C266.204 38.4443 267.94 36.7083 270.393 34.2175C270.77 33.8401 271.072 33.4628 271.299 33.0854H270.789C269.695 32.8589 268.751 32.4627 267.959 31.8966C266.562 30.9154 265.751 29.5379 265.525 27.7642C265.26 26.1037 265.525 24.4243 266.317 22.726C267.072 20.9901 268.147 19.6503 269.544 18.7069C271.091 17.6502 272.733 17.2728 274.469 17.5747C276.959 18.0276 278.356 19.4616 278.658 21.8769C278.922 23.9903 278.394 26.2924 277.073 28.7831C276.771 29.3492 276.186 30.1795 275.318 31.2739C276.261 30.7833 277.167 30.4059 278.035 30.1417C278.412 30.0285 278.884 29.8776 279.45 29.6889L280.922 29.236C284.394 28.1416 286.489 27.7453 287.206 28.0472C287.545 28.2359 287.753 28.5378 287.828 28.953C288.168 31.0286 286.111 33.3873 281.658 36.029C280.903 36.5196 279.96 37.0668 278.828 37.6706L277.356 38.4632L275.941 39.2557C273.676 40.5388 272.053 41.52 271.072 42.1993C272.77 41.4445 274.469 40.9539 276.167 40.7275C278.167 40.4633 279.696 40.6331 280.752 41.237C281.998 41.954 282.601 42.9729 282.564 44.2938C285.507 42.9352 287.828 41.7464 289.527 40.7275C290.659 40.0482 291.678 39.1991 292.583 38.1801C292.697 37.9914 292.866 37.9914 293.093 38.1801C293.319 38.3311 293.376 38.5009 293.263 38.6896C292.697 39.6708 291.829 40.652 290.659 41.6332C288.885 43.0296 286.036 44.5957 282.111 46.3317C281.13 48.8602 280.356 50.8415 279.79 52.2756C278.884 54.5022 278.054 56.4457 277.299 58.1062C275.374 62.2953 273.544 65.4087 271.808 67.4466C269.393 70.2393 266.978 71.7111 264.562 71.8621C262.336 72.013 260.694 71.1261 259.637 69.2015C258.543 67.239 258.486 64.8992 259.468 62.182C260.562 59.0497 262.864 56.1249 266.374 53.4077C270.261 50.4264 274.771 47.8035 279.903 45.5392C280.696 43.69 280.714 42.5956 279.96 42.2559C278.978 41.803 277.224 41.8408 274.695 42.3691C272.129 42.8597 270.242 43.5768 269.034 44.5202C268.695 44.4448 268.43 44.2372 268.242 43.8976C268.544 42.9541 269.751 41.7087 271.865 40.1614C272.657 39.5953 273.676 38.916 274.922 38.1235L276.62 37.0479L278.375 36.029C281.281 34.2175 283.281 32.8778 284.375 32.0098C285.696 30.9531 286.338 30.0096 286.3 29.1794ZM296.212 36.9913C295.457 37.8216 294.816 38.8783 294.287 40.1614C293.721 41.4445 293.438 42.539 293.438 43.4447C293.438 44.4636 293.835 44.992 294.627 45.0297C295.533 44.9165 296.476 44.407 297.457 43.5013C298.476 42.5956 299.156 41.1237 299.495 39.0858C299.797 37.0102 299.401 35.8969 298.307 35.746C297.703 35.6327 297.005 36.0479 296.212 36.9913ZM296.495 35.5195C297.325 35.1799 298.174 35.0855 299.042 35.2365C300.099 35.5384 300.816 36.18 301.194 37.1612C301.571 38.0292 301.609 39.0292 301.307 40.1614C301.043 41.2558 300.514 42.1993 299.722 42.9918C299.533 43.1805 299.363 43.3503 299.212 43.5013C299.665 43.2749 300.099 43.0296 300.514 42.7654C301.797 41.9729 303.703 40.4633 306.232 38.2367C306.458 38.0858 306.666 38.0858 306.854 38.2367C307.005 38.3877 307.024 38.5575 306.911 38.7462C305.515 41.237 303.307 43.2183 300.288 44.6901C297.306 46.3883 294.721 46.8034 292.533 45.9354C292.004 45.5581 291.608 45.0486 291.344 44.407C290.551 42.671 291.174 39.935 293.212 36.1988C293.551 35.595 293.967 34.8968 294.457 34.1043L295.023 33.142L295.589 32.1796C296.457 30.7833 296.948 29.8398 297.061 29.3492C297.514 29.1983 297.967 29.1794 298.42 29.2926C298.986 29.4058 299.382 29.67 299.609 30.0851C299.42 30.6512 298.797 31.7834 297.74 33.4816L297.061 34.5572L296.495 35.5195ZM319.544 31.6135C319.733 31.3494 319.902 31.1041 320.053 30.8776C319.865 30.6135 319.582 30.538 319.204 30.6512C318.676 30.7267 317.978 31.1984 317.11 32.0664C316.355 32.7835 315.619 33.6703 314.902 34.727C314.185 35.746 313.676 36.5951 313.374 37.2744C313.072 38.0292 313.128 38.3499 313.543 38.2367C313.581 38.199 313.657 38.1612 313.77 38.1235C314.336 37.5574 314.864 37.0102 315.355 36.4819C315.581 36.2554 315.827 35.9913 316.091 35.6893C316.355 35.3874 316.657 35.01 316.997 34.5572L318.016 33.425C318.619 32.708 319.129 32.1042 319.544 31.6135ZM316.714 36.9913C315.695 38.199 314.676 39.35 313.657 40.4444C309.581 44.6712 306.713 46.6336 305.052 46.3317C304.184 46.1808 303.694 45.6713 303.58 44.8033C303.354 43.1428 304.109 40.8784 305.845 38.0103L306.298 36.8781C306.298 36.6139 306.449 36.4253 306.75 36.312C307.015 36.2366 307.335 36.2554 307.713 36.3686C308.09 36.4819 308.373 36.6517 308.562 36.8781C308.788 37.1423 308.807 37.4253 308.619 37.7272L308.336 38.5764L307.656 39.6519C305.732 42.9729 304.996 44.7278 305.448 44.9165C306.015 45.1052 308.411 43.1994 312.638 39.1991C312.336 39.0481 312.053 38.8594 311.789 38.633C311.223 38.1046 311.015 37.5952 311.166 37.1046C311.543 35.6705 312.619 34.0288 314.393 32.1796C316.28 30.2172 317.865 29.3303 319.148 29.519C319.638 29.5945 320.072 29.7455 320.45 29.9719C320.487 29.8964 320.525 29.8021 320.563 29.6889C320.714 29.236 321.11 29.236 321.752 29.6889C322.393 30.1795 322.733 30.6135 322.771 30.9909C322.771 31.5192 322.374 32.5004 321.582 33.9345C321.28 34.5006 320.865 35.1987 320.336 36.029L319.657 37.1612L318.978 38.2367C316.676 42.0861 315.808 44.3127 316.374 44.9165C316.789 45.3694 318.619 44.3882 321.865 41.9729C322.922 41.2181 324.035 40.369 325.205 39.4255C325.582 39.1236 325.941 38.8217 326.28 38.5198C326.394 38.4443 326.488 38.3688 326.563 38.2933L326.677 38.1801C326.828 38.0669 326.997 38.0669 327.186 38.1801C327.413 38.2933 327.469 38.4632 327.356 38.6896L327.243 38.8028C327.205 38.8783 327.129 38.9915 327.016 39.1425C326.752 39.4444 326.469 39.784 326.167 40.1614C325.224 41.2558 324.261 42.237 323.28 43.105C320.148 45.8222 317.525 46.7846 315.412 45.9921C313.411 45.2373 313.506 43.0107 315.695 39.3123C316.072 38.6707 316.506 37.9914 316.997 37.2744L317.619 36.312C317.808 36.0856 318.016 35.8026 318.242 35.4629C319.11 34.2553 319.525 33.6137 319.487 33.5382C319.45 33.6137 319.261 33.859 318.921 34.2741C318.544 34.7647 318.11 35.312 317.619 35.9158C317.431 36.18 317.223 36.4253 316.997 36.6517C316.959 36.7272 316.902 36.8026 316.827 36.8781C316.789 36.9159 316.751 36.9536 316.714 36.9913ZM342.717 20.2919C343.736 20.1787 344.358 20.424 344.585 21.0278C344.585 21.7826 342.868 24.8772 339.433 30.3116L338.414 31.8966L337.395 33.4816C336.678 34.6515 336.075 35.6327 335.584 36.4253C334.339 38.4632 333.565 39.8595 333.263 40.6143C332.999 40.652 332.735 40.4256 332.471 39.935C332.244 39.4444 332.188 39.0292 332.301 38.6896C332.565 37.8216 333.263 36.4253 334.395 34.5006C334.848 33.7458 335.414 32.8401 336.093 31.7834L336.999 30.3116L337.962 28.8963C341.132 23.9148 342.717 21.0467 342.717 20.2919ZM331.678 42.1427C332.169 42.2559 332.433 42.5578 332.471 43.0484C332.508 43.5013 332.395 44.0108 332.131 44.5769C331.376 46.0109 330.489 46.6147 329.47 46.3883C328.98 46.3128 328.716 46.0109 328.678 45.4826C328.64 45.0297 328.772 44.5202 329.074 43.9542C329.791 42.5578 330.659 41.954 331.678 42.1427Z" fill="#D92F88"></path></svg> 