<?xml version="1.0" encoding="UTF-8"?> <svg xmlns="http://www.w3.org/2000/svg" width="150" height="70" viewBox="0 0 150 70" fill="none"><path d="M54.2147 18.8014C55.9214 13.4681 55.2601 9.3081 52.2307 6.32143C49.1161 3.20677 44.5081 2.16144 38.4067 3.18544C32.9881 4.08143 27.3347 6.40677 21.4467 10.1614C15.6867 13.8734 11.2921 17.9268 8.26272 22.3214C4.97739 27.1428 4.16672 31.2601 5.83072 34.6734C6.81205 36.6788 8.83872 37.8734 11.9107 38.2574C14.1294 38.5134 17.6707 38.3428 22.5347 37.7454C22.9187 37.7028 23.1534 37.8521 23.2387 38.1934C23.2814 38.5348 23.1747 38.7694 22.9187 38.8974C18.6521 40.6041 14.7267 41.0521 11.1427 40.2414C7.68672 39.5161 5.34005 37.7881 4.10272 35.0574C2.01205 30.4068 2.52405 25.4788 5.63872 20.2734C8.45472 15.5801 12.8494 11.4414 18.8227 7.85744C24.7534 4.3161 30.7907 2.18277 36.9347 1.45744C43.6334 0.732101 49.0947 1.90543 53.3187 4.97744C57.4574 7.79344 58.8441 12.6788 57.4787 19.6334C55.9427 23.0041 52.1667 28.9348 46.1507 37.4254C45.1267 38.8761 43.8894 40.6041 42.4387 42.6094L40.6467 45.1694L38.8547 47.6654C36.0387 51.5481 33.9907 54.4281 32.7107 56.3054C31.4307 58.1401 30.8547 59.2494 30.9827 59.6334C31.4094 59.3348 33.7347 56.7961 37.9587 52.0174L38.6627 51.1854L39.3667 50.3534L40.9027 48.6254C42.1401 47.2174 43.2281 45.9801 44.1667 44.9134C46.8121 41.9268 49.2014 39.2601 51.3347 36.9134C64.2201 22.7481 71.9214 15.9641 74.4387 16.5614C76.6574 17.1588 77.2761 18.8654 76.2947 21.6814C75.5694 23.9001 74.2894 26.8014 72.4547 30.3854C71.7294 31.8361 70.8547 33.5001 69.8307 35.3774L68.3587 38.0014L66.9507 40.5614C66.6521 41.0734 66.0761 42.0548 65.2227 43.5054L64.7107 44.4014L64.1347 45.3614C63.6654 46.0868 63.2601 46.7694 62.9187 47.4094C60.8707 50.9508 59.3561 53.9588 58.3747 56.4334C55.4307 63.9428 56.9241 67.6761 62.8547 67.6334C63.1961 67.6761 63.3881 67.8041 63.4307 68.0174C63.4307 68.2734 63.2814 68.4441 62.9827 68.5294C61.8307 69.0414 60.4867 69.0841 58.9507 68.6574C57.2014 68.1454 55.8787 67.1428 54.9827 65.6494C53.4041 62.9188 54.0227 58.5454 56.8387 52.5294C57.7774 50.5668 59.0361 48.2201 60.6147 45.4894L61.5747 43.8894L62.0227 43.1854L62.4707 42.4814C63.1107 41.3721 63.5801 40.5401 63.8787 39.9854C65.8414 36.4014 67.2707 33.7561 68.1667 32.0494C69.6601 29.2334 70.8334 26.9294 71.6867 25.1374C73.8201 20.6574 74.3534 18.4388 73.2867 18.4814C71.2814 18.7374 64.2841 25.5428 52.2947 38.8974L48.8387 42.6734L47.1747 44.5934L45.5107 46.4494C42.9507 49.3081 40.8814 51.5908 39.3027 53.2974C34.9934 57.9481 32.1987 60.6574 30.9187 61.4254C30.1081 61.4681 29.4041 61.2121 28.8067 60.6574C28.1667 60.1028 27.9107 59.4414 28.0387 58.6734C28.2094 57.5214 29.8521 54.7268 32.9667 50.2894C34.0761 48.6681 35.6334 46.4921 37.6387 43.7614L40.1987 40.3054L42.8227 36.7214C49.1801 27.9748 52.9774 22.0014 54.2147 18.8014ZM99.7247 42.1614C99.5114 40.7108 98.8927 39.6014 97.8687 38.8334C96.9301 38.0654 95.7781 37.6174 94.4127 37.4894C93.5594 38.4281 92.6421 39.7081 91.6607 41.3294C90.2527 43.8468 89.5274 46.0868 89.4847 48.0494C89.4847 50.2254 90.4661 51.3774 92.4287 51.5054C93.7941 51.5908 95.0954 51.1428 96.3327 50.1614C97.5274 49.2228 98.4234 48.0494 99.0207 46.6414C99.7034 45.1054 99.9381 43.6121 99.7247 42.1614ZM95.8207 36.1454C97.1007 36.3588 98.2101 36.8068 99.1487 37.4894C100.599 38.4708 101.538 39.8361 101.965 41.5854C102.69 37.8734 102.071 35.5908 100.109 34.7374C98.9567 34.1828 97.5274 34.6521 95.8207 36.1454ZM100.877 48.3054C102.669 47.9641 104.525 47.2814 106.445 46.2574C108.151 45.4041 109.495 44.5294 110.477 43.6334C110.605 43.5054 110.797 43.5054 111.053 43.6334C111.266 43.7614 111.309 43.9534 111.181 44.2094C110.285 45.7028 108.642 47.0254 106.253 48.1774C104.077 49.2014 101.879 49.8201 99.6607 50.0334C99.3621 50.3321 99.0634 50.6308 98.7647 50.9294C96.8447 52.5508 94.6901 53.1481 92.3007 52.7214C88.8021 52.0814 87.0954 50.0761 87.1807 46.7054C87.1807 45.5534 87.3727 44.4228 87.7567 43.3134C87.5007 43.5694 87.2447 43.8041 86.9887 44.0174C83.4474 47.0894 80.4821 48.1774 78.0927 47.2814C77.8794 47.1961 77.6661 47.0894 77.4527 46.9614C77.1967 47.6868 76.9621 48.4548 76.7487 49.2654C76.0661 51.4841 75.5541 52.8921 75.2127 53.4894C75.0847 53.8308 74.7647 53.8734 74.2527 53.6174C73.6981 53.3614 73.3781 52.8921 73.2927 52.2094C73.0794 50.3321 74.2954 47.0254 76.9407 42.2894L77.7087 40.9454L78.4127 39.6654C79.0527 38.5561 79.5221 37.7454 79.8207 37.2334C80.7167 35.5268 81.2287 34.3321 81.3567 33.6494C81.3567 33.3508 81.5274 33.1374 81.8687 33.0094C82.1674 32.9241 82.5301 32.9454 82.9567 33.0734C83.3834 33.2014 83.7034 33.3934 83.9167 33.6494C84.1301 33.9481 84.1514 34.2681 83.9807 34.6094C83.7247 35.5481 82.7221 37.4468 80.9727 40.3054C80.5887 40.9028 80.2474 41.4574 79.9487 41.9694C78.9674 44.2308 78.7114 45.5961 79.1807 46.0654C79.6501 46.5774 81.7194 45.4681 85.3887 42.7374C86.5834 41.8841 87.8421 40.9241 89.1647 39.8574C89.3781 39.6868 89.5914 39.5161 89.8047 39.3454C90.1887 38.7908 90.6154 38.2361 91.0847 37.6814L92.8127 35.9534C95.6287 33.5214 98.2527 32.7108 100.685 33.5214C102.946 34.2894 104.226 35.8254 104.525 38.1294C104.823 40.4761 103.991 42.8014 102.029 45.1054C101.815 46.3001 101.431 47.3668 100.877 48.3054ZM133.405 43.6974C133.575 43.5694 133.767 43.5694 133.981 43.6974C134.237 43.8254 134.301 44.0174 134.173 44.2734L134.045 44.4014C134.002 44.4868 133.917 44.6148 133.789 44.7854C133.49 45.1268 133.17 45.5108 132.829 45.9374C131.762 47.1748 130.674 48.2841 129.565 49.2654C126.023 52.3374 123.058 53.4254 120.669 52.5294C118.407 51.6761 118.514 49.1588 120.989 44.9774C121.415 44.2521 121.906 43.4841 122.461 42.6734L123.165 41.5854C123.378 41.3294 123.613 41.0094 123.869 40.6254C124.85 39.2601 125.319 38.5348 125.277 38.4494C125.234 38.5348 125.021 38.8121 124.637 39.2814C124.21 39.8361 123.719 40.4548 123.165 41.1374C121.671 42.9721 120.178 44.6788 118.685 46.2574C114.077 51.0361 110.834 53.2548 108.957 52.9134C107.975 52.7428 107.421 52.1668 107.293 51.1854C107.037 49.3081 107.89 46.7481 109.853 43.5054L110.365 42.2254C110.365 41.9268 110.535 41.7134 110.877 41.5854C111.175 41.5001 111.538 41.5214 111.965 41.6494C112.391 41.7774 112.711 41.9694 112.925 42.2254C113.181 42.5241 113.202 42.8441 112.989 43.1854L112.669 44.1454L111.901 45.3614C109.725 49.1161 108.893 51.1001 109.405 51.3134C110.045 51.5268 112.882 49.2441 117.917 44.4654C123.079 39.5161 125.938 36.0601 126.493 34.0974C126.663 33.5854 127.111 33.5854 127.837 34.0974C128.562 34.6521 128.946 35.1428 128.989 35.5694C128.989 36.1668 128.541 37.2761 127.645 38.8974C127.303 39.5374 126.834 40.3268 126.237 41.2654L125.469 42.5454L124.701 43.7614C122.098 48.1134 121.117 50.6308 121.757 51.3134C122.226 51.8254 124.295 50.7161 127.965 47.9854C129.159 47.1321 130.418 46.1721 131.741 45.1054C132.167 44.7641 132.573 44.4228 132.957 44.0814C133.085 43.9961 133.191 43.9108 133.277 43.8254L133.405 43.6974ZM137.587 42.3534C136.734 43.2921 136.009 44.4868 135.411 45.9374C134.771 47.3881 134.451 48.6254 134.451 49.6494C134.451 50.8014 134.899 51.3988 135.795 51.4414C136.819 51.3134 137.886 50.7374 138.995 49.7134C140.147 48.6894 140.915 47.0254 141.299 44.7214C141.641 42.3748 141.193 41.1161 139.955 40.9454C139.273 40.8174 138.483 41.2868 137.587 42.3534ZM137.907 40.6894C138.846 40.3054 139.806 40.1988 140.787 40.3694C141.982 40.7108 142.793 41.4361 143.219 42.5454C143.646 43.5268 143.689 44.6574 143.347 45.9374C143.049 47.1748 142.451 48.2414 141.555 49.1374C141.342 49.3508 141.15 49.5428 140.979 49.7134C141.491 49.4574 141.982 49.1801 142.451 48.8814C143.902 47.9854 146.057 46.2788 148.915 43.7614C149.171 43.5908 149.406 43.5908 149.619 43.7614C149.79 43.9321 149.811 44.1241 149.683 44.3374C148.105 47.1534 145.609 49.3934 142.195 51.0574C138.825 52.9774 135.902 53.4468 133.427 52.4654C132.83 52.0388 132.382 51.4628 132.083 50.7374C131.187 48.7748 131.891 45.6814 134.195 41.4574C134.579 40.7748 135.049 39.9854 135.603 39.0894L136.243 38.0014L136.883 36.9134C137.865 35.3348 138.419 34.2681 138.547 33.7134C139.059 33.5428 139.571 33.5214 140.083 33.6494C140.723 33.7774 141.171 34.0761 141.427 34.5454C141.214 35.1854 140.51 36.4654 139.315 38.3854L138.547 39.6014L137.907 40.6894Z" fill="#D92F88"></path></svg> 