<?xml version="1.0" encoding="UTF-8"?> <svg xmlns="http://www.w3.org/2000/svg" id="_Слой_2" data-name="Слой 2" viewBox="0 0 25.51 39.51"><defs><style> .cls-1 { fill: #29682e; stroke-width: 0px; } </style></defs><g id="_Слой_1-2" data-name="Слой 1"><path class="cls-1" d="M14.77,22.35c.33,0,1.3.16,1.3.6.03.38-.85.53-.88.67-.05.22.11.58.12.85.02.58.12,1.9-.33,2.28-.19.16-.52.15-.54.17-.05.05.12,1.26.16,1.42.13.58.61.99,1.2.98,1.2-.03,3.13-.55,3.83-1.6.13-.19.61-1.38.56-1.44-.02-.03-.49-.1-.66-.38-.35-.57-.04-1.82.12-2.45-.23,0-.44-.09-.65-.17-.47-.18-.68-.27-.16-.7.13-.11.3-.24.49-.22.11.22-.48.45-.22.6.12.07.83.09.87.05.03-.03-.09-.23-.05-.33.08-.21.39-.12.44-.2.09-.17.15-1.38.16-1.69.09-2.41-.05-4.86,0-7.28.04-2.6.51-6.14.08-8.64-.1-.61-.33-.53-.48,0-.52,1.76-.14,4.43-.16,6.27-.04,3.57-.27,7.11-.19,10.68-.19.03-.1-.25-.11-.38-.07-1.63-.06-3.26-.1-4.89-.09-3.3-.32-6.77-.11-10.08.04-.57.2-2.36.84-2.53.16-.04.31.07.47.03.45-.11,1.11-.93,1.73-.8.07.3-.09.18-.22.27-.22.15-1.26.66-1.29.77.3.79.39,1.64.42,2.48.12,2.78-.17,5.58-.22,8.35-.05,2.31.12,4.64-.11,6.94.02.1,1.33.18,1.29.64-.05.52-.82.57-.85.62-.07.09.2.41.2.59.04.88-.48,1.49-.62,2.1-.05.22.1.4.07.6-.13.84-.51,2.14-1.1,2.75l-1.48,1.01c1.48-.22,2.53.5,2.58,2.04,0,.31-.26.64-.09.73.17.1.66.05,1.01.19.93.37,1.05,1.34,2.39,1.03.25-.06,1.1-.86,1.05-.04-.04.68-1.4,1.23-2,1.26-1.93.09-2.43-1.47-4.75-.63-.65.24-1.24.65-1.71,1.16.52.07,2.25.66,1.79,1.41-.25.42-4.42,1.15-5.1,1.19-.95.06-4.61.24-4.57-1.25.01-.44,1.09-.57.82-.81-.04-.04-.89.31-1.1.36-.66.15-1.52.26-2.2.17-1.22-.16-2.15-1.08-3.19.41-.93,1.33-.86,2.46-3.06,1.83-1.26-.36.56-.35.8-.41.93-.21.31-1.02.19-1.45-.28-.98.94-1.88,1.76-2.14,1.17-.36,2.16-.02,3.34-.08-.64-.91-1.25-3.68.28-3.89,1.31-.18,2.8.07,4.08.35.33.07,1.55.51,1.66.51.55,0,.39-1.18.26-1.29-.1-.08-1.9.12-2.31.08-1.52-.15-2.07-.79-2.32-2.24-.1-.58-.02-1.64-.16-2.12-.06-.19-.4-.44-.49-.81-.11-.4.03-1.6-.03-1.66-.06-.06-1.39.06-1.52-.71-.17-1,1.01-1,1.09-1.4.07-2.35-.1-4.71,0-7.06.14-3.53.55-6.97.54-10.52,0-.21.12-.44.09-.62-.05-.31-1.19-1.57-.96-1.81.35-.35.97,1.39,1.14,1.4.08,0,.64-.45,1.01-.07.36.37.21,2.57.24,3.18.15,3.66.2,7.39.12,11.07-.04,1.81-.22,3.63-.3,5.44-.16.49-1.41.64-1.66.31-.18-.24.04-.66-.26-.61-.24.04-.62.46-.49.65.21.31,2.59.3,3.04,0,.11-.14-.63-.66-.16-.76.16-.03.59.43.59.59,0,.23-.25.38-.27.54-.03.21.09.66.06.98-.13,1.48-1.04,2.06-.44,3.69.42,1.14,3.17,1.84,3.75.48.1-.25.21-1.75.16-2.01-.06-.32-.65-.49-.75-1.09-.07-.44.28-2.12.2-2.21-.12-.14-2.42-.45-.68-1.19.88-.37,1.34-.29,2.21-.01.06-4.68-.2-9.38.33-14.04-.24-2.1.38-4.59.11-6.63-.08-.58-.72-.59-.9-.24-.13.26-.22.83-.27,1.14-.4,2.37-.22,5.52-.25,7.99-.04,3.75.09,7.51-.21,11.23-.19.03-.1-.25-.11-.38-.15-3.9-.07-7.81,0-11.71.04-2.25-.16-4.75.11-6.95.04-.33.33-1.86.56-1.99.14-.07.4.02.63-.08.25-.11.67-.87,1.03-.81.48.07-.46.86-.47.94-.02.1.25.43.29.66.07.36.06.99.07,1.39.07,3.31-.27,6.57-.38,9.87-.11,3.17.34,6.34,0,9.49ZM8.47,22.89c.04-2.4.3-4.81.11-7.2-.29-3.71.42-8.1.01-11.73-.05-.49-.32-.53-.55-.11-.45.82-.08,3.35-.1,4.46-.05,4.03-.48,8.11-.55,12.14-.01.83.02,1.66,0,2.49.03.19.89-.11,1.08-.05ZM13.68,23.11c-.19-.05-.55-.23-.66-.38-.1-.14-.09-.37-.1-.39-.03-.04-.83.41-.87.49-.1.2.16.16.24.19.41.15.67.21,1.12.19.12,0,.3.07.27-.11ZM21.71,22.57c-.51-.05-.8-.5-.76.32.05.06.75-.11.76-.32ZM19.86,23.43v1.57c0,.08.23.5.32.55.66.35,1.13-1.87.74-2.11-.15-.1-.83.04-1.07-.02ZM14.86,26.35c.09-.15-.13-2.42-.25-2.59-.16-.23-1.23.13-1.58,0-.04,1.25-.02,3.32,1.83,2.59ZM9.34,23.98l-1.52.22c-.06.46.08,1.68.62,1.83.82.23.74-1.56.9-2.04ZM14.22,31.79c.38-1.9,2.03-1.41,3.37-1.68.5-.1,2.03-.84,2.39-1.19.55-.55.94-2.09.97-2.88l-.95,2.03c-.74,1.33-2.99,1.97-4.4,1.87-1.63-.11-1.61-1.7-1.37-2.93h-.43c-.17.83.12,2.13-.61,2.7-.86.67-2.16.48-3.1.1-.88-.36-1.23-1.2-1.37-2.1-.07-.41.2-1.1-.44-1.02.11,1.33.12,3.32,1.71,3.66.87.19,1.47.02,2.25.03,1.28.01.95,1.26,2,1.41ZM20.73,32.54c-.35-3.13-3.89-1.35-5.53-.38-.36.21-.7.3-.65.82,1.99-.87,4.08-.76,6.18-.43ZM16.72,30.92c-.85.09-1.82.23-2.06,1.19.17.16,1.85-.93,2.06-1.19ZM12.59,32.44c-.19-.21-5.08-.74-5.69-.66-.94.13-.49,2.21-.18,2.79.68,1.27,1.22-.07,1.77-.55,1.07-.95,2.75-.94,4.11-1.15-.02-.11.03-.38,0-.43ZM14.22,32.22c-1.07-.34-.84.44-.76,1.19.25.06.18-.05.25-.14.1-.13.58-.98.51-1.06ZM20.51,32.76c-1.62-.14-3.14-.19-4.71.33l-.82.32c1.8.05,3.59-.17,5.37-.44.19-.03.18.06.16-.21ZM12.49,33.2c-1.42.41-3.1.66-4.01,1.95l1-.36,3.01-1.59ZM24.74,34.61c-1.41.65-2.11-1-3.2-1.09-1.84-.16-3.38,1.23-5.09,1.31-1.02.04-1.8-.18-2.55-.87.44,1.21,1.04,2.23,2.49,1.68,1.24-.47,1.92-1.51,3.54-1.67,1.64-.16,2.41,1.19,4.19.94.13-.02.59-.14.62-.3ZM17.53,33.74c-.84.05-1.75,0-2.6,0-.62,0-.05.41.27.49,1.01.26,2.03-.08,2.93-.49-.04-.3-.51,0-.6,0ZM12.27,33.74c-1.42.36-2.56,1.47-4.01,1.79-.63.14-.85.04-1.39.26-1.1.45-2.5-.27-3.79.31-.34.15-1.22.87-1.2,1.25,0,.16.16.37.18.57.08.72-.25.85-.64,1.34,1.92-.08,1.06-2.52,2.82-3.09,2.04-.66,3.46,1.2,5.93-.25.82-.48,1.43-1.51,2.09-2.19ZM13.03,33.85c-.45-.39-1.68,1.67-1.95,1.95l1.83-.66.12-1.29ZM14.44,37.32c.47.07,3.47-.13,3.47-.6-1.06-.76-2.12.09-3.18-.61-.63-.42-1.04-1.31-1.16-2.04-.44.22,0,1.04-.23,1.39-.09.14-2.73.74-2.78,1.59l.36.27,2.98.11-2.08-.36c-.27-.13-.62-.1-.52-.51,1.48.71,3.39.18,4.99.11l-.26.33-1.58.32ZM18.56,37.32c.08-.09-.02-.44-.27-.44-.12,0-.62.48-.92.6-1.08.42-4.72.58-6.02.5-.72-.05-1.43-.11-1.47-.98-.74.43,0,.9.52,1.05,1.64.48,4.23.26,5.9-.11.29-.06,2.18-.53,2.26-.62Z"></path></g></svg> 