<?xml version="1.0" encoding="UTF-8"?> <svg xmlns="http://www.w3.org/2000/svg" width="67" height="65" viewBox="0 0 67 65" fill="none"><path d="M64.9142 32.792C64.8329 34.2799 60.1563 36.5652 54.3459 36.5118L43.56 36.4126L40.3547 41.1568L40.716 41.1602C40.8858 41.1617 41.0164 41.3017 41.007 41.4736L40.8077 45.1254C40.7984 45.2958 40.6526 45.4332 40.4828 45.4317L37.4877 45.4041L34.323 50.091L35.0599 50.0977C35.2297 50.0993 35.3603 50.2392 35.351 50.4097L35.1517 54.0615C35.1423 54.2334 34.9966 54.3694 34.8268 54.3678L31.456 54.3368L24.9323 63.9992C24.7147 64.3195 24.3527 64.5142 23.9727 64.5107L21.4209 64.4872C21.1604 64.4848 20.9918 64.2231 21.0945 63.9769L27.0883 49.5388L26.7126 49.5354C26.5946 49.5343 26.4868 49.5044 26.4072 49.4589C26.3276 49.4133 26.2793 49.3493 26.2831 49.2799C26.2906 49.1413 26.5126 49.032 26.74 49.0341L27.2956 49.0392L29.4046 43.9597L29.527 41.7163L28.9599 41.7111C28.8434 41.71 28.734 41.6816 28.6545 41.6346C28.5749 41.589 28.5266 41.525 28.5304 41.4557C28.5379 41.3184 28.7599 41.2077 28.9873 41.2098L29.5544 41.215L29.8234 36.2863L25.5531 36.247C22.6069 36.2199 20.078 36.0666 17.909 35.8356L11.2715 44.8928C11.1687 45.0335 11.0044 45.1158 10.836 45.1143L9.27151 45.0999C8.94624 45.0969 8.72076 44.7956 8.8044 44.477L10.0608 39.7148L9.70822 39.7116C9.5902 39.7105 9.48232 39.682 9.4028 39.6351C9.32321 39.5895 9.27486 39.5255 9.27857 39.4576C9.28614 39.3189 9.50818 39.2082 9.73559 39.2103L10.1933 39.2145L11.0752 35.8783L10.6953 35.8748C10.5787 35.8737 10.4694 35.8452 10.3899 35.7983C10.3117 35.7527 10.2634 35.6887 10.2671 35.6208C10.2746 35.4821 10.4967 35.3714 10.7226 35.3735L11.2062 35.378L11.386 34.6974C9.0122 34.0758 7.55625 33.3918 6.72886 32.9058L3.84598 32.8793C3.25875 32.8739 2.7176 32.5785 2.73715 32.2202C2.74685 32.0425 2.88962 31.8805 3.10758 31.7655C3.3241 31.6504 3.61302 31.5808 3.91671 31.5836L6.7996 31.6101C7.67919 31.1398 9.20832 30.4832 11.6475 29.9059L11.5423 29.2227L11.0587 29.2183C10.8327 29.2162 10.6229 29.1016 10.6305 28.9629C10.6342 28.895 10.6895 28.8319 10.7726 28.7879C10.8571 28.7424 10.9694 28.716 11.086 28.717L11.466 28.7205L10.949 25.3714L10.4913 25.3672C10.2639 25.3651 10.0541 25.2505 10.0617 25.1118C10.0655 25.0424 10.1207 24.9808 10.2052 24.9368C10.2897 24.8913 10.4006 24.8649 10.5187 24.8659L10.8713 24.8692L10.1358 20.0887C10.087 19.7688 10.3452 19.4706 10.6705 19.4736L12.235 19.488C12.4034 19.4895 12.5585 19.5762 12.6457 19.7187L18.2882 28.8888C20.4802 28.6979 23.0233 28.5912 25.9695 28.6183L30.2399 28.6576L30.509 23.7288L29.9419 23.7236C29.7145 23.7215 29.5047 23.6068 29.5123 23.4682C29.516 23.4003 29.5713 23.3372 29.6558 23.2932C29.7403 23.2477 29.8527 23.2213 29.9692 23.2223L30.5363 23.2275L30.6588 20.9842L29.1062 15.871L28.5507 15.8659C28.3233 15.8638 28.1134 15.7505 28.121 15.6119C28.1248 15.5425 28.1801 15.4794 28.2646 15.4354C28.3491 15.3914 28.46 15.3635 28.578 15.3646L28.9537 15.368L24.5415 0.834276C24.4657 0.586437 24.6627 0.3281 24.9232 0.330495L27.4751 0.353962C27.855 0.357456 28.1955 0.557144 28.3779 0.882562L33.8406 10.6551L37.2114 10.6861C37.3812 10.6877 37.5119 10.8262 37.5025 10.9981L37.3032 14.6499C37.2939 14.8204 37.1481 14.9578 36.9783 14.9562L36.2414 14.9495L38.8914 19.6897L41.8866 19.7173C42.0564 19.7189 42.187 19.8588 42.1777 20.0293L41.9783 23.6811C41.9689 23.853 41.8232 23.9904 41.6534 23.9888L41.2921 23.9855L43.9764 28.7839L54.7624 28.8831C60.5728 28.9365 64.9953 31.3055 64.9142 32.792Z" fill="white"></path></svg> 