<?xml version="1.0" encoding="UTF-8"?> <svg xmlns="http://www.w3.org/2000/svg" width="299" height="35" viewBox="0 0 299 35" fill="none"><path d="M32.4258 1.30859C32.4258 1.38151 32.1133 1.53776 31.4883 1.77734C30.1549 2.28776 28.9362 3.06901 27.832 4.12109C28.0299 4.71484 28.1289 5.30339 28.1289 5.88672C28.1289 6.70964 27.9362 7.75651 27.5508 9.02734C26.7695 11.6315 25.3477 14.1419 23.2852 16.5586C21.2331 18.9753 18.9831 20.7773 16.5352 21.9648C15.5664 22.4336 14.4883 22.8034 13.3008 23.0742C12.5612 23.2305 11.9831 23.3086 11.5664 23.3086C11.0768 23.3086 10.6029 23.2201 10.1445 23.043C9.69661 22.8555 9.2487 22.6628 8.80078 22.4648C7.3112 22.8815 5.85286 23.0898 4.42578 23.0898C2.85286 23.0898 1.76953 22.8659 1.17578 22.418C0.779948 22.1159 0.582031 21.8138 0.582031 21.5117C0.582031 20.8971 0.983073 20.418 1.78516 20.0742C2.39974 19.8138 3.0612 19.6836 3.76953 19.6836C5.27995 19.6836 7.39974 20.3086 10.1289 21.5586C13.5352 20.0378 17.1445 16.3815 20.957 10.5898C21.7487 9.38151 22.5977 8.2513 23.5039 7.19922C24.5039 6.02214 25.7799 4.87109 27.332 3.74609C26.8737 2.73568 26.2695 2.02734 25.5195 1.62109C24.8424 1.25651 23.9154 1.07422 22.7383 1.07422C21.0091 1.07422 19.3164 1.68359 17.6602 2.90234C14.7852 5.02734 12.5352 7.32422 10.9102 9.79297C10.1914 10.8763 9.83203 11.9076 9.83203 12.8867C9.83203 13.4284 10.0352 13.9284 10.4414 14.3867C10.8581 14.8451 11.332 15.0742 11.8633 15.0742C12.9362 15.0742 14.2747 14.4596 15.8789 13.2305C17.1706 12.2513 18.2695 11.194 19.1758 10.0586C20.1862 8.79818 20.6914 7.63151 20.6914 6.55859C20.6914 5.70443 20.3997 5.27734 19.8164 5.27734C18.7643 5.27734 17.5612 6.0638 16.207 7.63672C15.8841 8.0013 15.2331 8.67318 14.2539 9.65234C13.8893 10.0169 13.6497 10.4753 13.5352 11.0273C13.5143 11.1419 13.4622 11.668 13.3789 12.6055C13.3685 12.7409 13.3164 12.8034 13.2227 12.793C13.2018 12.8034 13.181 12.8138 13.1602 12.8242C12.9831 12.8242 12.8945 12.3763 12.8945 11.4805C12.8945 10.7305 13.0924 10.0169 13.4883 9.33984C14.1237 8.27734 14.9987 7.27734 16.1133 6.33984C17.4154 5.23568 18.5716 4.68359 19.582 4.68359C20.6445 4.68359 21.1758 5.24609 21.1758 6.37109C21.1758 7.04818 21.082 7.61068 20.8945 8.05859C20.2591 9.56901 19.0091 11.1523 17.1445 12.8086C15.1237 14.6107 13.3893 15.5117 11.9414 15.5117C9.81641 15.5117 8.75391 14.3555 8.75391 12.043C8.75391 9.9388 9.84766 7.77734 12.0352 5.55859C13.9518 3.60026 16.0352 2.19922 18.2852 1.35547C19.6081 0.855469 20.9206 0.605469 22.2227 0.605469C25.0247 0.605469 26.8268 1.58984 27.6289 3.55859C29.2018 2.44401 30.7227 1.63151 32.1914 1.12109C32.2018 1.12109 32.2227 1.11589 32.2539 1.10547C32.3685 1.10547 32.4258 1.17318 32.4258 1.30859ZM27.7852 5.90234C27.7852 5.40234 27.7174 4.90234 27.582 4.40234C26.6341 5.38151 25.7487 6.48047 24.9258 7.69922C23.8112 9.41797 22.0872 11.9596 19.7539 15.3242C18.7331 16.6888 17.5247 17.9076 16.1289 18.9805C15.2956 19.6263 14.1602 20.293 12.7227 20.9805C12.2852 21.1888 11.6289 21.4701 10.7539 21.8242C11.5456 22.1471 12.207 22.3086 12.7383 22.3086C13.6549 22.3086 14.7956 22.0638 16.1602 21.5742C17.9102 20.9596 19.6758 19.7721 21.457 18.0117C22.9883 16.5117 24.3268 14.819 25.4727 12.9336C26.2018 11.7253 26.7852 10.3919 27.2227 8.93359C27.5977 7.63151 27.7852 6.62109 27.7852 5.90234ZM8.30078 22.2148C5.89453 21.1523 4.09245 20.6211 2.89453 20.6211C1.80078 20.6211 1.25391 20.9023 1.25391 21.4648C1.25391 21.7357 1.42578 21.9961 1.76953 22.2461C2.25911 22.6003 3.16536 22.7773 4.48828 22.7773C5.66536 22.7773 6.9362 22.5898 8.30078 22.2148ZM32.332 19.543C32.332 19.7096 31.957 20.0378 31.207 20.5273C30.9674 20.6836 30.6706 20.7617 30.3164 20.7617C28.6185 22.4076 27.1914 23.2305 26.0352 23.2305C24.9935 23.2305 24.4727 22.7513 24.4727 21.793C24.4727 20.5117 25.4049 19.1211 27.2695 17.6211C26.7695 17.8919 26.4049 18.1055 26.1758 18.2617C25.7279 18.7096 25.1862 19.1992 24.5508 19.7305C24.4674 19.6888 24.4258 19.6315 24.4258 19.5586C24.4258 19.4128 24.7487 19.0638 25.3945 18.5117C26.2174 17.793 27.4779 17.0794 29.1758 16.3711C30.1966 15.9544 30.8685 15.7461 31.1914 15.7461C31.8893 15.7461 32.2383 15.9857 32.2383 16.4648C32.2383 16.3503 32.1758 16.6471 32.0508 17.3555C32.082 17.4388 32.0977 17.5326 32.0977 17.6367C32.0977 18.3659 31.6341 19.1836 30.707 20.0898C30.6549 20.1419 30.6185 20.1888 30.5977 20.2305L30.6445 20.2773C30.8945 20.2773 31.181 20.1315 31.5039 19.8398C31.8372 19.5482 32.0508 19.4023 32.1445 19.4023C32.2695 19.4023 32.332 19.4492 32.332 19.543ZM31.7227 16.6367C31.7227 16.3138 31.5716 16.1523 31.2695 16.1523C30.8633 16.1523 29.806 17.043 28.0977 18.8242C26.3997 20.5951 25.5508 21.7357 25.5508 22.2461C25.5508 22.6523 25.7435 22.8555 26.1289 22.8555C26.5039 22.8555 26.8997 22.7513 27.3164 22.543C27.7018 22.3451 28.1602 22.0586 28.6914 21.6836C29.3893 21.2044 29.7435 20.8659 29.7539 20.668C29.5039 20.668 29.3789 20.4805 29.3789 20.1055C29.3789 19.5742 29.6237 18.9648 30.1133 18.2773C30.6237 17.5482 31.1341 17.1576 31.6445 17.1055C31.6966 16.9909 31.7227 16.8346 31.7227 16.6367ZM42.3008 19.6055C42.3008 19.6367 42.2747 19.6732 42.2227 19.7148L39.1914 22.3398C38.6185 22.8294 38.0977 23.0742 37.6289 23.0742C36.8372 23.0742 36.4414 22.6315 36.4414 21.7461C36.4414 21.3919 36.582 21.0638 36.8633 20.7617L40.1602 17.2773C40.3372 17.0898 40.4258 16.918 40.4258 16.7617C40.4258 16.6159 40.3268 16.543 40.1289 16.543C39.7227 16.543 38.5143 17.4544 36.5039 19.2773C35.8789 19.8398 35.1914 20.6003 34.4414 21.5586C33.806 22.3711 33.1758 23.1836 32.5508 23.9961L24.6914 33.7305C24.5664 33.8867 24.4154 33.9701 24.2383 33.9805L22.7227 34.043C22.5977 34.0534 22.5352 34.0013 22.5352 33.8867C22.5352 33.6992 22.6393 33.4857 22.8477 33.2461L36.582 16.8555C36.8633 16.5221 37.2279 16.1315 37.6758 15.6836C34.0404 18.444 32.2122 19.8242 32.1914 19.8242C32.0768 19.8242 32.0195 19.7669 32.0195 19.6523C32.0195 19.5898 32.0404 19.543 32.082 19.5117L38.0508 14.9648C38.8633 14.3398 39.6914 13.6523 40.5352 12.9023C40.7747 12.694 40.9622 12.5898 41.0977 12.5898C41.1914 12.5898 41.2383 12.6576 41.2383 12.793C41.2383 12.9492 40.8685 13.4909 40.1289 14.418L36.9258 18.4648L39.0039 16.7305C39.5977 16.2409 40.1237 15.9961 40.582 15.9961C41.3008 15.9961 41.6602 16.4909 41.6602 17.4805C41.6602 17.7826 41.5508 18.0534 41.332 18.293L38.0195 21.7773C37.8424 21.9648 37.7539 22.1367 37.7539 22.293C37.7539 22.4492 37.8424 22.5273 38.0195 22.5273C38.332 22.5273 39.0508 22.0273 40.1758 21.0273C41.3529 19.9961 41.9987 19.4648 42.1133 19.4336C42.2383 19.444 42.3008 19.5013 42.3008 19.6055ZM49.957 19.543C49.957 19.7096 49.582 20.0378 48.832 20.5273C48.5924 20.6836 48.2956 20.7617 47.9414 20.7617C46.2435 22.4076 44.8164 23.2305 43.6602 23.2305C42.6185 23.2305 42.0977 22.7513 42.0977 21.793C42.0977 20.5117 43.0299 19.1211 44.8945 17.6211C44.3945 17.8919 44.0299 18.1055 43.8008 18.2617C43.3529 18.7096 42.8112 19.1992 42.1758 19.7305C42.0924 19.6888 42.0508 19.6315 42.0508 19.5586C42.0508 19.4128 42.3737 19.0638 43.0195 18.5117C43.8424 17.793 45.1029 17.0794 46.8008 16.3711C47.8216 15.9544 48.4935 15.7461 48.8164 15.7461C49.5143 15.7461 49.8633 15.9857 49.8633 16.4648C49.8633 16.3503 49.8008 16.6471 49.6758 17.3555C49.707 17.4388 49.7227 17.5326 49.7227 17.6367C49.7227 18.3659 49.2591 19.1836 48.332 20.0898C48.2799 20.1419 48.2435 20.1888 48.2227 20.2305L48.2695 20.2773C48.5195 20.2773 48.806 20.1315 49.1289 19.8398C49.4622 19.5482 49.6758 19.4023 49.7695 19.4023C49.8945 19.4023 49.957 19.4492 49.957 19.543ZM49.3477 16.6367C49.3477 16.3138 49.1966 16.1523 48.8945 16.1523C48.4883 16.1523 47.431 17.043 45.7227 18.8242C44.0247 20.5951 43.1758 21.7357 43.1758 22.2461C43.1758 22.6523 43.3685 22.8555 43.7539 22.8555C44.1289 22.8555 44.5247 22.7513 44.9414 22.543C45.3268 22.3451 45.7852 22.0586 46.3164 21.6836C47.0143 21.2044 47.3685 20.8659 47.3789 20.668C47.1289 20.668 47.0039 20.4805 47.0039 20.1055C47.0039 19.5742 47.2487 18.9648 47.7383 18.2773C48.2487 17.5482 48.7591 17.1576 49.2695 17.1055C49.3216 16.9909 49.3477 16.8346 49.3477 16.6367ZM56.1445 19.5898C56.1445 19.6523 56.1237 19.6992 56.082 19.7305L52.9727 22.3555C52.4102 22.8346 51.8008 23.0742 51.1445 23.0742C50.2695 23.0742 49.832 22.6628 49.832 21.8398C49.832 21.1003 50.6185 20.2357 52.1914 19.2461C53.7747 18.2565 54.5664 17.5065 54.5664 16.9961C54.5664 16.7253 54.4779 16.5898 54.3008 16.5898C54.1862 16.5898 54.0247 16.6211 53.8164 16.6836C53.4831 16.7773 52.3997 17.6003 50.5664 19.1523C50.3789 19.319 50.1341 19.5065 49.832 19.7148C49.7383 19.6419 49.6914 19.5742 49.6914 19.5117C49.6914 19.4701 49.7122 19.4336 49.7539 19.4023L53.0508 16.7461C53.6654 16.2565 54.1862 16.0117 54.6133 16.0117C55.5716 16.0117 56.0508 16.5221 56.0508 17.543C56.0508 18.1159 55.4674 18.6992 54.3008 19.293C53.7174 19.5846 53.1393 19.9701 52.5664 20.4492C51.7956 21.0846 51.4102 21.6107 51.4102 22.0273C51.4102 22.319 51.5508 22.4648 51.832 22.4648C51.9466 22.4648 52.0716 22.4492 52.207 22.418C52.3841 22.3763 53.056 21.8607 54.2227 20.8711C55.3581 19.8919 55.9414 19.4023 55.9727 19.4023C56.0872 19.4023 56.1445 19.4648 56.1445 19.5898ZM66.6133 16.1992C66.6133 16.3971 66.5091 16.6055 66.3008 16.8242L61.8008 21.793C61.6133 21.9909 61.5195 22.168 61.5195 22.3242C61.5195 22.4492 61.5924 22.5117 61.7383 22.5117C62.0612 22.5117 62.5924 22.2096 63.332 21.6055L65.9883 19.4023C65.9987 19.3919 66.0404 19.3763 66.1133 19.3555C66.2279 19.3763 66.2852 19.4388 66.2852 19.543C66.2852 19.5742 66.2591 19.6107 66.207 19.6523L62.9727 22.3242C62.3893 22.8034 61.8372 23.043 61.3164 23.043C60.5768 23.043 60.207 22.6159 60.207 21.7617C60.207 21.4492 60.582 20.8451 61.332 19.9492C60.4987 20.6888 59.2956 21.6471 57.7227 22.8242C57.4935 22.9701 57.1654 23.043 56.7383 23.043C56.0716 23.043 55.7383 22.6263 55.7383 21.793C55.7383 21.3971 55.8581 21.0586 56.0977 20.7773L58.8633 17.5898C56.9779 19.0273 56.0247 19.7461 56.0039 19.7461C55.8893 19.7461 55.832 19.6836 55.832 19.5586C55.832 19.5169 55.8581 19.4805 55.9102 19.4492L60.082 16.2148C60.2174 16.1107 60.7904 16.0586 61.8008 16.0586C61.9987 16.0586 62.0977 16.1055 62.0977 16.1992C62.0977 16.3971 61.9987 16.6055 61.8008 16.8242L57.832 21.168C57.6966 21.3138 57.6289 21.4596 57.6289 21.6055C57.6289 21.7826 57.7591 21.8711 58.0195 21.8711C58.2904 21.8711 58.556 21.7826 58.8164 21.6055C58.9935 21.4909 59.6758 20.9388 60.8633 19.9492C62.0508 18.9596 62.6914 18.418 62.7852 18.3242L64.457 16.3555C64.5924 16.1888 64.7435 16.1055 64.9102 16.1055L66.4414 16.0586C66.556 16.0586 66.6133 16.1055 66.6133 16.1992ZM74.832 17.1836C74.832 18.5482 72.8477 19.694 68.8789 20.6211C68.1914 21.3294 67.8477 21.8919 67.8477 22.3086C67.8477 22.6836 68.0247 22.8711 68.3789 22.8711C69.1393 22.8711 70.1602 22.4076 71.4414 21.4805C73.181 20.2201 74.1341 19.5482 74.3008 19.4648C74.4154 19.4961 74.4727 19.5586 74.4727 19.6523C74.4727 19.7148 74.0247 20.0534 73.1289 20.668C72.0872 21.3867 71.5664 21.7461 71.5664 21.7461C70.3789 22.6732 69.3164 23.1367 68.3789 23.1367C67.3581 23.1367 66.8477 22.6315 66.8477 21.6211C66.8477 20.2357 67.8945 18.7982 69.9883 17.3086C69.1341 17.8503 67.8581 18.6628 66.1602 19.7461L66.0508 19.793C65.957 19.7826 65.9102 19.7253 65.9102 19.6211C65.9102 19.569 65.9258 19.5169 65.957 19.4648C67.6549 18.2253 69.2852 17.293 70.8477 16.668C71.0352 16.6055 71.3112 16.5065 71.6758 16.3711C72.5924 15.9961 73.2643 15.8086 73.6914 15.8086C74.4518 15.8086 74.832 16.2669 74.832 17.1836ZM74.0977 16.6367C74.0977 16.293 73.9466 16.1211 73.6445 16.1211C73.1029 16.1211 71.6393 17.4596 69.2539 20.1367C69.5143 20.1367 69.8945 20.0169 70.3945 19.7773L71.4258 19.2617C71.9258 19.0221 72.4622 18.6523 73.0352 18.1523C73.7435 17.5273 74.0977 17.0221 74.0977 16.6367ZM94.3633 19.6055C94.3633 19.6367 94.3372 19.6732 94.2852 19.7148L91.2539 22.3398C90.681 22.8294 90.1602 23.0742 89.6914 23.0742C88.8997 23.0742 88.5039 22.6315 88.5039 21.7461C88.5039 21.3919 88.6445 21.0638 88.9258 20.7617L92.2227 17.2773C92.3997 17.0898 92.4883 16.918 92.4883 16.7617C92.4883 16.6159 92.3893 16.543 92.1914 16.543C91.7852 16.543 90.5768 17.4544 88.5664 19.2773C87.9414 19.8398 87.2539 20.6003 86.5039 21.5586C85.8685 22.3711 85.2383 23.1836 84.6133 23.9961L76.7539 33.7305C76.6289 33.8867 76.4779 33.9701 76.3008 33.9805L74.7852 34.043C74.6602 34.0534 74.5977 34.0013 74.5977 33.8867C74.5977 33.6992 74.7018 33.4857 74.9102 33.2461L88.6445 16.8555C88.9258 16.5221 89.2904 16.1315 89.7383 15.6836C86.1029 18.444 84.2747 19.8242 84.2539 19.8242C84.1393 19.8242 84.082 19.7669 84.082 19.6523C84.082 19.5898 84.1029 19.543 84.1445 19.5117L90.1133 14.9648C90.9258 14.3398 91.7539 13.6523 92.5977 12.9023C92.8372 12.694 93.0247 12.5898 93.1602 12.5898C93.2539 12.5898 93.3008 12.6576 93.3008 12.793C93.3008 12.9492 92.931 13.4909 92.1914 14.418L88.9883 18.4648L91.0664 16.7305C91.6602 16.2409 92.1862 15.9961 92.6445 15.9961C93.3633 15.9961 93.7227 16.4909 93.7227 17.4805C93.7227 17.7826 93.6133 18.0534 93.3945 18.293L90.082 21.7773C89.9049 21.9648 89.8164 22.1367 89.8164 22.293C89.8164 22.4492 89.9049 22.5273 90.082 22.5273C90.3945 22.5273 91.1133 22.0273 92.2383 21.0273C93.4154 19.9961 94.0612 19.4648 94.1758 19.4336C94.3008 19.444 94.3633 19.5013 94.3633 19.6055ZM102.02 19.543C102.02 19.7096 101.645 20.0378 100.895 20.5273C100.655 20.6836 100.358 20.7617 100.004 20.7617C98.306 22.4076 96.8789 23.2305 95.7227 23.2305C94.681 23.2305 94.1602 22.7513 94.1602 21.793C94.1602 20.5117 95.0924 19.1211 96.957 17.6211C96.457 17.8919 96.0924 18.1055 95.8633 18.2617C95.4154 18.7096 94.8737 19.1992 94.2383 19.7305C94.1549 19.6888 94.1133 19.6315 94.1133 19.5586C94.1133 19.4128 94.4362 19.0638 95.082 18.5117C95.9049 17.793 97.1654 17.0794 98.8633 16.3711C99.8841 15.9544 100.556 15.7461 100.879 15.7461C101.577 15.7461 101.926 15.9857 101.926 16.4648C101.926 16.3503 101.863 16.6471 101.738 17.3555C101.77 17.4388 101.785 17.5326 101.785 17.6367C101.785 18.3659 101.322 19.1836 100.395 20.0898C100.342 20.1419 100.306 20.1888 100.285 20.2305L100.332 20.2773C100.582 20.2773 100.868 20.1315 101.191 19.8398C101.525 19.5482 101.738 19.4023 101.832 19.4023C101.957 19.4023 102.02 19.4492 102.02 19.543ZM101.41 16.6367C101.41 16.3138 101.259 16.1523 100.957 16.1523C100.551 16.1523 99.4935 17.043 97.7852 18.8242C96.0872 20.5951 95.2383 21.7357 95.2383 22.2461C95.2383 22.6523 95.431 22.8555 95.8164 22.8555C96.1914 22.8555 96.5872 22.7513 97.0039 22.543C97.3893 22.3451 97.8477 22.0586 98.3789 21.6836C99.0768 21.2044 99.431 20.8659 99.4414 20.668C99.1914 20.668 99.0664 20.4805 99.0664 20.1055C99.0664 19.5742 99.3112 18.9648 99.8008 18.2773C100.311 17.5482 100.822 17.1576 101.332 17.1055C101.384 16.9909 101.41 16.8346 101.41 16.6367ZM117.332 8.71484C117.332 10.9753 115.572 13.9805 112.051 17.7305C111.207 18.5326 109.952 19.7461 108.285 21.3711C108.806 21.0586 109.249 20.7773 109.613 20.5273C109.853 20.2878 110.238 19.9753 110.77 19.5898C110.801 19.5273 110.848 19.4648 110.91 19.4023C111.025 19.4232 111.082 19.4857 111.082 19.5898C111.082 19.6211 111.056 19.6576 111.004 19.6992C108.014 22.043 105.764 23.2148 104.254 23.2148C103.077 23.2148 102.488 22.7148 102.488 21.7148C102.488 20.5169 103.457 19.1419 105.395 17.5898C104.895 17.8711 104.316 18.2461 103.66 18.7148C103.087 19.1211 102.525 19.4753 101.973 19.7773C101.921 19.7773 101.863 19.7148 101.801 19.5898C101.801 19.5482 101.832 19.5065 101.895 19.4648C102.134 19.2982 103.02 18.7305 104.551 17.7617C105.072 17.4284 105.978 16.9596 107.27 16.3555C108.124 15.9596 108.806 15.7617 109.316 15.7617C110.264 15.7617 110.738 16.1628 110.738 16.9648C110.738 17.6107 110.504 18.3451 110.035 19.168C111.171 18.1471 112.014 17.3346 112.566 16.7305C114.691 14.3659 116.066 12.2565 116.691 10.4023C116.827 9.98568 116.895 9.42318 116.895 8.71484C116.895 7.38151 116.264 6.71484 115.004 6.71484C113.993 6.71484 112.926 7.41797 111.801 8.82422C110.717 10.1784 110.176 11.3763 110.176 12.418C110.176 13.0326 110.52 13.3398 111.207 13.3398C111.707 13.3398 112.238 13.0482 112.801 12.4648C113.28 11.9648 113.639 11.4388 113.879 10.8867C114.056 10.4596 114.243 9.97005 114.441 9.41797C114.546 9.14714 114.598 8.92839 114.598 8.76172C114.598 8.52214 114.509 8.33984 114.332 8.21484C114.155 8.07943 114.066 8.00651 114.066 7.99609C114.066 7.87109 114.113 7.79818 114.207 7.77734C114.707 7.85026 114.957 8.24089 114.957 8.94922C114.957 9.98047 114.587 10.9961 113.848 11.9961C113.056 13.0898 112.16 13.6367 111.16 13.6367C109.868 13.6367 109.223 12.9336 109.223 11.5273C109.223 10.4961 109.608 9.47526 110.379 8.46484C111.098 7.51693 111.957 6.81901 112.957 6.37109C113.415 6.17318 114.025 6.07422 114.785 6.07422C115.139 6.07422 115.546 6.16797 116.004 6.35547C116.889 6.70964 117.332 7.49609 117.332 8.71484ZM110.27 17.1836C110.27 16.5065 110.051 16.168 109.613 16.168C108.936 16.168 107.671 17.2669 105.816 19.4648C105.358 19.9336 104.723 20.6628 103.91 21.6523C103.754 21.8815 103.676 22.1107 103.676 22.3398C103.676 22.7461 103.936 22.9492 104.457 22.9492C104.874 22.9492 105.525 22.6576 106.41 22.0742C107.296 21.4909 108.113 20.7826 108.863 19.9492C109.801 18.8971 110.27 17.9753 110.27 17.1836ZM119.254 16.9648C119.254 17.4232 119.15 17.8346 118.941 18.1992C118.681 18.6159 118.337 18.8242 117.91 18.8242C117.348 18.8242 117.066 18.5378 117.066 17.9648C117.066 17.1628 117.431 16.5482 118.16 16.1211C118.077 16.1523 117.962 16.2044 117.816 16.2773C117.389 16.5065 116.525 17.3138 115.223 18.6992C114.014 19.9805 113.191 20.9284 112.754 21.543C112.556 21.8138 112.457 22.043 112.457 22.2305C112.457 22.5534 112.65 22.7148 113.035 22.7148C113.962 22.7148 115.155 22.1784 116.613 21.1055C118.072 20.0221 118.796 19.4805 118.785 19.4805C118.827 19.4805 118.874 19.4961 118.926 19.5273L118.973 19.6523C118.962 19.6523 118.54 20.0169 117.707 20.7461C115.874 22.3398 114.368 23.1367 113.191 23.1367C111.952 23.1367 111.332 22.6628 111.332 21.7148C111.332 20.5065 112.301 19.1055 114.238 17.5117C113.79 17.7513 113.238 18.1367 112.582 18.668C111.697 19.3659 111.165 19.7148 110.988 19.7148C110.874 19.7148 110.816 19.6576 110.816 19.543C110.816 19.4909 110.853 19.444 110.926 19.4023C112.332 18.3503 113.332 17.6471 113.926 17.293C114.926 16.6992 116.072 16.2096 117.363 15.8242C117.572 15.7617 117.754 15.7305 117.91 15.7305C118.275 15.7305 118.587 15.8451 118.848 16.0742C119.118 16.3034 119.254 16.6003 119.254 16.9648ZM133.723 19.6055C133.723 19.6576 133.697 19.7044 133.645 19.7461L130.582 22.3555C130.03 22.8346 129.499 23.0742 128.988 23.0742C128.217 23.0742 127.832 22.6419 127.832 21.7773C127.832 21.4232 127.978 21.0951 128.27 20.793L131.551 17.3086C131.728 17.1211 131.816 16.944 131.816 16.7773C131.816 16.6419 131.717 16.5742 131.52 16.5742C131.113 16.5742 129.879 17.5273 127.816 19.4336C127.4 19.8086 126.358 20.9232 124.691 22.7773C124.546 22.944 124.395 23.0273 124.238 23.0273L122.723 23.0742C122.577 23.0742 122.504 23.0169 122.504 22.9023C122.504 22.7461 122.618 22.543 122.848 22.293L127.348 17.3711C127.525 17.1836 127.613 17.0065 127.613 16.8398C127.613 16.7044 127.556 16.6367 127.441 16.6367C127.327 16.6367 127.171 16.668 126.973 16.7305C126.889 16.7617 125.785 17.6367 123.66 19.3555C123.16 19.7617 122.603 20.3138 121.988 21.0117C121.478 21.5951 120.967 22.1836 120.457 22.7773C120.322 22.9336 120.165 23.0169 119.988 23.0273L118.488 23.0742C118.363 23.0742 118.301 23.0273 118.301 22.9336C118.301 22.819 118.348 22.6992 118.441 22.5742C118.535 22.4492 118.592 22.3555 118.613 22.293L123.098 17.3711C123.275 17.1732 123.363 16.9961 123.363 16.8398C123.363 16.694 123.275 16.6211 123.098 16.6211C122.764 16.6211 122.004 17.1471 120.816 18.1992C119.639 19.2513 119.004 19.7773 118.91 19.7773C118.806 19.7357 118.754 19.6836 118.754 19.6211C118.754 19.569 118.78 19.5221 118.832 19.4805L121.957 16.8086C122.53 16.3086 123.061 16.0586 123.551 16.0586C124.311 16.0586 124.691 16.4961 124.691 17.3711C124.691 17.7669 124.514 18.1419 124.16 18.4961L126.207 16.8086C126.801 16.3086 127.327 16.0586 127.785 16.0586C128.556 16.0586 128.941 16.4961 128.941 17.3711C128.941 17.6628 128.832 17.9544 128.613 18.2461L130.395 16.7617C130.988 16.2617 131.52 16.0117 131.988 16.0117C132.717 16.0117 133.082 16.4961 133.082 17.4648C133.082 17.7878 132.967 18.069 132.738 18.3086L129.41 21.793C129.243 21.9805 129.16 22.1628 129.16 22.3398C129.16 22.444 129.228 22.4961 129.363 22.4961C129.728 22.4961 130.259 22.1992 130.957 21.6055L133.426 19.4805C133.457 19.4492 133.493 19.4336 133.535 19.4336C133.66 19.4336 133.723 19.4909 133.723 19.6055ZM150.441 5.90234C150.441 6.01693 150.426 6.1263 150.395 6.23047C150.02 7.48047 149.129 8.69922 147.723 9.88672C147.118 10.4076 145.853 11.3034 143.926 12.5742C143.551 12.7826 143.035 13.1315 142.379 13.6211C142.16 13.8919 141.842 14.293 141.426 14.8242C140.426 16.043 138.936 17.8815 136.957 20.3398C136.707 20.6419 136.353 21.1003 135.895 21.7148C135.79 21.8711 135.738 22.0378 135.738 22.2148C135.738 22.5378 135.915 22.6992 136.27 22.6992C136.863 22.6992 137.874 22.0013 139.301 20.6055C139.165 20.4701 139.098 20.3034 139.098 20.1055C139.098 19.5846 139.488 18.8086 140.27 17.7773C141.061 16.7357 141.702 16.2148 142.191 16.2148C142.577 16.2148 142.77 16.3763 142.77 16.6992C142.77 17.0534 142.53 17.6055 142.051 18.3555C141.665 18.9596 141.285 19.4648 140.91 19.8711C140.983 19.9023 141.061 19.918 141.145 19.918C141.259 19.918 141.421 19.8398 141.629 19.6836C141.837 19.5273 141.973 19.4492 142.035 19.4492C142.087 19.4492 142.134 19.4648 142.176 19.4961L142.223 19.6055C142.223 19.6471 142.202 19.6888 142.16 19.7305C141.702 20.1263 141.431 20.3555 141.348 20.418C141.087 20.5951 140.749 20.7201 140.332 20.793C140.04 20.8555 139.822 20.8659 139.676 20.8242C138.53 22.1576 137.54 22.9284 136.707 23.1367C136.572 23.168 136.384 23.1836 136.145 23.1836C135.697 23.1836 135.311 23.0534 134.988 22.793C134.665 22.5326 134.504 22.1888 134.504 21.7617C134.504 21.1784 134.973 20.3034 135.91 19.1367C136.598 18.3242 137.285 17.5117 137.973 16.6992V16.6836L134.941 18.9492C134.452 19.3138 134.004 19.5898 133.598 19.7773C133.493 19.7148 133.441 19.6419 133.441 19.5586C133.441 19.4961 134.254 18.8971 135.879 17.7617C136.796 17.1055 137.717 16.4544 138.645 15.8086C139.405 14.8815 140.311 13.7878 141.363 12.5273C142.311 11.4128 143.233 10.319 144.129 9.24609C145.025 8.16276 145.733 7.36589 146.254 6.85547C147.191 5.91797 148.04 5.30339 148.801 5.01172C149.228 4.84505 149.54 4.76172 149.738 4.76172C150.207 4.76172 150.441 5.14193 150.441 5.90234ZM150.066 5.58984C150.066 5.37109 149.957 5.26172 149.738 5.26172C148.676 5.26172 146.957 7.02734 144.582 10.5586C144.113 11.2357 143.504 12.043 142.754 12.9805C144.493 11.8034 145.66 10.9805 146.254 10.5117C147.514 9.51172 148.504 8.48568 149.223 7.43359C149.785 6.62109 150.066 6.00651 150.066 5.58984ZM150.895 17.1836C150.895 18.5482 148.91 19.694 144.941 20.6211C144.254 21.3294 143.91 21.8919 143.91 22.3086C143.91 22.6836 144.087 22.8711 144.441 22.8711C145.202 22.8711 146.223 22.4076 147.504 21.4805C149.243 20.2201 150.197 19.5482 150.363 19.4648C150.478 19.4961 150.535 19.5586 150.535 19.6523C150.535 19.7148 150.087 20.0534 149.191 20.668C148.15 21.3867 147.629 21.7461 147.629 21.7461C146.441 22.6732 145.379 23.1367 144.441 23.1367C143.421 23.1367 142.91 22.6315 142.91 21.6211C142.91 20.2357 143.957 18.7982 146.051 17.3086C145.197 17.8503 143.921 18.6628 142.223 19.7461L142.113 19.793C142.02 19.7826 141.973 19.7253 141.973 19.6211C141.973 19.569 141.988 19.5169 142.02 19.4648C143.717 18.2253 145.348 17.293 146.91 16.668C147.098 16.6055 147.374 16.5065 147.738 16.3711C148.655 15.9961 149.327 15.8086 149.754 15.8086C150.514 15.8086 150.895 16.2669 150.895 17.1836ZM150.16 16.6367C150.16 16.293 150.009 16.1211 149.707 16.1211C149.165 16.1211 147.702 17.4596 145.316 20.1367C145.577 20.1367 145.957 20.0169 146.457 19.7773L147.488 19.2617C147.988 19.0221 148.525 18.6523 149.098 18.1523C149.806 17.5273 150.16 17.0221 150.16 16.6367ZM161.598 16.3086C161.598 16.4753 161.483 16.6784 161.254 16.918L156.738 21.8711C156.551 22.0898 156.457 22.2721 156.457 22.418C156.457 22.543 156.535 22.6055 156.691 22.6055C156.754 22.6055 156.9 22.5742 157.129 22.5117C157.264 22.4805 158.311 21.6263 160.27 19.9492C160.447 19.7826 160.655 19.6003 160.895 19.4023C161.02 19.4336 161.082 19.4961 161.082 19.5898C161.072 19.6107 161.056 19.6315 161.035 19.6523C160.858 19.8503 160.504 20.1836 159.973 20.6523C159.504 21.0482 158.811 21.6367 157.895 22.418C157.332 22.8971 156.764 23.1367 156.191 23.1367C155.879 23.1367 155.624 23.0065 155.426 22.7461C155.238 22.4857 155.145 22.194 155.145 21.8711C155.145 21.5482 155.493 20.9753 156.191 20.1523C155.973 20.0794 155.639 20.043 155.191 20.043C154.702 20.043 154.259 20.1055 153.863 20.2305L151.707 22.7305C151.572 22.8867 151.421 22.9648 151.254 22.9648L149.738 23.043C149.582 23.0534 149.504 22.9961 149.504 22.8711C149.504 22.7253 149.629 22.5169 149.879 22.2461L154.363 17.3086C154.54 17.1107 154.629 16.9336 154.629 16.7773C154.629 16.7148 154.608 16.6576 154.566 16.6055C154.493 16.5742 154.426 16.5586 154.363 16.5586C153.999 16.5586 153.264 17.0742 152.16 18.1055C151.014 19.1471 150.4 19.6784 150.316 19.6992C150.202 19.6888 150.145 19.6263 150.145 19.5117C150.145 19.4492 151.171 18.5273 153.223 16.7461C153.785 16.2565 154.342 16.0117 154.895 16.0117C155.207 16.0117 155.467 16.1523 155.676 16.4336C155.853 16.694 155.941 16.9857 155.941 17.3086C155.941 17.6523 155.811 17.9753 155.551 18.2773L154.457 19.543H154.629C155.618 19.543 156.368 19.4805 156.879 19.3555L159.379 16.4492C159.514 16.293 159.676 16.2096 159.863 16.1992L161.379 16.1211C161.525 16.1211 161.598 16.1836 161.598 16.3086ZM172.129 16.3086C172.129 16.4753 172.014 16.6784 171.785 16.918L167.27 21.8711C167.082 22.0898 166.988 22.2721 166.988 22.418C166.988 22.543 167.066 22.6055 167.223 22.6055C167.285 22.6055 167.431 22.5742 167.66 22.5117C167.796 22.4805 168.842 21.6263 170.801 19.9492C170.978 19.7826 171.186 19.6003 171.426 19.4023C171.551 19.4336 171.613 19.4961 171.613 19.5898C171.603 19.6107 171.587 19.6315 171.566 19.6523C171.389 19.8503 171.035 20.1836 170.504 20.6523C170.035 21.0482 169.342 21.6367 168.426 22.418C167.863 22.8971 167.296 23.1367 166.723 23.1367C166.41 23.1367 166.155 23.0065 165.957 22.7461C165.77 22.4857 165.676 22.194 165.676 21.8711C165.676 21.5482 166.025 20.9753 166.723 20.1523C166.504 20.0794 166.171 20.043 165.723 20.043C165.233 20.043 164.79 20.1055 164.395 20.2305L162.238 22.7305C162.103 22.8867 161.952 22.9648 161.785 22.9648L160.27 23.043C160.113 23.0534 160.035 22.9961 160.035 22.8711C160.035 22.7253 160.16 22.5169 160.41 22.2461L164.895 17.3086C165.072 17.1107 165.16 16.9336 165.16 16.7773C165.16 16.7148 165.139 16.6576 165.098 16.6055C165.025 16.5742 164.957 16.5586 164.895 16.5586C164.53 16.5586 163.796 17.0742 162.691 18.1055C161.546 19.1471 160.931 19.6784 160.848 19.6992C160.733 19.6888 160.676 19.6263 160.676 19.5117C160.676 19.4492 161.702 18.5273 163.754 16.7461C164.316 16.2565 164.874 16.0117 165.426 16.0117C165.738 16.0117 165.999 16.1523 166.207 16.4336C166.384 16.694 166.473 16.9857 166.473 17.3086C166.473 17.6523 166.342 17.9753 166.082 18.2773L164.988 19.543H165.16C166.15 19.543 166.9 19.4805 167.41 19.3555L169.91 16.4492C170.046 16.293 170.207 16.2096 170.395 16.1992L171.91 16.1211C172.056 16.1211 172.129 16.1836 172.129 16.3086ZM181.957 16.1992C181.957 16.3971 181.853 16.6055 181.645 16.8242L177.145 21.793C176.957 21.9909 176.863 22.168 176.863 22.3242C176.863 22.4492 176.936 22.5117 177.082 22.5117C177.405 22.5117 177.936 22.2096 178.676 21.6055L181.332 19.4023C181.342 19.3919 181.384 19.3763 181.457 19.3555C181.572 19.3763 181.629 19.4388 181.629 19.543C181.629 19.5742 181.603 19.6107 181.551 19.6523L178.316 22.3242C177.733 22.8034 177.181 23.043 176.66 23.043C175.921 23.043 175.551 22.6159 175.551 21.7617C175.551 21.4492 175.926 20.8451 176.676 19.9492C175.842 20.6888 174.639 21.6471 173.066 22.8242C172.837 22.9701 172.509 23.043 172.082 23.043C171.415 23.043 171.082 22.6263 171.082 21.793C171.082 21.3971 171.202 21.0586 171.441 20.7773L174.207 17.5898C172.322 19.0273 171.368 19.7461 171.348 19.7461C171.233 19.7461 171.176 19.6836 171.176 19.5586C171.176 19.5169 171.202 19.4805 171.254 19.4492L175.426 16.2148C175.561 16.1107 176.134 16.0586 177.145 16.0586C177.342 16.0586 177.441 16.1055 177.441 16.1992C177.441 16.3971 177.342 16.6055 177.145 16.8242L173.176 21.168C173.04 21.3138 172.973 21.4596 172.973 21.6055C172.973 21.7826 173.103 21.8711 173.363 21.8711C173.634 21.8711 173.9 21.7826 174.16 21.6055C174.337 21.4909 175.02 20.9388 176.207 19.9492C177.395 18.9596 178.035 18.418 178.129 18.3242L179.801 16.3555C179.936 16.1888 180.087 16.1055 180.254 16.1055L181.785 16.0586C181.9 16.0586 181.957 16.1055 181.957 16.1992ZM197.395 6.24609C197.395 6.36068 197.379 6.47526 197.348 6.58984C197.046 7.71484 196.306 8.80339 195.129 9.85547C194.754 10.1888 193.676 10.9857 191.895 12.2461C191.54 12.5065 191.207 12.7357 190.895 12.9336C190.405 13.2461 189.884 13.5951 189.332 13.9805L187.676 16.0742C188.947 15.2201 189.988 14.793 190.801 14.793C191.592 14.793 191.988 15.1784 191.988 15.9492C191.988 16.1367 191.952 16.3138 191.879 16.4805C191.577 17.1159 191.066 17.569 190.348 17.8398C190.129 17.9232 189.447 18.0742 188.301 18.293C188.749 18.6471 188.973 18.9596 188.973 19.2305C188.973 19.9805 188.764 20.5378 188.348 20.9023C187.723 21.4648 187.342 21.8763 187.207 22.1367C187.145 22.2409 187.113 22.319 187.113 22.3711C187.113 22.4961 187.197 22.5586 187.363 22.5586C187.686 22.5586 188.457 22.0378 189.676 20.9961C190.905 19.944 191.561 19.418 191.645 19.418C191.738 19.418 191.785 19.4753 191.785 19.5898C191.785 19.6315 191.759 19.6732 191.707 19.7148C191.384 20.0169 190.874 20.4648 190.176 21.0586C189.686 21.5065 188.915 22.1107 187.863 22.8711C187.592 23.0273 187.306 23.1055 187.004 23.1055C186.202 23.1055 185.801 22.6732 185.801 21.8086C185.801 21.3919 186.124 20.8607 186.77 20.2148C187.426 19.5586 187.754 19.1211 187.754 18.9023C187.754 18.6523 187.618 18.5273 187.348 18.5273C186.941 18.5273 186.613 18.6055 186.363 18.7617C186.363 18.8034 186.368 18.8711 186.379 18.9648C186.4 19.0482 186.41 19.1159 186.41 19.168C186.41 19.4388 186.249 19.5742 185.926 19.5742C185.561 19.5742 185.353 19.3815 185.301 18.9961C184.738 19.6732 183.921 20.6992 182.848 22.0742C182.723 22.293 182.52 22.5794 182.238 22.9336C182.134 23.0378 181.697 23.0898 180.926 23.0898C180.447 23.0898 180.207 22.944 180.207 22.6523C180.207 22.5378 180.264 22.4128 180.379 22.2773C180.941 21.694 181.764 20.793 182.848 19.5742C183.296 18.9909 183.999 18.1419 184.957 17.0273C182.665 18.8398 181.509 19.7461 181.488 19.7461C181.374 19.7461 181.316 19.6836 181.316 19.5586C181.316 19.5169 181.337 19.4753 181.379 19.4336C182.337 18.7253 183.754 17.6367 185.629 16.168C185.806 15.9388 186.061 15.6159 186.395 15.1992C186.436 15.1576 187.999 13.2982 191.082 9.62109C191.978 8.54818 192.691 7.7513 193.223 7.23047C194.16 6.30339 195.009 5.6888 195.77 5.38672C196.186 5.20964 196.499 5.12109 196.707 5.12109C197.165 5.12109 197.395 5.49609 197.395 6.24609ZM197.035 5.91797C197.035 5.73047 196.931 5.63672 196.723 5.63672C196.285 5.63672 195.655 6.01693 194.832 6.77734C194.665 6.93359 194.16 7.53776 193.316 8.58984C192.535 9.65234 191.337 11.2305 189.723 13.3242C193.181 11.0117 195.348 9.16797 196.223 7.79297C196.337 7.61589 196.431 7.47526 196.504 7.37109C196.858 6.88151 197.035 6.39714 197.035 5.91797ZM190.348 15.5742C190.348 15.418 190.223 15.3398 189.973 15.3398C189.806 15.3398 189.29 15.6419 188.426 16.2461C187.613 16.7982 186.796 17.5482 185.973 18.4961C186.296 18.2878 186.613 18.1628 186.926 18.1211C187.52 18.0482 187.842 18.0065 187.895 17.9961C188.332 17.8919 188.785 17.6315 189.254 17.2148C189.733 16.7982 190.072 16.3763 190.27 15.9492C190.322 15.8555 190.348 15.7305 190.348 15.5742ZM202.238 16.1992C202.238 16.3971 202.134 16.6055 201.926 16.8242L197.426 21.793C197.238 21.9909 197.145 22.168 197.145 22.3242C197.145 22.4492 197.217 22.5117 197.363 22.5117C197.686 22.5117 198.217 22.2096 198.957 21.6055L201.613 19.4023C201.624 19.3919 201.665 19.3763 201.738 19.3555C201.853 19.3763 201.91 19.4388 201.91 19.543C201.91 19.5742 201.884 19.6107 201.832 19.6523L198.598 22.3242C198.014 22.8034 197.462 23.043 196.941 23.043C196.202 23.043 195.832 22.6159 195.832 21.7617C195.832 21.4492 196.207 20.8451 196.957 19.9492C196.124 20.6888 194.921 21.6471 193.348 22.8242C193.118 22.9701 192.79 23.043 192.363 23.043C191.697 23.043 191.363 22.6263 191.363 21.793C191.363 21.3971 191.483 21.0586 191.723 20.7773L194.488 17.5898C192.603 19.0273 191.65 19.7461 191.629 19.7461C191.514 19.7461 191.457 19.6836 191.457 19.5586C191.457 19.5169 191.483 19.4805 191.535 19.4492L195.707 16.2148C195.842 16.1107 196.415 16.0586 197.426 16.0586C197.624 16.0586 197.723 16.1055 197.723 16.1992C197.723 16.3971 197.624 16.6055 197.426 16.8242L193.457 21.168C193.322 21.3138 193.254 21.4596 193.254 21.6055C193.254 21.7826 193.384 21.8711 193.645 21.8711C193.915 21.8711 194.181 21.7826 194.441 21.6055C194.618 21.4909 195.301 20.9388 196.488 19.9492C197.676 18.9596 198.316 18.418 198.41 18.3242L200.082 16.3555C200.217 16.1888 200.368 16.1055 200.535 16.1055L202.066 16.0586C202.181 16.0586 202.238 16.1055 202.238 16.1992ZM222.301 16.1992C222.301 16.3971 222.197 16.6055 221.988 16.8242L217.488 21.793C217.301 21.9909 217.207 22.168 217.207 22.3242C217.207 22.4492 217.28 22.5117 217.426 22.5117C217.749 22.5117 218.28 22.2096 219.02 21.6055L221.676 19.4023C221.686 19.3919 221.728 19.3763 221.801 19.3555C221.915 19.3763 221.973 19.4388 221.973 19.543C221.973 19.5742 221.947 19.6107 221.895 19.6523L218.66 22.3242C218.077 22.8034 217.525 23.043 217.004 23.043C216.264 23.043 215.895 22.6159 215.895 21.7617C215.895 21.4492 216.27 20.8451 217.02 19.9492C216.186 20.6888 214.983 21.6471 213.41 22.8242C213.181 22.9701 212.853 23.043 212.426 23.043C211.759 23.043 211.426 22.6263 211.426 21.793C211.426 21.3971 211.546 21.0586 211.785 20.7773L214.551 17.5898C212.665 19.0273 211.712 19.7461 211.691 19.7461C211.577 19.7461 211.52 19.6836 211.52 19.5586C211.52 19.5169 211.546 19.4805 211.598 19.4492L215.77 16.2148C215.905 16.1107 216.478 16.0586 217.488 16.0586C217.686 16.0586 217.785 16.1055 217.785 16.1992C217.785 16.3971 217.686 16.6055 217.488 16.8242L213.52 21.168C213.384 21.3138 213.316 21.4596 213.316 21.6055C213.316 21.7826 213.447 21.8711 213.707 21.8711C213.978 21.8711 214.243 21.7826 214.504 21.6055C214.681 21.4909 215.363 20.9388 216.551 19.9492C217.738 18.9596 218.379 18.418 218.473 18.3242L220.145 16.3555C220.28 16.1888 220.431 16.1055 220.598 16.1055L222.129 16.0586C222.243 16.0586 222.301 16.1055 222.301 16.1992ZM247.238 8.71484C247.238 10.9753 245.478 13.9805 241.957 17.7305C241.113 18.5326 239.858 19.7461 238.191 21.3711C238.712 21.0586 239.155 20.7773 239.52 20.5273C239.759 20.2878 240.145 19.9753 240.676 19.5898C240.707 19.5273 240.754 19.4648 240.816 19.4023C240.931 19.4232 240.988 19.4857 240.988 19.5898C240.988 19.6211 240.962 19.6576 240.91 19.6992C237.921 22.043 235.671 23.2148 234.16 23.2148C232.983 23.2148 232.395 22.7148 232.395 21.7148C232.395 20.5169 233.363 19.1419 235.301 17.5898C234.801 17.8711 234.223 18.2461 233.566 18.7148C232.993 19.1211 232.431 19.4753 231.879 19.7773C231.827 19.7773 231.77 19.7148 231.707 19.5898C231.707 19.5482 231.738 19.5065 231.801 19.4648C232.04 19.2982 232.926 18.7305 234.457 17.7617C234.978 17.4284 235.884 16.9596 237.176 16.3555C238.03 15.9596 238.712 15.7617 239.223 15.7617C240.171 15.7617 240.645 16.1628 240.645 16.9648C240.645 17.6107 240.41 18.3451 239.941 19.168C241.077 18.1471 241.921 17.3346 242.473 16.7305C244.598 14.3659 245.973 12.2565 246.598 10.4023C246.733 9.98568 246.801 9.42318 246.801 8.71484C246.801 7.38151 246.171 6.71484 244.91 6.71484C243.9 6.71484 242.832 7.41797 241.707 8.82422C240.624 10.1784 240.082 11.3763 240.082 12.418C240.082 13.0326 240.426 13.3398 241.113 13.3398C241.613 13.3398 242.145 13.0482 242.707 12.4648C243.186 11.9648 243.546 11.4388 243.785 10.8867C243.962 10.4596 244.15 9.97005 244.348 9.41797C244.452 9.14714 244.504 8.92839 244.504 8.76172C244.504 8.52214 244.415 8.33984 244.238 8.21484C244.061 8.07943 243.973 8.00651 243.973 7.99609C243.973 7.87109 244.02 7.79818 244.113 7.77734C244.613 7.85026 244.863 8.24089 244.863 8.94922C244.863 9.98047 244.493 10.9961 243.754 11.9961C242.962 13.0898 242.066 13.6367 241.066 13.6367C239.775 13.6367 239.129 12.9336 239.129 11.5273C239.129 10.4961 239.514 9.47526 240.285 8.46484C241.004 7.51693 241.863 6.81901 242.863 6.37109C243.322 6.17318 243.931 6.07422 244.691 6.07422C245.046 6.07422 245.452 6.16797 245.91 6.35547C246.796 6.70964 247.238 7.49609 247.238 8.71484ZM240.176 17.1836C240.176 16.5065 239.957 16.168 239.52 16.168C238.842 16.168 237.577 17.2669 235.723 19.4648C235.264 19.9336 234.629 20.6628 233.816 21.6523C233.66 21.8815 233.582 22.1107 233.582 22.3398C233.582 22.7461 233.842 22.9492 234.363 22.9492C234.78 22.9492 235.431 22.6576 236.316 22.0742C237.202 21.4909 238.02 20.7826 238.77 19.9492C239.707 18.8971 240.176 17.9753 240.176 17.1836ZM250.926 19.6055C250.926 19.6367 250.9 19.6732 250.848 19.7148L247.816 22.3398C247.243 22.8294 246.723 23.0742 246.254 23.0742C245.462 23.0742 245.066 22.6315 245.066 21.7461C245.066 21.3919 245.207 21.0638 245.488 20.7617L248.785 17.2773C248.962 17.0898 249.051 16.918 249.051 16.7617C249.051 16.6159 248.952 16.543 248.754 16.543C248.348 16.543 247.139 17.4544 245.129 19.2773C244.504 19.8398 243.816 20.6003 243.066 21.5586C242.431 22.3711 241.801 23.1836 241.176 23.9961L233.316 33.7305C233.191 33.8867 233.04 33.9701 232.863 33.9805L231.348 34.043C231.223 34.0534 231.16 34.0013 231.16 33.8867C231.16 33.6992 231.264 33.4857 231.473 33.2461L245.207 16.8555C245.488 16.5221 245.853 16.1315 246.301 15.6836C242.665 18.444 240.837 19.8242 240.816 19.8242C240.702 19.8242 240.645 19.7669 240.645 19.6523C240.645 19.5898 240.665 19.543 240.707 19.5117L246.676 14.9648C247.488 14.3398 248.316 13.6523 249.16 12.9023C249.4 12.694 249.587 12.5898 249.723 12.5898C249.816 12.5898 249.863 12.6576 249.863 12.793C249.863 12.9492 249.493 13.4909 248.754 14.418L245.551 18.4648L247.629 16.7305C248.223 16.2409 248.749 15.9961 249.207 15.9961C249.926 15.9961 250.285 16.4909 250.285 17.4805C250.285 17.7826 250.176 18.0534 249.957 18.293L246.645 21.7773C246.467 21.9648 246.379 22.1367 246.379 22.293C246.379 22.4492 246.467 22.5273 246.645 22.5273C246.957 22.5273 247.676 22.0273 248.801 21.0273C249.978 19.9961 250.624 19.4648 250.738 19.4336C250.863 19.444 250.926 19.5013 250.926 19.6055ZM262.426 16.168C262.426 16.3034 262.322 16.4544 262.113 16.6211C261.811 16.8711 261.639 17.0169 261.598 17.0586C260.629 18.194 259.181 19.8919 257.254 22.1523C259.639 20.3398 260.806 19.4336 260.754 19.4336C260.879 19.4336 260.941 19.4961 260.941 19.6211C260.941 19.6732 260.921 19.7201 260.879 19.7617L256.27 23.3555C256.27 23.3555 256.254 23.3815 256.223 23.4336C255.754 24.0586 254.353 25.8138 252.02 28.6992C250.676 30.3659 249.228 31.793 247.676 32.9805C246.676 33.7513 245.962 34.1367 245.535 34.1367C244.941 34.1367 244.645 33.6836 244.645 32.7773C244.645 32.5065 244.723 32.2096 244.879 31.8867C245.358 30.8867 246.145 29.918 247.238 28.9805C247.467 28.7826 248.467 28.0273 250.238 26.7148C251.342 25.8919 252.473 25.1159 253.629 24.3867C253.785 24.0951 254.832 22.6992 256.77 20.1992L254.082 22.3555C253.467 22.8451 252.936 23.0898 252.488 23.0898C251.728 23.0898 251.348 22.6159 251.348 21.668C251.348 21.3763 251.483 21.0898 251.754 20.8086L255.051 17.3242C255.217 17.1471 255.301 16.9648 255.301 16.7773C255.301 16.6523 255.217 16.5898 255.051 16.5898C254.676 16.5898 253.895 17.1159 252.707 18.168C251.52 19.2201 250.889 19.7461 250.816 19.7461C250.723 19.7461 250.676 19.6784 250.676 19.543C250.676 19.4805 251.171 19.0326 252.16 18.1992C252.733 17.7305 253.311 17.2565 253.895 16.7773C254.447 16.2773 254.993 16.0273 255.535 16.0273C255.858 16.0273 256.118 16.1888 256.316 16.5117C256.493 16.793 256.582 17.1055 256.582 17.4492C256.582 17.7721 256.462 18.0586 256.223 18.3086L252.91 21.793C252.733 21.9701 252.645 22.1576 252.645 22.3555C252.645 22.4805 252.717 22.543 252.863 22.543C253.124 22.543 253.65 22.2305 254.441 21.6055L257.691 19.0273C257.702 19.0273 258.014 18.6263 258.629 17.8242C259.535 16.6471 260.176 15.9857 260.551 15.8398C260.655 15.8086 260.842 15.793 261.113 15.793C261.988 15.793 262.426 15.918 262.426 16.168ZM253.27 25.043C250.009 27.2305 247.65 29.2669 246.191 31.1523C245.514 32.0169 245.176 32.6836 245.176 33.1523C245.176 33.5482 245.311 33.7461 245.582 33.7461C246.197 33.7461 247.056 33.0482 248.16 31.6523C249.327 30.2044 251.03 28.0013 253.27 25.043ZM269.02 19.6055C269.02 19.6471 268.993 19.6888 268.941 19.7305C268.264 20.2721 267.322 20.9701 266.113 21.8242C266.03 21.8971 265.905 22.0065 265.738 22.1523C265.488 22.3398 265.207 22.5013 264.895 22.6367H264.863C264.113 22.9701 263.348 23.1367 262.566 23.1367C261.285 23.1367 260.645 22.6159 260.645 21.5742C260.645 20.8555 260.988 20.4961 261.676 20.4961C262.27 20.4961 262.566 20.7878 262.566 21.3711C262.566 21.9336 262.27 22.2148 261.676 22.2148C261.436 22.2148 261.228 22.1367 261.051 21.9805C261.082 22.5117 261.566 22.7773 262.504 22.7773C263.025 22.7773 263.65 22.3763 264.379 21.5742C265.108 20.7617 265.473 20.0951 265.473 19.5742C265.473 19.1784 265.285 18.9805 264.91 18.9805C264.785 18.9805 264.598 18.9909 264.348 19.0117C264.108 19.0221 263.926 19.0273 263.801 19.0273C263.697 19.0169 263.645 18.9909 263.645 18.9492C263.645 18.8451 263.702 18.7878 263.816 18.7773C263.941 18.7565 264.129 18.7305 264.379 18.6992C265.087 18.6055 265.712 18.3711 266.254 17.9961C266.993 17.4753 267.363 16.9596 267.363 16.4492C267.363 16.0951 267.165 15.918 266.77 15.918C266.29 15.918 265.676 16.2096 264.926 16.793C262.353 18.7617 260.967 19.7461 260.77 19.7461C260.676 19.7461 260.629 19.694 260.629 19.5898C260.629 19.5065 260.655 19.4492 260.707 19.418L264.738 16.5117C265.592 15.8971 266.374 15.5898 267.082 15.5898C268.186 15.5898 268.738 16.0117 268.738 16.8555C268.738 17.8242 267.915 18.4753 266.27 18.8086C266.113 18.819 265.868 18.8503 265.535 18.9023C265.764 18.9544 265.993 19.0117 266.223 19.0742C266.639 19.2617 266.848 19.668 266.848 20.293C266.848 20.3763 266.832 20.4909 266.801 20.6367C266.77 20.7826 266.759 20.9023 266.77 20.9961L266.738 21.043C267.384 20.5221 268.087 19.9805 268.848 19.418C268.962 19.4701 269.02 19.5326 269.02 19.6055ZM275.941 19.5898C275.941 19.6315 275.926 19.6784 275.895 19.7305C275.478 20.418 274.785 20.7617 273.816 20.7617C272.525 22.3346 271.29 23.1211 270.113 23.1211C269.301 23.1211 268.895 22.6784 268.895 21.793C268.895 21.418 269.025 21.0846 269.285 20.793L272.035 17.6055C270.066 19.0846 269.051 19.8242 268.988 19.8242C268.874 19.8242 268.816 19.7669 268.816 19.6523C268.816 19.6003 268.848 19.5534 268.91 19.5117L273.27 16.2305C273.415 16.1159 274.02 16.0586 275.082 16.0586C275.217 16.0586 275.285 16.1159 275.285 16.2305C275.285 16.4284 275.181 16.6367 274.973 16.8555L270.379 21.7305C270.16 21.9701 270.051 22.1576 270.051 22.293C270.051 22.5221 270.238 22.6367 270.613 22.6367C271.27 22.6367 272.155 21.9805 273.27 20.668C273.072 20.5117 272.973 20.3138 272.973 20.0742C272.973 19.2201 273.327 18.793 274.035 18.793C274.441 18.793 274.645 19.0273 274.645 19.4961C274.645 19.5794 274.53 19.8503 274.301 20.3086C274.801 20.2253 275.202 20.0221 275.504 19.6992C275.577 19.6055 275.655 19.5065 275.738 19.4023C275.874 19.4128 275.941 19.4753 275.941 19.5898ZM286.52 16.1992C286.52 16.3867 286.415 16.5951 286.207 16.8242L281.707 21.7617C281.52 21.9596 281.426 22.1419 281.426 22.3086C281.426 22.444 281.504 22.5117 281.66 22.5117C282.056 22.5117 282.837 21.9909 284.004 20.9492C285.171 19.9076 285.801 19.3815 285.895 19.3711C286.009 19.3815 286.066 19.444 286.066 19.5586C286.066 19.6003 286.04 19.6419 285.988 19.6836L282.848 22.3086C282.254 22.819 281.728 23.0742 281.27 23.0742C280.926 23.0742 280.645 22.9336 280.426 22.6523C280.217 22.4023 280.113 22.1003 280.113 21.7461C280.113 21.4128 280.441 20.8659 281.098 20.1055C280.993 20.1367 280.691 20.1523 280.191 20.1523C279.858 20.1523 279.504 20.2982 279.129 20.5898C278.754 20.8711 278.483 21.1732 278.316 21.4961C278.087 21.9023 277.754 22.2773 277.316 22.6211C276.827 22.9961 276.374 23.1836 275.957 23.1836C275.145 23.1836 274.738 22.8398 274.738 22.1523C274.738 21.4128 275.025 21.043 275.598 21.043C276.077 21.043 276.316 21.2669 276.316 21.7148C276.316 22.1732 276.077 22.4023 275.598 22.4023C275.421 22.4023 275.27 22.3346 275.145 22.1992V22.2617C275.145 22.6888 275.426 22.9023 275.988 22.9023C276.322 22.9023 276.79 22.5065 277.395 21.7148C278.051 20.8398 278.764 20.2982 279.535 20.0898C279.535 20.0378 279.405 19.8815 279.145 19.6211C278.884 19.3503 278.754 19.0638 278.754 18.7617C278.754 18.0221 279.03 17.3555 279.582 16.7617C280.145 16.168 280.796 15.8711 281.535 15.8711C282.775 15.8711 283.426 16.3659 283.488 17.3555C284.145 16.6055 284.53 16.2044 284.645 16.1523C284.77 16.0898 285.337 16.0586 286.348 16.0586C286.462 16.0586 286.52 16.1055 286.52 16.1992ZM283.066 17.293C283.066 16.7617 282.863 16.4961 282.457 16.4961C282.092 16.4961 281.587 16.8659 280.941 17.6055C280.296 18.3346 279.973 18.9076 279.973 19.3242C279.973 19.6784 280.16 19.8555 280.535 19.8555C280.754 19.8555 281.134 19.7253 281.676 19.4648L282.988 17.9336C283.04 17.7357 283.066 17.5221 283.066 17.293ZM290.16 19.7148C290.4 19.3919 290.702 18.9596 291.066 18.418C291.441 17.8659 291.858 17.2305 292.316 16.5117C292.775 15.793 293.27 15.0065 293.801 14.1523C294.342 13.2878 294.9 12.3711 295.473 11.4023C295.712 10.9961 295.931 10.668 296.129 10.418C296.327 10.168 296.504 9.97005 296.66 9.82422C296.827 9.67839 296.978 9.57943 297.113 9.52734C297.249 9.47526 297.374 9.44922 297.488 9.44922C297.749 9.44922 297.926 9.52214 298.02 9.66797C298.113 9.8138 298.16 9.94401 298.16 10.0586C298.16 10.2461 298.103 10.4648 297.988 10.7148C297.884 10.9544 297.707 11.2461 297.457 11.5898C297.217 11.9232 296.905 12.3242 296.52 12.793C296.134 13.2513 295.66 13.7982 295.098 14.4336C294.535 15.069 293.983 15.7096 293.441 16.3555C292.91 17.0013 292.426 17.5898 291.988 18.1211C291.488 18.7357 291.009 19.3294 290.551 19.9023C290.436 19.9023 290.342 19.8867 290.27 19.8555C290.197 19.8242 290.16 19.7773 290.16 19.7148ZM288.379 23.3555C288.108 23.3555 287.895 23.2773 287.738 23.1211C287.582 22.9648 287.504 22.7565 287.504 22.4961C287.504 22.1419 287.634 21.8346 287.895 21.5742C288.155 21.3138 288.462 21.1836 288.816 21.1836C289.087 21.1836 289.301 21.2669 289.457 21.4336C289.613 21.5898 289.691 21.7982 289.691 22.0586C289.691 22.4128 289.561 22.7201 289.301 22.9805C289.04 23.2305 288.733 23.3555 288.379 23.3555Z" fill="#28682E"></path></svg> 