<?xml version="1.0" encoding="UTF-8"?> <svg xmlns="http://www.w3.org/2000/svg" width="44" height="45" viewBox="0 0 44 45" fill="none"><g clip-path="url(#clip0_5665_30)"><rect x="6.71094" y="10.0352" width="27.875" height="26.707" fill="#354A76"></rect><path d="M28.2467 16.2821L28.2043 16.2377C26.7981 14.7739 24.9398 13.8819 22.9624 13.7215C20.985 13.561 19.0175 14.1426 17.4125 15.362C15.8075 16.5814 14.6698 18.359 14.2031 20.3763C13.7365 22.3937 13.9714 24.519 14.8658 26.3716L15.2336 27.1295L14.5461 30.617L14.5461 30.6614L17.8475 29.8413L18.6 30.2321C20.1662 31.0457 21.9368 31.3244 23.6624 31.0291C25.3879 30.7338 26.9815 29.8793 28.2184 28.5861C29.7715 26.9529 30.6457 24.7442 30.651 22.4402C30.6563 20.1361 29.7922 17.9231 28.2467 16.2821ZM27.9129 26.0519C27.5084 26.718 26.8662 27.5321 26.0656 27.7364C24.6511 28.0946 22.4983 27.7364 19.8023 25.1282L19.7684 25.0956C17.4232 22.8042 16.8008 20.8946 16.9394 19.3818C17.0215 18.5232 17.7061 17.7476 18.2832 17.2384C18.3747 17.1568 18.4833 17.0989 18.6001 17.0693C18.717 17.0397 18.8388 17.0394 18.9559 17.0682C19.0729 17.097 19.1818 17.1542 19.2738 17.2352C19.3658 17.3162 19.4383 17.4187 19.4855 17.5344L20.354 19.6068C20.4107 19.7391 20.4319 19.885 20.4155 20.0289C20.399 20.1728 20.3455 20.3094 20.2606 20.4239L19.8193 21.016C19.7276 21.1389 19.6729 21.2876 19.6623 21.4432C19.6518 21.5988 19.6857 21.7541 19.7599 21.8894C20.1793 22.5349 20.6809 23.1176 21.2507 23.6213C21.8626 24.2409 22.5584 24.7626 23.3159 25.1696C23.4538 25.2282 23.6054 25.2424 23.751 25.2102C23.8967 25.178 24.0299 25.101 24.1334 24.989L24.6398 24.4532C24.7343 24.3398 24.8573 24.2564 24.9948 24.2125C25.1323 24.1685 25.2788 24.1657 25.4178 24.2045L27.4829 24.8262C27.5977 24.8614 27.7031 24.924 27.7909 25.009C27.8786 25.0941 27.9463 25.1994 27.9885 25.3165C28.0307 25.4336 28.0464 25.5594 28.0343 25.6839C28.0221 25.8084 27.9825 25.9283 27.9186 26.0341L27.9129 26.0519Z" fill="url(#paint0_linear_5665_30)"></path><path d="M22.3047 -3.72804e-07C18.0524 -2.9907e-07 13.8956 1.3196 10.3599 3.79193C6.82428 6.26427 4.06857 9.77828 2.44129 13.8896C0.814003 18.001 0.388232 22.525 1.21781 26.8895C2.0474 31.2541 4.09507 35.2632 7.1019 38.4099C10.1087 41.5566 13.9397 43.6995 18.1103 44.5677C22.2808 45.4358 26.6038 44.9903 30.5324 43.2873C34.461 41.5843 37.8188 38.7004 40.1813 35.0003C42.5437 31.3002 43.8047 26.9501 43.8047 22.5C43.8047 16.5326 41.5395 10.8097 37.5075 6.5901C33.4755 2.37053 28.0069 -4.71677e-07 22.3047 -3.72804e-07ZM32.9613 22.7635C32.9033 24.6321 32.3977 26.4556 31.491 28.0665C30.5843 29.6775 29.3056 31.0243 27.7721 31.9835C26.2386 32.9427 24.4994 33.4835 22.7143 33.5562C20.9291 33.629 19.155 33.2314 17.5549 32.4L12.1799 33.7382C12.0986 33.7577 12.0136 33.7512 11.936 33.7195C11.8583 33.6878 11.7915 33.6324 11.7442 33.5605C11.712 33.5125 11.6895 33.4579 11.6783 33.4004C11.6671 33.3428 11.6674 33.2834 11.6792 33.226L12.8108 27.4766C12.0711 25.9599 11.6728 24.2862 11.6465 22.5835C11.6202 20.8809 11.9665 19.1946 12.6589 17.6536C13.3513 16.1126 14.3715 14.7579 15.6413 13.6931C16.9111 12.6283 18.3969 11.8816 19.9849 11.5104C21.5729 11.1391 23.2211 11.153 24.8032 11.551C26.3853 11.9491 27.8593 12.7206 29.1126 13.8067C30.3658 14.8928 31.365 16.2646 32.0335 17.8171C32.7021 19.3695 33.0224 21.0615 32.9698 22.7635L32.9613 22.7635Z" fill="url(#paint1_linear_5665_30)"></path></g><defs><linearGradient id="paint0_linear_5665_30" x1="22.3099" y1="13.6953" x2="22.3099" y2="31.1437" gradientUnits="userSpaceOnUse"><stop stop-color="#DDC28A"></stop><stop offset="1" stop-color="#CEB177"></stop></linearGradient><linearGradient id="paint1_linear_5665_30" x1="22.3047" y1="-3.72804e-07" x2="22.3047" y2="45" gradientUnits="userSpaceOnUse"><stop stop-color="#DDC28A"></stop><stop offset="1" stop-color="#CEB177"></stop></linearGradient><clipPath id="clip0_5665_30"><rect width="43" height="45" fill="white" transform="translate(0.804688)"></rect></clipPath></defs></svg> 