<?xml version="1.0" encoding="UTF-8"?> <svg xmlns="http://www.w3.org/2000/svg" width="258" height="37" viewBox="0 0 258 37" fill="none"><path d="M0.293867 36.3778V27.6578H1.81387C2.80053 27.6578 3.64053 27.2845 4.33387 26.5378C5.05387 25.7645 5.65387 24.7245 6.13387 23.4178C6.61387 22.1111 7.00053 20.6178 7.29387 18.9378C7.5872 17.2578 7.80053 15.4978 7.93387 13.6578C8.09387 11.7911 8.21387 9.93781 8.29387 8.09781C8.37387 6.23114 8.4272 4.48448 8.45387 2.85781H7.49387L4.57387 3.01781V1.25781H25.0139V2.57781C24.0272 2.60448 23.3339 2.83115 22.9339 3.25781C22.5605 3.68448 22.3472 4.25781 22.2939 4.97781C22.2672 5.69781 22.2539 6.53781 22.2539 7.49781V24.4978C22.2539 25.2178 22.2405 25.8445 22.2139 26.3778C22.2139 26.8845 22.1872 27.3111 22.1339 27.6578H25.6139V36.3778H23.9339C23.9339 34.0845 23.7072 32.3245 23.2539 31.0978C22.8272 29.8711 21.9472 29.2578 20.6139 29.2578H5.25387C3.9472 29.2578 3.0672 29.8711 2.61387 31.0978C2.16053 32.3245 1.93387 34.0845 1.93387 36.3778H0.293867ZM5.69387 27.6578H16.0139C17.0272 27.6578 17.7205 27.4711 18.0939 27.0978C18.4672 26.7245 18.6672 26.1911 18.6939 25.4978C18.7472 24.7778 18.7739 23.9511 18.7739 23.0178V2.81781L12.4939 2.85781C11.7472 2.91114 11.2005 3.12448 10.8539 3.49781C10.5339 3.87114 10.3605 4.35114 10.3339 4.93781C10.2539 6.85781 10.1339 8.92448 9.97387 11.1378C9.81387 13.3245 9.57387 15.4845 9.25387 17.6178C8.93387 19.7511 8.49387 21.6978 7.93387 23.4578C7.37387 25.2178 6.6272 26.6178 5.69387 27.6578ZM29.0701 27.9378C30.0835 27.8845 30.7768 27.6578 31.1501 27.2578C31.5235 26.8311 31.7235 26.2578 31.7501 25.5378C31.8035 24.7911 31.8301 23.9511 31.8301 23.0178V5.73781C31.8301 5.20448 31.8435 4.69781 31.8701 4.21781C31.8968 3.71114 31.9235 3.25781 31.9501 2.85781C31.4701 2.88448 30.9901 2.91114 30.5101 2.93781C30.0301 2.96448 29.5501 2.99115 29.0701 3.01781V1.25781C30.4835 1.23114 31.9368 1.21781 33.4301 1.21781C34.9235 1.19114 36.4435 1.17781 37.9901 1.17781C40.5768 1.17781 42.7501 1.47115 44.5101 2.05781C46.2701 2.64448 47.6168 3.51114 48.5501 4.65781C49.4835 5.80448 49.9901 7.23114 50.0701 8.93781C50.1235 9.97781 49.9635 11.0711 49.5901 12.2178C49.2435 13.3378 48.5768 14.4045 47.5901 15.4178C46.6301 16.4045 45.2701 17.2045 43.5101 17.8178C41.7501 18.4311 39.4968 18.7378 36.7501 18.7378C36.6435 18.7378 36.4435 18.7378 36.1501 18.7378C35.8568 18.7378 35.5768 18.7245 35.3101 18.6978V24.4978C35.3101 25.2178 35.2968 25.8445 35.2701 26.3778C35.2701 26.8845 35.2435 27.3111 35.1901 27.6578C35.6168 27.6311 36.0301 27.6045 36.4301 27.5778C36.8301 27.5511 37.2301 27.5378 37.6301 27.5378C38.0568 27.5111 38.4701 27.4845 38.8701 27.4578V29.2578H29.0701V27.9378ZM35.3101 17.0578C35.8168 17.1111 36.2435 17.1511 36.5901 17.1778C36.9635 17.1778 37.4035 17.1778 37.9101 17.1778C39.4301 17.1778 40.8168 16.8845 42.0701 16.2978C43.3235 15.6845 44.3235 14.8178 45.0701 13.6978C45.8168 12.5778 46.1901 11.2445 46.1901 9.69781C46.1901 8.44448 45.9901 7.37781 45.5901 6.49781C45.1901 5.59114 44.6168 4.87114 43.8701 4.33781C43.1501 3.77781 42.2835 3.37781 41.2701 3.13781C40.2568 2.87114 39.1368 2.73781 37.9101 2.73781C36.9768 2.73781 36.3235 2.93781 35.9501 3.33781C35.6035 3.73781 35.4035 4.29781 35.3501 5.01781C35.3235 5.71114 35.3101 6.53781 35.3101 7.49781V17.0578ZM67.2479 18.8978C67.2479 17.7245 67.0879 16.8845 66.7679 16.3778C66.4479 15.8711 65.9413 15.5645 65.2479 15.4578C64.5546 15.3511 63.6346 15.3245 62.4879 15.3778L59.5679 15.4978V24.6578C59.5679 25.3778 59.5546 25.9911 59.5279 26.4978C59.5279 27.0045 59.5013 27.4311 59.4479 27.7778L67.0879 27.6578C68.2613 27.6311 69.2746 27.4445 70.1279 27.0978C70.9813 26.7245 71.6479 26.0845 72.1279 25.1778C72.6079 24.2711 72.8479 23.0311 72.8479 21.4578H74.2079L73.9679 29.2578H53.3279V27.9378C54.3413 27.8845 55.0346 27.6578 55.4079 27.2578C55.7813 26.8311 55.9813 26.2578 56.0079 25.5378C56.0613 24.7911 56.0879 23.9511 56.0879 23.0178V5.73781C56.0879 5.20448 56.1013 4.69781 56.1279 4.21781C56.1546 3.71114 56.1813 3.25781 56.2079 2.85781C55.7279 2.88448 55.2479 2.91114 54.7679 2.93781C54.2879 2.96448 53.8079 2.99115 53.3279 3.01781V1.25781H72.5679L72.7679 8.25781H71.4479C71.4479 6.68448 71.2079 5.49781 70.7279 4.69781C70.2479 3.87114 69.5946 3.32448 68.7679 3.05781C67.9679 2.76448 67.0613 2.63115 66.0479 2.65781L62.6079 2.73781C61.6213 2.76448 60.9146 2.95114 60.4879 3.29781C60.0613 3.64448 59.7946 4.16448 59.6879 4.85781C59.6079 5.52448 59.5679 6.40448 59.5679 7.49781V13.8978L67.0879 13.9378L66.8079 10.4978H68.5679V18.8978H67.2479ZM100.331 10.1778C100.064 7.67114 99.1841 5.72448 97.6907 4.33781C96.2241 2.95115 94.3307 2.25781 92.0107 2.25781C90.5974 2.25781 89.2641 2.56448 88.0107 3.17781C86.7841 3.76448 85.7041 4.61781 84.7707 5.73781C83.8374 6.85781 83.1041 8.20448 82.5707 9.77781C82.0374 11.3511 81.7707 13.1245 81.7707 15.0978C81.7707 17.6045 82.2507 19.8178 83.2107 21.7378C84.1707 23.6578 85.4641 25.1511 87.0907 26.2178C88.7174 27.2845 90.5174 27.8178 92.4907 27.8178C94.2241 27.8178 95.9307 27.4311 97.6107 26.6578C99.2907 25.8578 100.664 24.7111 101.731 23.2178L102.771 24.0578C101.624 25.6311 100.384 26.8445 99.0507 27.6978C97.7174 28.5511 96.3841 29.1245 95.0507 29.4178C93.7441 29.7378 92.5441 29.8978 91.4507 29.8978C89.4507 29.8978 87.6107 29.5378 85.9307 28.8178C84.2774 28.0978 82.8374 27.0978 81.6107 25.8178C80.4107 24.5111 79.4774 23.0045 78.8107 21.2978C78.1707 19.5645 77.8507 17.6978 77.8507 15.6978C77.8507 13.8045 78.1307 11.9645 78.6907 10.1778C79.2774 8.39114 80.1441 6.77781 81.2907 5.33781C82.4374 3.89781 83.8774 2.75115 85.6107 1.89781C87.3707 1.04448 89.4107 0.617812 91.7307 0.617812C93.2241 0.617812 94.6374 0.817811 95.9707 1.21781C97.3041 1.61781 98.5841 2.23114 99.8107 3.05781L99.6107 0.89781H101.771V10.1778H100.331ZM128.299 10.1778C128.033 7.67114 127.153 5.72448 125.659 4.33781C124.193 2.95115 122.299 2.25781 119.979 2.25781C118.566 2.25781 117.233 2.56448 115.979 3.17781C114.753 3.76448 113.673 4.61781 112.739 5.73781C111.806 6.85781 111.073 8.20448 110.539 9.77781C110.006 11.3511 109.739 13.1245 109.739 15.0978C109.739 17.6045 110.219 19.8178 111.179 21.7378C112.139 23.6578 113.433 25.1511 115.059 26.2178C116.686 27.2845 118.486 27.8178 120.459 27.8178C122.193 27.8178 123.899 27.4311 125.579 26.6578C127.259 25.8578 128.633 24.7111 129.699 23.2178L130.739 24.0578C129.593 25.6311 128.353 26.8445 127.019 27.6978C125.686 28.5511 124.353 29.1245 123.019 29.4178C121.713 29.7378 120.513 29.8978 119.419 29.8978C117.419 29.8978 115.579 29.5378 113.899 28.8178C112.246 28.0978 110.806 27.0978 109.579 25.8178C108.379 24.5111 107.446 23.0045 106.779 21.2978C106.139 19.5645 105.819 17.6978 105.819 15.6978C105.819 13.8045 106.099 11.9645 106.659 10.1778C107.246 8.39114 108.113 6.77781 109.259 5.33781C110.406 3.89781 111.846 2.75115 113.579 1.89781C115.339 1.04448 117.379 0.617812 119.699 0.617812C121.193 0.617812 122.606 0.817811 123.939 1.21781C125.273 1.61781 126.553 2.23114 127.779 3.05781L127.579 0.89781H129.739V10.1778H128.299ZM145.136 17.8578V15.0578H159.336V17.6978L145.136 17.8578ZM174.734 29.2578V27.9378C175.748 27.8845 176.441 27.6578 176.814 27.2578C177.188 26.8311 177.388 26.2578 177.414 25.5378C177.468 24.7911 177.494 23.9511 177.494 23.0178V5.73781C177.494 5.20448 177.508 4.69781 177.534 4.21781C177.561 3.71114 177.588 3.25781 177.614 2.85781C177.134 2.88448 176.654 2.91114 176.174 2.93781C175.694 2.96448 175.214 2.99115 174.734 3.01781V1.25781H183.734V2.57781C182.748 2.60448 182.054 2.83115 181.654 3.25781C181.281 3.68448 181.068 4.25781 181.014 4.97781C180.988 5.69781 180.974 6.53781 180.974 7.49781V14.0578H183.974L188.974 6.17781C189.321 5.64448 189.748 5.05781 190.254 4.41781C190.761 3.77781 191.281 3.24448 191.814 2.81781C191.414 2.84448 191.001 2.85781 190.574 2.85781C190.174 2.85781 189.774 2.87114 189.374 2.89781V1.25781H197.974V2.57781C196.854 2.65781 195.854 2.84448 194.974 3.13781C194.094 3.43114 193.254 3.95115 192.454 4.69781C191.654 5.41781 190.801 6.51115 189.894 7.97781L185.974 14.2178C186.748 14.6711 187.374 15.2045 187.854 15.8178C188.334 16.4045 188.814 17.0045 189.294 17.6178L193.774 23.5778C194.788 24.9111 195.614 25.8978 196.254 26.5378C196.921 27.1511 197.508 27.5378 198.014 27.6978C198.548 27.8578 199.094 27.9378 199.654 27.9378V29.2578H194.774C194.508 29.2578 194.148 29.0711 193.694 28.6978C193.268 28.3245 192.801 27.8445 192.294 27.2578C191.788 26.6445 191.268 26.0045 190.734 25.3378L185.934 18.8578C185.428 18.1911 184.921 17.5645 184.414 16.9778C183.908 16.3645 183.414 15.9111 182.934 15.6178L180.974 15.6578V24.4978C180.974 25.2178 180.961 25.8445 180.934 26.3778C180.934 26.8845 180.908 27.3111 180.854 27.6578C181.334 27.6311 181.814 27.6045 182.294 27.5778C182.774 27.5511 183.254 27.5245 183.734 27.4978V29.2578H174.734ZM214.942 29.8978C212.409 29.8978 210.236 29.4711 208.422 28.6178C206.609 27.7645 205.129 26.6311 203.982 25.2178C202.862 23.7778 202.036 22.1911 201.502 20.4578C200.969 18.7245 200.702 16.9911 200.702 15.2578C200.702 13.5778 200.982 11.8845 201.542 10.1778C202.102 8.44448 202.956 6.85781 204.102 5.41781C205.276 3.97781 206.729 2.81781 208.462 1.93781C210.222 1.05781 212.276 0.617812 214.622 0.617812C217.076 0.617812 219.196 1.05781 220.982 1.93781C222.769 2.81781 224.236 3.99114 225.382 5.45781C226.556 6.89781 227.422 8.47115 227.982 10.1778C228.569 11.8845 228.862 13.5778 228.862 15.2578C228.862 16.9111 228.582 18.6045 228.022 20.3378C227.462 22.0445 226.596 23.6311 225.422 25.0978C224.276 26.5378 222.836 27.6978 221.102 28.5778C219.369 29.4578 217.316 29.8978 214.942 29.8978ZM215.022 28.2578C216.676 28.2578 218.116 27.9111 219.342 27.2178C220.569 26.4978 221.582 25.5511 222.382 24.3778C223.209 23.1778 223.822 21.8578 224.222 20.4178C224.649 18.9511 224.862 17.4845 224.862 16.0178C224.862 14.3645 224.636 12.7245 224.182 11.0978C223.729 9.47114 223.062 7.99114 222.182 6.65781C221.302 5.32448 220.209 4.25781 218.902 3.45781C217.622 2.63114 216.156 2.21781 214.502 2.21781C212.849 2.21781 211.396 2.57781 210.142 3.29781C208.916 4.01781 207.889 4.97781 207.062 6.17781C206.262 7.35114 205.649 8.67114 205.222 10.1378C204.822 11.5778 204.622 13.0445 204.622 14.5378C204.622 16.0045 204.822 17.5378 205.222 19.1378C205.649 20.7378 206.289 22.2311 207.142 23.6178C207.996 25.0045 209.076 26.1245 210.382 26.9778C211.689 27.8311 213.236 28.2578 215.022 28.2578ZM231.7 36.3778V27.6578H233.22C234.207 27.6578 235.047 27.2845 235.74 26.5378C236.46 25.7645 237.06 24.7245 237.54 23.4178C238.02 22.1111 238.407 20.6178 238.7 18.9378C238.993 17.2578 239.207 15.4978 239.34 13.6578C239.5 11.7911 239.62 9.93781 239.7 8.09781C239.78 6.23114 239.833 4.48448 239.86 2.85781H238.9L235.98 3.01781V1.25781H256.42V2.57781C255.433 2.60448 254.74 2.83115 254.34 3.25781C253.967 3.68448 253.753 4.25781 253.7 4.97781C253.673 5.69781 253.66 6.53781 253.66 7.49781V24.4978C253.66 25.2178 253.647 25.8445 253.62 26.3778C253.62 26.8845 253.593 27.3111 253.54 27.6578H257.02V36.3778H255.34C255.34 34.0845 255.113 32.3245 254.66 31.0978C254.233 29.8711 253.353 29.2578 252.02 29.2578H236.66C235.353 29.2578 234.473 29.8711 234.02 31.0978C233.567 32.3245 233.34 34.0845 233.34 36.3778H231.7ZM237.1 27.6578H247.42C248.433 27.6578 249.127 27.4711 249.5 27.0978C249.873 26.7245 250.073 26.1911 250.1 25.4978C250.153 24.7778 250.18 23.9511 250.18 23.0178V2.81781L243.9 2.85781C243.153 2.91114 242.607 3.12448 242.26 3.49781C241.94 3.87114 241.767 4.35114 241.74 4.93781C241.66 6.85781 241.54 8.92448 241.38 11.1378C241.22 13.3245 240.98 15.4845 240.66 17.6178C240.34 19.7511 239.9 21.6978 239.34 23.4578C238.78 25.2178 238.033 26.6178 237.1 27.6578Z" fill="white"></path></svg> 