<?xml version="1.0" encoding="UTF-8"?> <svg xmlns="http://www.w3.org/2000/svg" width="273" height="74" viewBox="0 0 273 74" fill="none"><path d="M60.8855 1.61521C70.056 2.93607 75.3772 6.76657 76.849 13.1067C78.1321 18.6166 76.4527 25.1643 71.8109 32.7498C67.4331 39.9579 61.6591 46.1093 54.4887 51.2041C46.8655 56.6385 39.846 59.2613 33.4304 59.0726C31.2793 59.0349 28.9018 58.6953 26.2978 58.0537C25.2788 57.7895 24.1467 57.4687 22.9013 57.0914L21.2596 56.5819L19.6746 56.0724C16.58 58.299 12.7118 59.2802 8.0699 59.016C5.27722 58.8651 3.22045 58.4122 1.89959 57.6574C0.729687 56.9781 0.31456 56.1668 0.654209 55.2233C0.95612 54.2798 1.86185 53.4873 3.37141 52.8457C5.03192 52.091 7.01321 51.6947 9.31528 51.657C11.8815 51.6192 15.1837 52.2608 19.2217 53.5816C20.3539 52.5627 21.6748 51.0343 23.1843 48.9964C24.4297 47.3359 26.1279 44.8828 28.2791 41.6373L29.5244 39.7692L30.7698 37.9011C31.7133 36.5048 32.5247 35.3349 33.204 34.3914C36.9024 29.2212 39.8272 26.6927 41.9783 26.8059C42.2802 26.8436 42.4689 27.0135 42.5444 27.3154C42.5821 27.6173 42.4878 27.8249 42.2613 27.9381C41.4688 27.7494 39.3366 30.1647 35.8646 35.1839C35.3362 35.9765 34.5626 37.1275 33.5436 38.637L32.2983 40.4485L31.0529 42.3166C29.015 45.2602 27.2979 47.6566 25.9015 49.5058C24.2033 51.657 22.7881 53.2797 21.6559 54.3742C27.1658 56.3366 31.1095 57.2989 33.487 57.2612C39.7517 57.148 46.9032 53.8458 54.9416 47.3547C59.508 43.6941 63.4894 39.5428 66.8859 34.9009C70.3202 30.1458 72.6222 25.5983 73.7921 21.2583C75.0375 16.5787 74.7545 12.6727 72.943 9.54037C70.9051 6.10614 67.0935 3.89841 61.5081 2.9172C55.8473 1.93599 49.3562 2.65303 42.0349 5.06832C35.5061 7.21943 29.3735 10.2952 23.6372 14.2955C18.7689 17.7297 15.1082 21.2583 12.6552 24.8812C10.1267 28.6174 9.29641 31.9195 10.1644 34.7877C10.6927 36.4105 11.8815 37.4294 13.7307 37.8445C15.4667 38.2597 17.2027 38.0144 18.9387 37.1086C19.3538 36.8444 19.6557 36.8444 19.8444 37.1086C20.0709 37.4105 19.9765 37.7124 19.5614 38.0144C17.2971 39.8636 14.9006 40.2032 12.3721 39.0333C9.80589 37.8257 8.46616 35.6745 8.35294 32.58C8.20198 28.3909 9.82476 24.2019 13.2213 20.0129C16.3536 16.0881 20.6747 12.5595 26.1846 9.42716C31.5812 6.33257 37.2987 4.08711 43.3369 2.69077C49.677 1.21895 55.5265 0.860433 60.8855 1.61521ZM8.35294 57.4876C11.8627 57.5254 14.8063 56.7706 17.1838 55.2233C13.7119 54.1289 11.0135 53.5816 9.08885 53.5816C4.63566 53.5816 2.25811 54.2043 1.9562 55.4497C1.84298 55.9781 2.29585 56.4309 3.3148 56.8083C4.4847 57.2234 6.16408 57.4499 8.35294 57.4876ZM90.9856 29.2967C93.5141 28.8815 94.7595 29.6363 94.7217 31.561C94.684 33.4857 93.5707 36.1463 91.3819 39.5428C89.344 42.7128 87.608 44.7696 86.1739 45.7131C84.853 46.5433 83.4756 46.5056 82.0415 45.5999C80.7206 44.7319 80.0225 43.6563 79.947 42.3732C77.343 45.5433 75.173 48.5058 73.437 51.2607C69.8141 57.714 68.3989 62.054 69.1914 64.2806C67.9083 64.4316 67.1535 64.073 66.9271 63.2051C66.1723 60.5633 68.7951 54.3553 74.7956 44.5809L76.4939 41.8071L77.343 40.4485L78.1355 39.1465C79.3809 37.1086 80.3621 35.467 81.0791 34.2216C82.9661 30.8628 83.8341 28.6174 83.6831 27.4852C84.2492 27.221 84.7398 27.3909 85.1549 27.9947C85.5323 28.5608 85.6455 29.2212 85.4946 29.976C85.3059 31.4101 83.8718 34.3159 81.1924 38.6937C86.1361 32.7309 89.4006 29.5986 90.9856 29.2967ZM84.2492 44.7507C85.3436 44.4111 87.2306 41.9392 89.91 37.3351C92.5895 32.6932 93.382 30.3156 92.2876 30.2024C91.8347 30.1647 90.5139 31.1836 88.325 33.2593C85.9852 35.4858 83.5888 38.0521 81.1357 40.958C81.4377 42.2034 81.8905 43.2034 82.4943 43.9582C83.0982 44.6753 83.6831 44.9394 84.2492 44.7507ZM116.007 38.354C116.233 38.203 116.441 38.203 116.63 38.354C116.781 38.505 116.799 38.6748 116.686 38.8635C115.856 40.3353 114.648 41.7505 113.063 43.1091C111.705 44.2413 110.063 45.147 108.138 45.8263C106.063 46.5433 104.157 46.8075 102.421 46.6188C99.5528 46.3546 97.6092 44.8828 96.5902 42.2034C95.7223 39.8258 96.9299 36.9577 100.213 33.5989C101.61 32.1648 103.062 31.0704 104.572 30.3156C106.195 29.4854 107.553 29.2023 108.648 29.4665C110.271 29.8816 111.195 30.6364 111.422 31.7308C111.61 32.7498 111.176 33.8819 110.12 35.1273C107.667 38.071 103.968 39.9013 99.0244 40.6183C98.7225 42.0524 98.9301 43.1846 99.6471 44.0148C101.043 45.5244 103.157 45.864 105.987 45.0338C107.044 44.6941 108.157 44.2224 109.327 43.6186C110.308 43.0902 111.176 42.5241 111.931 41.9203C112.837 41.241 114.195 40.0523 116.007 38.354ZM101.119 36.2029C100.364 37.2218 99.7603 38.3351 99.3074 39.5428C101.723 38.8635 104.176 37.3539 106.667 35.0141C109.12 32.6743 109.742 31.2025 108.535 30.5987C107.78 30.259 106.459 30.9006 104.572 32.5233C103.855 33.1649 103.157 33.8631 102.478 34.6179C101.874 35.2594 101.421 35.7878 101.119 36.2029ZM154.912 38.354C155.138 38.203 155.346 38.203 155.535 38.354C155.685 38.505 155.704 38.6748 155.591 38.8635C154.157 41.4297 151.874 43.6374 148.742 45.4867C145.458 47.4113 142.364 48.2416 139.458 47.9774C136.665 47.7132 134.74 46.2226 133.684 43.5054C133.533 42.977 133.457 42.5619 133.457 42.26C129.683 45.6565 125.419 47.1094 120.664 46.6188C117.796 46.3546 115.852 44.864 114.833 42.1468C113.965 39.807 115.173 36.9388 118.456 33.5423C119.852 32.146 121.305 31.0515 122.815 30.259C124.438 29.4288 125.796 29.1457 126.891 29.4099C128.438 29.7873 129.438 30.5987 129.891 31.844C130.268 32.9385 130.155 33.9763 129.551 34.9575C129.4 35.2217 129.174 35.3538 128.872 35.3538C128.57 35.3538 128.438 35.2028 128.476 34.9009C128.853 33.3536 128.57 32.1082 127.627 31.1647C126.834 30.3722 125.381 30.7874 123.268 32.4101C122.475 32.9762 121.683 33.6555 120.89 34.448C120.211 35.1651 119.701 35.75 119.362 36.2029C116.682 39.7881 116.06 42.3732 117.494 43.9582C118.626 45.1281 120.381 45.581 122.758 45.3168C126.457 44.9394 130.212 43.0714 134.023 39.7126C135.08 36.9577 137.042 34.2971 139.911 31.7308C142.854 29.0891 145.213 27.9758 146.987 28.3909C148.534 28.7683 149.515 29.5608 149.93 30.7685C150.308 31.8252 150.213 32.863 149.647 33.8819C149.496 34.1461 149.27 34.2782 148.968 34.2782C148.666 34.3159 148.534 34.1839 148.572 33.8819C148.949 32.3347 148.666 31.0704 147.723 30.0892C146.93 29.2967 145.345 29.8816 142.967 31.844C142.137 32.5611 141.269 33.3725 140.364 34.2782C139.609 35.0707 139.043 35.7123 138.665 36.2029C137.495 37.7879 136.665 39.4484 136.175 41.1844C135.571 43.1468 135.627 44.5054 136.344 45.2602C137.476 46.4679 139.212 46.9396 141.552 46.6754C144.043 46.4113 146.515 45.3734 148.968 43.562C149.798 42.9204 150.817 42.0713 152.025 41.0146L153.44 39.656L154.912 38.354ZM174.248 33.3725C175.154 32.7309 177.607 32.6366 181.608 33.0894L183.872 33.3725C184.815 33.4857 185.495 33.5612 185.91 33.5989C187.382 33.7876 188.344 33.8253 188.797 33.7121C188.948 33.6744 189.08 33.6933 189.193 33.7687C189.306 33.8442 189.382 33.9763 189.419 34.165C189.457 34.3159 189.457 34.448 189.419 34.5612C189.382 34.7122 189.287 34.8065 189.136 34.8443C188.57 35.033 187.533 35.1085 186.023 35.0707C185.419 35.033 184.683 34.9952 183.815 34.9575L181.494 34.7877C177.456 34.4858 175.211 34.4858 174.758 34.7877C174.72 34.9009 174.626 34.9198 174.475 34.8443C174.362 34.7688 174.267 34.6556 174.192 34.5046C174.079 34.3159 174.022 34.1273 174.022 33.9386C174.022 33.7121 174.098 33.5234 174.248 33.3725ZM219.974 26.5229C219.823 27.8815 219.332 29.2023 218.502 30.4854C217.672 31.7686 216.521 33.7876 215.049 36.5425C212.671 40.958 211.181 44.3922 210.577 46.8453C212.539 43.4488 215.728 39.6937 220.144 35.5802C224.823 31.2402 227.956 29.3722 229.541 29.976C229.956 30.1269 230.314 30.3534 230.616 30.6553C230.956 30.9572 231.107 31.278 231.069 31.6176C231.031 31.7686 230.956 31.844 230.843 31.844C230.692 31.8818 230.597 31.8629 230.56 31.7874C230.522 31.4478 230.39 31.2968 230.163 31.3346C228.39 31.4855 224.955 33.9763 219.861 38.8069H219.917C219.54 39.7126 219.257 41.1467 219.068 43.1091C218.879 45.298 219.049 46.5245 219.578 46.7886C220.408 47.2415 222.465 46.2226 225.748 43.7318C226.955 42.7883 228.163 41.7882 229.371 40.7316C230.465 39.7503 231.22 38.9956 231.635 38.4672C231.824 38.3163 232.012 38.3163 232.201 38.4672C232.352 38.6182 232.39 38.788 232.314 38.9767L232.088 39.2597L231.805 39.5994L231.239 40.2787C230.748 40.8825 230.295 41.4297 229.88 41.9203C228.673 43.3167 227.54 44.4677 226.484 45.3734C223.465 47.9774 220.955 48.7511 218.955 47.6944C217.068 46.6754 216.37 44.6753 216.86 41.6939C212.785 45.9206 210.633 48.7699 210.407 50.2417C210.181 50.4682 209.841 50.5059 209.388 50.355C208.973 50.204 208.709 49.9776 208.596 49.6757C207.539 47.3736 209.086 42.4675 213.237 34.9575C214.785 32.2026 216.03 30.0326 216.974 28.4475C217.955 26.8248 218.351 25.353 218.162 24.0321C218.728 23.7679 219.219 23.9378 219.634 24.5416C220.012 25.1454 220.125 25.8058 219.974 26.5229ZM250.697 38.4106C250.81 38.2974 250.98 38.2974 251.206 38.4106C251.395 38.5238 251.433 38.6937 251.319 38.9201C250.527 40.2409 249.074 41.4109 246.96 42.4298C244.847 43.4488 242.696 44.0148 240.507 44.1281C238.016 46.2792 235.695 46.9962 233.544 46.2792C231.544 45.5999 230.412 44.2413 230.148 42.2034C229.884 40.1277 230.62 38.071 232.356 36.0331C232.733 33.9574 233.695 32.2403 235.243 30.8817C236.941 29.4476 238.847 28.9193 240.96 29.2967C244.055 29.8628 245.564 31.6365 245.489 34.6179C245.451 37.2973 244.3 39.9579 242.036 42.5996C243.658 42.2977 245.357 41.675 247.13 40.7316C248.64 39.9768 249.829 39.2031 250.697 38.4106ZM235.016 34.6745C234.412 36.0331 234.205 37.3539 234.393 38.637C234.582 39.9202 235.129 40.9014 236.035 41.5807C236.865 42.26 237.884 42.6562 239.092 42.7695C239.847 41.9392 240.658 40.807 241.526 39.373C242.771 37.1464 243.413 35.1651 243.451 33.4291C243.451 31.5044 242.583 30.4854 240.847 30.3722C239.639 30.2968 238.488 30.693 237.394 31.561C236.337 32.3913 235.544 33.4291 235.016 34.6745ZM234.054 45.2036C235.073 45.6942 236.337 45.2791 237.847 43.9582C236.714 43.7695 235.733 43.3733 234.903 42.7695C233.62 41.9015 232.79 40.6938 232.412 39.1465C231.771 42.4298 232.318 44.4488 234.054 45.2036ZM271.184 38.5804C271.297 38.3917 271.467 38.3729 271.693 38.5238C271.92 38.6748 271.977 38.8635 271.863 39.0899C270.882 40.7882 269.033 42.4864 266.316 44.1847C265.297 44.8262 263.957 45.581 262.296 46.449L260.089 47.6378L257.768 48.8265C253.843 56.7517 250.371 62.5824 247.352 66.3185C243.314 71.3378 239.88 72.9794 237.049 71.2434C234.332 69.5829 234.37 66.6582 237.162 62.4691C239.502 58.9594 242.785 55.7328 247.012 52.7891C249.428 51.0909 252.352 49.3549 255.787 47.5812C256.881 45.3923 257.938 43.2412 258.957 41.1278C259.372 40.2976 259.768 39.4484 260.145 38.5804C260.447 38.0144 260.787 37.3162 261.164 36.4859L259.862 38.1842L258.504 39.9956C257.485 41.3165 256.579 42.4109 255.787 43.2789C253.673 45.5433 252.013 46.5811 250.805 46.3924C249.786 46.2792 248.994 45.9395 248.427 45.3734C247.786 44.7319 247.578 43.9771 247.805 43.1091C248.484 40.6183 250.145 37.8257 252.786 34.7311C255.654 31.3346 258.051 29.7873 259.976 30.0892C261.07 30.2779 261.712 30.7874 261.9 31.6176C261.976 31.9195 261.976 32.278 261.9 32.6932C261.825 33.0328 261.712 33.3913 261.561 33.7687L262.523 32.7498L263.485 31.7874C263.523 31.7497 263.636 31.712 263.825 31.6742C264.051 31.6365 264.278 31.6365 264.504 31.6742C265.146 31.712 265.485 31.9761 265.523 32.4667C264.919 33.448 264.108 35.0896 263.089 37.3917L262.693 38.1842L262.296 39.0899C261.957 39.8447 261.674 40.5051 261.447 41.0712C260.655 42.7317 259.881 44.3734 259.126 45.9961C265.58 42.8638 269.599 40.3919 271.184 38.5804ZM250.522 44.7507C251.39 44.864 252.692 43.996 254.428 42.1468C255.069 41.4675 255.9 40.524 256.919 39.3163L258.221 37.7313L259.579 36.1463C260.108 35.0519 260.428 33.9952 260.542 32.9762C260.693 31.844 260.485 31.3157 259.919 31.3912C258.975 31.5799 257.711 32.58 256.126 34.3914C254.73 35.9387 253.39 37.7313 252.107 39.7692C250.107 43.0148 249.578 44.6753 250.522 44.7507ZM237.219 70.1679C238.842 71.3755 241.37 69.8848 244.805 65.6958C247.748 62.0729 250.899 57.0725 254.258 50.6946C251.579 52.1664 249.295 53.5628 247.409 54.8836C244.201 57.1857 241.408 59.9218 239.03 63.0918C236.276 66.677 235.672 69.0357 237.219 70.1679Z" fill="#D92F88"></path></svg> 