<?xml version="1.0" encoding="UTF-8"?> <svg xmlns="http://www.w3.org/2000/svg" width="306" height="47" viewBox="0 0 306 47" fill="none"><line x1="0.898438" y1="46.0137" x2="119.641" y2="46.0137" stroke="#353434"></line><path d="M211.618 36.4229V36.2069H212.458C213.018 36.2069 213.37 36.1109 213.514 35.9189C213.658 35.7269 213.73 35.3269 213.73 34.7189V20.8709C213.73 20.2629 213.658 19.8629 213.514 19.6709C213.37 19.4789 213.018 19.3829 212.458 19.3829H211.618V19.1669H217.522V19.3829H216.898C216.338 19.3829 215.978 19.4789 215.818 19.6709C215.674 19.8629 215.602 20.2629 215.602 20.8709V34.7909L222.418 19.1669H226.186V19.3829H225.322C224.762 19.3829 224.41 19.4789 224.266 19.6709C224.122 19.8629 224.05 20.2629 224.05 20.8709V34.7189C224.05 35.3269 224.122 35.7269 224.266 35.9189C224.41 36.1109 224.762 36.2069 225.322 36.2069H226.186V36.4229H220.258V36.2069H220.906C221.466 36.2069 221.818 36.1109 221.962 35.9189C222.106 35.7269 222.178 35.3269 222.178 34.7189V20.7989L215.362 36.4229H211.618ZM227.016 36.4229V36.2069H227.856C228.432 36.2069 228.784 36.1429 228.912 36.0149C229.056 35.8869 229.128 35.5349 229.128 34.9589V20.6309C229.128 20.0549 229.056 19.7029 228.912 19.5749C228.784 19.4469 228.432 19.3829 227.856 19.3829H227.016V19.1669H233.136V19.4309H232.296C231.72 19.4309 231.36 19.4949 231.216 19.6229C231.072 19.7509 231 20.1029 231 20.6789V27.5669H233.808C233.856 24.9909 234.648 22.9189 236.184 21.3509C237.72 19.7669 239.736 18.9749 242.232 18.9749C244.744 18.9749 246.768 19.7829 248.304 21.3989C249.84 23.0149 250.608 25.1429 250.608 27.7829C250.608 30.4389 249.84 32.5749 248.304 34.1909C246.768 35.8069 244.744 36.6149 242.232 36.6149C239.736 36.6149 237.72 35.8309 236.184 34.2629C234.648 32.6789 233.856 30.5909 233.808 27.9989H231V34.9589C231 35.5349 231.072 35.8869 231.216 36.0149C231.36 36.1429 231.72 36.2069 232.296 36.2069H233.136V36.4229H227.016ZM242.304 36.1829C244.32 36.1829 245.856 35.5029 246.912 34.1429C247.984 32.7829 248.52 30.8149 248.52 28.2389C248.52 25.3749 247.976 23.1909 246.888 21.6869C245.8 20.1669 244.216 19.4069 242.136 19.4069C240.104 19.4069 238.552 20.0869 237.48 21.4469C236.424 22.8069 235.896 24.7749 235.896 27.3509C235.896 30.2149 236.44 32.4069 237.528 33.9269C238.632 35.4309 240.224 36.1829 242.304 36.1829ZM251.836 36.4229V36.2069H252.676C253.236 36.2069 253.588 36.1109 253.732 35.9189C253.876 35.7269 253.948 35.3269 253.948 34.7189V20.8709C253.948 20.2629 253.876 19.8629 253.732 19.6709C253.588 19.4789 253.236 19.3829 252.676 19.3829H251.836V19.1669H257.74V19.3829H257.116C256.556 19.3829 256.196 19.4789 256.036 19.6709C255.892 19.8629 255.82 20.2629 255.82 20.8709V27.1349H262.396V20.8709C262.396 20.2629 262.316 19.8629 262.156 19.6709C262.012 19.4789 261.66 19.3829 261.1 19.3829H260.476V19.1669H266.404V19.3829H265.54C264.98 19.3829 264.628 19.4789 264.484 19.6709C264.34 19.8629 264.268 20.2629 264.268 20.8709V34.7189C264.268 35.3269 264.34 35.7269 264.484 35.9189C264.628 36.1109 264.98 36.2069 265.54 36.2069H266.404V36.4229H260.476V36.2069H261.124C261.684 36.2069 262.036 36.1109 262.18 35.9189C262.324 35.7269 262.396 35.3269 262.396 34.7189V27.5669H255.82V34.7189C255.82 35.3269 255.892 35.7269 256.036 35.9189C256.196 36.1109 256.556 36.2069 257.116 36.2069H257.74V36.4229H251.836ZM275.203 36.4229V36.2069H275.635C276.211 36.2069 276.571 36.1429 276.715 36.0149C276.859 35.8709 276.931 35.5109 276.931 34.9349V28.8629H275.083C275.067 31.1989 274.595 33.0789 273.667 34.5029C272.755 35.9109 271.547 36.6149 270.043 36.6149C269.003 36.6149 268.123 36.3029 267.403 35.6789V33.7829C268.571 34.6149 269.635 35.0309 270.595 35.0309C271.891 35.0309 272.883 34.4949 273.571 33.4229C274.275 32.3509 274.635 30.8309 274.651 28.8629C272.667 28.8629 271.067 28.4469 269.851 27.6149C268.635 26.7669 268.027 25.5669 268.027 24.0149C268.027 22.4629 268.635 21.2709 269.851 20.4389C271.067 19.5909 272.667 19.1669 274.651 19.1669H280.915V19.3829H280.075C279.499 19.3829 279.139 19.4549 278.995 19.5989C278.867 19.7269 278.803 20.0789 278.803 20.6549V34.9349C278.803 35.5109 278.867 35.8709 278.995 36.0149C279.139 36.1429 279.499 36.2069 280.075 36.2069H280.915V36.4229H275.203ZM276.931 28.4309V20.8709C276.931 20.3109 277.067 19.8949 277.339 19.6229V19.5989H274.843C271.691 19.5989 270.115 21.0709 270.115 24.0149C270.115 26.9589 271.691 28.4309 274.843 28.4309H276.931Z" fill="#353434"></path><line x1="186.9" y1="46.0137" x2="305.643" y2="46.0137" stroke="#353434"></line><path d="M7.7445 36.4229V36.2069H8.5845C9.1445 36.2069 9.4965 36.1109 9.6405 35.9189C9.7845 35.7269 9.8565 35.3269 9.8565 34.7189V20.8709C9.8565 20.2629 9.7845 19.8629 9.6405 19.6709C9.4965 19.4789 9.1445 19.3829 8.5845 19.3829H7.7445V19.1669H22.3125V19.3829H21.4485C20.8885 19.3829 20.5365 19.4789 20.3925 19.6709C20.2485 19.8629 20.1765 20.2629 20.1765 20.8709V34.7189C20.1765 35.3269 20.2485 35.7269 20.3925 35.9189C20.5365 36.1109 20.8885 36.2069 21.4485 36.2069H22.3125V36.4229H16.3845V36.2069H17.0325C17.5925 36.2069 17.9445 36.1109 18.0885 35.9189C18.2325 35.7269 18.3045 35.3269 18.3045 34.7189V19.5989H11.7285V34.7189C11.7285 35.3269 11.8005 35.7269 11.9445 35.9189C12.1045 36.1109 12.4645 36.2069 13.0245 36.2069H13.6485V36.4229H7.7445ZM31.1109 36.4229V36.2069H31.5429C32.1189 36.2069 32.4789 36.1429 32.6229 36.0149C32.7669 35.8709 32.8389 35.5109 32.8389 34.9349V28.8629H30.9909C30.9749 31.1989 30.5029 33.0789 29.5749 34.5029C28.6629 35.9109 27.4549 36.6149 25.9509 36.6149C24.9109 36.6149 24.0309 36.3029 23.3109 35.6789V33.7829C24.4789 34.6149 25.5429 35.0309 26.5029 35.0309C27.7989 35.0309 28.7909 34.4949 29.4789 33.4229C30.1829 32.3509 30.5429 30.8309 30.5589 28.8629C28.5749 28.8629 26.9749 28.4469 25.7589 27.6149C24.5429 26.7669 23.9349 25.5669 23.9349 24.0149C23.9349 22.4629 24.5429 21.2709 25.7589 20.4389C26.9749 19.5909 28.5749 19.1669 30.5589 19.1669H36.8229V19.3829H35.9829C35.4069 19.3829 35.0469 19.4549 34.9029 19.5989C34.7749 19.7269 34.7109 20.0789 34.7109 20.6549V34.9349C34.7109 35.5109 34.7749 35.8709 34.9029 36.0149C35.0469 36.1429 35.4069 36.2069 35.9829 36.2069H36.8229V36.4229H31.1109ZM32.8389 28.4309V20.8709C32.8389 20.3109 32.9749 19.8949 33.2469 19.6229V19.5989H30.7509C27.5989 19.5989 26.0229 21.0709 26.0229 24.0149C26.0229 26.9589 27.5989 28.4309 30.7509 28.4309H32.8389ZM39.7136 36.4229V36.2069H41.5376C42.1136 36.2069 42.4656 36.1429 42.5936 36.0149C42.7376 35.8709 42.8096 35.5109 42.8096 34.9349V19.5989H41.3696C40.1696 19.5989 39.3456 19.7829 38.8976 20.1509C38.4496 20.5029 38.1936 21.2389 38.1296 22.3589L38.0576 23.3429L37.6256 23.3189L37.9856 17.7509L38.2496 17.7749L38.1296 19.1669H53.6336L53.5136 17.7989L53.7776 17.7749L54.1376 23.3189L53.7056 23.3429L53.6336 22.3589C53.5536 21.2389 53.2896 20.5029 52.8416 20.1509C52.3936 19.7829 51.5776 19.5989 50.3936 19.5989H44.6816V34.9349C44.6816 35.5109 44.7456 35.8709 44.8736 36.0149C45.0176 36.1429 45.3776 36.2069 45.9536 36.2069H46.5296V36.4229H39.7136ZM47.5376 36.4229V36.2069H48.1376C48.6976 36.2069 49.0496 36.1109 49.1936 35.9189C49.3376 35.7269 49.4096 35.3269 49.4096 34.7189V23.7269C49.4096 23.1189 49.3376 22.7189 49.1936 22.5269C49.0496 22.3349 48.6976 22.2389 48.1376 22.2389H47.5376V22.0229H51.9776V22.2389H51.7616C51.6176 22.2389 51.4976 22.2869 51.4016 22.3829C51.3216 22.4789 51.2816 22.6069 51.2816 22.7669V28.0229H58.3376V20.8709C58.3376 20.2629 58.2656 19.8629 58.1216 19.6709C57.9776 19.4789 57.6256 19.3829 57.0656 19.3829H56.4176V19.1669H62.3456V19.3829H61.4816C60.9216 19.3829 60.5696 19.4789 60.4256 19.6709C60.2816 19.8629 60.2096 20.2629 60.2096 20.8709V34.7189C60.2096 35.3269 60.2816 35.7269 60.4256 35.9189C60.5696 36.1109 60.9216 36.2069 61.4816 36.2069H62.3456V36.4229H56.4176V36.2069H57.0416C57.6016 36.2069 57.9536 36.1109 58.0976 35.9189C58.2576 35.7269 58.3376 35.3269 58.3376 34.7189V28.4549H51.2816V34.7189C51.2816 35.3269 51.3536 35.7269 51.4976 35.9189C51.6576 36.1109 52.0176 36.2069 52.5776 36.2069H53.2016V36.4229H47.5376ZM63.1742 36.4229V36.2069H64.0142C64.5742 36.2069 64.9262 36.1109 65.0702 35.9189C65.2142 35.7269 65.2862 35.3269 65.2862 34.7189V20.8709C65.2862 20.2629 65.2142 19.8629 65.0702 19.6709C64.9262 19.4789 64.5742 19.3829 64.0142 19.3829H63.1742V19.1669H69.0782V19.3829H68.4542C67.8942 19.3829 67.5342 19.4789 67.3742 19.6709C67.2302 19.8629 67.1582 20.2629 67.1582 20.8709V34.7909L73.9742 19.1669H77.7422V19.3829H76.8782C76.3182 19.3829 75.9662 19.4789 75.8222 19.6709C75.6782 19.8629 75.6062 20.2629 75.6062 20.8709V34.7189C75.6062 35.3269 75.6782 35.7269 75.8222 35.9189C75.9662 36.1109 76.3182 36.2069 76.8782 36.2069H77.7422V36.4229H71.8142V36.2069H72.4622C73.0222 36.2069 73.3742 36.1109 73.5182 35.9189C73.6622 35.7269 73.7342 35.3269 73.7342 34.7189V20.7989L66.9182 36.4229H63.1742ZM78.5726 36.4229V36.2069H79.4366C79.9966 36.2069 80.3486 36.1109 80.4926 35.9189C80.6366 35.7269 80.7086 35.3269 80.7086 34.7189V20.8709C80.7086 20.2629 80.6366 19.8629 80.4926 19.6709C80.3486 19.4789 79.9966 19.3829 79.4366 19.3829H78.5726V19.1669H84.2366V19.3829H83.8526C83.2926 19.3829 82.9406 19.4789 82.7966 19.6709C82.6526 19.8629 82.5806 20.2629 82.5806 20.8709V35.9909H88.6526V20.8709C88.6526 20.2629 88.5726 19.8629 88.4126 19.6709C88.2686 19.4789 87.9166 19.3829 87.3566 19.3829H86.9726V19.1669H92.6366V19.3829H91.7966C91.2366 19.3829 90.8846 19.4789 90.7406 19.6709C90.5966 19.8629 90.5246 20.2629 90.5246 20.8709V34.5029C90.5246 35.1109 90.5966 35.5109 90.7406 35.7029C90.8846 35.8949 91.2366 35.9909 91.7966 35.9909H94.4366V39.9749H93.7886V37.9109C93.7886 37.3029 93.7086 36.9029 93.5486 36.7109C93.4046 36.5189 93.0526 36.4229 92.4926 36.4229H78.5726ZM95.2311 36.4229V36.2069H95.6151C96.0631 36.2069 96.5031 35.7109 96.9351 34.7189L103.679 19.1669H105.527V19.4549C105.527 20.0309 105.599 20.4949 105.743 20.8469L111.407 34.7189C111.663 35.3429 111.871 35.7509 112.031 35.9429C112.191 36.1189 112.455 36.2069 112.823 36.2069H113.015V36.4229H108.431V36.2069H110.279V36.1589C110.055 36.0789 109.807 35.7029 109.535 35.0309L108.191 31.7429H98.6871L97.3911 34.7189C97.3111 34.9109 97.2711 35.0949 97.2711 35.2709C97.2711 35.5429 97.3751 35.7669 97.5831 35.9429C97.7911 36.1189 98.0711 36.2069 98.4231 36.2069H99.5991V36.4229H95.2311ZM98.8791 31.3109H108.023L103.943 21.3029C103.815 21.0149 103.751 20.6949 103.751 20.3429H103.535C103.535 20.5349 103.439 20.8549 103.247 21.3029L98.8791 31.3109Z" fill="#353434"></path><path d="M151.444 41.1729H134.854V38.6529C135.134 38.6249 135.652 38.3449 136.408 37.8129C137.164 37.2529 137.836 36.5809 138.424 35.7969C141.392 31.8769 143.688 28.4609 145.312 25.5489C146.936 22.6089 147.748 20.0049 147.748 17.7369C147.748 15.6649 147.3 14.0969 146.404 13.0329C145.508 11.9408 144.206 11.3948 142.498 11.3948C140.846 11.3948 139.53 11.9408 138.55 13.0329C137.57 14.1249 136.968 15.4548 136.744 17.0228V18.4509H136.03V11.0589H136.408V12.8649C138.06 11.3808 140.09 10.6388 142.498 10.6388C144.962 10.6388 146.95 11.3388 148.462 12.7388C149.974 14.1388 150.73 15.9729 150.73 18.2409C150.73 20.0609 150.086 22.1189 148.798 24.4149C147.51 26.7109 146.026 28.8109 144.346 30.7149C142.666 32.5909 140.594 34.7049 138.13 37.0569C137.206 37.9249 136.618 38.4289 136.366 38.5689L136.492 38.7789C137.472 38.6389 138.284 38.5689 138.928 38.5689H145.102C147.314 38.5689 148.882 38.3169 149.806 37.8129C150.73 37.3089 151.248 36.1609 151.36 34.3689L151.444 33.1509L151.906 33.1929L151.444 41.1729ZM162.149 41.1729H159.167V39.1569C159.167 35.0409 160.245 30.4349 162.401 25.3389C164.557 20.2149 166.433 16.6869 168.029 14.7549C168.533 14.1389 168.925 13.7749 169.205 13.6629L169.163 13.4109C168.855 13.5229 167.819 13.5789 166.055 13.5789H156.773C155.709 13.5789 155.037 13.6909 154.757 13.9148C154.505 14.1109 154.351 14.6709 154.295 15.5949L154.127 17.9469H153.707L154.169 10.9748H171.095V13.0749C170.731 13.1869 170.213 13.6489 169.541 14.4609C168.869 15.2448 168.099 16.3789 167.231 17.8629C166.391 19.3469 165.593 21.0129 164.837 22.8609C164.081 24.6809 163.437 26.8229 162.905 29.2869C162.401 31.7509 162.149 34.2009 162.149 36.6369V41.1729Z" fill="#353434"></path><line x1="0.898438" y1="46.0137" x2="119.641" y2="46.0137" stroke="#353434"></line><line x1="186.9" y1="46.0137" x2="305.643" y2="46.0137" stroke="#353434"></line><line x1="0.898438" y1="9.01367" x2="119.641" y2="9.01367" stroke="#353434"></line><line x1="186.9" y1="9.01367" x2="305.643" y2="9.01367" stroke="#353434"></line></svg> 