<?xml version="1.0" encoding="UTF-8"?> <svg xmlns="http://www.w3.org/2000/svg" id="_Слой_2" data-name="Слой 2" viewBox="0 0 133 36.14"><defs><style> .cls-1 { fill: #fff; stroke-width: 0px; } </style></defs><g id="Layer_1" data-name="Layer 1"><path class="cls-1" d="M0,0v26.92c.41.2.78.64.81,1.44-.02.06,1.93-.54,2.07-.64-.35-.02,2.4-.42,2.01-.75.13.02,1.97-.31,2.02-.67.55.96,2.61,2.07,2.14.29.29.56,1.86-.34,2.03-.12-.12-.56,2.01-.31,2.1.07-.29-.96,2.01.25,2.01-.86,0,.62,2.22,1.78,2.22,1.45,0-.86,1.91-3.08,1.91-1.91,0,.13,2.18,1.71,2.18,1.04,0-.21,1.69,1.35,1.69-1.1,0-.89,1.79-.44,1.79.41,0,.24,1.57,1.99,1.57.9,0-.23,2.34-.86,2.34.64,0,1.18,2.35.89,2.35.96,0,.39,2.22.53,2.22.77,0-.32,2.17-1.47,2.17-.78,0-.06,2.02-.06,2.02-1.05,0-.44,2.11.73,2.11-.15,0-.25,2.08-.24,2.08-.77,0,.76,2.1,1.09,2.1,1.37,0-.86,2.17-2.76,2.17-1.32,0,.67,1.91,2.07,1.91,2.02,0-1.2,2.11,1.25,2.11-.24,0-.41,2.04.37,2.04.39,0-1.04,1.89.62,1.89,1.12,0,1.45,2.22-.69,2.22-.43s2.06-1.23,2.06.34c0,.74,1.74,3,1.74,1.59,0,.94,2.05.22,2.05.37,0-.49,2.37.3,2.37-.82,0,.43,1.83.77,1.83,1.24,0-.7,2.18.77,2.18-.13,0,.4,2.07.08,2.07.25,0-.11,1.9.2,1.9,1,0-.51,1.99.3,1.99.41,0,.04,1.9.52,1.9,1,0-.73,2.02.89,2.02.38,0-.46,2.03-.55,2.03.27,0-.12,2.12-.07,2.12-.57,0,.43,2.02.02,2.02.27,0,.53,1.99.32,1.99.94,0,.18,2.04.27,2.04.36,0,1.08,2.07-1.74,2.07-.87,0-.38,2.05.66,2.05.91,0,.4,2.03-2.28,2.03-1.01,0,.74,2.02-.18,2.02-.42,0-.94,2.52.86,2.52,1.13,0,.63,2.14-2.58,2.14-1.7,0,1.29,2.24-.31,2.24-.54,0-.2,1.93-1.21,1.93-1.36,0,.63,2.13-.51,2.13-.54,0-.11,2.3-1.19,2.3.71,0-.16,2.03-1.88,2.03-1.86,0,.32,2.15,1.46,2.15,1.11,0,.15,2.11.27,2.11.35,0,.24,2.28,0,2.28-.08,0-.14,1.87,3.13,1.87,1.66,0-.7,2.08,1.77,2.08,1.31,0-.13,2.43-1.43,2.54-1.3.24-.32,1.75.08,2.01-.26.42.73,2.17-.39,2.35-.69.22,2.08,1.81-.07,2.11-.96.38.83,1.09.99,1.44.88V0H0Z"></path></g></svg> 