<?xml version="1.0" encoding="UTF-8" standalone="no"?> <svg xmlns="http://www.w3.org/2000/svg" xmlns:xlink="http://www.w3.org/1999/xlink" width="423px" height="33px" viewBox="0 0 423 33"> <!-- Generator: Sketch 49.1 (51147) - http://www.bohemiancoding.com/sketch --> <title>Path 11</title> <desc>Created with Sketch.</desc> <defs></defs> <g id="Page-1" stroke="none" stroke-width="1" fill="none" fill-rule="evenodd"> <path d="M2.55859375,9.01953125 C10.0004902,22.3963882 20.75,41.3110352 31.1640625,19.90625 C33.1086731,15.9093495 36.3886719,5.18945312 45.53125,6.28125 C54.6738281,7.37304688 57.0869424,30.5741808 73.0390625,27.3789063 C85.0292621,24.9772205 89.0982965,8.86722461 101.835938,6.3125 C118.13041,3.04439951 123.190492,26.0050746 138.65625,23.8671875 C155.712265,21.5094736 161.469304,4.89327401 177.761719,2.80078125 C196.341052,0.414571401 202.464972,23.9228481 224.53125,25.125 C249.79932,26.5015828 257.095417,5.21126693 280,8.953125 C299.480182,12.1355481 315.014206,31.874568 335.179688,28.0234375 C350.01302,25.1906215 351.416243,6.77250689 369.679687,12.4648438 C394.647527,20.2468016 399.863454,31.9495124 420.089844,14.5273438 C420.727513,13.9780824 418.457031,14.9361979 417.640625,15.140625" id="Path-11" stroke="#F7BC7E" stroke-width="5"></path> </g> </svg> 