<?xml version="1.0" encoding="UTF-8"?> <svg xmlns="http://www.w3.org/2000/svg" width="302" height="31" viewBox="0 0 302 31" fill="none"><path d="M0.665273 29.6094V28.2894C1.46527 28.2894 2.07861 28.076 2.50527 27.6494C2.93194 27.2227 3.27861 26.636 3.54527 25.8894C3.83861 25.1427 4.17194 24.276 4.54527 23.2894L12.7853 0.849373H13.7453L22.6653 23.6094C22.8786 24.1694 23.1186 24.8894 23.3853 25.7694C23.6519 26.6494 23.7586 27.396 23.7053 28.0094C24.1586 27.9827 24.6119 27.956 25.0653 27.9294C25.5186 27.9027 25.9719 27.876 26.4253 27.8494V29.6094H17.2653V28.2894C18.2786 28.2627 18.9453 28.036 19.2653 27.6094C19.5853 27.1827 19.7053 26.676 19.6253 26.0894C19.5453 25.5027 19.4119 24.9694 19.2253 24.4894L17.8253 20.7294L7.42527 20.9694L6.02527 25.2494C5.83861 25.8894 5.66527 26.396 5.50527 26.7694C5.37194 27.1427 5.21194 27.556 5.02527 28.0094C5.55861 27.9827 6.07861 27.956 6.58527 27.9294C7.11861 27.9027 7.63861 27.876 8.14527 27.8494V29.6094H0.665273ZM8.02527 19.2494H17.2653L14.4253 11.6094C14.1319 10.7827 13.8253 9.96937 13.5053 9.16937C13.2119 8.34271 12.9186 7.51604 12.6253 6.68937H12.5453C12.2786 7.43604 11.9986 8.18271 11.7053 8.92937C11.4386 9.67604 11.1586 10.436 10.8653 11.2094L8.02527 19.2494ZM28.1443 29.6094V28.2894C29.1577 28.236 29.851 28.0094 30.2243 27.6094C30.5977 27.1827 30.7977 26.6094 30.8243 25.8894C30.8777 25.1427 30.9043 24.3027 30.9043 23.3694V6.08938C30.9043 5.55604 30.9177 5.04937 30.9443 4.56937C30.971 4.06271 30.9977 3.60937 31.0243 3.20937C30.5443 3.23604 30.0643 3.26271 29.5843 3.28937C29.1043 3.31604 28.6243 3.34271 28.1443 3.36937V1.60937H37.1443V2.92937C36.1577 2.95604 35.4643 3.18271 35.0643 3.60937C34.691 4.03604 34.4777 4.60937 34.4243 5.32937C34.3977 6.04937 34.3843 6.88937 34.3843 7.84937V14.4894H48.7043V6.08938C48.7043 5.55604 48.7177 5.04937 48.7443 4.56937C48.771 4.06271 48.7977 3.60937 48.8243 3.20937C48.3443 3.23604 47.8643 3.26271 47.3843 3.28937C46.9043 3.31604 46.4243 3.34271 45.9443 3.36937V1.60937H54.9443V2.92937C53.9577 2.95604 53.2643 3.18271 52.8643 3.60937C52.491 4.03604 52.2777 4.60937 52.2243 5.32937C52.1977 6.04937 52.1843 6.88937 52.1843 7.84937V24.8494C52.1843 25.5694 52.171 26.196 52.1443 26.7294C52.1443 27.236 52.1177 27.6627 52.0643 28.0094C52.5443 27.9827 53.0243 27.956 53.5043 27.9294C53.9843 27.9027 54.4643 27.876 54.9443 27.8494V29.6094H45.9443V28.2894C46.9577 28.236 47.651 28.0094 48.0243 27.6094C48.3977 27.1827 48.5977 26.6094 48.6243 25.8894C48.6777 25.1427 48.7043 24.3027 48.7043 23.3694V16.0894L34.3843 16.2494V24.8494C34.3843 25.5694 34.371 26.196 34.3443 26.7294C34.3443 27.236 34.3177 27.6627 34.2643 28.0094C34.7443 27.9827 35.2243 27.956 35.7043 27.9294C36.1843 27.9027 36.6643 27.876 37.1443 27.8494V29.6094H28.1443ZM59.3553 29.6094V28.2894C60.3686 28.236 61.0619 28.0094 61.4353 27.6094C61.8086 27.1827 62.0086 26.6094 62.0353 25.8894C62.0886 25.1427 62.1153 24.3027 62.1153 23.3694V6.08938C62.1153 5.55604 62.1286 5.04937 62.1553 4.56937C62.1819 4.06271 62.2086 3.60937 62.2353 3.20937C61.7553 3.23604 61.2753 3.26271 60.7953 3.28937C60.3153 3.31604 59.8353 3.34271 59.3553 3.36937V1.60937H68.3553V2.92937C67.3686 2.95604 66.6753 3.18271 66.2753 3.60937C65.9019 4.03604 65.6886 4.60937 65.6353 5.32937C65.6086 6.04937 65.5953 6.88937 65.5953 7.84937V14.4094H68.5953L73.5953 6.52937C73.9419 5.99604 74.3686 5.40937 74.8753 4.76937C75.3819 4.12937 75.9019 3.59604 76.4353 3.16937C76.0353 3.19604 75.6219 3.20937 75.1953 3.20937C74.7953 3.20937 74.3953 3.22271 73.9953 3.24937V1.60937H82.5953V2.92937C81.4753 3.00937 80.4753 3.19604 79.5953 3.48937C78.7153 3.78271 77.8753 4.30271 77.0753 5.04937C76.2753 5.76937 75.4219 6.86271 74.5153 8.32937L70.5953 14.5694C71.3686 15.0227 71.9953 15.556 72.4753 16.1694C72.9553 16.756 73.4353 17.356 73.9153 17.9694L78.3953 23.9294C79.4086 25.2627 80.2353 26.2494 80.8753 26.8894C81.5419 27.5027 82.1286 27.8894 82.6353 28.0494C83.1686 28.2094 83.7153 28.2894 84.2753 28.2894V29.6094H79.3953C79.1286 29.6094 78.7686 29.4227 78.3153 29.0494C77.8886 28.676 77.4219 28.196 76.9153 27.6094C76.4086 26.996 75.8886 26.356 75.3553 25.6894L70.5553 19.2094C70.0486 18.5427 69.5419 17.916 69.0353 17.3294C68.5286 16.716 68.0353 16.2627 67.5553 15.9694L65.5953 16.0094V24.8494C65.5953 25.5694 65.5819 26.196 65.5553 26.7294C65.5553 27.236 65.5286 27.6627 65.4753 28.0094C65.9553 27.9827 66.4353 27.956 66.9153 27.9294C67.3953 27.9027 67.8753 27.876 68.3553 27.8494V29.6094H59.3553ZM100.58 19.2494C100.58 18.076 100.42 17.236 100.1 16.7294C99.78 16.2227 99.2733 15.916 98.58 15.8094C97.8866 15.7027 96.9666 15.676 95.82 15.7294L92.9 15.8494V25.0094C92.9 25.7294 92.8866 26.3427 92.86 26.8494C92.86 27.356 92.8333 27.7827 92.78 28.1294L100.42 28.0094C101.593 27.9827 102.607 27.796 103.46 27.4494C104.313 27.076 104.98 26.436 105.46 25.5294C105.94 24.6227 106.18 23.3827 106.18 21.8094H107.54L107.3 29.6094H86.66V28.2894C87.6733 28.236 88.3666 28.0094 88.74 27.6094C89.1133 27.1827 89.3133 26.6094 89.34 25.8894C89.3933 25.1427 89.42 24.3027 89.42 23.3694V6.08938C89.42 5.55604 89.4333 5.04937 89.46 4.56937C89.4866 4.06271 89.5133 3.60937 89.54 3.20937C89.06 3.23604 88.58 3.26271 88.1 3.28937C87.62 3.31604 87.14 3.34271 86.66 3.36937V1.60937H105.9L106.1 8.60937H104.78C104.78 7.03604 104.54 5.84937 104.06 5.04937C103.58 4.22271 102.927 3.67604 102.1 3.40937C101.3 3.11604 100.393 2.98271 99.38 3.00937L95.94 3.08937C94.9533 3.11604 94.2466 3.30271 93.82 3.64937C93.3933 3.99604 93.1266 4.51604 93.02 5.20937C92.94 5.87604 92.9 6.75604 92.9 7.84937V14.2494L100.42 14.2894L100.14 10.8494H101.9V19.2494H100.58ZM132.503 10.0494C132.476 8.47604 132.316 7.16937 132.023 6.12937C131.729 5.08937 131.209 4.31604 130.463 3.80937C129.743 3.27604 128.689 3.02271 127.303 3.04937H123.903L123.863 24.8494C123.863 25.5694 123.849 26.196 123.823 26.7294C123.823 27.236 123.796 27.6627 123.743 28.0094C124.303 27.9827 124.849 27.956 125.383 27.9294C125.943 27.9027 126.503 27.876 127.063 27.8494V29.6094H117.663V28.2894C118.676 28.236 119.356 27.996 119.703 27.5694C120.076 27.1427 120.276 26.5694 120.303 25.8494C120.356 25.1027 120.383 24.276 120.383 23.3694L120.423 3.08937L116.303 3.12937C114.623 3.12937 113.436 3.68937 112.743 4.80937C112.049 5.92937 111.703 7.67604 111.703 10.0494H110.223L110.463 1.60937H133.783L134.023 10.0494H132.503ZM133.712 29.6094V28.2894C134.512 28.2894 135.125 28.076 135.552 27.6494C135.979 27.2227 136.325 26.636 136.592 25.8894C136.885 25.1427 137.219 24.276 137.592 23.2894L145.832 0.849373H146.792L155.712 23.6094C155.925 24.1694 156.165 24.8894 156.432 25.7694C156.699 26.6494 156.805 27.396 156.752 28.0094C157.205 27.9827 157.659 27.956 158.112 27.9294C158.565 27.9027 159.019 27.876 159.472 27.8494V29.6094H150.312V28.2894C151.325 28.2627 151.992 28.036 152.312 27.6094C152.632 27.1827 152.752 26.676 152.672 26.0894C152.592 25.5027 152.459 24.9694 152.272 24.4894L150.872 20.7294L140.472 20.9694L139.072 25.2494C138.885 25.8894 138.712 26.396 138.552 26.7694C138.419 27.1427 138.259 27.556 138.072 28.0094C138.605 27.9827 139.125 27.956 139.632 27.9294C140.165 27.9027 140.685 27.876 141.192 27.8494V29.6094H133.712ZM141.072 19.2494H150.312L147.472 11.6094C147.179 10.7827 146.872 9.96937 146.552 9.16937C146.259 8.34271 145.965 7.51604 145.672 6.68937H145.592C145.325 7.43604 145.045 8.18271 144.752 8.92937C144.485 9.67604 144.205 10.436 143.912 11.2094L141.072 19.2494ZM171.699 29.6094V28.2894C172.712 28.236 173.406 28.0094 173.779 27.6094C174.152 27.1827 174.352 26.6094 174.379 25.8894C174.432 25.1427 174.459 24.3027 174.459 23.3694V6.08938C174.459 5.55604 174.472 5.04937 174.499 4.56937C174.526 4.06271 174.552 3.60937 174.579 3.20937C174.099 3.23604 173.619 3.26271 173.139 3.28937C172.659 3.31604 172.179 3.34271 171.699 3.36937V1.60937H190.259L190.459 8.60937H188.979C188.979 7.03604 188.739 5.84937 188.259 5.04937C187.779 4.22271 187.139 3.67604 186.339 3.40937C185.539 3.11604 184.632 2.98271 183.619 3.00937L180.699 3.08937C179.712 3.11604 179.032 3.35604 178.659 3.80937C178.286 4.23604 178.072 4.80937 178.019 5.52937C177.966 6.24937 177.939 7.07604 177.939 8.00937V24.8494C177.939 25.5694 177.926 26.196 177.899 26.7294C177.899 27.236 177.872 27.6627 177.819 28.0094C178.272 27.9827 178.726 27.9694 179.179 27.9694C179.632 27.9427 180.086 27.916 180.539 27.8894C180.992 27.8627 181.446 27.8494 181.899 27.8494V29.6094H171.699ZM207.493 30.2494C204.96 30.2494 202.786 29.8227 200.973 28.9694C199.16 28.116 197.68 26.9827 196.533 25.5694C195.413 24.1294 194.586 22.5427 194.053 20.8094C193.52 19.076 193.253 17.3427 193.253 15.6094C193.253 13.9294 193.533 12.236 194.093 10.5294C194.653 8.79604 195.506 7.20937 196.653 5.76937C197.826 4.32937 199.28 3.16937 201.013 2.28937C202.773 1.40937 204.826 0.969374 207.173 0.969374C209.626 0.969374 211.746 1.40937 213.533 2.28937C215.32 3.16937 216.786 4.34271 217.933 5.80937C219.106 7.24937 219.973 8.82271 220.533 10.5294C221.12 12.236 221.413 13.9294 221.413 15.6094C221.413 17.2627 221.133 18.956 220.573 20.6894C220.013 22.396 219.146 23.9827 217.973 25.4494C216.826 26.8894 215.386 28.0494 213.653 28.9294C211.92 29.8094 209.866 30.2494 207.493 30.2494ZM207.573 28.6094C209.226 28.6094 210.666 28.2627 211.893 27.5694C213.12 26.8494 214.133 25.9027 214.933 24.7294C215.76 23.5294 216.373 22.2094 216.773 20.7694C217.2 19.3027 217.413 17.836 217.413 16.3694C217.413 14.716 217.186 13.076 216.733 11.4494C216.28 9.82271 215.613 8.34271 214.733 7.00938C213.853 5.67604 212.76 4.60937 211.453 3.80937C210.173 2.98271 208.706 2.56937 207.053 2.56937C205.4 2.56937 203.946 2.92937 202.693 3.64937C201.466 4.36937 200.44 5.32937 199.613 6.52937C198.813 7.70271 198.2 9.02271 197.773 10.4894C197.373 11.9294 197.173 13.396 197.173 14.8894C197.173 16.356 197.373 17.8894 197.773 19.4894C198.2 21.0894 198.84 22.5827 199.693 23.9694C200.546 25.356 201.626 26.476 202.933 27.3294C204.24 28.1827 205.786 28.6094 207.573 28.6094ZM247.491 10.5294C247.224 8.02271 246.344 6.07604 244.851 4.68937C243.384 3.30271 241.491 2.60937 239.171 2.60937C237.758 2.60937 236.424 2.91604 235.171 3.52937C233.944 4.11604 232.864 4.96937 231.931 6.08938C230.998 7.20937 230.264 8.55604 229.731 10.1294C229.198 11.7027 228.931 13.476 228.931 15.4494C228.931 17.956 229.411 20.1694 230.371 22.0894C231.331 24.0094 232.624 25.5027 234.251 26.5694C235.878 27.636 237.678 28.1694 239.651 28.1694C241.384 28.1694 243.091 27.7827 244.771 27.0094C246.451 26.2094 247.824 25.0627 248.891 23.5694L249.931 24.4094C248.784 25.9827 247.544 27.196 246.211 28.0494C244.878 28.9027 243.544 29.476 242.211 29.7694C240.904 30.0894 239.704 30.2494 238.611 30.2494C236.611 30.2494 234.771 29.8894 233.091 29.1694C231.438 28.4494 229.998 27.4494 228.771 26.1694C227.571 24.8627 226.638 23.356 225.971 21.6494C225.331 19.916 225.011 18.0494 225.011 16.0494C225.011 14.156 225.291 12.316 225.851 10.5294C226.438 8.74271 227.304 7.12937 228.451 5.68937C229.598 4.24937 231.038 3.10271 232.771 2.24937C234.531 1.39604 236.571 0.969374 238.891 0.969374C240.384 0.969374 241.798 1.16937 243.131 1.56937C244.464 1.96937 245.744 2.58271 246.971 3.40937L246.771 1.24937H248.931V10.5294H247.491ZM274.3 10.0494C274.273 8.47604 274.113 7.16937 273.82 6.12937C273.526 5.08937 273.006 4.31604 272.26 3.80937C271.54 3.27604 270.486 3.02271 269.1 3.04937H265.7L265.66 24.8494C265.66 25.5694 265.646 26.196 265.62 26.7294C265.62 27.236 265.593 27.6627 265.54 28.0094C266.1 27.9827 266.646 27.956 267.18 27.9294C267.74 27.9027 268.3 27.876 268.86 27.8494V29.6094H259.46V28.2894C260.473 28.236 261.153 27.996 261.5 27.5694C261.873 27.1427 262.073 26.5694 262.1 25.8494C262.153 25.1027 262.18 24.276 262.18 23.3694L262.22 3.08937L258.1 3.12937C256.42 3.12937 255.233 3.68937 254.54 4.80937C253.846 5.92937 253.5 7.67604 253.5 10.0494H252.02L252.26 1.60937H275.58L275.82 10.0494H274.3ZM277.606 29.6094V28.2894C278.352 28.2894 278.966 28.156 279.446 27.8894C279.952 27.596 280.419 27.1694 280.846 26.6094C281.299 26.0227 281.806 25.316 282.366 24.4894L285.446 19.8494C285.952 19.1294 286.432 18.5694 286.886 18.1694C287.339 17.7694 287.886 17.476 288.526 17.2894C286.606 16.836 285.006 15.9427 283.726 14.6094C282.446 13.2494 281.806 11.436 281.806 9.16937C281.806 7.59604 282.126 6.24937 282.766 5.12937C283.432 3.98271 284.432 3.11604 285.766 2.52937C287.099 1.91604 288.766 1.60937 290.766 1.60937H301.446V2.92937C300.486 2.95604 299.806 3.18271 299.406 3.60937C299.032 4.00937 298.819 4.56937 298.766 5.28937C298.712 6.00937 298.686 6.86271 298.686 7.84937V25.1294C298.686 25.6627 298.672 26.1827 298.646 26.6894C298.646 27.1694 298.619 27.6094 298.566 28.0094L301.446 27.8494V29.6094H292.446V28.2894C293.459 28.236 294.152 28.0094 294.526 27.6094C294.899 27.1827 295.099 26.6094 295.126 25.8894C295.179 25.1427 295.206 24.3027 295.206 23.3694V17.8894L291.646 17.9294C291.059 18.276 290.539 18.6894 290.086 19.1694C289.659 19.6494 289.299 20.116 289.006 20.5694L286.006 25.1694C285.632 25.756 285.232 26.356 284.806 26.9694C284.379 27.5827 283.952 28.1294 283.526 28.6094C283.126 29.0627 282.726 29.396 282.326 29.6094H277.606ZM292.086 16.4494C292.859 16.4494 293.539 16.436 294.126 16.4094C294.712 16.3827 295.072 16.356 295.206 16.3294V6.32937C295.206 5.60937 295.219 4.99604 295.246 4.48937C295.272 3.98271 295.299 3.55604 295.326 3.20937C294.712 3.15604 294.126 3.12937 293.566 3.12937C293.032 3.12937 292.539 3.12937 292.086 3.12937C290.859 3.12937 289.752 3.36937 288.766 3.84937C287.779 4.30271 286.992 5.00937 286.406 5.96937C285.846 6.90271 285.566 8.10271 285.566 9.56937C285.566 10.9027 285.859 12.0894 286.446 13.1294C287.032 14.1694 287.819 14.9827 288.806 15.5694C289.792 16.156 290.886 16.4494 292.086 16.4494Z" fill="#353434"></path></svg> 