<?xml version="1.0" encoding="UTF-8"?> <svg xmlns="http://www.w3.org/2000/svg" width="277" height="202" viewBox="0 0 277 202" fill="none"><path d="M178.416 13.1862C177.451 13.3964 176.235 13.7749 175.69 14.0693C175.144 14.3636 174.473 14.658 174.18 14.7C173.047 14.9103 171.537 16.2138 170.279 18.1481L168.936 20.1245H164.071H159.205L155.598 21.8906C151.445 23.9511 151.194 24.2034 149.306 27.9038C148.09 30.3006 147.922 31.0575 147.922 33.7908C147.964 37.3651 148.509 39.4255 150.313 42.369C151.361 44.0511 152.074 44.6398 154.256 45.649C156.646 46.7002 157.108 46.7843 158.576 46.4059C159.709 46.1115 160.254 45.7331 160.254 45.2285C160.254 44.4716 158.073 41.7803 157.443 41.7803C156.563 41.7803 154.046 38.7107 153.543 37.0707C151.823 31.478 152.997 27.7356 157.318 24.9603C159.876 23.3203 163.567 22.0588 166.252 21.9326L168.391 21.8065L168.265 23.6988C168.14 26.0956 169.188 28.6186 170.53 29.2494C171.118 29.5017 171.663 29.6278 171.747 29.5437C172.082 29.2073 172.166 25.9695 171.873 25.4649C171.369 24.708 172.292 21.8906 173.718 19.9563C175.396 17.6015 178.29 16.2559 182.443 15.8774C186.302 15.541 186.47 15.5831 186.47 16.2559C186.512 16.5082 186.679 17.0969 186.889 17.5594C187.057 17.9799 187.057 18.4425 186.805 18.6107C186.176 18.9891 185.379 21.8065 185.673 22.5634C186.176 23.867 187.644 23.3203 190.203 20.8393C193.6 17.6015 195.781 16.7184 198.969 17.3912C201.989 18.022 205.177 20.3347 206.603 22.8998C207.191 23.9931 207.652 25.2126 207.652 25.6331C207.652 26.0536 206.645 27.3992 205.471 28.6607C203.667 30.4688 203.374 30.9314 203.877 31.2678C204.254 31.5201 204.548 31.5201 204.632 31.2678C204.716 31.0155 205.471 30.8473 206.268 30.8473C207.652 30.8473 210.043 29.7119 211.385 28.4504C212.308 27.5253 213.105 28.5345 212.811 30.2586C212.685 31.0996 212.769 31.9406 213.105 32.319C214.195 33.6647 210.798 36.7343 207.358 37.4912C204.884 38.0379 203.415 37.7015 202.115 36.2297C201.486 35.4728 200.731 35.0523 200.228 35.1364C199.598 35.2626 199.473 35.6831 199.473 37.9958C199.473 41.6542 198.005 44.2193 195.236 45.5649C193.139 46.6161 193.6 46.7002 189.49 44.4716C188.064 43.6726 187.686 43.8829 188.357 45.1023C188.651 45.691 188.651 45.9854 188.357 45.9854C187.56 45.9854 187.938 47.331 188.777 47.5412C189.238 47.6674 189.532 47.9197 189.406 48.0879C189.322 48.2561 189.574 48.7186 190.035 49.1391C191.545 50.5268 191.042 52.2088 188.231 55.1103C187.267 56.1195 186.176 56.9184 185.798 56.9184C185.127 56.9184 184.246 55.9933 180.304 51.3257C179.381 50.1904 179.045 50.0642 178.416 50.4427C177.997 50.695 177.619 51.4519 177.535 52.1247C177.409 53.3442 174.347 56.9184 173.467 56.9184C173.257 56.8764 172.376 56.3297 171.579 55.6569C170.111 54.3954 168.517 54.017 168.014 54.858C167.846 55.1103 167.846 55.9513 168.014 56.7502C168.223 58.0117 168.559 58.3481 170.446 59.1891C173.676 60.7029 174.809 60.4927 176.529 58.0538C177.326 56.9605 178.039 56.0774 178.122 56.0774C178.206 56.0774 179.003 56.8764 179.926 57.8856C180.849 58.8948 182.527 60.1142 183.659 60.6609L185.673 61.628L188.399 60.1983C190.622 59.063 191.293 58.4322 192.216 56.7082C192.845 55.5308 193.391 54.017 193.391 53.3442C193.391 51.536 194.397 50.3165 196.075 50.0222C196.914 49.854 198.172 49.2232 198.885 48.6345C200.144 47.5833 202.619 43.0839 202.619 41.8644C202.619 41.4439 203.541 41.3598 206.519 41.4439L210.378 41.5701L210.504 43.8829C210.588 45.1444 210.546 46.8264 210.378 47.5412C210.169 48.8027 210.001 48.9289 208.659 48.9289C207.82 48.9289 206.603 48.5504 205.932 48.0458C203.793 46.532 202.493 47.9197 204.422 49.6437C205.848 50.9473 207.233 51.536 208.239 51.2837C210.085 50.8211 210.295 51.4939 209.372 54.6057C208.868 56.1615 208.491 57.8015 208.491 58.3061C208.491 58.7686 208.197 59.4835 207.862 59.8619C207.233 60.5347 207.4 60.6188 210.253 60.8711C213.86 61.2496 215.076 61.7542 214.363 62.5952C214.028 63.0157 213.273 63.1419 211.805 62.9737C209.54 62.7213 208.491 63.226 208.491 64.5295C208.491 65.1182 208.784 65.3285 209.54 65.3285C210.295 65.3285 210.588 65.5387 210.588 66.1695C210.588 66.8423 210.295 67.0105 209.33 67.0105C208.575 67.0105 207.946 66.7582 207.82 66.3797C207.065 64.4875 204.506 65.749 204.506 67.9776C204.506 69.4914 203.248 70.5427 202.619 69.5335C202.283 68.9868 201.989 69.0289 200.228 69.7017C199.137 70.1642 197.459 70.5847 196.536 70.6688C195.614 70.7529 194.439 71.0473 193.936 71.2996C193.139 71.678 192.761 71.5939 191.545 70.6688C190.748 70.0381 188.735 68.8186 187.015 67.9776C184.079 66.4638 183.785 66.3797 179.758 66.3797C176.067 66.3797 175.27 66.5059 173.173 67.5151C171.873 68.1458 170.446 69.155 170.069 69.7437C169.691 70.2904 169.23 70.6688 168.978 70.5427C168.601 70.2904 167.426 71.5098 167.384 72.1406C167.384 72.6031 168.517 72.5611 169.398 72.0985C169.775 71.8883 171.495 71.2575 173.215 70.7529C176.319 69.7858 176.361 69.7858 179.926 70.5427C181.898 70.9632 183.617 71.4257 183.743 71.5939C183.869 71.8042 185.798 73.1919 188.022 74.6636C193.265 78.1958 195.026 79.5835 198.676 82.9475C202.367 86.3956 207.736 89.7176 209.623 89.7176C210.336 89.7176 211.091 89.9278 211.259 90.1801C211.385 90.4324 211.888 90.5165 212.35 90.4324C213.273 90.1801 215.915 91.4837 218.054 93.2919C221.284 95.9831 226.485 99.3471 229.086 100.398C230.554 100.987 233.281 101.744 235.126 102.08C241.25 103.174 241.502 103.174 242.299 102.291C243.012 101.492 242.97 101.45 241.921 100.314C240.747 99.0948 238.691 98.0435 232.19 95.3523C230.135 94.5113 228.121 93.5442 227.786 93.2919C226.947 92.577 223.256 90.7688 220.571 89.6755C218.264 88.7504 217.383 88.5822 213.315 88.1617C211.091 87.9515 210.63 87.6992 208.784 85.9751C207.652 84.9239 206.226 83.4942 205.597 82.8214C203.374 80.2983 197.501 74.7898 196.872 74.6636C195.865 74.4113 196.536 73.5283 197.837 73.4021C198.508 73.318 200.06 72.8975 201.276 72.3929C203.038 71.7201 203.709 71.1734 204.548 69.6596C205.471 68.1458 205.806 67.8935 206.561 68.1038C207.023 68.2299 207.61 68.5243 207.82 68.7345C208.491 69.3232 210.336 69.155 211.385 68.4402C212.224 67.8515 212.308 67.5151 212.098 66.1274C211.847 64.5295 211.888 64.4875 213.105 64.4875C214.405 64.4875 216.041 63.226 216.041 62.2588C216.041 61.2496 214.489 60.2404 212.685 59.9881C210.714 59.6937 210.756 60.0301 212.056 55.4467C212.56 53.5544 212.769 51.3257 212.727 46.6161V40.3086L214.909 38.3743C217.048 36.44 217.09 36.3979 217.174 33.7488C217.299 29.6699 215.076 24.1193 213.273 24.1193C213.021 24.1193 212.643 23.4044 212.476 22.5634C212.056 20.2927 211.343 19.1153 209.078 16.8446C206.813 14.658 204.8 13.8169 200.06 13.2282C196.243 12.7236 193.097 13.3964 190.454 15.2887L189.322 16.0877L187.77 14.7841C185.547 12.9339 182.401 12.4293 178.416 13.1862ZM173.676 58.3902C173.676 58.7266 173.383 59.0209 173.047 59.0209C172.376 59.0209 172.208 58.5163 172.712 58.0538C173.173 57.5492 173.676 57.7174 173.676 58.3902Z" fill="#272727"></path><path d="M173.466 33.8744C169.817 35.1779 168.39 38.9204 169.984 42.9993C170.404 44.0505 170.446 44.0085 171.159 41.7798C172.123 38.9204 173.34 37.8271 175.144 38.2055C180.471 39.3409 182.232 38.7942 181.226 36.3133C180.848 35.3882 180.177 34.8836 178.457 34.2108C175.899 33.2857 175.311 33.2436 173.466 33.8744Z" fill="#272727"></path><path d="M122.083 34.6733C109.332 35.7246 97.461 39.0886 91.1273 43.4198C86.765 46.4053 79.7182 54.7733 77.8726 59.2306C76.782 61.7536 77.0756 64.0664 78.4598 64.0664C79.3407 64.0664 80.5571 62.7628 80.5571 61.7536C80.5571 60.0716 87.0586 51.3672 91.2112 47.5407C94.8604 44.1346 104.172 40.4342 113.274 38.7942C122.544 37.1543 140.413 37.2804 144.44 39.0465C145.405 39.467 145.405 38.3317 144.398 37.4486C142.888 36.061 140.497 35.4723 133.953 34.8415C130.304 34.5051 127.032 34.2528 126.697 34.2528C126.361 34.2949 124.264 34.4631 122.083 34.6733Z" fill="#272727"></path><path d="M232.399 40.6031C231.14 41.0657 229.63 41.7806 229.043 42.159C228.456 42.5375 225.184 44.2615 221.787 45.9856C218.347 47.7096 215.788 49.1814 216.04 49.2655C217.508 49.7701 222.584 47.6255 230.134 43.3364C233.489 41.4862 234.79 40.9395 236.174 40.9395C237.768 40.9395 237.894 41.0237 237.39 41.6124C237.097 41.9908 235.796 43 234.496 43.8831C231.35 46.0276 230.931 46.5743 231.811 47.2891C232.399 47.7517 232.902 47.6255 235.293 46.322C236.803 45.481 239.026 44.5559 240.159 44.3036C241.333 44.0092 243.137 43.5046 244.227 43.1682C245.57 42.7898 246.45 42.7057 246.912 42.958C247.499 43.2944 247.163 43.5046 245.36 44.0933C244.101 44.5138 242.088 45.2707 240.872 45.8174C239.026 46.6584 238.649 46.9948 238.774 47.7937C238.9 48.5927 239.11 48.6768 240.368 48.5927C241.165 48.5086 242.969 47.9619 244.311 47.4153C245.695 46.8686 247.667 46.4061 248.715 46.4061C250.435 46.4061 250.561 46.4902 249.974 47.0368C249.596 47.4153 247.038 48.2563 244.227 48.887C238.523 50.2747 238.271 50.3588 238.271 51.4521C238.271 52.8818 239.781 52.8398 245.863 51.368C249.68 50.4429 250.855 50.527 250.855 51.7465C250.855 52.5034 248.506 54.3956 247.541 54.3956C247.289 54.3956 246.283 54.7741 245.402 55.2366C244.185 55.8674 242.508 56.1617 239.278 56.372C235.083 56.6243 234.706 56.7084 232.65 58.096C231.476 58.895 229.588 60.4508 228.414 61.5021C223.297 66.2958 210.21 73.6546 205.512 74.4115C203.624 74.7479 202.869 75.4628 203.247 76.6402C203.666 77.9437 204.925 78.0699 207.987 77.1027C215.033 74.832 226.61 68.104 231.56 63.3944C234.454 60.6611 236.887 59.3575 239.655 59.1473C242.633 58.937 246.786 57.9278 248.715 56.9607C251.987 55.2787 253.875 51.9147 252.323 50.6111C251.4 49.8542 251.568 49.0552 252.742 48.2563C254.462 47.1209 253.875 45.7333 251.4 45.0605C251.022 44.9764 251.064 44.5559 251.568 43.5467C252.197 42.2431 252.197 42.117 251.526 41.4442C250.603 40.519 244.689 40.519 242.172 41.4862L240.368 42.159L239.739 40.9395C239.152 39.7621 238.9 39.678 236.887 39.7201C235.712 39.7201 233.657 40.0985 232.399 40.6031Z" fill="#272727"></path><path d="M118.936 49.3915C107.15 50.9053 101.235 52.6714 93.2656 57.0446C85.0024 61.544 74.2225 71.0474 69.5246 77.9436C67.5951 80.761 67.8048 85.1342 69.9021 85.9331C71.4121 86.5218 75.355 86.4377 78.2492 85.7229C81.6048 84.8819 82.3179 84.9239 82.1921 85.807C82.0243 86.9003 83.4085 89.5915 84.6669 90.5587C86.7641 92.2407 89.8261 91.652 97.4182 88.0777C99.8091 86.9844 101.948 86.0172 102.158 85.9331C102.41 85.8911 102.913 86.4798 103.291 87.3208C104.423 89.6756 106.059 90.3064 110.002 89.9699C114.742 89.5915 119.314 87.7413 122.208 85.1342L123.424 84.0409L124.095 84.966C124.473 85.4706 125.144 86.3536 125.564 86.9423C126.025 87.6151 126.906 88.1197 127.871 88.2879C130.177 88.7505 136.595 87.6992 139.825 86.3536C141.377 85.7229 142.635 85.3024 142.635 85.4706C142.635 85.6388 141.167 86.9003 139.405 88.2459C137.644 89.6335 135.421 91.4417 134.456 92.2407C133.533 93.0396 131.226 94.6375 129.422 95.7729C127.577 96.9082 125.354 98.38 124.515 99.0528C123.173 100.104 122.753 100.23 121.159 99.9779C120.153 99.8097 119.188 99.5574 118.936 99.3892C118.517 99.0528 116.671 98.7164 113.022 98.2959C110.421 97.9595 107.359 98.8005 102.494 101.071C95.9082 104.141 92.1751 107.505 89.4486 112.761C87.4772 116.546 87.1416 118.816 88.5258 119.573C89.2389 119.952 89.4906 119.699 90.7489 117.134C94.3143 110.07 97.1666 107.337 104.884 103.594C108.408 101.912 110.086 101.324 111.344 101.324C114.574 101.408 120.95 102.375 122.418 103.006C124.095 103.678 123.76 103.804 129.213 100.02C135.966 95.3103 141.335 91.1474 144.019 88.4982C147.081 85.5547 152.283 79.2051 152.283 78.4061C152.283 77.5651 151.024 77.9015 149.053 79.2471C147.333 80.4246 147.081 80.5087 146.117 80.0041C145.236 79.4994 144.9 79.5415 143.768 80.2143C138.944 82.9896 134.959 84.6716 132.317 85.0921C128.206 85.6808 127.703 85.6388 126.444 84.5034L125.27 83.5363L126.402 82.1907C127.032 81.4338 127.535 80.3825 127.535 79.8779C127.535 78.9948 126.822 77.9436 126.235 77.9436C126.109 77.9436 124.473 79.2051 122.669 80.7189C119.02 83.7465 115.581 85.5967 111.889 86.5639C108.827 87.3628 107.653 87.3628 106.143 86.5639C104.171 85.5547 104.423 84.0409 106.73 82.9476C108.282 82.2327 110.757 79.6256 110.757 78.7005C110.757 78.1118 109.205 78.1118 108.03 78.7425C107.359 79.0789 106.688 79.4153 106.562 79.4153C105.807 79.6256 104.507 80.2984 103.5 81.0133C99.7672 83.5783 90.9586 87.9515 88.7355 88.2459C87.0997 88.4982 86.7641 88.4141 85.8413 87.4049C84.7507 86.2275 84.4571 84.9239 85.0863 83.9988C85.2541 83.7465 87.3514 82.6532 89.7842 81.5599C96.7052 78.4902 97.1246 78.2379 97.2504 77.1867C97.3763 76.3877 97.2085 76.2616 95.9501 76.2616C94.4821 76.2616 92.5526 76.8923 86.6383 79.2051C82.1082 81.0133 76.11 82.9476 74.3064 83.2419C73.3416 83.3681 72.5027 83.2419 71.9994 82.8635C71.2863 82.3168 71.2444 82.1066 71.7058 81.0133C71.9994 80.2984 72.8802 79.121 73.6772 78.322C74.4741 77.5651 75.1033 76.7241 75.1033 76.4718C75.1033 75.4626 86.2188 65.5388 90.4553 62.7635C100.48 56.1195 107.108 53.7227 118.307 52.7135C121.201 52.4612 124.892 52.0827 126.486 51.9145C130.555 51.452 138.776 52.0407 143.264 53.134C147.543 54.1852 155.345 57.0867 156.226 58.0118C156.561 58.3482 157.232 58.6005 157.694 58.6005C158.155 58.6005 158.616 58.7687 158.784 58.9789C159.078 59.4835 162.727 61.544 163.272 61.544C164.111 61.544 163.314 60.6189 160.252 58.18C155.932 54.7319 150.605 52.1248 144.523 50.5269C139.741 49.2654 139.07 49.1812 130.681 49.0971C125.857 49.0551 120.572 49.1812 118.936 49.3915Z" fill="#272727"></path><path d="M256.097 91.9042C255.175 92.0724 253.707 92.1985 252.868 92.1985C251.483 92.2406 251.064 92.4929 249.596 94.3851C248.673 95.5625 247.876 96.7399 247.834 96.9922C247.75 97.623 247.708 98.0014 247.289 99.9358C246.995 101.408 246.869 101.534 245.863 101.365L244.772 101.155L246.031 102.08C248.086 103.552 250.645 106.033 250.393 106.285C250.267 106.411 249.009 106.117 247.541 105.613L244.94 104.729L243.891 105.823L242.843 106.958L243.556 109.565C244.185 112.046 246.408 116.335 248.421 118.816C249.554 120.288 249.26 120.582 246.953 120.246C245.569 120.036 244.437 119.405 242.381 117.681C239.487 115.242 238.271 114.822 238.271 116.167C238.271 117.891 242.675 121.886 245.024 122.306C247.037 122.643 247.415 123.232 246.114 123.82C244.772 124.451 242.339 123.61 238.355 121.171C235.418 119.363 235.334 119.363 235.334 120.162C235.334 120.877 238.271 123.61 239.445 123.946C240.536 124.325 240.2 125.46 239.026 125.46C238.606 125.46 237.725 125.208 237.096 124.872C235.796 124.199 232.356 120.667 231.601 119.195C231.014 118.143 229.336 118.101 229.127 119.153C229.085 119.531 229.882 121.171 230.93 122.811C234.118 127.815 238.229 129.287 242.004 126.722C243.094 125.965 244.395 125.46 245.192 125.46C246.072 125.46 246.869 125.082 247.499 124.409C248.463 123.358 250.435 122.937 250.435 123.82C250.435 124.031 250.015 125.124 249.512 126.217C249.051 127.31 248.128 129.413 247.499 130.927C246.492 133.324 246.24 133.66 245.359 133.534C244.814 133.45 242.255 133.366 239.739 133.324C235.922 133.24 234.873 133.366 233.95 133.996C232.231 135.132 232.482 136.435 234.789 138.664C239.487 143.205 247.918 145.728 255.468 144.887C257.901 144.635 258.237 144.467 259.117 143.205C260.208 141.565 259.998 140.598 257.901 137.949C256.349 135.973 254.545 135.132 251.903 135.132C249.68 135.132 249.596 134.922 250.854 130.885C251.358 129.413 251.903 127.605 252.113 126.89C252.364 126.175 252.532 125.25 252.532 124.787C252.532 123.063 253.623 122.222 256.223 122.012C259.495 121.676 261.844 120.414 264.906 117.302C268.136 114.023 269.478 111.458 270.443 106.748C270.862 104.645 271.449 102.711 271.701 102.417C272.456 101.66 272.372 100.903 271.449 99.0107C269.142 94.5113 261.424 90.937 256.097 91.9042ZM264.612 96.4456C268.052 98.464 269.436 100.02 268.429 100.693C266.877 101.66 258.95 98.8424 254.965 95.8989C253.287 94.6374 254.168 94.259 258.195 94.4692C261.299 94.5954 261.802 94.7636 264.612 96.4456ZM254.545 97.665C258.111 101.155 262.389 103.216 266.584 103.51C268.303 103.594 269.73 103.762 269.73 103.804C269.73 104.225 265.2 112.509 264.361 113.56C263.144 115.242 258.488 118.606 257.104 118.9C256.559 119.027 255.3 119.195 254.336 119.321C252.7 119.573 252.49 119.489 251.945 118.354C251.609 117.723 250.603 116.251 249.764 115.116C248.044 112.887 245.821 108.64 245.821 107.631C245.821 106.874 246.953 106.748 248.589 107.379C249.176 107.631 250.351 107.883 251.148 108.009C253.413 108.304 253.413 107.21 251.106 104.898L249.134 102.879L249.596 100.819C250.183 98.1696 251.316 95.1841 251.693 95.1841C251.861 95.1841 253.161 96.3194 254.545 97.665ZM245.066 135.174C245.443 135.384 245.863 136.099 246.031 136.814C246.24 137.781 246.534 138.075 247.331 138.075C247.918 138.075 248.463 137.781 248.589 137.445C248.841 136.772 250.267 136.561 250.519 137.15C250.603 137.318 251.567 137.991 252.658 138.664C255.594 140.346 255.091 140.809 250.183 140.809C247.121 140.767 245.276 140.556 243.094 139.883C239.655 138.79 236.509 136.898 236.677 135.973C236.928 134.627 242.927 134.081 245.066 135.174Z" fill="#272727"></path><path d="M254.755 107.463C252.574 112.256 252.029 114.821 252.784 116.588C253.371 117.975 254.797 118.564 256.349 118.101C257.65 117.681 262.012 113.476 263.312 111.457C264.445 109.649 264.319 109.271 261.97 107.799C260.67 107 257.062 105.697 256.014 105.697C255.762 105.697 255.175 106.496 254.755 107.463Z" fill="#272727"></path><path d="M174.096 94.5113C174.096 94.8057 174.599 95.2682 175.27 95.5205C176.361 95.941 177.074 96.1513 181.856 97.3287C186.973 98.5902 192.258 101.828 197.921 107.168C202.451 111.416 207.736 114.275 212.182 114.948C217.006 115.705 221.662 116.041 222.962 115.747C223.675 115.578 225.227 115.452 226.485 115.41C228.373 115.368 228.667 115.284 228.247 114.78C227.618 114.023 223.633 113.055 218.767 112.425C210.378 111.331 205.303 109.439 201.318 105.823C198.801 103.552 194.817 100.482 192.552 99.0948C190.119 97.581 184.288 95.2262 181.394 94.5534C177.829 93.7544 174.096 93.7124 174.096 94.5113Z" fill="#272727"></path><path d="M28.7546 103.173C26.6993 103.594 17.3036 107.673 13.5704 109.775C9.25008 112.172 7.57227 114.359 7.57227 117.638C7.57227 119.363 7.78199 119.867 8.95646 121.003C10.9279 122.979 14.3255 123.946 18.0166 123.61C21.0786 123.315 28.503 121.297 30.6002 120.246C32.1942 119.405 32.4039 119.405 34.5431 120.372C37.6051 121.717 44.2744 124.114 45.8683 124.409C46.7492 124.577 47.5461 124.871 47.672 125.081C47.9236 125.502 49.979 125.586 50.9437 125.208C51.3212 125.081 51.6148 124.535 51.6148 124.03C51.6148 122.769 50.1467 122.054 43.9388 120.204C41.1704 119.363 37.9826 118.227 36.8081 117.596C33.1589 115.746 33.0331 115.746 26.6574 117.975C19.6945 120.414 16.0872 120.918 13.2768 119.825C10.7182 118.816 10.3826 118.353 11.0957 116.587C11.8926 114.695 12.5218 114.19 17.0519 111.667C24.0148 107.799 27.8318 106.411 32.1103 106.201L35.8853 106.033L39.2829 108.598C41.1704 110.027 43.0999 111.163 43.6033 111.163C44.1066 111.163 46.2458 110.784 48.385 110.28C50.6501 109.775 52.9151 109.523 53.9218 109.649C57.7388 110.154 64.3242 113.728 68.351 117.428L70.0707 119.026V117.512C70.0707 116.251 69.6932 115.662 67.3443 113.349C65.8343 111.92 63.9887 110.448 63.1917 110.112C62.3948 109.775 61.6397 109.313 61.472 109.06C61.0525 108.345 54.5929 106.537 52.5376 106.537C50.4404 106.579 45.8264 107.462 44.9455 108.009C44.61 108.177 43.8969 107.967 43.1838 107.42C42.5546 106.958 41.8835 106.537 41.7577 106.537C41.6318 106.537 41.0866 106.159 40.5832 105.654C39.0312 104.182 37.4793 103.594 34.2914 103.173C30.8938 102.711 31.0197 102.711 28.7546 103.173Z" fill="#272727"></path><path d="M184.414 107.042C184.036 108.598 180.471 114.359 178.541 116.504C177.577 117.639 175.857 119.91 174.724 121.634C172.082 125.586 163.315 134.964 160.757 136.562C155.01 140.178 146.034 144.93 141.797 146.612C140.287 147.2 138.064 147.789 136.806 147.957C135.505 148.125 134.247 148.588 133.786 149.05C132.695 150.144 132.779 151.868 133.953 152.877C134.75 153.592 135.254 153.676 137.687 153.466C141.21 153.129 143.391 152.414 148.718 149.849C154.926 146.822 159.163 144.425 163.399 141.523C167.51 138.706 168.433 137.907 173.13 132.609C177.157 128.067 178.835 125.586 181.939 119.573C185.882 111.878 187.392 106.117 185.462 106.117C185.001 106.117 184.581 106.496 184.414 107.042Z" fill="#272727"></path><path d="M111.596 109.313C103.081 112.341 95.7823 118.943 92.1331 127.016C91.3781 128.698 90.623 133.492 90.623 136.73C90.623 138.58 90.8328 139.379 91.3781 139.884C92.3428 140.767 92.5106 140.767 93.2656 140.01C93.6851 139.547 93.8948 138.244 93.9367 135.384C93.9787 133.155 94.3142 130.38 94.6917 129.161C96.3276 123.526 103.165 116.588 110.841 112.845C113.148 111.668 115.497 110.743 116.042 110.743C117.007 110.743 117.384 110.154 116.713 109.734C115.58 109.061 112.938 108.808 111.596 109.313Z" fill="#272727"></path><path d="M82.5284 110.07C79.8859 111.163 80.1375 110.995 75.188 115.116C71.5387 118.101 70.4062 119.657 71.2451 120.498C72.2099 121.465 72.9229 121.003 82.0251 113.938C82.7381 113.392 84.2901 112.424 85.5065 111.794C87.7296 110.658 88.233 109.775 87.0166 109.313C85.926 108.892 85.0871 109.018 82.5284 110.07Z" fill="#272727"></path><path d="M60.6334 125.754C54.1319 126.09 50.6505 126.679 49.1404 127.73C48.3015 128.277 47.1271 128.992 46.5398 129.286C45.9526 129.623 44.107 130.8 42.4292 131.935C39.9964 133.533 39.1994 134.374 38.5283 135.888C37.4796 138.201 37.6474 141.355 38.9058 143.037C40.1222 144.676 43.4778 145.686 48.679 145.896C51.1119 146.022 53.7125 146.19 54.4675 146.316C56.4389 146.611 58.6201 148.713 59.2073 150.816C59.7526 152.918 60.5495 153.885 61.9337 154.222C63.1921 154.558 63.8632 153.928 64.6182 151.867C65.1635 150.395 65.1216 150.269 63.1082 147.284C60.214 142.994 59.0815 142.574 50.4407 142.658C43.352 142.742 41.8839 142.364 41.3805 140.345C40.9192 138.537 42.3033 136.813 46.1623 134.416C52.2024 130.674 52.8316 130.548 61.3046 130.8C66.1702 130.968 68.9806 131.22 69.7356 131.599C70.3228 131.935 71.4553 133.239 72.2103 134.542C73.4687 136.771 73.5106 137.023 73.0492 138.369C72.5459 139.757 72.5878 139.925 73.6784 141.06C74.3496 141.733 75.3562 142.448 75.9435 142.574C76.5307 142.7 77.7052 143.289 78.628 143.835C79.6766 144.55 80.5575 144.803 81.2286 144.634C81.8158 144.466 82.1933 144.55 82.1514 144.803C82.0675 145.013 82.445 145.475 82.9483 145.77C86.4298 147.788 88.569 149.47 89.8274 151.11C90.6243 152.161 92.0924 154.054 93.141 155.315C95.0286 157.67 95.8255 159.184 98.3423 165.618C99.8523 169.486 100.901 170.201 101.362 167.72C102.033 164.104 101.027 159.394 98.4261 153.843C95.4061 147.368 91.7568 144.046 83.2839 139.883C81.2286 138.874 78.586 137.738 77.3696 137.36L75.1885 136.687L75.0207 134.038C74.7271 129.286 71.4553 126.09 66.7994 125.922C65.4991 125.88 64.1149 125.796 63.7793 125.754C63.4438 125.67 62.0176 125.67 60.6334 125.754Z" fill="#272727"></path><path d="M133.575 133.702C132.61 136.687 130.639 140.472 126.151 148.293C123.886 152.204 121.075 157.292 119.901 159.647C116.713 166.081 113.232 170.874 109.289 174.406C102.703 180.293 97.0408 182.732 92.5107 181.765C88.6518 180.924 86.4287 180.125 84.2056 178.78C81.1855 176.972 80.766 176.551 78.2074 173.187C76.949 171.547 75.1873 169.276 74.2226 168.141C73.2998 166.964 72.1673 165.24 71.7059 164.272C71.2445 163.305 70.6992 162.38 70.4475 162.212C70.1958 162.086 68.9794 160.53 67.7211 158.806C65.5819 155.946 65.2882 155.694 64.0718 155.82C62.8974 155.946 62.6876 156.157 62.3521 157.46C62.0165 158.764 62.1843 159.437 63.2749 161.833C64.0299 163.389 65.2463 165.408 65.9594 166.375C67.3016 168.015 69.0214 170.622 72.1673 175.752C73.0062 177.14 74.5581 178.822 75.8584 179.789C77.0329 180.672 78.0396 181.597 78.0396 181.807C78.0396 183.153 87.3095 186.937 90.4974 186.895C91.7138 186.895 92.8043 187.064 92.9302 187.274C93.098 187.526 94.1885 187.694 95.363 187.694C98.2992 187.694 103.92 185.382 109.331 181.933C114.029 178.99 121.411 169.781 124.179 163.473C124.892 161.876 126.319 158.848 127.325 156.787C128.374 154.685 129.884 151.279 130.723 149.218C131.562 147.116 132.485 144.845 132.778 144.172C133.701 141.902 134.372 138.411 134.288 135.846C134.246 133.113 133.995 132.44 133.575 133.702Z" fill="#272727"></path></svg> 