<?xml version="1.0" encoding="UTF-8"?> <svg xmlns="http://www.w3.org/2000/svg" width="277" height="193" viewBox="0 0 277 193" fill="none"><path d="M103.34 184.658V184.338C103.852 184.338 104.172 184.189 104.3 183.89C104.449 183.57 104.524 183.197 104.524 182.77V167.442C104.524 167.229 104.417 167.122 104.204 167.122C104.118 167.122 104.001 167.154 103.852 167.218L100.204 168.37V167.218L107.66 164.626V165.49C107.318 165.64 107.041 165.874 106.828 166.194C106.636 166.514 106.561 166.888 106.604 167.314V182.642C106.604 183.09 106.678 183.485 106.828 183.826C106.977 184.168 107.318 184.338 107.852 184.338V184.658H103.34ZM118.002 172.818C117.234 172.818 116.562 172.957 115.986 173.234C115.431 173.49 114.962 173.842 114.578 174.29C114.215 174.738 113.938 175.25 113.746 175.826C113.575 176.402 113.49 177 113.49 177.618C113.49 178.365 113.597 179.112 113.81 179.858C114.045 180.605 114.375 181.277 114.802 181.874C115.25 182.45 115.783 182.93 116.402 183.314C117.021 183.677 117.735 183.858 118.546 183.858C119.271 183.858 119.911 183.72 120.466 183.442C121.021 183.144 121.479 182.76 121.842 182.29C122.226 181.8 122.503 181.245 122.674 180.626C122.866 180.008 122.962 179.378 122.962 178.738C122.962 178.013 122.845 177.298 122.61 176.594C122.397 175.89 122.077 175.261 121.65 174.706C121.245 174.13 120.733 173.672 120.114 173.33C119.495 172.989 118.791 172.818 118.002 172.818ZM122.546 167.538C122.205 167.112 121.789 166.77 121.298 166.514C120.829 166.258 120.381 166.13 119.954 166.13C118.973 166.13 118.119 166.376 117.394 166.866C116.669 167.336 116.061 167.922 115.57 168.626C115.101 169.33 114.727 170.098 114.45 170.93C114.173 171.741 113.991 172.498 113.906 173.202C114.525 172.648 115.218 172.264 115.986 172.05C116.754 171.816 117.554 171.698 118.386 171.698C119.474 171.698 120.423 171.89 121.234 172.274C122.066 172.637 122.749 173.128 123.282 173.746C123.837 174.344 124.242 175.037 124.498 175.826C124.775 176.616 124.914 177.426 124.914 178.258C124.914 179.09 124.775 179.912 124.498 180.722C124.221 181.533 123.805 182.258 123.25 182.898C122.695 183.517 122.002 184.018 121.17 184.402C120.359 184.786 119.41 184.978 118.322 184.978C117.127 184.978 116.093 184.754 115.218 184.306C114.343 183.858 113.629 183.261 113.074 182.514C112.519 181.746 112.103 180.861 111.826 179.858C111.57 178.856 111.442 177.81 111.442 176.722C111.442 175.314 111.634 173.917 112.018 172.53C112.423 171.122 113.01 169.864 113.778 168.754C114.546 167.624 115.485 166.706 116.594 166.002C117.703 165.298 118.973 164.946 120.402 164.946C120.701 164.946 121.01 164.968 121.33 165.01C121.671 165.053 121.97 165.096 122.226 165.138C122.354 165.16 122.482 165.181 122.61 165.202C122.759 165.224 122.845 165.234 122.866 165.234V167.538H122.546ZM127.801 173.81C127.801 173.384 127.939 173.021 128.217 172.722C128.515 172.424 128.878 172.274 129.305 172.274C129.731 172.274 130.094 172.424 130.393 172.722C130.691 173.021 130.841 173.384 130.841 173.81C130.841 174.237 130.691 174.6 130.393 174.898C130.094 175.176 129.731 175.314 129.305 175.314C128.878 175.314 128.515 175.176 128.217 174.898C127.939 174.6 127.801 174.237 127.801 173.81ZM127.801 183.282C127.801 182.856 127.939 182.493 128.217 182.194C128.515 181.896 128.878 181.746 129.305 181.746C129.731 181.746 130.094 181.896 130.393 182.194C130.691 182.493 130.841 182.856 130.841 183.282C130.841 183.709 130.691 184.072 130.393 184.37C130.094 184.648 129.731 184.786 129.305 184.786C128.878 184.786 128.515 184.648 128.217 184.37C127.939 184.072 127.801 183.709 127.801 183.282ZM133.758 174.738C133.758 173.096 133.961 171.645 134.366 170.386C134.793 169.128 135.348 168.082 136.03 167.25C136.713 166.397 137.481 165.757 138.334 165.33C139.209 164.882 140.094 164.658 140.99 164.658C141.886 164.658 142.772 164.882 143.646 165.33C144.521 165.757 145.289 166.397 145.95 167.25C146.633 168.082 147.177 169.128 147.582 170.386C148.009 171.645 148.222 173.096 148.222 174.738C148.222 176.402 148.009 177.874 147.582 179.154C147.177 180.413 146.633 181.48 145.95 182.354C145.289 183.208 144.521 183.858 143.646 184.306C142.772 184.754 141.886 184.978 140.99 184.978C140.094 184.978 139.209 184.754 138.334 184.306C137.481 183.858 136.713 183.208 136.03 182.354C135.348 181.48 134.793 180.413 134.366 179.154C133.961 177.874 133.758 176.402 133.758 174.738ZM146.206 175.57C146.206 174.034 146.036 172.68 145.694 171.506C145.353 170.312 144.905 169.32 144.35 168.53C143.817 167.72 143.198 167.112 142.494 166.706C141.812 166.28 141.108 166.066 140.382 166.066C139.657 166.066 138.996 166.28 138.398 166.706C137.822 167.112 137.332 167.656 136.926 168.338C136.521 169.021 136.201 169.81 135.966 170.706C135.753 171.602 135.646 172.541 135.646 173.522C135.646 174.696 135.785 175.89 136.062 177.106C136.34 178.301 136.734 179.389 137.246 180.37C137.758 181.33 138.366 182.12 139.07 182.738C139.796 183.357 140.585 183.666 141.438 183.666C142.057 183.666 142.654 183.496 143.23 183.154C143.806 182.792 144.308 182.269 144.734 181.586C145.182 180.904 145.534 180.061 145.79 179.058C146.068 178.056 146.206 176.893 146.206 175.57ZM150.821 174.738C150.821 173.096 151.023 171.645 151.429 170.386C151.855 169.128 152.41 168.082 153.093 167.25C153.775 166.397 154.543 165.757 155.397 165.33C156.271 164.882 157.157 164.658 158.053 164.658C158.949 164.658 159.834 164.882 160.709 165.33C161.583 165.757 162.351 166.397 163.013 167.25C163.695 168.082 164.239 169.128 164.645 170.386C165.071 171.645 165.285 173.096 165.285 174.738C165.285 176.402 165.071 177.874 164.645 179.154C164.239 180.413 163.695 181.48 163.013 182.354C162.351 183.208 161.583 183.858 160.709 184.306C159.834 184.754 158.949 184.978 158.053 184.978C157.157 184.978 156.271 184.754 155.397 184.306C154.543 183.858 153.775 183.208 153.093 182.354C152.41 181.48 151.855 180.413 151.429 179.154C151.023 177.874 150.821 176.402 150.821 174.738ZM163.269 175.57C163.269 174.034 163.098 172.68 162.757 171.506C162.415 170.312 161.967 169.32 161.413 168.53C160.879 167.72 160.261 167.112 159.557 166.706C158.874 166.28 158.17 166.066 157.445 166.066C156.719 166.066 156.058 166.28 155.461 166.706C154.885 167.112 154.394 167.656 153.989 168.338C153.583 169.021 153.263 169.81 153.029 170.706C152.815 171.602 152.709 172.541 152.709 173.522C152.709 174.696 152.847 175.89 153.125 177.106C153.402 178.301 153.797 179.389 154.309 180.37C154.821 181.33 155.429 182.12 156.133 182.738C156.858 183.357 157.647 183.666 158.501 183.666C159.119 183.666 159.717 183.496 160.293 183.154C160.869 182.792 161.37 182.269 161.797 181.586C162.245 180.904 162.597 180.061 162.853 179.058C163.13 178.056 163.269 176.893 163.269 175.57Z" fill="#112250"></path><path d="M82.794 122.375C81.482 122.375 80.234 122.295 79.05 122.135C77.898 121.943 76.826 121.655 75.834 121.271C73.626 123.287 71.546 125.495 69.594 127.895C67.674 130.295 65.994 132.791 64.554 135.383C63.146 137.943 62.026 140.535 61.194 143.159C60.362 145.815 59.946 148.391 59.946 150.887C59.946 153.479 60.554 155.527 61.77 157.031C63.018 158.567 65.002 159.335 67.722 159.335C69.962 159.335 72.01 158.919 73.866 158.087C75.754 157.287 77.37 156.279 78.714 155.063C80.09 153.879 81.146 152.615 81.882 151.271C82.65 149.927 83.034 148.727 83.034 147.671C83.034 146.487 82.682 145.575 81.978 144.935C81.274 144.327 80.266 144.023 78.954 144.023C77.93 144.023 76.938 144.199 75.978 144.551C75.05 144.903 74.17 145.319 73.338 145.799C72.506 146.311 71.754 146.823 71.082 147.335C70.41 147.879 69.866 148.327 69.45 148.679L69.162 148.391C70.73 146.887 72.362 145.687 74.058 144.791C75.754 143.927 77.514 143.495 79.338 143.495C80.97 143.495 82.25 143.879 83.178 144.647C84.106 145.447 84.57 146.455 84.57 147.671C84.57 149.079 84.058 150.503 83.034 151.943C82.01 153.415 80.682 154.743 79.05 155.927C77.418 157.111 75.562 158.071 73.482 158.807C71.434 159.543 69.37 159.911 67.29 159.911C65.338 159.911 63.706 159.655 62.394 159.143C61.114 158.631 60.074 157.943 59.274 157.079C58.506 156.215 57.962 155.207 57.642 154.055C57.322 152.903 57.162 151.703 57.162 150.455C57.162 147.863 57.61 145.223 58.506 142.535C59.434 139.847 60.666 137.223 62.202 134.663C63.77 132.071 65.594 129.591 67.674 127.223C69.786 124.823 72.042 122.631 74.442 120.647C73.322 120.039 72.426 119.287 71.754 118.391C71.114 117.463 70.794 116.391 70.794 115.175C70.794 113.959 71.13 112.855 71.802 111.863C72.474 110.839 73.338 109.975 74.394 109.271C75.482 108.567 76.682 108.023 77.994 107.639C79.338 107.255 80.682 107.063 82.026 107.063V107.543C80.458 107.543 79.05 107.767 77.802 108.215C76.586 108.631 75.546 109.207 74.682 109.943C73.818 110.679 73.162 111.527 72.714 112.487C72.266 113.415 72.042 114.375 72.042 115.367C72.042 117.543 72.986 119.175 74.874 120.263C76.602 118.855 78.378 117.575 80.202 116.423C82.058 115.239 83.898 114.247 85.722 113.447C87.546 112.615 89.338 111.975 91.098 111.527C92.858 111.079 94.554 110.855 96.186 110.855C97.498 110.855 98.554 111.063 99.354 111.479C100.154 111.863 100.554 112.503 100.554 113.399C100.554 114.423 100.042 115.463 99.018 116.519C97.994 117.575 96.65 118.535 94.986 119.399C93.322 120.263 91.418 120.983 89.274 121.559C87.162 122.103 85.002 122.375 82.794 122.375ZM96.186 111.383C94.65 111.383 93.034 111.623 91.338 112.103C89.674 112.551 87.994 113.191 86.298 114.023C84.602 114.855 82.906 115.863 81.21 117.047C79.514 118.199 77.866 119.495 76.266 120.935C78.09 121.607 80.426 121.943 83.274 121.943C85.162 121.943 87.05 121.703 88.938 121.223C90.826 120.711 92.522 120.055 94.026 119.255C95.53 118.455 96.746 117.543 97.674 116.519C98.602 115.495 99.066 114.455 99.066 113.399C99.066 112.599 98.794 112.071 98.25 111.815C97.706 111.527 97.018 111.383 96.186 111.383ZM77.6891 142.247C76.6651 142.247 75.9131 142.055 75.4331 141.671C74.9851 141.287 74.7611 140.743 74.7611 140.039C74.7611 139.271 75.0011 138.439 75.4811 137.543C75.9611 136.615 76.6011 135.767 77.4011 134.999C78.2011 134.231 79.1291 133.591 80.1851 133.079C81.2731 132.567 82.3931 132.311 83.5451 132.311L83.4491 132.791C82.7771 132.823 82.0571 133.111 81.2891 133.655C80.5531 134.167 79.8651 134.823 79.2251 135.623C78.6171 136.391 78.1051 137.223 77.6891 138.119C77.2731 138.983 77.0491 139.799 77.0171 140.567C77.0171 140.855 77.0971 141.127 77.2571 141.383C77.4171 141.639 77.7531 141.767 78.2651 141.767C78.9051 141.767 79.6091 141.495 80.3771 140.951C81.1451 140.375 81.8651 139.591 82.5371 138.599C83.2091 137.575 83.7691 136.375 84.2171 134.999C84.6651 133.591 84.8891 132.071 84.8891 130.439C84.8891 129.831 84.8571 129.111 84.7931 128.279C84.7611 127.415 84.7131 126.551 84.6491 125.687C84.6171 124.823 84.5691 123.991 84.5051 123.191C84.4731 122.391 84.4571 121.703 84.4571 121.127C84.4571 119.431 84.6811 117.975 85.1291 116.759C85.6091 115.511 86.2331 114.471 87.0011 113.639C87.8011 112.775 88.7291 112.071 89.7851 111.527C90.8411 110.983 91.9451 110.551 93.0971 110.231C94.2811 109.879 95.4971 109.623 96.7451 109.463C97.9931 109.271 99.2091 109.111 100.393 108.983C101.577 108.855 102.793 108.711 104.041 108.551C105.289 108.359 106.505 108.119 107.689 107.831C108.873 107.511 109.977 107.127 111.001 106.679C112.057 106.231 112.969 105.687 113.737 105.047C114.537 104.407 115.161 103.655 115.609 102.791C116.089 101.895 116.329 100.871 116.329 99.719C116.329 99.175 116.249 98.679 116.089 98.231L116.473 97.991C116.793 98.439 117.017 98.903 117.145 99.383C117.273 99.831 117.337 100.279 117.337 100.727C117.337 102.039 116.873 103.175 115.945 104.135C115.049 105.095 113.833 105.927 112.297 106.631C110.761 107.303 108.969 107.863 106.921 108.311C104.873 108.759 102.697 109.111 100.393 109.367C99.4971 109.463 98.5211 109.575 97.4651 109.703C96.4411 109.831 95.4171 110.023 94.3931 110.279C93.3691 110.535 92.3771 110.887 91.4171 111.335C90.4571 111.783 89.6091 112.391 88.8731 113.159C88.1371 113.895 87.5451 114.807 87.0971 115.895C86.6811 116.951 86.4731 118.247 86.4731 119.783C86.4731 122.055 86.5531 124.007 86.7131 125.639C86.8731 127.271 86.9531 128.695 86.9531 129.911C86.9531 131.831 86.6651 133.559 86.0891 135.095C85.5131 136.599 84.7771 137.879 83.8811 138.935C82.9851 139.991 81.9771 140.807 80.8571 141.383C79.7691 141.959 78.7131 142.247 77.6891 142.247ZM95.0216 132.839C94.4456 132.839 93.8056 133.111 93.1016 133.655C92.3976 134.167 91.7416 134.823 91.1336 135.623C90.5576 136.391 90.0616 137.223 89.6456 138.119C89.2296 139.015 89.0216 139.831 89.0216 140.567C89.0216 140.855 89.1176 141.127 89.3096 141.383C89.5016 141.639 89.8376 141.767 90.3176 141.767C91.0216 141.767 91.7416 141.479 92.4776 140.903C93.2136 140.295 93.8696 139.591 94.4456 138.791C95.0536 137.959 95.5336 137.111 95.8856 136.247C96.2696 135.383 96.4616 134.663 96.4616 134.087C96.4616 133.255 95.9816 132.839 95.0216 132.839ZM95.2616 132.311C96.3816 132.311 97.1816 132.551 97.6616 133.031C98.1736 133.511 98.4296 134.055 98.4296 134.663C98.4296 135.431 98.1736 136.263 97.6616 137.159C97.1496 138.023 96.4776 138.839 95.6456 139.607C94.8456 140.375 93.9176 141.015 92.8616 141.527C91.8376 142.007 90.7976 142.247 89.7416 142.247C88.6856 142.247 87.9176 142.055 87.4376 141.671C86.9896 141.255 86.7656 140.679 86.7656 139.943C86.7656 139.175 86.9896 138.343 87.4376 137.447C87.8856 136.551 88.4936 135.719 89.2616 134.951C90.0296 134.183 90.9256 133.559 91.9496 133.079C93.0056 132.567 94.1096 132.311 95.2616 132.311ZM109.802 142.151C109.258 142.151 108.794 142.039 108.41 141.815C108.026 141.559 107.834 141.175 107.834 140.663C107.834 140.247 107.946 139.799 108.17 139.319C108.394 138.807 108.682 138.295 109.034 137.783C109.386 137.271 109.754 136.759 110.138 136.247C110.522 135.735 110.89 135.255 111.242 134.807C111.594 134.295 111.77 133.943 111.77 133.751C111.77 133.367 111.514 133.175 111.002 133.175C110.33 133.175 109.594 133.527 108.794 134.231C108.026 134.935 107.274 135.767 106.538 136.727C105.834 137.655 105.178 138.599 104.57 139.559C103.994 140.519 103.546 141.271 103.226 141.815L89.2583 165.287C89.0023 165.671 88.6983 166.135 88.3463 166.679C87.9943 167.255 87.6103 167.799 87.1943 168.311C86.7463 168.855 86.2983 169.303 85.8503 169.655C85.4023 170.039 84.9703 170.231 84.5543 170.231C84.0103 170.231 83.6583 170.071 83.4983 169.751C83.3383 169.463 83.2583 169.111 83.2583 168.695C83.2583 167.959 83.5463 167.015 84.1223 165.863C84.6663 164.743 85.2583 163.591 85.8983 162.407C87.2423 159.975 88.6823 157.463 90.2183 154.871C91.7223 152.311 93.2743 149.735 94.8743 147.143C96.4423 144.583 98.0103 142.071 99.5783 139.607C101.178 137.111 102.714 134.759 104.186 132.551L100.106 137.303L99.7703 137.063C100.986 135.623 102.218 134.167 103.466 132.695C104.746 131.191 106.042 129.575 107.354 127.847L107.978 126.935C108.522 126.167 109.146 125.783 109.85 125.783H110.282C110.538 125.783 110.666 125.879 110.666 126.071C110.666 126.103 110.65 126.151 110.618 126.215C110.618 126.247 110.586 126.327 110.522 126.455L108.602 129.431C108.122 130.167 107.434 131.239 106.538 132.647C105.642 134.055 104.618 135.671 103.466 137.495C102.314 139.287 101.082 141.223 99.7703 143.303C98.4583 145.383 97.1623 147.463 95.8823 149.543C94.5703 151.655 93.3223 153.687 92.1383 155.639C90.9223 157.623 89.8503 159.415 88.9223 161.015C87.9943 162.647 87.2263 164.023 86.6183 165.143C86.0103 166.263 85.6743 167.015 85.6103 167.399C85.5463 167.719 85.5143 167.911 85.5143 167.975C85.5143 168.327 85.6423 168.503 85.8983 168.503C86.2503 168.503 86.6503 168.199 87.0983 167.591C87.5143 167.015 88.1543 166.007 89.0183 164.567C91.3863 160.695 93.7063 156.839 95.9783 152.999C98.2503 149.191 100.522 145.367 102.794 141.527C103.274 140.695 103.85 139.751 104.522 138.695C105.194 137.607 105.914 136.583 106.682 135.623C107.482 134.663 108.33 133.863 109.226 133.223C110.122 132.551 111.034 132.215 111.962 132.215C112.538 132.215 113.018 132.359 113.402 132.647C113.786 132.935 113.978 133.351 113.978 133.895C113.978 134.375 113.77 134.935 113.354 135.575C112.97 136.183 112.538 136.823 112.058 137.495C111.61 138.135 111.178 138.743 110.762 139.319C110.378 139.895 110.186 140.375 110.186 140.759C110.186 141.111 110.394 141.287 110.81 141.287C111.642 141.287 112.442 140.935 113.21 140.231C113.978 139.495 115.018 138.359 116.33 136.823L116.666 137.063C116.154 137.671 115.642 138.279 115.13 138.887C114.65 139.495 114.138 140.039 113.594 140.519C113.05 140.999 112.474 141.399 111.866 141.719C111.258 142.007 110.57 142.151 109.802 142.151ZM134.307 132.071C135.171 132.071 135.859 132.231 136.371 132.551C136.915 132.839 137.187 133.367 137.187 134.135C137.187 134.583 136.931 135.111 136.419 135.719C135.907 136.295 134.915 136.951 133.443 137.687C132.803 138.007 132.291 138.311 131.907 138.599C131.555 138.855 131.283 139.111 131.091 139.367C130.899 139.591 130.771 139.815 130.707 140.039C130.675 140.231 130.659 140.423 130.659 140.615C130.691 141.063 131.027 141.319 131.667 141.383C132.275 141.415 132.835 141.367 133.347 141.239C133.859 141.111 134.371 140.887 134.883 140.567C135.395 140.215 135.939 139.751 136.515 139.175C137.123 138.599 137.811 137.879 138.579 137.015L138.915 137.255C138.179 138.055 137.507 138.775 136.899 139.415C136.323 140.023 135.731 140.535 135.123 140.951C134.515 141.367 133.891 141.687 133.251 141.911C132.611 142.103 131.907 142.199 131.139 142.199C130.243 142.199 129.555 142.055 129.075 141.767C128.627 141.447 128.403 140.903 128.403 140.135C128.403 139.367 128.675 138.695 129.219 138.119C129.795 137.511 130.723 136.919 132.003 136.343C133.955 135.479 134.931 134.679 134.931 133.943C134.931 133.623 134.787 133.383 134.499 133.223C134.243 133.063 133.907 132.983 133.491 132.983C133.043 132.983 132.547 133.127 132.003 133.415C131.459 133.703 130.883 134.071 130.275 134.519C129.699 134.967 129.107 135.479 128.499 136.055C127.923 136.631 127.379 137.223 126.867 137.831L126.483 137.591C127.059 136.919 127.667 136.263 128.307 135.623C128.979 134.951 129.651 134.359 130.323 133.847C130.995 133.303 131.667 132.871 132.339 132.551C133.011 132.231 133.667 132.071 134.307 132.071ZM145.984 132.839C145.408 132.839 144.768 133.111 144.064 133.655C143.36 134.167 142.704 134.823 142.096 135.623C141.52 136.391 141.024 137.223 140.608 138.119C140.192 139.015 139.984 139.831 139.984 140.567C139.984 140.855 140.08 141.127 140.272 141.383C140.464 141.639 140.8 141.767 141.28 141.767C141.984 141.767 142.704 141.479 143.44 140.903C144.176 140.295 144.832 139.591 145.408 138.791C146.016 137.959 146.496 137.111 146.848 136.247C147.232 135.383 147.424 134.663 147.424 134.087C147.424 133.255 146.944 132.839 145.984 132.839ZM146.224 132.311C147.344 132.311 148.144 132.551 148.624 133.031C149.136 133.511 149.392 134.055 149.392 134.663C149.392 135.431 149.136 136.263 148.624 137.159C148.112 138.023 147.44 138.839 146.608 139.607C145.808 140.375 144.88 141.015 143.824 141.527C142.8 142.007 141.76 142.247 140.704 142.247C139.648 142.247 138.88 142.055 138.4 141.671C137.952 141.255 137.728 140.679 137.728 139.943C137.728 139.175 137.952 138.343 138.4 137.447C138.848 136.551 139.456 135.719 140.224 134.951C140.992 134.183 141.888 133.559 142.912 133.079C143.968 132.567 145.072 132.311 146.224 132.311ZM162.061 136.487C161.517 137.127 160.893 137.799 160.189 138.503C159.517 139.175 158.797 139.799 158.029 140.375C157.261 140.919 156.429 141.367 155.533 141.719C154.669 142.071 153.773 142.247 152.845 142.247C151.725 142.247 150.941 142.007 150.493 141.527C150.077 141.047 149.869 140.487 149.869 139.847C149.869 139.079 150.093 138.263 150.541 137.399C150.989 136.503 151.581 135.687 152.317 134.951C153.085 134.215 153.949 133.607 154.909 133.127C155.901 132.615 156.909 132.359 157.933 132.359C158.829 132.359 159.517 132.551 159.997 132.935C160.509 133.287 160.765 133.751 160.765 134.327C160.765 134.679 160.637 135.015 160.381 135.335C160.125 135.655 159.789 135.815 159.373 135.815C159.021 135.815 158.749 135.735 158.557 135.575C158.397 135.415 158.317 135.239 158.317 135.047C158.317 134.823 158.381 134.631 158.509 134.471C158.669 134.279 158.749 134.055 158.749 133.799C158.749 133.575 158.669 133.383 158.509 133.223C158.381 133.031 158.173 132.935 157.885 132.935C157.277 132.999 156.637 133.303 155.965 133.847C155.293 134.359 154.669 134.983 154.093 135.719C153.549 136.455 153.085 137.239 152.701 138.071C152.349 138.871 152.173 139.575 152.173 140.183C152.173 140.471 152.269 140.775 152.461 141.095C152.653 141.383 153.101 141.527 153.805 141.527C155.149 141.527 156.461 141.031 157.741 140.039C159.053 139.047 160.381 137.783 161.725 136.247L162.061 136.487ZM179.574 142.151C179.03 142.151 178.566 142.039 178.182 141.815C177.798 141.559 177.606 141.175 177.606 140.663C177.606 140.055 177.814 139.399 178.23 138.695C178.678 137.959 179.142 137.255 179.622 136.583C180.134 135.911 180.598 135.303 181.014 134.759C181.462 134.183 181.686 133.751 181.686 133.463C181.686 133.271 181.59 133.175 181.398 133.175C181.206 133.175 180.95 133.255 180.63 133.415C180.31 133.575 179.974 133.767 179.622 133.991C179.302 134.215 178.966 134.455 178.614 134.711C178.294 134.967 178.006 135.207 177.75 135.431C177.238 135.847 176.758 136.263 176.31 136.679C175.862 137.095 175.414 137.527 174.966 137.975C174.518 138.423 174.054 138.919 173.574 139.463C173.126 139.975 172.63 140.535 172.086 141.143C171.638 141.687 171.174 141.959 170.694 141.959H169.446C169.222 141.959 169.11 141.863 169.11 141.671C169.11 141.575 169.158 141.447 169.254 141.287C169.606 140.807 169.91 140.391 170.166 140.039C170.454 139.655 170.71 139.319 170.934 139.031C171.19 138.711 171.414 138.407 171.606 138.119C171.83 137.799 172.07 137.463 172.326 137.111C172.39 137.015 172.518 136.823 172.71 136.535C172.934 136.247 173.142 135.927 173.334 135.575C173.558 135.223 173.75 134.871 173.91 134.519C174.07 134.167 174.15 133.863 174.15 133.607C174.15 133.255 173.958 133.079 173.574 133.079C173.126 133.079 172.55 133.319 171.846 133.799C171.174 134.279 170.438 134.903 169.638 135.671C168.838 136.439 168.006 137.303 167.142 138.263C166.278 139.223 165.446 140.183 164.646 141.143C164.198 141.687 163.734 141.959 163.254 141.959H162.006C161.782 141.959 161.67 141.863 161.67 141.671C161.67 141.575 161.718 141.447 161.814 141.287C162.166 140.807 162.486 140.375 162.774 139.991C163.062 139.607 163.318 139.255 163.542 138.935C163.798 138.615 164.038 138.311 164.262 138.023C164.486 137.703 164.726 137.367 164.982 137.015C165.078 136.887 165.206 136.679 165.366 136.391C165.558 136.103 165.75 135.799 165.942 135.479C166.134 135.159 166.294 134.839 166.422 134.519C166.55 134.167 166.614 133.879 166.614 133.655C166.614 133.303 166.438 133.127 166.086 133.127C165.51 133.127 164.806 133.543 163.974 134.375C163.142 135.175 162.262 136.103 161.334 137.159L160.95 136.967C162.07 135.655 163.126 134.551 164.118 133.655C165.11 132.727 166.102 132.263 167.094 132.263C167.766 132.263 168.246 132.391 168.534 132.647C168.822 132.903 168.966 133.223 168.966 133.607C168.966 134.055 168.854 134.503 168.63 134.951C168.438 135.399 168.23 135.799 168.006 136.151C167.75 136.535 167.574 136.823 167.478 137.015C167.382 137.175 167.158 137.479 166.806 137.927L166.854 137.975C167.462 137.271 168.086 136.583 168.726 135.911C169.366 135.239 170.006 134.631 170.646 134.087C171.318 133.543 171.99 133.111 172.662 132.791C173.334 132.439 174.006 132.263 174.678 132.263C175.286 132.263 175.718 132.391 175.974 132.647C176.262 132.903 176.406 133.255 176.406 133.703C176.406 134.055 176.31 134.455 176.118 134.903C175.958 135.319 175.75 135.735 175.494 136.151C175.206 136.599 174.918 137.015 174.63 137.399C174.342 137.783 174.022 138.199 173.67 138.647L173.718 138.695C174.326 137.991 175.03 137.271 175.83 136.535C176.63 135.767 177.414 135.079 178.182 134.471C178.982 133.831 179.75 133.319 180.486 132.935C181.222 132.519 181.862 132.311 182.406 132.311C183.462 132.311 183.99 132.727 183.99 133.559C183.99 134.007 183.862 134.439 183.606 134.855C183.35 135.271 183.03 135.751 182.646 136.295C182.358 136.711 182.054 137.127 181.734 137.543C181.414 137.959 181.11 138.375 180.822 138.791C180.566 139.175 180.358 139.543 180.198 139.895C180.038 140.247 179.958 140.535 179.958 140.759C179.958 141.111 180.166 141.287 180.582 141.287C181.414 141.287 182.214 140.935 182.982 140.231C183.75 139.495 184.79 138.359 186.102 136.823L186.438 137.063C185.926 137.671 185.414 138.279 184.902 138.887C184.422 139.495 183.91 140.039 183.366 140.519C182.822 140.999 182.246 141.399 181.638 141.719C181.03 142.007 180.342 142.151 179.574 142.151ZM188.09 138.167C189.146 137.975 190.01 137.703 190.682 137.351C191.354 136.999 191.882 136.631 192.266 136.247C192.65 135.831 192.906 135.431 193.034 135.047C193.194 134.631 193.274 134.263 193.274 133.943C193.274 133.591 193.194 133.367 193.034 133.271C192.874 133.143 192.682 133.079 192.458 133.079C191.754 133.079 191.018 133.575 190.25 134.567C189.482 135.527 188.762 136.727 188.09 138.167ZM189.194 141.527C189.514 141.527 189.866 141.495 190.25 141.431C190.666 141.367 191.162 141.175 191.738 140.855C192.314 140.535 192.97 140.039 193.706 139.367C194.474 138.695 195.386 137.751 196.442 136.535L196.778 136.775C195.722 138.023 194.778 139.015 193.946 139.751C193.146 140.455 192.41 140.999 191.738 141.383C191.066 141.735 190.442 141.959 189.866 142.055C189.322 142.183 188.778 142.247 188.234 142.247C187.05 142.247 186.266 141.991 185.882 141.479C185.498 140.935 185.306 140.391 185.306 139.847C185.306 138.983 185.514 138.119 185.93 137.255C186.378 136.359 186.954 135.559 187.658 134.855C188.394 134.119 189.21 133.527 190.106 133.079C191.002 132.599 191.93 132.359 192.89 132.359C193.85 132.359 194.474 132.551 194.762 132.935C195.05 133.287 195.194 133.639 195.194 133.991C195.194 134.663 194.954 135.271 194.474 135.815C194.026 136.327 193.45 136.775 192.746 137.159C192.042 137.511 191.258 137.815 190.394 138.071C189.53 138.295 188.714 138.471 187.946 138.599C187.85 138.791 187.77 139.047 187.706 139.367C187.642 139.655 187.61 139.927 187.61 140.183C187.61 140.631 187.754 140.967 188.042 141.191C188.362 141.415 188.746 141.527 189.194 141.527ZM206.142 124.295C206.11 124.455 206.078 124.615 206.046 124.775C206.046 124.903 206.046 125.047 206.046 125.207C206.046 125.751 206.206 126.247 206.526 126.695C206.846 127.111 207.454 127.319 208.35 127.319C209.278 127.319 210.158 127.031 210.99 126.455C211.854 125.847 212.542 125.223 213.054 124.583L213.438 124.727C213.086 125.303 212.686 125.847 212.238 126.359C211.822 126.871 211.358 127.319 210.846 127.703C210.366 128.087 209.854 128.407 209.31 128.663C208.798 128.887 208.27 128.999 207.726 128.999C206.894 128.999 206.27 128.743 205.854 128.231C205.438 127.687 205.23 127.047 205.23 126.311C205.23 125.607 205.406 124.903 205.758 124.199L206.142 124.295ZM207.15 142.151C206.606 142.151 206.142 142.039 205.758 141.815C205.374 141.559 205.182 141.175 205.182 140.663C205.182 139.991 205.406 139.271 205.854 138.503C206.334 137.735 206.782 137.079 207.198 136.535L207.15 136.487C206.51 137.191 205.822 137.879 205.086 138.551C204.35 139.223 203.614 139.831 202.878 140.375C202.174 140.887 201.486 141.303 200.814 141.623C200.174 141.943 199.63 142.103 199.182 142.103C198.126 142.103 197.598 141.687 197.598 140.855C197.598 140.407 197.726 139.975 197.982 139.559C198.238 139.143 198.558 138.663 198.942 138.119C199.23 137.703 199.534 137.287 199.854 136.871C200.174 136.455 200.462 136.055 200.718 135.671C201.006 135.255 201.23 134.887 201.39 134.567C201.55 134.215 201.63 133.911 201.63 133.655C201.63 133.303 201.454 133.127 201.102 133.127C200.814 133.127 200.462 133.255 200.046 133.511C199.662 133.735 199.23 134.055 198.75 134.471C198.302 134.887 197.822 135.351 197.31 135.863C196.83 136.375 196.366 136.887 195.918 137.399L195.63 137.207C196.206 136.567 196.766 135.959 197.31 135.383C197.886 134.775 198.446 134.247 198.99 133.799C199.534 133.319 200.062 132.951 200.574 132.695C201.118 132.407 201.63 132.263 202.11 132.263C202.75 132.263 203.214 132.391 203.502 132.647C203.822 132.903 203.982 133.255 203.982 133.703C203.982 134.311 203.758 134.983 203.31 135.719C202.894 136.455 202.43 137.159 201.918 137.831C201.438 138.503 200.974 139.127 200.526 139.703C200.11 140.247 199.902 140.663 199.902 140.951C199.902 141.143 199.998 141.239 200.19 141.239C200.734 141.239 201.454 140.919 202.35 140.279C203.246 139.639 204.158 138.887 205.086 138.023C206.014 137.159 206.878 136.295 207.678 135.431C208.478 134.535 209.07 133.831 209.454 133.319C209.646 133.063 209.838 132.871 210.03 132.743C210.254 132.583 210.574 132.503 210.99 132.503H211.758C212.014 132.503 212.142 132.599 212.142 132.791C212.142 132.823 212.126 132.871 212.094 132.935C212.094 132.967 212.062 133.047 211.998 133.175C211.614 133.751 211.166 134.407 210.654 135.143C210.142 135.879 209.646 136.615 209.166 137.351C208.718 138.055 208.334 138.727 208.014 139.367C207.694 139.975 207.534 140.439 207.534 140.759C207.534 141.111 207.742 141.287 208.158 141.287C208.99 141.287 209.79 140.935 210.558 140.231C211.326 139.495 212.366 138.359 213.678 136.823L214.014 137.063C213.502 137.671 212.99 138.279 212.478 138.887C211.998 139.495 211.486 140.039 210.942 140.519C210.398 140.999 209.822 141.399 209.214 141.719C208.606 142.007 207.918 142.151 207.15 142.151Z" fill="#112250"></path><path d="M187.533 22.5415C187.404 22.709 187.26 22.9445 187.229 23.0807C187.126 23.5231 185.959 23.9882 185.363 23.8503C185.056 23.7793 184.657 23.7947 184.438 23.8875C184.101 24.0247 184.097 24.0417 184.483 24.2384C184.74 24.3695 184.949 24.7049 185.033 25.1186C185.167 25.7053 185.129 25.9475 184.67 27.0783C184.034 28.7418 184.065 29.0718 184.787 28.1271C185.101 27.6979 185.584 27.1641 185.872 26.9261C186.449 26.45 187.584 26.2821 188.179 26.5811C188.736 26.8892 188.673 26.4623 188.097 26.0062C187.399 25.4505 187.31 24.7487 187.744 23.415C188.102 22.3325 188.019 21.9907 187.533 22.5415ZM186.968 25.064L187.124 25.9426L186.245 26.4027C185.757 26.6484 185.353 26.8419 185.34 26.8209C185.314 26.779 185.319 26.3679 185.34 25.8887C185.361 25.4096 185.356 24.8885 185.336 24.7405C185.307 24.5546 185.5 24.4199 185.919 24.3194C186.793 24.1094 186.797 24.0924 186.968 25.064Z" fill="#112250"></path><path d="M188.753 29.69C188.706 29.8942 188.737 30.4572 188.83 30.909C188.923 31.3608 188.981 31.7326 188.96 31.7457C188.922 31.7548 188.627 31.8659 188.269 32.0162C187.915 32.1494 187.603 32.2565 187.569 32.2486C187.517 32.2368 187.52 31.9147 187.555 31.5285C187.637 30.6331 187.364 29.8709 186.938 29.7723C186.478 29.6659 186.449 29.946 186.881 30.4046C187.171 30.7047 187.209 30.9286 187.075 31.5072C186.985 31.8986 186.725 32.5556 186.491 32.9495C185.923 33.9296 186.155 34.0909 186.917 33.2811C187.654 32.5014 188.496 32.1224 189.345 32.1755C190.123 32.2298 190.328 32.044 189.863 31.7216C189.348 31.3873 189.201 31.0127 189.208 30.2076C189.224 29.4404 188.898 29.0604 188.753 29.69Z" fill="#112250"></path><path d="M149.413 22.3678C149.251 22.5274 149.461 22.6297 153.528 24.377C156.732 25.7452 162.419 27.8669 165.513 28.8514L166.517 29.173L165.297 28.6221C164.63 28.3244 162.407 27.4519 160.36 26.6738C158.313 25.8957 155.205 24.6572 153.456 23.9121C149.354 22.1569 149.538 22.2173 149.413 22.3678Z" fill="#112250"></path><path d="M148.146 22.7545C148.018 22.922 147.624 23.9245 147.266 25.007C146.908 26.0894 146.048 28.2568 145.35 29.7985C143.485 33.9028 143.333 34.8715 144.297 36.2954C145.077 37.4259 145.763 38.0327 147.436 39.0291C148.35 39.581 149.441 40.2994 149.85 40.6271C150.276 40.9587 151.098 41.5969 151.679 42.036C152.273 42.4961 152.85 42.9521 152.967 43.0688C153.607 43.7187 154.05 44.0542 154.155 43.9888C154.222 43.9326 154.211 43.8226 154.145 43.7178C153.971 43.4624 152.122 41.9055 150.849 40.9657C150.268 40.5266 149.614 40.0168 149.407 39.8254C149.195 39.6511 148.771 39.3916 148.459 39.2656C146.863 38.556 145.622 37.5521 144.837 36.3666C143.676 34.6282 143.684 34.5942 146.031 29.1851C146.34 28.4678 146.976 26.8043 147.427 25.4745C147.896 24.1486 148.336 22.9419 148.427 22.7835C148.637 22.4197 148.462 22.3973 148.146 22.7545Z" fill="#112250"></path><path d="M148.602 23.1309C148.563 23.3011 148.825 23.4872 149.508 23.7169C150.021 23.9072 150.743 24.1998 151.099 24.3716C151.454 24.5434 152.877 25.0695 154.243 25.5289C155.623 26.0092 157.361 26.6444 158.131 26.9658C158.905 27.2701 159.943 27.6716 160.439 27.858C160.935 28.0443 161.854 28.4182 162.453 28.7002C163.848 29.3455 168.665 31.1942 170.975 31.9973C171.94 32.3281 173.611 32.9474 174.693 33.3948C175.778 33.8251 177.488 34.5073 178.476 34.897C182.515 36.4583 184.644 37.3452 186.344 38.1504C187.328 38.6291 188.633 39.1997 189.257 39.4516C190.685 40.0328 191.004 40.2857 190.787 40.7556C189.93 42.6009 189.81 42.8064 189.487 42.7315C189.214 42.6684 189.194 42.5204 189.367 41.7717C189.595 40.7847 189.45 40.7152 189.123 41.6615C189.007 42.011 188.847 42.3146 188.746 42.3629C188.662 42.4152 187.989 42.2955 187.285 42.0789L185.971 41.7034L186.113 41.0908C186.27 40.4101 185.974 40.4492 185.706 41.1402C185.557 41.5538 185.54 41.5499 183.55 41.1437C182.438 40.9045 181.511 40.7976 181.491 40.8827C181.472 40.9678 182.352 41.2788 183.439 41.5481L185.439 42.0643L185.423 42.5985L185.407 43.1326L185.593 42.6379C185.82 42.045 186.057 42.0282 187.501 42.5413C188.432 42.8641 188.557 42.9467 188.499 43.274C188.449 43.5672 188.462 43.5882 188.586 43.3657C188.676 43.2073 188.891 43.1316 189.147 43.1907C189.471 43.2656 189.54 43.3534 189.421 43.5588C189.347 43.7211 189.135 44.174 188.985 44.5875C188.052 46.9172 186.103 50.3746 185.096 51.4683C184.035 52.6392 183.188 52.7302 180.081 52.0297C178.952 51.7866 177.419 51.5038 176.691 51.3893C175.943 51.2879 175.342 51.167 175.358 51.0989C175.405 50.8947 176.819 50.9168 178.439 51.1302C181.37 51.5032 182.179 51.4214 183.378 50.5871C184.752 49.6141 186.529 46.9775 186.936 45.2968C187.117 44.514 186.902 44.8228 186.257 46.2153C185.934 46.9115 185.395 47.8446 185.076 48.2908C184.376 49.2224 182.822 50.584 182.198 50.7982C181.511 51.0516 179.907 51.0752 178.108 50.8563C176.343 50.6454 175.35 50.6668 174.862 50.9126C174.698 51.0001 173.715 51.0596 172.679 51.0351C170.535 50.9875 168.167 51.2108 167.179 51.5202C166.808 51.6495 166.152 51.9999 165.734 52.3334C165.32 52.6499 164.657 53.1063 164.28 53.3416C163.503 53.8254 163.367 54.0269 162.108 56.2097C161.319 57.6047 159.927 60.438 159.812 60.8595C159.788 60.9616 159.737 60.9498 159.658 60.824C159.576 60.7153 159.91 59.7349 160.503 58.2586C161.035 56.9655 161.452 55.8609 161.426 55.8189C161.374 55.7351 160.532 57.5124 159.835 59.1261L159.344 60.321L158.713 60.1752C158.372 60.0963 157.986 59.8996 157.843 59.7411C157.601 59.4699 157.64 59.2997 158.4 56.9476C158.842 55.5798 159.31 54.0209 159.432 53.4934C159.647 52.4854 159.572 51.4105 159.282 51.3435C159.18 51.3198 159.132 51.452 159.164 51.6209C159.193 51.8069 159.189 52.29 159.129 52.7063C159.037 53.7248 157.415 58.7994 157.21 58.7521C157.108 58.7284 156.844 58.4703 156.627 58.169C156.048 57.4078 155.836 57.6276 156.393 58.4018C156.851 59.0634 156.915 59.3292 156.545 59.0644C156.421 58.9818 156.297 58.9713 156.278 59.0564C156.258 59.1414 156.405 59.283 156.615 59.3852C157.686 59.9557 157.596 60.8131 156.439 60.9222C155.744 60.9766 153.625 60.4328 150.802 59.4393C149.922 59.1283 148.835 58.859 148.342 58.8167C147.53 58.7545 147.624 58.8122 149.357 59.3203C150.398 59.6328 151.624 60.0776 152.095 60.294C153.276 60.8541 155.884 61.4572 156.442 61.2992C156.695 61.2143 156.945 61.2185 156.98 61.2984C157.151 61.5708 156.318 61.7547 155.129 61.6948C154.101 61.6364 153.627 61.509 152.131 60.912C150.075 60.096 149.295 59.8976 148.592 59.9861C147.851 60.0837 148.087 60.2279 148.957 60.1959C149.551 60.1898 150.041 60.3211 151.397 60.9036C153.95 61.978 154.372 62.0935 155.5 62.0316C156.081 62.0046 156.578 62.0299 156.617 62.0928C156.748 62.3023 155.343 63.4114 154.547 63.7472C153.813 64.0438 151.165 64.7041 150.926 64.6489C150.755 64.6095 148.837 65.2953 148.657 65.4509C148.336 65.7531 148.638 65.769 149.346 65.5025C150.429 65.0897 151.806 64.7269 152.518 64.6764C152.869 64.6322 153.334 64.4886 153.526 64.3539C153.74 64.2061 154.048 64.116 154.202 64.1515C154.508 64.2225 155.868 63.3896 156.607 62.6819C156.978 62.3196 157.313 62.3434 157.231 62.7008C157.172 62.956 155.138 64.7624 154.312 65.3063C153.465 65.8634 152.005 66.3505 150.89 66.4334C150.174 66.5009 149.215 66.6912 148.104 66.9901C147.415 67.1715 147.367 67.0707 147.811 66.546C148.231 66.0515 148.316 65.8382 148.095 65.7869C148.009 65.7672 147.71 66.1283 147.43 66.5654C147.162 67.0234 146.732 67.641 146.487 67.9249C146.038 68.4665 145.632 69.2151 144.943 70.7948C144.576 71.6062 144.455 71.7396 143.408 72.2324C141.531 73.125 140.07 74.0062 140.007 74.2785C139.976 74.4146 140.469 74.2239 141.15 73.8435C142.85 72.8564 144.054 72.3101 143.999 72.5484C143.944 72.7866 143.269 73.4551 142.765 73.7689C142.555 73.8996 142.41 74.0632 142.449 74.126C142.61 74.3605 143.758 73.5144 144.333 72.7333C144.648 72.3041 145.194 71.7311 145.524 71.4669C145.872 71.2066 146.18 70.8835 146.215 70.7304C146.238 70.5563 146.065 70.6059 145.713 70.8831L145.152 71.2912L145.507 70.2977C145.867 69.2873 146.634 68.0664 146.674 68.4343C146.706 68.5313 146.693 68.9764 146.68 69.4215C146.664 70.1887 146.668 70.1717 146.952 69.0185C147.233 67.8823 147.266 67.8182 147.89 67.604C149.125 67.1546 149.924 66.9628 150.514 66.9738C151.338 66.9849 152.469 66.673 153.588 66.107C154.11 65.8692 154.569 65.6705 154.637 65.6863C154.705 65.7021 154.63 66.0254 154.489 66.4049C154.343 66.8015 154.024 67.7138 153.766 68.4428C153.491 69.1679 152.908 70.5212 152.441 71.453C151.975 72.3848 151.558 73.2564 151.522 73.4096C151.487 73.5627 151.08 74.3113 150.598 75.0781C150.132 75.8488 149.501 77.1012 149.235 77.8643C148.952 78.6234 148.108 80.3287 147.373 81.6465C146.637 82.9643 146.068 84.1055 146.133 84.2103C146.278 84.4408 146.658 83.8834 147.812 81.766C149.365 78.9341 149.675 78.2889 149.853 77.5231C149.943 77.1317 150.204 76.5467 150.415 76.2549C151.446 74.8261 153.961 69.3843 154.834 66.6998C155.34 65.1318 155.434 64.9564 156.443 63.9347C157.709 62.6501 158.078 62.6098 158.197 63.8026C158.265 64.5175 158.214 64.7388 157.699 65.8027C157.388 66.4479 157.096 67.1691 157.065 67.3772C156.983 67.7346 157 67.7385 157.248 67.3656C157.405 67.151 157.684 66.642 157.876 66.2022C158.08 65.7834 158.299 65.4576 158.368 65.4734C158.453 65.4931 158.638 65.8585 158.807 66.292C159.217 67.3908 160.74 69.4279 161.251 69.5462C161.592 69.625 161.407 69.2596 160.898 68.8193C159.813 67.9228 158.853 66.0158 158.635 64.3162C158.58 63.8553 158.623 63.9012 159.139 64.7016C160.226 66.3691 160.896 67.277 161.288 67.6007C161.499 67.775 161.806 68.079 161.958 68.2755C162.11 68.472 162.434 68.78 162.666 68.9412C163.264 69.3842 163.231 68.9822 162.623 68.4292C160.837 66.8331 159.027 64.4069 158.857 63.4353C158.804 63.1184 158.816 62.8343 158.879 62.7951C159.068 62.6774 162.092 65.3665 163.305 66.7225C163.889 67.3777 164.714 68.393 165.115 68.9877C165.852 70.0724 166.57 70.776 167.081 70.8943C167.575 71.0086 167.442 70.655 166.819 70.2421C166.496 70.0062 166.043 69.5606 165.842 69.2633C165.624 68.962 165.18 68.3214 164.844 67.8314C164.173 66.8516 162.546 65.1129 161.892 64.675C161.66 64.5138 161.5 64.3513 161.559 64.3291C161.832 64.1591 164.693 66.3087 165.35 67.1956C165.624 67.5637 166.449 68.113 166.364 67.8602C166.301 67.6664 165.146 66.4491 164.244 65.6131C163.709 65.1308 160.786 63.3256 159.767 62.839C159.476 62.7 159.24 62.5558 159.248 62.5218C159.263 62.4537 159.725 61.933 159.937 61.7132C159.979 61.6871 160.493 61.7163 161.089 61.7823C161.68 61.8652 163.082 61.9384 164.186 61.9786C166.008 62.0233 166.356 62.0681 167.493 62.5103C168.199 62.7989 169.107 63.2958 169.543 63.6654C169.978 64.035 170.433 64.3195 170.543 64.3091C170.895 64.2649 169.437 63.1927 168.173 62.5239C166.665 61.745 166.238 61.6464 164.147 61.6827C161.822 61.7187 160.222 61.4922 160.168 61.1033C160.116 60.7864 161.677 57.4544 162.751 55.6053C163.467 54.3726 163.583 54.2562 165.392 53.1147C166.843 52.1955 167.567 51.861 168.451 51.6889C171.065 51.1817 174.536 51.3928 179.646 52.3593C182.759 52.9537 183.825 53.003 184.61 52.5572C185.892 51.8316 187.349 49.3361 189.686 43.889C190.02 43.1417 190.547 42.0267 190.884 41.4234L191.484 40.3071L191.144 40.0672C190.512 39.6163 184.016 36.6442 181.203 35.5277C179.677 34.9058 177.309 33.9638 175.945 33.4154C174.602 32.854 171.842 31.8213 169.834 31.1061C167.827 30.3909 164.681 29.1615 162.829 28.3928C160.978 27.624 157.948 26.4393 156.076 25.7556C152.813 24.5707 149.791 23.4239 149.033 23.0514C148.772 22.9373 148.641 22.9608 148.602 23.1309ZM158.523 60.92C158.689 61.2094 158.966 61.4885 159.128 61.562C159.423 61.684 159.416 61.718 158.869 62.219C158.297 62.7501 158.276 62.7632 157.782 62.4158C157.399 62.1301 157.298 61.9454 157.362 61.5121C157.433 60.9727 157.85 60.3342 158.106 60.3933C158.174 60.4091 158.369 60.6514 158.523 60.92ZM159.277 60.8433C159.45 61.0268 159.425 61.0569 159.118 60.9859C158.913 60.9386 158.711 60.8023 158.68 60.7054C158.595 60.4526 158.987 60.5433 159.277 60.8433Z" fill="#112250"></path><path d="M150.423 25.9351C150.352 26.0084 150.133 26.5673 149.928 27.2191C149.71 27.85 149.249 29.0698 148.899 29.8852C148.281 31.3916 148.26 31.4047 147.783 31.2943C147.373 31.1997 147.304 31.1119 147.383 30.7716C147.528 30.142 147.254 30.0069 146.98 30.5709C146.743 31.0538 146.307 31.1504 146.279 30.7314C146.255 30.6004 146.502 29.9225 146.79 29.2183C147.1 28.5011 147.362 27.7551 147.375 27.543C147.384 27.3479 147.093 27.908 146.706 28.8045C146.319 29.701 145.88 30.7468 145.704 31.1184C145.362 31.8998 145.399 32.0517 145.791 31.4432C145.973 31.1985 146.158 31.0979 146.355 31.1792C146.663 31.3222 146.635 31.4413 145.965 33.563L145.49 34.9949L145.936 35.9406C146.175 36.4618 146.45 36.902 146.518 36.9177C146.808 36.9848 146.745 36.5579 146.371 35.844C145.994 35.1472 145.992 35.0752 146.343 34.0268C146.535 33.426 146.779 32.604 146.866 32.2296C147.039 31.4809 147.417 31.2455 147.844 31.6491C148.038 31.8195 147.99 32.1848 147.611 33.7464C147.242 35.1849 147.191 35.6392 147.361 35.6786C147.532 35.718 147.71 35.2573 148.058 33.8318C148.382 32.5085 148.609 31.9156 148.782 31.866C149.136 31.7327 153.765 32.8389 154.795 33.2744C155.625 33.6456 159.465 35.2147 162.261 36.3272C165.086 37.4647 169.744 38.7569 172.284 39.1111C173.539 39.2758 175.409 39.6545 176.42 39.942C177.751 40.3215 178.113 40.3873 177.714 40.1696C177.376 40.0017 175.338 39.4947 172.701 38.9387C167.164 37.8016 164.987 37.119 159.044 34.705C154.875 33.0061 154.077 32.7318 151.622 32.1642L148.86 31.5256L148.917 30.8933C148.927 30.5372 149.052 30.1537 149.177 30.0032C149.326 29.8227 150.712 26.4682 150.823 25.9918C150.854 25.8556 150.539 25.8187 150.423 25.9351Z" fill="#112250"></path><path d="M148.92 26.1415C148.753 26.3182 147.486 29.4671 147.552 29.5719C147.631 29.6977 147.848 29.2999 148.516 27.7332C148.85 26.9859 149.169 26.3067 149.257 26.2374C149.328 26.1641 149.309 26.0882 149.207 26.0645C149.122 26.0448 148.987 26.0853 148.92 26.1415Z" fill="#112250"></path><path d="M147.653 26.6056C147.598 26.8439 147.613 26.9368 147.691 26.8295C147.749 26.7353 147.796 26.5311 147.79 26.4041C147.762 26.2902 147.708 26.3674 147.653 26.6056Z" fill="#112250"></path><path d="M120.28 25.294C120.098 26.2378 119.811 26.5478 118.684 26.9148C117.925 27.1695 117.815 27.4129 118.377 27.543C118.599 27.5942 118.939 27.8341 119.147 28.0974C119.564 28.6241 119.733 28.3585 119.32 27.8148C119.046 27.4467 119.067 27.4336 119.705 27.0073L120.376 26.5889L120.885 27.2623L121.39 27.9527L120.925 28.5624C120.664 28.9143 120.409 29.3213 120.373 29.4745C120.279 29.8829 120.146 29.8343 119.864 29.2672L119.61 28.814L119.614 29.263C119.643 30.1481 119.881 31.8346 119.984 31.8583C120.035 31.8701 120.227 31.2693 120.397 30.5376C120.751 29.0061 121.153 28.5076 122.256 28.2427C123.114 28.0287 123.119 27.8507 122.288 27.6405C121.337 27.4027 120.9 26.7281 120.831 25.4751C120.771 24.2601 120.502 24.18 120.28 25.294Z" fill="#112250"></path><path d="M185.051 43.4458C185.003 43.65 184.745 44.1459 184.489 44.5529C184.255 44.9468 184.079 45.3185 184.118 45.3813C184.223 45.549 185.179 43.7444 185.173 43.3843C185.156 43.1473 185.135 43.1604 185.051 43.4458Z" fill="#112250"></path><path d="M187.549 45.3847C187.166 46.2642 186.9 47.0273 186.922 47.0862C187.031 47.2369 188.298 44.3209 188.276 44.0289C188.252 43.898 187.932 44.5052 187.549 45.3847Z" fill="#112250"></path><path d="M185.407 44.514C184.8 45.6644 183.418 47.3705 182.556 48.0676C181.565 48.8601 180.213 49.1929 178.319 49.1494C176.323 49.0823 175.942 49.1016 176.016 49.2444C176.174 49.4959 179.762 49.5905 180.678 49.3543C182.563 48.8937 184.224 47.3777 185.617 44.8494C186.299 43.6088 186.299 43.6088 186.094 43.5615C186.026 43.5457 185.711 43.9749 185.407 44.514Z" fill="#112250"></path><path d="M124.496 30.3199C124.41 30.6943 124.903 31.6688 125.421 32.1471C125.688 32.3882 125.684 32.4052 125.208 32.8329C124.937 33.0749 124.691 33.3588 124.668 33.4609C124.581 33.8353 124.377 33.5549 124.069 32.7128C123.742 31.7948 123.358 31.437 122.818 31.5989C122.53 31.676 122.583 31.7598 123.124 32.136C123.743 32.5659 123.753 32.6039 123.827 34.1449C123.889 35.665 124.163 36.2662 124.308 35.1705C124.341 34.8733 124.547 34.2935 124.756 33.8577C125.062 33.2295 125.292 33.0137 125.924 32.7654C126.872 32.3931 126.932 32.2098 126.182 32.0364C125.688 31.9221 125.515 31.7386 125.093 30.924C124.667 30.1263 124.563 30.0306 124.496 30.3199Z" fill="#112250"></path><path d="M147.809 36.2664C147.806 36.8215 147.987 37.204 148.176 37.0863C148.306 36.9909 148.051 35.8385 147.898 35.803C147.83 35.7873 147.8 35.9954 147.809 36.2664Z" fill="#112250"></path><path d="M148.322 37.5497C148.251 37.856 148.609 38.4048 148.819 38.2741C148.903 38.2218 148.831 37.99 148.678 37.7215C148.438 37.3612 148.373 37.3285 148.322 37.5497Z" fill="#112250"></path><path d="M148.993 38.5294C148.95 38.7166 149.766 39.4609 150.124 39.5437C150.311 39.5871 150.374 39.5479 150.313 39.426C150.116 39.1117 149.029 38.3763 148.993 38.5294Z" fill="#112250"></path><path d="M186.614 47.6252C186.559 47.8634 186.574 47.9564 186.652 47.8491C186.71 47.7548 186.757 47.5506 186.751 47.4236C186.723 47.3097 186.669 47.3869 186.614 47.6252Z" fill="#112250"></path><path d="M151.043 40.2033C151.182 40.3789 151.393 40.5532 151.478 40.5729C151.58 40.5966 151.997 40.8902 152.41 41.2008C153.366 41.9596 154.043 42.2954 154.09 42.0912C154.114 41.9891 153.799 41.7191 153.387 41.4805C152.958 41.2379 152.357 40.8119 152.025 40.538C151.714 40.251 151.289 39.9914 151.102 39.9481C150.761 39.8692 150.761 39.8692 151.043 40.2033Z" fill="#112250"></path><path d="M186.255 48.4357C186.2 48.6739 186.214 48.7669 186.293 48.6596C186.351 48.5654 186.398 48.3612 186.391 48.2342C186.364 48.1203 186.31 48.1975 186.255 48.4357Z" fill="#112250"></path><path d="M156.316 42.9488C156.348 43.0457 156.712 43.4885 157.132 43.9261C157.548 44.3808 158.225 45.2546 158.649 45.9083C159.09 46.5659 159.476 47.0677 159.539 47.0284C159.682 46.9539 158.926 45.4883 158.448 44.9118C157.945 44.2934 156.244 42.717 156.316 42.9488Z" fill="#112250"></path><path d="M154.673 42.7309C154.654 42.816 154.934 43.0781 155.304 43.3429C155.661 43.5867 156.062 43.9484 156.201 44.1239C156.319 44.3125 156.47 44.437 156.533 44.3978C156.659 44.3194 155.169 42.6842 154.913 42.6251C154.794 42.5975 154.693 42.6458 154.673 42.7309Z" fill="#112250"></path><path d="M174.602 48.1457C174.567 48.2989 174.624 48.4377 174.71 48.4574C174.812 48.481 174.896 48.4287 174.915 48.3437C174.939 48.2416 174.898 48.1067 174.808 48.032C174.734 47.9612 174.634 48.0096 174.602 48.1457Z" fill="#112250"></path><path d="M176.127 48.5325C176.092 48.6856 176.191 48.7983 176.37 48.8037C176.815 48.8172 176.957 48.4376 176.548 48.343C176.343 48.2957 176.166 48.3623 176.127 48.5325Z" fill="#112250"></path><path d="M154.294 44.3634C154.278 44.4315 155.298 45.2231 155.452 45.2586C155.69 45.3138 155.527 44.9352 155.204 44.6993C154.791 44.3887 154.329 44.2102 154.294 44.3634Z" fill="#112250"></path><path d="M159.75 45.6237C159.699 45.8449 161.14 48.0784 161.266 47.9999C161.308 47.9738 161.013 47.3857 160.576 46.7111C160.144 46.0194 159.77 45.5386 159.75 45.6237Z" fill="#112250"></path><path d="M175.13 49.2702C174.685 49.3287 174.355 49.5929 174.456 49.7776C174.495 49.8405 174.66 49.8249 174.803 49.7504C174.95 49.6588 175.249 49.5308 175.468 49.438C175.906 49.2525 175.743 49.179 175.13 49.2702Z" fill="#112250"></path><path d="M129.402 38.985C128.911 39.0147 127.727 39.0098 126.797 38.992C124.509 38.9469 120.505 39.0968 117.921 39.3238C117.463 39.3613 116.314 39.4363 115.369 39.4866C114.427 39.5199 111.262 39.7738 108.333 40.011C105.418 40.2691 101.676 40.5331 100.026 40.5998C98.3765 40.6665 94.8884 40.9176 92.2697 41.1367C89.651 41.3558 87.0362 41.5579 86.4723 41.5889C85.4927 41.6312 85.0049 41.877 85.6186 42.0189C86.0107 42.1095 88.5625 41.9467 92.2605 41.5648C95.3486 41.2571 98.248 41.0671 101.564 40.9376C103.846 40.8557 106.897 40.6291 108.586 40.3922C109.531 40.2699 112.124 40.0809 114.634 39.9442C115.741 39.8954 117.254 39.7971 118.008 39.7205C121.611 39.442 123.027 39.3751 125.272 39.3744C126.604 39.3598 128.153 39.3414 128.7 39.3065C130.463 39.2124 130.85 39.2481 130.973 39.4917C131.035 39.6135 131.069 40.3205 131.061 41.0537C131.07 41.7908 131.06 43.0791 131.045 43.9183C131.033 45.8337 131.022 45.8848 130.612 45.7901C130.425 45.7468 130.299 45.5922 130.331 45.4561C130.362 45.3199 130.321 45.185 130.236 45.1653C130.151 45.1456 130.072 45.2529 130.054 45.41C129.986 45.8603 129.624 45.7946 129.5 45.3179C129.42 44.8871 129.403 44.8832 129.321 45.2405C129.094 46.0664 127.985 45.5052 128.177 44.6713C128.217 44.5012 128.175 44.2943 128.088 44.2026C127.985 44.1069 127.894 44.2652 127.838 44.6645C127.749 45.361 127.486 45.6409 127.334 45.2114C127.263 45.0516 127.16 44.2568 127.077 43.4489C126.995 42.641 126.866 42.1094 126.797 42.2546C126.727 42.3999 126.736 42.904 126.833 43.3387C126.909 43.7866 126.976 44.4294 126.966 44.7856C126.93 45.4048 126.93 45.4048 126.078 45.4407C125.586 45.4705 124.552 45.518 123.75 45.5658C122.554 45.612 122.398 45.6655 122.91 45.7838C123.247 45.8796 123.901 45.9234 124.359 45.8858C124.812 45.8652 125.237 45.8917 125.277 45.9546C125.312 46.0345 125.426 46.0071 125.518 45.9208C125.61 45.8344 125.931 45.7653 126.25 45.7852C126.912 45.7949 127.039 46.0215 126.816 46.8305C126.728 47.1328 126.737 47.4039 126.823 47.4236C126.925 47.4472 127.072 47.1226 127.17 46.6972C127.343 45.9485 127.662 45.7353 127.731 46.2892C127.802 46.682 128.066 46.7071 128.156 46.3157C128.204 46.1115 128.388 46.0109 128.677 46.0059C129.068 46.0245 129.15 46.1333 129.267 46.716C129.481 47.7334 128.74 50.8606 128.017 51.9663C127.377 52.9477 127.251 53.0262 124.377 54.1183C121.932 55.0589 120.999 55.5242 120.924 55.8476C120.896 55.9667 120.321 56.2817 119.643 56.5731C116.046 58.0718 114.429 59.2397 113.305 61.1489C112.881 61.8935 112.402 62.6433 112.253 62.8239C111.764 63.4637 111.51 68.2095 111.725 72.7946C111.862 75.3896 111.892 76.8128 111.903 79.7913C111.904 81.7277 112.056 84.0216 112.312 85.479C112.423 86.2398 112.593 87.3724 112.684 87.9852C112.908 89.8118 113.411 92.9217 113.683 94.15C113.906 95.2054 114.707 96.7889 115.065 96.8717C115.287 96.923 115.251 96.8431 114.673 95.8489C114.108 94.8756 113.833 93.5033 112.972 87.4421C112.81 86.2755 112.622 85.2279 112.56 85.1061C112.48 84.9083 112.334 82.9745 112.173 79.7104C112.145 79.0584 112.146 78.1982 112.185 77.795C112.212 77.3708 112.183 75.5536 112.099 73.7415C111.779 66.8913 112.01 63.0187 112.713 62.9303C112.844 62.9068 113.109 62.5379 113.267 62.0902C113.437 61.6636 113.907 60.8758 114.309 60.3773C115.745 58.594 119.544 56.7655 124.596 55.4238C124.997 55.3194 125.49 55.1286 125.683 54.994C125.889 54.8802 126.193 54.8072 126.346 54.8426C126.517 54.8821 126.872 54.8208 127.133 54.7019C127.398 54.5659 127.833 54.4694 128.084 54.4736C128.788 54.4571 130.095 53.7735 130.455 53.2291C130.904 52.5264 131.278 50.9098 131.436 48.8309C131.503 47.8425 131.559 46.9771 131.524 46.8972C131.457 46.7204 131.363 42.2349 131.379 40.5355C131.409 39.1621 131.392 39.1582 130.859 39.053C130.552 38.982 129.911 38.9593 129.402 38.985ZM131.092 46.7437C131.153 48.8909 130.581 52.2185 130.026 52.9866C129.707 53.4328 127.629 54.4221 127.203 54.3236C127.049 54.2881 123.987 55.1038 122.244 55.651C121.759 55.8077 121.45 55.8257 121.511 55.7145C121.594 55.5902 122.912 55.0165 124.467 54.426C126.022 53.8356 127.5 53.1913 127.743 52.9965C128.729 52.1489 129.682 49.268 129.622 47.3539C129.583 46.1258 129.591 46.0917 129.881 46.1587C130.034 46.1942 130.126 46.574 130.136 47.1501C130.142 47.6711 130.186 48.0221 130.244 47.9278C130.302 47.8336 130.358 47.4343 130.363 47.0232C130.35 46.5362 130.434 46.2509 130.581 46.1593C130.959 45.924 131.075 46.0406 131.092 46.7437Z" fill="#112250"></path><path d="M155.645 45.4819C155.625 45.567 155.786 45.8015 156.028 46.0007C156.476 46.3912 157.219 47.6029 157.619 48.5917C157.9 49.3199 158.139 49.3751 157.943 48.6666C157.737 47.8482 157.109 46.6811 156.542 46.0299C155.944 45.3539 155.708 45.2097 155.645 45.4819Z" fill="#112250"></path><path d="M171.866 50.2918C169.631 50.3305 167.435 50.5041 167.07 50.6884C166.447 50.9746 166.86 51.0522 168.104 50.8739C169.869 50.6187 171.362 50.5335 172.759 50.6237C173.397 50.6635 173.951 50.5946 174.03 50.4873C174.174 50.2518 174.264 50.2545 171.866 50.2918Z" fill="#112250"></path><path d="M129.908 40.6248C129.833 40.715 129.828 40.8931 129.907 41.0189C130.012 41.1865 130.075 41.1473 130.138 40.875C130.232 40.4666 130.163 40.3788 129.908 40.6248Z" fill="#112250"></path><path d="M161.761 49.0285C161.914 49.297 163.241 49.9266 163.277 49.7734C163.296 49.6883 163.038 49.4852 162.687 49.2964C161.945 48.8558 161.569 48.7691 161.761 49.0285Z" fill="#112250"></path><path d="M130.025 42.5889C129.921 43.4255 130.068 44.2661 130.196 43.6325C130.24 43.4454 130.227 42.9583 130.177 42.5524L130.096 41.8165L130.025 42.5889Z" fill="#112250"></path><path d="M164.584 50.1843C164.692 50.2629 164.849 50.2814 164.912 50.2421C164.992 50.2069 164.902 50.1322 164.71 50.1058C164.523 50.0624 164.46 50.1017 164.584 50.1843Z" fill="#112250"></path><path d="M162.034 50.8653C162.227 51.1967 163.548 51.6993 163.603 51.461C163.626 51.3589 163.51 51.2423 163.322 51.1989C163.152 51.1595 162.754 51.0139 162.459 50.8919C162.07 50.7122 161.947 50.7016 162.034 50.8653Z" fill="#112250"></path><path d="M159.579 50.9638C159.484 51.3722 160.178 51.9449 161.232 52.2783C162.385 52.6524 163.822 52.8055 163.877 52.5673C163.905 52.4481 163.704 52.3838 163.347 52.3731C161.947 52.3719 160.109 51.6241 160.022 51.0663C159.977 50.7154 159.654 50.6405 159.579 50.9638Z" fill="#112250"></path><path d="M98.7338 39.9595C96.1282 40.1995 90.146 40.5193 86.6933 40.6172C85.7386 40.6295 85.2377 40.8543 85.8002 40.9844C86.0559 41.0435 91.0481 40.8892 93.3416 40.7563C95.504 40.6468 102.142 39.9767 102.331 39.859C102.621 39.693 101.374 39.7273 98.7338 39.9595Z" fill="#112250"></path><path d="M162.096 54.5918C161.84 54.9988 161.85 55.1088 162.134 54.8157C162.275 54.6692 162.37 54.4939 162.326 54.448C162.304 54.3891 162.199 54.4544 162.096 54.5918Z" fill="#112250"></path><path d="M127.229 48.5368C126.471 50.9609 125.679 51.7458 122.744 53.0212C121.308 53.6393 120.192 54.3493 120.113 54.6896C120.09 54.7917 120.616 54.5369 121.27 54.1145C121.92 53.7092 122.711 53.3184 123.036 53.2322C123.362 53.1461 123.72 52.9958 123.815 52.8925C123.915 52.7721 124.109 52.7094 124.228 52.737C124.501 52.8001 125.587 52.0652 126.207 51.4019C126.82 50.7727 127.424 49.4784 127.708 48.2531C128.03 46.8578 127.695 47.067 127.229 48.5368Z" fill="#112250"></path><path d="M116.531 45.706C116.336 45.6967 115.746 45.6857 115.232 45.6565C114.697 45.6403 114.294 45.6727 114.338 45.7186C114.429 45.8653 116.983 46.0075 117.205 45.8977C117.394 45.78 117.177 45.7118 116.531 45.706Z" fill="#112250"></path><path d="M112.138 45.711C111.599 45.7119 110.857 45.7375 110.51 45.7647C110.162 45.7919 109.075 45.7556 108.102 45.692C107.133 45.6113 106.101 45.5699 105.791 45.5879C105.245 45.6228 105.245 45.6228 105.684 45.7424C106.562 45.9814 113.529 46.1403 113.865 45.9311C114.029 45.8435 113.123 45.7236 112.138 45.711Z" fill="#112250"></path><path d="M143.906 53.146C142.93 53.1713 141.783 53.5514 141.261 54.0223C140.676 54.5324 140.133 55.7155 139.702 57.4263C139.429 58.5285 139.43 58.6005 139.902 59.355C140.181 59.7781 140.467 60.0952 140.551 60.0429C140.639 59.9736 140.537 59.7169 140.328 59.4535C139.915 58.9099 139.779 58.1792 139.964 57.3794C140.133 56.6477 140.314 56.564 140.566 57.1063C140.848 57.6734 141.134 57.5244 140.898 56.9141C140.641 56.3169 140.718 56.1375 141.35 55.6563C141.656 55.4222 141.906 55.1933 141.918 55.1422C141.961 54.955 141.328 54.8982 141.076 55.0551C140.887 55.1728 140.844 55.1269 140.907 54.8546C141.037 54.2931 141.964 53.7008 143.051 53.504C144.062 53.3255 145.004 53.5252 148.321 54.633L149.239 54.9349L148.446 54.4825C147.528 53.9476 144.703 53.1152 143.906 53.146Z" fill="#112250"></path><path d="M151.479 55.3638L150.064 55.2697L152.143 55.7506C154.002 56.1803 154.314 56.3062 155.062 56.8737C155.915 57.5369 156.292 57.5346 155.67 56.8886C155.319 56.5388 153.536 55.5527 153.136 55.4961C152.996 55.4816 152.256 55.4181 151.479 55.3638Z" fill="#112250"></path><path d="M102.311 45.1069C94.9705 43.768 91.4405 43.3461 89.939 43.6264C89.0171 43.8076 89.7449 43.9221 91.544 43.9079C93.178 43.9092 94.8709 44.1214 100.349 45.0477C103.874 45.6476 106.273 45.9154 104.287 45.4921C103.776 45.3739 102.882 45.2029 102.311 45.1069Z" fill="#112250"></path><path d="M150.923 56.3476C150.843 56.3828 149.013 56.0671 146.853 55.6215C143.424 54.9182 142.429 54.7956 142.667 55.0838C142.75 55.1926 149.751 56.5246 151.112 56.696C152.227 56.8462 152.308 56.8829 153.227 57.7229C154.043 58.4672 154.347 58.6272 155.203 58.8073C155.957 58.9637 156.101 58.9612 155.801 58.7842C155.578 58.6609 155.185 58.4983 154.916 58.4182C154.647 58.3381 153.96 57.8924 153.404 57.4232C152.426 56.6054 151.284 56.1083 150.923 56.3476Z" fill="#112250"></path><path d="M84.8299 41.4584C84.7591 41.5317 84.7971 42.4547 84.8967 43.4996C85.1378 45.7962 85.2308 47.1801 85.3015 50.3695C85.3931 53.5458 85.692 54.583 86.7843 55.3733C87.7048 56.0523 88.6516 56.3071 93.7447 57.2697C97.8242 58.0337 101.911 59.2298 103.076 60.0189C103.54 60.3414 104.048 60.7097 104.181 60.8303C104.509 61.1212 104.607 61.1619 104.655 60.9577C104.702 60.7535 103.165 59.5556 102.339 59.1673C100.9 58.4762 96.3201 57.2378 93.8431 56.8442C92.5108 56.6258 90.8297 56.3626 90.0809 56.2611C88.5572 56.0163 87.2485 55.4628 86.6676 54.7906C86.113 54.1604 85.8403 52.9321 85.7539 50.743C85.7002 49.1889 85.3936 44.6901 85.2913 43.9673C85.2717 43.8193 85.3766 43.754 85.5811 43.8013C85.8539 43.8643 85.9208 44.2742 86.0164 46.2682C86.0701 47.5893 86.1211 49.2325 86.1211 49.9316C86.1079 50.6098 86.1538 51.2657 86.2062 51.3496C86.3898 51.643 86.4083 49.8546 86.2484 46.8956C86.1777 45.3375 86.1581 44.0243 86.2211 43.9851C86.4519 43.8413 88.0005 44.056 88.1697 44.2564C88.2523 44.3651 88.3309 44.7239 88.3152 45.0251C88.2928 46.1313 88.8171 50.9315 89.1278 52.3837C89.2995 53.1942 89.5146 53.8176 89.6116 53.7863C89.7296 53.7419 89.7139 53.3438 89.5815 52.8292C89.297 51.6519 89.0571 49.8934 88.9104 47.8876C88.8514 46.9776 88.7571 45.7547 88.6994 45.1498C88.605 44.1599 88.6286 44.0578 88.9276 43.9297C89.1886 43.8108 89.1794 43.7728 88.79 43.5931C88.5461 43.483 88.2654 43.4539 88.1946 43.5272C88.0491 43.6907 86.9725 43.7645 86.4611 43.6462C86.2394 43.595 86.0913 43.3814 86.0428 43.0475L85.9445 42.5408L85.8605 43.0592C85.7988 43.4034 85.6913 43.5578 85.492 43.5655C85.1524 43.5587 84.9531 42.6342 85.1262 41.8855C85.2403 41.392 85.1053 41.1994 84.8299 41.4584Z" fill="#112250"></path><path d="M86.9792 44.6986C86.8662 47.3615 87.4389 53.6607 87.8638 54.1533C88.1365 54.4494 89.179 55.067 89.3049 54.9885C89.3508 54.9453 89.078 54.6492 88.7109 54.2954C88.3437 53.9416 88.0369 53.6376 88.0369 53.6376C88.0408 53.6206 87.9491 52.7748 87.8246 51.76C87.3199 47.5739 87.219 46.4571 87.2414 45.3508C87.2637 44.7106 87.2244 44.1816 87.1392 44.1619C87.071 44.1461 86.9949 44.3974 86.9792 44.6986Z" fill="#112250"></path><path d="M121.195 52.8785C120.947 53.0184 120.968 53.2384 121.224 53.2975C121.36 53.3291 121.524 53.2415 121.624 53.1211C121.768 52.8856 121.468 52.7086 121.195 52.8785Z" fill="#112250"></path><path d="M141.147 57.7425C141.092 57.9807 141.804 58.6294 142.144 58.6362C142.373 58.6534 142.281 58.5067 141.829 58.1332C141.467 57.8344 141.163 57.6744 141.147 57.7425Z" fill="#112250"></path><path d="M145.167 58.9427L144.516 59.043L145.2 59.1116C145.583 59.1643 145.986 59.1319 146.112 59.0535C146.405 58.8704 145.971 58.8059 145.167 58.9427Z" fill="#112250"></path><path d="M171.101 64.8154C171.082 64.9005 171.243 65.135 171.471 65.3133C171.682 65.4876 171.969 65.8767 172.085 66.1543C172.297 66.6337 172.298 66.7057 171.909 67.2251C171.45 67.8898 171.195 67.9027 171.18 67.2716C171.18 67.0386 171.038 66.719 170.874 66.5736C170.529 66.2787 170.443 66.42 170.697 66.8732C171.049 67.5282 170.946 67.9706 170.403 68.2215C170.121 68.3535 169.887 68.5144 169.875 68.5654C169.812 68.8377 170.259 68.6901 171.22 68.1057C172.538 67.299 172.554 67.697 171.237 68.8087C169.963 69.8944 168.914 70.5481 168.296 70.6563C167.699 70.7513 167.534 71 167.994 71.1064C168.51 71.2076 171.593 69.2136 172.188 68.3474C172.553 67.858 172.574 66.4467 172.245 65.8507C171.964 65.3556 171.148 64.6112 171.101 64.8154Z" fill="#112250"></path><path d="M119.586 53.2604C119.603 53.4974 119.83 53.6037 119.894 53.4034C119.91 53.3353 119.844 53.2305 119.754 53.1558C119.642 53.0942 119.559 53.1465 119.586 53.2604Z" fill="#112250"></path><path d="M165.464 63.9783C168.276 64.8618 169.513 65.4166 170.243 66.1412C170.373 66.2788 170.428 66.2736 170.416 66.0916C170.414 65.9476 169.914 65.5452 169.335 65.1782C168.425 64.6092 167.81 64.3953 165.35 63.7727L162.45 63.0305L165.464 63.9783Z" fill="#112250"></path><path d="M146.672 60.206C146.317 60.2673 146.094 60.3771 146.202 60.4557C146.296 60.5134 146.75 60.4928 147.202 60.4002C147.71 60.3025 147.891 60.2188 147.673 60.1506C147.485 60.1072 147.032 60.1278 146.672 60.206Z" fill="#112250"></path><path d="M144.729 60.6147C144.343 60.651 143.95 60.7214 143.883 60.7776C143.673 60.9084 144.742 60.8687 145.295 60.7278C145.908 60.5646 145.618 60.4976 144.729 60.6147Z" fill="#112250"></path><path d="M141.014 60.6549C141.185 60.9273 142.945 61.3163 143.217 61.1464C143.343 61.0679 142.963 60.9262 142.145 60.737C141.309 60.5438 140.94 60.5121 141.014 60.6549Z" fill="#112250"></path><path d="M118.39 56.3347C116.417 57.2587 113.756 58.9022 113.677 59.2426C113.634 59.4297 113.811 59.3631 114.205 59.0597C114.736 58.6268 117.879 56.9156 119.609 56.1145C120.009 55.938 120.209 55.7693 120.056 55.7338C119.919 55.7023 119.173 55.9779 118.39 56.3347Z" fill="#112250"></path><path d="M156.304 64.9423C156.141 65.1019 155.242 67.9055 155.385 67.831C155.532 67.7395 156.552 65.0354 156.49 64.9136C156.447 64.8678 156.375 64.869 156.304 64.9423Z" fill="#112250"></path><path d="M166.831 68.5063C167.214 69.0251 168.395 69.3521 168.976 69.092C169.418 68.8894 169.17 68.7963 168.485 68.8887C168.154 68.9198 167.783 68.8161 167.26 68.5158L166.497 68.0884L166.831 68.5063Z" fill="#112250"></path><path d="M156.293 68.8816C155.405 70.702 154.436 73.4179 153.382 77.0462C152.835 78.9455 152.252 80.9979 152.059 81.5987C151.88 82.2204 151.72 83.2232 151.705 83.8293L151.679 84.9527L149.806 84.43C148.22 83.9914 148.011 83.9611 148.398 84.2299C149.077 84.7096 151.438 85.4526 151.497 85.1973C151.528 85.0612 151.596 85.077 151.748 85.2735C152.092 85.7294 152.16 85.5121 152.008 84.3834L151.878 83.3137L153.16 79.0924C153.86 76.7625 154.542 74.3567 154.688 73.7271C154.829 73.1145 155.25 71.9928 155.602 71.2495C156.273 69.8989 157.051 67.8558 156.915 67.8243C156.864 67.8124 156.592 68.2875 156.293 68.8816Z" fill="#112250"></path><path d="M163.222 69.4271C163.202 69.5122 163.308 69.7519 163.457 69.9654C163.766 70.4134 163.901 70.1399 163.6 69.6579C163.381 69.2845 163.269 69.2229 163.222 69.4271Z" fill="#112250"></path><path d="M154.489 69.649C154.118 70.4774 153.79 71.3517 153.752 71.5939L153.658 72.0023L153.902 71.6464C154.192 71.2473 155.276 68.343 155.181 68.2133C155.154 68.1714 154.843 68.8166 154.489 69.649Z" fill="#112250"></path><path d="M161.797 70.1227C161.973 70.4502 162.4 70.6207 162.455 70.3825C162.491 70.2293 162.129 69.9305 161.822 69.8596C161.72 69.8359 161.696 69.938 161.797 70.1227Z" fill="#112250"></path><path d="M90.161 53.7525C90.1059 53.9907 90.9844 54.9289 91.6584 55.3536C92.3836 55.7902 92.7888 55.9018 96.2624 56.4899C99.285 57.0096 100.325 57.25 101.274 57.6488C101.929 57.9256 102.496 58.1107 102.555 58.0885C102.601 58.0453 101.904 57.7227 101.001 57.3527C99.5774 56.7545 98.9506 56.5916 95.894 56.0641C92.1266 55.426 91.665 55.2476 90.6999 54.2177C90.4101 53.9176 90.1728 53.7014 90.161 53.7525Z" fill="#112250"></path><path d="M100.638 56.2268C100.492 56.3903 100.776 56.5634 101.981 57.0213C102.48 57.1906 103.397 57.6535 103.99 58.0415C104.603 58.4165 105.234 58.7954 105.41 58.8898C105.731 59.0537 105.731 59.0537 105.466 58.7236C104.993 58.1301 103.512 57.232 102.373 56.8789C101.771 56.6859 101.168 56.421 101.03 56.3174C100.879 56.1929 100.726 56.1575 100.638 56.2268Z" fill="#112250"></path><path d="M104.802 57.2278C104.782 57.3129 104.959 57.4793 105.22 57.5934C105.46 57.7206 105.894 58.0182 106.179 58.2632C106.92 58.8648 107.541 59.2057 107.362 58.8953C107.173 58.5469 104.845 57.0406 104.802 57.2278Z" fill="#112250"></path><path d="M163.833 71.1488L163.85 71.6188L163.367 71.2204C162.738 70.6805 162.689 71.0457 163.307 71.6367C163.808 72.1111 164.058 72.8143 163.932 73.3589C163.897 73.512 163.923 73.787 163.994 73.9468C164.083 74.1825 164.129 74.1393 164.147 73.7492C164.217 72.6718 164.617 73.6606 164.756 75.2344C164.809 76.0894 164.968 76.1798 164.992 75.3786C165.018 74.4883 164.899 73.7616 164.597 73.0465C164.429 72.685 164.277 72.0224 164.218 71.5785C164.134 70.6987 163.818 70.3567 163.833 71.1488Z" fill="#112250"></path><path d="M110.788 59.4364C110.146 59.5746 109.335 59.5844 108.655 59.4987C108.033 59.3909 107.477 59.3878 107.385 59.4741C107.173 59.6939 109.338 59.9615 110.125 59.8207C110.48 59.7595 111.06 59.6605 111.39 59.6293C111.707 59.5772 111.999 59.4832 112.018 59.3981C112.069 59.1769 111.891 59.1715 110.788 59.4364Z" fill="#112250"></path><path d="M110.285 61.0949L109.719 61.2148L110.254 61.231C110.806 61.2511 110.996 61.2054 110.904 61.0587C110.878 61.0168 110.607 61.0257 110.285 61.0949Z" fill="#112250"></path><path d="M110.753 62.1518C109.523 62.6562 107.626 62.6297 107.57 62.0968C107.559 61.9868 107.469 61.9121 107.385 61.9644C107.301 62.0167 107.244 62.183 107.26 62.3479C107.326 62.6858 108.255 62.9366 109.324 62.8969C110.07 62.8543 111.715 62.2665 111.774 62.0113C111.825 61.7901 111.587 61.8069 110.753 62.1518Z" fill="#112250"></path><path d="M152.791 73.4507C152.384 74.1992 152.123 75.2503 152.45 74.7701C152.739 74.371 153.311 72.9078 153.192 72.8802C153.141 72.8684 152.955 73.1301 152.791 73.4507Z" fill="#112250"></path><path d="M163.727 75.8544C163.652 76.1777 163.64 76.6949 163.709 77.0157C163.863 77.7503 163.965 77.3078 163.906 76.1648C163.87 75.3138 163.856 75.2928 163.727 75.8544Z" fill="#112250"></path><path d="M107.211 63.2701C107.386 63.5975 107.603 64.0599 107.701 64.3336C108.014 65.2307 108.943 73.6381 108.963 75.6504C108.962 76.0445 109.072 77.1993 109.196 78.2141C109.445 80.2436 109.511 81.2806 109.534 83.0429C109.529 83.687 109.546 84.8562 109.543 85.6443C109.558 86.4364 109.49 87.5859 109.416 88.2143C109.326 88.8387 109.301 89.801 109.349 90.3679C109.485 91.7977 109.463 93.3701 109.281 95.7122C109.084 98.1943 109.098 98.2873 109.371 98.1173C109.665 97.9343 110.023 91.9579 109.821 90.6563C109.744 90.1365 109.766 89.0302 109.862 88.2277C109.945 87.4043 109.994 86.645 109.959 86.5651C109.928 86.4682 109.929 85.841 109.942 85.1629C109.992 83.2383 109.91 81.0322 109.704 79.0485C109.596 78.0377 109.45 76.2648 109.356 75.1139C109.108 71.6861 108.916 69.5624 108.823 69.3437C108.779 69.2258 108.65 68.2281 108.528 67.1243C108.41 66.0035 108.189 64.787 108.059 64.4164C107.759 63.5402 107.317 62.8106 107.078 62.7554C106.959 62.7278 107.031 62.9596 107.211 63.2701Z" fill="#112250"></path><path d="M164.901 77.0582C164.879 78.4696 165.597 80.5715 166.138 80.7146C166.479 80.7935 166.439 80.4256 166.073 80.1438C165.69 79.858 165.383 78.8549 165.23 77.4212C165.112 76.3003 164.895 76.071 164.901 77.0582Z" fill="#112250"></path><path d="M111.041 64.5694C110.986 64.8076 110.96 65.2318 110.961 65.5368C110.974 66.0239 110.991 66.0278 111.078 65.6534C111.133 65.4152 111.163 64.974 111.158 64.686C111.145 64.1989 111.128 64.195 111.041 64.5694Z" fill="#112250"></path><path d="M163.831 78.1208C163.837 78.4088 163.876 78.9378 163.959 79.2796C164.099 79.9932 165.457 82.351 165.747 82.418C165.866 82.4456 165.611 81.9204 165.191 81.2497C164.758 80.558 164.311 79.5404 164.154 78.8228C163.974 78.0463 163.855 77.7856 163.831 78.1208Z" fill="#112250"></path><path d="M110.911 66.867C110.828 67.9235 111.154 73.9685 111.315 74.203C111.508 74.5344 111.566 73.9741 111.443 72.7983C111.364 72.2065 111.277 70.4834 111.208 68.9974C111.11 66.1602 111.005 65.5264 110.911 66.867Z" fill="#112250"></path><path d="M141.294 74.6467C140.951 74.89 140.37 75.3831 140.02 75.7323C139.49 76.2373 139.347 76.3118 139.317 76.0538C139.284 75.8849 139.386 75.4425 139.524 75.0799C139.702 74.6192 139.712 74.4242 139.563 74.4437C139.436 74.4501 139.247 74.8008 139.115 75.2184C138.935 75.8401 138.935 76.0732 139.175 76.4334C139.537 76.9653 139.689 76.9287 140.029 76.2364C140.147 75.9589 140.434 75.6489 140.632 75.5692C140.847 75.4934 141.031 75.3208 141.058 75.2017C141.09 75.0655 141.328 74.8877 141.602 74.7897C141.876 74.6917 142.111 74.5309 142.131 74.4458C142.202 74.1395 141.915 74.2165 141.294 74.6467Z" fill="#112250"></path><path d="M151.052 77.3139C150.97 77.4382 150.905 77.6385 150.912 77.7655C150.936 77.8964 151.027 77.8101 151.141 77.5497C151.358 77.0798 151.3 76.941 151.052 77.3139Z" fill="#112250"></path><path d="M166.522 81.2535C166.574 81.5704 168.14 82.4882 168.55 82.4218C169.088 82.3489 168.78 82.672 168.08 82.9045C167.688 83.0469 167.154 83.1027 166.881 83.0396C166.574 82.9687 166.388 82.9973 166.433 83.1152C166.562 83.4858 167.535 83.5495 168.145 83.2423C168.473 83.0671 168.857 82.9588 168.977 82.9864C169.113 83.0179 169.336 82.9081 169.481 82.7446C169.727 82.4607 169.697 82.4358 168.759 82.219C168.077 82.0613 167.623 81.8488 167.286 81.52C166.716 80.9578 166.481 80.8856 166.522 81.2535Z" fill="#112250"></path><path d="M149.285 81.1186C148.614 81.7701 148.577 81.8512 148.884 81.9222C149.105 81.9734 149.531 81.6059 149.945 80.9843C150.35 80.3968 149.939 80.4632 149.285 81.1186Z" fill="#112250"></path><path d="M145.55 83.0149C144.57 83.7564 139.262 83.1027 136.958 81.9604C136.333 81.6365 135.568 81.3701 135.284 81.3581C134.18 81.3179 132.593 82.2776 132.068 83.3036C131.737 83.9618 132.1 83.8666 132.74 83.1182C133.06 82.744 133.688 82.2798 134.126 82.0942C135.082 81.6878 135.776 81.7945 137.267 82.5695C138.419 83.1766 141.515 83.767 143.263 83.741C144.328 83.7183 146.187 83.2878 146.242 83.0495C146.29 82.8453 145.814 82.807 145.55 83.0149Z" fill="#112250"></path><path d="M152.24 85.8732C152.167 86.2685 153.775 88.6304 154.524 89.198C155.45 89.9319 157.825 91.234 159.463 91.9174C160.036 92.1575 161.064 92.682 161.745 93.0728C163.041 93.8384 163.437 94.3782 163.433 95.3274C163.434 95.8655 163.623 96.2139 163.837 96.0661C164.085 95.9262 163.87 94.3707 163.521 93.8598C163.137 93.269 161.669 92.3919 159.48 91.4553C157.277 90.4977 154.734 89.0672 154.145 88.4291C153.856 88.1291 153.376 87.4086 153.09 86.8585C152.593 85.901 152.311 85.5669 152.24 85.8732Z" fill="#112250"></path><path d="M145.738 84.6017C145.744 84.7287 146.275 85.228 146.903 85.6959C147.958 86.4954 148.133 86.5898 149.645 86.8856C151.941 87.3628 151.914 87.0158 149.63 86.4876C147.925 86.0934 147.728 86.0121 146.884 85.3149C145.694 84.3228 145.708 84.3438 145.738 84.6017Z" fill="#112250"></path><path d="M110.235 76.4652C110.223 76.5163 110.273 77.1552 110.337 77.8871C110.62 80.8567 110.776 84.2989 110.736 86.1003C110.715 86.8125 110.753 87.0365 110.867 86.776C111.026 86.4004 111.041 83.9299 110.918 82.288C110.88 81.831 110.859 81.145 110.843 80.7469C110.844 80.3529 110.784 79.6039 110.703 79.1011C110.642 78.5852 110.565 77.8323 110.553 77.4173C110.541 77.0023 110.475 76.5924 110.401 76.5216C110.311 76.4469 110.246 76.4142 110.235 76.4652Z" fill="#112250"></path><path d="M133.865 83.0209C133.755 83.4973 134.155 84.2531 134.564 84.3477C134.769 84.395 134.758 84.285 134.476 83.9509C134.268 83.6876 134.151 83.3379 134.21 83.0827C134.261 82.8615 134.236 82.6585 134.134 82.6349C134.049 82.6151 133.92 82.7826 133.865 83.0209Z" fill="#112250"></path><path d="M136.069 85.5034C136.328 85.7066 136.909 86.1457 137.382 86.5061C138.178 87.1025 141.817 89.0733 142.379 89.2034C142.533 89.2388 142.668 89.1984 142.687 89.1133C142.703 89.0452 142.265 88.7647 141.709 88.5285C140.408 87.9409 137.265 86.1564 136.683 85.6453C136.425 85.4422 136.094 85.2403 135.92 85.2179C135.715 85.1706 135.764 85.2715 136.069 85.5034Z" fill="#112250"></path><path d="M132.785 85.3335C132.741 85.5207 133.011 85.6728 134.704 86.3511C135.298 86.578 136.638 87.2285 137.697 87.778C141.419 89.6965 144.309 91.0998 145.601 91.6494C146.32 91.959 147.496 92.464 148.215 92.7736C150.935 93.9764 154.875 95.1921 157.599 95.6787C163.165 96.6967 163.346 96.6131 158.194 95.4396C153.416 94.3529 152.879 94.1928 150.202 93.1078C145.962 91.4101 143.3 90.1851 138.438 87.6804C134.775 85.8117 132.859 85.0102 132.785 85.3335Z" fill="#112250"></path><path d="M162.233 94.6729C162.21 94.775 161.869 94.9292 161.492 95.0035C160.575 95.1677 156.349 94.3342 153.711 93.4731C152.008 92.9179 151.02 92.7613 151.384 93.1321C151.461 93.1858 152.759 93.6294 154.266 94.1033C158.116 95.3163 161.09 95.7351 162.145 95.2083C162.528 95.028 162.586 94.9337 162.455 94.7241C162.324 94.5146 162.273 94.5027 162.233 94.6729Z" fill="#112250"></path><path d="M110.806 88.4451C110.778 89.4964 110.811 90.3645 110.891 90.3292C111.017 90.2507 111.042 88.5893 110.925 88.2396C110.84 87.9869 110.811 88.034 110.806 88.4451Z" fill="#112250"></path><path d="M110.855 94.0498C110.69 94.7645 110.702 94.9465 110.859 94.7319C111.174 94.3027 111.437 93.1626 111.233 93.1153C111.131 93.0916 110.964 93.5013 110.855 94.0498Z" fill="#112250"></path><path d="M126.391 99.0225C125.351 99.015 124.023 99.0126 123.425 99.0357C121.414 99.1087 118.91 98.8343 118.046 98.4552C117.609 98.2466 117.172 98.0381 117.099 97.9674C117.029 97.8796 116.953 97.8978 116.93 97.9999C116.808 98.5275 118.55 99.1456 120.833 99.3687C121.854 99.4612 122.754 99.5261 122.852 99.4948C123.105 99.4099 128.089 99.5227 128.532 99.6252C128.788 99.6843 129.194 100.101 129.596 100.696C129.971 101.249 130.291 101.573 130.318 101.454C130.46 100.842 129.593 99.6195 128.759 99.2653C128.498 99.1512 127.427 99.0469 126.391 99.0225Z" fill="#112250"></path><path d="M113.187 96.7207C112.676 96.8355 111.939 96.9161 111.569 96.8843C110.698 96.8443 110.486 97.0641 111.27 97.2454C111.611 97.3243 112.327 97.2568 112.957 97.0976C113.552 96.9305 114.132 96.8315 114.251 96.8591C114.387 96.8906 114.509 96.8292 114.529 96.7441C114.588 96.4888 114.231 96.4781 113.187 96.7207Z" fill="#112250"></path><path d="M115.592 97.1706C115.623 97.2675 115.859 97.4117 116.115 97.4709C116.473 97.5536 116.532 97.5314 116.359 97.348C116.069 97.0479 115.506 96.9178 115.592 97.1706Z" fill="#112250"></path><path d="M128.207 100.771C128.254 101.266 126.899 101.921 124.762 102.466C123.368 102.825 122.75 102.933 119.448 103.389C118.166 103.576 117.794 103.706 117.943 103.919C118.021 104.045 119.999 103.803 122.91 103.329C126.439 102.747 129.475 101.19 128.389 100.526C128.247 100.44 128.197 100.5 128.207 100.771Z" fill="#112250"></path><path d="M113.368 98.0538C112.631 98.1343 112.051 98.2333 112.077 98.2753C112.182 98.4429 113.929 98.3449 114.456 98.162C115.202 97.8864 115.011 97.86 113.368 98.0538Z" fill="#112250"></path><path d="M114.086 98.6329C112.85 99.0822 111.493 99.1269 110.196 98.7553C109.1 98.4481 108.71 98.5014 109.417 98.8621C109.82 99.0627 112.534 99.4394 113.11 99.3574C113.872 99.2467 115.33 98.6876 115.263 98.5108C115.178 98.258 115.068 98.2684 114.086 98.6329Z" fill="#112250"></path><path d="M108.465 97.2451C108.289 97.3837 107.631 97.8231 106.984 98.2114C105.327 99.2443 101.473 100.146 99.082 100.077C98.3686 100.056 97.132 100.899 96.6927 101.712C96.2901 102.443 95.97 103.75 96.1746 103.797C96.2598 103.817 96.4815 103.402 96.6716 102.89C97.1123 101.683 97.806 100.858 98.5155 100.663C98.8197 100.59 99.7009 100.507 100.481 100.472C101.859 100.415 102.764 100.229 105.279 99.4485C106.558 99.045 107.155 98.7169 108.274 97.7568C108.88 97.2337 109.046 96.752 108.465 97.2451Z" fill="#112250"></path><path d="M128.122 102.364C127.341 102.559 126.044 102.887 125.254 103.117C120.45 104.48 112.494 105.024 104.087 104.568C102.97 104.507 101.442 104.512 100.705 104.593C99.9721 104.656 99.281 104.694 99.1617 104.666C98.6332 104.544 97.592 104.698 97.655 104.891C97.7441 105.127 98.4876 105.174 99.7662 105.003C100.283 104.943 101.424 104.902 102.294 104.942C108.117 105.159 110.804 105.189 113.309 105.069C114.454 105.011 115.76 104.955 116.214 104.934C119.026 104.814 123.845 104.01 125.734 103.371C126.321 103.166 127.245 102.896 127.76 102.764C129.552 102.318 130.058 102.148 129.802 102.089C129.666 102.057 128.9 102.185 128.122 102.364Z" fill="#112250"></path><path d="M106.646 103.996C105.157 103.992 100.127 103.456 99.193 103.222C98.4167 103.007 97.9119 102.55 98.0102 102.124C98.0378 102.005 97.9932 101.887 97.8909 101.864C97.5329 101.781 97.6195 102.339 98.0482 102.814C98.477 103.29 98.5963 103.318 100.921 103.748C103.318 104.176 107.776 104.472 108.208 104.232C108.46 104.075 107.992 104.002 106.646 103.996Z" fill="#112250"></path></svg> 