<?xml version="1.0" encoding="UTF-8"?> <svg xmlns="http://www.w3.org/2000/svg" width="409" height="197" viewBox="0 0 409 197" fill="none"><path d="M0.862396 106.138C1.77606 113.43 5.05447 123.26 8.70911 129.417C13.5461 137.735 20.9629 145.512 29.1858 150.913C34.2915 154.262 34.614 154.532 35.4739 157.232C36.8175 161.337 39.8272 164.902 43.9118 167.116C47.029 168.791 47.8889 169.007 52.9946 169.277L58.584 169.547L60.5188 172.896C65.6783 182.131 72.2889 187.262 83.4677 190.719C88.0898 192.177 88.466 192.177 101.633 192.177C113.081 192.123 116.574 191.907 125.281 190.665C156.829 186.236 155.647 186.344 169.889 186.344C182.143 186.344 183.701 186.452 187.571 187.532C192.247 188.829 197.191 191.367 201.544 194.662C203.103 195.85 204.554 196.822 204.769 196.822C204.984 196.822 207.134 195.418 209.552 193.636C214.712 189.909 219.119 188.073 225.783 186.83C229.814 186.02 232.609 185.966 242.444 186.182C248.947 186.398 256.095 186.776 258.299 187.1C290.653 191.799 300.166 192.771 312.043 192.339C322.093 192.015 326.769 191.043 333.272 187.911C340.743 184.292 345.419 179.809 349.019 172.95L350.847 169.547L356.544 169.223C363.047 168.899 366.325 167.657 369.872 164.092C371.861 162.039 374.387 157.34 374.387 155.612C374.387 155.072 375.139 154.208 376.053 153.722C384.168 149.293 391.37 143.082 396.53 136.114C400.668 130.551 405.129 121.261 407.01 114.456C408.353 109.433 408.461 108.299 408.461 98.5228C408.461 88.8009 408.353 87.6127 407.064 82.7517C402.549 66.1705 391.101 51.5876 376.053 43.3239C375.032 42.7298 374.387 41.9737 374.387 41.2715C374.387 39.4352 371.915 35.2223 369.442 32.8459C365.627 29.1191 363.154 28.1469 356.651 27.8769L351.008 27.6068L348.321 23.0699C340.797 10.1074 328.489 4.43626 308.335 4.43626C299.843 4.49026 295.812 4.86835 273.616 7.78491C253.623 10.4314 247.227 11.0256 238.628 11.0256C223.687 11.0256 214.981 8.48706 207.349 1.78973C206.382 0.925568 205.253 0.223419 204.877 0.223419C204.5 0.223419 202.781 1.35765 201.007 2.70792C196.707 6.05658 192.838 7.94695 187.087 9.45924C182.68 10.6475 181.175 10.7555 169.889 10.7555C162.795 10.7555 155.378 10.4314 152.422 10.0534C113.081 4.6523 112.221 4.54428 100.72 4.54428C87.8748 4.54428 79.3294 6.59668 72.0739 11.4036C67.8281 14.2122 63.3135 19.0732 60.6801 23.502L58.3153 27.6608L53.0483 27.8769C48.4263 28.0389 47.3514 28.309 44.1805 29.8753C41.2783 31.2796 40.0959 32.3058 38.2686 34.7903C36.9787 36.5186 35.6889 39.0031 35.3664 40.2993C34.8827 42.2977 34.399 42.8919 32.4642 43.9721C28.4871 46.1865 20.4254 52.4517 17.4695 55.6924C9.46152 64.4961 4.03333 75.0282 1.72232 86.2084C0.701172 91.2854 0.217468 101.331 0.862396 106.138ZM2.79721 87.8287C5.96814 70.2753 16.0721 55.8004 31.873 46.0785C35.4739 43.864 35.8501 43.486 36.6025 41.0015C37.6774 37.2207 40.8483 33.332 44.3955 31.3336C47.1364 29.7673 47.8351 29.6592 53.4246 29.4432L59.4439 29.2812L60.5188 26.9047C62.1849 23.0159 65.8933 18.155 69.3329 15.2384C78.8995 7.24481 91.5832 4.59828 111.845 6.38065C117.434 6.86673 126.41 7.83893 131.73 8.59508C154.679 11.7817 159.516 12.2678 170.695 12.3218C180.638 12.3758 182.196 12.2678 186.55 11.1336C192.515 9.56728 198.105 6.92075 201.544 4.05818C202.942 2.81593 204.393 1.84375 204.662 1.84375C204.984 1.84375 206.704 2.97797 208.531 4.32823C218.313 11.8357 230.674 13.9421 251.849 11.8357C256.149 11.4036 266.898 10.1074 275.766 8.86513C303.552 5.1384 314.945 4.86835 325.802 7.73091C335.691 10.3234 344.021 17.0748 348.643 26.2026L350.148 29.2812L356.49 29.4432C362.671 29.6592 362.939 29.7133 365.68 31.4956C369.227 33.7641 371.592 36.7887 372.721 40.5154C373.581 43.2699 373.849 43.594 377.612 45.8624C389.005 52.9378 396.422 61.2555 402.065 73.2999C404.86 79.241 406.365 84.6421 407.225 92.1496C408.837 106.138 405.451 119.749 397.228 132.658C393.574 138.329 384.921 146.7 378.579 150.589C374.172 153.29 373.366 153.992 373.097 155.45C372.291 159.663 368.797 164.146 364.767 166.144C362.778 167.116 361.005 167.386 356.168 167.657L349.987 167.927L348.213 171.437C341.871 184.076 330.316 190.341 311.775 191.259C304.25 191.583 294.146 190.719 274.422 187.911C243.626 183.536 229.277 183.374 217.614 187.37C214.604 188.397 212.401 189.693 208.155 192.879C206.489 194.176 204.93 195.202 204.715 195.202C204.5 195.202 202.996 194.122 201.383 192.825C197.46 189.747 193.698 187.911 188.861 186.614C176.446 183.32 165.966 183.644 130.763 188.451C105.019 191.961 94.1092 192.123 83.7365 189.261C73.2563 186.344 65.0334 179.701 60.8413 170.897C60.2501 169.547 59.4439 168.305 59.1752 168.089C58.8528 167.873 56.2193 167.657 53.2096 167.657C48.4263 167.657 47.4589 167.494 45.1479 166.252C43.6968 165.496 41.7083 164.092 40.7408 163.174C38.806 161.283 36.3338 156.692 36.3338 154.91C36.3338 154.046 35.3664 153.182 32.4104 151.399C26.9822 148.159 23.2739 145.242 18.5443 140.327C5.16196 126.338 -0.642456 106.949 2.79721 87.8287Z" fill="#E0C58E"></path><path d="M7.04669 106.943C9.73392 124.55 20.9128 140.429 36.4987 148.747C38.756 149.989 40.5295 151.231 40.3146 151.501C39.7234 152.474 41.7119 157.659 43.3242 159.441C46.3877 162.682 48.43 163.33 55.363 163.33C61.9736 163.33 63.2097 163.546 63.2097 164.788C63.2097 165.814 66.2194 171.863 67.778 173.916C77.8282 187.148 94.5965 189.687 132.97 183.8C166.507 178.615 183.866 178.777 195.69 184.34C197.517 185.15 200.205 186.77 201.763 187.905L204.612 189.957L206.976 188.229C210.631 185.582 217.833 182.396 222.294 181.423C227.829 180.181 243.2 179.749 251.746 180.613C255.508 180.937 262.656 181.855 267.708 182.558C272.706 183.314 280.176 184.394 284.207 184.934C294.472 186.446 308.983 187.148 315.863 186.5C326.182 185.582 333.276 182.612 338.973 176.886C342.198 173.646 345.046 168.947 346.605 164.302C346.927 163.438 347.733 163.33 353.538 163.33C361.008 163.33 363.158 162.628 366.168 159.549C367.941 157.713 368.64 156.092 369.285 152.366C369.554 150.691 369.93 150.205 371.542 149.557C375.089 148.045 382.667 142.59 386.537 138.755C395.297 130.005 400.779 119.149 402.606 106.781C403.574 100.461 403.628 96.7886 402.821 91.1715C400.242 72.2678 389.385 57.0908 371.757 47.6389C369.231 46.2346 369.016 45.9646 369.016 44.2362C369.016 41.9138 367.511 38.8352 365.415 36.8368C362.782 34.2983 360.524 33.7041 353.43 33.7041C347.733 33.7041 346.927 33.5961 346.658 32.7319C346.497 32.2458 345.476 30.0314 344.455 27.817C340.8 20.1475 333.168 14.1523 324.139 11.8298C313.176 9.02126 301.889 9.45334 272.115 13.7742C235.515 19.0672 219.499 17.825 206.923 8.75121L204.665 7.13089L202.086 9.02126C193.594 15.0704 183.06 17.3389 166.399 16.7448C156.779 16.4207 155.382 16.2587 131.035 12.91C113.138 10.4796 104.163 9.7234 97.23 10.1555C79.6018 11.1817 69.9278 16.8528 64.2309 29.5453L62.4036 33.7041H55.793C48.1075 33.7041 46.6564 34.1902 43.378 37.7549C41.3895 39.9154 40.9595 41.0496 40.5295 44.9924C40.4221 45.9646 39.5084 46.7207 36.8749 48.125C15.4308 59.5753 3.39206 83.2859 7.04669 106.943ZM9.73392 90.1453C12.4749 73.0239 23.1163 58.387 38.2723 50.8255L42.5718 48.6651L43.163 45.2624C43.8617 41.1036 45.4203 38.7811 48.3763 37.4309C50.1498 36.6207 51.9234 36.4047 57.674 36.4047H64.7146L65.8969 32.948C68.208 25.9806 73.2062 20.0934 79.3331 17.1229C85.6212 14.0983 88.0397 13.6122 98.7886 13.3421C109.753 13.0181 114.804 13.3961 131.734 15.8806C155.113 19.2293 156.456 19.3913 169.893 19.3913C180.48 19.3913 183.597 19.2293 187.36 18.3651C192.895 17.1769 197.302 15.4485 201.548 12.802L204.719 10.8576L206.385 11.8298C210.9 14.5303 213.748 15.8806 216.919 16.9068C230.409 21.1737 249.435 20.4715 288.937 14.2063C290.872 13.8822 297.751 13.5042 304.254 13.3421C318.228 12.964 322.581 13.6122 329.514 16.9608C336.447 20.3095 340.746 25.1705 343.541 32.84L344.724 36.1346L352.409 36.4047C358.912 36.6207 360.417 36.8368 362.029 37.8089C364.932 39.4833 366.329 41.9678 366.329 45.3705V48.287L369.769 49.8533C381.216 55.0924 391.643 66.2186 396.695 78.641C399.382 85.2843 400.349 90.1993 400.403 97.9768C400.457 105.484 399.704 110.237 397.501 116.34C394.491 124.55 390.084 131.355 383.796 137.351C379.228 141.671 376.325 143.778 370.79 146.586L366.651 148.747L366.544 151.393C366.329 154.796 365.254 156.902 362.728 158.847C360.847 160.305 360.524 160.359 352.785 160.629L344.724 160.899L343.756 163.708C339.242 176.67 329.836 182.99 313.928 183.8C302.158 184.394 295.655 183.8 263.139 179.155C254.594 177.913 251.316 177.697 239.761 177.697C228.582 177.643 225.679 177.805 222.347 178.615C217.027 179.911 210.738 182.396 207.783 184.394C206.439 185.258 205.149 186.014 204.934 186.014C204.665 186.014 202.999 185.15 201.172 184.07C196.98 181.639 190.101 179.263 183.597 178.129C179.459 177.427 176.288 177.319 166.668 177.535C160.165 177.697 153.393 178.075 151.619 178.399C146.46 179.317 125.983 182.125 117.492 183.098C111.902 183.692 106.743 183.908 99.2186 183.746C89.4908 183.53 88.4159 183.422 84.4388 182.017C82.0741 181.207 79.0644 179.911 77.7745 179.155C72.3463 175.968 67.993 170.459 65.8969 164.086L64.7146 160.629L57.5128 160.629C49.5586 160.629 47.2476 159.981 44.9903 157.065C43.808 155.552 43.593 154.958 43.0555 150.907C42.6793 148.477 42.6793 148.477 38.4872 146.424C18.0106 136.54 6.02554 113.046 9.73392 90.1453Z" fill="#3B507D"></path><path d="M78.1643 16.6935C70.2659 17.5909 65.2999 28.8868 63.8043 34.4226L50.7207 35.8762L43.1482 39.8271L42.38 47.2899L37.1121 49.4849L24.2716 59.2524L15.8211 71.5441L10.9922 80.4336L7.58594 91.1888L8.56966 104.798L11.6435 117.638L20.7534 133.99L27.8874 141.014L41.0624 149.904L43.1474 156.818L49.615 162.195H63.6659L69.1532 173.39L79.689 181.73L92.6391 185.133L118.101 184.474L138.514 181.73L160.024 178.987H184.059L204.911 187.657L215.227 182.279L229.933 178.987H254.516L272.076 182.279L298.854 184.803H318.609L332.876 180.413L340.558 172.512L345.387 161.756L355.155 161.098L359.866 161.756L363.276 159.232L367.446 154.842L368.763 149.355L381.055 141.124L390.823 130.478L399.163 116.87L401.029 101.944V89.6524L394.664 72.7513L385.226 59.9109L372.824 50.9116L367.556 48.3874L365.582 38.7322L358.839 34.9982L346.485 34.9982L344.532 30.8384L336.561 19.1328L322.67 13.0488L298.415 12.3903L281.036 15.1239L257.248 16.6935L233.235 18.4902L217.077 15.1239L205.408 9.28906L187.005 16.6935L162.768 18.4902L138.307 15.1239L100.829 11.5324C102.25 12.5797 104.061 14.0459 99.9313 11.5324C95.8021 9.01892 83.6994 13.9259 78.1643 16.6935Z" fill="#3B507D"></path></svg> 