<?xml version="1.0" encoding="UTF-8"?> <svg xmlns="http://www.w3.org/2000/svg" width="223" height="30" viewBox="0 0 223 30" fill="none"><path d="M0.687305 28.8652V27.5452C1.70064 27.4919 2.39397 27.2652 2.76731 26.8652C3.14064 26.4386 3.34064 25.8652 3.36731 25.1452C3.42064 24.3986 3.4473 23.5586 3.4473 22.6252V5.34523C3.4473 4.8119 3.46064 4.30523 3.4873 3.82523C3.51397 3.31857 3.54064 2.86523 3.5673 2.46523C3.0873 2.4919 2.6073 2.51857 2.1273 2.54523C1.6473 2.5719 1.1673 2.59857 0.687305 2.62523V0.865232H9.6873V2.18523C8.70064 2.2119 8.00731 2.43857 7.60731 2.86523C7.23397 3.2919 7.02064 3.86523 6.96731 4.58523C6.94064 5.30523 6.92731 6.14523 6.92731 7.10523V13.6652H9.92731L14.9273 5.78523C15.274 5.2519 15.7006 4.66523 16.2073 4.02523C16.714 3.38523 17.234 2.8519 17.7673 2.42523C17.3673 2.4519 16.954 2.46523 16.5273 2.46523C16.1273 2.46523 15.7273 2.47857 15.3273 2.50523V0.865232H23.9273V2.18523C22.8073 2.26523 21.8073 2.4519 20.9273 2.74523C20.0473 3.03857 19.2073 3.55857 18.4073 4.30523C17.6073 5.02523 16.754 6.11857 15.8473 7.58523L11.9273 13.8252C12.7006 14.2786 13.3273 14.8119 13.8073 15.4252C14.2873 16.0119 14.7673 16.6119 15.2473 17.2252L19.7273 23.1852C20.7406 24.5186 21.5673 25.5052 22.2073 26.1452C22.874 26.7586 23.4606 27.1452 23.9673 27.3052C24.5006 27.4652 25.0473 27.5452 25.6073 27.5452V28.8652H20.7273C20.4606 28.8652 20.1006 28.6786 19.6473 28.3052C19.2206 27.9319 18.754 27.4519 18.2473 26.8652C17.7406 26.2519 17.2206 25.6119 16.6873 24.9452L11.8873 18.4652C11.3806 17.7986 10.874 17.1719 10.3673 16.5852C9.86064 15.9719 9.36731 15.5186 8.88731 15.2252L6.92731 15.2652V24.1052C6.92731 24.8252 6.91397 25.4519 6.88731 25.9852C6.88731 26.4919 6.86064 26.9186 6.8073 27.2652C7.28731 27.2386 7.76731 27.2119 8.24731 27.1852C8.72731 27.1586 9.20731 27.1319 9.6873 27.1052V28.8652H0.687305ZM40.8954 29.5052C38.3621 29.5052 36.1888 29.0786 34.3754 28.2252C32.5621 27.3719 31.0821 26.2386 29.9354 24.8252C28.8154 23.3852 27.9888 21.7986 27.4554 20.0652C26.9221 18.3319 26.6554 16.5986 26.6554 14.8652C26.6554 13.1852 26.9354 11.4919 27.4954 9.78523C28.0554 8.0519 28.9088 6.46523 30.0554 5.02523C31.2288 3.58523 32.6821 2.42523 34.4154 1.54523C36.1754 0.665233 38.2288 0.225234 40.5754 0.225234C43.0288 0.225234 45.1488 0.665233 46.9354 1.54523C48.7221 2.42523 50.1888 3.59857 51.3354 5.06523C52.5088 6.50523 53.3754 8.07857 53.9354 9.78523C54.5221 11.4919 54.8154 13.1852 54.8154 14.8652C54.8154 16.5186 54.5354 18.2119 53.9754 19.9452C53.4154 21.6519 52.5488 23.2386 51.3754 24.7052C50.2288 26.1452 48.7888 27.3052 47.0554 28.1852C45.3221 29.0652 43.2688 29.5052 40.8954 29.5052ZM40.9754 27.8652C42.6288 27.8652 44.0688 27.5186 45.2954 26.8252C46.5221 26.1052 47.5354 25.1586 48.3354 23.9852C49.1621 22.7852 49.7754 21.4652 50.1754 20.0252C50.6021 18.5586 50.8154 17.0919 50.8154 15.6252C50.8154 13.9719 50.5888 12.3319 50.1354 10.7052C49.6821 9.07857 49.0154 7.59857 48.1354 6.26523C47.2554 4.9319 46.1621 3.86523 44.8554 3.06523C43.5754 2.23857 42.1088 1.82523 40.4554 1.82523C38.8021 1.82523 37.3488 2.18523 36.0954 2.90523C34.8688 3.62523 33.8421 4.58523 33.0154 5.78523C32.2154 6.95857 31.6021 8.27857 31.1754 9.74523C30.7754 11.1852 30.5754 12.6519 30.5754 14.1452C30.5754 15.6119 30.7754 17.1452 31.1754 18.7452C31.6021 20.3452 32.2421 21.8386 33.0954 23.2252C33.9488 24.6119 35.0288 25.7319 36.3354 26.5852C37.6421 27.4386 39.1888 27.8652 40.9754 27.8652ZM58.4217 28.8652V27.5452C59.435 27.4919 60.1283 27.2652 60.5017 26.8652C60.875 26.4386 61.075 25.8652 61.1017 25.1452C61.155 24.3986 61.1817 23.5586 61.1817 22.6252V5.34523C61.1817 4.8119 61.195 4.30523 61.2217 3.82523C61.2483 3.31857 61.275 2.86523 61.3017 2.46523C60.8217 2.4919 60.3417 2.51857 59.8617 2.54523C59.3817 2.5719 58.9017 2.59857 58.4217 2.62523V0.865232H67.4217V2.18523C66.435 2.2119 65.7417 2.43857 65.3417 2.86523C64.9683 3.2919 64.755 3.86523 64.7017 4.58523C64.675 5.30523 64.6617 6.14523 64.6617 7.10523V13.7452H78.9817V5.34523C78.9817 4.8119 78.995 4.30523 79.0217 3.82523C79.0483 3.31857 79.075 2.86523 79.1017 2.46523C78.6217 2.4919 78.1417 2.51857 77.6617 2.54523C77.1817 2.5719 76.7017 2.59857 76.2217 2.62523V0.865232H85.2217V2.18523C84.235 2.2119 83.5417 2.43857 83.1417 2.86523C82.7683 3.2919 82.555 3.86523 82.5017 4.58523C82.475 5.30523 82.4617 6.14523 82.4617 7.10523V24.1052C82.4617 24.8252 82.4483 25.4519 82.4217 25.9852C82.4217 26.4919 82.395 26.9186 82.3417 27.2652C82.8217 27.2386 83.3017 27.2119 83.7817 27.1852C84.2617 27.1586 84.7417 27.1319 85.2217 27.1052V28.8652H76.2217V27.5452C77.235 27.4919 77.9283 27.2652 78.3017 26.8652C78.675 26.4386 78.875 25.8652 78.9017 25.1452C78.955 24.3986 78.9817 23.5586 78.9817 22.6252V15.3452L64.6617 15.5052V24.1052C64.6617 24.8252 64.6483 25.4519 64.6217 25.9852C64.6217 26.4919 64.595 26.9186 64.5417 27.2652C65.0217 27.2386 65.5017 27.2119 65.9817 27.1852C66.4617 27.1586 66.9417 27.1319 67.4217 27.1052V28.8652H58.4217ZM110.593 9.30523C110.566 7.7319 110.406 6.42523 110.113 5.38523C109.819 4.34523 109.299 3.5719 108.553 3.06523C107.833 2.5319 106.779 2.27857 105.393 2.30523H101.993L101.953 24.1052C101.953 24.8252 101.939 25.4519 101.913 25.9852C101.913 26.4919 101.886 26.9186 101.833 27.2652C102.393 27.2386 102.939 27.2119 103.473 27.1852C104.033 27.1586 104.593 27.1319 105.153 27.1052V28.8652H95.7526V27.5452C96.766 27.4919 97.446 27.2519 97.7926 26.8252C98.166 26.3986 98.366 25.8252 98.3926 25.1052C98.446 24.3586 98.4726 23.5319 98.4726 22.6252L98.5126 2.34523L94.3926 2.38523C92.7126 2.38523 91.526 2.94523 90.8326 4.06523C90.1393 5.18523 89.7926 6.9319 89.7926 9.30523H88.3126L88.5526 0.865232H111.873L112.113 9.30523H110.593ZM111.802 28.8652V27.5452C112.602 27.5452 113.215 27.3319 113.642 26.9052C114.069 26.4786 114.415 25.8919 114.682 25.1452C114.975 24.3986 115.309 23.5319 115.682 22.5452L123.922 0.105233H124.882L133.802 22.8652C134.015 23.4252 134.255 24.1452 134.522 25.0252C134.789 25.9052 134.895 26.6519 134.842 27.2652C135.295 27.2386 135.749 27.2119 136.202 27.1852C136.655 27.1586 137.109 27.1319 137.562 27.1052V28.8652H128.402V27.5452C129.415 27.5186 130.082 27.2919 130.402 26.8652C130.722 26.4386 130.842 25.9319 130.762 25.3452C130.682 24.7586 130.549 24.2252 130.362 23.7452L128.962 19.9852L118.562 20.2252L117.162 24.5052C116.975 25.1452 116.802 25.6519 116.642 26.0252C116.509 26.3986 116.349 26.8119 116.162 27.2652C116.695 27.2386 117.215 27.2119 117.722 27.1852C118.255 27.1586 118.775 27.1319 119.282 27.1052V28.8652H111.802ZM119.162 18.5052H128.402L125.562 10.8652C125.269 10.0386 124.962 9.22523 124.642 8.42523C124.349 7.59857 124.055 6.7719 123.762 5.94523H123.682C123.415 6.6919 123.135 7.43857 122.842 8.18523C122.575 8.9319 122.295 9.6919 122.002 10.4652L119.162 18.5052ZM139.281 28.8652V27.5452C140.294 27.4919 140.988 27.2652 141.361 26.8652C141.734 26.4386 141.934 25.8652 141.961 25.1452C142.014 24.3986 142.041 23.5586 142.041 22.6252V5.34523C142.041 4.8119 142.054 4.30523 142.081 3.82523C142.108 3.31857 142.134 2.86523 142.161 2.46523C141.681 2.4919 141.201 2.51857 140.721 2.54523C140.241 2.5719 139.761 2.59857 139.281 2.62523V0.865232H148.281V2.18523C147.294 2.2119 146.601 2.43857 146.201 2.86523C145.828 3.2919 145.614 3.86523 145.561 4.58523C145.534 5.30523 145.521 6.14523 145.521 7.10523V13.6652H148.521L153.521 5.78523C153.868 5.2519 154.294 4.66523 154.801 4.02523C155.308 3.38523 155.828 2.8519 156.361 2.42523C155.961 2.4519 155.548 2.46523 155.121 2.46523C154.721 2.46523 154.321 2.47857 153.921 2.50523V0.865232H162.521V2.18523C161.401 2.26523 160.401 2.4519 159.521 2.74523C158.641 3.03857 157.801 3.55857 157.001 4.30523C156.201 5.02523 155.348 6.11857 154.441 7.58523L150.521 13.8252C151.294 14.2786 151.921 14.8119 152.401 15.4252C152.881 16.0119 153.361 16.6119 153.841 17.2252L158.321 23.1852C159.334 24.5186 160.161 25.5052 160.801 26.1452C161.468 26.7586 162.054 27.1452 162.561 27.3052C163.094 27.4652 163.641 27.5452 164.201 27.5452V28.8652H159.321C159.054 28.8652 158.694 28.6786 158.241 28.3052C157.814 27.9319 157.348 27.4519 156.841 26.8652C156.334 26.2519 155.814 25.6119 155.281 24.9452L150.481 18.4652C149.974 17.7986 149.468 17.1719 148.961 16.5852C148.454 15.9719 147.961 15.5186 147.481 15.2252L145.521 15.2652V24.1052C145.521 24.8252 145.508 25.4519 145.481 25.9852C145.481 26.4919 145.454 26.9186 145.401 27.2652C145.881 27.2386 146.361 27.2119 146.841 27.1852C147.321 27.1586 147.801 27.1319 148.281 27.1052V28.8652H139.281ZM186.764 9.30523C186.738 7.7319 186.578 6.42523 186.284 5.38523C185.991 4.34523 185.471 3.5719 184.724 3.06523C184.004 2.5319 182.951 2.27857 181.564 2.30523H178.164L178.124 24.1052C178.124 24.8252 178.111 25.4519 178.084 25.9852C178.084 26.4919 178.058 26.9186 178.004 27.2652C178.564 27.2386 179.111 27.2119 179.644 27.1852C180.204 27.1586 180.764 27.1319 181.324 27.1052V28.8652H171.924V27.5452C172.938 27.4919 173.618 27.2519 173.964 26.8252C174.338 26.3986 174.538 25.8252 174.564 25.1052C174.618 24.3586 174.644 23.5319 174.644 22.6252L174.684 2.34523L170.564 2.38523C168.884 2.38523 167.698 2.94523 167.004 4.06523C166.311 5.18523 165.964 6.9319 165.964 9.30523H164.484L164.724 0.865232H188.044L188.284 9.30523H186.764ZM191.39 28.8652V27.5452C192.377 27.5186 193.057 27.3052 193.43 26.9052C193.804 26.4786 194.017 25.9052 194.07 25.1852C194.124 24.4386 194.15 23.5852 194.15 22.6252V5.34523C194.15 4.8119 194.164 4.30523 194.19 3.82523C194.217 3.31857 194.244 2.86523 194.27 2.46523C193.79 2.4919 193.31 2.51857 192.83 2.54523C192.35 2.5719 191.87 2.59857 191.39 2.62523V0.865232H200.39V2.18523C199.404 2.2119 198.71 2.43857 198.31 2.86523C197.937 3.2919 197.724 3.86523 197.67 4.58523C197.644 5.30523 197.63 6.14523 197.63 7.10523V12.5852L200.87 12.4652C202.924 12.4119 204.657 12.5719 206.07 12.9452C207.484 13.2919 208.617 13.8252 209.47 14.5452C210.324 15.2652 210.937 16.1186 211.31 17.1052C211.71 18.0919 211.91 19.1719 211.91 20.3452C211.91 22.2119 211.51 23.7852 210.71 25.0652C209.91 26.3186 208.844 27.2652 207.51 27.9052C206.177 28.5452 204.697 28.8652 203.07 28.8652H191.39ZM197.51 27.2652C197.937 27.2919 198.444 27.3186 199.03 27.3452C199.644 27.3452 200.204 27.3452 200.71 27.3452C201.244 27.3452 201.59 27.3452 201.75 27.3452C202.924 27.3452 203.99 27.1052 204.95 26.6252C205.91 26.1452 206.67 25.3986 207.23 24.3852C207.79 23.3719 208.07 22.0786 208.07 20.5052C208.07 18.7986 207.75 17.4786 207.11 16.5452C206.497 15.6119 205.71 14.9586 204.75 14.5852C203.79 14.1852 202.79 13.9852 201.75 13.9852C200.95 13.9852 200.217 13.9986 199.55 14.0252C198.91 14.0252 198.27 14.0519 197.63 14.1052C197.63 16.6919 197.63 18.7986 197.63 20.4252C197.63 22.0252 197.617 23.2786 197.59 24.1852C197.59 25.0652 197.577 25.7319 197.55 26.1852C197.55 26.6386 197.537 26.9986 197.51 27.2652ZM213.95 28.8652V27.5452C214.964 27.4919 215.657 27.2652 216.03 26.8652C216.404 26.4386 216.604 25.8652 216.63 25.1452C216.684 24.3986 216.71 23.5586 216.71 22.6252V5.34523C216.71 4.8119 216.71 4.30523 216.71 3.82523C216.737 3.31857 216.777 2.86523 216.83 2.46523C216.35 2.4919 215.87 2.51857 215.39 2.54523C214.91 2.5719 214.43 2.59857 213.95 2.62523V0.865232H222.95V2.18523C221.964 2.2119 221.27 2.43857 220.87 2.86523C220.497 3.2919 220.284 3.86523 220.23 4.58523C220.204 5.30523 220.19 6.14523 220.19 7.10523V24.1052C220.19 24.8252 220.177 25.4519 220.15 25.9852C220.124 26.4919 220.084 26.9186 220.03 27.2652C220.51 27.2386 220.99 27.2119 221.47 27.1852C221.977 27.1586 222.47 27.1319 222.95 27.1052V28.8652H213.95Z" fill="#353434"></path></svg> 