<?xml version="1.0" encoding="UTF-8"?> <svg xmlns="http://www.w3.org/2000/svg" width="324" height="100" viewBox="0 0 324 100" fill="none"><path d="M301.181 16.4697V3.12973H304.101C305.248 3.12973 306.148 3.43639 306.801 4.04973C307.454 4.64973 307.781 5.45639 307.781 6.46973C307.781 7.77639 307.261 8.74973 306.221 9.38973C307.074 9.52306 307.748 9.89639 308.241 10.5097C308.734 11.1231 308.981 11.8631 308.981 12.7297C308.981 13.8764 308.594 14.7897 307.821 15.4697C307.061 16.1364 306.068 16.4697 304.841 16.4697H301.181ZM302.061 3.92973V9.16973H304.181C304.941 9.16973 305.548 8.98306 306.001 8.60973C306.588 8.12973 306.881 7.44973 306.881 6.56973C306.881 5.67639 306.581 4.98306 305.981 4.48973C305.501 4.11639 304.761 3.92973 303.761 3.92973H302.061ZM302.061 9.96973V15.6697H304.301C304.714 15.6697 305.041 15.6631 305.281 15.6497C305.521 15.6231 305.828 15.5497 306.201 15.4297C306.588 15.3097 306.921 15.1231 307.201 14.8697C307.774 14.3631 308.061 13.6831 308.061 12.8297C308.061 11.6164 307.588 10.7897 306.641 10.3497C306.068 10.0964 305.234 9.96973 304.141 9.96973H302.061ZM322.544 4.68973V5.84973C321.971 5.18306 321.291 4.66973 320.504 4.30973C319.731 3.93639 318.911 3.74973 318.044 3.74973C316.351 3.74973 314.931 4.34306 313.784 5.52973C312.638 6.71639 312.064 8.16306 312.064 9.86973C312.064 10.8164 312.244 11.6831 312.604 12.4697C312.978 13.2564 313.458 13.8964 314.044 14.3897C314.644 14.8697 315.291 15.2431 315.984 15.5097C316.678 15.7631 317.371 15.8897 318.064 15.8897C318.811 15.8897 319.584 15.7297 320.384 15.4097C321.184 15.0764 321.904 14.5631 322.544 13.8697V15.0297C321.291 16.1364 319.811 16.6897 318.104 16.6897C316.131 16.6897 314.478 16.0164 313.144 14.6697C311.811 13.3231 311.144 11.7097 311.144 9.82973C311.144 7.90973 311.818 6.28306 313.164 4.94973C314.511 3.61639 316.144 2.94973 318.064 2.94973C319.824 2.94973 321.318 3.52973 322.544 4.68973Z" fill="#272727"></path><path d="M261.861 4.68973V5.84973C261.288 5.18306 260.608 4.66973 259.821 4.30973C259.048 3.93639 258.228 3.74973 257.361 3.74973C255.668 3.74973 254.248 4.34306 253.101 5.52973C251.954 6.71639 251.381 8.16306 251.381 9.86973C251.381 10.8164 251.561 11.6831 251.921 12.4697C252.294 13.2564 252.774 13.8964 253.361 14.3897C253.961 14.8697 254.608 15.2431 255.301 15.5097C255.994 15.7631 256.688 15.8897 257.381 15.8897C258.128 15.8897 258.901 15.7297 259.701 15.4097C260.501 15.0764 261.221 14.5631 261.861 13.8697V15.0297C260.608 16.1364 259.128 16.6897 257.421 16.6897C255.448 16.6897 253.794 16.0164 252.461 14.6697C251.128 13.3231 250.461 11.7097 250.461 9.82973C250.461 7.90973 251.134 6.28306 252.481 4.94973C253.828 3.61639 255.461 2.94973 257.381 2.94973C259.141 2.94973 260.634 3.52973 261.861 4.68973ZM264.736 16.4697V3.12973H271.156V3.92973H265.616V8.86973H267.936C271.002 8.86973 272.536 10.0897 272.536 12.5297C272.536 13.6364 272.176 14.5697 271.456 15.3297C270.749 16.0897 269.669 16.4697 268.216 16.4697H264.736ZM265.616 9.66973V15.6697H267.856C269.202 15.6697 270.176 15.3764 270.776 14.7897C271.336 14.2564 271.616 13.5031 271.616 12.5297C271.616 11.3697 271.156 10.5497 270.236 10.0697C269.702 9.80306 268.856 9.66973 267.696 9.66973H265.616Z" fill="#272727"></path><path d="M202.402 3.12973H212.242V16.4697H211.362V3.92973H203.282V16.4697H202.402V3.12973ZM222.119 3.92973H218.659V16.4697H217.779V3.92973H214.319V3.12973H222.119V3.92973Z" fill="#272727"></path><path d="M160.44 16.4697V10.4697C158.946 10.5631 157.813 10.6097 157.04 10.6097C155.826 10.6097 154.92 10.4631 154.32 10.1697C153.733 9.88973 153.353 9.52306 153.18 9.06973C153.006 8.60306 152.92 7.97639 152.92 7.18973V3.12973H153.8V7.18973C153.8 7.46973 153.806 7.67639 153.82 7.80973C153.833 7.94306 153.866 8.14306 153.92 8.40973C153.973 8.66306 154.08 8.88306 154.24 9.06973C154.4 9.24306 154.613 9.38973 154.88 9.50973C155.293 9.70973 156.106 9.80973 157.32 9.80973C158.24 9.80973 159.28 9.76306 160.44 9.66973V3.12973H161.32V16.4697H160.44ZM171.201 3.92973H167.741V16.4697H166.861V3.92973H163.401V3.12973H171.201V3.92973Z" fill="#272727"></path><path d="M112.74 4.68973V5.84973C112.166 5.18306 111.486 4.66973 110.7 4.30973C109.926 3.93639 109.106 3.74973 108.24 3.74973C106.546 3.74973 105.126 4.34306 103.98 5.52973C102.833 6.71639 102.26 8.16306 102.26 9.86973C102.26 10.8164 102.44 11.6831 102.8 12.4697C103.173 13.2564 103.653 13.8964 104.24 14.3897C104.84 14.8697 105.486 15.2431 106.18 15.5097C106.873 15.7631 107.566 15.8897 108.26 15.8897C109.006 15.8897 109.78 15.7297 110.58 15.4097C111.38 15.0764 112.1 14.5631 112.74 13.8697V15.0297C111.486 16.1364 110.006 16.6897 108.3 16.6897C106.326 16.6897 104.673 16.0164 103.34 14.6697C102.006 13.3231 101.34 11.7097 101.34 9.82973C101.34 7.90973 102.013 6.28306 103.36 4.94973C104.706 3.61639 106.34 2.94973 108.26 2.94973C110.02 2.94973 111.513 3.52973 112.74 4.68973ZM118.214 10.1297H116.494V16.4697H115.614V3.12973H118.194C119.328 3.12973 120.261 3.43639 120.994 4.04973C121.728 4.64973 122.094 5.50306 122.094 6.60973C122.094 7.70306 121.741 8.56306 121.034 9.18973C120.328 9.81639 119.388 10.1297 118.214 10.1297ZM116.494 3.92973V9.32973H118.254C119.134 9.32973 119.841 9.08973 120.374 8.60973C120.908 8.11639 121.174 7.45639 121.174 6.62973C121.174 5.78973 120.901 5.12973 120.354 4.64973C119.821 4.16973 119.074 3.92973 118.114 3.92973H116.494Z" fill="#272727"></path><path d="M53.7785 16.4697V3.12973H56.6985C57.8452 3.12973 58.7452 3.43639 59.3985 4.04973C60.0518 4.64973 60.3785 5.45639 60.3785 6.46973C60.3785 7.77639 59.8585 8.74973 58.8185 9.38973C59.6718 9.52306 60.3452 9.89639 60.8385 10.5097C61.3318 11.1231 61.5785 11.8631 61.5785 12.7297C61.5785 13.8764 61.1918 14.7897 60.4185 15.4697C59.6585 16.1364 58.6652 16.4697 57.4385 16.4697H53.7785ZM54.6585 3.92973V9.16973H56.7785C57.5385 9.16973 58.1452 8.98306 58.5985 8.60973C59.1852 8.12973 59.4785 7.44973 59.4785 6.56973C59.4785 5.67639 59.1785 4.98306 58.5785 4.48973C58.0985 4.11639 57.3585 3.92973 56.3585 3.92973H54.6585ZM54.6585 9.96973V15.6697H56.8985C57.3118 15.6697 57.6385 15.6631 57.8785 15.6497C58.1185 15.6231 58.4252 15.5497 58.7985 15.4297C59.1852 15.3097 59.5185 15.1231 59.7985 14.8697C60.3718 14.3631 60.6585 13.6831 60.6585 12.8297C60.6585 11.6164 60.1852 10.7897 59.2385 10.3497C58.6652 10.0964 57.8318 9.96973 56.7385 9.96973H54.6585ZM70.7421 3.92973H67.2821V16.4697H66.4021V3.92973H62.9421V3.12973H70.7421V3.92973Z" fill="#272727"></path><path d="M5.52656 3.12973H15.3666V16.4697H14.4866V3.92973H6.40656V16.4697H5.52656V3.12973ZM19.8441 3.12973V8.78973H27.9241V3.12973H28.8041V16.4697H27.9241V9.58973H19.8441V16.4697H18.9641V3.12973H19.8441Z" fill="#272727"></path><path d="M6.98297 72.9697V60.4297H4.90297L5.30297 59.6297H7.86297V72.9697H6.98297ZM20.8 59.1897V69.6297H22.66V70.4297H20.8V72.9697H19.92V70.4297H12.74L20.8 59.1897ZM14.3 69.6297H19.92V61.7897L14.3 69.6297Z" fill="#272727"></path><path d="M56.983 72.9697V60.4297H54.903L55.303 59.6297H57.863V72.9697H56.983ZM71.9 59.6297V60.4297H67.42L66.3 64.0297C66.62 63.9497 66.92 63.9097 67.2 63.9097C68.6 63.9097 69.72 64.3431 70.56 65.2097C71.4133 66.0764 71.84 67.1831 71.84 68.5297C71.84 69.9297 71.38 71.0564 70.46 71.9097C69.5533 72.7631 68.4333 73.1897 67.1 73.1897C65.2867 73.1897 63.9533 72.4564 63.1 70.9897L63.88 70.6697C64.6533 71.8164 65.7333 72.3897 67.12 72.3897C68.2267 72.3897 69.1333 72.0297 69.84 71.3097C70.56 70.5897 70.92 69.6697 70.92 68.5497C70.92 67.4164 70.5667 66.4964 69.86 65.7897C69.1667 65.0697 68.2667 64.7097 67.16 64.7097C66.4 64.7097 65.7067 64.9031 65.08 65.2897L66.8 59.6297H71.9Z" fill="#272727"></path><path d="M106.983 72.9697V60.4297H104.903L105.303 59.6297H107.863V72.9697H106.983ZM118.52 59.4497L119.2 59.9697L116.24 64.1697C116.813 63.9297 117.42 63.8097 118.06 63.8097C119.393 63.8097 120.5 64.2497 121.38 65.1297C122.26 66.0097 122.7 67.1231 122.7 68.4697C122.7 69.8164 122.253 70.9431 121.36 71.8497C120.467 72.7431 119.327 73.1897 117.94 73.1897C116.58 73.1897 115.453 72.7497 114.56 71.8697C113.667 70.9764 113.22 69.8364 113.22 68.4497C113.22 67.4764 113.507 66.5697 114.08 65.7297L118.52 59.4497ZM115.22 71.2897C115.953 72.0231 116.867 72.3897 117.96 72.3897C119.053 72.3897 119.96 72.0164 120.68 71.2697C121.413 70.5231 121.78 69.5964 121.78 68.4897C121.78 67.3564 121.42 66.4297 120.7 65.7097C119.98 64.9764 119.067 64.6097 117.96 64.6097C116.853 64.6097 115.94 64.9764 115.22 65.7097C114.5 66.4431 114.14 67.3697 114.14 68.4897C114.14 69.6097 114.5 70.5431 115.22 71.2897Z" fill="#272727"></path><path d="M156.983 72.9697V60.4297H154.903L155.303 59.6297H157.863V72.9697H156.983ZM162.94 72.6897L171.58 60.4297H163.48V59.6297H173.14L163.6 73.1897L162.94 72.6897Z" fill="#272727"></path><path d="M206.983 72.9697V60.4297H204.903L205.303 59.6297H207.863V72.9697H206.983ZM219.66 66.0497C220.353 66.3164 220.887 66.7564 221.26 67.3697C221.647 67.9831 221.84 68.6697 221.84 69.4297C221.84 70.5631 221.467 71.4764 220.72 72.1697C219.973 72.8497 219.06 73.1897 217.98 73.1897C216.9 73.1897 215.987 72.8497 215.24 72.1697C214.493 71.4764 214.12 70.5631 214.12 69.4297C214.12 68.6697 214.307 67.9831 214.68 67.3697C215.067 66.7564 215.607 66.3164 216.3 66.0497C215.06 65.3964 214.44 64.3697 214.44 62.9697C214.44 61.9697 214.78 61.1364 215.46 60.4697C216.14 59.7897 216.98 59.4497 217.98 59.4497C218.98 59.4497 219.82 59.7897 220.5 60.4697C221.18 61.1364 221.52 61.9697 221.52 62.9697C221.52 64.3697 220.9 65.3964 219.66 66.0497ZM216.12 64.9097C216.64 65.4164 217.26 65.6697 217.98 65.6697C218.7 65.6697 219.313 65.4164 219.82 64.9097C220.34 64.3897 220.6 63.7431 220.6 62.9697C220.6 62.1831 220.347 61.5364 219.84 61.0297C219.333 60.5097 218.713 60.2497 217.98 60.2497C217.247 60.2497 216.627 60.5097 216.12 61.0297C215.613 61.5364 215.36 62.1831 215.36 62.9697C215.36 63.7431 215.613 64.3897 216.12 64.9097ZM215.84 71.5497C216.387 72.1097 217.1 72.3897 217.98 72.3897C218.86 72.3897 219.567 72.1097 220.1 71.5497C220.647 70.9764 220.92 70.2697 220.92 69.4297C220.92 68.5497 220.647 67.8297 220.1 67.2697C219.553 66.7097 218.847 66.4297 217.98 66.4297C217.113 66.4297 216.407 66.7097 215.86 67.2697C215.313 67.8297 215.04 68.5497 215.04 69.4297C215.04 70.2697 215.307 70.9764 215.84 71.5497Z" fill="#272727"></path><path d="M256.983 72.9697V60.4297H254.903L255.303 59.6297H257.863V72.9697H256.983ZM267.44 73.1897L266.76 72.6697L269.72 68.4497C269.147 68.6897 268.54 68.8097 267.9 68.8097C266.567 68.8097 265.46 68.3697 264.58 67.4897C263.7 66.6097 263.26 65.4964 263.26 64.1497C263.26 62.8031 263.707 61.6831 264.6 60.7897C265.493 59.8964 266.633 59.4497 268.02 59.4497C269.38 59.4497 270.507 59.8964 271.4 60.7897C272.293 61.6831 272.74 62.8097 272.74 64.1697C272.74 65.1431 272.453 66.0497 271.88 66.8897L267.44 73.1897ZM270.72 61.3697C270 60.6231 269.093 60.2497 268 60.2497C266.907 60.2497 265.993 60.6231 265.26 61.3697C264.54 62.1164 264.18 63.0364 264.18 64.1297C264.18 65.2631 264.54 66.1964 265.26 66.9297C265.993 67.6497 266.907 68.0097 268 68.0097C269.107 68.0097 270.02 67.6431 270.74 66.9097C271.46 66.1764 271.82 65.2497 271.82 64.1297C271.82 63.0231 271.453 62.1031 270.72 61.3697Z" fill="#272727"></path><path d="M310.963 72.9697H302.743L307.863 67.3297C308.57 66.5297 309.056 65.9297 309.323 65.5297C309.843 64.7297 310.103 63.9697 310.103 63.2497C310.103 62.3964 309.81 61.6831 309.223 61.1097C308.65 60.5364 307.91 60.2497 307.003 60.2497C306.043 60.2497 305.276 60.5764 304.703 61.2297C304.17 61.8164 303.91 62.5431 303.923 63.4097H303.043C303.03 62.2897 303.383 61.3564 304.103 60.6097C304.85 59.8364 305.836 59.4497 307.063 59.4497C308.21 59.4497 309.156 59.8164 309.903 60.5497C310.65 61.2697 311.023 62.1697 311.023 63.2497C311.023 64.1964 310.703 65.1097 310.063 65.9897C309.756 66.4164 309.363 66.8964 308.883 67.4297L304.603 72.1697H310.963V72.9697ZM314.84 61.0697C315.733 59.9897 316.78 59.4497 317.98 59.4497C319.18 59.4497 320.227 59.9897 321.12 61.0697C322.253 62.4164 322.82 64.1631 322.82 66.3097C322.82 68.4564 322.253 70.2031 321.12 71.5497C320.2 72.6431 319.153 73.1897 317.98 73.1897C316.807 73.1897 315.76 72.6431 314.84 71.5497C313.707 70.2031 313.14 68.4564 313.14 66.3097C313.14 64.1631 313.707 62.4164 314.84 61.0697ZM315.5 71.0297C316.233 71.9364 317.06 72.3897 317.98 72.3897C318.9 72.3897 319.727 71.9364 320.46 71.0297C321.42 69.8431 321.9 68.2697 321.9 66.3097C321.9 64.3497 321.42 62.7764 320.46 61.5897C319.74 60.6964 318.913 60.2497 317.98 60.2497C317.047 60.2497 316.22 60.6964 315.5 61.5897C314.54 62.7764 314.06 64.3497 314.06 66.3097C314.06 68.2697 314.54 69.8431 315.5 71.0297Z" fill="#272727"></path><g clip-path="url(#clip0_1623_624)"><path d="M88.0995 36.6318C83.0047 37.8818 79.7626 41.5068 78.6258 47.4235C77.7837 51.6318 78.71 57.4235 81.0679 62.7152C82.1626 65.1735 84.1416 69.0068 84.5205 69.3818C85.1521 70.0068 86.0653 72.1432 86.6258 72.7152C86.7298 72.8213 86.8136 72.9899 86.9626 73.1318C87.2242 73.3809 87.9731 74.0068 88.731 75.0902C90.4152 77.3818 97.7416 84.7568 100.731 87.0902C101.91 88.0068 103.257 89.1735 103.763 89.6735C104.268 90.2152 104.632 90.4268 104.979 90.6318C105.204 90.813 105.65 91.1088 106.205 91.4652C106.655 91.8149 107.145 92.161 107.472 92.3598C107.763 92.5362 107.768 92.5184 108.035 92.7152C108.731 93.5441 112.142 95.0068 114.205 95.0068C116.226 95.0068 119.678 93.6735 121.068 92.3818C121.405 92.1318 122.499 91.2985 123.552 90.5485C124.605 89.8402 125.826 88.9652 126.205 88.5902C126.626 88.2152 127.889 87.1735 128.984 86.2568C131.636 84.1318 134.752 80.9235 136.436 78.6735C137.11 77.6735 137.904 77.1943 138.078 76.8818C138.253 76.5693 138.213 76.5498 138.415 76.2985C138.58 75.9508 138.652 75.8141 138.794 75.5485C139.463 75.0003 141.952 71.1318 143.847 67.2568C148.142 58.4235 149.784 48.5068 147.678 44.3818C146.289 41.7152 144.521 40.0068 141.489 38.5068C139.005 37.2985 138.205 37.1318 135.468 37.1318C132.268 37.1318 129.784 37.7568 127.173 39.2568C126.415 39.6735 126.146 39.9417 125.784 40.2985C125.466 40.43 125.485 40.5537 125.236 40.6318C124.689 40.6318 115.678 49.4652 115.678 49.9652C115.678 50.0902 115.173 50.7152 114.584 51.3402L113.489 52.5068L112.142 50.8818C109.531 47.6318 104.057 42.3818 101.363 40.5485C97.5731 38.0068 95.5942 37.0485 93.1942 36.7152C92.0574 36.5485 90.9205 36.3402 90.6679 36.2568C90.4152 36.1735 89.2784 36.3402 88.0995 36.6318ZM94.71 40.2568C99.2995 41.7985 106.668 47.9235 111.299 54.0068C112.942 56.1735 113.573 56.7152 113.91 56.3818C114.205 56.0902 114.415 55.6318 114.415 55.3402C114.415 55.0902 114.668 54.6735 114.963 54.5068C115.299 54.3402 115.678 53.8818 115.847 53.5485C116.773 51.6318 117.994 50.0902 121.447 46.5902C122.626 45.3818 123.805 44.3818 124.057 44.3818C124.301 44.1605 124.328 44.18 124.521 44.0068C124.674 43.555 129.447 41.2152 132.394 40.4235C137.278 39.0902 141.615 40.5068 144.815 44.4652L146.205 46.2152L146.163 50.8402C146.121 54.0902 145.91 55.8818 145.447 57.0485C145.026 57.9235 144.731 58.9235 144.731 59.2152C144.731 62.1318 134.373 77.3818 127.973 83.8818C124.942 86.9652 119.805 91.4235 118.626 92.0485C118.289 92.2152 117.194 92.7568 116.184 93.2985C114.415 94.2568 114.289 94.2568 112.605 93.6318C111.636 93.2568 110.752 92.8402 110.626 92.7152C110.163 92.2568 107.678 90.6318 107.384 90.6318C107.047 90.5902 92.2679 75.9652 90.4152 73.7568C88.1416 71.1318 86.9134 68.947 86.6258 68.5902C86.4563 68.3798 86.4265 68.2685 86.331 68.1318C85.9456 67.5802 84.1416 65.1735 82.3731 61.2568C79.6363 55.2152 79.7205 48.6735 82.5416 44.6318C83.8889 42.7568 85.8258 41.0485 86.9205 40.7985C87.4679 40.6318 87.8889 40.3818 87.8889 40.2152C87.8889 39.8818 89.1521 39.5902 91.131 39.4235C91.6784 39.4235 93.2784 39.7985 94.71 40.2568Z" fill="#7F1023"></path><path d="M147.094 45.5896C134.906 29.6549 119.331 45.5056 113.068 55.4228C96.4114 30.8148 84.3844 37.4151 79.8987 45.554C79.1474 70.3816 102.253 89.2151 114.357 94.1737C143.001 77.4322 148.618 55.0866 147.094 45.5896Z" fill="#7F1023" stroke="#7F1023"></path><path d="M107.483 72.708V60.168H105.403L105.803 59.368H108.363V72.708H107.483ZM119.02 59.188L119.7 59.708L116.74 63.908C117.313 63.668 117.92 63.548 118.56 63.548C119.893 63.548 121 63.988 121.88 64.868C122.76 65.748 123.2 66.8613 123.2 68.208C123.2 69.5547 122.753 70.6813 121.86 71.588C120.967 72.4813 119.827 72.928 118.44 72.928C117.08 72.928 115.953 72.488 115.06 71.608C114.167 70.7147 113.72 69.5747 113.72 68.188C113.72 67.2147 114.007 66.308 114.58 65.468L119.02 59.188ZM115.72 71.028C116.453 71.7613 117.367 72.128 118.46 72.128C119.553 72.128 120.46 71.7547 121.18 71.008C121.913 70.2613 122.28 69.3347 122.28 68.228C122.28 67.0947 121.92 66.168 121.2 65.448C120.48 64.7147 119.567 64.348 118.46 64.348C117.353 64.348 116.44 64.7147 115.72 65.448C115 66.1813 114.64 67.108 114.64 68.228C114.64 69.348 115 70.2813 115.72 71.028Z" fill="white"></path></g><defs><clipPath id="clip0_1623_624"><rect width="72" height="60" fill="white" transform="translate(77 35)"></rect></clipPath></defs></svg> 