<?xml version="1.0" encoding="UTF-8"?> <svg xmlns="http://www.w3.org/2000/svg" width="373" height="158" viewBox="0 0 373 158" fill="none"><path d="M81.1758 5.17969C80.3841 5.51302 79.5924 5.97135 78.8008 6.55469C75.1758 9.01302 71.6133 12.6589 68.1133 17.4922C64.6549 22.2839 61.4049 27.4714 58.3633 33.0547C55.3633 38.638 52.7383 43.8672 50.4883 48.7422C48.2799 53.5755 46.6341 57.2839 45.5508 59.8672C40.0508 75.9505 35.2591 91.138 31.1758 105.43C29.3424 111.221 27.4466 116.013 25.4883 119.805C24.0716 122.721 22.3424 125.721 20.3008 128.805C18.2591 131.93 16.1966 133.763 14.1133 134.305C12.0716 134.346 10.1758 132.117 8.42578 127.617C6.71745 123.159 5.17578 117.409 3.80078 110.367C3.55078 109.201 3.32161 108.013 3.11328 106.805C2.40495 102.555 1.80078 99.0547 1.30078 96.3047C1.05078 94.8464 1.02995 93.7214 1.23828 92.9297C1.48828 92.138 1.75911 91.8464 2.05078 92.0547C2.42578 92.1797 2.71745 92.9297 2.92578 94.3047C3.21745 98.4714 3.73828 102.596 4.48828 106.68C5.61328 112.888 7.07161 118.805 8.86328 124.43C9.44661 126.138 10.1549 127.742 10.9883 129.242C11.8633 130.742 12.9258 131.451 14.1758 131.367C15.1758 130.992 16.1133 130.201 16.9883 128.992C18.8216 126.409 20.4674 123.471 21.9258 120.18C26.0508 111.221 29.4049 101.68 31.9883 91.5547C34.6133 81.388 38.4049 70.4922 43.3633 58.8672C46.9049 50.7422 50.7174 42.7214 54.8008 34.8047C58.8841 26.8464 63.5716 19.263 68.8633 12.0547C70.5299 9.76302 72.5091 7.53385 74.8008 5.36719C75.1758 4.99219 75.5716 4.63802 75.9883 4.30469C79.2383 1.59635 81.3424 0.346354 82.3008 0.554688L83.3008 1.05469C83.5924 1.26302 83.9258 1.59635 84.3008 2.05469C84.7591 2.59635 85.2174 3.40885 85.6758 4.49219C86.1341 5.57552 86.5716 6.99219 86.9883 8.74219C87.5299 12.1589 87.5299 15.5755 86.9883 18.9922C86.9049 19.5755 86.8424 20.1589 86.8008 20.7422C85.4674 32.0339 83.7383 43.2214 81.6133 54.3047C81.4049 55.4297 81.1966 56.5339 80.9883 57.6172C80.4049 60.7839 79.8008 64.0755 79.1758 67.4922C78.2174 72.3255 77.3424 77.1172 76.5508 81.8672C73.8424 104.992 72.0091 120.055 71.0508 127.055C70.9674 127.68 70.8841 128.284 70.8008 128.867V128.93C70.6341 130.555 70.4674 132.367 70.3008 134.367C69.8008 139.784 69.1341 146.617 68.3008 154.867C68.2174 155.951 67.7799 156.659 66.9883 156.992C66.2799 157.326 65.5299 157.305 64.7383 156.93C63.9883 156.555 63.5924 155.846 63.5508 154.805L63.8633 150.555C64.3633 144.68 64.9674 138.826 65.6758 132.992C66.0508 129.784 66.4674 126.596 66.9258 123.43C69.0508 101.346 70.5716 87.263 71.4883 81.1797C71.8216 79.0964 72.1549 77.0339 72.4883 74.9922C73.3633 69.1589 74.3008 63.3047 75.3008 57.4297C76.6341 49.763 77.8424 42.0964 78.9258 34.4297C80.0508 26.7214 80.8216 18.9714 81.2383 11.1797C81.2799 10.6797 81.3216 10.138 81.3633 9.55469C81.4466 8.59635 81.4883 7.67969 81.4883 6.80469C81.4883 6.09635 81.3841 5.55469 81.1758 5.17969ZM144.676 79.4922C144.801 79.9922 144.509 80.388 143.801 80.6797C143.134 80.9714 142.405 81.2005 141.613 81.3672C140.988 81.5339 140.53 81.6797 140.238 81.8047C136.072 82.888 131.842 83.4505 127.551 83.4922C127.342 83.4922 127.134 83.4922 126.926 83.4922C125.301 83.4505 123.384 83.3464 121.176 83.1797C118.967 83.013 116.863 82.6172 114.863 81.9922C114.947 85.1589 114.384 88.2422 113.176 91.2422C112.009 94.2422 110.363 96.513 108.238 98.0547C105.738 99.8464 103.447 100.346 101.363 99.5547C99.2799 98.763 97.9466 96.8672 97.3633 93.8672C96.7383 88.3672 98.0924 83.3464 101.426 78.8047C103.134 76.5964 105.238 74.8672 107.738 73.6172C108.905 73.1589 109.842 73.3255 110.551 74.1172C110.926 73.7422 111.405 73.7005 111.988 73.9922C113.405 75.6172 114.301 77.638 114.676 80.0547C116.759 80.888 119.092 81.4297 121.676 81.6797C124.259 81.888 126.217 81.9922 127.551 81.9922C133.176 82.0339 138.592 81.0755 143.801 79.1172C143.967 79.0339 144.134 79.0339 144.301 79.1172C144.467 79.2005 144.592 79.3255 144.676 79.4922ZM112.113 78.3672C111.988 77.7422 111.801 77.138 111.551 76.5547C111.551 77.2214 111.738 77.8255 112.113 78.3672ZM103.551 97.0547C106.759 96.3047 109.134 94.3255 110.676 91.1172C112.259 87.9089 112.905 84.5339 112.613 80.9922C111.322 80.2839 110.426 79.3255 109.926 78.1172C107.592 79.3255 105.717 81.0339 104.301 83.2422C102.926 85.4089 102.03 87.763 101.613 90.3047C101.613 90.4714 101.592 90.638 101.551 90.8047C101.426 92.013 101.426 93.263 101.551 94.5547C101.717 95.8464 102.384 96.6797 103.551 97.0547ZM185.738 79.2422C186.197 79.6172 186.092 80.3047 185.426 81.3047C184.801 82.3047 183.905 83.388 182.738 84.5547C181.613 85.7214 180.509 86.8047 179.426 87.8047C178.342 88.763 177.592 89.4089 177.176 89.7422C173.842 92.4089 170.217 94.4922 166.301 95.9922C162.342 97.4505 158.342 98.3047 154.301 98.5547C150.259 98.8047 146.259 98.638 142.301 98.0547C142.092 98.0547 141.926 97.9714 141.801 97.8047C141.384 98.7214 140.988 99.6589 140.613 100.617C140.197 102.117 139.759 103.617 139.301 105.117C139.217 105.534 139.009 105.846 138.676 106.055C138.301 106.263 137.926 106.346 137.551 106.305C136.801 105.971 136.467 105.388 136.551 104.555C136.634 103.721 136.863 102.846 137.238 101.93C137.488 101.221 137.655 100.596 137.738 100.055C137.863 99.5547 138.009 99.0547 138.176 98.5547L143.801 78.9922C144.509 77.0339 145.238 75.9089 145.988 75.6172C146.78 75.3255 147.447 75.4922 147.988 76.1172C148.572 76.7005 148.676 77.4714 148.301 78.4297L145.176 85.4922C146.842 83.3672 148.634 81.388 150.551 79.5547C152.301 77.9297 154.03 76.388 155.738 74.9297C156.405 74.3464 157.051 73.7839 157.676 73.2422C158.384 72.6172 159.092 72.388 159.801 72.5547C160.551 72.7214 161.113 73.1172 161.488 73.7422C161.863 74.3672 161.863 75.0964 161.488 75.9297C159.28 79.763 156.717 83.3464 153.801 86.6797C150.884 90.013 147.842 93.2214 144.676 96.3047C152.217 97.263 159.488 96.3672 166.488 93.6172C173.488 90.8672 179.405 86.1589 184.238 79.4922C184.447 79.2422 184.676 79.0964 184.926 79.0547C185.217 79.013 185.488 79.0755 185.738 79.2422ZM151.176 84.8672C148.259 87.7005 145.759 90.8464 143.676 94.3047C144.551 93.263 145.447 92.2005 146.363 91.1172C148.03 89.1172 149.634 87.0339 151.176 84.8672ZM227.863 79.3672C228.03 79.0755 228.259 78.9505 228.551 78.9922C228.842 79.0339 229.072 79.1797 229.238 79.4297C229.405 79.638 229.405 79.888 229.238 80.1797C228.03 81.888 226.634 83.4089 225.051 84.7422C223.467 86.0339 221.822 87.263 220.113 88.4297C219.822 88.638 219.551 88.8255 219.301 88.9922C215.176 91.8255 211.197 94.013 207.363 95.5547C203.53 97.0547 200.197 97.3464 197.363 96.4297C194.572 95.4714 192.613 92.6797 191.488 88.0547C188.738 92.138 185.78 96.0755 182.613 99.8672C180.947 101.534 179.238 102.013 177.488 101.305C175.697 100.555 174.988 98.9714 175.363 96.5547C177.072 88.9714 180.634 82.388 186.051 76.8047C187.801 75.013 189.947 73.5755 192.488 72.4922C193.488 72.1172 194.301 72.2422 194.926 72.8672C195.592 73.4922 195.905 74.263 195.863 75.1797C195.822 76.0547 195.301 76.7005 194.301 77.1172C191.176 78.7005 188.551 80.9505 186.426 83.8672C184.342 86.7422 182.717 89.8672 181.551 93.2422C184.967 88.8255 188.155 84.2422 191.113 79.4922C191.572 78.7839 192.176 78.4089 192.926 78.3672C193.717 78.3255 194.384 78.5547 194.926 79.0547C195.509 79.5547 195.78 80.2214 195.738 81.0547C194.905 83.5964 194.676 86.2214 195.051 88.9297C195.467 91.5964 197.051 93.4714 199.801 94.5547C203.926 94.513 208.092 93.3464 212.301 91.0547C216.509 88.763 220.259 86.3464 223.551 83.8047C225.259 82.5547 226.697 81.0755 227.863 79.3672ZM231.801 82.4922C231.801 82.5339 231.78 82.5547 231.738 82.5547C231.78 82.5547 231.801 82.5339 231.801 82.4922ZM231.676 82.6797V82.6172C231.717 82.6172 231.738 82.5964 231.738 82.5547C231.697 82.5964 231.676 82.638 231.676 82.6797ZM243.676 107.555C242.801 109.18 242.217 110.992 241.926 112.992C241.634 114.992 241.717 116.117 242.176 116.367C243.842 113.451 244.967 109.784 245.551 105.367C245.134 105.576 244.509 106.305 243.676 107.555ZM239.926 93.2422C240.259 90.5755 240.592 88.5547 240.926 87.1797C238.884 89.6797 236.592 91.9297 234.051 93.9297C233.426 94.3047 232.842 94.5964 232.301 94.8047C231.301 95.2214 230.405 95.388 229.613 95.3047C229.072 95.263 228.572 95.0964 228.113 94.8047C226.655 93.888 225.738 92.3672 225.363 90.2422C224.988 88.1172 225.176 85.9922 225.926 83.8672C226.592 81.3255 227.426 79.6589 228.426 78.8672C229.467 78.0755 230.405 77.8464 231.238 78.1797C232.113 78.513 232.634 79.138 232.801 80.0547C233.009 80.9297 232.592 81.8047 231.551 82.6797H231.676C231.634 82.6797 231.613 82.7005 231.613 82.7422C230.822 84.0755 230.134 85.6172 229.551 87.3672C229.009 89.0755 229.051 90.6589 229.676 92.1172C230.634 92.5339 231.738 92.2214 232.988 91.1797C234.238 90.0964 235.467 88.7422 236.676 87.1172C237.884 85.4505 238.926 83.9505 239.801 82.6172C240.301 81.8672 240.697 81.2839 240.988 80.8672C241.322 80.4089 241.655 79.888 241.988 79.3047C242.697 77.9297 243.613 76.8464 244.738 76.0547C245.488 75.5964 246.197 75.5339 246.863 75.8672C247.572 76.1589 248.051 76.6797 248.301 77.4297C248.551 78.138 248.405 78.8255 247.863 79.4922C247.697 79.7005 247.551 79.888 247.426 80.0547H247.363L247.426 80.1172C247.384 80.1589 247.322 80.2214 247.238 80.3047C247.197 80.3464 247.176 80.388 247.176 80.4297C246.592 81.1797 246.092 81.9505 245.676 82.7422C244.384 85.2005 243.447 88.7839 242.863 93.4922C242.905 95.7005 243.842 95.888 245.676 94.0547C246.467 92.9714 247.03 92.2005 247.363 91.7422C248.363 90.9089 248.967 91.0547 249.176 92.1797C249.634 95.8047 249.676 98.6797 249.301 100.805C251.342 99.3464 253.967 97.5964 257.176 95.5547C261.384 92.6797 265.259 89.6172 268.801 86.3672C272.342 83.1172 274.634 80.7422 275.676 79.2422C276.967 78.8672 277.509 79.013 277.301 79.6797C277.092 80.3047 276.426 81.2422 275.301 82.4922C274.176 83.7005 272.884 84.9714 271.426 86.3047C269.967 87.5964 268.655 88.7422 267.488 89.7422C266.363 90.7005 265.676 91.263 265.426 91.4297C264.467 92.138 263.488 92.888 262.488 93.6797C260.488 95.263 258.884 96.388 257.676 97.0547C257.301 97.3464 256.947 97.5755 256.613 97.7422C253.363 99.8672 250.842 101.596 249.051 102.93C248.259 107.513 247.301 111.471 246.176 114.805C245.509 117.013 244.551 119.117 243.301 121.117C242.717 121.451 242.217 121.409 241.801 120.992C241.384 120.617 241.051 120.117 240.801 119.492C240.551 118.826 240.384 118.305 240.301 117.93C239.717 114.555 240.092 111.305 241.426 108.18C242.592 105.721 243.947 104.013 245.488 103.055C245.697 101.68 245.801 99.9505 245.801 97.8672C245.592 98.3255 244.634 98.4714 242.926 98.3047C240.467 97.638 239.467 95.9505 239.926 93.2422ZM279.426 82.4922C279.426 82.5339 279.405 82.5547 279.363 82.5547C279.405 82.5547 279.426 82.5339 279.426 82.4922ZM334.738 75.4297L334.863 75.1797L334.926 74.9922C335.092 74.6589 334.697 74.388 333.738 74.1797C332.363 74.013 330.863 74.4922 329.238 75.6172C327.613 76.7005 326.572 77.9505 326.113 79.3672C325.405 81.3255 326.217 82.1797 328.551 81.9297C329.592 81.7214 330.905 81.263 332.488 80.5547C333.28 78.888 334.03 77.1797 334.738 75.4297ZM279.301 82.6797V82.6172C279.342 82.6172 279.363 82.5964 279.363 82.5547C279.322 82.5964 279.301 82.638 279.301 82.6797ZM312.113 90.0547H312.176C312.342 89.8464 312.551 89.7422 312.801 89.7422C313.092 89.7422 313.322 89.888 313.488 90.1797C313.572 90.263 313.634 90.3672 313.676 90.4922C313.842 90.9089 314.384 91.7005 315.301 92.8672C315.676 93.4089 316.113 93.9714 316.613 94.5547C316.655 94.5964 316.697 94.6589 316.738 94.7422C316.947 94.9505 317.155 95.1797 317.363 95.4297C318.28 96.3464 319.197 96.9297 320.113 97.1797C321.28 97.4714 322.884 96.3255 324.926 93.7422C326.467 91.9089 328.509 88.7214 331.051 84.1797L331.426 83.4297C329.759 84.3464 327.842 84.5755 325.676 84.1172C323.801 83.4089 322.884 82.2005 322.926 80.4922C322.884 79.2005 323.322 77.9297 324.238 76.6797C325.155 75.513 326.217 74.388 327.426 73.3047C328.842 72.1797 330.113 71.4714 331.238 71.1797C332.738 70.763 334.301 70.8047 335.926 71.3047C337.467 71.7214 337.926 72.763 337.301 74.4297C337.009 75.0964 336.738 75.7422 336.488 76.3672C336.03 77.5339 335.613 78.5547 335.238 79.4297C336.155 78.6797 337.176 77.6797 338.301 76.4297C338.967 75.3047 339.697 74.1589 340.488 72.9922C341.155 72.0755 342.155 71.8255 343.488 72.2422C344.822 72.6172 345.259 73.4297 344.801 74.6797C342.384 77.7214 340.467 81.2422 339.051 85.2422C337.592 89.2422 337.613 92.4922 339.113 94.9922C340.238 95.7422 341.384 95.9922 342.551 95.7422C343.717 95.4922 344.634 95.2422 345.301 94.9922C345.926 94.7422 346.53 94.513 347.113 94.3047C351.572 92.4714 355.884 90.2839 360.051 87.7422C364.176 85.2005 367.947 82.2214 371.363 78.8047C372.405 78.6797 372.78 78.9089 372.488 79.4922C372.155 80.0339 371.405 80.7839 370.238 81.7422C369.072 82.7005 367.801 83.7005 366.426 84.7422C365.009 85.7422 363.738 86.5964 362.613 87.3047C361.488 88.0547 360.801 88.4922 360.551 88.6172C357.426 90.5755 354.217 92.4089 350.926 94.1172C347.634 95.7839 344.342 97.1589 341.051 98.2422C337.759 98.9922 335.551 98.4297 334.426 96.5547C333.301 94.6797 332.967 92.4297 333.426 89.8047C333.717 87.638 334.655 84.638 336.238 80.8047C335.53 81.5547 334.738 82.1797 333.863 82.6797C333.78 82.888 333.613 83.1797 333.363 83.5547C332.78 84.5547 332.197 85.5339 331.613 86.4922C331.238 87.1589 330.822 87.8672 330.363 88.6172C329.447 90.1172 328.509 91.6589 327.551 93.2422C326.676 94.5755 325.801 95.7005 324.926 96.6172C324.051 97.5339 323.072 98.263 321.988 98.8047C319.822 99.888 317.926 99.3255 316.301 97.1172C316.176 96.9922 316.092 96.888 316.051 96.8047C315.092 95.513 314.28 94.3255 313.613 93.2422C313.155 92.5755 312.801 92.0964 312.551 91.8047C311.759 92.388 310.947 93.013 310.113 93.6797C307.613 95.6797 305.009 97.513 302.301 99.1797C299.592 100.805 296.655 101.805 293.488 102.18C291.113 101.888 289.509 100.909 288.676 99.2422C287.842 97.5755 287.488 95.638 287.613 93.4297C287.738 91.2214 288.051 89.138 288.551 87.1797C286.509 89.6797 284.217 91.9297 281.676 93.9297C279.176 95.4297 277.197 95.7214 275.738 94.8047C274.28 93.888 273.363 92.3672 272.988 90.2422C272.613 88.1172 272.801 85.9922 273.551 83.8672C274.217 81.3255 275.051 79.6589 276.051 78.8672C277.092 78.0755 278.03 77.8464 278.863 78.1797C279.738 78.513 280.259 79.138 280.426 80.0547C280.634 80.9297 280.217 81.8047 279.176 82.6797H279.301C279.259 82.6797 279.238 82.7005 279.238 82.7422C278.447 84.0755 277.759 85.6172 277.176 87.3672C276.634 89.0755 276.676 90.6589 277.301 92.1172C278.259 92.5339 279.363 92.2214 280.613 91.1797C281.863 90.0964 283.092 88.7422 284.301 87.1172C285.509 85.4505 286.551 83.9505 287.426 82.6172C287.926 81.8672 288.322 81.2839 288.613 80.8672C288.947 80.4089 289.28 79.888 289.613 79.3047C290.322 77.9297 291.238 76.8464 292.363 76.0547C293.113 75.5964 293.822 75.5339 294.488 75.8672C295.197 76.1589 295.676 76.6797 295.926 77.4297C296.176 78.138 296.03 78.8255 295.488 79.4922C295.322 79.7005 295.176 79.888 295.051 80.0547H294.988L295.051 80.1172C295.009 80.1589 294.947 80.2214 294.863 80.3047C294.822 80.3464 294.801 80.388 294.801 80.4297C294.217 81.1797 293.717 81.9505 293.301 82.7422C291.467 86.2005 290.363 89.8672 289.988 93.7422C289.905 98.2422 291.322 100.367 294.238 100.117C297.197 99.8672 300.759 98.3255 304.926 95.4922C307.676 93.5755 310.072 91.763 312.113 90.0547Z" fill="white"></path></svg> 