<?xml version="1.0" encoding="UTF-8"?> <svg xmlns="http://www.w3.org/2000/svg" width="280" height="69" viewBox="0 0 280 69" fill="none"><path d="M32.8358 10.465C33.0278 11.041 32.7718 12.897 32.4518 13.793C32.2598 14.369 31.8758 15.009 31.9398 15.649C31.9398 15.969 31.7478 16.417 31.4278 16.545C30.5318 17.057 29.6357 18.209 28.8038 18.913C27.7798 19.937 26.9478 20.577 25.8598 21.089C24.5798 21.857 23.2998 22.561 22.0198 23.265C20.3558 23.841 18.7558 24.545 17.0278 24.609C16.0678 24.609 15.0438 24.737 14.1478 24.545C12.2917 24.161 10.8198 23.265 9.73175 21.537C9.47575 21.217 9.28375 20.897 9.09175 20.641C8.57975 21.025 8.32375 21.665 8.19575 22.241C7.49175 25.313 6.65975 28.321 6.27575 31.457C6.14775 32.801 5.95575 33.953 6.01975 35.233C6.01975 36.385 6.27575 37.409 6.59575 38.369C6.85175 38.753 6.85175 39.201 7.10775 39.393L7.17175 39.649C7.10775 39.777 7.04375 39.905 6.91575 39.905C6.59575 40.097 6.33975 39.905 6.01975 39.713C5.05975 39.137 4.61175 38.177 4.22775 37.089C3.45975 35.361 3.39575 33.633 3.58775 31.905C4.16375 28.193 4.80375 24.673 5.76375 21.217C6.85175 17.825 8.00375 14.433 9.09175 11.105C9.53975 9.56897 10.0518 8.16097 10.6918 6.49697C10.2438 6.62497 10.1158 6.62497 9.98775 6.75297C8.45175 7.52097 6.97975 8.16097 5.63575 9.24897C5.18775 9.56897 4.73975 9.76097 4.35575 10.209L3.33175 10.977L1.79575 12.641C1.47575 12.833 1.21975 12.769 0.96375 12.513C0.13175 11.489 0.06775 10.209 1.02775 9.12097C1.53975 8.60897 2.05175 7.96897 2.69175 7.64897C4.61175 6.17697 6.59575 4.89697 8.70775 3.87297C11.3958 2.52897 14.2118 1.56897 17.1558 1.12097C19.9718 0.672968 22.9158 0.736967 25.7958 1.82497C27.3318 2.33697 28.7397 3.29697 29.8278 4.38497C30.0198 4.57697 30.2118 4.64097 30.4038 4.83297C30.6598 5.60097 31.0438 6.17697 31.6198 6.68897C31.8118 6.81697 31.9398 7.20097 32.0678 7.58497C32.3238 8.54497 32.5798 9.37697 32.8358 10.465ZM16.6438 2.08097C15.5558 1.88897 14.2758 2.20897 13.1238 2.91297C13.6998 3.23297 14.2118 3.61697 14.7878 3.93697C15.9398 3.10497 17.2198 3.16897 18.4358 2.97697C19.3958 2.84897 20.2278 2.72097 21.1878 2.40097C22.6598 2.08097 26.3078 2.78497 26.0518 2.52897C24.6438 2.08097 23.2998 1.76097 21.7638 1.76097C21.1238 1.76097 20.3558 1.82497 19.6518 1.63297C19.2038 1.63297 18.8198 1.63297 18.3718 1.88897C17.7958 2.14497 17.2838 2.20897 16.6438 2.08097ZM29.8278 13.729C31.0438 12.065 31.2998 10.209 30.7878 7.96897C30.5318 6.94497 29.9558 6.11297 29.1878 5.60097C28.8678 5.40897 28.6118 5.21697 28.1637 4.89697C26.8198 4.19297 25.3478 3.87297 23.8758 3.61697C22.5318 3.29697 21.2518 3.42497 19.9078 3.48897C18.2438 3.68097 16.5158 4.06497 14.7878 4.38497C14.4038 5.47297 14.1478 6.17697 13.8918 7.00897C12.8678 9.31297 11.9718 11.681 11.0758 14.049C10.6918 15.009 10.3718 15.905 10.0518 16.801C9.85975 17.313 9.73175 17.761 9.92375 18.337V18.849C9.73175 19.297 9.92375 19.745 10.1798 20.001C10.4998 20.257 10.8198 20.449 11.1398 20.641C12.5478 21.537 14.0838 21.793 15.6198 21.601C17.9878 21.281 20.3558 20.449 22.6598 19.297C24.3878 18.529 26.1158 17.441 27.6518 16.097C28.5478 15.393 29.2518 14.625 29.8278 13.729ZM10.5638 5.47297C11.3318 5.21697 11.6518 4.64097 11.8438 3.55297C11.5238 3.61697 11.5238 4.25697 11.0118 4.12897C10.5638 4.51297 10.1798 4.76897 9.73175 4.70497V4.38497C9.47575 4.51297 9.34775 4.64097 9.15575 4.70497C9.02775 4.83297 8.96375 5.02497 8.77175 5.21697C8.57975 5.15297 8.25975 5.15297 8.13175 5.34497L7.93975 5.53697C8.00375 5.53697 8.06775 5.60097 8.13175 5.60097C7.61975 5.92097 7.17175 6.24097 6.72375 6.68897C6.53175 6.75297 6.27575 6.75297 6.01975 6.81697C6.40375 6.43297 6.65975 6.11297 6.97975 5.85697C6.78775 5.79297 6.59575 5.85697 6.46775 5.98497C6.14775 6.17697 5.76375 6.49697 5.44375 6.75297C5.31575 6.88097 5.12375 6.94497 4.99575 7.00897C3.39575 7.71297 3.39575 7.71297 2.81975 8.60897C3.52375 8.54497 4.41975 8.48097 5.05975 8.03297C5.44375 7.84097 5.95575 7.52097 6.46775 7.26497C6.91575 7.07297 7.42775 7.07297 7.93975 6.94497C8.00375 6.88097 8.13175 6.81697 8.19575 6.68897C9.02775 6.11297 9.73175 5.72897 10.5638 5.47297ZM7.93975 17.377C8.70775 15.009 9.47575 12.577 10.3078 10.209C10.5638 9.31297 10.8198 8.67297 11.0758 7.84097C11.0118 7.84097 11.0118 7.84097 10.8838 7.77697C10.4998 8.92897 9.98775 10.017 9.53975 11.041C8.38775 14.241 7.36375 17.441 6.40375 20.705C5.37975 23.841 4.80375 27.105 4.35575 30.241C4.22775 30.817 4.29175 31.393 4.29175 31.905L4.67575 30.177C5.05975 28.065 5.37975 25.889 6.01975 23.841C6.59575 21.665 7.17175 19.489 7.93975 17.377ZM23.6838 20.193C24.3238 19.809 25.1558 19.425 25.6678 18.593C24.5798 19.105 23.6198 19.809 22.4678 20.257C21.4438 20.705 20.3558 21.089 19.3958 21.665C18.3078 22.177 17.2198 22.113 16.0038 22.753C16.8358 23.073 17.6038 22.881 18.2438 22.561C20.0358 21.921 21.9558 21.089 23.6838 20.193ZM32.1998 29.537C32.0718 29.537 31.8798 29.537 31.6878 29.473C31.5598 29.345 31.0478 29.025 30.6638 28.833C30.0877 28.065 29.8957 27.233 30.1517 26.273C30.3438 25.825 30.4718 25.505 30.5998 25.121C30.6638 25.057 30.6638 25.057 30.6638 24.993C30.7278 24.609 30.9198 24.289 31.0478 23.841L31.4958 23.073C31.7518 22.753 31.8798 22.433 32.0078 22.305C32.7118 21.217 33.5438 20.449 34.3118 19.489C35.0798 18.657 36.1678 17.889 37.3838 17.761C38.7278 18.017 40.2638 18.273 40.5198 19.745C40.7118 20.641 40.1998 21.217 39.8798 21.857C40.3918 21.793 40.8398 21.281 41.6078 21.345C41.9918 21.473 42.2478 21.793 42.3758 22.241C42.3758 22.241 42.4398 22.945 42.2478 23.457C42.1838 23.521 42.1838 23.649 42.1198 23.777C41.9278 24.673 41.9278 25.633 42.3118 26.529C42.3758 26.785 42.5678 27.041 42.8878 27.233C43.0158 27.297 43.1438 27.297 43.3358 27.233C43.5278 27.169 43.7838 27.169 44.0398 27.041C45.0638 26.593 46.0878 25.825 46.9838 25.185C47.8158 24.673 48.7758 24.097 49.6718 23.457C51.2078 22.497 51.0798 22.625 52.5518 21.665C52.9998 21.281 53.5118 20.961 54.1518 20.577L54.3438 20.705L53.7678 21.473C53.8958 21.793 53.8958 21.793 54.2798 21.537C54.2798 21.409 54.2798 21.153 54.5998 21.281C53.9598 22.241 52.9358 22.753 52.1038 23.329C51.7838 23.585 51.3358 23.777 51.1438 23.905C50.9518 24.097 50.6958 24.417 50.3758 24.545C50.3118 24.609 50.1198 24.609 49.9278 24.673C49.9278 24.673 49.9278 24.609 49.8638 24.545C49.9278 24.545 50.1198 24.417 50.2478 24.289C50.5038 24.161 50.6318 23.969 50.5678 23.713C50.5678 23.649 50.4398 23.585 50.3758 23.585C49.8638 23.841 49.5438 24.161 49.0958 24.481C48.3278 24.801 47.7518 25.185 47.1118 25.697C46.9198 25.761 46.7278 25.953 46.4718 26.017V26.145C46.6638 26.081 46.8558 26.081 46.9838 25.953C47.2397 25.761 47.4318 25.761 47.6238 25.889C47.6238 25.825 47.5598 25.761 47.5598 25.697C48.0078 25.505 48.3278 25.569 48.7118 25.249C49.0958 24.993 49.5438 24.865 49.7998 24.609C49.7998 24.737 49.7358 24.929 49.5438 25.057C49.0318 25.313 48.5198 25.697 48.0078 25.953C47.8798 26.017 47.7518 26.145 47.6238 26.337C47.4958 26.465 47.3678 26.529 47.1758 26.593C47.3678 26.657 47.4958 26.657 47.6238 26.657L47.5598 26.721C47.4318 26.785 47.3038 26.849 47.1118 26.849V27.105C47.4318 26.913 47.8798 26.721 48.1998 26.529V26.657C47.8798 26.913 47.4318 27.169 47.1758 27.489C46.6638 28.065 46.0878 28.193 45.4478 28.641C45.0638 28.833 44.8718 28.769 44.5518 28.961C44.4238 29.025 44.1038 29.153 43.9118 29.153C43.8478 29.153 43.5278 29.281 43.3358 29.281C43.0798 29.281 42.5038 29.409 42.2478 29.345C42.1198 29.281 41.7358 29.281 41.6078 29.153C41.4158 29.089 41.2878 28.833 41.0958 28.769C40.7118 28.257 40.2638 28.001 40.0078 27.425C39.6238 27.041 39.6878 26.913 39.4958 26.593C39.3678 26.529 39.3678 26.401 39.3038 26.273C38.8558 26.529 38.8558 27.169 38.4078 27.169C38.2798 27.297 38.2158 27.489 38.0878 27.553C37.3198 28.129 36.2958 28.961 35.2718 29.409C34.2478 29.921 33.1598 29.921 32.1998 29.537ZM32.0718 27.681C32.7758 27.681 33.9278 27.617 34.5677 27.361C35.3998 27.041 35.9758 26.593 36.6158 25.889C37.5758 24.865 38.0238 24.097 38.9838 23.073C39.0478 23.073 39.3038 22.753 39.3038 22.753H39.2398C37.8318 22.625 38.3438 19.809 38.4078 19.745C36.4878 20.065 34.2478 23.073 33.5438 24.289C32.9678 25.313 32.3918 26.401 32.0718 27.681ZM51.0798 23.777C51.1438 23.777 51.2078 23.585 51.2078 23.521C51.2078 23.265 51.3358 23.201 51.4638 23.137C51.5278 23.009 51.7838 22.945 51.9758 22.881C52.1038 22.817 52.3598 22.817 52.4878 22.753V22.369C52.6158 22.305 52.6798 22.177 52.7438 22.113C52.7438 22.049 52.7438 21.985 52.6798 21.985C52.5518 22.113 52.2318 22.305 51.9118 22.497C51.4638 22.753 50.6318 23.329 50.5678 23.457C50.6958 23.521 50.9518 23.649 51.0798 23.777ZM55.3833 32.481L53.8473 32.289C53.6553 32.225 53.2713 32.225 53.0153 32.161C52.6313 31.969 52.1833 31.841 51.7353 31.585C51.4153 31.329 51.0953 30.945 50.7752 30.625C50.5832 30.369 50.4552 30.049 50.3272 29.729C50.2632 29.345 50.1352 28.961 50.0712 28.449C50.0712 28.129 50.0712 27.681 50.1992 27.297C50.3272 24.673 52.0553 21.985 53.1432 20.513C53.2073 20.385 53.2713 20.257 53.3993 20.257C53.5273 20.065 53.6553 19.937 53.7193 19.809C53.7833 19.745 54.4233 18.977 54.6793 18.785C55.1913 18.273 55.7673 18.145 56.3433 18.337C56.5993 18.401 56.9193 18.273 57.1753 18.401C57.4953 18.529 57.8153 18.785 58.1353 18.977C58.5193 19.169 58.9033 19.297 59.1593 19.553C59.5433 19.809 59.8633 20.129 60.1193 20.449C60.1833 20.577 60.1833 20.897 60.0553 21.153C60.0553 21.409 59.8633 21.601 59.6713 21.857C59.5433 22.049 59.1593 21.985 58.9673 21.857C58.6473 21.665 58.3273 21.537 58.0713 21.345C57.8793 21.153 57.6873 20.961 57.6233 20.769C57.4953 20.513 57.4313 20.513 57.2393 20.641C56.6633 20.897 56.0873 21.281 55.7673 21.857C55.5113 22.369 55.0633 22.689 54.7433 23.201C54.4233 23.713 54.0393 24.225 53.6553 24.801C53.0153 25.761 52.5673 26.849 52.2473 27.937C51.9913 28.513 52.0553 29.217 52.1833 29.793C52.2473 29.985 52.4393 30.049 52.6313 30.113C53.3993 30.113 54.2313 30.049 55.0633 29.729C55.5753 29.601 56.0873 29.537 56.4713 29.281C56.9193 29.153 57.3673 28.961 57.7513 28.705C58.0073 28.577 58.1993 28.385 58.5193 28.193C58.6473 28.065 58.7753 28.065 58.9033 28.001V28.129C58.7753 28.193 58.6473 28.257 58.4553 28.385V28.449C58.6473 28.449 58.7753 28.385 58.8393 28.321L60.4392 27.297C61.2073 26.721 61.9113 26.145 62.6153 25.569C63.1273 25.249 63.5113 24.929 63.9593 24.545C63.9593 24.545 64.0233 24.481 64.0233 24.353C63.8953 24.481 63.7673 24.545 63.5113 24.673C63.4473 24.609 63.5113 24.545 63.5113 24.545C63.9593 24.161 64.5993 23.777 65.1113 23.457C65.2393 23.265 65.4313 23.137 65.7513 22.945C65.8153 22.881 65.8793 22.625 66.0713 22.881C66.1353 22.753 66.1353 22.625 66.1353 22.625C66.4553 22.433 66.8393 22.113 67.1593 21.857C67.2233 21.857 67.3513 21.793 67.4153 21.729C67.4153 21.857 67.5433 21.921 67.4792 21.985C67.4153 22.369 67.3513 22.689 66.9673 22.881C66.9033 22.881 66.8393 23.009 66.8393 23.073C66.9673 23.393 66.5833 23.457 66.5193 23.713C66.4553 23.777 66.4553 23.841 66.3273 23.969C66.2633 24.033 66.1353 24.161 66.1353 24.225C66.0073 24.353 66.0073 24.481 65.8793 24.545C65.5593 24.737 65.3033 24.929 65.0473 24.993C64.9833 25.057 64.9193 25.057 64.8553 25.057C64.7913 25.057 64.7913 25.121 64.7913 25.185C64.9193 25.313 64.9193 25.377 65.1753 25.505C65.0473 26.017 64.5993 26.145 64.1513 26.209C64.1513 26.593 63.7673 26.785 63.5753 26.977C63.5113 26.977 63.5113 26.913 63.5113 26.913C63.5113 26.785 63.6393 26.593 63.7033 26.465C63.5753 26.465 63.4473 26.529 63.3193 26.593C63.0633 26.785 62.8713 26.849 62.6793 26.593C62.7433 26.465 62.7433 26.337 62.8073 26.145H62.7433C62.5513 26.337 62.2313 26.593 61.9113 26.785C61.2713 27.297 60.6313 27.809 59.9913 28.385C59.9913 28.449 59.9273 28.449 59.8633 28.577C59.4153 28.769 58.7753 28.449 58.5833 29.217C58.7753 29.217 59.0312 29.153 59.2233 29.281C59.4792 29.473 59.7353 29.409 60.0553 29.281C59.8633 29.281 59.6713 29.217 59.5433 29.217C59.6713 28.833 59.9913 28.769 60.6953 29.025L59.6073 29.857C59.5433 29.857 59.5433 29.921 59.5433 29.921C58.9673 29.857 58.7753 30.369 58.5193 30.689C58.4553 30.753 58.5193 30.945 58.5193 31.201C58.3273 31.329 58.0073 31.393 57.7513 31.521C57.1753 31.777 56.5353 31.905 56.0233 32.097C55.8313 32.289 55.6393 32.545 55.3833 32.481ZM60.6953 28.641C60.6313 28.129 60.8233 27.937 61.2073 27.937C61.3353 27.937 61.5273 27.873 61.6553 27.745C61.5913 27.681 61.3993 27.681 61.2713 27.681C61.3353 27.361 61.5273 27.297 61.7833 27.297C62.1033 27.233 62.4873 26.913 62.6793 27.297C62.8073 27.297 62.9353 27.233 63.0633 27.169C63.0633 27.297 63.1273 27.361 63.0633 27.361C62.4873 27.745 62.0393 28.321 61.3353 28.449C61.3353 28.385 61.3353 28.257 61.3993 28.129C61.1433 28.321 60.8873 28.449 60.6953 28.641ZM58.7753 31.137C58.6473 30.753 58.7113 30.689 59.4153 30.753C59.2233 30.817 58.9673 31.009 58.7753 31.137ZM68.2013 32.737C67.8173 32.609 67.8813 32.353 67.9453 32.097C67.8813 31.969 67.8813 31.841 67.8173 31.777C67.3693 31.841 67.8173 32.225 67.6253 32.353C67.2413 32.289 66.8573 31.649 66.9853 31.137C67.1773 30.049 67.3053 29.025 67.5613 27.873C67.8813 26.785 68.2653 25.633 68.5213 24.481C68.7133 23.713 68.7773 23.009 68.9053 22.241C68.9053 22.177 68.9053 22.049 68.8413 22.049C68.6493 21.857 68.7133 21.473 68.7773 21.089C68.8413 20.641 68.9693 20.513 69.3533 20.577C70.1853 20.641 70.7613 21.217 71.2093 21.857C71.2733 21.921 71.2733 21.921 71.2733 21.985C71.1453 22.497 71.0813 22.945 71.0173 23.457C70.9533 23.905 70.9533 24.225 70.8253 24.673C70.6973 25.121 70.5052 25.505 70.3773 25.953C70.3773 26.017 70.3773 26.081 70.3133 26.209C70.3773 26.145 70.3773 26.209 70.3773 26.145C71.0173 25.185 71.7213 24.289 72.4893 23.521C72.8733 23.073 73.3213 22.625 73.8333 22.241C74.1533 22.049 74.2173 22.049 74.8573 21.985C75.3693 21.985 75.4973 22.049 75.6892 22.113C75.8813 22.113 76.0093 22.241 76.2013 22.433C76.0093 22.433 75.8173 22.497 75.6892 22.497V22.561C76.2013 22.625 76.4573 23.137 77.0333 22.753C77.0973 23.073 77.0333 23.393 77.2893 23.521C77.3533 23.521 77.2893 23.713 77.2893 23.905C77.4813 24.481 77.6093 25.057 77.6733 25.633C77.6733 26.145 77.6093 26.657 77.5453 27.169C77.5453 27.297 77.6093 27.489 77.5453 27.681C77.6093 28.129 77.6093 28.641 77.6093 29.089L77.8013 29.729C77.8013 29.857 77.9933 30.049 78.0573 30.113H78.2493C78.3133 30.049 78.5053 29.985 79.5933 29.409C79.9773 29.281 80.3613 29.089 80.6813 28.833C81.0653 28.705 81.4493 28.321 81.7693 28.129C81.9613 28.065 82.0893 27.937 82.1533 27.873C82.4093 27.617 82.7933 27.361 83.1133 27.169C82.9853 27.105 82.9213 27.105 82.9853 27.041C82.6013 27.297 82.1533 27.617 81.7693 27.937C81.7053 27.873 81.7053 27.873 81.6413 27.873C84.0093 26.017 85.8653 23.777 87.5933 21.537C87.5933 21.537 87.6573 21.537 87.5933 21.601C87.5293 21.729 87.3373 21.921 87.2733 22.049C87.2093 22.177 86.9533 22.433 87.1453 22.625C87.1453 22.625 87.1453 22.689 87.0813 22.753C86.8253 22.817 86.8253 22.817 86.6333 23.137H86.9533C86.7613 23.265 86.5693 23.585 86.3773 23.841L86.3133 24.673H86.3773C86.2493 24.993 86.2493 25.249 86.1213 25.505C85.9933 25.761 85.7373 26.081 85.4813 26.273L84.3933 27.553C84.3293 27.681 84.3293 27.873 84.0093 28.065C84.0093 28.065 84.0093 28.193 84.0733 28.257C84.0093 28.321 83.8173 28.321 83.8173 28.385C83.5613 28.897 83.0493 29.281 82.6013 29.729C82.2173 30.177 81.6413 30.625 81.0653 31.009C80.1693 31.649 79.0813 31.649 78.1213 31.841H78.0573C77.6093 31.649 77.4173 31.649 77.0973 31.265C76.5213 30.817 76.0093 30.241 75.7533 29.409C75.4333 28.321 75.1773 27.105 75.3053 25.761C75.3053 25.441 75.3693 24.993 75.3693 24.609C75.2413 24.481 75.1133 24.417 75.0493 24.225C74.8573 24.929 74.6013 25.121 74.1533 25.185C74.0253 25.697 73.7053 26.017 73.2573 26.209C73.3213 26.721 72.8733 26.785 72.6813 27.105C72.6173 27.297 72.2333 27.617 72.3613 27.617C72.5533 28.065 71.9773 27.809 72.0413 28.065C71.9773 28.065 71.9133 28.065 71.8493 28.001C71.9133 28.385 71.5933 28.577 71.3373 28.705C71.4013 28.769 71.4653 28.833 71.4653 28.897C71.4013 29.025 71.3373 29.025 71.3373 29.025L71.5293 29.217C71.1453 29.857 70.7613 30.433 70.4413 31.137C70.1853 31.457 69.9293 31.649 69.6093 31.649L69.4173 32.097C69.2893 32.161 69.2893 32.225 69.2253 32.289C68.9693 32.801 68.7133 32.865 68.2013 32.737ZM71.3373 25.441L71.9133 24.737C71.9773 24.737 71.9133 24.801 71.9133 24.801C71.8493 24.993 71.7853 25.121 71.6573 25.249L71.7213 25.313C71.9773 25.185 72.1053 25.057 72.3613 24.929C72.2973 24.801 72.2333 24.801 72.1693 24.737C72.2973 24.673 72.3613 24.673 72.3613 24.609C72.4893 24.417 72.6813 24.097 73.0013 24.225C73.0653 24.225 73.1293 24.097 73.1293 24.097C73.0013 23.713 73.2573 23.585 73.4493 23.393C73.5133 23.457 73.6413 23.521 73.6413 23.457C73.7053 23.393 73.8333 23.201 74.0253 23.073C73.5773 23.009 73.2573 23.009 73.0013 23.265L72.2333 24.097L71.2733 25.313C71.2733 25.313 71.3373 25.313 71.3373 25.441ZM72.8093 25.633C73.0013 25.313 73.4493 25.441 73.4493 24.929H73.6413C73.6413 24.673 73.5133 24.609 73.4493 24.481C73.3853 24.673 72.8733 24.673 73.1293 25.121C73.0013 25.185 72.8093 25.249 72.7453 25.249C72.7453 25.441 72.7453 25.505 72.8093 25.633ZM83.2413 27.297C83.3053 27.297 83.3693 27.233 83.3693 27.169C83.6893 26.913 83.8813 26.721 84.1373 26.401C84.3293 26.209 84.5213 26.081 84.6493 25.825C84.6493 25.825 84.5853 25.761 84.5213 25.761C84.0093 26.273 83.5613 26.721 83.1133 27.233C83.1772 27.297 83.1772 27.297 83.2413 27.297ZM110.375 24.801C110.439 24.673 110.695 24.737 110.951 24.737C110.631 25.121 110.119 25.377 110.055 26.017L109.799 26.145C110.055 26.593 109.543 26.657 109.351 26.785C109.031 26.913 109.223 27.169 108.967 27.297C109.031 27.361 109.095 27.425 109.351 27.489C109.095 27.489 108.967 27.553 108.839 27.553C108.519 27.553 108.391 27.809 108.327 28.129C108.327 28.449 107.879 28.833 107.559 28.833C107.431 28.833 107.239 28.897 107.111 29.025C107.239 29.153 107.239 29.217 107.239 29.281L106.407 29.857C106.407 29.921 106.407 29.921 106.471 29.985C106.663 29.857 106.727 29.793 106.919 29.729C106.919 29.793 106.983 29.793 106.983 29.793C106.215 30.753 105.319 30.945 104.167 31.009C104.295 31.137 104.295 31.201 104.423 31.329C103.783 31.201 103.399 31.841 102.887 31.521C102.695 31.457 102.567 31.521 102.375 31.457C102.055 31.329 101.799 31.201 101.543 31.201C101.351 31.073 101.095 30.945 100.903 30.881C100.647 30.753 100.327 30.625 100.327 30.497C100.071 30.113 99.7513 29.921 99.3673 29.793C98.7273 29.537 98.5353 29.025 98.3433 28.513C98.2153 28.321 98.0873 28.193 98.0233 28.065C97.7673 27.681 97.6393 27.297 97.4473 26.913C97.5113 26.785 97.4473 26.721 97.3193 26.529L96.3593 27.489H96.2953C96.2953 27.425 96.3593 27.361 96.3593 27.233C96.2313 27.105 95.2713 28.065 95.0793 28.385C95.0153 28.513 95.0153 28.577 94.9513 28.577C94.8873 28.705 94.6953 28.833 94.6313 28.897C94.1833 29.473 93.8633 30.113 93.2233 30.433C92.3273 30.817 91.5593 31.393 90.5993 31.457C89.8953 31.521 89.5113 31.329 89.2552 30.689C89.1913 30.625 89.1913 30.561 89.1913 30.433C89.1273 30.561 89.0633 30.689 89.0633 30.753C89.1913 30.881 88.9353 30.689 88.8073 30.561C88.6153 30.305 88.2953 30.049 88.1033 29.665C87.4633 28.449 87.5273 27.681 87.8473 26.593C88.3593 24.737 90.1513 22.753 89.9593 22.305C89.3193 22.497 88.8073 22.561 88.6153 22.369C88.3593 21.921 88.1033 21.601 88.1673 21.281C88.2953 21.025 88.5513 20.897 88.7433 20.769C88.9993 20.577 89.3193 20.385 89.7033 20.257C90.2153 20.129 90.6633 20.129 91.1113 20.257C91.4313 20.513 91.9433 20.641 92.1353 20.961C92.6473 21.857 92.2633 22.753 91.5593 24.353C91.2393 25.121 90.5353 26.465 90.3433 26.913C90.0873 27.489 89.8313 28.385 90.3433 28.705C90.7273 28.897 91.2393 28.769 91.6233 28.513C92.5193 28.001 92.8393 27.553 93.3513 27.105C94.0553 26.465 94.5673 25.825 95.2713 25.121C95.9113 24.481 96.4873 23.713 97.1273 23.073C97.5113 22.689 97.8313 22.241 98.2153 21.857C98.2793 21.729 98.5353 21.665 98.5993 21.473C98.7273 21.985 98.8553 21.665 99.1113 21.537C99.4313 21.473 99.6873 21.473 99.9433 21.473C99.9433 21.537 100.007 21.537 100.007 21.601L99.6873 21.793C99.6873 21.857 99.6873 21.857 99.6233 21.921C100.071 22.049 100.583 22.049 101.095 22.177C101.095 22.305 101.031 22.369 100.903 22.369C100.967 22.369 100.967 22.433 100.967 22.433C101.415 22.497 101.479 22.689 101.351 23.073C101.031 23.457 100.839 23.905 100.711 24.417C100.199 25.633 100.007 26.913 100.327 28.193C100.391 28.449 100.455 28.641 100.583 28.833C101.287 29.537 103.015 29.089 104.103 28.577C104.807 28.257 105.447 27.809 106.087 27.361C107.303 26.529 108.519 25.633 109.671 24.673L110.567 23.841C110.567 23.777 110.695 23.777 110.759 23.777C110.823 23.777 110.887 23.841 110.823 23.905L109.735 25.057C109.991 25.121 110.183 25.057 110.375 24.801ZM95.9753 24.993C96.7433 24.737 98.1513 23.073 98.0873 22.689C97.3833 23.521 96.7433 24.225 95.9753 24.993ZM90.2793 25.313C89.9593 25.569 89.9593 25.569 90.2793 25.697C90.4073 25.313 91.3673 23.649 91.6233 23.009C91.1753 23.137 90.3433 24.609 90.4073 24.929C90.3433 25.057 90.2793 25.185 90.2793 25.313ZM97.3833 25.121C97.7673 24.737 98.0233 24.417 97.7673 24.033C97.7033 24.097 97.7033 24.161 97.5753 24.289C97.5113 24.481 97.3833 24.737 97.2553 24.929C97.2553 24.993 97.1273 24.993 97.0633 25.057V24.801C96.8073 24.993 96.6793 25.121 96.4233 25.377C96.8713 25.441 97.1273 25.441 97.3833 25.121ZM109.095 26.273C109.223 26.145 109.415 26.017 109.479 25.889L109.351 25.121L107.239 26.977C107.303 26.977 107.303 26.977 107.367 27.041C107.879 26.657 108.391 26.145 108.903 25.697C108.903 25.761 108.903 25.761 108.967 25.761C108.711 26.145 108.391 26.465 107.943 26.913L108.391 26.785L109.095 26.273ZM92.0073 28.769C92.5193 28.769 94.1193 27.873 94.1833 27.489C93.5433 27.873 92.7113 28.321 92.0073 28.769ZM105.895 28.193L106.471 28.001C106.279 27.873 106.151 27.745 106.087 27.745C106.023 27.809 105.895 27.937 105.767 28.001C105.831 28.129 105.895 28.065 105.895 28.193ZM89.0633 30.177V30.241C89.0633 30.177 89.0633 30.177 89.0633 30.177ZM114.633 32.481L113.097 32.289C112.905 32.225 112.521 32.225 112.265 32.161C111.881 31.969 111.433 31.841 110.985 31.585C110.665 31.329 110.345 30.945 110.025 30.625C109.833 30.369 109.705 30.049 109.577 29.729C109.513 29.345 109.385 28.961 109.321 28.449C109.321 28.129 109.321 27.681 109.449 27.297C109.577 24.673 111.305 21.985 112.393 20.513C112.457 20.385 112.521 20.257 112.649 20.257C112.777 20.065 112.905 19.937 112.969 19.809C113.033 19.745 113.673 18.977 113.929 18.785C114.441 18.273 115.017 18.145 115.593 18.337C115.849 18.401 116.169 18.273 116.425 18.401C116.745 18.529 117.065 18.785 117.385 18.977C117.769 19.169 118.153 19.297 118.409 19.553C118.793 19.809 119.113 20.129 119.369 20.449C119.433 20.577 119.433 20.897 119.305 21.153C119.305 21.409 119.113 21.601 118.921 21.857C118.793 22.049 118.409 21.985 118.217 21.857C117.897 21.665 117.577 21.537 117.321 21.345C117.129 21.153 116.937 20.961 116.873 20.769C116.745 20.513 116.681 20.513 116.489 20.641C115.913 20.897 115.337 21.281 115.017 21.857C114.761 22.369 114.313 22.689 113.993 23.201C113.673 23.713 113.289 24.225 112.905 24.801C112.265 25.761 111.817 26.849 111.497 27.937C111.241 28.513 111.305 29.217 111.433 29.793C111.497 29.985 111.689 30.049 111.881 30.113C112.649 30.113 113.481 30.049 114.313 29.729C114.825 29.601 115.337 29.537 115.721 29.281C116.169 29.153 116.617 28.961 117.001 28.705C117.257 28.577 117.449 28.385 117.769 28.193C117.897 28.065 118.025 28.065 118.153 28.001V28.129C118.025 28.193 117.897 28.257 117.705 28.385V28.449C117.897 28.449 118.025 28.385 118.089 28.321L119.689 27.297C120.457 26.721 121.161 26.145 121.865 25.569C122.377 25.249 122.761 24.929 123.209 24.545C123.209 24.545 123.273 24.481 123.273 24.353C123.145 24.481 123.017 24.545 122.761 24.673C122.697 24.609 122.761 24.545 122.761 24.545C123.209 24.161 123.849 23.777 124.361 23.457C124.489 23.265 124.681 23.137 125.001 22.945C125.065 22.881 125.129 22.625 125.321 22.881C125.385 22.753 125.385 22.625 125.385 22.625C125.705 22.433 126.089 22.113 126.409 21.857C126.473 21.857 126.601 21.793 126.665 21.729C126.665 21.857 126.793 21.921 126.729 21.985C126.665 22.369 126.601 22.689 126.217 22.881C126.153 22.881 126.089 23.009 126.089 23.073C126.217 23.393 125.833 23.457 125.769 23.713C125.705 23.777 125.705 23.841 125.577 23.969C125.513 24.033 125.385 24.161 125.385 24.225C125.257 24.353 125.257 24.481 125.129 24.545C124.809 24.737 124.553 24.929 124.297 24.993C124.233 25.057 124.169 25.057 124.105 25.057C124.041 25.057 124.041 25.121 124.041 25.185C124.169 25.313 124.169 25.377 124.425 25.505C124.297 26.017 123.849 26.145 123.401 26.209C123.401 26.593 123.017 26.785 122.825 26.977C122.761 26.977 122.761 26.913 122.761 26.913C122.761 26.785 122.889 26.593 122.953 26.465C122.825 26.465 122.697 26.529 122.569 26.593C122.313 26.785 122.121 26.849 121.929 26.593C121.993 26.465 121.993 26.337 122.057 26.145H121.993C121.801 26.337 121.481 26.593 121.161 26.785C120.521 27.297 119.881 27.809 119.241 28.385C119.241 28.449 119.177 28.449 119.113 28.577C118.665 28.769 118.025 28.449 117.833 29.217C118.025 29.217 118.281 29.153 118.473 29.281C118.729 29.473 118.985 29.409 119.305 29.281C119.113 29.281 118.921 29.217 118.793 29.217C118.921 28.833 119.241 28.769 119.945 29.025L118.857 29.857C118.793 29.857 118.793 29.921 118.793 29.921C118.217 29.857 118.025 30.369 117.769 30.689C117.705 30.753 117.769 30.945 117.769 31.201C117.577 31.329 117.257 31.393 117.001 31.521C116.425 31.777 115.785 31.905 115.273 32.097C115.081 32.289 114.889 32.545 114.633 32.481ZM119.945 28.641C119.881 28.129 120.073 27.937 120.457 27.937C120.585 27.937 120.777 27.873 120.905 27.745C120.841 27.681 120.649 27.681 120.521 27.681C120.585 27.361 120.777 27.297 121.033 27.297C121.353 27.233 121.737 26.913 121.929 27.297C122.057 27.297 122.185 27.233 122.313 27.169C122.313 27.297 122.377 27.361 122.313 27.361C121.737 27.745 121.289 28.321 120.585 28.449C120.585 28.385 120.585 28.257 120.649 28.129C120.393 28.321 120.137 28.449 119.945 28.641ZM118.025 31.137C117.897 30.753 117.961 30.689 118.665 30.753C118.473 30.817 118.217 31.009 118.025 31.137ZM126.075 29.537C125.947 29.537 125.755 29.537 125.563 29.473C125.435 29.345 124.923 29.025 124.539 28.833C123.963 28.065 123.771 27.233 124.027 26.273C124.219 25.825 124.347 25.505 124.475 25.121C124.539 25.057 124.539 25.057 124.539 24.993C124.603 24.609 124.795 24.289 124.923 23.841L125.371 23.073C125.627 22.753 125.755 22.433 125.883 22.305C126.587 21.217 127.419 20.449 128.187 19.489C128.955 18.657 130.043 17.889 131.259 17.761C132.603 18.017 134.139 18.273 134.395 19.745C134.587 20.641 134.075 21.217 133.755 21.857C134.267 21.793 134.715 21.281 135.483 21.345C135.867 21.473 136.123 21.793 136.251 22.241C136.251 22.241 136.315 22.945 136.123 23.457C136.059 23.521 136.059 23.649 135.995 23.777C135.803 24.673 135.803 25.633 136.187 26.529C136.251 26.785 136.443 27.041 136.763 27.233C136.891 27.297 137.019 27.297 137.211 27.233C137.403 27.169 137.659 27.169 137.915 27.041C138.939 26.593 139.963 25.825 140.859 25.185C141.691 24.673 142.651 24.097 143.547 23.457C145.083 22.497 144.955 22.625 146.427 21.665C146.875 21.281 147.387 20.961 148.027 20.577L148.219 20.705L147.643 21.473C147.771 21.793 147.771 21.793 148.155 21.537C148.155 21.409 148.155 21.153 148.475 21.281C147.835 22.241 146.811 22.753 145.979 23.329C145.659 23.585 145.211 23.777 145.019 23.905C144.827 24.097 144.571 24.417 144.251 24.545C144.187 24.609 143.995 24.609 143.803 24.673C143.803 24.673 143.803 24.609 143.739 24.545C143.803 24.545 143.995 24.417 144.123 24.289C144.379 24.161 144.507 23.969 144.443 23.713C144.443 23.649 144.315 23.585 144.251 23.585C143.739 23.841 143.419 24.161 142.971 24.481C142.203 24.801 141.627 25.185 140.987 25.697C140.795 25.761 140.603 25.953 140.347 26.017V26.145C140.539 26.081 140.731 26.081 140.859 25.953C141.115 25.761 141.307 25.761 141.499 25.889C141.499 25.825 141.435 25.761 141.435 25.697C141.883 25.505 142.203 25.569 142.587 25.249C142.971 24.993 143.419 24.865 143.675 24.609C143.675 24.737 143.611 24.929 143.419 25.057C142.907 25.313 142.395 25.697 141.883 25.953C141.755 26.017 141.627 26.145 141.499 26.337C141.371 26.465 141.243 26.529 141.051 26.593C141.243 26.657 141.371 26.657 141.499 26.657L141.435 26.721C141.307 26.785 141.179 26.849 140.987 26.849V27.105C141.307 26.913 141.755 26.721 142.075 26.529V26.657C141.755 26.913 141.307 27.169 141.051 27.489C140.539 28.065 139.963 28.193 139.323 28.641C138.939 28.833 138.747 28.769 138.427 28.961C138.299 29.025 137.979 29.153 137.787 29.153C137.723 29.153 137.403 29.281 137.211 29.281C136.955 29.281 136.379 29.409 136.123 29.345C135.995 29.281 135.611 29.281 135.483 29.153C135.291 29.089 135.163 28.833 134.971 28.769C134.587 28.257 134.139 28.001 133.883 27.425C133.499 27.041 133.563 26.913 133.371 26.593C133.243 26.529 133.243 26.401 133.179 26.273C132.731 26.529 132.731 27.169 132.283 27.169C132.155 27.297 132.091 27.489 131.963 27.553C131.195 28.129 130.171 28.961 129.147 29.409C128.123 29.921 127.035 29.921 126.075 29.537ZM125.947 27.681C126.651 27.681 127.803 27.617 128.443 27.361C129.275 27.041 129.851 26.593 130.491 25.889C131.451 24.865 131.899 24.097 132.859 23.073C132.923 23.073 133.179 22.753 133.179 22.753H133.115C131.707 22.625 132.219 19.809 132.283 19.745C130.363 20.065 128.123 23.073 127.419 24.289C126.843 25.313 126.267 26.401 125.947 27.681ZM144.955 23.777C145.019 23.777 145.083 23.585 145.083 23.521C145.083 23.265 145.211 23.201 145.339 23.137C145.403 23.009 145.659 22.945 145.851 22.881C145.979 22.817 146.235 22.817 146.363 22.753V22.369C146.491 22.305 146.555 22.177 146.619 22.113C146.619 22.049 146.619 21.985 146.555 21.985C146.427 22.113 146.107 22.305 145.787 22.497C145.339 22.753 144.507 23.329 144.443 23.457C144.571 23.521 144.827 23.649 144.955 23.777ZM155.85 33.953C155.722 33.953 155.658 33.953 155.594 33.889C154.634 33.377 153.674 32.929 153.162 32.033C153.034 31.841 152.97 31.713 152.906 31.521C152.522 30.625 152.33 29.665 152.522 28.641C152.714 27.937 153.098 26.401 153.098 26.273C152.778 26.337 152.458 26.337 152.202 26.337H149.898C149.578 26.337 149.322 26.273 149.066 26.337C148.938 26.337 148.81 26.529 148.746 26.657C148.682 26.977 148.554 27.297 148.426 27.681L148.234 27.873C148.17 27.937 148.042 28.001 148.042 28.065C147.85 28.513 147.722 28.961 147.594 29.409L147.21 30.881C147.146 31.201 147.082 31.521 147.082 31.777V31.969C147.21 32.097 147.274 32.289 147.082 32.481C146.954 32.673 146.698 32.673 146.378 32.545C145.354 31.969 145.162 30.945 145.226 29.921C145.226 29.089 145.674 28.193 145.866 27.297C145.994 26.977 145.93 26.721 146.122 26.337L145.738 26.209C145.546 26.145 145.29 26.017 145.674 24.993C145.674 24.737 145.738 24.609 146.058 24.609H146.634L147.594 21.473C147.722 21.025 148.042 20.577 147.914 20.065C147.914 20.001 148.042 19.873 148.106 19.809C148.234 19.553 148.426 19.297 148.81 19.169C149.194 19.041 149.386 19.361 149.642 19.553C149.898 19.745 149.898 20.193 149.962 20.577C150.026 20.961 150.154 21.409 150.09 21.793C150.026 22.305 149.898 22.881 149.77 23.457C149.642 23.777 149.514 24.161 149.386 24.609H151.818C152.33 24.609 152.842 24.545 153.354 24.545C153.674 24.545 153.866 24.481 153.93 24.289C154.378 23.393 154.826 22.497 155.338 21.665C155.53 21.217 155.914 20.769 156.298 20.513C156.682 20.129 157.514 20.065 157.834 20.833C157.834 20.897 157.834 21.025 157.898 21.089C158.346 21.409 158.154 21.793 158.026 22.049C157.77 22.561 157.45 23.137 157.258 23.649C157.13 23.777 157.066 24.289 156.938 24.545C157.45 24.481 157.898 24.801 158.154 25.441C158.154 25.825 157.834 25.889 157.578 26.017C157.258 26.145 156.618 26.017 156.234 26.081C156.17 26.081 156.106 26.145 156.042 26.273C155.978 26.593 155.914 26.529 155.85 26.849C155.722 27.361 155.722 27.553 155.53 28.065C155.21 29.025 155.018 29.985 155.082 30.945C155.146 31.393 155.146 31.713 155.146 32.033C155.21 32.353 155.466 32.481 155.786 32.289C156.618 31.841 157.514 31.457 158.282 30.881C159.05 30.369 159.626 29.921 160.202 29.281C160.778 28.769 161.226 28.193 161.802 27.617C161.994 27.297 162.314 26.977 162.506 26.721C162.762 26.465 162.954 26.145 163.21 25.761C163.53 25.377 163.85 24.993 164.234 24.609C164.234 24.673 164.298 24.673 164.298 24.737C164.042 25.121 163.786 25.505 163.594 25.889C163.402 26.209 163.274 26.529 163.146 26.849C163.082 26.849 162.57 27.745 162.634 27.745C162.314 28.065 161.994 28.449 161.674 28.833C161.802 28.769 161.994 28.769 162.058 28.641C162.57 28.129 163.018 27.425 163.53 26.913C163.53 26.977 163.466 27.041 163.466 27.169C163.146 27.745 162.826 28.385 162.378 28.897L161.674 29.601C161.61 29.665 161.674 29.729 161.61 29.921C161.162 30.113 160.266 30.753 160.138 31.009C160.394 30.945 160.778 30.881 161.098 30.881V31.009C160.97 31.009 160.842 31.073 160.65 31.073C160.778 31.265 160.842 31.137 161.162 31.201C161.098 31.329 160.394 31.585 160.33 31.649L159.754 32.097L159.178 32.225L158.602 32.673C158.73 32.737 158.794 32.801 158.922 32.929C158.474 33.377 157.898 33.697 157.322 33.825C156.81 33.889 156.298 34.145 155.85 33.953ZM153.098 28.833C153.482 28.833 153.482 28.833 153.354 28.577C153.482 28.513 153.546 28.513 153.674 28.513C153.674 28.449 153.738 28.449 153.738 28.385L153.354 28.193C153.482 28.129 153.61 28.065 153.674 28.001C153.738 27.681 153.93 27.297 153.802 26.977C153.674 26.721 153.994 26.913 153.994 26.721L153.866 26.401C153.226 27.169 153.354 28.065 153.098 28.833ZM188.375 24.801C188.439 24.673 188.695 24.737 188.951 24.737C188.631 25.121 188.119 25.377 188.055 26.017L187.799 26.145C188.055 26.593 187.543 26.657 187.351 26.785C187.031 26.913 187.223 27.169 186.967 27.297C187.031 27.361 187.095 27.425 187.351 27.489C187.095 27.489 186.967 27.553 186.839 27.553C186.519 27.553 186.391 27.809 186.327 28.129C186.327 28.449 185.879 28.833 185.559 28.833C185.431 28.833 185.239 28.897 185.111 29.025C185.239 29.153 185.239 29.217 185.239 29.281L184.407 29.857C184.407 29.921 184.407 29.921 184.471 29.985C184.663 29.857 184.727 29.793 184.919 29.729C184.919 29.793 184.983 29.793 184.983 29.793C184.215 30.753 183.319 30.945 182.167 31.009C182.295 31.137 182.295 31.201 182.423 31.329C181.783 31.201 181.399 31.841 180.887 31.521C180.695 31.457 180.567 31.521 180.375 31.457C180.055 31.329 179.799 31.201 179.543 31.201C179.351 31.073 179.095 30.945 178.903 30.881C178.647 30.753 178.327 30.625 178.327 30.497C178.071 30.113 177.751 29.921 177.367 29.793C176.727 29.537 176.535 29.025 176.343 28.513C176.215 28.321 176.087 28.193 176.023 28.065C175.767 27.681 175.639 27.297 175.447 26.913C175.511 26.785 175.447 26.721 175.319 26.529L174.359 27.489H174.295C174.295 27.425 174.359 27.361 174.359 27.233C174.231 27.105 173.271 28.065 173.079 28.385C173.015 28.513 173.015 28.577 172.951 28.577C172.887 28.705 172.695 28.833 172.631 28.897C172.183 29.473 171.863 30.113 171.223 30.433C170.327 30.817 169.559 31.393 168.599 31.457C167.895 31.521 167.511 31.329 167.255 30.689C167.191 30.625 167.191 30.561 167.191 30.433C167.127 30.561 167.063 30.689 167.063 30.753C167.191 30.881 166.935 30.689 166.807 30.561C166.615 30.305 166.295 30.049 166.103 29.665C165.463 28.449 165.527 27.681 165.847 26.593C166.359 24.737 168.151 22.753 167.959 22.305C167.319 22.497 166.807 22.561 166.615 22.369C166.359 21.921 166.103 21.601 166.167 21.281C166.295 21.025 166.551 20.897 166.743 20.769C166.999 20.577 167.319 20.385 167.703 20.257C168.215 20.129 168.663 20.129 169.111 20.257C169.431 20.513 169.943 20.641 170.135 20.961C170.647 21.857 170.263 22.753 169.559 24.353C169.239 25.121 168.535 26.465 168.343 26.913C168.087 27.489 167.831 28.385 168.343 28.705C168.727 28.897 169.239 28.769 169.623 28.513C170.519 28.001 170.839 27.553 171.351 27.105C172.055 26.465 172.567 25.825 173.271 25.121C173.911 24.481 174.487 23.713 175.127 23.073C175.511 22.689 175.831 22.241 176.215 21.857C176.279 21.729 176.535 21.665 176.599 21.473C176.727 21.985 176.855 21.665 177.111 21.537C177.431 21.473 177.687 21.473 177.943 21.473C177.943 21.537 178.007 21.537 178.007 21.601L177.687 21.793C177.687 21.857 177.687 21.857 177.623 21.921C178.071 22.049 178.583 22.049 179.095 22.177C179.095 22.305 179.031 22.369 178.903 22.369C178.967 22.369 178.967 22.433 178.967 22.433C179.415 22.497 179.479 22.689 179.351 23.073C179.031 23.457 178.839 23.905 178.711 24.417C178.199 25.633 178.007 26.913 178.327 28.193C178.391 28.449 178.455 28.641 178.583 28.833C179.287 29.537 181.015 29.089 182.103 28.577C182.807 28.257 183.447 27.809 184.087 27.361C185.303 26.529 186.519 25.633 187.671 24.673L188.567 23.841C188.567 23.777 188.695 23.777 188.759 23.777C188.823 23.777 188.887 23.841 188.823 23.905L187.735 25.057C187.991 25.121 188.183 25.057 188.375 24.801ZM173.975 24.993C174.743 24.737 176.151 23.073 176.087 22.689C175.383 23.521 174.743 24.225 173.975 24.993ZM168.279 25.313C167.959 25.569 167.959 25.569 168.279 25.697C168.407 25.313 169.367 23.649 169.623 23.009C169.175 23.137 168.343 24.609 168.407 24.929C168.343 25.057 168.279 25.185 168.279 25.313ZM175.383 25.121C175.767 24.737 176.023 24.417 175.767 24.033C175.703 24.097 175.703 24.161 175.575 24.289C175.511 24.481 175.383 24.737 175.255 24.929C175.255 24.993 175.127 24.993 175.063 25.057V24.801C174.807 24.993 174.679 25.121 174.423 25.377C174.871 25.441 175.127 25.441 175.383 25.121ZM187.095 26.273C187.223 26.145 187.415 26.017 187.479 25.889L187.351 25.121L185.239 26.977C185.303 26.977 185.303 26.977 185.367 27.041C185.879 26.657 186.391 26.145 186.903 25.697C186.903 25.761 186.903 25.761 186.967 25.761C186.711 26.145 186.391 26.465 185.943 26.913L186.391 26.785L187.095 26.273ZM170.007 28.769C170.519 28.769 172.119 27.873 172.183 27.489C171.543 27.873 170.711 28.321 170.007 28.769ZM183.895 28.193L184.471 28.001C184.279 27.873 184.151 27.745 184.087 27.745C184.023 27.809 183.895 27.937 183.767 28.001C183.831 28.129 183.895 28.065 183.895 28.193ZM167.063 30.177V30.241C167.063 30.177 167.063 30.177 167.063 30.177ZM200.057 27.873C200.057 27.937 200.121 28.001 200.121 28.001C200.953 27.745 201.657 27.041 202.489 26.593C202.425 26.721 202.425 26.849 202.361 26.913C202.105 27.169 201.785 27.425 201.529 27.617L200.313 28.577C199.801 28.833 199.417 29.089 198.969 29.409C198.393 29.729 197.881 30.177 197.241 30.433C196.857 30.625 196.409 30.625 195.961 30.689C195.705 30.689 195.577 30.753 195.385 30.881C195.129 31.009 194.745 31.073 194.425 31.137C193.913 31.265 193.465 31.393 192.953 31.329C192.313 31.265 191.609 31.137 191.033 30.945C190.457 30.753 190.201 30.689 189.561 30.177C189.497 30.049 189.305 29.985 189.241 29.921C188.793 29.601 188.537 29.217 188.153 28.641C188.025 28.513 188.025 28.513 187.897 27.873C187.577 27.105 187.641 26.657 187.641 26.209C187.705 24.929 188.025 23.713 188.665 22.497C188.921 22.113 189.177 21.729 189.497 21.345C190.073 20.641 190.649 20.001 191.225 19.361C191.801 18.785 192.505 18.401 193.337 18.337C193.529 18.337 193.721 18.273 193.977 18.209C194.617 17.953 195.193 18.401 195.641 18.657C196.217 18.913 196.729 19.297 197.177 19.681C197.689 20.001 198.009 21.089 197.817 21.601C197.689 21.921 197.497 22.241 197.305 22.433C196.729 23.073 196.153 23.649 195.577 24.225C195.385 24.417 195.001 24.481 194.937 24.673C194.873 25.121 194.425 25.185 194.169 25.313L193.721 25.569C193.849 25.569 193.913 25.633 193.913 25.633C193.721 25.761 193.529 25.825 193.273 25.953C193.209 26.017 193.209 26.209 193.145 26.273C192.697 26.529 192.185 26.721 191.801 26.977C191.609 27.041 191.481 27.233 191.353 27.361C190.841 27.617 190.649 27.681 190.201 27.937C190.457 28.705 190.585 28.833 191.097 29.025C191.929 28.961 192.761 29.025 193.593 28.897C194.169 28.833 194.745 28.577 195.321 28.385C195.769 28.193 196.281 27.937 196.793 27.745C197.113 27.617 197.433 27.617 197.753 27.425C198.457 26.977 199.225 26.593 199.865 26.209L200.057 26.081C200.121 26.145 200.121 26.145 200.121 26.145C200.057 26.273 199.929 26.401 199.865 26.465C199.929 26.529 199.993 26.593 199.929 26.657C200.121 26.657 200.313 26.593 200.441 26.529C200.505 26.593 200.505 26.593 200.441 26.657C200.185 26.849 199.865 27.105 199.609 27.361C199.801 27.489 200.121 27.553 200.441 27.681C200.249 27.745 200.185 27.809 200.057 27.873ZM190.585 24.033C190.393 24.417 190.265 24.865 190.137 25.377C190.649 25.057 190.969 24.865 191.225 24.673C191.353 24.673 191.481 24.737 191.545 24.673C191.737 24.545 192.057 24.353 192.313 24.097C192.121 24.097 192.057 24.161 191.865 24.161C192.249 23.841 192.441 23.457 192.889 23.457C192.761 23.649 192.569 23.777 192.441 23.969C192.441 23.969 192.441 24.033 192.505 24.033C193.081 23.649 193.593 23.201 194.169 22.817L194.041 22.689C193.913 22.817 193.785 22.945 193.529 23.073C193.337 23.201 193.145 23.329 192.889 23.457C192.953 23.393 192.953 23.329 192.953 23.265C193.593 22.753 194.105 22.305 194.681 21.729C195.065 21.409 195.321 21.025 195.577 20.577C195.769 20.257 195.449 19.681 195.193 19.809C194.617 20.065 194.041 20.065 193.529 20.449C192.953 20.897 192.377 21.217 191.929 21.793C191.417 22.497 190.969 23.265 190.585 24.033ZM196.281 20.385C195.833 20.897 195.577 21.409 195.769 22.113C195.961 21.729 196.281 21.281 196.473 20.897L196.281 20.385ZM205.113 23.521C204.729 23.777 204.345 23.969 204.025 24.225V24.289C204.025 24.225 204.089 24.225 204.089 24.225C204.089 24.289 204.153 24.353 204.153 24.353C204.025 24.481 203.769 24.673 203.449 24.865L203.513 25.121C203.257 25.249 203.129 25.377 203.321 25.569C203.065 25.761 202.681 25.761 202.617 26.209C202.617 26.209 202.617 26.273 202.553 26.273C202.105 26.273 201.849 26.721 201.529 26.977C201.337 27.105 201.081 27.297 200.761 27.425C200.633 27.489 200.505 27.361 200.377 27.297C200.313 27.169 200.313 27.041 200.313 26.977C200.313 26.913 200.377 26.849 200.377 26.849C200.953 26.977 201.337 26.529 201.785 26.273L202.233 26.017C202.489 25.953 202.617 25.761 202.361 25.377C201.913 25.761 201.337 26.081 200.825 26.529C200.761 26.465 200.569 26.401 200.377 26.337C200.825 26.081 201.849 25.505 202.233 24.801C202.361 24.673 203.065 24.353 203.257 24.161L203.705 24.353C203.833 24.161 203.961 24.033 204.089 23.905C204.025 23.841 203.961 23.841 203.833 23.777L203.897 23.713C204.089 23.713 204.281 23.713 204.601 23.649C204.537 23.521 204.473 23.457 204.473 23.393L204.793 23.137L204.729 23.073L204.473 23.265H204.345L205.433 22.561L205.561 23.009C205.561 23.009 205.625 23.009 205.625 23.073C205.433 23.201 205.305 23.393 205.113 23.521ZM200.249 26.017C200.185 26.017 200.185 25.953 200.185 25.953C200.761 25.569 201.337 25.313 201.977 24.929C201.913 25.249 201.529 25.377 200.249 26.017ZM198.585 27.361C199.033 27.169 199.353 26.977 199.673 26.785C199.609 26.593 199.033 26.785 198.585 27.361ZM239.286 34.593C239.798 34.529 240.246 35.105 240.246 35.489L234.998 36.961C234.87 37.025 234.742 37.089 234.678 37.089C234.23 37.025 234.102 37.217 233.846 37.601C233.846 37.729 233.782 37.857 233.718 37.921C233.846 38.177 233.91 38.369 233.974 38.689C233.59 38.625 233.398 38.625 233.206 38.561C233.142 38.625 233.142 38.625 233.142 38.689C233.206 38.753 233.398 38.753 233.526 38.817C233.462 39.137 233.91 39.393 233.462 39.777C233.718 40.225 233.59 40.545 233.27 40.673C233.398 41.185 233.27 41.313 232.822 41.569C232.886 41.633 233.078 41.761 233.078 41.825C233.014 42.017 232.95 42.209 232.822 42.273H233.078C233.142 42.273 233.142 42.273 233.142 42.337C233.078 42.337 232.886 42.465 232.822 42.529C232.694 42.657 232.63 42.785 232.502 42.849C232.63 43.105 232.822 43.233 232.95 43.361C232.694 43.361 232.502 43.425 232.246 43.361V43.489L232.822 43.553C232.95 44.001 232.886 44.065 232.118 44.001C232.054 44.257 231.99 44.385 231.99 44.769C232.246 44.449 232.438 44.321 232.758 44.065C232.822 44.449 232.886 44.641 232.502 44.769C231.734 44.833 231.734 45.281 231.99 45.793L232.182 45.409C232.31 45.473 232.502 45.537 232.566 45.665C232.374 46.241 232.246 46.753 232.118 47.265C232.054 47.585 231.99 48.033 231.862 48.417C231.67 48.801 231.414 48.417 231.286 48.353C231.222 48.481 231.222 48.545 231.158 48.609C230.966 49.249 231.03 49.249 231.414 49.121C231.35 48.993 231.35 48.865 231.158 48.609C231.414 48.673 231.606 48.737 231.606 48.801C231.67 48.993 231.67 49.249 231.606 49.505C231.478 49.633 231.286 49.761 231.286 50.017C231.158 50.081 230.902 50.145 230.646 50.209C230.582 50.273 230.582 50.337 230.582 50.401C230.774 50.401 230.966 50.337 231.158 50.337C231.158 50.529 231.158 50.721 231.03 50.913L230.646 50.529C230.582 50.721 230.454 50.785 230.39 50.849L230.774 50.913C230.838 51.041 230.838 51.233 230.774 51.425C230.71 51.297 230.582 51.169 230.39 50.977C230.262 51.425 230.262 51.681 230.134 52.001C230.198 52.129 230.454 52.193 230.582 52.385C230.71 52.641 230.198 53.217 229.878 53.409C229.942 53.537 230.006 53.601 230.07 53.601L229.622 53.921C229.686 54.177 229.686 54.369 229.686 54.561L228.982 54.497V54.625C229.238 54.625 229.366 54.625 229.622 54.753C229.622 54.817 229.686 54.817 229.686 54.817C229.494 54.881 229.302 54.945 229.174 55.073C229.494 55.521 229.046 55.841 228.918 56.353C228.726 56.737 228.278 56.865 228.15 57.249C227.958 57.313 228.278 58.145 227.638 57.697C227.702 57.889 227.766 58.017 227.958 58.209C228.022 58.593 227.574 58.465 227.254 58.529C227.382 58.593 227.51 58.657 227.638 58.785C227.446 58.849 227.254 58.977 227.19 59.041C227.446 59.745 226.486 59.617 226.358 60.065L226.742 60.321C226.486 60.641 226.294 60.961 226.102 61.281C226.038 61.281 226.038 61.217 226.038 61.217C225.782 61.473 225.398 61.729 225.206 61.921C225.206 61.985 225.206 62.049 225.27 62.049H225.462C225.462 62.113 225.526 62.177 225.526 62.177C224.95 62.881 224.246 63.457 223.67 64.097C223.67 64.609 223.414 64.801 223.094 65.057C222.646 65.505 222.134 65.825 221.75 66.273C221.686 66.337 221.686 66.401 221.622 66.401C220.982 66.657 220.598 67.297 219.766 67.297C219.574 67.361 219.446 67.745 219.254 67.873C218.934 68.065 218.486 68.321 218.166 68.321C217.398 68.513 216.694 68.577 215.862 68.577C215.606 68.641 215.286 68.641 215.158 68.577C214.07 68.257 213.174 67.937 212.278 67.425C211.51 67.105 210.806 66.465 210.55 65.697C210.422 65.441 210.166 65.377 209.974 65.057C209.718 64.417 209.526 63.777 209.078 62.945C208.95 62.817 208.95 62.561 208.886 62.369C208.95 61.921 208.95 61.601 209.014 61.281C209.142 60.129 209.27 59.041 209.526 58.017C209.718 57.185 209.846 56.289 210.166 55.329C210.23 55.201 210.294 55.137 210.358 55.073C210.422 55.137 210.486 55.201 210.614 55.393C210.806 54.753 211.062 54.049 211.318 53.601L211.126 53.473C211.062 53.601 210.934 53.665 210.87 53.729C210.806 53.729 210.806 53.729 210.742 53.665C210.934 53.473 211.062 53.089 211.19 52.769C211.766 51.617 212.406 50.529 213.046 49.505C213.622 48.545 214.518 47.521 215.158 46.561C215.222 46.497 215.35 46.369 215.478 46.305L216.118 45.601C216.31 45.345 216.566 45.089 216.822 44.833C216.886 44.897 217.078 44.897 217.142 44.897L216.374 45.793C216.054 46.049 215.798 46.177 215.478 46.369C215.478 46.497 215.414 46.625 215.35 46.817C215.606 46.689 215.67 46.625 215.798 46.625C215.926 46.497 215.99 46.369 216.054 46.305C216.246 46.113 216.246 45.985 216.374 45.793C216.566 45.729 216.822 45.729 216.95 45.665C217.59 44.961 218.102 44.449 218.87 43.745C219.254 43.297 219.51 42.977 220.022 42.657C220.086 42.657 220.342 42.657 220.47 42.529C220.534 42.465 220.662 42.273 220.662 42.081C219.19 42.657 218.358 44.001 217.142 44.769C217.142 44.705 217.078 44.705 217.014 44.641C217.142 44.513 217.398 44.193 217.782 43.937C218.102 43.617 218.486 43.105 219.062 42.721C220.086 41.953 221.11 41.249 222.198 40.481C223.03 39.777 224.054 39.137 225.142 38.689L227.574 37.345C228.534 36.961 229.558 36.641 230.39 36.129L230.646 36.065C231.414 35.873 231.67 35.489 231.606 34.785C231.542 34.721 231.542 34.593 231.542 34.465C231.606 34.145 231.606 33.825 231.798 33.505C231.862 33.441 231.926 33.377 231.926 33.313C232.502 33.953 232.054 34.785 232.182 35.553C232.31 35.425 232.374 35.297 232.374 35.169L232.758 32.609C232.758 32.417 232.822 32.225 232.822 32.097C232.886 31.713 233.014 31.265 233.142 30.753C233.27 30.113 233.27 29.537 233.462 28.769C233.462 28.641 233.526 28.449 233.59 28.193C233.654 27.617 233.718 26.849 233.846 26.273V26.081C233.782 26.209 233.718 26.273 233.654 26.337C233.27 28.449 232.886 30.561 232.438 32.609C232.374 32.801 232.374 32.993 232.31 33.185C232.246 33.185 232.118 33.249 231.926 33.249V33.313C231.926 33.121 231.926 32.993 231.862 32.801C231.862 32.801 231.99 32.737 232.054 32.609C231.606 31.969 232.118 31.521 232.118 31.009H232.566V30.881H232.182C232.31 29.537 232.63 28.193 232.886 26.977C232.822 27.041 232.822 27.105 232.758 27.105C232.694 27.105 232.63 27.169 232.63 27.233C232.502 27.105 232.31 26.977 232.182 26.977C232.054 27.041 231.99 27.297 231.862 27.361C231.67 27.617 231.606 27.745 231.35 27.873C231.35 27.873 230.646 28.833 229.622 29.601V29.665C228.598 29.985 228.15 30.369 227.382 30.625C227.062 30.689 226.742 30.817 226.23 30.817C225.782 30.945 225.27 30.881 224.822 30.817L223.222 30.241C223.03 30.113 222.902 29.857 222.774 29.665C222.774 29.473 222.582 29.217 222.39 29.153C221.878 28.769 221.878 28.129 221.814 27.489C221.43 26.465 221.814 25.441 222.134 24.481C222.326 24.097 222.582 23.649 222.71 23.329C222.838 23.009 223.03 22.561 223.35 22.049C223.414 22.049 223.414 22.049 223.414 21.985C224.118 21.409 224.31 20.257 225.078 19.681C225.462 19.425 226.486 18.465 226.87 18.337C227.574 18.081 228.342 17.889 229.046 18.145C229.366 18.273 229.878 18.145 230.134 18.209C230.518 18.529 231.35 18.657 231.734 18.913C232.374 19.425 232.758 19.745 233.27 20.385L233.718 21.217C234.102 20.897 234.55 20.193 234.87 20.001L235.638 20.193C236.278 20.257 236.534 20.321 237.174 20.513L236.982 21.729C236.726 22.177 236.662 22.753 236.47 23.201C236.342 23.585 236.278 23.905 236.214 24.225C235.702 26.273 235.51 28.193 235.062 30.177C234.87 31.137 235.062 32.033 234.678 32.929C234.55 33.505 234.678 34.081 234.486 34.593C234.486 34.593 234.55 34.913 234.614 34.913C235.446 34.849 236.214 34.657 237.046 34.593C237.814 34.529 238.582 34.529 239.286 34.593ZM231.67 24.161C231.67 24.097 231.734 24.033 231.798 24.033C232.246 24.097 232.31 23.713 232.438 23.521C232.182 23.393 232.054 23.137 231.862 22.945C231.606 22.689 231.478 22.369 231.606 21.921C231.67 21.473 231.35 20.385 231.158 20.257C231.03 20.065 230.774 19.937 230.582 19.937C229.622 20.065 228.662 20.257 227.958 21.025C227.446 21.473 226.934 21.793 226.486 22.241C226.422 22.369 226.166 22.561 226.038 22.753L226.102 23.073C225.782 23.521 225.334 23.905 225.014 24.417C224.63 25.185 224.374 25.953 224.054 26.657C223.862 27.297 223.67 27.745 223.926 28.321C224.118 28.321 224.374 28.257 224.63 28.257C225.59 28.193 226.358 27.809 227.318 27.489C227.638 27.425 228.022 26.785 228.726 27.169C228.534 26.657 228.726 26.465 229.11 26.465H229.174C229.43 26.017 229.814 25.697 230.262 25.505C230.39 25.505 230.518 25.313 230.646 25.185C230.902 24.801 231.606 24.737 231.67 24.161ZM233.206 25.569C233.206 25.377 233.27 25.249 233.27 25.057C232.822 25.185 232.694 25.441 232.63 25.761H232.054V25.825V25.889L231.99 25.825V25.889C231.926 25.889 231.926 25.889 231.926 25.953C231.862 25.953 231.862 26.017 231.862 26.081C231.862 26.273 231.798 26.465 231.798 26.593C232.182 26.465 232.31 26.145 232.502 26.145C232.822 26.145 232.95 25.953 233.078 25.697C233.078 25.633 233.142 25.633 233.206 25.569ZM212.406 51.169C212.278 51.233 212.278 51.425 212.086 51.553L212.278 51.681C212.406 51.489 212.662 51.489 212.79 51.617C212.534 51.809 212.342 52.065 212.15 52.321C212.726 52.385 212.982 52.129 212.79 51.617C212.918 51.553 213.11 51.553 213.174 51.425C213.43 51.105 213.494 50.785 213.686 50.593C213.942 50.145 214.262 49.889 214.582 49.505C214.582 49.505 214.582 49.377 214.518 49.313C214.646 49.185 214.902 49.121 215.094 49.121L215.03 48.993C214.966 48.993 214.902 48.993 214.646 48.929C214.966 48.737 215.222 48.481 215.478 48.161C215.67 47.969 215.798 47.777 215.798 47.649C215.99 47.329 216.182 47.073 216.822 47.073C216.63 47.265 216.502 47.457 216.438 47.585C216.118 47.713 215.99 47.969 215.734 48.097L215.862 48.289C216.182 47.969 216.438 47.713 216.822 47.521C217.398 46.881 217.974 46.369 218.678 45.729L218.934 45.217C219.318 45.153 220.278 44.257 220.342 43.809H220.918V43.681C220.79 43.617 220.598 43.617 220.406 43.489L222.646 41.889C222.71 41.953 222.71 42.017 222.71 42.017C222.774 41.889 222.902 41.761 223.03 41.697C223.158 41.633 223.35 41.441 223.542 41.441C224.246 41.249 224.822 40.801 225.718 40.289C225.974 40.161 226.038 39.969 226.294 39.841C227.126 39.521 227.702 39.137 228.47 38.945C229.366 38.561 230.006 37.793 231.03 37.665C231.222 37.601 231.414 37.217 231.158 37.025V36.961C231.222 36.769 231.414 36.577 231.542 36.321C231.35 36.321 231.094 36.257 231.03 36.385C230.71 36.705 230.39 36.705 229.942 36.769C229.878 36.705 229.75 36.961 229.622 37.025L229.494 37.153C229.302 37.217 229.11 37.217 228.918 37.217C228.47 37.281 228.15 37.281 228.278 37.729C228.022 37.793 227.83 37.921 227.638 37.921C227.19 37.921 226.806 38.433 226.294 38.433V38.625C226.55 38.625 226.806 38.753 226.998 38.689C227.574 38.433 228.15 38.113 228.662 37.793C228.726 37.793 228.598 37.665 228.598 37.473L228.918 37.857C229.558 37.217 230.326 36.961 231.158 37.025C230.582 37.217 230.006 37.473 229.494 37.793C228.982 38.113 228.342 38.433 227.638 38.689C227.382 38.817 227.19 38.945 226.87 38.945C226.55 39.073 226.294 39.073 226.102 39.201C225.974 39.393 225.654 39.585 225.334 39.777C225.142 39.841 225.014 40.033 224.758 40.225C224.246 40.481 223.478 40.801 222.902 41.121C222.966 41.185 223.03 41.249 223.158 41.313C222.518 41.569 221.942 41.761 221.686 42.401C221.494 42.401 221.174 42.529 221.11 42.593V42.785C220.406 42.721 220.086 42.913 220.214 43.361C219.958 43.425 219.446 43.425 219.446 43.553C219.382 43.937 218.87 44.129 218.55 44.385C218.294 44.641 218.166 44.897 217.974 45.153C218.358 44.897 218.486 44.897 218.678 45.281C218.358 45.409 218.166 45.601 217.91 45.729C217.782 45.345 217.654 45.345 217.462 45.537C217.334 45.601 217.334 45.729 217.27 45.857C217.27 45.921 217.334 45.921 217.334 45.921C217.59 45.857 217.718 45.729 217.782 45.665C217.782 45.793 217.846 45.857 217.782 45.921C217.654 46.113 217.398 46.305 217.142 46.433C217.142 46.561 217.206 46.625 217.27 46.753C216.95 46.817 216.758 46.753 216.438 46.817C216.694 46.497 216.886 46.369 217.078 46.113C216.886 46.177 216.694 46.177 216.438 46.177C216.502 46.241 216.566 46.241 216.566 46.305C216.182 46.689 215.926 47.009 215.67 47.457C215.286 47.649 215.03 47.777 214.838 47.457C214.326 48.033 213.942 48.609 213.558 49.185H213.814C213.942 49.185 214.006 49.121 214.134 49.121C214.07 49.185 214.07 49.313 214.006 49.441C213.878 49.633 213.686 49.889 213.43 50.081C213.494 49.889 213.494 49.697 213.366 49.505C213.238 49.697 213.11 49.825 212.854 50.081H213.43C213.494 50.081 213.558 50.145 213.622 50.209C213.366 50.593 213.174 51.041 212.406 51.169ZM231.798 39.073C231.798 38.753 231.99 38.497 231.99 38.241C231.926 38.241 231.862 38.241 231.862 38.177C231.798 38.369 231.734 38.497 231.67 38.561C231.542 38.497 231.478 38.497 231.478 38.497C231.35 39.137 231.222 39.841 231.158 40.481C231.094 40.673 231.094 41.185 230.582 41.121C230.838 40.289 230.902 39.329 231.158 38.497C230.646 38.625 230.262 38.945 229.814 39.073C228.214 39.713 226.742 40.289 225.334 41.313C224.502 41.889 223.414 42.465 222.454 43.169C221.75 43.681 220.918 44.065 220.15 44.705C219.894 45.089 219.382 45.409 219.126 45.729C218.742 46.049 218.422 46.177 218.166 46.433C217.782 46.817 217.526 47.137 217.142 47.649C216.694 47.969 216.246 48.481 215.862 48.865C215.734 49.121 215.542 49.569 215.03 49.377C215.03 49.377 214.838 49.505 214.774 49.633L214.39 50.081C215.094 50.593 214.326 50.785 214.39 51.169C213.814 51.105 213.622 51.169 213.686 51.617C213.814 51.553 213.878 51.489 213.942 51.425C213.622 52.193 213.238 53.025 212.918 53.729H212.79C212.918 53.537 212.982 53.345 213.046 53.153C212.982 53.153 212.918 53.089 212.854 53.089C212.79 53.281 212.662 53.473 212.47 53.665C212.406 53.921 212.342 54.305 212.214 54.689C212.022 54.945 211.894 55.201 211.83 55.585C211.638 56.097 211.574 56.737 211.446 57.185C211.254 58.081 210.934 58.913 210.87 59.809C210.806 61.025 210.934 62.113 210.998 63.265C211.126 64.545 211.83 65.377 212.854 65.953C213.174 66.081 213.622 66.209 213.878 66.273C214.262 66.273 214.646 66.145 214.966 66.145V66.337C214.39 66.273 213.814 66.337 213.046 66.401C213.174 66.465 213.238 66.529 213.302 66.529C214.198 66.849 215.158 66.785 215.926 66.465C216.374 66.337 216.886 66.017 217.27 65.889C218.358 65.569 219.126 64.865 220.022 64.161C220.854 63.521 221.558 62.625 222.262 61.857C223.286 60.577 223.926 59.425 224.822 58.145C225.718 56.865 226.23 55.521 226.934 54.177C227.446 53.153 227.766 52.257 228.086 51.233C228.598 49.697 229.174 48.289 229.494 46.753C229.814 45.601 230.006 44.385 230.262 43.233C230.39 42.529 230.646 41.889 230.582 41.121L231.094 41.761C231.03 41.825 230.902 41.889 230.902 41.953C230.774 42.273 230.71 42.657 230.582 42.977L230.262 45.537C230.262 45.665 230.134 45.857 229.942 46.049C229.942 46.369 229.814 46.817 229.75 47.073C229.494 47.969 229.302 48.929 228.982 49.825C228.726 50.785 228.47 51.617 228.15 52.577C228.086 52.897 227.894 53.089 227.638 53.409C227.766 53.729 227.574 54.305 227.254 54.561C227.19 54.625 227.062 54.625 227.062 54.689C227.254 55.073 226.934 55.329 226.678 55.457C226.486 55.585 226.358 55.777 226.102 55.969H226.678C226.358 56.545 226.23 57.441 225.654 57.697H225.782C225.526 58.081 225.59 58.593 225.014 58.593C224.95 58.593 224.95 58.721 224.822 58.913C225.078 58.849 225.142 58.785 225.334 58.657C224.886 59.169 224.694 59.553 224.502 59.937C224.502 60.001 224.374 60.065 224.246 60.129C224.118 60.193 223.99 60.129 223.926 60.193V60.321L224.246 60.385C223.99 60.577 223.798 60.897 223.734 61.217L223.094 62.049C223.03 62.049 222.966 61.985 222.902 61.985L223.926 60.577C223.478 60.705 222.198 62.561 222.006 62.817C222.262 62.625 222.582 62.433 222.774 62.113L222.902 62.241C222.582 62.561 222.518 63.201 221.814 63.009C221.75 63.009 221.622 63.073 221.558 63.137C220.726 63.841 220.022 64.801 218.998 65.505L217.846 66.273C217.654 66.401 217.59 66.465 217.462 66.465C217.59 66.529 217.718 66.529 217.846 66.593C217.718 66.849 217.526 67.105 217.398 67.233C217.398 67.297 217.462 67.425 217.526 67.425C217.91 67.233 218.23 66.977 218.55 66.785C219.19 66.401 219.894 65.825 220.79 65.825C220.598 65.761 220.47 65.633 220.278 65.569C220.534 65.505 220.726 65.505 220.918 65.505C220.918 65.505 220.918 65.377 220.982 65.377C221.302 65.057 221.814 64.801 222.134 64.417C222.326 64.097 222.838 63.713 222.838 63.585C222.582 63.137 223.094 63.393 223.158 63.265C223.222 62.945 223.606 62.689 223.606 62.561C223.67 62.113 223.862 62.049 223.99 61.793C224.31 61.409 224.438 60.961 224.886 60.641C225.398 60.193 225.27 59.425 225.91 58.977C225.974 58.977 225.91 58.913 225.974 58.849C226.166 58.401 226.294 57.825 226.678 57.377C226.998 57.185 227.126 56.801 227.318 56.481C227.446 55.969 227.446 55.585 227.702 55.201L228.278 54.113C228.47 53.409 228.726 52.769 228.854 52.001C228.982 51.617 229.174 51.361 229.302 50.977C229.494 50.721 229.43 50.465 229.622 50.081C229.686 49.889 229.75 49.569 229.75 49.313C229.814 48.865 229.814 48.481 230.006 48.097C230.07 47.969 230.006 47.841 230.006 47.777C230.134 47.521 230.198 47.329 230.39 47.009C230.774 46.945 230.07 46.113 230.838 45.921L230.454 45.857C230.518 45.601 230.646 45.345 230.71 45.217C230.71 45.089 230.582 44.769 230.774 44.641C231.158 43.745 231.094 43.041 231.35 42.145C231.35 41.953 231.286 41.825 231.094 41.761C231.158 41.761 231.286 41.697 231.414 41.697V41.121C231.35 41.121 231.35 41.121 231.35 41.057C231.286 41.057 231.286 40.993 231.222 40.993C231.286 40.929 231.35 40.865 231.414 40.865C231.606 40.673 231.926 39.265 231.734 39.201L231.414 39.393C231.414 39.393 231.35 39.393 231.35 39.329C231.478 39.201 231.542 39.073 231.606 38.945C231.67 38.945 231.734 39.009 231.798 39.073ZM226.166 38.945C225.846 38.881 225.334 38.753 224.886 39.137C225.142 39.137 225.398 39.329 225.59 39.265C225.846 39.201 226.038 39.073 226.166 38.945ZM223.222 40.225C222.326 40.737 221.622 41.249 220.854 41.697C221.238 41.889 221.366 41.825 221.686 41.761C221.75 41.633 222.006 41.505 222.07 41.313C222.518 41.057 222.838 40.737 223.414 40.481C223.542 40.417 223.606 40.161 223.734 40.161C224.31 40.033 224.694 39.841 225.142 39.329H224.566C224.63 39.457 224.566 39.585 224.63 39.713C224.054 39.329 223.734 39.713 223.478 40.161C223.414 40.161 223.286 40.161 223.222 40.225ZM232.118 45.921C231.606 46.049 231.542 46.177 231.862 46.625C231.926 46.433 231.99 46.177 232.118 45.921ZM231.478 48.225C231.542 47.969 231.67 47.713 231.734 47.521C231.734 47.457 231.734 47.329 231.67 47.265C231.606 47.265 231.478 47.201 231.478 47.201C231.478 47.329 231.414 47.457 231.35 47.585C231.286 47.777 231.286 47.905 231.222 48.161C231.35 48.225 231.414 48.225 231.478 48.225ZM211.638 53.665C211.51 53.857 211.382 54.113 211.254 54.433C211.382 54.433 211.51 54.497 211.702 54.497V53.601L211.638 53.665ZM210.614 53.793H210.87C210.87 54.241 210.614 54.689 210.358 55.009C210.55 54.625 210.55 54.177 210.614 53.793ZM220.918 64.225L221.814 63.329L222.07 63.521C221.75 63.713 221.43 64.097 220.982 64.481C221.046 64.353 220.918 64.225 220.918 64.225ZM219.318 65.825C219.51 65.249 220.214 64.993 220.726 64.545C220.79 64.609 220.79 64.609 220.854 64.609C220.278 65.057 219.894 65.569 219.446 65.953C219.382 65.889 219.318 65.889 219.318 65.825ZM215.734 67.233C215.99 67.361 216.694 67.169 216.886 66.785C216.438 66.849 215.99 66.913 215.67 67.041C215.606 67.105 215.734 67.169 215.734 67.233ZM251.475 33.953C251.347 33.953 251.283 33.953 251.219 33.889C250.259 33.377 249.299 32.929 248.787 32.033C248.659 31.841 248.595 31.713 248.531 31.521C248.147 30.625 247.955 29.665 248.147 28.641C248.339 27.937 248.723 26.401 248.723 26.273C248.403 26.337 248.083 26.337 247.827 26.337H245.523C245.203 26.337 244.947 26.273 244.691 26.337C244.563 26.337 244.435 26.529 244.371 26.657C244.307 26.977 244.179 27.297 244.051 27.681L243.859 27.873C243.795 27.937 243.667 28.001 243.667 28.065C243.475 28.513 243.347 28.961 243.219 29.409L242.835 30.881C242.771 31.201 242.707 31.521 242.707 31.777V31.969C242.835 32.097 242.899 32.289 242.707 32.481C242.579 32.673 242.323 32.673 242.003 32.545C240.979 31.969 240.787 30.945 240.851 29.921C240.851 29.089 241.299 28.193 241.491 27.297C241.619 26.977 241.555 26.721 241.747 26.337L241.363 26.209C241.171 26.145 240.915 26.017 241.299 24.993C241.299 24.737 241.363 24.609 241.683 24.609H242.259L243.219 21.473C243.347 21.025 243.667 20.577 243.539 20.065C243.539 20.001 243.667 19.873 243.731 19.809C243.859 19.553 244.051 19.297 244.435 19.169C244.819 19.041 245.011 19.361 245.267 19.553C245.523 19.745 245.523 20.193 245.587 20.577C245.651 20.961 245.779 21.409 245.715 21.793C245.651 22.305 245.523 22.881 245.395 23.457C245.267 23.777 245.139 24.161 245.011 24.609H247.443C247.955 24.609 248.467 24.545 248.979 24.545C249.299 24.545 249.491 24.481 249.555 24.289C250.003 23.393 250.451 22.497 250.963 21.665C251.155 21.217 251.539 20.769 251.923 20.513C252.307 20.129 253.139 20.065 253.459 20.833C253.459 20.897 253.459 21.025 253.523 21.089C253.971 21.409 253.779 21.793 253.651 22.049C253.395 22.561 253.075 23.137 252.883 23.649C252.755 23.777 252.691 24.289 252.563 24.545C253.075 24.481 253.523 24.801 253.779 25.441C253.779 25.825 253.459 25.889 253.203 26.017C252.883 26.145 252.243 26.017 251.859 26.081C251.795 26.081 251.731 26.145 251.667 26.273C251.603 26.593 251.539 26.529 251.475 26.849C251.347 27.361 251.347 27.553 251.155 28.065C250.835 29.025 250.643 29.985 250.707 30.945C250.771 31.393 250.771 31.713 250.771 32.033C250.835 32.353 251.091 32.481 251.411 32.289C252.243 31.841 253.139 31.457 253.907 30.881C254.675 30.369 255.251 29.921 255.827 29.281C256.403 28.769 256.851 28.193 257.427 27.617C257.619 27.297 257.939 26.977 258.131 26.721C258.387 26.465 258.579 26.145 258.835 25.761C259.155 25.377 259.475 24.993 259.859 24.609C259.859 24.673 259.923 24.673 259.923 24.737C259.667 25.121 259.411 25.505 259.219 25.889C259.027 26.209 258.899 26.529 258.771 26.849C258.707 26.849 258.195 27.745 258.259 27.745C257.939 28.065 257.619 28.449 257.299 28.833C257.427 28.769 257.619 28.769 257.683 28.641C258.195 28.129 258.643 27.425 259.155 26.913C259.155 26.977 259.091 27.041 259.091 27.169C258.771 27.745 258.451 28.385 258.003 28.897L257.299 29.601C257.235 29.665 257.299 29.729 257.235 29.921C256.787 30.113 255.891 30.753 255.763 31.009C256.019 30.945 256.403 30.881 256.723 30.881V31.009C256.595 31.009 256.467 31.073 256.275 31.073C256.403 31.265 256.467 31.137 256.787 31.201C256.723 31.329 256.019 31.585 255.955 31.649L255.379 32.097L254.803 32.225L254.227 32.673C254.355 32.737 254.419 32.801 254.547 32.929C254.099 33.377 253.523 33.697 252.947 33.825C252.435 33.889 251.923 34.145 251.475 33.953ZM248.723 28.833C249.107 28.833 249.107 28.833 248.979 28.577C249.107 28.513 249.171 28.513 249.299 28.513C249.299 28.449 249.363 28.449 249.363 28.385L248.979 28.193C249.107 28.129 249.235 28.065 249.299 28.001C249.363 27.681 249.555 27.297 249.427 26.977C249.299 26.721 249.619 26.913 249.619 26.721L249.491 26.401C248.851 27.169 248.979 28.065 248.723 28.833ZM271.919 32.545C271.791 32.545 271.727 32.481 271.599 32.481C271.471 32.481 270.319 32.161 269.935 31.777C269.615 31.393 269.231 31.073 268.911 30.817C268.591 30.561 268.655 30.241 268.399 29.985C268.143 29.793 268.207 29.409 268.079 29.089L268.463 28.833C268.271 28.833 268.143 28.769 268.015 28.769C268.143 28.641 268.399 28.513 268.335 28.449C268.335 28.321 268.271 28.193 268.207 28.129C268.271 27.233 268.463 26.401 268.847 25.441C268.463 25.505 268.271 25.889 267.887 26.337C266.671 27.745 265.839 28.705 263.407 30.433C262.959 30.753 262.511 31.009 262.063 31.201C260.911 31.777 260.143 31.969 259.695 31.841L258.991 30.945C258.799 30.369 259.631 30.177 260.527 29.729C262.831 28.577 265.327 26.465 266.735 24.737C265.903 24.737 265.135 24.673 264.367 24.417C263.087 23.969 263.087 22.689 263.535 21.729C264.047 20.577 264.879 19.489 265.967 18.721C267.567 17.569 270.831 16.993 272.175 18.209C272.431 18.401 272.495 18.785 272.495 18.977C272.559 19.425 272.239 19.873 272.111 20.257L271.471 21.217C271.983 21.217 272.303 21.281 272.623 21.345C273.135 21.473 273.327 21.793 273.071 22.305L272.431 23.329C271.983 23.841 271.727 24.417 271.599 24.929C271.343 25.505 271.087 26.145 270.895 26.721C270.575 27.873 270.511 29.025 270.831 30.113C271.023 30.753 271.535 31.073 272.175 31.137C273.711 31.265 275.119 29.985 275.119 29.985C275.247 29.857 275.311 29.857 275.375 29.921C275.119 30.113 275.183 30.177 274.991 30.305C275.055 30.369 275.055 30.369 275.375 30.369C275.183 30.433 275.119 30.497 274.991 30.497C274.991 30.561 275.055 30.561 275.055 30.561C275.695 30.433 276.207 30.113 276.911 29.921C276.847 29.985 276.911 29.985 276.847 30.049C276.207 30.689 276.079 30.817 275.759 30.945L275.311 31.201L274.799 31.649L274.031 32.033C273.391 32.353 273.199 32.417 272.559 32.481C272.495 32.545 272.431 32.545 272.367 32.545H271.919ZM265.903 23.521C266.927 24.033 268.207 23.521 268.975 22.497C269.551 21.793 270.767 19.617 270.255 18.849C269.999 18.465 268.975 18.593 268.463 18.913C266.991 19.809 266.543 20.385 265.775 21.857C265.519 22.305 265.391 23.265 265.903 23.521ZM269.871 21.729C270.831 21.217 270.895 20.321 271.343 19.553C271.407 19.361 271.791 18.913 271.215 18.913L269.871 21.729ZM264.047 22.753C264.111 22.369 264.495 21.985 264.623 21.601C264.047 21.793 264.047 21.793 264.047 22.753ZM268.399 25.185C268.527 24.993 268.655 24.929 268.719 24.801C268.399 24.929 268.399 24.929 268.399 25.185ZM269.423 28.385C269.743 27.873 269.423 27.297 269.615 26.721C269.807 26.209 269.999 25.569 270.063 24.993L269.871 25.121C269.551 25.441 269.679 25.889 269.295 26.081C269.103 26.145 269.231 26.337 269.231 26.401C269.167 26.529 269.231 26.593 269.231 26.657C269.103 27.169 268.975 27.681 268.847 28.065C269.103 28.193 269.231 28.321 269.423 28.385ZM265.263 27.169C266.159 26.657 267.119 25.825 267.375 25.313C266.671 25.889 265.967 26.529 265.263 27.169ZM275.311 30.305L275.247 30.177C275.247 30.113 275.311 30.049 275.311 30.049C275.759 30.113 275.887 29.729 276.271 29.601H276.719C276.911 29.601 277.039 29.537 276.719 29.153L275.631 29.857C275.567 29.857 275.759 29.729 275.567 29.665L277.871 27.937C278.575 27.745 278.831 27.681 279.151 27.873C279.023 27.873 278.063 28.769 277.807 28.833L277.871 29.025C277.679 29.025 277.551 29.089 277.743 29.153C277.551 29.473 277.103 29.473 277.039 29.665C277.039 29.665 277.039 29.729 276.975 29.729C276.591 29.729 276.271 29.793 276.079 29.921C275.887 30.049 275.887 30.177 275.631 30.241C275.503 30.305 275.439 30.241 275.311 30.305ZM274.607 30.689C274.671 30.689 274.799 30.625 274.863 30.561C274.927 30.497 274.863 30.497 274.863 30.433L274.607 30.689Z" fill="#272727"></path></svg> 