<?xml version="1.0" encoding="UTF-8"?> <svg xmlns="http://www.w3.org/2000/svg" width="276" height="24" viewBox="0 0 276 24" fill="none"><path d="M0.529293 22.082V21.8242H0.987619C1.69421 21.8242 2.15253 21.6905 2.3626 21.4232C2.59176 21.1558 2.72544 20.6116 2.76363 19.7904L3.53706 3.26202C3.55615 2.93737 3.5657 2.73685 3.5657 2.66046C3.5657 2.31672 3.47022 2.07801 3.27925 1.94433C3.10738 1.81065 2.72544 1.74381 2.13343 1.74381H0.987619V1.486H5.19849L12.6176 17.8998C12.9041 18.53 13.0473 18.9406 13.0473 19.1316H13.1906C13.1906 18.8833 13.3242 18.4727 13.5916 17.8998L21.0107 1.486H25.3075V1.74381H24.3336C23.6843 1.74381 23.2546 1.83929 23.0446 2.03026C22.8345 2.22123 22.7295 2.54588 22.7295 3.00421C22.7295 3.08059 22.739 3.3384 22.7581 3.77763L23.417 19.7904C23.4551 20.6307 23.5793 21.1845 23.7893 21.4518C23.9994 21.7001 24.4864 21.8242 25.2503 21.8242H25.8805V22.082H18.404V21.8242H19.4352C20.1609 21.8242 20.6384 21.7383 20.8675 21.5664C21.0967 21.3945 21.2113 21.1176 21.2113 20.7357C21.2113 20.6784 21.2017 20.6211 21.1826 20.5638C21.1826 20.5065 21.1826 20.4492 21.1826 20.392C21.1826 20.3156 21.1826 20.2583 21.1826 20.2201L20.6097 5.12396C20.5906 4.78022 20.5811 4.36009 20.5811 3.86357H20.4092C20.4092 3.93996 20.2564 4.33144 19.9509 5.03803L12.2453 22.1966L12.1593 22.3971H12.102L12.0161 22.1966L4.42507 5.35313C4.215 4.8948 4.10997 4.49377 4.10997 4.15002H3.99538C3.99538 4.45557 3.98584 4.78022 3.96674 5.12396L3.2506 20.1628C3.23151 20.5638 3.22196 20.7834 3.22196 20.8216C3.22196 21.1845 3.33654 21.4423 3.5657 21.5951C3.79487 21.7478 4.28184 21.8242 5.02662 21.8242H6.05785V22.082H0.529293ZM50.0957 22.082V21.8242H51.0982C51.7857 21.8242 52.2059 21.7478 52.3586 21.5951C52.5305 21.4423 52.6164 21.0222 52.6164 20.3347V3.23337C52.6164 2.54588 52.5305 2.12575 52.3586 1.97297C52.2059 1.8202 51.7857 1.74381 51.0982 1.74381H50.0957V1.486H57.4002V1.8011H56.3976C55.7101 1.8011 55.2805 1.87749 55.1086 2.03026C54.9367 2.18304 54.8508 2.60317 54.8508 3.29066V20.3347C54.8508 21.0222 54.9367 21.4423 55.1086 21.5951C55.2805 21.7478 55.7101 21.8242 56.3976 21.8242H57.4002V22.082H50.0957ZM35.5152 22.082V21.7956H36.5177C37.2052 21.7956 37.6254 21.7192 37.7781 21.5664C37.95 21.3945 38.0359 20.9649 38.0359 20.2774V3.23337C38.0359 2.54588 37.95 2.12575 37.7781 1.97297C37.6254 1.8202 37.2052 1.74381 36.5177 1.74381H35.5152V1.486H42.8197V1.74381H41.8171C41.1296 1.74381 40.7 1.82975 40.5281 2.00162C40.3562 2.17349 40.2703 2.60317 40.2703 3.29066V11.4832H42.4473C44.6435 11.4832 46.4099 11.9702 47.7467 12.9442C49.0835 13.9181 49.7519 15.1976 49.7519 16.7826C49.7519 18.3677 49.0835 19.6472 47.7467 20.6211C46.4099 21.5951 44.6435 22.082 42.4473 22.082H35.5152ZM40.2703 11.9702V20.0482C40.2703 20.6975 40.108 21.1845 39.7833 21.5091V21.5664H41.9031C43.6409 21.5664 44.9681 21.1558 45.8848 20.3347C46.8014 19.5135 47.2598 18.3295 47.2598 16.7826C47.2598 15.2167 46.8014 14.0231 45.8848 13.202C44.9681 12.3808 43.6409 11.9702 41.9031 11.9702H40.2703ZM92.1028 22.082V21.8242H93.1053C93.7928 21.8242 94.213 21.7287 94.3657 21.5378C94.5376 21.3468 94.6236 20.8503 94.6236 20.0482V9.96503H94.4517C94.0125 9.96503 93.6019 10.0128 93.2199 10.1083C92.8571 10.1846 92.5324 10.2897 92.246 10.4234C91.9595 10.557 91.6922 10.7576 91.4439 11.0249C91.1957 11.2732 90.9856 11.5023 90.8137 11.7124C90.6418 11.9225 90.4795 12.2185 90.3267 12.6004C90.174 12.9633 90.0498 13.2784 89.9544 13.5457C89.8589 13.794 89.7538 14.1473 89.6393 14.6056C89.5438 15.0639 89.4674 15.4268 89.4101 15.6941C89.3719 15.9424 89.3146 16.3148 89.2382 16.8113C89.1427 17.346 89.0663 17.7566 89.0091 18.043C88.9518 18.3295 88.8563 18.7019 88.7226 19.1602C88.608 19.6185 88.4934 19.9814 88.3789 20.2487C88.2643 20.497 88.1115 20.7834 87.9205 21.1081C87.7487 21.4136 87.5481 21.6524 87.319 21.8242C87.0898 21.977 86.8129 22.1107 86.4883 22.2253C86.1827 22.3398 85.839 22.3971 85.457 22.3971C84.6932 22.3971 83.9197 22.0438 83.1368 21.3373L82.7644 21.0508L82.9362 20.8503L83.3086 21.1367C83.786 21.5187 84.2348 21.7096 84.655 21.7096C84.9796 21.7096 85.2565 21.6333 85.4857 21.4805C85.7339 21.3277 85.9249 21.1558 86.0586 20.9649C86.2114 20.7548 86.3355 20.4492 86.431 20.0482C86.5456 19.6472 86.6219 19.3034 86.6601 19.017C86.7174 18.7114 86.7843 18.2722 86.8607 17.6993C86.937 17.0882 87.0039 16.5821 87.0612 16.1811C87.1185 15.78 87.2139 15.3026 87.3476 14.7488C87.4813 14.195 87.6245 13.7271 87.7773 13.3452C87.9492 12.9633 88.1688 12.5527 88.4361 12.1134C88.7226 11.6742 89.0377 11.3114 89.3814 11.0249C89.7443 10.7194 90.174 10.4425 90.6705 10.1942C91.1861 9.92684 91.759 9.72632 92.3892 9.59264L92.4179 9.47806L87.8632 3.72034C87.3094 3.03285 86.6506 2.53633 85.8867 2.23078C85.1228 1.90613 84.3781 1.74381 83.6524 1.74381H83.3086V1.486H89.6393V1.74381H89.3814C88.3884 1.74381 87.8919 2.00162 87.8919 2.51723C87.8919 2.82278 88.0638 3.18563 88.4075 3.60576L92.9335 9.30619C93.1435 9.57355 93.7069 9.70723 94.6236 9.70723V3.26202C94.6236 2.57453 94.5376 2.15439 94.3657 2.00162C94.213 1.82975 93.7928 1.74381 93.1053 1.74381H92.8189V1.486H98.6626V1.74381H98.4047C97.7173 1.74381 97.2876 1.82975 97.1157 2.00162C96.9438 2.15439 96.8579 2.57453 96.8579 3.26202V9.70723C97.3926 9.70723 97.7745 9.68813 98.0037 9.64994C98.252 9.59264 98.4429 9.47806 98.5766 9.30619L103.103 3.60576C103.446 3.18563 103.618 2.82278 103.618 2.51723C103.618 2.00162 103.122 1.74381 102.129 1.74381H101.871V1.486H108.201V1.74381H107.858C107.132 1.74381 106.387 1.90613 105.623 2.23078C104.86 2.53633 104.201 3.03285 103.647 3.72034L99.0922 9.47806L99.1209 9.59264C99.7511 9.74542 100.324 9.95549 100.84 10.2228C101.355 10.4711 101.785 10.748 102.129 11.0536C102.491 11.34 102.807 11.7124 103.074 12.1707C103.36 12.61 103.58 13.0205 103.733 13.4025C103.886 13.7653 104.029 14.2332 104.162 14.8061C104.296 15.3599 104.392 15.8278 104.449 16.2097C104.506 16.5726 104.573 17.0595 104.649 17.6706C104.726 18.2435 104.783 18.6828 104.821 18.9883C104.86 19.2748 104.936 19.6281 105.05 20.0482C105.165 20.4492 105.289 20.7548 105.423 20.9649C105.557 21.1558 105.748 21.3277 105.996 21.4805C106.244 21.6333 106.53 21.7096 106.855 21.7096C107.275 21.7096 107.724 21.5187 108.201 21.1367L108.574 20.8503L108.746 21.0508L108.373 21.3373C107.59 22.0438 106.817 22.3971 106.053 22.3971C105.671 22.3971 105.318 22.3398 104.993 22.2253C104.688 22.1107 104.42 21.977 104.191 21.8242C103.962 21.6524 103.752 21.4136 103.561 21.1081C103.37 20.7834 103.217 20.497 103.103 20.2487C102.988 19.9814 102.873 19.6185 102.759 19.1602C102.644 18.6828 102.558 18.3008 102.501 18.0144C102.444 17.7279 102.367 17.3173 102.272 16.7826C102.195 16.2861 102.129 15.9137 102.071 15.6655C102.033 15.3981 101.957 15.0353 101.842 14.5769C101.747 14.1186 101.651 13.7653 101.556 13.5171C101.46 13.2497 101.336 12.9346 101.183 12.5718C101.031 12.1898 100.868 11.8938 100.696 11.6838C100.525 11.4737 100.314 11.2445 100.066 10.9963C99.8179 10.748 99.5506 10.557 99.2641 10.4234C98.9777 10.2897 98.6435 10.1846 98.2615 10.1083C97.8987 10.0128 97.4976 9.96503 97.0584 9.96503H96.8579V20.0482C96.8579 20.8503 96.9438 21.3468 97.1157 21.5378C97.2876 21.7287 97.7173 21.8242 98.4047 21.8242H99.4073V22.082H92.1028ZM126.852 16.1811H126.594V14.6056C126.594 13.3643 126.318 12.5431 125.764 12.1421C125.229 11.741 124.475 11.5405 123.501 11.5405H122.355V20.0482C122.355 20.6211 122.145 21.1176 121.725 21.5378V21.5664H127.425C128.819 21.5664 129.851 21.2609 130.519 20.6498C131.206 20.0387 131.598 19.0552 131.693 17.6993L131.865 15.4077H132.324L131.837 23.1706L131.579 23.1419L131.665 21.8242H131.636C131.464 21.9961 131.111 22.082 130.576 22.082H117.6V21.8242H118.602C119.29 21.8242 119.71 21.7478 119.863 21.5951C120.035 21.4232 120.121 20.9935 120.121 20.306V3.26202C120.121 2.57453 120.035 2.15439 119.863 2.00162C119.71 1.82975 119.29 1.74381 118.602 1.74381H117.6V1.486H129.029C129.564 1.486 129.917 1.57194 130.089 1.74381H130.118L130.032 0.426121L130.29 0.397476L130.805 8.16037H130.29L130.175 6.1552C130.099 4.64654 129.698 3.57711 128.972 2.94691C128.265 2.31672 127.196 2.00162 125.764 2.00162H121.725V2.03026C122.145 2.4504 122.355 2.94692 122.355 3.51982V11.0249H123.501C124.494 11.0249 125.258 10.8339 125.792 10.452C126.327 10.051 126.594 9.2298 126.594 7.9885V6.98591H126.852V16.1811ZM142.285 22.082V21.8242H143.288C143.956 21.8242 144.376 21.7096 144.548 21.4805C144.72 21.2513 144.806 20.7739 144.806 20.0482V3.51982C144.806 2.79414 144.72 2.31672 144.548 2.08755C144.376 1.85839 143.956 1.74381 143.288 1.74381H142.285V1.486H149.332V1.74381H148.587C147.919 1.74381 147.489 1.85839 147.298 2.08755C147.126 2.31672 147.04 2.79414 147.04 3.51982V10.9963H154.889V3.51982C154.889 2.79414 154.794 2.31672 154.603 2.08755C154.431 1.85839 154.011 1.74381 153.342 1.74381H152.598V1.486H159.673V1.74381H158.642C157.973 1.74381 157.553 1.85839 157.381 2.08755C157.209 2.31672 157.124 2.79414 157.124 3.51982V20.0482C157.124 20.7739 157.209 21.2513 157.381 21.4805C157.553 21.7096 157.973 21.8242 158.642 21.8242H159.673V22.082H152.598V21.8242H153.371C154.039 21.8242 154.46 21.7096 154.631 21.4805C154.803 21.2513 154.889 20.7739 154.889 20.0482V11.5119H147.04V20.0482C147.04 20.7739 147.126 21.2513 147.298 21.4805C147.489 21.7096 147.919 21.8242 148.587 21.8242H149.332V22.082H142.285ZM169.544 22.082V21.8242H170.547C171.215 21.8242 171.635 21.7096 171.807 21.4805C171.979 21.2513 172.065 20.7739 172.065 20.0482V3.51982C172.065 2.79414 171.979 2.31672 171.807 2.08755C171.635 1.85839 171.215 1.74381 170.547 1.74381H169.544V1.486H176.591V1.74381H175.846C175.178 1.74381 174.748 1.85839 174.557 2.08755C174.385 2.31672 174.299 2.79414 174.299 3.51982V20.1341L182.435 1.486H186.932V1.74381H185.901C185.232 1.74381 184.812 1.85839 184.64 2.08755C184.468 2.31672 184.383 2.79414 184.383 3.51982V20.0482C184.383 20.7739 184.468 21.2513 184.64 21.4805C184.812 21.7096 185.232 21.8242 185.901 21.8242H186.932V22.082H179.857V21.8242H180.63C181.298 21.8242 181.718 21.7096 181.89 21.4805C182.062 21.2513 182.148 20.7739 182.148 20.0482V3.43389L174.013 22.082H169.544ZM196.545 22.082V21.8242H197.004C197.71 21.8242 198.169 21.6905 198.379 21.4232C198.608 21.1558 198.742 20.6116 198.78 19.7904L199.553 3.26202C199.572 2.93737 199.582 2.73685 199.582 2.66046C199.582 2.31672 199.486 2.07801 199.295 1.94433C199.123 1.81065 198.742 1.74381 198.15 1.74381H197.004V1.486H201.215L208.634 17.8998C208.92 18.53 209.063 18.9406 209.063 19.1316H209.207C209.207 18.8833 209.34 18.4727 209.608 17.8998L217.027 1.486H221.324V1.74381H220.35C219.7 1.74381 219.271 1.83929 219.061 2.03026C218.851 2.22123 218.746 2.54588 218.746 3.00421C218.746 3.08059 218.755 3.3384 218.774 3.77763L219.433 19.7904C219.471 20.6307 219.595 21.1845 219.805 21.4518C220.016 21.7001 220.502 21.8242 221.266 21.8242H221.897V22.082H214.42V21.8242H215.451C216.177 21.8242 216.654 21.7383 216.884 21.5664C217.113 21.3945 217.227 21.1176 217.227 20.7357C217.227 20.6784 217.218 20.6211 217.199 20.5638C217.199 20.5065 217.199 20.4492 217.199 20.392C217.199 20.3156 217.199 20.2583 217.199 20.2201L216.626 5.12396C216.607 4.78022 216.597 4.36009 216.597 3.86357H216.425C216.425 3.93996 216.273 4.33144 215.967 5.03803L208.261 22.1966L208.175 22.3971H208.118L208.032 22.1966L200.441 5.35313C200.231 4.8948 200.126 4.49377 200.126 4.15002H200.011C200.011 4.45557 200.002 4.78022 199.983 5.12396L199.267 20.1628C199.248 20.5638 199.238 20.7834 199.238 20.8216C199.238 21.1845 199.353 21.4423 199.582 21.5951C199.811 21.7478 200.298 21.8242 201.043 21.8242H202.074V22.082H196.545ZM231.794 11.7124C231.794 8.58051 232.711 6.05971 234.544 4.15002C236.378 2.22123 238.793 1.25684 241.792 1.25684C243.854 1.25684 245.602 1.86794 247.034 3.09014C247.167 3.22382 247.272 3.41479 247.349 3.66305L247.549 3.60576C247.511 3.41479 247.483 3.13788 247.463 2.77504L247.406 0.68393H247.664L247.922 8.96245L247.406 8.99109L247.32 6.32707C247.244 5.06667 246.623 3.9877 245.458 3.09014C244.312 2.19259 243.014 1.74381 241.563 1.74381C239.214 1.74381 237.418 2.55543 236.177 4.17867C234.955 5.80191 234.344 8.16038 234.344 11.2541C234.344 14.6724 234.984 17.2887 236.263 19.1029C237.562 20.898 239.433 21.7956 241.878 21.7956C243.272 21.7956 244.561 21.4423 245.745 20.7357C246.929 20.0291 247.759 19.0743 248.237 17.8712L248.724 18.0717C248.189 19.4467 247.292 20.497 246.031 21.2227C244.79 21.9484 243.386 22.3112 241.82 22.3112C238.822 22.3112 236.397 21.3373 234.544 19.3894C232.711 17.4415 231.794 14.8825 231.794 11.7124ZM268.384 22.082V21.8242H268.9C269.588 21.8242 270.017 21.7478 270.189 21.5951C270.361 21.4232 270.447 20.9935 270.447 20.306V13.0587H268.241C268.222 15.8469 267.659 18.0908 266.551 19.7904C265.463 21.4709 264.021 22.3112 262.226 22.3112C260.984 22.3112 259.934 21.9388 259.075 21.194V18.931C260.469 19.9241 261.739 20.4206 262.885 20.4206C264.431 20.4206 265.615 19.7809 266.437 18.5014C267.277 17.2219 267.706 15.4077 267.726 13.0587C265.358 13.0587 263.448 12.5622 261.997 11.5692C260.545 10.557 259.819 9.12477 259.819 7.27237C259.819 5.41997 260.545 3.99725 261.997 3.00421C263.448 1.99207 265.358 1.486 267.726 1.486H275.202V1.74381H274.199C273.512 1.74381 273.082 1.82975 272.91 2.00162C272.758 2.15439 272.681 2.57453 272.681 3.26202V20.306C272.681 20.9935 272.758 21.4232 272.91 21.5951C273.082 21.7478 273.512 21.8242 274.199 21.8242H275.202V22.082H268.384ZM270.447 12.5431V3.51982C270.447 2.85143 270.609 2.35491 270.934 2.03026V2.00162H267.955C264.193 2.00162 262.312 3.75853 262.312 7.27237C262.312 10.7862 264.193 12.5431 267.955 12.5431H270.447Z" fill="#353434"></path></svg> 