<?xml version="1.0" encoding="UTF-8"?> <svg xmlns="http://www.w3.org/2000/svg" width="78" height="24" viewBox="0 0 78 24" fill="none"><path d="M32.5547 1.28516C32.5547 1.35807 32.2422 1.51432 31.6172 1.75391C30.2839 2.26432 29.0651 3.04557 27.9609 4.09766C28.1589 4.69141 28.2578 5.27995 28.2578 5.86328C28.2578 6.6862 28.0651 7.73307 27.6797 9.00391C26.8984 11.6081 25.4766 14.1185 23.4141 16.5352C21.362 18.9518 19.112 20.7539 16.6641 21.9414C15.6953 22.4102 14.6172 22.7799 13.4297 23.0508C12.6901 23.207 12.112 23.2852 11.6953 23.2852C11.2057 23.2852 10.7318 23.1966 10.2734 23.0195C9.82552 22.832 9.3776 22.6393 8.92969 22.4414C7.4401 22.8581 5.98177 23.0664 4.55469 23.0664C2.98177 23.0664 1.89844 22.8424 1.30469 22.3945C0.908854 22.0924 0.710938 21.7904 0.710938 21.4883C0.710938 20.8737 1.11198 20.3945 1.91406 20.0508C2.52865 19.7904 3.1901 19.6602 3.89844 19.6602C5.40885 19.6602 7.52865 20.2852 10.2578 21.5352C13.6641 20.0143 17.2734 16.3581 21.0859 10.5664C21.8776 9.35807 22.7266 8.22786 23.6328 7.17578C24.6328 5.9987 25.9089 4.84766 27.4609 3.72266C27.0026 2.71224 26.3984 2.00391 25.6484 1.59766C24.9714 1.23307 24.0443 1.05078 22.8672 1.05078C21.138 1.05078 19.4453 1.66016 17.7891 2.87891C14.9141 5.00391 12.6641 7.30078 11.0391 9.76953C10.3203 10.8529 9.96094 11.8841 9.96094 12.8633C9.96094 13.4049 10.1641 13.9049 10.5703 14.3633C10.987 14.8216 11.4609 15.0508 11.9922 15.0508C13.0651 15.0508 14.4036 14.4362 16.0078 13.207C17.2995 12.2279 18.3984 11.1706 19.3047 10.0352C20.3151 8.77474 20.8203 7.60807 20.8203 6.53516C20.8203 5.68099 20.5286 5.25391 19.9453 5.25391C18.8932 5.25391 17.6901 6.04036 16.3359 7.61328C16.013 7.97786 15.362 8.64974 14.3828 9.62891C14.0182 9.99349 13.7786 10.4518 13.6641 11.0039C13.6432 11.1185 13.5911 11.6445 13.5078 12.582C13.4974 12.7174 13.4453 12.7799 13.3516 12.7695C13.3307 12.7799 13.3099 12.7904 13.2891 12.8008C13.112 12.8008 13.0234 12.3529 13.0234 11.457C13.0234 10.707 13.2214 9.99349 13.6172 9.31641C14.2526 8.25391 15.1276 7.25391 16.2422 6.31641C17.5443 5.21224 18.7005 4.66016 19.7109 4.66016C20.7734 4.66016 21.3047 5.22266 21.3047 6.34766C21.3047 7.02474 21.2109 7.58724 21.0234 8.03516C20.388 9.54557 19.138 11.1289 17.2734 12.7852C15.2526 14.5872 13.5182 15.4883 12.0703 15.4883C9.94531 15.4883 8.88281 14.332 8.88281 12.0195C8.88281 9.91536 9.97656 7.75391 12.1641 5.53516C14.0807 3.57682 16.1641 2.17578 18.4141 1.33203C19.737 0.832031 21.0495 0.582031 22.3516 0.582031C25.1536 0.582031 26.9557 1.56641 27.7578 3.53516C29.3307 2.42057 30.8516 1.60807 32.3203 1.09766C32.3307 1.09766 32.3516 1.09245 32.3828 1.08203C32.4974 1.08203 32.5547 1.14974 32.5547 1.28516ZM27.9141 5.87891C27.9141 5.37891 27.8464 4.87891 27.7109 4.37891C26.763 5.35807 25.8776 6.45703 25.0547 7.67578C23.9401 9.39453 22.2161 11.9362 19.8828 15.3008C18.862 16.6654 17.6536 17.8841 16.2578 18.957C15.4245 19.6029 14.2891 20.2695 12.8516 20.957C12.4141 21.1654 11.7578 21.4466 10.8828 21.8008C11.6745 22.1237 12.3359 22.2852 12.8672 22.2852C13.7839 22.2852 14.9245 22.0404 16.2891 21.5508C18.0391 20.9362 19.8047 19.7487 21.5859 17.9883C23.1172 16.4883 24.4557 14.7956 25.6016 12.9102C26.3307 11.7018 26.9141 10.3685 27.3516 8.91016C27.7266 7.60807 27.9141 6.59766 27.9141 5.87891ZM8.42969 22.1914C6.02344 21.1289 4.22135 20.5977 3.02344 20.5977C1.92969 20.5977 1.38281 20.8789 1.38281 21.4414C1.38281 21.7122 1.55469 21.9727 1.89844 22.2227C2.38802 22.5768 3.29427 22.7539 4.61719 22.7539C5.79427 22.7539 7.0651 22.5664 8.42969 22.1914ZM33.3672 17.1602C33.3672 18.5247 31.3828 19.6706 27.4141 20.5977C26.7266 21.306 26.3828 21.8685 26.3828 22.2852C26.3828 22.6602 26.5599 22.8477 26.9141 22.8477C27.6745 22.8477 28.6953 22.3841 29.9766 21.457C31.7161 20.1966 32.6693 19.5247 32.8359 19.4414C32.9505 19.4727 33.0078 19.5352 33.0078 19.6289C33.0078 19.6914 32.5599 20.0299 31.6641 20.6445C30.6224 21.3633 30.1016 21.7227 30.1016 21.7227C28.9141 22.6497 27.8516 23.1133 26.9141 23.1133C25.8932 23.1133 25.3828 22.6081 25.3828 21.5977C25.3828 20.2122 26.4297 18.7747 28.5234 17.2852C27.6693 17.8268 26.3932 18.6393 24.6953 19.7227L24.5859 19.7695C24.4922 19.7591 24.4453 19.7018 24.4453 19.5977C24.4453 19.5456 24.4609 19.4935 24.4922 19.4414C26.1901 18.2018 27.8203 17.2695 29.3828 16.6445C29.5703 16.582 29.8464 16.4831 30.2109 16.3477C31.1276 15.9727 31.7995 15.7852 32.2266 15.7852C32.987 15.7852 33.3672 16.2435 33.3672 17.1602ZM32.6328 16.6133C32.6328 16.2695 32.4818 16.0977 32.1797 16.0977C31.638 16.0977 30.1745 17.4362 27.7891 20.1133C28.0495 20.1133 28.4297 19.9935 28.9297 19.7539L29.9609 19.2383C30.4609 18.9987 30.9974 18.6289 31.5703 18.1289C32.2786 17.5039 32.6328 16.9987 32.6328 16.6133ZM47.6016 19.582C47.6016 19.6341 47.5755 19.681 47.5234 19.7227L44.4609 22.332C43.9089 22.8112 43.3776 23.0508 42.8672 23.0508C42.0964 23.0508 41.7109 22.6185 41.7109 21.7539C41.7109 21.3997 41.8568 21.0716 42.1484 20.7695L45.4297 17.2852C45.6068 17.0977 45.6953 16.9206 45.6953 16.7539C45.6953 16.6185 45.5964 16.5508 45.3984 16.5508C44.9922 16.5508 43.7578 17.5039 41.6953 19.4102C41.2786 19.7852 40.237 20.8997 38.5703 22.7539C38.4245 22.9206 38.2734 23.0039 38.1172 23.0039L36.6016 23.0508C36.4557 23.0508 36.3828 22.9935 36.3828 22.8789C36.3828 22.7227 36.4974 22.5195 36.7266 22.2695L41.2266 17.3477C41.4036 17.1602 41.4922 16.9831 41.4922 16.8164C41.4922 16.681 41.4349 16.6133 41.3203 16.6133C41.2057 16.6133 41.0495 16.6445 40.8516 16.707C40.7682 16.7383 39.6641 17.6133 37.5391 19.332C37.0391 19.7383 36.4818 20.2904 35.8672 20.9883C35.3568 21.5716 34.8464 22.1602 34.3359 22.7539C34.2005 22.9102 34.0443 22.9935 33.8672 23.0039L32.3672 23.0508C32.2422 23.0508 32.1797 23.0039 32.1797 22.9102C32.1797 22.7956 32.2266 22.6758 32.3203 22.5508C32.4141 22.4258 32.4714 22.332 32.4922 22.2695L36.9766 17.3477C37.1536 17.1497 37.2422 16.9727 37.2422 16.8164C37.2422 16.6706 37.1536 16.5977 36.9766 16.5977C36.6432 16.5977 35.8828 17.1237 34.6953 18.1758C33.5182 19.2279 32.8828 19.7539 32.7891 19.7539C32.6849 19.7122 32.6328 19.6602 32.6328 19.5977C32.6328 19.5456 32.6589 19.4987 32.7109 19.457L35.8359 16.7852C36.4089 16.2852 36.9401 16.0352 37.4297 16.0352C38.1901 16.0352 38.5703 16.4727 38.5703 17.3477C38.5703 17.7435 38.3932 18.1185 38.0391 18.4727L40.0859 16.7852C40.6797 16.2852 41.2057 16.0352 41.6641 16.0352C42.4349 16.0352 42.8203 16.4727 42.8203 17.3477C42.8203 17.6393 42.7109 17.931 42.4922 18.2227L44.2734 16.7383C44.8672 16.2383 45.3984 15.9883 45.8672 15.9883C46.5964 15.9883 46.9609 16.4727 46.9609 17.4414C46.9609 17.7643 46.8464 18.0456 46.6172 18.2852L43.2891 21.7695C43.1224 21.957 43.0391 22.1393 43.0391 22.3164C43.0391 22.4206 43.1068 22.4727 43.2422 22.4727C43.6068 22.4727 44.138 22.1758 44.8359 21.582L47.3047 19.457C47.3359 19.4258 47.3724 19.4102 47.4141 19.4102C47.5391 19.4102 47.6016 19.4674 47.6016 19.582ZM57.9922 16.2539C57.9922 16.4206 57.8828 16.6289 57.6641 16.8789L53.1484 21.8164C52.9714 22.0143 52.8828 22.1914 52.8828 22.3477C52.8828 22.4935 52.9714 22.5664 53.1484 22.5664C53.5026 22.5664 54.2682 22.0404 55.4453 20.9883C56.6328 19.9258 57.2526 19.3945 57.3047 19.3945C57.3568 19.3945 57.4036 19.4206 57.4453 19.4727C57.4557 19.4935 57.4661 19.5299 57.4766 19.582C57.4766 19.6341 57.4609 19.6758 57.4297 19.707L54.3047 22.3789C53.7526 22.8581 53.2266 23.0977 52.7266 23.0977C51.9661 23.0977 51.5859 22.681 51.5859 21.8477C51.5859 21.7539 51.5964 21.6549 51.6172 21.5508C51.2839 21.8841 50.8047 22.2279 50.1797 22.582C49.4714 22.9883 48.9349 23.1914 48.5703 23.1914C47.7995 23.1914 47.4141 22.8112 47.4141 22.0508C47.4141 20.7591 48.3984 19.3685 50.3672 17.8789C49.4922 18.4622 48.5339 19.0716 47.4922 19.707C47.388 19.6654 47.3359 19.6029 47.3359 19.5195C47.3359 19.4779 47.362 19.4362 47.4141 19.3945C48.1953 18.7591 49.2943 18.0664 50.7109 17.3164C52.3151 16.4727 53.4661 16.0508 54.1641 16.0508C54.737 16.0508 55.0234 16.2956 55.0234 16.7852C55.0234 16.8477 55.0026 16.9466 54.9609 17.082C54.9193 17.207 54.8984 17.306 54.8984 17.3789L54.8828 17.5195H54.8984L54.9922 17.4727C55.2734 17.1497 55.5547 16.8268 55.8359 16.5039C56.0651 16.2956 56.4453 16.1758 56.9766 16.1445C57.5911 16.1029 57.862 16.082 57.7891 16.082C57.9245 16.082 57.9922 16.1393 57.9922 16.2539ZM54.6172 16.6758C54.6172 16.5404 54.5443 16.4727 54.3984 16.4727C53.9193 16.4727 52.7995 17.431 51.0391 19.3477C49.3307 21.2122 48.4766 22.3008 48.4766 22.6133C48.4766 22.7695 48.5807 22.8477 48.7891 22.8477C48.9974 22.8477 49.388 22.6758 49.9609 22.332C50.9193 21.7383 51.7266 21.0716 52.3828 20.332C52.8724 19.832 53.5234 19.0299 54.3359 17.9258C54.5234 17.582 54.6172 17.1654 54.6172 16.6758ZM67.3672 16.1133C67.3672 16.3008 67.263 16.5091 67.0547 16.7383L62.5547 21.6758C62.3672 21.8737 62.2734 22.056 62.2734 22.2227C62.2734 22.3581 62.3516 22.4258 62.5078 22.4258C62.8516 22.4258 63.3776 22.1237 64.0859 21.5195L66.4453 19.4727C66.4557 19.4518 66.487 19.4258 66.5391 19.3945C66.6432 19.4258 66.6953 19.4883 66.6953 19.582C66.6953 19.6237 66.6745 19.6654 66.6328 19.707L63.7266 22.2227C63.1432 22.7331 62.6016 22.9883 62.1016 22.9883C61.3411 22.9883 60.9609 22.5612 60.9609 21.707C60.9609 21.3424 61.0964 21.0039 61.3672 20.6914L64.7266 16.8008C64.4557 16.957 64.0495 17.2018 63.5078 17.5352C62.4974 18.1706 61.5078 19.0091 60.5391 20.0508C59.8411 20.7904 59.1432 21.5716 58.4453 22.3945C58.0599 22.832 57.6328 23.0508 57.1641 23.0508C56.737 23.0508 56.5234 22.806 56.5234 22.3164C56.5234 21.1914 56.9245 20.6289 57.7266 20.6289C58.2578 20.6289 58.5234 20.8945 58.5234 21.4258C58.5234 21.5404 58.4974 21.681 58.4453 21.8477C58.612 21.6602 58.8568 21.3789 59.1797 21.0039C59.5859 20.556 59.9557 20.1549 60.2891 19.8008C61.362 18.6549 62.5964 17.6758 63.9922 16.8633C64.4714 16.6029 64.9766 16.3268 65.5078 16.0352L65.5547 16.0195H65.8359C65.9922 16.0195 66.2214 16.0143 66.5234 16.0039C66.8255 15.9831 67.0495 15.9727 67.1953 15.9727C67.3099 15.9727 67.3672 16.0195 67.3672 16.1133ZM77.0859 16.1758C77.0859 16.3737 76.9818 16.582 76.7734 16.8008L72.2734 21.7695C72.0859 21.9674 71.9922 22.1445 71.9922 22.3008C71.9922 22.4258 72.0651 22.4883 72.2109 22.4883C72.5339 22.4883 73.0651 22.1862 73.8047 21.582L76.4609 19.3789C76.4714 19.3685 76.513 19.3529 76.5859 19.332C76.7005 19.3529 76.7578 19.4154 76.7578 19.5195C76.7578 19.5508 76.7318 19.5872 76.6797 19.6289L73.4453 22.3008C72.862 22.7799 72.3099 23.0195 71.7891 23.0195C71.0495 23.0195 70.6797 22.5924 70.6797 21.7383C70.6797 21.4258 71.0547 20.8216 71.8047 19.9258C70.9714 20.6654 69.7682 21.6237 68.1953 22.8008C67.9661 22.9466 67.638 23.0195 67.2109 23.0195C66.5443 23.0195 66.2109 22.6029 66.2109 21.7695C66.2109 21.3737 66.3307 21.0352 66.5703 20.7539L69.3359 17.5664C67.4505 19.0039 66.4974 19.7227 66.4766 19.7227C66.362 19.7227 66.3047 19.6602 66.3047 19.5352C66.3047 19.4935 66.3307 19.457 66.3828 19.4258L70.5547 16.1914C70.6901 16.0872 71.263 16.0352 72.2734 16.0352C72.4714 16.0352 72.5703 16.082 72.5703 16.1758C72.5703 16.3737 72.4714 16.582 72.2734 16.8008L68.3047 21.1445C68.1693 21.2904 68.1016 21.4362 68.1016 21.582C68.1016 21.7591 68.2318 21.8477 68.4922 21.8477C68.763 21.8477 69.0286 21.7591 69.2891 21.582C69.4661 21.4674 70.1484 20.9154 71.3359 19.9258C72.5234 18.9362 73.1641 18.3945 73.2578 18.3008L74.9297 16.332C75.0651 16.1654 75.2161 16.082 75.3828 16.082L76.9141 16.0352C77.0286 16.0352 77.0859 16.082 77.0859 16.1758Z" fill="#28682E"></path></svg> 