<?xml version="1.0" encoding="UTF-8"?> <svg xmlns="http://www.w3.org/2000/svg" width="644" height="241" viewBox="0 0 644 241" fill="none"><line x1="322.465" y1="2.42187" x2="322.465" y2="239.494" stroke="white" stroke-width="3"></line><line x1="162.465" y1="2.99414" x2="162.465" y2="239.494" stroke="white" stroke-width="3"></line><line x1="2.46484" y1="0.986328" x2="2.46485" y2="239.494" stroke="white" stroke-width="3"></line><line x1="482.465" y1="0.986328" x2="482.465" y2="239.494" stroke="white" stroke-width="3"></line><line x1="642.465" y1="0.986328" x2="642.465" y2="239.494" stroke="white" stroke-width="3"></line><line x1="640.965" y1="52.4863" x2="0.964844" y2="52.4863" stroke="white" stroke-width="3"></line><line x1="643.961" y1="2.48633" x2="0.964844" y2="2.48633" stroke="white" stroke-width="3"></line><line x1="643.961" y1="239.486" x2="0.964844" y2="239.486" stroke="white" stroke-width="3"></line><path d="M206.242 175.881V122.601H197.026V111.849H218.722V175.881H206.242ZM283.629 110.697V154.569H291.117V164.553H283.629V175.881H271.917V164.553H240.621V158.985L272.397 110.697H283.629ZM255.405 154.569H271.917V129.129L255.405 154.569Z" fill="#3A3A3A"></path><path d="M50.7072 175.881V122.601H41.4912V111.849H63.1872V175.881H50.7072ZM99.5817 128.553H87.8697C88.4457 122.857 90.6537 118.409 94.4937 115.209C98.3337 112.009 103.07 110.409 108.702 110.409C114.846 110.409 119.71 112.009 123.294 115.209C126.942 118.409 128.766 122.697 128.766 128.073C128.766 134.281 126.302 138.761 121.374 141.513C127.902 144.201 131.166 149.289 131.166 156.777C131.166 163.177 128.99 168.201 124.638 171.849C120.35 175.497 114.91 177.321 108.318 177.321C102.046 177.321 96.7657 175.529 92.4777 171.945C88.1897 168.297 85.7897 163.465 85.2777 157.449H97.7577C98.1417 160.201 99.2617 162.409 101.118 164.073C102.974 165.737 105.406 166.569 108.414 166.569C111.742 166.569 114.27 165.577 115.998 163.593C117.79 161.545 118.686 159.145 118.686 156.393C118.686 153.705 117.79 151.369 115.998 149.385C114.27 147.401 111.614 146.409 108.03 146.409H106.398V137.385H108.126C111.006 137.385 113.182 136.553 114.654 134.889C116.126 133.161 116.862 131.081 116.862 128.649C116.862 126.089 116.094 124.041 114.558 122.505C113.022 120.969 110.974 120.201 108.414 120.201C106.046 120.201 103.998 120.937 102.27 122.409C100.606 123.881 99.7097 125.929 99.5817 128.553Z" fill="#3A3A3A"></path><path d="M62.1596 32.4316V26.4316C60.6663 26.525 59.533 26.5716 58.7596 26.5716C57.5463 26.5716 56.6396 26.425 56.0396 26.1316C55.453 25.8516 55.073 25.485 54.8996 25.0316C54.7263 24.565 54.6396 23.9383 54.6396 23.1516V19.0916H55.5196V23.1516C55.5196 23.4316 55.5263 23.6383 55.5396 23.7716C55.553 23.905 55.5863 24.105 55.6396 24.3716C55.693 24.625 55.7996 24.845 55.9596 25.0316C56.1196 25.205 56.333 25.3516 56.5996 25.4716C57.013 25.6716 57.8263 25.7716 59.0396 25.7716C59.9596 25.7716 60.9996 25.725 62.1596 25.6316V19.0916H63.0396V32.4316H62.1596ZM73.1732 28.4516H66.1932C66.1399 29.4516 66.4399 30.2783 67.0932 30.9316C67.7465 31.5716 68.5265 31.8916 69.4332 31.8916C70.0732 31.8916 70.6399 31.725 71.1332 31.3916C71.6265 31.045 72.0065 30.5916 72.2732 30.0316L72.9532 30.4316C72.6465 31.0183 72.1999 31.5383 71.6132 31.9916C71.0265 32.4316 70.2799 32.6516 69.3732 32.6516C68.1332 32.6516 67.1532 32.2516 66.4332 31.4516C65.7132 30.6383 65.3532 29.6183 65.3532 28.3916C65.3532 27.045 65.7399 25.9916 66.5132 25.2316C67.2999 24.4716 68.2332 24.0916 69.3132 24.0916C70.4332 24.0916 71.3665 24.4983 72.1132 25.3116C72.8599 26.125 73.2132 27.1716 73.1732 28.4516ZM66.2532 27.6916H72.3332C72.2265 26.865 71.8932 26.185 71.3332 25.6516C70.7865 25.1183 70.1132 24.8516 69.3132 24.8516C68.4999 24.8516 67.8132 25.125 67.2532 25.6716C66.6932 26.205 66.3599 26.8783 66.2532 27.6916ZM76.6932 32.4316V25.0316H73.8532V24.2716H80.3332V25.0316H77.4932V32.4316H76.6932ZM81.522 24.2716H84.182C84.942 24.2716 85.522 24.4316 85.922 24.7516C86.402 25.1383 86.642 25.6583 86.642 26.3116C86.642 27.0583 86.342 27.625 85.742 28.0116C86.1154 28.065 86.4487 28.2183 86.742 28.4716C87.2087 28.885 87.442 29.4316 87.442 30.1116C87.442 30.8716 87.1687 31.4583 86.622 31.8716C86.142 32.245 85.4754 32.4316 84.622 32.4316H81.522V24.2716ZM82.322 27.8316H84.182C84.6754 27.8316 85.062 27.7183 85.342 27.4916C85.6754 27.225 85.842 26.865 85.842 26.4116C85.842 25.9716 85.6754 25.6183 85.342 25.3516C85.0754 25.1383 84.6887 25.0316 84.182 25.0316H82.322V27.8316ZM82.322 31.6716H84.622C85.2354 31.6716 85.702 31.5516 86.022 31.3116C86.4087 31.0183 86.602 30.6116 86.602 30.0916C86.602 29.6116 86.422 29.2316 86.062 28.9516C85.742 28.7116 85.262 28.5916 84.622 28.5916H82.322V31.6716ZM96.6953 28.4516H89.7153C89.6619 29.4516 89.9619 30.2783 90.6153 30.9316C91.2686 31.5716 92.0486 31.8916 92.9553 31.8916C93.5953 31.8916 94.1619 31.725 94.6553 31.3916C95.1486 31.045 95.5286 30.5916 95.7953 30.0316L96.4753 30.4316C96.1686 31.0183 95.7219 31.5383 95.1353 31.9916C94.5486 32.4316 93.8019 32.6516 92.8953 32.6516C91.6553 32.6516 90.6753 32.2516 89.9553 31.4516C89.2353 30.6383 88.8753 29.6183 88.8753 28.3916C88.8753 27.045 89.2619 25.9916 90.0353 25.2316C90.8219 24.4716 91.7553 24.0916 92.8353 24.0916C93.9553 24.0916 94.8886 24.4983 95.6353 25.3116C96.3819 26.125 96.7353 27.1716 96.6953 28.4516ZM89.7753 27.6916H95.8553C95.7486 26.865 95.4153 26.185 94.8553 25.6516C94.3086 25.1183 93.6353 24.8516 92.8353 24.8516C92.0219 24.8516 91.3353 25.125 90.7753 25.6716C90.2153 26.205 89.8819 26.8783 89.7753 27.6916ZM99.4552 30.9716V37.2116H98.6552V24.2716H99.4552V25.6916C100.242 24.625 101.309 24.0916 102.655 24.0916C103.855 24.0916 104.815 24.4916 105.535 25.2916C106.255 26.0783 106.615 27.0783 106.615 28.2916C106.615 29.5316 106.249 30.5716 105.515 31.4116C104.795 32.2383 103.829 32.6516 102.615 32.6516C102.002 32.6516 101.449 32.5316 100.955 32.2916C100.462 32.0383 100.122 31.8116 99.9352 31.6116C99.7486 31.3983 99.5886 31.185 99.4552 30.9716ZM100.255 30.8716C100.815 31.5516 101.595 31.8916 102.595 31.8916C103.595 31.8916 104.375 31.5516 104.935 30.8716C105.495 30.1916 105.775 29.3316 105.775 28.2916C105.775 27.2116 105.469 26.3716 104.855 25.7716C104.242 25.1583 103.495 24.8516 102.615 24.8516C101.749 24.8516 100.995 25.1516 100.355 25.7516C99.7286 26.3516 99.4152 27.185 99.4152 28.2516C99.4152 29.305 99.6952 30.1783 100.255 30.8716ZM108.56 32.4316V24.2716H112.96V25.0316H109.36V32.4316H108.56Z" fill="#3A3A3A"></path><path d="M208.885 19.0916H218.725V32.4316H217.845V19.8916H209.765V32.4316H208.885V19.0916ZM220.675 32.4316L223.275 28.8716C222.648 28.845 222.115 28.645 221.675 28.2716C221.221 27.8716 220.995 27.3316 220.995 26.6516C220.995 25.865 221.241 25.265 221.735 24.8516C222.175 24.465 222.821 24.2716 223.675 24.2716H226.395V32.4316H225.595V28.9116H224.195L221.635 32.4316H220.675ZM225.595 28.1516V25.0316H223.675C223.115 25.0316 222.681 25.1516 222.375 25.3916C222.015 25.6983 221.835 26.1116 221.835 26.6316C221.835 27.1383 222.008 27.525 222.355 27.7916C222.675 28.0316 223.115 28.1516 223.675 28.1516H225.595ZM230.422 32.4316V25.0316H227.582V24.2716H234.062V25.0316H231.222V32.4316H230.422ZM235.251 32.4316V24.2716H236.051V27.8716H240.651V24.2716H241.451V32.4316H240.651V28.6316H236.051V32.4316H235.251ZM243.925 24.2716H244.725V30.8116L250.525 23.8116V32.4316H249.725V25.9316L243.925 32.9316V24.2716ZM252.989 32.4316V24.2716H253.789V31.6716H258.189V24.2716H258.989V31.6716H260.189V34.6316H259.429V32.4316H252.989ZM268.108 25.6916V24.2716H268.908V32.4316H268.108V30.9716C267.375 32.0916 266.315 32.6516 264.928 32.6516C263.821 32.6516 262.881 32.2583 262.108 31.4716C261.335 30.685 260.948 29.645 260.948 28.3516C260.948 27.085 261.315 26.0583 262.048 25.2716C262.781 24.485 263.741 24.0916 264.928 24.0916C266.288 24.0916 267.348 24.625 268.108 25.6916ZM264.968 24.8516C264.101 24.8516 263.355 25.165 262.728 25.7916C262.101 26.405 261.788 27.2383 261.788 28.2916C261.788 29.265 262.075 30.1116 262.648 30.8316C263.221 31.5383 264.001 31.8916 264.988 31.8916C265.961 31.8916 266.728 31.545 267.288 30.8516C267.861 30.145 268.148 29.2916 268.148 28.2916C268.148 27.185 267.821 26.3383 267.168 25.7516C266.515 25.1516 265.781 24.8516 264.968 24.8516Z" fill="#3A3A3A"></path><path d="M372.757 20.6516V21.8116C372.183 21.145 371.503 20.6316 370.717 20.2716C369.943 19.8983 369.123 19.7116 368.257 19.7116C366.563 19.7116 365.143 20.305 363.997 21.4916C362.85 22.6783 362.277 24.125 362.277 25.8316C362.277 26.7783 362.457 27.645 362.817 28.4316C363.19 29.2183 363.67 29.8583 364.257 30.3516C364.857 30.8316 365.503 31.205 366.197 31.4716C366.89 31.725 367.583 31.8516 368.277 31.8516C369.023 31.8516 369.797 31.6916 370.597 31.3716C371.397 31.0383 372.117 30.525 372.757 29.8316V30.9916C371.503 32.0983 370.023 32.6516 368.317 32.6516C366.343 32.6516 364.69 31.9783 363.357 30.6316C362.023 29.285 361.357 27.6716 361.357 25.7916C361.357 23.8716 362.03 22.245 363.377 20.9116C364.723 19.5783 366.357 18.9116 368.277 18.9116C370.037 18.9116 371.53 19.4916 372.757 20.6516ZM375.463 37.2116L377.463 32.5716L373.583 24.2716H374.503L377.923 31.5316L380.903 24.2716H381.823L376.383 37.2116H375.463ZM383.31 26.2116H383.35C383.657 25.505 384.137 24.9783 384.79 24.6316C385.457 24.2716 386.17 24.0916 386.93 24.0916C388.17 24.0916 389.163 24.485 389.91 25.2716C390.67 26.0583 391.05 27.085 391.05 28.3516C391.05 29.6583 390.643 30.705 389.83 31.4916C389.017 32.265 387.99 32.6516 386.75 32.6516C385.577 32.6516 384.623 32.3116 383.89 31.6316C382.957 30.7516 382.49 29.2983 382.49 27.2716C382.49 23.9916 383.343 21.7983 385.05 20.6916C385.21 20.585 385.383 20.4916 385.57 20.4116C385.757 20.3183 385.917 20.245 386.05 20.1916C386.197 20.1383 386.39 20.085 386.63 20.0316C386.87 19.965 387.043 19.925 387.15 19.9116C387.257 19.885 387.443 19.845 387.71 19.7916C387.99 19.7383 388.157 19.705 388.21 19.6916C389.197 19.4783 389.797 19.125 390.01 18.6316H391.01C390.863 18.965 390.677 19.2516 390.45 19.4916C390.237 19.7183 389.97 19.905 389.65 20.0516C389.343 20.185 389.083 20.285 388.87 20.3516C388.67 20.405 388.397 20.4716 388.05 20.5516C386.73 20.8183 385.777 21.185 385.19 21.6516C384.577 22.145 384.117 22.8116 383.81 23.6516C383.517 24.4916 383.35 25.345 383.31 26.2116ZM386.75 31.8916C387.897 31.8916 388.757 31.5383 389.33 30.8316C389.917 30.1116 390.21 29.285 390.21 28.3516C390.21 27.4183 389.917 26.605 389.33 25.9116C388.743 25.205 387.943 24.8516 386.93 24.8516C385.837 24.8516 384.977 25.205 384.35 25.9116C383.723 26.6183 383.41 27.4316 383.41 28.3516C383.41 29.245 383.67 30.0316 384.19 30.7116C384.79 31.4983 385.643 31.8916 386.75 31.8916ZM393.293 26.2116H393.333C393.639 25.505 394.119 24.9783 394.773 24.6316C395.439 24.2716 396.153 24.0916 396.913 24.0916C398.153 24.0916 399.146 24.485 399.893 25.2716C400.653 26.0583 401.033 27.085 401.033 28.3516C401.033 29.6583 400.626 30.705 399.813 31.4916C398.999 32.265 397.973 32.6516 396.733 32.6516C395.559 32.6516 394.606 32.3116 393.873 31.6316C392.939 30.7516 392.473 29.2983 392.473 27.2716C392.473 23.9916 393.326 21.7983 395.033 20.6916C395.193 20.585 395.366 20.4916 395.553 20.4116C395.739 20.3183 395.899 20.245 396.033 20.1916C396.179 20.1383 396.373 20.085 396.613 20.0316C396.853 19.965 397.026 19.925 397.133 19.9116C397.239 19.885 397.426 19.845 397.693 19.7916C397.973 19.7383 398.139 19.705 398.193 19.6916C399.179 19.4783 399.779 19.125 399.993 18.6316H400.993C400.846 18.965 400.659 19.2516 400.433 19.4916C400.219 19.7183 399.953 19.905 399.633 20.0516C399.326 20.185 399.066 20.285 398.853 20.3516C398.653 20.405 398.379 20.4716 398.033 20.5516C396.713 20.8183 395.759 21.185 395.173 21.6516C394.559 22.145 394.099 22.8116 393.793 23.6516C393.499 24.4916 393.333 25.345 393.293 26.2116ZM396.733 31.8916C397.879 31.8916 398.739 31.5383 399.313 30.8316C399.899 30.1116 400.193 29.285 400.193 28.3516C400.193 27.4183 399.899 26.605 399.313 25.9116C398.726 25.205 397.926 24.8516 396.913 24.8516C395.819 24.8516 394.959 25.205 394.333 25.9116C393.706 26.6183 393.393 27.4316 393.393 28.3516C393.393 29.245 393.653 30.0316 394.173 30.7116C394.773 31.4983 395.626 31.8916 396.733 31.8916ZM403.675 25.3316C404.502 24.505 405.522 24.0916 406.735 24.0916C407.949 24.0916 408.962 24.505 409.775 25.3316C410.602 26.145 411.015 27.1583 411.015 28.3716C411.015 29.585 410.602 30.605 409.775 31.4316C408.962 32.245 407.949 32.6516 406.735 32.6516C405.522 32.6516 404.502 32.245 403.675 31.4316C402.862 30.605 402.455 29.585 402.455 28.3716C402.455 27.1583 402.862 26.145 403.675 25.3316ZM404.275 30.8716C404.942 31.5516 405.762 31.8916 406.735 31.8916C407.709 31.8916 408.522 31.5516 409.175 30.8716C409.842 30.1916 410.175 29.3583 410.175 28.3716C410.175 27.385 409.842 26.5516 409.175 25.8716C408.522 25.1916 407.709 24.8516 406.735 24.8516C405.762 24.8516 404.942 25.1916 404.275 25.8716C403.622 26.5516 403.295 27.385 403.295 28.3716C403.295 29.3583 403.622 30.1916 404.275 30.8716ZM414.518 32.4316V25.0316H411.678V24.2716H418.158V25.0316H415.318V32.4316H414.518ZM425.987 25.6916V24.2716H426.787V32.4316H425.987V30.9716C425.254 32.0916 424.194 32.6516 422.807 32.6516C421.7 32.6516 420.76 32.2583 419.987 31.4716C419.214 30.685 418.827 29.645 418.827 28.3516C418.827 27.085 419.194 26.0583 419.927 25.2716C420.66 24.485 421.62 24.0916 422.807 24.0916C424.167 24.0916 425.227 24.625 425.987 25.6916ZM422.847 24.8516C421.98 24.8516 421.234 25.165 420.607 25.7916C419.98 26.405 419.667 27.2383 419.667 28.2916C419.667 29.265 419.954 30.1116 420.527 30.8316C421.1 31.5383 421.88 31.8916 422.867 31.8916C423.84 31.8916 424.607 31.545 425.167 30.8516C425.74 30.145 426.027 29.2916 426.027 28.2916C426.027 27.185 425.7 26.3383 425.047 25.7516C424.394 25.1516 423.66 24.8516 422.847 24.8516Z" fill="#3A3A3A"></path><path d="M509.039 32.4316V19.0916H511.959C513.106 19.0916 514.006 19.3983 514.659 20.0116C515.313 20.6116 515.639 21.4183 515.639 22.4316C515.639 23.7383 515.119 24.7116 514.079 25.3516C514.933 25.485 515.606 25.8583 516.099 26.4716C516.593 27.085 516.839 27.825 516.839 28.6916C516.839 29.8383 516.453 30.7516 515.679 31.4316C514.919 32.0983 513.926 32.4316 512.699 32.4316H509.039ZM509.919 19.8916V25.1316H512.039C512.799 25.1316 513.406 24.945 513.859 24.5716C514.446 24.0916 514.739 23.4116 514.739 22.5316C514.739 21.6383 514.439 20.945 513.839 20.4516C513.359 20.0783 512.619 19.8916 511.619 19.8916H509.919ZM509.919 25.9316V31.6316H512.159C512.573 31.6316 512.899 31.625 513.139 31.6116C513.379 31.585 513.686 31.5116 514.059 31.3916C514.446 31.2716 514.779 31.085 515.059 30.8316C515.633 30.325 515.919 29.645 515.919 28.7916C515.919 27.5783 515.446 26.7516 514.499 26.3116C513.926 26.0583 513.093 25.9316 511.999 25.9316H509.919ZM519.655 25.3316C520.481 24.505 521.501 24.0916 522.715 24.0916C523.928 24.0916 524.941 24.505 525.755 25.3316C526.581 26.145 526.995 27.1583 526.995 28.3716C526.995 29.585 526.581 30.605 525.755 31.4316C524.941 32.245 523.928 32.6516 522.715 32.6516C521.501 32.6516 520.481 32.245 519.655 31.4316C518.841 30.605 518.435 29.585 518.435 28.3716C518.435 27.1583 518.841 26.145 519.655 25.3316ZM520.255 30.8716C520.921 31.5516 521.741 31.8916 522.715 31.8916C523.688 31.8916 524.501 31.5516 525.155 30.8716C525.821 30.1916 526.155 29.3583 526.155 28.3716C526.155 27.385 525.821 26.5516 525.155 25.8716C524.501 25.1916 523.688 24.8516 522.715 24.8516C521.741 24.8516 520.921 25.1916 520.255 25.8716C519.601 26.5516 519.275 27.385 519.275 28.3716C519.275 29.3583 519.601 30.1916 520.255 30.8716ZM535.477 25.1316V26.1916C534.704 25.2983 533.764 24.8516 532.657 24.8516C531.671 24.8516 530.857 25.1916 530.217 25.8716C529.577 26.5383 529.257 27.3783 529.257 28.3916C529.257 29.485 529.597 30.345 530.277 30.9716C530.957 31.585 531.737 31.8916 532.617 31.8916C533.697 31.8916 534.684 31.405 535.577 30.4316V31.5116C534.724 32.2716 533.731 32.6516 532.597 32.6516C531.371 32.6516 530.364 32.2516 529.577 31.4516C528.804 30.6383 528.417 29.625 528.417 28.4116C528.417 27.1716 528.804 26.145 529.577 25.3316C530.351 24.505 531.377 24.0916 532.657 24.0916C533.711 24.0916 534.651 24.4383 535.477 25.1316ZM537.377 24.2716H538.177V28.1516L542.297 24.2716H543.377L539.217 28.1516L543.697 32.4316H542.537L538.617 28.6916L538.177 29.1116V32.4316H537.377V24.2716ZM545.699 30.9716V37.2116H544.899V24.2716H545.699V25.6916C546.485 24.625 547.552 24.0916 548.899 24.0916C550.099 24.0916 551.059 24.4916 551.779 25.2916C552.499 26.0783 552.859 27.0783 552.859 28.2916C552.859 29.5316 552.492 30.5716 551.759 31.4116C551.039 32.2383 550.072 32.6516 548.859 32.6516C548.245 32.6516 547.692 32.5316 547.199 32.2916C546.705 32.0383 546.365 31.8116 546.179 31.6116C545.992 31.3983 545.832 31.185 545.699 30.9716ZM546.499 30.8716C547.059 31.5516 547.839 31.8916 548.839 31.8916C549.839 31.8916 550.619 31.5516 551.179 30.8716C551.739 30.1916 552.019 29.3316 552.019 28.2916C552.019 27.2116 551.712 26.3716 551.099 25.7716C550.485 25.1583 549.739 24.8516 548.859 24.8516C547.992 24.8516 547.239 25.1516 546.599 25.7516C545.972 26.3516 545.659 27.185 545.659 28.2516C545.659 29.305 545.939 30.1783 546.499 30.8716ZM562.103 28.4516H555.123C555.07 29.4516 555.37 30.2783 556.023 30.9316C556.677 31.5716 557.457 31.8916 558.363 31.8916C559.003 31.8916 559.57 31.725 560.063 31.3916C560.557 31.045 560.937 30.5916 561.203 30.0316L561.883 30.4316C561.577 31.0183 561.13 31.5383 560.543 31.9916C559.957 32.4316 559.21 32.6516 558.303 32.6516C557.063 32.6516 556.083 32.2516 555.363 31.4516C554.643 30.6383 554.283 29.6183 554.283 28.3916C554.283 27.045 554.67 25.9916 555.443 25.2316C556.23 24.4716 557.163 24.0916 558.243 24.0916C559.363 24.0916 560.297 24.4983 561.043 25.3116C561.79 26.125 562.143 27.1716 562.103 28.4516ZM555.183 27.6916H561.263C561.157 26.865 560.823 26.185 560.263 25.6516C559.717 25.1183 559.043 24.8516 558.243 24.8516C557.43 24.8516 556.743 25.125 556.183 25.6716C555.623 26.205 555.29 26.8783 555.183 27.6916ZM570.603 25.1316V26.1916C569.83 25.2983 568.89 24.8516 567.783 24.8516C566.797 24.8516 565.983 25.1916 565.343 25.8716C564.703 26.5383 564.383 27.3783 564.383 28.3916C564.383 29.485 564.723 30.345 565.403 30.9716C566.083 31.585 566.863 31.8916 567.743 31.8916C568.823 31.8916 569.81 31.405 570.703 30.4316V31.5116C569.85 32.2716 568.857 32.6516 567.723 32.6516C566.497 32.6516 565.49 32.2516 564.703 31.4516C563.93 30.6383 563.543 29.625 563.543 28.4116C563.543 27.1716 563.93 26.145 564.703 25.3316C565.477 24.505 566.503 24.0916 567.783 24.0916C568.837 24.0916 569.777 24.4383 570.603 25.1316ZM579.803 28.4516H572.823C572.77 29.4516 573.07 30.2783 573.723 30.9316C574.376 31.5716 575.156 31.8916 576.063 31.8916C576.703 31.8916 577.27 31.725 577.763 31.3916C578.256 31.045 578.636 30.5916 578.903 30.0316L579.583 30.4316C579.276 31.0183 578.83 31.5383 578.243 31.9916C577.656 32.4316 576.91 32.6516 576.003 32.6516C574.763 32.6516 573.783 32.2516 573.063 31.4516C572.343 30.6383 571.983 29.6183 571.983 28.3916C571.983 27.045 572.37 25.9916 573.143 25.2316C573.93 24.4716 574.863 24.0916 575.943 24.0916C577.063 24.0916 577.996 24.4983 578.743 25.3116C579.49 26.125 579.843 27.1716 579.803 28.4516ZM572.883 27.6916H578.963C578.856 26.865 578.523 26.185 577.963 25.6516C577.416 25.1183 576.743 24.8516 575.943 24.8516C575.13 24.8516 574.443 25.125 573.883 25.6716C573.323 26.205 572.99 26.8783 572.883 27.6916ZM581.763 32.4316V24.2716H582.563V27.8716H587.163V24.2716H587.963V32.4316H587.163V28.6316H582.563V32.4316H581.763ZM590.437 24.2716H591.237V27.6716H593.177C594.11 27.6716 594.804 27.925 595.257 28.4316C595.644 28.8583 595.837 29.3983 595.837 30.0516C595.837 30.785 595.597 31.3716 595.117 31.8116C594.677 32.225 594.024 32.4316 593.157 32.4316H590.437V24.2716ZM591.237 31.6716H593.157C593.717 31.6716 594.144 31.545 594.437 31.2916C594.81 30.985 594.997 30.5716 594.997 30.0516C594.997 29.505 594.804 29.085 594.417 28.7916C594.097 28.5516 593.664 28.4316 593.117 28.4316H591.237V31.6716ZM604.927 28.4516H597.947C597.893 29.4516 598.193 30.2783 598.847 30.9316C599.5 31.5716 600.28 31.8916 601.187 31.8916C601.827 31.8916 602.393 31.725 602.887 31.3916C603.38 31.045 603.76 30.5916 604.027 30.0316L604.707 30.4316C604.4 31.0183 603.953 31.5383 603.367 31.9916C602.78 32.4316 602.033 32.6516 601.127 32.6516C599.887 32.6516 598.907 32.2516 598.187 31.4516C597.467 30.6383 597.107 29.6183 597.107 28.3916C597.107 27.045 597.493 25.9916 598.267 25.2316C599.053 24.4716 599.987 24.0916 601.067 24.0916C602.187 24.0916 603.12 24.4983 603.867 25.3116C604.613 26.125 604.967 27.1716 604.927 28.4516ZM598.007 27.6916H604.087C603.98 26.865 603.647 26.185 603.087 25.6516C602.54 25.1183 601.867 24.8516 601.067 24.8516C600.253 24.8516 599.567 25.125 599.007 25.6716C598.447 26.205 598.113 26.8783 598.007 27.6916Z" fill="#3A3A3A"></path><path d="M361.778 175.379V122.099H352.562V111.347H374.258V175.379H361.778ZM439.356 111.347V122.099H418.044L415.74 132.179C417.404 131.923 418.812 131.795 419.964 131.795C426.428 131.795 431.74 133.747 435.9 137.651C440.124 141.491 442.236 146.771 442.236 153.491C442.236 160.083 440.124 165.619 435.9 170.099C431.74 174.579 425.5 176.819 417.18 176.819C408.988 176.819 402.108 174.099 396.54 168.659L400.668 157.907C405.084 163.347 410.492 166.067 416.892 166.067C420.732 166.067 423.836 164.915 426.204 162.611C428.572 160.307 429.756 157.331 429.756 153.683C429.756 150.099 428.508 147.059 426.012 144.563C423.516 142.067 419.932 140.819 415.26 140.819C410.716 140.819 406.62 142.195 402.972 144.947H402.204L409.788 111.347H439.356Z" fill="#3A3A3A"></path><path d="M517.313 175.379V122.099H508.097V111.347H529.793V175.379H517.313ZM580.011 108.659L588.843 115.379L573.675 134.771C576.043 133.747 578.443 133.235 580.875 133.235C586.379 133.235 591.115 135.123 595.083 138.899C599.051 142.611 601.035 147.667 601.035 154.067C601.035 160.339 598.987 165.715 594.891 170.195C590.795 174.611 584.747 176.819 576.747 176.819C569.003 176.819 563.019 174.707 558.795 170.483C554.571 166.195 552.459 160.947 552.459 154.739C552.459 148.531 555.147 141.875 560.523 134.771L580.011 108.659ZM568.299 163.475C570.539 165.715 573.355 166.835 576.747 166.835C580.139 166.835 582.955 165.715 585.195 163.475C587.435 161.235 588.555 158.419 588.555 155.027C588.555 151.635 587.435 148.819 585.195 146.579C582.955 144.339 580.139 143.219 576.747 143.219C573.355 143.219 570.539 144.339 568.299 146.579C566.059 148.819 564.939 151.635 564.939 155.027C564.939 158.419 566.059 161.235 568.299 163.475Z" fill="#3A3A3A"></path></svg> 