<?xml version="1.0" encoding="UTF-8"?> <svg xmlns="http://www.w3.org/2000/svg" width="559" height="351" viewBox="0 0 559 351" fill="none"><path d="M65.7567 158.506C63.8936 156.59 62.8466 155.39 62.6157 154.904C57.5885 148.146 53.7531 141.672 51.1097 135.48C49.5984 132.236 48.3818 129.298 47.4599 126.668C46.998 125.696 46.5371 124.38 46.0771 122.722C46.0667 122.638 46.0142 122.558 45.9194 122.484C45.909 122.4 45.8668 122.405 45.7927 122.5C45.7082 122.51 45.5919 122.61 45.4436 122.8L42.2985 132.829C41.138 136.657 39.551 140.151 37.5374 143.312L34.5506 147.278C33.4387 148.7 32.1226 149.504 30.6023 149.69L26.9747 150.52L26.23 150.739C24.9631 150.894 23.8083 150.564 22.7655 149.749C19.4994 147.577 17.1313 145.037 15.6613 142.131C14.181 139.14 12.8809 135.87 11.7609 132.321L9.81468 125.873L8.59225 121.136C8.05989 118.886 7.65758 117.35 7.38533 116.526C6.56004 113.283 5.91401 110.105 5.44724 106.99C5.20779 105.733 4.81941 102.909 4.28211 98.517C3.95146 95.8142 3.72774 92.584 3.61095 88.8264L3.38726 77.5379C3.31 74.8042 3.46636 71.5275 3.85633 67.7078C4.17712 66.1255 4.3694 65.2447 4.4332 65.0655C4.63492 64.6122 4.86248 64.37 5.11586 64.339C5.36925 64.308 6.15523 64.4262 7.47382 64.6935C8.09605 64.8745 8.44333 65.2607 8.51566 65.8519L8.62416 66.7388L10.1606 84.5532L10.3311 85.9468C10.5961 89.5149 10.7596 91.5523 10.8216 92.0591L11.4753 96.3511C11.6406 97.7025 11.7913 98.5842 11.9275 98.9962C12.2581 101.699 12.7206 104.428 13.315 107.185L13.9713 110.448C14.178 112.137 14.3546 113.23 14.501 113.726C15.147 116.905 15.6268 119.075 15.9404 120.237L16.894 124.878C18.1568 130.296 19.8903 135.356 22.0944 140.058C23.2696 142.658 24.6785 144.714 26.321 146.228C26.9104 146.841 27.574 147.36 28.3117 147.784C28.8805 148.229 29.4769 148.199 30.1009 147.694C31.6351 146.22 32.7522 144.841 33.4522 143.555C34.6073 141.785 35.9546 139.134 37.4943 135.602C38.927 132.598 40.3521 128.48 41.7695 123.249L43.7818 116.574C43.9422 115.782 43.9707 114.965 43.8674 114.12C42.6993 108.776 41.95 104.753 41.6193 102.05C41.2163 98.7564 40.8893 94.6816 40.6382 89.8259L40.3828 84.585C40.337 77.904 41.0383 72.0746 42.4868 67.0967C43.0834 64.9663 43.705 63.3901 44.3515 62.368L45.6858 60.6617C46.4581 59.9672 47.282 59.6949 48.1576 59.845C49.0436 60.0795 49.9614 60.2244 50.9112 60.2796C51.7868 60.4297 52.44 60.8641 52.8709 61.583C53.4275 62.6293 53.7523 63.5326 53.8453 64.2927C54.1364 65.9716 54.2775 68.5261 54.2685 71.9563C53.9594 77.1376 53.1123 84.2279 51.7271 93.2271C50.9526 98.8083 49.9091 104.294 48.5968 109.684C48.4778 110.813 48.5018 111.71 48.6689 112.375C49.4183 116.398 50.2487 119.683 51.1603 122.229L53.9414 130.247C55.5232 134.768 57.8221 139.545 60.838 144.577L65.8841 152.189L68.5958 156.487C68.8268 156.973 68.7785 157.279 68.451 157.404L66.9279 158.619C66.4418 158.85 66.0514 158.812 65.7567 158.506ZM47.3879 99.8016C48.6504 93.3035 49.5258 87.4956 50.0141 82.3781C50.7352 77.0606 51.0158 72.6971 50.8559 69.2876C50.899 68.9394 50.8534 68.2163 50.7191 67.1183C50.5641 65.8514 50.2824 64.6 49.874 63.3641C49.843 63.1107 49.7431 62.9943 49.5742 63.015C49.3208 63.046 49.157 63.1089 49.0829 63.2037L48.1906 65.3702C47.1268 68.5865 46.3877 72.7061 45.9735 77.7288C45.787 80.4091 45.7324 83.1162 45.8097 85.85L46.0287 92.8955L46.3515 96.5851L46.8784 100.893C47.1111 100.693 47.281 100.329 47.3879 99.8016ZM71.6217 121.783L69.106 121.191C66.9015 120.689 65.2529 119.476 64.1603 117.552C62.6678 115.163 61.8356 112.565 61.6635 109.757C61.1986 105.956 61.2291 102.352 61.7552 98.9441C62.3469 94.6712 63.7022 91.0335 65.8209 88.0311C66.976 86.261 68.0931 84.8813 69.1722 83.892L70.4573 82.8347C71.0072 82.4245 71.72 82.2944 72.5956 82.4445L75.1268 83.1635C75.8644 83.5876 75.948 83.9203 75.3774 84.1616C74.3396 85.4887 73.5716 86.5685 73.0734 87.401C70.7614 91.6272 69.3045 95.8346 68.7024 100.023C68.4746 102.366 68.3046 104.83 68.1923 107.415C68.1595 107.848 68.2464 108.909 68.453 110.598C68.6148 113.321 69.0049 115.46 69.6236 117.013C69.8217 117.931 70.1836 118.787 70.7092 119.58C70.866 120.161 71.24 120.415 71.8312 120.343C72.7603 120.229 73.8963 119.705 75.2391 118.769C76.4975 117.843 77.5715 116.812 78.4611 115.674C79.3609 114.621 81.1039 112.051 83.6899 107.962L87.8404 100.896C88.4231 100.054 88.7989 99.6219 88.9678 99.6013C89.2212 99.5703 89.659 99.6453 90.2813 99.8264L90.9612 100.129C91.1405 100.193 91.2085 100.399 91.1654 100.747L90.9585 101.158L89.4638 103.655C86.3468 109.009 83.9729 112.728 82.342 114.814C81.5369 115.941 80.6845 117.031 79.7846 118.084C78.5675 119.348 77.1135 120.426 75.4224 121.318C74.2606 121.632 73.6375 121.794 73.553 121.804C73.4686 121.814 72.8248 121.807 71.6217 121.783ZM92.1945 128.653C91.5929 128.641 91.1293 128.355 90.8036 127.795L89.1336 124.656C87.9377 121.887 87.1228 118.73 86.6888 115.182C86.3375 112.31 86.0569 108.616 85.8471 104.098L85.7595 101.28C85.6841 97.8599 85.605 95.8121 85.5224 95.1364C85.2834 89.6792 85.2131 86.3016 85.3115 85.0037L85.6202 75.9647C85.5703 74.8564 85.7987 74.2712 86.3055 74.2092C86.6434 74.1679 87.1234 74.2378 87.7456 74.4188C88.3679 74.5999 88.7574 74.9809 88.9142 75.5618L89.5112 77.289C90.3985 81.0381 90.9868 84.0951 91.2761 86.46C91.4949 87.5477 91.8471 90.0764 92.3328 94.0461C92.8184 98.0158 93.0862 100.555 93.136 101.663C93.711 107.765 94.0451 111.196 94.1381 111.956C94.2414 112.801 94.3508 113.345 94.4662 113.588C94.7731 113.293 94.9162 113.061 94.8955 112.892L96.153 104.252C96.9343 100.127 97.8086 96.7623 98.7759 94.158C99.0639 93.0083 99.4673 92.1017 99.9862 91.4381C100.548 90.4264 101.399 90.0223 102.538 90.2258C103.509 90.45 104.121 90.5466 104.374 90.5156C105.25 90.6656 105.903 91.1001 106.334 91.8189L107.326 93.6263L110.366 99.5553L110.539 99.9198C110.927 100.987 111.374 101.489 111.881 101.427C112.05 101.407 112.558 101.002 113.404 100.212C115.204 98.1062 116.284 96.7739 116.644 96.2154C116.856 95.8466 117.613 95.0254 118.915 93.7517C119.613 93.1519 120.357 92.9322 121.149 93.0926L124.029 93.5118C124.904 93.6619 125.642 94.086 126.242 94.7841L128.83 98.068L130.549 100.558L131.575 101.59C132.049 101.96 132.624 102.104 133.3 102.022C133.975 101.939 134.392 101.845 134.551 101.74C138.354 100.589 141.275 99.2458 143.316 97.7103L148.219 93.6386L149.98 92.2659C150.476 92.1194 150.899 92.0678 151.247 92.1109L151.642 92.1911C152.782 92.3946 153.362 92.5808 153.382 92.7498L153.398 92.8764C153.47 93.4677 153.1 93.9416 152.286 94.2984L149.302 97.2352C146.857 99.6774 143.644 101.442 139.663 102.529C137.92 103 136.795 103.266 136.288 103.328C133.67 103.648 130.922 103.256 128.043 102.151C127.221 101.737 126.468 101.186 125.784 100.498C125.299 100.043 124.411 98.7372 123.118 96.5807C122.572 95.6189 122.172 95.1534 121.919 95.1844C121.497 95.2361 121.026 95.5937 120.507 96.2572L118.839 98.3901L116.853 101.076C116.482 101.55 116.027 102.035 115.488 102.529C114.716 103.224 113.765 103.511 112.636 103.392L109.867 102.831C108.116 102.531 106.799 101.578 105.916 99.971C105.181 98.8609 104.651 97.6827 104.327 96.4364L103.164 93.2354C103.059 93.0768 102.921 93.0079 102.753 93.0285C102.658 92.9544 102.578 93.007 102.515 93.1862L101.545 94.7193C100.145 97.2909 98.9794 101.077 98.048 106.077C97.7048 108.177 97.4235 110.783 97.2043 113.896L96.7824 117.805L96.099 124.832C96.1179 125.687 96.0833 126.806 95.9952 128.188C96.0572 128.695 95.7875 128.942 95.1859 128.93C95.1014 128.941 94.7162 128.945 94.0302 128.943C93.4183 128.847 92.8064 128.75 92.1945 128.653ZM131.267 80.1532L130.618 80.104C127.04 80.2846 122.877 79.8937 118.13 78.9314C114.428 78.0984 110.677 77.5714 106.878 77.3504C106.446 77.3176 105.554 77.3838 104.202 77.5491C102.935 77.7041 101.684 77.9858 100.448 78.3942C98.9586 78.8336 97.8062 79.5746 96.9908 80.6174C96.5357 81.1017 96.5451 81.5291 97.0191 81.8998L97.73 82.4558C97.9196 82.604 98.0248 82.7626 98.0454 82.9315C98.0868 83.2694 97.854 83.4693 97.3473 83.5313C96.5871 83.6243 95.9494 83.3165 95.4341 82.608L94.2218 80.056C94.127 79.9819 94.0486 79.6914 93.9866 79.1846C93.9349 78.7623 94.0789 78.1875 94.4185 77.4601C94.9064 76.5432 95.6262 75.7693 96.5777 75.1386C97.2862 74.6233 98.417 74.0563 99.9701 73.4377C101.206 73.0293 102.415 72.7528 103.598 72.6081C104.865 72.4531 106.406 72.4361 108.221 72.5569C110.448 72.5417 113.218 72.76 116.53 73.212L120.962 73.6986C124.001 74.0126 126.797 74.0991 129.352 73.958L130.366 73.8341C131.801 73.6584 132.963 73.3448 133.851 72.8933C134.432 72.7365 134.691 72.4047 134.629 71.898C134.598 71.6446 134.709 71.5024 134.963 71.4714C135.047 71.4611 135.184 71.53 135.374 71.6783C136.108 73.4744 136.537 74.8793 136.661 75.8928L136.674 77.0486C136.598 77.8294 136.243 78.4301 135.608 78.8506C134.805 79.2917 133.358 79.7259 131.267 80.1532ZM160.117 113.915L155.15 112.208C153.98 111.751 152.879 110.814 151.849 109.397C150.608 107.663 149.791 105.191 149.398 101.981C148.861 97.5892 149.448 93.274 151.158 89.0356C151.72 88.0239 152.446 86.9493 153.335 85.8117L154.256 84.9276C154.552 84.5484 155.081 84.3123 155.841 84.2193C156.263 84.1677 156.701 84.2427 157.154 84.4444C157.428 84.5823 157.802 84.8366 158.276 85.2073C157.389 85.6588 156.721 86.5119 156.275 87.7667C154.883 91.1088 154.205 94.3208 154.239 97.4027C154.172 98.9541 154.236 100.532 154.432 102.137C154.463 102.39 154.687 103.52 155.104 105.527C155.69 107.512 156.498 109.214 157.529 110.631C158.149 111.498 158.755 111.895 159.346 111.823L160.329 111.445C161.892 110.911 163.241 109.675 164.376 107.736C165.648 105.523 166.298 103.128 166.326 100.553C166.511 98.559 166.467 97.1499 166.195 96.3259C166.112 95.6502 165.77 95.3063 165.168 95.2942L164.915 95.3252C163.215 95.4474 160.747 94.8921 157.51 93.6593L157.226 93.4369C156.14 92.9696 155.556 92.3982 155.473 91.7225C155.39 91.0468 155.608 90.3772 156.127 89.7136C156.912 88.4175 157.937 87.6919 159.204 87.5369C159.711 87.4749 160.318 87.5293 161.024 87.7C161.816 87.8604 163.292 88.3656 165.453 89.2156C166.539 89.6829 167.435 90.3449 168.139 91.2016C168.455 91.6774 168.903 91.8369 169.484 91.6801L172.938 90.486C176.974 89.135 179.957 88.2985 181.89 87.9764C182.819 87.8627 183.6 87.9387 184.232 88.2042L185.861 88.905C186.05 89.0533 186.15 89.1697 186.161 89.2541L185.827 89.6807C181.37 91.0833 178.724 91.8785 177.889 92.0663C176.062 92.547 173.543 93.3267 170.332 94.4053C169.866 94.8052 169.659 95.2162 169.711 95.6386C169.916 98.0138 169.798 100.557 169.358 103.268C168.495 106.717 167.67 109.09 166.886 110.386C166.25 111.493 165.456 112.361 164.504 112.992C163.806 113.592 162.993 113.949 162.063 114.062C161.472 114.135 160.823 114.085 160.117 113.915ZM163.384 93.3264L164.271 93.2179C165.116 93.1146 165.318 92.6613 164.876 91.858L164.261 91.0331C163.651 90.2505 163.135 89.885 162.713 89.9367C162.459 89.9677 162.058 90.1883 161.508 90.5984C160.725 91.2085 160.291 91.8618 160.204 92.5581C160.256 92.9804 160.456 93.2132 160.804 93.2563C162.102 93.3547 162.962 93.3781 163.384 93.3264ZM220.124 84.3276C220.155 84.581 220.007 84.7706 219.68 84.8964L218.252 85.8425C217.523 86.1889 215.599 87.2815 212.481 89.1203C211.276 89.7821 209.309 91.2229 206.58 93.4427C205.872 93.958 205.448 94.6957 205.308 95.6558C204.825 98.7152 203.65 102.074 201.783 105.731C200.692 107.322 199.992 108.265 199.686 108.56C199.093 109.318 198.358 109.622 197.483 109.472L195.536 109.324C194.924 109.228 194.545 108.931 194.398 108.435C194.293 108.276 194.199 107.859 194.117 107.183C194.024 106.423 194.052 105.605 194.202 104.73C194.319 104.287 194.787 103.201 195.604 101.472C197.311 98.6058 198.973 96.4307 200.592 94.9468C201.047 94.4625 201.36 93.867 201.531 93.1603C201.919 90.0267 201.927 86.9396 201.555 83.8989C201.348 82.2097 201.01 80.4937 200.54 78.751C200.226 77.5892 199.88 76.8601 199.5 76.5636C199.183 76.7738 198.765 77.2107 198.246 77.8743C197.6 78.8964 196.984 80.1718 196.4 81.7007C196.091 82.6814 195.761 83.8362 195.409 85.1652C195.057 86.4941 194.844 87.206 194.77 87.3007C193.884 91.2668 193.104 96.8058 192.431 103.918C192.253 107.368 192.165 110.851 192.166 114.366C192.177 114.45 192.144 114.883 192.068 115.664C192.076 116.434 192.075 117.12 192.062 117.722C192.088 120.033 192.312 125.364 192.733 133.713C193.122 138.295 193.348 140.839 193.409 141.346L193.748 145.162L193.934 146.682C193.996 147.189 193.784 147.558 193.298 147.789L191.19 148.433C190.768 148.484 190.494 148.346 190.368 148.019C190.063 147.627 189.769 146.978 189.487 146.069C189.456 145.816 189.201 144.433 188.722 141.919C188.185 137.527 187.769 133.078 187.475 128.57C186.986 121.772 186.457 116.05 185.889 111.405C185.527 108.448 185.253 106.553 185.065 105.719L184.241 100.033C182.928 89.3067 182.123 82.3756 181.825 79.2402C181.223 71.5129 180.83 66.546 180.646 64.3397C180.615 64.0863 180.591 63.1891 180.573 61.6481C180.691 61.2052 180.966 61.0001 181.398 61.0329L182.063 61.2088C183.023 61.3485 183.597 61.8355 183.785 62.6698C184.443 65.2468 185.057 68.5149 185.627 72.4743L189.246 98.9066C189.37 99.9201 189.595 100.707 189.921 101.267L190.296 96.9779C190.912 91.5018 191.807 86.5489 192.979 82.1191C193.267 80.9695 193.74 79.5828 194.399 77.9592C194.813 77.137 195.316 76.3468 195.909 75.5884C196.651 74.6405 197.501 74.2364 198.461 74.3761L201.184 74.5574C202.144 74.6971 202.934 75.2005 203.555 76.0676C204.585 77.4846 205.246 79.0325 205.537 80.7114C206.099 83.9003 206.292 86.5341 206.118 88.6129L206.146 89.8953L206.304 90.1332C206.483 90.197 206.647 90.1341 206.795 89.9445C207.028 89.7446 207.187 89.6394 207.271 89.6291C209.565 88.0625 212.573 86.3659 216.293 84.5392C216.937 84.2032 217.513 84.0041 218.02 83.9421C218.189 83.9215 218.621 83.9543 219.318 84.0405C219.74 83.9889 220.009 84.0846 220.124 84.3276ZM199.785 100.961L199.93 100.043L198.737 101.86C198.038 103.146 197.528 104.237 197.209 105.133C197.092 105.576 197.128 105.872 197.318 106.02C197.793 105.705 198.26 104.962 198.717 103.792C199.258 102.611 199.614 101.667 199.785 100.961ZM249.843 103.838L245.523 103.209C244.563 103.069 243.483 102.301 242.284 100.905C241.168 99.4984 240.333 97.9289 239.779 96.1965C239.401 95.214 238.905 93.2601 238.29 90.335C237.852 88.1596 237.448 85.5517 237.076 82.511C237.045 82.2576 237.009 81.962 236.967 81.6242C236.926 81.2863 236.885 80.9485 236.843 80.6106C236.802 80.2728 236.776 80.0616 236.766 79.9772C236.576 79.8289 236.418 79.934 236.29 80.2926L235.731 82.0326C233.752 88.2755 231.436 93.8738 228.785 98.8274C227.788 100.492 227.179 101.467 226.956 101.751C226.512 102.32 225.894 102.524 225.103 102.364L222.349 101.929C221.136 101.821 220.203 101.206 219.552 100.086C218.659 98.3945 218.025 96.7147 217.649 95.0461L217.073 91.3875C217.032 91.0497 216.899 89.2656 216.676 86.0354C216.6 82.6156 216.68 80.1197 216.917 78.5478C217.131 77.4929 217.407 76.9448 217.744 76.9035C217.998 76.8725 218.478 76.9423 219.184 77.113C219.891 77.2838 220.296 77.7914 220.399 78.6361C221.064 82.6696 221.433 84.9819 221.505 85.5732C222.005 88.2553 222.698 91.4709 223.586 95.22C223.732 95.7164 224.04 96.836 224.511 98.5787C224.532 98.7476 224.589 98.8691 224.684 98.9433C224.853 98.9226 224.974 98.8649 225.049 98.7701C225.831 98.16 226.493 97.2646 227.035 96.0839C228.391 93.8605 229.622 91.3096 230.728 88.4312C232.353 84.2032 233.902 79.3417 235.373 73.8467L236.237 70.3977C236.545 69.417 236.733 68.494 236.798 67.6287C236.8 66.9427 236.982 65.9774 237.344 64.733C237.387 64.3848 237.625 64.2271 238.058 64.2599L240.827 64.8213C241.449 65.0023 241.923 65.373 242.249 65.9332C242.7 66.8209 242.95 68.162 242.998 69.9564L243.406 77.4932C243.629 80.7234 243.984 84.3234 244.47 88.2931C244.687 90.0668 245.266 92.6963 246.206 96.1817C246.666 97.84 247.327 99.3879 248.189 100.826C248.515 101.386 248.762 101.656 248.931 101.635C249.269 101.594 249.586 101.383 249.882 101.004C251.056 100.089 252.03 98.9411 252.804 97.5606C253.515 96.3592 254.788 93.8031 256.624 89.8923C258.322 86.2555 259.416 83.6356 259.906 82.0327C260.194 80.883 260.597 79.9764 261.116 79.3128C261.487 78.8388 261.846 78.6234 262.195 78.6666C263.587 78.8391 264.426 79.0365 264.71 79.2589C264.2 80.693 263.733 81.7788 263.308 82.5165C262.396 84.1712 261.51 86.037 260.65 88.1139L257.751 94.898C256.328 97.9867 255.135 100.147 254.172 101.38L252.806 102.832C251.96 103.622 250.972 103.957 249.843 103.838ZM267.902 102.657C266.067 102.368 264.613 101.345 263.541 99.5904C262.448 97.6667 261.788 95.7757 261.561 93.9175C260.689 88.1948 260.5 83.8459 260.994 80.8709C261.059 80.0056 261.246 79.0826 261.555 78.1019L262.191 76.9953C262.488 76.6162 262.773 76.4955 263.047 76.6335C264.714 76.9439 265.921 77.3534 266.669 77.862C265.907 78.641 265.434 80.0277 265.249 82.0219C265.066 83.3302 265.176 85.6313 265.579 88.9253C265.724 90.1078 266.046 92.0401 266.546 94.7222C267.037 96.6338 267.75 98.2611 268.686 99.6039C269.012 100.164 269.259 100.434 269.428 100.413C269.512 100.403 269.867 100.145 270.491 99.6403C271.485 98.6614 272.285 97.4919 272.89 96.132C273.951 94.2878 274.821 92.2953 275.502 90.1546C277.268 84.9665 278.426 80.067 278.976 75.4562C279.063 74.7599 279.101 74.3695 279.09 74.285C279.059 74.0316 278.959 73.9152 278.79 73.9359C278.284 73.9979 277.719 73.9384 277.097 73.7573C276.549 73.4815 275.916 73.216 275.199 72.9608C274.556 72.6108 274.145 72.4039 273.966 72.3401C271.984 71.5539 270.848 69.9783 270.559 67.6134C270.059 64.9313 270.641 62.3312 272.305 59.813C272.972 58.9599 273.427 58.4756 273.67 58.3601C274.22 57.9499 274.749 57.7139 275.255 57.6519C275.678 57.6002 276.158 57.6701 276.695 57.8615L279.146 58.9761C280.053 59.3795 280.695 60.0725 281.072 61.0551C281.524 61.9428 281.827 63.0202 281.982 64.2871C282.034 64.7094 282.068 65.691 282.085 67.232L282.098 68.3877C282.034 68.567 282.055 68.7359 282.16 68.8945C282.339 68.9583 282.55 68.9325 282.793 68.817C283.998 68.1553 285.135 67.2875 286.204 66.2138C286.976 65.5192 287.447 65.1616 287.616 65.1409C287.869 65.1099 288.407 65.3013 289.229 65.7151C290.062 66.2133 290.61 66.4892 290.873 66.5426C291.759 66.7772 292.275 67.4857 292.419 68.6681C292.471 69.0904 292.543 69.6817 292.636 70.4418C292.729 71.202 292.759 71.7984 292.727 72.231L292.586 77.3917C292.497 79.4601 292.509 82.7162 292.624 87.1598C292.82 88.7646 293.086 90.2324 293.42 91.5631L293.624 92.181C293.865 92.7516 294.177 92.8421 294.558 92.4526C296.387 91.2859 297.793 90.1708 298.778 89.1074C300.038 87.4959 301.097 85.9947 301.956 84.6038L306.122 77.6647L307.379 75.3249L308.317 73.5384C308.741 72.8007 309.165 72.4061 309.587 72.3544C309.925 72.3131 310.42 72.5096 311.073 72.9441C311.253 73.0079 311.321 73.2139 311.278 73.562C310.948 74.3739 310.561 75.0641 310.117 75.6329C308.55 77.5391 306.652 80.6002 304.425 84.8161C302.94 87.398 301.944 89.063 301.435 89.811C300.641 91.0227 299.481 92.4075 297.957 93.9655C297.111 94.7549 296.392 95.1857 295.801 95.2581C295.294 95.3201 294.724 95.2183 294.092 94.9528C293.723 94.7407 292.827 94.4218 291.403 93.9958C288.988 93.1768 287.441 91.3944 286.763 88.6485C286.626 88.2365 286.455 87.1859 286.248 85.4966C286.042 83.8074 285.955 82.7465 285.988 82.3138C285.95 80.6039 286.01 77.9391 286.167 74.3194C286.157 74.2349 286.189 73.8023 286.265 73.0215C286.415 72.1459 286.507 71.4917 286.54 71.0591C286.519 70.8902 286.419 70.7738 286.24 70.71C286.145 70.6359 286.06 70.6462 285.986 70.741L282.245 72.7418C281.917 72.8676 281.7 73.1942 281.593 73.7216L281.094 76.9974C280.373 82.3149 279.044 87.9211 277.108 93.8159C276.852 94.5329 276.491 95.4343 276.024 96.5202C275.631 97.5113 275.376 98.2283 275.258 98.6713C274.579 100.126 273.98 101.185 273.461 101.849C272.794 102.702 272.08 103.175 271.32 103.268C271.236 103.278 270.845 103.24 270.149 103.154C269.422 102.814 268.673 102.649 267.902 102.657ZM278.768 70.5954C279.338 70.3542 279.629 69.9327 279.642 69.3312C279.73 67.9488 279.686 66.5397 279.51 65.1038C279.376 64.0058 279.173 63.0448 278.9 62.2209C278.797 61.3763 278.429 60.8212 277.797 60.5557C277.553 60.6712 277.146 61.1925 276.573 62.1198L276.382 62.6576C275.616 64.8086 275.332 66.6866 275.528 68.2913C275.652 69.3049 275.84 70.1392 276.092 70.7942C276.133 71.132 276.322 71.2803 276.66 71.239C277.083 71.1873 277.785 70.9728 278.768 70.5954ZM361.739 86.6771C360.619 83.1279 359.961 80.5509 359.764 78.9462L358.059 65.01C357.739 62.3917 357.287 59.7466 356.703 57.0749C356.631 56.4836 356.442 55.9923 356.137 55.601C355.735 55.8216 355.481 56.1956 355.374 56.7231C354.907 57.8089 354.22 60.2505 353.312 64.0476L351.662 71.5791C351.364 72.6443 351.091 73.9207 350.845 75.4082C350.598 76.8957 350.341 78.2987 350.074 79.6173C349.891 80.9256 349.778 81.7538 349.735 82.102L348.865 87.6091L348.705 88.4002C348.524 89.0225 348.212 89.2749 347.769 89.1577L347.373 89.0775C346.065 88.8946 345.385 88.592 345.333 88.1697C345.251 87.494 345.236 87.0243 345.29 86.7606C345.318 79.9848 346.06 72.7359 347.516 65.014C347.924 62.0493 348.538 59.3596 349.357 56.9448C349.72 55.7003 350.213 54.4826 350.839 53.2916C351.634 52.0799 352.274 51.3586 352.761 51.1277C353.638 50.5917 354.393 50.4565 355.026 50.722L358.49 51.7127C359.292 51.9575 359.876 52.529 360.243 53.4271C360.715 54.4837 361.054 55.8567 361.261 57.5459C361.408 58.0424 361.589 59.1774 361.806 60.9511C362.023 62.7248 362.121 63.8702 362.098 64.3873C362.372 68.7259 362.564 71.7027 362.676 73.3178L362.965 77.783C363.241 81.4356 363.819 84.4081 364.699 86.7007C364.908 87.7039 365.207 88.396 365.596 88.777C365.901 89.1683 366.165 89.2218 366.387 88.9374C367.349 88.3911 368.169 87.7336 368.846 86.9649C369.81 85.7326 370.721 84.421 371.58 83.03L374.763 76.4683L376.705 72.3731L378.521 68.2933L380.303 64.9892C380.653 64.3463 381.223 64.105 382.014 64.2654C382.721 64.4362 382.889 64.7585 382.518 65.2325C379.463 71.0927 377.336 75.4249 376.136 78.2292L374.178 82.1978C373.244 84.3695 372.205 86.0397 371.062 87.2082C370.321 88.1561 369.559 88.9352 368.776 89.5453C368.226 89.9554 367.397 90.1855 366.289 90.2353C364.031 89.9972 362.514 88.8111 361.739 86.6771ZM387.392 93.8259L386.205 93.5853L383.325 93.1662C382.196 93.0471 381.527 92.486 381.319 91.4828C380.743 89.5815 380.445 88.5464 380.424 88.3774C380.082 86.2762 379.825 83.4787 379.655 79.9847L379.536 76.9131C379.423 75.984 379.333 73.8518 379.268 70.5165C379.087 66.9381 379.034 63.3442 379.106 59.7348L379.193 50.9802C379.284 48.2258 379.41 46.453 379.571 45.6618C379.56 45.5774 379.609 45.2714 379.716 44.744C379.897 44.1218 380.251 43.8641 380.778 43.971L381.032 43.94C382.655 44.5987 383.493 45.1391 383.545 45.5614L383.508 47.3661C383.511 50.1947 383.544 51.8624 383.606 52.3691L384.135 61.9486C384.404 64.1446 384.537 65.5856 384.535 66.2716C384.966 71.1911 385.227 74.0309 385.32 74.791L386.175 80.7301C386.248 81.3213 386.337 81.6962 386.442 81.8548L386.584 81.966L386.822 81.8083L387.013 81.2706C388.4 75.7859 390.467 70.2609 393.215 64.6954C393.81 63.251 394.108 62.1858 394.11 61.4998C394.25 60.5397 394.654 59.2901 395.323 57.7509L396.182 56.36C396.849 55.5069 397.309 55.0648 397.562 55.0338C397.731 55.0131 398.132 55.1356 398.765 55.4011L399.176 55.608C399.345 55.5873 399.461 55.4873 399.525 55.3081C399.673 55.1185 399.774 54.8918 399.827 54.6281L399.923 54.3592L400.67 53.1105C401.105 52.4573 401.66 52.0893 402.336 52.0067C402.842 51.9447 403.412 52.0464 404.045 52.312L404.725 52.6145C406.886 53.4646 408.154 55.0669 408.527 57.4215L408.62 58.1816C408.755 59.2796 408.741 60.5672 408.579 62.0444L408.286 64.9091C408.064 65.1935 408.206 65.3047 408.713 65.2427C409.05 65.2014 409.256 65.1333 409.331 65.0385C411.475 64.3476 413.129 63.5023 414.293 62.5027L417.02 60.6259L418.417 59.4263C419.136 58.9955 419.579 58.7697 419.748 58.7491C420.086 58.7077 420.634 58.9836 421.393 59.5766C421.413 59.7456 421.275 60.0196 420.979 60.3988L416.283 64.0594C415.109 64.9745 413.297 65.9249 410.846 66.9106C410.032 67.2673 409.367 67.4344 408.849 67.412L408.596 67.443C408.005 67.5153 407.587 67.9522 407.342 68.7537L406.638 71.4115C406.361 72.6457 405.877 73.9479 405.187 75.3181L404.218 76.8512C403.466 77.7147 402.637 77.9447 401.73 77.5413L397.824 76.0904C396.474 75.5697 395.485 74.4905 394.856 72.853C394.468 71.7859 394.202 70.6612 394.057 69.4788C394.026 69.2254 393.926 69.109 393.758 69.1297C393.589 69.1503 393.514 69.2451 393.535 69.4141C393.121 70.2362 392.76 71.1377 392.451 72.1184C391.388 75.3347 390.454 79.2637 389.65 83.9055L388.139 92.5772L387.979 93.3684C387.841 93.6424 387.645 93.7949 387.392 93.8259ZM406.132 65.1726C406.644 63.0525 406.856 60.9264 406.766 58.7942C406.529 56.8516 406 55.3303 405.179 54.2305C404.6 53.7013 404.083 53.6788 403.628 54.1631C403.247 54.5527 402.956 54.9741 402.754 55.4274C402.246 56.1754 401.932 57.1139 401.813 58.2429C401.809 59.615 401.823 60.4277 401.854 60.6811C402.05 62.2858 402.653 63.7123 403.663 64.9603C404.063 65.4258 404.569 65.7068 405.181 65.8034C405.529 65.8465 405.846 65.6362 406.132 65.1726ZM401.485 74.4852L401.612 74.4697C402.034 74.418 402.378 74.0759 402.643 73.4433C403.385 72.4954 404.276 70.6718 405.318 67.9726C405.519 67.5193 405.388 67.1496 404.925 66.8634C403.111 66.0565 401.768 65.235 400.894 64.3989L400.499 64.3188C400.35 64.5083 400.281 64.6454 400.292 64.7298C400.171 66.5449 400.193 68.1281 400.358 69.4795L400.656 70.8576L400.919 73.0113C401.022 73.856 401.211 74.3472 401.485 74.4852ZM427.538 78.6275L423.078 76.8585C420.822 75.9344 419.253 74.326 418.373 72.0334C417.649 70.3217 417.179 68.579 416.962 66.8053C416.755 65.1161 416.808 63.0951 417.12 60.7423C417.391 58.0516 418.247 55.5894 419.688 53.3557C420.25 52.344 420.923 51.533 421.705 50.9229C422.255 50.5128 422.826 50.2715 423.417 50.1992C423.501 50.1889 423.892 50.2268 424.588 50.3131C426.276 50.7925 427.72 51.3873 428.921 52.0976L429.617 52.5269C429.837 52.9285 429.879 53.2663 429.741 53.5404L429.534 53.9515C429.449 53.9618 429.306 54.1936 429.105 54.6469C428.893 55.0158 428.697 55.1683 428.518 55.1045C428.17 55.0614 427.939 54.5753 427.825 53.6462L427.479 52.917C427.279 52.6843 427.052 52.5834 426.799 52.6144C425.87 52.7281 425.129 53.333 424.577 54.4292C423.614 55.6616 422.982 57.1533 422.682 58.9046C421.882 62.1743 421.82 65.5252 422.497 68.9571C422.84 71.0583 423.626 72.9338 424.857 74.5835C425.362 75.2075 425.741 75.504 425.995 75.473C426.248 75.442 426.618 75.3111 427.104 75.0801C428.15 74.5235 428.912 73.7445 429.39 72.7431C430.777 70.7731 431.617 68.5272 431.909 66.0055C432.283 64.1594 432.325 62.054 432.036 59.689C432.005 59.4356 431.781 58.3057 431.364 56.2993C429.702 50.4162 427.292 45.4388 424.137 41.3671C422.191 38.7762 419.818 36.1947 417.017 33.6227C415.48 32.2677 414.158 31.2721 413.051 30.6359L409.29 28.2672L409.005 28.0448C407.993 27.4827 407.431 26.7372 407.317 25.8081C407.193 24.7946 407.554 23.8931 408.401 23.1038C409.311 22.1352 410.649 21.1571 412.414 20.1696C415.965 18.3636 419.974 16.8015 424.442 15.4834C428.583 14.2911 433.325 13.1109 438.668 11.9428C442.026 11.3606 444.169 11.0126 445.098 10.899C445.352 10.868 447.6 10.6786 451.844 10.3309C452.435 10.2586 453.015 10.4448 453.584 10.8896L455.337 12.604C455.716 12.9005 455.737 13.0694 455.399 13.1108C455.314 13.1211 455.23 13.1314 455.146 13.1418C453.699 13.2329 451.809 13.5499 449.475 14.0926L446.704 14.5603C440.971 15.3474 436.694 16.1277 433.874 16.9013C427.706 18.3417 422.742 19.8062 418.981 21.2951C416.361 22.3014 414.659 23.1096 413.877 23.7197C412.925 24.3505 412.264 24.9029 411.893 25.3768C411.3 26.1352 411.03 26.7255 411.081 27.1478C411.143 27.6546 411.501 28.1252 412.154 28.5597C413.481 29.5975 414.372 30.2172 414.825 30.4189C418.324 32.3912 421.899 35.34 425.551 39.2652C428.014 41.8786 429.739 44.0679 430.727 45.833C433.458 50.6424 435.225 55.2699 436.026 59.7153C436.346 62.3336 436.222 65.1777 435.655 68.2475C435.334 69.8298 434.791 71.6965 434.025 73.8476C433.272 75.3971 432.482 76.651 431.657 77.6093C430.81 78.3986 430.049 78.8346 429.373 78.9173C428.951 78.969 428.339 78.8724 427.538 78.6275ZM484.566 52.1054C484.587 52.2743 484.29 52.6535 483.677 53.243L478.487 58.1213C477.006 59.3311 475.556 60.7944 474.137 62.511C473.608 63.0901 473.39 63.7597 473.483 64.5199C473.728 67.919 473.175 71.4586 471.825 75.1385C471.006 77.5533 469.787 79.5026 468.168 80.9865L466.867 81.9172C466.149 82.348 465.52 82.4677 464.983 82.2764L462.04 81.3504C461.692 81.3073 461.482 80.9901 461.41 80.3989C461.358 79.9766 461.433 79.5387 461.635 79.0854C462.093 77.2291 462.991 75.1047 464.327 72.7124L466.665 68.6973C467.015 68.0545 467.233 67.3848 467.319 66.6885C467.497 63.2377 467.409 60.4194 467.056 58.2338C466.881 56.7979 466.588 55.805 466.177 55.2551C465.502 55.3378 464.867 55.7583 464.274 56.5167C463.385 57.6542 462.775 58.6289 462.446 59.4407C461.798 61.1488 461.239 62.8888 460.77 64.6607C460.085 68.1735 459.382 72.5886 458.661 77.9061L457.675 85.6135L457.21 88.1136C456.955 88.8306 456.4 89.1986 455.545 89.2174C455.196 89.1743 454.147 89.0027 452.395 88.7026C451.266 88.5835 450.418 87.9586 449.851 86.8278C449.546 86.4365 449.069 85.3376 448.419 83.5311C447.572 80.8058 446.967 77.9651 446.605 75.009C446.14 71.2082 445.741 66.5421 445.407 61.0108C445.168 55.5536 445.054 50.7669 445.065 46.6507C445.098 46.2181 445.153 45.2683 445.231 43.8015C445.181 42.6932 445.266 40.5825 445.485 37.4696C445.856 32.795 446.627 28.5858 447.798 24.8421C448.51 22.9548 449.268 21.4475 450.073 20.3203C450.625 19.2241 451.514 18.4295 452.739 17.9367C453.226 17.7058 453.68 17.5645 454.102 17.5128C454.609 17.4508 455.126 17.4733 455.653 17.5802L457.282 18.2811L459.322 19.1888C460.756 19.6992 461.629 20.8783 461.941 22.7261C462.096 23.9931 462.092 25.3651 461.93 26.8423C461.733 29.4381 460.819 33.8791 459.188 40.1652C457.451 46.2927 455.362 52.3349 452.919 58.2917C452.239 59.7464 452.008 61.3606 452.225 63.1343C452.442 64.908 452.534 66.0111 452.501 66.4438L452.793 69.88C452.843 70.9883 453.1 73.4429 453.565 77.2436C453.689 78.2572 454.002 79.762 454.503 81.7581C454.534 82.0115 454.634 82.1278 454.803 82.1072C454.993 82.2554 455.146 82.1081 455.264 81.6651C455.243 81.4962 455.254 81.2376 455.297 80.8894C455.425 80.5309 455.515 80.2198 455.569 79.9561L457.53 68.6576C458.035 65.081 458.676 62.2594 459.452 60.1927C459.74 59.0431 460.197 57.8727 460.823 56.6818C461.543 55.5649 462.168 54.7169 462.697 54.1378C463.321 53.6328 463.929 53.3442 464.52 53.2719C464.605 53.2615 464.995 53.2995 465.692 53.3857C466.06 53.5978 466.999 53.9116 468.507 54.3272C470.11 54.8169 471.258 55.7909 471.951 57.2492L472.925 59.959L473.179 59.928C473.432 59.897 473.744 59.6445 474.115 59.1705L478.464 54.7808L480.75 52.4437L481.797 51.5441C482.242 50.9753 482.659 50.8814 483.048 51.2624L483.191 51.3736C484.077 51.6081 484.535 51.852 484.566 52.1054ZM451.81 52.3836L452.076 53.5083C452.299 53.224 452.442 52.9921 452.505 52.8129C452.485 52.644 452.506 52.4699 452.57 52.2906C452.718 52.101 452.819 51.8744 452.873 51.6106C453 51.2521 453.091 50.941 453.144 50.6773C455.324 44.6671 456.843 38.8662 457.702 33.2746C458.421 28.6432 458.725 25.5199 458.613 23.9048L458.396 22.1311C458.355 21.7932 458.239 21.5502 458.05 21.4019C457.87 21.3381 457.67 21.4484 457.447 21.7328C456.389 22.891 455.562 24.1923 454.967 25.6367C453.778 28.5254 452.995 31.2358 452.619 33.7679C451.918 39.2543 451.649 45.4595 451.81 52.3836ZM451.965 53.6505L451.949 53.5238L451.965 53.6505ZM514.364 71.4775L510.043 70.8487C509.083 70.709 508.003 69.941 506.804 68.5447C505.689 67.138 504.854 65.5685 504.299 63.8361C503.922 62.8536 503.425 60.8997 502.81 57.9746C502.373 55.7992 501.968 53.1913 501.596 50.1506C501.565 49.8972 501.529 49.6016 501.487 49.2638C501.446 48.9259 501.405 48.5881 501.364 48.2502C501.322 47.9124 501.296 47.7012 501.286 47.6168C501.096 47.4685 500.938 47.5736 500.81 47.9322L500.252 49.6722C498.272 55.9151 495.957 61.5134 493.305 66.467C492.308 68.1319 491.699 69.1066 491.477 69.391C491.032 69.9598 490.414 70.164 489.623 70.0036L486.869 69.5689C485.656 69.4602 484.723 68.8456 484.072 67.7251C483.179 66.0341 482.545 64.3543 482.17 62.6857L481.593 59.0271C481.552 58.6893 481.42 56.9052 481.196 53.675C481.12 50.2552 481.201 47.7593 481.437 46.1874C481.651 45.1325 481.927 44.5844 482.265 44.5431C482.518 44.5121 482.998 44.5819 483.705 44.7526C484.411 44.9234 484.816 45.431 484.92 46.2757C485.585 50.3092 485.953 52.6215 486.026 53.2128C486.525 55.8949 487.219 59.1105 488.106 62.8596C488.252 63.356 488.561 64.4756 489.031 66.2183C489.052 66.3872 489.11 66.5087 489.204 66.5829C489.373 66.5622 489.495 66.5045 489.569 66.4097C490.352 65.7996 491.014 64.9042 491.555 63.7235C492.912 61.5001 494.143 58.9492 495.248 56.0708C496.874 51.8428 498.422 46.9813 499.893 41.4863L500.757 38.0373C501.066 37.0566 501.253 36.1336 501.318 35.2683C501.32 34.5823 501.502 33.617 501.864 32.3726C501.907 32.0244 502.145 31.8667 502.578 31.8995L505.347 32.4609C505.969 32.6419 506.443 33.0126 506.769 33.5728C507.22 34.4605 507.47 35.8016 507.518 37.596L507.926 45.1328C508.15 48.363 508.504 51.963 508.99 55.9327C509.207 57.7064 509.786 60.3359 510.727 63.8213C511.187 65.4796 511.847 67.0275 512.709 68.4652C513.035 69.0254 513.282 69.2952 513.451 69.2745C513.789 69.2332 514.106 69.0229 514.403 68.6438C515.577 67.7286 516.551 66.5807 517.325 65.2002C518.035 63.9988 519.308 61.4427 521.144 57.5319C522.843 53.8951 523.937 51.2752 524.426 49.6723C524.714 48.5226 525.118 47.616 525.637 46.9524C526.007 46.4784 526.367 46.263 526.715 46.3062C528.108 46.4787 528.946 46.6761 529.23 46.8985C528.72 48.3326 528.253 49.4184 527.829 50.1561C526.917 51.8108 526.031 53.6766 525.17 55.7535L522.271 62.5376C520.849 65.6263 519.656 67.7868 518.692 69.0191L517.327 70.472C516.48 71.2614 515.493 71.5965 514.364 71.4775ZM76.8069 248.832C74.9438 246.917 73.8968 245.716 73.6659 245.23C68.6387 238.473 64.8033 231.998 62.1599 225.806C60.6486 222.562 59.432 219.625 58.5101 216.994C58.0483 216.022 57.5873 214.707 57.1273 213.049C57.1169 212.964 57.0644 212.885 56.9696 212.811C56.9593 212.726 56.917 212.732 56.8429 212.826C56.7584 212.837 56.6421 212.937 56.4938 213.126L53.3487 223.155C52.1882 226.983 50.6012 230.478 48.5876 233.639L45.6008 237.605C44.4889 239.027 43.1728 239.831 41.6525 240.017L38.0249 240.846L37.2802 241.066C36.0133 241.221 34.8585 240.891 33.8157 240.075C30.5496 237.903 28.1815 235.364 26.7116 232.458C25.2312 229.467 23.9311 226.197 22.8111 222.648L20.8649 216.199L19.6425 211.462C19.1101 209.213 18.7078 207.676 18.4355 206.852C17.6103 203.61 16.9642 200.431 16.4974 197.317C16.258 196.06 15.8696 193.236 15.3323 188.844C15.0017 186.141 14.7779 182.911 14.6612 179.153L14.4375 167.865C14.3602 165.131 14.5166 161.854 14.9065 158.034C15.2273 156.452 15.4196 155.571 15.4834 155.392C15.6851 154.939 15.9127 154.697 16.1661 154.666C16.4195 154.635 17.2054 154.753 18.524 155.02C19.1463 155.201 19.4935 155.587 19.5659 156.179L19.6744 157.065L21.2108 174.88L21.3813 176.273C21.6463 179.841 21.8098 181.879 21.8718 182.386L22.5255 186.678C22.6908 188.029 22.8415 188.911 22.9777 189.323C23.3083 192.026 23.7708 194.755 24.3652 197.511L25.0216 200.774C25.2282 202.464 25.4048 203.556 25.5512 204.053C26.1972 207.231 26.6771 209.402 26.9906 210.563L27.9442 215.204C29.207 220.622 30.9405 225.682 33.1446 230.385C34.3198 232.984 35.7287 235.041 37.3712 236.554C37.9607 237.168 38.6242 237.687 39.3619 238.111C39.9307 238.556 40.5271 238.526 41.1511 238.021C42.6854 236.547 43.8025 235.167 44.5024 233.882C45.6575 232.111 47.0048 229.461 48.5445 225.929C49.9772 222.925 51.4023 218.807 52.8197 213.576L54.832 206.9C54.9924 206.109 55.0209 205.291 54.9176 204.446C53.7495 199.103 53.0002 195.08 52.6695 192.377C52.2666 189.083 51.9395 185.008 51.6884 180.153L51.433 174.912C51.3872 168.231 52.0885 162.401 53.537 157.423C54.1336 155.293 54.7552 153.717 55.4017 152.695L56.736 150.988C57.5083 150.294 58.3322 150.021 59.2079 150.172C60.0938 150.406 61.0117 150.551 61.9614 150.606C62.837 150.756 63.4902 151.191 63.9211 151.91C64.4777 152.956 64.8025 153.859 64.8955 154.619C65.1866 156.298 65.3277 158.853 65.3187 162.283C65.0096 167.464 64.1625 174.554 62.7773 183.554C62.0028 189.135 60.9594 194.62 59.647 200.01C59.528 201.139 59.552 202.036 59.7191 202.702C60.4685 206.725 61.2989 210.01 62.2105 212.556L64.9916 220.574C66.5735 225.095 68.8723 229.872 71.8882 234.903L76.9343 242.516L79.6461 246.813C79.877 247.299 79.8287 247.605 79.5012 247.731L77.9782 248.946C77.4921 249.177 77.1016 249.139 76.8069 248.832ZM58.4381 190.128C59.7006 183.63 60.576 177.822 61.0643 172.705C61.7854 167.387 62.066 163.024 61.9061 159.614C61.9492 159.266 61.9036 158.543 61.7693 157.445C61.6143 156.178 61.3326 154.927 60.9243 153.691C60.8933 153.437 60.7933 153.321 60.6244 153.342C60.371 153.373 60.2072 153.435 60.1331 153.53L59.2409 155.697C58.177 158.913 57.4379 163.033 57.0237 168.055C56.8372 170.736 56.7826 173.443 56.8599 176.177L57.0789 183.222L57.4017 186.912L57.9286 191.219C58.1613 191.019 58.3312 190.656 58.4381 190.128ZM82.6719 212.11L80.1562 211.517C77.9517 211.016 76.3031 209.803 75.2105 207.879C73.7181 205.49 72.8858 202.891 72.7137 200.083C72.2488 196.283 72.2793 192.678 72.8054 189.271C73.3971 184.998 74.7524 181.36 76.8711 178.358C78.0262 176.588 79.1433 175.208 80.2224 174.219L81.5075 173.161C82.0574 172.751 82.7702 172.621 83.6458 172.771L86.177 173.49C86.9147 173.914 86.9982 174.247 86.4276 174.488C85.3898 175.815 84.6218 176.895 84.1236 177.728C81.8117 181.954 80.3547 186.161 79.7526 190.35C79.5249 192.692 79.3548 195.156 79.2425 197.742C79.2097 198.174 79.2966 199.235 79.5033 200.924C79.665 203.648 80.0552 205.786 80.6738 207.339C80.8719 208.258 81.2338 209.114 81.7594 209.907C81.9162 210.488 82.2902 210.742 82.8815 210.67C83.8105 210.556 84.9465 210.031 86.2894 209.095C87.5477 208.17 88.6217 207.138 89.5113 206.001C90.4111 204.948 92.1541 202.377 94.7401 198.289L98.8906 191.223C99.4733 190.38 99.8491 189.949 100.018 189.928C100.271 189.897 100.709 189.972 101.331 190.153L102.011 190.456C102.191 190.519 102.259 190.725 102.216 191.073L102.009 191.485L100.514 193.982C97.397 199.335 95.0231 203.055 93.3922 205.14C92.5872 206.268 91.7347 207.358 90.8348 208.411C89.6177 209.674 88.1637 210.752 86.4726 211.645C85.3108 211.958 84.6877 212.12 84.6033 212.131C84.5188 212.141 83.875 212.134 82.6719 212.11ZM103.245 218.98C102.643 218.968 102.179 218.682 101.854 218.121L100.184 214.982C98.9879 212.214 98.173 209.056 97.739 205.509C97.3877 202.637 97.1071 198.942 96.8974 194.424L96.8098 191.606C96.7343 188.186 96.6552 186.139 96.5726 185.463C96.3336 180.006 96.2633 176.628 96.3617 175.33L96.6704 166.291C96.6205 165.183 96.849 164.598 97.3557 164.536C97.6936 164.494 98.1736 164.564 98.7958 164.745C99.4181 164.926 99.8076 165.307 99.9644 165.888L100.561 167.616C101.449 171.365 102.037 174.422 102.326 176.787C102.545 177.874 102.897 180.403 103.383 184.373C103.869 188.342 104.136 190.881 104.186 191.99C104.761 198.092 105.095 201.523 105.188 202.283C105.292 203.127 105.401 203.671 105.516 203.914C105.823 203.62 105.966 203.388 105.946 203.219L107.203 194.578C107.985 190.453 108.859 187.089 109.826 184.485C110.114 183.335 110.518 182.428 111.036 181.765C111.598 180.753 112.449 180.349 113.588 180.552C114.559 180.777 115.171 180.873 115.424 180.842C116.3 180.992 116.953 181.427 117.384 182.145L118.376 183.953L121.416 189.882L121.59 190.246C121.977 191.313 122.425 191.816 122.931 191.754C123.1 191.733 123.608 191.328 124.454 190.539C126.254 188.433 127.334 187.1 127.694 186.542C127.907 186.173 128.663 185.352 129.965 184.078C130.663 183.479 131.408 183.259 132.199 183.419L135.079 183.838C135.955 183.988 136.692 184.413 137.292 185.111L139.88 188.395L141.599 190.885L142.625 191.916C143.099 192.287 143.674 192.431 144.35 192.348C145.025 192.266 145.443 192.172 145.601 192.067C149.404 190.916 152.326 189.572 154.367 188.037L159.269 183.965L161.03 182.592C161.527 182.446 161.949 182.394 162.297 182.437L162.693 182.518C163.832 182.721 164.412 182.907 164.433 183.076L164.448 183.203C164.52 183.794 164.15 184.268 163.336 184.625L160.352 187.562C157.908 190.004 154.695 191.769 150.713 192.856C148.97 193.326 147.845 193.592 147.339 193.654C144.72 193.975 141.972 193.582 139.093 192.477C138.271 192.063 137.518 191.513 136.834 190.825C136.35 190.37 135.461 189.064 134.169 186.907C133.622 185.945 133.222 185.48 132.969 185.511C132.547 185.563 132.076 185.92 131.557 186.584L129.889 188.717L127.903 191.403C127.533 191.877 127.078 192.361 126.538 192.856C125.766 193.55 124.815 193.838 123.686 193.719L120.917 193.158C119.166 192.858 117.849 191.904 116.967 190.298C116.231 189.187 115.701 188.009 115.377 186.763L114.214 183.562C114.109 183.403 113.972 183.334 113.803 183.355C113.708 183.281 113.629 183.334 113.565 183.513L112.595 185.046C111.195 187.618 110.03 191.403 109.098 196.404C108.755 198.503 108.474 201.109 108.254 204.222L107.833 208.132L107.149 215.159C107.168 216.014 107.134 217.133 107.045 218.515C107.107 219.022 106.838 219.269 106.236 219.257C106.152 219.267 105.766 219.272 105.08 219.27C104.468 219.173 103.857 219.077 103.245 218.98ZM142.317 170.48L141.668 170.431C138.09 170.611 133.927 170.22 129.18 169.258C125.478 168.425 121.727 167.898 117.928 167.677C117.496 167.644 116.604 167.71 115.252 167.876C113.985 168.031 112.734 168.312 111.498 168.721C110.009 169.16 108.856 169.901 108.041 170.944C107.586 171.428 107.595 171.856 108.069 172.226L108.78 172.782C108.97 172.931 109.075 173.089 109.096 173.258C109.137 173.596 108.904 173.796 108.397 173.858C107.637 173.951 107 173.643 106.484 172.935L105.272 170.383C105.177 170.308 105.099 170.018 105.037 169.511C104.985 169.089 105.129 168.514 105.469 167.787C105.957 166.87 106.676 166.096 107.628 165.465C108.336 164.95 109.467 164.383 111.02 163.764C112.256 163.356 113.465 163.079 114.648 162.935C115.915 162.78 117.456 162.763 119.271 162.884C121.498 162.868 124.268 163.087 127.581 163.539L132.012 164.025C135.051 164.339 137.848 164.426 140.402 164.285L141.416 164.161C142.852 163.985 144.013 163.671 144.901 163.22C145.482 163.063 145.742 162.731 145.68 162.225C145.649 161.971 145.76 161.829 146.013 161.798C146.098 161.788 146.235 161.857 146.424 162.005C147.158 163.801 147.587 165.206 147.711 166.219L147.724 167.375C147.648 168.156 147.293 168.757 146.659 169.177C145.855 169.618 144.408 170.053 142.317 170.48ZM171.167 204.241L166.2 202.534C165.03 202.077 163.929 201.14 162.899 199.723C161.658 197.989 160.841 195.517 160.449 192.308C159.911 187.916 160.498 183.601 162.208 179.362C162.77 178.35 163.496 177.276 164.386 176.138L165.306 175.254C165.603 174.875 166.131 174.639 166.891 174.546C167.313 174.494 167.751 174.569 168.204 174.771C168.479 174.909 168.853 175.163 169.327 175.534C168.439 175.985 167.772 176.839 167.325 178.093C165.934 181.435 165.255 184.647 165.289 187.729C165.222 189.281 165.286 190.859 165.483 192.463C165.514 192.717 165.737 193.847 166.154 195.853C166.74 197.839 167.548 199.54 168.579 200.957C169.199 201.824 169.805 202.222 170.397 202.149L171.379 201.772C172.943 201.238 174.291 200.001 175.426 198.062C176.698 195.849 177.348 193.455 177.376 190.88C177.561 188.886 177.517 187.476 177.245 186.652C177.162 185.977 176.82 185.633 176.218 185.621L175.965 185.652C174.265 185.774 171.797 185.219 168.56 183.986L168.276 183.763C167.19 183.296 166.606 182.725 166.523 182.049C166.44 181.373 166.659 180.704 167.177 180.04C167.962 178.744 168.988 178.018 170.254 177.864C170.761 177.802 171.368 177.856 172.075 178.027C172.866 178.187 174.342 178.692 176.503 179.542C177.589 180.009 178.485 180.671 179.19 181.528C179.505 182.004 179.953 182.163 180.534 182.007L183.988 180.813C188.024 179.462 191.008 178.625 192.94 178.303C193.869 178.189 194.65 178.265 195.282 178.531L196.911 179.232C197.101 179.38 197.201 179.496 197.211 179.581L196.877 180.007C192.42 181.41 189.774 182.205 188.94 182.393C187.112 182.874 184.593 183.653 181.382 184.732C180.916 185.132 180.709 185.543 180.761 185.965C180.966 188.34 180.849 190.884 180.409 193.595C179.545 197.044 178.721 199.417 177.936 200.713C177.3 201.819 176.506 202.688 175.555 203.319C174.856 203.918 174.043 204.275 173.114 204.389C172.522 204.461 171.874 204.412 171.167 204.241ZM174.435 183.653L175.321 183.544C176.166 183.441 176.368 182.988 175.927 182.185L175.311 181.36C174.701 180.577 174.185 180.212 173.763 180.263C173.509 180.294 173.108 180.515 172.558 180.925C171.775 181.535 171.341 182.188 171.255 182.885C171.306 183.307 171.506 183.54 171.854 183.583C173.152 183.681 174.012 183.705 174.435 183.653ZM231.175 174.654C231.206 174.908 231.057 175.097 230.73 175.223L229.302 176.169C228.573 176.515 226.65 177.608 223.531 179.447C222.326 180.109 220.359 181.549 217.631 183.769C216.922 184.285 216.498 185.022 216.358 185.982C215.875 189.042 214.7 192.4 212.833 196.058C211.742 197.649 211.043 198.591 210.736 198.886C210.143 199.644 209.408 199.949 208.533 199.799L206.586 199.651C205.974 199.554 205.595 199.258 205.448 198.761C205.343 198.603 205.249 198.186 205.167 197.51C205.074 196.75 205.102 195.932 205.252 195.056C205.37 194.613 205.837 193.527 206.654 191.799C208.361 188.932 210.024 186.757 211.642 185.273C212.097 184.789 212.41 184.194 212.581 183.487C212.969 180.353 212.977 177.266 212.605 174.226C212.399 172.536 212.06 170.82 211.59 169.078C211.276 167.916 210.93 167.187 210.551 166.89C210.233 167.1 209.815 167.537 209.297 168.201C208.65 169.223 208.035 170.498 207.45 172.027C207.141 173.008 206.811 174.163 206.459 175.492C206.108 176.821 205.895 177.533 205.821 177.627C204.934 181.593 204.154 187.132 203.481 194.244C203.303 197.695 203.215 201.178 203.216 204.692C203.227 204.777 203.194 205.209 203.118 205.99C203.127 206.761 203.125 207.447 203.113 208.048C203.138 210.36 203.362 215.69 203.783 224.04C204.172 228.622 204.398 231.166 204.46 231.672L204.798 235.489L204.984 237.009C205.046 237.516 204.834 237.885 204.348 238.116L202.241 238.759C201.818 238.811 201.544 238.673 201.418 238.345C201.113 237.954 200.82 237.304 200.537 236.396C200.506 236.142 200.251 234.759 199.772 232.246C199.235 227.854 198.819 223.404 198.525 218.897C198.036 212.098 197.507 206.377 196.939 201.731C196.578 198.775 196.303 196.88 196.115 196.046L195.291 190.36C193.979 179.633 193.174 172.702 192.876 169.567C192.273 161.839 191.88 156.873 191.696 154.666C191.665 154.413 191.641 153.516 191.624 151.975C191.741 151.532 192.016 151.327 192.449 151.359L193.113 151.535C194.073 151.675 194.647 152.162 194.835 152.996C195.493 155.573 196.107 158.842 196.677 162.801L200.297 189.233C200.421 190.247 200.645 191.034 200.971 191.594L201.346 187.304C201.962 181.828 202.857 176.875 204.029 172.446C204.317 171.296 204.791 169.909 205.449 168.286C205.863 167.464 206.366 166.673 206.959 165.915C207.701 164.967 208.551 164.563 209.512 164.703L212.234 164.884C213.194 165.024 213.984 165.527 214.605 166.394C215.635 167.811 216.296 169.359 216.587 171.038C217.149 174.227 217.343 176.861 217.168 178.939L217.197 180.222L217.354 180.46C217.534 180.524 217.697 180.461 217.846 180.271C218.078 180.071 218.237 179.966 218.321 179.956C220.616 178.389 223.623 176.692 227.343 174.866C227.987 174.53 228.563 174.331 229.07 174.269C229.239 174.248 229.672 174.281 230.368 174.367C230.79 174.315 231.059 174.411 231.175 174.654ZM210.835 191.287L210.98 190.369L209.788 192.187C209.088 193.473 208.578 194.564 208.259 195.46C208.142 195.903 208.178 196.199 208.368 196.347C208.844 196.031 209.31 195.289 209.767 194.118C210.308 192.938 210.664 191.994 210.835 191.287ZM260.893 194.164L256.573 193.536C255.613 193.396 254.533 192.628 253.334 191.232C252.219 189.825 251.384 188.255 250.829 186.523C250.451 185.541 249.955 183.587 249.34 180.662C248.903 178.486 248.498 175.878 248.126 172.838C248.095 172.584 248.059 172.289 248.017 171.951C247.976 171.613 247.935 171.275 247.893 170.937C247.852 170.599 247.826 170.388 247.816 170.304C247.626 170.156 247.468 170.261 247.34 170.619L246.782 172.359C244.802 178.602 242.486 184.2 239.835 189.154C238.838 190.819 238.229 191.794 238.007 192.078C237.562 192.647 236.944 192.851 236.153 192.691L233.399 192.256C232.186 192.147 231.253 191.533 230.602 190.412C229.709 188.721 229.075 187.041 228.699 185.373L228.123 181.714C228.082 181.376 227.949 179.592 227.726 176.362C227.65 172.942 227.731 170.446 227.967 168.874C228.181 167.819 228.457 167.271 228.795 167.23C229.048 167.199 229.528 167.269 230.235 167.44C230.941 167.61 231.346 168.118 231.45 168.963C232.115 172.996 232.483 175.309 232.556 175.9C233.055 178.582 233.749 181.797 234.636 185.547C234.782 186.043 235.091 187.163 235.561 188.905C235.582 189.074 235.639 189.196 235.734 189.27C235.903 189.249 236.025 189.191 236.099 189.097C236.881 188.487 237.543 187.591 238.085 186.411C239.442 184.187 240.673 181.636 241.778 178.758C243.404 174.53 244.952 169.668 246.423 164.173L247.287 160.724C247.596 159.744 247.783 158.821 247.848 157.955C247.85 157.269 248.032 156.304 248.394 155.06C248.437 154.711 248.675 154.554 249.108 154.586L251.877 155.148C252.499 155.329 252.973 155.7 253.299 156.26C253.75 157.148 254 158.489 254.048 160.283L254.456 167.82C254.68 171.05 255.034 174.65 255.52 178.62C255.737 180.393 256.316 183.023 257.256 186.508C257.717 188.167 258.377 189.714 259.239 191.152C259.565 191.712 259.812 191.982 259.981 191.962C260.319 191.92 260.636 191.71 260.933 191.331C262.107 190.416 263.081 189.268 263.855 187.887C264.565 186.686 265.838 184.13 267.674 180.219C269.373 176.582 270.466 173.962 270.956 172.359C271.244 171.21 271.648 170.303 272.167 169.639C272.537 169.165 272.897 168.95 273.245 168.993C274.637 169.166 275.476 169.363 275.76 169.586C275.25 171.02 274.783 172.105 274.359 172.843C273.447 174.498 272.561 176.364 271.7 178.44L268.801 185.225C267.379 188.313 266.186 190.474 265.222 191.706L263.857 193.159C263.01 193.948 262.022 194.284 260.893 194.164ZM278.952 192.984C277.117 192.694 275.663 191.672 274.591 189.917C273.498 187.993 272.838 186.102 272.611 184.244C271.74 178.521 271.55 174.173 272.044 171.197C272.109 170.332 272.296 169.409 272.605 168.428L273.241 167.322C273.538 166.943 273.823 166.822 274.097 166.96C275.764 167.27 276.971 167.68 277.719 168.189C276.957 168.968 276.484 170.354 276.299 172.349C276.117 173.657 276.227 175.958 276.63 179.252C276.774 180.434 277.096 182.367 277.596 185.049C278.087 186.96 278.8 188.588 279.736 189.931C280.062 190.491 280.309 190.761 280.478 190.74C280.563 190.73 280.917 190.472 281.541 189.967C282.536 188.988 283.335 187.819 283.941 186.459C285.001 184.614 285.872 182.622 286.553 180.481C288.318 175.293 289.476 170.394 290.027 165.783C290.113 165.086 290.151 164.696 290.141 164.612C290.11 164.358 290.01 164.242 289.841 164.262C289.334 164.324 288.769 164.265 288.147 164.084C287.599 163.808 286.967 163.543 286.249 163.287C285.607 162.937 285.196 162.73 285.016 162.667C283.034 161.88 281.898 160.305 281.609 157.94C281.109 155.258 281.692 152.658 283.355 150.14C284.022 149.286 284.477 148.802 284.72 148.687C285.27 148.277 285.799 148.04 286.305 147.978C286.728 147.927 287.208 147.997 287.746 148.188L290.197 149.303C291.103 149.706 291.745 150.399 292.123 151.382C292.574 152.269 292.877 153.347 293.032 154.614C293.084 155.036 293.118 156.018 293.135 157.559L293.148 158.714C293.084 158.894 293.105 159.063 293.21 159.221C293.389 159.285 293.601 159.259 293.844 159.144C295.049 158.482 296.185 157.614 297.254 156.54C298.027 155.846 298.497 155.488 298.666 155.468C298.919 155.437 299.457 155.628 300.279 156.042C301.112 156.54 301.66 156.816 301.924 156.869C302.81 157.104 303.325 157.812 303.47 158.995C303.521 159.417 303.594 160.008 303.687 160.768C303.78 161.529 303.81 162.125 303.777 162.558L303.637 167.718C303.547 169.787 303.559 173.043 303.674 177.486C303.871 179.091 304.136 180.559 304.47 181.89L304.674 182.508C304.916 183.078 305.227 183.169 305.608 182.779C307.437 181.612 308.843 180.497 309.828 179.434C311.088 177.823 312.147 176.321 313.006 174.93L317.172 167.991L318.429 165.652L319.367 163.865C319.792 163.127 320.215 162.733 320.637 162.681C320.975 162.64 321.47 162.836 322.124 163.271C322.303 163.334 322.371 163.54 322.328 163.889C321.999 164.7 321.612 165.391 321.167 165.96C319.6 167.866 317.702 170.927 315.475 175.143C313.991 177.725 312.994 179.39 312.486 180.138C311.691 181.349 310.531 182.734 309.008 184.292C308.161 185.081 307.442 185.512 306.851 185.585C306.344 185.647 305.775 185.545 305.142 185.279C304.773 185.067 303.877 184.748 302.453 184.322C300.038 183.503 298.492 181.721 297.813 178.975C297.677 178.563 297.505 177.512 297.299 175.823C297.092 174.134 297.005 173.073 297.038 172.64C297 170.931 297.06 168.266 297.217 164.646C297.207 164.562 297.24 164.129 297.316 163.348C297.466 162.472 297.557 161.818 297.59 161.386C297.569 161.217 297.469 161.1 297.29 161.037C297.195 160.962 297.111 160.973 297.037 161.068L293.295 163.068C292.968 163.194 292.75 163.521 292.643 164.048L292.144 167.324C291.423 172.642 290.094 178.248 288.158 184.142C287.903 184.859 287.541 185.761 287.074 186.847C286.681 187.838 286.426 188.555 286.309 188.998C285.629 190.453 285.03 191.512 284.511 192.175C283.844 193.028 283.131 193.501 282.37 193.594C282.286 193.605 281.896 193.567 281.199 193.481C280.472 193.141 279.723 192.975 278.952 192.984ZM289.818 160.922C290.388 160.681 290.68 160.259 290.692 159.658C290.78 158.275 290.736 156.866 290.56 155.43C290.426 154.332 290.223 153.371 289.951 152.547C289.847 151.703 289.479 151.148 288.847 150.882C288.604 150.998 288.196 151.519 287.624 152.446L287.432 152.984C286.667 155.135 286.382 157.013 286.578 158.618C286.702 159.631 286.89 160.466 287.142 161.121C287.183 161.459 287.373 161.607 287.711 161.566C288.133 161.514 288.835 161.299 289.818 160.922ZM372.789 177.004C371.669 173.455 371.011 170.878 370.814 169.273L369.11 155.337C368.789 152.718 368.337 150.073 367.753 147.401C367.681 146.81 367.492 146.319 367.187 145.928C366.785 146.148 366.531 146.522 366.424 147.05C365.957 148.136 365.27 150.577 364.363 154.374L362.712 161.906C362.414 162.971 362.141 164.247 361.895 165.735C361.648 167.222 361.391 168.625 361.124 169.944C360.941 171.252 360.828 172.08 360.785 172.429L359.916 177.936L359.755 178.727C359.574 179.349 359.262 179.602 358.819 179.484L358.424 179.404C357.115 179.221 356.435 178.919 356.384 178.496C356.301 177.821 356.286 177.351 356.34 177.087C356.368 170.311 357.11 163.063 358.566 155.341C358.975 152.376 359.589 149.686 360.408 147.271C360.77 146.027 361.264 144.809 361.89 143.618C362.684 142.406 363.325 141.685 363.811 141.454C364.688 140.918 365.443 140.783 366.076 141.049L369.54 142.039C370.342 142.284 370.926 142.856 371.293 143.754C371.765 144.81 372.105 146.183 372.311 147.873C372.458 148.369 372.639 149.504 372.856 151.278C373.073 153.051 373.171 154.197 373.148 154.714C373.422 159.052 373.615 162.029 373.726 163.644L374.016 168.11C374.291 171.762 374.869 174.735 375.749 177.027C375.958 178.031 376.257 178.723 376.646 179.104C376.951 179.495 377.215 179.548 377.438 179.264C378.399 178.718 379.219 178.06 379.897 177.291C380.86 176.059 381.771 174.748 382.63 173.357L385.813 166.795L387.756 162.7L389.571 158.62L391.353 155.316C391.703 154.673 392.273 154.432 393.065 154.592C393.771 154.763 393.939 155.085 393.569 155.559C390.514 161.419 388.386 165.752 387.186 168.556L385.228 172.524C384.294 174.696 383.255 176.366 382.112 177.535C381.371 178.483 380.609 179.262 379.826 179.872C379.277 180.282 378.447 180.512 377.339 180.562C375.081 180.324 373.564 179.138 372.789 177.004ZM398.442 184.153L397.255 183.912L394.375 183.493C393.246 183.374 392.577 182.813 392.369 181.809C391.793 179.908 391.495 178.873 391.475 178.704C391.132 176.603 390.875 173.805 390.705 170.311L390.586 167.24C390.473 166.311 390.383 164.178 390.318 160.843C390.138 157.265 390.084 153.671 390.157 150.061L390.243 141.307C390.335 138.552 390.461 136.78 390.621 135.988C390.611 135.904 390.659 135.598 390.766 135.071C390.947 134.448 391.301 134.191 391.829 134.298L392.082 134.267C393.706 134.925 394.543 135.466 394.595 135.888L394.559 137.693C394.562 140.521 394.594 142.189 394.656 142.696L395.185 152.275C395.454 154.471 395.587 155.912 395.585 156.598C396.016 161.518 396.278 164.357 396.371 165.118L397.226 171.057C397.298 171.648 397.387 172.023 397.492 172.181L397.634 172.293L397.872 172.135L398.063 171.597C399.45 166.113 401.517 160.587 404.265 155.022C404.86 153.578 405.158 152.512 405.16 151.826C405.3 150.866 405.704 149.617 406.373 148.078L407.232 146.687C407.899 145.833 408.359 145.391 408.613 145.36C408.782 145.34 409.182 145.462 409.815 145.728L410.226 145.935C410.395 145.914 410.511 145.814 410.575 145.635C410.723 145.445 410.824 145.218 410.878 144.955L410.973 144.686L411.721 143.437C412.155 142.784 412.71 142.416 413.386 142.333C413.893 142.271 414.462 142.373 415.095 142.639L415.775 142.941C417.936 143.791 419.204 145.393 419.578 147.748L419.671 148.508C419.805 149.606 419.791 150.894 419.629 152.371L419.336 155.236C419.114 155.52 419.256 155.631 419.763 155.569C420.101 155.528 420.307 155.46 420.381 155.365C422.525 154.674 424.179 153.829 425.343 152.829L428.071 150.952L429.467 149.753C430.186 149.322 430.63 149.096 430.799 149.076C431.136 149.034 431.685 149.31 432.443 149.903C432.464 150.072 432.326 150.346 432.029 150.725L427.333 154.386C426.159 155.301 424.347 156.252 421.896 157.237C421.082 157.594 420.417 157.761 419.9 157.739L419.646 157.77C419.055 157.842 418.637 158.279 418.392 159.08L417.689 161.738C417.411 162.972 416.927 164.274 416.238 165.645L415.268 167.178C414.516 168.041 413.687 168.271 412.781 167.868L408.874 166.417C407.524 165.896 406.535 164.817 405.906 163.18C405.518 162.113 405.252 160.988 405.108 159.805C405.077 159.552 404.977 159.436 404.808 159.456C404.639 159.477 404.565 159.572 404.585 159.741C404.172 160.563 403.81 161.464 403.502 162.445C402.438 165.661 401.504 169.59 400.7 174.232L399.189 182.904L399.029 183.695C398.891 183.969 398.695 184.122 398.442 184.153ZM417.182 155.499C417.695 153.379 417.906 151.253 417.817 149.121C417.579 147.178 417.05 145.657 416.23 144.557C415.651 144.028 415.133 144.005 414.678 144.49C414.297 144.879 414.006 145.301 413.804 145.754C413.296 146.502 412.982 147.44 412.863 148.569C412.859 149.942 412.873 150.754 412.904 151.008C413.1 152.612 413.703 154.039 414.713 155.287C415.113 155.752 415.619 156.033 416.231 156.13C416.579 156.173 416.896 155.963 417.182 155.499ZM412.535 164.812L412.662 164.796C413.084 164.745 413.428 164.402 413.694 163.77C414.435 162.822 415.326 160.998 416.368 158.299C416.569 157.846 416.439 157.476 415.975 157.19C414.162 156.383 412.818 155.562 411.944 154.726L411.549 154.645C411.4 154.835 411.332 154.972 411.342 155.056C411.221 156.871 411.243 158.455 411.409 159.806L411.706 161.184L411.969 163.338C412.073 164.183 412.261 164.674 412.535 164.812ZM438.588 168.954L434.128 167.185C431.872 166.261 430.304 164.653 429.423 162.36C428.699 160.648 428.229 158.906 428.012 157.132C427.805 155.443 427.858 153.422 428.17 151.069C428.441 148.378 429.297 145.916 430.739 143.682C431.301 142.671 431.973 141.86 432.756 141.25C433.305 140.839 433.876 140.598 434.467 140.526C434.552 140.515 434.942 140.553 435.638 140.64C437.326 141.119 438.77 141.714 439.972 142.424L440.667 142.853C440.888 143.255 440.929 143.593 440.791 143.867L440.584 144.278C440.5 144.288 440.357 144.52 440.155 144.974C439.943 145.342 439.747 145.495 439.568 145.431C439.22 145.388 438.989 144.902 438.875 143.973L438.529 143.244C438.329 143.011 438.102 142.91 437.849 142.941C436.92 143.055 436.179 143.66 435.628 144.756C434.664 145.988 434.032 147.48 433.732 149.231C432.932 152.501 432.87 155.852 433.547 159.284C433.89 161.385 434.677 163.26 435.907 164.91C436.412 165.534 436.791 165.831 437.045 165.8C437.298 165.769 437.668 165.638 438.154 165.407C439.2 164.85 439.962 164.071 440.44 163.07C441.828 161.1 442.667 158.854 442.959 156.332C443.333 154.486 443.376 152.381 443.086 150.016C443.055 149.762 442.831 148.632 442.414 146.626C440.752 140.743 438.343 135.765 435.187 131.694C433.241 129.103 430.868 126.521 428.067 123.949C426.53 122.594 425.208 121.599 424.101 120.963L420.34 118.594L420.055 118.371C419.044 117.809 418.481 117.064 418.367 116.135C418.243 115.121 418.604 114.22 419.451 113.43C420.361 112.462 421.699 111.484 423.464 110.496C427.015 108.69 431.024 107.128 435.492 105.81C439.633 104.618 444.375 103.437 449.718 102.269C453.076 101.687 455.22 101.339 456.149 101.226C456.402 101.195 458.651 101.005 462.894 100.657C463.486 100.585 464.066 100.771 464.634 101.216L466.387 102.931C466.766 103.227 466.787 103.396 466.449 103.437C466.365 103.448 466.28 103.458 466.196 103.468C464.75 103.56 462.86 103.876 460.526 104.419L457.754 104.887C452.021 105.674 447.744 106.454 444.924 107.228C438.757 108.668 433.792 110.133 430.031 111.622C427.411 112.628 425.71 113.436 424.927 114.046C423.975 114.677 423.314 115.229 422.944 115.703C422.351 116.462 422.08 117.052 422.132 117.474C422.194 117.981 422.551 118.452 423.204 118.886C424.532 119.924 425.422 120.544 425.875 120.746C429.374 122.718 432.949 125.667 436.601 129.592C439.064 132.205 440.79 134.394 441.777 136.16C444.508 140.969 446.275 145.596 447.076 150.042C447.396 152.66 447.273 155.504 446.705 158.574C446.384 160.156 445.841 162.023 445.076 164.174C444.322 165.724 443.533 166.978 442.707 167.936C441.86 168.725 441.099 169.161 440.424 169.244C440.001 169.296 439.389 169.199 438.588 168.954ZM495.616 142.432C495.637 142.601 495.34 142.98 494.727 143.57L489.537 148.448C488.056 149.658 486.606 151.121 485.188 152.838C484.658 153.417 484.44 154.086 484.533 154.846C484.778 158.246 484.225 161.785 482.875 165.465C482.056 167.88 480.837 169.829 479.218 171.313L477.918 172.244C477.199 172.675 476.57 172.794 476.033 172.603L473.09 171.677C472.742 171.634 472.532 171.317 472.46 170.725C472.408 170.303 472.483 169.865 472.685 169.412C473.144 167.556 474.041 165.431 475.377 163.039L477.715 159.024C478.065 158.381 478.283 157.711 478.369 157.015C478.547 153.564 478.46 150.746 478.106 148.56C477.931 147.124 477.638 146.132 477.228 145.582C476.552 145.664 475.918 146.085 475.325 146.843C474.435 147.981 473.826 148.955 473.496 149.767C472.848 151.475 472.289 153.215 471.82 154.987C471.136 158.5 470.433 162.915 469.712 168.233L468.726 175.94L468.26 178.44C468.005 179.157 467.45 179.525 466.595 179.544C466.247 179.501 465.197 179.329 463.446 179.029C462.317 178.91 461.469 178.285 460.902 177.154C460.597 176.763 460.119 175.664 459.47 173.858C458.622 171.132 458.017 168.292 457.656 165.336C457.191 161.535 456.791 156.869 456.457 151.337C456.218 145.88 456.104 141.093 456.115 136.977C456.148 136.545 456.203 135.595 456.281 134.128C456.231 133.02 456.316 130.909 456.535 127.796C456.906 123.122 457.677 118.912 458.848 115.169C459.56 113.281 460.319 111.774 461.124 110.647C461.675 109.551 462.564 108.756 463.79 108.263C464.276 108.032 464.73 107.891 465.152 107.839C465.659 107.777 466.176 107.8 466.704 107.907L468.332 108.608L470.372 109.515C471.806 110.026 472.679 111.205 472.991 113.053C473.146 114.32 473.142 115.692 472.98 117.169C472.783 119.765 471.869 124.206 470.238 130.492C468.502 136.619 466.412 142.661 463.969 148.618C463.289 150.073 463.058 151.687 463.275 153.461C463.492 155.235 463.584 156.338 463.552 156.77L463.843 160.207C463.893 161.315 464.151 163.769 464.616 167.57C464.74 168.584 465.052 170.089 465.554 172.085C465.585 172.338 465.685 172.454 465.854 172.434C466.043 172.582 466.197 172.435 466.314 171.992C466.293 171.823 466.304 171.564 466.347 171.216C466.475 170.858 466.566 170.546 466.619 170.283L468.58 158.984C469.086 155.408 469.726 152.586 470.502 150.519C470.79 149.37 471.247 148.199 471.873 147.008C472.593 145.891 473.218 145.043 473.748 144.464C474.372 143.959 474.979 143.671 475.571 143.598C475.655 143.588 476.045 143.626 476.742 143.712C477.111 143.924 478.049 144.238 479.557 144.654C481.16 145.143 482.308 146.117 483.001 147.576L483.975 150.286L484.229 150.255C484.482 150.224 484.794 149.971 485.165 149.497L489.514 145.107L491.8 142.77L492.847 141.871C493.292 141.302 493.709 141.208 494.099 141.589L494.241 141.7C495.127 141.935 495.585 142.179 495.616 142.432ZM462.86 142.71L463.126 143.835C463.349 143.551 463.492 143.319 463.556 143.139C463.535 142.971 463.557 142.796 463.62 142.617C463.769 142.428 463.869 142.201 463.923 141.937C464.051 141.579 464.141 141.268 464.195 141.004C466.374 134.994 467.893 129.193 468.752 123.601C469.471 118.97 469.775 115.846 469.663 114.231L469.446 112.458C469.405 112.12 469.29 111.877 469.1 111.728C468.921 111.665 468.72 111.775 468.497 112.059C467.439 113.218 466.612 114.519 466.018 115.963C464.828 118.852 464.045 121.562 463.669 124.094C462.969 129.581 462.699 135.786 462.86 142.71ZM463.015 143.977L463 143.85L463.015 143.977ZM525.414 161.804L521.093 161.175C520.133 161.036 519.054 160.268 517.854 158.871C516.739 157.465 515.904 155.895 515.349 154.163C514.972 153.18 514.476 151.226 513.861 148.301C513.423 146.126 513.018 143.518 512.646 140.477C512.615 140.224 512.579 139.928 512.538 139.59C512.496 139.253 512.455 138.915 512.414 138.577C512.372 138.239 512.347 138.028 512.336 137.943C512.147 137.795 511.988 137.9 511.86 138.259L511.302 139.999C509.322 146.242 507.007 151.84 504.355 156.794C503.359 158.459 502.749 159.433 502.527 159.718C502.082 160.286 501.464 160.491 500.673 160.33L497.919 159.895C496.706 159.787 495.774 159.172 495.122 158.052C494.229 156.361 493.595 154.681 493.22 153.012L492.644 149.354C492.602 149.016 492.47 147.232 492.246 144.002C492.171 140.582 492.251 138.086 492.487 136.514C492.701 135.459 492.977 134.911 493.315 134.87C493.568 134.839 494.048 134.909 494.755 135.079C495.462 135.25 495.867 135.758 495.97 136.602C496.635 140.636 497.003 142.948 497.076 143.539C497.575 146.221 498.269 149.437 499.156 153.186C499.303 153.683 499.611 154.802 500.081 156.545C500.102 156.714 500.16 156.835 500.255 156.909C500.423 156.889 500.545 156.831 500.619 156.736C501.402 156.126 502.064 155.231 502.605 154.05C503.962 151.827 505.193 149.276 506.298 146.397C507.924 142.169 509.472 137.308 510.943 131.813L511.807 128.364C512.116 127.383 512.303 126.46 512.369 125.595C512.37 124.909 512.552 123.944 512.914 122.699C512.958 122.351 513.196 122.193 513.628 122.226L516.397 122.787C517.019 122.969 517.493 123.339 517.819 123.899C518.271 124.787 518.52 126.128 518.568 127.923L518.976 135.459C519.2 138.69 519.555 142.29 520.04 146.259C520.257 148.033 520.836 150.663 521.777 154.148C522.237 155.806 522.898 157.354 523.759 158.792C524.085 159.352 524.332 159.622 524.501 159.601C524.839 159.56 525.156 159.35 525.453 158.97C526.627 158.055 527.601 156.907 528.375 155.527C529.085 154.325 530.358 151.769 532.195 147.858C533.893 144.222 534.987 141.602 535.476 139.999C535.764 138.849 536.168 137.943 536.687 137.279C537.057 136.805 537.417 136.59 537.765 136.633C539.158 136.805 539.996 137.003 540.281 137.225C539.77 138.659 539.303 139.745 538.879 140.483C537.967 142.137 537.081 144.003 536.22 146.08L533.321 152.864C531.899 155.953 530.706 158.113 529.742 159.346L528.377 160.799C527.53 161.588 526.543 161.923 525.414 161.804ZM87.8571 339.159C85.994 337.243 84.947 336.043 84.7161 335.557C79.6889 328.799 75.8535 322.325 73.2101 316.133C71.6988 312.889 70.4822 309.951 69.5603 307.321C69.0985 306.349 68.6375 305.034 68.1775 303.375C68.1672 303.291 68.1146 303.212 68.0198 303.137C68.0095 303.053 67.9672 303.058 67.8931 303.153C67.8086 303.163 67.6923 303.263 67.544 303.453L64.3989 313.482C63.2384 317.31 61.6514 320.805 59.6378 323.966L56.6511 327.931C55.5391 329.353 54.223 330.157 52.7027 330.343L49.0751 331.173L48.3304 331.393C47.0635 331.548 45.9087 331.217 44.8659 330.402C41.5998 328.23 39.2317 325.69 37.7618 322.784C36.2814 319.793 34.9813 316.523 33.8613 312.974L31.9151 306.526L30.6927 301.789C30.1603 299.539 29.758 298.003 29.4857 297.179C28.6605 293.936 28.0144 290.758 27.5477 287.643C27.3082 286.386 26.9198 283.562 26.3825 279.17C26.0519 276.467 25.8282 273.237 25.7114 269.48L25.4877 258.191C25.4104 255.457 25.5668 252.181 25.9568 248.361C26.2775 246.779 26.4698 245.898 26.5336 245.719C26.7353 245.265 26.9629 245.023 27.2163 244.992C27.4697 244.961 28.2557 245.079 29.5742 245.347C30.1965 245.528 30.5438 245.914 30.6161 246.505L30.7246 247.392L32.261 265.206L32.4315 266.6C32.6965 270.168 32.86 272.205 32.922 272.712L33.5757 277.004C33.741 278.356 33.8918 279.237 34.0279 279.649C34.3585 282.352 34.821 285.082 35.4154 287.838L36.0718 291.101C36.2784 292.79 36.455 293.883 36.6014 294.379C37.2475 297.558 37.7273 299.728 38.0408 300.89L38.9944 305.531C40.2572 310.949 41.9907 316.009 44.1948 320.711C45.37 323.311 46.7789 325.367 48.4214 326.881C49.0109 327.494 49.6744 328.013 50.4121 328.438C50.9809 328.882 51.5773 328.852 52.2013 328.347C53.7356 326.874 54.8527 325.494 55.5526 324.208C56.7077 322.438 58.055 319.787 59.5947 316.256C61.0274 313.251 62.4525 309.134 63.8699 303.902L65.8822 297.227C66.0426 296.436 66.0711 295.618 65.9678 294.773C64.7997 289.43 64.0504 285.406 63.7197 282.704C63.3168 279.41 62.9897 275.335 62.7386 270.479L62.4832 265.238C62.4374 258.557 63.1387 252.728 64.5872 247.75C65.1838 245.62 65.8054 244.043 66.4519 243.021L67.7862 241.315C68.5585 240.62 69.3825 240.348 70.2581 240.498C71.144 240.733 72.0619 240.878 73.0116 240.933C73.8872 241.083 74.5404 241.517 74.9713 242.236C75.5279 243.282 75.8527 244.186 75.9457 244.946C76.2369 246.625 76.3779 249.179 76.3689 252.609C76.0598 257.791 75.2127 264.881 73.8276 273.88C73.053 279.461 72.0096 284.947 70.6972 290.337C70.5782 291.466 70.6022 292.363 70.7693 293.028C71.5187 297.052 72.3491 300.336 73.2607 302.882L76.0418 310.9C77.6237 315.422 79.9225 320.198 82.9384 325.23L87.9845 332.842L90.6963 337.14C90.9272 337.626 90.8789 337.932 90.5514 338.058L89.0284 339.273C88.5423 339.503 88.1519 339.466 87.8571 339.159ZM69.4883 280.455C70.7508 273.957 71.6262 268.149 72.1146 263.031C72.8356 257.714 73.1162 253.35 72.9563 249.941C72.9994 249.593 72.9538 248.87 72.8195 247.772C72.6645 246.505 72.3828 245.253 71.9745 244.017C71.9435 243.764 71.8435 243.647 71.6746 243.668C71.4212 243.699 71.2574 243.762 71.1833 243.857L70.2911 246.023C69.2272 249.24 68.4881 253.359 68.0739 258.382C67.8874 261.062 67.8328 263.769 67.9101 266.503L68.1291 273.549L68.4519 277.238L68.9788 281.546C69.2116 281.346 69.3814 280.982 69.4883 280.455ZM93.7221 302.436L91.2064 301.844C89.0019 301.342 87.3533 300.129 86.2607 298.206C84.7683 295.816 83.936 293.218 83.764 290.41C83.299 286.609 83.3296 283.005 83.8557 279.597C84.4474 275.324 85.8026 271.687 87.9213 268.684C89.0764 266.914 90.1935 265.534 91.2726 264.545L92.5577 263.488C93.1076 263.078 93.8204 262.948 94.696 263.098L97.2272 263.817C97.9649 264.241 98.0484 264.573 97.4779 264.815C96.4401 266.142 95.672 267.222 95.1738 268.054C92.8619 272.28 91.4049 276.488 90.8028 280.676C90.5751 283.019 90.405 285.483 90.2927 288.068C90.2599 288.501 90.3468 289.562 90.5535 291.251C90.7152 293.974 91.1054 296.113 91.724 297.666C91.9221 298.585 92.284 299.44 92.8096 300.233C92.9664 300.814 93.3404 301.069 93.9317 300.996C94.8607 300.883 95.9967 300.358 97.3396 299.422C98.598 298.497 99.6719 297.465 100.561 296.328C101.461 295.274 103.204 292.704 105.79 288.615L109.941 281.55C110.524 280.707 110.899 280.275 111.068 280.254C111.322 280.223 111.759 280.298 112.382 280.48L113.062 280.782C113.241 280.846 113.309 281.052 113.266 281.4L113.059 281.811L111.564 284.309C108.447 289.662 106.073 293.381 104.442 295.467C103.637 296.594 102.785 297.684 101.885 298.737C100.668 300.001 99.2139 301.079 97.5229 301.971C96.3611 302.285 95.7379 302.447 95.6535 302.457C95.569 302.468 94.9252 302.461 93.7221 302.436ZM114.295 309.307C113.693 309.294 113.23 309.008 112.904 308.448L111.234 305.309C110.038 302.541 109.223 299.383 108.789 295.835C108.438 292.964 108.157 289.269 107.948 284.751L107.86 281.933C107.785 278.513 107.705 276.465 107.623 275.79C107.384 270.332 107.313 266.955 107.412 265.657L107.721 256.618C107.671 255.51 107.899 254.924 108.406 254.862C108.744 254.821 109.224 254.891 109.846 255.072C110.468 255.253 110.858 255.634 111.015 256.215L111.612 257.942C112.499 261.691 113.087 264.748 113.377 267.113C113.595 268.201 113.948 270.73 114.433 274.699C114.919 278.669 115.187 281.208 115.236 282.316C115.811 288.418 116.145 291.849 116.238 292.609C116.342 293.454 116.451 293.998 116.567 294.241C116.874 293.946 117.017 293.714 116.996 293.545L118.253 284.905C119.035 280.78 119.909 277.416 120.876 274.811C121.164 273.661 121.568 272.755 122.087 272.091C122.649 271.08 123.499 270.675 124.639 270.879C125.609 271.103 126.221 271.2 126.474 271.169C127.35 271.319 128.003 271.753 128.434 272.472L129.427 274.279L132.467 280.208L132.64 280.573C133.028 281.64 133.475 282.143 133.982 282.081C134.15 282.06 134.658 281.655 135.505 280.865C137.304 278.759 138.384 277.427 138.745 276.869C138.957 276.5 139.714 275.679 141.015 274.405C141.713 273.805 142.458 273.585 143.249 273.746L146.129 274.165C147.005 274.315 147.743 274.739 148.342 275.437L150.93 278.721L152.649 281.211L153.675 282.243C154.149 282.614 154.724 282.758 155.4 282.675C156.076 282.592 156.493 282.498 156.651 282.393C160.454 281.242 163.376 279.899 165.417 278.363L170.319 274.292L172.08 272.919C172.577 272.773 172.999 272.721 173.347 272.764L173.743 272.844C174.882 273.048 175.462 273.234 175.483 273.403L175.498 273.53C175.571 274.121 175.2 274.595 174.386 274.952L171.402 277.888C168.958 280.331 165.745 282.095 161.763 283.182C160.02 283.653 158.895 283.919 158.389 283.981C155.77 284.301 153.022 283.909 150.144 282.804C149.321 282.39 148.568 281.839 147.884 281.151C147.4 280.696 146.511 279.39 145.219 277.234C144.672 276.272 144.273 275.807 144.019 275.838C143.597 275.889 143.126 276.247 142.607 276.91L140.94 279.043L138.954 281.729C138.583 282.203 138.128 282.688 137.588 283.182C136.816 283.877 135.865 284.165 134.736 284.046L131.967 283.484C130.216 283.184 128.899 282.231 128.017 280.624C127.281 279.514 126.751 278.336 126.427 277.09L125.264 273.889C125.159 273.73 125.022 273.661 124.853 273.682C124.758 273.608 124.679 273.66 124.615 273.839L123.645 275.373C122.245 277.944 121.08 281.73 120.148 286.73C119.805 288.83 119.524 291.436 119.305 294.549L118.883 298.458L118.199 305.486C118.218 306.34 118.184 307.459 118.096 308.842C118.158 309.348 117.888 309.596 117.286 309.584C117.202 309.594 116.817 309.598 116.131 309.596C115.519 309.5 114.907 309.403 114.295 309.307ZM153.368 260.806L152.719 260.757C149.14 260.938 144.978 260.547 140.231 259.585C136.528 258.752 132.778 258.225 128.979 258.004C128.546 257.971 127.654 258.037 126.303 258.202C125.036 258.357 123.784 258.639 122.548 259.047C121.059 259.487 119.907 260.228 119.091 261.271C118.636 261.755 118.646 262.182 119.12 262.553L119.83 263.109C120.02 263.257 120.125 263.416 120.146 263.585C120.187 263.923 119.954 264.122 119.448 264.184C118.688 264.277 118.05 263.97 117.535 263.261L116.322 260.709C116.227 260.635 116.149 260.345 116.087 259.838C116.035 259.416 116.179 258.841 116.519 258.113C117.007 257.196 117.727 256.423 118.678 255.792C119.387 255.276 120.517 254.709 122.071 254.091C123.306 253.682 124.516 253.406 125.698 253.261C126.965 253.106 128.506 253.089 130.321 253.21C132.548 253.195 135.318 253.413 138.631 253.865L143.062 254.352C146.101 254.666 148.898 254.752 151.452 254.611L152.466 254.487C153.902 254.312 155.064 253.998 155.951 253.546C156.532 253.39 156.792 253.058 156.73 252.551C156.699 252.298 156.81 252.156 157.063 252.125C157.148 252.114 157.285 252.183 157.474 252.331C158.208 254.128 158.638 255.532 158.761 256.546L158.774 257.702C158.698 258.483 158.343 259.083 157.709 259.504C156.906 259.945 155.458 260.379 153.368 260.806ZM182.217 294.568L177.25 292.861C176.08 292.404 174.98 291.467 173.949 290.05C172.708 288.316 171.891 285.844 171.499 282.634C170.961 278.242 171.548 273.927 173.258 269.689C173.82 268.677 174.546 267.602 175.436 266.465L176.356 265.581C176.653 265.202 177.181 264.965 177.941 264.872C178.364 264.821 178.801 264.896 179.255 265.098C179.529 265.236 179.903 265.49 180.377 265.86C179.489 266.312 178.822 267.165 178.375 268.42C176.984 271.762 176.305 274.974 176.339 278.056C176.272 279.607 176.336 281.185 176.533 282.79C176.564 283.043 176.788 284.173 177.205 286.18C177.79 288.165 178.599 289.867 179.629 291.284C180.25 292.151 180.856 292.548 181.447 292.476L182.429 292.099C183.993 291.564 185.342 290.328 186.476 288.389C187.748 286.176 188.398 283.782 188.426 281.206C188.611 279.212 188.567 277.803 188.295 276.979C188.212 276.303 187.87 275.959 187.269 275.947L187.015 275.978C185.316 276.101 182.847 275.545 179.61 274.312L179.326 274.09C178.24 273.623 177.656 273.051 177.573 272.376C177.491 271.7 177.709 271.03 178.228 270.367C179.012 269.071 180.038 268.345 181.305 268.19C181.811 268.128 182.418 268.182 183.125 268.353C183.916 268.514 185.392 269.019 187.554 269.869C188.64 270.336 189.535 270.998 190.24 271.855C190.555 272.331 191.003 272.49 191.584 272.333L195.039 271.139C199.074 269.788 202.058 268.952 203.99 268.63C204.919 268.516 205.7 268.592 206.333 268.857L207.961 269.558C208.151 269.706 208.251 269.823 208.261 269.907L207.928 270.334C203.47 271.736 200.824 272.532 199.99 272.719C198.163 273.2 195.643 273.98 192.432 275.058C191.967 275.458 191.76 275.869 191.811 276.292C192.016 278.667 191.899 281.21 191.459 283.922C190.595 287.371 189.771 289.743 188.986 291.039C188.35 292.146 187.556 293.014 186.605 293.645C185.907 294.245 185.093 294.602 184.164 294.715C183.573 294.788 182.924 294.738 182.217 294.568ZM185.485 273.98L186.372 273.871C187.216 273.768 187.418 273.314 186.977 272.511L186.362 271.686C185.751 270.904 185.235 270.538 184.813 270.59C184.56 270.621 184.158 270.841 183.608 271.252C182.825 271.862 182.391 272.515 182.305 273.211C182.356 273.634 182.556 273.866 182.904 273.909C184.202 274.008 185.063 274.031 185.485 273.98ZM242.225 264.981C242.256 265.234 242.107 265.424 241.78 265.55L240.353 266.496C239.624 266.842 237.7 267.935 234.581 269.774C233.376 270.435 231.41 271.876 228.681 274.096C227.972 274.611 227.548 275.349 227.408 276.309C226.925 279.368 225.75 282.727 223.883 286.384C222.792 287.975 222.093 288.918 221.786 289.213C221.193 289.971 220.459 290.275 219.583 290.125L217.636 289.978C217.024 289.881 216.645 289.584 216.499 289.088C216.394 288.929 216.3 288.512 216.217 287.837C216.124 287.076 216.153 286.259 216.303 285.383C216.42 284.94 216.887 283.854 217.704 282.125C219.411 279.259 221.074 277.084 222.692 275.6C223.148 275.116 223.461 274.52 223.631 273.813C224.019 270.68 224.028 267.593 223.656 264.552C223.449 262.863 223.11 261.147 222.64 259.404C222.326 258.242 221.98 257.513 221.601 257.217C221.284 257.427 220.866 257.864 220.347 258.527C219.7 259.55 219.085 260.825 218.5 262.354C218.192 263.335 217.861 264.489 217.51 265.818C217.158 267.147 216.945 267.859 216.871 267.954C215.984 271.92 215.205 277.459 214.532 284.571C214.354 288.022 214.265 291.504 214.267 295.019C214.277 295.103 214.244 295.536 214.168 296.317C214.177 297.087 214.175 297.773 214.163 298.375C214.188 300.686 214.412 306.017 214.833 314.367C215.222 318.948 215.448 321.492 215.51 321.999L215.848 325.815L216.034 327.336C216.096 327.842 215.884 328.211 215.398 328.442L213.291 329.086C212.868 329.137 212.594 328.999 212.469 328.672C212.164 328.281 211.87 327.631 211.587 326.722C211.556 326.469 211.301 325.086 210.822 322.573C210.285 318.181 209.869 313.731 209.575 309.223C209.086 302.425 208.558 296.703 207.989 292.058C207.628 289.102 207.353 287.206 207.165 286.372L206.341 280.686C205.029 269.96 204.224 263.029 203.926 259.893C203.323 252.166 202.93 247.199 202.746 244.993C202.715 244.739 202.691 243.842 202.674 242.301C202.791 241.858 203.066 241.653 203.499 241.686L204.163 241.862C205.123 242.002 205.697 242.489 205.885 243.323C206.543 245.9 207.157 249.168 207.727 253.127L211.347 279.56C211.471 280.573 211.696 281.36 212.021 281.92L212.397 277.631C213.013 272.155 213.907 267.202 215.08 262.772C215.368 261.623 215.841 260.236 216.499 258.612C216.913 257.79 217.417 257 218.01 256.242C218.751 255.294 219.602 254.89 220.562 255.029L223.284 255.211C224.244 255.35 225.035 255.854 225.655 256.721C226.686 258.138 227.346 259.686 227.638 261.365C228.199 264.553 228.393 267.187 228.218 269.266L228.247 270.548L228.404 270.786C228.584 270.85 228.747 270.787 228.896 270.598C229.128 270.398 229.287 270.293 229.372 270.282C231.666 268.716 234.673 267.019 238.393 265.192C239.038 264.856 239.613 264.657 240.12 264.595C240.289 264.575 240.722 264.607 241.418 264.694C241.84 264.642 242.109 264.738 242.225 264.981ZM221.885 281.614L222.03 280.696L220.838 282.513C220.138 283.799 219.628 284.89 219.309 285.787C219.192 286.23 219.228 286.525 219.418 286.673C219.894 286.358 220.36 285.615 220.817 284.445C221.358 283.264 221.714 282.321 221.885 281.614ZM271.944 284.491L267.623 283.862C266.663 283.723 265.583 282.955 264.384 281.558C263.269 280.152 262.434 278.582 261.879 276.85C261.502 275.867 261.005 273.913 260.39 270.988C259.953 268.813 259.548 266.205 259.176 263.164C259.145 262.911 259.109 262.615 259.068 262.277C259.026 261.94 258.985 261.602 258.944 261.264C258.902 260.926 258.876 260.715 258.866 260.63C258.677 260.482 258.518 260.587 258.39 260.946L257.832 262.686C255.852 268.929 253.537 274.527 250.885 279.481C249.889 281.146 249.279 282.12 249.057 282.405C248.612 282.973 247.994 283.178 247.203 283.017L244.449 282.582C243.236 282.474 242.303 281.859 241.652 280.739C240.759 279.048 240.125 277.368 239.75 275.699L239.174 272.041C239.132 271.703 239 269.919 238.776 266.689C238.7 263.269 238.781 260.773 239.017 259.201C239.231 258.146 239.507 257.598 239.845 257.557C240.098 257.526 240.578 257.595 241.285 257.766C241.992 257.937 242.397 258.445 242.5 259.289C243.165 263.323 243.533 265.635 243.606 266.226C244.105 268.908 244.799 272.124 245.686 275.873C245.832 276.37 246.141 277.489 246.611 279.232C246.632 279.401 246.69 279.522 246.784 279.596C246.953 279.576 247.075 279.518 247.149 279.423C247.932 278.813 248.594 277.918 249.135 276.737C250.492 274.514 251.723 271.963 252.828 269.084C254.454 264.856 256.002 259.995 257.473 254.5L258.337 251.051C258.646 250.07 258.833 249.147 258.899 248.282C258.9 247.596 259.082 246.631 259.444 245.386C259.488 245.038 259.725 244.88 260.158 244.913L262.927 245.474C263.549 245.655 264.023 246.026 264.349 246.586C264.801 247.474 265.05 248.815 265.098 250.61L265.506 258.146C265.73 261.377 266.084 264.977 266.57 268.946C266.787 270.72 267.366 273.35 268.307 276.835C268.767 278.493 269.428 280.041 270.289 281.479C270.615 282.039 270.862 282.309 271.031 282.288C271.369 282.247 271.686 282.037 271.983 281.657C273.157 280.742 274.131 279.594 274.905 278.214C275.615 277.012 276.888 274.456 278.724 270.545C280.423 266.909 281.517 264.289 282.006 262.686C282.294 261.536 282.698 260.63 283.217 259.966C283.587 259.492 283.947 259.277 284.295 259.32C285.688 259.492 286.526 259.69 286.811 259.912C286.3 261.346 285.833 262.432 285.409 263.17C284.497 264.824 283.611 266.69 282.75 268.767L279.851 275.551C278.429 278.64 277.236 280.8 276.272 282.033L274.907 283.486C274.06 284.275 273.073 284.61 271.944 284.491ZM290.003 283.311C288.167 283.021 286.713 281.998 285.641 280.244C284.549 278.32 283.889 276.429 283.661 274.571C282.79 268.848 282.601 264.499 283.094 261.524C283.16 260.659 283.347 259.736 283.655 258.755L284.291 257.649C284.588 257.269 284.873 257.149 285.147 257.287C286.814 257.597 288.021 258.007 288.77 258.515C288.008 259.294 287.534 260.681 287.35 262.675C287.167 263.983 287.277 266.285 287.68 269.579C287.824 270.761 288.147 272.693 288.646 275.375C289.137 277.287 289.851 278.914 290.786 280.257C291.112 280.817 291.359 281.087 291.528 281.066C291.613 281.056 291.967 280.798 292.591 280.293C293.586 279.315 294.386 278.145 294.991 276.785C296.051 274.941 296.922 272.948 297.603 270.808C299.369 265.62 300.527 260.72 301.077 256.109C301.163 255.413 301.201 255.023 301.191 254.938C301.16 254.685 301.06 254.568 300.891 254.589C300.384 254.651 299.82 254.592 299.197 254.41C298.649 254.135 298.017 253.869 297.3 253.614C296.657 253.264 296.246 253.057 296.066 252.993C294.084 252.207 292.949 250.631 292.659 248.267C292.16 245.584 292.742 242.984 294.405 240.466C295.073 239.613 295.528 239.129 295.771 239.013C296.321 238.603 296.849 238.367 297.356 238.305C297.778 238.253 298.258 238.323 298.796 238.515L301.247 239.629C302.153 240.033 302.795 240.726 303.173 241.708C303.624 242.596 303.928 243.673 304.083 244.94C304.134 245.363 304.169 246.344 304.186 247.885L304.198 249.041C304.135 249.22 304.155 249.389 304.26 249.548C304.44 249.611 304.651 249.586 304.894 249.47C306.099 248.808 307.236 247.941 308.304 246.867C309.077 246.172 309.547 245.815 309.716 245.794C309.97 245.763 310.507 245.954 311.33 246.368C312.162 246.867 312.71 247.142 312.974 247.196C313.86 247.43 314.375 248.139 314.52 249.321C314.571 249.744 314.644 250.335 314.737 251.095C314.83 251.855 314.86 252.452 314.827 252.884L314.687 258.045C314.597 260.113 314.61 263.369 314.725 267.813C314.921 269.418 315.186 270.886 315.52 272.216L315.725 272.834C315.966 273.405 316.277 273.495 316.658 273.106C318.487 271.939 319.894 270.824 320.878 269.761C322.138 268.149 323.197 266.648 324.056 265.257L328.222 258.318L329.479 255.978L330.418 254.192C330.842 253.454 331.265 253.059 331.687 253.008C332.025 252.966 332.521 253.163 333.174 253.597C333.353 253.661 333.421 253.867 333.378 254.215C333.049 255.027 332.662 255.717 332.217 256.286C330.65 258.192 328.753 261.253 326.525 265.469C325.041 268.051 324.044 269.716 323.536 270.464C322.741 271.676 321.582 273.061 320.058 274.619C319.211 275.408 318.493 275.839 317.901 275.911C317.395 275.973 316.825 275.871 316.192 275.606C315.823 275.394 314.927 275.075 313.503 274.649C311.089 273.83 309.542 272.048 308.863 269.302C308.727 268.89 308.556 267.839 308.349 266.15C308.142 264.461 308.055 263.4 308.088 262.967C308.05 261.257 308.11 258.592 308.267 254.973C308.257 254.888 308.29 254.455 308.366 253.675C308.516 252.799 308.607 252.145 308.64 251.712C308.619 251.543 308.519 251.427 308.34 251.363C308.245 251.289 308.161 251.299 308.087 251.394L304.345 253.395C304.018 253.521 303.801 253.847 303.694 254.375L303.194 257.651C302.473 262.968 301.144 268.574 299.208 274.469C298.953 275.186 298.592 276.087 298.124 277.173C297.731 278.164 297.476 278.881 297.359 279.324C296.68 280.779 296.081 281.838 295.562 282.502C294.894 283.355 294.181 283.828 293.421 283.921C293.336 283.931 292.946 283.893 292.249 283.807C291.522 283.468 290.773 283.302 290.003 283.311ZM300.868 251.249C301.439 251.007 301.73 250.586 301.742 249.984C301.83 248.602 301.786 247.193 301.611 245.757C301.476 244.659 301.273 243.698 301.001 242.874C300.897 242.029 300.53 241.474 299.897 241.209C299.654 241.324 299.246 241.846 298.674 242.773L298.482 243.311C297.717 245.462 297.432 247.34 297.629 248.945C297.753 249.958 297.94 250.792 298.192 251.447C298.233 251.785 298.423 251.933 298.761 251.892C299.183 251.84 299.885 251.626 300.868 251.249ZM383.839 267.33C382.719 263.781 382.061 261.204 381.865 259.599L380.16 245.663C379.839 243.045 379.387 240.4 378.803 237.728C378.731 237.137 378.542 236.646 378.237 236.254C377.836 236.475 377.581 236.849 377.474 237.376C377.007 238.462 376.32 240.904 375.413 244.701L373.762 252.232C373.464 253.297 373.192 254.574 372.945 256.061C372.698 257.549 372.441 258.952 372.174 260.271C371.991 261.579 371.878 262.407 371.835 262.755L370.966 268.262L370.805 269.053C370.624 269.676 370.312 269.928 369.869 269.811L369.474 269.731C368.165 269.548 367.486 269.245 367.434 268.823C367.351 268.147 367.337 267.678 367.39 267.414C367.418 260.638 368.16 253.389 369.616 245.667C370.025 242.702 370.639 240.013 371.458 237.598C371.82 236.353 372.314 235.136 372.94 233.945C373.734 232.733 374.375 232.012 374.861 231.781C375.738 231.245 376.493 231.11 377.126 231.375L380.59 232.366C381.392 232.611 381.976 233.182 382.343 234.08C382.815 235.137 383.155 236.51 383.362 238.199C383.508 238.696 383.69 239.831 383.907 241.604C384.124 243.378 384.221 244.523 384.198 245.04C384.472 249.379 384.665 252.356 384.777 253.971L385.066 258.436C385.341 262.089 385.919 265.061 386.8 267.354C387.008 268.357 387.307 269.049 387.697 269.43C388.002 269.821 388.265 269.875 388.488 269.591C389.45 269.044 390.269 268.387 390.947 267.618C391.91 266.386 392.822 265.074 393.68 263.683L396.864 257.121L398.806 253.026L400.621 248.946L402.403 245.642C402.753 244.999 403.324 244.758 404.115 244.919C404.821 245.089 404.99 245.412 404.619 245.886C401.564 251.746 399.436 256.078 398.236 258.882L396.279 262.851C395.344 265.023 394.305 266.693 393.163 267.861C392.421 268.809 391.659 269.588 390.877 270.198C390.327 270.609 389.498 270.839 388.389 270.888C386.131 270.65 384.615 269.464 383.839 267.33ZM409.492 274.479L408.305 274.239L405.425 273.819C404.296 273.7 403.628 273.139 403.419 272.136C402.844 270.235 402.545 269.2 402.525 269.031C402.182 266.929 401.926 264.132 401.755 260.638L401.637 257.566C401.523 256.637 401.434 254.505 401.368 251.17C401.188 247.591 401.134 243.997 401.207 240.388L401.293 231.633C401.385 228.879 401.511 227.106 401.671 226.315C401.661 226.231 401.709 225.925 401.816 225.397C401.997 224.775 402.351 224.517 402.879 224.624L403.132 224.593C404.756 225.252 405.593 225.792 405.645 226.215L405.609 228.019C405.612 230.848 405.644 232.516 405.706 233.022L406.235 242.602C406.504 244.798 406.637 246.239 406.636 246.925C407.066 251.844 407.328 254.684 407.421 255.444L408.276 261.383C408.348 261.974 408.437 262.349 408.542 262.508L408.684 262.619L408.922 262.462L409.114 261.924C410.5 256.439 412.567 250.914 415.315 245.349C415.91 243.904 416.209 242.839 416.21 242.153C416.35 241.193 416.754 239.943 417.423 238.404L418.282 237.013C418.949 236.16 419.409 235.718 419.663 235.687C419.832 235.666 420.232 235.789 420.865 236.054L421.276 236.261C421.445 236.24 421.561 236.141 421.625 235.961C421.773 235.772 421.874 235.545 421.928 235.281L422.023 235.012L422.771 233.764C423.205 233.11 423.76 232.743 424.436 232.66C424.943 232.598 425.512 232.7 426.145 232.965L426.825 233.268C428.986 234.118 430.254 235.72 430.628 238.075L430.721 238.835C430.855 239.933 430.841 241.22 430.679 242.698L430.386 245.562C430.164 245.847 430.306 245.958 430.813 245.896C431.151 245.855 431.357 245.786 431.431 245.692C433.575 245.001 435.229 244.155 436.393 243.156L439.121 241.279L440.517 240.08C441.236 239.649 441.68 239.423 441.849 239.402C442.187 239.361 442.735 239.637 443.493 240.23C443.514 240.399 443.376 240.673 443.079 241.052L438.384 244.713C437.21 245.628 435.397 246.578 432.946 247.564C432.132 247.92 431.467 248.088 430.95 248.065L430.696 248.096C430.105 248.168 429.687 248.605 429.442 249.407L428.739 252.065C428.461 253.299 427.977 254.601 427.288 255.971L426.318 257.504C425.566 258.368 424.737 258.598 423.831 258.194L419.924 256.744C418.575 256.223 417.585 255.144 416.956 253.506C416.569 252.439 416.302 251.314 416.158 250.132C416.127 249.879 416.027 249.762 415.858 249.783C415.689 249.804 415.615 249.898 415.636 250.067C415.222 250.889 414.861 251.791 414.552 252.772C413.488 255.988 412.554 259.917 411.75 264.559L410.24 273.23L410.079 274.022C409.941 274.296 409.746 274.448 409.492 274.479ZM428.233 245.826C428.745 243.706 428.956 241.58 428.867 239.447C428.629 237.505 428.1 235.984 427.28 234.884C426.701 234.354 426.184 234.332 425.729 234.816C425.348 235.206 425.056 235.627 424.855 236.081C424.346 236.829 424.032 237.767 423.913 238.896C423.909 240.268 423.923 241.081 423.954 241.334C424.15 242.939 424.754 244.365 425.764 245.613C426.163 246.079 426.669 246.36 427.281 246.457C427.629 246.5 427.947 246.289 428.233 245.826ZM423.585 255.138L423.712 255.123C424.134 255.071 424.478 254.729 424.744 254.096C425.485 253.149 426.377 251.325 427.418 248.626C427.62 248.173 427.489 247.803 427.025 247.517C425.212 246.71 423.868 245.888 422.995 245.052L422.599 244.972C422.451 245.162 422.382 245.299 422.392 245.383C422.271 247.198 422.293 248.781 422.459 250.133L422.756 251.511L423.019 253.665C423.123 254.509 423.311 255 423.585 255.138ZM449.638 259.281L445.178 257.512C442.922 256.588 441.354 254.979 440.473 252.687C439.749 250.975 439.279 249.232 439.062 247.458C438.855 245.769 438.908 243.748 439.22 241.395C439.491 238.705 440.347 236.243 441.789 234.009C442.351 232.997 443.023 232.186 443.806 231.576C444.356 231.166 444.926 230.925 445.517 230.852C445.602 230.842 445.992 230.88 446.689 230.966C448.376 231.446 449.82 232.04 451.022 232.751L451.717 233.18C451.938 233.582 451.979 233.92 451.841 234.194L451.634 234.605C451.55 234.615 451.407 234.847 451.205 235.3C450.993 235.669 450.797 235.821 450.618 235.758C450.27 235.715 450.039 235.228 449.925 234.299L449.579 233.57C449.379 233.337 449.152 233.237 448.899 233.268C447.97 233.381 447.23 233.986 446.678 235.082C445.714 236.315 445.082 237.807 444.782 239.558C443.982 242.827 443.92 246.178 444.597 249.61C444.94 251.711 445.727 253.587 446.957 255.237C447.462 255.861 447.842 256.157 448.095 256.126C448.348 256.095 448.718 255.964 449.204 255.733C450.251 255.177 451.012 254.398 451.49 253.396C452.878 251.426 453.718 249.18 454.009 246.659C454.383 244.813 454.426 242.707 454.137 240.342C454.106 240.089 453.882 238.959 453.465 236.953C451.802 231.069 449.393 226.092 446.237 222.02C444.291 219.429 441.918 216.848 439.117 214.276C437.58 212.921 436.258 211.925 435.152 211.289L431.39 208.92L431.106 208.698C430.094 208.136 429.531 207.39 429.417 206.461C429.293 205.448 429.655 204.546 430.501 203.757C431.411 202.788 432.749 201.81 434.514 200.823C438.065 199.017 442.075 197.455 446.543 196.137C450.683 194.944 455.425 193.764 460.769 192.596C464.126 192.014 466.27 191.666 467.199 191.552C467.452 191.521 469.701 191.332 473.945 190.984C474.536 190.912 475.116 191.098 475.685 191.543L477.437 193.257C477.817 193.554 477.837 193.723 477.499 193.764C477.415 193.774 477.33 193.785 477.246 193.795C475.8 193.886 473.91 194.203 471.576 194.746L468.804 195.213C463.071 196.001 458.794 196.781 455.974 197.555C449.807 198.995 444.843 200.459 441.081 201.948C438.461 202.955 436.76 203.763 435.977 204.373C435.026 205.004 434.365 205.556 433.994 206.03C433.401 206.788 433.13 207.379 433.182 207.801C433.244 208.308 433.601 208.778 434.255 209.213C435.582 210.251 436.472 210.87 436.925 211.072C440.424 213.044 444 215.993 447.652 219.918C450.115 222.532 451.84 224.721 452.827 226.486C455.559 231.296 457.325 235.923 458.126 240.369C458.446 242.987 458.323 245.831 457.755 248.901C457.435 250.483 456.891 252.35 456.126 254.501C455.372 256.05 454.583 257.304 453.757 258.262C452.911 259.052 452.15 259.488 451.474 259.57C451.052 259.622 450.44 259.526 449.638 259.281ZM506.666 232.759C506.687 232.928 506.391 233.307 505.777 233.896L500.587 238.774C499.106 239.984 497.657 241.448 496.238 243.164C495.709 243.743 495.491 244.413 495.584 245.173C495.828 248.572 495.275 252.112 493.925 255.792C493.106 258.206 491.887 260.156 490.268 261.64L488.968 262.57C488.249 263.001 487.621 263.121 487.083 262.93L484.141 262.004C483.793 261.96 483.582 261.643 483.51 261.052C483.458 260.63 483.533 260.192 483.735 259.739C484.194 257.882 485.091 255.758 486.427 253.366L488.765 249.351C489.115 248.708 489.333 248.038 489.419 247.342C489.597 243.891 489.51 241.073 489.157 238.887C488.981 237.451 488.688 236.458 488.278 235.908C487.602 235.991 486.968 236.411 486.375 237.17C485.485 238.307 484.876 239.282 484.546 240.094C483.898 241.802 483.34 243.542 482.87 245.314C482.186 248.827 481.483 253.242 480.762 258.559L479.776 266.267L479.31 268.767C479.055 269.484 478.5 269.852 477.645 269.871C477.297 269.827 476.247 269.656 474.496 269.356C473.367 269.237 472.519 268.612 471.952 267.481C471.647 267.09 471.17 265.991 470.52 264.184C469.672 261.459 469.067 258.618 468.706 255.662C468.241 251.861 467.841 247.195 467.508 241.664C467.269 236.207 467.155 231.42 467.165 227.304C467.198 226.871 467.253 225.922 467.331 224.455C467.281 223.346 467.366 221.236 467.585 218.123C467.956 213.448 468.727 209.239 469.898 205.495C470.61 203.608 471.369 202.101 472.174 200.973C472.726 199.877 473.614 199.083 474.84 198.59C475.326 198.359 475.78 198.218 476.202 198.166C476.709 198.104 477.226 198.126 477.754 198.233L479.383 198.934L481.422 199.842C482.857 200.352 483.729 201.531 484.041 203.379C484.196 204.646 484.193 206.018 484.03 207.495C483.834 210.091 482.92 214.532 481.288 220.818C479.552 226.946 477.462 232.988 475.019 238.945C474.34 240.4 474.108 242.014 474.325 243.787C474.542 245.561 474.635 246.664 474.602 247.097L474.894 250.533C474.943 251.641 475.201 254.096 475.666 257.897C475.79 258.91 476.102 260.415 476.604 262.411C476.635 262.665 476.735 262.781 476.904 262.76C477.093 262.909 477.247 262.761 477.364 262.318C477.343 262.149 477.355 261.891 477.398 261.543C477.525 261.184 477.616 260.873 477.669 260.609L479.63 249.311C480.136 245.734 480.776 242.913 481.552 240.846C481.84 239.696 482.297 238.526 482.923 237.335C483.644 236.218 484.269 235.37 484.798 234.791C485.422 234.286 486.03 233.997 486.621 233.925C486.705 233.915 487.096 233.953 487.792 234.039C488.161 234.251 489.099 234.565 490.608 234.98C492.211 235.47 493.358 236.444 494.051 237.902L495.026 240.612L495.279 240.581C495.532 240.55 495.844 240.298 496.215 239.824L500.564 235.434L502.85 233.097L503.897 232.197C504.342 231.628 504.759 231.535 505.149 231.916L505.291 232.027C506.177 232.261 506.635 232.505 506.666 232.759ZM473.91 233.037L474.177 234.162C474.399 233.877 474.542 233.645 474.606 233.466C474.585 233.297 474.607 233.123 474.671 232.944C474.819 232.754 474.92 232.528 474.973 232.264C475.101 231.905 475.191 231.594 475.245 231.33C477.424 225.32 478.943 219.519 479.802 213.928C480.522 209.296 480.825 206.173 480.714 204.558L480.497 202.784C480.455 202.446 480.34 202.203 480.15 202.055C479.971 201.991 479.77 202.102 479.548 202.386C478.489 203.544 477.663 204.845 477.068 206.29C475.878 209.179 475.095 211.889 474.719 214.421C474.019 219.907 473.749 226.113 473.91 233.037ZM474.065 234.304L474.05 234.177L474.065 234.304ZM536.464 252.131L532.144 251.502C531.184 251.362 530.104 250.594 528.904 249.198C527.789 247.791 526.954 246.222 526.399 244.489C526.022 243.507 525.526 241.553 524.911 238.628C524.473 236.452 524.068 233.844 523.696 230.804C523.665 230.55 523.629 230.255 523.588 229.917C523.547 229.579 523.505 229.241 523.464 228.903C523.423 228.566 523.397 228.354 523.386 228.27C523.197 228.122 523.038 228.227 522.911 228.585L522.352 230.325C520.373 236.568 518.057 242.167 515.405 247.12C514.409 248.785 513.799 249.76 513.577 250.044C513.132 250.613 512.514 250.817 511.723 250.657L508.97 250.222C507.756 250.113 506.824 249.499 506.172 248.378C505.28 246.687 504.646 245.007 504.27 243.339L503.694 239.68C503.652 239.342 503.52 237.558 503.296 234.328C503.221 230.908 503.301 228.413 503.537 226.841C503.751 225.786 504.027 225.238 504.365 225.196C504.618 225.165 505.098 225.235 505.805 225.406C506.512 225.577 506.917 226.084 507.02 226.929C507.685 230.962 508.054 233.275 508.126 233.866C508.626 236.548 509.319 239.764 510.206 243.513C510.353 244.009 510.661 245.129 511.132 246.871C511.152 247.04 511.21 247.162 511.305 247.236C511.474 247.215 511.595 247.158 511.669 247.063C512.452 246.453 513.114 245.557 513.655 244.377C515.012 242.153 516.243 239.602 517.348 236.724C518.974 232.496 520.523 227.634 521.994 222.14L522.857 218.691C523.166 217.71 523.353 216.787 523.419 215.921C523.421 215.235 523.603 214.27 523.965 213.026C524.008 212.678 524.246 212.52 524.678 212.553L527.447 213.114C528.07 213.295 528.544 213.666 528.869 214.226C529.321 215.114 529.571 216.455 529.619 218.249L530.026 225.786C530.25 229.016 530.605 232.616 531.09 236.586C531.307 238.36 531.886 240.989 532.827 244.475C533.287 246.133 533.948 247.681 534.81 249.118C535.135 249.679 535.383 249.948 535.552 249.928C535.889 249.886 536.207 249.676 536.503 249.297C537.677 248.382 538.651 247.234 539.425 245.853C540.135 244.652 541.409 242.096 543.245 238.185C544.943 234.548 546.037 231.928 546.527 230.325C546.815 229.176 547.218 228.269 547.737 227.606C548.108 227.132 548.467 226.916 548.815 226.959C550.208 227.132 551.047 227.329 551.331 227.552C550.821 228.986 550.353 230.072 549.929 230.809C549.017 232.464 548.131 234.33 547.271 236.407L544.372 243.191C542.949 246.279 541.756 248.44 540.792 249.672L539.427 251.125C538.581 251.915 537.593 252.25 536.464 252.131Z" fill="#7F1023"></path></svg> 