<?xml version="1.0" encoding="UTF-8"?> <svg xmlns="http://www.w3.org/2000/svg" width="49" height="16" viewBox="0 0 49 16" fill="none"><path d="M13.5938 1.22266C13.5938 1.23307 13.5885 1.25911 13.5781 1.30078C10.4635 4.76953 7.00521 8.9987 3.20312 13.9883L2.90625 14.1602C2.38542 14.181 1.875 14.1914 1.375 14.1914C0.947917 14.1914 0.734375 14.1237 0.734375 13.9883C0.734375 13.8945 0.770833 13.8008 0.84375 13.707C1.15625 13.3424 1.625 12.8008 2.25 12.082C4.5 9.48828 6.94792 6.82682 9.59375 4.09766C5.78125 6.51432 3.86458 7.72266 3.84375 7.72266C3.71875 7.72266 3.65625 7.66016 3.65625 7.53516C3.65625 7.48307 3.6875 7.4362 3.75 7.39453C4.27083 7.04036 5.98438 5.89974 8.89062 3.97266C11.8594 2.01432 13.3594 1.03516 13.3906 1.03516C13.526 1.03516 13.5938 1.09766 13.5938 1.22266ZM23.4062 1.03516C23.4062 1.14974 23.1979 1.46224 22.7812 1.97266C21.8438 3.13932 20.8594 3.72266 19.8281 3.72266C19.099 3.72266 18.3698 3.4987 17.6406 3.05078C17.599 3.15495 17.3385 3.53516 16.8594 4.19141C16.3802 4.84766 16.1042 5.20182 16.0312 5.25391H16.0938C16.1354 5.25391 16.2031 5.2487 16.2969 5.23828C16.401 5.21745 16.4792 5.20703 16.5312 5.20703C17.4375 5.20703 18.1719 5.4362 18.7344 5.89453C19.3385 6.39453 19.6406 7.08724 19.6406 7.97266C19.6406 8.55599 19.5052 9.1237 19.2344 9.67578C18.6198 10.8945 17.75 11.8841 16.625 12.6445C15.4479 13.4466 14.2031 13.8477 12.8906 13.8477C12.151 13.8477 11.5104 13.7018 10.9688 13.4102C10.3125 13.0456 9.98438 12.5195 9.98438 11.832C9.98438 11.1862 10.1562 10.6289 10.5 10.1602C10.8854 9.64974 11.3906 9.39453 12.0156 9.39453C12.349 9.39453 12.651 9.51953 12.9219 9.76953C13.2031 10.0195 13.3438 10.306 13.3438 10.6289C13.3438 11.4206 12.9323 11.8164 12.1094 11.8164C11.2656 11.8164 10.8438 11.3893 10.8438 10.5352C10.4792 10.8372 10.2969 11.2383 10.2969 11.7383C10.2969 12.7695 10.901 13.2852 12.1094 13.2852C13.4115 13.2852 14.75 12.457 16.125 10.8008C17.4583 9.20703 18.125 7.73828 18.125 6.39453C18.125 5.83203 17.5729 5.55078 16.4688 5.55078C16.1458 5.55078 15.8802 5.61328 15.6719 5.73828C15.5469 5.8112 15.3177 6.18099 14.9844 6.84766C14.6927 7.43099 14.4271 7.72266 14.1875 7.72266C13.8542 7.72266 13.6875 7.54557 13.6875 7.19141C13.6875 6.68099 13.9688 6.26432 14.5312 5.94141C15.25 5.53516 15.6406 5.29036 15.7031 5.20703C15.8073 5.05078 16.7917 3.64974 18.6562 1.00391H18.6719C18.7135 1.00391 18.9896 1.16536 19.5 1.48828C20.0208 1.8112 20.4948 1.97266 20.9219 1.97266C21.4948 1.97266 22.0365 1.77995 22.5469 1.39453C23.0677 1.00911 23.2917 0.816406 23.2188 0.816406C23.3438 0.816406 23.4062 0.889323 23.4062 1.03516ZM20.9531 13.1445C20.9531 13.4049 20.7292 13.7643 20.2812 14.2227C19.8333 14.6914 19.474 14.9622 19.2031 15.0352C19.1823 15.0247 19.1719 15.0039 19.1719 14.9727C19.1719 14.931 19.2604 14.7695 19.4375 14.4883C19.6042 14.207 19.6875 14.0247 19.6875 13.9414C19.6875 13.931 19.6823 13.9206 19.6719 13.9102C19.2969 13.8685 19.1094 13.6602 19.1094 13.2852C19.1094 12.6081 19.4271 12.2695 20.0625 12.2695C20.6562 12.2695 20.9531 12.5612 20.9531 13.1445ZM23.5938 8.08203C23.5938 8.4987 23.2656 8.79557 22.6094 8.97266C22.0365 8.91016 21.75 8.66536 21.75 8.23828C21.75 7.5612 22.0677 7.22266 22.7031 7.22266C23.2969 7.22266 23.5938 7.50911 23.5938 8.08203ZM37.375 3.41016C37.375 3.67057 37.3281 3.92578 37.2344 4.17578C36.6927 5.64453 35.5469 6.44661 33.7969 6.58203C33.5156 6.59245 33.0885 6.61328 32.5156 6.64453C32.3385 6.6862 32.0781 6.72786 31.7344 6.76953C33.099 7.21745 33.7812 8.02474 33.7812 9.19141C33.7812 10.4831 33.0781 11.6445 31.6719 12.6758C30.3698 13.6341 29.0469 14.1133 27.7031 14.1133C26.2969 14.1133 25.2812 13.7383 24.6562 12.9883C24.2917 12.5404 24.1094 12.0612 24.1094 11.5508C24.1094 10.3841 24.6198 9.80078 25.6406 9.80078C26.4844 9.80078 26.9062 10.1966 26.9062 10.9883C26.9062 11.8008 26.4844 12.207 25.6406 12.207C25.3802 12.207 25.1302 12.1289 24.8906 11.9727V12.1133C24.8906 12.6029 25.1354 12.9831 25.625 13.2539C26.0312 13.4935 26.4948 13.6133 27.0156 13.6133C27.401 13.6133 27.7708 13.5247 28.125 13.3477C30.1979 12.3268 31.5312 10.7122 32.125 8.50391C32.1875 8.26432 32.2188 8.07161 32.2188 7.92578C32.2188 7.26953 31.901 6.94141 31.2656 6.94141C30.5677 6.94141 30.151 7.14974 30.0156 7.56641C29.8802 7.97266 29.6302 8.17578 29.2656 8.17578C28.8073 8.17578 28.5781 7.97266 28.5781 7.56641C28.5781 7.02474 28.9844 6.6862 29.7969 6.55078C30.4427 6.50911 31.0833 6.46224 31.7188 6.41016C33.3542 6.23307 34.6198 5.44661 35.5156 4.05078C35.776 3.64453 35.9062 3.26432 35.9062 2.91016C35.9062 2.07682 35.3906 1.66016 34.3594 1.66016C34.2344 1.66016 34.0052 1.71224 33.6719 1.81641C33.349 1.91016 33.1615 1.99349 33.1094 2.06641C33.1094 2.12891 33.0521 2.25911 32.9375 2.45703C33.2083 2.67578 33.3438 2.96224 33.3438 3.31641C33.3438 4.08724 32.9792 4.47266 32.25 4.47266C31.5417 4.47266 31.1875 4.08724 31.1875 3.31641C31.1875 2.60807 31.6354 2.09766 32.5312 1.78516C33.3646 1.49349 34.0781 1.34766 34.6719 1.34766C35.3698 1.34766 35.974 1.51432 36.4844 1.84766C37.0781 2.23307 37.375 2.75391 37.375 3.41016ZM48.7812 4.62891C48.7812 4.77474 48.474 5.09766 47.8594 5.59766C47.599 5.80599 47.3073 5.91536 46.9844 5.92578C46.4115 7.09245 45.2656 8.58724 43.5469 10.4102C41.7031 12.3685 40.3021 13.4727 39.3438 13.7227C39.0729 13.7956 38.8281 13.832 38.6094 13.832C38.0677 13.832 37.6458 13.5872 37.3438 13.0977C37.0729 12.6706 36.9375 12.1758 36.9375 11.6133C36.9375 11.0195 37.1146 10.332 37.4688 9.55078C38.0521 8.2487 38.599 7.29036 39.1094 6.67578C40.0781 5.47786 41.276 4.3737 42.7031 3.36328C44.849 1.84245 46.2969 1.08203 47.0469 1.08203C47.8802 1.08203 48.2969 1.5612 48.2969 2.51953C48.2969 3.50911 47.9479 4.45703 47.25 5.36328L47.2812 5.42578C47.5208 5.40495 47.7917 5.24349 48.0938 4.94141C48.3958 4.62891 48.5833 4.47266 48.6562 4.47266C48.7396 4.47266 48.7812 4.52474 48.7812 4.62891ZM47.8125 2.28516C47.7917 1.83724 47.625 1.61328 47.3125 1.61328C46.6562 1.61328 45.6927 2.31641 44.4219 3.72266C43.599 4.72266 42.776 5.72266 41.9531 6.72266C39.4427 9.68099 38.1875 11.6549 38.1875 12.6445C38.1875 13.1654 38.3958 13.4258 38.8125 13.4258C39.4062 13.4258 40.125 13.0716 40.9688 12.3633C41.7604 11.7174 42.7917 10.6549 44.0625 9.17578C45.4167 7.60286 46.2604 6.44661 46.5938 5.70703C46.2604 5.71745 46.0938 5.48828 46.0938 5.01953C46.0938 4.48828 46.25 3.94141 46.5625 3.37891C46.9167 2.73307 47.3333 2.36849 47.8125 2.28516Z" fill="#28682E"></path></svg> 