<?xml version="1.0" encoding="UTF-8"?> <svg xmlns="http://www.w3.org/2000/svg" width="306" height="45" viewBox="0 0 306 45" fill="none"><line x1="0.367798" y1="43.7412" x2="119.11" y2="43.7412" stroke="white" stroke-opacity="0.5"></line><path d="M222.905 19.84H223.135C223.22 19.84 223.323 19.7973 223.442 19.712C223.579 19.6267 223.724 19.5328 223.877 19.4304C224.048 19.3109 224.244 19.1744 224.466 19.0208C224.705 18.8672 224.97 18.7307 225.26 18.6112C225.567 18.4747 225.908 18.3637 226.284 18.2784C226.659 18.1931 227.077 18.1504 227.538 18.1504C228.119 18.1504 228.682 18.2357 229.228 18.4064C229.774 18.56 230.26 18.8075 230.687 19.1488C231.114 19.4731 231.455 19.8912 231.711 20.4032C231.967 20.9152 232.095 21.5296 232.095 22.2464C232.095 22.8437 231.993 23.3899 231.788 23.8848C231.583 24.3797 231.301 24.8405 230.943 25.2672C230.602 25.6939 230.209 26.1035 229.765 26.496C229.339 26.8715 228.895 27.2469 228.434 27.6224C227.991 27.9808 227.555 28.3477 227.129 28.7232C226.719 29.0987 226.344 29.4912 226.002 29.9008C225.678 30.3104 225.405 30.7541 225.183 31.232C224.961 31.6928 224.833 32.1877 224.799 32.7168H230.124C230.772 32.7168 231.284 32.6059 231.66 32.384C232.035 32.1451 232.232 31.7611 232.249 31.232H232.479V34.1504H223.007C223.007 33.3824 223.135 32.6741 223.391 32.0256C223.647 31.36 223.98 30.7541 224.389 30.208C224.799 29.6448 225.251 29.1243 225.746 28.6464C226.258 28.1685 226.762 27.7077 227.257 27.264C227.666 26.9056 228.059 26.5472 228.434 26.1888C228.827 25.8304 229.168 25.472 229.458 25.1136C229.765 24.7381 230.004 24.3541 230.175 23.9616C230.363 23.552 230.457 23.1253 230.457 22.6816C230.457 22.1184 230.354 21.6149 230.149 21.1712C229.962 20.7275 229.706 20.352 229.381 20.0448C229.074 19.7376 228.716 19.5072 228.306 19.3536C227.897 19.1829 227.487 19.0976 227.077 19.0976C226.207 19.0976 225.439 19.3621 224.773 19.8912C224.108 20.4032 223.57 21.0688 223.161 21.888H222.905V19.84ZM234.238 26.2144C234.238 24.9003 234.4 23.7397 234.724 22.7328C235.066 21.7259 235.51 20.8896 236.056 20.224C236.602 19.5413 237.216 19.0293 237.899 18.688C238.599 18.3296 239.307 18.1504 240.024 18.1504C240.74 18.1504 241.449 18.3296 242.148 18.688C242.848 19.0293 243.463 19.5413 243.992 20.224C244.538 20.8896 244.973 21.7259 245.297 22.7328C245.639 23.7397 245.809 24.9003 245.809 26.2144C245.809 27.5456 245.639 28.7232 245.297 29.7472C244.973 30.7541 244.538 31.6075 243.992 32.3072C243.463 32.9899 242.848 33.5104 242.148 33.8688C241.449 34.2272 240.74 34.4064 240.024 34.4064C239.307 34.4064 238.599 34.2272 237.899 33.8688C237.216 33.5104 236.602 32.9899 236.056 32.3072C235.51 31.6075 235.066 30.7541 234.724 29.7472C234.4 28.7232 234.238 27.5456 234.238 26.2144ZM244.196 26.88C244.196 25.6512 244.06 24.5675 243.787 23.6288C243.514 22.6731 243.155 21.8795 242.712 21.248C242.285 20.5995 241.79 20.1131 241.227 19.7888C240.681 19.4475 240.118 19.2768 239.537 19.2768C238.957 19.2768 238.428 19.4475 237.95 19.7888C237.489 20.1131 237.097 20.5483 236.772 21.0944C236.448 21.6405 236.192 22.272 236.004 22.9888C235.834 23.7056 235.748 24.4565 235.748 25.2416C235.748 26.1803 235.859 27.136 236.081 28.1088C236.303 29.0645 236.619 29.9349 237.028 30.72C237.438 31.488 237.924 32.1195 238.488 32.6144C239.068 33.1093 239.699 33.3568 240.382 33.3568C240.877 33.3568 241.355 33.2203 241.816 32.9472C242.276 32.6571 242.678 32.2389 243.019 31.6928C243.377 31.1467 243.659 30.4725 243.864 29.6704C244.086 28.8683 244.196 27.9381 244.196 26.88ZM247.53 19.84H247.76C247.845 19.84 247.948 19.7973 248.067 19.712C248.204 19.6267 248.349 19.5328 248.502 19.4304C248.673 19.3109 248.869 19.1744 249.091 19.0208C249.33 18.8672 249.595 18.7307 249.885 18.6112C250.192 18.4747 250.533 18.3637 250.909 18.2784C251.284 18.1931 251.702 18.1504 252.163 18.1504C252.744 18.1504 253.307 18.2357 253.853 18.4064C254.399 18.56 254.885 18.8075 255.312 19.1488C255.739 19.4731 256.08 19.8912 256.336 20.4032C256.592 20.9152 256.72 21.5296 256.72 22.2464C256.72 22.8437 256.618 23.3899 256.413 23.8848C256.208 24.3797 255.926 24.8405 255.568 25.2672C255.227 25.6939 254.834 26.1035 254.39 26.496C253.964 26.8715 253.52 27.2469 253.059 27.6224C252.616 27.9808 252.18 28.3477 251.754 28.7232C251.344 29.0987 250.969 29.4912 250.627 29.9008C250.303 30.3104 250.03 30.7541 249.808 31.232C249.586 31.6928 249.458 32.1877 249.424 32.7168H254.749C255.397 32.7168 255.909 32.6059 256.285 32.384C256.66 32.1451 256.857 31.7611 256.874 31.232H257.104V34.1504H247.632C247.632 33.3824 247.76 32.6741 248.016 32.0256C248.272 31.36 248.605 30.7541 249.014 30.208C249.424 29.6448 249.876 29.1243 250.371 28.6464C250.883 28.1685 251.387 27.7077 251.882 27.264C252.291 26.9056 252.684 26.5472 253.059 26.1888C253.452 25.8304 253.793 25.472 254.083 25.1136C254.39 24.7381 254.629 24.3541 254.8 23.9616C254.988 23.552 255.082 23.1253 255.082 22.6816C255.082 22.1184 254.979 21.6149 254.774 21.1712C254.587 20.7275 254.331 20.352 254.006 20.0448C253.699 19.7376 253.341 19.5072 252.931 19.3536C252.522 19.1829 252.112 19.0976 251.702 19.0976C250.832 19.0976 250.064 19.3621 249.398 19.8912C248.733 20.4032 248.195 21.0688 247.786 21.888H247.53V19.84ZM268.002 29.3632C268.002 29.9605 267.883 30.5664 267.644 31.1808C267.422 31.7781 267.081 32.3157 266.62 32.7936C266.159 33.2715 265.57 33.664 264.853 33.9712C264.154 34.2613 263.335 34.4064 262.396 34.4064C261.935 34.4064 261.483 34.3552 261.039 34.2528C260.595 34.1504 260.177 34.048 259.785 33.9456C259.495 33.8603 259.23 33.792 258.991 33.7408C258.752 33.6725 258.539 33.6384 258.351 33.6384V31.616C258.795 32.2133 259.375 32.6827 260.092 33.024C260.826 33.3653 261.56 33.536 262.293 33.536C262.959 33.536 263.539 33.4336 264.034 33.2288C264.529 33.024 264.939 32.7509 265.263 32.4096C265.604 32.0512 265.852 31.6331 266.005 31.1552C266.176 30.6603 266.261 30.1312 266.261 29.568C266.261 28.8853 266.142 28.288 265.903 27.776C265.681 27.264 265.383 26.8373 265.007 26.496C264.632 26.1376 264.196 25.8731 263.701 25.7024C263.224 25.5317 262.737 25.4464 262.242 25.4464C261.696 25.4464 261.099 25.5744 260.45 25.8304C259.802 26.0693 259.136 26.4533 258.453 26.9824L261.73 18.4064H268.13L267.618 19.84H262.268C261.978 20.608 261.662 21.4016 261.321 22.2208C260.996 23.04 260.689 23.8421 260.399 24.6272C260.809 24.4395 261.193 24.3115 261.551 24.2432C261.909 24.1749 262.293 24.1408 262.703 24.1408C263.386 24.1408 264.043 24.2603 264.674 24.4992C265.306 24.7381 265.869 25.0795 266.364 25.5232C266.859 25.9669 267.251 26.5131 267.541 27.1616C267.849 27.8101 268.002 28.544 268.002 29.3632Z" fill="#5E5A57"></path><line x1="186.37" y1="43.7412" x2="305.112" y2="43.7412" stroke="white" stroke-opacity="0.5"></line><path d="M33.3892 31.9104H33.5092C33.8932 31.9104 34.0852 31.7344 34.0852 31.3824C34.0852 31.2544 34.0612 31.1184 34.0132 30.9744L31.8532 25.1424H27.6532L25.5652 30.8784C25.5172 31.0064 25.4932 31.1264 25.4932 31.2384C25.4932 31.4464 25.5492 31.6144 25.6612 31.7424C25.7732 31.8544 25.8932 31.9104 26.0212 31.9104H26.1412V32.1504H23.4772V31.9104H23.5972C23.8052 31.9104 24.0052 31.7904 24.1972 31.5504C24.4052 31.2944 24.5732 30.9984 24.7012 30.6624L30.1972 16.0224L35.5732 30.5184C35.6852 30.8384 35.8372 31.1504 36.0292 31.4544C36.2372 31.7584 36.5012 31.9104 36.8212 31.9104H36.9412V32.1504H33.3892V31.9104ZM27.8932 24.3264H31.5892L29.7412 19.3104L27.8932 24.3264ZM38.3775 31.9104H38.4975C38.6095 31.9104 38.7135 31.8624 38.8095 31.7664C38.9055 31.6704 38.9855 31.5584 39.0495 31.4304C39.1295 31.3024 39.1855 31.1664 39.2175 31.0224C39.2495 30.8624 39.2655 30.7184 39.2655 30.5904V17.8224C39.2655 17.7104 39.2495 17.5824 39.2175 17.4384C39.1855 17.2944 39.1295 17.1584 39.0495 17.0304C38.9855 16.8864 38.8975 16.7744 38.7855 16.6944C38.6895 16.5984 38.5775 16.5504 38.4495 16.5504H38.3295V16.3104H42.2655C43.7535 16.3104 44.9135 16.6384 45.7455 17.2944C46.5935 17.9504 47.0175 18.8224 47.0175 19.9104C47.0175 20.3744 46.9375 20.7904 46.7775 21.1584C46.6175 21.5264 46.4095 21.8544 46.1535 22.1424C45.9135 22.4304 45.6495 22.6784 45.3615 22.8864C45.0735 23.0784 44.8015 23.2384 44.5455 23.3664C45.2175 23.4944 45.7775 23.7104 46.2255 24.0144C46.6735 24.3184 47.0335 24.6704 47.3055 25.0704C47.5935 25.4544 47.7935 25.8704 47.9055 26.3184C48.0175 26.7664 48.0735 27.2064 48.0735 27.6384C48.0735 28.4704 47.9215 29.1744 47.6175 29.7504C47.3135 30.3104 46.9055 30.7744 46.3935 31.1424C45.8975 31.4944 45.3215 31.7504 44.6655 31.9104C44.0255 32.0704 43.3615 32.1504 42.6735 32.1504H38.3775V31.9104ZM46.4415 27.7824C46.3135 26.5504 45.8975 25.5984 45.1935 24.9264C44.4895 24.2544 43.4975 23.9184 42.2175 23.9184H40.8735V31.3584H42.2655C43.5615 31.3584 44.5775 31.0704 45.3135 30.4944C46.0655 29.9024 46.4415 29.0864 46.4415 28.0464V27.7824ZM45.4575 20.1264C45.4095 19.1984 45.0815 18.4624 44.4735 17.9184C43.8815 17.3744 43.0815 17.1024 42.0735 17.1024H40.8735V23.1504H42.1215C42.7935 23.1504 43.3375 23.0624 43.7535 22.8864C44.1855 22.7104 44.5295 22.4864 44.7855 22.2144C45.0415 21.9264 45.2175 21.6144 45.3135 21.2784C45.4095 20.9424 45.4575 20.6144 45.4575 20.2944V20.1264ZM53.4557 31.9104H53.5757V32.1504H50.1197V31.9104H50.2397C50.3677 31.9104 50.4797 31.8704 50.5757 31.7904C50.6717 31.6944 50.7517 31.5824 50.8157 31.4544C50.8957 31.3264 50.9517 31.1904 50.9837 31.0464C51.0157 30.9024 51.0317 30.7664 51.0317 30.6384V17.7984C51.0317 17.6864 51.0157 17.5584 50.9837 17.4144C50.9517 17.2704 50.8957 17.1344 50.8157 17.0064C50.7517 16.8784 50.6717 16.7744 50.5757 16.6944C50.4797 16.5984 50.3677 16.5504 50.2397 16.5504H50.1197V16.3104H59.3597V18.8544H59.1197C59.1197 18.2784 58.9917 17.8544 58.7357 17.5824C58.4957 17.2944 58.1117 17.1504 57.5837 17.1504H52.6637V30.6384C52.6637 30.7664 52.6797 30.9024 52.7117 31.0464C52.7437 31.1904 52.7917 31.3264 52.8557 31.4544C52.9357 31.5824 53.0237 31.6944 53.1197 31.7904C53.2157 31.8704 53.3277 31.9104 53.4557 31.9104ZM59.8952 16.3104H63.2312V16.5504H63.0872C62.9112 16.5504 62.7912 16.6064 62.7272 16.7184C62.6632 16.8144 62.6312 16.9184 62.6312 17.0304C62.6312 17.1104 62.6392 17.1824 62.6552 17.2464C62.6712 17.3104 62.6872 17.3584 62.7032 17.3904L66.8072 26.3664L70.4792 17.6544C70.4952 17.6224 70.5192 17.5584 70.5512 17.4624C70.5832 17.3504 70.5992 17.2464 70.5992 17.1504C70.5992 16.9264 70.5192 16.7744 70.3592 16.6944C70.1992 16.5984 70.0792 16.5504 69.9992 16.5504V16.3104H72.5672V16.5504C72.2792 16.5504 72.0552 16.6304 71.8952 16.7904C71.7512 16.9344 71.6392 17.0864 71.5592 17.2464L65.7992 31.0224C65.6072 31.4864 65.3512 31.8304 65.0312 32.0544C64.7112 32.2624 64.3672 32.3664 63.9992 32.3664C63.7592 32.3664 63.5432 32.3264 63.3512 32.2464C63.1592 32.1824 62.9912 32.1024 62.8472 32.0064C62.7032 31.9104 62.5912 31.8224 62.5112 31.7424C62.4472 31.6624 62.4152 31.6224 62.4152 31.6224L63.0152 30.3024C63.1432 30.6064 63.3112 30.8464 63.5192 31.0224C63.7272 31.1824 63.9432 31.2624 64.1672 31.2624C64.3112 31.2624 64.4552 31.2144 64.5992 31.1184C64.7592 31.0064 64.8952 30.8384 65.0072 30.6144L65.9432 28.3344L60.9512 17.3184C60.7272 16.8384 60.3752 16.5824 59.8952 16.5504V16.3104ZM79.9427 16.9344C78.7587 16.9344 77.7267 17.1504 76.8467 17.5824C75.9827 17.9984 75.2627 18.5504 74.6867 19.2384C74.1107 19.9104 73.6787 20.6704 73.3907 21.5184C73.1187 22.3664 72.9827 23.2064 72.9827 24.0384C72.9827 24.9824 73.1667 25.9104 73.5347 26.8224C73.9027 27.7184 74.4067 28.5184 75.0467 29.2224C75.7027 29.9104 76.4627 30.4704 77.3267 30.9024C78.1907 31.3184 79.1267 31.5264 80.1347 31.5264C80.4227 31.5264 80.7587 31.4944 81.1427 31.4304C81.5427 31.3664 81.9347 31.2464 82.3187 31.0704C82.7027 30.8784 83.0547 30.6144 83.3747 30.2784C83.7107 29.9424 83.9667 29.5024 84.1427 28.9584H84.3827V31.6224C84.1427 31.6224 83.8867 31.6544 83.6147 31.7184C83.3587 31.7824 83.0707 31.8544 82.7507 31.9344C82.3347 32.0464 81.8707 32.1504 81.3587 32.2464C80.8627 32.3424 80.3347 32.3904 79.7747 32.3904C78.3827 32.3904 77.1587 32.1504 76.1027 31.6704C75.0467 31.1904 74.1667 30.5664 73.4627 29.7984C72.7587 29.0304 72.2307 28.1664 71.8787 27.2064C71.5267 26.2304 71.3507 25.2464 71.3507 24.2544C71.3507 23.2624 71.5267 22.2784 71.8787 21.3024C72.2307 20.3264 72.7667 19.4544 73.4867 18.6864C74.2067 17.9024 75.1107 17.2704 76.1987 16.7904C77.2867 16.3104 78.5667 16.0704 80.0387 16.0704C80.5667 16.0704 81.0387 16.1184 81.4547 16.2144C81.8867 16.3104 82.2707 16.4064 82.6067 16.5024C82.8467 16.5824 83.0627 16.6464 83.2547 16.6944C83.4627 16.7264 83.6627 16.7424 83.8547 16.7424V19.4064H83.6147C83.5187 18.9104 83.3427 18.5024 83.0867 18.1824C82.8307 17.8464 82.5267 17.5904 82.1747 17.4144C81.8387 17.2384 81.4707 17.1184 81.0707 17.0544C80.6867 16.9744 80.3107 16.9344 79.9427 16.9344ZM92.262 31.9104H92.382V32.1504H88.974V31.9104H89.094C89.222 31.9104 89.334 31.8624 89.43 31.7664C89.526 31.6704 89.606 31.5584 89.67 31.4304C89.75 31.3024 89.806 31.1664 89.838 31.0224C89.87 30.8624 89.886 30.7184 89.886 30.5904V17.1984H87.102C86.846 17.1984 86.622 17.2544 86.43 17.3664C86.238 17.4784 86.078 17.6224 85.95 17.7984C85.822 17.9584 85.726 18.1424 85.662 18.3504C85.598 18.5424 85.566 18.7344 85.566 18.9264H85.326V16.3104H96.102V18.9264H95.862C95.862 18.7344 95.83 18.5424 95.766 18.3504C95.702 18.1424 95.606 17.9584 95.478 17.7984C95.35 17.6224 95.19 17.4784 94.998 17.3664C94.806 17.2544 94.582 17.1984 94.326 17.1984H91.494V30.5904C91.494 30.7184 91.51 30.8624 91.542 31.0224C91.574 31.1664 91.622 31.3024 91.686 31.4304C91.766 31.5584 91.846 31.6704 91.926 31.7664C92.022 31.8624 92.134 31.9104 92.262 31.9104Z" fill="#5E5A57"></path><path d="M135.214 13.4224H135.592C135.732 13.4224 135.9 13.3524 136.096 13.2124C136.32 13.0724 136.558 12.9184 136.81 12.7504C137.09 12.5544 137.412 12.3304 137.776 12.0784C138.168 11.8264 138.602 11.6024 139.078 11.4064C139.582 11.1824 140.142 11.0004 140.758 10.8604C141.374 10.7204 142.06 10.6504 142.816 10.6504C143.768 10.6504 144.692 10.7904 145.588 11.0704C146.484 11.3224 147.282 11.7284 147.982 12.2884C148.682 12.8204 149.242 13.5064 149.662 14.3464C150.082 15.1864 150.292 16.1944 150.292 17.3704C150.292 18.3504 150.124 19.2464 149.788 20.0584C149.452 20.8704 148.99 21.6264 148.402 22.3264C147.842 23.0264 147.198 23.6984 146.47 24.3424C145.77 24.9584 145.042 25.5744 144.286 26.1904C143.558 26.7784 142.844 27.3804 142.144 27.9964C141.472 28.6124 140.856 29.2564 140.296 29.9284C139.764 30.6004 139.316 31.3284 138.952 32.1124C138.588 32.8684 138.378 33.6804 138.322 34.5484H147.058C148.122 34.5484 148.962 34.3664 149.578 34.0024C150.194 33.6104 150.516 32.9804 150.544 32.1124H150.922V36.9004H135.382C135.382 35.6404 135.592 34.4784 136.012 33.4144C136.432 32.3224 136.978 31.3284 137.65 30.4324C138.322 29.5084 139.064 28.6544 139.876 27.8704C140.716 27.0864 141.542 26.3304 142.354 25.6024C143.026 25.0144 143.67 24.4264 144.286 23.8384C144.93 23.2504 145.49 22.6624 145.966 22.0744C146.47 21.4584 146.862 20.8284 147.142 20.1844C147.45 19.5124 147.604 18.8124 147.604 18.0844C147.604 17.1604 147.436 16.3344 147.1 15.6064C146.792 14.8784 146.372 14.2624 145.84 13.7584C145.336 13.2544 144.748 12.8764 144.076 12.6244C143.404 12.3444 142.732 12.2044 142.06 12.2044C140.632 12.2044 139.372 12.6384 138.28 13.5064C137.188 14.3464 136.306 15.4384 135.634 16.7824H135.214V13.4224ZM162.292 36.9004V36.4804C162.684 36.4804 162.978 36.4244 163.174 36.3124C163.398 36.1724 163.552 36.0044 163.636 35.8084C163.748 35.5844 163.804 35.3464 163.804 35.0944C163.832 34.8144 163.846 34.5344 163.846 34.2544V30.1384H152.38L166.576 10.0204V28.0384H169.138V30.1384H166.576V34.2544C166.576 34.8144 166.674 35.3324 166.87 35.8084C167.094 36.2564 167.542 36.4804 168.214 36.4804V36.9004H162.292ZM163.846 16.2784C162.446 18.2664 161.046 20.2264 159.646 22.1584C158.274 24.0904 156.888 26.0504 155.488 28.0384H163.846V16.2784Z" fill="#5E5A57"></path><line x1="0.367798" y1="43.7412" x2="119.11" y2="43.7412" stroke="#5E5A57"></line><line x1="186.37" y1="43.7412" x2="305.112" y2="43.7412" stroke="#5E5A57"></line><line x1="0.367798" y1="6.74121" x2="119.11" y2="6.74121" stroke="#5E5A57"></line><line x1="186.37" y1="6.74121" x2="305.112" y2="6.74121" stroke="#5E5A57"></line></svg> 