<?xml version="1.0" encoding="UTF-8"?> <svg xmlns="http://www.w3.org/2000/svg" width="297" height="91" viewBox="0 0 297 91" fill="none"><path d="M275.436 14.7139V2.54738H278.099C279.145 2.54738 279.966 2.82707 280.562 3.38645C281.158 3.93367 281.456 4.66937 281.456 5.59356C281.456 6.78528 280.981 7.67299 280.033 8.25669C280.811 8.3783 281.425 8.71879 281.875 9.27817C282.325 9.83754 282.55 10.5124 282.55 11.3029C282.55 12.3487 282.197 13.1817 281.492 13.8018C280.799 14.4099 279.893 14.7139 278.774 14.7139H275.436ZM276.239 3.27701V8.05605H278.172C278.866 8.05605 279.419 7.8858 279.832 7.54531C280.367 7.10753 280.635 6.48735 280.635 5.68477C280.635 4.87002 280.361 4.23768 279.814 3.78774C279.376 3.44725 278.701 3.27701 277.789 3.27701H276.239ZM276.239 8.78567V13.9842H278.282C278.659 13.9842 278.957 13.9782 279.176 13.966C279.394 13.9417 279.674 13.8748 280.015 13.7654C280.367 13.6559 280.671 13.4857 280.927 13.2546C281.45 12.7925 281.711 12.1723 281.711 11.3941C281.711 10.2875 281.279 9.53353 280.416 9.13224C279.893 8.90119 279.133 8.78567 278.136 8.78567H276.239ZM294.921 3.97015V5.0281C294.398 4.42008 293.777 3.95191 293.06 3.62358C292.355 3.28309 291.607 3.11284 290.816 3.11284C289.272 3.11284 287.977 3.65398 286.931 4.73625C285.885 5.81853 285.362 7.13793 285.362 8.69447C285.362 9.55786 285.527 10.3483 285.855 11.0657C286.195 11.7832 286.633 12.3669 287.168 12.8168C287.715 13.2546 288.305 13.5951 288.938 13.8383C289.57 14.0694 290.202 14.1849 290.835 14.1849C291.516 14.1849 292.221 14.039 292.951 13.7471C293.68 13.4431 294.337 12.9749 294.921 12.3426V13.4005C293.777 14.4099 292.428 14.9145 290.871 14.9145C289.071 14.9145 287.563 14.3004 286.347 13.0722C285.131 11.844 284.523 10.3726 284.523 8.65798C284.523 6.90689 285.137 5.42332 286.366 4.20728C287.594 2.99124 289.084 2.38321 290.835 2.38321C292.44 2.38321 293.802 2.91219 294.921 3.97015Z" fill="#272727"></path><path d="M239.575 3.97015V5.0281C239.052 4.42008 238.432 3.95191 237.715 3.62358C237.009 3.28309 236.261 3.11284 235.471 3.11284C233.927 3.11284 232.632 3.65398 231.586 4.73625C230.54 5.81853 230.017 7.13793 230.017 8.69447C230.017 9.55786 230.181 10.3483 230.51 11.0657C230.85 11.7832 231.288 12.3669 231.823 12.8168C232.37 13.2546 232.96 13.5951 233.592 13.8383C234.225 14.0694 234.857 14.1849 235.489 14.1849C236.17 14.1849 236.876 14.039 237.605 13.7471C238.335 13.4431 238.992 12.9749 239.575 12.3426V13.4005C238.432 14.4099 237.082 14.9145 235.526 14.9145C233.726 14.9145 232.218 14.3004 231.002 13.0722C229.786 11.844 229.178 10.3726 229.178 8.65798C229.178 6.90689 229.792 5.42332 231.02 4.20728C232.249 2.99124 233.738 2.38321 235.489 2.38321C237.094 2.38321 238.456 2.91219 239.575 3.97015ZM242.197 14.7139V2.54738H248.052V3.27701H243V7.78244H245.115C247.912 7.78244 249.311 8.89511 249.311 11.1205C249.311 12.1298 248.983 12.981 248.326 13.6742C247.681 14.3673 246.696 14.7139 245.371 14.7139H242.197ZM243 8.51206V13.9842H245.043C246.271 13.9842 247.158 13.7167 247.706 13.1817C248.216 12.6952 248.472 12.0082 248.472 11.1205C248.472 10.0625 248.052 9.31465 247.213 8.87687C246.727 8.63366 245.955 8.51206 244.897 8.51206H243Z" fill="#272727"></path><path d="M185.346 2.54738H194.321V14.7139H193.518V3.27701H186.149V14.7139H185.346V2.54738ZM203.329 3.27701H200.174V14.7139H199.371V3.27701H196.216V2.54738H203.329V3.27701Z" fill="#272727"></path><path d="M147.076 14.7139V9.24168C145.714 9.32681 144.68 9.36937 143.975 9.36937C142.868 9.36937 142.041 9.2356 141.494 8.96808C140.959 8.71271 140.613 8.3783 140.454 7.96484C140.296 7.53923 140.217 6.96769 140.217 6.25022V2.54738H141.02V6.25022C141.02 6.50559 141.026 6.69408 141.038 6.81568C141.05 6.93729 141.081 7.11969 141.129 7.3629C141.178 7.59395 141.275 7.7946 141.421 7.96484C141.567 8.12293 141.762 8.25669 142.005 8.36614C142.382 8.54854 143.124 8.63974 144.23 8.63974C145.069 8.63974 146.018 8.59718 147.076 8.51206V2.54738H147.878V14.7139H147.076ZM156.891 3.27701H153.735V14.7139H152.932V3.27701H149.777V2.54738H156.891V3.27701Z" fill="#272727"></path><path d="M103.572 3.97015V5.0281C103.049 4.42008 102.429 3.95191 101.712 3.62358C101.006 3.28309 100.258 3.11284 99.468 3.11284C97.9236 3.11284 96.6285 3.65398 95.5827 4.73625C94.5369 5.81853 94.014 7.13793 94.014 8.69447C94.014 9.55786 94.1782 10.3483 94.5065 11.0657C94.847 11.7832 95.2848 12.3669 95.8198 12.8168C96.3671 13.2546 96.9568 13.5951 97.5892 13.8383C98.2215 14.0694 98.8539 14.1849 99.4862 14.1849C100.167 14.1849 100.872 14.039 101.602 13.7471C102.332 13.4431 102.988 12.9749 103.572 12.3426V13.4005C102.429 14.4099 101.079 14.9145 99.5227 14.9145C97.7229 14.9145 96.2151 14.3004 94.999 13.0722C93.783 11.844 93.175 10.3726 93.175 8.65798C93.175 6.90689 93.7891 5.42332 95.0173 4.20728C96.2455 2.99124 97.7351 2.38321 99.4862 2.38321C101.091 2.38321 102.453 2.91219 103.572 3.97015ZM108.565 8.93159H106.996V14.7139H106.194V2.54738H108.547C109.581 2.54738 110.432 2.82707 111.101 3.38645C111.769 3.93367 112.104 4.71193 112.104 5.72125C112.104 6.7184 111.782 7.50275 111.137 8.07429C110.493 8.64582 109.635 8.93159 108.565 8.93159ZM106.996 3.27701V8.20197H108.602C109.404 8.20197 110.049 7.98308 110.535 7.54531C111.022 7.09537 111.265 6.49343 111.265 5.73949C111.265 4.97338 111.016 4.37144 110.517 3.93367C110.031 3.49589 109.35 3.27701 108.474 3.27701H106.996Z" fill="#272727"></path><path d="M49.7976 14.7139V2.54738H52.4607C53.5065 2.54738 54.3274 2.82707 54.9232 3.38645C55.5191 3.93367 55.817 4.66937 55.817 5.59356C55.817 6.78528 55.3428 7.67299 54.3942 8.25669C55.1725 8.3783 55.7866 8.71879 56.2365 9.27817C56.6865 9.83754 56.9114 10.5124 56.9114 11.3029C56.9114 12.3487 56.5588 13.1817 55.8535 13.8018C55.1603 14.4099 54.2544 14.7139 53.1356 14.7139H49.7976ZM50.6002 3.27701V8.05605H52.5337C53.2268 8.05605 53.7801 7.8858 54.1936 7.54531C54.7287 7.10753 54.9962 6.48735 54.9962 5.68477C54.9962 4.87002 54.7226 4.23768 54.1754 3.78774C53.7376 3.44725 53.0627 3.27701 52.1506 3.27701H50.6002ZM50.6002 8.78567V13.9842H52.6431C53.0201 13.9842 53.318 13.9782 53.5369 13.966C53.7558 13.9417 54.0355 13.8748 54.376 13.7654C54.7286 13.6559 55.0327 13.4857 55.288 13.2546C55.8109 12.7925 56.0724 12.1723 56.0724 11.3941C56.0724 10.2875 55.6407 9.53353 54.7773 9.13224C54.2544 8.90119 53.4944 8.78567 52.4972 8.78567H50.6002ZM65.2689 3.27701H62.1133V14.7139H61.3107V3.27701H58.1551V2.54738H65.2689V3.27701Z" fill="#272727"></path><path d="M5.79031 2.54738H14.7647V14.7139H13.9621V3.27701H6.5929V14.7139H5.79031V2.54738ZM18.8483 2.54738V7.70947H26.2175V2.54738H27.0201V14.7139H26.2175V8.4391H18.8483V14.7139H18.0457V2.54738H18.8483Z" fill="#272727"></path><path d="M7.11868 66.2441V54.8073H5.22166L5.58647 54.0777H7.92127V66.2441H7.11868ZM19.7202 53.6764V63.198H21.4166V63.9276H19.7202V66.2441H18.9176V63.9276H12.3693L19.7202 53.6764ZM13.792 63.198H18.9176V56.0476L13.792 63.198Z" fill="#272727"></path><path d="M52.7202 66.2441V54.8073H50.8232L51.188 54.0777H53.5228V66.2441H52.7202ZM66.325 54.0777V54.8073H62.2391L61.2177 58.0906C61.5095 58.0176 61.7831 57.9811 62.0385 57.9811C63.3153 57.9811 64.3368 58.3764 65.1029 59.1668C65.8812 59.9572 66.2703 60.9665 66.2703 62.1947C66.2703 63.4716 65.8508 64.4991 65.0117 65.2774C64.1848 66.0557 63.1633 66.4448 61.9473 66.4448C60.2935 66.4448 59.0774 65.776 58.2992 64.4383L59.0105 64.1465C59.7158 65.1923 60.7008 65.7152 61.9655 65.7152C62.9748 65.7152 63.8017 65.3868 64.4462 64.7302C65.1029 64.0735 65.4312 63.2344 65.4312 62.213C65.4312 61.1793 65.109 60.3403 64.4645 59.6958C63.8321 59.0391 63.0113 58.7108 62.002 58.7108C61.3089 58.7108 60.6765 58.8871 60.105 59.2397L61.6737 54.0777H66.325Z" fill="#272727"></path><path d="M98.3218 66.2441V54.8073H96.4248L96.7896 54.0777H99.1244V66.2441H98.3218ZM108.844 53.9135L109.464 54.3877L106.764 58.2183C107.287 57.9994 107.841 57.8899 108.424 57.8899C109.64 57.8899 110.65 58.2912 111.452 59.0938C112.255 59.8964 112.656 60.9118 112.656 62.14C112.656 63.3682 112.249 64.3958 111.434 65.2227C110.619 66.0374 109.58 66.4448 108.315 66.4448C107.075 66.4448 106.047 66.0435 105.232 65.2409C104.418 64.4262 104.01 63.3864 104.01 62.1218C104.01 61.2341 104.272 60.4071 104.795 59.641L108.844 53.9135ZM105.834 64.7119C106.503 65.3808 107.336 65.7152 108.333 65.7152C109.33 65.7152 110.157 65.3747 110.814 64.6937C111.483 64.0127 111.817 63.1676 111.817 62.1582C111.817 61.1246 111.489 60.2795 110.832 59.6228C110.175 58.954 109.343 58.6196 108.333 58.6196C107.324 58.6196 106.491 58.954 105.834 59.6228C105.178 60.2916 104.849 61.1368 104.849 62.1582C104.849 63.1797 105.178 64.0309 105.834 64.7119Z" fill="#272727"></path><path d="M143.923 66.2441V54.8073H142.026L142.391 54.0777H144.726V66.2441H143.923ZM149.356 65.9888L157.236 54.8073H149.849V54.0777H158.659L149.958 66.4448L149.356 65.9888Z" fill="#272727"></path><path d="M189.525 66.2441V54.8073H187.628L187.993 54.0777H190.328V66.2441H189.525ZM201.087 59.9329C201.719 60.1761 202.206 60.5774 202.546 61.1368C202.899 61.6961 203.075 62.3224 203.075 63.0156C203.075 64.0492 202.735 64.8822 202.054 65.5145C201.373 66.1347 200.54 66.4448 199.555 66.4448C198.57 66.4448 197.737 66.1347 197.056 65.5145C196.375 64.8822 196.034 64.0492 196.034 63.0156C196.034 62.3224 196.204 61.6961 196.545 61.1368C196.898 60.5774 197.39 60.1761 198.022 59.9329C196.891 59.337 196.326 58.4007 196.326 57.1238C196.326 56.2118 196.636 55.4518 197.256 54.8438C197.876 54.2236 198.643 53.9135 199.555 53.9135C200.467 53.9135 201.233 54.2236 201.853 54.8438C202.473 55.4518 202.783 56.2118 202.783 57.1238C202.783 58.4007 202.218 59.337 201.087 59.9329ZM197.858 58.8932C198.332 59.3553 198.898 59.5863 199.555 59.5863C200.211 59.5863 200.771 59.3553 201.233 58.8932C201.707 58.4189 201.944 57.8291 201.944 57.1238C201.944 56.4064 201.713 55.8166 201.251 55.3545C200.789 54.8802 200.223 54.6431 199.555 54.6431C198.886 54.6431 198.32 54.8802 197.858 55.3545C197.396 55.8166 197.165 56.4064 197.165 57.1238C197.165 57.8291 197.396 58.4189 197.858 58.8932ZM197.603 64.9491C198.101 65.4598 198.752 65.7152 199.555 65.7152C200.357 65.7152 201.002 65.4598 201.488 64.9491C201.987 64.4262 202.236 63.7817 202.236 63.0156C202.236 62.213 201.987 61.5563 201.488 61.0456C200.989 60.5348 200.345 60.2795 199.555 60.2795C198.764 60.2795 198.12 60.5348 197.621 61.0456C197.122 61.5563 196.873 62.213 196.873 63.0156C196.873 63.7817 197.116 64.4262 197.603 64.9491Z" fill="#272727"></path><path d="M235.126 66.2441V54.8073H233.229L233.594 54.0777H235.929V66.2441H235.126ZM244.664 66.4448L244.043 65.9705L246.743 62.1218C246.22 62.3407 245.667 62.4501 245.083 62.4501C243.867 62.4501 242.858 62.0488 242.055 61.2462C241.253 60.4436 240.851 59.4282 240.851 58.2C240.851 56.9718 241.259 55.9504 242.073 55.1356C242.888 54.3209 243.928 53.9135 245.193 53.9135C246.433 53.9135 247.461 54.3209 248.275 55.1356C249.09 55.9504 249.497 56.9779 249.497 58.2183C249.497 59.106 249.236 59.9329 248.713 60.699L244.664 66.4448ZM247.655 55.6646C246.998 54.9836 246.172 54.6431 245.174 54.6431C244.177 54.6431 243.344 54.9836 242.675 55.6646C242.019 56.3456 241.69 57.1846 241.69 58.1818C241.69 59.2154 242.019 60.0667 242.675 60.7355C243.344 61.3921 244.177 61.7205 245.174 61.7205C246.184 61.7205 247.017 61.3861 247.673 60.7172C248.33 60.0484 248.658 59.2033 248.658 58.1818C248.658 57.1725 248.324 56.3334 247.655 55.6646Z" fill="#272727"></path><path d="M284.358 66.2441H276.861L281.531 61.1003C282.175 60.3707 282.619 59.8234 282.862 59.4586C283.336 58.729 283.574 58.0359 283.574 57.3792C283.574 56.6009 283.306 55.9504 282.771 55.4275C282.248 54.9046 281.573 54.6431 280.746 54.6431C279.871 54.6431 279.172 54.941 278.649 55.5369C278.162 56.072 277.925 56.7347 277.937 57.5251H277.135C277.122 56.5037 277.445 55.6524 278.101 54.9714C278.782 54.2661 279.682 53.9135 280.801 53.9135C281.847 53.9135 282.71 54.2479 283.391 54.9167C284.072 55.5734 284.413 56.3942 284.413 57.3792C284.413 58.2426 284.121 59.0756 283.537 59.8782C283.257 60.2673 282.899 60.7051 282.461 61.1915L278.557 65.5145H284.358V66.2441ZM287.894 55.391C288.709 54.406 289.663 53.9135 290.758 53.9135C291.852 53.9135 292.807 54.406 293.621 55.391C294.655 56.6192 295.172 58.2122 295.172 60.17C295.172 62.1278 294.655 63.7209 293.621 64.9491C292.782 65.9462 291.828 66.4448 290.758 66.4448C289.688 66.4448 288.733 65.9462 287.894 64.9491C286.86 63.7209 286.343 62.1278 286.343 60.17C286.343 58.2122 286.86 56.6192 287.894 55.391ZM288.496 64.4748C289.165 65.3017 289.919 65.7152 290.758 65.7152C291.597 65.7152 292.351 65.3017 293.02 64.4748C293.895 63.3925 294.333 61.9576 294.333 60.17C294.333 58.3824 293.895 56.9475 293.02 55.8652C292.363 55.0505 291.609 54.6431 290.758 54.6431C289.906 54.6431 289.153 55.0505 288.496 55.8652C287.62 56.9475 287.183 58.3824 287.183 60.17C287.183 61.9576 287.62 63.3925 288.496 64.4748Z" fill="#272727"></path><g clip-path="url(#clip0_2177_104)"><path d="M81.7641 33.2252C77.2511 34.3325 74.3792 37.5435 73.3721 42.7846C72.6262 46.5124 73.4467 51.6427 75.5354 56.3302C76.5051 58.5078 78.2581 61.9034 78.5938 62.2356C79.1532 62.7892 79.9622 64.6817 80.4587 65.1883C80.5508 65.2823 80.625 65.4317 80.757 65.5574C80.9887 65.778 81.6522 66.3325 82.3235 67.2921C83.8154 69.3221 90.3052 75.855 92.9533 77.9219C93.9976 78.7339 95.1911 79.7673 95.6387 80.2102C96.0863 80.69 96.4089 80.8775 96.7162 81.0591C96.9155 81.2196 97.3104 81.4817 97.802 81.7973C98.2009 82.1071 98.6349 82.4137 98.9249 82.5898C99.1821 82.746 99.1871 82.7303 99.4234 82.9046C100.039 83.6388 103.061 84.9346 104.888 84.9346C106.679 84.9346 109.737 83.7535 110.968 82.6093C111.266 82.3879 112.236 81.6497 113.168 80.9853C114.101 80.3579 115.183 79.5828 115.518 79.2506C115.891 78.9184 117.01 77.9957 117.98 77.1837C120.33 75.3013 123.09 72.4594 124.581 70.4663C125.178 69.5805 125.882 69.156 126.036 68.8792C126.191 68.6024 126.156 68.5851 126.334 68.3625C126.48 68.0545 126.544 67.9334 126.67 67.6981C127.262 67.2125 129.467 63.7858 131.146 60.3532C134.95 52.5286 136.405 43.7442 134.54 40.0903C133.309 37.7281 131.743 36.2148 129.057 34.8861C126.857 33.8157 126.148 33.6681 123.724 33.6681C120.889 33.6681 118.689 34.2217 116.376 35.5505C115.705 35.9196 115.466 36.1572 115.145 36.4732C114.864 36.5897 114.881 36.6993 114.66 36.7685C114.176 36.7685 106.194 44.5931 106.194 45.036C106.194 45.1468 105.746 45.7004 105.224 46.254L104.254 47.2875L103.061 45.848C100.748 42.9691 95.8998 38.3186 93.5128 36.6946C90.156 34.4432 88.403 33.5943 86.2771 33.299C85.27 33.1514 84.263 32.9668 84.0392 32.893C83.8154 32.8192 82.8084 32.9668 81.7641 33.2252ZM87.6198 36.4363C91.6852 37.8019 98.2122 43.2275 102.315 48.6162C103.77 50.5355 104.329 51.0153 104.627 50.72C104.888 50.4617 105.075 50.0557 105.075 49.7973C105.075 49.5758 105.299 49.2068 105.56 49.0591C105.858 48.9115 106.194 48.5055 106.343 48.2102C107.164 46.5124 108.245 45.1468 111.304 42.0464C112.348 40.9761 113.392 40.0903 113.616 40.0903C113.832 39.8942 113.855 39.9115 114.026 39.7581C114.163 39.3578 118.39 37.2852 121.001 36.5839C125.327 35.4028 129.169 36.6577 132.004 40.1641L133.235 41.7142L133.197 45.8111C133.16 48.69 132.973 50.2771 132.563 51.3106C132.19 52.0857 131.929 52.9715 131.929 53.2298C131.929 55.8134 122.754 69.3221 117.085 75.0799C114.399 77.8112 109.849 81.7604 108.805 82.314C108.506 82.4617 107.537 82.9415 106.641 83.4213C105.075 84.2702 104.963 84.2702 103.471 83.7166C102.613 83.3844 101.83 83.0153 101.718 82.9046C101.308 82.4986 99.1074 81.0591 98.8463 81.0591C98.5479 81.0222 85.4565 68.0672 83.8154 66.111C81.8014 63.7858 80.7134 61.8504 80.4587 61.5343C80.3085 61.348 80.2821 61.2494 80.1976 61.1283C79.8562 60.6397 78.2581 58.5078 76.6916 55.0384C74.2673 49.6866 74.3419 43.8919 76.8408 40.3117C78.0343 38.6508 79.75 37.1375 80.7197 36.9161C81.2046 36.7685 81.5776 36.547 81.5776 36.3994C81.5776 36.1041 82.6965 35.8457 84.4495 35.6981C84.9343 35.6981 86.3516 36.0303 87.6198 36.4363Z" fill="#7F1023"></path><path d="M134.025 41.1607C123.228 27.0455 109.432 41.0863 103.884 49.871C89.1293 28.073 78.4756 33.9196 74.5022 41.1292C73.8366 63.1218 94.3041 79.8047 105.026 84.1971C130.399 69.3673 135.374 49.5732 134.025 41.1607Z" fill="#7F1023" stroke="#7F1023" stroke-width="0.885814"></path><path d="M98.7796 66.0049V54.568H96.8826L97.2474 53.8384H99.5822V66.0049H98.7796ZM109.302 53.6742L109.922 54.1485L107.222 57.979C107.745 57.7601 108.298 57.6507 108.882 57.6507C110.098 57.6507 111.108 58.052 111.91 58.8546C112.713 59.6572 113.114 60.6725 113.114 61.9007C113.114 63.1289 112.707 64.1565 111.892 64.9834C111.077 65.7982 110.037 66.2055 108.773 66.2055C107.532 66.2055 106.505 65.8042 105.69 65.0016C104.875 64.1869 104.468 63.1472 104.468 61.8825C104.468 60.9948 104.729 60.1679 105.252 59.4018L109.302 53.6742ZM106.292 64.4727C106.961 65.1415 107.794 65.4759 108.791 65.4759C109.788 65.4759 110.615 65.1354 111.272 64.4544C111.941 63.7734 112.275 62.9283 112.275 61.919C112.275 60.8854 111.947 60.0402 111.29 59.3835C110.633 58.7147 109.8 58.3803 108.791 58.3803C107.782 58.3803 106.949 58.7147 106.292 59.3835C105.635 60.0524 105.307 60.8975 105.307 61.919C105.307 62.9405 105.635 63.7917 106.292 64.4727Z" fill="white"></path></g><defs><clipPath id="clip0_2177_104"><rect width="65.6662" height="54.7218" fill="white" transform="translate(70.9766 32.2061)"></rect></clipPath></defs></svg> 