<?xml version="1.0" encoding="UTF-8"?> <svg xmlns="http://www.w3.org/2000/svg" width="96" height="25" viewBox="0 0 96 25" fill="none"><path d="M47.3633 0.386719C47.3633 0.501302 47.0247 0.78776 46.3477 1.24609C44.2852 2.62109 41.2695 3.30859 37.3008 3.30859C36.6133 3.30859 35.7539 3.28776 34.7227 3.24609C33.7018 3.19401 32.5039 3.11589 31.1289 3.01172C29.7539 2.90755 28.5508 2.82943 27.5195 2.77734C26.4987 2.72526 25.6445 2.69922 24.957 2.69922C23.7174 2.69922 22.5456 2.83464 21.4414 3.10547C19.9831 3.48047 18.5247 4.19922 17.0664 5.26172C15.4831 6.4388 14.4518 7.66276 13.9727 8.93359C13.8372 9.29818 13.7695 9.63151 13.7695 9.93359C13.7695 10.4857 13.9674 10.9909 14.3633 11.4492C14.7695 11.8867 15.2487 12.1055 15.8008 12.1055C17.0612 12.1055 18.5143 11.4701 20.1602 10.1992C21.5977 9.0638 22.6966 7.86589 23.457 6.60547C23.9258 5.84505 24.1602 5.16276 24.1602 4.55859C24.1602 4.39193 24.1185 4.26693 24.0352 4.18359L24.0195 4.10547C24.0508 3.99089 24.1185 3.93359 24.2227 3.93359C24.4414 3.93359 24.5508 4.30339 24.5508 5.04297C24.5508 5.86589 24.207 6.84505 23.5195 7.98047C22.7904 9.17839 21.7695 10.2201 20.457 11.1055C19.0299 12.0742 17.6758 12.5586 16.3945 12.5586C14.4154 12.5586 13.4258 11.7201 13.4258 10.043C13.4258 8.59505 14.1654 7.17839 15.6445 5.79297C18.8008 2.79297 22.9414 1.29297 28.0664 1.29297C28.6914 1.29297 29.4674 1.31901 30.3945 1.37109C31.3216 1.42318 32.3997 1.5013 33.6289 1.60547C34.8581 1.70964 35.931 1.78776 36.8477 1.83984C37.7643 1.89193 38.5352 1.91797 39.1602 1.91797C41.6497 1.91797 43.5508 1.73568 44.8633 1.37109C45.2383 1.25651 45.9518 0.897135 47.0039 0.292969C47.0456 0.261719 47.1029 0.246094 47.1758 0.246094C47.3008 0.246094 47.3633 0.292969 47.3633 0.386719ZM42.9414 3.55859C42.9414 3.63151 42.056 4.58464 40.2852 6.41797C39.0664 7.66797 37.7539 9.22526 36.3477 11.0898C35.3164 12.4544 34.4362 13.6628 33.707 14.7148C32.9779 15.7565 32.3841 16.6523 31.9258 17.4023L29.957 20.668C29.3424 21.7409 29.0352 22.5013 29.0352 22.9492C29.0352 23.5221 29.3216 23.8086 29.8945 23.8086C30.6549 23.8086 31.7643 23.2617 33.2227 22.168C34.6706 21.0742 35.3685 20.5273 35.3164 20.5273C35.4414 20.5273 35.5039 20.5846 35.5039 20.6992C35.5039 20.7721 35.3216 20.9753 34.957 21.3086C32.7799 23.2669 31.0508 24.2461 29.7695 24.2461C29.1654 24.2461 28.6549 24.0534 28.2383 23.668C27.8216 23.2826 27.6133 22.793 27.6133 22.1992C27.6133 21.2305 27.7956 20.3711 28.1602 19.6211C28.5039 18.9232 29.2435 17.793 30.3789 16.2305C30.7435 15.7096 31.2174 15.0794 31.8008 14.3398C32.3841 13.5898 33.0768 12.7148 33.8789 11.7148C35.3372 10.1003 36.707 8.66276 37.9883 7.40234C39.2799 6.14193 40.5039 5.04297 41.6602 4.10547C42.2018 3.65755 42.5664 3.43359 42.7539 3.43359C42.8789 3.43359 42.9414 3.47526 42.9414 3.55859ZM36.0195 4.15234C35.9987 4.24609 35.9414 4.33984 35.8477 4.43359C34.4518 5.92318 33.4049 7.16797 32.707 8.16797C32.3112 8.74089 31.9102 9.33464 31.5039 9.94922C31.0977 10.5638 30.6862 11.2096 30.2695 11.8867C26.8112 17.543 23.0195 21.7044 18.8945 24.3711C18.7799 24.4336 18.7018 24.4648 18.6602 24.4648C18.5143 24.4648 18.4414 24.3867 18.4414 24.2305C18.4414 24.1784 18.4831 24.1107 18.5664 24.0273C19.6602 23.1628 20.7852 22.043 21.9414 20.668C22.3268 20.1992 22.7331 19.6732 23.1602 19.0898C23.5977 18.4961 24.056 17.8346 24.5352 17.1055C24.931 16.4805 25.332 15.8659 25.7383 15.2617C26.1445 14.6576 26.5456 14.043 26.9414 13.418C28.8477 10.5951 31.056 8.02734 33.5664 5.71484C34.7956 4.57943 35.5404 4.01172 35.8008 4.01172C35.8529 4.01172 35.9154 4.03776 35.9883 4.08984L36.0195 4.15234ZM7.30078 24.418C8.69661 24.4388 10.1185 24.1888 11.5664 23.668C13.0143 23.1471 14.4987 22.3711 16.0195 21.3398C18.0195 19.9753 19.4883 18.7669 20.4258 17.7148C20.8529 17.2461 21.2956 16.7044 21.7539 16.0898C22.2227 15.4753 22.7227 14.7878 23.2539 14.0273C23.6914 13.3815 24.1237 12.7409 24.5508 12.1055C24.9883 11.4701 25.4258 10.8294 25.8633 10.1836C27.3112 8.11068 29.1237 6.11068 31.3008 4.18359C31.3529 4.13151 31.3789 4.08984 31.3789 4.05859C31.3789 3.93359 31.3216 3.87109 31.207 3.87109C31.1549 3.87109 30.4049 4.41797 28.957 5.51172C26.6445 7.23047 23.9727 9.99609 20.9414 13.8086C19.7122 15.3398 18.707 16.5742 17.9258 17.5117C17.1549 18.4388 16.5977 19.0742 16.2539 19.418C14.3893 21.3138 12.3737 22.6419 10.207 23.4023C9.30078 23.7253 8.3737 23.8867 7.42578 23.8867C7.23828 23.8867 6.95182 23.8763 6.56641 23.8555C6.19141 23.8242 5.77474 23.7617 5.31641 23.668C4.85807 23.5638 4.38411 23.4128 3.89453 23.2148C3.40495 23.0169 2.96224 22.7461 2.56641 22.4023C2.17057 22.0482 1.84245 21.6107 1.58203 21.0898C1.33203 20.5586 1.21224 19.918 1.22266 19.168C1.22266 18.4284 1.35807 17.7513 1.62891 17.1367C1.89974 16.5221 2.25391 15.9701 2.69141 15.4805C3.12891 14.9909 3.6237 14.5638 4.17578 14.1992C4.73828 13.8242 5.3112 13.5169 5.89453 13.2773C6.48828 13.0378 7.0612 12.8607 7.61328 12.7461C8.17578 12.6211 8.68099 12.5586 9.12891 12.5586C9.69141 12.5586 10.2122 12.6367 10.6914 12.793C11.1706 12.9492 11.582 13.168 11.9258 13.4492C12.2695 13.7305 12.5352 14.069 12.7227 14.4648C12.9206 14.8607 13.0195 15.2982 13.0195 15.7773C13.0195 16.5898 12.832 17.2773 12.457 17.8398C12.082 18.3919 11.582 18.8451 10.957 19.1992C10.332 19.543 9.61849 19.793 8.81641 19.9492C8.01432 20.0951 7.18099 20.168 6.31641 20.168C6.05599 20.168 5.8737 20.1628 5.76953 20.1523C5.66536 20.1419 5.58724 20.1367 5.53516 20.1367C5.42057 20.1263 5.33724 20.168 5.28516 20.2617C5.24349 20.3451 5.22266 20.4284 5.22266 20.5117C5.31641 20.543 5.45703 20.6003 5.64453 20.6836C5.83203 20.7565 6.04557 20.8346 6.28516 20.918C6.53516 20.9909 6.80599 21.0586 7.09766 21.1211C7.38932 21.1836 7.6862 21.2148 7.98828 21.2148C8.89453 21.2148 9.6862 21.0586 10.3633 20.7461C11.0508 20.4232 11.6185 20.0117 12.0664 19.5117C12.5247 19.0013 12.8685 18.444 13.0977 17.8398C13.3268 17.2253 13.4414 16.6315 13.4414 16.0586C13.4414 15.5586 13.3633 15.0794 13.207 14.6211C13.0612 14.1523 12.8164 13.7409 12.4727 13.3867C12.1289 13.0221 11.681 12.7357 11.1289 12.5273C10.5872 12.3086 9.92057 12.1992 9.12891 12.1992C8.28516 12.1992 7.49349 12.2982 6.75391 12.4961C6.02474 12.6836 5.35286 12.944 4.73828 13.2773C4.1237 13.6107 3.57682 14.0065 3.09766 14.4648C2.61849 14.9128 2.21224 15.3919 1.87891 15.9023C1.54557 16.4128 1.29036 16.944 1.11328 17.4961C0.936198 18.0378 0.847656 18.569 0.847656 19.0898C0.847656 19.9232 1.00391 20.668 1.31641 21.3242C1.62891 21.9701 2.07161 22.5221 2.64453 22.9805C3.21745 23.4284 3.89974 23.7773 4.69141 24.0273C5.48307 24.2773 6.35286 24.4076 7.30078 24.418ZM45.8945 17.4336C45.8945 17.6003 45.7852 17.8086 45.5664 18.0586L41.0508 22.9961C40.8737 23.194 40.7852 23.3711 40.7852 23.5273C40.7852 23.6732 40.8737 23.7461 41.0508 23.7461C41.4049 23.7461 42.1706 23.2201 43.3477 22.168C44.5352 21.1055 45.1549 20.5742 45.207 20.5742C45.2591 20.5742 45.306 20.6003 45.3477 20.6523C45.3581 20.6732 45.3685 20.7096 45.3789 20.7617C45.3789 20.8138 45.3633 20.8555 45.332 20.8867L42.207 23.5586C41.6549 24.0378 41.1289 24.2773 40.6289 24.2773C39.8685 24.2773 39.4883 23.8607 39.4883 23.0273C39.4883 22.9336 39.4987 22.8346 39.5195 22.7305C39.1862 23.0638 38.707 23.4076 38.082 23.7617C37.3737 24.168 36.8372 24.3711 36.4727 24.3711C35.7018 24.3711 35.3164 23.9909 35.3164 23.2305C35.3164 21.9388 36.3008 20.5482 38.2695 19.0586C37.3945 19.6419 36.4362 20.2513 35.3945 20.8867C35.2904 20.8451 35.2383 20.7826 35.2383 20.6992C35.2383 20.6576 35.2643 20.6159 35.3164 20.5742C36.0977 19.9388 37.1966 19.2461 38.6133 18.4961C40.2174 17.6523 41.3685 17.2305 42.0664 17.2305C42.6393 17.2305 42.9258 17.4753 42.9258 17.9648C42.9258 18.0273 42.9049 18.1263 42.8633 18.2617C42.8216 18.3867 42.8008 18.4857 42.8008 18.5586L42.7852 18.6992H42.8008L42.8945 18.6523C43.1758 18.3294 43.457 18.0065 43.7383 17.6836C43.9674 17.4753 44.3477 17.3555 44.8789 17.3242C45.4935 17.2826 45.7643 17.2617 45.6914 17.2617C45.8268 17.2617 45.8945 17.319 45.8945 17.4336ZM42.5195 17.8555C42.5195 17.7201 42.4466 17.6523 42.3008 17.6523C41.8216 17.6523 40.7018 18.6107 38.9414 20.5273C37.2331 22.3919 36.3789 23.4805 36.3789 23.793C36.3789 23.9492 36.4831 24.0273 36.6914 24.0273C36.8997 24.0273 37.2904 23.8555 37.8633 23.5117C38.8216 22.918 39.6289 22.2513 40.2852 21.5117C40.7747 21.0117 41.4258 20.2096 42.2383 19.1055C42.4258 18.7617 42.5195 18.3451 42.5195 17.8555ZM57.6602 13.668C57.6602 14.1888 57.4049 14.6055 56.8945 14.918C56.457 15.1784 55.9622 15.3086 55.4102 15.3086C53.9727 15.3086 53.2539 14.7305 53.2539 13.5742C53.2539 13.2513 53.3633 12.9596 53.582 12.6992C53.8112 12.4388 54.082 12.3086 54.3945 12.3086C54.9883 12.3086 55.2852 12.6003 55.2852 13.1836C55.2852 13.5378 55.0768 13.793 54.6602 13.9492V13.9961C54.6602 14.5898 54.9727 14.8867 55.5977 14.8867C56.7539 14.8867 57.332 14.4648 57.332 13.6211C57.332 13.0169 57.0924 12.7253 56.6133 12.7461C56.5924 12.7461 56.5664 12.7513 56.5352 12.7617C56.5143 12.7721 56.4987 12.7773 56.4883 12.7773C56.3841 12.7773 56.3372 12.7461 56.3477 12.6836C56.3997 12.569 56.5247 12.5117 56.7227 12.5117C56.9831 12.5117 57.2122 12.6419 57.4102 12.9023C57.5768 13.1419 57.6602 13.3971 57.6602 13.668ZM55.957 17.3242C55.957 17.4284 55.9102 17.543 55.8164 17.668C55.7018 17.8242 55.6393 17.9232 55.6289 17.9648L51.0039 22.9961C50.8789 23.1315 50.8164 23.2721 50.8164 23.418C50.8164 23.5534 50.8997 23.6211 51.0664 23.6211C51.3685 23.6211 51.8893 23.319 52.6289 22.7148L55.1445 20.6211C55.1549 20.6211 55.1862 20.6055 55.2383 20.5742C55.3633 20.5846 55.4258 20.6419 55.4258 20.7461C55.4258 20.7982 55.4049 20.8451 55.3633 20.8867L52.2695 23.4648C51.6758 23.9544 51.1549 24.1992 50.707 24.1992C49.9049 24.1992 49.5039 23.7669 49.5039 22.9023C49.5039 22.5794 49.6393 22.2461 49.9102 21.9023C50.1602 21.6315 50.4102 21.3555 50.6602 21.0742C49.931 21.6784 49.207 22.2826 48.4883 22.8867C47.3737 23.7617 46.6081 24.1992 46.1914 24.1992C45.4206 24.1992 45.0352 23.7669 45.0352 22.9023C45.0352 22.4961 45.1549 22.1576 45.3945 21.8867L48.1602 18.6992C46.2747 20.1576 45.3216 20.8867 45.3008 20.8867C45.1862 20.8867 45.1289 20.8242 45.1289 20.6992C45.1289 20.6576 45.1549 20.6159 45.207 20.5742L49.3789 17.3242C49.5143 17.2201 50.1237 17.168 51.207 17.168C51.3529 17.168 51.4258 17.2201 51.4258 17.3242C51.4258 17.5117 51.3164 17.7253 51.0977 17.9648L47.1289 22.2773C46.9935 22.4232 46.9258 22.569 46.9258 22.7148C46.9258 22.7878 46.9622 22.8398 47.0352 22.8711C47.0977 22.944 47.1914 22.9805 47.3164 22.9805C47.6081 22.9805 47.8737 22.8919 48.1133 22.7148C48.7799 22.2044 49.8424 21.3242 51.3008 20.0742C51.4883 19.9388 51.7487 19.7201 52.082 19.418C52.5508 18.8138 53.1758 18.1159 53.957 17.3242C54.0612 17.2721 54.6549 17.2201 55.7383 17.168C55.8841 17.1576 55.957 17.2096 55.957 17.3242ZM69.6133 17.3711C69.6133 17.5586 69.5091 17.7669 69.3008 17.9961L64.7852 22.9648C64.6081 23.1628 64.5195 23.3398 64.5195 23.4961C64.5195 23.6315 64.5924 23.6992 64.7383 23.6992C65.1341 23.6992 65.8945 23.1836 67.0195 22.1523C68.1445 21.1107 68.7279 20.5898 68.7695 20.5898C68.8633 20.5898 68.9258 20.6628 68.957 20.8086C68.9049 20.9336 67.8997 21.8294 65.9414 23.4961C65.3477 23.9961 64.8164 24.2461 64.3477 24.2461C63.5872 24.2461 63.207 23.819 63.207 22.9648C63.207 22.6107 63.3424 22.2773 63.6133 21.9648L65.2695 20.043C65.1133 20.1784 64.3737 20.8711 63.0508 22.1211C62.1445 22.9648 61.3581 23.5898 60.6914 23.9961C60.4206 24.1628 60.1081 24.2461 59.7539 24.2461C59.0143 24.2461 58.6445 23.8138 58.6445 22.9492C58.6445 22.5951 58.7799 22.2669 59.0508 21.9648L62.332 18.1523C60.7799 19.0482 58.8893 20.8242 56.6602 23.4805C56.2747 23.9388 55.8372 24.168 55.3477 24.168C54.9206 24.168 54.707 23.9388 54.707 23.4805C54.707 22.3242 55.1133 21.7461 55.9258 21.7461C56.4466 21.7461 56.707 22.0065 56.707 22.5273C56.707 22.5898 56.6914 22.7357 56.6602 22.9648C56.8164 22.7773 57.0508 22.4961 57.3633 22.1211C57.6133 21.819 57.9831 21.3815 58.4727 20.8086C59.5768 19.6419 60.806 18.6628 62.1602 17.8711C62.4518 17.6836 62.8477 17.4857 63.3477 17.2773L64.8633 17.2148C65.0091 17.2044 65.082 17.2565 65.082 17.3711C65.082 17.5378 64.9674 17.7461 64.7383 17.9961L60.2695 22.918C60.1133 23.1055 60.0352 23.2878 60.0352 23.4648C60.0352 23.6523 60.1602 23.7461 60.4102 23.7461C60.681 23.7461 61.4414 23.168 62.6914 22.0117C63.4727 21.2721 64.2591 20.5378 65.0508 19.8086C65.4362 19.5169 65.9727 19.0586 66.6602 18.4336C66.8372 18.2253 67.0977 17.918 67.4414 17.5117C67.5768 17.3659 67.7331 17.2878 67.9102 17.2773L69.4102 17.2305C69.5456 17.2305 69.6133 17.2773 69.6133 17.3711ZM79.332 17.3555C79.332 17.5534 79.2279 17.7617 79.0195 17.9805L74.5195 22.9492C74.332 23.1471 74.2383 23.3242 74.2383 23.4805C74.2383 23.6055 74.3112 23.668 74.457 23.668C74.7799 23.668 75.3112 23.3659 76.0508 22.7617L78.707 20.5586C78.7174 20.5482 78.7591 20.5326 78.832 20.5117C78.9466 20.5326 79.0039 20.5951 79.0039 20.6992C79.0039 20.7305 78.9779 20.7669 78.9258 20.8086L75.6914 23.4805C75.1081 23.9596 74.556 24.1992 74.0352 24.1992C73.2956 24.1992 72.9258 23.7721 72.9258 22.918C72.9258 22.6055 73.3008 22.0013 74.0508 21.1055C73.2174 21.8451 72.0143 22.8034 70.4414 23.9805C70.2122 24.1263 69.8841 24.1992 69.457 24.1992C68.7904 24.1992 68.457 23.7826 68.457 22.9492C68.457 22.5534 68.5768 22.2148 68.8164 21.9336L71.582 18.7461C69.6966 20.1836 68.7435 20.9023 68.7227 20.9023C68.6081 20.9023 68.5508 20.8398 68.5508 20.7148C68.5508 20.6732 68.5768 20.6367 68.6289 20.6055L72.8008 17.3711C72.9362 17.2669 73.5091 17.2148 74.5195 17.2148C74.7174 17.2148 74.8164 17.2617 74.8164 17.3555C74.8164 17.5534 74.7174 17.7617 74.5195 17.9805L70.5508 22.3242C70.4154 22.4701 70.3477 22.6159 70.3477 22.7617C70.3477 22.9388 70.4779 23.0273 70.7383 23.0273C71.0091 23.0273 71.2747 22.9388 71.5352 22.7617C71.7122 22.6471 72.3945 22.0951 73.582 21.1055C74.7695 20.1159 75.4102 19.5742 75.5039 19.4805L77.1758 17.5117C77.3112 17.3451 77.4622 17.2617 77.6289 17.2617L79.1602 17.2148C79.2747 17.2148 79.332 17.2617 79.332 17.3555ZM90.0977 17.4648C90.0977 17.6315 89.9831 17.8346 89.7539 18.0742L85.2383 23.0273C85.0508 23.2461 84.957 23.4284 84.957 23.5742C84.957 23.6992 85.0352 23.7617 85.1914 23.7617C85.2539 23.7617 85.3997 23.7305 85.6289 23.668C85.7643 23.6367 86.8112 22.7826 88.7695 21.1055C88.9466 20.9388 89.1549 20.7565 89.3945 20.5586C89.5195 20.5898 89.582 20.6523 89.582 20.7461C89.5716 20.7669 89.556 20.7878 89.5352 20.8086C89.3581 21.0065 89.0039 21.3398 88.4727 21.8086C88.0039 22.2044 87.3112 22.793 86.3945 23.5742C85.832 24.0534 85.2643 24.293 84.6914 24.293C84.3789 24.293 84.1237 24.1628 83.9258 23.9023C83.7383 23.6419 83.6445 23.3503 83.6445 23.0273C83.6445 22.7044 83.9935 22.1315 84.6914 21.3086C84.4727 21.2357 84.1393 21.1992 83.6914 21.1992C83.2018 21.1992 82.7591 21.2617 82.3633 21.3867L80.207 23.8867C80.0716 24.043 79.9206 24.1211 79.7539 24.1211L78.2383 24.1992C78.082 24.2096 78.0039 24.1523 78.0039 24.0273C78.0039 23.8815 78.1289 23.6732 78.3789 23.4023L82.8633 18.4648C83.0404 18.2669 83.1289 18.0898 83.1289 17.9336C83.1289 17.8711 83.1081 17.8138 83.0664 17.7617C82.9935 17.7305 82.9258 17.7148 82.8633 17.7148C82.4987 17.7148 81.7643 18.2305 80.6602 19.2617C79.5143 20.3034 78.8997 20.8346 78.8164 20.8555C78.7018 20.8451 78.6445 20.7826 78.6445 20.668C78.6445 20.6055 79.6706 19.6836 81.7227 17.9023C82.2852 17.4128 82.8424 17.168 83.3945 17.168C83.707 17.168 83.9674 17.3086 84.1758 17.5898C84.3529 17.8503 84.4414 18.1419 84.4414 18.4648C84.4414 18.8086 84.3112 19.1315 84.0508 19.4336L82.957 20.6992H83.1289C84.1185 20.6992 84.8685 20.6367 85.3789 20.5117L87.8789 17.6055C88.0143 17.4492 88.1758 17.3659 88.3633 17.3555L89.8789 17.2773C90.0247 17.2773 90.0977 17.3398 90.0977 17.4648ZM95.6758 20.7461C95.6758 20.8086 95.6549 20.8555 95.6133 20.8867L92.5039 23.5117C91.9414 23.9909 91.332 24.2305 90.6758 24.2305C89.8008 24.2305 89.3633 23.819 89.3633 22.9961C89.3633 22.2565 90.1497 21.3919 91.7227 20.4023C93.306 19.4128 94.0977 18.6628 94.0977 18.1523C94.0977 17.8815 94.0091 17.7461 93.832 17.7461C93.7174 17.7461 93.556 17.7773 93.3477 17.8398C93.0143 17.9336 91.931 18.7565 90.0977 20.3086C89.9102 20.4753 89.6654 20.6628 89.3633 20.8711C89.2695 20.7982 89.2227 20.7305 89.2227 20.668C89.2227 20.6263 89.2435 20.5898 89.2852 20.5586L92.582 17.9023C93.1966 17.4128 93.7174 17.168 94.1445 17.168C95.1029 17.168 95.582 17.6784 95.582 18.6992C95.582 19.2721 94.9987 19.8555 93.832 20.4492C93.2487 20.7409 92.6706 21.1263 92.0977 21.6055C91.3268 22.2409 90.9414 22.7669 90.9414 23.1836C90.9414 23.4753 91.082 23.6211 91.3633 23.6211C91.4779 23.6211 91.6029 23.6055 91.7383 23.5742C91.9154 23.5326 92.5872 23.0169 93.7539 22.0273C94.8893 21.0482 95.4727 20.5586 95.5039 20.5586C95.6185 20.5586 95.6758 20.6211 95.6758 20.7461Z" fill="#28682E"></path></svg> 