<?xml version="1.0" encoding="UTF-8"?> <svg xmlns="http://www.w3.org/2000/svg" width="194" height="71" viewBox="0 0 194 71" fill="none"><path d="M10.5024 21.2852L13.588 0.838402L19.8824 0.838402V29.6367H15.6038V8.98421L12.4772 29.6367H8.19856L4.82504 9.27219V29.6367H0.875557V0.838402H7.17005L10.5024 21.2852ZM24.0672 25.5227C24.314 25.5501 24.506 25.5638 24.6432 25.5638C24.7803 25.5638 24.9723 25.5638 25.2191 25.5638C25.5757 25.5638 25.9322 25.5227 26.2888 25.4404C26.6453 25.3581 26.947 25.2073 27.1939 24.9878C27.4681 24.7684 27.6601 24.4667 27.7698 24.0828C27.8795 23.6714 27.8795 23.1365 27.7698 22.4783L21.5988 0.838402H26.1242L30.6908 17.706L34.3935 0.838402H38.9189L33.4061 22.0669C32.9124 23.6302 32.4324 24.9056 31.9662 25.8929C31.5273 26.8803 31.0199 27.662 30.444 28.2379C29.868 28.7865 29.2098 29.1705 28.4692 29.3899C27.7287 29.5819 26.851 29.6916 25.8362 29.719C25.4248 29.719 25.1231 29.719 24.9311 29.719C24.7392 29.719 24.4512 29.6916 24.0672 29.6367V25.5227ZM47.8461 7.91456C47.8461 6.62549 47.6266 5.76154 47.1878 5.32271C46.7764 4.85645 46.2142 4.62332 45.5011 4.62332C44.788 4.62332 44.212 4.84274 43.7732 5.28157C43.3618 5.69298 43.1561 6.41979 43.1561 7.46202V10.5475H38.8774V7.75C38.8774 5.41871 39.4397 3.63595 40.5642 2.40174C41.7161 1.1401 43.4029 0.50928 45.6245 0.50928C47.8461 0.50928 49.5191 1.1401 50.6436 2.40174C51.7955 3.63595 52.3715 5.41871 52.3715 7.75V8.49053C52.3715 11.5623 51.3156 13.5371 49.2037 14.4148C50.3556 14.9084 51.1647 15.6764 51.631 16.7186C52.1247 17.7334 52.3715 18.9813 52.3715 20.4624V22.7251C52.3715 25.0564 51.7955 26.8529 50.6436 28.1145C49.5191 29.3487 47.8461 29.9658 45.6245 29.9658C43.4029 29.9658 41.7161 29.3487 40.5642 28.1145C39.4397 26.8529 38.8774 25.0564 38.8774 22.7251V19.1048H43.1561V23.0131C43.1561 24.0553 43.3618 24.7959 43.7732 25.2347C44.212 25.6461 44.788 25.8518 45.5011 25.8518C46.2142 25.8518 46.7764 25.6324 47.1878 25.1936C47.6266 24.7547 47.8461 23.8908 47.8461 22.6017V20.339C47.8461 18.9951 47.6129 18.0488 47.1467 17.5003C46.6804 16.9517 45.9262 16.6775 44.8839 16.6775H44.1846V12.5634H45.1308C45.981 12.5634 46.6393 12.344 47.1055 11.9052C47.5992 11.4664 47.8461 10.671 47.8461 9.51904V7.91456ZM58.7952 12.5634H61.5105C63.7869 12.5634 65.4737 13.1668 66.5707 14.3736C67.6953 15.5804 68.2575 17.3494 68.2575 19.6807V22.5194C68.2575 24.8507 67.6953 26.6198 66.5707 27.8265C65.4737 29.0333 63.7869 29.6367 61.5105 29.6367H54.2698V0.838402H58.7952V12.5634ZM69.9031 0.838402H74.4286V29.6367H69.9031V0.838402ZM61.5105 25.5227C62.2236 25.5227 62.7721 25.3307 63.1561 24.9467C63.5401 24.5353 63.7321 23.8222 63.7321 22.8074V19.3927C63.7321 18.3779 63.5401 17.6786 63.1561 17.2946C62.7721 16.8832 62.2236 16.6775 61.5105 16.6775H58.7952V25.5227H61.5105ZM90.0636 8.90193C90.0636 11.864 89.0625 13.8114 87.0603 14.7439C88.2122 15.2101 88.9939 15.9781 89.4053 17.0477C89.8441 18.09 90.0636 19.3653 90.0636 20.8738V23.4245C90.0636 24.0005 90.1047 24.4393 90.187 24.741C90.2693 25.0153 90.3927 25.221 90.5572 25.3581C90.7492 25.4678 90.9686 25.5227 91.2155 25.5227C91.4898 25.5227 91.8052 25.5227 92.1617 25.5227H92.4086V29.6367H90.5161C89.1173 29.6641 88.0065 29.2939 87.1837 28.5259C86.3609 27.7305 85.9495 26.7157 85.9495 25.4815V20.7504C85.9495 19.4065 85.6478 18.4602 85.0444 17.9117C84.441 17.3632 83.6182 17.0889 82.576 17.0889H81.0127V29.6367H76.4872V0.838402L81.0127 0.838402V12.9748H82.7817C83.6319 12.9748 84.3725 12.7554 85.0033 12.3166C85.6341 11.8778 85.9495 11.0824 85.9495 9.93044V4.99359C85.9495 3.75937 86.3609 2.75829 87.1837 1.99033C88.0065 1.19495 89.1173 0.810976 90.5161 0.838402H92.3674V4.95245H92.1617C91.8052 4.95245 91.4898 4.95245 91.2155 4.95245C90.9686 4.95245 90.7492 5.02102 90.5572 5.15815C90.3927 5.26786 90.2693 5.47356 90.187 5.77526C90.1047 6.04953 90.0636 6.47464 90.0636 7.05061V8.90193ZM109.391 29.6367H104.824L104.042 24.4119H98.4883L97.7067 29.6367H93.5515L98.1592 0.838402H104.783L109.391 29.6367ZM99.0643 20.5035H103.425L101.245 5.93982L99.0643 20.5035ZM119.186 16.2661C119.186 18.5699 119.076 20.5721 118.856 22.2726C118.637 23.9456 118.226 25.3307 117.622 26.4278C117.019 27.5248 116.182 28.3339 115.113 28.8551C114.07 29.3762 112.726 29.6367 111.081 29.6367H110.587V25.5227H111.122C111.945 25.5227 112.603 25.3033 113.097 24.8644C113.618 24.4256 114.016 23.8085 114.29 23.0131C114.564 22.1903 114.742 21.2029 114.825 20.051C114.907 18.8991 114.948 17.61 114.948 16.1838V0.838402L127.537 0.838402V29.6367H123.012V4.95245H119.186V16.2661ZM134.126 12.5634H136.841C139.117 12.5634 140.804 13.1668 141.901 14.3736C143.026 15.5804 143.588 17.3494 143.588 19.6807V22.5194C143.588 24.8507 143.026 26.6198 141.901 27.8265C140.804 29.0333 139.117 29.6367 136.841 29.6367L129.6 29.6367V0.838402H134.126V12.5634ZM136.841 25.5227C137.554 25.5227 138.103 25.3307 138.487 24.9467C138.87 24.5353 139.062 23.8222 139.062 22.8074V19.3927C139.062 18.3779 138.87 17.6786 138.487 17.2946C138.103 16.8832 137.554 16.6775 136.841 16.6775H134.126V25.5227H136.841ZM149.433 29.6367H144.907V0.838402H149.433V13.1805H154.575V0.838402L159.183 0.838402V29.6367H154.575V17.2946H149.433V29.6367ZM176.686 29.6367H172.119L171.337 24.4119H165.784L165.002 29.6367H160.847L165.454 0.838402H172.078L176.686 29.6367ZM166.359 20.5035H170.72L168.54 5.93982L166.359 20.5035ZM179.857 21.6966C179.857 20.1881 180.063 18.9128 180.474 17.8705C180.913 16.8009 181.708 16.0329 182.86 15.5667C180.886 14.6342 179.898 12.6869 179.898 9.72474V7.46202C179.898 5.24043 180.419 3.5811 181.462 2.48402C182.531 1.38694 184.245 0.838402 186.604 0.838402L193.433 0.838402V29.6367H188.908V17.9117H187.345C186.302 17.9117 185.548 18.186 185.082 18.7345C184.616 19.283 184.383 20.2293 184.383 21.5732V25.4815C184.383 26.7157 184.012 27.7168 183.272 28.4848C182.531 29.2527 181.256 29.6367 179.446 29.6367H177.965V25.5227H178.211C178.733 25.5227 179.13 25.413 179.405 25.1936C179.706 24.9467 179.857 24.357 179.857 23.4245V21.6966ZM186.728 4.95245C185.932 4.95245 185.342 5.18558 184.958 5.65184C184.602 6.11809 184.424 6.87234 184.424 7.91456V10.7533C184.424 11.9052 184.657 12.7006 185.123 13.1394C185.617 13.5782 186.289 13.7976 187.139 13.7976H188.908V4.95245H186.728ZM33.9399 41.8384C36.2987 41.8384 37.9991 42.3869 39.0414 43.484C40.111 44.5811 40.6458 46.2404 40.6458 48.462V49.4905C40.6458 50.9716 40.4127 52.1921 39.9465 53.152C39.4802 54.112 38.7397 54.8251 37.7249 55.2913C38.9591 55.7576 39.823 56.5255 40.3167 57.5952C40.8378 58.6374 41.0984 59.9265 41.0984 61.4624V63.8074C41.0984 66.029 40.5224 67.7295 39.3705 68.9088C38.2186 70.0608 36.5044 70.6367 34.2279 70.6367H27.1106V41.8384H33.9399ZM31.6361 57.6775V66.5227H34.2279C34.9959 66.5227 35.5719 66.317 35.9558 65.9056C36.3672 65.4942 36.5729 64.7536 36.5729 63.684V61.1744C36.5729 59.8305 36.3398 58.9117 35.8736 58.418C35.4347 57.9243 34.6942 57.6775 33.652 57.6775H31.6361ZM31.6361 45.9524V53.5634H33.4051C34.2554 53.5634 34.9136 53.344 35.3799 52.9052C35.8736 52.4664 36.1204 51.671 36.1204 50.519V48.9146C36.1204 47.8723 35.9284 47.1181 35.5444 46.6518C35.1879 46.1856 34.6119 45.9524 33.8165 45.9524H31.6361ZM47.6664 53.9748H53.8786V58.0889H47.6664V66.5227H55.4831V70.6367H43.1409V41.8384H55.4831V45.9524H47.6664V53.9748ZM61.3912 41.8384V52.9463C61.3912 53.9885 61.5969 54.7154 62.0083 55.1268C62.4472 55.5382 63.0231 55.7439 63.7362 55.7439C64.4219 55.7439 64.9705 55.5656 65.3819 55.209C65.7933 54.8251 66.0264 54.1805 66.0812 53.2754V41.8384L70.6067 41.8384V70.6367H66.0812V59.5699C65.6973 59.7071 65.2996 59.8031 64.8882 59.8579C64.5042 59.8853 64.0791 59.8991 63.6128 59.8991C61.3912 59.8991 59.7045 59.282 58.5525 58.0477C57.428 56.7861 56.8658 54.9896 56.8658 52.6583V41.8384H61.3912ZM77.2361 53.9748H83.4483V58.0889H77.2361V66.5227H85.0528V70.6367H72.7106V41.8384H85.0528V45.9524H77.2361V53.9748ZM93.7585 41.8384C96.0349 41.8384 97.7217 42.4418 98.8188 43.6486C99.9433 44.8554 100.506 46.6244 100.506 48.9557V52.6995C100.506 55.0308 99.9433 56.7998 98.8188 58.0066C97.7217 59.2134 96.0349 59.8168 93.7585 59.8168H91.6192V70.6367H87.0937V41.8384H93.7585ZM91.6192 45.9524V55.7027H93.7585C94.4716 55.7027 95.0201 55.5107 95.4041 55.1268C95.7881 54.7428 95.9801 54.0297 95.9801 52.9875V48.6677C95.9801 47.6255 95.7881 46.9124 95.4041 46.5284C95.0201 46.1444 94.4716 45.9524 93.7585 45.9524H91.6192ZM105.17 70.6367H101.879V41.8384H105.91V59.0763L112.945 41.8384H116.237V70.6367H112.164V54.304L105.17 70.6367ZM122.876 70.6367H118.351V41.8384H122.876V54.1805H128.019V41.8384H132.627V70.6367H128.019V58.2946H122.876V70.6367ZM148.319 49.9019C148.319 52.864 147.318 54.8114 145.316 55.7439C146.468 56.2101 147.249 56.9781 147.661 58.0477C148.1 59.09 148.319 60.3653 148.319 61.8738V64.4245C148.319 65.0005 148.36 65.4393 148.442 65.741C148.525 66.0153 148.648 66.221 148.813 66.3581C149.005 66.4678 149.224 66.5227 149.471 66.5227C149.745 66.5227 150.061 66.5227 150.417 66.5227H150.664V70.6367H148.772C147.373 70.6641 146.262 70.2939 145.439 69.5259C144.616 68.7305 144.205 67.7157 144.205 66.4815V61.7504C144.205 60.4065 143.903 59.4602 143.3 58.9117C142.697 58.3632 141.874 58.0889 140.832 58.0889H139.268V70.6367H134.743V41.8384H139.268V53.9748H141.037C141.887 53.9748 142.628 53.7554 143.259 53.3166C143.89 52.8778 144.205 52.0824 144.205 50.9304V45.9936C144.205 44.7594 144.616 43.7583 145.439 42.9903C146.262 42.195 147.373 41.811 148.772 41.8384H150.623V45.9524H150.417C150.061 45.9524 149.745 45.9524 149.471 45.9524C149.224 45.9524 149.005 46.021 148.813 46.1582C148.648 46.2679 148.525 46.4736 148.442 46.7753C148.36 47.0495 148.319 47.4746 148.319 48.0506V49.9019ZM167.646 70.6367H163.079L162.298 65.4119H156.744L155.962 70.6367H151.807L156.415 41.8384H163.038L167.646 70.6367ZM157.32 61.5035H161.681L159.5 46.9398L157.32 61.5035Z" fill="#5A2024"></path></svg> 