<?xml version="1.0" encoding="UTF-8"?> <svg xmlns="http://www.w3.org/2000/svg" width="203" height="34" viewBox="0 0 203 34" fill="none"><path d="M32.7617 1.08008C32.7617 1.15299 32.4492 1.30924 31.8242 1.54883C30.4909 2.05924 29.2721 2.84049 28.168 3.89258C28.3659 4.48633 28.4648 5.07487 28.4648 5.6582C28.4648 6.48112 28.2721 7.52799 27.8867 8.79883C27.1055 11.403 25.6836 13.9134 23.6211 16.3301C21.569 18.7467 19.319 20.5488 16.8711 21.7363C15.9023 22.2051 14.8242 22.5749 13.6367 22.8457C12.8971 23.002 12.319 23.0801 11.9023 23.0801C11.4128 23.0801 10.9388 22.9915 10.4805 22.8145C10.0326 22.627 9.58464 22.4342 9.13672 22.2363C7.64714 22.653 6.1888 22.8613 4.76172 22.8613C3.1888 22.8613 2.10547 22.6374 1.51172 22.1895C1.11589 21.8874 0.917969 21.5853 0.917969 21.2832C0.917969 20.6686 1.31901 20.1895 2.12109 19.8457C2.73568 19.5853 3.39714 19.4551 4.10547 19.4551C5.61589 19.4551 7.73568 20.0801 10.4648 21.3301C13.8711 19.8092 17.4805 16.153 21.293 10.3613C22.0846 9.15299 22.9336 8.02279 23.8398 6.9707C24.8398 5.79362 26.1159 4.64258 27.668 3.51758C27.2096 2.50716 26.6055 1.79883 25.8555 1.39258C25.1784 1.02799 24.2513 0.845703 23.0742 0.845703C21.3451 0.845703 19.6523 1.45508 17.9961 2.67383C15.1211 4.79883 12.8711 7.0957 11.2461 9.56445C10.5273 10.6478 10.168 11.679 10.168 12.6582C10.168 13.1999 10.3711 13.6999 10.7773 14.1582C11.194 14.6165 11.668 14.8457 12.1992 14.8457C13.2721 14.8457 14.6107 14.2311 16.2148 13.002C17.5065 12.0228 18.6055 10.9655 19.5117 9.83008C20.5221 8.56966 21.0273 7.40299 21.0273 6.33008C21.0273 5.47591 20.7357 5.04883 20.1523 5.04883C19.1003 5.04883 17.8971 5.83529 16.543 7.4082C16.2201 7.77279 15.569 8.44466 14.5898 9.42383C14.2253 9.78841 13.9857 10.2467 13.8711 10.7988C13.8503 10.9134 13.7982 11.4395 13.7148 12.377C13.7044 12.5124 13.6523 12.5749 13.5586 12.5645C13.5378 12.5749 13.5169 12.5853 13.4961 12.5957C13.319 12.5957 13.2305 12.1478 13.2305 11.252C13.2305 10.502 13.4284 9.78841 13.8242 9.11133C14.4596 8.04883 15.3346 7.04883 16.4492 6.11133C17.7513 5.00716 18.9076 4.45508 19.918 4.45508C20.9805 4.45508 21.5117 5.01758 21.5117 6.14258C21.5117 6.81966 21.418 7.38216 21.2305 7.83008C20.5951 9.34049 19.3451 10.9238 17.4805 12.5801C15.4596 14.3822 13.7253 15.2832 12.2773 15.2832C10.1523 15.2832 9.08984 14.127 9.08984 11.8145C9.08984 9.71029 10.1836 7.54883 12.3711 5.33008C14.2878 3.37174 16.3711 1.9707 18.6211 1.12695C19.944 0.626953 21.2565 0.376953 22.5586 0.376953C25.3607 0.376953 27.1628 1.36133 27.9648 3.33008C29.5378 2.21549 31.0586 1.40299 32.5273 0.892578C32.5378 0.892578 32.5586 0.88737 32.5898 0.876953C32.7044 0.876953 32.7617 0.944661 32.7617 1.08008ZM28.1211 5.67383C28.1211 5.17383 28.0534 4.67383 27.918 4.17383C26.9701 5.15299 26.0846 6.25195 25.2617 7.4707C24.1471 9.18945 22.4232 11.7311 20.0898 15.0957C19.069 16.4603 17.8607 17.679 16.4648 18.752C15.6315 19.3978 14.4961 20.0645 13.0586 20.752C12.6211 20.9603 11.9648 21.2415 11.0898 21.5957C11.8815 21.9186 12.543 22.0801 13.0742 22.0801C13.9909 22.0801 15.1315 21.8353 16.4961 21.3457C18.2461 20.7311 20.0117 19.5436 21.793 17.7832C23.3242 16.2832 24.6628 14.5905 25.8086 12.7051C26.5378 11.4967 27.1211 10.1634 27.5586 8.70508C27.9336 7.40299 28.1211 6.39258 28.1211 5.67383ZM8.63672 21.9863C6.23047 20.9238 4.42839 20.3926 3.23047 20.3926C2.13672 20.3926 1.58984 20.6738 1.58984 21.2363C1.58984 21.5072 1.76172 21.7676 2.10547 22.0176C2.59505 22.3717 3.5013 22.5488 4.82422 22.5488C6.0013 22.5488 7.27214 22.3613 8.63672 21.9863ZM32.668 19.3145C32.668 19.4811 32.293 19.8092 31.543 20.2988C31.3034 20.4551 31.0065 20.5332 30.6523 20.5332C28.9544 22.179 27.5273 23.002 26.3711 23.002C25.3294 23.002 24.8086 22.5228 24.8086 21.5645C24.8086 20.2832 25.7409 18.8926 27.6055 17.3926C27.1055 17.6634 26.7409 17.877 26.5117 18.0332C26.0638 18.4811 25.5221 18.9707 24.8867 19.502C24.8034 19.4603 24.7617 19.403 24.7617 19.3301C24.7617 19.1842 25.0846 18.8353 25.7305 18.2832C26.5534 17.5645 27.8138 16.8509 29.5117 16.1426C30.5326 15.7259 31.2044 15.5176 31.5273 15.5176C32.2253 15.5176 32.5742 15.7572 32.5742 16.2363C32.5742 16.1217 32.5117 16.4186 32.3867 17.127C32.418 17.2103 32.4336 17.304 32.4336 17.4082C32.4336 18.1374 31.9701 18.9551 31.043 19.8613C30.9909 19.9134 30.9544 19.9603 30.9336 20.002L30.9805 20.0488C31.2305 20.0488 31.5169 19.903 31.8398 19.6113C32.1732 19.3197 32.3867 19.1738 32.4805 19.1738C32.6055 19.1738 32.668 19.2207 32.668 19.3145ZM32.0586 16.4082C32.0586 16.0853 31.9076 15.9238 31.6055 15.9238C31.1992 15.9238 30.1419 16.8145 28.4336 18.5957C26.7357 20.3665 25.8867 21.5072 25.8867 22.0176C25.8867 22.4238 26.0794 22.627 26.4648 22.627C26.8398 22.627 27.2357 22.5228 27.6523 22.3145C28.0378 22.1165 28.4961 21.8301 29.0273 21.4551C29.7253 20.9759 30.0794 20.6374 30.0898 20.4395C29.8398 20.4395 29.7148 20.252 29.7148 19.877C29.7148 19.3457 29.9596 18.7363 30.4492 18.0488C30.9596 17.3197 31.4701 16.929 31.9805 16.877C32.0326 16.7624 32.0586 16.6061 32.0586 16.4082ZM42.6367 19.377C42.6367 19.4082 42.6107 19.4447 42.5586 19.4863L39.5273 22.1113C38.9544 22.6009 38.4336 22.8457 37.9648 22.8457C37.1732 22.8457 36.7773 22.403 36.7773 21.5176C36.7773 21.1634 36.918 20.8353 37.1992 20.5332L40.4961 17.0488C40.6732 16.8613 40.7617 16.6895 40.7617 16.5332C40.7617 16.3874 40.6628 16.3145 40.4648 16.3145C40.0586 16.3145 38.8503 17.2259 36.8398 19.0488C36.2148 19.6113 35.5273 20.3717 34.7773 21.3301C34.1419 22.1426 33.5117 22.9551 32.8867 23.7676L25.0273 33.502C24.9023 33.6582 24.7513 33.7415 24.5742 33.752L23.0586 33.8145C22.9336 33.8249 22.8711 33.7728 22.8711 33.6582C22.8711 33.4707 22.9753 33.2572 23.1836 33.0176L36.918 16.627C37.1992 16.2936 37.5638 15.903 38.0117 15.4551C34.3763 18.2155 32.5482 19.5957 32.5273 19.5957C32.4128 19.5957 32.3555 19.5384 32.3555 19.4238C32.3555 19.3613 32.3763 19.3145 32.418 19.2832L38.3867 14.7363C39.1992 14.1113 40.0273 13.4238 40.8711 12.6738C41.1107 12.4655 41.2982 12.3613 41.4336 12.3613C41.5273 12.3613 41.5742 12.429 41.5742 12.5645C41.5742 12.7207 41.2044 13.2624 40.4648 14.1895L37.2617 18.2363L39.3398 16.502C39.9336 16.0124 40.4596 15.7676 40.918 15.7676C41.6367 15.7676 41.9961 16.2624 41.9961 17.252C41.9961 17.554 41.8867 17.8249 41.668 18.0645L38.3555 21.5488C38.1784 21.7363 38.0898 21.9082 38.0898 22.0645C38.0898 22.2207 38.1784 22.2988 38.3555 22.2988C38.668 22.2988 39.3867 21.7988 40.5117 20.7988C41.6888 19.7676 42.3346 19.2363 42.4492 19.2051C42.5742 19.2155 42.6367 19.2728 42.6367 19.377ZM50.293 19.3145C50.293 19.4811 49.918 19.8092 49.168 20.2988C48.9284 20.4551 48.6315 20.5332 48.2773 20.5332C46.5794 22.179 45.1523 23.002 43.9961 23.002C42.9544 23.002 42.4336 22.5228 42.4336 21.5645C42.4336 20.2832 43.3659 18.8926 45.2305 17.3926C44.7305 17.6634 44.3659 17.877 44.1367 18.0332C43.6888 18.4811 43.1471 18.9707 42.5117 19.502C42.4284 19.4603 42.3867 19.403 42.3867 19.3301C42.3867 19.1842 42.7096 18.8353 43.3555 18.2832C44.1784 17.5645 45.4388 16.8509 47.1367 16.1426C48.1576 15.7259 48.8294 15.5176 49.1523 15.5176C49.8503 15.5176 50.1992 15.7572 50.1992 16.2363C50.1992 16.1217 50.1367 16.4186 50.0117 17.127C50.043 17.2103 50.0586 17.304 50.0586 17.4082C50.0586 18.1374 49.5951 18.9551 48.668 19.8613C48.6159 19.9134 48.5794 19.9603 48.5586 20.002L48.6055 20.0488C48.8555 20.0488 49.1419 19.903 49.4648 19.6113C49.7982 19.3197 50.0117 19.1738 50.1055 19.1738C50.2305 19.1738 50.293 19.2207 50.293 19.3145ZM49.6836 16.4082C49.6836 16.0853 49.5326 15.9238 49.2305 15.9238C48.8242 15.9238 47.7669 16.8145 46.0586 18.5957C44.3607 20.3665 43.5117 21.5072 43.5117 22.0176C43.5117 22.4238 43.7044 22.627 44.0898 22.627C44.4648 22.627 44.8607 22.5228 45.2773 22.3145C45.6628 22.1165 46.1211 21.8301 46.6523 21.4551C47.3503 20.9759 47.7044 20.6374 47.7148 20.4395C47.4648 20.4395 47.3398 20.252 47.3398 19.877C47.3398 19.3457 47.5846 18.7363 48.0742 18.0488C48.5846 17.3197 49.0951 16.929 49.6055 16.877C49.6576 16.7624 49.6836 16.6061 49.6836 16.4082ZM56.4805 19.3613C56.4805 19.4238 56.4596 19.4707 56.418 19.502L53.3086 22.127C52.7461 22.6061 52.1367 22.8457 51.4805 22.8457C50.6055 22.8457 50.168 22.4342 50.168 21.6113C50.168 20.8717 50.9544 20.0072 52.5273 19.0176C54.1107 18.028 54.9023 17.278 54.9023 16.7676C54.9023 16.4967 54.8138 16.3613 54.6367 16.3613C54.5221 16.3613 54.3607 16.3926 54.1523 16.4551C53.819 16.5488 52.7357 17.3717 50.9023 18.9238C50.7148 19.0905 50.4701 19.278 50.168 19.4863C50.0742 19.4134 50.0273 19.3457 50.0273 19.2832C50.0273 19.2415 50.0482 19.2051 50.0898 19.1738L53.3867 16.5176C54.0013 16.028 54.5221 15.7832 54.9492 15.7832C55.9076 15.7832 56.3867 16.2936 56.3867 17.3145C56.3867 17.8874 55.8034 18.4707 54.6367 19.0645C54.0534 19.3561 53.4753 19.7415 52.9023 20.2207C52.1315 20.8561 51.7461 21.3822 51.7461 21.7988C51.7461 22.0905 51.8867 22.2363 52.168 22.2363C52.2826 22.2363 52.4076 22.2207 52.543 22.1895C52.7201 22.1478 53.3919 21.6322 54.5586 20.6426C55.694 19.6634 56.2773 19.1738 56.3086 19.1738C56.4232 19.1738 56.4805 19.2363 56.4805 19.3613ZM66.9492 15.9707C66.9492 16.1686 66.8451 16.377 66.6367 16.5957L62.1367 21.5645C61.9492 21.7624 61.8555 21.9395 61.8555 22.0957C61.8555 22.2207 61.9284 22.2832 62.0742 22.2832C62.3971 22.2832 62.9284 21.9811 63.668 21.377L66.3242 19.1738C66.3346 19.1634 66.3763 19.1478 66.4492 19.127C66.5638 19.1478 66.6211 19.2103 66.6211 19.3145C66.6211 19.3457 66.5951 19.3822 66.543 19.4238L63.3086 22.0957C62.7253 22.5749 62.1732 22.8145 61.6523 22.8145C60.9128 22.8145 60.543 22.3874 60.543 21.5332C60.543 21.2207 60.918 20.6165 61.668 19.7207C60.8346 20.4603 59.6315 21.4186 58.0586 22.5957C57.8294 22.7415 57.5013 22.8145 57.0742 22.8145C56.4076 22.8145 56.0742 22.3978 56.0742 21.5645C56.0742 21.1686 56.194 20.8301 56.4336 20.5488L59.1992 17.3613C57.3138 18.7988 56.3607 19.5176 56.3398 19.5176C56.2253 19.5176 56.168 19.4551 56.168 19.3301C56.168 19.2884 56.194 19.252 56.2461 19.2207L60.418 15.9863C60.5534 15.8822 61.1263 15.8301 62.1367 15.8301C62.3346 15.8301 62.4336 15.877 62.4336 15.9707C62.4336 16.1686 62.3346 16.377 62.1367 16.5957L58.168 20.9395C58.0326 21.0853 57.9648 21.2311 57.9648 21.377C57.9648 21.554 58.0951 21.6426 58.3555 21.6426C58.6263 21.6426 58.8919 21.554 59.1523 21.377C59.3294 21.2624 60.0117 20.7103 61.1992 19.7207C62.3867 18.7311 63.0273 18.1895 63.1211 18.0957L64.793 16.127C64.9284 15.9603 65.0794 15.877 65.2461 15.877L66.7773 15.8301C66.8919 15.8301 66.9492 15.877 66.9492 15.9707ZM75.168 16.9551C75.168 18.3197 73.1836 19.4655 69.2148 20.3926C68.5273 21.1009 68.1836 21.6634 68.1836 22.0801C68.1836 22.4551 68.3607 22.6426 68.7148 22.6426C69.4753 22.6426 70.4961 22.179 71.7773 21.252C73.5169 19.9915 74.4701 19.3197 74.6367 19.2363C74.7513 19.2676 74.8086 19.3301 74.8086 19.4238C74.8086 19.4863 74.3607 19.8249 73.4648 20.4395C72.4232 21.1582 71.9023 21.5176 71.9023 21.5176C70.7148 22.4447 69.6523 22.9082 68.7148 22.9082C67.694 22.9082 67.1836 22.403 67.1836 21.3926C67.1836 20.0072 68.2305 18.5697 70.3242 17.0801C69.4701 17.6217 68.194 18.4342 66.4961 19.5176L66.3867 19.5645C66.293 19.554 66.2461 19.4967 66.2461 19.3926C66.2461 19.3405 66.2617 19.2884 66.293 19.2363C67.9909 17.9967 69.6211 17.0645 71.1836 16.4395C71.3711 16.377 71.6471 16.278 72.0117 16.1426C72.9284 15.7676 73.6003 15.5801 74.0273 15.5801C74.7878 15.5801 75.168 16.0384 75.168 16.9551ZM74.4336 16.4082C74.4336 16.0645 74.2826 15.8926 73.9805 15.8926C73.4388 15.8926 71.9753 17.2311 69.5898 19.9082C69.8503 19.9082 70.2305 19.7884 70.7305 19.5488L71.7617 19.0332C72.2617 18.7936 72.7982 18.4238 73.3711 17.9238C74.0794 17.2988 74.4336 16.7936 74.4336 16.4082ZM94.6992 19.377C94.6992 19.4082 94.6732 19.4447 94.6211 19.4863L91.5898 22.1113C91.0169 22.6009 90.4961 22.8457 90.0273 22.8457C89.2357 22.8457 88.8398 22.403 88.8398 21.5176C88.8398 21.1634 88.9805 20.8353 89.2617 20.5332L92.5586 17.0488C92.7357 16.8613 92.8242 16.6895 92.8242 16.5332C92.8242 16.3874 92.7253 16.3145 92.5273 16.3145C92.1211 16.3145 90.9128 17.2259 88.9023 19.0488C88.2773 19.6113 87.5898 20.3717 86.8398 21.3301C86.2044 22.1426 85.5742 22.9551 84.9492 23.7676L77.0898 33.502C76.9648 33.6582 76.8138 33.7415 76.6367 33.752L75.1211 33.8145C74.9961 33.8249 74.9336 33.7728 74.9336 33.6582C74.9336 33.4707 75.0378 33.2572 75.2461 33.0176L88.9805 16.627C89.2617 16.2936 89.6263 15.903 90.0742 15.4551C86.4388 18.2155 84.6107 19.5957 84.5898 19.5957C84.4753 19.5957 84.418 19.5384 84.418 19.4238C84.418 19.3613 84.4388 19.3145 84.4805 19.2832L90.4492 14.7363C91.2617 14.1113 92.0898 13.4238 92.9336 12.6738C93.1732 12.4655 93.3607 12.3613 93.4961 12.3613C93.5898 12.3613 93.6367 12.429 93.6367 12.5645C93.6367 12.7207 93.2669 13.2624 92.5273 14.1895L89.3242 18.2363L91.4023 16.502C91.9961 16.0124 92.5221 15.7676 92.9805 15.7676C93.6992 15.7676 94.0586 16.2624 94.0586 17.252C94.0586 17.554 93.9492 17.8249 93.7305 18.0645L90.418 21.5488C90.2409 21.7363 90.1523 21.9082 90.1523 22.0645C90.1523 22.2207 90.2409 22.2988 90.418 22.2988C90.7305 22.2988 91.4492 21.7988 92.5742 20.7988C93.7513 19.7676 94.3971 19.2363 94.5117 19.2051C94.6367 19.2155 94.6992 19.2728 94.6992 19.377ZM102.355 19.3145C102.355 19.4811 101.98 19.8092 101.23 20.2988C100.991 20.4551 100.694 20.5332 100.34 20.5332C98.6419 22.179 97.2148 23.002 96.0586 23.002C95.0169 23.002 94.4961 22.5228 94.4961 21.5645C94.4961 20.2832 95.4284 18.8926 97.293 17.3926C96.793 17.6634 96.4284 17.877 96.1992 18.0332C95.7513 18.4811 95.2096 18.9707 94.5742 19.502C94.4909 19.4603 94.4492 19.403 94.4492 19.3301C94.4492 19.1842 94.7721 18.8353 95.418 18.2832C96.2409 17.5645 97.5013 16.8509 99.1992 16.1426C100.22 15.7259 100.892 15.5176 101.215 15.5176C101.913 15.5176 102.262 15.7572 102.262 16.2363C102.262 16.1217 102.199 16.4186 102.074 17.127C102.105 17.2103 102.121 17.304 102.121 17.4082C102.121 18.1374 101.658 18.9551 100.73 19.8613C100.678 19.9134 100.642 19.9603 100.621 20.002L100.668 20.0488C100.918 20.0488 101.204 19.903 101.527 19.6113C101.861 19.3197 102.074 19.1738 102.168 19.1738C102.293 19.1738 102.355 19.2207 102.355 19.3145ZM101.746 16.4082C101.746 16.0853 101.595 15.9238 101.293 15.9238C100.887 15.9238 99.8294 16.8145 98.1211 18.5957C96.4232 20.3665 95.5742 21.5072 95.5742 22.0176C95.5742 22.4238 95.7669 22.627 96.1523 22.627C96.5273 22.627 96.9232 22.5228 97.3398 22.3145C97.7253 22.1165 98.1836 21.8301 98.7148 21.4551C99.4128 20.9759 99.7669 20.6374 99.7773 20.4395C99.5273 20.4395 99.4023 20.252 99.4023 19.877C99.4023 19.3457 99.6471 18.7363 100.137 18.0488C100.647 17.3197 101.158 16.929 101.668 16.877C101.72 16.7624 101.746 16.6061 101.746 16.4082ZM117.668 8.48633C117.668 10.7467 115.908 13.752 112.387 17.502C111.543 18.304 110.288 19.5176 108.621 21.1426C109.142 20.8301 109.585 20.5488 109.949 20.2988C110.189 20.0592 110.574 19.7467 111.105 19.3613C111.137 19.2988 111.184 19.2363 111.246 19.1738C111.361 19.1947 111.418 19.2572 111.418 19.3613C111.418 19.3926 111.392 19.429 111.34 19.4707C108.35 21.8145 106.1 22.9863 104.59 22.9863C103.413 22.9863 102.824 22.4863 102.824 21.4863C102.824 20.2884 103.793 18.9134 105.73 17.3613C105.23 17.6426 104.652 18.0176 103.996 18.4863C103.423 18.8926 102.861 19.2467 102.309 19.5488C102.257 19.5488 102.199 19.4863 102.137 19.3613C102.137 19.3197 102.168 19.278 102.23 19.2363C102.47 19.0697 103.355 18.502 104.887 17.5332C105.408 17.1999 106.314 16.7311 107.605 16.127C108.46 15.7311 109.142 15.5332 109.652 15.5332C110.6 15.5332 111.074 15.9342 111.074 16.7363C111.074 17.3822 110.84 18.1165 110.371 18.9395C111.507 17.9186 112.35 17.1061 112.902 16.502C115.027 14.1374 116.402 12.028 117.027 10.1738C117.163 9.75716 117.23 9.19466 117.23 8.48633C117.23 7.15299 116.6 6.48633 115.34 6.48633C114.329 6.48633 113.262 7.18945 112.137 8.5957C111.053 9.94987 110.512 11.1478 110.512 12.1895C110.512 12.804 110.855 13.1113 111.543 13.1113C112.043 13.1113 112.574 12.8197 113.137 12.2363C113.616 11.7363 113.975 11.2103 114.215 10.6582C114.392 10.2311 114.579 9.74154 114.777 9.18945C114.882 8.91862 114.934 8.69987 114.934 8.5332C114.934 8.29362 114.845 8.11133 114.668 7.98633C114.491 7.85091 114.402 7.77799 114.402 7.76758C114.402 7.64258 114.449 7.56966 114.543 7.54883C115.043 7.62174 115.293 8.01237 115.293 8.7207C115.293 9.75195 114.923 10.7676 114.184 11.7676C113.392 12.8613 112.496 13.4082 111.496 13.4082C110.204 13.4082 109.559 12.7051 109.559 11.2988C109.559 10.2676 109.944 9.24674 110.715 8.23633C111.434 7.28841 112.293 6.59049 113.293 6.14258C113.751 5.94466 114.361 5.8457 115.121 5.8457C115.475 5.8457 115.882 5.93945 116.34 6.12695C117.225 6.48112 117.668 7.26758 117.668 8.48633ZM110.605 16.9551C110.605 16.278 110.387 15.9395 109.949 15.9395C109.272 15.9395 108.007 17.0384 106.152 19.2363C105.694 19.7051 105.059 20.4342 104.246 21.4238C104.09 21.653 104.012 21.8822 104.012 22.1113C104.012 22.5176 104.272 22.7207 104.793 22.7207C105.21 22.7207 105.861 22.429 106.746 21.8457C107.632 21.2624 108.449 20.554 109.199 19.7207C110.137 18.6686 110.605 17.7467 110.605 16.9551ZM119.59 16.7363C119.59 17.1947 119.486 17.6061 119.277 17.9707C119.017 18.3874 118.673 18.5957 118.246 18.5957C117.684 18.5957 117.402 18.3092 117.402 17.7363C117.402 16.9342 117.767 16.3197 118.496 15.8926C118.413 15.9238 118.298 15.9759 118.152 16.0488C117.725 16.278 116.861 17.0853 115.559 18.4707C114.35 19.752 113.527 20.6999 113.09 21.3145C112.892 21.5853 112.793 21.8145 112.793 22.002C112.793 22.3249 112.986 22.4863 113.371 22.4863C114.298 22.4863 115.491 21.9499 116.949 20.877C118.408 19.7936 119.132 19.252 119.121 19.252C119.163 19.252 119.21 19.2676 119.262 19.2988L119.309 19.4238C119.298 19.4238 118.876 19.7884 118.043 20.5176C116.21 22.1113 114.704 22.9082 113.527 22.9082C112.288 22.9082 111.668 22.4342 111.668 21.4863C111.668 20.278 112.637 18.877 114.574 17.2832C114.126 17.5228 113.574 17.9082 112.918 18.4395C112.033 19.1374 111.501 19.4863 111.324 19.4863C111.21 19.4863 111.152 19.429 111.152 19.3145C111.152 19.2624 111.189 19.2155 111.262 19.1738C112.668 18.1217 113.668 17.4186 114.262 17.0645C115.262 16.4707 116.408 15.9811 117.699 15.5957C117.908 15.5332 118.09 15.502 118.246 15.502C118.611 15.502 118.923 15.6165 119.184 15.8457C119.454 16.0749 119.59 16.3717 119.59 16.7363ZM134.059 19.377C134.059 19.429 134.033 19.4759 133.98 19.5176L130.918 22.127C130.366 22.6061 129.835 22.8457 129.324 22.8457C128.553 22.8457 128.168 22.4134 128.168 21.5488C128.168 21.1947 128.314 20.8665 128.605 20.5645L131.887 17.0801C132.064 16.8926 132.152 16.7155 132.152 16.5488C132.152 16.4134 132.053 16.3457 131.855 16.3457C131.449 16.3457 130.215 17.2988 128.152 19.2051C127.736 19.5801 126.694 20.6947 125.027 22.5488C124.882 22.7155 124.73 22.7988 124.574 22.7988L123.059 22.8457C122.913 22.8457 122.84 22.7884 122.84 22.6738C122.84 22.5176 122.954 22.3145 123.184 22.0645L127.684 17.1426C127.861 16.9551 127.949 16.778 127.949 16.6113C127.949 16.4759 127.892 16.4082 127.777 16.4082C127.663 16.4082 127.507 16.4395 127.309 16.502C127.225 16.5332 126.121 17.4082 123.996 19.127C123.496 19.5332 122.939 20.0853 122.324 20.7832C121.814 21.3665 121.303 21.9551 120.793 22.5488C120.658 22.7051 120.501 22.7884 120.324 22.7988L118.824 22.8457C118.699 22.8457 118.637 22.7988 118.637 22.7051C118.637 22.5905 118.684 22.4707 118.777 22.3457C118.871 22.2207 118.928 22.127 118.949 22.0645L123.434 17.1426C123.611 16.9447 123.699 16.7676 123.699 16.6113C123.699 16.4655 123.611 16.3926 123.434 16.3926C123.1 16.3926 122.34 16.9186 121.152 17.9707C119.975 19.0228 119.34 19.5488 119.246 19.5488C119.142 19.5072 119.09 19.4551 119.09 19.3926C119.09 19.3405 119.116 19.2936 119.168 19.252L122.293 16.5801C122.866 16.0801 123.397 15.8301 123.887 15.8301C124.647 15.8301 125.027 16.2676 125.027 17.1426C125.027 17.5384 124.85 17.9134 124.496 18.2676L126.543 16.5801C127.137 16.0801 127.663 15.8301 128.121 15.8301C128.892 15.8301 129.277 16.2676 129.277 17.1426C129.277 17.4342 129.168 17.7259 128.949 18.0176L130.73 16.5332C131.324 16.0332 131.855 15.7832 132.324 15.7832C133.053 15.7832 133.418 16.2676 133.418 17.2363C133.418 17.5592 133.303 17.8405 133.074 18.0801L129.746 21.5645C129.579 21.752 129.496 21.9342 129.496 22.1113C129.496 22.2155 129.564 22.2676 129.699 22.2676C130.064 22.2676 130.595 21.9707 131.293 21.377L133.762 19.252C133.793 19.2207 133.829 19.2051 133.871 19.2051C133.996 19.2051 134.059 19.2624 134.059 19.377ZM150.777 5.67383C150.777 5.78841 150.762 5.89779 150.73 6.00195C150.355 7.25195 149.465 8.4707 148.059 9.6582C147.454 10.179 146.189 11.0749 144.262 12.3457C143.887 12.554 143.371 12.903 142.715 13.3926C142.496 13.6634 142.178 14.0645 141.762 14.5957C140.762 15.8145 139.272 17.653 137.293 20.1113C137.043 20.4134 136.689 20.8717 136.23 21.4863C136.126 21.6426 136.074 21.8092 136.074 21.9863C136.074 22.3092 136.251 22.4707 136.605 22.4707C137.199 22.4707 138.21 21.7728 139.637 20.377C139.501 20.2415 139.434 20.0749 139.434 19.877C139.434 19.3561 139.824 18.5801 140.605 17.5488C141.397 16.5072 142.038 15.9863 142.527 15.9863C142.913 15.9863 143.105 16.1478 143.105 16.4707C143.105 16.8249 142.866 17.377 142.387 18.127C142.001 18.7311 141.621 19.2363 141.246 19.6426C141.319 19.6738 141.397 19.6895 141.48 19.6895C141.595 19.6895 141.757 19.6113 141.965 19.4551C142.173 19.2988 142.309 19.2207 142.371 19.2207C142.423 19.2207 142.47 19.2363 142.512 19.2676L142.559 19.377C142.559 19.4186 142.538 19.4603 142.496 19.502C142.038 19.8978 141.767 20.127 141.684 20.1895C141.423 20.3665 141.085 20.4915 140.668 20.5645C140.376 20.627 140.158 20.6374 140.012 20.5957C138.866 21.929 137.876 22.6999 137.043 22.9082C136.908 22.9395 136.72 22.9551 136.48 22.9551C136.033 22.9551 135.647 22.8249 135.324 22.5645C135.001 22.304 134.84 21.9603 134.84 21.5332C134.84 20.9499 135.309 20.0749 136.246 18.9082C136.934 18.0957 137.621 17.2832 138.309 16.4707V16.4551L135.277 18.7207C134.788 19.0853 134.34 19.3613 133.934 19.5488C133.829 19.4863 133.777 19.4134 133.777 19.3301C133.777 19.2676 134.59 18.6686 136.215 17.5332C137.132 16.877 138.053 16.2259 138.98 15.5801C139.741 14.653 140.647 13.5592 141.699 12.2988C142.647 11.1842 143.569 10.0905 144.465 9.01758C145.361 7.93424 146.069 7.13737 146.59 6.62695C147.527 5.68945 148.376 5.07487 149.137 4.7832C149.564 4.61654 149.876 4.5332 150.074 4.5332C150.543 4.5332 150.777 4.91341 150.777 5.67383ZM150.402 5.36133C150.402 5.14258 150.293 5.0332 150.074 5.0332C149.012 5.0332 147.293 6.79883 144.918 10.3301C144.449 11.0072 143.84 11.8145 143.09 12.752C144.829 11.5749 145.996 10.752 146.59 10.2832C147.85 9.2832 148.84 8.25716 149.559 7.20508C150.121 6.39258 150.402 5.77799 150.402 5.36133ZM151.23 16.9551C151.23 18.3197 149.246 19.4655 145.277 20.3926C144.59 21.1009 144.246 21.6634 144.246 22.0801C144.246 22.4551 144.423 22.6426 144.777 22.6426C145.538 22.6426 146.559 22.179 147.84 21.252C149.579 19.9915 150.533 19.3197 150.699 19.2363C150.814 19.2676 150.871 19.3301 150.871 19.4238C150.871 19.4863 150.423 19.8249 149.527 20.4395C148.486 21.1582 147.965 21.5176 147.965 21.5176C146.777 22.4447 145.715 22.9082 144.777 22.9082C143.757 22.9082 143.246 22.403 143.246 21.3926C143.246 20.0072 144.293 18.5697 146.387 17.0801C145.533 17.6217 144.257 18.4342 142.559 19.5176L142.449 19.5645C142.355 19.554 142.309 19.4967 142.309 19.3926C142.309 19.3405 142.324 19.2884 142.355 19.2363C144.053 17.9967 145.684 17.0645 147.246 16.4395C147.434 16.377 147.71 16.278 148.074 16.1426C148.991 15.7676 149.663 15.5801 150.09 15.5801C150.85 15.5801 151.23 16.0384 151.23 16.9551ZM150.496 16.4082C150.496 16.0645 150.345 15.8926 150.043 15.8926C149.501 15.8926 148.038 17.2311 145.652 19.9082C145.913 19.9082 146.293 19.7884 146.793 19.5488L147.824 19.0332C148.324 18.7936 148.861 18.4238 149.434 17.9238C150.142 17.2988 150.496 16.7936 150.496 16.4082ZM161.934 16.0801C161.934 16.2467 161.819 16.4499 161.59 16.6895L157.074 21.6426C156.887 21.8613 156.793 22.0436 156.793 22.1895C156.793 22.3145 156.871 22.377 157.027 22.377C157.09 22.377 157.236 22.3457 157.465 22.2832C157.6 22.252 158.647 21.3978 160.605 19.7207C160.783 19.554 160.991 19.3717 161.23 19.1738C161.355 19.2051 161.418 19.2676 161.418 19.3613C161.408 19.3822 161.392 19.403 161.371 19.4238C161.194 19.6217 160.84 19.9551 160.309 20.4238C159.84 20.8197 159.147 21.4082 158.23 22.1895C157.668 22.6686 157.1 22.9082 156.527 22.9082C156.215 22.9082 155.96 22.778 155.762 22.5176C155.574 22.2572 155.48 21.9655 155.48 21.6426C155.48 21.3197 155.829 20.7467 156.527 19.9238C156.309 19.8509 155.975 19.8145 155.527 19.8145C155.038 19.8145 154.595 19.877 154.199 20.002L152.043 22.502C151.908 22.6582 151.757 22.7363 151.59 22.7363L150.074 22.8145C149.918 22.8249 149.84 22.7676 149.84 22.6426C149.84 22.4967 149.965 22.2884 150.215 22.0176L154.699 17.0801C154.876 16.8822 154.965 16.7051 154.965 16.5488C154.965 16.4863 154.944 16.429 154.902 16.377C154.829 16.3457 154.762 16.3301 154.699 16.3301C154.335 16.3301 153.6 16.8457 152.496 17.877C151.35 18.9186 150.736 19.4499 150.652 19.4707C150.538 19.4603 150.48 19.3978 150.48 19.2832C150.48 19.2207 151.507 18.2988 153.559 16.5176C154.121 16.028 154.678 15.7832 155.23 15.7832C155.543 15.7832 155.803 15.9238 156.012 16.2051C156.189 16.4655 156.277 16.7572 156.277 17.0801C156.277 17.4238 156.147 17.7467 155.887 18.0488L154.793 19.3145H154.965C155.954 19.3145 156.704 19.252 157.215 19.127L159.715 16.2207C159.85 16.0645 160.012 15.9811 160.199 15.9707L161.715 15.8926C161.861 15.8926 161.934 15.9551 161.934 16.0801ZM172.465 16.0801C172.465 16.2467 172.35 16.4499 172.121 16.6895L167.605 21.6426C167.418 21.8613 167.324 22.0436 167.324 22.1895C167.324 22.3145 167.402 22.377 167.559 22.377C167.621 22.377 167.767 22.3457 167.996 22.2832C168.132 22.252 169.178 21.3978 171.137 19.7207C171.314 19.554 171.522 19.3717 171.762 19.1738C171.887 19.2051 171.949 19.2676 171.949 19.3613C171.939 19.3822 171.923 19.403 171.902 19.4238C171.725 19.6217 171.371 19.9551 170.84 20.4238C170.371 20.8197 169.678 21.4082 168.762 22.1895C168.199 22.6686 167.632 22.9082 167.059 22.9082C166.746 22.9082 166.491 22.778 166.293 22.5176C166.105 22.2572 166.012 21.9655 166.012 21.6426C166.012 21.3197 166.361 20.7467 167.059 19.9238C166.84 19.8509 166.507 19.8145 166.059 19.8145C165.569 19.8145 165.126 19.877 164.73 20.002L162.574 22.502C162.439 22.6582 162.288 22.7363 162.121 22.7363L160.605 22.8145C160.449 22.8249 160.371 22.7676 160.371 22.6426C160.371 22.4967 160.496 22.2884 160.746 22.0176L165.23 17.0801C165.408 16.8822 165.496 16.7051 165.496 16.5488C165.496 16.4863 165.475 16.429 165.434 16.377C165.361 16.3457 165.293 16.3301 165.23 16.3301C164.866 16.3301 164.132 16.8457 163.027 17.877C161.882 18.9186 161.267 19.4499 161.184 19.4707C161.069 19.4603 161.012 19.3978 161.012 19.2832C161.012 19.2207 162.038 18.2988 164.09 16.5176C164.652 16.028 165.21 15.7832 165.762 15.7832C166.074 15.7832 166.335 15.9238 166.543 16.2051C166.72 16.4655 166.809 16.7572 166.809 17.0801C166.809 17.4238 166.678 17.7467 166.418 18.0488L165.324 19.3145H165.496C166.486 19.3145 167.236 19.252 167.746 19.127L170.246 16.2207C170.382 16.0645 170.543 15.9811 170.73 15.9707L172.246 15.8926C172.392 15.8926 172.465 15.9551 172.465 16.0801ZM182.293 15.9707C182.293 16.1686 182.189 16.377 181.98 16.5957L177.48 21.5645C177.293 21.7624 177.199 21.9395 177.199 22.0957C177.199 22.2207 177.272 22.2832 177.418 22.2832C177.741 22.2832 178.272 21.9811 179.012 21.377L181.668 19.1738C181.678 19.1634 181.72 19.1478 181.793 19.127C181.908 19.1478 181.965 19.2103 181.965 19.3145C181.965 19.3457 181.939 19.3822 181.887 19.4238L178.652 22.0957C178.069 22.5749 177.517 22.8145 176.996 22.8145C176.257 22.8145 175.887 22.3874 175.887 21.5332C175.887 21.2207 176.262 20.6165 177.012 19.7207C176.178 20.4603 174.975 21.4186 173.402 22.5957C173.173 22.7415 172.845 22.8145 172.418 22.8145C171.751 22.8145 171.418 22.3978 171.418 21.5645C171.418 21.1686 171.538 20.8301 171.777 20.5488L174.543 17.3613C172.658 18.7988 171.704 19.5176 171.684 19.5176C171.569 19.5176 171.512 19.4551 171.512 19.3301C171.512 19.2884 171.538 19.252 171.59 19.2207L175.762 15.9863C175.897 15.8822 176.47 15.8301 177.48 15.8301C177.678 15.8301 177.777 15.877 177.777 15.9707C177.777 16.1686 177.678 16.377 177.48 16.5957L173.512 20.9395C173.376 21.0853 173.309 21.2311 173.309 21.377C173.309 21.554 173.439 21.6426 173.699 21.6426C173.97 21.6426 174.236 21.554 174.496 21.377C174.673 21.2624 175.355 20.7103 176.543 19.7207C177.73 18.7311 178.371 18.1895 178.465 18.0957L180.137 16.127C180.272 15.9603 180.423 15.877 180.59 15.877L182.121 15.8301C182.236 15.8301 182.293 15.877 182.293 15.9707ZM197.73 6.01758C197.73 6.13216 197.715 6.24674 197.684 6.36133C197.382 7.48633 196.642 8.57487 195.465 9.62695C195.09 9.96029 194.012 10.7572 192.23 12.0176C191.876 12.278 191.543 12.5072 191.23 12.7051C190.741 13.0176 190.22 13.3665 189.668 13.752L188.012 15.8457C189.283 14.9915 190.324 14.5645 191.137 14.5645C191.928 14.5645 192.324 14.9499 192.324 15.7207C192.324 15.9082 192.288 16.0853 192.215 16.252C191.913 16.8874 191.402 17.3405 190.684 17.6113C190.465 17.6947 189.783 17.8457 188.637 18.0645C189.085 18.4186 189.309 18.7311 189.309 19.002C189.309 19.752 189.1 20.3092 188.684 20.6738C188.059 21.2363 187.678 21.6478 187.543 21.9082C187.48 22.0124 187.449 22.0905 187.449 22.1426C187.449 22.2676 187.533 22.3301 187.699 22.3301C188.022 22.3301 188.793 21.8092 190.012 20.7676C191.241 19.7155 191.897 19.1895 191.98 19.1895C192.074 19.1895 192.121 19.2467 192.121 19.3613C192.121 19.403 192.095 19.4447 192.043 19.4863C191.72 19.7884 191.21 20.2363 190.512 20.8301C190.022 21.278 189.251 21.8822 188.199 22.6426C187.928 22.7988 187.642 22.877 187.34 22.877C186.538 22.877 186.137 22.4447 186.137 21.5801C186.137 21.1634 186.46 20.6322 187.105 19.9863C187.762 19.3301 188.09 18.8926 188.09 18.6738C188.09 18.4238 187.954 18.2988 187.684 18.2988C187.277 18.2988 186.949 18.377 186.699 18.5332C186.699 18.5749 186.704 18.6426 186.715 18.7363C186.736 18.8197 186.746 18.8874 186.746 18.9395C186.746 19.2103 186.585 19.3457 186.262 19.3457C185.897 19.3457 185.689 19.153 185.637 18.7676C185.074 19.4447 184.257 20.4707 183.184 21.8457C183.059 22.0645 182.855 22.3509 182.574 22.7051C182.47 22.8092 182.033 22.8613 181.262 22.8613C180.783 22.8613 180.543 22.7155 180.543 22.4238C180.543 22.3092 180.6 22.1842 180.715 22.0488C181.277 21.4655 182.1 20.5645 183.184 19.3457C183.632 18.7624 184.335 17.9134 185.293 16.7988C183.001 18.6113 181.845 19.5176 181.824 19.5176C181.71 19.5176 181.652 19.4551 181.652 19.3301C181.652 19.2884 181.673 19.2467 181.715 19.2051C182.673 18.4967 184.09 17.4082 185.965 15.9395C186.142 15.7103 186.397 15.3874 186.73 14.9707C186.772 14.929 188.335 13.0697 191.418 9.39258C192.314 8.31966 193.027 7.52279 193.559 7.00195C194.496 6.07487 195.345 5.46029 196.105 5.1582C196.522 4.98112 196.835 4.89258 197.043 4.89258C197.501 4.89258 197.73 5.26758 197.73 6.01758ZM197.371 5.68945C197.371 5.50195 197.267 5.4082 197.059 5.4082C196.621 5.4082 195.991 5.78841 195.168 6.54883C195.001 6.70508 194.496 7.30924 193.652 8.36133C192.871 9.42383 191.673 11.002 190.059 13.0957C193.517 10.7832 195.684 8.93945 196.559 7.56445C196.673 7.38737 196.767 7.24674 196.84 7.14258C197.194 6.65299 197.371 6.16862 197.371 5.68945ZM190.684 15.3457C190.684 15.1895 190.559 15.1113 190.309 15.1113C190.142 15.1113 189.626 15.4134 188.762 16.0176C187.949 16.5697 187.132 17.3197 186.309 18.2676C186.632 18.0592 186.949 17.9342 187.262 17.8926C187.855 17.8197 188.178 17.778 188.23 17.7676C188.668 17.6634 189.121 17.403 189.59 16.9863C190.069 16.5697 190.408 16.1478 190.605 15.7207C190.658 15.627 190.684 15.502 190.684 15.3457ZM202.574 15.9707C202.574 16.1686 202.47 16.377 202.262 16.5957L197.762 21.5645C197.574 21.7624 197.48 21.9395 197.48 22.0957C197.48 22.2207 197.553 22.2832 197.699 22.2832C198.022 22.2832 198.553 21.9811 199.293 21.377L201.949 19.1738C201.96 19.1634 202.001 19.1478 202.074 19.127C202.189 19.1478 202.246 19.2103 202.246 19.3145C202.246 19.3457 202.22 19.3822 202.168 19.4238L198.934 22.0957C198.35 22.5749 197.798 22.8145 197.277 22.8145C196.538 22.8145 196.168 22.3874 196.168 21.5332C196.168 21.2207 196.543 20.6165 197.293 19.7207C196.46 20.4603 195.257 21.4186 193.684 22.5957C193.454 22.7415 193.126 22.8145 192.699 22.8145C192.033 22.8145 191.699 22.3978 191.699 21.5645C191.699 21.1686 191.819 20.8301 192.059 20.5488L194.824 17.3613C192.939 18.7988 191.986 19.5176 191.965 19.5176C191.85 19.5176 191.793 19.4551 191.793 19.3301C191.793 19.2884 191.819 19.252 191.871 19.2207L196.043 15.9863C196.178 15.8822 196.751 15.8301 197.762 15.8301C197.96 15.8301 198.059 15.877 198.059 15.9707C198.059 16.1686 197.96 16.377 197.762 16.5957L193.793 20.9395C193.658 21.0853 193.59 21.2311 193.59 21.377C193.59 21.554 193.72 21.6426 193.98 21.6426C194.251 21.6426 194.517 21.554 194.777 21.377C194.954 21.2624 195.637 20.7103 196.824 19.7207C198.012 18.7311 198.652 18.1895 198.746 18.0957L200.418 16.127C200.553 15.9603 200.704 15.877 200.871 15.877L202.402 15.8301C202.517 15.8301 202.574 15.877 202.574 15.9707Z" fill="#28682E"></path></svg> 