<?xml version="1.0" encoding="UTF-8"?> <svg xmlns="http://www.w3.org/2000/svg" width="144" height="20" viewBox="0 0 144 20" fill="none"><path d="M5.92886 2.36286C7.50753 1.44552 8.69153 1.33886 9.48086 2.04286C9.90753 2.42686 10.0249 2.77886 9.83286 3.09886C9.68353 3.31219 9.43819 3.32286 9.09686 3.13086C8.47819 2.78953 7.56086 3.02419 6.34486 3.83486C5.12886 4.62419 4.24353 5.57353 3.68886 6.68286C2.87819 8.17619 2.88886 9.71219 3.72086 11.2909C4.27553 12.3789 4.83019 13.1042 5.38486 13.4669C5.93953 13.8295 6.77153 14.0109 7.88086 14.0109C9.39553 14.0109 10.1315 14.2775 10.0889 14.8109C10.0675 15.0029 9.95019 15.2269 9.73686 15.4829C9.56619 15.6962 9.29953 15.8242 8.93686 15.8669C8.59553 15.9095 7.99819 15.9095 7.14486 15.8669C6.22753 15.8242 5.57686 15.7389 5.19286 15.6109C4.83019 15.4829 4.43553 15.2162 4.00886 14.8109C3.30486 14.1495 2.69686 13.3495 2.18486 12.4109C1.67286 11.4509 1.36353 10.5655 1.25686 9.75486C1.06486 8.43219 1.38486 7.09886 2.21686 5.75486C3.07019 4.41086 4.30753 3.28019 5.92886 2.36286ZM19.2841 1.05086C20.4148 0.773526 21.1508 0.666859 21.4921 0.730858C21.8334 0.773525 22.0041 1.02953 22.0041 1.49886C22.0041 1.84019 21.8761 2.08553 21.6201 2.23486C21.3641 2.38419 20.7028 2.59753 19.6361 2.87486C17.8014 3.32286 16.4788 3.87753 15.6681 4.53886C14.8788 5.20019 14.4841 6.07486 14.4841 7.16286C14.4841 7.50419 14.5161 7.70686 14.5801 7.77086C14.6654 7.81353 14.8361 7.76019 15.0921 7.61086C15.8174 7.24819 16.7668 7.20553 17.9401 7.48286C19.1134 7.76019 19.8708 8.20819 20.2121 8.82686C20.6174 9.57353 20.6494 10.6509 20.3081 12.0589C19.9668 13.4455 19.4441 14.4162 18.7401 14.9709C18.0788 15.4829 17.3428 15.8349 16.5321 16.0269C15.7428 16.2189 15.0814 16.1975 14.5481 15.9629C13.7801 15.6429 13.2788 15.1095 13.0441 14.3629C12.8308 13.6162 12.7241 12.1229 12.7241 9.88286C12.7241 7.25886 12.8948 5.52019 13.2361 4.66686C13.5774 3.79219 14.3988 3.03486 15.7001 2.39486C16.8948 1.77619 18.0894 1.32819 19.2841 1.05086ZM18.3881 9.56286C17.5561 9.13619 16.3721 9.16819 14.8361 9.65886L13.7801 10.0109L13.9721 11.6749C14.1214 13.0829 14.3561 13.9575 14.6761 14.2989C15.0174 14.6189 15.6574 14.6295 16.5961 14.3309C17.8121 13.9255 18.5588 12.8802 18.8361 11.1949C18.9214 10.6615 18.9321 10.2989 18.8681 10.1069C18.8254 9.89353 18.6654 9.71219 18.3881 9.56286ZM25.6864 4.53886C26.177 4.06953 26.5717 3.77086 26.8704 3.64286C27.1904 3.51486 27.7024 3.45086 28.4064 3.45086C30.1557 3.45086 31.4784 3.96286 32.3744 4.98686C32.673 5.30686 32.9077 5.45619 33.0784 5.43486C33.249 5.39219 33.665 5.12553 34.3264 4.63486C34.369 4.59219 34.401 4.56019 34.4224 4.53886C36.3637 3.06686 38.0064 3.01353 39.3504 4.37886C40.6517 5.70153 40.6304 7.51486 39.2864 9.81886C38.305 11.5042 37.0037 12.9655 35.3824 14.2029C33.761 15.4189 32.513 15.8669 31.6384 15.5469C30.913 15.2695 29.8037 14.4055 28.3104 12.9549C26.8384 11.4829 25.8784 10.3202 25.4304 9.46686C24.8544 8.29353 24.5877 7.34419 24.6304 6.61886C24.673 5.89353 25.025 5.20019 25.6864 4.53886ZM30.1984 5.43486C29.7077 5.20019 29.0997 5.08286 28.3744 5.08286C27.6704 5.06153 27.137 5.16819 26.7744 5.40286C26.3904 5.61619 26.209 6.12819 26.2304 6.93886C26.2517 7.72819 26.4544 8.45353 26.8384 9.11486C27.0944 9.54153 28.0224 10.4695 29.6224 11.8989C31.2224 13.3282 32.2144 14.1175 32.5984 14.2669C32.769 14.3309 33.6544 13.5842 35.2544 12.0269C37.1957 10.1495 38.3157 8.52819 38.6144 7.16286C38.8277 6.18153 38.4757 5.69086 37.5584 5.69086C37.0464 5.69086 36.4917 5.85086 35.8944 6.17086C35.297 6.46953 34.7424 6.88553 34.2304 7.41886C33.697 7.99486 33.2277 8.26153 32.8224 8.21886C32.4384 8.15486 32.0544 7.76019 31.6704 7.03486C31.4997 6.69353 31.2757 6.37353 30.9984 6.07486C30.721 5.75486 30.4544 5.54153 30.1984 5.43486ZM46.2389 4.57086C46.7082 4.22953 47.6362 4.09086 49.0229 4.15486C49.9189 4.21886 50.5269 4.31486 50.8469 4.44286C51.1882 4.57086 51.5615 4.85886 51.9669 5.30686C52.3722 5.77619 52.6282 6.18153 52.7349 6.52286C52.8415 6.86419 52.8949 7.49353 52.8949 8.41086C52.8949 10.4589 52.4149 12.0162 51.4549 13.0829C50.4949 14.1282 49.1082 14.6509 47.2949 14.6509H45.8549V16.3789C45.8549 17.4455 45.7802 18.1709 45.6309 18.5549C45.5029 18.9389 45.2575 19.1309 44.8949 19.1309C44.5109 19.1309 44.2549 18.9282 44.1269 18.5229C43.9989 18.1175 43.9349 17.3069 43.9349 16.0909C43.9349 14.7895 43.7749 13.9895 43.4549 13.6909C43.0709 13.3922 42.9002 12.8909 42.9429 12.1869C42.9642 11.7389 43.0922 11.5149 43.3269 11.5149C43.3482 11.5362 43.3802 11.5469 43.4229 11.5469C43.7429 11.6749 43.9775 11.0029 44.1269 9.53086C44.2122 8.84819 44.2549 8.05886 44.2549 7.16286C44.2549 5.49886 44.5002 4.70953 44.9909 4.79486C45.0549 4.79486 45.1189 4.81619 45.1829 4.85886C45.4175 5.00819 45.7695 4.91219 46.2389 4.57086ZM50.2709 6.20286C49.6949 5.79753 49.0015 5.62686 48.1909 5.69086C47.4015 5.75486 46.7829 6.02153 46.3349 6.49086C45.9509 6.83219 45.7162 7.19486 45.6309 7.57886C45.5669 7.94153 45.5349 8.75219 45.5349 10.0109V12.7309H46.7829C48.2762 12.7309 49.3429 12.3895 49.9829 11.7069C50.6442 11.0242 50.9749 9.88286 50.9749 8.28286C50.9749 7.64286 50.9215 7.18419 50.8149 6.90686C50.7295 6.62953 50.5482 6.39486 50.2709 6.20286ZM69.2089 4.73086C69.6355 4.53886 70.4569 4.44286 71.6729 4.44286C72.6329 4.42153 73.3689 4.53886 73.8809 4.79486C74.4142 5.05086 74.5955 5.38153 74.4249 5.78686C74.3395 5.97886 74.1475 6.10686 73.8489 6.17086C73.5502 6.23486 73.0062 6.25619 72.2169 6.23486C70.8729 6.19219 69.9555 6.32019 69.4649 6.61886C69.0809 6.83219 68.8675 7.13086 68.8249 7.51486C68.7822 7.87753 68.8142 9.07219 68.9209 11.0989C69.0915 13.8082 69.0382 15.2589 68.7609 15.4509C68.2275 15.7922 67.8435 15.4189 67.6089 14.3309C67.4595 13.5629 67.3529 12.3789 67.2889 10.7789C67.2035 8.88019 67.1822 7.70686 67.2249 7.25886C67.2675 6.78953 67.4595 6.34153 67.8009 5.91486C68.3342 5.25353 68.8035 4.85886 69.2089 4.73086ZM78.1551 4.53886C78.6458 4.06953 79.0404 3.77086 79.3391 3.64286C79.6591 3.51486 80.1711 3.45086 80.8751 3.45086C82.6244 3.45086 83.9471 3.96286 84.8431 4.98686C85.1418 5.30686 85.3764 5.45619 85.5471 5.43486C85.7178 5.39219 86.1338 5.12553 86.7951 4.63486C86.8378 4.59219 86.8698 4.56019 86.8911 4.53886C88.8324 3.06686 90.4751 3.01353 91.8191 4.37886C93.1204 5.70153 93.0991 7.51486 91.7551 9.81886C90.7738 11.5042 89.4724 12.9655 87.8511 14.2029C86.2298 15.4189 84.9818 15.8669 84.1071 15.5469C83.3818 15.2695 82.2724 14.4055 80.7791 12.9549C79.3071 11.4829 78.3471 10.3202 77.8991 9.46686C77.3231 8.29353 77.0564 7.34419 77.0991 6.61886C77.1418 5.89353 77.4938 5.20019 78.1551 4.53886ZM82.6671 5.43486C82.1764 5.20019 81.5684 5.08286 80.8431 5.08286C80.1391 5.06153 79.6058 5.16819 79.2431 5.40286C78.8591 5.61619 78.6778 6.12819 78.6991 6.93886C78.7204 7.72819 78.9231 8.45353 79.3071 9.11486C79.5631 9.54153 80.4911 10.4695 82.0911 11.8989C83.6911 13.3282 84.6831 14.1175 85.0671 14.2669C85.2378 14.3309 86.1231 13.5842 87.7231 12.0269C89.6644 10.1495 90.7844 8.52819 91.0831 7.16286C91.2964 6.18153 90.9444 5.69086 90.0271 5.69086C89.5151 5.69086 88.9604 5.85086 88.3631 6.17086C87.7658 6.46953 87.2111 6.88553 86.6991 7.41886C86.1658 7.99486 85.6964 8.26153 85.2911 8.21886C84.9071 8.15486 84.5231 7.76019 84.1391 7.03486C83.9684 6.69353 83.7444 6.37353 83.4671 6.07486C83.1898 5.75486 82.9231 5.54153 82.6671 5.43486ZM99.3156 4.89086C99.9983 4.57086 100.542 4.41086 100.948 4.41086C101.438 4.41086 101.95 4.65619 102.484 5.14686C103.038 5.61619 103.316 6.06419 103.316 6.49086C103.316 6.96019 103.156 7.25886 102.836 7.38686C102.516 7.51486 102.249 7.37619 102.036 6.97086C101.63 6.24553 100.98 6.10686 100.084 6.55486C99.2089 7.00286 98.4729 7.83486 97.8756 9.05086C97.4489 9.92553 97.2676 10.8535 97.3316 11.8349C97.4169 12.7949 97.7049 13.4135 98.1956 13.6909C98.6223 13.9255 99.4863 14.0322 100.788 14.0109C102.089 13.9895 102.921 13.8615 103.284 13.6269C103.668 13.3922 104.03 13.3495 104.372 13.4989C104.734 13.6269 104.916 13.8935 104.916 14.2989C104.916 15.6002 102.953 16.1655 99.0276 15.9949C98.2169 15.9522 97.4596 15.5895 96.7556 14.9069C96.0729 14.2242 95.6463 13.4242 95.4756 12.5069C95.2623 11.1415 95.5396 9.69086 96.3076 8.15486C97.0756 6.59753 98.0783 5.50953 99.3156 4.89086ZM113.425 5.01886C113.617 4.82686 113.798 4.74153 113.969 4.76286C114.139 4.76286 114.225 4.85886 114.225 5.05086C114.225 5.26419 114.854 5.37086 116.113 5.37086C117.073 5.37086 117.766 5.49886 118.193 5.75486C118.641 5.98953 118.779 6.33086 118.609 6.77886C118.545 6.94953 118.363 7.05619 118.065 7.09886C117.766 7.14153 117.243 7.13086 116.497 7.06686L114.577 6.87486L114.481 11.0029C114.417 12.9869 114.353 14.1815 114.289 14.5869C114.225 14.9709 114.022 15.1842 113.681 15.2269C113.425 15.2695 113.222 15.2375 113.073 15.1309C112.945 15.0029 112.838 14.7682 112.753 14.4269C112.689 14.0642 112.657 13.5522 112.657 12.8909C112.657 12.2295 112.667 11.3762 112.689 10.3309L112.817 6.90686L111.249 7.13086C110.417 7.21619 109.585 7.34419 108.753 7.51486C108.155 7.62153 107.782 7.50419 107.633 7.16286C107.462 6.73619 107.558 6.42686 107.921 6.23486C108.283 6.04286 109.158 5.85086 110.545 5.65886C112.23 5.42419 113.19 5.21086 113.425 5.01886ZM125.479 5.27486C127.207 4.42153 128.679 4.51753 129.895 5.56286C130.513 6.07486 130.844 6.67219 130.887 7.35486C130.951 8.03753 130.716 8.62419 130.183 9.11486C129.863 9.41353 129.105 9.77619 127.911 10.2029C126.716 10.6082 125.447 10.9602 124.103 11.2589C123.74 11.3442 123.495 11.4615 123.367 11.6109C123.26 11.7602 123.207 12.0269 123.207 12.4109C123.207 12.8375 123.26 13.1042 123.367 13.2109C123.495 13.3175 123.793 13.3709 124.263 13.3709C125.009 13.3709 126.151 13.2215 127.687 12.9229C128.903 12.6882 129.735 12.6135 130.183 12.6989C130.652 12.7842 130.887 13.0722 130.887 13.5629C130.887 14.1815 129.116 14.6082 125.575 14.8429C123.783 14.9709 122.62 14.9282 122.087 14.7149C121.553 14.4802 121.287 13.9362 121.287 13.0829C121.287 11.6322 121.713 10.1069 122.567 8.50686C123.441 6.88553 124.412 5.80819 125.479 5.27486ZM128.903 6.71486C128.455 6.26686 127.665 6.28819 126.535 6.77886C126.065 6.99219 125.521 7.44019 124.903 8.12286C124.305 8.80553 124.092 9.23219 124.263 9.40286C124.348 9.50953 124.924 9.43486 125.991 9.17886C127.057 8.90153 127.868 8.62419 128.423 8.34686C129.361 7.85619 129.521 7.31219 128.903 6.71486ZM136.705 0.858858C137.025 0.666858 137.835 0.581525 139.137 0.602858C140.459 0.602858 141.185 0.698858 141.313 0.890858C141.654 1.44552 141.291 1.82952 140.225 2.04286C139.798 2.12819 139.286 2.17086 138.689 2.17086C137.921 2.17086 137.377 2.13886 137.057 2.07486C136.737 1.98953 136.534 1.85086 136.449 1.65886C136.321 1.29619 136.406 1.02953 136.705 0.858858ZM141.473 5.85086C141.707 5.29619 142.006 5.05086 142.369 5.11486C142.603 5.15753 142.763 5.44553 142.849 5.97886C142.934 6.49086 143.03 7.70686 143.137 9.62686C143.35 13.6162 143.147 15.6109 142.529 15.6109C142.102 15.5895 141.793 15.3762 141.601 14.9709C141.409 14.5655 141.281 13.8615 141.217 12.8589C141.153 11.7282 141.057 11.1522 140.929 11.1309C140.886 11.1095 140.843 11.1415 140.801 11.2269C140.566 11.6535 139.563 12.5495 137.793 13.9149C136.022 15.2589 134.987 15.9309 134.689 15.9309C134.155 15.9309 133.814 15.5255 133.665 14.7149C133.515 13.9042 133.505 12.3469 133.633 10.0429C133.782 6.92819 134.038 5.37086 134.401 5.37086C134.486 5.37086 134.571 5.41353 134.657 5.49886C134.763 5.58419 134.881 7.02419 135.009 9.81886L135.169 13.9469L136.961 12.6349C138.113 11.7815 139.115 11.1202 139.969 10.6509C140.523 10.3522 140.854 10.0962 140.961 9.88286C141.089 9.64819 141.153 9.13619 141.153 8.34686C141.153 7.28019 141.259 6.44819 141.473 5.85086Z" fill="#253758"></path></svg> 