<?xml version="1.0" encoding="UTF-8"?> <svg xmlns="http://www.w3.org/2000/svg" width="84" height="32" viewBox="0 0 84 32" fill="none"><path d="M6.01214 25.6675C5.75614 25.7315 4.98814 25.5395 4.86014 25.1555C4.79614 24.8355 4.73214 24.5795 4.73214 24.3235C4.66814 23.1715 4.66814 22.0195 4.79614 20.9955C4.92414 19.7155 5.18014 18.4995 5.50014 17.3475C5.94814 15.4915 6.65214 13.6995 7.48414 11.9715V11.9075C7.48414 11.8435 7.48414 11.6515 7.74014 11.5875C7.74014 11.4595 7.74014 11.3315 7.80414 11.2035C8.31614 9.85945 8.82814 8.77145 9.40414 7.61945C9.46814 7.55545 9.53214 7.23545 9.59614 6.97945C9.27614 7.04345 9.08414 7.17145 8.95614 7.36345C7.67614 8.64345 6.39614 10.0515 4.86014 11.4595L3.38814 12.8675C3.06814 13.3795 2.55614 13.5715 1.98014 13.6995C1.46814 13.6995 1.21214 13.5075 0.956141 13.2515C0.764141 12.9955 0.444141 13.0595 0.444141 12.6115C1.27614 11.9075 1.98014 10.9475 2.94014 10.4355C3.13214 10.3075 3.26014 10.1795 3.38814 9.85945C3.64414 9.73145 3.83614 9.34745 4.15614 9.47545C4.47614 9.21945 4.79614 8.83545 4.98814 8.57945C5.50014 8.25945 6.01214 7.68345 6.46014 7.36345C6.84414 7.04345 7.29214 6.97945 7.16414 6.46745C7.16414 6.33945 7.29214 6.27545 7.42014 6.21145L9.78814 4.16345C10.3641 3.58745 10.6201 3.65145 11.7721 4.16345C11.9641 4.22745 11.7081 4.35545 11.9641 4.54745C12.4121 4.86745 13.1161 5.25145 12.9881 5.76345C12.9241 6.08345 12.6681 6.27545 12.6041 6.53145C11.7721 7.87545 11.2601 9.34745 10.5561 10.6915C9.85214 12.0995 9.53214 13.5075 8.82814 14.7875C8.57214 15.2355 8.57214 15.6835 8.44414 16.1315C8.25214 16.6435 8.06014 16.8995 7.48414 17.3475C7.54814 17.4755 7.99614 17.6035 7.74014 17.7955C7.54814 18.0515 7.29214 18.0515 7.16414 18.3715V19.3315C7.16414 19.5235 6.97214 19.7155 7.10014 19.8435C7.35614 20.0995 6.97214 20.2275 7.03614 20.4195C7.10014 20.5475 6.84414 20.7395 6.78014 20.8675C6.71614 20.9315 6.65214 20.9955 6.39614 20.9955C6.78014 21.6355 6.46014 22.1475 6.58814 22.7235C6.78014 23.1715 6.33214 23.6195 6.52414 24.0675C6.26814 24.3235 6.33214 24.5795 6.46014 24.8355C6.46014 25.1555 6.14014 25.5395 6.01214 25.6675ZM5.37214 19.4595C5.50014 19.3955 5.69214 19.3955 5.75614 19.1395C5.75614 19.0755 6.58814 16.9635 6.65214 16.6435C6.71614 16.1955 6.90814 15.8115 6.78014 15.2995C6.78014 15.4275 6.71614 15.5555 6.71614 15.8755C6.65214 16.2595 6.26814 16.7075 6.26814 16.3875V15.6195C6.26814 15.6835 6.20414 15.6835 6.20414 15.8755C6.26814 15.6835 5.56414 18.8835 5.37214 19.4595ZM5.30814 21.1875L5.37214 21.1235C5.69214 20.7395 5.69214 20.6115 5.37214 20.1635L5.30814 21.1875ZM27.7756 11.7795C28.7996 11.8435 29.0556 12.4835 28.7996 13.3155C28.4156 14.2755 28.1596 14.9155 27.9676 15.4915L27.0076 17.8595L26.1756 20.0355C25.7276 20.4195 25.4076 20.9315 25.0236 21.3795L25.2796 21.7635C25.3436 21.8915 25.3436 22.0835 25.2796 22.1475C25.1516 22.4035 25.0236 22.5315 24.8956 22.6595C24.6396 22.9155 24.7036 22.9155 24.8956 23.1075L24.7676 23.1715C24.3196 23.1715 24.3196 23.5555 24.2556 23.7475C24.3196 23.8755 24.3836 23.8755 24.7036 24.0035C24.3836 24.3875 24.2556 24.7715 24.1276 25.2835C23.9356 25.9875 23.4876 26.4995 23.4236 27.3315C23.2316 27.7155 23.1036 28.2915 22.8476 28.8035C22.7196 29.5075 22.5276 30.2755 22.5916 31.0435C22.5916 31.3635 22.2716 31.5555 22.0156 31.5555C21.3756 31.2995 21.1836 31.3635 20.9276 30.5315C20.7996 29.6995 20.7996 28.9955 20.8636 28.2275C21.3116 26.7555 21.5676 25.4755 22.0156 24.1315C22.1436 23.7475 22.3356 23.2355 22.5916 22.9155V22.9795C22.7836 22.2755 23.1036 20.9315 23.4236 20.4195C23.4876 21.0595 23.0396 22.4675 22.6556 23.0435C22.6556 23.1715 22.6556 23.1715 22.5916 23.2355C22.3356 24.0035 22.0156 24.7075 21.8876 25.4755C21.6316 26.4995 21.2476 27.3315 21.3116 28.6115C21.6316 27.6515 22.0796 26.7555 22.1436 26.0515C22.7836 23.8755 23.2316 22.0195 23.9356 19.8435L23.8716 19.6515V19.5235C23.1036 19.5875 21.1196 19.5875 20.5436 19.5875C19.1996 19.5875 18.2396 19.7795 17.1516 19.7155C16.7036 19.7155 15.4876 19.8435 15.0396 19.9075C14.5276 19.9715 14.1436 19.5875 13.8876 19.2675C13.8876 19.2035 13.8236 19.0755 13.8236 18.9475C13.6956 18.6915 13.6316 18.4355 13.6316 18.1795C13.8876 17.6675 14.2076 17.1555 14.5276 16.5795C14.9116 15.7475 15.1036 14.9795 15.6796 14.1475C16.1276 13.5075 16.5116 12.4195 16.7036 12.1635L17.0876 12.0995C17.0236 11.8435 17.0236 11.6515 17.1516 11.5235C17.3436 11.2675 17.3436 10.8835 17.4716 10.7555C17.4716 10.6275 17.6636 10.3715 17.7276 10.3075C17.8556 10.1795 18.0476 9.92345 18.1756 9.47545C18.4316 9.47545 18.3676 9.21945 18.4316 9.15545C18.6236 8.96345 18.5596 8.83545 18.6236 8.70745C18.5596 8.25945 18.9436 7.87545 19.0076 7.42745C19.6476 6.27545 20.0316 5.82745 20.3516 4.80345L21.1196 3.77945C21.5036 3.71545 22.2076 3.65145 22.5916 3.90745C22.9116 4.09945 22.9116 4.67545 22.8476 5.31545C22.2716 6.01945 22.2716 6.33945 21.8236 7.10745C21.5036 7.81145 21.1836 8.57945 20.7996 9.28345C20.2876 10.1155 19.1356 12.5475 18.9436 13.0595C18.7516 13.3795 18.4956 13.6355 18.3036 14.0835C18.1756 14.4035 17.8556 14.7875 17.7276 15.0435C17.5996 15.1075 17.5356 15.1715 17.5356 15.2355C17.5996 15.9395 16.7036 16.8995 16.3196 17.6035V17.6675C17.0876 17.6675 18.1756 17.7315 19.1356 17.6675C19.8396 17.6675 20.6716 17.6035 22.6556 17.6035C22.9116 17.6035 23.6796 17.6675 24.3836 17.6035L24.4476 17.4115C25.2156 15.1075 25.7916 13.6355 26.6236 11.6515C27.0716 11.7155 27.3916 11.7795 27.7756 11.7795ZM23.4876 25.6675C23.4876 25.6675 24.0636 24.5155 24.0636 24.4515L23.9356 24.3875C23.8716 24.3875 23.4236 25.6035 23.4236 25.6675H23.4876ZM37.5416 18.3075C36.8376 18.3075 36.5816 17.4755 36.7736 17.2835C37.1576 16.5795 37.2216 15.8115 37.6056 15.2995C37.9896 14.9155 38.3096 14.5955 38.9496 14.7875C39.4616 14.7875 39.5896 14.8515 39.9096 14.9155C40.2296 14.9155 40.4216 15.0435 40.6776 15.3635C40.7416 15.8115 40.7416 16.1315 40.3576 16.6435C39.9096 17.4755 40.0376 17.3475 39.5256 17.7955C38.9496 18.4355 38.0536 18.5635 37.5416 18.3075ZM35.4936 26.7555C34.7896 26.7555 34.5336 25.9235 34.7256 25.7315C35.1096 25.0275 35.1736 24.2595 35.5576 23.7475C35.9416 23.3635 36.2616 23.0435 36.9016 23.2355C37.4136 23.2355 37.5416 23.2995 37.8616 23.3635C38.1816 23.3635 38.3736 23.4915 38.6296 23.8115C38.6936 24.2595 38.6936 24.5795 38.3096 25.0915C37.8616 25.9235 37.9896 25.7955 37.4776 26.2435C36.9016 26.8835 36.0056 27.0115 35.4936 26.7555ZM59.9836 4.99545C62.5436 4.99545 64.0796 6.46745 64.0796 9.21945C64.0796 9.73145 64.0156 10.3075 63.8876 10.8835L63.6956 11.8435C63.6956 12.0995 63.6956 12.2915 63.3116 12.6115C63.3756 12.5475 63.6316 12.5475 63.5676 12.7395C63.3116 13.8275 62.6076 14.8515 62.4156 16.0035C62.4156 16.1315 62.3516 16.3235 62.3516 16.5795C62.0956 16.8995 61.9036 17.2195 61.7756 17.4755C61.7116 18.1155 61.3276 18.6915 60.8796 19.2675L59.5996 20.6115H59.2156C59.1516 20.6115 58.7676 21.4435 58.7036 21.5715C58.8316 21.5715 58.7676 21.6355 58.8316 21.5715C58.7676 21.9555 58.4476 22.4035 58.1276 22.7235C57.9996 22.9795 57.7436 23.3635 57.4876 23.6195C57.6156 23.9395 57.8076 23.6195 57.9356 23.6195C58.0636 23.4915 58.1916 23.4275 58.4476 23.2995C58.5116 23.4275 58.5116 23.4915 58.3196 23.5555C58.0636 24.0675 56.9116 24.3875 56.3996 24.8355C55.6316 25.4115 54.2876 25.7315 53.2636 25.7315C52.4316 25.7315 51.5356 25.5395 50.7676 25.0915C49.5516 24.4515 48.3356 22.2755 48.2076 20.2915C48.1436 19.4595 48.0796 18.6275 48.0796 17.8595C48.0796 14.7235 48.7196 11.5235 50.6396 7.61945C51.5356 5.63545 53.1996 3.33145 54.9276 1.85945C55.3116 1.47545 55.8876 1.28345 56.3996 1.09145C56.7836 0.963451 57.4876 1.09145 58.1916 1.34745C58.5116 1.60345 58.5116 2.05145 58.1276 2.05145C57.4876 2.24345 56.9756 2.69145 56.3996 3.26745C54.2236 5.31545 51.7916 9.53945 50.9596 13.1235C50.5756 14.8515 50.2556 16.4515 50.2556 18.2435C50.2556 18.9475 50.2556 19.6515 50.3836 20.4195C50.8316 23.8115 53.1996 24.6435 55.5036 22.8515C59.5996 19.6515 64.3356 6.65945 59.9836 6.65945C58.8316 6.65945 57.0396 8.25945 55.8876 10.1155C55.8236 10.3715 55.6316 10.4355 54.7356 10.4355C54.6076 10.4355 54.2876 10.1795 54.2876 9.98745C54.2876 9.79545 54.2876 9.34745 54.4156 9.09145C54.8636 8.06745 55.2476 7.61945 55.8236 6.97945C57.1676 5.63545 58.3836 4.99545 59.9836 4.99545ZM62.5436 12.9955C62.5436 12.8675 62.5436 12.7395 62.4156 12.6115C62.7996 11.9715 62.9276 11.0755 63.1196 10.1795L62.7996 10.0515C62.4156 11.2035 62.4796 12.3555 61.9676 13.6355C61.3276 15.2355 60.5596 17.0275 59.7276 18.5635C59.6636 18.6915 59.5996 18.7555 59.9836 18.8835C60.0476 18.6915 60.2396 18.6275 60.4316 18.3715C61.1356 16.8995 61.7756 15.3635 62.4156 13.6355C62.4796 13.4435 62.5436 13.2515 62.5436 12.9955ZM78.9836 4.99545C81.5436 4.99545 83.0796 6.46745 83.0796 9.21945C83.0796 9.73145 83.0156 10.3075 82.8876 10.8835L82.6956 11.8435C82.6956 12.0995 82.6956 12.2915 82.3116 12.6115C82.3756 12.5475 82.6316 12.5475 82.5676 12.7395C82.3116 13.8275 81.6076 14.8515 81.4156 16.0035C81.4156 16.1315 81.3516 16.3235 81.3516 16.5795C81.0956 16.8995 80.9036 17.2195 80.7756 17.4755C80.7116 18.1155 80.3276 18.6915 79.8796 19.2675L78.5996 20.6115H78.2156C78.1516 20.6115 77.7676 21.4435 77.7036 21.5715C77.8316 21.5715 77.7676 21.6355 77.8316 21.5715C77.7676 21.9555 77.4476 22.4035 77.1276 22.7235C76.9996 22.9795 76.7436 23.3635 76.4876 23.6195C76.6156 23.9395 76.8076 23.6195 76.9356 23.6195C77.0636 23.4915 77.1916 23.4275 77.4476 23.2995C77.5116 23.4275 77.5116 23.4915 77.3196 23.5555C77.0636 24.0675 75.9116 24.3875 75.3996 24.8355C74.6316 25.4115 73.2876 25.7315 72.2636 25.7315C71.4316 25.7315 70.5356 25.5395 69.7676 25.0915C68.5516 24.4515 67.3356 22.2755 67.2076 20.2915C67.1436 19.4595 67.0796 18.6275 67.0796 17.8595C67.0796 14.7235 67.7196 11.5235 69.6396 7.61945C70.5356 5.63545 72.1996 3.33145 73.9276 1.85945C74.3116 1.47545 74.8876 1.28345 75.3996 1.09145C75.7836 0.963451 76.4876 1.09145 77.1916 1.34745C77.5116 1.60345 77.5116 2.05145 77.1276 2.05145C76.4876 2.24345 75.9756 2.69145 75.3996 3.26745C73.2236 5.31545 70.7916 9.53945 69.9596 13.1235C69.5756 14.8515 69.2556 16.4515 69.2556 18.2435C69.2556 18.9475 69.2556 19.6515 69.3836 20.4195C69.8316 23.8115 72.1996 24.6435 74.5036 22.8515C78.5996 19.6515 83.3356 6.65945 78.9836 6.65945C77.8316 6.65945 76.0396 8.25945 74.8876 10.1155C74.8236 10.3715 74.6316 10.4355 73.7356 10.4355C73.6076 10.4355 73.2876 10.1795 73.2876 9.98745C73.2876 9.79545 73.2876 9.34745 73.4156 9.09145C73.8636 8.06745 74.2476 7.61945 74.8236 6.97945C76.1676 5.63545 77.3836 4.99545 78.9836 4.99545ZM81.5436 12.9955C81.5436 12.8675 81.5436 12.7395 81.4156 12.6115C81.7996 11.9715 81.9276 11.0755 82.1196 10.1795L81.7996 10.0515C81.4156 11.2035 81.4796 12.3555 80.9676 13.6355C80.3276 15.2355 79.5596 17.0275 78.7276 18.5635C78.6636 18.6915 78.5996 18.7555 78.9836 18.8835C79.0476 18.6915 79.2396 18.6275 79.4316 18.3715C80.1356 16.8995 80.7756 15.3635 81.4156 13.6355C81.4796 13.4435 81.5436 13.2515 81.5436 12.9955Z" fill="#820F09"></path></svg> 