<?xml version="1.0" encoding="UTF-8"?> <svg xmlns="http://www.w3.org/2000/svg" width="431" height="229" viewBox="0 0 431 229" fill="none"><path d="M175.714 49.4322C177.287 47.8592 178.914 46.5031 180.596 45.3641C182.277 44.1707 183.986 43.0588 185.722 42.0282C187.512 40.9976 189.301 39.967 191.091 38.9364C192.881 37.8515 194.671 36.5769 196.461 35.1123C197.546 34.2445 198.577 33.2952 199.553 32.2646C200.584 31.1798 201.479 30.0949 202.238 29.0101C202.998 27.871 203.594 26.7319 204.028 25.5929C204.462 24.3995 204.679 23.2333 204.679 22.0942C204.679 20.9009 204.299 20.0059 203.54 19.4093C202.835 18.8126 201.94 18.5143 200.855 18.5143C198.957 18.5143 197.221 18.8668 195.648 19.572C194.129 20.2771 192.827 21.1721 191.742 22.257C190.658 23.3418 189.817 24.5894 189.22 25.9997C188.623 27.3557 188.325 28.7118 188.325 30.0678C188.325 31.4781 188.705 32.4002 189.464 32.8342C190.278 33.2139 191.119 33.4308 191.986 33.4851L191.824 34.136H191.254C189.464 34.136 188.027 33.702 186.942 32.8342C185.911 31.912 185.396 30.7458 185.396 29.3356C185.396 27.6541 185.911 26.081 186.942 24.6165C187.973 23.152 189.274 21.8773 190.847 20.7924C192.475 19.6534 194.265 18.7584 196.217 18.1075C198.17 17.4566 200.069 17.1311 201.913 17.1311C204.082 17.1311 205.791 17.6735 207.039 18.7584C208.34 19.789 208.991 21.0908 208.991 22.6638C208.991 24.0741 208.557 25.4844 207.69 26.8947C206.822 28.305 205.71 29.6881 204.354 31.0442C202.998 32.346 201.452 33.6207 199.716 34.8682C198.034 36.0616 196.353 37.2006 194.671 38.2855C192.99 39.3161 191.39 40.2653 189.871 41.1332C188.352 41.9468 187.105 42.652 186.128 43.2486C187.05 43.2486 188 43.4385 188.976 43.8182C189.952 44.1979 190.902 44.6318 191.824 45.12C192.8 45.6081 193.695 46.0421 194.509 46.4218C195.377 46.8015 196.136 46.9913 196.787 46.9913C197.872 46.9913 198.875 46.6659 199.797 46.015C200.774 45.3641 201.642 44.6589 202.401 43.8995L202.97 44.3063C201.669 45.7709 200.15 47.0727 198.414 48.2118C196.678 49.3508 194.943 49.9204 193.207 49.9204C192.285 49.9204 191.39 49.7305 190.522 49.3508C189.708 49.0254 188.895 48.6728 188.081 48.2931C187.322 47.8592 186.535 47.4795 185.722 47.154C184.962 46.7743 184.176 46.5845 183.362 46.5845C181.897 46.5845 180.623 46.8828 179.538 47.4795C178.507 48.0762 177.45 48.9169 176.365 50.0017L175.714 49.4322ZM236.945 12.5748C238.572 12.5748 239.955 12.9545 241.094 13.7139C242.287 14.4732 242.884 15.5852 242.884 17.0497C242.884 18.4058 242.477 19.6534 241.664 20.7924C240.85 21.9315 239.792 22.9621 238.49 23.8842C237.243 24.8063 235.86 25.62 234.341 26.3251C232.876 26.976 231.493 27.5184 230.191 27.9524C231.114 29.3627 231.927 30.773 232.632 32.1833C233.392 33.5935 233.771 35.1666 233.771 36.9023C233.771 38.4211 233.338 39.9399 232.47 41.4586C231.602 42.9774 230.408 44.3335 228.89 45.5268C227.425 46.7201 225.717 47.6965 223.764 48.4558C221.865 49.2152 219.858 49.5949 217.743 49.5949C216.224 49.5949 214.922 49.4051 213.838 49.0254C212.807 48.6457 211.939 48.1575 211.234 47.5609C210.583 46.9642 210.095 46.2862 209.769 45.5268C209.444 44.7674 209.281 43.9809 209.281 43.1673C209.281 41.323 209.769 39.6415 210.746 38.1228C211.722 36.5497 212.997 35.1666 214.57 33.9732C216.143 32.7257 217.933 31.6408 219.94 30.7187C221.947 29.7424 223.981 28.8745 226.042 28.1151C225.12 26.5421 224.225 24.9691 223.357 23.3961C222.543 21.823 222.137 20.1144 222.137 18.2702C222.137 16.0463 222.625 13.9308 223.601 11.9239C224.577 9.91692 225.879 8.18118 227.506 6.71664C229.188 5.19787 231.114 4.00455 233.283 3.13668C235.453 2.2688 237.704 1.83487 240.036 1.83487C241.935 1.83487 243.806 2.1332 245.65 2.72986C247.495 3.32652 249.285 4.30288 251.02 5.65892L250.288 6.39119C248.932 5.36059 247.44 4.57409 245.813 4.03167C244.186 3.48925 242.504 3.21804 240.769 3.21804C238.979 3.21804 237.216 3.54349 235.48 4.1944C233.744 4.79106 232.171 5.68605 230.761 6.87937C229.405 8.01845 228.293 9.45587 227.425 11.1916C226.612 12.9274 226.205 14.9343 226.205 17.2125C226.205 19.2737 226.53 21.0636 227.181 22.5824C227.886 24.1012 228.673 25.5657 229.541 26.976C232.036 26.0539 234.178 24.8063 235.968 23.2333C237.758 21.6061 238.653 19.6534 238.653 17.3752C238.653 16.3446 238.301 15.5581 237.596 15.0157C236.89 14.419 236.077 14.1207 235.155 14.1207C234.504 14.1207 233.717 14.2563 232.795 14.5275L232.47 13.6325C233.121 13.2528 233.826 12.9816 234.585 12.8189C235.399 12.6561 236.185 12.5748 236.945 12.5748ZM229.622 37.065C229.622 35.6547 229.324 34.2987 228.727 32.9969C228.13 31.6951 227.452 30.3933 226.693 29.0915C223.004 30.5018 219.994 32.346 217.662 34.6241C215.383 36.8481 214.109 39.8314 213.838 43.5741C213.838 44.8759 214.109 46.0421 214.651 47.0727C215.248 48.049 216.414 48.5372 218.15 48.5372C219.994 48.5372 221.621 48.2389 223.032 47.6422C224.442 46.9913 225.635 46.1506 226.612 45.12C227.588 44.0894 228.32 42.896 228.808 41.54C229.351 40.1297 229.622 38.6381 229.622 37.065ZM203.175 99.3752C205.019 99.3752 206.619 99.8905 207.975 100.921C209.331 101.952 210.009 103.443 210.009 105.396C210.009 106.861 209.711 108.542 209.114 110.441C208.518 112.339 207.677 114.265 206.592 116.217C205.507 118.116 204.233 119.987 202.768 121.831C201.303 123.676 199.703 125.33 197.968 126.795C196.232 128.259 194.415 129.425 192.516 130.293C190.618 131.161 188.692 131.595 186.74 131.595C184.353 131.595 182.698 131.025 181.776 129.886C180.909 128.747 180.475 127.418 180.475 125.9C180.475 124.543 180.746 122.97 181.288 121.18C181.885 119.336 182.698 117.438 183.729 115.485C184.814 113.478 186.061 111.525 187.472 109.627C188.882 107.674 190.428 105.966 192.109 104.501C193.791 102.982 195.554 101.762 197.398 100.84C199.297 99.8634 201.222 99.3752 203.175 99.3752ZM188.367 130.13C190.211 130.13 191.92 129.642 193.493 128.666C195.066 127.69 196.503 126.415 197.805 124.842C199.161 123.269 200.354 121.506 201.385 119.553C202.415 117.546 203.283 115.594 203.988 113.695C204.694 111.742 205.236 109.925 205.616 108.244C205.995 106.508 206.185 105.098 206.185 104.013C206.185 103.037 205.968 102.223 205.534 101.572C205.155 100.867 204.45 100.514 203.419 100.514C201.737 100.514 200.11 100.975 198.537 101.897C197.018 102.82 195.554 104.04 194.144 105.559C192.788 107.023 191.54 108.705 190.401 110.603C189.262 112.502 188.285 114.4 187.472 116.299C186.658 118.197 186.007 120.014 185.519 121.75C185.085 123.486 184.868 124.95 184.868 126.144C184.868 127.608 185.221 128.639 185.926 129.235C186.631 129.778 187.445 130.076 188.367 130.13ZM242.399 98.0734C242.399 100.135 241.613 101.708 240.04 102.792C238.521 103.877 236.731 104.42 234.67 104.42C233.314 104.42 231.985 104.203 230.683 103.769C229.381 103.335 228.188 102.684 227.103 101.816C226.073 103.769 224.961 105.83 223.767 108C222.628 110.169 221.57 112.014 220.594 113.532C221.679 113.044 222.737 112.692 223.767 112.475C224.798 112.203 225.72 112.068 226.534 112.068C228.92 112.068 230.846 112.773 232.31 114.183C233.775 115.594 234.507 117.329 234.507 119.39C234.507 121.235 234.073 122.97 233.205 124.598C232.338 126.171 231.171 127.554 229.707 128.747C228.242 129.886 226.507 130.781 224.5 131.432C222.493 132.137 220.35 132.49 218.072 132.49C216.933 132.49 215.794 132.327 214.655 132.002C213.57 131.731 212.593 131.324 211.726 130.781C210.858 130.239 210.153 129.561 209.61 128.747C209.122 127.934 208.878 127.011 208.878 125.981C208.878 124.896 209.285 123.947 210.098 123.133C210.966 122.265 211.997 121.831 213.19 121.831C214.004 121.831 214.573 122.048 214.899 122.482C215.224 122.916 215.387 123.35 215.387 123.784C215.333 124.381 215.143 124.869 214.817 125.249C214.492 125.628 214.139 125.981 213.76 126.306C213.38 126.632 213.027 126.984 212.702 127.364C212.431 127.69 212.295 128.151 212.295 128.747C212.295 129.669 212.919 130.374 214.166 130.863C215.414 131.297 216.824 131.514 218.397 131.514C219.699 131.514 221.028 131.215 222.384 130.619C223.794 129.968 225.069 129.073 226.208 127.934C227.347 126.795 228.269 125.438 228.975 123.865C229.734 122.292 230.114 120.584 230.114 118.74C230.114 116.895 229.625 115.594 228.649 114.834C227.727 114.021 226.723 113.614 225.639 113.614C224.283 113.614 222.872 113.966 221.408 114.671C219.997 115.322 218.777 116.109 217.746 117.031L216.77 116.543C218.886 113.614 220.73 110.712 222.303 107.837C223.876 104.962 225.449 101.952 227.022 98.8057C227.564 97.8293 228.025 97.3411 228.405 97.3411C228.73 97.3411 229.083 97.531 229.463 97.9107C230.385 98.7785 231.578 99.5379 233.043 100.189C234.561 100.84 236.026 101.165 237.436 101.165C238.521 101.165 239.443 100.948 240.203 100.514C241.016 100.026 241.504 99.2125 241.667 98.0734H242.399ZM176.469 213.432C178.042 211.859 179.669 210.503 181.35 209.364C183.032 208.171 184.741 207.059 186.476 206.028C188.266 204.998 190.056 203.967 191.846 202.936C193.636 201.852 195.426 200.577 197.216 199.112C198.301 198.244 199.332 197.295 200.308 196.265C201.339 195.18 202.234 194.095 202.993 193.01C203.752 191.871 204.349 190.732 204.783 189.593C205.217 188.4 205.434 187.233 205.434 186.094C205.434 184.901 205.054 184.006 204.295 183.409C203.59 182.813 202.695 182.514 201.61 182.514C199.711 182.514 197.976 182.867 196.403 183.572C194.884 184.277 193.582 185.172 192.497 186.257C191.412 187.342 190.572 188.589 189.975 190C189.378 191.356 189.08 192.712 189.08 194.068C189.08 195.478 189.46 196.4 190.219 196.834C191.033 197.214 191.873 197.431 192.741 197.485L192.579 198.136H192.009C190.219 198.136 188.782 197.702 187.697 196.834C186.666 195.912 186.151 194.746 186.151 193.336C186.151 191.654 186.666 190.081 187.697 188.616C188.727 187.152 190.029 185.877 191.602 184.792C193.229 183.653 195.019 182.758 196.972 182.107C198.925 181.457 200.823 181.131 202.668 181.131C204.837 181.131 206.546 181.674 207.793 182.758C209.095 183.789 209.746 185.091 209.746 186.664C209.746 188.074 209.312 189.484 208.444 190.895C207.576 192.305 206.465 193.688 205.108 195.044C203.752 196.346 202.207 197.621 200.471 198.868C198.789 200.062 197.108 201.201 195.426 202.285C193.745 203.316 192.145 204.265 190.626 205.133C189.107 205.947 187.86 206.652 186.883 207.249C187.805 207.249 188.755 207.438 189.731 207.818C190.707 208.198 191.656 208.632 192.579 209.12C193.555 209.608 194.45 210.042 195.264 210.422C196.131 210.801 196.891 210.991 197.542 210.991C198.627 210.991 199.63 210.666 200.552 210.015C201.529 209.364 202.396 208.659 203.156 207.9L203.725 208.306C202.424 209.771 200.905 211.073 199.169 212.212C197.433 213.351 195.697 213.92 193.962 213.92C193.04 213.92 192.145 213.731 191.277 213.351C190.463 213.025 189.65 212.673 188.836 212.293C188.076 211.859 187.29 211.479 186.476 211.154C185.717 210.774 184.93 210.585 184.117 210.585C182.652 210.585 181.378 210.883 180.293 211.479C179.262 212.076 178.204 212.917 177.12 214.002L176.469 213.432ZM241.605 180.073C241.605 182.135 240.818 183.708 239.245 184.792C237.727 185.877 235.937 186.42 233.875 186.42C232.519 186.42 231.19 186.203 229.889 185.769C228.587 185.335 227.393 184.684 226.309 183.816C225.278 185.769 224.166 187.83 222.973 190C221.834 192.169 220.776 194.014 219.8 195.532C220.884 195.044 221.942 194.692 222.973 194.475C224.003 194.203 224.925 194.068 225.739 194.068C228.126 194.068 230.051 194.773 231.516 196.183C232.98 197.594 233.713 199.329 233.713 201.39C233.713 203.235 233.279 204.97 232.411 206.598C231.543 208.171 230.377 209.554 228.912 210.747C227.448 211.886 225.712 212.781 223.705 213.432C221.698 214.137 219.555 214.49 217.277 214.49C216.138 214.49 214.999 214.327 213.86 214.002C212.775 213.731 211.799 213.324 210.931 212.781C210.063 212.239 209.358 211.561 208.816 210.747C208.327 209.934 208.083 209.011 208.083 207.981C208.083 206.896 208.49 205.947 209.304 205.133C210.172 204.265 211.202 203.831 212.396 203.831C213.209 203.831 213.779 204.048 214.104 204.482C214.43 204.916 214.592 205.35 214.592 205.784C214.538 206.381 214.348 206.869 214.023 207.249C213.697 207.628 213.345 207.981 212.965 208.306C212.585 208.632 212.233 208.984 211.907 209.364C211.636 209.69 211.501 210.151 211.501 210.747C211.501 211.669 212.124 212.374 213.372 212.863C214.619 213.297 216.03 213.514 217.603 213.514C218.905 213.514 220.234 213.215 221.59 212.619C223 211.968 224.275 211.073 225.414 209.934C226.553 208.795 227.475 207.438 228.18 205.865C228.939 204.292 229.319 202.584 229.319 200.74C229.319 198.895 228.831 197.594 227.855 196.834C226.932 196.021 225.929 195.614 224.844 195.614C223.488 195.614 222.078 195.966 220.613 196.671C219.203 197.322 217.982 198.109 216.952 199.031L215.976 198.543C218.091 195.614 219.935 192.712 221.508 189.837C223.081 186.962 224.654 183.952 226.227 180.806C226.77 179.829 227.231 179.341 227.61 179.341C227.936 179.341 228.288 179.531 228.668 179.911C229.59 180.779 230.784 181.538 232.248 182.189C233.767 182.84 235.231 183.165 236.642 183.165C237.727 183.165 238.649 182.948 239.408 182.514C240.222 182.026 240.71 181.212 240.873 180.073H241.605Z" fill="#F5F0E0"></path><path d="M210.107 77.6933C209.348 77.6933 208.832 77.5035 208.561 77.1238C208.29 76.7441 208.154 76.3373 208.154 75.9033C208.209 75.3067 208.534 74.7642 209.131 74.2761C209.727 73.7336 210.378 73.4624 211.083 73.4624C211.572 73.4624 211.978 73.6523 212.304 74.032C212.683 74.3574 212.873 74.7642 212.873 75.2524C212.873 75.9033 212.575 76.4729 211.978 76.961C211.436 77.4492 210.812 77.6933 210.107 77.6933Z" fill="#E0C58E"></path><path d="M210.107 161.693C209.348 161.693 208.832 161.503 208.561 161.124C208.29 160.744 208.154 160.337 208.154 159.903C208.209 159.307 208.534 158.764 209.131 158.276C209.727 157.734 210.378 157.462 211.083 157.462C211.572 157.462 211.978 157.652 212.304 158.032C212.683 158.357 212.873 158.764 212.873 159.252C212.873 159.903 212.575 160.473 211.978 160.961C211.436 161.449 210.812 161.693 210.107 161.693Z" fill="#E0C58E"></path></svg> 