<?xml version="1.0" encoding="UTF-8"?> <svg xmlns="http://www.w3.org/2000/svg" width="290" height="102" viewBox="0 0 290 102" fill="none"><path d="M25.2263 19.8305C28.0636 19.8305 30.673 20.1852 33.0543 20.8945C36.145 18.1078 39.3876 15.5745 42.7823 13.2945C46.2276 10.9638 49.6983 8.98785 53.1943 7.36651C56.741 5.69452 60.313 4.42785 63.9103 3.56651C67.5076 2.65451 71.0543 2.19851 74.5503 2.19851C78.9583 2.19851 82.9103 2.67985 86.4063 3.64251C89.953 4.60518 93.2463 5.61851 96.2863 6.68251C98.465 4.95985 100.745 3.56651 103.126 2.50251C105.558 1.43851 108.142 0.906512 110.878 0.906512C112.956 0.906512 114.754 1.31185 116.274 2.12251C117.794 2.93318 118.554 4.17451 118.554 5.84651C118.554 6.85985 118.301 7.72118 117.794 8.43051C117.338 9.08918 116.705 9.62118 115.894 10.0265C115.084 10.4318 114.121 10.7358 113.006 10.9385C111.942 11.0905 110.802 11.1665 109.586 11.1665C107.61 11.1665 105.66 10.9385 103.734 10.4825C101.809 10.0265 99.7823 9.49451 97.6543 8.88651C95.8303 10.8118 93.981 12.9398 92.1063 15.2705C90.2316 17.6012 88.4076 20.0332 86.6343 22.5665C84.9116 25.0998 83.265 27.6585 81.6943 30.2425C80.1743 32.8265 78.8316 35.3092 77.6663 37.6905C76.501 40.0718 75.589 42.3012 74.9303 44.3785C74.2716 46.4052 73.9423 48.1278 73.9423 49.5465C73.9423 51.8772 74.9556 53.0425 76.9823 53.0425C79.5663 53.0425 82.0743 52.1052 84.5063 50.2305C86.9383 48.3558 89.649 45.5692 92.6383 41.8705L93.0943 42.3265C91.929 43.8465 90.6876 45.3412 89.3703 46.8105C88.1036 48.2798 86.7356 49.5718 85.2663 50.6865C83.8476 51.8012 82.353 52.6878 80.7823 53.3465C79.2116 54.0558 77.6156 54.4105 75.9943 54.4105C74.4743 54.4105 73.1063 53.9292 71.8903 52.9665C70.725 52.0038 70.1423 50.4078 70.1423 48.1785C70.1423 46.7092 70.4716 44.9358 71.1303 42.8585C71.789 40.7812 72.701 38.5518 73.8663 36.1705C75.0823 33.7385 76.4756 31.2305 78.0463 28.6465C79.6676 26.0625 81.4156 23.5038 83.2903 20.9705C84.9116 18.7412 86.6596 16.5118 88.5343 14.2825C90.4596 12.0532 92.4863 9.97585 94.6143 8.05051C92.233 7.44251 89.649 6.91051 86.8623 6.45451C84.0756 5.94785 80.909 5.69451 77.3623 5.69451C73.8156 5.69451 70.2183 6.07451 66.5703 6.83451C62.973 7.59451 59.3756 8.68385 55.7783 10.1025C52.2316 11.5212 48.7356 13.2185 45.2903 15.1945C41.8956 17.1705 38.653 19.3998 35.5623 21.8825C37.5383 22.8452 39.0836 24.1118 40.1983 25.6825C41.3636 27.2532 41.9463 29.1025 41.9463 31.2305C41.9463 33.1558 41.5156 34.9038 40.6543 36.4745C39.793 38.0452 38.6276 39.4132 37.1583 40.5785C35.7396 41.6932 34.093 42.5798 32.2183 43.2385C30.3943 43.8465 28.5196 44.1505 26.5943 44.1505C25.429 44.1505 24.365 44.0492 23.4023 43.8465L23.6303 43.1625C24.5423 43.3145 25.4796 43.3905 26.4423 43.3905C28.2156 43.3905 29.9383 43.1118 31.6103 42.5545C33.2823 41.9465 34.7516 41.1358 36.0183 40.1225C37.3356 39.1092 38.3743 37.9185 39.1343 36.5505C39.945 35.1318 40.3503 33.6118 40.3503 31.9905C40.3503 29.8118 39.8183 27.9625 38.7543 26.4425C37.741 24.8718 36.3476 23.6052 34.5743 22.6425C29.3556 26.9492 24.745 31.7878 20.7423 37.1585C16.7396 42.4785 13.649 48.1532 11.4703 54.1825C13.193 54.8918 15.017 55.3985 16.9423 55.7025C18.8676 56.0065 20.793 56.1585 22.7183 56.1585C25.809 56.1585 28.7983 55.7278 31.6863 54.8665C34.625 54.0558 37.3863 52.9158 39.9703 51.4465C42.5543 49.9772 44.9103 48.2292 47.0383 46.2025C49.1663 44.1252 51.0156 41.8958 52.5863 39.5145C54.8156 36.0692 56.9436 32.6745 58.9703 29.3305C60.997 25.9865 63.2263 22.8958 65.6583 20.0585C68.0903 17.2212 70.8263 14.7892 73.8663 12.7625C76.957 10.6852 80.6303 9.21585 84.8863 8.35452L85.0383 9.19051C82.4543 9.59585 80.149 10.4318 78.1223 11.6985C76.0956 12.9652 74.2463 14.4852 72.5743 16.2585C70.953 18.0318 69.433 20.0078 68.0143 22.1865C66.5956 24.3652 65.2023 26.5945 63.8343 28.8745C62.517 31.1545 61.149 33.4345 59.7303 35.7145C58.3623 37.9945 56.8676 40.0972 55.2463 42.0225C53.625 43.9478 51.6743 45.8225 49.3943 47.6465C47.1143 49.4705 44.581 51.0665 41.7943 52.4345C39.0076 53.8532 35.993 54.9678 32.7503 55.7785C29.5583 56.6398 26.2143 57.0705 22.7183 57.0705C20.793 57.0705 18.8423 56.9185 16.8663 56.6145C14.8903 56.3612 12.9903 55.8798 11.1663 55.1705C10.2543 57.9065 9.54496 60.6932 9.0383 63.5305C8.53163 66.3678 8.2783 69.2305 8.2783 72.1185C8.2783 75.9185 8.8863 79.5412 10.1023 82.9865C11.369 86.4825 13.2436 89.5479 15.7263 92.1825C18.209 94.8679 21.325 96.9959 25.0743 98.5665C28.8743 100.137 33.333 100.923 38.4503 100.923C42.5543 100.923 46.633 100.213 50.6863 98.7945C54.7396 97.3759 58.3876 95.3745 61.6303 92.7905C64.873 90.2065 67.4823 87.1159 69.4583 83.5185C71.485 79.9212 72.4983 75.9185 72.4983 71.5105C72.4983 69.5852 72.1436 67.7105 71.4343 65.8865C70.7756 64.1132 69.7876 62.5425 68.4703 61.1745C67.153 59.8065 65.481 58.7172 63.4543 57.9065C61.4276 57.0958 59.097 56.6905 56.4623 56.6905C52.561 56.6905 49.141 57.2732 46.2023 58.4385C43.3143 59.6038 40.9076 61.1238 38.9823 62.9985C37.057 64.9238 35.613 67.0772 34.6503 69.4585C33.6876 71.8398 33.2063 74.2465 33.2063 76.6785C33.2063 78.0465 33.4343 79.2879 33.8903 80.4025C34.3463 81.5172 34.9543 82.4545 35.7143 83.2145C36.525 84.0252 37.437 84.6332 38.4503 85.0385C39.4636 85.4439 40.5276 85.6465 41.6423 85.6465C43.821 85.6465 45.721 85.3172 47.3423 84.6585C49.0143 83.9999 50.433 83.1639 51.5983 82.1505C52.8143 81.1879 53.8023 80.0985 54.5623 78.8825C55.3223 77.6665 55.905 76.5012 56.3103 75.3865L56.9183 75.6145C56.5636 77.0332 55.9303 78.4012 55.0183 79.7185C54.1063 81.0359 52.9916 82.2012 51.6743 83.2145C50.357 84.2279 48.8623 85.0385 47.1903 85.6465C45.5183 86.2545 43.745 86.5585 41.8703 86.5585C40.553 86.5585 39.2356 86.3559 37.9183 85.9505C36.601 85.5959 35.4103 85.0132 34.3463 84.2025C33.2823 83.3919 32.3956 82.3532 31.6863 81.0865C31.0276 79.8198 30.6983 78.2998 30.6983 76.5265C30.6983 73.3852 31.4076 70.5225 32.8263 67.9385C34.245 65.4052 36.1196 63.2265 38.4503 61.4025C40.8316 59.5785 43.5423 58.1598 46.5823 57.1465C49.673 56.1838 52.8903 55.7025 56.2343 55.7025C58.9196 55.7025 61.3263 56.0825 63.4543 56.8425C65.633 57.6532 67.457 58.7425 68.9263 60.1105C70.4463 61.4785 71.5863 63.0998 72.3463 64.9745C73.157 66.8492 73.5623 68.8758 73.5623 71.0545C73.5623 75.7159 72.5743 79.9465 70.5983 83.7465C68.6223 87.5465 65.9876 90.7892 62.6943 93.4745C59.4516 96.1599 55.7276 98.2372 51.5223 99.7065C47.317 101.227 42.985 101.987 38.5263 101.987C33.257 101.987 28.6463 101.151 24.6943 99.4785C20.793 97.8572 17.525 95.6532 14.8903 92.8665C12.3063 90.1305 10.3556 86.9639 9.0383 83.3665C7.77163 79.7692 7.1383 75.9945 7.1383 72.0425C7.1383 69.1545 7.39163 66.2665 7.8983 63.3785C8.40496 60.4905 9.13963 57.6025 10.1023 54.7145C7.41696 53.5492 5.1623 51.8518 3.3383 49.6225C1.5143 47.3932 0.602297 44.4292 0.602297 40.7305C0.602297 37.7412 1.2863 34.9798 2.6543 32.4465C4.07296 29.8625 5.9223 27.6585 8.2023 25.8345C10.4823 23.9598 13.0916 22.4905 16.0303 21.4265C19.0196 20.3625 22.085 19.8305 25.2263 19.8305ZM10.4823 53.7265C12.6103 47.7985 15.549 42.1238 19.2983 36.7025C23.0476 31.2305 27.3543 26.2398 32.2183 21.7305C30.0903 21.0212 27.7596 20.6665 25.2263 20.6665C21.9836 20.6665 18.9943 21.2745 16.2583 22.4905C13.5223 23.6558 11.1663 25.2012 9.1903 27.1265C7.2143 29.0518 5.66896 31.2305 4.5543 33.6625C3.43963 36.0945 2.8823 38.5772 2.8823 41.1105C2.8823 44.4545 3.59163 47.1398 5.0103 49.1665C6.42896 51.1425 8.25296 52.6625 10.4823 53.7265ZM98.8703 7.59451C100.948 8.30385 102.898 8.91185 104.722 9.41852C106.546 9.92518 108.345 10.1785 110.118 10.1785C112.246 10.1785 113.842 9.79852 114.906 9.03852C115.97 8.22785 116.502 7.18918 116.502 5.92252C116.502 4.65585 115.92 3.64251 114.754 2.88251C113.589 2.12251 112.272 1.74251 110.802 1.74251C109.434 1.74251 107.788 2.07185 105.862 2.73052C103.937 3.38918 102.062 4.57985 100.238 6.30251L98.8703 7.59451ZM102.384 37.5385C101.472 37.5385 100.459 37.9692 99.3441 38.8305C98.2294 39.6412 97.1908 40.6798 96.2281 41.9465C95.3161 43.1625 94.5308 44.4798 93.8721 45.8985C93.2134 47.3172 92.8841 48.6092 92.8841 49.7745C92.8841 50.2305 93.0361 50.6612 93.3401 51.0665C93.6441 51.4718 94.1761 51.6745 94.9361 51.6745C96.0508 51.6745 97.1908 51.2185 98.3561 50.3065C99.5214 49.3438 100.56 48.2292 101.472 46.9625C102.435 45.6452 103.195 44.3025 103.752 42.9345C104.36 41.5665 104.664 40.4265 104.664 39.5145C104.664 38.1972 103.904 37.5385 102.384 37.5385ZM102.764 36.7025C104.537 36.7025 105.804 37.0825 106.564 37.8425C107.375 38.6025 107.78 39.4638 107.78 40.4265C107.78 41.6425 107.375 42.9598 106.564 44.3785C105.753 45.7465 104.689 47.0385 103.372 48.2545C102.105 49.4705 100.636 50.4838 98.9641 51.2945C97.3428 52.0545 95.6961 52.4345 94.0241 52.4345C92.3521 52.4345 91.1361 52.1305 90.3761 51.5225C89.6668 50.8638 89.3121 49.9518 89.3121 48.7865C89.3121 47.5705 89.6668 46.2532 90.3761 44.8345C91.0854 43.4158 92.0481 42.0985 93.2641 40.8825C94.4801 39.6665 95.8988 38.6785 97.5201 37.9185C99.1921 37.1078 100.94 36.7025 102.764 36.7025ZM131.487 38.6785C131.791 38.2225 132.171 37.7918 132.627 37.3865C133.133 36.9812 133.792 36.7785 134.603 36.7785H135.211C135.768 36.7785 136.047 36.9558 136.047 37.3105C136.047 37.4625 135.971 37.6398 135.819 37.8425L131.031 45.7465C131.639 45.1385 132.525 44.3278 133.691 43.3145C134.907 42.2505 136.224 41.2372 137.643 40.2745C139.112 39.3118 140.607 38.4758 142.127 37.7665C143.697 37.0572 145.167 36.7025 146.535 36.7025C147.852 36.7025 148.815 36.9812 149.423 37.5385C150.081 38.0452 150.411 38.6785 150.411 39.4385C150.411 40.0465 150.208 40.5785 149.803 41.0345C149.397 41.4905 148.916 41.7185 148.359 41.7185C147.852 41.7185 147.447 41.5918 147.143 41.3385C146.889 41.0852 146.763 40.8065 146.763 40.5025C146.763 40.1985 146.889 39.9452 147.143 39.7425C147.396 39.4892 147.523 39.1598 147.523 38.7545C147.523 37.9945 147.117 37.6145 146.307 37.6145C145.395 37.6145 144.432 38.0198 143.419 38.8305C142.405 39.5905 141.468 40.5785 140.607 41.7945C139.796 42.9598 139.112 44.2265 138.555 45.5945C137.997 46.9118 137.719 48.1278 137.719 49.2425C137.719 49.6478 137.795 50.0532 137.947 50.4585C138.149 50.8638 138.58 51.0665 139.239 51.0665C141.012 51.0665 142.887 50.4078 144.863 49.0905C146.889 47.7225 148.865 45.8478 150.791 43.4665L151.475 43.6945C150.613 44.7585 149.676 45.7972 148.663 46.8105C147.649 47.8238 146.56 48.7358 145.395 49.5465C144.229 50.3572 142.988 51.0158 141.671 51.5225C140.353 52.0292 138.96 52.2825 137.491 52.2825C136.275 52.2825 135.388 52.0292 134.831 51.5225C134.324 51.0158 134.071 50.3572 134.071 49.5465C134.071 48.2292 134.577 46.7092 135.591 44.9865C136.604 43.2132 137.845 41.6172 139.315 40.1985C137.389 41.3638 135.515 42.7572 133.691 44.3785C131.867 45.9492 130.245 47.5452 128.827 49.1665L128.219 50.0785C127.813 50.7372 127.383 51.2185 126.927 51.5225C126.521 51.8265 125.888 51.9785 125.027 51.9785H124.343C123.785 51.9785 123.507 51.7758 123.507 51.3705C123.507 51.2692 123.557 51.1172 123.659 50.9145L129.055 42.7825C128.447 43.4918 127.509 44.3785 126.243 45.4425C125.027 46.5065 123.659 47.5452 122.139 48.5585C120.669 49.5212 119.124 50.3825 117.503 51.1425C115.932 51.8518 114.488 52.2065 113.171 52.2065C111.853 52.2065 110.865 51.9532 110.207 51.4465C109.599 50.8892 109.295 50.2305 109.295 49.4705C109.295 48.8625 109.497 48.3305 109.903 47.8745C110.308 47.4185 110.789 47.1905 111.347 47.1905C111.853 47.1905 112.233 47.3172 112.487 47.5705C112.791 47.8238 112.943 48.1025 112.943 48.4065C112.943 48.7105 112.816 48.9892 112.563 49.2425C112.309 49.4452 112.183 49.7492 112.183 50.1545C112.183 50.9145 112.588 51.2945 113.399 51.2945C114.26 51.2945 115.197 50.9145 116.211 50.1545C117.224 49.3438 118.161 48.3558 119.023 47.1905C119.935 46.0252 120.669 44.7838 121.227 43.4665C121.835 42.1492 122.139 40.9332 122.139 39.8185C122.139 39.2105 121.961 38.7038 121.607 38.2985C121.252 37.8932 120.619 37.6905 119.707 37.6905C118.44 37.6905 116.895 38.4505 115.071 39.9705C113.297 41.4905 111.448 43.3905 109.523 45.6705L108.915 45.3665C109.827 44.2518 110.764 43.1625 111.727 42.0985C112.74 40.9838 113.753 39.9958 114.767 39.1345C115.831 38.2732 116.895 37.5892 117.959 37.0825C119.023 36.5252 120.112 36.2465 121.227 36.2465C122.645 36.2465 123.735 36.5505 124.495 37.1585C125.255 37.7665 125.635 38.5772 125.635 39.5905C125.635 40.9585 125.153 42.4785 124.191 44.1505C123.228 45.7718 122.012 47.2412 120.543 48.5585C122.772 47.1905 124.697 45.8225 126.319 44.4545C127.94 43.0358 129.409 41.4398 130.727 39.6665L131.487 38.6785ZM153.169 45.9745C154.841 45.6705 156.209 45.2398 157.273 44.6825C158.337 44.1252 159.173 43.5425 159.781 42.9345C160.389 42.2758 160.795 41.6425 160.997 41.0345C161.251 40.3758 161.377 39.7932 161.377 39.2865C161.377 38.7292 161.251 38.3745 160.997 38.2225C160.744 38.0198 160.44 37.9185 160.085 37.9185C158.971 37.9185 157.805 38.7038 156.589 40.2745C155.373 41.7945 154.233 43.6945 153.169 45.9745ZM154.917 51.2945C155.424 51.2945 155.981 51.2438 156.589 51.1425C157.248 51.0412 158.033 50.7372 158.945 50.2305C159.857 49.7238 160.896 48.9385 162.061 47.8745C163.277 46.8105 164.721 45.3158 166.393 43.3905L166.925 43.7705C165.253 45.7465 163.759 47.3172 162.441 48.4825C161.175 49.5972 160.009 50.4585 158.945 51.0665C157.881 51.6238 156.893 51.9785 155.981 52.1305C155.12 52.3332 154.259 52.4345 153.397 52.4345C151.523 52.4345 150.281 52.0292 149.673 51.2185C149.065 50.3572 148.761 49.4958 148.761 48.6345C148.761 47.2665 149.091 45.8985 149.749 44.5305C150.459 43.1118 151.371 41.8452 152.485 40.7305C153.651 39.5652 154.943 38.6278 156.361 37.9185C157.78 37.1585 159.249 36.7785 160.769 36.7785C162.289 36.7785 163.277 37.0825 163.733 37.6905C164.189 38.2478 164.417 38.8052 164.417 39.3625C164.417 40.4265 164.037 41.3892 163.277 42.2505C162.568 43.0612 161.656 43.7705 160.541 44.3785C159.427 44.9358 158.185 45.4172 156.817 45.8225C155.449 46.1772 154.157 46.4558 152.941 46.6585C152.789 46.9625 152.663 47.3678 152.561 47.8745C152.46 48.3305 152.409 48.7612 152.409 49.1665C152.409 49.8758 152.637 50.4078 153.093 50.7625C153.6 51.1172 154.208 51.2945 154.917 51.2945ZM178.711 52.2825C177.85 52.2825 177.115 52.1052 176.507 51.7505C175.95 51.3452 175.671 50.7372 175.671 49.9265C175.671 49.1665 175.95 48.2292 176.507 47.1145C177.115 45.9998 177.799 44.8852 178.559 43.7705C179.37 42.6558 180.155 41.6172 180.915 40.6545C181.726 39.6918 182.309 38.9825 182.663 38.5265L182.587 38.4505C182.03 38.4505 181.346 38.8305 180.535 39.5905C179.775 40.2998 178.914 41.1865 177.951 42.2505C177.039 43.3145 176.077 44.4292 175.063 45.5945C174.101 46.7598 173.163 47.7478 172.251 48.5585C170.63 50.0278 169.237 51.0665 168.071 51.6745C166.906 52.2318 165.741 52.5105 164.575 52.5105C163.562 52.5105 162.777 52.2825 162.219 51.8265C161.662 51.3198 161.383 50.6105 161.383 49.6985C161.383 48.6345 161.687 47.6212 162.295 46.6585C162.853 45.6452 163.537 44.9105 164.347 44.4545C165.158 43.9478 165.994 43.7705 166.855 43.9225C167.767 44.0238 168.274 44.7078 168.375 45.9745C168.426 46.4305 168.198 46.9372 167.691 47.4945C167.185 48.0518 166.703 48.3305 166.247 48.3305C165.741 48.3305 165.386 48.1532 165.183 47.7985C165.031 47.3932 164.753 47.1652 164.347 47.1145C164.094 47.1145 163.689 47.3425 163.131 47.7985C162.625 48.2545 162.371 48.9132 162.371 49.7745C162.371 50.2305 162.549 50.7118 162.903 51.2185C163.258 51.6745 163.79 51.9025 164.499 51.9025C165.006 51.9025 165.487 51.8518 165.943 51.7505C166.45 51.5985 166.982 51.3705 167.539 51.0665C168.147 50.7625 168.806 50.3572 169.515 49.8505C170.225 49.2932 171.035 48.5838 171.947 47.7225C173.214 46.6078 174.354 45.4172 175.367 44.1505C176.431 42.8332 177.47 41.6172 178.483 40.5025C179.497 39.3878 180.535 38.4758 181.599 37.7665C182.663 37.0065 183.854 36.6265 185.171 36.6265C186.033 36.6265 186.463 36.9305 186.463 37.5385C186.463 38.0958 186.083 38.9318 185.323 40.0465C184.614 41.1612 183.803 42.3518 182.891 43.6185C181.979 44.8345 181.143 46.0505 180.383 47.2665C179.674 48.4318 179.319 49.3692 179.319 50.0785C179.319 50.6358 179.649 50.9145 180.307 50.9145C181.625 50.9145 182.891 50.3572 184.107 49.2425C185.323 48.0772 186.97 46.2785 189.047 43.8465L189.579 44.2265C188.769 45.1892 187.958 46.1518 187.147 47.1145C186.387 48.0772 185.577 48.9385 184.715 49.6985C183.854 50.4585 182.942 51.0918 181.979 51.5985C181.017 52.0545 179.927 52.2825 178.711 52.2825ZM201.408 37.6145C200.293 37.6145 199.153 38.0705 197.988 38.9825C196.823 39.8945 195.733 40.9838 194.72 42.2505C193.757 43.4665 192.947 44.7585 192.288 46.1265C191.68 47.4945 191.376 48.6345 191.376 49.5465C191.376 49.9012 191.452 50.3065 191.604 50.7625C191.756 51.1678 192.237 51.3705 193.048 51.3705C193.707 51.3705 194.391 51.1425 195.1 50.6865C195.86 50.2305 196.62 49.6478 197.38 48.9385C198.14 48.2292 198.849 47.4438 199.508 46.5825C200.217 45.7212 200.876 44.8598 201.484 43.9985C202.041 43.1878 202.523 42.3772 202.928 41.5665C203.384 40.7558 203.612 40.0718 203.612 39.5145C203.612 38.8052 203.384 38.3238 202.928 38.0705C202.472 37.7665 201.965 37.6145 201.408 37.6145ZM205.664 38.3745C205.968 37.9692 206.272 37.6398 206.576 37.3865C206.88 37.1332 207.336 37.0065 207.944 37.0065H209.388C209.793 37.0065 209.996 37.1585 209.996 37.4625C209.996 37.5132 209.971 37.5892 209.92 37.6905C209.92 37.7412 209.869 37.8678 209.768 38.0705C209.312 38.7798 208.679 39.6918 207.868 40.8065C207.057 41.9212 206.272 43.0865 205.512 44.3025C204.752 45.4678 204.068 46.5825 203.46 47.6465C202.903 48.6598 202.624 49.4452 202.624 50.0025C202.624 50.6105 202.903 50.9145 203.46 50.9145C204.777 50.9145 206.044 50.3572 207.26 49.2425C208.476 48.0772 210.123 46.2785 212.2 43.8465L212.732 44.2265C211.921 45.1892 211.111 46.1518 210.3 47.1145C209.54 48.0772 208.729 48.9385 207.868 49.6985C207.007 50.4585 206.095 51.0918 205.132 51.5985C204.169 52.0545 203.08 52.2825 201.864 52.2825C201.003 52.2825 200.268 52.1305 199.66 51.8265C199.052 51.4718 198.748 50.8892 198.748 50.0785C198.748 49.8252 198.799 49.5212 198.9 49.1665C199.052 48.7612 199.28 48.3305 199.584 47.8745V47.7985C198.267 49.2678 196.975 50.4078 195.708 51.2185C194.492 51.9785 193.124 52.3585 191.604 52.3585C190.084 52.3585 189.045 52.0292 188.488 51.3705C187.981 50.7118 187.728 49.9772 187.728 49.1665C187.728 47.7985 188.108 46.3798 188.868 44.9105C189.679 43.4412 190.717 42.0985 191.984 40.8825C193.251 39.6665 194.669 38.6785 196.24 37.9185C197.811 37.1585 199.381 36.7785 200.952 36.7785C202.219 36.7785 203.181 37.0065 203.84 37.4625C204.499 37.8678 204.98 38.3492 205.284 38.9065L205.664 38.3745ZM227.841 52.2825C226.98 52.2825 226.245 52.1052 225.637 51.7505C225.08 51.3452 224.801 50.7372 224.801 49.9265C224.801 49.3692 225.004 48.6598 225.409 47.7985C225.814 46.9372 226.321 45.9998 226.929 44.9865C226.473 44.9358 225.992 44.9105 225.485 44.9105C224.978 44.8598 224.396 44.8345 223.737 44.8345C223.332 44.8345 222.952 44.8345 222.597 44.8345C222.242 44.8345 221.862 44.8598 221.457 44.9105L217.581 50.6865C217.226 51.1932 216.872 51.5478 216.517 51.7505C216.162 51.9025 215.782 51.9785 215.377 51.9785H213.401C213.046 51.9785 212.869 51.8265 212.869 51.5225C212.869 51.3705 212.945 51.1678 213.097 50.9145C213.756 50.0532 214.516 49.0145 215.377 47.7985C216.289 46.5825 217.125 45.3918 217.885 44.2265C218.696 43.0105 219.354 41.9212 219.861 40.9585C220.418 39.9452 220.697 39.2358 220.697 38.8305C220.697 38.2732 220.418 37.9945 219.861 37.9945C219.405 37.9945 218.873 38.1972 218.265 38.6025C217.657 38.9572 216.998 39.4638 216.289 40.1225C215.63 40.7812 214.921 41.5158 214.161 42.3265C213.452 43.1372 212.742 43.9478 212.033 44.7585L211.425 44.4545C212.337 43.4412 213.224 42.4785 214.085 41.5665C214.946 40.6038 215.782 39.7678 216.593 39.0585C217.454 38.2985 218.29 37.7158 219.101 37.3105C219.912 36.8545 220.697 36.6265 221.457 36.6265C222.622 36.6265 223.408 36.8292 223.813 37.2345C224.269 37.6398 224.497 38.1718 224.497 38.8305C224.497 39.8438 223.661 41.5918 221.989 44.0745C222.394 44.1252 222.8 44.1505 223.205 44.1505C223.61 44.1505 224.066 44.1505 224.573 44.1505H227.385C228.094 43.0358 228.804 41.9718 229.513 40.9585C230.273 39.8945 230.932 39.0078 231.489 38.2985C231.793 37.8932 232.097 37.5892 232.401 37.3865C232.756 37.1332 233.262 37.0065 233.921 37.0065H235.137C235.542 37.0065 235.745 37.1585 235.745 37.4625C235.745 37.5132 235.72 37.5892 235.669 37.6905C235.669 37.7412 235.618 37.8678 235.517 38.0705C235.061 38.7798 234.428 39.7172 233.617 40.8825C232.857 41.9972 232.072 43.1372 231.261 44.3025C230.501 45.4678 229.842 46.5825 229.285 47.6465C228.728 48.7105 228.449 49.5212 228.449 50.0785C228.449 50.6358 228.778 50.9145 229.437 50.9145C230.754 50.9145 232.021 50.3572 233.237 49.2425C234.453 48.0772 236.1 46.2785 238.177 43.8465L238.709 44.2265C237.898 45.1892 237.088 46.1518 236.277 47.1145C235.517 48.0772 234.706 48.9385 233.845 49.6985C232.984 50.4585 232.072 51.0918 231.109 51.5985C230.146 52.0545 229.057 52.2825 227.841 52.2825ZM255.636 52.2825C254.775 52.2825 254.04 52.1052 253.432 51.7505C252.824 51.3452 252.52 50.7372 252.52 49.9265C252.52 48.8625 252.875 47.7225 253.584 46.5065C254.344 45.2905 255.054 44.2518 255.712 43.3905L255.636 43.3145C254.623 44.4292 253.534 45.5185 252.368 46.5825C251.203 47.6465 250.038 48.6092 248.872 49.4705C247.758 50.2812 246.668 50.9398 245.604 51.4465C244.591 51.9532 243.73 52.2065 243.02 52.2065C241.348 52.2065 240.512 51.5478 240.512 50.2305C240.512 49.5212 240.715 48.8372 241.12 48.1785C241.526 47.5198 242.032 46.7598 242.64 45.8985C243.096 45.2398 243.578 44.5812 244.084 43.9225C244.591 43.2638 245.047 42.6305 245.452 42.0225C245.908 41.3638 246.263 40.7812 246.516 40.2745C246.77 39.7172 246.896 39.2358 246.896 38.8305C246.896 38.2732 246.618 37.9945 246.06 37.9945C245.604 37.9945 245.047 38.1972 244.388 38.6025C243.78 38.9572 243.096 39.4638 242.336 40.1225C241.627 40.7812 240.867 41.5158 240.056 42.3265C239.296 43.1372 238.562 43.9478 237.852 44.7585L237.396 44.4545C238.308 43.4412 239.195 42.4785 240.056 41.5665C240.968 40.6038 241.855 39.7678 242.716 39.0585C243.578 38.2985 244.414 37.7158 245.224 37.3105C246.086 36.8545 246.896 36.6265 247.656 36.6265C248.67 36.6265 249.404 36.8292 249.86 37.2345C250.367 37.6398 250.62 38.1972 250.62 38.9065C250.62 39.8692 250.266 40.9332 249.556 42.0985C248.898 43.2638 248.163 44.3785 247.352 45.4425C246.592 46.5065 245.858 47.4945 245.148 48.4065C244.49 49.2678 244.16 49.9265 244.16 50.3825C244.16 50.6865 244.312 50.8385 244.616 50.8385C245.478 50.8385 246.618 50.3318 248.036 49.3185C249.455 48.3052 250.899 47.1145 252.368 45.7465C253.838 44.3785 255.206 43.0105 256.472 41.6425C257.739 40.2238 258.676 39.1092 259.284 38.2985C259.588 37.8932 259.892 37.5892 260.196 37.3865C260.551 37.1332 261.058 37.0065 261.716 37.0065H262.932C263.338 37.0065 263.54 37.1585 263.54 37.4625C263.54 37.5132 263.515 37.5892 263.464 37.6905C263.464 37.7412 263.414 37.8678 263.312 38.0705C262.704 38.9825 261.995 40.0212 261.184 41.1865C260.374 42.3518 259.588 43.5172 258.828 44.6825C258.119 45.7972 257.511 46.8612 257.004 47.8745C256.498 48.8372 256.244 49.5718 256.244 50.0785C256.244 50.6358 256.574 50.9145 257.232 50.9145C258.55 50.9145 259.816 50.3572 261.032 49.2425C262.248 48.0772 263.895 46.2785 265.972 43.8465L266.504 44.2265C265.694 45.1892 264.883 46.1518 264.072 47.1145C263.312 48.0772 262.502 48.9385 261.64 49.6985C260.779 50.4585 259.867 51.0918 258.904 51.5985C257.942 52.0545 256.852 52.2825 255.636 52.2825ZM278.675 37.0065C278.016 37.0065 277.358 37.2092 276.699 37.6145C276.04 38.0198 275.458 38.5265 274.951 39.1345C274.444 39.7425 274.014 40.4012 273.659 41.1105C273.355 41.8198 273.203 42.4785 273.203 43.0865C273.203 43.8972 273.634 44.3025 274.495 44.3025C275.103 44.3025 275.762 44.0745 276.471 43.6185C277.18 43.1625 277.839 42.6305 278.447 42.0225C279.055 41.4145 279.536 40.7812 279.891 40.1225C280.296 39.4638 280.499 38.9318 280.499 38.5265C280.499 37.9692 280.296 37.5892 279.891 37.3865C279.536 37.1332 279.131 37.0065 278.675 37.0065ZM278.751 52.2825C277.788 52.2825 277.003 52.1052 276.395 51.7505C275.838 51.3452 275.559 50.7625 275.559 50.0025C275.559 49.4452 275.686 48.7865 275.939 48.0265C276.243 47.2665 276.851 46.0758 277.763 44.4545H277.687C277.18 45.1638 276.522 45.9492 275.711 46.8105C274.951 47.6718 274.292 48.3812 273.735 48.9385C272.114 50.4078 270.568 51.3705 269.099 51.8265C267.68 52.2825 266.388 52.5105 265.223 52.5105C264.21 52.5105 263.424 52.2825 262.867 51.8265C262.31 51.3198 262.031 50.6105 262.031 49.6985C262.031 48.6345 262.31 47.6212 262.867 46.6585C263.475 45.6452 264.184 44.9105 264.995 44.4545C265.806 43.9478 266.642 43.7705 267.503 43.9225C268.415 44.0238 268.922 44.7078 269.023 45.9745C269.074 46.4305 268.846 46.9372 268.339 47.4945C267.832 48.0518 267.351 48.3305 266.895 48.3305C266.388 48.3305 266.034 48.1532 265.831 47.7985C265.679 47.3932 265.4 47.1652 264.995 47.1145C264.742 47.1145 264.336 47.3425 263.779 47.7985C263.272 48.2545 263.019 48.9132 263.019 49.7745C263.019 50.2305 263.196 50.6865 263.551 51.1425C263.906 51.5478 264.438 51.7505 265.147 51.7505C266.16 51.7505 267.326 51.5732 268.643 51.2185C269.96 50.8132 271.556 49.7745 273.431 48.1025C273.988 47.5452 274.647 46.8612 275.407 46.0505C276.167 45.2398 276.8 44.5052 277.307 43.8465C276.192 44.6572 274.976 45.0625 273.659 45.0625C272.544 45.0625 271.607 44.8598 270.847 44.4545C270.138 43.9985 269.783 43.3398 269.783 42.4785C269.783 41.7692 269.986 41.0598 270.391 40.3505C270.796 39.5905 271.354 38.9318 272.063 38.3745C272.772 37.7665 273.634 37.2852 274.647 36.9305C275.66 36.5758 276.775 36.3985 277.991 36.3985C279.106 36.3985 279.992 36.6265 280.651 37.0825C281.36 37.4878 281.791 37.8932 281.943 38.2985H282.095C282.45 37.8425 282.754 37.5132 283.007 37.3105C283.311 37.1078 283.691 37.0065 284.147 37.0065H285.819C286.224 37.0065 286.427 37.1585 286.427 37.4625C286.427 37.5132 286.402 37.5892 286.351 37.6905C286.351 37.7412 286.3 37.8678 286.199 38.0705C285.591 38.9825 284.882 40.0212 284.071 41.1865C283.26 42.3518 282.475 43.5172 281.715 44.6825C281.006 45.7972 280.398 46.8358 279.891 47.7985C279.384 48.7612 279.131 49.4958 279.131 50.0025C279.131 50.6105 279.486 50.9145 280.195 50.9145C281.512 50.9145 282.83 50.3825 284.147 49.3185C285.464 48.2038 287.162 46.4305 289.239 43.9985L289.771 44.3785C288.96 45.3412 288.15 46.3038 287.339 47.2665C286.528 48.1785 285.667 49.0145 284.755 49.7745C283.894 50.5345 282.956 51.1425 281.943 51.5985C280.93 52.0545 279.815 52.2825 278.599 52.2825H278.751Z" fill="#112250"></path></svg> 