<?xml version="1.0" encoding="UTF-8"?> <svg xmlns="http://www.w3.org/2000/svg" width="77" height="77" viewBox="0 0 77 77" fill="none"><path d="M32.7913 2.70886C17.0561 5.02811 5.31714 18.4441 4.56784 34.9999C4.31808 40.4234 4.78193 44.3126 6.28052 48.6657C8.27864 54.7314 10.8833 58.9417 15.1293 63.1877C24.1566 72.1793 36.7519 75.3549 48.5622 71.6084C56.3049 69.1107 63.7979 62.6168 67.6157 55.0168C69.7209 50.8065 70.5772 47.9164 71.2195 42.5643C71.612 39.3887 71.612 38.3539 71.0768 34.5361C70.042 27.1502 68.5791 22.8685 65.4035 17.9802C59.8016 9.41684 51.1312 3.88633 41.1049 2.56614C37.7509 2.10229 36.966 2.10229 32.7913 2.70886ZM44.78 4.92107C60.8007 8.88163 71.9331 24.7239 70.1491 41.0657C69.2214 49.7718 66.1171 56.5154 60.4439 62.1887C54.4495 68.1474 47.2063 71.1445 38.7143 71.1445C23.8354 71.1089 11.1331 60.6187 7.31526 45.169C6.20916 40.6375 6.20916 33.6441 7.31526 29.1483C10.1697 17.5164 18.1622 8.77459 28.9021 5.38492C33.719 3.88633 39.8561 3.70792 44.78 4.92107Z" fill="#253758" stroke="#253758" stroke-width="2"></path><path d="M43.3168 15.8394C41.6041 16.9812 40.5694 19.122 39.9271 22.7614C39.0708 27.4356 39.6774 33.9652 41.8896 45.276C43.6023 54.0535 45.7074 57.5859 49.775 58.5492C51.7018 59.0131 53.914 58.5849 55.5553 57.4431C57.8389 55.8018 58.7666 51.3417 58.0173 45.5258C57.7675 43.7417 57.268 39.6384 56.9112 36.3915C55.4483 24.0103 53.3431 18.0873 49.6323 15.9107C47.5985 14.7333 45.0295 14.6976 43.3168 15.8394ZM48.2051 17.3736C51.6661 19.015 53.3074 24.2243 55.3412 39.8168C55.6623 42.3502 56.0548 45.2403 56.2332 46.2394C56.9469 50.9136 56.4473 54.0891 54.6276 55.9089C52.3797 58.1567 48.883 57.8356 46.314 55.1596C44.7084 53.4469 44.3159 52.1624 43.2098 44.8121C42.9243 42.8497 42.4962 39.8882 42.2107 38.2112C41.9609 36.4985 41.7469 32.2168 41.7469 28.399C41.7825 22.2619 41.8539 21.4769 42.5318 20.014C43.9234 17.0168 45.7074 16.1962 48.2051 17.3736Z" fill="#253758" stroke="#253758" stroke-width="2"></path><path d="M24.9052 18.9438C20.8733 21.4058 20.1954 30.5401 22.9785 45.3476C24.3343 52.5551 24.7625 54.3391 25.7972 56.5157C27.5813 60.2978 29.6151 61.7607 33.0404 61.7607C39.0348 61.7607 40.8188 57.265 39.2846 45.8828C38.9634 43.5279 38.4639 39.496 38.1785 36.9626C37.0724 27.0434 34.4677 20.6208 30.8282 18.7298C29.3653 17.9805 26.2968 18.0875 24.9052 18.9438ZM29.508 20.3354C32.8977 21.6199 35.3597 28.4706 36.5728 39.9955C36.7869 42.065 37.2151 45.1692 37.5005 46.9532C37.8217 48.7016 38.0357 51.556 38.0357 53.233C38.0357 56.8725 37.3221 58.6922 35.4667 59.7626C34.0395 60.619 31.4348 60.6546 29.9005 59.8697C28.4733 59.1204 26.7606 57.1222 26.2611 55.6237C25.4047 52.9833 23.5494 39.5673 23.1925 33.5729C22.6217 23.7964 25.0836 18.6584 29.508 20.3354Z" fill="#253758" stroke="#253758" stroke-width="2"></path></svg> 