<?xml version="1.0" encoding="UTF-8"?> <svg xmlns="http://www.w3.org/2000/svg" width="430" height="206" viewBox="0 0 430 206" fill="none"><path d="M159.111 162.012C177.922 146.003 188.695 132.795 191.43 122.39C193.497 114.318 192.097 108.248 187.227 104.179C182.758 100.444 176.154 98.9095 167.416 99.5766C158.744 100.31 149.839 102.979 140.701 107.581C130.829 112.584 122.491 119.054 115.687 126.992C112.085 131.195 109.85 135.13 108.983 138.799C108.249 142.067 108.683 144.802 110.284 147.003C114.019 152.34 122.757 151.539 136.498 144.602C137.099 144.535 137.432 144.769 137.499 145.303C137.632 145.836 137.466 146.236 136.999 146.503C131.996 150.305 126.926 152.473 121.79 153.007C117.054 153.541 113.119 152.607 109.983 150.205C106.848 147.804 105.247 144.469 105.181 140.2C105.114 135.464 107.048 130.361 110.984 124.891C120.523 111.55 134.297 102.645 152.307 98.1758C160.245 96.1747 167.583 95.6077 174.32 96.4748C181.324 97.342 186.694 99.6433 190.429 103.379V103.279C197.233 109.482 198.6 118.921 194.531 131.595C192.93 136.531 190.396 142.234 186.927 148.704C185.593 151.306 183.992 154.174 182.124 157.309C180.99 159.31 177.989 164.313 173.119 172.318C168.317 180.256 165.382 186.292 164.314 190.428C162.713 196.365 163.981 199.833 168.116 200.834C169.717 201.168 171.385 200.967 173.119 200.234C174.854 199.433 176.154 198.199 177.021 196.532C177.288 196.265 177.588 196.265 177.922 196.532C178.322 196.732 178.422 197.032 178.222 197.432C176.888 199.767 174.954 201.301 172.419 202.035C170.084 202.702 167.783 202.568 165.515 201.634C163.114 200.701 161.379 199.133 160.312 196.932C159.111 194.464 158.978 191.562 159.912 188.227C161.179 183.758 165.015 176.42 171.418 166.214L172.719 164.213L175.421 160.011L178.222 155.708C180.357 152.306 182.124 149.405 183.525 147.003C187.527 140.333 190.429 134.697 192.23 130.094C187.561 139.433 178.189 150.272 164.114 162.612L161.413 164.914C146.204 177.721 131.529 187.36 117.388 193.83C101.779 200.901 91.7064 201.568 87.1705 195.831C82.9014 190.562 84.8025 184.258 92.8737 176.92C100.278 170.317 110.717 165.781 124.191 163.313L120.89 167.015C110.15 170.283 101.278 174.786 94.2745 180.522C88.3378 185.392 86.5702 189.894 88.9715 194.03C91.9732 199.233 100.545 198.499 114.686 191.829C127.627 185.692 141.401 176.62 156.01 164.613L159.111 162.012ZM233.03 162.412C233.43 162.612 233.53 162.913 233.33 163.313L233.13 163.513C233.063 163.646 232.93 163.846 232.73 164.113C232.263 164.647 231.762 165.247 231.229 165.914C229.561 167.849 227.86 169.583 226.126 171.117C220.589 175.92 215.953 177.621 212.218 176.22C208.683 174.886 208.849 170.95 212.718 164.413C213.385 163.279 214.152 162.079 215.02 160.811L216.12 159.11C216.454 158.71 216.821 158.21 217.221 157.609C218.755 155.475 219.489 154.341 219.422 154.208C219.355 154.341 219.022 154.775 218.421 155.508C217.754 156.375 216.987 157.343 216.12 158.41C213.786 161.278 211.451 163.946 209.116 166.414C201.912 173.885 196.843 177.354 193.908 176.82C192.373 176.554 191.506 175.653 191.306 174.119C190.906 171.184 192.407 166.915 195.809 161.312L196.809 159.711L197.81 158.21C198.61 156.876 199.211 155.875 199.611 155.208C200.811 153.14 201.512 151.573 201.712 150.505C201.712 150.039 201.979 149.705 202.512 149.505C202.979 149.371 203.546 149.405 204.213 149.605C204.88 149.805 205.381 150.105 205.714 150.505C206.114 150.972 206.148 151.473 205.814 152.006C205.614 152.807 204.814 154.441 203.413 156.909C202.879 157.776 202.179 158.977 201.312 160.511L200.211 162.312L199.01 164.213C195.275 170.617 193.808 173.985 194.608 174.319C195.609 174.652 200.044 171.084 207.916 163.613C215.987 155.875 220.456 150.472 221.323 147.404C221.59 146.603 222.29 146.603 223.424 147.404C224.558 148.271 225.159 149.038 225.225 149.705C225.225 150.639 224.525 152.373 223.124 154.908C222.591 155.909 221.857 157.143 220.923 158.61L219.722 160.611L218.522 162.512C214.453 169.316 212.918 173.252 213.919 174.319C214.653 175.119 217.888 173.385 223.624 169.116C225.492 167.782 227.46 166.281 229.528 164.613C230.195 164.08 230.829 163.546 231.429 163.013C231.629 162.879 231.796 162.746 231.929 162.612L232.129 162.412C232.396 162.212 232.696 162.212 233.03 162.412ZM268.185 162.412C268.452 162.212 268.752 162.212 269.085 162.412C269.486 162.612 269.586 162.913 269.386 163.313L269.185 163.513C269.119 163.646 268.985 163.846 268.785 164.113C268.318 164.647 267.818 165.247 267.284 165.914C265.617 167.849 263.916 169.583 262.181 171.117C256.645 175.92 252.009 177.621 248.274 176.22C244.738 174.886 244.905 170.95 248.774 164.413C249.441 163.279 250.208 162.079 251.075 160.811L252.176 159.11C252.509 158.71 252.876 158.21 253.276 157.609C254.811 155.475 255.544 154.341 255.478 154.208C255.411 154.341 255.077 154.775 254.477 155.508C253.81 156.375 253.043 157.343 252.176 158.41C249.841 161.278 247.506 163.946 245.172 166.414C237.968 173.885 232.898 177.354 229.963 176.82C228.429 176.554 227.562 175.653 227.362 174.119C226.961 171.184 228.296 167.182 231.364 162.112L232.164 160.111C232.164 159.644 232.431 159.31 232.965 159.11C233.432 158.977 233.999 159.01 234.666 159.21C235.333 159.411 235.833 159.711 236.167 160.111C236.567 160.578 236.6 161.078 236.267 161.612L235.766 163.113L234.566 165.014C231.164 170.884 229.863 173.985 230.664 174.319C231.664 174.652 236.1 171.084 243.971 163.613C252.042 155.875 256.512 150.472 257.379 147.404C257.646 146.603 258.346 146.603 259.48 147.404C260.614 148.271 261.214 149.038 261.281 149.705C261.281 150.639 260.581 152.373 259.18 154.908C258.646 155.909 257.912 157.143 256.978 158.61L255.778 160.611L254.577 162.512C250.508 169.316 248.974 173.252 249.975 174.319C250.708 175.119 253.943 173.385 259.68 169.116C261.548 167.782 263.516 166.281 265.583 164.613C266.25 164.08 266.884 163.546 267.484 163.013C267.685 162.879 267.851 162.746 267.985 162.612L268.185 162.412ZM305.141 162.412C305.541 162.612 305.641 162.913 305.441 163.313L305.241 163.513C305.174 163.646 305.041 163.846 304.841 164.113C304.374 164.647 303.874 165.247 303.34 165.914C301.672 167.849 299.971 169.583 298.237 171.117C292.701 175.92 288.065 177.621 284.329 176.22C280.794 174.886 280.961 170.95 284.829 164.413C285.496 163.279 286.264 162.079 287.131 160.811L288.231 159.11C288.565 158.71 288.932 158.21 289.332 157.609C290.866 155.475 291.6 154.341 291.533 154.208C291.467 154.341 291.133 154.775 290.533 155.508C289.866 156.375 289.099 157.343 288.231 158.41C285.897 161.278 283.562 163.946 281.227 166.414C274.023 173.885 268.954 177.354 266.019 176.82C264.485 176.554 263.617 175.653 263.417 174.119C263.017 171.184 264.518 166.915 267.92 161.312L268.92 159.711L269.921 158.21C270.721 156.876 271.322 155.875 271.722 155.208C272.923 153.14 273.623 151.573 273.823 150.505C273.823 150.039 274.09 149.705 274.624 149.505C275.091 149.371 275.658 149.405 276.325 149.605C276.992 149.805 277.492 150.105 277.825 150.505C278.226 150.972 278.259 151.473 277.926 152.006C277.725 152.807 276.925 154.441 275.524 156.909C274.991 157.776 274.29 158.977 273.423 160.511L272.322 162.312L271.122 164.213C267.386 170.617 265.919 173.985 266.719 174.319C267.72 174.652 272.156 171.084 280.027 163.613C288.098 155.875 292.567 150.472 293.434 147.404C293.701 146.603 294.402 146.603 295.536 147.404C296.669 148.271 297.27 149.038 297.337 149.705C297.337 150.639 296.636 152.373 295.235 154.908C294.702 155.909 293.968 157.143 293.034 158.61L291.833 160.611L290.633 162.512C286.564 169.316 285.03 173.252 286.03 174.319C286.764 175.119 289.999 173.385 295.736 169.116C297.603 167.782 299.571 166.281 301.639 164.613C302.306 164.08 302.94 163.546 303.54 163.013C303.74 162.879 303.907 162.746 304.04 162.612L304.24 162.412C304.507 162.212 304.807 162.212 305.141 162.412ZM341.197 162.412C341.597 162.612 341.697 162.913 341.497 163.313L341.297 163.513C341.23 163.646 341.097 163.846 340.896 164.113C340.429 164.647 339.929 165.247 339.396 165.914C337.728 167.849 336.027 169.583 334.293 171.117C328.756 175.92 324.12 177.621 320.385 176.22C316.849 174.886 317.016 170.95 320.885 164.413C321.552 163.279 322.319 162.079 323.186 160.811L324.287 159.11C324.621 158.71 324.987 158.21 325.388 157.609C326.922 155.475 327.656 154.341 327.589 154.208C327.522 154.341 327.189 154.775 326.588 155.508C325.921 156.375 325.154 157.343 324.287 158.41C321.952 161.278 319.618 163.946 317.283 166.414C310.079 173.885 305.009 177.354 302.074 176.82C300.54 176.554 299.673 175.653 299.473 174.119C299.073 171.184 300.574 166.915 303.975 161.312L304.976 159.711L305.977 158.21C306.777 156.876 307.377 155.875 307.778 155.208C308.978 153.14 309.679 151.573 309.879 150.505C309.879 150.039 310.146 149.705 310.679 149.505C311.146 149.371 311.713 149.405 312.38 149.605C313.047 149.805 313.548 150.105 313.881 150.505C314.281 150.972 314.315 151.473 313.981 152.006C313.781 152.807 312.981 154.441 311.58 156.909C311.046 157.776 310.346 158.977 309.479 160.511L308.378 162.312L307.177 164.213C303.442 170.617 301.974 173.985 302.775 174.319C303.775 174.652 308.211 171.084 316.082 163.613C324.154 155.875 328.623 150.472 329.49 147.404C329.757 146.603 330.457 146.603 331.591 147.404C332.725 148.271 333.325 149.038 333.392 149.705C333.392 150.639 332.692 152.373 331.291 154.908C330.757 155.909 330.024 157.143 329.09 158.61L327.889 160.611L326.688 162.512C322.619 169.316 321.085 173.252 322.086 174.319C322.819 175.119 326.055 173.385 331.791 169.116C333.659 167.782 335.627 166.281 337.695 164.613C338.362 164.08 338.995 163.546 339.596 163.013C339.796 162.879 339.963 162.746 340.096 162.612L340.296 162.412C340.563 162.212 340.863 162.212 341.197 162.412Z" fill="#402A0C"></path><path d="M186.429 47.5208V54.6677H185.857C185.819 54.1722 185.685 53.6195 185.457 53.0097C185.228 52.3998 184.904 51.828 184.485 51.2944C184.104 50.7989 183.646 50.3796 183.113 50.0366C182.579 49.6935 181.988 49.522 181.34 49.522H154.982C154.334 49.522 153.743 49.6935 153.21 50.0366C152.676 50.4177 152.2 50.8561 151.78 51.3516C151.399 51.8852 151.075 52.457 150.808 53.0668C150.58 53.6767 150.446 54.2103 150.408 54.6677H149.837V47.5208H152.352C153.572 47.5208 154.43 46.8157 154.925 45.4054L168.075 10.9287L181.34 45.2338C181.607 45.8056 181.969 46.3392 182.426 46.8347C182.884 47.2921 183.417 47.5208 184.027 47.5208H186.429ZM156.183 47.5208H178.195L167.161 19.1047L156.183 47.5208ZM191.076 48.9502H191.362C191.667 48.9502 191.934 48.8549 192.163 48.6643C192.391 48.4356 192.582 48.1688 192.734 47.8639C192.925 47.559 193.058 47.235 193.135 46.8919C193.249 46.5489 193.306 46.2249 193.306 45.9199V15.3312C193.306 15.0643 193.249 14.7594 193.135 14.4164C193.058 14.0733 192.925 13.7493 192.734 13.4444C192.582 13.1394 192.391 12.8917 192.163 12.7011C191.934 12.4724 191.667 12.358 191.362 12.358H191.076V11.7863H213.089V17.1036H212.517C212.441 16.2269 212.098 15.4646 211.488 14.8166C210.878 14.1305 209.925 13.7874 208.629 13.7874H197.137V28.2528H206.628C207.505 28.2528 208.229 27.986 208.801 27.4523C209.411 26.9187 209.716 26.2898 209.716 25.5655H210.287V32.7124H209.716C209.716 32.0263 209.43 31.4355 208.858 30.94C208.286 30.4445 207.543 30.1967 206.628 30.1967H197.137V47.5208H209.658C210.383 47.5208 211.012 47.3493 211.545 47.0063C212.079 46.6632 212.517 46.263 212.86 45.8056C213.241 45.3101 213.508 44.7955 213.661 44.2618C213.851 43.6901 213.947 43.2136 213.947 42.8325H214.518V49.522H191.076V48.9502ZM241.639 48.9502H241.925C242.192 48.9502 242.44 48.8549 242.669 48.6643C242.897 48.4356 243.088 48.1688 243.24 47.8639C243.431 47.5208 243.564 47.1778 243.641 46.8347C243.717 46.4536 243.755 46.1105 243.755 45.8056V30.2539H225.459V45.8056C225.459 46.1105 225.497 46.4536 225.573 46.8347C225.649 47.1778 225.764 47.5018 225.916 47.8067C226.069 48.1116 226.24 48.3785 226.431 48.6072C226.66 48.8359 226.926 48.9502 227.231 48.9502H227.517V49.522H219.513V48.9502H219.798C220.065 48.9502 220.313 48.8549 220.542 48.6643C220.77 48.4356 220.961 48.1688 221.114 47.8639C221.304 47.5208 221.438 47.1778 221.514 46.8347C221.59 46.4536 221.628 46.1105 221.628 45.8056V15.3312C221.628 15.0643 221.59 14.7594 221.514 14.4164C221.438 14.0733 221.323 13.7493 221.171 13.4444C221.018 13.1394 220.828 12.8917 220.599 12.7011C220.37 12.4724 220.103 12.358 219.798 12.358H219.513V11.7863H227.517V12.358H227.231C226.926 12.358 226.66 12.4724 226.431 12.7011C226.202 12.8917 226.012 13.1394 225.859 13.4444C225.745 13.7493 225.649 14.0733 225.573 14.4164C225.497 14.7594 225.459 15.0643 225.459 15.3312V28.2528H243.755V15.3312C243.755 15.0643 243.717 14.7594 243.641 14.4164C243.564 14.0733 243.45 13.7493 243.298 13.4444C243.145 13.1394 242.954 12.8917 242.726 12.7011C242.497 12.4724 242.23 12.358 241.925 12.358H241.639V11.7863H249.644V12.358H249.358C249.053 12.358 248.786 12.4724 248.558 12.7011C248.329 12.8917 248.138 13.1394 247.986 13.4444C247.872 13.7493 247.776 14.0733 247.7 14.4164C247.624 14.7594 247.586 15.0643 247.586 15.3312V45.8056C247.586 46.1105 247.624 46.4536 247.7 46.8347C247.814 47.1778 247.948 47.5018 248.1 47.8067C248.253 48.1116 248.424 48.3785 248.615 48.6072C248.844 48.8359 249.091 48.9502 249.358 48.9502H249.644V49.522H241.639V48.9502ZM254.394 48.9502H254.679C254.946 48.9502 255.194 48.8549 255.423 48.6643C255.651 48.4356 255.842 48.1688 255.994 47.8639C256.147 47.559 256.261 47.235 256.338 46.8919C256.452 46.5489 256.509 46.2439 256.509 45.9771V15.5027C256.509 15.2359 256.471 14.9119 256.395 14.5307C256.318 14.1495 256.185 13.8065 255.994 13.5015C255.842 13.1966 255.651 12.9298 255.423 12.7011C255.194 12.4724 254.946 12.358 254.679 12.358H254.394V11.7863H262.455V12.358H262.055C261.521 12.4343 261.102 12.8536 260.797 13.6159C260.492 14.3401 260.34 14.969 260.34 15.5027V27.7954H263.542C265.295 27.7954 267.01 27.986 268.687 28.3671C270.403 28.7102 271.908 29.32 273.204 30.1967C274.538 31.0353 275.606 32.1597 276.406 33.5701C277.207 34.9423 277.607 36.6575 277.607 38.7158C277.607 40.393 277.264 41.8986 276.578 43.2327C275.891 44.5668 274.958 45.7103 273.776 46.6632C272.594 47.578 271.184 48.2832 269.545 48.7787C267.944 49.2742 266.21 49.522 264.342 49.522H254.394V48.9502ZM261.197 47.5208C265.619 47.5208 268.783 46.7585 270.689 45.2338C272.632 43.7092 273.604 41.6127 273.604 38.9445C273.604 36.2382 272.632 34.0275 270.689 32.3122C268.783 30.597 265.962 29.7393 262.227 29.7393H260.34V47.5208H261.197ZM74.4353 74.7863H82.5542C86.7851 74.7863 89.987 75.6058 92.1596 77.2448C94.3704 78.8457 95.4758 81.1327 95.4758 84.1059C95.4758 85.7068 95.0946 87.1361 94.3323 88.394C93.5699 89.6519 92.5598 90.7191 91.302 91.5958C90.0823 92.4344 88.691 93.0824 87.1282 93.5398C85.6035 93.9972 84.0788 94.2259 82.5542 94.2259H80.3815V108.806C80.3815 109.111 80.4196 109.454 80.4959 109.835C80.5721 110.178 80.6864 110.502 80.8389 110.807C81.0295 111.112 81.2201 111.378 81.4107 111.607C81.6394 111.836 81.9062 111.95 82.2111 111.95H82.497V112.522H74.4353V111.95H74.7212C74.988 111.95 75.2357 111.836 75.4644 111.607C75.6931 111.378 75.8837 111.112 76.0362 110.807C76.1887 110.502 76.303 110.178 76.3792 109.835C76.4555 109.454 76.4936 109.111 76.4936 108.806V78.3312C76.4936 77.7975 76.3411 77.1876 76.0362 76.5015C75.7313 75.8154 75.2929 75.4343 74.7212 75.358H74.4353V74.7863ZM80.3815 76.7874V92.2247H82.0968C83.6214 92.2247 84.9746 92.0151 86.1562 91.5958C87.376 91.1765 88.3861 90.6238 89.1865 89.9377C89.987 89.2516 90.5968 88.4702 91.0161 87.5936C91.4354 86.7169 91.645 85.8211 91.645 84.9063C91.645 83.8009 91.4545 82.7718 91.0733 81.8188C90.7302 80.8278 90.1394 79.9702 89.3009 79.246C88.5004 78.4836 87.4331 77.8928 86.099 77.4735C84.765 77.0161 83.1259 76.7874 81.182 76.7874H80.3815ZM119.612 74.2145C122.585 74.2145 125.254 74.7482 127.617 75.8154C129.98 76.8446 131.981 78.2549 133.62 80.0464C135.297 81.7998 136.574 83.8581 137.451 86.2213C138.366 88.5465 138.823 90.986 138.823 93.5398C138.823 96.3985 138.29 99.0286 137.222 101.43C136.193 103.831 134.764 105.89 132.934 107.605C131.104 109.32 128.97 110.673 126.53 111.664C124.129 112.617 121.556 113.094 118.812 113.094C115.877 113.094 113.228 112.56 110.864 111.493C108.539 110.426 106.557 109.015 104.918 107.262C103.317 105.508 102.078 103.488 101.202 101.201C100.325 98.9143 99.8868 96.532 99.8868 94.0544C99.8868 91.6149 100.325 89.2135 101.202 86.8503C102.078 84.4489 103.355 82.3144 105.033 80.4466C106.748 78.5789 108.825 77.0733 111.265 75.9298C113.704 74.7863 116.487 74.2145 119.612 74.2145ZM119.555 111.093C122.109 110.978 124.339 110.406 126.245 109.377C128.189 108.31 129.809 106.976 131.104 105.375C132.4 103.736 133.353 101.945 133.963 100.001C134.611 98.0566 134.935 96.1317 134.935 94.2259C134.935 92.1295 134.554 90.014 133.792 87.8794C133.029 85.7449 131.943 83.82 130.533 82.1047C129.122 80.3513 127.426 78.941 125.444 77.8738C123.5 76.7684 121.308 76.2157 118.869 76.2157C116.506 76.2157 114.39 76.7493 112.523 77.8166C110.655 78.8457 109.054 80.1798 107.72 81.8188C106.424 83.4579 105.433 85.2875 104.747 87.3077C104.061 89.3279 103.718 91.3099 103.718 93.2539C103.718 95.3503 104.118 97.4658 104.918 99.6004C105.719 101.697 106.824 103.603 108.234 105.318C109.645 107.033 111.303 108.424 113.209 109.492C115.153 110.559 117.268 111.093 119.555 111.093ZM157.192 111.95H157.477C157.782 111.95 158.049 111.855 158.278 111.664C158.507 111.436 158.697 111.169 158.85 110.864C159.002 110.521 159.116 110.178 159.193 109.835C159.269 109.454 159.307 109.111 159.307 108.806V92.7393C157.668 92.7393 156.315 93.2158 155.248 94.1687C154.18 95.0835 153.304 96.227 152.618 97.5992L148.044 106.804C147.7 107.529 147.319 108.234 146.9 108.92C146.519 109.606 146.061 110.216 145.528 110.75C144.994 111.283 144.365 111.722 143.641 112.065C142.917 112.37 142.021 112.522 140.954 112.522H138.324V111.95C139.048 111.95 139.715 111.741 140.325 111.321C140.935 110.864 141.468 110.33 141.926 109.72C142.421 109.072 142.841 108.424 143.184 107.776C143.565 107.128 143.87 106.576 144.098 106.118L148.615 96.9703C149.492 95.1407 150.616 93.7304 151.989 92.7393C153.399 91.7483 155.248 91.2528 157.535 91.2528L144.67 77.7022C144.022 77.0161 143.374 76.4634 142.726 76.0441C142.116 75.6249 141.468 75.3962 140.782 75.358V74.7863H147.014V75.358C146.595 75.4724 146.385 75.682 146.385 75.987C146.385 76.1013 146.462 76.2728 146.614 76.5015L159.307 90.1093V78.3312C159.307 78.0643 159.269 77.7594 159.193 77.4164C159.116 77.0733 159.002 76.7493 158.85 76.4444C158.697 76.1394 158.507 75.8917 158.278 75.7011C158.049 75.4724 157.782 75.358 157.477 75.358H157.192V74.7863H165.253V75.358H164.796C164.262 75.4343 163.843 75.8154 163.538 76.5015C163.233 77.1876 163.081 77.7975 163.081 78.3312V90.1093L175.831 76.5015C175.983 76.3491 176.059 76.1776 176.059 75.987C176.059 75.5677 175.831 75.358 175.373 75.358V74.7863H181.605V75.358C180.957 75.4343 180.29 75.7011 179.604 76.1585C178.918 76.5778 178.308 77.0924 177.775 77.7022L164.91 91.2528C167.312 91.2528 169.179 91.7483 170.513 92.7393C171.848 93.7304 172.972 95.1407 173.887 96.9703L178.346 106.118C178.575 106.576 178.861 107.128 179.204 107.776C179.547 108.424 179.966 109.072 180.462 109.72C180.957 110.33 181.51 110.864 182.12 111.321C182.73 111.741 183.397 111.95 184.121 111.95V112.522H181.434C180.405 112.522 179.528 112.37 178.804 112.065C178.08 111.722 177.451 111.302 176.917 110.807C176.383 110.273 175.926 109.663 175.545 108.977C175.164 108.291 174.783 107.567 174.401 106.804L169.827 97.5992C169.141 96.2651 168.265 95.1216 167.197 94.1687C166.168 93.2158 164.796 92.7393 163.081 92.7393V108.806C163.081 109.111 163.119 109.435 163.195 109.778C163.271 110.121 163.386 110.464 163.538 110.807C163.691 111.112 163.862 111.378 164.053 111.607C164.281 111.836 164.548 111.95 164.853 111.95H165.253V112.522H157.192V111.95ZM222.889 110.521V117.668H222.317C222.279 117.172 222.146 116.62 221.917 116.01C221.688 115.4 221.364 114.828 220.945 114.294C220.564 113.799 220.107 113.38 219.573 113.037C219.039 112.693 218.448 112.522 217.801 112.522H191.443C190.795 112.522 190.204 112.693 189.67 113.037C189.137 113.418 188.66 113.856 188.241 114.352C187.86 114.885 187.536 115.457 187.269 116.067C187.04 116.677 186.907 117.21 186.869 117.668H186.297V110.521H188.813C190.032 110.521 190.89 109.816 191.386 108.405L204.536 73.9287L217.801 108.234C218.067 108.806 218.429 109.339 218.887 109.835C219.344 110.292 219.878 110.521 220.488 110.521H222.889ZM192.643 110.521H214.656L203.621 82.1047L192.643 110.521ZM227.537 111.95H227.823C228.128 111.95 228.394 111.855 228.623 111.664C228.852 111.436 229.042 111.169 229.195 110.864C229.385 110.559 229.519 110.235 229.595 109.892C229.709 109.549 229.767 109.225 229.767 108.92V78.3312C229.767 78.0643 229.709 77.7594 229.595 77.4164C229.519 77.0733 229.385 76.7493 229.195 76.4444C229.042 76.1394 228.852 75.8917 228.623 75.7011C228.394 75.4724 228.128 75.358 227.823 75.358H227.537V74.7863H249.549V80.1036H248.978C248.901 79.2269 248.558 78.4646 247.948 77.8166C247.339 77.1305 246.386 76.7874 245.09 76.7874H233.597V91.2528H243.089C243.965 91.2528 244.689 90.986 245.261 90.4523C245.871 89.9187 246.176 89.2898 246.176 88.5655H246.748V95.7124H246.176C246.176 95.0263 245.89 94.4355 245.318 93.94C244.747 93.4445 244.003 93.1967 243.089 93.1967H233.597V110.521H246.119C246.843 110.521 247.472 110.349 248.006 110.006C248.539 109.663 248.978 109.263 249.321 108.806C249.702 108.31 249.969 107.795 250.121 107.262C250.312 106.69 250.407 106.214 250.407 105.832H250.979V112.522H227.537V111.95ZM278.1 111.95H278.386C278.653 111.95 278.9 111.855 279.129 111.664C279.358 111.436 279.548 111.169 279.701 110.864C279.891 110.521 280.025 110.178 280.101 109.835C280.177 109.454 280.215 109.111 280.215 108.806V93.2539H261.919V108.806C261.919 109.111 261.957 109.454 262.034 109.835C262.11 110.178 262.224 110.502 262.377 110.807C262.529 111.112 262.701 111.378 262.891 111.607C263.12 111.836 263.387 111.95 263.692 111.95H263.978V112.522H255.973V111.95H256.259C256.526 111.95 256.773 111.855 257.002 111.664C257.231 111.436 257.421 111.169 257.574 110.864C257.765 110.521 257.898 110.178 257.974 109.835C258.05 109.454 258.089 109.111 258.089 108.806V78.3312C258.089 78.0643 258.05 77.7594 257.974 77.4164C257.898 77.0733 257.784 76.7493 257.631 76.4444C257.479 76.1394 257.288 75.8917 257.059 75.7011C256.831 75.4724 256.564 75.358 256.259 75.358H255.973V74.7863H263.978V75.358H263.692C263.387 75.358 263.12 75.4724 262.891 75.7011C262.663 75.8917 262.472 76.1394 262.319 76.4444C262.205 76.7493 262.11 77.0733 262.034 77.4164C261.957 77.7594 261.919 78.0643 261.919 78.3312V91.2528H280.215V78.3312C280.215 78.0643 280.177 77.7594 280.101 77.4164C280.025 77.0733 279.91 76.7493 279.758 76.4444C279.605 76.1394 279.415 75.8917 279.186 75.7011C278.958 75.4724 278.691 75.358 278.386 75.358H278.1V74.7863H286.104V75.358H285.819C285.514 75.358 285.247 75.4724 285.018 75.7011C284.789 75.8917 284.599 76.1394 284.446 76.4444C284.332 76.7493 284.237 77.0733 284.16 77.4164C284.084 77.7594 284.046 78.0643 284.046 78.3312V108.806C284.046 109.111 284.084 109.454 284.16 109.835C284.275 110.178 284.408 110.502 284.561 110.807C284.713 111.112 284.885 111.378 285.075 111.607C285.304 111.836 285.552 111.95 285.819 111.95H286.104V112.522H278.1V111.95ZM313.61 111.95H313.896C314.201 111.95 314.467 111.855 314.696 111.664C314.925 111.436 315.115 111.169 315.268 110.864C315.458 110.521 315.592 110.178 315.668 109.835C315.744 109.454 315.782 109.111 315.782 108.806V82.6193L296.8 108.291V108.806C296.8 109.111 296.838 109.454 296.915 109.835C297.029 110.178 297.162 110.502 297.315 110.807C297.467 111.112 297.658 111.378 297.887 111.607C298.115 111.836 298.382 111.95 298.687 111.95H298.973V112.522H290.854V111.95H291.14C291.445 111.95 291.712 111.855 291.94 111.664C292.169 111.436 292.36 111.169 292.512 110.864C292.703 110.521 292.836 110.178 292.912 109.835C292.989 109.454 293.027 109.111 293.027 108.806V78.3312C293.027 78.0643 292.989 77.7594 292.912 77.4164C292.836 77.0733 292.703 76.7493 292.512 76.4444C292.36 76.1394 292.169 75.8917 291.94 75.7011C291.712 75.4724 291.445 75.358 291.14 75.358H290.854V74.7863H298.973V75.358H298.515C298.249 75.3962 298.001 75.5296 297.772 75.7583C297.582 75.987 297.41 76.2538 297.258 76.5587C297.105 76.8255 296.991 77.1305 296.915 77.4735C296.838 77.7785 296.8 78.0643 296.8 78.3312V104.746L315.782 79.0744V78.3312C315.782 78.0643 315.744 77.7594 315.668 77.4164C315.592 77.0733 315.458 76.7493 315.268 76.4444C315.115 76.1394 314.925 75.8917 314.696 75.7011C314.467 75.4724 314.201 75.358 313.896 75.358H313.61V74.7863H321.729V75.358H321.443C321.138 75.358 320.871 75.4724 320.642 75.7011C320.414 75.8917 320.223 76.1394 320.071 76.4444C319.918 76.7493 319.785 77.0733 319.67 77.4164C319.594 77.7594 319.556 78.0643 319.556 78.3312V108.806C319.556 109.111 319.594 109.435 319.67 109.778C319.785 110.121 319.918 110.464 320.071 110.807C320.223 111.112 320.414 111.378 320.642 111.607C320.871 111.836 321.138 111.95 321.443 111.95H321.729V112.522H313.61V111.95ZM345.614 111.95H345.9C346.167 111.95 346.415 111.836 346.644 111.607C346.91 111.378 347.12 111.112 347.273 110.807C347.425 110.502 347.539 110.178 347.616 109.835C347.73 109.454 347.787 109.111 347.787 108.806V93.3111C346.949 93.3873 346.148 93.6541 345.386 94.1115C344.662 94.5689 343.956 95.1788 343.27 95.9411C342.622 96.7035 341.993 97.5611 341.384 98.514C340.812 99.467 340.259 100.458 339.725 101.487C339.306 102.249 338.849 103.069 338.353 103.946C337.858 104.784 337.362 105.642 336.867 106.519C335.952 108.196 334.751 109.625 333.265 110.807C331.778 111.95 330.063 112.522 328.119 112.522H325.089V111.95C325.965 111.95 326.785 111.76 327.547 111.378C328.348 110.997 329.072 110.521 329.72 109.949C330.368 109.377 330.939 108.748 331.435 108.062C331.969 107.376 332.407 106.728 332.75 106.118L337.267 97.9995C337.801 97.0846 338.372 96.208 338.982 95.3694C339.63 94.4927 340.602 93.7875 341.898 93.2539C340.297 93.1396 338.868 92.8346 337.61 92.3391C336.352 91.8436 335.285 91.1956 334.408 90.3951C333.531 89.5947 332.864 88.6989 332.407 87.7079C331.95 86.6787 331.721 85.6115 331.721 84.5061C331.721 83.0958 332.045 81.7998 332.693 80.6182C333.341 79.3984 334.256 78.3693 335.437 77.5307C336.619 76.654 338.048 75.987 339.725 75.5296C341.441 75.034 343.347 74.7863 345.443 74.7863H353.676V75.358H353.39C353.123 75.358 352.876 75.4724 352.647 75.7011C352.418 75.8917 352.228 76.1394 352.075 76.4444C351.923 76.7493 351.808 77.0733 351.732 77.4164C351.656 77.7594 351.618 78.0643 351.618 78.3312V108.806C351.618 109.111 351.656 109.454 351.732 109.835C351.808 110.178 351.923 110.502 352.075 110.807C352.228 111.112 352.418 111.378 352.647 111.607C352.876 111.836 353.123 111.95 353.39 111.95H353.676V112.522H345.614V111.95ZM335.323 83.6485C335.323 84.7538 335.552 85.783 336.009 86.7359C336.466 87.6507 337.095 88.4512 337.896 89.1373C338.696 89.8234 339.63 90.357 340.697 90.7382C341.765 91.1194 342.927 91.3099 344.185 91.3099H347.787V76.7302H346.93C343.232 76.7302 340.373 77.3401 338.353 78.5599C336.333 79.7796 335.323 81.4758 335.323 83.6485Z" fill="#402A0C"></path></svg> 