<?xml version="1.0" encoding="UTF-8"?> <svg xmlns="http://www.w3.org/2000/svg" width="253" height="133" viewBox="0 0 253 133" fill="none"><path d="M28.371 33.3466C28.978 34.0575 28.9025 34.3433 28.775 35.2879C28.6994 35.5737 28.7171 35.8536 28.6593 36.4192C27.4005 37.2482 27.2269 38.9451 26.3709 40.2169C25.1547 43.1975 23.6645 46.289 22.2676 49.3746C22.0232 49.9521 21.7906 50.7161 21.5698 51.6667C21.4364 52.5181 21.0987 53.1015 20.3819 53.6151C20.0265 53.9186 19.7703 54.3095 19.7998 54.776C19.6959 56.0938 19.0264 57.3538 18.462 58.7945C18.1538 59.8443 17.2387 60.1832 16.4286 60.7028C16.9423 61.4196 17.0769 62.0667 16.4594 62.6677L15.9068 64.295C15.6906 63.8404 15.4982 63.7589 15.399 63.6715C15.3175 63.864 15.1486 64.1557 15.1545 64.249C15.6801 65.1523 15.4415 65.823 15.1216 66.6863C14.7201 67.742 14.6044 68.8732 14.3021 70.0163C14.0518 70.5005 14.1569 70.6811 13.988 70.9728C13.3941 71.947 13.1851 73.0842 13.3493 74.1978C12.6278 76.1167 13.1369 78.2387 13.255 80.1044C13.3495 81.597 13.8113 82.9727 14.7395 84.3189C15.4456 85.1171 16.7871 85.5942 17.9125 85.6166C17.3894 87.7102 13.7736 86.8153 12.4545 85.2129C10.715 82.8878 9.72187 80.5155 9.71352 77.4252C9.4477 73.2272 10.2199 69.1508 11.377 65.2374C12.5979 60.8517 14.5769 56.6053 16.2819 52.4698C17.8536 49.1858 19.2091 45.4472 20.874 42.1572C21.5376 40.804 22.0265 39.6491 22.585 38.1151C22.8353 37.6309 23.5048 36.3709 23.7374 35.6069C23.2414 35.17 21.7252 34.8914 19.2241 35.3307C14.7759 36.0807 9.30855 38.4875 7.5314 40.0049C6.47101 41.0087 5.97626 42.0703 6.01761 42.7233C6.06487 43.4696 6.44983 43.6325 7.02137 43.7837C8.34512 43.9808 9.93692 43.9737 11.8723 43.4765C12.2113 44.3917 11.3552 45.6635 9.41386 46.0674C8.02636 46.3426 7.09348 46.4016 5.15093 45.307C2.52583 43.7874 2.57655 41.6299 2.87759 38.9883C3.02282 38.3235 3.26724 37.746 4.20603 37.7803C4.4918 37.8558 4.73031 37.1851 5.00427 37.0741C6.45553 36.3266 6.92197 36.297 8.93295 35.5141L10.1221 35.0641C11.7776 34.5846 12.6113 34.4382 14.2609 33.8654C14.8148 33.7367 15.9106 33.2927 16.6451 33.0588C15.6768 32.5582 13.5607 33.1605 13.537 32.7873C16.7608 31.9276 19.9326 31.7267 22.9296 31.7243C24.819 31.9793 26.51 32.0595 28.371 33.3466ZM21.2969 45.8769C21.605 44.8271 22.0183 43.958 22.1222 42.6402C21.9533 42.9319 21.8364 42.5646 21.8541 42.8445C20.8528 44.7811 19.7878 47.1901 18.973 49.1149C17.588 52.3871 16.04 56.0443 14.6726 59.5964C14.2653 60.5588 13.8461 61.3346 13.532 62.2911C13.2238 63.3409 12.9156 64.3907 12.7999 65.522C12.6193 65.6271 12.6488 66.0935 12.7657 66.4608C13.0338 66.2565 13.2782 65.679 13.2605 65.3992C13.3242 64.9268 13.3762 64.2679 13.8131 63.7719C14.087 63.6609 14.25 63.276 14.3137 62.8036C15.5299 59.8231 16.6647 57.035 17.8927 54.2411C18.5563 52.8878 18.9341 51.4589 19.423 50.304C20.0688 48.6709 20.7265 47.2243 21.2969 45.8769ZM17.5291 58.8535C18.351 58.5205 18.351 58.5205 17.9128 57.518C17.8491 57.9903 17.7794 58.3694 17.5291 58.8535ZM12.3182 68.2687C12.4812 67.8837 12.5331 67.2248 12.6902 66.7465L12.4221 66.9508C12.2592 67.3358 12.1836 67.6216 12.0962 67.7208C11.9333 68.1057 11.7585 68.3041 11.5897 68.5958C11.8991 69.0445 12.173 68.9335 12.3182 68.2687ZM14.1084 68.4363C14.2182 67.2118 14.4744 66.8209 14.5559 66.6284L14.3693 66.6402C13.5652 67.2531 13.9396 68.728 14.1084 68.4363ZM11.6842 70.0884C11.7715 69.9892 11.853 69.7967 11.8412 69.6102C11.742 69.5228 11.6487 69.5287 11.4621 69.5405C11.3807 69.733 11.3925 69.9196 11.3051 70.0188C11.4043 70.1061 11.6901 70.1817 11.6842 70.0884ZM79.7364 15.2019C78.8154 15.4476 79.3173 15.9778 79.0669 16.4619L79.7377 16.7004C79.7554 16.9803 79.5806 17.1787 79.5051 17.4645C79.3126 17.383 79.3008 17.1964 79.2016 17.109C79.1142 17.2082 79.0209 17.2141 78.9276 17.22C79.1319 17.4881 79.3421 17.8494 79.4531 18.1234C78.5202 18.1825 78.8533 19.0043 78.7836 19.3834C78.5333 19.8675 78.662 20.4214 78.4991 20.8063C78.7907 20.9752 79.269 21.1322 79.2749 21.2255C79.0187 21.6164 78.9549 22.0887 78.8156 22.8469C79.3175 23.377 78.4082 23.8093 78.4496 24.4623C78.4496 24.4623 78.537 24.3631 78.5311 24.2698L78.7353 24.5378C78.9396 24.8059 78.9515 24.9925 78.5842 25.1094C78.217 25.2263 78.0481 25.518 77.7919 25.9089L78.5382 25.8616C78.1013 26.3576 77.6762 27.0401 77.5191 27.5184C77.3503 27.8101 77.1873 28.195 77.0126 28.3934C76.8437 28.6851 77.048 28.9531 77.1531 29.1338C77.2819 29.6876 77.1307 30.2592 76.9796 30.8307C76.8804 30.7433 76.7871 30.7492 76.7871 30.7492C76.682 30.5686 76.6761 30.4753 76.5769 30.3879C76.4895 30.4871 76.414 30.7729 76.3266 30.8721L76.6182 31.0409L76.6242 31.1342C76.2451 31.0645 75.9652 31.0823 75.9133 31.7412C75.9251 31.9278 75.663 32.2253 75.5815 32.4178C75.4008 32.5229 75.4067 32.6162 75.5118 32.7969C75.5933 32.6044 75.9487 32.3009 76.1176 32.0092C76.2463 32.563 76.0137 33.3271 75.4599 33.4558C75.3725 33.555 75.0867 33.4794 74.9994 33.5786C74.2661 35.311 73.7135 36.9382 73.0558 38.3848C73.1609 38.5655 73.1786 38.8453 73.0912 38.9445C72.6083 40.1927 71.8278 41.1787 71.2338 42.153C71.1524 42.3454 70.9953 42.8237 70.5985 42.4742C70.4994 42.3868 70.3246 42.5852 70.0565 42.7895C70.3364 42.7718 70.523 42.76 70.7155 42.8414C70.203 43.6232 69.7779 44.3057 69.3646 45.1748C69.1662 45.0001 69.0729 45.006 68.9738 44.9186L68.8864 45.0178C68.8982 45.2044 69.0033 45.385 69.0092 45.4783C68.8226 45.4901 68.7293 45.4961 68.5487 45.6012L68.3621 45.613C68.0362 46.3829 66.9226 46.5471 67.2734 47.6488C66.8129 47.7716 66.5271 47.6961 65.9674 47.7315C65.6237 48.2216 66.4633 48.1684 66.598 48.8155C66.4055 48.734 66.3181 48.8332 66.3181 48.8332C65.8753 49.2359 65.9048 49.7024 65.6427 49.9999L63.8892 51.8906C62.9339 53.075 61.5417 54.7554 60.3939 55.8584C59.9747 56.6342 59.6205 58.4362 59.5108 59.6607C59.4187 61.1652 59.205 63.7076 59.3987 65.2876C59.6515 67.8004 60.1605 69.9224 61.0191 71.6476C61.4513 72.5569 62.3736 73.8097 63.0443 74.0483C64.5783 74.6068 65.3765 73.9006 66.8041 72.7799C68.2554 72.0324 67.4655 75.8289 65.5419 76.5126C64.3469 76.8693 63.5132 77.0158 61.7867 76.3758C61.3085 76.2187 60.62 75.7004 60.3225 75.4382C59.8206 74.908 59.412 74.3719 58.8109 73.7543C58.3031 73.1309 58.0693 72.3964 57.643 71.5804C57.3099 70.7585 57.0584 69.7442 56.8068 68.7298C56.3793 66.4154 56.2789 64.8295 56.3874 62.1064C56.4039 60.8878 56.3449 59.9549 56.7616 56.182L57.1264 53.0681C57.1028 52.6949 57.091 52.5083 57.2303 51.7502C57.4452 50.7063 57.5089 50.234 57.7061 48.9102C57.921 47.8664 58.0249 46.5485 58.4145 45.3062C58.699 43.8833 59.1643 42.3552 59.4547 41.0256C59.7865 40.3489 60.0132 39.4916 60.3391 38.7217C60.4903 38.1502 60.4548 37.5904 60.7925 37.0071C60.874 36.8146 61.0547 36.7095 61.0428 36.5229L61.592 37.7994C61.749 37.3212 61.9179 37.0295 62.0808 36.6445C62.2142 35.7931 62.7149 34.8248 63.0349 33.9616C63.0986 33.4892 63.4245 32.7193 63.3135 32.4453C63.0856 31.8041 63.2722 31.7923 63.6394 31.6754C63.826 31.6636 63.8142 31.477 63.8142 31.477C64.1401 30.7071 64.3668 29.8498 64.6986 29.1731C64.2203 29.0161 63.9405 29.0338 63.7893 29.6053C63.6205 29.897 63.4575 30.282 63.382 30.5678C63.2072 30.7662 63.1257 30.9586 63.1316 31.0519C62.9392 30.9704 62.7526 30.9823 62.7408 30.7957C62.9214 30.6906 63.1021 30.5855 63.1836 30.393C63.4339 29.9088 63.5909 29.4306 63.6606 29.0515C63.8991 28.3808 64.0384 27.6227 64.1778 26.8646C64.4281 26.3804 64.7658 25.797 64.8236 25.2314C64.9051 25.0389 65.0917 25.0271 65.1732 24.8346C65.6455 24.8984 65.8498 25.1664 65.8852 25.7262C65.7341 26.2977 65.2854 26.6071 64.9359 27.0039C64.8485 27.1031 64.767 27.2956 64.6855 27.488C64.8721 27.4762 64.8721 27.4762 65.0646 27.5577C64.9253 28.3158 64.9253 28.3158 64.9371 28.5024C65.6585 26.5835 66.4036 25.0377 67.1369 23.3054C66.7933 23.7954 66.7933 23.7954 65.9537 23.8486C65.7671 23.8604 65.7789 24.047 65.6856 24.0529C65.6738 23.8663 65.6561 23.5864 65.7317 23.3007C66.5641 21.6557 67.373 19.6376 68.3861 17.8875C68.9623 16.6334 69.7251 15.3675 70.5115 14.4748C71.3039 13.6753 72.0903 12.7826 72.7894 11.989C73.7505 10.8979 74.8877 11.1068 76.2174 11.3973C76.6023 11.5602 77.0806 11.7173 77.3723 11.8861C77.8505 12.0432 78.3406 12.3868 78.7374 12.7363L79.3266 13.1673C79.4258 13.2547 79.4376 13.4413 79.3503 13.5405C79.4908 14.2809 79.5203 14.7473 79.7364 15.2019ZM63.6704 41.0396C63.2926 42.4685 63.008 43.8914 62.4377 45.2388C62.3621 45.5246 62.1 45.8222 61.9488 46.3937C61.891 46.9593 62.0256 47.6064 61.9678 48.1721L64.0472 45.5115C65.0781 44.0413 66.2778 42.2795 67.2094 40.7219C67.9085 39.9283 68.5024 38.9541 69.009 38.0791C69.6844 36.9123 70.1732 35.7575 70.8428 34.4975C71.5642 32.5785 72.3034 30.9395 73.1122 28.9214C73.5892 27.5799 74.2351 25.9467 74.5952 24.238C75.1478 22.6108 75.4206 21.0013 75.5882 19.2111C76.0534 17.683 76.0404 15.9979 76.3131 14.3884C76.2198 14.3943 76.1265 14.4002 75.9341 14.3188L75.3165 14.9198C75.235 15.1123 75.1535 15.3048 74.9788 15.5032C74.1923 16.3959 73.3126 17.2946 72.8179 18.3562C72.0433 19.4355 71.2686 20.5149 70.879 21.7571C70.5826 22.9935 69.7147 24.0787 69.1267 25.1463C68.7193 26.1087 68.1254 27.0829 67.8113 28.0394C67.4039 29.0018 67.0143 30.2441 66.7061 31.2939C66.5432 31.6789 66.3861 32.1571 66.2173 32.4488C65.804 33.3179 65.6647 34.076 65.4262 34.7468C65.1876 35.4175 64.9432 35.995 64.9728 36.4614C64.8216 37.0329 64.9385 37.4002 64.7815 37.8784C64.4615 38.7417 64.171 40.0713 63.6704 41.0396ZM66.9196 21.3522C67.1994 21.3345 67.4675 21.1302 67.5667 21.2176C67.66 21.2117 67.7769 21.5789 67.882 21.7596C67.6895 21.6781 67.5029 21.6899 67.3163 21.7017L67.3695 22.5413C67.4628 22.5354 67.4628 22.5354 67.5561 22.5295C67.7249 22.2378 67.7072 21.958 67.882 21.7596C67.9634 21.5671 68.3189 21.2636 68.4877 20.9719C69.1513 19.6187 69.926 18.5393 70.6828 17.1801C70.7466 16.7078 71.0902 16.2177 71.2591 15.926C71.2532 15.8328 71.1481 15.6521 71.1481 15.6521C70.7985 16.0489 70.5423 16.4397 70.2861 16.8306C69.9661 17.6938 69.2552 18.3008 69.0344 19.2514C68.9529 19.4439 68.679 19.5549 68.5042 19.7533C68.3236 19.8584 68.3295 19.9517 68.248 20.1442C68.0791 20.4358 67.8111 20.6401 67.5489 20.9377L66.9196 21.3522ZM77.3535 17.507C77.3358 17.2272 77.3996 16.7548 77.2886 16.4809C77.6204 15.8042 77.5212 15.7168 76.8622 15.6649C76.9095 16.4112 77.2248 16.9532 77.3535 17.507C77.1847 17.7987 77.0099 17.9971 76.9284 18.1896C76.8765 18.8485 76.9179 19.5015 76.7785 20.2596C76.6274 20.8312 76.6688 21.4842 76.1386 21.9861C75.9579 22.0912 76.1622 22.3592 76.174 22.5458C76.1858 22.7324 76.285 22.8198 76.3901 23.0004L76.2035 23.0122C76.0288 23.2106 75.586 23.6133 75.5978 23.7999C75.7147 24.1671 75.645 24.5462 75.4821 24.9312C75.3073 25.1296 75.325 25.4094 75.2554 25.7885C75.1739 25.981 74.9991 26.1793 74.8185 26.2845C74.5103 27.3342 74.1903 28.1975 74.051 28.9556C73.6377 29.8247 73.0379 30.7056 73.3012 31.9066C72.9859 31.3646 72.9977 31.5511 72.8348 31.9361C72.8407 32.0294 72.7592 32.2219 72.6778 32.4144C72.2704 33.3768 71.7697 34.3451 71.3565 35.2142C70.6928 36.5675 69.936 37.9267 69.3597 39.1808C69.0976 39.4784 69.0161 39.6709 68.9465 40.0499C68.6843 40.3475 68.6146 40.7266 68.3466 40.9309C68.2592 41.0301 68.1718 41.1292 68.0785 41.1352C67.84 41.8059 67.3157 42.4011 66.8848 42.9903C66.8092 43.2761 66.2908 43.9645 66.3026 44.1511C65.9708 44.8278 65.528 45.2305 65.1785 45.6272C64.7416 46.1232 64.5031 46.7939 64.2527 47.2781C63.373 48.1768 62.6799 49.0636 61.9926 50.0437C61.7364 50.4346 61.4861 50.9188 61.1366 51.3156C61.7778 51.0876 62.1273 50.6909 62.4768 50.2941C63.1003 49.7863 63.7001 48.9053 64.2126 48.1236C65.3663 47.1139 66.2165 45.7488 67.1836 44.751L67.9582 43.6716C68.3018 43.1816 68.6277 42.4116 69.0587 41.8224C69.6408 40.6616 70.3162 39.4949 70.9917 38.3282C71.3412 37.9314 71.895 37.8027 71.7545 37.0623C72.3024 36.8402 72.4535 36.2687 72.6105 35.7904C72.9128 34.6474 73.5127 33.7664 73.9082 32.6174C74.1645 32.2266 74.2282 31.7542 74.4844 31.3633C74.56 31.0776 74.6356 30.7918 74.8859 30.3076C74.6934 30.2262 74.495 30.0514 74.2907 29.7834C74.658 29.6664 74.8446 29.6546 75.0252 29.5495C74.8268 29.3748 74.7217 29.1941 74.6166 29.0134C74.8906 28.9024 75.0831 28.9839 75.4503 28.867C75.2578 28.7855 75.0594 28.6107 74.8611 28.436C75.2224 28.2258 75.677 28.0097 76.0324 27.7062C76.0265 27.6129 76.0265 27.6129 75.9273 27.5255C75.6475 27.5432 75.4609 27.555 75.2684 27.4736C76.3288 26.4698 76.794 24.9418 76.2921 24.4116C76.5366 23.8341 76.8743 23.2508 76.8388 22.691C76.7975 22.038 76.8671 21.659 77.6016 21.4251L76.8376 21.1925C76.925 21.0933 76.9191 21 77.0997 20.8949L77.5662 20.8654C77.0761 20.5218 77.0584 20.2419 77.3902 19.5653C77.5413 18.9937 77.3075 18.2592 77.3535 17.507ZM75.9817 29.8636L75.9758 29.7703C74.8175 32.1852 73.7583 34.6875 72.7865 37.0906L72.8798 37.0847C73.1301 36.6005 73.4679 36.0171 73.5434 35.7314C73.7937 35.2472 73.9449 34.6757 74.1952 34.1915C74.4396 33.6141 74.7951 33.3106 74.9403 32.6457C75.1965 32.2549 75.3536 31.7766 75.598 31.1992C75.6736 30.9134 76.0172 30.4233 75.9817 29.8636ZM62.1197 34.3005C61.9804 35.0586 61.5553 35.7412 61.3227 36.5052C60.8787 35.4094 61.3734 34.3478 62.1197 34.3005ZM59.2777 45.6262C59.3356 45.0606 59.5859 44.5764 59.8244 43.9057C60.0216 42.5819 60.1314 41.3574 61.0052 40.3654C60.9119 40.3713 60.8245 40.4705 60.5446 40.4883C60.8009 40.0974 60.4738 39.3688 61.1386 39.514C61.2378 39.6014 61.3193 39.4089 61.3193 39.4089C61.3889 39.0299 61.5578 38.7382 61.7266 38.4465L61.0559 38.208C59.3107 43.1889 58.463 47.551 57.47 52.578C57.5633 52.5721 57.5291 53.5109 57.6224 53.505C57.7735 52.9334 57.6389 52.2863 57.79 51.7148C58.2316 49.8136 58.8539 47.8073 59.2777 45.6262ZM72.7004 38.6883L72.6945 38.595C72.4087 38.5194 72.1229 38.4439 71.8372 38.3683C71.418 39.1441 70.9173 40.1124 70.4048 40.8942C71.3259 40.6485 71.0389 39.0745 72.6484 39.3472L71.7852 39.0272C71.7793 38.9339 71.7793 38.9339 71.8726 38.928C72.1465 38.817 72.3331 38.8052 72.7004 38.6883ZM58.6249 53.0668C59.0146 51.8246 59.1303 50.6933 59.2459 49.562C58.8445 50.6177 58.7288 51.749 58.6249 53.0668ZM95.2659 55.2425L95.3651 55.3299L95.4183 56.1695C95.1502 56.3738 95.0628 56.473 94.6023 56.5958L95.2731 56.8343C94.3697 57.3598 93.6588 57.9668 93.1227 58.3754C92.7673 58.6789 92.7909 59.052 92.4178 59.0757L91.7648 59.117C91.6715 59.1229 91.5782 59.1288 91.5841 59.2221C91.5263 59.7878 90.78 59.835 90.3253 60.0511L89.0547 60.6935C88.0581 61.225 87.3177 61.3655 86.3907 61.5179C86.1109 61.5356 85.9302 61.6407 85.7436 61.6525C85.2772 61.682 85.1957 61.8745 85.2194 62.2477C85.1438 62.5334 84.9749 62.8251 84.9986 63.1983L85.191 63.2797L85.1969 63.373C84.76 63.869 84.7955 64.4287 84.2594 64.8373C84.172 64.9365 84.2889 65.3038 84.2015 65.403C83.5084 66.2898 83.101 67.2522 82.3205 68.2383L82.1457 68.4367C81.7088 68.9326 81.1787 69.4345 80.835 69.9246C80.567 70.1289 80.2056 70.3391 79.8325 70.3627C79.1157 70.8764 78.4745 71.1043 77.6527 71.4373C77.2854 71.5543 76.9123 71.5779 76.7198 71.4964C75.781 71.4622 74.6615 71.5331 73.8916 71.2072C72.7603 71.0915 71.9727 70.4857 71.2665 69.6875C70.1754 68.7263 69.9698 66.9597 69.782 65.473C69.5765 63.7065 70.3039 61.8808 70.664 60.1721C70.8151 59.6006 70.9249 58.376 71.0182 58.3701C71.6122 57.3959 71.9144 56.2528 72.4387 55.6576C73.2251 54.7649 74.1108 53.9595 75.1948 53.3289C76.0107 52.9026 76.9495 52.9368 77.6958 52.8896C78.1623 52.86 78.3784 53.3146 78.7751 53.6642C78.8743 53.7516 79.0609 53.7397 79.2534 53.8212C80.2099 54.1353 81.5159 54.0526 82.6945 54.9146C82.7937 55.002 83.1668 54.9783 83.3593 55.0598C83.9486 55.4908 84.4504 56.021 85.1271 56.3528C85.1389 56.5394 84.8472 56.3705 84.7539 56.3764C84.5673 56.3883 84.4741 56.3942 84.2001 56.5052C84.206 56.5985 84.4103 56.8665 84.4103 56.8665C85.1566 56.8193 85.0988 57.3849 85.309 57.7462C85.1224 57.758 85.035 57.8572 84.8543 57.9623C85.0468 58.0438 85.146 58.1312 85.3562 58.4925L85.0764 58.5102C85.2688 58.5917 85.3799 58.8657 85.6656 58.9412C85.6715 59.0345 85.5841 59.1337 85.6833 59.2211C87.3212 58.4618 88.9708 57.889 90.5213 57.2289C91.8852 56.5805 92.9869 56.2298 95.2659 55.2425ZM82.2553 59.8128C82.1325 59.3523 82.1903 58.7867 82.1549 58.2269C81.9211 57.4924 81.7687 56.5655 81.255 55.8487C81.0507 55.5806 80.8641 55.5925 80.5902 55.7035C80.0305 55.7389 79.5758 55.955 79.3137 56.2526C78.7835 56.7545 78.1541 57.169 78.114 58.0145C78.1435 58.4809 78.2723 59.0347 78.5817 59.4835C78.7978 59.9381 79.0835 60.0137 79.6433 59.9782L82.2553 59.8128ZM82.815 59.7774C83.089 59.6664 83.2756 59.6546 83.4622 59.6427C83.3452 59.2755 83.5023 58.7972 83.2921 58.4359C83.1515 57.6955 83.1515 57.6955 82.5859 57.6377C82.6272 58.2907 82.7678 59.0311 82.815 59.7774ZM81.5929 62.6646C81.9366 62.1745 81.7441 62.0931 81.2658 61.936C80.7994 61.9656 80.0472 61.9195 79.5689 61.7625C78.6242 61.635 77.5685 61.2335 76.7868 60.7211C76.1101 60.3893 75.6142 59.9523 75.3921 59.4044C75.1878 59.1364 74.9776 58.775 74.8607 58.4078C74.4652 59.5568 74.046 60.3326 73.6386 61.295C73.3824 61.6859 73.2313 62.2575 73.1616 62.6365C73.0105 63.2081 73.04 63.6745 72.9762 64.1468C72.6622 65.1034 72.733 66.2228 72.7921 67.1557C72.8335 67.8087 73.0496 68.2633 73.1783 68.8171C73.3188 69.5575 74.4619 69.8598 75.6451 69.3166C77.0208 68.8548 78.2678 67.8392 79.229 66.7481C79.7533 66.1529 80.2716 65.4645 80.6908 64.6886C81.0285 64.1053 81.1678 63.3472 81.5929 62.6646ZM94.838 75.6879L93.3041 75.1294C93.2982 75.0361 92.6735 74.0454 92.5802 74.0513C91.9272 74.0926 91.9673 73.2471 91.5528 72.6178C91.4241 72.0639 91.3012 71.6034 91.2894 71.4168C91.1949 69.9242 91.2929 68.5131 91.111 67.1197C91.2385 66.175 91.5762 65.5916 91.6222 64.8394C91.5573 63.8133 91.9646 62.8508 92.1972 62.0868C92.1382 61.1539 92.3471 60.0168 92.5738 59.1595C92.6199 58.4072 92.6718 57.7483 92.8985 56.891L93.5195 53.3862C93.9801 53.2634 94.861 53.8632 95.5258 54.0085C95.6309 54.1891 95.5554 54.4749 95.7538 54.6497C95.7656 54.8362 95.964 55.011 96.1624 55.1858C96.4671 57.0397 96.0255 58.9409 95.8638 60.8244C95.5214 62.813 95.2605 64.609 94.7315 66.6094C94.6276 67.9273 94.6111 69.1459 94.4139 70.4697C95.3468 70.4106 96.04 69.5238 96.7508 68.9168C97.5491 68.2106 98.2422 67.3238 98.7488 66.4487C99.279 65.9468 99.7855 65.0718 100.211 64.3893C101.341 63.0064 102.185 61.5481 102.743 60.0141C103.401 58.5675 104.158 57.2083 104.909 55.7559C105.142 54.9918 105.549 54.0294 105.95 52.9737C106.113 52.5888 106.364 52.1046 106.644 52.0869C106.83 52.0751 106.953 52.5356 107.245 52.7044C107.35 52.8851 107.362 53.0717 107.554 53.1532C108.062 53.7766 108.22 54.7969 107.999 55.7475C107.143 57.0193 106.468 58.186 105.892 59.4401C105.449 59.8428 105.397 60.5017 105.432 61.0615C105.526 61.0555 105.526 61.0555 105.531 61.1488C105.589 60.5832 106.014 59.9006 106.37 59.5972L106.463 59.5912C106.388 59.877 106.143 60.4545 106.167 60.8276C106.26 60.8217 106.26 60.8217 106.266 60.915C106.51 60.3376 106.656 59.6727 106.987 58.9961C106.79 60.3198 106.663 61.2645 106.284 61.1949C106.039 61.7723 105.976 62.2447 105.725 62.7288C105.487 63.3996 105.347 64.1577 104.625 64.5781C104.438 64.5899 104.351 64.6891 104.351 64.6891C104.241 65.9136 103.635 66.7013 103.135 67.6696C102.709 68.3522 102.092 68.9532 101.661 69.5425C101.055 70.3302 100.461 71.3044 99.5637 71.9232C99.1504 72.7923 98.4455 73.4926 97.9212 74.0877C96.8431 74.8116 95.7355 75.0691 94.838 75.6879ZM100.021 67.3048C100.807 66.4121 101.593 65.5193 101.767 63.8224C100.981 64.7152 100.387 65.6894 99.6876 66.4829C99.6002 66.5821 99.8104 66.9435 99.8222 67.1301C99.9273 67.3107 99.9273 67.3107 100.021 67.3048ZM130.48 63.0346C130.486 63.1279 130.585 63.2152 130.585 63.2152C131.774 62.7653 132.735 61.6742 133.907 60.9444C133.825 61.1368 133.837 61.3234 133.75 61.4226C133.4 61.8194 132.957 62.2221 132.602 62.5256L130.918 64.0371C130.196 64.4575 129.659 64.8661 129.036 65.3739C128.226 65.8935 127.521 66.5938 126.612 67.026C126.07 67.3413 125.417 67.3827 124.77 67.5173C124.396 67.5409 124.216 67.646 123.948 67.8503C123.586 68.0605 123.033 68.1893 122.572 68.3121C121.838 68.5459 121.196 68.7738 120.444 68.7278C119.505 68.6936 118.467 68.572 117.61 68.3453C116.753 68.1186 116.374 68.0489 115.394 67.3617C115.288 67.181 115.003 67.1055 114.903 67.0181C114.221 66.593 113.812 66.0569 113.199 65.2527C113.001 65.078 113.001 65.078 112.755 64.1569C112.218 63.067 112.27 62.4081 112.229 61.755C112.204 59.8834 112.558 58.0814 113.379 56.2498C113.716 55.6665 114.054 55.0831 114.485 54.4939C115.26 53.4145 116.04 52.4285 116.821 51.4425C117.607 50.5497 118.598 49.925 119.805 49.7549C120.085 49.7372 120.359 49.6262 120.726 49.5093C121.635 49.0771 122.516 49.6769 123.193 50.0087C124.056 50.3287 124.838 50.8412 125.526 51.3595C126.302 51.7787 126.869 53.3351 126.636 54.0991C126.479 54.5774 126.229 55.0615 125.967 55.3591C125.186 56.3452 124.4 57.2379 123.613 58.1307C123.351 58.4282 122.797 58.557 122.722 58.8427C122.67 59.5017 122.023 59.6363 121.661 59.8465L121.032 60.261C121.219 60.2492 121.318 60.3366 121.318 60.3366C121.05 60.5409 120.776 60.6519 120.414 60.8621C120.327 60.9613 120.345 61.2411 120.257 61.3403C119.628 61.7548 118.899 62.082 118.363 62.4905C118.089 62.6016 117.92 62.8932 117.746 63.0916C117.023 63.512 116.749 63.623 116.12 64.0375C116.564 65.1334 116.762 65.3081 117.526 65.5407C118.733 65.3707 119.952 65.3872 121.153 65.1238C121.986 64.9773 122.802 64.551 123.624 64.218C124.259 63.8968 124.982 63.4764 125.711 63.1493C126.165 62.9331 126.632 62.9036 127.08 62.5942C128.065 61.8762 129.149 61.2456 130.047 60.6268L130.315 60.4225C130.414 60.5099 130.414 60.5099 130.414 60.5099C130.332 60.7024 130.158 60.9008 130.07 61C130.169 61.0873 130.269 61.1747 130.181 61.2739C130.461 61.2562 130.735 61.1452 130.916 61.0401C131.015 61.1275 131.015 61.1275 130.928 61.2267C130.572 61.5302 130.129 61.9328 129.78 62.3296C130.071 62.4985 130.544 62.5622 131.022 62.7193C130.748 62.8303 130.661 62.9295 130.48 63.0346ZM116.319 58.3115C116.075 58.889 115.929 59.5538 115.79 60.3119C116.507 59.7982 116.956 59.4888 117.311 59.1853C117.498 59.1735 117.69 59.255 117.777 59.1558C118.045 58.9515 118.494 58.6421 118.844 58.2453C118.564 58.2631 118.476 58.3623 118.197 58.38C118.727 57.8781 118.971 57.3006 119.624 57.2593C119.455 57.551 119.187 57.7553 119.018 58.0469C119.018 58.0469 119.024 58.1402 119.118 58.1343C119.922 57.5214 120.627 56.8212 121.431 56.2083L121.233 56.0335C121.058 56.2319 120.883 56.4303 120.522 56.6405C120.254 56.8448 119.986 57.0491 119.624 57.2593C119.712 57.1601 119.706 57.0668 119.7 56.9735C120.585 56.1682 121.29 55.4679 122.077 54.5751C122.607 54.0732 122.945 53.4899 123.277 52.8133C123.527 52.3291 123.007 51.519 122.646 51.7292C121.83 52.1556 120.99 52.2087 120.28 52.8157C119.481 53.5219 118.671 54.0415 118.071 54.9224C117.39 55.9958 116.808 57.1566 116.319 58.3115ZM124.285 52.4684C123.679 53.2561 123.353 54.026 123.698 55.0344C123.943 54.457 124.368 53.7744 124.612 53.197L124.285 52.4684ZM137.448 56.2244C136.912 56.6329 136.37 56.9483 135.927 57.3509L135.933 57.4442C135.927 57.3509 136.021 57.345 136.021 57.345C136.026 57.4383 136.126 57.5257 136.126 57.5257C135.951 57.7241 135.595 58.0276 135.147 58.337L135.264 58.7042C134.902 58.9144 134.728 59.1128 135.025 59.375C134.67 59.6785 134.11 59.7139 134.058 60.3728C134.058 60.3728 134.064 60.4661 133.971 60.472C133.318 60.5134 132.986 61.19 132.543 61.5927C132.275 61.797 131.92 62.1005 131.465 62.3166C131.284 62.4217 131.086 62.2469 130.893 62.1655C130.788 61.9848 130.776 61.7982 130.771 61.7049C130.765 61.6116 130.852 61.5124 130.852 61.5124C131.703 61.6459 132.222 60.9574 132.851 60.5429L133.481 60.1284C133.848 60.0115 134.017 59.7198 133.608 59.1837C132.99 59.7848 132.18 60.3044 131.475 61.0047C131.376 60.9173 131.091 60.8417 130.805 60.7661C131.434 60.3516 132.874 59.4175 133.368 58.3559C133.543 58.1575 134.54 57.6261 134.802 57.3285L135.473 57.567C135.641 57.2754 135.816 57.077 135.991 56.8786C135.892 56.7912 135.798 56.7971 135.606 56.7156L135.693 56.6164C135.973 56.5987 136.253 56.581 136.714 56.4582C136.609 56.2775 136.509 56.1901 136.503 56.0968L136.946 55.6942L136.847 55.6068L136.492 55.9103L136.305 55.9221L137.826 54.7955L138.054 55.4367C138.054 55.4367 138.147 55.4308 138.153 55.5241C137.885 55.7284 137.716 56.0201 137.448 56.2244ZM130.589 60.3115C130.495 60.3174 130.489 60.2241 130.489 60.2241C131.294 59.6112 132.11 59.1849 133.007 58.5661C132.943 59.0385 132.395 59.2605 130.589 60.3115ZM128.287 62.4241C128.922 62.1029 129.371 61.7935 129.82 61.4841C129.709 61.2102 128.887 61.5432 128.287 62.4241ZM158.069 123.104C157.516 123.233 156.583 123.292 155.912 123.054C152.985 122.677 151.211 121.291 149.384 119.065C148.958 118.249 148.234 117.171 147.697 116.081C146.675 114.741 146.289 113.079 146.742 111.365C146.695 110.618 146.677 110.339 146.566 110.065C146.752 108.554 146.861 107.33 146.796 106.304C147.342 103.084 148.453 99.9233 149.949 96.925C151.364 94.1192 152.977 91.4882 154.601 89.0438C156.139 86.6986 158.155 84.5104 159.984 82.334C162.017 80.4257 164.039 78.3308 166.171 76.5098C167.325 75.5002 168.572 74.4846 169.551 73.6733C170.53 72.862 171.351 72.529 171.87 71.8405C172.68 71.3209 173.566 70.5156 174.201 70.1943C175.192 69.5696 175.057 68.9225 175.004 68.0829C175.131 67.1383 175.457 66.3683 175.305 65.4413C175.496 64.0243 175.612 62.893 175.628 61.6744C175.965 59.5925 176.132 57.8023 176.119 56.1172C175.985 55.4701 176.229 54.8927 176.287 54.3271C176.176 54.0531 175.803 54.0767 175.785 53.7969C175.803 54.0767 175.622 54.1818 175.622 54.1818C174.276 55.11 173.245 56.5802 171.835 57.9808C170.745 58.5181 170.157 59.5856 169.073 60.2162C168.362 60.8232 167.931 61.4125 167.197 61.6463C166.73 61.6758 166.282 61.9852 165.972 61.5365L166.602 61.122C165.576 61.187 165.931 60.8835 165.528 60.4407L165.604 60.1549L165.324 60.1726C165.248 60.4584 165.266 60.7383 165.08 60.7501C165.08 60.7501 164.514 60.6922 164.595 60.4998C164.28 59.9577 163.86 59.2351 163.638 58.6872C163.479 57.6669 164.196 57.1532 164.149 56.4069C164.451 55.2638 164.444 53.672 164.554 52.4475C164.606 51.7885 164.634 50.7565 164.954 49.8932C165.105 49.3217 165.07 48.762 164.755 48.22C164.457 47.9578 164.608 47.3863 164.59 47.1064C164.94 46.7096 165.109 46.418 165.762 46.3766C166.24 46.5337 166.234 46.4404 166.911 46.7722C167.395 47.0225 168.194 47.8148 168.784 48.2458C168.784 48.2458 168.988 48.5139 168.825 48.8989C168.575 49.383 168.908 50.2049 168.693 51.2488C168.548 51.9136 168.35 53.2373 168.048 54.3804C168.095 55.1267 168.026 55.5058 167.793 56.2698C168.242 55.9604 168.959 55.4467 169.127 55.155C169.937 54.6354 170.426 53.4805 171.137 52.8736C172.035 52.2548 172.541 51.3797 173.345 50.7668C174.406 49.7631 175.186 48.777 176.27 48.1464C176.789 47.458 176.957 47.1663 177.634 47.4981C177.844 47.8594 178.404 47.824 178.777 47.8004C178.964 47.7886 179.349 47.9515 179.535 47.9397L179.547 48.1263L179.775 48.7675C180.446 49.006 180.096 49.4028 180.843 49.3555L180.721 50.3935C180.669 51.0524 180.49 52.656 180.414 52.9418L180.426 53.1284C180.584 54.1486 180.026 55.6826 180.154 56.2364C179.916 56.9071 180.056 57.6475 180.004 58.3065C180.022 58.5863 179.859 58.9713 179.859 58.9713C179.504 59.2748 179.44 59.7471 179.656 60.2017C180.17 60.9185 179.669 61.8868 179.816 62.7205C179.734 62.913 179.315 63.6888 179.327 63.8754C179.193 64.7268 179.235 65.3798 179.101 66.2312L178.927 66.4296C179.131 66.6977 179.411 66.68 179.58 66.3883C181.468 65.1448 183.006 64.2981 184.241 63.0959C185.326 62.4653 185.774 62.1559 187.126 61.321L188.939 60.3633C189.679 60.2227 191.73 58.5942 192.104 58.5706L192.361 59.6783C191.942 60.4541 191.161 61.4401 190.998 61.8251C190.73 62.0294 190.299 62.6187 190.113 62.6305C189.489 63.1383 188.842 63.2729 188.143 64.0665L186.255 65.31L186.547 65.4788C185.911 65.8 185.609 66.9431 184.833 66.5239C184.023 67.0435 183.4 67.5513 182.957 67.954L183.26 68.3094C183.173 68.4086 182.806 68.5255 182.345 68.6484C182.165 68.7535 182.153 68.5669 181.081 69.3841C180.9 69.4892 180.918 69.769 180.655 70.0666C180.469 70.0784 180.451 69.7986 180.451 69.7986L179.897 69.9273C179.752 70.5921 179.601 71.1637 179.077 71.7588C178.809 71.9631 178.955 72.7968 178.681 72.9078C178.611 73.2869 178.437 73.4853 178.46 73.8584L178.647 73.8466C178.46 73.8584 178.093 73.9754 177.813 73.9931C178.817 75.0535 178.334 76.3016 178.149 77.812C177.933 77.3573 177.909 76.9842 177.617 76.8153L177.682 77.8415L178.149 77.812C178.172 78.1851 178.079 78.191 177.339 78.3316L177.823 78.5819C178.214 78.8381 178.225 79.0247 178.174 79.6836C178.191 79.9635 177.929 80.2611 177.947 80.5409C178.076 81.0948 178.111 81.6545 176.904 81.8246C177.779 82.3311 177.652 83.2758 177.594 83.8415C177.455 84.5996 177.292 84.9845 176.68 85.6789C177.642 86.0863 177.463 87.6899 176.839 88.1977C177.067 88.8389 176.904 89.2238 176.462 89.6265C176.077 89.4636 175.878 89.2888 175.487 89.0326C176.012 88.4374 175.2 87.4585 175.853 87.4172C175.853 87.4172 175.655 87.2424 175.637 86.9625C175.893 86.5717 175.677 86.117 176.108 85.5278C176.528 84.7519 176.288 83.9242 176.415 82.9795C176.38 82.4197 176.601 81.4691 176.764 81.0842C176.705 80.1513 176.663 79.4983 176.89 78.641C176.779 78.367 176.936 77.8888 176.912 77.5156C176.871 76.8626 176.748 76.4021 177.08 75.7254L177.056 75.3523C177.487 74.763 177.475 74.5764 177.347 74.0226C177.317 73.5562 177.597 73.5384 177.585 73.3519C177.212 73.3755 177.212 73.3755 177.288 73.0897C176.857 73.679 176.6 74.0699 176.735 74.717C176.502 75.481 176.667 76.5945 176.446 77.5451C176.575 78.099 176.33 78.6764 176.366 79.2361C176.145 80.1867 176.309 81.3003 176.193 82.4316C175.897 83.6679 175.688 84.8051 175.491 86.1289C175.503 86.3154 175.614 86.5894 175.637 86.9625C175.416 87.9131 175.347 88.2922 174.834 89.0739C174.648 89.0858 174.058 88.6548 173.592 88.6843C174.205 89.4884 173.972 90.2525 173.786 90.2643L173.845 91.1972C173.845 91.1972 173.472 91.2208 173.21 91.5184C173.21 91.5184 172.836 91.542 172.761 91.8278L172.947 91.816C172.947 91.816 173.321 91.7923 173.688 91.6754C173.706 91.9553 173.63 92.241 173.374 92.6319C173.409 93.1916 173.077 93.8683 173.119 94.5213C172.944 94.7197 172.682 95.0173 172.793 95.2912L172.717 95.577C172.729 95.7636 172.788 96.6965 172.322 96.726L172.707 96.8889C172.363 97.379 172.404 98.032 172.031 98.0556L172.055 98.4288C171.91 99.0936 171.957 99.8399 171.794 100.225C171.73 100.697 171.17 100.733 171.089 100.925C171.089 100.925 172.302 100.848 171.224 101.572C171.265 102.225 171.183 102.418 170.758 103.1C170.788 103.567 170.416 105.089 169.699 105.603C170.364 105.748 169.909 105.964 169.746 106.349C169.281 107.877 168.81 109.312 168.158 110.852C168.077 111.044 167.827 111.528 167.844 111.808C167.67 112.006 167.786 112.374 167.786 112.374C167.973 112.362 168.346 112.338 168.527 112.233C168.509 111.953 168.509 111.953 168.217 111.784L168.777 111.749L168.754 111.376L168.73 111.003L168.916 110.991C168.94 111.364 169.313 111.34 169.331 111.62C169.069 111.918 168.789 111.936 168.807 112.215C168.527 112.233 168.644 112.6 168.644 112.6C168.364 112.618 168.288 112.904 168.008 112.922L167.804 112.654C167.449 112.957 167.093 113.261 166.93 113.646C166.493 114.141 166.092 115.197 165.766 115.967C165.702 116.439 165.516 116.451 165.516 116.451C164.875 116.679 164.991 117.046 165.581 117.477C165.126 117.694 164.759 117.81 164.129 118.225C164.806 118.557 164.824 118.837 165.098 118.726L165.062 118.166C165.249 118.154 165.313 117.682 165.779 117.652L165.715 118.125C165.902 118.113 166.205 118.468 166.205 118.468C165.937 118.672 165.949 118.859 165.407 119.174C165.338 119.553 164.661 119.222 164.008 119.263L163.827 119.368C163.827 119.368 163.641 119.38 163.198 119.783C163.198 119.783 163.128 120.162 163.589 120.039L163.239 120.436L163.799 120.4C163.811 120.587 164.184 120.563 164.37 120.551C163.642 120.878 163.1 121.194 162.278 121.527C162.698 122.249 161.923 121.83 161.766 122.308C160.88 123.114 159.171 122.754 158.069 123.104ZM173.732 52.4283C173.714 52.1484 173.714 52.1484 173.982 51.9441C173.994 52.1307 174.367 52.1071 174.641 51.9961C174.722 51.8036 174.774 51.1447 175.532 51.284C175.532 51.284 175.812 51.2663 175.8 51.0797C176.156 50.7762 176.103 49.9366 176.277 49.7382C176.277 49.7382 176.254 49.3651 176.16 49.371C175.718 49.7737 175.858 50.5141 175.316 50.8294C175.054 51.127 175.054 51.127 174.663 50.8707C174.57 50.8766 174.197 50.9003 174.034 51.2852C173.754 51.3029 173.702 51.9619 173.702 51.9619C173.615 52.0611 173.726 52.335 173.732 52.4283ZM172.846 53.2337C173.866 53.0754 172.816 52.7672 172.805 52.5807C172.816 52.7672 172.63 52.7791 172.747 53.1463C172.385 53.3565 172.409 53.7297 172.846 53.2337ZM176.083 68.8576C177.086 68.4194 177.33 67.842 176.927 67.3992C176.88 66.6529 177.667 65.7601 176.96 64.9619C177.187 64.1046 177.116 62.9851 177.25 62.1337C177.208 61.4807 177.342 60.6293 177.574 59.8653C177.533 59.2122 177.386 58.3786 177.327 57.4457L177.286 56.7927C177.048 57.4634 177.107 58.3963 176.95 58.8745C176.782 60.6647 176.702 62.3557 176.627 64.14L176.464 64.525C176.476 64.7115 176.68 64.9796 176.424 65.3705C176.069 65.674 176.454 65.8369 176.67 66.2915L176.588 66.484C176.251 67.0674 176.397 67.9011 176.083 68.8576ZM179.173 68.8492C182.606 66.8523 184.54 64.8566 187.151 63.1927C186.941 62.8313 186.941 62.8313 186.923 62.5514C185.764 63.4678 183.852 64.3382 182.599 65.2605C181.422 65.897 180.228 67.7522 178.666 68.2257C179.062 68.5752 179.173 68.8492 179.173 68.8492ZM177.783 66.1274C178.127 65.6373 178.115 65.4507 177.818 65.1886C177.818 65.1886 177.649 65.4803 177.783 66.1274ZM177.517 67.8302L177.983 67.8006C178.041 67.235 177.72 66.5997 177.982 66.3021L177.795 66.3139C177.72 66.5997 177.388 67.2763 177.517 67.8302ZM176.172 70.2569C176.154 69.977 176.527 69.9534 176.976 69.644C176.235 69.7845 176.049 69.7963 176.172 70.2569ZM147.203 111.242C147.546 110.752 147.628 110.559 147.418 110.198C147.37 109.452 147.708 108.868 147.842 108.017C147.794 107.271 147.747 106.524 148.067 105.661C148.02 104.915 148.369 104.518 148.695 103.748C149.021 102.978 149.498 101.637 149.9 100.581C150.43 100.079 150.225 99.811 150.371 99.1462C150.732 98.936 151.268 98.5274 151.233 97.9677C151.215 97.6878 151.215 97.6878 151.402 97.676C151.664 97.3784 152.299 97.0572 152.357 96.4916C152.135 95.9437 152.415 95.9259 152.695 95.9082C152.671 95.5351 152.852 95.43 152.852 95.43C153.598 95.3827 152.834 95.1501 153.288 94.934C153.288 94.934 153.545 94.5431 153.434 94.2692C153.958 93.674 154.29 92.9973 154.453 92.6124C154.866 91.7433 155.664 91.0371 156.27 90.2494C156.514 89.672 156.945 89.0827 157.464 88.3943L157.44 88.0211C157.802 87.8109 158.175 87.7873 158.344 87.4956C158.332 87.309 158.518 87.2972 158.489 86.8308C159.118 86.4163 159.48 86.2061 159.817 85.6227C160.493 84.456 161.664 83.7262 162.439 82.6469C162.981 82.3316 163.499 81.6431 163.954 81.427C164.373 80.6512 164.734 80.4409 164.996 80.1434C164.996 80.1434 165.369 80.1197 165.725 79.8162C165.858 78.9648 167.065 78.7948 167.566 77.8264C167.997 77.2372 168.62 76.7294 169.075 76.5133C169.786 75.9063 170.852 74.9958 171.458 74.2082C172.717 73.3792 173.223 72.5041 174.307 71.8735C174.756 71.5641 174.744 71.3776 175.006 71.08L174.633 71.1036C174.184 71.413 173.916 71.6173 173.194 72.0377C172.203 72.6624 171.143 73.6662 170.088 74.7632C169.004 75.3938 167.938 76.3043 166.79 77.4073C165.275 78.6271 163.69 80.2261 162.106 81.825C160.521 83.4239 159.222 85.0984 157.626 86.5108C156.682 87.8818 155.844 89.4335 154.795 90.6238C154.469 91.3937 153.747 91.8141 153.532 92.858C153.101 93.4473 152.763 94.0306 152.356 94.9931C151.424 96.5506 150.58 98.009 149.841 99.6481C149.247 100.622 149.038 101.759 148.438 102.64C147.949 103.795 147.74 104.932 147.356 106.268C147.217 107.026 147.177 107.872 146.932 108.449C147.067 109.096 147.126 110.029 147.173 110.775L147.203 111.242ZM154.05 120.268C155.403 120.932 156.983 120.738 158.335 119.903C159.903 119.523 161.406 118.116 162.548 116.92C163.859 115.432 165.35 113.839 165.798 112.031C166.613 110.106 167.364 108.654 168.103 107.015C168.498 105.866 168.614 104.735 169.103 103.58C169.922 100.25 171.208 96.8902 172.028 93.5601C172.237 92.4229 172.259 91.2976 172.637 89.8687L173.085 89.5593C173.085 89.5593 172.974 89.2854 173.348 89.2617L172.974 89.2854L172.601 89.309C172.566 88.7493 173.021 88.5332 172.915 88.3525C173.083 86.5623 173.262 84.9587 173.623 83.25C173.598 81.3783 173.817 78.9292 174.34 76.8355C174.299 76.1825 174.252 75.4362 174.496 74.8587C173.948 75.0808 173.482 75.1103 173.511 75.5767C173.092 76.3526 172.574 77.041 171.828 77.0883L171.845 77.3681C171.397 77.6775 171.047 78.0743 170.86 78.0861C170.604 78.477 170.056 78.699 169.707 79.0958C169.107 79.9767 168.14 80.9746 166.851 81.3372C166.851 81.3372 166.572 81.3549 166.589 81.6347C166.252 82.2181 166.013 82.8888 164.987 82.9538C164.521 82.9834 164.153 83.1003 163.594 83.1357C163.943 82.7389 163.925 82.4591 163.925 82.4591C164.729 81.8462 165.049 80.983 166.046 80.4515C166.763 79.9378 167.305 79.6225 167.998 78.7357C168.185 78.7239 168.254 78.3448 168.254 78.3448C168.697 77.9421 168.697 77.9421 168.977 77.9244C169.688 77.3174 170.673 76.5994 171.29 75.9984C171.902 75.304 172.805 74.7785 173.131 74.0086C173.877 73.9613 174.052 73.7629 174.308 73.372L174.39 73.1796C174.029 73.3898 173.842 73.4016 173.306 73.8102C171.703 75.1292 169.833 76.6526 168.044 77.9835C167.881 78.3684 167.881 78.3684 167.998 78.7357L167.718 78.7534C166.465 79.6757 165.218 80.6913 163.983 81.8934C163.016 82.8913 161.968 84.0816 160.931 85.4585C160.22 86.0655 159.608 86.7599 159.276 87.4365C158.717 87.472 158.822 87.6526 158.56 87.9502C158.397 88.3352 158.135 88.6328 157.878 89.0236C158.438 88.9882 158.414 88.6151 158.56 87.9502L159.382 87.6172C159.888 86.7422 161.141 85.8199 161.828 84.8397C162.434 84.0521 162.621 84.0403 162.668 84.7866C163.146 84.9436 163.134 84.757 163.472 84.1737C163.722 83.6895 163.967 83.1121 164.55 83.4498C164.923 83.4262 164.894 82.9597 164.987 82.9538C165.757 83.2797 164.935 83.6127 165.133 83.7875C165.04 83.7934 164.76 83.8111 164.312 84.1205C164.125 84.1323 164.061 84.6047 163.799 84.9023C163.519 84.92 163.164 85.2235 163.269 85.4042C162.558 86.0111 161.976 87.1719 161.055 87.4176L160.606 87.727L161.073 87.6974C161.003 88.0765 160.536 88.106 160.647 88.38C160.496 88.9515 159.96 89.3601 159.692 89.5644C159.71 89.8443 159.541 90.136 158.981 90.1714C158.842 90.9295 158.469 90.9532 158.429 91.7987C158.452 92.1718 158.172 92.1895 157.893 92.2072C157.31 93.368 156.244 94.2785 155.767 95.62C155.61 96.0982 155.109 97.0666 154.952 97.5448C154.795 98.0231 154.376 98.7989 153.898 98.6419L153.63 98.8462C153.91 98.8285 153.933 99.2016 154.213 99.1839C153.945 99.3882 153.782 99.7731 153.357 100.456C152.815 100.771 152.962 101.605 152.332 102.019C151.907 102.702 151.861 103.454 151.809 104.113C151.378 104.702 151.338 105.548 151.1 106.218C151.123 106.592 151.095 107.624 150.658 108.12C150.181 109.461 150.339 110.481 150.41 111.601C150.475 112.627 150.715 113.455 150.681 114.393L151.165 114.644C150.698 114.673 150.518 114.778 150.244 114.889C150.64 115.239 150.64 115.239 150.827 115.227C150.652 115.426 150.652 115.426 150.372 115.443C150.577 115.711 150.857 115.694 150.88 116.067C151.247 115.95 151.247 115.95 151.277 116.416C151.569 116.585 151.674 116.766 152.065 117.022C152.112 117.768 152.235 118.229 152.626 118.485C152.655 118.952 152.871 119.406 153.449 119.651C153.449 119.651 153.46 119.837 153.571 120.111L153.758 120.099L154.05 120.268ZM174.14 88.4623L174.42 88.4446C174.589 88.1529 174.763 87.9545 174.734 87.488C175.189 87.2719 175.171 86.9921 175.24 86.613C174.57 86.3745 174.57 86.3745 175.187 85.7734C175.082 85.5928 174.569 84.876 175.116 84.654C175.262 83.9891 175.232 83.5227 175.191 82.8697C175.36 82.578 175.348 82.3914 175.318 81.925C175.394 81.6392 175.382 81.4526 175.382 81.4526C175.271 81.1787 175.621 80.7819 175.621 80.7819C175.621 80.7819 175.97 80.3851 175.585 80.2222C175.456 79.6684 175.899 79.2657 175.776 78.8051C176.015 78.1344 176.382 78.0175 175.863 77.2074C175.851 77.0209 175.827 76.6477 176.188 76.4375L176.066 75.977C176.024 75.324 176.269 74.7465 176.134 74.0994C176.11 73.7262 175.831 73.744 175.831 73.744C175.854 74.1171 175.598 74.508 175.598 74.508C175.709 74.7819 175.715 74.8752 175.651 75.3476C175.681 75.814 175.512 76.1057 175.722 76.467C175.64 76.6595 175.664 77.0327 175.209 77.2488C175.449 78.0766 174.919 78.5784 175.06 79.3188C174.897 79.7038 175.119 80.2517 174.968 80.8233C174.729 81.494 174.945 81.9486 174.986 82.6016C175.022 83.1614 174.929 83.1673 174.369 83.2027C174.299 83.5818 174.871 83.7329 174.871 83.7329C174.346 84.3281 174.499 85.255 174.354 85.9199C174.5 86.7536 174.22 86.7713 173.66 86.8067C173.754 86.8008 174.057 87.1562 174.162 87.3369C174.18 87.6168 174.204 87.9899 174.029 88.1883L174.14 88.4623ZM172.054 76.231C172.497 75.8283 172.858 75.6181 173.295 75.1221L172.922 75.1457C172.858 75.6181 172.31 75.8401 172.054 76.231ZM165.045 82.3882C165.307 82.0906 165.849 81.7753 166.012 81.3903C165.569 81.793 165.307 82.0906 165.045 82.3882ZM159.766 87.7801C160.408 87.5522 160.95 87.2369 161.002 86.578C160.261 86.7185 160.128 87.5699 159.766 87.7801ZM158.747 89.4369C159.027 89.4192 158.916 89.1452 159.383 89.1157L159.347 88.556C158.899 88.8654 158.73 89.1571 158.45 89.1748C158.654 89.4428 158.747 89.4369 158.747 89.4369ZM153.814 95.8373C154.064 95.3532 154.064 95.3532 154.42 95.0497C154.664 94.4722 154.809 93.8074 155.357 93.5854C155.969 92.891 156.126 92.4128 156.527 91.3571C156.871 90.867 157.028 90.3887 157.646 89.7877C156.993 89.829 156.562 90.4183 156.527 91.3571C156.527 91.3571 156.061 91.3866 155.98 91.5791C155.566 92.4482 155.054 93.23 154.53 93.8251C154.291 94.4959 154.047 95.0733 153.814 95.8373ZM173.938 91.1912C173.914 90.8181 174.276 90.6079 174.526 90.1237C174.526 90.1237 174.415 89.8498 174.683 89.6455C174.683 89.6455 174.671 89.4589 174.852 89.3538C174.852 89.3538 174.963 89.6278 174.975 89.8143C174.899 90.1001 174.836 90.5724 174.585 91.0566C174.585 91.0566 174.305 91.0743 173.938 91.1912ZM175.4 96.5311C174.934 96.5606 174.467 96.5901 174.076 96.3339C174.775 95.5403 174.151 94.5496 174.844 93.6628C174.914 93.2837 174.709 93.0157 174.697 92.8291C174.697 92.8291 174.511 92.8409 174.529 93.1208L174.155 93.1444L174.144 92.9578C173.933 92.5965 173.933 92.5965 173.91 92.2233C174.073 91.8384 174.527 91.6222 174.609 91.4298C174.714 91.6104 174.726 91.797 174.726 91.797C174.656 92.1761 174.68 92.5492 175.071 92.8055C174.93 92.0651 175.18 91.5809 175.034 90.7472C175.022 90.5606 175.086 90.0883 174.975 89.8143C175.441 89.7848 175.517 89.499 176.077 89.4636C175.902 89.662 176.019 90.0292 175.949 90.4083C175.949 90.4083 176.205 90.0174 176.578 89.9938C176.638 90.9267 176.772 91.5738 176.166 92.3614C176.19 92.7346 175.922 92.9389 175.922 92.9389C175.963 93.5919 175.812 94.1634 175.854 94.8164L175.201 94.8578C175.201 94.8578 175.399 95.0325 175.58 94.9274C175.323 95.3183 174.962 95.5285 174.811 96.1001L175.091 96.0823L175.335 95.5049L175.4 96.5311ZM157.192 91.5023C157.565 91.4787 157.828 91.1811 158.201 91.1575C158.096 90.9768 158.096 90.9768 157.711 90.8138C157.629 91.0063 157.647 91.2862 157.192 91.5023ZM173.826 96.8181C173.453 96.8417 173.266 96.8535 173.348 96.661C173.336 96.4744 173.038 96.2123 173.289 95.7281C173.184 95.5475 173.253 95.1684 173.253 95.1684C173.615 94.9582 173.615 94.9582 173.871 94.5673L173.597 94.6783L173.486 94.4044C173.835 94.0076 174.104 93.8033 174.261 93.3251C174.261 93.3251 174.634 93.3014 174.564 93.6805C174.244 94.5437 173.942 95.6868 173.826 96.8181ZM150.322 104.301L150.696 104.277C150.555 103.537 151.762 103.367 151.254 102.743C151.679 102.061 151.142 100.971 152.261 100.9C151.48 100.387 151.545 101.413 151.102 101.816C151.421 99.4544 153.023 98.1353 153.639 96.0357L153.359 96.0534C152.765 97.0277 151.973 97.8271 151.572 98.8828C151.083 100.038 150.594 101.193 150.601 102.784C150.152 103.094 150.368 103.548 150.322 104.301ZM174.179 100.917C173.695 100.666 173.509 100.678 173.229 100.696C173.31 100.504 173.59 100.486 173.59 100.486C173.287 100.13 172.902 99.9674 173.461 99.932C173.63 99.6403 173.612 99.3605 173.583 98.894C174.02 98.398 173.891 97.8442 174.13 97.1735C174.199 96.7944 174.386 96.7826 174.386 96.7826C174.572 96.7708 175.039 96.7413 175.219 96.6362C175.436 97.0908 175.447 97.2774 174.981 97.3069C174.637 97.797 174.171 97.8265 174.195 98.1997L174.661 98.1701C175.034 98.1465 175.221 98.1347 175.04 98.2398C175.151 98.5137 175.075 98.7995 174.726 99.1963C174.581 99.8611 174.523 100.427 174.179 100.917ZM152.727 99.3717C152.977 98.8875 153.152 98.6891 153.134 98.4093C153.023 98.1353 152.667 98.4388 152.697 98.9052L152.727 99.3717ZM151.678 100.562C152.226 100.34 152.786 100.305 152.54 99.3835C152.085 99.5996 152.296 99.9609 151.678 100.562ZM172.884 99.6876C172.9 98.4689 172.801 98.3815 173.647 98.4217L172.884 99.6876ZM172.285 102.067C172.285 102.067 172.174 101.793 172.151 101.42C172.115 100.86 172.29 100.662 173.1 100.142C172.675 100.825 172.804 101.379 172.361 101.781C172.361 101.781 172.472 102.055 172.285 102.067ZM172.305 105.344C172.026 105.362 171.466 105.397 170.976 105.053L171.419 104.651C170.847 104.5 170.847 104.5 170.66 104.511C171.389 104.184 171.552 103.799 172.001 103.49C172.205 103.758 172.129 104.044 172.129 104.044C172.374 103.466 172.362 103.28 172.484 102.242C172.227 102.633 171.948 102.65 171.668 102.668C172.005 102.085 172.285 102.067 172.938 102.026L172.827 101.752C173.066 101.081 173.532 101.051 174.203 101.29L174.221 101.57C173.901 102.433 173.487 103.302 173.372 104.433C173.115 104.824 172.877 105.495 172.305 105.344ZM148.898 109.917C149.143 109.339 149.195 108.681 148.687 108.057C148.663 107.684 148.704 106.838 149.053 106.442L148.843 106.08C148.29 107.708 148.397 109.387 148.898 109.917ZM165.861 117.46L166.292 116.87C166.647 116.567 166.629 116.287 166.979 115.89C167.142 115.505 167.678 115.097 167.934 114.706L168.19 114.315C168.073 113.948 168.056 113.668 168.056 113.668L167.123 113.727C167.49 113.61 167.466 113.237 167.729 112.939C167.84 113.213 168.026 113.201 168.33 113.557C169.611 111.603 170.694 109.473 171.024 107.298C171.088 106.826 171.513 106.143 171.676 105.758C171.757 105.566 172.037 105.548 172.305 105.344C172.69 105.507 172.69 105.507 172.795 105.688C172.627 105.979 172.668 106.632 171.979 106.114C172.015 106.674 172.225 107.035 171.864 107.245C172.447 107.583 172.179 107.787 171.625 107.916C171.27 108.219 171.083 108.231 171.218 108.878C171.282 108.406 171.655 108.382 171.935 108.365C171.341 109.339 171.301 110.184 170.806 111.246L170.433 111.27L170.171 111.567C170.597 112.383 170.073 112.978 169.828 113.556C169.304 114.151 168.791 114.933 168.261 115.434L167.242 117.091C167.178 117.564 166.432 117.611 165.861 117.46ZM170.58 106.202C170.551 105.736 170.906 105.433 171.489 105.77C171.029 105.893 170.86 106.185 170.58 106.202ZM149.265 108.301C149.527 108.004 149.503 107.631 149.561 107.065C149.223 107.648 149.235 107.835 149.265 108.301ZM169.731 109.066C169.876 108.401 170.121 107.824 170.435 106.867L170.622 106.855C170.733 107.129 170.733 107.129 170.744 107.316C170.692 107.975 170.524 108.267 170.285 108.937C170.209 109.223 170.023 109.235 169.731 109.066ZM167.47 110.333C167.633 109.948 167.621 109.762 167.971 109.365C167.971 109.365 168.052 109.172 167.679 109.196C167.621 109.762 167.446 109.96 167.47 110.333ZM148.067 113.06C148.335 112.856 148.802 112.827 148.802 112.827C148.685 112.459 148.76 112.174 148.643 111.806L148.626 111.526C148.427 111.352 148.299 110.798 148.374 110.512C148.147 111.369 148.27 111.83 148.067 113.06ZM159.456 121.331C159.642 121.319 159.525 120.952 159.799 120.841C160.668 121.254 163.693 118.721 163.628 117.695C164.001 117.671 164.001 117.671 164.013 117.858C164.001 117.671 164.001 117.671 164.187 117.659C163.884 117.304 163.884 117.304 163.499 117.141L163.33 117.433C162.695 117.754 162.643 118.413 162.27 118.436C161.95 119.3 161.495 119.516 160.872 120.024C160.709 120.408 159.962 120.456 159.514 120.765L159.496 120.485C159.514 120.765 159.339 120.964 159.456 121.331ZM163.589 120.039C164.148 120.003 164.784 119.682 165.338 119.553L165.268 119.932C164.726 120.248 164.148 120.003 163.589 120.039ZM157.141 121.758C157.439 122.02 157.824 122.183 158.167 121.693L157.141 121.758ZM215.884 47.605L215.983 47.6924L216.037 48.532C215.769 48.7362 215.681 48.8354 215.221 48.9583L215.891 49.1968C214.988 49.7223 214.277 50.3293 213.741 50.7379C213.386 51.0414 213.409 51.4145 213.036 51.4381L212.383 51.4795C212.29 51.4854 212.196 51.4913 212.202 51.5846C212.145 52.1502 211.398 52.1975 210.944 52.4136L209.673 53.056C208.676 53.5874 207.936 53.728 207.009 53.8803C206.729 53.898 206.549 54.0032 206.362 54.015C205.895 54.0445 205.814 54.237 205.838 54.6101C205.762 54.8959 205.593 55.1876 205.617 55.5607L205.809 55.6422L205.815 55.7355C205.378 56.2315 205.414 56.7912 204.878 57.1998C204.79 57.299 204.907 57.6662 204.82 57.7654C204.127 58.6523 203.719 59.6147 202.939 60.6007L202.764 60.7991C202.327 61.2951 201.797 61.797 201.453 62.287C201.185 62.4913 200.824 62.7015 200.451 62.7252C199.734 63.2389 199.093 63.4668 198.271 63.7998C197.904 63.9167 197.531 63.9404 197.338 63.8589C196.399 63.8247 195.28 63.8955 194.51 63.5697C193.379 63.454 192.591 62.8482 191.885 62.05C190.794 61.0888 190.588 59.3222 190.4 57.8355C190.195 56.0689 190.922 54.2433 191.282 52.5346C191.433 51.9631 191.543 50.7385 191.636 50.7326C192.23 49.7584 192.533 48.6153 193.057 48.0201C193.843 47.1274 194.729 46.322 195.813 45.6914C196.629 45.2651 197.568 45.2993 198.314 45.252C198.781 45.2225 198.997 45.6771 199.393 46.0266C199.493 46.114 199.679 46.1022 199.872 46.1837C200.828 46.4978 202.134 46.4151 203.313 47.2771C203.412 47.3644 203.785 47.3408 203.978 47.4223C204.567 47.8533 205.069 48.3835 205.745 48.7153C205.757 48.9019 205.466 48.733 205.372 48.7389C205.186 48.7507 205.092 48.7566 204.818 48.8676C204.824 48.9609 205.029 49.229 205.029 49.229C205.775 49.1817 205.717 49.7474 205.927 50.1087C205.741 50.1205 205.653 50.2197 205.473 50.3248C205.665 50.4063 205.764 50.4937 205.975 50.855L205.695 50.8727C205.887 50.9542 205.998 51.2281 206.284 51.3037C206.29 51.397 206.202 51.4962 206.302 51.5836C207.939 50.8242 209.589 50.2515 211.14 49.5913C212.503 48.943 213.605 48.5922 215.884 47.605ZM202.874 52.1753C202.751 51.7148 202.809 51.1491 202.773 50.5894C202.539 49.8549 202.387 48.9279 201.873 48.2112C201.669 47.9431 201.482 47.9549 201.208 48.0659C200.649 48.1014 200.194 48.3175 199.932 48.6151C199.402 49.117 198.772 49.5315 198.732 50.377C198.762 50.8434 198.891 51.3972 199.2 51.8459C199.416 52.3006 199.702 52.3761 200.262 52.3407L202.874 52.1753ZM203.433 52.1398C203.707 52.0288 203.894 52.017 204.08 52.0052C203.964 51.638 204.121 51.1597 203.91 50.7984C203.77 50.058 203.77 50.058 203.204 50.0001C203.246 50.6531 203.386 51.3935 203.433 52.1398ZM202.211 55.0271C202.555 54.537 202.362 54.4555 201.884 54.2985C201.418 54.328 200.665 54.282 200.187 54.125C199.243 53.9975 198.187 53.596 197.405 53.0835C196.728 52.7517 196.232 52.3148 196.01 51.7669C195.806 51.4989 195.596 51.1375 195.479 50.7703C195.083 51.9193 194.664 52.6951 194.257 53.6575C194.001 54.0484 193.85 54.6199 193.78 54.999C193.629 55.5705 193.658 56.037 193.595 56.5093C193.28 57.4658 193.351 58.5853 193.41 59.5181C193.452 60.1712 193.668 60.6258 193.797 61.1796C193.937 61.92 195.08 62.2223 196.263 61.679C197.639 61.2173 198.886 60.2017 199.847 59.1106C200.372 58.5154 200.89 57.8269 201.309 57.0511C201.647 56.4677 201.786 55.7096 202.211 55.0271ZM247.634 51.1206C247.716 50.9281 248.095 50.9978 248.468 50.9742C248.037 51.5634 247.314 51.9838 247.28 52.9226L246.919 53.1328C247.333 53.7622 246.593 53.9028 246.325 54.1071C245.87 54.3232 246.174 54.6786 245.812 54.8888C245.912 54.9762 246.011 55.0636 246.39 55.1332C246.017 55.1568 245.836 55.262 245.649 55.2738C245.183 55.3033 245.02 55.6883 244.956 56.1606C244.986 56.6271 244.368 57.2281 243.902 57.2577C243.715 57.2695 243.441 57.3805 243.266 57.5789C243.465 57.7536 243.471 57.8469 243.477 57.9402L242.317 58.8566C242.323 58.9499 242.323 58.9499 242.422 59.0373C242.69 58.833 242.778 58.7338 243.052 58.6228C243.057 58.716 243.151 58.7101 243.151 58.7101C242.12 60.1803 240.832 60.5429 239.158 60.7425C239.357 60.9173 239.363 61.0106 239.561 61.1853C238.616 61.0578 238.116 62.0261 237.34 61.607C237.054 61.5314 236.873 61.6365 236.588 61.5609C236.109 61.4039 235.724 61.2409 235.351 61.2646C235.06 61.0957 234.675 60.9328 234.389 60.8572C234.004 60.6943 233.526 60.5372 233.514 60.3506C233.105 59.8145 232.621 59.5642 232.05 59.4131C231.093 59.099 230.766 58.3704 230.439 57.6418C230.234 57.3738 230.036 57.199 229.931 57.0183C229.522 56.4822 229.3 55.9343 228.985 55.3923C229.067 55.1998 228.967 55.1125 228.763 54.8444L227.452 56.3323L227.359 56.3382C227.353 56.245 227.441 56.1458 227.429 55.9592C227.23 55.7844 225.92 57.2723 225.669 57.7565C225.588 57.949 225.594 58.0423 225.5 58.0482C225.419 58.2407 225.151 58.445 225.064 58.5442C224.464 59.4251 224.056 60.3875 223.153 60.913C221.882 61.5554 220.816 62.4659 219.423 62.6478C218.402 62.8061 217.825 62.5617 217.393 61.6524C217.294 61.565 217.288 61.4717 217.276 61.2852C217.194 61.4776 217.113 61.6701 217.119 61.7634C217.317 61.9382 216.926 61.6819 216.728 61.5072C216.424 61.1517 215.934 60.8081 215.619 60.2661C214.574 58.5527 214.596 57.4274 214.962 55.8119C215.537 53.0593 217.966 50.002 217.645 49.3667C216.73 49.7057 215.99 49.8462 215.692 49.5841C215.277 48.9547 214.875 48.5119 214.939 48.0395C215.101 47.6545 215.463 47.4443 215.731 47.24C216.086 46.9365 216.535 46.6272 217.083 46.4051C217.817 46.1713 218.47 46.13 219.135 46.2752C219.625 46.6188 220.383 46.7581 220.693 47.2068C221.522 48.4656 221.045 49.8071 220.166 52.2043C219.771 53.3532 218.869 55.3773 218.63 56.048C218.31 56.9112 218.02 58.2409 218.796 58.6601C219.373 58.9045 220.107 58.6707 220.644 58.2621C221.902 57.4331 222.327 56.7505 223.032 56.0502C223.999 55.0524 224.687 54.0722 225.648 52.9811C226.522 51.9892 227.29 50.8165 228.164 49.8246C228.689 49.2294 229.114 48.5469 229.638 47.9517C229.719 47.7592 230.087 47.6423 230.162 47.3565C230.396 48.091 230.553 47.6128 230.914 47.4026C231.375 47.2797 231.748 47.2561 232.121 47.2325C232.127 47.3258 232.22 47.3199 232.226 47.4132L231.778 47.7226C231.784 47.8158 231.784 47.8158 231.696 47.915C232.361 48.0603 233.107 48.013 233.865 48.1523C233.877 48.3389 233.79 48.4381 233.603 48.4499C233.697 48.444 233.702 48.5373 233.702 48.5373C234.361 48.5892 234.472 48.8632 234.321 49.4347C233.89 50.024 233.652 50.6947 233.512 51.4528C232.878 53.2726 232.717 55.156 233.301 56.9923C233.418 57.3595 233.529 57.6335 233.733 57.9015C234.825 58.8627 237.302 58.0502 238.841 57.2035C239.837 56.6721 240.729 55.96 241.62 55.2479C243.316 53.9229 245.006 52.5047 246.596 50.999L247.826 49.7036C247.82 49.6103 248.006 49.5985 248.1 49.5926C248.193 49.5867 248.292 49.674 248.205 49.7732L246.725 51.5528C247.104 51.6225 247.378 51.5115 247.634 51.1206ZM226.662 52.7296C227.758 52.2855 229.657 49.7301 229.528 49.1763C228.579 50.454 227.711 51.5392 226.662 52.7296ZM218.389 53.7217C217.946 54.1244 217.946 54.1244 218.425 54.2814C218.576 53.7099 219.821 51.1958 220.136 50.2393C219.494 50.4672 218.417 52.6896 218.54 53.1502C218.459 53.3427 218.377 53.5351 218.389 53.7217ZM228.726 52.7862C229.251 52.191 229.594 51.7009 229.186 51.1648C229.098 51.264 229.104 51.3573 228.929 51.5557C228.854 51.8415 228.691 52.2264 228.522 52.5181C228.528 52.6114 228.341 52.6232 228.254 52.7224L228.23 52.3493C227.875 52.6528 227.7 52.8512 227.351 53.2479C228.01 53.2999 228.383 53.2762 228.726 52.7862ZM245.904 53.3844C246.079 53.186 246.347 52.9817 246.429 52.7892L246.171 51.6816L243.264 54.5818C243.357 54.5759 243.357 54.5759 243.457 54.6633C244.167 54.0563 244.866 53.2628 245.571 52.5625C245.577 52.6558 245.577 52.6558 245.671 52.6499C245.333 53.2332 244.896 53.7292 244.284 54.4236L244.925 54.1957L245.904 53.3844ZM221.227 58.5998C221.973 58.5525 224.223 57.0988 224.281 56.5332C223.383 57.152 222.212 57.8818 221.227 58.5998ZM241.417 56.4784L242.239 56.1453C241.947 55.9765 241.749 55.8017 241.656 55.8076C241.568 55.9068 241.394 56.1052 241.213 56.2103C241.318 56.391 241.405 56.2918 241.417 56.4784ZM217.066 60.9238L217.072 61.0171C217.066 60.9238 217.066 60.9238 217.066 60.9238Z" fill="#832321"></path></svg> 