<?xml version="1.0" encoding="UTF-8"?> <svg xmlns="http://www.w3.org/2000/svg" width="156" height="71" viewBox="0 0 156 71" fill="none"><path d="M41.9477 51.4973L36.9321 51.8061C32.818 52.0348 29.3784 52.2355 26.6133 52.4081C18.6339 53.0071 11.7593 53.9215 5.98944 55.1513L5.40914 55.2164L4.63199 55.3671C3.98607 55.4608 3.47138 55.4973 3.08793 55.4768C1.80634 55.4724 1.16604 54.8614 1.16703 53.6437C2.66085 53.2749 4.81083 52.6207 7.61698 51.6812L10.8522 50.5082C12.0904 50.1257 13.2293 49.8021 14.2689 49.5372C13.6664 50.0177 12.9041 50.4897 11.9821 50.9531L10.6092 51.4566L9.32714 52.061C11.5137 51.9215 14.2184 51.6815 17.4411 51.3411L21.7857 50.9965L26.1354 50.556C33.284 49.9126 38.816 49.5354 42.7315 49.4242L43.3118 49.3591L44.0838 49.3042C44.5985 49.2676 45.0459 49.2915 45.4259 49.376C46.4416 49.5584 46.9204 50.1929 46.8624 51.2793L41.9477 51.4973ZM40.5083 10.0815C40.5629 9.05891 41.2698 8.42374 42.629 8.17593C44.3043 8.00911 46.4474 7.48276 49.0584 6.59686L50.623 6.10366L52.0917 5.60534C53.2021 5.21606 54.1139 4.94434 54.8271 4.79018L52.9047 4.78357L50.8916 4.67596C49.0987 4.64422 47.6591 4.59932 46.5726 4.54125C42.9869 4.47777 39.8788 4.47186 37.2483 4.52353C29.8714 4.64196 24.4872 5.25144 21.0957 6.35199C18.9877 5.02158 19.0726 4.0327 21.3504 3.38535C22.1309 3.17071 23.2293 3.0051 24.6456 2.88853L26.3814 2.78903L27.1534 2.73416L27.8296 2.67417C32.3305 2.40202 37.0146 2.29989 41.8819 2.36778C47.3883 2.46983 51.9242 2.74432 55.4894 3.19125L56.2563 3.23225L56.9222 3.36398C57.5579 3.46205 58.064 3.58524 58.4406 3.73355C59.4393 4.23557 59.812 5.05664 59.5588 6.19675C57.9508 6.30307 56.2065 6.56233 54.3258 6.97454C53.1584 7.2326 51.5014 7.65676 49.3548 8.24703C45.1895 9.43439 42.2406 10.0459 40.5083 10.0815ZM22.7401 43.9333C23.0626 40.2974 24.5365 35.5052 27.1617 29.5568L28.7995 25.895L30.4322 22.3291C31.6723 19.5113 32.5993 17.1574 33.2131 15.2675L33.1223 15.1665L33.0265 15.1614C32.8952 15.2184 32.8011 15.1814 32.744 15.0501L33.8958 13.2851L35.1436 11.5252C36.1842 10.0426 36.9555 8.802 37.4575 7.80337C39.1089 8.08392 39.4023 9.18916 38.3378 11.1191C36.2087 14.9789 33.353 21.0432 29.7705 29.3117C26.1778 37.772 24.3405 42.7691 24.2585 44.3029C24.2312 44.8142 24.1097 45.2884 23.8941 45.7255C23.7423 46.166 23.5689 46.4131 23.3738 46.4668C23.1147 46.517 22.9315 46.347 22.8242 45.9567C22.7169 45.5664 22.6888 44.892 22.7401 43.9333ZM53.2885 33.0684C53.2144 33.2567 53.098 33.635 52.9395 34.2034L52.6109 34.9549L52.3679 35.9033C51.8317 37.541 51.437 38.9299 51.1838 40.07C50.4881 43.4938 51.0674 44.6463 52.9218 43.5277C53.9145 42.9399 55.3523 41.2222 57.235 38.3746C57.8614 37.4467 58.5602 36.3625 59.3316 35.1219C59.5472 34.6847 59.7965 34.2174 60.0795 33.7198L60.3978 33.16L60.711 32.696C60.6471 32.6926 60.6808 32.6624 60.812 32.6053C61.0071 32.5516 61.1686 32.5282 61.2964 32.535C61.5521 32.5487 61.7084 32.6212 61.7655 32.7524C61.8831 32.9509 61.9031 33.1763 61.8255 33.4286C61.684 33.6774 61.5055 34.0203 61.2898 34.4574L60.9715 35.0172L60.648 35.6729C60.0114 36.7925 59.4471 37.7558 58.9554 38.5627C57.4093 41.1078 55.9579 43.0811 54.6012 44.4827C52.9751 46.1263 51.6428 46.4716 50.6042 45.5188C49.8714 44.8388 49.4519 43.6947 49.3456 42.0868C49.2792 40.9296 49.3795 39.6531 49.6464 38.2574C50.5246 33.8179 52.4988 28.0591 55.569 20.9809C58.865 13.2738 61.612 8.64583 63.8098 7.09693C64.9338 6.452 65.8354 6.37201 66.5144 6.85694C67.1296 7.33847 67.4687 8.18978 67.5316 9.41088C67.6174 11.4023 65.764 15.5012 61.9713 21.7076C58.2528 27.7257 55.3585 31.5126 53.2885 33.0684ZM63.9744 9.41301C62.5401 11.0668 60.6569 14.5232 58.3249 19.7823C57.4521 21.7224 56.6398 23.7299 55.888 25.8048C55.1532 27.5601 54.6307 28.9421 54.3204 29.951C56.0948 27.9308 58.2467 24.8413 60.7763 20.6824C63.7909 15.8444 65.553 12.2533 66.0629 9.90919C66.583 7.37334 65.8868 7.20795 63.9744 9.41301ZM76.294 30.4526C75.712 30.5496 73.6264 30.5984 70.0372 30.5988C70.8192 32.7556 70.1262 34.9297 67.9581 37.1211C65.854 39.316 63.8518 40.2024 61.9516 39.7803C59.7353 39.2773 58.9294 37.5679 59.5339 34.652C60.1248 31.9917 61.3827 30.0401 63.3078 28.7971C65.5661 27.3155 67.5609 27.1658 69.2923 28.3479C69.9782 28.705 70.8644 28.9126 71.9509 28.9706L73.3837 29.1434L74.8268 29.1244C75.9166 29.1185 76.6162 29.22 76.9255 29.4288C77.3626 29.6445 77.1521 29.9857 76.294 30.4526ZM65.9407 29.8992C64.4835 30.7827 63.3761 31.7169 62.6184 32.7018C61.5846 34.0566 61.0872 35.5682 61.1262 37.2367C62.2254 38.2568 63.916 37.8024 66.1982 35.8734C68.4131 34.005 69.3025 32.3541 68.8664 30.9208C67.2516 31.1549 66.2764 30.8144 65.9407 29.8992ZM76.3034 27.7612C77.1776 28.1925 77.5708 28.6301 77.483 29.0741C77.402 29.3902 77.2064 30.0527 76.8961 31.0616L76.5419 32.2924L76.0815 33.7099C75.38 36.0438 75.0355 37.6917 75.0482 38.6538C75.8117 38.7587 76.825 37.7874 78.0881 35.7399C78.5764 34.9969 79.1423 34.0017 79.7858 32.7542L80.6347 31.2614L81.4887 29.6727C82.1312 29.643 82.6642 29.8637 83.0877 30.335L83.627 31.0368C83.7411 31.2993 83.8604 31.4659 83.9848 31.5366C84.2907 31.8093 84.7329 31.9291 85.3115 31.8959L86.0784 31.9369L86.8556 31.7862C88.0128 31.7199 88.4362 32.1911 88.1259 33.2C85.774 34.0357 83.7996 33.802 82.2029 32.4989C81.8629 32.8652 81.4082 33.578 80.8388 34.6371L79.9951 36.0341L79.1513 37.431C77.6155 39.7844 76.2405 40.9286 75.0262 40.8637C74.0071 40.7452 73.49 39.628 73.4749 37.5122C73.493 35.9749 73.8528 34.0394 74.5544 31.7055C75.2457 29.5633 75.8287 28.2486 76.3034 27.7612ZM87.4483 35.0865C91.237 33.7509 93.6414 32.5335 94.6615 31.4343C95.2069 30.8226 95.3033 30.2189 94.9506 29.6232C94.6013 28.9636 93.7368 28.9494 92.3571 29.5807C91.4351 30.0441 90.4338 30.7918 89.3532 31.8236C88.1984 33.0437 87.5634 34.1313 87.4483 35.0865ZM92.5606 27.5727C93.7817 27.5098 94.7569 27.8503 95.4863 28.5943C96.2156 29.3383 96.4873 30.2501 96.3014 31.3297C95.714 33.9261 92.6615 35.8779 87.1438 37.1853C87.0496 41.3462 88.8266 42.2744 92.4748 39.9698C93.6661 39.2644 94.9385 38.2428 96.2918 36.9052C96.8304 36.4212 97.2697 35.9961 97.6098 35.6297C97.9498 35.2633 98.1552 35.0179 98.2259 34.8935C98.5591 34.655 98.8467 34.6703 99.0887 34.9396C99.3341 35.145 99.4465 35.4395 99.426 35.8229C98.6684 36.8079 97.7846 37.754 96.7748 38.6614C95.5595 39.8142 94.3562 40.7433 93.1648 41.4487C90.0552 43.2694 87.6621 43.0773 85.9853 40.8727C84.4228 38.9305 84.5006 36.2749 86.2189 32.9058C87.8733 29.5333 89.9872 27.7556 92.5606 27.5727ZM115.579 44.5695C115.967 43.3084 116.479 42.1181 117.116 40.9985L116.287 42.1078L115.464 43.1213C114.845 43.9214 114.205 44.4961 113.545 44.8454C113.865 44.8625 114.543 44.7705 115.579 44.5695ZM103.467 66.1298C105.724 65.8659 108.116 63.0776 110.644 57.7649C111.513 55.8887 112.396 53.7567 113.293 51.3692C113.596 50.4881 113.903 49.5432 114.213 48.5343C114.443 47.8416 114.672 47.1488 114.901 46.4561C111.164 46.8331 107.986 48.1373 105.367 50.3687C103.088 52.2338 101.46 54.5181 100.482 57.2218C99.6459 59.6766 99.4995 61.8159 100.043 63.6395C100.647 65.5304 101.788 66.3605 103.467 66.1298ZM111.693 45.3232C109.477 44.8202 108.789 42.7005 109.63 38.964C109.893 37.6322 110.355 36.1828 111.016 34.6158C111.531 33.3615 112.035 32.3309 112.527 31.524C112.846 31.5411 113.097 31.6506 113.278 31.8526L113.551 32.1556L113.828 32.3627L113.378 33.5884L112.827 34.9049C112.385 35.9708 112.048 36.8821 111.816 37.6388C111.124 39.7809 110.894 41.6914 111.125 43.3701C112.773 43.7145 114.656 42.0527 116.775 38.3846C117.55 37.08 118.338 35.5199 119.14 33.7041C119.43 33.0787 119.755 32.3911 120.115 31.6413L120.454 30.698L120.783 29.9465C121.17 29.903 121.486 29.984 121.731 30.1894L122.099 30.4975L122.372 30.8005C121.896 32.5055 121.162 34.8377 120.171 37.797L119.493 39.6835L118.922 41.3834C118.399 42.7655 118.023 43.8029 117.794 44.4957C123.449 44.2211 128.81 45.2447 133.877 47.5665C134.439 47.8529 134.81 48.097 134.992 48.299C135.17 48.5649 135.191 48.7583 135.057 48.8793C134.919 49.0642 134.69 49.1481 134.37 49.131C134.051 49.114 133.704 48.9993 133.331 48.7871C127.834 46.1218 122.466 45.2261 117.228 46.0997C116.871 46.7856 116.164 48.6065 115.109 51.5624C114.583 53.0084 114.135 54.2022 113.764 55.1437C113.241 56.5258 112.727 57.7481 112.222 58.8107C109.469 64.7522 106.528 67.6073 103.4 67.376C101.227 67.2599 99.7095 66.2815 98.8465 64.4408C97.9162 62.6606 97.7733 60.5379 98.4178 58.0728C100.024 52.0059 104.449 47.756 111.693 45.3232ZM139.766 33.8452C139.184 33.9423 137.098 33.9911 133.509 33.9915C134.291 36.1483 133.598 38.3224 131.43 40.5138C129.326 42.7086 127.324 43.595 125.424 43.173C123.207 42.67 122.401 40.9605 123.006 38.0447C123.597 35.3844 124.855 33.4328 126.78 32.1897C129.038 30.7082 131.033 30.5584 132.764 31.7405C133.45 32.0976 134.336 32.3052 135.423 32.3633L136.856 32.536L138.299 32.517C139.389 32.5112 140.088 32.6127 140.397 32.8215C140.835 33.0371 140.624 33.3784 139.766 33.8452ZM129.413 33.2918C127.955 34.1753 126.848 35.1095 126.09 36.0945C125.057 37.4493 124.559 38.9609 124.598 40.6293C125.697 41.6494 127.388 41.195 129.67 39.2661C131.885 37.3977 132.774 35.7468 132.338 34.3135C130.723 34.5476 129.748 34.2071 129.413 33.2918ZM144.652 42.951C145.294 42.9212 146.568 41.8677 148.474 39.7905L149.6 38.5048L150.62 37.4057C151.307 36.5451 151.785 35.9938 152.054 35.7519C153.12 36.1934 152.663 37.5469 150.684 39.8125C149.936 40.6057 149.123 41.4275 148.245 42.2778C147.44 42.9398 146.838 43.4203 146.437 43.7194C144.037 45.4498 142.838 45.0973 142.84 42.6619C142.824 41.7638 143.007 40.7481 143.388 39.6148C143.702 38.542 144.099 37.698 144.581 37.0828L144.273 37.4509L143.864 37.9097C143.456 38.3366 143.116 38.703 142.843 39.0089C141.961 39.9231 141.152 40.681 140.415 41.2825C138.274 42.9626 136.75 43.2977 135.842 42.2879L135.661 42.0859L135.485 41.788C135.306 41.5222 135.221 41.3253 135.228 41.1975C134.899 40.1545 135.378 38.3855 136.665 35.8906C137.881 33.5202 138.988 32.0091 139.984 31.3573C140.112 31.3642 140.27 31.4046 140.458 31.4788C140.71 31.5564 140.929 31.6642 141.114 31.8023C141.544 32.1457 141.687 32.4738 141.542 32.7865C140.734 33.5124 139.691 35.0269 138.415 37.3301C137.131 39.761 136.71 41.0524 137.15 41.2041C137.91 41.3729 139.445 40.2372 141.755 37.797C143.795 35.5988 145.408 33.602 146.593 31.8067C147.364 30.5661 148.197 30.5786 149.091 31.8441C148.946 32.1568 148.617 32.9083 148.105 34.0987L147.347 35.6925L146.584 37.3822C145.273 40.3244 144.629 42.1807 144.652 42.951Z" fill="#353434"></path></svg> 