<?xml version="1.0" encoding="UTF-8"?> <svg xmlns="http://www.w3.org/2000/svg" width="73" height="19" viewBox="0 0 73 19" fill="none"><path d="M72.2367 0.284797C70.9567 3.9328 68.9407 7.1648 66.1887 9.9808C63.4367 12.7968 60.5567 14.9088 57.5487 16.3168C55.1167 17.2128 52.7487 17.8528 50.4447 18.2368C48.2047 18.5568 45.9967 18.7168 43.8207 18.7168C41.5167 18.7168 39.3087 18.5568 37.1967 18.2368C35.1487 17.9168 33.1647 17.5328 31.2447 17.0848C29.3247 16.6368 27.5007 16.1888 25.7726 15.7408C24.0446 15.2928 22.4126 14.9088 20.8766 14.5888C19.2126 15.8688 17.3886 16.8928 15.4046 17.6608C13.4206 18.3648 11.4046 18.7168 9.35665 18.7168C8.07665 18.7168 6.82865 18.5888 5.61265 18.3328C4.39665 18.0768 3.21265 17.6288 2.06065 16.9888C0.844649 16.4128 0.236649 15.5488 0.236649 14.3968C0.236649 13.8208 0.460649 13.2448 0.908649 12.6688C1.35665 12.0288 2.09265 11.4848 3.11665 11.0368C3.75665 10.7168 4.49265 10.5248 5.32465 10.4608C6.15665 10.3328 7.05265 10.2688 8.01265 10.2688C9.16465 10.2688 10.3486 10.3328 11.5646 10.4608C12.7806 10.5888 13.9646 10.7808 15.1166 11.0368C16.2686 11.2288 17.3246 11.4528 18.2846 11.7088C19.3086 11.9648 20.1726 12.2208 20.8766 12.4768C21.3246 11.7728 21.5486 11.0688 21.5486 10.3648C21.5486 9.2768 21.0366 8.4448 20.0126 7.8688C19.0526 7.2928 17.8686 7.0048 16.4606 7.0048C15.3086 7.0048 14.1246 7.1968 12.9086 7.5808H12.5246C14.1246 6.7488 15.8206 6.3328 17.6126 6.3328C19.0846 6.3328 20.3326 6.6848 21.3566 7.3888C22.3806 8.0288 22.8926 8.9888 22.8926 10.2688C22.8926 11.0368 22.7006 11.9008 22.3166 12.8608C26.7966 14.0128 30.5407 14.8768 33.5486 15.4528C36.6207 16.0288 39.5327 16.3168 42.2847 16.3168C44.4607 16.3168 46.6687 16.1568 48.9086 15.8368C51.1487 15.4528 53.8047 14.9088 56.8766 14.2048C58.3486 13.6928 59.8526 13.0208 61.3886 12.1888C62.9247 11.2928 64.3327 10.2688 65.6127 9.1168C66.9567 7.9008 68.1407 6.5568 69.1647 5.0848C70.2527 3.6128 71.0527 2.0128 71.5646 0.284797H72.2367ZM19.1486 14.2048C17.1006 13.6928 15.1486 13.3088 13.2926 13.0528C11.5006 12.7328 9.77265 12.5728 8.10865 12.5728C6.82865 12.5728 5.61265 12.6688 4.46065 12.8608C3.50065 13.3728 3.02065 13.9488 3.02065 14.5888C3.02065 15.1008 3.40465 15.6768 4.17265 16.3168C4.81265 16.6368 5.58065 16.8928 6.47665 17.0848C7.37265 17.2768 8.36465 17.3728 9.45265 17.3728C10.9246 17.3728 12.4926 17.1488 14.1566 16.7008C15.8206 16.2528 17.4846 15.4208 19.1486 14.2048Z" fill="#402A0C" fill-opacity="0.43"></path></svg> 