<?xml version="1.0" encoding="UTF-8"?> <svg xmlns="http://www.w3.org/2000/svg" width="166" height="35" viewBox="0 0 166 35" fill="none"><path d="M1.65034 16.1C1.50538 16.6074 1.46913 17.151 1.54162 17.7309C1.54162 18.0933 1.6141 18.347 1.75907 18.492C1.90403 18.202 2.08524 17.7309 2.26645 17.0061C2.26645 16.9698 2.26645 16.9336 2.30269 16.8973C2.33893 16.6074 2.52014 16.3899 2.88256 16.3175C3.06377 16.3175 3.24498 16.3537 3.38994 16.4624C3.53491 16.6074 3.60739 16.7524 3.64363 16.9336C3.71612 17.6584 3.86108 18.202 4.04229 18.5282C4.2235 18.347 4.36847 18.1295 4.51343 17.8759C4.36847 17.2597 4.40471 16.6074 4.62216 15.9188C4.69464 15.5926 4.83961 15.3389 5.05706 15.1215C5.38323 14.7953 5.74565 14.7228 6.14431 14.9403C6.398 15.0852 6.54297 15.3752 6.61545 15.7376C6.61545 15.955 6.61545 16.245 6.54297 16.6074C6.25303 17.4047 6.07183 17.8396 5.99934 17.9483C6.18055 18.3832 6.54297 18.8181 7.12283 19.1806C8.35505 20.0504 10.0584 20.5577 12.2329 20.7389C14.4074 20.9564 16.5819 20.7389 18.7564 20.0866C21.0034 19.398 22.743 18.2745 23.9027 16.7524C24.0115 16.6074 24.1564 16.5349 24.3376 16.4987C24.5188 16.4987 24.7 16.5349 24.845 16.6436C25.2074 16.8973 25.2799 17.2235 24.99 17.5859C23.6853 19.3255 21.7282 20.594 19.1551 21.3913C16.8718 22.1161 14.5161 22.3336 12.1242 22.1161C9.73223 21.9349 7.77518 21.3188 6.32552 20.304C5.92686 20.0504 5.56444 19.7242 5.23827 19.2893C4.98458 19.543 4.80337 19.6879 4.69464 19.7604C4.00605 20.1953 3.42618 20.0504 2.99128 19.398C2.9188 19.3618 2.88256 19.3255 2.88256 19.253C2.81008 19.398 2.70135 19.543 2.62887 19.6155C2.33893 19.9054 2.01276 20.0504 1.68658 20.0504C1.36041 20.0504 1.07048 19.8691 0.816785 19.5792C0.454368 19.2168 0.236918 18.6369 0.164435 17.9121C0.0919513 17.1873 0.128193 16.4624 0.345643 15.7376C0.454368 15.3027 0.744301 15.1577 1.1792 15.2302C1.36041 15.3027 1.50538 15.4114 1.57786 15.5926C1.65034 15.7738 1.68658 15.955 1.65034 16.1ZM25.2932 17.0785C25.5469 17.3685 25.8368 17.5497 26.163 17.6584C26.4529 17.7671 26.6704 17.7671 26.8878 17.6946C26.9603 17.6946 27.0328 17.6222 27.1053 17.5134C27.1053 17.441 27.0691 17.2597 26.9966 17.0423C26.7429 16.6074 26.4167 16.4624 26.0543 16.5712C25.7644 16.6436 25.5107 16.8248 25.2932 17.0785ZM24.7858 18.4557C24.7858 18.8181 24.8946 19.1806 25.112 19.543C25.6194 20.4128 26.6342 21.1014 28.2288 21.6087C30.9832 22.551 33.955 22.551 37.108 21.6087C40.1161 20.6665 42.8704 19.0718 45.3349 16.7886C45.6973 16.4987 46.0234 16.4987 46.3134 16.8248C46.6033 17.1873 46.6033 17.5134 46.2771 17.8034C43.5953 20.2678 40.6597 21.9712 37.5067 22.9134C34.1362 23.9645 30.9107 23.9645 27.7939 22.9134C25.9456 22.3336 24.6409 21.4638 23.916 20.2678C23.2999 19.253 23.2274 18.202 23.6986 17.1148C24.061 16.1363 24.7133 15.5201 25.6556 15.2665C26.7429 14.9765 27.5764 15.3389 28.1925 16.3537C28.4825 16.9336 28.555 17.4772 28.3738 17.9846C28.1925 18.492 27.8301 18.8544 27.2865 18.9993C26.4892 19.2893 25.6556 19.1081 24.7858 18.4557ZM48.8817 17.5134L48.8092 17.3685C48.773 17.3322 48.773 17.296 48.773 17.2235C47.7582 16.9336 46.9609 16.9336 46.4173 17.2235C45.9824 17.4772 45.8012 17.8396 45.9462 18.3108C46.0186 18.7819 46.3086 18.9631 46.7797 18.8906C47.3958 18.8544 48.0844 18.3832 48.8817 17.5134ZM49.824 16.1363C49.824 16.1725 49.8603 16.1725 49.8965 16.1725C50.2589 15.6289 50.8025 14.6141 51.4911 13.1644C52.3609 11.2074 52.977 9.50403 53.3395 8.05436C53.8468 6.24228 53.9918 4.79261 53.7744 3.70536C53.5569 2.76308 52.9408 2.29194 51.9623 2.29194C50.9837 2.32818 50.2227 2.98053 49.7153 4.24899C49.3891 5.11878 49.1717 6.13355 49.0629 7.36577C48.7005 10.845 48.9542 13.7805 49.824 16.1363ZM48.2294 15.7014C47.5045 13.3456 47.3233 10.5188 47.6858 7.25704C47.6858 6.96711 47.7582 6.45973 47.867 5.73489C48.0119 5.01006 48.1931 4.32147 48.4468 3.7416C48.8092 2.94428 49.2079 2.29194 49.679 1.85704C50.2952 1.27717 51.0562 0.950994 51.926 0.914753C52.7958 0.914753 53.4844 1.1322 54.028 1.53086C54.5717 1.96576 54.9341 2.61811 55.1153 3.41543C55.369 4.64764 55.224 6.31476 54.6804 8.41678C54.2455 10.1201 53.5931 11.896 52.7233 13.7443C51.9985 15.3752 51.3099 16.6074 50.7301 17.4047C50.6213 17.5497 50.5488 17.6584 50.5126 17.6946C50.5126 17.7309 50.5488 17.7671 50.5851 17.8396L50.6938 18.0208C51.9985 20.2678 53.8831 21.6087 56.42 22.0799C58.7395 22.551 61.1314 22.2611 63.6683 21.2463C66.169 20.2316 68.1261 18.7094 69.5757 16.6799C69.8294 16.3175 70.1556 16.245 70.518 16.4987C70.8804 16.7886 70.9529 17.1148 70.6992 17.4772C69.1046 19.7242 66.8938 21.3913 64.1395 22.551C61.3851 23.7108 58.7032 24.0007 56.1301 23.4571C53.2307 22.8772 51.02 21.3188 49.5703 18.7819C48.628 19.7242 47.7582 20.1953 46.8884 20.2678C46.3086 20.3403 45.8374 20.1953 45.4025 19.9054C44.9676 19.6155 44.7139 19.1806 44.6052 18.6369C44.4602 18.1295 44.4965 17.6584 44.7139 17.151C44.9314 16.6436 45.2576 16.2812 45.7649 15.9913C46.4173 15.6289 47.2509 15.5564 48.2294 15.7014ZM73.2316 17.5134L73.1591 17.3685C73.1229 17.3322 73.1229 17.296 73.1229 17.2235C72.1081 16.9336 71.3108 16.9336 70.7672 17.2235C70.3323 17.4772 70.1511 17.8396 70.296 18.3108C70.3685 18.7819 70.6584 18.9631 71.1296 18.8906C71.7457 18.8544 72.4343 18.3832 73.2316 17.5134ZM74.1739 16.1363C74.1739 16.1725 74.2101 16.1725 74.2464 16.1725C74.6088 15.6289 75.1524 14.6141 75.841 13.1644C76.7108 11.2074 77.3269 9.50403 77.6893 8.05436C78.1967 6.24228 78.3417 4.79261 78.1242 3.70536C77.9068 2.76308 77.2907 2.29194 76.3121 2.29194C75.3336 2.32818 74.5725 2.98053 74.0652 4.24899C73.739 5.11878 73.5215 6.13355 73.4128 7.36577C73.0504 10.845 73.3041 13.7805 74.1739 16.1363ZM72.5792 15.7014C71.8544 13.3456 71.6732 10.5188 72.0356 7.25704C72.0356 6.96711 72.1081 6.45973 72.2168 5.73489C72.3618 5.01006 72.543 4.32147 72.7967 3.7416C73.1591 2.94428 73.5578 2.29194 74.0289 1.85704C74.645 1.27717 75.4061 0.950994 76.2759 0.914753C77.1457 0.914753 77.8343 1.1322 78.3779 1.53086C78.9215 1.96576 79.284 2.61811 79.4652 3.41543C79.7189 4.64764 79.5739 6.31476 79.0303 8.41678C78.5954 10.1201 77.943 11.896 77.0732 13.7443C76.3484 15.3752 75.6598 16.6074 75.0799 17.4047C74.9712 17.5497 74.8987 17.6584 74.8625 17.6946C74.8625 17.7309 74.8987 17.7671 74.935 17.8396L75.0437 18.0208C76.3484 20.2678 78.2329 21.6087 80.7699 22.0799C83.0893 22.551 85.4813 22.2611 88.0182 21.2463C90.5189 20.2316 92.4759 18.7094 93.9256 16.6799C94.1793 16.3175 94.5055 16.245 94.8679 16.4987C95.2303 16.7886 95.3028 17.1148 95.0491 17.4772C93.4544 19.7242 91.2437 21.3913 88.4893 22.551C85.735 23.7108 83.0531 24.0007 80.4799 23.4571C77.5806 22.8772 75.3699 21.3188 73.9202 18.7819C72.9779 19.7242 72.1081 20.1953 71.2383 20.2678C70.6584 20.3403 70.1873 20.1953 69.7524 19.9054C69.3175 19.6155 69.0638 19.1806 68.9551 18.6369C68.8101 18.1295 68.8464 17.6584 69.0638 17.151C69.2813 16.6436 69.6074 16.2812 70.1148 15.9913C70.7672 15.6289 71.6007 15.5564 72.5792 15.7014ZM95.4795 15.9913C95.1895 17.4772 95.4795 18.6732 96.3493 19.6155C97.1466 20.5215 98.415 21.0651 100.155 21.2463C102.039 21.3913 103.996 21.1376 106.062 20.4128C108.345 19.6517 110.52 18.4195 112.549 16.7524C112.912 16.4624 113.238 16.4987 113.528 16.8248C113.818 17.2235 113.781 17.5497 113.419 17.8034C111.317 19.543 109.07 20.8114 106.714 21.645C104.322 22.4785 102.112 22.8047 100.046 22.5873C97.9076 22.4061 96.2768 21.6812 95.1895 20.449C94.1023 19.2168 93.7399 17.6584 94.1385 15.7376C94.1748 15.5564 94.2835 15.4114 94.4284 15.3027C94.5734 15.2302 94.7546 15.194 94.9358 15.194C95.117 15.2665 95.262 15.3752 95.3707 15.5201C95.4432 15.6651 95.4795 15.8463 95.4795 15.9913ZM95.407 12.8383V12.8745C95.5519 13.0195 95.6607 13.1644 95.6969 13.3456C95.6969 13.5269 95.6607 13.6718 95.5519 13.8168C95.407 13.998 95.262 14.1067 95.0808 14.1067C94.8996 14.143 94.7546 14.1067 94.6097 13.9618H94.5734C94.211 13.7081 94.1385 13.3819 94.4284 13.0195C94.6821 12.6571 95.0083 12.5846 95.407 12.8383ZM112.757 19.2168L112.794 19.1443V19.0356L112.866 18.0208C112.902 16.9336 112.83 16.1363 112.649 15.5564C112.576 15.4114 112.612 15.2302 112.685 15.049C112.757 14.8678 112.902 14.7591 113.12 14.6866C113.265 14.6503 113.446 14.6866 113.627 14.7591C113.808 14.8316 113.917 14.9765 113.99 15.1577C114.098 15.5926 114.171 16.0638 114.207 16.5349C114.569 16.1725 114.932 15.8826 115.367 15.6651C116.055 15.3752 116.744 15.3389 117.433 15.5564C117.94 15.7376 118.339 16.1363 118.556 16.7161C118.665 17.151 118.737 17.6222 118.773 18.1295C118.773 18.2383 118.81 18.4195 118.81 18.6732C118.81 18.8181 118.846 18.9269 118.846 19.0718C118.846 19.6879 118.918 20.2316 119.063 20.6665C119.172 21.2463 119.353 21.7175 119.643 22.0436C120.513 23.2396 121.854 23.8557 123.702 23.9282C125.406 24.0007 127.363 23.602 129.574 22.7685C131.676 22.0074 133.596 21.0289 135.408 19.8329C137.076 18.8181 138.38 17.7671 139.359 16.7161C139.649 16.3537 139.975 16.3537 140.301 16.6436C140.663 16.9698 140.663 17.296 140.374 17.6222C139.431 18.7094 137.982 19.8691 136.025 21.1014C134.067 22.3336 132.074 23.3483 130.045 24.0732C127.58 24.9792 125.442 25.3779 123.63 25.2692C121.383 25.1967 119.68 24.3994 118.52 22.8772C118.121 22.3698 117.867 21.7175 117.722 20.9926C117.578 20.4853 117.469 19.8691 117.469 19.1443C117.469 18.9993 117.433 18.8906 117.433 18.7457V18.2383C117.36 17.4047 117.215 16.9336 116.998 16.8611C116.309 16.6436 115.657 16.8973 115.041 17.6946C114.606 18.2745 114.28 18.8544 114.135 19.4705C114.135 19.5792 114.098 19.6517 114.098 19.6879C114.098 20.0504 113.917 20.2316 113.555 20.304C113.482 20.3765 113.373 20.3765 113.265 20.304C112.83 20.2678 112.612 20.0141 112.685 19.5067C112.721 19.4342 112.757 19.3255 112.757 19.2168ZM143.244 17.4047C143.244 17.0423 143.208 16.7886 143.208 16.6436C141.94 16.7524 141.07 17.0785 140.562 17.6222C140.127 18.0571 140.019 18.5282 140.236 18.9631C140.381 19.3255 140.707 19.4705 141.142 19.398C141.831 19.2893 142.519 18.6369 143.244 17.4047ZM143.425 23.7108C143.027 23.7832 142.664 23.8557 142.338 23.9282C140.454 24.3269 139.004 24.9792 137.917 25.8853C137.156 26.4651 136.612 27.2262 136.322 28.1322C136.141 28.6396 136.068 29.1108 136.141 29.5094C136.213 30.3067 136.54 30.9953 137.083 31.5752C137.627 32.1551 138.279 32.5175 139.04 32.6625C139.838 32.8074 140.562 32.6987 141.251 32.3C141.903 31.9376 142.447 31.3215 142.846 30.4517C143.281 29.4732 143.462 27.2262 143.425 23.7108ZM144.585 14.9765C144.585 15.7738 144.621 17.1873 144.694 19.1806C144.73 20.8477 144.766 21.8262 144.766 22.1524C146.832 22.0074 149.007 22.0436 151.29 22.2249C153.066 22.4061 154.987 22.1161 157.052 21.3551C159.734 20.4128 162.017 18.8906 163.938 16.7524C164.228 16.4262 164.554 16.4262 164.917 16.7161C165.243 17.0061 165.243 17.3322 164.953 17.6946C162.851 20.0141 160.387 21.645 157.523 22.6598C155.277 23.4571 153.174 23.7832 151.181 23.602C148.825 23.3846 146.687 23.3846 144.803 23.5658C144.803 25.3779 144.766 26.6101 144.73 27.3349C144.585 29.1108 144.368 30.343 144.078 30.9953C143.57 32.1551 142.809 33.0249 141.867 33.5323C140.925 34.0759 139.874 34.2208 138.787 34.0034C137.736 33.8222 136.829 33.351 136.105 32.5537C135.38 31.7564 134.945 30.8141 134.8 29.6906C134.727 29.147 134.8 28.4947 135.017 27.6973C135.38 26.5739 136.068 25.6316 137.011 24.8343C138.207 23.7832 139.874 23.0222 142.048 22.551C142.628 22.4785 143.063 22.4061 143.389 22.3336C143.389 22.0074 143.353 21.1014 143.317 19.5792C142.664 20.2316 142.048 20.6302 141.396 20.7389C140.852 20.8477 140.345 20.7752 139.91 20.5577C139.475 20.3403 139.149 19.9779 138.968 19.5067C138.533 18.5282 138.714 17.5859 139.548 16.6799C140.272 15.8826 141.505 15.4114 143.208 15.2665V14.9765C143.208 14.5416 143.425 14.2879 143.897 14.2879C144.078 14.2879 144.223 14.3604 144.368 14.5054C144.513 14.6503 144.585 14.7953 144.585 14.9765Z" fill="#7F1023"></path></svg> 