<?xml version="1.0" encoding="UTF-8"?> <svg xmlns="http://www.w3.org/2000/svg" width="484" height="183" viewBox="0 0 484 183" fill="none"><line x1="161.372" y1="1.15247" x2="161.372" y2="181.063" stroke="#F2EEE3"></line><line x1="1.37158" y1="0.0623779" x2="1.37158" y2="182.005" stroke="#F2EEE3"></line><line x1="321.372" y1="0.062622" x2="321.372" y2="181.063" stroke="#F2EEE3"></line><line x1="481.372" y1="0.062622" x2="481.372" y2="181.809" stroke="#F2EEE3"></line><line x1="481.618" y1="50.5626" x2="0.871796" y2="50.5626" stroke="#F2EEE3"></line><line x1="483.871" y1="0.562622" x2="0.87439" y2="0.562622" stroke="#F2EEE3"></line><line x1="481.899" y1="181.563" x2="0.871704" y2="181.563" stroke="#F2EEE3"></line><path d="M52.6438 104.949L62.8198 94.8372H64.0358C63.7158 96.5652 63.7158 97.5891 63.7158 100.917V133.237C63.7158 137.269 63.7158 138.037 64.0358 139.701V139.957H57.8278V139.701C58.2758 138.037 58.2758 137.269 58.2758 133.237V102.581L53.7318 106.165L52.6438 104.949ZM89.0288 94.0051C98.9488 94.0051 103.941 102.197 103.941 111.733C103.941 124.533 94.7248 140.213 76.1648 140.981V139.317C91.9088 137.525 98.5008 122.805 98.5008 111.221C98.5008 100.725 93.8288 95.9252 88.9648 95.9252C84.2928 95.9252 79.6208 100.405 79.6208 108.725C79.6208 114.933 82.7568 121.077 88.9008 121.077C90.1168 121.077 91.2048 120.885 92.2928 120.501L92.9968 122.229C91.2688 122.997 89.4128 123.381 87.5568 123.381C80.8368 123.381 74.1808 118.389 74.1808 109.365C74.1808 101.813 79.2368 94.0051 89.0288 94.0051Z" fill="#F2EEE3"></path><path d="M209.034 137.789C225.866 125.629 230.602 114.813 230.602 107.069C230.602 99.1332 226.186 95.1652 221.578 95.1652C216.138 95.1652 211.53 99.6452 211.914 107.453H210.89L210.058 98.7492C213.066 95.1012 217.354 93.2452 222.026 93.2452C230.73 93.2452 236.17 98.4292 236.17 106.621C236.17 116.157 228.682 124.989 216.97 134.013H228.682C232.714 134.013 233.482 134.013 235.146 133.565H235.402V139.453H209.034V137.789ZM262.336 140.477C251.072 140.477 243.136 130.749 243.136 116.861C243.136 102.973 251.072 93.2452 262.336 93.2452C273.536 93.2452 281.536 102.973 281.536 116.861C281.536 130.749 273.536 140.477 262.336 140.477ZM248.896 117.565C248.896 129.789 254.272 138.557 262.272 138.557C270.976 138.557 275.776 127.677 275.776 116.029C275.776 103.805 270.336 95.1652 262.528 95.1652C253.824 95.1652 248.896 105.917 248.896 117.565Z" fill="#F2EEE3"></path><path d="M365.503 137.789C382.335 125.629 387.071 114.813 387.071 107.069C387.071 99.1332 382.655 95.1652 378.047 95.1652C372.607 95.1652 367.999 99.6452 368.383 107.453H367.359L366.527 98.7492C369.535 95.1012 373.823 93.2452 378.495 93.2452C387.199 93.2452 392.639 98.4292 392.639 106.621C392.639 116.157 385.151 124.989 373.439 134.013H385.151C389.183 134.013 389.951 134.013 391.615 133.565H391.871V139.453H365.503V137.789ZM401.205 104.445L411.381 94.3332H412.597C412.277 96.0612 412.277 97.0852 412.277 100.413V132.733C412.277 136.765 412.277 137.533 412.597 139.197V139.453H406.389V139.197C406.837 137.533 406.837 136.765 406.837 132.733V102.077L402.293 105.661L401.205 104.445Z" fill="#F2EEE3"></path><path d="M58.108 30.5079V25.1079C56.764 25.1919 55.744 25.2339 55.048 25.2339C53.956 25.2339 53.14 25.1019 52.6 24.8379C52.072 24.5859 51.73 24.2559 51.574 23.8479C51.418 23.4279 51.34 22.8639 51.34 22.1559V18.5019H52.132V22.1559C52.132 22.4079 52.138 22.5939 52.15 22.7139C52.162 22.8339 52.192 23.0139 52.24 23.2539C52.288 23.4819 52.384 23.6799 52.528 23.8479C52.672 24.0039 52.864 24.1359 53.104 24.2439C53.476 24.4239 54.208 24.5139 55.3 24.5139C56.128 24.5139 57.064 24.4719 58.108 24.3879V18.5019H58.9V30.5079H58.108ZM67.4934 18.5019V19.2219H62.5254V23.5779H67.3854V24.2979H62.5254V29.7879H67.4934V30.5079H61.7334V18.5019H67.4934ZM75.327 19.2219H72.213V30.5079H71.421V19.2219H68.307V18.5019H75.327V19.2219ZM76.7904 30.5079V18.5019H79.4184C80.4504 18.5019 81.2604 18.7779 81.8484 19.3299C82.4364 19.8699 82.7304 20.5959 82.7304 21.5079C82.7304 22.6839 82.2624 23.5599 81.3264 24.1359C82.0944 24.2559 82.7004 24.5919 83.1444 25.1439C83.5884 25.6959 83.8104 26.3619 83.8104 27.1419C83.8104 28.1739 83.4624 28.9959 82.7664 29.6079C82.0824 30.2079 81.1884 30.5079 80.0844 30.5079H76.7904ZM77.5824 19.2219V23.9379H79.4904C80.1744 23.9379 80.7204 23.7699 81.1284 23.4339C81.6564 23.0019 81.9204 22.3899 81.9204 21.5979C81.9204 20.7939 81.6504 20.1699 81.1104 19.7259C80.6784 19.3899 80.0124 19.2219 79.1124 19.2219H77.5824ZM77.5824 24.6579V29.7879H79.5984C79.9704 29.7879 80.2644 29.7819 80.4804 29.7699C80.6964 29.7459 80.9724 29.6799 81.3084 29.5719C81.6564 29.4639 81.9564 29.2959 82.2084 29.0679C82.7244 28.6119 82.9824 27.9999 82.9824 27.2319C82.9824 26.1399 82.5564 25.3959 81.7044 24.9999C81.1884 24.7719 80.4384 24.6579 79.4544 24.6579H77.5824ZM91.7576 18.5019V19.2219H86.7896V23.5779H91.6496V24.2979H86.7896V29.7879H91.7576V30.5079H85.9976V18.5019H91.7576ZM96.2793 24.8019H94.7313V30.5079H93.9393V18.5019H96.2613C97.2813 18.5019 98.1213 18.7779 98.7813 19.3299C99.4413 19.8699 99.7713 20.6379 99.7713 21.6339C99.7713 22.6179 99.4533 23.3919 98.8173 23.9559C98.1813 24.5199 97.3353 24.8019 96.2793 24.8019ZM94.7313 19.2219V24.0819H96.3153C97.1073 24.0819 97.7433 23.8659 98.2233 23.4339C98.7033 22.9899 98.9433 22.3959 98.9433 21.6519C98.9433 20.8959 98.6973 20.3019 98.2053 19.8699C97.7253 19.4379 97.0533 19.2219 96.1893 19.2219H94.7313ZM101.564 30.5079V18.5019H106.892V19.2219H102.356V30.5079H101.564Z" fill="#F2EEE3"></path><path d="M206.841 18.5019H215.697V30.5079H214.905V19.2219H207.633V30.5079H206.841V18.5019ZM217.518 30.5079L221.154 25.1259C220.698 25.1139 220.248 25.0239 219.804 24.8559C219.648 24.7959 219.486 24.7179 219.318 24.6219C219.162 24.5139 218.958 24.3519 218.706 24.1359C218.466 23.9079 218.268 23.5959 218.112 23.1999C217.956 22.7919 217.878 22.3299 217.878 21.8139C217.878 21.1059 218.034 20.5179 218.346 20.0499C218.658 19.5699 219.024 19.2099 219.444 18.9699C219.972 18.6579 220.722 18.5019 221.694 18.5019H223.746V30.5079H222.954V25.1259H222.054L218.454 30.5079H217.518ZM222.954 19.2219H221.694C220.998 19.2219 220.452 19.3179 220.056 19.5099C219.636 19.7019 219.306 20.0019 219.066 20.4099C218.826 20.8179 218.706 21.2859 218.706 21.8139C218.706 22.6539 218.97 23.3079 219.498 23.7759C219.966 24.1959 220.662 24.4059 221.586 24.4059H222.954V19.2219ZM232.225 19.2219H229.111V30.5079H228.319V19.2219H225.205V18.5019H232.225V19.2219ZM234.481 18.5019V23.5959H241.753V18.5019H242.545V30.5079H241.753V24.3159H234.481V30.5079H233.689V18.5019H234.481ZM253.943 30.5079V20.4999L245.375 30.8139V18.5019H246.167V28.6899L254.735 18.3759V30.5079H253.943ZM257.57 30.5079V18.5019H258.362V29.7879H265.526V18.5019H266.318V29.7879H267.686V32.9199H266.93V30.5079H257.57ZM276.962 30.5079L275.36 26.5659H270.248L268.646 30.5079H267.782L272.84 18.1419L277.826 30.5079H276.962ZM270.536 25.8459H275.072L272.822 20.1579L270.536 25.8459Z" fill="#F2EEE3"></path><path d="M381.823 19.9059V20.9499C381.307 20.3499 380.695 19.8879 379.987 19.5639C379.291 19.2279 378.553 19.0599 377.773 19.0599C376.249 19.0599 374.971 19.5939 373.939 20.6619C372.907 21.7299 372.391 23.0319 372.391 24.5679C372.391 25.4199 372.553 26.1999 372.877 26.9079C373.213 27.6159 373.645 28.1919 374.173 28.6359C374.713 29.0679 375.295 29.4039 375.919 29.6439C376.543 29.8719 377.167 29.9859 377.791 29.9859C378.463 29.9859 379.159 29.8419 379.879 29.5539C380.599 29.2539 381.247 28.7919 381.823 28.1679V29.2119C380.695 30.2079 379.363 30.7059 377.827 30.7059C376.051 30.7059 374.563 30.0999 373.363 28.8879C372.163 27.6759 371.563 26.2239 371.563 24.5319C371.563 22.8039 372.169 21.3399 373.381 20.1399C374.593 18.9399 376.063 18.3399 377.791 18.3399C379.375 18.3399 380.719 18.8619 381.823 19.9059ZM382.634 18.5019H383.534L387.692 26.2779L391.202 18.5019H392.03L386.54 30.5079H385.712L387.242 27.1599L382.634 18.5019ZM393.49 30.5079V18.5019H399.268V19.2219H394.282V23.6679H396.37C399.13 23.6679 400.51 24.7659 400.51 26.9619C400.51 27.9579 400.186 28.7979 399.538 29.4819C398.902 30.1659 397.93 30.5079 396.622 30.5079H393.49ZM394.282 24.3879V29.7879H396.298C397.51 29.7879 398.386 29.5239 398.926 28.9959C399.43 28.5159 399.682 27.8379 399.682 26.9619C399.682 25.9179 399.268 25.1799 398.44 24.7479C397.96 24.5079 397.198 24.3879 396.154 24.3879H394.282ZM402.698 30.5079V18.5019H408.476V19.2219H403.49V23.6679H405.578C408.338 23.6679 409.718 24.7659 409.718 26.9619C409.718 27.9579 409.394 28.7979 408.746 29.4819C408.11 30.1659 407.138 30.5079 405.83 30.5079H402.698ZM403.49 24.3879V29.7879H405.506C406.718 29.7879 407.594 29.5239 408.134 28.9959C408.638 28.5159 408.89 27.8379 408.89 26.9619C408.89 25.9179 408.476 25.1799 407.648 24.7479C407.168 24.5079 406.406 24.3879 405.362 24.3879H403.49ZM413.057 20.1399C414.257 18.9399 415.733 18.3399 417.485 18.3399C419.237 18.3399 420.713 18.9399 421.913 20.1399C423.113 21.3399 423.713 22.8039 423.713 24.5319C423.713 26.2599 423.113 27.7239 421.913 28.9239C420.713 30.1119 419.237 30.7059 417.485 30.7059C415.733 30.7059 414.257 30.1119 413.057 28.9239C411.857 27.7239 411.257 26.2599 411.257 24.5319C411.257 22.8039 411.857 21.3399 413.057 20.1399ZM413.633 28.4199C414.665 29.4639 415.949 29.9859 417.485 29.9859C419.021 29.9859 420.305 29.4639 421.337 28.4199C422.369 27.3639 422.885 26.0679 422.885 24.5319C422.885 22.9839 422.369 21.6879 421.337 20.6439C420.305 19.5879 419.021 19.0599 417.485 19.0599C415.949 19.0599 414.665 19.5879 413.633 20.6439C412.601 21.6879 412.085 22.9839 412.085 24.5319C412.085 26.0679 412.601 27.3639 413.633 28.4199ZM431.545 19.2219H428.431V30.5079H427.639V19.2219H424.525V18.5019H431.545V19.2219ZM439.749 30.5079L438.147 26.5659H433.035L431.433 30.5079H430.569L435.627 18.1419L440.613 30.5079H439.749ZM433.323 25.8459H437.859L435.609 20.1579L433.323 25.8459Z" fill="#F2EEE3"></path></svg> 