<?xml version="1.0" encoding="UTF-8"?> <svg xmlns="http://www.w3.org/2000/svg" width="274" height="92" viewBox="0 0 274 92" fill="none"><path d="M94.6288 24.7754C93.3168 24.7754 92.0688 24.6954 90.8848 24.5354C89.7328 24.3434 88.6608 24.0554 87.6688 23.6714C85.4608 25.6874 83.3808 27.8954 81.4288 30.2954C79.5088 32.6954 77.8288 35.1914 76.3888 37.7834C74.9808 40.3434 73.8608 42.9354 73.0288 45.5594C72.1968 48.2154 71.7808 50.7914 71.7808 53.2874C71.7808 55.8794 72.3888 57.9274 73.6048 59.4314C74.8528 60.9674 76.8368 61.7354 79.5568 61.7354C81.7968 61.7354 83.8448 61.3194 85.7008 60.4874C87.5888 59.6874 89.2048 58.6794 90.5488 57.4634C91.9248 56.2794 92.9808 55.0154 93.7168 53.6714C94.4848 52.3274 94.8688 51.1274 94.8688 50.0714C94.8688 48.8874 94.5168 47.9754 93.8128 47.3354C93.1088 46.7274 92.1008 46.4234 90.7888 46.4234C89.7648 46.4234 88.7728 46.5994 87.8128 46.9514C86.8848 47.3034 86.0048 47.7194 85.1728 48.1994C84.3408 48.7114 83.5888 49.2234 82.9168 49.7354C82.2448 50.2794 81.7008 50.7274 81.2848 51.0794L80.9968 50.7914C82.5648 49.2874 84.1968 48.0874 85.8928 47.1914C87.5888 46.3274 89.3488 45.8954 91.1728 45.8954C92.8048 45.8954 94.0848 46.2794 95.0128 47.0474C95.9408 47.8474 96.4048 48.8554 96.4048 50.0714C96.4048 51.4794 95.8928 52.9034 94.8688 54.3434C93.8448 55.8154 92.5168 57.1434 90.8848 58.3274C89.2528 59.5114 87.3968 60.4714 85.3168 61.2074C83.2688 61.9434 81.2048 62.3114 79.1248 62.3114C77.1728 62.3114 75.5408 62.0554 74.2288 61.5434C72.9488 61.0314 71.9088 60.3434 71.1088 59.4794C70.3408 58.6154 69.7968 57.6074 69.4768 56.4554C69.1568 55.3034 68.9968 54.1034 68.9968 52.8554C68.9968 50.2634 69.4448 47.6234 70.3408 44.9354C71.2688 42.2474 72.5008 39.6234 74.0368 37.0634C75.6048 34.4714 77.4288 31.9914 79.5088 29.6234C81.6208 27.2234 83.8768 25.0314 86.2768 23.0474C85.1568 22.4394 84.2608 21.6874 83.5888 20.7914C82.9488 19.8634 82.6288 18.7914 82.6288 17.5754C82.6288 16.3594 82.9648 15.2554 83.6368 14.2634C84.3088 13.2394 85.1728 12.3754 86.2288 11.6714C87.3168 10.9674 88.5168 10.4234 89.8288 10.0394C91.1728 9.65537 92.5168 9.46337 93.8608 9.46337V9.94337C92.2928 9.94337 90.8848 10.1674 89.6368 10.6154C88.4208 11.0314 87.3808 11.6074 86.5168 12.3434C85.6528 13.0794 84.9968 13.9274 84.5488 14.8874C84.1008 15.8154 83.8768 16.7754 83.8768 17.7674C83.8768 19.9434 84.8208 21.5754 86.7088 22.6634C88.4368 21.2554 90.2128 19.9754 92.0368 18.8234C93.8928 17.6394 95.7328 16.6474 97.5568 15.8474C99.3808 15.0154 101.173 14.3754 102.933 13.9274C104.693 13.4794 106.389 13.2554 108.021 13.2554C109.333 13.2554 110.389 13.4634 111.189 13.8794C111.989 14.2634 112.389 14.9034 112.389 15.7994C112.389 16.8234 111.877 17.8634 110.853 18.9194C109.829 19.9754 108.485 20.9354 106.821 21.7994C105.157 22.6634 103.253 23.3834 101.109 23.9594C98.9968 24.5034 96.8368 24.7754 94.6288 24.7754ZM108.021 13.7834C106.485 13.7834 104.869 14.0234 103.173 14.5034C101.509 14.9514 99.8288 15.5914 98.1328 16.4234C96.4368 17.2554 94.7408 18.2634 93.0448 19.4474C91.3488 20.5994 89.7008 21.8954 88.1008 23.3354C89.9248 24.0074 92.2608 24.3434 95.1088 24.3434C96.9968 24.3434 98.8848 24.1034 100.773 23.6234C102.661 23.1114 104.357 22.4554 105.861 21.6554C107.365 20.8554 108.581 19.9434 109.509 18.9194C110.437 17.8954 110.901 16.8554 110.901 15.7994C110.901 14.9994 110.629 14.4714 110.085 14.2154C109.541 13.9274 108.853 13.7834 108.021 13.7834ZM104.251 44.5514C103.707 44.5514 103.243 44.4394 102.859 44.2154C102.507 43.9594 102.331 43.5754 102.331 43.0634C102.331 42.5834 102.507 41.9914 102.859 41.2874C103.243 40.5834 103.675 39.8794 104.155 39.1754C104.667 38.4714 105.163 37.8154 105.643 37.2074C106.155 36.5994 106.523 36.1514 106.747 35.8634L106.699 35.8154C106.347 35.8154 105.915 36.0554 105.403 36.5354C104.923 36.9834 104.379 37.5434 103.771 38.2154C103.195 38.8874 102.587 39.5914 101.947 40.3274C101.339 41.0634 100.747 41.6874 100.171 42.1994C99.1465 43.1274 98.2665 43.7834 97.5305 44.1674C96.7945 44.5194 96.0585 44.6954 95.3225 44.6954C94.6825 44.6954 94.1865 44.5514 93.8345 44.2634C93.4825 43.9434 93.3065 43.4954 93.3065 42.9194C93.3065 42.2474 93.4985 41.6074 93.8825 40.9994C94.2345 40.3594 94.6665 39.8954 95.1785 39.6074C95.6905 39.2874 96.2185 39.1754 96.7625 39.2714C97.3385 39.3354 97.6585 39.7674 97.7225 40.5674C97.7545 40.8554 97.6105 41.1754 97.2905 41.5274C96.9705 41.8794 96.6665 42.0554 96.3785 42.0554C96.0585 42.0554 95.8345 41.9434 95.7065 41.7194C95.6105 41.4634 95.4345 41.3194 95.1785 41.2874C95.0185 41.2874 94.7625 41.4314 94.4105 41.7194C94.0905 42.0074 93.9305 42.4234 93.9305 42.9674C93.9305 43.2554 94.0425 43.5594 94.2665 43.8794C94.4905 44.1674 94.8265 44.3114 95.2745 44.3114C95.5945 44.3114 95.8985 44.2794 96.1865 44.2154C96.5065 44.1194 96.8425 43.9754 97.1945 43.7834C97.5785 43.5914 97.9945 43.3354 98.4425 43.0154C98.8905 42.6634 99.4025 42.2154 99.9785 41.6714C100.779 40.9674 101.499 40.2154 102.139 39.4154C102.811 38.5834 103.467 37.8154 104.107 37.1114C104.747 36.4074 105.403 35.8314 106.075 35.3834C106.747 34.9034 107.499 34.6634 108.331 34.6634C108.875 34.6634 109.147 34.8554 109.147 35.2394C109.147 35.5914 108.907 36.1194 108.427 36.8234C107.979 37.5274 107.467 38.2794 106.891 39.0794C106.315 39.8474 105.787 40.6154 105.307 41.3834C104.859 42.1194 104.635 42.7114 104.635 43.1594C104.635 43.5114 104.843 43.6874 105.259 43.6874C106.091 43.6874 106.891 43.3354 107.659 42.6314C108.427 41.8954 109.467 40.7594 110.779 39.2234L111.115 39.4634C110.603 40.0714 110.091 40.6794 109.579 41.2874C109.099 41.8954 108.587 42.4394 108.043 42.9194C107.499 43.3994 106.923 43.7994 106.315 44.1194C105.707 44.4074 105.019 44.5514 104.251 44.5514ZM126.985 34.7114C128.105 34.7114 128.905 34.9514 129.385 35.4314C129.897 35.9114 130.153 36.4554 130.153 37.0634C130.153 37.8314 129.897 38.6634 129.385 39.5594C128.873 40.4234 128.201 41.2394 127.369 42.0074C126.569 42.7754 125.641 43.4154 124.585 43.9274C123.561 44.4074 122.521 44.6474 121.465 44.6474C120.409 44.6474 119.641 44.4554 119.161 44.0714C118.713 43.6554 118.489 43.0794 118.489 42.3434C118.489 41.5434 118.697 40.7274 119.113 39.8954C118.633 39.8954 118.217 39.8954 117.865 39.8954C117.513 39.8634 117.193 39.8474 116.905 39.8474L114.409 43.5434C114.185 43.8634 113.961 44.0874 113.737 44.2154C113.513 44.3114 113.273 44.3594 113.017 44.3594H111.769C111.545 44.3594 111.433 44.2634 111.433 44.0714C111.433 43.9754 111.481 43.8474 111.577 43.6874C111.993 43.1434 112.473 42.4874 113.017 41.7194C113.593 40.9194 114.121 40.1514 114.601 39.4154C115.113 38.6474 115.529 37.9594 115.849 37.3514C116.201 36.7114 116.377 36.2794 116.377 36.0554C116.377 35.7034 116.201 35.5274 115.849 35.5274C115.561 35.5274 115.209 35.6714 114.793 35.9594C114.409 36.2154 113.977 36.5674 113.497 37.0154C113.049 37.4314 112.569 37.9114 112.057 38.4554C111.577 38.9994 111.113 39.5274 110.665 40.0394L110.281 39.8474C110.857 39.2074 111.417 38.5834 111.961 37.9754C112.537 37.3354 113.097 36.7754 113.641 36.2954C114.217 35.8154 114.777 35.4314 115.321 35.1434C115.865 34.8234 116.377 34.6634 116.857 34.6634C117.593 34.6634 118.089 34.7914 118.345 35.0474C118.633 35.3034 118.777 35.6394 118.777 36.0554C118.777 36.4074 118.649 36.8234 118.393 37.3034C118.137 37.7834 117.737 38.4394 117.193 39.2714C117.449 39.3034 117.769 39.3194 118.153 39.3194C118.569 39.3194 119.001 39.3194 119.449 39.3194C119.801 38.7114 120.233 38.1354 120.745 37.5914C121.257 37.0474 121.833 36.5674 122.473 36.1514C123.145 35.7034 123.849 35.3514 124.585 35.0954C125.353 34.8394 126.153 34.7114 126.985 34.7114ZM126.745 35.2394C126.169 35.2394 125.529 35.5114 124.825 36.0554C124.121 36.5674 123.465 37.2234 122.857 38.0234C122.281 38.7914 121.785 39.6234 121.369 40.5194C120.953 41.4154 120.745 42.2314 120.745 42.9674C120.745 43.2554 120.841 43.5274 121.033 43.7834C121.225 44.0394 121.561 44.1674 122.041 44.1674C122.745 44.1674 123.465 43.8794 124.201 43.3034C124.937 42.6954 125.593 41.9914 126.169 41.1914C126.777 40.3594 127.257 39.5114 127.609 38.6474C127.993 37.7834 128.185 37.0634 128.185 36.4874C128.185 35.6554 127.705 35.2394 126.745 35.2394ZM133.352 44.6474C132.328 44.6474 131.576 44.4554 131.096 44.0714C130.648 43.6874 130.424 43.1434 130.424 42.4394C130.424 41.6714 130.664 40.8394 131.144 39.9434C131.624 39.0154 132.264 38.1674 133.064 37.3994C133.864 36.6314 134.792 35.9914 135.848 35.4794C136.936 34.9674 138.056 34.7114 139.208 34.7114L139.112 35.1914C138.44 35.2234 137.72 35.5114 136.952 36.0554C136.216 36.5674 135.528 37.2234 134.888 38.0234C134.28 38.7914 133.768 39.6234 133.352 40.5194C132.936 41.3834 132.712 42.1994 132.68 42.9674C132.68 43.2554 132.76 43.5274 132.92 43.7834C133.08 44.0394 133.416 44.1674 133.928 44.1674C134.568 44.1674 135.272 43.8954 136.04 43.3514C136.808 42.7754 137.528 41.9914 138.2 40.9994C138.872 39.9754 139.432 38.7754 139.88 37.3994C140.328 35.9914 140.552 34.4714 140.552 32.8394C140.552 32.2314 140.52 31.5114 140.456 30.6794C140.424 29.8154 140.376 28.9514 140.312 28.0874C140.28 27.2234 140.232 26.3914 140.168 25.5914C140.136 24.7914 140.12 24.1034 140.12 23.5274C140.12 21.8314 140.344 20.3754 140.792 19.1594C141.272 17.9114 141.896 16.8714 142.664 16.0394C143.464 15.1754 144.392 14.4714 145.448 13.9274C146.504 13.3834 147.608 12.9514 148.76 12.6314C149.944 12.2794 151.16 12.0234 152.408 11.8634C153.656 11.6714 154.872 11.5114 156.056 11.3834C157.24 11.2554 158.456 11.1114 159.704 10.9514C160.952 10.7594 162.168 10.5194 163.352 10.2314C164.536 9.91137 165.64 9.52737 166.664 9.07937C167.72 8.63137 168.632 8.08737 169.4 7.44737C170.2 6.80737 170.824 6.05537 171.272 5.19137C171.752 4.29537 171.992 3.27137 171.992 2.11937C171.992 1.57537 171.912 1.07937 171.752 0.631371L172.136 0.391372C172.456 0.839372 172.68 1.30337 172.808 1.78337C172.936 2.23137 173 2.67937 173 3.12737C173 4.43937 172.536 5.57537 171.608 6.53537C170.712 7.49537 169.496 8.32737 167.96 9.03137C166.424 9.70337 164.632 10.2634 162.584 10.7114C160.536 11.1594 158.36 11.5114 156.056 11.7674C155.16 11.8634 154.184 11.9754 153.128 12.1034C152.104 12.2314 151.08 12.4234 150.056 12.6794C149.032 12.9354 148.04 13.2874 147.08 13.7354C146.12 14.1834 145.272 14.7914 144.536 15.5594C143.8 16.2954 143.208 17.2074 142.76 18.2954C142.344 19.3514 142.136 20.6474 142.136 22.1834C142.136 24.4554 142.216 26.4074 142.376 28.0394C142.536 29.6714 142.616 31.0954 142.616 32.3114C142.616 34.2314 142.328 35.9594 141.752 37.4954C141.176 38.9994 140.44 40.2794 139.544 41.3354C138.648 42.3914 137.64 43.2074 136.52 43.7834C135.432 44.3594 134.376 44.6474 133.352 44.6474ZM150.685 35.2394C150.109 35.2394 149.469 35.5114 148.765 36.0554C148.061 36.5674 147.405 37.2234 146.797 38.0234C146.221 38.7914 145.725 39.6234 145.309 40.5194C144.893 41.4154 144.685 42.2314 144.685 42.9674C144.685 43.2554 144.781 43.5274 144.973 43.7834C145.165 44.0394 145.501 44.1674 145.981 44.1674C146.685 44.1674 147.405 43.8794 148.141 43.3034C148.877 42.6954 149.533 41.9914 150.109 41.1914C150.717 40.3594 151.197 39.5114 151.549 38.6474C151.933 37.7834 152.125 37.0634 152.125 36.4874C152.125 35.6554 151.645 35.2394 150.685 35.2394ZM150.925 34.7114C152.045 34.7114 152.845 34.9514 153.325 35.4314C153.837 35.9114 154.093 36.4554 154.093 37.0634C154.093 37.8314 153.837 38.6634 153.325 39.5594C152.813 40.4234 152.141 41.2394 151.309 42.0074C150.509 42.7754 149.581 43.4154 148.525 43.9274C147.501 44.4074 146.461 44.6474 145.405 44.6474C144.349 44.6474 143.581 44.4554 143.101 44.0714C142.653 43.6554 142.429 43.0794 142.429 42.3434C142.429 41.5754 142.653 40.7434 143.101 39.8474C143.549 38.9514 144.157 38.1194 144.925 37.3514C145.693 36.5834 146.589 35.9594 147.613 35.4794C148.669 34.9674 149.773 34.7114 150.925 34.7114ZM161.289 33.8474C160.457 35.0634 159.785 36.1994 159.273 37.2554C158.761 38.3114 158.361 39.2394 158.073 40.0394C157.785 40.8074 157.577 41.4474 157.449 41.9594C157.353 42.4714 157.305 42.7914 157.305 42.9194C157.305 43.7514 157.753 44.1674 158.649 44.1674C159.225 44.1674 159.833 43.9594 160.473 43.5434C161.145 43.1274 161.753 42.6154 162.297 42.0074C162.873 41.3674 163.337 40.6954 163.689 39.9914C164.073 39.2554 164.297 38.5994 164.361 38.0234C164.329 37.7034 164.249 37.4794 164.121 37.3514C163.993 37.2234 163.849 37.1274 163.689 37.0634C163.561 36.9674 163.433 36.8714 163.305 36.7754C163.177 36.6794 163.113 36.4874 163.113 36.1994C163.113 35.8154 163.289 35.4634 163.641 35.1434C163.993 34.8234 164.409 34.6634 164.889 34.6634C165.433 34.6634 165.865 34.8554 166.185 35.2394C166.505 35.5914 166.665 36.0394 166.665 36.5834C166.665 37.5754 166.393 38.5674 165.849 39.5594C165.305 40.5194 164.601 41.3834 163.737 42.1514C162.905 42.9194 161.977 43.5434 160.953 44.0234C159.929 44.4714 158.953 44.6954 158.025 44.6954C156.809 44.6954 156.025 44.4714 155.673 44.0234C155.321 43.5434 155.145 42.9834 155.145 42.3434C155.145 41.4474 155.465 40.2634 156.105 38.7914C156.777 37.2874 157.641 35.6874 158.697 33.9914C159.785 32.2954 161.001 30.5674 162.345 28.8074C163.721 27.0474 165.097 25.4634 166.473 24.0554C167.881 22.6474 169.241 21.4954 170.553 20.5994C171.865 19.7034 173.001 19.2554 173.961 19.2554C174.537 19.2554 175.033 19.3994 175.449 19.6874C175.865 19.9754 176.073 20.4234 176.073 21.0314C176.073 21.7354 175.721 22.6634 175.017 23.8154C174.313 24.9354 173.321 26.1194 172.041 27.3674C170.761 28.5834 169.209 29.7834 167.385 30.9674C165.561 32.1194 163.529 33.0794 161.289 33.8474ZM172.425 20.3594C171.785 20.3594 171.017 20.7754 170.121 21.6074C169.257 22.4394 168.329 23.4954 167.337 24.7754C166.377 26.0554 165.401 27.4474 164.409 28.9514C163.417 30.4554 162.489 31.8794 161.625 33.2234L161.673 33.2714C163.721 32.5354 165.497 31.6394 167.001 30.5834C168.505 29.5274 169.753 28.4554 170.745 27.3674C171.737 26.2474 172.473 25.1754 172.953 24.1514C173.465 23.0954 173.721 22.2314 173.721 21.5594C173.721 21.2394 173.609 20.9674 173.385 20.7434C173.193 20.4874 172.873 20.3594 172.425 20.3594ZM178.022 39.5114C178.022 40.0234 177.878 40.5834 177.59 41.1914C177.302 41.7994 176.854 42.3594 176.246 42.8714C175.638 43.3834 174.886 43.8154 173.99 44.1674C173.094 44.5194 172.022 44.6954 170.774 44.6954C169.526 44.6954 168.63 44.4554 168.086 43.9754C167.542 43.4954 167.27 42.9194 167.27 42.2474C167.27 41.8314 167.446 41.2874 167.798 40.6154C168.15 39.9114 168.566 39.2074 169.046 38.5034C169.526 37.7674 170.006 37.0794 170.486 36.4394C170.966 35.7994 171.334 35.3034 171.59 34.9514C171.782 34.6954 171.974 34.5034 172.166 34.3754C172.39 34.2154 172.71 34.1354 173.126 34.1354H173.894C174.15 34.1354 174.278 34.2314 174.278 34.4234C174.278 34.4554 174.262 34.5034 174.23 34.5674C174.23 34.5994 174.198 34.6794 174.134 34.8074C172.598 37.1114 171.398 38.8714 170.534 40.0874C169.702 41.3034 169.286 42.2634 169.286 42.9674C169.286 43.3194 169.382 43.6074 169.574 43.8314C169.766 44.0554 170.118 44.1674 170.63 44.1674C171.238 44.1674 171.846 44.0394 172.454 43.7834C173.062 43.5274 173.606 43.1914 174.086 42.7754C174.598 42.3274 174.998 41.8314 175.286 41.2874C175.606 40.7434 175.766 40.1834 175.766 39.6074C175.766 39.2234 175.606 38.8714 175.286 38.5514C174.966 38.2314 174.342 38.0554 173.414 38.0234L173.462 37.5434C173.974 37.4474 174.47 37.3994 174.95 37.3994C175.814 37.3994 176.534 37.5754 177.11 37.9274C177.718 38.2474 178.022 38.7754 178.022 39.5114ZM196.173 34.7114C197.293 34.7114 198.093 34.9514 198.573 35.4314C199.085 35.9114 199.341 36.4554 199.341 37.0634C199.341 37.8314 199.085 38.6634 198.573 39.5594C198.061 40.4234 197.389 41.2394 196.557 42.0074C195.757 42.7754 194.829 43.4154 193.773 43.9274C192.749 44.4074 191.709 44.6474 190.653 44.6474C189.597 44.6474 188.829 44.4554 188.349 44.0714C187.901 43.6554 187.677 43.0794 187.677 42.3434C187.677 41.5434 187.885 40.7274 188.301 39.8954C187.821 39.8954 187.405 39.8954 187.053 39.8954C186.701 39.8634 186.381 39.8474 186.093 39.8474L183.597 43.5434C183.373 43.8634 183.149 44.0874 182.925 44.2154C182.701 44.3114 182.461 44.3594 182.205 44.3594H180.957C180.733 44.3594 180.621 44.2634 180.621 44.0714C180.621 43.9754 180.669 43.8474 180.765 43.6874C181.181 43.1434 181.661 42.4874 182.205 41.7194C182.781 40.9194 183.309 40.1514 183.789 39.4154C184.301 38.6474 184.717 37.9594 185.037 37.3514C185.389 36.7114 185.565 36.2794 185.565 36.0554C185.565 35.7034 185.389 35.5274 185.037 35.5274C184.749 35.5274 184.397 35.6714 183.981 35.9594C183.597 36.2154 183.165 36.5674 182.685 37.0154C182.237 37.4314 181.757 37.9114 181.245 38.4554C180.765 38.9994 180.301 39.5274 179.853 40.0394L179.469 39.8474C180.045 39.2074 180.605 38.5834 181.149 37.9754C181.725 37.3354 182.285 36.7754 182.829 36.2954C183.405 35.8154 183.965 35.4314 184.509 35.1434C185.053 34.8234 185.565 34.6634 186.045 34.6634C186.781 34.6634 187.277 34.7914 187.533 35.0474C187.821 35.3034 187.965 35.6394 187.965 36.0554C187.965 36.4074 187.837 36.8234 187.581 37.3034C187.325 37.7834 186.925 38.4394 186.381 39.2714C186.637 39.3034 186.957 39.3194 187.341 39.3194C187.757 39.3194 188.189 39.3194 188.637 39.3194C188.989 38.7114 189.421 38.1354 189.933 37.5914C190.445 37.0474 191.021 36.5674 191.661 36.1514C192.333 35.7034 193.037 35.3514 193.773 35.0954C194.541 34.8394 195.341 34.7114 196.173 34.7114ZM195.933 35.2394C195.357 35.2394 194.717 35.5114 194.013 36.0554C193.309 36.5674 192.653 37.2234 192.045 38.0234C191.469 38.7914 190.973 39.6234 190.557 40.5194C190.141 41.4154 189.933 42.2314 189.933 42.9674C189.933 43.2554 190.029 43.5274 190.221 43.7834C190.413 44.0394 190.749 44.1674 191.229 44.1674C191.933 44.1674 192.653 43.8794 193.389 43.3034C194.125 42.6954 194.781 41.9914 195.357 41.1914C195.965 40.3594 196.445 39.5114 196.797 38.6474C197.181 37.7834 197.373 37.0634 197.373 36.4874C197.373 35.6554 196.893 35.2394 195.933 35.2394ZM198.796 47.9594C199.372 47.5434 199.852 47.0474 200.236 46.4714C200.652 45.8954 200.86 45.3354 200.86 44.7914C200.86 44.4714 200.732 44.2474 200.476 44.1194C200.252 43.9594 200.14 43.7514 200.14 43.4954C200.14 43.3674 200.188 43.2234 200.284 43.0634C200.412 42.8714 200.556 42.6954 200.716 42.5354C200.908 42.3754 201.1 42.2474 201.292 42.1514C201.484 42.0234 201.66 41.9594 201.82 41.9594C202.012 41.9594 202.236 42.0714 202.492 42.2954C202.78 42.4874 202.924 42.8074 202.924 43.2554C202.924 43.7994 202.78 44.3274 202.492 44.8394C202.236 45.3514 201.916 45.8314 201.532 46.2794C201.148 46.7274 200.732 47.1274 200.284 47.4794C199.836 47.8634 199.436 48.1674 199.084 48.3914L198.796 47.9594ZM36.4567 89.8394C35.1127 89.8394 34.2007 89.5354 33.7207 88.9274C33.2407 88.3194 33.0007 87.5514 33.0007 86.6234C33.0007 85.4714 33.3847 84.0954 34.1527 82.4954C34.9207 80.8954 35.9127 79.1994 37.1287 77.4074C36.7127 77.3434 36.2967 77.2794 35.8807 77.2154C35.4967 77.1194 35.0967 77.0234 34.6807 76.9274C33.6247 78.4634 32.5687 79.9194 31.5127 81.2954C30.4887 82.6394 29.4007 83.8714 28.2487 84.9914C27.1287 86.0794 25.9287 87.0554 24.6487 87.9194C23.3687 88.7834 21.9767 89.4714 20.4727 89.9834C19.3527 90.3674 18.1687 90.6554 16.9207 90.8474C15.6727 91.0714 14.4247 91.1834 13.1767 91.1834C11.5767 91.1834 10.0087 91.0074 8.4727 90.6554C6.9687 90.3034 5.6247 89.7434 4.4407 88.9754C3.2567 88.2074 2.2967 87.2314 1.5607 86.0474C0.856703 84.8634 0.504703 83.4234 0.504703 81.7274C0.504703 80.0954 0.840703 78.5914 1.5127 77.2154C2.2167 75.8394 3.1287 74.6554 4.2487 73.6634C5.3687 72.6714 6.6487 71.9034 8.0887 71.3594C9.5287 70.8154 11.0007 70.5434 12.5047 70.5434C13.7847 70.5434 14.9847 70.7194 16.1047 71.0714C17.2247 71.3914 18.2007 71.8714 19.0327 72.5114C19.8967 73.1194 20.5687 73.8714 21.0487 74.7674C21.5607 75.6314 21.8167 76.5914 21.8167 77.6474C21.8167 78.7034 21.5607 79.7114 21.0487 80.6714C20.5687 81.6314 19.9127 82.4794 19.0807 83.2154C18.2487 83.9194 17.2887 84.4794 16.2007 84.8954C15.1447 85.3114 14.0407 85.5194 12.8887 85.5194C12.4407 85.5194 11.9607 85.4874 11.4487 85.4234C10.9367 85.3274 10.4247 85.1514 9.9127 84.8954C9.4327 84.6394 8.9847 84.2874 8.5687 83.8394C8.1527 83.3594 7.8487 82.7354 7.6567 81.9674L8.0407 81.8234C8.3287 82.9114 8.8887 83.7434 9.7207 84.3194C10.5527 84.8634 11.5607 85.1354 12.7447 85.1354C14.0247 85.1354 15.1607 84.9274 16.1527 84.5114C17.1767 84.0634 18.0407 83.4874 18.7447 82.7834C19.4807 82.0474 20.0407 81.2314 20.4247 80.3354C20.8087 79.4074 21.0007 78.4474 21.0007 77.4554C21.0007 76.2714 20.7127 75.2794 20.1367 74.4794C19.5927 73.6474 18.9047 72.9754 18.0727 72.4634C17.2727 71.9514 16.3767 71.5834 15.3847 71.3594C14.4247 71.1354 13.5447 71.0234 12.7447 71.0234C11.4007 71.0234 10.0567 71.2474 8.7127 71.6954C7.4007 72.1434 6.2167 72.8314 5.1607 73.7594C4.1047 74.6554 3.2567 75.7754 2.6167 77.1194C1.9767 78.4634 1.6567 80.0474 1.6567 81.8714C1.6567 83.3754 1.9447 84.6874 2.5207 85.8074C3.1287 86.9274 3.9287 87.8554 4.9207 88.5914C5.9447 89.3274 7.0967 89.8714 8.3767 90.2234C9.6567 90.5754 11.0007 90.7514 12.4087 90.7514C13.8167 90.7514 15.1927 90.5754 16.5367 90.2234C17.9127 89.9034 19.1927 89.3914 20.3767 88.6874C22.3927 87.5034 24.3287 85.8714 26.1847 83.7914C28.0407 81.6794 30.0247 79.1354 32.1367 76.1594C30.1527 75.4874 28.3447 74.6234 26.7127 73.5674C25.1127 72.4794 23.7367 71.2474 22.5847 69.8714C21.4647 68.4954 20.5847 67.0074 19.9447 65.4074C19.3367 63.8074 19.0327 62.1114 19.0327 60.3194C19.0327 58.6874 19.3367 57.1674 19.9447 55.7594C20.5527 54.3194 21.4007 53.0874 22.4887 52.0634C23.5767 51.0074 24.8887 50.1914 26.4247 49.6154C27.9607 49.0074 29.6567 48.7034 31.5127 48.7034C33.3047 48.7034 34.9047 48.9274 36.3127 49.3754C37.7207 49.7914 38.9047 50.3674 39.8647 51.1034C40.8567 51.8394 41.6087 52.6874 42.1207 53.6474C42.6327 54.5754 42.8887 55.5674 42.8887 56.6234C42.8887 57.9354 42.4887 59.2474 41.6887 60.5594C40.9207 61.8394 39.5127 63.0074 37.4647 64.0634L37.2247 63.6794C39.2087 62.6554 40.5687 61.5514 41.3047 60.3674C42.0407 59.1514 42.4087 57.9514 42.4087 56.7674C42.4087 55.7754 42.1527 54.8474 41.6407 53.9834C41.1287 53.0874 40.4087 52.3034 39.4807 51.6314C38.5847 50.9594 37.4807 50.4314 36.1687 50.0474C34.8887 49.6314 33.4807 49.4234 31.9447 49.4234C30.3127 49.4234 28.7927 49.7114 27.3847 50.2874C25.9767 50.8314 24.7447 51.5994 23.6887 52.5914C22.6647 53.5834 21.8487 54.7674 21.2407 56.1434C20.6327 57.4874 20.3287 58.9594 20.3287 60.5594C20.3287 62.3834 20.6167 64.0794 21.1927 65.6474C21.7687 67.2154 22.5847 68.6554 23.6407 69.9674C24.6967 71.2474 25.9607 72.3834 27.4327 73.3754C28.9367 74.3674 30.6007 75.1674 32.4247 75.7754L33.9127 73.6154C35.3847 71.4714 36.9367 69.4874 38.5687 67.6634C40.2007 65.8074 41.9287 64.2074 43.7527 62.8634C45.6087 61.4874 47.5927 60.4154 49.7047 59.6474C51.8167 58.8474 54.0727 58.4474 56.4727 58.4474C57.4327 58.4474 58.4567 58.5434 59.5447 58.7354C60.6327 58.9274 61.6407 59.2634 62.5687 59.7434C63.4967 60.1914 64.2647 60.8154 64.8727 61.6154C65.5127 62.3834 65.8327 63.3594 65.8327 64.5434C65.8327 65.9194 65.4807 67.2154 64.7767 68.4314C64.0727 69.6154 63.1127 70.7034 61.8967 71.6954C60.7127 72.6554 59.3207 73.5194 57.7207 74.2874C56.1527 75.0234 54.4887 75.6474 52.7287 76.1594C50.9687 76.6714 49.1607 77.0714 47.3047 77.3594C45.4807 77.6154 43.7207 77.7434 42.0247 77.7434C41.3207 77.7434 40.6327 77.7274 39.9607 77.6954C39.3207 77.6314 38.6807 77.5674 38.0407 77.5034C37.1127 79.0714 36.3767 80.6074 35.8327 82.1114C35.2887 83.5834 35.0167 84.9434 35.0167 86.1914C35.0167 86.8954 35.1607 87.5034 35.4487 88.0154C35.7367 88.5274 36.2967 88.7834 37.1287 88.7834C38.4407 88.7834 39.7847 88.2874 41.1607 87.2954C42.5367 86.2714 44.0087 84.8154 45.5767 82.9274L45.9127 83.2154C44.1847 85.2634 42.5047 86.8794 40.8727 88.0634C39.2727 89.2474 37.8007 89.8394 36.4567 89.8394ZM41.9287 77.2634C45.0647 77.2634 48.0247 76.9274 50.8087 76.2554C53.6247 75.5834 56.0727 74.6714 58.1527 73.5194C60.2647 72.3674 61.9287 71.0234 63.1447 69.4874C64.3607 67.9194 64.9687 66.2554 64.9687 64.4954C64.9687 63.6314 64.7607 62.8634 64.3447 62.1914C63.9287 61.4874 63.3527 60.8954 62.6167 60.4154C61.9127 59.9354 61.0647 59.5674 60.0727 59.3114C59.1127 59.0554 58.0887 58.9274 57.0007 58.9274C54.4407 58.9274 52.2487 59.2634 50.4247 59.9354C48.6007 60.5754 46.9047 61.5834 45.3367 62.9594C43.7687 64.3034 42.2167 66.0474 40.6807 68.1914C39.1447 70.3034 37.4007 72.8314 35.4487 75.7754C35.3527 75.9034 35.2567 76.0314 35.1607 76.1594C35.0967 76.2554 35.0327 76.3674 34.9687 76.4954C35.3527 76.5914 35.7527 76.6874 36.1687 76.7834C36.5847 76.8474 37.0007 76.9114 37.4167 76.9754C38.3127 75.6634 39.2887 74.3514 40.3447 73.0394C41.4327 71.6954 42.5047 70.4154 43.5607 69.1994C44.6167 67.9834 45.6407 66.8474 46.6327 65.7914C47.6567 64.7354 48.5847 63.8234 49.4167 63.0554L49.6567 63.3914C48.7607 64.1914 47.8167 65.1194 46.8247 66.1754C45.8327 67.1994 44.8247 68.3034 43.8007 69.4874C42.8087 70.6714 41.8327 71.9194 40.8727 73.2314C39.9447 74.5114 39.0967 75.7914 38.3287 77.0714C38.9047 77.1354 39.4807 77.1834 40.0567 77.2154C40.6647 77.2474 41.2887 77.2634 41.9287 77.2634ZM54.3971 89.5514C53.8531 89.5514 53.3891 89.4394 53.0051 89.2154C52.6531 88.9594 52.4771 88.5754 52.4771 88.0634C52.4771 87.7114 52.6051 87.2634 52.8611 86.7194C53.1171 86.1754 53.4371 85.5834 53.8211 84.9434C53.5331 84.9114 53.2291 84.8954 52.9091 84.8954C52.5891 84.8634 52.2211 84.8474 51.8051 84.8474C51.5491 84.8474 51.3091 84.8474 51.0851 84.8474C50.8611 84.8474 50.6211 84.8634 50.3651 84.8954L47.9171 88.5434C47.6931 88.8634 47.4691 89.0874 47.2451 89.2154C47.0211 89.3114 46.7811 89.3594 46.5251 89.3594H45.2771C45.0531 89.3594 44.9411 89.2634 44.9411 89.0714C44.9411 88.9754 44.9891 88.8474 45.0851 88.6874C45.5011 88.1434 45.9811 87.4874 46.5251 86.7194C47.1011 85.9514 47.6291 85.1994 48.1091 84.4634C48.6211 83.6954 49.0371 83.0074 49.3571 82.3994C49.7091 81.7594 49.8851 81.3114 49.8851 81.0554C49.8851 80.7034 49.7091 80.5274 49.3571 80.5274C49.0691 80.5274 48.7331 80.6554 48.3491 80.9114C47.9651 81.1354 47.5491 81.4554 47.1011 81.8714C46.6851 82.2874 46.2371 82.7514 45.7571 83.2634C45.3091 83.7754 44.8611 84.2874 44.4131 84.7994L44.0291 84.6074C44.6051 83.9674 45.1651 83.3594 45.7091 82.7834C46.2531 82.1754 46.7811 81.6474 47.2931 81.1994C47.8371 80.7194 48.3651 80.3514 48.8771 80.0954C49.3891 79.8074 49.8851 79.6634 50.3651 79.6634C51.1011 79.6634 51.5971 79.7914 51.8531 80.0474C52.1411 80.3034 52.2851 80.6394 52.2851 81.0554C52.2851 81.6954 51.7571 82.7994 50.7011 84.3674C50.9571 84.3994 51.2131 84.4154 51.4691 84.4154C51.7251 84.4154 52.0131 84.4154 52.3331 84.4154H54.1091C54.5571 83.7114 55.0051 83.0394 55.4531 82.3994C55.9331 81.7274 56.3491 81.1674 56.7011 80.7194C56.8931 80.4634 57.0851 80.2714 57.2771 80.1434C57.5011 79.9834 57.8211 79.9034 58.2371 79.9034H59.0051C59.2611 79.9034 59.3891 79.9994 59.3891 80.1914C59.3891 80.2234 59.3731 80.2714 59.3411 80.3354C59.3411 80.3674 59.3091 80.4474 59.2451 80.5754C58.9571 81.0234 58.5571 81.6154 58.0451 82.3514C57.5651 83.0554 57.0691 83.7754 56.5571 84.5114C56.0771 85.2474 55.6611 85.9514 55.3091 86.6234C54.9571 87.2954 54.7811 87.8074 54.7811 88.1594C54.7811 88.5114 54.9891 88.6874 55.4051 88.6874C56.2371 88.6874 57.0371 88.3354 57.8051 87.6314C58.5731 86.8954 59.6131 85.7594 60.9251 84.2234L61.2611 84.4634C60.7491 85.0714 60.2371 85.6794 59.7251 86.2874C59.2451 86.8954 58.7331 87.4394 58.1891 87.9194C57.6451 88.3994 57.0691 88.7994 56.4611 89.1194C55.8531 89.4074 55.1651 89.5514 54.3971 89.5514ZM79.392 89.5514C78.848 89.5514 78.384 89.4394 78 89.2154C77.616 88.9594 77.424 88.5754 77.424 88.0634C77.424 87.4554 77.632 86.7994 78.048 86.0954C78.496 85.3594 78.96 84.6554 79.44 83.9834C79.952 83.3114 80.416 82.7034 80.832 82.1594C81.28 81.5834 81.504 81.1514 81.504 80.8634C81.504 80.6714 81.408 80.5754 81.216 80.5754C81.024 80.5754 80.768 80.6554 80.448 80.8154C80.128 80.9754 79.792 81.1674 79.44 81.3914C79.12 81.6154 78.784 81.8554 78.432 82.1114C78.112 82.3674 77.824 82.6074 77.568 82.8314C77.056 83.2474 76.576 83.6634 76.128 84.0794C75.68 84.4954 75.232 84.9274 74.784 85.3754C74.336 85.8234 73.872 86.3194 73.392 86.8634C72.944 87.3754 72.448 87.9354 71.904 88.5434C71.456 89.0874 70.992 89.3594 70.512 89.3594H69.264C69.04 89.3594 68.928 89.2634 68.928 89.0714C68.928 88.9754 68.976 88.8474 69.072 88.6874C69.424 88.2074 69.728 87.7914 69.984 87.4394C70.272 87.0554 70.528 86.7194 70.752 86.4314C71.008 86.1114 71.232 85.8074 71.424 85.5194C71.648 85.1994 71.888 84.8634 72.144 84.5114C72.208 84.4154 72.336 84.2234 72.528 83.9354C72.752 83.6474 72.96 83.3274 73.152 82.9754C73.376 82.6234 73.568 82.2714 73.728 81.9194C73.888 81.5674 73.968 81.2634 73.968 81.0074C73.968 80.6554 73.776 80.4794 73.392 80.4794C72.944 80.4794 72.368 80.7194 71.664 81.1994C70.992 81.6794 70.256 82.3034 69.456 83.0714C68.656 83.8394 67.824 84.7034 66.96 85.6634C66.096 86.6234 65.264 87.5834 64.464 88.5434C64.016 89.0874 63.552 89.3594 63.072 89.3594H61.824C61.6 89.3594 61.488 89.2634 61.488 89.0714C61.488 88.9754 61.536 88.8474 61.632 88.6874C61.984 88.2074 62.304 87.7754 62.592 87.3914C62.88 87.0074 63.136 86.6554 63.36 86.3354C63.616 86.0154 63.856 85.7114 64.08 85.4234C64.304 85.1034 64.544 84.7674 64.8 84.4154C64.896 84.2874 65.024 84.0794 65.184 83.7914C65.376 83.5034 65.568 83.1994 65.76 82.8794C65.952 82.5594 66.112 82.2394 66.24 81.9194C66.368 81.5674 66.432 81.2794 66.432 81.0554C66.432 80.7034 66.256 80.5274 65.904 80.5274C65.328 80.5274 64.624 80.9434 63.792 81.7754C62.96 82.5754 62.08 83.5034 61.152 84.5594L60.768 84.3674C61.888 83.0554 62.944 81.9514 63.936 81.0554C64.928 80.1274 65.92 79.6634 66.912 79.6634C67.584 79.6634 68.064 79.7914 68.352 80.0474C68.64 80.3034 68.784 80.6234 68.784 81.0074C68.784 81.4554 68.672 81.9034 68.448 82.3514C68.256 82.7994 68.048 83.1994 67.824 83.5514C67.568 83.9354 67.392 84.2234 67.296 84.4154C67.2 84.5754 66.976 84.8794 66.624 85.3274L66.672 85.3754C67.28 84.6714 67.904 83.9834 68.544 83.3114C69.184 82.6394 69.824 82.0314 70.464 81.4874C71.136 80.9434 71.808 80.5114 72.48 80.1914C73.152 79.8394 73.824 79.6634 74.496 79.6634C75.104 79.6634 75.536 79.7914 75.792 80.0474C76.08 80.3034 76.224 80.6554 76.224 81.1034C76.224 81.4554 76.128 81.8554 75.936 82.3034C75.776 82.7194 75.568 83.1354 75.312 83.5514C75.024 83.9994 74.736 84.4154 74.448 84.7994C74.16 85.1834 73.84 85.5994 73.488 86.0474L73.536 86.0954C74.144 85.3914 74.848 84.6714 75.648 83.9354C76.448 83.1674 77.232 82.4794 78 81.8714C78.8 81.2314 79.568 80.7194 80.304 80.3354C81.04 79.9194 81.68 79.7114 82.224 79.7114C83.28 79.7114 83.808 80.1274 83.808 80.9594C83.808 81.4074 83.68 81.8394 83.424 82.2554C83.168 82.6714 82.848 83.1514 82.464 83.6954C82.176 84.1114 81.872 84.5274 81.552 84.9434C81.232 85.3594 80.928 85.7754 80.64 86.1914C80.384 86.5754 80.176 86.9434 80.016 87.2954C79.856 87.6474 79.776 87.9354 79.776 88.1594C79.776 88.5114 79.984 88.6874 80.4 88.6874C81.232 88.6874 82.032 88.3354 82.8 87.6314C83.568 86.8954 84.608 85.7594 85.92 84.2234L86.256 84.4634C85.744 85.0714 85.232 85.6794 84.72 86.2874C84.24 86.8954 83.728 87.4394 83.184 87.9194C82.64 88.3994 82.064 88.7994 81.456 89.1194C80.848 89.4074 80.16 89.5514 79.392 89.5514ZM93.3798 80.2394C92.8038 80.2394 92.1638 80.5114 91.4598 81.0554C90.7558 81.5674 90.0998 82.2234 89.4918 83.0234C88.9158 83.7914 88.4198 84.6234 88.0038 85.5194C87.5878 86.4154 87.3798 87.2314 87.3798 87.9674C87.3798 88.2554 87.4758 88.5274 87.6678 88.7834C87.8598 89.0394 88.1958 89.1674 88.6758 89.1674C89.3798 89.1674 90.0998 88.8794 90.8358 88.3034C91.5718 87.6954 92.2278 86.9914 92.8038 86.1914C93.4118 85.3594 93.8918 84.5114 94.2438 83.6474C94.6278 82.7834 94.8198 82.0634 94.8198 81.4874C94.8198 80.6554 94.3398 80.2394 93.3798 80.2394ZM93.6198 79.7114C94.7398 79.7114 95.5398 79.9514 96.0198 80.4314C96.5318 80.9114 96.7878 81.4554 96.7878 82.0634C96.7878 82.8314 96.5318 83.6634 96.0198 84.5594C95.5078 85.4234 94.8358 86.2394 94.0038 87.0074C93.2038 87.7754 92.2758 88.4154 91.2198 88.9274C90.1958 89.4074 89.1558 89.6474 88.0998 89.6474C87.0438 89.6474 86.2758 89.4554 85.7958 89.0714C85.3478 88.6554 85.1238 88.0794 85.1238 87.3434C85.1238 86.5754 85.3478 85.7434 85.7958 84.8474C86.2438 83.9514 86.8518 83.1194 87.6198 82.3514C88.3878 81.5834 89.2838 80.9594 90.3078 80.4794C91.3638 79.9674 92.4678 79.7114 93.6198 79.7114ZM116.704 89.5514C116.16 89.5514 115.696 89.4394 115.312 89.2154C114.928 88.9594 114.736 88.5754 114.736 88.0634C114.736 87.4554 114.944 86.7994 115.36 86.0954C115.808 85.3594 116.272 84.6554 116.752 83.9834C117.264 83.3114 117.728 82.7034 118.144 82.1594C118.592 81.5834 118.816 81.1514 118.816 80.8634C118.816 80.6714 118.72 80.5754 118.528 80.5754C118.336 80.5754 118.08 80.6554 117.76 80.8154C117.44 80.9754 117.104 81.1674 116.752 81.3914C116.432 81.6154 116.096 81.8554 115.744 82.1114C115.424 82.3674 115.136 82.6074 114.88 82.8314C114.368 83.2474 113.888 83.6634 113.44 84.0794C112.992 84.4954 112.544 84.9274 112.096 85.3754C111.648 85.8234 111.184 86.3194 110.704 86.8634C110.256 87.3754 109.76 87.9354 109.216 88.5434C108.768 89.0874 108.304 89.3594 107.824 89.3594H106.576C106.352 89.3594 106.24 89.2634 106.24 89.0714C106.24 88.9754 106.288 88.8474 106.384 88.6874C106.736 88.2074 107.04 87.7914 107.296 87.4394C107.584 87.0554 107.84 86.7194 108.064 86.4314C108.32 86.1114 108.544 85.8074 108.736 85.5194C108.96 85.1994 109.2 84.8634 109.456 84.5114C109.52 84.4154 109.648 84.2234 109.84 83.9354C110.064 83.6474 110.272 83.3274 110.464 82.9754C110.688 82.6234 110.88 82.2714 111.04 81.9194C111.2 81.5674 111.28 81.2634 111.28 81.0074C111.28 80.6554 111.088 80.4794 110.704 80.4794C110.256 80.4794 109.68 80.7194 108.976 81.1994C108.304 81.6794 107.568 82.3034 106.768 83.0714C105.968 83.8394 105.136 84.7034 104.272 85.6634C103.408 86.6234 102.576 87.5834 101.776 88.5434C101.328 89.0874 100.864 89.3594 100.384 89.3594H99.1365C98.9125 89.3594 98.8005 89.2634 98.8005 89.0714C98.8005 88.9754 98.8485 88.8474 98.9445 88.6874C99.2965 88.2074 99.6165 87.7754 99.9045 87.3914C100.192 87.0074 100.448 86.6554 100.672 86.3354C100.928 86.0154 101.168 85.7114 101.392 85.4234C101.616 85.1034 101.856 84.7674 102.112 84.4154C102.208 84.2874 102.336 84.0794 102.496 83.7914C102.688 83.5034 102.88 83.1994 103.072 82.8794C103.264 82.5594 103.424 82.2394 103.552 81.9194C103.68 81.5674 103.744 81.2794 103.744 81.0554C103.744 80.7034 103.568 80.5274 103.216 80.5274C102.64 80.5274 101.936 80.9434 101.104 81.7754C100.272 82.5754 99.3925 83.5034 98.4645 84.5594L98.0805 84.3674C99.2005 83.0554 100.256 81.9514 101.248 81.0554C102.24 80.1274 103.232 79.6634 104.224 79.6634C104.896 79.6634 105.376 79.7914 105.664 80.0474C105.952 80.3034 106.096 80.6234 106.096 81.0074C106.096 81.4554 105.984 81.9034 105.76 82.3514C105.568 82.7994 105.36 83.1994 105.136 83.5514C104.88 83.9354 104.704 84.2234 104.608 84.4154C104.512 84.5754 104.288 84.8794 103.936 85.3274L103.984 85.3754C104.592 84.6714 105.216 83.9834 105.856 83.3114C106.496 82.6394 107.136 82.0314 107.776 81.4874C108.448 80.9434 109.12 80.5114 109.792 80.1914C110.464 79.8394 111.136 79.6634 111.808 79.6634C112.416 79.6634 112.848 79.7914 113.104 80.0474C113.392 80.3034 113.536 80.6554 113.536 81.1034C113.536 81.4554 113.44 81.8554 113.248 82.3034C113.088 82.7194 112.88 83.1354 112.624 83.5514C112.336 83.9994 112.048 84.4154 111.76 84.7994C111.472 85.1834 111.152 85.5994 110.8 86.0474L110.848 86.0954C111.456 85.3914 112.16 84.6714 112.96 83.9354C113.76 83.1674 114.544 82.4794 115.312 81.8714C116.112 81.2314 116.88 80.7194 117.616 80.3354C118.352 79.9194 118.992 79.7114 119.536 79.7114C120.592 79.7114 121.12 80.1274 121.12 80.9594C121.12 81.4074 120.992 81.8394 120.736 82.2554C120.48 82.6714 120.16 83.1514 119.776 83.6954C119.488 84.1114 119.184 84.5274 118.864 84.9434C118.544 85.3594 118.24 85.7754 117.952 86.1914C117.696 86.5754 117.488 86.9434 117.328 87.2954C117.168 87.6474 117.088 87.9354 117.088 88.1594C117.088 88.5114 117.296 88.6874 117.712 88.6874C118.544 88.6874 119.344 88.3354 120.112 87.6314C120.88 86.8954 121.92 85.7594 123.232 84.2234L123.568 84.4634C123.056 85.0714 122.544 85.6794 122.032 86.2874C121.552 86.8954 121.04 87.4394 120.496 87.9194C119.952 88.3994 119.376 88.7994 118.768 89.1194C118.16 89.4074 117.472 89.5514 116.704 89.5514ZM142.827 89.5514C142.283 89.5514 141.819 89.4394 141.435 89.2154C141.051 88.9594 140.859 88.5754 140.859 88.0634C140.859 87.3914 141.083 86.6714 141.531 85.9034C142.011 85.1354 142.459 84.4794 142.875 83.9354L142.827 83.8874C142.187 84.5914 141.499 85.2794 140.763 85.9514C140.027 86.6234 139.291 87.2314 138.555 87.7754C137.851 88.2874 137.163 88.7034 136.491 89.0234C135.851 89.3434 135.307 89.5034 134.859 89.5034C133.803 89.5034 133.275 89.0874 133.275 88.2554C133.275 87.8074 133.403 87.3754 133.659 86.9594C133.915 86.5434 134.235 86.0634 134.619 85.5194C134.907 85.1034 135.211 84.6874 135.531 84.2714C135.851 83.8554 136.139 83.4554 136.395 83.0714C136.683 82.6554 136.907 82.2874 137.067 81.9674C137.227 81.6154 137.307 81.3114 137.307 81.0554C137.307 80.7034 137.131 80.5274 136.779 80.5274C136.491 80.5274 136.139 80.6554 135.723 80.9114C135.339 81.1354 134.907 81.4554 134.427 81.8714C133.979 82.2874 133.499 82.7514 132.987 83.2634C132.507 83.7754 132.043 84.2874 131.595 84.7994L131.307 84.6074C131.883 83.9674 132.443 83.3594 132.987 82.7834C133.563 82.1754 134.123 81.6474 134.667 81.1994C135.211 80.7194 135.739 80.3514 136.251 80.0954C136.795 79.8074 137.307 79.6634 137.787 79.6634C138.427 79.6634 138.891 79.7914 139.179 80.0474C139.499 80.3034 139.659 80.6554 139.659 81.1034C139.659 81.7114 139.435 82.3834 138.987 83.1194C138.571 83.8554 138.107 84.5594 137.595 85.2314C137.115 85.9034 136.651 86.5274 136.203 87.1034C135.787 87.6474 135.579 88.0634 135.579 88.3514C135.579 88.5434 135.675 88.6394 135.867 88.6394C136.411 88.6394 137.131 88.3194 138.027 87.6794C138.923 87.0394 139.835 86.2874 140.763 85.4234C141.691 84.5594 142.555 83.6954 143.355 82.8314C144.155 81.9354 144.747 81.2314 145.131 80.7194C145.323 80.4634 145.515 80.2714 145.707 80.1434C145.931 79.9834 146.251 79.9034 146.667 79.9034H147.435C147.691 79.9034 147.819 79.9994 147.819 80.1914C147.819 80.2234 147.803 80.2714 147.771 80.3354C147.771 80.3674 147.739 80.4474 147.675 80.5754C147.291 81.1514 146.843 81.8074 146.331 82.5434C145.819 83.2794 145.323 84.0154 144.843 84.7514C144.395 85.4554 144.011 86.1274 143.691 86.7674C143.371 87.3754 143.211 87.8394 143.211 88.1594C143.211 88.5114 143.419 88.6874 143.835 88.6874C144.667 88.6874 145.467 88.3354 146.235 87.6314C147.003 86.8954 148.043 85.7594 149.355 84.2234L149.691 84.4634C149.179 85.0714 148.667 85.6794 148.155 86.2874C147.675 86.8954 147.163 87.4394 146.619 87.9194C146.075 88.3994 145.499 88.7994 144.891 89.1194C144.283 89.4074 143.595 89.5514 142.827 89.5514ZM207.672 83.3594C206.776 84.4154 205.976 85.3754 205.272 86.2394C204.568 87.0714 203.88 87.7754 203.208 88.3514C202.568 88.9274 201.928 89.3754 201.288 89.6954C200.648 90.0154 199.944 90.1754 199.176 90.1754C198.504 90.1754 197.944 90.0634 197.496 89.8394C197.08 89.6474 196.744 89.4074 196.488 89.1194C196.264 88.7994 196.104 88.4634 196.008 88.1114C195.944 87.7274 195.912 87.3754 195.912 87.0554C195.912 86.2234 196.072 85.3114 196.392 84.3194C196.744 83.2954 197.176 82.2714 197.688 81.2474C198.2 80.2234 198.776 79.2154 199.416 78.2234C200.056 77.1994 200.664 76.2554 201.24 75.3914C201.848 74.5274 202.392 73.7754 202.872 73.1354C203.384 72.4634 203.768 71.9674 204.024 71.6474C204.856 70.5914 205.656 69.5994 206.424 68.6714C207.192 67.7114 207.96 66.7834 208.728 65.8874C209.496 64.9594 210.248 64.0314 210.984 63.1034C211.752 62.1754 212.536 61.1834 213.336 60.1274C213.656 59.6474 213.816 59.3274 213.816 59.1674C213.816 59.0394 213.768 58.9754 213.672 58.9754C213.576 59.0074 213.432 59.0714 213.24 59.1674C213.048 59.2314 212.808 59.3754 212.52 59.5994C211.24 60.5914 209.944 61.7114 208.632 62.9594C207.352 64.2074 206.008 65.5514 204.6 66.9914C203.224 68.4314 201.752 69.9674 200.184 71.5994C198.648 73.1994 196.968 74.8794 195.144 76.6394C193.256 78.4634 191.272 80.1914 189.192 81.8234C187.112 83.4234 184.952 84.8474 182.712 86.0954C180.504 87.3114 178.216 88.2874 175.848 89.0234C173.512 89.7274 171.128 90.0794 168.696 90.0794C165.048 90.0794 162.2 89.2954 160.152 87.7274C158.136 86.1594 157.128 83.9674 157.128 81.1514C157.128 79.0074 157.624 77.0874 158.616 75.3914C159.608 73.6634 160.872 72.2074 162.408 71.0234C163.976 69.8074 165.688 68.8794 167.544 68.2394C169.432 67.5994 171.256 67.2794 173.016 67.2794C174.136 67.2794 175.192 67.4234 176.184 67.7114C177.208 67.9674 178.088 68.3674 178.824 68.9114C179.592 69.4234 180.184 70.0794 180.6 70.8794C181.048 71.6474 181.272 72.5434 181.272 73.5674C181.272 74.8154 180.952 76.0634 180.312 77.3114C179.704 78.5274 178.872 79.6314 177.816 80.6234C176.792 81.5834 175.592 82.3674 174.216 82.9754C172.872 83.5514 171.464 83.8394 169.992 83.8394C169.512 83.8394 168.984 83.7914 168.408 83.6954C167.864 83.5674 167.336 83.3594 166.824 83.0714C166.344 82.7834 165.928 82.3834 165.576 81.8714C165.224 81.3274 165.032 80.6394 165 79.8074L165.384 79.7114C165.544 80.8954 166.008 81.8074 166.776 82.4474C167.544 83.0554 168.536 83.3594 169.752 83.3594C171.384 83.3594 172.84 83.0394 174.12 82.3994C175.432 81.7594 176.536 80.9594 177.432 79.9994C178.328 79.0394 179.016 77.9834 179.496 76.8314C179.976 75.6474 180.216 74.5274 180.216 73.4714C180.216 72.3834 179.96 71.4874 179.448 70.7834C178.968 70.0474 178.36 69.4554 177.624 69.0074C176.92 68.5594 176.152 68.2394 175.32 68.0474C174.52 67.8554 173.8 67.7594 173.16 67.7594C171.528 67.7594 169.832 68.0314 168.072 68.5754C166.344 69.0874 164.76 69.9034 163.32 71.0234C161.912 72.1434 160.744 73.5674 159.816 75.2954C158.888 76.9914 158.424 79.0234 158.424 81.3914C158.424 82.5434 158.648 83.6314 159.096 84.6554C159.544 85.6474 160.184 86.5274 161.016 87.2954C161.88 88.0314 162.92 88.6074 164.136 89.0234C165.352 89.4394 166.728 89.6474 168.264 89.6474C170.856 89.6474 173.336 89.2954 175.704 88.5914C178.072 87.8874 180.344 86.9274 182.52 85.7114C184.728 84.4634 186.84 83.0234 188.856 81.3914C190.904 79.7594 192.888 77.9994 194.808 76.1114C196.6 74.3834 198.28 72.7194 199.848 71.1194C201.448 69.4874 203.016 67.8554 204.552 66.2234C205.192 65.5514 205.96 64.7514 206.856 63.8234C207.784 62.8954 208.712 62.0154 209.64 61.1834C210.568 60.3514 211.464 59.6474 212.328 59.0714C213.192 58.4634 213.896 58.1594 214.44 58.1594C214.888 58.1594 215.24 58.3034 215.496 58.5914C215.752 58.8474 215.88 59.1994 215.88 59.6474C215.88 59.9034 215.816 60.1914 215.688 60.5114C215.592 60.8314 215.416 61.1674 215.16 61.5194C213.752 63.4394 212.328 65.2794 210.888 67.0394C209.448 68.7994 208.008 70.5434 206.568 72.2714C206.44 72.4314 206.136 72.7994 205.656 73.3754C205.208 73.9514 204.68 74.6554 204.072 75.4874C203.464 76.3194 202.824 77.2474 202.152 78.2714C201.512 79.2634 200.904 80.3034 200.328 81.3914C199.784 82.4794 199.32 83.5514 198.936 84.6074C198.584 85.6634 198.408 86.6394 198.408 87.5354C198.408 88.0794 198.504 88.5434 198.696 88.9274C198.888 89.2794 199.24 89.4554 199.752 89.4554C200.328 89.4554 200.872 89.3114 201.384 89.0234C201.928 88.7354 202.488 88.3194 203.064 87.7754C203.672 87.2314 204.312 86.5754 204.984 85.8074C205.688 85.0074 206.488 84.0954 207.384 83.0714L207.672 83.3594ZM222.399 79.7114C223.519 79.7114 224.319 79.9514 224.799 80.4314C225.311 80.9114 225.567 81.4554 225.567 82.0634C225.567 82.8314 225.311 83.6634 224.799 84.5594C224.287 85.4234 223.615 86.2394 222.783 87.0074C221.983 87.7754 221.055 88.4154 219.999 88.9274C218.975 89.4074 217.935 89.6474 216.879 89.6474C215.823 89.6474 215.055 89.4554 214.575 89.0714C214.127 88.6554 213.903 88.0794 213.903 87.3434C213.903 86.5434 214.111 85.7274 214.527 84.8954C214.047 84.8954 213.631 84.8954 213.279 84.8954C212.927 84.8634 212.607 84.8474 212.319 84.8474L209.823 88.5434C209.599 88.8634 209.375 89.0874 209.151 89.2154C208.927 89.3114 208.687 89.3594 208.431 89.3594H207.183C206.959 89.3594 206.847 89.2634 206.847 89.0714C206.847 88.9754 206.895 88.8474 206.991 88.6874C207.407 88.1434 207.887 87.4874 208.431 86.7194C209.007 85.9194 209.535 85.1514 210.015 84.4154C210.527 83.6474 210.943 82.9594 211.263 82.3514C211.615 81.7114 211.791 81.2794 211.791 81.0554C211.791 80.7034 211.615 80.5274 211.263 80.5274C210.975 80.5274 210.623 80.6714 210.207 80.9594C209.823 81.2154 209.391 81.5674 208.911 82.0154C208.463 82.4314 207.983 82.9114 207.471 83.4554C206.991 83.9994 206.527 84.5274 206.079 85.0394L205.695 84.8474C206.271 84.2074 206.831 83.5834 207.375 82.9754C207.951 82.3354 208.511 81.7754 209.055 81.2954C209.631 80.8154 210.191 80.4314 210.735 80.1434C211.279 79.8234 211.791 79.6634 212.271 79.6634C213.007 79.6634 213.503 79.7914 213.759 80.0474C214.047 80.3034 214.191 80.6394 214.191 81.0554C214.191 81.4074 214.063 81.8234 213.807 82.3034C213.551 82.7834 213.151 83.4394 212.607 84.2714C212.863 84.3034 213.183 84.3194 213.567 84.3194C213.983 84.3194 214.415 84.3194 214.863 84.3194C215.215 83.7114 215.647 83.1354 216.159 82.5914C216.671 82.0474 217.247 81.5674 217.887 81.1514C218.559 80.7034 219.263 80.3514 219.999 80.0954C220.767 79.8394 221.567 79.7114 222.399 79.7114ZM222.159 80.2394C221.583 80.2394 220.943 80.5114 220.239 81.0554C219.535 81.5674 218.879 82.2234 218.271 83.0234C217.695 83.7914 217.199 84.6234 216.783 85.5194C216.367 86.4154 216.159 87.2314 216.159 87.9674C216.159 88.2554 216.255 88.5274 216.447 88.7834C216.639 89.0394 216.975 89.1674 217.455 89.1674C218.159 89.1674 218.879 88.8794 219.615 88.3034C220.351 87.6954 221.007 86.9914 221.583 86.1914C222.191 85.3594 222.671 84.5114 223.023 83.6474C223.407 82.7834 223.599 82.0634 223.599 81.4874C223.599 80.6554 223.119 80.2394 222.159 80.2394ZM228.766 89.6474C227.742 89.6474 226.99 89.4554 226.51 89.0714C226.062 88.6874 225.838 88.1434 225.838 87.4394C225.838 86.6714 226.078 85.8394 226.558 84.9434C227.038 84.0154 227.678 83.1674 228.478 82.3994C229.278 81.6314 230.206 80.9914 231.262 80.4794C232.35 79.9674 233.47 79.7114 234.622 79.7114L234.526 80.1914C233.854 80.2234 233.134 80.5114 232.366 81.0554C231.63 81.5674 230.942 82.2234 230.302 83.0234C229.694 83.7914 229.182 84.6234 228.766 85.5194C228.35 86.3834 228.126 87.1994 228.094 87.9674C228.094 88.2554 228.174 88.5274 228.334 88.7834C228.494 89.0394 228.83 89.1674 229.342 89.1674C229.982 89.1674 230.686 88.8954 231.454 88.3514C232.222 87.7754 232.942 86.9914 233.614 85.9994C234.286 84.9754 234.846 83.7754 235.294 82.3994C235.742 80.9914 235.966 79.4714 235.966 77.8394C235.966 77.2314 235.934 76.5114 235.87 75.6794C235.838 74.8154 235.79 73.9514 235.726 73.0874C235.694 72.2234 235.646 71.3914 235.582 70.5914C235.55 69.7914 235.534 69.1034 235.534 68.5274C235.534 66.8314 235.758 65.3754 236.206 64.1594C236.686 62.9114 237.31 61.8714 238.078 61.0394C238.878 60.1754 239.806 59.4714 240.862 58.9274C241.918 58.3834 243.022 57.9514 244.174 57.6314C245.358 57.2794 246.574 57.0234 247.822 56.8634C249.07 56.6714 250.286 56.5114 251.47 56.3834C252.654 56.2554 253.87 56.1114 255.118 55.9514C256.366 55.7594 257.582 55.5194 258.766 55.2314C259.95 54.9114 261.054 54.5274 262.078 54.0794C263.134 53.6314 264.046 53.0874 264.814 52.4474C265.614 51.8074 266.238 51.0554 266.686 50.1914C267.166 49.2954 267.406 48.2714 267.406 47.1194C267.406 46.5754 267.326 46.0794 267.166 45.6314L267.55 45.3914C267.87 45.8394 268.094 46.3034 268.222 46.7834C268.35 47.2314 268.414 47.6794 268.414 48.1274C268.414 49.4394 267.95 50.5754 267.022 51.5354C266.126 52.4954 264.91 53.3274 263.374 54.0314C261.838 54.7034 260.046 55.2634 257.998 55.7114C255.95 56.1594 253.774 56.5114 251.47 56.7674C250.574 56.8634 249.598 56.9754 248.542 57.1034C247.518 57.2314 246.494 57.4234 245.47 57.6794C244.446 57.9354 243.454 58.2874 242.494 58.7354C241.534 59.1834 240.686 59.7914 239.95 60.5594C239.214 61.2954 238.622 62.2074 238.174 63.2954C237.758 64.3514 237.55 65.6474 237.55 67.1834C237.55 69.4554 237.63 71.4074 237.79 73.0394C237.95 74.6714 238.03 76.0954 238.03 77.3114C238.03 79.2314 237.742 80.9594 237.166 82.4954C236.59 83.9994 235.854 85.2794 234.958 86.3354C234.062 87.3914 233.054 88.2074 231.934 88.7834C230.846 89.3594 229.79 89.6474 228.766 89.6474ZM246.099 80.2394C245.523 80.2394 244.883 80.5114 244.179 81.0554C243.475 81.5674 242.819 82.2234 242.211 83.0234C241.635 83.7914 241.139 84.6234 240.723 85.5194C240.307 86.4154 240.099 87.2314 240.099 87.9674C240.099 88.2554 240.195 88.5274 240.387 88.7834C240.579 89.0394 240.915 89.1674 241.395 89.1674C242.099 89.1674 242.819 88.8794 243.555 88.3034C244.291 87.6954 244.947 86.9914 245.523 86.1914C246.131 85.3594 246.611 84.5114 246.963 83.6474C247.347 82.7834 247.539 82.0634 247.539 81.4874C247.539 80.6554 247.059 80.2394 246.099 80.2394ZM246.339 79.7114C247.459 79.7114 248.259 79.9514 248.739 80.4314C249.251 80.9114 249.507 81.4554 249.507 82.0634C249.507 82.8314 249.251 83.6634 248.739 84.5594C248.227 85.4234 247.555 86.2394 246.723 87.0074C245.923 87.7754 244.995 88.4154 243.939 88.9274C242.915 89.4074 241.875 89.6474 240.819 89.6474C239.763 89.6474 238.995 89.4554 238.515 89.0714C238.067 88.6554 237.843 88.0794 237.843 87.3434C237.843 86.5754 238.067 85.7434 238.515 84.8474C238.963 83.9514 239.571 83.1194 240.339 82.3514C241.107 81.5834 242.003 80.9594 243.027 80.4794C244.083 79.9674 245.187 79.7114 246.339 79.7114ZM256.703 78.8474C255.871 80.0634 255.199 81.1994 254.687 82.2554C254.175 83.3114 253.775 84.2394 253.487 85.0394C253.199 85.8074 252.991 86.4474 252.863 86.9594C252.767 87.4714 252.719 87.7914 252.719 87.9194C252.719 88.7514 253.167 89.1674 254.063 89.1674C254.639 89.1674 255.247 88.9594 255.887 88.5434C256.559 88.1274 257.167 87.6154 257.711 87.0074C258.287 86.3674 258.751 85.6954 259.103 84.9914C259.487 84.2554 259.711 83.5994 259.775 83.0234C259.743 82.7034 259.663 82.4794 259.535 82.3514C259.407 82.2234 259.263 82.1274 259.103 82.0634C258.975 81.9674 258.847 81.8714 258.719 81.7754C258.591 81.6794 258.527 81.4874 258.527 81.1994C258.527 80.8154 258.703 80.4634 259.055 80.1434C259.407 79.8234 259.823 79.6634 260.303 79.6634C260.847 79.6634 261.279 79.8554 261.599 80.2394C261.919 80.5914 262.079 81.0394 262.079 81.5834C262.079 82.5754 261.807 83.5674 261.263 84.5594C260.719 85.5194 260.015 86.3834 259.151 87.1514C258.319 87.9194 257.391 88.5434 256.367 89.0234C255.343 89.4714 254.367 89.6954 253.439 89.6954C252.223 89.6954 251.439 89.4714 251.087 89.0234C250.735 88.5434 250.559 87.9834 250.559 87.3434C250.559 86.4474 250.879 85.2634 251.519 83.7914C252.191 82.2874 253.055 80.6874 254.111 78.9914C255.199 77.2954 256.415 75.5674 257.759 73.8074C259.135 72.0474 260.511 70.4634 261.887 69.0554C263.295 67.6474 264.655 66.4954 265.967 65.5994C267.279 64.7034 268.415 64.2554 269.375 64.2554C269.951 64.2554 270.447 64.3994 270.863 64.6874C271.279 64.9754 271.487 65.4234 271.487 66.0314C271.487 66.7354 271.135 67.6634 270.431 68.8154C269.727 69.9354 268.735 71.1194 267.455 72.3674C266.175 73.5834 264.623 74.7834 262.799 75.9674C260.975 77.1194 258.943 78.0794 256.703 78.8474ZM267.839 65.3594C267.199 65.3594 266.431 65.7754 265.535 66.6074C264.671 67.4394 263.743 68.4954 262.751 69.7754C261.791 71.0554 260.815 72.4474 259.823 73.9514C258.831 75.4554 257.903 76.8794 257.039 78.2234L257.087 78.2714C259.135 77.5354 260.911 76.6394 262.415 75.5834C263.919 74.5274 265.167 73.4554 266.159 72.3674C267.151 71.2474 267.887 70.1754 268.367 69.1514C268.879 68.0954 269.135 67.2314 269.135 66.5594C269.135 66.2394 269.023 65.9674 268.799 65.7434C268.607 65.4874 268.287 65.3594 267.839 65.3594ZM273.436 84.5114C273.436 85.0234 273.292 85.5834 273.004 86.1914C272.716 86.7994 272.268 87.3594 271.66 87.8714C271.052 88.3834 270.3 88.8154 269.404 89.1674C268.508 89.5194 267.436 89.6954 266.188 89.6954C264.94 89.6954 264.044 89.4554 263.5 88.9754C262.956 88.4954 262.684 87.9194 262.684 87.2474C262.684 86.8314 262.86 86.2874 263.212 85.6154C263.564 84.9114 263.98 84.2074 264.46 83.5034C264.94 82.7674 265.42 82.0794 265.9 81.4394C266.38 80.7994 266.748 80.3034 267.004 79.9514C267.196 79.6954 267.388 79.5034 267.58 79.3754C267.804 79.2154 268.124 79.1354 268.54 79.1354H269.308C269.564 79.1354 269.692 79.2314 269.692 79.4234C269.692 79.4554 269.676 79.5034 269.644 79.5674C269.644 79.5994 269.612 79.6794 269.548 79.8074C268.012 82.1114 266.812 83.8714 265.948 85.0874C265.116 86.3034 264.7 87.2634 264.7 87.9674C264.7 88.3194 264.796 88.6074 264.988 88.8314C265.18 89.0554 265.532 89.1674 266.044 89.1674C266.652 89.1674 267.26 89.0394 267.868 88.7834C268.476 88.5274 269.02 88.1914 269.5 87.7754C270.012 87.3274 270.412 86.8314 270.7 86.2874C271.02 85.7434 271.18 85.1834 271.18 84.6074C271.18 84.2234 271.02 83.8714 270.7 83.5514C270.38 83.2314 269.756 83.0554 268.828 83.0234L268.876 82.5434C269.388 82.4474 269.884 82.3994 270.364 82.3994C271.228 82.3994 271.948 82.5754 272.524 82.9274C273.132 83.2474 273.436 83.7754 273.436 84.5114Z" fill="#FFFDF5"></path></svg> 