<?xml version="1.0" encoding="UTF-8"?> <svg xmlns="http://www.w3.org/2000/svg" width="263" height="167" viewBox="0 0 263 167" fill="none"><path d="M114.363 158.578V158.258C114.875 158.258 115.195 158.109 115.323 157.81C115.472 157.49 115.547 157.117 115.547 156.69V141.362C115.547 141.149 115.44 141.042 115.227 141.042C115.142 141.042 115.024 141.074 114.875 141.138L111.227 142.29V141.138L118.683 138.546V139.41C118.342 139.559 118.064 139.794 117.851 140.114C117.659 140.434 117.584 140.807 117.627 141.234V156.562C117.627 157.01 117.702 157.405 117.851 157.746C118 158.087 118.342 158.258 118.875 158.258V158.578H114.363ZM127.233 158.578H125.729L132.609 140.69H124.257C124.001 140.69 123.735 140.711 123.457 140.754C123.201 140.775 122.956 140.85 122.721 140.978C122.508 141.085 122.327 141.266 122.177 141.522C122.049 141.757 121.985 142.077 121.985 142.482H121.665V138.898H134.785L127.233 158.578ZM137.23 147.73C137.23 147.303 137.369 146.941 137.646 146.642C137.945 146.343 138.308 146.194 138.734 146.194C139.161 146.194 139.524 146.343 139.822 146.642C140.121 146.941 140.27 147.303 140.27 147.73C140.27 148.157 140.121 148.519 139.822 148.818C139.524 149.095 139.161 149.234 138.734 149.234C138.308 149.234 137.945 149.095 137.646 148.818C137.369 148.519 137.23 148.157 137.23 147.73ZM137.23 157.202C137.23 156.775 137.369 156.413 137.646 156.114C137.945 155.815 138.308 155.666 138.734 155.666C139.161 155.666 139.524 155.815 139.822 156.114C140.121 156.413 140.27 156.775 140.27 157.202C140.27 157.629 140.121 157.991 139.822 158.29C139.524 158.567 139.161 158.706 138.734 158.706C138.308 158.706 137.945 158.567 137.646 158.29C137.369 157.991 137.23 157.629 137.23 157.202ZM143.188 148.658C143.188 147.015 143.391 145.565 143.796 144.306C144.223 143.047 144.777 142.002 145.46 141.17C146.143 140.317 146.911 139.677 147.764 139.25C148.639 138.802 149.524 138.578 150.42 138.578C151.316 138.578 152.201 138.802 153.076 139.25C153.951 139.677 154.719 140.317 155.38 141.17C156.063 142.002 156.607 143.047 157.012 144.306C157.439 145.565 157.652 147.015 157.652 148.658C157.652 150.322 157.439 151.794 157.012 153.074C156.607 154.333 156.063 155.399 155.38 156.274C154.719 157.127 153.951 157.778 153.076 158.226C152.201 158.674 151.316 158.898 150.42 158.898C149.524 158.898 148.639 158.674 147.764 158.226C146.911 157.778 146.143 157.127 145.46 156.274C144.777 155.399 144.223 154.333 143.796 153.074C143.391 151.794 143.188 150.322 143.188 148.658ZM155.636 149.49C155.636 147.954 155.465 146.599 155.124 145.426C154.783 144.231 154.335 143.239 153.78 142.45C153.247 141.639 152.628 141.031 151.924 140.626C151.241 140.199 150.537 139.986 149.812 139.986C149.087 139.986 148.425 140.199 147.828 140.626C147.252 141.031 146.761 141.575 146.356 142.258C145.951 142.941 145.631 143.73 145.396 144.626C145.183 145.522 145.076 146.461 145.076 147.442C145.076 148.615 145.215 149.81 145.492 151.026C145.769 152.221 146.164 153.309 146.676 154.29C147.188 155.25 147.796 156.039 148.5 156.658C149.225 157.277 150.015 157.586 150.868 157.586C151.487 157.586 152.084 157.415 152.66 157.074C153.236 156.711 153.737 156.189 154.164 155.506C154.612 154.823 154.964 153.981 155.22 152.978C155.497 151.975 155.636 150.813 155.636 149.49ZM160.25 148.658C160.25 147.015 160.453 145.565 160.858 144.306C161.285 143.047 161.84 142.002 162.522 141.17C163.205 140.317 163.973 139.677 164.826 139.25C165.701 138.802 166.586 138.578 167.482 138.578C168.378 138.578 169.264 138.802 170.138 139.25C171.013 139.677 171.781 140.317 172.442 141.17C173.125 142.002 173.669 143.047 174.074 144.306C174.501 145.565 174.714 147.015 174.714 148.658C174.714 150.322 174.501 151.794 174.074 153.074C173.669 154.333 173.125 155.399 172.442 156.274C171.781 157.127 171.013 157.778 170.138 158.226C169.264 158.674 168.378 158.898 167.482 158.898C166.586 158.898 165.701 158.674 164.826 158.226C163.973 157.778 163.205 157.127 162.522 156.274C161.84 155.399 161.285 154.333 160.858 153.074C160.453 151.794 160.25 150.322 160.25 148.658ZM172.698 149.49C172.698 147.954 172.528 146.599 172.186 145.426C171.845 144.231 171.397 143.239 170.842 142.45C170.309 141.639 169.69 141.031 168.986 140.626C168.304 140.199 167.6 139.986 166.874 139.986C166.149 139.986 165.488 140.199 164.89 140.626C164.314 141.031 163.824 141.575 163.418 142.258C163.013 142.941 162.693 143.73 162.458 144.626C162.245 145.522 162.138 146.461 162.138 147.442C162.138 148.615 162.277 149.81 162.554 151.026C162.832 152.221 163.226 153.309 163.738 154.29C164.25 155.25 164.858 156.039 165.562 156.658C166.288 157.277 167.077 157.586 167.93 157.586C168.549 157.586 169.146 157.415 169.722 157.074C170.298 156.711 170.8 156.189 171.226 155.506C171.674 154.823 172.026 153.981 172.282 152.978C172.56 151.975 172.698 150.813 172.698 149.49Z" fill="#112250"></path><path d="M81.4723 111.738C79.9363 112.954 78.4163 113.946 76.9123 114.714C75.4083 115.45 74.0003 115.818 72.6883 115.818C72.1443 115.818 71.6163 115.754 71.1043 115.626C70.5923 115.53 70.1283 115.338 69.7123 115.05C69.3283 114.762 69.0083 114.394 68.7523 113.946C68.5283 113.466 68.4163 112.89 68.4163 112.218C68.4163 110.97 68.7523 109.658 69.4243 108.282C70.1283 106.874 70.9923 105.45 72.0163 104.01C73.0723 102.538 74.1923 101.066 75.3763 99.5941C76.5923 98.1221 77.7123 96.6981 78.7363 95.3221C79.7923 93.9461 80.6563 92.6341 81.3282 91.3861C82.0323 90.1061 82.3843 88.9541 82.3843 87.9301C82.3843 86.4581 81.6323 85.2421 80.1283 84.2821C78.6563 83.3221 76.5923 82.8421 73.9363 82.8421C71.5043 82.8421 69.2003 83.2421 67.0243 84.0421C64.8483 84.8101 62.9443 85.8821 61.3123 87.2581C59.6803 88.6341 58.3843 90.2501 57.4243 92.1061C56.4642 93.9301 55.9842 95.8981 55.9842 98.0101C55.9842 98.8741 56.1122 99.7061 56.3682 100.506C56.6243 101.274 57.0083 101.962 57.5203 102.57C58.0323 103.146 58.6723 103.61 59.4403 103.962C60.2403 104.314 61.1683 104.49 62.2243 104.49C63.7603 104.49 65.1683 104.202 66.4483 103.626C67.7603 103.05 68.8643 102.314 69.7603 101.418C70.6883 100.522 71.4083 99.5461 71.9203 98.4901C72.4323 97.4021 72.6883 96.3621 72.6883 95.3701C72.6883 94.3461 72.4163 93.4981 71.8723 92.8261C71.3283 92.1221 70.4803 91.7701 69.3282 91.7701C68.7203 91.7701 68.1443 91.8661 67.6003 92.0581C67.0883 92.2501 66.6083 92.5061 66.1603 92.8261C65.7123 93.1141 65.3123 93.4501 64.9603 93.8341C64.6083 94.1861 64.3043 94.5221 64.0483 94.8421L63.7122 94.5541C63.9363 94.2341 64.2243 93.8821 64.5763 93.4981C64.9603 93.1141 65.4083 92.7621 65.9203 92.4421C66.4323 92.0901 66.9763 91.8181 67.5523 91.6261C68.1603 91.4021 68.7843 91.2901 69.4243 91.2901C70.7363 91.2901 71.6803 91.6901 72.2563 92.4901C72.8643 93.2901 73.1683 94.2501 73.1683 95.3701C73.1683 96.5541 72.8643 97.7381 72.2563 98.9221C71.6803 100.106 70.8643 101.162 69.8083 102.09C68.7843 103.018 67.5683 103.786 66.1603 104.394C64.7843 104.97 63.2963 105.258 61.6963 105.258C59.6483 105.258 57.9683 104.666 56.6562 103.482C55.3762 102.266 54.7362 100.522 54.7362 98.2501C54.7362 96.2981 55.2482 94.3781 56.2722 92.4901C57.2643 90.5701 58.6403 88.8581 60.4003 87.3541C62.1923 85.8501 64.2723 84.6501 66.6403 83.7541C69.0083 82.8261 71.5683 82.3621 74.3203 82.3621C75.7283 82.3621 77.0243 82.5221 78.2083 82.8421C79.3923 83.1301 80.4163 83.5621 81.2803 84.1381C82.1443 84.7141 82.8163 85.4021 83.2963 86.2021C83.8083 87.0021 84.0643 87.8981 84.0643 88.8901C84.0643 89.8501 83.8403 90.9061 83.3923 92.0581C82.9443 93.2101 82.3523 94.4101 81.6163 95.6581C80.9123 96.8741 80.1123 98.1061 79.2163 99.3541C78.3203 100.602 77.4403 101.786 76.5763 102.906C75.9683 103.674 75.3443 104.49 74.7043 105.354C74.0963 106.218 73.5363 107.098 73.0243 107.994C72.5443 108.858 72.1443 109.722 71.8243 110.586C71.5043 111.45 71.3443 112.234 71.3443 112.938C71.3443 113.578 71.4883 114.122 71.7763 114.57C72.0643 115.018 72.5603 115.242 73.2643 115.242C74.3843 115.242 75.6643 114.858 77.1043 114.09C78.5443 113.29 80.0323 112.266 81.5683 111.018C81.7603 109.93 82.1283 108.714 82.6723 107.37C83.2163 105.994 83.8083 104.65 84.4483 103.338C85.0883 101.994 85.7283 100.746 86.3683 99.5941C87.0403 98.4421 87.6003 97.4981 88.0483 96.7621C88.2723 96.4101 88.6403 95.8501 89.1523 95.0821C89.6643 94.3141 90.2563 93.4661 90.9283 92.5381C91.6323 91.6101 92.3843 90.6661 93.1843 89.7061C93.9843 88.7141 94.8003 87.8181 95.6323 87.0181C96.4643 86.2181 97.2643 85.5621 98.0323 85.0501C98.8323 84.5381 99.5683 84.2821 100.24 84.2821C100.688 84.2821 101.072 84.3941 101.392 84.6181C101.712 84.8101 101.872 85.2101 101.872 85.8181C101.872 86.3941 101.728 87.0821 101.44 87.8821C101.152 88.6501 100.768 89.4821 100.288 90.3781C99.8083 91.2741 99.2483 92.2021 98.6083 93.1621C97.9683 94.0901 97.3123 94.9701 96.6403 95.8021C96.0963 96.4741 95.4083 97.3221 94.5763 98.3461C93.7443 99.3701 92.8003 100.49 91.7443 101.706C90.6883 102.89 89.5523 104.122 88.3363 105.402C87.1203 106.65 85.8723 107.866 84.5923 109.05C84.3683 109.722 84.1763 110.426 84.0163 111.162C83.8563 111.866 83.7762 112.538 83.7762 113.178C83.7762 113.658 83.8563 114.042 84.0163 114.33C84.1763 114.586 84.3523 114.794 84.5443 114.954C84.7683 115.082 84.9923 115.162 85.2163 115.194C85.4403 115.226 85.6163 115.242 85.7443 115.242C86.2563 115.242 86.7683 115.082 87.2803 114.762C87.7923 114.41 88.2723 113.994 88.7203 113.514C88.8803 113.258 89.1363 113.002 89.4883 112.746C89.8403 112.49 90.1923 112.362 90.5443 112.362C90.8643 112.362 91.0243 112.474 91.0243 112.698C91.0243 112.762 90.9923 112.858 90.9283 112.986C90.8963 113.082 90.8643 113.162 90.8323 113.226L89.9683 114.954C90.8963 114.154 91.8243 113.338 92.7523 112.506C93.6803 111.642 94.5923 110.682 95.4883 109.626L95.8723 109.818C94.8803 110.938 93.8723 111.994 92.8483 112.986C91.8563 113.946 90.7523 114.906 89.5363 115.866C88.8003 117.306 87.8723 118.858 86.7523 120.522C85.6323 122.218 84.4323 123.802 83.1523 125.274C81.8723 126.746 80.5603 127.962 79.2163 128.922C77.9043 129.914 76.6723 130.41 75.5203 130.41C74.4643 130.41 73.9363 129.978 73.9363 129.114C73.9363 128.57 74.1603 127.962 74.6083 127.29C75.0563 126.65 75.6483 125.978 76.3843 125.274C77.1203 124.57 77.9523 123.85 78.8803 123.114C79.8403 122.378 80.8003 121.642 81.7603 120.906C82.7203 120.202 83.6483 119.498 84.5443 118.794C85.4723 118.122 86.2883 117.482 86.9923 116.874C87.2163 116.49 87.4243 116.122 87.6163 115.77C87.8403 115.418 88.0323 115.066 88.1923 114.714C87.7443 115.066 87.2643 115.37 86.7523 115.626C86.2403 115.882 85.6643 116.01 85.0243 116.01C84.6403 116.01 84.2243 115.946 83.7762 115.818C83.3603 115.722 82.9763 115.546 82.6243 115.29C82.3043 115.002 82.0323 114.634 81.8083 114.186C81.5843 113.706 81.4723 113.114 81.4723 112.41V111.738ZM85.5523 106.698C85.3283 107.114 85.1363 107.562 84.9763 108.042C86.1603 106.922 87.3283 105.754 88.4803 104.538C89.6323 103.322 90.7043 102.138 91.6963 100.986C92.7203 99.8341 93.6483 98.7621 94.4803 97.7701C95.3123 96.7461 96.0163 95.8501 96.5923 95.0821C97.2003 94.2821 97.7763 93.4661 98.3203 92.6341C98.8963 91.7701 99.4083 90.9381 99.8563 90.1381C100.304 89.3061 100.656 88.5381 100.912 87.8341C101.2 87.1301 101.344 86.5061 101.344 85.9621C101.344 85.5461 101.232 85.2581 101.008 85.0981C100.816 84.9061 100.592 84.8101 100.336 84.8101C99.8883 84.8101 99.3283 85.1461 98.6563 85.8181C97.9843 86.4581 97.2003 87.3701 96.3043 88.5541C95.4403 89.7061 94.4643 91.1141 93.3763 92.7781C92.3203 94.4421 91.1843 96.2821 89.9683 98.2981C89.7443 98.6821 89.4563 99.1781 89.1043 99.7861C88.7523 100.362 88.3683 101.018 87.9523 101.754C87.5683 102.49 87.1683 103.29 86.7523 104.154C86.3363 104.986 85.9363 105.834 85.5523 106.698ZM76.6723 129.786C77.0883 129.786 77.6803 129.418 78.4483 128.682C79.2483 127.978 80.0963 127.05 80.9923 125.898C81.9203 124.778 82.8483 123.514 83.7762 122.106C84.7363 120.698 85.6003 119.29 86.3683 117.882C85.4723 118.65 84.4163 119.482 83.2003 120.378C81.9843 121.306 80.8163 122.25 79.6963 123.21C78.6083 124.17 77.6803 125.13 76.9123 126.09C76.1443 127.082 75.7603 128.01 75.7603 128.874C75.7603 129.482 76.0643 129.786 76.6723 129.786ZM96.4996 111.786C97.5556 111.594 98.4196 111.322 99.0916 110.97C99.7636 110.618 100.292 110.25 100.676 109.866C101.06 109.45 101.316 109.05 101.444 108.666C101.604 108.25 101.684 107.882 101.684 107.562C101.684 107.21 101.604 106.986 101.444 106.89C101.284 106.762 101.092 106.698 100.868 106.698C100.164 106.698 99.4276 107.194 98.6596 108.186C97.8916 109.146 97.1716 110.346 96.4996 111.786ZM97.6036 115.146C97.9236 115.146 98.2756 115.114 98.6596 115.05C99.0756 114.986 99.5716 114.794 100.148 114.474C100.724 114.154 101.38 113.658 102.116 112.986C102.884 112.314 103.796 111.37 104.852 110.154L105.188 110.394C104.132 111.642 103.188 112.634 102.356 113.37C101.556 114.074 100.82 114.618 100.148 115.002C99.4756 115.354 98.8516 115.578 98.2756 115.674C97.7316 115.802 97.1876 115.866 96.6436 115.866C95.4596 115.866 94.6756 115.61 94.2916 115.098C93.9076 114.554 93.7156 114.01 93.7156 113.466C93.7156 112.602 93.9236 111.738 94.3396 110.874C94.7876 109.978 95.3636 109.178 96.0676 108.474C96.8036 107.738 97.6196 107.146 98.5156 106.698C99.4116 106.218 100.34 105.978 101.3 105.978C102.26 105.978 102.884 106.17 103.172 106.554C103.46 106.906 103.604 107.258 103.604 107.61C103.604 108.282 103.364 108.89 102.884 109.434C102.436 109.946 101.86 110.394 101.156 110.778C100.452 111.13 99.6676 111.434 98.8036 111.69C97.9396 111.914 97.1236 112.09 96.3556 112.218C96.2596 112.41 96.1796 112.666 96.1156 112.986C96.0516 113.274 96.0196 113.546 96.0196 113.802C96.0196 114.25 96.1636 114.586 96.4516 114.81C96.7716 115.034 97.1556 115.146 97.6036 115.146ZM114.455 115.77C113.911 115.77 113.447 115.658 113.063 115.434C112.679 115.178 112.487 114.794 112.487 114.282C112.487 113.866 112.599 113.418 112.823 112.938C113.047 112.426 113.335 111.914 113.687 111.402C114.039 110.89 114.407 110.378 114.791 109.866C115.175 109.354 115.543 108.874 115.895 108.426C116.247 107.914 116.423 107.562 116.423 107.37C116.423 106.986 116.167 106.794 115.655 106.794C114.983 106.794 114.247 107.146 113.447 107.85C112.679 108.554 111.927 109.386 111.191 110.346C110.487 111.274 109.831 112.218 109.223 113.178C108.647 114.138 108.199 114.89 107.879 115.434L93.9114 138.906C93.6554 139.29 93.3514 139.754 92.9994 140.298C92.6474 140.874 92.2634 141.418 91.8474 141.93C91.3994 142.474 90.9514 142.922 90.5034 143.274C90.0554 143.658 89.6234 143.85 89.2074 143.85C88.6634 143.85 88.3114 143.69 88.1514 143.37C87.9914 143.082 87.9114 142.73 87.9114 142.314C87.9114 141.578 88.1994 140.634 88.7754 139.482C89.3194 138.362 89.9114 137.21 90.5514 136.026C91.8954 133.594 93.3354 131.082 94.8714 128.49C96.3754 125.93 97.9274 123.354 99.5274 120.762C101.095 118.202 102.663 115.69 104.231 113.226C105.831 110.73 107.367 108.378 108.839 106.17L104.759 110.922L104.423 110.682C105.639 109.242 106.871 107.786 108.119 106.314C109.399 104.81 110.695 103.194 112.007 101.466L112.631 100.554C113.175 99.7861 113.799 99.4021 114.503 99.4021H114.935C115.191 99.4021 115.319 99.4981 115.319 99.6901C115.319 99.7221 115.303 99.7701 115.271 99.8341C115.271 99.8661 115.239 99.9461 115.175 100.074L113.255 103.05C112.775 103.786 112.087 104.858 111.191 106.266C110.295 107.674 109.271 109.29 108.119 111.114C106.967 112.906 105.735 114.842 104.423 116.922C103.111 119.002 101.815 121.082 100.535 123.162C99.2234 125.274 97.9754 127.306 96.7914 129.258C95.5754 131.242 94.5034 133.034 93.5754 134.634C92.6474 136.266 91.8794 137.642 91.2714 138.762C90.6634 139.882 90.3274 140.634 90.2634 141.018C90.1994 141.338 90.1674 141.53 90.1674 141.594C90.1674 141.946 90.2954 142.122 90.5514 142.122C90.9034 142.122 91.3034 141.818 91.7514 141.21C92.1674 140.634 92.8074 139.626 93.6714 138.186C96.0394 134.314 98.3594 130.458 100.631 126.618C102.903 122.81 105.175 118.986 107.447 115.146C107.927 114.314 108.503 113.37 109.175 112.314C109.847 111.226 110.567 110.202 111.335 109.242C112.135 108.282 112.983 107.482 113.879 106.842C114.775 106.17 115.687 105.834 116.615 105.834C117.191 105.834 117.671 105.978 118.055 106.266C118.439 106.554 118.631 106.97 118.631 107.514C118.631 107.994 118.423 108.554 118.007 109.194C117.623 109.802 117.191 110.442 116.711 111.114C116.263 111.754 115.831 112.362 115.415 112.938C115.031 113.514 114.839 113.994 114.839 114.378C114.839 114.73 115.047 114.906 115.463 114.906C116.295 114.906 117.095 114.554 117.863 113.85C118.631 113.114 119.671 111.978 120.983 110.442L121.319 110.682C120.807 111.29 120.295 111.898 119.783 112.506C119.303 113.114 118.791 113.658 118.247 114.138C117.703 114.618 117.127 115.018 116.519 115.338C115.911 115.626 115.223 115.77 114.455 115.77ZM122.937 111.786C123.993 111.594 124.857 111.322 125.529 110.97C126.201 110.618 126.729 110.25 127.113 109.866C127.497 109.45 127.753 109.05 127.881 108.666C128.041 108.25 128.121 107.882 128.121 107.562C128.121 107.21 128.041 106.986 127.881 106.89C127.721 106.762 127.529 106.698 127.305 106.698C126.601 106.698 125.865 107.194 125.097 108.186C124.329 109.146 123.609 110.346 122.937 111.786ZM124.041 115.146C124.361 115.146 124.713 115.114 125.097 115.05C125.513 114.986 126.009 114.794 126.585 114.474C127.161 114.154 127.817 113.658 128.553 112.986C129.321 112.314 130.233 111.37 131.289 110.154L131.625 110.394C130.569 111.642 129.625 112.634 128.793 113.37C127.993 114.074 127.257 114.618 126.585 115.002C125.913 115.354 125.289 115.578 124.713 115.674C124.169 115.802 123.625 115.866 123.081 115.866C121.897 115.866 121.113 115.61 120.729 115.098C120.345 114.554 120.153 114.01 120.153 113.466C120.153 112.602 120.361 111.738 120.777 110.874C121.225 109.978 121.801 109.178 122.505 108.474C123.241 107.738 124.057 107.146 124.953 106.698C125.849 106.218 126.777 105.978 127.737 105.978C128.697 105.978 129.321 106.17 129.609 106.554C129.897 106.906 130.041 107.258 130.041 107.61C130.041 108.282 129.801 108.89 129.321 109.434C128.873 109.946 128.297 110.394 127.593 110.778C126.889 111.13 126.105 111.434 125.241 111.69C124.377 111.914 123.561 112.09 122.793 112.218C122.697 112.41 122.617 112.666 122.553 112.986C122.489 113.274 122.457 113.546 122.457 113.802C122.457 114.25 122.601 114.586 122.889 114.81C123.209 115.034 123.593 115.146 124.041 115.146ZM145.117 115.77C144.573 115.77 144.109 115.658 143.725 115.434C143.373 115.178 143.197 114.794 143.197 114.282C143.197 113.802 143.341 113.242 143.629 112.602C143.949 111.93 144.317 111.274 144.733 110.634C145.149 109.962 145.565 109.354 145.981 108.81C146.397 108.234 146.733 107.802 146.989 107.514L146.941 107.466C146.493 107.626 146.013 108.042 145.501 108.714C145.021 109.386 144.493 110.09 143.917 110.826C143.469 111.402 143.037 111.978 142.621 112.554C142.237 113.098 141.821 113.594 141.373 114.042C140.925 114.49 140.445 114.858 139.933 115.146C139.453 115.434 138.925 115.578 138.349 115.578C137.293 115.578 136.765 115.162 136.765 114.33C136.765 113.978 136.941 113.482 137.293 112.842C137.645 112.17 138.061 111.482 138.541 110.778C139.053 110.042 139.565 109.338 140.077 108.666C140.621 107.994 141.053 107.466 141.373 107.082L141.325 107.034C140.973 107.098 140.541 107.386 140.029 107.898C139.549 108.378 139.021 108.938 138.445 109.578C137.869 110.218 137.277 110.89 136.669 111.594C136.093 112.298 135.517 112.906 134.941 113.418C133.917 114.346 133.037 115.002 132.301 115.386C131.597 115.738 130.877 115.914 130.141 115.914C129.501 115.914 129.005 115.77 128.653 115.482C128.301 115.162 128.125 114.714 128.125 114.138C128.125 113.466 128.317 112.826 128.701 112.218C129.053 111.578 129.485 111.114 129.997 110.826C130.509 110.506 131.037 110.394 131.581 110.49C132.157 110.554 132.477 110.986 132.541 111.786C132.573 112.074 132.429 112.394 132.109 112.746C131.789 113.098 131.485 113.274 131.197 113.274C130.877 113.274 130.653 113.162 130.525 112.938C130.429 112.682 130.253 112.538 129.997 112.506C129.837 112.506 129.581 112.65 129.229 112.938C128.909 113.226 128.749 113.642 128.749 114.186C128.749 114.474 128.861 114.778 129.085 115.098C129.309 115.386 129.645 115.53 130.093 115.53C130.413 115.53 130.717 115.498 131.005 115.434C131.325 115.338 131.661 115.194 132.013 115.002C132.365 114.81 132.765 114.554 133.213 114.234C133.661 113.882 134.173 113.434 134.749 112.89C135.549 112.186 136.269 111.434 136.909 110.634C137.549 109.802 138.173 109.034 138.781 108.33C139.421 107.626 140.061 107.05 140.701 106.602C141.373 106.122 142.125 105.882 142.957 105.882C143.501 105.882 143.773 106.074 143.773 106.458C143.773 106.682 143.645 107.018 143.389 107.466C143.165 107.914 142.877 108.41 142.525 108.954C142.173 109.498 141.773 110.058 141.325 110.634C140.909 111.21 140.525 111.754 140.173 112.266C139.821 112.778 139.517 113.226 139.261 113.61C139.037 113.994 138.925 114.266 138.925 114.426C138.925 114.618 139.021 114.714 139.213 114.714C139.821 114.714 140.445 114.362 141.085 113.658C141.725 112.922 142.637 111.754 143.821 110.154C144.205 109.642 144.589 109.13 144.973 108.618C145.357 108.106 145.757 107.658 146.173 107.274C146.589 106.858 147.037 106.522 147.517 106.266C147.997 106.01 148.541 105.882 149.149 105.882C149.693 105.882 149.965 106.074 149.965 106.458C149.965 106.81 149.725 107.338 149.245 108.042C148.797 108.746 148.285 109.498 147.709 110.298C147.133 111.066 146.605 111.834 146.125 112.602C145.677 113.338 145.453 113.93 145.453 114.378C145.453 114.73 145.661 114.906 146.077 114.906C146.909 114.906 147.709 114.554 148.477 113.85C149.245 113.114 150.285 111.978 151.597 110.442L151.933 110.682C151.421 111.29 150.909 111.898 150.397 112.506C149.917 113.114 149.405 113.658 148.861 114.138C148.317 114.618 147.741 115.018 147.133 115.338C146.525 115.626 145.837 115.77 145.069 115.77H145.117ZM159.065 106.458C158.489 106.458 157.849 106.73 157.145 107.274C156.441 107.786 155.785 108.442 155.177 109.242C154.601 110.01 154.105 110.842 153.689 111.738C153.273 112.634 153.065 113.45 153.065 114.186C153.065 114.474 153.161 114.746 153.353 115.002C153.545 115.258 153.881 115.386 154.361 115.386C155.065 115.386 155.785 115.098 156.521 114.522C157.257 113.914 157.913 113.21 158.489 112.41C159.097 111.578 159.577 110.73 159.929 109.866C160.313 109.002 160.505 108.282 160.505 107.706C160.505 106.874 160.025 106.458 159.065 106.458ZM159.305 105.93C160.425 105.93 161.225 106.17 161.705 106.65C162.217 107.13 162.473 107.674 162.473 108.282C162.473 109.05 162.217 109.882 161.705 110.778C161.193 111.642 160.521 112.458 159.689 113.226C158.889 113.994 157.961 114.634 156.905 115.146C155.881 115.626 154.841 115.866 153.785 115.866C152.729 115.866 151.961 115.674 151.481 115.29C151.033 114.874 150.809 114.298 150.809 113.562C150.809 112.794 151.033 111.962 151.481 111.066C151.929 110.17 152.537 109.338 153.305 108.57C154.073 107.802 154.969 107.178 155.993 106.698C157.049 106.186 158.153 105.93 159.305 105.93ZM173.942 115.77C173.398 115.77 172.934 115.658 172.55 115.434C172.198 115.178 172.022 114.794 172.022 114.282C172.022 113.93 172.15 113.482 172.406 112.938C172.662 112.394 172.982 111.802 173.366 111.162C173.078 111.13 172.774 111.114 172.454 111.114C172.134 111.082 171.766 111.066 171.35 111.066C171.094 111.066 170.854 111.066 170.63 111.066C170.406 111.066 170.166 111.082 169.91 111.114L167.462 114.762C167.238 115.082 167.014 115.306 166.79 115.434C166.566 115.53 166.326 115.578 166.07 115.578H164.822C164.598 115.578 164.486 115.482 164.486 115.29C164.486 115.194 164.534 115.066 164.63 114.906C165.046 114.362 165.526 113.706 166.07 112.938C166.646 112.17 167.174 111.418 167.654 110.682C168.166 109.914 168.582 109.226 168.902 108.618C169.254 107.978 169.43 107.53 169.43 107.274C169.43 106.922 169.254 106.746 168.902 106.746C168.614 106.746 168.278 106.874 167.894 107.13C167.51 107.354 167.094 107.674 166.646 108.09C166.23 108.506 165.782 108.97 165.302 109.482C164.854 109.994 164.406 110.506 163.958 111.018L163.574 110.826C164.15 110.186 164.71 109.578 165.254 109.002C165.798 108.394 166.326 107.866 166.838 107.418C167.382 106.938 167.91 106.57 168.422 106.314C168.934 106.026 169.43 105.882 169.91 105.882C170.646 105.882 171.142 106.01 171.398 106.266C171.686 106.522 171.83 106.858 171.83 107.274C171.83 107.914 171.302 109.018 170.246 110.586C170.502 110.618 170.758 110.634 171.014 110.634C171.27 110.634 171.558 110.634 171.878 110.634H173.654C174.102 109.93 174.55 109.258 174.998 108.618C175.478 107.946 175.894 107.386 176.246 106.938C176.438 106.682 176.63 106.49 176.822 106.362C177.046 106.202 177.366 106.122 177.782 106.122H178.55C178.806 106.122 178.934 106.218 178.934 106.41C178.934 106.442 178.918 106.49 178.886 106.554C178.886 106.586 178.854 106.666 178.79 106.794C178.502 107.242 178.102 107.834 177.59 108.57C177.11 109.274 176.614 109.994 176.102 110.73C175.622 111.466 175.206 112.17 174.854 112.842C174.502 113.514 174.326 114.026 174.326 114.378C174.326 114.73 174.534 114.906 174.95 114.906C175.782 114.906 176.582 114.554 177.35 113.85C178.118 113.114 179.158 111.978 180.47 110.442L180.806 110.682C180.294 111.29 179.782 111.898 179.27 112.506C178.79 113.114 178.278 113.658 177.734 114.138C177.19 114.618 176.614 115.018 176.006 115.338C175.398 115.626 174.71 115.77 173.942 115.77ZM191.497 115.77C190.953 115.77 190.489 115.658 190.105 115.434C189.721 115.178 189.529 114.794 189.529 114.282C189.529 113.61 189.753 112.89 190.201 112.122C190.681 111.354 191.129 110.698 191.545 110.154L191.497 110.106C190.857 110.81 190.169 111.498 189.433 112.17C188.697 112.842 187.961 113.45 187.225 113.994C186.521 114.506 185.833 114.922 185.161 115.242C184.521 115.562 183.977 115.722 183.529 115.722C182.473 115.722 181.945 115.306 181.945 114.474C181.945 114.026 182.073 113.594 182.329 113.178C182.585 112.762 182.905 112.282 183.289 111.738C183.577 111.322 183.881 110.906 184.201 110.49C184.521 110.074 184.809 109.674 185.065 109.29C185.353 108.874 185.577 108.506 185.737 108.186C185.897 107.834 185.977 107.53 185.977 107.274C185.977 106.922 185.801 106.746 185.449 106.746C185.161 106.746 184.809 106.874 184.393 107.13C184.009 107.354 183.577 107.674 183.097 108.09C182.649 108.506 182.169 108.97 181.657 109.482C181.177 109.994 180.713 110.506 180.265 111.018L179.977 110.826C180.553 110.186 181.113 109.578 181.657 109.002C182.233 108.394 182.793 107.866 183.337 107.418C183.881 106.938 184.409 106.57 184.921 106.314C185.465 106.026 185.977 105.882 186.457 105.882C187.097 105.882 187.561 106.01 187.849 106.266C188.169 106.522 188.329 106.874 188.329 107.322C188.329 107.93 188.105 108.602 187.657 109.338C187.241 110.074 186.777 110.778 186.265 111.45C185.785 112.122 185.321 112.746 184.873 113.322C184.457 113.866 184.249 114.282 184.249 114.57C184.249 114.762 184.345 114.858 184.537 114.858C185.081 114.858 185.801 114.538 186.697 113.898C187.593 113.258 188.505 112.506 189.433 111.642C190.361 110.778 191.225 109.914 192.025 109.05C192.825 108.154 193.417 107.45 193.801 106.938C193.993 106.682 194.185 106.49 194.377 106.362C194.601 106.202 194.921 106.122 195.337 106.122H196.105C196.361 106.122 196.489 106.218 196.489 106.41C196.489 106.442 196.473 106.49 196.441 106.554C196.441 106.586 196.409 106.666 196.345 106.794C195.961 107.37 195.513 108.026 195.001 108.762C194.489 109.498 193.993 110.234 193.513 110.97C193.065 111.674 192.681 112.346 192.361 112.986C192.041 113.594 191.881 114.058 191.881 114.378C191.881 114.73 192.089 114.906 192.505 114.906C193.337 114.906 194.137 114.554 194.905 113.85C195.673 113.114 196.713 111.978 198.025 110.442L198.361 110.682C197.849 111.29 197.337 111.898 196.825 112.506C196.345 113.114 195.833 113.658 195.289 114.138C194.745 114.618 194.169 115.018 193.561 115.338C192.953 115.626 192.265 115.77 191.497 115.77ZM206.048 106.122C205.632 106.122 205.216 106.25 204.8 106.506C204.384 106.762 204.016 107.082 203.696 107.466C203.376 107.85 203.104 108.266 202.88 108.714C202.688 109.162 202.592 109.578 202.592 109.962C202.592 110.474 202.864 110.73 203.408 110.73C203.792 110.73 204.208 110.586 204.656 110.298C205.104 110.01 205.52 109.674 205.904 109.29C206.288 108.906 206.592 108.506 206.816 108.09C207.072 107.674 207.2 107.338 207.2 107.082C207.2 106.73 207.072 106.49 206.816 106.362C206.592 106.202 206.336 106.122 206.048 106.122ZM206.096 115.77C205.488 115.77 204.992 115.658 204.608 115.434C204.256 115.178 204.08 114.81 204.08 114.33C204.08 113.978 204.16 113.562 204.32 113.082C204.512 112.602 204.896 111.85 205.472 110.826H205.424C205.104 111.274 204.688 111.77 204.176 112.314C203.696 112.858 203.28 113.306 202.928 113.658C201.904 114.586 200.928 115.194 200 115.482C199.104 115.77 198.288 115.914 197.552 115.914C196.912 115.914 196.416 115.77 196.064 115.482C195.712 115.162 195.536 114.714 195.536 114.138C195.536 113.466 195.712 112.826 196.064 112.218C196.448 111.578 196.896 111.114 197.408 110.826C197.92 110.506 198.448 110.394 198.992 110.49C199.568 110.554 199.888 110.986 199.952 111.786C199.984 112.074 199.84 112.394 199.52 112.746C199.2 113.098 198.896 113.274 198.608 113.274C198.288 113.274 198.064 113.162 197.936 112.938C197.84 112.682 197.664 112.538 197.408 112.506C197.248 112.506 196.992 112.65 196.64 112.938C196.32 113.226 196.16 113.642 196.16 114.186C196.16 114.474 196.272 114.762 196.496 115.05C196.72 115.306 197.056 115.434 197.504 115.434C198.144 115.434 198.88 115.322 199.712 115.098C200.544 114.842 201.552 114.186 202.736 113.13C203.088 112.778 203.504 112.346 203.984 111.834C204.464 111.322 204.864 110.858 205.184 110.442C204.48 110.954 203.712 111.21 202.88 111.21C202.176 111.21 201.584 111.082 201.104 110.826C200.656 110.538 200.432 110.122 200.432 109.578C200.432 109.13 200.56 108.682 200.816 108.234C201.072 107.754 201.424 107.338 201.872 106.986C202.32 106.602 202.864 106.298 203.504 106.074C204.144 105.85 204.848 105.738 205.616 105.738C206.32 105.738 206.88 105.882 207.296 106.17C207.744 106.426 208.016 106.682 208.112 106.938H208.208C208.432 106.65 208.624 106.442 208.784 106.314C208.976 106.186 209.216 106.122 209.504 106.122H210.56C210.816 106.122 210.944 106.218 210.944 106.41C210.944 106.442 210.928 106.49 210.896 106.554C210.896 106.586 210.864 106.666 210.8 106.794C210.416 107.37 209.968 108.026 209.456 108.762C208.944 109.498 208.448 110.234 207.968 110.97C207.52 111.674 207.136 112.33 206.816 112.938C206.496 113.546 206.336 114.01 206.336 114.33C206.336 114.714 206.56 114.906 207.008 114.906C207.84 114.906 208.672 114.57 209.504 113.898C210.336 113.194 211.408 112.074 212.72 110.538L213.056 110.778C212.544 111.386 212.032 111.994 211.52 112.602C211.008 113.178 210.464 113.706 209.888 114.186C209.344 114.666 208.752 115.05 208.112 115.338C207.472 115.626 206.768 115.77 206 115.77H206.096Z" fill="#112250"></path><path d="M137.128 0.159156C136.653 0.238243 135.339 0.3806 134.2 0.491322C131.92 0.696948 128.216 1.28219 126.57 1.67763C125.351 1.97816 123.641 2.5634 123.72 2.65831C123.752 2.68994 124.1 2.59504 124.48 2.4685C130.749 0.238243 150.22 -0.188828 161.601 1.66181C163.691 1.99398 164.34 2.32614 164.356 3.05374C164.356 3.40173 164.451 3.38591 163.169 3.1012C161.586 2.72158 158.831 2.42105 154.541 2.13633C151.375 1.93071 149.017 1.89907 141.719 1.96234C132.569 2.05725 130.891 2.15215 127.155 2.72158C124.369 3.13283 124.116 3.22774 123.404 4.05024C122.565 4.99929 121.441 7.59335 121.346 8.79547C121.282 9.52307 121.172 9.83942 120.855 10.1716C120.633 10.4088 120.412 10.567 120.349 10.5354C120.143 10.4088 120.048 10.8834 120.174 11.3579L120.301 11.8008L120.538 11.3263C120.966 10.5038 122.422 9.20672 123.42 8.71638C125.715 7.6408 128.77 7.22955 138.3 6.7392C144.727 6.40704 156.995 6.42286 159.987 6.75502C162.314 7.0081 164.071 7.48262 165.116 8.13114C165.796 8.55821 166.335 8.54239 166.097 8.0995C165.749 7.41935 164.989 4.38241 165.147 4.22423C165.401 3.97116 166.113 4.61967 166.556 5.48963C167.063 6.47031 167.221 8.35258 166.841 8.6373C166.683 8.74802 166.635 8.89037 166.73 9.03273C166.857 9.22254 166.904 9.22254 167.079 9.06437C167.221 8.92201 167.284 8.43167 167.268 7.60916C167.253 6.58103 167.173 6.20141 166.762 5.34727C166.382 4.50895 166.145 4.24005 165.575 3.89207C165.052 3.60735 164.799 3.32264 164.672 2.94302C164.292 1.81999 163.564 1.51945 159.607 0.965844C154.605 0.25406 152.61 0.127521 145.281 0.0800686C141.276 0.0642509 137.603 0.0958862 137.128 0.159156ZM152.008 2.38941C157.976 2.61086 161.981 3.03793 163.738 3.63899L164.593 3.9237L164.862 5.01511C165.021 5.61617 165.29 6.51776 165.448 7.0081C165.622 7.51426 165.701 7.95715 165.638 7.98878C165.59 8.03623 165.084 7.84642 164.546 7.59335C164.008 7.32445 162.868 6.96065 162.029 6.78666C160.557 6.47031 159.923 6.43867 150.425 6.3754C140.342 6.31213 136.527 6.42286 130.48 6.9132C126.301 7.24536 124.243 7.75152 122.454 8.85874L121.694 9.33326L121.647 8.87456C121.52 7.6408 123.673 4.22423 124.892 3.70226C126.19 3.16447 130.211 2.54759 133.487 2.38941C136.922 2.23124 147.608 2.21542 152.008 2.38941Z" fill="#112250"></path><path d="M120.839 7.54454C120.839 7.71853 120.887 7.76598 120.934 7.63945C120.982 7.52872 120.966 7.38637 120.918 7.33891C120.871 7.27564 120.823 7.37055 120.839 7.54454Z" fill="#112250"></path><path d="M157.459 8.0994C156.937 8.17849 155.765 8.36829 154.847 8.51065C152.662 8.85863 147.676 8.84282 142.452 8.47902C138.051 8.17849 129.63 8.21012 128.174 8.55811C125.767 9.11172 125.229 9.25407 124.295 9.61787C122.855 10.1873 121.683 10.9782 121.224 11.6741C120.005 13.5564 120.021 16.7673 121.303 21.1171C122.032 23.6005 124.833 30.9714 125.403 31.8888C126.274 33.2966 127.509 33.866 129.709 33.866C131.846 33.866 130.928 34.5145 128.728 34.562C127.556 34.5778 127.271 34.5303 126.48 34.1349C125.229 33.518 124.564 32.569 123.678 30.1489C123.425 29.4529 122.791 27.8554 122.269 26.59C120.971 23.4581 120.417 21.7024 119.847 18.9185C119.404 16.799 119.372 16.3561 119.451 14.7269C119.515 13.509 119.483 13.0661 119.388 13.3666C118.913 14.8376 119.056 17.0837 119.8 20.0257C120.369 22.3509 120.686 23.2367 122.506 27.8554C124.343 32.4741 124.928 33.5338 126.116 34.2614C126.86 34.7201 126.939 34.7359 128.633 34.7201C129.598 34.7043 130.564 34.6569 130.77 34.641C131.15 34.5778 131.15 34.6094 131.197 35.8432C131.229 36.555 131.371 37.504 131.545 38.026C131.894 39.0699 131.814 39.1806 130.896 39.0383C130.105 38.9118 128.094 39.2281 127.208 39.6235C125.245 40.5251 124.501 41.9171 121.921 49.6834C119.863 55.8522 118.945 59.253 118.802 61.2143C118.707 62.4797 118.723 62.543 119.008 62.4164C119.166 62.3532 119.483 62.2583 119.689 62.2108C120.021 62.1476 120.053 62.1792 119.958 62.5114C119.404 64.4727 118.834 69.2812 118.945 71.1793L119.008 72.3498L119.831 73.109C120.417 73.6468 120.923 73.9474 121.493 74.1213C122.411 74.3744 125.118 74.7224 128.648 75.0229C131.814 75.2918 145.65 75.2918 150.652 75.0229C160.672 74.4851 163.918 74.0423 165.691 72.9983C167.226 72.1125 167.511 71.4166 167.511 68.6327C167.511 66.4657 167.321 64.9631 166.719 62.3374C166.545 61.5149 166.34 60.5816 166.276 60.2811C166.086 59.4111 165.706 59.3004 163.395 59.3953C162.303 59.4428 160.973 59.6009 160.419 59.7433C159.865 59.8857 159.406 59.9806 159.374 59.9489C159.359 59.9173 159.184 59.3479 158.979 58.6994C158.615 57.513 157.696 55.5675 157.079 54.6659C156.462 53.7485 154.91 52.3407 153.976 51.8188C152.773 51.1544 151.174 50.585 149.544 50.237C147.724 49.8574 147.819 49.9365 148.278 49.2405C148.737 48.5446 149.307 47.0261 149.307 46.4883C149.307 46.1403 149.307 46.1403 149.037 46.5199L148.753 46.9154L148.673 46.0612C148.594 45.2071 148.578 45.1913 147.724 44.6693C147.249 44.3846 146.758 44.1473 146.631 44.1473C146.505 44.1473 146.837 44.3688 147.344 44.6377C147.85 44.9224 148.325 45.2071 148.388 45.302C148.563 45.5867 148.452 47.3583 148.262 47.4215C148.151 47.4532 148.04 47.3266 147.993 47.121C147.755 46.251 146.188 44.9224 145.397 44.9382C145.238 44.954 145.397 45.0489 145.745 45.1755C146.362 45.3969 147.724 46.6465 147.724 46.9945C147.724 47.0735 147.47 47.2792 147.154 47.4215C146.679 47.6588 146.584 47.6588 146.457 47.469C146.331 47.2634 146.283 47.2792 146.093 47.5322C145.903 47.8011 145.745 47.817 144.874 47.7379C144.32 47.6746 143.909 47.6746 143.972 47.7221C144.019 47.7853 144.478 47.8644 144.985 47.9277L145.903 48.0226L145.951 48.7818C146.014 49.6992 145.808 49.9998 145.112 49.9998C144.732 49.9998 144.32 49.7783 143.481 49.114C142.357 48.2124 141.882 47.5164 142.231 47.1684C142.341 47.0577 142.326 46.9786 142.136 46.8995C141.993 46.8521 141.866 46.7097 141.866 46.599C141.866 46.2985 143.117 45.2704 143.687 45.1122C143.956 45.0331 144.035 44.954 143.877 44.954C143.481 44.9382 142.246 45.6658 141.882 46.1403C141.55 46.5674 141.233 46.6465 141.233 46.2985C141.233 45.9505 142.199 44.7484 142.8 44.3529C143.37 43.9733 143.339 43.8626 142.769 44.1631C141.914 44.6218 141.075 45.8398 141.075 46.6623C141.075 47.1526 141.043 47.1843 140.663 47.0894C140.299 46.9945 140.268 47.0103 140.378 47.3424C140.616 48.1175 141.122 49.0507 141.645 49.6518C141.946 49.9998 142.183 50.3161 142.183 50.3636C142.183 50.3952 141.645 50.6325 140.98 50.8697C138.526 51.7713 136.389 53.2582 134.854 55.1404C133.556 56.738 132.954 58.209 132.764 60.1862L132.653 61.3883H133.746H134.854L134.949 59.9964C135.06 58.2406 135.36 57.4023 136.294 56.2318C137.814 54.3654 140.521 52.6096 142.895 51.9769C143.814 51.7397 147.233 51.3759 148.341 51.4075C149.053 51.4392 150.763 52.056 151.839 52.6887C154.942 54.5236 157.317 57.6554 157.633 60.3285L157.744 61.1985L156.889 61.3567C155.259 61.6572 153.486 61.8628 150.446 62.1159C146.505 62.4481 135.139 62.3532 132.052 61.9736C130.96 61.8312 129.155 61.6098 128.031 61.4674C126.638 61.2934 125.15 61.2143 123.393 61.2618L120.797 61.3092L120.892 60.7556C121.034 59.9647 121.477 58.6044 122.886 54.6659C124.406 50.3794 125.261 47.4532 125.878 44.4953C126.147 43.2615 126.353 42.2176 126.353 42.2018C126.353 42.186 126.876 42.1543 127.509 42.1543C129.345 42.1227 135.313 41.7905 137.038 41.6165C140.378 41.2844 144.542 41.142 150.098 41.142C156.098 41.142 157.158 41.2211 160.388 41.9171C161.211 42.1069 162.113 42.2492 162.366 42.2492C162.635 42.2492 163.079 42.3916 163.364 42.5656C163.664 42.7554 163.838 42.8187 163.791 42.7079C163.728 42.613 163.759 42.4707 163.87 42.4074C164.028 42.3125 163.981 42.1543 163.633 41.7431C162.762 40.6991 161.907 40.367 159.121 39.9715C151.618 38.9118 144.13 38.8485 135.06 39.8133C132.416 40.0822 127.54 40.8731 127.081 41.0787C126.369 41.4267 126.084 41.9803 125.783 43.5463C125.166 46.8679 124.169 50.237 122.396 54.9823C121.968 56.1053 121.303 58.035 120.892 59.2688C120.29 61.1352 120.1 61.5307 119.768 61.6888C119.166 61.9577 119.071 61.9103 119.071 61.2934C119.071 60.7398 119.705 57.5921 120.037 56.564C120.116 56.2951 120.496 54.9981 120.908 53.6536C122.427 48.4813 124.564 42.6921 125.419 41.4109C125.926 40.6517 126.654 40.0981 127.778 39.6394C128.332 39.4179 128.902 39.3546 130.437 39.3546C132.163 39.3546 132.369 39.323 132.274 39.1016C131.624 37.6305 131.292 35.7641 131.498 34.815C131.609 34.3247 131.894 34.1191 132.954 33.8027C133.302 33.692 133.318 33.692 133.239 35.2421C133.176 36.6973 133.192 36.7131 133.302 35.6692C133.382 35.0365 133.524 34.2772 133.635 33.9451C133.746 33.6287 133.793 33.344 133.746 33.2966C133.714 33.2491 133.302 33.3756 132.843 33.5496C132.242 33.7869 131.957 33.8344 131.814 33.7078C131.704 33.6129 131.34 33.5813 130.975 33.6445C130.089 33.7869 127.857 33.4389 127.018 33.0435C126.084 32.6006 125.562 31.7623 124.438 28.931C122.506 24.0908 121.446 20.9115 120.955 18.5547C120.575 16.7041 120.559 14.1733 120.908 13.0028C121.525 10.8833 123.979 9.5546 128.728 8.76373C130.801 8.43156 137.814 8.39993 141.629 8.73209C143.07 8.84282 146.315 8.93772 149.148 8.93772C153.327 8.95354 154.372 8.90609 155.559 8.66882C157.696 8.24175 160.847 8.13103 162.113 8.4632C163.174 8.73209 163.554 8.71628 162.809 8.43156C161.527 7.94122 159.454 7.81468 157.459 8.0994ZM154.926 39.7026C157.633 40.0032 161.037 40.4935 161.654 40.6675C162.303 40.8415 163.474 41.7589 163.284 41.9329C163.142 42.0594 160.704 41.7273 159.865 41.4742C158.171 40.968 157.079 40.9047 149.386 40.9047C140.917 40.9047 134.363 41.0629 133.002 41.3002C132.226 41.4425 131.45 41.5216 127.825 41.8538C127.034 41.9171 126.828 41.9012 126.828 41.7114C126.828 41.4425 127.43 41.2053 128.648 40.9996C130.706 40.6517 135.392 40.0348 137.276 39.8608C138.368 39.7659 139.793 39.6235 140.442 39.5603C142.183 39.3705 152.9 39.4812 154.926 39.7026ZM141.835 47.5322C141.803 47.6904 141.724 47.7379 141.566 47.643C141.439 47.5481 141.392 47.3899 141.455 47.2159C141.582 46.8837 141.93 47.1526 141.835 47.5322ZM147.834 47.6588C148.198 48.1175 148.198 48.9084 147.866 49.3829C147.613 49.7467 147.423 49.8416 146.932 49.8416C146.22 49.8416 146.077 49.6201 146.236 48.6236C146.315 48.0384 146.425 47.896 146.837 47.7062C147.47 47.4373 147.644 47.4215 147.834 47.6588ZM141.708 48.1333C142.547 48.7027 143.386 50.3161 142.848 50.3161C142.658 50.3161 141.518 49.1614 141.202 48.6553C140.663 47.7695 140.853 47.5639 141.708 48.1333ZM143.608 49.5252C143.94 49.7783 143.972 49.8574 143.798 50.0314C143.624 50.2054 143.529 50.1738 143.275 49.8574C142.737 49.1931 142.927 49.0033 143.608 49.5252ZM145.824 50.5534C145.824 50.6799 145.729 50.7906 145.602 50.7906C145.333 50.7906 145.159 50.5692 145.302 50.411C145.492 50.2212 145.824 50.3161 145.824 50.5534ZM149.069 50.5534C154.356 51.4075 157.459 54.2388 158.884 59.5219C159.169 60.6133 159.248 60.724 159.533 60.4551C160.023 59.9489 164.582 59.427 165.453 59.7749C165.786 59.9015 165.896 60.1071 166.055 60.9296C166.181 61.4832 166.371 62.369 166.482 62.891C166.973 65.0105 167.084 66.007 167.099 68.4429C167.115 70.9579 167.115 70.9895 166.688 71.638C165.691 73.1248 162.588 73.9474 156.667 74.2637C141.692 75.102 134.806 75.1337 126.907 74.4219C121.43 73.9157 120.148 73.4886 119.562 71.9385C119.182 70.9579 119.451 67.0193 120.1 63.8242C120.496 61.847 120.544 61.7521 121.493 61.6098C122.934 61.4041 125.862 61.5307 129.44 61.9419C133.967 62.4639 137.26 62.6537 142.025 62.6379C145.745 62.6379 147.359 62.5588 151.918 62.1792C154.34 61.9894 157.348 61.5623 157.712 61.3725C158.155 61.1511 157.807 59.4902 156.952 57.7503C156.319 56.4691 155.987 56.0262 154.689 54.745C152.457 52.5147 150.256 51.3601 147.866 51.1703C147.185 51.107 146.615 51.0121 146.615 50.9488C146.615 50.8065 147.264 50.3319 147.486 50.3319C147.581 50.3161 148.293 50.4268 149.069 50.5534ZM144.874 50.7115C144.874 50.9804 144.843 50.9963 144.494 50.8539C144.13 50.7115 144.178 50.4743 144.558 50.4743C144.732 50.4743 144.874 50.585 144.874 50.7115ZM146.299 50.8855C146.299 51.0121 146.236 51.0754 146.141 51.0279C146.061 50.9804 145.982 50.8697 145.982 50.7748C145.982 50.6957 146.061 50.6325 146.141 50.6325C146.236 50.6325 146.299 50.7432 146.299 50.8855ZM143.497 51.0595C144.067 51.3442 144.098 51.3442 142.421 51.8188C140.363 52.404 138.384 53.6061 136.753 55.267C135.345 56.6747 134.79 57.8136 134.632 59.6484L134.506 60.9929L133.951 61.0403C132.97 61.1036 132.891 60.9612 133.192 59.4902C133.524 57.9243 133.999 56.8487 134.98 55.5517C136.373 53.7169 138.637 52.1193 141.075 51.2335C142.484 50.7274 142.816 50.7115 143.497 51.0595Z" fill="#112250"></path><path d="M163.396 8.86103C163.396 8.94012 163.523 9.05084 163.697 9.11411C164.172 9.25647 165.343 10.5219 165.802 11.3444C166.515 12.6888 166.626 13.543 166.42 16.058C166.198 18.6362 165.961 19.87 165.217 22.0844C164.726 23.5396 163.65 27.1618 162.763 30.3095C162.304 31.9861 161.813 32.6979 160.895 33.1091C160.151 33.4413 160.072 33.4413 147.281 33.3306C135.567 33.2357 134.412 33.2515 134.317 33.4888C134.269 33.6311 134.364 33.8684 134.57 34.074C134.966 34.4853 134.38 34.4694 145.746 34.3429L153.028 34.2638L143.846 34.1847C135.029 34.1056 134.665 34.0898 134.617 33.8051C134.554 33.5204 134.902 33.5204 147.519 33.5679L160.468 33.6311L161.133 33.2673C161.513 33.0775 161.987 32.6504 162.209 32.3183C162.605 31.733 162.716 31.3692 163.808 27.4623C164.125 26.3235 164.694 24.4412 165.074 23.2707C166.103 20.0914 166.23 19.5852 166.483 17.3392C166.768 14.84 166.784 13.5272 166.531 12.5465C166.23 11.3127 165.359 10.0157 164.346 9.27228C163.555 8.68704 163.396 8.62377 163.396 8.86103Z" fill="#112250"></path><path d="M162.877 10.1396C162.719 10.7881 162.07 12.9709 161.421 14.9955C159.395 21.275 159.126 22.4455 158.841 26.4631C158.777 27.4913 158.667 28.3612 158.619 28.4087C158.572 28.4561 153.126 28.4245 146.525 28.3138C139.908 28.2189 133.434 28.1714 132.104 28.2347L129.714 28.3296L129.555 27.8867C129.27 27.08 127.418 22.9517 127.355 23.0149C127.323 23.0308 127.513 23.5844 127.782 24.2329C128.052 24.8814 128.558 26.0993 128.906 26.9535L129.524 28.5036L129.223 28.899C128.764 29.4685 128.653 30.6706 128.954 31.6987C129.239 32.6952 129.524 32.9957 130.062 32.8534C130.853 32.6636 130.933 31.6354 130.284 29.769C130.094 29.1996 130.046 28.8516 130.157 28.7409C130.505 28.3929 154.472 28.5194 157.828 28.899L158.651 28.9939V29.7374C158.651 31.4456 159.252 32.4421 160.265 32.4421C160.82 32.4421 160.899 32.3947 161.12 31.8727C161.579 30.7655 160.978 29.4526 159.711 28.8199L158.952 28.4403L159.047 27.7127C159.094 27.3173 159.173 26.1626 159.205 25.1661C159.237 24.1696 159.379 22.8251 159.521 22.1924C159.806 20.8321 161.326 16.1976 161.896 14.9481C162.308 14.0465 162.561 13.1449 163.004 11.0095C163.368 9.30124 163.242 8.542 162.877 10.1396ZM160.281 29.5634C161.437 30.6548 161.104 32.6003 159.838 32.1258C159.284 31.9202 158.967 31.0977 158.967 29.8955V28.9307L159.411 29.0414C159.648 29.0888 160.028 29.3261 160.281 29.5634ZM130.062 30.1328C130.505 31.6513 130.331 32.8534 129.73 32.4738C129.175 32.11 128.891 29.9272 129.35 29.3894C129.65 29.0256 129.777 29.1679 130.062 30.1328Z" fill="#112250"></path><path d="M167.158 10.5688C168.234 12.7833 168.234 15.836 167.126 19.8537C166.287 22.9064 165.416 26.5444 164.751 29.8345C164.609 30.5304 164.356 31.4478 164.182 31.8907C163.96 32.476 163.944 32.6183 164.118 32.4443C164.34 32.2229 164.989 29.8503 165.21 28.4109C165.4 27.3037 166.065 24.6147 167.474 19.2368C168.155 16.6427 168.345 13.669 167.949 12.0873C167.68 11.0434 166.968 9.50907 166.762 9.50907C166.683 9.50907 166.873 9.98359 167.158 10.5688Z" fill="#112250"></path><path d="M163.401 33.1234C163.18 33.3132 162.816 33.5979 162.61 33.7402C162.388 33.8826 162.293 34.0091 162.388 34.0091C162.483 34.025 162.879 33.7402 163.259 33.3923C163.639 33.0601 163.924 32.7754 163.876 32.7754C163.829 32.7754 163.623 32.9336 163.401 33.1234Z" fill="#112250"></path><path d="M161.782 34.1354C161.893 34.1829 162.036 34.167 162.083 34.1196C162.147 34.0721 162.052 34.0247 161.877 34.0405C161.703 34.0405 161.656 34.088 161.782 34.1354Z" fill="#112250"></path><path d="M160.6 34.2946C160.742 34.3263 160.996 34.3263 161.154 34.2946C161.296 34.2472 161.17 34.2155 160.869 34.2155C160.568 34.2155 160.441 34.2472 160.6 34.2946Z" fill="#112250"></path><path d="M154.509 34.4528C154.873 34.4845 155.443 34.4845 155.775 34.4528C156.092 34.4212 155.791 34.3896 155.094 34.3896C154.398 34.3896 154.129 34.4212 154.509 34.4528Z" fill="#112250"></path><path d="M159.315 34.6086C159.031 34.751 158.761 35.0199 158.714 35.2255C158.587 35.7317 158.397 35.7 157.907 35.1306C157.701 34.8617 157.432 34.6561 157.337 34.6561C157.242 34.6561 157.321 34.7668 157.527 34.9091C158.097 35.3046 158.334 36.0955 158.35 37.6139L158.382 39.0059L158.508 37.5032C158.698 35.3204 158.777 35.1148 159.6 34.6877C159.98 34.4979 160.202 34.3397 160.075 34.3397C159.949 34.3397 159.6 34.4663 159.315 34.6086Z" fill="#112250"></path><path d="M144.372 43.7829C144.562 43.8145 144.878 43.8145 145.084 43.7829C145.274 43.7513 145.116 43.7196 144.72 43.7196C144.324 43.7196 144.166 43.7513 144.372 43.7829Z" fill="#112250"></path><path d="M165.002 44.3541C164.986 44.5123 164.891 44.6705 164.781 44.7179C164.622 44.7654 164.606 45.0343 164.701 45.8568C164.765 46.442 164.891 47.5492 164.986 48.3401C165.081 49.1152 165.319 50.7444 165.54 51.9781C165.92 54.1925 166.126 55.1732 167.028 59.4598C168.231 65.1066 169.039 71.4968 168.77 73.2842C168.501 75.1823 167.313 79.0417 166.854 79.5004C166.648 79.7061 166.728 79.105 167.266 76.416C167.947 73.0469 167.962 72.9678 167.836 72.7938C167.772 72.6673 167.614 72.6989 167.345 72.9046C166.664 73.4107 165.857 73.8378 164.97 74.1225C163.831 74.4863 163.752 74.597 164.353 74.9134C164.733 75.1032 165.065 75.1506 165.556 75.0716L166.253 74.9766V76.6058C166.253 78.2192 165.984 79.6902 165.62 80.1489C165.509 80.2597 165.081 80.4653 164.654 80.5918C163.514 80.9398 158.607 81.4302 154.539 81.62C152.576 81.7149 149.204 81.873 147.019 81.9838C144.851 82.0945 140.497 82.1894 137.363 82.1894C132.108 82.1736 131.427 82.1419 128.657 81.7623C127.01 81.5409 125.443 81.272 125.206 81.1771C124.604 80.9398 123.987 80.2439 123.987 79.801C123.987 79.5321 123.923 79.4688 123.686 79.5321C123.449 79.5953 123.1 79.2474 122.103 77.9978C120.235 75.6726 119.934 74.945 120.757 74.7394C121.264 74.6128 121.913 75.1823 122.578 76.3369C122.831 76.764 123.037 77.0487 123.037 76.9538C123.037 76.8589 122.752 76.3369 122.404 75.7992C121.676 74.6919 121.185 74.3756 120.583 74.6445C119.713 75.0399 120.172 75.989 122.673 78.9785C123.306 79.7219 123.828 80.402 123.828 80.4811C123.828 80.5444 123.955 80.6867 124.129 80.7658C124.288 80.8607 124.652 81.0505 124.937 81.2087C125.491 81.5251 128.245 81.968 131.648 82.2843C134.846 82.5848 146.655 82.3476 156.438 81.794C162.406 81.446 165.667 80.8291 165.999 79.9591C166.079 79.7535 166.142 79.7219 166.284 79.8642C166.759 80.3388 167.108 79.9117 167.788 77.9345C168.326 76.3211 168.738 74.771 168.944 73.4107C169.134 72.177 168.944 69.6304 168.406 65.7393C168.089 63.4932 167.44 60.1399 166.728 56.9606C166.253 54.8252 165.825 52.4684 165.477 50.08C164.606 44.0219 165.113 44.623 166.458 51.2663C167.693 57.4035 168.152 59.7761 168.231 60.5986C168.295 61.0731 168.469 62.2436 168.627 63.2085C169.26 66.8939 169.466 68.7604 169.482 71.4177C169.498 73.7429 169.45 74.344 169.134 75.6252C168.58 77.9029 167.535 80.9398 167.202 81.2403C166.664 81.7307 165.255 81.9205 160.839 82.0945C158.464 82.1894 154.349 82.3792 151.689 82.5057C149.03 82.6323 145.373 82.8063 143.537 82.8854C140.149 83.0435 133.105 82.9961 126.994 82.7588C121.343 82.5374 121.106 82.3476 119.206 76.6058C118.858 75.5461 118.541 74.6919 118.494 74.7394C118.351 74.8817 119.871 79.2632 120.52 80.5444C120.757 81.0505 121.232 81.6516 121.549 81.9205C122.673 82.8379 122.863 82.8695 132.614 83.3915C136.334 83.5971 144.455 83.5022 148.207 83.2175C149.378 83.1384 152.132 82.9961 154.301 82.917C162.818 82.5848 165.889 82.3159 166.997 81.7781C167.725 81.4302 167.82 81.2403 168.564 78.7886C169.783 74.771 169.989 72.9204 169.656 69.2191C169.355 65.8184 169.023 62.9712 168.706 61.1522C168.564 60.3613 168.279 58.7005 168.057 57.4351C167.519 54.3507 166.854 51.0449 166.189 48.1819C165.635 45.7935 165.018 43.8321 165.002 44.3541ZM167.234 75.6252C166.633 78.4881 166.395 78.8045 166.443 76.6217C166.49 74.7552 166.379 74.5179 165.635 74.8185C165.129 75.0399 164.464 74.9134 164.559 74.6287C164.591 74.5338 164.923 74.3598 165.303 74.2332C165.683 74.1067 166.332 73.8062 166.728 73.5689C167.123 73.3316 167.503 73.1893 167.567 73.2525C167.646 73.3158 167.487 74.3756 167.234 75.6252Z" fill="#112250"></path><path d="M144.46 44.8903C144.603 44.922 144.824 44.922 144.935 44.8903C145.03 44.8429 144.919 44.8112 144.65 44.8112C144.397 44.8112 144.302 44.8429 144.46 44.8903Z" fill="#112250"></path><path d="M143.055 47.467C143.23 47.5461 143.483 47.6094 143.609 47.6094C143.752 47.6094 143.736 47.5461 143.53 47.467C143.356 47.3879 143.103 47.3247 142.976 47.3247C142.834 47.3247 142.85 47.3879 143.055 47.467Z" fill="#112250"></path><path d="M117.511 68.443C117.511 68.617 117.558 68.6644 117.606 68.5379C117.653 68.4272 117.638 68.2848 117.59 68.2374C117.543 68.1741 117.495 68.269 117.511 68.443Z" fill="#112250"></path><path d="M117.367 70.0884C117.367 70.3889 117.399 70.5155 117.446 70.3573C117.478 70.2149 117.478 69.9619 117.446 69.8037C117.399 69.6613 117.367 69.7879 117.367 70.0884Z" fill="#112250"></path><path d="M117.511 71.4469C117.511 71.6209 117.558 71.6683 117.606 71.5418C117.653 71.4311 117.638 71.2887 117.59 71.2413C117.543 71.178 117.495 71.2729 117.511 71.4469Z" fill="#112250"></path><path d="M117.68 72.1433C117.68 72.3648 117.711 72.4438 117.759 72.3331C117.79 72.2382 117.79 72.0484 117.759 71.9377C117.711 71.8428 117.68 71.9219 117.68 72.1433Z" fill="#112250"></path><path d="M117.905 72.8567C117.953 73.0307 118.079 73.4736 118.159 73.8374C118.238 74.217 118.349 74.5176 118.38 74.5176C118.523 74.5176 118.254 73.3313 118.016 72.9358C117.874 72.6986 117.826 72.6669 117.905 72.8567Z" fill="#112250"></path><path d="M123.211 77.522C123.211 77.6485 123.274 77.9016 123.353 78.0756C123.433 78.2812 123.496 78.297 123.496 78.1547C123.496 78.0281 123.433 77.775 123.353 77.6011C123.274 77.3954 123.211 77.3796 123.211 77.522Z" fill="#112250"></path></svg> 