<?xml version="1.0" encoding="UTF-8"?> <svg xmlns="http://www.w3.org/2000/svg" width="40" height="10" viewBox="0 0 40 10" fill="none"><path d="M5.80593 3.28295C5.77993 2.86695 5.68027 2.47262 5.50693 2.09995C5.3336 1.72729 5.08227 1.42395 4.75293 1.18995C4.4236 0.955952 4.00327 0.838952 3.49193 0.838952C2.9546 0.838952 2.54293 0.990619 2.25693 1.29395C1.97093 1.59729 1.82793 1.95262 1.82793 2.35995C1.82793 2.72395 1.93193 3.03162 2.13993 3.28295C2.34793 3.52562 2.6166 3.74229 2.94593 3.93295C3.28393 4.11495 3.63927 4.29262 4.01193 4.46595C4.34127 4.61329 4.6706 4.77362 4.99993 4.94695C5.32927 5.11162 5.62827 5.30229 5.89693 5.51895C6.1656 5.73562 6.37793 5.99562 6.53393 6.29895C6.6986 6.59362 6.78093 6.94895 6.78093 7.36495C6.78093 7.84162 6.6596 8.26629 6.41693 8.63895C6.18293 9.01162 5.8406 9.30629 5.38993 9.52295C4.93927 9.73095 4.38893 9.83495 3.73893 9.83495C3.34893 9.83495 2.94593 9.77862 2.52993 9.66595C2.11393 9.55329 1.7456 9.38862 1.42493 9.17195L1.48993 9.73095H0.813934L0.735934 6.96195H1.24293C1.28627 7.72462 1.5506 8.30529 2.03593 8.70395C2.52127 9.09395 3.10627 9.28895 3.79093 9.28895C4.12893 9.28895 4.44093 9.22829 4.72693 9.10695C5.01293 8.97695 5.23827 8.79062 5.40293 8.54795C5.57627 8.30529 5.66293 8.01062 5.66293 7.66395C5.66293 7.27395 5.55893 6.94895 5.35093 6.68895C5.14293 6.42895 4.87427 6.20362 4.54493 6.01295C4.2156 5.82229 3.8646 5.64029 3.49193 5.46695C3.1626 5.31962 2.8376 5.16362 2.51693 4.99895C2.19627 4.83429 1.9016 4.64795 1.63293 4.43995C1.37293 4.22329 1.1606 3.96762 0.995934 3.67295C0.839934 3.37829 0.761934 3.02295 0.761934 2.60695C0.761934 2.38162 0.800934 2.13895 0.878934 1.87895C0.956934 1.61895 1.09127 1.37195 1.28193 1.13795C1.48127 0.895286 1.74993 0.700286 2.08793 0.552953C2.4346 0.396953 2.87227 0.318953 3.40093 0.318953C3.73027 0.318953 4.0986 0.366619 4.50593 0.461953C4.92193 0.548619 5.3076 0.721953 5.66293 0.981953L5.61093 0.422953H6.27393V3.28295H5.80593ZM14.8849 3.26995C14.8762 2.75862 14.8242 2.33395 14.7289 1.99595C14.6336 1.65795 14.4646 1.40662 14.2219 1.24195C13.9879 1.06862 13.6456 0.986286 13.1949 0.994953H12.0899L12.0769 8.07995C12.0769 8.31395 12.0726 8.51762 12.0639 8.69095C12.0639 8.85562 12.0552 8.99429 12.0379 9.10695C12.2199 9.09829 12.3976 9.08962 12.5709 9.08095C12.7529 9.07229 12.9349 9.06362 13.1169 9.05495V9.62695H10.0619V9.19795C10.3912 9.18062 10.6122 9.10262 10.7249 8.96395C10.8462 8.82529 10.9112 8.63895 10.9199 8.40495C10.9372 8.16229 10.9459 7.89362 10.9459 7.59895L10.9589 1.00795L9.61991 1.02095C9.07391 1.02095 8.68824 1.20295 8.46291 1.56695C8.23758 1.93095 8.12491 2.49862 8.12491 3.26995H7.64391L7.72191 0.526953H15.3009L15.3789 3.26995H14.8849ZM18.7603 9.62695V9.19795C19.0897 9.18062 19.3107 9.10262 19.4233 8.96395C19.5447 8.82529 19.6097 8.63895 19.6183 8.40495C19.6357 8.16229 19.6443 7.89362 19.6443 7.59895L19.6573 6.11695L17.3953 2.54195C17.1787 2.19529 17.014 1.90495 16.9013 1.67095C16.7973 1.43695 16.728 1.23762 16.6933 1.07295C16.5547 1.08162 16.4203 1.08595 16.2903 1.08595C16.1603 1.08595 16.026 1.09029 15.8873 1.09895V0.526953H19.2413V0.955952C18.8427 0.955952 18.5653 1.01662 18.4093 1.13795C18.2533 1.25929 18.1927 1.42829 18.2273 1.64495C18.2707 1.85295 18.379 2.09562 18.5523 2.37295L19.5923 4.01095C19.6703 4.13229 19.7527 4.25795 19.8393 4.38795C19.926 4.51795 20.0127 4.65229 20.0993 4.79095C20.1947 4.92095 20.2943 5.05962 20.3983 5.20695H20.4243C20.5197 5.01629 20.615 4.83429 20.7103 4.66095C20.8057 4.47895 20.8967 4.30562 20.9833 4.14095L22.0883 2.04795C22.1317 1.96129 22.1837 1.86162 22.2443 1.74895C22.3137 1.62762 22.3873 1.50629 22.4653 1.38495C22.5433 1.25495 22.6257 1.14662 22.7123 1.05995C22.5477 1.06862 22.3787 1.07729 22.2053 1.08595C22.032 1.08595 21.8587 1.09029 21.6853 1.09895V0.526953H24.3373V0.955952C23.9127 0.981953 23.5617 1.12929 23.2843 1.39795C23.0157 1.66662 22.7297 2.07829 22.4263 2.63295C22.1317 3.18762 21.8457 3.72062 21.5683 4.23195C21.2997 4.74329 21.0397 5.24162 20.7883 5.72695C20.7883 5.88295 20.784 6.09095 20.7753 6.35095C20.7753 6.61095 20.7753 6.87529 20.7753 7.14395C20.7753 7.40395 20.7753 7.62495 20.7753 7.80695C20.7753 7.98895 20.7753 8.07995 20.7753 8.07995C20.7753 8.31395 20.771 8.51762 20.7623 8.69095C20.7623 8.85562 20.7537 8.99429 20.7363 9.10695C20.9183 9.09829 21.096 9.08962 21.2693 9.08095C21.4513 9.07229 21.6333 9.06362 21.8153 9.05495V9.62695H18.7603ZM24.9196 9.62695V9.19795C25.2489 9.18062 25.4743 9.10695 25.5956 8.97695C25.7169 8.83829 25.7819 8.65195 25.7906 8.41795C25.8079 8.17529 25.8166 7.90229 25.8166 7.59895V1.98295C25.8166 1.80962 25.8209 1.64495 25.8296 1.48895C25.8383 1.32429 25.8469 1.17695 25.8556 1.04695C25.6996 1.05562 25.5436 1.06429 25.3876 1.07295C25.2316 1.08162 25.0756 1.09029 24.9196 1.09895V0.526953H27.8446V0.955952C27.5239 0.964619 27.2986 1.03829 27.1686 1.17695C27.0473 1.31562 26.9779 1.50195 26.9606 1.73595C26.9519 1.96995 26.9476 2.24295 26.9476 2.55495V8.13195C26.9476 8.36595 26.9433 8.56529 26.9346 8.72995C26.9346 8.89462 26.9259 9.03329 26.9086 9.14595L29.3396 9.10695C29.8856 9.09829 30.2973 8.92495 30.5746 8.58695C30.8606 8.24895 31.0036 7.69862 31.0036 6.93595H31.4456L31.3676 9.62695H24.9196ZM36.9592 6.25995C36.9592 5.87862 36.9072 5.60562 36.8032 5.44095C36.6992 5.27629 36.5345 5.17662 36.3092 5.14195C36.0839 5.10729 35.7849 5.09862 35.4122 5.11595L34.4632 5.15495V8.13195C34.4632 8.36595 34.4589 8.56529 34.4502 8.72995C34.4502 8.89462 34.4415 9.03329 34.4242 9.14595L36.9072 9.10695C37.2885 9.09829 37.6179 9.03762 37.8952 8.92495C38.1725 8.80362 38.3892 8.59562 38.5452 8.30095C38.7012 8.00629 38.7792 7.60329 38.7792 7.09195H39.2212L39.1432 9.62695H32.4352V9.19795C32.7645 9.18062 32.9899 9.10695 33.1112 8.97695C33.2325 8.83829 33.2975 8.65195 33.3062 8.41795C33.3235 8.17529 33.3322 7.90229 33.3322 7.59895V1.98295C33.3322 1.80962 33.3365 1.64495 33.3452 1.48895C33.3539 1.32429 33.3625 1.17695 33.3712 1.04695C33.2152 1.05562 33.0592 1.06429 32.9032 1.07295C32.7472 1.08162 32.5912 1.09029 32.4352 1.09895V0.526953H38.6882L38.7532 2.80195H38.3242C38.3242 2.29062 38.2462 1.90495 38.0902 1.64495C37.9342 1.37629 37.7219 1.19862 37.4532 1.11195C37.1932 1.01662 36.8985 0.973286 36.5692 0.981953L35.4512 1.00795C35.1305 1.01662 34.9009 1.07729 34.7622 1.18995C34.6235 1.30262 34.5369 1.47162 34.5022 1.69695C34.4762 1.91362 34.4632 2.19962 34.4632 2.55495V4.63495L36.9072 4.64795L36.8162 3.52995H37.3882V6.25995H36.9592Z" fill="white"></path></svg> 