<?xml version="1.0" encoding="UTF-8"?> <svg xmlns="http://www.w3.org/2000/svg" width="354" height="285" viewBox="0 0 354 285" fill="none"><g filter="url(#filter0_d_1598_936)"><rect x="5.21484" y="0.601562" width="343.394" height="273.702" rx="10.6671" fill="#FFFCF9"></rect></g><path d="M115.95 66.0658L114.26 65.8098C113.577 65.7074 113.099 65.3148 112.826 64.6321C112.622 64.0177 112.519 63.5739 112.519 63.3009C112.519 63.2326 112.553 63.0278 112.622 62.6864C112.656 62.3792 112.861 62.2256 113.236 62.2256C113.441 62.2256 113.577 62.2427 113.646 62.2768C114.055 62.2768 114.26 62.3792 114.26 62.584L114.209 62.9937C114.141 63.847 114.362 64.5468 114.874 65.0929C115.011 65.2295 115.13 65.2978 115.233 65.2978C115.506 65.2978 115.796 65.1441 116.103 64.8369C116.274 64.7345 116.752 64.2908 117.537 63.5057C118.663 62.2768 119.875 60.4677 121.172 58.0782C122.196 56.2008 123.067 54.3234 123.784 52.446C124.842 49.8859 126.122 46.5407 127.624 42.4104C128.58 39.782 129.655 37.1366 130.85 34.4741C131.259 33.689 131.583 33.1428 131.822 32.8356C131.993 32.5625 132.198 32.3236 132.437 32.1188C132.573 31.9822 132.778 31.9139 133.051 31.9139C133.222 31.9139 133.376 31.9481 133.512 32.0163C134.4 32.4942 134.895 32.7673 134.997 32.8356C135.441 33.0745 135.748 33.45 135.919 33.962C136.123 34.5423 136.192 35.225 136.123 36.0101C136.123 36.8976 136.021 38.1777 135.816 39.8503L135.151 46.4042L134.792 50.1419L134.536 52.7532C134.331 54.8013 134.229 56.3715 134.229 57.4638L134.28 58.7951C134.451 60.6384 134.69 62.0037 134.997 62.8912C135.031 63.1302 135.151 63.4203 135.355 63.7617C135.389 63.83 135.475 63.847 135.611 63.8129L136.123 63.3521C136.396 63.0449 136.721 62.5328 137.096 61.816C138.154 59.8021 138.991 57.6345 139.605 55.3133C139.673 55.1085 140.22 53.1628 141.244 49.4763L141.346 49.1691C141.414 48.9984 141.5 48.9472 141.602 49.0155C141.943 49.0837 142.148 49.1691 142.216 49.2715C142.285 49.3739 142.285 49.5787 142.216 49.8859C142.012 50.8758 141.602 52.3095 140.988 54.1869L140.629 55.4157L139.195 59.7167C138.82 60.7066 138.479 61.5088 138.171 62.1232C137.932 62.6694 137.608 63.1814 137.199 63.6593L136.738 64.1713C136.499 64.4102 136.192 64.5297 135.816 64.5297L134.792 64.4273C134.041 64.3249 133.41 63.9153 132.898 63.1985C132.181 62.2768 131.737 61.1504 131.566 59.8191C131.532 59.546 131.515 58.9316 131.515 57.9758C131.481 57.8052 131.464 57.4468 131.464 56.9006C131.498 55.2963 131.6 53.6919 131.771 52.0876L132.078 49.0667L132.232 47.6842C132.232 47.5818 132.266 47.1551 132.334 46.4042C132.437 45.6532 132.505 45.09 132.539 44.7145C132.573 44.4755 132.71 43.3662 132.949 41.3863L133.307 38.1094C133.376 37.5291 133.461 36.4368 133.563 34.8325V34.5765C133.563 34.4399 133.529 34.0644 133.461 33.45C133.461 33.2793 133.376 33.2281 133.205 33.2964C133 33.4329 132.693 33.7572 132.283 34.2692C132.044 34.6106 131.686 35.2762 131.208 36.2661C130.389 38.0753 129.331 40.7036 128.033 44.1513L127.573 45.4825C125.968 49.9542 124.705 53.3506 123.784 55.6717C122.862 58.027 121.787 60.2799 120.558 62.4304C120.182 63.1473 119.687 63.83 119.073 64.4785C118.424 65.1953 117.759 65.6562 117.076 65.861C116.803 65.9975 116.428 66.0658 115.95 66.0658ZM143.918 58.0782L142.024 57.1566C141.58 56.9177 141.188 56.491 140.846 55.8766C140.437 55.1256 140.232 54.1015 140.232 52.8044C140.232 51.0294 140.676 49.3397 141.563 47.7354C141.836 47.3599 142.178 46.9674 142.587 46.5578L142.997 46.2505C143.133 46.114 143.355 46.0457 143.662 46.0457C143.833 46.0457 144.004 46.0969 144.174 46.1993C144.277 46.2676 144.413 46.3871 144.584 46.5578C144.209 46.6943 143.901 47.0015 143.662 47.4794C142.946 48.7424 142.519 49.9883 142.382 51.2172C142.28 51.8316 142.229 52.4631 142.229 53.1116C142.229 53.214 142.263 53.6749 142.331 54.4941C142.468 55.3133 142.707 56.0302 143.048 56.6446C143.253 57.0201 143.475 57.2078 143.714 57.2078L144.123 57.1054C144.772 56.9689 145.369 56.5422 145.915 55.8254C146.53 55.0061 146.905 54.0845 147.042 53.0604C147.212 52.2753 147.264 51.7121 147.195 51.3708C147.195 51.0977 147.076 50.9441 146.837 50.9099H146.735C146.052 50.8758 145.096 50.5345 143.867 49.8859L143.765 49.7835C143.355 49.5446 143.15 49.2885 143.15 49.0155C143.15 48.7424 143.27 48.4864 143.509 48.2474C143.884 47.7695 144.328 47.5306 144.84 47.5306C145.045 47.5306 145.284 47.5818 145.557 47.6842C145.864 47.7866 146.427 48.0597 147.247 48.5034C147.656 48.7424 147.981 49.0496 148.219 49.4251C148.322 49.6299 148.493 49.7152 148.731 49.6811L150.165 49.3739C151.838 49.0325 153.067 48.8448 153.852 48.8107C154.227 48.8107 154.534 48.8789 154.773 49.0155L155.388 49.3739C155.456 49.4421 155.49 49.4934 155.49 49.5275L155.337 49.6811C153.493 50.0224 152.401 50.2102 152.06 50.2443C151.309 50.3467 150.268 50.5345 148.936 50.8075C148.731 50.9441 148.629 51.0977 148.629 51.2684C148.595 52.2241 148.424 53.2311 148.117 54.2893C147.605 55.6205 147.161 56.5251 146.786 57.003C146.479 57.4126 146.12 57.7198 145.711 57.9246C145.403 58.1294 145.062 58.2319 144.687 58.2319C144.448 58.2319 144.192 58.1807 143.918 58.0782ZM146.223 50.0395H146.581C146.922 50.0395 147.025 49.8688 146.888 49.5275L146.683 49.1691C146.479 48.8277 146.291 48.657 146.12 48.657C146.018 48.657 145.847 48.7253 145.608 48.8619C145.267 49.0667 145.062 49.3056 144.994 49.5787C144.994 49.7494 145.062 49.8518 145.199 49.8859C145.711 49.9883 146.052 50.0395 146.223 50.0395ZM154.508 61.8672L153.432 61.5088C153.159 61.4064 153.006 61.2528 152.972 61.048C152.972 61.0138 152.955 60.9456 152.92 60.8432C152.886 60.7408 152.869 60.6554 152.869 60.5872L152.818 59.3071C152.818 58.9657 152.835 58.7439 152.869 58.6415V58.4879C152.835 57.771 152.938 56.491 153.176 54.6477C153.347 52.941 153.467 51.8828 153.535 51.4732C153.569 50.927 153.706 49.5958 153.944 47.4794L154.252 44.7657C154.32 44.4243 154.405 43.7587 154.508 42.7688C154.576 42.3933 154.661 42.2056 154.764 42.2056C154.866 42.2056 155.037 42.2738 155.276 42.4104C155.446 42.4787 155.532 42.5981 155.532 42.7688C155.668 43.076 155.754 43.5539 155.788 44.2025C155.788 47.6159 155.771 49.5446 155.737 49.9883C155.737 50.159 155.822 50.2102 155.993 50.1419C157.119 49.4934 157.938 48.9131 158.45 48.401C159.44 47.5135 160.242 46.6431 160.857 45.7897L161.01 45.6361C161.147 45.4996 161.283 45.4825 161.42 45.5849C161.591 45.6873 161.676 45.8068 161.676 45.9433L161.522 46.4554L161.369 46.9162C160.413 48.7936 159.065 50.176 157.324 51.0635C157.256 51.1318 157 51.2513 156.556 51.422C156.283 51.5926 156.146 51.8316 156.146 52.1388L156.3 52.6508C156.812 53.9138 157.58 55.0403 158.604 56.0302C158.775 56.1667 158.945 56.235 159.116 56.235H159.526C160.038 56.235 160.447 56.1667 160.754 56.0302C161.574 55.6547 162.29 55.1427 162.905 54.4941C163.519 53.8455 164.339 52.7191 165.363 51.1148L166.745 49.1691C166.882 48.9301 167.086 48.8789 167.359 49.0155L167.615 49.1691C167.684 49.2373 167.701 49.3227 167.667 49.4251L167.513 49.7835L166.95 50.7051L166.387 51.5756C164.919 53.6578 164.1 54.8184 163.929 55.0573C163.314 55.8083 162.7 56.3715 162.086 56.747C161.471 57.0201 160.976 57.1566 160.601 57.1566C160.123 57.1566 159.662 57.0542 159.218 56.8494C157.716 56.1667 156.624 55.2792 155.941 54.1869C155.907 54.0845 155.856 54.0333 155.788 54.0333C155.72 53.965 155.668 53.965 155.634 54.0333L155.583 54.2381C155.549 55.0232 155.481 56.5934 155.378 58.9487C155.344 59.9045 155.259 60.6554 155.122 61.2016L154.969 61.6112C154.866 61.816 154.713 61.9013 154.508 61.8672ZM180.379 59.2559L178.894 58.5391C178.69 58.4025 178.399 58.1294 178.024 57.7198C177.751 57.2078 177.546 56.7811 177.409 56.4398C176.932 54.8013 176.693 53.0604 176.693 51.2172C176.693 49.7494 176.71 48.8107 176.744 48.401C176.778 47.9914 176.829 47.4965 176.897 46.9162C177 46.3017 177.051 45.9433 177.051 45.8409L177.102 45.0217L177.051 44.7657C176.812 45.0046 176.556 45.363 176.283 45.8409C175.873 46.5236 175.327 47.6159 174.645 49.1179L172.545 54.0333C171.965 55.3304 171.265 56.5422 170.446 57.6686C170.344 57.8393 170.071 58.1465 169.627 58.5903C169.388 58.8292 169.098 58.9487 168.756 58.9487C168.517 58.9487 168.296 58.8975 168.091 58.7951C167.169 58.3513 166.606 58.0782 166.401 57.9758C165.787 57.7028 165.343 57.259 165.07 56.6446C164.763 55.9278 164.609 55.1768 164.609 54.3917C164.609 53.8455 164.677 53.1799 164.814 52.3948C165.087 51.0977 165.428 50.0566 165.838 49.2715C166.828 47.3258 168.108 46.0287 169.678 45.3801C170.327 45.107 170.873 44.9705 171.316 44.9705C171.897 44.9705 172.528 45.1582 173.211 45.5337L174.184 46.0969C174.389 46.1993 174.508 46.1823 174.542 46.0457L174.901 45.3801C175.378 44.4585 175.771 43.827 176.078 43.4856L176.385 43.1272C176.556 42.9565 176.71 42.8712 176.846 42.8712C176.983 42.8712 177.119 42.9053 177.256 42.9736C177.324 43.0077 177.461 43.0931 177.666 43.2296C177.904 43.332 178.109 43.4344 178.28 43.5368C178.519 43.6392 178.69 43.827 178.792 44.1001C178.928 44.3731 178.997 44.7316 178.997 45.1753L179.048 46.1481C179.048 46.2505 179.014 46.7114 178.946 47.5306L178.843 50.1419C178.775 51.3025 178.741 51.9681 178.741 52.1388C178.741 53.8797 178.997 55.5352 179.509 57.1054C179.543 57.1737 179.577 57.259 179.611 57.3614C179.645 57.498 179.679 57.5833 179.714 57.6174C179.816 57.8905 179.935 58.027 180.072 58.027H180.123C180.157 57.9929 180.209 57.9588 180.277 57.9246C180.345 57.8564 180.413 57.8052 180.482 57.771C180.96 57.3614 181.352 56.9347 181.659 56.491C182.205 55.7059 182.735 54.733 183.247 53.5725C183.349 53.3335 183.946 52.2583 185.039 50.3467C185.448 49.5616 185.704 49.1179 185.807 49.0155C185.909 48.9131 186.046 48.896 186.216 48.9643L186.933 49.3227C187.104 49.3909 187.155 49.5104 187.087 49.6811L186.779 50.3979C185.994 52.0705 185.124 53.8626 184.168 55.7741C184.1 55.9448 183.776 56.508 183.195 57.4638C183.093 57.7028 182.735 58.1294 182.12 58.7439C181.915 58.9487 181.693 59.1023 181.454 59.2047C181.25 59.3071 181.062 59.3583 180.891 59.3583C180.823 59.3583 180.652 59.3242 180.379 59.2559ZM168.142 57.0542L168.449 56.7982C169.2 56.1838 169.9 55.3304 170.548 54.2381C171.368 52.8386 172.016 51.6097 172.494 50.5515L173.979 47.2746C174.013 47.2405 174.03 47.1381 174.03 46.9674C174.03 46.626 173.842 46.4042 173.467 46.3017C173.16 46.3017 172.955 46.3188 172.852 46.353C172.102 46.4554 171.402 46.7796 170.753 47.3258C169.388 48.4864 168.5 50.0054 168.091 51.8828C167.954 52.4289 167.852 52.9751 167.783 53.5213C167.681 54.0674 167.63 54.6136 167.63 55.1597C167.63 55.8424 167.698 56.4398 167.835 56.9518C167.869 57.0883 167.971 57.1225 168.142 57.0542ZM198.295 63.9153L196.298 63.3009C196.093 63.2326 195.906 63.1131 195.735 62.9425C195.394 62.7035 195.223 62.3792 195.223 61.9696C195.223 61.56 195.36 61.2186 195.633 60.9456C195.94 60.7749 196.162 60.7066 196.298 60.7408C196.503 60.8432 196.776 60.9285 197.118 60.9968C197.288 61.065 197.339 61.1845 197.271 61.3552C197.135 61.6624 197.1 61.9355 197.169 62.1744C197.169 62.2768 197.203 62.328 197.271 62.328L197.425 62.2768C197.8 61.9013 198.039 61.5088 198.142 61.0992C198.244 60.6896 198.295 60.4506 198.295 60.3823C198.363 59.29 198.398 58.6756 198.398 58.5391C198.398 57.9246 198.381 57.5321 198.346 57.3614C198.278 57.0883 198.159 57.0371 197.988 57.2078L197.681 57.4638L196.657 58.4879C196.588 58.5561 196.554 58.6073 196.554 58.6415C196.349 58.9487 196.093 59.017 195.786 58.8463L194.199 58.3343C193.687 58.1636 193.414 57.8052 193.38 57.259C193.243 56.7129 193.209 55.8595 193.277 54.6989C193.277 53.0946 193.397 51.3196 193.636 49.3739L193.789 47.4794C193.824 47.377 193.806 47.2234 193.738 47.0186C193.465 47.3941 193.209 47.9061 192.97 48.5546L192.561 49.5275C191.912 51.3025 191.298 52.7532 190.717 53.8797C190.342 54.6989 189.949 55.484 189.54 56.235C189.335 56.6787 188.959 57.1737 188.413 57.7198C188.208 57.9246 187.969 57.9758 187.696 57.8734L186.211 57.3614C185.836 57.1907 185.597 56.9006 185.495 56.491C185.358 56.2179 185.29 55.8083 185.29 55.2621C185.256 54.4429 185.29 53.3847 185.392 52.0876C185.426 51.6097 185.563 50.5345 185.802 48.8619L185.904 48.5546C185.904 48.5205 185.921 48.4864 185.955 48.4522C186.024 48.4181 186.075 48.4181 186.109 48.4522C186.211 48.4864 186.433 48.5546 186.775 48.657C187.048 48.7595 187.218 48.8619 187.287 48.9643C187.355 49.0667 187.372 49.2544 187.338 49.5275L187.184 51.6268L187.133 53.6237C187.133 53.6919 187.167 54.3746 187.236 55.6717C187.304 56.0472 187.389 56.3203 187.492 56.491C187.56 56.5251 187.662 56.4739 187.799 56.3374C188.14 56.0643 188.498 55.6376 188.874 55.0573C189.318 54.3405 189.659 53.6919 189.898 53.1116C190.512 51.8145 191.076 50.4662 191.588 49.0667C192.134 47.4282 192.714 46.1311 193.329 45.1753L193.841 44.3049C193.977 44.1342 194.148 44.0659 194.353 44.1001L195.889 44.7145C196.23 44.851 196.452 45.1241 196.554 45.5337V45.9945C196.554 46.882 196.537 47.4453 196.503 47.6842C196.469 48.401 196.332 49.9542 196.093 52.3436C195.991 53.5725 195.94 54.8354 195.94 56.1326C195.94 56.4739 195.957 56.6958 195.991 56.7982C195.991 56.9689 196.076 57.003 196.247 56.9006L197.22 56.3374C197.459 56.2008 197.698 56.1326 197.937 56.1326C198.107 56.1326 198.295 56.1667 198.5 56.235L198.858 56.3886C199.609 56.5592 200.156 57.0542 200.497 57.8734C200.804 58.6927 200.958 59.529 200.958 60.3823C200.958 60.8944 200.906 61.4064 200.804 61.9184C200.702 62.3963 200.48 62.8571 200.138 63.3009C199.695 63.7446 199.234 63.9665 198.756 63.9665C198.517 63.9665 198.363 63.9494 198.295 63.9153ZM214.889 58.4367L213.199 57.9758C212.824 57.8734 212.431 57.515 212.021 56.9006C211.646 56.2862 211.39 55.6205 211.253 54.9037C211.151 54.4941 211.049 53.6919 210.946 52.4972C210.878 51.6097 210.844 50.5515 210.844 49.3227C210.844 49.2203 210.844 49.1008 210.844 48.9643C210.844 48.8277 210.844 48.6912 210.844 48.5546C210.844 48.4181 210.844 48.3328 210.844 48.2986C210.775 48.2304 210.707 48.2645 210.639 48.401L210.332 49.0667C209.239 51.4561 208.045 53.5725 206.748 55.4157C206.27 56.0302 205.979 56.3886 205.877 56.491C205.672 56.6958 205.416 56.747 205.109 56.6446L204.034 56.3374C203.556 56.235 203.215 55.9448 203.01 55.4669C202.737 54.7501 202.566 54.0503 202.498 53.3676L202.447 51.8828C202.447 51.7462 202.481 51.0294 202.549 49.7323C202.685 48.3669 202.839 47.377 203.01 46.7626C203.146 46.353 203.283 46.1481 203.419 46.1481C203.522 46.1481 203.71 46.1993 203.983 46.3017C204.256 46.4042 204.392 46.626 204.392 46.9674C204.46 48.6058 204.495 49.5446 204.495 49.7835C204.563 50.8758 204.682 52.19 204.853 53.7261C204.887 53.9309 204.955 54.3917 205.058 55.1085C205.058 55.1768 205.075 55.228 205.109 55.2621C205.177 55.2621 205.229 55.2451 205.263 55.2109C205.604 55.0061 205.911 54.6818 206.184 54.2381C206.833 53.4188 207.447 52.4631 208.028 51.3708C208.881 49.7664 209.734 47.9061 210.588 45.7897L211.1 44.4585C211.27 44.083 211.39 43.7246 211.458 43.3832C211.492 43.1101 211.612 42.7347 211.817 42.2568C211.851 42.1202 211.953 42.069 212.124 42.1032L213.199 42.4616C213.438 42.564 213.609 42.7347 213.711 42.9736C213.848 43.3491 213.882 43.8952 213.813 44.6121L213.609 47.633C213.54 48.9301 213.506 50.3809 213.506 51.9852C213.506 52.702 213.609 53.7773 213.813 55.2109C213.916 55.8936 214.104 56.5422 214.377 57.1566C214.479 57.3956 214.564 57.515 214.633 57.515C214.769 57.515 214.906 57.4468 215.042 57.3102C215.554 57.003 215.998 56.5934 216.374 56.0814C216.715 55.6376 217.346 54.6818 218.268 53.214C219.121 51.8486 219.685 50.8587 219.958 50.2443C220.128 49.8006 220.333 49.4592 220.572 49.2203C220.743 49.0496 220.896 48.9813 221.033 49.0155C221.579 49.152 221.903 49.2715 222.006 49.3739C221.733 49.92 221.494 50.3297 221.289 50.6027C220.845 51.2172 220.401 51.9169 219.958 52.702L218.473 55.2621C217.756 56.4227 217.176 57.2249 216.732 57.6686L216.118 58.1807C215.742 58.4537 215.332 58.5391 214.889 58.4367ZM222.137 58.8463C221.42 58.6415 220.891 58.1636 220.55 57.4126C220.208 56.5934 220.038 55.8083 220.038 55.0573C219.969 52.7362 220.106 50.9953 220.447 49.8347C220.516 49.4934 220.635 49.1349 220.806 48.7595L221.113 48.3498C221.249 48.2133 221.369 48.1792 221.471 48.2474C222.12 48.4522 222.581 48.6741 222.854 48.9131C222.512 49.1861 222.256 49.7152 222.086 50.5003C221.949 51.0123 221.881 51.934 221.881 53.2652C221.881 53.7431 221.915 54.5282 221.983 55.6205C222.086 56.4056 222.291 57.0883 222.598 57.6686C222.7 57.9076 222.786 58.027 222.854 58.027C222.888 58.027 223.042 57.9417 223.315 57.771C223.758 57.4297 224.134 57.003 224.441 56.491C224.953 55.8083 225.397 55.0573 225.772 54.2381C226.728 52.2583 227.428 50.3638 227.872 48.5546C227.94 48.2816 227.974 48.128 227.974 48.0938C227.974 47.9914 227.94 47.9402 227.872 47.9402C227.667 47.9402 227.445 47.889 227.206 47.7866C227.001 47.6501 226.762 47.5135 226.489 47.377C226.25 47.2063 226.097 47.1039 226.028 47.0698C225.277 46.6602 224.902 45.9775 224.902 45.0217C224.834 43.9294 225.192 42.9224 225.977 42.0008C226.284 41.6936 226.489 41.5229 226.592 41.4887C226.831 41.3522 227.052 41.2839 227.257 41.2839C227.428 41.2839 227.616 41.3351 227.82 41.4375L228.742 42.0008C229.083 42.2056 229.305 42.5128 229.408 42.9224C229.544 43.2979 229.612 43.7416 229.612 44.2537C229.612 44.4243 229.578 44.8169 229.51 45.4313L229.459 45.8921C229.425 45.9604 229.425 46.0287 229.459 46.0969C229.527 46.1311 229.612 46.1311 229.715 46.0969C230.227 45.8921 230.722 45.602 231.2 45.2265C231.541 44.9876 231.746 44.8681 231.814 44.8681C231.917 44.8681 232.121 44.9705 232.429 45.1753C232.736 45.4142 232.941 45.5508 233.043 45.5849C233.384 45.7215 233.555 46.0287 233.555 46.5066C233.555 46.6772 233.555 46.9162 233.555 47.2234C233.555 47.5306 233.538 47.7695 233.504 47.9402L233.197 49.9883C233.06 50.8075 232.906 52.1047 232.736 53.8797C232.736 54.5282 232.77 55.1256 232.838 55.6717L232.889 55.9278C232.958 56.1667 233.077 56.2179 233.248 56.0814C234.033 55.7059 234.647 55.3304 235.091 54.9549C235.671 54.3746 236.166 53.8285 236.576 53.3164L238.573 50.7563L239.187 49.8859L239.648 49.2203C239.853 48.9472 240.041 48.8107 240.211 48.8107C240.348 48.8107 240.536 48.9131 240.775 49.1179C240.843 49.152 240.86 49.2373 240.826 49.3739C240.655 49.6811 240.467 49.9371 240.263 50.1419C239.546 50.8246 238.641 51.9511 237.549 53.5213C236.832 54.477 236.354 55.0915 236.115 55.3645C235.74 55.8083 235.211 56.3032 234.528 56.8494C234.152 57.1225 233.845 57.259 233.606 57.259C233.401 57.259 233.18 57.1907 232.941 57.0542C232.804 56.9518 232.463 56.7811 231.917 56.5422C230.995 56.0984 230.466 55.3133 230.329 54.1869C230.295 54.0162 230.278 53.5895 230.278 52.9068C230.278 52.2241 230.295 51.7974 230.329 51.6268C230.398 50.9441 230.551 49.8859 230.79 48.4522C230.79 48.4181 230.824 48.2474 230.893 47.9402C230.995 47.5989 231.063 47.3429 231.097 47.1722C231.097 47.1039 231.063 47.0527 230.995 47.0186C230.961 46.9844 230.927 46.9844 230.893 47.0186L229.305 47.633C229.169 47.6671 229.066 47.7866 228.998 47.9914L228.64 49.2715C228.093 51.3537 227.291 53.5213 226.233 55.7741C226.097 56.0472 225.909 56.3886 225.67 56.7982C225.465 57.1737 225.329 57.4468 225.26 57.6174C224.919 58.1636 224.629 58.5561 224.39 58.7951C224.083 59.1023 223.775 59.2559 223.468 59.2559C223.434 59.2559 223.28 59.2218 223.007 59.1535C222.734 58.9828 222.444 58.8804 222.137 58.8463ZM228.025 46.609C228.264 46.5407 228.401 46.3871 228.435 46.1481C228.537 45.602 228.588 45.0388 228.588 44.4585C228.588 44.0147 228.554 43.6222 228.486 43.2808C228.486 42.9395 228.367 42.7005 228.128 42.564C228.025 42.5981 227.837 42.7859 227.564 43.1272L227.462 43.332C227.052 44.1513 226.848 44.8852 226.848 45.5337C226.848 45.9433 226.882 46.2847 226.95 46.5578C226.95 46.6943 227.018 46.7626 227.155 46.7626C227.325 46.7626 227.616 46.7114 228.025 46.609Z" fill="black"></path><path d="M83.4758 112.654H81.6411V119.417H80.7024V105.187H83.4545C84.6634 105.187 85.659 105.514 86.4413 106.168C87.2235 106.808 87.6147 107.719 87.6147 108.899C87.6147 110.065 87.2378 110.983 86.484 111.651C85.7301 112.32 84.7274 112.654 83.4758 112.654ZM81.6411 106.04V111.801H83.5185C84.4572 111.801 85.211 111.545 85.7799 111.033C86.3488 110.506 86.6333 109.802 86.6333 108.921C86.6333 108.025 86.3417 107.32 85.7586 106.808C85.1897 106.296 84.3932 106.04 83.3692 106.04H81.6411ZM97.6266 115.171H90.1809C90.124 116.238 90.4441 117.12 91.141 117.817C91.8379 118.5 92.6699 118.841 93.6371 118.841C94.3198 118.841 94.9243 118.663 95.4505 118.308C95.9767 117.938 96.3821 117.454 96.6665 116.857L97.3919 117.284C97.0648 117.909 96.5883 118.464 95.9625 118.948C95.3367 119.417 94.5402 119.652 93.5731 119.652C92.2504 119.652 91.205 119.225 90.437 118.372C89.6689 117.504 89.2849 116.416 89.2849 115.107C89.2849 113.671 89.6974 112.547 90.5223 111.737C91.3614 110.926 92.357 110.521 93.5091 110.521C94.7038 110.521 95.6994 110.954 96.4959 111.822C97.2924 112.69 97.6693 113.806 97.6266 115.171ZM90.2449 114.361H96.7305C96.6168 113.479 96.2612 112.754 95.6638 112.185C95.0807 111.616 94.3624 111.331 93.5091 111.331C92.6415 111.331 91.909 111.623 91.3117 112.206C90.7143 112.775 90.3587 113.493 90.2449 114.361ZM107.129 111.63V112.761C106.304 111.808 105.301 111.331 104.121 111.331C103.068 111.331 102.201 111.694 101.518 112.419C100.835 113.131 100.494 114.027 100.494 115.107C100.494 116.274 100.857 117.191 101.582 117.86C102.307 118.514 103.139 118.841 104.078 118.841C105.23 118.841 106.283 118.322 107.235 117.284V118.436C106.325 119.246 105.266 119.652 104.057 119.652C102.748 119.652 101.674 119.225 100.835 118.372C100.01 117.504 99.5978 116.423 99.5978 115.129C99.5978 113.806 100.01 112.711 100.835 111.843C101.66 110.962 102.755 110.521 104.121 110.521C105.244 110.521 106.247 110.89 107.129 111.63ZM111.254 119.417V111.523H108.225V110.713H115.137V111.523H112.108V119.417H111.254ZM117.587 111.843C118.469 110.962 119.557 110.521 120.852 110.521C122.146 110.521 123.227 110.962 124.094 111.843C124.976 112.711 125.417 113.792 125.417 115.086C125.417 116.38 124.976 117.468 124.094 118.35C123.227 119.218 122.146 119.652 120.852 119.652C119.557 119.652 118.469 119.218 117.587 118.35C116.72 117.468 116.286 116.38 116.286 115.086C116.286 113.792 116.72 112.711 117.587 111.843ZM118.227 117.753C118.939 118.478 119.813 118.841 120.852 118.841C121.89 118.841 122.757 118.478 123.454 117.753C124.165 117.028 124.521 116.139 124.521 115.086C124.521 114.034 124.165 113.145 123.454 112.419C122.757 111.694 121.89 111.331 120.852 111.331C119.813 111.331 118.939 111.694 118.227 112.419C117.531 113.145 117.182 114.034 117.182 115.086C117.182 116.139 117.531 117.028 118.227 117.753ZM128.778 117.86V124.516H127.925V110.713H128.778V112.227C129.617 111.09 130.755 110.521 132.191 110.521C133.471 110.521 134.495 110.947 135.263 111.801C136.032 112.64 136.416 113.707 136.416 115.001C136.416 116.324 136.024 117.433 135.242 118.329C134.474 119.211 133.443 119.652 132.149 119.652C131.494 119.652 130.904 119.524 130.378 119.268C129.852 118.997 129.489 118.756 129.29 118.542C129.091 118.315 128.92 118.087 128.778 117.86ZM129.631 117.753C130.229 118.478 131.061 118.841 132.127 118.841C133.194 118.841 134.026 118.478 134.623 117.753C135.221 117.028 135.52 116.11 135.52 115.001C135.52 113.849 135.192 112.953 134.538 112.313C133.884 111.658 133.087 111.331 132.149 111.331C131.224 111.331 130.421 111.651 129.738 112.291C129.069 112.931 128.735 113.82 128.735 114.958C128.735 116.082 129.034 117.013 129.631 117.753ZM146.008 112.227V110.713H146.861V119.417H146.008V117.86C145.226 119.054 144.095 119.652 142.616 119.652C141.435 119.652 140.433 119.232 139.608 118.393C138.783 117.554 138.37 116.444 138.37 115.065C138.37 113.714 138.761 112.618 139.544 111.779C140.326 110.94 141.35 110.521 142.616 110.521C144.067 110.521 145.197 111.09 146.008 112.227ZM142.658 111.331C141.734 111.331 140.938 111.666 140.269 112.334C139.601 112.988 139.266 113.877 139.266 115.001C139.266 116.039 139.572 116.942 140.184 117.71C140.795 118.464 141.627 118.841 142.68 118.841C143.718 118.841 144.536 118.471 145.133 117.732C145.745 116.978 146.051 116.068 146.051 115.001C146.051 113.82 145.702 112.917 145.005 112.291C144.308 111.651 143.526 111.331 142.658 111.331ZM149.925 119.417V110.713H150.779V114.553H155.686V110.713H156.539V119.417H155.686V115.363H150.779V119.417H149.925ZM167.4 115.171H159.955C159.898 116.238 160.218 117.12 160.915 117.817C161.612 118.5 162.444 118.841 163.411 118.841C164.094 118.841 164.698 118.663 165.224 118.308C165.751 117.938 166.156 117.454 166.44 116.857L167.166 117.284C166.839 117.909 166.362 118.464 165.736 118.948C165.11 119.417 164.314 119.652 163.347 119.652C162.024 119.652 160.979 119.225 160.211 118.372C159.443 117.504 159.059 116.416 159.059 115.107C159.059 113.671 159.471 112.547 160.296 111.737C161.135 110.926 162.131 110.521 163.283 110.521C164.478 110.521 165.473 110.954 166.27 111.822C167.066 112.69 167.443 113.806 167.4 115.171ZM160.019 114.361H166.504C166.391 113.479 166.035 112.754 165.438 112.185C164.854 111.616 164.136 111.331 163.283 111.331C162.415 111.331 161.683 111.623 161.085 112.206C160.488 112.775 160.132 113.493 160.019 114.361ZM182.33 119.417H181.263L176.655 112.697H176.228V119.417H175.29V105.187H177.338C178.632 105.187 179.635 105.429 180.346 105.912C181.327 106.595 181.818 107.612 181.818 108.963C181.818 109.745 181.626 110.45 181.242 111.075C180.858 111.687 180.253 112.135 179.429 112.419C178.888 112.604 178.305 112.697 177.679 112.697L182.33 119.417ZM176.228 106.04V111.843H177.594C178.604 111.843 179.393 111.587 179.962 111.075C180.545 110.563 180.837 109.852 180.837 108.942C180.837 107.747 180.417 106.922 179.578 106.467C179.08 106.183 178.355 106.04 177.402 106.04H176.228ZM185.632 111.843C186.514 110.962 187.602 110.521 188.896 110.521C190.19 110.521 191.271 110.962 192.139 111.843C193.021 112.711 193.462 113.792 193.462 115.086C193.462 116.38 193.021 117.468 192.139 118.35C191.271 119.218 190.19 119.652 188.896 119.652C187.602 119.652 186.514 119.218 185.632 118.35C184.764 117.468 184.331 116.38 184.331 115.086C184.331 113.792 184.764 112.711 185.632 111.843ZM186.272 117.753C186.983 118.478 187.858 118.841 188.896 118.841C189.934 118.841 190.802 118.478 191.499 117.753C192.21 117.028 192.566 116.139 192.566 115.086C192.566 114.034 192.21 113.145 191.499 112.419C190.802 111.694 189.934 111.331 188.896 111.331C187.858 111.331 186.983 111.694 186.272 112.419C185.575 113.145 185.227 114.034 185.227 115.086C185.227 116.139 185.575 117.028 186.272 117.753ZM196.609 124.516L198.742 119.566L194.604 110.713H195.585L199.233 118.457L202.412 110.713H203.393L197.59 124.516H196.609ZM212.177 112.227V110.713H213.031V119.417H212.177V117.86C211.395 119.054 210.264 119.652 208.785 119.652C207.605 119.652 206.602 119.232 205.777 118.393C204.952 117.554 204.54 116.444 204.54 115.065C204.54 113.714 204.931 112.618 205.713 111.779C206.495 110.94 207.519 110.521 208.785 110.521C210.236 110.521 211.367 111.09 212.177 112.227ZM208.828 111.331C207.903 111.331 207.107 111.666 206.439 112.334C205.77 112.988 205.436 113.877 205.436 115.001C205.436 116.039 205.742 116.942 206.353 117.71C206.965 118.464 207.797 118.841 208.849 118.841C209.888 118.841 210.705 118.471 211.303 117.732C211.914 116.978 212.22 116.068 212.22 115.001C212.22 113.82 211.872 112.917 211.175 112.291C210.478 111.651 209.696 111.331 208.828 111.331ZM216.095 103.864H216.948V119.417H216.095V103.864ZM225.375 119.417V105.187H228.49C229.713 105.187 230.673 105.514 231.37 106.168C232.067 106.808 232.415 107.669 232.415 108.75C232.415 110.144 231.861 111.182 230.751 111.865C231.662 112.007 232.38 112.405 232.906 113.059C233.432 113.714 233.695 114.503 233.695 115.427C233.695 116.651 233.283 117.625 232.458 118.35C231.647 119.061 230.588 119.417 229.279 119.417H225.375ZM226.314 106.04V111.63H228.575C229.386 111.63 230.033 111.431 230.517 111.033C231.142 110.521 231.455 109.795 231.455 108.857C231.455 107.904 231.135 107.164 230.495 106.638C229.983 106.24 229.194 106.04 228.127 106.04H226.314ZM226.314 112.483V118.564H228.703C229.144 118.564 229.493 118.557 229.749 118.542C230.005 118.514 230.332 118.436 230.73 118.308C231.142 118.18 231.498 117.98 231.797 117.71C232.408 117.17 232.714 116.444 232.714 115.534C232.714 114.24 232.209 113.358 231.199 112.889C230.588 112.618 229.699 112.483 228.533 112.483H226.314ZM244.174 115.171H236.729C236.672 116.238 236.992 117.12 237.689 117.817C238.386 118.5 239.218 118.841 240.185 118.841C240.868 118.841 241.472 118.663 241.998 118.308C242.525 117.938 242.93 117.454 243.214 116.857L243.94 117.284C243.613 117.909 243.136 118.464 242.51 118.948C241.885 119.417 241.088 119.652 240.121 119.652C238.798 119.652 237.753 119.225 236.985 118.372C236.217 117.504 235.833 116.416 235.833 115.107C235.833 113.671 236.245 112.547 237.07 111.737C237.909 110.926 238.905 110.521 240.057 110.521C241.252 110.521 242.247 110.954 243.044 111.822C243.84 112.69 244.217 113.806 244.174 115.171ZM236.793 114.361H243.278C243.165 113.479 242.809 112.754 242.212 112.185C241.629 111.616 240.91 111.331 240.057 111.331C239.189 111.331 238.457 111.623 237.859 112.206C237.262 112.775 236.907 113.493 236.793 114.361ZM253.783 112.227V110.713H254.637V119.417H253.783V117.86C253.001 119.054 251.87 119.652 250.391 119.652C249.211 119.652 248.208 119.232 247.383 118.393C246.558 117.554 246.146 116.444 246.146 115.065C246.146 113.714 246.537 112.618 247.319 111.779C248.101 110.94 249.125 110.521 250.391 110.521C251.842 110.521 252.973 111.09 253.783 112.227ZM250.434 111.331C249.509 111.331 248.713 111.666 248.044 112.334C247.376 112.988 247.042 113.877 247.042 115.001C247.042 116.039 247.347 116.942 247.959 117.71C248.571 118.464 249.403 118.841 250.455 118.841C251.493 118.841 252.311 118.471 252.909 117.732C253.52 116.978 253.826 116.068 253.826 115.001C253.826 113.82 253.478 112.917 252.781 112.291C252.084 111.651 251.301 111.331 250.434 111.331ZM264.677 111.63V112.761C263.852 111.808 262.849 111.331 261.669 111.331C260.617 111.331 259.749 111.694 259.066 112.419C258.384 113.131 258.042 114.027 258.042 115.107C258.042 116.274 258.405 117.191 259.13 117.86C259.856 118.514 260.688 118.841 261.626 118.841C262.778 118.841 263.831 118.322 264.784 117.284V118.436C263.874 119.246 262.814 119.652 261.605 119.652C260.296 119.652 259.223 119.225 258.384 118.372C257.559 117.504 257.146 116.423 257.146 115.129C257.146 113.806 257.559 112.711 258.384 111.843C259.208 110.962 260.304 110.521 261.669 110.521C262.793 110.521 263.795 110.89 264.677 111.63ZM267.139 119.417V103.864H267.992V112.078C268.575 111.04 269.464 110.521 270.659 110.521C271.74 110.521 272.543 110.926 273.07 111.737C273.354 112.192 273.496 112.924 273.496 113.934V119.417H272.643V113.934C272.643 113.123 272.529 112.54 272.302 112.185C271.96 111.616 271.391 111.331 270.595 111.331C269.628 111.331 268.917 111.737 268.461 112.547C268.149 113.102 267.992 113.884 267.992 114.894V119.417H267.139ZM112.111 139.481H114.287C114.501 137.603 115.283 136.053 116.634 134.83C117.985 133.607 119.578 132.995 121.413 132.995C123.432 132.995 125.132 133.706 126.512 135.128C127.891 136.551 128.581 138.286 128.581 140.334C128.581 142.382 127.891 144.117 126.512 145.54C125.132 146.948 123.432 147.652 121.413 147.652C119.393 147.652 117.701 146.941 116.335 145.518C114.97 144.096 114.273 142.368 114.245 140.334H112.111V147.417H111.172V133.187H112.111V139.481ZM116.975 144.942C118.156 146.18 119.635 146.798 121.413 146.798C123.191 146.798 124.663 146.18 125.829 144.942C127.01 143.691 127.6 142.155 127.6 140.334C127.6 138.514 127.01 136.977 125.829 135.726C124.649 134.474 123.176 133.848 121.413 133.848C119.649 133.848 118.177 134.474 116.997 135.726C115.816 136.977 115.226 138.514 115.226 140.334C115.226 142.155 115.809 143.691 116.975 144.942ZM135.279 138.713H136.133V142.851L140.058 138.713H141.168L137.114 142.894L141.509 147.417H140.357L136.559 143.449L136.133 143.876V147.417H135.279V143.876L134.853 143.449L131.055 147.417H129.903L134.298 142.894L130.244 138.713H131.354L135.279 142.851V138.713ZM143.206 147.417V138.713H144.06V142.553H148.967V138.713H149.82V147.417H148.967V143.363H144.06V147.417H143.206ZM159.977 140.227V138.713H160.831V147.417H159.977V145.86C159.195 147.054 158.064 147.652 156.585 147.652C155.405 147.652 154.402 147.232 153.577 146.393C152.752 145.554 152.34 144.444 152.34 143.065C152.34 141.714 152.731 140.618 153.513 139.779C154.295 138.94 155.319 138.521 156.585 138.521C158.036 138.521 159.167 139.09 159.977 140.227ZM156.628 139.331C155.703 139.331 154.907 139.666 154.238 140.334C153.57 140.988 153.236 141.877 153.236 143.001C153.236 144.039 153.541 144.942 154.153 145.71C154.765 146.464 155.597 146.841 156.649 146.841C157.687 146.841 158.505 146.471 159.103 145.732C159.714 144.978 160.02 144.068 160.02 143.001C160.02 141.82 159.671 140.917 158.975 140.291C158.278 139.651 157.495 139.331 156.628 139.331ZM162.956 147.417L165.73 143.619C165.061 143.591 164.492 143.378 164.023 142.979C163.539 142.553 163.297 141.977 163.297 141.251C163.297 140.412 163.561 139.772 164.087 139.331C164.556 138.919 165.246 138.713 166.156 138.713H169.058V147.417H168.204V143.662H166.711L163.98 147.417H162.956ZM168.204 142.851V139.523H166.156C165.559 139.523 165.097 139.651 164.77 139.907C164.385 140.234 164.193 140.675 164.193 141.23C164.193 141.771 164.378 142.183 164.748 142.467C165.09 142.723 165.559 142.851 166.156 142.851H168.204ZM177.701 138.713H183.419V146.606H184.699V149.764H183.888V147.417H176.549V149.764H175.738V146.606C176.449 146.564 176.983 146.18 177.338 145.454C177.58 144.956 177.701 144.174 177.701 143.107V138.713ZM182.565 146.606V139.523H178.554V143.363C178.554 144.9 178.185 145.98 177.445 146.606H182.565ZM187.247 139.843C188.128 138.962 189.216 138.521 190.511 138.521C191.805 138.521 192.886 138.962 193.754 139.843C194.635 140.711 195.076 141.792 195.076 143.086C195.076 144.38 194.635 145.468 193.754 146.35C192.886 147.218 191.805 147.652 190.511 147.652C189.216 147.652 188.128 147.218 187.247 146.35C186.379 145.468 185.945 144.38 185.945 143.086C185.945 141.792 186.379 140.711 187.247 139.843ZM187.887 145.753C188.598 146.478 189.472 146.841 190.511 146.841C191.549 146.841 192.417 146.478 193.114 145.753C193.825 145.028 194.18 144.139 194.18 143.086C194.18 142.034 193.825 141.145 193.114 140.419C192.417 139.694 191.549 139.331 190.511 139.331C189.472 139.331 188.598 139.694 187.887 140.419C187.19 141.145 186.841 142.034 186.841 143.086C186.841 144.139 187.19 145.028 187.887 145.753ZM198.437 145.86V152.516H197.584V138.713H198.437V140.227C199.276 139.09 200.414 138.521 201.851 138.521C203.131 138.521 204.155 138.947 204.923 139.801C205.691 140.64 206.075 141.707 206.075 143.001C206.075 144.324 205.684 145.433 204.901 146.329C204.133 147.211 203.102 147.652 201.808 147.652C201.154 147.652 200.563 147.524 200.037 147.268C199.511 146.997 199.148 146.756 198.949 146.542C198.75 146.315 198.579 146.087 198.437 145.86ZM199.29 145.753C199.888 146.478 200.72 146.841 201.787 146.841C202.853 146.841 203.685 146.478 204.283 145.753C204.88 145.028 205.179 144.11 205.179 143.001C205.179 141.849 204.852 140.953 204.197 140.313C203.543 139.658 202.747 139.331 201.808 139.331C200.883 139.331 200.08 139.651 199.397 140.291C198.729 140.931 198.394 141.82 198.394 142.958C198.394 144.082 198.693 145.013 199.29 145.753ZM208.627 147.353C208.485 147.197 208.413 147.005 208.413 146.777C208.413 146.549 208.485 146.365 208.627 146.222C208.783 146.066 208.975 145.988 209.203 145.988C209.43 145.988 209.615 146.066 209.758 146.222C209.914 146.365 209.992 146.549 209.992 146.777C209.992 147.005 209.914 147.197 209.758 147.353C209.615 147.495 209.43 147.566 209.203 147.566C208.975 147.566 208.783 147.495 208.627 147.353ZM212.171 150.34L213.452 146.03L214.305 146.286L212.726 150.553L212.171 150.34ZM226.997 147.417V134.04H224.779L225.205 133.187H227.936V147.417H226.997ZM241.736 132.718V143.854H243.72V144.708H241.736V147.417H240.798V144.708H233.139L241.736 132.718ZM234.803 143.854H240.798V135.491L234.803 143.854Z" fill="black"></path><line x1="25.4824" y1="125.326" x2="320.736" y2="125.326" stroke="black" stroke-opacity="0.15" stroke-width="1.26714"></line><line x1="25.4824" y1="150.669" x2="320.736" y2="150.669" stroke="black" stroke-opacity="0.15" stroke-width="1.26714"></line><defs><filter id="filter0_d_1598_936" x="0.146291" y="0.601562" width="353.532" height="283.839" filterUnits="userSpaceOnUse" color-interpolation-filters="sRGB"><feFlood flood-opacity="0" result="BackgroundImageFix"></feFlood><feColorMatrix in="SourceAlpha" type="matrix" values="0 0 0 0 0 0 0 0 0 0 0 0 0 0 0 0 0 0 127 0" result="hardAlpha"></feColorMatrix><feOffset dy="5.06855"></feOffset><feGaussianBlur stdDeviation="2.53428"></feGaussianBlur><feComposite in2="hardAlpha" operator="out"></feComposite><feColorMatrix type="matrix" values="0 0 0 0 0 0 0 0 0 0 0 0 0 0 0 0 0 0 0.25 0"></feColorMatrix><feBlend mode="normal" in2="BackgroundImageFix" result="effect1_dropShadow_1598_936"></feBlend><feBlend mode="normal" in="SourceGraphic" in2="effect1_dropShadow_1598_936" result="shape"></feBlend></filter></defs></svg> 