<?xml version="1.0" encoding="UTF-8"?> <svg xmlns="http://www.w3.org/2000/svg" width="194" height="52" viewBox="0 0 194 52" fill="none"><path d="M42.8836 8.54316C42.8836 11.1401 42.308 13.9914 41.1568 17.097C39.952 20.4436 38.2921 23.4689 36.177 26.173C37.1944 26.4675 38.2653 26.6147 39.3898 26.6147C40.2465 26.6147 40.9693 26.4942 41.5583 26.2533C41.6387 26.173 41.7591 26.1328 41.9198 26.1328C42.0001 26.1328 42.0403 26.173 42.0403 26.2533C42.0403 26.8155 41.1166 27.0966 39.2693 27.0966C38.0645 27.0966 36.9133 26.936 35.8156 26.6147C31.2107 32.2905 25.7625 35.1284 19.4709 35.1284C18.0787 35.1284 16.0172 34.6331 13.2864 33.6425C10.7965 34.8473 8.40039 35.4497 6.09794 35.4497C4.7593 35.4497 3.60808 35.2757 2.64426 34.9276C1.35917 34.4457 0.71663 33.7095 0.71663 32.7189C0.71663 31.2196 2.14897 30.47 5.01364 30.47C6.88773 30.47 9.80595 31.2464 13.7683 32.7992C18.1323 30.3361 22.5497 25.9052 27.0208 19.5066L27.9444 18.1813C27.5161 16.8159 27.3019 15.3568 27.3019 13.804C27.3019 10.4574 28.2791 7.4321 30.2335 4.72806C32.2415 1.91693 34.5841 0.511362 37.2613 0.511362C38.359 0.511362 39.4165 0.966497 40.4339 1.87677C42.067 3.29572 42.8836 5.51785 42.8836 8.54316ZM41.8395 8.78412C41.8395 5.81235 41.0898 3.68392 39.5905 2.39883C38.6803 1.62243 37.7566 1.23422 36.8196 1.23422C34.4636 1.261 32.4824 2.67995 30.876 5.49108C29.4571 7.98094 28.7476 10.685 28.7476 13.6032C28.7476 14.5938 28.8413 15.5576 29.0287 16.4946C29.6177 15.3166 30.5548 13.6166 31.8399 11.3945C32.0005 11.1803 32.2147 11.0732 32.4824 11.0732C33.0446 11.0732 33.3257 11.274 33.3257 11.6756L32.3619 13.2819C31.4249 14.8347 30.4209 16.4009 29.35 17.9805C30.4477 22.0767 32.5092 24.7272 35.5345 25.932C39.7378 20.4704 41.8395 14.7544 41.8395 8.78412ZM35.1731 26.3738C32.0139 25.1958 29.7516 22.8799 28.3862 19.4263C25.3609 23.2012 23.2592 25.7044 22.0812 26.936C19.6181 29.5329 17.0613 31.5677 14.4109 33.0402C16.9543 34.004 18.7748 34.4859 19.8725 34.4859C25.7357 34.4859 30.8359 31.7818 35.1731 26.3738ZM12.6037 33.3614C11.1044 32.826 9.60516 32.2905 8.10589 31.7551C6.47275 31.2464 5.20105 30.992 4.29078 30.992C3.35374 30.992 2.56394 31.1928 1.9214 31.5944C1.41272 31.9157 1.15838 32.2236 1.15838 32.5181C1.15838 33.2945 1.73399 33.9103 2.88522 34.3654C3.76871 34.7135 4.69237 34.8875 5.65619 34.8875C8.11927 34.8875 10.4351 34.3788 12.6037 33.3614ZM48.7735 29.9479C48.7735 30.055 48.6396 30.2156 48.3719 30.4298C47.1939 31.4204 46.0025 31.9157 44.7977 31.9157C44.0481 31.9157 43.4055 31.7149 42.8701 31.3133C41.6386 32.9197 40.2999 33.7229 38.8542 33.7229C37.7833 33.7229 37.2478 33.0535 37.2478 31.7149C37.2478 29.9747 38.1046 28.2211 39.818 26.4541C41.2637 24.9816 42.3213 24.2453 42.9906 24.2453C43.4189 24.2453 43.6331 24.3792 43.6331 24.6469C43.6331 24.7272 43.5528 24.8343 43.3922 24.9682C42.7496 25.1021 41.8795 25.7848 40.7818 27.0163C39.4432 28.5156 38.7739 29.9613 38.7739 31.3535C38.7739 32.2638 39.0951 32.7189 39.7377 32.7189C40.6747 32.7189 41.6252 32.17 42.589 31.0724C42.0803 30.5101 41.826 29.8141 41.826 28.9841C41.826 28.0203 42.0669 27.1903 42.5488 26.4942C42.9772 25.9052 43.4323 25.6107 43.9142 25.6107C44.3961 25.6107 44.6773 25.9454 44.7576 26.6147C44.7576 27.7927 44.3426 29.0644 43.5126 30.4298C43.9678 30.9385 44.5835 31.1928 45.36 31.1928C46.4041 31.1928 47.4215 30.7645 48.412 29.9078C48.4924 29.8274 48.5727 29.7873 48.653 29.7873C48.7333 29.7873 48.7735 29.8408 48.7735 29.9479ZM44.356 26.8557C44.356 26.5879 44.2623 26.4541 44.0749 26.4541C43.8339 26.4541 43.5796 26.6683 43.3118 27.0966C43.0441 27.525 42.9103 28.0738 42.9103 28.7431C42.9103 29.3054 43.0307 29.7739 43.2717 30.1487C43.9945 29.0243 44.356 27.9266 44.356 26.8557ZM60.5184 29.9479C60.5184 30.3227 59.5546 31.0188 57.627 32.0362C55.6993 33.0535 53.3567 33.5622 50.5991 33.5622C49.0195 33.5622 48.1628 33.4016 48.029 33.0803C48.029 32.8929 48.1762 32.7992 48.4707 32.7992C48.8723 32.8795 49.1266 32.9197 49.2337 32.9197C50.5991 32.9197 52.0582 32.2236 53.6111 30.8314C55.0836 29.5196 55.8198 28.3951 55.8198 27.4581C55.8198 27.0565 55.5655 26.8557 55.0568 26.8557C52.5402 26.8557 49.796 29.2384 46.8242 34.004C46.5832 34.3788 45.1241 37.2167 42.4469 42.5177C39.7428 47.8454 38.3105 50.6967 38.1498 51.0716C37.9624 51.5267 37.7215 51.7543 37.427 51.7543C37.3199 51.7543 37.2396 51.7409 37.186 51.7141C37.0254 51.6606 36.9451 51.4999 36.9451 51.2322C36.9451 50.2684 42.9689 39.0239 55.0166 17.4986C55.2308 17.1238 55.4316 16.9364 55.619 16.9364C55.6458 16.9364 55.6993 16.9632 55.7796 17.0167C55.86 17.0703 55.9001 17.1773 55.9001 17.338C55.9001 17.6325 55.8198 17.8601 55.6592 18.0207C55.6324 18.101 54.5347 20.0822 52.3661 23.9642C50.3046 27.7124 49.2739 29.707 49.2739 29.9479C49.2739 29.9747 49.2873 30.0015 49.314 30.0282C49.3408 29.9747 49.4345 29.8676 49.5952 29.707C50.2377 28.9306 51.1212 28.1408 52.2457 27.3376C53.7449 26.3202 55.0568 25.8115 56.1812 25.8115C57.0112 25.8115 57.4262 26.1328 57.4262 26.7754C57.4262 28.7298 55.86 30.644 52.7276 32.5181C55.1103 32.5181 57.5868 31.648 60.157 29.9078C60.2373 29.8274 60.3176 29.7873 60.3979 29.7873C60.4783 29.7873 60.5184 29.8408 60.5184 29.9479ZM71.5198 29.9479C71.5198 30.055 71.3859 30.2156 71.1182 30.4298C69.9402 31.4204 68.7488 31.9157 67.544 31.9157C66.7944 31.9157 66.1519 31.7149 65.6164 31.3133C64.3849 32.9197 63.0462 33.7229 61.6005 33.7229C60.5296 33.7229 59.9941 33.0535 59.9941 31.7149C59.9941 29.9747 60.8509 28.2211 62.5643 26.4541C64.0101 24.9816 65.0676 24.2453 65.7369 24.2453C66.1653 24.2453 66.3794 24.3792 66.3794 24.6469C66.3794 24.7272 66.2991 24.8343 66.1385 24.9682C65.4959 25.1021 64.6258 25.7848 63.5281 27.0163C62.1895 28.5156 61.5202 29.9613 61.5202 31.3535C61.5202 32.2638 61.8415 32.7189 62.484 32.7189C63.4211 32.7189 64.3715 32.17 65.3353 31.0724C64.8266 30.5101 64.5723 29.8141 64.5723 28.9841C64.5723 28.0203 64.8132 27.1903 65.2951 26.4942C65.7235 25.9052 66.1786 25.6107 66.6605 25.6107C67.1425 25.6107 67.4236 25.9454 67.5039 26.6147C67.5039 27.7927 67.0889 29.0644 66.259 30.4298C66.7141 30.9385 67.3299 31.1928 68.1063 31.1928C69.1504 31.1928 70.1678 30.7645 71.1584 29.9078C71.2387 29.8274 71.319 29.7873 71.3993 29.7873C71.4796 29.7873 71.5198 29.8408 71.5198 29.9479ZM67.1023 26.8557C67.1023 26.5879 67.0086 26.4541 66.8212 26.4541C66.5802 26.4541 66.3259 26.6683 66.0582 27.0966C65.7904 27.525 65.6566 28.0738 65.6566 28.7431C65.6566 29.3054 65.777 29.7739 66.018 30.1487C66.7409 29.0243 67.1023 27.9266 67.1023 26.8557ZM77.2007 33.0402C76.7188 33.2008 76.2503 33.3347 75.7951 33.4417C75.3668 33.5488 74.9652 33.6024 74.5904 33.6024C74.2423 33.6024 73.9344 33.5355 73.6667 33.4016C73.4258 33.2677 73.2651 33.0268 73.1848 32.6787C73.1045 32.411 73.1848 32.0763 73.4258 31.6748C73.6935 31.2464 74.0282 30.8046 74.4297 30.3495C74.8313 29.8944 75.2463 29.4392 75.6747 28.9841C76.1298 28.5022 76.518 28.0738 76.8393 27.699C77.1873 27.2974 77.4283 26.9761 77.5621 26.7352C77.7228 26.4675 77.6826 26.3068 77.4417 26.2533C77.3078 26.0927 77.0267 26.1462 76.5983 26.4139C76.1967 26.6816 75.7148 27.0431 75.1526 27.4982C74.5904 27.9534 73.988 28.4353 73.3454 28.9439C72.7297 29.4526 72.1541 29.8542 71.6186 30.1487H71.5785C71.5249 30.1487 71.4714 30.0952 71.4178 29.9881C71.391 29.881 71.3777 29.8007 71.3777 29.7471C72.0202 29.3188 72.6895 28.8235 73.3856 28.2612C74.0817 27.699 74.7376 27.1636 75.3534 26.6549C75.9959 26.1462 76.5582 25.7178 77.0401 25.3698C77.522 25.0217 77.8834 24.8477 78.1244 24.8477C78.4456 24.7942 78.7 24.8879 78.8874 25.1288C79.1016 25.343 79.2354 25.5438 79.289 25.7312C79.3693 26.1864 79.2087 26.6683 78.8071 27.1769C78.4323 27.6856 77.8031 28.3416 76.9196 29.1447C76.4645 29.5463 76.0495 29.9881 75.6747 30.47C75.2999 30.9251 75.0321 31.3401 74.8715 31.7149C74.7109 32.063 74.6975 32.3441 74.8313 32.5583C74.9652 32.7457 75.3132 32.7858 75.8755 32.6787C76.4377 32.6787 76.9464 32.6252 77.4015 32.5181C77.8566 32.3842 78.3118 32.2102 78.7669 31.996C79.2488 31.7551 79.7575 31.474 80.293 31.1527C80.8552 30.8046 81.5111 30.4164 82.2607 29.9881C82.3143 29.9613 82.3545 29.9345 82.3812 29.9078C82.408 29.881 82.4482 29.8676 82.5017 29.8676C82.5285 29.8676 82.5419 29.9613 82.5419 30.1487C82.5419 30.3093 82.4749 30.4031 82.3411 30.4298C81.7521 30.8314 81.2702 31.1527 80.8953 31.3936C80.5205 31.6346 80.1591 31.8354 79.811 31.996C79.4898 32.1567 79.1283 32.3173 78.7268 32.4779C78.3519 32.6118 77.8433 32.7992 77.2007 33.0402ZM95.5308 29.9479C95.5308 30.1086 95.33 30.3227 94.9284 30.5905C91.6354 32.8126 89.4132 33.9237 88.262 33.9237C87.5124 33.9237 87.1376 33.4953 87.1376 32.6386C87.1376 32.1567 87.2313 31.6748 87.4187 31.1928C87.6864 30.5235 87.8203 30.1755 87.8203 30.1487C87.8203 30.0416 87.7801 29.9881 87.6998 29.9881C87.673 29.9881 87.6061 30.0148 87.499 30.0684C86.91 30.6574 86.0533 31.3669 84.9288 32.1968C83.4831 33.2677 82.4791 33.8032 81.9169 33.8032C81.2743 33.8032 80.9531 33.4819 80.9531 32.8394C80.9531 32.4645 81.4216 31.4338 82.3586 29.7471C83.2957 28.0337 83.7642 27.0431 83.7642 26.7754C83.7642 26.4809 83.5232 26.3336 83.0413 26.3336C82.9342 26.3336 82.8807 26.173 82.8807 25.8517C83.1217 25.7714 83.376 25.7312 83.6437 25.7312C84.5808 25.7312 85.0493 25.9989 85.0493 26.5344C85.0493 27.1234 84.6343 28.114 83.8044 29.5062C82.9744 30.8983 82.5594 31.7685 82.5594 32.1165C82.5594 32.3307 82.6531 32.4378 82.8405 32.4378C83.2689 32.4378 84.313 31.7283 85.9729 30.3093C87.6596 28.8904 88.9581 27.6053 89.8684 26.4541C90.27 26.0525 90.5645 25.8517 90.7519 25.8517C91.0999 25.8517 91.2739 26.0257 91.2739 26.3738C91.2739 26.5612 91.1802 26.8021 90.9928 27.0966C89.3865 29.5062 88.5833 31.0724 88.5833 31.7952C88.5833 32.4645 88.8912 32.7992 89.5069 32.7992C90.444 32.7992 92.144 31.9559 94.6071 30.2692C94.741 30.1621 94.9284 30.0416 95.1694 29.9078C95.2497 29.8274 95.33 29.7873 95.4103 29.7873C95.4906 29.7873 95.5308 29.8408 95.5308 29.9479ZM104.938 29.9479C104.938 30.1353 104.389 30.5771 103.291 31.2732C100.587 32.9866 98.6461 33.8433 97.4681 33.8433C95.7279 33.8433 94.8578 32.826 94.8578 30.7913C94.8578 29.292 95.5807 27.7927 97.0264 26.2934C98.4989 24.7674 99.8911 24.0044 101.203 24.0044C101.605 24.0044 101.805 24.1918 101.805 24.5666C101.805 25.4769 101.016 26.762 99.4359 28.4219C98.1776 29.7337 97.1469 30.6306 96.3437 31.1125C96.424 32.2905 96.9862 32.8795 98.0304 32.8795C99.021 32.8795 100.681 32.2102 103.01 30.8716C103.198 30.7645 103.72 30.4432 104.576 29.9078C104.657 29.8274 104.737 29.7873 104.817 29.7873C104.898 29.7873 104.938 29.8408 104.938 29.9479ZM100.56 25.3296C100.56 25.0084 100.467 24.8477 100.279 24.8477C99.61 24.8477 98.7934 25.517 97.8296 26.8557C96.8658 28.1943 96.3705 29.3991 96.3437 30.47C96.8524 30.3093 97.6556 29.6133 98.7532 28.3817C99.958 27.0431 100.56 26.0257 100.56 25.3296ZM117.595 33.0402C117.113 33.2008 116.645 33.3347 116.189 33.4417C115.761 33.5488 115.36 33.6024 114.985 33.6024C114.637 33.6024 114.329 33.5355 114.061 33.4016C113.82 33.2677 113.659 33.0268 113.579 32.6787C113.499 32.411 113.579 32.0763 113.82 31.6748C114.088 31.2464 114.422 30.8046 114.824 30.3495C115.226 29.8944 115.641 29.4392 116.069 28.9841C116.524 28.5022 116.912 28.0738 117.234 27.699C117.582 27.2974 117.823 26.9761 117.956 26.7352C118.117 26.4675 118.077 26.3068 117.836 26.2533C117.702 26.0927 117.421 26.1462 116.993 26.4139C116.591 26.6816 116.109 27.0431 115.547 27.4982C114.985 27.9534 114.382 28.4353 113.74 28.9439C113.124 29.4526 112.548 29.8542 112.013 30.1487H111.973C111.919 30.1487 111.866 30.0952 111.812 29.9881C111.785 29.881 111.772 29.8007 111.772 29.7471C112.415 29.3188 113.084 28.8235 113.78 28.2612C114.476 27.699 115.132 27.1636 115.748 26.6549C116.39 26.1462 116.952 25.7178 117.434 25.3698C117.916 25.0217 118.278 24.8477 118.519 24.8477C118.84 24.7942 119.094 24.8879 119.282 25.1288C119.496 25.343 119.63 25.5438 119.683 25.7312C119.764 26.1864 119.603 26.6683 119.201 27.1769C118.827 27.6856 118.197 28.3416 117.314 29.1447C116.859 29.5463 116.444 29.9881 116.069 30.47C115.694 30.9251 115.426 31.3401 115.266 31.7149C115.105 32.063 115.092 32.3441 115.226 32.5583C115.36 32.7457 115.708 32.7858 116.27 32.6787C116.832 32.6787 117.341 32.6252 117.796 32.5181C118.251 32.3842 118.706 32.2102 119.161 31.996C119.643 31.7551 120.152 31.474 120.687 31.1527C121.249 30.8046 121.905 30.4164 122.655 29.9881C122.709 29.9613 122.749 29.9345 122.776 29.9078C122.802 29.881 122.842 29.8676 122.896 29.8676C122.923 29.8676 122.936 29.9613 122.936 30.1487C122.936 30.3093 122.869 30.4031 122.735 30.4298C122.146 30.8314 121.664 31.1527 121.29 31.3936C120.915 31.6346 120.553 31.8354 120.205 31.996C119.884 32.1567 119.523 32.3173 119.121 32.4779C118.746 32.6118 118.238 32.7992 117.595 33.0402ZM133.837 29.9479C133.837 30.055 133.703 30.2156 133.435 30.4298C132.257 31.4204 131.066 31.9157 129.861 31.9157C129.111 31.9157 128.469 31.7149 127.933 31.3133C126.702 32.9197 125.363 33.7229 123.918 33.7229C122.847 33.7229 122.311 33.0535 122.311 31.7149C122.311 29.9747 123.168 28.2211 124.881 26.4541C126.327 24.9816 127.385 24.2453 128.054 24.2453C128.482 24.2453 128.696 24.3792 128.696 24.6469C128.696 24.7272 128.616 24.8343 128.456 24.9682C127.813 25.1021 126.943 25.7848 125.845 27.0163C124.507 28.5156 123.837 29.9613 123.837 31.3535C123.837 32.2638 124.159 32.7189 124.801 32.7189C125.738 32.7189 126.689 32.17 127.652 31.0724C127.144 30.5101 126.889 29.8141 126.889 28.9841C126.889 28.0203 127.13 27.1903 127.612 26.4942C128.041 25.9052 128.496 25.6107 128.978 25.6107C129.46 25.6107 129.741 25.9454 129.821 26.6147C129.821 27.7927 129.406 29.0644 128.576 30.4298C129.031 30.9385 129.647 31.1928 130.423 31.1928C131.467 31.1928 132.485 30.7645 133.475 29.9078C133.556 29.8274 133.636 29.7873 133.716 29.7873C133.797 29.7873 133.837 29.8408 133.837 29.9479ZM129.419 26.8557C129.419 26.5879 129.326 26.4541 129.138 26.4541C128.897 26.4541 128.643 26.6683 128.375 27.0966C128.107 27.525 127.974 28.0738 127.974 28.7431C127.974 29.3054 128.094 29.7739 128.335 30.1487C129.058 29.0243 129.419 27.9266 129.419 26.8557ZM142.53 29.9479C142.53 30.055 142.329 30.2692 141.927 30.5905C140.856 31.2865 139.799 31.9826 138.755 32.6787C137.229 33.589 135.984 34.0441 135.02 34.0441C134.458 34.0441 133.962 33.8433 133.534 33.4417C133.106 33.0402 132.892 32.585 132.892 32.0763C132.892 30.3093 133.748 28.6896 135.462 27.2171C136.988 25.9052 138.407 25.2493 139.719 25.2493C140.549 25.2493 140.963 25.584 140.963 26.2533C140.963 26.6281 140.415 27.3644 139.317 28.462C139.21 28.5691 139.089 28.6227 138.956 28.6227C138.741 28.6227 138.634 28.5022 138.634 28.2612C138.634 28.1541 138.674 28.0738 138.755 28.0203C138.835 27.94 138.996 27.6455 139.237 27.1368C139.478 26.6013 139.598 26.1997 139.598 25.932C139.598 25.8517 139.504 25.8115 139.317 25.8115C138.648 25.8115 137.67 26.3604 136.385 27.4581C134.833 28.7699 134.056 30.1219 134.056 31.5141C134.056 32.5315 134.498 33.0402 135.381 33.0402C136.747 33.0402 138.822 32.1165 141.606 30.2692C141.74 30.1621 141.927 30.0416 142.168 29.9078C142.249 29.8274 142.329 29.7873 142.409 29.7873C142.49 29.7873 142.53 29.8408 142.53 29.9479ZM166.739 29.9479C166.739 30.1086 166.538 30.3227 166.137 30.5905C164.236 31.8755 163.179 32.585 162.964 32.7189C161.76 33.4417 160.756 33.8032 159.952 33.8032C159.497 33.8032 159.109 33.6425 158.788 33.3213C158.493 33 158.346 32.6118 158.346 32.1567C158.346 30.818 159.203 28.9038 160.916 26.4139C161.05 26.2265 161.117 26.106 161.117 26.0525C161.117 26.0257 161.104 26.0123 161.077 26.0123C160.97 26.0123 160.782 26.106 160.515 26.2934C159.015 27.4179 157.355 28.6628 155.535 30.0282C154.759 30.6976 153.621 31.6346 152.121 32.8394C151.907 33 151.613 33.1472 151.238 33.2811C151.051 33.2811 150.957 33.1472 150.957 32.8795C150.957 32.3441 151.399 31.4873 152.282 30.3093C153.192 29.1046 153.647 28.2612 153.647 27.7793C153.647 27.3242 153.433 27.0966 153.005 27.0966C152.362 27.0966 151.077 27.9667 149.15 29.707C147.838 30.885 146.687 32.0228 145.696 33.1205C145.321 33.5221 145.027 33.7229 144.812 33.7229C144.464 33.7229 144.29 33.5355 144.29 33.1606C144.29 33.0535 144.384 32.7858 144.572 32.3575C145.214 31.474 145.843 30.5905 146.459 29.707C147.396 28.3683 147.865 27.4179 147.865 26.8557C147.865 26.6147 147.784 26.4942 147.624 26.4942C147.543 26.4942 147.383 26.5478 147.142 26.6549C145.776 27.6722 143.835 29.118 141.319 30.992H141.038C140.85 30.992 140.756 30.9653 140.756 30.9117C140.756 30.8314 140.904 30.6976 141.198 30.5101C143.072 29.0376 145.147 27.4447 147.423 25.7312C147.744 25.4635 148.159 25.3296 148.668 25.3296C149.203 25.3296 149.471 25.5706 149.471 26.0525C149.471 26.1596 149.444 26.3202 149.391 26.5344C148.855 27.4714 148.172 28.6628 147.342 30.1086C147.235 30.296 147.182 30.4164 147.182 30.47C147.182 30.4968 147.209 30.5101 147.262 30.5101L147.383 30.47C148.373 29.6133 149.364 28.7565 150.354 27.8998C151.88 26.6147 152.978 25.9722 153.647 25.9722C154.531 25.9722 154.973 26.2533 154.973 26.8155C154.973 27.2974 154.705 28.0337 154.17 29.0243C153.661 29.9881 153.407 30.5101 153.407 30.5905C153.407 30.6708 153.433 30.7109 153.487 30.7109C153.594 30.7109 153.781 30.6172 154.049 30.4298L162.402 24.1249C162.67 23.9107 162.951 23.8036 163.245 23.8036C163.433 23.8036 163.567 23.8437 163.647 23.9241C163.727 23.9776 163.768 24.0847 163.768 24.2453C163.768 24.4327 163.714 24.5934 163.607 24.7272C162.857 25.7982 162.094 26.8824 161.318 27.9801C160.408 29.3723 159.952 30.5771 159.952 31.5944C159.952 32.237 160.3 32.5449 160.997 32.5181C161.827 32.4913 162.764 32.1567 163.808 31.5141C164.664 30.9787 165.521 30.4432 166.378 29.9078C166.458 29.8274 166.539 29.7873 166.619 29.7873C166.699 29.7873 166.739 29.8408 166.739 29.9479ZM179.731 29.9479C179.731 30.1086 179.531 30.3227 179.129 30.5905C175.836 32.8126 173.614 33.9237 172.463 33.9237C171.713 33.9237 171.338 33.4953 171.338 32.6386C171.338 32.1567 171.432 31.6748 171.619 31.1928C171.887 30.5235 172.021 30.1755 172.021 30.1487C172.021 30.0416 171.981 29.9881 171.9 29.9881C171.874 29.9881 171.807 30.0148 171.7 30.0684C171.111 30.6574 170.254 31.3669 169.129 32.1968C167.684 33.2677 166.68 33.8032 166.117 33.8032C165.475 33.8032 165.154 33.4819 165.154 32.8394C165.154 32.4645 165.622 31.4338 166.559 29.7471C167.496 28.0337 167.965 27.0431 167.965 26.7754C167.965 26.4809 167.724 26.3336 167.242 26.3336C167.135 26.3336 167.081 26.173 167.081 25.8517C167.322 25.7714 167.577 25.7312 167.844 25.7312C168.781 25.7312 169.25 25.9989 169.25 26.5344C169.25 27.1234 168.835 28.114 168.005 29.5062C167.175 30.8983 166.76 31.7685 166.76 32.1165C166.76 32.3307 166.854 32.4378 167.041 32.4378C167.469 32.4378 168.514 31.7283 170.174 30.3093C171.86 28.8904 173.159 27.6053 174.069 26.4541C174.471 26.0525 174.765 25.8517 174.952 25.8517C175.3 25.8517 175.475 26.0257 175.475 26.3738C175.475 26.5612 175.381 26.8021 175.193 27.0966C173.587 29.5062 172.784 31.0724 172.784 31.7952C172.784 32.4645 173.092 32.7992 173.708 32.7992C174.645 32.7992 176.345 31.9559 178.808 30.2692C178.942 30.1621 179.129 30.0416 179.37 29.9078C179.45 29.8274 179.531 29.7873 179.611 29.7873C179.691 29.7873 179.731 29.8408 179.731 29.9479ZM193.516 8.46285C193.516 8.59671 193.449 8.77073 193.315 8.98491C191.949 11.2606 190.477 14.5804 188.897 18.9443C187.184 23.7099 185.845 27.0163 184.881 28.8636C184.748 29.1046 184.64 29.2251 184.56 29.2251C184.426 29.2251 184.359 29.0109 184.359 28.5825C184.922 26.0927 185.966 22.8532 187.492 18.864C189.875 12.7063 191.146 9.3865 191.307 8.90459C191.334 8.6101 191.494 8.36914 191.789 8.18173C192.11 7.99432 192.431 7.90062 192.753 7.90062C193.261 7.90062 193.516 8.08803 193.516 8.46285ZM185.002 32.3976C185.002 32.6921 184.841 32.9732 184.52 33.241C184.199 33.5087 183.918 33.6425 183.677 33.6425C183.168 33.6425 182.887 33.3748 182.833 32.8394C182.833 32.4645 182.981 32.17 183.275 31.9559C183.57 31.7417 183.851 31.6346 184.118 31.6346C184.707 31.6346 185.002 31.8889 185.002 32.3976Z" fill="#AA9A6E"></path></svg> 