<?xml version="1.0" encoding="UTF-8"?> <svg xmlns="http://www.w3.org/2000/svg" width="213" height="56" viewBox="0 0 213 56" fill="none"><path d="M8.52811 44.8271C8.05878 44.6138 7.78144 44.1231 7.69611 43.3551V43.2271C7.69611 43.0565 7.86678 42.8645 8.20811 42.6511C8.37878 42.5658 8.69878 42.4378 9.16811 42.2671C9.68011 42.1818 9.95744 42.1178 10.0001 42.0751C10.0428 42.0325 10.1494 41.7551 10.3201 41.2431C10.5334 40.5178 10.7468 39.3445 10.9601 37.7231C11.1734 35.0351 11.2801 32.8804 11.2801 31.2591C11.1948 26.9071 11.1521 24.4964 11.1521 24.0271V16.6671C11.1521 13.9791 11.1308 12.2511 11.0881 11.4831C11.0881 10.2031 11.0668 9.37111 11.0241 8.98711V8.60312C11.0241 8.51778 11.0668 7.96312 11.1521 6.93911C11.1521 6.76845 11.1734 6.66178 11.2161 6.61911C11.2588 6.44845 11.3654 6.40578 11.5361 6.49112C12.2188 6.78978 12.5814 7.21645 12.6241 7.77111L13.0721 11.0351C13.0721 11.0778 13.0934 11.4405 13.1361 12.1231C13.2214 12.7631 13.2854 13.2964 13.3281 13.7231L13.4561 15.0031L13.7761 18.4591L13.9041 20.2511C13.9468 20.8058 14.0321 22.0431 14.1601 23.9631C14.1601 24.3044 14.2454 25.3284 14.4161 27.0351L14.5441 28.4431V29.4671C14.5868 29.8938 14.6081 30.8965 14.6081 32.4751C14.6081 34.8645 14.5014 37.0831 14.2881 39.1311C14.1601 40.0271 14.0534 40.6031 13.9681 40.8591L13.9041 41.6271C13.8614 41.7551 13.9254 41.8191 14.0961 41.8191C14.2241 41.8191 14.4588 41.7765 14.8001 41.6911C16.6348 41.2218 18.4268 40.3471 20.1761 39.0671C21.7548 37.9578 23.3334 36.6138 24.9121 35.0351C26.2348 33.7125 27.3868 32.1338 28.3681 30.2991C29.9468 27.3978 31.0348 24.1338 31.6321 20.5071C31.7601 19.4831 31.8241 18.4591 31.8241 17.4351C31.8241 14.4911 31.2268 11.7604 30.0321 9.24311C29.3068 7.70711 28.4108 6.46978 27.3441 5.53112L26.6401 4.95512C25.1468 4.18712 23.3974 3.61112 21.3921 3.22712C20.6668 3.09911 19.8561 3.03511 18.9601 3.03511C17.6801 2.99245 16.0801 3.22712 14.1601 3.73912C13.4774 3.90978 12.4961 4.35778 11.2161 5.08311C10.1921 5.72311 9.57344 6.12845 9.36011 6.29911C8.63478 6.81112 7.67478 7.72845 6.48011 9.05112C5.11478 10.8005 4.09078 12.8698 3.40811 15.2591C3.15211 16.0698 3.02411 16.8804 3.02411 17.6911C3.02411 18.7578 3.21611 19.8031 3.60011 20.8271C4.02678 22.0218 4.62411 23.0031 5.39211 23.7711C5.60544 23.9844 5.86144 24.0058 6.16011 23.8351C6.41611 23.6218 6.62944 23.6004 6.80011 23.7711C6.97078 23.8138 7.12011 23.8991 7.24811 24.0271C7.54678 24.2831 7.67478 24.5178 7.63211 24.7311C7.41878 25.2004 7.14144 25.3711 6.80011 25.2431C6.62944 25.2431 6.43744 25.1791 6.22411 25.0511C4.30411 24.1124 2.70411 22.7684 1.42411 21.0191C0.912109 20.2938 0.570776 19.5044 0.400109 18.6511C0.144109 17.7978 0.0161093 16.9658 0.0161093 16.1551C0.0161093 15.2591 0.144109 14.3631 0.400109 13.4671C1.33878 9.96845 3.19478 7.00312 5.96811 4.57111C6.60811 3.97378 7.69611 3.26978 9.23211 2.45911C10.4694 1.81911 11.6854 1.34978 12.8801 1.05112C13.9468 0.795115 15.0561 0.667114 16.2081 0.667114C17.6161 0.667114 19.1094 0.837781 20.6881 1.17912C22.0108 1.47778 23.5468 2.11778 25.2961 3.09911C27.7708 4.72045 29.4561 5.97912 30.3521 6.87511C31.3761 7.81378 32.2721 9.02978 33.0401 10.5231C34.3201 13.1258 34.9601 15.9204 34.9601 18.9071C34.9601 20.8271 34.6188 22.7898 33.9361 24.7951C32.7841 28.2084 31.1628 31.1524 29.0721 33.6271C27.8774 35.0778 26.6188 36.2938 25.2961 37.2751C23.6748 38.5551 22.0321 39.6645 20.3681 40.6031C19.4294 41.1578 18.2988 41.6485 16.9761 42.0751C15.8668 42.4165 14.8854 42.5871 14.0321 42.5871C13.7334 42.5871 13.5414 42.7151 13.4561 42.9711C13.3708 43.1845 13.2214 43.4831 13.0081 43.8671C12.8374 44.2511 12.7521 44.4858 12.7521 44.5711C12.3681 45.2111 11.7708 45.5311 10.9601 45.5311C10.0641 45.4458 9.25344 45.2111 8.52811 44.8271ZM9.61611 43.0351V42.9071L9.48811 42.8431C9.40278 42.8858 9.27478 42.9498 9.10411 43.0351C8.97611 43.0778 8.89078 43.0991 8.84811 43.0991C8.63478 43.3125 8.59211 43.5471 8.72011 43.8031L9.04011 44.1871C9.29611 43.9311 9.48811 43.5471 9.61611 43.0351ZM57.8281 24.9231C57.8281 25.0511 57.7428 25.1364 57.5721 25.1791L56.8041 25.5631C56.4201 25.6911 55.3961 26.1178 53.7321 26.8431C53.0921 27.0991 52.0254 27.6964 50.5321 28.6351C50.1481 28.8484 49.8921 29.1898 49.7641 29.6591C49.3374 31.1524 48.5481 32.7524 47.3961 34.4591C46.7561 35.1845 46.3508 35.6111 46.1801 35.7391C45.8388 36.0805 45.4548 36.1871 45.0281 36.0591L44.0681 35.8671C43.7694 35.7818 43.5988 35.6111 43.5561 35.3551C43.5134 35.2698 43.4921 35.0564 43.4921 34.7151C43.4921 34.3311 43.5561 33.9258 43.6841 33.4991C43.7694 33.2858 44.0681 32.7738 44.5801 31.9631C45.6041 30.6404 46.5641 29.6591 47.4601 29.0191C47.7161 28.8058 47.9081 28.5285 48.0361 28.1871C48.4201 26.6511 48.6121 25.1151 48.6121 23.5791C48.6121 22.7258 48.5481 21.8511 48.4201 20.9551C48.3348 20.3578 48.2068 19.9738 48.0361 19.8031C47.8654 19.8884 47.6308 20.0804 47.3321 20.3791C46.9481 20.8484 46.5641 21.4458 46.1801 22.1711C45.9668 22.6404 45.7321 23.1951 45.4761 23.8351C45.2201 24.4751 45.0708 24.8164 45.0281 24.8591C44.3454 26.7791 43.6201 29.4885 42.8521 32.9871C42.5534 34.6938 42.2974 36.4218 42.0841 38.1711C42.0841 38.2138 42.0414 38.4271 41.9561 38.8111C41.9134 39.1951 41.8708 39.5365 41.8281 39.8351C41.7001 40.9871 41.4868 43.6538 41.1881 47.8351C41.1028 50.1391 41.0601 51.4191 41.0601 51.6751L40.9961 53.5951V54.3631C40.9961 54.6191 40.8681 54.7898 40.6121 54.8751L39.5241 55.0671C39.3108 55.0671 39.1828 54.9818 39.1401 54.8111C39.0121 54.5978 38.9054 54.2565 38.8201 53.7871C38.8201 53.6591 38.7774 52.9551 38.6921 51.6751C38.6921 49.4565 38.7561 47.2165 38.8841 44.9551C39.0548 41.5418 39.1401 38.6618 39.1401 36.3151C39.1401 34.8218 39.1188 33.8618 39.0761 33.4351L39.0121 30.5551C39.0121 25.1364 39.0334 21.6378 39.0761 20.0591C39.2468 16.1764 39.3534 13.6804 39.3961 12.5711C39.3961 12.4431 39.4388 11.9951 39.5241 11.2271C39.6094 11.0138 39.7588 10.9284 39.9721 10.9711L40.2921 11.0991C40.7614 11.2271 41.0174 11.5044 41.0601 11.9311C41.2308 13.2538 41.3374 14.9178 41.3801 16.9231L41.5721 30.2991C41.5721 30.8111 41.6361 31.2165 41.7641 31.5151L42.2121 29.4031C42.8521 26.7151 43.5988 24.3044 44.4521 22.1711C44.6654 21.6164 44.9854 20.9551 45.4121 20.1871C45.6681 19.8031 45.9668 19.4404 46.3081 19.0991C46.7348 18.6724 47.1828 18.5231 47.6521 18.6511L48.9961 18.9071C49.4654 19.0351 49.8281 19.3338 50.0841 19.8031C50.5108 20.5711 50.7454 21.3818 50.7881 22.2351C50.8734 23.8564 50.8094 25.1791 50.5961 26.2031L50.5321 26.8431L50.5961 26.9711C50.6814 27.0138 50.7668 26.9924 50.8521 26.9071C50.9801 26.8218 51.0654 26.7791 51.1081 26.7791C52.3454 26.1391 53.9454 25.4778 55.9081 24.7951C56.2494 24.6671 56.5481 24.6031 56.8041 24.6031C56.8894 24.6031 57.1028 24.6458 57.4441 24.7311C57.6574 24.7311 57.7854 24.7951 57.8281 24.9231ZM46.6921 31.9631L46.8201 31.5151L46.1161 32.3471C45.6894 32.9444 45.3694 33.4564 45.1561 33.8831C45.0708 34.0964 45.0708 34.2458 45.1561 34.3311C45.4121 34.2031 45.6894 33.8618 45.9881 33.3071C46.3294 32.7524 46.5641 32.3045 46.6921 31.9631ZM70.7916 25.1151L69.3196 27.0351L66.9516 30.1071C65.9276 31.2591 64.8823 32.1338 63.8156 32.7311C63.6876 32.8591 63.4529 32.9658 63.1116 33.0511C62.8129 33.2218 62.4076 33.3071 61.8956 33.3071C61.5543 33.3071 61.2556 33.2644 60.9996 33.1791C59.4636 32.6244 58.2476 31.9844 57.3516 31.2591C55.9436 30.1071 55.2396 28.5285 55.2396 26.5231C55.2396 24.7738 55.6876 23.3018 56.5836 22.1071C57.2236 21.1258 58.0129 20.4858 58.9516 20.1871C59.2929 20.0591 59.6129 19.9951 59.9116 19.9951C60.3809 19.9951 60.8289 20.1231 61.2556 20.3791L62.1516 20.8271C62.7063 21.1258 62.9836 21.5738 62.9836 22.1711L62.8556 22.8111C62.8129 23.0244 62.7276 23.1738 62.5996 23.2591C62.1303 24.0271 61.4263 24.7738 60.4876 25.4991C59.8476 25.8831 59.1863 26.0965 58.5036 26.1391C58.1623 26.1818 57.9916 26.3951 57.9916 26.7791C57.9063 28.4858 58.2476 29.8938 59.0156 31.0031L59.2716 31.4511C59.6983 32.0058 60.1463 32.2831 60.6156 32.2831C60.8716 32.2831 61.1489 32.2191 61.4476 32.0911C62.1303 31.9204 62.7916 31.6004 63.4316 31.1311C64.5836 30.2351 65.6076 29.2324 66.5036 28.1231L67.8476 26.3311L69.1276 24.8591C69.3836 24.6031 69.5543 24.4751 69.6396 24.4751C69.7249 24.4751 69.8103 24.5178 69.8956 24.6031C70.0236 24.6884 70.1303 24.7311 70.2156 24.7311C70.5569 24.7738 70.7489 24.9018 70.7916 25.1151ZM58.3756 25.4351L58.6956 25.3711C59.8049 24.8164 60.7009 23.9631 61.3836 22.8111C61.5543 22.3418 61.6183 21.9578 61.5756 21.6591V21.4671C61.4903 21.1258 61.2983 21.0191 60.9996 21.1471C60.5729 21.2751 60.2103 21.4885 59.9116 21.7871C58.9303 22.5978 58.3543 23.7498 58.1836 25.2431C58.0983 25.3711 58.1623 25.4351 58.3756 25.4351ZM71.8236 34.5231L70.6076 34.0751C69.5409 33.6911 68.7943 32.9871 68.3676 31.9631C67.7703 30.6831 67.5143 29.3391 67.5996 27.9311C67.5996 26.0111 67.8343 24.2191 68.3036 22.5551C68.8583 20.4645 69.7543 18.7365 70.9916 17.3711C71.6743 16.5604 72.3143 15.9418 72.9116 15.5151L73.6156 15.0671C73.9143 14.8964 74.2769 14.8751 74.7036 15.0031L75.9196 15.5151C76.2609 15.7711 76.2823 15.9418 75.9836 16.0271C75.3863 16.6245 74.9383 17.1151 74.6396 17.4991C73.2316 19.4618 72.2503 21.4671 71.6956 23.5151C71.4396 24.6671 71.2049 25.8831 70.9916 27.1631C70.9489 27.3764 70.9276 27.9098 70.9276 28.7631C70.8423 30.1284 70.9063 31.2164 71.1196 32.0271C71.1623 32.4964 71.2903 32.9444 71.5036 33.3711C71.5463 33.6698 71.7169 33.8191 72.0156 33.8191C72.4849 33.8191 73.0823 33.6271 73.8076 33.2431C74.4903 32.8591 75.0876 32.4111 75.5996 31.8991C76.1116 31.4298 77.1356 30.2565 78.6716 28.3791L81.1676 25.1151C81.5089 24.7311 81.7223 24.5391 81.8076 24.5391C81.9356 24.5391 82.1489 24.6031 82.4476 24.7311L82.7676 24.9231C82.8529 24.9658 82.8743 25.0724 82.8316 25.2431L82.7036 25.4351L81.8076 26.5871C79.9303 29.0618 78.5223 30.7684 77.5836 31.7071C77.1143 32.2191 76.6236 32.7098 76.1116 33.1791C75.4289 33.7338 74.6396 34.1818 73.7436 34.5231C73.1463 34.6084 72.8263 34.6511 72.7836 34.6511C72.7409 34.6511 72.4209 34.6084 71.8236 34.5231ZM83.9486 34.5231L82.7326 34.0751C81.6659 33.6911 80.9193 32.9871 80.4926 31.9631C79.8953 30.6831 79.6393 29.3391 79.7246 27.9311C79.7246 26.0111 79.9593 24.2191 80.4286 22.5551C80.9833 20.4645 81.8793 18.7365 83.1166 17.3711C83.7993 16.5604 84.4393 15.9418 85.0366 15.5151L85.7406 15.0671C86.0393 14.8964 86.4019 14.8751 86.8286 15.0031L88.0446 15.5151C88.3859 15.7711 88.4073 15.9418 88.1086 16.0271C87.5113 16.6245 87.0633 17.1151 86.7646 17.4991C85.3566 19.4618 84.3753 21.4671 83.8206 23.5151C83.5646 24.6671 83.3299 25.8831 83.1166 27.1631C83.0739 27.3764 83.0526 27.9098 83.0526 28.7631C82.9673 30.1284 83.0313 31.2164 83.2446 32.0271C83.2873 32.4964 83.4153 32.9444 83.6286 33.3711C83.6713 33.6698 83.8419 33.8191 84.1406 33.8191C84.6099 33.8191 85.2073 33.6271 85.9326 33.2431C86.6153 32.8591 87.2126 32.4111 87.7246 31.8991C88.2366 31.4298 89.2606 30.2565 90.7966 28.3791L93.2926 25.1151C93.6339 24.7311 93.8473 24.5391 93.9326 24.5391C94.0606 24.5391 94.2739 24.6031 94.5726 24.7311L94.8926 24.9231C94.9779 24.9658 94.9993 25.0724 94.9566 25.2431L94.8286 25.4351L93.9326 26.5871C92.0553 29.0618 90.6473 30.7684 89.7086 31.7071C89.2393 32.2191 88.7486 32.7098 88.2366 33.1791C87.5539 33.7338 86.7646 34.1818 85.8686 34.5231C85.2713 34.6084 84.9513 34.6511 84.9086 34.6511C84.8659 34.6511 84.5459 34.6084 83.9486 34.5231ZM117.437 26.1391L117.565 25.8831L118.013 24.6671C118.141 24.2831 118.397 24.0911 118.781 24.0911L124.093 23.8991H124.989C126.44 23.8138 128.104 23.7711 129.981 23.7711C130.152 23.7711 130.92 23.8138 132.285 23.8991H132.989C133.117 23.9845 133.181 24.0698 133.181 24.1551C132.968 24.7525 132.797 25.1151 132.669 25.2431L132.349 25.4351C132.306 25.4351 132.178 25.4778 131.965 25.5631C131.752 25.6058 131.602 25.6271 131.517 25.6271L128.957 25.9471L125.821 26.1391L124.413 26.2671C122.749 26.3951 121.362 26.4591 120.253 26.4591L118.205 26.5231H117.693C117.522 26.4804 117.437 26.3524 117.437 26.1391ZM162.021 40.7311L160.677 40.2831C160.336 40.1551 160.144 39.9631 160.101 39.7071C160.101 39.6645 160.08 39.5791 160.037 39.4511C159.994 39.3231 159.973 39.2165 159.973 39.1311L159.909 37.5311C159.909 37.1045 159.93 36.8271 159.973 36.6991V36.5071C159.93 35.6111 160.058 34.0111 160.357 31.7071C160.57 29.5738 160.72 28.2511 160.805 27.7391C160.848 27.0564 161.018 25.3924 161.317 22.7471L161.701 19.3551C161.786 18.9284 161.893 18.0964 162.021 16.8591C162.106 16.3898 162.213 16.1551 162.341 16.1551C162.469 16.1551 162.682 16.2404 162.981 16.4111C163.194 16.4964 163.301 16.6458 163.301 16.8591C163.472 17.2431 163.578 17.8404 163.621 18.6511C163.621 22.9178 163.6 25.3284 163.557 25.8831C163.557 26.0964 163.664 26.1604 163.877 26.0751C165.285 25.2644 166.309 24.5391 166.949 23.8991C168.186 22.7898 169.189 21.7018 169.957 20.6351L170.149 20.4431C170.32 20.2724 170.49 20.2511 170.661 20.3791C170.874 20.5071 170.981 20.6564 170.981 20.8271L170.789 21.4671L170.597 22.0431C169.402 24.3898 167.717 26.1178 165.541 27.2271C165.456 27.3124 165.136 27.4618 164.581 27.6751C164.24 27.8884 164.069 28.1871 164.069 28.5711L164.261 29.2111C164.901 30.7898 165.861 32.1978 167.141 33.4351C167.354 33.6058 167.568 33.6911 167.781 33.6911H168.293C168.933 33.6911 169.445 33.6058 169.829 33.4351C170.853 32.9658 171.749 32.3258 172.517 31.5151C173.285 30.7044 174.309 29.2964 175.589 27.2911L177.317 24.8591C177.488 24.5604 177.744 24.4964 178.085 24.6671L178.405 24.8591C178.49 24.9444 178.512 25.0511 178.469 25.1791L178.277 25.6271L177.573 26.7791L176.869 27.8671C175.034 30.4698 174.01 31.9204 173.797 32.2191C173.029 33.1578 172.261 33.8618 171.493 34.3311C170.725 34.6725 170.106 34.8431 169.637 34.8431C169.04 34.8431 168.464 34.7151 167.909 34.4591C166.032 33.6058 164.666 32.4964 163.813 31.1311C163.77 31.0031 163.706 30.9391 163.621 30.9391C163.536 30.8538 163.472 30.8538 163.429 30.9391L163.365 31.1951C163.322 32.1765 163.237 34.1391 163.109 37.0831C163.066 38.2778 162.96 39.2165 162.789 39.8991L162.597 40.4111C162.469 40.6671 162.277 40.7738 162.021 40.7311ZM180.535 35.9951L178.167 34.8431C177.612 34.5445 177.122 34.0111 176.695 33.2431C176.183 32.3044 175.927 31.0244 175.927 29.4031C175.927 27.1845 176.482 25.0725 177.591 23.0671C177.932 22.5978 178.359 22.1071 178.871 21.5951L179.383 21.2111C179.554 21.0404 179.831 20.9551 180.215 20.9551C180.428 20.9551 180.642 21.0191 180.855 21.1471C180.983 21.2324 181.154 21.3818 181.367 21.5951C180.898 21.7658 180.514 22.1498 180.215 22.7471C179.319 24.3258 178.786 25.8831 178.615 27.4191C178.487 28.1871 178.423 28.9764 178.423 29.7871C178.423 29.9151 178.466 30.4911 178.551 31.5151C178.722 32.5391 179.02 33.4351 179.447 34.2031C179.703 34.6725 179.98 34.9071 180.279 34.9071L180.791 34.7791C181.602 34.6085 182.348 34.0751 183.031 33.1791C183.799 32.1551 184.268 31.0031 184.439 29.7231C184.652 28.7418 184.716 28.0378 184.631 27.6111C184.631 27.2698 184.482 27.0778 184.183 27.0351H184.055C183.202 26.9925 182.007 26.5658 180.471 25.7551L180.343 25.6271C179.831 25.3285 179.575 25.0085 179.575 24.6671C179.575 24.3258 179.724 24.0058 180.023 23.7071C180.492 23.1098 181.047 22.8111 181.687 22.8111C181.943 22.8111 182.242 22.8751 182.583 23.0031C182.967 23.1311 183.671 23.4724 184.695 24.0271C185.207 24.3258 185.612 24.7098 185.911 25.1791C186.039 25.4351 186.252 25.5418 186.551 25.4991L188.343 25.1151C190.434 24.6884 191.97 24.4538 192.951 24.4111C193.42 24.4111 193.804 24.4964 194.103 24.6671L194.871 25.1151C194.956 25.2004 194.999 25.2644 194.999 25.3071L194.807 25.4991C192.503 25.9258 191.138 26.1604 190.711 26.2031C189.772 26.3311 188.471 26.5658 186.807 26.9071C186.551 27.0778 186.423 27.2698 186.423 27.4831C186.38 28.6778 186.167 29.9365 185.783 31.2591C185.143 32.9231 184.588 34.0538 184.119 34.6511C183.735 35.1631 183.287 35.5471 182.775 35.8031C182.391 36.0591 181.964 36.1871 181.495 36.1871C181.196 36.1871 180.876 36.1231 180.535 35.9951ZM183.415 25.9471H183.863C184.29 25.9471 184.418 25.7338 184.247 25.3071L183.991 24.8591C183.735 24.4324 183.5 24.2191 183.287 24.2191C183.159 24.2191 182.946 24.3044 182.647 24.4751C182.22 24.7311 181.964 25.0298 181.879 25.3711C181.879 25.5844 181.964 25.7124 182.135 25.7551C182.775 25.8831 183.202 25.9471 183.415 25.9471ZM212.267 25.4351L210.859 27.4831C209.664 29.0618 207.83 31.8351 205.355 35.8031C205.056 36.2298 204.907 36.6991 204.907 37.2111C204.907 37.5951 204.886 37.8511 204.843 37.9791C204.715 38.5338 204.587 39.4298 204.459 40.6671L204.267 42.0111C204.182 42.8645 203.947 44.1231 203.563 45.7871C203.478 46.0858 203.179 47.1098 202.667 48.8591C202.496 49.3711 202.07 50.4378 201.387 52.0591C201.003 52.9551 200.427 53.8298 199.659 54.6831C199.403 54.9818 199.104 55.2165 198.763 55.3871C198.464 55.5578 198.208 55.6431 197.995 55.6431L197.483 55.5151L196.395 55.0671C196.011 54.9391 195.84 54.6618 195.883 54.2351C195.883 53.6805 195.904 53.3391 195.947 53.2111C196.331 51.4191 196.907 49.6911 197.675 48.0271C199.04 44.9551 199.851 43.2058 200.107 42.7791C200.448 42.1391 200.64 41.4991 200.683 40.8591C200.726 39.9631 200.896 38.3418 201.195 35.9951C201.28 35.5258 201.43 34.2245 201.643 32.0911C202.027 29.2324 202.368 27.0351 202.667 25.4991V24.7951C202.496 24.8804 202.326 25.0085 202.155 25.1791C200.875 26.6298 199.744 27.9951 198.763 29.2751C197.91 30.2564 196.736 31.8564 195.243 34.0751L194.283 35.1631C194.112 35.3338 193.835 35.3551 193.451 35.2271L191.147 33.8831C190.72 33.5845 190.507 33.0938 190.507 32.4111C190.422 31.6005 190.55 30.6405 190.891 29.5311C191.275 28.1231 191.979 26.5231 193.003 24.7311C193.558 23.7071 194.496 22.3631 195.819 20.6991L197.163 19.4191C197.76 18.9498 198.422 18.7151 199.147 18.7151C199.702 18.7151 200.15 18.8218 200.491 19.0351L201.643 19.7391C201.942 19.9098 202.048 20.2084 201.963 20.6351C201.963 20.6778 201.92 20.7204 201.835 20.7631C201.792 20.8058 201.75 20.8058 201.707 20.7631C201.494 20.7204 201.344 20.6138 201.259 20.4431L201.131 20.1231C201.003 19.8671 200.79 19.8031 200.491 19.9311C199.936 20.0591 199.446 20.4004 199.019 20.9551C198.336 21.7658 197.846 22.5124 197.547 23.1951C196.95 24.2191 196.438 25.2431 196.011 26.2671C195.883 26.5658 195.542 27.5471 194.987 29.2111C194.944 29.3818 194.795 29.8938 194.539 30.7471C194.454 30.9604 194.454 31.1098 194.539 31.1951C194.71 31.1951 194.923 31.0671 195.179 30.8111C196.075 30.0004 196.95 29.1044 197.803 28.1231L198.891 26.8431L201.003 24.5391L202.155 23.3231C202.539 22.9818 202.923 22.9391 203.307 23.1951C203.392 23.3231 203.542 23.4084 203.755 23.4511C204.352 23.7071 204.736 24.2404 204.907 25.0511C205.078 25.7764 205.184 26.6084 205.227 27.5471V32.6031L205.163 33.2431C205.291 33.2431 205.398 33.2004 205.483 33.1151C205.483 33.0298 205.526 32.9445 205.611 32.8591C205.696 32.7311 205.76 32.6458 205.803 32.6031C206.912 30.7684 207.894 29.2538 208.747 28.0591L209.643 26.7151C210.198 25.9471 210.688 25.3071 211.115 24.7951C211.328 24.5391 211.584 24.4751 211.883 24.6031L212.139 24.7951C212.438 24.9658 212.48 25.1791 212.267 25.4351ZM199.083 49.4351L199.467 47.0671L199.339 47.2591C198.4 49.4351 197.76 51.4191 197.419 53.2111C197.376 53.2538 197.355 53.2965 197.355 53.3391C197.398 53.3818 197.44 53.4031 197.483 53.4031C197.654 53.3178 197.76 53.1471 197.803 52.8911C198.358 51.8671 198.784 50.7151 199.083 49.4351Z" fill="black"></path></svg> 