<?xml version="1.0" encoding="UTF-8"?> <svg xmlns="http://www.w3.org/2000/svg" width="300" height="98" viewBox="0 0 300 98" fill="none"><path d="M145.928 23.5324C141.194 24.6021 137.518 28.1736 136.2 32.97C135.767 34.4883 135.767 37.9563 136.2 39.5091C136.911 42.1317 138.524 44.6507 140.553 46.2898C141.888 47.3767 144.281 48.55 145.738 48.8433C146.362 48.9641 146.882 49.1193 146.882 49.2056C146.882 49.2746 147.749 49.3436 148.79 49.3436C149.848 49.3436 150.697 49.2919 150.697 49.2056C150.697 49.1366 151.148 48.9986 151.703 48.895C153.715 48.4982 156.368 47.1869 158.033 45.7376L158.674 45.1683V43.4602C158.674 41.9074 158.639 41.7521 158.345 41.7521C158.119 41.7521 157.928 41.9936 157.72 42.563C155.848 47.5148 149.483 49.6369 144.437 46.9971C142.044 45.7376 139.946 42.8218 139.322 39.8542C138.94 38.1116 138.94 34.4883 139.304 32.7802C140.189 28.7602 143.293 25.482 147.09 24.5848C151.651 23.5151 156.194 25.7236 157.651 29.6919C157.928 30.4338 158.119 30.7098 158.345 30.7098C158.639 30.7098 158.674 30.5545 158.674 29.0017V27.2936L157.859 26.569C156.645 25.5165 154.946 24.5848 153.108 23.9637C151.668 23.4806 151.2 23.4116 149.223 23.3598C147.732 23.3081 146.605 23.3771 145.928 23.5324Z" fill="#372821"></path><path d="M49.266 23.7248C48.9538 23.8628 48.4856 23.9836 48.2255 23.9836C47.9654 23.9836 47.6359 24.0871 47.4799 24.1906C47.3238 24.3114 45.3816 29.0389 43.1793 34.6808C38.0637 47.7762 38.2197 47.3966 37.7515 47.5174C37.5434 47.5692 35.4452 47.6209 33.0695 47.6209H28.7862L28.8209 35.8885L28.8729 24.1561H27.2255H25.5781V36.4061V48.6561H32.4278H39.2949L39.503 47.6554C39.6244 47.1206 40.0926 45.7058 40.5434 44.5153L41.3585 42.3586H47.5839H53.8093L54.555 44.429C54.9538 45.5677 55.3874 46.9825 55.5088 47.5692L55.7342 48.6561H57.4336C58.37 48.6561 59.133 48.6216 59.133 48.5871C59.133 48.5526 58.977 48.1558 58.7689 47.7072C58.4567 46.9998 50.1157 23.7075 50.1157 23.535C50.1157 23.4142 49.8729 23.466 49.266 23.7248ZM50.688 33.473L53.3411 40.9783L47.7053 41.0301C44.6186 41.0473 42.0521 41.0301 42.0001 40.9956C41.9654 40.9438 43.1966 37.6656 44.74 33.6973C48.1735 24.9153 47.896 25.5882 47.9827 25.7952C48.0174 25.8815 49.2313 29.3494 50.688 33.473Z" fill="#372821"></path><path d="M65.7204 23.7394C62.4256 24.6193 61.021 27.3454 62.0788 30.7271C62.5643 32.3144 63.5701 33.6602 67.1077 37.4387C70.5412 41.1309 71.2695 42.2006 71.4083 43.9087C71.5123 45.2373 71.3215 45.9792 70.6973 46.7038C69.4834 48.0668 67.2291 48.3947 65.2869 47.463C64.1077 46.9109 62.7377 45.5478 62.4256 44.5989C62.2869 44.1675 62.1135 43.995 61.8707 43.995C61.5239 43.995 61.5065 44.064 61.6106 45.151C61.6799 45.8066 61.732 46.5658 61.732 46.8591C61.732 47.3077 61.8533 47.4457 62.5643 47.8425C64.1077 48.688 65.9111 49.0503 68.0614 48.964C69.7609 48.895 70.125 48.826 71.1135 48.3602C73.1424 47.4285 74.0614 46.1172 74.1828 44.064C74.3389 41.407 73.5239 39.9922 69.0499 35.144C65.4429 31.2102 64.7493 30.1749 64.5585 28.4496C64.4198 27.1211 64.732 26.2066 65.5296 25.482C67.4718 23.7394 70.784 24.3778 72.1019 26.7587C72.8302 28.0873 73.1077 27.8457 73.021 25.9651C73.0036 25.1024 72.9169 24.3433 72.8476 24.2742C72.5701 23.9982 69.414 23.4633 68.0614 23.4806C67.2984 23.4806 66.2406 23.6014 65.7204 23.7394Z" fill="#372821"></path><path d="M124.698 23.7248C124.386 23.8628 123.918 23.9836 123.658 23.9836C123.398 23.9836 123.068 24.0871 122.912 24.1906C122.756 24.3114 120.745 29.2287 118.438 35.1121C116.132 40.9956 113.982 46.4304 113.652 47.1723C113.323 47.9315 113.062 48.5699 113.062 48.6044C113.062 48.6389 113.444 48.6561 113.895 48.6561H114.727L114.935 47.6554C115.057 47.1206 115.525 45.7058 115.976 44.5153L116.791 42.3586H123.016H129.242L129.987 44.429C130.386 45.5677 130.82 46.9825 130.941 47.5692L131.167 48.6561H132.866C133.802 48.6561 134.565 48.6216 134.565 48.5871C134.565 48.5526 134.409 48.1558 134.201 47.7072C133.889 46.9998 125.548 23.7075 125.548 23.535C125.548 23.4142 125.305 23.466 124.698 23.7248ZM126.12 33.473L128.773 40.9783L123.138 41.0301C120.051 41.0473 117.484 41.0301 117.432 40.9956C117.398 40.9438 118.629 37.6656 120.172 33.6973C123.606 24.9153 123.328 25.5882 123.415 25.7952C123.45 25.8815 124.664 29.3494 126.12 33.473Z" fill="#372821"></path><path d="M171.519 23.7248C171.207 23.8628 170.738 23.9836 170.478 23.9836C170.218 23.9836 169.889 24.0871 169.733 24.1906C169.576 24.3114 167.565 29.2287 165.259 35.1121C162.952 40.9956 160.802 46.4304 160.472 47.1723C160.143 47.9315 159.883 48.5699 159.883 48.6044C159.883 48.6389 160.264 48.6561 160.715 48.6561H161.548L161.756 47.6554C161.877 47.1206 162.345 45.7058 162.796 44.5153L163.611 42.3586H169.837H176.062L176.808 44.429C177.207 45.5677 177.64 46.9825 177.761 47.5692L177.987 48.6561H179.686C180.623 48.6561 181.386 48.6216 181.386 48.5871C181.386 48.5526 181.23 48.1558 181.022 47.7072C180.709 46.9998 172.368 23.7075 172.368 23.535C172.368 23.4142 172.126 23.466 171.519 23.7248ZM172.941 33.473L175.594 40.9783L169.958 41.0301C166.871 41.0473 164.305 41.0301 164.253 40.9956C164.218 40.9438 165.449 37.6656 166.993 33.6973C170.426 24.9153 170.149 25.5882 170.235 25.7952C170.27 25.8815 171.484 29.3494 172.941 33.473Z" fill="#372821"></path><path d="M79.8594 36.4061V48.6561H81.5068H83.1542L83.1021 40.6332L83.0501 32.6104H88.8767H94.686V39.9776C94.686 44.0494 94.6166 47.6554 94.5299 48.0005L94.3738 48.6561H96.0559H97.7206V36.4061V24.1561H96.0386H94.3565L94.5299 24.7082C94.6166 25.0188 94.686 26.6924 94.686 28.4177V31.5751H88.8594H83.0501L83.1021 27.8656L83.1542 24.1561H81.5068H79.8594V36.4061Z" fill="#372821"></path><path d="M184.945 36.3889V48.6561H190.408C196.061 48.6561 197.344 48.5526 199.252 47.9315C201.367 47.2586 202.703 46.4477 204.385 44.7741C205.685 43.4973 206.101 42.9625 206.691 41.7547C207.679 39.7361 207.974 38.4248 207.957 36.2336C207.94 32.7656 206.899 30.1949 204.541 27.8656C202.997 26.3128 201.298 25.3294 199.078 24.6565C197.847 24.2769 197.414 24.2596 191.361 24.1906L184.945 24.1389V36.3889ZM197.153 25.4501C202.026 26.6061 205.269 31.3163 204.922 36.7512C204.697 40.0639 203.604 42.6174 201.506 44.6878C199.061 47.1206 197.431 47.6209 191.847 47.6209H188.153V36.4061V25.1913H192.107C195.003 25.1913 196.338 25.2604 197.153 25.4501Z" fill="#372821"></path><path d="M212.344 36.4061V48.6561H220.026H227.691V47.9832V47.2931L227.136 47.4656C226.824 47.5519 224.084 47.6209 221.066 47.6209H215.552V40.1156V32.6104H219.54H223.529V32.0927V31.5751H219.54H215.552V28.3832V25.1741L220.928 25.2258L226.303 25.2776V24.7082V24.1561H219.332H212.344V36.4061Z" fill="#372821"></path><path d="M231.675 36.1301C231.675 42.7209 231.623 48.2248 231.571 48.3801C231.485 48.6044 231.606 48.6561 232.282 48.6561C232.993 48.6561 233.08 48.6216 232.959 48.3456C232.768 47.966 232.647 30.885 232.837 30.885C232.907 30.9023 234.97 34.0942 237.415 38.0107C241.144 43.9804 241.907 45.1192 242.236 45.1192C242.566 45.1192 243.259 44.0494 246.849 37.9935C249.155 34.0769 251.097 30.816 251.167 30.7642C251.236 30.6952 251.254 34.698 251.236 39.6498L251.184 48.6561H252.832H254.479L254.427 36.4061C254.392 24.829 254.375 24.1561 254.08 24.1561C253.855 24.1561 252.329 26.6061 248.583 32.9382C245.739 37.7864 243.346 41.703 243.294 41.6685C243.225 41.6167 240.728 37.6656 237.728 32.8692C233.912 26.7614 232.196 24.1561 231.988 24.1561C231.693 24.1561 231.675 24.8463 231.675 36.1301Z" fill="#372821"></path><path d="M258.711 25.3984C259.266 26.0885 261.572 29.2804 263.826 32.5068L267.936 38.3558L267.884 43.4973L267.832 48.6561H269.393H270.953L270.901 42.7382L270.832 36.803L274.248 31.9892C276.138 29.3494 278.202 26.5026 278.861 25.6572L280.057 24.1561H279.19C278.427 24.1561 278.306 24.2079 278.081 24.622C277.751 25.2776 270.19 35.9575 270.034 36.0093C269.896 36.0611 262.491 25.4846 262.092 24.6737L261.832 24.1561H259.751H257.688L258.711 25.3984Z" fill="#372821"></path><path d="M100.019 60.8874C99.3257 61.6983 98.2159 63.9758 97.5569 65.9599C97.2101 66.9779 96.9327 67.9268 96.9327 68.0476C96.9327 68.1856 96.7072 68.4617 96.4124 68.6687C95.7708 69.1173 95.7361 69.4451 96.3257 69.2899C96.7246 69.1863 96.7593 69.2208 96.7766 69.8247L96.7939 70.4803L97.0714 69.6349C97.3488 68.8413 97.4182 68.755 98.476 68.2891C99.9673 67.6163 102.256 67.1159 103.99 67.1159C106.332 67.1159 106.505 67.3575 104.753 68.2201C103.609 68.8068 101.736 69.3934 99.3604 69.9455L98.2332 70.187L99.3604 70.118C102.725 69.8592 105.638 68.8758 106.401 67.7025C106.696 67.2539 106.696 67.2367 106.332 66.9261C106.106 66.7536 105.586 66.5638 105.17 66.4948C103.956 66.3222 101.095 66.7536 99.2217 67.392C98.3026 67.7025 97.5223 67.9441 97.5049 67.9096C97.4182 67.8406 98.7882 64.0965 99.187 63.3201C99.3951 62.8888 99.846 62.1814 100.158 61.7156C101.025 60.5251 100.904 59.8349 100.019 60.8874Z" fill="#372821"></path><path d="M135.818 61.4234C133.355 62.079 130.598 63.7871 129.072 65.5988C128.656 66.1164 128.257 66.3752 127.823 66.4787C126.367 66.7892 125.898 66.9618 125.898 67.2033C125.898 67.5139 125.933 67.5139 127.078 67.2206L127.979 66.979L127.875 67.7899C127.789 68.4973 127.823 68.6699 128.222 69.1357C128.482 69.4463 128.968 69.7914 129.332 69.9121C130.112 70.1882 133.511 70.1882 135.002 69.8949C136.719 69.5843 139.268 68.9804 139.199 68.9114C139.164 68.8769 138.315 68.9632 137.326 69.1012C133.078 69.7051 129.627 69.6188 128.812 68.8942C128.43 68.5664 128.413 67.6519 128.742 67.1861C128.968 66.8755 129.297 66.8583 133.303 66.772L137.604 66.6857L136.043 66.4269C135.124 66.2716 133.442 66.1681 131.933 66.1854H129.384L129.713 65.7368C130.771 64.253 135.401 61.7685 137.118 61.7685C137.604 61.7685 138.176 61.5097 138.037 61.3544C137.777 61.1128 136.927 61.1301 135.818 61.4234Z" fill="#372821"></path><path d="M148.373 65.5128C146.396 67.635 142.945 70.0677 142.286 69.8262C141.992 69.7054 141.506 68.1526 141.506 67.3072C141.506 66.9621 141.437 66.5825 141.35 66.4445C141.142 66.1167 140.812 66.3582 140.812 66.8413C140.812 67.6177 141.523 69.9642 141.853 70.3093C142.2 70.6371 142.2 70.6371 143.362 70.0677C145.078 69.2396 146.5 68.1698 147.853 66.7206C148.807 65.6853 150.021 63.9945 149.795 64.0118C149.76 64.029 149.119 64.6846 148.373 65.5128Z" fill="#372821"></path><path d="M190.858 65.5128C188.881 67.635 185.43 70.0677 184.771 69.8262C184.476 69.7054 183.991 68.1526 183.991 67.3072C183.991 66.9621 183.921 66.5825 183.834 66.4445C183.626 66.1167 183.297 66.3582 183.297 66.8413C183.297 67.6177 184.008 69.9642 184.337 70.3093C184.684 70.6371 184.684 70.6371 185.846 70.0677C187.563 69.2396 188.985 68.1698 190.337 66.7206C191.291 65.6853 192.505 63.9945 192.28 64.0118C192.245 64.029 191.603 64.6846 190.858 65.5128Z" fill="#372821"></path><path d="M154.077 65.2872C152.846 65.5978 152.43 65.8566 152.43 66.3397C152.43 66.6675 152.621 66.84 153.366 67.1851C153.887 67.4266 154.372 67.6337 154.424 67.6337C154.476 67.6337 154.927 67.8062 155.395 67.996C156.436 68.4446 156.505 68.8587 155.638 69.2555C154.788 69.6696 152.638 70.0492 151.077 70.0664L149.742 70.1009L150.956 70.2735C152.343 70.4805 154.736 70.2562 155.76 69.8249C156.106 69.6696 156.523 69.359 156.696 69.1002C157.199 68.3411 156.869 67.9788 154.944 67.2023C154.025 66.8228 153.262 66.4259 153.262 66.3397C153.28 66.0636 154.684 65.7703 156.106 65.753C157.407 65.7358 157.944 65.5115 157.442 65.2009C157.095 64.9939 155.101 65.0457 154.077 65.2872Z" fill="#372821"></path><path d="M166.39 65.5443C164.309 65.8721 162.02 66.8038 161.067 67.701C160.72 68.0288 160.408 68.1495 159.905 68.1495C159.177 68.1495 158.812 68.4256 159.211 68.6844C159.35 68.7707 159.662 68.8397 159.94 68.8397C160.321 68.8397 160.408 68.9087 160.408 69.271C160.408 70.1855 162.35 70.7376 164.57 70.4443L165.87 70.2717L164.639 70.2372C162.263 70.2027 160.928 69.7541 160.928 69.0122C160.928 68.7707 161.188 68.7017 162.627 68.6154C164.448 68.4946 167.379 67.8562 168.749 67.2696C169.72 66.8555 170.032 66.2517 169.546 65.7686C169.217 65.458 167.708 65.3372 166.39 65.5443ZM169.026 66.3724C169.165 66.7865 165.385 67.8045 162.627 68.0978C161.656 68.2013 161.552 68.1841 161.76 67.9425C162.072 67.5629 163.945 66.752 165.35 66.4069C166.703 66.0619 168.922 66.0446 169.026 66.3724Z" fill="#372821"></path><path d="M178.523 65.5443C176.442 65.8721 174.153 66.8038 173.2 67.701C172.853 68.0288 172.541 68.1495 172.038 68.1495C171.309 68.1495 170.945 68.4256 171.344 68.6844C171.483 68.7707 171.795 68.8397 172.072 68.8397C172.454 68.8397 172.541 68.9087 172.541 69.271C172.541 70.1855 174.483 70.7376 176.702 70.4443L178.003 70.2717L176.772 70.2372C174.396 70.2027 173.061 69.7541 173.061 69.0122C173.061 68.7707 173.321 68.7017 174.76 68.6154C176.581 68.4946 179.512 67.8562 180.882 67.2696C181.853 66.8555 182.165 66.2517 181.679 65.7686C181.35 65.458 179.841 65.3372 178.523 65.5443ZM181.159 66.3724C181.298 66.7865 177.517 67.8045 174.76 68.0978C173.789 68.2013 173.685 68.1841 173.893 67.9425C174.205 67.5629 176.078 66.752 177.483 66.4069C178.835 66.0619 181.055 66.0446 181.159 66.3724Z" fill="#372821"></path><path d="M110.015 66.0117C109.373 66.7018 108.714 67.9958 108.61 68.8413C108.402 70.4113 110.084 70.6701 112.633 69.4796C113.379 69.1173 114.367 68.5652 114.836 68.2374C115.841 67.5127 115.876 67.6853 115.061 69.2899C113.5 72.3955 110.015 75.2596 106.564 76.2948L105.523 76.6053L106.356 76.5018C109.13 76.174 112.616 73.9828 114.471 71.3775C115.529 69.911 116.153 68.5825 116.31 67.53C116.448 66.512 116.136 66.5293 114.732 67.5645C113.362 68.617 111.454 69.5141 110.362 69.6349C108.801 69.8247 108.732 69.1001 110.067 66.9089C110.795 65.7356 110.76 65.218 110.015 66.0117Z" fill="#372821"></path><path d="M195.101 67.0294C192.552 67.5988 191.408 69.4449 193.142 70.1696C193.957 70.5146 195.361 70.2903 198.084 69.4104C201.275 68.3925 203.234 68.4787 203.963 69.652C204.205 70.0315 204.275 70.066 204.275 69.8245C204.275 69.3069 203.2 68.3752 202.367 68.1509C201.292 67.8576 200.078 68.0474 197.286 68.9446C194.807 69.7382 193.541 69.8935 193.176 69.4449C192.812 68.9963 193.072 68.5995 194.113 68.0646C195.084 67.5815 195.275 67.547 197.234 67.5298C198.483 67.5125 199.333 67.4435 199.367 67.34C199.471 67.0639 199.038 66.9604 197.546 66.8569C196.697 66.8051 195.812 66.8741 195.101 67.0294Z" fill="#372821"></path><path d="M104.875 76.7264C104.997 76.7782 105.153 76.7609 105.205 76.7092C105.274 76.6574 105.17 76.6057 104.979 76.6229C104.789 76.6229 104.737 76.6747 104.875 76.7264Z" fill="#372821"></path></svg> 