<?xml version="1.0" encoding="UTF-8"?> <svg xmlns="http://www.w3.org/2000/svg" width="64" height="48" viewBox="0 0 64 48" fill="none"><path d="M21.0158 46.9313C20.7598 47.0593 19.2878 47.0593 18.7118 46.5473C18.1358 46.2273 17.6878 45.5233 17.3678 44.7552C17.2397 44.1793 16.8558 43.3473 16.7917 42.4513C16.7917 41.6193 16.5998 40.7233 16.6638 40.0832L16.5998 38.6752C16.4078 38.6112 16.2158 38.6752 15.8318 38.9952C15.8318 39.1232 15.7038 39.1232 15.6398 39.1872C14.8078 40.0192 13.9118 40.6593 13.2078 41.4913C12.7598 42.0673 12.1198 42.2593 11.6078 42.6432L11.1598 43.0273C10.9678 43.0273 10.7758 42.9633 10.4558 42.8993L9.94375 42.0673C9.94375 42.2593 9.81575 42.3873 9.75175 42.5793C9.49575 42.6432 9.36775 42.5153 9.30375 42.2593C9.30375 42.1313 9.11175 42.1313 9.04775 41.9393C8.98375 41.8113 8.72775 41.6833 8.72775 41.5553C8.59975 40.9153 7.57575 40.7233 8.34375 40.1472C8.47175 39.2512 8.79175 37.3952 8.91975 36.4352C8.98375 36.3712 8.91975 36.2432 8.79175 36.0512C8.02375 37.0112 7.31975 37.8432 6.99975 38.2912C6.87175 38.4193 6.67975 38.4832 6.48775 38.5472C6.67975 38.9312 6.29575 39.1872 6.03975 39.5072L5.65575 40.3392C5.01575 41.2353 4.50375 42.1313 3.92775 43.0273C3.73575 43.3473 3.35175 43.4753 3.09575 43.7313C2.96775 43.7953 2.83975 43.9233 2.77575 44.1153L2.26375 44.4993C1.87975 44.2433 1.87975 43.7313 1.75175 43.4753L1.43175 43.9873C1.04775 43.4753 0.91975 42.8353 0.98375 42.1313C1.17575 39.9552 1.62375 37.8432 2.19975 35.7312C2.51975 34.5152 2.71175 33.2352 3.03175 32.0192C3.03175 31.6992 3.15975 31.3792 3.03175 31.1233C2.96775 30.9952 3.22375 30.7392 3.22375 30.6112C3.73575 30.6752 3.92775 30.6752 4.31175 30.8032C4.75975 30.9312 5.07975 31.0592 5.20775 31.6352C5.33575 32.2752 5.27175 32.9792 5.07975 33.6192C4.95175 34.4512 4.82375 35.2832 4.56775 36.1792C4.50375 36.6912 3.73575 38.6752 3.60775 39.3792C3.79975 39.3152 3.92775 39.2512 3.99175 39.1872C4.18375 38.8032 4.50375 38.3552 5.33575 36.9472C5.91175 36.2432 6.35975 35.2832 7.06375 34.5792C7.51175 34.1312 7.89575 33.6192 8.40775 33.2352C8.66375 33.0432 8.85575 33.1072 9.11175 33.2992C9.49575 33.7472 10.0718 34.0032 10.7118 33.8112C10.9678 33.6832 11.1598 33.8112 11.4158 33.8112C11.6078 34.2592 11.4798 34.7712 11.6078 35.2832C11.6718 35.4112 11.7358 35.6672 11.6718 35.8592C11.6078 36.4352 11.7358 37.0112 11.4798 37.5232C11.2878 38.0352 11.1598 39.4432 11.0318 40.1472C11.8638 39.4432 12.8878 38.4193 13.5918 37.8432C13.9758 37.5232 14.4238 37.2032 14.8718 36.9472C15.1278 36.7552 15.3838 36.6272 15.8958 36.1792C16.0878 36.1152 16.4078 36.0512 16.5358 36.1792C17.1758 36.3712 17.4318 36.6912 18.0718 36.9472C18.1998 37.0752 18.3278 37.2032 18.0718 37.2032C18.1358 37.3312 18.2638 37.5232 18.4558 37.5232C19.0318 37.5232 19.0318 38.1632 18.9678 38.6112C19.0318 38.8032 19.0318 39.1232 19.0318 39.4432V39.7632C18.7758 40.1472 19.0318 40.5953 18.9678 40.9793C19.0318 41.5553 19.0318 42.1313 19.1597 42.6432C19.2878 43.0273 19.2878 43.2833 19.6078 44.4993C19.9918 45.2673 20.5038 45.5873 21.3998 45.2673C21.5278 45.1393 21.7838 45.5873 21.6558 45.8433C21.6558 45.9713 21.5278 46.0353 21.3998 46.1633C21.3998 46.3553 21.3998 46.4833 21.0158 46.9313ZM36.1433 41.6193C35.6953 41.6193 35.2473 41.4273 34.7993 41.2353C34.2233 40.9793 34.0953 40.4032 34.0312 39.7632C34.0953 39.4432 34.0953 38.9312 34.1593 38.5472C34.4792 36.5632 34.8633 34.8352 35.7593 32.9792C36.2073 32.2112 36.6553 31.1872 36.9753 30.1632C36.7193 30.0352 35.9513 30.2272 35.8233 30.2912L34.3513 30.8672L31.7273 32.2752C31.9193 32.7232 32.0473 33.6832 31.8553 34.4512C31.6633 35.5392 31.2153 36.3712 30.7033 37.2032C30.4473 37.5232 30.3193 37.7792 30.1273 37.9712H30.0633C29.8073 37.9712 29.5513 38.2272 29.4873 38.4832C29.1033 39.1232 28.4633 39.6352 27.5673 39.9552C27.1193 40.2112 26.6073 40.4032 25.9673 40.3392C24.5593 40.3392 22.9593 39.5072 22.3193 38.2272L22.1913 37.9712C22.4473 37.7792 22.8313 37.6512 22.8313 37.3312C22.8313 35.9232 23.2793 34.5792 23.6633 33.1712C23.7913 32.9792 23.8553 32.7232 23.8553 32.3392C23.2153 32.8512 23.3433 33.2992 23.1513 33.7472C22.9593 34.1952 22.8953 34.5152 22.5753 34.9632C22.3833 34.8992 22.5113 34.7712 22.5113 34.6432C23.0233 32.9152 24.8793 28.5632 25.7753 26.8992C26.0953 26.5152 26.2233 26.0672 26.4792 25.6832C26.7993 25.4272 27.0553 25.1712 27.5033 24.9792C27.8233 24.7872 28.5273 24.7872 28.7833 24.9792C29.1673 25.4272 29.1033 25.9392 28.9113 26.5152C27.8873 28.3712 25.7753 32.9152 25.1353 34.8352C24.7513 35.9872 24.5593 37.1392 24.6233 38.2912C24.6233 38.7392 24.6873 38.9952 25.1353 39.3792C25.2633 39.3152 25.5833 39.2512 25.7753 39.1232C26.1593 38.8672 26.7353 38.7392 27.1193 38.3552C28.4633 37.1392 29.5513 35.7952 29.7433 34.2592C29.8713 33.3632 29.6793 32.5952 28.3353 32.8512C28.1433 32.7872 28.0793 32.5952 28.0793 32.1472C28.1433 31.8272 28.9113 31.6992 29.1673 31.6352C30.8313 31.3152 32.2393 30.6752 33.7753 30.2272C34.7993 29.7792 35.6953 29.3952 36.8472 29.0112C37.4873 28.7552 38.5113 28.3712 39.3433 28.4992C40.1113 28.6272 40.2393 29.0752 40.1113 29.5232C39.7913 30.1632 39.4713 30.8672 39.1513 31.4432C37.9993 33.5552 37.2953 35.2192 36.7833 37.1392C36.5273 38.0992 36.3993 38.9312 36.7193 39.8272C36.8472 39.8912 36.9113 39.8912 37.0393 39.8912C37.7433 39.8912 39.0233 39.5072 39.9193 39.0592C41.1993 38.3552 41.9033 37.9712 41.9673 37.8432C42.6713 37.5232 43.2473 37.1392 43.4393 37.2672H43.5033L43.0553 37.7792C42.8633 37.8432 42.7993 37.8432 43.0553 37.9072C42.9913 37.9712 42.6713 37.9712 42.6073 37.9712C42.1593 37.9712 41.9033 38.2272 40.8153 38.7392V38.8032L42.2873 38.1632C42.3513 38.2912 42.2873 38.2912 42.0953 38.3552C41.5833 38.5472 40.4313 39.5072 39.8553 39.5072C39.8553 39.5072 39.7913 39.5712 39.7913 39.6352H39.8553L41.0073 39.2512C41.2633 39.1872 41.4553 38.8672 41.5833 38.7392C41.7753 38.6112 41.9673 38.5472 42.3513 38.3552C42.5433 38.2272 42.3513 38.1632 42.5433 38.0352H42.7993L42.2233 38.5472L42.2873 38.6112C42.0313 38.8032 41.9033 38.9312 41.6473 39.0592L41.4553 39.1872L41.3273 39.3152C40.5593 39.7632 40.1113 40.2112 39.4713 40.5953C38.4473 41.1713 37.3593 41.6193 36.1433 41.6193ZM22.1913 37.4592C22.1913 36.8192 21.8713 36.0512 22.4473 35.3472L22.1913 37.4592ZM63.5218 4.56325C63.5858 4.75525 63.5218 5.07525 63.3938 5.39525C63.2658 5.71525 63.2018 6.29125 63.1378 6.67525L63.0098 7.37925C63.0098 7.44325 63.0098 7.57125 62.9458 7.63525C62.8818 7.69925 62.9458 7.76325 62.8818 7.82725C62.4978 8.21125 62.6258 9.04325 62.2418 9.42725C62.1778 9.42725 62.1778 9.36325 62.0498 9.42725C62.1778 9.04325 62.3698 8.78725 62.3698 8.40325C62.4978 8.08325 62.6898 7.76325 62.8818 7.37925C62.8178 7.37925 62.8178 7.37925 62.7538 7.31525C62.6898 7.69925 62.4978 8.08325 62.3698 8.40325C62.3058 8.59525 62.1778 8.72325 62.1138 8.91525H62.0498C62.2418 8.08325 62.5618 7.50725 62.7538 6.86725V6.80325C62.6258 6.86725 62.6258 6.93125 62.5618 6.99525C62.2418 7.63525 61.9858 8.46725 61.7298 9.23525C61.6018 9.49125 61.4097 9.68325 61.2818 9.87525L60.2578 12.0512C60.0018 12.4992 59.6818 12.9472 59.4258 13.3312C59.2978 13.4592 59.1698 13.6512 59.0417 13.2672C59.2338 13.2032 59.4258 12.9472 59.6178 12.7552C59.6178 12.6912 59.5538 12.6912 59.5538 12.6272C59.4897 12.6912 59.3618 12.7552 59.1698 12.7552C58.9778 13.0752 58.6578 13.5232 58.4658 13.9712C58.3378 14.2912 58.2098 14.6112 58.0178 14.9312C57.8898 15.1872 57.6338 15.4432 57.5058 15.4432C57.4418 15.6352 57.3778 15.8272 57.3778 16.0192C57.3778 16.0832 57.2498 16.1472 57.1858 16.1472V16.2752C57.3138 16.3392 57.4418 16.2752 57.6338 16.4032C57.3138 16.5952 57.2498 16.8512 57.1858 17.0432C56.9938 17.2992 56.9298 17.4912 56.8018 17.6832C56.8658 17.7472 56.9298 17.7472 56.9298 17.7472C57.0578 17.4912 57.1858 17.2352 57.3778 17.0432C57.6978 17.1712 57.8898 17.1712 58.1458 17.2352C58.0818 17.2992 58.0818 17.5552 57.8898 17.3632C57.8898 17.3632 57.7618 17.4272 57.7618 17.4912C57.6978 17.6832 57.4418 17.8112 57.7618 17.8752C57.4418 18.1312 57.1218 18.1312 56.9938 18.6432C57.1218 18.5152 57.1858 18.4512 57.3138 18.3872V18.4512C57.1218 18.9632 56.9298 19.2192 56.6738 19.6032C56.5458 19.6032 56.4818 19.8592 56.3538 19.9872C56.0978 20.3072 55.9698 20.6912 55.7138 20.9472C55.5858 21.0752 55.4578 21.2672 55.4578 21.4592C55.3938 21.3952 55.3298 21.4592 55.2658 21.4592C55.1378 21.5232 55.0738 21.5232 55.1378 21.7153C55.2018 21.7153 55.1378 21.8432 55.0098 21.9072C54.4978 22.5472 54.3698 22.4192 53.8578 23.1232C53.3458 23.8272 52.8338 24.2752 52.2578 24.8512C51.5538 25.5552 51.2338 26.1952 50.5938 26.9632C50.5298 27.1552 50.2738 27.0912 50.2098 27.2832C50.0818 27.6672 49.6338 27.9232 49.3138 28.3072C49.2498 28.4352 48.6738 31.6992 48.5458 32.2112L48.4818 32.6592C48.5458 32.6592 48.6098 32.6592 48.8018 32.5952C49.1218 32.2752 49.5058 32.0192 50.0178 31.5712C50.9138 30.9312 51.4258 30.3552 52.3858 29.8432C53.2178 29.3952 53.9218 29.2672 54.8178 29.2672C55.2658 29.2672 55.5858 29.5232 56.0338 29.5872C56.1618 29.6512 56.3538 29.7152 56.5458 29.8432C56.4178 29.9072 56.3538 29.9072 56.1618 30.0352L57.7618 30.6112C57.8258 30.9312 57.8898 31.0592 57.8898 31.3152C57.8898 31.7632 57.9538 32.3392 57.6978 32.7872C57.6338 33.5552 57.3778 34.1312 56.9938 34.7712C56.6098 35.4112 56.2898 35.6672 55.9698 35.9232C55.0098 36.8192 54.4978 36.9472 53.7938 37.3952L52.3858 37.8432C52.2578 38.9312 52.8338 40.3392 53.2818 41.1073C53.4098 41.2993 53.5378 41.3633 53.6018 41.3633C54.7538 41.4913 55.2018 41.3633 56.2898 40.9793C57.4418 40.4672 59.2978 39.0592 60.1298 38.2272C61.1538 37.3952 61.6658 36.7552 62.3698 36.2432L62.7538 36.6272C62.6898 37.0112 62.4978 37.3312 62.3698 37.5872C62.1138 38.0992 61.6018 38.9952 61.2178 39.5072C60.6418 40.0832 59.6818 41.5553 58.8498 42.0033C58.4018 42.2593 57.8898 42.5153 57.5698 42.7713C57.1218 42.9633 56.7378 43.1553 56.1618 43.2833C55.4578 43.5393 55.0738 43.4753 54.4978 43.4753C54.3058 43.4753 54.1778 43.3473 54.0498 43.4113C53.4738 43.5393 52.7698 43.2833 52.5138 42.8993C51.9378 42.5793 51.6178 42.3873 51.2978 41.9393C50.9778 41.4913 50.7218 41.0433 50.5938 40.4672C50.0818 39.1232 50.0818 37.9712 50.2098 36.8832L52.0658 35.9232C53.2178 35.2832 54.4338 34.6432 55.0738 33.4912C55.4578 32.7872 55.5858 32.1472 55.0738 31.3152C54.4338 31.1233 53.7938 31.5712 53.2178 31.8912C52.3858 32.5952 51.8738 32.7872 50.8498 33.6192C50.4018 34.0672 49.9538 34.3232 49.5058 34.6432L48.9298 35.0912L48.1618 35.6032C48.0978 35.7952 47.8418 37.2672 47.7778 37.3312C47.5218 38.1632 47.7778 38.2912 47.4578 38.6752C47.4578 38.9952 47.2018 39.2512 47.2018 39.5712L47.1378 40.0832L47.0738 40.4032L46.8818 41.2353C47.0738 41.6833 46.8818 42.0033 46.6898 42.3233C46.4338 42.8353 45.7938 42.8353 45.7938 42.3873C45.6018 42.3233 45.4738 42.2593 45.3458 42.0673L45.1538 41.6833L44.7057 41.2353C44.6418 41.1073 44.6418 40.9153 44.6418 40.7233L44.8338 39.6992C45.0258 39.2512 45.0258 38.7392 45.0258 38.2272L45.2818 37.2032C45.4738 36.5632 45.6018 35.7952 45.7298 35.0912C45.8578 34.7072 45.9218 33.8752 46.0498 33.3632L46.6898 30.0352V29.9712C46.1778 30.2272 44.8338 31.3792 44.4498 31.2512C44.1938 31.1872 44.0018 31.0592 43.9378 30.9312C43.8098 30.6752 43.8098 29.0752 44.0658 28.8832C45.2818 28.1792 46.6258 27.0912 47.5858 26.2592C47.9058 24.9792 48.2258 23.6992 48.4818 22.4192C48.8658 21.1392 49.1858 19.8592 49.6338 18.5152C50.1458 16.9792 50.5298 15.3792 51.2338 13.8432C51.8738 12.4352 52.3218 11.1552 52.8978 9.68325C53.0898 9.17125 53.4738 8.78725 53.6018 8.27525C53.7938 7.82725 53.9858 7.31525 54.2418 6.86725C54.6898 6.03525 55.2018 5.52325 55.6498 4.49925C55.7778 4.24325 56.0338 3.98725 56.2258 3.73125C56.4818 3.15525 56.7378 2.96325 57.1218 2.51525C57.2498 2.38725 57.3138 2.32325 57.3778 2.13125C57.5058 2.06725 57.6338 2.00325 57.6978 1.87525C58.0178 1.36325 58.3378 0.979248 59.0417 0.659248C59.4258 0.53125 59.7458 0.275249 60.1938 0.275249C60.5778 0.275249 60.9618 0.339249 61.4097 0.467247C62.0498 0.787247 62.5618 1.55525 63.1378 2.06725C63.3298 2.45125 63.3938 3.09125 63.4578 3.73125C63.5218 3.92325 63.5218 4.24325 63.5218 4.56325ZM61.3458 5.20325C61.3458 3.41125 61.4097 2.96325 60.6418 2.77125C60.3218 2.77125 60.0018 2.96325 59.6818 3.21925C59.1698 3.60325 58.9138 3.98725 58.4018 4.62725C57.9538 5.33125 57.3138 6.03525 56.7378 6.93125C56.2258 7.82725 55.8418 8.65925 55.3298 9.61925C55.0098 10.5152 54.4338 11.0272 54.3058 11.9872L54.3698 12.0512C54.2418 12.4992 53.9218 12.6912 53.7938 13.0752C53.4098 13.8432 53.2818 14.5472 52.8338 15.8272C52.1938 17.8752 51.8098 18.5792 51.4258 20.0512C50.8498 21.7153 50.6578 22.4192 50.2098 24.0192L50.4658 23.5712C51.1698 22.6752 51.7458 22.2272 52.4498 21.2032C53.1538 20.4352 53.6658 19.7952 54.1778 18.9632C54.4978 18.6432 54.8178 18.0672 55.1378 17.6192C55.7778 16.5952 56.2258 15.6992 56.8018 14.9952V14.9312C57.3138 13.9072 57.9538 13.0752 58.4018 12.3072C58.9138 11.4112 59.1698 10.5792 59.6818 9.74725C60.0018 8.97925 60.5138 7.82725 60.8978 6.80325C61.0258 6.35525 61.0258 5.90725 61.3458 5.20325ZM58.8498 15.6352C58.7858 15.6352 58.7218 15.6992 58.7218 15.8272C58.8498 16.3392 58.7858 16.3392 58.5298 16.4672C58.4658 16.5952 58.4018 16.8512 58.4018 16.9152C58.2738 17.0432 58.1458 16.9792 58.0178 16.9792C57.9538 16.9792 57.8898 16.9792 57.8258 16.9152C57.7618 16.8512 57.6978 16.7872 57.6338 16.7872C57.5698 16.6592 57.6978 16.5312 57.7618 16.4672C57.7618 16.4672 57.8898 16.5312 57.9538 16.4672C58.0178 16.4672 58.0818 16.4672 58.2098 16.4032C58.0178 16.2112 58.0178 16.0832 58.0818 15.8272C58.1458 15.6992 58.2738 15.5712 58.3378 15.6352C58.3378 15.5712 58.4018 15.5712 58.4658 15.5072V15.6992C58.5298 15.6352 58.5938 15.6352 58.6578 15.5712C58.6578 15.5072 58.5298 15.4432 58.4018 15.3152C58.5938 15.1872 58.5938 15.0592 58.7218 14.9312C58.7218 15.0592 58.7858 14.9952 58.8498 15.1872C58.9778 15.0592 59.1058 14.9312 59.2978 14.6112C59.1698 14.5472 59.1058 14.5472 58.9778 14.3552L59.4258 13.6512C59.4897 13.8432 59.4897 13.9712 59.4897 14.1632C59.7458 13.5232 60.0018 13.1392 60.3858 12.4992C60.3218 12.4992 60.2578 12.5632 60.1298 12.5632C60.3218 12.1152 60.4498 11.6032 60.7058 11.2832C61.0258 10.8352 61.2178 10.3872 61.4097 9.87525C61.6018 9.55525 61.7938 9.55525 62.1138 9.61925L61.8578 10.0032C61.6018 10.3232 61.5378 10.6432 61.4738 10.8992C61.3458 11.2192 61.2818 11.4752 61.0258 11.7312C60.7698 12.5632 60.1938 13.1392 59.8738 13.9072C59.7458 13.9712 59.7458 14.2912 59.6818 14.6112C59.4897 15.0592 59.1698 15.5712 58.9778 15.9552C58.8498 15.8272 58.8498 15.6992 58.8498 15.6352ZM59.6178 11.3472C59.7458 11.0912 60.0018 10.7712 60.1298 10.5152C60.1298 10.5152 60.0018 10.3872 60.0018 10.3232C59.9378 10.6432 59.7458 11.0272 59.6178 11.3472ZM59.5538 12.3712C60.0018 12.3072 59.9378 11.3472 60.3218 11.2192C60.3218 11.1552 60.2578 11.0912 60.1938 11.0272C60.0018 11.4112 59.7458 11.8592 59.5538 12.3712ZM52.4498 13.3952C52.3218 13.7152 52.5138 13.9072 52.4498 14.2272C52.5138 14.2272 52.5138 14.2912 52.5138 14.2912C52.6418 13.9712 52.7058 13.7152 52.7698 13.4592L52.4498 13.3952ZM57.8258 15.8272C57.7618 15.4432 58.0818 15.3792 58.2738 14.9312C58.2738 15.4432 58.0178 15.5712 57.8258 15.8272ZM55.9698 18.6432C56.2258 18.5792 56.4818 18.3232 56.6738 18.1312C56.5458 18.1312 56.3538 18.1952 56.1618 18.3232C56.4178 18.1312 56.4818 18.0032 56.5458 17.9392C56.4178 18.0032 56.2258 18.1952 56.0338 18.3872C56.0978 18.2592 56.1618 18.1312 56.2258 18.0672H56.1618C55.7778 18.5152 55.3298 19.0272 54.9458 19.5392C54.8178 19.6032 54.8178 19.6672 54.6898 19.7312C54.2418 20.0512 53.9858 20.4992 53.6018 21.0112C53.0258 21.6512 52.5778 22.2912 51.9378 23.1872C51.7458 22.8032 51.2978 23.3152 50.7858 24.1472C50.2098 24.7232 49.8898 25.1712 50.0178 25.4912C49.9538 25.6192 49.9538 25.8112 49.7618 26.4512C49.8898 26.3232 50.0818 26.1312 50.2098 25.9392C50.2738 25.7472 50.4658 25.6192 50.6578 25.4912C50.5938 25.4912 50.5298 25.4272 50.4658 25.4912C50.4018 25.6192 50.2738 25.7472 50.1458 25.8112H50.0818C50.2098 25.6832 50.3378 25.4912 50.5298 25.2352C50.6578 25.2992 50.6578 25.2992 50.8498 25.2352C50.9778 24.9792 51.0417 24.7872 51.1698 24.6592C50.9138 24.9152 50.7858 25.0432 50.4018 25.2352C50.5938 25.1072 50.7218 24.9792 50.8498 24.7872C51.1058 24.6592 51.4258 24.4032 51.4258 24.1472C51.5538 24.0192 51.7458 23.8912 52.0017 23.6353C52.1298 23.5072 52.3218 23.3792 52.5138 23.1232L52.1298 23.3792C52.6418 22.6752 52.7698 23.0592 53.2178 22.4832C53.0258 22.6112 52.9618 22.6752 52.8978 22.7392L53.0898 22.4832C53.2818 22.2272 53.5378 22.0352 53.9218 21.7153C53.8578 21.7153 53.9218 21.6512 53.9218 21.5232L54.0498 21.2672C54.2418 21.1392 54.3698 21.0752 54.5618 20.9472C54.5618 20.9472 54.4978 20.9472 54.5618 20.8832L54.6898 20.7552C54.7538 20.5632 55.0738 20.2432 55.1378 20.0512L55.0738 20.1152C55.0098 20.1152 54.8178 20.3072 54.8178 20.4352C54.7538 20.3712 54.7538 20.3072 54.7538 20.2432C55.3298 19.7952 55.5858 19.6032 55.5858 19.4112C55.2018 19.8592 55.0098 19.8592 54.7538 20.0512C55.0098 19.5392 55.4578 19.4752 55.7138 19.2192C55.7138 19.1552 55.7138 19.0272 55.8418 18.8992C56.0978 18.7072 55.9058 18.7712 55.5858 18.8352C55.7778 18.7072 55.9058 18.6432 55.9698 18.6432ZM48.7378 25.8752C48.8018 25.6832 48.8658 25.2992 48.8658 25.1072L48.6098 25.9392C48.6738 25.8752 48.7378 25.8752 48.7378 25.8752ZM49.5698 26.5792V26.6432C49.5698 26.6432 49.5698 26.6432 49.5698 26.5792ZM47.4578 31.0592C47.6498 30.2272 47.8418 29.4592 47.9058 28.6272V28.4992L47.8418 28.3712H47.7138C47.6498 28.6912 47.6498 29.0752 47.5858 29.3312C47.4578 30.0352 47.2018 30.8672 47.2018 31.6352C47.1378 31.7632 47.1378 31.9552 47.2018 31.9552C47.3938 31.5712 47.4578 31.3792 47.4578 31.0592ZM52.8338 30.7392C52.4498 30.8672 51.9378 30.9952 51.8738 31.5712C52.2578 31.3152 52.5778 31.0592 52.8978 30.8032C52.8338 30.8032 52.8338 30.7392 52.8338 30.7392ZM50.2738 32.6592C50.0818 32.7872 49.8258 32.9152 49.5698 32.9792C50.2098 33.1712 50.2098 33.1712 50.2738 32.6592ZM50.0818 33.5552C49.5058 33.1712 49.5058 33.1712 49.2498 33.5552C49.5058 33.4912 49.6978 33.5552 50.0818 33.5552ZM55.7778 35.0272C55.6498 35.0912 55.3938 35.2192 55.3938 35.2832C55.3938 35.5392 55.2658 35.6032 55.0738 35.6032L54.4978 35.9872C54.5618 35.9872 54.6258 36.0512 54.6258 36.1792C54.6898 36.1152 54.8818 36.0512 54.8818 35.9872C55.2018 35.7952 55.3938 35.6032 55.6498 35.4112C55.7138 35.2832 55.7778 35.2192 55.9058 35.0912L55.7778 35.0272Z" fill="#272727"></path></svg> 