<?xml version="1.0" encoding="UTF-8"?> <svg xmlns="http://www.w3.org/2000/svg" xmlns:xlink="http://www.w3.org/1999/xlink" width="154" height="162"><path fill="#0F6D19" transform="scale(0.150391 0.150418)" d="M850.557 251.467C848.201 238.033 843.836 225.229 840.054 212.169C836.562 200.108 833.789 187.739 828.97 176.111C812.255 135.784 793.403 106.266 785.309 62.0383C783.578 52.5799 777.38 11.5433 781.723 5.26282C782.547 5.06317 782.661 4.8369 783.446 5.29564C787.324 7.56031 790.409 16.8939 792.204 21.09C797.629 33.7725 802.916 46.4594 807.083 59.624C812.619 77.1096 816.754 95.0046 822.331 112.482C828.823 132.83 836.945 152.541 842.249 173.279C846.674 190.582 848.509 208.505 852.004 226.011C852.033 221.686 852.218 217.369 852.878 213.089L853.491 213.762Q854.133 211.212 854.74 208.653C854.833 211.111 854.633 213.933 855.566 216.23C855.132 224.214 854.362 232.147 854.974 240.138C855.989 253.39 858.936 266.817 858.821 280.105C858.726 290.998 857.908 302.332 856.727 313.156C855.9 320.739 854.461 328.426 854.651 336.076C854.838 343.561 857.374 350.888 858.024 358.344C859.932 380.221 859.962 405.697 854.732 427.069C854.214 429.187 853.859 431.874 852.705 433.709C852.546 433.115 855.042 408.236 855.145 404.607Q855.485 392.981 854.796 381.37Q854.107 369.759 852.394 358.255C850.711 346.967 848.615 335.804 844.169 325.226C834.101 301.278 811.373 283.281 789.319 270.585C774.196 261.879 756.721 254.161 738.975 254.297C732.096 254.349 725.343 255.506 718.496 255.882C734.122 247.239 752.057 246.503 769.069 251.445C792.412 258.226 832.438 289.929 844.222 311.576C847.508 317.613 849.876 324.107 852.817 330.309C851.536 323.947 850.166 318.015 847.197 312.175C837.642 293.38 811.166 266.453 793.588 254.669C776.16 242.987 753.63 234.072 732.389 238.267C729.318 238.874 726.264 239.598 723.214 240.302C731.105 233.726 738.74 231.649 748.912 232.557C785.11 235.789 814.445 264.196 836.45 290.866C841.996 297.588 847.206 304.308 851.755 311.758C850.212 303.948 850.08 295.988 848.4 288.178C843.236 264.175 829.167 241.024 808.658 227.21C798.828 220.589 786.98 215.196 775.312 212.916C769.804 211.84 750.543 212.452 747.684 210.517C747.815 209.625 747.605 209.888 748.348 209.373C755.583 204.357 790.537 208.265 799.68 210.543C816.784 214.803 832.346 226.501 843.051 240.307C842.586 238.691 841.878 236.91 841.693 235.249C836.747 218.516 829.341 204.197 819.278 190.021Q811.566 179.221 802.702 169.345C795.108 160.916 766.891 135.159 766.465 125.027C766.43 124.188 766.494 124.07 766.648 123.34L767.378 122.698C770.937 127.722 774.379 133.172 778.349 137.87C784.673 145.353 792.076 151.925 798.894 158.943C814.911 175.43 829.588 195.014 838.419 216.347C840.533 221.456 843.418 228.287 843.984 233.845C846.192 239.791 847.692 245.743 850.557 251.467ZM855.976 303.259C856.063 298.02 855.395 292.736 854.804 287.537C852.561 267.828 847.195 250.337 833.088 235.822C823.433 225.888 805.163 213.911 790.881 213.475C797.627 216.588 804.711 219.537 811.016 223.471C828.692 234.501 841.146 252.496 848.199 271.856C850.688 278.691 852.68 286.045 854.019 293.204C854.442 295.466 854.544 301.964 855.976 303.259ZM833.846 155.891C831.329 143.301 824.323 132.007 820.158 119.971C814.206 102.771 802.387 49.2242 793.166 37.7803C799.375 73.0909 810.455 102.115 824.417 134.802C827.25 141.435 829.903 149.94 833.846 155.891Z"></path><path fill="#16751C" transform="scale(0.150391 0.150418)" d="M107.768 813.384C108.496 813.385 108.464 813.367 109.308 813.473C119.3 814.739 131.396 829.675 138.102 836.874C146.415 845.798 154.695 854.306 164.615 861.498Q173.786 868.117 183.279 874.264C193.067 880.509 211.361 890.094 218.169 898.763C211.972 896.866 205.838 891.783 200.189 888.563C182.475 878.468 164.527 868.433 149.552 854.402C140.181 845.622 131.957 835.638 122.712 826.725C118.274 822.447 110.65 818.768 107.768 813.384Z"></path><path fill="#16751C" transform="scale(0.150391 0.150418)" d="M855.08 147.504C855.102 146.636 855.068 145.685 855.204 144.83C855.463 143.209 855.793 143.215 857.104 142.325C860.463 166.825 858.143 191.781 855.566 216.23C854.633 213.933 854.833 211.111 854.74 208.653Q854.133 211.212 853.491 213.762L852.878 213.089C853.496 200.146 855.472 187.273 856.023 174.297C856.404 165.33 855.722 156.441 855.08 147.504Z"></path><path fill="#0F6D19" transform="scale(0.150391 0.150418)" d="M853.897 139.184C852.064 134.107 851.344 127.768 850.074 122.457C847.599 112.108 844.643 101.901 842.592 91.4478L844.124 92.2698L843.332 91.4639C843.485 91.5761 843.648 91.6762 843.792 91.8007C849.818 97.0272 855.214 126.649 856.202 135.927Q856.716 139.117 857.104 142.325C855.793 143.215 855.463 143.209 855.204 144.83C855.068 145.685 855.102 146.636 855.08 147.504C854.581 144.764 854.285 141.945 853.897 139.184Z"></path><path fill="#0D5D10" transform="scale(0.150391 0.150418)" d="M689.347 595.454C691.029 595.444 691.898 595.614 693.44 596.286C692.136 598.125 679.376 599.221 676.318 600.113L675.669 600.307L672.952 601.514L673.06 601.385L671.84 601.677C674.739 597.822 684.762 596.156 689.347 595.454Z"></path><path fill="#0F6D19" transform="scale(0.150391 0.150418)" d="M864.862 257.386C866.243 240.694 869.16 224.167 870.96 207.521C876.083 160.142 875.98 117.646 866.213 70.8056C865.819 68.9179 865.092 66.495 865.995 64.7137C870.278 66.6486 879.102 90.3108 881.035 95.4369C885.529 107.353 889.607 119.272 892.339 131.727C900.106 167.129 899.736 209.438 889.391 244.281C884.74 259.95 877.398 274.512 872.329 289.982C867.905 303.489 866.734 317.382 865.193 331.409C863.795 344.131 862.298 356.706 862.508 369.53C868.944 355.234 874.314 340.621 880.21 326.114Q887.906 307.619 896.082 289.33C904.1 271.078 912.32 249.549 926.361 235.02C935.021 226.059 945.937 220.553 956.413 214.14C960.199 211.821 965.703 205.561 968.959 204.316C969.171 204.235 969.39 204.171 969.605 204.098L970.261 204.477C970.153 209.429 965.036 216.512 962.616 220.877C956.872 231.239 951.452 241.546 946.635 252.384C939.549 268.326 933.298 284.893 925.32 300.401C926.455 312.572 926.449 324.491 926.166 336.693C943.189 313.483 966.795 297.412 995.635 293.102C1004.96 291.708 1014.83 291.88 1024 294.199L1024 297.461L1023.39 297.985C1019.69 301.131 1015.43 303.433 1011.34 306.025Q1009 307.478 1006.77 309.103Q1004.54 310.728 1002.45 312.515Q1000.35 314.303 998.388 316.242Q996.429 318.181 994.621 320.262C980.475 336.306 973.144 356.895 964.803 376.231C953.932 401.429 939.762 427.826 919.625 446.92Q917.251 449.193 914.677 451.237Q912.103 453.281 909.351 455.077Q906.599 456.874 903.693 458.409Q900.786 459.943 897.75 461.202Q891.777 463.603 885.545 465.217C879.293 466.834 866.54 467.607 862.327 472.64C856.487 479.615 853.755 490.453 850.794 498.955C857.459 494.352 864.624 490.794 872.059 487.627C879.029 484.659 886.82 482.089 892.922 477.544C900.808 471.67 906.152 462.413 913.85 455.989C934.407 438.834 957.789 426.027 979.489 410.531C990.521 402.653 1003.96 389.229 1015.29 383.349C1012.13 392.394 1005.4 398.395 1000.01 406.05C994.253 414.233 989.028 422.708 982.853 430.611C963.38 455.531 937.369 476.954 908.851 490.69C889.8 499.866 868.814 505.167 848.228 509.605C841.702 525.692 834.878 541.289 827.327 556.926C832.161 553.411 836.754 549.461 841.822 546.292Q843.716 545.105 845.661 544.003Q847.605 542.902 849.598 541.888Q851.59 540.875 853.625 539.951Q855.661 539.028 857.736 538.196Q859.81 537.364 861.92 536.626Q864.03 535.888 866.171 535.245Q868.311 534.602 870.479 534.055Q872.646 533.508 874.835 533.059Q877.025 532.609 879.232 532.258Q881.44 531.907 883.661 531.655Q885.882 531.403 888.112 531.25Q890.342 531.098 892.576 531.045Q894.811 530.992 897.046 531.039Q899.281 531.086 901.511 531.233Q903.741 531.38 905.963 531.626Q908.185 531.873 910.393 532.218C927.536 534.954 950.056 543.136 960.508 557.931C960.66 558.147 960.807 558.366 960.957 558.584C920.202 554.006 857.986 544.67 823.782 571.724C815.837 578.009 812.458 586.955 806.959 595.13C817.579 591.849 828.249 588.747 839.15 586.531C861.05 582.077 883.447 581.018 905.359 576.417C908.465 575.765 921.064 572.279 923.451 573.449C920.949 578.983 874.873 599.519 866.716 602.578C846.485 610.168 822.51 611.912 801.709 605.48C795.655 616.14 789.007 626.404 782.794 636.962C776.539 647.591 770.738 658.5 764.669 669.237C765.619 671.847 766.648 674.395 767.747 676.944C773.461 671.182 778.879 664.801 786.492 661.558C783.986 656.683 781.413 651.427 783.262 645.843C784.587 641.845 787.923 638.887 791.63 637.097C801.67 632.251 814.246 634.414 824.258 638.187C838.607 643.595 851.258 654.369 857.57 668.491C867.531 690.777 862.39 715.906 854.44 737.876C856.599 735.291 865.14 722.214 866.397 721.362C869.065 715.724 871.47 710.442 872.881 704.329C877.9 674.622 867.308 643.921 896.302 622.998C900.78 619.767 905.964 617.668 911.566 618.65C919.345 620.015 925.824 626.517 930.028 632.854C938.402 645.477 941.844 662.649 938.68 677.484C935.396 692.877 924.688 704.43 911.817 712.691C903.684 717.91 894.844 722.218 886.967 727.79C878.352 733.883 870.728 741.302 861.793 747.004C855.67 750.912 847.427 752.82 842.421 756.3C842.993 756.891 842.665 756.766 843.451 756.783C845.805 756.834 847.335 756.388 849.447 755.428C855.513 751.644 867.341 749.272 874.667 746.619Q887.689 741.22 900.289 734.899C918.84 725.568 937.061 714.289 958.256 722.937C968.864 727.266 977.789 736.411 982.113 747.006C984.47 752.782 985.242 759.174 982.798 765.075C979.564 772.886 972.197 777.683 964.62 780.665C948.225 787.118 927.902 786.734 911.812 779.582C903.171 775.741 895.149 770.28 886.054 767.506C880.778 765.897 875.375 765.55 870.041 764.346C878.129 769.429 885.002 776.384 887.163 785.981C889.387 795.86 886.021 805.744 880.69 814.037C871.693 828.032 856.529 837.287 840.394 840.647C834.196 841.938 826.662 842.823 820.43 841.372C822.447 840.557 824.286 840.51 825.808 838.856C844.35 836.919 861.558 831.185 873.765 816.298C879.416 809.406 884.258 800.552 883.475 791.36C882.777 783.162 878.111 776.412 871.901 771.335C866.677 767.064 861.054 764.365 854.726 762.156C860.985 768.036 867.321 773.439 871.225 781.232C868.813 778.222 866.424 775.211 863.817 772.366C868.828 782.871 872.093 794.76 867.92 806.157C867.294 807.866 866.411 809.48 865.598 811.104C868.345 798.234 868.631 786.428 861.116 774.986C856.988 768.702 851.345 763.924 845.307 759.574C854.18 770.753 858.233 779.997 856.632 794.586C855.558 804.373 851.27 812.051 844.271 818.828C852.064 804.522 858.454 794.737 853.593 777.793C851.989 772.2 848.804 764.037 844.144 760.408L842.773 760.112C843.26 763.3 846.325 766.801 847.538 769.994C851.872 781.397 851.579 798.871 844.204 808.931Q843.769 809.523 843.326 810.109C848.158 796.031 850.884 781.426 844.078 767.397C842.812 764.789 841.257 762.419 839.23 760.334C838.357 763.574 836.373 766.953 835.866 770.142C834.961 775.841 836.398 781.943 836.286 787.708Q836.276 788.572 836.239 789.435Q836.201 790.298 836.134 791.159Q836.068 792.02 835.974 792.879Q835.879 793.738 835.757 794.593Q835.634 795.448 835.484 796.299Q835.333 797.149 835.155 797.994Q834.976 798.84 834.77 799.679Q834.564 800.517 834.331 801.349Q834.098 802.181 833.837 803.004Q833.576 803.828 833.289 804.643Q833.001 805.457 832.687 806.262Q832.373 807.067 832.033 807.861Q831.693 808.655 831.327 809.437Q830.961 810.22 830.569 810.99Q830.178 811.76 829.761 812.516Q829.344 813.273 828.903 814.016Q828.462 814.758 827.997 815.486Q827.531 816.214 827.042 816.926Q826.553 817.638 826.041 818.334Q825.529 819.03 824.994 819.708Q824.46 820.387 823.903 821.047Q823.347 821.708 822.769 822.35Q822.191 822.992 821.592 823.615Q820.993 824.238 820.374 824.84Q819.756 825.443 819.117 826.025Q818.479 826.608 817.822 827.168Q817.165 827.729 816.49 828.268Q815.815 828.807 815.122 829.324Q814.43 829.841 813.721 830.334Q813.012 830.828 812.287 831.298Q811.563 831.768 810.823 832.214Q810.083 832.66 809.329 833.082Q807.879 833.904 806.394 834.661C808.595 829.142 812.49 826.286 816.732 822.352C830.081 809.976 832.22 792.469 832.054 775.161C823.399 786.536 813.428 795.061 798.832 797.096Q796.438 797.432 794.028 797.624C797.142 808.743 795.943 817.756 790.215 827.841C785.006 837.014 777.765 844.998 770.527 852.603C766.997 856.313 763.103 859.92 760.208 864.159C774.856 852.758 788.012 838.97 808.399 841.406C820.009 842.793 830.223 851.25 837.123 860.22C850.361 877.43 853.118 900.269 850.22 921.29C849.24 928.401 846.359 943.085 840.059 947.485C838.665 948.459 837.062 948.801 835.404 948.409C829.087 946.916 818.853 934.086 813.625 929.551C804.518 921.65 790.611 914.453 778.582 912.916C796.693 920.555 811.672 930.935 819.248 949.763C823.508 960.347 824.295 972.531 819.664 983.132C812.674 999.13 794.767 1009.84 779.115 1015.75C771.733 1018.54 762.321 1020.61 754.85 1017.07C751.535 1015.49 749.532 1013.08 748.192 1009.72C742.496 995.526 751.125 974.975 746.425 957.078C744.98 964.464 742.976 971.937 739.127 978.467C730.862 992.489 711.465 1013.28 695.051 1017.21C690.362 1018.33 685.703 1017.98 681.573 1015.39C671.815 1009.25 658.836 989.063 656.303 977.855C654.343 969.185 657.954 960.168 662.415 952.866C667.951 942.114 679.459 933.403 689.541 927.244C691.071 926.266 692.645 925.325 694.12 924.267C675.131 931.257 649.352 935.917 630.139 927.141C624.178 924.418 620.101 920.332 616.436 914.993C614.246 923.949 608.039 950.156 601.077 955.323C600.922 955.438 600.744 955.519 600.577 955.617C599.938 954.898 600.036 955.282 600.086 954.434C600.462 947.993 603.679 942.113 605.631 936.048C607.955 928.827 610.024 921.217 611.642 913.805C613.919 903.375 610.767 899.062 615.347 887.538Q616.031 885.773 616.818 884.052Q617.605 882.331 618.493 880.66Q619.38 878.989 620.365 877.373Q621.351 875.757 622.43 874.202Q623.509 872.647 624.678 871.159Q625.847 869.671 627.103 868.255Q628.358 866.839 629.695 865.499Q631.032 864.16 632.446 862.902C637.718 858.253 643.466 855.221 649.765 852.237C632.666 856.051 617.419 864.018 600.872 869.193C597.376 886.759 597.512 905.288 591.637 922.306C585.546 939.953 574.225 955.413 567.407 972.74C565.151 978.474 566.018 989.083 561.771 993.29L560.58 993.219C557.406 986.52 561.786 975.309 562.524 968.276C563.296 960.914 562.9 953.377 563.36 945.978C564.152 933.269 567.391 920.688 571.663 908.72Q574.861 900.005 578.878 891.635Q582.895 883.266 587.695 875.319C575.576 881.206 563.776 887.419 550.777 891.172C541.36 906.467 538.516 924.594 536.975 942.243Q535.257 963.117 536.124 984.044C536.661 995.779 537.954 1007.67 537.62 1019.41C537.556 1021.65 537.653 1025.72 535.961 1027.32C533.296 1026.96 531.423 1024.41 529.853 1022.36C516.385 1004.71 513.517 979.208 516.598 957.916C519.568 937.394 528.046 913.553 540.323 896.878L539.478 897.287C532.256 900.738 508.079 908.114 503.944 912.347C494.585 921.928 491.369 936.95 486.291 948.989C480.714 962.214 474.016 976.475 465.321 987.947C461.354 993.182 456.622 997.93 452.268 1002.85C446.892 1008.91 441.745 1015.07 435.841 1020.65C422.561 1033.2 406.912 1043.01 391.826 1053.19C384.997 1057.8 365.777 1074.52 360.277 1076.43C358.573 1076.84 358.3 1076.83 356.629 1076.31C361.596 1066.92 372.197 1059.76 379.514 1052.1C388.391 1042.8 396.896 1033.07 405.408 1023.44C415.659 1011.83 425.648 1000 436.103 988.582C445.465 978.352 455.384 968.572 464.099 957.77C475.809 943.256 484.746 926.752 497.239 912.899C483.036 918.143 468.383 920.449 455.314 928.586C450.662 941.72 452.239 956.044 445.175 968.621C426.216 1002.37 352.125 1026.04 317.56 1043.57Q314.617 1045.09 311.786 1046.81Q308.955 1048.53 306.249 1050.44Q303.544 1052.35 300.977 1054.44Q298.411 1056.53 295.995 1058.8C292.651 1061.96 284.216 1072.55 280.678 1073.52C280.604 1073.3 280.525 1073.08 280.455 1072.86C279.255 1069.03 279.458 1064.06 279.66 1060.09C280.463 1044.28 284.328 1029.84 291.966 1015.96C297.425 1005.71 304.81 996.63 312.844 988.304L312.654 987.785C302.15 986.45 292.962 986.624 282.961 982.285C270.873 986.564 259.213 992.958 247.681 998.562C236.046 1004.22 224.171 1009.48 212.643 1015.33C204.377 1019.53 194.773 1026.55 185.935 1028.8L185.404 1028.05C185.522 1027.4 185.485 1027.42 185.812 1026.7C187.436 1023.14 194.604 1017.96 197.406 1014.46C206.315 1003.35 214.099 992.126 225.254 982.969C247.089 965.044 281.112 953.814 307.15 942.325C318.95 937.118 330.331 930.849 342.259 925.968Q329.845 926.823 317.411 926.329C308.316 925.905 297.702 923.814 288.762 925.655C274.342 928.625 261.072 937.48 247.867 943.741C231.958 951.283 213.861 956.469 196.417 958.88C157.525 964.256 118.744 956.664 83.0625 940.886C74.3375 937.027 64.4253 932.518 56.8975 926.727C55.3979 925.574 54.0287 924.505 53.7742 922.56C57.3904 920.295 83.0561 928.367 88.3143 929.516C93.3054 930.606 98.4647 931.333 103.536 931.958C119.401 933.913 135.487 934.109 151.454 934.487C167.331 934.862 183.318 935.624 199.184 934.826C223.733 933.59 247.79 928.759 271.725 923.405C263.741 921.736 255.51 921.086 247.438 919.908C238.033 918.536 228.444 916.19 218.916 916.308C209.663 916.422 200.357 918.525 191.16 919.548C171.903 921.69 152.972 920.641 133.942 917.188C124.543 915.483 89.1681 908.823 84.6233 902.267C86.325 901.072 89.952 901.973 91.9374 902.36C94.9105 902.941 97.7268 904.036 100.646 904.824Q110.596 907.49 120.625 909.839C150.117 916.495 183.115 919.014 212.874 912.612C201.125 909.314 189.11 907.285 177.417 903.701C149.169 895.042 121.94 883.711 94.6629 872.441C72.0675 863.106 48.7966 854.343 27.0412 843.182C17.7383 838.409 8.89432 832.845 0 827.364L0 825.679C6.35861 822.818 13.9862 824.512 20.6676 825.356C39.2772 827.707 56.8105 831.87 74.3615 838.554C94.9224 846.385 113.489 857.797 132.984 867.795Q144.514 873.805 156.41 879.055Q168.306 884.305 180.518 888.771Q192.729 893.238 205.205 896.903Q217.681 900.568 230.368 903.416C213.695 893.355 204.16 880.939 199.513 862.072C198.342 857.316 196.442 850.748 196.701 845.896C194.041 830.973 192.781 811.081 196.916 796.537C198.958 804.648 198.712 813.134 199.351 821.428C199.786 827.082 200.812 832.584 201.931 838.131L204.376 847.57C213.322 872.247 228.14 894.402 252.709 905.834C264.647 911.389 277.863 910.027 290.534 912.259C267.366 895.081 232.088 858.11 227.883 829.169C226.471 819.453 225.92 796.779 233.379 789.053C233.874 788.54 233.973 788.525 234.509 788.223C235.189 788.538 235.309 788.388 235.493 789.013C236.079 790.992 233.067 800.273 232.649 803.053Q231.683 809.575 231.911 816.164C232.899 848.012 252.06 868.38 272.332 890.44C278.389 897.033 284.966 905.392 292.435 910.348C297.805 913.911 306.778 913.427 313.094 913.522C284.439 899.051 256.455 870.389 246.362 839.443C240.711 822.118 241.185 802.333 249.516 785.865C250.232 784.45 250.985 783.1 252.375 782.261L253.274 782.451C254.997 786.003 250.297 795.233 249.735 799.68C248.782 807.225 249.757 815.02 251.232 822.431C255.911 845.934 266.927 865.069 282.183 883.186C286.06 887.79 289.858 892.461 294.154 896.688C300.437 902.87 307.951 907.43 314.246 913.431C329.204 914.252 343.956 914.471 358.921 913.893C328.199 908.082 307.107 890.483 289.91 865.227C285.554 858.829 272.092 836.99 273.135 829.637L273.96 828.587C276.68 829.35 279.421 835.496 280.739 837.829C284.881 845.164 289.392 852.11 295.013 858.419C313.362 879.015 343.305 896.734 369.737 904.218C399.468 912.637 430.183 915.599 460.784 910.916C468.496 909.736 476.302 908.348 483.613 905.557C468.268 905.613 458.014 902.802 443.266 900.515C435.83 899.362 428.237 899.245 420.775 898.195C399.472 895.199 377.623 886.735 362.151 871.402C355.233 864.547 349.622 856.62 343.584 849.019C339.803 844.258 335.726 839.739 331.841 835.064C351.168 841.047 366.817 852.951 384.405 862.392C395.45 868.32 407.102 872.654 418.269 878.204C413.211 872.622 408.176 867.029 404.183 860.609C387.451 833.705 388.383 799.308 377.406 770.05C370.885 752.667 359.994 739.077 349.969 723.791C356.04 726.445 361.367 729.331 366.425 733.654C379.585 744.9 391.266 766.611 397.582 782.808C408.289 810.262 400.907 832.624 417.31 861.696C411.643 839.422 412.418 813.97 424.416 793.794C434.392 777.016 450.847 767.462 469.389 762.8C473.435 761.783 486.166 758.342 489.849 760.678C490.008 760.779 490.136 760.922 490.279 761.044C490.344 762.131 490.334 762.321 489.584 763.198C485.653 767.791 478.145 770.728 472.937 773.817C465.684 778.12 458.367 782.87 452.662 789.149C440.239 802.822 436.936 824.53 437.734 842.308C438.487 859.058 443.635 878.599 456.431 890.299C463.862 897.094 477.133 902.462 487.23 901.999C501.243 901.357 543.142 882.403 557.849 876.146C526.258 879.101 503.793 871.394 479.467 851.276C475.664 848.131 466.95 840.743 466.2 835.539C466.089 834.764 466.134 834.714 466.222 834.037L467.117 833.398C475.452 834.902 484.258 839.647 492.113 842.887C512.755 851.402 552.956 869.351 575.292 865.305C584.823 863.579 595.565 857.374 604.073 852.768C585.297 849.543 568.008 844.874 556.43 828.393C553.856 824.728 547.499 813.9 547.981 809.466C548.051 808.825 548.1 808.809 548.338 808.311C549.349 808.162 549.023 808.015 549.784 808.566C553.916 811.562 556.05 820.337 558.729 824.772C568.592 841.103 594.464 849.66 612.577 847.88C622.073 846.947 630.951 843.265 640.143 840.966C653.834 837.541 669.81 836.903 683.902 837.327C670.197 841.878 657.566 843.132 644.24 849.715C661.476 847.104 681.856 841.741 697.121 853.163C706.833 860.429 709.666 870.703 716.046 880.217C715.629 876.013 714.479 871.716 713.642 867.568C710.086 852.064 709.481 836.454 712.454 820.811C713.148 817.382 713.948 814.067 714.984 810.724C710.254 813.303 705.091 815.727 699.568 814.272C684.852 810.394 683.894 781.241 681.686 768.847C680.345 761.315 678.501 752.658 674.707 745.936C674.628 745.795 674.544 745.657 674.463 745.518C675.106 753.59 675.129 761.939 674.092 769.971C671.696 788.532 663.647 806.815 648.441 818.397C642.039 823.273 634.777 825.615 626.697 824.363C614.597 822.487 604.192 811.395 597.414 801.948C591.227 793.324 586.759 783.071 588.601 772.258C591.818 753.367 617.697 736.697 632.255 726.318C613.883 733.083 598.447 743.502 577.946 743.265C571.317 743.188 565.246 741.487 558.783 740.444C554.65 739.776 550.138 739.791 546.143 738.547C543.603 737.756 541.382 736.5 539.563 734.539C534.871 729.478 534.365 722.619 534.766 716.072C535.764 699.761 542.745 682.07 555.306 671.24C566.375 661.696 583.314 655.937 597.918 657.15C612.384 658.352 624.059 666.613 632.218 678.361C635.195 682.649 637.574 687.403 641.001 691.358C641.139 691.518 641.283 691.674 641.423 691.832C641.268 683.896 641.644 675.751 640.495 667.888C637.834 649.69 629.96 636.628 639.967 618.643C638.937 626.034 636.146 633.016 636.274 640.6C636.461 651.708 641.69 661.987 643.4 672.886C644.527 680.074 643.172 687.497 644.479 694.703C645.071 697.97 646.979 701.444 648.342 704.469C648.567 699.728 648.955 695.051 649.004 690.295C649.746 691.021 649.809 691.289 650.861 691.504C650.726 694.369 651.036 697.31 651.194 700.173C654.297 691.938 655.918 683.112 659.069 674.783C662.227 667.361 665.988 660.29 669.95 653.271C667.985 662.139 663.09 670.683 660.244 679.365C659.159 683.468 657.783 687.227 657.22 691.471C658.307 690.251 665.019 673.666 666.851 670.378C672.908 659.508 681.565 650.213 687.709 639.504C693.856 628.788 705.631 608.679 701.861 596.121C700.748 592.413 698.249 589.617 694.829 587.849C685.738 583.147 672.258 585.302 662.978 588.348C649.652 592.722 637.533 602.12 631.21 614.795C622.503 632.246 629.11 650.276 634.953 667.486C635.753 670.895 636.315 674.24 636.746 677.715C634.955 674.876 633.252 672.1 631.838 669.052C628.548 660.796 625.544 652.29 623.881 643.544C621.25 629.702 624.094 616.953 632.099 605.342C640.912 592.558 654.939 584.135 670.147 581.446C679.165 579.852 691.297 579.541 699.048 585.257C703.157 588.287 705.44 592.767 706.075 597.78C707.582 609.675 695.976 636.024 688.6 645.53C693.739 640.989 698.841 636.424 705.025 633.327C713.822 628.922 723.984 627.697 733.387 630.896C746.285 635.286 753.986 646.616 759.677 658.357C763.685 650.115 770.219 642.403 772.665 633.542C777.554 615.833 766.081 586.855 756.586 571.944C753.666 567.359 743.971 557.862 743.594 553.131L744.466 552.815C746.401 553.698 747.906 554.998 749.38 556.509C765.26 572.777 777.432 604.055 777.058 626.768C781.86 618.724 786.867 611.871 787.803 602.322L788.605 595.267C792.613 557.858 791.463 550.604 780.113 514.83C776.948 504.854 771.196 487.441 776.382 477.459C777.517 476.616 777.497 476.531 778.892 476.615C781.789 480.381 783.555 487.016 786.144 491.486C807.719 528.73 809.973 549.066 798.801 590.292C803.138 582.07 808.427 574.374 812.816 566.175C819.398 553.876 824.01 541.038 828.595 527.909C830.784 521.639 833.515 515.185 834.466 508.581C836.074 497.401 831.04 484.901 824.411 476.108C813.613 461.784 795.828 453.545 778.372 451.135C752.964 447.628 728.246 453.742 709.536 471.705C703.329 477.664 698.016 484.979 691.091 490.118L690.519 490.538C690.838 480.381 693.818 471.608 698.911 462.816C708.92 445.54 725.188 433.757 744.427 428.737C767.555 422.701 790.178 429.573 810.301 441.283C789.334 419.559 759.554 421.824 733.706 411.717C709.551 402.272 683.037 381.635 672.573 357.372C671.728 355.412 670.745 353.302 671.566 351.196L672.254 350.953C678.419 354.259 682.531 361.183 687.692 365.845C694.321 371.833 702.471 377.441 710.112 382.029C722.715 389.599 736.633 395.431 750.451 400.373C770.493 407.541 791.303 412.854 808.247 426.473C815.28 432.126 820.742 438.82 825.981 446.093C819.309 430.43 808.747 418.428 800.22 403.998C790.349 387.294 783.982 368.902 777.637 350.661C783.924 355.778 789.698 361.465 795.564 367.05C811.707 382.421 819.165 390.818 823.894 413.395C826.047 423.676 826.83 434.284 829.195 444.509C830.807 451.475 834.135 457.72 836.671 464.361C838.65 469.542 840.038 475.01 841.549 480.343C841.329 471.746 842.423 462.85 842.842 454.244C843.834 433.821 843.997 412.098 839.555 392.026C834.659 369.905 811.365 326.084 797.512 307.768C794.158 303.332 790.586 299.035 786.553 295.194C783.142 291.945 767.864 282.063 767.298 278.465L768.261 278.095C785.602 280.94 812.438 310.173 823.078 324.422C831.675 335.937 840.096 349.121 845.061 362.652C857.057 395.345 851.425 436.856 846.036 470.526C844.414 480.659 844.214 491.138 842.183 501.139C839.651 513.613 834.805 525.8 832.995 538.374C838.351 526.849 841.781 514.386 845.945 502.398C849.244 492.898 853.336 483.6 856.073 473.917C858.664 464.752 858.089 457.765 862.082 448.377C872.836 423.096 888.451 400.805 901.749 376.899C906.741 367.925 910.881 358.472 915.021 349.082C920.161 337.425 920.621 330.668 921.485 318.116C917.078 328.315 912.5 338.332 906.042 347.439C895.615 362.141 881.778 375.148 874.477 391.872C867.145 408.665 865.309 428.045 861.897 445.954L859.496 452.186C858.76 446.226 859.077 440.338 859.374 434.363Q860.641 380.985 860.14 327.594L860.027 316.692C859.861 305.489 860.375 294.487 861.366 283.324C861.684 277.202 862.985 270.858 863.879 264.78L864.862 257.386ZM742.817 913.713C755.08 915.258 764.613 919.374 772.351 929.35C773.219 930.469 774.142 931.527 774.11 932.992C770.323 932.438 763.531 916.933 742.941 916.46Q739.296 915.911 735.629 915.543C732.852 914.53 729.964 913.626 727.305 912.332C712.57 924.528 698.914 937.258 687.284 952.487C694.001 936.297 710.451 924.413 723.258 913.116C713.361 917.87 705.002 925.247 696.852 932.49C693.082 935.841 689.442 939.484 685.069 942.048C693.283 933.017 701.889 925.172 711.497 917.657C704.284 920.926 697.44 924.772 690.731 928.978C679.396 937.443 670.157 945.399 662.932 957.791C659.668 965.223 657.082 972.165 660.182 980.243C663.513 988.922 676.565 1008.99 684.948 1012.72C689.29 1014.66 694.629 1013.61 698.84 1011.86C714.861 1005.19 732.762 984.812 739.116 968.865C743.174 958.679 742.691 950.247 738.317 940.286Q737.211 937.821 736.008 935.402C735.411 939.175 734.99 951.198 733.405 953.75C732.327 946.22 732.975 927.462 733.136 919.346C735.864 926.218 739.183 932.668 742.644 939.185C745.712 944.961 749.583 950.981 751.184 957.355C752.354 962.013 752.381 966.933 752.123 971.701C751.61 981.182 749.564 990.533 748.978 1000.03C749.686 1004.15 750.403 1008.45 753.658 1011.42C756.755 1014.25 761.06 1014.91 765.107 1014.59C779.077 1013.5 801.54 1000.36 810.432 989.528C816.358 982.307 819.587 973.695 818.571 964.302C817.046 950.205 808 937.811 797.242 929.099C787.306 921.054 769.912 911.372 756.85 911.199C751.856 911.132 747.164 912.482 742.242 913.001L742.817 913.713ZM792.07 708.583C789.493 709.278 787.027 709.956 784.658 711.22C779.277 714.091 774.741 718.239 769.797 721.758C766.326 724.228 762.442 726.307 759.156 729.008C757.172 730.64 755.225 732.657 753.889 734.862C751.745 738.403 752 742.691 753.09 746.542C754.065 749.986 755.409 753.346 756.697 756.682C759.119 748.265 762.521 740.61 770.562 736.101C774.445 733.923 778.399 733.256 782.759 732.8C771.984 738.669 763.254 741.474 759.464 754.421C758.013 759.379 758.654 762.992 761.183 767.473C766.753 777.342 777.64 788.987 788.877 792.182C796.708 794.408 804.849 792.676 811.796 788.691C821.886 782.903 828.144 773.933 832.574 763.422C833.391 761.691 834.147 760.849 833.797 758.934C832.464 757.622 831.445 757.297 829.63 757.27C821.904 757.154 815.339 760.327 809.058 764.4C813.292 759.678 816.91 756.605 823.565 756.202C827.184 755.983 830.818 756.361 834.439 756.221C830.521 753.334 826.538 750.965 822.231 748.715L822.902 748.894C826.042 749.765 832.46 753.578 835.25 752.537C835.227 751.129 834.302 750.106 833.354 749.142C828.257 743.962 819.823 742.009 813.332 739.173C820.882 739.206 826.904 740.88 832.405 746.372C833.147 747.113 833.804 747.899 834.47 748.706L835.122 749.487C835.255 749.648 835.384 749.813 835.515 749.975C835.148 747.17 834.838 744.35 834.255 741.579C829.268 735.699 823.75 731.963 817.175 728.067C814.296 726.362 811.23 724.828 808.761 722.544C820.048 725.775 826.752 731.649 834.742 740.127C830.637 728.101 824.096 717.546 812.338 711.734C805.884 708.544 799.17 707.709 792.07 708.583ZM865.989 730.493C878.489 716.444 888.523 702.57 890.687 683.322C890.983 680.682 890.882 672.171 891.83 670.69C894.649 676.667 890.439 695.659 888.097 702.132C883.948 713.6 874.855 727.273 865.197 734.713C858.865 742.605 848.682 746.505 841.494 753.508C850.615 748.939 859.5 743.971 867.66 737.818C874.718 732.495 881.184 726.559 888.554 721.621C899.111 714.548 910.997 709.328 920.62 700.938C925.689 696.518 929.94 691.235 932.679 685.064C937.995 673.091 937.173 658.964 932.553 646.913C929.14 638.011 922.438 627.134 913.205 623.334C909.457 621.791 905.498 621.927 901.833 623.66C896.942 625.973 892.432 630.586 889.182 634.827C875.471 652.717 879.966 671.617 878.16 692.493C877.786 696.816 877.348 701.479 875.85 705.574C874.698 710.728 872.662 715.115 870.237 719.786C868.016 723.72 864.489 727.994 863.08 732.199L863.684 732.317L865.989 730.493ZM733.512 815.772C730.126 824.79 727.376 833.37 725.732 842.885C724.43 854.884 723.748 867.793 726.077 879.69L726.1 881.132L726.994 881.337L726.935 881.954L726.042 882.133L726.785 883.176L726.745 883.289C726.801 883.116 726.867 882.945 726.915 882.768C728.345 877.498 728.025 871.13 728.697 865.659C730.427 851.59 735.649 836.156 742.312 823.718C741.175 830.428 738.33 837.032 736.242 843.521C732.667 854.634 730.289 865.795 729.213 877.425C728.926 880.523 728.111 884.689 728.409 887.742C729.449 887.149 732.524 875.841 733.301 873.814C735.373 867.36 738.367 860.579 741.956 854.821C744.87 850.145 756.149 836.779 761.56 835.938C762.482 835.795 762.489 836.026 763.202 836.514C763.165 836.822 763.214 837.154 763.091 837.439C762.453 838.929 751.567 846.561 749.365 848.838C743.124 855.289 738.556 864.987 735.884 873.434L736.265 873.965C741.104 868.984 752.975 847.231 759.036 846.236C756.833 850.053 752.907 853.265 750.097 856.714C745.656 862.164 738.098 872.108 735.075 878.253C732.055 884.39 729.375 893.849 728.692 900.664L729.042 901.242C729.976 899.674 730.364 897.247 731.098 895.501Q732.745 891.563 734.874 887.864Q737.004 884.164 739.582 880.762C753.656 862.163 792.039 830.492 792.193 807.314C792.215 804.02 791.333 800.898 788.948 798.537C780.604 790.278 762.837 794.6 752.535 795.259C745.841 795.688 739.104 795.647 732.399 795.696C721.502 802.652 717.398 810.752 714.57 823.161C711.357 838.499 713.07 854.117 716.566 869.252C717.01 871.07 717.713 873.078 717.892 874.928C720.479 883.393 722.612 892.341 725.835 900.571C726.25 898.042 725.883 895.353 725.729 892.802L724.28 884.461C722.041 873.206 720.739 858.296 722.984 846.84C723.84 834.952 726.358 825.397 733.512 815.772ZM839.573 750.573L845.108 745.644C842.891 733.186 842.755 720.213 835.832 709.165C832.916 704.511 829.141 700.388 826.353 695.683C841.857 707.377 843.365 725.727 846.994 743.232C851.871 737.561 853.132 724.624 852.628 717.419C851.241 697.581 840.5 686.199 831.361 670.146C845.546 683.413 854.532 703.313 855.855 722.7C860.988 705 860.507 682.886 851.472 666.435C844.538 653.811 831.727 644.626 818.004 640.695Q815.779 640.066 813.512 639.617Q811.244 639.167 808.948 638.899Q806.652 638.631 804.342 638.547Q802.032 638.462 799.722 638.562C795.34 639.457 790.394 640.465 787.639 644.386C785.93 646.817 785.784 649.672 786.344 652.508C787.876 660.271 793.922 667.272 798.387 673.575C803.383 680.628 808.024 687.92 812.97 695.007C821.628 707.412 832.355 719.997 837.434 734.378C839.362 739.838 839.672 744.833 839.573 750.573ZM289.173 978.748C285.319 978.533 281.121 977.177 277.366 976.276C280.275 977.69 283.125 979.041 286.22 980.007C320.013 990.549 373.03 977.335 401.44 957.185C417.911 945.503 434.498 927.608 453.364 920.218C459.536 917.8 466.111 918.504 472.473 917.067C483.098 914.668 494.061 910.56 504.363 907.011C517.821 902.374 530.442 896.457 543.385 890.631C550.833 887.278 558.417 884.267 565.767 880.692C575.252 876.078 584.514 871.035 594.145 866.723Q610.681 859.426 627.542 852.913C633.827 850.461 640.536 848.407 646.513 845.273C615.955 852.167 593.714 864.651 566.027 878.223Q542.502 889.695 518.088 899.132C503.997 904.495 488.975 908.752 474.214 911.759C467.283 913.17 459.701 912.956 453.041 915.33C452.206 917.398 451.136 919.426 449.269 920.725C441.925 925.836 432.094 928.067 424.282 932.688C417.773 936.539 411.797 941.381 405.647 945.775C394.03 954.076 382.356 961.446 369.226 967.127C347.259 975.297 325.491 982.221 301.698 980.603C298.004 980.352 292.616 980.096 289.173 978.748ZM314.454 989.35C310.093 996.223 304.283 1002.11 299.692 1008.83C296.582 1013.39 294.672 1018.7 291.64 1023.22C287.746 1033.49 284.431 1043.67 283.261 1054.66C282.997 1057.14 283.17 1059.58 282.99 1062.04C285.233 1060.33 286.472 1057.44 287.665 1054.93C291.9 1048.38 294.939 1040.14 298.542 1033.15C305.865 1018.96 317.69 1002.73 329.268 991.649L333.143 986.645C328.099 986.925 322.862 986.947 317.859 987.542C316.014 987.761 315.656 987.911 314.454 989.35ZM862.26 400.206C863.408 394.577 865.165 389.53 867.485 384.285C875.229 366.067 888.079 351.816 898.66 335.337C905.959 323.969 911.792 311.718 919.131 300.364C918.187 293.014 916.497 284.171 918.069 276.909L918.743 276.343C921.993 279.395 923.122 289.616 923.94 293.79C933.425 275.292 940.356 255.706 949.681 237.208C951.128 234.338 958.722 221.918 958.541 219.846C926.176 244.346 914.396 261.147 897.063 297.733Q885.326 322.021 875.563 347.167C873.703 351.834 871.943 356.582 869.906 361.174C867.032 367.653 863.389 373.286 862.39 380.464C861.488 386.947 861.964 393.685 862.26 400.206ZM872.341 279.643C876.758 268.298 881.449 256.947 885.059 245.315C893.803 217.136 895.186 187.869 891.266 158.737C890.292 151.491 889.986 141.846 886.859 135.165C886.522 134.443 886.422 134.354 886.007 133.799C888.926 166.195 889.927 200.364 883.941 232.5C882.668 239.33 881.151 246.262 879.264 252.949C877.139 260.477 870.859 274.867 871.283 282.186C871.831 281.332 872.082 280.622 872.341 279.643ZM679.503 744.405C681.447 751.704 683.512 759.055 685.059 766.447C687.033 775.877 689.28 804.507 697.554 809.21C700.317 810.78 703.894 810.511 706.802 809.52C717.931 805.725 740.859 783.398 745.875 772.702C750.055 763.787 749.814 754.019 746.379 744.897C741.379 731.619 730.905 723.708 718.309 718.076C707.335 713.169 693.672 710.208 681.638 711.726C672.725 712.69 662.897 713.459 654.532 716.786L654.333 717.344C655.682 718.028 656.822 718.234 657.475 719.643L657.147 720.393C655.934 720.093 654.57 719.149 653.48 718.953C650.145 718.353 643.244 722.607 640.469 724.282C626.391 732.781 595.177 756.451 591.547 772.784C589.804 780.626 593.868 789.32 598.085 795.696C604.655 805.629 615.377 816.823 627.555 819.27C633.833 820.531 639.91 819.113 645.159 815.499C659.004 805.969 667.664 787.175 670.453 771.084C671.615 764.38 672.479 756.179 671.42 749.452C670.67 744.689 663.404 727.617 664.757 724.781L665.469 724.496C675.965 732.591 686.448 751.817 688.341 764.742C686.061 762.233 684.782 755.372 683.38 752.014C682.282 749.381 680.911 746.883 679.503 744.405ZM218.945 1007.89Q248.021 993.288 277.585 979.699C276.093 978.713 274.863 978.041 274.07 976.392C274.209 975.006 274.349 974.412 275.51 973.535C280.8 969.539 296.292 969.191 304.062 965.542C320.342 957.895 334.761 947.981 349.943 938.47C357.78 933.56 365.934 929.231 373.814 924.421C368.674 924.421 363.456 924.237 358.332 924.652C355.615 925.081 352.469 925.332 349.884 926.252C344.238 928.262 338.442 932.391 333.225 935.372Q324.348 940.347 315.258 944.923C299.069 953.263 282.07 959.738 265.893 967.94C241.925 980.091 223.886 996.052 204.478 1014.29C209.312 1012.19 214.181 1010.14 218.945 1007.89ZM920.925 348.774L920.531 349.491C918.012 354.127 916.762 359.286 914.234 363.873C899.474 390.65 881.443 415.839 867.971 443.303C864.354 450.661 861.516 458.113 858.933 465.882C874.097 447.034 890.002 429.477 901.798 408.148C910.289 392.795 913.377 376.429 920.938 361.49C934.787 334.127 965.452 316.008 992.732 304.489C1000.33 301.281 1008.29 298.045 1016.3 296.022C1012.38 296.053 1008.35 295.908 1004.45 296.294C978.361 297.892 956.123 308.059 938.684 327.615C928.135 339.444 922.409 352.85 916.7 367.387C915.181 371.254 913.946 375.359 912.158 379.101C911.739 379.977 911.339 381.337 910.413 381.642C909.827 373.999 918.595 357.293 920.925 348.774ZM748.907 739.075C749.792 736.368 750.667 733.839 751.998 731.31C755.215 727.294 759.094 724.564 763.328 721.702C757.429 722.028 750.605 721.645 745.237 718.896C743.623 721.804 742.072 724.786 740.261 727.575C743.305 731.322 746.189 735.078 748.907 739.075ZM760.361 430.93C741.139 432.152 723.07 438.894 710.176 453.676C702.3 462.706 698.385 472.63 694.426 483.76C710.47 462.62 725.509 450.351 752.57 446.592C761.594 445.339 770.549 445.632 779.571 446.707C798.305 449.814 817.596 457.255 829.088 473.204C833.05 478.702 835.05 485.241 838.788 490.822C834.712 472.061 823.711 455.33 807.499 444.906C794.879 436.792 775.621 429.482 760.361 430.93ZM449.305 892.372C452.617 894.279 455.899 896.137 459.372 897.735C443.536 884.897 436.78 868.964 434.72 848.872C432.643 828.614 434.977 804.565 448.35 788.217C453.496 781.924 460.244 776.599 467.257 772.532C470.343 770.743 473.851 769.317 476.77 767.295C477.347 766.895 478.25 766.489 478.37 765.777L477.384 765.76C458.752 769.961 440.133 777.992 429.446 794.665C418.194 812.221 416.949 836.267 421.405 856.155C424.878 871.658 432.32 881.849 445.771 890.258Q447.515 891.354 449.305 892.372ZM721.98 908.204C712.394 898.263 694.797 895.81 681.991 892.319C692.387 892.324 700.326 895.222 709.92 899C701.685 893.589 692.698 889.41 684.576 883.854C687.83 884.861 690.96 885.967 693.983 887.548C696.891 889.068 713.195 900.15 715.246 899.728C705.893 891.419 696.168 880.156 684.432 875.377C679.294 873.285 673.707 873.603 668.622 871.185C691.403 871.234 700.023 885.337 716.663 897.562C704.503 880.239 692.415 866.977 672.456 858.677C696.448 861.961 706.37 882.476 720.968 898.773C718.51 892.973 715.342 887.512 712.419 881.939C706.135 869.962 701.07 858.341 687.658 852.91C675.912 848.155 662.05 850.454 650.757 855.394Q649.409 855.975 648.091 856.622Q646.773 857.269 645.489 857.98Q644.204 858.692 642.957 859.467Q641.71 860.242 640.503 861.077Q639.296 861.913 638.132 862.808Q636.968 863.703 635.85 864.654Q634.732 865.606 633.663 866.612Q632.593 867.618 631.576 868.676Q630.557 869.734 629.593 870.841Q628.629 871.948 627.721 873.102Q626.814 874.255 625.964 875.453Q625.115 876.651 624.326 877.889Q623.538 879.127 622.811 880.403Q622.085 881.679 621.424 882.989Q620.762 884.3 620.166 885.641Q619.57 886.983 619.042 888.353C616.237 895.755 615.315 903.786 618.711 911.203C621.746 917.831 627.511 922 634.208 924.38C656.19 932.192 682.952 925.958 703.294 916.054C709.259 913.15 715.309 909.152 721.98 908.204ZM423.378 918.053L424.567 917.633C423.065 916.797 420.575 917.095 418.856 917.067C403.724 916.815 388.228 916.714 373.11 917.258C362.516 917.639 351.942 918.723 341.335 918.682C284.568 918.461 205.273 908.891 152.51 888.124C135.032 881.244 118.329 872.613 101.055 865.26C80.7511 856.616 60.2982 849.503 39.5626 842.085C32.0445 839.395 24.3533 834.744 16.5683 833.128C20.5334 836.289 26.2485 838.515 30.8263 840.719C48.9048 849.424 67.5578 856.725 86.1659 864.195C119.194 877.453 152.251 891.443 186.405 901.571Q195.745 904.257 205.178 906.599Q214.611 908.941 224.123 910.935Q233.636 912.929 243.215 914.573Q252.794 916.217 262.427 917.509Q272.06 918.8 281.733 919.737Q291.407 920.674 301.109 921.256Q310.811 921.838 320.527 922.063Q330.244 922.288 339.962 922.157C352.173 922.007 364.282 920.836 376.469 920.306C392.142 919.624 407.74 919.511 423.378 918.053ZM769.907 685.651C770.228 690.533 769.522 694.074 767.934 698.665C769.629 702.555 771.442 706.416 772.556 710.522C772.747 711.857 772.758 713.194 772.795 714.539C778.841 710.281 784.463 706.118 791.813 704.438C801.264 702.277 810.68 705.275 818.653 710.352C812.074 702.856 806.844 694.302 801.631 685.841C797.565 679.243 793.201 670.677 787.332 665.568C780.182 669.332 774.784 675.059 769.709 681.23L769.907 685.651ZM704.753 386.949C702.118 385.284 699.814 383.461 697.451 381.434C693.211 378.065 689.529 374.2 685.82 370.268L685.36 370.447L685.661 371.144L685.557 370.164C685.588 370.361 685.593 370.564 685.649 370.755C686.232 372.767 688.738 375.045 690.129 376.584C701.373 389.013 715.714 399.621 731.045 406.436C745.161 412.71 761.278 415.397 776.049 420.063C764.178 412.258 748.295 410.335 736.438 403.053C733.075 401.702 729.925 400.205 726.742 398.473C719.294 396.542 710.994 391.329 704.753 386.949ZM318.062 969.585C326.903 969.908 336.14 970.568 344.59 967.457C354.945 963.644 363.32 955.611 372.448 949.622C386.994 940.078 407.247 930.622 423.855 925.645C428.564 924.234 434.469 923.087 438.555 920.239L438.237 919.775L436.967 919.968C430.161 920.936 423.398 921.755 416.542 922.261C409.366 922.79 401.982 922.962 394.911 924.351C376.554 927.956 355.208 948.616 338.529 958.661Q332.55 962.293 326.209 965.246C323.781 966.357 317.907 967.725 316.35 969.489C316.932 969.55 317.477 969.634 318.062 969.585ZM952.878 553.95C934.146 540.028 910.223 534.152 887.032 536.544C868.81 539.298 853.599 544.037 837.29 552.812L837.76 552.706C850.51 549.724 862.121 544.54 875.596 545.496C856.999 550.402 844.53 552.344 827.969 563.518C835.37 560.454 842.436 556.761 850.053 554.225C884.259 544.377 918.242 550.317 952.878 553.95ZM184.689 948.623C162.875 950.811 140.681 949.571 118.866 947.977C151.208 958.387 193.318 958.891 225.554 947.981C245.018 941.393 263.585 931.516 282.427 923.325C279.115 923.749 275.781 923.835 272.512 924.589C264.666 926.4 257.175 929.922 249.688 932.821C243.777 935.109 237.792 936.98 231.714 938.769C216.119 943.322 200.894 947.082 184.689 948.623ZM368.173 966.014C388.427 957.777 404.674 942.543 423.5 931.738C406.49 937.145 389.366 944.923 373.983 953.981C364.064 959.823 355.174 967.842 343.988 971.272C329.609 975.68 292.605 971.905 285.902 974.922C286.27 975.739 285.976 975.349 286.942 975.953C312.779 982.604 343.774 975.663 368.173 966.014ZM567.331 962.557C581.417 934.464 591.106 920.318 593.65 887.294C593.978 883.032 595.185 877.572 594.222 873.379C580.003 890.262 564.548 938.758 566.929 960.789C566.997 961.412 567.153 961.959 567.331 962.557ZM737.059 908.142L736.074 908.984C738.581 909.341 741.289 907.876 743.59 906.973C748.161 904.74 752.72 902.3 757.539 900.646C767.154 896.454 780.431 895.032 790.371 898.881C793.324 900.025 796.194 901.639 798.888 903.297C779.568 897.364 775.656 898.224 756.456 903.871C752.749 905.602 748.928 907.226 745.335 909.181C749.656 908.381 753.908 907.731 758.288 907.355C760.777 907.118 763.27 906.846 765.769 906.733C785.998 905.821 805.868 914.708 820.468 928.328C825.653 933.165 830.074 938.766 835.317 943.543L835.869 944.041C838.926 941.259 840.982 938.715 842.692 934.899C849.829 918.967 848.596 894.373 842.426 878.336C837.663 865.954 828.427 853.414 815.972 847.974C807.572 844.305 798.84 844.742 790.421 848.115C774.142 854.635 742.591 882.907 735.579 899.034L735.777 899.028L737.774 896.895C750.746 883.197 766.073 864.239 785.176 859.929L786.14 859.707C786.333 859.664 786.527 859.624 786.72 859.583C773.24 866.209 762.965 874.624 752.524 885.27C748.371 889.505 744.272 894.251 739.582 897.881C737.972 899.332 736.347 900.66 735.17 902.503C740.378 900.883 744.777 897.154 749.072 893.906C763.842 882.739 777.771 871.075 797.174 870.982C789.517 873.854 781.993 874.908 774.615 878.766C778.355 878.186 781.844 876.688 785.69 876.477C786.743 876.419 787.641 876.408 788.446 877.126C788.097 878.38 783.498 878.799 781.9 879.265C768.966 883.034 756.482 892.229 745.699 899.998C751.662 897.877 757.38 894.96 763.314 892.701C770.612 889.24 778.803 887.412 786.727 886.075C778.956 890.476 770.473 892.877 762.126 895.913C753.744 899.989 745.215 903.598 737.059 908.142ZM738.838 791.274C749.676 792.421 762.686 790.476 773.411 788.777C766.215 781.744 760.43 774.844 756.499 765.486C755.133 762.234 754.21 758.524 752.587 755.432C752.276 767.632 749.921 775.272 742.962 785.326C746.14 782.794 752.741 776.048 756.707 775.641C757.078 776.535 756.955 776.793 756.569 777.668C754.41 782.565 743.641 788.667 738.838 791.274ZM696.404 705.41C702.628 707.749 725.55 712.08 732.046 712.03C721.08 707.254 708.441 704.148 696.404 705.41ZM385.568 913.338C358.089 907.409 334.255 897.55 311.83 880.316C307.819 877.233 301.059 868.685 297.049 867.022C313.645 891.322 340.166 906.755 368.901 912.125C374.34 913.142 380.036 913.791 385.568 913.338ZM785.646 362.75C794.577 387.522 803.59 403.05 817.298 425.328C819.1 428.256 822.159 434.848 824.972 436.715C822.975 417.045 818.513 398.219 805.457 382.731C802.248 378.924 798.502 375.587 794.933 372.124C791.859 369.142 788.895 365.429 785.646 362.75ZM905.333 472.726C931.772 459.605 949.672 446.38 971.687 426.628C976.494 422.315 982.608 417.591 986.348 412.318L986.002 411.764C965.761 427.379 943.519 439.995 923.167 455.561C916.838 460.402 909.651 465.409 905 471.973L905.192 472.648L905.333 472.726ZM485.641 938.678C480.057 947.08 474.71 956.107 468.344 963.938C457.926 976.755 445.444 987.754 433.925 999.545C420.821 1012.96 408.383 1027.02 395.398 1040.55L395.631 1040.81C397.886 1040.08 444.078 999.794 448.931 995.363Q454.958 989.956 460.342 983.907C466.751 976.606 471.837 968.409 476.26 959.786C478.14 956.12 485.909 941.87 485.641 938.678ZM369.387 743.951C375.188 754.958 381.567 765.202 385.426 777.146C394.565 805.424 394.621 836.548 410.683 862.474C412.744 865.801 415.723 870.237 419.285 872.02C405.81 851.467 403.301 838.767 400.681 814.911C399.781 806.711 398.859 798.62 396.327 790.717C393.236 781.069 387.423 772.775 382.496 764.034C378.628 757.173 375.486 749.206 369.387 743.951ZM109.026 863.512C85.4691 850.145 61.0447 838.066 33.7876 834.643C36.2528 836.195 38.8152 837.357 41.5153 838.435C53.659 843.286 66.3208 846.954 78.565 851.613C85.638 854.305 102.467 862.39 109.026 863.512ZM716.296 712.568C723.77 716.311 730.74 720.63 737.726 725.198C738.644 724.516 738.947 723.953 739.434 722.928L741.431 717.792C733.71 715.678 724.274 712.504 716.296 712.568ZM238.731 934.047C215.07 938.917 192.004 939.414 167.948 940.396C148.33 941.198 128.61 942.519 109.033 940.306C104.857 939.834 100.675 939.174 96.6374 937.988C93.42 937.042 90.0651 935.638 86.7682 935.099C85.9744 934.969 86.3107 934.993 85.4436 935.55L85.681 935.858L85.686 935.021L85.5382 935.415C90.2947 936.953 95.0385 938.876 99.8618 940.134C124.564 946.577 150.132 946.795 175.476 946.743C193.067 946.386 210.823 942.953 227.714 938.172C231.477 936.981 235.243 935.928 238.731 934.047ZM810.969 316.449C818.574 330.758 827.911 344.036 835.163 358.584Q839.381 367.097 842.769 375.974C844.019 379.279 844.911 383.68 846.71 386.665C843.786 364.713 832.907 344.325 820.016 326.599C817.789 323.537 814.785 318.774 811.651 316.764C811.44 316.629 811.196 316.554 810.969 316.449ZM529.709 1011.48C531.21 1014.37 532.678 1017.26 534.418 1020.01C534.275 1009.36 533.059 998.742 532.526 988.109C531.899 975.591 532.003 962.688 532.412 950.167C532.605 944.261 533.173 938.245 534.06 932.407C534.953 926.527 537.444 918.548 536.815 912.791C523.984 939.206 514.143 969.908 524.281 998.899C525.796 1003.23 527.714 1007.36 529.709 1011.48ZM865.985 465.841C875.846 463.102 885.951 461.201 895.513 457.476C919.255 448.227 933.97 425.71 946.028 404.396C959.772 380.1 967.511 352.706 982.051 329.52C987.794 320.361 994.79 313.722 1003.23 307.122C1004.73 305.943 1007.55 304.331 1008.38 302.643L1008.05 302.437C979.105 314.286 936.982 332.391 924.109 362.847C918.977 374.989 917.017 388.17 911.65 400.206C904.438 416.38 892.226 429.442 882.619 444.134C890.029 438.371 897.794 433.126 905.27 427.463C909.833 424.007 914.031 419.878 918.874 416.843C914.15 425.585 905.394 432.222 897.704 438.32C886.557 446.909 875.48 455.374 865.985 465.841ZM919.648 308.566C914.571 317.513 909.91 326.832 904.399 335.511C898.17 345.321 871.723 377.349 872.754 386.654C875.217 381.611 878.057 376.957 881.281 372.363C889.258 360.996 921.172 322.358 919.648 308.566ZM791.009 600.4C793.605 597.692 799.21 571.165 800.179 565.487C804.725 538.852 797.186 516.14 781.801 494.281C783.156 504.626 786.047 514.78 788.566 524.885C795.294 551.88 795.957 567.983 791.446 595.629C791.238 597.209 790.949 598.802 791.009 600.4ZM477.354 841.783C502.204 861.985 526.145 875.917 559.592 872.356Q561.089 872.189 562.549 871.823L562.445 870.652C557.452 867.089 538.946 865.424 531.737 863.341C512.957 857.914 495.893 847.842 477.354 841.783ZM348.439 848.137C354.942 856.128 361.433 864.473 369.253 871.238C385.59 885.37 409.658 891.367 430.816 893.509C434.066 893.838 437.29 894.062 440.558 894.042C424.893 884.737 407.573 879.497 391.294 871.386C376.823 864.176 363.342 854.328 348.439 848.137ZM866.954 264.147L866.779 264.851C865.37 273.467 863.807 282.135 862.877 290.819C862.177 299.432 861.252 308.076 861.711 316.726L862.196 316.738C864.045 311.594 863.9 304.878 864.443 299.44Q865.22 291.944 866.652 284.545C869.412 270.44 873.828 256.682 876.862 242.632C883.161 213.457 884.065 184.005 882.065 154.302C881.336 143.478 880.957 130.378 877.491 120.086C877.07 124.85 878.337 129.911 878.488 134.719C878.776 143.921 878.42 153.241 878.104 162.447C876.93 196.667 872.755 230.428 866.954 264.147ZM767.332 692.143C767.682 684.475 765.475 679.415 761.24 673.263C758.826 670.724 756.622 667.977 754.374 665.291Q748.677 659.225 742.601 653.54C740.068 651.182 736.2 648.635 734.246 645.874C742.536 649.98 753.737 658.812 758.786 666.692C760.141 668.029 761.399 669.418 762.653 670.851C760.038 659.331 748.747 645.268 738.855 639.017C731.645 634.459 723.326 632.958 714.988 634.846C695.908 639.167 678.176 662.624 668.265 678.633C662.711 687.605 658.795 697.756 656.12 707.947C666.495 690.11 671.455 676.293 689.623 664.186C694.584 660.88 700.006 657.836 705.797 656.272C708.053 655.663 710.369 655.235 712.668 654.827C693.172 663.023 682.796 668.916 670.796 686.919C685.575 674.445 702.532 668.241 721.828 668.456C699.001 674.417 681.645 677.17 665.626 696.899C668.235 695.392 670.768 693.995 673.555 692.834C688.438 687.279 698.932 685.195 714.793 686.615L714.202 686.728C699.553 689.419 689.426 688.663 674.846 694.811C670.569 697.166 665.684 700.273 663.227 704.649L663.574 705.077L665.855 703.744C675.205 698.038 684.829 694.591 695.821 697.297Q697.66 697.768 699.475 698.325C687.807 698.408 679.051 699.446 668.526 704.978C665.301 706.905 663.009 708.808 660.844 711.954C667.592 709.713 674.47 708.087 681.233 705.953C685.768 704.522 690.272 702.655 694.929 701.669C711.916 698.072 726.796 705.666 741.584 712.829C747.813 715.846 754.675 718.739 761.726 718.715C764.996 718.703 769.075 717.481 770.738 714.377C771.056 713.783 771.25 713.127 771.457 712.489C769.71 706.137 766.411 700.809 762.416 695.626C758.403 689.934 752.282 685.193 748.941 679.254L749.345 678.864C749.561 678.919 749.78 678.965 749.993 679.029C754.899 680.507 761.206 689.793 763.633 694.022C764.383 694.902 764.899 695.95 766.058 696.16L767.332 692.143ZM976.407 426.428C971.341 432.691 965.246 438.146 959.093 443.324C931.203 466.796 901.022 478.862 868.931 494.766C866.997 495.725 856.325 500.299 856.141 501.484L856.249 501.54C866.699 498.458 877.473 496.025 887.779 492.529C913.934 483.659 936.902 467.823 956.814 448.948C962.962 443.121 972.007 434.939 976.356 427.804C976.624 427.363 976.662 427.154 976.793 426.708L976.407 426.428ZM906.33 579.587C889.879 584.832 872.282 586.091 855.297 588.796C843.764 590.633 832.504 593.519 821.132 596.112C815.961 597.292 809.776 597.448 804.938 599.476L804.943 600.095C805.951 600.397 806.93 600.686 807.965 600.888C839.514 605.266 861.471 601.582 890.397 588.39C895.13 586.231 901.921 583.837 905.992 580.614C906.468 580.238 906.506 580.142 906.822 579.72L906.33 579.587ZM289.159 1055.87L289.758 1056.99C293.098 1055.42 296.653 1051.05 299.772 1048.71C305.814 1044.19 312.561 1040.2 319.271 1036.73C330.435 1030.96 342.438 1026.88 353.978 1021.93C378.374 1011.47 402.664 999.052 424.038 983.215C445.588 967.249 446.211 957.96 449.907 933.035C435.492 947.474 418.94 967.374 400.45 976.102C398.435 977.054 395.443 978.54 393.249 977.753L393.197 976.859C394.433 975.135 412.012 963.226 416.43 959.404C426.941 950.311 435.64 939.183 446.414 930.409C450.655 926.956 455.841 924.6 460.289 921.351C443.611 926.983 431.155 938.974 417.581 949.609C406.937 957.95 395.978 965.69 383.779 971.605Q373.884 976.382 363.442 979.804C356.834 981.921 340.952 983.578 336.31 987.823Q335.263 988.786 334.286 989.82C323.005 1002.14 312.134 1014.9 303.543 1029.29C300.419 1034.53 292.385 1053.2 289.159 1055.87ZM547.04 734.713C554.457 730.905 561.755 728.01 569.921 726.267C565.285 729.248 558.406 729.981 554.601 733.954L554.555 734.446L556.399 734.685C561.906 732.845 568.999 729.941 574.78 731.542L575.695 732.406C574.841 733.532 573.497 733.717 572.133 733.891C567.389 734.496 562.653 734.917 557.92 735.656C559.403 736.191 560.921 736.704 562.46 737.05C577.493 740.427 594.074 737.692 608.033 731.61C614.43 728.823 620.623 725.334 627.12 722.823C632.596 720.707 640.046 719.941 644.89 716.837C639.942 717.474 634.807 717.349 629.816 717.777C623.898 718.284 618.189 719.516 612.392 720.729C609.072 721.424 602.197 723.659 599.033 722.551C599.124 722.428 599.201 722.294 599.306 722.183C603.933 717.268 633.663 714.175 641.071 714.021C639.98 712.683 638.912 711.588 638.573 709.839C640.786 709.63 649.265 714.57 652.002 715.631L651.681 715.13C649.026 710.935 644.853 708.495 641.98 704.626C640.32 702.39 640.459 698.839 638.32 697.069C632.109 694.327 627.185 688.453 622.07 684.087C610.063 673.836 597.989 669.038 582.208 670.237L582.261 669.903C584.612 669.053 586.957 668.509 589.444 668.289C603.052 667.089 616.633 675.107 626.293 684.003C630.242 687.64 633.787 691.779 637.915 695.205L638.292 695.512C637.113 687.021 624.614 674.111 617.95 669.083C608.489 661.944 598.089 660.286 586.522 662.028C572.686 664.112 559.348 670.53 550.964 682.002C543.684 691.963 539.637 705.357 539.055 717.607C546.721 712.546 554.267 709.877 563.204 707.932C555.209 711.879 546.837 714.99 538.873 719.001C539.218 724.002 539.37 728.986 543.586 732.434C544.635 733.292 545.886 734.004 547.04 734.713ZM246.631 906.739L246.019 906.276C241.572 902.946 236.37 900.738 232.014 897.343C216.254 885.06 205.705 864.728 200.979 845.647C200.684 844.531 200.572 843.472 200.445 842.33C200.169 841.304 199.861 840.785 199.177 839.975C201.271 866.855 210.186 884.432 230.936 901.791C235.069 905.249 241.503 905.711 246.631 906.739ZM875.813 748.659C871.893 750.278 856.997 754.685 854.881 756.213L858.589 756.037C862.902 755.37 867.524 755.432 871.888 755.253C877.484 755.152 883.064 754.528 888.619 753.894C892.334 753.435 896.011 753.1 899.749 752.907C907.869 752.247 916.699 754.55 923.562 758.905C916.842 757.724 910.11 756.411 903.342 755.542C899.839 755.6 896.236 755.496 892.776 756.057C887.716 756.731 882.385 757.55 877.276 757.315C872.066 757.805 866.597 757.761 861.454 758.638C870.246 762.314 879.701 761.544 888.743 764.232C898.069 767.004 906.334 772.871 915.22 776.758C930.388 783.392 948.801 783.113 964.129 777.072C970.603 774.521 976.975 770.397 979.704 763.695C981.674 758.857 981.029 753.832 979.095 749.102C975.112 739.363 966.81 731.465 957.155 727.433C935.625 718.442 919.353 731.231 900.48 739.672C892.508 743.237 883.904 745.334 875.813 748.659Z"></path><path fill="#16751C" transform="scale(0.150391 0.150418)" d="M802.288 962.04C802.82 962.469 802.868 962.468 803.355 963.085C807.085 967.814 806.396 979.502 805.794 985.106L805.141 984.965C802.405 980.04 802.572 968.043 802.288 962.04Z"></path><path fill="#0F6D19" transform="scale(0.150391 0.150418)" d="M783.35 985.87C783.884 986.368 784.09 986.836 784.283 987.558C785.641 992.641 781.433 1001.47 778.523 1005.54L778.182 1005.1C777.436 1000.58 781.773 990.355 783.35 985.87Z"></path><path fill="#16751C" transform="scale(0.150391 0.150418)" d="M819.004 876.045C825.054 878.328 830.23 884.412 833.967 889.474C840.161 897.864 845.963 908.32 844.303 919.06L843.55 919.076C841.405 916.331 840.42 904.082 837.926 899.405C835.238 894.364 832.056 889.916 828.064 885.823C825.044 882.726 821.19 879.791 819.004 876.045Z"></path><path fill="#0F6D19" transform="scale(0.150391 0.150418)" d="M911.204 743.265C913.368 743.008 916.723 742.485 918.642 743.644L918.537 744.279C915.661 745.801 910.31 745.459 906.995 745.861C900.046 746.704 893.357 748.432 886.598 750.185C883.016 750.801 879.503 751.378 875.871 751.583C888.234 745.941 898.05 744.853 911.204 743.265Z"></path><path fill="#16751C" transform="scale(0.150391 0.150418)" d="M901.125 762.695C897.12 761.36 888.593 761.616 885.894 758.792L886.172 758.105C890.149 757.392 896.443 758.706 900.351 759.699C906.049 761.417 915.465 764.811 918.846 770.019L918.365 770.422C912.807 769.016 906.317 765.251 901.125 762.695Z"></path><path fill="#0F6D19" transform="scale(0.150391 0.150418)" d="M957.858 760.655C960.92 760.501 964.525 759.98 967.278 761.581L966.973 762.295C964.457 763.348 961.682 763.231 958.991 763.345C955.905 763.369 952.551 763.692 949.718 762.285L949.91 761.606C952.497 760.621 955.127 760.719 957.858 760.655Z"></path><path fill="#0D5D10" transform="scale(0.150391 0.150418)" d="M726.077 879.69L726.1 881.132L726.994 881.337L726.935 881.954L726.042 882.133L726.785 883.176L726.745 883.289C726.801 883.116 726.867 882.945 726.915 882.768C728.345 877.498 728.025 871.13 728.697 865.659C730.427 851.59 735.649 836.156 742.312 823.718C741.175 830.428 738.33 837.032 736.242 843.521C732.667 854.634 730.289 865.795 729.213 877.425C728.926 880.523 728.111 884.689 728.409 887.742C727.416 889.39 726.737 891.187 725.729 892.802L724.28 884.461C725.461 882.749 725.854 881.751 726.077 879.69Z"></path><path fill="#0F6D19" transform="scale(0.150391 0.150418)" d="M742.817 913.713C755.08 915.258 764.613 919.374 772.351 929.35C773.219 930.469 774.142 931.527 774.11 932.992C770.323 932.438 763.531 916.933 742.941 916.46L742.817 913.713Z"></path><path fill="#0F6D19" transform="scale(0.150391 0.150418)" d="M763.314 892.701C770.612 889.24 778.803 887.412 786.727 886.075C778.956 890.476 770.473 892.877 762.126 895.913L761.903 895.091L763.314 892.701Z"></path><path fill="#16751C" transform="scale(0.150391 0.150418)" d="M899.749 752.907C907.869 752.247 916.699 754.55 923.562 758.905C916.842 757.724 910.11 756.411 903.342 755.542C901.156 754.94 899.234 754.682 896.986 754.607L896.248 754.588C897.454 754.084 898.594 753.513 899.749 752.907Z"></path><path fill="#16751C" transform="scale(0.150391 0.150418)" d="M735.17 902.503C740.378 900.883 744.777 897.154 749.072 893.906C763.842 882.739 777.771 871.075 797.174 870.982C789.517 873.854 781.993 874.908 774.615 878.766C778.355 878.186 781.844 876.688 785.69 876.477C786.743 876.419 787.641 876.408 788.446 877.126C788.097 878.38 783.498 878.799 781.9 879.265C768.966 883.034 756.482 892.229 745.699 899.998C751.662 897.877 757.38 894.96 763.314 892.701L761.903 895.091L762.126 895.913C753.744 899.989 745.215 903.598 737.059 908.142C735.579 906.658 734.734 907.033 732.691 906.962C732.585 906.49 734.872 904.367 735.171 903.11L735.17 902.503Z"></path><path fill="#16751C" transform="scale(0.150391 0.150418)" d="M733.301 873.814C735.373 867.36 738.367 860.579 741.956 854.821C744.87 850.145 756.149 836.779 761.56 835.938C762.482 835.795 762.489 836.026 763.202 836.514C763.165 836.822 763.214 837.154 763.091 837.439C762.453 838.929 751.567 846.561 749.365 848.838C743.124 855.289 738.556 864.987 735.884 873.434L736.265 873.965C741.104 868.984 752.975 847.231 759.036 846.236C756.833 850.053 752.907 853.265 750.097 856.714C745.656 862.164 738.098 872.108 735.075 878.253C732.055 884.39 729.375 893.849 728.692 900.664L729.042 901.242L729.106 905.239C728.048 904.783 727.257 904.312 726.349 903.603C725.795 902.427 725.692 901.864 725.835 900.571C726.25 898.042 725.883 895.353 725.729 892.802C726.737 891.187 727.416 889.39 728.409 887.742C729.449 887.149 732.524 875.841 733.301 873.814Z"></path><path fill="#16751C" transform="scale(0.150391 0.150418)" d="M329.268 991.649C331.077 992.636 332.198 990.247 334.286 989.82C323.005 1002.14 312.134 1014.9 303.543 1029.29C300.419 1034.53 292.385 1053.2 289.159 1055.87L288.808 1055.97L287.665 1054.93C291.9 1048.38 294.939 1040.14 298.542 1033.15C305.865 1018.96 317.69 1002.73 329.268 991.649Z"></path><path fill="#16751C" transform="scale(0.150391 0.150418)" d="M712.454 820.811C714.056 821.607 713.998 821.476 714.57 823.161C711.357 838.499 713.07 854.117 716.566 869.252C716.468 869.129 716.376 869 716.27 868.883C715.184 867.692 715.199 867.593 713.642 867.568C710.086 852.064 709.481 836.454 712.454 820.811Z"></path><path fill="#16751C" transform="scale(0.150391 0.150418)" d="M689.541 927.244L690.731 928.978C679.396 937.443 670.157 945.399 662.932 957.791C662.328 956.243 662.454 954.505 662.415 952.866C667.951 942.114 679.459 933.403 689.541 927.244Z"></path><path fill="#16751C" transform="scale(0.150391 0.150418)" d="M312.844 988.304L314.454 989.35C310.093 996.223 304.283 1002.11 299.692 1008.83C296.582 1013.39 294.672 1018.7 291.64 1023.22L291.174 1022.66C291.88 1021.11 292.486 1019.66 292.883 1018.01C293.066 1017.24 292.367 1016.61 291.966 1015.96C297.425 1005.71 304.81 996.63 312.844 988.304Z"></path><path fill="#22802A" transform="scale(0.150391 0.150418)" d="M888.619 753.894C892.334 753.435 896.011 753.1 899.749 752.907C898.594 753.513 897.454 754.084 896.248 754.588L896.986 754.607C899.234 754.682 901.156 754.94 903.342 755.542C899.839 755.6 896.236 755.496 892.776 756.057C887.716 756.731 882.385 757.55 877.276 757.315C872.066 757.805 866.597 757.761 861.454 758.638C861.378 758.633 861.298 758.647 861.225 758.623C859.845 758.157 859.41 757.162 858.589 756.037C862.902 755.37 867.524 755.432 871.888 755.253C877.484 755.152 883.064 754.528 888.619 753.894Z"></path><path fill="#0F6D19" transform="scale(0.150391 0.150418)" d="M757.539 900.646C767.154 896.454 780.431 895.032 790.371 898.881C793.324 900.025 796.194 901.639 798.888 903.297C779.568 897.364 775.656 898.224 756.456 903.871C755.472 903.941 754.544 903.884 753.561 903.808C754.819 903.12 756.079 902.502 756.992 901.362C757.179 901.128 757.356 900.885 757.539 900.646Z"></path><path fill="#16751C" transform="scale(0.150391 0.150418)" d="M861.366 283.324C861.451 285.462 861.151 288.706 862.046 290.628L862.877 290.819C862.177 299.432 861.252 308.076 861.711 316.726L862.196 316.738C863.186 317.998 863.304 318.523 863.404 320.053C862.923 321.254 862.371 321.835 861.548 322.808C860.154 324.455 860.342 325.507 860.14 327.594L860.027 316.692C859.861 305.489 860.375 294.487 861.366 283.324Z"></path><path fill="#22802A" transform="scale(0.150391 0.150418)" d="M874.667 746.619C875.009 747.466 875.211 747.953 875.813 748.659C871.893 750.278 856.997 754.685 854.881 756.213L854.14 756.754C852.479 756.997 850.941 756.069 849.447 755.428C855.513 751.644 867.341 749.272 874.667 746.619Z"></path><path fill="#16751C" transform="scale(0.150391 0.150418)" d="M743.59 906.973C748.161 904.74 752.72 902.3 757.539 900.646C757.356 900.885 757.179 901.128 756.992 901.362C756.079 902.502 754.819 903.12 753.561 903.808C754.544 903.884 755.472 903.941 756.456 903.871C752.749 905.602 748.928 907.226 745.335 909.181C749.656 908.381 753.908 907.731 758.288 907.355L758.148 908.113C757.988 908.17 757.83 908.235 757.667 908.285C754.705 909.201 747.545 910.744 744.841 909.386L745.824 908.154L745.72 907.392L743.59 906.973Z"></path><path fill="#0D5D10" transform="scale(0.150391 0.150418)" d="M729.106 905.239C730.128 904.233 730.867 903.061 731.686 901.888C733.251 901.659 733.83 902.33 735.171 903.11C734.872 904.367 732.585 906.49 732.691 906.962C734.734 907.033 735.579 906.658 737.059 908.142L736.074 908.984C734.6 909.054 733.135 909.032 731.661 909.009C729.834 907.956 729.861 907.158 729.106 905.239Z"></path><path fill="#16751C" transform="scale(0.150391 0.150418)" d="M859.374 434.363C859.839 437.65 859.713 443.513 861.897 445.954L859.496 452.186C858.76 446.226 859.077 440.338 859.374 434.363Z"></path><path fill="#16751C" transform="scale(0.150391 0.150418)" d="M735.629 915.543Q736.202 915.078 736.791 914.633C738.603 913.275 739.954 912.665 742.242 913.001L742.817 913.713L742.941 916.46Q739.296 915.911 735.629 915.543Z"></path><path fill="#16751C" transform="scale(0.150391 0.150418)" d="M201.931 838.131L204.376 847.57C202.803 847.012 202.815 846.114 200.979 845.647C200.684 844.531 200.572 843.472 200.445 842.33L201.931 838.131Z"></path><path fill="#16751C" transform="scale(0.150391 0.150418)" d="M639.666 905.892C644.511 907.629 648.925 914.699 657.572 916.418C667.821 918.455 685.815 910.586 692.949 913.224L692.847 914.077C681.173 917.253 667.713 921.075 655.648 917.999C648.655 916.216 643.308 912.035 639.666 905.892Z"></path><path fill="#16751C" transform="scale(0.150391 0.150418)" d="M909.563 689.375C909.611 690.325 909.72 690.205 909.446 690.933C906.461 698.863 885.116 722.903 877.656 726.257L877.493 725.22C878.977 720.341 889.964 712.253 893.805 708.248C899.441 702.371 904.427 695.698 909.563 689.375Z"></path><path fill="#0F6D19" transform="scale(0.150391 0.150418)" d="M821.943 680.968C833.574 685.922 841.22 694.124 845.846 705.937C846.751 708.248 847.594 710.643 848.268 713.033L844.919 711.925C840.419 695.749 834.07 691.855 821.943 680.968Z"></path><path fill="#0D5D10" transform="scale(0.150391 0.150418)" d="M844.919 711.925L848.268 713.033C849.542 719.535 849.588 724.851 848.272 731.374C846.36 725.127 846.277 718.337 844.919 711.925Z"></path><path fill="#22802A" transform="scale(0.150391 0.150418)" d="M368.173 966.014L369.226 967.127C347.259 975.297 325.491 982.221 301.698 980.603C298.004 980.352 292.616 980.096 289.173 978.748C288.78 977.436 287.909 976.889 286.942 975.953C312.779 982.604 343.774 975.663 368.173 966.014Z"></path><path fill="#16751C" transform="scale(0.150391 0.150418)" d="M641.071 714.021C639.98 712.683 638.912 711.588 638.573 709.839C640.786 709.63 649.265 714.57 652.002 715.631C649.799 716.621 647.776 717.004 645.398 717.333L644.89 716.837C639.942 717.474 634.807 717.349 629.816 717.777C623.898 718.284 618.189 719.516 612.392 720.729C609.072 721.424 602.197 723.659 599.033 722.551C599.124 722.428 599.201 722.294 599.306 722.183C603.933 717.268 633.663 714.175 641.071 714.021Z"></path><path fill="#16751C" transform="scale(0.150391 0.150418)" d="M638.32 697.069C632.109 694.327 627.185 688.453 622.07 684.087C610.063 673.836 597.989 669.038 582.208 670.237L582.261 669.903C584.612 669.053 586.957 668.509 589.444 668.289C603.052 667.089 616.633 675.107 626.293 684.003C630.242 687.64 633.787 691.779 637.915 695.205L638.292 695.512L638.32 697.069Z"></path><path fill="#16751C" transform="scale(0.150391 0.150418)" d="M865.989 730.493C878.489 716.444 888.523 702.57 890.687 683.322C890.983 680.682 890.882 672.171 891.83 670.69C894.649 676.667 890.439 695.659 888.097 702.132C883.948 713.6 874.855 727.273 865.197 734.713L865.009 733.757L866.353 731.878L865.989 730.493Z"></path><path fill="#16751C" transform="scale(0.150391 0.150418)" d="M684.576 883.854C687.83 884.861 690.96 885.967 693.983 887.548C696.891 889.068 713.195 900.15 715.246 899.728C721.103 900.652 723.093 906.11 728.524 908.047L728.935 908.685C726.696 909.205 724.242 908.431 721.98 908.204C712.394 898.263 694.797 895.81 681.991 892.319C692.387 892.324 700.326 895.222 709.92 899C701.685 893.589 692.698 889.41 684.576 883.854Z"></path><defs><linearGradient id="gradient_0" gradientUnits="userSpaceOnUse" x1="720.28241" y1="389.40985" x2="714.7348" y2="394.94205"><stop offset="0" stop-color="#2C893C"></stop><stop offset="1" stop-color="#1E722A"></stop></linearGradient></defs><path fill="url(#gradient_0)" transform="scale(0.150391 0.150418)" d="M704.753 386.949C706.814 386.171 708.025 386.794 710.153 386.809L711.046 386.808C714.321 387.979 738.175 399.355 739.88 400.907C738.398 400.822 737.2 400.497 735.792 400.038L734.975 400.39C733.761 400.069 732.727 399.778 731.601 399.202L731.343 399.62C733.031 400.159 734.991 400.536 736.175 401.924L736.438 403.053C733.075 401.702 729.925 400.205 726.742 398.473C719.294 396.542 710.994 391.329 704.753 386.949Z"></path><path fill="#16751C" transform="scale(0.150391 0.150418)" d="M726.742 398.473C729.048 397.514 730.114 397.566 732.529 398.541C733.597 398.973 734.831 399.415 735.792 400.038L734.975 400.39C733.761 400.069 732.727 399.778 731.601 399.202L731.343 399.62C733.031 400.159 734.991 400.536 736.175 401.924L736.438 403.053C733.075 401.702 729.925 400.205 726.742 398.473Z"></path><path fill="#16751C" transform="scale(0.150391 0.150418)" d="M175.476 946.743C193.067 946.386 210.823 942.953 227.714 938.172L231.714 938.769C216.119 943.322 200.894 947.082 184.689 948.623C181.687 947.772 178.091 948.457 175.476 946.743Z"></path><path fill="#16751C" transform="scale(0.150391 0.150418)" d="M754.374 665.291Q748.677 659.225 742.601 653.54C740.068 651.182 736.2 648.635 734.246 645.874C742.536 649.98 753.737 658.812 758.786 666.692C760.141 668.029 761.399 669.418 762.653 670.851L762.066 671.508L761.661 671.526C761.466 672.332 761.539 671.886 761.487 672.87L761.24 673.263C758.826 670.724 756.622 667.977 754.374 665.291Z"></path><path fill="#16751C" transform="scale(0.150391 0.150418)" d="M665.855 703.744C675.205 698.038 684.829 694.591 695.821 697.297Q697.66 697.768 699.475 698.325C687.807 698.408 679.051 699.446 668.526 704.978C667.654 704.237 666.95 704.037 665.855 703.744Z"></path><path fill="#16751C" transform="scale(0.150391 0.150418)" d="M769.907 685.651C770.228 690.533 769.522 694.074 767.934 698.665C769.629 702.555 771.442 706.416 772.556 710.522L772.169 712.278L771.457 712.489C769.71 706.137 766.411 700.809 762.416 695.626L763.633 694.022C764.383 694.902 764.899 695.95 766.058 696.16L767.332 692.143C768.145 691.64 768.326 691.441 768.855 690.696C769 689.288 769.138 687.931 769.586 686.58C769.69 686.269 769.8 685.961 769.907 685.651Z"></path><path fill="#22802A" transform="scale(0.150391 0.150418)" d="M762.416 695.626C758.403 689.934 752.282 685.193 748.941 679.254L749.345 678.864C749.561 678.919 749.78 678.965 749.993 679.029C754.899 680.507 761.206 689.793 763.633 694.022L762.416 695.626Z"></path><path fill="#16751C" transform="scale(0.150391 0.150418)" d="M556.399 734.685C561.906 732.845 568.999 729.941 574.78 731.542L575.695 732.406C574.841 733.532 573.497 733.717 572.133 733.891C567.389 734.496 562.653 734.917 557.92 735.656L556.399 734.685Z"></path><path fill="#22802A" transform="scale(0.150391 0.150418)" d="M697.451 381.434C701.93 381.339 707.114 384.758 711.046 386.808L710.153 386.809C708.025 386.794 706.814 386.171 704.753 386.949C702.118 385.284 699.814 383.461 697.451 381.434Z"></path><path fill="#16751C" transform="scale(0.150391 0.150418)" d="M668.083 626.229C666.833 631.491 665.583 636.735 663.684 641.81C659.399 653.26 654.066 663.359 652.306 675.666C651.83 680.931 651.567 686.268 650.861 691.504C649.809 691.289 649.746 691.021 649.004 690.295C649.144 685.329 649.394 680.18 650.384 675.31C652.463 658.251 660.867 641.635 668.083 626.229Z"></path><path fill="#16751C" transform="scale(0.150391 0.150418)" d="M722.984 846.84C724.179 845.783 724.917 844.241 725.732 842.885C724.43 854.884 723.748 867.793 726.077 879.69C725.854 881.751 725.461 882.749 724.28 884.461C722.041 873.206 720.739 858.296 722.984 846.84Z"></path><path fill="#0F6D19" transform="scale(0.150391 0.150418)" d="M733.512 815.772C730.126 824.79 727.376 833.37 725.732 842.885C724.917 844.241 724.179 845.783 722.984 846.84C723.84 834.952 726.358 825.397 733.512 815.772Z"></path><path fill="#16751C" transform="scale(0.150391 0.150418)" d="M804.317 833.572C811.552 836.311 818.006 838.784 825.808 838.856C824.286 840.51 822.447 840.557 820.43 841.372C814.376 840.634 809.022 837.223 804.317 833.572Z"></path></svg> 