<?xml version="1.0" encoding="UTF-8"?> <svg xmlns="http://www.w3.org/2000/svg" viewBox="5993.2431640625 4983.47998046875 321.9970703125 72.240234375"><path fill="black" stroke="none" fill-opacity="1" stroke-width="1" stroke-opacity="1" font-size-adjust="none" id="tSvgf50d97e708" title="Path 2" d="M 6292.681 4998 C 6292.681 4993.553333333333 6292.681 4989.106666666667 6292.681 4984.66 C 6293.654333333333 4984.66 6294.627666666666 4984.66 6295.601 4984.66 C 6296.748 4984.66 6297.648 4984.96667 6298.301 4985.58 C 6298.954 4986.18 6299.281 4986.98667 6299.281 4988 C 6299.281 4989.30667 6298.761 4990.28 6297.721 4990.92 C 6298.574 4991.05333 6299.248 4991.42667 6299.741 4992.04 C 6300.234 4992.6533 6300.481 4993.3933 6300.481 4994.26 C 6300.481 4995.4067 6300.094 4996.32 6299.321 4997 C 6298.561 4997.6667 6297.568 4998 6296.341 4998C 6295.121 4998 6293.901 4998 6292.681 4998Z M 6293.561 4985.46 C 6293.561 4987.206666666667 6293.561 4988.953333333333 6293.561 4990.7 C 6294.267666666667 4990.7 6294.974333333334 4990.7 6295.681 4990.7 C 6296.441 4990.7 6297.048 4990.51333 6297.501 4990.14 C 6298.088 4989.66 6298.381 4988.98 6298.381 4988.1 C 6298.381 4987.20667 6298.081 4986.51333 6297.481 4986.02 C 6297.001 4985.64667 6296.261 4985.46 6295.261 4985.46C 6294.694333333333 4985.46 6294.127666666666 4985.46 6293.561 4985.46Z M 6293.561 4991.5 C 6293.561 4993.4 6293.561 4995.3 6293.561 4997.2 C 6294.307666666667 4997.2 6295.0543333333335 4997.2 6295.801 4997.2 C 6296.214 4997.2 6296.541 4997.1933 6296.781 4997.18 C 6297.021 4997.1533 6297.3279999999995 4997.08 6297.701 4996.96 C 6298.088 4996.84 6298.421 4996.6533 6298.701 4996.4 C 6299.274 4995.8933 6299.561 4995.2133 6299.561 4994.36 C 6299.561 4993.1467 6299.088 4992.32 6298.141 4991.88 C 6297.568 4991.62667 6296.734 4991.5 6295.641 4991.5C 6294.947666666667 4991.5 6294.254333333333 4991.5 6293.561 4991.5Z M 6314.044 4986.22 C 6314.044 4986.606666666667 6314.044 4986.993333333333 6314.044 4987.38 C 6313.471 4986.71333 6312.791 4986.2 6312.004 4985.84 C 6311.231 4985.46667 6310.411 4985.28 6309.544 4985.28 C 6307.851 4985.28 6306.431 4985.87333 6305.284 4987.06 C 6304.138 4988.24667 6303.564 4989.69333 6303.564 4991.4 C 6303.564 4992.3467 6303.744 4993.2133 6304.104 4994 C 6304.478 4994.7867 6304.958 4995.4267 6305.544 4995.92 C 6306.144 4996.4 6306.791 4996.7733 6307.484 4997.04 C 6308.178 4997.2933 6308.871 4997.42 6309.564 4997.42 C 6310.311 4997.42 6311.084 4997.26 6311.884 4996.94 C 6312.684 4996.6067 6313.404 4996.0933 6314.044 4995.4 C 6314.044 4995.786666666667 6314.044 4996.173333333333 6314.044 4996.56 C 6312.791 4997.6667 6311.311 4998.22 6309.604 4998.22 C 6307.631 4998.22 6305.978 4997.5467 6304.644 4996.2 C 6303.311 4994.8533 6302.644 4993.24 6302.644 4991.36 C 6302.644 4989.44 6303.318 4987.81333 6304.664 4986.48 C 6306.011 4985.14667 6307.644 4984.48 6309.564 4984.48C 6311.324 4984.48 6312.818 4985.06 6314.044 4986.22Z"></path><path fill="black" stroke="none" fill-opacity="1" stroke-width="1" stroke-opacity="1" font-size-adjust="none" id="tSvg13137d09bdd" title="Path 3" d="M 6253.361 4986.22 C 6253.361 4986.606666666667 6253.361 4986.993333333333 6253.361 4987.38 C 6252.7880000000005 4986.71333 6252.108 4986.2 6251.321 4985.84 C 6250.548 4985.46667 6249.728 4985.28 6248.861 4985.28 C 6247.168 4985.28 6245.748 4985.87333 6244.601 4987.06 C 6243.454 4988.24667 6242.881 4989.69333 6242.881 4991.4 C 6242.881 4992.3467 6243.061 4993.2133 6243.421 4994 C 6243.794 4994.7867 6244.274 4995.4267 6244.861 4995.92 C 6245.461 4996.4 6246.108 4996.7733 6246.801 4997.04 C 6247.494 4997.2933 6248.188 4997.42 6248.881 4997.42 C 6249.628 4997.42 6250.401 4997.26 6251.201 4996.94 C 6252.001 4996.6067 6252.721 4996.0933 6253.361 4995.4 C 6253.361 4995.786666666667 6253.361 4996.173333333333 6253.361 4996.56 C 6252.108 4997.6667 6250.628 4998.22 6248.921 4998.22 C 6246.948 4998.22 6245.294 4997.5467 6243.961 4996.2 C 6242.628 4994.8533 6241.961 4993.24 6241.961 4991.36 C 6241.961 4989.44 6242.634 4987.81333 6243.981 4986.48 C 6245.328 4985.14667 6246.961 4984.48 6248.881 4984.48C 6250.641 4984.48 6252.134 4985.06 6253.361 4986.22Z M 6256.236 4998 C 6256.236 4993.553333333333 6256.236 4989.106666666667 6256.236 4984.66 C 6258.376 4984.66 6260.516 4984.66 6262.656 4984.66 C 6262.656 4984.926666666666 6262.656 4985.193333333334 6262.656 4985.46 C 6260.809333333334 4985.46 6258.962666666666 4985.46 6257.116 4985.46 C 6257.116 4987.106666666667 6257.116 4988.753333333333 6257.116 4990.4 C 6257.8893333333335 4990.4 6258.662666666667 4990.4 6259.436 4990.4 C 6262.502 4990.4 6264.036 4991.62 6264.036 4994.06 C 6264.036 4995.1667 6263.676 4996.1 6262.956 4996.86 C 6262.249 4997.62 6261.169 4998 6259.716 4998C 6258.556 4998 6257.396 4998 6256.236 4998Z M 6257.116 4991.2 C 6257.116 4993.2 6257.116 4995.2 6257.116 4997.2 C 6257.862666666667 4997.2 6258.609333333334 4997.2 6259.356 4997.2 C 6260.702 4997.2 6261.676 4996.9067 6262.276 4996.32 C 6262.836 4995.7867 6263.116 4995.0333 6263.116 4994.06 C 6263.116 4992.9 6262.656 4992.08 6261.736 4991.6 C 6261.202 4991.33333 6260.356 4991.2 6259.196 4991.2C 6258.502666666666 4991.2 6257.809333333334 4991.2 6257.116 4991.2Z"></path><path fill="black" stroke="none" fill-opacity="1" stroke-width="1" stroke-opacity="1" font-size-adjust="none" id="tSvg9a56c2a64a" title="Path 4" d="M 6193.902 4984.66 C 6197.182 4984.66 6200.4619999999995 4984.66 6203.742 4984.66 C 6203.742 4989.106666666667 6203.742 4993.553333333333 6203.742 4998 C 6203.448666666667 4998 6203.155333333333 4998 6202.862 4998 C 6202.862 4993.82 6202.862 4989.64 6202.862 4985.46 C 6200.1686666666665 4985.46 6197.475333333334 4985.46 6194.782 4985.46 C 6194.782 4989.64 6194.782 4993.82 6194.782 4998 C 6194.488666666667 4998 6194.195333333333 4998 6193.902 4998C 6193.902 4993.553333333333 6193.902 4989.106666666667 6193.902 4984.66Z M 6213.619 4985.46 C 6212.465666666667 4985.46 6211.312333333333 4985.46 6210.159 4985.46 C 6210.159 4989.64 6210.159 4993.82 6210.159 4998 C 6209.865666666667 4998 6209.5723333333335 4998 6209.279 4998 C 6209.279 4993.82 6209.279 4989.64 6209.279 4985.46 C 6208.125666666667 4985.46 6206.972333333333 4985.46 6205.819 4985.46 C 6205.819 4985.193333333334 6205.819 4984.926666666666 6205.819 4984.66 C 6208.419 4984.66 6211.019 4984.66 6213.619 4984.66C 6213.619 4984.926666666666 6213.619 4985.193333333334 6213.619 4985.46Z"></path><path fill="black" stroke="none" fill-opacity="1" stroke-width="1" stroke-opacity="1" font-size-adjust="none" id="tSvg12f7b46c7ee" title="Path 5" d="M 6151.94 4998 C 6151.94 4996 6151.94 4994 6151.94 4992 C 6150.446 4992.0933 6149.313 4992.14 6148.54 4992.14 C 6147.326 4992.14 6146.42 4991.99333 6145.82 4991.7 C 6145.233 4991.42 6144.853 4991.05333 6144.68 4990.6 C 6144.506 4990.13333 6144.42 4989.50667 6144.42 4988.72 C 6144.42 4987.366666666667 6144.42 4986.013333333333 6144.42 4984.66 C 6144.713333333333 4984.66 6145.006666666666 4984.66 6145.3 4984.66 C 6145.3 4986.013333333333 6145.3 4987.366666666667 6145.3 4988.72 C 6145.3 4989 6145.306 4989.20667 6145.32 4989.34 C 6145.333 4989.47333 6145.366 4989.67333 6145.42 4989.94 C 6145.473 4990.19333 6145.58 4990.41333 6145.74 4990.6 C 6145.9 4990.77333 6146.113 4990.92 6146.38 4991.04 C 6146.793 4991.24 6147.606 4991.34 6148.82 4991.34 C 6149.74 4991.34 6150.78 4991.29333 6151.94 4991.2 C 6151.94 4989.02 6151.94 4986.84 6151.94 4984.66 C 6152.233333333334 4984.66 6152.526666666667 4984.66 6152.82 4984.66 C 6152.82 4989.106666666667 6152.82 4993.553333333333 6152.82 4998C 6152.526666666667 4998 6152.233333333334 4998 6151.94 4998Z M 6162.701 4985.46 C 6161.547666666666 4985.46 6160.394333333334 4985.46 6159.241 4985.46 C 6159.241 4989.64 6159.241 4993.82 6159.241 4998 C 6158.947666666667 4998 6158.654333333333 4998 6158.361 4998 C 6158.361 4993.82 6158.361 4989.64 6158.361 4985.46 C 6157.207666666666 4985.46 6156.0543333333335 4985.46 6154.901 4985.46 C 6154.901 4985.193333333334 6154.901 4984.926666666666 6154.901 4984.66 C 6157.501 4984.66 6160.101 4984.66 6162.701 4984.66C 6162.701 4984.926666666666 6162.701 4985.193333333334 6162.701 4985.46Z"></path><path fill="black" stroke="none" fill-opacity="1" stroke-width="1" stroke-opacity="1" font-size-adjust="none" id="tSvg18deb0d3c8b" title="Path 6" d="M 6104.24 4986.22 C 6104.24 4986.606666666667 6104.24 4986.993333333333 6104.24 4987.38 C 6103.666 4986.71333 6102.986 4986.2 6102.2 4985.84 C 6101.426 4985.46667 6100.606 4985.28 6099.74 4985.28 C 6098.046 4985.28 6096.626 4985.87333 6095.48 4987.06 C 6094.333 4988.24667 6093.76 4989.69333 6093.76 4991.4 C 6093.76 4992.3467 6093.94 4993.2133 6094.3 4994 C 6094.673 4994.7867 6095.153 4995.4267 6095.74 4995.92 C 6096.34 4996.4 6096.986 4996.7733 6097.68 4997.04 C 6098.373 4997.2933 6099.066 4997.42 6099.76 4997.42 C 6100.506 4997.42 6101.28 4997.26 6102.08 4996.94 C 6102.88 4996.6067 6103.6 4996.0933 6104.24 4995.4 C 6104.24 4995.786666666667 6104.24 4996.173333333333 6104.24 4996.56 C 6102.986 4997.6667 6101.506 4998.22 6099.8 4998.22 C 6097.826 4998.22 6096.173 4997.5467 6094.84 4996.2 C 6093.506 4994.8533 6092.84 4993.24 6092.84 4991.36 C 6092.84 4989.44 6093.513 4987.81333 6094.86 4986.48 C 6096.206 4985.14667 6097.84 4984.48 6099.76 4984.48C 6101.52 4984.48 6103.013 4985.06 6104.24 4986.22Z M 6109.714 4991.66 C 6109.140666666666 4991.66 6108.567333333333 4991.66 6107.994 4991.66 C 6107.994 4993.7733333333335 6107.994 4995.886666666666 6107.994 4998 C 6107.700666666667 4998 6107.407333333334 4998 6107.114 4998 C 6107.114 4993.553333333333 6107.114 4989.106666666667 6107.114 4984.66 C 6107.974 4984.66 6108.834 4984.66 6109.694 4984.66 C 6110.828 4984.66 6111.761 4984.96667 6112.494 4985.58 C 6113.228 4986.18 6113.594 4987.03333 6113.594 4988.14 C 6113.594 4989.23333 6113.241 4990.09333 6112.534 4990.72C 6111.828 4991.34667 6110.888 4991.66 6109.714 4991.66Z M 6107.994 4985.46 C 6107.994 4987.26 6107.994 4989.06 6107.994 4990.86 C 6108.580666666667 4990.86 6109.167333333334 4990.86 6109.754 4990.86 C 6110.634 4990.86 6111.341 4990.62 6111.874 4990.14 C 6112.408 4989.64667 6112.674 4988.98667 6112.674 4988.16 C 6112.674 4987.32 6112.401 4986.66 6111.854 4986.18 C 6111.321 4985.7 6110.574 4985.46 6109.614 4985.46C 6109.074 4985.46 6108.534 4985.46 6107.994 4985.46Z"></path><path fill="black" stroke="none" fill-opacity="1" stroke-width="1" stroke-opacity="1" font-size-adjust="none" id="tSvg15005c5c463" title="Path 7" d="M 6045.2785 4998 C 6045.2785 4993.553333333333 6045.2785 4989.106666666667 6045.2785 4984.66 C 6046.251833333334 4984.66 6047.225166666667 4984.66 6048.1985 4984.66 C 6049.3452 4984.66 6050.2452 4984.96667 6050.8985 4985.58 C 6051.5518 4986.18 6051.8785 4986.98667 6051.8785 4988 C 6051.8785 4989.30667 6051.3585 4990.28 6050.3185 4990.92 C 6051.1718 4991.05333 6051.8452 4991.42667 6052.3385 4992.04 C 6052.8318 4992.6533 6053.0785 4993.3933 6053.0785 4994.26 C 6053.0785 4995.4067 6052.6918 4996.32 6051.9185 4997 C 6051.1585 4997.6667 6050.1652 4998 6048.9385 4998C 6047.7185 4998 6046.4985 4998 6045.2785 4998Z M 6046.1585 4985.46 C 6046.1585 4987.206666666667 6046.1585 4988.953333333333 6046.1585 4990.7 C 6046.8651666666665 4990.7 6047.571833333333 4990.7 6048.2785 4990.7 C 6049.0385 4990.7 6049.6452 4990.51333 6050.0985 4990.14 C 6050.6852 4989.66 6050.9785 4988.98 6050.9785 4988.1 C 6050.9785 4987.20667 6050.6785 4986.51333 6050.0785 4986.02 C 6049.5985 4985.64667 6048.8585 4985.46 6047.8585 4985.46C 6047.291833333334 4985.46 6046.725166666667 4985.46 6046.1585 4985.46Z M 6046.1585 4991.5 C 6046.1585 4993.4 6046.1585 4995.3 6046.1585 4997.2 C 6046.905166666666 4997.2 6047.651833333333 4997.2 6048.3985 4997.2 C 6048.8118 4997.2 6049.1385 4997.1933 6049.3785 4997.18 C 6049.6185 4997.1533 6049.9252 4997.08 6050.2985 4996.96 C 6050.6852 4996.84 6051.0185 4996.6533 6051.2985 4996.4 C 6051.8718 4995.8933 6052.1585 4995.2133 6052.1585 4994.36 C 6052.1585 4993.1467 6051.6852 4992.32 6050.7385 4991.88 C 6050.1652 4991.62667 6049.3318 4991.5 6048.2385 4991.5C 6047.545166666667 4991.5 6046.851833333333 4991.5 6046.1585 4991.5Z M 6062.2421 4985.46 C 6061.088766666667 4985.46 6059.935433333333 4985.46 6058.7821 4985.46 C 6058.7821 4989.64 6058.7821 4993.82 6058.7821 4998 C 6058.488766666666 4998 6058.195433333333 4998 6057.9021 4998 C 6057.9021 4993.82 6057.9021 4989.64 6057.9021 4985.46 C 6056.748766666667 4985.46 6055.595433333333 4985.46 6054.4421 4985.46 C 6054.4421 4985.193333333334 6054.4421 4984.926666666666 6054.4421 4984.66 C 6057.0421 4984.66 6059.6421 4984.66 6062.2421 4984.66C 6062.2421 4984.926666666666 6062.2421 4985.193333333334 6062.2421 4985.46Z"></path><path fill="black" stroke="none" fill-opacity="1" stroke-width="1" stroke-opacity="1" font-size-adjust="none" id="tSvg148811928d7" title="Path 8" d="M 5997.02656 4984.66 C 6000.306573333333 4984.66 6003.586586666666 4984.66 6006.8666 4984.66 C 6006.8666 4989.106666666667 6006.8666 4993.553333333333 6006.8666 4998 C 6006.573266666666 4998 6006.279933333333 4998 6005.9866 4998 C 6005.9866 4993.82 6005.9866 4989.64 6005.9866 4985.46 C 6003.293253333333 4985.46 6000.599906666666 4985.46 5997.90656 4985.46 C 5997.90656 4989.64 5997.90656 4993.82 5997.90656 4998 C 5997.613226666666 4998 5997.319893333333 4998 5997.02656 4998C 5997.02656 4993.553333333333 5997.02656 4989.106666666667 5997.02656 4984.66Z M 6011.3441 4984.66 C 6011.3441 4986.546666666667 6011.3441 4988.433333333333 6011.3441 4990.32 C 6014.037433333333 4990.32 6016.730766666667 4990.32 6019.4241 4990.32 C 6019.4241 4988.433333333333 6019.4241 4986.546666666667 6019.4241 4984.66 C 6019.717433333333 4984.66 6020.010766666666 4984.66 6020.3041 4984.66 C 6020.3041 4989.106666666667 6020.3041 4993.553333333333 6020.3041 4998 C 6020.010766666666 4998 6019.717433333333 4998 6019.4241 4998 C 6019.4241 4995.706666666667 6019.4241 4993.413333333333 6019.4241 4991.12 C 6016.730766666667 4991.12 6014.037433333333 4991.12 6011.3441 4991.12 C 6011.3441 4993.413333333333 6011.3441 4995.706666666667 6011.3441 4998 C 6011.050766666666 4998 6010.757433333333 4998 6010.4641 4998 C 6010.4641 4993.553333333333 6010.4641 4989.106666666667 6010.4641 4984.66C 6010.757433333333 4984.66 6011.050766666666 4984.66 6011.3441 4984.66Z"></path><path fill="black" stroke="none" fill-opacity="1" stroke-width="1" stroke-opacity="1" font-size-adjust="none" id="tSvg1089df58673" title="Path 9" d="M 6002.463 5054.5 C 5999.72299 5054.5 5996.98298 5054.5 5994.24297 5054.5 C 5995.949636666666 5052.62 5997.656303333333 5050.74 5999.36297 5048.86 C 6000.06964 5048.06 6000.5563 5047.46 6000.82297 5047.06 C 6001.34297 5046.26 6001.603 5045.5 6001.603 5044.78 C 6001.603 5043.9267 6001.30964 5043.2133 6000.72297 5042.64 C 6000.14964 5042.0667 5999.40964 5041.78 5998.50297 5041.78 C 5997.54297 5041.78 5996.7763 5042.1067 5996.20297 5042.76 C 5995.66964 5043.3467 5995.40964 5044.0733 5995.42297 5044.94 C 5995.129636666667 5044.94 5994.8363033333335 5044.94 5994.54297 5044.94 C 5994.52964 5043.82 5994.88297 5042.8867 5995.60297 5042.14 C 5996.34964 5041.3667 5997.3363 5040.98 5998.56297 5040.98 C 5999.70964 5040.98 6000.6563 5041.3467 6001.40297 5042.08 C 6002.1496 5042.8 6002.523 5043.7 6002.523 5044.78 C 6002.523 5045.7267 6002.203 5046.64 6001.563 5047.52 C 6001.2563 5047.9467 6000.86297 5048.4267 6000.38297 5048.96 C 5998.956303333333 5050.54 5997.529636666667 5052.12 5996.10297 5053.7 C 5998.22298 5053.7 6000.34299 5053.7 6002.463 5053.7C 6002.463 5053.966666666666 6002.463 5054.233333333334 6002.463 5054.5Z M 6005.52 5051.26 C 6005.8133333333335 5051.26 6006.106666666667 5051.26 6006.4 5051.26 C 6006.4267 5051.78 6006.5733 5052.2533 6006.84 5052.68 C 6007.0933 5053.04 6007.44 5053.34 6007.88 5053.58 C 6008.32 5053.8067 6008.76 5053.92 6009.2 5053.92 C 6010.0133 5053.92 6010.7133 5053.6133 6011.3 5053 C 6011.9 5052.3867 6012.2 5051.66 6012.2 5050.82 C 6012.2 5049.7267 6011.78 5048.9133 6010.94 5048.38 C 6010.46 5048.0733 6009.8933 5047.94 6009.24 5047.98 C 6009.24 5047.713333333333 6009.24 5047.446666666667 6009.24 5047.18 C 6009.96 5047.18 6010.56 5046.9733 6011.04 5046.56 C 6011.6933 5046.0133 6012.02 5045.2867 6012.02 5044.38 C 6012.02 5043.6333 6011.7933 5043.0133 6011.34 5042.52 C 6010.8867 5042.0267 6010.26 5041.78 6009.46 5041.78 C 6008.6333 5041.78 6007.9933 5042.04 6007.54 5042.56 C 6007.1133 5043.0267 6006.8867 5043.62 6006.86 5044.34 C 6006.58 5044.34 6006.3 5044.34 6006.02 5044.34 C 6006.0333 5043.3933 6006.36 5042.5933 6007 5041.94 C 6007.6267 5041.3 6008.4467 5040.98 6009.46 5040.98 C 6010.5267 5040.98 6011.3733 5041.3 6012 5041.94 C 6012.6267 5042.58 6012.94 5043.3733 6012.94 5044.32 C 6012.94 5044.9867 6012.7733 5045.62 6012.44 5046.22 C 6012.1067 5046.8067 6011.5733 5047.2467 6010.84 5047.54 C 6011.5467 5047.7667 6012.1 5048.1733 6012.5 5048.76 C 6012.9133 5049.3467 6013.12 5050.0267 6013.12 5050.8 C 6013.12 5051.9067 6012.74 5052.84 6011.98 5053.6 C 6011.22 5054.3467 6010.2933 5054.72 6009.2 5054.72 C 6008.5733 5054.72 6007.9667 5054.5667 6007.38 5054.26 C 6006.7933 5053.9533 6006.3333 5053.5267 6006 5052.98C 6005.68 5052.46 6005.52 5051.8867 6005.52 5051.26Z"></path><path fill="black" stroke="none" fill-opacity="1" stroke-width="1" stroke-opacity="1" font-size-adjust="none" id="tSvg107ba094512" title="Path 10" d="M 6052.463 5054.5 C 6049.723 5054.5 6046.983 5054.5 6044.243 5054.5 C 6045.949666666666 5052.62 6047.656333333333 5050.74 6049.363 5048.86 C 6050.0696 5048.06 6050.5563 5047.46 6050.823 5047.06 C 6051.343 5046.26 6051.603 5045.5 6051.603 5044.78 C 6051.603 5043.9267 6051.3096 5043.2133 6050.723 5042.64 C 6050.1496 5042.0667 6049.4096 5041.78 6048.503 5041.78 C 6047.543 5041.78 6046.7763 5042.1067 6046.203 5042.76 C 6045.6696 5043.3467 6045.4096 5044.0733 6045.423 5044.94 C 6045.129666666667 5044.94 6044.836333333334 5044.94 6044.543 5044.94 C 6044.5296 5043.82 6044.883 5042.8867 6045.603 5042.14 C 6046.3496 5041.3667 6047.3363 5040.98 6048.563 5040.98 C 6049.7096 5040.98 6050.6563 5041.3467 6051.403 5042.08 C 6052.1496 5042.8 6052.523 5043.7 6052.523 5044.78 C 6052.523 5045.7267 6052.203 5046.64 6051.563 5047.52 C 6051.2563 5047.9467 6050.863 5048.4267 6050.383 5048.96 C 6048.9563333333335 5050.54 6047.529666666666 5052.12 6046.103 5053.7 C 6048.223 5053.7 6050.343 5053.7 6052.463 5053.7C 6052.463 5053.966666666666 6052.463 5054.233333333334 6052.463 5054.5Z M 6062.3 5040.72 C 6062.3 5044.2 6062.3 5047.68 6062.3 5051.16 C 6062.92 5051.16 6063.54 5051.16 6064.16 5051.16 C 6064.16 5051.426666666666 6064.16 5051.693333333334 6064.16 5051.96 C 6063.54 5051.96 6062.92 5051.96 6062.3 5051.96 C 6062.3 5052.806666666666 6062.3 5053.653333333334 6062.3 5054.5 C 6062.006666666666 5054.5 6061.713333333333 5054.5 6061.42 5054.5 C 6061.42 5053.653333333334 6061.42 5052.806666666666 6061.42 5051.96 C 6059.026666666667 5051.96 6056.633333333333 5051.96 6054.24 5051.96C 6056.926666666666 5048.213333333333 6059.613333333334 5044.466666666666 6062.3 5040.72Z M 6055.8 5051.16 C 6057.673333333333 5051.16 6059.546666666667 5051.16 6061.42 5051.16 C 6061.42 5048.546666666667 6061.42 5045.933333333333 6061.42 5043.32C 6059.546666666667 5045.933333333333 6057.673333333333 5048.546666666667 6055.8 5051.16Z"></path><path fill="black" stroke="none" fill-opacity="1" stroke-width="1" stroke-opacity="1" font-size-adjust="none" id="tSvg6dfabea27" title="Path 11" d="M 6102.463 5054.5 C 6099.723 5054.5 6096.983 5054.5 6094.243 5054.5 C 6095.949666666666 5052.62 6097.656333333333 5050.74 6099.363 5048.86 C 6100.07 5048.06 6100.556 5047.46 6100.823 5047.06 C 6101.343 5046.26 6101.603 5045.5 6101.603 5044.78 C 6101.603 5043.9267 6101.31 5043.2133 6100.723 5042.64 C 6100.15 5042.0667 6099.41 5041.78 6098.503 5041.78 C 6097.543 5041.78 6096.776 5042.1067 6096.203 5042.76 C 6095.67 5043.3467 6095.41 5044.0733 6095.423 5044.94 C 6095.129666666667 5044.94 6094.836333333334 5044.94 6094.543 5044.94 C 6094.53 5043.82 6094.883 5042.8867 6095.603 5042.14 C 6096.35 5041.3667 6097.336 5040.98 6098.563 5040.98 C 6099.71 5040.98 6100.656 5041.3467 6101.403 5042.08 C 6102.15 5042.8 6102.523 5043.7 6102.523 5044.78 C 6102.523 5045.7267 6102.203 5046.64 6101.563 5047.52 C 6101.256 5047.9467 6100.863 5048.4267 6100.383 5048.96 C 6098.9563333333335 5050.54 6097.529666666666 5052.12 6096.103 5053.7 C 6098.223 5053.7 6100.343 5053.7 6102.463 5053.7C 6102.463 5053.966666666666 6102.463 5054.233333333334 6102.463 5054.5Z M 6113.4 5041.16 C 6113.4 5041.426666666666 6113.4 5041.693333333334 6113.4 5041.96 C 6111.906666666667 5041.96 6110.413333333333 5041.96 6108.92 5041.96 C 6108.546666666667 5043.16 6108.173333333333 5044.36 6107.8 5045.56 C 6108.12 5045.48 6108.42 5045.44 6108.7 5045.44 C 6110.1 5045.44 6111.22 5045.8733 6112.06 5046.74 C 6112.913 5047.6067 6113.34 5048.7133 6113.34 5050.06 C 6113.34 5051.46 6112.88 5052.5867 6111.96 5053.44 C 6111.053 5054.2933 6109.933 5054.72 6108.6 5054.72 C 6106.787 5054.72 6105.453 5053.9867 6104.6 5052.52 C 6104.86 5052.413333333333 6105.12 5052.306666666666 6105.38 5052.2 C 6106.153 5053.3467 6107.233 5053.92 6108.62 5053.92 C 6109.727 5053.92 6110.633 5053.56 6111.34 5052.84 C 6112.06 5052.12 6112.42 5051.2 6112.42 5050.08 C 6112.42 5048.9467 6112.067 5048.0267 6111.36 5047.32 C 6110.667 5046.6 6109.767 5046.24 6108.66 5046.24 C 6107.9 5046.24 6107.207 5046.4333 6106.58 5046.82 C 6107.153333333334 5044.933333333333 6107.7266666666665 5043.046666666667 6108.3 5041.16C 6110 5041.16 6111.7 5041.16 6113.4 5041.16Z"></path><path fill="black" stroke="none" fill-opacity="1" stroke-width="1" stroke-opacity="1" font-size-adjust="none" id="tSvga07954a5ca" title="Path 12" d="M 6152.463 5054.5 C 6149.723 5054.5 6146.983 5054.5 6144.243 5054.5 C 6145.949666666666 5052.62 6147.656333333333 5050.74 6149.363 5048.86 C 6150.07 5048.06 6150.556 5047.46 6150.823 5047.06 C 6151.343 5046.26 6151.603 5045.5 6151.603 5044.78 C 6151.603 5043.9267 6151.31 5043.2133 6150.723 5042.64 C 6150.15 5042.0667 6149.41 5041.78 6148.503 5041.78 C 6147.543 5041.78 6146.776 5042.1067 6146.203 5042.76 C 6145.67 5043.3467 6145.41 5044.0733 6145.423 5044.94 C 6145.129666666667 5044.94 6144.836333333334 5044.94 6144.543 5044.94 C 6144.53 5043.82 6144.883 5042.8867 6145.603 5042.14 C 6146.35 5041.3667 6147.336 5040.98 6148.563 5040.98 C 6149.71 5040.98 6150.656 5041.3467 6151.403 5042.08 C 6152.15 5042.8 6152.523 5043.7 6152.523 5044.78 C 6152.523 5045.7267 6152.203 5046.64 6151.563 5047.52 C 6151.256 5047.9467 6150.863 5048.4267 6150.383 5048.96 C 6148.9563333333335 5050.54 6147.529666666666 5052.12 6146.103 5053.7 C 6148.223 5053.7 6150.343 5053.7 6152.463 5053.7C 6152.463 5053.966666666666 6152.463 5054.233333333334 6152.463 5054.5Z M 6160.02 5040.98 C 6160.246666666667 5041.153333333334 6160.473333333333 5041.326666666667 6160.7 5041.5 C 6159.713333333333 5042.9 6158.7266666666665 5044.3 6157.74 5045.7 C 6158.313 5045.46 6158.92 5045.34 6159.56 5045.34 C 6160.893 5045.34 6162 5045.78 6162.88 5046.66 C 6163.76 5047.54 6164.2 5048.6533 6164.2 5050 C 6164.2 5051.3467 6163.753 5052.4733 6162.86 5053.38 C 6161.967 5054.2733 6160.827 5054.72 6159.44 5054.72 C 6158.08 5054.72 6156.953 5054.28 6156.06 5053.4 C 6155.167 5052.5067 6154.72 5051.3667 6154.72 5049.98 C 6154.72 5049.0067 6155.007 5048.1 6155.58 5047.26C 6157.06 5045.166666666667 6158.54 5043.073333333334 6160.02 5040.98Z M 6156.72 5052.82 C 6157.453 5053.5533 6158.367 5053.92 6159.46 5053.92 C 6160.553 5053.92 6161.46 5053.5467 6162.18 5052.8 C 6162.9130000000005 5052.0533 6163.28 5051.1267 6163.28 5050.02 C 6163.28 5048.8867 6162.92 5047.96 6162.2 5047.24 C 6161.48 5046.5067 6160.567 5046.14 6159.46 5046.14 C 6158.353 5046.14 6157.44 5046.5067 6156.72 5047.24 C 6156 5047.9733 6155.64 5048.9 6155.64 5050.02C 6155.64 5051.14 6156 5052.0733 6156.72 5052.82Z"></path><path fill="black" stroke="none" fill-opacity="1" stroke-width="1" stroke-opacity="1" font-size-adjust="none" id="tSvgacda0ccf48" title="Path 13" d="M 6202.463 5054.5 C 6199.723 5054.5 6196.983 5054.5 6194.243 5054.5 C 6195.949666666666 5052.62 6197.656333333333 5050.74 6199.363 5048.86 C 6200.07 5048.06 6200.556 5047.46 6200.823 5047.06 C 6201.343 5046.26 6201.603 5045.5 6201.603 5044.78 C 6201.603 5043.9267 6201.31 5043.2133 6200.723 5042.64 C 6200.15 5042.0667 6199.41 5041.78 6198.503 5041.78 C 6197.543 5041.78 6196.776 5042.1067 6196.203 5042.76 C 6195.67 5043.3467 6195.41 5044.0733 6195.423 5044.94 C 6195.129666666667 5044.94 6194.836333333334 5044.94 6194.543 5044.94 C 6194.53 5043.82 6194.883 5042.8867 6195.603 5042.14 C 6196.35 5041.3667 6197.336 5040.98 6198.563 5040.98 C 6199.71 5040.98 6200.656 5041.3467 6201.403 5042.08 C 6202.15 5042.8 6202.523 5043.7 6202.523 5044.78 C 6202.523 5045.7267 6202.203 5046.64 6201.563 5047.52 C 6201.256 5047.9467 6200.863 5048.4267 6200.383 5048.96 C 6198.9563333333335 5050.54 6197.529666666666 5052.12 6196.103 5053.7 C 6198.223 5053.7 6200.343 5053.7 6202.463 5053.7C 6202.463 5053.966666666666 6202.463 5054.233333333334 6202.463 5054.5Z M 6204.44 5054.22 C 6207.32 5050.133333333333 6210.2 5046.046666666667 6213.08 5041.96 C 6210.38 5041.96 6207.68 5041.96 6204.98 5041.96 C 6204.98 5041.693333333334 6204.98 5041.426666666666 6204.98 5041.16 C 6208.2 5041.16 6211.42 5041.16 6214.64 5041.16 C 6211.46 5045.68 6208.28 5050.2 6205.1 5054.72C 6204.88 5054.553333333333 6204.66 5054.386666666666 6204.44 5054.22Z"></path><path fill="black" stroke="none" fill-opacity="1" stroke-width="1" stroke-opacity="1" font-size-adjust="none" id="tSvg234faee3f2" title="Path 14" d="M 6252.463 5054.5 C 6249.723 5054.5 6246.983 5054.5 6244.243 5054.5 C 6245.949666666666 5052.62 6247.656333333333 5050.74 6249.363 5048.86 C 6250.07 5048.06 6250.556 5047.46 6250.823 5047.06 C 6251.343 5046.26 6251.603 5045.5 6251.603 5044.78 C 6251.603 5043.9267 6251.31 5043.2133 6250.723 5042.64 C 6250.15 5042.0667 6249.41 5041.78 6248.503 5041.78 C 6247.543 5041.78 6246.776 5042.1067 6246.203 5042.76 C 6245.67 5043.3467 6245.41 5044.0733 6245.423 5044.94 C 6245.129666666667 5044.94 6244.836333333334 5044.94 6244.543 5044.94 C 6244.53 5043.82 6244.883 5042.8867 6245.603 5042.14 C 6246.35 5041.3667 6247.336 5040.98 6248.563 5040.98 C 6249.71 5040.98 6250.656 5041.3467 6251.403 5042.08 C 6252.15 5042.8 6252.523 5043.7 6252.523 5044.78 C 6252.523 5045.7267 6252.2029999999995 5046.64 6251.563 5047.52 C 6251.256 5047.9467 6250.863 5048.4267 6250.383 5048.96 C 6248.9563333333335 5050.54 6247.529666666666 5052.12 6246.103 5053.7 C 6248.223 5053.7 6250.343 5053.7 6252.463 5053.7C 6252.463 5053.966666666666 6252.463 5054.233333333334 6252.463 5054.5Z M 6261.16 5047.58 C 6261.853 5047.8467 6262.387 5048.2867 6262.76 5048.9 C 6263.147 5049.5133 6263.34 5050.2 6263.34 5050.96 C 6263.34 5052.0933 6262.967 5053.0067 6262.22 5053.7 C 6261.473 5054.38 6260.56 5054.72 6259.48 5054.72 C 6258.4 5054.72 6257.487 5054.38 6256.74 5053.7 C 6255.993 5053.0067 6255.62 5052.0933 6255.62 5050.96 C 6255.62 5050.2 6255.807 5049.5133 6256.18 5048.9 C 6256.567 5048.2867 6257.107 5047.8467 6257.8 5047.58 C 6256.56 5046.9267 6255.94 5045.9 6255.94 5044.5 C 6255.94 5043.5 6256.28 5042.6667 6256.96 5042 C 6257.64 5041.32 6258.48 5040.98 6259.48 5040.98 C 6260.48 5040.98 6261.32 5041.32 6262 5042 C 6262.68 5042.6667 6263.02 5043.5 6263.02 5044.5C 6263.02 5045.9 6262.4 5046.9267 6261.16 5047.58Z M 6257.62 5046.44 C 6258.14 5046.9467 6258.76 5047.2 6259.48 5047.2 C 6260.2 5047.2 6260.813 5046.9467 6261.32 5046.44 C 6261.84 5045.92 6262.1 5045.2733 6262.1 5044.5 C 6262.1 5043.7133 6261.847 5043.0667 6261.34 5042.56 C 6260.833 5042.04 6260.213 5041.78 6259.48 5041.78 C 6258.747 5041.78 6258.127 5042.04 6257.62 5042.56 C 6257.113 5043.0667 6256.86 5043.7133 6256.86 5044.5C 6256.86 5045.2733 6257.113 5045.92 6257.62 5046.44Z M 6257.34 5053.08 C 6257.887 5053.64 6258.6 5053.92 6259.48 5053.92 C 6260.36 5053.92 6261.067 5053.64 6261.6 5053.08 C 6262.147 5052.5067 6262.42 5051.8 6262.42 5050.96 C 6262.42 5050.08 6262.147 5049.36 6261.6 5048.8 C 6261.053 5048.24 6260.347 5047.96 6259.48 5047.96 C 6258.613 5047.96 6257.907 5048.24 6257.36 5048.8 C 6256.813 5049.36 6256.54 5050.08 6256.54 5050.96C 6256.54 5051.8 6256.807 5052.5067 6257.34 5053.08Z"></path><path fill="black" stroke="none" fill-opacity="1" stroke-width="1" stroke-opacity="1" font-size-adjust="none" id="tSvgd78bc5bd50" title="Path 15" d="M 6302.463 5054.5 C 6299.723 5054.5 6296.983 5054.5 6294.243 5054.5 C 6295.949666666666 5052.62 6297.656333333333 5050.74 6299.363 5048.86 C 6300.07 5048.06 6300.556 5047.46 6300.823 5047.06 C 6301.343 5046.26 6301.603 5045.5 6301.603 5044.78 C 6301.603 5043.9267 6301.31 5043.2133 6300.723 5042.64 C 6300.15 5042.0667 6299.41 5041.78 6298.503 5041.78 C 6297.543 5041.78 6296.776 5042.1067 6296.2029999999995 5042.76 C 6295.67 5043.3467 6295.41 5044.0733 6295.423 5044.94 C 6295.129666666667 5044.94 6294.836333333334 5044.94 6294.543 5044.94 C 6294.53 5043.82 6294.883 5042.8867 6295.603 5042.14 C 6296.35 5041.3667 6297.336 5040.98 6298.563 5040.98 C 6299.71 5040.98 6300.656 5041.3467 6301.403 5042.08 C 6302.15 5042.8 6302.523 5043.7 6302.523 5044.78 C 6302.523 5045.7267 6302.2029999999995 5046.64 6301.563 5047.52 C 6301.256 5047.9467 6300.863 5048.4267 6300.383 5048.96 C 6298.9563333333335 5050.54 6297.529666666666 5052.12 6296.103 5053.7 C 6298.223 5053.7 6300.343 5053.7 6302.463 5053.7C 6302.463 5053.966666666666 6302.463 5054.233333333334 6302.463 5054.5Z M 6308.94 5054.72 C 6308.713333333333 5054.546666666667 6308.486666666667 5054.373333333333 6308.26 5054.2 C 6309.246666666667 5052.793333333333 6310.233333333334 5051.386666666666 6311.22 5049.98 C 6310.647 5050.22 6310.04 5050.34 6309.4 5050.34 C 6308.067 5050.34 6306.96 5049.9 6306.08 5049.02 C 6305.2 5048.14 6304.76 5047.0267 6304.76 5045.68 C 6304.76 5044.3333 6305.207 5043.2133 6306.1 5042.32 C 6306.993 5041.4267 6308.133 5040.98 6309.52 5040.98 C 6310.88 5040.98 6312.007 5041.4267 6312.9 5042.32 C 6313.793 5043.2133 6314.24 5044.34 6314.24 5045.7 C 6314.24 5046.6733 6313.9529999999995 5047.58 6313.38 5048.42C 6311.9 5050.52 6310.42 5052.62 6308.94 5054.72Z M 6312.22 5042.9 C 6311.5 5042.1533 6310.593 5041.78 6309.5 5041.78 C 6308.407 5041.78 6307.493 5042.1533 6306.76 5042.9 C 6306.04 5043.6467 6305.68 5044.5667 6305.68 5045.66 C 6305.68 5046.7933 6306.04 5047.7267 6306.76 5048.46 C 6307.493 5049.18 6308.407 5049.54 6309.5 5049.54 C 6310.607 5049.54 6311.52 5049.1733 6312.24 5048.44 C 6312.96 5047.7067 6313.32 5046.78 6313.32 5045.66C 6313.32 5044.5533 6312.9529999999995 5043.6333 6312.22 5042.9Z"></path><defs> </defs></svg> 