<?xml version="1.0" encoding="UTF-8"?> <svg xmlns="http://www.w3.org/2000/svg" width="113" height="35" viewBox="0 0 113 35" fill="none"><path d="M32.5547 1.28516C32.5547 1.35807 32.2422 1.51432 31.6172 1.75391C30.2839 2.26432 29.0651 3.04557 27.9609 4.09766C28.1589 4.69141 28.2578 5.27995 28.2578 5.86328C28.2578 6.6862 28.0651 7.73307 27.6797 9.00391C26.8984 11.6081 25.4766 14.1185 23.4141 16.5352C21.362 18.9518 19.112 20.7539 16.6641 21.9414C15.6953 22.4102 14.6172 22.7799 13.4297 23.0508C12.6901 23.207 12.112 23.2852 11.6953 23.2852C11.2057 23.2852 10.7318 23.1966 10.2734 23.0195C9.82552 22.832 9.3776 22.6393 8.92969 22.4414C7.4401 22.8581 5.98177 23.0664 4.55469 23.0664C2.98177 23.0664 1.89844 22.8424 1.30469 22.3945C0.908854 22.0924 0.710938 21.7904 0.710938 21.4883C0.710938 20.8737 1.11198 20.3945 1.91406 20.0508C2.52865 19.7904 3.1901 19.6602 3.89844 19.6602C5.40885 19.6602 7.52865 20.2852 10.2578 21.5352C13.6641 20.0143 17.2734 16.3581 21.0859 10.5664C21.8776 9.35807 22.7266 8.22786 23.6328 7.17578C24.6328 5.9987 25.9089 4.84766 27.4609 3.72266C27.0026 2.71224 26.3984 2.00391 25.6484 1.59766C24.9714 1.23307 24.0443 1.05078 22.8672 1.05078C21.138 1.05078 19.4453 1.66016 17.7891 2.87891C14.9141 5.00391 12.6641 7.30078 11.0391 9.76953C10.3203 10.8529 9.96094 11.8841 9.96094 12.8633C9.96094 13.4049 10.1641 13.9049 10.5703 14.3633C10.987 14.8216 11.4609 15.0508 11.9922 15.0508C13.0651 15.0508 14.4036 14.4362 16.0078 13.207C17.2995 12.2279 18.3984 11.1706 19.3047 10.0352C20.3151 8.77474 20.8203 7.60807 20.8203 6.53516C20.8203 5.68099 20.5286 5.25391 19.9453 5.25391C18.8932 5.25391 17.6901 6.04036 16.3359 7.61328C16.013 7.97786 15.362 8.64974 14.3828 9.62891C14.0182 9.99349 13.7786 10.4518 13.6641 11.0039C13.6432 11.1185 13.5911 11.6445 13.5078 12.582C13.4974 12.7174 13.4453 12.7799 13.3516 12.7695C13.3307 12.7799 13.3099 12.7904 13.2891 12.8008C13.112 12.8008 13.0234 12.3529 13.0234 11.457C13.0234 10.707 13.2214 9.99349 13.6172 9.31641C14.2526 8.25391 15.1276 7.25391 16.2422 6.31641C17.5443 5.21224 18.7005 4.66016 19.7109 4.66016C20.7734 4.66016 21.3047 5.22266 21.3047 6.34766C21.3047 7.02474 21.2109 7.58724 21.0234 8.03516C20.388 9.54557 19.138 11.1289 17.2734 12.7852C15.2526 14.5872 13.5182 15.4883 12.0703 15.4883C9.94531 15.4883 8.88281 14.332 8.88281 12.0195C8.88281 9.91536 9.97656 7.75391 12.1641 5.53516C14.0807 3.57682 16.1641 2.17578 18.4141 1.33203C19.737 0.832031 21.0495 0.582031 22.3516 0.582031C25.1536 0.582031 26.9557 1.56641 27.7578 3.53516C29.3307 2.42057 30.8516 1.60807 32.3203 1.09766C32.3307 1.09766 32.3516 1.09245 32.3828 1.08203C32.4974 1.08203 32.5547 1.14974 32.5547 1.28516ZM27.9141 5.87891C27.9141 5.37891 27.8464 4.87891 27.7109 4.37891C26.763 5.35807 25.8776 6.45703 25.0547 7.67578C23.9401 9.39453 22.2161 11.9362 19.8828 15.3008C18.862 16.6654 17.6536 17.8841 16.2578 18.957C15.4245 19.6029 14.2891 20.2695 12.8516 20.957C12.4141 21.1654 11.7578 21.4466 10.8828 21.8008C11.6745 22.1237 12.3359 22.2852 12.8672 22.2852C13.7839 22.2852 14.9245 22.0404 16.2891 21.5508C18.0391 20.9362 19.8047 19.7487 21.5859 17.9883C23.1172 16.4883 24.4557 14.7956 25.6016 12.9102C26.3307 11.7018 26.9141 10.3685 27.3516 8.91016C27.7266 7.60807 27.9141 6.59766 27.9141 5.87891ZM8.42969 22.1914C6.02344 21.1289 4.22135 20.5977 3.02344 20.5977C1.92969 20.5977 1.38281 20.8789 1.38281 21.4414C1.38281 21.7122 1.55469 21.9727 1.89844 22.2227C2.38802 22.5768 3.29427 22.7539 4.61719 22.7539C5.79427 22.7539 7.0651 22.5664 8.42969 22.1914ZM34.7422 19.582C34.7422 19.6133 34.7161 19.6497 34.6641 19.6914L31.6328 22.3164C31.0599 22.806 30.5391 23.0508 30.0703 23.0508C29.2786 23.0508 28.8828 22.6081 28.8828 21.7227C28.8828 21.3685 29.0234 21.0404 29.3047 20.7383L32.6016 17.2539C32.7786 17.0664 32.8672 16.8945 32.8672 16.7383C32.8672 16.5924 32.7682 16.5195 32.5703 16.5195C32.1641 16.5195 30.9557 17.431 28.9453 19.2539C28.3203 19.8164 27.6328 20.5768 26.8828 21.5352C26.2474 22.3477 25.6172 23.1602 24.9922 23.9727L17.1328 33.707C17.0078 33.8633 16.8568 33.9466 16.6797 33.957L15.1641 34.0195C15.0391 34.0299 14.9766 33.9779 14.9766 33.8633C14.9766 33.6758 15.0807 33.4622 15.2891 33.2227L29.0234 16.832C29.3047 16.4987 29.6693 16.1081 30.1172 15.6602C26.4818 18.4206 24.6536 19.8008 24.6328 19.8008C24.5182 19.8008 24.4609 19.7435 24.4609 19.6289C24.4609 19.5664 24.4818 19.5195 24.5234 19.4883L30.4922 14.9414C31.3047 14.3164 32.1328 13.6289 32.9766 12.8789C33.2161 12.6706 33.4036 12.5664 33.5391 12.5664C33.6328 12.5664 33.6797 12.6341 33.6797 12.7695C33.6797 12.9258 33.3099 13.4674 32.5703 14.3945L29.3672 18.4414L31.4453 16.707C32.0391 16.2174 32.5651 15.9727 33.0234 15.9727C33.7422 15.9727 34.1016 16.4674 34.1016 17.457C34.1016 17.7591 33.9922 18.0299 33.7734 18.2695L30.4609 21.7539C30.2839 21.9414 30.1953 22.1133 30.1953 22.2695C30.1953 22.4258 30.2839 22.5039 30.4609 22.5039C30.7734 22.5039 31.4922 22.0039 32.6172 21.0039C33.7943 19.9727 34.4401 19.4414 34.5547 19.4102C34.6797 19.4206 34.7422 19.4779 34.7422 19.582ZM43.3047 17.1602C43.3047 18.5247 41.3203 19.6706 37.3516 20.5977C36.6641 21.306 36.3203 21.8685 36.3203 22.2852C36.3203 22.6602 36.4974 22.8477 36.8516 22.8477C37.612 22.8477 38.6328 22.3841 39.9141 21.457C41.6536 20.1966 42.6068 19.5247 42.7734 19.4414C42.888 19.4727 42.9453 19.5352 42.9453 19.6289C42.9453 19.6914 42.4974 20.0299 41.6016 20.6445C40.5599 21.3633 40.0391 21.7227 40.0391 21.7227C38.8516 22.6497 37.7891 23.1133 36.8516 23.1133C35.8307 23.1133 35.3203 22.6081 35.3203 21.5977C35.3203 20.2122 36.3672 18.7747 38.4609 17.2852C37.6068 17.8268 36.3307 18.6393 34.6328 19.7227L34.5234 19.7695C34.4297 19.7591 34.3828 19.7018 34.3828 19.5977C34.3828 19.5456 34.3984 19.4935 34.4297 19.4414C36.1276 18.2018 37.7578 17.2695 39.3203 16.6445C39.5078 16.582 39.7839 16.4831 40.1484 16.3477C41.0651 15.9727 41.737 15.7852 42.1641 15.7852C42.9245 15.7852 43.3047 16.2435 43.3047 17.1602ZM42.5703 16.6133C42.5703 16.2695 42.4193 16.0977 42.1172 16.0977C41.5755 16.0977 40.112 17.4362 37.7266 20.1133C37.987 20.1133 38.3672 19.9935 38.8672 19.7539L39.8984 19.2383C40.3984 18.9987 40.9349 18.6289 41.5078 18.1289C42.2161 17.5039 42.5703 16.9987 42.5703 16.6133ZM51.0703 16.9414C51.0703 17.3997 50.9661 17.8112 50.7578 18.1758C50.4974 18.5924 50.1536 18.8008 49.7266 18.8008C49.1641 18.8008 48.8828 18.5143 48.8828 17.9414C48.8828 17.1393 49.2474 16.5247 49.9766 16.0977C49.8932 16.1289 49.7786 16.181 49.6328 16.2539C49.2057 16.4831 48.3411 17.2904 47.0391 18.6758C45.8307 19.957 45.0078 20.9049 44.5703 21.5195C44.3724 21.7904 44.2734 22.0195 44.2734 22.207C44.2734 22.5299 44.4661 22.6914 44.8516 22.6914C45.7786 22.6914 46.9714 22.1549 48.4297 21.082C49.888 19.9987 50.612 19.457 50.6016 19.457C50.6432 19.457 50.6901 19.4727 50.7422 19.5039L50.7891 19.6289C50.7786 19.6289 50.3568 19.9935 49.5234 20.7227C47.6901 22.3164 46.1849 23.1133 45.0078 23.1133C43.7682 23.1133 43.1484 22.6393 43.1484 21.6914C43.1484 20.4831 44.1172 19.082 46.0547 17.4883C45.6068 17.7279 45.0547 18.1133 44.3984 18.6445C43.513 19.3424 42.9818 19.6914 42.8047 19.6914C42.6901 19.6914 42.6328 19.6341 42.6328 19.5195C42.6328 19.4674 42.6693 19.4206 42.7422 19.3789C44.1484 18.3268 45.1484 17.6237 45.7422 17.2695C46.7422 16.6758 47.888 16.1862 49.1797 15.8008C49.388 15.7383 49.5703 15.707 49.7266 15.707C50.0911 15.707 50.4036 15.8216 50.6641 16.0508C50.9349 16.2799 51.0703 16.5768 51.0703 16.9414ZM59.0703 16.9414C59.0703 17.3997 58.9661 17.8112 58.7578 18.1758C58.4974 18.5924 58.1536 18.8008 57.7266 18.8008C57.1641 18.8008 56.8828 18.5143 56.8828 17.9414C56.8828 17.1393 57.2474 16.5247 57.9766 16.0977C57.8932 16.1289 57.7786 16.181 57.6328 16.2539C57.2057 16.4831 56.3411 17.2904 55.0391 18.6758C53.8307 19.957 53.0078 20.9049 52.5703 21.5195C52.3724 21.7904 52.2734 22.0195 52.2734 22.207C52.2734 22.5299 52.4661 22.6914 52.8516 22.6914C53.7786 22.6914 54.9714 22.1549 56.4297 21.082C57.888 19.9987 58.612 19.457 58.6016 19.457C58.6432 19.457 58.6901 19.4727 58.7422 19.5039L58.7891 19.6289C58.7786 19.6289 58.3568 19.9935 57.5234 20.7227C55.6901 22.3164 54.1849 23.1133 53.0078 23.1133C51.7682 23.1133 51.1484 22.6393 51.1484 21.6914C51.1484 20.4831 52.1172 19.082 54.0547 17.4883C53.6068 17.7279 53.0547 18.1133 52.3984 18.6445C51.513 19.3424 50.9818 19.6914 50.8047 19.6914C50.6901 19.6914 50.6328 19.6341 50.6328 19.5195C50.6328 19.4674 50.6693 19.4206 50.7422 19.3789C52.1484 18.3268 53.1484 17.6237 53.7422 17.2695C54.7422 16.6758 55.888 16.1862 57.1797 15.8008C57.388 15.7383 57.5703 15.707 57.7266 15.707C58.0911 15.707 58.4036 15.8216 58.6641 16.0508C58.9349 16.2799 59.0703 16.5768 59.0703 16.9414ZM73.3033 18.9875C73.3033 19.3075 73.058 19.5849 72.5673 19.8195C72.0766 20.0542 71.5646 20.1715 71.0313 20.1715C70.434 20.1715 69.6446 19.9795 68.6633 19.5955C67.682 19.1902 66.914 18.9875 66.3593 18.9875C66.1246 18.9875 65.794 19.0942 65.3673 19.3075C64.9406 19.4995 64.674 19.5955 64.5673 19.5955L64.5033 19.5635C64.5033 19.4142 64.7593 19.1689 65.2713 18.8275C65.89 18.4435 66.5193 18.2515 67.1593 18.2515C67.6926 18.2515 68.482 18.4755 69.5273 18.9235C70.5726 19.3502 71.2766 19.5635 71.6393 19.5635C72.0446 19.5635 72.4073 19.4569 72.7273 19.2435C73.0686 19.0089 73.2286 18.8915 73.2073 18.8915C73.2713 18.8915 73.3033 18.9235 73.3033 18.9875ZM95.4659 6.22266C95.4659 6.33724 95.4503 6.45182 95.4191 6.56641C95.117 7.69141 94.3774 8.77995 93.2003 9.83203C92.8253 10.1654 91.7472 10.9622 89.9659 12.2227C89.6118 12.4831 89.2784 12.7122 88.9659 12.9102C88.4764 13.2227 87.9555 13.5716 87.4034 13.957L85.7472 16.0508C87.018 15.1966 88.0597 14.7695 88.8722 14.7695C89.6639 14.7695 90.0597 15.1549 90.0597 15.9258C90.0597 16.1133 90.0232 16.2904 89.9503 16.457C89.6482 17.0924 89.1378 17.5456 88.4191 17.8164C88.2003 17.8997 87.518 18.0508 86.3722 18.2695C86.8201 18.6237 87.0441 18.9362 87.0441 19.207C87.0441 19.957 86.8357 20.5143 86.4191 20.8789C85.7941 21.4414 85.4139 21.8529 85.2784 22.1133C85.2159 22.2174 85.1847 22.2956 85.1847 22.3477C85.1847 22.4727 85.268 22.5352 85.4347 22.5352C85.7576 22.5352 86.5284 22.0143 87.7472 20.9727C88.9764 19.9206 89.6326 19.3945 89.7159 19.3945C89.8097 19.3945 89.8566 19.4518 89.8566 19.5664C89.8566 19.6081 89.8305 19.6497 89.7784 19.6914C89.4555 19.9935 88.9451 20.4414 88.2472 21.0352C87.7576 21.4831 86.9868 22.0872 85.9347 22.8477C85.6639 23.0039 85.3774 23.082 85.0753 23.082C84.2732 23.082 83.8722 22.6497 83.8722 21.7852C83.8722 21.3685 84.1951 20.8372 84.8409 20.1914C85.4972 19.5352 85.8253 19.0977 85.8253 18.8789C85.8253 18.6289 85.6899 18.5039 85.4191 18.5039C85.0128 18.5039 84.6847 18.582 84.4347 18.7383C84.4347 18.7799 84.4399 18.8477 84.4503 18.9414C84.4711 19.0247 84.4816 19.0924 84.4816 19.1445C84.4816 19.4154 84.3201 19.5508 83.9972 19.5508C83.6326 19.5508 83.4243 19.3581 83.3722 18.9727C82.8097 19.6497 81.992 20.6758 80.9191 22.0508C80.7941 22.2695 80.5909 22.556 80.3097 22.9102C80.2055 23.0143 79.768 23.0664 78.9972 23.0664C78.518 23.0664 78.2784 22.9206 78.2784 22.6289C78.2784 22.5143 78.3357 22.3893 78.4503 22.2539C79.0128 21.6706 79.8357 20.7695 80.9191 19.5508C81.367 18.9674 82.0701 18.1185 83.0284 17.0039C80.7368 18.8164 79.5805 19.7227 79.5597 19.7227C79.4451 19.7227 79.3878 19.6602 79.3878 19.5352C79.3878 19.4935 79.4086 19.4518 79.4503 19.4102C80.4086 18.7018 81.8253 17.6133 83.7003 16.1445C83.8774 15.9154 84.1326 15.5924 84.4659 15.1758C84.5076 15.1341 86.0701 13.2747 89.1534 9.59766C90.0493 8.52474 90.7628 7.72786 91.2941 7.20703C92.2316 6.27995 93.0805 5.66536 93.8409 5.36328C94.2576 5.1862 94.5701 5.09766 94.7784 5.09766C95.2368 5.09766 95.4659 5.47266 95.4659 6.22266ZM95.1066 5.89453C95.1066 5.70703 95.0024 5.61328 94.7941 5.61328C94.3566 5.61328 93.7264 5.99349 92.9034 6.75391C92.7368 6.91016 92.2316 7.51432 91.3878 8.56641C90.6066 9.62891 89.4086 11.207 87.7941 13.3008C91.2524 10.9883 93.4191 9.14453 94.2941 7.76953C94.4086 7.59245 94.5024 7.45182 94.5753 7.34766C94.9295 6.85807 95.1066 6.3737 95.1066 5.89453ZM88.4191 15.5508C88.4191 15.3945 88.2941 15.3164 88.0441 15.3164C87.8774 15.3164 87.3618 15.6185 86.4972 16.2227C85.6847 16.7747 84.867 17.5247 84.0441 18.4727C84.367 18.2643 84.6847 18.1393 84.9972 18.0977C85.5909 18.0247 85.9139 17.9831 85.9659 17.9727C86.4034 17.8685 86.8566 17.6081 87.3253 17.1914C87.8045 16.7747 88.143 16.3529 88.3409 15.9258C88.393 15.832 88.4191 15.707 88.4191 15.5508ZM97.5597 19.5195C97.5597 19.6862 97.1847 20.0143 96.4347 20.5039C96.1951 20.6602 95.8982 20.7383 95.5441 20.7383C93.8461 22.3841 92.4191 23.207 91.2628 23.207C90.2211 23.207 89.7003 22.7279 89.7003 21.7695C89.7003 20.4883 90.6326 19.0977 92.4972 17.5977C91.9972 17.8685 91.6326 18.082 91.4034 18.2383C90.9555 18.6862 90.4139 19.1758 89.7784 19.707C89.6951 19.6654 89.6534 19.6081 89.6534 19.5352C89.6534 19.3893 89.9764 19.0404 90.6222 18.4883C91.4451 17.7695 92.7055 17.056 94.4034 16.3477C95.4243 15.931 96.0961 15.7227 96.4191 15.7227C97.117 15.7227 97.4659 15.9622 97.4659 16.4414C97.4659 16.3268 97.4034 16.6237 97.2784 17.332C97.3097 17.4154 97.3253 17.5091 97.3253 17.6133C97.3253 18.3424 96.8618 19.1602 95.9347 20.0664C95.8826 20.1185 95.8461 20.1654 95.8253 20.207L95.8722 20.2539C96.1222 20.2539 96.4086 20.1081 96.7316 19.8164C97.0649 19.5247 97.2784 19.3789 97.3722 19.3789C97.4972 19.3789 97.5597 19.4258 97.5597 19.5195ZM96.9503 16.6133C96.9503 16.2904 96.7993 16.1289 96.4972 16.1289C96.0909 16.1289 95.0336 17.0195 93.3253 18.8008C91.6274 20.5716 90.7784 21.7122 90.7784 22.2227C90.7784 22.6289 90.9711 22.832 91.3566 22.832C91.7316 22.832 92.1274 22.7279 92.5441 22.5195C92.9295 22.3216 93.3878 22.0352 93.9191 21.6602C94.617 21.181 94.9711 20.8424 94.9816 20.6445C94.7316 20.6445 94.6066 20.457 94.6066 20.082C94.6066 19.5508 94.8514 18.9414 95.3409 18.2539C95.8514 17.5247 96.3618 17.1341 96.8722 17.082C96.9243 16.9674 96.9503 16.8112 96.9503 16.6133ZM112.872 8.69141C112.872 10.9518 111.112 13.957 107.591 17.707C106.747 18.5091 105.492 19.7227 103.825 21.3477C104.346 21.0352 104.789 20.7539 105.153 20.5039C105.393 20.2643 105.778 19.9518 106.31 19.5664C106.341 19.5039 106.388 19.4414 106.45 19.3789C106.565 19.3997 106.622 19.4622 106.622 19.5664C106.622 19.5977 106.596 19.6341 106.544 19.6758C103.554 22.0195 101.304 23.1914 99.7941 23.1914C98.617 23.1914 98.0284 22.6914 98.0284 21.6914C98.0284 20.4935 98.9972 19.1185 100.935 17.5664C100.435 17.8477 99.8566 18.2227 99.2003 18.6914C98.6274 19.0977 98.0649 19.4518 97.5128 19.7539C97.4607 19.7539 97.4034 19.6914 97.3409 19.5664C97.3409 19.5247 97.3722 19.4831 97.4347 19.4414C97.6743 19.2747 98.5597 18.707 100.091 17.7383C100.612 17.4049 101.518 16.9362 102.81 16.332C103.664 15.9362 104.346 15.7383 104.857 15.7383C105.804 15.7383 106.278 16.1393 106.278 16.9414C106.278 17.5872 106.044 18.3216 105.575 19.1445C106.711 18.1237 107.554 17.3112 108.107 16.707C110.232 14.3424 111.607 12.2331 112.232 10.3789C112.367 9.96224 112.435 9.39974 112.435 8.69141C112.435 7.35807 111.804 6.69141 110.544 6.69141C109.534 6.69141 108.466 7.39453 107.341 8.80078C106.258 10.1549 105.716 11.3529 105.716 12.3945C105.716 13.0091 106.06 13.3164 106.747 13.3164C107.247 13.3164 107.778 13.0247 108.341 12.4414C108.82 11.9414 109.179 11.4154 109.419 10.8633C109.596 10.4362 109.784 9.94661 109.982 9.39453C110.086 9.1237 110.138 8.90495 110.138 8.73828C110.138 8.4987 110.049 8.31641 109.872 8.19141C109.695 8.05599 109.607 7.98307 109.607 7.97266C109.607 7.84766 109.653 7.77474 109.747 7.75391C110.247 7.82682 110.497 8.21745 110.497 8.92578C110.497 9.95703 110.127 10.9727 109.388 11.9727C108.596 13.0664 107.7 13.6133 106.7 13.6133C105.409 13.6133 104.763 12.9102 104.763 11.5039C104.763 10.4727 105.148 9.45182 105.919 8.44141C106.638 7.49349 107.497 6.79557 108.497 6.34766C108.956 6.14974 109.565 6.05078 110.325 6.05078C110.679 6.05078 111.086 6.14453 111.544 6.33203C112.429 6.6862 112.872 7.47266 112.872 8.69141ZM105.81 17.1602C105.81 16.4831 105.591 16.1445 105.153 16.1445C104.476 16.1445 103.211 17.2435 101.357 19.4414C100.898 19.9102 100.263 20.6393 99.4503 21.6289C99.2941 21.8581 99.2159 22.0872 99.2159 22.3164C99.2159 22.7227 99.4764 22.9258 99.9972 22.9258C100.414 22.9258 101.065 22.6341 101.95 22.0508C102.836 21.4674 103.653 20.7591 104.403 19.9258C105.341 18.8737 105.81 17.9518 105.81 17.1602Z" fill="#28682E"></path></svg> 