<?xml version="1.0" encoding="UTF-8"?> <svg xmlns="http://www.w3.org/2000/svg" width="60" height="19" viewBox="0 0 60 19" fill="none"><path d="M3.85077 18.025H6.58677C8.07477 18.025 9.27477 17.609 10.1868 16.777C11.0988 15.945 11.5548 14.841 11.5548 13.465C11.5548 12.025 11.0748 10.841 10.1148 9.91303C9.15477 8.98503 7.93077 8.52103 6.44277 8.52103H5.17077V8.11303H6.13077C7.18677 8.11303 8.05877 7.80903 8.74677 7.20103C9.43477 6.59303 9.77877 5.81703 9.77877 4.87303C9.77877 3.89703 9.41077 3.11303 8.67477 2.52103C7.95477 1.92903 6.99477 1.63303 5.79477 1.63303H3.85077V1.65703C4.12277 1.92903 4.25877 2.34503 4.25877 2.90503V16.753C4.25877 17.297 4.12277 17.705 3.85077 17.977V18.025ZM0.274773 18.457V18.241H1.11477C1.69077 18.241 2.04277 18.177 2.17077 18.049C2.31477 17.905 2.38677 17.545 2.38677 16.969V2.68903C2.38677 2.11303 2.31477 1.76103 2.17077 1.63303C2.04277 1.48903 1.69077 1.41703 1.11477 1.41703H0.274773V1.20103H6.13077C7.84277 1.20103 9.21877 1.53703 10.2588 2.20903C11.2988 2.86503 11.8188 3.73703 11.8188 4.82503C11.8188 5.56103 11.4988 6.27303 10.8588 6.96103C10.2348 7.63303 9.40277 8.04103 8.36277 8.18503V8.28103C9.86677 8.39303 11.1228 8.96903 12.1308 10.009C13.1388 11.049 13.6428 12.201 13.6428 13.465C13.6428 14.937 13.0108 16.137 11.7468 17.065C10.4828 17.993 8.90677 18.457 7.01877 18.457H0.274773ZM23.6939 18.649C21.0219 18.649 18.8699 17.841 17.2379 16.225C15.6059 14.609 14.7899 12.473 14.7899 9.81703C14.7899 7.17703 15.6059 5.04903 17.2379 3.43303C18.8699 1.81703 21.0219 1.00903 23.6939 1.00903C26.3499 1.00903 28.4859 1.81703 30.1019 3.43303C31.7339 5.04903 32.5499 7.17703 32.5499 9.81703C32.5499 12.473 31.7339 14.609 30.1019 16.225C28.4859 17.841 26.3499 18.649 23.6939 18.649ZM23.7659 18.217C25.9419 18.217 27.5979 17.537 28.7339 16.177C29.8859 14.817 30.4619 12.849 30.4619 10.273C30.4619 7.40903 29.8699 5.22503 28.6859 3.72103C27.5179 2.20103 25.8219 1.44103 23.5979 1.44103C21.4059 1.44103 19.7339 2.12103 18.5819 3.48103C17.4459 4.84103 16.8779 6.80903 16.8779 9.38503C16.8779 12.249 17.4619 14.441 18.6299 15.961C19.8139 17.465 21.5259 18.217 23.7659 18.217ZM37.2961 18.025H40.0321C41.5201 18.025 42.7201 17.609 43.6321 16.777C44.5441 15.945 45.0001 14.841 45.0001 13.465C45.0001 12.025 44.5201 10.841 43.5601 9.91303C42.6001 8.98503 41.3761 8.52103 39.8881 8.52103H38.6161V8.11303H39.5761C40.6321 8.11303 41.5041 7.80903 42.1921 7.20103C42.8801 6.59303 43.2241 5.81703 43.2241 4.87303C43.2241 3.89703 42.8561 3.11303 42.1201 2.52103C41.4001 1.92903 40.4401 1.63303 39.2401 1.63303H37.2961V1.65703C37.5681 1.92903 37.7041 2.34503 37.7041 2.90503V16.753C37.7041 17.297 37.5681 17.705 37.2961 17.977V18.025ZM33.7201 18.457V18.241H34.5601C35.1361 18.241 35.4881 18.177 35.6161 18.049C35.7601 17.905 35.8321 17.545 35.8321 16.969V2.68903C35.8321 2.11303 35.7601 1.76103 35.6161 1.63303C35.4881 1.48903 35.1361 1.41703 34.5601 1.41703H33.7201V1.20103H39.5761C41.2881 1.20103 42.6641 1.53703 43.7041 2.20903C44.7441 2.86503 45.2641 3.73703 45.2641 4.82503C45.2641 5.56103 44.9441 6.27303 44.3041 6.96103C43.6801 7.63303 42.8481 8.04103 41.8081 8.18503V8.28103C43.3121 8.39303 44.5681 8.96903 45.5761 10.009C46.5841 11.049 47.0881 12.201 47.0881 13.465C47.0881 14.937 46.4561 16.137 45.1921 17.065C43.9281 17.993 42.3521 18.457 40.4641 18.457H33.7201ZM56.3952 9.72103V4.58503C56.3952 2.48903 55.4512 1.44103 53.5632 1.44103C52.4112 1.44103 51.5152 1.74503 50.8752 2.35303C50.2352 2.94503 49.8912 3.72903 49.8432 4.70503L49.7712 6.19303H49.3392L49.6032 0.52903H49.8432L49.7712 1.80103C49.7392 2.18503 49.7072 2.44103 49.6752 2.56903L49.8432 2.61703C49.9232 2.37703 50.0512 2.19303 50.2272 2.06503C51.1712 1.36103 52.2752 1.00903 53.5392 1.00903C55.0912 1.00903 56.2672 1.34503 57.0672 2.01703C57.8672 2.67303 58.2672 3.63303 58.2672 4.89703V16.753C58.2672 17.249 58.3072 17.577 58.3872 17.737C58.4832 17.897 58.7072 17.977 59.0592 17.977L59.5392 17.953L59.9472 17.929L59.9712 18.145C59.0272 18.241 58.1552 18.417 57.3552 18.673V18.481C57.3552 18.001 57.2672 17.281 57.0912 16.321C56.9792 15.601 56.9152 15.081 56.8992 14.761H56.6592C56.0192 17.353 54.6752 18.649 52.6272 18.649C51.3152 18.649 50.2272 18.289 49.3632 17.569C48.5152 16.833 48.0912 15.881 48.0912 14.713C48.0912 13.209 48.6752 12.001 49.8432 11.089C51.0272 10.177 52.5872 9.72103 54.5232 9.72103H56.3952ZM56.3952 10.153H54.6432C53.2992 10.153 52.2192 10.577 51.4032 11.425C50.5872 12.257 50.1792 13.353 50.1792 14.713C50.1792 15.705 50.4272 16.505 50.9232 17.113C51.4352 17.705 52.0992 18.001 52.9152 18.001C53.8432 18.001 54.6512 17.577 55.3392 16.729C56.0432 15.865 56.3952 14.633 56.3952 13.033V10.153Z" fill="black"></path></svg> 