<?xml version="1.0" encoding="UTF-8"?> <svg xmlns="http://www.w3.org/2000/svg" width="228" height="129" viewBox="0 0 228 129" fill="none"><path d="M41.6083 69.3007C43.6563 69.3007 45.3203 69.0767 46.6003 68.6287C47.9443 68.1807 49.0323 67.5727 49.8643 66.8047C50.6963 66.0367 51.3683 65.1407 51.8803 64.1167C52.3923 63.0927 52.8403 62.0047 53.2243 60.8527H60.3283V128.053H49.7683V76.7887H41.6083V69.3007ZM98.0188 111.925C98.0188 117.365 96.6108 121.557 93.7948 124.501C90.9788 127.381 86.8828 128.821 81.5068 128.821C76.1308 128.821 72.0348 127.381 69.2188 124.501C66.4028 121.557 64.9948 117.365 64.9948 111.925V106.645C64.9948 103.381 65.5068 100.565 66.5308 98.1967C67.5548 95.7647 69.2188 93.9087 71.5228 92.6287C67.1708 90.2607 64.9948 85.7487 64.9948 79.0927V76.9807C64.9948 71.5407 66.4028 67.3807 69.2188 64.5007C72.0348 61.5567 76.1308 60.0847 81.5068 60.0847C86.8828 60.0847 90.9788 61.5567 93.7948 64.5007C96.6108 67.3807 98.0188 71.5407 98.0188 76.9807V79.0927C98.0188 85.6847 95.8428 90.1967 91.4908 92.6287C93.7948 93.9087 95.4588 95.7647 96.4828 98.1967C97.5068 100.565 98.0188 103.381 98.0188 106.645V111.925ZM75.5548 111.637C75.5548 114.645 76.1308 116.661 77.2828 117.685C78.4348 118.709 79.8428 119.221 81.5068 119.221C83.1708 119.221 84.5468 118.709 85.6348 117.685C86.7868 116.661 87.3948 114.645 87.4588 111.637V105.397C87.4588 102.709 86.9148 100.789 85.8268 99.6367C84.8028 98.4207 83.3628 97.8127 81.5068 97.8127C79.6508 97.8127 78.1788 98.4207 77.0908 99.6367C76.0668 100.789 75.5548 102.709 75.5548 105.397V111.637ZM75.5548 81.1087C75.5548 83.7967 76.0988 85.6527 77.1868 86.6767C78.3388 87.7007 79.7788 88.2127 81.5068 88.2127C83.1708 88.2127 84.5788 87.7007 85.7308 86.6767C86.8828 85.6527 87.4588 83.7967 87.4588 81.1087V77.3647C87.4588 74.3567 86.8828 72.3407 85.7308 71.3167C84.5788 70.2287 83.1708 69.6847 81.5068 69.6847C79.8428 69.6847 78.4348 70.2287 77.2828 71.3167C76.1308 72.3407 75.5548 74.3567 75.5548 77.3647V81.1087ZM112.774 117.877V128.053H102.598V117.877H112.774ZM112.774 81.3007V91.4767H102.598V81.3007H112.774ZM136.166 77.3647C136.166 74.3567 135.654 72.3407 134.63 71.3167C133.67 70.2287 132.358 69.6847 130.694 69.6847C129.03 69.6847 127.686 70.1967 126.662 71.2207C125.702 72.1807 125.222 73.8767 125.222 76.3087V80.6287H115.238V76.9807C115.238 71.5407 116.55 67.3807 119.174 64.5007C121.862 61.5567 125.798 60.0847 130.982 60.0847C136.166 60.0847 140.07 61.5567 142.694 64.5007C145.382 67.3807 146.726 71.5407 146.726 76.9807V78.7087C146.726 85.8767 144.262 90.4847 139.334 92.5327C142.022 93.6847 143.91 95.4767 144.998 97.9087C146.15 100.277 146.726 103.189 146.726 106.645V111.925C146.726 117.365 145.382 121.557 142.694 124.501C140.07 127.381 136.166 128.821 130.982 128.821C125.798 128.821 121.862 127.381 119.174 124.501C116.55 121.557 115.238 117.365 115.238 111.925V106.357H125.222V112.597C125.222 115.029 125.702 116.757 126.662 117.781C127.686 118.741 129.03 119.221 130.694 119.221C132.358 119.221 133.67 118.709 134.63 117.685C135.654 116.661 136.166 114.645 136.166 111.637V106.357C136.166 103.221 135.622 101.013 134.534 99.7327C133.446 98.4527 131.686 97.8127 129.254 97.8127H125.702V88.2127H129.83C131.814 88.2127 133.35 87.7007 134.438 86.6767C135.59 85.6527 136.166 83.7967 136.166 81.1087V77.3647ZM161.62 112.597C161.62 115.029 162.1 116.757 163.06 117.781C164.084 118.741 165.428 119.221 167.092 119.221C168.756 119.221 170.068 118.741 171.028 117.781C172.052 116.757 172.564 115.029 172.564 112.597V76.3087C172.564 73.8767 172.052 72.1807 171.028 71.2207C170.068 70.1967 168.756 69.6847 167.092 69.6847C165.428 69.6847 164.084 70.1967 163.06 71.2207C162.1 72.1807 161.62 73.8767 161.62 76.3087V112.597ZM151.06 76.9807C151.06 71.5407 152.436 67.3807 155.188 64.5007C157.94 61.5567 161.908 60.0847 167.092 60.0847C172.276 60.0847 176.244 61.5567 178.996 64.5007C181.748 67.3807 183.124 71.5407 183.124 76.9807V111.925C183.124 117.365 181.748 121.557 178.996 124.501C176.244 127.381 172.276 128.821 167.092 128.821C161.908 128.821 157.94 127.381 155.188 124.501C152.436 121.557 151.06 117.365 151.06 111.925V76.9807Z" fill="#5A2024"></path><path d="M47.4431 1.23639C48.8177 1.01934 50.1441 1.07963 51.4222 1.41726C52.7004 1.75488 53.5686 2.6954 54.0268 4.23883V5.03466C54.0268 9.95432 48.7213 15.3201 38.1102 21.1321C36.8562 22.8684 37.4591 24.3636 39.9189 25.6176C43.1987 24.243 45.8153 22.8443 47.7687 21.4215C49.7221 19.9745 50.6867 19.878 50.6626 21.1321C45.55 25.9553 41.3659 28.3669 38.1102 28.3669C36.398 26.8717 34.9993 25.2559 33.914 23.5196C30.0796 27.4022 25.8834 29.5486 21.3255 29.9585C20.4814 29.7174 19.9268 29.1868 19.6615 28.3669C19.6615 23.7607 26.0884 19.9986 38.9422 17.0806C45.4053 14.4519 49.4809 10.7019 51.169 5.83048C51.0967 4.72115 50.4335 4.09413 49.1795 3.94944C44.4527 4.0459 41.6191 5.15524 40.6786 7.27744C39.7622 9.39965 38.3393 10.2558 36.41 9.84579C35.8071 9.26701 35.6986 8.10944 36.0845 6.37309C36.4944 4.61263 40.2807 2.90039 47.4431 1.23639ZM26.3537 23.5196C23.8456 25.0389 22.676 26.1844 22.8448 26.9561C23.0377 27.7278 25.2685 26.9561 29.537 24.6409C30.9357 23.194 30.7307 22.6031 28.922 22.8684L26.3537 23.5196ZM83.0383 1.01934C85.3775 1.01934 86.8004 1.56195 87.3068 2.64717C87.8133 3.73239 87.8856 4.96231 87.5239 6.33692C86.3422 8.14562 84.8952 9.58052 83.183 10.6416C80.2891 12.2092 78.9506 13.7285 79.1677 15.1995C78.3719 20.8186 76.3461 24.5204 73.0905 26.305C69.8589 28.0654 66.0968 29.2833 61.8042 29.9585C59.2238 29.5727 57.2342 28.8974 55.8355 27.9328C53.9544 27.3058 53.1586 26.2205 53.448 24.6771C53.7133 23.1337 54.5694 22.3379 56.0163 22.2896L57.9697 25.9432L62.1297 26.8837C66.4947 26.4255 69.7745 25.3403 71.9691 23.6281C74.1877 21.8917 75.4538 19.8539 75.7673 17.5147L74.8992 15.1995L73.7054 13.7164C79.9273 9.66492 83.3639 7.26538 84.015 6.51779C84.5938 3.8168 82.773 3.2983 78.5527 4.96231C74.9836 7.6633 73.2231 9.45994 73.2713 10.3522C73.3437 11.2204 73.0543 11.6786 72.4031 11.7268C71.752 11.751 71.2215 11.3289 70.8115 10.4608C70.9321 8.84498 72.3067 6.77101 74.9353 4.23883C77.4434 2.09251 80.1444 1.01934 83.0383 1.01934ZM141.061 11.8715C142.532 11.4133 143.328 11.5339 143.449 12.2333C143.569 12.9085 141.507 14.8981 137.263 18.202C133.019 21.4818 130.896 23.8934 130.896 25.4368C131.331 25.6297 134.2 24.7977 139.506 22.9408C144.836 21.0838 147.5 20.4086 147.5 20.915C147.549 22.1449 142.364 24.3998 131.946 27.6796C130.45 28.0895 129.353 28.1498 128.654 27.8604C127.978 27.571 127.834 26.7632 128.22 25.4368C128.557 24.4239 128.497 23.9536 128.039 24.026C122.781 27.1611 119.26 28.3789 117.476 27.6796C116.777 27.6796 116.427 26.4255 116.427 23.9175L105.683 29.9585C104.598 30.0791 104.067 29.5727 104.092 28.4392C105.611 24.0501 106.684 21.7953 107.311 21.6747C108.252 21.2888 108.625 21.5782 108.432 22.5429C108.264 23.4834 107.926 24.4842 107.42 25.5453C106.937 26.6064 107.263 26.8234 108.396 26.1964C116.282 22.0244 122.528 17.5026 127.134 12.6312C130.486 10.509 131.741 11.0034 130.896 14.1143C130.462 15.4889 126.531 18.2623 119.104 22.4343C118.38 23.9295 118.055 24.9786 118.127 25.5815C118.224 26.1844 119.08 26.1361 120.695 25.4368C127.255 22.0364 134.044 17.5147 141.061 11.8715ZM166.817 11.6545C169.108 11.4374 170.676 12.7277 171.52 15.5251C170.893 17.3097 169.796 18.8531 168.228 20.1554H168.843C171.592 18.0573 173.196 17.7558 173.654 19.251C168.276 22.2655 165.431 24.5807 165.117 26.1964C164.804 27.7881 165.66 28.2583 167.685 27.6072L176.837 23.9175C177.73 24.1827 177.935 24.6892 177.452 25.4368C171.954 28.4513 167.854 29.9585 165.153 29.9585C162.645 29.6691 162.235 27.9087 163.923 24.6771C156.086 28.1981 150.961 29.9585 148.549 29.9585C146.885 29.3556 146.27 27.8484 146.704 25.4368C152.251 16.3933 158.955 11.7992 166.817 11.6545ZM153.939 20.3724C150.081 24.0139 148.477 26.2808 149.128 27.1731C149.779 28.0654 152.444 27.4987 157.123 25.473C161.825 23.4231 165.105 20.7703 166.962 17.5147C168.698 15.3684 168.119 14.2349 165.226 14.1143C161.56 14.6208 157.798 16.7068 153.939 20.3724ZM199.012 11.8715C201.713 11.8715 203.474 12.8362 204.293 14.7655C204.703 17.8041 203.136 20.0107 199.591 21.3853C196.07 22.7599 193.007 23.8331 190.403 24.6048C187.798 25.0871 186.846 25.8347 187.545 26.8476C188.244 27.8363 189.498 28.2222 191.307 28.0051L200.893 26.0517C207.404 23.7607 210.72 22.8805 210.841 23.411C210.986 23.9175 209.044 24.8942 205.017 26.3411C201.014 27.7881 196.251 28.9939 190.728 29.9585C186.797 30.2961 184.784 29.0903 184.687 26.3411C179.985 28.2945 177.223 29.018 176.403 28.5116C175.077 28.1981 174.763 27.2575 175.463 25.69C176.138 24.1225 177.911 22.5911 180.78 21.0959C181.576 20.6136 182.155 20.915 182.517 22.0002C182.131 22.5067 181.359 23.0614 180.202 23.6643C179.044 24.2672 178.296 24.9183 177.959 25.6176C177.621 26.317 177.766 26.6064 178.393 26.4858C181.576 25.8829 184.265 23.9054 186.46 20.5533C188.678 17.2012 190.728 14.874 192.609 13.5717C194.514 12.2453 196.649 11.6786 199.012 11.8715ZM187.436 23.0493C188.208 23.3869 190.825 22.6514 195.286 20.8427C199.772 19.0099 202.014 17.4664 202.014 16.2124C201.846 14.7896 200.592 14.0661 198.252 14.042C194.756 14.042 191.15 17.0444 187.436 23.0493Z" fill="#841600"></path></svg> 