<?xml version="1.0" encoding="UTF-8"?> <svg xmlns="http://www.w3.org/2000/svg" width="94" height="25" viewBox="0 0 94 25" fill="none"><path d="M22.3281 2.50781C22.3281 2.91406 22.2292 3.34635 22.0312 3.80469C21.375 5.34635 19.8594 6.78385 17.4844 8.11719C15.6198 9.15885 13.625 9.95573 11.5 10.5078C10.1875 10.8411 8.89583 11.0078 7.625 11.0078C6.39583 12.4974 5.34896 14.0286 4.48438 15.6016C3.34896 17.6641 2.78125 19.388 2.78125 20.7734C2.78125 22.5859 3.79688 23.4922 5.82812 23.4922C7.39062 23.4922 8.90625 22.9609 10.375 21.8984C11.6042 21.013 12.6667 19.9766 13.5625 18.7891C14.6562 17.3307 15.2031 15.987 15.2031 14.7578C15.2031 14.2266 15.1198 13.8411 14.9531 13.6016C14.5885 13.1016 14.1146 12.8516 13.5312 12.8516C12.5938 12.8516 11.401 13.4766 9.95312 14.7266C8.64062 15.8411 7.72917 16.8828 7.21875 17.8516C6.86458 18.5182 6.6875 19.1432 6.6875 19.7266C6.6875 19.862 6.71875 20.0547 6.78125 20.3047C6.84375 20.5547 6.875 20.7422 6.875 20.8672C6.875 20.9193 6.82292 20.9453 6.71875 20.9453C6.57292 20.9453 6.44271 20.7266 6.32812 20.2891C6.24479 19.9453 6.20312 19.6589 6.20312 19.4297C6.20312 19.2422 6.23958 18.987 6.3125 18.6641C6.47917 17.9245 6.69271 17.3099 6.95312 16.8203C7.47396 15.862 8.22917 14.987 9.21875 14.1953C10.2188 13.4036 11.2448 12.862 12.2969 12.5703C12.6094 12.487 12.8906 12.4453 13.1406 12.4453C14.7448 12.4453 15.5469 13.263 15.5469 14.8984C15.5469 16.388 14.7812 18.0026 13.25 19.7422C11.875 21.3047 10.4167 22.4453 8.875 23.1641C7.79167 23.6745 6.70312 23.9297 5.60938 23.9297C4.34896 23.9297 3.34896 23.5234 2.60938 22.7109C1.86979 21.9297 1.5 20.9089 1.5 19.6484C1.5 16.8047 2.80208 13.8464 5.40625 10.7734C2.26042 10.1484 0.6875 8.85156 0.6875 6.88281C0.6875 6.48698 0.776042 6.08594 0.953125 5.67969C1.54688 4.35677 2.66667 3.36198 4.3125 2.69531C5.65625 2.15365 7.17708 1.88281 8.875 1.88281C10.4583 1.88281 11.8802 2.13281 13.1406 2.63281C13.2969 2.67448 13.4844 2.79427 13.7031 2.99219L13.6719 3.03906C13.6615 3.08073 13.6406 3.10156 13.6094 3.10156C13.7344 3.10156 13.3438 3.0026 12.4375 2.80469C11.8542 2.67969 11.1406 2.61719 10.2969 2.61719C8.80729 2.61719 7.35417 2.77344 5.9375 3.08594C4.11458 3.48177 2.82812 4.0651 2.07812 4.83594C1.76562 5.16927 1.50521 5.54427 1.29688 5.96094C1.13021 6.29427 1.04688 6.60677 1.04688 6.89844C1.04688 8.66927 2.57812 9.86198 5.64062 10.4766C6.53646 9.46615 7.90625 8.15365 9.75 6.53906C11.875 4.67448 14.4896 2.97135 17.5938 1.42969C18.5208 0.971354 19.4271 0.742188 20.3125 0.742188C21.6562 0.742188 22.3281 1.33073 22.3281 2.50781ZM21.75 2.16406C21.75 1.54948 21.4219 1.24219 20.7656 1.24219C20.0365 1.24219 19.3125 1.39323 18.5938 1.69531C17.9792 1.96615 16.901 2.66406 15.3594 3.78906C12.3594 5.98698 9.88021 8.28385 7.92188 10.6797C11.6302 10.5964 15.1719 9.23698 18.5469 6.60156C20.6823 4.9349 21.75 3.45573 21.75 2.16406ZM36.3906 16.8984C36.3906 17.0859 36.2865 17.2943 36.0781 17.5234L31.5781 22.4609C31.3906 22.6589 31.2969 22.8411 31.2969 23.0078C31.2969 23.1432 31.375 23.2109 31.5312 23.2109C31.875 23.2109 32.401 22.9089 33.1094 22.3047L35.4688 20.2578C35.4792 20.237 35.5104 20.2109 35.5625 20.1797C35.6667 20.2109 35.7188 20.2734 35.7188 20.3672C35.7188 20.4089 35.6979 20.4505 35.6562 20.4922L32.75 23.0078C32.1667 23.5182 31.625 23.7734 31.125 23.7734C30.3646 23.7734 29.9844 23.3464 29.9844 22.4922C29.9844 22.1276 30.1198 21.7891 30.3906 21.4766L33.75 17.5859C33.4792 17.7422 33.0729 17.987 32.5312 18.3203C31.5208 18.9557 30.5312 19.7943 29.5625 20.8359C28.8646 21.5755 28.1667 22.3568 27.4688 23.1797C27.0833 23.6172 26.6562 23.8359 26.1875 23.8359C25.7604 23.8359 25.5469 23.5911 25.5469 23.1016C25.5469 21.9766 25.9479 21.4141 26.75 21.4141C27.2812 21.4141 27.5469 21.6797 27.5469 22.2109C27.5469 22.3255 27.5208 22.4661 27.4688 22.6328C27.6354 22.4453 27.8802 22.1641 28.2031 21.7891C28.6094 21.3411 28.9792 20.9401 29.3125 20.5859C30.3854 19.4401 31.6198 18.4609 33.0156 17.6484C33.4948 17.388 34 17.112 34.5312 16.8203L34.5781 16.8047H34.8594C35.0156 16.8047 35.2448 16.7995 35.5469 16.7891C35.849 16.7682 36.0729 16.7578 36.2188 16.7578C36.3333 16.7578 36.3906 16.8047 36.3906 16.8984ZM48.1719 20.3359C48.1719 20.4505 47.9479 20.6745 47.5 21.0078C47.0521 21.3307 46.6927 21.4922 46.4219 21.4922C46.3698 21.4922 46.3229 21.487 46.2812 21.4766L46.1094 21.6484C44.5156 23.2318 43.1146 24.0234 41.9062 24.0234C40.9375 24.0234 40.4531 23.4714 40.4531 22.3672C40.4531 21.4297 40.7656 20.6797 41.3906 20.1172C41.2552 20.1276 41.0781 20.1328 40.8594 20.1328C40.776 20.1328 40.6562 20.1328 40.5 20.1328C40.3333 20.1224 40.2083 20.1172 40.125 20.1172L37.2031 23.5078C37.0677 23.6641 36.9062 23.7474 36.7188 23.7578L35.2344 23.8047C35.1094 23.8047 35.0469 23.7474 35.0469 23.6328C35.0469 23.4661 35.151 23.263 35.3594 23.0234L39.8438 18.1016C40.0208 17.9141 40.1094 17.737 40.1094 17.5703C40.1094 17.4245 40.0208 17.3516 39.8438 17.3516C39.6146 17.3516 39.1146 17.6641 38.3438 18.2891L35.5938 20.4922C35.5833 20.4922 35.5521 20.5078 35.5 20.5391C35.3854 20.5182 35.3281 20.4609 35.3281 20.3672C35.3281 20.3151 35.3542 20.2682 35.4062 20.2266L38.6875 17.5391C39.2917 17.0391 39.8542 16.7891 40.375 16.7891C40.6875 16.7891 40.9427 16.9297 41.1406 17.2109C41.349 17.4818 41.4531 17.7786 41.4531 18.1016C41.4531 18.4141 41.1094 18.9766 40.4219 19.7891C40.474 19.7891 40.5573 19.7943 40.6719 19.8047C40.7865 19.8047 40.8698 19.8047 40.9219 19.8047C41.3385 19.8047 41.6458 19.7318 41.8438 19.5859C41.9375 19.4922 42.0781 19.3516 42.2656 19.1641C42.9531 18.5078 43.724 17.9245 44.5781 17.4141C45.6302 16.7891 46.5104 16.4766 47.2188 16.4766C47.8542 16.4766 48.1719 16.7214 48.1719 17.2109C48.1719 17.1797 48.125 17.4766 48.0312 18.1016C48.0729 18.1953 48.0938 18.3047 48.0938 18.4297C48.0938 19.1276 47.625 19.9193 46.6875 20.8047C46.625 20.8568 46.5833 20.9036 46.5625 20.9453L46.6094 21.0078C46.8281 21.0078 47.0885 20.8776 47.3906 20.6172C47.7031 20.3568 47.9062 20.2266 48 20.2266C48.1146 20.2266 48.1719 20.263 48.1719 20.3359ZM47.5312 17.5391C47.5312 17.4661 47.5104 17.3724 47.4688 17.2578C47.4375 17.1432 47.4167 17.0599 47.4062 17.0078C47.3646 16.9453 47.2656 16.9141 47.1094 16.9141H47.0156C46.8281 16.9141 46.599 17.0339 46.3281 17.2734C43.0156 20.2318 41.3594 22.1641 41.3594 23.0703C41.3594 23.4036 41.5833 23.5703 42.0312 23.5703C43.0521 23.5703 44.2188 22.862 45.5312 21.4453C45.2708 21.3724 45.1406 21.1797 45.1406 20.8672C45.1406 20.3464 45.3906 19.7266 45.8906 19.0078C46.4219 18.237 46.9375 17.8516 47.4375 17.8516C47.5 17.7578 47.5312 17.6536 47.5312 17.5391ZM64.9844 10.0859C64.9844 10.1484 64.875 10.3255 64.6562 10.6172C64.3333 11.0859 64.099 11.3932 63.9531 11.5391C63.6302 11.8828 63.3073 12.0807 62.9844 12.1328C62.8698 12.1536 62.6667 12.1641 62.375 12.1641C62.2812 12.1641 62.1458 12.1536 61.9688 12.1328C61.8021 12.112 61.6771 12.1016 61.5938 12.1016C60.7292 12.1016 60.1302 12.2005 59.7969 12.3984C59.3385 12.6693 58.7344 13.6641 57.9844 15.3828C57.2552 17.0599 56.6771 18.0026 56.25 18.2109L56.1719 18.3047C55.6198 19.7839 54.8802 20.987 53.9531 21.9141C53.9115 21.9661 53.8438 22.0286 53.75 22.1016C54.1771 21.8828 54.6146 21.6068 55.0625 21.2734C55.4479 20.9401 55.9219 20.5755 56.4844 20.1797C56.5885 20.1901 56.6406 20.2526 56.6406 20.3672C56.6406 20.4089 56.6198 20.4505 56.5781 20.4922C55.901 21.0651 55.0625 21.6641 54.0625 22.2891C52.9062 23.0286 52 23.4818 51.3438 23.6484C50.6354 23.8464 50.0521 23.9453 49.5938 23.9453C48.5104 23.9453 47.9688 23.4766 47.9688 22.5391C47.9688 22.2474 48.0573 21.8828 48.2344 21.4453C48.5469 20.6745 49.2656 19.7786 50.3906 18.7578H50.3594C50.3177 18.7578 49.9427 19.0443 49.2344 19.6172C48.526 20.1901 48.1302 20.4766 48.0469 20.4766C48.0052 20.4766 47.9531 20.4141 47.8906 20.2891C47.901 20.2578 47.9271 20.2214 47.9688 20.1797C48.3125 19.9609 48.8281 19.5964 49.5156 19.0859C50.6823 18.1276 51.776 17.4557 52.7969 17.0703C53.8281 16.6745 54.5052 16.4766 54.8281 16.4766C55.8177 16.4766 56.2917 16.9141 56.25 17.7891C56.4167 17.6953 56.5469 17.5703 56.6406 17.4141C56.8073 17.1432 57.1354 16.4609 57.625 15.3672C58.1771 14.138 58.75 13.0599 59.3438 12.1328C59.4896 11.8932 59.7292 11.5964 60.0625 11.2422C60.5417 10.9401 61.0677 10.7891 61.6406 10.7891C61.8073 10.7891 62.0521 10.8307 62.375 10.9141C62.7083 10.987 62.9583 11.0234 63.125 11.0234C63.5938 11.0234 63.9896 10.8359 64.3125 10.4609C64.6354 10.0859 64.8021 9.89844 64.8125 9.89844C64.9271 9.89844 64.9844 9.96094 64.9844 10.0859ZM55.7969 17.8672C55.7969 17.1901 55.5625 16.8516 55.0938 16.8516C54.4896 16.8516 53.2188 17.9661 51.2812 20.1953C50.8229 20.6641 50.1875 21.3932 49.375 22.3828C49.2188 22.6224 49.1406 22.8568 49.1406 23.0859C49.1406 23.4818 49.3854 23.6797 49.875 23.6797C50.3333 23.6797 50.9948 23.3984 51.8594 22.8359C52.7656 22.2422 53.5938 21.5234 54.3438 20.6797C55.3125 19.6068 55.7969 18.6693 55.7969 17.8672ZM64.3906 20.3047C64.3906 20.4714 64.0156 20.7995 63.2656 21.2891C63.026 21.4453 62.7292 21.5234 62.375 21.5234C60.6771 23.1693 59.25 23.9922 58.0938 23.9922C57.0521 23.9922 56.5312 23.513 56.5312 22.5547C56.5312 21.2734 57.4635 19.8828 59.3281 18.3828C58.8281 18.6536 58.4635 18.8672 58.2344 19.0234C57.7865 19.4714 57.2448 19.9609 56.6094 20.4922C56.526 20.4505 56.4844 20.3932 56.4844 20.3203C56.4844 20.1745 56.8073 19.8255 57.4531 19.2734C58.276 18.5547 59.5365 17.8411 61.2344 17.1328C62.2552 16.7161 62.9271 16.5078 63.25 16.5078C63.9479 16.5078 64.2969 16.7474 64.2969 17.2266C64.2969 17.112 64.2344 17.4089 64.1094 18.1172C64.1406 18.2005 64.1562 18.2943 64.1562 18.3984C64.1562 19.1276 63.6927 19.9453 62.7656 20.8516C62.7135 20.9036 62.6771 20.9505 62.6562 20.9922L62.7031 21.0391C62.9531 21.0391 63.2396 20.8932 63.5625 20.6016C63.8958 20.3099 64.1094 20.1641 64.2031 20.1641C64.3281 20.1641 64.3906 20.2109 64.3906 20.3047ZM63.7812 17.3984C63.7812 17.0755 63.6302 16.9141 63.3281 16.9141C62.9219 16.9141 61.8646 17.8047 60.1562 19.5859C58.4583 21.3568 57.6094 22.4974 57.6094 23.0078C57.6094 23.4141 57.8021 23.6172 58.1875 23.6172C58.5625 23.6172 58.9583 23.513 59.375 23.3047C59.7604 23.1068 60.2188 22.8203 60.75 22.4453C61.4479 21.9661 61.8021 21.6276 61.8125 21.4297C61.5625 21.4297 61.4375 21.2422 61.4375 20.8672C61.4375 20.3359 61.6823 19.7266 62.1719 19.0391C62.6823 18.3099 63.1927 17.9193 63.7031 17.8672C63.7552 17.7526 63.7812 17.5964 63.7812 17.3984ZM81.125 6.66406C81.125 6.77865 81.1094 6.88802 81.0781 6.99219C80.7031 8.24219 79.8125 9.46094 78.4062 10.6484C77.8021 11.1693 76.5365 12.0651 74.6094 13.3359C74.2344 13.5443 73.7188 13.8932 73.0625 14.3828C72.8438 14.6536 72.526 15.0547 72.1094 15.5859C71.1094 16.8047 69.6198 18.6432 67.6406 21.1016C67.3906 21.4036 67.0365 21.862 66.5781 22.4766C66.474 22.6328 66.4219 22.7995 66.4219 22.9766C66.4219 23.2995 66.599 23.4609 66.9531 23.4609C67.5469 23.4609 68.5573 22.763 69.9844 21.3672C69.849 21.2318 69.7812 21.0651 69.7812 20.8672C69.7812 20.3464 70.1719 19.5703 70.9531 18.5391C71.7448 17.4974 72.3854 16.9766 72.875 16.9766C73.2604 16.9766 73.4531 17.138 73.4531 17.4609C73.4531 17.8151 73.2135 18.3672 72.7344 19.1172C72.349 19.7214 71.9688 20.2266 71.5938 20.6328C71.6667 20.6641 71.7448 20.6797 71.8281 20.6797C71.9427 20.6797 72.1042 20.6016 72.3125 20.4453C72.5208 20.2891 72.6562 20.2109 72.7188 20.2109C72.7708 20.2109 72.8177 20.2266 72.8594 20.2578L72.9062 20.3672C72.9062 20.4089 72.8854 20.4505 72.8438 20.4922C72.3854 20.888 72.1146 21.1172 72.0312 21.1797C71.7708 21.3568 71.4323 21.4818 71.0156 21.5547C70.724 21.6172 70.5052 21.6276 70.3594 21.5859C69.2135 22.9193 68.224 23.6901 67.3906 23.8984C67.2552 23.9297 67.0677 23.9453 66.8281 23.9453C66.3802 23.9453 65.9948 23.8151 65.6719 23.5547C65.349 23.2943 65.1875 22.9505 65.1875 22.5234C65.1875 21.9401 65.6562 21.0651 66.5938 19.8984C67.2812 19.0859 67.9688 18.2734 68.6562 17.4609V17.4453L65.625 19.7109C65.1354 20.0755 64.6875 20.3516 64.2812 20.5391C64.1771 20.4766 64.125 20.4036 64.125 20.3203C64.125 20.2578 64.9375 19.6589 66.5625 18.5234C67.4792 17.8672 68.401 17.2161 69.3281 16.5703C70.0885 15.6432 70.9948 14.5495 72.0469 13.2891C72.9948 12.1745 73.9167 11.0807 74.8125 10.0078C75.7083 8.92448 76.4167 8.1276 76.9375 7.61719C77.875 6.67969 78.724 6.0651 79.4844 5.77344C79.9115 5.60677 80.224 5.52344 80.4219 5.52344C80.8906 5.52344 81.125 5.90365 81.125 6.66406ZM80.75 6.35156C80.75 6.13281 80.6406 6.02344 80.4219 6.02344C79.3594 6.02344 77.6406 7.78906 75.2656 11.3203C74.7969 11.9974 74.1875 12.8047 73.4375 13.7422C75.1771 12.5651 76.3438 11.7422 76.9375 11.2734C78.1979 10.2734 79.1875 9.2474 79.9062 8.19531C80.4688 7.38281 80.75 6.76823 80.75 6.35156ZM79.8125 20.3516C79.8125 20.3932 79.7969 20.4401 79.7656 20.4922C79.349 21.1797 78.6562 21.5234 77.6875 21.5234C76.3958 23.0964 75.1615 23.8828 73.9844 23.8828C73.1719 23.8828 72.7656 23.4401 72.7656 22.5547C72.7656 22.1797 72.8958 21.8464 73.1562 21.5547L75.9062 18.3672C73.9375 19.8464 72.9219 20.5859 72.8594 20.5859C72.7448 20.5859 72.6875 20.5286 72.6875 20.4141C72.6875 20.362 72.7188 20.3151 72.7812 20.2734L77.1406 16.9922C77.2865 16.8776 77.8906 16.8203 78.9531 16.8203C79.0885 16.8203 79.1562 16.8776 79.1562 16.9922C79.1562 17.1901 79.0521 17.3984 78.8438 17.6172L74.25 22.4922C74.0312 22.7318 73.9219 22.9193 73.9219 23.0547C73.9219 23.2839 74.1094 23.3984 74.4844 23.3984C75.1406 23.3984 76.026 22.7422 77.1406 21.4297C76.9427 21.2734 76.8438 21.0755 76.8438 20.8359C76.8438 19.9818 77.1979 19.5547 77.9062 19.5547C78.3125 19.5547 78.5156 19.7891 78.5156 20.2578C78.5156 20.3411 78.401 20.612 78.1719 21.0703C78.6719 20.987 79.0729 20.7839 79.375 20.4609C79.4479 20.3672 79.526 20.2682 79.6094 20.1641C79.7448 20.1745 79.8125 20.237 79.8125 20.3516ZM92.2969 20.3359C92.2969 20.4505 92.0729 20.6745 91.625 21.0078C91.1771 21.3307 90.8177 21.4922 90.5469 21.4922C90.4948 21.4922 90.4479 21.487 90.4062 21.4766L90.2344 21.6484C88.6406 23.2318 87.2396 24.0234 86.0312 24.0234C85.0625 24.0234 84.5781 23.4714 84.5781 22.3672C84.5781 21.4297 84.8906 20.6797 85.5156 20.1172C85.3802 20.1276 85.2031 20.1328 84.9844 20.1328C84.901 20.1328 84.7812 20.1328 84.625 20.1328C84.4583 20.1224 84.3333 20.1172 84.25 20.1172L81.3281 23.5078C81.1927 23.6641 81.0312 23.7474 80.8438 23.7578L79.3594 23.8047C79.2344 23.8047 79.1719 23.7474 79.1719 23.6328C79.1719 23.4661 79.276 23.263 79.4844 23.0234L83.9688 18.1016C84.1458 17.9141 84.2344 17.737 84.2344 17.5703C84.2344 17.4245 84.1458 17.3516 83.9688 17.3516C83.7396 17.3516 83.2396 17.6641 82.4688 18.2891L79.7188 20.4922C79.7083 20.4922 79.6771 20.5078 79.625 20.5391C79.5104 20.5182 79.4531 20.4609 79.4531 20.3672C79.4531 20.3151 79.4792 20.2682 79.5312 20.2266L82.8125 17.5391C83.4167 17.0391 83.9792 16.7891 84.5 16.7891C84.8125 16.7891 85.0677 16.9297 85.2656 17.2109C85.474 17.4818 85.5781 17.7786 85.5781 18.1016C85.5781 18.4141 85.2344 18.9766 84.5469 19.7891C84.599 19.7891 84.6823 19.7943 84.7969 19.8047C84.9115 19.8047 84.9948 19.8047 85.0469 19.8047C85.4635 19.8047 85.7708 19.7318 85.9688 19.5859C86.0625 19.4922 86.2031 19.3516 86.3906 19.1641C87.0781 18.5078 87.849 17.9245 88.7031 17.4141C89.7552 16.7891 90.6354 16.4766 91.3438 16.4766C91.9792 16.4766 92.2969 16.7214 92.2969 17.2109C92.2969 17.1797 92.25 17.4766 92.1562 18.1016C92.1979 18.1953 92.2188 18.3047 92.2188 18.4297C92.2188 19.1276 91.75 19.9193 90.8125 20.8047C90.75 20.8568 90.7083 20.9036 90.6875 20.9453L90.7344 21.0078C90.9531 21.0078 91.2135 20.8776 91.5156 20.6172C91.8281 20.3568 92.0312 20.2266 92.125 20.2266C92.2396 20.2266 92.2969 20.263 92.2969 20.3359ZM91.6562 17.5391C91.6562 17.4661 91.6354 17.3724 91.5938 17.2578C91.5625 17.1432 91.5417 17.0599 91.5312 17.0078C91.4896 16.9453 91.3906 16.9141 91.2344 16.9141H91.1406C90.9531 16.9141 90.724 17.0339 90.4531 17.2734C87.1406 20.2318 85.4844 22.1641 85.4844 23.0703C85.4844 23.4036 85.7083 23.5703 86.1562 23.5703C87.1771 23.5703 88.3438 22.862 89.6562 21.4453C89.3958 21.3724 89.2656 21.1797 89.2656 20.8672C89.2656 20.3464 89.5156 19.7266 90.0156 19.0078C90.5469 18.237 91.0625 17.8516 91.5625 17.8516C91.625 17.7578 91.6562 17.6536 91.6562 17.5391ZM93.3281 22.9297C93.3281 23.1901 93.1042 23.5495 92.6562 24.0078C92.2083 24.4766 91.849 24.7474 91.5781 24.8203C91.5573 24.8099 91.5469 24.7891 91.5469 24.7578C91.5469 24.7161 91.6354 24.5547 91.8125 24.2734C91.9792 23.9922 92.0625 23.8099 92.0625 23.7266C92.0625 23.7161 92.0573 23.7057 92.0469 23.6953C91.6719 23.6536 91.4844 23.4453 91.4844 23.0703C91.4844 22.3932 91.8021 22.0547 92.4375 22.0547C93.0312 22.0547 93.3281 22.3464 93.3281 22.9297Z" fill="#28682E"></path></svg> 