<?xml version="1.0" encoding="UTF-8"?> <svg xmlns="http://www.w3.org/2000/svg" width="47" height="46" viewBox="0 0 47 46" fill="none"><g clip-path="url(#clip0_5663_108)"><rect x="6.20312" y="10.0352" width="33.7969" height="26.707" fill="#354A76"></rect><path d="M23.5 46C36.4818 46 47 35.7056 47 23C47 10.2944 36.4818 -6.32583e-07 23.5 -4.07483e-07C10.5182 -1.82383e-07 1.78502e-07 10.2944 3.98813e-07 23C6.19124e-07 35.7056 10.5182 46 23.5 46ZM10.7532 22.5017L33.4111 13.9514C34.4628 13.5796 35.3812 14.2025 35.0405 15.7588L35.0424 15.7569L31.1845 33.5455C30.8986 34.8067 30.1329 35.1133 29.0617 34.5192L23.1867 30.2814L20.353 32.9533C20.0396 33.2599 19.7753 33.5187 19.1682 33.5187L19.5853 27.6671L30.4736 18.0397C30.9475 17.6314 30.3679 17.4014 29.7432 17.8078L16.2875 26.0992L10.4869 24.3282C9.22767 23.9372 9.20025 23.0958 10.7532 22.5017Z" fill="url(#paint0_linear_5663_108)"></path></g><defs><linearGradient id="paint0_linear_5663_108" x1="23.5" y1="-4.07483e-07" x2="23.5" y2="46" gradientUnits="userSpaceOnUse"><stop stop-color="#E0C58E"></stop><stop offset="1" stop-color="#CCAF75"></stop></linearGradient><clipPath id="clip0_5663_108"><rect width="47" height="46" fill="white"></rect></clipPath></defs></svg> 