<?xml version="1.0" encoding="UTF-8"?> <svg xmlns="http://www.w3.org/2000/svg" width="386" height="799" viewBox="0 0 386 799" fill="none"><path d="M178.298 0.90389C164.036 2.69099 144.809 9.10352 132.766 16.2519C116.496 25.713 101.284 40.2201 90.7193 56.3039C84.1694 66.2907 83.6411 66.9214 78.3589 68.6034C70.33 71.2315 63.3575 77.1184 59.0261 85.1078C55.7511 91.2049 55.3285 92.8869 54.8003 102.874L54.2721 113.806L47.7222 117.591C29.657 127.683 19.6209 140.613 12.8596 162.479C10.0073 171.519 10.0073 172.255 10.0073 198.01C10.1129 220.402 10.5355 227.235 12.9653 244.265C21.6281 305.972 21.4168 303.659 21.4168 331.517C21.4168 355.485 21.2055 358.534 19.0926 366.103C16.5572 375.249 11.5919 384.92 5.14764 393.435C2.82347 396.483 0.921875 399.322 0.921875 399.742C0.921875 400.163 3.66862 404.368 7.15487 409.098C14.4443 419.19 18.0362 427.81 20.466 440.846C22.0507 448.73 22.1563 454.196 21.7337 473.434C21.3112 486.154 20.5717 500.135 19.9378 504.445C10.7468 567.73 8.84518 586.336 9.69033 609.569C10.3242 629.227 12.2258 638.373 18.3531 651.092C25.4313 665.705 34.1997 674.85 47.6165 681.894L54.2721 685.468L54.906 696.611C55.5398 709.331 57.9696 715.743 64.9421 722.682C68.9566 726.571 78.1477 731.512 81.5283 731.512C82.5847 731.512 84.275 732.984 85.2258 734.771C93.8886 750.644 106.038 764.731 119.666 774.823C130.547 782.917 148.718 791.643 162.029 795.322C171.854 797.95 174.072 798.16 193.194 798.16C212.21 798.16 214.534 797.95 224.042 795.427C256.475 786.597 284.999 764.205 301.162 734.771C302.324 732.773 303.803 731.512 305.177 731.512C308.769 731.512 317.009 726.676 321.657 721.841C328.947 714.377 330.848 709.541 331.376 696.821L331.905 685.783L340.779 680.527C366.133 665.81 377.226 641.736 377.226 602.315C377.12 585.706 376.381 577.821 370.676 534.405C365.499 495.299 364.337 482.79 364.337 465.97C364.337 436.746 369.303 419.716 382.402 404.788C384.093 402.896 385.466 400.688 385.466 399.953C385.466 399.217 383.248 395.853 380.606 392.384C374.057 383.974 370.359 376.405 367.401 365.157C365.077 356.537 364.866 353.593 364.866 331.517C364.866 317.641 365.499 303.134 366.239 297.352C376.803 220.402 377.015 218.72 377.015 196.223C377.015 171.099 373 154.384 363.598 140.192C358.104 131.888 348.596 123.057 339.934 117.906L331.799 113.281L331.376 102.979C331.059 93.9381 330.531 91.8357 327.468 85.6334C324.721 79.9567 322.714 77.644 317.854 74.0698C314.473 71.5469 309.614 69.0239 307.078 68.3931C303.169 67.447 302.007 66.5009 299.894 62.7165C295.563 54.9373 283.308 39.1688 276.97 33.387C259.75 17.7236 239.149 7.10617 217.281 2.58587C207.35 0.58852 187.7 -0.357592 178.298 0.90389ZM214.112 4.68833C248.446 10.8906 276.758 30.6538 295.774 61.5601C300.106 68.6034 300.845 69.3393 305.705 70.811C313.1 72.9135 320.706 79.1157 324.615 86.0539C327.679 91.4152 327.89 92.7818 328.313 103.715L328.63 115.488L333.278 117.591C340.884 120.85 350.392 128.103 356.097 134.831C371.732 153.543 376.909 178.352 373.423 217.984C372.472 228.917 370.57 246.472 369.091 256.879C362.858 301.767 361.907 311.228 361.802 333.094C361.696 352.542 361.907 355.59 364.126 364.105C367.19 375.774 372.366 386.707 377.965 393.435C380.395 396.168 382.297 399.006 382.297 399.532C382.297 400.163 380.078 403.527 377.437 407.101C362.753 426.233 358.633 450.412 362.753 491.83C363.598 500.24 366.133 521.265 368.563 538.61C375.852 592.959 376.381 615.245 370.782 636.48C365.711 655.823 352.505 672.117 334.651 681.158L328.63 684.101L328.313 696.506C327.89 708.595 327.784 709.121 324.298 714.482C319.861 721.42 313.945 726.045 306.656 728.253C301.268 729.935 300.634 730.461 296.197 737.819C282.358 760.105 266.088 774.613 242.53 785.65C230.909 791.117 220.344 794.06 205.66 795.742C178.298 798.896 151.676 792.273 126.427 776.189C115.334 769.041 98.9595 752.116 91.3532 739.712C86.071 731.091 84.6976 729.515 81.8452 728.989C73.605 727.412 64.8365 720.579 60.9277 712.695C59.0261 708.805 58.4979 705.336 57.9696 695.875L57.4414 683.786L50.5746 680.317C25.8539 667.912 13.5992 645.311 11.8032 609.043C11.1693 594.326 12.8596 574.563 18.3531 535.982C26.9103 475.747 27.2272 447.679 19.4096 424.867C17.4023 418.98 14.8669 414.67 8.63389 406.365C6.09843 403.106 4.0912 400.058 4.0912 399.637C4.0912 399.217 6.20408 396.273 8.73953 393.119C14.7612 385.445 18.3531 378.087 20.8886 368.626C27.3329 344.342 26.699 323.843 17.2967 254.987C10.4298 204.633 10.1129 183.293 15.712 163.004C21.4168 142.505 34.411 126.421 51.631 118.222C54.2721 117.065 56.7019 115.488 57.1245 114.963C57.5471 114.332 57.9696 109.181 57.9696 103.294C57.9696 93.9381 58.2866 92.0459 60.7164 87.5256C62.1954 84.6873 64.9421 80.7977 66.7381 78.9055C70.4356 75.121 79.4154 70.2854 82.9016 70.2854C84.5919 70.2854 86.2822 68.3931 89.7685 62.6114C96.1071 51.9939 101.812 44.7404 111.426 35.4895C138.787 9.31377 176.714 -2.03957 214.112 4.68833Z" fill="#E0C58E"></path><path d="M176.726 12.9995C142.286 18.2557 111.227 40.1214 94.9579 70.6072C92.5281 75.0223 90.0983 78.4914 89.5701 78.0709C87.6685 76.9146 77.5267 80.8041 74.0404 83.9578C67.7018 89.9499 66.4341 93.9446 66.4341 107.505C66.4341 120.436 66.0115 122.854 63.5817 122.854C61.5744 122.854 49.7423 128.74 45.7278 131.789C19.8451 151.447 14.8798 184.246 26.395 259.304C36.5368 324.901 36.2199 358.856 25.3385 381.983C23.7539 385.557 20.5846 390.813 18.366 393.862L14.3516 399.433L17.7322 404.059C22.9087 411.207 29.1417 425.294 31.0433 434.019C33.4731 444.847 34.3183 474.912 32.628 491.626C31.9941 498.985 30.1982 512.967 28.8248 522.848C27.3458 532.625 25.2329 547.237 24.1765 555.121C21.2184 575.2 19.8451 603.583 21.1128 617.039C22.9087 637.222 28.7191 651.099 39.9174 662.242C46.2561 668.549 55.4471 674.121 64.5325 677.169C66.2228 677.8 66.4341 679.377 66.4341 690.73C66.4341 705.342 67.8074 709.547 73.8291 715.434C77.421 718.903 80.5904 720.27 87.8798 721.531C91.1548 722.057 92.1056 722.793 93.3733 725.947C96.3313 732.885 107.001 747.707 114.502 755.276C131.616 772.411 152.851 783.134 177.043 786.708C189.404 788.6 196.587 788.705 207.574 787.128C244.55 782.083 274.236 760.848 292.724 726.367C295.47 721.426 295.999 721.006 299.379 721.006C303.922 721.006 309.944 718.062 313.852 713.963C318.818 708.811 319.98 704.396 319.98 690.52C319.98 679.377 320.191 677.8 321.881 677.274C322.832 676.959 327.163 674.962 331.495 672.964C346.496 665.816 358.223 650.888 362.766 633.228C368.259 611.783 367.414 589.707 358.962 531.468C348.609 459.879 351.039 428.552 368.787 403.954L371.957 399.538L368.259 394.492C356.427 377.883 351.99 357.279 353.152 324.69C353.786 305.873 354.103 303.14 360.653 255.519C365.407 220.513 366.886 202.958 366.04 189.397C364.033 154.916 352.941 135.994 328.114 124.851L319.98 121.277V108.346C319.98 93.3138 319.029 90.4755 312.056 84.063C307.831 80.1734 305.612 79.3324 297.9 78.4914C295.999 78.2812 294.519 76.4941 291.773 71.343C269.376 29.3988 222.998 5.85113 176.726 12.9995ZM209.582 18.2557C243.071 23.617 271.7 44.4314 286.491 74.0762L290.716 82.4861L297.372 83.6425C305.506 85.0091 310.049 88.0576 312.69 93.8394C314.275 97.3085 314.698 100.778 314.698 112.026V125.797L321.459 128.11C335.087 132.63 346.602 142.406 352.412 154.391C358.328 166.69 359.279 171.421 359.807 192.445C360.441 213.89 359.702 223.772 354.842 256.886C348.292 302.615 347.975 305.243 347.975 331.523C347.975 352.233 348.292 358.33 349.983 365.689C352.307 376.516 355.687 385.136 360.864 393.441L364.667 399.644L362.766 402.902C357.483 411.733 354.842 417.304 352.835 423.507C344.489 449.892 345.862 487.106 358.117 564.372C358.751 568.156 359.491 581.612 359.807 594.332C360.547 621.664 359.279 630.179 352.729 643.74C346.179 657.301 336.671 665.711 321.67 671.177L315.226 673.49L314.698 688.523C314.275 701.243 313.852 704.186 311.951 707.34C308.676 713.016 303.816 715.75 297.161 715.75H291.456L288.392 722.478C278.145 744.869 256.382 765.263 232.084 775.144C219.09 780.401 209.476 782.293 194.263 782.398C179.579 782.503 170.282 781.031 158.344 776.721C142.286 770.834 128.975 762.214 117.249 749.915C108.797 740.979 104.677 735.303 99.1837 724.475L94.9579 716.38L89.7814 716.17C83.1258 715.75 79.0057 713.647 75.2025 708.706C72.3501 705.027 72.2445 704.396 71.7163 689.259L71.188 673.49L65.6946 671.598C40.34 662.767 27.9796 644.371 26.395 613.254C25.2329 590.232 26.395 577.512 35.4804 513.913C37.9102 497.198 38.3328 490.786 38.3328 468.184C38.4384 446.318 38.1215 440.642 36.5368 434.124C34.0013 423.717 29.1417 411.417 25.2329 405.636C23.5426 403.007 22.0636 400.484 22.0636 400.064C22.0636 399.538 23.7539 396.28 25.8668 392.705C30.6207 384.506 35.2691 371.05 37.4876 358.33C38.861 350.235 39.0723 344.033 38.6497 325.216C38.3328 312.496 37.5932 299.251 36.9594 295.782C35.1634 285.69 29.6699 245.638 27.7684 229.028C26.6063 218.095 26.1837 208.003 26.5006 193.286C26.9232 174.259 27.1345 172.156 29.8812 164.377C31.4659 159.752 34.0013 153.865 35.4804 151.342C41.7134 140.724 52.4891 132.209 64.955 128.11L71.7163 125.797V111.71C71.7163 96.1522 72.984 91.6318 78.6888 87.2167C81.6468 84.9039 82.8089 84.4835 90.7322 83.4322C95.4862 82.6964 95.4862 82.6964 99.5006 74.4967C118.833 34.4447 164.789 11.0022 209.582 18.2557Z" fill="#3B507D"></path><path d="M353.244 152.101C351.488 136.652 329.394 126.938 318.566 124.013L315.723 98.4218L307.995 83.61L293.397 82.1073L289.104 71.8034L269.999 46.6877L245.957 30.1586L228.569 20.7134L207.532 14.0508L180.914 15.9749L155.798 21.9874L123.813 39.8061L110.074 53.7601L92.0243 79.5283L79.1628 83.6085L68.6443 96.2589V123.742L46.7486 134.475L30.4341 155.083L23.7795 180.413L25.0675 230.216L30.4341 270.143L35.8007 312.217V359.229L18.8423 400.015L29.3608 420.193L35.8007 448.958V497.043L29.3608 531.389L24.4235 583.767V622.407L33.0101 650.313L48.4659 665.34L69.503 674.785L70.791 693.89V705.045L74.4402 709.775L83.0268 717.932L93.76 720.508L109.86 744.55L130.682 763.656L157.301 779.97L186.495 783.619H210.537L243.595 771.169L268.711 752.708L286.314 728.451L291.251 718.147L310.136 714.285L317.44 701.097V676.931L325.576 673.111L348.472 657.521L360.373 630.349L361.661 582.909L356.314 548.915L353.244 502.386L349.729 455.417L356.314 423.812L367.727 400.987L353.244 364.992L349.729 317.585L356.314 269.738L363.339 196.433C361.29 199.213 358.422 202.754 363.339 194.677C368.255 186.6 358.657 162.928 353.244 152.101Z" fill="#3B507D"></path></svg> 