<?xml version="1.0" encoding="UTF-8"?> <svg xmlns="http://www.w3.org/2000/svg" width="12" height="11" viewBox="0 0 12 11" fill="none"><path d="M2.44348 0.28271C2.1259 0.360607 1.58063 0.636242 1.27503 0.881916C0.885547 1.1935 0.46011 1.84065 0.28634 2.38592C0.0226896 3.22481 0.11257 4.22549 0.526023 4.92656C0.717769 5.26212 1.05932 5.61565 3.82765 8.4439C5.34963 9.98386 5.84698 10.4632 5.96083 10.4632C6.06868 10.4632 6.70983 9.85204 8.68721 7.86866C11.2159 5.32803 11.2698 5.26811 11.5095 4.77077C11.7911 4.18954 11.9109 3.6143 11.845 3.09898C11.6413 1.4212 10.341 0.216797 8.73515 0.216797C7.8663 0.216797 7.12928 0.546361 6.41622 1.25342L6.00277 1.66088L5.49344 1.18152C4.97213 0.684179 4.48678 0.402552 3.97146 0.28271C3.6419 0.204813 2.77305 0.210806 2.44348 0.28271Z" fill="white"></path></svg> 