<?xml version="1.0" encoding="UTF-8"?> <svg xmlns="http://www.w3.org/2000/svg" width="145" height="55" viewBox="0 0 145 55" fill="none"><path d="M28.4713 19.1914V18.9754H28.8553C29.3033 18.9754 29.7433 18.4794 30.1753 17.4874L36.9193 1.93541H38.7673V2.22341C38.7673 2.79941 38.8393 3.26341 38.9833 3.61541L44.6473 17.4874C44.9033 18.1114 45.1113 18.5194 45.2713 18.7114C45.4313 18.8874 45.6953 18.9754 46.0633 18.9754H46.2553V19.1914H41.6713V18.9754H43.5193V18.9274C43.2953 18.8474 43.0473 18.4714 42.7753 17.7994L41.4313 14.5114H31.9273L30.6313 17.4874C30.5513 17.6794 30.5113 17.8634 30.5113 18.0394C30.5113 18.3114 30.6153 18.5354 30.8233 18.7114C31.0313 18.8874 31.3113 18.9754 31.6633 18.9754H32.8393V19.1914H28.4713ZM32.1193 14.0794H41.2633L37.1833 4.0714C37.0553 3.78341 36.9913 3.46341 36.9913 3.11141H36.7753C36.7753 3.30341 36.6793 3.6234 36.4873 4.0714L32.1193 14.0794ZM46.8988 19.1914V18.9754H47.7388C48.2988 18.9754 48.6508 18.8794 48.7948 18.6874C48.9388 18.4954 49.0108 18.0954 49.0108 17.4874V3.63941C49.0108 3.03141 48.9388 2.63141 48.7948 2.43941C48.6508 2.24741 48.2988 2.15141 47.7388 2.15141H46.8988V1.93541H52.8028V2.15141H52.1788C51.6188 2.15141 51.2588 2.24741 51.0988 2.43941C50.9548 2.63141 50.8828 3.03141 50.8828 3.63941V9.90341H57.4588V3.63941C57.4588 3.03141 57.3788 2.63141 57.2188 2.43941C57.0748 2.24741 56.7228 2.15141 56.1628 2.15141H55.5388V1.93541H61.4668V2.15141H60.6028C60.0428 2.15141 59.6908 2.24741 59.5468 2.43941C59.4028 2.63141 59.3308 3.03141 59.3308 3.63941V17.4874C59.3308 18.0954 59.4028 18.4954 59.5468 18.6874C59.6908 18.8794 60.0428 18.9754 60.6028 18.9754H61.4668V19.1914H55.5388V18.9754H56.1868C56.7468 18.9754 57.0988 18.8794 57.2428 18.6874C57.3868 18.4954 57.4588 18.0954 57.4588 17.4874V10.3354H50.8828V17.4874C50.8828 18.0954 50.9548 18.4954 51.0988 18.6874C51.2588 18.8794 51.6188 18.9754 52.1788 18.9754H52.8028V19.1914H46.8988ZM78.7612 8.27141C78.7612 8.36741 78.7612 8.46341 78.7612 8.55941C78.7612 10.9274 79.2012 12.7354 80.0812 13.9834C80.9612 15.2154 82.2492 15.8314 83.9452 15.8314C85.3532 15.8314 86.5852 15.5194 87.6412 14.8954C88.6972 14.2714 89.4972 13.4074 90.0412 12.3034L90.4012 12.5434C89.8252 13.7114 88.9772 14.6234 87.8572 15.2794C86.7372 15.9354 85.4332 16.2634 83.9452 16.2634C81.7852 16.2634 80.0412 15.5914 78.7132 14.2474C77.3852 12.9034 76.7212 11.1354 76.7212 8.94341C76.7212 6.78341 77.3852 5.04741 78.7132 3.7354C80.0572 2.4074 81.8252 1.7434 84.0172 1.7434C85.9212 1.7434 87.4572 2.27141 88.6252 3.32741C89.7932 4.36741 90.3772 5.74341 90.3772 7.45541V7.57541C90.3772 7.76741 90.3052 7.93541 90.1612 8.07941C90.0172 8.20741 89.8412 8.27141 89.6332 8.27141H78.7612ZM78.7852 7.83941L88.1932 7.67141C88.3212 7.67141 88.3852 7.59941 88.3852 7.45541C88.3852 5.87141 87.9772 4.59941 87.1612 3.63941C86.3452 2.66341 85.2652 2.17541 83.9212 2.17541C82.3212 2.17541 81.0892 2.65541 80.2252 3.61541C79.3612 4.57541 78.8812 5.98341 78.7852 7.83941ZM90.5692 17.0794C89.5932 17.9274 88.3372 18.6794 86.8012 19.3354C85.2652 20.0074 83.6892 20.3434 82.0732 20.3434C81.2572 20.3434 80.4732 20.2554 79.7212 20.0794C78.9852 19.9194 78.3292 19.7194 77.7532 19.4794C77.1772 19.2394 76.5932 18.9034 76.0012 18.4714C75.4092 18.0394 74.9212 17.6474 74.5372 17.2954C74.1532 16.9434 73.7132 16.4714 73.2172 15.8794C72.7372 15.2874 72.3692 14.8154 72.1132 14.4634C71.8572 14.1114 71.5132 13.6314 71.0812 13.0234C70.6812 12.4634 70.3772 12.0394 70.1692 11.7514C69.9612 11.4634 69.6812 11.1194 69.3292 10.7194C68.9932 10.3034 68.6972 9.99941 68.4412 9.80741C68.1852 9.59941 67.8892 9.42341 67.5532 9.27941C67.2332 9.11941 66.9052 9.03941 66.5692 9.03941H66.2812V17.4874C66.2812 18.1594 66.3532 18.5754 66.4972 18.7354C66.6412 18.8954 67.0012 18.9754 67.5772 18.9754H68.4172V19.1914H62.2972V18.9754H63.1372C63.7132 18.9754 64.0652 18.8954 64.1932 18.7354C64.3372 18.5754 64.4092 18.1594 64.4092 17.4874V3.42341C64.4092 2.84741 64.3372 2.49541 64.1932 2.36741C64.0652 2.22341 63.7132 2.15141 63.1372 2.15141H62.2972V1.93541H67.7932V2.15141H67.5772C67.0012 2.15141 66.6412 2.22341 66.4972 2.36741C66.3532 2.49541 66.2812 2.84741 66.2812 3.42341V8.82341C67.1452 8.82341 67.6652 8.71141 67.8412 8.48741L71.6332 3.71141C71.9212 3.35941 72.0652 3.05541 72.0652 2.79941C72.0652 2.36741 71.6492 2.15141 70.8172 2.15141H70.6012V1.93541H76.0252V2.15141H75.6172C75.0092 2.15141 74.3852 2.28741 73.7452 2.55941C73.1052 2.81541 72.5532 3.23141 72.0892 3.80741L68.2732 8.63141L68.2972 8.72741C68.8412 8.85541 69.3532 9.06341 69.8332 9.35141C70.3132 9.62341 70.7772 10.0074 71.2252 10.5034C71.6892 10.9834 72.0652 11.4154 72.3532 11.7994C72.6572 12.1834 73.0492 12.7194 73.5292 13.4074C73.9132 13.9514 74.2172 14.3834 74.4412 14.7034C74.6812 15.0074 75.0092 15.4074 75.4252 15.9034C75.8412 16.3994 76.2092 16.7994 76.5292 17.1034C76.8652 17.3914 77.2812 17.7194 77.7772 18.0874C78.2732 18.4394 78.7612 18.7114 79.2412 18.9034C79.7372 19.0954 80.3052 19.2554 80.9452 19.3834C81.5852 19.5274 82.2492 19.5994 82.9372 19.5994C83.8012 19.5994 84.6652 19.4954 85.5292 19.2874C86.3932 19.0794 87.1532 18.8154 87.8092 18.4954C88.4652 18.1754 89.0012 17.8874 89.4172 17.6314C89.8492 17.3594 90.1932 17.1194 90.4492 16.9114L90.5692 17.0794ZM93.6335 19.1914V18.9754H95.4575C96.0335 18.9754 96.3855 18.9114 96.5135 18.7834C96.6575 18.6394 96.7295 18.2794 96.7295 17.7034V2.36741H95.2895C94.0895 2.36741 93.2655 2.55141 92.8175 2.91941C92.3695 3.27141 92.1135 4.00741 92.0495 5.12741L91.9775 6.11141L91.5455 6.08741L91.9055 0.519405L92.1695 0.543406L92.0495 1.93541H103.234L103.114 0.567406L103.378 0.543406L103.738 6.08741L103.306 6.11141L103.234 5.12741C103.154 4.00741 102.89 3.27141 102.442 2.91941C101.994 2.55141 101.178 2.36741 99.9935 2.36741H98.6015V17.7034C98.6015 18.2794 98.6655 18.6394 98.7935 18.7834C98.9375 18.9114 99.2975 18.9754 99.8735 18.9754H101.65V19.1914H93.6335ZM112.488 10.4554V5.31941C112.488 3.22341 111.544 2.17541 109.656 2.17541C108.504 2.17541 107.608 2.47941 106.968 3.08741C106.328 3.67941 105.984 4.46341 105.936 5.43941L105.864 6.92741H105.432L105.696 1.26341H105.936L105.864 2.53541C105.832 2.91941 105.8 3.17541 105.768 3.3034L105.936 3.35141C106.016 3.11141 106.144 2.92741 106.32 2.79941C107.264 2.09541 108.368 1.7434 109.632 1.7434C111.184 1.7434 112.36 2.0794 113.16 2.7514C113.96 3.4074 114.36 4.36741 114.36 5.63141V17.4874C114.36 17.9834 114.4 18.3114 114.48 18.4714C114.576 18.6314 114.8 18.7114 115.152 18.7114L115.632 18.6874L116.04 18.6634L116.064 18.8794C115.12 18.9754 114.248 19.1514 113.448 19.4074V19.2154C113.448 18.7354 113.36 18.0154 113.184 17.0554C113.072 16.3354 113.008 15.8154 112.992 15.4954H112.752C112.112 18.0874 110.768 19.3834 108.72 19.3834C107.408 19.3834 106.32 19.0234 105.456 18.3034C104.608 17.5674 104.184 16.6154 104.184 15.4474C104.184 13.9434 104.768 12.7354 105.936 11.8234C107.12 10.9114 108.68 10.4554 110.616 10.4554H112.488ZM112.488 10.8874H110.736C109.392 10.8874 108.312 11.3114 107.496 12.1594C106.68 12.9914 106.272 14.0874 106.272 15.4474C106.272 16.4394 106.52 17.2394 107.016 17.8474C107.528 18.4394 108.192 18.7354 109.008 18.7354C109.936 18.7354 110.744 18.3114 111.432 17.4634C112.136 16.5994 112.488 15.3674 112.488 13.7674V10.8874ZM0.605797 49.7594H2.2618C2.7418 49.3434 3.2138 48.8234 3.6778 48.1994C4.1418 47.5754 4.5898 46.8474 5.0218 46.0154C5.4538 45.1834 5.8058 44.2234 6.0778 43.1354C6.3498 42.0474 6.4858 40.9354 6.4858 39.7994V34.9274C6.4858 34.0954 6.3818 33.5914 6.1738 33.4154C5.9818 33.2394 5.4618 33.1514 4.6138 33.1514H4.0858V32.9354H15.7738V33.1514H14.9098C14.3498 33.1514 13.9978 33.2474 13.8538 33.4394C13.7098 33.6314 13.6378 34.0314 13.6378 34.6394V49.7594H15.7738V54.2234H14.9098V51.6794C14.9098 51.0714 14.8298 50.6714 14.6698 50.4794C14.5258 50.2874 14.1738 50.1914 13.6138 50.1914H2.7658C2.2058 50.1914 1.8458 50.2874 1.6858 50.4794C1.5418 50.6714 1.4698 51.0714 1.4698 51.6794V54.2234H0.605797V49.7594ZM4.9258 49.7594H11.7658V33.3674H7.1098V39.2234C7.1098 41.4634 6.9018 43.4954 6.4858 45.3194C6.0858 47.1274 5.5658 48.6074 4.9258 49.7594ZM18.2329 32.9354H20.2969H26.8729H30.8809V33.1514H30.0169C29.4569 33.1514 29.1049 33.2474 28.9609 33.4394C28.8169 33.6314 28.7449 34.0314 28.7449 34.6394V48.4874C28.7449 49.0954 28.8169 49.4954 28.9609 49.6874C29.1049 49.8794 29.4569 49.9754 30.0169 49.9754H30.8809V50.1914H24.9529V49.9754H25.6009C26.1609 49.9754 26.5129 49.8794 26.6569 49.6874C26.8009 49.4954 26.8729 49.0954 26.8729 48.4874V33.3674H21.2569V39.2234C21.2569 42.1834 20.9129 44.7114 20.2249 46.8074C19.5369 48.8874 18.7369 50.3034 17.8249 51.0554L16.4089 49.4474C16.9049 49.0314 17.3769 48.5354 17.8249 47.9594C18.2729 47.3674 18.7129 46.6714 19.1449 45.8714C19.5929 45.0714 19.9529 44.1434 20.2249 43.0874C20.4969 42.0314 20.6329 40.9354 20.6329 39.7994V34.9274C20.6329 34.0954 20.5289 33.5914 20.3209 33.4154C20.1289 33.2394 19.6089 33.1514 18.7609 33.1514H18.2329V32.9354ZM39.6793 50.1914V49.9754H40.1113C40.6873 49.9754 41.0473 49.9114 41.1913 49.7834C41.3353 49.6394 41.4073 49.2794 41.4073 48.7034V42.6314H39.5593C39.5433 44.9674 39.0713 46.8474 38.1433 48.2714C37.2313 49.6794 36.0233 50.3834 34.5193 50.3834C33.4793 50.3834 32.5993 50.0714 31.8793 49.4474V47.5514C33.0473 48.3834 34.1113 48.7994 35.0713 48.7994C36.3673 48.7994 37.3593 48.2634 38.0473 47.1914C38.7513 46.1194 39.1113 44.5994 39.1273 42.6314C37.1433 42.6314 35.5433 42.2154 34.3273 41.3834C33.1113 40.5354 32.5033 39.3354 32.5033 37.7834C32.5033 36.2314 33.1113 35.0394 34.3273 34.2074C35.5433 33.3594 37.1433 32.9354 39.1273 32.9354H45.3913V33.1514H44.5513C43.9753 33.1514 43.6153 33.2234 43.4713 33.3674C43.3433 33.4954 43.2793 33.8474 43.2793 34.4234V48.7034C43.2793 49.2794 43.3433 49.6394 43.4713 49.7834C43.6153 49.9114 43.9753 49.9754 44.5513 49.9754H45.3913V50.1914H39.6793ZM41.4073 42.1994V34.6394C41.4073 34.0794 41.5433 33.6634 41.8153 33.3914V33.3674H39.3193C36.1673 33.3674 34.5913 34.8394 34.5913 37.7834C34.5913 40.7274 36.1673 42.1994 39.3193 42.1994H41.4073ZM52.641 50.1914V49.9754H53.481C54.057 49.9754 54.409 49.9114 54.537 49.7834C54.681 49.6394 54.753 49.2794 54.753 48.7034V34.4234C54.753 33.8474 54.681 33.4954 54.537 33.3674C54.409 33.2234 54.057 33.1514 53.481 33.1514H52.641V32.9354H61.665C61.953 32.9354 62.169 33.0074 62.313 33.1514H62.337L62.241 31.5194L62.457 31.4954L62.913 38.5274H62.481L62.385 36.8474C62.321 35.6314 61.897 34.7514 61.113 34.2074C60.329 33.6474 59.305 33.3674 58.041 33.3674H56.097V33.3914C56.449 33.7434 56.625 34.1594 56.625 34.6394V48.7034C56.625 49.2794 56.697 49.6394 56.841 49.7834C56.985 49.9114 57.345 49.9754 57.921 49.9754H59.481V50.1914H52.641ZM72.8492 50.3834C70.1772 50.3834 68.0252 49.5754 66.3932 47.9594C64.7612 46.3434 63.9452 44.2074 63.9452 41.5514C63.9452 38.9114 64.7612 36.7834 66.3932 35.1674C68.0252 33.5514 70.1772 32.7434 72.8492 32.7434C75.5052 32.7434 77.6412 33.5514 79.2572 35.1674C80.8892 36.7834 81.7052 38.9114 81.7052 41.5514C81.7052 44.2074 80.8892 46.3434 79.2572 47.9594C77.6412 49.5754 75.5052 50.3834 72.8492 50.3834ZM72.9212 49.9514C75.0972 49.9514 76.7532 49.2714 77.8892 47.9114C79.0412 46.5514 79.6172 44.5834 79.6172 42.0074C79.6172 39.1434 79.0252 36.9594 77.8412 35.4554C76.6732 33.9354 74.9772 33.1754 72.7532 33.1754C70.5612 33.1754 68.8892 33.8554 67.7372 35.2154C66.6012 36.5754 66.0332 38.5434 66.0332 41.1194C66.0332 43.9834 66.6172 46.1754 67.7852 47.6954C68.9692 49.1994 70.6812 49.9514 72.9212 49.9514ZM83.6584 41.5034C83.6584 38.8794 84.4264 36.7674 85.9624 35.1674C87.4984 33.5514 89.5224 32.7434 92.0344 32.7434C93.7624 32.7434 95.2264 33.2554 96.4264 34.2794C96.5384 34.3914 96.6264 34.5514 96.6904 34.7594L96.8584 34.7114C96.8264 34.5514 96.8024 34.3194 96.7864 34.0154L96.7384 32.2634H96.9544L97.1704 39.1994L96.7384 39.2234L96.6664 36.9914C96.6024 35.9354 96.0824 35.0314 95.1064 34.2794C94.1464 33.5274 93.0584 33.1514 91.8424 33.1514C89.8744 33.1514 88.3704 33.8314 87.3304 35.1914C86.3064 36.5514 85.7944 38.5274 85.7944 41.1194C85.7944 43.9834 86.3304 46.1754 87.4024 47.6954C88.4904 49.1994 90.0584 49.9514 92.1064 49.9514C93.2744 49.9514 94.3544 49.6554 95.3464 49.0634C96.3384 48.4714 97.0344 47.6714 97.4344 46.6634L97.8424 46.8314C97.3944 47.9834 96.6424 48.8634 95.5864 49.4714C94.5464 50.0794 93.3704 50.3834 92.0584 50.3834C89.5464 50.3834 87.5144 49.5674 85.9624 47.9354C84.4264 46.3034 83.6584 44.1594 83.6584 41.5034ZM100.665 50.1914V49.9754H102.489C103.065 49.9754 103.417 49.9114 103.545 49.7834C103.689 49.6394 103.761 49.2794 103.761 48.7034V33.3674H102.321C101.121 33.3674 100.297 33.5514 99.8488 33.9194C99.4008 34.2714 99.1448 35.0074 99.0808 36.1274L99.0088 37.1114L98.5768 37.0874L98.9368 31.5194L99.2008 31.5434L99.0808 32.9354H110.265L110.145 31.5674L110.409 31.5434L110.769 37.0874L110.337 37.1114L110.265 36.1274C110.185 35.0074 109.921 34.2714 109.473 33.9194C109.025 33.5514 108.209 33.3674 107.025 33.3674H105.633V48.7034C105.633 49.2794 105.697 49.6394 105.825 49.7834C105.969 49.9114 106.329 49.9754 106.905 49.9754H108.681V50.1914H100.665ZM113.823 40.8314C113.823 40.9274 113.823 41.0234 113.823 41.1194C113.823 43.9514 114.423 46.1354 115.623 47.6714C116.839 49.1914 118.487 49.9514 120.567 49.9514C122.167 49.9514 123.583 49.6314 124.815 48.9914C126.047 48.3354 127.015 47.4154 127.719 46.2314L128.055 46.4954C127.303 47.7274 126.271 48.6874 124.959 49.3754C123.663 50.0474 122.175 50.3834 120.495 50.3834C117.951 50.3834 115.847 49.5674 114.183 47.9354C112.519 46.2874 111.687 44.1434 111.687 41.5034C111.687 38.8794 112.495 36.7674 114.111 35.1674C115.743 33.5514 117.887 32.7434 120.543 32.7434C122.687 32.7434 124.503 33.4234 125.991 34.7834C127.479 36.1434 128.223 37.8874 128.223 40.0154V40.1354C128.223 40.3274 128.151 40.4954 128.007 40.6394C127.863 40.7674 127.687 40.8314 127.479 40.8314H113.823ZM113.847 40.3994L125.895 40.2314C126.023 40.2314 126.087 40.1594 126.087 40.0154C126.087 37.9674 125.567 36.3194 124.527 35.0714C123.503 33.8074 122.143 33.1754 120.447 33.1754C118.399 33.1754 116.807 33.7914 115.671 35.0234C114.551 36.2554 113.943 38.0474 113.847 40.3994ZM129.446 50.1914V49.9754H130.286C130.846 49.9754 131.198 49.8794 131.342 49.6874C131.486 49.4954 131.558 49.0954 131.558 48.4874V34.6394C131.558 34.0314 131.486 33.6314 131.342 33.4394C131.198 33.2474 130.846 33.1514 130.286 33.1514H129.446V32.9354H135.35V33.1514H134.726C134.166 33.1514 133.806 33.2474 133.646 33.4394C133.502 33.6314 133.43 34.0314 133.43 34.6394V48.5594L140.246 32.9354H144.014V33.1514H143.15C142.59 33.1514 142.238 33.2474 142.094 33.4394C141.95 33.6314 141.878 34.0314 141.878 34.6394V48.4874C141.878 49.0954 141.95 49.4954 142.094 49.6874C142.238 49.8794 142.59 49.9754 143.15 49.9754H144.014V50.1914H138.086V49.9754H138.734C139.294 49.9754 139.646 49.8794 139.79 49.6874C139.934 49.4954 140.006 49.0954 140.006 48.4874V34.5674L133.19 50.1914H129.446ZM133.766 28.6154L134.63 28.5434C134.63 29.1994 134.87 29.7674 135.35 30.2474C135.83 30.7114 136.406 30.9434 137.078 30.9434C137.75 30.9434 138.326 30.7114 138.806 30.2474C139.286 29.7674 139.526 29.1994 139.526 28.5434L140.39 28.6154C140.39 29.3834 140.062 30.0394 139.406 30.5834C138.766 31.1114 137.99 31.3754 137.078 31.3754C136.166 31.3754 135.382 31.1114 134.726 30.5834C134.086 30.0394 133.766 29.3834 133.766 28.6154Z" fill="black"></path></svg> 