<?xml version="1.0" encoding="UTF-8"?> <svg xmlns="http://www.w3.org/2000/svg" width="224" height="38" viewBox="0 0 224 38" fill="none"><path d="M6.90519 28.9011C6.10519 28.8371 5.41719 28.5651 4.84119 28.0851C4.16919 27.5091 3.64119 26.9011 3.25719 26.2611C3.09719 25.9731 2.64919 25.1411 1.91319 23.7651C1.68919 23.2531 1.56119 22.9171 1.52919 22.7571C0.921188 20.9651 0.617188 19.0451 0.617188 16.9971C0.617188 15.9731 0.665188 14.9491 0.761188 13.9251C0.793188 13.1891 0.985188 12.0691 1.33719 10.5651C1.72119 8.90107 2.32919 7.23707 3.16119 5.57307C3.32119 5.28507 3.78519 4.54907 4.55319 3.36507C4.87319 2.85307 5.57719 2.11707 6.66519 1.15707C6.88919 0.997068 7.20919 0.821069 7.62519 0.629069C7.84919 0.501069 8.13719 0.437069 8.48919 0.437069C8.74519 0.437069 9.00119 0.485069 9.25719 0.58107L9.35319 0.629069C9.67319 0.72507 9.83319 0.83707 9.83319 0.965068C9.83319 1.06107 9.68919 1.15707 9.40119 1.25307C9.08119 1.44507 8.77719 1.66907 8.48919 1.92507C8.10519 2.34107 7.67319 2.90107 7.19319 3.60507C6.26519 5.20507 5.57719 6.80507 5.12919 8.40507C4.68119 9.90907 4.44119 11.3971 4.40919 12.8691C4.34519 14.1171 4.32919 14.8851 4.36119 15.1731C4.36119 15.9411 4.34519 16.4371 4.31319 16.6611C4.31319 17.7811 4.37719 18.7091 4.50519 19.4451C4.63319 20.3411 4.71319 20.8691 4.74519 21.0291C5.00119 22.1171 5.22519 22.9971 5.41719 23.6691C5.70519 24.5971 5.99319 25.3811 6.28119 26.0211C6.63319 26.7571 6.96919 27.3011 7.28919 27.6531C7.70519 28.1331 7.99319 28.3731 8.15319 28.3731C8.18519 28.3731 8.48919 28.2451 9.06519 27.9891C9.76919 27.6051 10.4092 26.9171 10.9852 25.9251C11.5292 24.9971 11.9932 23.8771 12.3772 22.5651C12.7932 21.1251 13.0972 19.4771 13.2892 17.6211C13.4492 16.0211 13.5292 14.7091 13.5292 13.6851C13.5292 12.9491 13.5132 12.4691 13.4812 12.2451C13.4172 10.5491 13.2732 9.12507 13.0492 7.97307C12.7292 6.62907 12.2652 5.58907 11.6572 4.85307C11.4652 4.59707 11.2412 4.34107 10.9852 4.08507C10.8892 3.92507 10.7452 3.89307 10.5532 3.98907C10.1052 4.14907 9.86519 4.35707 9.83319 4.61307C9.76919 4.74107 9.67319 4.78907 9.54519 4.75707C8.96919 4.56507 8.64919 4.45307 8.58519 4.42107C8.20119 4.26107 8.12119 4.00507 8.34519 3.65307C8.66519 3.14107 9.12919 2.88507 9.73719 2.88507C9.92919 2.88507 10.0572 2.90107 10.1212 2.93307L11.5132 3.41307C11.9292 3.60507 12.3612 3.92507 12.8092 4.37307C13.5132 5.17307 14.0412 6.22907 14.3932 7.54107C14.5852 8.37307 14.7132 9.30107 14.7772 10.3251V12.4371C14.8092 13.7491 14.6812 15.5891 14.3932 17.9571C14.1692 19.7811 13.7852 21.5891 13.2412 23.3811C12.7932 24.7891 12.2652 25.9731 11.6572 26.9331C11.1452 27.7011 10.6012 28.2451 10.0252 28.5651C9.51319 28.8531 9.03319 28.9971 8.58519 28.9971C8.42519 28.9971 7.86519 28.9651 6.90519 28.9011ZM18.6521 26.5491L17.6441 26.2131C17.3881 26.1171 17.2441 25.9731 17.2121 25.7811C17.2121 25.7491 17.1961 25.6851 17.1641 25.5891C17.1321 25.4931 17.1161 25.4131 17.1161 25.3491L17.0681 24.1491C17.0681 23.8291 17.0841 23.6211 17.1161 23.5251V23.3811C17.0841 22.7091 17.1801 21.5091 17.4041 19.7811C17.5641 18.1811 17.6761 17.1891 17.7401 16.8051C17.7721 16.2931 17.9001 15.0451 18.1241 13.0611L18.4121 10.5171C18.4761 10.1971 18.5561 9.57307 18.6521 8.64507C18.7161 8.29307 18.7961 8.11707 18.8921 8.11707C18.9881 8.11707 19.1481 8.18107 19.3721 8.30907C19.5321 8.37307 19.6121 8.48507 19.6121 8.64507C19.7401 8.93307 19.8201 9.38107 19.8521 9.98907C19.8521 13.1891 19.8361 14.9971 19.8041 15.4131C19.8041 15.5731 19.8841 15.6211 20.0441 15.5571C21.1001 14.9491 21.8681 14.4051 22.3481 13.9251C23.2761 13.0931 24.0281 12.2771 24.6041 11.4771L24.7481 11.3331C24.8761 11.2051 25.0041 11.1891 25.1321 11.2851C25.2921 11.3811 25.3721 11.4931 25.3721 11.6211L25.2281 12.1011L25.0841 12.5331C24.1881 14.2931 22.9241 15.5891 21.2921 16.4211C21.2281 16.4851 20.9881 16.5971 20.5721 16.7571C20.3161 16.9171 20.1881 17.1411 20.1881 17.4291L20.3321 17.9091C20.8121 19.0931 21.5321 20.1491 22.4921 21.0771C22.6521 21.2051 22.8121 21.2691 22.9721 21.2691H23.3561C23.8361 21.2691 24.2201 21.2051 24.5081 21.0771C25.2761 20.7251 25.9481 20.2451 26.5241 19.6371C27.1001 19.0291 27.8681 17.9731 28.8281 16.4691L30.1241 14.6451C30.2521 14.4211 30.4441 14.3731 30.7001 14.5011L30.9401 14.6451C31.0041 14.7091 31.0201 14.7891 30.9881 14.8851L30.8441 15.2211L30.3161 16.0851L29.7881 16.9011C28.4121 18.8531 27.6441 19.9411 27.4841 20.1651C26.9081 20.8691 26.3321 21.3971 25.7561 21.7491C25.1801 22.0051 24.7161 22.1331 24.3641 22.1331C23.9161 22.1331 23.4841 22.0371 23.0681 21.8451C21.6601 21.2051 20.6361 20.3731 19.9961 19.3491C19.9641 19.2531 19.9161 19.2051 19.8521 19.2051C19.7881 19.1411 19.7401 19.1411 19.7081 19.2051L19.6601 19.3971C19.6281 20.1331 19.5641 21.6051 19.4681 23.8131C19.4361 24.7091 19.3561 25.4131 19.2281 25.9251L19.0841 26.3091C18.9881 26.5011 18.8441 26.5811 18.6521 26.5491ZM32.5376 22.9971L30.7616 22.1331C30.3456 21.9091 29.9776 21.5091 29.6576 20.9331C29.2736 20.2291 29.0816 19.2691 29.0816 18.0531C29.0816 16.3891 29.4976 14.8051 30.3296 13.3011C30.5856 12.9491 30.9056 12.5811 31.2896 12.1971L31.6736 11.9091C31.8016 11.7811 32.0096 11.7171 32.2976 11.7171C32.4576 11.7171 32.6176 11.7651 32.7776 11.8611C32.8736 11.9251 33.0016 12.0371 33.1616 12.1971C32.8096 12.3251 32.5216 12.6131 32.2976 13.0611C31.6256 14.2451 31.2256 15.4131 31.0976 16.5651C31.0016 17.1411 30.9536 17.7331 30.9536 18.3411C30.9536 18.4371 30.9856 18.8691 31.0496 19.6371C31.1776 20.4051 31.4016 21.0771 31.7216 21.6531C31.9136 22.0051 32.1216 22.1811 32.3456 22.1811L32.7296 22.0851C33.3376 21.9571 33.8976 21.5571 34.4096 20.8851C34.9856 20.1171 35.3376 19.2531 35.4656 18.2931C35.6256 17.5571 35.6736 17.0291 35.6096 16.7091C35.6096 16.4531 35.4976 16.3091 35.2736 16.2771H35.1776C34.5376 16.2451 33.6416 15.9251 32.4896 15.3171L32.3936 15.2211C32.0096 14.9971 31.8176 14.7571 31.8176 14.5011C31.8176 14.2451 31.9296 14.0051 32.1536 13.7811C32.5056 13.3331 32.9216 13.1091 33.4016 13.1091C33.5936 13.1091 33.8176 13.1571 34.0736 13.2531C34.3616 13.3491 34.8896 13.6051 35.6576 14.0211C36.0416 14.2451 36.3456 14.5331 36.5696 14.8851C36.6656 15.0771 36.8256 15.1571 37.0496 15.1251L38.3936 14.8371C39.9616 14.5171 41.1136 14.3411 41.8496 14.3091C42.2016 14.3091 42.4896 14.3731 42.7136 14.5011L43.2896 14.8371C43.3536 14.9011 43.3856 14.9491 43.3856 14.9811L43.2416 15.1251C41.5136 15.4451 40.4896 15.6211 40.1696 15.6531C39.4656 15.7491 38.4896 15.9251 37.2416 16.1811C37.0496 16.3091 36.9536 16.4531 36.9536 16.6131C36.9216 17.5091 36.7616 18.4531 36.4736 19.4451C35.9936 20.6931 35.5776 21.5411 35.2256 21.9891C34.9376 22.3731 34.6016 22.6611 34.2176 22.8531C33.9296 23.0451 33.6096 23.1411 33.2576 23.1411C33.0336 23.1411 32.7936 23.0931 32.5376 22.9971ZM34.6976 15.4611H35.0336C35.3536 15.4611 35.4496 15.3011 35.3216 14.9811L35.1296 14.6451C34.9376 14.3251 34.7616 14.1651 34.6016 14.1651C34.5056 14.1651 34.3456 14.2291 34.1216 14.3571C33.8016 14.5491 33.6096 14.7731 33.5456 15.0291C33.5456 15.1891 33.6096 15.2851 33.7376 15.3171C34.2176 15.4131 34.5376 15.4611 34.6976 15.4611ZM43.7606 23.6691L42.3686 23.1411C42.1766 23.0451 42.0806 22.9011 42.0806 22.7091V20.9811C42.1126 20.7251 42.1286 20.1651 42.1286 19.3011V16.8051L42.0806 14.3091C42.0806 12.9651 42.1286 11.6531 42.2246 10.3731C42.2246 10.3411 42.2566 10.0691 42.3206 9.55707C42.3846 9.36507 42.4806 9.33307 42.6086 9.46107C42.7366 9.49307 43.0246 9.62107 43.4726 9.84507C43.6006 9.90907 43.6806 10.0211 43.7126 10.1811V10.3731C43.6806 10.8851 43.6806 11.6371 43.7126 12.6291C43.7766 13.5891 43.8086 14.1011 43.8086 14.1651C43.9046 15.8291 43.9846 16.9491 44.0486 17.5251C44.0486 17.6851 44.0806 17.7651 44.1446 17.7651C44.2086 17.8291 44.3046 17.7811 44.4326 17.6211L45.2006 16.8531C46.6726 15.0291 47.7446 13.5731 48.4166 12.4851C48.6406 12.1011 48.7846 11.6691 48.8486 11.1891C48.9446 10.6131 49.0246 10.1971 49.0886 9.94107L49.2326 9.50907C49.3606 9.22107 49.5046 9.07707 49.6646 9.07707C49.7606 9.07707 49.9046 9.12507 50.0966 9.22107L50.9126 9.55707C51.2646 9.78107 51.4246 10.0691 51.3926 10.4211C51.3926 11.1571 51.3446 11.8771 51.2486 12.5811C51.1526 13.5731 51.0886 14.2451 51.0566 14.5971L50.9606 15.6051C50.8966 17.0131 51.0086 18.2931 51.2966 19.4451C51.3926 19.9891 51.5526 20.4371 51.7766 20.7891C51.8086 20.9171 51.9366 20.9651 52.1606 20.9331C52.7686 20.7731 53.2646 20.5011 53.6486 20.1171L54.3206 19.4451C55.6966 17.9731 56.8166 16.6131 57.6806 15.3651C57.8406 15.1411 58.0486 14.9011 58.3046 14.6451C58.4006 14.4851 58.5446 14.4531 58.7366 14.5491L59.0246 14.6931C59.1846 14.7571 59.2646 14.8051 59.2646 14.8371C59.2646 14.8691 59.2166 14.9651 59.1206 15.1251L55.7126 19.3011C54.8806 20.3571 54.2086 21.0611 53.6966 21.4131C53.4726 21.6371 53.3126 21.7651 53.2166 21.7971C52.9926 21.9251 52.7846 21.9891 52.5926 21.9891C52.4326 21.9891 52.2886 21.9571 52.1606 21.8931C51.2006 21.4771 50.5126 21.1411 50.0966 20.8851C49.5846 20.5651 49.2326 20.0851 49.0406 19.4451C48.7846 18.5171 48.6246 17.6371 48.5606 16.8051C48.4966 16.0371 48.4646 15.5891 48.4646 15.4611L48.5126 14.5491V13.9731L48.4646 13.9251H48.3686L48.2246 14.0691L47.5526 14.9811L46.4486 16.5651C45.8726 17.3331 45.4086 17.8931 45.0566 18.2451L44.5766 18.7251C44.2566 19.0451 44.1286 19.4451 44.1926 19.9251C44.2566 20.5011 44.2886 20.8211 44.2886 20.8851C44.3526 22.1651 44.3846 22.8531 44.3846 22.9491V23.1891V23.3811C44.3846 23.6371 44.3046 23.7651 44.1446 23.7651L43.7606 23.6691ZM67.7632 28.9971C67.5392 28.9971 67.3312 28.9491 67.1392 28.8531L65.0272 27.7011C64.5792 27.4771 64.2272 27.1091 63.9712 26.5971C63.2672 25.3811 62.9152 23.8131 62.9152 21.8931C62.9152 21.6691 62.9472 20.7891 63.0112 19.2531C63.0432 18.9011 63.1072 18.2291 63.2032 17.2371L63.4912 15.7011C63.5552 15.6051 63.5552 15.5091 63.4912 15.4131C63.3312 15.4771 63.2352 15.5891 63.2032 15.7491L62.0032 17.5731C61.7472 18.0211 61.3632 18.5171 60.8512 19.0611L60.6592 19.2531C60.3392 19.5411 60.1152 19.6851 59.9872 19.6851C59.8592 19.6851 59.6512 19.5891 59.3632 19.3971L58.2592 18.7251C58.0672 18.6291 57.9392 18.4531 57.8752 18.1971C57.8112 17.6851 57.7952 17.3811 57.8272 17.2851C57.8592 15.7811 58.1152 14.2451 58.5952 12.6771C58.8192 11.9411 58.9792 11.4771 59.0752 11.2851C59.1072 11.1251 59.1712 10.9491 59.2672 10.7571C59.3632 10.5331 59.4912 10.5011 59.6512 10.6611C60.0992 10.8851 60.3712 11.0451 60.4672 11.1411C60.6272 11.2371 60.6752 11.3811 60.6112 11.5731L59.9872 14.0211C59.7632 14.8851 59.6512 16.1171 59.6512 17.7171C59.6512 17.7811 59.6832 17.8291 59.7472 17.8611C59.8112 17.8931 59.8592 17.8931 59.8912 17.8611C60.3712 17.5091 60.7072 17.2051 60.8992 16.9491C61.4432 16.3411 61.9072 15.7491 62.2912 15.1731L64.2592 12.2931L64.3552 12.1971C64.5472 11.8451 64.6912 11.6691 64.7872 11.6691C64.8192 11.6691 64.9952 11.7651 65.3152 11.9571L66.0832 12.3891C66.4032 12.5171 66.5632 12.8051 66.5632 13.2531C66.5632 13.6051 66.5312 13.9411 66.4672 14.2611L66.1792 15.5091C66.0512 15.8611 65.9072 16.5171 65.7472 17.4771C65.6192 18.1491 65.5232 18.8051 65.4592 19.4451C65.3312 20.6931 65.2672 21.7491 65.2672 22.6131C65.2672 23.2531 65.2832 23.6531 65.3152 23.8131C65.3472 25.0611 65.6832 26.2451 66.3232 27.3651C66.4192 27.5251 66.5472 27.6051 66.7072 27.6051C67.0272 27.6051 67.3312 27.5571 67.6192 27.4611C67.8752 27.3971 68.1312 27.2211 68.3872 26.9331L68.6752 26.5491C68.7712 26.3891 68.8832 26.3571 69.0112 26.4531L69.4912 26.6931C69.7792 26.8531 69.9232 27.0131 69.9232 27.1731C69.9232 27.8131 69.6352 28.2771 69.0592 28.5651L68.0992 28.9491C68.0672 28.9811 67.9552 28.9971 67.7632 28.9971ZM83.9212 24.1011L82.5292 23.4291C82.3372 23.3011 82.0652 23.0451 81.7132 22.6611C81.4572 22.1811 81.2652 21.7811 81.1372 21.4611C80.6892 19.9251 80.4652 18.2931 80.4652 16.5651C80.4652 15.1891 80.4812 14.3091 80.5132 13.9251C80.5452 13.5411 80.5932 13.0771 80.6572 12.5331C80.7532 11.9571 80.8012 11.6211 80.8012 11.5251L80.8492 10.7571L80.8012 10.5171C80.5772 10.7411 80.3372 11.0771 80.0812 11.5251C79.6972 12.1651 79.1852 13.1891 78.5452 14.5971L76.5772 19.2051C76.0332 20.4211 75.3772 21.5571 74.6092 22.6131C74.5132 22.7731 74.2572 23.0611 73.8412 23.4771C73.6172 23.7011 73.3452 23.8131 73.0252 23.8131C72.8012 23.8131 72.5932 23.7651 72.4012 23.6691C71.5372 23.2531 71.0092 22.9971 70.8172 22.9011C70.2412 22.6451 69.8252 22.2291 69.5692 21.6531C69.2812 20.9811 69.1372 20.2771 69.1372 19.5411C69.1372 19.0291 69.2012 18.4051 69.3292 17.6691C69.5852 16.4531 69.9052 15.4771 70.2892 14.7411C71.2172 12.9171 72.4172 11.7011 73.8892 11.0931C74.4972 10.8371 75.0092 10.7091 75.4252 10.7091C75.9692 10.7091 76.5612 10.8851 77.2012 11.2371L78.1132 11.7651C78.3052 11.8611 78.4172 11.8451 78.4492 11.7171L78.7852 11.0931C79.2332 10.2291 79.6012 9.63707 79.8892 9.31707L80.1772 8.98107C80.3372 8.82107 80.4812 8.74107 80.6092 8.74107C80.7372 8.74107 80.8652 8.77307 80.9932 8.83707C81.0572 8.86907 81.1852 8.94907 81.3772 9.07707C81.6012 9.17307 81.7932 9.26907 81.9532 9.36507C82.1772 9.46107 82.3372 9.63707 82.4332 9.89307C82.5612 10.1491 82.6252 10.4851 82.6252 10.9011L82.6732 11.8131C82.6732 11.9091 82.6412 12.3411 82.5772 13.1091L82.4812 15.5571C82.4172 16.6451 82.3852 17.2691 82.3852 17.4291C82.3852 19.0611 82.6252 20.6131 83.1052 22.0851C83.1372 22.1491 83.1692 22.2291 83.2012 22.3251C83.2332 22.4531 83.2652 22.5331 83.2972 22.5651C83.3932 22.8211 83.5052 22.9491 83.6332 22.9491H83.6812C83.7132 22.9171 83.7612 22.8851 83.8252 22.8531C83.8892 22.7891 83.9532 22.7411 84.0172 22.7091C84.4652 22.3251 84.8332 21.9251 85.1212 21.5091C85.6332 20.7731 86.1292 19.8611 86.6092 18.7731C86.7052 18.5491 87.2652 17.5411 88.2892 15.7491C88.6732 15.0131 88.9132 14.5971 89.0092 14.5011C89.1052 14.4051 89.2332 14.3891 89.3932 14.4531L90.0652 14.7891C90.2252 14.8531 90.2732 14.9651 90.2092 15.1251L89.9212 15.7971C89.1852 17.3651 88.3692 19.0451 87.4732 20.8371C87.4092 20.9971 87.1052 21.5251 86.5612 22.4211C86.4652 22.6451 86.1292 23.0451 85.5532 23.6211C85.3612 23.8131 85.1532 23.9571 84.9292 24.0531C84.7372 24.1491 84.5612 24.1971 84.4012 24.1971C84.3372 24.1971 84.1772 24.1651 83.9212 24.1011ZM72.4492 22.0371L72.7372 21.7971C73.4412 21.2211 74.0972 20.4211 74.7052 19.3971C75.4732 18.0851 76.0812 16.9331 76.5292 15.9411L77.9212 12.8691C77.9532 12.8371 77.9692 12.7411 77.9692 12.5811C77.9692 12.2611 77.7932 12.0531 77.4412 11.9571C77.1532 11.9571 76.9612 11.9731 76.8652 12.0051C76.1612 12.1011 75.5052 12.4051 74.8972 12.9171C73.6172 14.0051 72.7852 15.4291 72.4012 17.1891C72.2732 17.7011 72.1772 18.2131 72.1132 18.7251C72.0172 19.2371 71.9692 19.7491 71.9692 20.2611C71.9692 20.9011 72.0332 21.4611 72.1612 21.9411C72.1932 22.0691 72.2892 22.1011 72.4492 22.0371ZM90.5887 23.6691L89.1967 23.1411C89.0047 23.0451 88.9087 22.9011 88.9087 22.7091V20.9811C88.9407 20.7251 88.9567 20.1651 88.9567 19.3011V16.8051L88.9087 14.3091C88.9087 12.9651 88.9567 11.6531 89.0527 10.3731C89.0527 10.3411 89.0847 10.0691 89.1487 9.55707C89.2127 9.36507 89.3087 9.33307 89.4367 9.46107C89.5647 9.49307 89.8527 9.62107 90.3007 9.84507C90.4287 9.90907 90.5087 10.0211 90.5407 10.1811V10.3731C90.5087 10.8851 90.5087 11.6371 90.5407 12.6291C90.6047 13.5891 90.6367 14.1011 90.6367 14.1651C90.7327 15.8291 90.8127 16.9491 90.8767 17.5251C90.8767 17.6851 90.9087 17.7651 90.9727 17.7651C91.0367 17.8291 91.1327 17.7811 91.2607 17.6211L92.0287 16.8531C93.5007 15.0291 94.5727 13.5731 95.2447 12.4851C95.4687 12.1011 95.6127 11.6691 95.6767 11.1891C95.7727 10.6131 95.8527 10.1971 95.9167 9.94107L96.0607 9.50907C96.1887 9.22107 96.3327 9.07707 96.4927 9.07707C96.5887 9.07707 96.7327 9.12507 96.9247 9.22107L97.7407 9.55707C98.0927 9.78107 98.2527 10.0691 98.2207 10.4211C98.2207 11.1571 98.1727 11.8771 98.0767 12.5811C97.9807 13.5731 97.9167 14.2451 97.8847 14.5971L97.7887 15.6051C97.7247 17.0131 97.8367 18.2931 98.1247 19.4451C98.2207 19.9891 98.3807 20.4371 98.6047 20.7891C98.6367 20.9171 98.7647 20.9651 98.9887 20.9331C99.5967 20.7731 100.093 20.5011 100.477 20.1171L101.149 19.4451C102.525 17.9731 103.645 16.6131 104.509 15.3651C104.669 15.1411 104.877 14.9011 105.133 14.6451C105.229 14.4851 105.373 14.4531 105.565 14.5491L105.853 14.6931C106.013 14.7571 106.093 14.8051 106.093 14.8371C106.093 14.8691 106.045 14.9651 105.949 15.1251L102.541 19.3011C101.709 20.3571 101.037 21.0611 100.525 21.4131C100.301 21.6371 100.141 21.7651 100.045 21.7971C99.8207 21.9251 99.6127 21.9891 99.4207 21.9891C99.2607 21.9891 99.1167 21.9571 98.9887 21.8931C98.0287 21.4771 97.3407 21.1411 96.9247 20.8851C96.4127 20.5651 96.0607 20.0851 95.8687 19.4451C95.6127 18.5171 95.4527 17.6371 95.3887 16.8051C95.3247 16.0371 95.2927 15.5891 95.2927 15.4611L95.3407 14.5491V13.9731L95.2927 13.9251H95.1967L95.0527 14.0691L94.3807 14.9811L93.2767 16.5651C92.7007 17.3331 92.2367 17.8931 91.8847 18.2451L91.4047 18.7251C91.0847 19.0451 90.9567 19.4451 91.0207 19.9251C91.0847 20.5011 91.1167 20.8211 91.1167 20.8851C91.1807 22.1651 91.2127 22.8531 91.2127 22.9491V23.1891V23.3811C91.2127 23.6371 91.1327 23.7651 90.9727 23.7651L90.5887 23.6691ZM116.319 23.3331L114.735 22.9011C114.383 22.8051 114.015 22.4691 113.631 21.8931C113.279 21.3171 113.039 20.6931 112.911 20.0211C112.815 19.6371 112.719 18.8851 112.623 17.7651C112.559 16.9331 112.527 15.9411 112.527 14.7891C112.527 14.6931 112.527 14.5811 112.527 14.4531C112.527 14.3251 112.527 14.1971 112.527 14.0691C112.527 13.9411 112.527 13.8611 112.527 13.8291C112.463 13.7651 112.399 13.7971 112.335 13.9251L112.047 14.5491C111.023 16.7891 109.903 18.7731 108.687 20.5011C108.239 21.0771 107.967 21.4131 107.871 21.5091C107.679 21.7011 107.439 21.7491 107.151 21.6531L106.143 21.3651C105.695 21.2691 105.375 20.9971 105.183 20.5491C104.927 19.8771 104.767 19.2211 104.703 18.5811L104.655 17.1891C104.655 17.0611 104.687 16.3891 104.751 15.1731C104.879 13.8931 105.023 12.9651 105.183 12.3891C105.311 12.0051 105.439 11.8131 105.567 11.8131C105.663 11.8131 105.839 11.8611 106.095 11.9571C106.351 12.0531 106.479 12.2611 106.479 12.5811C106.543 14.1171 106.575 14.9971 106.575 15.2211C106.639 16.2451 106.751 17.4771 106.911 18.9171C106.943 19.1091 107.007 19.5411 107.103 20.2131C107.103 20.2771 107.119 20.3251 107.151 20.3571C107.215 20.3571 107.263 20.3411 107.295 20.3091C107.615 20.1171 107.903 19.8131 108.159 19.3971C108.767 18.6291 109.343 17.7331 109.887 16.7091C110.687 15.2051 111.487 13.4611 112.287 11.4771L112.767 10.2291C112.927 9.87707 113.039 9.54107 113.103 9.22107C113.135 8.96507 113.247 8.61307 113.439 8.16507C113.471 8.03707 113.567 7.98907 113.727 8.02107L114.735 8.35707C114.959 8.45307 115.119 8.61307 115.215 8.83707C115.343 9.18907 115.375 9.70107 115.311 10.3731L115.119 13.2051C115.055 14.4211 115.023 15.7811 115.023 17.2851C115.023 17.9571 115.119 18.9651 115.311 20.3091C115.407 20.9491 115.583 21.5571 115.839 22.1331C115.935 22.3571 116.015 22.4691 116.079 22.4691C116.207 22.4691 116.335 22.4051 116.463 22.2771C116.943 21.9891 117.359 21.6051 117.711 21.1251C118.031 20.7091 118.623 19.8131 119.487 18.4371C120.287 17.1571 120.815 16.2291 121.071 15.6531C121.231 15.2371 121.423 14.9171 121.647 14.6931C121.807 14.5331 121.951 14.4691 122.079 14.5011C122.591 14.6291 122.895 14.7411 122.991 14.8371C122.735 15.3491 122.511 15.7331 122.319 15.9891C121.903 16.5651 121.487 17.2211 121.071 17.9571L119.679 20.3571C119.007 21.4451 118.463 22.1971 118.047 22.6131L117.471 23.0931C117.119 23.3491 116.735 23.4291 116.319 23.3331ZM132.714 14.8371L131.61 16.2771L129.834 18.5811C129.066 19.4451 128.282 20.1011 127.482 20.5491C127.386 20.6451 127.21 20.7251 126.954 20.7891C126.73 20.9171 126.426 20.9811 126.042 20.9811C125.786 20.9811 125.562 20.9491 125.37 20.8851C124.218 20.4691 123.306 19.9891 122.634 19.4451C121.578 18.5811 121.05 17.3971 121.05 15.8931C121.05 14.5811 121.386 13.4771 122.058 12.5811C122.538 11.8451 123.13 11.3651 123.834 11.1411C124.09 11.0451 124.33 10.9971 124.554 10.9971C124.906 10.9971 125.242 11.0931 125.562 11.2851L126.234 11.6211C126.65 11.8451 126.858 12.1811 126.858 12.6291L126.762 13.1091C126.73 13.2691 126.666 13.3811 126.57 13.4451C126.218 14.0211 125.69 14.5811 124.986 15.1251C124.506 15.4131 124.01 15.5731 123.498 15.6051C123.242 15.6371 123.114 15.7971 123.114 16.0851C123.05 17.3651 123.306 18.4211 123.882 19.2531L124.074 19.5891C124.394 20.0051 124.73 20.2131 125.082 20.2131C125.274 20.2131 125.482 20.1651 125.706 20.0691C126.218 19.9411 126.714 19.7011 127.194 19.3491C128.058 18.6771 128.826 17.9251 129.498 17.0931L130.506 15.7491L131.466 14.6451C131.658 14.4531 131.786 14.3571 131.85 14.3571C131.914 14.3571 131.978 14.3891 132.042 14.4531C132.138 14.5171 132.218 14.5491 132.282 14.5491C132.538 14.5811 132.682 14.6771 132.714 14.8371ZM123.402 15.0771L123.642 15.0291C124.474 14.6131 125.146 13.9731 125.658 13.1091C125.786 12.7571 125.834 12.4691 125.802 12.2451V12.1011C125.738 11.8451 125.594 11.7651 125.37 11.8611C125.05 11.9571 124.778 12.1171 124.554 12.3411C123.818 12.9491 123.386 13.8131 123.258 14.9331C123.194 15.0291 123.242 15.0771 123.402 15.0771ZM160.503 14.7411C160.503 14.8051 160.375 14.9331 160.119 15.1251L157.959 16.7091C157.351 17.0931 156.743 17.5731 156.135 18.1491C155.911 18.3411 155.799 18.5811 155.799 18.8691C155.735 20.1491 155.367 21.4451 154.695 22.7571C154.279 23.6211 153.735 24.2931 153.063 24.7731L152.535 25.0611C152.247 25.1891 152.007 25.2051 151.815 25.1091L150.759 24.6291C150.631 24.5971 150.567 24.4691 150.567 24.2451C150.567 24.0851 150.615 23.9251 150.711 23.7651C150.967 23.0931 151.399 22.3411 152.007 21.5091L153.063 20.1171C153.223 19.8931 153.335 19.6531 153.399 19.3971C153.623 18.1171 153.719 17.0611 153.687 16.2291C153.687 15.6851 153.623 15.3011 153.495 15.0771C153.239 15.0771 152.983 15.2051 152.727 15.4611C152.343 15.8451 152.071 16.1811 151.911 16.4691C151.591 17.0771 151.303 17.7011 151.047 18.3411C150.631 19.6211 150.167 21.2371 149.655 23.1891L148.935 26.0211L148.647 26.9331C148.519 27.1891 148.295 27.3011 147.975 27.2691C147.847 27.2371 147.463 27.1251 146.823 26.9331C146.407 26.8371 146.119 26.5651 145.959 26.1171C145.863 25.9571 145.735 25.5251 145.575 24.8211C145.383 23.7651 145.287 22.6771 145.287 21.5571C145.287 20.1171 145.351 18.3571 145.479 16.2771C145.639 14.2291 145.815 12.4371 146.007 10.9011C146.039 10.7411 146.103 10.3891 146.199 9.84507C146.231 9.42907 146.359 8.64507 146.583 7.49307C146.935 5.76507 147.415 4.22907 148.023 2.88507C148.375 2.21307 148.727 1.68507 149.079 1.30107C149.335 0.917068 149.703 0.661068 150.183 0.533068C150.375 0.469069 150.551 0.437069 150.711 0.437069C150.903 0.437069 151.095 0.469069 151.287 0.533068L151.863 0.869069L152.583 1.30107C153.095 1.55707 153.367 2.03707 153.399 2.74107C153.399 3.22107 153.335 3.73307 153.207 4.27707C153.015 5.23707 152.471 6.85307 151.575 9.12507C150.647 11.3331 149.591 13.4931 148.407 15.6051C148.087 16.1171 147.927 16.7091 147.927 17.3811C147.927 18.0531 147.911 18.4691 147.879 18.6291L147.831 19.9251C147.799 20.3411 147.783 21.2691 147.783 22.7091C147.783 23.0931 147.831 23.6691 147.927 24.4371C147.927 24.5331 147.959 24.5811 148.023 24.5811C148.087 24.6451 148.151 24.5971 148.215 24.4371C148.215 24.3731 148.231 24.2771 148.263 24.1491C148.327 24.0211 148.375 23.9091 148.407 23.8131L149.655 19.6851C150.007 18.3731 150.375 17.3491 150.759 16.6131C150.919 16.1971 151.143 15.7811 151.431 15.3651C151.751 14.9811 152.023 14.6931 152.247 14.5011C152.503 14.3411 152.743 14.2611 152.967 14.2611C152.999 14.2611 153.143 14.2931 153.399 14.3571C153.527 14.4531 153.863 14.6131 154.407 14.8371C154.983 15.0931 155.367 15.5091 155.559 16.0851L155.799 17.1411H155.895C155.991 17.1411 156.119 17.0611 156.279 16.9011L158.103 15.4611L159.063 14.6931L159.495 14.4051C159.687 14.2131 159.847 14.1971 159.975 14.3571L160.023 14.4051C160.343 14.5331 160.503 14.6451 160.503 14.7411ZM148.263 13.3491L148.311 13.7811C148.407 13.6851 148.471 13.6051 148.503 13.5411C148.503 13.4771 148.519 13.4131 148.551 13.3491C148.615 13.2851 148.663 13.2051 148.695 13.1091C148.759 12.9811 148.807 12.8691 148.839 12.7731C149.927 10.6291 150.759 8.53307 151.335 6.48507C151.815 4.78907 152.071 3.63707 152.103 3.02907V2.35707C152.103 2.22907 152.071 2.13307 152.007 2.06907C151.943 2.03707 151.863 2.06907 151.767 2.16507C151.319 2.54907 150.951 2.99707 150.663 3.50907C150.087 4.53307 149.671 5.50907 149.415 6.43707C148.903 8.45307 148.519 10.7571 148.263 13.3491ZM148.263 13.8291V13.7811V13.8291ZM170.261 14.8371L169.157 16.2771L167.381 18.5811C166.613 19.4451 165.829 20.1011 165.029 20.5491C164.933 20.6451 164.757 20.7251 164.501 20.7891C164.277 20.9171 163.973 20.9811 163.589 20.9811C163.333 20.9811 163.109 20.9491 162.917 20.8851C161.765 20.4691 160.853 19.9891 160.181 19.4451C159.125 18.5811 158.597 17.3971 158.597 15.8931C158.597 14.5811 158.933 13.4771 159.605 12.5811C160.085 11.8451 160.677 11.3651 161.381 11.1411C161.637 11.0451 161.877 10.9971 162.101 10.9971C162.453 10.9971 162.789 11.0931 163.109 11.2851L163.781 11.6211C164.197 11.8451 164.405 12.1811 164.405 12.6291L164.309 13.1091C164.277 13.2691 164.213 13.3811 164.117 13.4451C163.765 14.0211 163.237 14.5811 162.533 15.1251C162.053 15.4131 161.557 15.5731 161.045 15.6051C160.789 15.6371 160.661 15.7971 160.661 16.0851C160.597 17.3651 160.853 18.4211 161.429 19.2531L161.621 19.5891C161.941 20.0051 162.277 20.2131 162.629 20.2131C162.821 20.2131 163.029 20.1651 163.253 20.0691C163.765 19.9411 164.261 19.7011 164.741 19.3491C165.605 18.6771 166.373 17.9251 167.045 17.0931L168.053 15.7491L169.013 14.6451C169.205 14.4531 169.333 14.3571 169.397 14.3571C169.461 14.3571 169.525 14.3891 169.589 14.4531C169.685 14.5171 169.765 14.5491 169.829 14.5491C170.085 14.5811 170.229 14.6771 170.261 14.8371ZM160.949 15.0771L161.189 15.0291C162.021 14.6131 162.693 13.9731 163.205 13.1091C163.333 12.7571 163.381 12.4691 163.349 12.2451V12.1011C163.285 11.8451 163.141 11.7651 162.917 11.8611C162.597 11.9571 162.325 12.1171 162.101 12.3411C161.365 12.9491 160.933 13.8131 160.805 14.9331C160.741 15.0291 160.789 15.0771 160.949 15.0771ZM178.763 28.9971C178.539 28.9971 178.331 28.9491 178.139 28.8531L176.027 27.7011C175.579 27.4771 175.227 27.1091 174.971 26.5971C174.267 25.3811 173.915 23.8131 173.915 21.8931C173.915 21.6691 173.947 20.7891 174.011 19.2531C174.043 18.9011 174.107 18.2291 174.203 17.2371L174.491 15.7011C174.555 15.6051 174.555 15.5091 174.491 15.4131C174.331 15.4771 174.235 15.5891 174.203 15.7491L173.003 17.5731C172.747 18.0211 172.363 18.5171 171.851 19.0611L171.659 19.2531C171.339 19.5411 171.115 19.6851 170.987 19.6851C170.859 19.6851 170.651 19.5891 170.363 19.3971L169.259 18.7251C169.067 18.6291 168.939 18.4531 168.875 18.1971C168.811 17.6851 168.795 17.3811 168.827 17.2851C168.859 15.7811 169.115 14.2451 169.595 12.6771C169.819 11.9411 169.979 11.4771 170.075 11.2851C170.107 11.1251 170.171 10.9491 170.267 10.7571C170.363 10.5331 170.491 10.5011 170.651 10.6611C171.099 10.8851 171.371 11.0451 171.467 11.1411C171.627 11.2371 171.675 11.3811 171.611 11.5731L170.987 14.0211C170.763 14.8851 170.651 16.1171 170.651 17.7171C170.651 17.7811 170.683 17.8291 170.747 17.8611C170.811 17.8931 170.859 17.8931 170.891 17.8611C171.371 17.5091 171.707 17.2051 171.899 16.9491C172.443 16.3411 172.907 15.7491 173.291 15.1731L175.259 12.2931L175.355 12.1971C175.547 11.8451 175.691 11.6691 175.787 11.6691C175.819 11.6691 175.995 11.7651 176.315 11.9571L177.083 12.3891C177.403 12.5171 177.563 12.8051 177.563 13.2531C177.563 13.6051 177.531 13.9411 177.467 14.2611L177.179 15.5091C177.051 15.8611 176.907 16.5171 176.747 17.4771C176.619 18.1491 176.523 18.8051 176.459 19.4451C176.331 20.6931 176.267 21.7491 176.267 22.6131C176.267 23.2531 176.283 23.6531 176.315 23.8131C176.347 25.0611 176.683 26.2451 177.323 27.3651C177.419 27.5251 177.547 27.6051 177.707 27.6051C178.027 27.6051 178.331 27.5571 178.619 27.4611C178.875 27.3971 179.131 27.2211 179.387 26.9331L179.675 26.5491C179.771 26.3891 179.883 26.3571 180.011 26.4531L180.491 26.6931C180.779 26.8531 180.923 27.0131 180.923 27.1731C180.923 27.8131 180.635 28.2771 180.059 28.5651L179.099 28.9491C179.067 28.9811 178.955 28.9971 178.763 28.9971ZM192.761 14.8371L191.657 16.2771L189.881 18.5811C189.113 19.4451 188.329 20.1011 187.529 20.5491C187.433 20.6451 187.257 20.7251 187.001 20.7891C186.777 20.9171 186.473 20.9811 186.089 20.9811C185.833 20.9811 185.609 20.9491 185.417 20.8851C184.265 20.4691 183.353 19.9891 182.681 19.4451C181.625 18.5811 181.097 17.3971 181.097 15.8931C181.097 14.5811 181.433 13.4771 182.105 12.5811C182.585 11.8451 183.177 11.3651 183.881 11.1411C184.137 11.0451 184.377 10.9971 184.601 10.9971C184.953 10.9971 185.289 11.0931 185.609 11.2851L186.281 11.6211C186.697 11.8451 186.905 12.1811 186.905 12.6291L186.809 13.1091C186.777 13.2691 186.713 13.3811 186.617 13.4451C186.265 14.0211 185.737 14.5811 185.033 15.1251C184.553 15.4131 184.057 15.5731 183.545 15.6051C183.289 15.6371 183.161 15.7971 183.161 16.0851C183.097 17.3651 183.353 18.4211 183.929 19.2531L184.121 19.5891C184.441 20.0051 184.777 20.2131 185.129 20.2131C185.321 20.2131 185.529 20.1651 185.753 20.0691C186.265 19.9411 186.761 19.7011 187.241 19.3491C188.105 18.6771 188.873 17.9251 189.545 17.0931L190.553 15.7491L191.513 14.6451C191.705 14.4531 191.833 14.3571 191.897 14.3571C191.961 14.3571 192.025 14.3891 192.089 14.4531C192.185 14.5171 192.265 14.5491 192.329 14.5491C192.585 14.5811 192.729 14.6771 192.761 14.8371ZM183.449 15.0771L183.689 15.0291C184.521 14.6131 185.193 13.9731 185.705 13.1091C185.833 12.7571 185.881 12.4691 185.849 12.2451V12.1011C185.785 11.8451 185.641 11.7651 185.417 11.8611C185.097 11.9571 184.825 12.1171 184.601 12.3411C183.865 12.9491 183.433 13.8131 183.305 14.9331C183.241 15.0291 183.289 15.0771 183.449 15.0771ZM205.679 14.6931C205.679 14.7891 205.615 14.8531 205.487 14.8851L204.911 15.1731C204.623 15.2691 203.855 15.5891 202.607 16.1331C202.127 16.3251 201.327 16.7731 200.207 17.4771C199.919 17.6371 199.727 17.8931 199.631 18.2451C199.311 19.3651 198.719 20.5651 197.855 21.8451C197.375 22.3891 197.071 22.7091 196.943 22.8051C196.687 23.0611 196.399 23.1411 196.079 23.0451L195.359 22.9011C195.135 22.8371 195.007 22.7091 194.975 22.5171C194.943 22.4531 194.927 22.2931 194.927 22.0371C194.927 21.7491 194.975 21.4451 195.071 21.1251C195.135 20.9651 195.359 20.5811 195.743 19.9731C196.511 18.9811 197.231 18.2451 197.903 17.7651C198.095 17.6051 198.239 17.3971 198.335 17.1411C198.623 15.9891 198.767 14.8371 198.767 13.6851C198.767 13.0451 198.719 12.3891 198.623 11.7171C198.559 11.2691 198.463 10.9811 198.335 10.8531C198.207 10.9171 198.031 11.0611 197.807 11.2851C197.519 11.6371 197.231 12.0851 196.943 12.6291C196.783 12.9811 196.607 13.3971 196.415 13.8771C196.223 14.3571 196.111 14.6131 196.079 14.6451C195.567 16.0851 195.023 18.1171 194.447 20.7411C194.223 22.0211 194.031 23.3171 193.871 24.6291C193.871 24.6611 193.839 24.8211 193.775 25.1091C193.743 25.3971 193.711 25.6531 193.679 25.8771C193.583 26.7411 193.423 28.7411 193.199 31.8771C193.135 33.6051 193.103 34.5651 193.103 34.7571L193.055 36.1971V36.7731C193.055 36.9651 192.959 37.0931 192.767 37.1571L191.951 37.3011C191.791 37.3011 191.695 37.2371 191.663 37.1091C191.567 36.9491 191.487 36.6931 191.423 36.3411C191.423 36.2451 191.391 35.7171 191.327 34.7571C191.327 33.0931 191.375 31.4131 191.471 29.7171C191.599 27.1571 191.663 24.9971 191.663 23.2371C191.663 22.1171 191.647 21.3971 191.615 21.0771L191.567 18.9171C191.567 14.8531 191.583 12.2291 191.615 11.0451C191.743 8.13307 191.823 6.26107 191.855 5.42907C191.855 5.33307 191.887 4.99707 191.951 4.42107C192.015 4.26107 192.127 4.19707 192.287 4.22907L192.527 4.32507C192.879 4.42107 193.071 4.62907 193.103 4.94907C193.231 5.94107 193.311 7.18907 193.343 8.69307L193.487 18.7251C193.487 19.1091 193.535 19.4131 193.631 19.6371L193.967 18.0531C194.447 16.0371 195.007 14.2291 195.647 12.6291C195.807 12.2131 196.047 11.7171 196.367 11.1411C196.559 10.8531 196.783 10.5811 197.039 10.3251C197.359 10.0051 197.695 9.89307 198.047 9.98907L199.055 10.1811C199.407 10.2771 199.679 10.5011 199.871 10.8531C200.191 11.4291 200.367 12.0371 200.399 12.6771C200.463 13.8931 200.415 14.8851 200.255 15.6531L200.207 16.1331L200.255 16.2291C200.319 16.2611 200.383 16.2451 200.447 16.1811C200.543 16.1171 200.607 16.0851 200.639 16.0851C201.567 15.6051 202.767 15.1091 204.239 14.5971C204.495 14.5011 204.719 14.4531 204.911 14.4531C204.975 14.4531 205.135 14.4851 205.391 14.5491C205.551 14.5491 205.647 14.5971 205.679 14.6931ZM197.327 19.9731L197.423 19.6371L196.895 20.2611C196.575 20.7091 196.335 21.0931 196.175 21.4131C196.111 21.5731 196.111 21.6851 196.175 21.7491C196.367 21.6531 196.575 21.3971 196.799 20.9811C197.055 20.5651 197.231 20.2291 197.327 19.9731ZM217.562 24.1011L216.17 23.4291C215.978 23.3011 215.706 23.0451 215.354 22.6611C215.098 22.1811 214.906 21.7811 214.778 21.4611C214.33 19.9251 214.106 18.2931 214.106 16.5651C214.106 15.1891 214.122 14.3091 214.154 13.9251C214.186 13.5411 214.234 13.0771 214.298 12.5331C214.394 11.9571 214.442 11.6211 214.442 11.5251L214.49 10.7571L214.442 10.5171C214.218 10.7411 213.978 11.0771 213.722 11.5251C213.338 12.1651 212.826 13.1891 212.186 14.5971L210.218 19.2051C209.674 20.4211 209.018 21.5571 208.25 22.6131C208.154 22.7731 207.898 23.0611 207.482 23.4771C207.258 23.7011 206.986 23.8131 206.666 23.8131C206.442 23.8131 206.234 23.7651 206.042 23.6691C205.178 23.2531 204.65 22.9971 204.458 22.9011C203.882 22.6451 203.466 22.2291 203.21 21.6531C202.922 20.9811 202.778 20.2771 202.778 19.5411C202.778 19.0291 202.842 18.4051 202.97 17.6691C203.226 16.4531 203.546 15.4771 203.93 14.7411C204.858 12.9171 206.058 11.7011 207.53 11.0931C208.138 10.8371 208.65 10.7091 209.066 10.7091C209.61 10.7091 210.202 10.8851 210.842 11.2371L211.754 11.7651C211.946 11.8611 212.058 11.8451 212.09 11.7171L212.426 11.0931C212.874 10.2291 213.242 9.63707 213.53 9.31707L213.818 8.98107C213.978 8.82107 214.122 8.74107 214.25 8.74107C214.378 8.74107 214.506 8.77307 214.634 8.83707C214.698 8.86907 214.826 8.94907 215.018 9.07707C215.242 9.17307 215.434 9.26907 215.594 9.36507C215.818 9.46107 215.978 9.63707 216.074 9.89307C216.202 10.1491 216.266 10.4851 216.266 10.9011L216.314 11.8131C216.314 11.9091 216.282 12.3411 216.218 13.1091L216.122 15.5571C216.058 16.6451 216.026 17.2691 216.026 17.4291C216.026 19.0611 216.266 20.6131 216.746 22.0851C216.778 22.1491 216.81 22.2291 216.842 22.3251C216.874 22.4531 216.906 22.5331 216.938 22.5651C217.034 22.8211 217.146 22.9491 217.274 22.9491H217.322C217.354 22.9171 217.402 22.8851 217.466 22.8531C217.53 22.7891 217.594 22.7411 217.658 22.7091C218.106 22.3251 218.474 21.9251 218.762 21.5091C219.274 20.7731 219.77 19.8611 220.25 18.7731C220.346 18.5491 220.906 17.5411 221.93 15.7491C222.314 15.0131 222.554 14.5971 222.65 14.5011C222.746 14.4051 222.874 14.3891 223.034 14.4531L223.706 14.7891C223.866 14.8531 223.914 14.9651 223.85 15.1251L223.562 15.7971C222.826 17.3651 222.01 19.0451 221.114 20.8371C221.05 20.9971 220.746 21.5251 220.202 22.4211C220.106 22.6451 219.77 23.0451 219.194 23.6211C219.002 23.8131 218.794 23.9571 218.57 24.0531C218.378 24.1491 218.202 24.1971 218.042 24.1971C217.978 24.1971 217.818 24.1651 217.562 24.1011ZM206.09 22.0371L206.378 21.7971C207.082 21.2211 207.738 20.4211 208.346 19.3971C209.114 18.0851 209.722 16.9331 210.17 15.9411L211.562 12.8691C211.594 12.8371 211.61 12.7411 211.61 12.5811C211.61 12.2611 211.434 12.0531 211.082 11.9571C210.794 11.9571 210.602 11.9731 210.506 12.0051C209.802 12.1011 209.146 12.4051 208.538 12.9171C207.258 14.0051 206.426 15.4291 206.042 17.1891C205.914 17.7011 205.818 18.2131 205.754 18.7251C205.658 19.2371 205.61 19.7491 205.61 20.2611C205.61 20.9011 205.674 21.4611 205.802 21.9411C205.834 22.0691 205.93 22.1011 206.09 22.0371Z" fill="black"></path></svg> 