<?xml version="1.0" encoding="UTF-8"?> <svg xmlns="http://www.w3.org/2000/svg" width="298" height="30" viewBox="0 0 298 30" fill="none"><path d="M15.6501 29.6852C14.4768 27.0185 13.2901 24.3652 12.0901 21.7252C10.8901 19.0585 9.71678 16.3652 8.57012 13.6452C8.19678 12.7918 7.82345 11.9385 7.45012 11.0852C7.10345 10.2052 6.75678 9.32515 6.41012 8.44516C6.09012 7.56516 5.75678 6.68516 5.41012 5.80516C5.41012 6.09849 5.39678 6.39182 5.37012 6.68516C5.37012 6.97849 5.37012 7.27182 5.37012 7.56515C5.34345 8.52515 5.30345 9.68516 5.25012 11.0452C5.22345 12.3785 5.18345 13.8185 5.13012 15.3652C5.07678 16.8852 5.03678 18.4185 5.01012 19.9652C4.98345 21.4852 4.95678 22.9252 4.93012 24.2852C4.90345 24.8718 4.87678 25.4585 4.85012 26.0452C4.85012 26.6318 4.82345 27.1785 4.77012 27.6852C5.27678 27.6585 5.77012 27.6318 6.25012 27.6052C6.75678 27.5785 7.26345 27.5518 7.77012 27.5252V29.2852H0.130117V27.9652C0.956784 27.9385 1.55678 27.7652 1.93012 27.4452C2.33012 27.0985 2.58345 26.6452 2.69012 26.0852C2.79678 25.5252 2.86345 24.9252 2.89012 24.2852L3.65012 6.04516C3.67678 5.51182 3.69012 4.97849 3.69012 4.44515C3.71678 3.91182 3.74345 3.39182 3.77012 2.88516C3.29012 2.91182 2.81012 2.93849 2.33012 2.96515C1.85012 2.96515 1.37012 2.97849 0.890117 3.00516V1.28515H7.01012L13.8901 17.1652C14.2368 17.9652 14.5701 18.7652 14.8901 19.5652C15.2368 20.3652 15.5835 21.1652 15.9301 21.9652C16.3035 22.7652 16.6635 23.5785 17.0101 24.4052H17.0901C17.3835 23.6852 17.7301 22.8318 18.1301 21.8452C18.5301 20.8318 18.8635 19.9652 19.1301 19.2452C20.3035 16.3118 21.5168 13.3785 22.7701 10.4452C24.0501 7.48516 25.3035 4.43182 26.5301 1.28515H32.4501V2.60515C31.7835 2.57849 31.2368 2.71182 30.8101 3.00516C30.3835 3.27182 30.0768 3.72516 29.8901 4.36516C29.7035 5.00515 29.6368 5.87182 29.6901 6.96516L30.7301 25.1652C30.7835 25.6185 30.8101 26.0585 30.8101 26.4852C30.8101 26.9118 30.8101 27.2985 30.8101 27.6452C31.2901 27.6185 31.7701 27.6052 32.2501 27.6052C32.7568 27.5785 33.2501 27.5518 33.7301 27.5252V29.2852H24.7701V27.9652C25.5968 27.9385 26.2101 27.7385 26.6101 27.3652C27.0101 26.9918 27.2501 26.4585 27.3301 25.7652C27.4368 25.0718 27.4635 24.2185 27.4101 23.2052L26.6101 10.0052C26.5835 9.57849 26.5568 9.15182 26.5301 8.72516C26.5035 8.29849 26.4768 7.87182 26.4501 7.44516C26.4235 7.01849 26.3968 6.59182 26.3701 6.16516C26.2901 6.35182 26.1968 6.55182 26.0901 6.76516C26.0101 6.97849 25.9301 7.20516 25.8501 7.44516L16.8501 29.6852H15.6501ZM37.2889 29.2852V27.9652C38.2755 27.9385 38.9555 27.7252 39.3289 27.3252C39.7022 26.8985 39.9155 26.3252 39.9689 25.6052C40.0222 24.8585 40.0489 24.0052 40.0489 23.0452V5.76516C40.0489 5.23182 40.0622 4.72515 40.0889 4.24515C40.1155 3.73849 40.1422 3.28515 40.1689 2.88516C39.6889 2.91182 39.2089 2.93849 38.7289 2.96515C38.2489 2.99182 37.7689 3.01849 37.2889 3.04516V1.28515H46.2889V2.60515C45.3022 2.63182 44.6089 2.85849 44.2089 3.28515C43.8355 3.71182 43.6222 4.28516 43.5689 5.00515C43.5422 5.72515 43.5289 6.56515 43.5289 7.52516V13.0052L46.7689 12.8852C48.8222 12.8318 50.5555 12.9918 51.9689 13.3652C53.3822 13.7118 54.5155 14.2452 55.3689 14.9652C56.2222 15.6852 56.8355 16.5385 57.2089 17.5252C57.6089 18.5118 57.8089 19.5918 57.8089 20.7652C57.8089 22.6318 57.4089 24.2052 56.6089 25.4852C55.8089 26.7385 54.7422 27.6852 53.4089 28.3252C52.0755 28.9652 50.5955 29.2852 48.9689 29.2852H37.2889ZM43.4089 27.6852C43.8355 27.7118 44.3422 27.7385 44.9289 27.7652C45.5422 27.7652 46.1022 27.7652 46.6089 27.7652C47.1422 27.7652 47.4889 27.7652 47.6489 27.7652C48.8222 27.7652 49.8889 27.5252 50.8489 27.0452C51.8089 26.5652 52.5689 25.8185 53.1289 24.8052C53.6889 23.7918 53.9689 22.4985 53.9689 20.9252C53.9689 19.2185 53.6489 17.8985 53.0089 16.9652C52.3955 16.0318 51.6089 15.3785 50.6489 15.0052C49.6889 14.6052 48.6889 14.4052 47.6489 14.4052C46.8489 14.4052 46.1155 14.4185 45.4489 14.4452C44.8089 14.4452 44.1689 14.4718 43.5289 14.5252C43.5289 17.1118 43.5289 19.2185 43.5289 20.8452C43.5289 22.4452 43.5155 23.6985 43.4889 24.6052C43.4889 25.4852 43.4755 26.1518 43.4489 26.6052C43.4489 27.0585 43.4355 27.4185 43.4089 27.6852ZM59.8489 29.2852V27.9652C60.8622 27.9118 61.5555 27.6852 61.9289 27.2852C62.3022 26.8585 62.5022 26.2852 62.5289 25.5652C62.5822 24.8185 62.6089 23.9785 62.6089 23.0452V5.76516C62.6089 5.23182 62.6089 4.72515 62.6089 4.24515C62.6355 3.73849 62.6755 3.28515 62.7289 2.88516C62.2489 2.91182 61.7689 2.93849 61.2889 2.96515C60.8089 2.99182 60.3289 3.01849 59.8489 3.04516V1.28515H68.8489V2.60515C67.8622 2.63182 67.1689 2.85849 66.7689 3.28515C66.3955 3.71182 66.1822 4.28516 66.1289 5.00515C66.1022 5.72515 66.0889 6.56515 66.0889 7.52516V24.5252C66.0889 25.2452 66.0755 25.8718 66.0489 26.4052C66.0222 26.9118 65.9822 27.3385 65.9289 27.6852C66.4089 27.6585 66.8889 27.6318 67.3689 27.6052C67.8755 27.5785 68.3689 27.5518 68.8489 27.5252V29.2852H59.8489ZM81.7732 29.2852V27.9652C82.3599 27.9652 82.9199 27.8452 83.4532 27.6052C83.9866 27.3652 84.5599 26.9118 85.1732 26.2452C85.7866 25.5785 86.4932 24.6052 87.2932 23.3252L90.7332 17.6452C91.2399 16.8452 91.7332 16.1918 92.2132 15.6852C92.7199 15.1785 93.3466 14.6985 94.0932 14.2452L90.4532 8.00516C89.5999 6.51182 88.7732 5.40516 87.9732 4.68516C87.1732 3.93849 86.3332 3.43182 85.4532 3.16515C84.5732 2.87182 83.5732 2.68515 82.4532 2.60515V1.28515H91.0532V2.92515C90.6532 2.89849 90.2399 2.88516 89.8132 2.88516C89.4132 2.88516 89.0132 2.87182 88.6132 2.84516C89.1732 3.27182 89.7066 3.80515 90.2132 4.44515C90.7466 5.08516 91.1732 5.67182 91.4932 6.20516L96.0932 14.0852H99.0932V5.76516C99.0932 5.23182 99.0932 4.72515 99.0932 4.24515C99.1199 3.73849 99.1599 3.28515 99.2132 2.88516C98.7332 2.91182 98.2532 2.93849 97.7732 2.96515C97.2932 2.99182 96.8132 3.01849 96.3332 3.04516V1.28515H105.333V2.60515C104.347 2.63182 103.653 2.85849 103.253 3.28515C102.88 3.71182 102.667 4.28516 102.613 5.00515C102.587 5.72515 102.573 6.56515 102.573 7.52516V14.0852H105.573L110.173 6.20516C110.387 5.83182 110.64 5.44516 110.933 5.04516C111.227 4.64515 111.547 4.25849 111.893 3.88515C112.267 3.48515 112.64 3.13849 113.013 2.84516C112.613 2.87182 112.2 2.88516 111.773 2.88516C111.373 2.88516 110.973 2.89849 110.573 2.92515V1.28515H119.173V2.60515C118.053 2.68515 117.053 2.87182 116.173 3.16515C115.293 3.43182 114.453 3.93849 113.653 4.68516C112.88 5.40516 112.067 6.51182 111.213 8.00516L107.573 14.2452C108.347 14.6985 108.96 15.1785 109.413 15.6852C109.893 16.1918 110.387 16.8452 110.893 17.6452L114.373 23.3252C115.173 24.6052 115.88 25.5785 116.493 26.2452C117.107 26.9118 117.68 27.3652 118.213 27.6052C118.773 27.8452 119.333 27.9652 119.893 27.9652V29.2852H115.773C115.507 29.2852 115.133 29.1385 114.653 28.8452C114.2 28.5252 113.693 28.0718 113.133 27.4852C112.6 26.8985 112.067 26.1918 111.533 25.3652L107.533 18.8852C107.16 18.2718 106.787 17.6985 106.413 17.1652C106.04 16.6318 105.547 16.1252 104.933 15.6452L102.573 15.6852V24.5252C102.573 25.2452 102.56 25.8718 102.533 26.4052C102.507 26.9118 102.467 27.3385 102.413 27.6852C102.893 27.6585 103.373 27.6318 103.853 27.6052C104.36 27.5785 104.853 27.5518 105.333 27.5252V29.2852H96.3332V27.9652C97.3466 27.9118 98.0399 27.6852 98.4132 27.2852C98.7866 26.8585 98.9866 26.2852 99.0132 25.5652C99.0666 24.8185 99.0932 23.9785 99.0932 23.0452V15.6852L96.6932 15.6452C96.1066 16.1252 95.6132 16.6318 95.2132 17.1652C94.8399 17.6985 94.4666 18.2718 94.0932 18.8852L90.1732 25.3652C89.6666 26.2185 89.1466 26.9385 88.6132 27.5252C88.0799 28.1118 87.5866 28.5518 87.1332 28.8452C86.6799 29.1385 86.3199 29.2852 86.0532 29.2852H81.7732ZM136.209 18.9252C136.209 17.7518 136.049 16.9118 135.729 16.4052C135.409 15.8985 134.902 15.5918 134.209 15.4852C133.516 15.3785 132.596 15.3518 131.449 15.4052L128.529 15.5252V24.6852C128.529 25.4052 128.516 26.0185 128.489 26.5252C128.489 27.0318 128.462 27.4585 128.409 27.8052L136.049 27.6852C137.222 27.6585 138.236 27.4718 139.089 27.1252C139.942 26.7518 140.609 26.1118 141.089 25.2052C141.569 24.2985 141.809 23.0585 141.809 21.4852H143.169L142.929 29.2852H122.289V27.9652C123.302 27.9118 123.996 27.6852 124.369 27.2852C124.742 26.8585 124.942 26.2852 124.969 25.5652C125.022 24.8185 125.049 23.9785 125.049 23.0452V5.76516C125.049 5.23182 125.062 4.72515 125.089 4.24515C125.116 3.73849 125.142 3.28515 125.169 2.88516C124.689 2.91182 124.209 2.93849 123.729 2.96515C123.249 2.99182 122.769 3.01849 122.289 3.04516V1.28515H141.529L141.729 8.28515H140.409C140.409 6.71182 140.169 5.52515 139.689 4.72516C139.209 3.89849 138.556 3.35182 137.729 3.08516C136.929 2.79182 136.022 2.65849 135.009 2.68516L131.569 2.76515C130.582 2.79182 129.876 2.97849 129.449 3.32515C129.022 3.67182 128.756 4.19182 128.649 4.88516C128.569 5.55182 128.529 6.43182 128.529 7.52516V13.9252L136.049 13.9652L135.769 10.5252H137.529V18.9252H136.209ZM147.172 29.2852V27.9652C148.185 27.9118 148.878 27.6852 149.252 27.2852C149.625 26.8585 149.825 26.2852 149.852 25.5652C149.905 24.8185 149.932 23.9785 149.932 23.0452V5.76516C149.932 5.23182 149.945 4.72515 149.972 4.24515C149.998 3.73849 150.025 3.28515 150.052 2.88516C149.572 2.91182 149.092 2.93849 148.612 2.96515C148.132 2.99182 147.652 3.01849 147.172 3.04516V1.28515H156.172V2.60515C155.185 2.63182 154.492 2.85849 154.092 3.28515C153.718 3.71182 153.505 4.28516 153.452 5.00515C153.425 5.72515 153.412 6.56515 153.412 7.52516V14.1652H167.732V5.76516C167.732 5.23182 167.745 4.72515 167.772 4.24515C167.798 3.73849 167.825 3.28515 167.852 2.88516C167.372 2.91182 166.892 2.93849 166.412 2.96515C165.932 2.99182 165.452 3.01849 164.972 3.04516V1.28515H173.972V2.60515C172.985 2.63182 172.292 2.85849 171.892 3.28515C171.518 3.71182 171.305 4.28516 171.252 5.00515C171.225 5.72515 171.212 6.56515 171.212 7.52516V24.5252C171.212 25.2452 171.198 25.8718 171.172 26.4052C171.172 26.9118 171.145 27.3385 171.092 27.6852C171.572 27.6585 172.052 27.6318 172.532 27.6052C173.012 27.5785 173.492 27.5518 173.972 27.5252V29.2852H164.972V27.9652C165.985 27.9118 166.678 27.6852 167.052 27.2852C167.425 26.8585 167.625 26.2852 167.652 25.5652C167.705 24.8185 167.732 23.9785 167.732 23.0452V15.7652L153.412 15.9252V24.5252C153.412 25.2452 153.398 25.8718 153.372 26.4052C153.372 26.9118 153.345 27.3385 153.292 27.6852C153.772 27.6585 154.252 27.6318 154.732 27.6052C155.212 27.5785 155.692 27.5518 156.172 27.5252V29.2852H147.172ZM187.383 2.60515C186.396 2.63182 185.703 2.85849 185.303 3.28515C184.929 3.71182 184.716 4.28516 184.663 5.00515C184.636 5.72515 184.623 6.56515 184.623 7.52516V24.5252C184.623 25.2452 184.609 25.8718 184.583 26.4052C184.583 26.9118 184.556 27.3385 184.503 27.6852C184.983 27.6585 185.463 27.6318 185.943 27.6052C186.423 27.5785 186.903 27.5518 187.383 27.5252V29.2852H178.383V27.9652C179.396 27.9118 180.089 27.6852 180.463 27.2852C180.836 26.8585 181.036 26.2852 181.063 25.5652C181.116 24.8185 181.143 23.9785 181.143 23.0452V5.76516C181.143 5.23182 181.156 4.72515 181.183 4.24515C181.209 3.73849 181.236 3.28515 181.263 2.88516C180.783 2.91182 180.303 2.93849 179.823 2.96515C179.343 2.99182 178.863 3.01849 178.383 3.04516V1.28515H187.383V2.60515ZM205.583 2.60515C204.596 2.63182 203.903 2.85849 203.503 3.28515C203.129 3.71182 202.916 4.28516 202.863 5.00515C202.836 5.72515 202.823 6.56515 202.823 7.52516V24.5252C202.823 25.2452 202.809 25.8718 202.783 26.4052C202.783 26.9118 202.756 27.3385 202.703 27.6852C203.183 27.6585 203.663 27.6318 204.143 27.6052C204.623 27.5785 205.103 27.5518 205.583 27.5252V29.2852H196.583V27.9652C197.596 27.9118 198.289 27.6852 198.663 27.2852C199.036 26.8585 199.236 26.2852 199.263 25.5652C199.316 24.8185 199.343 23.9785 199.343 23.0452V5.76516C199.343 5.23182 199.356 4.72515 199.383 4.24515C199.409 3.73849 199.436 3.28515 199.463 2.88516C198.983 2.91182 198.503 2.93849 198.023 2.96515C197.543 2.99182 197.063 3.01849 196.583 3.04516V1.28515H205.583V2.60515ZM200.343 3.24516L201.463 4.32516L183.143 27.2052L181.903 26.0452L200.343 3.24516ZM225.064 29.6852C223.891 27.0185 222.704 24.3652 221.504 21.7252C220.304 19.0585 219.131 16.3652 217.984 13.6452C217.611 12.7918 217.238 11.9385 216.864 11.0852C216.518 10.2052 216.171 9.32515 215.824 8.44516C215.504 7.56516 215.171 6.68516 214.824 5.80516C214.824 6.09849 214.811 6.39182 214.784 6.68516C214.784 6.97849 214.784 7.27182 214.784 7.56515C214.758 8.52515 214.718 9.68516 214.664 11.0452C214.638 12.3785 214.598 13.8185 214.544 15.3652C214.491 16.8852 214.451 18.4185 214.424 19.9652C214.398 21.4852 214.371 22.9252 214.344 24.2852C214.318 24.8718 214.291 25.4585 214.264 26.0452C214.264 26.6318 214.238 27.1785 214.184 27.6852C214.691 27.6585 215.184 27.6318 215.664 27.6052C216.171 27.5785 216.678 27.5518 217.184 27.5252V29.2852H209.544V27.9652C210.371 27.9385 210.971 27.7652 211.344 27.4452C211.744 27.0985 211.998 26.6452 212.104 26.0852C212.211 25.5252 212.278 24.9252 212.304 24.2852L213.064 6.04516C213.091 5.51182 213.104 4.97849 213.104 4.44515C213.131 3.91182 213.158 3.39182 213.184 2.88516C212.704 2.91182 212.224 2.93849 211.744 2.96515C211.264 2.96515 210.784 2.97849 210.304 3.00516V1.28515H216.424L223.304 17.1652C223.651 17.9652 223.984 18.7652 224.304 19.5652C224.651 20.3652 224.998 21.1652 225.344 21.9652C225.718 22.7652 226.078 23.5785 226.424 24.4052H226.504C226.798 23.6852 227.144 22.8318 227.544 21.8452C227.944 20.8318 228.278 19.9652 228.544 19.2452C229.718 16.3118 230.931 13.3785 232.184 10.4452C233.464 7.48516 234.718 4.43182 235.944 1.28515H241.864V2.60515C241.198 2.57849 240.651 2.71182 240.224 3.00516C239.798 3.27182 239.491 3.72516 239.304 4.36516C239.118 5.00515 239.051 5.87182 239.104 6.96516L240.144 25.1652C240.198 25.6185 240.224 26.0585 240.224 26.4852C240.224 26.9118 240.224 27.2985 240.224 27.6452C240.704 27.6185 241.184 27.6052 241.664 27.6052C242.171 27.5785 242.664 27.5518 243.144 27.5252V29.2852H234.184V27.9652C235.011 27.9385 235.624 27.7385 236.024 27.3652C236.424 26.9918 236.664 26.4585 236.744 25.7652C236.851 25.0718 236.878 24.2185 236.824 23.2052L236.024 10.0052C235.998 9.57849 235.971 9.15182 235.944 8.72516C235.918 8.29849 235.891 7.87182 235.864 7.44516C235.838 7.01849 235.811 6.59182 235.784 6.16516C235.704 6.35182 235.611 6.55182 235.504 6.76516C235.424 6.97849 235.344 7.20516 235.264 7.44516L226.264 29.6852H225.064ZM268.823 10.2052C268.556 7.69849 267.676 5.75182 266.183 4.36516C264.716 2.97849 262.823 2.28516 260.503 2.28516C259.09 2.28516 257.756 2.59182 256.503 3.20516C255.276 3.79182 254.196 4.64515 253.263 5.76516C252.33 6.88516 251.596 8.23182 251.063 9.80516C250.53 11.3785 250.263 13.1518 250.263 15.1252C250.263 17.6318 250.743 19.8452 251.703 21.7652C252.663 23.6852 253.956 25.1785 255.583 26.2452C257.21 27.3118 259.01 27.8452 260.983 27.8452C262.716 27.8452 264.423 27.4585 266.103 26.6852C267.783 25.8852 269.156 24.7385 270.223 23.2452L271.263 24.0852C270.116 25.6585 268.876 26.8718 267.543 27.7252C266.21 28.5785 264.876 29.1518 263.543 29.4452C262.236 29.7652 261.036 29.9252 259.943 29.9252C257.943 29.9252 256.103 29.5652 254.423 28.8452C252.77 28.1252 251.33 27.1252 250.103 25.8452C248.903 24.5385 247.97 23.0318 247.303 21.3252C246.663 19.5918 246.343 17.7252 246.343 15.7252C246.343 13.8318 246.623 11.9918 247.183 10.2052C247.77 8.41849 248.636 6.80515 249.783 5.36515C250.93 3.92516 252.37 2.77849 254.103 1.92516C255.863 1.07182 257.903 0.645155 260.223 0.645155C261.716 0.645155 263.13 0.845155 264.463 1.24515C265.796 1.64515 267.076 2.25849 268.303 3.08516L268.103 0.925154H270.263V10.2052H268.823ZM273.352 29.2852V27.9652C274.098 27.9652 274.712 27.8318 275.192 27.5652C275.698 27.2718 276.165 26.8452 276.592 26.2852C277.045 25.6985 277.552 24.9918 278.112 24.1652L281.192 19.5252C281.698 18.8052 282.178 18.2452 282.632 17.8452C283.085 17.4452 283.632 17.1518 284.272 16.9652C282.352 16.5118 280.752 15.6185 279.472 14.2852C278.192 12.9252 277.552 11.1118 277.552 8.84515C277.552 7.27182 277.872 5.92515 278.512 4.80515C279.178 3.65849 280.178 2.79182 281.512 2.20515C282.845 1.59182 284.512 1.28515 286.512 1.28515H297.192V2.60515C296.232 2.63182 295.552 2.85849 295.152 3.28515C294.778 3.68515 294.565 4.24515 294.512 4.96515C294.458 5.68515 294.432 6.53849 294.432 7.52516V24.8052C294.432 25.3385 294.418 25.8585 294.392 26.3652C294.392 26.8452 294.365 27.2852 294.312 27.6852L297.192 27.5252V29.2852H288.192V27.9652C289.205 27.9118 289.898 27.6852 290.272 27.2852C290.645 26.8585 290.845 26.2852 290.872 25.5652C290.925 24.8185 290.952 23.9785 290.952 23.0452V17.5652L287.392 17.6052C286.805 17.9518 286.285 18.3652 285.832 18.8452C285.405 19.3252 285.045 19.7918 284.752 20.2452L281.752 24.8452C281.378 25.4318 280.978 26.0318 280.552 26.6452C280.125 27.2585 279.698 27.8052 279.272 28.2852C278.872 28.7385 278.472 29.0718 278.072 29.2852H273.352ZM287.832 16.1252C288.605 16.1252 289.285 16.1118 289.872 16.0852C290.458 16.0585 290.818 16.0318 290.952 16.0052V6.00516C290.952 5.28516 290.965 4.67182 290.992 4.16516C291.018 3.65849 291.045 3.23182 291.072 2.88516C290.458 2.83182 289.872 2.80515 289.312 2.80515C288.778 2.80515 288.285 2.80515 287.832 2.80515C286.605 2.80515 285.498 3.04515 284.512 3.52515C283.525 3.97849 282.738 4.68516 282.152 5.64516C281.592 6.57849 281.312 7.77849 281.312 9.24515C281.312 10.5785 281.605 11.7652 282.192 12.8052C282.778 13.8452 283.565 14.6585 284.552 15.2452C285.538 15.8318 286.632 16.1252 287.832 16.1252Z" fill="#353434"></path></svg> 