<?xml version="1.0" encoding="UTF-8"?> <svg xmlns="http://www.w3.org/2000/svg" width="182" height="148" viewBox="0 0 182 148" fill="none"><path d="M88.2659 57.4672C85.7325 64.8005 83.9992 71.2005 84.3992 71.4672C85.1992 72.4005 92.7992 53.7339 93.7325 48.2672C95.3325 39.7339 92.5325 44.4005 88.2659 57.4672Z" fill="#86110B"></path><path d="M65.8657 57.8673C66.3991 62.8007 67.5991 68.8007 68.6657 71.2007L70.3991 75.334L70.5324 71.734C70.6657 67.8673 66.9324 50.4007 65.7324 49.334C65.3324 48.934 65.3324 52.8007 65.8657 57.8673Z" fill="#86110B"></path><path d="M52 61.2002C52 62.6668 57.2 69.0668 57.3333 67.7335C57.3333 65.8668 54.2667 60.0002 53.0667 60.0002C52.5333 60.0002 52 60.5335 52 61.2002Z" fill="#86110B"></path><path d="M102.666 71.0669C95.8658 78.5336 95.0658 79.7336 99.0658 76.8003C104.132 72.9336 112.799 62.9336 111.732 62.0003C111.466 61.7336 107.332 65.7336 102.666 71.0669Z" fill="#86110B"></path><path d="M111.067 85.8669C107.2 86.5335 104 87.7335 104 88.2669C104 89.3335 109.867 88.6669 117.333 86.6669C123.067 85.2002 118.267 84.5335 111.067 85.8669Z" fill="#86110B"></path><path d="M110.533 97.7336C112.533 100.267 116 100.8 116 98.6669C116 97.8669 115.466 97.3336 114.8 97.3336C114.133 97.3336 112.4 96.9336 111.066 96.4003C108.933 95.6003 108.933 95.7336 110.533 97.7336Z" fill="#86110B"></path></svg> 