<?xml version="1.0" encoding="UTF-8"?> <svg xmlns="http://www.w3.org/2000/svg" width="165" height="53" viewBox="0 0 165 53" fill="none"><path d="M9.46625 1.50219C10.8529 0.622187 12.4529 0.55552 14.2663 1.30219C14.7729 1.51552 15.1596 1.74219 15.4263 1.98219C15.7196 2.19552 15.9729 2.52885 16.1863 2.98219C16.4263 3.40885 16.5729 3.95552 16.6263 4.62219C16.7063 5.26219 16.7729 6.11552 16.8263 7.18219C16.8796 8.22219 16.8663 9.47552 16.7863 10.9422C16.7329 14.1155 16.7329 16.0089 16.7863 16.6222C16.8663 17.2355 17.1063 17.5955 17.5063 17.7022C18.1196 17.8622 18.5729 18.3289 18.8663 19.1022C19.1596 19.8489 19.1729 20.5689 18.9062 21.2622C18.6129 22.0355 18.1996 22.4089 17.6663 22.3822C17.1329 22.3555 16.7863 21.9555 16.6263 21.1822C16.5196 20.6489 16.3196 20.3155 16.0263 20.1822C15.7329 20.0489 14.9329 19.9289 13.6263 19.8222C11.7863 19.6889 9.46625 19.6889 6.66625 19.8222L2.50625 20.0622L2.38625 21.5022C2.30625 22.4355 2.06625 22.9155 1.66625 22.9422C1.29292 22.9689 0.972917 22.5289 0.70625 21.6222C0.46625 20.6889 0.50625 19.9289 0.82625 19.3422C1.14625 18.7289 1.73292 18.3422 2.58625 18.1822C3.22625 18.0755 3.67958 17.8755 3.94625 17.5822C4.21292 17.2622 4.58625 16.4755 5.06625 15.2222C5.49292 14.1822 5.77292 13.2889 5.90625 12.5422C6.06625 11.7955 6.13292 10.8889 6.10625 9.82219C6.07958 7.52885 6.30625 5.76885 6.78625 4.54219C7.29292 3.31552 8.18625 2.30219 9.46625 1.50219ZM13.8663 3.58219C13.5463 3.26219 12.9729 3.06219 12.1463 2.98219C11.3463 2.87552 10.7063 2.94219 10.2263 3.18219C9.55958 3.52885 9.07958 4.18219 8.78625 5.14219C8.49292 6.07552 8.26625 7.67552 8.10625 9.94219C7.89292 12.7955 7.49292 14.7689 6.90625 15.8622C6.31958 17.0355 6.06625 17.6489 6.14625 17.7022C6.22625 17.7555 7.55958 17.7289 10.1463 17.6222L13.9863 17.4622L14.2663 13.7422C14.4529 11.4755 14.4929 9.28885 14.3863 7.18219C14.3063 5.04885 14.1329 3.84885 13.8663 3.58219ZM23.7022 6.50219C24.3155 5.91552 24.8089 5.54219 25.1822 5.38219C25.5822 5.22219 26.2222 5.14219 27.1022 5.14219C29.2889 5.14219 30.9422 5.78219 32.0622 7.06219C32.4355 7.46219 32.7289 7.64885 32.9422 7.62219C33.1555 7.56885 33.6755 7.23552 34.5022 6.62219C34.5555 6.56885 34.5955 6.52885 34.6222 6.50219C37.0489 4.66219 39.1022 4.59552 40.7822 6.30219C42.4089 7.95552 42.3822 10.2222 40.7022 13.1022C39.4755 15.2089 37.8489 17.0355 35.8222 18.5822C33.7955 20.1022 32.2355 20.6622 31.1422 20.2622C30.2355 19.9155 28.8489 18.8355 26.9822 17.0222C25.1422 15.1822 23.9422 13.7289 23.3822 12.6622C22.6622 11.1955 22.3289 10.0089 22.3822 9.10219C22.4355 8.19552 22.8755 7.32885 23.7022 6.50219ZM29.3422 7.62219C28.7289 7.32885 27.9689 7.18219 27.0622 7.18219C26.1822 7.15552 25.5155 7.28885 25.0622 7.58219C24.5822 7.84885 24.3555 8.48885 24.3822 9.50219C24.4089 10.4889 24.6622 11.3955 25.1422 12.2222C25.4622 12.7555 26.6222 13.9155 28.6222 15.7022C30.6222 17.4889 31.8622 18.4755 32.3422 18.6622C32.5555 18.7422 33.6622 17.8089 35.6622 15.8622C38.0889 13.5155 39.4889 11.4889 39.8622 9.78219C40.1289 8.55552 39.6889 7.94219 38.5422 7.94219C37.9022 7.94219 37.2089 8.14219 36.4622 8.54219C35.7155 8.91552 35.0222 9.43552 34.3822 10.1022C33.7155 10.8222 33.1289 11.1555 32.6222 11.1022C32.1422 11.0222 31.6622 10.5289 31.1822 9.62219C30.9689 9.19552 30.6889 8.79552 30.3422 8.42219C29.9955 8.02219 29.6622 7.75552 29.3422 7.62219ZM62.4822 5.10219C63.0955 4.86219 64.0022 4.76885 65.2022 4.82219C66.4289 4.84885 67.3089 4.99552 67.8422 5.26219C68.4289 5.50219 69.0155 6.08885 69.6022 7.02219C69.9222 7.58219 70.0955 8.03552 70.1222 8.38219C70.1755 8.70219 70.0955 9.16885 69.8822 9.78219C69.7489 10.1822 69.5489 10.5689 69.2822 10.9422C69.0155 11.2889 68.7489 11.5155 68.4822 11.6222C68.0555 11.8089 67.8555 11.9555 67.8822 12.0622C67.8822 12.2222 68.2955 12.7155 69.1222 13.5422C69.7622 14.1289 70.1755 14.6222 70.3622 15.0222C70.5755 15.3955 70.6822 15.8889 70.6822 16.5022C70.6822 17.8355 69.9622 18.9555 68.5222 19.8622C67.1089 20.7689 65.2822 21.2489 63.0422 21.3022C62.4022 21.3022 61.9089 21.2489 61.5622 21.1422C61.2422 21.0089 60.9355 20.7555 60.6422 20.3822C60.2955 19.9289 60.0689 19.3155 59.9622 18.5422C59.8822 17.7689 59.8555 15.9822 59.8822 13.1822C59.9355 9.04885 60.1489 6.66219 60.5222 6.02219C60.9222 5.43552 61.2155 5.18219 61.4022 5.26219C61.5889 5.39552 61.9489 5.34219 62.4822 5.10219ZM67.2422 7.78219C66.8955 7.43552 66.2422 7.23552 65.2822 7.18219C64.3489 7.12885 63.5222 7.24885 62.8022 7.54219C62.4022 7.70219 62.1489 7.94219 62.0422 8.26219C61.9355 8.55552 61.8822 9.18219 61.8822 10.1422C61.8822 11.4222 61.9622 12.0755 62.1222 12.1022C62.2022 12.1022 62.4289 11.9955 62.8022 11.7822C63.2822 11.4355 64.1755 11.0222 65.4822 10.5422C66.6822 10.1155 67.4155 9.68885 67.6822 9.26219C67.9755 8.83552 67.8289 8.34219 67.2422 7.78219ZM68.0022 15.1022C67.6022 14.7555 66.4689 14.5022 64.6022 14.3422L61.8822 14.1422V16.1422C61.8822 17.6355 62.0289 18.5289 62.3222 18.8222C62.6422 19.0889 63.4555 19.0755 64.7622 18.7822C67.1355 18.2755 68.4422 17.5289 68.6822 16.5422C68.8155 16.0622 68.5889 15.5822 68.0022 15.1022ZM78.8247 6.94219C79.678 6.54219 80.358 6.34219 80.8647 6.34219C81.478 6.34219 82.118 6.64885 82.7847 7.26219C83.478 7.84885 83.8247 8.40885 83.8247 8.94219C83.8247 9.52885 83.6247 9.90219 83.2247 10.0622C82.8247 10.2222 82.4914 10.0489 82.2247 9.54219C81.718 8.63552 80.9047 8.46219 79.7847 9.02219C78.6914 9.58219 77.7714 10.6222 77.0247 12.1422C76.4914 13.2355 76.2647 14.3955 76.3447 15.6222C76.4514 16.8222 76.8114 17.5955 77.4247 17.9422C77.958 18.2355 79.038 18.3689 80.6647 18.3422C82.2914 18.3155 83.3314 18.1555 83.7847 17.8622C84.2647 17.5689 84.718 17.5155 85.1447 17.7022C85.598 17.8622 85.8247 18.1955 85.8247 18.7022C85.8247 20.3289 83.3714 21.0355 78.4647 20.8222C77.4514 20.7689 76.5047 20.3155 75.6247 19.4622C74.7714 18.6089 74.238 17.6089 74.0247 16.4622C73.758 14.7555 74.1047 12.9422 75.0647 11.0222C76.0247 9.07552 77.278 7.71552 78.8247 6.94219ZM96.4609 7.10219C96.7009 6.86219 96.9276 6.75552 97.1409 6.78219C97.3543 6.78219 97.4609 6.90219 97.4609 7.14219C97.4609 7.40885 98.2476 7.54219 99.8209 7.54219C101.021 7.54219 101.888 7.70219 102.421 8.02219C102.981 8.31552 103.154 8.74219 102.941 9.30219C102.861 9.51552 102.634 9.64885 102.261 9.70219C101.888 9.75552 101.234 9.74219 100.301 9.66219L97.9009 9.42219L97.7809 14.5822C97.7009 17.0622 97.6209 18.5555 97.5409 19.0622C97.4609 19.5422 97.2076 19.8089 96.7809 19.8622C96.4609 19.9155 96.2076 19.8755 96.0209 19.7422C95.8609 19.5822 95.7276 19.2889 95.6209 18.8622C95.5409 18.4089 95.5009 17.7689 95.5009 16.9422C95.5009 16.1155 95.5143 15.0489 95.5409 13.7422L95.7009 9.46219L93.7409 9.74219C92.7009 9.84885 91.6609 10.0089 90.6209 10.2222C89.8743 10.3555 89.4076 10.2089 89.2209 9.78219C89.0076 9.24885 89.1276 8.86219 89.5809 8.62219C90.0343 8.38219 91.1276 8.14219 92.8609 7.90219C94.9676 7.60885 96.1676 7.34219 96.4609 7.10219ZM110.408 6.54219C110.995 6.11552 112.155 5.94219 113.888 6.02219C115.008 6.10219 115.768 6.22219 116.168 6.38219C116.595 6.54219 117.062 6.90219 117.568 7.46219C118.075 8.04885 118.395 8.55552 118.528 8.98219C118.662 9.40885 118.728 10.1955 118.728 11.3422C118.728 13.9022 118.128 15.8489 116.928 17.1822C115.728 18.4889 113.995 19.1422 111.728 19.1422H109.928V21.3022C109.928 22.6355 109.835 23.5422 109.648 24.0222C109.488 24.5022 109.182 24.7422 108.728 24.7422C108.248 24.7422 107.928 24.4889 107.768 23.9822C107.608 23.4755 107.528 22.4622 107.528 20.9422C107.528 19.3155 107.328 18.3155 106.928 17.9422C106.448 17.5689 106.235 16.9422 106.288 16.0622C106.315 15.5022 106.475 15.2222 106.768 15.2222C106.795 15.2489 106.835 15.2622 106.888 15.2622C107.288 15.4222 107.582 14.5822 107.768 12.7422C107.875 11.8889 107.928 10.9022 107.928 9.78219C107.928 7.70219 108.235 6.71552 108.848 6.82219C108.928 6.82219 109.008 6.84885 109.088 6.90219C109.382 7.08885 109.822 6.96885 110.408 6.54219ZM115.448 8.58219C114.728 8.07552 113.862 7.86219 112.848 7.94219C111.862 8.02219 111.088 8.35552 110.528 8.94219C110.048 9.36885 109.755 9.82219 109.648 10.3022C109.568 10.7555 109.528 11.7689 109.528 13.3422V16.7422H111.088C112.955 16.7422 114.288 16.3155 115.088 15.4622C115.915 14.6089 116.328 13.1822 116.328 11.1822C116.328 10.3822 116.262 9.80885 116.128 9.46219C116.022 9.11552 115.795 8.82219 115.448 8.58219ZM127.232 7.42219C129.392 6.35552 131.232 6.47552 132.752 7.78219C133.525 8.42219 133.938 9.16885 133.992 10.0222C134.072 10.8755 133.778 11.6089 133.112 12.2222C132.712 12.5955 131.765 13.0489 130.272 13.5822C128.778 14.0889 127.192 14.5289 125.512 14.9022C125.058 15.0089 124.752 15.1555 124.592 15.3422C124.458 15.5289 124.392 15.8622 124.392 16.3422C124.392 16.8755 124.458 17.2089 124.592 17.3422C124.752 17.4755 125.125 17.5422 125.712 17.5422C126.645 17.5422 128.072 17.3555 129.992 16.9822C131.512 16.6889 132.552 16.5955 133.112 16.7022C133.698 16.8089 133.992 17.1689 133.992 17.7822C133.992 18.5555 131.778 19.0889 127.352 19.3822C125.112 19.5422 123.658 19.4889 122.992 19.2222C122.325 18.9289 121.992 18.2489 121.992 17.1822C121.992 15.3689 122.525 13.4622 123.592 11.4622C124.685 9.43552 125.898 8.08885 127.232 7.42219ZM131.512 9.22219C130.952 8.66219 129.965 8.68885 128.552 9.30219C127.965 9.56885 127.285 10.1289 126.512 10.9822C125.765 11.8355 125.498 12.3689 125.712 12.5822C125.818 12.7155 126.538 12.6222 127.872 12.3022C129.205 11.9555 130.218 11.6089 130.912 11.2622C132.085 10.6489 132.285 9.96885 131.512 9.22219ZM137.824 6.62219C138.064 6.19552 138.477 6.26219 139.064 6.82219C139.384 7.14219 139.544 7.92885 139.544 9.18219C139.544 10.3289 139.797 11.1422 140.304 11.6222C140.811 12.1022 141.677 12.3422 142.904 12.3422C143.784 12.3422 144.504 12.1422 145.064 11.7422C145.651 11.3422 145.944 10.8222 145.944 10.1822C145.944 9.46219 146.037 8.84885 146.224 8.34219C146.437 7.83552 146.704 7.51552 147.024 7.38219C147.317 7.30219 147.557 7.28885 147.744 7.34219C147.957 7.39552 148.131 7.62219 148.264 8.02219C148.424 8.42219 148.557 8.95552 148.664 9.62219C148.771 10.2622 148.864 11.1422 148.944 12.2622C149.184 15.8889 149.291 18.1022 149.264 18.9022C149.237 19.7022 149.024 20.2355 148.624 20.5022C147.771 21.0089 147.157 20.4089 146.784 18.7022C146.677 18.2222 146.597 17.6355 146.544 16.9422L146.264 14.4222L143.784 14.6222C142.104 14.7555 140.784 14.6089 139.824 14.1822C138.891 13.7555 138.197 12.9822 137.744 11.8622C137.424 11.1155 137.277 10.1955 137.304 9.10219C137.331 7.98219 137.504 7.15552 137.824 6.62219ZM162.498 7.26219C163.218 6.40885 163.738 6.91552 164.058 8.78219C164.325 10.3022 164.458 12.7155 164.458 16.0222C164.458 17.6489 164.418 18.7289 164.338 19.2622C164.258 19.7955 164.085 20.1155 163.818 20.2222C163.285 20.4355 162.845 20.2755 162.498 19.7422C162.178 19.1822 162.005 18.3422 161.978 17.2222C161.898 15.7555 161.725 15.0755 161.458 15.1822C161.352 15.2089 161.245 15.3822 161.138 15.7022C160.978 16.1022 159.858 16.9822 157.778 18.3422C155.725 19.6755 154.472 20.3422 154.018 20.3422C153.325 20.3422 152.885 19.8489 152.698 18.8622C152.512 17.8489 152.498 15.8755 152.658 12.9422C152.792 10.7555 152.912 9.28885 153.018 8.54219C153.125 7.76885 153.298 7.34219 153.538 7.26219C153.805 7.15552 154.018 7.16885 154.178 7.30219C154.365 7.40885 154.498 7.68885 154.578 8.14219C154.685 8.56885 154.752 9.15552 154.778 9.90219C154.805 10.6222 154.805 11.6089 154.778 12.8622C154.672 15.9822 154.685 17.5422 154.818 17.5422C155.032 17.5422 155.858 17.0622 157.298 16.1022C158.738 15.1155 159.738 14.3555 160.298 13.8222C160.832 13.3422 161.192 12.8755 161.378 12.4222C161.592 11.9689 161.752 11.2355 161.858 10.2222C161.992 8.64885 162.205 7.66219 162.498 7.26219ZM18.4978 30.1022C19.1111 29.8622 20.0178 29.7689 21.2178 29.8222C22.4445 29.8489 23.3245 29.9955 23.8578 30.2622C24.4445 30.5022 25.0311 31.0889 25.6178 32.0222C25.9378 32.5822 26.1111 33.0355 26.1378 33.3822C26.1911 33.7022 26.1111 34.1689 25.8978 34.7822C25.7645 35.1822 25.5645 35.5689 25.2978 35.9422C25.0311 36.2889 24.7645 36.5155 24.4978 36.6222C24.0711 36.8089 23.8711 36.9555 23.8978 37.0622C23.8978 37.2222 24.3111 37.7155 25.1378 38.5422C25.7778 39.1289 26.1911 39.6222 26.3778 40.0222C26.5911 40.3955 26.6978 40.8889 26.6978 41.5022C26.6978 42.8355 25.9778 43.9555 24.5378 44.8622C23.1245 45.7689 21.2978 46.2489 19.0578 46.3022C18.4178 46.3022 17.9245 46.2489 17.5778 46.1422C17.2578 46.0089 16.9511 45.7555 16.6578 45.3822C16.3111 44.9289 16.0845 44.3155 15.9778 43.5422C15.8978 42.7689 15.8711 40.9822 15.8978 38.1822C15.9511 34.0489 16.1645 31.6622 16.5378 31.0222C16.9378 30.4355 17.2311 30.1822 17.4178 30.2622C17.6045 30.3955 17.9645 30.3422 18.4978 30.1022ZM23.2578 32.7822C22.9111 32.4355 22.2578 32.2355 21.2978 32.1822C20.3645 32.1289 19.5378 32.2489 18.8178 32.5422C18.4178 32.7022 18.1645 32.9422 18.0578 33.2622C17.9511 33.5555 17.8978 34.1822 17.8978 35.1422C17.8978 36.4222 17.9778 37.0755 18.1378 37.1022C18.2178 37.1022 18.4445 36.9955 18.8178 36.7822C19.2978 36.4355 20.1911 36.0222 21.4978 35.5422C22.6978 35.1155 23.4311 34.6889 23.6978 34.2622C23.9911 33.8355 23.8445 33.3422 23.2578 32.7822ZM24.0178 40.1022C23.6178 39.7555 22.4845 39.5022 20.6178 39.3422L17.8978 39.1422V41.1422C17.8978 42.6355 18.0445 43.5289 18.3378 43.8222C18.6578 44.0889 19.4711 44.0755 20.7778 43.7822C23.1511 43.2755 24.4578 42.5289 24.6978 41.5422C24.8311 41.0622 24.6045 40.5822 24.0178 40.1022ZM50.2897 32.1422C51.143 31.8755 52.3297 31.7955 53.8497 31.9022C54.783 31.9555 55.463 32.0622 55.8897 32.2222C56.343 32.3555 56.7964 32.6355 57.2497 33.0622C57.7564 33.5689 58.063 34.1022 58.1697 34.6622C58.303 35.1955 58.423 36.5155 58.5297 38.6222C58.6097 40.3555 58.7164 41.6355 58.8497 42.4622C59.0097 43.2889 59.2364 43.9422 59.5297 44.4222C59.8764 45.0355 60.0497 45.4489 60.0497 45.6622C60.0764 45.8489 59.943 46.0889 59.6497 46.3822C58.743 47.3155 57.823 46.7955 56.8897 44.8222L56.0097 43.0622L53.6097 43.8222C52.0364 44.2755 50.463 44.6089 48.8897 44.8222C47.8497 44.9289 47.1564 44.9422 46.8097 44.8622C46.463 44.7555 46.0497 44.4755 45.5697 44.0222C44.9564 43.4089 44.623 42.7955 44.5697 42.1822C44.543 41.5422 44.7964 40.7822 45.3297 39.9022C46.4497 38.1155 48.9564 37.0489 52.8497 36.7022C53.4364 36.6755 53.983 36.6222 54.4897 36.5422C54.9964 36.4622 55.3964 36.3955 55.6897 36.3422C55.983 36.2622 56.1297 36.1955 56.1297 36.1422C56.1297 35.9022 55.8764 35.4889 55.3697 34.9022C55.0497 34.5022 54.703 34.2489 54.3297 34.1422C53.983 34.0355 53.343 33.9955 52.4097 34.0222C50.8364 34.0755 49.823 34.2489 49.3697 34.5422C49.023 34.7289 48.783 34.8089 48.6497 34.7822C48.5164 34.7555 48.3964 34.6089 48.2897 34.3422C48.1297 33.9155 48.223 33.5022 48.5697 33.1022C48.943 32.7022 49.5164 32.3822 50.2897 32.1422ZM55.9697 38.7822C56.103 38.4355 56.023 38.2489 55.7297 38.2222C55.383 38.1955 54.2764 38.3155 52.4097 38.5822C50.783 38.8489 49.663 39.1289 49.0497 39.4222C48.383 39.7422 47.7697 40.2622 47.2097 40.9822C46.6764 41.7022 46.503 42.2089 46.6897 42.5022C46.903 42.8489 47.503 42.9955 48.4897 42.9422C49.503 42.8622 50.6497 42.5955 51.9297 42.1422C53.4764 41.6089 54.503 41.3422 55.0097 41.3422C55.4897 41.3422 55.7297 41.0222 55.7297 40.3822C55.7297 39.7955 55.8097 39.2622 55.9697 38.7822ZM65.9588 30.1022C66.5721 29.8622 67.4788 29.7689 68.6788 29.8222C69.9054 29.8489 70.7854 29.9955 71.3188 30.2622C71.9054 30.5022 72.4921 31.0889 73.0788 32.0222C73.3988 32.5822 73.5721 33.0355 73.5988 33.3822C73.6521 33.7022 73.5721 34.1689 73.3588 34.7822C73.2254 35.1822 73.0254 35.5689 72.7588 35.9422C72.4921 36.2889 72.2254 36.5155 71.9588 36.6222C71.5321 36.8089 71.3321 36.9555 71.3588 37.0622C71.3588 37.2222 71.7721 37.7155 72.5988 38.5422C73.2388 39.1289 73.6521 39.6222 73.8388 40.0222C74.0521 40.3955 74.1588 40.8889 74.1588 41.5022C74.1588 42.8355 73.4388 43.9555 71.9987 44.8622C70.5854 45.7689 68.7588 46.2489 66.5188 46.3022C65.8788 46.3022 65.3854 46.2489 65.0388 46.1422C64.7188 46.0089 64.4121 45.7555 64.1188 45.3822C63.7721 44.9289 63.5454 44.3155 63.4388 43.5422C63.3588 42.7689 63.3321 40.9822 63.3588 38.1822C63.4121 34.0489 63.6254 31.6622 63.9988 31.0222C64.3988 30.4355 64.6921 30.1822 64.8788 30.2622C65.0654 30.3955 65.4254 30.3422 65.9588 30.1022ZM70.7188 32.7822C70.3721 32.4355 69.7188 32.2355 68.7588 32.1822C67.8254 32.1289 66.9988 32.2489 66.2788 32.5422C65.8788 32.7022 65.6254 32.9422 65.5188 33.2622C65.4121 33.5555 65.3588 34.1822 65.3588 35.1422C65.3588 36.4222 65.4388 37.0755 65.5988 37.1022C65.6788 37.1022 65.9054 36.9955 66.2788 36.7822C66.7588 36.4355 67.6521 36.0222 68.9588 35.5422C70.1588 35.1155 70.8921 34.6889 71.1588 34.2622C71.4521 33.8355 71.3054 33.3422 70.7188 32.7822ZM71.4788 40.1022C71.0788 39.7555 69.9454 39.5022 68.0788 39.3422L65.3588 39.1422V41.1422C65.3588 42.6355 65.5054 43.5289 65.7988 43.8222C66.1188 44.0889 66.9321 44.0755 68.2388 43.7822C70.6121 43.2755 71.9188 42.5289 72.1588 41.5422C72.2921 41.0622 72.0654 40.5822 71.4788 40.1022ZM79.9413 31.7422C80.4746 31.5022 81.5013 31.3822 83.0213 31.3822C84.2213 31.3555 85.1413 31.5022 85.7812 31.8222C86.4479 32.1422 86.6746 32.5555 86.4613 33.0622C86.3546 33.3022 86.1146 33.4622 85.7413 33.5422C85.3679 33.6222 84.6879 33.6489 83.7013 33.6222C82.0213 33.5689 80.8746 33.7289 80.2613 34.1022C79.7813 34.3689 79.5146 34.7422 79.4613 35.2222C79.4079 35.6755 79.4479 37.1689 79.5813 39.7022C79.7946 43.0889 79.7279 44.9022 79.3813 45.1422C78.7146 45.5689 78.2346 45.1022 77.9413 43.7422C77.7546 42.7822 77.6213 41.3022 77.5413 39.3022C77.4346 36.9289 77.4079 35.4622 77.4613 34.9022C77.5146 34.3155 77.7546 33.7555 78.1813 33.2222C78.8479 32.3955 79.4346 31.9022 79.9413 31.7422ZM91.3641 33.3822C91.6841 32.7955 92.0574 32.9022 92.4841 33.7022C92.6707 34.0489 92.8974 34.5422 93.1641 35.1822C93.5641 36.1689 94.2707 37.4355 95.2841 38.9822C96.2974 40.5289 96.9241 41.3155 97.1641 41.3422C97.2707 41.3422 97.6441 40.1155 98.2841 37.6622C99.0307 34.6222 99.7107 33.0889 100.324 33.0622C100.511 33.0355 100.737 33.1555 101.004 33.4222C101.271 33.6889 101.404 33.9555 101.404 34.2222C101.431 34.4622 101.364 34.8489 101.204 35.3822C100.911 36.3155 100.497 38.0622 99.9641 40.6222C99.5107 42.9422 99.0707 44.6222 98.6441 45.6622C98.2441 46.6755 97.6707 47.5955 96.9241 48.4222C96.0441 49.3289 95.0174 50.1689 93.8441 50.9422C92.6707 51.7422 91.8441 52.1422 91.3641 52.1422C90.6707 52.1422 90.1907 51.9422 89.9241 51.5422C89.6841 51.1689 89.7641 50.7822 90.1641 50.3822C90.5907 49.9555 90.9907 49.7422 91.3641 49.7422C91.7641 49.7422 92.6974 49.0489 94.1641 47.6622C95.6307 46.2489 96.3641 45.3555 96.3641 44.9822C96.3641 44.4755 95.8441 43.5155 94.8041 42.1022C93.4707 40.2355 92.4707 38.4622 91.8041 36.7822C91.1374 35.1022 90.9907 33.9689 91.3641 33.3822ZM109.606 31.9422C110.459 31.5422 111.139 31.3422 111.646 31.3422C112.259 31.3422 112.899 31.6489 113.566 32.2622C114.259 32.8489 114.606 33.4089 114.606 33.9422C114.606 34.5289 114.406 34.9022 114.006 35.0622C113.606 35.2222 113.273 35.0489 113.006 34.5422C112.499 33.6355 111.686 33.4622 110.566 34.0222C109.473 34.5822 108.553 35.6222 107.806 37.1422C107.273 38.2355 107.046 39.3955 107.126 40.6222C107.233 41.8222 107.593 42.5955 108.206 42.9422C108.739 43.2355 109.819 43.3689 111.446 43.3422C113.073 43.3155 114.113 43.1555 114.566 42.8622C115.046 42.5689 115.499 42.5155 115.926 42.7022C116.379 42.8622 116.606 43.1955 116.606 43.7022C116.606 45.3289 114.153 46.0355 109.246 45.8222C108.233 45.7689 107.286 45.3155 106.406 44.4622C105.553 43.6089 105.019 42.6089 104.806 41.4622C104.539 39.7555 104.886 37.9422 105.846 36.0222C106.806 34.0755 108.059 32.7155 109.606 31.9422ZM127.242 32.1022C127.482 31.8622 127.709 31.7555 127.922 31.7822C128.136 31.7822 128.242 31.9022 128.242 32.1422C128.242 32.4089 129.029 32.5422 130.602 32.5422C131.802 32.5422 132.669 32.7022 133.202 33.0222C133.762 33.3155 133.936 33.7422 133.722 34.3022C133.642 34.5155 133.416 34.6489 133.042 34.7022C132.669 34.7555 132.016 34.7422 131.082 34.6622L128.682 34.4222L128.562 39.5822C128.482 42.0622 128.402 43.5555 128.322 44.0622C128.242 44.5422 127.989 44.8089 127.562 44.8622C127.242 44.9155 126.989 44.8755 126.802 44.7422C126.642 44.5822 126.509 44.2889 126.402 43.8622C126.322 43.4089 126.282 42.7689 126.282 41.9422C126.282 41.1155 126.296 40.0489 126.322 38.7422L126.482 34.4622L124.522 34.7422C123.482 34.8489 122.442 35.0089 121.402 35.2222C120.656 35.3555 120.189 35.2089 120.002 34.7822C119.789 34.2489 119.909 33.8622 120.362 33.6222C120.816 33.3822 121.909 33.1422 123.642 32.9022C125.749 32.6089 126.949 32.3422 127.242 32.1022ZM142.31 32.4222C144.47 31.3555 146.31 31.4755 147.83 32.7822C148.603 33.4222 149.016 34.1689 149.07 35.0222C149.15 35.8755 148.856 36.6089 148.19 37.2222C147.79 37.5955 146.843 38.0489 145.35 38.5822C143.856 39.0889 142.27 39.5289 140.59 39.9022C140.136 40.0089 139.83 40.1555 139.67 40.3422C139.536 40.5289 139.47 40.8622 139.47 41.3422C139.47 41.8755 139.536 42.2089 139.67 42.3422C139.83 42.4755 140.203 42.5422 140.79 42.5422C141.723 42.5422 143.15 42.3555 145.07 41.9822C146.59 41.6889 147.63 41.5955 148.19 41.7022C148.776 41.8089 149.07 42.1689 149.07 42.7822C149.07 43.5555 146.856 44.0889 142.43 44.3822C140.19 44.5422 138.736 44.4889 138.07 44.2222C137.403 43.9289 137.07 43.2489 137.07 42.1822C137.07 40.3689 137.603 38.4622 138.67 36.4622C139.763 34.4355 140.976 33.0889 142.31 32.4222ZM146.59 34.2222C146.03 33.6622 145.043 33.6889 143.63 34.3022C143.043 34.5689 142.363 35.1289 141.59 35.9822C140.843 36.8355 140.576 37.3689 140.79 37.5822C140.896 37.7155 141.616 37.6222 142.95 37.3022C144.283 36.9555 145.296 36.6089 145.99 36.2622C147.163 35.6489 147.363 34.9689 146.59 34.2222Z" fill="#253758"></path></svg> 