<?xml version="1.0" encoding="UTF-8"?> <svg xmlns="http://www.w3.org/2000/svg" width="210" height="22" viewBox="0 0 210 22" fill="none"><path d="M2.96914 3.68734C3.23581 3.31401 3.63581 3.12734 4.16914 3.12734C4.59581 3.12734 4.95581 3.34068 5.24914 3.76734C5.56914 4.19401 5.91581 4.95401 6.28914 6.04734C6.66247 7.14068 7.18247 8.90068 7.84914 11.3273C8.11581 12.314 8.30247 12.8073 8.40914 12.8073C8.62247 12.8073 9.15581 11.6207 10.0091 9.24734C10.0625 9.11401 10.2491 8.60734 10.5691 7.72734C11.4491 5.27401 12.0358 3.90068 12.3291 3.60734C12.6491 3.23401 13.0225 3.15401 13.4491 3.36734C13.8758 3.58068 14.2225 4.00734 14.4891 4.64734C14.6758 5.18068 14.9558 6.46068 15.3291 8.48734C15.7291 10.514 16.0625 12.4873 16.3291 14.4073C16.4625 15.4207 16.4091 16.2607 16.1691 16.9273C15.9558 17.594 15.6091 17.9273 15.1291 17.9273C14.6758 17.9273 14.3291 17.6207 14.0891 17.0073C13.8758 16.3673 13.7025 15.274 13.5691 13.7273C13.3025 11.2207 13.1291 9.68734 13.0491 9.12734L12.8491 7.32734L11.8891 10.5273C10.9291 13.8607 9.68914 15.5273 8.16914 15.5273C7.42247 15.5273 6.84914 15.2073 6.44914 14.5673C6.07581 13.9007 5.68914 12.554 5.28914 10.5273C4.72914 7.75401 4.39581 6.22068 4.28914 5.92734C4.02247 5.28734 3.74247 5.76734 3.44914 7.36734C3.23581 8.48734 3.02247 10.1007 2.80914 12.2073C2.72914 13.0873 2.63581 13.914 2.52914 14.6873C2.42247 15.434 2.32914 16.034 2.24914 16.4873C2.16914 16.914 2.10247 17.1273 2.04914 17.1273C1.67581 17.1273 1.38247 16.634 1.16914 15.6473C0.982474 14.6607 0.955807 13.554 1.08914 12.3273C1.24914 10.5673 1.52914 8.78068 1.92914 6.96734C2.32914 5.12734 2.67581 4.03401 2.96914 3.68734ZM24.882 4.20734C27.042 3.14068 28.882 3.26068 30.402 4.56734C31.1753 5.20734 31.5886 5.95401 31.642 6.80734C31.722 7.66068 31.4286 8.39401 30.762 9.00734C30.362 9.38068 29.4153 9.83401 27.922 10.3673C26.4286 10.874 24.842 11.314 23.162 11.6873C22.7086 11.794 22.402 11.9407 22.242 12.1273C22.1086 12.314 22.042 12.6473 22.042 13.1273C22.042 13.6607 22.1086 13.994 22.242 14.1273C22.402 14.2607 22.7753 14.3273 23.362 14.3273C24.2953 14.3273 25.722 14.1407 27.642 13.7673C29.162 13.474 30.202 13.3807 30.762 13.4873C31.3486 13.594 31.642 13.954 31.642 14.5673C31.642 15.3407 29.4286 15.874 25.002 16.1673C22.762 16.3273 21.3086 16.274 20.642 16.0073C19.9753 15.714 19.642 15.034 19.642 13.9673C19.642 12.154 20.1753 10.2473 21.242 8.24734C22.3353 6.22068 23.5486 4.87401 24.882 4.20734ZM29.162 6.00734C28.602 5.44734 27.6153 5.47401 26.202 6.08734C25.6153 6.35401 24.9353 6.91401 24.162 7.76734C23.4153 8.62068 23.1486 9.15401 23.362 9.36734C23.4686 9.50068 24.1886 9.40734 25.522 9.08734C26.8553 8.74068 27.8686 8.39401 28.562 8.04734C29.7353 7.43401 29.9353 6.75401 29.162 6.00734ZM39.8345 3.72734C40.6878 3.32734 41.3678 3.12734 41.8745 3.12734C42.4878 3.12734 43.1278 3.43401 43.7945 4.04734C44.4878 4.63401 44.8345 5.19401 44.8345 5.72734C44.8345 6.31401 44.6345 6.68734 44.2345 6.84734C43.8345 7.00734 43.5011 6.83401 43.2345 6.32734C42.7278 5.42068 41.9145 5.24734 40.7945 5.80734C39.7011 6.36734 38.7811 7.40734 38.0345 8.92734C37.5011 10.0207 37.2745 11.1807 37.3545 12.4073C37.4611 13.6073 37.8211 14.3807 38.4345 14.7273C38.9678 15.0207 40.0478 15.154 41.6745 15.1273C43.3011 15.1007 44.3411 14.9407 44.7945 14.6473C45.2745 14.354 45.7278 14.3007 46.1545 14.4873C46.6078 14.6473 46.8345 14.9807 46.8345 15.4873C46.8345 17.114 44.3811 17.8207 39.4745 17.6073C38.4611 17.554 37.5145 17.1007 36.6345 16.2473C35.7811 15.394 35.2478 14.394 35.0345 13.2473C34.7678 11.5407 35.1145 9.72734 36.0745 7.80734C37.0345 5.86068 38.2878 4.50068 39.8345 3.72734ZM57.4707 3.88734C57.7107 3.64734 57.9374 3.54068 58.1507 3.56734C58.364 3.56734 58.4707 3.68734 58.4707 3.92734C58.4707 4.19401 59.2574 4.32734 60.8307 4.32734C62.0307 4.32734 62.8974 4.48734 63.4307 4.80734C63.9907 5.10068 64.164 5.52734 63.9507 6.08734C63.8707 6.30068 63.644 6.43401 63.2707 6.48734C62.8974 6.54068 62.244 6.52734 61.3107 6.44734L58.9107 6.20734L58.7907 11.3673C58.7107 13.8473 58.6307 15.3407 58.5507 15.8473C58.4707 16.3273 58.2174 16.594 57.7907 16.6473C57.4707 16.7007 57.2174 16.6607 57.0307 16.5273C56.8707 16.3673 56.7374 16.074 56.6307 15.6473C56.5507 15.194 56.5107 14.554 56.5107 13.7273C56.5107 12.9007 56.524 11.834 56.5507 10.5273L56.7107 6.24734L54.7507 6.52734C53.7107 6.63401 52.6707 6.79401 51.6307 7.00734C50.884 7.14068 50.4174 6.99401 50.2307 6.56734C50.0174 6.03401 50.1374 5.64734 50.5907 5.40734C51.044 5.16734 52.1374 4.92734 53.8707 4.68734C55.9774 4.39401 57.1774 4.12734 57.4707 3.88734ZM68.6182 3.28734C69.2315 2.70068 69.7249 2.32734 70.0982 2.16734C70.4982 2.00734 71.1382 1.92734 72.0182 1.92734C74.2049 1.92734 75.8582 2.56734 76.9782 3.84734C77.3515 4.24734 77.6449 4.43401 77.8582 4.40734C78.0715 4.35401 78.5915 4.02068 79.4182 3.40734C79.4715 3.35401 79.5115 3.31401 79.5382 3.28734C81.9649 1.44734 84.0182 1.38068 85.6982 3.08734C87.3249 4.74068 87.2982 7.00734 85.6182 9.88734C84.3915 11.994 82.7649 13.8207 80.7382 15.3673C78.7115 16.8873 77.1515 17.4473 76.0582 17.0473C75.1515 16.7007 73.7649 15.6207 71.8982 13.8073C70.0582 11.9673 68.8582 10.514 68.2982 9.44734C67.5782 7.98068 67.2449 6.79401 67.2982 5.88734C67.3515 4.98068 67.7915 4.11401 68.6182 3.28734ZM74.2582 4.40734C73.6449 4.11401 72.8849 3.96734 71.9782 3.96734C71.0982 3.94068 70.4315 4.07401 69.9782 4.36734C69.4982 4.63401 69.2715 5.27401 69.2982 6.28734C69.3249 7.27401 69.5782 8.18068 70.0582 9.00734C70.3782 9.54068 71.5382 10.7007 73.5382 12.4873C75.5382 14.274 76.7782 15.2607 77.2582 15.4473C77.4715 15.5273 78.5782 14.594 80.5782 12.6473C83.0049 10.3007 84.4049 8.27401 84.7782 6.56734C85.0449 5.34068 84.6049 4.72734 83.4582 4.72734C82.8182 4.72734 82.1249 4.92734 81.3782 5.32734C80.6315 5.70068 79.9382 6.22068 79.2982 6.88734C78.6315 7.60734 78.0449 7.94068 77.5382 7.88734C77.0582 7.80734 76.5782 7.31401 76.0982 6.40734C75.8849 5.98068 75.6049 5.58068 75.2582 5.20734C74.9115 4.80734 74.5782 4.54068 74.2582 4.40734ZM107.398 1.88734C108.012 1.64734 108.918 1.55401 110.118 1.60734C111.345 1.63401 112.225 1.78068 112.758 2.04734C113.345 2.28734 113.932 2.87401 114.518 3.80734C114.838 4.36734 115.012 4.82068 115.038 5.16734C115.092 5.48734 115.012 5.95401 114.798 6.56734C114.665 6.96734 114.465 7.35401 114.198 7.72734C113.932 8.07401 113.665 8.30068 113.398 8.40734C112.972 8.59401 112.772 8.74068 112.798 8.84734C112.798 9.00734 113.212 9.50068 114.038 10.3273C114.678 10.914 115.092 11.4073 115.278 11.8073C115.492 12.1807 115.598 12.674 115.598 13.2873C115.598 14.6207 114.878 15.7407 113.438 16.6473C112.025 17.554 110.198 18.034 107.958 18.0873C107.318 18.0873 106.825 18.034 106.478 17.9273C106.158 17.794 105.852 17.5407 105.558 17.1673C105.212 16.714 104.985 16.1007 104.878 15.3273C104.798 14.554 104.772 12.7673 104.798 9.96734C104.852 5.83401 105.065 3.44734 105.438 2.80734C105.838 2.22068 106.132 1.96734 106.318 2.04734C106.505 2.18068 106.865 2.12734 107.398 1.88734ZM112.158 4.56734C111.812 4.22068 111.158 4.02068 110.198 3.96734C109.265 3.91401 108.438 4.03401 107.718 4.32734C107.318 4.48734 107.065 4.72734 106.958 5.04734C106.852 5.34068 106.798 5.96734 106.798 6.92734C106.798 8.20734 106.878 8.86068 107.038 8.88734C107.118 8.88734 107.345 8.78068 107.718 8.56734C108.198 8.22068 109.092 7.80734 110.398 7.32734C111.598 6.90068 112.332 6.47401 112.598 6.04734C112.892 5.62068 112.745 5.12734 112.158 4.56734ZM112.918 11.8873C112.518 11.5407 111.385 11.2873 109.518 11.1273L106.798 10.9273V12.9273C106.798 14.4207 106.945 15.314 107.238 15.6073C107.558 15.874 108.372 15.8607 109.678 15.5673C112.052 15.0607 113.358 14.314 113.598 13.3273C113.732 12.8473 113.505 12.3673 112.918 11.8873ZM123.741 3.72734C124.594 3.32734 125.274 3.12734 125.781 3.12734C126.394 3.12734 127.034 3.43401 127.701 4.04734C128.394 4.63401 128.741 5.19401 128.741 5.72734C128.741 6.31401 128.541 6.68734 128.141 6.84734C127.741 7.00734 127.407 6.83401 127.141 6.32734C126.634 5.42068 125.821 5.24734 124.701 5.80734C123.607 6.36734 122.687 7.40734 121.941 8.92734C121.407 10.0207 121.181 11.1807 121.261 12.4073C121.367 13.6073 121.727 14.3807 122.341 14.7273C122.874 15.0207 123.954 15.154 125.581 15.1273C127.207 15.1007 128.247 14.9407 128.701 14.6473C129.181 14.354 129.634 14.3007 130.061 14.4873C130.514 14.6473 130.741 14.9807 130.741 15.4873C130.741 17.114 128.287 17.8207 123.381 17.6073C122.367 17.554 121.421 17.1007 120.541 16.2473C119.687 15.394 119.154 14.394 118.941 13.2473C118.674 11.5407 119.021 9.72734 119.981 7.80734C120.941 5.86068 122.194 4.50068 123.741 3.72734ZM141.377 3.88734C141.617 3.64734 141.844 3.54068 142.057 3.56734C142.27 3.56734 142.377 3.68734 142.377 3.92734C142.377 4.19401 143.164 4.32734 144.737 4.32734C145.937 4.32734 146.804 4.48734 147.337 4.80734C147.897 5.10068 148.07 5.52734 147.857 6.08734C147.777 6.30068 147.55 6.43401 147.177 6.48734C146.804 6.54068 146.15 6.52734 145.217 6.44734L142.817 6.20734L142.697 11.3673C142.617 13.8473 142.537 15.3407 142.457 15.8473C142.377 16.3273 142.124 16.594 141.697 16.6473C141.377 16.7007 141.124 16.6607 140.937 16.5273C140.777 16.3673 140.644 16.074 140.537 15.6473C140.457 15.194 140.417 14.554 140.417 13.7273C140.417 12.9007 140.43 11.834 140.457 10.5273L140.617 6.24734L138.657 6.52734C137.617 6.63401 136.577 6.79401 135.537 7.00734C134.79 7.14068 134.324 6.99401 134.137 6.56734C133.924 6.03401 134.044 5.64734 134.497 5.40734C134.95 5.16734 136.044 4.92734 137.777 4.68734C139.884 4.39401 141.084 4.12734 141.377 3.88734ZM155.324 3.32734C155.911 2.90068 157.071 2.72734 158.804 2.80734C159.924 2.88734 160.684 3.00734 161.084 3.16734C161.511 3.32734 161.978 3.68734 162.484 4.24734C162.991 4.83401 163.311 5.34068 163.444 5.76734C163.578 6.19401 163.644 6.98068 163.644 8.12734C163.644 10.6873 163.044 12.634 161.844 13.9673C160.644 15.274 158.911 15.9273 156.644 15.9273H154.844V18.0873C154.844 19.4207 154.751 20.3273 154.564 20.8073C154.404 21.2873 154.098 21.5273 153.644 21.5273C153.164 21.5273 152.844 21.274 152.684 20.7673C152.524 20.2607 152.444 19.2473 152.444 17.7273C152.444 16.1007 152.244 15.1007 151.844 14.7273C151.364 14.354 151.151 13.7273 151.204 12.8473C151.231 12.2873 151.391 12.0073 151.684 12.0073C151.711 12.034 151.751 12.0473 151.804 12.0473C152.204 12.2073 152.498 11.3673 152.684 9.52734C152.791 8.67401 152.844 7.68734 152.844 6.56734C152.844 4.48734 153.151 3.50068 153.764 3.60734C153.844 3.60734 153.924 3.63401 154.004 3.68734C154.298 3.87401 154.738 3.75401 155.324 3.32734ZM160.364 5.36734C159.644 4.86068 158.778 4.64734 157.764 4.72734C156.778 4.80734 156.004 5.14068 155.444 5.72734C154.964 6.15401 154.671 6.60734 154.564 7.08734C154.484 7.54068 154.444 8.55401 154.444 10.1273V13.5273H156.004C157.871 13.5273 159.204 13.1007 160.004 12.2473C160.831 11.394 161.244 9.96734 161.244 7.96734C161.244 7.16734 161.178 6.59401 161.044 6.24734C160.938 5.90068 160.711 5.60734 160.364 5.36734ZM172.148 4.20734C174.308 3.14068 176.148 3.26068 177.668 4.56734C178.441 5.20734 178.854 5.95401 178.908 6.80734C178.988 7.66068 178.694 8.39401 178.028 9.00734C177.628 9.38068 176.681 9.83401 175.188 10.3673C173.694 10.874 172.108 11.314 170.428 11.6873C169.974 11.794 169.668 11.9407 169.508 12.1273C169.374 12.314 169.308 12.6473 169.308 13.1273C169.308 13.6607 169.374 13.994 169.508 14.1273C169.668 14.2607 170.041 14.3273 170.628 14.3273C171.561 14.3273 172.988 14.1407 174.908 13.7673C176.428 13.474 177.468 13.3807 178.028 13.4873C178.614 13.594 178.908 13.954 178.908 14.5673C178.908 15.3407 176.694 15.874 172.268 16.1673C170.028 16.3273 168.574 16.274 167.908 16.0073C167.241 15.714 166.908 15.034 166.908 13.9673C166.908 12.154 167.441 10.2473 168.508 8.24734C169.601 6.22068 170.814 4.87401 172.148 4.20734ZM176.428 6.00734C175.868 5.44734 174.881 5.47401 173.468 6.08734C172.881 6.35401 172.201 6.91401 171.428 7.76734C170.681 8.62068 170.414 9.15401 170.628 9.36734C170.734 9.50068 171.454 9.40734 172.788 9.08734C174.121 8.74068 175.134 8.39401 175.828 8.04734C177.001 7.43401 177.201 6.75401 176.428 6.00734ZM182.74 3.40734C182.98 2.98068 183.393 3.04734 183.98 3.60734C184.3 3.92734 184.46 4.71401 184.46 5.96734C184.46 7.11401 184.713 7.92734 185.22 8.40734C185.727 8.88734 186.593 9.12734 187.82 9.12734C188.7 9.12734 189.42 8.92734 189.98 8.52734C190.567 8.12734 190.86 7.60734 190.86 6.96734C190.86 6.24734 190.953 5.63401 191.14 5.12734C191.353 4.62068 191.62 4.30068 191.94 4.16734C192.233 4.08734 192.473 4.07401 192.66 4.12734C192.873 4.18068 193.047 4.40734 193.18 4.80734C193.34 5.20734 193.473 5.74068 193.58 6.40734C193.687 7.04734 193.78 7.92734 193.86 9.04734C194.1 12.674 194.207 14.8873 194.18 15.6873C194.153 16.4873 193.94 17.0207 193.54 17.2873C192.687 17.794 192.073 17.194 191.7 15.4873C191.593 15.0073 191.513 14.4207 191.46 13.7273L191.18 11.2073L188.7 11.4073C187.02 11.5407 185.7 11.394 184.74 10.9673C183.807 10.5407 183.113 9.76734 182.66 8.64734C182.34 7.90068 182.193 6.98068 182.22 5.88734C182.247 4.76734 182.42 3.94068 182.74 3.40734ZM207.414 4.04734C208.134 3.19401 208.654 3.70068 208.974 5.56734C209.241 7.08734 209.374 9.50068 209.374 12.8073C209.374 14.434 209.334 15.514 209.254 16.0473C209.174 16.5807 209.001 16.9007 208.734 17.0073C208.201 17.2207 207.761 17.0607 207.414 16.5273C207.094 15.9673 206.921 15.1273 206.894 14.0073C206.814 12.5407 206.641 11.8607 206.374 11.9673C206.268 11.994 206.161 12.1673 206.054 12.4873C205.894 12.8873 204.774 13.7673 202.694 15.1273C200.641 16.4607 199.388 17.1273 198.934 17.1273C198.241 17.1273 197.801 16.634 197.614 15.6473C197.428 14.634 197.414 12.6607 197.574 9.72734C197.708 7.54068 197.828 6.07401 197.934 5.32734C198.041 4.55401 198.214 4.12734 198.454 4.04734C198.721 3.94068 198.934 3.95401 199.094 4.08734C199.281 4.19401 199.414 4.47401 199.494 4.92734C199.601 5.35401 199.668 5.94068 199.694 6.68734C199.721 7.40734 199.721 8.39401 199.694 9.64734C199.588 12.7673 199.601 14.3273 199.734 14.3273C199.948 14.3273 200.774 13.8473 202.214 12.8873C203.654 11.9007 204.654 11.1407 205.214 10.6073C205.748 10.1273 206.108 9.66068 206.294 9.20734C206.508 8.75401 206.668 8.02068 206.774 7.00734C206.908 5.43401 207.121 4.44734 207.414 4.04734Z" fill="#253758"></path></svg> 