<?xml version="1.0" encoding="UTF-8"?> <svg xmlns="http://www.w3.org/2000/svg" width="202" height="20" viewBox="0 0 202 20" fill="none"><path d="M7.5175 4.6973C8.3975 2.7773 9.01083 1.55064 9.3575 1.0173C9.73083 0.457304 10.0908 0.190636 10.4375 0.217303C11.4242 0.377304 12.5042 2.19064 13.6775 5.6573C14.0242 6.6973 14.3175 7.4173 14.5575 7.8173C14.7975 8.2173 15.0775 8.43064 15.3975 8.4573C16.1442 8.56397 16.6375 8.92397 16.8775 9.5373C17.0642 10.044 16.9042 10.364 16.3975 10.4973C16.2908 10.524 16.1842 10.5373 16.0775 10.5373C15.7308 10.5373 15.9042 11.3906 16.5975 13.0973C16.6775 13.3106 16.7708 13.5373 16.8775 13.7773C18.3975 17.2706 18.6642 19.204 17.6775 19.5773C17.1442 19.764 16.6775 19.5506 16.2775 18.9373C15.8775 18.324 15.2642 16.9106 14.4375 14.6973L12.8775 10.4573L10.0375 10.6173C8.17083 10.7506 7.09083 10.8973 6.7975 11.0573C6.4775 11.2706 5.8375 12.6973 4.8775 15.3373C4.29083 16.8306 3.82417 17.8706 3.4775 18.4573C3.1575 19.044 2.8775 19.3373 2.6375 19.3373C2.29083 19.3373 2.05083 19.2973 1.9175 19.2173C1.78417 19.1106 1.7175 18.8973 1.7175 18.5773C1.74417 18.2573 1.8375 17.844 1.9975 17.3373C2.18417 16.8306 2.4775 16.1106 2.8775 15.1773C3.81083 12.8306 4.2775 11.6173 4.2775 11.5373C4.25083 11.5106 4.18417 11.5106 4.0775 11.5373C3.9975 11.5373 3.85083 11.564 3.6375 11.6173C3.45083 11.6706 3.25083 11.7373 3.0375 11.8173C2.21083 12.084 1.66417 12.084 1.3975 11.8173C0.9975 11.4173 0.970833 11.0306 1.3175 10.6573C1.69083 10.284 2.38417 9.9773 3.3975 9.7373L5.3975 9.2573L7.5175 4.6973ZM11.1975 5.8173C11.0375 5.44397 10.8642 5.00397 10.6775 4.4973C10.4908 3.99064 10.3575 3.63064 10.2775 3.4173C10.1975 3.1773 10.1442 3.0573 10.1175 3.0573C10.1175 3.03064 10.0508 3.1373 9.9175 3.3773C9.78417 3.6173 9.61083 3.96397 9.3975 4.4173C9.18417 4.84397 8.97083 5.31064 8.7575 5.8173C7.93083 7.71064 7.5575 8.72397 7.6375 8.8573C7.74417 8.96397 8.53083 8.92397 9.9975 8.7373L12.1575 8.4573L11.1975 5.8173ZM23.5072 3.5773C23.6405 3.23064 23.8005 3.03064 23.9872 2.9773C24.2005 2.8973 24.4005 2.9773 24.5872 3.2173C24.8005 3.43064 24.9472 3.75064 25.0272 4.1773C25.1872 5.08397 25.2672 6.15064 25.2672 7.3773V9.2973L28.7872 9.0573C31.0272 8.92397 32.2272 8.8173 32.3872 8.7373C32.4672 8.6573 32.6005 7.84397 32.7872 6.2973C32.8939 5.28397 33.0139 4.63064 33.1472 4.3373C33.2805 4.04397 33.5339 3.87064 33.9072 3.8173C34.5205 3.7373 34.9072 4.08397 35.0672 4.8573C35.2539 5.60397 35.4139 7.59064 35.5472 10.8173C35.7339 14.604 35.6405 16.7106 35.2672 17.1373C34.9472 17.5106 34.6672 17.6973 34.4272 17.6973C34.1872 17.6973 33.8805 17.4973 33.5072 17.0973C33.0805 16.6706 32.8672 15.604 32.8672 13.8973V11.2973L29.3872 11.4173L25.8672 11.5373L25.6272 13.8573C25.4139 15.804 24.9872 16.924 24.3472 17.2173C23.8939 17.404 23.5205 17.044 23.2272 16.1373C23.1472 15.844 23.0805 15.5106 23.0272 15.1373C22.8939 13.9906 22.5605 13.0706 22.0272 12.3773C21.6005 11.844 21.4272 11.3506 21.5072 10.8973C21.6139 10.444 21.9472 10.124 22.5072 9.9373C22.8272 9.83064 23.0272 9.60397 23.1072 9.2573C23.2139 8.88397 23.2672 8.11064 23.2672 6.9373C23.2672 5.1773 23.3472 4.0573 23.5072 3.5773ZM42.2891 3.6973C42.2891 3.59064 42.3557 3.51064 42.4891 3.4573C42.6491 3.3773 42.8357 3.36397 43.0491 3.4173C43.2891 3.47064 43.4624 3.67064 43.5691 4.0173C43.7024 4.3373 43.7957 4.9373 43.8491 5.8173L43.9691 8.0973L47.2091 5.8973C49.3157 4.4573 50.5424 3.7773 50.8891 3.8573C52.0091 4.2573 51.2224 5.35064 48.5291 7.1373C47.7024 7.67064 46.9957 8.16397 46.4091 8.6173C45.8491 9.07064 45.5824 9.3373 45.6091 9.4173C45.6891 9.60397 46.7291 10.5906 48.7291 12.3773C50.3557 13.844 51.3691 14.844 51.7691 15.3773C52.1957 15.884 52.3291 16.3506 52.1691 16.7773C51.8757 17.524 51.0891 17.404 49.8091 16.4173C49.1957 15.9373 48.3824 15.204 47.3691 14.2173L44.1291 11.1373L44.0091 13.8173C43.9291 15.204 43.7424 16.1506 43.4491 16.6573C43.1557 17.164 42.7291 17.3106 42.1691 17.0973C41.9024 16.9906 41.7291 16.684 41.6491 16.1773C41.5691 15.6706 41.5291 14.6573 41.5291 13.1373V9.4173L40.3691 8.9373C39.6491 8.67064 39.1957 8.35064 39.0091 7.9773C38.8224 7.60397 38.9024 7.32397 39.2491 7.1373C39.6224 6.92397 40.1824 6.91064 40.9291 7.0973C41.3557 7.20397 41.6224 7.20397 41.7291 7.0973C41.8624 6.99064 41.9424 6.67064 41.9691 6.1373C41.9957 5.36397 42.0491 4.83064 42.1291 4.5373C42.1291 4.4573 42.1424 4.32397 42.1691 4.1373C42.2224 3.92397 42.2624 3.7773 42.2891 3.6973ZM60.7706 4.4173C62.9306 3.35064 64.7706 3.47064 66.2906 4.7773C67.064 5.4173 67.4773 6.16397 67.5306 7.0173C67.6106 7.87064 67.3173 8.60397 66.6506 9.2173C66.2506 9.59064 65.304 10.044 63.8106 10.5773C62.3173 11.084 60.7306 11.524 59.0506 11.8973C58.5973 12.004 58.2906 12.1506 58.1306 12.3373C57.9973 12.524 57.9306 12.8573 57.9306 13.3373C57.9306 13.8706 57.9973 14.204 58.1306 14.3373C58.2906 14.4706 58.664 14.5373 59.2506 14.5373C60.184 14.5373 61.6106 14.3506 63.5306 13.9773C65.0506 13.684 66.0906 13.5906 66.6506 13.6973C67.2373 13.804 67.5306 14.164 67.5306 14.7773C67.5306 15.5506 65.3173 16.084 60.8906 16.3773C58.6506 16.5373 57.1973 16.484 56.5306 16.2173C55.864 15.924 55.5306 15.244 55.5306 14.1773C55.5306 12.364 56.064 10.4573 57.1306 8.4573C58.224 6.43064 59.4373 5.08397 60.7706 4.4173ZM65.0506 6.2173C64.4906 5.6573 63.504 5.68397 62.0906 6.2973C61.504 6.56397 60.824 7.12397 60.0506 7.9773C59.304 8.83064 59.0373 9.36397 59.2506 9.5773C59.3573 9.71064 60.0773 9.6173 61.4106 9.2973C62.744 8.95064 63.7573 8.60397 64.4506 8.2573C65.624 7.64397 65.824 6.96397 65.0506 6.2173ZM78.2031 4.0973C78.4431 3.8573 78.6698 3.75064 78.8831 3.7773C79.0965 3.7773 79.2031 3.8973 79.2031 4.1373C79.2031 4.40397 79.9898 4.5373 81.5631 4.5373C82.7631 4.5373 83.6298 4.6973 84.1631 5.0173C84.7231 5.31064 84.8965 5.7373 84.6831 6.2973C84.6031 6.51064 84.3765 6.64397 84.0031 6.6973C83.6298 6.75064 82.9765 6.7373 82.0431 6.6573L79.6431 6.4173L79.5231 11.5773C79.4431 14.0573 79.3631 15.5506 79.2831 16.0573C79.2031 16.5373 78.9498 16.804 78.5231 16.8573C78.2031 16.9106 77.9498 16.8706 77.7631 16.7373C77.6031 16.5773 77.4698 16.284 77.3631 15.8573C77.2831 15.404 77.2431 14.764 77.2431 13.9373C77.2431 13.1106 77.2565 12.044 77.2831 10.7373L77.4431 6.4573L75.4831 6.7373C74.4431 6.84397 73.4031 7.00397 72.3631 7.2173C71.6165 7.35064 71.1498 7.20397 70.9631 6.7773C70.7498 6.24397 70.8698 5.8573 71.3231 5.6173C71.7765 5.3773 72.8698 5.1373 74.6031 4.8973C76.7098 4.60397 77.9098 4.3373 78.2031 4.0973ZM93.7506 4.1373C94.604 3.87064 95.7906 3.79064 97.3106 3.8973C98.244 3.95064 98.924 4.0573 99.3506 4.2173C99.804 4.35064 100.257 4.63064 100.711 5.0573C101.217 5.56397 101.524 6.0973 101.631 6.6573C101.764 7.19064 101.884 8.51064 101.991 10.6173C102.071 12.3506 102.177 13.6306 102.311 14.4573C102.471 15.284 102.697 15.9373 102.991 16.4173C103.337 17.0306 103.511 17.444 103.511 17.6573C103.537 17.844 103.404 18.084 103.111 18.3773C102.204 19.3106 101.284 18.7906 100.351 16.8173L99.4706 15.0573L97.0706 15.8173C95.4973 16.2706 93.924 16.604 92.3506 16.8173C91.3106 16.924 90.6173 16.9373 90.2706 16.8573C89.924 16.7506 89.5106 16.4706 89.0306 16.0173C88.4173 15.404 88.084 14.7906 88.0306 14.1773C88.004 13.5373 88.2573 12.7773 88.7906 11.8973C89.9106 10.1106 92.4173 9.04397 96.3106 8.6973C96.8973 8.67064 97.444 8.6173 97.9506 8.5373C98.4573 8.4573 98.8573 8.39064 99.1506 8.3373C99.444 8.2573 99.5906 8.19064 99.5906 8.1373C99.5906 7.8973 99.3373 7.48397 98.8306 6.8973C98.5106 6.4973 98.164 6.24397 97.7906 6.1373C97.444 6.03064 96.804 5.99064 95.8706 6.0173C94.2973 6.07064 93.284 6.24397 92.8306 6.5373C92.484 6.72397 92.244 6.80397 92.1106 6.7773C91.9773 6.75064 91.8573 6.60397 91.7506 6.3373C91.5906 5.91064 91.684 5.4973 92.0306 5.0973C92.404 4.6973 92.9773 4.3773 93.7506 4.1373ZM99.4306 10.7773C99.564 10.4306 99.484 10.244 99.1906 10.2173C98.844 10.1906 97.7373 10.3106 95.8706 10.5773C94.244 10.844 93.124 11.124 92.5106 11.4173C91.844 11.7373 91.2306 12.2573 90.6706 12.9773C90.1373 13.6973 89.964 14.204 90.1506 14.4973C90.364 14.844 90.964 14.9906 91.9506 14.9373C92.964 14.8573 94.1106 14.5906 95.3906 14.1373C96.9373 13.604 97.964 13.3373 98.4706 13.3373C98.9506 13.3373 99.1906 13.0173 99.1906 12.3773C99.1906 11.7906 99.2706 11.2573 99.4306 10.7773ZM123.949 3.7373C124.482 3.4973 125.509 3.3773 127.029 3.3773C128.229 3.35064 129.149 3.4973 129.789 3.8173C130.456 4.1373 130.682 4.55064 130.469 5.0573C130.362 5.2973 130.122 5.4573 129.749 5.5373C129.376 5.6173 128.696 5.64397 127.709 5.6173C126.029 5.56397 124.882 5.72397 124.269 6.0973C123.789 6.36397 123.522 6.7373 123.469 7.2173C123.416 7.67064 123.456 9.16397 123.589 11.6973C123.802 15.084 123.736 16.8973 123.389 17.1373C122.722 17.564 122.242 17.0973 121.949 15.7373C121.762 14.7773 121.629 13.2973 121.549 11.2973C121.442 8.92397 121.416 7.4573 121.469 6.8973C121.522 6.31064 121.762 5.75064 122.189 5.2173C122.856 4.39064 123.442 3.8973 123.949 3.7373ZM135.132 3.4973C135.745 2.91064 136.239 2.5373 136.612 2.3773C137.012 2.2173 137.652 2.1373 138.532 2.1373C140.719 2.1373 142.372 2.7773 143.492 4.0573C143.865 4.4573 144.159 4.64397 144.372 4.6173C144.585 4.56397 145.105 4.23064 145.932 3.6173C145.985 3.56397 146.025 3.52397 146.052 3.4973C148.479 1.6573 150.532 1.59064 152.212 3.2973C153.839 4.95064 153.812 7.2173 152.132 10.0973C150.905 12.204 149.279 14.0306 147.252 15.5773C145.225 17.0973 143.665 17.6573 142.572 17.2573C141.665 16.9106 140.279 15.8306 138.412 14.0173C136.572 12.1773 135.372 10.724 134.812 9.6573C134.092 8.19064 133.759 7.00397 133.812 6.0973C133.865 5.19064 134.305 4.32397 135.132 3.4973ZM140.772 4.6173C140.159 4.32397 139.399 4.1773 138.492 4.1773C137.612 4.15064 136.945 4.28397 136.492 4.5773C136.012 4.84397 135.785 5.48397 135.812 6.4973C135.839 7.48397 136.092 8.39064 136.572 9.2173C136.892 9.75064 138.052 10.9106 140.052 12.6973C142.052 14.484 143.292 15.4706 143.772 15.6573C143.985 15.7373 145.092 14.804 147.092 12.8573C149.519 10.5106 150.919 8.48397 151.292 6.7773C151.559 5.55064 151.119 4.9373 149.972 4.9373C149.332 4.9373 148.639 5.1373 147.892 5.5373C147.145 5.91064 146.452 6.43064 145.812 7.0973C145.145 7.8173 144.559 8.15064 144.052 8.0973C143.572 8.0173 143.092 7.52397 142.612 6.6173C142.399 6.19064 142.119 5.79064 141.772 5.4173C141.425 5.0173 141.092 4.75064 140.772 4.6173ZM161.583 3.9373C162.436 3.5373 163.116 3.3373 163.623 3.3373C164.236 3.3373 164.876 3.64397 165.543 4.2573C166.236 4.84397 166.583 5.40397 166.583 5.9373C166.583 6.52397 166.383 6.8973 165.983 7.0573C165.583 7.2173 165.249 7.04397 164.983 6.5373C164.476 5.63064 163.663 5.4573 162.543 6.0173C161.449 6.5773 160.529 7.6173 159.783 9.1373C159.249 10.2306 159.023 11.3906 159.103 12.6173C159.209 13.8173 159.569 14.5906 160.183 14.9373C160.716 15.2306 161.796 15.364 163.423 15.3373C165.049 15.3106 166.089 15.1506 166.543 14.8573C167.023 14.564 167.476 14.5106 167.903 14.6973C168.356 14.8573 168.583 15.1906 168.583 15.6973C168.583 17.324 166.129 18.0306 161.223 17.8173C160.209 17.764 159.263 17.3106 158.383 16.4573C157.529 15.604 156.996 14.604 156.783 13.4573C156.516 11.7506 156.863 9.9373 157.823 8.0173C158.783 6.07064 160.036 4.71064 161.583 3.9373ZM179.219 4.0973C179.459 3.8573 179.685 3.75064 179.899 3.7773C180.112 3.7773 180.219 3.8973 180.219 4.1373C180.219 4.40397 181.005 4.5373 182.579 4.5373C183.779 4.5373 184.645 4.6973 185.179 5.0173C185.739 5.31064 185.912 5.7373 185.699 6.2973C185.619 6.51064 185.392 6.64397 185.019 6.6973C184.645 6.75064 183.992 6.7373 183.059 6.6573L180.659 6.4173L180.539 11.5773C180.459 14.0573 180.379 15.5506 180.299 16.0573C180.219 16.5373 179.965 16.804 179.539 16.8573C179.219 16.9106 178.965 16.8706 178.779 16.7373C178.619 16.5773 178.485 16.284 178.379 15.8573C178.299 15.404 178.259 14.764 178.259 13.9373C178.259 13.1106 178.272 12.044 178.299 10.7373L178.459 6.4573L176.499 6.7373C175.459 6.84397 174.419 7.00397 173.379 7.2173C172.632 7.35064 172.165 7.20397 171.979 6.7773C171.765 6.24397 171.885 5.8573 172.339 5.6173C172.792 5.3773 173.885 5.1373 175.619 4.8973C177.725 4.60397 178.925 4.3373 179.219 4.0973ZM194.326 5.1373C195.393 4.79064 196.166 4.6173 196.646 4.6173C197.126 4.6173 197.82 4.7773 198.726 5.0973C199.713 5.44397 200.34 5.48397 200.606 5.2173C200.98 4.84397 201.246 5.0973 201.406 5.9773C201.566 6.9373 201.646 8.8573 201.646 11.7373C201.646 14.2973 201.606 15.844 201.526 16.3773C201.446 16.884 201.22 17.1373 200.846 17.1373C200.473 17.1373 200.233 16.9773 200.126 16.6573C200.02 16.3373 199.926 15.524 199.846 14.2173L199.646 11.3373L196.646 13.6173C194.22 15.4306 192.513 16.6306 191.526 17.2173C190.54 17.7773 189.886 17.9373 189.566 17.6973C189.22 17.404 189.046 17.084 189.046 16.7373C189.046 16.4973 190.113 15.5506 192.246 13.8973C194.38 12.2173 195.9 11.1373 196.806 10.6573C197.233 10.444 197.086 10.2706 196.366 10.1373C196.073 10.084 195.646 10.0306 195.086 9.9773C193.486 9.79064 192.34 9.40397 191.646 8.8173C190.98 8.23064 190.886 7.59064 191.366 6.8973C191.846 6.1773 192.833 5.59064 194.326 5.1373ZM198.406 6.9373C197.793 6.6973 197.3 6.59064 196.926 6.6173C196.553 6.6173 195.86 6.7773 194.846 7.0973C193.54 7.47064 193.38 7.76397 194.366 7.9773C194.926 8.08397 195.833 8.1373 197.086 8.1373C198.713 8.1373 199.486 7.95064 199.406 7.5773C199.38 7.39064 199.046 7.1773 198.406 6.9373Z" fill="#253758"></path></svg> 