<?xml version="1.0" encoding="UTF-8"?> <svg xmlns="http://www.w3.org/2000/svg" width="492" height="232" viewBox="0 0 492 232" fill="none"><path d="M158.422 61.5086V64.7993C154.912 64.909 152.279 65.3478 150.524 66.1156C148.769 66.7737 147.563 68.09 146.905 70.0645C146.356 71.9292 146.082 74.8909 146.082 78.9494V160.56C146.082 164.508 146.356 167.47 146.905 169.445C147.563 171.419 148.769 172.735 150.524 173.393C152.279 174.052 154.912 174.49 158.422 174.71V178C155.351 177.781 151.457 177.671 146.74 177.671C142.133 177.562 137.416 177.507 132.59 177.507C127.325 177.507 122.389 177.562 117.782 177.671C113.175 177.671 109.445 177.781 106.593 178V174.71C110.323 174.49 113.12 174.052 114.985 173.393C116.959 172.735 118.275 171.419 118.933 169.445C119.592 167.47 119.921 164.508 119.921 160.56V71.5453H121.072L80.2673 178.165H77.6347L33.2098 72.2034V151.016C33.2098 157.049 33.5389 161.711 34.1971 165.002C34.8552 168.183 36.2812 170.487 38.475 171.913C40.7785 173.229 44.3435 174.161 49.1699 174.71V178C47.0858 177.781 44.3435 177.671 40.9431 177.671C37.5426 177.562 34.3616 177.507 31.3999 177.507C28.877 177.507 26.2993 177.562 23.6667 177.671C21.0341 177.671 18.8403 177.781 17.0852 178V174.71C20.5954 174.161 23.2279 173.229 24.983 171.913C26.7381 170.596 27.8898 168.457 28.4383 165.496C29.0964 162.424 29.4255 158.256 29.4255 152.991V78.9494C29.4255 74.8909 29.0964 71.9292 28.4383 70.0645C27.8898 68.09 26.6832 66.7737 24.8185 66.1156C23.0634 65.3478 20.4857 64.909 17.0852 64.7993V61.5086C18.8403 61.6183 21.0341 61.7279 23.6667 61.8376C26.2993 61.9473 28.877 62.0022 31.3999 62.0022C36.1166 62.0022 40.7237 61.9473 45.221 61.8376C49.828 61.7279 53.8866 61.6183 57.3967 61.5086L91.9494 144.929L87.836 148.713L120.908 62.0022C122.773 62.0022 124.692 62.0022 126.667 62.0022C128.641 62.0022 130.616 62.0022 132.59 62.0022C137.416 62.0022 142.133 61.9473 146.74 61.8376C151.457 61.7279 155.351 61.6183 158.422 61.5086ZM224.362 61.1795L264.344 164.179C265.88 168.128 267.58 170.871 269.445 172.406C271.419 173.832 273.174 174.6 274.71 174.71V178C271.419 177.781 267.525 177.671 263.028 177.671C258.64 177.562 254.197 177.507 249.7 177.507C244.654 177.507 239.883 177.562 235.385 177.671C230.888 177.671 227.323 177.781 224.691 178V174.71C230.285 174.49 233.795 173.558 235.221 171.913C236.757 170.158 236.428 166.483 234.234 160.889L206.262 84.3792L209.224 80.1012L184.215 145.258C181.801 151.291 180.321 156.227 179.772 160.066C179.333 163.905 179.608 166.867 180.595 168.951C181.692 171.035 183.392 172.516 185.695 173.393C188.109 174.161 190.961 174.6 194.251 174.71V178C190.632 177.781 187.176 177.671 183.886 177.671C180.595 177.562 177.249 177.507 173.849 177.507C171.436 177.507 169.132 177.562 166.938 177.671C164.854 177.671 162.989 177.781 161.344 178V174.71C163.648 174.271 166.006 172.79 168.419 170.267C170.832 167.744 173.191 163.466 175.494 157.433L213.008 61.1795C214.764 61.2892 216.628 61.344 218.603 61.344C220.687 61.344 222.606 61.2892 224.362 61.1795ZM235.879 130.614V133.905H186.847L188.493 130.614H235.879ZM275.937 61.5086C278.68 61.6183 282.354 61.7279 286.961 61.8376C291.678 61.9473 296.34 62.0022 300.947 62.0022C306.212 62.0022 311.313 61.9473 316.249 61.8376C321.185 61.7279 324.695 61.6731 326.779 61.6731C336.98 61.6731 345.427 62.8249 352.118 65.1284C358.919 67.3222 363.964 70.5581 367.255 74.836C370.656 79.114 372.356 84.2695 372.356 90.3025C372.356 94.032 371.588 97.8163 370.052 101.656C368.517 105.385 365.884 108.895 362.155 112.186C358.535 115.367 353.544 117.945 347.182 119.919C340.82 121.784 332.812 122.716 323.159 122.716H307.364V119.425H321.514C327.986 119.425 332.867 118.219 336.158 115.806C339.558 113.283 341.862 109.992 343.068 105.933C344.385 101.765 345.043 97.1582 345.043 92.1124C345.043 83.4468 343.507 76.7556 340.436 72.0389C337.364 67.2125 332.099 64.7993 324.64 64.7993C320.362 64.7993 317.565 65.7317 316.249 67.5964C315.042 69.4612 314.439 73.2455 314.439 78.9494V160.56C314.439 164.508 314.713 167.47 315.262 169.445C315.92 171.419 317.126 172.735 318.881 173.393C320.636 174.052 323.269 174.49 326.779 174.71V178C323.817 177.781 320.088 177.671 315.591 177.671C311.093 177.562 306.541 177.507 301.934 177.507C296.669 177.507 291.678 177.562 286.961 177.671C282.354 177.671 278.68 177.781 275.937 178V174.71C279.447 174.49 282.08 174.052 283.835 173.393C285.59 172.735 286.742 171.419 287.29 169.445C287.948 167.47 288.278 164.508 288.278 160.56V78.9494C288.278 74.8909 287.948 71.9292 287.29 70.0645C286.742 68.09 285.535 66.7737 283.671 66.1156C281.915 65.3478 279.338 64.909 275.937 64.7993V61.5086ZM307.035 119.919C311.751 120.029 315.81 120.248 319.21 120.577C322.721 120.906 325.792 121.235 328.425 121.564C331.057 121.784 333.415 121.948 335.5 122.058C345.481 122.936 352.831 125.075 357.547 128.475C362.374 131.875 365.5 136.976 366.926 143.777L370.71 160.724C371.698 165.112 372.74 168.183 373.837 169.938C374.934 171.693 376.524 172.571 378.608 172.571C380.034 172.461 381.186 172.132 382.063 171.584C383.051 170.925 384.093 169.993 385.19 168.786L387.493 170.761C384.531 174.161 381.35 176.575 377.95 178C374.55 179.536 370.436 180.304 365.61 180.304C359.686 180.304 354.805 179.043 350.966 176.52C347.127 173.997 344.604 169.335 343.397 162.534L340.436 146.08C339.668 141.473 338.735 137.47 337.639 134.069C336.542 130.559 335.006 127.817 333.032 125.842C331.167 123.758 328.534 122.716 325.134 122.716H307.364L307.035 119.919ZM479.679 61.344V64.6348C477.265 65.622 474.797 67.5964 472.274 70.5581C469.752 73.41 466.954 77.7977 463.883 83.721L432.786 145.258H425.052L386.551 74.0133C384.576 70.2839 382.767 67.8158 381.121 66.6092C379.586 65.4026 378.214 64.7993 377.008 64.7993V61.344C379.969 61.6731 382.986 61.8925 386.057 62.0022C389.238 62.1119 392.694 62.1667 396.423 62.1667C401.25 62.1667 406.46 62.1119 412.054 62.0022C417.648 61.7828 422.749 61.5634 427.356 61.344V64.7993C424.614 64.7993 422.146 65.0187 419.952 65.4574C417.758 65.8962 416.222 66.7189 415.345 67.9255C414.467 69.0224 414.687 70.8323 416.003 73.3552L442 123.374L436.899 129.956L453.846 95.8967C457.905 87.999 460.044 81.8014 460.263 77.3041C460.592 72.8067 459.495 69.6257 456.973 67.761C454.559 65.7865 451.104 64.7445 446.607 64.6348V61.344C450.336 61.4537 453.846 61.5634 457.137 61.6731C460.428 61.7828 463.773 61.8376 467.174 61.8376C469.587 61.8376 471.836 61.7828 473.92 61.6731C476.114 61.5634 478.033 61.4537 479.679 61.344ZM444.468 119.261V160.56C444.468 164.508 444.742 167.47 445.29 169.445C445.949 171.419 447.155 172.735 448.91 173.393C450.665 174.052 453.298 174.49 456.808 174.71V178C453.846 177.781 450.007 177.671 445.29 177.671C440.683 177.562 436.076 177.507 431.469 177.507C426.314 177.507 421.433 177.562 416.826 177.671C412.219 177.671 408.599 177.781 405.966 178V174.71C409.476 174.49 412.109 174.052 413.864 173.393C415.619 172.735 416.771 171.419 417.319 169.445C417.977 167.47 418.306 164.508 418.306 160.56V126.83L432.621 137.031L444.468 119.261Z" fill="#F7CEE1"></path><path d="M119.604 92.0351C121.591 92.0351 122.845 93.4611 123.363 96.3132C122.931 98.1281 122.067 99.0355 120.77 99.0355C120.079 99.0355 119.344 98.6466 118.567 97.8688C115.628 101.153 113.597 104.524 112.474 107.98C111.869 108.672 111.134 109.018 110.27 109.018C108.887 109.018 108.066 108.153 107.807 106.425C108.412 103.141 110.616 99.2948 114.418 94.8871C116.32 92.9858 118.048 92.0351 119.604 92.0351ZM106.899 114.333C108.455 114.765 109.233 115.543 109.233 116.666V117.185C106.208 126.346 104.695 132.568 104.695 135.852C104.609 135.852 104.566 137.019 104.566 139.353C104.566 139.612 104.523 139.785 104.436 139.871C104.436 144.884 105.56 148.168 107.807 149.724C108.585 150.156 109.449 150.372 110.399 150.372C116.017 150.372 124.789 144.668 136.716 133.26C137.234 132.914 137.839 132.741 138.531 132.741C139.914 132.741 140.735 133.649 140.994 135.464C140.994 136.328 139.784 137.754 137.364 139.742C126.042 150.285 117.011 155.557 110.27 155.557C104.479 155.557 100.936 151.798 99.6396 144.279C99.3803 141.773 99.2507 140.347 99.2507 140.001C99.2507 133.26 100.979 125.136 104.436 115.629C105.041 114.765 105.862 114.333 106.899 114.333Z" fill="#D91E2E"></path><path d="M141.253 119.907H141.772C142.982 119.907 143.759 120.728 144.105 122.37C142.031 131.272 140.994 137.711 140.994 141.686V142.464C140.994 144.452 141.426 145.446 142.29 145.446C143.5 145.446 146.352 142.55 150.846 136.76C157.069 128.55 162.038 124.444 165.754 124.444C168.261 124.444 171.07 126.475 174.181 130.537C178.589 135.636 181.829 138.704 183.904 139.742C185.719 140.692 187.404 141.168 188.96 141.168C193.54 141.168 198.682 138.272 204.386 132.482C204.905 132.05 205.423 131.834 205.942 131.834H206.331C207.887 132.179 208.664 132.957 208.664 134.167V134.556C208.664 135.507 207.368 137.019 204.775 139.093C199.071 144.192 193.843 146.742 189.089 146.742C183.472 146.742 177.508 142.723 171.199 134.686C168.779 131.661 167.181 130.105 166.403 130.019H165.754C163.335 130.019 159.273 133.865 153.569 141.556C148.642 147.866 144.796 151.02 142.031 151.02C139.438 151.02 137.537 149.205 136.327 145.575C135.981 144.279 135.808 142.723 135.808 140.908C135.808 136.673 136.932 130.105 139.179 121.203C139.87 120.339 140.562 119.907 141.253 119.907Z" fill="#D91E2E"></path><path d="M225.517 115.111H226.036C227.505 115.456 228.24 116.234 228.24 117.444V117.574C228.24 121.031 226.554 127.642 223.184 137.408C219.727 145.964 215.881 150.242 211.646 150.242C208.535 150.242 206.417 147.693 205.294 142.594C205.035 140.692 204.905 138.791 204.905 136.89V136.371C204.905 130.667 205.64 125.611 207.109 121.203C207.714 120.426 208.448 120.037 209.313 120.037C211.041 120.296 211.905 121.074 211.905 122.37V122.889C210.609 127.469 209.961 132.007 209.961 136.501C209.961 141.34 210.566 144.192 211.776 145.057H211.905C214.498 145.057 217.653 138.748 221.369 126.13C222.147 123.537 222.795 120.382 223.313 116.666C224.005 115.629 224.739 115.111 225.517 115.111Z" fill="#D91E2E"></path><path d="M292.28 86.0718H292.41C297.163 85.8125 299.54 85.5965 299.54 85.4236C300.836 81.5345 301.485 78.7689 301.485 77.1269C301.398 75.7441 301.052 75.0527 300.447 75.0527C298.287 75.0527 295.564 78.7257 292.28 86.0718ZM290.206 91.5166C287.613 99.122 285.28 107.332 283.206 116.148H283.465C288.91 108.024 292.885 101.153 295.392 95.5353L297.466 90.998C293.145 91.3437 290.725 91.5166 290.206 91.5166ZM253.389 94.7575C253.562 95.2761 253.692 95.7946 253.778 96.3132C253.346 98.1281 252.482 99.0355 251.185 99.0355C250.494 99.0355 249.759 98.6466 248.981 97.8688C246.043 101.153 244.012 104.524 242.889 107.98C242.284 108.672 241.549 109.018 240.685 109.018C239.302 109.018 238.481 108.153 238.222 106.425C238.827 103.4 240.771 99.8566 244.055 95.7946C218.214 98.5602 198.682 101.283 185.459 103.962C183.731 104.48 182.564 104.869 181.959 105.128C181.959 105.561 181.311 105.95 180.015 106.295C178.2 106.036 177.292 105.085 177.292 103.443C177.292 101.196 182.478 99.1652 192.849 97.3503C210.393 93.8068 241.635 90.2634 286.576 86.72C289.515 79.7196 292.151 75.0527 294.484 72.7192C296.645 70.8179 298.762 69.8672 300.836 69.8672C303.516 69.8672 305.33 71.3796 306.281 74.4045C306.54 75.3552 306.67 76.2194 306.67 76.9972C306.67 78.7257 306.151 81.4913 305.114 85.294C305.201 85.2076 305.287 85.1644 305.374 85.1644C338.474 82.9173 364.402 81.7938 383.156 81.7938C399.058 81.7938 409.775 82.6148 415.306 84.2569C416.084 85.0347 416.473 85.8125 416.473 86.5904C416.473 87.8867 415.608 88.7078 413.88 89.0535C407.917 87.5843 397.589 86.8496 382.897 86.8496C363.71 86.8496 337.135 88.0596 303.17 90.4795C300.059 98.1713 295.91 106.166 290.725 114.462C288.305 118.265 285.712 121.808 282.946 125.093C281.304 126.735 280.483 127.729 280.483 128.074C277.372 142.161 273.829 163.336 269.853 191.596C267.865 207.239 266.871 218.042 266.871 224.006V224.784C266.871 226.08 267.087 227.333 267.52 228.543C267.52 229.926 266.699 230.79 265.057 231.136H264.668C262.766 231.136 261.816 229.105 261.816 225.043C262.075 210.523 265.056 185.936 270.761 151.279C271.884 145.057 273.008 139.223 274.131 133.778C272.489 135.334 270.372 137.322 267.779 139.742C256.457 150.285 247.426 155.557 240.685 155.557C234.894 155.557 231.351 151.798 230.054 144.279C229.795 141.773 229.666 140.347 229.666 140.001C229.666 133.26 231.394 125.136 234.851 115.629C235.456 114.765 236.277 114.333 237.314 114.333C238.87 114.765 239.648 115.543 239.648 116.666V117.185C236.623 126.346 235.11 132.568 235.11 135.852C235.024 135.852 234.981 137.019 234.981 139.353C234.981 139.612 234.937 139.785 234.851 139.871C234.851 144.884 235.975 148.168 238.222 149.724C238.999 150.156 239.864 150.372 240.814 150.372C247.555 150.372 258.661 142.421 274.131 126.519L276.076 124.444C279.101 111.049 281.996 100.202 284.761 91.9055H284.632C273.483 92.8562 263.069 93.8068 253.389 94.7575Z" fill="#D91E2E"></path><path d="M311.855 117.314H312.633C315.312 117.314 317.084 118.611 317.948 121.203C318.035 121.376 318.078 121.549 318.078 121.722V122.629C318.078 125.914 315.356 128.852 309.911 131.445C307.318 132.395 305.503 132.871 304.466 132.871C302.046 132.871 300.059 131.747 298.503 129.5C296.688 132.093 295.781 134.556 295.781 136.89C295.781 139.828 297.163 141.902 299.929 143.112C300.966 143.458 301.96 143.631 302.911 143.631H303.688C310.343 143.631 322.14 136.587 339.079 122.5C339.771 122.413 340.16 122.37 340.246 122.37C341.888 122.716 342.709 123.407 342.709 124.444V125.093C342.709 126.043 341.499 127.426 339.079 129.241C325.683 139.785 316.566 145.705 311.726 147.001C308.701 148.298 305.849 148.946 303.17 148.946C298.503 148.946 294.873 147.001 292.28 143.112C291.243 141.124 290.725 138.964 290.725 136.63C290.725 131.099 293.75 126.043 299.799 121.463C304.034 118.956 308.053 117.574 311.855 117.314ZM303.04 126.908V127.037C303.299 127.469 303.645 127.685 304.077 127.685H304.725C308.269 126.821 310.862 125.525 312.504 123.796L312.763 123.018C312.763 122.586 312.46 122.37 311.855 122.37C309.868 122.37 307.361 123.191 304.337 124.833C303.472 125.525 303.04 126.216 303.04 126.908Z" fill="#D91E2E"></path></svg> 