<?xml version="1.0" encoding="UTF-8"?> <svg xmlns="http://www.w3.org/2000/svg" width="430" height="200" viewBox="0 0 430 200" fill="none"><path d="M111.043 21.245H112.409L135.043 57.604L156.384 21.245H157.75C157.462 23.1133 157.39 24.1911 157.39 28.0713V63.9991C157.39 68.526 157.39 69.3883 157.75 71.2565V71.5439H150.78V71.2565C151.283 69.3883 151.283 68.526 151.283 63.9991V34.2509L133.534 64.4302H132.097L113.558 34.682V63.9991C113.558 68.526 113.558 69.3883 114.061 71.2565V71.5439H111.043V71.2565C111.403 69.3883 111.403 68.526 111.403 63.9991V28.0713C111.403 24.1911 111.331 23.1133 111.043 21.245ZM170.672 21.245H177.642V21.5325C177.139 23.4007 177.139 24.263 177.139 28.7899V52.5741C177.139 62.4183 182.6 68.5979 191.367 68.5979C200.061 68.5979 205.594 62.562 205.594 53.4363V28.7899C205.594 24.263 205.594 23.4007 205.091 21.5325V21.245H208.109V21.5325C207.75 23.4007 207.75 24.263 207.75 28.7899V52.4304C207.75 65.2925 200.133 72.6936 189.355 72.6936C178.576 72.6936 171.032 65.2925 171.032 52.4304V28.7899C171.032 24.263 171.032 23.4007 170.672 21.5325V21.245ZM241.705 21.6762L241.992 28.3587H240.699C239.262 24.0474 235.669 22.1073 231.861 22.1073C227.693 22.1073 224.46 24.4785 224.46 29.0054C224.46 32.0234 225.969 35.5443 228.627 38.4185L238.4 48.9813C242.352 53.2926 244.364 57.6758 244.364 61.4842C244.364 67.7356 239.262 72.4062 230.783 72.4062C226.759 72.4062 222.017 71.2565 218.711 68.7416L218.496 62.059H219.789C221.442 67.52 226.256 70.2505 230.783 70.2505C235.454 70.2505 238.615 67.4482 238.615 62.8494C238.615 59.9752 237.25 56.6698 234.088 53.2926L224.316 42.7299C220.579 38.7059 218.639 34.3946 218.639 30.5863C218.639 24.6222 223.31 19.9516 231.286 19.9516C234.591 19.9516 238.256 20.4546 241.705 21.6762ZM255.597 21.245H262.423V21.5325C262.064 23.4007 262.064 24.263 262.064 28.7899V63.9991C262.064 68.526 262.064 69.3883 262.423 71.2565V71.5439H255.597V71.2565C255.956 69.3883 255.956 68.526 255.956 63.9991V28.7899C255.956 24.263 255.956 23.4007 255.597 21.5325V21.245ZM317.907 27.7839V34.8976H316.613C314.601 26.2749 307.057 21.6762 299.224 21.6762C288.877 21.6762 277.883 29.5084 277.883 46.1071C277.883 63.2087 288.302 70.538 298.434 70.538C306.625 70.538 314.53 65.7236 316.613 57.3165H317.907V64.4302C313.092 69.2446 305.979 72.6936 297.859 72.6936C283.057 72.6936 271.416 60.9093 271.416 46.1071C271.416 31.3048 283.057 19.5205 297.859 19.5205C305.979 19.5205 313.092 22.9696 317.907 27.7839Z" fill="#BC9D89" fill-opacity="0.08"></path><path d="M150.692 163.589H150.842C150.982 163.589 151.112 163.529 151.232 163.409C151.352 163.289 151.452 163.149 151.532 162.989C151.632 162.829 151.702 162.659 151.742 162.479C151.782 162.279 151.802 162.099 151.802 161.939V145.979C151.802 145.839 151.782 145.679 151.742 145.499C151.702 145.319 151.632 145.149 151.532 144.989C151.452 144.809 151.342 144.669 151.202 144.569C151.082 144.449 150.942 144.389 150.782 144.389H150.632V144.089H155.552C157.412 144.089 158.862 144.499 159.902 145.319C160.962 146.139 161.492 147.229 161.492 148.589C161.492 149.169 161.392 149.689 161.192 150.149C160.992 150.609 160.732 151.019 160.412 151.379C160.112 151.739 159.782 152.049 159.422 152.309C159.062 152.549 158.722 152.749 158.402 152.909C159.242 153.069 159.942 153.339 160.502 153.719C161.062 154.099 161.512 154.539 161.852 155.039C162.212 155.519 162.462 156.039 162.602 156.599C162.742 157.159 162.812 157.709 162.812 158.249C162.812 159.289 162.622 160.169 162.242 160.889C161.862 161.589 161.352 162.169 160.712 162.629C160.092 163.069 159.372 163.389 158.552 163.589C157.752 163.789 156.922 163.889 156.062 163.889H150.692V163.589ZM160.772 158.429C160.612 156.889 160.092 155.699 159.212 154.859C158.332 154.019 157.092 153.599 155.492 153.599H153.812V162.899H155.552C157.172 162.899 158.442 162.539 159.362 161.819C160.302 161.079 160.772 160.059 160.772 158.759V158.429ZM159.542 148.859C159.482 147.699 159.072 146.779 158.312 146.099C157.572 145.419 156.572 145.079 155.312 145.079H153.812V152.639H155.372C156.212 152.639 156.892 152.529 157.412 152.309C157.952 152.089 158.382 151.809 158.702 151.469C159.022 151.109 159.242 150.719 159.362 150.299C159.482 149.879 159.542 149.469 159.542 149.069V148.859ZM165.369 163.589H165.519C165.679 163.589 165.819 163.539 165.939 163.439C166.059 163.319 166.159 163.179 166.239 163.019C166.339 162.859 166.409 162.689 166.449 162.509C166.509 162.329 166.539 162.159 166.539 161.999V145.949C166.539 145.809 166.509 145.649 166.449 145.469C166.409 145.289 166.339 145.119 166.239 144.959C166.159 144.799 166.059 144.669 165.939 144.569C165.819 144.449 165.679 144.389 165.519 144.389H165.369V144.089H176.919V146.879H176.619C176.579 146.419 176.399 146.019 176.079 145.679C175.759 145.319 175.259 145.139 174.579 145.139H168.549V152.729H173.529C173.989 152.729 174.369 152.589 174.669 152.309C174.989 152.029 175.149 151.699 175.149 151.319H175.449V155.069H175.149C175.149 154.709 174.999 154.399 174.699 154.139C174.399 153.879 174.009 153.749 173.529 153.749H168.549V162.839H175.119C175.499 162.839 175.829 162.749 176.109 162.569C176.389 162.389 176.619 162.179 176.799 161.939C176.999 161.679 177.139 161.409 177.219 161.129C177.319 160.829 177.369 160.579 177.369 160.379H177.669V163.889H165.369V163.589ZM198.38 162.839V166.589H198.08C198.06 166.329 197.99 166.039 197.87 165.719C197.75 165.399 197.58 165.099 197.36 164.819C197.16 164.559 196.92 164.339 196.64 164.159C196.36 163.979 196.05 163.889 195.71 163.889H181.88C181.54 163.889 181.23 163.979 180.95 164.159C180.67 164.359 180.42 164.589 180.2 164.849C180 165.129 179.83 165.429 179.69 165.749C179.57 166.069 179.5 166.349 179.48 166.589H179.18V162.839H180.5C181.14 162.839 181.59 162.469 181.85 161.729L188.75 143.639L195.71 161.639C195.85 161.939 196.04 162.219 196.28 162.479C196.52 162.719 196.8 162.839 197.12 162.839H198.38ZM182.51 162.839H194.06L188.27 147.929L182.51 162.839ZM199.679 144.089H203.849V144.389H203.669C203.449 144.389 203.299 144.459 203.219 144.599C203.139 144.719 203.099 144.849 203.099 144.989C203.099 145.089 203.109 145.179 203.129 145.259C203.149 145.339 203.169 145.399 203.189 145.439L208.319 156.659L212.909 145.769C212.929 145.729 212.959 145.649 212.999 145.529C213.039 145.389 213.059 145.259 213.059 145.139C213.059 144.859 212.959 144.669 212.759 144.569C212.559 144.449 212.409 144.389 212.309 144.389V144.089H215.519V144.389C215.159 144.389 214.879 144.489 214.679 144.689C214.499 144.869 214.359 145.059 214.259 145.259L207.059 162.479C206.819 163.059 206.499 163.489 206.099 163.769C205.699 164.029 205.269 164.159 204.809 164.159C204.509 164.159 204.239 164.109 203.999 164.009C203.759 163.929 203.549 163.829 203.369 163.709C203.189 163.589 203.049 163.479 202.949 163.379C202.869 163.279 202.829 163.229 202.829 163.229L203.579 161.579C203.739 161.959 203.949 162.259 204.209 162.479C204.469 162.679 204.739 162.779 205.019 162.779C205.199 162.779 205.379 162.719 205.559 162.599C205.759 162.459 205.929 162.249 206.069 161.969L207.239 159.119L200.999 145.349C200.719 144.749 200.279 144.429 199.679 144.389V144.089ZM217.197 163.589H217.347C217.527 163.589 217.667 163.539 217.767 163.439C217.887 163.319 217.977 163.179 218.037 163.019C218.117 162.859 218.167 162.689 218.187 162.509C218.227 162.329 218.247 162.169 218.247 162.029V146.039C218.247 145.899 218.227 145.739 218.187 145.559C218.167 145.359 218.117 145.179 218.037 145.019C217.957 144.839 217.857 144.689 217.737 144.569C217.637 144.449 217.497 144.389 217.317 144.389H217.167V144.089H221.277V144.389H221.127C220.967 144.389 220.827 144.449 220.707 144.569C220.587 144.689 220.487 144.839 220.407 145.019C220.347 145.179 220.297 145.359 220.257 145.559C220.237 145.739 220.227 145.899 220.227 146.039V162.839H227.457V146.039C227.457 145.899 227.437 145.739 227.397 145.559C227.377 145.379 227.327 145.209 227.247 145.049C227.187 144.869 227.097 144.719 226.977 144.599C226.857 144.479 226.717 144.409 226.557 144.389H226.377V144.089H230.487V144.389H230.337C230.177 144.389 230.037 144.449 229.917 144.569C229.817 144.689 229.727 144.829 229.647 144.989C229.587 145.149 229.537 145.319 229.497 145.499C229.457 145.659 229.437 145.789 229.437 145.889V162.839H236.637V146.039C236.637 145.899 236.617 145.739 236.577 145.559C236.557 145.359 236.507 145.179 236.427 145.019C236.347 144.839 236.247 144.689 236.127 144.569C236.027 144.449 235.887 144.389 235.707 144.389H235.557V144.089H239.667V144.389H239.457C239.137 144.429 238.917 144.649 238.797 145.049C238.677 145.429 238.617 145.759 238.617 146.039V161.219C238.617 161.619 238.717 161.989 238.917 162.329C239.117 162.669 239.467 162.839 239.967 162.839H241.437V166.589H241.137C241.117 166.289 241.037 165.979 240.897 165.659C240.757 165.339 240.577 165.049 240.357 164.789C240.137 164.529 239.877 164.309 239.577 164.129C239.277 163.969 238.947 163.889 238.587 163.889H217.197V163.589ZM254.7 163.589H254.85C255.33 163.589 255.57 163.369 255.57 162.929C255.57 162.769 255.54 162.599 255.48 162.419L252.78 155.129H247.53L244.92 162.299C244.86 162.459 244.83 162.609 244.83 162.749C244.83 163.009 244.9 163.219 245.04 163.379C245.18 163.519 245.33 163.589 245.49 163.589H245.64V163.889H242.31V163.589H242.46C242.72 163.589 242.97 163.439 243.21 163.139C243.47 162.819 243.68 162.449 243.84 162.029L250.71 143.729L257.43 161.849C257.57 162.249 257.76 162.639 258 163.019C258.26 163.399 258.59 163.589 258.99 163.589H259.14V163.889H254.7V163.589ZM247.83 154.109H252.45L250.14 147.839L247.83 154.109ZM270.626 163.589H270.776C270.916 163.589 271.046 163.529 271.166 163.409C271.306 163.289 271.416 163.149 271.496 162.989C271.576 162.829 271.636 162.659 271.676 162.479C271.736 162.279 271.766 162.099 271.766 161.939V153.809C271.326 153.849 270.906 153.989 270.506 154.229C270.126 154.469 269.756 154.789 269.396 155.189C269.056 155.589 268.726 156.039 268.406 156.539C268.106 157.039 267.816 157.559 267.536 158.099C267.316 158.499 267.076 158.929 266.816 159.389C266.556 159.829 266.296 160.279 266.036 160.739C265.556 161.619 264.926 162.369 264.146 162.989C263.366 163.589 262.466 163.889 261.446 163.889H259.856V163.589C260.316 163.589 260.746 163.489 261.146 163.289C261.566 163.089 261.946 162.839 262.286 162.539C262.626 162.239 262.926 161.909 263.186 161.549C263.466 161.189 263.696 160.849 263.876 160.529L266.246 156.269C266.526 155.789 266.826 155.329 267.146 154.889C267.486 154.429 267.996 154.059 268.676 153.779C267.836 153.719 267.086 153.559 266.426 153.299C265.766 153.039 265.206 152.699 264.746 152.279C264.286 151.859 263.936 151.389 263.696 150.869C263.456 150.329 263.336 149.769 263.336 149.189C263.336 148.449 263.506 147.769 263.846 147.149C264.186 146.509 264.666 145.969 265.286 145.529C265.906 145.069 266.656 144.719 267.536 144.479C268.436 144.219 269.436 144.089 270.536 144.089H274.856V144.389H274.706C274.566 144.389 274.436 144.449 274.316 144.569C274.196 144.669 274.096 144.799 274.016 144.959C273.936 145.119 273.876 145.289 273.836 145.469C273.796 145.649 273.776 145.809 273.776 145.949V161.939C273.776 162.099 273.796 162.279 273.836 162.479C273.876 162.659 273.936 162.829 274.016 162.989C274.096 163.149 274.196 163.289 274.316 163.409C274.436 163.529 274.566 163.589 274.706 163.589H274.856V163.889H270.626V163.589ZM265.226 148.739C265.226 149.319 265.346 149.859 265.586 150.359C265.826 150.839 266.156 151.259 266.576 151.619C266.996 151.979 267.486 152.259 268.046 152.459C268.606 152.659 269.216 152.759 269.876 152.759H271.766V145.109H271.316C269.376 145.109 267.876 145.429 266.816 146.069C265.756 146.709 265.226 147.599 265.226 148.739Z" fill="#FFFCF4"></path><path d="M163.14 184.917L163.44 183.357H164.08L163.22 187.797C163.127 188.224 163.08 188.551 163.08 188.777C163.08 189.057 163.16 189.304 163.32 189.517C163.48 189.731 163.713 189.837 164.02 189.837C164.713 189.837 165.313 189.417 165.82 188.577C166.34 187.737 166.6 186.751 166.6 185.617C166.6 184.031 166.053 182.751 164.96 181.777C163.867 180.791 162.513 180.297 160.9 180.297C159.14 180.297 157.66 180.897 156.46 182.097C155.273 183.297 154.68 184.771 154.68 186.517C154.68 187.797 155.013 188.977 155.68 190.057C156.36 191.137 157.28 191.904 158.44 192.357C159.253 192.677 160.18 192.837 161.22 192.837C162.673 192.837 163.907 192.584 164.92 192.077C165.307 191.891 165.553 191.771 165.66 191.717L165.9 192.297C165.127 192.697 164.333 192.991 163.52 193.177C162.733 193.351 161.96 193.437 161.2 193.437C159.107 193.437 157.38 192.791 156.02 191.497C154.673 190.204 154 188.557 154 186.557C154 184.624 154.667 182.997 156 181.677C157.333 180.357 158.967 179.697 160.9 179.697C162.647 179.697 164.133 180.251 165.36 181.357C166.587 182.451 167.2 183.871 167.2 185.617C167.2 186.964 166.867 188.097 166.2 189.017C165.547 189.937 164.813 190.397 164 190.397C163.573 190.397 163.22 190.264 162.94 189.997C162.673 189.717 162.553 189.364 162.58 188.937C162.313 189.417 161.953 189.791 161.5 190.057C161.047 190.311 160.567 190.437 160.06 190.437C159.22 190.437 158.547 190.131 158.04 189.517C157.533 188.891 157.28 188.124 157.28 187.217C157.28 186.084 157.607 185.117 158.26 184.317C158.927 183.504 159.767 183.097 160.78 183.097C160.927 183.097 161.073 183.111 161.22 183.137C161.367 183.164 161.58 183.224 161.86 183.317C162.153 183.411 162.413 183.597 162.64 183.877C162.867 184.144 163.033 184.491 163.14 184.917ZM160.16 189.797C160.88 189.797 161.493 189.457 162 188.777C162.52 188.084 162.78 187.177 162.78 186.057C162.78 185.857 162.76 185.664 162.72 185.477C162.693 185.277 162.62 185.031 162.5 184.737C162.393 184.431 162.193 184.191 161.9 184.017C161.62 183.831 161.267 183.737 160.84 183.737C159.973 183.737 159.28 184.084 158.76 184.777C158.24 185.457 157.98 186.264 157.98 187.197C157.98 188.011 158.193 188.651 158.62 189.117C159.06 189.571 159.573 189.797 160.16 189.797ZM170.689 179.837V186.117L176.989 179.837H178.149L171.689 186.217L178.529 193.177H177.329L171.049 186.817L170.689 187.157V193.177H169.809V179.837H170.689ZM189.289 193.177L187.509 188.797H181.829L180.049 193.177H179.089L184.709 179.437L190.249 193.177H189.289ZM182.149 187.997H187.189L184.689 181.677L182.149 187.997ZM197.807 180.637H194.347V193.177H193.467V180.637H190.007V179.837H197.807V180.637ZM206.287 179.837V180.637H200.767V185.477H206.167V186.277H200.767V192.377H206.287V193.177H199.887V179.837H206.287ZM219.844 181.397V182.557C219.271 181.891 218.591 181.377 217.804 181.017C217.031 180.644 216.211 180.457 215.344 180.457C213.651 180.457 212.231 181.051 211.084 182.237C209.937 183.424 209.364 184.871 209.364 186.577C209.364 187.524 209.544 188.391 209.904 189.177C210.277 189.964 210.757 190.604 211.344 191.097C211.944 191.577 212.591 191.951 213.284 192.217C213.977 192.471 214.671 192.597 215.364 192.597C216.111 192.597 216.884 192.437 217.684 192.117C218.484 191.784 219.204 191.271 219.844 190.577V191.737C218.591 192.844 217.111 193.397 215.404 193.397C213.431 193.397 211.777 192.724 210.444 191.377C209.111 190.031 208.444 188.417 208.444 186.537C208.444 184.617 209.117 182.991 210.464 181.657C211.811 180.324 213.444 179.657 215.364 179.657C217.124 179.657 218.617 180.237 219.844 181.397ZM223.599 179.837V185.497H231.679V179.837H232.559V193.177H231.679V186.297H223.599V193.177H222.719V179.837H223.599ZM237.036 179.837V186.117L243.336 179.837H244.496L238.036 186.217L244.876 193.177H243.676L237.396 186.817L237.036 187.157V193.177H236.156V179.837H237.036ZM255.637 193.177L253.857 188.797H248.177L246.397 193.177H245.437L251.057 179.437L256.597 193.177H255.637ZM248.497 187.997H253.537L251.037 181.677L248.497 187.997ZM265.636 187.577V186.777H271.236C271.236 188.537 270.782 189.997 269.876 191.157C268.702 192.651 267.029 193.397 264.856 193.397C262.882 193.397 261.236 192.751 259.916 191.457C258.609 190.164 257.956 188.524 257.956 186.537C257.956 184.577 258.622 182.944 259.956 181.637C261.302 180.317 262.956 179.657 264.916 179.657C266.449 179.657 267.842 180.137 269.096 181.097C269.709 181.577 270.242 182.137 270.696 182.777L269.996 183.337C269.676 182.791 269.249 182.297 268.716 181.857C267.596 180.924 266.322 180.457 264.896 180.457C263.189 180.457 261.756 181.051 260.596 182.237C259.449 183.424 258.876 184.871 258.876 186.577C258.876 188.257 259.442 189.684 260.576 190.857C261.709 192.017 263.129 192.597 264.836 192.597C265.889 192.597 266.822 192.377 267.636 191.937C268.462 191.484 269.076 190.951 269.476 190.337C270.009 189.511 270.302 188.591 270.356 187.577H265.636Z" fill="#B2907B"></path><path d="M241.506 79.9258C232.912 83.0533 229.436 94.0689 231.217 102.439C232.187 95.1489 233.908 87.5758 239.137 82.1346L239.694 81.5589L240.283 81.0096C240.662 80.6402 241.117 80.2858 241.506 79.9258ZM230.059 81.3321C231.666 79.7627 232.986 78.1446 234.538 76.5996C236.064 75.0264 237.639 73.7158 239.28 72.1802C234.742 72.6396 230.717 76.8902 230.059 81.3321ZM227.499 87.5964C225.559 88.4477 224.649 91.0746 225.632 92.9458C227.115 91.6408 227.857 89.5408 227.499 87.5964ZM186.234 96.5571C186.624 96.9171 187.08 97.2714 187.459 97.6427L188.047 98.1921L188.604 98.7677C193.834 104.207 195.555 111.782 196.524 119.072C198.306 110.698 194.829 99.6846 186.234 96.5571ZM197.683 97.9633C197.025 93.5196 192.999 89.2708 188.462 88.8114C189.307 89.6233 190.136 90.3189 190.922 91.0446C192.508 92.4808 193.942 93.9546 195.384 95.5408C196.117 96.3302 196.836 97.1552 197.683 97.9633ZM202.108 109.577C203.091 107.704 202.181 105.077 200.241 104.228C199.884 106.172 200.627 108.272 202.108 109.577ZM234.382 43.0164C233.143 43.3596 233.137 44.0177 234.382 44.3608C235.627 44.0177 235.622 43.3596 234.382 43.0164ZM234.382 49.8996C235.627 49.5564 235.622 48.9002 234.382 48.5552C233.143 48.9002 233.136 49.5564 234.382 49.8996ZM237.823 46.4589C237.48 45.2196 236.822 45.2139 236.479 46.4589C236.822 47.7039 237.48 47.6983 237.823 46.4589ZM232.284 46.4589C231.941 45.2196 231.283 45.2139 230.94 46.4589C231.283 47.7039 231.941 47.6983 232.284 46.4589ZM224.766 106.136C223.526 106.48 223.521 107.138 224.766 107.481C226.012 107.138 226.007 106.48 224.766 106.136ZM224.766 111.675C223.526 112.018 223.521 112.676 224.766 113.02C226.012 112.676 226.007 112.018 224.766 111.675ZM228.208 109.577C227.865 108.338 227.207 108.332 226.864 109.577C227.207 110.824 227.865 110.818 228.208 109.577ZM222.669 109.577C222.326 108.338 221.668 108.332 221.325 109.577C221.668 110.824 222.324 110.818 222.669 109.577ZM187.491 56.4039C186.251 56.7471 186.246 57.4052 187.491 57.7483C188.736 57.4052 188.73 56.7471 187.491 56.4039ZM187.491 63.2871C188.736 62.9439 188.73 62.2877 187.491 61.9427C186.251 62.2858 186.246 62.9439 187.491 63.2871ZM190.933 59.8446C190.59 58.6052 189.932 58.5996 189.589 59.8446C189.93 61.0896 190.588 61.0839 190.933 59.8446ZM185.392 59.8446C185.049 58.6052 184.391 58.5996 184.048 59.8446C184.391 61.0896 185.049 61.0839 185.392 59.8446ZM225.915 51.2739C225.855 50.8858 225.78 50.4977 225.711 50.1039L225.384 48.9527C225.247 48.5777 225.097 48.2064 224.949 47.8296C223.447 44.4546 220.511 41.7621 217.02 40.5077C216.234 40.2313 215.428 40.0156 214.609 39.8627C214.196 39.8083 213.784 39.7464 213.369 39.7014L212.121 39.6433C210.472 39.6677 208.768 39.9433 207.221 40.5096C202.77 42.0939 199.236 46.0689 198.411 50.7246C198.186 50.7246 197.957 50.7227 197.732 50.7227C196.123 50.7002 194.657 52.0577 194.593 53.6721C194.576 53.9233 194.599 54.9864 194.601 55.2546C194.608 55.6596 194.619 56.7021 194.632 57.0939C194.644 58.7421 196.142 60.1427 197.769 60.0639C197.872 60.0602 197.983 60.0583 198.092 60.0546C197.52 61.4664 198.156 63.1596 199.416 63.9471C199.341 64.1158 199.312 64.3089 199.354 64.5021L199.789 66.6921L200.239 68.8783C200.277 69.0855 200.387 69.2725 200.549 69.4064C200.712 69.5402 200.917 69.6122 201.127 69.6096C201.787 69.6021 202.449 69.5908 203.109 69.5796C203.167 70.9371 203.235 72.2946 203.31 73.6521C203.736 81.2889 204.309 88.9164 204.969 96.5364C205.159 98.8183 205.573 103.393 205.785 105.675C205.83 106.142 206.226 106.511 206.704 106.508L208.472 106.511C208.324 107.065 208.211 107.62 208.114 108.184C207.868 109.523 208.892 110.854 210.261 111.047C210.859 111.101 211.466 111.118 212.074 111.115C211.922 111.553 211.742 111.964 211.507 112.337C211.318 112.658 211.091 112.969 210.874 113.331C210.285 114.251 210.011 115.41 210 116.505C209.979 117.188 210.052 117.865 210.257 118.532C210.489 119.331 210.943 120.004 211.191 120.724C211.361 121.187 211.449 121.714 211.487 122.218C211.566 123.101 211.511 123.988 211.217 124.832C211.101 125.19 210.952 125.582 210.846 126C210.626 126.825 210.649 127.686 210.853 128.505C211.061 127.706 211.303 126.973 211.699 126.345C212.259 125.492 212.889 124.551 213.071 123.49C213.272 122.38 213.283 121.241 212.951 120.148C212.715 119.35 212.265 118.676 212.016 117.956C211.783 117.325 211.71 116.605 211.689 115.926C211.607 114.765 212.031 113.786 212.359 112.678C212.497 112.163 212.539 111.632 212.503 111.107C212.814 111.101 213.124 111.092 213.433 111.081C214.922 111.137 216.247 109.922 216.144 108.435C216.139 108.373 216.131 108.24 216.116 108.18C216.019 107.618 215.908 107.061 215.76 106.508C216.538 106.506 217.53 106.504 217.53 106.504C218.001 106.508 218.406 106.15 218.451 105.67C218.848 101.383 219.322 96.0921 219.667 91.8246C220.273 84.2139 220.851 76.4458 221.181 68.8277C221.824 68.7864 222.467 68.7452 223.11 68.7002C216.039 68.2596 208.944 67.8996 201.885 67.8058C201.742 67.0389 201.562 66.0752 201.405 65.2521C203.002 65.2521 204.598 65.2464 206.196 65.2277C211.999 65.1677 217.8 65.0064 223.596 64.6652C223.427 65.9964 223.288 67.3333 223.11 68.7002L223.691 66.6002C223.886 65.8783 224.098 65.1377 224.286 64.3802C224.308 64.2939 224.289 64.2077 224.242 64.1364C225.81 63.4446 226.624 61.4158 225.838 59.8389C224.385 60.7727 223.592 62.2783 223.661 63.9733C221.788 63.8646 219.915 63.7652 218.042 63.6939C214.093 63.5383 210.144 63.4446 206.194 63.4071C204.244 63.3846 202.296 63.3789 200.346 63.3827C200.237 62.0439 199.584 60.8571 198.472 60.0377C201.036 59.9589 204.681 59.8239 207.043 59.7302C213.446 59.4696 220.116 59.2539 226.506 59.2633C221.64 59.2652 216.772 59.1564 211.909 58.9839C207.902 58.8321 202.517 58.6146 198.529 58.4927C198.39 58.4871 197.829 58.4721 197.706 58.4664C197.107 58.4458 196.566 57.9883 196.423 57.4296C196.352 57.1933 196.387 56.7152 196.387 56.4696C196.393 55.8639 196.419 54.6433 196.419 54.0377C196.367 53.2727 196.957 52.5902 197.73 52.5958C200.974 52.5958 204.217 52.5546 207.461 52.4702C210.294 52.3933 214.318 52.2489 217.192 52.1308C218.769 52.0689 222.975 51.9058 224.492 51.8627L225.709 51.8233C226.041 51.8158 226.584 51.7764 226.899 51.8271C227.655 51.9433 228.337 52.5152 228.572 53.2708C228.697 53.6533 228.675 54.0583 228.684 54.4577L228.703 55.6746C228.694 56.0927 228.759 57.0921 228.677 57.4933C228.486 58.5039 227.535 59.2764 226.507 59.2689C227.542 59.2839 228.493 58.5096 228.701 57.4989C228.787 57.0883 228.754 56.1039 228.769 55.6746L228.787 54.4577C228.791 54.0471 228.829 53.6289 228.712 53.2296C228.486 52.4102 227.788 51.7464 226.948 51.5739C226.618 51.4971 226.027 51.5177 225.711 51.4971L224.494 51.4577C222.96 51.4146 218.773 51.2533 217.194 51.1896C211.065 50.9402 204.694 50.7302 198.553 50.7246C203.944 38.3064 220.858 38.4864 225.915 51.2739ZM204.694 80.3552C209.051 81.4408 215.182 81.4483 219.538 80.3589C219.086 83.7996 218.662 87.2458 218.259 90.6846C214.629 89.7114 209.606 89.7058 205.982 90.6846C205.571 87.2196 205.142 83.7658 204.694 80.3552ZM215.001 107.966L214.963 108.186C214.888 108.78 214.367 109.283 213.772 109.283C212.951 109.245 212.064 109.226 211.245 109.251L210.471 109.279C209.944 109.275 209.467 108.885 209.323 108.366L209.301 108.291C209.265 108.083 209.211 107.736 209.164 107.524C209.094 107.186 209.017 106.849 208.927 106.51L212.122 106.517L215.321 106.51C215.192 106.995 215.091 107.479 215.001 107.966ZM217.614 96.2814C217.382 98.3271 216.956 102.206 216.699 104.657L212.121 104.646C212.121 104.646 208.731 104.653 207.54 104.657C207.065 100.145 206.563 95.6353 206.034 91.1289C209.64 92.0889 214.601 92.0814 218.207 91.1271C218.006 92.8483 217.807 94.5677 217.614 96.2814ZM219.572 80.0983C215.201 78.9977 209.027 79.0071 204.66 80.1021C204.574 79.4514 204.489 78.7989 204.401 78.1539C204.015 75.2927 203.614 72.4333 203.169 69.5796C209.177 69.4802 215.19 69.2214 221.169 68.8333C220.596 72.5664 220.067 76.3296 219.572 80.0983ZM185.94 71.2914C185.961 71.8521 186.022 72.9789 186.054 73.5396C186.204 75.8008 186.396 78.0414 186.778 80.2858C187.039 78.7858 187.196 77.2877 187.333 75.7877C187.444 74.5108 187.534 73.1271 187.594 71.8183C190.037 70.6014 192.441 69.3058 194.799 67.9314C194.814 68.2052 194.829 68.4808 194.846 68.7546C194.996 70.9933 195.189 73.2639 195.566 75.4821C195.885 73.6258 196.061 71.7414 196.209 69.8758C196.286 68.7921 196.361 67.5902 196.401 66.5121C196.438 65.9139 195.761 65.4677 195.227 65.7508C192.963 66.8651 190.733 68.0469 188.541 69.2946C187.815 69.7033 187.097 70.1271 186.379 70.5546C186.109 70.6933 185.925 70.9689 185.94 71.2914ZM180.127 80.0496C178.479 81.9546 179.617 84.6002 182.132 84.7164C183.932 84.7821 185.533 83.7133 186.392 82.2583C186.776 81.5833 186.967 80.7452 186.656 80.0139C186.964 80.7302 186.688 81.5627 186.184 82.1102C185.254 83.1452 183.602 83.4752 182.362 83.1189C180.24 82.5246 181.447 80.4114 182.766 79.5508C183.883 78.7427 185.966 78.5289 186.656 80.0139C186.339 79.2846 185.602 78.8458 184.847 78.6583C183.201 78.2758 181.318 78.6958 180.127 80.0496Z" fill="#FFFCF4"></path><path d="M195.259 77.5521C195.608 76.9259 195.778 76.159 195.493 75.484C195.776 76.1421 195.519 76.9071 195.051 77.404C194.196 78.3396 192.673 78.6134 191.559 78.2721C190.611 77.9946 190.314 77.2952 190.766 76.4177C191.286 75.3771 192.531 74.4602 193.796 74.4846C194.479 74.4865 195.21 74.8277 195.493 75.4859C195.203 74.8146 194.528 74.4096 193.834 74.2296C192.311 73.8621 190.56 74.2277 189.443 75.4802C187.883 77.2634 188.963 79.774 191.329 79.8696C193.005 79.9184 194.475 78.9059 195.259 77.5521ZM245.008 49.7852C242.745 50.8995 240.515 52.0813 238.322 53.329C237.596 53.7377 236.878 54.1615 236.16 54.589C235.892 54.7277 235.706 55.0034 235.723 55.3259C235.744 55.8865 235.806 57.0134 235.838 57.5759C235.988 59.8371 236.179 62.0777 236.561 64.3221C236.822 62.8221 236.979 61.324 237.116 59.824C237.227 58.5471 237.317 57.1634 237.377 55.8546C239.82 54.6377 242.224 53.3421 244.583 51.9677C244.598 52.2415 244.613 52.5171 244.629 52.7909C244.779 55.0296 244.973 57.3002 245.349 59.5184C245.668 57.6621 245.844 55.7777 245.993 53.9121C246.069 52.8284 246.144 51.6265 246.184 50.5484C246.219 49.9502 245.543 49.504 245.008 49.7852ZM229.911 64.084C228.263 65.989 229.401 68.6346 231.915 68.7509C233.715 68.8165 235.316 67.7477 236.175 66.2927C236.559 65.6177 236.751 64.7796 236.439 64.0484C236.747 64.7646 236.471 65.5971 235.967 66.1446C235.037 67.1796 233.385 67.5096 232.146 67.1534C230.023 66.559 231.231 64.4459 232.549 63.5852C233.666 62.7771 235.749 62.5634 236.439 64.0484C236.123 63.319 235.386 62.8802 234.63 62.6927C232.984 62.3084 231.101 62.7302 229.911 64.084Z" fill="#FFFCF4"></path><path d="M244.834 61.4384C243.979 62.374 242.456 62.6478 241.342 62.3065C240.394 62.029 240.097 61.3296 240.549 60.4521C241.069 59.4115 242.314 58.4946 243.579 58.519C244.262 58.5209 244.993 58.8621 245.276 59.5203C244.986 58.849 244.311 58.444 243.617 58.264C242.094 57.8965 240.343 58.2621 239.226 59.5146C237.666 61.2978 238.746 63.8084 241.112 63.904C242.788 63.9546 244.258 62.9421 245.042 61.5865C245.391 60.9603 245.561 60.1934 245.276 59.5184C245.559 60.1765 245.302 60.9415 244.834 61.4384Z" fill="#FFFCF4"></path></svg> 