<?xml version="1.0" encoding="UTF-8"?> <svg xmlns="http://www.w3.org/2000/svg" width="40" height="150" viewBox="0 0 40 150" fill="none"><path d="M21.3449 129.082C23.2768 124.095 25.7375 110.447 20.1248 95.7572C14.5121 81.0669 17.8707 71.0656 20.5722 64.1188C22.458 59.2695 22.1886 52.3548 21.5918 47.2124" stroke="#BC9D89" stroke-width="1.3"></path><path d="M19.243 26.9265L18.7449 26.9705C18.7665 27.2151 18.9626 27.4078 19.2075 27.4253C19.4524 27.4427 19.6738 27.2796 19.7298 27.0405L19.243 26.9265ZM35.1717 1.49468L35.2154 0.996594L35.1717 1.49468ZM21.7074 48.2496L21.4055 48.6482C21.6256 48.8149 21.9391 48.7716 22.1059 48.5516L21.7074 48.2496ZM19.243 26.9265L19.7298 27.0405C20.7504 22.6837 22.7668 16.1964 25.4906 10.8961C26.8536 8.24401 28.3791 5.91811 30.0241 4.3039C31.6711 2.68781 33.3791 1.83943 35.128 1.99277L35.1717 1.49468L35.2154 0.996594C33.0561 0.807281 31.0755 1.8712 29.3237 3.59014C27.5701 5.31096 25.9868 7.74282 24.6012 10.439C21.828 15.8353 19.7882 22.4065 18.7561 26.8125L19.243 26.9265ZM35.1717 1.49468L35.128 1.99277C36.2054 2.08723 36.9771 2.55633 37.5184 3.33507C38.0745 4.13509 38.41 5.29668 38.51 6.79502C38.71 9.79228 37.9562 13.9394 36.4772 18.6439C33.5236 28.0385 27.7411 39.4615 21.309 47.9476L21.7074 48.2496L22.1059 48.5516C28.6087 39.9724 34.4436 28.4462 37.4311 18.9438C38.9226 14.1999 39.7202 9.91156 39.5078 6.72842C39.4015 5.13657 39.0397 3.77171 38.3395 2.76431C37.6244 1.73562 36.5806 1.11629 35.2154 0.996594L35.1717 1.49468ZM21.7074 48.2496L22.0093 47.851C15.1618 42.6646 7.6036 32.7271 3.90145 24.1374C2.0441 19.828 1.20258 15.9593 1.80883 13.2292C2.10733 11.885 2.75231 10.8335 3.79289 10.1177C4.84238 9.39584 6.34711 8.97937 8.42605 9.01644L8.43496 8.51652L8.44388 8.0166C6.23195 7.97716 4.50058 8.41722 3.22617 9.29381C1.94286 10.1765 1.17616 11.4654 0.832612 13.0124C0.15479 16.0648 1.10778 20.1821 2.98311 24.5332C6.7463 33.2646 14.4061 43.3467 21.4055 48.6482L21.7074 48.2496ZM8.43496 8.51652L8.42605 9.01644C9.89841 9.04269 12.1886 10.2845 14.2816 13.2139C16.3558 16.1171 18.1832 20.6153 18.7449 26.9705L19.243 26.9265L19.741 26.8825C19.1665 20.3816 17.2905 15.7051 15.0952 12.6325C12.9186 9.58613 10.3729 8.051 8.44388 8.0166L8.43496 8.51652Z" fill="#BC9D89"></path><path d="M22.2636 138.194L22.762 138.154C22.7422 137.909 22.5476 137.715 22.3028 137.696C22.0579 137.677 21.8354 137.838 21.7776 138.077L22.2636 138.194ZM15.3659 149.028L15.3186 149.526L15.3659 149.028ZM21.2764 129.061L21.5812 128.664C21.3624 128.496 21.0485 128.537 20.8801 128.756L21.2764 129.061ZM22.2636 138.194L21.7776 138.077C21.3304 139.924 20.4538 142.67 19.2856 144.903C18.7004 146.021 18.0569 146.981 17.3791 147.636C16.6993 148.294 16.044 148.59 15.4133 148.53L15.3659 149.028L15.3186 149.526C16.3593 149.625 17.2888 149.115 18.0742 148.355C18.8614 147.594 19.5635 146.528 20.1716 145.366C21.3899 143.038 22.2905 140.208 22.7496 138.312L22.2636 138.194ZM15.3659 149.028L15.4133 148.53C15.0347 148.494 14.7835 148.335 14.6035 148.072C14.4088 147.787 14.276 147.347 14.2395 146.732C14.1665 145.502 14.4894 143.77 15.1337 141.772C16.4176 137.792 18.9133 132.951 21.6726 129.366L21.2764 129.061L20.8801 128.756C18.0495 132.433 15.5006 137.377 14.182 141.465C13.525 143.502 13.1572 145.375 13.2412 146.791C13.2833 147.5 13.4409 148.143 13.7781 148.636C14.1301 149.151 14.6524 149.462 15.3186 149.526L15.3659 149.028ZM21.2764 129.061L20.9715 129.457C23.8425 131.665 27.0171 135.9 28.5572 139.548C29.3334 141.386 29.6499 142.973 29.403 144.047C29.2843 144.564 29.0402 144.944 28.6624 145.2C28.2756 145.462 27.6951 145.629 26.8435 145.608L26.8309 146.108L26.8183 146.607C27.8029 146.632 28.6101 146.443 29.223 146.028C29.8448 145.607 30.2123 144.99 30.3775 144.271C30.6985 142.875 30.2723 141.039 29.4784 139.159C27.8783 135.369 24.6032 130.989 21.5812 128.664L21.2764 129.061ZM26.8309 146.108L26.8435 145.608C26.3441 145.595 25.4403 145.141 24.5775 143.914C23.7332 142.714 22.9789 140.834 22.762 138.154L22.2636 138.194L21.7652 138.235C21.9939 141.06 22.7955 143.119 23.7596 144.489C24.7051 145.834 25.8622 146.583 26.8183 146.607L26.8309 146.108Z" fill="#BC9D89"></path></svg> 