<?xml version="1.0" encoding="UTF-8"?> <svg xmlns="http://www.w3.org/2000/svg" width="227" height="24" viewBox="0 0 227 24" fill="none"><path d="M4.62051 1.07328C8.94051 0.833281 11.9405 0.779948 13.6205 0.913281C15.3005 1.04661 16.3805 1.44661 16.8605 2.11328C17.1805 2.56661 17.2872 4.87328 17.1805 9.03328C17.0738 13.6199 17.0205 16.4599 17.0205 17.5533C17.0205 19.4199 16.6472 20.3133 15.9005 20.2333C15.6605 20.2066 15.4072 20.0733 15.1405 19.8333C14.9005 19.6199 14.7538 18.9933 14.7005 17.9533C14.6472 16.9133 14.6472 14.7533 14.7005 11.4733L14.8205 3.59328L13.3805 3.35328C12.2605 3.19328 10.7405 3.20661 8.82051 3.39328L5.74051 3.63328L5.98051 5.47328C6.11384 6.61995 6.20717 9.21995 6.26051 13.2733C6.31384 16.9799 6.15384 19.0599 5.78051 19.5133C5.56718 19.8066 5.15384 19.7933 4.54051 19.4733C4.22051 19.2866 4.02051 18.8066 3.94051 18.0333C3.86051 17.2599 3.82051 15.3533 3.82051 12.3133C3.82051 7.77995 3.70051 5.20661 3.46051 4.59328C3.22051 3.95328 2.67384 3.55328 1.82051 3.39328C1.28717 3.25995 0.953841 3.12661 0.820508 2.99328C0.687175 2.83328 0.647175 2.57995 0.700508 2.23328C0.753841 1.80661 0.967175 1.53995 1.34051 1.43328C1.71384 1.32661 2.80717 1.20661 4.62051 1.07328ZM24.6243 4.91328C25.2109 4.48661 26.3709 4.31328 28.1043 4.39328C29.2243 4.47328 29.9843 4.59328 30.3843 4.75328C30.8109 4.91328 31.2776 5.27328 31.7843 5.83328C32.2909 6.41995 32.6109 6.92661 32.7443 7.35328C32.8776 7.77995 32.9443 8.56661 32.9443 9.71328C32.9443 12.2733 32.3443 14.2199 31.1443 15.5533C29.9443 16.8599 28.2109 17.5133 25.9443 17.5133H24.1443V19.6733C24.1443 21.0066 24.0509 21.9133 23.8643 22.3933C23.7043 22.8733 23.3976 23.1133 22.9443 23.1133C22.4643 23.1133 22.1443 22.8599 21.9843 22.3533C21.8243 21.8466 21.7443 20.8333 21.7443 19.3133C21.7443 17.6866 21.5443 16.6866 21.1443 16.3133C20.6643 15.9399 20.4509 15.3133 20.5043 14.4333C20.5309 13.8733 20.6909 13.5933 20.9843 13.5933C21.0109 13.6199 21.0509 13.6333 21.1043 13.6333C21.5043 13.7933 21.7976 12.9533 21.9843 11.1133C22.0909 10.2599 22.1443 9.27328 22.1443 8.15328C22.1443 6.07328 22.4509 5.08661 23.0643 5.19328C23.1443 5.19328 23.2243 5.21995 23.3043 5.27328C23.5976 5.45995 24.0376 5.33995 24.6243 4.91328ZM29.6643 6.95328C28.9443 6.44661 28.0776 6.23328 27.0643 6.31328C26.0776 6.39328 25.3043 6.72661 24.7443 7.31328C24.2643 7.73995 23.9709 8.19328 23.8643 8.67328C23.7843 9.12661 23.7443 10.1399 23.7443 11.7133V15.1133H25.3043C27.1709 15.1133 28.5043 14.6866 29.3043 13.8333C30.1309 12.9799 30.5443 11.5533 30.5443 9.55328C30.5443 8.75328 30.4776 8.17995 30.3443 7.83328C30.2376 7.48661 30.0109 7.19328 29.6643 6.95328ZM37.5274 4.87328C38.1407 4.28661 38.634 3.91328 39.0074 3.75328C39.4074 3.59328 40.0474 3.51328 40.9274 3.51328C43.114 3.51328 44.7674 4.15328 45.8874 5.43328C46.2607 5.83328 46.5541 6.01995 46.7674 5.99328C46.9807 5.93995 47.5007 5.60661 48.3274 4.99328C48.3807 4.93995 48.4207 4.89995 48.4474 4.87328C50.8741 3.03328 52.9274 2.96661 54.6074 4.67328C56.2341 6.32661 56.2074 8.59328 54.5274 11.4733C53.3007 13.5799 51.674 15.4066 49.6474 16.9533C47.6207 18.4733 46.0607 19.0333 44.9674 18.6333C44.0607 18.2866 42.674 17.2066 40.8074 15.3933C38.9674 13.5533 37.7674 12.0999 37.2074 11.0333C36.4874 9.56661 36.154 8.37995 36.2074 7.47328C36.2607 6.56661 36.7007 5.69995 37.5274 4.87328ZM43.1674 5.99328C42.554 5.69995 41.794 5.55328 40.8874 5.55328C40.0074 5.52661 39.3407 5.65995 38.8874 5.95328C38.4074 6.21995 38.1807 6.85995 38.2074 7.87328C38.234 8.85995 38.4874 9.76661 38.9674 10.5933C39.2874 11.1266 40.4474 12.2866 42.4474 14.0733C44.4474 15.8599 45.6874 16.8466 46.1674 17.0333C46.3807 17.1133 47.4874 16.1799 49.4874 14.2333C51.9141 11.8866 53.3141 9.85995 53.6874 8.15328C53.9541 6.92661 53.5141 6.31328 52.3674 6.31328C51.7274 6.31328 51.0341 6.51328 50.2874 6.91328C49.5407 7.28661 48.8474 7.80661 48.2074 8.47328C47.5407 9.19328 46.9541 9.52661 46.4474 9.47328C45.9674 9.39328 45.4874 8.89995 45.0074 7.99328C44.7941 7.56661 44.5141 7.16661 44.1674 6.79328C43.8207 6.39328 43.4874 6.12661 43.1674 5.99328ZM61.618 5.11328C62.1513 4.87328 63.178 4.75328 64.698 4.75328C65.898 4.72661 66.818 4.87328 67.458 5.19328C68.1247 5.51328 68.3513 5.92661 68.138 6.43328C68.0313 6.67328 67.7913 6.83328 67.418 6.91328C67.0447 6.99328 66.3647 7.01995 65.378 6.99328C63.698 6.93995 62.5513 7.09995 61.938 7.47328C61.458 7.73995 61.1913 8.11328 61.138 8.59328C61.0847 9.04661 61.1247 10.5399 61.258 13.0733C61.4713 16.4599 61.4047 18.2733 61.058 18.5133C60.3913 18.9399 59.9113 18.4733 59.618 17.1133C59.4313 16.1533 59.298 14.6733 59.218 12.6733C59.1113 10.2999 59.0847 8.83328 59.138 8.27328C59.1913 7.68661 59.4313 7.12661 59.858 6.59328C60.5247 5.76661 61.1113 5.27328 61.618 5.11328ZM75.6008 4.91328C76.1875 4.48661 77.3475 4.31328 79.0808 4.39328C80.2008 4.47328 80.9608 4.59328 81.3608 4.75328C81.7875 4.91328 82.2542 5.27328 82.7608 5.83328C83.2675 6.41995 83.5875 6.92661 83.7208 7.35328C83.8542 7.77995 83.9208 8.56661 83.9208 9.71328C83.9208 12.2733 83.3208 14.2199 82.1208 15.5533C80.9208 16.8599 79.1875 17.5133 76.9208 17.5133H75.1208V19.6733C75.1208 21.0066 75.0275 21.9133 74.8408 22.3933C74.6808 22.8733 74.3742 23.1133 73.9208 23.1133C73.4408 23.1133 73.1208 22.8599 72.9608 22.3533C72.8008 21.8466 72.7208 20.8333 72.7208 19.3133C72.7208 17.6866 72.5208 16.6866 72.1208 16.3133C71.6408 15.9399 71.4275 15.3133 71.4808 14.4333C71.5075 13.8733 71.6675 13.5933 71.9608 13.5933C71.9875 13.6199 72.0275 13.6333 72.0808 13.6333C72.4808 13.7933 72.7742 12.9533 72.9608 11.1133C73.0675 10.2599 73.1208 9.27328 73.1208 8.15328C73.1208 6.07328 73.4275 5.08661 74.0408 5.19328C74.1208 5.19328 74.2008 5.21995 74.2808 5.27328C74.5742 5.45995 75.0142 5.33995 75.6008 4.91328ZM80.6408 6.95328C79.9208 6.44661 79.0542 6.23328 78.0408 6.31328C77.0542 6.39328 76.2808 6.72661 75.7208 7.31328C75.2408 7.73995 74.9475 8.19328 74.8408 8.67328C74.7608 9.12661 74.7208 10.1399 74.7208 11.7133V15.1133H76.2808C78.1475 15.1133 79.4808 14.6866 80.2808 13.8333C81.1075 12.9799 81.5208 11.5533 81.5208 9.55328C81.5208 8.75328 81.4542 8.17995 81.3208 7.83328C81.2142 7.48661 80.9875 7.19328 80.6408 6.95328ZM92.9039 5.51328C93.7573 5.24661 94.9439 5.16661 96.4639 5.27328C97.3973 5.32661 98.0773 5.43328 98.5039 5.59328C98.9573 5.72661 99.4106 6.00661 99.8639 6.43328C100.371 6.93995 100.677 7.47328 100.784 8.03328C100.917 8.56661 101.037 9.88661 101.144 11.9933C101.224 13.7266 101.331 15.0066 101.464 15.8333C101.624 16.6599 101.851 17.3133 102.144 17.7933C102.491 18.4066 102.664 18.8199 102.664 19.0333C102.691 19.2199 102.557 19.4599 102.264 19.7533C101.357 20.6866 100.437 20.1666 99.5039 18.1933L98.6239 16.4333L96.2239 17.1933C94.6506 17.6466 93.0773 17.9799 91.5039 18.1933C90.4639 18.2999 89.7706 18.3133 89.4239 18.2333C89.0773 18.1266 88.6639 17.8466 88.1839 17.3933C87.5706 16.7799 87.2373 16.1666 87.1839 15.5533C87.1573 14.9133 87.4106 14.1533 87.9439 13.2733C89.0639 11.4866 91.5706 10.4199 95.4639 10.0733C96.0506 10.0466 96.5973 9.99328 97.1039 9.91328C97.6106 9.83328 98.0106 9.76661 98.3039 9.71328C98.5973 9.63328 98.7439 9.56661 98.7439 9.51328C98.7439 9.27328 98.4906 8.85995 97.9839 8.27328C97.6639 7.87328 97.3173 7.61995 96.9439 7.51328C96.5973 7.40661 95.9573 7.36661 95.0239 7.39328C93.4506 7.44661 92.4373 7.61995 91.9839 7.91328C91.6373 8.09995 91.3973 8.17995 91.2639 8.15328C91.1306 8.12661 91.0106 7.97995 90.9039 7.71328C90.7439 7.28661 90.8373 6.87328 91.1839 6.47328C91.5573 6.07328 92.1306 5.75328 92.9039 5.51328ZM98.5839 12.1533C98.7173 11.8066 98.6373 11.6199 98.3439 11.5933C97.9973 11.5666 96.8906 11.6866 95.0239 11.9533C93.3973 12.2199 92.2773 12.4999 91.6639 12.7933C90.9973 13.1133 90.3839 13.6333 89.8239 14.3533C89.2906 15.0733 89.1173 15.5799 89.3039 15.8733C89.5173 16.2199 90.1173 16.3666 91.1039 16.3133C92.1173 16.2333 93.2639 15.9666 94.5439 15.5133C96.0906 14.9799 97.1173 14.7133 97.6239 14.7133C98.1039 14.7133 98.3439 14.3933 98.3439 13.7533C98.3439 13.1666 98.4239 12.6333 98.5839 12.1533ZM107.933 5.27328C108.2 4.89995 108.6 4.71328 109.133 4.71328C109.56 4.71328 109.92 4.92661 110.213 5.35328C110.533 5.77995 110.88 6.53995 111.253 7.63328C111.626 8.72661 112.146 10.4866 112.813 12.9133C113.08 13.8999 113.266 14.3933 113.373 14.3933C113.586 14.3933 114.12 13.2066 114.973 10.8333C115.026 10.6999 115.213 10.1933 115.533 9.31328C116.413 6.85995 117 5.48661 117.293 5.19328C117.613 4.81995 117.986 4.73995 118.413 4.95328C118.84 5.16661 119.186 5.59328 119.453 6.23328C119.64 6.76661 119.92 8.04661 120.293 10.0733C120.693 12.0999 121.026 14.0733 121.293 15.9933C121.426 17.0066 121.373 17.8466 121.133 18.5133C120.92 19.1799 120.573 19.5133 120.093 19.5133C119.64 19.5133 119.293 19.2066 119.053 18.5933C118.84 17.9533 118.666 16.8599 118.533 15.3133C118.266 12.8066 118.093 11.2733 118.013 10.7133L117.813 8.91328L116.853 12.1133C115.893 15.4466 114.653 17.1133 113.133 17.1133C112.386 17.1133 111.813 16.7933 111.413 16.1533C111.04 15.4866 110.653 14.1399 110.253 12.1133C109.693 9.33995 109.36 7.80661 109.253 7.51328C108.986 6.87328 108.706 7.35328 108.413 8.95328C108.2 10.0733 107.986 11.6866 107.773 13.7933C107.693 14.6733 107.6 15.4999 107.493 16.2733C107.386 17.0199 107.293 17.6199 107.213 18.0733C107.133 18.4999 107.066 18.7133 107.013 18.7133C106.64 18.7133 106.346 18.2199 106.133 17.2333C105.946 16.2466 105.92 15.1399 106.053 13.9133C106.213 12.1533 106.493 10.3666 106.893 8.55328C107.293 6.71328 107.64 5.61995 107.933 5.27328ZM126.566 5.27328C126.832 4.89995 127.232 4.71328 127.766 4.71328C128.192 4.71328 128.552 4.92661 128.846 5.35328C129.166 5.77995 129.512 6.53995 129.886 7.63328C130.259 8.72661 130.779 10.4866 131.446 12.9133C131.712 13.8999 131.899 14.3933 132.006 14.3933C132.219 14.3933 132.752 13.2066 133.606 10.8333C133.659 10.6999 133.846 10.1933 134.166 9.31328C135.046 6.85995 135.632 5.48661 135.926 5.19328C136.246 4.81995 136.619 4.73995 137.046 4.95328C137.472 5.16661 137.819 5.59328 138.086 6.23328C138.272 6.76661 138.552 8.04661 138.926 10.0733C139.326 12.0999 139.659 14.0733 139.926 15.9933C140.059 17.0066 140.006 17.8466 139.766 18.5133C139.552 19.1799 139.206 19.5133 138.726 19.5133C138.272 19.5133 137.926 19.2066 137.686 18.5933C137.472 17.9533 137.299 16.8599 137.166 15.3133C136.899 12.8066 136.726 11.2733 136.646 10.7133L136.446 8.91328L135.486 12.1133C134.526 15.4466 133.286 17.1133 131.766 17.1133C131.019 17.1133 130.446 16.7933 130.046 16.1533C129.672 15.4866 129.286 14.1399 128.886 12.1133C128.326 9.33995 127.992 7.80661 127.886 7.51328C127.619 6.87328 127.339 7.35328 127.046 8.95328C126.832 10.0733 126.619 11.6866 126.406 13.7933C126.326 14.6733 126.232 15.4999 126.126 16.2733C126.019 17.0199 125.926 17.6199 125.846 18.0733C125.766 18.4999 125.699 18.7133 125.646 18.7133C125.272 18.7133 124.979 18.2199 124.766 17.2333C124.579 16.2466 124.552 15.1399 124.686 13.9133C124.846 12.1533 125.126 10.3666 125.526 8.55328C125.926 6.71328 126.272 5.61995 126.566 5.27328ZM148.959 5.51328C149.812 5.24661 150.999 5.16661 152.519 5.27328C153.452 5.32661 154.132 5.43328 154.559 5.59328C155.012 5.72661 155.465 6.00661 155.919 6.43328C156.425 6.93995 156.732 7.47328 156.839 8.03328C156.972 8.56661 157.092 9.88661 157.199 11.9933C157.279 13.7266 157.385 15.0066 157.519 15.8333C157.679 16.6599 157.905 17.3133 158.199 17.7933C158.545 18.4066 158.719 18.8199 158.719 19.0333C158.745 19.2199 158.612 19.4599 158.319 19.7533C157.412 20.6866 156.492 20.1666 155.559 18.1933L154.679 16.4333L152.279 17.1933C150.705 17.6466 149.132 17.9799 147.559 18.1933C146.519 18.2999 145.825 18.3133 145.479 18.2333C145.132 18.1266 144.719 17.8466 144.239 17.3933C143.625 16.7799 143.292 16.1666 143.239 15.5533C143.212 14.9133 143.465 14.1533 143.999 13.2733C145.119 11.4866 147.625 10.4199 151.519 10.0733C152.105 10.0466 152.652 9.99328 153.159 9.91328C153.665 9.83328 154.065 9.76661 154.359 9.71328C154.652 9.63328 154.799 9.56661 154.799 9.51328C154.799 9.27328 154.545 8.85995 154.039 8.27328C153.719 7.87328 153.372 7.61995 152.999 7.51328C152.652 7.40661 152.012 7.36661 151.079 7.39328C149.505 7.44661 148.492 7.61995 148.039 7.91328C147.692 8.09995 147.452 8.17995 147.319 8.15328C147.185 8.12661 147.065 7.97995 146.959 7.71328C146.799 7.28661 146.892 6.87328 147.239 6.47328C147.612 6.07328 148.185 5.75328 148.959 5.51328ZM154.639 12.1533C154.772 11.8066 154.692 11.6199 154.399 11.5933C154.052 11.5666 152.945 11.6866 151.079 11.9533C149.452 12.2199 148.332 12.4999 147.719 12.7933C147.052 13.1133 146.439 13.6333 145.879 14.3533C145.345 15.0733 145.172 15.5799 145.359 15.8733C145.572 16.2199 146.172 16.3666 147.159 16.3133C148.172 16.2333 149.319 15.9666 150.599 15.5133C152.145 14.9799 153.172 14.7133 153.679 14.7133C154.159 14.7133 154.399 14.3933 154.399 13.7533C154.399 13.1666 154.479 12.6333 154.639 12.1533ZM185.397 4.87328C186.09 4.55328 186.557 4.37995 186.797 4.35328C187.037 4.32661 187.37 4.39328 187.797 4.55328C188.464 4.81995 188.93 5.47328 189.197 6.51328C189.464 7.55328 189.597 9.20661 189.597 11.4733V15.8733L190.997 16.5533C191.93 16.9799 192.544 17.4599 192.837 17.9933C193.13 18.5266 193.117 19.1666 192.797 19.9133C192.53 20.5799 192.197 21.0333 191.797 21.2733C191.424 21.5133 191.09 21.5133 190.797 21.2733C190.53 21.0066 190.397 20.5533 190.397 19.9133C190.397 19.0866 190.064 18.5533 189.397 18.3133C188.757 18.0466 187.397 17.9133 185.317 17.9133C183.157 17.9133 181.57 18.1133 180.557 18.5133C179.544 18.9133 178.957 19.5799 178.797 20.5133C178.69 21.0733 178.49 21.4599 178.197 21.6733C177.93 21.8599 177.65 21.8333 177.357 21.5933C177.09 21.3533 176.89 20.9533 176.757 20.3933C176.597 19.6199 176.57 18.9133 176.677 18.2733C176.81 17.8733 177.224 17.4466 177.917 16.9933C178.61 16.5399 179.224 16.3133 179.757 16.3133C180.184 16.3133 180.464 16.1266 180.597 15.7533C180.757 15.3533 180.957 14.3266 181.197 12.6733C181.41 11.3666 181.61 10.0866 181.797 8.83328C181.957 8.19328 182.424 7.44661 183.197 6.59328C183.97 5.73995 184.704 5.16661 185.397 4.87328ZM187.397 10.9133C187.397 8.19328 187.21 6.69995 186.837 6.43328C186.57 6.21995 186.05 6.37995 185.277 6.91328C184.024 7.79328 183.197 9.55328 182.797 12.1933C182.584 13.4999 182.384 14.4866 182.197 15.1533C182.09 15.4999 182.144 15.7133 182.357 15.7933C182.597 15.8733 183.237 15.9133 184.277 15.9133C185.824 15.9133 186.73 15.8066 186.997 15.5933C187.264 15.4066 187.397 13.8466 187.397 10.9133ZM198.325 4.95328C198.458 4.60661 198.618 4.40661 198.805 4.35328C199.018 4.27328 199.218 4.35328 199.405 4.59328C199.618 4.80661 199.765 5.12661 199.845 5.55328C200.005 6.45995 200.085 7.52661 200.085 8.75328V10.6733L203.605 10.4333C205.845 10.2999 207.045 10.1933 207.205 10.1133C207.285 10.0333 207.418 9.21995 207.605 7.67328C207.711 6.65995 207.831 6.00661 207.965 5.71328C208.098 5.41995 208.351 5.24661 208.725 5.19328C209.338 5.11328 209.725 5.45995 209.885 6.23328C210.071 6.97995 210.231 8.96661 210.365 12.1933C210.551 15.9799 210.458 18.0866 210.085 18.5133C209.765 18.8866 209.485 19.0733 209.245 19.0733C209.005 19.0733 208.698 18.8733 208.325 18.4733C207.898 18.0466 207.685 16.9799 207.685 15.2733V12.6733L204.205 12.7933L200.685 12.9133L200.445 15.2333C200.231 17.1799 199.805 18.2999 199.165 18.5933C198.711 18.7799 198.338 18.4199 198.045 17.5133C197.965 17.2199 197.898 16.8866 197.845 16.5133C197.711 15.3666 197.378 14.4466 196.845 13.7533C196.418 13.2199 196.245 12.7266 196.325 12.2733C196.431 11.8199 196.765 11.4999 197.325 11.3133C197.645 11.2066 197.845 10.9799 197.925 10.6333C198.031 10.2599 198.085 9.48661 198.085 8.31328C198.085 6.55328 198.165 5.43328 198.325 4.95328ZM219.026 6.51328C220.093 6.16661 220.866 5.99328 221.346 5.99328C221.826 5.99328 222.52 6.15328 223.426 6.47328C224.413 6.81995 225.04 6.85995 225.306 6.59328C225.68 6.21995 225.946 6.47328 226.106 7.35328C226.266 8.31328 226.346 10.2333 226.346 13.1133C226.346 15.6733 226.306 17.2199 226.226 17.7533C226.146 18.2599 225.92 18.5133 225.546 18.5133C225.173 18.5133 224.933 18.3533 224.826 18.0333C224.72 17.7133 224.626 16.8999 224.546 15.5933L224.346 12.7133L221.346 14.9933C218.92 16.8066 217.213 18.0066 216.226 18.5933C215.24 19.1533 214.586 19.3133 214.266 19.0733C213.92 18.7799 213.746 18.4599 213.746 18.1133C213.746 17.8733 214.813 16.9266 216.946 15.2733C219.08 13.5933 220.6 12.5133 221.506 12.0333C221.933 11.8199 221.786 11.6466 221.066 11.5133C220.773 11.4599 220.346 11.4066 219.786 11.3533C218.186 11.1666 217.04 10.7799 216.346 10.1933C215.68 9.60661 215.586 8.96661 216.066 8.27328C216.546 7.55328 217.533 6.96661 219.026 6.51328ZM223.106 8.31328C222.493 8.07328 222 7.96661 221.626 7.99328C221.253 7.99328 220.56 8.15328 219.546 8.47328C218.24 8.84661 218.08 9.13995 219.066 9.35328C219.626 9.45995 220.533 9.51328 221.786 9.51328C223.413 9.51328 224.186 9.32661 224.106 8.95328C224.08 8.76661 223.746 8.55328 223.106 8.31328Z" fill="#253758"></path></svg> 