<?xml version="1.0" encoding="UTF-8"?> <svg xmlns="http://www.w3.org/2000/svg" width="29" height="11" viewBox="0 0 29 11" fill="none"><path d="M0.23716 10.1016C0.23716 9.64223 0.306494 9.2349 0.44516 8.87956C0.592494 8.52423 0.787494 8.19923 1.03016 7.90456C1.27283 7.60123 1.54583 7.3109 1.84916 7.03356C2.16116 6.74756 2.47749 6.44856 2.79816 6.13656C3.36149 5.59923 3.76883 5.1009 4.02016 4.64156C4.27149 4.18223 4.39716 3.74023 4.39716 3.31556C4.39716 2.98623 4.34949 2.6699 4.25416 2.36656C4.16749 2.05456 4.00716 1.7989 3.77316 1.59956C3.53916 1.40023 3.21416 1.30056 2.79816 1.30056C2.44283 1.30056 2.12649 1.39156 1.84916 1.57356C1.57183 1.7469 1.38549 1.96356 1.29016 2.22356C1.37683 2.31023 1.43749 2.40556 1.47216 2.50956C1.50683 2.6049 1.52416 2.70023 1.52416 2.79556C1.52416 2.87356 1.50249 2.96023 1.45916 3.05556C1.42449 3.1509 1.35949 3.23323 1.26416 3.30256C1.16883 3.3719 1.04316 3.40656 0.88716 3.40656C0.696494 3.3979 0.54916 3.32423 0.44516 3.18556C0.34116 3.0469 0.28916 2.88223 0.28916 2.69156C0.28916 2.50956 0.345494 2.31023 0.45816 2.09356C0.570827 1.86823 0.739827 1.66023 0.96516 1.46956C1.19916 1.27023 1.48516 1.1099 1.82316 0.988562C2.16116 0.858562 2.55549 0.793562 3.00616 0.793562C3.35283 0.793562 3.68649 0.836896 4.00716 0.923562C4.33649 1.00156 4.63116 1.13156 4.89116 1.31356C5.15116 1.49556 5.35483 1.73823 5.50216 2.04156C5.65816 2.33623 5.73616 2.70456 5.73616 3.14656C5.73616 3.36323 5.68849 3.59723 5.59316 3.84856C5.50649 4.0999 5.35916 4.3729 5.15116 4.66756C4.95183 4.95356 4.69183 5.26123 4.37116 5.59056C4.05049 5.91123 3.65616 6.26223 3.18816 6.64356C2.59883 7.1289 2.11349 7.58823 1.73216 8.02156C1.35949 8.44623 1.14283 8.81023 1.08216 9.11356L3.38316 9.17856C3.80783 9.18723 4.18049 9.18723 4.50116 9.17856C4.83049 9.1699 5.08616 9.1049 5.26816 8.98356C5.45883 8.85356 5.55416 8.61956 5.55416 8.28156H5.94416L5.86616 10.1016H0.23716ZM10.6646 10.3096C10.0059 10.3096 9.45992 10.1709 9.02658 9.89356C8.59325 9.60756 8.25525 9.2349 8.01258 8.77556C7.76992 8.30756 7.59658 7.79623 7.49258 7.24156C7.39725 6.6869 7.34958 6.13656 7.34958 5.59056C7.34958 5.04456 7.41025 4.4899 7.53158 3.92656C7.66158 3.36323 7.86092 2.84756 8.12958 2.37956C8.39825 1.9029 8.74492 1.52156 9.16958 1.23556C9.59425 0.940895 10.1099 0.793562 10.7166 0.793562C11.3492 0.793562 11.8736 0.936562 12.2896 1.22256C12.7142 1.50856 13.0479 1.88556 13.2906 2.35356C13.5419 2.8129 13.7196 3.3199 13.8236 3.87456C13.9276 4.42923 13.9796 4.97956 13.9796 5.52556C13.9796 6.0629 13.9189 6.61323 13.7976 7.17656C13.6762 7.7399 13.4856 8.2599 13.2256 8.73656C12.9656 9.20456 12.6232 9.5859 12.1986 9.88056C11.7826 10.1666 11.2712 10.3096 10.6646 10.3096ZM10.7426 9.80256C11.1152 9.80256 11.4229 9.68556 11.6656 9.45156C11.9082 9.21756 12.0989 8.90556 12.2376 8.51556C12.3849 8.12556 12.4889 7.69656 12.5496 7.22856C12.6102 6.7519 12.6406 6.27523 12.6406 5.79856C12.6406 5.2699 12.6102 4.74123 12.5496 4.21256C12.4889 3.6839 12.3849 3.19856 12.2376 2.75656C12.0902 2.31456 11.8909 1.95923 11.6396 1.69056C11.3882 1.4219 11.0719 1.28756 10.6906 1.28756C10.3179 1.28756 10.0016 1.40456 9.74158 1.63856C9.49025 1.87256 9.28658 2.18456 9.13058 2.57456C8.97458 2.96456 8.86192 3.3979 8.79258 3.87456C8.72325 4.35123 8.68858 4.83223 8.68858 5.31756C8.68858 5.68156 8.70592 6.06723 8.74058 6.47456C8.77525 6.8819 8.83592 7.2849 8.92258 7.68356C9.01792 8.07356 9.14358 8.4289 9.29958 8.74956C9.45558 9.07023 9.65058 9.3259 9.88458 9.51656C10.1186 9.70723 10.4046 9.80256 10.7426 9.80256ZM15.2049 10.1016C15.2049 9.64223 15.2743 9.2349 15.4129 8.87956C15.5603 8.52423 15.7553 8.19923 15.9979 7.90456C16.2406 7.60123 16.5136 7.3109 16.8169 7.03356C17.1289 6.74756 17.4453 6.44856 17.7659 6.13656C18.3293 5.59923 18.7366 5.1009 18.9879 4.64156C19.2393 4.18223 19.3649 3.74023 19.3649 3.31556C19.3649 2.98623 19.3173 2.6699 19.2219 2.36656C19.1353 2.05456 18.9749 1.7989 18.7409 1.59956C18.5069 1.40023 18.1819 1.30056 17.7659 1.30056C17.4106 1.30056 17.0943 1.39156 16.8169 1.57356C16.5396 1.7469 16.3533 1.96356 16.2579 2.22356C16.3446 2.31023 16.4053 2.40556 16.4399 2.50956C16.4746 2.6049 16.4919 2.70023 16.4919 2.79556C16.4919 2.87356 16.4703 2.96023 16.4269 3.05556C16.3923 3.1509 16.3273 3.23323 16.2319 3.30256C16.1366 3.3719 16.0109 3.40656 15.8549 3.40656C15.6643 3.3979 15.5169 3.32423 15.4129 3.18556C15.3089 3.0469 15.2569 2.88223 15.2569 2.69156C15.2569 2.50956 15.3133 2.31023 15.4259 2.09356C15.5386 1.86823 15.7076 1.66023 15.9329 1.46956C16.1669 1.27023 16.4529 1.1099 16.7909 0.988562C17.1289 0.858562 17.5233 0.793562 17.9739 0.793562C18.3206 0.793562 18.6543 0.836896 18.9749 0.923562C19.3043 1.00156 19.5989 1.13156 19.8589 1.31356C20.1189 1.49556 20.3226 1.73823 20.4699 2.04156C20.6259 2.33623 20.7039 2.70456 20.7039 3.14656C20.7039 3.36323 20.6563 3.59723 20.5609 3.84856C20.4743 4.0999 20.3269 4.3729 20.1189 4.66756C19.9196 4.95356 19.6596 5.26123 19.3389 5.59056C19.0183 5.91123 18.6239 6.26223 18.1559 6.64356C17.5666 7.1289 17.0813 7.58823 16.6999 8.02156C16.3273 8.44623 16.1106 8.81023 16.0499 9.11356L18.3509 9.17856C18.7756 9.18723 19.1483 9.18723 19.4689 9.17856C19.7983 9.1699 20.0539 9.1049 20.2359 8.98356C20.4266 8.85356 20.5219 8.61956 20.5219 8.28156H20.9119L20.8339 10.1016H15.2049ZM24.8914 10.3096C24.3367 10.3096 23.8644 10.2186 23.4744 10.0366C23.0844 9.8459 22.7854 9.6119 22.5774 9.33456C22.3694 9.05723 22.2654 8.7929 22.2654 8.54156C22.2654 8.34223 22.3174 8.17756 22.4214 8.04756C22.5254 7.9089 22.6727 7.83523 22.8634 7.82656C23.0194 7.8179 23.1407 7.84823 23.2274 7.91756C23.3227 7.97823 23.3877 8.05623 23.4224 8.15156C23.457 8.2469 23.4744 8.33356 23.4744 8.41156C23.4744 8.49823 23.4614 8.5849 23.4354 8.67156C23.4094 8.75823 23.3747 8.84056 23.3314 8.91856C23.366 9.12656 23.4744 9.2999 23.6564 9.43856C23.8384 9.56856 24.0464 9.6639 24.2804 9.72456C24.523 9.78523 24.744 9.81123 24.9434 9.80256C25.368 9.78523 25.7104 9.67256 25.9704 9.46456C26.2304 9.2479 26.421 8.9749 26.5424 8.64556C26.6724 8.31623 26.7374 7.96956 26.7374 7.60556C26.7374 7.3629 26.7157 7.09423 26.6724 6.79956C26.6377 6.5049 26.551 6.22756 26.4124 5.96756C26.2824 5.6989 26.083 5.4779 25.8144 5.30456C25.5457 5.13123 25.1817 5.04456 24.7224 5.04456C24.575 5.04456 24.393 5.0619 24.1764 5.09656C23.9684 5.13123 23.756 5.18323 23.5394 5.25256C23.3314 5.3219 23.1537 5.40423 23.0064 5.49956L22.6424 5.16156L22.6164 1.00156H25.9834C26.4774 1.00156 26.8154 0.936562 26.9974 0.806562C27.188 0.667896 27.2834 0.451229 27.2834 0.156562H27.6344L27.5564 1.87256L23.2144 1.96356V4.82356C23.4224 4.7369 23.691 4.65456 24.0204 4.57656C24.3584 4.49856 24.718 4.45956 25.0994 4.45956C25.6367 4.45956 26.0917 4.54623 26.4644 4.71956C26.8457 4.88423 27.1534 5.10956 27.3874 5.39556C27.63 5.6729 27.8077 5.9849 27.9204 6.33156C28.033 6.66956 28.0894 7.01623 28.0894 7.37156C28.0894 8.0129 27.9377 8.55456 27.6344 8.99656C27.3397 9.4299 26.9497 9.75923 26.4644 9.98456C25.979 10.2012 25.4547 10.3096 24.8914 10.3096Z" fill="#353434"></path></svg> 