<?xml version="1.0" encoding="UTF-8"?> <svg xmlns="http://www.w3.org/2000/svg" width="260" height="68" viewBox="0 0 260 68" fill="none"><path d="M15.3868 37.431C14.9388 37.879 14.4908 38.359 14.0428 38.871C13.2748 39.575 12.6988 40.087 12.3148 40.407C10.0108 42.263 8.79475 41.975 8.66675 39.543C8.60275 38.647 8.73075 37.623 9.05075 36.471C9.30675 35.383 9.65875 34.519 10.1068 33.879L9.81875 34.263L9.43475 34.743C9.05075 35.191 8.73075 35.575 8.47475 35.895C7.64275 36.855 6.87475 37.655 6.17075 38.295C4.12275 40.087 2.61875 40.503 1.65875 39.543L1.46675 39.351L1.27475 39.063C1.08275 38.807 0.98675 38.615 0.98675 38.487C0.60275 37.463 0.98675 35.671 2.13875 33.111C2.58675 31.703 3.29075 30.647 4.25075 29.943C4.37875 29.943 4.53875 29.975 4.73075 30.039C4.98675 30.103 5.21075 30.199 5.40275 30.327C5.85075 30.647 6.01075 30.967 5.88275 31.287C5.11475 32.055 4.47475 33.111 3.96275 34.455C2.81075 36.951 2.45875 38.263 2.90675 38.391C3.67475 38.519 5.14675 37.303 7.32275 34.743C9.24275 32.439 10.9388 29.847 12.4108 26.967C13.1148 25.687 13.9468 25.655 14.9068 26.871C14.7788 27.191 14.2988 28.471 13.4668 30.711L12.7948 32.343L12.1228 34.071C10.9708 37.079 10.4268 38.967 10.4908 39.735C11.1308 39.671 12.3468 38.551 14.1388 36.375L15.1948 35.031L16.1548 33.879C16.6028 33.303 16.9548 32.855 17.2108 32.535L19.4188 26.967C19.8028 25.687 20.4748 25.655 21.4348 26.871C21.3068 27.191 20.8268 28.471 19.9948 30.711L19.3228 32.343L18.6508 34.071C17.4988 37.079 16.9548 38.967 17.0188 39.735C17.6588 39.671 18.8748 38.551 20.6668 36.375L21.7228 35.031L22.6828 33.879C23.3228 32.983 23.7708 32.407 24.0268 32.151C25.1148 32.535 24.7308 33.911 22.8748 36.279C22.1708 37.111 21.4028 37.975 20.5708 38.871C19.8028 39.575 19.2268 40.087 18.8428 40.407C16.5388 42.263 15.3228 41.975 15.1948 39.543C15.1308 38.903 15.1948 38.199 15.3868 37.431ZM25.9183 35.799C25.5343 34.583 24.9263 34.711 24.0943 36.183C23.8383 36.695 23.5823 37.335 23.3263 38.103C23.0703 38.743 22.9103 39.255 22.8463 39.639C23.6143 39.511 24.3503 38.999 25.0543 38.103C25.7583 37.271 26.0463 36.503 25.9183 35.799ZM23.7103 35.031C23.9023 34.839 24.0623 34.679 24.1903 34.551C25.2143 33.527 26.0783 33.719 26.7823 35.127C26.9103 35.383 26.9743 35.671 26.9743 35.991L27.5503 35.223C28.1263 34.391 28.5423 33.815 28.7983 33.495C28.9903 32.855 29.2143 32.215 29.4703 31.575C29.9183 30.359 30.3343 29.463 30.7183 28.887H31.1023C31.3583 28.887 31.5823 28.919 31.7743 28.983C32.3503 29.175 32.4463 29.719 32.0623 30.615C31.7423 31.447 31.4543 32.183 31.1983 32.823L30.3343 35.319C29.6943 37.303 29.3743 38.839 29.3743 39.927C29.7583 40.695 30.7503 40.023 32.3503 37.911L33.3103 36.567L34.2703 35.223C35.0383 34.135 35.5183 33.463 35.7103 33.207C36.0303 33.015 36.3183 33.015 36.5743 33.207L36.8623 33.591L37.0543 33.879C36.7343 34.263 36.1903 35.031 35.4223 36.183L34.4623 37.527L33.4062 38.871C31.7423 40.983 30.3983 41.911 29.3743 41.655C28.0303 41.335 27.5503 39.863 27.9343 37.239L27.7422 37.527L26.6863 38.871C25.0223 40.983 23.6783 41.911 22.6543 41.655C21.0543 41.271 20.6702 39.287 21.5023 35.703C21.7583 34.423 22.1743 33.047 22.7503 31.575C23.1983 30.359 23.6143 29.463 23.9983 28.887H24.3823C24.6383 28.887 24.8623 28.919 25.0543 28.983C25.6303 29.175 25.7263 29.719 25.3423 30.615C25.0223 31.447 24.7343 32.183 24.4783 32.823L23.7103 35.031ZM48.9223 39.639C48.9863 41.111 49.5303 41.911 50.5543 42.039C51.3863 42.103 52.4743 41.719 53.8183 40.887C54.7143 40.311 55.8983 39.255 57.3703 37.719L58.2343 36.855L59.0023 35.991C59.5783 35.415 60.0263 34.999 60.3463 34.743C60.8583 34.999 61.1143 35.351 61.1143 35.799C61.1143 36.247 60.9863 36.599 60.7303 36.855C58.9383 38.967 57.0183 40.791 54.9703 42.327C53.6263 43.287 52.1863 43.639 50.6503 43.383C49.3063 43.191 48.2503 42.583 47.4823 41.559C46.1382 39.639 46.4262 37.015 48.3463 33.687C50.1383 30.551 52.2183 28.503 54.5863 27.543C56.1863 27.159 57.3703 27.447 58.1383 28.407C58.9063 29.367 58.8103 30.519 57.8503 31.863L57.5623 32.247L57.1783 32.727C56.9223 33.047 56.6663 33.271 56.4103 33.399C55.8343 33.783 55.3863 33.463 55.0663 32.439L55.4503 31.863L55.9303 31.287C56.3783 30.711 56.6663 30.231 56.7943 29.847C56.9223 29.399 56.8583 29.079 56.6023 28.887C56.3463 28.695 55.8983 28.759 55.2583 29.079C53.8503 29.719 52.4103 31.255 50.9383 33.687C49.4023 36.183 48.7303 38.167 48.9223 39.639ZM69.1805 31.575C70.4605 29.911 70.6525 29.015 69.7565 28.887C68.1565 29.911 66.4925 31.767 64.7645 34.455L65.0525 35.895C64.9245 37.303 65.1805 38.583 65.8205 39.735C66.1405 40.759 67.3245 40.151 69.3725 37.911C70.0765 37.143 70.8765 36.183 71.7725 35.031L72.3485 34.359L72.8285 33.783C73.1485 33.399 73.3725 33.111 73.5005 32.919C73.5645 32.855 73.6285 32.759 73.6925 32.631L73.9805 32.247C74.2365 31.927 74.3965 31.831 74.4605 31.959C75.1645 32.087 75.4525 32.343 75.3245 32.727C75.0685 33.495 73.9805 34.999 72.0605 37.239C70.0765 39.543 68.7325 40.823 68.0285 41.079C66.4285 41.847 65.2445 41.623 64.4765 40.407C63.8365 39.575 63.4845 38.231 63.4205 36.375C62.9085 37.079 62.2685 38.039 61.5005 39.255L60.6365 40.887L59.5805 42.615C58.6205 42.743 58.0765 42.679 57.9485 42.423C57.8205 42.231 57.8525 41.751 58.0445 40.983L59.0045 37.911L60.0605 34.647L62.3645 27.735C63.2605 25.815 64.1245 24.695 64.9565 24.375C66.0445 24.055 66.3005 24.407 65.7245 25.431C65.1485 26.391 64.4125 28.055 63.5165 30.423L62.6525 33.015L61.4045 36.183C61.8525 35.671 62.3965 34.999 63.0365 34.167L64.6685 31.959C65.9485 30.231 67.0365 29.015 67.9325 28.311C69.2765 27.223 70.2365 27.095 70.8125 27.927C71.3885 28.695 71.3885 29.879 70.8125 31.479L69.1805 31.575ZM80.8903 39.735C81.1463 40.119 81.8503 39.671 83.0023 38.391C83.4503 37.943 83.9623 37.367 84.5383 36.663L85.1143 35.799C85.3063 35.607 85.4983 35.383 85.6903 35.127C86.1383 34.487 86.6503 34.199 87.2263 34.263C87.7383 34.391 87.6423 34.967 86.9383 35.991C86.3623 36.823 85.5943 37.783 84.6343 38.871C83.6103 40.023 82.8743 40.727 82.4263 40.983C80.8263 41.623 79.7703 41.399 79.2583 40.311C78.8103 39.351 78.8423 38.103 79.3543 36.567C79.2903 36.631 78.9383 36.951 78.2983 37.527C77.7223 38.103 77.1783 38.583 76.6663 38.967C75.1943 40.119 74.0103 40.503 73.1143 40.119C70.9383 39.095 70.8102 37.047 72.7303 33.975C73.3703 32.951 74.1703 31.991 75.1303 31.095C76.1543 30.007 77.1463 29.271 78.1063 28.887C80.1543 28.055 81.7223 28.471 82.8103 30.135C83.1303 29.751 83.4823 29.719 83.8663 30.039C84.2503 30.423 84.2503 30.999 83.8663 31.767L82.6183 33.975C81.9783 35.127 81.5303 36.055 81.2743 36.759C80.8903 37.847 80.7623 38.839 80.8903 39.735ZM73.4023 38.295C73.4023 38.679 73.8503 38.551 74.7463 37.911C75.5143 37.399 76.5063 36.631 77.7223 35.607C78.8103 34.647 79.7703 33.751 80.6023 32.919C81.4343 31.959 81.8183 31.383 81.7543 31.191C81.3063 29.655 79.8343 29.943 77.3383 32.055C76.3783 32.823 75.5143 33.751 74.7463 34.839C73.8503 36.183 73.4023 37.335 73.4023 38.295ZM94.0108 35.799L96.4108 27.735C97.3068 25.815 98.1708 24.695 99.0028 24.375C100.091 24.055 100.347 24.407 99.7708 25.431C99.1948 26.391 98.4588 28.055 97.5628 30.423L96.6988 33.015L95.4508 36.183C95.8988 35.671 96.4428 34.999 97.0828 34.167L98.7148 31.959C99.9948 30.231 101.083 29.015 101.979 28.311C103.323 27.223 104.283 27.095 104.859 27.927C105.435 28.695 105.435 29.879 104.859 31.479L103.227 31.575C104.507 29.911 104.699 29.015 103.803 28.887C102.203 29.911 100.539 31.767 98.8108 34.455L99.0988 35.895C98.9708 37.303 99.2268 38.583 99.8668 39.735C100.187 40.759 101.371 40.151 103.419 37.911C104.123 37.143 104.923 36.183 105.819 35.031L106.395 34.359L106.875 33.783C107.195 33.399 107.419 33.111 107.547 32.919C107.611 32.855 107.675 32.759 107.739 32.631L108.027 32.247C108.283 31.927 108.443 31.831 108.507 31.959C109.211 32.087 109.499 32.343 109.371 32.727C109.115 33.495 108.027 34.999 106.107 37.239C104.123 39.543 102.779 40.823 102.075 41.079C100.475 41.847 99.2908 41.623 98.5228 40.407C97.8828 39.575 97.5308 38.231 97.4668 36.375C96.9548 37.079 96.3148 38.039 95.5468 39.255L94.6828 40.887L93.6268 42.615C92.6668 42.743 92.1228 42.679 91.9948 42.423C91.8668 42.231 91.8988 41.751 92.0908 40.983L93.0508 37.911L93.1468 37.719C92.9548 37.655 92.8588 37.495 92.8588 37.239C91.5148 39.095 90.2348 40.439 89.0188 41.271C87.4188 42.487 86.0748 42.711 84.9868 41.943C84.4748 41.687 84.1227 41.015 83.9307 39.927C83.6747 38.775 83.6747 37.815 83.9307 37.047C84.0587 36.663 84.5068 36.407 85.2748 36.279C85.4668 36.151 85.5628 36.247 85.5628 36.567L85.6588 36.951C85.5948 37.079 85.5628 37.175 85.5628 37.239C85.5628 37.431 85.5948 37.719 85.6588 38.103L85.7548 38.679C86.4588 40.215 87.2588 40.855 88.1548 40.599C89.5628 39.447 90.6828 38.167 91.5148 36.759L92.7628 35.319C92.8908 32.631 92.5068 30.775 91.6108 29.751C90.6508 29.879 90.2348 30.775 90.3628 32.439L88.8268 32.343C89.3388 30.743 90.1388 29.559 91.2268 28.791C92.3788 27.959 93.2748 28.087 93.9148 29.175C94.2988 29.879 94.4268 30.967 94.2988 32.439L94.0108 35.799ZM108.574 34.935C112.286 33.399 114.622 32.055 115.582 30.903C116.094 30.263 116.158 29.655 115.774 29.079C115.39 28.439 114.526 28.471 113.182 29.175C112.286 29.687 111.326 30.487 110.302 31.575C109.214 32.855 108.638 33.975 108.574 34.935ZM113.278 27.159C114.494 27.031 115.486 27.319 116.254 28.023C117.022 28.727 117.342 29.623 117.214 30.711C116.766 33.335 113.822 35.447 108.382 37.047C108.51 41.207 110.334 42.039 113.854 39.543C115.006 38.775 116.222 37.687 117.502 36.279C118.014 35.767 118.43 35.319 118.75 34.935C119.07 34.551 119.262 34.295 119.326 34.167C119.646 33.911 119.934 33.911 120.19 34.167C120.446 34.359 120.574 34.647 120.574 35.031C119.87 36.055 119.038 37.047 118.078 38.007C116.926 39.223 115.774 40.215 114.622 40.983C111.614 42.967 109.214 42.903 107.422 40.791C105.758 38.935 105.694 36.279 107.23 32.823C108.702 29.367 110.718 27.479 113.278 27.159ZM132.762 37.431C132.314 37.879 131.866 38.359 131.418 38.871C130.65 39.575 130.074 40.087 129.69 40.407C127.386 42.263 126.17 41.975 126.042 39.543C125.978 38.647 126.106 37.623 126.426 36.471C126.682 35.383 127.034 34.519 127.482 33.879L127.194 34.263L126.81 34.743C126.426 35.191 126.106 35.575 125.85 35.895C125.018 36.855 124.25 37.655 123.546 38.295C121.498 40.087 119.994 40.503 119.034 39.543L118.842 39.351L118.65 39.063C118.458 38.807 118.362 38.615 118.362 38.487C117.978 37.463 118.362 35.671 119.514 33.111C119.962 31.703 120.666 30.647 121.626 29.943C121.754 29.943 121.914 29.975 122.106 30.039C122.362 30.103 122.586 30.199 122.778 30.327C123.226 30.647 123.386 30.967 123.258 31.287C122.49 32.055 121.85 33.111 121.338 34.455C120.186 36.951 119.834 38.263 120.282 38.391C121.05 38.519 122.522 37.303 124.698 34.743C126.618 32.439 128.314 29.847 129.786 26.967C130.49 25.687 131.322 25.655 132.282 26.871C132.154 27.191 131.674 28.471 130.842 30.711L130.17 32.343L129.498 34.071C128.346 37.079 127.802 38.967 127.866 39.735C128.506 39.671 129.722 38.551 131.514 36.375L132.57 35.031L133.53 33.879C133.978 33.303 134.33 32.855 134.586 32.535L136.794 26.967C137.178 25.687 137.85 25.655 138.81 26.871C138.682 27.191 138.202 28.471 137.37 30.711L136.698 32.343L136.026 34.071C134.874 37.079 134.33 38.967 134.394 39.735C135.034 39.671 136.25 38.551 138.042 36.375L139.098 35.031L140.058 33.879C140.698 32.983 141.146 32.407 141.402 32.151C142.49 32.535 142.106 33.911 140.25 36.279C139.546 37.111 138.778 37.975 137.946 38.871C137.178 39.575 136.602 40.087 136.218 40.407C133.914 42.263 132.698 41.975 132.57 39.543C132.506 38.903 132.57 38.199 132.762 37.431ZM156.055 9.687C156.311 9.687 156.471 9.751 156.535 9.879L156.631 9.975L156.727 10.167C156.727 10.231 156.631 10.455 156.439 10.839C156.311 11.095 156.215 11.319 156.151 11.511C156.087 11.831 156.055 12.183 156.055 12.567C156.887 12.695 157.367 13.047 157.495 13.623C157.687 14.071 157.591 14.551 157.207 15.063C156.759 15.575 156.279 15.831 155.767 15.831C155.127 15.767 154.551 15.319 154.039 14.487C153.847 13.783 154.519 12.183 156.055 9.687ZM160.375 10.263C160.631 10.263 160.791 10.327 160.855 10.455L160.951 10.551L161.047 10.743C161.047 10.807 160.951 11.031 160.759 11.415C160.631 11.671 160.535 11.895 160.471 12.087C160.407 12.407 160.375 12.759 160.375 13.143C161.207 13.271 161.687 13.623 161.815 14.199C162.007 14.647 161.911 15.127 161.527 15.639C161.079 16.151 160.599 16.407 160.087 16.407C159.447 16.343 158.871 15.895 158.359 15.063C158.167 14.359 158.839 12.759 160.375 10.263ZM186.967 27.543C186.839 27.607 186.647 27.863 186.391 28.311L186.007 28.791L185.527 29.367C184.823 30.263 184.183 30.359 183.607 29.655C183.799 29.399 184.247 28.631 184.951 27.351L185.911 25.719L186.871 23.991C188.151 22.007 189.175 21.687 189.943 23.031C190.519 25.207 190.199 28.375 188.983 32.535C188.535 34.135 187.895 36.023 187.062 38.199L185.911 40.983L184.855 43.767C183.127 48.247 182.135 51.447 181.879 53.367C181.495 56.183 182.263 57.751 184.183 58.071C189.175 58.903 194.711 56.823 200.791 51.831C206.359 47.159 210.839 41.431 214.231 34.647C217.559 27.991 218.487 21.463 217.015 15.063C215.415 8.023 211.159 4.215 204.247 3.639C195.479 3.063 187.223 5.431 179.479 10.743C172.951 15.287 168.151 20.823 165.079 27.351C164.759 27.991 164.471 28.759 164.215 29.655C163.895 30.743 163.671 31.735 163.543 32.631C163.287 35.127 163.927 36.599 165.463 37.047L166.519 37.239H167.575C168.407 37.303 168.951 37.399 169.207 37.527L169.303 38.007V38.487C169.175 38.807 168.727 39.127 167.959 39.447C164.823 39.831 162.966 38.327 162.39 34.935C161.814 31.991 162.23 29.047 163.639 26.103C166.775 19.255 171.479 13.687 177.751 9.399C185.239 4.279 193.783 1.815 203.383 2.007C211.447 2.455 216.535 6.455 218.647 14.007C220.567 20.791 219.671 27.959 215.958 35.511C212.887 41.783 208.759 47.287 203.575 52.023C198.135 56.951 192.983 59.639 188.119 60.087C182.295 60.599 179.543 58.423 179.863 53.559C179.991 51.511 180.567 49.015 181.591 46.071C181.975 44.919 182.455 43.575 183.031 42.039L183.799 40.119L184.567 38.199C186.999 32.119 187.799 28.567 186.967 27.543ZM240.847 30.327C241.295 28.855 242.287 26.135 243.823 22.167L244.591 19.959L245.455 17.847C246.031 16.311 246.447 15.127 246.703 14.295C246.895 13.719 247.279 12.599 247.855 10.935L248.431 9.111L249.103 7.191C249.935 4.375 250.063 2.903 249.487 2.775C248.847 2.455 248.015 2.935 246.991 4.215C246.671 4.663 246.255 5.271 245.743 6.039L245.263 6.99899L244.687 7.767C243.215 10.135 241.135 14.071 238.447 19.575L236.911 22.935L235.375 26.103C234.159 28.535 233.199 30.423 232.495 31.767C233.647 31.383 234.991 31.095 236.527 30.903L238.639 30.615L240.847 30.327ZM206.383 52.599C205.807 54.583 205.775 56.087 206.287 57.111C206.927 58.391 208.399 58.743 210.703 58.167C213.839 57.399 217.359 54.135 221.263 48.375C222.735 46.199 224.175 43.735 225.583 40.983C226.735 38.807 227.759 36.695 228.655 34.647C223.663 35.863 219.151 37.943 215.119 40.887C210.575 44.279 207.663 48.183 206.383 52.599ZM244.783 29.847L246.607 29.655C248.207 29.463 249.423 29.335 250.255 29.271C250.191 29.719 250.159 30.359 250.159 31.191C249.327 31.255 248.143 31.351 246.607 31.479L244.591 31.671L242.479 31.863L241.999 33.303L241.327 34.935C240.815 36.407 240.399 37.655 240.079 38.679C238.927 41.879 237.967 44.759 237.199 47.319C234.895 54.679 233.615 60.407 233.359 64.503V66.423C233.359 67.063 233.199 67.383 232.879 67.383C232.623 67.383 232.367 67.159 232.111 66.711C230.959 64.727 231.791 58.871 234.607 49.143C235.503 46.007 236.591 42.487 237.871 38.583C238.127 37.943 238.383 37.239 238.639 36.471C238.831 35.959 239.055 35.383 239.311 34.743C239.759 33.335 240.015 32.535 240.079 32.343C238.863 32.343 237.391 32.503 235.663 32.823L233.455 33.399L231.439 33.879C230.927 34.775 230.287 35.959 229.519 37.431L228.463 39.447L227.407 41.559C225.551 45.079 223.951 47.863 222.607 49.911C218.447 56.375 214.063 59.799 209.455 60.183C207.407 59.863 205.903 59.031 204.943 57.687C203.983 56.279 203.855 54.583 204.559 52.599C206.223 47.543 209.391 43.159 214.063 39.447C218.607 35.863 223.823 33.559 229.711 32.535C230.735 30.871 231.919 28.663 233.263 25.911L235.087 22.167L237.007 18.231C240.271 11.575 242.799 6.935 244.591 4.311C245.999 2.327 247.567 1.207 249.295 0.950998C251.151 0.694998 252.079 1.719 252.079 4.023C252.079 4.471 250.671 8.631 247.855 16.503C245.167 23.991 243.503 28.503 242.863 30.039L244.783 29.847ZM257.354 18.711C257.098 18.711 256.938 18.647 256.874 18.519L256.778 18.423L256.682 18.231C256.682 18.167 256.778 17.943 256.97 17.559C257.098 17.303 257.194 17.079 257.258 16.887C257.322 16.567 257.354 16.215 257.354 15.831C256.522 15.703 256.042 15.351 255.914 14.775C255.722 14.327 255.818 13.847 256.202 13.335C256.65 12.823 257.13 12.567 257.642 12.567C258.282 12.631 258.858 13.079 259.37 13.911C259.562 14.615 258.89 16.215 257.354 18.711ZM253.034 18.135C252.778 18.135 252.618 18.071 252.554 17.943L252.458 17.847L252.362 17.655C252.362 17.591 252.458 17.367 252.65 16.983C252.778 16.727 252.874 16.503 252.938 16.311C253.002 15.991 253.034 15.639 253.034 15.255C252.202 15.127 251.722 14.775 251.594 14.199C251.402 13.751 251.498 13.271 251.882 12.759C252.33 12.247 252.81 11.991 253.322 11.991C253.962 12.055 254.538 12.503 255.05 13.335C255.242 14.039 254.57 15.639 253.034 18.135Z" fill="white"></path></svg> 