<?xml version="1.0" encoding="UTF-8"?> <svg xmlns="http://www.w3.org/2000/svg" width="151" height="40" viewBox="0 0 151 40" fill="none"><path d="M4.87978 31.5711L3.87178 31.4271C3.13578 31.3631 2.59178 31.0431 2.23978 30.4671C1.72778 29.8591 1.29578 29.0271 0.943781 27.9711C0.431781 26.2431 0.175781 24.1951 0.175781 21.8271V21.2031C0.175781 19.4431 0.271781 17.6991 0.463781 15.9711C0.687781 13.9551 0.879781 12.6591 1.03978 12.0831C1.58378 9.87514 2.17578 8.11514 2.81578 6.80314C3.51978 5.55514 3.96778 4.78714 4.15978 4.49914C4.70378 3.76314 5.18378 3.18714 5.59978 2.77114C6.14378 2.32314 6.73578 2.01914 7.37578 1.85914C7.56778 1.79514 7.82378 1.76314 8.14378 1.76314C8.55978 1.76314 8.89578 1.82714 9.15178 1.95514L10.6878 2.72314C10.9118 2.85114 11.0558 2.93114 11.1198 2.96314C11.3118 3.05914 11.4878 3.31514 11.6478 3.73114C11.7118 3.98714 11.7438 4.27514 11.7438 4.59514C11.7438 4.94714 11.7118 5.25114 11.6478 5.50714C11.2638 7.04314 10.6238 8.37114 9.72778 9.49114L9.67978 9.53914C9.42378 9.79514 9.21578 9.92314 9.05578 9.92314L8.57578 9.82714C8.41578 9.76314 8.38378 9.66714 8.47978 9.53914L8.91178 8.57914C9.35978 7.71514 9.72778 6.73914 10.0158 5.65114C10.0798 4.94714 10.1118 4.57914 10.1118 4.54714C10.1118 4.00314 10.0478 3.58714 9.91978 3.29914C9.82378 3.07514 9.67978 3.01114 9.48778 3.10714C9.03978 3.20314 8.52778 3.49114 7.95178 3.97114C7.40778 4.48314 6.94378 5.04314 6.55978 5.65114C5.59978 7.25114 4.86378 8.73914 4.35178 10.1151C3.67978 12.0671 3.23178 13.7471 3.00778 15.1551L2.47978 18.3231C2.28778 20.2751 2.19178 21.7791 2.19178 22.8351C2.19178 23.6671 2.23978 24.5151 2.33578 25.3791C2.49578 26.7231 2.81578 27.9551 3.29578 29.0751C3.58378 29.7471 3.90378 30.2591 4.25578 30.6111C4.41578 30.8031 4.62378 30.8511 4.87978 30.7551C5.58378 30.3711 6.19178 29.9231 6.70378 29.4111C7.79178 28.2911 8.75178 27.0271 9.58378 25.6191C10.4798 24.1151 11.1518 22.9631 11.5998 22.1631L14.1438 17.2191C14.2398 17.0271 14.3998 16.9471 14.6238 16.9791C15.1678 17.0431 15.4398 17.1391 15.4398 17.2671C15.4398 17.3631 15.3438 17.6031 15.1518 17.9871C14.8958 18.6591 14.3198 19.7951 13.4238 21.3951C12.9438 22.3231 12.1918 23.6831 11.1678 25.4751C10.3998 26.7871 9.80778 27.7471 9.39178 28.3551C8.71978 29.2511 8.09578 29.9711 7.51978 30.5151L6.51178 31.2351C5.96778 31.5551 5.42378 31.6671 4.87978 31.5711ZM16.8595 24.6591L15.2755 23.7951C14.4755 23.3471 13.9635 22.6751 13.7395 21.7791C13.5475 21.1071 13.4515 20.4351 13.4515 19.7631C13.4515 19.1231 13.5635 18.3711 13.7875 17.5071C14.0115 16.5151 14.4435 15.6351 15.0835 14.8671C15.3395 14.5151 15.6275 14.2431 15.9475 14.0511C16.1715 13.9231 16.3955 13.8591 16.6195 13.8591C16.6515 13.8591 16.7955 13.8911 17.0515 13.9551C17.6595 14.2111 18.1715 14.4991 18.5875 14.8191L18.8275 15.0111C18.8915 15.1711 18.8915 15.2991 18.8275 15.3951L18.7315 15.5391C18.6995 15.5391 18.6355 15.6191 18.5395 15.7791C18.4435 15.9071 18.3635 15.9551 18.2995 15.9231C18.1715 15.8911 18.1075 15.6991 18.1075 15.3471L18.0115 15.0591C17.9475 14.9631 17.8675 14.9151 17.7715 14.9151C17.4195 14.9151 17.1155 15.1071 16.8595 15.4911C16.4435 15.9071 16.1395 16.4351 15.9475 17.0751C15.4995 18.2591 15.3235 19.5071 15.4195 20.8191C15.4515 21.6191 15.6595 22.3551 16.0435 23.0271C16.2035 23.2831 16.3315 23.4111 16.4275 23.4111C16.5235 23.4111 16.6675 23.3791 16.8595 23.3151C17.2755 23.1551 17.5955 22.8991 17.8195 22.5471C18.4275 21.8751 18.8435 21.0751 19.0675 20.1471C19.2915 19.4751 19.4035 18.6911 19.4035 17.7951C19.4035 17.6991 19.3715 17.2671 19.3075 16.4991C18.9555 14.2271 18.2835 12.2591 17.2915 10.5951C16.6835 9.53914 15.9155 8.46714 14.9875 7.37914C14.4755 6.80314 14.0275 6.37114 13.6435 6.08314L12.3475 5.02714L12.2515 4.93114C11.8995 4.67514 11.7235 4.37114 11.7235 4.01914C11.7235 3.63514 11.8995 3.31514 12.2515 3.05914C12.6355 2.73914 13.1795 2.43514 13.8835 2.14714C15.2915 1.63514 16.8595 1.23514 18.5875 0.947138C20.1875 0.691139 22.0115 0.467139 24.0595 0.275138C25.3395 0.211139 26.1555 0.179139 26.5075 0.179139C26.6035 0.179139 27.4515 0.211139 29.0515 0.275138C29.2755 0.275138 29.4835 0.371139 29.6755 0.56314L30.2515 1.28314C30.3795 1.41114 30.3795 1.47514 30.2515 1.47514C30.2195 1.47514 30.1875 1.47514 30.1555 1.47514C29.6115 1.44314 28.8915 1.47514 27.9955 1.57114L26.9395 1.61914C24.7635 1.65114 23.1315 1.74714 22.0435 1.90714C19.6755 2.16314 17.7555 2.48314 16.2835 2.86714C15.2595 3.12314 14.5875 3.34714 14.2675 3.53914C13.8835 3.73114 13.6115 3.90714 13.4515 4.06714C13.1955 4.32314 13.0675 4.53114 13.0675 4.69114C13.0675 4.88314 13.1795 5.07514 13.4035 5.26714C13.8515 5.71514 14.1555 5.98714 14.3155 6.08314C15.5315 6.97914 16.7315 8.24314 17.9155 9.87514C18.7155 10.9631 19.2595 11.8591 19.5475 12.5631C20.3475 14.4831 20.7955 16.2911 20.8915 17.9871C20.8915 18.9791 20.7155 20.0351 20.3635 21.1551C20.1715 21.7311 19.8835 22.4031 19.4995 23.1711C19.1475 23.7151 18.7955 24.1471 18.4435 24.4671C18.0915 24.7231 17.7875 24.8511 17.5315 24.8511C17.3715 24.8511 17.1475 24.7871 16.8595 24.6591ZM27.5024 25.6191L25.7264 24.7551C25.3104 24.5311 24.9424 24.1311 24.6224 23.5551C24.2384 22.8511 24.0464 21.8911 24.0464 20.6751C24.0464 19.0111 24.4624 17.4271 25.2944 15.9231C25.5504 15.5711 25.8704 15.2031 26.2544 14.8191L26.6384 14.5311C26.7664 14.4031 26.9744 14.3391 27.2624 14.3391C27.4224 14.3391 27.5824 14.3871 27.7424 14.4831C27.8384 14.5471 27.9664 14.6591 28.1264 14.8191C27.7744 14.9471 27.4864 15.2351 27.2624 15.6831C26.5904 16.8671 26.1904 18.0351 26.0624 19.1871C25.9664 19.7631 25.9184 20.3551 25.9184 20.9631C25.9184 21.0591 25.9504 21.4911 26.0144 22.2591C26.1424 23.0271 26.3664 23.6991 26.6864 24.2751C26.8784 24.6271 27.0864 24.8031 27.3104 24.8031L27.6944 24.7071C28.3024 24.5791 28.8624 24.1791 29.3744 23.5071C29.9504 22.7391 30.3024 21.8751 30.4304 20.9151C30.5904 20.1791 30.6384 19.6511 30.5744 19.3311C30.5744 19.0751 30.4624 18.9311 30.2384 18.8991H30.1424C29.5024 18.8671 28.6064 18.5471 27.4544 17.9391L27.3584 17.8431C26.9744 17.6191 26.7824 17.3791 26.7824 17.1231C26.7824 16.8671 26.8944 16.6271 27.1184 16.4031C27.4704 15.9551 27.8864 15.7311 28.3664 15.7311C28.5584 15.7311 28.7824 15.7791 29.0384 15.8751C29.3264 15.9711 29.8544 16.2271 30.6224 16.6431C31.0064 16.8671 31.3104 17.1551 31.5344 17.5071C31.6304 17.6991 31.7904 17.7791 32.0144 17.7471L33.3584 17.4591C34.9264 17.1391 36.0784 16.9631 36.8144 16.9311C37.1664 16.9311 37.4544 16.9951 37.6784 17.1231L38.2544 17.4591C38.3184 17.5231 38.3504 17.5711 38.3504 17.6031L38.2064 17.7471C36.4784 18.0671 35.4544 18.2431 35.1344 18.2751C34.4304 18.3711 33.4544 18.5471 32.2064 18.8031C32.0144 18.9311 31.9184 19.0751 31.9184 19.2351C31.8864 20.1311 31.7264 21.0751 31.4384 22.0671C30.9584 23.3151 30.5424 24.1631 30.1904 24.6111C29.9024 24.9951 29.5664 25.2831 29.1824 25.4751C28.8944 25.6671 28.5744 25.7631 28.2224 25.7631C27.9984 25.7631 27.7584 25.7151 27.5024 25.6191ZM29.6624 18.0831H29.9984C30.3184 18.0831 30.4144 17.9231 30.2864 17.6031L30.0944 17.2671C29.9024 16.9471 29.7264 16.7871 29.5664 16.7871C29.4704 16.7871 29.3104 16.8511 29.0864 16.9791C28.7664 17.1711 28.5744 17.3951 28.5104 17.6511C28.5104 17.8111 28.5744 17.9071 28.7024 17.9391C29.1824 18.0351 29.5024 18.0831 29.6624 18.0831ZM51.2534 17.3151C51.2534 17.4111 51.1894 17.4751 51.0614 17.5071L50.4854 17.7951C50.1974 17.8911 49.4294 18.2111 48.1814 18.7551C47.7014 18.9471 46.9014 19.3951 45.7814 20.0991C45.4934 20.2591 45.3014 20.5151 45.2054 20.8671C44.8854 21.9871 44.2934 23.1871 43.4294 24.4671C42.9494 25.0111 42.6454 25.3311 42.5174 25.4271C42.2614 25.6831 41.9734 25.7631 41.6534 25.6671L40.9334 25.5231C40.7094 25.4591 40.5814 25.3311 40.5494 25.1391C40.5174 25.0751 40.5014 24.9151 40.5014 24.6591C40.5014 24.3711 40.5494 24.0671 40.6454 23.7471C40.7094 23.5871 40.9334 23.2031 41.3174 22.5951C42.0854 21.6031 42.8054 20.8671 43.4774 20.3871C43.6694 20.2271 43.8134 20.0191 43.9094 19.7631C44.1974 18.6111 44.3414 17.4591 44.3414 16.3071C44.3414 15.6671 44.2934 15.0111 44.1974 14.3391C44.1334 13.8911 44.0374 13.6031 43.9094 13.4751C43.7814 13.5391 43.6054 13.6831 43.3814 13.9071C43.0934 14.2591 42.8054 14.7071 42.5174 15.2511C42.3574 15.6031 42.1814 16.0191 41.9894 16.4991C41.7974 16.9791 41.6854 17.2351 41.6534 17.2671C41.1414 18.7071 40.5974 20.7391 40.0214 23.3631C39.7974 24.6431 39.6054 25.9391 39.4454 27.2511C39.4454 27.2831 39.4134 27.4431 39.3494 27.7311C39.3174 28.0191 39.2854 28.2751 39.2534 28.4991C39.1574 29.3631 38.9974 31.3631 38.7734 34.4991C38.7094 36.2271 38.6774 37.1871 38.6774 37.3791L38.6294 38.8191V39.3951C38.6294 39.5871 38.5334 39.7151 38.3414 39.7791L37.5254 39.9231C37.3654 39.9231 37.2694 39.8591 37.2374 39.7311C37.1414 39.5711 37.0614 39.3151 36.9974 38.9631C36.9974 38.8671 36.9654 38.3391 36.9014 37.3791C36.9014 35.7151 36.9494 34.0351 37.0454 32.3391C37.1734 29.7791 37.2374 27.6191 37.2374 25.8591C37.2374 24.7391 37.2214 24.0191 37.1894 23.6991L37.1414 21.5391C37.1414 17.4751 37.1574 14.8511 37.1894 13.6671C37.3174 10.7551 37.3974 8.88314 37.4294 8.05114C37.4294 7.95514 37.4614 7.61914 37.5254 7.04314C37.5894 6.88314 37.7014 6.81914 37.8614 6.85114L38.1014 6.94714C38.4534 7.04314 38.6454 7.25114 38.6774 7.57114C38.8054 8.56314 38.8854 9.81114 38.9174 11.3151L39.0614 21.3471C39.0614 21.7311 39.1094 22.0351 39.2054 22.2591L39.5414 20.6751C40.0214 18.6591 40.5814 16.8511 41.2214 15.2511C41.3814 14.8351 41.6214 14.3391 41.9414 13.7631C42.1334 13.4751 42.3574 13.2031 42.6134 12.9471C42.9334 12.6271 43.2694 12.5151 43.6214 12.6111L44.6294 12.8031C44.9814 12.8991 45.2534 13.1231 45.4454 13.4751C45.7654 14.0511 45.9414 14.6591 45.9734 15.2991C46.0374 16.5151 45.9894 17.5071 45.8294 18.2751L45.7814 18.7551L45.8294 18.8511C45.8934 18.8831 45.9574 18.8671 46.0214 18.8031C46.1174 18.7391 46.1814 18.7071 46.2134 18.7071C47.1414 18.2271 48.3414 17.7311 49.8134 17.2191C50.0694 17.1231 50.2934 17.0751 50.4854 17.0751C50.5494 17.0751 50.7094 17.1071 50.9654 17.1711C51.1254 17.1711 51.2214 17.2191 51.2534 17.3151ZM42.9014 22.5951L42.9974 22.2591L42.4694 22.8831C42.1494 23.3311 41.9094 23.7151 41.7494 24.0351C41.6854 24.1951 41.6854 24.3071 41.7494 24.3711C41.9414 24.2751 42.1494 24.0191 42.3734 23.6031C42.6294 23.1871 42.8054 22.8511 42.9014 22.5951ZM68.8867 25.7631C68.6947 25.6031 68.5507 25.3471 68.4547 24.9951C68.2627 24.4511 68.1507 23.7631 68.1187 22.9311C68.1187 22.0671 68.1987 21.2991 68.3587 20.6271C68.3907 20.4991 68.4707 20.1471 68.5987 19.5711C68.7587 18.9951 68.8707 18.5951 68.9347 18.3711C69.2227 17.5071 69.4307 16.6751 69.5587 15.8751C69.5907 15.8431 69.6067 15.7151 69.6067 15.4911C69.6067 15.2991 69.5107 15.2511 69.3187 15.3471C68.9987 15.4751 68.6147 15.6831 68.1667 15.9711C67.3667 16.4511 66.6307 17.0431 65.9587 17.7471C65.5747 18.2591 65.3667 18.5471 65.3347 18.6111C65.2387 18.7711 65.1427 18.8031 65.0467 18.7071L64.0867 18.0831C63.9907 17.9231 63.9587 17.7951 63.9907 17.6991L64.3267 17.1231C64.9027 16.2591 65.7027 15.4751 66.7267 14.7711L68.0707 13.8591L68.2627 13.7631C68.6467 13.6031 68.9347 13.5231 69.1267 13.5231C69.4467 13.5231 69.7347 13.6511 69.9907 13.9071L70.9027 14.6271C71.1267 14.7551 71.2707 15.0271 71.3347 15.4431C71.3347 15.5391 71.3027 15.9391 71.2387 16.6431L70.7587 19.1871C70.6947 19.5391 70.5667 20.5791 70.3747 22.3071C70.3107 23.3311 70.2787 23.8911 70.2787 23.9871L70.3267 25.2351V25.4751C70.3907 25.6031 70.4547 25.6351 70.5187 25.5711L71.0467 25.3791C71.3027 25.2511 71.6227 24.9951 72.0067 24.6111C72.6147 24.0991 73.3027 23.3311 74.0707 22.3071L76.1827 19.1871L77.0947 17.8431C77.2867 17.5551 77.4947 17.2671 77.7187 16.9791C77.7827 16.8191 77.8627 16.8031 77.9587 16.9311C77.9907 16.9631 78.0547 17.0111 78.1507 17.0751C78.3427 17.2031 78.4387 17.2991 78.4387 17.3631C78.4387 17.3951 78.3587 17.5391 78.1987 17.7951C77.7507 18.3711 77.0147 19.4431 75.9907 21.0111L73.7827 24.0351C73.2067 24.8031 72.5827 25.5231 71.9107 26.1951L71.0467 26.8191C70.7907 26.9791 70.5667 26.9791 70.3747 26.8191C70.2147 26.6911 69.9587 26.5151 69.6067 26.2911C69.2547 26.0351 69.0147 25.8591 68.8867 25.7631ZM79.9555 25.6191L78.1795 24.7551C77.7635 24.5311 77.3955 24.1311 77.0755 23.5551C76.6915 22.8511 76.4995 21.8911 76.4995 20.6751C76.4995 19.0111 76.9155 17.4271 77.7475 15.9231C78.0035 15.5711 78.3235 15.2031 78.7075 14.8191L79.0915 14.5311C79.2195 14.4031 79.4275 14.3391 79.7155 14.3391C79.8755 14.3391 80.0355 14.3871 80.1955 14.4831C80.2915 14.5471 80.4195 14.6591 80.5795 14.8191C80.2275 14.9471 79.9395 15.2351 79.7155 15.6831C79.0435 16.8671 78.6435 18.0351 78.5155 19.1871C78.4195 19.7631 78.3715 20.3551 78.3715 20.9631C78.3715 21.0591 78.4035 21.4911 78.4675 22.2591C78.5955 23.0271 78.8195 23.6991 79.1395 24.2751C79.3315 24.6271 79.5395 24.8031 79.7635 24.8031L80.1475 24.7071C80.7555 24.5791 81.3155 24.1791 81.8275 23.5071C82.4035 22.7391 82.7555 21.8751 82.8835 20.9151C83.0435 20.1791 83.0915 19.6511 83.0275 19.3311C83.0275 19.0751 82.9155 18.9311 82.6915 18.8991H82.5955C81.9555 18.8671 81.0595 18.5471 79.9075 17.9391L79.8115 17.8431C79.4275 17.6191 79.2355 17.3791 79.2355 17.1231C79.2355 16.8671 79.3475 16.6271 79.5715 16.4031C79.9235 15.9551 80.3395 15.7311 80.8195 15.7311C81.0115 15.7311 81.2355 15.7791 81.4915 15.8751C81.7795 15.9711 82.3075 16.2271 83.0755 16.6431C83.4595 16.8671 83.7635 17.1551 83.9875 17.5071C84.0835 17.6991 84.2435 17.7791 84.4675 17.7471L85.8115 17.4591C87.3795 17.1391 88.5315 16.9631 89.2675 16.9311C89.6195 16.9311 89.9075 16.9951 90.1315 17.1231L90.7075 17.4591C90.7715 17.5231 90.8035 17.5711 90.8035 17.6031L90.6595 17.7471C88.9315 18.0671 87.9075 18.2431 87.5875 18.2751C86.8835 18.3711 85.9075 18.5471 84.6595 18.8031C84.4675 18.9311 84.3715 19.0751 84.3715 19.2351C84.3395 20.1311 84.1795 21.0751 83.8915 22.0671C83.4115 23.3151 82.9955 24.1631 82.6435 24.6111C82.3555 24.9951 82.0195 25.2831 81.6355 25.4751C81.3475 25.6671 81.0275 25.7631 80.6755 25.7631C80.4515 25.7631 80.2115 25.7151 79.9555 25.6191ZM82.1155 18.0831H82.4515C82.7715 18.0831 82.8675 17.9231 82.7395 17.6031L82.5475 17.2671C82.3555 16.9471 82.1795 16.7871 82.0195 16.7871C81.9235 16.7871 81.7635 16.8511 81.5395 16.9791C81.2195 17.1711 81.0275 17.3951 80.9635 17.6511C80.9635 17.8111 81.0275 17.9071 81.1555 17.9391C81.6355 18.0351 81.9555 18.0831 82.1155 18.0831ZM91.5625 24.5151L90.6505 24.1791C89.8505 23.8911 89.2905 23.3631 88.9705 22.5951C88.5225 21.6351 88.3305 20.6271 88.3945 19.5711C88.3945 18.1311 88.5705 16.7871 88.9225 15.5391C89.3385 13.9711 90.0105 12.6751 90.9385 11.6511C91.4505 11.0431 91.9305 10.5791 92.3785 10.2591L92.9065 9.92314C93.1305 9.79514 93.4025 9.77914 93.7225 9.87514L94.6345 10.2591C94.8905 10.4511 94.9065 10.5791 94.6825 10.6431C94.2345 11.0911 93.8985 11.4591 93.6745 11.7471C92.6185 13.2191 91.8825 14.7231 91.4665 16.2591C91.2745 17.1231 91.0985 18.0351 90.9385 18.9951C90.9065 19.1551 90.8905 19.5551 90.8905 20.1951C90.8265 21.2191 90.8745 22.0351 91.0345 22.6431C91.0665 22.9951 91.1625 23.3311 91.3225 23.6511C91.3545 23.8751 91.4825 23.9871 91.7065 23.9871C92.0585 23.9871 92.5065 23.8431 93.0505 23.5551C93.5625 23.2671 94.0105 22.9311 94.3945 22.5471C94.7785 22.1951 95.5465 21.3151 96.6985 19.9071L98.5705 17.4591C98.8265 17.1711 98.9865 17.0271 99.0505 17.0271C99.1465 17.0271 99.3065 17.0751 99.5305 17.1711L99.7705 17.3151C99.8345 17.3471 99.8505 17.4271 99.8185 17.5551L99.7225 17.6991L99.0505 18.5631C97.6425 20.4191 96.5865 21.6991 95.8825 22.4031C95.5305 22.7871 95.1625 23.1551 94.7785 23.5071C94.2665 23.9231 93.6745 24.2591 93.0025 24.5151C92.5545 24.5791 92.3145 24.6111 92.2825 24.6111C92.2505 24.6111 92.0105 24.5791 91.5625 24.5151ZM98.9283 28.0191C98.7043 27.9871 98.5443 27.8591 98.4483 27.6351L97.9683 26.3871C97.6483 25.2991 97.4883 24.0831 97.4883 22.7391C97.4883 21.6511 97.5523 20.2591 97.6803 18.5631L97.7763 17.5071C97.9043 16.2271 97.9683 15.4591 97.9683 15.2031C98.1283 13.1551 98.2563 11.8911 98.3523 11.4111L98.8803 8.05114C98.9123 7.63514 99.0243 7.42714 99.2163 7.42714C99.3443 7.42714 99.5203 7.47514 99.7443 7.57114C99.9683 7.66714 100.096 7.82714 100.128 8.05114L100.272 8.72314C100.432 10.1631 100.512 11.3311 100.512 12.2271C100.544 12.6431 100.56 13.6031 100.56 15.1071C100.56 16.6111 100.544 17.5711 100.512 17.9871C100.448 20.2911 100.416 21.5871 100.416 21.8751C100.416 22.1951 100.432 22.4031 100.464 22.4991C100.592 22.4031 100.656 22.3231 100.656 22.2591L101.52 19.0911C102 17.5871 102.48 16.3711 102.96 15.4431C103.12 15.0271 103.312 14.7071 103.536 14.4831C103.792 14.1311 104.128 14.0191 104.544 14.1471C104.896 14.2751 105.12 14.3391 105.216 14.3391C105.536 14.4351 105.76 14.6271 105.888 14.9151L106.176 15.6351L107.04 17.9871L107.088 18.1311C107.184 18.5471 107.328 18.7551 107.52 18.7551C107.584 18.7551 107.792 18.6271 108.144 18.3711C108.912 17.6671 109.376 17.2191 109.536 17.0271C109.632 16.8991 109.952 16.6271 110.496 16.2111C110.784 16.0191 111.072 15.9711 111.36 16.0671L112.416 16.3551C112.736 16.4511 112.992 16.6431 113.184 16.9311L114 18.2751L114.528 19.2831L114.864 19.7151C115.024 19.8751 115.232 19.9551 115.488 19.9551C115.744 19.9551 115.904 19.9391 115.968 19.9071C117.44 19.6511 118.592 19.2831 119.424 18.8031L121.44 17.5071L122.16 17.0751C122.352 17.0431 122.512 17.0431 122.64 17.0751L122.784 17.1231C123.2 17.2511 123.408 17.3471 123.408 17.4111V17.4591C123.408 17.6831 123.248 17.8431 122.928 17.9391L121.68 18.8991C120.656 19.6991 119.376 20.2111 117.84 20.4351C117.168 20.5311 116.736 20.5791 116.544 20.5791C115.552 20.5791 114.544 20.3071 113.52 19.7631C113.232 19.5711 112.976 19.3311 112.752 19.0431C112.592 18.8511 112.32 18.3231 111.936 17.4591C111.776 17.0751 111.648 16.8831 111.552 16.8831C111.392 16.8831 111.2 16.9951 110.976 17.2191L110.256 17.9391L109.392 18.8511C109.232 19.0111 109.04 19.1711 108.816 19.3311C108.496 19.5551 108.128 19.6191 107.712 19.5231L106.704 19.1871C106.064 18.9951 105.616 18.5791 105.36 17.9391C105.136 17.4911 104.992 17.0271 104.928 16.5471L104.64 15.2991C104.608 15.2351 104.56 15.2031 104.496 15.2031C104.464 15.1711 104.432 15.1871 104.4 15.2511L103.968 15.7791C103.328 16.6751 102.72 18.0351 102.144 19.8591C101.92 20.6271 101.696 21.5871 101.472 22.7391L101.136 24.1791L100.56 26.7711C100.528 27.0911 100.464 27.5071 100.368 28.0191C100.368 28.2111 100.256 28.2911 100.032 28.2591C100 28.2591 99.8563 28.2431 99.6003 28.2111C99.3763 28.1471 99.1523 28.0831 98.9283 28.0191ZM115.728 11.6991L115.488 11.6511C114.144 11.5551 112.608 11.2191 110.88 10.6431C109.536 10.1631 108.16 9.79514 106.752 9.53914C106.592 9.50714 106.256 9.49114 105.744 9.49114C105.264 9.49114 104.784 9.53914 104.304 9.63514C103.728 9.73114 103.264 9.95514 102.912 10.3071C102.72 10.4671 102.704 10.6271 102.864 10.7871L103.104 11.0271C103.168 11.0911 103.2 11.1551 103.2 11.2191C103.2 11.3471 103.104 11.4111 102.912 11.4111C102.624 11.4111 102.4 11.2671 102.24 10.9791L101.904 9.97114C101.872 9.93914 101.856 9.82714 101.856 9.63514C101.856 9.47514 101.936 9.26714 102.096 9.01114C102.32 8.69114 102.624 8.43514 103.008 8.24314C103.296 8.08314 103.744 7.92314 104.352 7.76314C104.832 7.66714 105.296 7.61914 105.744 7.61914C106.224 7.61914 106.8 7.68314 107.472 7.81114C108.304 7.90714 109.328 8.11514 110.544 8.43514L112.176 8.81914C113.296 9.07514 114.336 9.23514 115.296 9.29914H115.68C116.224 9.29914 116.672 9.23514 117.024 9.10714C117.248 9.07514 117.36 8.96314 117.36 8.77114C117.36 8.67514 117.408 8.62714 117.504 8.62714C117.536 8.62714 117.584 8.65914 117.648 8.72314C117.84 9.42714 117.936 9.97114 117.936 10.3551L117.888 10.7871C117.824 11.0751 117.664 11.2831 117.408 11.4111C117.088 11.5391 116.528 11.6351 115.728 11.6991ZM133.164 17.4591L132.06 18.8991L130.284 21.2031C129.516 22.0671 128.732 22.7231 127.932 23.1711C127.836 23.2671 127.66 23.3471 127.404 23.4111C127.18 23.5391 126.876 23.6031 126.492 23.6031C126.236 23.6031 126.012 23.5711 125.82 23.5071C124.668 23.0911 123.756 22.6111 123.084 22.0671C122.028 21.2031 121.5 20.0191 121.5 18.5151C121.5 17.2031 121.836 16.0991 122.508 15.2031C122.988 14.4671 123.58 13.9871 124.284 13.7631C124.54 13.6671 124.78 13.6191 125.004 13.6191C125.356 13.6191 125.692 13.7151 126.012 13.9071L126.684 14.2431C127.1 14.4671 127.308 14.8031 127.308 15.2511L127.212 15.7311C127.18 15.8911 127.116 16.0031 127.02 16.0671C126.668 16.6431 126.14 17.2031 125.436 17.7471C124.956 18.0351 124.46 18.1951 123.948 18.2271C123.692 18.2591 123.564 18.4191 123.564 18.7071C123.5 19.9871 123.756 21.0431 124.332 21.8751L124.524 22.2111C124.844 22.6271 125.18 22.8351 125.532 22.8351C125.724 22.8351 125.932 22.7871 126.156 22.6911C126.668 22.5631 127.164 22.3231 127.644 21.9711C128.508 21.2991 129.276 20.5471 129.948 19.7151L130.956 18.3711L131.916 17.2671C132.108 17.0751 132.236 16.9791 132.3 16.9791C132.364 16.9791 132.428 17.0111 132.492 17.0751C132.588 17.1391 132.668 17.1711 132.732 17.1711C132.988 17.2031 133.132 17.2991 133.164 17.4591ZM123.852 17.6991L124.092 17.6511C124.924 17.2351 125.596 16.5951 126.108 15.7311C126.236 15.3791 126.284 15.0911 126.252 14.8671V14.7231C126.188 14.4671 126.044 14.3871 125.82 14.4831C125.5 14.5791 125.228 14.7391 125.004 14.9631C124.268 15.5711 123.836 16.4351 123.708 17.5551C123.644 17.6511 123.692 17.6991 123.852 17.6991ZM135.042 9.20314C135.01 9.13914 134.994 8.99514 134.994 8.77114C134.994 8.54714 135.042 8.33914 135.138 8.14714C135.17 7.95514 135.298 7.89114 135.522 7.95514C135.682 8.05114 135.794 8.19514 135.858 8.38714C136.05 9.21914 136.162 9.68314 136.194 9.77914C136.29 10.1311 136.434 10.3071 136.626 10.3071C136.722 10.3071 136.898 10.2271 137.154 10.0671C137.378 9.90714 137.522 9.73114 137.586 9.53914C137.874 9.02714 138.034 8.65914 138.066 8.43514C138.194 8.24314 138.338 8.19514 138.498 8.29114C138.754 8.41914 138.866 8.65914 138.834 9.01114C138.706 9.45914 138.498 9.89114 138.21 10.3071C137.922 10.6911 137.618 10.8831 137.298 10.8831H137.058C135.97 10.4671 135.298 9.90714 135.042 9.20314ZM143.394 25.9551L141.81 25.5231C141.458 25.4271 141.09 25.0911 140.706 24.5151C140.354 23.9391 140.114 23.3151 139.986 22.6431C139.89 22.2591 139.794 21.5071 139.698 20.3871C139.634 19.5551 139.602 18.5631 139.602 17.4111C139.602 17.3151 139.602 17.2031 139.602 17.0751C139.602 16.9471 139.602 16.8191 139.602 16.6911C139.602 16.5631 139.602 16.4831 139.602 16.4511C139.538 16.3871 139.474 16.4191 139.41 16.5471L139.122 17.1711C138.098 19.4111 136.978 21.3951 135.762 23.1231C135.314 23.6991 135.042 24.0351 134.946 24.1311C134.754 24.3231 134.514 24.3711 134.226 24.2751L133.218 23.9871C132.77 23.8911 132.45 23.6191 132.258 23.1711C132.002 22.4991 131.842 21.8431 131.778 21.2031L131.73 19.8111C131.73 19.6831 131.762 19.0111 131.826 17.7951C131.954 16.5151 132.098 15.5871 132.258 15.0111C132.386 14.6271 132.514 14.4351 132.642 14.4351C132.738 14.4351 132.914 14.4831 133.17 14.5791C133.426 14.6751 133.554 14.8831 133.554 15.2031C133.618 16.7391 133.65 17.6191 133.65 17.8431C133.714 18.8671 133.826 20.0991 133.986 21.5391C134.018 21.7311 134.082 22.1631 134.178 22.8351C134.178 22.8991 134.194 22.9471 134.226 22.9791C134.29 22.9791 134.338 22.9631 134.37 22.9311C134.69 22.7391 134.978 22.4351 135.234 22.0191C135.842 21.2511 136.418 20.3551 136.962 19.3311C137.762 17.8271 138.562 16.0831 139.362 14.0991L139.842 12.8511C140.002 12.4991 140.114 12.1631 140.178 11.8431C140.21 11.5871 140.322 11.2351 140.514 10.7871C140.546 10.6591 140.642 10.6111 140.802 10.6431L141.81 10.9791C142.034 11.0751 142.194 11.2351 142.29 11.4591C142.418 11.8111 142.45 12.3231 142.386 12.9951L142.194 15.8271C142.13 17.0431 142.098 18.4031 142.098 19.9071C142.098 20.5791 142.194 21.5871 142.386 22.9311C142.482 23.5711 142.658 24.1791 142.914 24.7551C143.01 24.9791 143.09 25.0911 143.154 25.0911C143.282 25.0911 143.41 25.0271 143.538 24.8991C144.018 24.6111 144.434 24.2271 144.786 23.7471C145.106 23.3311 145.698 22.4351 146.562 21.0591C147.362 19.7791 147.89 18.8511 148.146 18.2751C148.306 17.8591 148.498 17.5391 148.722 17.3151C148.882 17.1551 149.026 17.0911 149.154 17.1231C149.666 17.2511 149.97 17.3631 150.066 17.4591C149.81 17.9711 149.586 18.3551 149.394 18.6111C148.978 19.1871 148.562 19.8431 148.146 20.5791L146.754 22.9791C146.082 24.0671 145.538 24.8191 145.122 25.2351L144.546 25.7151C144.194 25.9711 143.81 26.0511 143.394 25.9551Z" fill="black"></path></svg> 