<?xml version="1.0" encoding="UTF-8"?> <svg xmlns="http://www.w3.org/2000/svg" width="340" height="95" viewBox="0 0 340 95" fill="none"><path d="M50.5023 35.5052H51.0783C51.2916 35.5052 51.5476 35.3986 51.8463 35.1852C52.1876 34.9719 52.5503 34.7372 52.9343 34.4812C53.3609 34.1826 53.8516 33.8412 54.4063 33.4572C55.0036 33.0732 55.6649 32.7319 56.3903 32.4332C57.1583 32.0919 58.0116 31.8146 58.9503 31.6012C59.8889 31.3879 60.9343 31.2812 62.0863 31.2812C63.5369 31.2812 64.9449 31.4946 66.3103 31.9212C67.6756 32.3052 68.8916 32.9239 69.9583 33.7772C71.0249 34.5879 71.8783 35.6332 72.5183 36.9132C73.1583 38.1932 73.4783 39.7292 73.4783 41.5212C73.4783 43.0146 73.2223 44.3799 72.7103 45.6172C72.1983 46.8546 71.4943 48.0066 70.5983 49.0732C69.7449 50.1399 68.7636 51.1639 67.6543 52.1452C66.5876 53.0839 65.4783 54.0226 64.3263 54.9612C63.2169 55.8572 62.1289 56.7746 61.0623 57.7132C60.0383 58.6519 59.0996 59.6332 58.2463 60.6572C57.4356 61.6812 56.7529 62.7906 56.1983 63.9852C55.6436 65.1372 55.3236 66.3746 55.2383 67.6972H68.5503C70.1716 67.6972 71.4516 67.4199 72.3903 66.8652C73.3289 66.2679 73.8196 65.3079 73.8623 63.9852H74.4383V71.2812H50.7583C50.7583 69.3612 51.0783 67.5906 51.7183 65.9692C52.3583 64.3052 53.1903 62.7906 54.2143 61.4252C55.2383 60.0172 56.3689 58.7159 57.6063 57.5212C58.8863 56.3266 60.1449 55.1746 61.3823 54.0652C62.4063 53.1692 63.3876 52.2732 64.3263 51.3772C65.3076 50.4812 66.1609 49.5852 66.8863 48.6892C67.6543 47.7506 68.2516 46.7906 68.6783 45.8092C69.1476 44.7852 69.3823 43.7186 69.3823 42.6092C69.3823 41.2012 69.1263 39.9426 68.6143 38.8332C68.1449 37.7239 67.5049 36.7852 66.6943 36.0173C65.9263 35.2492 65.0303 34.6732 64.0063 34.2892C62.9823 33.8626 61.9583 33.6493 60.9343 33.6493C58.7583 33.6493 56.8383 34.3106 55.1743 35.6332C53.5103 36.9132 52.1663 38.5772 51.1423 40.6252H50.5023V35.5052ZM91.6358 47.6012C90.0998 47.6012 88.7558 47.8786 87.6038 48.4332C86.4944 48.9452 85.5558 49.6492 84.7878 50.5452C84.0624 51.4412 83.5078 52.4652 83.1238 53.6172C82.7824 54.7692 82.6118 55.9639 82.6118 57.2012C82.6118 58.6946 82.8251 60.1879 83.2518 61.6812C83.7211 63.1746 84.3824 64.5186 85.2358 65.7132C86.1318 66.8652 87.1984 67.8252 88.4358 68.5932C89.6731 69.3186 91.1024 69.6812 92.7238 69.6812C94.1744 69.6812 95.4544 69.4039 96.5638 68.8492C97.6731 68.2519 98.5904 67.4839 99.3158 66.5452C100.084 65.5639 100.638 64.4546 100.98 63.2172C101.364 61.9799 101.556 60.7212 101.556 59.4412C101.556 57.9906 101.321 56.5612 100.852 55.1532C100.425 53.7452 99.7851 52.4866 98.9318 51.3772C98.1211 50.2252 97.0971 49.3079 95.8598 48.6252C94.6224 47.9426 93.2144 47.6012 91.6358 47.6012ZM100.724 37.0412C100.041 36.1879 99.2091 35.5052 98.2278 34.9932C97.2891 34.4812 96.3931 34.2252 95.5398 34.2252C93.5771 34.2252 91.8704 34.7159 90.4198 35.6972C88.9691 36.6359 87.7531 37.8092 86.7718 39.2172C85.8331 40.6252 85.0864 42.1612 84.5318 43.8252C83.9771 45.4466 83.6144 46.9612 83.4438 48.3692C84.6811 47.2599 86.0678 46.4919 87.6038 46.0652C89.1398 45.5959 90.7398 45.3612 92.4038 45.3612C94.5798 45.3612 96.4784 45.7452 98.0998 46.5132C99.7638 47.2386 101.129 48.2199 102.196 49.4572C103.305 50.6519 104.116 52.0386 104.628 53.6172C105.182 55.1959 105.46 56.8172 105.46 58.4812C105.46 60.1452 105.182 61.7879 104.628 63.4092C104.073 65.0306 103.241 66.4812 102.132 67.7612C101.022 68.9986 99.6358 70.0012 97.9718 70.7692C96.3504 71.5373 94.4518 71.9213 92.2758 71.9213C89.8864 71.9213 87.8171 71.4733 86.0678 70.5772C84.3184 69.6812 82.8891 68.4866 81.7798 66.9932C80.6704 65.4572 79.8384 63.6866 79.2838 61.6812C78.7718 59.6759 78.5158 57.5852 78.5158 55.4092C78.5158 52.5932 78.8998 49.7986 79.6678 47.0252C80.4784 44.2092 81.6518 41.6919 83.1878 39.4732C84.7238 37.2119 86.6011 35.3772 88.8198 33.9692C91.0384 32.5612 93.5771 31.8572 96.4358 31.8572C97.0331 31.8572 97.6518 31.8999 98.2918 31.9852C98.9744 32.0706 99.5718 32.1559 100.084 32.2412C100.34 32.2839 100.596 32.3266 100.852 32.3692C101.15 32.4119 101.321 32.4332 101.364 32.4332V37.0412H100.724ZM143.523 51.4412C143.523 48.1559 143.929 45.2546 144.739 42.7372C145.593 40.2199 146.702 38.1292 148.067 36.4652C149.433 34.7586 150.969 33.4786 152.675 32.6252C154.425 31.7292 156.195 31.2812 157.987 31.2812C159.779 31.2812 161.55 31.7292 163.299 32.6252C165.049 33.4786 166.585 34.7586 167.907 36.4652C169.273 38.1292 170.361 40.2199 171.171 42.7372C172.025 45.2546 172.451 48.1559 172.451 51.4412C172.451 54.7692 172.025 57.7132 171.171 60.2732C170.361 62.7906 169.273 64.9239 167.907 66.6732C166.585 68.3799 165.049 69.6812 163.299 70.5772C161.55 71.4733 159.779 71.9213 157.987 71.9213C156.195 71.9213 154.425 71.4733 152.675 70.5772C150.969 69.6812 149.433 68.3799 148.067 66.6732C146.702 64.9239 145.593 62.7906 144.739 60.2732C143.929 57.7132 143.523 54.7692 143.523 51.4412ZM168.419 53.1052C168.419 50.0332 168.078 47.3239 167.395 44.9772C166.713 42.5879 165.817 40.6039 164.707 39.0252C163.641 37.4039 162.403 36.1879 160.995 35.3772C159.63 34.5239 158.222 34.0972 156.771 34.0972C155.321 34.0972 153.998 34.5239 152.803 35.3772C151.651 36.1879 150.67 37.2759 149.859 38.6412C149.049 40.0066 148.409 41.5852 147.939 43.3772C147.513 45.1692 147.299 47.0466 147.299 49.0092C147.299 51.3559 147.577 53.7452 148.131 56.1772C148.686 58.5666 149.475 60.7426 150.499 62.7052C151.523 64.6252 152.739 66.2039 154.147 67.4412C155.598 68.6786 157.177 69.2972 158.883 69.2972C160.121 69.2972 161.315 68.9559 162.467 68.2732C163.619 67.5479 164.622 66.5026 165.475 65.1372C166.371 63.7719 167.075 62.0866 167.587 60.0812C168.142 58.0759 168.419 55.7506 168.419 53.1052ZM190.576 71.2812V70.6412C191.174 70.6412 191.622 70.5559 191.92 70.3852C192.262 70.1719 192.496 69.9159 192.624 69.6172C192.795 69.2759 192.88 68.9132 192.88 68.5292C192.923 68.1026 192.944 67.6759 192.944 67.2492V60.9772H175.472L197.104 30.3212V57.7772H201.008V60.9772H197.104V67.2492C197.104 68.1026 197.254 68.8919 197.552 69.6172C197.894 70.2999 198.576 70.6412 199.6 70.6412V71.2812H190.576ZM192.944 39.8572C190.811 42.8866 188.678 45.8732 186.544 48.8172C184.454 51.7612 182.342 54.7479 180.208 57.7772H192.944V39.8572ZM236.877 35.5052H237.453C237.667 35.5052 237.923 35.3986 238.221 35.1852C238.563 34.9719 238.925 34.7372 239.309 34.4812C239.736 34.1826 240.227 33.8412 240.781 33.4572C241.379 33.0732 242.04 32.7319 242.765 32.4332C243.533 32.0919 244.387 31.8146 245.325 31.6012C246.264 31.3879 247.309 31.2812 248.461 31.2812C249.912 31.2812 251.32 31.4946 252.685 31.9212C254.051 32.3052 255.267 32.9239 256.333 33.7772C257.4 34.5879 258.253 35.6332 258.893 36.9132C259.533 38.1932 259.853 39.7292 259.853 41.5212C259.853 43.0146 259.597 44.3799 259.085 45.6172C258.573 46.8546 257.869 48.0066 256.973 49.0732C256.12 50.1399 255.139 51.1639 254.029 52.1452C252.963 53.0839 251.853 54.0226 250.701 54.9612C249.592 55.8572 248.504 56.7746 247.437 57.7132C246.413 58.6519 245.475 59.6332 244.621 60.6572C243.811 61.6812 243.128 62.7906 242.573 63.9852C242.019 65.1372 241.699 66.3746 241.613 67.6972H254.925C256.547 67.6972 257.827 67.4199 258.765 66.8652C259.704 66.2679 260.195 65.3079 260.237 63.9852H260.813V71.2812H237.133C237.133 69.3612 237.453 67.5906 238.093 65.9692C238.733 64.3052 239.565 62.7906 240.589 61.4252C241.613 60.0172 242.744 58.7159 243.981 57.5212C245.261 56.3266 246.52 55.1746 247.757 54.0652C248.781 53.1692 249.763 52.2732 250.701 51.3772C251.683 50.4812 252.536 49.5852 253.261 48.6892C254.029 47.7506 254.627 46.7906 255.053 45.8092C255.523 44.7852 255.757 43.7186 255.757 42.6092C255.757 41.2012 255.501 39.9426 254.989 38.8332C254.52 37.7239 253.88 36.7852 253.069 36.0173C252.301 35.2492 251.405 34.6732 250.381 34.2892C249.357 33.8626 248.333 33.6493 247.309 33.6493C245.133 33.6493 243.213 34.3106 241.549 35.6332C239.885 36.9132 238.541 38.5772 237.517 40.6252H236.877V35.5052ZM288.059 59.3132C288.059 60.8066 287.76 62.3212 287.163 63.8572C286.608 65.3506 285.755 66.6946 284.603 67.8892C283.451 69.0839 281.979 70.0652 280.187 70.8332C278.437 71.5586 276.389 71.9213 274.043 71.9213C272.891 71.9213 271.76 71.7933 270.651 71.5373C269.541 71.2812 268.496 71.0252 267.515 70.7692C266.789 70.5559 266.128 70.3852 265.531 70.2572C264.933 70.0866 264.4 70.0012 263.931 70.0012V64.9452C265.04 66.4386 266.491 67.6119 268.283 68.4652C270.117 69.3186 271.952 69.7452 273.787 69.7452C275.451 69.7452 276.901 69.4892 278.139 68.9772C279.376 68.4652 280.4 67.7826 281.211 66.9292C282.064 66.0332 282.683 64.9879 283.067 63.7932C283.493 62.5559 283.707 61.2332 283.707 59.8252C283.707 58.1186 283.408 56.6252 282.811 55.3452C282.256 54.0652 281.509 52.9986 280.571 52.1452C279.632 51.2492 278.544 50.5879 277.307 50.1612C276.112 49.7346 274.896 49.5212 273.659 49.5212C272.293 49.5212 270.8 49.8412 269.179 50.4812C267.557 51.0786 265.893 52.0386 264.187 53.3612L272.379 31.9212H288.379L287.099 35.5052H273.723C272.997 37.4252 272.208 39.4092 271.355 41.4572C270.544 43.5052 269.776 45.5106 269.051 47.4732C270.075 47.0039 271.035 46.6839 271.931 46.5132C272.827 46.3426 273.787 46.2572 274.811 46.2572C276.517 46.2572 278.16 46.5559 279.739 47.1532C281.317 47.7506 282.725 48.6039 283.963 49.7132C285.2 50.8226 286.181 52.1879 286.907 53.8092C287.675 55.4306 288.059 57.2652 288.059 59.3132Z" fill="#402A0C"></path><circle cx="122.832" cy="51.21" r="4.38672" fill="#402A0C" fill-opacity="0.51"></circle><circle cx="217.66" cy="51.21" r="4.38672" fill="#402A0C" fill-opacity="0.51"></circle></svg> 