<?xml version="1.0" encoding="UTF-8"?> <svg xmlns="http://www.w3.org/2000/svg" width="283" height="278" viewBox="0 0 283 278" fill="none"><path d="M160.046 92.6132C160.958 95.6516 161.317 98.8339 161.82 101.95C161.849 102.142 162.016 102.314 162.228 102.278C162.439 102.242 162.522 102.019 162.48 101.821C162.244 100.449 162.133 99.0507 161.877 97.6856C161.374 94.2769 160.536 90.9627 158.282 88.2693C157.967 87.8044 157.447 88.3526 157.717 88.733C158.515 90.0144 159.533 91.1664 160.046 92.6132Z" fill="#7F1023"></path><path d="M55.2286 213.616C55.4792 213.273 55.3265 212.847 55.2553 212.458C55.178 211.79 55.208 211.137 55.1972 210.466C54.9557 203.03 55.2247 195.398 57.5343 188.269C58.1846 186.332 59.495 184.851 60.8145 183.277C62.0388 181.514 63.3204 179.842 64.9617 178.46C67.7187 175.999 71.2224 174.86 73.9249 172.082C74.547 171.562 75.725 171.404 76.4 170.876C77.1099 170.964 77.8213 171.086 78.5403 171.227C78.3455 171.335 78.1703 171.436 77.9816 171.531C77.444 171.714 71.2936 175.396 73.2677 175.462C75.0523 173.721 77.251 172.587 79.4285 171.427C79.9662 171.537 80.4979 171.66 81.0357 171.769C78.1649 172.913 72.922 175.909 74.8522 175.891C77.0507 174.172 79.633 172.981 82.238 171.995C82.5401 172.048 82.8482 172.088 83.1564 172.128C80.4834 173.083 75.9969 175.441 76.414 175.968C76.479 176.078 76.6436 176.184 76.7659 176.092C79.2725 174.413 81.9559 172.958 84.8934 172.251C84.9311 172.203 84.9688 172.154 84.9869 172.114C85.5155 172.024 86.0366 171.914 86.5576 171.805C85.0763 172.608 83.4059 173.068 81.8823 173.819C81.3477 174.069 80.8494 174.383 80.3375 174.692C80.2076 174.764 80.1895 174.951 80.2425 175.088C80.3014 175.212 80.4525 175.312 80.5884 175.226C81.3072 174.782 82.0275 174.372 82.8052 174.051C84.5343 173.277 86.4493 172.781 87.9531 171.597C87.9592 171.73 87.9714 171.849 87.9835 171.968C87.9763 172.826 87.6171 173.707 87.329 174.537C87.1284 175.244 86.8613 175.954 86.567 176.652C86.1034 176.705 85.6488 176.812 85.1927 176.885C84.3606 177.181 83.5647 177.542 82.7704 177.936C84.0086 177.203 85.3346 176.64 86.6529 176.056C86.9489 175.977 86.8429 175.41 86.5198 175.477C85.0247 176.128 83.4693 176.768 82.0785 177.661C81.8128 177.818 82.0063 178.262 82.2827 178.19C77.9517 180.455 74.2269 183.884 70.4793 186.961C64.0701 193.127 65.2126 202.638 65.3319 210.751C65.2053 211.329 65.3598 212.519 66.1843 212.057C66.7126 211.236 66.3255 210.056 66.3689 209.117C66.0457 205.122 66.0804 201.091 66.4958 197.083C66.7907 194.224 68.4028 191.627 69.7673 189.146C71.8552 186.761 74.5566 184.973 76.974 182.945C79.6601 180.679 82.7283 178.47 86.1777 177.6C84.9826 180.432 83.7406 183.259 84.7824 186.371C86.1193 190.834 87.8503 195.179 89.5149 199.528C91.3307 204.268 93.4837 210.118 98.4341 212.353C102.023 213.951 105.714 215.138 109.573 215.799C112.987 217.059 116.751 218.116 119.483 220.616C122.876 223.605 124.221 228.233 127.759 231.043C131.636 233.532 131.666 236.795 131.793 241.012C132.176 244.871 135.12 237.341 135.481 236.348C135.917 234.966 136.131 233.534 136.546 232.126C137.736 228.609 141.212 226.435 144.162 224.417C146.467 223.411 148.209 221.473 150.532 220.573C158.216 219.703 164.125 219.017 169.306 212.499C171.421 210.125 171.829 206.83 173.363 204.116C176.829 205.074 180.392 205.522 183.007 202.574C184.322 200.901 185.235 198.886 187.002 197.625C188.708 196.353 190.378 195.016 192.284 194.028C194.362 193.165 196.768 192.773 198.977 192.31C202.913 192.323 206.699 193.846 210.615 194.159C212.724 194.106 214.817 193.575 216.865 193.072C219.261 192.043 221.046 190.009 223.512 189.043C224.678 188.473 225.531 187.472 226.647 186.831C228.981 186.05 231.428 185.53 233.839 186.262C235.469 186.369 236.996 186.561 238.601 187.016C240.252 187.003 238.255 184.392 237.99 183.559C236.885 180.662 234.754 178.495 233.086 175.949C231.836 173.67 230.938 171.223 229.623 168.98C228.553 166.993 227.305 165.04 226.71 162.825C226.11 157.439 229.505 152.483 229.48 147.158C229.496 144.305 227.722 141.776 225.979 139.652C223.497 137.069 219.573 137.76 216.338 137.198C209.974 136.966 207.437 133.48 203.344 129.319C201.366 127.577 198.475 127.412 195.948 127.49C194.113 127.697 192.076 128.139 190.33 128.987C190.463 128.689 190.59 128.404 190.736 128.111C192.384 125.14 195.241 123.113 197.589 120.729C199.602 119.024 202.186 118.013 204.544 116.885C207.174 116.138 209.808 117.392 212.24 118.295C217.289 120.64 221.864 118.191 225.964 115.238C228.689 112.665 229.839 108.837 230.701 105.289C231.854 101.089 231.012 96.8309 231.097 92.5785C231.359 90.8914 232.145 89.3076 232.771 87.7175C233.374 86.4743 233.681 84.7586 235.135 84.2358C240.834 83.3268 245.49 85.8214 249.378 79.8657C249.378 79.8657 249.378 79.8657 249.398 79.8582C249.561 79.7845 249.62 79.6157 249.606 79.4634C250.092 79.176 249.477 78.3986 249.104 78.8339C247.047 79.2834 244.915 80.4145 242.782 80.0828C240.658 78.1949 238.021 77.3136 235.726 75.6261C234.313 74.5911 233.909 72.7538 233.096 71.2869C232.252 69.1565 230.793 67.3856 228.978 66.0093C225.603 63.711 221.132 63.9477 217.546 62.1241C214.295 60.3523 211.634 57.6568 208.49 55.754C205.939 55.0085 203.06 54.816 200.413 55.1653C193.545 56.139 187.803 61.1723 184.072 66.7754C181.646 70.067 177.716 71.5032 174.372 73.6384C171.575 74.7987 170.182 77.6726 170.009 80.5858C169.284 80.4581 168.535 80.3847 167.801 80.3505C166.407 80.2988 164.759 79.7929 163.401 80.3912C161.854 81.4899 160.812 83.1714 159.635 84.646C158.671 85.4198 157.304 84.7952 156.263 84.462C154.564 83.8519 153.225 82.6874 151.73 81.7293C150.068 81.071 148.223 80.3476 146.396 80.5743C144.573 80.7543 142.981 81.6222 141.482 82.6124C139.688 83.4227 138.239 84.7764 137.265 86.4882C136.93 82.8127 136.284 79.3239 134.615 75.8999C133.706 73.3668 133.711 70.574 132.573 68.1174C128.923 61.423 119.511 58.8916 113.022 62.894C112.444 63.2053 111.886 63.5423 111.343 63.8854C111.316 63.8733 111.288 63.8612 111.261 63.8491C110.819 64.0747 110.488 64.415 109.991 64.6164C107.489 65.5178 105.648 67.4937 103.343 68.7588C100.763 70.1622 98.3066 71.7663 95.5581 72.8181C94.1778 73.3576 92.604 73.3071 91.263 73.9779C86.6106 76.7823 86.2815 73.0933 82.5427 71.722C81.2508 70.2695 79.6871 69.1348 77.5605 69.2284C76.4776 69.1364 75.3992 69.2903 74.3177 69.0852C73.5051 68.9348 72.5911 68.4631 71.7438 68.4272C70.1579 68.5502 68.6052 68.3791 67.0162 68.2895C64.1436 68.5223 62.7928 71.1549 60.7423 72.7611C60.6018 72.7473 60.4659 72.8331 60.4206 73.0079C60.2983 73.0998 60.1624 73.1855 60.0265 73.2713C59.8514 73.3721 59.8001 73.5605 59.8213 73.7325C59.0921 74.5292 58.1484 75.2954 57.0564 75.297C56.0565 75.1282 55.0774 74.4 53.993 74.4211C52.7666 74.3953 52.0874 75.7018 51.4065 76.5363C50.9491 77.1615 50.1881 77.7003 49.8636 78.4659C49.595 78.8501 50.0377 79.5021 50.456 79.1845C50.5571 79.067 50.6507 78.9299 50.7383 78.8064C50.7534 78.8456 50.7549 78.8788 50.7761 78.9045C50.9166 79.0645 51.1387 79.1146 51.3183 78.967C52.5457 77.5633 54.3588 79.0527 55.9219 78.7246C58.1405 78.3144 60.1942 77.2134 62.4961 77.3116C62.9175 77.3529 63.5126 77.4065 63.9099 77.6483C64.274 78.0379 64.3709 78.5522 64.6279 79.0728C66.3331 83.0005 64.9301 87.3973 66.0418 91.4508C67.5678 96.8425 68.3916 102.604 71.2542 107.518C72.95 110.662 74.6051 113.933 77.447 116.222C78.1195 117.09 83.0843 121.672 85.7671 122.671C85.6946 122.687 85.6222 122.704 85.5497 122.72C85.2808 122.666 84.9138 122.795 84.6631 122.846C84.1829 122.973 83.6331 123.037 83.1407 122.899C82.8429 122.214 81.5048 122.513 80.8598 122.388C78.4658 122.168 76.052 121.662 73.6128 121.909C70.6889 122.477 68.4665 124.689 65.7951 125.824C62.6268 127.306 59.1117 130.081 59.5497 133.964C59.2366 136.717 60.9397 139.003 61.9691 141.411C62.5104 142.757 63.3128 143.991 63.7363 145.382C64.2387 147.913 64.5389 150.972 67.1176 152.315C67.5376 152.615 68.1932 152.826 68.3052 153.38C67.2229 155.043 65.278 156.192 64.0265 157.797C62.2312 159.305 60.1217 160.641 59.6967 163.133C59.0933 164.929 59.4006 166.837 59.4919 168.681C59.5353 171.658 59.9389 176.387 63.7527 176.638C66.4125 176.701 68.3162 174.363 70.0419 172.645C71.3856 171.309 72.9351 170.829 74.5633 170.757C74.145 170.928 73.7342 171.119 73.3673 171.395C71.557 173.01 69.5819 174.374 67.4588 175.558C63.1338 177.663 60.5226 182.14 57.6134 185.785C53.6639 194.037 54.2355 203.587 54.047 212.538C53.9114 213.209 54.5552 214.324 55.2134 213.577L55.2286 213.616ZM170.283 209.424C168.436 213.136 164.992 216.007 161.147 217.546C157.61 219.27 153.584 218.73 149.887 219.717C148.147 220.405 146.874 221.837 145.187 222.663C141.701 224.605 138.043 227.04 136.069 230.597C134.916 233.773 134.507 237.182 132.629 240.084C132.439 237.546 132.354 234.664 130.732 232.561C129.35 231.019 127.472 230.005 126.184 228.36C124.253 225.452 122.58 222.368 120.023 219.914C117.352 217.279 113.494 216.212 110.076 214.853C105.765 213.926 101.517 212.783 97.5891 210.628C92.3602 206.676 90.8305 199.609 88.4857 193.788C87.3803 190.306 85.3747 186.944 85.3824 183.193C85.8191 179.943 87.6864 177.101 88.4797 173.928C88.6169 173.437 88.9699 172.277 88.9001 171.483C89.0466 171.483 89.1916 171.45 89.3517 171.456C90.0253 171.48 90.6235 171.746 91.0285 172.3C91.8189 173.415 92.2831 174.678 92.643 175.992C92.7128 176.787 92.8219 177.567 92.9777 178.351C93.0125 178.529 93.1878 178.721 93.3857 178.679C93.4582 178.662 93.5095 178.62 93.5472 178.572C93.5608 178.578 93.588 178.59 93.6016 178.596C93.8131 178.56 93.9021 178.324 93.8733 178.132C93.716 177.461 93.5616 176.71 93.3741 175.96C93.2875 174.8 93.2342 173.639 93.1945 172.484C93.2681 171.33 93.3024 170.192 93.3291 169.034C93.4092 169.037 93.4953 169.026 93.5919 168.956C93.8789 168.97 94.3063 168.851 94.6566 168.65C94.7276 168.746 94.8183 168.835 94.9739 168.888C95.4693 168.946 95.3573 168.393 95.6201 168.168C96.9142 167.493 97.897 166.419 99.3574 166.029C101.668 165.595 104.003 165.253 106.336 164.878C108.588 164.612 111.505 164.756 112.984 162.75C115.318 159.629 116.318 155.442 119.191 152.756C121.261 151.435 123.723 150.808 126.082 150.119C127.044 150.336 128.011 150.506 128.967 150.59C131.355 151.263 134.055 151.896 136.498 151.456C136.353 151.781 136.563 152.005 136.838 152.046C136.838 152.046 136.865 152.058 136.879 152.064C138.707 152.276 140.328 153.501 142.143 153.887C143.416 155.493 144.329 157.394 144.885 159.365C145.597 163.11 144.251 167.012 144.293 170.834C144.699 177.937 144.927 185.66 148.566 191.975C149.829 194.373 152.175 195.726 154.284 197.282C155.563 198.323 156.538 199.829 158.174 200.363C161.685 201.112 165.276 201.313 168.638 202.728C169.884 203.039 171.23 203.492 172.6 203.89C171.72 205.611 171.119 207.619 170.283 209.424ZM84.9931 144.54C82.8329 143.757 80.5552 143.459 78.3331 142.779C76.1263 142.43 73.6961 142.291 72.3556 140.216C71.3174 138.779 70.7836 137.014 70.0096 135.386C69.535 134.329 68.7672 133.126 69.1187 131.934C69.644 131.047 70.065 130.064 70.7066 129.244C71.4057 128.662 72.2453 128.239 72.958 127.663C74.6944 126.177 76.6317 124.861 78.947 124.527C85.2423 124.728 90.9504 121.711 97.1382 121.02C101.021 120.896 105.092 120.351 108.811 121.73C109.873 122.381 110.63 123.498 111.731 124.135C112.823 124.718 113.956 125.174 115.011 125.805C118.25 127.751 119.179 132.324 123.05 133.397C123.535 133.515 124.229 133.678 124.638 133.307C124.676 133.259 124.68 133.212 124.704 133.158C124.872 133.33 125.221 133.388 125.435 133.272C124.386 135.08 122.747 136.642 120.764 137.401C119.569 137.925 118.014 137.834 116.934 138.686C116.424 139.174 114.556 141.577 116.061 141.71C116.68 141.417 116.713 140.538 117.17 140.059C117.661 139.286 118.592 139.132 119.437 138.955C124.967 137.728 127.657 133.075 127.434 127.646C127.605 126.275 127.97 124.943 128.809 123.789C129.564 122.971 130.509 122.238 131.172 121.298C132.028 120.216 132.894 119.074 134.08 118.351C135.416 117.873 136.849 117.91 138.268 117.761C139.417 117.703 140.594 117.512 141.698 117.922C144.157 119.131 145.744 121.64 147.535 123.656C149.133 125.993 148.811 128.986 147.843 131.528C147.359 133.312 146.495 134.959 145.747 136.64C145.036 138.274 144.966 140.079 144.214 141.695C142.25 144.461 141.228 148.296 138.061 149.957C135.31 151.382 132.473 150.509 129.619 149.857C130.687 148.739 131.25 147.219 132.13 145.937C133.852 143.567 135.392 141.132 136.56 138.434C138.214 135.742 139.358 132.806 139.284 129.604C139.243 129.294 139.457 128.739 139.053 128.624C138.899 128.604 138.778 128.729 138.778 128.875C138.777 130.89 138.556 132.888 137.863 134.773C136.395 137.451 135.194 140.296 133.581 142.894C131.895 144.89 130.864 147.389 129.272 149.393C129.149 149.485 129.163 149.638 129.222 149.761C128.61 149.635 127.999 149.509 127.376 149.444C127.388 149.27 127.301 149.101 127.05 149.006C126.87 149.007 126.653 149.057 126.461 149.085C126.323 149.138 126.178 149.171 126.041 149.223C123.287 148.42 120.462 147.374 118.334 145.387C117.215 144.239 116.26 143.018 115.488 141.569C115 140.946 114.623 141.72 115.026 142.241C116.905 146.035 120.505 148.449 124.47 149.678C121.473 150.521 118.235 151.355 116.728 154.227C115.144 156.983 113.787 159.922 111.867 162.48C110.87 163.255 109.425 163.392 108.203 163.612C105.246 163.742 102.296 164.477 99.3797 164.918C97.7622 165.222 96.5936 166.457 95.1907 167.23C95.0805 167.294 94.9522 167.4 94.845 167.531C94.6682 167.452 94.4598 167.554 94.4146 167.729C94.1805 167.853 93.9268 167.983 93.6686 168.015C93.5477 167.994 93.4148 167.999 93.2759 168.019C93.2774 164.136 93.0056 160.245 92.7413 156.373C92.685 151.376 89.6835 146.335 84.9191 144.523L84.9931 144.54ZM154.701 133.687C154.701 133.687 154.687 133.534 154.67 133.462C154.685 133.501 154.701 133.54 154.729 133.586C154.986 133.96 155.326 133.672 155.593 133.401C155.679 133.391 155.758 133.361 155.827 133.278C156.641 132.584 158.073 132.441 159.05 132.844C159.821 133.528 160.147 134.551 160.296 135.608C160.11 135.915 160.059 136.25 160.325 136.531C160.352 136.543 160.379 136.555 160.406 136.567C160.426 136.852 160.44 137.151 160.452 137.416C160.462 138.932 160.199 140.473 159.653 141.919C158.923 143.268 157.753 144.324 156.78 145.483C153.757 149.679 148.879 151.928 143.904 153.078C143.436 153.178 142.981 153.139 142.525 153.066C142.315 152.696 141.975 152.398 141.785 152.899C140.563 152.534 139.392 151.834 138.191 151.494C141.837 149.818 145.375 147.834 148.129 144.867C151.942 142.485 155.258 138.436 154.673 133.674L154.701 133.687ZM161.762 135.497C163.802 133.805 165.777 131.71 168.322 130.86C169.595 130.89 170.917 131.251 172.161 131.675C173.376 132.167 173.935 133.472 175 134.19C175.055 134.214 175.103 134.252 175.151 134.289C175.235 134.505 175.41 134.697 175.626 134.76C175.747 134.782 175.854 134.797 175.948 134.806C178.06 136.282 179.616 138.421 179.8 141.119C180.281 144.064 178.479 146.723 176.861 149.041C175.552 150.701 173.605 151.671 171.852 152.792C168.758 155.023 165.566 157.437 161.606 157.771C157.954 158.437 154.052 158.715 150.757 156.713C151.613 156.948 152.566 157.112 152.754 157.13C153.646 157.284 154.536 157.371 155.432 157.444C155.586 157.464 155.693 157.333 155.693 157.187C155.706 157.047 155.605 156.872 155.451 156.852C153.906 156.7 152.327 156.55 150.837 156.131C152.744 156.053 154.647 155.877 156.55 155.7C156.873 155.632 156.76 155.046 156.437 155.113C154.381 155.303 152.267 155.516 150.199 155.587C150.052 155.587 149.978 155.716 149.985 155.849C149.835 155.782 149.681 155.763 149.545 155.702C149.447 155.74 149.382 155.776 149.331 155.818C148.225 155.082 147.164 154.318 146.122 153.512C147.532 153.051 148.906 152.379 150.253 151.841C152.532 150.857 154.661 149.513 156.195 147.53C157.468 145.952 158.928 144.538 160.09 142.878C160.972 141.19 161.253 139.203 161.24 137.328C161.249 136.942 161.23 136.511 161.177 136.081C161.359 135.854 161.527 135.733 161.764 135.53L161.762 135.497ZM200.237 128.943C202.435 129.385 203.899 131.256 205.278 132.877C206.57 134.33 208.111 135.552 209.707 136.652C212.23 138.229 215.355 138.271 218.231 138.69C220.394 138.954 222.803 138.775 224.658 140.169C226.683 142.208 228.492 145.06 228.129 148.035C228.024 151.125 226.365 153.864 226.099 156.914C225.78 159.389 225.014 161.989 226.168 164.372C228.112 168.422 230.355 172.312 232.254 176.391C233.061 178.018 234.407 179.202 235.427 180.68C236.381 182.307 237.185 184.013 238.009 185.712C235.804 185.105 233.458 185.068 231.201 184.649C228.362 184.88 225.743 185.567 223.666 187.6C221.28 188.716 219.202 190.31 216.996 191.717C214.804 192.432 212.37 192.924 210.039 192.927C206.742 192.321 203.437 191.549 200.097 191.038C196.702 191.2 192.996 191.988 190.106 193.871C188.348 195.185 186.424 196.36 184.934 197.988C183.752 199.217 183.115 200.867 181.912 202.071C177.844 205.574 172.474 202.306 168.033 201.305C166.282 200.737 164.558 200.035 162.707 199.877C161.022 199.599 159.242 199.684 157.686 198.861C156.532 198.088 155.685 196.915 154.575 196.079C153.041 194.877 151.229 193.973 150.082 192.341C146.004 186.496 145.847 178.578 145.157 171.673C145.161 168.116 145.798 164.597 145.995 161.045C145.779 158.527 144.79 155.991 143.232 153.965C143.871 153.957 144.513 153.869 145.132 153.722C145.343 154.092 145.918 154.446 146.189 154.68C148.419 156.403 150.781 158.121 153.526 158.871C155.941 159.556 158.447 159.16 160.895 158.82C164.71 158.519 168.173 156.777 171.093 154.388C174.074 152.449 177.438 150.745 178.999 147.312C181.642 143.532 180.915 138.431 177.88 135.26C181.231 135.89 184.475 134.457 187.385 132.714C188.211 132.285 188.788 131.648 189.254 130.929C192.253 128.656 196.577 128.127 200.202 128.912L200.237 128.943ZM171.077 80.4922C171.327 75.3549 176.864 73.8213 180.582 71.5434C183.703 69.7637 185.427 66.6958 187.626 63.986C193.289 58.1051 199.653 54.7133 207.976 56.7274C210.255 57.7907 211.961 59.8499 214.15 61.1166C216.778 63.2284 219.861 64.243 223.139 64.8568C224.897 65.4443 226.803 65.6263 228.377 66.7007C229.424 67.4591 230.381 68.4211 231.2 69.4355C232.537 71.4445 233.092 73.9666 234.662 75.8191C236.409 77.6039 238.921 78.2182 240.885 79.661C241.403 80.0704 241.896 80.6471 242.547 80.9043C244.31 81.4451 246.197 80.4977 247.904 80.1035C247.989 80.0598 248.081 80.0358 248.173 80.0118C247.682 80.6385 247.249 81.3557 246.542 81.7724C242.882 84.5798 238.004 81.8888 234.099 83.7096C232.093 85.8392 231.331 88.9777 230.35 91.6938C229.78 96.2335 231.079 100.598 229.691 105.18C228.908 108.293 227.858 111.531 225.672 113.954C222.821 115.968 219.67 118.254 215.981 117.978C212.654 117.732 209.735 115.507 206.365 115.502C203.952 115.435 201.948 116.9 199.879 117.962C198.337 118.608 197.046 119.642 195.952 120.894C194.554 122.205 192.971 123.419 191.755 124.908C190.273 126.297 189.723 128.375 188.66 130.031C188.139 130.433 187.661 130.886 187.259 131.423C187.235 131.477 187.211 131.531 187.187 131.585C187.064 131.677 186.956 131.775 186.82 131.861C184.515 133.013 182.213 134.491 179.489 134.351C178.334 134.422 176.817 133.584 175.68 133.614C175.557 133.56 175.461 133.484 175.344 133.416C174.594 132.871 174.065 132.083 173.383 131.455C172.297 130.565 170.841 130.323 169.477 130.058C171.16 127.557 173.231 125.245 175.625 123.417C177.174 122.498 178.48 121.211 179.642 119.843C181.074 118.384 182.874 117.267 184.083 115.612C185.909 112.167 187.612 107.351 184.84 103.956C183.298 101.856 180.92 100.83 178.374 100.623C177.963 100.522 177.424 100.379 177.223 99.916C176.387 97.6589 177.39 95.148 177.933 92.9034C179.499 87.5552 176.822 82.4801 171.417 80.936C171.308 80.8876 171.188 80.8664 171.073 80.8315C171.061 80.7124 171.062 80.5993 171.077 80.4922ZM88.2142 75.741C89.6854 75.8757 90.8797 74.766 92.2117 74.335C93.3761 74.0245 94.604 73.9372 95.7426 73.5015C99.7944 71.8271 103.39 69.3484 107.065 67.0191C104.086 69.4308 101.241 72.0161 97.8649 73.8934C95.8444 74.993 94.0386 76.5618 91.8564 77.3294C89.0624 77.971 86.0593 76.8132 84.5541 74.3396C84.2201 73.8822 83.865 73.3992 83.5098 72.9161C85.0795 73.8909 86.2794 75.6599 88.2278 75.7471L88.2142 75.741ZM86.7894 122.021C82.0704 120.327 78.5828 116.158 75.2103 112.61C71.3325 107.049 69.0162 100.688 67.6211 94.0875C65.8205 89.3861 67.1326 84.315 65.7699 79.5811C65.3874 78.6471 65.1378 77.561 64.3989 76.8422C62.0876 75.521 59.2711 76.6889 56.9469 77.4095C55.4368 78.0212 53.8839 77.4113 52.3583 77.2524C52.2451 77.2507 52.1197 77.2762 51.9823 77.3288C52.5106 76.6539 52.9559 75.9096 53.7351 75.4764C54.886 75.306 55.8666 76.2137 56.9888 76.2906C58.2666 76.4206 59.3281 75.463 60.1962 74.6468C60.3865 74.439 60.5827 74.2176 60.7518 73.9841C62.0066 73.1775 62.9094 71.9543 63.9179 70.8594C64.7498 70.1246 65.8159 69.5591 66.9033 69.3117C67.7657 69.2405 68.6887 69.4725 69.5752 69.4934C70.3969 69.5503 71.1959 69.4021 72.0266 69.5118C72.794 69.6908 73.5901 70.0614 74.4284 70.1907C76.404 70.4362 78.5305 70.0501 80.3856 71.0057C80.7256 71.3032 81.0399 71.6219 81.327 71.9284C81.3602 72.0732 81.4721 72.188 81.6276 72.2409C84.4714 75.4403 85.6902 79.2165 91.2981 78.8035C92.7646 78.6924 94.0482 77.9311 95.2517 77.1667C98.3231 75.3161 101.416 73.4912 104.336 71.3946C110.049 66.6086 116.425 60.4436 124.56 62.9913C127.617 63.5881 129.983 65.9574 131.723 68.454C132.725 70.4113 132.828 72.6674 133.444 74.7613C134.304 77.8418 136.024 80.6385 136.261 83.9126C136.425 85.1555 136.39 86.4402 136.679 87.6575C136.112 88.9325 135.89 90.3452 135.767 91.7203C135.55 93.6714 135.388 95.6466 135.63 97.5907C135.153 98.2234 135.83 101.059 135.72 101.709C135.849 103.798 136.025 106.038 134.94 107.927C134.294 108.94 133.715 110.129 133.05 111.149C132.392 111.896 131.452 112.323 130.773 113.044C130.709 113.113 130.673 113.195 130.664 113.288C129.305 114.438 128.456 116.238 128.407 118.068C128.404 119.026 128.235 119.991 128.293 120.959C128.311 121.065 128.343 121.176 128.414 121.273C128.414 121.712 128.351 122.22 128.796 122.353C129.313 122.29 129.301 121.732 129.198 121.232C129.228 121.164 129.258 121.096 129.255 121.03C128.934 107.513 139.437 117.988 141.659 108.09C141.993 106.646 141.133 105.321 140.277 104.241C139.236 102.738 137.864 101.429 137.101 99.7401C136.438 97.6416 136.395 95.3962 136.601 93.2129C136.659 90.2648 137.376 87.3011 139.569 85.1899C141.825 83.5614 144.439 81.7509 147.336 81.6101C151.421 81.6896 154.03 85.418 157.954 86.0432C159.826 86.4861 160.754 85.0955 161.623 83.7274C162.185 83.0511 162.86 82.3764 163.441 81.6926C163.962 81.1444 164.8 81.1275 165.509 81.1828C167.412 81.4448 169.425 81.3495 171.271 81.9598C175.34 83.1371 178.218 86.6275 177.425 90.9709C177.072 94.0317 175.302 97.2412 176.508 100.313C177.372 102.144 179.755 101.547 181.344 102.221C183.432 103.167 185.314 105.012 185.59 107.394C185.87 109.875 184.832 112.354 183.869 114.59C182.964 116.186 181.325 117.196 180.013 118.497C178.446 120.042 177.125 121.729 175.159 122.853C172.692 124.81 170.491 127.194 168.802 129.855C168.709 129.879 168.652 129.934 168.608 129.996C167.678 130.037 166.843 130.413 166.062 130.959C166.286 130.604 166.503 130.262 166.713 129.9C168.002 128.101 169.495 126.393 170.494 124.368C170.555 124.232 170.547 124.066 170.435 123.952C170.379 123.894 170.286 123.885 170.219 123.888C169.629 124.519 169.339 125.463 168.799 126.165C167.944 127.426 166.884 128.563 166.078 129.861C165.467 130.906 164.827 131.905 163.843 132.653C163.837 132.666 163.824 132.693 163.818 132.707C163.599 132.869 163.4 133.024 163.174 133.167C162.45 133.658 161.854 134.303 161.187 134.851C161.161 134.872 161.135 134.893 161.096 134.908C160.639 132.933 159.519 131.167 157.168 131.73C156.502 131.872 155.587 131.952 155.224 132.62C155.206 132.66 155.188 132.701 155.184 132.748C155.004 132.895 154.799 133.064 154.755 133.272C154.653 132.366 154.529 131.254 154.231 130.276C154.505 130.284 154.577 129.975 154.627 129.754C156.615 126.348 159.497 123.422 161.108 119.801C161.934 117.032 163.574 114.479 163.86 111.568C164.415 107.541 164.115 103.492 163.261 99.5198C162.702 95.9074 162.167 92.2408 160.491 88.9435C160.409 88.7609 160.184 88.6445 160.003 88.7588C159.511 89.206 160.22 89.8464 160.336 90.3532C161.524 92.8808 161.936 95.6153 162.377 98.3951C163.274 102.857 163.827 107.361 163.11 111.9C162.578 114.67 161.154 117.172 160.266 119.864C158.589 123.083 156.142 125.91 154.178 128.969C154.111 129.118 154.015 129.335 153.938 129.545C153.519 128.692 152.851 128.07 151.771 128.044C151.01 128.144 149.299 129.317 150.585 129.905C151.118 129.915 151.409 129.297 151.903 129.175C153.527 129.15 153.658 131.857 153.9 133.07C154.632 136.987 152.396 141.062 149.114 143.128C146.312 145.326 143.842 147.948 140.5 149.418C140.5 149.418 140.474 149.439 140.455 149.447C142.099 147.838 142.844 145.651 144.123 143.766C145.658 141.817 145.773 139.399 146.621 137.127C147.983 133.996 149.756 130.706 149.589 127.203C149.539 124.971 148.516 122.988 146.914 121.463C145.598 120.064 144.479 118.445 142.808 117.441C140.436 116.109 137.52 116.989 134.937 117.156C133.023 117.393 131.826 119.168 130.684 120.528C129.678 121.982 127.961 122.875 127.362 124.624C126.138 127.118 126.843 129.999 125.943 132.572C125.924 132.612 125.906 132.653 125.888 132.694C125.855 132.549 125.743 132.434 125.598 132.467C125.363 132.557 124.947 132.503 124.846 132.766C124.801 132.649 124.743 132.558 124.647 132.483C124.364 132.276 124.012 132.444 123.69 132.398C120.747 131.803 119.536 128.778 117.73 126.723C115.626 124.129 112.039 123.735 109.859 121.205C108.278 119.998 106.128 120.146 104.241 119.81C101.063 119.777 97.8174 119.86 94.6806 120.43C92.2641 120.882 89.9127 121.591 87.5462 122.26C87.5129 121.969 87.105 121.787 86.9042 122.056L86.7894 122.021ZM139.445 108.161C139.321 108.073 139.17 108.12 139.11 108.255C138.272 109.589 137.304 110.995 136.001 111.91C135.438 111.968 134.867 112.006 134.335 112.029C133.961 111.993 133.582 112.003 133.231 112.058C133.576 111.724 133.879 111.371 134.071 110.904C134.911 109.198 136.238 107.644 136.401 105.669C136.627 103.917 136.46 102.169 136.313 100.413C137.421 102.791 139.775 104.456 140.713 106.922C140.835 108.113 140.157 109.453 139.503 110.446C138.903 111.137 138.054 111.507 137.145 111.72C137.922 110.961 138.558 110.009 139.211 109.162C139.344 108.864 139.805 108.451 139.451 108.147L139.445 108.161ZM70.5563 170.794C68.0783 172.372 65.908 176.59 62.4502 175.1C60.4408 173.54 60.5756 170.528 60.4418 168.194C60.3052 166.524 60.1263 164.803 60.7042 163.175C61.5126 160.334 64.7172 159.209 66.3612 156.869C68.9431 154.655 70.9589 153.163 66.9163 150.974C64.4385 148.929 65.378 145.171 63.6371 142.641C62.7013 140.388 61.468 138.328 60.6697 136.023C60.5468 134.505 60.3195 132.747 60.973 131.315C62.4643 128.989 64.8502 127.434 67.3721 126.379C69.4001 125.153 71.36 123.604 73.7114 123.042C76.2427 122.771 78.7395 123.199 81.2559 123.474C80.5717 123.511 79.88 123.528 79.1867 123.512C76.5316 123.696 74.2424 125.179 72.2402 126.823C71.0579 127.613 69.5992 128.329 69.0439 129.723C68.6409 130.519 67.9872 131.219 67.9029 132.14C67.7991 133.216 68.1801 134.263 68.5974 135.228C70.1423 138.711 71.5956 143.534 76.1344 143.766C83.0222 144.833 89.3071 145.534 91.5786 153.24C92.182 155.214 91.9517 157.306 92.1519 159.345C92.5381 162.247 92.6042 165.136 92.5585 168.057C92.5047 169.788 92.445 171.533 92.4713 173.267C91.9831 172.205 91.2819 171.291 90.238 170.746C87.5734 169.998 84.9491 171.869 82.2875 171.042C78.4418 170.241 74.2287 168.544 70.5427 170.788L70.5563 170.794Z" fill="#7F1023"></path><path d="M168.537 90.9967C168.919 91.6382 169.753 91.8142 170.45 91.7835C172.713 91.4579 172.2 88.1095 170.517 87.2793C168.418 86.3942 167.553 89.5839 168.523 90.9907L168.537 90.9967Z" fill="#7F1023"></path><path d="M175.788 108.556C176.432 109.087 177.394 108.865 177.656 108.055C177.831 107.662 177.795 107.158 177.526 106.811C177.464 106.328 177.368 105.847 176.986 105.498C175.027 104.155 174.315 107.657 175.768 108.564L175.788 108.556Z" fill="#7F1023"></path><path d="M171.756 98.3283C170.411 98.055 170.003 99.8881 170.4 100.861C170.723 102.077 172.633 102.505 172.708 100.946C173.814 100.219 172.727 98.598 171.756 98.3283Z" fill="#7F1023"></path><path d="M167.914 111.13C169.254 110.865 168.771 108.472 167.445 108.743C166.105 109.008 166.588 111.401 167.914 111.13Z" fill="#7F1023"></path><path d="M151.834 101C154.157 100.978 153.61 97.0459 151.672 96.7522C149.422 96.7581 149.597 101.012 151.834 101Z" fill="#7F1023"></path><path d="M154.373 90.6078C154.24 89.8823 153.363 89.3291 152.777 89.9134C151.593 90.2315 151.47 92.0454 152.245 92.8292C153.645 94.0375 154.859 91.8963 154.373 90.6078Z" fill="#7F1023"></path><path d="M146.313 89.2152C148.062 88.8723 147.12 86.3406 145.558 86.5556C143.856 85.5866 142.724 87.7641 143.618 89.121C144.14 90.1818 145.939 90.495 146.319 89.2016L146.313 89.2152Z" fill="#7F1023"></path><path d="M141.672 95.4365C141.829 95.9615 142.394 96.3754 142.944 96.1651C144.096 95.5891 143.328 93.9473 142.884 93.1158C141.746 91.8294 140.397 93.7638 141.481 94.7666C141.545 94.9899 141.609 95.2132 141.672 95.4365Z" fill="#7F1023"></path><path d="M166.776 94.146C166.844 93.7375 166.711 93.3045 166.392 93.0326C164.798 91.9658 164.591 94.5547 165.265 95.4559C166.149 96.7269 167.592 95.2405 166.776 94.146Z" fill="#7F1023"></path><path d="M175.426 90.374C176.91 90.076 176.376 87.4332 174.898 87.7177C173.413 88.0158 173.947 90.6585 175.426 90.374Z" fill="#7F1023"></path><path d="M166.713 86.1229C167.947 85.8758 167.507 83.6811 166.273 83.9282C165.039 84.1753 165.48 86.3701 166.713 86.1229Z" fill="#7F1023"></path><path d="M153.42 110.171C154.956 110.416 154.785 107.837 153.723 107.332C151.673 106.338 151.227 110.853 153.42 110.171Z" fill="#7F1023"></path><path d="M145.164 110.203C145.553 111.709 147.418 111.141 146.972 109.691C146.883 109.343 146.628 109.002 146.664 108.628C146.733 107.814 146.057 107.318 145.355 107.103C143.473 106.72 143.453 110.059 145.178 110.209L145.164 110.203Z" fill="#7F1023"></path><path d="M144.283 115.92C145.748 115.63 145.227 112.993 143.762 113.284C142.297 113.574 142.818 116.211 144.283 115.92Z" fill="#7F1023"></path><path d="M150.117 119.719C151.371 119.465 150.929 117.237 149.668 117.472C148.414 117.726 148.856 119.954 150.117 119.719Z" fill="#7F1023"></path><path d="M174.809 116.425C173.109 116.66 173.859 119.366 175.499 118.828C176.609 118.932 176.995 117.479 176.225 116.795C175.862 116.439 175.282 116.424 174.809 116.425Z" fill="#7F1023"></path><path d="M166.849 103.132C167.081 102.976 166.929 102.697 166.847 102.514C166.767 102.218 166.762 101.973 166.747 101.641C166.763 99.958 168.198 100.613 167.821 101.973C167.247 101.945 167.636 102.865 168.067 102.553C168.774 101.844 168.314 99.9495 167.141 100.061C166.099 100.28 166.176 101.679 166.32 102.491C166.391 102.734 166.489 103.281 166.849 103.132Z" fill="#7F1023"></path><path d="M172.046 105.803C171.752 106.208 172.401 106.578 172.529 106.034C172.624 105.199 172.353 104.233 171.785 103.607C171.03 102.816 170.283 103.653 170.275 104.511C170.191 104.847 170.7 105.058 170.775 104.669C170.811 104.441 170.817 104.281 170.92 104.05C171.533 103.332 172.13 105.32 172.032 105.797L172.046 105.803Z" fill="#7F1023"></path><path d="M180.452 109.022C180.928 109.234 181.591 109.318 181.971 108.902C182.24 108.664 182.477 107.584 181.836 107.851C181.675 107.665 181.507 107.493 181.345 107.308C181.212 107.167 181.06 107.034 180.915 106.921C179.327 105.987 179.16 108.594 180.465 109.028L180.452 109.022ZM180.267 107.315C180.918 107.28 181.187 108.066 181.667 108.377C181.45 108.719 180.938 108.589 180.592 108.451C180.211 108.282 179.827 107.607 180.267 107.315Z" fill="#7F1023"></path><path d="M179.353 113.573C179.925 112.982 180.548 112.204 180.315 111.336C180.252 110.967 179.717 111.07 179.814 111.438C179.855 111.602 179.853 111.715 179.816 111.91C179.712 112.4 179.316 112.776 178.973 113.144C178.757 113.373 179.085 113.844 179.347 113.586L179.353 113.573Z" fill="#7F1023"></path><path d="M170.652 112.559C171.199 112.428 172.106 111.158 171.203 110.919C170.53 110.928 170.194 111.721 170.208 112.312C170.185 112.546 170.489 112.779 170.652 112.559Z" fill="#7F1023"></path><path d="M154.19 102.406C153.261 102.481 153.049 103.8 153.681 104.357C153.968 104.664 155.175 105.282 155.333 104.67C155.347 104.53 155.245 104.355 155.091 104.335C154.631 104.309 153.93 104.127 153.831 103.579C153.75 103.104 154.334 102.779 154.684 103.163C154.851 103.302 155.046 103.632 155.262 103.403C155.58 102.944 154.58 102.336 154.177 102.4L154.19 102.406Z" fill="#7F1023"></path><path d="M155.139 96.0679C155.104 96.3288 155.074 96.8354 155.415 96.8736C155.813 96.8229 155.545 96.3626 155.667 96.1245C156.335 95.7228 157.445 96.5582 157.637 97.2612C157.701 97.6307 158.222 97.5214 158.139 97.1593C157.901 96.1924 156.943 95.4898 155.962 95.4267C155.572 95.3507 155.187 95.6669 155.152 96.074L155.139 96.0679Z" fill="#7F1023"></path><path d="M162.251 88.3948C162.668 88.1903 162.275 87.6092 162.285 87.2564C162.222 86.8868 161.701 86.9962 161.79 87.3446C161.925 87.6645 161.791 88.3686 162.251 88.3948Z" fill="#7F1023"></path><path d="M146.761 86.456C147.159 86.2921 147.389 85.0454 146.754 85.1531C146.798 84.7987 146.855 84.4505 146.912 84.1022C146.94 83.968 146.858 83.7855 146.716 83.7385C146.19 83.7483 146.369 84.7378 146.253 85.1086C146.233 85.555 146.004 86.6555 146.761 86.456Z" fill="#7F1023"></path><path d="M147.5 95.6256C146.994 95.4816 146.288 96.3372 146.856 96.6712C147.279 96.7457 147.089 95.9628 147.703 96.2682C148.147 96.6609 148.005 97.3454 148.125 97.9186C148.135 98.2971 148.675 98.2933 148.637 97.9027C148.513 97.0837 148.598 95.7568 147.52 95.618L147.5 95.6256Z" fill="#7F1023"></path><path d="M144.322 102.256C144.11 102.584 143.381 102.796 143.609 103.271C143.845 103.766 145.27 102.32 144.725 102.045C144.539 101.914 144.381 102.087 144.322 102.256Z" fill="#7F1023"></path><path d="M136.25 108.349C136.027 109.436 135.269 110.334 134.603 111.207C134.458 111.387 134.628 111.738 134.859 111.695C135.698 110.833 136.445 109.703 136.73 108.514C136.763 108.366 136.676 108.197 136.534 108.15C136.398 108.09 136.263 108.209 136.23 108.357L136.25 108.349Z" fill="#7F1023"></path><path d="M165.459 113.14C164.416 114.934 163.707 116.894 162.935 118.809C162.068 120.503 161.215 122.236 160.273 123.913C160.276 123.833 160.253 123.775 160.213 123.756C160.108 123.661 159.929 123.663 159.855 123.792C158.656 126.119 157.289 128.386 155.305 130.136C155.074 131.203 155.876 130.536 156.912 129.307C157.285 129.311 157.739 128.619 158.023 128.421C159.945 126.042 161.184 123.149 162.734 120.507C163.879 118.189 164.603 115.684 165.912 113.439C165.972 113.303 165.924 113.119 165.8 113.032C165.676 112.944 165.525 112.991 165.465 113.126L165.459 113.14Z" fill="#7F1023"></path><path d="M160.475 126.75C161.291 125.098 162.408 123.613 163.333 122.01C163.407 121.88 163.394 121.728 163.282 121.613C163.484 121.963 163.815 122.208 164.277 122.121C165.511 121.874 165.071 119.679 163.837 119.926C163.071 120.073 162.954 120.996 163.274 121.593C162.811 121.354 162.684 122.224 162.417 122.495C160.329 125.027 159.735 128.631 157.12 130.701C156.848 130.872 157.072 131.394 157.371 131.235C158.955 130.201 159.732 128.418 160.482 126.769L160.475 126.75Z" fill="#7F1023"></path><path d="M162.584 126.112C162.791 125.538 163.964 124.695 163.612 124.132C163.556 124.075 163.476 124.072 163.409 124.074C162.959 124.427 162.688 125.037 162.336 125.498C160.991 127.093 160.451 129.989 158.36 130.7C158.036 130.767 158.156 131.34 158.473 131.286C158.99 131.224 159.437 130.951 159.772 130.564C160.943 129.249 161.565 127.56 162.591 126.132L162.584 126.112Z" fill="#7F1023"></path><path d="M163.893 127.491C164.027 127.08 164.722 126.544 164.317 126.136C164.09 125.986 163.948 126.232 163.87 126.408C162.726 128.32 161.449 130.238 160.091 132.007C159.768 132.074 159.888 132.648 160.205 132.594C160.35 132.561 160.433 132.484 160.542 132.386C161.687 130.8 162.803 129.135 163.879 127.485L163.893 127.491Z" fill="#7F1023"></path><path d="M166.606 125.271C166.158 125.656 165.95 126.343 165.599 126.838C164.461 129.029 162.725 130.807 161.119 132.66C161.018 132.777 161.033 132.963 161.131 133.071C161.229 133.18 161.389 133.186 161.498 133.089C161.898 132.665 162.269 132.197 162.662 131.754C164.371 129.963 165.695 127.904 166.901 125.743C166.975 125.613 166.96 125.428 166.842 125.327C166.786 125.269 166.692 125.26 166.626 125.263L166.606 125.271Z" fill="#7F1023"></path><path d="M137.025 145.109C136.075 146.879 135.219 148.985 133.374 149.983C133.05 150.051 133.17 150.624 133.487 150.57C135.268 149.754 136.229 147.777 137.118 146.109C137.236 145.771 137.728 145.324 137.367 145.001C137.243 144.913 137.086 144.973 137.025 145.109Z" fill="#7F1023"></path><path d="M135.24 144.949C135.136 144.854 134.97 144.861 134.882 144.985C133.862 146.692 132.621 148.236 131.075 149.514C130.402 151.831 136.012 145.374 135.24 144.949Z" fill="#7F1023"></path><path d="M129.003 146.853C128.873 146.925 128.849 147.125 128.908 147.249C129.816 148.027 130.726 144.776 131.231 144.188C132.665 141.918 133.849 139.405 134.594 136.78C134.654 136.644 134.572 136.461 134.442 136.387C134.307 136.327 134.157 136.406 134.116 136.535C133.631 137.992 133.204 139.427 132.527 140.8C131.545 142.605 130.422 144.397 129.563 146.29C129.435 146.541 129.27 146.728 129.003 146.853Z" fill="#7F1023"></path><path d="M130.446 140.133C130.31 140.073 130.166 140.139 130.12 140.281C129.38 142.6 128.602 144.935 127.222 146.937C127.196 149.558 131.251 140.264 130.452 140.12L130.446 140.133Z" fill="#7F1023"></path><path d="M152.772 152.295C152.455 152.495 151.627 152.452 151.751 152.978C151.791 153.11 151.936 153.223 152.073 153.17C154.692 152.337 156.858 150.506 158.992 148.823C160.414 147.457 161.303 145.643 162.683 144.226C163.159 143.706 163.601 143.188 164.063 142.663C164.164 142.545 164.149 142.36 164.051 142.251C163.953 142.142 163.779 142.13 163.684 142.234C161.864 144.089 160.453 146.272 158.771 148.221C156.943 149.731 154.945 151.328 152.739 152.297L152.772 152.295Z" fill="#7F1023"></path><path d="M156.014 152.845C155.517 153.046 155.02 153.248 154.528 153.402C153.167 153.788 151.806 154.174 150.432 154.553C150.281 154.6 150.215 154.749 150.248 154.894C150.274 155.019 150.401 155.173 150.546 155.14C151.532 154.864 152.518 154.588 153.504 154.312C154.406 154.079 155.312 153.8 156.167 153.417C156.31 153.35 156.355 153.176 156.316 153.044C156.271 152.927 156.159 152.812 156.027 152.851L156.014 152.845Z" fill="#7F1023"></path><path d="M126.661 147.94C126.222 146.948 126.168 145.9 126.219 144.834C126.219 144.688 126.131 144.519 125.977 144.499C125.823 144.479 125.716 144.61 125.716 144.756C125.65 145.93 125.738 147.123 126.214 148.212C126.383 148.564 126.829 148.258 126.655 147.953L126.661 147.94Z" fill="#7F1023"></path><path d="M134.582 157.038C134.163 157.063 134.352 157.553 134.3 157.855C133.489 162.093 134.314 166.425 134.364 170.704C134.292 173.061 133.412 175.367 132.309 177.444C130.894 180.99 128.785 184.228 127.661 187.888C126.529 195.005 127.648 202.556 129.991 209.335C132.74 215.271 134.981 221.728 133.68 228.348C133.638 228.735 132.528 234.303 133.632 232.811C133.69 231.619 133.829 230.429 134.047 229.243C134.68 225.624 134.807 221.862 133.838 218.294C132.912 214.519 131.169 211.078 129.863 207.425C128.19 202.18 127.669 196.618 127.744 191.142C127.75 187.944 129.173 185.002 130.726 182.281C131.899 179.244 133.695 176.452 134.502 173.285C135.355 169.098 134.284 164.77 134.429 160.529C134.447 159.464 134.878 158.421 134.816 157.353C134.816 157.207 134.742 157.044 134.574 157.018L134.582 157.038Z" fill="#7F1023"></path><path d="M133.212 159.533C133.359 159.533 133.459 159.382 133.445 159.23C133.339 158.37 133.381 157.544 133.367 156.66C133.38 155.789 133.336 154.826 133.422 153.938C133.435 153.798 133.381 153.628 133.225 153.575C133.083 153.528 132.935 153.641 132.922 153.781C132.807 154.916 132.88 156.07 132.86 157.214C132.863 157.866 132.85 158.591 132.933 159.246C132.953 159.384 133.046 159.54 133.212 159.533Z" fill="#7F1023"></path><path d="M135.932 154.08C135.786 154.08 135.699 154.236 135.7 154.383C135.742 155.604 135.898 156.827 135.795 158.049C135.879 158.59 135.374 159.763 135.906 160.032C136.06 160.052 136.167 159.921 136.18 159.78C136.397 157.976 136.321 156.171 136.212 154.367C136.212 154.221 136.085 154.067 135.932 154.08Z" fill="#7F1023"></path><path d="M140.378 161.405C140.411 161.55 140.536 161.671 140.695 161.644C140.853 161.617 140.912 161.448 140.879 161.303C140.575 159.462 140.198 157.636 139.643 155.846C139.604 155.714 139.459 155.601 139.308 155.648C139.151 155.708 139.138 155.881 139.172 156.026C139.367 156.795 139.601 157.55 139.796 158.319C140.002 159.321 140.191 160.396 140.378 161.405Z" fill="#7F1023"></path><path d="M142.736 160.276C142.775 160.407 142.92 160.52 143.058 160.468C143.215 160.408 143.246 160.227 143.207 160.096C142.64 157.893 141.458 155.937 140.388 153.95C138.939 152.996 141.473 156.854 141.644 157.385C142.113 158.309 142.458 159.291 142.736 160.276Z" fill="#7F1023"></path><path d="M73.2492 153.987C73.021 153.658 72.6526 154.046 72.8581 154.316C73.4036 155.03 74.4306 154.772 75.1933 154.706C79.1928 154.649 81.9999 156.76 85.5121 158.274C86.6723 158.888 86.9235 160.3 87.2502 161.469C87.3409 161.704 87.3185 162.231 87.69 162.201C87.835 162.168 87.9135 161.992 87.8742 161.86C87.1506 157.703 85.6282 157.757 82.2579 156.143C79.9752 154.721 77.1354 153.929 74.444 154.193C74.0724 154.223 73.5544 154.252 73.2552 153.973L73.2492 153.987Z" fill="#7F1023"></path><path d="M74.8574 155.306C74.5191 155.334 74.5783 155.896 74.9045 155.895C75.6008 155.831 76.3107 155.92 77.0025 156.049C79.2787 156.315 81.1536 157.701 82.9787 159.017C83.1026 159.105 83.2596 159.045 83.32 158.909C83.3803 158.774 83.3319 158.59 83.2081 158.502C80.8179 156.626 78.0035 155.081 74.8635 155.292L74.8574 155.306Z" fill="#7F1023"></path><path d="M89.6639 164.201C89.5535 163.827 89.0506 164.042 89.1927 164.382C89.5889 165.614 89.9715 166.841 90.197 168.127C91.424 169.47 89.7819 164.595 89.6639 164.201Z" fill="#7F1023"></path><path d="M86.6946 162.019C86.9895 162.784 87.2526 163.583 87.4296 164.393C87.4629 164.538 87.5823 164.672 87.7272 164.639C87.8722 164.607 87.9507 164.43 87.925 164.305C87.7464 163.462 87.4894 162.649 87.1734 161.858C87.063 161.484 86.5601 161.699 86.7022 162.038L86.6946 162.019Z" fill="#7F1023"></path><path d="M81.2474 160.861C81.5632 161.213 81.805 161.548 82.083 161.948C82.1616 162.064 82.3172 162.117 82.4395 162.026C82.5618 161.934 82.5663 161.741 82.4741 161.619C81.729 160.328 80.4765 159.446 79.126 158.894C76.9945 157.864 74.7496 156.686 72.306 157.126C71.3108 157.495 66.8463 158.011 67.0824 159.237C67.161 159.354 67.3302 159.413 67.4389 159.315C68.2527 158.621 69.3447 158.473 70.352 158.222C71.7202 157.856 73.1036 157.383 74.5386 157.746C75.4539 157.812 76.2998 158.107 77.1065 158.564C78.5054 159.3 80.084 159.742 81.2534 160.848L81.2474 160.861Z" fill="#7F1023"></path><path d="M68.329 159.695C67.9907 159.723 68.0438 160.299 68.3761 160.285C69.8245 160.214 71.1747 159.889 72.6473 159.911C74.0288 158.673 68.82 159.8 68.329 159.695Z" fill="#7F1023"></path><path d="M67.4238 142.734C69.7219 144.927 72.4519 146.662 75.2753 148.113C75.4113 148.174 75.5608 148.094 75.6015 147.966C75.6466 147.352 74.5651 147.293 74.1753 146.925C71.1115 145.025 67.7472 143.105 65.8565 139.924C65.8051 139.82 65.6948 139.738 65.5694 139.764C65.3912 139.798 65.3354 140.033 65.4155 140.183C65.9128 141.151 66.6562 141.97 67.4374 142.74L67.4238 142.734Z" fill="#7F1023"></path><path d="M70.8506 149.084C71.1057 148.547 70.1525 148.091 69.9121 147.642C68.1594 145.725 65.9687 144.132 65.2744 141.484C65.2351 141.352 65.0901 141.239 64.9527 141.292C64.8016 141.338 64.7639 141.533 64.8033 141.664C65.2735 143.059 65.9613 144.405 66.9887 145.464C68.2201 146.613 69.3866 147.799 70.4896 149.053C70.5879 149.162 70.7359 149.195 70.8567 149.07L70.8506 149.084Z" fill="#7F1023"></path><path d="M112.134 78.944C112.072 78.9002 112.004 78.87 111.931 78.8865C111.7 78.9299 111.676 79.2767 111.848 79.4021C112.367 79.8115 112.877 80.2012 113.397 80.6438C114.92 81.9066 115.887 83.6858 117.161 85.179C118.723 87.1581 120.393 89.1524 121.445 91.4732C122.354 93.8601 122.793 96.4604 122.91 99.0151C122.753 106.615 121.454 114.292 123.654 121.755C123.951 122.992 124.418 124.175 124.931 125.329C124.983 125.467 125.147 125.539 125.277 125.467C125.412 125.381 125.424 125.208 125.372 125.071C124.977 124.164 124.604 123.283 124.327 122.331C122.99 117.429 122.495 112.318 123.036 107.261C123.446 100.813 124.237 93.5445 120.032 88.0979C117.549 84.9292 115.453 81.3312 112.153 78.9365L112.134 78.944Z" fill="#7F1023"></path><path d="M114.617 85.2971C116.598 87.3974 117.667 90.2294 118.636 92.9195C118.676 93.0507 118.821 93.164 118.958 93.1114C119.109 93.0649 119.147 92.8704 119.107 92.7391C118.776 91.763 118.465 90.7794 117.996 89.8558C116.442 85.5891 112.843 82.7687 109.539 79.8357C109.241 79.5895 108.985 80.0928 109.24 80.2877C111.11 81.8676 112.854 83.5861 114.61 85.2775L114.617 85.2971Z" fill="#7F1023"></path><path d="M118.235 81.0088C120.004 83.7301 121.025 86.9631 122.399 89.9146C122.523 90.2948 122.999 90.0678 122.87 89.7343C121.466 86.7044 120.457 83.4442 118.618 80.6594C116.423 78.2361 114.2 75.5081 111.055 74.3034C110.715 74.1521 110.588 74.7295 110.88 74.843C113.943 76.0114 116.062 78.6443 118.235 81.0088Z" fill="#7F1023"></path><path d="M99.1266 77.3483C100.318 77.1961 101.53 77.0364 102.736 77.0697C103.451 77.1114 104.212 77.304 104.931 77.4452C105.079 77.4786 105.198 77.3204 105.206 77.1938C105.212 77.0339 105.126 76.8981 104.964 76.8587C103.014 76.2995 100.984 76.4686 99.0131 76.7615C98.6899 76.8289 98.8095 77.4021 99.1266 77.3483Z" fill="#7F1023"></path><path d="M78.6402 79.247C79.9578 80.6784 81.5547 81.9579 83.4384 82.52C86.0153 83.098 88.627 83.7078 91.2793 83.897C93.4498 84.1805 95.4099 83.2165 97.4352 82.6553C98.5558 82.4066 99.6298 82.8846 100.716 83.0429C102.059 83.283 103.518 83.1523 104.747 83.8296C105.64 84.4219 106.418 85.272 107.224 85.9879C107.328 86.0831 107.494 86.0758 107.582 85.9522C107.669 85.8287 107.634 85.6507 107.523 85.5359C106.365 84.5496 105.357 83.191 103.791 82.8677C101.836 82.6478 99.8984 82.2079 97.9515 82.0076C96.2191 82.1304 94.7287 83.1734 92.9903 83.3097C89.6932 83.4349 85.8067 82.6152 82.6391 81.6442C80.3429 80.6548 78.8242 78.6139 77.1259 76.8669C77.0277 76.7581 76.8539 76.7458 76.7588 76.8498C76.6577 76.9672 76.6668 77.1663 76.765 77.275C77.4012 77.9319 78.0116 78.6098 78.6357 79.2938L78.6402 79.247Z" fill="#7F1023"></path><path d="M74.2285 77.7071C75.9827 79.3653 77.4485 81.4151 79.0578 83.2526C79.15 83.3749 79.3297 83.3736 79.4248 83.2697C79.526 83.1522 79.5108 82.9667 79.4186 82.8444C78.8655 82.1108 78.2883 81.4314 77.6582 80.761C75.9114 78.5373 74.0815 76.3904 71.3564 75.3401C71.0165 75.1888 70.8959 75.7527 71.1814 75.8797C72.257 76.3909 73.3084 76.9563 74.2481 77.6996L74.2285 77.7071Z" fill="#7F1023"></path><path d="M72.9728 80.4149C74.0426 81.3785 74.9809 82.3811 75.7879 83.569C75.8665 83.6852 76.0221 83.7382 76.1444 83.6464C76.2531 83.5485 76.2771 83.348 76.1789 83.2392C74.5801 80.9027 72.3576 79.0523 70.0657 77.4311C69.7439 77.2391 69.5553 77.7727 69.8363 77.9465C70.9301 78.7096 71.9726 79.5148 72.9668 80.4285L72.9728 80.4149Z" fill="#7F1023"></path><path d="M70.4984 81.2152C71.5894 82.497 72.5973 83.8556 73.797 85.0395C73.9013 85.1346 74.0674 85.1273 74.1414 84.9978C74.2289 84.8742 74.2001 84.6827 74.0823 84.5815C72.3855 82.8676 71.0133 80.8269 69.2968 79.1205C68.9992 78.8743 68.7426 79.3776 68.998 79.5725C69.5147 80.095 70.0194 80.6446 70.4848 81.2092L70.4984 81.2152Z" fill="#7F1023"></path><path d="M108.396 92.9448C108.098 92.6986 107.841 93.2019 108.097 93.3968C109.086 94.211 110.031 95.0538 110.925 95.9718C113.807 99.4155 116.388 104.009 116.446 108.601C116.425 108.868 116.226 109.316 116.565 109.467C116.707 109.514 116.842 109.395 116.869 109.261C117.31 106.256 115.963 103.317 114.624 100.689C113.244 97.6052 111.055 95.022 108.389 92.9584L108.396 92.9448Z" fill="#7F1023"></path><path d="M102.228 90.9965C101.892 90.7985 101.717 91.3381 101.998 91.5119C103.177 92.2313 104.406 92.9086 105.491 93.7651C107.301 95.1881 108.598 97.1789 110.358 98.6773C110.476 98.7785 110.634 98.7516 110.716 98.6416C110.853 98.0039 109.858 97.6421 109.522 97.1516C107.465 94.7088 105.133 92.4843 102.235 91.0161L102.228 90.9965Z" fill="#7F1023"></path><path d="M183.798 94.9125C183.638 95.1988 184.08 95.5583 184.245 95.2252C186.043 92.4666 189.031 90.6928 190.923 87.9433C192.02 86.758 193.465 85.8899 194.347 84.4947C195.942 81.9711 196.003 78.7968 196.456 75.9112C196.883 73.4522 198.509 71.007 200.659 69.689C203.744 68.7221 207.108 68.4477 210.324 68.5788C211.856 67.1483 203.051 68.4135 202.322 68.6251C199.239 68.927 197.243 71.8739 196.214 74.5521C195.474 77.5701 195.617 80.8351 194.229 83.6622C192.909 85.8213 190.516 87.0636 189.142 89.1985C187.537 91.2306 185.062 92.5829 183.784 94.9064L183.798 94.9125Z" fill="#7F1023"></path><path d="M180.801 95.6096C182.781 93.0623 184.8 90.4668 187.008 88.1023C187.56 87.4863 188.089 86.8447 188.606 86.1969C188.693 86.0734 188.705 85.9 188.6 85.7717C188.501 85.663 188.328 85.6507 188.233 85.7546C185.956 88.5277 183.492 91.1361 181.333 94.0104C181.102 94.4926 180.085 95.0959 180.443 95.6453C180.561 95.7465 180.713 95.7331 180.801 95.6096Z" fill="#7F1023"></path><path d="M185.114 99.2028C186.73 96.8511 188.566 94.6293 190.674 92.6748C190.986 92.2289 192.048 91.8564 191.841 91.2604C191.391 90.2962 182.753 100.151 185.1 99.1968L185.114 99.2028Z" fill="#7F1023"></path><path d="M202.915 86.1455C201.772 87.3594 200.747 88.6745 199.749 90.0016C198.407 91.6631 197.657 93.6043 196.793 95.5439C196.656 96.0354 195.835 96.5635 196.164 97.0676C196.268 97.1628 196.435 97.1555 196.522 97.032C197.564 95.643 197.939 93.9576 198.789 92.4508C200.043 90.3278 201.633 88.4027 203.28 86.5683C203.381 86.4508 203.366 86.2653 203.274 86.143C203.176 86.0343 203.002 86.022 202.921 86.132L202.915 86.1455Z" fill="#7F1023"></path><path d="M198.825 111.512C194.774 112.634 191.829 115.922 188.972 118.827C186.128 123.168 184.12 127.279 178.451 128.266C178.074 128.456 177.152 128.257 177.178 128.821C177.437 129.375 178.284 128.826 178.763 128.811C184.529 127.786 186.621 123.306 189.578 118.967C191.719 116.865 193.923 114.547 196.537 113.029C197.704 112.492 198.943 112.052 200.187 111.745C200.332 111.712 200.405 111.549 200.371 111.404C200.146 110.849 199.255 111.46 198.805 111.52L198.825 111.512Z" fill="#7F1023"></path><path d="M181.563 124.533C181.686 124.441 181.69 124.248 181.598 124.125C181.519 124.009 181.364 123.956 181.242 124.048C180.542 124.631 179.67 124.908 178.848 125.29C177.264 125.885 175.906 126.922 174.402 127.667C174.259 127.733 174.22 127.894 174.253 128.039C174.292 128.17 174.437 128.284 174.575 128.231C175.6 127.794 176.474 127.11 177.45 126.602C178.774 125.859 180.322 125.491 181.524 124.548L181.563 124.533Z" fill="#7F1023"></path><path d="M174.784 126.147C175.224 125.855 175.671 125.583 176.11 125.291C176.429 124.978 177.344 124.751 177.105 124.19C176.884 123.881 176.622 124.251 176.415 124.387C175.808 124.799 175.167 125.213 174.527 125.627C174.391 125.712 174.379 125.886 174.432 126.023C174.491 126.147 174.648 126.233 174.778 126.161L174.784 126.147Z" fill="#7F1023"></path><path d="M189.542 168.271C187.853 167.016 186.134 165.828 184.264 164.833C182.532 163.673 181.049 162.102 179.405 160.818C178.099 159.799 176.566 159.181 175.155 158.326C174.182 157.73 173.481 156.817 172.597 156.131C172.262 155.933 172.1 156.479 172.368 156.646C173.023 157.15 173.546 157.805 174.202 158.308C175.18 159.149 176.399 159.594 177.514 160.237C180.6 162.049 182.823 165.069 186.134 166.559C187.426 167.28 188.476 168.398 189.805 169.071C191.979 170.152 194.378 170.764 196.66 171.601C199.881 171.978 203.181 171.773 206.421 171.85C209.028 171.775 211.637 171.182 214.226 171.733C219.643 173.103 223.679 177.175 228.342 179.981C228.823 180.146 231.421 182.359 231.442 181.361C231.436 181.228 231.329 181.067 231.196 181.072C229.227 179.969 227.303 178.657 225.408 177.424C221.424 174.481 217.144 171.033 211.957 170.902C207.079 171.249 202.176 171.359 197.311 171.127C194.686 170.365 191.985 169.553 189.55 168.291L189.542 168.271Z" fill="#7F1023"></path><path d="M177.804 161.779C177.851 161.637 177.783 161.46 177.653 161.386C176.861 160.969 176.07 160.552 175.29 160.107C174.298 159.519 173.385 158.788 172.556 157.98C170.325 157.686 177.747 162.712 177.804 161.779Z" fill="#7F1023"></path><path d="M179.469 158.701C180.721 159.73 182.197 160.403 183.592 161.186C183.728 161.247 183.877 161.167 183.918 161.039C183.965 160.897 183.897 160.721 183.767 160.647C183.078 160.291 182.395 159.922 181.712 159.554C179.714 158.518 178.201 156.756 176.483 155.309C176.186 155.063 175.929 155.566 176.184 155.761C177.307 156.716 178.346 157.747 179.463 158.715L179.469 158.701Z" fill="#7F1023"></path><path d="M176.786 165.274C174.926 164.804 173.52 163.463 171.979 162.387C169.998 161.164 168.078 159.806 166.91 157.71C166.831 157.594 166.662 157.535 166.553 157.632C166.431 157.724 166.426 157.917 166.499 158.047C166.828 158.551 167.144 159.049 167.525 159.511C168.71 161.095 170.483 162.014 172.067 163.141C174.301 165.257 177.161 166.042 180.047 166.839C182.523 167.974 184.556 169.886 186.639 171.609C186.95 171.861 187.18 171.346 186.938 171.157C183.966 168.502 180.813 165.961 176.766 165.281L176.786 165.274Z" fill="#7F1023"></path><path d="M168.914 163.673C169.703 164.317 170.339 165.12 171.052 165.86C171.15 165.968 171.318 165.994 171.419 165.877C171.52 165.759 171.511 165.56 171.407 165.465C169.763 163.303 167.264 162.11 165.545 160.045C163.681 159.768 168.491 163.452 168.922 163.693L168.914 163.673Z" fill="#7F1023"></path><path d="M170.968 170.192C171.072 170.287 171.238 170.28 171.326 170.156C171.47 169.538 170.477 169.209 170.156 168.758C167.86 166.745 166.279 164.075 164.186 161.86C162.721 161.419 165.486 164.063 165.709 164.439C167.316 166.503 168.908 168.56 170.968 170.192Z" fill="#7F1023"></path><path d="M180.126 151.844C179.967 151.87 179.902 152.053 179.942 152.184C179.975 152.329 180.094 152.463 180.259 152.423C181.812 152.155 183.392 152.338 184.935 152.603C190.405 153.672 195.299 156.435 199.844 151.568C200.496 151.127 201.265 150.754 201.975 150.403C202.118 150.337 202.129 150.131 202.07 150.007C201.997 149.877 201.854 149.797 201.724 149.869C200.097 150.559 198.749 151.649 197.444 152.823C192.772 155.489 187.61 151.827 182.725 151.749C181.87 151.694 180.999 151.712 180.153 151.856L180.126 151.844Z" fill="#7F1023"></path><path d="M183.163 154.429C184.675 154.728 185.966 155.449 187.262 156.27C187.392 156.344 187.537 156.311 187.604 156.162C187.664 156.026 187.635 155.835 187.492 155.755C185.108 154.011 182.187 153.621 179.386 152.96C177.737 153.591 182.699 154.19 183.155 154.409L183.163 154.429Z" fill="#7F1023"></path><path d="M168.663 175.439C167.598 174.429 166.33 173.653 165.366 172.526C162.056 169.021 160.784 164.376 158.711 160.139C158.534 159.768 158.096 160.093 158.27 160.398C159.108 162.103 159.931 163.802 160.521 165.624C162.095 169.591 164.709 173.16 168.155 175.701C170.062 177.784 171.882 179.992 173.777 182.102C175.013 183.79 175.55 185.914 176.186 187.887C176.31 188.267 176.786 188.04 176.657 187.707C175.833 184.691 174.666 181.751 172.297 179.608C170.985 178.309 169.955 176.745 168.669 175.425L168.663 175.439Z" fill="#7F1023"></path><path d="M158.109 163.869C159.257 166.119 160.669 168.291 161.643 170.642C162.037 171.695 162.453 172.774 162.863 173.866C162.916 174.003 163.047 174.111 163.198 174.064C163.335 174.012 163.387 173.823 163.347 173.692C161.979 169.118 159.118 165.261 157.325 160.872C156.011 159.799 157.927 163.545 158.136 163.881L158.109 163.869Z" fill="#7F1023"></path><path d="M158.408 169.787C156.871 167.495 155.754 164.917 154.75 162.342C153.153 161.062 156.492 167.505 156.698 167.921C157.62 169.729 158.872 171.343 160.137 172.929C160.235 173.038 160.409 173.05 160.504 172.946C160.605 172.829 160.59 172.643 160.498 172.521C159.765 171.642 159.082 170.689 158.401 169.768L158.408 169.787Z" fill="#7F1023"></path><path d="M182.163 148.509C182.687 148.466 183.225 148.429 183.752 148.452C185.803 148.601 187.882 149.201 189.986 149.195C190.146 149.201 190.224 149.025 190.218 148.892C190.136 148.417 189.461 148.653 189.124 148.568C186.777 148.498 184.499 147.615 182.13 147.925C181.977 147.938 181.883 148.075 181.897 148.228C181.903 148.36 182.011 148.522 182.177 148.515L182.163 148.509Z" fill="#7F1023"></path><path d="M181.808 145.425C182.436 145.331 183.078 145.243 183.72 145.155C185.263 144.98 186.833 144.931 188.379 144.823C188.532 144.81 188.612 144.667 188.612 144.52C188.606 144.388 188.498 144.226 188.338 144.22C186.121 144.371 183.901 144.455 181.694 144.838C181.536 144.865 181.484 145.053 181.51 145.179C181.543 145.323 181.669 145.444 181.808 145.425Z" fill="#7F1023"></path><path d="M159.959 151.447C159.822 151.5 159.771 151.688 159.81 151.82C159.849 151.951 159.994 152.064 160.145 152.018C161.947 151.373 163.681 150.552 165.071 149.221C166.373 148.127 167.576 146.923 168.668 145.605C168.769 145.488 168.754 145.302 168.661 145.18C168.563 145.071 168.389 145.059 168.294 145.163C166.881 146.874 165.266 148.381 163.504 149.742C162.441 150.52 161.169 150.962 159.946 151.441L159.959 151.447Z" fill="#7F1023"></path><path d="M166.441 150.53C164.979 151.619 163.525 152.727 161.72 153.158C161.569 153.205 161.531 153.399 161.577 153.517C161.63 153.654 161.761 153.762 161.899 153.709C162.522 153.515 163.146 153.322 163.732 153.03C164.819 152.49 165.761 151.691 166.735 151.003C166.858 150.911 166.862 150.718 166.79 150.588C166.703 150.452 166.555 150.419 166.433 150.511L166.441 150.53Z" fill="#7F1023"></path><path d="M157.164 202.008C157.037 202.293 157.33 202.44 157.498 202.612C160.054 205.212 161.917 210.104 160.903 213.699C160.765 214.011 161.251 214.309 161.387 213.93C162.483 209.966 160.501 204.647 157.505 201.9C157.381 201.813 157.224 201.873 157.156 201.989L157.164 202.008Z" fill="#7F1023"></path><path d="M156.443 202.711C157.512 205.251 158.381 207.945 158.701 210.704C158.681 211.443 158.543 212.193 158.458 212.968C158.445 213.109 158.499 213.279 158.655 213.332C158.797 213.379 158.945 213.266 158.958 213.126C159.028 212.604 159.091 212.096 159.16 211.575C159.266 208.372 157.999 205.143 156.767 202.238C156.403 201.849 156.157 202.438 156.45 202.731L156.443 202.711Z" fill="#7F1023"></path><path d="M148.659 195.869C148.565 196.298 149.112 196.607 149.244 197.006C151.689 200.808 153.74 205.166 153.301 209.813C152.826 212.235 152.091 214.654 151.758 217.122C151.737 217.535 152.292 217.571 152.266 217.153C152.617 214.79 153.276 212.467 153.775 210.138C154.362 204.94 151.941 199.913 149.014 195.767C148.89 195.679 148.739 195.725 148.665 195.855L148.659 195.869Z" fill="#7F1023"></path><path d="M146.885 193.632C146.833 193.495 146.701 193.387 146.558 193.453C146.153 193.777 146.721 194.404 146.748 194.855C147.854 198.629 148.777 202.485 149.197 206.409C149.26 207.071 149.31 207.727 149.374 208.389C149.394 208.528 149.487 208.684 149.654 208.676C150.176 208.454 149.679 207.339 149.742 206.831C149.31 202.348 148.248 197.927 146.893 193.651L146.885 193.632Z" fill="#7F1023"></path><path d="M144.899 191.14C144.789 190.766 144.299 190.987 144.428 191.32C145.437 195.311 146.076 199.366 146.94 203.39C146.959 203.529 147.092 203.67 147.237 203.637C147.382 203.604 147.455 203.441 147.421 203.296C146.57 199.244 145.915 195.151 144.893 191.153L144.899 191.14Z" fill="#7F1023"></path><path d="M139.098 205.605C139.735 208.748 140.208 211.932 140.322 215.152C140.383 215.455 140.237 216.04 140.652 216.095C140.805 216.082 140.904 215.931 140.884 215.792C140.732 212.328 140.308 208.889 139.6 205.503C139.536 205.133 139.015 205.243 139.098 205.605Z" fill="#7F1023"></path><path d="M118.978 179.182C117.929 181.429 117.281 183.838 115.871 185.908C109.515 194.259 111.407 201.39 112.509 210.883C112.565 211.233 112.281 211.87 112.715 212.031C113.204 211.956 112.93 211.217 113.007 210.861C112.213 203.569 110.292 195.661 114.496 189.033C115.996 186.613 117.657 184.346 118.523 181.595C118.791 180.919 119.111 180.2 119.425 179.494C119.486 179.359 119.451 179.181 119.313 179.087C119.189 179 119.032 179.06 118.972 179.195L118.978 179.182Z" fill="#7F1023"></path><path d="M126.091 167.672C125.479 169.155 124.166 170.277 123.358 171.689C123.271 171.812 123.313 172.01 123.417 172.105C123.522 172.2 123.688 172.193 123.775 172.069C125.143 170.094 126.826 168.325 127.212 165.848C128.726 161.825 130.938 157.951 131.189 153.545C131.202 153.405 131.095 153.243 130.947 153.21C130.799 153.176 130.699 153.327 130.672 153.461C130.543 155.142 130.172 156.781 129.639 158.38C128.653 161.549 126.894 164.439 126.091 167.672Z" fill="#7F1023"></path><path d="M126.703 160.875C126.839 160.936 126.974 160.85 127.029 160.728C127.297 160.051 127.566 159.375 127.815 158.705C128.533 156.653 129.312 154.61 129.438 152.424C129.451 152.284 129.35 152.109 129.196 152.089C128.882 152.063 128.914 152.467 128.897 152.687C128.649 155.404 127.494 157.962 126.559 160.503C126.499 160.638 126.58 160.821 126.71 160.895L126.703 160.875Z" fill="#7F1023"></path><path d="M121.459 160.655C123.406 158.109 125.673 155.689 126.315 152.416C126.361 152.274 126.307 152.104 126.164 152.023C126.028 151.963 125.878 152.043 125.837 152.171C125.495 153.416 125.065 154.638 124.425 155.783C122.517 158.461 120.396 160.994 118.784 163.884C118.651 164.036 118.423 164.292 118.619 164.51C118.704 164.612 118.885 164.644 118.973 164.521C119.93 163.322 120.564 161.898 121.451 160.635L121.459 160.655Z" fill="#7F1023"></path><path d="M124.654 153.074C124.714 152.939 124.633 152.756 124.503 152.682C124.117 152.559 124.13 153.117 123.994 153.349C123.273 155.482 121.408 156.927 120.042 158.643C118.867 160.184 117.934 161.914 116.545 163.278C116.043 163.786 115.558 164.252 115.022 164.761C114.913 164.859 114.895 165.046 114.987 165.168C115.066 165.285 115.235 165.344 115.344 165.246C117.441 163.498 118.936 161.238 120.478 159.016C122.038 157.159 124.032 155.495 124.673 153.067L124.654 153.074Z" fill="#7F1023"></path><path d="M125.48 157.912C125.48 157.765 125.406 157.603 125.238 157.577C124.99 157.548 124.963 157.828 124.959 158.021C124.928 158.235 124.835 158.519 124.772 158.734C123.875 161.114 121.994 162.926 120.426 164.876C120.324 164.994 120.34 165.179 120.438 165.288C120.536 165.397 120.704 165.423 120.805 165.305C121.221 164.808 121.658 164.303 122.08 163.793C123.498 162.035 125.2 160.225 125.499 157.904L125.48 157.912Z" fill="#7F1023"></path><path d="M110.372 168.656C110.474 168.539 110.458 168.353 110.366 168.231C110.303 168.154 110.215 168.131 110.149 168.134C109.672 168.474 109.309 168.995 108.862 169.414C107.558 171.027 106.326 172.624 104.448 173.624C101.476 175.47 99.6147 178.591 97.5768 181.34C96.2982 183.371 96.5741 185.899 95.7623 188.089C95.6371 188.407 96.116 188.685 96.2457 188.32C96.9459 186.454 96.8333 184.438 97.5667 182.571C98.9341 180.011 100.945 177.688 102.896 175.501C104.898 173.857 107.309 172.72 108.722 170.424C109.246 169.796 109.826 169.225 110.384 168.629L110.372 168.656Z" fill="#7F1023"></path><path d="M96.2068 182.404C96.0708 182.343 95.9213 182.423 95.8746 182.565C95.3979 184.221 94.6917 185.808 93.9446 187.377C93.8843 187.513 93.9191 187.691 94.0565 187.784C94.5701 187.948 94.6966 186.785 94.9804 186.44C95.5116 185.247 95.996 184.049 96.3716 182.802C96.4183 182.66 96.3503 182.484 96.2204 182.41L96.2068 182.404Z" fill="#7F1023"></path><path d="M82.3936 176.809C83.5563 176.026 84.7704 175.348 86.1099 174.937C86.4316 174.836 86.782 174.781 87.1052 174.713C87.4284 174.646 87.3149 174.059 86.9917 174.127C85.2201 174.411 83.6088 175.286 82.1426 176.275C82.0067 176.361 81.9811 176.528 82.0476 176.671C82.1066 176.795 82.2713 176.901 82.3936 176.809Z" fill="#7F1023"></path><path d="M82.2436 175.898C82.6407 175.555 83.0212 175.285 83.5165 175.051C84.7532 174.285 86.2968 174.111 87.5259 173.325C87.689 173.252 87.7463 173.05 87.6723 172.887C87.6133 172.763 87.4426 172.671 87.3263 172.749C85.7846 173.688 83.8499 173.899 82.3973 175.04C82.1739 175.25 81.6634 175.445 81.8871 175.821C81.9657 175.937 82.1213 175.99 82.2436 175.898Z" fill="#7F1023"></path><path d="M69.8879 176.103C71.0279 175.261 72.2042 174.485 73.3941 173.714C74.2397 173.132 75.0642 172.524 75.9883 172.057C76.1318 171.991 76.1423 171.785 76.0833 171.661C76.0319 171.557 75.9216 171.475 75.7963 171.501C74.7075 172.007 73.7714 172.793 72.7687 173.436C71.6815 174.122 70.6094 174.847 69.566 175.618C69.4437 175.71 69.4393 175.903 69.5118 176.033C69.5904 176.149 69.746 176.202 69.8683 176.11L69.8879 176.103Z" fill="#7F1023"></path><path d="M60.5835 209.858C60.7421 209.831 60.801 209.662 60.7677 209.517C60.539 208.018 60.4992 206.424 60.4215 204.878C60.4152 204.16 60.421 203.415 60.4947 202.701C60.5083 202.56 60.407 202.385 60.2529 202.366C60.0989 202.346 59.9917 202.477 59.9781 202.617C59.8593 203.799 59.9005 204.987 59.9553 206.182C60.0343 207.322 60.0604 208.471 60.2527 209.613C60.2724 209.752 60.4114 209.879 60.5699 209.852L60.5835 209.858Z" fill="#7F1023"></path><path d="M59.0847 200.3C58.9427 200.253 58.7947 200.366 58.7812 200.506C58.5704 202.298 58.4261 204.086 58.2893 205.894C58.1751 207.468 57.9869 209.026 57.906 210.598C57.8924 210.738 57.9937 210.914 58.1478 210.933C58.3018 210.953 58.409 210.822 58.4225 210.682C58.4914 209.136 58.6872 207.598 58.7893 206.051C58.9336 204.263 59.0704 202.455 59.2751 200.678C59.2887 200.537 59.2342 200.367 59.0786 200.314L59.0847 200.3Z" fill="#7F1023"></path><path d="M59.0308 190.837C58.6321 190.708 58.6519 191.285 58.5705 191.542C57.7654 195.473 58.2442 199.522 57.5464 203.468C57.3328 205.632 56.8185 207.776 56.845 209.949C56.8647 210.088 56.9584 210.243 57.1246 210.236C57.2711 210.236 57.3767 210.072 57.3571 209.933C57.3025 209.47 57.3537 208.989 57.4124 208.528C58.0722 204.044 58.5584 199.548 58.6563 195.009C58.751 193.735 58.8457 192.46 59.2017 191.221C59.2348 191.074 59.194 190.909 59.0505 190.829L59.0308 190.837Z" fill="#7F1023"></path><path d="M61.9389 183.713C62.034 183.755 62.1534 183.743 62.2228 183.661C62.5881 183.059 62.9473 182.472 63.2854 181.859C63.5933 181.313 63.9617 180.778 64.3179 180.271C64.4055 180.147 64.3631 179.949 64.2589 179.854C64.203 179.797 64.1229 179.794 64.0564 179.797C63.5431 180.218 63.2428 180.93 62.8684 181.478C62.7582 181.689 62.6269 181.874 62.5167 182.085C62.4216 182.043 62.3022 182.055 62.2404 182.157C61.4917 183.4 60.7218 184.618 60.0276 185.885C59.2065 187.437 58.5169 189.096 58.1701 190.827C58.137 190.975 58.2246 191.144 58.3666 191.191C58.5222 191.244 58.643 191.119 58.6701 190.985C58.9445 189.563 59.4817 188.209 60.108 186.912C60.6574 185.824 61.2883 184.772 61.9328 183.727L61.9389 183.713Z" fill="#7F1023"></path><path d="M60.9805 197.797C61.1391 197.77 61.1979 197.601 61.1646 197.456C60.7939 195.617 60.6678 193.741 60.868 191.864C61.0576 190.047 61.9345 188.406 62.751 186.754C62.8053 186.632 62.7721 186.488 62.6678 186.392C62.7131 186.364 62.7584 186.335 62.7826 186.281C63.3198 185.074 63.7815 183.817 64.6813 182.82C65.6385 181.913 66.555 180.989 67.4503 180.038C66.7996 180.805 66.1006 181.534 65.4151 182.269C64.5274 183.239 64.0234 184.444 63.681 185.69C63.5558 186.008 64.0347 186.286 64.1644 185.921C64.6253 182.616 68.7253 180.687 69.3963 177.898C69.5352 177.732 69.7013 177.579 69.8402 177.413C69.9489 177.315 69.967 177.128 69.8748 177.006C69.7962 176.89 69.627 176.831 69.5183 176.929C68.7694 177.587 68.1958 178.436 67.5315 179.197C66.0444 180.891 63.9848 182.152 63.0778 184.3C62.9451 184.891 62.0876 185.793 62.3989 186.338C62.34 186.36 62.2947 186.389 62.2706 186.443C61.0178 188.746 60.0597 191.228 60.242 193.893C60.2454 195.129 60.4075 196.339 60.6421 197.532C60.6618 197.671 60.7947 197.811 60.9397 197.778L60.9805 197.797Z" fill="#7F1023"></path><path d="M57.0205 201.723C56.8752 200.878 56.8069 199.97 56.9138 199.108C57.0885 197.691 57.5501 196.287 57.8652 194.884C57.8924 194.75 57.8107 194.567 57.6687 194.52C57.1824 194.515 57.3186 195.307 57.1541 195.64C56.6202 197.645 56.0833 199.73 56.5448 201.804C56.5644 201.942 56.7035 202.069 56.8424 202.05C57.001 202.023 57.0462 201.848 57.0265 201.709L57.0205 201.723Z" fill="#7F1023"></path><path d="M75.5525 181.014C76.2244 180.565 76.8964 180.117 77.5759 179.688C78.6767 179.008 79.7563 178.302 80.8798 177.681C81.0097 177.609 81.0338 177.408 80.9748 177.284C80.9234 177.18 80.8132 177.099 80.6878 177.124C79.8089 177.562 78.9966 178.143 78.154 178.645C77.1755 179.234 76.2393 179.873 75.2955 180.493C75.1596 180.579 75.134 180.746 75.2005 180.89C75.2595 181.013 75.4241 181.119 75.5464 181.027L75.5525 181.014Z" fill="#7F1023"></path><path d="M98.1481 124.427C98.9168 124.2 99.7369 124.077 100.537 124.109C103.144 124.18 105.45 125.661 108.001 126.114C109.717 127.089 111.572 128.045 113.039 129.396C114.829 131.818 117.229 134.072 120.18 134.947C120.923 135.18 121.669 135.333 122.436 135.512C122.584 135.546 122.704 135.387 122.697 135.255C122.59 134.654 121.574 134.852 121.096 134.607C118.738 134.159 116.824 132.641 115.082 131.102C114.136 130.08 113.456 128.753 112.21 128.003C110.184 126.663 108.199 125.341 105.77 124.942C103.717 124.029 101.41 123.246 99.122 123.593C98.7354 123.729 97.8246 123.616 97.8369 124.174C97.8626 124.3 97.9895 124.454 98.1542 124.413L98.1481 124.427Z" fill="#7F1023"></path><path d="M87.0709 126.111C85.3537 126.419 83.6698 126.872 81.9784 127.306C81.8334 127.339 81.7609 127.502 81.7942 127.646C81.8199 127.772 81.9469 127.926 82.0919 127.893C83.1521 127.633 84.1971 127.334 85.2513 127.089C85.8841 126.948 86.5441 126.819 87.1844 126.698C87.5076 126.63 87.3941 126.044 87.0709 126.111Z" fill="#7F1023"></path><path d="M96.7136 129.622C98.6981 129.189 100.728 129.02 102.753 129.043C103.652 129.037 104.546 129.078 105.434 129.278C105.582 129.311 105.696 129.167 105.709 129.026C105.753 129.111 105.803 129.182 105.904 129.211C107.6 129.608 109.258 130.313 110.879 130.953C113.215 131.814 114.784 133.926 116.997 134.993C118.749 135.447 120.379 136.725 122.219 136.618C122.542 136.55 122.429 135.964 122.106 136.031C120.98 136.18 119.933 135.422 118.879 135.083C116.696 134.534 115.084 133.069 113.344 131.709C111.136 130.191 108.481 129.35 105.931 128.638C105.757 128.625 105.67 128.749 105.67 128.895C105.632 128.797 105.569 128.72 105.475 128.711C102.998 128.275 100.423 128.461 97.9352 128.817C97.4927 128.896 97.0502 128.975 96.6017 129.068C96.2785 129.136 96.392 129.722 96.7152 129.655L96.7136 129.622Z" fill="#7F1023"></path><path d="M110.563 154.976C109.404 156.41 107.722 157.336 106.339 158.54C105.391 159.353 104.402 160.148 103.195 160.553C102.887 160.66 103.073 161.23 103.387 161.11C104.652 160.682 105.679 159.839 106.686 159.003C108.012 157.855 109.563 156.969 110.734 155.654C111.945 153.885 113.456 152.429 115.19 151.169C116.413 150.105 117.773 149.28 119.451 149.279C119.772 149.585 120.031 149.001 119.735 148.788C119.371 148.545 118.868 148.76 118.477 148.797C117.018 148.928 115.869 149.863 114.771 150.755C113.156 151.97 111.671 153.292 110.557 154.99L110.563 154.976Z" fill="#7F1023"></path><path d="M108.904 155.197C109.04 155.111 109.052 154.938 108.999 154.8C108.947 154.696 108.837 154.615 108.725 154.646C106.063 155.834 104.31 158.271 101.719 159.555C101.342 159.891 100.053 159.968 100.153 160.549C100.193 160.68 100.338 160.793 100.489 160.747C102.87 159.97 104.662 158.249 106.527 156.658C107.296 156.139 108.101 155.684 108.898 155.21L108.904 155.197Z" fill="#7F1023"></path><path d="M107.054 154.228C107.184 154.156 107.208 153.955 107.149 153.832C107.098 153.727 106.981 153.659 106.876 153.677C105.511 154.402 104.174 155.173 102.773 155.833C100.947 156.678 99.2241 157.731 97.353 158.458C97.2156 158.511 97.1643 158.699 97.2036 158.83C97.2429 158.962 97.388 159.075 97.5314 159.009C99.0507 158.45 100.45 157.61 101.903 156.908C103.649 156.06 105.373 155.186 107.04 154.222L107.054 154.228Z" fill="#7F1023"></path><path d="M93.525 155.421C93.377 155.388 93.2577 155.546 93.2502 155.672C93.2488 156.078 93.7609 156.062 94.0448 156.01C95.9235 155.595 97.9323 155.4 99.6281 154.481C99.9029 154.376 99.7789 153.849 99.4753 153.909C98.9559 154.198 98.3941 154.435 97.8021 154.594C96.4172 154.888 94.9553 155.391 93.5189 155.434L93.525 155.421Z" fill="#7F1023"></path><path d="M95.5762 153.849C95.9749 153.685 97.0429 154.03 97.0698 153.457C97.0562 153.305 96.9565 153.163 96.7903 153.171C95.5186 153.173 94.2469 153.469 92.9692 153.485C92.9692 153.485 92.942 153.473 92.9359 153.486C91.9123 154.542 95.1231 153.842 95.5822 153.835L95.5762 153.849Z" fill="#7F1023"></path><path d="M77.2979 135.184C76.6047 135.315 75.9055 135.458 75.2123 135.589C75.0673 135.622 74.9948 135.784 75.0281 135.929C75.0614 136.074 75.1808 136.208 75.3258 136.175C76.9055 135.92 78.4293 135.46 80.0333 135.443C81.5136 135.63 82.9652 136.065 84.4289 136.327C84.5769 136.36 84.6962 136.202 84.7037 136.075C84.7036 135.929 84.6099 135.773 84.4619 135.74C82.0889 135.253 79.7158 134.473 77.2919 135.198L77.2979 135.184Z" fill="#7F1023"></path><path d="M77.2242 131.691C78.218 131.727 79.2361 131.855 80.2119 132.078C81.5603 131.281 77.6182 131.135 77.1771 131.101C76.8449 131.116 76.8843 131.686 77.2106 131.685L77.2242 131.691Z" fill="#7F1023"></path><path d="M92.1405 113.222C89.8123 111.39 86.5784 111.007 84.6533 108.672C82.9973 106.976 82.4904 104.638 81.8039 102.447C80.617 99.2215 79.2383 96.0242 77.4187 93.0856C77.1965 92.743 76.8161 93.1587 77.008 93.4229C79.4805 97.3832 81.0817 101.801 82.4774 106.241C83.327 108.211 84.7928 109.969 86.6721 111.016C88.8172 112.052 91.0544 112.918 92.9173 114.478C93.0412 114.566 93.1982 114.506 93.2526 114.384C93.3656 113.8 92.4714 113.614 92.1345 113.236L92.1405 113.222Z" fill="#7F1023"></path><path d="M73.7231 90.3678C73.5598 90.0027 73.122 90.3278 73.2822 90.6266C75.0844 95.3611 77.9632 99.6161 79.5298 104.441C79.5692 104.572 79.7142 104.685 79.8652 104.639C80.0026 104.586 80.0539 104.398 80.001 104.261C79.5549 102.957 79.1346 101.632 78.4922 100.404C76.7963 97.1143 75.1321 93.7899 73.7095 90.3618L73.7231 90.3678Z" fill="#7F1023"></path><path d="M70.3095 88.0844C71.5858 92.0974 73.3197 95.924 74.8119 99.8544C74.8648 99.9917 74.9963 100.099 75.1473 100.052C75.2847 99.9998 75.336 99.8114 75.2967 99.6801C73.8044 95.7498 72.0706 91.9231 70.7943 87.9101C70.6703 87.5299 70.1946 87.757 70.3231 88.0904L70.3095 88.0844Z" fill="#7F1023"></path></svg> 