<?xml version="1.0" encoding="UTF-8"?> <svg xmlns="http://www.w3.org/2000/svg" width="377" height="116" viewBox="0 0 377 116" fill="none"><path d="M350.198 19.1895V3.71086H353.587C354.917 3.71086 355.961 4.06669 356.719 4.77835C357.477 5.47454 357.857 6.41053 357.857 7.58631C357.857 9.10246 357.253 10.2318 356.046 10.9744C357.037 11.1291 357.818 11.5623 358.39 12.274C358.963 12.9856 359.249 13.8443 359.249 14.8499C359.249 16.1804 358.8 17.2401 357.903 18.0291C357.021 18.8027 355.869 19.1895 354.445 19.1895H350.198ZM351.22 4.63911V10.7192H353.679C354.561 10.7192 355.265 10.5026 355.791 10.0694C356.472 9.51243 356.812 8.72342 356.812 7.70234C356.812 6.6658 356.464 5.86131 355.768 5.28889C355.211 4.85571 354.352 4.63911 353.192 4.63911H351.22ZM351.22 11.6474V18.2612H353.819C354.298 18.2612 354.677 18.2535 354.956 18.238C355.234 18.2071 355.59 18.122 356.023 17.9827C356.472 17.8435 356.859 17.6269 357.184 17.333C357.849 16.7451 358.181 15.956 358.181 14.9659C358.181 13.5581 357.632 12.5989 356.534 12.0883C355.869 11.7944 354.902 11.6474 353.633 11.6474H351.22ZM374.987 5.52095V6.86692C374.322 6.09337 373.533 5.49775 372.62 5.08003C371.723 4.64685 370.771 4.43026 369.766 4.43026C367.801 4.43026 366.153 5.11871 364.823 6.49562C363.492 7.87252 362.827 9.55111 362.827 11.5314C362.827 12.6298 363.036 13.6354 363.453 14.5482C363.887 15.461 364.444 16.2036 365.124 16.776C365.82 17.333 366.571 17.7661 367.375 18.0756C368.18 18.3695 368.984 18.5165 369.789 18.5165C370.655 18.5165 371.552 18.3308 372.481 17.9595C373.409 17.5727 374.244 16.9771 374.987 16.1726V17.5186C373.533 18.8027 371.815 19.4447 369.835 19.4447C367.545 19.4447 365.627 18.6634 364.08 17.1009C362.533 15.5383 361.759 13.6664 361.759 11.485C361.759 9.25716 362.541 7.36972 364.103 5.82263C365.666 4.27555 367.561 3.50201 369.789 3.50201C371.831 3.50201 373.564 4.17499 374.987 5.52095Z" fill="#272727"></path><path d="M304.575 5.52095V6.86692C303.91 6.09337 303.121 5.49775 302.208 5.08003C301.311 4.64685 300.359 4.43026 299.354 4.43026C297.389 4.43026 295.741 5.11871 294.411 6.49562C293.08 7.87252 292.415 9.55111 292.415 11.5314C292.415 12.6298 292.624 13.6354 293.041 14.5482C293.475 15.461 294.032 16.2036 294.712 16.776C295.408 17.333 296.159 17.7661 296.963 18.0756C297.768 18.3695 298.572 18.5165 299.377 18.5165C300.243 18.5165 301.14 18.3308 302.069 17.9595C302.997 17.5727 303.832 16.9771 304.575 16.1726V17.5186C303.121 18.8027 301.403 19.4447 299.423 19.4447C297.133 19.4447 295.215 18.6634 293.668 17.1009C292.121 15.5383 291.347 13.6664 291.347 11.485C291.347 9.25716 292.129 7.36972 293.691 5.82263C295.254 4.27555 297.149 3.50201 299.377 3.50201C301.419 3.50201 303.152 4.17499 304.575 5.52095ZM307.911 19.1895V3.71086H315.36V4.63911H308.932V10.3711H311.624C315.182 10.3711 316.961 11.7866 316.961 14.6178C316.961 15.9019 316.543 16.9849 315.708 17.8667C314.888 18.7485 313.635 19.1895 311.948 19.1895H307.911ZM308.932 11.2993V18.2612H311.531C313.093 18.2612 314.223 17.9208 314.919 17.2401C315.569 16.6213 315.893 15.7472 315.893 14.6178C315.893 13.2719 315.36 12.3204 314.292 11.7634C313.673 11.454 312.691 11.2993 311.345 11.2993H308.932Z" fill="#272727"></path><path d="M235.584 3.71086H247.001V19.1895H245.98V4.63911H236.605V19.1895H235.584V3.71086ZM258.462 4.63911H254.447V19.1895H253.426V4.63911H249.412V3.71086H258.462V4.63911Z" fill="#272727"></path><path d="M186.895 19.1895V12.2276C185.162 12.3359 183.847 12.39 182.949 12.39C181.542 12.39 180.49 12.2198 179.793 11.8795C179.113 11.5546 178.672 11.1291 178.471 10.6031C178.27 10.0616 178.169 9.33452 178.169 8.42174V3.71086H179.19V8.42174C179.19 8.74663 179.198 8.98642 179.213 9.14113C179.229 9.29584 179.267 9.5279 179.329 9.83732C179.391 10.1313 179.515 10.3865 179.701 10.6031C179.886 10.8042 180.134 10.9744 180.443 11.1137C180.923 11.3457 181.867 11.4618 183.274 11.4618C184.342 11.4618 185.549 11.4076 186.895 11.2993V3.71086H187.916V19.1895H186.895ZM199.381 4.63911H195.367V19.1895H194.346V4.63911H190.331V3.71086H199.381V4.63911Z" fill="#272727"></path><path d="M131.548 5.52095V6.86692C130.883 6.09337 130.094 5.49775 129.181 5.08003C128.284 4.64685 127.332 4.43026 126.326 4.43026C124.362 4.43026 122.714 5.11871 121.384 6.49562C120.053 7.87252 119.388 9.55111 119.388 11.5314C119.388 12.6298 119.597 13.6354 120.014 14.5482C120.448 15.461 121.005 16.2036 121.685 16.776C122.381 17.333 123.132 17.7661 123.936 18.0756C124.741 18.3695 125.545 18.5165 126.35 18.5165C127.216 18.5165 128.113 18.3308 129.042 17.9595C129.97 17.5727 130.805 16.9771 131.548 16.1726V17.5186C130.094 18.8027 128.376 19.4447 126.396 19.4447C124.106 19.4447 122.188 18.6634 120.641 17.1009C119.094 15.5383 118.32 13.6664 118.32 11.485C118.32 9.25716 119.102 7.36972 120.664 5.82263C122.227 4.27555 124.122 3.50201 126.35 3.50201C128.392 3.50201 130.125 4.17499 131.548 5.52095ZM137.9 11.8331H135.905V19.1895H134.883V3.71086H137.877C139.192 3.71086 140.275 4.06669 141.126 4.77835C141.977 5.47454 142.402 6.46467 142.402 7.74876C142.402 9.01737 141.992 10.0152 141.172 10.7424C140.352 11.4695 139.262 11.8331 137.9 11.8331ZM135.905 4.63911V10.9048H137.947C138.968 10.9048 139.788 10.6263 140.407 10.0694C141.025 9.49696 141.335 8.73116 141.335 7.77196C141.335 6.7973 141.018 6.03149 140.383 5.47454C139.765 4.91759 138.898 4.63911 137.784 4.63911H135.905Z" fill="#272727"></path><path d="M63.1344 19.1895V3.71086H66.5225C67.853 3.71086 68.8973 4.06669 69.6554 4.77835C70.4135 5.47454 70.7925 6.41053 70.7925 7.58631C70.7925 9.10246 70.1891 10.2318 68.9824 10.9744C69.9725 11.1291 70.7538 11.5623 71.3262 12.274C71.8987 12.9856 72.1849 13.8443 72.1849 14.8499C72.1849 16.1804 71.7362 17.2401 70.8389 18.0291C69.9571 18.8027 68.8045 19.1895 67.3812 19.1895H63.1344ZM64.1555 4.63911V10.7192H66.6154C67.4972 10.7192 68.2011 10.5026 68.7271 10.0694C69.4079 9.51243 69.7482 8.72342 69.7482 7.70234C69.7482 6.6658 69.4001 5.86131 68.7039 5.28889C68.147 4.85571 67.2883 4.63911 66.128 4.63911H64.1555ZM64.1555 11.6474V18.2612H66.7546C67.2342 18.2612 67.6132 18.2535 67.8917 18.238C68.1702 18.2071 68.526 18.122 68.9592 17.9827C69.4079 17.8435 69.7946 17.6269 70.1195 17.333C70.7848 16.7451 71.1174 15.956 71.1174 14.9659C71.1174 13.5581 70.5682 12.5989 69.4697 12.0883C68.8045 11.7944 67.8376 11.6474 66.569 11.6474H64.1555ZM82.8175 4.63911H78.8028V19.1895H77.7818V4.63911H73.7671V3.71086H82.8175V4.63911Z" fill="#272727"></path><path d="M7.14708 3.71086H18.5646V19.1895H17.5435V4.63911H8.16816V19.1895H7.14708V3.71086ZM23.7599 3.71086V10.2782H33.1352V3.71086H34.1563V19.1895H33.1352V11.2065H23.7599V19.1895H22.7388V3.71086H23.7599Z" fill="#272727"></path><path d="M14.6135 85.0014L13.8244 84.398L17.259 79.5015C16.5937 79.7799 15.8898 79.9192 15.1472 79.9192C13.6001 79.9192 12.316 79.4086 11.295 78.3876C10.2739 77.3665 9.76334 76.0747 9.76334 74.5121C9.76334 72.9496 10.2816 71.65 11.3182 70.6135C12.3547 69.5769 13.6775 69.0586 15.2864 69.0586C16.8645 69.0586 18.1718 69.5769 19.2083 70.6135C20.2448 71.65 20.7631 72.9573 20.7631 74.5353C20.7631 75.6647 20.4305 76.7167 19.7652 77.6914L14.6135 85.0014ZM18.4193 71.2864C17.5839 70.4201 16.5318 69.9869 15.2632 69.9869C13.9946 69.9869 12.9349 70.4201 12.084 71.2864C11.2485 72.1528 10.8308 73.2203 10.8308 74.4889C10.8308 75.8039 11.2485 76.8869 12.084 77.7378C12.9349 78.5732 13.9946 78.9909 15.2632 78.9909C16.5473 78.9909 17.6071 78.5655 18.4425 77.7146C19.2779 76.8637 19.6956 75.7885 19.6956 74.4889C19.6956 73.2048 19.2702 72.1373 18.4193 71.2864Z" fill="#272727"></path><path d="M66.8524 84.7461V70.1958H64.439L64.9031 69.2675H67.8735V84.7461H66.8524ZM75.9691 70.9384C77.0056 69.6852 78.2201 69.0586 79.6124 69.0586C81.0048 69.0586 82.2193 69.6852 83.2558 70.9384C84.5709 72.5009 85.2284 74.5276 85.2284 77.0184C85.2284 79.5092 84.5709 81.5359 83.2558 83.0984C82.1883 84.3671 80.9739 85.0014 79.6124 85.0014C78.251 85.0014 77.0366 84.3671 75.9691 83.0984C74.654 81.5359 73.9965 79.5092 73.9965 77.0184C73.9965 74.5276 74.654 72.5009 75.9691 70.9384ZM76.7349 82.4951C77.5858 83.5471 78.545 84.0731 79.6124 84.0731C80.6799 84.0731 81.6391 83.5471 82.49 82.4951C83.6039 81.1182 84.1609 79.2926 84.1609 77.0184C84.1609 74.7442 83.6039 72.9186 82.49 71.5417C81.6546 70.5052 80.6954 69.9869 79.6124 69.9869C78.5295 69.9869 77.5703 70.5052 76.7349 71.5417C75.621 72.9186 75.064 74.7442 75.064 77.0184C75.064 79.2926 75.621 81.1182 76.7349 82.4951Z" fill="#272727"></path><path d="M124.868 84.7461V70.1958H122.455L122.919 69.2675H125.889V84.7461H124.868ZM137.582 84.7461V70.1958H135.168L135.632 69.2675H138.603V84.7461H137.582Z" fill="#272727"></path><path d="M182.884 84.7461V70.1958H180.47L180.934 69.2675H183.905V84.7461H182.884ZM200.215 84.7461H190.678L196.618 78.2019C197.438 77.2737 198.003 76.5775 198.312 76.1134C198.916 75.1851 199.217 74.3033 199.217 73.4678C199.217 72.4777 198.877 71.65 198.196 70.9848C197.531 70.3195 196.673 69.9869 195.62 69.9869C194.507 69.9869 193.617 70.3659 192.952 71.124C192.333 71.8047 192.031 72.6479 192.047 73.6535H191.026C191.01 72.3539 191.42 71.271 192.256 70.4046C193.122 69.5073 194.267 69.0586 195.69 69.0586C197.021 69.0586 198.119 69.4841 198.985 70.335C199.852 71.1704 200.285 72.2147 200.285 73.4678C200.285 74.5663 199.914 75.626 199.171 76.6471C198.815 77.1422 198.359 77.6991 197.802 78.318L192.836 83.8178H200.215V84.7461Z" fill="#272727"></path><path d="M240.899 84.7461V70.1958H238.486L238.95 69.2675H241.92V84.7461H240.899ZM249.064 80.9867H250.086C250.116 81.59 250.287 82.1393 250.596 82.6343C250.89 83.052 251.292 83.4001 251.803 83.6786C252.313 83.9416 252.824 84.0731 253.334 84.0731C254.278 84.0731 255.09 83.7173 255.771 83.0056C256.467 82.294 256.815 81.4508 256.815 80.4761C256.815 79.2075 256.328 78.2638 255.353 77.645C254.796 77.2891 254.139 77.1344 253.381 77.1808V76.2526C254.216 76.2526 254.912 76.0128 255.469 75.5332C256.227 74.8989 256.607 74.0557 256.607 73.0037C256.607 72.1373 256.344 71.418 255.818 70.8455C255.291 70.2731 254.564 69.9869 253.636 69.9869C252.677 69.9869 251.934 70.2886 251.408 70.8919C250.913 71.4334 250.65 72.1219 250.619 72.9573H249.645C249.66 71.8589 250.039 70.9306 250.782 70.1725C251.509 69.4299 252.46 69.0586 253.636 69.0586C254.874 69.0586 255.856 69.4299 256.583 70.1725C257.31 70.9151 257.674 71.8357 257.674 72.9341C257.674 73.7076 257.481 74.4425 257.094 75.1387C256.707 75.8194 256.088 76.3299 255.237 76.6703C256.057 76.9333 256.699 77.4052 257.163 78.0859C257.643 78.7666 257.883 79.5556 257.883 80.4529C257.883 81.737 257.442 82.82 256.56 83.7018C255.678 84.5682 254.603 85.0014 253.334 85.0014C252.607 85.0014 251.903 84.8234 251.223 84.4676C250.542 84.1118 250.008 83.6167 249.621 82.9824C249.25 82.3791 249.064 81.7138 249.064 80.9867Z" fill="#272727"></path><path d="M298.915 84.7461V70.1958H296.501L296.966 69.2675H299.936V84.7461H298.915ZM314.947 68.757V80.8706H317.105V81.7989H314.947V84.7461H313.926V81.7989H305.595L314.947 68.757ZM307.405 80.8706H313.926V71.7738L307.405 80.8706Z" fill="#272727"></path><path d="M356.931 84.7461V70.1958H354.517L354.981 69.2675H357.952V84.7461H356.931ZM374.239 69.2675V70.1958H369.041L367.741 74.3729C368.113 74.2801 368.461 74.2336 368.786 74.2336C370.41 74.2336 371.71 74.7365 372.684 75.7421C373.674 76.7477 374.169 78.0317 374.169 79.5943C374.169 81.2187 373.636 82.526 372.568 83.5162C371.516 84.5063 370.217 85.0014 368.669 85.0014C366.565 85.0014 365.018 84.1505 364.028 82.4487L364.933 82.0774C365.831 83.4079 367.084 84.0731 368.693 84.0731C369.977 84.0731 371.029 83.6554 371.849 82.82C372.684 81.9845 373.102 80.9171 373.102 79.6175C373.102 78.3025 372.692 77.235 371.872 76.415C371.067 75.5796 370.023 75.1619 368.739 75.1619C367.857 75.1619 367.053 75.3862 366.326 75.8349L368.321 69.2675H374.239Z" fill="#272727"></path></svg> 