<?xml version="1.0" encoding="UTF-8"?> <svg xmlns="http://www.w3.org/2000/svg" width="219" height="106" viewBox="0 0 219 106" fill="none"><path d="M54.4541 38.7704C54.4541 39.4051 54.5661 40.0397 54.7901 40.6744C55.0141 41.3091 55.6674 41.7757 56.7501 42.0744C56.7501 40.6931 57.0114 39.2371 57.5341 37.7064C58.0941 36.1757 58.8221 34.7757 59.7181 33.5064C60.6514 32.1997 61.7341 31.1357 62.9661 30.3144C64.1981 29.4557 65.5421 29.0264 66.9981 29.0264C68.1554 29.0264 69.1261 29.3437 69.9101 29.9784C70.6941 30.6131 71.0861 31.5651 71.0861 32.8344C71.0861 34.1411 70.7501 35.3917 70.0781 36.5864C69.4434 37.7811 68.5661 38.8451 67.4461 39.7784C66.3261 40.6744 65.0194 41.4024 63.5261 41.9624C62.0701 42.5224 60.5394 42.8024 58.9341 42.8024C58.5981 42.8024 58.2807 42.7837 57.9821 42.7464C57.7207 42.7464 57.4407 42.7277 57.1421 42.6904V43.6984L56.8061 43.7544C56.7687 43.6424 56.7501 43.4744 56.7501 43.2504C56.7501 43.0637 56.7501 42.8584 56.7501 42.6344C53.3527 42.1864 51.6541 40.4877 51.6541 37.5384C51.6541 36.2317 51.9154 34.8504 52.4381 33.3944C52.9981 31.9384 53.7074 30.5011 54.5661 29.0824C54.0061 29.1197 53.4647 29.1571 52.9421 29.1944C52.4194 29.1944 51.9154 29.1944 51.4301 29.1944H50.1421C48.6487 31.0237 47.1927 32.8531 45.7741 34.6824C44.3927 36.5117 43.0114 38.3224 41.6301 40.1144C41.2567 40.5997 40.8461 40.9731 40.3981 41.2344C39.9874 41.5331 39.5021 41.6824 38.9421 41.6824C38.5687 41.6824 38.1954 41.5517 37.8221 41.2904C37.4487 41.0664 37.2621 40.7491 37.2621 40.3384C37.2621 39.7784 37.4301 39.0877 37.7661 38.2664C38.1021 37.4451 38.4941 36.6237 38.9421 35.8024C39.4274 34.9437 39.9314 34.1224 40.4541 33.3384C40.9767 32.5544 41.4247 31.9011 41.7981 31.3784C42.0967 30.9304 42.4141 30.4824 42.7501 30.0344C43.1234 29.5491 43.4781 29.0824 43.8141 28.6344C43.0301 28.4851 42.2461 28.3171 41.4621 28.1304C40.7154 27.9437 39.9874 27.7197 39.2781 27.4584C38.4941 28.3171 37.7101 29.1757 36.9261 30.0344C36.1421 30.8557 35.3394 31.6584 34.5181 32.4424C32.8381 34.1224 31.2141 35.6531 29.6461 37.0344C28.0781 38.4157 26.4727 39.6104 24.8301 40.6184C23.1874 41.5891 21.4514 42.3544 19.6221 42.9144C17.7927 43.4744 15.7581 43.7544 13.5181 43.7544C11.6141 43.7544 9.87806 43.5304 8.31006 43.0824C6.7794 42.6717 5.45406 42.0557 4.33406 41.2344C3.21406 40.4131 2.3554 39.4051 1.75806 38.2104C1.16073 37.0157 0.862063 35.6531 0.862063 34.1224C0.862063 31.9197 1.38473 29.9224 2.43006 28.1304C3.4754 26.3384 4.80073 24.8264 6.40606 23.5944C8.04873 22.3251 9.84073 21.3544 11.7821 20.6824C13.7234 20.0104 15.6087 19.6744 17.4381 19.6744C18.6701 19.6744 19.8274 19.8424 20.9101 20.1784C22.0301 20.5144 23.0007 20.9997 23.8221 21.6344C24.6434 22.2317 25.2967 22.9784 25.7821 23.8744C26.2674 24.7704 26.5101 25.7784 26.5101 26.8984C26.5101 28.2051 26.2114 29.4744 25.6141 30.7064C25.0541 31.9011 24.2514 32.9837 23.2061 33.9544C22.1981 34.8877 20.9661 35.6531 19.5101 36.2504C18.0914 36.8104 16.5421 37.0904 14.8621 37.0904C14.2274 37.0904 13.5741 37.0344 12.9021 36.9224C12.2674 36.7731 11.6701 36.5304 11.1101 36.1944C10.5501 35.8584 10.0647 35.4291 9.65406 34.9064C9.2434 34.3464 8.94473 33.6744 8.75806 32.8904L9.15006 32.7784C9.59806 34.1971 10.3261 35.1864 11.3341 35.7464C12.3421 36.3064 13.5554 36.5864 14.9741 36.5864C16.4301 36.5864 17.8114 36.3251 19.1181 35.8024C20.4247 35.2797 21.5634 34.5891 22.5341 33.7304C23.5047 32.8717 24.2701 31.8637 24.8301 30.7064C25.3901 29.5491 25.6701 28.3171 25.6701 27.0104C25.6701 25.7411 25.4274 24.6771 24.9421 23.8184C24.4941 22.9597 23.8781 22.2691 23.0941 21.7464C22.3101 21.2237 21.4141 20.8504 20.4061 20.6264C19.3981 20.4024 18.3527 20.2904 17.2701 20.2904C15.2541 20.2904 13.3501 20.6637 11.5581 21.4104C9.76606 22.1197 8.1794 23.1091 6.79806 24.3784C5.45406 25.6477 4.3714 27.1597 3.55006 28.9144C2.76606 30.6317 2.37406 32.5171 2.37406 34.5704C2.37406 35.8024 2.59806 36.9411 3.04606 37.9864C3.49406 39.0317 4.16606 39.9464 5.06206 40.7304C5.9954 41.5144 7.1714 42.1304 8.59006 42.5784C10.0461 43.0264 11.7821 43.2504 13.7981 43.2504C15.7394 43.2504 17.5687 42.9704 19.2861 42.4104C21.0407 41.8504 22.7207 41.0664 24.3261 40.0584C25.9314 39.0504 27.5181 37.8557 29.0861 36.4744C30.6914 35.0931 32.3341 33.5811 34.0141 31.9384C34.7607 31.1917 35.5074 30.4264 36.2541 29.6424C37.0007 28.8211 37.7474 27.9997 38.4941 27.1784C36.8141 26.4691 35.4514 25.5357 34.4061 24.3784C33.3981 23.2211 32.8941 21.7464 32.8941 19.9544C32.8941 18.0131 33.4167 16.4077 34.4621 15.1384C35.5447 13.8317 36.9074 12.8051 38.5501 12.0584C40.1927 11.2744 42.0034 10.7331 43.9821 10.4344C45.9607 10.0984 47.8647 9.9304 49.6941 9.9304C51.1874 9.9304 52.7741 9.9864 54.4541 10.0984C55.2007 9.38907 55.9661 8.73574 56.7501 8.13841C57.5341 7.50374 58.2994 6.92507 59.0461 6.40241C59.4194 6.14107 59.8114 5.91707 60.2221 5.7304C60.6327 5.54374 61.0434 5.4504 61.4541 5.4504C62.1634 5.4504 62.7234 5.59974 63.1341 5.89841C63.5821 6.15974 63.8061 6.58907 63.8061 7.18641C63.8061 7.59707 63.6194 8.06374 63.2461 8.5864C62.9474 9.07174 62.6674 9.4824 62.4061 9.8184C62.1821 10.1544 61.9207 10.4904 61.6221 10.8264L66.4941 11.4984C67.5394 10.6771 68.6407 9.89307 69.7981 9.1464C70.9554 8.39974 72.1127 7.7464 73.2701 7.18641C74.4274 6.58907 75.5661 6.1224 76.6861 5.7864C77.8434 5.41307 78.9261 5.2264 79.9341 5.2264C83.0327 3.6584 86.1874 2.40774 89.3981 1.47441C92.6087 0.541071 95.8381 0.0744033 99.0861 0.0744033C99.8327 0.0744033 100.841 0.14907 102.11 0.298404C103.417 0.447737 104.705 0.765071 105.974 1.2504C107.243 1.73574 108.326 2.44507 109.222 3.3784C110.155 4.2744 110.622 5.48774 110.622 7.0184C110.622 8.51174 110.025 9.79974 108.83 10.8824C107.635 11.9651 106.067 12.8611 104.126 13.5704C102.222 14.2797 100.075 14.8211 97.6861 15.1944C95.2967 15.5304 92.9261 15.6984 90.5741 15.6984C89.9394 15.6984 89.3047 15.6984 88.6701 15.6984C88.0727 15.6984 87.4754 15.6797 86.8781 15.6424C85.9074 17.4344 84.3394 19.0584 82.1741 20.5144C80.0461 21.9704 77.6194 23.2584 74.8941 24.3784C72.2061 25.4611 69.3501 26.3757 66.3261 27.1224C63.3394 27.8691 60.5021 28.4104 57.8141 28.7464C56.7687 30.6131 55.9474 32.4051 55.3501 34.1224C54.7527 35.8024 54.4541 37.3517 54.4541 38.7704ZM99.1421 0.634403C96.1181 0.634403 93.0941 1.06374 90.0701 1.9224C87.0461 2.78107 84.1527 3.91974 81.3901 5.33841C83.5181 5.5624 85.1234 6.2904 86.2061 7.5224C87.3261 8.71707 87.8861 10.1357 87.8861 11.7784C87.8861 12.5251 87.7741 13.2531 87.5501 13.9624H88.9501C91.1901 13.9624 93.5421 13.8691 96.0061 13.6824C98.4701 13.4584 100.729 13.0851 102.782 12.5624C104.873 12.0397 106.59 11.3117 107.934 10.3784C109.278 9.44507 109.95 8.2504 109.95 6.7944C109.95 5.48774 109.521 4.4424 108.662 3.6584C107.841 2.83707 106.851 2.2024 105.694 1.75441C104.537 1.3064 103.342 1.00774 102.11 0.858403C100.878 0.70907 99.8887 0.634403 99.1421 0.634403ZM68.6221 14.5784C66.6061 16.7064 64.6834 18.9277 62.8541 21.2424C61.0247 23.5571 59.4567 25.8717 58.1501 28.1864C60.6887 27.8504 63.3954 27.3277 66.2701 26.6184C69.1447 25.9091 71.8887 25.0317 74.5021 23.9864C77.1527 22.9411 79.5047 21.7277 81.5581 20.3464C83.6487 18.9277 85.1794 17.3411 86.1501 15.5864C83.2007 15.3997 80.3821 15.1011 77.6941 14.6904C75.0434 14.2797 72.4487 13.8317 69.9101 13.3464L68.6221 14.5784ZM42.2461 22.9224C43.9634 21.0184 45.8114 18.9837 47.7901 16.8184C49.7687 14.6157 51.7847 12.5624 53.8381 10.6584C53.0914 10.5837 52.3634 10.5277 51.6541 10.4904C50.9821 10.4531 50.2727 10.4344 49.5261 10.4344C47.4354 10.4344 45.4194 10.6211 43.4781 10.9944C41.5741 11.3304 39.8754 11.8904 38.3821 12.6744C36.9261 13.4211 35.7501 14.4104 34.8541 15.6424C33.9581 16.8371 33.5101 18.3117 33.5101 20.0664C33.5101 21.6717 33.9954 23.0157 34.9661 24.0984C35.9367 25.1811 37.2434 26.0584 38.8861 26.7304C39.4461 26.0957 39.9874 25.4611 40.5101 24.8264C41.0701 24.1917 41.6487 23.5571 42.2461 22.9224ZM66.9981 29.4744C65.6914 29.4744 64.4407 29.8664 63.2461 30.6504C62.0514 31.3971 61.0061 32.3864 60.1101 33.6184C59.2141 34.8504 58.5047 36.2317 57.9821 37.7624C57.4594 39.2557 57.1794 40.7304 57.1421 42.1864C57.5901 42.2984 58.1687 42.3544 58.8781 42.3544C60.3341 42.3544 61.7341 42.0184 63.0781 41.3464C64.4221 40.7117 65.5981 39.9091 66.6061 38.9384C67.6514 37.9677 68.4914 36.9224 69.1261 35.8024C69.7607 34.6824 70.0781 33.6371 70.0781 32.6664C70.0781 30.5384 69.0514 29.4744 66.9981 29.4744ZM80.4941 5.7864C76.9847 7.65307 73.8861 9.7624 71.1981 12.1144C74.1101 12.5251 76.8914 12.9171 79.5421 13.2904C82.1927 13.6264 84.6381 13.8317 86.8781 13.9064C87.1021 13.2344 87.2141 12.5064 87.2141 11.7224C87.2141 10.1917 86.6541 8.84774 85.5341 7.69041C84.4514 6.49574 82.7714 5.86107 80.4941 5.7864ZM54.9021 10.7144C52.2141 13.1784 49.6194 15.8291 47.1181 18.6664C44.6541 21.4664 42.1527 24.2664 39.6141 27.0664C40.3234 27.3277 41.0514 27.5517 41.7981 27.7384C42.5447 27.8877 43.3287 28.0371 44.1501 28.1864C46.3154 25.3491 48.6114 22.5117 51.0381 19.6744C53.4647 16.7997 55.8541 13.9624 58.2061 11.1624C57.6461 11.0877 57.0861 11.0131 56.5261 10.9384C56.0034 10.8637 55.4621 10.7891 54.9021 10.7144ZM49.7501 28.6904C52.0647 25.8531 54.3981 23.1464 56.7501 20.5704C59.1394 17.9944 61.6781 15.5491 64.3661 13.2344C64.5154 13.0851 64.6647 12.9544 64.8141 12.8424C64.9634 12.7304 65.1314 12.5997 65.3181 12.4504L60.9501 11.6104C60.5394 12.1331 59.9981 12.7864 59.3261 13.5704C58.6914 14.3171 57.8514 15.3251 56.8061 16.5944C55.7607 17.8637 54.4541 19.4691 52.8861 21.4104C51.3181 23.3144 49.4141 25.6851 47.1741 28.5224L49.7501 28.6904ZM65.4861 13.1784C62.6861 15.4184 60.0541 17.8637 57.5901 20.5144C55.1634 23.1651 52.8114 25.8904 50.5341 28.6904H51.5421C52.0274 28.6904 52.5501 28.6904 53.1101 28.6904C53.6701 28.6904 54.2487 28.6531 54.8461 28.5784C55.7047 27.1597 56.6007 25.8157 57.5341 24.5464C58.5047 23.2771 59.4194 22.1384 60.2781 21.1304C61.4727 19.7117 62.7234 18.3304 64.0301 16.9864C65.3741 15.6424 66.8114 14.3171 68.3421 13.0104L66.2141 12.6184C66.0647 12.6931 65.9341 12.7864 65.8221 12.8984C65.7101 13.0104 65.5981 13.1037 65.4861 13.1784ZM46.8381 29.0264C46.4274 29.5491 45.9981 30.0904 45.5501 30.6504C45.1394 31.1731 44.7101 31.7144 44.2621 32.2744C43.6647 33.0211 43.0674 33.8424 42.4701 34.7384C41.8727 35.5971 41.3314 36.4184 40.8461 37.2024C40.3607 37.9864 39.9687 38.6957 39.6701 39.3304C39.3714 39.9277 39.2221 40.3571 39.2221 40.6184C39.2221 40.7677 39.3154 40.8424 39.5021 40.8424C39.9874 40.8424 40.5101 40.4691 41.0701 39.7224C41.4434 39.2744 41.7981 38.8264 42.1341 38.3784C42.4701 37.9304 42.8061 37.4824 43.1421 37.0344C44.1874 35.6904 45.2141 34.3651 46.2221 33.0584C47.2674 31.7517 48.3127 30.4637 49.3581 29.1944L46.8381 29.0264ZM69.7421 11.9464C72.5421 9.7064 75.5287 7.70907 78.7021 5.9544C77.8061 6.10374 76.8541 6.38374 75.8461 6.7944C74.8754 7.16774 73.9047 7.61574 72.9341 8.13841C71.9634 8.66107 71.0114 9.23974 70.0781 9.8744C69.1821 10.4717 68.3421 11.0504 67.5581 11.6104L69.7421 11.9464ZM55.4621 10.2104C55.9847 10.2477 56.5261 10.2851 57.0861 10.3224C57.6461 10.3597 58.2061 10.4157 58.7661 10.4904L60.9501 7.8584C61.3981 7.2984 61.6221 6.8504 61.6221 6.5144C61.6221 6.32774 61.4914 6.2344 61.2301 6.2344C60.7821 6.2344 60.1847 6.49574 59.4381 7.0184C58.7661 7.54107 58.0941 8.06374 57.4221 8.5864C56.7501 9.10907 56.0967 9.6504 55.4621 10.2104ZM87.8611 41.2904C87.2265 41.2904 86.6851 41.1597 86.2371 40.8984C85.7891 40.5997 85.5651 40.1517 85.5651 39.5544C85.5651 39.2184 85.6398 38.8451 85.7891 38.4344C85.9385 38.0237 86.1251 37.6131 86.3491 37.2024C86.5731 36.7544 86.8158 36.3251 87.0771 35.9144C87.3385 35.5037 87.5811 35.1491 87.8051 34.8504L87.7491 34.7944C87.0025 35.5411 86.2185 36.3064 85.3971 37.0904C84.5758 37.8744 83.6798 38.5837 82.7091 39.2184C81.7758 39.8531 80.7678 40.3944 79.6851 40.8424C78.6398 41.2531 77.5385 41.4584 76.3811 41.4584C74.9251 41.4584 73.8985 41.1784 73.3011 40.6184C72.7411 40.0584 72.4611 39.3864 72.4611 38.6024C72.4611 38.1171 72.6665 37.4637 73.0771 36.6424C73.4878 35.8211 73.9731 34.9997 74.5331 34.1784C75.0931 33.3197 75.6531 32.5171 76.2131 31.7704C76.7731 31.0237 77.2025 30.4451 77.5011 30.0344C77.7251 29.7357 77.9491 29.5117 78.1731 29.3624C78.4345 29.1757 78.8078 29.0824 79.2931 29.0824H80.1891C80.4878 29.0824 80.6371 29.1944 80.6371 29.4184C80.6371 29.4557 80.6185 29.5117 80.5811 29.5864C80.5811 29.6237 80.5438 29.7171 80.4691 29.8664C78.6771 32.5544 77.2771 34.6264 76.2691 36.0824C75.2985 37.5384 74.8131 38.6957 74.8131 39.5544C74.8131 40.4131 75.2798 40.8424 76.2131 40.8424C76.8478 40.8424 77.5011 40.6931 78.1731 40.3944C78.8451 40.0957 79.4425 39.7037 79.9651 39.2184C80.5251 38.6957 80.9731 38.1171 81.3091 37.4824C81.6451 36.8477 81.8131 36.1944 81.8131 35.5224C81.8131 35.0744 81.7198 34.6637 81.5331 34.2904C81.3465 33.9171 80.7118 33.7117 79.6291 33.6744L79.6851 33.1144C80.1331 33.0397 80.6371 33.0024 81.1971 33.0024C81.7571 33.0024 82.2798 33.0771 82.7651 33.2264C83.2505 33.3757 83.6425 33.6371 83.9411 34.0104C84.2771 34.3464 84.4451 34.8131 84.4451 35.4104C84.4451 35.7091 84.3891 36.0824 84.2771 36.5304C84.1651 36.9411 83.9785 37.3517 83.7171 37.7624L83.7731 37.8184C84.5571 37.1837 85.3225 36.4931 86.0691 35.7464C86.8158 34.9997 87.4878 34.3091 88.0851 33.6744C88.7198 33.0024 89.2425 32.4237 89.6531 31.9384C90.0638 31.4531 90.3251 31.1357 90.4371 30.9864C90.6611 30.6877 90.8851 30.4637 91.1091 30.3144C91.3705 30.1277 91.7438 30.0344 92.2291 30.0344H93.2371C93.5358 30.0344 93.6851 30.1464 93.6851 30.3704C93.6851 30.4077 93.6665 30.4637 93.6291 30.5384C93.6291 30.5757 93.5918 30.6691 93.5171 30.8184C93.0691 31.4904 92.5465 32.2557 91.9491 33.1144C91.3518 33.9731 90.7731 34.8317 90.2131 35.6904C89.6905 36.5117 89.2425 37.2957 88.8691 38.0424C88.4958 38.7517 88.3091 39.2931 88.3091 39.6664C88.3091 40.0771 88.5518 40.2824 89.0371 40.2824C90.0078 40.2824 90.9411 39.8717 91.8371 39.0504C92.7331 38.1917 93.9465 36.8664 95.4771 35.0744L95.8691 35.3544C95.2718 36.0637 94.6745 36.7731 94.0771 37.4824C93.5171 38.1917 92.9198 38.8264 92.2851 39.3864C91.6505 39.9464 90.9785 40.4131 90.2691 40.7864C89.5598 41.1224 88.7571 41.2904 87.8611 41.2904ZM118.577 34.6824C117.942 35.4291 117.214 36.2131 116.393 37.0344C115.609 37.8184 114.769 38.5464 113.873 39.2184C112.977 39.8531 112.006 40.3757 110.961 40.7864C109.953 41.1971 108.908 41.4024 107.825 41.4024C106.518 41.4024 105.604 41.1224 105.081 40.5624C104.596 40.0024 104.353 39.3491 104.353 38.6024C104.353 37.7064 104.614 36.7544 105.137 35.7464C105.66 34.7011 106.35 33.7491 107.209 32.8904C108.105 32.0317 109.113 31.3224 110.233 30.7624C111.39 30.1651 112.566 29.8664 113.761 29.8664C114.806 29.8664 115.609 30.0904 116.169 30.5384C116.766 30.9491 117.065 31.4904 117.065 32.1624C117.065 32.5731 116.916 32.9651 116.617 33.3384C116.318 33.7117 115.926 33.8984 115.441 33.8984C115.03 33.8984 114.713 33.8051 114.489 33.6184C114.302 33.4317 114.209 33.2264 114.209 33.0024C114.209 32.7411 114.284 32.5171 114.433 32.3304C114.62 32.1064 114.713 31.8451 114.713 31.5464C114.713 31.2851 114.62 31.0611 114.433 30.8744C114.284 30.6504 114.041 30.5384 113.705 30.5384C112.996 30.6131 112.249 30.9677 111.465 31.6024C110.681 32.1997 109.953 32.9277 109.281 33.7864C108.646 34.6451 108.105 35.5597 107.657 36.5304C107.246 37.4637 107.041 38.2851 107.041 38.9944C107.041 39.3304 107.153 39.6851 107.377 40.0584C107.601 40.3944 108.124 40.5624 108.945 40.5624C110.513 40.5624 112.044 39.9837 113.537 38.8264C115.068 37.6691 116.617 36.1944 118.185 34.4024L118.577 34.6824ZM128.706 41.2904C127.324 41.2904 126.634 40.7117 126.634 39.5544C126.634 39.1437 126.69 38.6771 126.802 38.1544C126.951 37.6317 127.026 37.1837 127.026 36.8104C127.026 36.2504 126.876 35.8211 126.578 35.5224C126.316 35.2237 125.812 35.0557 125.066 35.0184L121.93 39.8904C121.556 40.4504 121.258 40.7864 121.034 40.8984C120.81 41.0104 120.548 41.0664 120.25 41.0664H118.794C118.532 41.0664 118.402 40.9544 118.402 40.7304C118.402 40.6184 118.458 40.4691 118.57 40.2824C118.98 39.7224 119.335 39.2184 119.634 38.7704C119.932 38.3224 120.194 37.9117 120.418 37.5384C120.679 37.1651 120.922 36.8104 121.146 36.4744C121.37 36.1011 121.631 35.7091 121.93 35.2984C122.34 34.7011 122.77 34.0104 123.218 33.2264C123.666 32.4051 123.89 31.7891 123.89 31.3784C123.89 30.9677 123.684 30.7624 123.274 30.7624C122.938 30.7624 122.546 30.9117 122.098 31.2104C121.687 31.4717 121.239 31.8451 120.754 32.3304C120.268 32.8157 119.746 33.3571 119.186 33.9544C118.663 34.5517 118.14 35.1491 117.618 35.7464L117.17 35.5224C117.842 34.7757 118.476 34.0664 119.074 33.3944C119.708 32.6851 120.324 32.0691 120.922 31.5464C121.519 30.9864 122.116 30.5571 122.714 30.2584C123.311 29.9224 123.89 29.7544 124.45 29.7544C125.234 29.7544 125.775 29.9037 126.074 30.2024C126.41 30.5011 126.578 30.8744 126.578 31.3224C126.578 31.7331 126.484 32.1624 126.298 32.6104C126.148 33.0584 125.98 33.4504 125.794 33.7864C127.212 32.4797 128.519 31.4717 129.714 30.7624C130.946 30.0531 131.916 29.6984 132.626 29.6984C133.335 29.6984 133.69 30.0531 133.69 30.7624C133.69 31.2851 133.484 31.9944 133.074 32.8904L132.514 32.7784C132.514 31.9197 132.103 31.4904 131.282 31.4904C130.722 31.4904 129.994 31.7144 129.098 32.1624C128.202 32.5731 127.1 33.3011 125.794 34.3464V34.4024C126.018 34.3651 126.223 34.3464 126.41 34.3464C126.634 34.3091 126.839 34.2904 127.026 34.2904C128.818 34.2904 129.714 35.1117 129.714 36.7544C129.714 37.1651 129.658 37.6317 129.546 38.1544C129.471 38.6397 129.434 39.0317 129.434 39.3304C129.434 39.9651 129.695 40.2824 130.218 40.2824C130.703 40.2824 131.151 40.1891 131.562 40.0024C131.972 39.8157 132.402 39.5357 132.85 39.1624C133.335 38.7517 133.839 38.2291 134.362 37.5944C134.922 36.9597 135.594 36.1944 136.378 35.2984L136.77 35.5784C136.172 36.2877 135.575 36.9784 134.978 37.6504C134.418 38.3224 133.82 38.9384 133.186 39.4984C132.551 40.0211 131.86 40.4504 131.114 40.7864C130.404 41.1224 129.602 41.2904 128.706 41.2904ZM145.497 30.4824C144.676 30.4824 143.836 30.8184 142.977 31.4904C142.118 32.1624 141.316 32.9651 140.569 33.8984C139.86 34.7944 139.262 35.7464 138.777 36.7544C138.329 37.7624 138.105 38.6024 138.105 39.2744C138.105 39.5357 138.161 39.8344 138.273 40.1704C138.385 40.4691 138.74 40.6184 139.337 40.6184C139.822 40.6184 140.326 40.4504 140.849 40.1144C141.409 39.7784 141.969 39.3491 142.529 38.8264C143.089 38.3037 143.612 37.7251 144.097 37.0904C144.62 36.4557 145.105 35.8211 145.553 35.1864C145.964 34.5891 146.318 33.9917 146.617 33.3944C146.953 32.7971 147.121 32.2931 147.121 31.8824C147.121 31.3597 146.953 31.0051 146.617 30.8184C146.281 30.5944 145.908 30.4824 145.497 30.4824ZM148.633 31.0424C148.857 30.7437 149.081 30.5011 149.305 30.3144C149.529 30.1277 149.865 30.0344 150.313 30.0344H151.377C151.676 30.0344 151.825 30.1464 151.825 30.3704C151.825 30.4077 151.806 30.4637 151.769 30.5384C151.769 30.5757 151.732 30.6691 151.657 30.8184C151.321 31.3411 150.854 32.0131 150.257 32.8344C149.66 33.6557 149.081 34.5144 148.521 35.4104C147.961 36.2691 147.457 37.0904 147.009 37.8744C146.598 38.6211 146.393 39.1997 146.393 39.6104C146.393 40.0584 146.598 40.2824 147.009 40.2824C147.98 40.2824 148.913 39.8717 149.809 39.0504C150.705 38.1917 151.918 36.8664 153.449 35.0744L153.841 35.3544C153.244 36.0637 152.646 36.7731 152.049 37.4824C151.489 38.1917 150.892 38.8264 150.257 39.3864C149.622 39.9464 148.95 40.4131 148.241 40.7864C147.532 41.1224 146.729 41.2904 145.833 41.2904C145.198 41.2904 144.657 41.1784 144.209 40.9544C143.761 40.6931 143.537 40.2637 143.537 39.6664C143.537 39.4797 143.574 39.2557 143.649 38.9944C143.761 38.6957 143.929 38.3784 144.153 38.0424V37.9864C143.182 39.0691 142.23 39.9091 141.297 40.5064C140.401 41.0664 139.393 41.3464 138.273 41.3464C137.153 41.3464 136.388 41.1037 135.977 40.6184C135.604 40.1331 135.417 39.5917 135.417 38.9944C135.417 37.9864 135.697 36.9411 136.257 35.8584C136.854 34.7757 137.62 33.7864 138.553 32.8904C139.486 31.9944 140.532 31.2664 141.689 30.7064C142.846 30.1464 144.004 29.8664 145.161 29.8664C146.094 29.8664 146.804 30.0344 147.289 30.3704C147.774 30.6691 148.129 31.0237 148.353 31.4344L148.633 31.0424ZM169.062 31.2664C169.286 30.9304 169.566 30.6131 169.902 30.3144C170.275 30.0157 170.761 29.8664 171.358 29.8664H171.806C172.217 29.8664 172.422 29.9971 172.422 30.2584C172.422 30.3704 172.366 30.5011 172.254 30.6504L168.726 36.4744C169.174 36.0264 169.827 35.4291 170.686 34.6824C171.582 33.8984 172.553 33.1517 173.598 32.4424C174.681 31.7331 175.782 31.1171 176.902 30.5944C178.059 30.0717 179.142 29.8104 180.15 29.8104C181.121 29.8104 181.83 30.0157 182.278 30.4264C182.763 30.7997 183.006 31.2664 183.006 31.8264C183.006 32.2744 182.857 32.6664 182.558 33.0024C182.259 33.3384 181.905 33.5064 181.494 33.5064C181.121 33.5064 180.822 33.4131 180.598 33.2264C180.411 33.0397 180.318 32.8344 180.318 32.6104C180.318 32.3864 180.411 32.1997 180.598 32.0504C180.785 31.8637 180.878 31.6211 180.878 31.3224C180.878 30.7624 180.579 30.4824 179.982 30.4824C179.31 30.4824 178.601 30.7811 177.854 31.3784C177.107 31.9384 176.417 32.6664 175.782 33.5624C175.185 34.4211 174.681 35.3544 174.27 36.3624C173.859 37.3331 173.654 38.2291 173.654 39.0504C173.654 39.3491 173.71 39.6477 173.822 39.9464C173.971 40.2451 174.289 40.3944 174.774 40.3944C176.081 40.3944 177.462 39.9091 178.918 38.9384C180.411 37.9304 181.867 36.5491 183.286 34.7944L183.79 34.9624C183.155 35.7464 182.465 36.5117 181.718 37.2584C180.971 38.0051 180.169 38.6771 179.31 39.2744C178.451 39.8717 177.537 40.3571 176.566 40.7304C175.595 41.1037 174.569 41.2904 173.486 41.2904C172.59 41.2904 171.937 41.1037 171.526 40.7304C171.153 40.3571 170.966 39.8717 170.966 39.2744C170.966 38.3037 171.339 37.1837 172.086 35.9144C172.833 34.6077 173.747 33.4317 174.83 32.3864C173.411 33.2451 172.03 34.2717 170.686 35.4664C169.342 36.6237 168.147 37.7997 167.102 38.9944L166.654 39.6664C166.355 40.1517 166.038 40.5064 165.702 40.7304C165.403 40.9544 164.937 41.0664 164.302 41.0664H163.798C163.387 41.0664 163.182 40.9171 163.182 40.6184C163.182 40.5437 163.219 40.4317 163.294 40.2824L167.27 34.2904C166.822 34.8131 166.131 35.4664 165.198 36.2504C164.302 37.0344 163.294 37.7997 162.174 38.5464C161.091 39.2557 159.953 39.8904 158.758 40.4504C157.601 40.9731 156.537 41.2344 155.566 41.2344C154.595 41.2344 153.867 41.0477 153.382 40.6744C152.934 40.2637 152.71 39.7784 152.71 39.2184C152.71 38.7704 152.859 38.3784 153.158 38.0424C153.457 37.7064 153.811 37.5384 154.222 37.5384C154.595 37.5384 154.875 37.6317 155.062 37.8184C155.286 38.0051 155.398 38.2104 155.398 38.4344C155.398 38.6584 155.305 38.8637 155.118 39.0504C154.931 39.1997 154.838 39.4237 154.838 39.7224C154.838 40.2824 155.137 40.5624 155.734 40.5624C156.369 40.5624 157.059 40.2824 157.806 39.7224C158.553 39.1251 159.243 38.3971 159.878 37.5384C160.55 36.6797 161.091 35.7651 161.502 34.7944C161.95 33.8237 162.174 32.9277 162.174 32.1064C162.174 31.6584 162.043 31.2851 161.782 30.9864C161.521 30.6877 161.054 30.5384 160.382 30.5384C159.449 30.5384 158.31 31.0984 156.966 32.2184C155.659 33.3384 154.297 34.7384 152.878 36.4184L152.43 36.1944C153.102 35.3731 153.793 34.5704 154.502 33.7864C155.249 32.9651 155.995 32.2371 156.742 31.6024C157.526 30.9677 158.31 30.4637 159.094 30.0904C159.878 29.6797 160.681 29.4744 161.502 29.4744C162.547 29.4744 163.35 29.6984 163.91 30.1464C164.47 30.5944 164.75 31.1917 164.75 31.9384C164.75 32.9464 164.395 34.0664 163.686 35.2984C162.977 36.4931 162.081 37.5757 160.998 38.5464C162.641 37.5384 164.059 36.5304 165.254 35.5224C166.449 34.4771 167.531 33.3011 168.502 31.9944L169.062 31.2664ZM185.039 36.6424C186.271 36.4184 187.279 36.1011 188.063 35.6904C188.847 35.2797 189.463 34.8504 189.911 34.4024C190.359 33.9171 190.657 33.4504 190.807 33.0024C190.993 32.5171 191.087 32.0877 191.087 31.7144C191.087 31.3037 190.993 31.0424 190.807 30.9304C190.62 30.7811 190.396 30.7064 190.135 30.7064C189.313 30.7064 188.455 31.2851 187.559 32.4424C186.663 33.5624 185.823 34.9624 185.039 36.6424ZM186.327 40.5624C186.7 40.5624 187.111 40.5251 187.559 40.4504C188.044 40.3757 188.623 40.1517 189.295 39.7784C189.967 39.4051 190.732 38.8264 191.591 38.0424C192.487 37.2584 193.551 36.1571 194.783 34.7384L195.175 35.0184C193.943 36.4744 192.841 37.6317 191.871 38.4904C190.937 39.3117 190.079 39.9464 189.295 40.3944C188.511 40.8051 187.783 41.0664 187.111 41.1784C186.476 41.3277 185.841 41.4024 185.207 41.4024C183.825 41.4024 182.911 41.1037 182.463 40.5064C182.015 39.8717 181.791 39.2371 181.791 38.6024C181.791 37.5944 182.033 36.5864 182.519 35.5784C183.041 34.5331 183.713 33.5997 184.535 32.7784C185.393 31.9197 186.345 31.2291 187.391 30.7064C188.436 30.1464 189.519 29.8664 190.639 29.8664C191.759 29.8664 192.487 30.0904 192.823 30.5384C193.159 30.9491 193.327 31.3597 193.327 31.7704C193.327 32.5544 193.047 33.2637 192.487 33.8984C191.964 34.4957 191.292 35.0184 190.471 35.4664C189.649 35.8771 188.735 36.2317 187.727 36.5304C186.719 36.7917 185.767 36.9971 184.871 37.1464C184.759 37.3704 184.665 37.6691 184.591 38.0424C184.516 38.3784 184.479 38.6957 184.479 38.9944C184.479 39.5171 184.647 39.9091 184.983 40.1704C185.356 40.4317 185.804 40.5624 186.327 40.5624ZM210.915 41.2904C210.28 41.2904 209.739 41.1597 209.291 40.8984C208.88 40.5997 208.675 40.1517 208.675 39.5544C208.675 38.9944 208.843 38.3411 209.179 37.5944C209.552 36.8104 209.982 36.0451 210.467 35.2984C210.952 34.5144 211.438 33.8051 211.923 33.1704C212.408 32.4984 212.8 31.9944 213.099 31.6584L213.043 31.6024C212.52 31.7891 211.96 32.2744 211.363 33.0584C210.803 33.8424 210.187 34.6637 209.515 35.5224C208.992 36.1944 208.488 36.8664 208.003 37.5384C207.555 38.1731 207.07 38.7517 206.547 39.2744C206.024 39.7971 205.464 40.2264 204.867 40.5624C204.307 40.8984 203.691 41.0664 203.019 41.0664C201.787 41.0664 201.171 40.5811 201.171 39.6104C201.171 39.1997 201.376 38.6211 201.787 37.8744C202.198 37.0904 202.683 36.2877 203.243 35.4664C203.84 34.6077 204.438 33.7864 205.035 33.0024C205.67 32.2184 206.174 31.6024 206.547 31.1544L206.491 31.0984C206.08 31.1731 205.576 31.5091 204.979 32.1064C204.419 32.6664 203.803 33.3197 203.131 34.0664C202.459 34.8131 201.768 35.5971 201.059 36.4184C200.387 37.2397 199.715 37.9491 199.043 38.5464C197.848 39.6291 196.822 40.3944 195.963 40.8424C195.142 41.2531 194.302 41.4584 193.443 41.4584C192.696 41.4584 192.118 41.2904 191.707 40.9544C191.296 40.5811 191.091 40.0584 191.091 39.3864C191.091 38.6024 191.315 37.8557 191.763 37.1464C192.174 36.3997 192.678 35.8584 193.275 35.5224C193.872 35.1491 194.488 35.0184 195.123 35.1304C195.795 35.2051 196.168 35.7091 196.243 36.6424C196.28 36.9784 196.112 37.3517 195.739 37.7624C195.366 38.1731 195.011 38.3784 194.675 38.3784C194.302 38.3784 194.04 38.2477 193.891 37.9864C193.779 37.6877 193.574 37.5197 193.275 37.4824C193.088 37.4824 192.79 37.6504 192.379 37.9864C192.006 38.3224 191.819 38.8077 191.819 39.4424C191.819 39.7784 191.95 40.1331 192.211 40.5064C192.472 40.8424 192.864 41.0104 193.387 41.0104C193.76 41.0104 194.115 40.9731 194.451 40.8984C194.824 40.7864 195.216 40.6184 195.627 40.3944C196.038 40.1704 196.504 39.8717 197.027 39.4984C197.55 39.0877 198.147 38.5651 198.819 37.9304C199.752 37.1091 200.592 36.2317 201.339 35.2984C202.086 34.3277 202.814 33.4317 203.523 32.6104C204.27 31.7891 205.016 31.1171 205.763 30.5944C206.547 30.0344 207.424 29.7544 208.395 29.7544C209.03 29.7544 209.347 29.9784 209.347 30.4264C209.347 30.6877 209.198 31.0797 208.899 31.6024C208.638 32.1251 208.302 32.7037 207.891 33.3384C207.48 33.9731 207.014 34.6264 206.491 35.2984C206.006 35.9704 205.558 36.6051 205.147 37.2024C204.736 37.7997 204.382 38.3224 204.083 38.7704C203.822 39.2184 203.691 39.5357 203.691 39.7224C203.691 39.9464 203.803 40.0584 204.027 40.0584C204.736 40.0584 205.464 39.6477 206.211 38.8264C206.958 37.9677 208.022 36.6051 209.403 34.7384C209.851 34.1411 210.299 33.5437 210.747 32.9464C211.195 32.3491 211.662 31.8264 212.147 31.3784C212.632 30.8931 213.155 30.5011 213.715 30.2024C214.275 29.9037 214.91 29.7544 215.619 29.7544C216.254 29.7544 216.571 29.9784 216.571 30.4264C216.571 30.8371 216.291 31.4531 215.731 32.2744C215.208 33.0957 214.611 33.9731 213.939 34.9064C213.267 35.8024 212.651 36.6984 212.091 37.5944C211.568 38.4531 211.307 39.1437 211.307 39.6664C211.307 40.0771 211.55 40.2824 212.035 40.2824C213.006 40.2824 213.939 39.8717 214.835 39.0504C215.731 38.1917 216.944 36.8664 218.475 35.0744L218.867 35.3544C218.27 36.0637 217.672 36.7731 217.075 37.4824C216.515 38.1917 215.918 38.8264 215.283 39.3864C214.648 39.9464 213.976 40.4131 213.267 40.7864C212.558 41.1224 211.755 41.2904 210.859 41.2904H210.915ZM39.2203 72.4584C38.9963 71.3757 38.5856 70.4237 37.9883 69.6024C37.4283 68.7437 36.775 68.0344 36.0283 67.4744C37.6336 66.6904 38.9963 65.8504 40.1163 64.9544C41.2363 64.0211 42.3376 62.9571 43.4203 61.7624L43.8123 61.9304C43.1776 63.0877 42.487 64.0957 41.7403 64.9544C40.9936 65.8131 40.079 66.6717 38.9963 67.5304C39.295 68.0157 39.5003 68.6131 39.6123 69.3224C39.7243 69.9944 39.7803 70.6291 39.7803 71.2264C39.7803 71.4504 39.7803 71.6557 39.7803 71.8424C39.7803 72.0291 39.7616 72.1971 39.7243 72.3464L39.2203 72.4584ZM44.1483 72.4584C43.9243 71.3757 43.5136 70.4237 42.9163 69.6024C42.3563 68.7437 41.703 68.0344 40.9563 67.4744C42.5616 66.6904 43.9243 65.8504 45.0443 64.9544C46.1643 64.0211 47.2656 62.9571 48.3483 61.7624L48.7403 61.9304C48.1056 63.0877 47.415 64.0957 46.6683 64.9544C45.9216 65.8131 45.007 66.6717 43.9243 67.5304C44.223 68.0157 44.4283 68.6131 44.5403 69.3224C44.6523 69.9944 44.7083 70.6291 44.7083 71.2264C44.7083 71.4504 44.7083 71.6557 44.7083 71.8424C44.7083 72.0291 44.6896 72.1971 44.6523 72.3464L44.1483 72.4584ZM55.9626 76.3784C56.9332 75.5944 57.8292 74.8291 58.6506 74.0824C59.5092 73.3357 60.3306 72.5704 61.1146 71.7864C61.8986 70.9651 62.7012 70.0877 63.5226 69.1544C64.3439 68.2211 65.2399 67.1944 66.2106 66.0744L66.6026 66.3544C65.2959 67.9224 64.1386 69.2664 63.1306 70.3864C62.1599 71.4691 61.2452 72.4211 60.3866 73.2424C59.5279 74.1011 58.6879 74.8664 57.8666 75.5384C57.0452 76.2477 56.1492 76.9944 55.1786 77.7784C52.3786 83.1171 49.6532 87.6904 47.0026 91.4984C44.3519 95.3437 41.5146 98.5731 38.4906 101.186C37.1839 102.306 35.8586 103.202 34.5146 103.874C33.1332 104.584 31.8452 104.938 30.6506 104.938C29.7172 104.938 29.0266 104.677 28.5786 104.154C28.1306 103.669 27.9066 103.053 27.9066 102.306C27.9066 100.477 28.6719 98.5171 30.2026 96.4264C31.6959 94.3357 33.6186 92.2264 35.9706 90.0984C38.2852 87.9704 40.8612 85.8984 43.6986 83.8824C46.5359 81.8664 49.2986 80.0184 51.9866 78.3384C52.5466 77.4424 53.0132 76.6397 53.3866 75.9304C53.7972 75.2584 54.1892 74.5864 54.5626 73.9144C54.9359 73.2424 55.3466 72.5144 55.7946 71.7304C56.2426 70.9464 56.7839 69.9944 57.4186 68.8744H57.3626C56.3919 69.9571 55.4026 70.8157 54.3946 71.4504C53.3866 72.0477 52.3786 72.3464 51.3706 72.3464C50.2506 72.3464 49.4852 72.1037 49.0746 71.6184C48.7012 71.1331 48.5146 70.5917 48.5146 69.9944C48.5146 68.9864 48.7946 67.9411 49.3546 66.8584C49.9519 65.7757 50.7172 64.7864 51.6506 63.8904C52.5839 62.9944 53.6292 62.2664 54.7866 61.7064C55.9439 61.1464 57.1012 60.8664 58.2586 60.8664C59.2292 60.8664 59.9386 61.0531 60.3866 61.4264C60.8346 61.7624 61.1519 62.1544 61.3386 62.6024L61.6746 62.0984C61.8612 61.7997 62.0852 61.5571 62.3466 61.3704C62.6452 61.1464 62.9999 61.0344 63.4106 61.0344H64.2506C64.5492 61.0344 64.6986 61.1464 64.6986 61.3704C64.6986 61.4077 64.6799 61.4637 64.6426 61.5384C64.6426 61.6131 64.6052 61.7251 64.5306 61.8744C63.1119 64.3384 61.6932 66.7651 60.2746 69.1544C58.8932 71.5064 57.4559 73.9144 55.9626 76.3784ZM51.4266 79.5144C47.2079 82.1277 43.7546 84.5731 41.0666 86.8504C38.3786 89.1277 36.2879 91.2184 34.7946 93.1224C33.2639 95.0637 32.2186 96.8184 31.6586 98.3864C31.0986 99.9544 30.8186 101.317 30.8186 102.474C30.8186 102.922 30.9119 103.277 31.0986 103.538C31.2479 103.837 31.5279 103.986 31.9386 103.986C32.7972 103.986 33.8052 103.52 34.9626 102.586C36.0826 101.653 37.2772 100.44 38.5466 98.9464C39.7786 97.4904 41.0292 95.8477 42.2986 94.0184C43.5679 92.1891 44.7812 90.3597 45.9386 88.5304C47.0959 86.7384 48.1412 85.0397 49.0746 83.4344C50.0452 81.8291 50.8292 80.5224 51.4266 79.5144ZM58.5946 61.4824C57.7732 61.4824 56.9146 61.8184 56.0186 62.4904C55.1599 63.1624 54.3572 63.9651 53.6106 64.8984C52.9012 65.7944 52.3039 66.7464 51.8186 67.7544C51.3332 68.7624 51.0906 69.6024 51.0906 70.2744C51.0906 70.5357 51.1466 70.8344 51.2586 71.1704C51.3706 71.4691 51.7252 71.6184 52.3226 71.6184C52.8079 71.6184 53.3306 71.4504 53.8906 71.1144C54.4879 70.7784 55.0666 70.3491 55.6266 69.8264C56.1866 69.3037 56.7279 68.7251 57.2506 68.0904C57.8106 67.4557 58.3146 66.8211 58.7626 66.1864C59.1732 65.5891 59.5279 65.0291 59.8266 64.5064C60.1252 63.9837 60.2746 63.4424 60.2746 62.8824C60.2372 62.3597 60.0506 62.0051 59.7146 61.8184C59.3786 61.5944 59.0052 61.4824 58.5946 61.4824ZM75.2235 61.4824C74.4022 61.4824 73.5622 61.8184 72.7035 62.4904C71.8448 63.1624 71.0422 63.9651 70.2955 64.8984C69.5862 65.7944 68.9888 66.7464 68.5035 67.7544C68.0555 68.7624 67.8315 69.6024 67.8315 70.2744C67.8315 70.5357 67.8875 70.8344 67.9995 71.1704C68.1115 71.4691 68.4662 71.6184 69.0635 71.6184C69.5488 71.6184 70.0528 71.4504 70.5755 71.1144C71.1355 70.7784 71.6955 70.3491 72.2555 69.8264C72.8155 69.3037 73.3382 68.7251 73.8235 68.0904C74.3462 67.4557 74.8315 66.8211 75.2795 66.1864C75.6902 65.5891 76.0448 64.9917 76.3435 64.3944C76.6795 63.7971 76.8475 63.2931 76.8475 62.8824C76.8475 62.3597 76.6795 62.0051 76.3435 61.8184C76.0075 61.5944 75.6342 61.4824 75.2235 61.4824ZM78.3595 62.0424C78.5835 61.7437 78.8075 61.5011 79.0315 61.3144C79.2555 61.1277 79.5915 61.0344 80.0395 61.0344H81.1035C81.4022 61.0344 81.5515 61.1464 81.5515 61.3704C81.5515 61.4077 81.5328 61.4637 81.4955 61.5384C81.4955 61.5757 81.4582 61.6691 81.3835 61.8184C81.0475 62.3411 80.5808 63.0131 79.9835 63.8344C79.3862 64.6557 78.8075 65.5144 78.2475 66.4104C77.6875 67.2691 77.1835 68.0904 76.7355 68.8744C76.3248 69.6211 76.1195 70.1997 76.1195 70.6104C76.1195 71.0584 76.3248 71.2824 76.7355 71.2824C77.7062 71.2824 78.6395 70.8717 79.5355 70.0504C80.4315 69.1917 81.6448 67.8664 83.1755 66.0744L83.5675 66.3544C82.9702 67.0637 82.3728 67.7731 81.7755 68.4824C81.2155 69.1917 80.6182 69.8264 79.9835 70.3864C79.3488 70.9464 78.6768 71.4131 77.9675 71.7864C77.2582 72.1224 76.4555 72.2904 75.5595 72.2904C74.9248 72.2904 74.3835 72.1784 73.9355 71.9544C73.4875 71.6931 73.2635 71.2637 73.2635 70.6664C73.2635 70.4797 73.3008 70.2557 73.3755 69.9944C73.4875 69.6957 73.6555 69.3784 73.8795 69.0424V68.9864C72.9088 70.0691 71.9568 70.9091 71.0235 71.5064C70.1275 72.0664 69.1195 72.3464 67.9995 72.3464C66.8795 72.3464 66.1142 72.1037 65.7035 71.6184C65.3302 71.1331 65.1435 70.5917 65.1435 69.9944C65.1435 68.9864 65.4235 67.9411 65.9835 66.8584C66.5808 65.7757 67.3462 64.7864 68.2795 63.8904C69.2128 62.9944 70.2582 62.2664 71.4155 61.7064C72.5728 61.1464 73.7302 60.8664 74.8875 60.8664C75.8208 60.8664 76.5302 61.0344 77.0155 61.3704C77.5008 61.6691 77.8555 62.0237 78.0795 62.4344L78.3595 62.0424ZM87.5326 61.7064C87.7566 62.7891 88.1486 63.7597 88.7086 64.6184C89.3059 65.4397 89.9779 66.1304 90.7246 66.6904C89.1192 67.4744 87.7566 68.3331 86.6366 69.2664C85.5166 70.1624 84.4152 71.2077 83.3326 72.4024L82.9406 72.2344C83.5752 71.0771 84.2659 70.0691 85.0126 69.2104C85.7592 68.3517 86.6739 67.4931 87.7566 66.6344C87.4579 66.1491 87.2526 65.5704 87.1406 64.8984C87.0286 64.1891 86.9726 63.5171 86.9726 62.8824C86.9726 62.6957 86.9726 62.5091 86.9726 62.3224C86.9726 62.1357 86.9912 61.9677 87.0286 61.8184L87.5326 61.7064ZM92.6846 61.7064C92.9086 62.7891 93.3006 63.7597 93.8606 64.6184C94.4579 65.4397 95.1299 66.1304 95.8766 66.6904C94.2712 67.4744 92.9086 68.3331 91.7886 69.2664C90.6686 70.1624 89.5672 71.2077 88.4846 72.4024L88.0926 72.2344C88.7272 71.0771 89.4179 70.0691 90.1646 69.2104C90.9112 68.3517 91.8259 67.4931 92.9086 66.6344C92.6099 66.1491 92.4046 65.5704 92.2926 64.8984C92.1806 64.1891 92.1246 63.5171 92.1246 62.8824C92.1246 62.6957 92.1246 62.5091 92.1246 62.3224C92.1246 62.1357 92.1432 61.9677 92.1806 61.8184L92.6846 61.7064ZM113.776 72.2904C113.142 72.2904 112.6 72.1597 112.152 71.8984C111.704 71.5997 111.48 71.1517 111.48 70.5544C111.48 69.7331 111.742 68.8744 112.264 67.9784C112.787 67.0451 113.347 66.1677 113.944 65.3464C114.579 64.4877 115.158 63.7037 115.68 62.9944C116.203 62.2851 116.464 61.6877 116.464 61.2024C116.464 61.0904 116.296 61.0717 115.96 61.1464C115.624 61.2211 115.195 61.3331 114.672 61.4824C114.187 61.5944 113.646 61.7064 113.048 61.8184C112.451 61.9304 111.91 61.9677 111.424 61.9304C111.2 62.2291 110.92 62.5837 110.584 62.9944C110.248 63.4051 109.894 63.8344 109.52 64.2824C109.147 64.6931 108.774 65.1224 108.4 65.5704C108.064 65.9811 107.766 66.3171 107.504 66.5784L107.056 66.3544C107.318 66.0557 107.635 65.6824 108.008 65.2344C108.382 64.7864 108.755 64.3384 109.128 63.8904C109.502 63.4424 109.838 63.0317 110.136 62.6584C110.472 62.2851 110.734 61.9864 110.92 61.7624C110.398 61.5384 110.136 61.2211 110.136 60.8104C110.136 60.1757 110.36 59.6717 110.808 59.2984C111.294 58.9251 111.798 58.7384 112.32 58.7384C112.656 58.7384 112.974 58.7944 113.272 58.9064C113.608 59.0184 113.776 59.1677 113.776 59.3544C113.776 59.4664 113.608 59.6531 113.272 59.9144C112.936 60.1757 112.768 60.4371 112.768 60.6984C112.768 60.9597 112.936 61.0904 113.272 61.0904C113.646 61.0904 114.094 61.0344 114.616 60.9224C115.139 60.7731 115.699 60.6051 116.296 60.4184C116.894 60.2317 117.454 60.1011 117.976 60.0264C118.499 59.9144 118.928 59.8957 119.264 59.9704C119.638 60.0077 119.824 60.2131 119.824 60.5864C119.824 60.7731 119.675 61.1091 119.376 61.5944C119.115 62.0797 118.779 62.6397 118.368 63.2744C117.958 63.9091 117.51 64.5997 117.024 65.3464C116.539 66.0557 116.091 66.7464 115.68 67.4184C115.27 68.0904 114.915 68.7251 114.616 69.3224C114.355 69.8824 114.224 70.3304 114.224 70.6664C114.224 71.0771 114.467 71.2824 114.952 71.2824C115.923 71.2824 116.875 70.8717 117.808 70.0504C118.742 69.1917 119.974 67.8664 121.504 66.0744L121.896 66.3544C121.299 67.0637 120.702 67.7731 120.104 68.4824C119.544 69.1917 118.928 69.8264 118.256 70.3864C117.622 70.9464 116.931 71.4131 116.184 71.7864C115.475 72.1224 114.672 72.2904 113.776 72.2904ZM123.679 67.6424C124.911 67.4184 125.919 67.1011 126.703 66.6904C127.487 66.2797 128.103 65.8504 128.551 65.4024C128.999 64.9171 129.298 64.4504 129.447 64.0024C129.634 63.5171 129.727 63.0877 129.727 62.7144C129.727 62.3037 129.634 62.0424 129.447 61.9304C129.261 61.7811 129.037 61.7064 128.775 61.7064C127.954 61.7064 127.095 62.2851 126.199 63.4424C125.303 64.5624 124.463 65.9624 123.679 67.6424ZM124.967 71.5624C125.341 71.5624 125.751 71.5251 126.199 71.4504C126.685 71.3757 127.263 71.1517 127.935 70.7784C128.607 70.4051 129.373 69.8264 130.231 69.0424C131.127 68.2584 132.191 67.1571 133.423 65.7384L133.815 66.0184C132.583 67.4744 131.482 68.6317 130.511 69.4904C129.578 70.3117 128.719 70.9464 127.935 71.3944C127.151 71.8051 126.423 72.0664 125.751 72.1784C125.117 72.3277 124.482 72.4024 123.847 72.4024C122.466 72.4024 121.551 72.1037 121.103 71.5064C120.655 70.8717 120.431 70.2371 120.431 69.6024C120.431 68.5944 120.674 67.5864 121.159 66.5784C121.682 65.5331 122.354 64.5997 123.175 63.7784C124.034 62.9197 124.986 62.2291 126.031 61.7064C127.077 61.1464 128.159 60.8664 129.279 60.8664C130.399 60.8664 131.127 61.0904 131.463 61.5384C131.799 61.9491 131.967 62.3597 131.967 62.7704C131.967 63.5544 131.687 64.2637 131.127 64.8984C130.605 65.4957 129.933 66.0184 129.111 66.4664C128.29 66.8771 127.375 67.2317 126.367 67.5304C125.359 67.7917 124.407 67.9971 123.511 68.1464C123.399 68.3704 123.306 68.6691 123.231 69.0424C123.157 69.3784 123.119 69.6957 123.119 69.9944C123.119 70.5171 123.287 70.9091 123.623 71.1704C123.997 71.4317 124.445 71.5624 124.967 71.5624ZM144.628 72.2904C143.993 72.2904 143.452 72.1597 143.004 71.8984C142.556 71.5997 142.332 71.1517 142.332 70.5544C142.332 70.0691 142.462 69.5464 142.724 68.9864C142.985 68.3891 143.321 67.7917 143.732 67.1944C144.142 66.5971 144.572 65.9997 145.02 65.4024C145.468 64.8051 145.897 64.2451 146.308 63.7224C146.718 63.1251 146.924 62.7144 146.924 62.4904C146.924 62.0424 146.625 61.8184 146.028 61.8184C145.244 61.8184 144.385 62.2291 143.452 63.0504C142.556 63.8717 141.678 64.8424 140.82 65.9624C139.998 67.0451 139.233 68.1464 138.524 69.2664C137.852 70.3864 137.329 71.2637 136.956 71.8984L120.66 99.2824C120.361 99.7304 120.006 100.272 119.596 100.906C119.185 101.578 118.737 102.213 118.252 102.81C117.729 103.445 117.206 103.968 116.684 104.378C116.161 104.826 115.657 105.05 115.172 105.05C114.537 105.05 114.126 104.864 113.94 104.49C113.753 104.154 113.66 103.744 113.66 103.258C113.66 102.4 113.996 101.298 114.668 99.9544C115.302 98.6477 115.993 97.3037 116.74 95.9224C118.308 93.0851 119.988 90.1544 121.78 87.1304C123.534 84.1437 125.345 81.1384 127.212 78.1144C129.041 75.1277 130.87 72.1971 132.7 69.3224C134.566 66.4104 136.358 63.6664 138.076 61.0904L133.316 66.6344L132.924 66.3544C134.342 64.6744 135.78 62.9757 137.236 61.2584C138.729 59.5037 140.241 57.6184 141.772 55.6024L142.5 54.5384C143.134 53.6424 143.862 53.1944 144.684 53.1944H145.188C145.486 53.1944 145.636 53.3064 145.636 53.5304C145.636 53.5677 145.617 53.6237 145.58 53.6984C145.58 53.7357 145.542 53.8291 145.468 53.9784L143.228 57.4504C142.668 58.3091 141.865 59.5597 140.82 61.2024C139.774 62.8451 138.58 64.7304 137.236 66.8584C135.892 68.9491 134.454 71.2077 132.924 73.6344C131.393 76.0611 129.881 78.4877 128.388 80.9144C126.857 83.3784 125.401 85.7491 124.02 88.0264C122.601 90.3411 121.35 92.4317 120.268 94.2984C119.185 96.2024 118.289 97.8077 117.58 99.1144C116.87 100.421 116.478 101.298 116.404 101.746C116.329 102.12 116.292 102.344 116.292 102.418C116.292 102.829 116.441 103.034 116.74 103.034C117.15 103.034 117.617 102.68 118.14 101.97C118.625 101.298 119.372 100.122 120.38 98.4424C123.142 93.9251 125.849 89.4264 128.5 84.9464C131.15 80.5037 133.801 76.0424 136.452 71.5624C137.012 70.5917 137.684 69.4904 138.468 68.2584C139.252 66.9891 140.092 65.7944 140.988 64.6744C141.921 63.5544 142.91 62.6211 143.956 61.8744C145.001 61.0904 146.065 60.6984 147.148 60.6984C147.82 60.6984 148.38 60.8664 148.828 61.2024C149.276 61.5384 149.5 62.0237 149.5 62.6584C149.5 63.2184 149.257 63.8717 148.772 64.6184C148.324 65.3277 147.82 66.0744 147.26 66.8584C146.737 67.6051 146.233 68.3144 145.748 68.9864C145.3 69.6584 145.076 70.2184 145.076 70.6664C145.076 71.0771 145.318 71.2824 145.804 71.2824C146.774 71.2824 147.708 70.8717 148.604 70.0504C149.5 69.1917 150.713 67.8664 152.244 66.0744L152.636 66.3544C152.038 67.0637 151.441 67.7731 150.844 68.4824C150.284 69.1917 149.686 69.8264 149.052 70.3864C148.417 70.9464 147.745 71.4131 147.036 71.7864C146.326 72.1224 145.524 72.2904 144.628 72.2904ZM154.523 67.6424C155.755 67.4184 156.763 67.1011 157.547 66.6904C158.331 66.2797 158.947 65.8504 159.395 65.4024C159.843 64.9171 160.142 64.4504 160.291 64.0024C160.478 63.5171 160.571 63.0877 160.571 62.7144C160.571 62.3037 160.478 62.0424 160.291 61.9304C160.104 61.7811 159.88 61.7064 159.619 61.7064C158.798 61.7064 157.939 62.2851 157.043 63.4424C156.147 64.5624 155.307 65.9624 154.523 67.6424ZM155.811 71.5624C156.184 71.5624 156.595 71.5251 157.043 71.4504C157.528 71.3757 158.107 71.1517 158.779 70.7784C159.451 70.4051 160.216 69.8264 161.075 69.0424C161.971 68.2584 163.035 67.1571 164.267 65.7384L164.659 66.0184C163.427 67.4744 162.326 68.6317 161.355 69.4904C160.422 70.3117 159.563 70.9464 158.779 71.3944C157.995 71.8051 157.267 72.0664 156.595 72.1784C155.96 72.3277 155.326 72.4024 154.691 72.4024C153.31 72.4024 152.395 72.1037 151.947 71.5064C151.499 70.8717 151.275 70.2371 151.275 69.6024C151.275 68.5944 151.518 67.5864 152.003 66.5784C152.526 65.5331 153.198 64.5997 154.019 63.7784C154.878 62.9197 155.83 62.2291 156.875 61.7064C157.92 61.1464 159.003 60.8664 160.123 60.8664C161.243 60.8664 161.971 61.0904 162.307 61.5384C162.643 61.9491 162.811 62.3597 162.811 62.7704C162.811 63.5544 162.531 64.2637 161.971 64.8984C161.448 65.4957 160.776 66.0184 159.955 66.4664C159.134 66.8771 158.219 67.2317 157.211 67.5304C156.203 67.7917 155.251 67.9971 154.355 68.1464C154.243 68.3704 154.15 68.6691 154.075 69.0424C154 69.3784 153.963 69.6957 153.963 69.9944C153.963 70.5171 154.131 70.9091 154.467 71.1704C154.84 71.4317 155.288 71.5624 155.811 71.5624ZM147.079 103.986C146.37 103.986 145.735 103.818 145.175 103.482C144.615 103.184 144.335 102.642 144.335 101.858C144.335 100.664 144.97 99.1331 146.239 97.2664C147.509 95.4371 149.543 93.0104 152.343 89.9864C153.277 88.9784 154.415 87.8584 155.759 86.6264C157.066 85.3944 158.447 84.1251 159.903 82.8184C161.359 81.5117 162.834 80.1677 164.327 78.7864C165.821 77.4051 167.221 76.0424 168.527 74.6984L169.871 73.2984C169.909 73.1117 169.927 72.9437 169.927 72.7944C169.965 72.6451 169.983 72.4957 169.983 72.3464C169.983 71.7117 169.815 71.0957 169.479 70.4984C169.143 69.9011 168.565 69.6024 167.743 69.6024C167.482 69.6024 166.997 69.7144 166.287 69.9384C165.615 70.1624 164.701 70.8717 163.543 72.0664C163.431 72.1784 163.319 72.2344 163.207 72.2344C162.946 72.2344 162.815 72.1597 162.815 72.0104C162.815 71.9357 162.853 71.8611 162.927 71.7864C163.413 71.2637 164.085 70.6104 164.943 69.8264C165.839 69.0424 166.754 68.2397 167.687 67.4184C168.658 66.5971 169.591 65.8317 170.487 65.1224C171.421 64.3757 172.186 63.7784 172.783 63.3304V63.2744C171.999 63.5731 171.159 63.7224 170.263 63.7224C169.703 63.7224 169.162 63.6477 168.639 63.4984C168.154 63.3491 167.743 63.1251 167.407 62.8264C166.959 63.3117 166.493 63.8531 166.007 64.4504C165.559 65.0104 165.074 65.5891 164.551 66.1864L164.215 65.8504C164.813 65.1784 165.354 64.5437 165.839 63.9464C166.325 63.3117 166.735 62.7891 167.071 62.3784C166.922 62.1171 166.847 61.7997 166.847 61.4264C166.847 60.8664 167.034 60.3811 167.407 59.9704C167.781 59.5597 168.266 59.3544 168.863 59.3544C169.125 59.3544 169.423 59.4291 169.759 59.5784C170.133 59.6904 170.319 59.8584 170.319 60.0824C170.319 60.2317 170.17 60.4184 169.871 60.6424C169.573 60.8664 169.423 61.1464 169.423 61.4824C169.423 61.6691 169.535 61.8184 169.759 61.9304C169.983 62.0424 170.226 62.1357 170.487 62.2104C170.786 62.2851 171.085 62.3411 171.383 62.3784C171.682 62.3784 171.906 62.3784 172.055 62.3784C172.802 62.3784 173.493 62.2477 174.127 61.9864C174.762 61.7251 175.341 61.3891 175.863 60.9784C176.05 60.7917 176.274 60.6984 176.535 60.6984C176.946 60.6984 177.151 60.8291 177.151 61.0904C177.151 61.1651 176.759 61.4824 175.975 62.0424C175.191 62.6024 174.258 63.2744 173.175 64.0584C172.093 64.8424 170.973 65.6637 169.815 66.5224C168.658 67.3811 167.706 68.1651 166.959 68.8744V68.9304C167.519 68.7064 168.098 68.5944 168.695 68.5944C169.666 68.5944 170.45 68.7997 171.047 69.2104C171.645 69.6211 172.074 70.1437 172.335 70.7784C173.493 69.5837 174.538 68.4637 175.471 67.4184C176.442 66.3357 177.301 65.3651 178.047 64.5064L178.439 64.7864C177.618 65.7571 176.703 66.7837 175.695 67.8664C174.687 68.9491 173.642 70.0877 172.559 71.2824C172.597 71.4691 172.615 71.6371 172.615 71.7864C172.653 71.9357 172.671 72.0851 172.671 72.2344C172.671 73.5037 172.298 75.1651 171.551 77.2184C170.842 79.3091 169.853 81.5304 168.583 83.8824C167.351 86.2344 165.895 88.6051 164.215 90.9944C162.535 93.3837 160.743 95.5304 158.839 97.4344C156.935 99.3757 154.975 100.944 152.959 102.138C150.943 103.37 148.983 103.986 147.079 103.986ZM148.479 103.146C149.637 103.146 150.925 102.642 152.343 101.634C153.762 100.626 155.218 99.2824 156.711 97.6024C158.167 95.9597 159.623 94.0931 161.079 92.0024C162.498 89.9491 163.805 87.8397 164.999 85.6744C166.194 83.5464 167.202 81.4744 168.023 79.4584C168.882 77.4424 169.461 75.6877 169.759 74.1944L168.807 75.2024C167.538 76.5464 166.175 77.8904 164.719 79.2344C163.301 80.6157 161.901 81.9784 160.519 83.3224C159.138 84.6664 157.813 85.9731 156.543 87.2424C155.274 88.5117 154.173 89.7064 153.239 90.8264C152.007 92.3571 150.999 93.6824 150.215 94.8024C149.431 95.9224 148.815 96.9117 148.367 97.7704C147.919 98.6664 147.621 99.4317 147.471 100.066C147.285 100.738 147.191 101.354 147.191 101.914C147.191 102.736 147.621 103.146 148.479 103.146ZM177.743 72.2344C177.22 72.2344 176.866 72.1037 176.679 71.8424C176.492 71.5811 176.399 71.3011 176.399 71.0024C176.436 70.5917 176.66 70.2184 177.071 69.8824C177.482 69.5091 177.93 69.3224 178.415 69.3224C178.751 69.3224 179.031 69.4531 179.255 69.7144C179.516 69.9384 179.647 70.2184 179.647 70.5544C179.647 71.0024 179.442 71.3944 179.031 71.7304C178.658 72.0664 178.228 72.2344 177.743 72.2344ZM184.907 72.2344C184.384 72.2344 184.03 72.1037 183.843 71.8424C183.656 71.5811 183.563 71.3011 183.563 71.0024C183.6 70.5917 183.824 70.2184 184.235 69.8824C184.646 69.5091 185.094 69.3224 185.579 69.3224C185.915 69.3224 186.195 69.4531 186.419 69.7144C186.68 69.9384 186.811 70.2184 186.811 70.5544C186.811 71.0024 186.606 71.3944 186.195 71.7304C185.822 72.0664 185.392 72.2344 184.907 72.2344ZM192.071 72.2344C191.548 72.2344 191.194 72.1037 191.007 71.8424C190.82 71.5811 190.727 71.3011 190.727 71.0024C190.764 70.5917 190.988 70.2184 191.399 69.8824C191.81 69.5091 192.258 69.3224 192.743 69.3224C193.079 69.3224 193.359 69.4531 193.583 69.7144C193.844 69.9384 193.975 70.2184 193.975 70.5544C193.975 71.0024 193.77 71.3944 193.359 71.7304C192.986 72.0664 192.556 72.2344 192.071 72.2344Z" fill="#112250"></path></svg> 