<?xml version="1.0" encoding="UTF-8"?> <svg xmlns="http://www.w3.org/2000/svg" xmlns:xlink="http://www.w3.org/1999/xlink" width="157" height="60"><path fill="#28682E" transform="scale(0.058604 0.0585938)" d="M2319.45 8.49953C2333.62 7.34413 2347.36 8.84179 2359.64 16.7445C2364.84 20.088 2371.27 27.2536 2372.51 33.4729C2373.46 38.2363 2373.86 45.9524 2370.98 50.1473C2364.71 59.2713 2349.79 42.6154 2339.3 45.1679C2333.45 46.5896 2329.12 51.4153 2326.22 56.4365C2319.88 67.4063 2317.84 80.5719 2317.67 93.0506C2316.6 171.547 2395.55 250.834 2434.76 315.406C2458.11 353.873 2478.75 400.115 2491.01 443.382C2491.7 445.815 2492.51 448.186 2494.75 449.423C2495.71 447.266 2496.58 445.108 2497.42 442.9C2507.35 416.72 2528.56 406.124 2549.12 389.425C2554.79 384.821 2561.13 376.812 2567.64 373.875C2568.51 374.151 2569.18 374.37 2569.91 374.947C2573.37 377.702 2575.93 383.265 2577.93 387.161C2589.24 409.156 2595.5 435.724 2593.18 460.578C2592.57 467.125 2587.83 473.647 2588.31 480.257C2593.78 476.327 2594.95 465.435 2600.46 462.195C2603.19 462.703 2605.09 463.712 2607.25 465.421C2613.49 470.347 2624.15 482.792 2625.2 490.838C2623.89 493.55 2622.57 493.831 2619.98 495.271Q2619.73 499.229 2619.19 503.157C2615.14 530.651 2590.21 547.753 2574.3 568.218C2566.21 578.616 2560.92 592.116 2550.19 600.091C2566.11 596.801 2578.29 586.517 2595.36 585.239C2610.5 584.106 2624.72 588.566 2636.27 598.607C2646.59 607.589 2664.6 634.64 2665.6 648.258C2662.57 650.338 2654.64 649.31 2650.74 650.082C2641.32 651.946 2632.59 658.102 2622.64 656.953C2615.15 656.089 2608.69 650.765 2600.93 650.84C2590.67 650.938 2579.42 663.538 2573.18 670.91C2563.61 682.23 2554.91 694.304 2544.99 705.338C2529.37 722.717 2512.1 739.249 2497.95 757.894C2487.76 771.304 2479.08 785.369 2469.5 799.152C2447.46 830.888 2418.93 869.522 2390.79 895.857C2382.63 903.49 2356.36 925.959 2347.43 931.272C2326.37 943.794 2295.54 950.773 2278.7 968.413C2257.65 990.476 2289.91 991.232 2289.4 1008.97C2289.33 1011.23 2288.34 1013.23 2286.64 1014.71C2280.97 1019.61 2272.36 1021.1 2265.1 1020.61C2249.53 1019.57 2236.17 1011.39 2225.93 1000.08C2219.37 992.836 2217.3 983.104 2211.3 976.019C2211.21 975.908 2211.11 975.801 2211.01 975.692C2155.24 985.547 2105.42 955.649 2073.24 911.51C2066.54 902.326 2051.14 876.764 2041.89 871.472C2055.58 874.655 2068.15 882.458 2081.11 887.797C2092.56 892.514 2104.48 895.516 2116.1 899.708C2116.21 896.407 2111.01 891.533 2109 889.117C2103.15 882.095 2096.48 875.126 2091.6 867.418C2072.95 837.954 2063.34 793.391 2071.19 759.218C2073 751.369 2080.31 735.118 2077.82 728.005C2066.64 727.412 2055.44 729.016 2044.21 728.334C2003.89 725.885 1965.49 709.296 1933.38 685.264C1918.49 674.129 1905.59 660.683 1888.91 652.056C1869.65 642.092 1840.47 634.879 1819.21 641.955C1800.83 648.073 1798.49 658.97 1790.72 674.135C1790.32 674.904 1789.73 676.536 1788.94 676.75C1785.86 677.581 1782.38 676.062 1779.81 674.434C1765.37 665.311 1753.29 645.672 1749.65 629.191C1744.73 606.931 1753.06 582.57 1772.65 570.146C1777.46 567.096 1786.88 564.431 1789.74 559.925C1789.2 545.508 1763.68 529.402 1755.07 517.458C1749.56 509.806 1747.32 501.13 1743.03 492.852L1742.78 493.307C1728.14 501.855 1712.33 506.641 1695.24 505.966Q1692.13 505.854 1689.04 505.502Q1685.96 505.15 1682.9 504.56Q1679.85 503.971 1676.85 503.147Q1673.86 502.324 1670.93 501.271C1651.13 494.277 1633.31 482.203 1613.59 474.674C1606.1 471.812 1592.18 469.48 1586.96 463.806C1588.07 459.925 1596.3 454.477 1599.24 450.66C1608.71 438.343 1615.38 422.791 1625.98 411.581C1632.42 404.769 1651.77 392.96 1655.53 386.071C1655.61 385.917 1655.68 385.757 1655.76 385.6C1617.73 386.315 1584.86 381.387 1554.51 356.504C1547.26 350.561 1539.71 341.562 1530.7 338.609C1522.95 336.07 1512.23 338.252 1503.93 337.931C1504.02 338.095 1504.13 338.25 1504.21 338.423C1508.16 347.433 1503.89 372.928 1500.95 382.702C1486.36 431.201 1449.46 469.435 1405.49 492.895C1286.15 556.575 1139.79 529.338 1021.71 477.485C999.369 467.675 977.733 456.162 956.036 445.023C942.975 438.319 929.613 430.456 915.529 426.154C932.659 441.12 951.334 466.43 966.445 484.151C984.909 505.806 1029.42 552.873 1040.31 576.567C1041.4 578.935 1042.43 581.318 1041.47 583.912C1039.98 585.877 1038.65 586.831 1036.2 587.307C1017.19 590.986 954.175 562.897 937.099 551.015C936.028 580.283 920.061 614.041 899.625 634.742Q898.601 635.796 897.551 636.824Q896.501 637.853 895.426 638.855Q894.351 639.856 893.251 640.831Q892.151 641.806 891.028 642.753Q889.904 643.7 888.757 644.619Q887.61 645.538 886.441 646.428Q885.271 647.318 884.08 648.179Q882.889 649.04 881.677 649.871Q880.464 650.701 879.232 651.502Q878 652.302 876.747 653.072Q875.495 653.841 874.225 654.579Q872.954 655.317 871.665 656.024Q870.376 656.73 869.07 657.404Q867.764 658.078 866.442 658.719Q865.12 659.361 863.782 659.969Q862.444 660.577 861.091 661.152Q859.739 661.726 858.372 662.267Q857.006 662.808 855.626 663.315Q854.247 663.822 852.855 664.294Q851.464 664.766 850.061 665.204Q848.658 665.641 847.244 666.044Q845.831 666.446 844.408 666.813Q842.985 667.181 841.553 667.512Q840.121 667.844 838.682 668.14Q837.242 668.436 835.796 668.696Q834.349 668.956 832.897 669.18Q831.445 669.404 829.987 669.592Q828.529 669.779 827.068 669.931Q825.606 670.082 824.141 670.197Q822.676 670.312 821.208 670.391Q819.741 670.469 818.272 670.512Q816.803 670.554 815.333 670.559C806.222 670.6 775.568 668.237 769.578 661.427C768.459 660.155 768.555 659.349 768.829 657.748C769.664 652.869 773.664 648.068 775.11 643.142C778.092 632.985 778.744 620.844 779.822 610.308C751.794 634.167 726.573 648.144 688.704 648.618C662.517 648.946 617.071 639.259 598.023 620.207C595.239 617.423 589.146 610.802 589.184 606.754C597.294 602.863 607.757 615.622 624.966 609.547C637.131 605.254 645.012 594.767 650.427 583.563C673.2 536.44 663.977 481.306 648.258 433.558C646.094 426.986 642.371 420.894 640.014 414.229C636.211 403.477 607.88 352.625 599.754 348.788C597.12 356.656 600.531 368.185 599.282 376.752C595.886 400.052 577.429 422.61 559.12 436.185C523.371 462.691 482.05 463.447 439.826 457.13C453.515 452.47 464.485 447.995 475.312 438.271C483.814 430.017 490.725 420.865 494.827 409.702C501.714 390.96 502.285 368.028 493.816 349.657L492.686 349.305C485.233 359.699 484.037 373.801 475.896 384.424C462.96 401.305 434.891 413.616 414.234 416.112C390.977 418.921 375.498 408.534 358.109 394.861C371.899 391.762 381.228 387.003 391.766 377.435C372.428 378.584 355.797 376.121 340.205 363.784C332.48 357.671 320.407 345.508 319.584 335.289C319.356 332.447 320.276 330.993 322.084 328.963C334.706 323.637 346.097 340.562 358.079 343.828C361.635 344.798 363.523 344.418 366.677 342.61C369.326 338.883 369.372 334.628 369.076 330.203C368.559 322.493 363.786 315.424 358.039 310.476C342.238 296.872 316.533 295.042 296.676 296.729C263.118 299.58 242.121 313.176 220.852 338.311C241.932 337.468 263.355 341.904 280.285 355.192C293.986 365.946 302.679 380.9 304.746 398.219C308.608 430.592 291.873 467.143 272.191 491.931C248.659 521.57 216.56 538.281 178.996 542.486C140.754 546.767 98.0212 534.717 67.9728 510.577C33.9939 483.279 13.0895 445.825 8.46291 402.366C1.8594 340.338 32.6335 270.116 70.9475 222.541C109.11 175.154 161.379 143.176 219.722 127.048C380.432 82.6234 555.654 149.606 707.586 199.308C766.2 218.482 826.816 238.543 888.166 246.354C908.739 248.973 929.78 250.467 950.463 248.439C962.172 247.29 973.684 244.73 985.387 243.46C986.533 250.124 987.092 256.797 986.023 263.505C984.986 270.018 977.151 284.71 979.149 289.796C980.752 290.449 982.223 290.555 983.922 290.357C1007.61 287.585 1040.85 276.739 1055.33 256.603C1058.89 251.655 1058.05 244.583 1061.43 240.193C1062.8 239.812 1063.53 239.403 1064.93 239.857C1073.52 242.656 1082.56 257.642 1086.29 265.51C1090.86 275.144 1090.32 293.537 1086.56 303.469C1081.21 317.608 1064.1 341.342 1049.89 347.596C1064.17 350.587 1078.36 359.561 1092.26 364.477C1143.38 382.554 1201.61 387.155 1253.34 368.322C1253.47 365.603 1250.05 361.908 1248.5 359.637C1240.52 347.939 1233.61 335.714 1230.41 321.801C1225.63 301.06 1229.32 277.132 1240.73 259.125C1257.46 232.701 1284.44 214.959 1314.8 208.26Q1316.72 207.835 1318.65 207.456Q1320.58 207.078 1322.52 206.747Q1324.46 206.416 1326.41 206.132Q1328.35 205.849 1330.31 205.613Q1332.26 205.377 1334.22 205.189Q1336.18 205.001 1338.14 204.861Q1340.1 204.721 1342.07 204.629Q1344.03 204.536 1346 204.493Q1347.96 204.449 1349.93 204.453Q1351.9 204.457 1353.86 204.509Q1355.83 204.561 1357.8 204.662Q1359.76 204.762 1361.72 204.91Q1363.68 205.058 1365.64 205.255Q1367.6 205.451 1369.55 205.695Q1371.5 205.939 1373.45 206.231Q1375.39 206.522 1377.33 206.861Q1379.27 207.201 1381.2 207.587Q1383.13 207.973 1385.05 208.407Q1386.96 208.84 1388.87 209.321Q1390.78 209.801 1392.68 210.328Q1394.57 210.855 1396.45 211.428Q1398.33 212.001 1400.2 212.619Q1402.07 213.238 1403.92 213.903Q1405.77 214.567 1407.61 215.276Q1409.44 215.986 1411.26 216.74Q1413.08 217.494 1414.87 218.292Q1416.67 219.09 1418.45 219.932Q1420.23 220.774 1421.98 221.659Q1423.74 222.544 1425.48 223.472Q1427.21 224.4 1428.92 225.37Q1430.63 226.34 1432.32 227.352Q1434.01 228.363 1435.67 229.416C1477.9 256.35 1493.5 283.387 1504.04 331.429L1505.53 331.959L1505.75 333.618C1507.25 331.451 1506.58 328.492 1506.78 325.957C1507.99 310.521 1526.12 292.057 1538.47 284.024C1543.51 280.738 1550.07 278.489 1554.54 274.615C1553.14 270.338 1529.4 252.563 1524.54 247.843C1505.53 229.391 1487.82 208.235 1477.25 183.714C1464.96 155.206 1462.56 115.8 1474.25 86.7466Q1474.8 85.394 1475.39 84.0555Q1475.98 82.7171 1476.6 81.3935Q1477.22 80.0699 1477.88 78.7621Q1478.53 77.4542 1479.21 76.1629Q1479.9 74.8716 1480.62 73.5975Q1481.33 72.3235 1482.08 71.0675Q1482.83 69.8116 1483.61 68.5745Q1484.39 67.3373 1485.2 66.1198Q1486.01 64.9023 1486.84 63.7051Q1487.68 62.5079 1488.55 61.3318Q1489.42 60.1557 1490.32 59.0014Q1491.21 57.847 1492.14 56.7152Q1493.06 55.5833 1494.02 54.4747Q1494.97 53.366 1495.95 52.2812Q1496.93 51.1963 1497.94 50.136Q1498.94 49.0757 1499.98 48.0405Q1501.01 47.0054 1502.07 45.996Q1503.12 44.9866 1504.21 44.0036Q1505.29 43.0207 1506.39 42.0647Q1507.5 41.1087 1508.63 40.1803Q1509.76 39.2519 1510.91 38.3516Q1512.06 37.4514 1513.24 36.5798Q1514.41 35.7083 1515.6 34.8659Q1516.8 34.0236 1518.01 33.211Q1519.23 32.3984 1520.46 31.616Q1521.7 30.8336 1522.95 30.082Q1524.21 29.3303 1525.48 28.6098Q1526.75 27.8893 1528.04 27.2004Q1529.33 26.5116 1530.64 25.8547Q1531.94 25.1978 1533.26 24.5734Q1534.59 23.9489 1535.92 23.3573Q1537.26 22.7657 1538.61 22.2072C1569.04 9.37046 1607.27 6.49578 1638.25 19.221C1656.04 26.5242 1670.34 37.036 1677.87 55.1368C1679.8 59.7836 1683.47 67.9904 1681.33 72.7907C1679.05 77.9032 1651.4 63.9675 1639.33 68.5549C1636.68 73.9983 1640.24 84.3109 1638.28 91.1001C1636.25 98.1012 1631.16 102.561 1624.76 105.588C1596.75 118.821 1569.23 100.201 1551.07 110.318C1540.49 116.214 1535.92 128.558 1532.9 139.61C1526.8 162.012 1533.3 183.584 1544.57 203.149C1558.68 227.627 1588.69 256.191 1616.82 262.687C1632.8 266.378 1649.28 266.584 1665.21 270.894C1664.26 264.855 1660.98 258.121 1659.08 252.246C1652.91 233.172 1651.5 212.956 1660.05 194.188C1661.34 191.357 1662.59 190.237 1665.43 189.157C1672.08 190.498 1679.23 207.572 1683.95 212.854C1693.68 223.736 1706.13 233.232 1718.86 240.336C1746.1 255.538 1777.58 259.769 1807.66 251.1C1820.55 247.387 1862.95 226.083 1868.96 215.247C1866.24 213.577 1862.39 212.666 1859.4 211.382C1852.8 208.551 1846.19 205.084 1840.29 200.982C1823.69 189.444 1814.13 174.1 1810.72 154.101C1807.91 137.65 1813.6 120.395 1823.37 107.09C1826.01 103.502 1830.35 98.3582 1835.13 97.7976C1842.57 96.9246 1848.48 110.623 1854.26 115.109L1854.75 115.482C1861.95 121.088 1878.01 122.304 1887.01 124.641C1887.47 122.782 1887.6 120.909 1887.8 119.011C1890.64 92.7662 1899.6 75.18 1920.77 58.7777C1927.87 53.2727 1948.9 42.696 1958.1 44.5346C1964.52 45.8173 1966.41 57.613 1968.78 62.9779C1972.51 71.4578 1982.72 76.1602 1985.63 85.338C1991.06 102.472 1982.39 119.554 1993.01 136.37C2019.4 178.153 2102.44 154.781 2142.47 153.874C2169.29 153.267 2194.6 156.987 2220.66 162.823C2218.25 154.801 2210.71 147.785 2207.19 140.027C2207.09 139.798 2206.99 139.567 2206.89 139.335C2196.75 114.81 2217.16 96.8741 2217.79 77.7718C2218 71.4776 2211.49 63.9176 2213.82 57.843C2218.79 52.1806 2224.51 49.8357 2231.95 48.967C2242.54 47.7314 2253.01 49.7691 2261.46 56.4156C2265.9 52.9148 2269.01 40.7408 2272.62 35.4049C2283.78 18.9449 2300.71 12.2323 2319.45 8.49953ZM2194.65 653.32C2231.93 655.698 2258.93 665.437 2284.08 694.078C2295.57 707.158 2299.02 719.166 2305.93 734.657C2307.57 733.128 2307.32 728.915 2307.42 726.583C2308 712.934 2307.98 698.793 2312.01 685.588C2313.4 681.064 2320.72 673.639 2320.64 669.959C2327.75 667.278 2333.35 664.987 2340.77 668.399C2348.9 672.132 2354.64 690.782 2358.93 690.711C2362.07 674.081 2347.12 640.218 2337.66 626.465C2329.39 614.454 2318.63 604.735 2306.61 596.603C2321.14 590.855 2330.23 586.635 2345.82 593.435C2365.57 602.049 2381.8 618.9 2392.81 637.097L2393.34 636.349C2391.82 628.148 2389.03 618.973 2385.08 611.605C2379.85 601.854 2361.4 585.853 2368.84 574.04C2372.02 568.993 2380.26 565.961 2385.84 565.034C2391.87 564.032 2397.94 566.313 2403.5 568.437C2403.39 562.229 2394.13 550.497 2389.69 546.309C2380.33 537.47 2368.42 535.081 2355.93 535.637C2344.85 536.131 2333.88 538.869 2322.79 539.025C2302.43 539.313 2279.9 527.989 2263.67 546.381C2259.8 550.759 2259.68 554.321 2253.79 556.283C2253.09 554.412 2254.91 542.572 2254.83 539.089C2254.33 517.735 2246.78 484.514 2255.72 464.927C2257.91 460.135 2260.48 454.904 2263.58 450.642C2264.71 449.104 2268.21 446.315 2268.75 444.909C2263.25 444.405 2255.74 444.567 2251.04 441.668C2249.98 439.503 2249.92 438.851 2250.73 436.509C2253.85 427.561 2262.9 418.747 2271.34 414.981C2294.08 404.828 2325.42 407.705 2348.04 416.691C2354.11 419.103 2359.15 421.988 2364.16 426.219C2364.86 422.446 2360.79 416.387 2358.66 413.272C2342.13 389.062 2311.89 369.146 2283.07 363.782C2256.03 358.751 2228.87 369.641 2202.38 363.515C2178.65 358.027 2164.63 335.366 2139.73 332.975C2138.93 337.505 2131.75 344.996 2127.99 347.574C2125.69 349.151 2124.32 349.692 2121.56 349.56C2113.02 342.044 2120.08 324.302 2111.4 315.983C2103.87 308.754 2092.35 307.134 2082.26 307.305C2071 307.496 2060.15 310.974 2052.26 319.292C2043.22 328.816 2035.06 346.095 2019.87 346.417C2008.41 346.659 1995.92 336.848 1986.27 346.409C1983 349.649 1980.8 353.897 1978.11 357.6C1971.63 366.513 1958.88 368.588 1948.55 368.74C1943.32 368.817 1938.09 367.685 1932.91 367.07C1937.56 379.857 1929.33 405.957 1937.55 425.067C1944.94 442.256 1953.34 445.647 1963.67 458.419C1964.67 459.652 1965.62 461.104 1965.71 462.717C1965.6 462.891 1965.5 463.067 1965.39 463.238C1961.06 470.053 1953.04 474.143 1945.31 475.666C1933.01 478.093 1920.75 475.06 1910.42 468.108C1906.54 465.498 1897.22 453.584 1894.7 452.921C1895.3 457.363 1897.51 461.302 1898.84 465.545C1900.81 471.787 1902.07 478.216 1904.37 484.359C1910.38 500.361 1921.89 522.693 1933.99 534.794C1938.52 539.32 1964.41 561.349 1965.2 563.831C1965.79 565.698 1965.46 567.31 1964.35 568.836C1961.6 572.608 1951.02 578.43 1946.49 579.868C1946.7 580.012 1946.91 580.153 1947.12 580.3C1956.77 587.105 1964.32 599.257 1972.96 607.62C2005.25 638.84 2052.52 668.444 2099.45 661.098C2123.36 657.356 2144.17 641.658 2158.13 622.343C2183.57 587.131 2190.7 541.862 2183.79 499.686C2178.17 465.39 2161.19 430.841 2132.42 410.155C2122.86 403.277 2113.59 398.639 2101.45 400.672C2083.59 403.663 2066.09 414.099 2055.74 429C2049.02 438.666 2044.67 449.851 2046.74 461.777C2047.92 468.586 2052.84 480.197 2058.71 484.202C2061.14 485.859 2064.96 486.944 2067.85 486.157C2070.73 485.372 2072.51 483.025 2073.76 480.468C2076.76 474.352 2076.86 457.823 2081.95 454.674C2085.9 457.808 2087.76 466.11 2088.33 470.909C2089.24 478.539 2087.95 484.626 2083.06 490.723Q2082.62 491.268 2082.15 491.791Q2081.69 492.314 2081.19 492.813Q2080.7 493.313 2080.19 493.788Q2079.67 494.263 2079.13 494.712Q2078.6 495.162 2078.04 495.584Q2077.48 496.007 2076.9 496.402Q2076.32 496.798 2075.72 497.164Q2075.12 497.531 2074.51 497.868Q2073.9 498.205 2073.27 498.512Q2072.64 498.819 2071.99 499.095Q2071.35 499.371 2070.69 499.615Q2070.03 499.859 2069.36 500.072Q2068.7 500.284 2068.02 500.463Q2067.34 500.643 2066.66 500.789Q2065.97 500.935 2065.28 501.048Q2064.59 501.161 2063.89 501.24C2057.06 501.972 2050.81 499.828 2045.56 495.472C2036.57 488.005 2032.42 476.834 2031.5 465.45C2030.15 448.625 2036.26 433.172 2047.1 420.56C2067.44 396.89 2095.95 400.524 2102.88 394.328C2082.99 392.354 2064.47 397.128 2048.88 409.98C2036.05 420.555 2026.29 436.443 2024.71 453.127Q2024.37 456.477 2024.47 459.842Q2024.56 463.208 2025.1 466.532C2026.02 472.1 2032.93 491.559 2030.5 495.008C2027.9 494.185 2027.23 492.843 2025.97 490.437C2016.18 471.743 2015.43 457.216 2022.06 437.474Q2024.23 431.157 2026.88 425.029C2018.16 430.629 2009.84 450.83 2007.69 460.767C2003.91 478.245 2003.56 493.876 2007.07 511.318C2007.92 515.557 2010.67 522.691 2007.97 526.116C2004.94 524.94 2003.59 521.958 2002.33 519.049C1990.26 491.294 1991.87 459.881 2003.05 432.206C2012.15 409.679 2028.39 392.709 2050.89 383.2C2072.68 373.992 2095.71 373.413 2117.7 382.351C2153.17 396.772 2175.58 428.208 2189.92 462.521C2207.32 504.175 2208.19 556.085 2190.82 597.794Q2190.1 599.55 2189.33 601.288Q2188.56 603.026 2187.75 604.745Q2186.94 606.464 2186.09 608.162Q2185.24 609.86 2184.35 611.537Q2183.45 613.214 2182.52 614.868Q2181.58 616.522 2180.61 618.153Q2179.63 619.783 2178.62 621.39Q2177.61 622.996 2176.55 624.577Q2175.5 626.158 2174.41 627.712Q2173.31 629.267 2172.18 630.794Q2171.05 632.321 2169.89 633.82Q2168.72 635.319 2167.52 636.788Q2166.31 638.258 2165.07 639.698Q2163.83 641.137 2162.56 642.546Q2161.28 643.955 2159.97 645.332Q2158.66 646.708 2157.32 648.053Q2155.98 649.397 2154.6 650.708Q2153.23 652.019 2151.82 653.295Q2150.42 654.572 2148.98 655.814Q2147.54 657.055 2146.07 658.261Q2144.6 659.467 2143.11 660.637Q2141.61 661.806 2140.08 662.938Q2138.56 664.07 2137.01 665.165Q2135.45 666.259 2133.87 667.315Q2132.29 668.371 2130.69 669.387Q2129.08 670.404 2127.45 671.381Q2125.83 672.358 2124.17 673.294Q2122.52 674.231 2120.84 675.126Q2119.17 676.022 2117.47 676.876Q2115.77 677.73 2114.06 678.542Q2112.34 679.354 2110.6 680.124Q2108.87 680.893 2107.11 681.62C2067.58 697.878 2029.64 696.316 1990.28 679.842C1944.76 660.796 1914.29 629.524 1887.86 589.081C1879.72 576.628 1871.78 563.797 1866.12 550.001C1858.36 531.092 1849.56 505.632 1846.1 485.739C1844.04 473.856 1844.17 461.906 1844.21 449.89C1844.33 412.174 1849.23 381.591 1863.89 346.784C1874.07 322.598 1903.3 270.537 1928.75 260.514C1931.27 259.521 1932.57 259.569 1935.1 260.376C1936.59 262.738 1936.94 263.314 1936.32 266.2C1935.53 269.926 1919.32 291.14 1915.53 297.91C1896.04 332.721 1879.41 402.63 1899.75 438.979C1905.78 449.767 1915.23 458.461 1927.39 461.679C1932.42 463.012 1940.84 463.821 1945.59 461.118C1946.89 460.381 1947.72 459.518 1948.1 458.116C1947.7 454.771 1932.75 436.406 1929.76 430.522C1907.7 387.108 1924.39 323.673 1953.02 287.274C1989.56 240.816 2046.81 213.314 2104.8 206.397C2150.68 200.924 2192.79 212.158 2233.09 234.199C2242.02 239.085 2250.3 245.061 2259.09 250.179C2256.79 244.353 2252.54 237.094 2254.87 230.946C2261.15 227.365 2273.44 229.969 2280.32 231.874C2337.23 247.63 2392.38 319.65 2420.05 369.186C2453.25 428.632 2476.38 498.38 2474.69 567.053C2473.84 602.047 2466.8 637.01 2457.21 670.539C2444.17 716.101 2425 759.044 2397.1 797.535C2387 811.48 2378.31 823.509 2363.03 832.18C2361.82 832.868 2360.69 833.214 2359.3 833.414L2357.2 832.579C2358.34 825.137 2385.36 789.461 2390.9 780.785C2411.04 749.256 2425.91 716.662 2438.94 681.661C2443.63 669.058 2449.54 654.523 2450.22 641.019C2446.34 642.839 2442.51 644.563 2438.48 646.02C2437.09 654.078 2436 662.664 2433.51 670.452C2427.49 689.293 2391.97 771.018 2378.86 780.161C2377.63 781.021 2376.24 781.394 2374.78 781.653L2372.22 780.884C2370.47 775.919 2372.53 771.245 2374.74 766.666C2379.5 756.812 2385.7 747.778 2390.72 738.108C2397.64 724.774 2403.33 710.351 2408.41 696.226C2419.58 665.18 2426.64 638.677 2415.47 605.823C2411.8 595.031 2405.67 582.09 2395.01 576.81C2391.07 574.857 2386.52 573.638 2382.25 575.223C2380.86 575.737 2379.83 576.652 2378.82 577.709C2377.81 582.738 2383.23 589.505 2385.93 593.569C2389.03 598.22 2392.7 602.792 2395.23 607.776C2405.48 627.993 2407.31 654.503 2402.88 676.481C2401.63 682.676 2398.8 699.426 2393.38 703.148C2392.81 703.537 2392.56 703.59 2391.87 703.867L2390.44 703.19C2388.23 695.005 2390.82 684.754 2390.77 676.277C2390.62 650.606 2373.1 623.81 2351.09 611.141C2344.64 607.43 2337.97 605.011 2330.73 603.331C2349.62 614.104 2361.76 642.373 2367.22 662.353C2372.62 682.098 2373.21 720.083 2362.56 737.891C2362.11 738.641 2360.97 738.655 2360.15 738.854C2352.1 730.211 2351.48 680.865 2332.35 679.857C2330.19 679.744 2329.09 680.028 2327.44 681.486C2314.88 692.55 2318.98 746.335 2317.14 762.977C2312.84 801.722 2294.92 845.094 2255.29 859.216C2242.88 863.641 2230.1 864.313 2217.07 865.136C2247.5 870.501 2271.43 866.821 2297.21 848.758C2310.66 839.334 2321.76 827.67 2331.22 814.304C2334.86 809.174 2338.23 802.86 2342.46 798.273C2344.23 796.351 2344.69 796.336 2347.1 796.475C2348.57 798.698 2348.59 799.956 2348.06 802.603C2343.01 827.69 2317.48 852.661 2296.74 865.653C2272.42 880.89 2243 886.72 2214.88 880.249C2189.26 874.352 2169.26 859.711 2156.05 836.979C2154.12 833.654 2153.25 828.869 2152.15 825.173C2147.17 808.308 2145.16 792.985 2150.39 775.748C2155.85 757.766 2170.19 741.139 2186.77 732.426C2199.22 725.883 2215.41 723.511 2228.95 727.997C2231.2 728.743 2232.38 729.165 2233.85 731.093C2232.14 733.357 2230.31 733.898 2227.5 734.321C2222.2 735.117 2217.27 733.551 2212.03 733.277C2199.33 732.612 2187.34 743.565 2180.05 753.014C2169.62 766.52 2161.76 786.65 2164 803.856C2166.33 821.678 2175.35 841.879 2189.97 852.856C2200.23 860.566 2213.41 865 2226.26 863.15C2245.64 860.359 2264.3 847.566 2275.71 831.942C2290.67 811.467 2299.72 782.07 2295.71 756.774C2291.89 732.602 2278.12 703.575 2257.96 688.949C2238.94 675.151 2215.68 666.867 2192.05 670.749C2177.94 673.067 2171.03 682.307 2158.87 687.098C2189.93 682.498 2214.97 685.248 2240.74 704.369C2257.92 717.116 2270.07 734.104 2273.07 755.722C2276.03 777.033 2274.49 796.708 2261 814.202C2252.33 825.432 2239.92 834.994 2225.53 836.865C2211.69 838.665 2198.28 833.707 2187.51 825.206C2181.13 820.17 2175.81 814.985 2172.47 807.388C2170.99 804.012 2170.01 800.757 2167.79 797.742C2170.35 794.373 2170.63 789.057 2173.85 786.66L2175.75 786.643C2183.73 801.849 2192.47 815.776 2209.95 821.217C2218.29 823.813 2226.27 822.907 2233.94 818.76C2244.54 813.031 2253.08 803.217 2256.41 791.574C2261.11 775.13 2256.7 753.092 2248.39 738.401C2242.2 727.448 2231.52 715.937 2219.15 712.422C2196.25 714.001 2175.8 720.61 2160.36 738.313C2139.37 762.38 2133.47 796.993 2135.7 827.948C2137.12 847.735 2148.16 864.92 2162.91 877.686C2189.13 900.378 2225.57 908.288 2259.48 905.708C2307.02 902.089 2355.37 877.439 2386.4 841.262C2430.36 790.007 2456.19 717.876 2472.7 653.285C2476.24 639.469 2480.41 625.53 2482.19 611.355C2486.71 575.218 2485.27 530.358 2482.39 493.79C2478.5 444.482 2446.89 371.266 2421.99 328.678C2403.31 296.716 2380.43 266.709 2359.88 235.864C2329.16 189.754 2267 98.3706 2311.52 45.1552C2319.05 36.1488 2329.11 30.2152 2340.96 29.3735C2345.49 29.0515 2349.93 29.6948 2354.37 30.4974C2352.4 26.3472 2348.31 23.5517 2344.07 22.0429C2331.52 17.5786 2315.29 21.4973 2303.55 27.1083C2291.14 33.0451 2279.88 44.9018 2275.51 57.9205C2264.7 90.0598 2283.01 142.382 2297.83 171.454C2303.35 182.282 2330.76 228.452 2328.58 236.626C2328.43 237.171 2328.23 237.452 2327.95 237.969C2325.16 238.308 2322.18 236.366 2319.79 235.006C2295.22 221.018 2273.54 202.437 2247.08 191.404C2112.4 135.239 1959.27 185.786 1871.28 298.505C1862.41 309.872 1856.06 322.597 1849.71 335.466C1843.71 347.63 1837.61 359.976 1833.27 372.845C1822.83 403.824 1820.73 440.759 1824.74 473.252C1826.53 487.76 1831.2 501.776 1835.55 515.676C1854.85 577.208 1887.31 629.075 1938.53 668.801C1976.28 698.077 2021.43 718.298 2070.31 712.103C2118.99 705.934 2158.79 675.901 2188.12 637.973C2215.97 601.935 2225.02 554.417 2219.16 509.956C2212.84 461.944 2193.18 414.463 2153.69 384.314C2132.97 368.496 2107.86 359.166 2081.6 362.792C2054.77 366.497 2021.61 384.809 2005.28 406.561C1988.09 429.462 1977.2 458.325 1981.33 487.275C1986.16 521.17 2001.34 548.056 2028.78 568.534C2046.77 581.957 2068.87 590.597 2091.61 587.242C2107.52 584.896 2119.58 576.054 2128.9 563.406C2135.22 554.827 2146.27 536.141 2144.89 525.217C2144.75 524.099 2144.29 523.044 2143.78 522.047C2148.91 516.27 2148.67 504.07 2148.33 496.624C2147.37 475.468 2141.24 448.524 2124.78 433.849C2112.19 422.623 2099.28 420.317 2082.99 421.365C2087.82 422.768 2092.8 424.115 2097.46 426.023C2114.14 432.854 2128.19 445.654 2135.18 462.362C2138.9 471.25 2145.17 489.97 2141.53 498.9C2139.93 498.343 2139.37 497.338 2138.7 495.79C2136.09 489.758 2135.15 482.323 2133.15 475.98C2127.16 456.908 2115.1 437.739 2096.15 429.319C2090.82 426.952 2084.58 425.986 2079.02 428.184C2074.24 430.076 2071.54 436.036 2066.73 437.111C2066.55 437.151 2066.37 437.204 2066.19 437.247C2064.96 437.537 2064.11 437.447 2062.9 437.158C2062.35 434.725 2063.51 433.364 2064.8 431.312C2070.23 422.682 2078.85 417.858 2088.7 415.745C2100.88 413.131 2115.09 417.427 2125.23 424.221C2144.19 436.936 2154.71 457.007 2158.96 478.965C2164.59 508.004 2162.12 545.964 2145.11 571.117Q2144.12 572.579 2143.05 573.991Q2141.99 575.403 2140.86 576.762Q2139.73 578.121 2138.54 579.423Q2137.34 580.725 2136.08 581.968Q2134.83 583.21 2133.51 584.391Q2132.2 585.571 2130.83 586.685Q2129.45 587.8 2128.03 588.847Q2126.61 589.894 2125.13 590.87Q2123.66 591.847 2122.14 592.751Q2120.62 593.654 2119.06 594.483Q2117.5 595.312 2115.9 596.064Q2114.3 596.816 2112.67 597.49Q2111.03 598.163 2109.37 598.756Q2107.71 599.35 2106.01 599.861Q2104.32 600.373 2102.61 600.802Q2100.89 601.231 2099.16 601.576C2073.43 606.534 2044.51 594.949 2023.51 580.683C1993.95 560.603 1975.38 530.913 1968.9 496.058C1962.74 462.937 1972.26 432.907 1991.13 405.531C2009.55 378.81 2036.53 360.524 2068.65 354.651C2100.9 348.751 2134.19 357.475 2160.99 376.007C2201.43 403.964 2224.36 451.14 2232.88 498.484C2240.86 542.874 2230.52 604.433 2204.52 641.943C2201.73 645.97 2198.55 650.315 2194.65 653.32ZM225.104 513.995C182.585 522.454 148.607 525.46 110.7 500.242C82.7217 481.629 65.4405 450.577 59.0283 418.029C49.7781 371.074 65.3274 323.999 91.4237 285.244C128.351 230.403 185.466 195.742 249.905 183.247C359.235 162.048 483.964 191.2 575.64 253.331C602.159 271.304 625.734 290.782 648.364 313.445C651.34 316.426 654.828 318.981 657.656 322.063C662.705 327.564 667.188 333.62 672.05 339.291C679.786 348.316 687.44 356.827 694.119 366.748C704.181 381.692 712.2 397.597 719.679 413.94C727.61 431.268 734.419 448.778 737.997 467.569C746.139 510.337 743.207 545.153 718.385 581.494C703.914 602.681 684.755 616.946 663.398 630.615C698.628 634.59 730.772 632.419 759.325 609.652C768.206 602.571 774.43 594.535 779.599 584.454C780.748 582.213 782.33 577.454 783.947 575.739C785.62 573.965 787.485 574.18 789.677 574.419C792.398 574.715 795.2 575.366 797.237 577.26C797.199 579.725 796.883 583.257 798.885 585.101C802.47 588.403 809.062 589.528 813.219 592.539C818.945 596.685 821.003 606.914 828.61 607.534L830.916 605.812C831.294 602.897 830.859 601.421 829.007 599.06C821.785 589.856 812.235 582.143 803.28 574.71C801.026 572.839 798.311 571.624 796.273 569.478C794.614 567.732 793.743 565.927 792.905 563.684L793.291 562.602C804.982 563.105 828.041 592.499 834.451 594.753C836.596 595.507 838.056 594.254 839.711 593.162C839.896 588.485 833.758 583.308 830.689 579.98C817.224 565.383 800.046 556.476 786.19 542.46C812.015 550.068 825.751 565.582 844.025 583.694C845.472 580.255 847.477 576.602 846.823 572.789C837.11 555.495 804.788 542.76 790.104 529.777C818.13 537.563 830.28 546.777 850.447 567.331C850.308 559.296 850.86 554.508 844.617 548.543C829.072 533.69 807.602 527.358 790.941 514.468C811.062 519.559 837.228 529.255 849.675 546.933L851.025 547.499C851.88 544.004 853.038 536.588 851.602 533.436C842.007 527.481 802.678 506.534 797.757 500.239L798.786 498.677L797.29 498.996C797.485 498.979 797.679 498.955 797.874 498.946C813.444 498.224 848.454 527.538 853.118 526.574C853.732 523.524 851.76 520.346 850.111 517.873C838.381 500.291 812.734 493.972 794.977 484.344C793.656 483.627 791.067 482.565 790.831 481.084C804.651 479.52 840.062 499.953 851.642 508.413C850.384 502.635 848.968 497.296 846.735 491.808C836.183 486.087 825.619 480.553 814.667 475.632C804.021 470.85 792.568 466.813 782.645 460.643C806.898 464.385 824.716 475.745 846.612 485.477C844.132 480.073 841.855 474.222 838.739 469.168C822.113 459.839 800.224 455.624 785.429 443.807L785.633 442.826C798.107 443.948 810.805 447.911 822.035 453.399C825.032 454.863 827.769 457.32 830.813 458.536C832.876 459.36 833.761 459.475 835.804 458.563C836.481 455.106 834.281 451.483 832.37 448.705C824.499 437.257 783.327 432.587 777.062 424.02L778.152 422.741C792.259 422.306 817.784 434.094 830.142 441.184C826.712 435.512 823.352 429.775 819.77 424.198C803.185 417.443 777.424 412.017 763.763 402.288C783.189 404.27 799.112 410.783 817.295 417.258C811.938 411.623 808.639 404.633 803.292 399.042C785.405 394.082 765.722 390.177 748.786 382.559C766.328 383.924 781.979 387.782 798.896 392.404C795.089 387.196 791.525 381.858 787.987 376.465C780.152 374.858 748.862 370.042 744.183 364.38C744.05 364.218 743.966 364.022 743.858 363.843C755.388 361.355 773.889 368.126 785.316 371.281C779.175 366.001 773.524 360.502 767.968 354.611C758.185 352.803 734.692 350.189 727.619 343.488L728.359 342.676C738.896 342.205 751.029 344.935 761.283 347.492C756.761 342.512 752.086 337.775 747.249 333.102C732.58 330.363 717.18 328.396 703.526 322.111Q722.34 323.58 740.951 326.708L725.908 312.916C712.043 311.786 698.65 310.872 686.056 304.336C696.27 305.288 708.503 308.219 718.631 307.386L719.137 306.54L717.378 305.307C712.944 302.065 708.539 298.355 703.205 296.8C692.839 293.776 680.207 294.404 670.572 290.026L670.655 289.308C678.36 285.396 690.796 289.652 699.179 290.512C684.455 279.194 675.977 278.9 659.805 272.436C664.764 272.458 669.753 272.364 674.706 272.592C648.719 257.552 621.735 244.453 594.751 231.317C513.644 191.837 427.549 155.826 335.987 154.078C306.762 153.52 279.075 159.319 250.189 161.657L241.823 152.167C308.756 120.824 427.831 150.445 494.62 174.642C535.37 189.405 574.066 208.015 613.145 226.631C650.201 244.283 687.487 261.961 723.811 281.078C741.466 290.369 758.678 300.506 776.384 309.695C815.151 329.814 855.237 347.764 895.104 365.577C920.769 377.044 946.314 389.442 972.4 399.898Q985.083 404.925 997.919 409.545Q1010.76 414.165 1023.73 418.374Q1036.71 422.582 1049.82 426.374Q1062.92 430.166 1076.14 433.538Q1089.36 436.91 1102.68 439.859Q1116 442.808 1129.41 445.33Q1142.82 447.853 1156.3 449.946Q1169.78 452.04 1183.32 453.702C1245.87 461.912 1312.85 462.449 1371.19 435.136C1403.7 419.919 1434.19 395.069 1446.56 360.344C1453.06 342.094 1453.49 318.567 1444.86 300.929C1435.06 280.921 1413.55 263.024 1392.51 256.023C1374.2 249.934 1353.38 251.844 1336.2 260.468C1322.19 267.503 1310.36 278.41 1305.31 293.637C1301.9 303.933 1303.52 317.206 1308.55 326.844C1312.82 335.016 1324.92 343.237 1333.56 345.735C1344.01 348.758 1355.76 348.526 1365.45 343.212C1374.68 338.156 1391.26 311.957 1401.03 315.025C1405.52 316.435 1407.93 322.151 1409.68 326.087C1416.39 341.159 1415.71 353.913 1409.59 369.122C1400.43 391.883 1367.89 415.504 1345.94 424.597C1278.19 452.661 1193.35 444.826 1122.84 432.011C1098.51 427.59 1073.15 422.605 1050.25 413.05C1047.21 411.781 1044.34 410.388 1041.58 408.566L1041.2 407.518C1051.9 406.727 1082.83 418.56 1095.97 421.517C1153.89 434.543 1215.08 440.943 1274.28 434.38C1284.69 433.225 1297.88 432.053 1307.48 427.626C1290.4 426.014 1267.89 422.97 1256.17 408.803C1253.86 406.013 1251.82 402.856 1250.47 399.488L1250.76 397.329C1259.91 391.424 1274.64 395.086 1284.35 388.744C1278.74 383.515 1269.87 380.546 1263.26 376.409C1258.65 379.421 1253.08 381.52 1248 383.684C1207.33 400.997 1160.92 397.835 1118.56 388.919C1084.68 381.787 1050.13 371.127 1019.9 354.155C1040.78 342.559 1068.2 322.524 1075.02 298.199C1076.96 291.24 1077.26 275.769 1073.4 269.243C1072.09 267.023 1071.43 266.815 1069.11 266.197C1064.37 267.625 1052.49 279.713 1046.38 283.669C1017.18 302.55 968.037 312.854 935.657 296.728C948.296 287.126 957.219 279.414 965.37 265.566L965 264.083C954.847 261.43 937.182 264.157 925.489 263.259Q903.128 261.572 880.986 258.017Q858.845 254.463 837.079 249.066C779.546 235.337 722.694 217.695 666.319 199.857C559.304 165.995 430.809 121.49 317.81 129.417C235.23 135.298 149.766 161.482 93.7606 225.896C54.566 270.974 24.7943 331.042 29.1951 392.221C32.0799 432.325 47.8963 471.54 78.758 498.184Q79.9779 499.239 81.2234 500.264Q82.4689 501.289 83.7394 502.283Q85.0098 503.277 86.3043 504.239Q87.5988 505.202 88.9167 506.132Q90.2345 507.062 91.5749 507.959Q92.9152 508.857 94.2773 509.721Q95.6394 510.585 97.0223 511.415Q98.4053 512.245 99.8083 513.041Q101.211 513.837 102.633 514.598Q104.056 515.359 105.496 516.085Q106.937 516.811 108.395 517.501Q109.853 518.191 111.327 518.845Q112.802 519.499 114.292 520.116Q115.782 520.734 117.287 521.314Q118.792 521.895 120.311 522.438Q121.83 522.981 123.361 523.487Q124.893 523.993 126.437 524.46Q127.981 524.928 129.535 525.358Q131.09 525.787 132.655 526.178Q134.22 526.569 135.794 526.922Q137.368 527.274 138.95 527.588Q140.533 527.901 142.122 528.175Q143.712 528.45 145.307 528.685Q146.903 528.92 148.504 529.116Q150.105 529.312 151.711 529.468Q153.316 529.624 154.925 529.741Q156.534 529.857 158.145 529.934Q159.756 530.011 161.369 530.048Q162.982 530.086 164.595 530.083Q166.208 530.08 167.82 530.038Q169.433 529.996 171.044 529.914Q172.655 529.832 174.263 529.71C192.159 528.332 209.761 523.481 225.104 513.995ZM195.834 398.635C212.083 390.62 229.476 387.376 247.057 393.321C256.225 396.42 265.419 401.923 269.798 410.909C274.166 419.869 272.512 429.921 269.249 438.952C262.273 458.259 246.885 473.556 228.42 482.172C208.536 491.449 186.315 493.881 165.518 486.209C148.78 480.034 133.727 466.554 126.322 450.245C115.638 426.716 117.812 393.623 126.829 369.823C128.473 365.483 131.975 361.342 134.271 357.208C137.446 351.492 140.12 345.334 143.919 339.996C164.068 311.684 197.878 289.662 229.494 276.035C281.297 253.707 366.118 248.9 418.427 269.759C454.774 284.253 494.884 313.753 510.625 350.692C519.698 371.984 519.626 395.217 510.853 416.63C505.571 429.521 497.16 438.057 487.158 447.443C521.313 442.378 549.381 432.925 570.899 404.013C582.451 388.491 590.897 367.667 587.768 348.037C585.046 330.956 573.995 316.347 561.667 304.785Q558.648 302.061 555.561 299.413Q552.474 296.765 549.322 294.195Q546.17 291.626 542.954 289.136Q539.739 286.646 536.462 284.237Q533.185 281.829 529.848 279.503Q526.512 277.178 523.118 274.937Q519.725 272.695 516.276 270.54Q512.827 268.384 509.326 266.316Q505.824 264.248 502.272 262.268Q498.719 260.288 495.118 258.398Q491.518 256.508 487.87 254.708Q484.223 252.909 480.532 251.201Q476.841 249.494 473.108 247.88Q469.376 246.265 465.604 244.745Q461.832 243.225 458.023 241.799Q454.214 240.374 450.37 239.045Q446.527 237.716 442.651 236.483Q438.776 235.25 434.87 234.115Q430.965 232.98 427.033 231.944Q423.1 230.907 419.143 229.969Q415.186 229.031 411.206 228.192Q407.227 227.354 403.227 226.616Q399.228 225.877 395.212 225.239Q391.195 224.601 387.164 224.064Q383.133 223.527 379.089 223.091Q375.046 222.656 370.993 222.321Q366.94 221.987 362.879 221.754Q358.819 221.522 354.754 221.391Q350.69 221.26 346.623 221.231Q342.556 221.202 338.49 221.275Q334.424 221.348 330.361 221.523Q326.297 221.698 322.24 221.975C274.828 224.804 230.061 238.824 188.353 261.378C175.078 268.556 162.919 278.739 148.544 283.599C153.159 275.934 158.1 269.217 164.851 263.28C188.454 242.525 233.297 224.79 263.963 217.152C346.78 196.523 446.54 212.919 519.297 256.768C582.537 294.881 655.71 374.338 673.72 447.236C683.97 488.725 687.617 529.334 676.395 571.042C673.668 581.174 670.676 591.314 665.148 600.325C662.893 603.999 660.135 607.398 657.461 610.772C679.266 603.34 700.408 582.419 710.512 562.006C728.767 525.125 727.295 480.06 714.226 441.858C681.923 347.429 608.758 280.772 520.822 237.758Q515.774 235.314 510.667 232.998Q505.56 230.681 500.397 228.492Q495.234 226.304 490.017 224.245Q484.801 222.186 479.535 220.257Q474.269 218.329 468.956 216.533Q463.644 214.737 458.288 213.074Q452.933 211.411 447.537 209.882Q442.141 208.353 436.709 206.959Q431.277 205.566 425.812 204.308Q420.347 203.05 414.852 201.93Q409.358 200.809 403.836 199.825Q398.315 198.842 392.771 197.997Q387.228 197.151 381.664 196.445Q376.101 195.738 370.522 195.17Q364.943 194.603 359.351 194.175Q353.76 193.746 348.159 193.458C334.423 192.678 319.811 192.008 306.124 193.42C236.895 197.954 170.264 221.38 123.457 274.889C94.8355 307.608 73.2395 350.092 76.2522 394.699C78.3872 426.31 90.5498 456.614 114.709 477.666C135.051 495.392 164.091 505.305 191.033 503.401C219.949 501.358 243.797 487.23 262.553 465.568C279.441 446.063 287.345 424.31 285.365 398.45C284.328 384.907 279.732 372.667 269.139 363.651C257.508 353.753 242.114 349.497 227.031 350.906C218.562 351.698 209.963 354.038 204.296 360.757C196.207 370.349 194.497 385.2 195.689 397.245L195.834 398.635ZM1959.39 353.17C1967.87 348.562 1972.99 338.107 1980.67 332.56C1988.54 326.872 2007.8 331.574 2017.03 332.702C2028.26 329.667 2033.01 320.051 2040.53 312.038C2056.26 295.287 2083.77 291.296 2105.05 297.769C2109.38 299.087 2116.97 303.963 2120.34 304.447C2120.45 304.462 2121.58 303.986 2121.62 303.966C2124.45 302.689 2126.66 299.835 2128.82 297.625C2139.1 287.089 2149.91 280.463 2165.12 280.176C2172.67 280.034 2184.4 280.775 2190.02 286.19C2192.2 288.281 2194.08 290.625 2195.12 293.5C2196 295.93 2196.4 297.566 2195.37 299.927C2189.57 303.033 2176.73 297.282 2170.28 296.125C2162.81 294.783 2153.55 296.653 2147.37 301.15C2142.41 304.761 2137.71 313.102 2136.7 319.154C2137.56 319.539 2150.18 316.733 2160.72 321.07C2176.04 327.38 2185.94 342.126 2201.6 347.51C2219.8 353.764 2242.14 348.114 2260.95 347.554Q2265.09 347.455 2269.22 347.63Q2273.36 347.804 2277.47 348.252Q2281.59 348.699 2285.66 349.417Q2289.74 350.136 2293.76 351.122Q2295.18 351.466 2296.6 351.846Q2298.01 352.225 2299.41 352.639Q2300.81 353.053 2302.21 353.502Q2303.6 353.951 2304.98 354.434Q2306.36 354.917 2307.73 355.434Q2309.1 355.951 2310.46 356.502Q2311.81 357.052 2313.15 357.636Q2314.5 358.22 2315.82 358.837Q2317.15 359.454 2318.46 360.104Q2319.77 360.753 2321.07 361.435Q2322.36 362.117 2323.64 362.83Q2324.92 363.544 2326.17 364.289Q2327.43 365.033 2328.67 365.809Q2329.92 366.585 2331.14 367.391Q2332.36 368.197 2333.56 369.033Q2334.76 369.87 2335.94 370.735Q2337.12 371.601 2338.28 372.495Q2339.44 373.389 2340.57 374.312Q2341.71 375.235 2342.82 376.186Q2343.93 377.136 2345.02 378.114Q2346.11 379.091 2347.17 380.096Q2348.24 381.1 2349.28 382.13Q2350.31 383.161 2351.33 384.216Q2352.34 385.272 2353.33 386.353Q2354.31 387.433 2355.27 388.537Q2356.23 389.642 2357.17 390.77Q2358.1 391.897 2359 393.048Q2359.91 394.198 2360.78 395.371Q2361.66 396.543 2362.5 397.737Q2363.35 398.931 2364.17 400.145Q2364.98 401.36 2365.77 402.594Q2366.55 403.828 2367.31 405.081C2372.74 414.027 2382.85 430.413 2380.22 441.144C2388.12 445.618 2394.69 452.999 2400.13 460.18L2401.15 459.837C2401.19 459.511 2401.25 459.187 2401.27 458.86C2402.07 448.412 2363.36 384.096 2354.01 372.837C2326.4 339.576 2282.9 319.166 2239.91 318.303C2222.91 317.961 2205.45 320.655 2188.53 318.705C2185.2 318.321 2180.96 317.501 2178.79 314.762L2180.03 313.523C2188.3 311.624 2198.72 313.272 2207.28 313.088C2246.95 312.238 2281.77 311.074 2318.17 329.776C2317.84 329.327 2317.52 328.878 2317.17 328.446L2316.68 327.846C2303.62 311.517 2273.37 314.541 2264.18 307.57C2265.35 306.507 2266.26 306.409 2267.8 306.192C2277.73 304.791 2296.35 307.456 2304.74 313.649C2304.14 312.597 2303.46 311.658 2302.62 310.782C2281.78 288.881 2253.73 303.246 2228.5 302.781C2250 295.797 2268.08 290.41 2290.6 296.676C2290.45 296.526 2290.31 296.372 2290.16 296.227C2270.39 277.081 2233.98 293.259 2211.05 293.614L2210.44 293.619C2230.93 285.451 2251.57 279.968 2273.68 282.908C2272.8 279.566 2269.27 277.371 2266.42 275.627C2253.22 276.096 2239.64 276.905 2226.92 280.671C2220.84 282.472 2210.99 288.41 2204.98 287.351L2205.52 285.955C2220.35 274.627 2242.43 272.634 2260.33 270.76C2259.15 267.887 2254.72 266.115 2252.15 264.721C2240.34 264.174 2231.13 265.857 2220.1 270.238C2216.36 271.726 2213.07 273.07 2209.11 271.36L2209.45 269.96C2219.66 263.302 2233.27 261.489 2245.04 259.764C2243.64 257.355 2238.72 254.999 2236.13 253.818C2219.07 257.492 2204.84 266.146 2188.51 271.471L2187.39 270.891L2186.12 271.613C2186.17 271.413 2186.2 271.203 2186.29 271.014C2189.3 264.518 2221.86 252.375 2229.71 249.891C2227.23 247.157 2223.81 246.082 2220.37 245.077C2215.96 247.853 2210.14 249.032 2205.35 251.274C2196.39 255.475 2188.24 260.603 2179.75 265.621C2176.34 267.639 2170.74 271.67 2166.79 270.655C2166.94 270.069 2166.98 269.766 2167.23 269.25C2172.85 257.806 2204.06 246.998 2216.01 242.022C2213.1 240.203 2210.1 238.869 2206.96 237.52C2194.63 242.5 2182.01 248.406 2171.06 256.044C2167.5 258.528 2164.64 261.843 2161.11 264.299C2158.46 266.137 2151.8 270.367 2148.71 269.828C2154.87 258.759 2172.24 248.429 2183.49 243.213C2189.66 240.355 2196.12 238.569 2201.86 234.828L2201.65 233.849C2199.07 232.649 2195.84 232.741 2193.04 232.833C2170.65 233.565 2158.77 259.283 2137.94 260.059C2148.61 251.592 2158.39 242.802 2170.33 236.064C2175.72 233.022 2181.45 231.071 2186.88 228.213C2184.24 226.094 2181.83 225.043 2178.66 223.904C2166.7 229.932 2153.64 235.213 2143.03 243.537C2135.87 249.158 2131.11 256.267 2123.01 261.164C2122.92 261.321 2122.85 261.487 2122.74 261.633C2120.87 264.176 2118.25 264.764 2115.34 265.163L2114.62 264.485C2123.51 254.635 2137.52 240.263 2149.15 234.12C2156.71 230.125 2166.98 227.575 2173.52 222.238C2169.36 220.024 2164.57 219.183 2159.99 218.251C2159.63 218.933 2159.57 219.132 2159.13 219.698C2155.43 224.418 2146.23 227.849 2141.2 231.545C2132.61 237.873 2124.87 245.052 2117.27 252.524C2113.46 256.279 2109.45 261.093 2105.14 264.221C2103.25 265.6 2100.83 266.025 2098.55 266.228L2098 264.99C2104.35 251.493 2141.27 226.971 2154.72 217.607C2154.48 217.465 2154.26 217.265 2153.99 217.18C2134.19 210.886 2100.02 263.311 2084.56 269.872C2082.99 270.536 2082.85 270.637 2081.22 269.994C2081.77 267.177 2085.68 263.907 2087.59 261.571C2090.11 258.497 2091.83 255.025 2094.51 252.077C2107.99 237.218 2124.83 227.838 2140.2 215.428L2139.86 213.168C2132.48 215.633 2125.51 219.948 2118.91 223.993C2094.6 238.873 2088.37 248.313 2070.33 269.197C2067.98 271.925 2066.54 273.289 2062.89 273.542L2061.7 272.077L2062.23 269.278C2070.82 259.256 2078.62 248.272 2088.6 239.498C2098.93 230.411 2112.93 223.53 2124.76 216.47L2123.18 214.258L2125.21 213.948L2126.22 214.877L2126.75 214.722L2126.21 214.197Q2124.51 214.18 2122.81 214.255C2100.17 215.332 2067.19 254.338 2052.43 270.672C2050.37 272.952 2048.03 275.952 2044.74 276.12L2043.4 274.686C2043.59 265.537 2077.06 236.499 2085 230.714C2091.73 225.811 2104.99 220.34 2109.59 213.713C2109.68 213.581 2109.76 213.443 2109.85 213.308C2072.52 219.218 2037.47 230.704 2006.3 252.625C1986.41 266.62 1962.19 292.413 1950.84 314.242C1947.9 319.906 1938.46 349.145 1937.36 355.427C1937.49 355.519 1937.61 355.63 1937.74 355.702C1941.74 357.776 1954.96 354.336 1959.39 353.17ZM1519.41 323.745C1553.37 329.065 1562.15 345.613 1589.95 360.069C1664.51 398.842 1761.33 343.205 1821.57 299.3C1842.35 284.155 1862.1 267.729 1882.66 252.33C1893.93 243.891 1906.28 236.734 1917.29 228.002C1920.43 225.514 1926.24 221.518 1927.62 217.796C1914.6 218.596 1901.78 218.944 1888.75 218.215C1887.52 220.349 1849.3 255.024 1846.03 256.49C1843.5 265.771 1794.28 297.023 1783.51 303.154C1738.2 328.97 1693.11 333.782 1642.19 332.885C1673.47 339.321 1702.78 339.672 1733.71 330.711C1740.07 328.868 1747.16 326.922 1753.05 323.877C1750.67 328.848 1741.05 332.102 1735.85 333.899C1696.19 347.622 1655.86 348.618 1617.79 329.906C1610.5 326.326 1600.91 321.349 1596.2 314.537L1596.23 313.81C1606.78 312.683 1636.21 322.015 1650.17 323.32C1706.37 328.578 1755.34 311.025 1800.98 279.404C1807.71 274.745 1817.53 270.552 1822.81 264.3C1823.53 263.442 1824.12 262.523 1824.66 261.536Q1822.95 262.135 1821.22 262.691Q1819.49 263.247 1817.75 263.761Q1816.01 264.275 1814.26 264.747Q1812.51 265.218 1810.74 265.646Q1808.98 266.074 1807.21 266.459Q1805.43 266.843 1803.65 267.185Q1801.87 267.526 1800.08 267.823Q1798.29 268.121 1796.49 268.374Q1794.69 268.628 1792.89 268.837Q1791.09 269.046 1789.28 269.212Q1787.47 269.377 1785.66 269.498Q1783.85 269.619 1782.04 269.695Q1780.23 269.771 1778.41 269.803Q1776.6 269.836 1774.78 269.823Q1772.97 269.811 1771.15 269.754Q1769.34 269.697 1767.53 269.596Q1765.72 269.494 1763.91 269.349Q1762.1 269.203 1760.29 269.013Q1758.49 268.823 1756.69 268.589Q1754.89 268.355 1753.1 268.077Q1751.3 267.799 1749.52 267.477Q1747.73 267.155 1745.95 266.789Q1744.18 266.424 1742.41 266.015Q1740.64 265.606 1738.88 265.154Q1737.12 264.701 1735.38 264.206Q1733.63 263.711 1731.9 263.173Q1730.17 262.636 1728.45 262.055Q1726.73 261.475 1725.02 260.853Q1723.32 260.231 1721.63 259.568Q1719.94 258.904 1718.27 258.2Q1716.59 257.495 1714.94 256.749Q1713.29 256.004 1711.65 255.218C1702.92 251.014 1693.39 245.574 1686.4 238.819C1682.47 235.024 1669.19 217.058 1665.93 216.492C1666.85 222.181 1666.68 227.896 1667.56 233.544C1670.53 252.793 1680.62 267.52 1692.79 282.093C1696.88 286.993 1708.51 299.259 1707.24 305.531C1704.42 307.074 1700.79 306.553 1697.81 305.693C1687.37 302.677 1678.13 294.108 1668.08 289.727C1635.31 275.447 1587.58 270.689 1555.01 287.949C1542.31 294.683 1534.19 304.482 1525.68 315.783C1523.83 318.241 1521.97 322.131 1519.41 323.745ZM787.733 652.181C820.279 656.89 851.817 655.006 879.098 634.72C900.086 619.113 914.905 592.263 919.183 566.729C920.742 557.422 921.214 545.219 924.466 536.468C925.805 532.865 927.779 532.115 931.413 532.669C942.786 534.402 956.187 542.244 966.682 547.055C983.514 554.77 1000.71 562.998 1018.27 568.875C999.154 551.099 971.613 540.899 947.248 532.261C941.265 530.139 922.014 525.629 918.259 522.052C935.497 516.807 972.298 535.214 988.055 542.949C994.365 545.864 1000.66 548.961 1007.12 551.504C986.733 531.867 965.346 522.329 938.862 513.351C932.69 511.258 923.613 509.587 918.584 505.777C929.795 501.243 952.287 511.164 962.761 515.626Q975.727 521.251 988.473 527.359C981.29 519.776 974.099 512.897 964.882 507.828C955.552 502.698 914.017 491.051 911.255 487.443C927.564 484.543 950.35 494.792 964.964 501.039C944.77 480.964 940.78 482.588 914.731 475.487C910.509 474.336 904.727 473.362 901.017 471.129L901.372 470.458L899.419 470.361C901.412 468.542 905.185 468.906 907.833 469.055C920.742 469.783 934.283 475.106 946.584 478.888C934.445 468.197 924.142 462.809 908.488 458.903C903.352 457.622 890.226 457.083 887.153 453.137C887.737 452.022 887.604 451.696 888.868 451.233C896.97 448.265 920.501 456.882 928.46 460.395C923.53 455.091 918.707 449.532 913.441 444.566C904.385 442.993 890.046 441.761 882.217 436.687C887.042 433.508 902.904 436.958 908.565 438.02C905.682 434.979 902.658 431.995 899.992 428.763C891.681 425.852 872.975 424.959 867.022 419.361C873.408 416.148 888.257 420.132 895.081 421.672C883.62 413.246 871.596 407.305 858.392 402.12L871.222 401.57C837.875 373.16 805.177 344.804 767.294 322.366C760.449 318.311 752.592 313.276 745.114 310.692C783.592 344.797 805.784 371.73 831.382 416.361C850.628 449.917 864.957 485.434 867.306 524.506C869.469 560.462 859.439 590.706 835.42 617.671Q832.944 620.431 830.325 623.055Q827.705 625.68 824.949 628.161Q822.194 630.642 819.31 632.972Q816.426 635.303 813.422 637.477Q810.419 639.651 807.303 641.661Q804.188 643.672 800.97 645.514Q797.752 647.356 794.44 649.024Q791.129 650.692 787.733 652.181ZM1612.41 458.078C1650.91 464.131 1694.56 510.142 1733.78 481.697C1737.89 478.714 1747.39 469.039 1752.38 469.672C1757.51 485.909 1755.95 500.994 1769.21 514.063C1774.9 519.675 1782.06 523.905 1787.3 529.897C1792.06 524.768 1801.12 469.781 1800.58 461.152C1800.52 460.081 1800.27 459.011 1799.99 457.98C1801.86 455.395 1803.03 450.58 1802.56 447.408C1802.34 445.968 1802.15 445.316 1800.96 444.382C1800.31 443.879 1799.89 443.897 1799.12 443.737C1795.24 442.932 1792.25 437.507 1790.3 434.347C1788.44 431.31 1787.01 427.839 1784.76 425.064C1780.51 419.825 1771.66 414.458 1770.84 407.352L1771.92 406.74C1776.3 408.549 1779.39 412.063 1782.85 415.168C1785.79 417.807 1800.74 439.745 1801.86 439.74C1804.32 433.152 1802.2 427.806 1799.35 421.634C1796.23 414.866 1778.69 387.056 1773.72 384.348C1770.98 384.214 1770.67 384.302 1768.33 385.731C1768.13 386.881 1767.77 387.684 1768.24 388.776C1770.13 393.163 1770.24 397.659 1769.34 402.296L1767.87 403.475C1764.91 402.066 1763.36 398.873 1761.91 396.061C1759.97 396.627 1759.8 397.799 1758.8 399.503C1757.93 406.18 1765.15 411.115 1764.1 416.807L1762.58 417.838C1756.65 415.596 1753.92 409.321 1748.76 406.112C1746.05 416.828 1730.12 428.16 1721.13 433.539C1708.53 441.077 1695.11 445.51 1680.41 446.028C1693.36 438.007 1706.79 430.377 1718.45 420.511C1736.07 405.61 1750.06 386.085 1766.72 370.044C1773.11 363.893 1815.84 327.517 1817.31 325.055L1815.81 323.499C1790.84 341.964 1756.87 357.464 1727.93 368.731C1709.71 375.827 1689.21 381.863 1672.77 392.519C1659.98 400.815 1647.54 409.767 1637.55 421.413C1630.7 429.397 1619.1 454.118 1612.41 458.078ZM2087.02 903.024C2094.2 909.809 2100.58 917.376 2107.66 924.264C2132.09 948.022 2158.16 961.684 2192.8 960.901C2199.92 960.74 2215.76 955.432 2221.38 959.243C2225 965.312 2226.83 972.092 2230.01 978.36C2234.38 986.994 2245.57 999.921 2255.08 1002.57C2256.67 1003.01 2258.37 1003.07 2260.02 1003.1L2260.48 1001.78C2255.37 993.356 2253.12 984.741 2255.41 974.947C2258.14 963.279 2267.09 954.923 2276.99 948.931C2288.72 941.83 2328.62 928.085 2334.69 920.612L2334.23 918.501C2335.46 915.101 2334.85 913.982 2333.37 910.73C2332.07 907.879 2329.19 904.37 2329.63 901.23L2331.78 899.261C2334.2 899.672 2335.22 900.368 2336.59 902.485C2338.28 905.076 2342.43 913.905 2342.03 916.88C2344.93 915.079 2348.65 913.429 2349.62 909.933C2349.95 903.101 2340.63 898.689 2347.61 892.5C2349.4 890.911 2350.38 890.116 2352.78 889.918C2354.85 894.772 2350.52 902.635 2355.5 905.642C2358.47 905.101 2361.96 903.417 2363.81 900.939C2364.21 900.412 2364.34 900.032 2364.63 899.414C2363.03 893.669 2357.07 886.905 2360.17 881.099C2361.44 880.973 2361.95 880.668 2362.98 881.46C2366.96 884.52 2366.34 892.241 2370.61 894.946C2373.16 893.859 2373.62 892.28 2375.04 889.995C2374.91 884.589 2367.89 880.302 2371.23 875.076L2370.38 876.705L2372.71 874.994C2375.73 878.197 2378.26 883.023 2382.26 884.889C2383.09 884.627 2384.13 884.564 2384.55 883.771C2386.75 879.62 2385.9 873.642 2384.51 869.343C2383.92 867.533 2383.3 865.617 2381.65 864.533L2380.5 864.908L2381.9 865.378L2381.75 864.523L2379.82 863.979C2376.94 871.591 2324.65 897.412 2313.7 902.329C2272.48 920.831 2224.53 923.449 2182.12 907.161Q2180.66 906.588 2179.21 905.98Q2177.77 905.371 2176.34 904.728Q2174.9 904.084 2173.49 903.405Q2172.07 902.726 2170.68 902.012Q2169.28 901.298 2167.9 900.55Q2166.52 899.802 2165.16 899.021Q2163.8 898.239 2162.46 897.424Q2161.12 896.609 2159.8 895.761Q2158.48 894.914 2157.18 894.034Q2155.88 893.154 2154.6 892.242Q2153.32 891.33 2152.07 890.387Q2150.81 889.444 2149.58 888.471Q2148.35 887.497 2147.15 886.493Q2145.94 885.49 2144.76 884.457Q2143.58 883.424 2142.42 882.362Q2141.27 881.3 2140.14 880.21Q2139.01 879.12 2137.91 878.002Q2136.8 876.885 2135.73 875.741Q2134.66 874.596 2133.61 873.426Q2132.57 872.255 2131.55 871.06Q2130.53 869.864 2129.55 868.643Q2128.56 867.423 2127.61 866.178Q2126.65 864.934 2125.72 863.666Q2124.8 862.399 2123.91 861.109Q2123.01 859.819 2122.15 858.507Q2121.29 857.195 2120.46 855.863Q2119.63 854.53 2118.84 853.178Q2118.04 851.825 2117.28 850.454Q2116.52 849.082 2115.79 847.692Q2115.06 846.302 2114.37 844.894Q2113.67 843.487 2113.01 842.062Q2112.35 840.638 2111.73 839.198C2096.84 805.674 2090.22 774.557 2104.27 739.233C2108.16 729.456 2115.78 720.291 2123.1 712.88L2121.52 712.5C2115.73 713.979 2104.93 714.742 2101.8 719.953C2099.06 724.527 2097.8 730.698 2095.72 735.69C2083.2 765.723 2080.64 790.245 2089.31 822.009C2095.75 845.644 2105.97 867.992 2123.5 885.451C2130.2 892.121 2154.88 908.647 2156.13 915.712C2150.52 919.428 2137.67 916.187 2131.39 914.92C2116.27 911.871 2101.95 906.499 2087.02 903.024ZM1497.79 115.873C1496.44 115.772 1496.17 115.597 1495.01 114.848C1495.19 113.095 1495.42 111.286 1495.41 109.524C1495.4 106.555 1494.73 105.996 1492.73 103.989C1492.88 103.824 1493.03 103.664 1493.17 103.496C1498.33 97.4405 1500.01 88.3467 1504.53 81.6054C1523.3 53.6078 1556.45 40.3734 1589.02 37.2661C1597.43 36.4648 1611.7 35.1162 1619.09 39.769C1613.12 42.9378 1598.59 39.4144 1591.51 39.8664C1574.26 40.9689 1554.87 48.2185 1540.46 57.6391C1526.62 66.6919 1513.71 80.9642 1506.87 96.1057C1504.5 101.338 1503.56 107.349 1501.13 112.496C1500.4 114.045 1499.23 115.021 1497.79 115.873ZM1596.6 47.0958C1616.77 51.9857 1636.64 51.6818 1656.95 54.8041C1656.85 54.006 1656.76 53.424 1656.46 52.6704C1652.12 41.6041 1640.34 33.9212 1629.62 29.9088C1602.79 19.8728 1569.77 22.9675 1544.04 34.8087C1518.44 46.5878 1497.92 67.2923 1488.22 93.9067C1478.98 119.268 1479.21 151.04 1489.32 176.109C1493.45 186.347 1499.36 195.588 1503.94 205.543L1504.15 205.995C1504.82 207.66 1505.3 208.07 1506.8 209.056C1520.31 226.999 1547.65 257.788 1568.28 266.38C1572.12 267.979 1575.13 267.84 1578.95 266.332C1580.55 262.918 1572.92 256.767 1570.32 254.613C1562.01 247.724 1553.07 241.211 1545.38 233.632C1528.73 217.241 1515.13 194.02 1511.88 170.762C1509.24 151.912 1514.74 125.092 1526.47 109.868C1547.11 83.0786 1578.73 97.0793 1606.56 93.3787C1611.89 92.6697 1618.28 91.2985 1621.57 86.5879C1623.97 83.1543 1623.75 78.6794 1622.97 74.768C1620.78 63.8101 1605.47 52.9633 1596.6 47.0958ZM2271.2 433.162C2279.11 433.688 2291.72 433.723 2297.39 440.196C2298.39 441.336 2299.03 442.865 2299.61 444.249C2299.31 446.12 2298.2 446.703 2296.71 447.79C2283.99 457.069 2270.27 457.628 2267.02 476.307C2264.92 488.389 2269.52 522.519 2266.6 528.206C2272.62 526.314 2278.44 524.415 2284.74 523.782C2297.3 522.52 2309.91 524.054 2322.48 524.31C2342.78 524.722 2369.72 519.861 2388.28 529.706C2410.22 541.344 2416.24 568.381 2419.34 570.101C2421.2 566.15 2420.05 563.096 2418.62 559.129C2409.98 535.239 2398.39 515.262 2380.94 496.721C2377.65 493.222 2373.7 488.193 2369.27 486.197C2369.06 486.102 2368.84 486.026 2368.63 485.932C2368.43 485.843 2368.24 485.74 2368.04 485.649C2367.92 485.594 2367.8 485.546 2367.68 485.494C2362.1 477.712 2343.56 473.587 2334.54 472.095C2312.31 468.414 2291.37 483.675 2286.87 483.004L2285.95 481.466C2288.66 473.847 2296.63 467.128 2303.68 463.78C2320.69 455.715 2339.49 455.842 2356.92 462.268C2381.78 471.435 2399.27 491.005 2413.35 512.727L2414.35 512.17C2415.98 499.997 2399.34 479.271 2392.47 470.301C2374.81 447.248 2345.24 427.171 2316.02 423.306C2307.71 422.206 2299.55 422.595 2291.25 423.499C2283.63 425.547 2277.5 428.27 2271.2 433.162ZM325.642 285.165C315.645 280.997 301.465 269.398 290.574 270.965L289.949 272.267C291.552 274.643 297.44 279.374 297.273 281.53C286.089 280.929 285.807 269.718 272.494 274.671L271.658 276.132C274.515 279.707 279.94 281.71 281.733 285.845L281.358 286.923C278.608 287.361 278.054 287.224 275.791 285.504C271.885 282.536 268.96 278.625 264.741 275.985C256.105 279.06 247.668 282.358 239.267 286.028C242.283 287.052 246.646 287.981 248.53 290.629C248.461 292.93 248.281 292.998 246.76 294.76C242.874 293.81 241.872 288.827 238.131 287.626C236.002 288.992 236.19 289.648 235.503 292.008C236.662 294.726 237.452 295.967 240.278 297.321C248.57 301.294 309.785 270.381 358.8 301.757C367.261 307.173 374.263 312.043 378.364 321.703C381.12 328.194 382.055 336.065 379.236 342.7C377.307 347.241 373.71 350.511 369.153 352.315C362.222 355.057 355.309 353.71 348.188 352.685C359.906 360.458 375.543 368.02 390.051 365.035C397.076 363.589 406.346 350.018 412.038 352.509C414.102 355.788 414.415 358.338 413.512 362.076C410.195 375.812 397.104 390.674 385.287 397.937C402.067 404.13 417.625 404.259 433.979 396.733C446.23 391.096 456.462 382.215 464.536 371.491C468.009 365.374 475.65 354.703 475.263 347.735C473.528 346.618 471.846 345.434 470.015 344.481C462.797 340.72 453.902 325.608 448.464 318.851C436.858 304.432 410.784 280.511 393.574 273.026C389.256 271.148 384.121 270.419 379.477 269.694C408.903 292.28 433.542 310.023 455.942 340.654C459.99 346.19 465.586 352.465 466.5 359.441C466.629 360.424 466.011 361.468 465.66 362.389C464.511 362.411 464.22 362.698 463.343 361.876C455.377 354.41 453.203 342.763 444.837 335.057C440.103 330.696 436.765 324.623 432.311 319.869C420.296 307.047 386.446 276.151 370.55 270.592C363.906 268.268 357.112 268.783 350.18 268.902C381.828 286.215 408.472 302.194 427.618 333.938C417.596 327.633 408.919 316.857 400.146 308.799C386.921 296.651 356.012 273.036 338.177 268.442C335.341 267.712 332.049 268.033 329.152 268.178C334.656 271.959 340.405 275.488 344.761 280.622L344.933 281.803C332.432 279.974 322.195 265.584 308.637 269.183L308.592 270.532C314.282 275.913 320.383 279.02 325.642 285.165ZM2508.76 670.944C2511.47 669.393 2557.7 627.524 2557.71 627.5C2579.23 617.623 2585.18 609.588 2610.37 618.831C2616.26 620.993 2638.96 633.857 2641.94 633.856C2642.36 627.547 2635.57 620.536 2631.53 615.949C2623.05 606.3 2611.65 598.254 2598.44 597.465C2585.42 596.688 2561.61 608.168 2551.29 615.373C2546.46 618.746 2542.17 623.658 2536.9 626.303C2534.3 627.605 2532.75 627.847 2529.92 627.361C2528.43 624.98 2528.39 623.329 2528.98 620.554C2532.9 602.209 2544.15 581.078 2555.05 566.011C2569.07 546.639 2592.06 531.582 2598.06 507.304C2598.75 504.527 2599.76 501.47 2598.85 498.667C2599.6 495.724 2599.66 493.341 2598.06 490.603C2597.24 489.185 2596.92 489.075 2595.39 488.5L2594.85 489.174C2584.95 501.093 2568.02 506.324 2557.38 518.037C2531.47 546.578 2522.41 582.293 2509.19 617.152C2501.9 636.373 2493.08 655.632 2489.38 675.963L2488.7 676.384C2490.79 678.303 2494.26 676.753 2495.87 677.917C2499.27 680.369 2504.86 713.319 2512.77 719.885L2514.05 719.505C2516.92 713.383 2511.87 700.404 2511.19 693.641C2510.35 685.319 2513.61 682.98 2510.1 673.52C2509.74 672.567 2509.31 671.792 2508.76 670.944ZM1807.39 627.5C1827.94 622.748 1860.43 620.143 1879.36 631.777C1880.1 632.234 1880.6 632.688 1881.22 633.288C1881.07 631.632 1880.67 630.061 1879.85 628.603C1873.42 617.181 1863.24 607.351 1855.91 596.382C1843.86 578.349 1834.9 555.708 1826.7 535.593C1821.62 523.129 1819 510.16 1816.2 497.048C1815.88 495.569 1815.5 490.971 1814.79 489.81C1814.46 489.275 1813.89 488.934 1813.44 488.496C1811.84 509.992 1805 526.915 1810.91 548.644C1812.42 554.196 1817.34 566.448 1815.3 571.646C1798.08 576.524 1782.36 578.453 1773.07 595.545C1766.9 606.888 1766.12 619.237 1769.79 631.537C1771.98 638.863 1775.16 645.488 1780.03 651.437L1781.3 651.223C1786.5 641.558 1790.56 636.688 1800.31 631.393C1802.51 630.198 1805.53 629.096 1807.39 627.5ZM1248.42 335.896C1252.7 339.656 1258.55 348.827 1259.73 354.311C1269.68 353.774 1298.68 349.622 1306.48 352.158L1306.24 353.332C1293.76 360.088 1276.11 358.202 1262.24 358.023C1274.02 369.83 1286.41 380.523 1304.19 380.542C1310.15 380.549 1317.58 379.008 1323.21 380.86L1324.27 381.983C1323.93 382.436 1323.42 383.363 1323 383.682C1320.36 385.675 1315.6 386.327 1312.53 388.005C1305.46 391.87 1298.82 396.886 1291.4 400.058C1286.64 402.09 1279.29 402.619 1275.36 405.66C1282.55 411.46 1304.45 414.648 1313.47 413.665C1318.48 413.119 1334.8 409.777 1338.16 406.298C1358.22 401.284 1378.5 384.967 1388.94 367.244C1389.74 365.881 1390.24 364.508 1390.57 362.96C1371.91 371.163 1344.27 377.815 1324.42 369.801C1322.16 368.889 1320.84 367.692 1319.66 365.526L1319.6 363.462C1328.17 359.473 1339.59 367.739 1349.11 367.845C1359.1 367.957 1390.45 359.643 1394.04 349.868C1395.04 347.157 1392.93 343.277 1391.73 340.908C1391.4 340.245 1391.04 339.813 1390.47 339.338C1381.71 350.906 1370.04 356.088 1355.89 358.019C1340 360.185 1321.82 355.112 1309.1 345.193C1303.26 340.63 1299.28 334.018 1293.82 329.108C1282.66 326.726 1253.18 316.466 1244.43 316.495C1245.77 320.547 1247.61 329.729 1251.27 331.693C1262.77 337.862 1294.01 334.174 1301.88 341.509C1297 345.071 1277.52 341.183 1271.5 340.235Q1259.92 338.3 1248.42 335.896ZM2000.82 178.379C2000.68 178.252 2000.56 178.119 2000.42 177.996C1997.43 175.275 1992.92 173.813 1989.26 172.161C1973.68 165.129 1958.84 159.246 1949.79 143.704C1945.52 136.384 1946.22 126.899 1942.33 119.668C1940.61 110.643 1939.97 90.4731 1944.63 82.3477L1945.93 82.5888C1950.61 91.47 1948.7 100.735 1950.93 110.093C1952.14 115.198 1955.12 120.535 1957.64 125.114C1970.1 147.694 1989.03 158.814 2012.97 166.807C2010.61 162.436 1989.35 152.343 1982.86 141.665C1971.55 123.042 1978.17 105.117 1971.31 90.7353C1967.76 83.2993 1959.64 78.8514 1955.12 72.148C1952.81 68.7322 1953.08 63.8698 1948.81 62.499C1931.42 72.6171 1913.35 85.1047 1907.98 105.747C1904.38 119.56 1906.14 134.514 1913.61 146.725C1923.8 163.388 1940.83 172.997 1959.48 177.333C1972.19 180.29 1988.08 181.926 2000.82 178.379ZM1904.31 580.253C1924.53 615.155 1957.7 645.269 1993.84 663.136C2002.92 667.623 2013.35 669.445 2022.21 674.016C2041.95 678.009 2069.77 683.817 2087.9 671.814C2078.71 670.249 2069.11 669.968 2060.06 667.783C2019 657.869 1977 633.154 1947.51 602.68C1942.14 597.135 1931.03 580.956 1925.07 578.037C1930.13 574.596 1939.11 569.177 1941.87 563.732C1937.92 558.093 1913.85 532.352 1909.02 531.497C1902.38 538.784 1896.22 543.499 1887.09 547.507L1886.36 549.447C1887.82 551.947 1890.25 556.342 1892.91 557.053C1893.12 556.832 1893.33 556.607 1893.55 556.39C1895.88 554.088 1909.46 544.665 1912.26 544.744C1913.33 544.775 1914.45 545.1 1915.48 545.387C1910.82 553.503 1898.27 557.21 1896.16 566.995C1896.96 569.773 1897.65 570.137 1899.82 571.885C1902.43 572.292 1903.81 572.572 1906.14 570.951C1910.26 568.079 1913.23 561.242 1917.92 559.694L1920.09 560.505C1920.6 562.847 1920.07 564.111 1918.83 566.12C1915.03 572.26 1910.93 577.236 1904.31 580.253ZM1333.66 218.627C1328.42 219.479 1323.16 220.501 1317.88 221.025C1324.26 223.856 1341.15 233.591 1343.74 239.532L1342.9 241.127C1333.69 242.136 1317.75 226.368 1308.02 222.864C1304.68 225.334 1300.51 227.715 1296.42 228.565C1304.29 231.829 1317.52 239.821 1322.03 247.004L1321.32 248.106C1311.22 248.687 1299.91 235.014 1290.82 231.364C1286.82 235.256 1280.78 239.307 1275.8 241.854C1282.86 243.623 1304.53 254.061 1308.34 259.869C1308.8 260.571 1309.04 261.375 1309.22 262.187C1296.29 257.811 1284.89 249.521 1272.01 245.549C1270.83 249.243 1265.36 255.14 1261.84 256.9C1261.67 256.983 1261.5 257.054 1261.33 257.131C1272.62 259.988 1285.21 263.442 1294.47 270.814C1295.04 272.031 1295.66 273.243 1296.13 274.506C1285.79 270.956 1269.82 263.327 1259.71 261.826C1258.16 263.813 1256.69 266.035 1254.67 267.556L1254.52 268.027C1254.08 269.477 1253.9 270.592 1253.91 272.104C1262.65 280.554 1280.37 278.717 1285.97 291.131C1278.28 293.884 1257.94 278.712 1251.89 278.509C1251.24 278.487 1249.98 279.758 1249.74 280.268C1248.37 283.119 1247.07 287.148 1248.25 290.249C1248.72 291.46 1249.16 291.623 1250.35 292.107C1262.09 296.88 1274.51 297.94 1284.85 306.444L1285.17 307.679C1274.9 309.401 1255.3 297.788 1243.86 295.317C1245.65 299.76 1246.53 304.619 1244.66 309.224C1244.43 309.805 1244.31 309.964 1243.99 310.557C1254.26 313.207 1285.31 320.003 1291.39 326.598C1291.43 326.366 1291.48 326.136 1291.51 325.904C1292.39 320.389 1289.92 314.049 1289.63 308.379C1288.62 288.778 1302.4 270.006 1317.32 258.638C1335.74 244.604 1358.12 241.721 1380.63 242.06C1379.48 236.224 1364.7 222.454 1359.62 219.053C1356.35 216.862 1350.95 217.975 1347.24 218.5L1346.65 220.042C1350.03 225.799 1357.97 227.677 1358.55 234.97L1356.57 237.44C1347.92 232.812 1343.04 222.485 1333.66 218.627ZM1433.06 451.415C1427.65 447.641 1407.31 438.266 1401.2 439.365C1401 439.399 1400.82 439.453 1400.63 439.497C1397.25 442.478 1391.71 445.608 1387.47 447.135C1399.26 449.115 1410.39 454.802 1421.26 459.603C1425.64 458.662 1430.37 454.927 1433.06 451.415ZM1281.5 510.742L1281.92 508.586C1276.27 501.096 1263.68 480.768 1256.39 476.805C1251.26 476.863 1245.58 476.438 1240.56 477.496C1249.72 487.27 1257.49 498.862 1263.61 510.77L1263.54 512.235C1269.42 511.884 1275.74 511.946 1281.5 510.742ZM1490.01 347.297C1490.7 343.019 1492.39 337.65 1489.93 333.767C1487.55 332.495 1485.65 333.067 1483.12 333.499L1469.6 335.77C1471.09 340.536 1467.04 347.344 1469.45 351.021C1470.29 350.841 1471.46 350.745 1472.21 350.371C1477.67 349.483 1484.93 349.19 1490.01 347.297ZM1019.78 457.214C1024.87 460 1031.3 462.362 1036.99 463.525C1033.78 453.96 1026.99 445.661 1023.48 435.927C1017.51 433.521 1011.69 430.959 1005.28 429.989Q1012.44 443.65 1019.78 457.214ZM1213.95 475.498C1224.29 482.767 1232.75 509.683 1243.26 512.951C1245.8 513.743 1250.47 513.055 1253.08 512.613C1253.22 512.588 1253.36 512.539 1253.51 512.502C1254.56 508.466 1252.34 505.402 1250.31 501.917C1246.18 494.808 1239.4 481.97 1233.02 476.832C1226.64 476.113 1220.39 475.444 1213.95 475.498ZM1406.63 435.57C1413.34 437.047 1431.72 443.47 1436.91 447.501C1440.28 446.298 1445.09 442.346 1446.4 438.908C1446.51 438.625 1446.57 438.326 1446.66 438.034C1440.65 434.523 1423.37 426.906 1416.59 428.497C1414.4 431.826 1410.24 434.057 1406.63 435.57ZM1300.14 473.5L1289.02 475.09C1299.28 481.388 1307.87 503.958 1320.35 504.62L1321.21 504.19C1325.22 503.487 1329.54 503.037 1333.36 501.647C1328.56 496.96 1307.36 474.797 1303.98 473.286L1300.14 473.5ZM2337 322.501C2341.17 318.226 2341.04 311.756 2340.99 306.103C2340.9 296.622 2339.72 284.093 2334.52 276.031C2332.88 275.017 2332.4 274.575 2330.43 274.499C2330.36 284.024 2334.69 304.816 2328.94 312.322C2332.02 315.506 2334.49 318.878 2337 322.501ZM1454.7 384.875C1462.62 385.112 1472.59 384.598 1480.1 387.162C1483.7 384.624 1484.85 381.519 1485.63 377.138C1485.97 375.245 1486.32 373.72 1485.54 371.906C1477.37 371.795 1468.75 371.146 1460.69 372.498C1460 377.306 1457.37 380.93 1454.7 384.875ZM1131.49 464.487C1137.69 471.844 1143.07 480.613 1147.91 488.936C1150.03 492.571 1153.02 500.228 1155.82 503.054C1159.14 506.401 1169.68 507.263 1174.14 507.65C1174.76 507.705 1175.2 507.678 1175.8 507.507C1175.85 503.054 1155.47 473.051 1151.35 469.138C1150.99 468.799 1150.39 468.392 1150.02 468.122C1144.65 465.764 1137.34 464.488 1131.49 464.487ZM2401.46 415.254C2403.77 418.69 2404.21 424.939 2407.48 426.51C2414.81 422.661 2417.95 414.073 2420.29 406.585C2421.02 404.274 2421.89 402.158 2421.13 399.735C2420.81 396.092 2420.45 392.112 2417.41 389.624C2416.68 389.027 2416.02 388.763 2415.12 388.499C2414.96 397.176 2411.48 406.068 2405.15 412.142C2403.99 413.257 2402.73 414.265 2401.46 415.254ZM1340.31 465.498L1332.92 467.814C1341.66 476.32 1354.32 487.378 1366.39 490.422L1367.48 490.148C1370.69 489.243 1374.03 488.594 1376.23 485.866C1372.73 481.612 1350.5 465.311 1345.83 464.829C1344.08 464.648 1342.03 465.156 1340.31 465.498ZM2389.66 399.103C2392.31 400.922 2396.59 403.952 2397.36 407.231L2400.2 407.405C2406.67 401.553 2409.9 389.892 2410.32 381.371C2410.45 378.507 2410.15 374.507 2407.93 372.422C2406.89 371.448 2405.61 371.635 2404.24 371.499C2405.35 378.133 2399.42 387.094 2395.75 392.235C2393.96 394.739 2392.22 397.331 2389.66 399.103ZM1146.75 502.501C1146.03 494.785 1129.18 468.01 1123.44 462.294C1118.44 460.369 1109.69 458.281 1104.48 459.491C1109.26 462.479 1126.86 490.16 1128.32 495.937C1128.51 496.681 1128.66 497.446 1128.7 498.212L1146.75 502.501ZM153.003 361.588C151.351 364.659 149.966 366.258 150.151 369.783C155.981 380.212 169.43 381.18 175.726 390.499C172.211 389.245 168.508 388.039 165.219 386.269C160.133 383.533 152.231 375.799 146.282 377.652C143.425 380.87 143.359 384.701 142.638 388.876C152.662 395.695 165.246 400.339 174.503 407.94C162.036 404.682 149.811 400.355 138.928 393.3C138.908 398.514 138.61 403.884 138.988 409.078C145.253 413.372 176.379 426.264 177.819 428.646C176.507 429.833 175.891 430.306 174.023 430.094C166.401 429.23 142.2 415.231 137.161 417.209C137.304 420.113 137.27 424.095 139.556 426.189C145.717 431.832 171.109 438.344 180.134 441.8C166.86 441.101 155.461 440.197 143.251 434.478L139.977 433.499C139.462 434.273 139.026 434.481 139.204 435.438C139.95 439.455 142.007 443.178 143.76 446.838C156.223 448.474 165.274 449.186 177.469 445.731C174.56 452.344 164.967 462.158 166.748 468.183L168.683 469.328C174.307 466.768 179.708 462.98 184.616 459.231C187.062 453.169 187.689 438 191.228 434.749C193.69 437.228 194.289 441.958 194.25 445.346C194.177 451.69 190.945 460.06 186.315 464.469C182.888 467.733 178.067 470.138 173.623 471.696C179.463 473.089 190.598 477.039 196.114 473.394C199.779 470.973 200.986 465.765 201.571 461.708C203.477 448.472 201.793 433.55 197.8 420.871C194.893 423.162 191.851 426.108 188.097 426.697C185.458 426.14 184.786 426.075 182.838 424.27C177.718 411.697 175.123 389.358 177.564 376.107C171.872 372.423 159.449 362.139 153.003 361.588ZM1480.89 307.263C1481.61 301.87 1479.98 297.689 1477.09 293.212L1474.44 292.494C1471.31 296.763 1465.34 302.409 1466.07 308.106C1466.34 310.288 1467.37 312.427 1468.25 314.424L1469.36 313.768C1472.53 312.486 1479.05 310.177 1480.89 307.263ZM1467.84 355.419C1467.8 355.55 1467.77 355.682 1467.73 355.812C1466.63 359.583 1463.72 363.473 1464.49 367.468C1465.69 367.923 1466.44 368.295 1467.75 368.102C1474.48 367.861 1481.61 367.103 1488.31 367.522C1489.26 363.141 1490.88 358.286 1489.7 353.851C1487.99 352.3 1487.47 352.587 1485.22 352.5L1467.84 355.419ZM1471.06 283.602C1470.33 278.998 1466.27 274.582 1462.77 271.746C1461.52 271.604 1460.26 271.4 1459 271.495C1459.49 280.32 1452.32 284.709 1458.45 292.578C1459.52 293.95 1460.19 295.291 1460.83 296.892L1461.85 297.158L1463.52 295.502C1467.03 292.372 1470.06 288.274 1471.06 283.602ZM2552.66 444.498C2550.42 447.778 2550.32 451.961 2548.79 455.694C2545.46 463.87 2541.37 472.093 2538.66 480.478C2533.65 495.969 2531.6 512.565 2527.69 528.315C2526.53 532.96 2522.82 538.773 2523.09 543.462L2523.56 544.212C2524.01 543.03 2524.54 540.903 2525.33 539.986C2531.24 530.354 2558.99 481.907 2560.63 474.226C2562.05 467.578 2560.63 461.132 2559.08 454.661C2558.29 451.368 2557.72 448.22 2555.7 445.421C2554.64 444.996 2553.81 444.658 2552.66 444.498ZM2360.34 351.323L2363.49 352.272C2368.45 346.69 2369.53 329.789 2369.03 322.377C2368.87 319.945 2368.29 314.634 2366.31 312.985C2365.37 312.199 2364.37 312.488 2363.2 312.498C2362.51 318.653 2354.82 342.706 2354.88 343.206C2354.99 344.148 2356.29 345.967 2356.93 346.746C2358.05 348.119 2359.93 349.573 2360.34 351.323ZM2424.81 478.5C2429.35 478.31 2432.99 474.555 2435.92 471.384C2440.21 466.751 2444.88 459.612 2444.73 453.01C2444.7 451.331 2444.04 449.48 2442.76 448.349C2441.89 447.587 2441.5 447.681 2440.42 447.499C2437.25 452.221 2433.77 457.261 2429.76 461.324C2427.97 463.142 2423.78 465.438 2422.57 467.256C2422.28 467.697 2422.25 469.109 2422.34 469.618C2422.82 472.458 2425.11 475.642 2424.81 478.5ZM179.061 371.18C180.83 369.58 182.904 366.948 183.122 364.476C183.356 361.818 181.694 359.853 179.958 358.011C176.945 354.814 167.935 347.102 163.769 346.307C161.523 348.813 157.972 351.855 157.868 355.374C160.553 362.128 172.921 367.116 179.061 371.18ZM167.085 341.676C173.55 347.01 179.787 353.034 186.299 358.185C188.548 354.949 192.062 351.075 192.072 347C190.087 340.649 180.548 336.126 175.701 331.4C172.417 334.576 169.858 338.069 167.085 341.676ZM1031.44 438.444C1035.14 448.087 1041.77 458.775 1047.09 467.771L1046.51 468.771L1047.44 469.202C1052.63 471.848 1057.9 474.953 1063.53 476.527C1064.62 471.641 1053.13 453.597 1050.12 448.846C1048.74 446.653 1047.22 444.605 1045.19 442.947C1041.42 440.838 1035.77 438.944 1031.44 438.444ZM1392.22 224.869C1385.27 220.931 1379.76 219.045 1371.77 220.498L1371.76 222.518L1372.27 222.97C1387.03 236.1 1378.18 241.256 1399.74 245.908L1400.98 244.407C1399.63 239.441 1396.45 227.535 1392.22 224.869ZM2375.22 326.499C2377.06 334.914 2372.39 351.7 2367.67 358.967C2367.53 359.185 2367.38 359.399 2367.24 359.615C2369.61 362.612 2373.2 369.944 2376.33 371.078L2376.58 370.968C2382.94 361.238 2384.73 348.292 2385.44 336.89C2384.41 332.493 2382.01 329.487 2378.55 326.738L2375.22 326.499ZM2310.78 289.994C2314.85 284.758 2316.41 271.867 2315.41 265.488C2314.88 262.127 2312.88 260.618 2310.33 258.654C2309.08 256.45 2308.71 256.357 2306.39 255.258C2305.87 255.961 2305.63 255.933 2305.77 256.848C2306.81 264.06 2310.85 271.281 2308.59 278.613C2307.15 279.935 2305.76 280.909 2304.05 281.853L2302.89 280.895C2302.15 273.028 2303.11 253.784 2296.67 248.593C2293.99 246.429 2291.31 246.235 2288.02 246.498C2292.75 254.227 2288.15 267.312 2292.3 275.051C2296.04 282.018 2306.25 284.034 2310.78 289.994ZM1446.69 399.924C1452.45 400.577 1468.66 403.953 1473.28 401.502C1476.4 398.325 1478.19 395.757 1479.41 391.435C1471.78 390.498 1458.1 387.152 1451.04 389.498C1451.4 392.634 1449.15 396.934 1447.2 399.324C1447.04 399.528 1446.86 399.724 1446.69 399.924ZM1158.02 469.494C1168.14 476.872 1178.56 498.978 1187.22 509.63C1191.76 510.181 1199.7 511.768 1203.93 510.504C1203.67 502.761 1187.48 477.975 1181.93 472.931C1181.65 472.675 1181.36 472.431 1181.06 472.193C1173.69 471.018 1165.47 469.084 1158.02 469.494ZM1432.4 413.377C1442.34 414.114 1451.01 416.304 1460.38 419.617C1464.24 417.613 1465.3 415.255 1467.63 411.76C1467.67 410.922 1468.02 409.422 1467.44 408.824C1463.64 404.927 1449.74 404.305 1444.23 404.384C1443.7 404.392 1443.18 404.452 1442.65 404.498C1440 408.473 1436.49 410.989 1432.4 413.377ZM1347.19 497.249C1351.15 496.487 1354.66 495.741 1358.27 493.903C1353.44 487.959 1342.94 484.682 1336.77 479.777C1333.48 477.157 1330.33 471.488 1326.56 470.058L1321.35 470.498L1313.24 472.624C1319.75 479.442 1333.76 498.336 1343.48 498.674C1344.56 498.273 1346.25 497.869 1347.19 497.249ZM986.83 442.578C982.774 435.471 979.919 427.477 976.781 419.92C971.329 416.663 965.482 412.758 959.207 411.355C961.193 419.985 969.419 433.706 977.053 438.483C980.046 440.355 983.377 441.828 986.83 442.578ZM1488.35 325.853C1489.27 322.28 1488.16 318.119 1486.32 315.018C1485.13 313.008 1484.89 313.074 1482.7 312.498C1482.53 312.639 1482.35 312.782 1482.18 312.921C1479.1 315.352 1468.85 318.925 1468.46 322.67C1468.21 325.1 1469.64 327.929 1469.79 330.537L1471.07 331.357L1471.5 331.243L1488.35 325.853ZM1881.57 470.5C1876.83 475.245 1870.43 478.676 1863.9 480.215C1865.26 483.357 1866.58 490.914 1868.94 492.502C1874.64 491.085 1881.86 486.704 1885.06 481.715C1886.09 480.123 1886.25 477.901 1885.7 476.117C1885.29 474.79 1884.25 473.445 1883.51 472.282C1883.34 472.018 1883.18 471.749 1883.01 471.484C1882.59 470.817 1882.27 470.814 1881.57 470.5ZM1452.46 431.552C1455.21 429.345 1457.66 427.524 1458.55 423.921C1449.86 420.669 1439.4 416.627 1430.09 418.379L1429.44 418.497C1428.19 419.936 1426.98 421.382 1425.83 422.909C1429.47 426.786 1444.08 432.348 1449.42 432.901C1449.99 432.96 1450.6 432.917 1451.18 432.866L1452.46 431.552ZM247.515 442.619C251.273 433.982 254.147 422.887 250.459 413.752C249.088 410.356 246.479 407.312 242.925 406.106C241.327 405.563 239.541 405.621 237.873 405.656C236.186 412.445 241.958 416.891 243.352 423.103C244.802 429.561 243.279 436.897 245.521 443.186C246.113 443.039 246.998 442.928 247.515 442.619ZM2419.45 459.501C2424.61 458.693 2429.34 452.151 2432.33 448.098C2435.65 443.612 2438.65 438.563 2438.03 432.834C2436.77 430.855 2436.56 429.97 2434.11 429.593C2433.43 429.488 2433.12 429.504 2432.48 429.499C2432.91 432.304 2431.16 434.788 2429.56 436.948C2426.62 440.924 2415.6 447.325 2415.92 452.148C2416.05 454.09 2418 458.172 2419.45 459.501ZM1878.83 529.176C1880.15 532.426 1881.45 538.331 1884.41 540.243L1884.74 540.276C1892.26 536.405 1898.94 530.808 1906.64 527.411C1905.19 523.975 1904.04 520.263 1900.85 518.067L1898.78 517.499C1896.72 522.021 1890.3 526.159 1885.77 527.866C1883.59 528.685 1881.13 528.948 1878.83 529.176ZM2442.95 586.191C2447.57 586.431 2450.87 583.883 2454.17 580.902C2456.17 579.094 2459.23 576.675 2459.92 574.067C2461.56 571.021 2462.81 567.345 2461.86 563.891C2461.82 563.728 2461.76 563.567 2461.71 563.405C2460.64 562.981 2459.82 562.654 2458.66 562.499C2456.11 566.873 2445.44 571.475 2440.63 573.24C2441.97 577.128 2444.21 582.054 2442.95 586.191ZM1206.25 474.73C1200.63 474.012 1194.75 473.395 1189.08 473.495C1198.11 484.153 1205.53 501.221 1213.83 509.665C1215.78 511.65 1217.73 512.898 1220.6 513.142C1223.14 513.358 1227.54 513.455 1229.9 512.504C1229.54 505.783 1212.78 480.436 1207.38 475.655C1207.02 475.333 1206.64 475.028 1206.25 474.73ZM2441.42 545.722C2446.12 546.081 2448.76 544.544 2452.3 541.564C2454.28 539.894 2458.34 536.011 2458.65 533.406C2459.72 530.753 2460.4 527.287 2459.32 524.508C2459.09 523.934 2458.77 523.412 2458.42 522.904L2456.32 522.499C2453.35 527.715 2438.85 536.506 2440.23 541.875C2440.55 543.117 2441.25 544.483 2441.42 545.722ZM1867.21 471.7C1872.05 470.244 1876.68 468.745 1879.91 464.629C1880.66 462.075 1881.47 458.909 1880.14 456.422C1879.78 455.767 1879.33 455.172 1878.87 454.589C1877.6 454.496 1876.35 454.353 1875.08 454.499C1874.98 454.647 1874.88 454.797 1874.77 454.941C1871.04 459.961 1861.22 457.094 1862.61 465.089C1863.04 467.568 1863.75 470.064 1865.58 471.766L1867.21 471.7ZM237.877 302.26C235.148 299.465 230.105 295.166 229.685 291.168L228.22 290.562Q222.345 294.534 216.532 298.598C220.685 301.518 224.794 304.525 229.189 307.072Q233.516 304.635 237.877 302.26ZM1407.41 248.261C1411.09 249.957 1415.49 252.068 1418.33 255.008C1419.59 249.538 1418.81 240.397 1415.77 235.601C1413.72 232.362 1410.52 230.059 1406.7 229.434C1405.2 229.189 1403.81 229.287 1402.32 229.495C1406.24 232.751 1406.9 238.182 1407.36 242.969C1407.53 244.779 1407.61 246.448 1407.41 248.261ZM2460.44 554.478C2462.04 551.204 2463 545.842 2461.97 542.28L2459.29 541.5C2458.39 544.773 2455.29 546.756 2452.48 548.356C2448.53 550.603 2442.66 552.729 2440.96 557.223C2440.87 560.18 2442.45 563.585 2444.33 565.844C2449.78 563.179 2456.33 558.982 2460.44 554.478ZM197.052 341.311C198.956 338.827 201.551 336.062 202.55 333.106L201.426 334.141L200.684 333.905L201.574 332.016C196.637 328.284 191.284 324.607 186.86 320.29C186.285 319.73 186.511 319.939 185.632 319.484C183.328 322.116 181.846 323.171 181.27 326.669C183.889 333.347 189.81 337.454 195.595 341.339L197.052 341.311ZM2425.78 836.008C2425.71 830.774 2426.16 824.976 2424.32 820.016C2422.67 818.654 2422.5 818.618 2420.36 818.5C2415.85 827.82 2414.77 836.741 2415.37 846.969L2416.39 847.685C2416.8 847.024 2417.43 846.235 2417.66 845.501C2420.32 842.758 2423.01 840.116 2425.15 836.934C2425.28 836.741 2425.42 836.552 2425.55 836.359C2425.63 836.243 2425.7 836.125 2425.78 836.008ZM213.987 318.927C209.096 315.775 203.866 312.822 199.149 309.441Q194.904 312.865 190.77 316.421C195.143 321.039 199.742 325.698 205.293 328.91C208.31 325.668 211.181 322.354 213.987 318.927ZM2442.23 594.396C2444.09 598.08 2442.16 603.95 2444.17 606.649L2445.38 606.545C2450.62 604.726 2455.44 600.411 2457.83 595.365C2457.96 595.093 2458.08 594.815 2458.2 594.54C2459.02 592.207 2459.51 590.244 2459.72 587.772L2458.55 585.485L2455.66 585.499C2453.2 588.898 2446.14 592.808 2442.23 594.396ZM1892.62 506.498C1892.51 506.606 1892.4 506.717 1892.29 506.822C1888.52 510.316 1876.09 513.277 1875.67 518.436C1875.52 520.379 1876.64 522.861 1877.27 524.697C1883.22 524.416 1891.95 519.138 1895.9 514.79C1897.11 513.463 1897.68 511.833 1898.02 510.105C1897.04 508.167 1896.46 507.373 1894.2 506.7C1893.49 506.486 1893.28 506.515 1892.62 506.498ZM1424.72 240.495C1424.78 240.708 1424.83 240.92 1424.88 241.133C1426.61 248.661 1423.6 258.624 1431.73 263.997C1432 264.173 1432.28 264.329 1432.56 264.495C1433.28 263.919 1434.3 263.324 1434.73 262.504C1436.75 259.022 1438.37 256.842 1437.24 252.716C1435.92 247.906 1432.79 243.309 1428.14 241.107C1427.09 240.612 1425.86 240.517 1424.72 240.495ZM217.398 316.261C219.857 314.401 222.353 312.581 224.658 310.529C223.36 308.731 215.847 300.59 214.009 300.014C211.079 301.627 207.682 302.938 206.353 306.212C206.47 308.416 206.298 309.659 208 311.312C210.178 313.428 214.435 315.63 217.398 316.261ZM2508.67 528.832C2509.25 528.124 2510.28 527.17 2510.68 526.382C2511.8 524.134 2512.11 518.748 2512.57 516.151C2515.02 502.485 2516.74 488.592 2523.07 476.05C2529 464.282 2542.07 442.528 2555.55 438.845C2556.68 438.536 2558.3 438.458 2559.33 439.045C2562.63 440.914 2563.48 444.057 2564.36 447.504C2571.52 475.604 2567.49 481.84 2553.03 505.842L2553.78 506.648C2556.43 505.872 2558.15 504.271 2560.17 502.498C2572.42 491.754 2576.1 482.211 2577.1 466.133C2577.99 451.633 2576.1 411.802 2566.66 401.114C2565.03 400.605 2564.84 400.334 2563.18 401.051C2529.21 415.759 2499.29 454.042 2498.49 491.886C2498.3 500.898 2503.43 515.184 2499.99 523.266C2499.91 523.457 2499.81 523.64 2499.73 523.827C2503 530.54 2502.15 549.831 2499.72 557.185C2499.58 557.617 2499.42 558.041 2499.25 558.466C2504.94 554.325 2507.98 540.734 2508.91 534.23C2509.17 532.397 2509.06 530.639 2508.67 528.832ZM2267.62 136.201C2267.23 128.007 2264.69 119.212 2262.15 111.432C2261.29 111.096 2260.42 110.675 2259.52 110.498C2242.81 128.696 2245.78 131.548 2236.29 151.369C2236.57 151.183 2236.85 151.002 2237.12 150.812C2243.59 146.281 2246.68 134.161 2254.09 132.204L2255.49 132.892C2255.5 134.583 2255.56 136.309 2254.28 137.6C2253.92 137.963 2253.5 138.253 2253.12 138.59C2248.63 142.558 2244.86 152.828 2244.22 158.766C2248.58 157.915 2250.85 153.362 2255.29 152.75C2256.83 156.388 2249.63 164.669 2253.08 167.282L2254.29 167.365C2254.94 166.552 2255.1 165.181 2255.37 164.172C2261.64 158.68 2257.91 150.408 2266.36 145.418L2267.8 146.149C2265.89 154.434 2260.81 164.379 2260.54 172.681L2261.81 173.791C2266.54 172.487 2270.57 166.925 2272.92 162.868C2274.18 160.692 2275.31 158.095 2274.66 155.565C2273.74 152.026 2272.37 146.581 2269.45 144.283C2265.61 142.695 2259.98 143.726 2257.29 141.159C2260.5 138.773 2264.7 138.417 2267.62 136.201ZM1864.24 451.533C1869.78 450.752 1874.12 449.727 1877.48 444.799C1878.4 443.459 1879 441.736 1879.24 440.153C1878.49 438.866 1877.86 437.667 1876.68 436.708L1875.7 436.499C1875.56 436.678 1875.43 436.862 1875.28 437.036C1870.82 442.373 1864.25 441.372 1861.85 448.614C1862.58 449.818 1862.93 450.928 1864.24 451.533ZM1885.98 489.499C1883.23 494.786 1874.2 498.526 1869.02 501.202C1871.12 503.824 1872.4 506.331 1873.7 509.419L1874.49 509.396C1880.97 506.451 1886.16 503.757 1891.18 498.586C1891.98 496.015 1892.75 494.931 1891.73 492.346C1889.8 490.941 1888.3 490.071 1885.98 489.499ZM1395.78 475.476C1391.4 472.016 1383.82 468.607 1378.56 466.505C1378.47 466.397 1378.39 466.286 1378.31 466.179C1375.92 463.266 1370.46 461.45 1369.03 458.262C1370.96 457.923 1372.83 457.917 1374.72 458.514C1374.75 458.526 1399.72 470.933 1400.22 471.289Q1401.07 471.891 1401.85 472.583C1406.71 470.668 1412.97 467.596 1416.31 463.444C1413.87 460.997 1388.21 449.317 1384.97 449.276C1384.2 449.266 1383.45 449.353 1382.69 449.497C1374.84 455.813 1361.26 460.423 1351.34 462.347C1360.12 466.014 1375.63 475.737 1380.6 483.922C1385.14 482.457 1393 479.554 1395.78 475.476ZM1443.85 254.497L1443.79 255.494C1443.46 260.72 1439.29 268.831 1443.19 273.359C1444.95 275.401 1447.74 276.924 1450.04 278.282C1450.17 277.714 1450.39 277.118 1450.37 276.533C1453.36 272.947 1457.04 269.769 1456.3 264.707C1455.85 261.592 1453.69 260.017 1451.26 258.383C1448.99 256.867 1446.57 254.977 1443.85 254.497ZM2453.04 505.499C2449.04 513.004 2436.76 515.978 2435.31 523.968C2436.11 526.121 2436.67 527.221 2438.62 528.5C2444.26 527.912 2451.03 521.24 2454.41 516.99C2456.25 514.669 2457.26 512.591 2457.65 509.624C2456.97 507.303 2456.93 507.111 2455.01 505.672L2453.04 505.499ZM1095.52 456.212C1091.12 454.522 1084.87 452.711 1080.15 453.488C1082.75 455.002 1083.86 457.63 1085.29 460.161C1095.76 478.742 1094.24 490.105 1118.02 494.172L1118.68 493.772C1111.68 481.515 1105.72 466.676 1095.86 456.545C1095.75 456.432 1095.63 456.323 1095.52 456.212ZM1302.22 508.046L1305.24 507.021L1305.5 505.813C1299.78 497.975 1289.19 480.264 1281.54 475.638C1276.75 475.901 1271.82 475.928 1267.07 476.5C1274.42 487.708 1283.24 498.085 1289.96 509.669C1294.06 509.324 1298.26 509.156 1302.22 508.046ZM2391.03 346.499C2393.55 358.554 2373.22 381.089 2386.7 390.175C2386.95 390.34 2387.2 390.484 2387.45 390.638L2389.06 389.501C2395.49 383.339 2400.03 369.869 2400.22 361.027C2400.33 355.785 2398.14 351.918 2394.38 348.286C2393.43 347.36 2392.27 346.893 2391.03 346.499ZM240.602 451.147C240.24 439.504 237.363 412.918 227.763 404.888C226.639 403.948 225.682 404.073 224.327 403.992C221.931 404.88 218.156 405.738 216.464 407.662C217.854 411.764 220.235 415.079 222.126 418.911C225.288 425.318 229.734 436.46 229.801 443.437C229.845 448.044 228.585 452.927 228.139 457.534C227.919 459.815 227.383 461.415 229.249 462.936L230.668 462.837C234.829 459.29 237.593 455.641 240.602 451.147ZM1054.06 445.49C1058.56 448.455 1072.33 473.69 1073.29 479.042C1073.35 479.362 1073.39 479.686 1073.44 480.008C1079.47 482.031 1085.51 484.345 1091.78 485.504C1089.26 477.417 1076.79 455.327 1070.96 449.713C1066.15 446.998 1059.54 445.752 1054.06 445.49ZM2587.82 621.5C2579.42 623.57 2562.08 629.179 2557.34 636.66C2552.31 644.599 2559.4 657.381 2555.1 666.486C2560.12 663.421 2563.41 660.891 2565.43 655.243C2565.52 655.087 2565.62 654.936 2565.7 654.776C2568.16 650.021 2564.38 635.89 2567.37 633.322L2566.61 632.293L2566.34 633.499L2567.44 633.432C2568.86 637.082 2571 645.535 2574.25 647.508C2576.07 647.107 2577.1 646.9 2578.38 645.5C2581.01 644.18 2582.14 643.907 2583.6 641.254C2583.7 637.573 2582.36 632.223 2584.04 629.189L2586.17 629.358C2587.99 631.839 2588.68 633.934 2589.45 636.864L2589.18 637.796C2594.22 636.979 2599.3 636.109 2604.42 636.437C2612.79 636.974 2626.4 642.914 2633.42 640.479L2634.09 639.08C2630.78 632.476 2611.78 625.788 2604.77 623.437C2599.14 621.547 2593.73 620.829 2587.82 621.5ZM803.062 634.78C810.16 627.856 817.387 620.835 823.354 612.884C815.345 605.005 807.14 595.376 798.271 588.643C798.808 600.766 798.073 614.151 795.298 626.001C793.876 632.072 791.796 637.922 790.629 644.061L791.339 644.515Q797.322 639.794 803.062 634.78ZM2547.05 641.499C2544.03 646.315 2530.85 661.551 2526.55 665.18C2526.62 665.341 2526.7 665.5 2526.77 665.664C2528.71 670.401 2529.54 692.545 2531.12 694.726C2531.85 694.868 2533 695.327 2533.62 694.914C2535.94 693.378 2537.48 689.714 2537.94 687.024C2538.54 683.519 2537.36 679.357 2535.32 676.51C2539 670.411 2532.53 662.793 2537.77 657.377C2538.75 657.697 2539.36 657.587 2539.84 658.551C2542.64 664.181 2541.47 675.392 2544.96 679.391C2547.31 678.339 2548.04 677.02 2548.99 674.662C2552.39 666.199 2551.29 651.96 2550.8 642.86L2549.59 641.521L2547.05 641.499ZM206.727 409.586C204.675 410.707 202.386 411.271 201.689 413.669C199.804 420.159 208.338 430.805 209.507 437.57C211.413 448.601 209.057 460.933 205.933 471.509C208.003 472.666 209.127 472.006 211.311 471.409C212.564 471.067 213.77 470.591 214.973 470.102C219.88 466.942 221.395 461.018 222.576 455.57C225.443 442.338 221.597 426.623 214.181 415.348C212.334 412.539 210.632 410.492 207.228 409.67C207.064 409.63 206.894 409.614 206.727 409.586ZM2230.9 62.4995C2238.32 93.2411 2212.4 114.502 2230.63 145.243L2232.56 146.366C2234.88 143.737 2234.4 136.997 2234.61 133.5C2239.34 127.505 2243.41 121.105 2248.35 115.245C2252.05 110.843 2256.49 107.04 2260.12 102.649C2262.33 94.607 2259.48 82.8205 2255.57 75.8223C2252.43 70.2003 2247.24 64.8883 2240.89 63.1255C2237.83 62.277 2234.03 61.9754 2230.9 62.4995ZM2156.66 705.499C2140.07 710.43 2127.91 721.386 2119.51 736.487C2109.15 755.116 2112.2 795.917 2118.26 815.779C2118.98 818.138 2119.73 820.297 2121.32 822.222L2123.21 822.853C2126.57 809.548 2121.44 794.571 2125.36 780.959C2128.75 769.242 2135.97 756.634 2141.79 745.85C2143.46 742.748 2146.21 739.915 2147.04 736.504C2154.62 731.899 2159.18 722.707 2166.55 717.75C2172.17 713.969 2181.69 713.075 2186.03 708.035C2177.85 705.537 2170.84 705.564 2163.2 709.677C2149.73 716.924 2139.6 730.63 2132.91 744.035C2130.72 748.432 2128.82 753.917 2125.39 757.481L2125.72 757.332L2121.86 757.629C2124.19 739.944 2138.92 723.226 2152.53 712.795C2155.96 710.165 2159.46 707.536 2163.29 705.505C2160.94 705.004 2158.99 705.21 2156.66 705.499ZM1833.85 121.499C1828.34 130.377 1827.89 144.648 1830.22 154.448C1834.08 170.588 1844.62 184.207 1858.67 192.812C1863.47 195.745 1870.29 199.528 1875.94 199.865C1873.86 191.86 1844.98 179.663 1849.64 147.614L1850.75 146.81C1857.77 154.274 1856.47 167.623 1862.55 175.501C1864.25 177.706 1865.05 180.472 1866.81 182.734C1872.05 189.465 1880.84 196.583 1888.56 200.227C1891.25 201.496 1894.3 202.04 1896.91 203.349L1896.34 202.804C1893.68 200.289 1890.65 198.69 1887.8 196.466C1874.7 186.249 1863.92 174.29 1863.45 156.683C1863.42 155.779 1863.53 155.084 1863.7 154.199L1863.61 154.495L1866.29 153.748C1871.98 158.005 1870.49 169.077 1873.73 175C1877.86 182.548 1900.53 202.487 1909.45 203.701L1910.32 202.951C1906.87 198.995 1900.34 194.638 1895.54 192.5C1895.46 192.375 1895.39 192.249 1895.32 192.125C1890.17 183.747 1879.17 177.245 1882.11 165.484C1882.3 164.73 1883.09 164.345 1883.68 163.863C1885.67 164.596 1886.15 164.691 1887.09 166.742C1888.5 169.849 1888.9 173.272 1890.49 176.413C1896.04 187.395 1907.9 196.686 1919.3 201.275C1922.29 202.474 1924.94 203.579 1928.17 203.37C1925.09 200.933 1921.18 200.229 1917.73 198.449C1911.63 195.3 1899.87 187.374 1899.25 179.84C1899.17 178.77 1899.28 177.761 1899.47 176.711L1900.96 175.55C1906.62 176.685 1909.83 184.706 1914.23 188.2C1930.76 201.323 1954.71 205.311 1973.42 195.181C1975.49 194.061 1978.57 192.807 1980.31 191.286C1980.88 190.797 1980.87 190.74 1981.23 190.21C1955.41 187.212 1921.42 184.323 1903.72 162.288C1899.32 156.81 1895.64 150.683 1890.95 145.442C1880.87 134.172 1861.3 133.305 1847.61 129.073C1842.55 127.51 1838.7 122.633 1833.85 121.499Z"></path><path fill="#28682E" fill-opacity="0.98823529" transform="scale(0.058604 0.0585938)" d="M540.467 178.999C561.375 179.733 700.645 251.095 728.12 263.869C761.167 279.233 794.777 294.354 829.116 306.615C863.415 318.862 897.901 330.524 933.603 337.98C945.447 340.454 957.379 342.825 969.348 344.613C980.38 346.262 999.069 346.458 1008.7 350.533C993.289 352.11 975.991 349.926 960.581 348.067C843.116 333.895 731.247 271.982 626.484 220.506C600.505 207.74 563.643 194.85 540.467 178.999Z"></path><path fill="#28682E" transform="scale(0.058604 0.0585938)" d="M145.8 189.066C149.968 188.734 155.608 188.382 159.374 190.482C161.862 191.869 161.97 192.729 162.676 195.307C161.98 198.339 161.18 199.797 159.106 202.114C157.346 202.441 155.743 202.55 153.968 202.333C151.13 201.987 148.332 201.146 146.628 198.635C144.727 195.835 145.109 192.164 145.8 189.066Z"></path><path fill="#28682E" transform="scale(0.058604 0.0585938)" d="M170.725 171.813C173.614 171.671 176.387 171.738 179.19 172.546C182.145 173.398 184.082 174.726 185.552 177.485C186.04 180.532 185.612 182.26 184.605 185.097C182.79 185.045 181.048 184.817 179.282 184.4C176.162 183.664 172.089 181.886 170.615 178.829C169.313 176.128 170.012 174.457 170.725 171.813Z"></path><path fill="#28682E" transform="scale(0.058604 0.0585938)" d="M203.141 158.828C206.13 159.118 209.311 159.541 211.845 161.307C213.779 162.654 215.223 164.384 215.445 166.801C215.659 169.134 214.388 171.803 212.979 173.537C211.457 173.304 209.984 172.971 208.583 172.309C205.181 170.704 202.332 167.969 200.971 164.459C201.027 161.417 201.244 161.242 203.141 158.828Z"></path><path fill="#28682E" transform="scale(0.058604 0.0585938)" d="M214.921 255.054C216.584 254.847 218.309 254.621 219.988 254.689C222.553 254.794 225.642 255.277 227.414 257.272C227.212 259.567 226.446 259.736 224.789 261.249C221.089 262.187 219.056 262.651 215.578 261.065C214.417 258.876 214.563 257.459 214.921 255.054Z"></path><path fill="#28682E" transform="scale(0.058604 0.0585938)" d="M1492.73 103.989C1492.88 103.824 1493.03 103.664 1493.17 103.496C1498.33 97.4405 1500.01 88.3467 1504.53 81.6054C1523.3 53.6078 1556.45 40.3734 1589.02 37.2661C1597.43 36.4648 1611.7 35.1162 1619.09 39.769C1613.12 42.9378 1598.59 39.4144 1591.51 39.8664C1574.26 40.9689 1554.87 48.2185 1540.46 57.6391C1526.62 66.6919 1513.71 80.9642 1506.87 96.1057C1504.5 101.338 1503.56 107.349 1501.13 112.496C1500.4 114.045 1499.23 115.021 1497.79 115.873C1496.44 115.772 1496.17 115.597 1495.01 114.848C1495.19 113.095 1495.42 111.286 1495.41 109.524C1495.4 106.555 1494.73 105.996 1492.73 103.989Z"></path><path fill="#FEFCFC" fill-opacity="0.015686275" transform="scale(0.058604 0.0585938)" d="M2082.99 421.365C2099.28 420.317 2112.19 422.623 2124.78 433.849C2141.24 448.524 2147.37 475.468 2148.33 496.624C2148.67 504.07 2148.91 516.27 2143.78 522.047C2145.18 516.581 2145.72 505.755 2144.29 500.475L2141.53 498.9C2145.17 489.97 2138.9 471.25 2135.18 462.362C2128.19 445.654 2114.14 432.854 2097.46 426.023C2092.8 424.115 2087.82 422.768 2082.99 421.365Z"></path><path fill="#28682E" fill-opacity="0.96862745" transform="scale(0.058604 0.0585938)" d="M1492.73 103.989C1494.73 105.996 1495.4 106.555 1495.41 109.524C1495.42 111.286 1495.19 113.095 1495.01 114.848C1496.17 115.597 1496.44 115.772 1497.79 115.873C1495.19 126.548 1494.9 142.348 1496.7 153.288C1498.26 162.751 1512.63 203.214 1510.99 208.063C1509.62 208.409 1508.2 208.839 1506.8 209.056C1505.3 208.07 1504.82 207.66 1504.15 205.995C1504.41 205.542 1505.37 204.275 1505.42 203.834C1505.92 199.424 1492.72 170.341 1490.98 162.624C1487.68 147.956 1488.35 133.117 1490.5 118.362C1491.11 114.149 1493.39 108.06 1492.73 103.989Z"></path><path fill="#FEFCFC" fill-opacity="0.0078431377" transform="scale(0.058604 0.0585938)" d="M2178.66 223.904C2181.83 225.043 2184.24 226.094 2186.88 228.213C2181.45 231.071 2175.72 233.022 2170.33 236.064C2158.39 242.802 2148.61 251.592 2137.94 260.059L2135.87 261.683C2135.09 260.74 2134.35 259.786 2133.63 258.801C2129.39 259.368 2128.42 261.767 2123.01 261.164C2131.11 256.267 2135.87 249.158 2143.03 243.537C2153.64 235.213 2166.7 229.932 2178.66 223.904Z"></path><path fill="#FEFCFC" fill-opacity="0.011764706" transform="scale(0.058604 0.0585938)" d="M2499.73 523.827C2502.31 524.232 2502.81 524.087 2504.56 525.954C2504.5 527.51 2504.5 528.877 2503.86 530.33L2505.87 530.344L2504.54 530.942C2506.59 530.492 2506.57 530.126 2508.13 529.023C2508.29 528.913 2508.49 528.896 2508.67 528.832C2509.06 530.639 2509.17 532.397 2508.91 534.23C2507.98 540.734 2504.94 554.325 2499.25 558.466C2499.42 558.041 2499.58 557.617 2499.72 557.185C2502.15 549.831 2503 530.54 2499.73 523.827Z"></path></svg> 