<?xml version="1.0" encoding="UTF-8"?> <svg xmlns="http://www.w3.org/2000/svg" width="146" height="51" viewBox="0 0 146 51" fill="none"><path d="M0.297203 18.6461H1.9532C2.4332 18.2301 2.9052 17.7101 3.3692 17.0861C3.8332 16.4621 4.2812 15.7341 4.7132 14.9021C5.1452 14.0701 5.4972 13.1101 5.7692 12.0221C6.0412 10.9341 6.1772 9.82212 6.1772 8.68612V3.81412C6.1772 2.98212 6.0732 2.47812 5.8652 2.30212C5.6732 2.12612 5.1532 2.03812 4.3052 2.03812H3.7772V1.82212H15.4652V2.03812H14.6012C14.0412 2.03812 13.6892 2.13412 13.5452 2.32612C13.4012 2.51812 13.3292 2.91812 13.3292 3.52612V18.6461H15.4652V23.1101H14.6012V20.5661C14.6012 19.9581 14.5212 19.5581 14.3612 19.3661C14.2172 19.1741 13.8652 19.0781 13.3052 19.0781H2.4572C1.8972 19.0781 1.5372 19.1741 1.3772 19.3661C1.2332 19.5581 1.1612 19.9581 1.1612 20.5661V23.1101H0.297203V18.6461ZM4.6172 18.6461H11.4572V2.25412H6.8012V8.11012C6.8012 10.3501 6.5932 12.3821 6.1772 14.2061C5.7772 16.0141 5.2572 17.4941 4.6172 18.6461ZM25.4781 19.2701C22.8061 19.2701 20.6541 18.4621 19.0221 16.8461C17.3901 15.2301 16.5741 13.0941 16.5741 10.4381C16.5741 7.79812 17.3901 5.67012 19.0221 4.05412C20.6541 2.43812 22.8061 1.63012 25.4781 1.63012C28.1341 1.63012 30.2701 2.43812 31.8861 4.05412C33.5181 5.67012 34.3341 7.79812 34.3341 10.4381C34.3341 13.0941 33.5181 15.2301 31.8861 16.8461C30.2701 18.4621 28.1341 19.2701 25.4781 19.2701ZM25.5501 18.8381C27.7261 18.8381 29.3821 18.1581 30.5181 16.7981C31.6701 15.4381 32.2461 13.4701 32.2461 10.8941C32.2461 8.03012 31.6541 5.84612 30.4701 4.34212C29.3021 2.82212 27.6061 2.06212 25.3821 2.06212C23.1901 2.06212 21.5181 2.74212 20.3661 4.10212C19.2301 5.46212 18.6621 7.43012 18.6621 10.0061C18.6621 12.8701 19.2461 15.0621 20.4141 16.5821C21.5981 18.0861 23.3101 18.8381 25.5501 18.8381ZM42.2873 10.3901C42.2873 7.76612 43.0553 5.65412 44.5913 4.05412C46.1273 2.43812 48.1513 1.63012 50.6633 1.63012C52.3913 1.63012 53.8553 2.14212 55.0553 3.16612C55.1673 3.27812 55.2553 3.43812 55.3193 3.64612L55.4873 3.59812C55.4553 3.43812 55.4313 3.20612 55.4153 2.90212L55.3673 1.15012H55.5833L55.7993 8.08612L55.3673 8.11012L55.2953 5.87812C55.2313 4.82212 54.7113 3.91812 53.7353 3.16612C52.7753 2.41412 51.6873 2.03812 50.4713 2.03812C48.5033 2.03812 46.9993 2.71812 45.9593 4.07812C44.9353 5.43812 44.4233 7.41412 44.4233 10.0061C44.4233 12.8701 44.9593 15.0621 46.0313 16.5821C47.1193 18.0861 48.6873 18.8381 50.7353 18.8381C51.9033 18.8381 52.9833 18.5421 53.9753 17.9501C54.9673 17.3581 55.6633 16.5581 56.0633 15.5501L56.4713 15.7181C56.0233 16.8701 55.2713 17.7501 54.2153 18.3581C53.1753 18.9661 51.9993 19.2701 50.6873 19.2701C48.1753 19.2701 46.1433 18.4541 44.5913 16.8221C43.0553 15.1901 42.2873 13.0461 42.2873 10.3901ZM61.1115 18.6461H63.8475C65.3355 18.6461 66.5355 18.2301 67.4475 17.3981C68.3595 16.5661 68.8155 15.4621 68.8155 14.0861C68.8155 12.6461 68.3355 11.4621 67.3755 10.5341C66.4155 9.60612 65.1915 9.14212 63.7035 9.14212H62.4315V8.73412H63.3915C64.4475 8.73412 65.3195 8.43012 66.0075 7.82212C66.6955 7.21412 67.0395 6.43812 67.0395 5.49412C67.0395 4.51812 66.6715 3.73412 65.9355 3.14212C65.2155 2.55012 64.2555 2.25412 63.0555 2.25412H61.1115V2.27812C61.3835 2.55012 61.5195 2.96612 61.5195 3.52612V17.3741C61.5195 17.9181 61.3835 18.3261 61.1115 18.5981V18.6461ZM57.5355 19.0781V18.8621H58.3755C58.9515 18.8621 59.3035 18.7981 59.4315 18.6701C59.5755 18.5261 59.6475 18.1661 59.6475 17.5901V3.31012C59.6475 2.73412 59.5755 2.38212 59.4315 2.25412C59.3035 2.11012 58.9515 2.03812 58.3755 2.03812H57.5355V1.82212H63.3915C65.1035 1.82212 66.4795 2.15812 67.5195 2.83012C68.5595 3.48612 69.0795 4.35812 69.0795 5.44612C69.0795 6.18212 68.7595 6.89412 68.1195 7.58212C67.4955 8.25412 66.6635 8.66212 65.6235 8.80612V8.90212C67.1275 9.01412 68.3835 9.59012 69.3915 10.6301C70.3995 11.6701 70.9035 12.8221 70.9035 14.0861C70.9035 15.5581 70.2715 16.7581 69.0075 17.6861C67.7435 18.6141 66.1675 19.0781 64.2795 19.0781H57.5355ZM80.2106 10.3421V5.20612C80.2106 3.11012 79.2666 2.06212 77.3786 2.06212C76.2266 2.06212 75.3306 2.36612 74.6906 2.97412C74.0506 3.56612 73.7066 4.35012 73.6586 5.32612L73.5866 6.81412H73.1546L73.4186 1.15012H73.6586L73.5866 2.42212C73.5546 2.80612 73.5226 3.06212 73.4906 3.19012L73.6586 3.23812C73.7386 2.99812 73.8666 2.81412 74.0426 2.68612C74.9866 1.98212 76.0906 1.63012 77.3546 1.63012C78.9066 1.63012 80.0826 1.96612 80.8826 2.63812C81.6826 3.29412 82.0826 4.25412 82.0826 5.51813V17.3741C82.0826 17.8701 82.1226 18.1981 82.2026 18.3581C82.2986 18.5181 82.5226 18.5981 82.8746 18.5981L83.3546 18.5741L83.7626 18.5501L83.7866 18.7661C82.8426 18.8621 81.9706 19.0381 81.1706 19.2941V19.1021C81.1706 18.6221 81.0826 17.9021 80.9066 16.9421C80.7946 16.2221 80.7306 15.7021 80.7146 15.3821H80.4746C79.8346 17.9741 78.4906 19.2701 76.4426 19.2701C75.1306 19.2701 74.0426 18.9101 73.1786 18.1901C72.3306 17.4541 71.9066 16.5021 71.9066 15.3341C71.9066 13.8301 72.4906 12.6221 73.6586 11.7101C74.8426 10.7981 76.4026 10.3421 78.3386 10.3421H80.2106ZM80.2106 10.7741H78.4586C77.1146 10.7741 76.0346 11.1981 75.2186 12.0461C74.4026 12.8781 73.9946 13.9741 73.9946 15.3341C73.9946 16.3261 74.2426 17.1261 74.7386 17.7341C75.2506 18.3261 75.9146 18.6221 76.7306 18.6221C77.6586 18.6221 78.4666 18.1981 79.1546 17.3501C79.8586 16.4861 80.2106 15.2541 80.2106 13.6541V10.7741ZM84.4613 18.6461H86.1173C86.5973 18.2301 87.0693 17.7101 87.5333 17.0861C87.9973 16.4621 88.4453 15.7341 88.8773 14.9021C89.3093 14.0701 89.6613 13.1101 89.9333 12.0221C90.2053 10.9341 90.3413 9.82212 90.3413 8.68612V3.81412C90.3413 2.98212 90.2373 2.47812 90.0293 2.30212C89.8373 2.12612 89.3173 2.03812 88.4693 2.03812H87.9413V1.82212H99.6293V2.03812H98.7653C98.2053 2.03812 97.8533 2.13412 97.7093 2.32612C97.5653 2.51812 97.4933 2.91812 97.4933 3.52612V18.6461H99.6293V23.1101H98.7653V20.5661C98.7653 19.9581 98.6853 19.5581 98.5253 19.3661C98.3813 19.1741 98.0293 19.0781 97.4693 19.0781H86.6213C86.0613 19.0781 85.7013 19.1741 85.5413 19.3661C85.3973 19.5581 85.3253 19.9581 85.3253 20.5661V23.1101H84.4613V18.6461ZM88.7813 18.6461H95.6213V2.25412H90.9653V8.11012C90.9653 10.3501 90.7573 12.3821 90.3413 14.2061C89.9413 16.0141 89.4213 17.4941 88.7813 18.6461ZM100.567 19.0781V18.8381H101.407C101.983 18.8381 102.335 18.7741 102.463 18.6461C102.607 18.5021 102.679 18.1421 102.679 17.5661V3.28612C102.679 2.71012 102.607 2.35812 102.463 2.23012C102.335 2.10212 101.983 2.03812 101.407 2.03812H100.567V1.82212H106.687V2.03812H105.847C105.271 2.03812 104.911 2.11012 104.767 2.25412C104.623 2.39812 104.551 2.75812 104.551 3.33412V10.1981H106.375C108.215 10.1981 109.695 10.6061 110.815 11.4221C111.935 12.2381 112.495 13.3101 112.495 14.6381C112.495 15.9661 111.935 17.0381 110.815 17.8541C109.695 18.6701 108.215 19.0781 106.375 19.0781H100.567ZM104.551 10.6061V17.3741C104.551 17.9181 104.415 18.3261 104.143 18.5981V18.6461H105.919C107.375 18.6461 108.487 18.3021 109.255 17.6141C110.023 16.9261 110.407 15.9341 110.407 14.6381C110.407 13.3261 110.023 12.3261 109.255 11.6381C108.487 10.9501 107.375 10.6061 105.919 10.6061H104.551ZM113.34 19.0781V18.8381H114.18C114.756 18.8381 115.108 18.7741 115.236 18.6461C115.38 18.5021 115.452 18.1421 115.452 17.5661V3.31012C115.452 2.73412 115.38 2.38212 115.236 2.25412C115.108 2.11012 114.756 2.03812 114.18 2.03812H113.34V1.82212H123.324C123.612 1.82212 123.828 1.89412 123.972 2.03812H123.996L123.9 0.406124L124.116 0.382124L124.572 7.41412H124.14L124.044 5.73412C123.98 4.51812 123.548 3.63812 122.748 3.09412C121.964 2.53412 120.948 2.25412 119.7 2.25412H116.796V2.27812C117.148 2.63012 117.324 3.04612 117.324 3.52612V9.71812H119.004C121.18 9.71812 122.924 10.1501 124.236 11.0141C125.564 11.8621 126.228 12.9901 126.228 14.3981C126.228 15.8061 125.62 16.9421 124.404 17.8061C123.204 18.6541 121.612 19.0781 119.628 19.0781H113.34ZM117.324 10.1261V17.3741C117.324 17.9181 117.188 18.3261 116.916 18.5981V18.6461H119.172C120.788 18.6461 122.02 18.2861 122.868 17.5661C123.716 16.8301 124.14 15.7741 124.14 14.3981C124.14 13.0061 123.7 11.9501 122.82 11.2301C121.956 10.4941 120.692 10.1261 119.028 10.1261H117.324ZM139.291 19.0781V18.8621H140.131C140.707 18.8621 141.059 18.7981 141.187 18.6701C141.331 18.5421 141.403 18.1901 141.403 17.6141V3.28612C141.403 2.71012 141.331 2.35812 141.187 2.23012C141.059 2.10212 140.707 2.03812 140.131 2.03812H139.291V1.82212H145.411V2.08612H144.571C143.995 2.08612 143.635 2.15012 143.491 2.27812C143.347 2.40612 143.275 2.75812 143.275 3.33412V17.6141C143.275 18.1901 143.347 18.5421 143.491 18.6701C143.635 18.7981 143.995 18.8621 144.571 18.8621H145.411V19.0781H139.291ZM127.075 19.0781V18.8381H127.915C128.491 18.8381 128.843 18.7741 128.971 18.6461C129.115 18.5021 129.187 18.1421 129.187 17.5661V3.28612C129.187 2.71012 129.115 2.35812 128.971 2.23012C128.843 2.10212 128.491 2.03812 127.915 2.03812H127.075V1.82212H133.195V2.03812H132.355C131.779 2.03812 131.419 2.11012 131.275 2.25412C131.131 2.39812 131.059 2.75812 131.059 3.33412V10.1981H132.883C134.723 10.1981 136.203 10.6061 137.323 11.4221C138.443 12.2381 139.003 13.3101 139.003 14.6381C139.003 15.9661 138.443 17.0381 137.323 17.8541C136.203 18.6701 134.723 19.0781 132.883 19.0781H127.075ZM131.059 10.6061V17.3741C131.059 17.9181 130.923 18.3261 130.651 18.5981V18.6461H132.427C133.883 18.6461 134.995 18.3021 135.763 17.6141C136.531 16.9261 136.915 15.9341 136.915 14.6381C136.915 13.3261 136.531 12.3261 135.763 11.6381C134.995 10.9501 133.883 10.6061 132.427 10.6061H131.059ZM20.6968 50.2701C18.0248 50.2701 15.8728 49.4621 14.2408 47.8461C12.6088 46.2301 11.7928 44.0941 11.7928 41.4381C11.7928 38.7981 12.6088 36.6701 14.2408 35.0541C15.8728 33.4381 18.0248 32.6301 20.6968 32.6301C23.3528 32.6301 25.4888 33.4381 27.1048 35.0541C28.7368 36.6701 29.5528 38.7981 29.5528 41.4381C29.5528 44.0941 28.7368 46.2301 27.1048 47.8461C25.4888 49.4621 23.3528 50.2701 20.6968 50.2701ZM20.7688 49.8381C22.9448 49.8381 24.6008 49.1581 25.7368 47.7981C26.8888 46.4381 27.4648 44.4701 27.4648 41.8941C27.4648 39.0301 26.8728 36.8461 25.6888 35.3421C24.5208 33.8221 22.8248 33.0621 20.6008 33.0621C18.4088 33.0621 16.7368 33.7421 15.5848 35.1021C14.4488 36.4621 13.8808 38.4301 13.8808 41.0061C13.8808 43.8701 14.4648 46.0621 15.6328 47.5821C16.8168 49.0861 18.5288 49.8381 20.7688 49.8381ZM31.506 41.3901C31.506 38.7661 32.274 36.6541 33.81 35.0541C35.346 33.4381 37.37 32.6301 39.882 32.6301C41.61 32.6301 43.074 33.1421 44.274 34.1661C44.386 34.2781 44.474 34.4381 44.538 34.6461L44.706 34.5981C44.674 34.4381 44.65 34.2061 44.634 33.9021L44.586 32.1501H44.802L45.018 39.0861L44.586 39.1101L44.514 36.8781C44.45 35.8221 43.93 34.9181 42.954 34.1661C41.994 33.4141 40.906 33.0381 39.69 33.0381C37.722 33.0381 36.218 33.7181 35.178 35.0781C34.154 36.4381 33.642 38.4141 33.642 41.0061C33.642 43.8701 34.178 46.0621 35.25 47.5821C36.338 49.0861 37.906 49.8381 39.954 49.8381C41.122 49.8381 42.202 49.5421 43.194 48.9501C44.186 48.3581 44.882 47.5581 45.282 46.5501L45.69 46.7181C45.242 47.8701 44.49 48.7501 43.434 49.3581C42.394 49.9661 41.218 50.2701 39.906 50.2701C37.394 50.2701 35.362 49.4541 33.81 47.8221C32.274 46.1901 31.506 44.0461 31.506 41.3901ZM48.5125 50.0781V49.8621H50.3365C50.9125 49.8621 51.2645 49.7981 51.3925 49.6701C51.5365 49.5261 51.6085 49.1661 51.6085 48.5901V33.2541H50.1685C48.9685 33.2541 48.1445 33.4381 47.6965 33.8061C47.2485 34.1581 46.9925 34.8941 46.9285 36.0141L46.8565 36.9981L46.4245 36.9741L46.7845 31.4061L47.0485 31.4301L46.9285 32.8221H58.1125L57.9925 31.4541L58.2565 31.4301L58.6165 36.9741L58.1845 36.9981L58.1125 36.0141C58.0325 34.8941 57.7685 34.1581 57.3205 33.8061C56.8725 33.4381 56.0565 33.2541 54.8725 33.2541H53.4805V48.5901C53.4805 49.1661 53.5445 49.5261 53.6725 49.6701C53.8165 49.7981 54.1765 49.8621 54.7525 49.8621H56.5285V50.0781H48.5125ZM67.3669 41.3421V36.2061C67.3669 34.1101 66.4229 33.0621 64.5349 33.0621C63.3829 33.0621 62.4869 33.3661 61.8469 33.9741C61.2069 34.5661 60.8629 35.3501 60.8149 36.3261L60.7429 37.8141H60.3109L60.5749 32.1501H60.8149L60.7429 33.4221C60.7109 33.8061 60.6789 34.0621 60.6469 34.1901L60.8149 34.2381C60.8949 33.9981 61.0229 33.8141 61.1989 33.6861C62.1429 32.9821 63.2469 32.6301 64.5109 32.6301C66.0629 32.6301 67.2389 32.9661 68.0389 33.6381C68.8389 34.2941 69.2389 35.2541 69.2389 36.5181V48.3741C69.2389 48.8701 69.2789 49.1981 69.3589 49.3581C69.4549 49.5181 69.6789 49.5981 70.0309 49.5981L70.5109 49.5741L70.9189 49.5501L70.9429 49.7661C69.9989 49.8621 69.1269 50.0381 68.3269 50.2941V50.1021C68.3269 49.6221 68.2389 48.9021 68.0629 47.9421C67.9509 47.2221 67.8869 46.7021 67.8709 46.3821H67.6309C66.9909 48.9741 65.6469 50.2701 63.5989 50.2701C62.2869 50.2701 61.1989 49.9101 60.3349 49.1901C59.4869 48.4541 59.0629 47.5021 59.0629 46.3341C59.0629 44.8301 59.6469 43.6221 60.8149 42.7101C61.9989 41.7981 63.5589 41.3421 65.4949 41.3421H67.3669ZM67.3669 41.7741H65.6149C64.2709 41.7741 63.1909 42.1981 62.3749 43.0461C61.5589 43.8781 61.1509 44.9741 61.1509 46.3341C61.1509 47.3261 61.3989 48.1261 61.8949 48.7341C62.4069 49.3261 63.0709 49.6221 63.8869 49.6221C64.8149 49.6221 65.6229 49.1981 66.3109 48.3501C67.0149 47.4861 67.3669 46.2541 67.3669 44.6541V41.7741ZM73.7055 32.8221H75.7695H82.3455H86.3535V33.0381H85.4895C84.9295 33.0381 84.5775 33.1341 84.4335 33.3261C84.2895 33.5181 84.2175 33.9181 84.2175 34.5261V48.3741C84.2175 48.9821 84.2895 49.3821 84.4335 49.5741C84.5775 49.7661 84.9295 49.8621 85.4895 49.8621H86.3535V50.0781H80.4255V49.8621H81.0735C81.6335 49.8621 81.9855 49.7661 82.1295 49.5741C82.2735 49.3821 82.3455 48.9821 82.3455 48.3741V33.2541H76.7295V39.1101C76.7295 42.0701 76.3855 44.5981 75.6975 46.6941C75.0095 48.7741 74.2095 50.1901 73.2975 50.9421L71.8815 49.3341C72.3775 48.9181 72.8495 48.4221 73.2975 47.8461C73.7455 47.2541 74.1855 46.5581 74.6175 45.7581C75.0655 44.9581 75.4255 44.0301 75.6975 42.9741C75.9695 41.9181 76.1055 40.8221 76.1055 39.6861V34.8141C76.1055 33.9821 76.0015 33.4781 75.7935 33.3021C75.6015 33.1261 75.0815 33.0381 74.2335 33.0381H73.7055V32.8221ZM96.4 50.2701C93.728 50.2701 91.576 49.4621 89.944 47.8461C88.312 46.2301 87.496 44.0941 87.496 41.4381C87.496 38.7981 88.312 36.6701 89.944 35.0541C91.576 33.4381 93.728 32.6301 96.4 32.6301C99.056 32.6301 101.192 33.4381 102.808 35.0541C104.44 36.6701 105.256 38.7981 105.256 41.4381C105.256 44.0941 104.44 46.2301 102.808 47.8461C101.192 49.4621 99.056 50.2701 96.4 50.2701ZM96.472 49.8381C98.648 49.8381 100.304 49.1581 101.44 47.7981C102.592 46.4381 103.168 44.4701 103.168 41.8941C103.168 39.0301 102.576 36.8461 101.392 35.3421C100.224 33.8221 98.528 33.0621 96.304 33.0621C94.112 33.0621 92.44 33.7421 91.288 35.1021C90.152 36.4621 89.584 38.4301 89.584 41.0061C89.584 43.8701 90.168 46.0621 91.336 47.5821C92.52 49.0861 94.232 49.8381 96.472 49.8381ZM107.209 41.3901C107.209 38.7661 107.977 36.6541 109.513 35.0541C111.049 33.4381 113.073 32.6301 115.585 32.6301C117.313 32.6301 118.777 33.1421 119.977 34.1661C120.089 34.2781 120.177 34.4381 120.241 34.6461L120.409 34.5981C120.377 34.4381 120.353 34.2061 120.337 33.9021L120.289 32.1501H120.505L120.721 39.0861L120.289 39.1101L120.217 36.8781C120.153 35.8221 119.633 34.9181 118.657 34.1661C117.697 33.4141 116.609 33.0381 115.393 33.0381C113.425 33.0381 111.921 33.7181 110.881 35.0781C109.857 36.4381 109.345 38.4141 109.345 41.0061C109.345 43.8701 109.881 46.0621 110.953 47.5821C112.041 49.0861 113.609 49.8381 115.657 49.8381C116.825 49.8381 117.905 49.5421 118.897 48.9501C119.889 48.3581 120.585 47.5581 120.985 46.5501L121.393 46.7181C120.945 47.8701 120.193 48.7501 119.137 49.3581C118.097 49.9661 116.921 50.2701 115.609 50.2701C113.097 50.2701 111.065 49.4541 109.513 47.8221C107.977 46.1901 107.209 44.0461 107.209 41.3901ZM122.457 50.0781V49.8381H123.297C123.873 49.8381 124.225 49.7741 124.353 49.6461C124.497 49.5021 124.569 49.1421 124.569 48.5661V34.2861C124.569 33.7101 124.497 33.3581 124.353 33.2301C124.225 33.1021 123.873 33.0381 123.297 33.0381H122.457V32.8221H128.577V33.0381H127.737C127.161 33.0381 126.801 33.1101 126.657 33.2541C126.513 33.3981 126.441 33.7581 126.441 34.3341V41.1981H128.265C130.105 41.1981 131.585 41.6061 132.705 42.4221C133.825 43.2381 134.385 44.3101 134.385 45.6381C134.385 46.9661 133.825 48.0381 132.705 48.8541C131.585 49.6701 130.105 50.0781 128.265 50.0781H122.457ZM126.441 41.6061V48.3741C126.441 48.9181 126.305 49.3261 126.033 49.5981V49.6461H127.809C129.265 49.6461 130.377 49.3021 131.145 48.6141C131.913 47.9261 132.297 46.9341 132.297 45.6381C132.297 44.3261 131.913 43.3261 131.145 42.6381C130.377 41.9501 129.265 41.6061 127.809 41.6061H126.441Z" fill="black"></path></svg> 