<?xml version="1.0" encoding="UTF-8"?> <svg xmlns="http://www.w3.org/2000/svg" width="115" height="64" viewBox="0 0 115 64" fill="none"><path d="M16.3859 52.6986C16.1595 53.7175 15.8387 54.7365 15.4236 55.7554C15.0462 56.7744 14.5745 57.7556 14.0084 58.699C13.4423 59.6425 12.8007 60.5294 12.0837 61.3596C11.3667 62.1899 10.5742 62.8881 9.70616 63.4541C9.14008 63.7938 8.574 63.9636 8.00791 63.9636C7.81922 63.9636 7.57392 63.9259 7.272 63.8504C6.06436 63.5107 5.63036 62.6994 5.97001 61.4162C6.15871 60.6615 6.55497 59.8123 7.15879 58.8689C7.80035 57.9254 8.49852 56.9819 9.2533 56.0384C10.0458 55.1327 10.8383 54.2647 11.6308 53.4345C12.4234 52.6042 13.1027 51.9438 13.6687 51.4532C14.2348 50.8871 14.5745 50.2267 14.6877 49.4719C14.8764 48.3775 14.9141 47.3962 14.8009 46.5283C14.7632 46.3773 14.7066 46.1886 14.6311 45.9622C14.5933 45.7357 14.5367 45.5093 14.4613 45.2829C14.3858 45.0564 14.2726 44.8677 14.1216 44.7168C14.0084 44.5658 13.8574 44.4904 13.6687 44.4904C13.5555 44.4904 13.348 44.5281 13.0461 44.6036C11.8007 45.0564 10.6496 45.8301 9.59295 46.9245C8.574 48.0189 7.64939 49.2643 6.81914 50.6607C6.02662 52.0193 5.34732 53.4345 4.78124 54.9063C4.21516 56.3404 3.78116 57.6424 3.47925 58.8123C3.40377 59.1519 3.32829 59.4916 3.25281 59.8312C3.17734 60.1709 3.08299 60.4916 2.96977 60.7935C2.81882 61.3596 2.40369 61.6427 1.72439 61.6427C0.894135 61.6427 0.460138 61.1332 0.422399 60.1142C0.346921 58.1896 0.365791 56.2649 0.479008 54.3402C0.592224 52.4155 0.837527 50.4531 1.21492 48.4529C1.781 45.2451 2.63012 41.8864 3.76229 38.3767C4.89446 34.8292 6.19645 31.3195 7.66826 27.8475C9.17782 24.3378 10.8195 20.9979 12.5932 17.8278C14.3669 14.62 16.2161 11.7519 18.1408 9.22338C18.6314 8.58182 19.273 7.77043 20.0655 6.78922C20.8957 5.80801 21.7826 4.84567 22.7261 3.90219C23.7073 2.95872 24.7074 2.16621 25.7263 1.52465C26.7453 0.845345 27.6887 0.505695 28.5567 0.505695C29.6134 0.505695 30.5003 1.05291 31.2173 2.14734C31.7457 2.90212 31.9532 3.84559 31.84 4.97775C31.7268 5.9967 31.5192 6.99678 31.2173 7.97799C30.9154 8.92146 30.5192 9.88381 30.0285 10.865C29.236 12.45 28.3869 14.0162 27.4812 15.5635C26.6132 17.0731 25.6886 18.5826 24.7074 20.0922C24.2168 20.8092 23.5186 21.8282 22.6129 23.149C21.7071 24.4321 20.6693 25.8662 19.4994 27.4513C18.3295 28.9985 17.0841 30.6213 15.7633 32.3196C14.4801 33.9801 13.2159 35.5462 11.9705 37.0181C10.7251 38.4521 9.55521 39.7353 8.46078 40.8674C7.36635 41.9618 6.44175 42.7355 5.68697 43.1884C5.27184 43.4525 4.95106 43.7544 4.72463 44.0941C4.4982 44.4337 4.32837 44.8111 4.21516 45.2263C4.02646 46.2452 3.83777 47.283 3.64907 48.3397C3.46038 49.3587 3.30942 50.3776 3.19621 51.3966C3.12073 51.5853 3.15847 51.7173 3.30942 51.7928C3.42264 51.8306 3.55473 51.7362 3.70568 51.5098C4.15855 50.7173 4.70576 49.8493 5.34732 48.9058C5.98888 47.9623 6.70592 47.0755 7.49844 46.2452C8.29095 45.415 9.14008 44.7168 10.0458 44.1507C10.9515 43.5846 11.895 43.3016 12.8762 43.3016C13.8574 43.3016 14.7443 43.5846 15.5368 44.1507C16.3293 44.679 16.8011 45.3772 16.952 46.2452C16.9898 46.5471 17.0086 46.8302 17.0086 47.0943C17.0464 47.3208 17.103 47.5661 17.1785 47.8302C17.1785 48.0189 17.2728 48.1133 17.4615 48.1133C17.4992 48.1133 17.5181 48.1133 17.5181 48.1133C17.5558 48.0755 17.6125 48.0567 17.6879 48.0567C17.9144 47.9057 18.1408 47.7548 18.3672 47.6038C18.5937 47.4529 18.8012 47.3019 18.9899 47.1509C20.1976 46.2829 21.4241 45.4904 22.6695 44.7734C23.9526 44.0186 25.2546 43.3204 26.5754 42.6789C26.6509 42.6034 26.7453 42.5657 26.8585 42.5657C26.9717 42.5279 27.0849 42.4713 27.1981 42.3958C27.6133 42.1694 27.9906 42.0562 28.3303 42.0562C28.8586 42.0562 29.3681 42.3015 29.8587 42.7921C30.0097 43.0185 29.9531 43.2072 29.6889 43.3582C25.4621 45.2829 21.5373 47.6604 17.9144 50.4908C17.4992 50.7927 17.1596 51.1135 16.8954 51.4532C16.6312 51.7928 16.4614 52.208 16.3859 52.6986ZM29.4625 2.26055C28.7454 2.26055 27.934 2.56247 27.0283 3.16629C26.1226 3.77011 25.1791 4.56263 24.1979 5.54384C23.2544 6.48731 22.3109 7.56287 21.3675 8.77051C20.424 9.94042 19.5371 11.1103 18.7069 12.2802C17.8766 13.4501 17.1407 14.5634 16.4992 15.6201C15.8576 16.6391 15.367 17.4505 15.0273 18.0543C13.2536 21.1489 11.6875 24.2812 10.3289 27.4513C8.97025 30.6213 7.74374 33.8669 6.64931 37.1879C6.49836 37.6407 6.32853 38.1125 6.13984 38.6031C5.98888 39.056 5.87567 39.6032 5.80019 40.2447C6.21532 39.9806 6.55497 39.7164 6.81914 39.4522C7.08331 39.188 7.32861 38.9239 7.55505 38.6597C8.64947 37.4521 9.95146 35.9236 11.461 34.0744C13.0083 32.2252 14.6122 30.2062 16.2727 28.0173C17.9332 25.8285 19.5937 23.5641 21.2543 21.2243C22.9148 18.8468 24.4055 16.5447 25.7263 14.3181C27.0472 12.0915 28.1039 9.99702 28.8964 8.0346C29.7266 6.07218 30.1418 4.43054 30.1418 3.10968C30.1418 2.5436 29.9153 2.26055 29.4625 2.26055ZM12.7064 55.6422C12.5177 55.6422 12.1969 55.9064 11.7441 56.4347C11.2912 56.9631 10.8195 57.5669 10.3289 58.2462C9.83825 58.9255 9.40425 59.6048 9.02686 60.2841C8.64947 60.9634 8.42304 61.4351 8.34756 61.6993C8.34756 61.7748 8.36643 61.8125 8.40417 61.8125C8.55513 61.888 8.64947 61.9068 8.68721 61.8691C9.55521 61.2653 10.3477 60.3784 11.0648 59.2085C11.8195 58.0386 12.3856 56.9819 12.763 56.0384C12.8385 55.812 12.8196 55.6799 12.7064 55.6422ZM35.9919 53.9439C35.9164 53.7552 35.9353 53.5854 36.0485 53.4345C36.124 53.2458 36.2938 53.1514 36.558 53.1514C37.124 53.0759 37.6901 53.0382 38.2562 53.0382C38.8223 53.0382 39.3695 53.0005 39.8979 52.925C40.313 52.8873 40.5772 52.8118 40.6904 52.6986C40.8413 52.5853 40.9545 52.3212 41.03 51.906C41.5206 47.9057 42.1999 43.962 43.0679 40.0749C43.9736 36.1878 45.0492 32.3196 46.2946 28.4702C46.4833 27.9796 46.6342 27.489 46.7475 26.9984C46.8984 26.5078 47.0494 26.0172 47.2003 25.5266C47.2758 25.3379 47.3324 25.168 47.3701 25.0171C47.4079 24.8661 47.389 24.7152 47.3135 24.5642C47.1248 24.5265 46.9739 24.5831 46.8607 24.7341C46.7475 24.885 46.6154 25.0171 46.4644 25.1303C45.8983 25.6964 45.3322 26.2625 44.7662 26.8286C44.2001 27.3946 43.6151 27.9607 43.0113 28.5268C42.4452 29.0929 41.9546 29.3759 41.5395 29.3759C41.3131 29.3759 40.9923 29.2627 40.5772 29.0363C40.2375 28.8853 40.2186 28.6212 40.5205 28.2438C40.7847 27.9041 41.0866 27.6022 41.4263 27.338C42.7849 26.0172 44.1057 24.6586 45.3889 23.2622C46.672 21.8659 47.8985 20.4318 49.0684 18.96C49.559 18.3562 49.9553 18.0543 50.2572 18.0543C50.5213 18.0543 50.861 18.1864 51.2761 18.4505C51.6535 18.677 51.7856 18.9789 51.6724 19.3563C51.6346 19.4695 51.5969 19.5827 51.5592 19.6959C51.5214 19.8091 51.4837 19.9223 51.4459 20.0356C49.6345 24.8661 48.0306 29.9231 46.6342 35.2066C45.2756 40.4523 44.219 45.6037 43.4642 50.6607C43.4264 50.7739 43.3887 50.8871 43.351 51.0003C43.351 51.0758 43.351 51.1701 43.351 51.2834C43.3132 52.1891 43.6717 52.6419 44.4265 52.6419C44.9549 52.6419 45.3511 52.7174 45.6153 52.8684C45.8795 53.0193 46.1059 53.359 46.2946 53.8873C46.3701 54.1515 46.2569 54.3213 45.9549 54.3968C45.804 54.4723 45.6908 54.51 45.6153 54.51C44.2944 54.5855 42.9547 54.661 41.5961 54.7365C40.2375 54.8119 38.8978 54.8874 37.5769 54.9629C36.8221 54.9629 36.2938 54.6232 35.9919 53.9439ZM55.5722 54.9629C54.5155 54.9629 53.6663 54.6987 53.0248 54.1704C52.3832 53.6043 51.8737 52.9061 51.4964 52.0759C51.1567 51.2456 50.9114 50.3587 50.7605 49.4153C50.6472 48.4341 50.5906 47.5472 50.5906 46.7547C50.6284 44.7545 51.0058 42.6411 51.7228 40.4146C52.4398 38.188 53.3644 36.018 54.4966 33.9046C55.6665 31.7535 56.9685 29.7533 58.4026 27.9041C59.8367 26.0172 61.2707 24.451 62.7048 23.2056C63.0445 22.9037 63.4973 22.5452 64.0634 22.1301C64.6672 21.6772 65.2899 21.2621 65.9315 20.8847C66.573 20.4696 67.2146 20.1299 67.8562 19.8657C68.4977 19.5638 69.0638 19.4129 69.5544 19.4129C70.3469 19.4129 71.064 19.9978 71.7055 21.1677C71.5168 21.13 71.2904 21.1111 71.0262 21.1111C70.3469 21.1111 69.7054 21.2432 69.1015 21.5074C68.5355 21.7338 67.9694 22.0169 67.4033 22.3565C65.5918 23.4509 63.8558 24.9039 62.1953 26.7153C60.5726 28.4891 59.1007 30.4326 57.7799 32.546C56.459 34.6216 55.3646 36.7916 54.4966 39.056C53.6286 41.2825 53.0625 43.4148 52.7984 45.4527C52.6851 46.4339 52.6285 47.3962 52.6285 48.3397C52.6663 49.2455 52.8172 50.1512 53.0814 51.0569C53.1569 51.3588 53.2323 51.6607 53.3078 51.9627C53.421 52.2268 53.5531 52.5099 53.7041 52.8118C53.9683 53.4156 54.289 53.7175 54.6664 53.7175C54.9683 53.7175 55.2891 53.642 55.6288 53.4911C56.3458 53.2646 57.0062 52.9061 57.6101 52.4155C58.2516 51.8872 58.8177 51.3022 59.3083 50.6607C59.8367 49.9814 60.2895 49.2832 60.6669 48.5662C61.0443 47.8114 61.3273 47.0943 61.516 46.415C61.7425 45.6225 61.7613 44.8677 61.5726 44.1507C61.4594 43.7356 61.233 43.528 60.8933 43.528C60.5914 43.528 60.2706 43.6412 59.931 43.8677C59.5913 44.0564 59.2706 44.3205 58.9687 44.6602C58.6667 44.9621 58.3837 45.2829 58.1195 45.6225C57.8931 45.9244 57.6855 46.1886 57.4968 46.415C57.2327 46.7924 57.1572 47.1509 57.2704 47.4906C57.3459 47.6793 57.3081 47.8491 57.1572 48.0001C57.044 48.1133 56.893 48.151 56.7043 48.1133C56.4024 48.1133 56.1005 48.0567 55.7986 47.9435C54.8551 47.5661 54.6853 46.8679 55.2891 45.849C55.5156 45.4716 55.7797 45.0753 56.0816 44.6602C56.4213 44.2073 56.7798 43.8111 57.1572 43.4714C57.5723 43.094 58.0063 42.7921 58.4592 42.5657C58.912 42.3015 59.3838 42.1694 59.8744 42.1694C60.3273 42.1694 60.7801 42.2638 61.233 42.4525C61.6859 42.6034 62.0821 42.8298 62.4218 43.1318C62.7992 43.4337 63.1011 43.7922 63.3275 44.2073C63.5917 44.5847 63.7238 45.0187 63.7238 45.5093C63.7238 46.5283 63.4973 47.5849 63.0445 48.6794C62.5916 49.7738 61.9689 50.7927 61.1764 51.7362C60.4216 52.6797 59.5536 53.4533 58.5724 54.0572C57.5912 54.661 56.5911 54.9629 55.5722 54.9629ZM74.9906 46.8679C75.217 47.3208 75.1415 47.8491 74.7641 48.4529C74.3868 49.019 73.915 49.3398 73.3489 49.4153C73.2735 49.453 73.1791 49.4719 73.0659 49.4719C72.5375 49.4719 72.0658 49.2643 71.6507 48.8492C71.2733 48.4341 71.1223 47.9623 71.1978 47.434C71.3865 46.415 72.0092 45.9056 73.0659 45.9056C73.481 45.9056 73.8584 45.9999 74.1981 46.1886C74.5377 46.3396 74.8019 46.566 74.9906 46.8679ZM74.6509 36.2255C74.9906 36.3765 75.3302 36.5463 75.6699 36.735C76.0095 36.886 76.3492 37.0558 76.6888 37.2445C77.0662 37.5087 77.1983 37.8672 77.0851 38.32C76.9341 38.8484 76.5756 39.2258 76.0095 39.4522C75.8963 39.49 75.7642 39.5277 75.6133 39.5654C75.5 39.5654 75.3868 39.5843 75.2736 39.622C74.4056 39.5466 73.7452 39.2635 73.2923 38.7729C72.8395 38.2823 72.8017 37.6785 73.1791 36.9614C73.4433 36.3954 73.7829 36.1123 74.1981 36.1123C74.2735 36.1123 74.4245 36.1501 74.6509 36.2255ZM78.6109 50.6607C77.8561 46.9622 77.8183 43.3582 78.4976 39.8485C78.875 37.6974 79.3845 35.6783 80.0261 33.7914C80.7054 31.8667 81.5545 29.9986 82.5734 28.1872C82.7999 27.772 83.0829 27.3003 83.4226 26.772C83.8 26.2059 84.1962 25.6775 84.6113 25.1869C85.0642 24.6963 85.5171 24.2812 85.9699 23.9415C86.4605 23.5641 86.9511 23.3755 87.4418 23.3755C87.7814 23.3755 88.1022 23.4509 88.4041 23.6019C88.8947 23.8661 88.8947 24.168 88.4041 24.5076C87.6871 24.9605 87.0266 25.5643 86.4228 26.3191C85.819 27.0739 85.2529 27.8852 84.7246 28.7532C84.2339 29.6212 83.8 30.5081 83.4226 31.4138C83.0452 32.3196 82.7055 33.1498 82.4036 33.9046C81.3847 36.6973 80.7054 39.4522 80.3657 42.1694C80.0638 44.8489 80.177 47.5283 80.7054 50.2078C80.7431 50.3587 80.7997 50.6229 80.8752 51.0003C80.9507 51.3777 81.045 51.774 81.1582 52.1891C81.3092 52.5665 81.4601 52.9061 81.6111 53.208C81.7998 53.5099 81.9885 53.6609 82.1772 53.6609C82.3659 53.6609 82.5546 53.5666 82.7433 53.3779C83.9132 52.5099 85.0642 51.2079 86.1964 49.4719C87.3285 47.7359 88.3664 45.8678 89.3098 43.8677C90.291 41.8298 91.1213 39.8296 91.8006 37.8672C92.4799 35.9048 92.9328 34.2442 93.1592 32.8857C93.2724 32.2064 93.3668 31.5271 93.4422 30.8478C93.5177 30.1307 93.5177 29.4514 93.4422 28.8099C93.4045 28.6212 93.3668 28.357 93.329 28.0173C93.2913 27.6777 93.2158 27.3569 93.1026 27.055C92.9894 26.7531 92.8384 26.4889 92.6497 26.2625C92.4988 26.036 92.2912 25.9228 92.027 25.9228C91.8006 25.9228 91.5364 26.0172 91.2345 26.2059C90.7816 26.3946 90.4043 26.4889 90.1023 26.4889C89.8759 26.4889 89.7061 26.47 89.5929 26.4323C89.1777 26.3191 88.857 26.1681 88.6305 25.9794C88.4041 25.753 88.3664 25.5454 88.5173 25.3567C88.706 25.0926 88.9324 24.9416 89.1966 24.9039C89.4608 24.8284 89.7438 24.7907 90.0457 24.7907C90.1967 24.7529 90.4231 24.7341 90.725 24.7341C91.8195 24.7341 92.8007 24.9982 93.6687 25.5266C94.5367 26.0549 95.1027 26.904 95.3669 28.0739C95.6311 29.1306 95.7066 30.3005 95.5933 31.5837C95.4424 32.7536 95.2348 33.9235 94.9707 35.0934C94.7065 36.2255 94.3668 37.3577 93.9517 38.4899C93.7253 39.1692 93.3856 40.056 92.9328 41.1505C92.4799 42.2072 91.9515 43.3393 91.3477 44.547C90.7816 45.7546 90.1401 46.9811 89.423 48.2265C88.706 49.4719 87.9512 50.6041 87.1587 51.623C86.4039 52.6042 85.5925 53.4156 84.7246 54.0572C83.8943 54.661 83.064 54.9629 82.2338 54.9629C81.5922 54.9629 81.0639 54.8308 80.6488 54.5666C80.2336 54.3025 79.894 53.9817 79.6298 53.6043C79.3656 53.1892 79.1581 52.7174 79.0071 52.1891C78.8562 51.6607 78.7241 51.1513 78.6109 50.6607ZM97.8488 50.6607C97.0941 46.9622 97.0563 43.3582 97.7356 39.8485C98.113 37.6974 98.6225 35.6783 99.264 33.7914C99.9433 31.8667 100.792 29.9986 101.811 28.1872C102.038 27.772 102.321 27.3003 102.661 26.772C103.038 26.2059 103.434 25.6775 103.849 25.1869C104.302 24.6963 104.755 24.2812 105.208 23.9415C105.699 23.5641 106.189 23.3755 106.68 23.3755C107.019 23.3755 107.34 23.4509 107.642 23.6019C108.133 23.8661 108.133 24.168 107.642 24.5076C106.925 24.9605 106.265 25.5643 105.661 26.3191C105.057 27.0739 104.491 27.8852 103.963 28.7532C103.472 29.6212 103.038 30.5081 102.661 31.4138C102.283 32.3196 101.944 33.1498 101.642 33.9046C100.623 36.6973 99.9433 39.4522 99.6037 42.1694C99.3018 44.8489 99.415 47.5283 99.9433 50.2078C99.9811 50.3587 100.038 50.6229 100.113 51.0003C100.189 51.3777 100.283 51.774 100.396 52.1891C100.547 52.5665 100.698 52.9061 100.849 53.208C101.038 53.5099 101.226 53.6609 101.415 53.6609C101.604 53.6609 101.793 53.5666 101.981 53.3779C103.151 52.5099 104.302 51.2079 105.434 49.4719C106.567 47.7359 107.604 45.8678 108.548 43.8677C109.529 41.8298 110.359 39.8296 111.039 37.8672C111.718 35.9048 112.171 34.2442 112.397 32.8857C112.51 32.2064 112.605 31.5271 112.68 30.8478C112.756 30.1307 112.756 29.4514 112.68 28.8099C112.642 28.6212 112.605 28.357 112.567 28.0173C112.529 27.6777 112.454 27.3569 112.341 27.055C112.227 26.7531 112.076 26.4889 111.888 26.2625C111.737 26.036 111.529 25.9228 111.265 25.9228C111.039 25.9228 110.774 26.0172 110.472 26.2059C110.02 26.3946 109.642 26.4889 109.34 26.4889C109.114 26.4889 108.944 26.47 108.831 26.4323C108.416 26.3191 108.095 26.1681 107.869 25.9794C107.642 25.753 107.604 25.5454 107.755 25.3567C107.944 25.0926 108.17 24.9416 108.435 24.9039C108.699 24.8284 108.982 24.7907 109.284 24.7907C109.435 24.7529 109.661 24.7341 109.963 24.7341C111.057 24.7341 112.039 24.9982 112.907 25.5266C113.775 26.0549 114.341 26.904 114.605 28.0739C114.869 29.1306 114.945 30.3005 114.831 31.5837C114.68 32.7536 114.473 33.9235 114.209 35.0934C113.944 36.2255 113.605 37.3577 113.19 38.4899C112.963 39.1692 112.624 40.056 112.171 41.1505C111.718 42.2072 111.19 43.3393 110.586 44.547C110.02 45.7546 109.378 46.9811 108.661 48.2265C107.944 49.4719 107.189 50.6041 106.397 51.623C105.642 52.6042 104.831 53.4156 103.963 54.0572C103.132 54.661 102.302 54.9629 101.472 54.9629C100.83 54.9629 100.302 54.8308 99.8867 54.5666C99.4716 54.3025 99.132 53.9817 98.8678 53.6043C98.6036 53.1892 98.3961 52.7174 98.2451 52.1891C98.0941 51.6607 97.9621 51.1513 97.8488 50.6607Z" fill="#D92F88"></path></svg> 