<?xml version="1.0" encoding="UTF-8"?> <svg xmlns="http://www.w3.org/2000/svg" width="207" height="80" viewBox="0 0 207 80" fill="none"><path d="M22.375 50.4612C21.543 50.3972 20.839 50.2052 20.135 50.0132C19.623 49.8852 19.047 49.8212 18.535 49.6292L15.847 48.5412C14.759 48.0932 13.991 47.5172 12.903 46.7492C12.391 46.3652 11.879 45.9812 11.431 45.5972L11.047 46.1732L10.407 47.0692C10.343 47.1972 9.89497 47.7092 9.63897 48.0292L8.80697 48.8612C8.03897 48.6052 7.39897 48.0932 6.88697 47.4532L7.01497 46.9412L7.33497 46.2372L8.03897 45.3412L9.38297 43.4212L9.83097 42.7172L11.559 40.4132L12.071 39.7092C11.751 39.5172 11.559 39.5172 11.303 39.4532L9.25497 38.8132C8.87097 38.6212 8.48697 38.4932 8.16697 38.3012L6.75897 37.5972L5.47897 36.6372C4.51897 35.8052 3.49497 34.9732 2.72697 33.8852C1.76697 32.6052 1.31897 31.3252 0.934969 29.8532C0.806969 29.2772 0.806969 28.7012 0.806969 28.1252C0.678969 27.6772 0.678969 27.2292 0.806969 26.8452C0.870969 25.7572 1.19097 24.7332 1.57497 23.6452C1.76697 23.2612 1.95897 22.7492 2.21497 22.4292C2.53497 22.1092 2.47097 21.5972 2.98297 21.3412C2.91897 21.4692 2.91897 21.5332 2.91897 21.5972C2.91897 21.5972 2.91897 21.6612 2.98297 21.6612L3.17497 21.4692C3.68697 20.7012 4.26297 19.9972 4.96697 19.4212C5.47897 19.0372 5.99097 18.5252 6.50297 18.1412C7.07897 17.6292 7.84697 17.3092 8.48697 16.8612C8.80697 16.6692 9.12697 16.4132 9.51097 16.2852C9.95897 15.9652 10.471 15.8372 10.855 15.6452L11.239 15.3892L12.711 14.7492L13.095 14.5572V14.3652L10.471 15.4532C10.407 15.3892 10.407 15.3892 10.407 15.3252C10.535 15.2612 10.663 15.2612 10.727 15.1972L13.287 14.1092C13.863 13.7892 14.439 13.5332 15.015 13.2772C15.335 13.1492 15.591 13.2132 15.847 13.0212H16.359C17.511 12.7012 17.959 12.5092 18.855 12.3812C19.623 12.2532 20.327 12.1252 21.095 12.0612C21.927 11.9972 22.951 11.9332 23.783 11.9332C24.999 11.9332 26.151 11.9972 27.239 12.0612C27.943 12.1252 29.031 12.3812 29.671 12.5092L29.799 12.3812C29.991 11.9972 30.247 11.6772 30.503 11.3572C30.759 11.1012 30.951 11.1012 31.143 11.3572L31.911 11.8052C31.975 11.8692 32.167 11.9332 32.295 11.9332C32.295 11.8052 32.743 12.0612 32.743 12.1252C32.935 12.3812 33.063 12.5092 33.127 12.6372C33.127 12.8292 32.871 13.4692 32.679 13.7252C33.191 14.0452 33.639 14.2372 34.087 14.5572C34.599 14.8132 35.047 15.1332 35.431 15.4532C36.455 16.3492 37.415 17.3092 38.375 18.2692C38.951 18.8452 39.335 19.5492 39.719 20.1892C40.167 20.9572 40.679 21.6612 40.999 22.4292C41.447 23.3252 41.639 24.3492 41.831 25.3092L42.279 27.3572C42.343 27.6772 42.279 27.8052 42.023 28.0612C42.151 28.0612 42.215 28.0612 42.279 28.1252C42.343 28.1252 42.471 28.1892 42.471 28.2532C42.471 28.2532 42.343 28.3172 42.343 28.4452C42.279 28.5092 42.215 28.6372 42.215 28.7012C42.471 28.9572 42.343 29.2132 42.471 29.4052C42.471 29.5972 42.471 29.7252 42.343 29.9172C42.727 30.6212 42.663 31.3252 42.151 32.0292C42.599 32.2212 42.663 32.2852 42.471 32.7332C42.471 32.8612 42.471 32.9252 42.343 33.0532L42.151 33.5652C42.279 33.6292 42.343 33.8212 42.087 33.8852C42.343 34.2052 42.279 34.3332 42.023 34.4612C41.959 34.4612 41.959 34.5892 41.831 34.5892C42.343 34.9092 41.959 35.1012 41.959 35.4212L41.703 35.1652C41.703 35.4212 41.703 35.5492 41.639 35.7412C41.575 35.8052 41.511 35.9332 41.319 35.9332C41.255 35.9332 41.191 35.8052 41.063 35.7412L41.255 35.5492C41.575 35.4212 41.575 35.1012 41.319 34.6532C41.447 34.6532 41.511 34.6532 41.575 34.5892C41.575 34.3972 41.511 34.0772 41.511 33.8212L41.703 33.9492C41.703 33.8852 41.767 33.8212 41.703 33.8212C41.639 33.5012 41.703 33.3092 41.767 33.0532C41.959 32.7332 41.959 32.3492 41.959 31.9652V31.3252C41.959 31.2612 41.959 31.1972 41.831 31.0052H41.767C41.575 32.2212 41.447 33.3092 41.255 34.4612C41.255 34.4612 39.975 37.4052 39.847 37.8532C39.847 37.9172 38.823 39.9652 38.247 40.7332L37.671 41.5012L37.223 41.4372C37.479 41.0532 37.799 40.7332 37.927 40.3492C37.671 40.4132 37.991 40.0292 38.119 40.0932C38.439 39.7092 39.015 38.6212 39.527 37.5332L40.743 34.5252L40.551 34.7172C40.359 34.9732 39.975 35.1012 39.911 35.4212C39.911 35.4852 39.719 35.4852 39.719 35.4852C39.655 35.4852 39.655 35.4852 39.591 35.4212C39.847 35.1652 39.975 34.9092 40.103 34.6532C40.103 34.5892 40.167 34.5892 40.167 34.5892C40.167 34.1412 40.679 33.8852 40.551 33.3732C40.487 32.9892 40.679 32.6052 40.743 32.2212C40.871 32.1572 40.743 31.9652 40.743 31.9012C40.999 31.2612 41.127 30.5572 41.255 29.8532C41.255 29.7252 41.255 29.5972 41.319 29.4052H41.191L40.999 30.1092C40.871 30.5572 40.679 30.9412 40.615 31.3892C40.487 31.9652 40.423 32.6052 40.231 33.2452C40.167 33.6292 40.167 34.0772 39.847 34.4612C39.719 34.5252 39.847 34.6532 39.719 34.7172C39.655 34.9092 39.655 35.1012 39.591 35.1012C39.271 35.2292 39.271 35.6132 39.079 35.8052C39.271 35.9972 39.527 36.0612 39.335 36.2532C39.143 36.3172 39.015 36.5092 38.823 36.5732C39.015 36.5092 39.399 36.4452 39.527 36.3172C39.463 36.7012 39.399 37.0852 39.271 37.3412C39.079 37.7252 38.887 38.0452 38.759 38.3652C38.567 38.6212 38.119 38.7492 37.927 38.9412C37.927 38.9412 37.927 38.8772 37.863 38.8772C37.991 38.6212 38.119 38.3012 38.311 38.1092C38.311 38.0452 38.247 38.0452 38.247 38.0452C38.055 38.4292 37.735 38.6852 37.735 39.1972C37.735 39.2612 37.671 39.3892 37.543 39.4532C37.159 39.5172 36.967 39.9652 36.775 40.2852L35.879 41.3732C35.815 41.3732 35.815 41.3092 35.815 41.3092C35.815 41.2452 35.879 41.0532 35.943 40.9892C36.327 40.4772 36.775 39.9652 37.031 39.3892C37.671 38.3652 38.247 37.3412 38.631 36.2532C39.015 35.6132 39.143 34.9092 39.399 34.2052C39.591 33.5652 39.719 32.9252 39.911 32.2852C39.975 31.8372 39.975 31.3252 40.039 30.8132C40.039 30.5572 40.103 30.2372 40.167 29.9172C40.167 29.7252 40.039 29.5972 40.039 29.4052C39.975 28.9572 40.039 28.4452 39.975 27.9332C39.975 27.3572 40.039 26.6532 39.847 26.0772C39.655 25.5652 39.847 24.9892 39.463 24.4772C39.271 24.0292 39.143 23.4532 39.015 22.9412L38.823 22.4292V22.2372H38.887L39.143 22.6212C39.143 22.3012 39.079 22.1732 38.823 22.1092C38.631 22.0452 38.439 21.7252 38.311 21.5332L36.967 19.3572C36.775 18.9732 36.455 18.5892 36.263 18.3332L35.879 17.9492C35.175 17.3092 34.535 16.6692 33.831 15.9652C33.767 15.9652 33.767 15.9012 33.703 15.8372C34.151 15.9012 34.343 16.2212 34.599 16.4132C34.983 16.7332 35.303 16.9252 35.623 17.2452C35.623 17.1172 35.687 16.9892 35.623 16.9252L34.471 15.9652C34.215 15.8372 34.023 15.7092 33.831 15.5172C33.447 15.0692 32.743 14.8772 32.231 14.5572H32.039C32.231 14.6852 32.423 14.8132 32.551 14.9412V15.0692C32.359 14.9412 32.103 14.8132 31.847 14.7492C31.527 15.1332 31.335 15.5172 31.015 15.9652C30.631 16.4772 30.311 17.0532 29.863 17.6292C29.479 18.3332 29.031 18.9732 28.647 19.6132C28.455 19.9332 28.263 20.1252 28.071 20.3172L27.943 20.6372C27.687 21.1492 27.431 21.7892 27.111 22.2372C26.663 22.6212 26.535 23.1972 26.215 23.6452L24.935 25.6292C24.487 26.4612 23.975 27.2292 23.527 27.9972C23.399 28.2532 23.335 28.5092 22.951 28.5732V28.8292C22.759 29.1492 22.503 29.4052 22.375 29.7892C22.247 30.1732 21.927 30.4292 21.735 30.7492C21.479 30.9412 21.415 31.1972 21.223 31.3892C21.095 31.7092 20.839 31.9012 20.711 32.2212C20.455 32.4132 20.263 32.7332 20.135 32.9892L19.303 34.3332C19.111 34.6532 18.791 34.9732 18.535 35.2292C18.343 35.5492 18.279 35.7412 18.151 35.9972L17.511 36.6372C17.447 36.7652 17.447 36.8932 17.383 37.0852C16.999 37.5972 16.615 38.1092 16.359 38.6852C16.295 38.6852 16.295 38.7492 16.167 38.8132C17.959 38.7492 19.623 38.6852 21.287 38.4932C21.287 38.6212 21.287 38.6212 21.351 38.6852C21.159 38.6852 20.903 38.6852 20.711 38.7492C20.455 38.7492 20.263 38.8132 20.071 38.8132L20.135 38.8772C20.711 38.8132 21.287 38.8132 21.991 38.7492C21.863 38.6852 21.799 38.6212 21.735 38.6212V38.4932L23.527 38.2372C23.527 38.3012 23.527 38.3012 23.591 38.3652C23.079 38.4292 22.695 38.4932 22.247 38.6852V38.7492L23.655 38.4932L25.191 38.3012C25.639 38.2372 26.087 38.2372 26.599 38.1732C26.855 38.1732 27.111 37.9172 27.431 37.8532C27.687 37.7892 27.943 37.7892 28.263 37.7252C28.327 37.7252 28.455 37.8532 28.583 37.8532V38.0452L27.175 38.2372C27.111 38.2372 26.983 38.2372 26.855 38.3012C26.663 38.6852 26.279 38.6212 26.023 38.6852L24.103 39.1332C22.887 39.2612 21.671 39.5172 20.327 39.5172C19.559 39.5172 18.727 39.9012 17.959 39.8372C17.703 39.7732 17.575 39.7732 17.383 39.7732C17.447 39.7092 17.511 39.6452 17.575 39.6452L17.511 39.5172C16.935 39.9012 16.167 39.6452 15.527 39.8372L15.399 40.0932C15.207 40.4132 15.079 40.4772 14.823 40.8612C14.503 41.1172 14.311 41.5012 14.055 41.8212C13.799 42.3972 13.479 42.7812 13.095 43.3572L12.199 44.5732C12.583 45.0212 13.095 45.5972 13.735 46.0452C14.439 46.5572 15.463 47.1332 16.103 47.4532C16.807 47.7732 17.575 48.0292 18.215 48.2212C19.367 48.5412 20.135 48.6052 21.287 48.5412L23.463 48.2852C24.039 48.2212 24.615 48.2212 25.191 48.0292C25.895 47.9012 26.471 47.7092 27.111 47.5172C27.303 47.4532 27.623 47.5172 27.879 47.5172V47.2612C28.199 47.2612 28.391 47.1972 28.647 47.1332V47.2612L28.135 47.4532V47.5172L28.967 47.3252C28.903 47.2612 28.839 47.1972 28.839 47.1332V46.9412C29.223 47.3892 29.415 47.0052 29.735 46.8772C29.927 46.7492 30.247 46.6852 30.503 46.4932V46.3652C30.183 46.4932 29.863 46.6852 29.479 46.7492C29.415 46.8132 29.287 46.8132 29.223 46.8132L29.415 46.4932C29.927 46.1732 30.439 45.7892 31.015 45.4052L32.039 44.7652H32.167C32.487 45.0212 32.615 44.7652 32.871 44.6372C32.999 44.5092 33.191 44.5092 33.383 44.4452C33.511 44.3172 33.639 44.2532 33.639 44.1252C33.639 43.9332 33.767 43.7412 33.959 43.6772C34.087 43.5492 34.151 43.2932 34.343 43.1652C34.471 43.1012 34.599 43.1012 34.727 43.1012C34.663 43.1652 34.599 43.2292 34.535 43.4212C34.791 43.4212 34.855 43.2932 35.047 42.9092C34.855 42.9092 34.727 42.9092 34.599 42.8452L34.983 42.4612C35.111 42.5252 35.175 42.5892 35.239 42.7172C35.239 42.6532 35.303 42.6532 35.303 42.6532C35.303 42.5892 35.239 42.5892 35.175 42.4612C35.623 42.5892 35.815 42.3972 35.943 42.0772C36.135 41.8852 36.327 41.6932 36.583 41.5652C36.583 41.6292 36.647 41.6292 36.647 41.6292L35.943 42.5252V42.6532C36.199 42.5892 36.391 42.5892 36.583 42.5252C36.583 43.2292 35.943 43.8052 35.367 43.5492L36.199 42.9732C35.815 42.6532 35.751 42.6532 35.623 42.9732C35.623 43.0372 35.559 43.1012 35.559 43.1012C35.367 43.1652 35.175 43.2292 35.239 43.4852C35.303 43.5492 35.111 43.6772 35.047 43.7412C35.175 43.8052 35.303 43.8052 35.623 43.9332C35.175 44.1892 34.855 44.5092 34.599 44.7012C34.599 44.7652 34.599 44.7652 34.663 44.7652C35.175 44.6372 35.623 44.1252 36.071 43.7412C36.455 43.4852 36.775 42.9732 37.223 42.5892C37.159 42.6532 37.159 42.7172 37.031 42.9092L37.671 42.3972C37.735 42.3332 37.671 42.1412 37.671 42.0132C37.735 42.0132 37.863 41.9492 37.863 41.9492C37.863 41.8212 37.863 41.6292 37.927 41.5012C37.991 41.3732 38.119 41.1172 38.375 41.3092C38.503 41.0532 38.631 40.7972 38.823 40.6052C39.271 40.3492 39.271 39.8372 39.591 39.4532C39.655 39.3892 39.847 39.3892 39.911 39.3252C39.911 39.3252 39.911 39.3892 39.975 39.3892L39.399 40.4772C39.399 40.4772 39.399 40.5412 39.463 40.5412C39.591 40.2852 39.847 40.0292 39.975 39.8372C39.975 39.9652 39.911 40.2212 39.911 40.4132H39.719L39.975 40.5412L39.591 40.7332C39.975 41.1172 39.399 41.3092 39.271 41.5652L39.015 41.3092C39.079 41.0532 39.271 40.9892 39.527 41.1172C39.463 40.9892 39.399 40.8612 39.271 40.7332L36.839 43.6772C36.903 43.7412 37.031 43.8052 37.223 43.9972L37.543 43.6132C37.671 43.6132 37.671 43.6132 37.735 43.6772C37.543 43.8052 37.415 43.9972 37.287 44.1892L37.159 44.0612C36.903 44.1892 36.711 44.3172 36.455 44.5732C36.327 44.7012 36.199 44.7652 35.943 44.8932V44.8292L36.839 43.9332C36.839 43.8052 36.775 43.8052 36.775 43.7412C36.455 43.9972 36.199 44.1892 35.879 44.5092H35.943C35.815 44.5732 35.687 44.5732 35.623 44.6372C35.303 44.8292 35.111 45.0852 34.791 45.2132C34.343 45.5332 33.831 45.7252 33.447 45.8532C33.063 46.1092 32.615 46.2372 32.231 46.3652C32.039 46.4932 31.911 46.6852 31.783 46.8132C31.591 46.8772 31.463 47.1332 31.271 46.9412C31.271 46.8772 31.079 47.0052 31.015 47.0052V47.1972C31.335 47.1332 31.591 47.1972 31.847 47.0052C32.423 46.8132 32.935 46.4932 33.511 46.2372C33.575 46.2372 33.575 46.1732 33.639 46.1732C34.215 46.2372 34.535 45.8532 34.855 45.5332C35.111 45.2772 35.431 45.1492 35.815 45.0212C35.751 45.0852 35.751 45.1492 35.751 45.2772C35.943 45.0852 36.263 44.8932 36.455 44.7652C36.455 44.8292 36.455 44.8292 36.583 44.8932C36.199 45.0212 36.071 45.5332 35.559 45.3412C35.239 45.2772 35.111 45.6612 35.047 45.8532C34.727 46.3012 34.471 46.6852 33.959 46.8772L32.167 47.3252L31.271 47.7732C30.823 47.9652 30.439 48.0292 29.927 48.0292C29.863 47.9652 29.799 48.0292 29.735 48.0932H30.055L30.183 48.2212C29.351 48.3492 28.647 48.7332 27.815 48.7332C27.431 48.7332 27.175 48.9252 26.791 49.1172C27.943 49.0532 29.159 49.1172 30.311 48.7972V48.8612C29.799 49.0532 29.287 49.1812 28.711 49.4372C28.455 49.4372 28.135 49.3732 27.751 49.3092C27.815 49.5652 27.431 49.6932 26.791 49.6292L27.431 49.4372C27.367 49.4372 27.367 49.3732 27.367 49.3732L26.535 49.6292C25.959 49.6292 25.255 49.6292 24.615 49.5652C24.935 50.0132 25.447 49.8212 25.703 49.9492C25.191 50.0132 24.615 50.2052 24.039 50.0772C23.783 50.0132 23.399 50.0772 23.015 50.0772H22.247L22.183 50.1412L22.887 50.3972V50.4612H22.375ZM12.391 38.4292C12.711 38.4932 12.903 38.4932 13.095 38.3012C13.671 37.4052 14.247 36.6372 14.823 35.8052C15.271 35.2292 15.591 34.5892 16.039 34.0132C16.103 33.8852 16.359 33.7572 16.423 33.7572C16.999 33.7572 16.999 33.7572 17.255 33.3092C17.191 33.3732 17.063 33.4372 16.935 33.5652C16.935 33.5012 16.935 33.5012 16.871 33.5012C16.999 33.3092 17.063 33.1172 17.127 32.9252C16.935 33.1172 16.679 33.3732 16.551 33.5652C16.487 33.5652 16.487 33.5012 16.487 33.5012C18.855 29.7252 21.351 25.8852 23.847 22.1092C23.847 22.1092 23.911 22.1092 23.911 22.1732C23.847 22.3012 23.783 22.5572 23.591 22.7492C23.847 22.6852 23.911 22.6852 23.975 22.6852V22.2372C24.039 22.1732 24.103 22.0452 24.039 22.0452C23.847 21.7252 24.039 21.5332 24.103 21.3412L26.791 16.9892C26.983 16.7332 27.175 16.4772 27.367 16.1572C27.431 16.2852 27.431 16.3492 27.431 16.4132L28.263 15.3252C28.135 15.2612 28.071 15.1972 27.879 15.1972C28.391 14.7492 28.327 14.0452 29.031 13.7892C26.983 13.4052 25.767 13.2772 23.207 13.5972C21.991 13.7252 21.223 13.9812 20.327 14.1092C19.367 14.3012 18.599 14.6852 17.831 14.9412C17.511 15.0692 17.255 15.0052 16.935 15.1332L16.423 15.3892C16.167 15.5172 16.039 15.6452 15.783 15.7092C15.399 15.9012 15.015 15.9652 14.695 16.0932C14.055 16.4772 13.351 16.6692 12.903 17.2452C12.903 17.3092 12.711 17.3092 12.583 17.3092C12.391 17.3732 12.263 17.4372 12.199 17.5012L11.751 17.8212C10.855 18.3332 9.95897 18.5892 9.06297 19.3572C8.42297 19.8692 7.59097 20.2532 7.01497 20.9572C6.95097 21.0212 6.82297 21.0212 6.69497 21.0852C6.82297 20.8292 6.88697 20.7012 7.01497 20.5732L6.95097 20.5092C6.69497 20.7012 6.37497 21.0212 6.18297 21.2132H6.56697L5.86297 22.1092C5.47897 22.5572 5.09497 22.8772 4.77497 23.3252C4.39097 23.9012 4.19897 24.5412 3.87897 25.1172L3.55897 25.5652L3.30297 25.2452C3.23897 25.3732 3.17497 25.4372 3.04697 25.5652C3.62297 25.7572 3.62297 25.9492 3.30297 26.3972C3.23897 26.5252 3.17497 26.7172 3.23897 26.9732C3.23897 27.2292 3.11097 27.4852 2.79097 27.4212H2.59897C2.59897 27.4212 2.59897 27.4852 2.53497 27.4852C2.72697 27.5492 2.98297 27.6132 3.23897 27.7412L2.72697 27.9972C2.91897 28.1252 3.04697 28.2532 3.11097 28.4452C3.11097 28.6372 3.11097 28.8292 3.04697 29.1492C3.04697 29.3412 2.98297 29.6612 2.98297 29.9172C2.72697 29.7892 2.66297 29.6612 2.53497 29.5332C2.59897 29.8532 2.59897 30.1092 2.66297 30.3652L2.72697 30.4292C2.72697 30.0452 2.98297 30.0452 3.30297 30.1092C3.11097 30.3652 2.98297 30.6852 2.91897 30.9412H2.98297L3.49497 31.1972L3.04697 31.3892C3.62297 31.4532 3.62297 31.4532 3.68697 32.1572V32.2212C4.00697 32.5412 3.68697 32.5412 3.36697 32.6052C3.68697 32.7972 4.00697 32.9252 3.81497 33.2452L4.32697 33.3732C4.32697 33.6292 4.58297 33.8212 4.64697 33.9492C4.77497 34.1412 4.83897 34.3972 4.90297 34.5892C5.15897 34.7172 5.35097 34.9092 5.47897 35.0372C5.73497 35.2292 5.92697 35.6132 6.24697 35.8052C6.56697 36.1892 7.01497 36.4452 7.39897 36.7012L8.42297 37.2132C9.25497 37.5972 10.023 37.7892 10.791 38.0452C11.367 38.1732 11.879 38.2372 12.391 38.4292ZM12.391 14.3012C12.391 14.2372 12.327 14.2372 12.327 14.1732C12.775 14.0452 13.159 13.7892 13.479 13.6612C13.607 13.6612 13.607 13.6612 13.607 13.7252C13.223 13.8532 12.775 14.1092 12.391 14.3012ZM33.575 15.7732L32.679 15.1972C32.679 15.1332 32.679 15.1332 32.743 15.0692L33.639 15.6452C33.639 15.7092 33.575 15.7092 33.575 15.7732ZM8.99897 16.1572C8.93497 16.1572 8.93497 16.0292 8.93497 16.0292L9.89497 15.6452C9.89497 15.6452 9.95897 15.6452 9.95897 15.7092L8.99897 16.1572ZM5.60697 18.5252C5.47897 18.5252 5.47897 18.4612 5.41497 18.4612C5.79897 18.2692 6.05497 18.0132 6.37497 17.7572L6.50297 17.8852C6.18297 18.0772 5.86297 18.3332 5.60697 18.5252ZM4.00697 20.1252C4.00697 20.0612 3.87897 20.0612 3.87897 20.0612C4.13497 19.7412 4.39097 19.4852 4.64697 19.2292C4.71097 19.2292 4.71097 19.2292 4.71097 19.3572C4.51897 19.5492 4.19897 19.8692 4.00697 20.1252ZM39.975 39.8372L40.231 39.1332C40.103 39.1332 40.039 39.1972 39.911 39.2612C39.911 39.1972 39.847 39.1972 39.847 39.1972C39.911 38.9412 40.039 38.8132 40.103 38.6212C40.167 38.4292 40.167 38.2372 40.167 38.0452C40.167 37.7252 40.231 37.5332 40.551 37.3412C40.743 37.2772 40.871 37.1492 40.615 36.8932C40.743 36.8932 40.871 36.8292 40.935 36.7652V36.0612C41.191 36.1252 41.447 36.1252 41.639 36.1252C41.639 35.9972 41.767 35.8052 41.831 35.5492C41.831 36.1892 41.575 36.7012 41.255 36.6372V36.7012C41.639 37.1492 41.191 37.5972 41.063 37.9172C40.935 38.4932 40.551 39.0052 40.231 39.5172C40.167 39.6452 40.039 39.7092 39.975 39.8372ZM28.071 37.0852L28.775 36.8292C28.647 37.2132 28.327 37.2772 28.071 37.0852ZM29.223 37.6612V37.5972C29.479 37.5332 29.799 37.3412 30.183 37.2772V37.4052L29.223 37.6612ZM24.743 38.1732C24.679 38.1092 24.679 38.1092 24.679 38.0452L26.343 37.7892V37.8532C25.767 38.0452 25.255 38.1092 24.743 38.1732ZM36.583 41.5012L36.455 41.4372C36.775 41.0532 37.159 39.9652 37.415 40.0932C37.735 39.7732 37.927 39.3252 38.055 38.9412L38.439 38.8132C38.119 39.3892 37.735 39.9652 36.583 41.5012ZM34.983 42.1412L35.623 41.5012C35.303 42.2052 35.303 42.2052 34.983 42.1412ZM36.839 42.3332C36.775 42.3332 36.711 42.2052 36.711 42.1412L37.159 41.6932C37.223 42.0132 37.159 42.2052 36.839 42.3332ZM38.439 42.1412C38.503 41.9492 38.631 41.8212 38.759 41.6932L39.015 41.9492C39.015 42.0132 39.015 42.0132 38.439 42.1412ZM30.887 48.7332C30.887 48.7332 30.887 48.6052 30.823 48.6052C31.079 48.4772 31.335 48.3492 31.591 48.2852C31.591 48.3492 31.655 48.3492 31.655 48.4132C31.399 48.4772 31.143 48.6052 30.887 48.7332ZM60.72 34.9732C60.72 35.6772 60.912 36.5732 60.592 37.2132C60.464 37.9172 59.888 38.6852 59.632 39.3252C59.184 39.9012 58.672 40.4132 58.288 41.0532L56.944 42.2052C56.432 42.5252 56.048 42.6532 55.536 42.9092C55.408 42.9092 55.216 42.9732 55.152 42.9092C54.832 42.8452 54.448 42.6532 54.064 42.5252C53.808 42.3972 53.616 42.3332 53.552 41.9492L53.424 41.8852C52.912 41.6292 52.72 41.0532 52.656 40.4132C52.528 40.2212 52.784 40.0292 52.784 39.7092C53.168 39.7092 53.168 40.0292 53.232 40.2852C53.232 40.7972 53.616 40.9252 53.872 40.8612C54.512 40.7332 54.896 40.2852 55.216 39.9012C55.664 39.4532 56.24 39.0052 56.56 38.4292C56.944 37.9172 57.264 37.4692 57.648 36.8292V36.5732C57.712 36.3172 57.904 36.1252 57.904 35.9972C58.096 35.4212 58.352 34.9732 58.224 34.3972C58.224 34.0132 58.032 33.5652 57.904 33.2452C57.648 32.9252 56.88 32.9892 56.56 33.2452C55.984 33.5012 55.6 33.6292 55.216 33.9492H55.088C54.896 34.1412 54.704 34.3972 54.448 34.5252C54.128 34.9092 53.808 35.1012 53.424 35.3572C52.848 35.8692 52.208 36.1892 51.824 36.8932C51.312 37.7252 50.672 38.4932 50.032 39.1332C49.712 39.4532 49.008 40.9252 48.816 41.4372H48.432C48.56 41.5012 48.56 41.6292 48.56 41.6932C48.368 41.9492 48.112 42.3332 47.92 42.5252C47.792 42.5252 47.792 42.7812 47.728 42.9092C47.92 42.9092 47.984 42.9092 48.112 42.8452C47.792 43.2292 47.856 43.8692 47.216 43.8692H47.28C47.344 43.9332 47.408 43.9332 47.408 43.9332C47.28 44.3812 47.216 44.7012 47.088 45.0852C47.088 45.1492 46.896 45.1492 46.832 45.2132C47.088 45.3412 46.96 45.5972 46.832 45.9172C46.768 46.1092 46.96 46.4292 46.512 46.4932C46.704 47.3892 46.32 48.4132 45.872 48.6052C46 48.6692 46.064 48.6692 46.128 48.7332C46.064 48.7332 46 48.7972 45.872 48.7972C46 48.8612 46 48.8612 46.064 48.8612C46 49.2452 46.064 49.5652 46 49.8852C45.872 50.5252 45.68 51.1652 45.488 51.5492C45.36 52.0612 45.296 52.4452 45.168 52.8292C45.168 52.8932 45.168 53.0212 45.232 53.0852C45.04 53.2772 44.848 53.4052 44.528 53.5332C44.784 53.6612 44.848 53.8532 44.912 54.0452C44.848 54.2372 44.848 54.3652 44.784 54.7492C44.784 54.7492 44.592 54.8132 44.4 54.8132L44.784 55.0052C44.528 55.1972 44.4 55.2612 44.272 55.4532L44.4 55.5812C44.4 55.5812 44.528 55.6452 44.656 55.6452C44.208 56.4132 44.144 57.2452 44.08 58.1412C44.08 58.2692 43.952 58.3972 43.952 58.4612C43.824 58.9732 43.824 59.2292 43.76 59.6132C43.76 59.8052 43.696 59.8692 43.568 60.1252C43.76 60.3172 43.696 61.1492 43.184 61.5332L43.44 61.6612C43.312 62.1092 43.184 62.4292 43.056 62.8772C43.056 62.8772 43.12 63.0052 43.12 63.1972C43.056 63.7092 42.8 64.4132 42.736 65.0532C42.736 65.4372 42.544 66.0132 42.672 66.4612C42.736 66.6532 42.608 67.0372 42.544 67.2292C42.48 67.5492 42.416 68.0612 42.288 68.3812C42.288 68.4452 42.224 68.5092 42.16 68.5732C42.16 68.5092 42.032 68.5092 42.032 68.5092C41.968 68.7652 41.904 68.9572 41.904 69.2772C41.776 69.3412 41.52 69.4052 41.264 69.4692C41.008 69.3412 40.752 69.0852 40.432 68.7652C40.496 68.5092 40.432 68.1892 40.432 68.0612H40.176C40.112 68.1892 40.048 68.4452 39.984 68.7012C39.856 68.3812 39.6 68.1252 39.408 67.9972C40.368 64.7332 40.88 61.5332 41.584 58.3332C41.648 58.3332 41.712 58.3972 41.84 58.3972C41.584 57.8212 41.712 57.1812 42.096 56.9892C41.904 56.9252 41.84 56.9252 41.712 56.9252C41.776 56.6692 41.84 56.4772 41.968 56.2852C42.16 56.0292 42.224 55.7092 42.096 55.4532C41.968 55.3252 42.16 55.0692 42.224 55.0052C42.288 54.7492 42.48 54.4292 42.672 54.0452C42.48 54.1732 42.352 54.1732 42.288 54.1732C42.736 53.5332 43.056 53.0212 42.992 52.1892C42.864 52.3812 42.864 52.4452 42.8 52.5732V52.1252C43.056 52.1252 43.12 51.8692 43.248 51.6132L43.632 49.5652C43.696 49.2452 43.76 48.9892 43.76 48.7332C44.208 47.3892 44.528 45.9812 44.784 44.6372C44.976 43.6772 45.232 42.7812 45.488 41.7572C45.616 41.1172 45.872 40.4772 45.936 39.9012C46.192 38.8132 46.32 37.7252 46.64 36.5732C46.704 35.9332 46.896 35.2932 47.024 34.5892C47.28 33.7572 47.536 32.9252 47.728 32.0932C47.92 31.5812 48.048 31.0692 48.368 30.4932C48.432 30.0452 48.56 29.9172 48.944 29.9812H49.136C49.712 29.9172 49.968 30.3012 50.16 30.6852L50.352 31.5172C50.416 31.7092 50.416 31.9012 50.288 32.1572C50.288 32.2852 50.224 32.5412 50.16 32.7332C49.904 32.8612 49.904 32.9892 50.096 33.2452C50.032 33.3092 50.032 33.4372 49.968 33.5012C49.84 34.0772 49.648 34.5252 49.52 35.2292H49.392C49.328 35.8692 49.136 36.1252 49.008 37.5972V37.7252C48.88 37.9812 48.752 38.3652 48.688 38.8132C48.88 38.4932 49.264 38.3012 49.392 37.7892C49.392 37.7252 49.328 37.6612 49.52 37.6612C49.584 37.6612 49.648 37.5332 49.84 37.4052C49.776 37.4052 49.648 37.4052 49.52 37.2132C49.648 37.0212 49.84 36.9572 50.032 36.8932C50.16 36.5732 50.16 36.1892 50.672 36.3172C50.672 36.3172 50.672 36.1252 50.736 35.9972C51.184 35.9332 51.504 35.4212 51.44 35.2292C51.568 35.1012 51.76 34.9732 51.888 34.9092V34.5252C52.08 34.5252 52.272 34.5252 52.528 34.5252C52.656 34.4612 52.72 34.4612 52.72 34.3972C52.656 34.0772 52.976 34.0772 53.104 34.0132C53.488 33.5012 54.128 33.2452 54.576 32.9892C54.768 32.7332 55.024 32.6692 55.344 32.5412V32.2852C54.96 32.4772 54.64 32.4772 54.32 32.6052C54 32.6692 53.552 32.9252 53.296 33.1812C52.656 33.6292 52.016 34.1412 51.504 34.5892H51.376C51.312 34.5892 51.312 34.5252 51.312 34.5252C51.44 34.4612 51.568 34.3972 51.696 34.1412C51.76 34.0772 51.952 33.9492 51.952 33.8852C52.016 33.6292 52.016 33.5652 52.144 33.5012C52.528 33.2452 53.04 33.1812 53.296 32.8612C53.616 32.5412 54.064 32.2852 54.32 32.0932C55.088 31.7092 55.728 31.6452 56.368 31.6452C56.816 31.6452 57.392 31.8372 57.776 31.9012C58.096 31.9652 58.288 32.0932 58.736 32.2212C58.8 32.2212 58.864 32.2852 58.928 32.4772V32.6052C58.8 32.5412 58.672 32.5412 58.48 32.4772L58.288 32.5412C58.672 32.6692 58.864 32.8612 58.992 32.9252C59.248 32.9892 59.504 33.1172 59.76 33.1172L59.824 32.9892C59.952 33.1172 60.336 33.5012 60.592 33.9492C60.72 33.9492 60.72 34.0132 60.656 34.1412C60.656 34.4612 60.72 34.7172 60.72 34.9732ZM46.384 41.5012C46.448 41.0532 46.64 40.4772 46.704 40.0292H46.512C46.448 40.2852 46.384 40.7972 46.256 41.0532C46.256 41.2452 46.256 41.4372 46.192 41.5012H46.384ZM46.128 42.3972C46.128 42.2692 46.192 42.0772 46.32 41.8212C46.192 41.8212 46.128 41.8212 46.192 41.7572C46 41.9492 45.808 42.2052 45.808 42.3332C45.808 42.6532 45.808 42.7812 45.872 42.9732C45.616 42.9732 45.68 43.1652 45.744 43.3572C45.552 43.6132 45.488 43.8052 45.36 43.9332C45.488 44.1892 45.488 44.2532 45.488 44.3172C45.424 44.3172 45.36 44.3812 45.296 44.5092C45.36 44.5732 45.424 44.6372 45.488 44.6372C45.616 44.7012 45.68 44.6372 45.68 44.5732C45.744 44.2532 45.936 43.8052 45.936 43.4852L46.128 42.3972ZM45.424 45.5332C45.616 45.0852 45.616 45.0852 45.232 44.8932C45.232 45.0852 45.104 45.1492 45.104 45.2772C45.232 45.2772 45.296 45.2772 45.36 45.3412C45.296 45.4052 45.232 45.4052 45.04 45.5332L45.296 45.7892C45.168 45.7892 45.04 45.9172 44.848 45.9172V46.3012C44.784 46.5572 44.656 46.8132 44.656 47.1332C44.464 47.7092 44.4 48.4132 44.272 48.9892C44.08 49.7572 43.696 50.5252 43.632 51.2932C43.504 51.8692 43.248 52.5732 43.376 53.2772L43.312 53.3412C43.248 53.6612 42.992 54.1732 42.928 54.6852C42.928 54.7492 42.992 54.8132 43.12 54.9412C43.184 54.8132 43.248 54.8132 43.376 54.7492L43.184 54.6212C43.312 54.2372 43.44 54.0452 43.568 53.7252C43.632 53.3412 43.76 52.8932 43.952 52.4452C43.952 52.1252 43.952 51.7412 44.016 51.4212C44.144 51.1652 44.272 50.7812 44.272 50.4612H44.08C44.144 50.3332 44.208 50.0772 44.272 50.0132C44.336 49.9492 44.336 49.8212 44.336 49.7572C44.336 49.6932 44.336 49.5652 44.272 49.5652C44.4 49.5012 44.592 49.4372 44.848 49.3732V49.2452C44.592 49.2452 44.4 49.2452 44.336 49.2452C44.4 48.9892 44.464 48.7972 44.464 48.6692C44.592 48.6692 44.656 48.6692 44.784 48.7332C44.72 48.4132 44.656 48.0932 44.656 47.8372L45.104 47.6452C44.976 47.5172 44.848 47.4532 44.784 47.4532C44.976 47.3252 45.168 47.2612 45.168 47.1332C45.36 46.5572 45.36 45.9812 45.424 45.5332ZM44.592 51.6132C44.528 51.1652 45.104 50.7172 44.784 50.3332C44.528 50.7172 44.464 51.4212 44.592 51.6132ZM42.544 56.4132C43.12 56.1572 42.928 55.7732 42.928 55.5812C43.056 55.4532 43.12 55.3252 43.184 55.2612C43.12 55.1972 43.12 55.0692 42.864 54.9412C42.672 55.5172 42.672 55.9652 42.544 56.4132ZM44.912 55.0692C44.848 55.0692 44.784 55.0692 44.784 55.0052C44.848 55.0052 44.848 55.0692 44.912 55.0692ZM43.376 57.1812C43.44 56.9252 43.44 56.6692 43.504 56.3492C43.184 56.5412 43.056 57.4372 43.184 57.6932C43.312 57.5012 43.312 57.3732 43.376 57.1812ZM42.736 57.3732C42.736 57.1812 42.8 56.9892 42.8 56.7972C42.8 56.7332 42.736 56.6692 42.736 56.4772C42.608 56.5412 42.544 56.5412 42.544 56.5412C42.48 56.7972 42.48 57.0532 42.416 57.3732H42.736ZM42.544 58.0132C42.544 57.8212 42.736 57.6292 42.736 57.5652C42.608 57.5012 42.48 57.5012 42.416 57.5012C42.032 59.1012 41.712 60.5092 41.456 62.0452C41.52 62.0452 41.584 62.1092 41.584 62.1092C41.648 61.8532 42.288 61.7892 41.84 61.2772C42.032 61.1492 42.16 61.0852 42.032 60.8932C41.904 60.4452 42.032 60.1252 42.224 59.6772C42.352 59.6132 42.416 59.2292 42.48 58.6532L42.416 58.5252C42.48 58.4612 42.544 58.3332 42.544 58.2692V58.0132ZM75.1315 39.1972C75.1315 39.2612 75.1955 39.3252 75.1955 39.3252C76.0275 39.0692 76.7315 38.3652 77.5635 37.9172C77.4995 38.0452 77.4995 38.1732 77.4355 38.2372C77.1795 38.4932 76.8595 38.7492 76.6035 38.9412L75.3875 39.9012C74.8755 40.1572 74.4915 40.4132 74.0435 40.7332C73.4675 41.0532 72.9555 41.5012 72.3155 41.7572C71.9315 41.9492 71.4835 41.9492 71.0355 42.0132C70.7795 42.0132 70.6515 42.0772 70.4595 42.2052C70.2035 42.3332 69.8195 42.3972 69.4995 42.4612C68.9875 42.5892 68.5395 42.7172 68.0275 42.6532C67.3875 42.5892 66.6835 42.4612 66.1075 42.2692C65.5315 42.0772 65.2755 42.0132 64.6355 41.5012C64.5715 41.3732 64.3795 41.3092 64.3155 41.2452C63.8675 40.9252 63.6115 40.5412 63.2275 39.9652C63.0995 39.8372 63.0995 39.8372 62.9715 39.1972C62.6515 38.4292 62.7155 37.9812 62.7155 37.5332C62.7795 36.2532 63.0995 35.0372 63.7395 33.8212C63.9955 33.4372 64.2515 33.0532 64.5715 32.6692C65.1475 31.9652 65.7235 31.3252 66.2995 30.6852C66.8755 30.1092 67.5795 29.7252 68.4115 29.6612C68.6035 29.6612 68.7955 29.5972 69.0515 29.5332C69.6915 29.2772 70.2675 29.7252 70.7155 29.9812C71.2915 30.2372 71.8035 30.6212 72.2515 31.0052C72.7635 31.3252 73.0835 32.4132 72.8915 32.9252C72.7635 33.2452 72.5715 33.5652 72.3795 33.7572C71.8035 34.3972 71.2275 34.9732 70.6515 35.5492C70.4595 35.7412 70.0755 35.8052 70.0115 35.9972C69.9475 36.4452 69.4995 36.5092 69.2435 36.6372L68.7955 36.8932C68.9235 36.8932 68.9875 36.9572 68.9875 36.9572C68.7955 37.0852 68.6035 37.1492 68.3475 37.2772C68.2835 37.3412 68.2835 37.5332 68.2195 37.5972C67.7715 37.8532 67.2595 38.0452 66.8755 38.3012C66.6835 38.3652 66.5555 38.5572 66.4275 38.6852C65.9155 38.9412 65.7235 39.0052 65.2755 39.2612C65.5315 40.0292 65.6595 40.1572 66.1715 40.3492C67.0035 40.2852 67.8355 40.3492 68.6675 40.2212C69.2435 40.1572 69.8195 39.9012 70.3955 39.7092C70.8435 39.5172 71.3555 39.2612 71.8675 39.0692C72.1875 38.9412 72.5075 38.9412 72.8275 38.7492C73.5315 38.3012 74.2995 37.9172 74.9395 37.5332L75.1315 37.4052C75.1955 37.4692 75.1955 37.4692 75.1955 37.4692C75.1315 37.5972 75.0035 37.7252 74.9395 37.7892C75.0035 37.8532 75.0675 37.9172 75.0035 37.9812C75.1955 37.9812 75.3875 37.9172 75.5155 37.8532C75.5795 37.9172 75.5795 37.9172 75.5155 37.9812C75.2595 38.1732 74.9395 38.4292 74.6835 38.6852C74.8755 38.8132 75.1955 38.8772 75.5155 39.0052C75.3235 39.0692 75.2595 39.1332 75.1315 39.1972ZM65.6595 35.3572C65.4675 35.7412 65.3395 36.1892 65.2115 36.7012C65.7235 36.3812 66.0435 36.1892 66.2995 35.9972C66.4275 35.9972 66.5555 36.0612 66.6195 35.9972C66.8115 35.8692 67.1315 35.6772 67.3875 35.4212C67.1955 35.4212 67.1315 35.4852 66.9395 35.4852C67.3235 35.1652 67.5155 34.7812 67.9635 34.7812C67.8355 34.9732 67.6435 35.1012 67.5155 35.2932C67.5155 35.2932 67.5155 35.3572 67.5795 35.3572C68.1555 34.9732 68.6675 34.5252 69.2435 34.1412L69.1155 34.0132C68.9875 34.1412 68.8595 34.2692 68.6035 34.3972C68.4115 34.5252 68.2195 34.6532 67.9635 34.7812C68.0275 34.7172 68.0275 34.6532 68.0275 34.5892C68.6675 34.0772 69.1795 33.6292 69.7555 33.0532C70.1395 32.7332 70.3955 32.3492 70.6515 31.9012C70.8435 31.5812 70.5235 31.0052 70.2675 31.1332C69.6915 31.3892 69.1155 31.3892 68.6035 31.7732C68.0275 32.2212 67.4515 32.5412 67.0035 33.1172C66.4915 33.8212 66.0435 34.5892 65.6595 35.3572ZM71.3555 31.7092C70.9075 32.2212 70.6515 32.7332 70.8435 33.4372C71.0355 33.0532 71.3555 32.6052 71.5475 32.2212L71.3555 31.7092ZM80.1875 34.8452C79.8035 35.1012 79.4195 35.2932 79.0995 35.5492V35.6132C79.0995 35.5492 79.1635 35.5492 79.1635 35.5492C79.1635 35.6132 79.2275 35.6772 79.2275 35.6772C79.0995 35.8052 78.8435 35.9972 78.5235 36.1892L78.5875 36.4452C78.3315 36.5732 78.2035 36.7012 78.3955 36.8932C78.1395 37.0852 77.7555 37.0852 77.6915 37.5332C77.6915 37.5332 77.6915 37.5972 77.6275 37.5972C77.1795 37.5972 76.9235 38.0452 76.6035 38.3012C76.4115 38.4292 76.1555 38.6212 75.8355 38.7492C75.7075 38.8132 75.5795 38.6852 75.4515 38.6212C75.3875 38.4932 75.3875 38.3652 75.3875 38.3012C75.3875 38.2372 75.4515 38.1732 75.4515 38.1732C76.0275 38.3012 76.4115 37.8532 76.8595 37.5972L77.3075 37.3412C77.5635 37.2772 77.6915 37.0852 77.4355 36.7012C76.9875 37.0852 76.4115 37.4052 75.8995 37.8532C75.8355 37.7892 75.6435 37.7252 75.4515 37.6612C75.8995 37.4052 76.9235 36.8292 77.3075 36.1252C77.4355 35.9972 78.1395 35.6772 78.3315 35.4852L78.7795 35.6772C78.9075 35.4852 79.0355 35.3572 79.1635 35.2292C79.0995 35.1652 79.0355 35.1652 78.9075 35.1012L78.9715 35.0372C79.1635 35.0372 79.3555 35.0372 79.6755 34.9732C79.6115 34.8452 79.5475 34.7812 79.5475 34.7172L79.8675 34.4612L79.8035 34.3972L79.5475 34.5892H79.4195L80.5075 33.8852L80.6355 34.3332C80.6355 34.3332 80.6995 34.3332 80.6995 34.3972C80.5075 34.5252 80.3795 34.7172 80.1875 34.8452ZM75.3235 37.3412C75.2595 37.3412 75.2595 37.2772 75.2595 37.2772C75.8355 36.8932 76.4115 36.6372 77.0515 36.2532C76.9875 36.5732 76.6035 36.7012 75.3235 37.3412ZM73.6595 38.6852C74.1075 38.4932 74.4275 38.3012 74.7475 38.1092C74.6835 37.9172 74.1075 38.1092 73.6595 38.6852ZM82.5825 43.8052L81.0465 43.6132C80.8545 43.5492 80.4705 43.5492 80.2145 43.4852C79.8305 43.2932 79.3825 43.1652 78.9345 42.9092C78.6145 42.6532 78.2945 42.2692 77.9745 41.9492C77.7825 41.6932 77.6545 41.3732 77.5265 41.0532C77.4625 40.6692 77.3345 40.2852 77.2705 39.7732C77.2705 39.4532 77.2705 39.0052 77.3985 38.6212C77.5265 35.9972 79.2545 33.3092 80.3425 31.8372C80.4065 31.7092 80.4705 31.5812 80.5985 31.5812C80.7265 31.3892 80.8545 31.2612 80.9185 31.1332C80.9825 31.0692 81.6225 30.3012 81.8785 30.1092C82.3905 29.5972 82.9665 29.4692 83.5425 29.6612C83.7985 29.7252 84.1185 29.5972 84.3745 29.7252C84.6945 29.8532 85.0145 30.1092 85.3345 30.3012C85.7185 30.4932 86.1025 30.6212 86.3585 30.8772C86.7425 31.1332 87.0625 31.4532 87.3185 31.7732C87.3825 31.9012 87.3825 32.2212 87.2545 32.4772C87.2545 32.7332 87.0625 32.9252 86.8705 33.1812C86.7425 33.3732 86.3585 33.3092 86.1665 33.1812C85.8465 32.9892 85.5265 32.8612 85.2705 32.6692C85.0785 32.4772 84.8865 32.2852 84.8225 32.0932C84.6945 31.8372 84.6305 31.8372 84.4385 31.9652C83.8625 32.2212 83.2865 32.6052 82.9665 33.1812C82.7105 33.6932 82.2625 34.0132 81.9425 34.5252C81.6225 35.0372 81.2385 35.5492 80.8545 36.1252C80.2145 37.0852 79.7665 38.1732 79.4465 39.2612C79.1905 39.8372 79.2545 40.5412 79.3825 41.1172C79.4465 41.3092 79.6385 41.3732 79.8305 41.4372C80.5985 41.4372 81.4305 41.3732 82.2625 41.0532C82.7745 40.9252 83.2865 40.8612 83.6705 40.6052C84.1185 40.4772 84.5665 40.2852 84.9505 40.0292C85.2065 39.9012 85.3985 39.7092 85.7185 39.5172C85.8465 39.3892 85.9745 39.3892 86.1025 39.3252V39.4532C85.9745 39.5172 85.8465 39.5812 85.6545 39.7092V39.7732C85.8465 39.7732 85.9745 39.7092 86.0385 39.6452L87.6385 38.6212C88.4065 38.0452 89.1105 37.4692 89.8145 36.8932C90.3265 36.5732 90.7105 36.2532 91.1585 35.8692C91.1585 35.8692 91.2225 35.8052 91.2225 35.6772C91.0945 35.8052 90.9665 35.8692 90.7105 35.9972C90.6465 35.9332 90.7105 35.8692 90.7105 35.8692C91.1585 35.4852 91.7985 35.1012 92.3105 34.7812C92.4385 34.5892 92.6305 34.4612 92.9505 34.2692C93.0145 34.2052 93.0785 33.9492 93.2705 34.2052C93.3345 34.0772 93.3345 33.9492 93.3345 33.9492C93.6545 33.7572 94.0385 33.4372 94.3585 33.1812C94.4225 33.1812 94.5505 33.1172 94.6145 33.0532C94.6145 33.1812 94.7425 33.2452 94.6785 33.3092C94.6145 33.6932 94.5505 34.0132 94.1665 34.2052C94.1025 34.2052 94.0385 34.3332 94.0385 34.3972C94.1665 34.7172 93.7825 34.7812 93.7185 35.0372C93.6545 35.1012 93.6545 35.1652 93.5265 35.2932C93.4625 35.3572 93.3345 35.4852 93.3345 35.5492C93.2065 35.6772 93.2065 35.8052 93.0785 35.8692C92.7585 36.0612 92.5025 36.2532 92.2465 36.3172C92.1825 36.3812 92.1185 36.3812 92.0545 36.3812C91.9905 36.3812 91.9905 36.4452 91.9905 36.5092C92.1185 36.6372 92.1185 36.7012 92.3745 36.8292C92.2465 37.3412 91.7985 37.4692 91.3505 37.5332C91.3505 37.9172 90.9665 38.1092 90.7745 38.3012C90.7105 38.3012 90.7105 38.2372 90.7105 38.2372C90.7105 38.1092 90.8385 37.9172 90.9025 37.7892C90.7745 37.7892 90.6465 37.8532 90.5185 37.9172C90.2625 38.1092 90.0705 38.1732 89.8785 37.9172C89.9425 37.7892 89.9425 37.6612 90.0065 37.4692H89.9425C89.7505 37.6612 89.4305 37.9172 89.1105 38.1092C88.4705 38.6212 87.8305 39.1332 87.1905 39.7092C87.1905 39.7732 87.1265 39.7732 87.0625 39.9012C86.6145 40.0932 85.9745 39.7732 85.7825 40.5412C85.9745 40.5412 86.2305 40.4772 86.4225 40.6052C86.6785 40.7972 86.9345 40.7332 87.2545 40.6052C87.0625 40.6052 86.8705 40.5412 86.7425 40.5412C86.8705 40.1572 87.1905 40.0932 87.8945 40.3492L86.8065 41.1812C86.7425 41.1812 86.7425 41.2452 86.7425 41.2452C86.1665 41.1812 85.9745 41.6932 85.7185 42.0132C85.6545 42.0772 85.7185 42.2692 85.7185 42.5252C85.5265 42.6532 85.2065 42.7172 84.9505 42.8452C84.3745 43.1012 83.7345 43.2292 83.2225 43.4212C83.0305 43.6132 82.8385 43.8692 82.5825 43.8052ZM87.8945 39.9652C87.8305 39.4532 88.0225 39.2612 88.4065 39.2612C88.5345 39.2612 88.7265 39.1972 88.8545 39.0692C88.7905 39.0052 88.5985 39.0052 88.4705 39.0052C88.5345 38.6852 88.7265 38.6212 88.9825 38.6212C89.3025 38.5572 89.6865 38.2372 89.8785 38.6212C90.0065 38.6212 90.1345 38.5572 90.2625 38.4932C90.2625 38.6212 90.3265 38.6852 90.2625 38.6852C89.6865 39.0692 89.2385 39.6452 88.5345 39.7732C88.5345 39.7092 88.5345 39.5812 88.5985 39.4532C88.3425 39.6452 88.0865 39.7732 87.8945 39.9652ZM85.9745 42.4612C85.8465 42.0772 85.9105 42.0132 86.6145 42.0772C86.4225 42.1412 86.1665 42.3332 85.9745 42.4612ZM95.27 43.8052L93.734 43.6132C93.542 43.5492 93.158 43.5492 92.902 43.4852C92.518 43.2932 92.07 43.1652 91.622 42.9092C91.302 42.6532 90.982 42.2692 90.662 41.9492C90.47 41.6932 90.342 41.3732 90.214 41.0532C90.15 40.6692 90.022 40.2852 89.958 39.7732C89.958 39.4532 89.958 39.0052 90.086 38.6212C90.214 35.9972 91.942 33.3092 93.03 31.8372C93.094 31.7092 93.158 31.5812 93.286 31.5812C93.414 31.3892 93.542 31.2612 93.606 31.1332C93.67 31.0692 94.31 30.3012 94.566 30.1092C95.078 29.5972 95.654 29.4692 96.23 29.6612C96.486 29.7252 96.806 29.5972 97.062 29.7252C97.382 29.8532 97.702 30.1092 98.022 30.3012C98.406 30.4932 98.79 30.6212 99.046 30.8772C99.43 31.1332 99.75 31.4532 100.006 31.7732C100.07 31.9012 100.07 32.2212 99.942 32.4772C99.942 32.7332 99.75 32.9252 99.558 33.1812C99.43 33.3732 99.046 33.3092 98.854 33.1812C98.534 32.9892 98.214 32.8612 97.958 32.6692C97.766 32.4772 97.574 32.2852 97.51 32.0932C97.382 31.8372 97.318 31.8372 97.126 31.9652C96.55 32.2212 95.974 32.6052 95.654 33.1812C95.398 33.6932 94.95 34.0132 94.63 34.5252C94.31 35.0372 93.926 35.5492 93.542 36.1252C92.902 37.0852 92.454 38.1732 92.134 39.2612C91.878 39.8372 91.942 40.5412 92.07 41.1172C92.134 41.3092 92.326 41.3732 92.518 41.4372C93.286 41.4372 94.118 41.3732 94.95 41.0532C95.462 40.9252 95.974 40.8612 96.358 40.6052C96.806 40.4772 97.254 40.2852 97.638 40.0292C97.894 39.9012 98.086 39.7092 98.406 39.5172C98.534 39.3892 98.662 39.3892 98.79 39.3252V39.4532C98.662 39.5172 98.534 39.5812 98.342 39.7092V39.7732C98.534 39.7732 98.662 39.7092 98.726 39.6452L100.326 38.6212C101.094 38.0452 101.798 37.4692 102.502 36.8932C103.014 36.5732 103.398 36.2532 103.846 35.8692C103.846 35.8692 103.91 35.8052 103.91 35.6772C103.782 35.8052 103.654 35.8692 103.398 35.9972C103.334 35.9332 103.398 35.8692 103.398 35.8692C103.846 35.4852 104.486 35.1012 104.998 34.7812C105.126 34.5892 105.318 34.4612 105.638 34.2692C105.702 34.2052 105.766 33.9492 105.958 34.2052C106.022 34.0772 106.022 33.9492 106.022 33.9492C106.342 33.7572 106.726 33.4372 107.046 33.1812C107.11 33.1812 107.238 33.1172 107.302 33.0532C107.302 33.1812 107.43 33.2452 107.366 33.3092C107.302 33.6932 107.238 34.0132 106.854 34.2052C106.79 34.2052 106.726 34.3332 106.726 34.3972C106.854 34.7172 106.47 34.7812 106.406 35.0372C106.342 35.1012 106.342 35.1652 106.214 35.2932C106.15 35.3572 106.022 35.4852 106.022 35.5492C105.894 35.6772 105.894 35.8052 105.766 35.8692C105.446 36.0612 105.19 36.2532 104.934 36.3172C104.87 36.3812 104.806 36.3812 104.742 36.3812C104.678 36.3812 104.678 36.4452 104.678 36.5092C104.806 36.6372 104.806 36.7012 105.062 36.8292C104.934 37.3412 104.486 37.4692 104.038 37.5332C104.038 37.9172 103.654 38.1092 103.462 38.3012C103.398 38.3012 103.398 38.2372 103.398 38.2372C103.398 38.1092 103.526 37.9172 103.59 37.7892C103.462 37.7892 103.334 37.8532 103.206 37.9172C102.95 38.1092 102.758 38.1732 102.566 37.9172C102.63 37.7892 102.63 37.6612 102.694 37.4692H102.63C102.438 37.6612 102.118 37.9172 101.798 38.1092C101.158 38.6212 100.518 39.1332 99.878 39.7092C99.878 39.7732 99.814 39.7732 99.75 39.9012C99.302 40.0932 98.662 39.7732 98.47 40.5412C98.662 40.5412 98.918 40.4772 99.11 40.6052C99.366 40.7972 99.622 40.7332 99.942 40.6052C99.75 40.6052 99.558 40.5412 99.43 40.5412C99.558 40.1572 99.878 40.0932 100.582 40.3492L99.494 41.1812C99.43 41.1812 99.43 41.2452 99.43 41.2452C98.854 41.1812 98.662 41.6932 98.406 42.0132C98.342 42.0772 98.406 42.2692 98.406 42.5252C98.214 42.6532 97.894 42.7172 97.638 42.8452C97.062 43.1012 96.422 43.2292 95.91 43.4212C95.718 43.6132 95.526 43.8692 95.27 43.8052ZM100.582 39.9652C100.518 39.4532 100.71 39.2612 101.094 39.2612C101.222 39.2612 101.414 39.1972 101.542 39.0692C101.478 39.0052 101.286 39.0052 101.158 39.0052C101.222 38.6852 101.414 38.6212 101.67 38.6212C101.99 38.5572 102.374 38.2372 102.566 38.6212C102.694 38.6212 102.822 38.5572 102.95 38.4932C102.95 38.6212 103.014 38.6852 102.95 38.6852C102.374 39.0692 101.926 39.6452 101.222 39.7732C101.222 39.7092 101.222 39.5812 101.286 39.4532C101.03 39.6452 100.774 39.7732 100.582 39.9652ZM98.662 42.4612C98.534 42.0772 98.598 42.0132 99.302 42.0772C99.11 42.1412 98.854 42.3332 98.662 42.4612ZM134.901 35.0372C134.709 34.9732 134.389 35.0372 134.197 34.9732C133.685 34.7812 133.493 34.5892 132.853 34.7812C131.765 34.6532 131.189 34.5892 130.037 34.5892C129.973 34.5892 129.845 34.5892 129.653 34.7812C128.885 34.7172 128.053 34.6532 127.861 34.7172C126.773 34.7172 126.965 34.7172 125.877 34.7812C124.853 34.8452 123.765 34.7812 122.677 34.7812C121.653 34.7812 122.357 33.4372 123.125 32.7972C126.005 32.7332 127.861 32.6692 130.741 32.7972C132.341 32.8612 132.597 32.8612 134.197 33.2452C134.581 33.3092 134.773 33.4372 135.029 33.6292C135.285 33.8212 135.221 34.3972 135.221 34.7172C135.221 34.8452 135.157 35.0372 134.901 35.0372ZM131.189 33.3732L130.357 33.1812H128.821L128.885 33.2452C129.013 33.3092 129.589 33.3092 131.189 33.3732ZM124.277 34.0132C124.405 34.0132 124.661 33.9492 124.917 34.0132C124.661 33.8212 124.021 34.0132 124.277 34.0132ZM134.133 34.7172C134.325 34.7812 134.581 34.9092 134.901 34.6532C134.645 34.6532 134.325 34.6532 134.133 34.7172ZM174.096 5.14919C174.16 5.34119 174.096 5.66119 173.968 5.98119C173.84 6.30119 173.776 6.87719 173.712 7.26118L173.584 7.96519C173.584 8.02919 173.584 8.15718 173.52 8.22119C173.456 8.28519 173.52 8.34919 173.456 8.41319C173.072 8.79719 173.2 9.62919 172.816 10.0132C172.752 10.0132 172.752 9.94919 172.624 10.0132C172.752 9.62919 172.944 9.37319 172.944 8.98919C173.072 8.66919 173.264 8.34919 173.456 7.96519C173.392 7.96519 173.392 7.96519 173.328 7.90118C173.264 8.28519 173.072 8.66919 172.944 8.98919C172.88 9.18119 172.752 9.30919 172.688 9.50119H172.624C172.816 8.66919 173.136 8.09319 173.328 7.45319V7.38919C173.2 7.45319 173.2 7.51719 173.136 7.58118C172.816 8.22119 172.56 9.05318 172.304 9.82119C172.176 10.0772 171.984 10.2692 171.856 10.4612L170.832 12.6372C170.576 13.0852 170.256 13.5332 170 13.9172C169.872 14.0452 169.744 14.2372 169.616 13.8532C169.808 13.7892 170 13.5332 170.192 13.3412C170.192 13.2772 170.128 13.2772 170.128 13.2132C170.064 13.2772 169.936 13.3412 169.744 13.3412C169.552 13.6612 169.232 14.1092 169.04 14.5572C168.912 14.8772 168.784 15.1972 168.592 15.5172C168.464 15.7732 168.208 16.0292 168.08 16.0292C168.016 16.2212 167.952 16.4132 167.952 16.6052C167.952 16.6692 167.824 16.7332 167.76 16.7332V16.8612C167.888 16.9252 168.016 16.8612 168.208 16.9892C167.888 17.1812 167.824 17.4372 167.76 17.6292C167.568 17.8852 167.504 18.0772 167.376 18.2692C167.44 18.3332 167.504 18.3332 167.504 18.3332C167.632 18.0772 167.76 17.8212 167.952 17.6292C168.272 17.7572 168.464 17.7572 168.72 17.8212C168.656 17.8852 168.656 18.1412 168.464 17.9492C168.464 17.9492 168.336 18.0132 168.336 18.0772C168.272 18.2692 168.016 18.3972 168.336 18.4612C168.016 18.7172 167.696 18.7172 167.568 19.2292C167.696 19.1012 167.76 19.0372 167.888 18.9732V19.0372C167.696 19.5492 167.504 19.8052 167.248 20.1892C167.12 20.1892 167.056 20.4452 166.928 20.5732C166.672 20.8932 166.544 21.2772 166.288 21.5332C166.16 21.6612 166.032 21.8532 166.032 22.0452C165.968 21.9812 165.904 22.0452 165.84 22.0452C165.712 22.1092 165.648 22.1092 165.712 22.3012C165.776 22.3012 165.712 22.4292 165.584 22.4932C165.072 23.1332 164.944 23.0052 164.432 23.7092C163.92 24.4132 163.408 24.8612 162.832 25.4372C162.128 26.1412 161.808 26.7812 161.168 27.5492C161.104 27.7412 160.848 27.6772 160.784 27.8692C160.656 28.2532 160.208 28.5092 159.888 28.8932C159.824 29.0212 159.248 32.2852 159.12 32.7972L159.056 33.2452C159.12 33.2452 159.184 33.2452 159.376 33.1812C159.696 32.8612 160.08 32.6052 160.592 32.1572C161.488 31.5172 162 30.9412 162.96 30.4292C163.792 29.9812 164.496 29.8532 165.392 29.8532C165.84 29.8532 166.16 30.1092 166.608 30.1732C166.736 30.2372 166.928 30.3012 167.12 30.4292C166.992 30.4932 166.928 30.4932 166.736 30.6212L168.336 31.1972C168.4 31.5172 168.464 31.6452 168.464 31.9012C168.464 32.3492 168.528 32.9252 168.272 33.3732C168.208 34.1412 167.952 34.7172 167.568 35.3572C167.184 35.9972 166.864 36.2532 166.544 36.5092C165.584 37.4052 165.072 37.5332 164.368 37.9812L162.96 38.4292C162.832 39.5172 163.408 40.9252 163.856 41.6932C163.984 41.8852 164.112 41.9492 164.176 41.9492C165.328 42.0772 165.776 41.9492 166.864 41.5652C168.016 41.0532 169.872 39.6452 170.704 38.8132C171.728 37.9812 172.24 37.3412 172.944 36.8292L173.328 37.2132C173.264 37.5972 173.072 37.9172 172.944 38.1732C172.688 38.6852 172.176 39.5812 171.792 40.0932C171.216 40.6692 170.256 42.1412 169.424 42.5892C168.976 42.8452 168.464 43.1012 168.144 43.3572C167.696 43.5492 167.312 43.7412 166.736 43.8692C166.032 44.1252 165.648 44.0612 165.072 44.0612C164.88 44.0612 164.752 43.9332 164.624 43.9972C164.048 44.1252 163.344 43.8692 163.088 43.4852C162.512 43.1652 162.192 42.9732 161.872 42.5252C161.552 42.0772 161.296 41.6292 161.168 41.0532C160.656 39.7092 160.656 38.5572 160.784 37.4692L162.64 36.5092C163.792 35.8692 165.008 35.2292 165.648 34.0772C166.032 33.3732 166.16 32.7332 165.648 31.9012C165.008 31.7092 164.368 32.1572 163.792 32.4772C162.96 33.1812 162.448 33.3732 161.424 34.2052C160.976 34.6532 160.528 34.9092 160.08 35.2292L159.504 35.6772L158.736 36.1892C158.672 36.3812 158.416 37.8532 158.352 37.9172C158.096 38.7492 158.352 38.8772 158.032 39.2612C158.032 39.5812 157.776 39.8372 157.776 40.1572L157.712 40.6692L157.648 40.9892L157.456 41.8212C157.648 42.2692 157.456 42.5892 157.264 42.9092C157.008 43.4212 156.368 43.4212 156.368 42.9732C156.176 42.9092 156.048 42.8452 155.92 42.6532L155.728 42.2692L155.28 41.8212C155.216 41.6932 155.216 41.5012 155.216 41.3092L155.408 40.2852C155.6 39.8372 155.6 39.3252 155.6 38.8132L155.856 37.7892C156.048 37.1492 156.176 36.3812 156.304 35.6772C156.432 35.2932 156.496 34.4612 156.624 33.9492L157.264 30.6212V30.5572C156.752 30.8132 155.408 31.9652 155.024 31.8372C154.768 31.7732 154.576 31.6452 154.512 31.5172C154.384 31.2612 154.384 29.6612 154.64 29.4692C155.856 28.7652 157.2 27.6772 158.16 26.8452C158.48 25.5652 158.8 24.2852 159.056 23.0052C159.44 21.7252 159.76 20.4452 160.208 19.1012C160.72 17.5652 161.104 15.9652 161.808 14.4292C162.448 13.0212 162.896 11.7412 163.472 10.2692C163.664 9.75719 164.048 9.37319 164.176 8.86119C164.368 8.41319 164.56 7.90118 164.816 7.45319C165.264 6.62119 165.776 6.10918 166.224 5.08519C166.352 4.82919 166.608 4.57318 166.8 4.31718C167.056 3.74118 167.312 3.54919 167.696 3.10118C167.824 2.97319 167.888 2.90919 167.952 2.71719C168.08 2.65319 168.208 2.58918 168.272 2.46119C168.592 1.94918 168.912 1.56519 169.616 1.24519C170 1.11719 170.32 0.861187 170.768 0.861187C171.152 0.861187 171.536 0.925186 171.984 1.05318C172.624 1.37318 173.136 2.14119 173.712 2.65319C173.904 3.03719 173.968 3.67719 174.032 4.31718C174.096 4.50919 174.096 4.82919 174.096 5.14919ZM171.92 5.78918C171.92 3.99718 171.984 3.54919 171.216 3.35719C170.896 3.35719 170.576 3.54919 170.256 3.80519C169.744 4.18919 169.488 4.57318 168.976 5.21318C168.528 5.91719 167.888 6.62119 167.312 7.51719C166.8 8.41319 166.416 9.24519 165.904 10.2052C165.584 11.1012 165.008 11.6132 164.88 12.5732L164.944 12.6372C164.816 13.0852 164.496 13.2772 164.368 13.6612C163.984 14.4292 163.856 15.1332 163.408 16.4132C162.768 18.4612 162.384 19.1652 162 20.6372C161.424 22.3012 161.232 23.0052 160.784 24.6052L161.04 24.1572C161.744 23.2612 162.32 22.8132 163.024 21.7892C163.728 21.0212 164.24 20.3812 164.752 19.5492C165.072 19.2292 165.392 18.6532 165.712 18.2052C166.352 17.1812 166.8 16.2852 167.376 15.5812V15.5172C167.888 14.4932 168.528 13.6612 168.976 12.8932C169.488 11.9972 169.744 11.1652 170.256 10.3332C170.576 9.56519 171.088 8.41319 171.472 7.38919C171.6 6.94118 171.6 6.49319 171.92 5.78918ZM169.424 16.2212C169.36 16.2212 169.296 16.2852 169.296 16.4132C169.424 16.9252 169.36 16.9252 169.104 17.0532C169.04 17.1812 168.976 17.4372 168.976 17.5012C168.848 17.6292 168.72 17.5652 168.592 17.5652C168.528 17.5652 168.464 17.5652 168.4 17.5012C168.336 17.4372 168.272 17.3732 168.208 17.3732C168.144 17.2452 168.272 17.1172 168.336 17.0532C168.336 17.0532 168.464 17.1172 168.528 17.0532C168.592 17.0532 168.656 17.0532 168.784 16.9892C168.592 16.7972 168.592 16.6692 168.656 16.4132C168.72 16.2852 168.848 16.1572 168.912 16.2212C168.912 16.1572 168.976 16.1572 169.04 16.0932V16.2852C169.104 16.2212 169.168 16.2212 169.232 16.1572C169.232 16.0932 169.104 16.0292 168.976 15.9012C169.168 15.7732 169.168 15.6452 169.296 15.5172C169.296 15.6452 169.36 15.5812 169.424 15.7732C169.552 15.6452 169.68 15.5172 169.872 15.1972C169.744 15.1332 169.68 15.1332 169.552 14.9412L170 14.2372C170.064 14.4292 170.064 14.5572 170.064 14.7492C170.32 14.1092 170.576 13.7252 170.96 13.0852C170.896 13.0852 170.832 13.1492 170.704 13.1492C170.896 12.7012 171.024 12.1892 171.28 11.8692C171.6 11.4212 171.792 10.9732 171.984 10.4612C172.176 10.1412 172.368 10.1412 172.688 10.2052L172.432 10.5892C172.176 10.9092 172.112 11.2292 172.048 11.4852C171.92 11.8052 171.856 12.0612 171.6 12.3172C171.344 13.1492 170.768 13.7252 170.448 14.4932C170.32 14.5572 170.32 14.8772 170.256 15.1972C170.064 15.6452 169.744 16.1572 169.552 16.5412C169.424 16.4132 169.424 16.2852 169.424 16.2212ZM170.192 11.9332C170.32 11.6772 170.576 11.3572 170.704 11.1012C170.704 11.1012 170.576 10.9732 170.576 10.9092C170.512 11.2292 170.32 11.6132 170.192 11.9332ZM170.128 12.9572C170.576 12.8932 170.512 11.9332 170.896 11.8052C170.896 11.7412 170.832 11.6772 170.768 11.6132C170.576 11.9972 170.32 12.4452 170.128 12.9572ZM163.024 13.9812C162.896 14.3012 163.088 14.4932 163.024 14.8132C163.088 14.8132 163.088 14.8772 163.088 14.8772C163.216 14.5572 163.28 14.3012 163.344 14.0452L163.024 13.9812ZM168.4 16.4132C168.336 16.0292 168.656 15.9652 168.848 15.5172C168.848 16.0292 168.592 16.1572 168.4 16.4132ZM166.544 19.2292C166.8 19.1652 167.056 18.9092 167.248 18.7172C167.12 18.7172 166.928 18.7812 166.736 18.9092C166.992 18.7172 167.056 18.5892 167.12 18.5252C166.992 18.5892 166.8 18.7812 166.608 18.9732C166.672 18.8452 166.736 18.7172 166.8 18.6532H166.736C166.352 19.1012 165.904 19.6132 165.52 20.1252C165.392 20.1892 165.392 20.2532 165.264 20.3172C164.816 20.6372 164.56 21.0852 164.176 21.5972C163.6 22.2372 163.152 22.8772 162.512 23.7732C162.32 23.3892 161.872 23.9012 161.36 24.7332C160.784 25.3092 160.464 25.7572 160.592 26.0772C160.528 26.2052 160.528 26.3972 160.336 27.0372C160.464 26.9092 160.656 26.7172 160.784 26.5252C160.848 26.3332 161.04 26.2052 161.232 26.0772C161.168 26.0772 161.104 26.0132 161.04 26.0772C160.976 26.2052 160.848 26.3332 160.72 26.3972H160.656C160.784 26.2692 160.912 26.0772 161.104 25.8212C161.232 25.8852 161.232 25.8852 161.424 25.8212C161.552 25.5652 161.616 25.3732 161.744 25.2452C161.488 25.5012 161.36 25.6292 160.976 25.8212C161.168 25.6932 161.296 25.5652 161.424 25.3732C161.68 25.2452 162 24.9892 162 24.7332C162.128 24.6052 162.32 24.4772 162.576 24.2212C162.704 24.0932 162.896 23.9652 163.088 23.7092L162.704 23.9652C163.216 23.2612 163.344 23.6452 163.792 23.0692C163.6 23.1972 163.536 23.2612 163.472 23.3252L163.664 23.0692C163.856 22.8132 164.112 22.6212 164.496 22.3012C164.432 22.3012 164.496 22.2372 164.496 22.1092L164.624 21.8532C164.816 21.7252 164.944 21.6612 165.136 21.5332C165.136 21.5332 165.072 21.5332 165.136 21.4692L165.264 21.3412C165.328 21.1492 165.648 20.8292 165.712 20.6372L165.648 20.7012C165.584 20.7012 165.392 20.8932 165.392 21.0212C165.328 20.9572 165.328 20.8932 165.328 20.8292C165.904 20.3812 166.16 20.1892 166.16 19.9972C165.776 20.4452 165.584 20.4452 165.328 20.6372C165.584 20.1252 166.032 20.0612 166.288 19.8052C166.288 19.7412 166.288 19.6132 166.416 19.4852C166.672 19.2932 166.48 19.3572 166.16 19.4212C166.352 19.2932 166.48 19.2292 166.544 19.2292ZM159.312 26.4612C159.376 26.2692 159.44 25.8852 159.44 25.6932L159.184 26.5252C159.248 26.4612 159.312 26.4612 159.312 26.4612ZM160.144 27.1652V27.2292C160.144 27.2292 160.144 27.2292 160.144 27.1652ZM158.032 31.6452C158.224 30.8132 158.416 30.0452 158.48 29.2132V29.0852L158.416 28.9572H158.288C158.224 29.2772 158.224 29.6612 158.16 29.9172C158.032 30.6212 157.776 31.4532 157.776 32.2212C157.712 32.3492 157.712 32.5412 157.776 32.5412C157.968 32.1572 158.032 31.9652 158.032 31.6452ZM163.408 31.3252C163.024 31.4532 162.512 31.5812 162.448 32.1572C162.832 31.9012 163.152 31.6452 163.472 31.3892C163.408 31.3892 163.408 31.3252 163.408 31.3252ZM160.848 33.2452C160.656 33.3732 160.4 33.5012 160.144 33.5652C160.784 33.7572 160.784 33.7572 160.848 33.2452ZM160.656 34.1412C160.08 33.7572 160.08 33.7572 159.824 34.1412C160.08 34.0772 160.272 34.1412 160.656 34.1412ZM166.352 35.6132C166.224 35.6772 165.968 35.8052 165.968 35.8692C165.968 36.1252 165.84 36.1892 165.648 36.1892L165.072 36.5732C165.136 36.5732 165.2 36.6372 165.2 36.7652C165.264 36.7012 165.456 36.6372 165.456 36.5732C165.776 36.3812 165.968 36.1892 166.224 35.9972C166.288 35.8692 166.352 35.8052 166.48 35.6772L166.352 35.6132ZM190.656 32.3492L190.72 32.4132V32.9892C190.528 33.1172 190.464 33.1812 190.144 33.2452L190.592 33.4372C189.952 33.7572 189.44 34.1412 189.056 34.3972C188.8 34.5892 188.8 34.8452 188.544 34.8452H188.096C188.032 34.8452 187.968 34.8452 187.968 34.9092C187.904 35.2932 187.392 35.2932 187.072 35.4212L186.176 35.8052C185.472 36.1252 184.96 36.1892 184.32 36.2532C184.128 36.2532 184 36.3172 183.872 36.3172C183.552 36.3172 183.488 36.4452 183.488 36.7012C183.424 36.8932 183.296 37.0852 183.296 37.3412L183.424 37.4052V37.4692C183.104 37.7892 183.104 38.1732 182.72 38.4292C182.656 38.4932 182.72 38.7492 182.656 38.8132C182.144 39.3892 181.824 40.0292 181.248 40.6692L181.12 40.7972C180.8 41.1172 180.416 41.4372 180.16 41.7572C179.968 41.8852 179.712 42.0132 179.456 42.0132C178.944 42.3332 178.496 42.4612 177.92 42.6532C177.664 42.7172 177.408 42.7172 177.28 42.6532C176.64 42.5892 175.872 42.5892 175.36 42.3332C174.592 42.2052 174.08 41.7572 173.632 41.1812C172.928 40.4772 172.864 39.2612 172.8 38.2372C172.736 37.0212 173.312 35.8052 173.632 34.6532C173.76 34.2692 173.888 33.4372 173.952 33.4372C174.4 32.7972 174.656 32.0292 175.04 31.6452C175.616 31.0692 176.256 30.5572 177.024 30.1732C177.6 29.9172 178.24 29.9812 178.752 29.9812C179.072 29.9812 179.2 30.3012 179.456 30.5572C179.52 30.6212 179.648 30.6212 179.776 30.6852C180.416 30.9412 181.312 30.9412 182.08 31.5812C182.144 31.6452 182.4 31.6452 182.528 31.7092C182.912 32.0292 183.232 32.4132 183.68 32.6692C183.68 32.7972 183.488 32.6692 183.424 32.6692C183.296 32.6692 183.232 32.6692 183.04 32.7332C183.04 32.7972 183.168 32.9892 183.168 32.9892C183.68 32.9892 183.616 33.3732 183.744 33.6292C183.616 33.6292 183.552 33.6932 183.424 33.7572C183.552 33.8212 183.616 33.8852 183.744 34.1412H183.552C183.68 34.2052 183.744 34.3972 183.936 34.4612C183.936 34.5252 183.872 34.5892 183.936 34.6532C185.088 34.2052 186.24 33.8852 187.328 33.5012C188.288 33.1172 189.056 32.9252 190.656 32.3492ZM181.568 34.9092C181.504 34.5892 181.568 34.2052 181.568 33.8212C181.44 33.3092 181.376 32.6692 181.056 32.1572C180.928 31.9652 180.8 31.9652 180.608 32.0292C180.224 32.0292 179.904 32.1572 179.712 32.3492C179.328 32.6692 178.88 32.9252 178.816 33.5012C178.816 33.8212 178.88 34.2052 179.072 34.5252C179.2 34.8452 179.392 34.9092 179.776 34.9092H181.568ZM181.952 34.9092C182.144 34.8452 182.272 34.8452 182.4 34.8452C182.336 34.5892 182.464 34.2692 182.336 34.0132C182.272 33.5012 182.272 33.5012 181.888 33.4372C181.888 33.8852 181.952 34.3972 181.952 34.9092ZM180.992 36.8292C181.248 36.5092 181.12 36.4452 180.8 36.3172C180.48 36.3172 179.968 36.2532 179.648 36.1252C179.008 35.9972 178.304 35.6772 177.792 35.2932C177.344 35.0372 177.024 34.7172 176.896 34.3332C176.768 34.1412 176.64 33.8852 176.576 33.6292C176.256 34.3972 175.936 34.9092 175.616 35.5492C175.424 35.8052 175.296 36.1892 175.232 36.4452C175.104 36.8292 175.104 37.1492 175.04 37.4692C174.784 38.1092 174.784 38.8772 174.784 39.5172C174.784 39.9652 174.912 40.2852 174.976 40.6692C175.04 41.1812 175.808 41.4372 176.64 41.1172C177.6 40.8612 178.496 40.2212 179.2 39.5172C179.584 39.1332 179.968 38.6852 180.288 38.1732C180.544 37.7892 180.672 37.2772 180.992 36.8292ZM205.735 45.9172C206.247 45.8532 206.695 46.4292 206.695 46.8132L201.447 48.2852C201.319 48.3492 201.191 48.4132 201.127 48.4132C200.679 48.3492 200.551 48.5412 200.295 48.9252C200.295 49.0532 200.231 49.1812 200.167 49.2452C200.295 49.5012 200.359 49.6932 200.423 50.0132C200.039 49.9492 199.847 49.9492 199.655 49.8852C199.591 49.9492 199.591 49.9492 199.591 50.0132C199.655 50.0772 199.847 50.0772 199.975 50.1412C199.911 50.4612 200.359 50.7172 199.911 51.1012C200.167 51.5492 200.039 51.8692 199.719 51.9972C199.847 52.5092 199.719 52.6372 199.271 52.8932C199.335 52.9572 199.527 53.0852 199.527 53.1492C199.463 53.3412 199.399 53.5332 199.271 53.5972H199.527C199.591 53.5972 199.591 53.5972 199.591 53.6612C199.527 53.6612 199.335 53.7892 199.271 53.8532C199.143 53.9812 199.079 54.1092 198.951 54.1732C199.079 54.4292 199.271 54.5572 199.399 54.6852C199.143 54.6852 198.951 54.7492 198.695 54.6852V54.8132L199.271 54.8772C199.399 55.3252 199.335 55.3892 198.567 55.3252C198.503 55.5812 198.439 55.7092 198.439 56.0932C198.695 55.7732 198.887 55.6452 199.207 55.3892C199.271 55.7732 199.335 55.9652 198.951 56.0932C198.183 56.1572 198.183 56.6052 198.439 57.1172L198.631 56.7332C198.759 56.7972 198.951 56.8612 199.015 56.9892C198.823 57.5652 198.695 58.0772 198.567 58.5892C198.503 58.9092 198.439 59.3572 198.311 59.7412C198.119 60.1252 197.863 59.7412 197.735 59.6772C197.671 59.8052 197.671 59.8692 197.607 59.9332C197.415 60.5732 197.479 60.5732 197.863 60.4452C197.799 60.3172 197.799 60.1892 197.607 59.9332C197.863 59.9972 198.055 60.0612 198.055 60.1252C198.119 60.3172 198.119 60.5732 198.055 60.8292C197.927 60.9572 197.735 61.0852 197.735 61.3412C197.607 61.4052 197.351 61.4692 197.095 61.5332C197.031 61.5972 197.031 61.6612 197.031 61.7252C197.223 61.7252 197.415 61.6612 197.607 61.6612C197.607 61.8532 197.607 62.0452 197.479 62.2372L197.095 61.8532C197.031 62.0452 196.903 62.1092 196.839 62.1732L197.223 62.2372C197.287 62.3652 197.287 62.5572 197.223 62.7492C197.159 62.6212 197.031 62.4932 196.839 62.3012C196.711 62.7492 196.711 63.0052 196.583 63.3252C196.647 63.4532 196.903 63.5172 197.031 63.7092C197.159 63.9652 196.647 64.5412 196.327 64.7332C196.391 64.8612 196.455 64.9252 196.519 64.9252L196.071 65.2452C196.135 65.5012 196.135 65.6932 196.135 65.8852L195.431 65.8212V65.9492C195.687 65.9492 195.815 65.9492 196.071 66.0772C196.071 66.1412 196.135 66.1412 196.135 66.1412C195.943 66.2052 195.751 66.2692 195.623 66.3972C195.943 66.8452 195.495 67.1652 195.367 67.6772C195.175 68.0612 194.727 68.1892 194.599 68.5732C194.407 68.6372 194.727 69.4692 194.087 69.0212C194.151 69.2132 194.215 69.3412 194.407 69.5332C194.471 69.9172 194.023 69.7892 193.703 69.8532C193.831 69.9172 193.959 69.9812 194.087 70.1092C193.895 70.1732 193.703 70.3012 193.639 70.3652C193.895 71.0692 192.935 70.9412 192.807 71.3892L193.191 71.6452C192.935 71.9652 192.743 72.2852 192.551 72.6052C192.487 72.6052 192.487 72.5412 192.487 72.5412C192.231 72.7972 191.847 73.0532 191.655 73.2452C191.655 73.3092 191.655 73.3732 191.719 73.3732H191.911C191.911 73.4372 191.975 73.5012 191.975 73.5012C191.399 74.2052 190.695 74.7812 190.119 75.4212C190.119 75.9332 189.863 76.1252 189.543 76.3812C189.095 76.8292 188.583 77.1492 188.199 77.5972C188.135 77.6612 188.135 77.7252 188.071 77.7252C187.431 77.9812 187.047 78.6212 186.215 78.6212C186.023 78.6852 185.895 79.0692 185.703 79.1972C185.383 79.3892 184.935 79.6452 184.615 79.6452C183.847 79.8372 183.143 79.9012 182.311 79.9012C182.055 79.9652 181.735 79.9652 181.607 79.9012C180.519 79.5812 179.623 79.2612 178.727 78.7492C177.959 78.4292 177.255 77.7892 176.999 77.0212C176.871 76.7652 176.615 76.7012 176.423 76.3812C176.167 75.7412 175.975 75.1012 175.527 74.2692C175.399 74.1412 175.399 73.8852 175.335 73.6932C175.399 73.2452 175.399 72.9252 175.463 72.6052C175.591 71.4532 175.719 70.3652 175.975 69.3412C176.167 68.5092 176.295 67.6132 176.615 66.6532C176.679 66.5252 176.743 66.4612 176.807 66.3972C176.871 66.4612 176.935 66.5252 177.063 66.7172C177.255 66.0772 177.511 65.3732 177.767 64.9252L177.575 64.7972C177.511 64.9252 177.383 64.9892 177.319 65.0532C177.255 65.0532 177.255 65.0532 177.191 64.9892C177.383 64.7972 177.511 64.4132 177.639 64.0932C178.215 62.9412 178.855 61.8532 179.495 60.8292C180.071 59.8692 180.967 58.8452 181.607 57.8852C181.671 57.8212 181.799 57.6932 181.927 57.6292L182.567 56.9252C182.759 56.6692 183.015 56.4132 183.271 56.1572C183.335 56.2212 183.527 56.2212 183.591 56.2212L182.823 57.1172C182.503 57.3732 182.247 57.5012 181.927 57.6932C181.927 57.8212 181.863 57.9492 181.799 58.1412C182.055 58.0132 182.119 57.9492 182.247 57.9492C182.375 57.8212 182.439 57.6932 182.503 57.6292C182.695 57.4372 182.695 57.3092 182.823 57.1172C183.015 57.0532 183.271 57.0532 183.399 56.9892C184.039 56.2852 184.551 55.7732 185.319 55.0692C185.703 54.6212 185.959 54.3012 186.471 53.9812C186.535 53.9812 186.791 53.9812 186.919 53.8532C186.983 53.7892 187.111 53.5972 187.111 53.4052C185.639 53.9812 184.807 55.3252 183.591 56.0932C183.591 56.0292 183.527 56.0292 183.463 55.9652C183.591 55.8372 183.847 55.5172 184.231 55.2612C184.551 54.9412 184.935 54.4292 185.511 54.0452C186.535 53.2772 187.559 52.5732 188.647 51.8052C189.479 51.1012 190.503 50.4612 191.591 50.0132L194.023 48.6692C194.983 48.2852 196.007 47.9652 196.839 47.4532L197.095 47.3892C197.863 47.1972 198.119 46.8132 198.055 46.1092C197.991 46.0452 197.991 45.9172 197.991 45.7892C198.055 45.4692 198.055 45.1492 198.247 44.8292C198.311 44.7652 198.375 44.7012 198.375 44.6372C198.951 45.2772 198.503 46.1092 198.631 46.8772C198.759 46.7492 198.823 46.6212 198.823 46.4932L199.207 43.9332C199.207 43.7412 199.271 43.5492 199.271 43.4212C199.335 43.0372 199.463 42.5892 199.591 42.0772C199.719 41.4372 199.719 40.8612 199.911 40.0932C199.911 39.9652 199.975 39.7732 200.039 39.5172C200.103 38.9412 200.167 38.1732 200.295 37.5972V37.4052C200.231 37.5332 200.167 37.5972 200.103 37.6612C199.719 39.7732 199.335 41.8852 198.887 43.9332C198.823 44.1252 198.823 44.3172 198.759 44.5092C198.695 44.5092 198.567 44.5732 198.375 44.5732V44.6372C198.375 44.4452 198.375 44.3172 198.311 44.1252C198.311 44.1252 198.439 44.0612 198.503 43.9332C198.055 43.2932 198.567 42.8452 198.567 42.3332H199.015V42.2052H198.631C198.759 40.8612 199.079 39.5172 199.335 38.3012C199.271 38.3652 199.271 38.4292 199.207 38.4292C199.143 38.4292 199.079 38.4932 199.079 38.5572C198.951 38.4292 198.759 38.3012 198.631 38.3012C198.503 38.3652 198.439 38.6212 198.311 38.6852C198.119 38.9412 198.055 39.0692 197.799 39.1972C197.799 39.1972 197.095 40.1572 196.071 40.9252V40.9892C195.047 41.3092 194.599 41.6932 193.831 41.9492C193.511 42.0132 193.191 42.1412 192.679 42.1412C192.231 42.2692 191.719 42.2052 191.271 42.1412L189.671 41.5652C189.479 41.4372 189.351 41.1812 189.223 40.9892C189.223 40.7972 189.031 40.5412 188.839 40.4772C188.327 40.0932 188.327 39.4532 188.263 38.8132C187.879 37.7892 188.263 36.7652 188.583 35.8052C188.775 35.4212 189.031 34.9732 189.159 34.6532C189.287 34.3332 189.479 33.8852 189.799 33.3732C189.863 33.3732 189.863 33.3732 189.863 33.3092C190.567 32.7332 190.759 31.5812 191.527 31.0052C191.911 30.7492 192.935 29.7892 193.319 29.6612C194.023 29.4052 194.791 29.2132 195.495 29.4692C195.815 29.5972 196.327 29.4692 196.583 29.5332C196.967 29.8532 197.799 29.9812 198.183 30.2372C198.823 30.7492 199.207 31.0692 199.719 31.7092L200.167 32.5412C200.551 32.2212 200.999 31.5172 201.319 31.3252L202.087 31.5172C202.727 31.5812 202.983 31.6452 203.623 31.8372L203.431 33.0532C203.175 33.5012 203.111 34.0772 202.919 34.5252C202.791 34.9092 202.727 35.2292 202.663 35.5492C202.151 37.5972 201.959 39.5172 201.511 41.5012C201.319 42.4612 201.511 43.3572 201.127 44.2532C200.999 44.8292 201.127 45.4052 200.935 45.9172C200.935 45.9172 200.999 46.2372 201.063 46.2372C201.895 46.1732 202.663 45.9812 203.495 45.9172C204.263 45.8532 205.031 45.8532 205.735 45.9172ZM198.119 35.4852C198.119 35.4212 198.183 35.3572 198.247 35.3572C198.695 35.4212 198.759 35.0372 198.887 34.8452C198.631 34.7172 198.503 34.4612 198.311 34.2692C198.055 34.0132 197.927 33.6932 198.055 33.2452C198.119 32.7972 197.799 31.7092 197.607 31.5812C197.479 31.3892 197.223 31.2612 197.031 31.2612C196.071 31.3892 195.111 31.5812 194.407 32.3492C193.895 32.7972 193.383 33.1172 192.935 33.5652C192.871 33.6932 192.615 33.8852 192.487 34.0772L192.551 34.3972C192.231 34.8452 191.783 35.2292 191.463 35.7412C191.079 36.5092 190.823 37.2772 190.503 37.9812C190.311 38.6212 190.119 39.0692 190.375 39.6452C190.567 39.6452 190.823 39.5812 191.079 39.5812C192.039 39.5172 192.807 39.1332 193.767 38.8132C194.087 38.7492 194.471 38.1092 195.175 38.4932C194.983 37.9812 195.175 37.7892 195.559 37.7892H195.623C195.879 37.3412 196.263 37.0212 196.711 36.8292C196.839 36.8292 196.967 36.6372 197.095 36.5092C197.351 36.1252 198.055 36.0612 198.119 35.4852ZM199.655 36.8932C199.655 36.7012 199.719 36.5732 199.719 36.3812C199.271 36.5092 199.143 36.7652 199.079 37.0852H198.503V37.1492V37.2132L198.439 37.1492V37.2132C198.375 37.2132 198.375 37.2132 198.375 37.2772C198.311 37.2772 198.311 37.3412 198.311 37.4052C198.311 37.5972 198.247 37.7892 198.247 37.9172C198.631 37.7892 198.759 37.4692 198.951 37.4692C199.271 37.4692 199.399 37.2772 199.527 37.0212C199.527 36.9572 199.591 36.9572 199.655 36.8932ZM178.855 62.4932C178.727 62.5572 178.727 62.7492 178.535 62.8772L178.727 63.0052C178.855 62.8132 179.111 62.8132 179.239 62.9412C178.983 63.1332 178.791 63.3892 178.599 63.6452C179.175 63.7092 179.431 63.4532 179.239 62.9412C179.367 62.8772 179.559 62.8772 179.623 62.7492C179.879 62.4292 179.943 62.1092 180.135 61.9172C180.391 61.4692 180.711 61.2132 181.031 60.8292C181.031 60.8292 181.031 60.7012 180.967 60.6372C181.095 60.5092 181.351 60.4452 181.543 60.4452L181.479 60.3172C181.415 60.3172 181.351 60.3172 181.095 60.2532C181.415 60.0612 181.671 59.8052 181.927 59.4852C182.119 59.2932 182.247 59.1012 182.247 58.9732C182.439 58.6532 182.631 58.3972 183.271 58.3972C183.079 58.5892 182.951 58.7812 182.887 58.9092C182.567 59.0372 182.439 59.2932 182.183 59.4212L182.311 59.6132C182.631 59.2932 182.887 59.0372 183.271 58.8452C183.847 58.2052 184.423 57.6932 185.127 57.0532L185.383 56.5412C185.767 56.4772 186.727 55.5812 186.791 55.1332H187.367V55.0052C187.239 54.9412 187.047 54.9412 186.855 54.8132L189.095 53.2132C189.159 53.2772 189.159 53.3412 189.159 53.3412C189.223 53.2132 189.351 53.0852 189.479 53.0212C189.607 52.9572 189.799 52.7652 189.991 52.7652C190.695 52.5732 191.271 52.1252 192.167 51.6132C192.423 51.4852 192.487 51.2932 192.743 51.1652C193.575 50.8452 194.151 50.4612 194.919 50.2692C195.815 49.8852 196.455 49.1172 197.479 48.9892C197.671 48.9252 197.863 48.5412 197.607 48.3492V48.2852C197.671 48.0932 197.863 47.9012 197.991 47.6452C197.799 47.6452 197.543 47.5812 197.479 47.7092C197.159 48.0292 196.839 48.0292 196.391 48.0932C196.327 48.0292 196.199 48.2852 196.071 48.3492L195.943 48.4772C195.751 48.5412 195.559 48.5412 195.367 48.5412C194.919 48.6052 194.599 48.6052 194.727 49.0532C194.471 49.1172 194.279 49.2452 194.087 49.2452C193.639 49.2452 193.255 49.7572 192.743 49.7572V49.9492C192.999 49.9492 193.255 50.0772 193.447 50.0132C194.023 49.7572 194.599 49.4372 195.111 49.1172C195.175 49.1172 195.047 48.9892 195.047 48.7972L195.367 49.1812C196.007 48.5412 196.775 48.2852 197.607 48.3492C197.031 48.5412 196.455 48.7972 195.943 49.1172C195.431 49.4372 194.791 49.7572 194.087 50.0132C193.831 50.1412 193.639 50.2692 193.319 50.2692C192.999 50.3972 192.743 50.3972 192.551 50.5252C192.423 50.7172 192.103 50.9092 191.783 51.1012C191.591 51.1652 191.463 51.3572 191.207 51.5492C190.695 51.8052 189.927 52.1252 189.351 52.4452C189.415 52.5092 189.479 52.5732 189.607 52.6372C188.967 52.8932 188.391 53.0852 188.135 53.7252C187.943 53.7252 187.623 53.8532 187.559 53.9172V54.1092C186.855 54.0452 186.535 54.2372 186.663 54.6852C186.407 54.7492 185.895 54.7492 185.895 54.8772C185.831 55.2612 185.319 55.4532 184.999 55.7092C184.743 55.9652 184.615 56.2212 184.423 56.4772C184.807 56.2212 184.935 56.2212 185.127 56.6052C184.807 56.7332 184.615 56.9252 184.359 57.0532C184.231 56.6692 184.103 56.6692 183.911 56.8612C183.783 56.9252 183.783 57.0532 183.719 57.1812C183.719 57.2452 183.783 57.2452 183.783 57.2452C184.039 57.1812 184.167 57.0532 184.231 56.9892C184.231 57.1172 184.295 57.1812 184.231 57.2452C184.103 57.4372 183.847 57.6292 183.591 57.7572C183.591 57.8852 183.655 57.9492 183.719 58.0772C183.399 58.1412 183.207 58.0772 182.887 58.1412C183.143 57.8212 183.335 57.6932 183.527 57.4372C183.335 57.5012 183.143 57.5012 182.887 57.5012C182.951 57.5652 183.015 57.5652 183.015 57.6292C182.631 58.0132 182.375 58.3332 182.119 58.7812C181.735 58.9732 181.479 59.1012 181.287 58.7812C180.775 59.3572 180.391 59.9332 180.007 60.5092H180.263C180.391 60.5092 180.455 60.4452 180.583 60.4452C180.519 60.5092 180.519 60.6372 180.455 60.7652C180.327 60.9572 180.135 61.2132 179.879 61.4052C179.943 61.2132 179.943 61.0212 179.815 60.8292C179.687 61.0212 179.559 61.1492 179.303 61.4052H179.879C179.943 61.4052 180.007 61.4692 180.071 61.5332C179.815 61.9172 179.623 62.3652 178.855 62.4932ZM198.247 50.3972C198.247 50.0772 198.439 49.8212 198.439 49.5652C198.375 49.5652 198.311 49.5652 198.311 49.5012C198.247 49.6932 198.183 49.8212 198.119 49.8852C197.991 49.8212 197.927 49.8212 197.927 49.8212C197.799 50.4612 197.671 51.1652 197.607 51.8052C197.543 51.9972 197.543 52.5092 197.031 52.4452C197.287 51.6132 197.351 50.6532 197.607 49.8212C197.095 49.9492 196.711 50.2692 196.263 50.3972C194.663 51.0372 193.191 51.6132 191.783 52.6372C190.951 53.2132 189.863 53.7892 188.903 54.4932C188.199 55.0052 187.367 55.3892 186.599 56.0292C186.343 56.4132 185.831 56.7332 185.575 57.0532C185.191 57.3732 184.871 57.5012 184.615 57.7572C184.231 58.1412 183.975 58.4612 183.591 58.9732C183.143 59.2932 182.695 59.8052 182.311 60.1892C182.183 60.4452 181.991 60.8932 181.479 60.7012C181.479 60.7012 181.287 60.8292 181.223 60.9572L180.839 61.4052C181.543 61.9172 180.775 62.1092 180.839 62.4932C180.263 62.4292 180.071 62.4932 180.135 62.9412C180.263 62.8772 180.327 62.8132 180.391 62.7492C180.071 63.5172 179.687 64.3492 179.367 65.0532H179.239C179.367 64.8612 179.431 64.6692 179.495 64.4772C179.431 64.4772 179.367 64.4132 179.303 64.4132C179.239 64.6052 179.111 64.7972 178.919 64.9892C178.855 65.2452 178.791 65.6292 178.663 66.0132C178.471 66.2692 178.343 66.5252 178.279 66.9092C178.087 67.4212 178.023 68.0612 177.895 68.5092C177.703 69.4052 177.383 70.2372 177.319 71.1332C177.255 72.3492 177.383 73.4372 177.447 74.5892C177.575 75.8692 178.279 76.7012 179.303 77.2772C179.623 77.4052 180.071 77.5332 180.327 77.5972C180.711 77.5972 181.095 77.4692 181.415 77.4692V77.6612C180.839 77.5972 180.263 77.6612 179.495 77.7252C179.623 77.7892 179.687 77.8532 179.751 77.8532C180.647 78.1732 181.607 78.1092 182.375 77.7892C182.823 77.6612 183.335 77.3412 183.719 77.2132C184.807 76.8932 185.575 76.1892 186.471 75.4852C187.303 74.8452 188.007 73.9492 188.711 73.1812C189.735 71.9012 190.375 70.7492 191.271 69.4692C192.167 68.1892 192.679 66.8452 193.383 65.5012C193.895 64.4772 194.215 63.5812 194.535 62.5572C195.047 61.0212 195.623 59.6132 195.943 58.0772C196.263 56.9252 196.455 55.7092 196.711 54.5572C196.839 53.8532 197.095 53.2132 197.031 52.4452L197.543 53.0852C197.479 53.1492 197.351 53.2132 197.351 53.2772C197.223 53.5972 197.159 53.9812 197.031 54.3012L196.711 56.8612C196.711 56.9892 196.583 57.1812 196.391 57.3732C196.391 57.6932 196.263 58.1412 196.199 58.3972C195.943 59.2932 195.751 60.2532 195.431 61.1492C195.175 62.1092 194.919 62.9412 194.599 63.9012C194.535 64.2212 194.343 64.4132 194.087 64.7332C194.215 65.0532 194.023 65.6292 193.703 65.8852C193.639 65.9492 193.511 65.9492 193.511 66.0132C193.703 66.3972 193.383 66.6532 193.127 66.7812C192.935 66.9092 192.807 67.1012 192.551 67.2932H193.127C192.807 67.8692 192.679 68.7652 192.103 69.0212H192.231C191.975 69.4052 192.039 69.9172 191.463 69.9172C191.399 69.9172 191.399 70.0452 191.271 70.2372C191.527 70.1732 191.591 70.1092 191.783 69.9812C191.335 70.4932 191.143 70.8772 190.951 71.2612C190.951 71.3252 190.823 71.3892 190.695 71.4532C190.567 71.5172 190.439 71.4532 190.375 71.5172V71.6452L190.695 71.7092C190.439 71.9012 190.247 72.2212 190.183 72.5412L189.543 73.3732C189.479 73.3732 189.415 73.3092 189.351 73.3092L190.375 71.9012C189.927 72.0292 188.647 73.8852 188.455 74.1412C188.711 73.9492 189.031 73.7572 189.223 73.4372L189.351 73.5652C189.031 73.8852 188.967 74.5252 188.263 74.3332C188.199 74.3332 188.071 74.3972 188.007 74.4612C187.175 75.1652 186.471 76.1252 185.447 76.8292L184.295 77.5972C184.103 77.7252 184.039 77.7892 183.911 77.7892C184.039 77.8532 184.167 77.8532 184.295 77.9172C184.167 78.1732 183.975 78.4292 183.847 78.5572C183.847 78.6212 183.911 78.7492 183.975 78.7492C184.359 78.5572 184.679 78.3012 184.999 78.1092C185.639 77.7252 186.343 77.1492 187.239 77.1492C187.047 77.0852 186.919 76.9572 186.727 76.8932C186.983 76.8292 187.175 76.8292 187.367 76.8292C187.367 76.8292 187.367 76.7012 187.431 76.7012C187.751 76.3812 188.263 76.1252 188.583 75.7412C188.775 75.4212 189.287 75.0372 189.287 74.9092C189.031 74.4612 189.543 74.7172 189.607 74.5892C189.671 74.2692 190.055 74.0132 190.055 73.8852C190.119 73.4372 190.311 73.3732 190.439 73.1172C190.759 72.7332 190.887 72.2852 191.335 71.9652C191.847 71.5172 191.719 70.7492 192.359 70.3012C192.423 70.3012 192.359 70.2372 192.423 70.1732C192.615 69.7252 192.743 69.1492 193.127 68.7012C193.447 68.5092 193.575 68.1252 193.767 67.8052C193.895 67.2932 193.895 66.9092 194.151 66.5252L194.727 65.4372C194.919 64.7332 195.175 64.0932 195.303 63.3252C195.431 62.9412 195.623 62.6852 195.751 62.3012C195.943 62.0452 195.879 61.7892 196.071 61.4052C196.135 61.2132 196.199 60.8932 196.199 60.6372C196.263 60.1892 196.263 59.8052 196.455 59.4212C196.519 59.2932 196.455 59.1652 196.455 59.1012C196.583 58.8452 196.647 58.6532 196.839 58.3332C197.223 58.2692 196.519 57.4372 197.287 57.2452L196.903 57.1812C196.967 56.9252 197.095 56.6692 197.159 56.5412C197.159 56.4132 197.031 56.0932 197.223 55.9652C197.607 55.0692 197.543 54.3652 197.799 53.4692C197.799 53.2772 197.735 53.1492 197.543 53.0852C197.607 53.0852 197.735 53.0212 197.863 53.0212V52.4452C197.799 52.4452 197.799 52.4452 197.799 52.3812C197.735 52.3812 197.735 52.3172 197.671 52.3172C197.735 52.2532 197.799 52.1892 197.863 52.1892C198.055 51.9972 198.375 50.5892 198.183 50.5252L197.863 50.7172C197.863 50.7172 197.799 50.7172 197.799 50.6532C197.927 50.5252 197.991 50.3972 198.055 50.2692C198.119 50.2692 198.183 50.3332 198.247 50.3972ZM192.615 50.2692C192.295 50.2052 191.783 50.0772 191.335 50.4612C191.591 50.4612 191.847 50.6532 192.039 50.5892C192.295 50.5252 192.487 50.3972 192.615 50.2692ZM189.671 51.5492C188.775 52.0612 188.071 52.5732 187.303 53.0212C187.687 53.2132 187.815 53.1492 188.135 53.0852C188.199 52.9572 188.455 52.8292 188.519 52.6372C188.967 52.3812 189.287 52.0612 189.863 51.8052C189.991 51.7412 190.055 51.4852 190.183 51.4852C190.759 51.3572 191.143 51.1652 191.591 50.6532H191.015C191.079 50.7812 191.015 50.9092 191.079 51.0372C190.503 50.6532 190.183 51.0372 189.927 51.4852C189.863 51.4852 189.735 51.4852 189.671 51.5492ZM198.567 57.2452C198.055 57.3732 197.991 57.5012 198.311 57.9492C198.375 57.7572 198.439 57.5012 198.567 57.2452ZM197.927 59.5492C197.991 59.2932 198.119 59.0372 198.183 58.8452C198.183 58.7812 198.183 58.6532 198.119 58.5892C198.055 58.5892 197.927 58.5252 197.927 58.5252C197.927 58.6532 197.863 58.7812 197.799 58.9092C197.735 59.1012 197.735 59.2292 197.671 59.4852C197.799 59.5492 197.863 59.5492 197.927 59.5492ZM178.087 64.9892C177.959 65.1812 177.831 65.4372 177.703 65.7572C177.831 65.7572 177.959 65.8212 178.151 65.8212V64.9252L178.087 64.9892ZM177.063 65.1172H177.319C177.319 65.5652 177.063 66.0132 176.807 66.3332C176.999 65.9492 176.999 65.5012 177.063 65.1172ZM187.367 75.5492L188.263 74.6532L188.519 74.8452C188.199 75.0372 187.879 75.4212 187.431 75.8052C187.495 75.6772 187.367 75.5492 187.367 75.5492ZM185.767 77.1492C185.959 76.5732 186.663 76.3172 187.175 75.8692C187.239 75.9332 187.239 75.9332 187.303 75.9332C186.727 76.3812 186.343 76.8932 185.895 77.2772C185.831 77.2132 185.767 77.2132 185.767 77.1492ZM182.183 78.5572C182.439 78.6852 183.143 78.4932 183.335 78.1092C182.887 78.1732 182.439 78.2372 182.119 78.3652C182.055 78.4292 182.183 78.4932 182.183 78.5572Z" fill="#272727"></path></svg> 