<?xml version="1.0" encoding="UTF-8"?> <svg xmlns="http://www.w3.org/2000/svg" width="88" height="27" viewBox="0 0 88 27" fill="none"><path d="M6.55078 23.543C5.8112 23.5638 5.08724 23.4596 4.37891 23.2305C3.67057 23.0013 3.04036 22.6576 2.48828 22.1992C1.9362 21.7409 1.49349 21.1836 1.16016 20.5273C0.826823 19.8607 0.660156 19.1107 0.660156 18.2773C0.660156 17.7461 0.74349 17.2096 0.910156 16.668C1.08724 16.1159 1.33203 15.5846 1.64453 15.0742C1.96745 14.5534 2.35286 14.069 2.80078 13.6211C3.25911 13.1628 3.77995 12.7669 4.36328 12.4336C4.94661 12.0898 5.58724 11.819 6.28516 11.6211C6.98307 11.4232 7.72786 11.3294 8.51953 11.3398C9.26953 11.3398 9.89974 11.4492 10.4102 11.668C10.9206 11.8867 11.332 12.1732 11.6445 12.5273C11.9674 12.8815 12.1966 13.293 12.332 13.7617C12.4674 14.2305 12.5352 14.7148 12.5352 15.2148C12.5352 15.7982 12.4258 16.3971 12.207 17.0117C11.9883 17.6263 11.6654 18.1888 11.2383 18.6992C10.8112 19.1992 10.2747 19.6107 9.62891 19.9336C8.99349 20.2565 8.2487 20.418 7.39453 20.418C7.11328 20.418 6.83203 20.3867 6.55078 20.3242C6.27995 20.2617 6.02995 20.194 5.80078 20.1211C5.57161 20.0378 5.36849 19.9596 5.19141 19.8867C5.01432 19.8034 4.87891 19.7461 4.78516 19.7148C4.78516 19.6315 4.80599 19.543 4.84766 19.4492C4.89974 19.3555 4.97786 19.3138 5.08203 19.3242C5.13411 19.3242 5.20703 19.3346 5.30078 19.3555C5.39453 19.3659 5.56641 19.3711 5.81641 19.3711C6.62891 19.3711 7.41536 19.2982 8.17578 19.1523C8.9362 18.9961 9.60807 18.7409 10.1914 18.3867C10.7747 18.0326 11.2435 17.5742 11.5977 17.0117C11.9518 16.4492 12.1289 15.7617 12.1289 14.9492C12.1289 14.4596 12.0352 14.0169 11.8477 13.6211C11.6706 13.2148 11.4206 12.8711 11.0977 12.5898C10.7747 12.3086 10.3893 12.0898 9.94141 11.9336C9.49349 11.7773 9.00391 11.6992 8.47266 11.6992C8.05599 11.6992 7.58724 11.7565 7.06641 11.8711C6.54557 11.9857 6.01432 12.1628 5.47266 12.4023C4.93099 12.6315 4.40495 12.9284 3.89453 13.293C3.38411 13.6471 2.92578 14.069 2.51953 14.5586C2.1237 15.0378 1.80078 15.5846 1.55078 16.1992C1.3112 16.8138 1.19141 17.4909 1.19141 18.2305C1.18099 18.9909 1.28516 19.6367 1.50391 20.168C1.72266 20.6888 2.00391 21.1263 2.34766 21.4805C2.69141 21.8242 3.07161 22.1003 3.48828 22.3086C3.91536 22.5065 4.32682 22.6576 4.72266 22.7617C5.12891 22.8555 5.4987 22.918 5.83203 22.9492C6.17578 22.9701 6.43099 22.9805 6.59766 22.9805C8.50391 22.9805 10.7331 22.0586 13.2852 20.2148C15.1497 18.8607 17.332 16.8763 19.832 14.2617C20.7174 13.3242 21.6029 12.3919 22.4883 11.4648C23.3737 10.5378 24.2591 9.60026 25.1445 8.65234C26.0716 7.73568 27.2018 6.74609 28.5352 5.68359C29.0664 5.23568 29.5924 4.79297 30.1133 4.35547C30.6445 3.90755 31.1758 3.45964 31.707 3.01172C32.8945 2.02214 34.0299 1.20964 35.1133 0.574219C35.5924 0.282552 35.9414 0.136719 36.1602 0.136719C36.7018 0.136719 36.9727 0.371094 36.9727 0.839844C36.9727 1.32943 36.7435 1.83464 36.2852 2.35547C35.7643 2.90755 35.0143 3.7513 34.0352 4.88672C33.0039 6.10547 31.9154 7.44922 30.7695 8.91797C29.6341 10.3763 28.4154 11.9753 27.1133 13.7148C23.6654 18.3294 21.9414 21.0586 21.9414 21.9023C21.9414 22.444 22.2799 22.7148 22.957 22.7148C24.1341 22.7148 26.0039 21.6367 28.5664 19.4805C28.681 19.4805 28.7383 19.5378 28.7383 19.6523C28.7383 19.7044 28.7227 19.7461 28.6914 19.7773C28.306 20.1628 27.8737 20.543 27.3945 20.918C26.9258 21.2826 26.3997 21.6471 25.8164 22.0117C24.4518 22.8659 23.3581 23.293 22.5352 23.293C21.9414 23.293 21.4362 23.1471 21.0195 22.8555C20.5404 22.5117 20.3008 22.0586 20.3008 21.4961C20.3008 20.2773 21.3216 18.2982 23.3633 15.5586C23.5716 15.2773 23.832 14.9284 24.1445 14.5117C24.457 14.0951 24.8216 13.6055 25.2383 13.043C25.8112 12.3138 27.2174 10.6732 29.457 8.12109C29.7799 7.75651 30.1133 7.39193 30.457 7.02734C30.8112 6.65234 31.1706 6.28255 31.5352 5.91797C31.8789 5.55339 32.306 5.10547 32.8164 4.57422C33.3372 4.04297 33.9466 3.41797 34.6445 2.69922C34.7591 2.58464 34.9049 2.44401 35.082 2.27734C35.2591 2.10026 35.4674 1.89193 35.707 1.65234C35.9154 1.41276 36.0195 1.22526 36.0195 1.08984C36.0195 0.85026 35.9154 0.730469 35.707 0.730469C35.1966 0.730469 33.9362 1.6263 31.9258 3.41797C30.6966 4.51172 29.6341 5.45964 28.7383 6.26172C27.8424 7.0638 27.1081 7.73047 26.5352 8.26172C25.5456 9.17839 24.6237 10.0638 23.7695 10.918C22.9154 11.7617 22.1237 12.5794 21.3945 13.3711C20.1862 14.6836 19.1289 15.793 18.2227 16.6992C17.3268 17.5951 16.5768 18.3086 15.9727 18.8398C13.931 20.6107 11.7643 21.9753 9.47266 22.9336C8.97266 23.1419 8.47786 23.2878 7.98828 23.3711C7.50911 23.4648 7.02995 23.5221 6.55078 23.543ZM36.457 19.6992C36.457 19.8659 36.082 20.194 35.332 20.6836C35.0924 20.8398 34.7956 20.918 34.4414 20.918C32.7435 22.5638 31.3164 23.3867 30.1602 23.3867C29.1185 23.3867 28.5977 22.9076 28.5977 21.9492C28.5977 20.668 29.5299 19.2773 31.3945 17.7773C30.8945 18.0482 30.5299 18.2617 30.3008 18.418C29.8529 18.8659 29.3112 19.3555 28.6758 19.8867C28.5924 19.8451 28.5508 19.7878 28.5508 19.7148C28.5508 19.569 28.8737 19.2201 29.5195 18.668C30.3424 17.9492 31.6029 17.2357 33.3008 16.5273C34.3216 16.1107 34.9935 15.9023 35.3164 15.9023C36.0143 15.9023 36.3633 16.1419 36.3633 16.6211C36.3633 16.5065 36.3008 16.8034 36.1758 17.5117C36.207 17.5951 36.2227 17.6888 36.2227 17.793C36.2227 18.5221 35.7591 19.3398 34.832 20.2461C34.7799 20.2982 34.7435 20.3451 34.7227 20.3867L34.7695 20.4336C35.0195 20.4336 35.306 20.2878 35.6289 19.9961C35.9622 19.7044 36.1758 19.5586 36.2695 19.5586C36.3945 19.5586 36.457 19.6055 36.457 19.6992ZM35.8477 16.793C35.8477 16.4701 35.6966 16.3086 35.3945 16.3086C34.9883 16.3086 33.931 17.1992 32.2227 18.9805C30.5247 20.7513 29.6758 21.8919 29.6758 22.4023C29.6758 22.8086 29.8685 23.0117 30.2539 23.0117C30.6289 23.0117 31.0247 22.9076 31.4414 22.6992C31.8268 22.5013 32.2852 22.2148 32.8164 21.8398C33.5143 21.3607 33.8685 21.0221 33.8789 20.8242C33.6289 20.8242 33.5039 20.6367 33.5039 20.2617C33.5039 19.7305 33.7487 19.1211 34.2383 18.4336C34.7487 17.7044 35.2591 17.3138 35.7695 17.2617C35.8216 17.1471 35.8477 16.9909 35.8477 16.793ZM52.2695 6.40234C52.2695 6.51693 52.2539 6.63151 52.2227 6.74609C51.9206 7.87109 51.181 8.95964 50.0039 10.0117C49.6289 10.3451 48.5508 11.1419 46.7695 12.4023C46.4154 12.6628 46.082 12.8919 45.7695 13.0898C45.2799 13.4023 44.7591 13.7513 44.207 14.1367L42.5508 16.2305C43.8216 15.3763 44.8633 14.9492 45.6758 14.9492C46.4674 14.9492 46.8633 15.3346 46.8633 16.1055C46.8633 16.293 46.8268 16.4701 46.7539 16.6367C46.4518 17.2721 45.9414 17.7253 45.2227 17.9961C45.0039 18.0794 44.3216 18.2305 43.1758 18.4492C43.6237 18.8034 43.8477 19.1159 43.8477 19.3867C43.8477 20.1367 43.6393 20.694 43.2227 21.0586C42.5977 21.6211 42.2174 22.0326 42.082 22.293C42.0195 22.3971 41.9883 22.4753 41.9883 22.5273C41.9883 22.6523 42.0716 22.7148 42.2383 22.7148C42.5612 22.7148 43.332 22.194 44.5508 21.1523C45.7799 20.1003 46.4362 19.5742 46.5195 19.5742C46.6133 19.5742 46.6602 19.6315 46.6602 19.7461C46.6602 19.7878 46.6341 19.8294 46.582 19.8711C46.2591 20.1732 45.7487 20.6211 45.0508 21.2148C44.5612 21.6628 43.7904 22.2669 42.7383 23.0273C42.4674 23.1836 42.181 23.2617 41.8789 23.2617C41.0768 23.2617 40.6758 22.8294 40.6758 21.9648C40.6758 21.5482 40.9987 21.0169 41.6445 20.3711C42.3008 19.7148 42.6289 19.2773 42.6289 19.0586C42.6289 18.8086 42.4935 18.6836 42.2227 18.6836C41.8164 18.6836 41.4883 18.7617 41.2383 18.918C41.2383 18.9596 41.2435 19.0273 41.2539 19.1211C41.2747 19.2044 41.2852 19.2721 41.2852 19.3242C41.2852 19.5951 41.1237 19.7305 40.8008 19.7305C40.4362 19.7305 40.2279 19.5378 40.1758 19.1523C39.6133 19.8294 38.7956 20.8555 37.7227 22.2305C37.5977 22.4492 37.3945 22.7357 37.1133 23.0898C37.0091 23.194 36.5716 23.2461 35.8008 23.2461C35.3216 23.2461 35.082 23.1003 35.082 22.8086C35.082 22.694 35.1393 22.569 35.2539 22.4336C35.8164 21.8503 36.6393 20.9492 37.7227 19.7305C38.1706 19.1471 38.8737 18.2982 39.832 17.1836C37.5404 18.9961 36.3841 19.9023 36.3633 19.9023C36.2487 19.9023 36.1914 19.8398 36.1914 19.7148C36.1914 19.6732 36.2122 19.6315 36.2539 19.5898C37.2122 18.8815 38.6289 17.793 40.5039 16.3242C40.681 16.0951 40.9362 15.7721 41.2695 15.3555C41.3112 15.3138 42.8737 13.4544 45.957 9.77734C46.8529 8.70443 47.5664 7.90755 48.0977 7.38672C49.0352 6.45964 49.8841 5.84505 50.6445 5.54297C51.0612 5.36589 51.3737 5.27734 51.582 5.27734C52.0404 5.27734 52.2695 5.65234 52.2695 6.40234ZM51.9102 6.07422C51.9102 5.88672 51.806 5.79297 51.5977 5.79297C51.1602 5.79297 50.5299 6.17318 49.707 6.93359C49.5404 7.08984 49.0352 7.69401 48.1914 8.74609C47.4102 9.80859 46.2122 11.3867 44.5977 13.4805C48.056 11.168 50.2227 9.32422 51.0977 7.94922C51.2122 7.77214 51.306 7.63151 51.3789 7.52734C51.7331 7.03776 51.9102 6.55339 51.9102 6.07422ZM45.2227 15.7305C45.2227 15.5742 45.0977 15.4961 44.8477 15.4961C44.681 15.4961 44.1654 15.7982 43.3008 16.4023C42.4883 16.9544 41.6706 17.7044 40.8477 18.6523C41.1706 18.444 41.4883 18.319 41.8008 18.2773C42.3945 18.2044 42.7174 18.1628 42.7695 18.1523C43.207 18.0482 43.6602 17.7878 44.1289 17.3711C44.6081 16.9544 44.9466 16.5326 45.1445 16.1055C45.1966 16.0117 45.2227 15.8867 45.2227 15.7305ZM57.082 16.4336C57.082 16.6003 56.9727 16.8086 56.7539 17.0586L52.2383 21.9961C52.0612 22.194 51.9727 22.3711 51.9727 22.5273C51.9727 22.6732 52.0612 22.7461 52.2383 22.7461C52.5924 22.7461 53.3581 22.2201 54.5352 21.168C55.7227 20.1055 56.3424 19.5742 56.3945 19.5742C56.4466 19.5742 56.4935 19.6003 56.5352 19.6523C56.5456 19.6732 56.556 19.7096 56.5664 19.7617C56.5664 19.8138 56.5508 19.8555 56.5195 19.8867L53.3945 22.5586C52.8424 23.0378 52.3164 23.2773 51.8164 23.2773C51.056 23.2773 50.6758 22.8607 50.6758 22.0273C50.6758 21.9336 50.6862 21.8346 50.707 21.7305C50.3737 22.0638 49.8945 22.4076 49.2695 22.7617C48.5612 23.168 48.0247 23.3711 47.6602 23.3711C46.8893 23.3711 46.5039 22.9909 46.5039 22.2305C46.5039 20.9388 47.4883 19.5482 49.457 18.0586C48.582 18.6419 47.6237 19.2513 46.582 19.8867C46.4779 19.8451 46.4258 19.7826 46.4258 19.6992C46.4258 19.6576 46.4518 19.6159 46.5039 19.5742C47.2852 18.9388 48.3841 18.2461 49.8008 17.4961C51.4049 16.6523 52.556 16.2305 53.2539 16.2305C53.8268 16.2305 54.1133 16.4753 54.1133 16.9648C54.1133 17.0273 54.0924 17.1263 54.0508 17.2617C54.0091 17.3867 53.9883 17.4857 53.9883 17.5586L53.9727 17.6992H53.9883L54.082 17.6523C54.3633 17.3294 54.6445 17.0065 54.9258 16.6836C55.1549 16.4753 55.5352 16.3555 56.0664 16.3242C56.681 16.2826 56.9518 16.2617 56.8789 16.2617C57.0143 16.2617 57.082 16.319 57.082 16.4336ZM53.707 16.8555C53.707 16.7201 53.6341 16.6523 53.4883 16.6523C53.0091 16.6523 51.8893 17.6107 50.1289 19.5273C48.4206 21.3919 47.5664 22.4805 47.5664 22.793C47.5664 22.9492 47.6706 23.0273 47.8789 23.0273C48.0872 23.0273 48.4779 22.8555 49.0508 22.5117C50.0091 21.918 50.8164 21.2513 51.4727 20.5117C51.9622 20.0117 52.6133 19.2096 53.4258 18.1055C53.6133 17.7617 53.707 17.3451 53.707 16.8555ZM67.0664 16.4023C67.0664 16.5898 66.957 16.7982 66.7383 17.0273L62.207 21.9805C62.0299 22.1784 61.9414 22.3607 61.9414 22.5273C61.9414 22.6523 62.0195 22.7148 62.1758 22.7148C62.5299 22.7148 63.2956 22.2148 64.4727 21.2148C65.7227 20.1419 66.3997 19.5898 66.5039 19.5586C66.6289 19.5794 66.6914 19.6419 66.6914 19.7461C66.6914 19.7982 66.6654 19.8451 66.6133 19.8867C66.207 20.1888 65.6393 20.6836 64.9102 21.3711C64.6914 21.6315 64.5768 22.2773 64.5664 23.3086C64.556 24.3398 64.3216 25.0951 63.8633 25.5742C63.1445 26.3242 61.9518 26.6992 60.2852 26.6992C59.8997 26.6992 59.707 26.6107 59.707 26.4336C59.707 26.3607 59.7799 26.3242 59.9258 26.3242C60.4987 26.3242 61.0247 26.2044 61.5039 25.9648C62.0768 25.6836 62.6289 25.1732 63.1602 24.4336C63.6914 23.7044 63.957 23.0326 63.957 22.418C63.957 22.3034 63.9466 22.1784 63.9258 22.043C63.0195 22.8451 62.3008 23.2461 61.7695 23.2461C61.4362 23.2461 61.1602 23.1211 60.9414 22.8711C60.7227 22.6211 60.6133 22.3242 60.6133 21.9805C60.6133 21.6367 60.9987 21.0273 61.7695 20.1523C61.1237 20.6836 60.1497 21.4753 58.8477 22.5273C58.2331 23.0065 57.707 23.2461 57.2695 23.2461C56.5195 23.2461 56.1445 22.8242 56.1445 21.9805C56.1445 21.5846 56.2695 21.2461 56.5195 20.9648L59.2852 17.7773C57.3893 19.2357 56.431 19.9648 56.4102 19.9648C56.306 19.9648 56.2539 19.8971 56.2539 19.7617C56.2539 19.7201 56.2747 19.6836 56.3164 19.6523L60.5039 16.4023C60.6393 16.2878 61.2539 16.2305 62.3477 16.2305C62.4935 16.2305 62.5664 16.2878 62.5664 16.4023C62.5664 16.569 62.4466 16.7773 62.207 17.0273L58.2539 21.3398C58.1185 21.4857 58.0508 21.6315 58.0508 21.7773C58.0508 21.9544 58.1706 22.043 58.4102 22.043C58.7122 22.043 58.9883 21.9544 59.2383 21.7773C59.9987 21.2044 61.0612 20.3242 62.4258 19.1367C62.6029 19.0117 62.8529 18.7982 63.1758 18.4961L64.8633 16.5586C64.9987 16.4023 65.1602 16.319 65.3477 16.3086L66.8633 16.2305C66.9987 16.2305 67.0664 16.2878 67.0664 16.4023ZM77.1133 16.3555C77.1133 16.5534 77.0091 16.7617 76.8008 16.9805L72.3008 21.9492C72.1133 22.1471 72.0195 22.3242 72.0195 22.4805C72.0195 22.6055 72.0924 22.668 72.2383 22.668C72.5612 22.668 73.0924 22.3659 73.832 21.7617L76.4883 19.5586C76.4987 19.5482 76.5404 19.5326 76.6133 19.5117C76.7279 19.5326 76.7852 19.5951 76.7852 19.6992C76.7852 19.7305 76.7591 19.7669 76.707 19.8086L73.4727 22.4805C72.8893 22.9596 72.3372 23.1992 71.8164 23.1992C71.0768 23.1992 70.707 22.7721 70.707 21.918C70.707 21.6055 71.082 21.0013 71.832 20.1055C70.9987 20.8451 69.7956 21.8034 68.2227 22.9805C67.9935 23.1263 67.6654 23.1992 67.2383 23.1992C66.5716 23.1992 66.2383 22.7826 66.2383 21.9492C66.2383 21.5534 66.3581 21.2148 66.5977 20.9336L69.3633 17.7461C67.4779 19.1836 66.5247 19.9023 66.5039 19.9023C66.3893 19.9023 66.332 19.8398 66.332 19.7148C66.332 19.6732 66.3581 19.6367 66.4102 19.6055L70.582 16.3711C70.7174 16.2669 71.2904 16.2148 72.3008 16.2148C72.4987 16.2148 72.5977 16.2617 72.5977 16.3555C72.5977 16.5534 72.4987 16.7617 72.3008 16.9805L68.332 21.3242C68.1966 21.4701 68.1289 21.6159 68.1289 21.7617C68.1289 21.9388 68.2591 22.0273 68.5195 22.0273C68.7904 22.0273 69.056 21.9388 69.3164 21.7617C69.4935 21.6471 70.1758 21.0951 71.3633 20.1055C72.5508 19.1159 73.1914 18.5742 73.2852 18.4805L74.957 16.5117C75.0924 16.3451 75.2435 16.2617 75.4102 16.2617L76.9414 16.2148C77.056 16.2148 77.1133 16.2617 77.1133 16.3555ZM87.332 16.3555C87.332 16.543 87.2279 16.7513 87.0195 16.9805L82.5195 21.918C82.332 22.1159 82.2383 22.2982 82.2383 22.4648C82.2383 22.6003 82.3164 22.668 82.4727 22.668C82.8685 22.668 83.6497 22.1471 84.8164 21.1055C85.9831 20.0638 86.6133 19.5378 86.707 19.5273C86.8216 19.5378 86.8789 19.6003 86.8789 19.7148C86.8789 19.7565 86.8529 19.7982 86.8008 19.8398L83.6602 22.4648C83.0664 22.9753 82.5404 23.2305 82.082 23.2305C81.7383 23.2305 81.457 23.0898 81.2383 22.8086C81.0299 22.5586 80.9258 22.2565 80.9258 21.9023C80.9258 21.569 81.2539 21.0221 81.9102 20.2617C81.806 20.293 81.5039 20.3086 81.0039 20.3086C80.6706 20.3086 80.3164 20.4544 79.9414 20.7461C79.5664 21.0273 79.2956 21.3294 79.1289 21.6523C78.8997 22.0586 78.5664 22.4336 78.1289 22.7773C77.6393 23.1523 77.1862 23.3398 76.7695 23.3398C75.957 23.3398 75.5508 22.9961 75.5508 22.3086C75.5508 21.569 75.8372 21.1992 76.4102 21.1992C76.8893 21.1992 77.1289 21.4232 77.1289 21.8711C77.1289 22.3294 76.8893 22.5586 76.4102 22.5586C76.2331 22.5586 76.082 22.4909 75.957 22.3555V22.418C75.957 22.8451 76.2383 23.0586 76.8008 23.0586C77.1341 23.0586 77.6029 22.6628 78.207 21.8711C78.8633 20.9961 79.5768 20.4544 80.3477 20.2461C80.3477 20.194 80.2174 20.0378 79.957 19.7773C79.6966 19.5065 79.5664 19.2201 79.5664 18.918C79.5664 18.1784 79.8424 17.5117 80.3945 16.918C80.957 16.3242 81.6081 16.0273 82.3477 16.0273C83.5872 16.0273 84.2383 16.5221 84.3008 17.5117C84.957 16.7617 85.3424 16.3607 85.457 16.3086C85.582 16.2461 86.1497 16.2148 87.1602 16.2148C87.2747 16.2148 87.332 16.2617 87.332 16.3555ZM83.8789 17.4492C83.8789 16.918 83.6758 16.6523 83.2695 16.6523C82.9049 16.6523 82.3997 17.0221 81.7539 17.7617C81.1081 18.4909 80.7852 19.0638 80.7852 19.4805C80.7852 19.8346 80.9727 20.0117 81.3477 20.0117C81.5664 20.0117 81.9466 19.8815 82.4883 19.6211L83.8008 18.0898C83.8529 17.8919 83.8789 17.6784 83.8789 17.4492Z" fill="#28682E"></path></svg> 