<?xml version="1.0" encoding="UTF-8"?> <svg xmlns="http://www.w3.org/2000/svg" width="265" height="30" viewBox="0 0 265 30" fill="none"><path d="M0.691211 28.9434V27.6234C1.70454 27.57 2.39788 27.3434 2.77121 26.9434C3.14454 26.5167 3.34454 25.9434 3.37121 25.2234C3.42454 24.4767 3.45121 23.6367 3.45121 22.7034V5.42336C3.45121 4.89002 3.46454 4.38336 3.49121 3.90336C3.51788 3.39669 3.54454 2.94336 3.57121 2.54336C3.09121 2.57002 2.61121 2.59669 2.13121 2.62336C1.65121 2.65003 1.17121 2.67669 0.691211 2.70336V0.943357H26.7312V2.26336C25.7445 2.29003 25.0512 2.51669 24.6512 2.94336C24.2779 3.37003 24.0645 3.94336 24.0112 4.66336C23.9845 5.38336 23.9712 6.22336 23.9712 7.18336V24.1834C23.9712 24.9034 23.9579 25.53 23.9312 26.0634C23.9312 26.57 23.9045 26.9967 23.8512 27.3434C24.3312 27.3167 24.8112 27.29 25.2912 27.2634C25.7712 27.2367 26.2512 27.21 26.7312 27.1834V28.9434H17.6912V27.6234C18.7045 27.57 19.3979 27.3434 19.7712 26.9434C20.1712 26.5167 20.3845 25.9434 20.4112 25.2234C20.4645 24.4767 20.4912 23.6367 20.4912 22.7034V2.50336L9.69121 2.66336C8.89121 2.69003 8.29121 2.85003 7.89121 3.14336C7.51788 3.41002 7.26454 3.78336 7.13121 4.26336C7.02454 4.74336 6.95788 5.30336 6.93121 5.94336V24.1834C6.93121 24.9034 6.91788 25.53 6.89121 26.0634C6.89121 26.57 6.86454 26.9967 6.81121 27.3434C7.29121 27.3167 7.77121 27.29 8.25121 27.2634C8.73121 27.2367 9.21121 27.21 9.69121 27.1834V28.9434H0.691211ZM44.6493 29.5834C42.116 29.5834 39.9427 29.1567 38.1293 28.3034C36.316 27.45 34.836 26.3167 33.6893 24.9034C32.5693 23.4634 31.7427 21.8767 31.2093 20.1434C30.676 18.41 30.4093 16.6767 30.4093 14.9434C30.4093 13.2634 30.6893 11.57 31.2493 9.86336C31.8093 8.13002 32.6627 6.54336 33.8093 5.10336C34.9827 3.66336 36.436 2.50336 38.1693 1.62336C39.9293 0.743358 41.9827 0.303359 44.3293 0.303359C46.7827 0.303359 48.9027 0.743358 50.6893 1.62336C52.476 2.50336 53.9427 3.67669 55.0893 5.14336C56.2627 6.58336 57.1293 8.15669 57.6893 9.86336C58.276 11.57 58.5693 13.2634 58.5693 14.9434C58.5693 16.5967 58.2893 18.29 57.7293 20.0234C57.1693 21.73 56.3027 23.3167 55.1293 24.7834C53.9827 26.2234 52.5427 27.3834 50.8093 28.2634C49.076 29.1434 47.0227 29.5834 44.6493 29.5834ZM44.7293 27.9434C46.3827 27.9434 47.8227 27.5967 49.0493 26.9034C50.276 26.1834 51.2893 25.2367 52.0893 24.0634C52.916 22.8634 53.5293 21.5434 53.9293 20.1034C54.356 18.6367 54.5693 17.17 54.5693 15.7034C54.5693 14.05 54.3427 12.41 53.8893 10.7834C53.436 9.15669 52.7693 7.67669 51.8893 6.34336C51.0093 5.01003 49.916 3.94336 48.6093 3.14336C47.3293 2.31669 45.8627 1.90336 44.2093 1.90336C42.556 1.90336 41.1027 2.26336 39.8493 2.98336C38.6227 3.70336 37.596 4.66336 36.7693 5.86336C35.9693 7.03669 35.356 8.35669 34.9293 9.82336C34.5293 11.2634 34.3293 12.73 34.3293 14.2234C34.3293 15.69 34.5293 17.2234 34.9293 18.8234C35.356 20.4234 35.996 21.9167 36.8493 23.3034C37.7027 24.69 38.7827 25.81 40.0893 26.6634C41.396 27.5167 42.9427 27.9434 44.7293 27.9434ZM60.5271 28.9434V27.6234C61.1138 27.6234 61.6738 27.5034 62.2071 27.2634C62.7405 27.0234 63.3138 26.57 63.9271 25.9034C64.5405 25.2367 65.2471 24.2634 66.0471 22.9834L69.4871 17.3034C69.9938 16.5034 70.4871 15.85 70.9671 15.3434C71.4738 14.8367 72.1005 14.3567 72.8471 13.9034L69.2071 7.66336C68.3538 6.17003 67.5271 5.06336 66.7271 4.34336C65.9271 3.59669 65.0871 3.09003 64.2071 2.82336C63.3271 2.53002 62.3271 2.34336 61.2071 2.26336V0.943357H69.8071V2.58336C69.4071 2.55669 68.9938 2.54336 68.5671 2.54336C68.1671 2.54336 67.7671 2.53003 67.3671 2.50336C67.9271 2.93002 68.4605 3.46336 68.9671 4.10336C69.5005 4.74336 69.9271 5.33003 70.2471 5.86336L74.8471 13.7434H77.8471V5.42336C77.8471 4.89002 77.8471 4.38336 77.8471 3.90336C77.8738 3.39669 77.9138 2.94336 77.9671 2.54336C77.4871 2.57002 77.0071 2.59669 76.5271 2.62336C76.0471 2.65003 75.5671 2.67669 75.0871 2.70336V0.943357H84.0872V2.26336C83.1005 2.29003 82.4072 2.51669 82.0072 2.94336C81.6338 3.37003 81.4205 3.94336 81.3671 4.66336C81.3405 5.38336 81.3271 6.22336 81.3271 7.18336V13.7434H84.3271L88.9271 5.86336C89.1405 5.49003 89.3938 5.10336 89.6871 4.70336C89.9805 4.30336 90.3005 3.91669 90.6471 3.54336C91.0205 3.14336 91.3938 2.79669 91.7671 2.50336C91.3671 2.53003 90.9538 2.54336 90.5272 2.54336C90.1271 2.54336 89.7271 2.55669 89.3271 2.58336V0.943357H97.9272V2.26336C96.8072 2.34336 95.8072 2.53002 94.9272 2.82336C94.0471 3.09003 93.2071 3.59669 92.4072 4.34336C91.6338 5.06336 90.8205 6.17003 89.9672 7.66336L86.3271 13.9034C87.1005 14.3567 87.7138 14.8367 88.1672 15.3434C88.6472 15.85 89.1405 16.5034 89.6472 17.3034L93.1272 22.9834C93.9271 24.2634 94.6338 25.2367 95.2471 25.9034C95.8605 26.57 96.4338 27.0234 96.9672 27.2634C97.5272 27.5034 98.0872 27.6234 98.6472 27.6234V28.9434H94.5271C94.2605 28.9434 93.8871 28.7967 93.4071 28.5034C92.9538 28.1834 92.4472 27.73 91.8871 27.1434C91.3538 26.5567 90.8205 25.85 90.2871 25.0234L86.2872 18.5434C85.9138 17.93 85.5405 17.3567 85.1672 16.8234C84.7938 16.29 84.3005 15.7834 83.6872 15.3034L81.3271 15.3434V24.1834C81.3271 24.9034 81.3138 25.53 81.2872 26.0634C81.2605 26.57 81.2205 26.9967 81.1671 27.3434C81.6471 27.3167 82.1271 27.29 82.6072 27.2634C83.1138 27.2367 83.6071 27.21 84.0872 27.1834V28.9434H75.0871V27.6234C76.1005 27.57 76.7938 27.3434 77.1671 26.9434C77.5405 26.5167 77.7405 25.9434 77.7671 25.2234C77.8205 24.4767 77.8471 23.6367 77.8471 22.7034V15.3434L75.4471 15.3034C74.8605 15.7834 74.3671 16.29 73.9671 16.8234C73.5938 17.3567 73.2205 17.93 72.8471 18.5434L68.9271 25.0234C68.4205 25.8767 67.9005 26.5967 67.3671 27.1834C66.8338 27.77 66.3405 28.21 65.8871 28.5034C65.4338 28.7967 65.0738 28.9434 64.8071 28.9434H60.5271ZM114.963 18.5834C114.963 17.41 114.803 16.57 114.483 16.0634C114.163 15.5567 113.656 15.25 112.963 15.1434C112.269 15.0367 111.349 15.01 110.203 15.0634L107.283 15.1834V24.3434C107.283 25.0634 107.269 25.6767 107.243 26.1834C107.243 26.69 107.216 27.1167 107.163 27.4634L114.803 27.3434C115.976 27.3167 116.989 27.13 117.843 26.7834C118.696 26.41 119.363 25.77 119.843 24.8634C120.323 23.9567 120.563 22.7167 120.563 21.1434H121.923L121.683 28.9434H101.043V27.6234C102.056 27.57 102.749 27.3434 103.123 26.9434C103.496 26.5167 103.696 25.9434 103.723 25.2234C103.776 24.4767 103.803 23.6367 103.803 22.7034V5.42336C103.803 4.89002 103.816 4.38336 103.843 3.90336C103.869 3.39669 103.896 2.94336 103.923 2.54336C103.443 2.57002 102.963 2.59669 102.483 2.62336C102.003 2.65003 101.523 2.67669 101.043 2.70336V0.943357H120.283L120.483 7.94336H119.163C119.163 6.37002 118.923 5.18336 118.443 4.38336C117.963 3.55669 117.309 3.01002 116.483 2.74336C115.683 2.45003 114.776 2.31669 113.763 2.34336L110.323 2.42336C109.336 2.45002 108.629 2.63669 108.203 2.98336C107.776 3.33002 107.509 3.85002 107.403 4.54336C107.323 5.21002 107.283 6.09002 107.283 7.18336V13.5834L114.803 13.6234L114.523 10.1834H116.283V18.5834H114.963ZM127.686 29.5834C126.726 29.5834 125.872 29.3434 125.126 28.8634C124.379 28.3567 124.006 27.69 124.006 26.8634C124.006 26.2767 124.179 25.7967 124.526 25.4234C124.899 25.0234 125.379 24.81 125.966 24.7834C126.632 24.73 127.126 24.9167 127.446 25.3434C127.766 25.7434 127.926 26.1434 127.926 26.5434C127.926 26.9967 127.792 27.3567 127.526 27.6234C127.739 27.8367 127.966 27.9434 128.206 27.9434C128.659 27.9434 129.179 27.5567 129.766 26.7834C130.379 26.01 130.966 24.8234 131.526 23.2234C132.086 21.6234 132.552 19.61 132.926 17.1834C133.299 14.73 133.486 11.8367 133.486 8.50336V2.54336H132.646L129.726 2.70336V0.943357H149.526V2.26336C148.539 2.29003 147.846 2.51669 147.446 2.94336C147.072 3.37003 146.859 3.94336 146.806 4.66336C146.779 5.38336 146.766 6.22336 146.766 7.18336V24.1834C146.766 24.9034 146.752 25.53 146.726 26.0634C146.726 26.57 146.699 26.9967 146.646 27.3434C147.126 27.3167 147.606 27.29 148.086 27.2634C148.566 27.2367 149.046 27.21 149.526 27.1834V28.9434H140.486V27.6234C141.499 27.57 142.192 27.3434 142.566 26.9434C142.966 26.5167 143.179 25.9434 143.206 25.2234C143.259 24.4767 143.286 23.6367 143.286 22.7034V2.50336L137.646 2.54336C136.686 2.54336 136.086 2.81002 135.846 3.34336C135.606 3.85002 135.459 4.62336 135.406 5.66336C135.406 8.01003 135.326 10.33 135.166 12.6234C135.006 14.9167 134.752 17.09 134.406 19.1434C134.059 21.17 133.592 22.97 133.006 24.5434C132.419 26.1167 131.686 27.3567 130.806 28.2634C129.926 29.1434 128.886 29.5834 127.686 29.5834ZM151.493 28.9434V27.6234C152.293 27.6234 152.907 27.41 153.333 26.9834C153.76 26.5567 154.107 25.97 154.373 25.2234C154.667 24.4767 155 23.61 155.373 22.6234L163.613 0.183358H164.573L173.493 22.9434C173.707 23.5034 173.947 24.2234 174.213 25.1034C174.48 25.9834 174.587 26.73 174.533 27.3434C174.987 27.3167 175.44 27.29 175.893 27.2634C176.347 27.2367 176.8 27.21 177.253 27.1834V28.9434H168.093V27.6234C169.107 27.5967 169.773 27.37 170.093 26.9434C170.413 26.5167 170.533 26.01 170.453 25.4234C170.373 24.8367 170.24 24.3034 170.053 23.8234L168.653 20.0634L158.253 20.3034L156.853 24.5834C156.667 25.2234 156.493 25.73 156.333 26.1034C156.2 26.4767 156.04 26.89 155.853 27.3434C156.387 27.3167 156.907 27.29 157.413 27.2634C157.947 27.2367 158.467 27.21 158.973 27.1834V28.9434H151.493ZM158.853 18.5834H168.093L165.253 10.9434C164.96 10.1167 164.653 9.30336 164.333 8.50336C164.04 7.67669 163.747 6.85002 163.453 6.02336H163.373C163.107 6.77003 162.827 7.51669 162.533 8.26336C162.267 9.01003 161.987 9.77003 161.693 10.5434L158.853 18.5834ZM178.972 28.9434V27.6234C179.986 27.57 180.679 27.3434 181.052 26.9434C181.426 26.5167 181.626 25.9434 181.652 25.2234C181.706 24.4767 181.732 23.6367 181.732 22.7034V5.42336C181.732 4.89002 181.746 4.38336 181.772 3.90336C181.799 3.39669 181.826 2.94336 181.852 2.54336C181.372 2.57002 180.892 2.59669 180.412 2.62336C179.932 2.65003 179.452 2.67669 178.972 2.70336V0.943357H187.972V2.26336C186.986 2.29003 186.292 2.51669 185.892 2.94336C185.519 3.37003 185.306 3.94336 185.252 4.66336C185.226 5.38336 185.212 6.22336 185.212 7.18336V13.8234H199.532V5.42336C199.532 4.89002 199.546 4.38336 199.572 3.90336C199.599 3.39669 199.626 2.94336 199.652 2.54336C199.172 2.57002 198.692 2.59669 198.212 2.62336C197.732 2.65003 197.252 2.67669 196.772 2.70336V0.943357H205.772V2.26336C204.786 2.29003 204.092 2.51669 203.692 2.94336C203.319 3.37003 203.106 3.94336 203.052 4.66336C203.026 5.38336 203.012 6.22336 203.012 7.18336V24.1834C203.012 24.9034 202.999 25.53 202.972 26.0634C202.972 26.57 202.946 26.9967 202.892 27.3434C203.372 27.3167 203.852 27.29 204.332 27.2634C204.812 27.2367 205.292 27.21 205.772 27.1834V28.9434H196.772V27.6234C197.786 27.57 198.479 27.3434 198.852 26.9434C199.226 26.5167 199.426 25.9434 199.452 25.2234C199.506 24.4767 199.532 23.6367 199.532 22.7034V15.4234L185.212 15.5834V24.1834C185.212 24.9034 185.199 25.53 185.172 26.0634C185.172 26.57 185.146 26.9967 185.092 27.3434C185.572 27.3167 186.052 27.29 186.532 27.2634C187.012 27.2367 187.492 27.21 187.972 27.1834V28.9434H178.972ZM219.183 2.26336C218.197 2.29003 217.503 2.51669 217.103 2.94336C216.73 3.37003 216.517 3.94336 216.463 4.66336C216.437 5.38336 216.423 6.22336 216.423 7.18336V24.1834C216.423 24.9034 216.41 25.53 216.383 26.0634C216.383 26.57 216.357 26.9967 216.303 27.3434C216.783 27.3167 217.263 27.29 217.743 27.2634C218.223 27.2367 218.703 27.21 219.183 27.1834V28.9434H210.183V27.6234C211.197 27.57 211.89 27.3434 212.263 26.9434C212.637 26.5167 212.837 25.9434 212.863 25.2234C212.917 24.4767 212.943 23.6367 212.943 22.7034V5.42336C212.943 4.89002 212.957 4.38336 212.983 3.90336C213.01 3.39669 213.037 2.94336 213.063 2.54336C212.583 2.57002 212.103 2.59669 211.623 2.62336C211.143 2.65003 210.663 2.67669 210.183 2.70336V0.943357H219.183V2.26336ZM237.383 2.26336C236.397 2.29003 235.703 2.51669 235.303 2.94336C234.93 3.37003 234.717 3.94336 234.663 4.66336C234.637 5.38336 234.623 6.22336 234.623 7.18336V24.1834C234.623 24.9034 234.61 25.53 234.583 26.0634C234.583 26.57 234.557 26.9967 234.503 27.3434C234.983 27.3167 235.463 27.29 235.943 27.2634C236.423 27.2367 236.903 27.21 237.383 27.1834V28.9434H228.383V27.6234C229.397 27.57 230.09 27.3434 230.463 26.9434C230.837 26.5167 231.037 25.9434 231.063 25.2234C231.117 24.4767 231.143 23.6367 231.143 22.7034V5.42336C231.143 4.89002 231.157 4.38336 231.183 3.90336C231.21 3.39669 231.237 2.94336 231.263 2.54336C230.783 2.57002 230.303 2.59669 229.823 2.62336C229.343 2.65003 228.863 2.67669 228.383 2.70336V0.943357H237.383V2.26336ZM232.143 2.90336L233.263 3.98336L214.943 26.8634L213.703 25.7034L232.143 2.90336ZM240.465 28.9434V27.6234C241.212 27.6234 241.825 27.49 242.305 27.2234C242.812 26.93 243.278 26.5034 243.705 25.9434C244.158 25.3567 244.665 24.65 245.225 23.8234L248.305 19.1834C248.812 18.4634 249.292 17.9034 249.745 17.5034C250.198 17.1034 250.745 16.81 251.385 16.6234C249.465 16.17 247.865 15.2767 246.585 13.9434C245.305 12.5834 244.665 10.77 244.665 8.50336C244.665 6.93002 244.985 5.58336 245.625 4.46336C246.292 3.31669 247.292 2.45002 248.625 1.86336C249.958 1.25002 251.625 0.943357 253.625 0.943357H264.305V2.26336C263.345 2.29003 262.665 2.51669 262.265 2.94336C261.892 3.34336 261.678 3.90336 261.625 4.62336C261.572 5.34336 261.545 6.19669 261.545 7.18336V24.4634C261.545 24.9967 261.532 25.5167 261.505 26.0234C261.505 26.5034 261.478 26.9434 261.425 27.3434L264.305 27.1834V28.9434H255.305V27.6234C256.318 27.57 257.012 27.3434 257.385 26.9434C257.758 26.5167 257.958 25.9434 257.985 25.2234C258.038 24.4767 258.065 23.6367 258.065 22.7034V17.2234L254.505 17.2634C253.918 17.61 253.398 18.0234 252.945 18.5034C252.518 18.9834 252.158 19.45 251.865 19.9034L248.865 24.5034C248.492 25.09 248.092 25.69 247.665 26.3034C247.238 26.9167 246.812 27.4634 246.385 27.9434C245.985 28.3967 245.585 28.73 245.185 28.9434H240.465ZM254.945 15.7834C255.718 15.7834 256.398 15.77 256.985 15.7434C257.572 15.7167 257.932 15.69 258.065 15.6634V5.66336C258.065 4.94336 258.078 4.33003 258.105 3.82336C258.132 3.31669 258.158 2.89003 258.185 2.54336C257.572 2.49002 256.985 2.46336 256.425 2.46336C255.892 2.46336 255.398 2.46336 254.945 2.46336C253.718 2.46336 252.612 2.70336 251.625 3.18336C250.638 3.63669 249.852 4.34336 249.265 5.30336C248.705 6.23669 248.425 7.43669 248.425 8.90336C248.425 10.2367 248.718 11.4234 249.305 12.4634C249.892 13.5034 250.678 14.3167 251.665 14.9034C252.652 15.49 253.745 15.7834 254.945 15.7834Z" fill="white"></path></svg> 