<?xml version="1.0" encoding="UTF-8"?> <svg xmlns="http://www.w3.org/2000/svg" width="29" height="49" viewBox="0 0 29 49" fill="none"><path d="M14.2715 0.630859C6.47864 0.630859 0.164062 6.90707 0.164062 14.6475C0.164062 26.1573 10.1287 28.6302 14.2715 43.082C18.4143 28.6302 28.3789 26.1596 28.3789 14.6475C28.3789 6.90707 22.0643 0.630859 14.2715 0.630859ZM14.2715 23.8975C9.12948 23.8975 4.96159 19.7564 4.96159 14.6475C4.96159 9.5386 9.12948 5.39752 14.2715 5.39752C19.4135 5.39752 23.5814 9.5386 23.5814 14.6475C23.5814 19.7564 19.4135 23.8975 14.2715 23.8975Z" fill="#3C3C3C"></path><path d="M14.2723 48.3794C15.7451 48.3794 16.9391 47.1931 16.9391 45.7297C16.9391 44.2664 15.7451 43.0801 14.2723 43.0801C12.7994 43.0801 11.6055 44.2664 11.6055 45.7297C11.6055 47.1931 12.7994 48.3794 14.2723 48.3794Z" fill="#3C3C3C"></path></svg> 