<?xml version="1.0" encoding="UTF-8"?> <svg xmlns="http://www.w3.org/2000/svg" width="173" height="23" viewBox="0 0 173 23" fill="none"><path d="M0.336117 18.416V18.2H0.720117C1.31212 18.2 1.69612 18.088 1.87212 17.864C2.06412 17.64 2.17612 17.184 2.20812 16.496L2.85612 2.64802C2.87212 2.37602 2.88012 2.20801 2.88012 2.14401C2.88012 1.85601 2.80012 1.65601 2.64012 1.54402C2.49612 1.43201 2.17612 1.37601 1.68012 1.37601H0.720117V1.16001H4.24812L10.4641 14.912C10.7041 15.44 10.8241 15.784 10.8241 15.944H10.9441C10.9441 15.736 11.0561 15.392 11.2801 14.912L17.4961 1.16001H21.0961V1.37601H20.2801C19.7361 1.37601 19.3761 1.45601 19.2001 1.61601C19.0241 1.77601 18.9361 2.04801 18.9361 2.43202C18.9361 2.49601 18.9441 2.71201 18.9601 3.08001L19.5121 16.496C19.5441 17.2 19.6481 17.664 19.8241 17.888C20.0001 18.096 20.4081 18.2 21.0481 18.2H21.5761V18.416H15.3121V18.2H16.1761C16.7841 18.2 17.1841 18.128 17.3761 17.984C17.5681 17.84 17.6641 17.608 17.6641 17.288C17.6641 17.24 17.6561 17.192 17.6401 17.144C17.6401 17.096 17.6401 17.048 17.6401 17C17.6401 16.936 17.6401 16.888 17.6401 16.856L17.1601 4.20802C17.1441 3.92002 17.1361 3.56802 17.1361 3.15201H16.9921C16.9921 3.21601 16.8641 3.54401 16.6081 4.13601L10.1521 18.512L10.0801 18.68H10.0321L9.96012 18.512L3.60012 4.40001C3.42412 4.01601 3.33612 3.68001 3.33612 3.39201H3.24012C3.24012 3.64802 3.23212 3.92002 3.21612 4.20802L2.61612 16.808C2.60012 17.144 2.59212 17.328 2.59212 17.36C2.59212 17.664 2.68812 17.88 2.88012 18.008C3.07212 18.136 3.48012 18.2 4.10412 18.2H4.96812V18.416H0.336117ZM34.4244 18.416V18.2H35.2644C35.8404 18.2 36.1924 18.136 36.3204 18.008C36.4644 17.88 36.5364 17.528 36.5364 16.952V2.62401C36.5364 2.04802 36.4644 1.69602 36.3204 1.56802C36.1924 1.44001 35.8404 1.37601 35.2644 1.37601H34.4244V1.16001H40.5444V1.42402H39.7044C39.1284 1.42402 38.7684 1.48802 38.6244 1.61601C38.4804 1.74401 38.4084 2.09601 38.4084 2.67202V16.952C38.4084 17.528 38.4804 17.88 38.6244 18.008C38.7684 18.136 39.1284 18.2 39.7044 18.2H40.5444V18.416H34.4244ZM22.2084 18.416V18.176H23.0484C23.6244 18.176 23.9764 18.112 24.1044 17.984C24.2484 17.84 24.3204 17.48 24.3204 16.904V2.62401C24.3204 2.04802 24.2484 1.69602 24.1044 1.56802C23.9764 1.44001 23.6244 1.37601 23.0484 1.37601H22.2084V1.16001H28.3284V1.37601H27.4884C26.9124 1.37601 26.5524 1.44801 26.4084 1.59201C26.2644 1.73601 26.1924 2.09601 26.1924 2.67202V9.53602H28.0164C29.8564 9.53602 31.3364 9.94402 32.4564 10.76C33.5764 11.576 34.1364 12.648 34.1364 13.976C34.1364 15.304 33.5764 16.376 32.4564 17.192C31.3364 18.008 29.8564 18.416 28.0164 18.416H22.2084ZM26.1924 9.94402V16.712C26.1924 17.256 26.0564 17.664 25.7844 17.936V17.984H27.5604C29.0164 17.984 30.1284 17.64 30.8964 16.952C31.6644 16.264 32.0484 15.272 32.0484 13.976C32.0484 12.664 31.6644 11.664 30.8964 10.976C30.1284 10.288 29.0164 9.94402 27.5604 9.94402H26.1924ZM51.3312 17.984H54.0672C55.5552 17.984 56.7552 17.568 57.6672 16.736C58.5792 15.904 59.0352 14.8 59.0352 13.424C59.0352 11.984 58.5552 10.8 57.5952 9.87202C56.6352 8.94402 55.4112 8.48001 53.9232 8.48001H52.6512V8.07202H53.6112C54.6672 8.07202 55.5392 7.76802 56.2272 7.16002C56.9152 6.55202 57.2592 5.77601 57.2592 4.83201C57.2592 3.85601 56.8912 3.07201 56.1552 2.48001C55.4352 1.88801 54.4752 1.59201 53.2752 1.59201H51.3312V1.61601C51.6032 1.88801 51.7392 2.30402 51.7392 2.86402V16.712C51.7392 17.256 51.6032 17.664 51.3312 17.936V17.984ZM47.7552 18.416V18.2H48.5952C49.1712 18.2 49.5232 18.136 49.6512 18.008C49.7952 17.864 49.8672 17.504 49.8672 16.928V2.64802C49.8672 2.07202 49.7952 1.72002 49.6512 1.59201C49.5232 1.44801 49.1712 1.37601 48.5952 1.37601H47.7552V1.16001H53.6112C55.3232 1.16001 56.6992 1.49601 57.7392 2.16801C58.7792 2.82401 59.2992 3.69601 59.2992 4.78402C59.2992 5.52002 58.9792 6.23202 58.3392 6.92001C57.7152 7.59202 56.8832 8.00002 55.8432 8.14401V8.24002C57.3472 8.35202 58.6032 8.92801 59.6112 9.96801C60.6192 11.008 61.1232 12.16 61.1232 13.424C61.1232 14.896 60.4912 16.096 59.2272 17.024C57.9632 17.952 56.3872 18.416 54.4992 18.416H47.7552ZM70.4304 9.68002V4.54402C70.4304 2.44801 69.4864 1.40001 67.5984 1.40001C66.4464 1.40001 65.5504 1.70401 64.9104 2.31202C64.2704 2.90402 63.9264 3.68802 63.8784 4.66402L63.8064 6.15201H63.3744L63.6384 0.488015H63.8784L63.8064 1.76002C63.7744 2.14402 63.7424 2.40001 63.7104 2.52801L63.8784 2.57601C63.9584 2.33602 64.0864 2.15202 64.2624 2.02401C65.2064 1.32001 66.3104 0.968014 67.5744 0.968014C69.1264 0.968014 70.3024 1.30401 71.1024 1.97601C71.9024 2.63201 72.3024 3.59201 72.3024 4.85602V16.712C72.3024 17.208 72.3424 17.536 72.4224 17.696C72.5184 17.856 72.7424 17.936 73.0944 17.936L73.5744 17.912L73.9824 17.888L74.0064 18.104C73.0624 18.2 72.1904 18.376 71.3904 18.632V18.44C71.3904 17.96 71.3024 17.24 71.1264 16.28C71.0144 15.56 70.9504 15.04 70.9344 14.72H70.6944C70.0544 17.312 68.7104 18.608 66.6624 18.608C65.3504 18.608 64.2624 18.248 63.3984 17.528C62.5504 16.792 62.1264 15.84 62.1264 14.672C62.1264 13.168 62.7104 11.96 63.8784 11.048C65.0624 10.136 66.6224 9.68002 68.5584 9.68002H70.4304ZM70.4304 10.112H68.6784C67.3344 10.112 66.2544 10.536 65.4384 11.384C64.6224 12.216 64.2144 13.312 64.2144 14.672C64.2144 15.664 64.4624 16.464 64.9584 17.072C65.4704 17.664 66.1344 17.96 66.9504 17.96C67.8784 17.96 68.6864 17.536 69.3744 16.688C70.0784 15.824 70.4304 14.592 70.4304 12.992V10.112ZM75.257 9.72802C75.257 7.10402 76.025 4.99201 77.561 3.39201C79.097 1.77601 81.121 0.968014 83.633 0.968014C85.361 0.968014 86.825 1.48001 88.025 2.50401C88.137 2.61601 88.225 2.77602 88.289 2.98402L88.457 2.93601C88.425 2.77601 88.401 2.54401 88.385 2.24002L88.337 0.488015H88.553L88.769 7.42401L88.337 7.44802L88.265 5.21602C88.201 4.16001 87.681 3.25601 86.705 2.50401C85.745 1.75201 84.657 1.37601 83.441 1.37601C81.473 1.37601 79.969 2.05602 78.929 3.41602C77.905 4.77602 77.393 6.75202 77.393 9.34402C77.393 12.208 77.929 14.4 79.001 15.92C80.089 17.424 81.657 18.176 83.705 18.176C84.873 18.176 85.953 17.88 86.945 17.288C87.937 16.696 88.633 15.896 89.033 14.888L89.441 15.056C88.993 16.208 88.241 17.088 87.185 17.696C86.145 18.304 84.969 18.608 83.657 18.608C81.145 18.608 79.113 17.792 77.561 16.16C76.025 14.528 75.257 12.384 75.257 9.72802ZM103.864 18.416V18.2H104.704C105.28 18.2 105.632 18.12 105.76 17.96C105.904 17.8 105.976 17.384 105.976 16.712V8.26402H105.832C105.464 8.26402 105.12 8.30402 104.8 8.38402C104.496 8.44801 104.224 8.53602 103.984 8.64802C103.744 8.76002 103.52 8.92802 103.312 9.15202C103.104 9.36002 102.928 9.55202 102.784 9.72802C102.64 9.90402 102.504 10.152 102.376 10.472C102.248 10.776 102.144 11.04 102.064 11.264C101.984 11.472 101.896 11.768 101.8 12.152C101.72 12.536 101.656 12.84 101.608 13.064C101.576 13.272 101.528 13.584 101.464 14C101.384 14.448 101.32 14.792 101.272 15.032C101.224 15.272 101.144 15.584 101.032 15.968C100.936 16.352 100.84 16.656 100.744 16.88C100.648 17.088 100.52 17.328 100.36 17.6C100.216 17.856 100.048 18.056 99.8562 18.2C99.6642 18.328 99.4322 18.44 99.1602 18.536C98.9042 18.632 98.6162 18.68 98.2962 18.68C97.6562 18.68 97.0082 18.384 96.3522 17.792L96.0402 17.552L96.1842 17.384L96.4962 17.624C96.8962 17.944 97.2722 18.104 97.6242 18.104C97.8962 18.104 98.1282 18.04 98.3202 17.912C98.5282 17.784 98.6882 17.64 98.8002 17.48C98.9282 17.304 99.0322 17.048 99.1122 16.712C99.2082 16.376 99.2722 16.088 99.3042 15.848C99.3522 15.592 99.4082 15.224 99.4722 14.744C99.5362 14.232 99.5922 13.808 99.6402 13.472C99.6882 13.136 99.7682 12.736 99.8802 12.272C99.9922 11.808 100.112 11.416 100.24 11.096C100.384 10.776 100.568 10.432 100.792 10.064C101.032 9.69602 101.296 9.39202 101.584 9.15202C101.888 8.89602 102.248 8.66402 102.664 8.45602C103.096 8.23202 103.576 8.06402 104.104 7.95202L104.128 7.85601L100.312 3.03201C99.8482 2.45601 99.2962 2.04001 98.6562 1.78402C98.0162 1.51201 97.3922 1.37601 96.7842 1.37601H96.4962V1.16001H101.8V1.37601H101.584C100.752 1.37601 100.336 1.59201 100.336 2.02401C100.336 2.28001 100.48 2.58401 100.768 2.93601L104.56 7.71202C104.736 7.93602 105.208 8.04802 105.976 8.04802V2.64802C105.976 2.07202 105.904 1.72002 105.76 1.59201C105.632 1.44801 105.28 1.37601 104.704 1.37601H104.464V1.16001H109.36V1.37601H109.144C108.568 1.37601 108.208 1.44801 108.064 1.59201C107.92 1.72002 107.848 2.07202 107.848 2.64802V8.04802C108.296 8.04802 108.616 8.03202 108.808 8.00002C109.016 7.95202 109.176 7.85602 109.288 7.71202L113.08 2.93601C113.368 2.58401 113.512 2.28001 113.512 2.02401C113.512 1.59201 113.096 1.37601 112.264 1.37601H112.048V1.16001H117.352V1.37601H117.064C116.456 1.37601 115.832 1.51201 115.192 1.78402C114.552 2.04001 114 2.45601 113.536 3.03201L109.72 7.85601L109.744 7.95202C110.272 8.08001 110.752 8.25601 111.184 8.48001C111.616 8.68801 111.976 8.92002 112.264 9.17602C112.568 9.41602 112.832 9.72802 113.056 10.112C113.296 10.48 113.48 10.824 113.608 11.144C113.736 11.448 113.856 11.84 113.968 12.32C114.08 12.784 114.16 13.176 114.208 13.496C114.256 13.8 114.312 14.208 114.376 14.72C114.44 15.2 114.488 15.568 114.52 15.824C114.552 16.064 114.616 16.36 114.712 16.712C114.808 17.048 114.912 17.304 115.024 17.48C115.136 17.64 115.296 17.784 115.504 17.912C115.712 18.04 115.952 18.104 116.224 18.104C116.576 18.104 116.952 17.944 117.352 17.624L117.664 17.384L117.808 17.552L117.496 17.792C116.84 18.384 116.192 18.68 115.552 18.68C115.232 18.68 114.936 18.632 114.664 18.536C114.408 18.44 114.184 18.328 113.992 18.2C113.8 18.056 113.624 17.856 113.464 17.6C113.304 17.328 113.176 17.088 113.08 16.88C112.984 16.656 112.888 16.352 112.792 15.968C112.696 15.568 112.624 15.248 112.576 15.008C112.528 14.768 112.464 14.424 112.384 13.976C112.32 13.56 112.264 13.248 112.216 13.04C112.184 12.816 112.12 12.512 112.024 12.128C111.944 11.744 111.864 11.448 111.784 11.24C111.704 11.016 111.6 10.752 111.472 10.448C111.344 10.128 111.208 9.88002 111.064 9.70402C110.92 9.52802 110.744 9.33602 110.536 9.12802C110.328 8.92002 110.104 8.76002 109.864 8.64802C109.624 8.53602 109.344 8.44801 109.024 8.38402C108.72 8.30402 108.384 8.26402 108.016 8.26402H107.848V16.712C107.848 17.384 107.92 17.8 108.064 17.96C108.208 18.12 108.568 18.2 109.144 18.2H109.984V18.416H103.864ZM117.618 17.984H119.274C119.754 17.568 120.226 17.048 120.69 16.424C121.154 15.8 121.602 15.072 122.034 14.24C122.466 13.408 122.818 12.448 123.09 11.36C123.362 10.272 123.498 9.16002 123.498 8.02401V3.15201C123.498 2.32001 123.394 1.81601 123.186 1.64001C122.994 1.46401 122.474 1.37601 121.626 1.37601H121.098V1.16001H132.786V1.37601H131.922C131.362 1.37601 131.01 1.47201 130.866 1.66402C130.722 1.85601 130.65 2.25601 130.65 2.86402V17.984H132.786V22.448H131.922V19.904C131.922 19.296 131.842 18.896 131.682 18.704C131.538 18.512 131.186 18.416 130.626 18.416H119.778C119.218 18.416 118.858 18.512 118.698 18.704C118.554 18.896 118.482 19.296 118.482 19.904V22.448H117.618V17.984ZM121.938 17.984H128.778V1.59201H124.122V7.44802C124.122 9.68802 123.914 11.72 123.498 13.544C123.098 15.352 122.578 16.832 121.938 17.984ZM136.031 9.05602C136.031 9.15202 136.031 9.24802 136.031 9.34402C136.031 12.176 136.631 14.36 137.831 15.896C139.047 17.416 140.695 18.176 142.775 18.176C144.375 18.176 145.791 17.856 147.023 17.216C148.255 16.56 149.223 15.64 149.927 14.456L150.263 14.72C149.511 15.952 148.479 16.912 147.167 17.6C145.871 18.272 144.383 18.608 142.703 18.608C140.159 18.608 138.055 17.792 136.391 16.16C134.727 14.512 133.895 12.368 133.895 9.72802C133.895 7.10402 134.703 4.99201 136.319 3.39201C137.951 1.77601 140.095 0.968014 142.751 0.968014C144.895 0.968014 146.711 1.64801 148.199 3.00802C149.687 4.36801 150.431 6.11201 150.431 8.24002V8.36001C150.431 8.55202 150.359 8.72002 150.215 8.86401C150.071 8.99202 149.895 9.05602 149.687 9.05602H136.031ZM136.055 8.62402L148.103 8.45602C148.231 8.45602 148.295 8.38402 148.295 8.24002C148.295 6.19201 147.775 4.54401 146.735 3.29601C145.711 2.03201 144.351 1.40001 142.655 1.40001C140.607 1.40001 139.015 2.01601 137.879 3.24801C136.759 4.48002 136.151 6.27202 136.055 8.62402ZM151.438 18.416V18.2H151.822C152.414 18.2 152.798 18.088 152.974 17.864C153.166 17.64 153.278 17.184 153.31 16.496L153.958 2.64802C153.974 2.37602 153.982 2.20801 153.982 2.14401C153.982 1.85601 153.902 1.65601 153.742 1.54402C153.598 1.43201 153.278 1.37601 152.782 1.37601H151.822V1.16001H155.35L161.566 14.912C161.806 15.44 161.926 15.784 161.926 15.944H162.046C162.046 15.736 162.158 15.392 162.382 14.912L168.598 1.16001H172.198V1.37601H171.382C170.838 1.37601 170.478 1.45601 170.302 1.61601C170.126 1.77601 170.038 2.04801 170.038 2.43202C170.038 2.49601 170.046 2.71201 170.062 3.08001L170.614 16.496C170.646 17.2 170.75 17.664 170.926 17.888C171.102 18.096 171.51 18.2 172.15 18.2H172.678V18.416H166.414V18.2H167.278C167.886 18.2 168.286 18.128 168.478 17.984C168.67 17.84 168.766 17.608 168.766 17.288C168.766 17.24 168.758 17.192 168.742 17.144C168.742 17.096 168.742 17.048 168.742 17C168.742 16.936 168.742 16.888 168.742 16.856L168.262 4.20802C168.246 3.92002 168.238 3.56802 168.238 3.15201H168.094C168.094 3.21601 167.966 3.54401 167.71 4.13601L161.254 18.512L161.182 18.68H161.134L161.062 18.512L154.702 4.40001C154.526 4.01601 154.438 3.68001 154.438 3.39201H154.342C154.342 3.64802 154.334 3.92002 154.318 4.20802L153.718 16.808C153.702 17.144 153.694 17.328 153.694 17.36C153.694 17.664 153.79 17.88 153.982 18.008C154.174 18.136 154.582 18.2 155.206 18.2H156.07V18.416H151.438Z" fill="black"></path></svg> 