<?xml version="1.0" encoding="UTF-8"?> <svg xmlns="http://www.w3.org/2000/svg" width="137" height="24" viewBox="0 0 137 24" fill="none"><path d="M34.7109 3.01953C34.7109 2.73828 34.4245 2.59766 33.8516 2.59766C33.5078 2.59766 32.8047 3.06641 31.7422 4.00391L29.5391 5.95703C28.3828 6.96745 27.2109 8.05078 26.0234 9.20703C24.8464 10.3633 23.6328 11.6133 22.3828 12.957C22.0807 13.2695 21.6589 13.7383 21.1172 14.3633C21.2422 14.6654 21.3047 15.1445 21.3047 15.8008C21.3047 17.0091 21.112 18.1914 20.7266 19.3477C22.0911 17.5456 23.5859 15.6758 25.2109 13.7383C26.8359 11.8008 28.6172 9.77474 30.5547 7.66016C31.4401 6.74349 32.7318 5.3737 34.4297 3.55078C34.6172 3.33203 34.7109 3.15495 34.7109 3.01953ZM20.5547 14.1289C20.2422 13.5039 19.8203 13.1914 19.2891 13.1914C18.7995 13.1914 18.4193 13.5924 18.1484 14.3945C17.9609 14.9779 17.8672 15.5768 17.8672 16.1914C17.8672 16.2852 17.8672 16.3789 17.8672 16.4727C17.8672 16.5664 17.8724 16.6602 17.8828 16.7539C18.737 15.9622 19.6276 15.0872 20.5547 14.1289ZM20.8828 16.0508C20.8828 15.6029 20.8516 15.2279 20.7891 14.9258C20.7682 14.8841 20.7526 14.8216 20.7422 14.7383C20.3568 15.1549 19.9349 15.5924 19.4766 16.0508C19.0286 16.5091 18.5339 16.9987 17.9922 17.5195C18.0859 18.1341 18.2891 18.707 18.6016 19.2383C18.9974 19.8945 19.4401 20.2852 19.9297 20.4102C20.1693 20.0664 20.3984 19.3685 20.6172 18.3164C20.7005 17.8372 20.763 17.4102 20.8047 17.0352C20.8568 16.6602 20.8828 16.332 20.8828 16.0508ZM7.47656 23.1445C6.41406 23.1445 5.4401 23.0352 4.55469 22.8164C3.67969 22.5872 2.92448 22.2591 2.28906 21.832C1.66406 21.3945 1.17969 20.8737 0.835938 20.2695C0.492188 19.6549 0.320312 18.9674 0.320312 18.207C0.320312 17.7279 0.408854 17.2331 0.585938 16.7227C0.763021 16.2122 1.01302 15.7122 1.33594 15.2227C1.66927 14.7331 2.07552 14.2747 2.55469 13.8477C3.03385 13.4102 3.58073 13.0299 4.19531 12.707C4.82031 12.3841 5.5026 12.1341 6.24219 11.957C6.99219 11.7695 7.79948 11.6758 8.66406 11.6758C9.47656 11.6758 10.1693 11.7852 10.7422 12.0039C11.3151 12.2227 11.7839 12.5091 12.1484 12.8633C12.5234 13.207 12.7943 13.6029 12.9609 14.0508C13.1276 14.4987 13.2109 14.9518 13.2109 15.4102C13.2109 15.9414 13.0911 16.4883 12.8516 17.0508C12.6224 17.6133 12.2734 18.1289 11.8047 18.5977C11.3464 19.056 10.7682 19.431 10.0703 19.7227C9.3724 20.0143 8.5599 20.1602 7.63281 20.1602C7.32031 20.1602 7.01302 20.1341 6.71094 20.082C6.41927 20.0195 6.14844 19.9518 5.89844 19.8789C5.64844 19.806 5.42969 19.7331 5.24219 19.6602C5.05469 19.5872 4.90885 19.5352 4.80469 19.5039C4.80469 19.431 4.82552 19.3529 4.86719 19.2695C4.91927 19.1862 5.0026 19.1497 5.11719 19.1602C5.17969 19.1602 5.25781 19.1654 5.35156 19.1758C5.45573 19.1862 5.64323 19.1914 5.91406 19.1914C6.79948 19.1914 7.65365 19.1237 8.47656 18.9883C9.29948 18.8424 10.0286 18.6133 10.6641 18.3008C11.2995 17.9779 11.8099 17.5612 12.1953 17.0508C12.5807 16.5299 12.7734 15.8997 12.7734 15.1602C12.7734 14.7227 12.6745 14.3216 12.4766 13.957C12.2786 13.5924 12.0026 13.2799 11.6484 13.0195C11.2943 12.7591 10.8724 12.5612 10.3828 12.4258C9.89323 12.2799 9.36198 12.207 8.78906 12.207C8.34115 12.207 7.83073 12.2591 7.25781 12.3633C6.69531 12.4674 6.1224 12.6289 5.53906 12.8477C4.95573 13.056 4.38802 13.3268 3.83594 13.6602C3.28385 13.9831 2.78906 14.3633 2.35156 14.8008C1.91406 15.2383 1.5599 15.7383 1.28906 16.3008C1.02865 16.8633 0.898438 17.4831 0.898438 18.1602C0.888021 18.8477 1.02344 19.4362 1.30469 19.9258C1.58594 20.4049 1.9401 20.8112 2.36719 21.1445C2.80469 21.4674 3.28385 21.7279 3.80469 21.9258C4.33594 22.1133 4.85156 22.2591 5.35156 22.3633C5.85156 22.457 6.30469 22.5195 6.71094 22.5508C7.11719 22.5716 7.41406 22.582 7.60156 22.582C9.17448 22.582 10.8776 22.0143 12.7109 20.8789C13.8359 20.1914 15.2943 19.0664 17.0859 17.5039C17.0234 17.1602 16.9922 16.7904 16.9922 16.3945C16.9922 14.7174 17.4661 13.6133 18.4141 13.082C18.7161 12.9049 19.0078 12.8164 19.2891 12.8164C19.9661 12.8164 20.4922 13.1445 20.8672 13.8008C22.5859 11.9779 23.9453 10.5404 24.9453 9.48828C25.9453 8.4362 26.5807 7.77474 26.8516 7.50391C29.2057 5.17057 31.4297 3.3112 33.5234 1.92578C35.013 0.936198 36.0443 0.441406 36.6172 0.441406C36.9818 0.441406 37.1641 0.613281 37.1641 0.957031C37.1641 1.29036 36.8776 1.82161 36.3047 2.55078L28.1953 12.8164C27.7266 13.4206 26.9766 14.3945 25.9453 15.7383C24.9245 17.0716 23.6172 18.7956 22.0234 20.9102C22.9714 20.9102 23.9089 20.6445 24.8359 20.1133C25.7526 19.582 26.1536 19.3164 26.0391 19.3164C26.0807 19.3164 26.1276 19.332 26.1797 19.3633C26.1901 19.3737 26.1953 19.3841 26.1953 19.3945C26.1953 19.4049 26.2005 19.4206 26.2109 19.4414C26.2109 19.5039 26.1693 19.5768 26.0859 19.6602C24.9714 20.7227 23.7109 21.2539 22.3047 21.2539C22.1172 21.2539 21.9401 21.2383 21.7734 21.207L20.4609 22.9883L18.2266 23.0977V22.7539L19.7109 20.6914C18.4193 20.1289 17.5964 19.2956 17.2422 18.1914C16.6172 18.7539 15.9714 19.2852 15.3047 19.7852C14.6484 20.2852 13.9609 20.7591 13.2422 21.207C11.4818 22.3008 9.96615 22.9206 8.69531 23.0664C8.48698 23.0872 8.27865 23.1029 8.07031 23.1133C7.8724 23.1341 7.67448 23.1445 7.47656 23.1445ZM37.1641 16.2852C37.1641 16.4518 37.0495 16.6549 36.8203 16.8945L32.3047 21.8477C32.1172 22.0664 32.0234 22.2487 32.0234 22.3945C32.0234 22.5195 32.1016 22.582 32.2578 22.582C32.3203 22.582 32.4661 22.5508 32.6953 22.4883C32.8307 22.457 33.8776 21.6029 35.8359 19.9258C36.013 19.7591 36.2214 19.5768 36.4609 19.3789C36.5859 19.4102 36.6484 19.4727 36.6484 19.5664C36.638 19.5872 36.6224 19.6081 36.6016 19.6289C36.4245 19.8268 36.0703 20.1602 35.5391 20.6289C35.0703 21.0247 34.3776 21.6133 33.4609 22.3945C32.8984 22.8737 32.3307 23.1133 31.7578 23.1133C31.4453 23.1133 31.1901 22.9831 30.9922 22.7227C30.8047 22.4622 30.7109 22.1706 30.7109 21.8477C30.7109 21.5247 31.0599 20.9518 31.7578 20.1289C31.5391 20.056 31.2057 20.0195 30.7578 20.0195C30.2682 20.0195 29.8255 20.082 29.4297 20.207L27.2734 22.707C27.138 22.8633 26.987 22.9414 26.8203 22.9414L25.3047 23.0195C25.1484 23.0299 25.0703 22.9727 25.0703 22.8477C25.0703 22.7018 25.1953 22.4935 25.4453 22.2227L29.9297 17.2852C30.1068 17.0872 30.1953 16.9102 30.1953 16.7539C30.1953 16.6914 30.1745 16.6341 30.1328 16.582C30.0599 16.5508 29.9922 16.5352 29.9297 16.5352C29.5651 16.5352 28.8307 17.0508 27.7266 18.082C26.5807 19.1237 25.9661 19.6549 25.8828 19.6758C25.7682 19.6654 25.7109 19.6029 25.7109 19.4883C25.7109 19.4258 26.737 18.5039 28.7891 16.7227C29.3516 16.2331 29.9089 15.9883 30.4609 15.9883C30.7734 15.9883 31.0339 16.1289 31.2422 16.4102C31.4193 16.6706 31.5078 16.9622 31.5078 17.2852C31.5078 17.6289 31.3776 17.9518 31.1172 18.2539L30.0234 19.5195H30.1953C31.1849 19.5195 31.9349 19.457 32.4453 19.332L34.9453 16.4258C35.0807 16.2695 35.2422 16.1862 35.4297 16.1758L36.9453 16.0977C37.0911 16.0977 37.1641 16.1602 37.1641 16.2852ZM52.3672 6.22266C52.3672 6.33724 52.3516 6.45182 52.3203 6.56641C52.0182 7.69141 51.2786 8.77995 50.1016 9.83203C49.7266 10.1654 48.6484 10.9622 46.8672 12.2227C46.513 12.4831 46.1797 12.7122 45.8672 12.9102C45.3776 13.2227 44.8568 13.5716 44.3047 13.957L42.6484 16.0508C43.9193 15.1966 44.9609 14.7695 45.7734 14.7695C46.5651 14.7695 46.9609 15.1549 46.9609 15.9258C46.9609 16.1133 46.9245 16.2904 46.8516 16.457C46.5495 17.0924 46.0391 17.5456 45.3203 17.8164C45.1016 17.8997 44.4193 18.0508 43.2734 18.2695C43.7214 18.6237 43.9453 18.9362 43.9453 19.207C43.9453 19.957 43.737 20.5143 43.3203 20.8789C42.6953 21.4414 42.3151 21.8529 42.1797 22.1133C42.1172 22.2174 42.0859 22.2956 42.0859 22.3477C42.0859 22.4727 42.1693 22.5352 42.3359 22.5352C42.6589 22.5352 43.4297 22.0143 44.6484 20.9727C45.8776 19.9206 46.5339 19.3945 46.6172 19.3945C46.7109 19.3945 46.7578 19.4518 46.7578 19.5664C46.7578 19.6081 46.7318 19.6497 46.6797 19.6914C46.3568 19.9935 45.8464 20.4414 45.1484 21.0352C44.6589 21.4831 43.888 22.0872 42.8359 22.8477C42.5651 23.0039 42.2786 23.082 41.9766 23.082C41.1745 23.082 40.7734 22.6497 40.7734 21.7852C40.7734 21.3685 41.0964 20.8372 41.7422 20.1914C42.3984 19.5352 42.7266 19.0977 42.7266 18.8789C42.7266 18.6289 42.5911 18.5039 42.3203 18.5039C41.9141 18.5039 41.5859 18.582 41.3359 18.7383C41.3359 18.7799 41.3411 18.8477 41.3516 18.9414C41.3724 19.0247 41.3828 19.0924 41.3828 19.1445C41.3828 19.4154 41.2214 19.5508 40.8984 19.5508C40.5339 19.5508 40.3255 19.3581 40.2734 18.9727C39.7109 19.6497 38.8932 20.6758 37.8203 22.0508C37.6953 22.2695 37.4922 22.556 37.2109 22.9102C37.1068 23.0143 36.6693 23.0664 35.8984 23.0664C35.4193 23.0664 35.1797 22.9206 35.1797 22.6289C35.1797 22.5143 35.237 22.3893 35.3516 22.2539C35.9141 21.6706 36.737 20.7695 37.8203 19.5508C38.2682 18.9674 38.9714 18.1185 39.9297 17.0039C37.638 18.8164 36.4818 19.7227 36.4609 19.7227C36.3464 19.7227 36.2891 19.6602 36.2891 19.5352C36.2891 19.4935 36.3099 19.4518 36.3516 19.4102C37.3099 18.7018 38.7266 17.6133 40.6016 16.1445C40.7786 15.9154 41.0339 15.5924 41.3672 15.1758C41.4089 15.1341 42.9714 13.2747 46.0547 9.59766C46.9505 8.52474 47.6641 7.72786 48.1953 7.20703C49.1328 6.27995 49.9818 5.66536 50.7422 5.36328C51.1589 5.1862 51.4714 5.09766 51.6797 5.09766C52.138 5.09766 52.3672 5.47266 52.3672 6.22266ZM52.0078 5.89453C52.0078 5.70703 51.9036 5.61328 51.6953 5.61328C51.2578 5.61328 50.6276 5.99349 49.8047 6.75391C49.638 6.91016 49.1328 7.51432 48.2891 8.56641C47.5078 9.62891 46.3099 11.207 44.6953 13.3008C48.1536 10.9883 50.3203 9.14453 51.1953 7.76953C51.3099 7.59245 51.4036 7.45182 51.4766 7.34766C51.8307 6.85807 52.0078 6.3737 52.0078 5.89453ZM45.3203 15.5508C45.3203 15.3945 45.1953 15.3164 44.9453 15.3164C44.7786 15.3164 44.263 15.6185 43.3984 16.2227C42.5859 16.7747 41.7682 17.5247 40.9453 18.4727C41.2682 18.2643 41.5859 18.1393 41.8984 18.0977C42.4922 18.0247 42.8151 17.9831 42.8672 17.9727C43.3047 17.8685 43.7578 17.6081 44.2266 17.1914C44.7057 16.7747 45.0443 16.3529 45.2422 15.9258C45.2943 15.832 45.3203 15.707 45.3203 15.5508ZM55.3672 17.1602C55.3672 18.5247 53.3828 19.6706 49.4141 20.5977C48.7266 21.306 48.3828 21.8685 48.3828 22.2852C48.3828 22.6602 48.5599 22.8477 48.9141 22.8477C49.6745 22.8477 50.6953 22.3841 51.9766 21.457C53.7161 20.1966 54.6693 19.5247 54.8359 19.4414C54.9505 19.4727 55.0078 19.5352 55.0078 19.6289C55.0078 19.6914 54.5599 20.0299 53.6641 20.6445C52.6224 21.3633 52.1016 21.7227 52.1016 21.7227C50.9141 22.6497 49.8516 23.1133 48.9141 23.1133C47.8932 23.1133 47.3828 22.6081 47.3828 21.5977C47.3828 20.2122 48.4297 18.7747 50.5234 17.2852C49.6693 17.8268 48.3932 18.6393 46.6953 19.7227L46.5859 19.7695C46.4922 19.7591 46.4453 19.7018 46.4453 19.5977C46.4453 19.5456 46.4609 19.4935 46.4922 19.4414C48.1901 18.2018 49.8203 17.2695 51.3828 16.6445C51.5703 16.582 51.8464 16.4831 52.2109 16.3477C53.1276 15.9727 53.7995 15.7852 54.2266 15.7852C54.987 15.7852 55.3672 16.2435 55.3672 17.1602ZM54.6328 16.6133C54.6328 16.2695 54.4818 16.0977 54.1797 16.0977C53.638 16.0977 52.1745 17.4362 49.7891 20.1133C50.0495 20.1133 50.4297 19.9935 50.9297 19.7539L51.9609 19.2383C52.4609 18.9987 52.9974 18.6289 53.5703 18.1289C54.2786 17.5039 54.6328 16.9987 54.6328 16.6133ZM69.6016 19.582C69.6016 19.6341 69.5755 19.681 69.5234 19.7227L66.4609 22.332C65.9089 22.8112 65.3776 23.0508 64.8672 23.0508C64.0964 23.0508 63.7109 22.6185 63.7109 21.7539C63.7109 21.3997 63.8568 21.0716 64.1484 20.7695L67.4297 17.2852C67.6068 17.0977 67.6953 16.9206 67.6953 16.7539C67.6953 16.6185 67.5964 16.5508 67.3984 16.5508C66.9922 16.5508 65.7578 17.5039 63.6953 19.4102C63.2786 19.7852 62.237 20.8997 60.5703 22.7539C60.4245 22.9206 60.2734 23.0039 60.1172 23.0039L58.6016 23.0508C58.4557 23.0508 58.3828 22.9935 58.3828 22.8789C58.3828 22.7227 58.4974 22.5195 58.7266 22.2695L63.2266 17.3477C63.4036 17.1602 63.4922 16.9831 63.4922 16.8164C63.4922 16.681 63.4349 16.6133 63.3203 16.6133C63.2057 16.6133 63.0495 16.6445 62.8516 16.707C62.7682 16.7383 61.6641 17.6133 59.5391 19.332C59.0391 19.7383 58.4818 20.2904 57.8672 20.9883C57.3568 21.5716 56.8464 22.1602 56.3359 22.7539C56.2005 22.9102 56.0443 22.9935 55.8672 23.0039L54.3672 23.0508C54.2422 23.0508 54.1797 23.0039 54.1797 22.9102C54.1797 22.7956 54.2266 22.6758 54.3203 22.5508C54.4141 22.4258 54.4714 22.332 54.4922 22.2695L58.9766 17.3477C59.1536 17.1497 59.2422 16.9727 59.2422 16.8164C59.2422 16.6706 59.1536 16.5977 58.9766 16.5977C58.6432 16.5977 57.8828 17.1237 56.6953 18.1758C55.5182 19.2279 54.8828 19.7539 54.7891 19.7539C54.6849 19.7122 54.6328 19.6602 54.6328 19.5977C54.6328 19.5456 54.6589 19.4987 54.7109 19.457L57.8359 16.7852C58.4089 16.2852 58.9401 16.0352 59.4297 16.0352C60.1901 16.0352 60.5703 16.4727 60.5703 17.3477C60.5703 17.7435 60.3932 18.1185 60.0391 18.4727L62.0859 16.7852C62.6797 16.2852 63.2057 16.0352 63.6641 16.0352C64.4349 16.0352 64.8203 16.4727 64.8203 17.3477C64.8203 17.6393 64.7109 17.931 64.4922 18.2227L66.2734 16.7383C66.8672 16.2383 67.3984 15.9883 67.8672 15.9883C68.5964 15.9883 68.9609 16.4727 68.9609 17.4414C68.9609 17.7643 68.8464 18.0456 68.6172 18.2852L65.2891 21.7695C65.1224 21.957 65.0391 22.1393 65.0391 22.3164C65.0391 22.4206 65.1068 22.4727 65.2422 22.4727C65.6068 22.4727 66.138 22.1758 66.8359 21.582L69.3047 19.457C69.3359 19.4258 69.3724 19.4102 69.4141 19.4102C69.5391 19.4102 69.6016 19.4674 69.6016 19.582ZM79.9922 16.2539C79.9922 16.4206 79.8828 16.6289 79.6641 16.8789L75.1484 21.8164C74.9714 22.0143 74.8828 22.1914 74.8828 22.3477C74.8828 22.4935 74.9714 22.5664 75.1484 22.5664C75.5026 22.5664 76.2682 22.0404 77.4453 20.9883C78.6328 19.9258 79.2526 19.3945 79.3047 19.3945C79.3568 19.3945 79.4036 19.4206 79.4453 19.4727C79.4557 19.4935 79.4661 19.5299 79.4766 19.582C79.4766 19.6341 79.4609 19.6758 79.4297 19.707L76.3047 22.3789C75.7526 22.8581 75.2266 23.0977 74.7266 23.0977C73.9661 23.0977 73.5859 22.681 73.5859 21.8477C73.5859 21.7539 73.5964 21.6549 73.6172 21.5508C73.2839 21.8841 72.8047 22.2279 72.1797 22.582C71.4714 22.9883 70.9349 23.1914 70.5703 23.1914C69.7995 23.1914 69.4141 22.8112 69.4141 22.0508C69.4141 20.7591 70.3984 19.3685 72.3672 17.8789C71.4922 18.4622 70.5339 19.0716 69.4922 19.707C69.388 19.6654 69.3359 19.6029 69.3359 19.5195C69.3359 19.4779 69.362 19.4362 69.4141 19.3945C70.1953 18.7591 71.2943 18.0664 72.7109 17.3164C74.3151 16.4727 75.4661 16.0508 76.1641 16.0508C76.737 16.0508 77.0234 16.2956 77.0234 16.7852C77.0234 16.8477 77.0026 16.9466 76.9609 17.082C76.9193 17.207 76.8984 17.306 76.8984 17.3789L76.8828 17.5195H76.8984L76.9922 17.4727C77.2734 17.1497 77.5547 16.8268 77.8359 16.5039C78.0651 16.2956 78.4453 16.1758 78.9766 16.1445C79.5911 16.1029 79.862 16.082 79.7891 16.082C79.9245 16.082 79.9922 16.1393 79.9922 16.2539ZM76.6172 16.6758C76.6172 16.5404 76.5443 16.4727 76.3984 16.4727C75.9193 16.4727 74.7995 17.431 73.0391 19.3477C71.3307 21.2122 70.4766 22.3008 70.4766 22.6133C70.4766 22.7695 70.5807 22.8477 70.7891 22.8477C70.9974 22.8477 71.388 22.6758 71.9609 22.332C72.9193 21.7383 73.7266 21.0716 74.3828 20.332C74.8724 19.832 75.5234 19.0299 76.3359 17.9258C76.5234 17.582 76.6172 17.1654 76.6172 16.6758ZM95.7109 19.5664C95.7109 19.6289 95.6901 19.6758 95.6484 19.707L92.5391 22.332C91.9766 22.8112 91.3672 23.0508 90.7109 23.0508C89.8359 23.0508 89.3984 22.6393 89.3984 21.8164C89.3984 21.0768 90.1849 20.2122 91.7578 19.2227C93.3411 18.2331 94.1328 17.4831 94.1328 16.9727C94.1328 16.7018 94.0443 16.5664 93.8672 16.5664C93.7526 16.5664 93.5911 16.5977 93.3828 16.6602C93.0495 16.7539 91.9661 17.5768 90.1328 19.1289C89.9453 19.2956 89.7005 19.4831 89.3984 19.6914C89.3047 19.6185 89.2578 19.5508 89.2578 19.4883C89.2578 19.4466 89.2786 19.4102 89.3203 19.3789L92.6172 16.7227C93.2318 16.2331 93.7526 15.9883 94.1797 15.9883C95.138 15.9883 95.6172 16.4987 95.6172 17.5195C95.6172 18.0924 95.0339 18.6758 93.8672 19.2695C93.2839 19.5612 92.7057 19.9466 92.1328 20.4258C91.362 21.0612 90.9766 21.5872 90.9766 22.0039C90.9766 22.2956 91.1172 22.4414 91.3984 22.4414C91.513 22.4414 91.638 22.4258 91.7734 22.3945C91.9505 22.3529 92.6224 21.8372 93.7891 20.8477C94.9245 19.8685 95.5078 19.3789 95.5391 19.3789C95.6536 19.3789 95.7109 19.4414 95.7109 19.5664ZM103.43 19.5195C103.43 19.6862 103.055 20.0143 102.305 20.5039C102.065 20.6602 101.768 20.7383 101.414 20.7383C99.7161 22.3841 98.2891 23.207 97.1328 23.207C96.0911 23.207 95.5703 22.7279 95.5703 21.7695C95.5703 20.4883 96.5026 19.0977 98.3672 17.5977C97.8672 17.8685 97.5026 18.082 97.2734 18.2383C96.8255 18.6862 96.2839 19.1758 95.6484 19.707C95.5651 19.6654 95.5234 19.6081 95.5234 19.5352C95.5234 19.3893 95.8464 19.0404 96.4922 18.4883C97.3151 17.7695 98.5755 17.056 100.273 16.3477C101.294 15.931 101.966 15.7227 102.289 15.7227C102.987 15.7227 103.336 15.9622 103.336 16.4414C103.336 16.3268 103.273 16.6237 103.148 17.332C103.18 17.4154 103.195 17.5091 103.195 17.6133C103.195 18.3424 102.732 19.1602 101.805 20.0664C101.753 20.1185 101.716 20.1654 101.695 20.207L101.742 20.2539C101.992 20.2539 102.279 20.1081 102.602 19.8164C102.935 19.5247 103.148 19.3789 103.242 19.3789C103.367 19.3789 103.43 19.4258 103.43 19.5195ZM102.82 16.6133C102.82 16.2904 102.669 16.1289 102.367 16.1289C101.961 16.1289 100.904 17.0195 99.1953 18.8008C97.4974 20.5716 96.6484 21.7122 96.6484 22.2227C96.6484 22.6289 96.8411 22.832 97.2266 22.832C97.6016 22.832 97.9974 22.7279 98.4141 22.5195C98.7995 22.3216 99.2578 22.0352 99.7891 21.6602C100.487 21.181 100.841 20.8424 100.852 20.6445C100.602 20.6445 100.477 20.457 100.477 20.082C100.477 19.5508 100.721 18.9414 101.211 18.2539C101.721 17.5247 102.232 17.1341 102.742 17.082C102.794 16.9674 102.82 16.8112 102.82 16.6133ZM111.633 16.9414C111.633 17.3997 111.529 17.8112 111.32 18.1758C111.06 18.5924 110.716 18.8008 110.289 18.8008C109.727 18.8008 109.445 18.5143 109.445 17.9414C109.445 17.1393 109.81 16.5247 110.539 16.0977C110.456 16.1289 110.341 16.181 110.195 16.2539C109.768 16.4831 108.904 17.2904 107.602 18.6758C106.393 19.957 105.57 20.9049 105.133 21.5195C104.935 21.7904 104.836 22.0195 104.836 22.207C104.836 22.5299 105.029 22.6914 105.414 22.6914C106.341 22.6914 107.534 22.1549 108.992 21.082C110.451 19.9987 111.174 19.457 111.164 19.457C111.206 19.457 111.253 19.4727 111.305 19.5039L111.352 19.6289C111.341 19.6289 110.919 19.9935 110.086 20.7227C108.253 22.3164 106.747 23.1133 105.57 23.1133C104.331 23.1133 103.711 22.6393 103.711 21.6914C103.711 20.4831 104.68 19.082 106.617 17.4883C106.169 17.7279 105.617 18.1133 104.961 18.6445C104.076 19.3424 103.544 19.6914 103.367 19.6914C103.253 19.6914 103.195 19.6341 103.195 19.5195C103.195 19.4674 103.232 19.4206 103.305 19.3789C104.711 18.3268 105.711 17.6237 106.305 17.2695C107.305 16.6758 108.451 16.1862 109.742 15.8008C109.951 15.7383 110.133 15.707 110.289 15.707C110.654 15.707 110.966 15.8216 111.227 16.0508C111.497 16.2799 111.633 16.5768 111.633 16.9414ZM126.102 19.582C126.102 19.6341 126.076 19.681 126.023 19.7227L122.961 22.332C122.409 22.8112 121.878 23.0508 121.367 23.0508C120.596 23.0508 120.211 22.6185 120.211 21.7539C120.211 21.3997 120.357 21.0716 120.648 20.7695L123.93 17.2852C124.107 17.0977 124.195 16.9206 124.195 16.7539C124.195 16.6185 124.096 16.5508 123.898 16.5508C123.492 16.5508 122.258 17.5039 120.195 19.4102C119.779 19.7852 118.737 20.8997 117.07 22.7539C116.924 22.9206 116.773 23.0039 116.617 23.0039L115.102 23.0508C114.956 23.0508 114.883 22.9935 114.883 22.8789C114.883 22.7227 114.997 22.5195 115.227 22.2695L119.727 17.3477C119.904 17.1602 119.992 16.9831 119.992 16.8164C119.992 16.681 119.935 16.6133 119.82 16.6133C119.706 16.6133 119.549 16.6445 119.352 16.707C119.268 16.7383 118.164 17.6133 116.039 19.332C115.539 19.7383 114.982 20.2904 114.367 20.9883C113.857 21.5716 113.346 22.1602 112.836 22.7539C112.701 22.9102 112.544 22.9935 112.367 23.0039L110.867 23.0508C110.742 23.0508 110.68 23.0039 110.68 22.9102C110.68 22.7956 110.727 22.6758 110.82 22.5508C110.914 22.4258 110.971 22.332 110.992 22.2695L115.477 17.3477C115.654 17.1497 115.742 16.9727 115.742 16.8164C115.742 16.6706 115.654 16.5977 115.477 16.5977C115.143 16.5977 114.383 17.1237 113.195 18.1758C112.018 19.2279 111.383 19.7539 111.289 19.7539C111.185 19.7122 111.133 19.6602 111.133 19.5977C111.133 19.5456 111.159 19.4987 111.211 19.457L114.336 16.7852C114.909 16.2852 115.44 16.0352 115.93 16.0352C116.69 16.0352 117.07 16.4727 117.07 17.3477C117.07 17.7435 116.893 18.1185 116.539 18.4727L118.586 16.7852C119.18 16.2852 119.706 16.0352 120.164 16.0352C120.935 16.0352 121.32 16.4727 121.32 17.3477C121.32 17.6393 121.211 17.931 120.992 18.2227L122.773 16.7383C123.367 16.2383 123.898 15.9883 124.367 15.9883C125.096 15.9883 125.461 16.4727 125.461 17.4414C125.461 17.7643 125.346 18.0456 125.117 18.2852L121.789 21.7695C121.622 21.957 121.539 22.1393 121.539 22.3164C121.539 22.4206 121.607 22.4727 121.742 22.4727C122.107 22.4727 122.638 22.1758 123.336 21.582L125.805 19.457C125.836 19.4258 125.872 19.4102 125.914 19.4102C126.039 19.4102 126.102 19.4674 126.102 19.582ZM136.68 16.1758C136.68 16.3633 136.576 16.5716 136.367 16.8008L131.867 21.7383C131.68 21.9362 131.586 22.1185 131.586 22.2852C131.586 22.4206 131.664 22.4883 131.82 22.4883C132.216 22.4883 132.997 21.9674 134.164 20.9258C135.331 19.8841 135.961 19.3581 136.055 19.3477C136.169 19.3581 136.227 19.4206 136.227 19.5352C136.227 19.5768 136.201 19.6185 136.148 19.6602L133.008 22.2852C132.414 22.7956 131.888 23.0508 131.43 23.0508C131.086 23.0508 130.805 22.9102 130.586 22.6289C130.378 22.3789 130.273 22.0768 130.273 21.7227C130.273 21.3893 130.602 20.8424 131.258 20.082C131.154 20.1133 130.852 20.1289 130.352 20.1289C130.018 20.1289 129.664 20.2747 129.289 20.5664C128.914 20.8477 128.643 21.1497 128.477 21.4727C128.247 21.8789 127.914 22.2539 127.477 22.5977C126.987 22.9727 126.534 23.1602 126.117 23.1602C125.305 23.1602 124.898 22.8164 124.898 22.1289C124.898 21.3893 125.185 21.0195 125.758 21.0195C126.237 21.0195 126.477 21.2435 126.477 21.6914C126.477 22.1497 126.237 22.3789 125.758 22.3789C125.581 22.3789 125.43 22.3112 125.305 22.1758V22.2383C125.305 22.6654 125.586 22.8789 126.148 22.8789C126.482 22.8789 126.951 22.4831 127.555 21.6914C128.211 20.8164 128.924 20.2747 129.695 20.0664C129.695 20.0143 129.565 19.8581 129.305 19.5977C129.044 19.3268 128.914 19.0404 128.914 18.7383C128.914 17.9987 129.19 17.332 129.742 16.7383C130.305 16.1445 130.956 15.8477 131.695 15.8477C132.935 15.8477 133.586 16.3424 133.648 17.332C134.305 16.582 134.69 16.181 134.805 16.1289C134.93 16.0664 135.497 16.0352 136.508 16.0352C136.622 16.0352 136.68 16.082 136.68 16.1758ZM133.227 17.2695C133.227 16.7383 133.023 16.4727 132.617 16.4727C132.253 16.4727 131.747 16.8424 131.102 17.582C130.456 18.3112 130.133 18.8841 130.133 19.3008C130.133 19.6549 130.32 19.832 130.695 19.832C130.914 19.832 131.294 19.7018 131.836 19.4414L133.148 17.9102C133.201 17.7122 133.227 17.4987 133.227 17.2695Z" fill="#28682E"></path></svg> 