<?xml version="1.0" encoding="UTF-8"?> <svg xmlns="http://www.w3.org/2000/svg" width="275" height="61" viewBox="0 0 275 61" fill="none"><path d="M91.2469 60.5527C92.1169 60.586 92.8485 60.4748 93.5604 60.2031L93.9149 60.0537L93.9169 60.0527L94.1034 59.958C95.051 59.4448 96.1968 58.3986 97.3348 57.0654C98.399 55.8189 99.4631 54.3136 100.359 52.7402L100.732 52.0615L101.396 50.8096C101.604 50.4241 101.795 50.0765 101.957 49.7842C102.119 49.492 102.253 49.2549 102.349 49.0918C102.396 49.0101 102.435 48.9479 102.462 48.9062C102.463 48.905 102.463 48.9035 102.464 48.9023C102.473 48.9055 102.484 48.9081 102.495 48.9121C102.552 48.9328 102.634 48.9641 102.736 49.0039C102.941 49.0835 103.23 49.1981 103.582 49.3398C104.285 49.6235 105.238 50.0138 106.271 50.4395L107.227 50.833C117.142 54.846 128.037 57.0468 138.097 57.0469C149.269 57.0469 155.626 55.4806 173.057 48.418H173.057C189.765 41.6784 198.131 39.304 210.627 37.8506L211.132 37.7959C216.599 37.2554 229.66 37.3758 235.834 38.0283L237.804 38.251C247.805 39.4521 260.046 41.9024 270.063 44.6953L271.167 44.9932C272.185 45.257 272.944 45.4188 273.441 45.4795C273.607 45.4997 273.748 45.509 273.859 45.5068C273.967 45.5047 274.062 45.4908 274.13 45.4561C274.165 45.4378 274.201 45.4103 274.222 45.3682C274.243 45.3245 274.243 45.2782 274.232 45.2373C274.212 45.1632 274.152 45.0907 274.079 45.0225L274.078 45.0234C274.055 45.002 274.024 44.9843 273.997 44.9717C273.965 44.9565 273.923 44.9402 273.875 44.9219C273.778 44.885 273.644 44.8394 273.479 44.7871C273.149 44.6823 272.687 44.5475 272.125 44.3896C271 44.0739 269.47 43.6664 267.772 43.2295C265.226 42.5741 262.304 41.8511 259.813 41.2686L257.497 40.7402C244.734 37.9359 233.537 36.6221 222.161 36.6221C205.264 36.6221 195.159 38.7571 174.644 46.8936L172.626 47.7002C158.931 53.221 152.823 55.0902 144.872 55.9736L143.255 56.1377C134.228 56.9954 121.084 54.9939 110.595 51.1943L109.589 50.8213C107.451 50.0055 105.028 49.0844 104.172 48.7646L104.173 48.7637C103.621 48.551 103.27 48.37 103.08 48.2012C102.986 48.118 102.938 48.0433 102.92 47.9766C102.906 47.9282 102.906 47.8775 102.923 47.8213L102.944 47.7627L102.947 47.7568L103.492 46.1797C103.777 45.3406 104.142 44.2578 104.516 43.1406L104.812 42.2402C107.813 32.9562 108.853 24.3179 108.057 17.3955C107.236 10.2529 104.457 4.91595 99.8339 2.60547H99.8329C92.7283 -0.913783 84.3986 2.77112 82.494 10.1934L82.4081 10.5498L82.0721 12.04L80.4901 9.31543L80.4891 9.31445C78.3633 5.68601 75.9465 3.11568 73.3778 1.69824C70.9668 0.367844 68.4254 0.0554435 65.8768 0.833984L65.3671 1.00391C63.5019 1.67924 61.894 3.27049 61.1346 5.18555L60.994 5.57324C60.5962 6.77983 60.4629 8.81715 60.5565 10.9043C60.6503 12.9934 60.9725 15.152 61.494 16.6025L61.6864 17.1211C63.7385 22.5047 67.5434 28.5141 72.4169 34.0205L73.6024 35.3789C73.968 35.7994 74.2979 36.1821 74.576 36.5078C74.8541 36.8334 75.0797 37.1016 75.2352 37.2949C75.3127 37.3913 75.3723 37.4682 75.412 37.5234C75.3728 37.5336 75.3228 37.5467 75.2616 37.5596C75.0874 37.5962 74.8339 37.6415 74.5204 37.6924C73.8937 37.7942 73.0304 37.9179 72.0868 38.042V38.043C65.3217 38.8768 60.6265 40.6495 54.1854 44.791L52.8729 45.6514C43.8951 51.6818 40.5281 53.1941 35.1757 53.5117H35.1747C32.5085 53.6969 30.3039 53.4243 24.0155 51.998L21.0575 51.3145C17.6277 50.4963 16.1587 50.3535 12.1259 50.3535C9.68032 50.3535 7.15386 50.5401 5.14441 50.8291C4.14004 50.9736 3.26252 51.144 2.58777 51.3301C2.25047 51.4231 1.96173 51.5209 1.7323 51.6221C1.5053 51.7221 1.32643 51.8297 1.21863 51.9473L1.21765 51.9482C1.18049 51.9899 1.1492 52.0292 1.12488 52.0654C1.10118 52.1008 1.08075 52.1396 1.07117 52.1787C1.06117 52.2196 1.06159 52.2701 1.09363 52.3154C1.12351 52.3577 1.16807 52.3773 1.20593 52.3867C1.27975 52.4051 1.38403 52.4004 1.50671 52.3838C1.63353 52.3666 1.7952 52.3346 1.99207 52.29H1.99109C6.44232 51.4037 9.49789 50.9801 12.6444 51.0508C15.792 51.1215 19.0359 51.6865 23.8632 52.7861L25.326 53.1074C32.4317 54.6146 36.5193 54.6989 40.4852 53.4941H40.4862L41.121 53.29C44.1894 52.2804 45.825 51.349 52.3065 47.0244L53.08 46.5117C60.9931 41.3214 66.5398 39.2161 73.2841 38.7021H73.2831L76.163 38.4932L78.9843 40.9141L79.5751 41.4141C82.4903 43.8548 84.8364 45.3843 86.621 45.9893C87.5732 46.312 88.3777 46.3755 89.0272 46.1621C89.6813 45.9472 90.162 45.4569 90.4735 44.709H90.4725C90.7213 44.1427 90.847 43.7776 90.828 43.4014C90.809 43.0273 90.6476 42.6535 90.3641 42.0713L90.3632 42.0703C89.7943 40.9377 88.4926 39.9855 86.6444 39.2637C84.7928 38.5405 82.3771 38.0435 79.5555 37.8301L79.5565 37.8291L76.6024 37.584L73.7792 34.3145C68.8479 28.6954 65.2997 23.408 63.2294 18.6924C61.2231 14.1227 60.6088 10.0997 61.455 6.83301L61.5409 6.51953L61.6425 6.19531C62.179 4.59943 63.1479 3.35857 64.4344 2.54004C65.8072 1.66663 67.5482 1.27058 69.5253 1.44629L69.9266 1.49023C74.0477 2.02975 77.5245 5.13881 80.3485 10.8994L80.6932 11.5996C81.0336 12.2791 81.3562 12.8875 81.621 13.3613C81.7974 13.677 81.9488 13.9345 82.0634 14.1133C82.1204 14.2023 82.1696 14.2741 82.2089 14.3242C82.2282 14.3489 82.2476 14.3708 82.2655 14.3877C82.2743 14.396 82.2852 14.4053 82.2977 14.4131C82.3043 14.4172 82.3165 14.4233 82.3319 14.4277L82.3641 14.4336C82.3954 14.435 82.422 14.4236 82.4403 14.4111C82.4625 14.396 82.4788 14.3759 82.4901 14.3594C82.5133 14.3253 82.5351 14.2783 82.5546 14.2266C82.5942 14.1211 82.636 13.9685 82.6786 13.7832C82.7428 13.504 82.8096 13.1429 82.869 12.7393L82.9257 12.3232V12.3223L82.9706 11.9775C84.01 4.78848 91.4419 0.262118 98.2206 2.78809L98.579 2.93359C102.258 4.51505 105.232 8.4495 106.677 13.8623C107.598 17.3932 107.689 22.4882 107.066 28C106.482 33.166 105.273 38.6901 103.541 43.6221L103.187 44.5996C102.893 45.3809 102.673 45.9668 102.492 46.4033C102.31 46.8417 102.171 47.1203 102.039 47.293C101.912 47.4599 101.797 47.5204 101.662 47.5342C101.513 47.5492 101.331 47.5096 101.058 47.4463H101.056C99.8174 47.1962 97.8774 47.0453 96.0624 47.0098C95.1541 46.992 94.2746 47.0026 93.5282 47.0449C92.7843 47.0871 92.1647 47.1608 91.7792 47.2705V47.2715C88.4596 48.1704 86.1475 51.1524 86.1473 54.4629C86.1473 56.2342 86.5694 57.6778 87.3661 58.7158C88.1642 59.7556 89.3312 60.3791 90.7987 60.5234H90.7997L91.2469 60.5527ZM88.8202 45.3906C88.5492 45.4724 88.1864 45.4589 87.578 45.3877L87.579 45.3867C87.1932 45.3355 86.6897 45.1635 86.0995 44.8848C85.5105 44.6066 84.8407 44.2247 84.1239 43.7607C82.6904 42.8327 81.0733 41.5769 79.5448 40.1611H79.5438L77.7968 38.5801L80.1825 38.7383L80.7762 38.792C82.2342 38.95 84.1483 39.3212 85.326 39.6914H85.328L85.9188 39.8838C87.2507 40.3465 88.249 40.9142 88.9208 41.583C89.5778 42.2372 89.9229 42.7423 90.0106 43.2246C90.0971 43.7006 89.9362 44.1787 89.5145 44.791V44.792C89.27 45.1395 89.0814 45.3118 88.8202 45.3906ZM91.202 59.7568C90.2543 59.7393 89.5005 59.5296 88.8798 59.0918C88.2582 58.6534 87.7599 57.979 87.3368 57.0137V57.0127C85.7634 53.4965 87.8524 49.5768 92.0526 48.1357H92.0536L92.453 48.0039C94.4601 47.3859 96.6244 47.3236 98.9481 47.8193L99.8934 48.0361C100.162 48.1028 100.387 48.1666 100.57 48.2354C100.939 48.3736 101.111 48.5201 101.167 48.7158C101.225 48.9227 101.166 49.2189 100.967 49.6885C100.868 49.9206 100.739 50.1888 100.581 50.501L100.021 51.5781C98.5809 54.3404 97.1257 56.3962 95.6542 57.7559C94.1836 59.1146 92.7015 59.7742 91.202 59.7568Z" fill="#372821" stroke="#372821" stroke-width="0.2"></path></svg> 