<?xml version="1.0" encoding="UTF-8"?> <svg xmlns="http://www.w3.org/2000/svg" width="47" height="17" viewBox="0 0 47 17" fill="none"><path d="M13.5938 2.22266C13.5938 2.23307 13.5885 2.25911 13.5781 2.30078C10.4635 5.76953 7.00521 9.9987 3.20312 14.9883L2.90625 15.1602C2.38542 15.181 1.875 15.1914 1.375 15.1914C0.947917 15.1914 0.734375 15.1237 0.734375 14.9883C0.734375 14.8945 0.770833 14.8008 0.84375 14.707C1.15625 14.3424 1.625 13.8008 2.25 13.082C4.5 10.4883 6.94792 7.82682 9.59375 5.09766C5.78125 7.51432 3.86458 8.72266 3.84375 8.72266C3.71875 8.72266 3.65625 8.66016 3.65625 8.53516C3.65625 8.48307 3.6875 8.4362 3.75 8.39453C4.27083 8.04036 5.98438 6.89974 8.89062 4.97266C11.8594 3.01432 13.3594 2.03516 13.3906 2.03516C13.526 2.03516 13.5938 2.09766 13.5938 2.22266ZM24.4062 0.738281C24.4062 0.790365 24.375 0.832031 24.3125 0.863281C22.1875 1.80078 20.349 2.86849 18.7969 4.06641C17.1927 5.30599 15.6875 6.82161 14.2812 8.61328C12.5521 10.8112 11.6875 12.4258 11.6875 13.457C11.6875 14.3216 12.0625 14.7539 12.8125 14.7539C13.1458 14.7539 13.6042 14.6133 14.1875 14.332C15.3958 13.7487 16.5885 12.8112 17.7656 11.5195C19.1094 10.0612 19.7812 8.76953 19.7812 7.64453C19.7812 7.15495 19.6146 6.91016 19.2812 6.91016C18.8438 6.91016 18.3906 7.0612 17.9219 7.36328C17.3385 7.75911 16.7604 8.31641 16.1875 9.03516C14.7188 10.8893 13.9844 12.1133 13.9844 12.707C13.9844 12.8008 14.0052 12.931 14.0469 13.0977C14.099 13.2539 14.125 13.3737 14.125 13.457C14.1146 13.4674 14.1042 13.4987 14.0938 13.5508L13.9688 13.6289C13.75 13.5768 13.6406 13.2018 13.6406 12.5039C13.6406 11.3164 14.2135 10.0299 15.3594 8.64453C16.5469 7.19661 17.7135 6.47266 18.8594 6.47266C19.7031 6.47266 20.125 6.92057 20.125 7.81641C20.125 9.09766 19.2135 10.6289 17.3906 12.4102C15.5781 14.181 14.0312 15.0664 12.75 15.0664C11.9688 15.0664 11.375 14.8529 10.9688 14.4258C10.4583 13.8841 10.2031 13.2435 10.2031 12.5039C10.2031 11.931 10.3542 11.3268 10.6562 10.6914C12.0521 7.80599 15.2083 5.03516 20.125 2.37891C21.0521 1.86849 21.8021 1.49349 22.375 1.25391C22.6042 1.16016 23.2031 0.925781 24.1719 0.550781H24.25C24.3542 0.550781 24.4062 0.613281 24.4062 0.738281ZM20.9531 14.1445C20.9531 14.4049 20.7292 14.7643 20.2812 15.2227C19.8333 15.6914 19.474 15.9622 19.2031 16.0352C19.1823 16.0247 19.1719 16.0039 19.1719 15.9727C19.1719 15.931 19.2604 15.7695 19.4375 15.4883C19.6042 15.207 19.6875 15.0247 19.6875 14.9414C19.6875 14.931 19.6823 14.9206 19.6719 14.9102C19.2969 14.8685 19.1094 14.6602 19.1094 14.2852C19.1094 13.6081 19.4271 13.2695 20.0625 13.2695C20.6562 13.2695 20.9531 13.5612 20.9531 14.1445ZM23.5938 9.08203C23.5938 9.4987 23.2656 9.79557 22.6094 9.97266C22.0365 9.91016 21.75 9.66536 21.75 9.23828C21.75 8.5612 22.0677 8.22266 22.7031 8.22266C23.2969 8.22266 23.5938 8.50911 23.5938 9.08203ZM36.1875 5.62891C36.1875 5.77474 35.8802 6.09766 35.2656 6.59766C35.0052 6.80599 34.7135 6.91536 34.3906 6.92578C33.8177 8.09245 32.6719 9.58724 30.9531 11.4102C29.1094 13.3685 27.7083 14.4727 26.75 14.7227C26.4792 14.7956 26.2344 14.832 26.0156 14.832C25.474 14.832 25.0521 14.5872 24.75 14.0977C24.4792 13.6706 24.3438 13.1758 24.3438 12.6133C24.3438 12.0195 24.5208 11.332 24.875 10.5508C25.4583 9.2487 26.0052 8.29036 26.5156 7.67578C27.4844 6.47786 28.6823 5.3737 30.1094 4.36328C32.2552 2.84245 33.7031 2.08203 34.4531 2.08203C35.2865 2.08203 35.7031 2.5612 35.7031 3.51953C35.7031 4.50911 35.3542 5.45703 34.6562 6.36328L34.6875 6.42578C34.9271 6.40495 35.1979 6.24349 35.5 5.94141C35.8021 5.62891 35.9896 5.47266 36.0625 5.47266C36.1458 5.47266 36.1875 5.52474 36.1875 5.62891ZM35.2188 3.28516C35.1979 2.83724 35.0312 2.61328 34.7188 2.61328C34.0625 2.61328 33.099 3.31641 31.8281 4.72266C31.0052 5.72266 30.1823 6.72266 29.3594 7.72266C26.849 10.681 25.5938 12.6549 25.5938 13.6445C25.5938 14.1654 25.8021 14.4258 26.2188 14.4258C26.8125 14.4258 27.5312 14.0716 28.375 13.3633C29.1667 12.7174 30.1979 11.6549 31.4688 10.1758C32.8229 8.60286 33.6667 7.44661 34 6.70703C33.6667 6.71745 33.5 6.48828 33.5 6.01953C33.5 5.48828 33.6562 4.94141 33.9688 4.37891C34.3229 3.73307 34.7396 3.36849 35.2188 3.28516ZM46.5625 5.62891C46.5625 5.77474 46.2552 6.09766 45.6406 6.59766C45.3802 6.80599 45.0885 6.91536 44.7656 6.92578C44.1927 8.09245 43.0469 9.58724 41.3281 11.4102C39.4844 13.3685 38.0833 14.4727 37.125 14.7227C36.8542 14.7956 36.6094 14.832 36.3906 14.832C35.849 14.832 35.4271 14.5872 35.125 14.0977C34.8542 13.6706 34.7188 13.1758 34.7188 12.6133C34.7188 12.0195 34.8958 11.332 35.25 10.5508C35.8333 9.2487 36.3802 8.29036 36.8906 7.67578C37.8594 6.47786 39.0573 5.3737 40.4844 4.36328C42.6302 2.84245 44.0781 2.08203 44.8281 2.08203C45.6615 2.08203 46.0781 2.5612 46.0781 3.51953C46.0781 4.50911 45.7292 5.45703 45.0312 6.36328L45.0625 6.42578C45.3021 6.40495 45.5729 6.24349 45.875 5.94141C46.1771 5.62891 46.3646 5.47266 46.4375 5.47266C46.5208 5.47266 46.5625 5.52474 46.5625 5.62891ZM45.5938 3.28516C45.5729 2.83724 45.4062 2.61328 45.0938 2.61328C44.4375 2.61328 43.474 3.31641 42.2031 4.72266C41.3802 5.72266 40.5573 6.72266 39.7344 7.72266C37.224 10.681 35.9688 12.6549 35.9688 13.6445C35.9688 14.1654 36.1771 14.4258 36.5938 14.4258C37.1875 14.4258 37.9062 14.0716 38.75 13.3633C39.5417 12.7174 40.5729 11.6549 41.8438 10.1758C43.1979 8.60286 44.0417 7.44661 44.375 6.70703C44.0417 6.71745 43.875 6.48828 43.875 6.01953C43.875 5.48828 44.0312 4.94141 44.3438 4.37891C44.6979 3.73307 45.1146 3.36849 45.5938 3.28516Z" fill="#28682E"></path></svg> 