<?xml version="1.0" encoding="UTF-8"?> <svg xmlns="http://www.w3.org/2000/svg" width="315" height="77" viewBox="0 0 315 77" fill="none"><path d="M115.603 17.1563C116.437 16.9926 116.727 17.3274 116.474 18.1607L112.947 21.7319H113.394C116.876 20.0356 119.673 19.1874 121.786 19.1874C122.337 19.3213 122.478 19.6561 122.21 20.1918C115.157 22.3643 111.63 24.2243 111.63 25.7718C111.735 26.2034 112.069 26.4266 112.635 26.4414C116.161 26.3373 120.09 25.6082 124.42 24.2541C125.208 24.1945 125.357 24.5368 124.866 25.2808C122.456 26.8581 118.193 27.8699 112.077 28.3163C110.604 28.108 109.867 27.0962 109.867 25.2808L106.341 26.7986C105.998 26.6051 105.849 26.2629 105.894 25.7718L115.603 17.1563ZM137.968 17.0447C141.272 16.5239 143.005 17.1339 143.169 18.8749C143.615 20.3778 141.197 22.3941 135.915 24.9237C130.632 27.4533 127.463 28.7106 126.406 28.6958C125.35 28.6809 124.665 28.4949 124.353 28.1378C124.055 27.7658 123.988 27.0962 124.152 26.129C124.316 25.1617 125.833 23.5398 128.705 21.2632C131.577 18.9716 134.665 17.5655 137.968 17.0447ZM126.808 24.879C125.514 26.4414 125.878 27.0515 127.902 26.7093C129.94 26.367 134.084 24.3285 140.334 20.5936L140.803 20.1695C141.413 19.2172 140.929 18.6368 139.352 18.4285C137.775 18.2202 135.61 18.8526 132.857 20.3257C130.119 21.784 128.103 23.3017 126.808 24.879ZM159.552 0.304573L161.561 0.416173L163.257 0.617054L164.976 0.862576C165.958 1.04114 167.208 1.32386 168.725 1.71074C171.954 2.76723 174.223 4.28499 175.533 6.26405C176.857 8.22822 177.505 9.64182 177.475 10.5049C177.475 16.2932 171.672 21.3673 160.065 25.7272C156.509 27.3045 153.875 28.0931 152.164 28.0931C151.092 27.989 150.78 27.297 151.226 26.0174C155.765 19.8124 160.214 16.7099 164.574 16.7099C166.121 16.7099 166.895 17.9151 166.895 20.3257H167.81C173.033 17.6027 175.645 14.6713 175.645 11.5316C176.091 10.8025 175.436 9.19542 173.68 6.71045C171.939 4.21059 168.048 2.74491 162.007 2.31338C155.981 1.86698 150.326 1.8893 145.044 2.38034C137.842 3.91299 134.241 5.587 134.241 7.40237C133.288 8.26542 132.82 8.08686 132.835 6.86669C134.843 2.73003 141.138 0.557534 151.717 0.349213L156.181 0.192972L159.552 0.304573ZM155.489 22.9372C152.275 26.0471 153.138 26.7614 158.079 25.0799C163.034 23.3836 165.511 21.6277 165.511 19.8124V19.299C165.005 18.1979 164.083 17.8482 162.743 18.25C161.136 18.25 158.718 19.8124 155.489 22.9372ZM187.072 17.2455C187.935 16.9182 188.456 17 188.635 17.4911C188.813 17.9672 186.209 20.787 180.823 25.9504C180.614 26.5754 180.949 26.7688 181.827 26.5307C185.547 25.2808 187.824 24.574 188.657 24.4103C189.49 24.2317 189.907 24.3433 189.907 24.7451C189.699 25.4445 188.04 26.3224 184.93 27.3789C181.82 28.4205 179.878 28.7553 179.104 28.3833C178.33 27.9964 178.226 27.1854 178.792 25.9504L180.309 23.5398L174.551 22.8925C173.152 23.6217 172.029 24.4921 171.18 25.504C170.332 26.5158 169.678 27.059 169.216 27.1334C168.77 27.2078 168.599 26.8134 168.703 25.9504C170.042 24.1648 171.999 22.2304 174.573 20.1472C177.162 18.0491 178.985 16.9107 180.042 16.7322C181.113 16.5536 181.128 17.0967 180.086 18.3616C179.506 18.8228 178.829 19.3064 178.055 19.8124L176.47 21.0846L178.792 21.7765C181.143 22.0741 183.903 20.5638 187.072 17.2455ZM215.352 15.5046C216.215 15.7873 216.818 16.2337 217.16 16.8438C217.502 17.4539 217.51 18.2202 217.182 19.1428C216.885 19.738 216.312 20.3852 215.464 21.0846C214.63 21.784 213.834 22.3494 213.075 22.7809C212.331 23.2125 211.2 23.7481 209.683 24.388L208.299 24.9906C206.751 25.4966 205.777 25.809 205.375 25.9281C204.973 26.0471 204.504 26.1513 203.969 26.2406C203.448 26.3298 202.83 26.3075 202.116 26.1736C201.298 25.623 201.067 24.6409 201.424 23.2273C201.335 22.1857 200.293 21.7617 198.299 21.9551C197.154 22.8033 196.209 23.5324 195.465 24.1425C194.974 24.6037 194.274 25.1394 193.367 25.7495L190.353 28.3163C189.609 28.2122 189.401 27.7955 189.728 27.0664C196.112 21.0995 200.546 17.4092 203.031 15.9956C203.597 16.0403 203.827 16.3155 203.723 16.8215C200.658 19.2916 199.616 20.4522 200.598 20.3034L203.478 20.5043C206.186 17.1711 210.144 15.5046 215.352 15.5046ZM203.433 23.2943C202.853 24.7823 204.482 24.8418 208.321 23.4729C212.16 22.089 214.437 20.72 215.151 19.366C215.865 17.997 215.702 17.2381 214.66 17.0893C213.618 16.9256 212.592 17.0149 211.58 17.3571C210.017 17.6994 208.477 18.369 206.96 19.366C205.412 20.3629 204.237 21.6724 203.433 23.2943ZM27.9746 47.1563C28.6293 46.9331 29.046 47.3199 29.2245 48.3169C32.4833 47.3795 34.5069 47.0223 35.2956 47.2455C36.0842 47.4687 36.5306 47.8407 36.6348 48.3615C36.7538 48.8824 36.0098 49.9091 34.4028 51.4417C32.8106 52.9744 31.2259 54.1425 29.6486 54.946C28.0713 55.7495 27.2306 56.3596 27.1264 56.7762L36.3893 53.3166C36.8654 53.1381 37.0068 53.2645 36.8134 53.6961C36.486 54.5293 34.626 55.5337 31.2333 56.7093C27.8556 57.8848 25.9286 58.4205 25.4524 58.3163C24.4406 58.0782 24.1579 57.5202 24.6043 56.6423C31.0622 52.4461 34.2912 50.0504 34.2912 49.4552C34.6037 48.8898 34.4549 48.6368 33.8448 48.6964C33.2347 48.741 31.9476 49.0609 29.9834 49.6561C28.0192 50.2364 23.5552 52.7363 16.5913 57.1557C15.386 57.3938 14.6867 57.1408 14.4932 56.3968C20.5494 53.1381 25.0432 50.0579 27.9746 47.1563ZM74.4674 18.3856C75.3453 17.8351 76.3572 18.3335 77.5029 19.8811C77.8303 20.6697 77.6592 21.0045 76.9896 20.8855L74.9808 19.8811L56.2542 39.4335L47.1476 48.9642C49.8409 48.9642 51.2098 49.366 51.2545 50.1695C51.4182 50.6754 51.247 51.2185 50.7411 51.7988C50.2352 52.3792 49.7144 52.9074 49.1787 53.3836C48.643 53.8597 48.3008 54.2243 48.152 54.4773C53.7767 52.4833 55.9715 52.1485 54.7364 53.4729C49.5433 55.7346 46.5747 56.9846 45.8307 57.2226C45.1016 57.4607 44.4096 57.5946 43.7549 57.6244C43.1151 57.6542 42.8919 57.2747 43.0853 56.4861C48.1743 52.5131 49.6921 50.6754 47.6386 50.973C44.2013 50.973 40.8979 52.6991 37.7285 56.1513C34.559 59.6035 32.4609 61.7834 31.4342 62.6911C30.4075 63.5839 26.9404 66.173 21.033 70.4585C18.4141 72.1994 15.7432 73.5014 13.0201 74.3645C10.2822 75.2424 8.29569 75.7781 7.06064 75.9715C5.81072 76.1799 4.67983 76.2096 3.66798 76.0608C2.64126 75.9269 1.91213 75.3987 1.48061 74.4761C1.04909 73.5535 1.18301 72.4301 1.88237 71.1058C2.56686 69.7814 3.6531 68.5836 5.14111 67.5122C12.1794 62.3191 20.2742 57.8104 29.4254 53.9862L31.6574 53.1827C40.6152 51.1144 45.9051 48.622 47.527 45.7055L48.0181 45.1028C54.0147 39.2698 60.8968 32.2241 68.6642 23.9657L74.4674 18.3856ZM4.58311 73.7842C4.77655 74.1711 5.65447 74.2678 7.21688 74.0743L12.2612 72.5789C17.9305 70.823 23.6743 67.2816 29.4924 61.9545C35.2956 56.6274 38.0931 53.8672 37.8847 53.6737C37.6764 53.4654 37.3862 53.3985 37.0142 53.4729C31.0771 54.1722 23.3171 57.6839 13.7344 64.008C9.19593 66.4632 6.1604 69.0969 4.62775 71.9093C4.38967 72.7723 4.37479 73.3973 4.58311 73.7842ZM66.0974 47.6473C67.3622 47.0967 68.6046 46.9256 69.8248 47.1339C71.045 47.3274 71.6625 48.1458 71.6774 49.5892C71.6774 51.6277 67.7044 53.0785 59.7584 53.9416C58.0919 54.4177 57.2735 54.9981 57.3032 55.6825C57.3479 56.367 57.6529 56.7837 58.2184 56.9325C58.7987 57.0664 59.4088 57.1631 60.0486 57.2226C60.7033 57.2673 63.1511 56.873 67.3919 56.0397C71.6327 55.1915 73.7234 54.9013 73.6639 55.1692C73.6192 55.4221 71.6104 56.062 67.6374 57.0887C63.6793 58.1006 60.4355 58.5098 57.9059 58.3163C56.2095 57.8402 55.5325 56.8804 55.8747 55.437L56.0533 54.4326H54.5579C54.4388 54.0755 54.6918 53.7481 55.3167 53.4505C55.9566 53.1381 59.5501 51.2036 66.0974 47.6473ZM63.4859 50.5489C58.8582 52.528 59.0814 53.0339 64.1555 52.0667C68.2475 51.0548 70.2935 50.1844 70.2935 49.4552C70.2935 48.7261 69.4007 48.4583 67.6151 48.6517L63.4859 50.5489ZM81.967 30.3046L83.9758 30.4162L85.6721 30.6171L87.3908 30.8626C88.3728 31.0411 89.6228 31.3239 91.1405 31.7107C94.3695 32.7672 96.6387 34.285 97.9482 36.264C99.2725 38.2282 99.9198 39.6418 99.89 40.5049C99.89 46.2932 94.0868 51.3673 82.4803 55.7272C78.924 57.3045 76.2902 58.0931 74.579 58.0931C73.5076 57.989 73.1952 57.297 73.6416 56.0174C78.18 49.8124 82.6291 46.7099 86.989 46.7099C88.5365 46.7099 89.3103 47.9151 89.3103 50.3257H90.2254C95.4483 47.6027 98.0598 44.6713 98.0598 41.5316C98.5062 40.8025 97.8515 39.1954 96.0956 36.7104C94.3546 34.2106 90.4635 32.7449 84.4222 32.3134C78.3957 31.867 72.7413 31.8893 67.4589 32.3803C60.2569 33.913 56.6559 35.587 56.6559 37.4024C55.7036 38.2654 55.2349 38.0869 55.2498 36.8667C57.2586 32.73 63.5529 30.5575 74.1326 30.3492L78.5966 30.193L81.967 30.3046ZM77.9047 52.9372C74.6906 56.0471 75.5536 56.7614 80.4938 55.0799C85.4489 53.3836 87.9264 51.6277 87.9264 49.8124V49.299C87.4205 48.1979 86.4979 47.8482 85.1587 48.2499C83.5517 48.2499 81.1337 49.8124 77.9047 52.9372ZM101.14 47.1563C101.795 46.9331 102.211 47.3199 102.39 48.3169C105.649 47.3795 107.672 47.0223 108.461 47.2455C109.25 47.4687 109.696 47.8407 109.8 48.3615C109.919 48.8824 109.175 49.9091 107.568 51.4417C105.976 52.9744 104.391 54.1425 102.814 54.946C101.237 55.7495 100.396 56.3596 100.292 56.7762L109.555 53.3166C110.031 53.1381 110.172 53.2645 109.979 53.6961C109.651 54.5293 107.791 55.5337 104.399 56.7093C101.021 57.8848 99.0939 58.4205 98.6178 58.3163C97.6059 58.0782 97.3232 57.5202 97.7696 56.6423C104.228 52.4461 107.457 50.0504 107.457 49.4552C107.769 48.8898 107.62 48.6368 107.01 48.6964C106.4 48.741 105.113 49.0609 103.149 49.6561C101.185 50.2364 96.7206 52.7363 89.7567 57.1557C88.5514 57.3938 87.852 57.1408 87.6586 56.3968C93.7148 53.1381 98.2086 50.0579 101.14 47.1563ZM147.633 18.3856C148.511 17.8351 149.523 18.3335 150.668 19.8811C150.996 20.6697 150.825 21.0045 150.155 20.8855L148.146 19.8811L129.42 39.4335L120.313 48.9642C123.006 48.9642 124.375 49.366 124.42 50.1695C124.584 50.6754 124.412 51.2185 123.906 51.7988C123.401 52.3792 122.88 52.9074 122.344 53.3836C121.808 53.8597 121.466 54.2243 121.317 54.4773C126.942 52.4833 129.137 52.1485 127.902 53.4729C122.709 55.7346 119.74 56.9846 118.996 57.2226C118.267 57.4607 117.575 57.5946 116.92 57.6244C116.28 57.6542 116.057 57.2747 116.251 56.4861C121.34 52.5131 122.857 50.6754 120.804 50.973C117.367 50.973 114.063 52.6991 110.894 56.1513C107.724 59.6035 105.626 61.7834 104.6 62.6911C103.573 63.5839 100.106 66.173 94.1984 70.4585C91.5795 72.1994 88.9085 73.5014 86.1855 74.3645C83.4475 75.2424 81.461 75.7781 80.226 75.9715C78.9761 76.1799 77.8452 76.2096 76.8333 76.0608C75.8066 75.9269 75.0775 75.3987 74.646 74.4761C74.2144 73.5535 74.3484 72.4301 75.0477 71.1058C75.7322 69.7814 76.8185 68.5836 78.3065 67.5122C85.3447 62.3191 93.4395 57.8104 102.591 53.9862L104.823 53.1827C113.781 51.1144 119.07 48.622 120.692 45.7055L121.183 45.1028C127.18 39.2698 134.062 32.2241 141.83 23.9657L147.633 18.3856ZM77.7485 73.7842C77.9419 74.1711 78.8198 74.2678 80.3822 74.0743L85.4266 72.5789C91.0959 70.823 96.8396 67.2816 102.658 61.9545C108.461 56.6274 111.258 53.8672 111.05 53.6737C110.842 53.4654 110.552 53.3985 110.18 53.4729C104.242 54.1722 96.4825 57.6839 86.8997 64.008C82.3613 66.4632 79.3258 69.0969 77.7931 71.9093C77.555 72.7723 77.5401 73.3973 77.7485 73.7842ZM146.361 47.1563C147.432 46.814 147.886 47.2307 147.722 48.4062C142.931 52.0816 140.617 54.1425 140.78 54.5889C140.349 55.3924 140.557 55.8834 141.405 56.062C142.983 55.8537 144.865 55.2138 147.052 54.1425C149.255 53.0562 150.259 52.7958 150.066 53.3613C149.545 54.4624 147.729 55.6379 144.62 56.8878C141.524 58.1229 139.731 58.4428 139.24 57.8476C138.749 57.2524 138.638 55.9653 138.906 53.9862L130.982 57.6914C130 57.9592 129.167 57.989 128.482 57.7806C127.813 57.5574 127.567 56.9102 127.746 55.8388C130.826 51.1367 133.006 48.5699 134.285 48.1383C135.565 47.6919 135.87 47.9821 135.2 49.0088C131.242 53.0562 129.382 55.3701 129.62 55.9504C129.873 56.5307 131.905 55.809 135.714 53.7853C139.523 51.7468 143.072 49.5371 146.361 47.1563ZM168.234 47.2455C169.097 46.9182 169.618 47 169.797 47.4911C169.975 47.9672 167.371 50.787 161.985 55.9504C161.776 56.5754 162.111 56.7688 162.989 56.5307C166.709 55.2808 168.986 54.574 169.819 54.4103C170.652 54.2317 171.069 54.3433 171.069 54.7451C170.861 55.4445 169.201 56.3224 166.092 57.3789C162.982 58.4205 161.04 58.7553 160.266 58.3833C159.492 57.9964 159.388 57.1854 159.953 55.9504L161.471 53.5398L155.713 52.8925C154.314 53.6217 153.19 54.4921 152.342 55.504C151.494 56.5158 150.839 57.059 150.378 57.1334C149.932 57.2078 149.761 56.8134 149.865 55.9504C151.204 54.1648 153.161 52.2304 155.735 50.1472C158.324 48.0491 160.147 46.9107 161.203 46.7322C162.275 46.5536 162.29 47.0967 161.248 48.3615C160.668 48.8228 159.991 49.3064 159.217 49.8124L157.632 51.0846L159.953 51.7765C162.305 52.0741 165.065 50.5638 168.234 47.2455ZM189.528 47.1563C190.599 46.814 191.053 47.2307 190.889 48.4062C186.098 52.0816 183.784 54.1425 183.948 54.5889C183.516 55.3924 183.724 55.8834 184.573 56.062C186.15 55.8537 188.032 55.2138 190.22 54.1425C192.422 53.0562 193.426 52.7958 193.233 53.3613C192.712 54.4624 190.897 55.6379 187.787 56.8878C184.692 58.1229 182.899 58.4428 182.408 57.8476C181.916 57.2524 181.805 55.9653 182.073 53.9862L174.149 57.6914C173.167 57.9592 172.334 57.989 171.649 57.7806C170.98 57.5574 170.734 56.9102 170.913 55.8388C173.993 51.1367 176.173 48.5699 177.452 48.1383C178.732 47.6919 179.037 47.9821 178.368 49.0088C174.409 53.0562 172.549 55.3701 172.788 55.9504C173.041 56.5307 175.072 55.809 178.881 53.7853C182.69 51.7468 186.239 49.5371 189.528 47.1563ZM215.843 47.1563C216.751 46.8735 217.242 46.9479 217.316 47.3795C217.391 47.7961 216.118 49.0237 213.499 51.0623C210.881 53.086 209.571 54.574 209.571 55.5263C209.839 55.6453 211.61 55.132 214.883 53.9862C218.172 52.8405 219.816 52.4238 219.816 52.7363C219.846 53.4952 216.647 54.8865 210.218 56.9102C209.296 57.1631 208.619 57.2003 208.187 57.0218C207.771 56.8432 207.681 56.3447 207.919 55.5263C208.128 54.9013 208.091 54.6112 207.808 54.6558C204.564 56.5902 202.391 57.3417 201.29 56.9102C200.859 56.9102 200.643 56.1364 200.643 54.5889L194.014 58.3163C193.344 58.3907 193.017 58.0782 193.032 57.3789C193.969 54.6707 194.632 53.2794 195.018 53.205C195.599 52.9669 195.829 53.1455 195.71 53.7407C195.606 54.321 195.398 54.9385 195.085 55.5933C194.788 56.248 194.989 56.3819 195.688 55.995C200.554 53.4208 204.408 50.6308 207.25 47.625C209.318 46.3155 210.092 46.6206 209.571 48.5401C209.303 49.3883 206.878 51.0995 202.295 53.6737C201.848 54.5963 201.647 55.2436 201.692 55.6156C201.752 55.9876 202.28 55.9578 203.277 55.5263C207.324 53.4282 211.513 50.6382 215.843 47.1563ZM231.735 47.0223C233.149 46.8884 234.116 47.6845 234.637 49.4106C234.25 50.5117 233.573 51.464 232.605 52.2676H232.985C234.681 50.973 235.671 50.787 235.953 51.7096C232.635 53.5696 230.879 54.9981 230.686 55.995C230.492 56.9771 231.021 57.2673 232.271 56.8655L237.918 54.5889C238.468 54.7525 238.595 55.065 238.297 55.5263C234.904 57.3863 232.375 58.3163 230.708 58.3163C229.161 58.1378 228.908 57.0515 229.949 55.0576C225.113 57.2301 221.951 58.3163 220.463 58.3163C219.437 57.9443 219.057 57.0143 219.325 55.5263C222.747 49.9463 226.884 47.1116 231.735 47.0223ZM223.789 52.4015C221.408 54.6484 220.419 56.0471 220.82 56.5977C221.222 57.1482 222.866 56.7986 225.753 55.5486C228.655 54.2838 230.678 52.647 231.824 50.6382C232.896 49.3139 232.539 48.6145 230.753 48.5401C228.491 48.8526 226.17 50.1397 223.789 52.4015ZM238.788 47.1563L260.26 47.5803C260.84 47.9821 260.788 48.3987 260.104 48.8303C259.419 49.2618 256.897 49.418 252.537 49.299L248.81 49.2097C247.858 49.2692 245.38 49.0163 241.377 48.4508C242.523 49.6859 243.096 51.6872 243.096 54.4549C246.355 51.8807 248.639 50.5936 249.948 50.5936C250.484 50.6382 250.633 50.9209 250.395 51.4417L240.953 58.3163C240.358 58.3014 240.068 58.0187 240.083 57.4682L241.377 55.7495C241.377 51.7468 240.232 49.0237 237.94 47.5803C237.895 47.2083 238.178 47.067 238.788 47.1563ZM268.496 47.6473C269.761 47.0967 271.004 46.9256 272.224 47.1339C273.444 47.3274 274.061 48.1458 274.076 49.5892C274.076 51.6277 270.103 53.0785 262.157 53.9416C260.491 54.4177 259.672 54.9981 259.702 55.6825C259.747 56.367 260.052 56.7837 260.617 56.9325C261.198 57.0664 261.808 57.1631 262.447 57.2226C263.102 57.2673 265.55 56.873 269.791 56.0397C274.032 55.1915 276.122 54.9013 276.063 55.1692C276.018 55.4221 274.009 56.062 270.036 57.0887C266.078 58.1006 262.834 58.5098 260.305 58.3163C258.608 57.8402 257.931 56.8804 258.274 55.437L258.452 54.4326H256.957C256.838 54.0755 257.091 53.7481 257.716 53.4505C258.355 53.1381 261.949 51.2036 268.496 47.6473ZM265.885 50.5489C261.257 52.528 261.48 53.0339 266.554 52.0667C270.646 51.0548 272.692 50.1844 272.692 49.4552C272.692 48.7261 271.8 48.4583 270.014 48.6517L265.885 50.5489ZM292.156 47.4241C294.402 46.1295 295.161 46.1816 294.432 47.5803C293.554 48.4136 290.898 50.3778 286.464 53.4729C285.958 54.4401 285.705 55.1841 285.705 55.7049C285.705 56.2108 286.375 56.2108 287.714 55.7049C289.068 55.1841 290.801 54.1127 292.914 52.4908C293.361 52.5503 293.532 52.8925 293.428 53.5175C293.339 54.1276 292.379 54.9013 290.549 55.8388C288.733 56.7614 287.26 57.2896 286.129 57.4235C285.013 57.5426 284.403 57.431 284.299 57.0887C284.21 56.7316 284.299 55.8462 284.567 54.4326L276.978 58.3163C276.159 58.4949 275.78 58.175 275.84 57.3566C276.911 54.5145 277.67 53.0562 278.116 52.9818C278.994 52.9223 279.247 53.4059 278.875 54.4326C277.521 56.2034 277.521 56.687 278.875 55.8834C284.47 53.205 288.897 50.3852 292.156 47.4241ZM306.909 47.1563C308.576 47.1563 309.662 47.7515 310.168 48.9419C310.421 50.8168 309.454 52.1783 307.266 53.0265C305.094 53.8746 303.204 54.5368 301.597 55.0129C299.99 55.3105 299.402 55.7718 299.834 56.3968C300.265 57.0069 301.039 57.245 302.155 57.111L308.07 55.9058C312.087 54.4921 314.133 53.949 314.208 54.2764C314.297 54.5889 313.099 55.1915 310.614 56.0843C308.144 56.9771 305.205 57.7211 301.798 58.3163C299.372 58.5246 298.13 57.7806 298.07 56.0843C295.169 57.2896 293.465 57.736 292.959 57.4235C292.141 57.2301 291.947 56.6498 292.379 55.6825C292.795 54.7153 293.889 53.7705 295.66 52.8479C296.151 52.5503 296.508 52.7363 296.731 53.4059C296.493 53.7184 296.017 54.0606 295.303 54.4326C294.588 54.8046 294.127 55.2064 293.919 55.6379C293.711 56.0694 293.8 56.248 294.187 56.1736C296.151 55.8016 297.81 54.5814 299.164 52.5131C300.533 50.4448 301.798 49.0088 302.958 48.2053C304.134 47.3869 305.451 47.0372 306.909 47.1563ZM299.767 54.0532C300.243 54.2615 301.857 53.8077 304.61 52.6917C307.378 51.5608 308.762 50.6084 308.762 49.8347C308.658 48.9568 307.884 48.5104 306.44 48.4955C304.283 48.4955 302.058 50.348 299.767 54.0532Z" fill="#841600"></path></svg> 