<?xml version="1.0" encoding="UTF-8"?> <svg xmlns="http://www.w3.org/2000/svg" width="143" height="144" viewBox="0 0 143 144" fill="none"><path d="M13.6428 63.3108L19.026 65.0591L21.3539 57.3217L15.9706 55.5734L16.2242 54.7307L28.9119 58.8512L28.6583 59.6939L22.1148 57.5688L19.7869 65.3062L26.3304 67.4313L26.0769 68.2739L13.3892 64.1535L13.6428 63.3108Z" fill="#86110B"></path><path d="M28.0324 45.9445L26.8439 45.1674L27.2424 44.4737L34.0721 48.9392L33.6736 49.6329L32.4516 48.8339C33.0237 50.0827 32.9643 51.3082 32.2735 52.5106C31.7222 53.4701 30.9247 54.0699 29.881 54.31C28.8374 54.55 27.7743 54.3162 26.6918 53.6084C25.6316 52.9152 24.955 52.0355 24.6619 50.9691C24.3688 49.9028 24.5178 48.8551 25.109 47.8262C25.7865 46.647 26.761 46.0197 28.0324 45.9445ZM25.765 48.2074C25.3333 48.9589 25.2236 49.7778 25.4359 50.6641C25.637 51.5431 26.1784 52.2708 27.06 52.8472C27.8747 53.3799 28.7261 53.5946 29.6144 53.4915C30.4915 53.3811 31.1758 52.8981 31.6673 52.0426C32.1522 51.1987 32.244 50.3442 31.9427 49.4792C31.6368 48.5954 31.0654 47.8799 30.2284 47.3326C29.3022 46.727 28.4308 46.5469 27.6143 46.7924C26.7866 47.0305 26.1702 47.5022 25.765 48.2074Z" fill="#86110B"></path><path d="M32.6712 37.3795L33.2064 36.7849L35.8788 39.5978L35.6682 34.0497L36.364 33.2767L36.5218 38.943L42.1984 38.9547L41.4759 39.7574L36.5321 39.7065L36.54 40.2938L38.8267 42.7008L38.2915 43.2954L36.0048 40.8884L35.4617 40.8958L35.6423 46.2387L34.9198 47.0415L34.7557 40.9053L29.5135 40.8878L30.2093 40.1148L35.3436 40.1925L32.6712 37.3795Z" fill="#86110B"></path><path d="M42.7817 38.0804L40.0175 29.4889L46.3808 33.9949L45.3677 25.7625L51.2829 32.1593L50.5936 32.6394L46.3133 27.8727L47.2829 35.5526L41.357 31.3248L43.471 37.6004L42.7817 38.0804Z" fill="#86110B"></path><path d="M50.7929 24.3499L51.5323 24.0445L53.5823 30.2548L56.7487 21.3933L59.4508 29.5788L58.7114 29.8843L56.6739 23.7119L53.5075 32.5734L50.7929 24.3499Z" fill="#86110B"></path><path d="M63.4337 28.4303L62.2509 21.1254L59.4768 21.7335L59.3553 20.9832L65.685 19.5959L65.8065 20.3461L63.0324 20.9541L64.2152 28.259L63.4337 28.4303Z" fill="#86110B"></path><path d="M75.3919 23.1362L68.4167 23.3943C68.3688 24.3962 68.6731 25.2118 69.3296 25.841C69.9859 26.4568 70.7672 26.748 71.6732 26.7144C72.3128 26.6908 72.8781 26.5032 73.3693 26.1516C73.8604 25.7867 74.2377 25.3193 74.5011 24.7495L75.1828 25.1243C74.8796 25.7223 74.4361 26.2588 73.8523 26.7338C73.2684 27.1955 72.5234 27.4431 71.6174 27.4766C70.3782 27.5225 69.3967 27.1587 68.6729 26.3854C67.9489 25.5987 67.5836 24.592 67.5769 23.3653C67.5696 22.0187 67.9502 20.9511 68.7189 20.1625C69.5009 19.3734 70.4315 18.9589 71.5107 18.919C72.63 18.8776 73.5649 19.2497 74.3155 20.0354C75.0661 20.8212 75.4249 21.8548 75.3919 23.1362ZM68.4725 22.6321L74.5483 22.4073C74.4372 21.5846 74.1004 20.9169 73.5379 20.4043C72.9887 19.8912 72.3143 19.6494 71.5149 19.679C70.7021 19.709 70.0174 20.0078 69.4608 20.5751C68.9041 21.1292 68.5746 21.8148 68.4725 22.6321Z" fill="#86110B"></path><path d="M82.2246 28.0676L84.3532 20.1901L85.1219 20.4117L84.1828 23.887L88.6028 25.1611L89.5419 21.6858L90.3106 21.9074L88.182 29.7848L87.4133 29.5633L88.4045 25.8948L83.9845 24.6207L82.9933 28.2891L82.2246 28.0676Z" fill="#86110B"></path><path d="M99.5126 28.0372L100.136 26.7615L100.837 27.1471L97.2537 34.4782L96.5528 34.0926L97.1939 32.7809C96.0596 33.4337 94.8849 33.4258 93.67 32.7575C92.7003 32.2241 92.0495 31.4176 91.7173 30.3381C91.3852 29.2586 91.5031 28.1379 92.0711 26.9759C92.6273 25.8379 93.3995 25.0923 94.3874 24.739C95.3754 24.3857 96.3893 24.495 97.429 25.067C98.6206 25.7225 99.3151 26.7126 99.5126 28.0372ZM97.1303 25.7691C96.371 25.3514 95.5792 25.273 94.7549 25.5339C93.9365 25.7829 93.296 26.3806 92.8334 27.3269C92.406 28.2014 92.2854 29.1002 92.4715 30.0234C92.6635 30.9346 93.1918 31.628 94.0563 32.1036C94.9091 32.5727 95.7331 32.6308 96.5282 32.2778C97.3408 31.9193 97.9668 31.2908 98.4059 30.3924C98.8919 29.3982 98.9775 28.48 98.6627 27.6381C98.3537 26.7841 97.8429 26.1611 97.1303 25.7691Z" fill="#86110B"></path><path d="M102.144 38.5434L109.38 33.6786L106.505 41.4468L113.746 38.5217L109.08 46.239L108.517 45.615L112.018 39.9997L105.268 42.7544L107.974 35.5132L102.706 39.1674L102.144 38.5434Z" fill="#86110B"></path><path d="M117.431 51.5122L113.977 45.4469C113.126 45.966 112.592 46.6942 112.377 47.6314C112.172 48.5611 112.294 49.4198 112.743 50.2077C113.06 50.7638 113.478 51.162 113.997 51.4022C114.527 51.6348 115.089 51.7086 115.683 51.6237L115.689 52.4408C115.054 52.506 114.404 52.412 113.739 52.1586C113.086 51.8976 112.535 51.3732 112.087 50.5854C111.473 49.5078 111.318 48.4301 111.621 47.352C111.936 46.2664 112.599 45.3767 113.611 44.683C114.721 43.9214 115.781 43.6617 116.791 43.9039C117.807 44.1577 118.582 44.7539 119.117 45.6923C119.671 46.6656 119.797 47.7066 119.496 48.8153C119.195 49.9241 118.506 50.8231 117.431 51.5122ZM114.633 45.0692L117.642 50.3525C118.271 49.7923 118.667 49.1181 118.83 48.3298C118.999 47.5532 118.886 46.8173 118.49 46.1221C118.087 45.4154 117.522 44.9733 116.794 44.7958C116.077 44.6108 115.357 44.7019 114.633 45.0692Z" fill="#86110B"></path><path d="M114.946 56.3448L122.452 53.1431L122.711 53.9001L119.4 55.3126L120.888 59.6652L124.199 58.2527L124.458 59.0097L116.952 62.2114L116.693 61.4544L120.189 59.9634L118.7 55.6108L115.205 57.1018L114.946 56.3448Z" fill="#86110B"></path><path d="M117.353 64.5364L121.252 66.3255C121.175 65.7014 121.283 65.1316 121.576 64.6162C121.892 64.0817 122.382 63.7404 123.046 63.5922C123.814 63.4207 124.439 63.5332 124.923 63.9298C125.373 64.2796 125.667 64.8755 125.806 65.7173L126.25 68.4008L118.287 70.1796L118.156 69.3904L121.591 68.6231L121.363 67.2419L117.509 65.4836L117.353 64.5364ZM122.333 68.4574L125.378 67.7772L125.064 65.883C124.973 65.3305 124.785 64.9292 124.501 64.679C124.143 64.3906 123.71 64.3032 123.202 64.4165C122.708 64.527 122.359 64.7823 122.155 65.1824C121.973 65.5504 121.928 66.0107 122.02 66.5632L122.333 68.4574Z" fill="#86110B"></path></svg> 