<?xml version="1.0" encoding="UTF-8"?> <svg xmlns="http://www.w3.org/2000/svg" width="368" height="67" viewBox="0 0 368 67" fill="none"><path d="M90.5277 48.2665C86.5197 48.2665 83.2917 47.0545 80.8437 44.6305C78.3957 42.2065 77.1717 39.0025 77.1717 35.0185C77.1717 31.0585 78.3957 27.8665 80.8437 25.4425C83.2917 23.0185 86.5197 21.8065 90.5277 21.8065C94.5117 21.8065 97.7157 23.0185 100.14 25.4425C102.588 27.8665 103.812 31.0585 103.812 35.0185C103.812 39.0025 102.588 42.2065 100.14 44.6305C97.7157 47.0545 94.5117 48.2665 90.5277 48.2665ZM90.6357 47.6185C93.8997 47.6185 96.3837 46.5985 98.0877 44.5585C99.8157 42.5185 100.68 39.5665 100.68 35.7025C100.68 31.4065 99.7917 28.1305 98.0157 25.8745C96.2637 23.5945 93.7197 22.4545 90.3837 22.4545C87.0957 22.4545 84.5877 23.4745 82.8597 25.5145C81.1557 27.5545 80.3037 30.5065 80.3037 34.3705C80.3037 38.6665 81.1797 41.9545 82.9317 44.2345C84.7077 46.4905 87.2757 47.6185 90.6357 47.6185ZM110.931 22.7785V22.9585C111.339 23.5105 111.543 24.2545 111.543 25.1905V37.2505H113.559C115.839 37.2505 117.567 36.6385 118.743 35.4145C119.943 34.1665 120.543 32.3665 120.543 30.0145C120.543 27.6625 119.943 25.8745 118.743 24.6505C117.567 23.4025 115.839 22.7785 113.559 22.7785H110.931ZM105.567 47.9785V47.6545H106.827C107.691 47.6545 108.219 47.5585 108.411 47.3665C108.627 47.1505 108.735 46.6105 108.735 45.7465V24.3265C108.735 23.4625 108.627 22.9345 108.411 22.7425C108.219 22.5265 107.691 22.4185 106.827 22.4185H105.567V22.0945H114.639C117.351 22.0945 119.535 22.8265 121.191 24.2905C122.847 25.7305 123.675 27.6385 123.675 30.0145C123.675 32.3905 122.847 34.2985 121.191 35.7385C119.535 37.1785 117.351 37.8985 114.639 37.8985H111.543V45.7465C111.543 46.6105 111.651 47.1505 111.867 47.3665C112.083 47.5585 112.623 47.6545 113.487 47.6545H114.387V47.9785H105.567ZM139.078 48.2665C135.07 48.2665 131.842 47.0545 129.394 44.6305C126.946 42.2065 125.722 39.0025 125.722 35.0185C125.722 31.0585 126.946 27.8665 129.394 25.4425C131.842 23.0185 135.07 21.8065 139.078 21.8065C143.062 21.8065 146.266 23.0185 148.69 25.4425C151.138 27.8665 152.362 31.0585 152.362 35.0185C152.362 39.0025 151.138 42.2065 148.69 44.6305C146.266 47.0545 143.062 48.2665 139.078 48.2665ZM139.186 47.6185C142.45 47.6185 144.934 46.5985 146.638 44.5585C148.366 42.5185 149.23 39.5665 149.23 35.7025C149.23 31.4065 148.342 28.1305 146.566 25.8745C144.814 23.5945 142.27 22.4545 138.934 22.4545C135.646 22.4545 133.138 23.4745 131.41 25.5145C129.706 27.5545 128.854 30.5065 128.854 34.3705C128.854 38.6665 129.73 41.9545 131.482 44.2345C133.258 46.4905 135.826 47.6185 139.186 47.6185ZM154.118 47.9785V47.6545H155.378C156.242 47.6545 156.77 47.5585 156.962 47.3665C157.178 47.1505 157.286 46.6105 157.286 45.7465V24.3265C157.286 23.4625 157.178 22.9345 156.962 22.7425C156.77 22.5265 156.242 22.4185 155.378 22.4185H154.118V22.0945H167.654C168.086 22.0945 168.41 22.2025 168.626 22.4185H168.662L168.518 19.9705L168.842 19.9345L169.526 30.4825H168.878L168.734 27.9625C168.638 26.1385 168.002 24.8185 166.826 24.0025C165.65 23.1625 164.114 22.7425 162.218 22.7425H159.302V22.7785C159.83 23.3065 160.094 23.9305 160.094 24.6505V45.7465C160.094 46.6105 160.202 47.1505 160.418 47.3665C160.634 47.5585 161.174 47.6545 162.038 47.6545H164.378V47.9785H154.118ZM170.887 47.9785V47.6545H172.147C172.987 47.6545 173.515 47.5105 173.731 47.2225C173.947 46.9345 174.055 46.3345 174.055 45.4225V24.6505C174.055 23.7385 173.947 23.1385 173.731 22.8505C173.515 22.5625 172.987 22.4185 172.147 22.4185H170.887V22.0945H179.743V22.4185H178.807C177.967 22.4185 177.427 22.5625 177.187 22.8505C176.971 23.1385 176.863 23.7385 176.863 24.6505V45.5305L187.087 22.0945H192.739V22.4185H191.443C190.603 22.4185 190.075 22.5625 189.859 22.8505C189.643 23.1385 189.535 23.7385 189.535 24.6505V45.4225C189.535 46.3345 189.643 46.9345 189.859 47.2225C190.075 47.5105 190.603 47.6545 191.443 47.6545H192.739V47.9785H183.847V47.6545H184.819C185.659 47.6545 186.187 47.5105 186.403 47.2225C186.619 46.9345 186.727 46.3345 186.727 45.4225V24.5425L176.503 47.9785H170.887ZM205.613 40.5625H205.289V38.5825C205.289 37.0225 204.941 35.9905 204.245 35.4865C203.573 34.9825 202.625 34.7305 201.401 34.7305H199.961V45.4225C199.961 46.1425 199.697 46.7665 199.169 47.2945V47.3305H206.333C208.085 47.3305 209.381 46.9465 210.221 46.1785C211.085 45.4105 211.577 44.1745 211.697 42.4705L211.913 39.5905H212.489L211.877 49.3465L211.553 49.3105L211.661 47.6545H211.625C211.409 47.8705 210.965 47.9785 210.293 47.9785H193.985V47.6545H195.245C196.109 47.6545 196.637 47.5585 196.829 47.3665C197.045 47.1505 197.153 46.6105 197.153 45.7465V24.3265C197.153 23.4625 197.045 22.9345 196.829 22.7425C196.637 22.5265 196.109 22.4185 195.245 22.4185H193.985V22.0945H208.349C209.021 22.0945 209.465 22.2025 209.681 22.4185H209.717L209.609 20.7625L209.933 20.7265L210.581 30.4825H209.933L209.789 27.9625C209.693 26.0665 209.189 24.7225 208.277 23.9305C207.389 23.1385 206.045 22.7425 204.245 22.7425H199.169V22.7785C199.697 23.3065 199.961 23.9305 199.961 24.6505V34.0825H201.401C202.649 34.0825 203.609 33.8425 204.281 33.3625C204.953 32.8585 205.289 31.8265 205.289 30.2665V29.0065H205.613V40.5625ZM223.411 47.9785V47.6545H224.671C225.535 47.6545 226.063 47.5585 226.255 47.3665C226.471 47.1505 226.579 46.6105 226.579 45.7465V24.3265C226.579 23.4625 226.471 22.9345 226.255 22.7425C226.063 22.5265 225.535 22.4185 224.671 22.4185H223.411V22.0945H236.947C237.379 22.0945 237.703 22.2025 237.919 22.4185H237.955L237.811 19.9705L238.135 19.9345L238.819 30.4825H238.171L238.027 27.9625C237.931 26.1385 237.295 24.8185 236.119 24.0025C234.943 23.1625 233.407 22.7425 231.511 22.7425H228.595V22.7785C229.123 23.3065 229.387 23.9305 229.387 24.6505V45.7465C229.387 46.6105 229.495 47.1505 229.711 47.3665C229.927 47.5585 230.467 47.6545 231.331 47.6545H233.671V47.9785H223.411ZM262.435 27.2425C262.747 26.8105 263.095 26.4145 263.479 26.0545C265.831 28.5985 267.007 31.5865 267.007 35.0185C267.007 38.6665 265.711 41.7865 263.119 44.3785C260.527 46.9705 257.395 48.2665 253.723 48.2665C249.715 48.2665 246.487 47.0545 244.039 44.6305C241.591 42.2065 240.367 39.0025 240.367 35.0185C240.367 31.0585 241.591 27.8665 244.039 25.4425C246.487 23.0185 249.715 21.8065 253.723 21.8065C256.003 21.8065 258.127 22.3465 260.095 23.4265C259.855 23.6425 259.603 23.8585 259.339 24.0745C257.683 22.9945 255.763 22.4545 253.579 22.4545C250.291 22.4545 247.783 23.4745 246.055 25.5145C244.351 27.5545 243.499 30.5065 243.499 34.3705C243.499 38.6665 244.375 41.9545 246.127 44.2345C247.903 46.4905 250.471 47.6185 253.831 47.6185C257.071 47.6185 259.675 46.5145 261.643 44.3065C263.611 42.0745 264.595 39.1465 264.595 35.5225C264.595 32.2585 263.875 29.4985 262.435 27.2425ZM263.011 46.6465C263.275 46.4305 263.527 46.2145 263.767 45.9985C265.423 47.0785 267.271 47.6185 269.311 47.6185C271.063 47.6185 272.683 47.1745 274.171 46.2865C275.659 45.3985 276.703 44.1985 277.303 42.6865L277.915 42.9385C277.243 44.6665 276.115 45.9865 274.531 46.8985C272.971 47.8105 271.207 48.2665 269.239 48.2665C267.031 48.2665 264.955 47.7265 263.011 46.6465ZM260.779 42.7945C260.443 43.2265 260.083 43.6105 259.699 43.9465C257.419 41.4505 256.279 38.4505 256.279 34.9465C256.279 32.5705 256.855 30.3745 258.007 28.3585C259.159 26.3425 260.731 24.7465 262.723 23.5705C264.715 22.3945 266.875 21.8065 269.203 21.8065C271.795 21.8065 273.991 22.5745 275.791 24.1105C275.959 24.2785 276.091 24.5185 276.187 24.8305L276.439 24.7585C276.391 24.5185 276.355 24.1705 276.331 23.7145L276.259 21.0865H276.583L276.907 31.4905L276.259 31.5265L276.151 28.1785C276.055 26.5945 275.275 25.2385 273.811 24.1105C272.371 22.9825 270.739 22.4185 268.915 22.4185C265.867 22.4185 263.407 23.5345 261.535 25.7665C259.663 27.9745 258.727 30.9025 258.727 34.5505C258.727 37.8625 259.411 40.6105 260.779 42.7945ZM282.122 47.9785V47.6545H284.858C285.722 47.6545 286.25 47.5585 286.442 47.3665C286.658 47.1505 286.766 46.6105 286.766 45.7465V22.7425H284.606C282.806 22.7425 281.57 23.0185 280.898 23.5705C280.226 24.0985 279.842 25.2025 279.746 26.8825L279.638 28.3585L278.99 28.3225L279.53 19.9705L279.926 20.0065L279.746 22.0945H296.522L296.342 20.0425L296.738 20.0065L297.278 28.3225L296.63 28.3585L296.522 26.8825C296.402 25.2025 296.006 24.0985 295.334 23.5705C294.662 23.0185 293.438 22.7425 291.662 22.7425H289.574V45.7465C289.574 46.6105 289.67 47.1505 289.862 47.3665C290.078 47.5585 290.618 47.6545 291.482 47.6545H294.146V47.9785H282.122ZM298.469 47.9785V47.6545H299.729C300.569 47.6545 301.097 47.5105 301.313 47.2225C301.529 46.9345 301.637 46.3345 301.637 45.4225V24.6505C301.637 23.7385 301.529 23.1385 301.313 22.8505C301.097 22.5625 300.569 22.4185 299.729 22.4185H298.469V22.0945H307.325V22.4185H306.389C305.549 22.4185 305.009 22.5625 304.769 22.8505C304.553 23.1385 304.445 23.7385 304.445 24.6505V45.5305L314.669 22.0945H320.321V22.4185H319.025C318.185 22.4185 317.657 22.5625 317.441 22.8505C317.225 23.1385 317.117 23.7385 317.117 24.6505V45.4225C317.117 46.3345 317.225 46.9345 317.441 47.2225C317.657 47.5105 318.185 47.6545 319.025 47.6545H320.321V47.9785H311.429V47.6545H312.401C313.241 47.6545 313.769 47.5105 313.985 47.2225C314.201 46.9345 314.309 46.3345 314.309 45.4225V24.5425L304.085 47.9785H298.469ZM323.799 21.6265C323.799 21.4105 324.219 21.3025 325.059 21.3025C325.923 21.3025 326.355 21.4105 326.355 21.6265C326.355 23.9785 326.199 27.1585 325.887 31.1665C325.575 35.1505 325.419 38.3065 325.419 40.6345H324.771C324.771 38.2825 324.603 35.1145 324.267 31.1305C323.955 27.1465 323.799 23.9785 323.799 21.6265ZM325.059 45.0985C325.539 45.0985 325.923 45.2425 326.211 45.5305C326.523 45.8185 326.679 46.2145 326.679 46.7185C326.679 47.1985 326.535 47.5825 326.247 47.8705C325.959 48.1585 325.563 48.3025 325.059 48.3025C324.579 48.3025 324.195 48.1705 323.907 47.9065C323.619 47.6185 323.475 47.2225 323.475 46.7185C323.475 46.2385 323.607 45.8545 323.871 45.5665C324.159 45.2545 324.555 45.0985 325.059 45.0985Z" fill="black"></path><path d="M81.2188 4.1721C81.2188 4.76751 81.0203 5.06522 80.6234 5.06522C80.2016 5.06522 79.6434 4.61866 78.9488 3.72554C78.2541 2.80761 77.6959 2.34864 77.2742 2.34864C74.6444 2.34864 71.6177 4.03565 68.1941 7.40967C70.1292 10.0394 71.4441 12.297 72.1387 14.1825C73.2799 17.234 73.8505 20.67 73.8505 24.4906C73.8505 29.9486 72.3496 34.9476 69.3477 39.4876C66.4203 43.9284 62.4632 47.3521 57.4766 49.7585C54.698 51.0982 52.1675 51.7681 49.8851 51.7681C47.2802 51.7681 44.3527 51.2099 41.1027 50.0935C37.7039 52.4999 34.7144 53.7032 32.1343 53.7032C30.4969 53.7032 28.9588 53.3682 27.5198 52.6984C25.6344 51.8301 24.6916 50.5524 24.6916 48.8654C24.6916 46.6078 26.2918 45.479 29.4921 45.479C31.1047 45.479 34.8385 46.583 40.6934 48.791C41.1896 48.2948 41.723 47.6994 42.2936 47.0047C44.2287 44.6727 46.2878 41.3855 48.471 37.1432C49.3641 35.3818 50.9891 32.2062 53.3459 27.6166C54.3135 25.7559 55.3059 23.92 56.323 22.109C58.9528 17.4697 61.322 13.7856 63.4308 11.0566C63.8029 10.5604 64.8201 9.34476 66.4823 7.40967L64.4355 5.73506C61.26 3.13012 57.0921 1.82765 51.9318 1.82765C45.5807 1.82765 39.7755 4.61866 34.516 10.2007C29.3061 15.6835 26.7011 21.6128 26.7011 27.9887C26.7011 30.4696 27.3214 32.5039 28.5618 34.0917C29.9263 35.8531 31.8118 36.7338 34.2183 36.7338C38.7335 36.7338 42.9386 33.918 46.8336 28.2864C50.282 23.2998 52.0063 18.9086 52.0063 15.1128C52.0063 13.5003 51.6217 12.1606 50.8527 11.0938C49.9843 9.87816 48.7811 9.27034 47.2429 9.27034C43.8441 9.27034 40.7182 11.069 37.8652 14.6663C35.2602 17.9659 33.9578 21.129 33.9578 24.1557C33.9578 24.9 34.0942 25.8179 34.3671 26.9095V27.4305C34.2679 27.5297 34.1562 27.5793 34.0322 27.5793C33.2631 27.5793 32.8786 26.6738 32.8786 24.8628C32.8786 21.2407 34.3423 17.5813 37.2698 13.8848C40.3709 9.96499 43.6829 8.00508 47.2057 8.00508C51.1255 8.00508 53.0855 10.4612 53.0855 15.3733C53.0855 19.7893 51.1876 24.5527 47.3918 29.6633C43.2487 35.2453 38.8079 38.0363 34.0694 38.0363C31.0427 38.0363 28.7107 36.6222 27.0733 33.794C25.808 31.6108 25.1754 29.1299 25.1754 26.3513C25.1754 23.4735 25.9941 20.2855 27.6315 16.7874C29.1696 13.4382 31.0303 10.7093 33.2135 8.6005C38.6715 3.29138 44.9853 0.636824 52.1551 0.636824C58.4318 0.636824 63.5176 2.62154 67.4126 6.59097C71.3572 2.84482 74.694 0.971745 77.423 0.971745C78.3658 0.971745 79.2341 1.28186 80.028 1.90208C80.8219 2.4975 81.2188 3.25417 81.2188 4.1721ZM71.7666 20.6949C71.7666 16.8247 70.8859 13.4631 69.1244 10.61C68.7771 10.0642 68.2189 9.30755 67.4498 8.34C65.3411 10.2007 63.3191 13.1405 61.384 17.1596C61.26 17.4077 60.3421 19.4172 58.6303 23.1882C58.1093 24.3542 57.4394 25.8427 56.6207 27.6538C54.115 33.2606 51.5101 37.8627 48.8059 41.4599C47.367 43.3454 45.1838 45.9132 42.2563 49.1631C45.6552 49.9818 48.4586 50.3912 50.6666 50.3912C54.6112 50.3912 58.3077 48.6173 61.7562 45.0697C64.7333 41.9933 67.1397 38.2224 68.9756 33.7568C70.8363 29.2912 71.7666 24.9372 71.7666 20.6949ZM39.8747 49.7958C34.6896 47.7118 31.1047 46.6698 29.12 46.6698C27.0857 46.6698 26.0685 47.4513 26.0685 49.0143C26.0685 50.1803 26.8748 51.061 28.4874 51.6564C29.6286 52.0782 30.9435 52.2891 32.432 52.2891C34.3919 52.2891 36.8728 51.458 39.8747 49.7958Z" fill="black"></path></svg> 