<?xml version="1.0" encoding="UTF-8"?> <svg xmlns="http://www.w3.org/2000/svg" width="242" height="70" viewBox="0 0 242 70" fill="none"><path d="M78.0528 2.02273C77.5394 2.42607 77.0078 2.86607 76.4578 3.34273C75.9078 3.8194 75.3944 4.35107 74.9178 4.93773C73.3778 6.80773 71.8378 9.08107 70.2978 11.7577C68.7944 14.4344 67.1078 17.2577 65.2378 20.2277C66.2644 20.2644 67.2728 20.2827 68.2628 20.2827C69.2894 20.2827 70.3344 20.2827 71.3978 20.2827H74.7528C76.3294 17.8627 78.0894 15.4794 80.0328 13.1327C82.0128 10.7494 84.0294 8.62273 86.0828 6.75273C88.1361 4.88273 90.1894 3.3794 92.2428 2.24273C94.3328 1.0694 96.2761 0.482733 98.0728 0.482733C98.9528 0.482733 99.6311 0.6294 100.108 0.922734C100.584 1.1794 100.933 1.49107 101.153 1.85773C101.409 2.18773 101.556 2.51773 101.593 2.84773C101.666 3.17773 101.703 3.39773 101.703 3.50773C101.703 4.05773 101.556 4.60773 101.263 5.15773C100.969 5.70773 100.584 6.22107 100.108 6.69773C99.6311 7.13773 99.0994 7.54107 98.5128 7.90773C97.9261 8.2744 97.3394 8.53107 96.7528 8.67773L96.5328 8.18273C97.0094 8.03607 97.5044 7.81607 98.0178 7.52273C98.5678 7.19273 99.0628 6.82607 99.5028 6.42273C99.9428 5.98273 100.309 5.5244 100.603 5.04773C100.896 4.5344 101.043 4.02107 101.043 3.50773C101.043 1.7844 100.071 0.922734 98.1278 0.922734C96.8811 0.922734 95.3594 1.58273 93.5628 2.90273C91.7661 4.22273 89.8778 5.94607 87.8978 8.07273C85.9178 10.1994 83.9378 12.5644 81.9578 15.1677C80.0144 17.7711 78.2544 20.3744 76.6778 22.9777C75.1011 25.5811 73.8178 28.0194 72.8278 30.2927C71.8744 32.5661 71.3978 34.4177 71.3978 35.8477C71.3978 36.6544 71.5811 37.2411 71.9478 37.6077C72.3511 37.9744 72.8828 38.1577 73.5428 38.1577C75.4128 38.1577 77.2094 37.5161 78.9328 36.2327C80.6561 34.9127 82.6178 32.9144 84.8178 30.2377L85.1478 30.5677C84.2678 31.6677 83.3328 32.7494 82.3428 33.8127C81.3528 34.8761 80.3261 35.8111 79.2628 36.6177C78.1994 37.4244 77.0811 38.0661 75.9078 38.5427C74.7711 39.0561 73.6161 39.3127 72.4428 39.3127C71.3794 39.3127 70.4261 38.9827 69.5828 38.3227C68.7761 37.6627 68.3728 36.5627 68.3728 35.0227C68.3728 33.4827 68.8861 31.4844 69.9128 29.0277C70.9394 26.5711 72.3144 23.9861 74.0378 21.2727C73.3044 21.1627 72.4611 21.0711 71.5078 20.9977C70.5911 20.9244 69.6561 20.8877 68.7028 20.8877C67.9694 20.8877 67.2728 20.9061 66.6128 20.9427C65.9527 20.9794 65.3111 21.0344 64.6878 21.1077C63.5144 22.9411 62.2678 24.7744 60.9478 26.6077C59.6278 28.4044 58.1611 30.1644 56.5478 31.8877C58.4544 33.2811 59.8844 34.9861 60.8378 37.0027C61.8278 38.9827 62.3228 41.0911 62.3228 43.3277C62.3228 45.5277 61.8461 47.7094 60.8928 49.8727C59.9394 52.0361 58.5094 53.9794 56.6028 55.7027C54.6961 57.4627 52.2761 58.8744 49.3428 59.9377C46.4461 61.0377 43.0544 61.5877 39.1678 61.5877C36.2344 61.5877 33.3194 61.2211 30.4228 60.4877C27.5628 59.7544 24.9044 58.6361 22.4478 57.1327C19.9911 55.6661 17.8461 53.8144 16.0128 51.5777C14.1794 49.3411 12.8594 46.7011 12.0528 43.6577C10.4394 43.0711 8.89942 42.3194 7.43275 41.4027C6.00275 40.4861 4.75608 39.3861 3.69275 38.1027C2.62942 36.8561 1.78608 35.4261 1.16275 33.8127C0.539416 32.1994 0.22775 30.3661 0.22775 28.3127C0.22775 26.3327 0.649416 24.4261 1.49275 22.5927C2.37275 20.7594 3.58275 19.1644 5.12275 17.8077C6.66275 16.4144 8.51442 15.3144 10.6777 14.5077C12.8411 13.6644 15.2244 13.2427 17.8278 13.2427C18.8911 13.2427 19.9911 13.3344 21.1278 13.5177C22.3011 13.7011 23.4561 13.9577 24.5928 14.2877C27.9294 11.9777 31.8711 10.1261 36.4178 8.73273C40.9644 7.30273 46.1894 6.58773 52.0928 6.58773C53.7061 6.58773 55.3928 6.55107 57.1528 6.47773C58.9128 6.4044 60.7094 6.25773 62.5428 6.03773C64.3761 5.81773 66.2094 5.50607 68.0428 5.10273C69.9128 4.66273 71.7461 4.11273 73.5428 3.45273C74.0928 3.23273 74.6611 2.95773 75.2478 2.62773C75.8344 2.26107 76.3844 1.8944 76.8978 1.52773C77.4111 1.16107 77.8878 0.849399 78.3278 0.592732C78.7678 0.336066 79.1344 0.207733 79.4278 0.207733C79.7211 0.207733 79.8678 0.317733 79.8678 0.537732C79.8678 0.684399 79.7394 0.886066 79.4828 1.14273C79.2628 1.3994 78.7861 1.69273 78.0528 2.02273ZM45.9878 28.8077C47.6378 28.8077 49.1411 28.9727 50.4978 29.3027C51.8544 29.5961 53.1011 29.9994 54.2378 30.5127C55.0811 29.4494 55.9061 28.3861 56.7128 27.3227C57.5194 26.2227 58.3078 25.1044 59.0778 23.9677C60.2878 22.2077 61.4978 20.4294 62.7078 18.6327C63.9544 16.8361 65.2011 15.0761 66.4478 13.3527C67.7311 11.5927 69.0511 9.88773 70.4078 8.23773C71.8011 6.58773 73.2678 5.0294 74.8078 3.56273C72.8278 4.73607 70.8111 5.65273 68.7578 6.31273C66.7411 6.93607 64.7244 7.3944 62.7078 7.68773C60.6911 7.98107 58.6928 8.1644 56.7128 8.23773C54.7328 8.2744 52.7894 8.29273 50.8828 8.29273C45.6394 8.29273 40.9461 8.8794 36.8028 10.0527C32.6594 11.1894 29.0111 12.7477 25.8578 14.7277C26.9944 15.1677 28.0578 15.6994 29.0478 16.3227C30.0378 16.9094 30.8994 17.6244 31.6328 18.4677C32.3661 19.2744 32.9528 20.1911 33.3928 21.2177C33.8328 22.2077 34.0527 23.3077 34.0527 24.5177C34.0527 26.0944 33.6311 27.5061 32.7878 28.7527C31.9444 29.9627 30.8444 30.9894 29.4878 31.8327C28.1311 32.6394 26.6094 33.2627 24.9228 33.7027C23.2361 34.1427 21.5494 34.3627 19.8628 34.3627L19.8078 33.8677C23.7678 33.6844 26.7928 32.7861 28.8828 31.1727C31.0094 29.5227 32.0728 27.2861 32.0728 24.4627C32.0728 23.3261 31.8711 22.2811 31.4678 21.3277C31.1011 20.3744 30.5878 19.5311 29.9278 18.7977C29.2678 18.0277 28.4978 17.3677 27.6178 16.8177C26.7744 16.2677 25.8761 15.7911 24.9228 15.3877C22.7228 16.8544 20.7978 18.4677 19.1477 20.2277C17.5344 21.9877 16.1777 23.8211 15.0777 25.7277C13.9777 27.6344 13.1527 29.5777 12.6028 31.5577C12.0528 33.5377 11.7778 35.4811 11.7778 37.3877C11.7778 38.4511 11.8328 39.4594 11.9427 40.4127C12.0894 41.4027 12.2728 42.3744 12.4928 43.3277C14.2894 43.9511 16.1227 44.4094 17.9927 44.7027C19.8994 45.0327 21.7694 45.1977 23.6028 45.1977C24.9228 45.1977 26.1878 45.1427 27.3978 45.0327C28.6444 44.9594 29.8361 44.8311 30.9727 44.6477C30.9361 44.3544 30.8994 44.0427 30.8628 43.7127C30.8628 43.4194 30.8628 43.1261 30.8628 42.8327C30.8628 40.7427 31.2661 38.8544 32.0728 37.1677C32.9161 35.4444 34.0161 33.9594 35.3728 32.7127C36.7661 31.4661 38.3794 30.5127 40.2128 29.8527C42.0461 29.1561 43.9711 28.8077 45.9878 28.8077ZM34.9328 50.6427C34.0161 50.2394 33.2094 49.5794 32.5127 48.6627C31.8528 47.7461 31.3761 46.5911 31.0828 45.1977C28.6994 45.5277 26.2061 45.6927 23.6028 45.6927C21.8428 45.6927 20.0094 45.5461 18.1028 45.2527C16.2328 44.9594 14.4178 44.5011 12.6578 43.8777C13.4644 46.7377 14.7661 49.2311 16.5628 51.3577C18.3594 53.5211 20.4494 55.3177 22.8328 56.7477C25.2528 58.1777 27.8378 59.2411 30.5878 59.9377C33.3744 60.6711 36.1611 61.0377 38.9478 61.0377C42.5411 61.0377 45.6578 60.5061 48.2978 59.4427C50.9378 58.3794 53.1194 57.0044 54.8428 55.3177C56.6027 53.6311 57.9044 51.7244 58.7477 49.5977C59.6278 47.5077 60.0678 45.3994 60.0678 43.2727C60.0678 41.2561 59.6828 39.3311 58.9128 37.4977C58.1794 35.6644 57.0794 34.1061 55.6128 32.8227C54.1461 34.2894 52.5694 35.6827 50.8828 37.0027C49.1961 38.3227 47.3628 39.5144 45.3828 40.5777C43.4028 41.6411 41.2578 42.5577 38.9478 43.3277C36.6744 44.0977 34.2178 44.6844 31.5778 45.0877C31.8711 46.5544 32.3661 47.7094 33.0628 48.5527C33.7961 49.3961 34.5111 49.9644 35.2078 50.2577L34.9328 50.6427ZM11.2828 37.2777C11.2828 35.4077 11.5394 33.4827 12.0528 31.5027C12.5661 29.4861 13.3361 27.5244 14.3628 25.6177C15.3894 23.6744 16.6728 21.8044 18.2128 20.0077C19.7894 18.1744 21.6228 16.4877 23.7127 14.9477C22.7228 14.6177 21.7144 14.3794 20.6878 14.2327C19.6978 14.0494 18.7811 13.9577 17.9378 13.9577C15.3711 13.9577 13.0244 14.3611 10.8978 15.1677C8.80775 15.9377 6.99275 16.9827 5.45275 18.3027C3.94942 19.6227 2.77608 21.1627 1.93275 22.9227C1.12608 24.6461 0.72275 26.4611 0.72275 28.3677C0.72275 30.3111 1.01608 32.0527 1.60275 33.5927C2.18942 35.1327 2.97775 36.5077 3.96775 37.7177C4.99442 38.9277 6.18608 39.9727 7.54275 40.8527C8.89942 41.7694 10.3661 42.5211 11.9427 43.1077C11.5028 41.3111 11.2828 39.3677 11.2828 37.2777ZM31.3578 42.8327C31.3578 43.1261 31.3578 43.4011 31.3578 43.6577C31.3578 43.9511 31.3944 44.2444 31.4678 44.5377C34.0344 44.0977 36.3628 43.4561 38.4528 42.6127C40.5794 41.8061 42.5411 40.8161 44.3378 39.6427C46.1344 38.5061 47.7844 37.2411 49.2878 35.8477C50.7911 34.4544 52.2028 32.9694 53.5228 31.3927C52.5328 30.8061 51.4144 30.3661 50.1678 30.0727C48.9578 29.7427 47.6378 29.5777 46.2078 29.5777C44.2278 29.5777 42.3394 29.8894 40.5428 30.5127C38.7828 31.1361 37.2061 32.0344 35.8127 33.2077C34.4561 34.3444 33.3744 35.7377 32.5678 37.3877C31.7611 39.0011 31.3578 40.8161 31.3578 42.8327ZM92.4335 27.1577C91.6269 27.1577 90.8019 27.4877 89.9585 28.1477C89.1152 28.8077 88.3269 29.5961 87.5935 30.5127C86.8969 31.3927 86.3102 32.3277 85.8335 33.3177C85.3935 34.3077 85.1735 35.1327 85.1735 35.7927C85.1735 36.0494 85.2285 36.3427 85.3385 36.6727C85.4485 36.9661 85.7969 37.1127 86.3835 37.1127C86.8602 37.1127 87.3552 36.9477 87.8685 36.6177C88.4185 36.2877 88.9685 35.8661 89.5185 35.3527C90.0685 34.8394 90.5819 34.2711 91.0585 33.6477C91.5719 33.0244 92.0485 32.4011 92.4885 31.7777C92.8919 31.1911 93.2402 30.6044 93.5335 30.0177C93.8635 29.4311 94.0285 28.9361 94.0285 28.5327C94.0285 28.0194 93.8635 27.6711 93.5335 27.4877C93.2035 27.2677 92.8369 27.1577 92.4335 27.1577ZM95.5135 27.7077C95.7335 27.4144 95.9535 27.1761 96.1735 26.9927C96.3935 26.8094 96.7235 26.7177 97.1635 26.7177H98.2085C98.5019 26.7177 98.6485 26.8277 98.6485 27.0477C98.6485 27.0844 98.6302 27.1394 98.5935 27.2127C98.5935 27.2494 98.5569 27.3411 98.4835 27.4877C98.1535 28.0011 97.6952 28.6611 97.1085 29.4677C96.5219 30.2744 95.9535 31.1177 95.4035 31.9977C94.8535 32.8411 94.3585 33.6477 93.9185 34.4177C93.5152 35.1511 93.3135 35.7194 93.3135 36.1227C93.3135 36.5627 93.5152 36.7827 93.9185 36.7827C94.8719 36.7827 95.7885 36.3794 96.6685 35.5727C97.5485 34.7294 98.7402 33.4277 100.244 31.6677L100.629 31.9427C100.042 32.6394 99.4552 33.3361 98.8685 34.0327C98.3185 34.7294 97.7319 35.3527 97.1085 35.9027C96.4852 36.4527 95.8252 36.9111 95.1285 37.2777C94.4319 37.6077 93.6435 37.7727 92.7635 37.7727C92.1402 37.7727 91.6085 37.6627 91.1685 37.4427C90.7285 37.1861 90.5085 36.7644 90.5085 36.1777C90.5085 35.9944 90.5452 35.7744 90.6185 35.5177C90.7285 35.2244 90.8935 34.9127 91.1135 34.5827V34.5277C90.1602 35.5911 89.2252 36.4161 88.3085 37.0027C87.4285 37.5527 86.4385 37.8277 85.3385 37.8277C84.2385 37.8277 83.4869 37.5894 83.0835 37.1127C82.7169 36.6361 82.5335 36.1044 82.5335 35.5177C82.5335 34.5277 82.8085 33.5011 83.3585 32.4377C83.9452 31.3744 84.6969 30.4027 85.6135 29.5227C86.5302 28.6427 87.5569 27.9277 88.6935 27.3777C89.8302 26.8277 90.9669 26.5527 92.1035 26.5527C93.0202 26.5527 93.7169 26.7177 94.1935 27.0477C94.6702 27.3411 95.0185 27.6894 95.2385 28.0927L95.5135 27.7077ZM121.078 37.7727C120.454 37.7727 119.923 37.6444 119.483 37.3877C119.043 37.0944 118.823 36.6544 118.823 36.0677C118.823 35.6277 118.933 35.1327 119.153 34.5827C119.373 33.9961 119.721 33.3911 120.198 32.7677L120.143 32.7127C118.713 34.3261 117.429 35.5727 116.293 36.4527C115.193 37.3327 114.001 37.7727 112.718 37.7727C112.094 37.7727 111.563 37.6444 111.123 37.3877C110.683 37.0944 110.463 36.6544 110.463 36.0677C110.463 35.2977 110.719 34.4727 111.233 33.5927C111.783 32.7127 112.296 31.9611 112.773 31.3377L112.718 31.2827C111.984 32.0894 111.196 32.8777 110.353 33.6477C109.509 34.4177 108.666 35.1144 107.823 35.7377C107.016 36.3244 106.228 36.8011 105.458 37.1677C104.724 37.5344 104.101 37.7177 103.588 37.7177C102.378 37.7177 101.773 37.2411 101.773 36.2877C101.773 35.7744 101.919 35.2794 102.213 34.8027C102.506 34.3261 102.873 33.7761 103.313 33.1527C103.643 32.6761 103.991 32.1994 104.358 31.7227C104.724 31.2461 105.054 30.7877 105.348 30.3477C105.678 29.8711 105.934 29.4494 106.118 29.0827C106.301 28.6794 106.393 28.3311 106.393 28.0377C106.393 27.6344 106.191 27.4327 105.788 27.4327C105.128 27.4327 104.321 27.9094 103.368 28.8627C102.414 29.7794 101.406 30.8427 100.343 32.0527L99.9028 31.8327C101.186 30.3294 102.396 29.0644 103.533 28.0377C104.669 26.9744 105.806 26.4427 106.943 26.4427C107.676 26.4427 108.208 26.5894 108.538 26.8827C108.904 27.1761 109.088 27.5794 109.088 28.0927C109.088 28.7894 108.831 29.5594 108.318 30.4027C107.841 31.2461 107.309 32.0527 106.723 32.8227C106.173 33.5927 105.641 34.3077 105.128 34.9677C104.651 35.5911 104.413 36.0677 104.413 36.3977C104.413 36.6177 104.523 36.7277 104.743 36.7277C105.366 36.7277 106.191 36.3611 107.218 35.6277C108.244 34.8944 109.289 34.0327 110.353 33.0427C111.416 32.0527 112.406 31.0627 113.323 30.0727C114.239 29.0461 114.918 28.2394 115.358 27.6527C115.578 27.3594 115.798 27.1394 116.018 26.9927C116.274 26.8094 116.641 26.7177 117.118 26.7177H117.998C118.291 26.7177 118.438 26.8277 118.438 27.0477C118.438 27.0844 118.419 27.1394 118.383 27.2127C118.383 27.2494 118.346 27.3411 118.273 27.4877C117.833 28.1477 117.319 28.8994 116.733 29.7427C116.146 30.5861 115.578 31.4294 115.028 32.2727C114.514 33.0794 114.074 33.8494 113.708 34.5827C113.341 35.2794 113.158 35.8111 113.158 36.1777C113.158 36.5811 113.396 36.7827 113.873 36.7827C114.459 36.7827 115.211 36.4161 116.128 35.6827C117.081 34.9494 118.053 34.0877 119.043 33.0977C120.033 32.1077 120.949 31.0994 121.793 30.0727C122.636 29.0461 123.278 28.2394 123.718 27.6527C123.938 27.3594 124.158 27.1394 124.378 26.9927C124.634 26.8094 125.001 26.7177 125.478 26.7177H126.358C126.651 26.7177 126.798 26.8277 126.798 27.0477C126.798 27.0844 126.779 27.1394 126.743 27.2127C126.743 27.2494 126.706 27.3411 126.633 27.4877C126.193 28.1477 125.679 28.8994 125.093 29.7427C124.506 30.5861 123.938 31.4294 123.388 32.2727C122.874 33.0794 122.434 33.8494 122.068 34.5827C121.701 35.2794 121.518 35.8111 121.518 36.1777C121.518 36.5811 121.756 36.7827 122.233 36.7827C123.186 36.7827 124.103 36.3794 124.983 35.5727C125.863 34.7294 127.054 33.4277 128.558 31.6677L128.943 31.9427C128.356 32.6394 127.769 33.3361 127.183 34.0327C126.633 34.7294 126.046 35.3527 125.423 35.9027C124.799 36.4527 124.139 36.9111 123.443 37.2777C122.746 37.6077 121.958 37.7727 121.078 37.7727ZM147.219 27.1577C146.412 27.1577 145.587 27.4877 144.744 28.1477C143.9 28.8077 143.112 29.5961 142.379 30.5127C141.682 31.3927 141.095 32.3277 140.619 33.3177C140.179 34.3077 139.959 35.1327 139.959 35.7927C139.959 36.0494 140.014 36.3427 140.124 36.6727C140.234 36.9661 140.582 37.1127 141.169 37.1127C141.645 37.1127 142.14 36.9477 142.654 36.6177C143.204 36.2877 143.754 35.8661 144.304 35.3527C144.854 34.8394 145.367 34.2711 145.844 33.6477C146.357 33.0244 146.834 32.4011 147.274 31.7777C147.677 31.1911 148.025 30.6044 148.319 30.0177C148.649 29.4311 148.814 28.9361 148.814 28.5327C148.814 28.0194 148.649 27.6711 148.319 27.4877C147.989 27.2677 147.622 27.1577 147.219 27.1577ZM150.299 27.7077C150.519 27.4144 150.739 27.1761 150.959 26.9927C151.179 26.8094 151.509 26.7177 151.949 26.7177H152.994C153.287 26.7177 153.434 26.8277 153.434 27.0477C153.434 27.0844 153.415 27.1394 153.379 27.2127C153.379 27.2494 153.342 27.3411 153.269 27.4877C152.939 28.0011 152.48 28.6611 151.894 29.4677C151.307 30.2744 150.739 31.1177 150.189 31.9977C149.639 32.8411 149.144 33.6477 148.704 34.4177C148.3 35.1511 148.099 35.7194 148.099 36.1227C148.099 36.5627 148.3 36.7827 148.704 36.7827C149.657 36.7827 150.574 36.3794 151.454 35.5727C152.334 34.7294 153.525 33.4277 155.029 31.6677L155.414 31.9427C154.827 32.6394 154.24 33.3361 153.654 34.0327C153.104 34.7294 152.517 35.3527 151.894 35.9027C151.27 36.4527 150.61 36.9111 149.914 37.2777C149.217 37.6077 148.429 37.7727 147.549 37.7727C146.925 37.7727 146.394 37.6627 145.954 37.4427C145.514 37.1861 145.294 36.7644 145.294 36.1777C145.294 35.9944 145.33 35.7744 145.404 35.5177C145.514 35.2244 145.679 34.9127 145.899 34.5827V34.5277C144.945 35.5911 144.01 36.4161 143.094 37.0027C142.214 37.5527 141.224 37.8277 140.124 37.8277C139.024 37.8277 138.272 37.5894 137.869 37.1127C137.502 36.6361 137.319 36.1044 137.319 35.5177C137.319 34.5277 137.594 33.5011 138.144 32.4377C138.73 31.3744 139.482 30.4027 140.399 29.5227C141.315 28.6427 142.342 27.9277 143.479 27.3777C144.615 26.8277 145.752 26.5527 146.889 26.5527C147.805 26.5527 148.502 26.7177 148.979 27.0477C149.455 27.3411 149.804 27.6894 150.024 28.0927L150.299 27.7077ZM161.453 25.5077C160.5 26.9011 159.73 28.2027 159.143 29.4127C158.556 30.6227 158.098 31.6861 157.768 32.6027C157.438 33.4827 157.2 34.2161 157.053 34.8027C156.943 35.3894 156.888 35.7561 156.888 35.9027C156.888 36.8561 157.401 37.3327 158.428 37.3327C159.088 37.3327 159.785 37.0944 160.518 36.6177C161.288 36.1411 161.985 35.5544 162.608 34.8577C163.268 34.1244 163.8 33.3544 164.203 32.5477C164.643 31.7044 164.9 30.9527 164.973 30.2927C164.936 29.9261 164.845 29.6694 164.698 29.5227C164.551 29.3761 164.386 29.2661 164.203 29.1927C164.056 29.0827 163.91 28.9727 163.763 28.8627C163.616 28.7527 163.543 28.5327 163.543 28.2027C163.543 27.7627 163.745 27.3594 164.148 26.9927C164.551 26.6261 165.028 26.4427 165.578 26.4427C166.201 26.4427 166.696 26.6627 167.063 27.1027C167.43 27.5061 167.613 28.0194 167.613 28.6427C167.613 29.7794 167.301 30.9161 166.678 32.0527C166.055 33.1527 165.248 34.1427 164.258 35.0227C163.305 35.9027 162.241 36.6177 161.068 37.1677C159.895 37.6811 158.776 37.9377 157.713 37.9377C156.32 37.9377 155.421 37.6811 155.018 37.1677C154.615 36.6177 154.413 35.9761 154.413 35.2427C154.413 34.2161 154.78 32.8594 155.513 31.1727C156.283 29.4494 157.273 27.6161 158.483 25.6727C159.73 23.7294 161.123 21.7494 162.663 19.7327C164.24 17.7161 165.816 15.9011 167.393 14.2877C169.006 12.6744 170.565 11.3544 172.068 10.3277C173.571 9.30107 174.873 8.78773 175.973 8.78773C176.633 8.78773 177.201 8.95273 177.678 9.28273C178.155 9.61273 178.393 10.1261 178.393 10.8227C178.393 11.6294 177.99 12.6927 177.183 14.0127C176.376 15.2961 175.24 16.6527 173.773 18.0827C172.306 19.4761 170.528 20.8511 168.438 22.2077C166.348 23.5277 164.02 24.6277 161.453 25.5077ZM174.213 10.0527C173.48 10.0527 172.6 10.5294 171.573 11.4827C170.583 12.4361 169.52 13.6461 168.383 15.1127C167.283 16.5794 166.165 18.1744 165.028 19.8977C163.891 21.6211 162.828 23.2527 161.838 24.7927L161.893 24.8477C164.24 24.0044 166.275 22.9777 167.998 21.7677C169.721 20.5577 171.151 19.3294 172.288 18.0827C173.425 16.7994 174.268 15.5711 174.818 14.3977C175.405 13.1877 175.698 12.1977 175.698 11.4277C175.698 11.0611 175.57 10.7494 175.313 10.4927C175.093 10.1994 174.726 10.0527 174.213 10.0527ZM177.601 26.2227C178.591 26.2227 179.379 26.4061 179.966 26.7727C180.589 27.1027 180.901 27.7077 180.901 28.5877C180.901 29.1011 180.608 29.7061 180.021 30.4027C179.434 31.0627 178.298 31.8144 176.611 32.6577C175.878 33.0244 175.291 33.3727 174.851 33.7027C174.448 33.9961 174.136 34.2894 173.916 34.5827C173.696 34.8394 173.549 35.0961 173.476 35.3527C173.439 35.5727 173.421 35.7927 173.421 36.0127C173.458 36.5261 173.843 36.8194 174.576 36.8927C175.273 36.9294 175.914 36.8744 176.501 36.7277C177.088 36.5811 177.674 36.3244 178.261 35.9577C178.848 35.5544 179.471 35.0227 180.131 34.3627C180.828 33.7027 181.616 32.8777 182.496 31.8877L182.881 32.1627C182.038 33.0794 181.268 33.9044 180.571 34.6377C179.911 35.3344 179.233 35.9211 178.536 36.3977C177.839 36.8744 177.124 37.2411 176.391 37.4977C175.658 37.7177 174.851 37.8277 173.971 37.8277C172.944 37.8277 172.156 37.6627 171.606 37.3327C171.093 36.9661 170.836 36.3427 170.836 35.4627C170.836 34.5827 171.148 33.8127 171.771 33.1527C172.431 32.4561 173.494 31.7777 174.961 31.1177C177.198 30.1277 178.316 29.2111 178.316 28.3677C178.316 28.0011 178.151 27.7261 177.821 27.5427C177.528 27.3594 177.143 27.2677 176.666 27.2677C176.153 27.2677 175.584 27.4327 174.961 27.7627C174.338 28.0927 173.678 28.5144 172.981 29.0277C172.321 29.5411 171.643 30.1277 170.946 30.7877C170.286 31.4477 169.663 32.1261 169.076 32.8227L168.636 32.5477C169.296 31.7777 169.993 31.0261 170.726 30.2927C171.496 29.5227 172.266 28.8444 173.036 28.2577C173.806 27.6344 174.576 27.1394 175.346 26.7727C176.116 26.4061 176.868 26.2227 177.601 26.2227ZM196.426 34.1427C193.493 38.9827 190.706 43.5844 188.066 47.9477C185.426 52.3477 182.823 56.8027 180.256 61.3127C179.706 62.3027 179.156 63.2927 178.606 64.2827C178.02 65.2727 177.653 66.0794 177.506 66.7027C177.433 67.0694 177.396 67.2894 177.396 67.3627C177.396 67.7661 177.543 67.9677 177.836 67.9677C178.02 67.9677 178.203 67.9127 178.386 67.8027C178.57 67.6927 178.808 67.4727 179.101 67.1427C179.358 66.8127 179.67 66.3544 180.036 65.7677C180.403 65.1811 180.861 64.4111 181.411 63.4577C182.108 62.2477 182.915 60.7994 183.831 59.1127C184.785 57.4627 185.811 55.6661 186.911 53.7227C188.011 51.7794 189.185 49.7627 190.431 47.6727C191.678 45.6194 192.943 43.5844 194.226 41.5677C195.51 39.5511 196.811 37.6261 198.131 35.7927C199.451 33.9594 200.753 32.3277 202.036 30.8977L202.366 31.2277C201.156 32.5844 199.91 34.1611 198.626 35.9577C197.343 37.7177 196.06 39.5877 194.776 41.5677C193.493 43.5844 192.228 45.6377 190.981 47.7277C189.735 49.8177 188.543 51.8527 187.406 53.8327C186.306 55.8494 185.261 57.7561 184.271 59.5527C183.281 61.3494 182.42 62.9261 181.686 64.2827C180.806 65.8961 179.963 67.2527 179.156 68.3527C178.313 69.4527 177.323 70.0027 176.186 70.0027C175.563 70.0027 175.141 69.8194 174.921 69.4527C174.701 69.0861 174.591 68.6644 174.591 68.1877C174.591 67.3444 174.921 66.2627 175.581 64.9427C176.205 63.6594 176.883 62.3394 177.616 60.9827C178.863 58.6727 180.128 56.3811 181.411 54.1077C182.731 51.8344 184.106 49.5061 185.536 47.1227C186.966 44.7394 188.488 42.2461 190.101 39.6427C191.715 37.0394 193.456 34.2711 195.326 31.3377L195.271 31.2827C194.538 32.0894 193.75 32.8777 192.906 33.6477C192.063 34.4177 191.22 35.1144 190.376 35.7377C189.57 36.3244 188.781 36.8011 188.011 37.1677C187.278 37.5344 186.655 37.7177 186.141 37.7177C184.931 37.7177 184.326 37.2411 184.326 36.2877C184.326 35.7744 184.473 35.2794 184.766 34.8027C185.06 34.3261 185.426 33.7761 185.866 33.1527C186.196 32.6761 186.545 32.1994 186.911 31.7227C187.278 31.2461 187.608 30.7877 187.901 30.3477C188.231 29.8711 188.488 29.4494 188.671 29.0827C188.855 28.6794 188.946 28.3311 188.946 28.0377C188.946 27.6344 188.745 27.4327 188.341 27.4327C187.681 27.4327 186.875 27.9094 185.921 28.8627C184.968 29.7794 183.96 30.8427 182.896 32.0527L182.456 31.8327C183.74 30.3294 184.95 29.0644 186.086 28.0377C187.223 26.9744 188.36 26.4427 189.496 26.4427C190.23 26.4427 190.761 26.5894 191.091 26.8827C191.458 27.1761 191.641 27.5794 191.641 28.0927C191.641 28.7894 191.385 29.5594 190.871 30.4027C190.395 31.2461 189.863 32.0527 189.276 32.8227C188.726 33.5927 188.195 34.3077 187.681 34.9677C187.205 35.5911 186.966 36.0677 186.966 36.3977C186.966 36.6177 187.076 36.7277 187.296 36.7277C187.92 36.7277 188.726 36.3611 189.716 35.6277C190.706 34.8944 191.715 34.0327 192.741 33.0427C193.768 32.0527 194.721 31.0627 195.601 30.0727C196.518 29.0461 197.196 28.2394 197.636 27.6527C197.856 27.3594 198.076 27.1394 198.296 26.9927C198.516 26.8094 198.865 26.7177 199.341 26.7177H200.221C200.515 26.7177 200.661 26.8277 200.661 27.0477C200.661 27.0844 200.643 27.1394 200.606 27.2127C200.606 27.2494 200.57 27.3411 200.496 27.4877L196.426 34.1427ZM214.075 31.2827C213.452 32.0161 212.737 32.7861 211.93 33.5927C211.16 34.3627 210.335 35.0777 209.455 35.7377C208.575 36.3611 207.622 36.8744 206.595 37.2777C205.605 37.6811 204.579 37.8827 203.515 37.8827C202.232 37.8827 201.334 37.6077 200.82 37.0577C200.344 36.5077 200.105 35.8661 200.105 35.1327C200.105 34.2527 200.362 33.3177 200.875 32.3277C201.389 31.3011 202.067 30.3661 202.91 29.5227C203.79 28.6794 204.78 27.9827 205.88 27.4327C207.017 26.8461 208.172 26.5527 209.345 26.5527C210.372 26.5527 211.16 26.7727 211.71 27.2127C212.297 27.6161 212.59 28.1477 212.59 28.8077C212.59 29.2111 212.444 29.5961 212.15 29.9627C211.857 30.3294 211.472 30.5127 210.995 30.5127C210.592 30.5127 210.28 30.4211 210.06 30.2377C209.877 30.0544 209.785 29.8527 209.785 29.6327C209.785 29.3761 209.859 29.1561 210.005 28.9727C210.189 28.7527 210.28 28.4961 210.28 28.2027C210.28 27.9461 210.189 27.7261 210.005 27.5427C209.859 27.3227 209.62 27.2127 209.29 27.2127C208.594 27.2861 207.86 27.6344 207.09 28.2577C206.32 28.8444 205.605 29.5594 204.945 30.4027C204.322 31.2461 203.79 32.1444 203.35 33.0977C202.947 34.0144 202.745 34.8211 202.745 35.5177C202.745 35.8477 202.855 36.1961 203.075 36.5627C203.295 36.8927 203.809 37.0577 204.615 37.0577C206.155 37.0577 207.659 36.4894 209.125 35.3527C210.629 34.2161 212.15 32.7677 213.69 31.0077L214.075 31.2827ZM234.143 37.7727C233.52 37.7727 232.988 37.6444 232.548 37.3877C232.108 37.0944 231.888 36.6544 231.888 36.0677C231.888 35.3711 232.126 34.6194 232.603 33.8127C233.116 32.9694 233.648 32.1627 234.198 31.3927C234.785 30.6227 235.316 29.9261 235.793 29.3027C236.306 28.6427 236.563 28.1477 236.563 27.8177C236.563 27.5977 236.453 27.4877 236.233 27.4877C236.013 27.4877 235.72 27.5794 235.353 27.7627C234.986 27.9461 234.601 28.1661 234.198 28.4227C233.831 28.6794 233.446 28.9544 233.043 29.2477C232.676 29.5411 232.346 29.8161 232.053 30.0727C231.466 30.5494 230.916 31.0261 230.403 31.5027C229.89 31.9794 229.376 32.4744 228.863 32.9877C228.35 33.5011 227.818 34.0694 227.268 34.6927C226.755 35.2794 226.186 35.9211 225.563 36.6177C225.05 37.2411 224.518 37.5527 223.968 37.5527H222.538C222.281 37.5527 222.153 37.4427 222.153 37.2227C222.153 37.1127 222.208 36.9661 222.318 36.7827C222.721 36.2327 223.07 35.7561 223.363 35.3527C223.693 34.9127 223.986 34.5277 224.243 34.1977C224.536 33.8311 224.793 33.4827 225.013 33.1527C225.27 32.7861 225.545 32.4011 225.838 31.9977C225.911 31.8877 226.058 31.6677 226.278 31.3377C226.535 31.0077 226.773 30.6411 226.993 30.2377C227.25 29.8344 227.47 29.4311 227.653 29.0277C227.836 28.6244 227.928 28.2761 227.928 27.9827C227.928 27.5794 227.708 27.3777 227.268 27.3777C226.755 27.3777 226.095 27.6527 225.288 28.2027C224.518 28.7527 223.675 29.4677 222.758 30.3477C221.841 31.2277 220.888 32.2177 219.898 33.3177C218.908 34.4177 217.955 35.5177 217.038 36.6177C216.525 37.2411 215.993 37.5527 215.443 37.5527H214.013C213.756 37.5527 213.628 37.4427 213.628 37.2227C213.628 37.1127 213.683 36.9661 213.793 36.7827C214.196 36.2327 214.563 35.7377 214.893 35.2977C215.223 34.8577 215.516 34.4544 215.773 34.0877C216.066 33.7211 216.341 33.3727 216.598 33.0427C216.855 32.6761 217.13 32.2911 217.423 31.8877C217.533 31.7411 217.68 31.5027 217.863 31.1727C218.083 30.8427 218.303 30.4944 218.523 30.1277C218.743 29.7611 218.926 29.3944 219.073 29.0277C219.22 28.6244 219.293 28.2944 219.293 28.0377C219.293 27.6344 219.091 27.4327 218.688 27.4327C218.028 27.4327 217.221 27.9094 216.268 28.8627C215.315 29.7794 214.306 30.8427 213.243 32.0527L212.803 31.8327C214.086 30.3294 215.296 29.0644 216.433 28.0377C217.57 26.9744 218.706 26.4427 219.843 26.4427C220.613 26.4427 221.163 26.5894 221.493 26.8827C221.823 27.1761 221.988 27.5427 221.988 27.9827C221.988 28.4961 221.86 29.0094 221.603 29.5227C221.383 30.0361 221.145 30.4944 220.888 30.8977C220.595 31.3377 220.393 31.6677 220.283 31.8877C220.173 32.0711 219.916 32.4194 219.513 32.9327L219.568 32.9877C220.265 32.1811 220.98 31.3927 221.713 30.6227C222.446 29.8527 223.18 29.1561 223.913 28.5327C224.683 27.9094 225.453 27.4144 226.223 27.0477C226.993 26.6444 227.763 26.4427 228.533 26.4427C229.23 26.4427 229.725 26.5894 230.018 26.8827C230.348 27.1761 230.513 27.5794 230.513 28.0927C230.513 28.4961 230.403 28.9544 230.183 29.4677C230 29.9444 229.761 30.4211 229.468 30.8977C229.138 31.4111 228.808 31.8877 228.478 32.3277C228.148 32.7677 227.781 33.2444 227.378 33.7577L227.433 33.8127C228.13 33.0061 228.936 32.1811 229.853 31.3377C230.77 30.4577 231.668 29.6694 232.548 28.9727C233.465 28.2394 234.345 27.6527 235.188 27.2127C236.031 26.7361 236.765 26.4977 237.388 26.4977C238.598 26.4977 239.203 26.9744 239.203 27.9277C239.203 28.4411 239.056 28.9361 238.763 29.4127C238.47 29.8894 238.103 30.4394 237.663 31.0627C237.333 31.5394 236.985 32.0161 236.618 32.4927C236.251 32.9694 235.903 33.4461 235.573 33.9227C235.28 34.3627 235.041 34.7844 234.858 35.1877C234.675 35.5911 234.583 35.9211 234.583 36.1777C234.583 36.5811 234.821 36.7827 235.298 36.7827C236.251 36.7827 237.168 36.3794 238.048 35.5727C238.928 34.7294 240.12 33.4277 241.623 31.6677L242.008 31.9427C241.421 32.6394 240.835 33.3361 240.248 34.0327C239.698 34.7294 239.111 35.3527 238.488 35.9027C237.865 36.4527 237.205 36.9111 236.508 37.2777C235.811 37.6077 235.023 37.7727 234.143 37.7727Z" fill="#112250"></path></svg> 