<?xml version="1.0" encoding="UTF-8"?> <svg xmlns="http://www.w3.org/2000/svg" width="124" height="36" viewBox="0 0 124 36" fill="none"><path d="M6.6228 15.9865C8.65233 15.5878 10.6819 15.5154 12.6752 15.8053C13.1463 15.8778 13.7262 16.059 14.451 16.2764C14.3785 15.6241 14.2698 14.8268 14.1611 13.957C14.0161 13.0872 13.9436 12.5435 13.9436 12.2899C13.5812 10.2966 13.2913 8.88314 13.0738 8.01334C12.7114 6.85361 12.3127 6.05629 11.9141 5.69387C11.5879 5.40394 11.1893 5.3677 10.7181 5.65763C9.48589 6.34622 8.61609 7.68716 8.03623 9.7167C7.31139 12.0362 6.84025 14.1019 6.6228 15.9865ZM6.44159 17.3999C6.22414 19.5744 6.11542 22.0751 6.11542 24.9382C6.11542 25.1556 6.04293 25.3006 5.89797 25.4456C5.753 25.5905 5.60803 25.6268 5.42683 25.6268C5.20938 25.6268 5.06441 25.5905 4.91944 25.4456C4.77448 25.3006 4.73823 25.1556 4.73823 24.9382C4.73823 22.0751 4.81072 19.6832 4.99193 17.7986C3.5785 18.2335 2.49125 18.8496 1.69393 19.6469C1.33152 20.0093 1.00534 20.0093 0.715409 19.6469C0.352992 19.357 0.352992 19.0308 0.715409 18.6684C1.80266 17.6174 3.28857 16.8201 5.17313 16.3127V16.2402C5.46307 14.1744 5.97045 11.8912 6.69528 9.35428C6.98522 8.33951 7.38388 7.43347 7.89126 6.63615C8.47113 5.69387 9.19596 4.96904 10.0295 4.46165C11.0443 3.88179 11.9866 3.95427 12.8564 4.67911C13.4725 5.25897 13.9799 6.27374 14.3785 7.65092C14.7047 8.77441 14.9946 10.2603 15.2846 12.1086C15.4295 13.0147 15.6107 14.5731 15.9007 16.8201L17.0604 17.2912C18.8 17.9436 20.1772 18.3785 21.192 18.5234C22.7866 18.8134 24.2 18.7771 25.4685 18.4147C26.4832 18.1248 27.4255 17.6536 28.3316 16.965C28.694 16.7113 29.0202 16.7476 29.3101 17.11C29.5638 17.4724 29.5275 17.7986 29.1651 18.0523C28.1141 18.8496 26.9906 19.4295 25.8309 19.7194C24.3087 20.1543 22.6779 20.2268 20.9383 19.8644C19.7785 19.6469 18.3289 19.212 16.5893 18.5597C16.4443 18.5234 16.2631 18.4509 16.0819 18.3785V18.4872C16.2993 20.6254 16.5168 22.3288 16.7342 23.561C16.9517 25.3006 17.2416 26.7503 17.604 27.91C18.2564 30.4469 19.0537 31.7154 20.0685 31.7154C20.2497 31.7154 20.3946 31.7879 20.5396 31.9328C20.6846 32.0778 20.7571 32.2228 20.7571 32.404C20.7571 32.6214 20.6846 32.7664 20.5396 32.9114C20.3946 33.0563 20.2497 33.0926 20.0685 33.0926C19.0537 33.0926 18.2564 32.6214 17.6403 31.6067C17.0604 30.7731 16.5893 29.6496 16.2631 28.2724C15.9732 27.1489 15.647 25.663 15.357 23.7785C15.1034 21.8939 14.8859 20.1905 14.7047 18.6684C14.7047 18.6321 14.6685 18.5597 14.6685 18.4147C14.6685 18.306 14.6685 18.1972 14.6685 18.1248L14.6322 17.9798V17.7986C14.5235 17.7986 14.4148 17.7261 14.2698 17.6536C13.4 17.3637 12.8201 17.2187 12.4577 17.1462C10.6456 16.9288 8.76106 16.965 6.84025 17.3274C6.6228 17.3999 6.51408 17.3999 6.44159 17.3999ZM33.2157 18.9946C33.2882 18.2697 33.1432 17.8348 32.7808 17.6174C31.8747 17.2187 31.1137 17.4724 30.4613 18.4147C30.2439 18.7409 30.1351 18.9583 30.0989 19.067C30.4251 20.4805 30.6425 21.7127 30.7875 22.7637C30.7875 22.8362 30.7875 23.0174 30.86 23.3436C31.0049 24.3221 31.1137 25.1919 31.1862 25.9892C31.2224 26.9315 31.2586 27.5476 31.2586 27.91C31.2224 29.9395 31.0774 31.4979 30.8237 32.6214C30.6063 33.7087 30.2439 34.3973 29.809 34.7597C29.519 34.9771 29.1929 35.0496 28.8667 34.9771C28.5768 34.9771 28.3231 34.8322 28.1056 34.5785C27.7432 34.2523 27.5257 33.8536 27.3808 33.3825C27.0908 32.5127 26.9821 31.0268 27.0184 28.8885C27.0184 26.7865 27.1996 24.7932 27.5257 22.9087C27.8157 21.2415 28.2143 19.9006 28.6492 18.8858C28.3593 17.8348 28.1419 17.1462 28.0694 16.7838C27.9969 16.6389 28.0331 16.4576 28.1056 16.2764C28.1781 16.0952 28.3231 15.9865 28.5405 15.914C28.9754 15.8053 29.2291 15.9503 29.3741 16.3852C29.4466 16.6026 29.519 16.8925 29.6278 17.255C30.6788 16.0227 31.9472 15.7328 33.3969 16.3852C33.9405 16.6751 34.3029 17.2187 34.5204 17.9436C34.5929 18.306 34.6291 18.7409 34.5929 19.2845C34.7016 19.357 35.1727 19.4657 36.0063 19.6469C36.0425 19.6832 36.2237 19.7556 36.5499 19.8281C36.8399 19.9006 37.0211 19.9731 37.0935 19.9731C37.3835 20.0456 37.7821 20.1543 38.2895 20.2993C41.4063 21.1328 44.0519 21.5677 46.154 21.5677C48.111 21.6402 49.8506 21.3503 51.3365 20.7342C53.1124 20.0818 54.5983 18.9946 55.758 17.5087C56.0479 17.1462 56.3741 17.11 56.7365 17.3999C57.0989 17.6899 57.1352 18.016 56.8453 18.3785C55.4681 20.0456 53.801 21.2778 51.8439 22.0389C50.1043 22.6912 48.2197 23.0174 46.1177 22.9449C43.7983 22.9449 41.0801 22.4738 37.9271 21.604C37.6372 21.5677 37.2385 21.459 36.7311 21.2778C36.6586 21.2778 36.4774 21.2053 36.1875 21.1328C35.8613 21.0603 35.6801 21.0241 35.6439 20.9879C35.4264 20.9154 35.1365 20.8429 34.8103 20.7704C34.4841 20.6979 34.2667 20.6254 34.1942 20.5892C33.9768 20.9516 33.7593 21.2053 33.5419 21.3503C32.962 21.8214 32.3096 21.8214 31.5848 21.3865C31.2586 21.2053 31.0774 20.9154 31.0412 20.4805C31.0049 20.0818 31.1137 19.7556 31.3311 19.4657C31.5486 19.1395 31.9835 18.9583 32.5996 18.9583C32.8533 18.9583 33.0707 18.9946 33.2157 18.9946ZM29.0479 33.5637C29.0841 33.5637 29.1204 33.4912 29.1929 33.3463C29.3016 33.1288 29.4103 32.7664 29.4828 32.3315C29.7002 31.2442 29.8452 29.7583 29.8815 27.8738C29.8815 27.5838 29.8452 26.9677 29.809 26.0979C29.7365 25.663 29.664 24.7932 29.519 23.561C29.4466 23.3436 29.4466 23.1261 29.4466 22.9449C29.3741 22.655 29.3016 22.2201 29.2291 21.5677C29.0841 21.9664 28.9754 22.4738 28.8667 23.1261C28.5768 24.8295 28.3955 26.7865 28.3593 29.0335C28.3593 30.8818 28.468 32.1865 28.6855 32.9476C28.7942 33.2375 28.9029 33.455 29.0479 33.5637ZM60.4963 16.1677C60.5688 18.4872 61.2212 20.1181 62.5259 21.0603C63.6131 21.8577 65.1715 22.1476 67.201 21.8577C68.9406 21.6402 70.8977 21.0603 72.9997 20.0456C74.7755 19.2483 76.3339 18.2697 77.6749 17.1825C78.0373 16.8925 78.3635 16.9288 78.6534 17.2912C78.9071 17.6536 78.8709 17.9798 78.5447 18.2335C77.24 19.3207 75.6091 20.3717 73.5796 21.314C71.3326 22.365 69.2668 23.0174 67.3822 23.2348C65.0265 23.5248 63.142 23.1986 61.7285 22.1838C60.2789 21.1691 59.4091 19.5019 59.1916 17.2187C58.8292 17.255 58.4668 17.255 58.1044 17.2187C58.0319 17.2187 57.9594 17.1825 57.8869 17.1825C57.8144 17.1825 57.742 17.1825 57.7057 17.1462C57.6332 17.2187 57.5608 17.3274 57.4883 17.4724C57.4158 17.6174 57.3433 17.6899 57.3071 17.7261C57.0171 18.0885 56.7272 18.161 56.3648 17.8711C55.9661 17.6174 55.8936 17.2912 56.1836 16.9288L56.4735 16.4939C56.4735 16.4939 56.4373 16.4576 56.401 16.3852C56.3285 16.3489 56.3285 16.3127 56.3285 16.2764C56.1111 15.9503 56.0748 15.6241 56.1836 15.2617C56.2923 14.9355 56.5097 14.718 56.8722 14.5731C57.2346 14.4281 57.5608 14.4644 57.8507 14.7543C58.1406 15.0442 58.2493 15.3704 58.1769 15.7691V15.8415H58.2856C58.7205 15.914 59.0467 15.914 59.2641 15.7691C59.3728 15.6241 59.554 15.5154 59.7715 15.5154C59.9527 15.5154 60.0977 15.5516 60.2426 15.6966C60.3876 15.8415 60.4601 15.9865 60.4963 16.1677ZM79.0733 16.6026C78.7834 18.0885 79.0733 19.2845 79.9431 20.2268C80.7404 21.1328 82.0089 21.6764 83.7485 21.8577C85.633 22.0026 87.5901 21.7489 89.6559 21.0241C91.9391 20.263 94.1136 19.0308 96.1431 17.3637C96.5055 17.0738 96.8317 17.11 97.1216 17.4362C97.4116 17.8348 97.3753 18.161 97.0129 18.4147C94.9109 20.1543 92.6639 21.4228 90.3082 22.2563C87.9163 23.0899 85.7055 23.416 83.6397 23.1986C81.5015 23.0174 79.8706 22.2926 78.7834 21.0603C77.6961 19.8281 77.3337 18.2697 77.7324 16.3489C77.7686 16.1677 77.8773 16.0227 78.0223 15.914C78.1673 15.8415 78.3485 15.8053 78.5297 15.8053C78.7109 15.8778 78.8558 15.9865 78.9646 16.1315C79.0371 16.2764 79.0733 16.4576 79.0733 16.6026ZM79.0008 13.4496V13.4858C79.1458 13.6308 79.2545 13.7758 79.2907 13.957C79.2907 14.1382 79.2545 14.2831 79.1458 14.4281C79.0008 14.6093 78.8558 14.718 78.6746 14.718C78.4934 14.7543 78.3485 14.718 78.2035 14.5731H78.1673C77.8048 14.3194 77.7324 13.9932 78.0223 13.6308C78.276 13.2684 78.6022 13.1959 79.0008 13.4496ZM97.1848 14.5006C98.272 14.1382 99.4318 13.5221 100.591 12.5798C101.751 11.6737 102.73 10.6227 103.563 9.46301C105.484 6.70864 105.774 4.46165 104.469 2.68581C104.288 2.46836 103.998 2.3234 103.563 2.21467C103.128 2.14219 102.766 2.14219 102.404 2.21467C100.845 2.61333 99.5405 4.02676 98.5257 6.45495C97.5109 8.91938 97.0398 11.6013 97.1848 14.5006ZM97.2573 15.914L97.3297 16.4576C97.366 16.8201 97.4022 17.0738 97.4747 17.2187C98.1271 20.8429 99.6854 23.3073 102.15 24.6483C105.085 26.3154 109.036 26.1342 114.037 24.0322C115.559 23.416 117.009 22.5462 118.459 21.4228C120.053 20.1543 121.177 18.8858 121.829 17.6174C122.047 17.255 122.336 17.1462 122.771 17.3274C123.17 17.5449 123.279 17.8711 123.061 18.2335C122.3 19.7556 121.032 21.1691 119.292 22.51C117.77 23.706 116.175 24.6483 114.581 25.3006C109.145 27.5476 104.796 27.765 101.461 25.8805C98.6344 24.2858 96.8586 21.4952 96.0975 17.4724C95.4452 13.957 95.6989 10.514 96.8586 7.1073C97.4385 5.44018 98.1633 4.02676 99.0693 2.93951C99.9391 1.85226 100.954 1.16366 102.041 0.873731C102.621 0.728764 103.237 0.728764 103.926 0.873731C104.651 1.05494 105.23 1.38111 105.593 1.85226C106.463 3.08447 106.789 4.46165 106.535 6.05629C106.318 7.43347 105.702 8.8469 104.687 10.2603C103.745 11.6375 102.585 12.7972 101.244 13.812C99.9029 14.8268 98.562 15.5516 97.2573 15.914Z" fill="white"></path></svg> 