<?xml version="1.0" encoding="UTF-8"?> <svg xmlns="http://www.w3.org/2000/svg" width="228" height="107" viewBox="0 0 228 107" fill="none"><path d="M8.3104 35.2122C8.3548 34.9887 8.5131 34.8006 8.78529 34.6479C9.05317 34.4688 9.30984 34.3862 9.55531 34.3999C9.82709 34.4094 9.98025 34.5194 10.0148 34.7299C10.058 34.993 11.3953 34.9087 14.0268 34.477C15.632 34.2136 16.7174 34.0761 17.2829 34.0644C17.8485 34.0526 18.2055 34.1697 18.3539 34.4156C18.6901 34.982 18.5398 35.466 17.9031 35.8678C17.2884 36.2388 16.0885 36.5843 14.3034 36.9042L10.8823 37.5466L12.0403 45.0988C12.6867 49.5326 12.9523 51.9752 12.8372 52.4264C12.7928 52.6499 12.617 52.8138 12.3099 52.9183C11.9501 53.0314 11.6652 53.0241 11.4551 52.8964C11.2713 52.7644 11.0706 52.365 10.8531 51.698C10.6619 51.0268 10.4799 50.1649 10.3072 49.1123C10.1565 48.0291 9.95228 46.4547 9.69446 44.3892L8.79734 37.686L5.40212 38.4863C3.97639 38.8553 3.01137 39.0677 2.50707 39.1234C1.99846 39.1528 1.63046 39.0511 1.40308 38.8181C0.956958 38.4049 0.797935 38.0121 0.926011 37.6398C0.966098 37.39 1.22966 37.1847 1.71669 37.0237C2.20372 36.8627 3.17089 36.6635 4.6182 36.426C6.01289 36.1972 6.96691 36.0001 7.48025 35.8348C7.99359 35.6695 8.27031 35.462 8.3104 35.2122ZM32.0733 35.6912C32.6457 34.7325 33.2409 35.1483 33.8589 36.9386C34.3681 38.3953 34.8904 40.7552 35.4258 44.0183C35.6891 45.6235 35.8245 46.6957 35.8319 47.2349C35.8393 47.7742 35.7201 48.118 35.4742 48.2665C34.9825 48.5633 34.5224 48.4767 34.0939 48.0065C33.6875 47.5057 33.3804 46.7049 33.1728 45.604C32.8564 44.1696 32.5752 43.5266 32.3294 43.6751C32.2284 43.7187 32.1512 43.907 32.0978 44.24C32.0046 44.6606 31.0419 45.7104 29.2095 47.3892C27.3992 49.0374 26.2703 49.8982 25.8229 49.9716C25.1388 50.0838 24.6247 49.6682 24.2807 48.7248C23.9325 47.7551 23.5998 45.8099 23.2828 42.8894C23.0603 40.71 22.9413 39.2432 22.9257 38.4892C22.9057 37.7088 23.0077 37.2597 23.2316 37.1419C23.4774 36.9934 23.6901 36.972 23.8696 37.0777C24.0711 37.1527 24.248 37.4075 24.4003 37.8419C24.5747 38.2456 24.7354 38.8138 24.8826 39.5463C25.0255 40.2524 25.1853 41.2261 25.3619 42.4672C25.7618 45.5633 26.0275 47.1006 26.1591 47.079C26.3696 47.0444 27.1076 46.4369 28.3732 45.2565C29.6344 44.0497 30.4982 43.1378 30.9645 42.5208C31.4131 41.9608 31.6927 41.442 31.8036 40.9644C31.9407 40.4825 31.9798 39.733 31.921 38.7157C31.7979 37.1416 31.8486 36.1334 32.0733 35.6912ZM39.1154 34.171C39.3181 33.7594 39.6826 33.5104 40.2089 33.4241C40.63 33.355 41.0198 33.5072 41.3783 33.8808C41.7632 34.25 42.2283 34.9438 42.7737 35.9623C43.3192 36.9808 44.1172 38.6334 45.168 40.9201C45.5909 41.8505 45.855 42.3071 45.9602 42.2899C46.1708 42.2553 46.5049 40.998 46.9627 38.5178C46.9938 38.3776 47.096 37.8474 47.2693 36.9272C47.7404 34.3637 48.097 32.9135 48.339 32.5766C48.5943 32.1564 48.9498 32.017 49.4054 32.1584C49.8609 32.2999 50.2721 32.6648 50.6389 33.2531C50.9094 33.7492 51.393 34.967 52.0895 36.9065C52.8124 38.8416 53.4608 40.735 54.0348 42.5865C54.3304 43.5648 54.4138 44.4024 54.2849 45.0991C54.1823 45.7915 53.8942 46.1766 53.4205 46.2543C52.9732 46.3277 52.5814 46.0812 52.2453 45.5148C51.9312 44.9178 51.5831 43.867 51.2011 42.3623C50.5321 39.9319 50.1128 38.4468 49.9432 37.9072L49.4544 36.1633L49.0252 39.4765C48.6175 42.9213 47.6637 44.7667 46.1638 45.0128C45.427 45.1337 44.8094 44.9108 44.3111 44.344C43.8347 43.7466 43.2351 42.4803 42.5123 40.5451C41.5106 37.899 40.9334 36.4399 40.7807 36.1677C40.4139 35.5793 40.2153 36.0983 40.1849 37.7247C40.1557 38.8645 40.2064 40.4911 40.337 42.6045C40.4005 43.4858 40.4423 44.3167 40.4622 45.0971C40.4778 45.8512 40.4829 46.4584 40.4773 46.9187C40.4675 47.3527 40.4362 47.574 40.3836 47.5826C40.0152 47.643 39.6458 47.2037 39.2756 46.2646C38.9316 45.3212 38.7261 44.2334 38.6591 43.0014C38.532 41.2387 38.5191 39.4302 38.6202 37.5761C38.717 35.6956 38.8821 34.5606 39.1154 34.171ZM57.3473 32.6794C57.5681 32.0487 57.9538 32.0935 58.5043 32.8139C58.7447 33.1258 59.0482 33.5759 59.415 34.1643C59.9695 35.0732 60.8719 36.2087 62.1223 37.5709C63.3726 38.9331 64.1184 39.6079 64.3596 39.5954C64.4648 39.5781 64.6346 38.3072 64.869 35.7826C65.1136 32.6618 65.5364 31.0386 66.1373 30.913C66.3172 30.8565 66.5603 30.9382 66.8666 31.1581C67.1729 31.3781 67.3477 31.6197 67.3908 31.8828C67.456 32.1153 67.4528 32.5077 67.3813 33.0599C67.2429 34.0284 67.1179 35.819 67.006 38.4315C66.9343 40.7943 66.7721 42.5234 66.5195 43.6188C66.2888 44.6835 65.872 45.6842 65.269 46.6208C64.5474 47.658 63.6703 48.6531 62.6376 49.6062C61.6093 50.5857 60.8583 51.1142 60.3847 51.1919C59.7005 51.3042 59.1944 51.1845 58.8665 50.833C58.5692 50.5034 58.5856 50.1089 58.9155 49.6494C59.2675 49.1593 59.6277 48.884 59.9961 48.8236C60.3908 48.7588 61.1996 47.9235 62.4224 46.3177C63.6409 44.6856 64.2199 43.6853 64.1594 43.3169C64.0774 42.8169 63.4088 41.9537 62.1537 40.7274C60.5358 39.1013 59.2619 37.5132 58.332 35.9633C57.4021 34.4135 57.0739 33.3188 57.3473 32.6794ZM74.3006 28.0333C74.8105 27.5173 75.9271 27.1584 77.6505 26.9567C78.7687 26.8543 79.5381 26.8497 79.9587 26.9428C80.4057 27.0317 80.9245 27.3113 81.5151 27.7819C82.1101 28.2788 82.5079 28.727 82.7085 29.1264C82.9092 29.5259 83.1023 30.2914 83.288 31.4229C83.7025 33.9491 83.4256 35.9673 82.4573 37.4773C81.4847 38.961 79.88 39.8864 77.6432 40.2534L75.867 40.5448L76.2167 42.6763C76.4326 43.992 76.4873 44.9018 76.3808 45.4057C76.3006 45.9053 76.0368 46.1918 75.5895 46.2652C75.1158 46.3429 74.759 46.1447 74.5191 45.6706C74.2792 45.1966 74.0362 44.2096 73.7901 42.7096C73.5267 41.1044 73.1674 40.15 72.7123 39.8463C72.1782 39.5556 71.8662 38.9718 71.7763 38.0948C71.712 37.5378 71.8245 37.2356 72.114 37.1881C72.1446 37.2101 72.1863 37.2168 72.2389 37.2082C72.6595 37.3013 72.813 36.4249 72.6993 34.5789C72.6664 33.7196 72.5593 32.7373 72.3779 31.6321C72.0412 29.5795 72.184 28.5562 72.8065 28.5622C72.8855 28.5492 72.9687 28.5626 73.0563 28.6023C73.376 28.739 73.7908 28.5493 74.3006 28.0333ZM79.6044 29.2304C78.8119 28.847 77.9221 28.7768 76.9351 29.0198C75.9744 29.2585 75.2652 29.7126 74.8076 30.3822C74.403 30.881 74.187 31.3758 74.1594 31.8667C74.1539 32.3271 74.2785 33.3335 74.5332 34.8861L75.0837 38.2412L76.6231 37.9886C78.4651 37.6864 79.7118 37.0495 80.3631 36.0779C81.0407 35.102 81.2176 33.6272 80.8938 31.6536C80.7642 30.8642 80.6056 30.3092 80.4179 29.9887C80.2565 29.6639 79.9854 29.4111 79.6044 29.2304ZM108.007 20.5573C108.15 19.7774 108.477 19.3858 108.99 19.3827C109.288 19.3879 109.498 19.5966 109.62 20.009C109.768 20.4171 109.943 21.4018 110.145 22.963L110.57 26.5414L114.28 25.9326C116.044 25.6434 117.105 25.5233 117.464 25.5724C117.846 25.5909 118.099 25.8195 118.225 26.2582C118.43 26.8462 118.354 27.291 117.998 27.5926C117.642 27.8942 116.912 28.1357 115.807 28.317C114.728 28.494 113.649 28.7521 112.569 29.0913L111.154 29.6073L111.883 32.5683C112.2 33.8405 112.369 34.7045 112.39 35.1605C112.437 35.6122 112.339 36.0065 112.097 36.3435C111.371 37.3543 110.74 37.3768 110.203 36.411C109.898 35.8666 109.563 34.8947 109.198 33.4953C108.69 31.5519 108.39 30.5472 108.298 30.4812C108.145 30.3712 107.162 30.6406 105.35 31.2892C104.17 31.672 103.367 31.8848 102.942 31.9276C102.516 31.9703 102.15 31.8817 101.844 31.6618C101.078 31.1118 101.211 30.5225 102.243 29.8938C103.003 29.4179 104.462 28.7596 106.621 27.9189L108.142 27.3046L107.971 24.5357C107.805 22.6984 107.817 21.3723 108.007 20.5573ZM147.395 12.8789C147.615 12.5726 147.881 12.4614 148.192 12.5455C148.499 12.6033 148.752 12.8319 148.953 13.2314C149.223 13.8896 149.516 15.1793 149.831 17.1002C150.025 18.2844 150.199 19.0937 150.351 19.5281C150.503 19.9625 150.707 20.2129 150.961 20.2793C151.377 20.3461 151.607 20.5922 151.649 21.0176C151.718 21.4386 151.582 21.7583 151.239 21.9766C150.989 22.0987 150.861 22.3899 150.856 22.8502C150.876 23.3062 151.025 24.2141 151.302 25.5738C151.467 26.4116 151.568 27.1111 151.606 27.6723C151.671 28.2293 151.678 28.6874 151.629 29.0468C151.576 29.3798 151.463 29.6009 151.292 29.7101C151.121 29.8193 150.882 29.845 150.575 29.7872C150.154 29.6941 149.647 28.4127 149.053 25.943L148.154 22.199L145.707 22.6005C144.181 22.8509 142.904 23.1414 141.878 23.472L140.423 23.9944L140.993 27.468C141.209 28.7837 141.312 29.7397 141.301 30.3359C141.318 30.9277 141.229 31.3747 141.035 31.6767C140.375 32.5957 139.806 32.4189 139.327 31.1463C139.139 30.6636 138.983 30.0407 138.858 29.2775C138.694 28.2776 138.514 27.591 138.317 27.2179C138.147 26.8404 137.819 26.4889 137.334 26.1632C136.581 25.6923 136.181 25.2309 136.134 24.7793C136.087 24.3276 136.397 23.8308 137.065 23.2889C137.587 22.8518 137.873 22.4536 137.923 22.0942C137.972 21.7348 137.856 20.6999 137.575 18.9895C137.424 18.0684 137.328 17.233 137.286 16.4833C137.244 15.7335 137.271 15.3237 137.368 15.2538C137.605 15.0527 137.896 15.2617 138.241 15.8807C138.66 16.6227 138.964 17.5726 139.154 18.7304C139.348 19.9146 139.577 20.6473 139.839 20.9285C139.935 21.0208 140.385 21.0417 141.187 20.9911C142.016 20.9362 142.956 20.8224 144.009 20.6497L147.798 20.028L147.808 18.6076C147.802 17.5817 147.696 16.4373 147.488 15.1741C147.264 13.8058 147.233 13.0407 147.395 12.8789ZM159.74 14.6233C160.538 14.222 161.697 13.951 163.214 13.8101C164.143 13.7116 164.832 13.7068 165.279 13.7956C165.748 13.8538 166.24 14.0567 166.757 14.4043C167.339 14.8223 167.728 15.2989 167.924 15.8343C168.142 16.339 168.474 17.6221 168.92 19.6837C169.28 21.3812 169.592 22.6271 169.857 23.4213C170.149 24.2111 170.479 24.8191 170.846 25.2453C171.287 25.7944 171.525 26.1742 171.56 26.3848C171.616 26.5646 171.524 26.8231 171.282 27.16C170.538 28.2278 169.546 27.8636 168.305 26.0675L167.152 24.4732L164.907 25.6117C163.428 26.3138 161.929 26.8975 160.411 27.3627C159.402 27.6363 158.72 27.7618 158.365 27.7389C158.006 27.6898 157.552 27.4804 157.005 27.1108C156.301 26.6048 155.872 26.0536 155.721 25.457C155.591 24.8297 155.718 24.0387 156.101 23.084C156.917 21.1396 159.218 19.6811 163.004 18.7087C163.579 18.5874 164.109 18.4463 164.597 18.2853C165.084 18.1243 165.467 17.9938 165.748 17.8936C166.025 17.7672 166.159 17.6777 166.15 17.625C166.111 17.3882 165.794 17.0213 165.199 16.5244C164.819 16.1815 164.436 15.9877 164.05 15.9428C163.691 15.8937 163.053 15.9579 162.136 16.1353C160.592 16.4426 159.62 16.7778 159.22 17.1406C158.908 17.381 158.685 17.4988 158.549 17.494C158.413 17.4893 158.271 17.364 158.122 17.1181C157.895 16.723 157.92 16.3 158.198 15.8491C158.501 15.394 159.015 14.9854 159.74 14.6233ZM166.42 20.2561C166.495 19.8924 166.386 19.7212 166.092 19.7423C165.746 19.7722 164.673 20.0698 162.874 20.6351C161.312 21.1616 160.252 21.6193 159.695 22.008C159.089 22.4318 158.567 23.0442 158.131 23.8454C157.722 24.6422 157.633 25.1703 157.864 25.4295C158.131 25.7371 158.747 25.7846 159.712 25.5723C160.699 25.3293 161.787 24.8805 162.977 24.2259C164.417 23.4492 165.387 23.0198 165.887 22.9378C166.36 22.86 166.545 22.5054 166.442 21.8738C166.347 21.2949 166.339 20.7557 166.42 20.2561ZM177.419 11.5199C178.197 10.987 178.835 10.6796 179.335 10.5975C179.941 10.4982 180.622 10.6972 181.379 11.1945C182.158 11.6612 182.591 12.1577 182.677 12.684C182.772 13.2629 182.635 13.6637 182.267 13.8864C181.898 14.109 181.541 13.9919 181.196 13.5351C180.549 12.7225 179.718 12.6831 178.704 13.417C177.715 14.1467 176.976 15.3219 176.485 16.9427C176.136 18.108 176.1 19.2894 176.377 20.4869C176.677 21.6538 177.157 22.3587 177.819 22.6015C178.393 22.8046 179.48 22.7613 181.081 22.4716C182.682 22.1819 183.682 21.8556 184.082 21.4928C184.508 21.1256 184.947 20.9996 185.398 21.1147C185.871 21.1992 186.149 21.4914 186.231 21.9914C186.494 23.5966 184.188 24.6912 179.311 25.2751C178.303 25.3865 177.295 25.0924 176.289 24.3928C175.308 23.6889 174.62 22.7885 174.224 21.6915C173.685 20.0505 173.733 18.2049 174.37 16.1549C175.002 14.0784 176.018 12.5335 177.419 11.5199ZM194.849 8.8224C195.047 8.54671 195.253 8.40475 195.468 8.39652C195.679 8.36198 195.803 8.46313 195.842 8.69996C195.885 8.96311 196.683 8.96732 198.236 8.71259C199.42 8.5183 200.301 8.53587 200.879 8.7653C201.479 8.9641 201.719 9.35707 201.6 9.94422C201.555 10.1677 201.353 10.336 200.993 10.449C200.634 10.5621 199.987 10.6547 199.053 10.7269L196.645 10.8786L197.363 15.99C197.685 18.4502 197.848 19.9368 197.851 20.4497C197.85 20.9364 197.643 21.2405 197.231 21.3622C196.923 21.4667 196.667 21.4682 196.461 21.3669C196.277 21.2349 196.098 20.967 195.924 20.5632C195.772 20.1288 195.629 19.5038 195.495 18.688C195.361 17.8722 195.201 16.8175 195.016 15.5237L194.481 11.2743L192.592 11.8679C191.583 12.1416 190.583 12.4679 189.591 12.8468C188.876 13.0992 188.392 13.03 188.138 12.6392C187.841 12.1475 187.897 11.7465 188.306 11.4363C188.714 11.126 189.754 10.7122 191.426 10.1947C193.457 9.56416 194.598 9.10672 194.849 8.8224ZM209.925 7.40269C210.922 6.88789 211.657 6.59164 212.131 6.51392C212.604 6.43621 213.314 6.48184 214.261 6.65083C215.291 6.83317 215.916 6.77118 216.136 6.46486C216.443 6.03601 216.748 6.24283 217.048 7.08531C217.361 8.00674 217.751 9.88846 218.217 12.7305C218.632 15.2567 218.843 16.7894 218.85 17.3287C218.853 17.8416 218.671 18.1283 218.302 18.1887C217.934 18.2492 217.671 18.1301 217.514 17.8316C217.357 17.5331 217.133 16.7456 216.843 15.4692L216.179 12.6595L213.588 15.3952C211.487 17.5775 209.997 19.038 209.118 19.7766C208.235 20.489 207.616 20.7527 207.262 20.5676C206.872 20.3343 206.649 20.0466 206.593 19.7045C206.554 19.4677 207.454 18.3608 209.291 16.3839C211.124 14.3806 212.449 13.0688 213.266 12.4483C213.653 12.1687 213.48 12.0214 212.748 12.0064C212.45 12.0013 212.02 12.0177 211.459 12.0558C209.85 12.1306 208.656 11.9347 207.877 11.468C207.124 10.997 206.928 10.3806 207.289 9.6187C207.647 8.83049 208.525 8.09182 209.925 7.40269ZM214.243 8.51836C213.599 8.38083 213.095 8.35544 212.731 8.4422C212.362 8.50265 211.704 8.77279 210.756 9.25263C209.527 9.8326 209.417 10.148 210.425 10.1987C210.995 10.2133 211.898 10.1192 213.135 9.91624C214.74 9.65288 215.473 9.34347 215.333 8.98801C215.277 8.80812 214.913 8.65157 214.243 8.51836ZM112.004 83.4601C112.286 83.1978 114.606 82.682 118.966 81.9127C123.325 81.1433 125.785 80.8207 126.346 80.9449C126.513 80.9716 126.677 81.0663 126.839 81.2289C127.001 81.3915 127.099 81.5781 127.133 81.7886C127.22 82.3149 126.578 82.7714 125.21 83.1581C123.867 83.5405 121.567 83.9315 118.309 84.331C116.217 84.5931 114.741 84.7406 113.882 84.7735C113.044 84.7758 112.486 84.6648 112.206 84.4405C111.873 84.2248 111.698 84.0644 111.681 83.9591C111.659 83.8275 111.767 83.6612 112.004 83.4601ZM116.98 87.1027C123.226 85.8076 126.539 85.4938 126.918 86.1611C127.115 86.5342 127.123 86.8302 126.942 87.0489C126.723 87.3553 124.4 87.939 119.974 88.8003C117.176 89.3675 115.314 89.7135 114.388 89.8383C113.459 89.9368 112.803 89.8957 112.423 89.715C111.332 89.1642 111.553 88.6146 113.084 88.0661C113.931 87.792 115.23 87.4709 116.98 87.1027Z" fill="#253758"></path></svg> 