<?xml version="1.0" encoding="UTF-8"?> <svg xmlns="http://www.w3.org/2000/svg" width="430" height="107" viewBox="0 0 430 107" fill="none"><g clip-path="url(#clip0_2238_169)"><path d="M0 107L0 35.0638L2.46538 33.5724L9.54133 34.2387L15.1765 32.8743L21.0037 33.7945L26.863 34.7464L31.5696 32.5569L36.2762 32.8743L40.8868 31.8588L45.7215 33.1598L50.204 30.4944L54.6545 29.1934L58.8488 26.8769L64.548 27.0991L67.9739 22.4345L74.3455 25.925L78.0916 19.9276L82.7662 18.7218L87.761 18.6584L91.9553 16.7862L88.1132 12.661L92.3395 9.45611L96.5659 7.48873L100.792 2.57029L106.075 0.317328L111.934 2.69722L117.41 2.53856L122.821 1.26678e-06L128.168 4.09342L133.579 1.4914L138.189 5.29924L143.76 3.83957L149.363 3.10973L153.782 6.69544L158.2 10.3446L163.355 11.487L169.246 8.66282L174.305 8.91667L179.332 11.1379L184.807 11.2966L188.681 15.6121L194.156 16.1515L198.799 18.4997L202.097 23.0691L206.515 25.6711L212.599 25.1317L215.224 31.605L221.724 28.8126L225.534 34.4926L231.105 31.9223L235.908 35.8888L241.543 31.9858L246.281 35.4128L251.564 34.7782L256.719 34.683L261.746 35.8888L266.837 36.1426L272.184 34.7147L277.499 33.8262L282.878 33.4772L288.353 34.3339L293.828 35.0003L299.335 35.8253L304.202 34.4291L309.165 32.7791L314.223 33.858L319.25 33.4137L324.245 32.7473L329.08 31.3194L334.267 31.6367L338.397 27.8924L343.584 26.4644L349.059 26.7183L354.726 29.9232L360.649 30.1771L366.348 27.3212L371.792 27.1625L377.395 28.4318L382.582 26.8769L387.736 24.3701L393.179 25.5759L398.494 25.6711L404.194 22.9739L408.676 27.2894L413.575 28.7174L419.178 25.7028L424.013 29.2568L429.296 29.1616L430 28.6222V107L0 107Z" fill="#CB182B"></path></g><defs><clipPath id="clip0_2238_169"><rect width="430" height="107" fill="white" transform="matrix(1 0 0 -1 0 107)"></rect></clipPath></defs></svg> 