<?xml version="1.0" encoding="UTF-8"?> <svg xmlns="http://www.w3.org/2000/svg" width="350" height="433" viewBox="0 0 350 433" fill="none"><path d="M335.266 315.758V402.815C334.253 403.461 333.339 404.884 333.265 407.471C333.314 407.665 328.497 405.725 328.151 405.402C329.016 405.337 322.222 404.043 323.186 402.976C322.864 403.041 318.319 401.974 318.196 400.81C316.837 403.914 311.748 407.504 312.909 401.747C312.193 403.558 308.314 400.648 307.894 401.359C308.191 399.548 302.929 400.357 302.706 401.586C303.423 398.481 297.741 402.394 297.741 398.805C297.741 400.81 292.257 404.561 292.257 403.494C292.257 400.713 287.539 393.533 287.539 397.317C287.539 397.737 282.153 402.847 282.153 400.68C282.153 400.001 277.978 405.046 277.978 397.123C277.978 394.245 273.556 395.7 273.556 398.449C273.556 399.225 269.678 404.884 269.678 401.359C269.678 400.616 263.897 398.578 263.897 403.429C263.897 407.245 258.092 406.307 258.092 406.534C258.092 407.795 252.608 408.248 252.608 409.024C252.608 407.989 247.247 404.27 247.247 406.501C247.247 406.307 242.257 406.307 242.257 403.106C242.257 401.683 237.045 405.466 237.045 402.621C237.045 401.812 231.906 401.844 231.906 400.13C231.906 402.588 226.719 403.655 226.719 404.561C226.719 401.78 221.358 395.635 221.358 400.292C221.358 402.459 216.64 406.986 216.64 406.825C216.64 402.944 211.427 410.867 211.427 406.048C211.427 404.723 206.388 407.245 206.388 407.31C206.388 403.946 201.719 409.315 201.719 410.932C201.719 415.621 196.235 408.7 196.235 409.541C196.235 410.382 191.146 405.563 191.146 410.641C191.146 413.034 186.847 420.342 186.847 415.783C186.847 418.822 181.783 416.494 181.783 416.979C181.783 415.394 175.928 417.949 175.928 414.327C175.928 415.718 171.408 416.817 171.408 418.337C171.408 416.074 166.022 420.827 166.022 417.917C166.022 419.21 160.909 418.176 160.909 418.725C160.909 418.37 156.215 419.372 156.215 421.959C156.215 420.31 151.299 422.929 151.299 423.285C151.299 423.415 146.605 424.967 146.605 426.519C146.605 424.158 141.615 429.397 141.615 427.748C141.615 426.26 136.6 425.969 136.6 428.621C136.6 428.233 131.363 428.395 131.363 426.778C131.363 428.168 126.373 426.842 126.373 427.651C126.373 429.365 121.457 428.686 121.457 430.691C121.457 431.273 116.418 431.564 116.418 431.855C116.418 435.348 111.304 426.228 111.304 429.042C111.304 427.813 106.24 431.176 106.24 431.984C106.24 433.278 101.225 424.611 101.225 428.718C101.225 431.111 96.235 428.136 96.235 427.36C96.235 424.32 90.0097 430.141 90.0097 431.014C90.0097 433.052 84.7232 422.671 84.7232 425.517C84.7232 429.688 79.1896 424.514 79.1896 423.77C79.1896 423.124 74.4218 419.857 74.4218 419.372C74.4218 421.41 69.16 417.723 69.16 417.626C69.16 417.27 63.4782 413.778 63.4782 419.922C63.4782 419.405 58.4634 413.842 58.4634 413.907C58.4634 414.942 53.1522 418.628 53.1522 417.496C53.1522 417.982 47.9398 418.37 47.9398 418.628C47.9398 419.405 42.3074 418.628 42.3074 418.37C42.3074 417.917 37.6878 428.492 37.6878 423.738C37.6878 421.474 32.5495 429.462 32.5495 427.974C32.5495 427.554 26.5465 423.35 26.2748 423.77C25.6819 422.735 21.9517 424.029 21.3094 422.929C20.2719 425.29 15.9488 421.668 15.5041 420.698C14.9606 427.425 11.0328 420.472 10.2917 417.594C9.35294 420.278 7.599 420.795 6.73438 420.439V315.758H335.266Z" fill="#353434"></path><rect x="6.73438" y="55.0703" width="328.531" height="308.725" fill="#353434"></rect><g filter="url(#filter0_d_1645_9)"><rect x="6.73438" y="9.40039" width="328.531" height="57.8156" rx="9.20763" fill="#353434"></rect></g><path d="M86.047 46.0119H88.099C89.215 46.0119 90.115 45.6999 90.799 45.0759C91.483 44.4519 91.825 43.6239 91.825 42.5919C91.825 41.5119 91.465 40.6239 90.745 39.9279C90.025 39.2319 89.107 38.8839 87.991 38.8839H87.037V38.5779H87.757C88.549 38.5779 89.203 38.3499 89.719 37.8939C90.235 37.4379 90.493 36.8559 90.493 36.1479C90.493 35.4159 90.217 34.8279 89.665 34.3839C89.125 33.9399 88.405 33.7179 87.505 33.7179H86.047V33.7359C86.251 33.9399 86.353 34.2519 86.353 34.6719V45.0579C86.353 45.4659 86.251 45.7719 86.047 45.9759V46.0119ZM83.365 46.3359V46.1739H83.995C84.427 46.1739 84.691 46.1259 84.787 46.0299C84.895 45.9219 84.949 45.6519 84.949 45.2199V34.5099C84.949 34.0779 84.895 33.8139 84.787 33.7179C84.691 33.6099 84.427 33.5559 83.995 33.5559H83.365V33.3939H87.757C89.041 33.3939 90.073 33.6459 90.853 34.1499C91.633 34.6419 92.023 35.2959 92.023 36.1119C92.023 36.6639 91.783 37.1979 91.303 37.7139C90.835 38.2179 90.211 38.5239 89.431 38.6319V38.7039C90.559 38.7879 91.501 39.2199 92.257 39.9999C93.013 40.7799 93.391 41.6439 93.391 42.5919C93.391 43.6959 92.917 44.5959 91.969 45.2919C91.021 45.9879 89.839 46.3359 88.423 46.3359H83.365ZM100.371 39.7839V35.9319C100.371 34.3599 99.6634 33.5739 98.2474 33.5739C97.3834 33.5739 96.7114 33.8019 96.2314 34.2579C95.7514 34.7019 95.4934 35.2899 95.4574 36.0219L95.4034 37.1379H95.0794L95.2774 32.8899H95.4574L95.4034 33.8439C95.3794 34.1319 95.3554 34.3239 95.3314 34.4199L95.4574 34.4559C95.5174 34.2759 95.6134 34.1379 95.7454 34.0419C96.4534 33.5139 97.2814 33.2499 98.2294 33.2499C99.3934 33.2499 100.275 33.5019 100.875 34.0059C101.475 34.4979 101.775 35.2179 101.775 36.1659V45.0579C101.775 45.4299 101.805 45.6759 101.865 45.7959C101.937 45.9159 102.105 45.9759 102.369 45.9759L102.729 45.9579L103.035 45.9399L103.053 46.1019C102.345 46.1739 101.691 46.3059 101.091 46.4979V46.3539C101.091 45.9939 101.025 45.4539 100.893 44.7339C100.809 44.1939 100.761 43.8039 100.749 43.5639H100.569C100.089 45.5079 99.0814 46.4799 97.5454 46.4799C96.5614 46.4799 95.7454 46.2099 95.0974 45.6699C94.4614 45.1179 94.1434 44.4039 94.1434 43.5279C94.1434 42.3999 94.5814 41.4939 95.4574 40.8099C96.3454 40.1259 97.5154 39.7839 98.9674 39.7839H100.371ZM100.371 40.1079H99.0574C98.0494 40.1079 97.2394 40.4259 96.6274 41.0619C96.0154 41.6859 95.7094 42.5079 95.7094 43.5279C95.7094 44.2719 95.8954 44.8719 96.2674 45.3279C96.6514 45.7719 97.1494 45.9939 97.7614 45.9939C98.4574 45.9939 99.0634 45.6759 99.5794 45.0399C100.107 44.3919 100.371 43.4679 100.371 42.2679V40.1079ZM108.923 46.3359V46.1739H109.553C109.985 46.1739 110.249 46.1139 110.345 45.9939C110.453 45.8739 110.507 45.5619 110.507 45.0579V38.7219H110.399C110.123 38.7219 109.865 38.7519 109.625 38.8119C109.397 38.8599 109.193 38.9259 109.013 39.0099C108.833 39.0939 108.665 39.2199 108.509 39.3879C108.353 39.5439 108.221 39.6879 108.113 39.8199C108.005 39.9519 107.903 40.1379 107.807 40.3779C107.711 40.6059 107.633 40.8039 107.573 40.9719C107.513 41.1279 107.447 41.3499 107.375 41.6379C107.315 41.9259 107.267 42.1539 107.231 42.3219C107.207 42.4779 107.171 42.7119 107.123 43.0239C107.063 43.3599 107.015 43.6179 106.979 43.7979C106.943 43.9779 106.883 44.2119 106.799 44.4999C106.727 44.7879 106.655 45.0159 106.583 45.1839C106.511 45.3399 106.415 45.5199 106.295 45.7239C106.187 45.9159 106.061 46.0659 105.917 46.1739C105.773 46.2699 105.599 46.3539 105.395 46.4259C105.203 46.4979 104.987 46.5339 104.747 46.5339C104.267 46.5339 103.781 46.3119 103.289 45.8679L103.055 45.6879L103.163 45.5619L103.397 45.7419C103.697 45.9819 103.979 46.1019 104.243 46.1019C104.447 46.1019 104.621 46.0539 104.765 45.9579C104.921 45.8619 105.041 45.7539 105.125 45.6339C105.221 45.5019 105.299 45.3099 105.359 45.0579C105.431 44.8059 105.479 44.5899 105.503 44.4099C105.539 44.2179 105.581 43.9419 105.629 43.5819C105.677 43.1979 105.719 42.8799 105.755 42.6279C105.791 42.3759 105.851 42.0759 105.935 41.7279C106.019 41.3799 106.109 41.0859 106.205 40.8459C106.313 40.6059 106.451 40.3479 106.619 40.0719C106.799 39.7959 106.997 39.5679 107.213 39.3879C107.441 39.1959 107.711 39.0219 108.023 38.8659C108.347 38.6979 108.707 38.5719 109.103 38.4879L109.121 38.4159L106.259 34.7979C105.911 34.3659 105.497 34.0539 105.017 33.8619C104.537 33.6579 104.069 33.5559 103.613 33.5559H103.397V33.3939H107.375V33.5559H107.213C106.589 33.5559 106.277 33.7179 106.277 34.0419C106.277 34.2339 106.385 34.4619 106.601 34.7259L109.445 38.3079C109.577 38.4759 109.931 38.5599 110.507 38.5599V34.5099C110.507 34.0779 110.453 33.8139 110.345 33.7179C110.249 33.6099 109.985 33.5559 109.553 33.5559H109.373V33.3939H113.045V33.5559H112.883C112.451 33.5559 112.181 33.6099 112.073 33.7179C111.965 33.8139 111.911 34.0779 111.911 34.5099V38.5599C112.247 38.5599 112.487 38.5479 112.631 38.5239C112.787 38.4879 112.907 38.4159 112.991 38.3079L115.835 34.7259C116.051 34.4619 116.159 34.2339 116.159 34.0419C116.159 33.7179 115.847 33.5559 115.223 33.5559H115.061V33.3939H119.039V33.5559H118.823C118.367 33.5559 117.899 33.6579 117.419 33.8619C116.939 34.0539 116.525 34.3659 116.177 34.7979L113.315 38.4159L113.333 38.4879C113.729 38.5839 114.089 38.7159 114.413 38.8839C114.737 39.0399 115.007 39.2139 115.223 39.4059C115.451 39.5859 115.649 39.8199 115.817 40.1079C115.997 40.3839 116.135 40.6419 116.231 40.8819C116.327 41.1099 116.417 41.4039 116.501 41.7639C116.585 42.1119 116.645 42.4059 116.681 42.6459C116.717 42.8739 116.759 43.1799 116.807 43.5639C116.855 43.9239 116.891 44.1999 116.915 44.3919C116.939 44.5719 116.987 44.7939 117.059 45.0579C117.131 45.3099 117.209 45.5019 117.293 45.6339C117.377 45.7539 117.497 45.8619 117.653 45.9579C117.809 46.0539 117.989 46.1019 118.193 46.1019C118.457 46.1019 118.739 45.9819 119.039 45.7419L119.273 45.5619L119.381 45.6879L119.147 45.8679C118.655 46.3119 118.169 46.5339 117.689 46.5339C117.449 46.5339 117.227 46.4979 117.023 46.4259C116.831 46.3539 116.663 46.2699 116.519 46.1739C116.375 46.0659 116.243 45.9159 116.123 45.7239C116.003 45.5199 115.907 45.3399 115.835 45.1839C115.763 45.0159 115.691 44.7879 115.619 44.4999C115.547 44.1999 115.493 43.9599 115.457 43.7799C115.421 43.5999 115.373 43.3419 115.313 43.0059C115.265 42.6939 115.223 42.4599 115.187 42.3039C115.163 42.1359 115.115 41.9079 115.043 41.6199C114.983 41.3319 114.923 41.1099 114.863 40.9539C114.803 40.7859 114.725 40.5879 114.629 40.3599C114.533 40.1199 114.431 39.9339 114.323 39.8019C114.215 39.6699 114.083 39.5259 113.927 39.3699C113.771 39.2139 113.603 39.0939 113.423 39.0099C113.243 38.9259 113.033 38.8599 112.793 38.8119C112.565 38.7519 112.313 38.7219 112.037 38.7219H111.911V45.0579C111.911 45.5619 111.965 45.8739 112.073 45.9939C112.181 46.1139 112.451 46.1739 112.883 46.1739H113.513V46.3359H108.923ZM119.365 46.3359V46.1739H119.995C120.415 46.1739 120.679 46.1019 120.787 45.9579C120.895 45.8139 120.949 45.5139 120.949 45.0579V34.6719C120.949 34.2159 120.895 33.9159 120.787 33.7719C120.679 33.6279 120.415 33.5559 119.995 33.5559H119.365V33.3939H123.793V33.5559H123.325C122.905 33.5559 122.635 33.6279 122.515 33.7719C122.407 33.9159 122.353 34.2159 122.353 34.6719V39.3699H127.285V34.6719C127.285 34.2159 127.225 33.9159 127.105 33.7719C126.997 33.6279 126.733 33.5559 126.313 33.5559H125.845V33.3939H130.291V33.5559H129.643C129.223 33.5559 128.959 33.6279 128.851 33.7719C128.743 33.9159 128.689 34.2159 128.689 34.6719V45.0579C128.689 45.5139 128.743 45.8139 128.851 45.9579C128.959 46.1019 129.223 46.1739 129.643 46.1739H130.291V46.3359H125.845V46.1739H126.331C126.751 46.1739 127.015 46.1019 127.123 45.9579C127.231 45.8139 127.285 45.5139 127.285 45.0579V39.6939H122.353V45.0579C122.353 45.5139 122.407 45.8139 122.515 45.9579C122.635 46.1019 122.905 46.1739 123.325 46.1739H123.793V46.3359H119.365ZM140.076 46.3359V46.1739H140.706C141.138 46.1739 141.402 46.1259 141.498 46.0299C141.606 45.9339 141.66 45.6699 141.66 45.2379V34.4919C141.66 34.0599 141.606 33.7959 141.498 33.6999C141.402 33.6039 141.138 33.5559 140.706 33.5559H140.076V33.3939H144.666V33.5919H144.036C143.604 33.5919 143.334 33.6399 143.226 33.7359C143.118 33.8319 143.064 34.0959 143.064 34.5279V45.2379C143.064 45.6699 143.118 45.9339 143.226 46.0299C143.334 46.1259 143.604 46.1739 144.036 46.1739H144.666V46.3359H140.076ZM130.914 46.3359V46.1559H131.544C131.976 46.1559 132.24 46.1079 132.336 46.0119C132.444 45.9039 132.498 45.6339 132.498 45.2019V34.4919C132.498 34.0599 132.444 33.7959 132.336 33.6999C132.24 33.6039 131.976 33.5559 131.544 33.5559H130.914V33.3939H135.504V33.5559H134.874C134.442 33.5559 134.172 33.6099 134.064 33.7179C133.956 33.8259 133.902 34.0959 133.902 34.5279V39.6759H135.27C136.65 39.6759 137.76 39.9819 138.6 40.5939C139.44 41.2059 139.86 42.0099 139.86 43.0059C139.86 44.0019 139.44 44.8059 138.6 45.4179C137.76 46.0299 136.65 46.3359 135.27 46.3359H130.914ZM133.902 39.9819V45.0579C133.902 45.4659 133.8 45.7719 133.596 45.9759V46.0119H134.928C136.02 46.0119 136.854 45.7539 137.43 45.2379C138.006 44.7219 138.294 43.9779 138.294 43.0059C138.294 42.0219 138.006 41.2719 137.43 40.7559C136.854 40.2399 136.02 39.9819 134.928 39.9819H133.902ZM147.129 39.3159C147.129 39.3879 147.129 39.4599 147.129 39.5319C147.129 41.6559 147.579 43.2939 148.479 44.4459C149.391 45.5859 150.627 46.1559 152.187 46.1559C153.387 46.1559 154.449 45.9159 155.373 45.4359C156.297 44.9439 157.023 44.2539 157.551 43.3659L157.803 43.5639C157.239 44.4879 156.465 45.2079 155.481 45.7239C154.509 46.2279 153.393 46.4799 152.133 46.4799C150.225 46.4799 148.647 45.8679 147.399 44.6439C146.151 43.4079 145.527 41.7999 145.527 39.8199C145.527 37.8519 146.133 36.2679 147.345 35.0679C148.569 33.8559 150.177 33.2499 152.169 33.2499C153.777 33.2499 155.139 33.7599 156.255 34.7799C157.371 35.7999 157.929 37.1079 157.929 38.7039V38.7939C157.929 38.9379 157.875 39.0639 157.767 39.1719C157.659 39.2679 157.527 39.3159 157.371 39.3159H147.129ZM147.147 38.9919L156.183 38.8659C156.279 38.8659 156.327 38.8119 156.327 38.7039C156.327 37.1679 155.937 35.9319 155.157 34.9959C154.389 34.0479 153.369 33.5739 152.097 33.5739C150.561 33.5739 149.367 34.0359 148.515 34.9599C147.675 35.8839 147.219 37.2279 147.147 38.9919ZM163.465 46.3359V46.1739H163.753C164.197 46.1739 164.485 46.0899 164.617 45.9219C164.761 45.7539 164.845 45.4119 164.869 44.8959L165.355 34.5099C165.367 34.3059 165.373 34.1799 165.373 34.1319C165.373 33.9159 165.313 33.7659 165.193 33.6819C165.085 33.5979 164.845 33.5559 164.473 33.5559H163.753V33.3939H166.399L171.061 43.7079C171.241 44.1039 171.331 44.3619 171.331 44.4819H171.421C171.421 44.3259 171.505 44.0679 171.673 43.7079L176.335 33.3939H179.035V33.5559H178.423C178.015 33.5559 177.745 33.6159 177.613 33.7359C177.481 33.8559 177.415 34.0599 177.415 34.3479C177.415 34.3959 177.421 34.5579 177.433 34.8339L177.847 44.8959C177.871 45.4239 177.949 45.7719 178.081 45.9399C178.213 46.0959 178.519 46.1739 178.999 46.1739H179.395V46.3359H174.697V46.1739H175.345C175.801 46.1739 176.101 46.1199 176.245 46.0119C176.389 45.9039 176.461 45.7299 176.461 45.4899C176.461 45.4539 176.455 45.4179 176.443 45.3819C176.443 45.3459 176.443 45.3099 176.443 45.2739C176.443 45.2259 176.443 45.1899 176.443 45.1659L176.083 35.6799C176.071 35.4639 176.065 35.1999 176.065 34.8879H175.957C175.957 34.9359 175.861 35.1819 175.669 35.6259L170.827 46.4079L170.773 46.5339H170.737L170.683 46.4079L165.913 35.8239C165.781 35.5359 165.715 35.2839 165.715 35.0679H165.643C165.643 35.2599 165.637 35.4639 165.625 35.6799L165.175 45.1299C165.163 45.3819 165.157 45.5199 165.157 45.5439C165.157 45.7719 165.229 45.9339 165.373 46.0299C165.517 46.1259 165.823 46.1739 166.291 46.1739H166.939V46.3359H163.465ZM186.64 46.4799C184.636 46.4799 183.022 45.8739 181.798 44.6619C180.574 43.4499 179.962 41.8479 179.962 39.8559C179.962 37.8759 180.574 36.2799 181.798 35.0679C183.022 33.8559 184.636 33.2499 186.64 33.2499C188.632 33.2499 190.234 33.8559 191.446 35.0679C192.67 36.2799 193.282 37.8759 193.282 39.8559C193.282 41.8479 192.67 43.4499 191.446 44.6619C190.234 45.8739 188.632 46.4799 186.64 46.4799ZM186.694 46.1559C188.326 46.1559 189.568 45.6459 190.42 44.6259C191.284 43.6059 191.716 42.1299 191.716 40.1979C191.716 38.0499 191.272 36.4119 190.384 35.2839C189.508 34.1439 188.236 33.5739 186.568 33.5739C184.924 33.5739 183.67 34.0839 182.806 35.1039C181.954 36.1239 181.528 37.5999 181.528 39.5319C181.528 41.6799 181.966 43.3239 182.842 44.4639C183.73 45.5919 185.014 46.1559 186.694 46.1559ZM193.857 46.3359V46.1739H194.145C194.589 46.1739 194.877 46.0899 195.009 45.9219C195.153 45.7539 195.237 45.4119 195.261 44.8959L195.747 34.5099C195.759 34.3059 195.765 34.1799 195.765 34.1319C195.765 33.9159 195.705 33.7659 195.585 33.6819C195.477 33.5979 195.237 33.5559 194.865 33.5559H194.145V33.3939H196.791L201.453 43.7079C201.633 44.1039 201.723 44.3619 201.723 44.4819H201.813C201.813 44.3259 201.897 44.0679 202.065 43.7079L206.727 33.3939H209.427V33.5559H208.815C208.407 33.5559 208.137 33.6159 208.005 33.7359C207.873 33.8559 207.807 34.0599 207.807 34.3479C207.807 34.3959 207.813 34.5579 207.825 34.8339L208.239 44.8959C208.263 45.4239 208.341 45.7719 208.473 45.9399C208.605 46.0959 208.911 46.1739 209.391 46.1739H209.787V46.3359H205.089V46.1739H205.737C206.193 46.1739 206.493 46.1199 206.637 46.0119C206.781 45.9039 206.853 45.7299 206.853 45.4899C206.853 45.4539 206.847 45.4179 206.835 45.3819C206.835 45.3459 206.835 45.3099 206.835 45.2739C206.835 45.2259 206.835 45.1899 206.835 45.1659L206.475 35.6799C206.463 35.4639 206.457 35.1999 206.457 34.8879H206.349C206.349 34.9359 206.253 35.1819 206.061 35.6259L201.219 46.4079L201.165 46.5339H201.129L201.075 46.4079L196.305 35.8239C196.173 35.5359 196.107 35.2839 196.107 35.0679H196.035C196.035 35.2599 196.029 35.4639 196.017 35.6799L195.567 45.1299C195.555 45.3819 195.549 45.5199 195.549 45.5439C195.549 45.7719 195.621 45.9339 195.765 46.0299C195.909 46.1259 196.215 46.1739 196.683 46.1739H197.331V46.3359H193.857ZM211.957 39.3159C211.957 39.3879 211.957 39.4599 211.957 39.5319C211.957 41.6559 212.407 43.2939 213.307 44.4459C214.219 45.5859 215.455 46.1559 217.015 46.1559C218.215 46.1559 219.277 45.9159 220.201 45.4359C221.125 44.9439 221.851 44.2539 222.379 43.3659L222.631 43.5639C222.067 44.4879 221.293 45.2079 220.309 45.7239C219.337 46.2279 218.221 46.4799 216.961 46.4799C215.053 46.4799 213.475 45.8679 212.227 44.6439C210.979 43.4079 210.355 41.7999 210.355 39.8199C210.355 37.8519 210.961 36.2679 212.173 35.0679C213.397 33.8559 215.005 33.2499 216.997 33.2499C218.605 33.2499 219.967 33.7599 221.083 34.7799C222.199 35.7999 222.757 37.1079 222.757 38.7039V38.7939C222.757 38.9379 222.703 39.0639 222.595 39.1719C222.487 39.2679 222.355 39.3159 222.199 39.3159H211.957ZM211.975 38.9919L221.011 38.8659C221.107 38.8659 221.155 38.8119 221.155 38.7039C221.155 37.1679 220.765 35.9319 219.985 34.9959C219.217 34.0479 218.197 33.5739 216.925 33.5739C215.389 33.5739 214.195 34.0359 213.343 34.9599C212.503 35.8839 212.047 37.2279 211.975 38.9919ZM223.674 46.3359V46.1739H224.304C224.724 46.1739 224.988 46.1019 225.096 45.9579C225.204 45.8139 225.258 45.5139 225.258 45.0579V34.6719C225.258 34.2159 225.204 33.9159 225.096 33.7719C224.988 33.6279 224.724 33.5559 224.304 33.5559H223.674V33.3939H228.102V33.5559H227.634C227.214 33.5559 226.944 33.6279 226.824 33.7719C226.716 33.9159 226.662 34.2159 226.662 34.6719V39.3699H231.594V34.6719C231.594 34.2159 231.534 33.9159 231.414 33.7719C231.306 33.6279 231.042 33.5559 230.622 33.5559H230.154V33.3939H234.6V33.5559H233.952C233.532 33.5559 233.268 33.6279 233.16 33.7719C233.052 33.9159 232.998 34.2159 232.998 34.6719V45.0579C232.998 45.5139 233.052 45.8139 233.16 45.9579C233.268 46.1019 233.532 46.1739 233.952 46.1739H234.6V46.3359H230.154V46.1739H230.64C231.06 46.1739 231.324 46.1019 231.432 45.9579C231.54 45.8139 231.594 45.5139 231.594 45.0579V39.6939H226.662V45.0579C226.662 45.5139 226.716 45.8139 226.824 45.9579C226.944 46.1019 227.214 46.1739 227.634 46.1739H228.102V46.3359H223.674ZM236.734 46.3359V46.1739H238.102C238.534 46.1739 238.798 46.1259 238.894 46.0299C239.002 45.9219 239.056 45.6519 239.056 45.2199V33.7179H237.976C237.076 33.7179 236.458 33.8559 236.122 34.1319C235.786 34.3959 235.594 34.9479 235.546 35.7879L235.492 36.5259L235.168 36.5079L235.438 32.3319L235.636 32.3499L235.546 33.3939H243.934L243.844 32.3679L244.042 32.3499L244.312 36.5079L243.988 36.5259L243.934 35.7879C243.874 34.9479 243.676 34.3959 243.34 34.1319C243.004 33.8559 242.392 33.7179 241.504 33.7179H240.46V45.2199C240.46 45.6519 240.508 45.9219 240.604 46.0299C240.712 46.1259 240.982 46.1739 241.414 46.1739H242.746V46.3359H236.734ZM254.07 46.3359V46.1739H254.7C255.132 46.1739 255.396 46.1259 255.492 46.0299C255.6 45.9339 255.654 45.6699 255.654 45.2379V34.4919C255.654 34.0599 255.6 33.7959 255.492 33.6999C255.396 33.6039 255.132 33.5559 254.7 33.5559H254.07V33.3939H258.66V33.5919H258.03C257.598 33.5919 257.328 33.6399 257.22 33.7359C257.112 33.8319 257.058 34.0959 257.058 34.5279V45.2379C257.058 45.6699 257.112 45.9339 257.22 46.0299C257.328 46.1259 257.598 46.1739 258.03 46.1739H258.66V46.3359H254.07ZM244.908 46.3359V46.1559H245.538C245.97 46.1559 246.234 46.1079 246.33 46.0119C246.438 45.9039 246.492 45.6339 246.492 45.2019V34.4919C246.492 34.0599 246.438 33.7959 246.33 33.6999C246.234 33.6039 245.97 33.5559 245.538 33.5559H244.908V33.3939H249.498V33.5559H248.868C248.436 33.5559 248.166 33.6099 248.058 33.7179C247.95 33.8259 247.896 34.0959 247.896 34.5279V39.6759H249.264C250.644 39.6759 251.754 39.9819 252.594 40.5939C253.434 41.2059 253.854 42.0099 253.854 43.0059C253.854 44.0019 253.434 44.8059 252.594 45.4179C251.754 46.0299 250.644 46.3359 249.264 46.3359H244.908ZM247.896 39.9819V45.0579C247.896 45.4659 247.794 45.7719 247.59 45.9759V46.0119H248.922C250.014 46.0119 250.848 45.7539 251.424 45.2379C252 44.7219 252.288 43.9779 252.288 43.0059C252.288 42.0219 252 41.2719 251.424 40.7559C250.848 40.2399 250.014 39.9819 248.922 39.9819H247.896Z" fill="white"></path><defs><filter id="filter0_d_1645_9" x="0.734375" y="0.400391" width="348.531" height="77.8154" filterUnits="userSpaceOnUse" color-interpolation-filters="sRGB"><feFlood flood-opacity="0" result="BackgroundImageFix"></feFlood><feColorMatrix in="SourceAlpha" type="matrix" values="0 0 0 0 0 0 0 0 0 0 0 0 0 0 0 0 0 0 127 0" result="hardAlpha"></feColorMatrix><feOffset dx="4" dy="1"></feOffset><feGaussianBlur stdDeviation="5"></feGaussianBlur><feComposite in2="hardAlpha" operator="out"></feComposite><feColorMatrix type="matrix" values="0 0 0 0 0 0 0 0 0 0 0 0 0 0 0 0 0 0 0.25 0"></feColorMatrix><feBlend mode="normal" in2="BackgroundImageFix" result="effect1_dropShadow_1645_9"></feBlend><feBlend mode="normal" in="SourceGraphic" in2="effect1_dropShadow_1645_9" result="shape"></feBlend></filter></defs></svg> 