<?xml version="1.0" encoding="UTF-8"?> <svg xmlns="http://www.w3.org/2000/svg" width="105" height="42" viewBox="0 0 105 42" fill="none"><path d="M3.5182 32.75L2.1742 32.702C1.9822 32.702 1.8062 32.606 1.6462 32.414C1.3582 31.934 1.1982 31.646 1.1662 31.55C0.942203 30.846 0.814203 30.35 0.782203 30.062C0.750203 29.966 0.622203 28.862 0.398203 26.75C0.334203 25.918 0.254203 24.318 0.158203 21.95C0.158203 19.294 0.206203 17.326 0.302203 16.046L0.734203 11.534L1.0702 6.686C1.1662 4.606 1.3262 2.862 1.5502 1.454L1.6942 0.925998C1.7902 0.541999 1.9662 0.477999 2.2222 0.733997C2.3182 0.829998 2.3822 0.909998 2.4142 0.973997C2.5742 1.23 2.6702 1.502 2.7022 1.79C2.7982 2.206 2.9262 3.278 3.0862 5.006C3.2462 6.926 3.3422 8.862 3.3742 10.814L3.3262 15.134V17.39C3.2622 19.118 3.2302 20.142 3.2302 20.462V22.142V25.502V26.942V27.134L3.2782 27.23L3.3262 27.278C3.3902 27.278 3.4222 27.23 3.4222 27.134L3.7102 25.598C3.9982 23.71 4.2702 22.11 4.5262 20.798C4.7822 19.614 5.2142 18.046 5.8222 16.094C6.7182 13.182 7.5182 10.734 8.2222 8.75C8.7342 7.31 9.4222 5.902 10.2862 4.526C10.5742 4.014 10.8782 3.614 11.1982 3.326C11.4222 3.102 11.6942 2.99 12.0142 2.99C12.1422 2.99 12.3022 3.022 12.4942 3.086L13.2622 3.374C13.7102 3.502 14.0622 3.886 14.3182 4.526C14.4782 5.134 14.5902 5.71 14.6542 6.254C14.7822 7.246 14.8462 8.366 14.8462 9.614C14.8462 11.886 14.7662 14.75 14.6062 18.206C14.5742 18.622 14.5582 19.582 14.5582 21.086C14.5582 22.174 14.5742 22.862 14.6062 23.15C14.7022 25.07 15.0062 26.702 15.5182 28.046C15.7742 28.75 16.0622 29.31 16.3822 29.726C16.6062 30.046 16.8462 30.174 17.1022 30.11H17.2942C17.5502 30.11 17.6782 30.174 17.6782 30.302V30.446C17.6782 30.734 17.5822 30.878 17.3902 30.878C16.9742 30.974 16.5102 31.022 15.9982 31.022C15.8702 31.022 15.7262 30.974 15.5662 30.878C14.8942 30.494 14.4142 30.014 14.1262 29.438C13.6462 28.35 13.2942 27.294 13.0702 26.27C12.7822 24.734 12.6382 23.102 12.6382 21.374C12.6382 20.99 12.6702 19.358 12.7342 16.478C12.7982 13.982 12.8302 12.59 12.8302 12.302C12.8622 11.886 12.8782 10.942 12.8782 9.47C12.8782 8.286 12.8302 7.118 12.7342 5.966C12.7342 5.838 12.6702 5.358 12.5422 4.526L12.3982 4.142C12.3982 4.11 12.3822 4.094 12.3502 4.094C12.3182 4.094 12.2862 4.11 12.2542 4.142C12.1262 4.206 11.9502 4.35 11.7262 4.574C10.9582 5.502 10.3502 6.43 9.9022 7.358C9.2942 8.638 8.7182 10.062 8.1742 11.63C7.0542 15.022 6.3022 17.566 5.9182 19.262C5.5662 20.894 5.2462 22.686 4.9582 24.638L4.3822 28.67L4.0462 31.406C4.0142 31.694 3.9502 32.046 3.8542 32.462C3.8222 32.654 3.7102 32.75 3.5182 32.75ZM21.6255 26.75L19.8495 25.886C19.4335 25.662 19.0655 25.262 18.7455 24.686C18.3615 23.982 18.1695 23.022 18.1695 21.806C18.1695 20.142 18.5855 18.558 19.4175 17.054C19.6735 16.702 19.9935 16.334 20.3775 15.95L20.7615 15.662C20.8895 15.534 21.0975 15.47 21.3855 15.47C21.5455 15.47 21.7055 15.518 21.8655 15.614C21.9615 15.678 22.0895 15.79 22.2495 15.95C21.8975 16.078 21.6095 16.366 21.3855 16.814C20.7135 17.998 20.3135 19.166 20.1855 20.318C20.0895 20.894 20.0415 21.486 20.0415 22.094C20.0415 22.19 20.0735 22.622 20.1375 23.39C20.2655 24.158 20.4895 24.83 20.8095 25.406C21.0015 25.758 21.2095 25.934 21.4335 25.934L21.8175 25.838C22.4255 25.71 22.9855 25.31 23.4975 24.638C24.0735 23.87 24.4255 23.006 24.5535 22.046C24.7135 21.31 24.7615 20.782 24.6975 20.462C24.6975 20.206 24.5855 20.062 24.3615 20.03H24.2655C23.6255 19.998 22.7295 19.678 21.5775 19.07L21.4815 18.974C21.0975 18.75 20.9055 18.51 20.9055 18.254C20.9055 17.998 21.0175 17.758 21.2415 17.534C21.5935 17.086 22.0095 16.862 22.4895 16.862C22.6815 16.862 22.9055 16.91 23.1615 17.006C23.4495 17.102 23.9775 17.358 24.7455 17.774C25.1295 17.998 25.4335 18.286 25.6575 18.638C25.7535 18.83 25.9135 18.91 26.1375 18.878L27.4815 18.59C29.0495 18.27 30.2015 18.094 30.9375 18.062C31.2895 18.062 31.5775 18.126 31.8015 18.254L32.3775 18.59C32.4415 18.654 32.4735 18.702 32.4735 18.734L32.3295 18.878C30.6015 19.198 29.5775 19.374 29.2575 19.406C28.5535 19.502 27.5775 19.678 26.3295 19.934C26.1375 20.062 26.0415 20.206 26.0415 20.366C26.0095 21.262 25.8495 22.206 25.5615 23.198C25.0815 24.446 24.6655 25.294 24.3135 25.742C24.0255 26.126 23.6895 26.414 23.3055 26.606C23.0175 26.798 22.6975 26.894 22.3455 26.894C22.1215 26.894 21.8815 26.846 21.6255 26.75ZM23.7855 19.214H24.1215C24.4415 19.214 24.5375 19.054 24.4095 18.734L24.2175 18.398C24.0255 18.078 23.8495 17.918 23.6895 17.918C23.5935 17.918 23.4335 17.982 23.2095 18.11C22.8895 18.302 22.6975 18.526 22.6335 18.782C22.6335 18.942 22.6975 19.038 22.8255 19.07C23.3055 19.166 23.6255 19.214 23.7855 19.214ZM45.4245 18.83L44.3685 20.366C43.4725 21.55 42.0965 23.63 40.2405 26.606C40.0165 26.926 39.9045 27.278 39.9045 27.662C39.9045 27.95 39.8885 28.142 39.8565 28.238C39.7605 28.654 39.6645 29.326 39.5685 30.254L39.4245 31.262C39.3605 31.902 39.1845 32.846 38.8965 34.094C38.8325 34.318 38.6085 35.086 38.2245 36.398C38.0965 36.782 37.7765 37.582 37.2645 38.798C36.9765 39.47 36.5445 40.126 35.9685 40.766C35.7765 40.99 35.5525 41.166 35.2965 41.294C35.0725 41.422 34.8805 41.486 34.7205 41.486L34.3365 41.39L33.5205 41.054C33.2325 40.958 33.1045 40.75 33.1365 40.43C33.1365 40.014 33.1525 39.758 33.1845 39.662C33.4725 38.318 33.9045 37.022 34.4805 35.774C35.5045 33.47 36.1125 32.158 36.3045 31.838C36.5605 31.358 36.7045 30.878 36.7365 30.398C36.7685 29.726 36.8965 28.51 37.1205 26.75C37.1845 26.398 37.2965 25.422 37.4565 23.822C37.7445 21.678 38.0005 20.03 38.2245 18.878V18.35C38.0965 18.414 37.9685 18.51 37.8405 18.638C36.8805 19.726 36.0325 20.75 35.2965 21.71C34.6565 22.446 33.7765 23.646 32.6565 25.31L31.9365 26.126C31.8085 26.254 31.6005 26.27 31.3125 26.174L29.5845 25.166C29.2645 24.942 29.1045 24.574 29.1045 24.062C29.0405 23.454 29.1365 22.734 29.3925 21.902C29.6805 20.846 30.2085 19.646 30.9765 18.302C31.3925 17.534 32.0965 16.526 33.0885 15.278L34.0965 14.318C34.5445 13.966 35.0405 13.79 35.5845 13.79C36.0005 13.79 36.3365 13.87 36.5925 14.03L37.4565 14.558C37.6805 14.686 37.7605 14.91 37.6965 15.23C37.6965 15.262 37.6645 15.294 37.6005 15.326C37.5685 15.358 37.5365 15.358 37.5045 15.326C37.3445 15.294 37.2325 15.214 37.1685 15.086L37.0725 14.846C36.9765 14.654 36.8165 14.606 36.5925 14.702C36.1765 14.798 35.8085 15.054 35.4885 15.47C34.9765 16.078 34.6085 16.638 34.3845 17.15C33.9365 17.918 33.5525 18.686 33.2325 19.454C33.1365 19.678 32.8805 20.414 32.4645 21.662C32.4325 21.79 32.3205 22.174 32.1285 22.814C32.0645 22.974 32.0645 23.086 32.1285 23.15C32.2565 23.15 32.4165 23.054 32.6085 22.862C33.2805 22.254 33.9365 21.582 34.5765 20.846L35.3925 19.886L36.9765 18.158L37.8405 17.246C38.1285 16.99 38.4165 16.958 38.7045 17.15C38.7685 17.246 38.8805 17.31 39.0405 17.342C39.4885 17.534 39.7765 17.934 39.9045 18.542C40.0325 19.086 40.1125 19.71 40.1445 20.414V24.206L40.0965 24.686C40.1925 24.686 40.2725 24.654 40.3365 24.59C40.3365 24.526 40.3685 24.462 40.4325 24.398C40.4965 24.302 40.5445 24.238 40.5765 24.206C41.4085 22.83 42.1445 21.694 42.7845 20.798L43.4565 19.79C43.8725 19.214 44.2405 18.734 44.5605 18.35C44.7205 18.158 44.9125 18.11 45.1365 18.206L45.3285 18.35C45.5525 18.478 45.5845 18.638 45.4245 18.83ZM35.5365 36.83L35.8245 35.054L35.7285 35.198C35.0245 36.83 34.5445 38.318 34.2885 39.662C34.2565 39.694 34.2405 39.726 34.2405 39.758C34.2725 39.79 34.3045 39.806 34.3365 39.806C34.4645 39.742 34.5445 39.614 34.5765 39.422C34.9925 38.654 35.3125 37.79 35.5365 36.83ZM57.4935 27.854L56.1015 27.182C55.9095 27.054 55.6375 26.798 55.2855 26.414C55.0295 25.934 54.8375 25.534 54.7095 25.214C54.2615 23.678 54.0375 22.046 54.0375 20.318C54.0375 18.942 54.0535 18.062 54.0855 17.678C54.1175 17.294 54.1655 16.83 54.2295 16.286C54.3255 15.71 54.3735 15.374 54.3735 15.278L54.4215 14.51L54.3735 14.27C54.1495 14.494 53.9095 14.83 53.6535 15.278C53.2695 15.918 52.7575 16.942 52.1175 18.35L50.1495 22.958C49.6055 24.174 48.9495 25.31 48.1815 26.366C48.0855 26.526 47.8295 26.814 47.4135 27.23C47.1895 27.454 46.9175 27.566 46.5975 27.566C46.3735 27.566 46.1655 27.518 45.9735 27.422C45.1095 27.006 44.5815 26.75 44.3895 26.654C43.8135 26.398 43.3975 25.982 43.1415 25.406C42.8535 24.734 42.7095 24.03 42.7095 23.294C42.7095 22.782 42.7735 22.158 42.9015 21.422C43.1575 20.206 43.4775 19.23 43.8615 18.494C44.7895 16.67 45.9895 15.454 47.4615 14.846C48.0695 14.59 48.5815 14.462 48.9975 14.462C49.5415 14.462 50.1335 14.638 50.7735 14.99L51.6855 15.518C51.8775 15.614 51.9895 15.598 52.0215 15.47L52.3575 14.846C52.8055 13.982 53.1735 13.39 53.4615 13.07L53.7495 12.734C53.9095 12.574 54.0535 12.494 54.1815 12.494C54.3095 12.494 54.4375 12.526 54.5655 12.59C54.6295 12.622 54.7575 12.702 54.9495 12.83C55.1735 12.926 55.3655 13.022 55.5255 13.118C55.7495 13.214 55.9095 13.39 56.0055 13.646C56.1335 13.902 56.1975 14.238 56.1975 14.654L56.2455 15.566C56.2455 15.662 56.2135 16.094 56.1495 16.862L56.0535 19.31C55.9895 20.398 55.9575 21.022 55.9575 21.182C55.9575 22.814 56.1975 24.366 56.6775 25.838C56.7095 25.902 56.7415 25.982 56.7735 26.078C56.8055 26.206 56.8375 26.286 56.8695 26.318C56.9655 26.574 57.0775 26.702 57.2055 26.702H57.2535C57.2855 26.67 57.3335 26.638 57.3975 26.606C57.4615 26.542 57.5255 26.494 57.5895 26.462C58.0375 26.078 58.4055 25.678 58.6935 25.262C59.2055 24.526 59.7015 23.614 60.1815 22.526C60.2775 22.302 60.8375 21.294 61.8615 19.502C62.2455 18.766 62.4855 18.35 62.5815 18.254C62.6775 18.158 62.8055 18.142 62.9655 18.206L63.6375 18.542C63.7975 18.606 63.8455 18.718 63.7815 18.878L63.4935 19.55C62.7575 21.118 61.9415 22.798 61.0455 24.59C60.9815 24.75 60.6775 25.278 60.1335 26.174C60.0375 26.398 59.7015 26.798 59.1255 27.374C58.9335 27.566 58.7255 27.71 58.5015 27.806C58.3095 27.902 58.1335 27.95 57.9735 27.95C57.9095 27.95 57.7495 27.918 57.4935 27.854ZM46.0215 25.79L46.3095 25.55C47.0135 24.974 47.6695 24.174 48.2775 23.15C49.0455 21.838 49.6535 20.686 50.1015 19.694L51.4935 16.622C51.5255 16.59 51.5415 16.494 51.5415 16.334C51.5415 16.014 51.3655 15.806 51.0135 15.71C50.7255 15.71 50.5335 15.726 50.4375 15.758C49.7335 15.854 49.0775 16.158 48.4695 16.67C47.1895 17.758 46.3575 19.182 45.9735 20.942C45.8455 21.454 45.7495 21.966 45.6855 22.478C45.5895 22.99 45.5415 23.502 45.5415 24.014C45.5415 24.654 45.6055 25.214 45.7335 25.694C45.7655 25.822 45.8615 25.854 46.0215 25.79ZM76.689 18.446C76.689 18.542 76.625 18.606 76.497 18.638L75.921 18.926C75.633 19.022 74.865 19.342 73.617 19.886C73.137 20.078 72.337 20.526 71.217 21.23C70.929 21.39 70.737 21.646 70.641 21.998C70.321 23.118 69.729 24.318 68.865 25.598C68.385 26.142 68.081 26.462 67.953 26.558C67.697 26.814 67.409 26.894 67.089 26.798L66.369 26.654C66.145 26.59 66.017 26.462 65.985 26.27C65.953 26.206 65.937 26.046 65.937 25.79C65.937 25.502 65.985 25.198 66.081 24.878C66.145 24.718 66.369 24.334 66.753 23.726C67.521 22.734 68.241 21.998 68.913 21.518C69.105 21.358 69.249 21.15 69.345 20.894C69.633 19.742 69.777 18.59 69.777 17.438C69.777 16.798 69.729 16.142 69.633 15.47C69.569 15.022 69.473 14.734 69.345 14.606C69.217 14.67 69.041 14.814 68.817 15.038C68.529 15.39 68.241 15.838 67.953 16.382C67.793 16.734 67.617 17.15 67.425 17.63C67.233 18.11 67.121 18.366 67.089 18.398C66.577 19.838 66.033 21.87 65.457 24.494C65.233 25.774 65.041 27.07 64.881 28.382C64.881 28.414 64.849 28.574 64.785 28.862C64.753 29.15 64.721 29.406 64.689 29.63C64.593 30.494 64.433 32.494 64.209 35.63C64.145 37.358 64.113 38.318 64.113 38.51L64.065 39.95V40.526C64.065 40.718 63.969 40.846 63.777 40.91L62.961 41.054C62.801 41.054 62.705 40.99 62.673 40.862C62.577 40.702 62.497 40.446 62.433 40.094C62.433 39.998 62.401 39.47 62.337 38.51C62.337 36.846 62.385 35.166 62.481 33.47C62.609 30.91 62.673 28.75 62.673 26.99C62.673 25.87 62.657 25.15 62.625 24.83L62.577 22.67C62.577 18.606 62.593 15.982 62.625 14.798C62.753 11.886 62.833 10.014 62.865 9.182C62.865 9.086 62.897 8.75 62.961 8.174C63.025 8.014 63.137 7.95 63.297 7.982L63.537 8.078C63.889 8.174 64.081 8.382 64.113 8.702C64.241 9.694 64.321 10.942 64.353 12.446L64.497 22.478C64.497 22.862 64.545 23.166 64.641 23.39L64.977 21.806C65.457 19.79 66.017 17.982 66.657 16.382C66.817 15.966 67.057 15.47 67.377 14.894C67.569 14.606 67.793 14.334 68.049 14.078C68.369 13.758 68.705 13.646 69.057 13.742L70.065 13.934C70.417 14.03 70.689 14.254 70.881 14.606C71.201 15.182 71.377 15.79 71.409 16.43C71.473 17.646 71.425 18.638 71.265 19.406L71.217 19.886L71.265 19.982C71.329 20.014 71.393 19.998 71.457 19.934C71.553 19.87 71.617 19.838 71.649 19.838C72.577 19.358 73.777 18.862 75.249 18.35C75.505 18.254 75.729 18.206 75.921 18.206C75.985 18.206 76.145 18.238 76.401 18.302C76.561 18.302 76.657 18.35 76.689 18.446ZM68.337 23.726L68.433 23.39L67.905 24.014C67.585 24.462 67.345 24.846 67.185 25.166C67.121 25.326 67.121 25.438 67.185 25.502C67.377 25.406 67.585 25.15 67.809 24.734C68.065 24.318 68.241 23.982 68.337 23.726ZM75.7556 30.302L74.7476 29.966C74.4916 29.87 74.3476 29.726 74.3156 29.534C74.3156 29.502 74.2996 29.438 74.2676 29.342C74.2356 29.246 74.2196 29.166 74.2196 29.102L74.1716 27.902C74.1716 27.582 74.1876 27.374 74.2196 27.278V27.134C74.1876 26.462 74.2836 25.262 74.5076 23.534C74.6676 21.934 74.7796 20.942 74.8436 20.558C74.8756 20.046 75.0036 18.798 75.2276 16.814L75.5156 14.27C75.5796 13.95 75.6596 13.326 75.7556 12.398C75.8196 12.046 75.8996 11.87 75.9956 11.87C76.0916 11.87 76.2516 11.934 76.4756 12.062C76.6356 12.126 76.7156 12.238 76.7156 12.398C76.8436 12.686 76.9236 13.134 76.9556 13.742C76.9556 16.942 76.9396 18.75 76.9076 19.166C76.9076 19.326 76.9876 19.374 77.1476 19.31C78.2036 18.702 78.9716 18.158 79.4516 17.678C80.3796 16.846 81.1316 16.03 81.7076 15.23L81.8516 15.086C81.9796 14.958 82.1076 14.942 82.2356 15.038C82.3956 15.134 82.4756 15.246 82.4756 15.374L82.3316 15.854L82.1876 16.286C81.2916 18.046 80.0276 19.342 78.3956 20.174C78.3316 20.238 78.0916 20.35 77.6756 20.51C77.4196 20.67 77.2916 20.894 77.2916 21.182L77.4356 21.662C77.9156 22.846 78.6356 23.902 79.5956 24.83C79.7556 24.958 79.9156 25.022 80.0756 25.022H80.4596C80.9396 25.022 81.3236 24.958 81.6116 24.83C82.3796 24.478 83.0516 23.998 83.6276 23.39C84.2036 22.782 84.9716 21.726 85.9316 20.222L87.2276 18.398C87.3556 18.174 87.5476 18.126 87.8036 18.254L88.0436 18.398C88.1076 18.462 88.1236 18.542 88.0916 18.638L87.9476 18.974L87.4196 19.838L86.8916 20.654C85.5156 22.606 84.7476 23.694 84.5876 23.918C84.0116 24.622 83.4356 25.15 82.8596 25.502C82.2836 25.758 81.8196 25.886 81.4676 25.886C81.0196 25.886 80.5876 25.79 80.1716 25.598C78.7636 24.958 77.7396 24.126 77.0996 23.102C77.0676 23.006 77.0196 22.958 76.9556 22.958C76.8916 22.894 76.8436 22.894 76.8116 22.958L76.7636 23.15C76.7316 23.886 76.6676 25.358 76.5716 27.566C76.5396 28.462 76.4596 29.166 76.3316 29.678L76.1876 30.062C76.0916 30.254 75.9476 30.334 75.7556 30.302ZM98.3291 27.086L96.7451 26.654C96.3931 26.558 96.0251 26.222 95.6411 25.646C95.2891 25.07 95.0491 24.446 94.9211 23.774C94.8251 23.39 94.7291 22.638 94.6331 21.518C94.5691 20.686 94.5371 19.694 94.5371 18.542C94.5371 18.446 94.5371 18.334 94.5371 18.206C94.5371 18.078 94.5371 17.95 94.5371 17.822C94.5371 17.694 94.5371 17.614 94.5371 17.582C94.4731 17.518 94.4091 17.55 94.3451 17.678L94.0571 18.302C93.0331 20.542 91.9131 22.526 90.6971 24.254C90.2491 24.83 89.9771 25.166 89.8811 25.262C89.6891 25.454 89.4491 25.502 89.1611 25.406L88.1531 25.118C87.7051 25.022 87.3851 24.75 87.1931 24.302C86.9371 23.63 86.7771 22.974 86.7131 22.334L86.6651 20.942C86.6651 20.814 86.6971 20.142 86.7611 18.926C86.8891 17.646 87.0331 16.718 87.1931 16.142C87.3211 15.758 87.4491 15.566 87.5771 15.566C87.6731 15.566 87.8491 15.614 88.1051 15.71C88.3611 15.806 88.4891 16.014 88.4891 16.334C88.5531 17.87 88.5851 18.75 88.5851 18.974C88.6491 19.998 88.7611 21.23 88.9211 22.67C88.9531 22.862 89.0171 23.294 89.1131 23.966C89.1131 24.03 89.1291 24.078 89.1611 24.11C89.2251 24.11 89.2731 24.094 89.3051 24.062C89.6251 23.87 89.9131 23.566 90.1691 23.15C90.7771 22.382 91.3531 21.486 91.8971 20.462C92.6971 18.958 93.4971 17.214 94.2971 15.23L94.7771 13.982C94.9371 13.63 95.0491 13.294 95.1131 12.974C95.1451 12.718 95.2571 12.366 95.4491 11.918C95.4811 11.79 95.5771 11.742 95.7371 11.774L96.7451 12.11C96.9691 12.206 97.1291 12.366 97.2251 12.59C97.3531 12.942 97.3851 13.454 97.3211 14.126L97.1291 16.958C97.0651 18.174 97.0331 19.534 97.0331 21.038C97.0331 21.71 97.1291 22.718 97.3211 24.062C97.4171 24.702 97.5931 25.31 97.8491 25.886C97.9451 26.11 98.0251 26.222 98.0891 26.222C98.2171 26.222 98.3451 26.158 98.4731 26.03C98.9531 25.742 99.3691 25.358 99.7211 24.878C100.041 24.462 100.633 23.566 101.497 22.19C102.297 20.91 102.825 19.982 103.081 19.406C103.241 18.99 103.433 18.67 103.657 18.446C103.817 18.286 103.961 18.222 104.089 18.254C104.601 18.382 104.905 18.494 105.001 18.59C104.745 19.102 104.521 19.486 104.329 19.742C103.913 20.318 103.497 20.974 103.081 21.71L101.689 24.11C101.017 25.198 100.473 25.95 100.057 26.366L99.4811 26.846C99.1291 27.102 98.7451 27.182 98.3291 27.086Z" fill="white"></path></svg> 