<?xml version="1.0" encoding="UTF-8"?> <svg xmlns="http://www.w3.org/2000/svg" width="148" height="77" viewBox="0 0 148 77" fill="none"><path d="M16.4142 9.84235C16.8694 9.33028 17.5522 9.38718 18.4625 10.013C19.4298 10.7527 19.9418 11.407 19.9987 11.976C19.9987 12.7725 19.4013 14.2518 18.2065 16.4139C17.7513 17.2674 17.1254 18.3199 16.3289 19.5717L15.3048 21.2786L14.2806 22.9001C10.8099 28.7036 9.50131 32.0605 10.3548 32.9708C10.9806 33.6536 13.7401 32.1743 18.6332 28.5329C20.2263 27.3949 21.9048 26.1148 23.6686 24.6924C24.2375 24.2372 24.778 23.782 25.2901 23.3268C25.4608 23.213 25.603 23.0993 25.7168 22.9855L25.8875 22.8148C26.1151 22.6441 26.3711 22.6441 26.6556 22.8148C26.997 22.9855 27.0823 23.2415 26.9117 23.5829L26.741 23.7536C26.6841 23.8674 26.5703 24.038 26.3996 24.2656C26.0013 24.7208 25.5746 25.2329 25.1194 25.8018C23.697 27.4518 22.2461 28.9311 20.7668 30.2398C16.0444 34.3363 12.0901 35.7872 8.9039 34.5924C5.88838 33.4544 6.03062 30.0975 9.33062 24.5217C9.89959 23.5544 10.5539 22.5303 11.2936 21.4492L12.2323 19.9984C12.5168 19.657 12.8298 19.2303 13.1711 18.7182L16.3289 13.4268C14.2806 14.5079 10.753 17.751 5.74614 23.1561C5.23407 23.6113 4.75045 24.0665 4.29527 24.5217C3.8401 24.9199 2.9582 25.7165 1.64958 26.9113C1.25131 27.3096 0.909928 27.1389 0.625446 26.3993C0.284066 25.6596 0.397859 25.0906 0.966825 24.6924C2.50303 23.213 5.12027 20.6242 8.81855 16.926C12.5168 13.1708 15.0487 10.8096 16.4142 9.84235ZM54.8728 22.7294C55.0435 22.5587 55.2995 22.5587 55.6409 22.7294C55.9253 22.9001 55.9822 23.1561 55.8116 23.4975C54.6167 25.4889 52.4262 27.2527 49.24 28.7889C46.0538 30.3251 42.8107 31.1786 39.5107 31.3493C35.7555 34.5924 32.2564 35.6734 29.0133 34.5924C25.9978 33.5682 24.2909 31.5199 23.8926 28.4475C23.4943 25.3182 24.6038 22.2174 27.221 19.1449C27.79 16.0156 29.2409 13.4268 31.5736 11.3786C34.134 9.21649 37.0072 8.41994 40.1934 8.9889C44.859 9.84235 47.1348 12.5165 47.021 17.0113C46.9641 21.051 45.2288 25.0622 41.815 29.0449C44.2616 28.5898 46.8219 27.651 49.496 26.2286C51.7719 25.0906 53.5641 23.9243 54.8728 22.7294ZM31.2322 17.0967C30.3219 19.1449 30.009 21.1363 30.2934 23.0708C30.5779 25.0053 31.4029 26.4846 32.7684 27.5087C34.0202 28.5329 35.5564 29.1303 37.3771 29.301C38.515 28.0493 39.7383 26.3424 41.0469 24.1803C42.9245 20.8234 43.8917 17.8363 43.9486 15.2191C43.9486 12.3174 42.64 10.7811 40.0228 10.6105C38.2021 10.4967 36.4667 11.0941 34.8167 12.4027C33.2236 13.6544 32.0288 15.2191 31.2322 17.0967ZM29.7814 32.9708C31.3176 33.7105 33.2236 33.0846 35.4995 31.0932C33.7926 30.8087 32.3133 30.2113 31.0615 29.301C29.1271 27.9924 27.8753 26.1717 27.3064 23.8389C26.3391 28.7889 27.1641 31.8329 29.7814 32.9708ZM85.7603 22.9855C85.9309 22.701 86.187 22.6725 86.5284 22.9001C86.8697 23.1277 86.9551 23.4122 86.7844 23.7536C85.3051 26.3139 82.5172 28.8743 78.4206 31.4346C76.8844 32.4018 74.8646 33.5398 72.3611 34.8484L69.0327 36.6406L65.5335 38.4329C59.6163 50.3812 54.3818 59.1717 49.8301 64.8044C43.7421 72.3717 38.5646 74.8467 34.2973 72.2294C30.2008 69.726 30.2577 65.3165 34.468 59.001C37.9956 53.7096 42.9456 48.8449 49.318 44.407C52.9594 41.8467 57.3689 39.2294 62.5465 36.5553C64.1965 33.2553 65.7896 30.0122 67.3258 26.826C67.9516 25.5743 68.549 24.2941 69.118 22.9855C69.5732 22.132 70.0853 21.0794 70.6542 19.8277L68.6913 22.388L66.643 25.1191C65.1068 27.1105 63.7413 28.7605 62.5465 30.0691C59.3603 33.4829 56.8568 35.0475 55.0361 34.763C53.4999 34.5924 52.3051 34.0803 51.4516 33.2268C50.4844 32.2596 50.1715 31.1217 50.5128 29.813C51.537 26.0579 54.0404 21.8475 58.0232 17.182C62.3473 12.0613 65.9603 9.72856 68.862 10.1837C70.512 10.4682 71.4792 11.2363 71.7637 12.488C71.8775 12.9432 71.8775 13.4837 71.7637 14.1096C71.6499 14.6217 71.4792 15.1622 71.2516 15.7311L72.7025 14.1949L74.1534 12.7441C74.2103 12.6872 74.3809 12.6303 74.6654 12.5734C75.0068 12.5165 75.3482 12.5165 75.6896 12.5734C76.6568 12.6303 77.1689 13.0286 77.2258 13.7682C76.3154 15.2475 75.0922 17.7225 73.5559 21.1932L72.9585 22.388L72.3611 23.7536C71.849 24.8915 71.4223 25.8872 71.0809 26.7406C69.8861 29.2441 68.7197 31.7191 67.5818 34.1656C77.3111 29.4432 83.3706 25.7165 85.7603 22.9855ZM54.6094 32.288C55.918 32.4587 57.8809 31.1501 60.4982 28.3622C61.4654 27.338 62.7172 25.9156 64.2534 24.0949L66.2163 21.7053L68.2646 19.3156C69.0611 17.6656 69.5447 16.0725 69.7154 14.5363C69.943 12.8294 69.6301 12.0329 68.7766 12.1467C67.3542 12.4311 65.4482 13.9389 63.0585 16.6699C60.9534 19.0027 58.9335 21.7053 56.999 24.7777C53.9835 29.6708 53.187 32.1743 54.6094 32.288ZM34.5534 70.6079C36.9999 72.4286 40.812 70.1812 45.9896 63.8656C50.4275 58.4036 55.1784 50.8648 60.2422 41.2493C56.2025 43.4682 52.7603 45.5734 49.9154 47.5648C45.0792 51.0355 40.8689 55.1605 37.2844 59.9398C33.1309 65.3449 32.2206 68.901 34.5534 70.6079ZM117.277 22.8148C117.618 22.9855 117.703 23.2415 117.533 23.5829L117.362 23.7536C117.305 23.8674 117.191 24.038 117.02 24.2656C116.622 24.7208 116.195 25.2329 115.74 25.8018C114.318 27.4518 112.867 28.9311 111.388 30.2398C106.665 34.3363 102.711 35.7872 99.5248 34.5924C96.5093 33.4544 96.6515 30.0975 99.9515 24.5217C100.52 23.5544 101.175 22.5303 101.914 21.4492L102.853 19.9984C103.138 19.657 103.451 19.2303 103.792 18.7182C105.101 16.8975 105.727 15.9303 105.67 15.8165C105.613 15.9303 105.328 16.3001 104.816 16.926C104.247 17.6656 103.593 18.4906 102.853 19.401C100.862 21.8475 98.8705 24.1234 96.8791 26.2286C90.7343 32.601 86.4101 35.5596 83.9067 35.1044C82.5981 34.8768 81.8584 34.1087 81.6877 32.8001C81.3463 30.2967 82.6265 26.6553 85.5282 21.876L86.3817 20.5105L87.2351 19.2303C87.9179 18.0924 88.43 17.2389 88.7713 16.6699C89.7955 14.9061 90.3929 13.5691 90.5636 12.6587C90.5636 12.2605 90.7912 11.976 91.2463 11.8053C91.6446 11.6915 92.1282 11.7199 92.6972 11.8906C93.2662 12.0613 93.6929 12.3174 93.9774 12.6587C94.3187 13.057 94.3472 13.4837 94.0627 13.9389C93.892 14.6217 93.2093 16.0156 92.0144 18.1208C91.5593 18.8605 90.9618 19.8846 90.2222 21.1932L89.2834 22.7294L88.2593 24.351C85.0731 29.813 83.8213 32.6863 84.5041 32.9708C85.3575 33.2553 89.1412 30.2113 95.855 23.8389C102.739 17.2389 106.552 12.6303 107.291 10.013C107.519 9.33028 108.116 9.33028 109.083 10.013C110.051 10.7527 110.563 11.407 110.62 11.976C110.62 12.7725 110.022 14.2518 108.827 16.4139C108.372 17.2674 107.746 18.3199 106.95 19.5717L105.926 21.2786L104.902 22.9001C101.431 28.7036 100.122 32.0605 100.976 32.9708C101.602 33.6536 104.361 32.1743 109.254 28.5329C110.847 27.3949 112.526 26.1148 114.289 24.6924C114.858 24.2372 115.399 23.782 115.911 23.3268C116.082 23.213 116.224 23.0993 116.338 22.9855L116.508 22.8148C116.736 22.6441 116.992 22.6441 117.277 22.8148ZM128.487 4.807C128.259 6.85528 127.519 8.84666 126.268 10.7811C125.016 12.7156 123.281 15.7596 121.062 19.913C117.477 26.5699 115.23 31.7475 114.319 35.4458C117.278 30.3251 122.086 24.6639 128.743 18.4622C135.798 11.9191 140.52 9.1027 142.91 10.013C143.536 10.2406 144.076 10.582 144.532 11.0372C145.044 11.4924 145.271 11.976 145.214 12.488C145.157 12.7156 145.044 12.8294 144.873 12.8294C144.645 12.8863 144.503 12.8579 144.446 12.7441C144.389 12.232 144.19 12.0044 143.849 12.0613C141.175 12.2889 135.997 16.0441 128.316 23.3268H128.401C127.832 24.6924 127.406 26.8544 127.121 29.813C126.837 33.113 127.093 34.9622 127.889 35.3605C129.141 36.0432 132.242 34.507 137.192 30.7518C139.013 29.3294 140.833 27.8217 142.654 26.2286C144.304 24.7493 145.442 23.6113 146.068 22.8148C146.352 22.5872 146.637 22.5872 146.921 22.8148C147.149 23.0424 147.206 23.2984 147.092 23.5829L146.75 24.0096L146.324 24.5217L145.47 25.5458C144.731 26.4561 144.048 27.2811 143.422 28.0208C141.601 30.126 139.894 31.8613 138.301 33.2268C133.75 37.1527 129.966 38.3191 126.95 36.726C124.106 35.1898 123.053 32.1743 123.793 27.6794C117.648 34.0518 114.405 38.3475 114.063 40.5665C113.722 40.9079 113.21 40.9648 112.527 40.7372C111.901 40.5096 111.503 40.1682 111.332 39.713C109.739 36.2424 112.072 28.8458 118.331 17.5234C120.663 13.3699 122.541 10.0984 123.963 7.70873C125.443 5.26218 126.04 3.04321 125.756 1.05183C126.609 0.653555 127.349 0.90959 127.975 1.81993C128.544 2.73028 128.714 3.72597 128.487 4.807Z" fill="#D92F88"></path></svg> 